<svg width="138" height="32" viewBox="0 0 138 32" fill="none" xmlns="http://www.w3.org/2000/svg">
<path d="M2.2591 28.8C2.00244 28.7533 1.82744 28.6367 1.7341 28.45C1.6641 28.31 1.60577 28.1583 1.5591 27.995C1.53577 27.855 1.51244 27.715 1.4891 27.575C1.46577 27.3883 1.44243 27.19 1.4191 26.98C1.39577 26.7933 1.37244 26.6067 1.3491 26.42C1.32577 26.1867 1.29077 25.965 1.2441 25.755C1.19744 25.545 1.12743 25.3233 1.0341 25.09C1.01077 25.02 0.987435 24.9617 0.964102 24.915C0.940768 24.845 0.905768 24.775 0.859102 24.705L0.439102 23.83C0.322435 23.5967 0.264102 23.3633 0.264102 23.13C0.240768 22.8267 0.229102 22.535 0.229102 22.255C0.229102 21.975 0.240768 21.695 0.264102 21.415C0.264102 21.3217 0.287435 21.205 0.334102 21.065C0.380768 20.8317 0.427435 20.61 0.474102 20.4C0.544102 20.1667 0.590768 19.945 0.614102 19.735C0.660768 19.455 0.707435 19.1867 0.754102 18.93C0.800768 18.65 0.835768 18.3817 0.859102 18.125C0.905768 17.8683 0.940768 17.6117 0.964102 17.355C0.987435 17.0983 1.01077 16.8417 1.0341 16.585C1.05743 16.3983 1.08077 16.2233 1.1041 16.06C1.12743 15.8733 1.15077 15.6983 1.1741 15.535C1.19744 15.465 1.2091 15.36 1.2091 15.22C1.2091 15.1033 1.22077 14.9867 1.2441 14.87C1.26743 14.73 1.29077 14.6017 1.3141 14.485C1.36077 14.2983 1.3841 14.1117 1.3841 13.925C1.40743 13.715 1.43077 13.5167 1.4541 13.33C1.47744 13.26 1.4891 13.1667 1.4891 13.05C1.5591 12.7933 1.60577 12.525 1.6291 12.245C1.67577 11.965 1.71077 11.685 1.7341 11.405L1.8391 10.81C1.88577 10.5533 1.92077 10.2967 1.9441 10.04C1.96743 9.76 1.99077 9.49167 2.0141 9.235C2.06077 8.97833 2.0841 8.72167 2.0841 8.465C2.0841 8.185 2.0841 7.91667 2.0841 7.66C2.0841 7.52 2.0841 7.39167 2.0841 7.275C2.10744 7.135 2.13077 6.995 2.1541 6.855C2.20077 6.24833 2.1541 5.665 2.0141 5.105C1.99077 5.08167 1.9791 5.05833 1.9791 5.035C1.88577 4.73167 1.8741 4.45167 1.9441 4.195C2.0141 3.93833 2.13077 3.69333 2.2941 3.46C2.5741 2.99333 2.97077 2.71333 3.4841 2.62C3.57744 2.59667 3.6591 2.585 3.7291 2.585C3.7991 2.56167 3.88077 2.56167 3.9741 2.585C4.06744 2.63167 4.1491 2.655 4.2191 2.655C4.4291 2.67833 4.62743 2.77167 4.8141 2.935L5.1291 3.355C5.29244 3.635 5.4441 3.845 5.5841 3.985C5.95744 4.45167 6.2841 4.95333 6.5641 5.49C6.72744 5.79333 6.86744 6.09667 6.9841 6.4C7.1241 6.68 7.2641 6.96 7.4041 7.24C7.4741 7.40333 7.53244 7.555 7.5791 7.695C7.6491 7.835 7.7191 7.975 7.7891 8.115C7.83577 8.185 7.90577 8.26667 7.9991 8.36C8.09244 8.5 8.1391 8.605 8.1391 8.675C8.18577 8.76833 8.1741 8.85 8.1041 8.92C8.08077 8.94333 8.08077 8.97833 8.1041 9.025C8.12744 9.07167 8.15077 9.11833 8.1741 9.165C8.19744 9.18833 8.2441 9.32833 8.3141 9.585C8.3841 9.81833 8.40744 9.9 8.3841 9.83C8.43077 9.94667 8.50077 10.005 8.5941 10.005C8.6641 10.0283 8.71077 10.075 8.7341 10.145C8.75744 10.1917 8.72244 10.25 8.6291 10.32C8.5591 10.3433 8.5591 10.4367 8.6291 10.6C8.6991 10.74 8.74577 10.8333 8.7691 10.88C8.86244 11.1133 8.9441 11.3467 9.0141 11.58C9.0841 11.79 9.16577 12.0117 9.2591 12.245C9.37577 12.5483 9.48077 12.8633 9.5741 13.19C9.66744 13.5167 9.76077 13.8433 9.8541 14.17C9.9241 14.4033 9.9941 14.6367 10.0641 14.87C10.1574 15.08 10.2391 15.29 10.3091 15.5C10.3091 15.5467 10.3324 15.57 10.3791 15.57L10.4491 15.5C10.4491 15.4533 10.4724 15.3833 10.5191 15.29C10.5658 15.0333 10.6241 14.7767 10.6941 14.52C10.7641 14.24 10.8341 13.9717 10.9041 13.715C11.0208 13.365 11.1141 13.015 11.1841 12.665C11.2774 12.315 11.3708 11.965 11.4641 11.615C11.5108 11.405 11.5691 11.195 11.6391 10.985C11.7091 10.7517 11.7558 10.53 11.7791 10.32C11.8724 9.92333 11.9658 9.53833 12.0591 9.165C12.1524 8.79167 12.2341 8.41833 12.3041 8.045C12.3274 7.99833 12.3391 7.95167 12.3391 7.905C12.3624 7.85833 12.3741 7.81167 12.3741 7.765C12.3974 7.53167 12.4674 7.31 12.5841 7.1C12.8174 6.61 13.2024 6.295 13.7391 6.155C13.9958 6.085 14.2524 6.085 14.5091 6.155C14.7191 6.20167 14.8708 6.28333 14.9641 6.4C15.1274 6.56333 15.2791 6.72667 15.4191 6.89C15.5824 7.05333 15.7224 7.22833 15.8391 7.415C15.9324 7.555 16.0258 7.695 16.1191 7.835C16.2124 7.95167 16.3058 8.08 16.3991 8.22C16.4691 8.31333 16.5391 8.41833 16.6091 8.535C16.6791 8.62833 16.7374 8.73333 16.7841 8.85C16.9708 9.17667 17.1458 9.515 17.3091 9.865C17.4724 10.215 17.6124 10.5767 17.7291 10.95C17.7291 10.9967 17.7408 11.0317 17.7641 11.055C17.8808 11.2883 17.9741 11.5333 18.0441 11.79C18.1141 12.0233 18.1841 12.2683 18.2541 12.525C18.3474 12.7817 18.4174 13.0383 18.4641 13.295C18.5341 13.5517 18.6041 13.8083 18.6741 14.065C18.6741 14.1583 18.6858 14.2283 18.7091 14.275C18.7791 14.4617 18.8374 14.66 18.8841 14.87C18.9308 15.08 18.9774 15.2783 19.0241 15.465C19.0708 15.745 19.1174 16.025 19.1641 16.305C19.2108 16.585 19.2574 16.8533 19.3041 17.11C19.3508 17.46 19.3974 17.81 19.4441 18.16C19.4908 18.51 19.5491 18.86 19.6191 19.21C19.6658 19.4433 19.7008 19.6883 19.7241 19.945C19.7708 20.2017 19.8058 20.4583 19.8291 20.715C19.8291 20.785 19.8524 20.89 19.8991 21.03L20.0041 21.87C20.0041 21.9867 20.0158 22.0683 20.0391 22.115C20.1558 22.5583 20.2258 23.0133 20.2491 23.48C20.2724 23.5033 20.2841 23.5383 20.2841 23.585C20.2841 23.6083 20.2958 23.6433 20.3191 23.69L20.5641 25.09C20.6108 25.2533 20.6108 25.4283 20.5641 25.615L20.4941 25.895C20.4941 26.0817 20.4591 26.2567 20.3891 26.42C20.3191 26.5833 20.2374 26.7467 20.1441 26.91C20.0741 27.0033 19.9924 27.0967 19.8991 27.19C19.8058 27.3067 19.7008 27.4 19.5841 27.47C19.3274 27.6567 19.0708 27.6683 18.8141 27.505C18.2774 27.155 17.8808 26.7233 17.6241 26.21C17.6008 26.1167 17.5658 26.035 17.5191 25.965C17.4958 25.8717 17.4841 25.7783 17.4841 25.685L17.3791 25.02C17.3558 24.9033 17.3324 24.7867 17.3091 24.67C17.3091 24.53 17.2974 24.4017 17.2741 24.285L16.9241 22.255C16.9008 22.0917 16.8774 21.94 16.8541 21.8C16.8308 21.66 16.8074 21.5083 16.7841 21.345L16.6441 20.575C16.5974 20.3183 16.5508 20.0617 16.5041 19.805C16.4574 19.525 16.4108 19.2567 16.3641 19L16.0141 16.76C15.9908 16.4333 15.9324 16.1183 15.8391 15.815C15.7691 15.4883 15.6991 15.1733 15.6291 14.87C15.5358 14.4967 15.4308 14.1467 15.3141 13.82C15.1974 13.47 15.0691 13.1317 14.9291 12.805L14.8241 12.49C14.8008 12.42 14.7658 12.35 14.7191 12.28C14.6724 12.21 14.6258 12.1517 14.5791 12.105C14.5091 12.105 14.4741 12.1167 14.4741 12.14L14.3691 12.49C14.2758 12.7933 14.1941 13.12 14.1241 13.47C14.0541 13.7967 13.9724 14.1233 13.8791 14.45C13.8324 14.6367 13.7858 14.8233 13.7391 15.01C13.6924 15.1967 13.6458 15.3833 13.5991 15.57C13.5524 15.7333 13.5058 15.9083 13.4591 16.095C13.4358 16.2583 13.4008 16.4333 13.3541 16.62C13.3074 16.9 13.2491 17.18 13.1791 17.46C13.1091 17.74 13.0508 18.02 13.0041 18.3C12.9808 18.51 12.9458 18.72 12.8991 18.93C12.8758 19.14 12.8524 19.35 12.8291 19.56V19.77C12.8758 19.9567 12.8291 20.12 12.6891 20.26C12.6658 20.33 12.6308 20.4 12.5841 20.47C12.5608 20.5167 12.5374 20.575 12.5141 20.645C12.4674 20.855 12.4091 21.0067 12.3391 21.1L12.2341 21.345C12.2108 21.3683 12.1874 21.415 12.1641 21.485C12.1641 21.5317 12.1408 21.5783 12.0941 21.625C11.9308 21.905 11.7208 22.0917 11.4641 22.185C11.3708 22.2317 11.2774 22.2783 11.1841 22.325C11.1141 22.3717 11.0324 22.4183 10.9391 22.465C10.7058 22.5817 10.4608 22.57 10.2041 22.43C9.8541 22.1967 9.58577 21.94 9.3991 21.66L8.7691 20.75C8.7691 20.7267 8.75744 20.715 8.7341 20.715C8.7341 20.6917 8.7341 20.68 8.7341 20.68C8.64077 20.4233 8.53577 20.19 8.4191 19.98C8.30244 19.77 8.2091 19.5483 8.1391 19.315L7.7191 18.09C7.60244 17.7867 7.49744 17.4833 7.4041 17.18C7.31077 16.8767 7.20577 16.5733 7.0891 16.27L6.9841 15.99C6.93744 15.78 6.8791 15.57 6.8091 15.36C6.76244 15.15 6.7041 14.9517 6.6341 14.765C6.58744 14.555 6.5291 14.3567 6.4591 14.17C6.3891 13.96 6.33077 13.7617 6.2841 13.575C6.19077 13.3183 6.09744 13.0617 6.0041 12.805C5.9341 12.525 5.84077 12.2567 5.7241 12C5.67744 11.8367 5.60744 11.7083 5.5141 11.615C5.32744 11.4283 5.1991 11.2067 5.1291 10.95C5.1291 10.9033 5.10577 10.88 5.0591 10.88L4.9891 10.95V10.985C4.96577 11.0083 4.9541 11.0433 4.9541 11.09C4.93077 11.3233 4.90744 11.5683 4.8841 11.825C4.86077 12.0817 4.82577 12.3383 4.7791 12.595L4.6741 13.75C4.65077 13.9367 4.62744 14.1233 4.6041 14.31C4.6041 14.4967 4.59244 14.6833 4.5691 14.87C4.54577 14.9633 4.52243 15.0567 4.4991 15.15C4.4991 15.2433 4.4991 15.3483 4.4991 15.465C4.47577 16.0483 4.40577 16.6667 4.2891 17.32C4.26577 17.4833 4.24244 17.67 4.2191 17.88C4.19577 18.0667 4.17244 18.2533 4.1491 18.44L4.0441 19.21C3.9741 19.63 3.9391 20.0383 3.9391 20.435C3.9391 20.5983 3.9391 20.7617 3.9391 20.925C3.96244 21.0883 3.95077 21.2517 3.9041 21.415C3.88077 21.625 3.9041 21.87 3.9741 22.15C4.06744 22.3133 4.10244 22.4767 4.0791 22.64C4.0791 22.8033 4.05577 22.9783 4.0091 23.165C3.98577 23.305 3.9391 23.445 3.8691 23.585C3.82244 23.725 3.74077 23.8533 3.6241 23.97C3.57744 24.04 3.5191 24.1217 3.4491 24.215C3.40244 24.3083 3.3441 24.39 3.2741 24.46C3.08744 24.6933 2.9941 24.95 2.9941 25.23V26C2.9941 26.1867 2.98244 26.3617 2.9591 26.525C2.9591 26.7117 2.97077 26.8983 2.9941 27.085C2.9941 27.1083 2.98244 27.1317 2.9591 27.155C2.9591 27.1783 2.9591 27.2133 2.9591 27.26C2.93577 27.33 2.9241 27.4 2.9241 27.47C2.9241 27.54 2.9241 27.61 2.9241 27.68C2.94744 27.89 2.9241 28.1117 2.8541 28.345C2.73744 28.555 2.58577 28.695 2.3991 28.765C2.35243 28.7883 2.30577 28.8 2.2591 28.8ZM29.6745 30.795C29.3478 30.935 29.0795 30.83 28.8695 30.48C28.7528 30.3167 28.6712 30.095 28.6245 29.815C28.6012 29.605 28.5662 29.395 28.5195 29.185C28.4728 28.975 28.4262 28.7533 28.3795 28.52C28.3562 28.4267 28.3212 28.3333 28.2745 28.24C28.2512 28.1467 28.2162 28.0533 28.1695 27.96C28.0995 27.82 28.0295 27.68 27.9595 27.54C27.8895 27.4 27.8078 27.2717 27.7145 27.155C27.6212 26.9683 27.5628 26.84 27.5395 26.77L27.3645 26.385C27.2245 26.0583 27.1545 25.72 27.1545 25.37C27.1312 25.2067 27.1195 25.0433 27.1195 24.88C27.1428 24.7167 27.1662 24.5533 27.1895 24.39C27.2595 23.97 27.2478 23.585 27.1545 23.235L26.8395 21.66C26.8162 21.52 26.7928 21.38 26.7695 21.24C26.7462 21.0767 26.7228 20.9133 26.6995 20.75L26.5945 20.26C26.5712 20.05 26.5478 19.84 26.5245 19.63C26.5012 19.42 26.4778 19.2217 26.4545 19.035C26.4312 18.965 26.4195 18.895 26.4195 18.825C26.4195 18.755 26.4195 18.685 26.4195 18.615C26.4195 18.3583 26.3378 18.1367 26.1745 17.95C26.0812 17.8333 25.9878 17.7167 25.8945 17.6C25.8245 17.46 25.7662 17.3317 25.7195 17.215C25.6262 17.075 25.5328 16.9467 25.4395 16.83C25.3695 16.69 25.2995 16.55 25.2295 16.41C25.1595 16.27 25.0428 16.1883 24.8795 16.165C24.7395 16.1417 24.6112 16.0833 24.4945 15.99C24.3312 15.85 24.1795 15.6983 24.0395 15.535C23.9928 15.4417 23.9462 15.3717 23.8995 15.325C23.8295 15.2317 23.8062 15.1383 23.8295 15.045C23.8762 14.975 23.8762 14.905 23.8295 14.835C23.7595 14.7183 23.7362 14.6133 23.7595 14.52C23.7828 14.4267 23.8062 14.3333 23.8295 14.24C23.8295 14.1467 23.8528 14.065 23.8995 13.995C23.9462 13.925 23.9928 13.855 24.0395 13.785C24.1328 13.645 24.2378 13.5283 24.3545 13.435C24.4945 13.3183 24.6345 13.2133 24.7745 13.12C24.8678 13.0733 24.9378 13.0267 24.9845 12.98C25.1012 12.9333 25.1362 12.8633 25.0895 12.77V12.665C25.0428 12.4083 24.9962 12.1633 24.9495 11.93C24.9028 11.6967 24.8445 11.4633 24.7745 11.23C24.7512 11.1133 24.7162 10.9967 24.6695 10.88C24.6462 10.7633 24.6112 10.6467 24.5645 10.53C24.5412 10.5067 24.5295 10.46 24.5295 10.39C24.5295 10.2733 24.5178 10.1567 24.4945 10.04C24.4712 9.92333 24.4478 9.81833 24.4245 9.725C24.3545 9.165 24.2495 8.605 24.1095 8.045C24.0862 7.88167 24.0278 7.71833 23.9345 7.555C23.8412 7.345 23.7828 7.15833 23.7595 6.995C23.6895 6.73833 23.6195 6.49333 23.5495 6.26C23.4795 6.00333 23.4212 5.75833 23.3745 5.525C23.3045 5.29167 23.2462 5.05833 23.1995 4.825C23.1762 4.59167 23.1528 4.35833 23.1295 4.125C23.1062 3.565 23.3045 3.11 23.7245 2.76L23.8295 2.655C24.0162 2.49167 24.2028 2.38667 24.3895 2.34C24.5995 2.27 24.8212 2.235 25.0545 2.235C25.2645 2.25833 25.4512 2.24667 25.6145 2.2C25.8012 2.13 25.9762 2.04833 26.1395 1.955C26.1862 1.93167 26.2562 1.92 26.3495 1.92H26.4545C26.5245 1.92 26.5828 1.93167 26.6295 1.955C26.6995 2.00166 26.7812 1.97833 26.8745 1.885C26.8978 1.86167 26.9328 1.87333 26.9795 1.92C27.0262 1.99 27.0845 2.025 27.1545 2.025C27.2012 2.04833 27.2478 2.06 27.2945 2.06C27.3645 2.06 27.4345 2.08333 27.5045 2.13C27.5512 2.15333 27.5978 2.18833 27.6445 2.235C27.7145 2.28167 27.7612 2.35167 27.7845 2.445L27.8895 2.55C27.9595 2.57333 28.0178 2.63167 28.0645 2.725C28.0878 2.81833 28.1695 2.865 28.3095 2.865C28.3795 2.865 28.4845 2.84167 28.6245 2.795C28.8812 2.74833 29.1262 2.70167 29.3595 2.655C29.6162 2.60833 29.8612 2.57333 30.0945 2.55C30.1645 2.52667 30.2462 2.515 30.3395 2.515C30.8062 2.49167 31.2728 2.445 31.7395 2.375C32.2062 2.305 32.6612 2.22333 33.1045 2.13L33.2795 2.06C33.7462 1.99 34.1895 1.85 34.6095 1.64C34.7728 1.54667 34.9478 1.465 35.1345 1.395C35.3212 1.325 35.4962 1.255 35.6595 1.185L36.8495 0.764999C37.0128 0.718332 37.1178 0.671665 37.1645 0.624999C37.3045 0.508333 37.4328 0.426666 37.5495 0.379998C37.8528 0.193332 38.1912 0.0766659 38.5645 0.0299985C38.7745 0.0299985 38.9845 0.0649987 39.1945 0.134999C39.5212 0.274999 39.8245 0.496665 40.1045 0.799999C40.1745 0.916666 40.1978 1.045 40.1745 1.185C40.1045 1.325 40.1045 1.47667 40.1745 1.64C40.1978 1.78 40.1978 1.89666 40.1745 1.99C40.1512 2.08333 40.1395 2.17667 40.1395 2.27C40.1395 2.36333 40.1278 2.45667 40.1045 2.55C40.1045 2.66667 40.0695 2.76 39.9995 2.83C39.8362 3.06333 39.6728 3.23833 39.5095 3.355C39.4862 3.37833 39.4628 3.40167 39.4395 3.425C39.4395 3.44833 39.4162 3.48333 39.3695 3.53C39.3462 3.55333 39.3228 3.57667 39.2995 3.6C39.2995 3.62333 39.2762 3.65833 39.2295 3.705C39.1128 3.79833 39.0078 3.90333 38.9145 4.02C38.8445 4.13667 38.7628 4.25333 38.6695 4.37C38.5762 4.53333 38.4595 4.69667 38.3195 4.86C38.2028 5 38.0628 5.12833 37.8995 5.245L37.6195 5.56C37.4795 5.74667 37.3978 5.92167 37.3745 6.085C37.3278 6.295 37.2812 6.505 37.2345 6.715C37.2112 6.90167 37.1995 7.1 37.1995 7.31L37.0945 8.045C37.0945 8.13833 37.0712 8.23167 37.0245 8.325C36.9312 8.55833 36.7445 8.675 36.4645 8.675C36.4412 8.69833 36.4062 8.71 36.3595 8.71C36.3362 8.68667 36.3128 8.675 36.2895 8.675C36.0795 8.55833 35.9395 8.40667 35.8695 8.22C35.7762 7.91667 35.7062 7.57833 35.6595 7.205C35.6595 7.08833 35.6478 6.97166 35.6245 6.855C35.6245 6.715 35.6128 6.58667 35.5895 6.47L35.4845 6.225C35.4378 6.06167 35.3445 6.02667 35.2045 6.12C35.1812 6.12 35.1462 6.13167 35.0995 6.155C35.0762 6.17833 35.0412 6.20167 34.9945 6.225C34.9012 6.27167 34.8078 6.33 34.7145 6.4C34.6445 6.44667 34.5745 6.505 34.5045 6.575C34.2945 6.69167 34.0378 6.80833 33.7345 6.925C33.3145 7.065 32.9295 7.275 32.5795 7.555C32.5328 7.57833 32.4745 7.61333 32.4045 7.66C32.3578 7.70667 32.2995 7.75333 32.2295 7.8C32.1595 7.84667 32.0895 7.89333 32.0195 7.94C31.9495 7.98667 31.8678 8.03333 31.7745 8.08L31.5295 8.22C31.4595 8.26667 31.3778 8.36 31.2845 8.5C31.2612 8.61667 31.2262 8.745 31.1795 8.885C31.1562 9.00167 31.1445 9.13 31.1445 9.27C31.1445 9.48 31.1328 9.69 31.1095 9.9C31.1095 10.11 31.1212 10.32 31.1445 10.53C31.1445 10.6467 31.1445 10.775 31.1445 10.915C31.1445 11.0317 31.1212 11.1483 31.0745 11.265C31.0278 11.4283 31.0862 11.4867 31.2495 11.44C31.3662 11.44 31.4595 11.4283 31.5295 11.405C31.7862 11.3583 32.0428 11.3233 32.2995 11.3C32.5795 11.2533 32.8362 11.2067 33.0695 11.16L33.8395 11.055C33.9562 11.0317 34.0495 11.0083 34.1195 10.985C34.2128 10.9617 34.3062 10.9267 34.3995 10.88C34.5395 10.7867 34.6795 10.7283 34.8195 10.705C34.9595 10.6817 35.0995 10.6583 35.2395 10.635C35.5428 10.565 35.8462 10.6233 36.1495 10.81L36.6045 11.125C36.6978 11.2183 36.7445 11.3117 36.7445 11.405C36.7912 11.5683 36.8495 11.65 36.9195 11.65C36.9895 11.6267 37.0362 11.6267 37.0595 11.65C37.1295 11.7433 37.1878 11.8483 37.2345 11.965C37.3045 12.0583 37.3512 12.1633 37.3745 12.28C37.3745 12.3733 37.3395 12.4317 37.2695 12.455C37.1762 12.455 37.1062 12.49 37.0595 12.56C37.0128 12.63 36.9662 12.7 36.9195 12.77C36.8962 12.7933 36.8845 12.8167 36.8845 12.84C36.9078 12.8633 36.9195 12.8867 36.9195 12.91C36.9662 12.98 36.9662 13.0617 36.9195 13.155C36.8962 13.2017 36.8728 13.26 36.8495 13.33C36.8262 13.3767 36.8028 13.4233 36.7795 13.47C36.6862 13.68 36.5462 13.855 36.3595 13.995C36.2662 14.0883 36.1845 14.1583 36.1145 14.205C35.9278 14.3217 35.7528 14.5317 35.5895 14.835C35.5662 14.8817 35.5428 14.94 35.5195 15.01C35.4962 15.0567 35.4612 15.115 35.4145 15.185C35.3445 15.2783 35.2395 15.3483 35.0995 15.395C34.8662 15.4417 34.6795 15.43 34.5395 15.36L34.3295 15.255C34.1895 15.2083 34.0728 15.22 33.9795 15.29C33.9562 15.3133 33.8978 15.3483 33.8045 15.395C33.5945 15.4883 33.3612 15.5 33.1045 15.43C32.9878 15.3833 32.8595 15.325 32.7195 15.255C32.6028 15.185 32.4862 15.1267 32.3695 15.08C32.3228 15.0567 32.2762 15.0217 32.2295 14.975C32.1362 14.905 32.0312 14.8933 31.9145 14.94C31.7745 14.9633 31.6345 14.9983 31.4945 15.045C31.3545 15.0683 31.2145 15.1033 31.0745 15.15C30.8645 15.1733 30.6312 15.2433 30.3745 15.36C30.3045 15.36 30.2345 15.395 30.1645 15.465C30.0478 15.5583 30.0012 15.6633 30.0245 15.78V15.85C30.0945 16.06 30.1412 16.27 30.1645 16.48C30.2112 16.69 30.2462 16.9 30.2695 17.11L30.4795 18.58C30.4795 18.6033 30.4795 18.6267 30.4795 18.65C30.5028 18.65 30.5145 18.65 30.5145 18.65C30.5145 18.9067 30.5262 19.1633 30.5495 19.42C30.5728 19.6767 30.5845 19.9333 30.5845 20.19C30.5845 20.4933 30.5845 20.785 30.5845 21.065C30.6078 21.345 30.6195 21.625 30.6195 21.905V22.325C30.6662 22.4183 30.7362 22.465 30.8295 22.465L31.2845 22.36C31.4012 22.3367 31.5062 22.3133 31.5995 22.29C31.7162 22.2667 31.8212 22.2433 31.9145 22.22L32.5445 22.115C32.6845 22.115 32.7895 22.1033 32.8595 22.08C33.1628 22.0333 33.4662 21.975 33.7695 21.905C34.0728 21.835 34.3762 21.7767 34.6795 21.73C34.8195 21.7067 34.9595 21.6833 35.0995 21.66C35.2628 21.6367 35.4262 21.6133 35.5895 21.59C35.8462 21.5667 36.0912 21.5433 36.3245 21.52C36.5812 21.4733 36.8262 21.4383 37.0595 21.415C37.1762 21.3917 37.2812 21.38 37.3745 21.38C37.4912 21.3567 37.5962 21.345 37.6895 21.345C37.8295 21.2983 37.9345 21.2517 38.0045 21.205C38.0512 21.1583 38.0978 21.1233 38.1445 21.1C38.2145 21.0767 38.2612 21.0533 38.2845 21.03C38.4945 20.8433 38.7278 20.7733 38.9845 20.82C39.0545 20.82 39.1128 20.8083 39.1595 20.785C39.2062 20.785 39.2645 20.785 39.3345 20.785C39.4045 20.785 39.4628 20.7967 39.5095 20.82C39.6262 20.8667 39.7312 20.9133 39.8245 20.96C39.9178 20.9833 40.0112 21.03 40.1045 21.1C40.1278 21.1233 40.1512 21.135 40.1745 21.135C40.3612 21.2517 40.5478 21.2633 40.7345 21.17C40.8045 21.1233 40.8862 21.0883 40.9795 21.065C41.0728 21.0183 41.1662 20.9833 41.2595 20.96C41.4928 20.89 41.7262 20.89 41.9595 20.96C42.0295 20.9833 42.0995 21.0067 42.1695 21.03C42.2628 21.0533 42.3328 21.0883 42.3795 21.135C42.5195 21.205 42.6478 21.3217 42.7645 21.485C42.9745 21.7883 43.1145 22.1033 43.1845 22.43C43.2312 22.5 43.2312 22.57 43.1845 22.64C43.1612 22.71 43.1378 22.78 43.1145 22.85C43.0912 22.8967 43.0678 22.955 43.0445 23.025C43.0212 23.0717 42.9978 23.13 42.9745 23.2C42.9512 23.2467 42.9278 23.2933 42.9045 23.34C42.9045 23.4333 42.8578 23.5033 42.7645 23.55C42.6712 23.5733 42.6012 23.6433 42.5545 23.76C42.5078 23.8533 42.4495 23.8767 42.3795 23.83C42.2862 23.83 42.2278 23.8417 42.2045 23.865C42.0878 23.9583 41.9595 24.0283 41.8195 24.075C41.6795 24.1217 41.5395 24.1683 41.3995 24.215C41.1428 24.2617 40.8862 24.3317 40.6295 24.425C40.3728 24.495 40.1162 24.565 39.8595 24.635C39.7195 24.6817 39.6145 24.705 39.5445 24.705C39.4045 24.7283 39.2645 24.7633 39.1245 24.81C39.0078 24.8333 38.8912 24.8683 38.7745 24.915C38.7512 24.9383 38.7162 24.95 38.6695 24.95C38.6462 24.95 38.6112 24.9617 38.5645 24.985C38.4012 25.0083 38.2262 25.0433 38.0395 25.09C37.8762 25.1367 37.7128 25.195 37.5495 25.265C37.4795 25.3117 37.3745 25.335 37.2345 25.335C37.0478 25.335 36.8495 25.37 36.6395 25.44C36.4062 25.4867 36.1728 25.5333 35.9395 25.58C35.7062 25.6033 35.4612 25.6383 35.2045 25.685L34.4695 25.79C34.1662 25.86 33.8978 25.9417 33.6645 26.035C33.6178 26.0583 33.5595 26.0817 33.4895 26.105C33.4195 26.1283 33.3612 26.1517 33.3145 26.175C32.8245 26.2683 32.3695 26.4433 31.9495 26.7L31.6695 26.805C31.4828 26.8283 31.2962 26.8867 31.1095 26.98C30.9462 27.0733 30.7712 27.1667 30.5845 27.26C30.4445 27.3533 30.3512 27.4233 30.3045 27.47C30.2578 27.5167 30.2112 27.5867 30.1645 27.68C30.0478 27.96 29.9895 28.205 29.9895 28.415C30.0128 28.5783 30.0245 28.73 30.0245 28.87C30.0245 29.0333 30.0362 29.2083 30.0595 29.395C30.1062 29.675 30.0945 29.9317 30.0245 30.165C30.0245 30.2583 30.0012 30.375 29.9545 30.515C29.8612 30.655 29.7678 30.7483 29.6745 30.795ZM29.6745 11.755C29.7678 11.7083 29.8145 11.6383 29.8145 11.545C29.7912 11.4983 29.7795 11.4517 29.7795 11.405C29.7795 11.335 29.7678 11.2767 29.7445 11.23C29.6278 10.9267 29.5695 10.6583 29.5695 10.425C29.5695 10.3783 29.5578 10.3433 29.5345 10.32C29.5345 10.2967 29.5345 10.2733 29.5345 10.25C29.4878 10.2033 29.4645 10.18 29.4645 10.18V10.25C29.4412 10.3667 29.4178 10.495 29.3945 10.635C29.3945 10.775 29.3945 10.915 29.3945 11.055V11.615C29.4412 11.685 29.4878 11.72 29.5345 11.72C29.5578 11.7433 29.6045 11.755 29.6745 11.755ZM51.3206 30.55C51.134 30.5033 51.0056 30.3983 50.9356 30.235C50.889 30.0483 50.8423 29.8733 50.7956 29.71C50.749 29.5467 50.7256 29.3833 50.7256 29.22V29.01C50.749 28.7767 50.7373 28.5433 50.6906 28.31C50.644 28.1 50.609 27.8783 50.5856 27.645C50.5856 27.5517 50.574 27.4817 50.5506 27.435L50.1656 26.7C50.119 26.6533 50.049 26.56 49.9556 26.42C49.8856 26.2567 49.804 26.1167 49.7106 26C49.6406 25.86 49.559 25.72 49.4656 25.58C49.419 25.4867 49.3606 25.405 49.2906 25.335C49.2206 25.265 49.1506 25.1833 49.0806 25.09C49.034 25.02 48.9873 24.9383 48.9406 24.845C48.894 24.7517 48.824 24.67 48.7306 24.6L48.6256 24.425C48.5323 24.2617 48.439 24.11 48.3456 23.97C48.2756 23.83 48.2056 23.69 48.1356 23.55L48.0306 23.34C47.9373 23.0367 47.8323 22.745 47.7156 22.465C47.6223 22.185 47.5173 21.8933 47.4006 21.59C47.3306 21.4033 47.2606 21.2283 47.1906 21.065C47.144 20.9017 47.074 20.7383 46.9806 20.575C46.8173 20.225 46.7123 19.8517 46.6656 19.455C46.6423 19.175 46.6656 18.8833 46.7356 18.58C46.8056 18.3933 46.9106 18.23 47.0506 18.09C47.494 17.7167 47.984 17.5767 48.5206 17.67L48.9056 17.74C49.1856 17.8567 49.384 18.02 49.5006 18.23C49.594 18.3933 49.6756 18.5683 49.7456 18.755C49.8156 18.9183 49.8623 19.105 49.8856 19.315C49.9323 19.455 49.979 19.6067 50.0256 19.77C50.0723 19.91 50.1306 20.0617 50.2006 20.225C50.3173 20.4817 50.4456 20.7383 50.5856 20.995C50.7023 21.205 50.8423 21.38 51.0056 21.52C51.1223 21.6133 51.2506 21.7183 51.3906 21.835C51.5306 21.9517 51.659 22.0683 51.7756 22.185L52.5106 22.92C52.5573 22.9433 52.5923 22.9783 52.6156 23.025C52.6623 23.0717 52.6973 23.1183 52.7206 23.165C52.7906 23.2117 52.8723 23.2233 52.9656 23.2C53.199 23.13 53.4323 23.0017 53.6656 22.815C54.039 22.5117 54.3423 22.1967 54.5756 21.87C54.809 21.5433 54.9606 21.1583 55.0306 20.715C55.0773 20.3183 54.9606 19.9683 54.6806 19.665C54.634 19.5717 54.564 19.5133 54.4706 19.49C54.3073 19.3967 54.144 19.315 53.9806 19.245C53.8406 19.1517 53.6773 19.0817 53.4906 19.035C53.304 18.965 53.1406 18.86 53.0006 18.72C52.9073 18.6033 52.7673 18.5333 52.5806 18.51C52.4173 18.4633 52.2656 18.405 52.1256 18.335C51.9856 18.265 51.8573 18.1833 51.7406 18.09C51.6006 17.9733 51.4606 17.88 51.3206 17.81C51.1806 17.7167 51.0406 17.6233 50.9006 17.53C50.7606 17.46 50.6206 17.3783 50.4806 17.285C50.364 17.1917 50.2473 17.0983 50.1306 17.005C49.9673 16.8883 49.8156 16.7717 49.6756 16.655C49.5356 16.515 49.3956 16.3867 49.2556 16.27C49.1623 16.2233 49.104 16.1767 49.0806 16.13C48.964 15.99 48.8356 15.8617 48.6956 15.745C48.579 15.605 48.4623 15.4533 48.3456 15.29C48.2756 15.1967 48.2056 15.115 48.1356 15.045C48.0656 14.9517 47.984 14.8583 47.8906 14.765C47.7973 14.6717 47.704 14.5783 47.6106 14.485C47.5406 14.3683 47.4823 14.2517 47.4356 14.135L47.1206 13.61C47.004 13.3767 46.899 13.1433 46.8056 12.91C46.7123 12.6767 46.6073 12.4433 46.4906 12.21C46.3973 11.9533 46.304 11.6967 46.2106 11.44C46.1406 11.1833 46.0823 10.9267 46.0356 10.67C46.0123 10.4833 45.9773 10.3083 45.9306 10.145C45.9073 9.98167 45.884 9.81833 45.8606 9.655C45.8373 9.39833 45.8256 9.15333 45.8256 8.92C45.8256 8.66333 45.814 8.40667 45.7906 8.15C45.7906 7.84667 45.814 7.54333 45.8606 7.24C45.9073 6.93667 45.9656 6.63333 46.0356 6.33C46.0823 6.14333 46.129 5.95667 46.1756 5.77C46.2223 5.58333 46.269 5.40833 46.3156 5.245C46.3623 5.12833 46.409 5.02333 46.4556 4.93C46.5023 4.81333 46.5373 4.70833 46.5606 4.615C46.7473 4.125 47.0156 3.635 47.3656 3.145C47.4823 2.98167 47.599 2.83 47.7156 2.69C47.8556 2.52667 47.9956 2.375 48.1356 2.235C48.2523 2.11833 48.369 1.99 48.4856 1.85C48.6023 1.71 48.7073 1.57 48.8006 1.43C49.104 1.03333 49.454 0.741665 49.8506 0.554998C50.2473 0.344998 50.7023 0.263332 51.2156 0.309999C51.8456 0.403333 52.4406 0.648332 53.0006 1.045C53.1873 1.185 53.374 1.33667 53.5606 1.5C53.7706 1.64 53.969 1.79167 54.1556 1.955C54.6223 2.32833 55.0073 2.74833 55.3106 3.215C55.4506 3.425 55.5906 3.635 55.7306 3.845C55.8706 4.055 55.999 4.265 56.1156 4.475C56.1856 4.56833 56.244 4.66167 56.2906 4.755C56.3373 4.84833 56.3723 4.95333 56.3956 5.07C56.4423 5.28 56.454 5.49 56.4306 5.7C56.4306 5.88667 56.4073 6.085 56.3606 6.295L56.2556 6.575C56.1856 6.69167 56.1156 6.82 56.0456 6.96C55.9756 7.1 55.9056 7.22833 55.8356 7.345C55.789 7.43833 55.7306 7.53167 55.6606 7.625C55.614 7.695 55.5673 7.765 55.5206 7.835C55.334 8.13833 55.2406 8.44167 55.2406 8.745V12.14C55.2406 12.6067 55.1706 13.05 55.0306 13.47C55.0306 13.4933 55.019 13.5167 54.9956 13.54C54.9956 13.54 54.9956 13.5633 54.9956 13.61C54.9956 13.7267 55.0306 13.82 55.1006 13.89L55.4156 14.1C55.6723 14.2633 55.9056 14.45 56.1156 14.66C56.349 14.8467 56.5823 15.0333 56.8156 15.22C56.9556 15.3367 57.084 15.4767 57.2006 15.64C57.3173 15.78 57.4223 15.92 57.5156 16.06C57.609 16.1767 57.6906 16.305 57.7606 16.445C57.8306 16.5617 57.9006 16.6783 57.9706 16.795C58.0873 16.9583 58.169 17.145 58.2156 17.355C58.2856 17.565 58.344 17.775 58.3906 17.985V18.125C58.3673 18.2883 58.3673 18.4633 58.3906 18.65C58.414 18.8367 58.4373 19.0233 58.4606 19.21C58.4606 19.2567 58.4606 19.315 58.4606 19.385C58.484 19.4317 58.484 19.49 58.4606 19.56L58.3556 20.295C58.309 20.4117 58.3323 20.4817 58.4256 20.505C58.4956 20.505 58.5306 20.5283 58.5306 20.575C58.6006 20.5983 58.6123 20.6567 58.5656 20.75C58.519 20.8433 58.4606 20.8667 58.3906 20.82C58.3906 20.7967 58.379 20.785 58.3556 20.785C58.2856 20.7617 58.239 20.7733 58.2156 20.82C58.1923 20.89 58.169 20.96 58.1456 21.03C58.1456 21.1 58.1456 21.1817 58.1456 21.275C58.0523 21.415 58.029 21.5317 58.0756 21.625C58.0756 21.695 58.064 21.7417 58.0406 21.765C57.9706 21.835 57.9473 21.9283 57.9706 22.045C57.9706 22.0917 57.9356 22.1383 57.8656 22.185C57.7256 22.255 57.6206 22.3833 57.5506 22.57C57.434 22.8733 57.294 23.165 57.1306 23.445C56.9906 23.7017 56.8273 23.9583 56.6406 24.215C56.454 24.4717 56.2556 24.7283 56.0456 24.985C55.859 25.2183 55.6373 25.44 55.3806 25.65C55.1706 25.8133 54.949 25.965 54.7156 26.105C54.4823 26.2683 54.2373 26.4083 53.9806 26.525C53.8873 26.5483 53.794 26.595 53.7006 26.665L53.2806 26.875C53.094 26.8983 52.9073 26.9917 52.7206 27.155L52.5106 27.295C52.4406 27.365 52.3823 27.4817 52.3356 27.645V28.59C52.3356 28.6833 52.3356 28.7767 52.3356 28.87C52.3356 28.9633 52.324 29.0567 52.3006 29.15C52.2773 29.1967 52.2656 29.255 52.2656 29.325C52.2656 29.395 52.254 29.4533 52.2306 29.5C52.2073 29.5933 52.184 29.6867 52.1606 29.78C52.1373 29.8967 52.1023 30.0133 52.0556 30.13C51.939 30.4567 51.694 30.5967 51.3206 30.55ZM53.4556 12.98C53.549 12.98 53.6073 12.945 53.6306 12.875C53.654 12.7583 53.654 12.6417 53.6306 12.525C53.6306 12.4083 53.619 12.3033 53.5956 12.21C53.5723 12.0933 53.5606 11.9767 53.5606 11.86C53.5606 11.72 53.549 11.5917 53.5256 11.475C53.5256 11.335 53.514 11.195 53.4906 11.055C53.4673 10.915 53.4673 10.775 53.4906 10.635C53.514 10.6117 53.514 10.6 53.4906 10.6C53.4906 10.5767 53.4906 10.565 53.4906 10.565C53.4673 10.4017 53.4556 10.25 53.4556 10.11C53.4556 9.97 53.4556 9.83 53.4556 9.69C53.4556 9.22333 53.3623 8.76833 53.1756 8.325C53.0123 7.95167 52.8373 7.59 52.6506 7.24C52.4873 6.89 52.3123 6.54 52.1256 6.19C52.0556 6.05 51.9623 5.92167 51.8456 5.805C51.7523 5.665 51.6473 5.53667 51.5306 5.42C51.4373 5.28 51.309 5.25667 51.1456 5.35C51.0056 5.37333 50.854 5.46667 50.6906 5.63C50.5506 5.79333 50.4223 5.96833 50.3056 6.155C50.189 6.34167 50.084 6.54 49.9906 6.75C49.9673 6.82 49.944 6.89 49.9206 6.96C49.8973 7.03 49.874 7.08833 49.8506 7.135C49.8273 7.29833 49.804 7.47333 49.7806 7.66C49.7806 7.82333 49.7806 7.99833 49.7806 8.185V8.64C49.7806 8.96667 49.874 9.31667 50.0606 9.69C50.224 10.04 50.4573 10.39 50.7606 10.74C50.8306 10.8333 50.9006 10.9267 50.9706 11.02C51.0406 11.09 51.1106 11.1833 51.1806 11.3C51.3906 11.58 51.624 11.825 51.8806 12.035C52.1606 12.245 52.4523 12.4433 52.7556 12.63L53.2806 12.91C53.3273 12.9333 53.3623 12.945 53.3856 12.945C53.409 12.945 53.4323 12.9567 53.4556 12.98ZM67.2484 30.55C67.0617 30.5033 66.9334 30.3983 66.8634 30.235C66.8167 30.0483 66.77 29.8733 66.7234 29.71C66.6767 29.5467 66.6534 29.3833 66.6534 29.22V29.01C66.6767 28.7767 66.665 28.5433 66.6184 28.31C66.5717 28.1 66.5367 27.8783 66.5134 27.645C66.5134 27.5517 66.5017 27.4817 66.4784 27.435L66.0934 26.7C66.0467 26.6533 65.9767 26.56 65.8834 26.42C65.8134 26.2567 65.7317 26.1167 65.6384 26C65.5684 25.86 65.4867 25.72 65.3934 25.58C65.3467 25.4867 65.2884 25.405 65.2184 25.335C65.1484 25.265 65.0784 25.1833 65.0084 25.09C64.9617 25.02 64.915 24.9383 64.8684 24.845C64.8217 24.7517 64.7517 24.67 64.6584 24.6L64.5534 24.425C64.46 24.2617 64.3667 24.11 64.2734 23.97C64.2034 23.83 64.1334 23.69 64.0634 23.55L63.9584 23.34C63.865 23.0367 63.76 22.745 63.6434 22.465C63.55 22.185 63.445 21.8933 63.3284 21.59C63.2584 21.4033 63.1884 21.2283 63.1184 21.065C63.0717 20.9017 63.0017 20.7383 62.9084 20.575C62.745 20.225 62.64 19.8517 62.5934 19.455C62.57 19.175 62.5934 18.8833 62.6634 18.58C62.7334 18.3933 62.8384 18.23 62.9784 18.09C63.4217 17.7167 63.9117 17.5767 64.4484 17.67L64.8334 17.74C65.1134 17.8567 65.3117 18.02 65.4284 18.23C65.5217 18.3933 65.6034 18.5683 65.6734 18.755C65.7434 18.9183 65.79 19.105 65.8134 19.315C65.86 19.455 65.9067 19.6067 65.9534 19.77C66 19.91 66.0584 20.0617 66.1284 20.225C66.245 20.4817 66.3734 20.7383 66.5134 20.995C66.63 21.205 66.77 21.38 66.9334 21.52C67.05 21.6133 67.1784 21.7183 67.3184 21.835C67.4584 21.9517 67.5867 22.0683 67.7034 22.185L68.4384 22.92C68.485 22.9433 68.52 22.9783 68.5434 23.025C68.59 23.0717 68.625 23.1183 68.6484 23.165C68.7184 23.2117 68.8 23.2233 68.8934 23.2C69.1267 23.13 69.36 23.0017 69.5934 22.815C69.9667 22.5117 70.27 22.1967 70.5034 21.87C70.7367 21.5433 70.8884 21.1583 70.9584 20.715C71.005 20.3183 70.8884 19.9683 70.6084 19.665C70.5617 19.5717 70.4917 19.5133 70.3984 19.49C70.235 19.3967 70.0717 19.315 69.9084 19.245C69.7684 19.1517 69.605 19.0817 69.4184 19.035C69.2317 18.965 69.0684 18.86 68.9284 18.72C68.835 18.6033 68.695 18.5333 68.5084 18.51C68.345 18.4633 68.1934 18.405 68.0534 18.335C67.9134 18.265 67.785 18.1833 67.6684 18.09C67.5284 17.9733 67.3884 17.88 67.2484 17.81C67.1084 17.7167 66.9684 17.6233 66.8284 17.53C66.6884 17.46 66.5484 17.3783 66.4084 17.285C66.2917 17.1917 66.175 17.0983 66.0584 17.005C65.895 16.8883 65.7434 16.7717 65.6034 16.655C65.4634 16.515 65.3234 16.3867 65.1834 16.27C65.09 16.2233 65.0317 16.1767 65.0084 16.13C64.8917 15.99 64.7634 15.8617 64.6234 15.745C64.5067 15.605 64.39 15.4533 64.2734 15.29C64.2034 15.1967 64.1334 15.115 64.0634 15.045C63.9934 14.9517 63.9117 14.8583 63.8184 14.765C63.725 14.6717 63.6317 14.5783 63.5384 14.485C63.4684 14.3683 63.41 14.2517 63.3634 14.135L63.0484 13.61C62.9317 13.3767 62.8267 13.1433 62.7334 12.91C62.64 12.6767 62.535 12.4433 62.4184 12.21C62.325 11.9533 62.2317 11.6967 62.1384 11.44C62.0684 11.1833 62.01 10.9267 61.9634 10.67C61.94 10.4833 61.905 10.3083 61.8584 10.145C61.835 9.98167 61.8117 9.81833 61.7884 9.655C61.765 9.39833 61.7534 9.15333 61.7534 8.92C61.7534 8.66333 61.7417 8.40667 61.7184 8.15C61.7184 7.84667 61.7417 7.54333 61.7884 7.24C61.835 6.93667 61.8934 6.63333 61.9634 6.33C62.01 6.14333 62.0567 5.95667 62.1034 5.77C62.15 5.58333 62.1967 5.40833 62.2434 5.245C62.29 5.12833 62.3367 5.02333 62.3834 4.93C62.43 4.81333 62.465 4.70833 62.4884 4.615C62.675 4.125 62.9434 3.635 63.2934 3.145C63.41 2.98167 63.5267 2.83 63.6434 2.69C63.7834 2.52667 63.9234 2.375 64.0634 2.235C64.18 2.11833 64.2967 1.99 64.4134 1.85C64.53 1.71 64.635 1.57 64.7284 1.43C65.0317 1.03333 65.3817 0.741665 65.7784 0.554998C66.175 0.344998 66.63 0.263332 67.1434 0.309999C67.7734 0.403333 68.3684 0.648332 68.9284 1.045C69.115 1.185 69.3017 1.33667 69.4884 1.5C69.6984 1.64 69.8967 1.79167 70.0834 1.955C70.55 2.32833 70.935 2.74833 71.2384 3.215C71.3784 3.425 71.5184 3.635 71.6584 3.845C71.7984 4.055 71.9267 4.265 72.0434 4.475C72.1134 4.56833 72.1717 4.66167 72.2184 4.755C72.265 4.84833 72.3 4.95333 72.3234 5.07C72.37 5.28 72.3817 5.49 72.3584 5.7C72.3584 5.88667 72.335 6.085 72.2884 6.295L72.1834 6.575C72.1134 6.69167 72.0434 6.82 71.9734 6.96C71.9034 7.1 71.8334 7.22833 71.7634 7.345C71.7167 7.43833 71.6584 7.53167 71.5884 7.625C71.5417 7.695 71.495 7.765 71.4484 7.835C71.2617 8.13833 71.1684 8.44167 71.1684 8.745V12.14C71.1684 12.6067 71.0984 13.05 70.9584 13.47C70.9584 13.4933 70.9467 13.5167 70.9234 13.54C70.9234 13.54 70.9234 13.5633 70.9234 13.61C70.9234 13.7267 70.9584 13.82 71.0284 13.89L71.3434 14.1C71.6 14.2633 71.8334 14.45 72.0434 14.66C72.2767 14.8467 72.51 15.0333 72.7434 15.22C72.8834 15.3367 73.0117 15.4767 73.1284 15.64C73.245 15.78 73.35 15.92 73.4434 16.06C73.5367 16.1767 73.6184 16.305 73.6884 16.445C73.7584 16.5617 73.8284 16.6783 73.8984 16.795C74.015 16.9583 74.0967 17.145 74.1434 17.355C74.2134 17.565 74.2717 17.775 74.3184 17.985V18.125C74.295 18.2883 74.295 18.4633 74.3184 18.65C74.3417 18.8367 74.365 19.0233 74.3884 19.21C74.3884 19.2567 74.3884 19.315 74.3884 19.385C74.4117 19.4317 74.4117 19.49 74.3884 19.56L74.2834 20.295C74.2367 20.4117 74.26 20.4817 74.3534 20.505C74.4234 20.505 74.4584 20.5283 74.4584 20.575C74.5284 20.5983 74.54 20.6567 74.4934 20.75C74.4467 20.8433 74.3884 20.8667 74.3184 20.82C74.3184 20.7967 74.3067 20.785 74.2834 20.785C74.2134 20.7617 74.1667 20.7733 74.1434 20.82C74.12 20.89 74.0967 20.96 74.0734 21.03C74.0734 21.1 74.0734 21.1817 74.0734 21.275C73.98 21.415 73.9567 21.5317 74.0034 21.625C74.0034 21.695 73.9917 21.7417 73.9684 21.765C73.8984 21.835 73.875 21.9283 73.8984 22.045C73.8984 22.0917 73.8634 22.1383 73.7934 22.185C73.6534 22.255 73.5484 22.3833 73.4784 22.57C73.3617 22.8733 73.2217 23.165 73.0584 23.445C72.9184 23.7017 72.755 23.9583 72.5684 24.215C72.3817 24.4717 72.1834 24.7283 71.9734 24.985C71.7867 25.2183 71.565 25.44 71.3084 25.65C71.0984 25.8133 70.8767 25.965 70.6434 26.105C70.41 26.2683 70.165 26.4083 69.9084 26.525C69.815 26.5483 69.7217 26.595 69.6284 26.665L69.2084 26.875C69.0217 26.8983 68.835 26.9917 68.6484 27.155L68.4384 27.295C68.3684 27.365 68.31 27.4817 68.2634 27.645V28.59C68.2634 28.6833 68.2634 28.7767 68.2634 28.87C68.2634 28.9633 68.2517 29.0567 68.2284 29.15C68.205 29.1967 68.1934 29.255 68.1934 29.325C68.1934 29.395 68.1817 29.4533 68.1584 29.5C68.135 29.5933 68.1117 29.6867 68.0884 29.78C68.065 29.8967 68.03 30.0133 67.9834 30.13C67.8667 30.4567 67.6217 30.5967 67.2484 30.55ZM69.3834 12.98C69.4767 12.98 69.535 12.945 69.5584 12.875C69.5817 12.7583 69.5817 12.6417 69.5584 12.525C69.5584 12.4083 69.5467 12.3033 69.5234 12.21C69.5 12.0933 69.4884 11.9767 69.4884 11.86C69.4884 11.72 69.4767 11.5917 69.4534 11.475C69.4534 11.335 69.4417 11.195 69.4184 11.055C69.395 10.915 69.395 10.775 69.4184 10.635C69.4417 10.6117 69.4417 10.6 69.4184 10.6C69.4184 10.5767 69.4184 10.565 69.4184 10.565C69.395 10.4017 69.3834 10.25 69.3834 10.11C69.3834 9.97 69.3834 9.83 69.3834 9.69C69.3834 9.22333 69.29 8.76833 69.1034 8.325C68.94 7.95167 68.765 7.59 68.5784 7.24C68.415 6.89 68.24 6.54 68.0534 6.19C67.9834 6.05 67.89 5.92167 67.7734 5.805C67.68 5.665 67.575 5.53667 67.4584 5.42C67.365 5.28 67.2367 5.25667 67.0734 5.35C66.9334 5.37333 66.7817 5.46667 66.6184 5.63C66.4784 5.79333 66.35 5.96833 66.2334 6.155C66.1167 6.34167 66.0117 6.54 65.9184 6.75C65.895 6.82 65.8717 6.89 65.8484 6.96C65.825 7.03 65.8017 7.08833 65.7784 7.135C65.755 7.29833 65.7317 7.47333 65.7084 7.66C65.7084 7.82333 65.7084 7.99833 65.7084 8.185V8.64C65.7084 8.96667 65.8017 9.31667 65.9884 9.69C66.1517 10.04 66.385 10.39 66.6884 10.74C66.7584 10.8333 66.8284 10.9267 66.8984 11.02C66.9684 11.09 67.0384 11.1833 67.1084 11.3C67.3184 11.58 67.5517 11.825 67.8084 12.035C68.0884 12.245 68.38 12.4433 68.6834 12.63L69.2084 12.91C69.255 12.9333 69.29 12.945 69.3134 12.945C69.3367 12.945 69.36 12.9567 69.3834 12.98ZM79.2129 29.15C79.1896 29.15 79.1079 29.1267 78.9679 29.08C78.8979 29.0567 78.8162 28.975 78.7229 28.835C78.6996 28.765 78.6762 28.695 78.6529 28.625C78.6296 28.555 78.6179 28.485 78.6179 28.415C78.5479 28.065 78.5129 27.715 78.5129 27.365V24.95C78.5129 24.74 78.4896 24.53 78.4429 24.32C78.3962 24.11 78.3496 23.9 78.3029 23.69C78.3029 23.6433 78.2796 23.5733 78.2329 23.48C78.2096 23.41 78.1746 23.34 78.1279 23.27C78.0812 23.1767 78.0346 23.095 77.9879 23.025C77.8946 22.8617 77.8246 22.6867 77.7779 22.5C77.7312 22.3133 77.6962 22.1383 77.6729 21.975C77.6496 21.7183 77.6496 21.4733 77.6729 21.24C77.7196 21.1 77.7546 20.9717 77.7779 20.855C77.8012 20.715 77.8362 20.5867 77.8829 20.47C77.9529 20.2833 78.0112 20.0967 78.0579 19.91C78.1046 19.7 78.1629 19.49 78.2329 19.28L78.7579 17.565C78.9212 17.075 79.1312 16.5733 79.3879 16.06C79.6446 15.57 79.8896 15.0217 80.1229 14.415C80.1696 14.275 80.2279 14.1233 80.2979 13.96C80.3912 13.7033 80.4846 13.4583 80.5779 13.225C80.6946 12.9683 80.7996 12.7233 80.8929 12.49L81.4179 11.02C81.4646 10.9267 81.4996 10.8333 81.5229 10.74C81.5462 10.6467 81.5696 10.5533 81.5929 10.46C81.7796 9.99333 81.9662 9.55 82.1529 9.13C82.2929 8.85 82.3862 8.54667 82.4329 8.22C82.4796 7.89333 82.4796 7.56667 82.4329 7.24C82.4096 7.1 82.3862 6.96 82.3629 6.82C82.3629 6.65667 82.3629 6.505 82.3629 6.365C82.3629 6.295 82.3396 6.23667 82.2929 6.19C82.2696 6.12 82.2696 6.05 82.2929 5.98C82.3162 5.93333 82.3396 5.88667 82.3629 5.84C82.4096 5.79333 82.4446 5.74667 82.4679 5.7C82.5379 5.44333 82.6429 5.22167 82.7829 5.035C82.9462 4.825 83.1212 4.63833 83.3079 4.475C83.4012 4.38167 83.5296 4.31167 83.6929 4.265C83.7862 4.21833 83.8679 4.17167 83.9379 4.125C84.0312 4.07833 84.1129 4.02 84.1829 3.95C84.2996 3.85667 84.4279 3.79833 84.5679 3.775C84.7546 3.75167 84.9529 3.68167 85.1629 3.565C85.3496 3.44833 85.5596 3.41333 85.7929 3.46H86.1079C86.2712 3.46 86.4462 3.51833 86.6329 3.635C86.6796 3.65833 86.7262 3.69333 86.7729 3.74C86.8429 3.76333 86.9129 3.79833 86.9829 3.845C87.1696 3.985 87.2629 4.16 87.2629 4.37C87.2629 4.53333 87.2746 4.685 87.2979 4.825C87.3446 4.965 87.3796 5.11667 87.4029 5.28C87.4496 5.42 87.4496 5.57167 87.4029 5.735C87.3796 5.78167 87.3679 5.84 87.3679 5.91C87.3679 5.95667 87.3562 6.00333 87.3329 6.05C87.3329 6.14333 87.3212 6.23667 87.2979 6.33C87.2979 6.42333 87.2862 6.51667 87.2629 6.61C87.1929 6.77333 87.2162 6.93667 87.3329 7.1C87.5196 7.40333 87.6829 7.71833 87.8229 8.045C87.9862 8.37167 88.1496 8.69833 88.3129 9.025L88.9429 10.145C89.1296 10.4483 89.3162 10.81 89.5029 11.23C89.5496 11.3 89.5846 11.37 89.6079 11.44C89.6546 11.51 89.7012 11.58 89.7479 11.65C89.8179 11.7667 89.8762 11.895 89.9229 12.035C89.9929 12.175 90.0629 12.315 90.1329 12.455C90.3196 12.805 90.4712 13.1667 90.5879 13.54C90.7279 13.89 90.8679 14.2633 91.0079 14.66C91.0079 14.6833 91.0079 14.7067 91.0079 14.73C91.0312 14.73 91.0429 14.7417 91.0429 14.765C91.0662 14.9283 91.1829 15.01 91.3929 15.01C91.4629 14.9867 91.5329 14.975 91.6029 14.975C91.6962 14.975 91.7779 14.975 91.8479 14.975C92.1046 14.975 92.3262 15.0217 92.5129 15.115C92.6296 15.1383 92.7462 15.2083 92.8629 15.325C93.0496 15.5117 93.1779 15.6633 93.2479 15.78C93.3179 15.8967 93.3646 16.0717 93.3879 16.305C93.4812 16.7483 93.3879 17.1333 93.1079 17.46L92.8979 17.635C92.8512 17.6817 92.7929 17.7283 92.7229 17.775C92.6529 17.7983 92.5946 17.8333 92.5479 17.88C92.4312 17.9733 92.3612 18.0433 92.3379 18.09C92.3379 18.1367 92.3729 18.2417 92.4429 18.405L92.9679 19.665C93.1779 20.1317 93.3879 20.5983 93.5979 21.065C93.8312 21.5317 94.0646 21.9983 94.2979 22.465C94.3912 22.6283 94.4612 22.7917 94.5079 22.955C94.5779 23.1183 94.6246 23.2933 94.6479 23.48C94.6712 23.62 94.6712 23.76 94.6479 23.9C94.6479 24.04 94.6362 24.18 94.6129 24.32C94.6129 24.3433 94.5896 24.425 94.5429 24.565C94.4729 24.6583 94.4029 24.7517 94.3329 24.845C94.2862 24.9383 94.2279 25.0317 94.1579 25.125C93.9712 25.3817 93.8196 25.6733 93.7029 26C93.6562 26.21 93.5046 26.3733 93.2479 26.49C93.1079 26.56 92.9562 26.56 92.7929 26.49C92.5829 26.42 92.4429 26.28 92.3729 26.07L92.3029 25.895C92.2329 25.6617 92.1279 25.44 91.9879 25.23C91.8946 25.0667 91.8012 24.9033 91.7079 24.74C91.6379 24.5533 91.5562 24.3783 91.4629 24.215C91.4396 24.1683 91.4279 24.1333 91.4279 24.11C91.4279 24.0633 91.4162 24.0283 91.3929 24.005C91.3696 23.865 91.3229 23.7367 91.2529 23.62C91.2062 23.48 91.1479 23.3517 91.0779 23.235C90.9379 22.885 90.7862 22.5467 90.6229 22.22C90.4829 21.87 90.3312 21.52 90.1679 21.17L89.6429 20.05C89.6196 19.98 89.5962 19.91 89.5729 19.84C89.5496 19.7467 89.5146 19.6533 89.4679 19.56L89.0479 18.615C89.0479 18.5683 89.0246 18.4983 88.9779 18.405C88.8612 18.2183 88.7096 18.1133 88.5229 18.09C88.3596 18.09 88.2079 18.0783 88.0679 18.055C87.9279 18.0317 87.7879 18.02 87.6479 18.02C87.2746 18.02 86.9012 18.055 86.5279 18.125C86.1546 18.195 85.8046 18.3233 85.4779 18.51C85.0346 18.7667 84.5796 18.93 84.1129 19C84.0196 19 83.9262 19.0117 83.8329 19.035C83.7396 19.0583 83.6462 19.0933 83.5529 19.14C83.4129 19.2333 83.3312 19.3383 83.3079 19.455C83.2612 19.595 83.2379 19.7 83.2379 19.77L83.1329 20.26C83.1096 20.4233 83.0162 20.5867 82.8529 20.75C82.7362 20.8667 82.5729 20.925 82.3629 20.925C82.0596 20.8783 81.8612 20.7267 81.7679 20.47C81.7446 20.4 81.7212 20.33 81.6979 20.26C81.6746 20.19 81.6512 20.1083 81.6279 20.015C81.5346 20.155 81.5229 20.2717 81.5929 20.365C81.6396 20.4583 81.6162 20.54 81.5229 20.61C81.4762 20.6567 81.4646 20.6917 81.4879 20.715C81.5346 20.8083 81.5229 20.89 81.4529 20.96C81.3829 21.03 81.3596 21.1117 81.3829 21.205C81.4062 21.2517 81.4062 21.31 81.3829 21.38C81.2662 21.5433 81.1846 21.7417 81.1379 21.975C81.1612 22.0683 81.1029 22.1383 80.9629 22.185C80.9162 22.185 80.8929 22.2083 80.8929 22.255C80.8462 22.325 80.7996 22.43 80.7529 22.57C80.7296 22.6867 80.6946 22.815 80.6479 22.955C80.6246 23.0717 80.5896 23.1883 80.5429 23.305L80.3329 24.18V24.32C80.3329 24.53 80.3096 24.74 80.2629 24.95C80.2396 25.1367 80.2279 25.335 80.2279 25.545L80.1229 26.7C80.0996 26.8633 80.0762 27.0267 80.0529 27.19C80.0529 27.3767 80.0529 27.5633 80.0529 27.75C80.0296 27.89 80.0062 28.0183 79.9829 28.135C79.9829 28.275 79.9596 28.415 79.9129 28.555C79.8662 28.765 79.7846 28.9167 79.6679 29.01C79.5746 29.15 79.4229 29.1967 79.2129 29.15ZM83.7629 14.975H83.7979C84.0312 14.9283 84.2529 14.8933 84.4629 14.87C84.6729 14.8467 84.8829 14.8233 85.0929 14.8C85.2329 14.7767 85.3729 14.765 85.5129 14.765C85.6529 14.7417 85.7929 14.73 85.9329 14.73H86.6679C86.7146 14.73 86.7612 14.73 86.8079 14.73C86.8546 14.7067 86.8896 14.695 86.9129 14.695C86.9596 14.695 86.9829 14.6483 86.9829 14.555C86.9129 14.4617 86.8546 14.3683 86.8079 14.275C86.7612 14.1817 86.7146 14.0883 86.6679 13.995C86.5279 13.6683 86.3412 13.3883 86.1079 13.155C86.0846 13.1083 86.0612 13.0733 86.0379 13.05C86.0146 13.0033 85.9912 12.9567 85.9679 12.91C85.9446 12.8633 85.9096 12.8167 85.8629 12.77C85.8396 12.7 85.8046 12.6417 85.7579 12.595C85.6412 12.5017 85.5246 12.525 85.4079 12.665L85.3029 12.945C85.2796 13.1317 85.2446 13.33 85.1979 13.54C85.1512 13.7267 85.1046 13.9133 85.0579 14.1C85.0579 14.1467 85.0346 14.2167 84.9879 14.31C84.9412 14.45 84.8246 14.555 84.6379 14.625C84.4746 14.695 84.2996 14.6717 84.1129 14.555L83.9029 14.415C83.9029 14.415 83.8796 14.415 83.8329 14.415C83.7862 14.5083 83.7629 14.5783 83.7629 14.625C83.7629 14.6717 83.7629 14.7183 83.7629 14.765C83.7862 14.8117 83.7746 14.8583 83.7279 14.905C83.6812 14.9517 83.6929 14.975 83.7629 14.975ZM104.331 30.655C103.958 30.8883 103.654 30.8067 103.421 30.41C103.328 30.27 103.281 30.1417 103.281 30.025L103.176 29.535C103.153 29.185 103.106 28.835 103.036 28.485C102.966 28.135 102.884 27.7733 102.791 27.4C102.791 27.3533 102.779 27.3067 102.756 27.26C102.756 27.2367 102.756 27.2017 102.756 27.155C102.756 27.0617 102.744 26.9917 102.721 26.945C102.651 26.595 102.464 26.3383 102.161 26.175C101.951 26.0583 101.729 25.9533 101.496 25.86C101.286 25.7433 101.064 25.6383 100.831 25.545L99.9561 25.125C99.7695 25.0317 99.5945 24.88 99.4311 24.67C99.1745 24.39 98.9411 24.0983 98.7311 23.795C98.5211 23.4917 98.3461 23.165 98.2061 22.815C98.1595 22.675 98.1011 22.535 98.0311 22.395C97.9845 22.255 97.9378 22.115 97.8911 21.975C97.8445 21.8583 97.8095 21.7417 97.7861 21.625C97.7628 21.5083 97.7278 21.4033 97.6811 21.31L97.4711 20.575C97.4245 20.4817 97.4011 20.3883 97.4011 20.295C97.3778 20.1317 97.3545 19.98 97.3311 19.84C97.3311 19.6767 97.3078 19.5133 97.2611 19.35C97.2378 19.1867 97.2145 19.0233 97.1911 18.86C97.1911 18.6967 97.1911 18.5333 97.1911 18.37C97.1911 18.2767 97.1795 18.2067 97.1561 18.16C97.1328 17.8333 97.1211 17.5183 97.1211 17.215C97.1211 16.9117 97.1095 16.6083 97.0861 16.305C97.0861 16.1183 97.0861 15.9317 97.0861 15.745C97.0861 15.5583 97.0978 15.3833 97.1211 15.22L97.2261 13.96C97.2261 13.89 97.2261 13.8317 97.2261 13.785C97.2495 13.715 97.2611 13.6567 97.2611 13.61C97.2845 13.3067 97.3078 13.015 97.3311 12.735C97.3778 12.455 97.4361 12.175 97.5061 11.895C97.5528 11.825 97.5761 11.755 97.5761 11.685C97.5761 11.615 97.5761 11.545 97.5761 11.475C97.6461 11.2183 97.7045 10.9617 97.7511 10.705C97.8211 10.425 97.8795 10.145 97.9261 9.865L98.1361 8.71C98.1828 8.52333 98.2178 8.33667 98.2411 8.15C98.2878 7.96333 98.3345 7.77667 98.3811 7.59C98.5678 6.79667 98.8945 6.12 99.3611 5.56C99.6411 5.16333 99.9678 4.84833 100.341 4.615C100.621 4.42833 100.901 4.24167 101.181 4.055C101.484 3.86833 101.788 3.705 102.091 3.565C102.418 3.37833 102.756 3.215 103.106 3.075C103.456 2.935 103.818 2.80667 104.191 2.69C104.354 2.64333 104.506 2.59667 104.646 2.55C104.809 2.50333 104.973 2.46833 105.136 2.445C105.416 2.375 105.696 2.35167 105.976 2.375C106.256 2.375 106.524 2.43333 106.781 2.55C107.108 2.66667 107.388 2.81833 107.621 3.005C107.738 3.09833 107.854 3.19166 107.971 3.285C108.111 3.355 108.228 3.44833 108.321 3.565C108.811 3.915 109.126 4.39333 109.266 5C109.289 5.09333 109.313 5.18667 109.336 5.28C109.359 5.35 109.371 5.44333 109.371 5.56C109.394 5.98 109.324 6.37667 109.161 6.75C109.114 6.84333 109.056 6.94833 108.986 7.065C108.939 7.15833 108.869 7.25167 108.776 7.345C108.659 7.485 108.543 7.63667 108.426 7.8C108.333 7.94 108.228 8.08 108.111 8.22C107.901 8.45333 107.796 8.745 107.796 9.095V11.265C107.796 11.3583 107.784 11.4517 107.761 11.545C107.761 11.615 107.761 11.6967 107.761 11.79C107.738 11.9067 107.726 12.035 107.726 12.175C107.726 12.2917 107.726 12.4083 107.726 12.525C107.726 12.6417 107.773 12.6767 107.866 12.63H107.971C108.041 12.6067 108.099 12.595 108.146 12.595C108.216 12.595 108.274 12.5833 108.321 12.56C108.671 12.4433 109.021 12.3617 109.371 12.315C109.721 12.245 110.083 12.1983 110.456 12.175C110.783 12.1283 111.098 12.1283 111.401 12.175C111.704 12.1983 112.008 12.245 112.311 12.315C112.521 12.385 112.719 12.4667 112.906 12.56C113.116 12.63 113.303 12.735 113.466 12.875C113.583 12.9683 113.699 13.0733 113.816 13.19C113.933 13.2833 114.026 13.3883 114.096 13.505C114.259 13.7383 114.388 13.9833 114.481 14.24C114.598 14.4733 114.656 14.7183 114.656 14.975V15.01C114.703 15.2433 114.726 15.4767 114.726 15.71C114.726 15.9433 114.703 16.1767 114.656 16.41C114.633 16.55 114.609 16.69 114.586 16.83C114.563 16.9467 114.539 17.075 114.516 17.215C114.469 17.425 114.411 17.635 114.341 17.845C114.294 18.055 114.248 18.265 114.201 18.475C114.178 18.5683 114.154 18.6617 114.131 18.755C114.131 18.825 114.131 18.9067 114.131 19V21.03C114.131 21.2167 114.143 21.4033 114.166 21.59C114.189 21.7767 114.213 21.9633 114.236 22.15C114.259 22.2667 114.283 22.3833 114.306 22.5C114.353 22.6167 114.388 22.7333 114.411 22.85C114.411 22.8967 114.458 22.9667 114.551 23.06C114.668 23.1767 114.738 23.305 114.761 23.445C114.761 23.515 114.773 23.5617 114.796 23.585C114.889 23.795 114.936 24.04 114.936 24.32C114.936 24.4133 114.924 24.5067 114.901 24.6C114.901 24.6933 114.913 24.7983 114.936 24.915C114.983 25.055 114.948 25.1833 114.831 25.3C114.784 25.3467 114.749 25.405 114.726 25.475C114.703 25.545 114.668 25.615 114.621 25.685C114.551 25.825 114.458 25.9533 114.341 26.07C114.271 26.0933 114.213 26.14 114.166 26.21C114.119 26.28 114.073 26.3383 114.026 26.385C113.839 26.595 113.618 26.665 113.361 26.595C113.338 26.595 113.303 26.5833 113.256 26.56C113.233 26.56 113.209 26.56 113.186 26.56C112.976 26.5367 112.789 26.4667 112.626 26.35C112.486 26.2567 112.346 26.14 112.206 26C112.159 25.93 112.101 25.86 112.031 25.79C111.984 25.6967 111.926 25.615 111.856 25.545C111.786 25.4517 111.728 25.3467 111.681 25.23C111.658 25.1133 111.623 25.0083 111.576 24.915C111.483 24.5883 111.378 24.25 111.261 23.9C111.168 23.55 111.098 23.2 111.051 22.85C111.004 22.5233 110.946 22.1967 110.876 21.87C110.806 21.52 110.759 21.17 110.736 20.82C110.689 20.6333 110.666 20.47 110.666 20.33C110.619 20.2367 110.596 20.19 110.596 20.19C110.503 20.2367 110.444 20.2717 110.421 20.295C110.188 20.575 109.931 20.855 109.651 21.135C109.371 21.3917 109.103 21.66 108.846 21.94C108.799 22.01 108.741 22.08 108.671 22.15C108.624 22.1967 108.578 22.2433 108.531 22.29C108.391 22.43 108.251 22.57 108.111 22.71C107.971 22.8267 107.843 22.955 107.726 23.095C107.633 23.165 107.551 23.235 107.481 23.305C107.411 23.375 107.329 23.4333 107.236 23.48C107.189 23.5267 107.143 23.5733 107.096 23.62C107.049 23.6667 107.003 23.7133 106.956 23.76C106.863 23.8533 106.769 23.9467 106.676 24.04C106.606 24.11 106.513 24.18 106.396 24.25L106.256 24.39C105.883 24.6933 105.509 24.9617 105.136 25.195C104.739 25.405 104.541 25.7433 104.541 26.21C104.541 26.35 104.541 26.49 104.541 26.63C104.541 26.77 104.553 26.91 104.576 27.05C104.576 27.0733 104.576 27.085 104.576 27.085C104.599 27.085 104.611 27.0967 104.611 27.12C104.634 27.5633 104.658 28.0067 104.681 28.45C104.728 28.9167 104.739 29.3833 104.716 29.85C104.693 29.92 104.681 30.0133 104.681 30.13C104.634 30.34 104.518 30.515 104.331 30.655ZM104.121 20.715C104.541 20.925 104.949 20.9133 105.346 20.68C105.416 20.61 105.474 20.5633 105.521 20.54C105.708 20.4 105.883 20.26 106.046 20.12C106.209 19.9567 106.373 19.805 106.536 19.665C106.699 19.525 106.851 19.385 106.991 19.245C107.131 19.0817 107.283 18.93 107.446 18.79C107.633 18.6033 107.819 18.405 108.006 18.195C108.193 17.985 108.368 17.775 108.531 17.565C108.648 17.425 108.741 17.2733 108.811 17.11C108.904 16.9933 108.963 16.8533 108.986 16.69C108.986 16.5267 108.916 16.4683 108.776 16.515C108.659 16.5383 108.543 16.5617 108.426 16.585C108.309 16.6083 108.193 16.6667 108.076 16.76C107.936 16.8533 107.784 16.9467 107.621 17.04C107.481 17.1333 107.329 17.2383 107.166 17.355C107.119 17.4017 107.073 17.4717 107.026 17.565C106.979 17.7283 106.933 17.9267 106.886 18.16C106.886 18.3233 106.874 18.475 106.851 18.615C106.851 18.755 106.839 18.895 106.816 19.035C106.746 19.3617 106.583 19.5717 106.326 19.665C106.163 19.735 106.023 19.7233 105.906 19.63C105.743 19.5367 105.626 19.4083 105.556 19.245C105.509 19.0817 105.463 18.9183 105.416 18.755C105.369 18.5917 105.334 18.4283 105.311 18.265L105.206 17.6C105.206 17.32 105.078 17.0283 104.821 16.725C104.774 16.6783 104.716 16.62 104.646 16.55C104.599 16.48 104.553 16.41 104.506 16.34C104.413 16.2 104.331 16.0483 104.261 15.885C104.214 15.7217 104.168 15.5583 104.121 15.395L104.086 15.15C104.109 14.7067 104.273 14.3217 104.576 13.995C104.949 13.575 105.358 13.3067 105.801 13.19L106.151 13.085C106.291 13.0383 106.338 12.9567 106.291 12.84C106.268 12.7233 106.244 12.6067 106.221 12.49C106.198 12.35 106.174 12.2217 106.151 12.105C106.128 11.8717 106.104 11.65 106.081 11.44C106.081 11.2067 106.058 10.9733 106.011 10.74C106.011 10.74 106.011 10.6817 106.011 10.565C105.988 10.3083 105.953 10.0517 105.906 9.795C105.883 9.515 105.848 9.235 105.801 8.955C105.754 8.72167 105.661 8.535 105.521 8.395C105.334 8.20833 105.124 8.115 104.891 8.115C104.681 8.16167 104.529 8.22 104.436 8.29C104.203 8.45333 103.981 8.61667 103.771 8.78C103.561 8.92 103.328 9.04833 103.071 9.165C102.908 9.25833 102.791 9.36333 102.721 9.48C102.651 9.64333 102.569 9.80667 102.476 9.97C102.406 10.11 102.348 10.2733 102.301 10.46C102.278 10.5767 102.243 10.705 102.196 10.845C102.149 10.9617 102.103 11.0783 102.056 11.195C102.056 11.2417 102.044 11.2883 102.021 11.335C101.998 11.3817 101.974 11.4283 101.951 11.475C101.881 11.6383 101.823 11.79 101.776 11.93C101.729 12.0933 101.683 12.2567 101.636 12.42C101.589 12.5833 101.543 12.7583 101.496 12.945C101.449 13.1083 101.403 13.3067 101.356 13.54C101.309 13.7733 101.263 14.0067 101.216 14.24C101.169 14.4733 101.123 14.7067 101.076 14.94C101.053 15.0333 101.029 15.1267 101.006 15.22C101.006 15.29 101.006 15.3833 101.006 15.5C101.006 15.5933 101.006 15.6983 101.006 15.815C101.006 15.9317 100.983 16.0483 100.936 16.165C100.936 16.235 100.924 16.3167 100.901 16.41C100.901 16.48 100.901 16.55 100.901 16.62C100.901 16.69 100.901 16.76 100.901 16.83C100.924 16.9 100.936 16.9933 100.936 17.11C100.913 17.2733 100.913 17.4717 100.936 17.705C100.959 17.915 100.983 18.125 101.006 18.335L101.076 18.615C101.123 18.755 101.181 18.9067 101.251 19.07C101.321 19.21 101.403 19.3383 101.496 19.455C101.729 19.7117 101.951 19.9217 102.161 20.085C102.371 20.2483 102.511 20.3533 102.581 20.4C102.674 20.4233 102.861 20.435 103.141 20.435C103.351 20.435 103.561 20.47 103.771 20.54C103.864 20.5633 103.981 20.6217 104.121 20.715ZM124.216 30.795C123.889 30.935 123.621 30.83 123.411 30.48C123.294 30.3167 123.212 30.095 123.166 29.815C123.142 29.605 123.107 29.395 123.061 29.185C123.014 28.975 122.967 28.7533 122.921 28.52C122.897 28.4267 122.862 28.3333 122.816 28.24C122.792 28.1467 122.757 28.0533 122.711 27.96C122.641 27.82 122.571 27.68 122.501 27.54C122.431 27.4 122.349 27.2717 122.256 27.155C122.162 26.9683 122.104 26.84 122.081 26.77L121.906 26.385C121.766 26.0583 121.696 25.72 121.696 25.37C121.672 25.2067 121.661 25.0433 121.661 24.88C121.684 24.7167 121.707 24.5533 121.731 24.39C121.801 23.97 121.789 23.585 121.696 23.235L121.381 21.66C121.357 21.52 121.334 21.38 121.311 21.24C121.287 21.0767 121.264 20.9133 121.241 20.75L121.136 20.26C121.112 20.05 121.089 19.84 121.066 19.63C121.042 19.42 121.019 19.2217 120.996 19.035C120.972 18.965 120.961 18.895 120.961 18.825C120.961 18.755 120.961 18.685 120.961 18.615C120.961 18.3583 120.879 18.1367 120.716 17.95C120.622 17.8333 120.529 17.7167 120.436 17.6C120.366 17.46 120.307 17.3317 120.261 17.215C120.167 17.075 120.074 16.9467 119.981 16.83C119.911 16.69 119.841 16.55 119.771 16.41C119.701 16.27 119.584 16.1883 119.421 16.165C119.281 16.1417 119.152 16.0833 119.036 15.99C118.872 15.85 118.721 15.6983 118.581 15.535C118.534 15.4417 118.487 15.3717 118.441 15.325C118.371 15.2317 118.347 15.1383 118.371 15.045C118.417 14.975 118.417 14.905 118.371 14.835C118.301 14.7183 118.277 14.6133 118.301 14.52C118.324 14.4267 118.347 14.3333 118.371 14.24C118.371 14.1467 118.394 14.065 118.441 13.995C118.487 13.925 118.534 13.855 118.581 13.785C118.674 13.645 118.779 13.5283 118.896 13.435C119.036 13.3183 119.176 13.2133 119.316 13.12C119.409 13.0733 119.479 13.0267 119.526 12.98C119.642 12.9333 119.677 12.8633 119.631 12.77V12.665C119.584 12.4083 119.537 12.1633 119.491 11.93C119.444 11.6967 119.386 11.4633 119.316 11.23C119.292 11.1133 119.257 10.9967 119.211 10.88C119.187 10.7633 119.152 10.6467 119.106 10.53C119.082 10.5067 119.071 10.46 119.071 10.39C119.071 10.2733 119.059 10.1567 119.036 10.04C119.012 9.92333 118.989 9.81833 118.966 9.725C118.896 9.165 118.791 8.605 118.651 8.045C118.627 7.88167 118.569 7.71833 118.476 7.555C118.382 7.345 118.324 7.15833 118.301 6.995C118.231 6.73833 118.161 6.49333 118.091 6.26C118.021 6.00333 117.962 5.75833 117.916 5.525C117.846 5.29167 117.787 5.05833 117.741 4.825C117.717 4.59167 117.694 4.35833 117.671 4.125C117.647 3.565 117.846 3.11 118.266 2.76L118.371 2.655C118.557 2.49167 118.744 2.38667 118.931 2.34C119.141 2.27 119.362 2.235 119.596 2.235C119.806 2.25833 119.992 2.24667 120.156 2.2C120.342 2.13 120.517 2.04833 120.681 1.955C120.727 1.93167 120.797 1.92 120.891 1.92H120.996C121.066 1.92 121.124 1.93167 121.171 1.955C121.241 2.00166 121.322 1.97833 121.416 1.885C121.439 1.86167 121.474 1.87333 121.521 1.92C121.567 1.99 121.626 2.025 121.696 2.025C121.742 2.04833 121.789 2.06 121.836 2.06C121.906 2.06 121.976 2.08333 122.046 2.13C122.092 2.15333 122.139 2.18833 122.186 2.235C122.256 2.28167 122.302 2.35167 122.326 2.445L122.431 2.55C122.501 2.57333 122.559 2.63167 122.606 2.725C122.629 2.81833 122.711 2.865 122.851 2.865C122.921 2.865 123.026 2.84167 123.166 2.795C123.422 2.74833 123.667 2.70167 123.901 2.655C124.157 2.60833 124.402 2.57333 124.636 2.55C124.706 2.52667 124.787 2.515 124.881 2.515C125.347 2.49167 125.814 2.445 126.281 2.375C126.747 2.305 127.202 2.22333 127.646 2.13L127.821 2.06C128.287 1.99 128.731 1.85 129.151 1.64C129.314 1.54667 129.489 1.465 129.676 1.395C129.862 1.325 130.037 1.255 130.201 1.185L131.391 0.764999C131.554 0.718332 131.659 0.671665 131.706 0.624999C131.846 0.508333 131.974 0.426666 132.091 0.379998C132.394 0.193332 132.732 0.0766659 133.106 0.0299985C133.316 0.0299985 133.526 0.0649987 133.736 0.134999C134.062 0.274999 134.366 0.496665 134.646 0.799999C134.716 0.916666 134.739 1.045 134.716 1.185C134.646 1.325 134.646 1.47667 134.716 1.64C134.739 1.78 134.739 1.89666 134.716 1.99C134.692 2.08333 134.681 2.17667 134.681 2.27C134.681 2.36333 134.669 2.45667 134.646 2.55C134.646 2.66667 134.611 2.76 134.541 2.83C134.377 3.06333 134.214 3.23833 134.051 3.355C134.027 3.37833 134.004 3.40167 133.981 3.425C133.981 3.44833 133.957 3.48333 133.911 3.53C133.887 3.55333 133.864 3.57667 133.841 3.6C133.841 3.62333 133.817 3.65833 133.771 3.705C133.654 3.79833 133.549 3.90333 133.456 4.02C133.386 4.13667 133.304 4.25333 133.211 4.37C133.117 4.53333 133.001 4.69667 132.861 4.86C132.744 5 132.604 5.12833 132.441 5.245L132.161 5.56C132.021 5.74667 131.939 5.92167 131.916 6.085C131.869 6.295 131.822 6.505 131.776 6.715C131.752 6.90167 131.741 7.1 131.741 7.31L131.636 8.045C131.636 8.13833 131.612 8.23167 131.566 8.325C131.472 8.55833 131.286 8.675 131.006 8.675C130.982 8.69833 130.947 8.71 130.901 8.71C130.877 8.68667 130.854 8.675 130.831 8.675C130.621 8.55833 130.481 8.40667 130.411 8.22C130.317 7.91667 130.247 7.57833 130.201 7.205C130.201 7.08833 130.189 6.97166 130.166 6.855C130.166 6.715 130.154 6.58667 130.131 6.47L130.026 6.225C129.979 6.06167 129.886 6.02667 129.746 6.12C129.722 6.12 129.687 6.13167 129.641 6.155C129.617 6.17833 129.582 6.20167 129.536 6.225C129.442 6.27167 129.349 6.33 129.256 6.4C129.186 6.44667 129.116 6.505 129.046 6.575C128.836 6.69167 128.579 6.80833 128.276 6.925C127.856 7.065 127.471 7.275 127.121 7.555C127.074 7.57833 127.016 7.61333 126.946 7.66C126.899 7.70667 126.841 7.75333 126.771 7.8C126.701 7.84667 126.631 7.89333 126.561 7.94C126.491 7.98667 126.409 8.03333 126.316 8.08L126.071 8.22C126.001 8.26667 125.919 8.36 125.826 8.5C125.802 8.61667 125.767 8.745 125.721 8.885C125.697 9.00167 125.686 9.13 125.686 9.27C125.686 9.48 125.674 9.69 125.651 9.9C125.651 10.11 125.662 10.32 125.686 10.53C125.686 10.6467 125.686 10.775 125.686 10.915C125.686 11.0317 125.662 11.1483 125.616 11.265C125.569 11.4283 125.627 11.4867 125.791 11.44C125.907 11.44 126.001 11.4283 126.071 11.405C126.327 11.3583 126.584 11.3233 126.841 11.3C127.121 11.2533 127.377 11.2067 127.611 11.16L128.381 11.055C128.497 11.0317 128.591 11.0083 128.661 10.985C128.754 10.9617 128.847 10.9267 128.941 10.88C129.081 10.7867 129.221 10.7283 129.361 10.705C129.501 10.6817 129.641 10.6583 129.781 10.635C130.084 10.565 130.387 10.6233 130.691 10.81L131.146 11.125C131.239 11.2183 131.286 11.3117 131.286 11.405C131.332 11.5683 131.391 11.65 131.461 11.65C131.531 11.6267 131.577 11.6267 131.601 11.65C131.671 11.7433 131.729 11.8483 131.776 11.965C131.846 12.0583 131.892 12.1633 131.916 12.28C131.916 12.3733 131.881 12.4317 131.811 12.455C131.717 12.455 131.647 12.49 131.601 12.56C131.554 12.63 131.507 12.7 131.461 12.77C131.437 12.7933 131.426 12.8167 131.426 12.84C131.449 12.8633 131.461 12.8867 131.461 12.91C131.507 12.98 131.507 13.0617 131.461 13.155C131.437 13.2017 131.414 13.26 131.391 13.33C131.367 13.3767 131.344 13.4233 131.321 13.47C131.227 13.68 131.087 13.855 130.901 13.995C130.807 14.0883 130.726 14.1583 130.656 14.205C130.469 14.3217 130.294 14.5317 130.131 14.835C130.107 14.8817 130.084 14.94 130.061 15.01C130.037 15.0567 130.002 15.115 129.956 15.185C129.886 15.2783 129.781 15.3483 129.641 15.395C129.407 15.4417 129.221 15.43 129.081 15.36L128.871 15.255C128.731 15.2083 128.614 15.22 128.521 15.29C128.497 15.3133 128.439 15.3483 128.346 15.395C128.136 15.4883 127.902 15.5 127.646 15.43C127.529 15.3833 127.401 15.325 127.261 15.255C127.144 15.185 127.027 15.1267 126.911 15.08C126.864 15.0567 126.817 15.0217 126.771 14.975C126.677 14.905 126.572 14.8933 126.456 14.94C126.316 14.9633 126.176 14.9983 126.036 15.045C125.896 15.0683 125.756 15.1033 125.616 15.15C125.406 15.1733 125.172 15.2433 124.916 15.36C124.846 15.36 124.776 15.395 124.706 15.465C124.589 15.5583 124.542 15.6633 124.566 15.78V15.85C124.636 16.06 124.682 16.27 124.706 16.48C124.752 16.69 124.787 16.9 124.811 17.11L125.021 18.58C125.021 18.6033 125.021 18.6267 125.021 18.65C125.044 18.65 125.056 18.65 125.056 18.65C125.056 18.9067 125.067 19.1633 125.091 19.42C125.114 19.6767 125.126 19.9333 125.126 20.19C125.126 20.4933 125.126 20.785 125.126 21.065C125.149 21.345 125.161 21.625 125.161 21.905V22.325C125.207 22.4183 125.277 22.465 125.371 22.465L125.826 22.36C125.942 22.3367 126.047 22.3133 126.141 22.29C126.257 22.2667 126.362 22.2433 126.456 22.22L127.086 22.115C127.226 22.115 127.331 22.1033 127.401 22.08C127.704 22.0333 128.007 21.975 128.311 21.905C128.614 21.835 128.917 21.7767 129.221 21.73C129.361 21.7067 129.501 21.6833 129.641 21.66C129.804 21.6367 129.967 21.6133 130.131 21.59C130.387 21.5667 130.632 21.5433 130.866 21.52C131.122 21.4733 131.367 21.4383 131.601 21.415C131.717 21.3917 131.822 21.38 131.916 21.38C132.032 21.3567 132.137 21.345 132.231 21.345C132.371 21.2983 132.476 21.2517 132.546 21.205C132.592 21.1583 132.639 21.1233 132.686 21.1C132.756 21.0767 132.802 21.0533 132.826 21.03C133.036 20.8433 133.269 20.7733 133.526 20.82C133.596 20.82 133.654 20.8083 133.701 20.785C133.747 20.785 133.806 20.785 133.876 20.785C133.946 20.785 134.004 20.7967 134.051 20.82C134.167 20.8667 134.272 20.9133 134.366 20.96C134.459 20.9833 134.552 21.03 134.646 21.1C134.669 21.1233 134.692 21.135 134.716 21.135C134.902 21.2517 135.089 21.2633 135.276 21.17C135.346 21.1233 135.427 21.0883 135.521 21.065C135.614 21.0183 135.707 20.9833 135.801 20.96C136.034 20.89 136.267 20.89 136.501 20.96C136.571 20.9833 136.641 21.0067 136.711 21.03C136.804 21.0533 136.874 21.0883 136.921 21.135C137.061 21.205 137.189 21.3217 137.306 21.485C137.516 21.7883 137.656 22.1033 137.726 22.43C137.772 22.5 137.772 22.57 137.726 22.64C137.702 22.71 137.679 22.78 137.656 22.85C137.632 22.8967 137.609 22.955 137.586 23.025C137.562 23.0717 137.539 23.13 137.516 23.2C137.492 23.2467 137.469 23.2933 137.446 23.34C137.446 23.4333 137.399 23.5033 137.306 23.55C137.212 23.5733 137.142 23.6433 137.096 23.76C137.049 23.8533 136.991 23.8767 136.921 23.83C136.827 23.83 136.769 23.8417 136.746 23.865C136.629 23.9583 136.501 24.0283 136.361 24.075C136.221 24.1217 136.081 24.1683 135.941 24.215C135.684 24.2617 135.427 24.3317 135.171 24.425C134.914 24.495 134.657 24.565 134.401 24.635C134.261 24.6817 134.156 24.705 134.086 24.705C133.946 24.7283 133.806 24.7633 133.666 24.81C133.549 24.8333 133.432 24.8683 133.316 24.915C133.292 24.9383 133.257 24.95 133.211 24.95C133.187 24.95 133.152 24.9617 133.106 24.985C132.942 25.0083 132.767 25.0433 132.581 25.09C132.417 25.1367 132.254 25.195 132.091 25.265C132.021 25.3117 131.916 25.335 131.776 25.335C131.589 25.335 131.391 25.37 131.181 25.44C130.947 25.4867 130.714 25.5333 130.481 25.58C130.247 25.6033 130.002 25.6383 129.746 25.685L129.011 25.79C128.707 25.86 128.439 25.9417 128.206 26.035C128.159 26.0583 128.101 26.0817 128.031 26.105C127.961 26.1283 127.902 26.1517 127.856 26.175C127.366 26.2683 126.911 26.4433 126.491 26.7L126.211 26.805C126.024 26.8283 125.837 26.8867 125.651 26.98C125.487 27.0733 125.312 27.1667 125.126 27.26C124.986 27.3533 124.892 27.4233 124.846 27.47C124.799 27.5167 124.752 27.5867 124.706 27.68C124.589 27.96 124.531 28.205 124.531 28.415C124.554 28.5783 124.566 28.73 124.566 28.87C124.566 29.0333 124.577 29.2083 124.601 29.395C124.647 29.675 124.636 29.9317 124.566 30.165C124.566 30.2583 124.542 30.375 124.496 30.515C124.402 30.655 124.309 30.7483 124.216 30.795ZM124.216 11.755C124.309 11.7083 124.356 11.6383 124.356 11.545C124.332 11.4983 124.321 11.4517 124.321 11.405C124.321 11.335 124.309 11.2767 124.286 11.23C124.169 10.9267 124.111 10.6583 124.111 10.425C124.111 10.3783 124.099 10.3433 124.076 10.32C124.076 10.2967 124.076 10.2733 124.076 10.25C124.029 10.2033 124.006 10.18 124.006 10.18V10.25C123.982 10.3667 123.959 10.495 123.936 10.635C123.936 10.775 123.936 10.915 123.936 11.055V11.615C123.982 11.685 124.029 11.72 124.076 11.72C124.099 11.7433 124.146 11.755 124.216 11.755Z" fill="#353535"/>
</svg>
