<svg width="57" height="20" viewBox="0 0 57 20" fill="none" xmlns="http://www.w3.org/2000/svg">
<path d="M11.3413 19.971C11.1793 19.971 11.0353 19.908 10.9093 19.782C10.8733 19.728 10.8373 19.674 10.8013 19.62C10.7653 19.566 10.7293 19.512 10.6933 19.458C10.5313 19.08 10.4503 18.684 10.4503 18.27L10.3693 17.622C10.3153 17.37 10.2703 17.118 10.2343 16.866C10.1983 16.614 10.1353 16.371 10.0453 16.137L9.88332 15.678C9.88332 15.642 9.87432 15.606 9.85632 15.57C9.85632 15.534 9.84732 15.498 9.82932 15.462L9.42432 14.031C9.40632 13.995 9.38832 13.95 9.37032 13.896C9.37032 13.842 9.35232 13.797 9.31632 13.761C9.26232 13.653 9.21732 13.545 9.18132 13.437C9.16332 13.311 9.13632 13.185 9.10032 13.059C9.08232 12.969 9.06432 12.888 9.04632 12.816C9.02832 12.726 9.00132 12.636 8.96532 12.546C8.92932 12.438 8.89332 12.375 8.85732 12.357C8.82132 12.321 8.74032 12.321 8.61432 12.357C8.52432 12.375 8.42532 12.393 8.31732 12.411C8.22732 12.411 8.13732 12.429 8.04732 12.465C7.97532 12.483 7.88532 12.501 7.77732 12.519C7.68732 12.519 7.59732 12.528 7.50732 12.546L7.12932 12.627C7.03932 12.645 6.94032 12.672 6.83232 12.708C6.74232 12.726 6.65232 12.735 6.56232 12.735L6.07632 12.816C5.93232 12.852 5.77932 12.888 5.61732 12.924C5.45532 12.96 5.30232 12.996 5.15832 13.032C4.72632 13.14 4.29432 13.221 3.86232 13.275C3.71832 13.311 3.63732 13.374 3.61932 13.464C3.60132 13.464 3.59232 13.473 3.59232 13.491C3.48432 13.779 3.35832 14.067 3.21432 14.355C3.08832 14.625 2.95332 14.904 2.80932 15.192C2.77332 15.264 2.73732 15.336 2.70132 15.408C2.68332 15.462 2.65632 15.525 2.62032 15.597C2.60232 15.633 2.58432 15.678 2.56632 15.732C2.54832 15.768 2.53032 15.804 2.51232 15.84C2.40432 15.966 2.35032 16.119 2.35032 16.299C2.33232 16.407 2.29632 16.515 2.24232 16.623C2.18832 16.713 2.13432 16.803 2.08032 16.893C2.06232 16.947 2.02632 16.974 1.97232 16.974C1.90032 16.992 1.82832 17.019 1.75632 17.055C1.68432 17.091 1.60332 17.127 1.51332 17.163C1.45932 17.181 1.40532 17.181 1.35132 17.163C1.31532 17.145 1.27032 17.127 1.21632 17.109C1.18032 17.073 1.14432 17.055 1.10832 17.055C0.910316 17.037 0.766316 16.92 0.676316 16.704C0.532316 16.416 0.433316 16.128 0.379316 15.84C0.361316 15.768 0.361316 15.705 0.379316 15.651C0.415316 15.597 0.442316 15.543 0.460316 15.489C0.568316 15.417 0.631316 15.336 0.649316 15.246V15.219C0.649316 14.985 0.694316 14.769 0.784316 14.571C0.892317 14.355 0.982317 14.148 1.05432 13.95C1.09032 13.842 1.13532 13.734 1.18932 13.626C1.24332 13.518 1.29732 13.41 1.35132 13.302C1.42332 13.176 1.47732 13.059 1.51332 12.951C1.56732 12.825 1.61232 12.699 1.64832 12.573C1.70232 12.429 1.70232 12.294 1.64832 12.168C1.61232 12.06 1.59432 11.961 1.59432 11.871C1.59432 11.763 1.60332 11.655 1.62132 11.547C1.62132 11.349 1.69332 11.178 1.83732 11.034C1.90932 10.944 1.98132 10.872 2.05332 10.818C2.14332 10.746 2.22432 10.674 2.29632 10.602C2.45832 10.44 2.58432 10.224 2.67432 9.954C2.74632 9.72 2.80032 9.486 2.83632 9.252C2.89032 9 2.94432 8.757 2.99832 8.523C3.03432 8.289 3.07032 8.064 3.10632 7.848C3.16032 7.614 3.21432 7.389 3.26832 7.173C3.28632 7.083 3.30432 7.002 3.32232 6.93C3.35832 6.84 3.38532 6.759 3.40332 6.687C3.45732 6.543 3.51132 6.408 3.56532 6.282C3.61932 6.138 3.65532 5.994 3.67332 5.85C3.70932 5.778 3.70932 5.715 3.67332 5.661C3.65532 5.571 3.65532 5.49 3.67332 5.418C3.70932 5.346 3.73632 5.274 3.75432 5.202C3.80832 5.076 3.84432 4.95 3.86232 4.824C3.89832 4.698 3.94332 4.572 3.99732 4.446C4.08732 4.212 4.15932 4.023 4.21332 3.879C4.28532 3.717 4.34832 3.537 4.40232 3.339C4.43832 3.231 4.47432 3.132 4.51032 3.042C4.56432 2.934 4.60032 2.826 4.61832 2.718C4.67232 2.556 4.71732 2.394 4.75332 2.232C4.78932 2.052 4.80732 1.881 4.80732 1.719C4.84332 1.575 4.87932 1.476 4.91532 1.422C5.00532 1.242 5.11332 1.089 5.23932 0.962999C5.38332 0.836999 5.51832 0.710999 5.64432 0.584999C5.73432 0.531 5.82432 0.495 5.91432 0.476999C6.00432 0.440999 6.09432 0.45 6.18432 0.504C6.25632 0.539999 6.30132 0.557999 6.31932 0.557999C6.48132 0.539999 6.61632 0.576 6.72432 0.665999C6.83232 0.755999 6.92232 0.863999 6.99432 0.989999C7.03032 1.026 7.05732 1.071 7.07532 1.125C7.09332 1.179 7.11132 1.224 7.12932 1.26C7.21932 1.404 7.26432 1.548 7.26432 1.692C7.26432 1.764 7.27332 1.845 7.29132 1.935C7.30932 2.007 7.32732 2.088 7.34532 2.178C7.39932 2.286 7.48032 2.34 7.58832 2.34C7.60632 2.322 7.62432 2.322 7.64232 2.34C7.66032 2.358 7.66932 2.376 7.66932 2.394C7.75932 2.502 7.78632 2.619 7.75032 2.745C7.71432 2.889 7.70532 3.033 7.72332 3.177C7.75932 3.303 7.79532 3.438 7.83132 3.582C7.90332 3.762 7.97532 3.942 8.04732 4.122C8.11932 4.302 8.19132 4.482 8.26332 4.662C8.35332 4.86 8.44332 5.058 8.53332 5.256C8.62332 5.454 8.70432 5.652 8.77632 5.85C8.86632 6.102 8.95632 6.354 9.04632 6.606C9.15432 6.858 9.27132 7.11 9.39732 7.362L9.47832 7.659C9.49632 7.731 9.51432 7.803 9.53232 7.875C9.56832 7.947 9.59532 8.019 9.61332 8.091C9.64932 8.145 9.67632 8.199 9.69432 8.253C9.73032 8.307 9.76632 8.352 9.80232 8.388C9.89232 8.514 9.94632 8.649 9.96432 8.793C10.0183 8.973 10.0993 9.135 10.2073 9.279C10.2433 9.333 10.2973 9.36 10.3693 9.36C10.6393 9.324 10.9093 9.297 11.1793 9.279C11.4493 9.243 11.7193 9.189 11.9893 9.117C12.1873 9.063 12.3763 9.036 12.5563 9.036C12.8983 9.036 13.2133 9.153 13.5013 9.387C13.8433 9.657 14.0233 9.999 14.0413 10.413C14.0413 10.503 14.0503 10.575 14.0683 10.629C14.0683 10.755 14.0323 10.854 13.9603 10.926C13.9423 10.98 13.9063 11.034 13.8523 11.088C13.8163 11.142 13.7803 11.196 13.7443 11.25C13.7083 11.322 13.6723 11.376 13.6363 11.412L13.4743 11.547C13.4563 11.583 13.4293 11.628 13.3933 11.682C13.3573 11.718 13.3123 11.745 13.2583 11.763C13.1863 11.781 13.1143 11.808 13.0423 11.844C12.9703 11.862 12.8893 11.871 12.7993 11.871C12.4753 11.907 12.1873 11.898 11.9353 11.844H11.5033C11.4673 11.844 11.4133 11.862 11.3413 11.898C11.2693 11.934 11.2333 11.979 11.2333 12.033V12.141C11.2873 12.303 11.3233 12.474 11.3413 12.654C11.3773 12.816 11.4313 12.969 11.5033 13.113C11.5033 13.185 11.5213 13.257 11.5573 13.329C11.6473 13.491 11.7193 13.662 11.7733 13.842C11.8273 14.004 11.8723 14.175 11.9083 14.355C11.9083 14.391 11.9263 14.463 11.9623 14.571C12.0163 14.697 12.0613 14.832 12.0973 14.976C12.1333 15.102 12.1603 15.237 12.1783 15.381C12.1783 15.489 12.2053 15.588 12.2593 15.678C12.3313 15.84 12.3853 16.002 12.4213 16.164C12.4573 16.326 12.4843 16.497 12.5023 16.677C12.5203 16.695 12.5293 16.731 12.5293 16.785C12.5293 16.821 12.5383 16.857 12.5563 16.893C12.6463 17.091 12.7093 17.307 12.7453 17.541C12.7813 17.757 12.8263 17.973 12.8803 18.189C12.9163 18.297 12.9343 18.405 12.9343 18.513C12.9523 18.639 12.9613 18.765 12.9613 18.891C12.9613 18.981 12.9343 19.08 12.8803 19.188C12.8263 19.242 12.7993 19.269 12.7993 19.269C12.6913 19.287 12.6283 19.35 12.6103 19.458L12.5293 19.62C12.4933 19.692 12.4393 19.737 12.3673 19.755C12.2953 19.755 12.2323 19.782 12.1783 19.836C12.1063 19.908 12.0073 19.944 11.8813 19.944C11.8093 19.944 11.7193 19.944 11.6113 19.944C11.5213 19.944 11.4313 19.953 11.3413 19.971ZM4.83432 10.17C4.94232 10.152 5.05032 10.134 5.15832 10.116C5.28432 10.098 5.41932 10.08 5.56332 10.062C5.65332 10.044 5.77032 10.026 5.91432 10.008C6.05832 9.99 6.19332 9.972 6.31932 9.954C6.44532 9.918 6.57132 9.9 6.69732 9.9C6.82332 9.882 6.94932 9.864 7.07532 9.846C7.18332 9.81 7.29132 9.792 7.39932 9.792C7.50732 9.774 7.61532 9.756 7.72332 9.738C7.88532 9.702 7.94832 9.612 7.91232 9.468C7.89432 9.324 7.85832 9.18 7.80432 9.036C7.76832 8.874 7.68732 8.739 7.56132 8.631C7.52532 8.595 7.50732 8.541 7.50732 8.469V8.388C7.47132 8.244 7.42632 8.109 7.37232 7.983C7.33632 7.839 7.29132 7.704 7.23732 7.578C7.20132 7.434 7.15632 7.308 7.10232 7.2C7.06632 7.074 7.02132 6.948 6.96732 6.822L6.64332 5.85C6.58932 5.724 6.53532 5.598 6.48132 5.472C6.44532 5.346 6.40932 5.22 6.37332 5.094L6.29232 4.986H6.21132L6.15732 5.067C6.06732 5.337 5.95932 5.607 5.83332 5.877C5.72532 6.147 5.62632 6.435 5.53632 6.741C5.53632 6.777 5.52732 6.822 5.50932 6.876C5.49132 6.93 5.47332 6.984 5.45532 7.038C5.38332 7.218 5.31132 7.416 5.23932 7.632C5.18532 7.848 5.14032 8.064 5.10432 8.28C5.08632 8.406 5.06832 8.532 5.05032 8.658C5.03232 8.766 5.00532 8.883 4.96932 9.009L4.72632 10.062C4.70832 10.08 4.71732 10.107 4.75332 10.143C4.78932 10.161 4.81632 10.17 4.83432 10.17ZM17.3362 15.435C17.2462 15.345 17.1922 15.255 17.1742 15.165C17.1562 15.039 17.1382 14.913 17.1202 14.787C17.1202 14.661 17.1202 14.535 17.1202 14.409C17.1022 14.265 17.0932 14.121 17.0932 13.977C17.1112 13.815 17.1112 13.662 17.0932 13.518C17.0932 13.41 17.0932 13.302 17.0932 13.194C17.0932 13.086 17.1022 12.978 17.1202 12.87C17.1382 12.672 17.1292 12.483 17.0932 12.303C17.0752 12.123 17.0572 11.943 17.0392 11.763C17.0212 11.709 17.0032 11.655 16.9852 11.601C16.9852 11.547 16.9672 11.493 16.9312 11.439C16.8772 11.295 16.8232 11.169 16.7692 11.061C16.7332 10.935 16.6702 10.809 16.5802 10.683C16.5442 10.629 16.5082 10.566 16.4722 10.494C16.4002 10.296 16.3372 10.098 16.2832 9.9C16.2292 9.702 16.1752 9.504 16.1212 9.306C16.0672 9 16.0762 8.712 16.1482 8.442C16.2022 8.208 16.3102 8.01 16.4722 7.848C16.4902 7.812 16.5172 7.776 16.5532 7.74C16.8772 7.398 17.2732 7.227 17.7412 7.227C17.8852 7.227 18.0292 7.227 18.1732 7.227C18.3172 7.227 18.4612 7.236 18.6052 7.254C18.6592 7.272 18.7132 7.281 18.7672 7.281C18.8212 7.281 18.8752 7.281 18.9292 7.281C19.0372 7.281 19.1452 7.29 19.2532 7.308C19.3792 7.308 19.4962 7.308 19.6042 7.308H19.7392C19.9192 7.326 20.0902 7.344 20.2522 7.362C20.4322 7.362 20.6122 7.371 20.7922 7.389C20.8642 7.407 20.9272 7.425 20.9812 7.443C21.0532 7.443 21.1252 7.443 21.1972 7.443H21.3862C21.6382 7.497 21.8812 7.524 22.1152 7.524C22.3672 7.506 22.6192 7.497 22.8712 7.497C22.9792 7.497 23.0602 7.488 23.1142 7.47C23.2402 7.434 23.3662 7.425 23.4922 7.443C23.6182 7.443 23.7442 7.443 23.8702 7.443C23.9062 7.443 23.9422 7.452 23.9782 7.47C24.0142 7.47 24.0502 7.47 24.0862 7.47C24.1762 7.506 24.2482 7.56 24.3022 7.632C24.3382 7.704 24.3652 7.749 24.3832 7.767C24.4192 7.821 24.4642 7.848 24.5182 7.848C24.6082 7.812 24.6892 7.821 24.7612 7.875C24.8512 7.911 24.9322 7.965 25.0042 8.037C25.1662 8.163 25.2562 8.334 25.2742 8.55C25.3102 8.73 25.3102 8.919 25.2742 9.117C25.2562 9.297 25.2022 9.477 25.1122 9.657C25.0942 9.675 25.0762 9.702 25.0582 9.738C25.0582 9.774 25.0402 9.81 25.0042 9.846C24.9322 9.936 24.8152 9.999 24.6532 10.035C24.6172 10.035 24.5812 10.035 24.5452 10.035C24.5092 10.017 24.4732 9.999 24.4372 9.981L24.3832 9.927C24.3472 9.891 24.2752 9.891 24.1672 9.927L24.0592 10.008C23.9332 10.08 23.7802 10.134 23.6002 10.17C23.4922 10.17 23.4112 10.179 23.3572 10.197C23.2492 10.215 23.1412 10.224 23.0332 10.224C22.9432 10.224 22.8442 10.215 22.7362 10.197H22.5742C22.5022 10.215 22.4122 10.242 22.3042 10.278L21.8452 10.44C21.7732 10.458 21.7012 10.485 21.6292 10.521C21.5572 10.539 21.4852 10.566 21.4132 10.602C21.2332 10.692 21.0352 10.755 20.8192 10.791C20.5672 10.791 20.3512 10.854 20.1712 10.98C20.1532 10.998 20.1262 11.007 20.0902 11.007C20.0542 11.007 20.0182 11.016 19.9822 11.034C19.8742 11.07 19.8112 11.097 19.7932 11.115C19.6492 11.241 19.4692 11.304 19.2532 11.304H19.2262C19.0282 11.358 18.8662 11.448 18.7402 11.574C18.6142 11.7 18.5512 11.826 18.5512 11.952C18.5512 12.114 18.5332 12.276 18.4972 12.438C18.4792 12.6 18.4612 12.762 18.4432 12.924C18.4252 13.032 18.4162 13.14 18.4162 13.248C18.4162 13.338 18.4072 13.437 18.3892 13.545C18.3892 13.617 18.3892 13.689 18.3892 13.761C18.3892 13.815 18.3802 13.878 18.3622 13.95V14.139C18.3622 14.265 18.3442 14.4 18.3082 14.544C18.2902 14.67 18.2722 14.805 18.2542 14.949C18.2362 15.075 18.1732 15.21 18.0652 15.354C17.9932 15.462 17.8852 15.534 17.7412 15.57C17.5972 15.588 17.4622 15.543 17.3362 15.435ZM38.9045 18.648C38.7425 18.666 38.5895 18.666 38.4455 18.648C38.3015 18.63 38.1575 18.558 38.0135 18.432C37.9775 18.396 37.9235 18.36 37.8515 18.324C37.7615 18.27 37.7075 18.207 37.6895 18.135C37.6715 18.063 37.6355 18.009 37.5815 17.973C37.5275 17.919 37.4915 17.856 37.4735 17.784C37.4555 17.73 37.4465 17.676 37.4465 17.622C37.4645 17.55 37.4735 17.487 37.4735 17.433C37.4735 17.379 37.4645 17.325 37.4465 17.271C37.4465 17.217 37.4465 17.163 37.4465 17.109C37.3925 16.839 37.3385 16.569 37.2845 16.299C37.2305 16.011 37.1855 15.732 37.1495 15.462C37.1315 15.336 37.1135 15.21 37.0955 15.084C37.0775 14.958 37.0595 14.832 37.0415 14.706C37.0235 14.472 36.9965 14.238 36.9605 14.004C36.9425 13.77 36.9155 13.536 36.8795 13.302C36.8435 13.158 36.8255 13.032 36.8255 12.924C36.8255 12.78 36.8165 12.645 36.7985 12.519C36.7805 12.375 36.7625 12.24 36.7445 12.114C36.7265 12.006 36.6635 11.952 36.5555 11.952L36.3665 11.925C36.2765 11.907 36.1775 11.898 36.0695 11.898C35.9615 11.898 35.8535 11.889 35.7455 11.871H35.4755C35.4395 11.889 35.3855 11.898 35.3135 11.898C35.2415 11.898 35.1695 11.898 35.0975 11.898C35.0435 11.88 34.9715 11.88 34.8815 11.898C34.8095 11.898 34.7375 11.907 34.6655 11.925C34.6115 11.925 34.5395 11.916 34.4495 11.898C34.4315 11.88 34.3955 11.88 34.3415 11.898C34.3055 11.898 34.2695 11.898 34.2335 11.898C34.1435 11.898 34.0445 11.907 33.9365 11.925C33.8465 11.925 33.7565 11.925 33.6665 11.925C33.6125 11.925 33.5585 11.925 33.5045 11.925C33.4505 11.925 33.3965 11.934 33.3425 11.952C33.2165 11.97 33.0905 11.988 32.9645 12.006C32.8385 12.006 32.7125 12.006 32.5865 12.006C32.4065 11.988 32.2265 11.988 32.0465 12.006C31.8665 12.024 31.6865 12.042 31.5065 12.06H31.4255C31.3355 12.096 31.2905 12.15 31.2905 12.222C31.2905 12.24 31.2815 12.258 31.2635 12.276C31.2635 12.276 31.2635 12.285 31.2635 12.303C31.2635 12.393 31.2725 12.465 31.2905 12.519C31.3085 12.645 31.3265 12.78 31.3445 12.924C31.3625 13.05 31.3805 13.185 31.3985 13.329L31.4795 13.977C31.4975 14.157 31.5245 14.337 31.5605 14.517C31.5965 14.679 31.6235 14.841 31.6415 15.003C31.6595 15.021 31.6685 15.048 31.6685 15.084C31.6685 15.102 31.6775 15.129 31.6955 15.165C31.7315 15.255 31.7495 15.354 31.7495 15.462C31.7495 15.57 31.7495 15.678 31.7495 15.786C31.7855 15.804 31.7765 15.84 31.7225 15.894C31.7045 15.93 31.6865 15.966 31.6685 16.002C31.6505 16.038 31.6415 16.074 31.6415 16.11C31.5875 16.29 31.4705 16.461 31.2905 16.623C31.1105 16.767 30.9395 16.848 30.7775 16.866C30.7595 16.866 30.7415 16.875 30.7235 16.893C30.7055 16.893 30.6785 16.893 30.6425 16.893C30.4085 16.947 30.1565 16.929 29.8865 16.839L29.8055 16.785C29.7875 16.713 29.7515 16.659 29.6975 16.623C29.6435 16.587 29.5985 16.551 29.5625 16.515C29.5265 16.461 29.4815 16.416 29.4275 16.38C29.3915 16.326 29.3645 16.263 29.3465 16.191C29.3465 16.173 29.3375 16.164 29.3195 16.164C29.2475 16.074 29.2025 15.975 29.1845 15.867C29.1665 15.759 29.1485 15.651 29.1305 15.543L29.0495 15.111C29.0315 14.949 29.0045 14.787 28.9685 14.625C28.9505 14.445 28.9325 14.265 28.9145 14.085L28.7525 13.032C28.7345 12.906 28.7165 12.78 28.6985 12.654C28.6805 12.51 28.6625 12.375 28.6445 12.249L28.5635 11.385C28.5455 11.205 28.5275 11.025 28.5095 10.845C28.4915 10.665 28.4645 10.485 28.4285 10.305V10.062C28.4285 9.918 28.4195 9.774 28.4015 9.63C28.4015 9.486 28.3925 9.351 28.3745 9.225C28.3565 9.171 28.3475 9.117 28.3475 9.063C28.3475 9.009 28.3475 8.955 28.3475 8.901C28.3475 8.811 28.3385 8.73 28.3205 8.658C28.3205 8.568 28.3115 8.478 28.2935 8.388L28.2125 7.821C28.1945 7.623 28.1585 7.416 28.1045 7.2C28.0685 6.984 28.0145 6.777 27.9425 6.579C27.9065 6.471 27.8615 6.363 27.8075 6.255C27.7535 6.129 27.7085 6.003 27.6725 5.877C27.6365 5.733 27.6005 5.634 27.5645 5.58C27.5105 5.4 27.5105 5.229 27.5645 5.067L27.7265 4.662C27.7445 4.59 27.7985 4.527 27.8885 4.473C27.9245 4.419 27.9695 4.374 28.0235 4.338C28.0775 4.284 28.1315 4.239 28.1855 4.203C28.2215 4.185 28.2665 4.176 28.3205 4.176C28.3745 4.194 28.4465 4.185 28.5365 4.149L28.6175 4.095C28.7795 4.005 28.9415 4.005 29.1035 4.095C29.1935 4.131 29.2835 4.167 29.3735 4.203C29.4815 4.239 29.5715 4.302 29.6435 4.392C29.7515 4.41 29.8235 4.491 29.8595 4.635L30.1025 5.175C30.2465 5.481 30.3725 5.796 30.4805 6.12C30.5885 6.444 30.6605 6.786 30.6965 7.146C30.7145 7.272 30.7325 7.407 30.7505 7.551C30.7865 7.677 30.8135 7.812 30.8315 7.956V8.172C30.8315 8.262 30.8405 8.325 30.8585 8.361C30.8765 8.487 30.8855 8.622 30.8855 8.766C30.9035 8.91 30.9125 9.054 30.9125 9.198V9.252C30.9305 9.342 30.9845 9.405 31.0745 9.441C31.1285 9.459 31.1825 9.477 31.2365 9.495C31.2905 9.495 31.3445 9.495 31.3985 9.495C31.4885 9.477 31.5605 9.477 31.6145 9.495C31.6865 9.495 31.7585 9.495 31.8305 9.495C31.9565 9.495 32.0735 9.495 32.1815 9.495C32.2895 9.477 32.4065 9.468 32.5325 9.468H32.8565C32.9105 9.468 32.9645 9.477 33.0185 9.495C33.0905 9.495 33.1535 9.486 33.2075 9.468C33.2435 9.468 33.2705 9.468 33.2885 9.468C33.3245 9.45 33.3515 9.441 33.3695 9.441C33.5495 9.459 33.7295 9.468 33.9095 9.468C34.0895 9.45 34.2695 9.441 34.4495 9.441C34.6295 9.459 34.8095 9.468 34.9895 9.468C35.1695 9.45 35.3495 9.441 35.5295 9.441C35.6735 9.441 35.8085 9.45 35.9345 9.468C36.0785 9.468 36.2135 9.468 36.3395 9.468C36.4655 9.468 36.5285 9.414 36.5285 9.306C36.5285 9.216 36.5285 9.117 36.5285 9.009C36.5285 8.901 36.5195 8.802 36.5015 8.712C36.4835 8.514 36.4655 8.334 36.4475 8.172C36.4475 7.992 36.4385 7.812 36.4205 7.632C36.4025 7.38 36.3935 7.137 36.3935 6.903C36.4115 6.651 36.4025 6.408 36.3665 6.174C36.3485 5.976 36.3305 5.778 36.3125 5.58C36.3125 5.382 36.2945 5.193 36.2585 5.013V4.635C36.2585 4.563 36.2675 4.509 36.2855 4.473C36.2855 4.437 36.2855 4.41 36.2855 4.392C36.3035 4.356 36.3125 4.329 36.3125 4.311C36.3125 4.221 36.2945 4.167 36.2585 4.149L36.1775 4.095C36.0695 4.023 36.0515 3.942 36.1235 3.852C36.1775 3.78 36.1865 3.699 36.1505 3.609C36.1505 3.555 36.1595 3.519 36.1775 3.501C36.2135 3.447 36.2495 3.393 36.2855 3.339C36.3215 3.285 36.3485 3.222 36.3665 3.15C36.4205 2.952 36.5015 2.862 36.6095 2.88C36.7355 2.88 36.8165 2.898 36.8525 2.934C36.8705 2.952 36.8885 2.961 36.9065 2.961C36.9245 2.943 36.9335 2.925 36.9335 2.907C36.9335 2.799 36.9875 2.736 37.0955 2.718C37.2035 2.7 37.2845 2.682 37.3385 2.664L37.5005 2.556H37.5815C37.6715 2.592 37.7435 2.637 37.7975 2.691C37.8695 2.727 37.9415 2.763 38.0135 2.799C38.0495 2.817 38.0945 2.853 38.1485 2.907C38.2745 3.069 38.3645 3.276 38.4185 3.528C38.4545 3.708 38.4905 3.879 38.5265 4.041C38.5625 4.203 38.5895 4.374 38.6075 4.554C38.6075 4.59 38.6075 4.626 38.6075 4.662C38.6255 4.698 38.6345 4.734 38.6345 4.77L38.6615 4.959C38.6615 5.175 38.6705 5.391 38.6885 5.607C38.7245 5.805 38.7515 6.012 38.7695 6.228C38.7875 6.246 38.7965 6.282 38.7965 6.336C38.7785 6.462 38.7695 6.588 38.7695 6.714C38.7875 6.822 38.8055 6.948 38.8235 7.092C38.8415 7.218 38.8505 7.362 38.8505 7.524C38.8685 7.668 38.8775 7.812 38.8775 7.956C38.8775 8.046 38.8775 8.145 38.8775 8.253C38.8955 8.361 38.9135 8.46 38.9315 8.55C38.9495 8.64 38.9585 8.73 38.9585 8.82C38.9585 8.91 38.9585 9 38.9585 9.09C38.9585 9.18 38.9585 9.27 38.9585 9.36C38.9765 9.432 38.9945 9.513 39.0125 9.603V9.711C39.0305 9.927 39.0485 10.143 39.0665 10.359C39.1025 10.557 39.1295 10.764 39.1475 10.98C39.1655 10.998 39.1745 11.034 39.1745 11.088C39.1745 11.286 39.1925 11.493 39.2285 11.709C39.2645 11.907 39.2915 12.105 39.3095 12.303L39.3905 13.248C39.3905 13.266 39.3905 13.302 39.3905 13.356C39.4085 13.392 39.4175 13.428 39.4175 13.464C39.4355 13.5 39.4445 13.572 39.4445 13.68C39.4445 13.842 39.4535 14.004 39.4715 14.166C39.5075 14.328 39.5345 14.49 39.5525 14.652C39.5885 14.832 39.6155 15.012 39.6335 15.192C39.6515 15.372 39.6785 15.561 39.7145 15.759C39.7505 15.975 39.7955 16.191 39.8495 16.407C39.9035 16.623 39.9485 16.839 39.9845 17.055C40.0025 17.127 40.0115 17.208 40.0115 17.298C40.0295 17.37 40.0385 17.451 40.0385 17.541C40.0385 17.631 40.0115 17.721 39.9575 17.811C39.9395 17.829 39.9215 17.865 39.9035 17.919C39.9035 17.955 39.8855 17.991 39.8495 18.027C39.8315 18.045 39.8225 18.063 39.8225 18.081C39.8225 18.099 39.8135 18.108 39.7955 18.108C39.7235 18.126 39.6605 18.171 39.6065 18.243C39.5525 18.315 39.4895 18.369 39.4175 18.405C39.3455 18.477 39.2465 18.531 39.1205 18.567L38.9045 18.648ZM53.4233 19.971C53.2613 19.971 53.1173 19.908 52.9913 19.782C52.9553 19.728 52.9193 19.674 52.8833 19.62C52.8473 19.566 52.8113 19.512 52.7753 19.458C52.6133 19.08 52.5323 18.684 52.5323 18.27L52.4513 17.622C52.3973 17.37 52.3523 17.118 52.3163 16.866C52.2803 16.614 52.2173 16.371 52.1273 16.137L51.9653 15.678C51.9653 15.642 51.9563 15.606 51.9383 15.57C51.9383 15.534 51.9293 15.498 51.9113 15.462L51.5063 14.031C51.4883 13.995 51.4703 13.95 51.4523 13.896C51.4523 13.842 51.4343 13.797 51.3983 13.761C51.3443 13.653 51.2993 13.545 51.2633 13.437C51.2453 13.311 51.2183 13.185 51.1823 13.059C51.1643 12.969 51.1463 12.888 51.1283 12.816C51.1103 12.726 51.0833 12.636 51.0473 12.546C51.0113 12.438 50.9753 12.375 50.9393 12.357C50.9033 12.321 50.8223 12.321 50.6963 12.357C50.6063 12.375 50.5073 12.393 50.3993 12.411C50.3093 12.411 50.2193 12.429 50.1293 12.465C50.0573 12.483 49.9673 12.501 49.8593 12.519C49.7693 12.519 49.6793 12.528 49.5893 12.546L49.2113 12.627C49.1213 12.645 49.0223 12.672 48.9143 12.708C48.8243 12.726 48.7343 12.735 48.6443 12.735L48.1583 12.816C48.0143 12.852 47.8613 12.888 47.6993 12.924C47.5373 12.96 47.3843 12.996 47.2403 13.032C46.8083 13.14 46.3763 13.221 45.9443 13.275C45.8003 13.311 45.7193 13.374 45.7013 13.464C45.6833 13.464 45.6743 13.473 45.6743 13.491C45.5663 13.779 45.4403 14.067 45.2963 14.355C45.1703 14.625 45.0353 14.904 44.8913 15.192C44.8553 15.264 44.8193 15.336 44.7833 15.408C44.7653 15.462 44.7383 15.525 44.7023 15.597C44.6843 15.633 44.6663 15.678 44.6483 15.732C44.6303 15.768 44.6123 15.804 44.5943 15.84C44.4863 15.966 44.4323 16.119 44.4323 16.299C44.4143 16.407 44.3783 16.515 44.3243 16.623C44.2703 16.713 44.2163 16.803 44.1623 16.893C44.1443 16.947 44.1083 16.974 44.0543 16.974C43.9823 16.992 43.9103 17.019 43.8383 17.055C43.7663 17.091 43.6853 17.127 43.5953 17.163C43.5413 17.181 43.4873 17.181 43.4333 17.163C43.3973 17.145 43.3523 17.127 43.2983 17.109C43.2623 17.073 43.2263 17.055 43.1903 17.055C42.9923 17.037 42.8483 16.92 42.7583 16.704C42.6143 16.416 42.5153 16.128 42.4613 15.84C42.4433 15.768 42.4433 15.705 42.4613 15.651C42.4973 15.597 42.5243 15.543 42.5423 15.489C42.6503 15.417 42.7133 15.336 42.7313 15.246V15.219C42.7313 14.985 42.7763 14.769 42.8663 14.571C42.9743 14.355 43.0643 14.148 43.1363 13.95C43.1723 13.842 43.2173 13.734 43.2713 13.626C43.3253 13.518 43.3793 13.41 43.4333 13.302C43.5053 13.176 43.5593 13.059 43.5953 12.951C43.6493 12.825 43.6943 12.699 43.7303 12.573C43.7843 12.429 43.7843 12.294 43.7303 12.168C43.6943 12.06 43.6763 11.961 43.6763 11.871C43.6763 11.763 43.6853 11.655 43.7033 11.547C43.7033 11.349 43.7753 11.178 43.9193 11.034C43.9913 10.944 44.0633 10.872 44.1353 10.818C44.2253 10.746 44.3063 10.674 44.3783 10.602C44.5403 10.44 44.6663 10.224 44.7563 9.954C44.8283 9.72 44.8823 9.486 44.9183 9.252C44.9723 9 45.0263 8.757 45.0803 8.523C45.1163 8.289 45.1523 8.064 45.1883 7.848C45.2423 7.614 45.2963 7.389 45.3503 7.173C45.3683 7.083 45.3863 7.002 45.4043 6.93C45.4403 6.84 45.4673 6.759 45.4853 6.687C45.5393 6.543 45.5933 6.408 45.6473 6.282C45.7013 6.138 45.7373 5.994 45.7553 5.85C45.7913 5.778 45.7913 5.715 45.7553 5.661C45.7373 5.571 45.7373 5.49 45.7553 5.418C45.7913 5.346 45.8183 5.274 45.8363 5.202C45.8903 5.076 45.9263 4.95 45.9443 4.824C45.9803 4.698 46.0253 4.572 46.0793 4.446C46.1693 4.212 46.2413 4.023 46.2953 3.879C46.3673 3.717 46.4303 3.537 46.4843 3.339C46.5203 3.231 46.5563 3.132 46.5923 3.042C46.6463 2.934 46.6823 2.826 46.7003 2.718C46.7543 2.556 46.7993 2.394 46.8353 2.232C46.8713 2.052 46.8893 1.881 46.8893 1.719C46.9253 1.575 46.9613 1.476 46.9973 1.422C47.0873 1.242 47.1953 1.089 47.3213 0.962999C47.4653 0.836999 47.6003 0.710999 47.7263 0.584999C47.8163 0.531 47.9063 0.495 47.9963 0.476999C48.0863 0.440999 48.1763 0.45 48.2663 0.504C48.3383 0.539999 48.3833 0.557999 48.4013 0.557999C48.5633 0.539999 48.6983 0.576 48.8063 0.665999C48.9143 0.755999 49.0043 0.863999 49.0763 0.989999C49.1123 1.026 49.1393 1.071 49.1573 1.125C49.1753 1.179 49.1933 1.224 49.2113 1.26C49.3013 1.404 49.3463 1.548 49.3463 1.692C49.3463 1.764 49.3553 1.845 49.3733 1.935C49.3913 2.007 49.4093 2.088 49.4273 2.178C49.4813 2.286 49.5623 2.34 49.6703 2.34C49.6883 2.322 49.7063 2.322 49.7243 2.34C49.7423 2.358 49.7513 2.376 49.7513 2.394C49.8413 2.502 49.8683 2.619 49.8323 2.745C49.7963 2.889 49.7873 3.033 49.8053 3.177C49.8413 3.303 49.8773 3.438 49.9133 3.582C49.9853 3.762 50.0573 3.942 50.1293 4.122C50.2013 4.302 50.2733 4.482 50.3453 4.662C50.4353 4.86 50.5253 5.058 50.6153 5.256C50.7053 5.454 50.7863 5.652 50.8583 5.85C50.9483 6.102 51.0383 6.354 51.1283 6.606C51.2363 6.858 51.3533 7.11 51.4793 7.362L51.5603 7.659C51.5783 7.731 51.5963 7.803 51.6143 7.875C51.6503 7.947 51.6773 8.019 51.6953 8.091C51.7313 8.145 51.7583 8.199 51.7763 8.253C51.8123 8.307 51.8483 8.352 51.8843 8.388C51.9743 8.514 52.0283 8.649 52.0463 8.793C52.1003 8.973 52.1813 9.135 52.2893 9.279C52.3253 9.333 52.3793 9.36 52.4513 9.36C52.7213 9.324 52.9913 9.297 53.2613 9.279C53.5313 9.243 53.8013 9.189 54.0713 9.117C54.2693 9.063 54.4583 9.036 54.6383 9.036C54.9803 9.036 55.2953 9.153 55.5833 9.387C55.9253 9.657 56.1053 9.999 56.1233 10.413C56.1233 10.503 56.1323 10.575 56.1503 10.629C56.1503 10.755 56.1143 10.854 56.0423 10.926C56.0243 10.98 55.9883 11.034 55.9343 11.088C55.8983 11.142 55.8623 11.196 55.8263 11.25C55.7903 11.322 55.7543 11.376 55.7183 11.412L55.5563 11.547C55.5383 11.583 55.5113 11.628 55.4753 11.682C55.4393 11.718 55.3943 11.745 55.3403 11.763C55.2683 11.781 55.1963 11.808 55.1243 11.844C55.0523 11.862 54.9713 11.871 54.8813 11.871C54.5573 11.907 54.2693 11.898 54.0173 11.844H53.5853C53.5493 11.844 53.4953 11.862 53.4233 11.898C53.3513 11.934 53.3153 11.979 53.3153 12.033V12.141C53.3693 12.303 53.4053 12.474 53.4233 12.654C53.4593 12.816 53.5133 12.969 53.5853 13.113C53.5853 13.185 53.6033 13.257 53.6393 13.329C53.7293 13.491 53.8013 13.662 53.8553 13.842C53.9093 14.004 53.9543 14.175 53.9903 14.355C53.9903 14.391 54.0083 14.463 54.0443 14.571C54.0983 14.697 54.1433 14.832 54.1793 14.976C54.2153 15.102 54.2423 15.237 54.2603 15.381C54.2603 15.489 54.2873 15.588 54.3413 15.678C54.4133 15.84 54.4673 16.002 54.5033 16.164C54.5393 16.326 54.5663 16.497 54.5843 16.677C54.6023 16.695 54.6113 16.731 54.6113 16.785C54.6113 16.821 54.6203 16.857 54.6383 16.893C54.7283 17.091 54.7913 17.307 54.8273 17.541C54.8633 17.757 54.9083 17.973 54.9623 18.189C54.9983 18.297 55.0163 18.405 55.0163 18.513C55.0343 18.639 55.0433 18.765 55.0433 18.891C55.0433 18.981 55.0163 19.08 54.9623 19.188C54.9083 19.242 54.8813 19.269 54.8813 19.269C54.7733 19.287 54.7103 19.35 54.6923 19.458L54.6113 19.62C54.5753 19.692 54.5213 19.737 54.4493 19.755C54.3773 19.755 54.3143 19.782 54.2603 19.836C54.1883 19.908 54.0893 19.944 53.9633 19.944C53.8913 19.944 53.8013 19.944 53.6933 19.944C53.6033 19.944 53.5133 19.953 53.4233 19.971ZM46.9163 10.17C47.0243 10.152 47.1323 10.134 47.2403 10.116C47.3663 10.098 47.5013 10.08 47.6453 10.062C47.7353 10.044 47.8523 10.026 47.9963 10.008C48.1403 9.99 48.2753 9.972 48.4013 9.954C48.5273 9.918 48.6533 9.9 48.7793 9.9C48.9053 9.882 49.0313 9.864 49.1573 9.846C49.2653 9.81 49.3733 9.792 49.4813 9.792C49.5893 9.774 49.6973 9.756 49.8053 9.738C49.9673 9.702 50.0303 9.612 49.9943 9.468C49.9763 9.324 49.9403 9.18 49.8863 9.036C49.8503 8.874 49.7693 8.739 49.6433 8.631C49.6073 8.595 49.5893 8.541 49.5893 8.469V8.388C49.5533 8.244 49.5083 8.109 49.4543 7.983C49.4183 7.839 49.3733 7.704 49.3193 7.578C49.2833 7.434 49.2383 7.308 49.1843 7.2C49.1483 7.074 49.1033 6.948 49.0493 6.822L48.7253 5.85C48.6713 5.724 48.6173 5.598 48.5633 5.472C48.5273 5.346 48.4913 5.22 48.4553 5.094L48.3743 4.986H48.2933L48.2393 5.067C48.1493 5.337 48.0413 5.607 47.9153 5.877C47.8073 6.147 47.7083 6.435 47.6183 6.741C47.6183 6.777 47.6093 6.822 47.5913 6.876C47.5733 6.93 47.5553 6.984 47.5373 7.038C47.4653 7.218 47.3933 7.416 47.3213 7.632C47.2673 7.848 47.2223 8.064 47.1863 8.28C47.1683 8.406 47.1503 8.532 47.1323 8.658C47.1143 8.766 47.0873 8.883 47.0513 9.009L46.8083 10.062C46.7903 10.08 46.7993 10.107 46.8353 10.143C46.8713 10.161 46.8983 10.17 46.9163 10.17Z" fill="#353535"/>
</svg>
