<svg width="106" height="21" viewBox="0 0 106 21" fill="none" xmlns="http://www.w3.org/2000/svg">
<path d="M1.15186 20.25C1.13519 20.25 1.07686 20.2333 0.976856 20.2C0.926856 20.1833 0.868522 20.125 0.801856 20.025C0.785189 19.975 0.768522 19.925 0.751856 19.875C0.735189 19.825 0.726856 19.775 0.726856 19.725C0.676856 19.475 0.651856 19.225 0.651856 18.975V17.25C0.651856 17.1 0.635189 16.95 0.601856 16.8C0.568522 16.65 0.535189 16.5 0.501856 16.35C0.501856 16.3167 0.485189 16.2667 0.451856 16.2C0.435189 16.15 0.410189 16.1 0.376856 16.05C0.343522 15.9833 0.310189 15.925 0.276856 15.875C0.210189 15.7583 0.160189 15.6333 0.126856 15.5C0.0935222 15.3667 0.0685222 15.2417 0.0518555 15.125C0.0351888 14.9417 0.0351888 14.7667 0.0518555 14.6C0.0851888 14.5 0.110189 14.4083 0.126856 14.325C0.143522 14.225 0.168522 14.1333 0.201855 14.05C0.251856 13.9167 0.293522 13.7833 0.326856 13.65C0.360189 13.5 0.401856 13.35 0.451856 13.2L0.826856 11.975C0.943522 11.625 1.09352 11.2667 1.27686 10.9C1.46019 10.55 1.63519 10.1583 1.80186 9.725C1.83519 9.625 1.87686 9.51667 1.92686 9.4C1.99352 9.21667 2.06019 9.04167 2.12686 8.875C2.21019 8.69167 2.28519 8.51667 2.35186 8.35L2.72686 7.3C2.76019 7.23333 2.78519 7.16667 2.80186 7.1C2.81852 7.03333 2.83519 6.96667 2.85186 6.9C2.98519 6.56667 3.11852 6.25 3.25186 5.95C3.35186 5.75 3.41852 5.53333 3.45186 5.3C3.48519 5.06667 3.48519 4.83333 3.45186 4.6C3.43519 4.5 3.41852 4.4 3.40186 4.3C3.40186 4.18333 3.40186 4.075 3.40186 3.975C3.40186 3.925 3.38519 3.88333 3.35186 3.85C3.33519 3.8 3.33519 3.75 3.35186 3.7C3.36852 3.66667 3.38519 3.63333 3.40186 3.6C3.43519 3.56667 3.46019 3.53333 3.47686 3.5C3.52686 3.31667 3.60186 3.15833 3.70186 3.025C3.81852 2.875 3.94352 2.74167 4.07686 2.625C4.14352 2.55833 4.23519 2.50833 4.35186 2.475C4.41852 2.44167 4.47686 2.40833 4.52686 2.375C4.59352 2.34167 4.65186 2.3 4.70186 2.25C4.78519 2.18333 4.87686 2.14167 4.97686 2.125C5.11019 2.10833 5.25186 2.05833 5.40186 1.975C5.53519 1.89167 5.68519 1.86667 5.85186 1.9H6.07686C6.19352 1.9 6.31852 1.94167 6.45186 2.025C6.48519 2.04167 6.51852 2.06667 6.55186 2.1C6.60186 2.11667 6.65186 2.14167 6.70186 2.175C6.83519 2.275 6.90186 2.4 6.90186 2.55C6.90186 2.66667 6.91019 2.775 6.92686 2.875C6.96019 2.975 6.98519 3.08333 7.00186 3.2C7.03519 3.3 7.03519 3.40833 7.00186 3.525C6.98519 3.55833 6.97686 3.6 6.97686 3.65C6.97686 3.68333 6.96852 3.71667 6.95186 3.75C6.95186 3.81667 6.94352 3.88333 6.92686 3.95C6.92686 4.01667 6.91852 4.08333 6.90186 4.15C6.85186 4.26667 6.86852 4.38333 6.95186 4.5C7.08519 4.71667 7.20186 4.94167 7.30186 5.175C7.41852 5.40833 7.53519 5.64167 7.65186 5.875L8.10186 6.675C8.23519 6.89167 8.36852 7.15 8.50186 7.45C8.53519 7.5 8.56019 7.55 8.57686 7.6C8.61019 7.65 8.64352 7.7 8.67686 7.75C8.72686 7.83333 8.76852 7.925 8.80186 8.025C8.85186 8.125 8.90186 8.225 8.95186 8.325C9.08519 8.575 9.19352 8.83333 9.27686 9.1C9.37686 9.35 9.47686 9.61667 9.57686 9.9C9.57686 9.91667 9.57686 9.93333 9.57686 9.95C9.59352 9.95 9.60186 9.95833 9.60186 9.975C9.61852 10.0917 9.70186 10.15 9.85186 10.15C9.90186 10.1333 9.95186 10.125 10.0019 10.125C10.0685 10.125 10.1269 10.125 10.1769 10.125C10.3602 10.125 10.5185 10.1583 10.6519 10.225C10.7352 10.2417 10.8185 10.2917 10.9019 10.375C11.0352 10.5083 11.1269 10.6167 11.1769 10.7C11.2269 10.7833 11.2602 10.9083 11.2769 11.075C11.3435 11.3917 11.2769 11.6667 11.0769 11.9L10.9269 12.025C10.8935 12.0583 10.8519 12.0917 10.8019 12.125C10.7519 12.1417 10.7102 12.1667 10.6769 12.2C10.5935 12.2667 10.5435 12.3167 10.5269 12.35C10.5269 12.3833 10.5519 12.4583 10.6019 12.575L10.9769 13.475C11.1269 13.8083 11.2769 14.1417 11.4269 14.475C11.5935 14.8083 11.7602 15.1417 11.9269 15.475C11.9935 15.5917 12.0435 15.7083 12.0769 15.825C12.1269 15.9417 12.1602 16.0667 12.1769 16.2C12.1935 16.3 12.1935 16.4 12.1769 16.5C12.1769 16.6 12.1685 16.7 12.1519 16.8C12.1519 16.8167 12.1352 16.875 12.1019 16.975C12.0519 17.0417 12.0019 17.1083 11.9519 17.175C11.9185 17.2417 11.8769 17.3083 11.8269 17.375C11.6935 17.5583 11.5852 17.7667 11.5019 18C11.4685 18.15 11.3602 18.2667 11.1769 18.35C11.0769 18.4 10.9685 18.4 10.8519 18.35C10.7019 18.3 10.6019 18.2 10.5519 18.05L10.5019 17.925C10.4519 17.7583 10.3769 17.6 10.2769 17.45C10.2102 17.3333 10.1435 17.2167 10.0769 17.1C10.0269 16.9667 9.96852 16.8417 9.90186 16.725C9.88519 16.6917 9.87686 16.6667 9.87686 16.65C9.87686 16.6167 9.86852 16.5917 9.85186 16.575C9.83519 16.475 9.80186 16.3833 9.75186 16.3C9.71852 16.2 9.67686 16.1083 9.62686 16.025C9.52686 15.775 9.41852 15.5333 9.30186 15.3C9.20186 15.05 9.09352 14.8 8.97686 14.55L8.60186 13.75C8.58519 13.7 8.56852 13.65 8.55186 13.6C8.53519 13.5333 8.51019 13.4667 8.47686 13.4L8.17686 12.725C8.17686 12.6917 8.16019 12.6417 8.12686 12.575C8.04352 12.4417 7.93519 12.3667 7.80186 12.35C7.68519 12.35 7.57686 12.3417 7.47686 12.325C7.37686 12.3083 7.27686 12.3 7.17686 12.3C6.91019 12.3 6.64352 12.325 6.37686 12.375C6.11019 12.425 5.86019 12.5167 5.62686 12.65C5.31019 12.8333 4.98519 12.95 4.65186 13C4.58519 13 4.51852 13.0083 4.45186 13.025C4.38519 13.0417 4.31852 13.0667 4.25186 13.1C4.15186 13.1667 4.09352 13.2417 4.07686 13.325C4.04352 13.425 4.02686 13.5 4.02686 13.55L3.95186 13.9C3.93519 14.0167 3.86852 14.1333 3.75186 14.25C3.66852 14.3333 3.55186 14.375 3.40186 14.375C3.18519 14.3417 3.04352 14.2333 2.97686 14.05C2.96019 14 2.94352 13.95 2.92686 13.9C2.91019 13.85 2.89352 13.7917 2.87686 13.725C2.81019 13.825 2.80186 13.9083 2.85186 13.975C2.88519 14.0417 2.86852 14.1 2.80186 14.15C2.76852 14.1833 2.76019 14.2083 2.77686 14.225C2.81019 14.2917 2.80186 14.35 2.75186 14.4C2.70186 14.45 2.68519 14.5083 2.70186 14.575C2.71852 14.6083 2.71852 14.65 2.70186 14.7C2.61852 14.8167 2.56019 14.9583 2.52686 15.125C2.54352 15.1917 2.50186 15.2417 2.40186 15.275C2.36852 15.275 2.35186 15.2917 2.35186 15.325C2.31852 15.375 2.28519 15.45 2.25186 15.55C2.23519 15.6333 2.21019 15.725 2.17686 15.825C2.16019 15.9083 2.13519 15.9917 2.10186 16.075L1.95186 16.7V16.8C1.95186 16.95 1.93519 17.1 1.90186 17.25C1.88519 17.3833 1.87686 17.525 1.87686 17.675L1.80186 18.5C1.78519 18.6167 1.76852 18.7333 1.75186 18.85C1.75186 18.9833 1.75186 19.1167 1.75186 19.25C1.73519 19.35 1.71852 19.4417 1.70186 19.525C1.70186 19.625 1.68519 19.725 1.65186 19.825C1.61852 19.975 1.56019 20.0833 1.47686 20.15C1.41019 20.25 1.30186 20.2833 1.15186 20.25ZM4.40186 10.125H4.42686C4.59352 10.0917 4.75186 10.0667 4.90186 10.05C5.05186 10.0333 5.20186 10.0167 5.35186 10C5.45186 9.98333 5.55186 9.975 5.65186 9.975C5.75186 9.95833 5.85186 9.95 5.95186 9.95H6.47686C6.51019 9.95 6.54352 9.95 6.57686 9.95C6.61019 9.93333 6.63519 9.925 6.65186 9.925C6.68519 9.925 6.70186 9.89167 6.70186 9.825C6.65186 9.75833 6.61019 9.69167 6.57686 9.625C6.54352 9.55833 6.51019 9.49167 6.47686 9.425C6.37686 9.19167 6.24352 8.99167 6.07686 8.825C6.06019 8.79167 6.04352 8.76667 6.02686 8.75C6.01019 8.71667 5.99352 8.68333 5.97686 8.65C5.96019 8.61667 5.93519 8.58333 5.90186 8.55C5.88519 8.5 5.86019 8.45833 5.82686 8.425C5.74352 8.35833 5.66019 8.375 5.57686 8.475L5.50186 8.675C5.48519 8.80833 5.46019 8.95 5.42686 9.1C5.39352 9.23333 5.36019 9.36667 5.32686 9.5C5.32686 9.53333 5.31019 9.58333 5.27686 9.65C5.24352 9.75 5.16019 9.825 5.02686 9.875C4.91019 9.925 4.78519 9.90833 4.65186 9.825L4.50186 9.725C4.50186 9.725 4.48519 9.725 4.45186 9.725C4.41852 9.79167 4.40186 9.84167 4.40186 9.875C4.40186 9.90833 4.40186 9.94167 4.40186 9.975C4.41852 10.0083 4.41019 10.0417 4.37686 10.075C4.34352 10.1083 4.35186 10.125 4.40186 10.125ZM16.2394 18.075C16.106 18.125 15.956 18.1083 15.7894 18.025L15.2894 17.8C15.206 17.7667 15.1394 17.6917 15.0894 17.575L15.0144 17.425C14.981 17.3417 14.9394 17.2833 14.8894 17.25C14.806 17.1833 14.7477 17.0667 14.7144 16.9C14.681 16.7333 14.656 16.5667 14.6394 16.4C14.6227 16.2333 14.606 16.0667 14.5894 15.9C14.5727 15.7667 14.5644 15.6333 14.5644 15.5C14.5644 15.3667 14.5644 15.2417 14.5644 15.125L14.5894 14.95C14.6227 14.8667 14.6394 14.7833 14.6394 14.7C14.6394 14.6167 14.6394 14.5417 14.6394 14.475V9.925C14.6727 9.69167 14.6894 9.45833 14.6894 9.225C14.6894 8.975 14.6894 8.73333 14.6894 8.5C14.706 8.26667 14.7144 8.04167 14.7144 7.825C14.7144 7.59167 14.6977 7.36667 14.6644 7.15C14.6477 7.06667 14.6394 6.975 14.6394 6.875C14.6394 6.775 14.6394 6.675 14.6394 6.575C14.6394 6.425 14.6394 6.275 14.6394 6.125C14.6394 5.975 14.6227 5.825 14.5894 5.675V5.6C14.5894 5.36667 14.5727 5.14167 14.5394 4.925C14.5227 4.69167 14.506 4.46667 14.4894 4.25C14.4727 4.11667 14.456 3.99167 14.4394 3.875C14.4227 3.75833 14.3977 3.64167 14.3644 3.525C14.3477 3.45833 14.3394 3.39167 14.3394 3.325C14.3394 3.25833 14.3394 3.19167 14.3394 3.125C14.3394 3.00833 14.356 2.9 14.3894 2.8C14.4227 2.68333 14.456 2.575 14.4894 2.475C14.506 2.44167 14.5477 2.39167 14.6144 2.325C14.6477 2.29167 14.681 2.26667 14.7144 2.25C14.7477 2.23333 14.7727 2.21667 14.7894 2.2C14.8894 2.06667 15.0227 2.00833 15.1894 2.025C15.2227 2.04167 15.2727 2.03333 15.3394 2C15.4227 1.93333 15.4977 1.925 15.5644 1.975C15.6144 2.00833 15.6977 2.00833 15.8144 1.975C15.8644 1.975 15.906 1.99167 15.9394 2.025C15.9894 2.09167 16.056 2.14167 16.1394 2.175C16.2227 2.20833 16.281 2.25833 16.3144 2.325C16.3644 2.375 16.4144 2.425 16.4644 2.475C16.4977 2.525 16.531 2.575 16.5644 2.625C16.6144 2.65833 16.6394 2.70833 16.6394 2.775C16.656 2.84167 16.656 2.90833 16.6394 2.975C16.6394 3.025 16.6394 3.08333 16.6394 3.15C16.6394 3.3 16.6477 3.45833 16.6644 3.625C16.6977 3.775 16.7227 3.925 16.7394 4.075C16.7727 4.24167 16.7977 4.41667 16.8144 4.6C16.831 4.76667 16.8477 4.94167 16.8644 5.125V5.375C16.8977 5.49167 16.9144 5.60833 16.9144 5.725C16.9144 5.84167 16.9227 5.95833 16.9394 6.075V6.1C16.956 6.3 16.9727 6.5 16.9894 6.7C17.006 6.9 17.0227 7.1 17.0394 7.3C17.056 7.38333 17.0644 7.475 17.0644 7.575C17.0644 7.65833 17.0644 7.74167 17.0644 7.825V14.475C17.0644 14.625 17.0727 14.775 17.0894 14.925C17.1227 15.075 17.1477 15.2167 17.1644 15.35C17.1644 15.4333 17.2144 15.475 17.3144 15.475C17.4644 15.5083 17.606 15.5083 17.7394 15.475C17.9227 15.4417 18.0977 15.425 18.2644 15.425C18.4477 15.425 18.631 15.425 18.8144 15.425C18.9977 15.425 19.1727 15.425 19.3394 15.425C19.5227 15.4083 19.6977 15.3917 19.8644 15.375H20.1394C20.2727 15.3917 20.3894 15.4083 20.4894 15.425C20.606 15.425 20.7227 15.425 20.8394 15.425C21.0227 15.425 21.206 15.4333 21.3894 15.45C21.5894 15.45 21.781 15.4583 21.9644 15.475C22.0977 15.4917 22.231 15.5 22.3644 15.5C22.5144 15.5 22.6644 15.5 22.8144 15.5H22.9394C23.2727 15.4833 23.5727 15.5667 23.8394 15.75C23.956 15.8 24.0394 15.8833 24.0894 16C24.1227 16.0667 24.1477 16.1333 24.1644 16.2C24.1977 16.25 24.2227 16.3167 24.2394 16.4C24.256 16.4667 24.2644 16.5333 24.2644 16.6C24.281 16.65 24.2977 16.7083 24.3144 16.775C24.3644 16.925 24.3477 17.0917 24.2644 17.275C24.2477 17.325 24.231 17.375 24.2144 17.425C24.1977 17.475 24.1727 17.525 24.1394 17.575C24.106 17.625 24.0644 17.6667 24.0144 17.7C24.0144 17.7 23.981 17.7167 23.9144 17.75C23.781 17.8667 23.631 17.9417 23.4644 17.975C23.3144 18.0083 23.1477 18.0417 22.9644 18.075L22.7144 18.05C22.4644 17.9667 22.2144 17.9167 21.9644 17.9C21.8977 17.8833 21.8227 17.875 21.7394 17.875C21.656 17.8583 21.5727 17.85 21.4894 17.85C21.3727 17.85 21.256 17.85 21.1394 17.85C21.0227 17.8333 20.8977 17.8167 20.7644 17.8L20.5144 17.775C20.3644 17.7917 20.2144 17.8 20.0644 17.8C19.9144 17.7833 19.7644 17.7833 19.6144 17.8C19.5477 17.8 19.481 17.8 19.4144 17.8C19.3477 17.7833 19.281 17.775 19.2144 17.775C19.081 17.775 18.9477 17.775 18.8144 17.775C18.6977 17.775 18.5727 17.7917 18.4394 17.825C18.3727 17.8417 18.2894 17.8583 18.1894 17.875C18.106 17.875 18.0227 17.875 17.9394 17.875C17.6894 17.8917 17.4394 17.9167 17.1894 17.95C16.9394 17.9667 16.6977 18 16.4644 18.05C16.4144 18.0667 16.3394 18.075 16.2394 18.075ZM27.9702 18.25C27.8369 18.2333 27.7035 18.2 27.5702 18.15C27.4369 18.1167 27.3202 18.0583 27.2202 17.975C27.2035 17.9417 27.1785 17.9167 27.1452 17.9C27.1119 17.8667 27.0869 17.8417 27.0702 17.825C27.0035 17.725 26.9452 17.6167 26.8952 17.5C26.8452 17.3833 26.8119 17.2667 26.7952 17.15C26.7785 16.9 26.8035 16.65 26.8702 16.4C26.9535 16.1333 27.0119 15.8667 27.0452 15.6C27.0785 15.3167 27.0952 15.0333 27.0952 14.75C27.1119 14.4167 27.1202 14.0833 27.1202 13.75C27.1202 13.4167 27.1202 13.0917 27.1202 12.775C27.1202 12.6917 27.1119 12.6083 27.0952 12.525C27.0952 12.425 27.0869 12.3333 27.0702 12.25C27.0535 12.1667 27.0452 12.075 27.0452 11.975C27.0452 11.875 27.0452 11.7833 27.0452 11.7C27.0452 11.6167 27.0369 11.5333 27.0202 11.45C27.0202 11.35 27.0119 11.2583 26.9952 11.175C26.9785 11.1083 26.9702 11.0417 26.9702 10.975C26.9869 10.9083 26.9869 10.8417 26.9702 10.775C26.9702 10.6583 26.9702 10.5417 26.9702 10.425C26.9702 10.3083 26.9619 10.1917 26.9452 10.075C26.9285 10.0583 26.9202 10.025 26.9202 9.975V8.625C26.9035 8.54167 26.8952 8.46667 26.8952 8.4C26.8952 8.31667 26.8952 8.23333 26.8952 8.15C26.9119 8.1 26.9202 8.025 26.9202 7.925V7.625C26.9202 7.525 26.9119 7.43333 26.8952 7.35C26.8952 7.25 26.9035 7.15 26.9202 7.05V6.925C26.9035 6.79167 26.8952 6.66667 26.8952 6.55C26.9119 6.41667 26.9285 6.29167 26.9452 6.175C26.9619 6.10833 26.9702 6 26.9702 5.85C26.9369 5.75 26.9202 5.675 26.9202 5.625C26.9035 5.54167 26.8869 5.46667 26.8702 5.4C26.8702 5.31667 26.8785 5.24167 26.8952 5.175C26.9119 5.025 26.8785 4.86667 26.7952 4.7C26.7452 4.63333 26.7035 4.56667 26.6702 4.5C26.6535 4.41667 26.6285 4.34167 26.5952 4.275V4.2C26.6285 4.16667 26.6619 4.16667 26.6952 4.2C26.7452 4.21667 26.7702 4.20833 26.7702 4.175C26.7869 4.14167 26.7952 4.10833 26.7952 4.075C26.7952 4.025 26.8035 3.99167 26.8202 3.975C26.8369 3.925 26.8285 3.85833 26.7952 3.775C26.7785 3.725 26.8035 3.69167 26.8702 3.675C26.9035 3.60833 26.9619 3.56667 27.0452 3.55C27.1285 3.51667 27.1785 3.49167 27.1952 3.475C27.2452 3.40833 27.3035 3.375 27.3702 3.375C27.4369 3.375 27.5035 3.375 27.5702 3.375C27.6202 3.375 27.6952 3.35833 27.7952 3.325C27.8619 3.30833 27.9285 3.30833 27.9952 3.325C28.0285 3.34167 28.0619 3.36667 28.0952 3.4C28.1285 3.41667 28.1619 3.43333 28.1952 3.45C28.3619 3.51667 28.5035 3.65 28.6202 3.85C28.6535 3.93333 28.6869 4.01667 28.7202 4.1C28.7535 4.18333 28.7619 4.275 28.7452 4.375C28.7452 4.425 28.7785 4.45 28.8452 4.45H29.0452C29.1285 4.41667 29.2119 4.4 29.2952 4.4C29.3952 4.4 29.4785 4.4 29.5452 4.4H30.1952C30.3785 4.38333 30.5619 4.39167 30.7452 4.425C30.9452 4.44167 31.1369 4.46667 31.3202 4.5C31.8702 4.56667 32.3952 4.69167 32.8952 4.875C33.4452 5.04167 33.9619 5.31667 34.4452 5.7C34.6285 5.83333 34.8285 6.025 35.0452 6.275C35.1119 6.34167 35.1702 6.41667 35.2202 6.5C35.2869 6.56667 35.3452 6.64167 35.3952 6.725C35.5785 7.00833 35.6702 7.3 35.6702 7.6C35.7035 7.8 35.7035 7.99167 35.6702 8.175C35.6702 8.325 35.6369 8.45833 35.5702 8.575C35.5702 8.575 35.5619 8.58333 35.5452 8.6C35.5452 8.6 35.5452 8.60833 35.5452 8.625C35.5119 8.675 35.4869 8.73333 35.4702 8.8C35.4702 8.86667 35.4452 8.91667 35.3952 8.95L35.1702 9.225C35.0869 9.325 34.9952 9.43333 34.8952 9.55C34.8119 9.65 34.7119 9.74167 34.5952 9.825L34.3452 10C34.2952 10.0167 34.2452 10.0417 34.1952 10.075C34.1452 10.1083 34.1035 10.15 34.0702 10.2C34.0202 10.25 33.9619 10.2917 33.8952 10.325C33.8285 10.375 33.7535 10.425 33.6702 10.475C33.6035 10.5083 33.5285 10.5417 33.4452 10.575C33.3619 10.6083 33.3619 10.65 33.4452 10.7L33.6202 10.775C33.7035 10.825 33.7952 10.875 33.8952 10.925C33.9952 10.9583 34.0869 11 34.1702 11.05C34.3035 11.1167 34.4369 11.2 34.5702 11.3C34.7202 11.3833 34.8535 11.4667 34.9702 11.55L35.2702 11.825C35.3535 11.9083 35.4285 12 35.4952 12.1C35.5785 12.1833 35.6535 12.275 35.7202 12.375C35.8535 12.5417 35.9619 12.725 36.0452 12.925C36.1452 13.125 36.2119 13.3333 36.2452 13.55C36.2785 13.6667 36.2952 13.7917 36.2952 13.925C36.2952 14.0417 36.2785 14.1667 36.2452 14.3C36.2119 14.4333 36.2202 14.5583 36.2702 14.675C36.2869 14.725 36.2785 14.8083 36.2452 14.925L36.1702 15.25C36.1369 15.35 36.0952 15.4417 36.0452 15.525C36.0119 15.6083 35.9535 15.6917 35.8702 15.775L35.5702 16.175C35.4702 16.2917 35.3619 16.4083 35.2452 16.525C35.1452 16.6417 35.0285 16.7417 34.8952 16.825L34.6702 16.975C34.6369 16.975 34.5869 16.9917 34.5202 17.025C33.7869 17.4083 33.0285 17.6083 32.2452 17.625C32.1619 17.625 32.0952 17.6333 32.0452 17.65C31.8952 17.6667 31.7369 17.6833 31.5702 17.7C31.4202 17.7 31.2619 17.7 31.0952 17.7C30.9619 17.7 30.8202 17.7167 30.6702 17.75C30.5369 17.7667 30.4035 17.775 30.2702 17.775C30.2035 17.7917 30.1369 17.8083 30.0702 17.825C30.0035 17.825 29.9369 17.825 29.8702 17.825C29.7869 17.8417 29.6952 17.8583 29.5952 17.875C29.5119 17.8917 29.4285 17.9167 29.3452 17.95C29.2952 17.9667 29.2452 17.9833 29.1952 18C29.1619 18.0167 29.1202 18.0417 29.0702 18.075C28.9035 18.1917 28.7119 18.25 28.4952 18.25H27.9702ZM29.0702 9.925C29.1369 9.925 29.1952 9.91667 29.2452 9.9C29.3119 9.88333 29.3702 9.86667 29.4202 9.85C29.6369 9.76667 29.8452 9.69167 30.0452 9.625C30.2452 9.54167 30.4535 9.46667 30.6702 9.4C30.9202 9.31667 31.1702 9.225 31.4202 9.125C31.6702 9.00833 31.9202 8.9 32.1702 8.8C32.3702 8.71667 32.5619 8.60833 32.7452 8.475C32.9452 8.34167 33.1285 8.20833 33.2952 8.075C33.3285 8.05833 33.3535 8.04167 33.3702 8.025C33.3869 7.99167 33.4035 7.96667 33.4202 7.95C33.4535 7.9 33.4535 7.85 33.4202 7.8L33.3452 7.675C33.2785 7.625 33.2202 7.575 33.1702 7.525C33.1202 7.475 33.0535 7.425 32.9702 7.375C32.9035 7.34167 32.8369 7.3 32.7702 7.25C32.7035 7.2 32.6285 7.15833 32.5452 7.125L32.3202 6.975C32.0702 6.875 31.8202 6.79167 31.5702 6.725C31.3202 6.65833 31.0619 6.625 30.7952 6.625H29.9452C29.8119 6.625 29.6785 6.63333 29.5452 6.65C29.4119 6.66667 29.2785 6.69167 29.1452 6.725C29.0952 6.725 29.0202 6.74167 28.9202 6.775C28.8202 6.79167 28.7702 6.85 28.7702 6.95V7.525C28.8035 7.69167 28.8035 7.86667 28.7702 8.05V8.275C28.8035 8.375 28.8202 8.48333 28.8202 8.6C28.8202 8.7 28.8202 8.80833 28.8202 8.925C28.8369 9.225 28.8869 9.54167 28.9702 9.875C28.9702 9.90833 29.0035 9.925 29.0702 9.925ZM29.2702 15.7H29.3702C29.4869 15.6833 29.6035 15.675 29.7202 15.675C29.8369 15.6583 29.9535 15.6417 30.0702 15.625C30.2702 15.5917 30.4702 15.5583 30.6702 15.525C30.8869 15.4917 31.0952 15.4667 31.2952 15.45C31.6785 15.4167 32.0535 15.3667 32.4202 15.3C32.5702 15.2667 32.7119 15.2333 32.8452 15.2C32.9952 15.1667 33.1369 15.1333 33.2702 15.1C33.3535 15.0667 33.4285 15.0333 33.4952 15C33.5785 14.95 33.6535 14.9083 33.7202 14.875C33.9535 14.7083 34.0869 14.4583 34.1202 14.125C34.1369 13.8083 34.0202 13.55 33.7702 13.35C33.7369 13.3167 33.6702 13.2667 33.5702 13.2C33.3035 13.0167 33.0202 12.8667 32.7202 12.75C32.4202 12.6333 32.1119 12.5417 31.7952 12.475C31.6452 12.4417 31.4952 12.4167 31.3452 12.4C31.2119 12.3667 31.0702 12.3583 30.9202 12.375C30.8535 12.375 30.7785 12.3833 30.6952 12.4C30.6285 12.4 30.5619 12.4 30.4952 12.4C30.4285 12.4 30.3619 12.4083 30.2952 12.425C30.2285 12.425 30.1535 12.425 30.0702 12.425C29.9869 12.425 29.8952 12.425 29.7952 12.425C29.7119 12.425 29.6285 12.4333 29.5452 12.45H29.3202C29.2369 12.4833 29.1952 12.5333 29.1952 12.6C29.2119 12.7333 29.2202 12.875 29.2202 13.025C29.2202 13.175 29.2202 13.3167 29.2202 13.45C29.2202 13.4833 29.2202 13.5167 29.2202 13.55C29.2369 13.5833 29.2452 13.6167 29.2452 13.65V14.175C29.2285 14.275 29.2202 14.375 29.2202 14.475C29.2202 14.575 29.2202 14.6667 29.2202 14.75C29.2202 14.8667 29.2202 14.9833 29.2202 15.1C29.2369 15.2 29.2285 15.3083 29.1952 15.425C29.1785 15.4583 29.1702 15.5167 29.1702 15.6C29.1702 15.6333 29.2035 15.6667 29.2702 15.7ZM44.0052 18.5C43.8385 18.4833 43.6718 18.4583 43.5052 18.425C43.3552 18.4083 43.2052 18.3667 43.0552 18.3L42.4302 18.075C42.2135 17.9917 42.0135 17.9 41.8302 17.8C41.6468 17.6833 41.4635 17.5667 41.2802 17.45C41.1968 17.3667 41.1135 17.2917 41.0302 17.225C40.9468 17.1417 40.8635 17.0667 40.7802 17C40.6468 16.8667 40.5135 16.7333 40.3802 16.6C40.2468 16.45 40.1218 16.2917 40.0052 16.125L39.4052 15.2C39.2552 14.9667 39.1218 14.725 39.0052 14.475C38.8885 14.2083 38.7885 13.9417 38.7052 13.675C38.5218 13.175 38.4302 12.6833 38.4302 12.2V11.8C38.4302 11.3833 38.4552 10.975 38.5052 10.575C38.5385 10.2417 38.6135 9.94167 38.7302 9.675C38.7968 9.50833 38.8552 9.34167 38.9052 9.175C38.9552 9.00833 39.0135 8.85 39.0802 8.7L39.1552 8.525C39.1885 8.30833 39.2635 8.11667 39.3802 7.95C39.4968 7.76667 39.5968 7.59167 39.6802 7.425C39.7468 7.29167 39.8218 7.175 39.9052 7.075C39.9885 6.95833 40.0635 6.84167 40.1302 6.725C40.1635 6.675 40.2052 6.63333 40.2552 6.6C40.3052 6.55 40.3468 6.5 40.3802 6.45C40.4135 6.41667 40.4385 6.375 40.4552 6.325C40.4885 6.25833 40.5135 6.2 40.5302 6.15C40.5635 6.1 40.6218 6.03333 40.7052 5.95C40.8052 5.9 40.8968 5.78333 40.9802 5.6C41.0135 5.53333 41.0468 5.48333 41.0802 5.45C41.1802 5.36667 41.2635 5.26667 41.3302 5.15C41.4135 5.03333 41.5052 4.925 41.6052 4.825C41.6718 4.75833 41.7052 4.66667 41.7052 4.55C41.7052 4.46667 41.7052 4.39167 41.7052 4.325C41.7218 4.24167 41.7218 4.16667 41.7052 4.1C41.6885 4.01667 41.7135 3.94167 41.7802 3.875C41.8135 3.84167 41.8385 3.8 41.8552 3.75C41.8718 3.7 41.8885 3.65 41.9052 3.6C41.9552 3.43333 42.0885 3.29167 42.3052 3.175C42.3385 3.14167 42.3802 3.125 42.4302 3.125C42.4968 3.10833 42.5552 3.09167 42.6052 3.075C42.7218 3.025 42.8552 3.01667 43.0052 3.05C43.0718 3.06667 43.1302 3.075 43.1802 3.075C43.2302 3.05833 43.2802 3.04167 43.3302 3.025C43.3968 2.99167 43.4552 2.96667 43.5052 2.95C43.5718 2.93333 43.6302 2.91667 43.6802 2.9C43.9135 2.81667 44.1552 2.825 44.4052 2.925C44.6718 3.025 44.8635 3.2 44.9802 3.45C45.0135 3.53333 45.0468 3.61667 45.0802 3.7C45.1135 3.78333 45.1385 3.86667 45.1552 3.95C45.1885 4.13333 45.1802 4.29167 45.1302 4.425C45.0968 4.49167 45.0802 4.53333 45.0802 4.55C45.0635 4.61667 45.0802 4.675 45.1302 4.725C45.1635 4.775 45.2052 4.81667 45.2552 4.85C45.4385 5.01667 45.6135 5.18333 45.7802 5.35C45.9468 5.5 46.1052 5.66667 46.2552 5.85C46.3885 5.98333 46.4968 6.125 46.5802 6.275C46.6802 6.40833 46.7718 6.55833 46.8552 6.725C46.8885 6.80833 46.9302 6.9 46.9802 7C47.0302 7.08333 47.0802 7.16667 47.1302 7.25C47.2135 7.4 47.2802 7.55833 47.3302 7.725C47.3968 7.89167 47.4635 8.05833 47.5302 8.225V8.25C47.5635 8.36667 47.5885 8.49167 47.6052 8.625C47.6385 8.74167 47.6885 8.86667 47.7552 9C47.8052 9.11667 47.8468 9.24167 47.8802 9.375C47.9135 9.49167 47.9468 9.61667 47.9802 9.75C48.0135 9.9 48.0468 10.05 48.0802 10.2C48.1302 10.35 48.1635 10.5 48.1802 10.65C48.1968 10.7167 48.2135 10.7833 48.2302 10.85C48.2468 10.9 48.2635 10.9583 48.2802 11.025C48.3135 11.175 48.3468 11.325 48.3802 11.475C48.4135 11.625 48.4385 11.775 48.4552 11.925L48.5302 12.1C48.5635 12.2 48.5968 12.3333 48.6302 12.5C48.6802 12.7167 48.7052 12.9333 48.7052 13.15C48.7218 13.3667 48.7218 13.5917 48.7052 13.825C48.7052 13.9417 48.6968 14.0333 48.6802 14.1C48.5802 14.45 48.4552 14.8083 48.3052 15.175C48.2385 15.2917 48.1718 15.4083 48.1052 15.525C48.0385 15.625 47.9718 15.7333 47.9052 15.85L47.6802 16.2C47.5968 16.35 47.5052 16.4833 47.4052 16.6C47.2385 16.8667 47.0385 17.1 46.8052 17.3C46.5718 17.5 46.3218 17.6917 46.0552 17.875C45.4718 18.325 44.7885 18.5333 44.0052 18.5ZM43.9052 16.025C44.2552 16.025 44.5552 15.925 44.8052 15.725C44.8885 15.6417 44.9718 15.5667 45.0552 15.5C45.1552 15.4167 45.2385 15.3333 45.3052 15.25C45.6218 14.9 45.8718 14.5333 46.0552 14.15L46.1302 13.9C46.1635 13.6 46.1635 13.3 46.1302 13L45.9802 12.175C45.9302 11.9583 45.8885 11.75 45.8552 11.55C45.8218 11.3333 45.7718 11.125 45.7052 10.925C45.6552 10.8083 45.6385 10.7167 45.6552 10.65C45.6718 10.5667 45.6718 10.4833 45.6552 10.4C45.6385 10.3167 45.6135 10.2333 45.5802 10.15C45.5302 9.93333 45.4718 9.71667 45.4052 9.5C45.3385 9.28333 45.2718 9.06667 45.2052 8.85C45.1885 8.8 45.1718 8.75 45.1552 8.7C45.1385 8.65 45.1218 8.6 45.1052 8.55C44.9885 8.31667 44.8635 8.09167 44.7302 7.875C44.5968 7.65833 44.4468 7.45833 44.2802 7.275C44.1968 7.175 44.1052 7.08333 44.0052 7C43.9052 6.9 43.8052 6.80833 43.7052 6.725C43.6885 6.69167 43.6635 6.675 43.6302 6.675C43.6135 6.65833 43.5885 6.64167 43.5552 6.625C43.5052 6.55833 43.4385 6.56667 43.3552 6.65C43.2718 6.73333 43.1802 6.825 43.0802 6.925C42.9968 7.025 42.9135 7.125 42.8302 7.225C42.7468 7.34167 42.6552 7.45833 42.5552 7.575C42.4718 7.69167 42.3885 7.80833 42.3052 7.925C42.1885 8.075 42.0802 8.225 41.9802 8.375C41.8802 8.525 41.7802 8.675 41.6802 8.825C41.3302 9.39167 41.0552 10.0167 40.8552 10.7C40.8218 10.8 40.8052 10.875 40.8052 10.925C40.7885 11.0417 40.7718 11.1583 40.7552 11.275C40.7552 11.3917 40.7552 11.5167 40.7552 11.65V11.85C40.7718 11.9 40.7802 11.95 40.7802 12C40.7802 12.05 40.7885 12.1 40.8052 12.15C40.8052 12.35 40.8552 12.5667 40.9552 12.8C41.0885 13.1333 41.2385 13.4583 41.4052 13.775C41.5718 14.0917 41.7635 14.3917 41.9802 14.675C42.0302 14.7417 42.0802 14.8083 42.1302 14.875C42.1968 14.9417 42.2552 15.0083 42.3052 15.075C42.4552 15.2417 42.6135 15.3917 42.7802 15.525C42.9635 15.6583 43.1468 15.775 43.3302 15.875C43.5302 15.975 43.7218 16.025 43.9052 16.025ZM53.2308 18.5C52.9141 18.5333 52.6558 18.4333 52.4558 18.2C52.3558 18.1 52.2641 17.9917 52.1808 17.875C52.0974 17.7583 52.0308 17.6333 51.9808 17.5C51.8974 17.2667 51.8224 17.0333 51.7558 16.8C51.6891 16.55 51.6308 16.3083 51.5808 16.075C51.5308 15.8917 51.5058 15.7167 51.5058 15.55C51.4891 15.3667 51.4641 15.1917 51.4308 15.025C51.4141 14.8417 51.4058 14.6583 51.4058 14.475C51.4058 14.375 51.4058 14.275 51.4058 14.175C51.4058 14.0583 51.3974 13.95 51.3808 13.85C51.3641 13.7833 51.3558 13.725 51.3558 13.675C51.3558 13.625 51.3558 13.5667 51.3558 13.5C51.3558 13.2667 51.3558 13.0333 51.3558 12.8C51.3558 12.55 51.3474 12.3083 51.3308 12.075C51.3308 11.9417 51.3224 11.825 51.3058 11.725C51.2891 11.6083 51.2558 11.4917 51.2058 11.375C51.1391 11.1917 51.1308 10.9917 51.1808 10.775C51.1808 10.725 51.1891 10.6917 51.2058 10.675C51.2391 10.5583 51.2558 10.4417 51.2558 10.325C51.2724 10.2083 51.2724 10.0917 51.2558 9.975C51.2391 9.89167 51.2308 9.80833 51.2308 9.725C51.2308 9.64167 51.2308 9.56667 51.2308 9.5C51.2141 9.31667 51.2058 9.13333 51.2058 8.95C51.2224 8.75 51.2391 8.55833 51.2558 8.375C51.2724 8.325 51.2808 8.275 51.2808 8.225C51.2808 8.175 51.2808 8.125 51.2808 8.075C51.2641 7.89167 51.2641 7.71667 51.2808 7.55C51.3141 7.38333 51.3391 7.21667 51.3558 7.05C51.3891 6.85 51.4224 6.65833 51.4558 6.475C51.4891 6.275 51.5308 6.075 51.5808 5.875C51.6141 5.79167 51.6308 5.7 51.6308 5.6C51.6308 5.5 51.6308 5.4 51.6308 5.3C51.6308 5.21667 51.6224 5.13333 51.6058 5.05C51.6058 4.96667 51.6058 4.89167 51.6058 4.825C51.6058 4.775 51.6058 4.725 51.6058 4.675C51.6058 4.625 51.6141 4.575 51.6308 4.525C51.6474 4.475 51.6558 4.425 51.6558 4.375C51.6558 4.325 51.6641 4.29167 51.6808 4.275C51.7308 4.20833 51.7724 4.15 51.8058 4.1C51.8391 4.03333 51.8891 3.975 51.9558 3.925C52.0391 3.875 52.1141 3.825 52.1808 3.775C52.2641 3.725 52.3391 3.68333 52.4058 3.65C52.4891 3.61667 52.5558 3.575 52.6058 3.525C52.6724 3.44167 52.7391 3.36667 52.8058 3.3C52.8891 3.21667 52.9558 3.125 53.0058 3.025C53.0891 2.94167 53.1724 2.85 53.2558 2.75C53.3558 2.63333 53.4641 2.54167 53.5808 2.475C53.6141 2.45833 53.6641 2.41667 53.7308 2.35C53.9308 2.16667 54.1641 2.05 54.4308 2C54.4808 1.98333 54.5224 1.975 54.5558 1.975C54.6058 1.95833 54.6558 1.95 54.7058 1.95L54.8808 1.875C55.0141 1.825 55.1308 1.85 55.2308 1.95C55.2641 2 55.3058 2.05 55.3558 2.1C55.4224 2.13333 55.4808 2.16667 55.5308 2.2C55.6641 2.31667 55.7891 2.44167 55.9058 2.575C56.0391 2.70833 56.1558 2.85833 56.2558 3.025C56.4224 3.29167 56.5641 3.55833 56.6808 3.825C56.8141 4.09167 56.9391 4.36667 57.0558 4.65L57.5058 5.725C57.5224 5.825 57.5641 5.91667 57.6308 6C57.7641 6.25 57.8641 6.50833 57.9308 6.775C57.9974 7.025 58.0641 7.28333 58.1308 7.55C58.1474 7.58333 58.1558 7.61667 58.1558 7.65C58.1724 7.68333 58.1808 7.71667 58.1808 7.75C58.2141 7.88333 58.2391 8.025 58.2558 8.175C58.2891 8.30833 58.2974 8.44167 58.2808 8.575C58.2974 8.725 58.2891 8.875 58.2558 9.025C58.2391 9.15833 58.2141 9.29167 58.1808 9.425C58.1308 9.59167 58.0724 9.75 58.0058 9.9C57.9391 10.0333 57.8641 10.175 57.7808 10.325C57.7474 10.425 57.6891 10.5167 57.6058 10.6C57.5224 10.6833 57.4391 10.7583 57.3558 10.825C57.2224 10.8917 57.0891 10.9917 56.9558 11.125C56.9224 11.1583 56.8808 11.1833 56.8308 11.2C56.7974 11.2167 56.7641 11.2417 56.7308 11.275C56.6141 11.325 56.4891 11.3833 56.3558 11.45C56.2224 11.5 56.0891 11.55 55.9558 11.6C55.9391 11.6 55.9308 11.6167 55.9308 11.65C55.9308 11.6667 55.9391 11.6833 55.9558 11.7L56.6308 12.175C56.7141 12.225 56.7891 12.275 56.8558 12.325C56.9224 12.3583 56.9891 12.4 57.0558 12.45L57.2058 12.525C57.4058 12.6417 57.6058 12.7667 57.8058 12.9C58.0058 13.0333 58.1974 13.1667 58.3808 13.3C58.7308 13.5167 59.0808 13.7417 59.4308 13.975C59.7808 14.1917 60.1141 14.4333 60.4308 14.7C60.7141 14.9167 60.9641 15.1667 61.1808 15.45C61.2308 15.5 61.2808 15.5583 61.3308 15.625C61.3808 15.675 61.4391 15.7167 61.5058 15.75L61.5808 15.825C61.8474 16.0583 61.9974 16.375 62.0308 16.775C62.0308 16.825 62.0224 16.875 62.0058 16.925C62.0058 16.975 62.0058 17.025 62.0058 17.075C62.0058 17.175 61.9724 17.2583 61.9058 17.325C61.8391 17.3583 61.8058 17.4 61.8058 17.45C61.7558 17.5667 61.6808 17.65 61.5808 17.7C61.4974 17.7333 61.4141 17.7833 61.3308 17.85C61.2974 17.8667 61.2391 17.875 61.1558 17.875C61.0558 17.8583 60.9474 17.8417 60.8308 17.825C60.7308 17.8083 60.6308 17.8 60.5308 17.8C60.3974 17.8 60.2558 17.7417 60.1058 17.625C60.0058 17.5417 59.9141 17.4667 59.8308 17.4C59.7474 17.3167 59.6641 17.2167 59.5808 17.1C59.3641 16.8 59.0808 16.525 58.7308 16.275C58.5641 16.1417 58.4058 16.0167 58.2558 15.9C58.1058 15.7833 57.9391 15.675 57.7558 15.575C57.6391 15.5083 57.5224 15.4417 57.4058 15.375C57.3058 15.2917 57.1891 15.2167 57.0558 15.15C56.6391 14.8667 56.2141 14.5917 55.7808 14.325C55.3474 14.0417 54.9141 13.7583 54.4808 13.475C54.4141 13.425 54.3391 13.375 54.2558 13.325C54.1724 13.275 54.0891 13.225 54.0058 13.175C53.9724 13.1417 53.9224 13.1083 53.8558 13.075C53.7891 13.075 53.7558 13.1 53.7558 13.15C53.7558 13.1667 53.7474 13.1833 53.7308 13.2C53.7308 13.2 53.7308 13.2083 53.7308 13.225C53.7308 13.275 53.7308 13.325 53.7308 13.375C53.7308 13.425 53.7391 13.475 53.7558 13.525C53.7724 13.6583 53.7808 13.7917 53.7808 13.925C53.7808 14.0417 53.7808 14.1667 53.7808 14.3C53.7808 14.4 53.7808 14.5 53.7808 14.6C53.7974 14.6833 53.8141 14.775 53.8308 14.875C53.8308 14.925 53.8308 14.9833 53.8308 15.05C53.8474 15.1 53.8558 15.15 53.8558 15.2C53.8391 15.35 53.8474 15.5 53.8808 15.65C53.9141 15.8 53.9391 15.95 53.9558 16.1L54.1058 16.75C54.1224 16.8167 54.1391 16.8917 54.1558 16.975C54.1724 17.0417 54.1891 17.1167 54.2058 17.2C54.2224 17.2667 54.2224 17.3333 54.2058 17.4C54.2058 17.45 54.1974 17.5083 54.1808 17.575C54.1808 17.5917 54.1641 17.6167 54.1308 17.65C54.0474 17.6667 53.9891 17.725 53.9558 17.825C53.9058 17.9417 53.8308 18.0417 53.7308 18.125C53.6474 18.225 53.5558 18.3167 53.4558 18.4C53.4391 18.4167 53.4058 18.4333 53.3558 18.45C53.3058 18.4667 53.2641 18.4833 53.2308 18.5ZM54.2058 9.75H54.2558C54.4391 9.71667 54.6224 9.68333 54.8058 9.65C55.0058 9.6 55.1974 9.54167 55.3808 9.475C55.5641 9.425 55.7224 9.33333 55.8558 9.2C55.9724 9.08333 56.0308 8.95 56.0308 8.8C56.0474 8.68333 56.0474 8.575 56.0308 8.475C56.0308 8.35833 56.0141 8.24167 55.9808 8.125C55.9141 7.825 55.8391 7.53333 55.7558 7.25C55.6724 6.95 55.5724 6.66667 55.4558 6.4L55.2308 5.8C55.1808 5.63333 55.1224 5.475 55.0558 5.325C54.9891 5.15833 54.9141 5 54.8308 4.85C54.8141 4.81667 54.7974 4.78333 54.7808 4.75C54.7641 4.7 54.7474 4.65833 54.7308 4.625L54.6308 4.525C54.5808 4.45833 54.5224 4.45833 54.4558 4.525C54.4391 4.525 54.4141 4.54167 54.3808 4.575C54.2641 4.725 54.1558 4.88333 54.0558 5.05C53.9724 5.21667 53.9224 5.4 53.9058 5.6C53.8891 5.66667 53.8724 5.73333 53.8558 5.8C53.8558 5.86667 53.8558 5.94167 53.8558 6.025V7.1C53.8391 7.33333 53.8308 7.575 53.8308 7.825C53.8474 8.075 53.8391 8.31667 53.8058 8.55C53.7891 8.6 53.7808 8.65 53.7808 8.7C53.7974 8.75 53.8058 8.8 53.8058 8.85C53.8224 8.95 53.8308 9.05 53.8308 9.15C53.8308 9.23333 53.8308 9.325 53.8308 9.425C53.8308 9.59167 53.8474 9.69167 53.8808 9.725C53.9308 9.75833 54.0391 9.76667 54.2058 9.75ZM69.1517 18.5C68.985 18.4833 68.8183 18.4583 68.6517 18.425C68.5017 18.4083 68.3517 18.3667 68.2017 18.3L67.5767 18.075C67.36 17.9917 67.16 17.9 66.9767 17.8C66.7933 17.6833 66.61 17.5667 66.4267 17.45C66.3433 17.3667 66.26 17.2917 66.1767 17.225C66.0933 17.1417 66.01 17.0667 65.9267 17C65.7933 16.8667 65.66 16.7333 65.5267 16.6C65.3933 16.45 65.2683 16.2917 65.1517 16.125L64.5517 15.2C64.4017 14.9667 64.2683 14.725 64.1517 14.475C64.035 14.2083 63.935 13.9417 63.8517 13.675C63.6683 13.175 63.5767 12.6833 63.5767 12.2V11.8C63.5767 11.3833 63.6017 10.975 63.6517 10.575C63.685 10.2417 63.76 9.94167 63.8767 9.675C63.9433 9.50833 64.0017 9.34167 64.0517 9.175C64.1017 9.00833 64.16 8.85 64.2267 8.7L64.3017 8.525C64.335 8.30833 64.41 8.11667 64.5267 7.95C64.6433 7.76667 64.7433 7.59167 64.8267 7.425C64.8933 7.29167 64.9683 7.175 65.0517 7.075C65.135 6.95833 65.21 6.84167 65.2767 6.725C65.31 6.675 65.3517 6.63333 65.4017 6.6C65.4517 6.55 65.4933 6.5 65.5267 6.45C65.56 6.41667 65.585 6.375 65.6017 6.325C65.635 6.25833 65.66 6.2 65.6767 6.15C65.71 6.1 65.7683 6.03333 65.8517 5.95C65.9517 5.9 66.0433 5.78333 66.1267 5.6C66.16 5.53333 66.1933 5.48333 66.2267 5.45C66.3267 5.36667 66.41 5.26667 66.4767 5.15C66.56 5.03333 66.6517 4.925 66.7517 4.825C66.8183 4.75833 66.8517 4.66667 66.8517 4.55C66.8517 4.46667 66.8517 4.39167 66.8517 4.325C66.8683 4.24167 66.8683 4.16667 66.8517 4.1C66.835 4.01667 66.86 3.94167 66.9267 3.875C66.96 3.84167 66.985 3.8 67.0017 3.75C67.0183 3.7 67.035 3.65 67.0517 3.6C67.1017 3.43333 67.235 3.29167 67.4517 3.175C67.485 3.14167 67.5267 3.125 67.5767 3.125C67.6433 3.10833 67.7017 3.09167 67.7517 3.075C67.8683 3.025 68.0017 3.01667 68.1517 3.05C68.2183 3.06667 68.2767 3.075 68.3267 3.075C68.3767 3.05833 68.4267 3.04167 68.4767 3.025C68.5433 2.99167 68.6017 2.96667 68.6517 2.95C68.7183 2.93333 68.7767 2.91667 68.8267 2.9C69.06 2.81667 69.3017 2.825 69.5517 2.925C69.8183 3.025 70.01 3.2 70.1267 3.45C70.16 3.53333 70.1933 3.61667 70.2267 3.7C70.26 3.78333 70.285 3.86667 70.3017 3.95C70.335 4.13333 70.3267 4.29167 70.2767 4.425C70.2433 4.49167 70.2267 4.53333 70.2267 4.55C70.21 4.61667 70.2267 4.675 70.2767 4.725C70.31 4.775 70.3517 4.81667 70.4017 4.85C70.585 5.01667 70.76 5.18333 70.9267 5.35C71.0933 5.5 71.2517 5.66667 71.4017 5.85C71.535 5.98333 71.6433 6.125 71.7267 6.275C71.8267 6.40833 71.9183 6.55833 72.0017 6.725C72.035 6.80833 72.0767 6.9 72.1267 7C72.1767 7.08333 72.2267 7.16667 72.2767 7.25C72.36 7.4 72.4267 7.55833 72.4767 7.725C72.5433 7.89167 72.61 8.05833 72.6767 8.225V8.25C72.71 8.36667 72.735 8.49167 72.7517 8.625C72.785 8.74167 72.835 8.86667 72.9017 9C72.9517 9.11667 72.9933 9.24167 73.0267 9.375C73.06 9.49167 73.0933 9.61667 73.1267 9.75C73.16 9.9 73.1933 10.05 73.2267 10.2C73.2767 10.35 73.31 10.5 73.3267 10.65C73.3433 10.7167 73.36 10.7833 73.3767 10.85C73.3933 10.9 73.41 10.9583 73.4267 11.025C73.46 11.175 73.4933 11.325 73.5267 11.475C73.56 11.625 73.585 11.775 73.6017 11.925L73.6767 12.1C73.71 12.2 73.7433 12.3333 73.7767 12.5C73.8267 12.7167 73.8517 12.9333 73.8517 13.15C73.8683 13.3667 73.8683 13.5917 73.8517 13.825C73.8517 13.9417 73.8433 14.0333 73.8267 14.1C73.7267 14.45 73.6017 14.8083 73.4517 15.175C73.385 15.2917 73.3183 15.4083 73.2517 15.525C73.185 15.625 73.1183 15.7333 73.0517 15.85L72.8267 16.2C72.7433 16.35 72.6517 16.4833 72.5517 16.6C72.385 16.8667 72.185 17.1 71.9517 17.3C71.7183 17.5 71.4683 17.6917 71.2017 17.875C70.6183 18.325 69.935 18.5333 69.1517 18.5ZM69.0517 16.025C69.4017 16.025 69.7017 15.925 69.9517 15.725C70.035 15.6417 70.1183 15.5667 70.2017 15.5C70.3017 15.4167 70.385 15.3333 70.4517 15.25C70.7683 14.9 71.0183 14.5333 71.2017 14.15L71.2767 13.9C71.31 13.6 71.31 13.3 71.2767 13L71.1267 12.175C71.0767 11.9583 71.035 11.75 71.0017 11.55C70.9683 11.3333 70.9183 11.125 70.8517 10.925C70.8017 10.8083 70.785 10.7167 70.8017 10.65C70.8183 10.5667 70.8183 10.4833 70.8017 10.4C70.785 10.3167 70.76 10.2333 70.7267 10.15C70.6767 9.93333 70.6183 9.71667 70.5517 9.5C70.485 9.28333 70.4183 9.06667 70.3517 8.85C70.335 8.8 70.3183 8.75 70.3017 8.7C70.285 8.65 70.2683 8.6 70.2517 8.55C70.135 8.31667 70.01 8.09167 69.8767 7.875C69.7433 7.65833 69.5933 7.45833 69.4267 7.275C69.3433 7.175 69.2517 7.08333 69.1517 7C69.0517 6.9 68.9517 6.80833 68.8517 6.725C68.835 6.69167 68.81 6.675 68.7767 6.675C68.76 6.65833 68.735 6.64167 68.7017 6.625C68.6517 6.55833 68.585 6.56667 68.5017 6.65C68.4183 6.73333 68.3267 6.825 68.2267 6.925C68.1433 7.025 68.06 7.125 67.9767 7.225C67.8933 7.34167 67.8017 7.45833 67.7017 7.575C67.6183 7.69167 67.535 7.80833 67.4517 7.925C67.335 8.075 67.2267 8.225 67.1267 8.375C67.0267 8.525 66.9267 8.675 66.8267 8.825C66.4767 9.39167 66.2017 10.0167 66.0017 10.7C65.9683 10.8 65.9517 10.875 65.9517 10.925C65.935 11.0417 65.9183 11.1583 65.9017 11.275C65.9017 11.3917 65.9017 11.5167 65.9017 11.65V11.85C65.9183 11.9 65.9267 11.95 65.9267 12C65.9267 12.05 65.935 12.1 65.9517 12.15C65.9517 12.35 66.0017 12.5667 66.1017 12.8C66.235 13.1333 66.385 13.4583 66.5517 13.775C66.7183 14.0917 66.91 14.3917 67.1267 14.675C67.1767 14.7417 67.2267 14.8083 67.2767 14.875C67.3433 14.9417 67.4017 15.0083 67.4517 15.075C67.6017 15.2417 67.76 15.3917 67.9267 15.525C68.11 15.6583 68.2933 15.775 68.4767 15.875C68.6767 15.975 68.8683 16.025 69.0517 16.025ZM79.7042 19.225L79.2792 19.15C79.0625 19.1167 78.8375 19.0833 78.6042 19.05C78.3875 19.0167 78.1625 18.9917 77.9292 18.975C77.6959 18.975 77.4625 18.9083 77.2292 18.775C77.0125 18.6583 76.8625 18.475 76.7792 18.225C76.7625 18.1417 76.7375 18.0583 76.7042 17.975C76.6875 17.8917 76.6709 17.8083 76.6542 17.725C76.6542 17.525 76.6959 17.375 76.7792 17.275C76.8625 17.1917 76.9292 17.1083 76.9792 17.025C77.0459 16.9417 77.1125 16.8667 77.1792 16.8C77.2125 16.7667 77.2459 16.7417 77.2792 16.725C77.3125 16.7083 77.3459 16.6917 77.3792 16.675C77.4625 16.625 77.5459 16.5917 77.6292 16.575C77.7125 16.5417 77.7959 16.5167 77.8792 16.5C77.9125 16.4833 77.9375 16.4833 77.9542 16.5C77.9875 16.5 78.0125 16.5 78.0292 16.5C78.1125 16.5167 78.2042 16.5333 78.3042 16.55C78.4042 16.55 78.4959 16.5667 78.5792 16.6L79.6292 16.75C79.8625 16.7833 80.0709 16.75 80.2542 16.65C80.3209 16.6167 80.3792 16.5833 80.4292 16.55C80.4959 16.5167 80.5542 16.4833 80.6042 16.45C80.9709 16.2333 81.2875 16.0083 81.5542 15.775C81.7542 15.5917 81.9459 15.4083 82.1292 15.225C82.3125 15.0417 82.4792 14.8417 82.6292 14.625C82.7459 14.475 82.8209 14.325 82.8542 14.175C82.8875 14.0083 82.8959 13.8417 82.8792 13.675L82.8042 13.475C82.7875 13.3917 82.7542 13.325 82.7042 13.275C82.6542 13.225 82.6042 13.1667 82.5542 13.1C82.4542 13.0167 82.3542 12.925 82.2542 12.825C82.1709 12.725 82.0792 12.6417 81.9792 12.575C81.7292 12.375 81.4792 12.1833 81.2292 12C80.9959 11.8167 80.7542 11.6333 80.5042 11.45C80.4875 11.4167 80.4375 11.3833 80.3542 11.35C80.2042 11.25 80.0542 11.1417 79.9042 11.025C79.7709 10.8917 79.6375 10.7667 79.5042 10.65C79.3375 10.4833 79.1542 10.325 78.9542 10.175C78.8542 10.125 78.7625 10.0417 78.6792 9.925C78.6125 9.84167 78.5125 9.75833 78.3792 9.675C78.2625 9.60833 78.1542 9.53333 78.0542 9.45C77.9542 9.35 77.8542 9.25833 77.7542 9.175L77.4292 8.875C77.3625 8.79167 77.2875 8.71667 77.2042 8.65C77.1375 8.56667 77.0625 8.48333 76.9792 8.4C76.9459 8.31667 76.8959 8.25 76.8292 8.2C76.7792 8.15 76.7292 8.09167 76.6792 8.025C76.6625 7.99167 76.6375 7.95833 76.6042 7.925C76.5709 7.875 76.5459 7.825 76.5292 7.775C76.4292 7.575 76.3209 7.375 76.2042 7.175C76.1042 6.975 76.0125 6.76667 75.9292 6.55C75.8792 6.41667 75.8292 6.29167 75.7792 6.175C75.7459 6.04167 75.7125 5.91667 75.6792 5.8C75.6625 5.66667 75.6292 5.55 75.5792 5.45C75.5459 5.33333 75.5125 5.21667 75.4792 5.1C75.4459 4.91667 75.4042 4.74167 75.3542 4.575C75.3209 4.39167 75.2875 4.21667 75.2542 4.05L75.2042 3.85C75.1875 3.66667 75.1875 3.49167 75.2042 3.325C75.2375 3.09167 75.2875 2.88333 75.3542 2.7C75.4209 2.5 75.5292 2.34167 75.6792 2.225C75.8459 2.09167 76.0125 1.95833 76.1792 1.825C76.3459 1.69167 76.5209 1.58333 76.7042 1.5C76.7375 1.5 76.7625 1.49167 76.7792 1.475C76.9459 1.34167 77.1292 1.25 77.3292 1.2C77.5292 1.13333 77.7292 1.075 77.9292 1.025C78.7292 0.791666 79.5542 0.616666 80.4042 0.499999H80.6542C80.8209 0.499999 80.9792 0.499999 81.1292 0.499999C81.2792 0.499999 81.4375 0.491666 81.6042 0.474999C81.8042 0.474999 82.0042 0.499999 82.2042 0.55C82.4042 0.583333 82.5959 0.641666 82.7792 0.724999C82.9125 0.791666 83.0459 0.866666 83.1792 0.949999C83.3125 1.01667 83.4375 1.09167 83.5542 1.175C83.6875 1.275 83.7709 1.38333 83.8042 1.5L83.8792 1.675C83.9625 1.825 84.0042 1.98333 84.0042 2.15C84.0209 2.3 84.0125 2.45833 83.9792 2.625C83.9792 2.675 83.9709 2.73333 83.9542 2.8C83.9542 2.85 83.9542 2.9 83.9542 2.95C83.9042 3.31667 83.7292 3.6 83.4292 3.8C83.2459 3.96667 83.0042 4.03333 82.7042 4C82.6375 3.96667 82.6042 3.98333 82.6042 4.05C82.6042 4.11667 82.5625 4.15 82.4792 4.15H82.3292C82.2292 4.15 82.1292 4.1 82.0292 4C81.9459 3.91667 81.9042 3.85 81.9042 3.8C81.9042 3.73333 81.9375 3.68333 82.0042 3.65C81.9709 3.56667 81.9375 3.49167 81.9042 3.425C81.8709 3.35833 81.8375 3.30833 81.8042 3.275C81.7542 3.19167 81.6792 3.13333 81.5792 3.1C81.4959 3.08333 81.4125 3.06667 81.3292 3.05C81.2459 3.03333 81.1625 3.01667 81.0792 3C81.0125 3 80.9375 3 80.8542 3C80.7709 2.98333 80.6875 2.96667 80.6042 2.95C80.5542 2.93333 80.4792 2.94167 80.3792 2.975C80.3292 2.99167 80.2792 3.00833 80.2292 3.025C80.1792 3.025 80.1209 3.01667 80.0542 3C80.0042 3 79.9459 3 79.8792 3C79.8292 3 79.7709 3.01667 79.7042 3.05L79.2292 3.125C78.9625 3.175 78.7042 3.275 78.4542 3.425C78.4042 3.44167 78.3542 3.45833 78.3042 3.475C78.2542 3.49167 78.2042 3.49167 78.1542 3.475C78.0542 3.45833 77.9709 3.48333 77.9042 3.55C77.8875 3.58333 77.8459 3.60833 77.7792 3.625C77.7292 3.625 77.6875 3.64167 77.6542 3.675C77.5875 3.74167 77.5542 3.80833 77.5542 3.875C77.5709 3.90833 77.5792 3.95833 77.5792 4.025L78.1042 5.55C78.2042 5.81667 78.3292 6.06667 78.4792 6.3C78.6459 6.51667 78.8209 6.73333 79.0042 6.95C79.2875 7.28333 79.5792 7.56667 79.8792 7.8L80.6792 8.475C80.8459 8.625 81.0209 8.76667 81.2042 8.9C81.3875 9.03333 81.5625 9.16667 81.7292 9.3C81.9792 9.48333 82.2292 9.675 82.4792 9.875C82.7292 10.0583 82.9792 10.25 83.2292 10.45C83.4292 10.6167 83.6209 10.7833 83.8042 10.95C84.0042 11.1 84.1875 11.2667 84.3542 11.45C84.4709 11.5833 84.5875 11.7167 84.7042 11.85C84.8209 11.9833 84.9209 12.1333 85.0042 12.3C85.1209 12.4833 85.2209 12.7 85.3042 12.95C85.4042 13.2667 85.4459 13.5667 85.4292 13.85C85.4125 13.8833 85.4042 13.9333 85.4042 14C85.4042 14.2 85.3792 14.3917 85.3292 14.575C85.2959 14.7417 85.2375 14.9167 85.1542 15.1C85.0709 15.2667 84.9792 15.4417 84.8792 15.625C84.7959 15.7917 84.6959 15.9583 84.5792 16.125C84.4125 16.3417 84.2375 16.55 84.0542 16.75C83.8875 16.9333 83.6959 17.1167 83.4792 17.3C83.3625 17.4 83.2459 17.5083 83.1292 17.625C83.0125 17.725 82.8875 17.8167 82.7542 17.9C82.6709 17.9667 82.5875 18.025 82.5042 18.075C82.4209 18.1417 82.3375 18.2083 82.2542 18.275C82.1875 18.3083 82.1209 18.35 82.0542 18.4C81.9875 18.45 81.9209 18.5 81.8542 18.55C81.7875 18.6167 81.7042 18.6667 81.6042 18.7C81.5209 18.75 81.4375 18.7917 81.3542 18.825L80.6292 19.125C80.4792 19.175 80.3292 19.2083 80.1792 19.225C80.0292 19.2417 79.8709 19.2417 79.7042 19.225ZM89.5815 18.25C89.4815 18.25 89.4149 18.2417 89.3815 18.225C89.3149 18.1917 89.2565 18.1667 89.2065 18.15C89.1565 18.1333 89.1065 18.1167 89.0565 18.1C89.0065 18.0667 88.9565 18.0333 88.9065 18C88.8732 17.95 88.8399 17.9 88.8065 17.85C88.7732 17.8167 88.7399 17.8 88.7065 17.8C88.6065 17.8 88.5565 17.75 88.5565 17.65C88.5399 17.55 88.5232 17.45 88.5065 17.35C88.4899 17.25 88.4732 17.15 88.4565 17.05C88.4399 16.9 88.4232 16.75 88.4065 16.6C88.4065 16.45 88.3899 16.3083 88.3565 16.175V15.95C88.3565 15.8833 88.3482 15.825 88.3315 15.775C88.3315 15.725 88.3315 15.6667 88.3315 15.6C88.2982 15.5167 88.2982 15.45 88.3315 15.4C88.3649 15.1 88.3649 14.8 88.3315 14.5C88.3149 14.4167 88.3065 14.3333 88.3065 14.25C88.3065 14.1667 88.2982 14.0833 88.2815 14C88.2815 13.8333 88.2815 13.6667 88.2815 13.5C88.2815 13.3167 88.2649 13.1417 88.2315 12.975V12.575C88.2315 12.4417 88.2232 12.3167 88.2065 12.2C88.2065 12.0833 88.1982 11.9667 88.1815 11.85C88.1649 11.7 88.1482 11.55 88.1315 11.4C88.1315 11.25 88.1232 11.1 88.1065 10.95C88.0899 10.9167 88.0815 10.8583 88.0815 10.775C88.0649 10.6917 88.0482 10.6083 88.0315 10.525C88.0315 10.425 88.0315 10.3333 88.0315 10.25L87.9565 9C87.9399 8.86667 87.9232 8.74167 87.9065 8.625C87.9065 8.49167 87.9065 8.36667 87.9065 8.25C87.8899 8.05 87.8732 7.85 87.8565 7.65C87.8399 7.45 87.8232 7.25833 87.8065 7.075C87.8065 7.04167 87.7982 7.00833 87.7815 6.975C87.7815 6.94167 87.7815 6.91667 87.7815 6.9C87.7815 6.7 87.7732 6.5 87.7565 6.3C87.7399 6.1 87.7232 5.89167 87.7065 5.675L87.6315 4.975C87.5815 4.70833 87.5732 4.41667 87.6065 4.1C87.6065 3.95 87.6649 3.825 87.7815 3.725C87.8149 3.69167 87.8399 3.675 87.8565 3.675C87.8732 3.65833 87.8899 3.64167 87.9065 3.625C87.9899 3.60833 88.0315 3.55 88.0315 3.45C88.0315 3.41667 88.0649 3.4 88.1315 3.4H88.2565C88.2732 3.4 88.2815 3.4 88.2815 3.4C88.2982 3.38333 88.3149 3.375 88.3315 3.375C88.3649 3.35833 88.3899 3.34167 88.4065 3.325C88.4399 3.29167 88.4649 3.275 88.4815 3.275C88.5149 3.275 88.5482 3.28333 88.5815 3.3C88.6149 3.3 88.6482 3.30833 88.6815 3.325C88.7149 3.325 88.7399 3.31667 88.7565 3.3C88.8399 3.28333 88.9232 3.29167 89.0065 3.325C89.1065 3.34167 89.1899 3.36667 89.2565 3.4C89.3565 3.41667 89.4315 3.48333 89.4815 3.6C89.5315 3.75 89.5732 3.9 89.6065 4.05C89.6565 4.18333 89.6899 4.325 89.7065 4.475V4.675C89.7399 4.79167 89.7565 4.91667 89.7565 5.05C89.7565 5.16667 89.7565 5.29167 89.7565 5.425C89.7565 5.54167 89.7565 5.65833 89.7565 5.775C89.7732 5.875 89.7899 5.975 89.8065 6.075C89.8065 6.125 89.8065 6.175 89.8065 6.225C89.8065 6.275 89.8149 6.325 89.8315 6.375C89.8315 6.475 89.8315 6.575 89.8315 6.675C89.8482 6.775 89.8649 6.88333 89.8815 7C89.8982 7.18333 89.9149 7.375 89.9315 7.575C89.9482 7.775 89.9565 7.975 89.9565 8.175C89.9565 8.25833 89.9565 8.35 89.9565 8.45C89.9565 8.53333 89.9649 8.61667 89.9815 8.7C89.9982 8.75 90.0065 8.8 90.0065 8.85C90.0065 8.9 90.0065 8.95 90.0065 9V9.5C90.0065 9.6 90.0149 9.68333 90.0315 9.75C90.0649 9.86667 90.0732 9.98333 90.0565 10.1C90.0565 10.2 90.0649 10.3083 90.0815 10.425L90.1565 11.575C90.1732 11.7417 90.1815 11.9167 90.1815 12.1C90.1982 12.2667 90.2065 12.4417 90.2065 12.625C90.2065 12.6917 90.2065 12.7667 90.2065 12.85C90.2065 12.9167 90.2149 12.9833 90.2315 13.05C90.2482 13.1 90.2565 13.15 90.2565 13.2C90.2565 13.25 90.2565 13.3 90.2565 13.35C90.2732 13.3667 90.2732 13.4 90.2565 13.45C90.2565 13.4833 90.2649 13.5167 90.2815 13.55C90.3149 13.6667 90.3315 13.7833 90.3315 13.9C90.3315 14.0167 90.3315 14.1417 90.3315 14.275C90.3315 14.3417 90.3315 14.4167 90.3315 14.5C90.3482 14.5667 90.3565 14.6417 90.3565 14.725C90.3732 14.8083 90.3815 14.9 90.3815 15C90.3815 15.1 90.3815 15.1917 90.3815 15.275C90.3982 15.3583 90.4065 15.45 90.4065 15.55C90.4065 15.6333 90.4149 15.7167 90.4315 15.8C90.4482 15.8333 90.4565 15.8667 90.4565 15.9C90.4565 16.0833 90.4732 16.2667 90.5065 16.45C90.5399 16.6333 90.5732 16.8167 90.6065 17C90.6232 17.05 90.6315 17.1083 90.6315 17.175C90.6315 17.225 90.6315 17.275 90.6315 17.325C90.6315 17.375 90.6149 17.4167 90.5815 17.45C90.5149 17.5 90.4649 17.6 90.4315 17.75C90.4315 17.8 90.4065 17.8417 90.3565 17.875C90.2399 17.925 90.1399 17.9917 90.0565 18.075C89.9232 18.1917 89.7649 18.25 89.5815 18.25ZM96.2188 18.175C96.1188 18.175 96.0522 18.1667 96.0188 18.15C95.9355 18.1167 95.8522 18.1 95.7688 18.1C95.7022 18.1167 95.6272 18.125 95.5438 18.125C95.5272 18.125 95.5105 18.125 95.4938 18.125C95.4772 18.1417 95.4605 18.15 95.4438 18.15C95.3272 18.1667 95.2105 18.175 95.0938 18.175C94.9938 18.175 94.8938 18.1583 94.7938 18.125C94.7772 18.1083 94.7605 18.1 94.7438 18.1C94.6272 18.1167 94.5272 18.0833 94.4438 18C94.3605 17.9167 94.2772 17.8417 94.1938 17.775C94.1105 17.6917 94.0688 17.6 94.0688 17.5L93.9938 17.3C93.9438 17.1833 93.9272 17.075 93.9438 16.975C93.9605 16.9417 93.9605 16.9083 93.9438 16.875C93.9438 16.8417 93.9438 16.8083 93.9438 16.775C93.9272 16.7417 93.9188 16.7083 93.9188 16.675C93.9188 16.625 93.9105 16.5833 93.8938 16.55C93.8605 16.4 93.8355 16.25 93.8188 16.1C93.8188 15.9333 93.8272 15.775 93.8438 15.625C93.8605 15.525 93.9188 15.3583 94.0188 15.125C94.1188 14.875 94.1772 14.725 94.1938 14.675C94.2438 14.5917 94.2688 14.525 94.2688 14.475C94.2522 14.2917 94.2438 14.1083 94.2438 13.925C94.2605 13.725 94.2688 13.5333 94.2688 13.35C94.2688 13.2333 94.2938 13.1417 94.3438 13.075C94.4105 12.9583 94.4188 12.8333 94.3688 12.7L94.2938 12.425C94.1938 12.2417 94.2022 12.0833 94.3188 11.95C94.3188 11.9333 94.3188 11.925 94.3188 11.925C94.3355 11.9083 94.3438 11.8917 94.3438 11.875C94.3772 11.8417 94.3855 11.8 94.3688 11.75C94.3522 11.6833 94.3438 11.6333 94.3438 11.6C94.3438 11.5333 94.3522 11.4667 94.3688 11.4C94.4022 11.3167 94.4105 11.2417 94.3938 11.175C94.3938 11.175 94.3772 11.1583 94.3438 11.125C94.3272 11.0917 94.3188 11.025 94.3188 10.925C94.3355 10.825 94.3438 10.7667 94.3438 10.75V10.05C94.3605 9.96667 94.3688 9.89167 94.3688 9.825C94.3688 9.74167 94.3772 9.65833 94.3938 9.575C94.4105 9.475 94.4105 9.375 94.3938 9.275C94.3938 9.15833 94.3938 9.04167 94.3938 8.925C94.3772 8.84167 94.3605 8.75 94.3438 8.65C94.3438 8.55 94.3438 8.45 94.3438 8.35C94.3272 8.31667 94.3188 8.275 94.3188 8.225C94.3188 8.175 94.3188 8.13333 94.3188 8.1C94.3022 8.01667 94.2855 7.93333 94.2688 7.85C94.2688 7.76667 94.2688 7.68333 94.2688 7.6C94.2688 7.56667 94.2355 7.45833 94.1688 7.275C94.1022 7.075 94.0772 6.90833 94.0938 6.775C94.1105 6.74167 94.1188 6.7 94.1188 6.65C94.1188 6.6 94.1022 6.55833 94.0688 6.525C94.0355 6.50833 94.0188 6.475 94.0188 6.425V6.35C94.0688 6.15 94.0438 5.95 93.9438 5.75C93.8772 5.65 93.8522 5.55 93.8688 5.45C93.8688 5.31667 93.8105 5.21667 93.6938 5.15C93.6105 5.06667 93.5355 4.96667 93.4688 4.85C93.4022 4.73333 93.3605 4.61667 93.3438 4.5C93.3272 4.41667 93.3188 4.33333 93.3188 4.25C93.3188 4.16667 93.3188 4.09167 93.3188 4.025C93.3188 3.95833 93.3272 3.91667 93.3438 3.9C93.4105 3.83333 93.4438 3.75833 93.4438 3.675C93.4438 3.575 93.4522 3.5 93.4688 3.45C93.4855 3.43333 93.5022 3.425 93.5188 3.425C93.5355 3.425 93.5522 3.41667 93.5688 3.4C93.6355 3.38333 93.6688 3.325 93.6688 3.225C93.6355 3.15833 93.6188 3.1 93.6188 3.05C93.6022 2.98333 93.6272 2.925 93.6938 2.875C93.7272 2.80833 93.7688 2.79167 93.8188 2.825C93.9355 2.875 94.0688 2.85833 94.2188 2.775C94.2855 2.74167 94.3272 2.725 94.3438 2.725C94.3938 2.725 94.4188 2.725 94.4188 2.725C94.4355 2.70833 94.4855 2.7 94.5688 2.7C94.6688 2.71667 94.7605 2.68333 94.8438 2.6C94.9605 2.48333 95.1022 2.425 95.2688 2.425H96.8188C97.2022 2.44167 97.5855 2.44167 97.9688 2.425C98.3522 2.40833 98.7272 2.4 99.0938 2.4C99.1772 2.4 99.2438 2.4 99.2938 2.4C99.3605 2.38333 99.4272 2.36667 99.4938 2.35C99.5938 2.3 99.7105 2.275 99.8438 2.275H100.419C100.552 2.275 100.669 2.275 100.769 2.275C100.886 2.25833 101.002 2.24167 101.119 2.225C101.186 2.20833 101.244 2.2 101.294 2.2C101.361 2.2 101.427 2.2 101.494 2.2C101.561 2.2 101.627 2.2 101.694 2.2C101.761 2.2 101.827 2.19167 101.894 2.175C102.027 2.15833 102.169 2.15 102.319 2.15C102.469 2.13333 102.611 2.125 102.744 2.125C102.811 2.125 102.869 2.125 102.919 2.125C102.986 2.10833 103.052 2.09167 103.119 2.075C103.252 2.04167 103.377 2.025 103.494 2.025C103.627 2.00833 103.752 1.99167 103.869 1.975C104.002 1.95833 104.127 1.94167 104.244 1.925C104.377 1.90833 104.502 1.89167 104.619 1.875C104.769 1.875 104.877 1.89167 104.944 1.925C105.044 1.99167 105.136 2.05 105.219 2.1C105.319 2.15 105.411 2.21667 105.494 2.3C105.561 2.36667 105.602 2.425 105.619 2.475C105.636 2.54167 105.652 2.60833 105.669 2.675C105.686 2.74167 105.702 2.81667 105.719 2.9V3.075C105.702 3.15833 105.686 3.25 105.669 3.35C105.669 3.43333 105.661 3.525 105.644 3.625C105.611 3.69167 105.569 3.75 105.519 3.8L105.069 4.25C104.902 4.3 104.736 4.33333 104.569 4.35C104.419 4.36667 104.261 4.36667 104.094 4.35H103.919C103.836 4.36667 103.752 4.375 103.669 4.375C103.586 4.375 103.502 4.36667 103.419 4.35C103.319 4.33333 103.219 4.33333 103.119 4.35C103.019 4.35 102.919 4.35 102.819 4.35C102.752 4.35 102.686 4.35833 102.619 4.375C102.569 4.375 102.511 4.36667 102.444 4.35C102.361 4.33333 102.277 4.33333 102.194 4.35C102.127 4.35 102.052 4.35833 101.969 4.375C101.902 4.375 101.827 4.38333 101.744 4.4C101.677 4.4 101.602 4.4 101.519 4.4C101.302 4.43333 101.069 4.45 100.819 4.45C100.586 4.45 100.352 4.46667 100.119 4.5C99.9688 4.48333 99.8272 4.49167 99.6938 4.525C99.5605 4.54167 99.4188 4.55833 99.2688 4.575C99.1355 4.59167 98.9938 4.6 98.8438 4.6C98.6938 4.6 98.5522 4.61667 98.4188 4.65C98.2522 4.65 98.0855 4.675 97.9188 4.725C97.7688 4.75833 97.6105 4.78333 97.4438 4.8L97.2688 4.825C97.1522 4.825 97.0438 4.84167 96.9438 4.875C96.8438 4.89167 96.7355 4.91667 96.6188 4.95C96.5522 4.96667 96.4855 4.98333 96.4188 5C96.3522 5 96.2772 5.00833 96.1938 5.025C96.1438 5.025 96.0855 5.04167 96.0188 5.075C95.9688 5.09167 95.9438 5.14167 95.9438 5.225L96.0188 5.45C96.0355 5.48333 96.0272 5.56667 95.9938 5.7C95.9772 5.83333 95.9605 5.93333 95.9438 6C95.9438 6.05 95.9522 6.1 95.9688 6.15C95.9855 6.2 96.0022 6.25 96.0188 6.3C96.0688 6.43333 96.0938 6.58333 96.0938 6.75C96.0938 6.9 96.1105 7.04167 96.1438 7.175C96.1605 7.24167 96.1688 7.31667 96.1688 7.4C96.1688 7.46667 96.1772 7.54167 96.1938 7.625C96.1938 7.65833 96.1938 7.7 96.1938 7.75C96.2105 7.78333 96.2188 7.825 96.2188 7.875C96.2188 7.925 96.2105 7.95833 96.1938 7.975C96.1438 8.04167 96.1188 8.11667 96.1188 8.2C96.1188 8.28333 96.1188 8.36667 96.1188 8.45C96.2022 8.61667 96.2438 8.78333 96.2438 8.95C96.2438 9.11667 96.2438 9.28333 96.2438 9.45C96.2438 9.5 96.2855 9.51667 96.3688 9.5H96.3938C96.4272 9.43333 96.4605 9.38333 96.4938 9.35C96.5438 9.35 96.6022 9.33333 96.6688 9.3C96.7188 9.26667 96.7855 9.25 96.8688 9.25C97.0022 9.26667 97.1272 9.26667 97.2438 9.25C97.3605 9.21667 97.4772 9.18333 97.5938 9.15C98.3772 8.95 99.1105 8.69167 99.7938 8.375C99.9772 8.29167 100.169 8.225 100.369 8.175C100.569 8.10833 100.769 8.06667 100.969 8.05H101.044C101.194 8.03333 101.344 8.01667 101.494 8C101.644 7.98333 101.794 7.975 101.944 7.975C102.144 7.95833 102.336 7.93333 102.519 7.9C102.719 7.86667 102.919 7.84167 103.119 7.825C103.236 7.79167 103.344 7.76667 103.444 7.75C103.544 7.71667 103.652 7.675 103.769 7.625C103.986 7.54167 104.186 7.5 104.369 7.5C104.502 7.51667 104.627 7.55 104.744 7.6C104.861 7.63333 104.977 7.68333 105.094 7.75C105.344 7.91667 105.469 8.16667 105.469 8.5C105.469 8.63333 105.452 8.76667 105.419 8.9C105.402 9.03333 105.394 9.16667 105.394 9.3C105.394 9.33333 105.377 9.36667 105.344 9.4L105.269 9.525C105.252 9.59167 105.236 9.65833 105.219 9.725C105.202 9.79167 105.161 9.84167 105.094 9.875C104.994 9.95833 104.886 10.05 104.769 10.15C104.669 10.2333 104.552 10.2917 104.419 10.325C104.352 10.3417 104.286 10.3583 104.219 10.375C104.169 10.3917 104.111 10.4 104.044 10.4C103.777 10.4 103.502 10.4167 103.219 10.45C102.952 10.4833 102.677 10.5167 102.394 10.55C102.177 10.5667 101.961 10.5917 101.744 10.625C101.544 10.6583 101.336 10.675 101.119 10.675C100.919 10.675 100.694 10.7167 100.444 10.8C100.277 10.8333 100.102 10.8667 99.9188 10.9C99.7355 10.9333 99.5522 10.9583 99.3688 10.975C99.2355 10.9917 99.0938 11.0167 98.9438 11.05C98.8105 11.0667 98.6772 11.0833 98.5438 11.1L98.1188 11.175C98.0855 11.1917 98.0355 11.2 97.9688 11.2C97.8522 11.2333 97.7355 11.2583 97.6188 11.275C97.5022 11.2917 97.3855 11.3167 97.2688 11.35C97.1522 11.3667 97.0355 11.3917 96.9188 11.425C96.8188 11.4583 96.7105 11.4917 96.5938 11.525C96.5105 11.5417 96.4438 11.575 96.3938 11.625C96.3438 11.6583 96.3022 11.7083 96.2688 11.775C96.2522 11.825 96.2522 11.875 96.2688 11.925C96.2855 11.9917 96.2772 12.0583 96.2438 12.125C96.2605 12.2917 96.2688 12.4583 96.2688 12.625C96.2855 12.7917 96.2855 12.9583 96.2688 13.125C96.3022 13.2583 96.3105 13.3917 96.2938 13.525C96.2938 13.6583 96.2855 13.7917 96.2688 13.925C96.2355 14.125 96.2438 14.2917 96.2938 14.425C96.3438 14.6417 96.3272 14.8667 96.2438 15.1C96.2105 15.2 96.2105 15.2667 96.2438 15.3C96.2772 15.35 96.2772 15.4083 96.2438 15.475V15.625C96.2272 15.7583 96.2855 15.825 96.4188 15.825H96.4688C96.5855 15.825 96.7022 15.8667 96.8188 15.95C96.9022 16.0333 97.0022 16.0583 97.1188 16.025L97.8188 15.95C97.9188 15.9333 98.0188 15.925 98.1188 15.925C98.2188 15.9083 98.3188 15.9 98.4188 15.9C98.4522 15.8833 98.5022 15.8917 98.5688 15.925C98.6522 15.975 98.7272 15.9833 98.7938 15.95C98.8272 15.9167 98.8688 15.8917 98.9188 15.875C98.9855 15.8583 99.0355 15.8333 99.0688 15.8C99.1688 15.7 99.2938 15.6667 99.4438 15.7C99.5772 15.7333 99.6855 15.725 99.7688 15.675C99.9188 15.625 100.061 15.6083 100.194 15.625C100.277 15.6417 100.361 15.6333 100.444 15.6C100.527 15.5667 100.611 15.55 100.694 15.55C100.727 15.55 100.752 15.5583 100.769 15.575C100.786 15.575 100.802 15.5667 100.819 15.55C100.852 15.55 100.886 15.5417 100.919 15.525C100.952 15.5083 100.977 15.5 100.994 15.5C101.111 15.45 101.219 15.4333 101.319 15.45C101.402 15.45 101.444 15.45 101.444 15.45C101.511 15.4333 101.569 15.4333 101.619 15.45C101.686 15.4667 101.744 15.4917 101.794 15.525C101.877 15.5417 101.944 15.5667 101.994 15.6C102.061 15.6333 102.127 15.6583 102.194 15.675C102.227 15.675 102.252 15.6833 102.269 15.7C102.352 15.7667 102.452 15.825 102.569 15.875C102.702 15.925 102.777 15.9833 102.794 16.05C102.827 16.15 102.844 16.25 102.844 16.35C102.844 16.4333 102.852 16.525 102.869 16.625C102.869 16.675 102.861 16.725 102.844 16.775C102.844 16.825 102.836 16.875 102.819 16.925C102.786 16.9917 102.744 17.0667 102.694 17.15C102.661 17.2333 102.611 17.3083 102.544 17.375C102.511 17.4083 102.477 17.4417 102.444 17.475C102.427 17.5083 102.402 17.5417 102.369 17.575C102.302 17.6417 102.227 17.7 102.144 17.75C102.061 17.8 101.969 17.825 101.869 17.825C101.802 17.825 101.752 17.8333 101.719 17.85C101.652 17.8833 101.586 17.9 101.519 17.9C101.452 17.9 101.377 17.9 101.294 17.9C101.177 17.9167 101.061 17.9333 100.944 17.95C100.844 17.95 100.736 17.9417 100.619 17.925C100.552 17.9083 100.494 17.9083 100.444 17.925C100.277 17.975 100.111 17.9833 99.9438 17.95C99.7772 17.95 99.6105 17.9583 99.4438 17.975C99.2938 17.975 99.1438 17.975 98.9938 17.975H98.6688C98.6188 17.975 98.5772 17.9833 98.5438 18C98.4772 18.0333 98.3938 18.05 98.2938 18.05C98.2105 18.05 98.1272 18.0417 98.0438 18.025H97.7938C97.7772 18.025 97.7522 18.025 97.7188 18.025C97.6855 18.0417 97.6522 18.0417 97.6188 18.025C97.5688 18.0083 97.5188 18 97.4688 18C97.4355 18.0167 97.3938 18.0333 97.3438 18.05C97.3105 18.05 97.2772 18.05 97.2438 18.05C97.2272 18.0667 97.2022 18.075 97.1688 18.075C97.0022 18.0583 96.8438 18.0583 96.6938 18.075C96.5438 18.1083 96.3855 18.1417 96.2188 18.175Z" fill="#353535"/>
</svg>
