<svg width="219" height="32" viewBox="0 0 219 32" fill="none" xmlns="http://www.w3.org/2000/svg">
<path d="M12.9689 31.19C12.7889 31.19 12.6289 31.12 12.4889 30.98C12.4489 30.92 12.4089 30.86 12.3689 30.8C12.3289 30.74 12.2889 30.68 12.2489 30.62C12.0689 30.2 11.9789 29.76 11.9789 29.3L11.8889 28.58C11.8289 28.3 11.7789 28.02 11.7389 27.74C11.6989 27.46 11.6289 27.19 11.5289 26.93L11.3489 26.42C11.3489 26.38 11.3389 26.34 11.3189 26.3C11.3189 26.26 11.3089 26.22 11.2889 26.18L10.8389 24.59C10.8189 24.55 10.7989 24.5 10.7789 24.44C10.7789 24.38 10.7589 24.33 10.7189 24.29C10.6589 24.17 10.6089 24.05 10.5689 23.93C10.5489 23.79 10.5189 23.65 10.4789 23.51C10.4589 23.41 10.4389 23.32 10.4189 23.24C10.3989 23.14 10.3689 23.04 10.3289 22.94C10.2889 22.82 10.2489 22.75 10.2089 22.73C10.1689 22.69 10.0789 22.69 9.93887 22.73C9.83887 22.75 9.72887 22.77 9.60887 22.79C9.50887 22.79 9.40887 22.81 9.30887 22.85C9.22887 22.87 9.12887 22.89 9.00887 22.91C8.90887 22.91 8.80887 22.92 8.70887 22.94L8.28887 23.03C8.18887 23.05 8.07887 23.08 7.95887 23.12C7.85887 23.14 7.75887 23.15 7.65887 23.15L7.11887 23.24C6.95887 23.28 6.78887 23.32 6.60887 23.36C6.42887 23.4 6.25887 23.44 6.09887 23.48C5.61887 23.6 5.13887 23.69 4.65887 23.75C4.49887 23.79 4.40887 23.86 4.38887 23.96C4.36887 23.96 4.35887 23.97 4.35887 23.99C4.23887 24.31 4.09887 24.63 3.93887 24.95C3.79887 25.25 3.64887 25.56 3.48887 25.88C3.44887 25.96 3.40887 26.04 3.36887 26.12C3.34887 26.18 3.31887 26.25 3.27887 26.33C3.25887 26.37 3.23887 26.42 3.21887 26.48C3.19887 26.52 3.17887 26.56 3.15887 26.6C3.03887 26.74 2.97887 26.91 2.97887 27.11C2.95887 27.23 2.91887 27.35 2.85887 27.47C2.79887 27.57 2.73887 27.67 2.67887 27.77C2.65887 27.83 2.61887 27.86 2.55887 27.86C2.47887 27.88 2.39887 27.91 2.31887 27.95C2.23887 27.99 2.14887 28.03 2.04887 28.07C1.98887 28.09 1.92887 28.09 1.86887 28.07C1.82887 28.05 1.77887 28.03 1.71887 28.01C1.67887 27.97 1.63887 27.95 1.59887 27.95C1.37887 27.93 1.21887 27.8 1.11887 27.56C0.958867 27.24 0.848867 26.92 0.788867 26.6C0.768867 26.52 0.768867 26.45 0.788867 26.39C0.828867 26.33 0.858867 26.27 0.878867 26.21C0.998867 26.13 1.06887 26.04 1.08887 25.94V25.91C1.08887 25.65 1.13887 25.41 1.23887 25.19C1.35887 24.95 1.45887 24.72 1.53887 24.5C1.57887 24.38 1.62887 24.26 1.68887 24.14C1.74887 24.02 1.80887 23.9 1.86887 23.78C1.94887 23.64 2.00887 23.51 2.04887 23.39C2.10887 23.25 2.15887 23.11 2.19887 22.97C2.25887 22.81 2.25887 22.66 2.19887 22.52C2.15887 22.4 2.13887 22.29 2.13887 22.19C2.13887 22.07 2.14887 21.95 2.16887 21.83C2.16887 21.61 2.24887 21.42 2.40887 21.26C2.48887 21.16 2.56887 21.08 2.64887 21.02C2.74887 20.94 2.83887 20.86 2.91887 20.78C3.09887 20.6 3.23887 20.36 3.33887 20.06C3.41887 19.8 3.47887 19.54 3.51887 19.28C3.57887 19 3.63887 18.73 3.69887 18.47C3.73887 18.21 3.77887 17.96 3.81887 17.72C3.87887 17.46 3.93887 17.21 3.99887 16.97C4.01887 16.87 4.03887 16.78 4.05887 16.7C4.09887 16.6 4.12887 16.51 4.14887 16.43C4.20887 16.27 4.26887 16.12 4.32887 15.98C4.38887 15.82 4.42887 15.66 4.44887 15.5C4.48887 15.42 4.48887 15.35 4.44887 15.29C4.42887 15.19 4.42887 15.1 4.44887 15.02C4.48887 14.94 4.51887 14.86 4.53887 14.78C4.59887 14.64 4.63887 14.5 4.65887 14.36C4.69887 14.22 4.74887 14.08 4.80887 13.94C4.90887 13.68 4.98887 13.47 5.04887 13.31C5.12887 13.13 5.19887 12.93 5.25887 12.71C5.29887 12.59 5.33887 12.48 5.37887 12.38C5.43887 12.26 5.47887 12.14 5.49887 12.02C5.55887 11.84 5.60887 11.66 5.64887 11.48C5.68887 11.28 5.70887 11.09 5.70887 10.91C5.74887 10.75 5.78887 10.64 5.82887 10.58C5.92887 10.38 6.04887 10.21 6.18887 10.07C6.34887 9.93 6.49887 9.79 6.63887 9.65C6.73887 9.59 6.83887 9.55 6.93887 9.53C7.03887 9.49 7.13887 9.5 7.23887 9.56C7.31887 9.6 7.36887 9.62 7.38887 9.62C7.56887 9.6 7.71887 9.64 7.83887 9.74C7.95887 9.84 8.05887 9.96 8.13887 10.1C8.17887 10.14 8.20887 10.19 8.22887 10.25C8.24887 10.31 8.26887 10.36 8.28887 10.4C8.38887 10.56 8.43887 10.72 8.43887 10.88C8.43887 10.96 8.44887 11.05 8.46887 11.15C8.48887 11.23 8.50887 11.32 8.52887 11.42C8.58887 11.54 8.67887 11.6 8.79887 11.6C8.81887 11.58 8.83887 11.58 8.85887 11.6C8.87887 11.62 8.88887 11.64 8.88887 11.66C8.98887 11.78 9.01887 11.91 8.97887 12.05C8.93887 12.21 8.92887 12.37 8.94887 12.53C8.98887 12.67 9.02887 12.82 9.06887 12.98C9.14887 13.18 9.22887 13.38 9.30887 13.58C9.38887 13.78 9.46887 13.98 9.54887 14.18C9.64887 14.4 9.74887 14.62 9.84887 14.84C9.94887 15.06 10.0389 15.28 10.1189 15.5C10.2189 15.78 10.3189 16.06 10.4189 16.34C10.5389 16.62 10.6689 16.9 10.8089 17.18L10.8989 17.51C10.9189 17.59 10.9389 17.67 10.9589 17.75C10.9989 17.83 11.0289 17.91 11.0489 17.99C11.0889 18.05 11.1189 18.11 11.1389 18.17C11.1789 18.23 11.2189 18.28 11.2589 18.32C11.3589 18.46 11.4189 18.61 11.4389 18.77C11.4989 18.97 11.5889 19.15 11.7089 19.31C11.7489 19.37 11.8089 19.4 11.8889 19.4C12.1889 19.36 12.4889 19.33 12.7889 19.31C13.0889 19.27 13.3889 19.21 13.6889 19.13C13.9089 19.07 14.1189 19.04 14.3189 19.04C14.6989 19.04 15.0489 19.17 15.3689 19.43C15.7489 19.73 15.9489 20.11 15.9689 20.57C15.9689 20.67 15.9789 20.75 15.9989 20.81C15.9989 20.95 15.9589 21.06 15.8789 21.14C15.8589 21.2 15.8189 21.26 15.7589 21.32C15.7189 21.38 15.6789 21.44 15.6389 21.5C15.5989 21.58 15.5589 21.64 15.5189 21.68L15.3389 21.83C15.3189 21.87 15.2889 21.92 15.2489 21.98C15.2089 22.02 15.1589 22.05 15.0989 22.07C15.0189 22.09 14.9389 22.12 14.8589 22.16C14.7789 22.18 14.6889 22.19 14.5889 22.19C14.2289 22.23 13.9089 22.22 13.6289 22.16H13.1489C13.1089 22.16 13.0489 22.18 12.9689 22.22C12.8889 22.26 12.8489 22.31 12.8489 22.37V22.49C12.9089 22.67 12.9489 22.86 12.9689 23.06C13.0089 23.24 13.0689 23.41 13.1489 23.57C13.1489 23.65 13.1689 23.73 13.2089 23.81C13.3089 23.99 13.3889 24.18 13.4489 24.38C13.5089 24.56 13.5589 24.75 13.5989 24.95C13.5989 24.99 13.6189 25.07 13.6589 25.19C13.7189 25.33 13.7689 25.48 13.8089 25.64C13.8489 25.78 13.8789 25.93 13.8989 26.09C13.8989 26.21 13.9289 26.32 13.9889 26.42C14.0689 26.6 14.1289 26.78 14.1689 26.96C14.2089 27.14 14.2389 27.33 14.2589 27.53C14.2789 27.55 14.2889 27.59 14.2889 27.65C14.2889 27.69 14.2989 27.73 14.3189 27.77C14.4189 27.99 14.4889 28.23 14.5289 28.49C14.5689 28.73 14.6189 28.97 14.6789 29.21C14.7189 29.33 14.7389 29.45 14.7389 29.57C14.7589 29.71 14.7689 29.85 14.7689 29.99C14.7689 30.09 14.7389 30.2 14.6789 30.32C14.6189 30.38 14.5889 30.41 14.5889 30.41C14.4689 30.43 14.3989 30.5 14.3789 30.62L14.2889 30.8C14.2489 30.88 14.1889 30.93 14.1089 30.95C14.0289 30.95 13.9589 30.98 13.8989 31.04C13.8189 31.12 13.7089 31.16 13.5689 31.16C13.4889 31.16 13.3889 31.16 13.2689 31.16C13.1689 31.16 13.0689 31.17 12.9689 31.19ZM5.73887 20.3C5.85887 20.28 5.97887 20.26 6.09887 20.24C6.23887 20.22 6.38887 20.2 6.54887 20.18C6.64887 20.16 6.77887 20.14 6.93887 20.12C7.09887 20.1 7.24887 20.08 7.38887 20.06C7.52887 20.02 7.66887 20 7.80887 20C7.94887 19.98 8.08887 19.96 8.22887 19.94C8.34887 19.9 8.46887 19.88 8.58887 19.88C8.70887 19.86 8.82887 19.84 8.94887 19.82C9.12887 19.78 9.19887 19.68 9.15887 19.52C9.13887 19.36 9.09887 19.2 9.03887 19.04C8.99887 18.86 8.90887 18.71 8.76887 18.59C8.72887 18.55 8.70887 18.49 8.70887 18.41V18.32C8.66887 18.16 8.61887 18.01 8.55887 17.87C8.51887 17.71 8.46887 17.56 8.40887 17.42C8.36887 17.26 8.31887 17.12 8.25887 17C8.21887 16.86 8.16887 16.72 8.10887 16.58L7.74887 15.5C7.68887 15.36 7.62887 15.22 7.56887 15.08C7.52887 14.94 7.48887 14.8 7.44887 14.66L7.35887 14.54H7.26887L7.20887 14.63C7.10887 14.93 6.98887 15.23 6.84887 15.53C6.72887 15.83 6.61887 16.15 6.51887 16.49C6.51887 16.53 6.50887 16.58 6.48887 16.64C6.46887 16.7 6.44887 16.76 6.42887 16.82C6.34887 17.02 6.26887 17.24 6.18887 17.48C6.12887 17.72 6.07887 17.96 6.03887 18.2C6.01887 18.34 5.99887 18.48 5.97887 18.62C5.95887 18.74 5.92887 18.87 5.88887 19.01L5.61887 20.18C5.59887 20.2 5.60887 20.23 5.64887 20.27C5.68887 20.29 5.71887 20.3 5.73887 20.3ZM21.6719 30.17C21.2319 30.25 20.8419 30.11 20.5019 29.75C20.4419 29.69 20.3819 29.62 20.3219 29.54C20.2819 29.46 20.2319 29.38 20.1719 29.3L20.0819 29.06C19.9219 28.64 19.7819 28.22 19.6619 27.8C19.5619 27.36 19.4819 26.92 19.4219 26.48C19.3619 26.18 19.3319 25.9 19.3319 25.64C19.3119 25.38 19.2819 25.12 19.2419 24.86C19.2219 24.6 19.2119 24.34 19.2119 24.08C19.2119 23.96 19.2119 23.84 19.2119 23.72C19.2119 23.58 19.1919 23.44 19.1519 23.3V23.24C19.1319 23.02 19.1119 22.8 19.0919 22.58C19.0919 22.34 19.0719 22.11 19.0319 21.89L18.9419 20.51C18.9219 20.31 18.9019 20.12 18.8819 19.94C18.8619 19.76 18.8319 19.57 18.7919 19.37C18.7919 19.29 18.7819 19.22 18.7619 19.16C18.7619 19.08 18.7619 19 18.7619 18.92C18.7619 18.76 18.7619 18.6 18.7619 18.44C18.7619 18.28 18.7519 18.13 18.7319 17.99C18.7119 17.91 18.7019 17.8 18.7019 17.66V16.7C18.7219 16.42 18.7119 16.14 18.6719 15.86C18.6319 15.58 18.5919 15.31 18.5519 15.05L18.2819 13.43C18.2619 13.39 18.2519 13.34 18.2519 13.28C18.2519 13.22 18.2519 13.17 18.2519 13.13C18.2519 13.09 18.2519 13.04 18.2519 12.98C18.2519 12.92 18.2419 12.87 18.2219 12.83C18.1619 12.61 18.1519 12.41 18.1919 12.23C18.2319 12.03 18.2819 11.83 18.3419 11.63C18.3619 11.61 18.3919 11.56 18.4319 11.48C18.5319 11.38 18.6219 11.29 18.7019 11.21C18.7819 11.11 18.8819 11.03 19.0019 10.97C19.1219 10.93 19.2119 10.84 19.2719 10.7L19.3619 10.49C19.5619 10.13 19.8719 9.88 20.2919 9.74C20.3119 9.72 20.3319 9.71 20.3519 9.71C20.3919 9.71 20.4219 9.7 20.4419 9.68C20.7019 9.56 20.9719 9.55 21.2519 9.65C21.3519 9.67 21.4519 9.7 21.5519 9.74C21.6519 9.76 21.7419 9.79 21.8219 9.83C21.9619 9.89 22.0919 9.96 22.2119 10.04C22.3319 10.1 22.4619 10.16 22.6019 10.22C22.9619 10.4 23.3219 10.58 23.6819 10.76C24.0419 10.92 24.4019 11.08 24.7619 11.24L25.5419 11.6C25.6619 11.66 25.7819 11.72 25.9019 11.78C26.0219 11.82 26.1419 11.87 26.2619 11.93L26.5019 12.02C26.6219 12.1 26.7419 12.18 26.8619 12.26C26.9819 12.32 27.1119 12.39 27.2519 12.47C27.4519 12.57 27.6419 12.7 27.8219 12.86C28.0019 13.02 28.1619 13.18 28.3019 13.34C28.4219 13.46 28.4919 13.57 28.5119 13.67C28.5719 13.83 28.6319 14 28.6919 14.18C28.7519 14.34 28.7919 14.5 28.8119 14.66C28.8519 14.74 28.8519 14.83 28.8119 14.93C28.7519 15.07 28.6919 15.22 28.6319 15.38C28.5919 15.52 28.5519 15.67 28.5119 15.83C28.3719 16.21 28.1519 16.55 27.8519 16.85C27.5919 17.11 27.3419 17.32 27.1019 17.48C27.0019 17.54 26.9019 17.61 26.8019 17.69C26.7019 17.75 26.6019 17.81 26.5019 17.87C26.2819 18.01 26.0519 18.14 25.8119 18.26C25.5719 18.38 25.3219 18.48 25.0619 18.56C25.0019 18.56 24.9519 18.58 24.9119 18.62C24.7119 18.7 24.5219 18.78 24.3419 18.86C24.1619 18.94 23.9819 19.03 23.8019 19.13C23.6219 19.23 23.5019 19.37 23.4419 19.55C23.4419 19.57 23.4319 19.59 23.4119 19.61C23.4119 19.61 23.4119 19.63 23.4119 19.67C23.3919 19.83 23.3219 19.97 23.2019 20.09C23.1019 20.21 23.0019 20.34 22.9019 20.48C22.9019 20.5 22.8919 20.51 22.8719 20.51C22.8519 20.51 22.8319 20.52 22.8119 20.54L22.4519 20.72C22.3519 20.76 22.3019 20.85 22.3019 20.99C22.3019 21.07 22.3019 21.16 22.3019 21.26C22.3019 21.34 22.3119 21.42 22.3319 21.5L22.4519 22.16C22.4519 22.24 22.4519 22.32 22.4519 22.4C22.4719 22.46 22.4719 22.54 22.4519 22.64C22.4519 22.8 22.4519 22.97 22.4519 23.15C22.4719 23.33 22.4919 23.5 22.5119 23.66C22.5319 23.74 22.5419 23.82 22.5419 23.9C22.5419 23.96 22.5419 24.03 22.5419 24.11C22.5419 24.21 22.5419 24.32 22.5419 24.44C22.5619 24.54 22.5819 24.64 22.6019 24.74C22.6019 24.76 22.6019 24.79 22.6019 24.83C22.6219 24.85 22.6319 24.88 22.6319 24.92C22.6119 25.16 22.6119 25.41 22.6319 25.67C22.6719 25.91 22.7019 26.15 22.7219 26.39V26.51C22.7019 26.67 22.6919 26.84 22.6919 27.02C22.7119 27.18 22.7219 27.35 22.7219 27.53C22.7219 27.79 22.7619 28.01 22.8419 28.19C22.9019 28.31 22.9219 28.43 22.9019 28.55C22.8819 28.67 22.8519 28.79 22.8119 28.91C22.7919 28.97 22.7619 29.03 22.7219 29.09C22.7019 29.17 22.6719 29.24 22.6319 29.3C22.4719 29.62 22.2619 29.87 22.0019 30.05C21.8819 30.13 21.7719 30.17 21.6719 30.17ZM22.0319 17.06L22.2119 16.97C22.5519 16.75 22.8919 16.55 23.2319 16.37C23.5919 16.19 23.9519 16.01 24.3119 15.83L24.8819 15.53C25.0019 15.45 25.1119 15.38 25.2119 15.32C25.3319 15.26 25.4419 15.19 25.5419 15.11C25.5619 15.09 25.5919 15.04 25.6319 14.96C25.6519 14.96 25.6619 14.95 25.6619 14.93C25.6619 14.91 25.6519 14.9 25.6319 14.9C25.5719 14.84 25.5419 14.81 25.5419 14.81C25.4419 14.75 25.3319 14.69 25.2119 14.63C25.0919 14.55 24.9719 14.48 24.8519 14.42C24.7519 14.38 24.6419 14.33 24.5219 14.27C24.4019 14.21 24.2819 14.15 24.1619 14.09C23.6819 13.87 23.2119 13.65 22.7519 13.43C22.6119 13.37 22.4719 13.32 22.3319 13.28C22.2119 13.22 22.0819 13.16 21.9419 13.1C21.9419 13.1 21.9019 13.08 21.8219 13.04C21.7419 13.04 21.7019 13.07 21.7019 13.13C21.6819 13.21 21.6619 13.29 21.6419 13.37C21.6219 13.43 21.6019 13.5 21.5819 13.58V14.57C21.5819 14.75 21.5819 14.93 21.5819 15.11C21.6019 15.29 21.6319 15.46 21.6719 15.62C21.6719 15.76 21.6819 15.91 21.7019 16.07C21.7219 16.21 21.7419 16.36 21.7619 16.52L21.8519 17C21.8919 17.08 21.9519 17.1 22.0319 17.06ZM34.2689 29.21C34.1489 29.21 34.0689 29.2 34.0289 29.18C33.9289 29.14 33.8289 29.12 33.7289 29.12C33.6489 29.14 33.5589 29.15 33.4589 29.15C33.4389 29.15 33.4189 29.15 33.3989 29.15C33.3789 29.17 33.3589 29.18 33.3389 29.18C33.1989 29.2 33.0589 29.21 32.9189 29.21C32.7989 29.21 32.6789 29.19 32.5589 29.15C32.5389 29.13 32.5189 29.12 32.4989 29.12C32.3589 29.14 32.2389 29.1 32.1389 29C32.0389 28.9 31.9389 28.81 31.8389 28.73C31.7389 28.63 31.6889 28.52 31.6889 28.4L31.5989 28.16C31.5389 28.02 31.5189 27.89 31.5389 27.77C31.5589 27.73 31.5589 27.69 31.5389 27.65C31.5389 27.61 31.5389 27.57 31.5389 27.53C31.5189 27.49 31.5089 27.45 31.5089 27.41C31.5089 27.35 31.4989 27.3 31.4789 27.26C31.4389 27.08 31.4089 26.9 31.3889 26.72C31.3889 26.52 31.3989 26.33 31.4189 26.15C31.4389 26.03 31.5089 25.83 31.6289 25.55C31.7489 25.25 31.8189 25.07 31.8389 25.01C31.8989 24.91 31.9289 24.83 31.9289 24.77C31.9089 24.55 31.8989 24.33 31.8989 24.11C31.9189 23.87 31.9289 23.64 31.9289 23.42C31.9289 23.28 31.9589 23.17 32.0189 23.09C32.0989 22.95 32.1089 22.8 32.0489 22.64L31.9589 22.31C31.8389 22.09 31.8489 21.9 31.9889 21.74C31.9889 21.72 31.9889 21.71 31.9889 21.71C32.0089 21.69 32.0189 21.67 32.0189 21.65C32.0589 21.61 32.0689 21.56 32.0489 21.5C32.0289 21.42 32.0189 21.36 32.0189 21.32C32.0189 21.24 32.0289 21.16 32.0489 21.08C32.0889 20.98 32.0989 20.89 32.0789 20.81C32.0789 20.81 32.0589 20.79 32.0189 20.75C31.9989 20.71 31.9889 20.63 31.9889 20.51C32.0089 20.39 32.0189 20.32 32.0189 20.3V19.46C32.0389 19.36 32.0489 19.27 32.0489 19.19C32.0489 19.09 32.0589 18.99 32.0789 18.89C32.0989 18.77 32.0989 18.65 32.0789 18.53C32.0789 18.39 32.0789 18.25 32.0789 18.11C32.0589 18.01 32.0389 17.9 32.0189 17.78C32.0189 17.66 32.0189 17.54 32.0189 17.42C31.9989 17.38 31.9889 17.33 31.9889 17.27C31.9889 17.21 31.9889 17.16 31.9889 17.12C31.9689 17.02 31.9489 16.92 31.9289 16.82C31.9289 16.72 31.9289 16.62 31.9289 16.52C31.9289 16.48 31.8889 16.35 31.8089 16.13C31.7289 15.89 31.6989 15.69 31.7189 15.53C31.7389 15.49 31.7489 15.44 31.7489 15.38C31.7489 15.32 31.7289 15.27 31.6889 15.23C31.6489 15.21 31.6289 15.17 31.6289 15.11V15.02C31.6889 14.78 31.6589 14.54 31.5389 14.3C31.4589 14.18 31.4289 14.06 31.4489 13.94C31.4489 13.78 31.3789 13.66 31.2389 13.58C31.1389 13.48 31.0489 13.36 30.9689 13.22C30.8889 13.08 30.8389 12.94 30.8189 12.8C30.7989 12.7 30.7889 12.6 30.7889 12.5C30.7889 12.4 30.7889 12.31 30.7889 12.23C30.7889 12.15 30.7989 12.1 30.8189 12.08C30.8989 12 30.9389 11.91 30.9389 11.81C30.9389 11.69 30.9489 11.6 30.9689 11.54C30.9889 11.52 31.0089 11.51 31.0289 11.51C31.0489 11.51 31.0689 11.5 31.0889 11.48C31.1689 11.46 31.2089 11.39 31.2089 11.27C31.1689 11.19 31.1489 11.12 31.1489 11.06C31.1289 10.98 31.1589 10.91 31.2389 10.85C31.2789 10.77 31.3289 10.75 31.3889 10.79C31.5289 10.85 31.6889 10.83 31.8689 10.73C31.9489 10.69 31.9989 10.67 32.0189 10.67C32.0789 10.67 32.1089 10.67 32.1089 10.67C32.1289 10.65 32.1889 10.64 32.2889 10.64C32.4089 10.66 32.5189 10.62 32.6189 10.52C32.7589 10.38 32.9289 10.31 33.1289 10.31H34.9889C35.4489 10.33 35.9089 10.33 36.3689 10.31C36.8289 10.29 37.2789 10.28 37.7189 10.28C37.8189 10.28 37.8989 10.28 37.9589 10.28C38.0389 10.26 38.1189 10.24 38.1989 10.22C38.3189 10.16 38.4589 10.13 38.6189 10.13H39.3089C39.4689 10.13 39.6089 10.13 39.7289 10.13C39.8689 10.11 40.0089 10.09 40.1489 10.07C40.2289 10.05 40.2989 10.04 40.3589 10.04C40.4389 10.04 40.5189 10.04 40.5989 10.04C40.6789 10.04 40.7589 10.04 40.8389 10.04C40.9189 10.04 40.9989 10.03 41.0789 10.01C41.2389 9.99 41.4089 9.98 41.5889 9.98C41.7689 9.96 41.9389 9.95 42.0989 9.95C42.1789 9.95 42.2489 9.95 42.3089 9.95C42.3889 9.93 42.4689 9.91 42.5489 9.89C42.7089 9.85 42.8589 9.83 42.9989 9.83C43.1589 9.81 43.3089 9.79 43.4489 9.77C43.6089 9.75 43.7589 9.73 43.8989 9.71C44.0589 9.69 44.2089 9.67 44.3489 9.65C44.5289 9.65 44.6589 9.67 44.7389 9.71C44.8589 9.79 44.9689 9.86 45.0689 9.92C45.1889 9.98 45.2989 10.06 45.3989 10.16C45.4789 10.24 45.5289 10.31 45.5489 10.37C45.5689 10.45 45.5889 10.53 45.6089 10.61C45.6289 10.69 45.6489 10.78 45.6689 10.88V11.09C45.6489 11.19 45.6289 11.3 45.6089 11.42C45.6089 11.52 45.5989 11.63 45.5789 11.75C45.5389 11.83 45.4889 11.9 45.4289 11.96L44.8889 12.5C44.6889 12.56 44.4889 12.6 44.2889 12.62C44.1089 12.64 43.9189 12.64 43.7189 12.62H43.5089C43.4089 12.64 43.3089 12.65 43.2089 12.65C43.1089 12.65 43.0089 12.64 42.9089 12.62C42.7889 12.6 42.6689 12.6 42.5489 12.62C42.4289 12.62 42.3089 12.62 42.1889 12.62C42.1089 12.62 42.0289 12.63 41.9489 12.65C41.8889 12.65 41.8189 12.64 41.7389 12.62C41.6389 12.6 41.5389 12.6 41.4389 12.62C41.3589 12.62 41.2689 12.63 41.1689 12.65C41.0889 12.65 40.9989 12.66 40.8989 12.68C40.8189 12.68 40.7289 12.68 40.6289 12.68C40.3689 12.72 40.0889 12.74 39.7889 12.74C39.5089 12.74 39.2289 12.76 38.9489 12.8C38.7689 12.78 38.5989 12.79 38.4389 12.83C38.2789 12.85 38.1089 12.87 37.9289 12.89C37.7689 12.91 37.5989 12.92 37.4189 12.92C37.2389 12.92 37.0689 12.94 36.9089 12.98C36.7089 12.98 36.5089 13.01 36.3089 13.07C36.1289 13.11 35.9389 13.14 35.7389 13.16L35.5289 13.19C35.3889 13.19 35.2589 13.21 35.1389 13.25C35.0189 13.27 34.8889 13.3 34.7489 13.34C34.6689 13.36 34.5889 13.38 34.5089 13.4C34.4289 13.4 34.3389 13.41 34.2389 13.43C34.1789 13.43 34.1089 13.45 34.0289 13.49C33.9689 13.51 33.9389 13.57 33.9389 13.67L34.0289 13.94C34.0489 13.98 34.0389 14.08 33.9989 14.24C33.9789 14.4 33.9589 14.52 33.9389 14.6C33.9389 14.66 33.9489 14.72 33.9689 14.78C33.9889 14.84 34.0089 14.9 34.0289 14.96C34.0889 15.12 34.1189 15.3 34.1189 15.5C34.1189 15.68 34.1389 15.85 34.1789 16.01C34.1989 16.09 34.2089 16.18 34.2089 16.28C34.2089 16.36 34.2189 16.45 34.2389 16.55C34.2389 16.59 34.2389 16.64 34.2389 16.7C34.2589 16.74 34.2689 16.79 34.2689 16.85C34.2689 16.91 34.2589 16.95 34.2389 16.97C34.1789 17.05 34.1489 17.14 34.1489 17.24C34.1489 17.34 34.1489 17.44 34.1489 17.54C34.2489 17.74 34.2989 17.94 34.2989 18.14C34.2989 18.34 34.2989 18.54 34.2989 18.74C34.2989 18.8 34.3489 18.82 34.4489 18.8H34.4789C34.5189 18.72 34.5589 18.66 34.5989 18.62C34.6589 18.62 34.7289 18.6 34.8089 18.56C34.8689 18.52 34.9489 18.5 35.0489 18.5C35.2089 18.52 35.3589 18.52 35.4989 18.5C35.6389 18.46 35.7789 18.42 35.9189 18.38C36.8589 18.14 37.7389 17.83 38.5589 17.45C38.7789 17.35 39.0089 17.27 39.2489 17.21C39.4889 17.13 39.7289 17.08 39.9689 17.06H40.0589C40.2389 17.04 40.4189 17.02 40.5989 17C40.7789 16.98 40.9589 16.97 41.1389 16.97C41.3789 16.95 41.6089 16.92 41.8289 16.88C42.0689 16.84 42.3089 16.81 42.5489 16.79C42.6889 16.75 42.8189 16.72 42.9389 16.7C43.0589 16.66 43.1889 16.61 43.3289 16.55C43.5889 16.45 43.8289 16.4 44.0489 16.4C44.2089 16.42 44.3589 16.46 44.4989 16.52C44.6389 16.56 44.7789 16.62 44.9189 16.7C45.2189 16.9 45.3689 17.2 45.3689 17.6C45.3689 17.76 45.3489 17.92 45.3089 18.08C45.2889 18.24 45.2789 18.4 45.2789 18.56C45.2789 18.6 45.2589 18.64 45.2189 18.68L45.1289 18.83C45.1089 18.91 45.0889 18.99 45.0689 19.07C45.0489 19.15 44.9989 19.21 44.9189 19.25C44.7989 19.35 44.6689 19.46 44.5289 19.58C44.4089 19.68 44.2689 19.75 44.1089 19.79C44.0289 19.81 43.9489 19.83 43.8689 19.85C43.8089 19.87 43.7389 19.88 43.6589 19.88C43.3389 19.88 43.0089 19.9 42.6689 19.94C42.3489 19.98 42.0189 20.02 41.6789 20.06C41.4189 20.08 41.1589 20.11 40.8989 20.15C40.6589 20.19 40.4089 20.21 40.1489 20.21C39.9089 20.21 39.6389 20.26 39.3389 20.36C39.1389 20.4 38.9289 20.44 38.7089 20.48C38.4889 20.52 38.2689 20.55 38.0489 20.57C37.8889 20.59 37.7189 20.62 37.5389 20.66C37.3789 20.68 37.2189 20.7 37.0589 20.72L36.5489 20.81C36.5089 20.83 36.4489 20.84 36.3689 20.84C36.2289 20.88 36.0889 20.91 35.9489 20.93C35.8089 20.95 35.6689 20.98 35.5289 21.02C35.3889 21.04 35.2489 21.07 35.1089 21.11C34.9889 21.15 34.8589 21.19 34.7189 21.23C34.6189 21.25 34.5389 21.29 34.4789 21.35C34.4189 21.39 34.3689 21.45 34.3289 21.53C34.3089 21.59 34.3089 21.65 34.3289 21.71C34.3489 21.79 34.3389 21.87 34.2989 21.95C34.3189 22.15 34.3289 22.35 34.3289 22.55C34.3489 22.75 34.3489 22.95 34.3289 23.15C34.3689 23.31 34.3789 23.47 34.3589 23.63C34.3589 23.79 34.3489 23.95 34.3289 24.11C34.2889 24.35 34.2989 24.55 34.3589 24.71C34.4189 24.97 34.3989 25.24 34.2989 25.52C34.2589 25.64 34.2589 25.72 34.2989 25.76C34.3389 25.82 34.3389 25.89 34.2989 25.97V26.15C34.2789 26.31 34.3489 26.39 34.5089 26.39H34.5689C34.7089 26.39 34.8489 26.44 34.9889 26.54C35.0889 26.64 35.2089 26.67 35.3489 26.63L36.1889 26.54C36.3089 26.52 36.4289 26.51 36.5489 26.51C36.6689 26.49 36.7889 26.48 36.9089 26.48C36.9489 26.46 37.0089 26.47 37.0889 26.51C37.1889 26.57 37.2789 26.58 37.3589 26.54C37.3989 26.5 37.4489 26.47 37.5089 26.45C37.5889 26.43 37.6489 26.4 37.6889 26.36C37.8089 26.24 37.9589 26.2 38.1389 26.24C38.2989 26.28 38.4289 26.27 38.5289 26.21C38.7089 26.15 38.8789 26.13 39.0389 26.15C39.1389 26.17 39.2389 26.16 39.3389 26.12C39.4389 26.08 39.5389 26.06 39.6389 26.06C39.6789 26.06 39.7089 26.07 39.7289 26.09C39.7489 26.09 39.7689 26.08 39.7889 26.06C39.8289 26.06 39.8689 26.05 39.9089 26.03C39.9489 26.01 39.9789 26 39.9989 26C40.1389 25.94 40.2689 25.92 40.3889 25.94C40.4889 25.94 40.5389 25.94 40.5389 25.94C40.6189 25.92 40.6889 25.92 40.7489 25.94C40.8289 25.96 40.8989 25.99 40.9589 26.03C41.0589 26.05 41.1389 26.08 41.1989 26.12C41.2789 26.16 41.3589 26.19 41.4389 26.21C41.4789 26.21 41.5089 26.22 41.5289 26.24C41.6289 26.32 41.7489 26.39 41.8889 26.45C42.0489 26.51 42.1389 26.58 42.1589 26.66C42.1989 26.78 42.2189 26.9 42.2189 27.02C42.2189 27.12 42.2289 27.23 42.2489 27.35C42.2489 27.41 42.2389 27.47 42.2189 27.53C42.2189 27.59 42.2089 27.65 42.1889 27.71C42.1489 27.79 42.0989 27.88 42.0389 27.98C41.9989 28.08 41.9389 28.17 41.8589 28.25C41.8189 28.29 41.7789 28.33 41.7389 28.37C41.7189 28.41 41.6889 28.45 41.6489 28.49C41.5689 28.57 41.4789 28.64 41.3789 28.7C41.2789 28.76 41.1689 28.79 41.0489 28.79C40.9689 28.79 40.9089 28.8 40.8689 28.82C40.7889 28.86 40.7089 28.88 40.6289 28.88C40.5489 28.88 40.4589 28.88 40.3589 28.88C40.2189 28.9 40.0789 28.92 39.9389 28.94C39.8189 28.94 39.6889 28.93 39.5489 28.91C39.4689 28.89 39.3989 28.89 39.3389 28.91C39.1389 28.97 38.9389 28.98 38.7389 28.94C38.5389 28.94 38.3389 28.95 38.1389 28.97C37.9589 28.97 37.7789 28.97 37.5989 28.97H37.2089C37.1489 28.97 37.0989 28.98 37.0589 29C36.9789 29.04 36.8789 29.06 36.7589 29.06C36.6589 29.06 36.5589 29.05 36.4589 29.03H36.1589C36.1389 29.03 36.1089 29.03 36.0689 29.03C36.0289 29.05 35.9889 29.05 35.9489 29.03C35.8889 29.01 35.8289 29 35.7689 29C35.7289 29.02 35.6789 29.04 35.6189 29.06C35.5789 29.06 35.5389 29.06 35.4989 29.06C35.4789 29.08 35.4489 29.09 35.4089 29.09C35.2089 29.07 35.0189 29.07 34.8389 29.09C34.6589 29.13 34.4689 29.17 34.2689 29.21ZM53.9142 30.47L53.4042 30.38C53.1442 30.34 52.8742 30.3 52.5942 30.26C52.3342 30.22 52.0642 30.19 51.7842 30.17C51.5042 30.17 51.2242 30.09 50.9442 29.93C50.6842 29.79 50.5042 29.57 50.4042 29.27C50.3842 29.17 50.3542 29.07 50.3142 28.97C50.2942 28.87 50.2742 28.77 50.2542 28.67C50.2542 28.43 50.3042 28.25 50.4042 28.13C50.5042 28.03 50.5842 27.93 50.6442 27.83C50.7242 27.73 50.8042 27.64 50.8842 27.56C50.9242 27.52 50.9642 27.49 51.0042 27.47C51.0442 27.45 51.0842 27.43 51.1242 27.41C51.2242 27.35 51.3242 27.31 51.4242 27.29C51.5242 27.25 51.6242 27.22 51.7242 27.2C51.7642 27.18 51.7942 27.18 51.8142 27.2C51.8542 27.2 51.8842 27.2 51.9042 27.2C52.0042 27.22 52.1142 27.24 52.2342 27.26C52.3542 27.26 52.4642 27.28 52.5642 27.32L53.8242 27.5C54.1042 27.54 54.3542 27.5 54.5742 27.38C54.6542 27.34 54.7242 27.3 54.7842 27.26C54.8642 27.22 54.9342 27.18 54.9942 27.14C55.4342 26.88 55.8142 26.61 56.1342 26.33C56.3742 26.11 56.6042 25.89 56.8242 25.67C57.0442 25.45 57.2442 25.21 57.4242 24.95C57.5642 24.77 57.6542 24.59 57.6942 24.41C57.7342 24.21 57.7442 24.01 57.7242 23.81L57.6342 23.57C57.6142 23.47 57.5742 23.39 57.5142 23.33C57.4542 23.27 57.3942 23.2 57.3342 23.12C57.2142 23.02 57.0942 22.91 56.9742 22.79C56.8742 22.67 56.7642 22.57 56.6442 22.49C56.3442 22.25 56.0442 22.02 55.7442 21.8C55.4642 21.58 55.1742 21.36 54.8742 21.14C54.8542 21.1 54.7942 21.06 54.6942 21.02C54.5142 20.9 54.3342 20.77 54.1542 20.63C53.9942 20.47 53.8342 20.32 53.6742 20.18C53.4742 19.98 53.2542 19.79 53.0142 19.61C52.8942 19.55 52.7842 19.45 52.6842 19.31C52.6042 19.21 52.4842 19.11 52.3242 19.01C52.1842 18.93 52.0542 18.84 51.9342 18.74C51.8142 18.62 51.6942 18.51 51.5742 18.41L51.1842 18.05C51.1042 17.95 51.0142 17.86 50.9142 17.78C50.8342 17.68 50.7442 17.58 50.6442 17.48C50.6042 17.38 50.5442 17.3 50.4642 17.24C50.4042 17.18 50.3442 17.11 50.2842 17.03C50.2642 16.99 50.2342 16.95 50.1942 16.91C50.1542 16.85 50.1242 16.79 50.1042 16.73C49.9842 16.49 49.8542 16.25 49.7142 16.01C49.5942 15.77 49.4842 15.52 49.3842 15.26C49.3242 15.1 49.2642 14.95 49.2042 14.81C49.1642 14.65 49.1242 14.5 49.0842 14.36C49.0642 14.2 49.0242 14.06 48.9642 13.94C48.9242 13.8 48.8842 13.66 48.8442 13.52C48.8042 13.3 48.7542 13.09 48.6942 12.89C48.6542 12.67 48.6142 12.46 48.5742 12.26L48.5142 12.02C48.4942 11.8 48.4942 11.59 48.5142 11.39C48.5542 11.11 48.6142 10.86 48.6942 10.64C48.7742 10.4 48.9042 10.21 49.0842 10.07C49.2842 9.91 49.4842 9.75 49.6842 9.59C49.8842 9.43 50.0942 9.3 50.3142 9.2C50.3542 9.2 50.3842 9.19 50.4042 9.17C50.6042 9.01 50.8242 8.9 51.0642 8.84C51.3042 8.76 51.5442 8.69 51.7842 8.63C52.7442 8.35 53.7342 8.14 54.7542 8H55.0542C55.2542 8 55.4442 8 55.6242 8C55.8042 8 55.9942 7.99 56.1942 7.97C56.4342 7.97 56.6742 8 56.9142 8.06C57.1542 8.1 57.3842 8.17 57.6042 8.27C57.7642 8.35 57.9242 8.44 58.0842 8.54C58.2442 8.62 58.3942 8.71 58.5342 8.81C58.6942 8.93 58.7942 9.06 58.8342 9.2L58.9242 9.41C59.0242 9.59 59.0742 9.78 59.0742 9.98C59.0942 10.16 59.0842 10.35 59.0442 10.55C59.0442 10.61 59.0342 10.68 59.0142 10.76C59.0142 10.82 59.0142 10.88 59.0142 10.94C58.9542 11.38 58.7442 11.72 58.3842 11.96C58.1642 12.16 57.8742 12.24 57.5142 12.2C57.4342 12.16 57.3942 12.18 57.3942 12.26C57.3942 12.34 57.3442 12.38 57.2442 12.38H57.0642C56.9442 12.38 56.8242 12.32 56.7042 12.2C56.6042 12.1 56.5542 12.02 56.5542 11.96C56.5542 11.88 56.5942 11.82 56.6742 11.78C56.6342 11.68 56.5942 11.59 56.5542 11.51C56.5142 11.43 56.4742 11.37 56.4342 11.33C56.3742 11.23 56.2842 11.16 56.1642 11.12C56.0642 11.1 55.9642 11.08 55.8642 11.06C55.7642 11.04 55.6642 11.02 55.5642 11C55.4842 11 55.3942 11 55.2942 11C55.1942 10.98 55.0942 10.96 54.9942 10.94C54.9342 10.92 54.8442 10.93 54.7242 10.97C54.6642 10.99 54.6042 11.01 54.5442 11.03C54.4842 11.03 54.4142 11.02 54.3342 11C54.2742 11 54.2042 11 54.1242 11C54.0642 11 53.9942 11.02 53.9142 11.06L53.3442 11.15C53.0242 11.21 52.7142 11.33 52.4142 11.51C52.3542 11.53 52.2942 11.55 52.2342 11.57C52.1742 11.59 52.1142 11.59 52.0542 11.57C51.9342 11.55 51.8342 11.58 51.7542 11.66C51.7342 11.7 51.6842 11.73 51.6042 11.75C51.5442 11.75 51.4942 11.77 51.4542 11.81C51.3742 11.89 51.3342 11.97 51.3342 12.05C51.3542 12.09 51.3642 12.15 51.3642 12.23L51.9942 14.06C52.1142 14.38 52.2642 14.68 52.4442 14.96C52.6442 15.22 52.8542 15.48 53.0742 15.74C53.4142 16.14 53.7642 16.48 54.1242 16.76L55.0842 17.57C55.2842 17.75 55.4942 17.92 55.7142 18.08C55.9342 18.24 56.1442 18.4 56.3442 18.56C56.6442 18.78 56.9442 19.01 57.2442 19.25C57.5442 19.47 57.8442 19.7 58.1442 19.94C58.3842 20.14 58.6142 20.34 58.8342 20.54C59.0742 20.72 59.2942 20.92 59.4942 21.14C59.6342 21.3 59.7742 21.46 59.9142 21.62C60.0542 21.78 60.1742 21.96 60.2742 22.16C60.4142 22.38 60.5342 22.64 60.6342 22.94C60.7542 23.32 60.8042 23.68 60.7842 24.02C60.7642 24.06 60.7542 24.12 60.7542 24.2C60.7542 24.44 60.7242 24.67 60.6642 24.89C60.6242 25.09 60.5542 25.3 60.4542 25.52C60.3542 25.72 60.2442 25.93 60.1242 26.15C60.0242 26.35 59.9042 26.55 59.7642 26.75C59.5642 27.01 59.3542 27.26 59.1342 27.5C58.9342 27.72 58.7042 27.94 58.4442 28.16C58.3042 28.28 58.1642 28.41 58.0242 28.55C57.8842 28.67 57.7342 28.78 57.5742 28.88C57.4742 28.96 57.3742 29.03 57.2742 29.09C57.1742 29.17 57.0742 29.25 56.9742 29.33C56.8942 29.37 56.8142 29.42 56.7342 29.48C56.6542 29.54 56.5742 29.6 56.4942 29.66C56.4142 29.74 56.3142 29.8 56.1942 29.84C56.0942 29.9 55.9942 29.95 55.8942 29.99L55.0242 30.35C54.8442 30.41 54.6642 30.45 54.4842 30.47C54.3042 30.49 54.1142 30.49 53.9142 30.47ZM75.5763 31.19C75.3963 31.19 75.2363 31.12 75.0963 30.98C75.0563 30.92 75.0163 30.86 74.9763 30.8C74.9363 30.74 74.8963 30.68 74.8563 30.62C74.6763 30.2 74.5863 29.76 74.5863 29.3L74.4963 28.58C74.4363 28.3 74.3863 28.02 74.3463 27.74C74.3063 27.46 74.2363 27.19 74.1363 26.93L73.9563 26.42C73.9563 26.38 73.9463 26.34 73.9263 26.3C73.9263 26.26 73.9163 26.22 73.8963 26.18L73.4463 24.59C73.4263 24.55 73.4063 24.5 73.3863 24.44C73.3863 24.38 73.3663 24.33 73.3263 24.29C73.2663 24.17 73.2163 24.05 73.1763 23.93C73.1563 23.79 73.1263 23.65 73.0863 23.51C73.0663 23.41 73.0463 23.32 73.0263 23.24C73.0063 23.14 72.9763 23.04 72.9363 22.94C72.8963 22.82 72.8563 22.75 72.8163 22.73C72.7763 22.69 72.6863 22.69 72.5463 22.73C72.4463 22.75 72.3363 22.77 72.2163 22.79C72.1163 22.79 72.0163 22.81 71.9163 22.85C71.8363 22.87 71.7363 22.89 71.6163 22.91C71.5163 22.91 71.4163 22.92 71.3163 22.94L70.8963 23.03C70.7963 23.05 70.6863 23.08 70.5663 23.12C70.4663 23.14 70.3663 23.15 70.2663 23.15L69.7263 23.24C69.5663 23.28 69.3963 23.32 69.2163 23.36C69.0363 23.4 68.8663 23.44 68.7063 23.48C68.2263 23.6 67.7463 23.69 67.2663 23.75C67.1063 23.79 67.0163 23.86 66.9963 23.96C66.9763 23.96 66.9663 23.97 66.9663 23.99C66.8463 24.31 66.7063 24.63 66.5463 24.95C66.4063 25.25 66.2563 25.56 66.0963 25.88C66.0563 25.96 66.0163 26.04 65.9763 26.12C65.9563 26.18 65.9263 26.25 65.8863 26.33C65.8663 26.37 65.8463 26.42 65.8263 26.48C65.8063 26.52 65.7863 26.56 65.7663 26.6C65.6463 26.74 65.5863 26.91 65.5863 27.11C65.5663 27.23 65.5263 27.35 65.4663 27.47C65.4063 27.57 65.3463 27.67 65.2863 27.77C65.2663 27.83 65.2263 27.86 65.1663 27.86C65.0863 27.88 65.0063 27.91 64.9263 27.95C64.8463 27.99 64.7563 28.03 64.6563 28.07C64.5963 28.09 64.5363 28.09 64.4763 28.07C64.4363 28.05 64.3863 28.03 64.3263 28.01C64.2863 27.97 64.2463 27.95 64.2063 27.95C63.9863 27.93 63.8263 27.8 63.7263 27.56C63.5663 27.24 63.4563 26.92 63.3963 26.6C63.3763 26.52 63.3763 26.45 63.3963 26.39C63.4363 26.33 63.4663 26.27 63.4863 26.21C63.6063 26.13 63.6763 26.04 63.6963 25.94V25.91C63.6963 25.65 63.7463 25.41 63.8463 25.19C63.9663 24.95 64.0663 24.72 64.1463 24.5C64.1863 24.38 64.2363 24.26 64.2963 24.14C64.3563 24.02 64.4163 23.9 64.4763 23.78C64.5563 23.64 64.6163 23.51 64.6563 23.39C64.7163 23.25 64.7663 23.11 64.8063 22.97C64.8663 22.81 64.8663 22.66 64.8063 22.52C64.7663 22.4 64.7463 22.29 64.7463 22.19C64.7463 22.07 64.7563 21.95 64.7763 21.83C64.7763 21.61 64.8563 21.42 65.0163 21.26C65.0963 21.16 65.1763 21.08 65.2563 21.02C65.3563 20.94 65.4463 20.86 65.5263 20.78C65.7063 20.6 65.8463 20.36 65.9463 20.06C66.0263 19.8 66.0863 19.54 66.1263 19.28C66.1863 19 66.2463 18.73 66.3063 18.47C66.3463 18.21 66.3863 17.96 66.4263 17.72C66.4863 17.46 66.5463 17.21 66.6063 16.97C66.6263 16.87 66.6463 16.78 66.6663 16.7C66.7063 16.6 66.7363 16.51 66.7563 16.43C66.8163 16.27 66.8763 16.12 66.9363 15.98C66.9963 15.82 67.0363 15.66 67.0563 15.5C67.0963 15.42 67.0963 15.35 67.0563 15.29C67.0363 15.19 67.0363 15.1 67.0563 15.02C67.0963 14.94 67.1263 14.86 67.1463 14.78C67.2063 14.64 67.2463 14.5 67.2663 14.36C67.3063 14.22 67.3563 14.08 67.4163 13.94C67.5163 13.68 67.5963 13.47 67.6563 13.31C67.7363 13.13 67.8063 12.93 67.8663 12.71C67.9063 12.59 67.9463 12.48 67.9863 12.38C68.0463 12.26 68.0863 12.14 68.1063 12.02C68.1663 11.84 68.2163 11.66 68.2563 11.48C68.2963 11.28 68.3163 11.09 68.3163 10.91C68.3563 10.75 68.3963 10.64 68.4363 10.58C68.5363 10.38 68.6563 10.21 68.7963 10.07C68.9563 9.93 69.1063 9.79 69.2463 9.65C69.3463 9.59 69.4463 9.55 69.5463 9.53C69.6463 9.49 69.7463 9.5 69.8463 9.56C69.9263 9.6 69.9763 9.62 69.9963 9.62C70.1763 9.6 70.3263 9.64 70.4463 9.74C70.5663 9.84 70.6663 9.96 70.7463 10.1C70.7863 10.14 70.8163 10.19 70.8363 10.25C70.8563 10.31 70.8763 10.36 70.8963 10.4C70.9963 10.56 71.0463 10.72 71.0463 10.88C71.0463 10.96 71.0563 11.05 71.0763 11.15C71.0963 11.23 71.1163 11.32 71.1363 11.42C71.1963 11.54 71.2863 11.6 71.4063 11.6C71.4263 11.58 71.4463 11.58 71.4663 11.6C71.4863 11.62 71.4963 11.64 71.4963 11.66C71.5963 11.78 71.6263 11.91 71.5863 12.05C71.5463 12.21 71.5363 12.37 71.5563 12.53C71.5963 12.67 71.6363 12.82 71.6763 12.98C71.7563 13.18 71.8363 13.38 71.9163 13.58C71.9963 13.78 72.0763 13.98 72.1563 14.18C72.2563 14.4 72.3563 14.62 72.4563 14.84C72.5563 15.06 72.6463 15.28 72.7263 15.5C72.8263 15.78 72.9263 16.06 73.0263 16.34C73.1463 16.62 73.2763 16.9 73.4163 17.18L73.5063 17.51C73.5263 17.59 73.5463 17.67 73.5663 17.75C73.6063 17.83 73.6363 17.91 73.6563 17.99C73.6963 18.05 73.7263 18.11 73.7463 18.17C73.7863 18.23 73.8263 18.28 73.8663 18.32C73.9663 18.46 74.0263 18.61 74.0463 18.77C74.1063 18.97 74.1963 19.15 74.3163 19.31C74.3563 19.37 74.4163 19.4 74.4963 19.4C74.7963 19.36 75.0963 19.33 75.3963 19.31C75.6963 19.27 75.9963 19.21 76.2963 19.13C76.5163 19.07 76.7263 19.04 76.9263 19.04C77.3063 19.04 77.6563 19.17 77.9763 19.43C78.3563 19.73 78.5563 20.11 78.5763 20.57C78.5763 20.67 78.5863 20.75 78.6063 20.81C78.6063 20.95 78.5663 21.06 78.4863 21.14C78.4663 21.2 78.4263 21.26 78.3663 21.32C78.3263 21.38 78.2863 21.44 78.2463 21.5C78.2063 21.58 78.1663 21.64 78.1263 21.68L77.9463 21.83C77.9263 21.87 77.8963 21.92 77.8563 21.98C77.8163 22.02 77.7663 22.05 77.7063 22.07C77.6263 22.09 77.5463 22.12 77.4663 22.16C77.3863 22.18 77.2963 22.19 77.1963 22.19C76.8363 22.23 76.5163 22.22 76.2363 22.16H75.7563C75.7163 22.16 75.6563 22.18 75.5763 22.22C75.4963 22.26 75.4563 22.31 75.4563 22.37V22.49C75.5163 22.67 75.5563 22.86 75.5763 23.06C75.6163 23.24 75.6763 23.41 75.7563 23.57C75.7563 23.65 75.7763 23.73 75.8163 23.81C75.9163 23.99 75.9963 24.18 76.0563 24.38C76.1163 24.56 76.1663 24.75 76.2063 24.95C76.2063 24.99 76.2263 25.07 76.2663 25.19C76.3263 25.33 76.3763 25.48 76.4163 25.64C76.4563 25.78 76.4863 25.93 76.5063 26.09C76.5063 26.21 76.5363 26.32 76.5963 26.42C76.6763 26.6 76.7363 26.78 76.7763 26.96C76.8163 27.14 76.8463 27.33 76.8663 27.53C76.8863 27.55 76.8963 27.59 76.8963 27.65C76.8963 27.69 76.9063 27.73 76.9263 27.77C77.0263 27.99 77.0963 28.23 77.1363 28.49C77.1763 28.73 77.2263 28.97 77.2863 29.21C77.3263 29.33 77.3463 29.45 77.3463 29.57C77.3663 29.71 77.3763 29.85 77.3763 29.99C77.3763 30.09 77.3463 30.2 77.2863 30.32C77.2263 30.38 77.1963 30.41 77.1963 30.41C77.0763 30.43 77.0063 30.5 76.9863 30.62L76.8963 30.8C76.8563 30.88 76.7963 30.93 76.7163 30.95C76.6363 30.95 76.5663 30.98 76.5063 31.04C76.4263 31.12 76.3163 31.16 76.1763 31.16C76.0963 31.16 75.9963 31.16 75.8763 31.16C75.7763 31.16 75.6763 31.17 75.5763 31.19ZM68.3463 20.3C68.4663 20.28 68.5863 20.26 68.7063 20.24C68.8463 20.22 68.9963 20.2 69.1563 20.18C69.2563 20.16 69.3863 20.14 69.5463 20.12C69.7063 20.1 69.8563 20.08 69.9963 20.06C70.1363 20.02 70.2763 20 70.4163 20C70.5563 19.98 70.6963 19.96 70.8363 19.94C70.9563 19.9 71.0763 19.88 71.1963 19.88C71.3163 19.86 71.4363 19.84 71.5563 19.82C71.7363 19.78 71.8063 19.68 71.7663 19.52C71.7463 19.36 71.7063 19.2 71.6463 19.04C71.6063 18.86 71.5163 18.71 71.3763 18.59C71.3363 18.55 71.3163 18.49 71.3163 18.41V18.32C71.2763 18.16 71.2263 18.01 71.1663 17.87C71.1263 17.71 71.0763 17.56 71.0163 17.42C70.9763 17.26 70.9263 17.12 70.8663 17C70.8263 16.86 70.7763 16.72 70.7163 16.58L70.3563 15.5C70.2963 15.36 70.2363 15.22 70.1763 15.08C70.1363 14.94 70.0963 14.8 70.0563 14.66L69.9663 14.54H69.8763L69.8163 14.63C69.7163 14.93 69.5963 15.23 69.4563 15.53C69.3363 15.83 69.2263 16.15 69.1263 16.49C69.1263 16.53 69.1163 16.58 69.0963 16.64C69.0763 16.7 69.0563 16.76 69.0363 16.82C68.9563 17.02 68.8763 17.24 68.7963 17.48C68.7363 17.72 68.6863 17.96 68.6463 18.2C68.6263 18.34 68.6063 18.48 68.5863 18.62C68.5663 18.74 68.5363 18.87 68.4963 19.01L68.2263 20.18C68.2063 20.2 68.2163 20.23 68.2563 20.27C68.2963 20.29 68.3263 20.3 68.3463 20.3ZM83.6109 29.6C83.2309 29.64 82.9209 29.52 82.6809 29.24C82.5609 29.12 82.4509 28.99 82.3509 28.85C82.2509 28.71 82.1709 28.56 82.1109 28.4C82.0109 28.12 81.9209 27.84 81.8409 27.56C81.7609 27.26 81.6909 26.97 81.6309 26.69C81.5709 26.47 81.5409 26.26 81.5409 26.06C81.5209 25.84 81.4909 25.63 81.4509 25.43C81.4309 25.21 81.4209 24.99 81.4209 24.77C81.4209 24.65 81.4209 24.53 81.4209 24.41C81.4209 24.27 81.4109 24.14 81.3909 24.02C81.3709 23.94 81.3609 23.87 81.3609 23.81C81.3609 23.75 81.3609 23.68 81.3609 23.6C81.3609 23.32 81.3609 23.04 81.3609 22.76C81.3609 22.46 81.3509 22.17 81.3309 21.89C81.3309 21.73 81.3209 21.59 81.3009 21.47C81.2809 21.33 81.2409 21.19 81.1809 21.05C81.1009 20.83 81.0909 20.59 81.1509 20.33C81.1509 20.27 81.1609 20.23 81.1809 20.21C81.2209 20.07 81.2409 19.93 81.2409 19.79C81.2609 19.65 81.2609 19.51 81.2409 19.37C81.2209 19.27 81.2109 19.17 81.2109 19.07C81.2109 18.97 81.2109 18.88 81.2109 18.8C81.1909 18.58 81.1809 18.36 81.1809 18.14C81.2009 17.9 81.2209 17.67 81.2409 17.45C81.2609 17.39 81.2709 17.33 81.2709 17.27C81.2709 17.21 81.2709 17.15 81.2709 17.09C81.2509 16.87 81.2509 16.66 81.2709 16.46C81.3109 16.26 81.3409 16.06 81.3609 15.86C81.4009 15.62 81.4409 15.39 81.4809 15.17C81.5209 14.93 81.5709 14.69 81.6309 14.45C81.6709 14.35 81.6909 14.24 81.6909 14.12C81.6909 14 81.6909 13.88 81.6909 13.76C81.6909 13.66 81.6809 13.56 81.6609 13.46C81.6609 13.36 81.6609 13.27 81.6609 13.19C81.6609 13.13 81.6609 13.07 81.6609 13.01C81.6609 12.95 81.6709 12.89 81.6909 12.83C81.7109 12.77 81.7209 12.71 81.7209 12.65C81.7209 12.59 81.7309 12.55 81.7509 12.53C81.8109 12.45 81.8609 12.38 81.9009 12.32C81.9409 12.24 82.0009 12.17 82.0809 12.11C82.1809 12.05 82.2709 11.99 82.3509 11.93C82.4509 11.87 82.5409 11.82 82.6209 11.78C82.7209 11.74 82.8009 11.69 82.8609 11.63C82.9409 11.53 83.0209 11.44 83.1009 11.36C83.2009 11.26 83.2809 11.15 83.3409 11.03C83.4409 10.93 83.5409 10.82 83.6409 10.7C83.7609 10.56 83.8909 10.45 84.0309 10.37C84.0709 10.35 84.1309 10.3 84.2109 10.22C84.4509 10 84.7309 9.86 85.0509 9.8C85.1109 9.78 85.1609 9.77 85.2009 9.77C85.2609 9.75 85.3209 9.74 85.3809 9.74L85.5909 9.65C85.7509 9.59 85.8909 9.62 86.0109 9.74C86.0509 9.8 86.1009 9.86 86.1609 9.92C86.2409 9.96 86.3109 10 86.3709 10.04C86.5309 10.18 86.6809 10.33 86.8209 10.49C86.9809 10.65 87.1209 10.83 87.2409 11.03C87.4409 11.35 87.6109 11.67 87.7509 11.99C87.9109 12.31 88.0609 12.64 88.2009 12.98L88.7409 14.27C88.7609 14.39 88.8109 14.5 88.8909 14.6C89.0509 14.9 89.1709 15.21 89.2509 15.53C89.3309 15.83 89.4109 16.14 89.4909 16.46C89.5109 16.5 89.5209 16.54 89.5209 16.58C89.5409 16.62 89.5509 16.66 89.5509 16.7C89.5909 16.86 89.6209 17.03 89.6409 17.21C89.6809 17.37 89.6909 17.53 89.6709 17.69C89.6909 17.87 89.6809 18.05 89.6409 18.23C89.6209 18.39 89.5909 18.55 89.5509 18.71C89.4909 18.91 89.4209 19.1 89.3409 19.28C89.2609 19.44 89.1709 19.61 89.0709 19.79C89.0309 19.91 88.9609 20.02 88.8609 20.12C88.7609 20.22 88.6609 20.31 88.5609 20.39C88.4009 20.47 88.2409 20.59 88.0809 20.75C88.0409 20.79 87.9909 20.82 87.9309 20.84C87.8909 20.86 87.8509 20.89 87.8109 20.93C87.6709 20.99 87.5209 21.06 87.3609 21.14C87.2009 21.2 87.0409 21.26 86.8809 21.32C86.8609 21.32 86.8509 21.34 86.8509 21.38C86.8509 21.4 86.8609 21.42 86.8809 21.44L87.6909 22.01C87.7909 22.07 87.8809 22.13 87.9609 22.19C88.0409 22.23 88.1209 22.28 88.2009 22.34L88.3809 22.43C88.6209 22.57 88.8609 22.72 89.1009 22.88C89.3409 23.04 89.5709 23.2 89.7909 23.36C90.2109 23.62 90.6309 23.89 91.0509 24.17C91.4709 24.43 91.8709 24.72 92.2509 25.04C92.5909 25.3 92.8909 25.6 93.1509 25.94C93.2109 26 93.2709 26.07 93.3309 26.15C93.3909 26.21 93.4609 26.26 93.5409 26.3L93.6309 26.39C93.9509 26.67 94.1309 27.05 94.1709 27.53C94.1709 27.59 94.1609 27.65 94.1409 27.71C94.1409 27.77 94.1409 27.83 94.1409 27.89C94.1409 28.01 94.1009 28.11 94.0209 28.19C93.9409 28.23 93.9009 28.28 93.9009 28.34C93.8409 28.48 93.7509 28.58 93.6309 28.64C93.5309 28.68 93.4309 28.74 93.3309 28.82C93.2909 28.84 93.2209 28.85 93.1209 28.85C93.0009 28.83 92.8709 28.81 92.7309 28.79C92.6109 28.77 92.4909 28.76 92.3709 28.76C92.2109 28.76 92.0409 28.69 91.8609 28.55C91.7409 28.45 91.6309 28.36 91.5309 28.28C91.4309 28.18 91.3309 28.06 91.2309 27.92C90.9709 27.56 90.6309 27.23 90.2109 26.93C90.0109 26.77 89.8209 26.62 89.6409 26.48C89.4609 26.34 89.2609 26.21 89.0409 26.09C88.9009 26.01 88.7609 25.93 88.6209 25.85C88.5009 25.75 88.3609 25.66 88.2009 25.58C87.7009 25.24 87.1909 24.91 86.6709 24.59C86.1509 24.25 85.6309 23.91 85.1109 23.57C85.0309 23.51 84.9409 23.45 84.8409 23.39C84.7409 23.33 84.6409 23.27 84.5409 23.21C84.5009 23.17 84.4409 23.13 84.3609 23.09C84.2809 23.09 84.2409 23.12 84.2409 23.18C84.2409 23.2 84.2309 23.22 84.2109 23.24C84.2109 23.24 84.2109 23.25 84.2109 23.27C84.2109 23.33 84.2109 23.39 84.2109 23.45C84.2109 23.51 84.2209 23.57 84.2409 23.63C84.2609 23.79 84.2709 23.95 84.2709 24.11C84.2709 24.25 84.2709 24.4 84.2709 24.56C84.2709 24.68 84.2709 24.8 84.2709 24.92C84.2909 25.02 84.3109 25.13 84.3309 25.25C84.3309 25.31 84.3309 25.38 84.3309 25.46C84.3509 25.52 84.3609 25.58 84.3609 25.64C84.3409 25.82 84.3509 26 84.3909 26.18C84.4309 26.36 84.4609 26.54 84.4809 26.72L84.6609 27.5C84.6809 27.58 84.7009 27.67 84.7209 27.77C84.7409 27.85 84.7609 27.94 84.7809 28.04C84.8009 28.12 84.8009 28.2 84.7809 28.28C84.7809 28.34 84.7709 28.41 84.7509 28.49C84.7509 28.51 84.7309 28.54 84.6909 28.58C84.5909 28.6 84.5209 28.67 84.4809 28.79C84.4209 28.93 84.3309 29.05 84.2109 29.15C84.1109 29.27 84.0009 29.38 83.8809 29.48C83.8609 29.5 83.8209 29.52 83.7609 29.54C83.7009 29.56 83.6509 29.58 83.6109 29.6ZM84.7809 19.1H84.8409C85.0609 19.06 85.2809 19.02 85.5009 18.98C85.7409 18.92 85.9709 18.85 86.1909 18.77C86.4109 18.71 86.6009 18.6 86.7609 18.44C86.9009 18.3 86.9709 18.14 86.9709 17.96C86.9909 17.82 86.9909 17.69 86.9709 17.57C86.9709 17.43 86.9509 17.29 86.9109 17.15C86.8309 16.79 86.7409 16.44 86.6409 16.1C86.5409 15.74 86.4209 15.4 86.2809 15.08L86.0109 14.36C85.9509 14.16 85.8809 13.97 85.8009 13.79C85.7209 13.59 85.6309 13.4 85.5309 13.22C85.5109 13.18 85.4909 13.14 85.4709 13.1C85.4509 13.04 85.4309 12.99 85.4109 12.95L85.2909 12.83C85.2309 12.75 85.1609 12.75 85.0809 12.83C85.0609 12.83 85.0309 12.85 84.9909 12.89C84.8509 13.07 84.7209 13.26 84.6009 13.46C84.5009 13.66 84.4409 13.88 84.4209 14.12C84.4009 14.2 84.3809 14.28 84.3609 14.36C84.3609 14.44 84.3609 14.53 84.3609 14.63V15.92C84.3409 16.2 84.3309 16.49 84.3309 16.79C84.3509 17.09 84.3409 17.38 84.3009 17.66C84.2809 17.72 84.2709 17.78 84.2709 17.84C84.2909 17.9 84.3009 17.96 84.3009 18.02C84.3209 18.14 84.3309 18.26 84.3309 18.38C84.3309 18.48 84.3309 18.59 84.3309 18.71C84.3309 18.91 84.3509 19.03 84.3909 19.07C84.4509 19.11 84.5809 19.12 84.7809 19.1ZM112.262 29.42C112.122 29.42 111.952 29.37 111.752 29.27C111.652 29.21 111.572 29.13 111.512 29.03C111.492 28.97 111.442 28.97 111.362 29.03C111.302 29.07 111.252 29.07 111.212 29.03C111.152 28.97 111.092 28.93 111.032 28.91C110.952 28.91 110.912 28.88 110.912 28.82C110.912 28.76 110.902 28.71 110.882 28.67C110.882 28.61 110.862 28.56 110.822 28.52C110.702 28.48 110.622 28.38 110.582 28.22C110.562 28.16 110.542 28.11 110.522 28.07C110.502 28.01 110.472 27.95 110.432 27.89C110.392 27.81 110.372 27.74 110.372 27.68C110.352 27.62 110.332 27.57 110.312 27.53C110.312 27.47 110.292 27.41 110.252 27.35C110.232 27.21 110.192 27.08 110.132 26.96C110.072 26.84 110.022 26.71 109.982 26.57C109.942 26.49 109.922 26.38 109.922 26.24C109.922 25.88 109.982 25.55 110.102 25.25C110.202 25.07 110.232 24.89 110.192 24.71C110.172 24.63 110.172 24.55 110.192 24.47C110.232 24.39 110.242 24.31 110.222 24.23C110.202 24.15 110.182 24.08 110.162 24.02C110.162 23.96 110.162 23.89 110.162 23.81C110.142 23.77 110.132 23.72 110.132 23.66C110.132 23.54 110.132 23.42 110.132 23.3C110.132 23.16 110.112 23.02 110.072 22.88C110.052 22.82 110.042 22.73 110.042 22.61V21.5C110.022 21.24 109.992 20.98 109.952 20.72C109.912 20.46 109.862 20.2 109.802 19.94C109.802 19.88 109.792 19.82 109.772 19.76C109.772 19.7 109.772 19.64 109.772 19.58C109.772 19.14 109.702 18.71 109.562 18.29V18.02C109.602 17.8 109.582 17.63 109.502 17.51C109.482 17.43 109.472 17.32 109.472 17.18V17.15C109.472 16.95 109.462 16.75 109.442 16.55C109.442 16.35 109.452 16.15 109.472 15.95C109.512 15.59 109.512 15.21 109.472 14.81C109.472 14.65 109.472 14.49 109.472 14.33C109.472 14.17 109.462 14.02 109.442 13.88V13.7C109.482 13.6 109.502 13.51 109.502 13.43C109.502 13.35 109.502 13.27 109.502 13.19C109.502 12.95 109.492 12.72 109.472 12.5C109.472 12.26 109.452 12.03 109.412 11.81C109.412 11.75 109.412 11.69 109.412 11.63C109.412 11.55 109.402 11.48 109.382 11.42C109.382 11.28 109.332 11.16 109.232 11.06L109.022 10.88C108.822 10.76 108.692 10.57 108.632 10.31C108.612 10.27 108.602 10.24 108.602 10.22C108.602 10.18 108.592 10.14 108.572 10.1C108.532 10 108.552 9.91 108.632 9.83C108.692 9.75 108.732 9.67 108.752 9.59C108.752 9.53 108.762 9.48 108.782 9.44C108.822 9.38 108.852 9.32 108.872 9.26C108.892 9.2 108.912 9.13 108.932 9.05C108.972 8.99 109.002 8.97 109.022 8.99C109.162 8.99 109.262 8.97 109.322 8.93C109.462 8.83 109.612 8.81 109.772 8.87C109.812 8.89 109.872 8.88 109.952 8.84C109.972 8.84 109.982 8.83 109.982 8.81C110.082 8.71 110.192 8.66 110.312 8.66C110.432 8.64 110.562 8.64 110.702 8.66C110.722 8.66 110.742 8.67 110.762 8.69C110.782 8.69 110.802 8.69 110.822 8.69C110.982 8.73 111.132 8.77 111.272 8.81C111.432 8.83 111.582 8.83 111.722 8.81C111.822 8.81 111.922 8.82 112.022 8.84C112.142 8.86 112.252 8.87 112.352 8.87C112.432 8.87 112.502 8.88 112.562 8.9C112.642 8.92 112.712 8.94 112.772 8.96C112.852 8.98 112.922 9.01 112.982 9.05C113.042 9.07 113.112 9.08 113.192 9.08C113.292 9.1 113.372 9.12 113.432 9.14C113.512 9.16 113.592 9.19 113.672 9.23C113.932 9.37 114.192 9.5 114.452 9.62C114.572 9.68 114.682 9.76 114.782 9.86C114.922 9.96 115.042 10.02 115.142 10.04C115.162 10.04 115.182 10.05 115.202 10.07C115.222 10.07 115.242 10.07 115.262 10.07C115.282 10.09 115.302 10.1 115.322 10.1C115.342 10.1 115.362 10.11 115.382 10.13C115.482 10.23 115.602 10.31 115.742 10.37C115.902 10.41 116.032 10.48 116.132 10.58C116.172 10.62 116.232 10.66 116.312 10.7C116.472 10.76 116.612 10.85 116.732 10.97C116.772 11.01 116.802 11.03 116.822 11.03C116.902 11.03 116.992 11.08 117.092 11.18L117.722 11.84C117.802 11.92 117.862 11.99 117.902 12.05C118.002 12.19 118.112 12.32 118.232 12.44C118.352 12.56 118.472 12.68 118.592 12.8C118.632 12.84 118.672 12.89 118.712 12.95C118.772 12.99 118.812 13.04 118.832 13.1C118.852 13.14 118.882 13.18 118.922 13.22C118.962 13.24 118.992 13.27 119.012 13.31C119.232 13.55 119.442 13.8 119.642 14.06C119.862 14.32 120.062 14.59 120.242 14.87C120.342 15.01 120.432 15.16 120.512 15.32C120.592 15.48 120.662 15.64 120.722 15.8C120.782 15.94 120.842 16.08 120.902 16.22C120.982 16.36 121.052 16.5 121.112 16.64C121.172 16.86 121.242 17.06 121.322 17.24C121.402 17.5 121.482 17.75 121.562 17.99C121.642 18.23 121.712 18.49 121.772 18.77L121.862 19.16C121.862 19.32 121.862 19.49 121.862 19.67C121.882 19.83 121.892 20 121.892 20.18C121.892 20.26 121.882 20.33 121.862 20.39C121.862 20.45 121.842 20.52 121.802 20.6C121.762 20.72 121.742 20.83 121.742 20.93C121.722 21.13 121.672 21.32 121.592 21.5C121.532 21.68 121.462 21.85 121.382 22.01C121.202 22.33 121.042 22.65 120.902 22.97C120.862 23.05 120.822 23.13 120.782 23.21C120.762 23.27 120.732 23.34 120.692 23.42L120.512 23.78C120.372 24.06 120.202 24.34 120.002 24.62C119.822 24.88 119.622 25.13 119.402 25.37C119.322 25.47 119.222 25.57 119.102 25.67C119.002 25.75 118.902 25.84 118.802 25.94C118.602 26.12 118.402 26.3 118.202 26.48C118.002 26.64 117.792 26.8 117.572 26.96C117.372 27.1 117.162 27.23 116.942 27.35C116.742 27.47 116.522 27.57 116.282 27.65C116.162 27.67 116.042 27.73 115.922 27.83C115.802 27.91 115.672 27.99 115.532 28.07C115.412 28.15 115.282 28.24 115.142 28.34C115.082 28.36 115.022 28.39 114.962 28.43C114.902 28.45 114.832 28.47 114.752 28.49C114.692 28.51 114.622 28.53 114.542 28.55C114.482 28.57 114.422 28.59 114.362 28.61C114.282 28.63 114.202 28.66 114.122 28.7C114.062 28.74 114.002 28.79 113.942 28.85C113.802 28.95 113.652 29.03 113.492 29.09C113.332 29.17 113.172 29.26 113.012 29.36C112.972 29.38 112.902 29.39 112.802 29.39C112.742 29.41 112.682 29.41 112.622 29.39C112.562 29.39 112.502 29.39 112.442 29.39V29.42H112.262ZM113.462 26.06C113.662 26.06 113.832 26.02 113.972 25.94C114.132 25.88 114.282 25.81 114.422 25.73C114.562 25.65 114.692 25.56 114.812 25.46L115.172 25.1C115.372 24.94 115.552 24.77 115.712 24.59C115.892 24.41 116.082 24.25 116.282 24.11C116.322 24.07 116.342 24.05 116.342 24.05C116.422 23.97 116.492 23.9 116.552 23.84C116.632 23.76 116.702 23.68 116.762 23.6C116.802 23.56 116.852 23.51 116.912 23.45C116.972 23.39 117.012 23.34 117.032 23.3C117.112 23.16 117.222 23.04 117.362 22.94C117.462 22.88 117.522 22.82 117.542 22.76C117.582 22.66 117.632 22.56 117.692 22.46C117.772 22.36 117.852 22.27 117.932 22.19C118.032 22.07 118.132 21.89 118.232 21.65L118.352 21.35C118.472 21.07 118.532 20.81 118.532 20.57C118.552 20.51 118.562 20.42 118.562 20.3C118.582 20 118.562 19.68 118.502 19.34C118.482 19.24 118.462 19.14 118.442 19.04C118.422 18.94 118.412 18.85 118.412 18.77C118.392 18.69 118.372 18.62 118.352 18.56C118.352 18.48 118.332 18.41 118.292 18.35C118.252 18.27 118.222 18.19 118.202 18.11C118.182 18.03 118.162 17.95 118.142 17.87C118.142 17.73 118.122 17.61 118.082 17.51C118.042 17.39 118.002 17.27 117.962 17.15C117.902 17.03 117.842 16.91 117.782 16.79C117.722 16.65 117.672 16.51 117.632 16.37L117.602 16.25C117.542 16.17 117.492 16.09 117.452 16.01C117.432 15.91 117.402 15.82 117.362 15.74C117.282 15.56 117.202 15.38 117.122 15.2C117.062 15.02 116.982 14.85 116.882 14.69C116.782 14.51 116.672 14.33 116.552 14.15C116.452 13.97 116.322 13.81 116.162 13.67C115.702 13.17 115.172 12.72 114.572 12.32C114.212 12.06 113.852 11.89 113.492 11.81C113.352 11.77 113.192 11.74 113.012 11.72C112.832 11.68 112.662 11.65 112.502 11.63C112.442 11.63 112.392 11.65 112.352 11.69C112.252 11.77 112.202 11.87 112.202 11.99C112.202 12.13 112.192 12.28 112.172 12.44C112.172 12.58 112.172 12.73 112.172 12.89C112.212 13.17 112.202 13.4 112.142 13.58C112.122 13.66 112.102 13.74 112.082 13.82C112.082 13.9 112.092 13.99 112.112 14.09C112.152 14.21 112.142 14.32 112.082 14.42C112.022 14.54 112.022 14.67 112.082 14.81C112.162 14.97 112.182 15.17 112.142 15.41C112.082 15.65 112.082 15.89 112.142 16.13C112.162 16.21 112.172 16.29 112.172 16.37C112.192 16.45 112.192 16.54 112.172 16.64C112.172 16.86 112.182 17.08 112.202 17.3C112.242 17.52 112.272 17.74 112.292 17.96C112.292 18 112.312 18.06 112.352 18.14V18.62C112.352 18.66 112.342 18.71 112.322 18.77C112.322 18.81 112.332 18.85 112.352 18.89C112.392 19.05 112.422 19.22 112.442 19.4C112.482 19.56 112.522 19.72 112.562 19.88C112.562 19.92 112.572 19.97 112.592 20.03C112.612 20.07 112.622 20.12 112.622 20.18C112.622 20.32 112.632 20.46 112.652 20.6C112.672 20.74 112.692 20.89 112.712 21.05C112.772 21.61 112.862 22.18 112.982 22.76C113.042 23 113.072 23.25 113.072 23.51C113.072 23.57 113.072 23.64 113.072 23.72C113.072 23.78 113.082 23.84 113.102 23.9C113.142 24.04 113.162 24.18 113.162 24.32C113.162 24.46 113.162 24.6 113.162 24.74C113.162 24.78 113.152 24.83 113.132 24.89C113.132 24.95 113.142 25 113.162 25.04C113.202 25.14 113.222 25.24 113.222 25.34C113.222 25.42 113.222 25.51 113.222 25.61C113.222 25.69 113.242 25.79 113.282 25.91C113.282 26.01 113.342 26.06 113.462 26.06ZM128.107 29.21C127.987 29.21 127.907 29.2 127.867 29.18C127.767 29.14 127.667 29.12 127.567 29.12C127.487 29.14 127.397 29.15 127.297 29.15C127.277 29.15 127.257 29.15 127.237 29.15C127.217 29.17 127.197 29.18 127.177 29.18C127.037 29.2 126.897 29.21 126.757 29.21C126.637 29.21 126.517 29.19 126.397 29.15C126.377 29.13 126.357 29.12 126.337 29.12C126.197 29.14 126.077 29.1 125.977 29C125.877 28.9 125.777 28.81 125.677 28.73C125.577 28.63 125.527 28.52 125.527 28.4L125.437 28.16C125.377 28.02 125.357 27.89 125.377 27.77C125.397 27.73 125.397 27.69 125.377 27.65C125.377 27.61 125.377 27.57 125.377 27.53C125.357 27.49 125.347 27.45 125.347 27.41C125.347 27.35 125.337 27.3 125.317 27.26C125.277 27.08 125.247 26.9 125.227 26.72C125.227 26.52 125.237 26.33 125.257 26.15C125.277 26.03 125.347 25.83 125.467 25.55C125.587 25.25 125.657 25.07 125.677 25.01C125.737 24.91 125.767 24.83 125.767 24.77C125.747 24.55 125.737 24.33 125.737 24.11C125.757 23.87 125.767 23.64 125.767 23.42C125.767 23.28 125.797 23.17 125.857 23.09C125.937 22.95 125.947 22.8 125.887 22.64L125.797 22.31C125.677 22.09 125.687 21.9 125.827 21.74C125.827 21.72 125.827 21.71 125.827 21.71C125.847 21.69 125.857 21.67 125.857 21.65C125.897 21.61 125.907 21.56 125.887 21.5C125.867 21.42 125.857 21.36 125.857 21.32C125.857 21.24 125.867 21.16 125.887 21.08C125.927 20.98 125.937 20.89 125.917 20.81C125.917 20.81 125.897 20.79 125.857 20.75C125.837 20.71 125.827 20.63 125.827 20.51C125.847 20.39 125.857 20.32 125.857 20.3V19.46C125.877 19.36 125.887 19.27 125.887 19.19C125.887 19.09 125.897 18.99 125.917 18.89C125.937 18.77 125.937 18.65 125.917 18.53C125.917 18.39 125.917 18.25 125.917 18.11C125.897 18.01 125.877 17.9 125.857 17.78C125.857 17.66 125.857 17.54 125.857 17.42C125.837 17.38 125.827 17.33 125.827 17.27C125.827 17.21 125.827 17.16 125.827 17.12C125.807 17.02 125.787 16.92 125.767 16.82C125.767 16.72 125.767 16.62 125.767 16.52C125.767 16.48 125.727 16.35 125.647 16.13C125.567 15.89 125.537 15.69 125.557 15.53C125.577 15.49 125.587 15.44 125.587 15.38C125.587 15.32 125.567 15.27 125.527 15.23C125.487 15.21 125.467 15.17 125.467 15.11V15.02C125.527 14.78 125.497 14.54 125.377 14.3C125.297 14.18 125.267 14.06 125.287 13.94C125.287 13.78 125.217 13.66 125.077 13.58C124.977 13.48 124.887 13.36 124.807 13.22C124.727 13.08 124.677 12.94 124.657 12.8C124.637 12.7 124.627 12.6 124.627 12.5C124.627 12.4 124.627 12.31 124.627 12.23C124.627 12.15 124.637 12.1 124.657 12.08C124.737 12 124.777 11.91 124.777 11.81C124.777 11.69 124.787 11.6 124.807 11.54C124.827 11.52 124.847 11.51 124.867 11.51C124.887 11.51 124.907 11.5 124.927 11.48C125.007 11.46 125.047 11.39 125.047 11.27C125.007 11.19 124.987 11.12 124.987 11.06C124.967 10.98 124.997 10.91 125.077 10.85C125.117 10.77 125.167 10.75 125.227 10.79C125.367 10.85 125.527 10.83 125.707 10.73C125.787 10.69 125.837 10.67 125.857 10.67C125.917 10.67 125.947 10.67 125.947 10.67C125.967 10.65 126.027 10.64 126.127 10.64C126.247 10.66 126.357 10.62 126.457 10.52C126.597 10.38 126.767 10.31 126.967 10.31H128.827C129.287 10.33 129.747 10.33 130.207 10.31C130.667 10.29 131.117 10.28 131.557 10.28C131.657 10.28 131.737 10.28 131.797 10.28C131.877 10.26 131.957 10.24 132.037 10.22C132.157 10.16 132.297 10.13 132.457 10.13H133.147C133.307 10.13 133.447 10.13 133.567 10.13C133.707 10.11 133.847 10.09 133.987 10.07C134.067 10.05 134.137 10.04 134.197 10.04C134.277 10.04 134.357 10.04 134.437 10.04C134.517 10.04 134.597 10.04 134.677 10.04C134.757 10.04 134.837 10.03 134.917 10.01C135.077 9.99 135.247 9.98 135.427 9.98C135.607 9.96 135.777 9.95 135.937 9.95C136.017 9.95 136.087 9.95 136.147 9.95C136.227 9.93 136.307 9.91 136.387 9.89C136.547 9.85 136.697 9.83 136.837 9.83C136.997 9.81 137.147 9.79 137.287 9.77C137.447 9.75 137.597 9.73 137.737 9.71C137.897 9.69 138.047 9.67 138.187 9.65C138.367 9.65 138.497 9.67 138.577 9.71C138.697 9.79 138.807 9.86 138.907 9.92C139.027 9.98 139.137 10.06 139.237 10.16C139.317 10.24 139.367 10.31 139.387 10.37C139.407 10.45 139.427 10.53 139.447 10.61C139.467 10.69 139.487 10.78 139.507 10.88V11.09C139.487 11.19 139.467 11.3 139.447 11.42C139.447 11.52 139.437 11.63 139.417 11.75C139.377 11.83 139.327 11.9 139.267 11.96L138.727 12.5C138.527 12.56 138.327 12.6 138.127 12.62C137.947 12.64 137.757 12.64 137.557 12.62H137.347C137.247 12.64 137.147 12.65 137.047 12.65C136.947 12.65 136.847 12.64 136.747 12.62C136.627 12.6 136.507 12.6 136.387 12.62C136.267 12.62 136.147 12.62 136.027 12.62C135.947 12.62 135.867 12.63 135.787 12.65C135.727 12.65 135.657 12.64 135.577 12.62C135.477 12.6 135.377 12.6 135.277 12.62C135.197 12.62 135.107 12.63 135.007 12.65C134.927 12.65 134.837 12.66 134.737 12.68C134.657 12.68 134.567 12.68 134.467 12.68C134.207 12.72 133.927 12.74 133.627 12.74C133.347 12.74 133.067 12.76 132.787 12.8C132.607 12.78 132.437 12.79 132.277 12.83C132.117 12.85 131.947 12.87 131.767 12.89C131.607 12.91 131.437 12.92 131.257 12.92C131.077 12.92 130.907 12.94 130.747 12.98C130.547 12.98 130.347 13.01 130.147 13.07C129.967 13.11 129.777 13.14 129.577 13.16L129.367 13.19C129.227 13.19 129.097 13.21 128.977 13.25C128.857 13.27 128.727 13.3 128.587 13.34C128.507 13.36 128.427 13.38 128.347 13.4C128.267 13.4 128.177 13.41 128.077 13.43C128.017 13.43 127.947 13.45 127.867 13.49C127.807 13.51 127.777 13.57 127.777 13.67L127.867 13.94C127.887 13.98 127.877 14.08 127.837 14.24C127.817 14.4 127.797 14.52 127.777 14.6C127.777 14.66 127.787 14.72 127.807 14.78C127.827 14.84 127.847 14.9 127.867 14.96C127.927 15.12 127.957 15.3 127.957 15.5C127.957 15.68 127.977 15.85 128.017 16.01C128.037 16.09 128.047 16.18 128.047 16.28C128.047 16.36 128.057 16.45 128.077 16.55C128.077 16.59 128.077 16.64 128.077 16.7C128.097 16.74 128.107 16.79 128.107 16.85C128.107 16.91 128.097 16.95 128.077 16.97C128.017 17.05 127.987 17.14 127.987 17.24C127.987 17.34 127.987 17.44 127.987 17.54C128.087 17.74 128.137 17.94 128.137 18.14C128.137 18.34 128.137 18.54 128.137 18.74C128.137 18.8 128.187 18.82 128.287 18.8H128.317C128.357 18.72 128.397 18.66 128.437 18.62C128.497 18.62 128.567 18.6 128.647 18.56C128.707 18.52 128.787 18.5 128.887 18.5C129.047 18.52 129.197 18.52 129.337 18.5C129.477 18.46 129.617 18.42 129.757 18.38C130.697 18.14 131.577 17.83 132.397 17.45C132.617 17.35 132.847 17.27 133.087 17.21C133.327 17.13 133.567 17.08 133.807 17.06H133.897C134.077 17.04 134.257 17.02 134.437 17C134.617 16.98 134.797 16.97 134.977 16.97C135.217 16.95 135.447 16.92 135.667 16.88C135.907 16.84 136.147 16.81 136.387 16.79C136.527 16.75 136.657 16.72 136.777 16.7C136.897 16.66 137.027 16.61 137.167 16.55C137.427 16.45 137.667 16.4 137.887 16.4C138.047 16.42 138.197 16.46 138.337 16.52C138.477 16.56 138.617 16.62 138.757 16.7C139.057 16.9 139.207 17.2 139.207 17.6C139.207 17.76 139.187 17.92 139.147 18.08C139.127 18.24 139.117 18.4 139.117 18.56C139.117 18.6 139.097 18.64 139.057 18.68L138.967 18.83C138.947 18.91 138.927 18.99 138.907 19.07C138.887 19.15 138.837 19.21 138.757 19.25C138.637 19.35 138.507 19.46 138.367 19.58C138.247 19.68 138.107 19.75 137.947 19.79C137.867 19.81 137.787 19.83 137.707 19.85C137.647 19.87 137.577 19.88 137.497 19.88C137.177 19.88 136.847 19.9 136.507 19.94C136.187 19.98 135.857 20.02 135.517 20.06C135.257 20.08 134.997 20.11 134.737 20.15C134.497 20.19 134.247 20.21 133.987 20.21C133.747 20.21 133.477 20.26 133.177 20.36C132.977 20.4 132.767 20.44 132.547 20.48C132.327 20.52 132.107 20.55 131.887 20.57C131.727 20.59 131.557 20.62 131.377 20.66C131.217 20.68 131.057 20.7 130.897 20.72L130.387 20.81C130.347 20.83 130.287 20.84 130.207 20.84C130.067 20.88 129.927 20.91 129.787 20.93C129.647 20.95 129.507 20.98 129.367 21.02C129.227 21.04 129.087 21.07 128.947 21.11C128.827 21.15 128.697 21.19 128.557 21.23C128.457 21.25 128.377 21.29 128.317 21.35C128.257 21.39 128.207 21.45 128.167 21.53C128.147 21.59 128.147 21.65 128.167 21.71C128.187 21.79 128.177 21.87 128.137 21.95C128.157 22.15 128.167 22.35 128.167 22.55C128.187 22.75 128.187 22.95 128.167 23.15C128.207 23.31 128.217 23.47 128.197 23.63C128.197 23.79 128.187 23.95 128.167 24.11C128.127 24.35 128.137 24.55 128.197 24.71C128.257 24.97 128.237 25.24 128.137 25.52C128.097 25.64 128.097 25.72 128.137 25.76C128.177 25.82 128.177 25.89 128.137 25.97V26.15C128.117 26.31 128.187 26.39 128.347 26.39H128.407C128.547 26.39 128.687 26.44 128.827 26.54C128.927 26.64 129.047 26.67 129.187 26.63L130.027 26.54C130.147 26.52 130.267 26.51 130.387 26.51C130.507 26.49 130.627 26.48 130.747 26.48C130.787 26.46 130.847 26.47 130.927 26.51C131.027 26.57 131.117 26.58 131.197 26.54C131.237 26.5 131.287 26.47 131.347 26.45C131.427 26.43 131.487 26.4 131.527 26.36C131.647 26.24 131.797 26.2 131.977 26.24C132.137 26.28 132.267 26.27 132.367 26.21C132.547 26.15 132.717 26.13 132.877 26.15C132.977 26.17 133.077 26.16 133.177 26.12C133.277 26.08 133.377 26.06 133.477 26.06C133.517 26.06 133.547 26.07 133.567 26.09C133.587 26.09 133.607 26.08 133.627 26.06C133.667 26.06 133.707 26.05 133.747 26.03C133.787 26.01 133.817 26 133.837 26C133.977 25.94 134.107 25.92 134.227 25.94C134.327 25.94 134.377 25.94 134.377 25.94C134.457 25.92 134.527 25.92 134.587 25.94C134.667 25.96 134.737 25.99 134.797 26.03C134.897 26.05 134.977 26.08 135.037 26.12C135.117 26.16 135.197 26.19 135.277 26.21C135.317 26.21 135.347 26.22 135.367 26.24C135.467 26.32 135.587 26.39 135.727 26.45C135.887 26.51 135.977 26.58 135.997 26.66C136.037 26.78 136.057 26.9 136.057 27.02C136.057 27.12 136.067 27.23 136.087 27.35C136.087 27.41 136.077 27.47 136.057 27.53C136.057 27.59 136.047 27.65 136.027 27.71C135.987 27.79 135.937 27.88 135.877 27.98C135.837 28.08 135.777 28.17 135.697 28.25C135.657 28.29 135.617 28.33 135.577 28.37C135.557 28.41 135.527 28.45 135.487 28.49C135.407 28.57 135.317 28.64 135.217 28.7C135.117 28.76 135.007 28.79 134.887 28.79C134.807 28.79 134.747 28.8 134.707 28.82C134.627 28.86 134.547 28.88 134.467 28.88C134.387 28.88 134.297 28.88 134.197 28.88C134.057 28.9 133.917 28.92 133.777 28.94C133.657 28.94 133.527 28.93 133.387 28.91C133.307 28.89 133.237 28.89 133.177 28.91C132.977 28.97 132.777 28.98 132.577 28.94C132.377 28.94 132.177 28.95 131.977 28.97C131.797 28.97 131.617 28.97 131.437 28.97H131.047C130.987 28.97 130.937 28.98 130.897 29C130.817 29.04 130.717 29.06 130.597 29.06C130.497 29.06 130.397 29.05 130.297 29.03H129.997C129.977 29.03 129.947 29.03 129.907 29.03C129.867 29.05 129.827 29.05 129.787 29.03C129.727 29.01 129.667 29 129.607 29C129.567 29.02 129.517 29.04 129.457 29.06C129.417 29.06 129.377 29.06 129.337 29.06C129.317 29.08 129.287 29.09 129.247 29.09C129.047 29.07 128.857 29.07 128.677 29.09C128.497 29.13 128.307 29.17 128.107 29.21ZM161.754 29.9C161.374 29.86 161.064 29.72 160.824 29.48C160.504 29.16 160.284 28.77 160.164 28.31C160.084 27.91 159.964 27.52 159.804 27.14L159.354 25.94C159.234 25.62 159.114 25.31 158.994 25.01C158.874 24.71 158.754 24.41 158.634 24.11L158.454 23.6C158.414 23.52 158.374 23.45 158.334 23.39C158.314 23.31 158.284 23.23 158.244 23.15C158.204 23.05 158.154 22.95 158.094 22.85C158.054 22.73 158.004 22.62 157.944 22.52C157.864 22.3 157.784 22.08 157.704 21.86C157.624 21.64 157.534 21.42 157.434 21.2C157.414 21.16 157.394 21.12 157.374 21.08C157.354 21.02 157.324 20.96 157.284 20.9C157.164 20.62 157.034 20.34 156.894 20.06C156.774 19.76 156.644 19.46 156.504 19.16L155.604 17.09C155.464 16.75 155.314 16.41 155.154 16.07C155.014 15.73 154.874 15.39 154.734 15.05L154.554 14.54C154.534 14.48 154.514 14.42 154.494 14.36C154.474 14.3 154.444 14.24 154.404 14.18C154.404 14.14 154.394 14.1 154.374 14.06C154.354 14.02 154.344 13.99 154.344 13.97C154.304 13.81 154.244 13.66 154.164 13.52C154.104 13.36 154.034 13.21 153.954 13.07L153.804 12.74C153.784 12.68 153.754 12.62 153.714 12.56C153.694 12.5 153.664 12.44 153.624 12.38C153.644 12.28 153.654 12.18 153.654 12.08C153.654 11.98 153.664 11.89 153.684 11.81C153.744 11.53 153.784 11.38 153.804 11.36C153.824 11.32 153.954 11.21 154.194 11.03C154.214 11.01 154.264 10.98 154.344 10.94C154.484 10.84 154.614 10.8 154.734 10.82C154.814 10.82 154.884 10.81 154.944 10.79C155.024 10.75 155.104 10.74 155.184 10.76C155.304 10.76 155.384 10.77 155.424 10.79C155.544 10.83 155.614 10.85 155.634 10.85C155.814 10.89 155.934 10.97 155.994 11.09C156.014 11.11 156.034 11.13 156.054 11.15C156.074 11.17 156.094 11.19 156.114 11.21C156.334 11.39 156.464 11.62 156.504 11.9C156.544 12.04 156.584 12.19 156.624 12.35C156.684 12.49 156.744 12.63 156.804 12.77C156.904 12.99 157.004 13.22 157.104 13.46C157.204 13.7 157.294 13.93 157.374 14.15C157.494 14.41 157.604 14.67 157.704 14.93C157.824 15.19 157.944 15.46 158.064 15.74C158.164 15.96 158.264 16.19 158.364 16.43C158.464 16.65 158.554 16.87 158.634 17.09C158.714 17.25 158.784 17.42 158.844 17.6C158.924 17.76 158.994 17.93 159.054 18.11L159.084 18.23C159.244 18.55 159.384 18.88 159.504 19.22C159.644 19.54 159.784 19.87 159.924 20.21C159.964 20.27 159.994 20.33 160.014 20.39C160.034 20.45 160.054 20.51 160.074 20.57C160.154 20.65 160.214 20.75 160.254 20.87C160.314 20.99 160.364 21.1 160.404 21.2C160.464 21.36 160.524 21.52 160.584 21.68C160.644 21.82 160.714 21.97 160.794 22.13C160.834 22.27 160.884 22.4 160.944 22.52C161.024 22.62 161.104 22.73 161.184 22.85C161.224 22.87 161.264 22.86 161.304 22.82C161.384 22.66 161.454 22.51 161.514 22.37C161.594 22.21 161.664 22.05 161.724 21.89C161.784 21.71 161.844 21.54 161.904 21.38C161.984 21.2 162.054 21.02 162.114 20.84C162.114 20.82 162.114 20.81 162.114 20.81C162.134 20.81 162.144 20.8 162.144 20.78C162.244 20.48 162.344 20.18 162.444 19.88C162.544 19.58 162.634 19.28 162.714 18.98L163.164 17.3C163.284 16.84 163.404 16.38 163.524 15.92C163.644 15.46 163.774 15.01 163.914 14.57C163.934 14.47 163.954 14.38 163.974 14.3C164.014 14.22 164.044 14.14 164.064 14.06L164.694 12.5C164.734 12.4 164.774 12.32 164.814 12.26C164.854 12.18 164.884 12.1 164.904 12.02C165.004 11.86 165.084 11.69 165.144 11.51C165.204 11.33 165.264 11.15 165.324 10.97C165.344 10.89 165.364 10.82 165.384 10.76C165.404 10.68 165.404 10.6 165.384 10.52C165.364 10.46 165.374 10.37 165.414 10.25L165.594 9.83C165.714 9.51 165.924 9.29 166.224 9.17C166.324 9.11 166.424 9.06 166.524 9.02C166.624 8.94 166.724 8.92 166.824 8.96C166.964 8.98 167.094 9 167.214 9.02C167.354 9.04 167.484 9.07 167.604 9.11C167.764 9.17 167.884 9.27 167.964 9.41C168.004 9.45 168.034 9.49 168.054 9.53C168.074 9.57 168.094 9.61 168.114 9.65L168.204 9.89C168.244 9.93 168.274 9.97 168.294 10.01C168.334 10.03 168.354 10.07 168.354 10.13C168.354 10.21 168.354 10.29 168.354 10.37C168.374 10.43 168.384 10.51 168.384 10.61C168.284 11.03 168.164 11.41 168.024 11.75C168.004 11.83 167.974 11.92 167.934 12.02C167.894 12.1 167.854 12.19 167.814 12.29C167.794 12.31 167.784 12.34 167.784 12.38C167.644 12.64 167.524 12.91 167.424 13.19C167.344 13.45 167.244 13.72 167.124 14C167.044 14.2 166.964 14.4 166.884 14.6C166.824 14.78 166.754 14.97 166.674 15.17C166.594 15.37 166.524 15.57 166.464 15.77C166.424 15.97 166.384 16.17 166.344 16.37C166.324 16.45 166.304 16.53 166.284 16.61C166.264 16.67 166.244 16.73 166.224 16.79C166.164 17.05 166.104 17.31 166.044 17.57C165.984 17.83 165.914 18.09 165.834 18.35C165.794 18.55 165.744 18.74 165.684 18.92C165.624 19.1 165.574 19.28 165.534 19.46C165.534 19.48 165.524 19.5 165.504 19.52C165.504 19.54 165.504 19.56 165.504 19.58C165.424 19.7 165.364 19.82 165.324 19.94C165.304 20.06 165.274 20.18 165.234 20.3C165.194 20.42 165.144 20.55 165.084 20.69C165.044 20.81 164.994 20.93 164.934 21.05C164.794 21.31 164.714 21.58 164.694 21.86C164.674 21.9 164.654 21.95 164.634 22.01C164.634 22.07 164.614 22.13 164.574 22.19L164.214 23.09C164.174 23.17 164.144 23.24 164.124 23.3C164.044 23.6 163.964 23.91 163.884 24.23C163.804 24.53 163.714 24.83 163.614 25.13C163.534 25.41 163.474 25.7 163.434 26C163.394 26.3 163.354 26.59 163.314 26.87C163.274 27.21 163.284 27.51 163.344 27.77C163.364 27.87 163.374 27.98 163.374 28.1C163.374 28.22 163.374 28.33 163.374 28.43C163.394 28.63 163.344 28.81 163.224 28.97C163.184 29.01 163.144 29.09 163.104 29.21C162.904 29.59 162.584 29.81 162.144 29.87C162.084 29.87 162.024 29.87 161.964 29.87C161.904 29.89 161.834 29.9 161.754 29.9ZM176.661 29.6C176.461 29.58 176.261 29.55 176.061 29.51C175.881 29.49 175.701 29.44 175.521 29.36L174.771 29.09C174.511 28.99 174.271 28.88 174.051 28.76C173.831 28.62 173.611 28.48 173.391 28.34C173.291 28.24 173.191 28.15 173.091 28.07C172.991 27.97 172.891 27.88 172.791 27.8C172.631 27.64 172.471 27.48 172.311 27.32C172.151 27.14 172.001 26.95 171.861 26.75L171.141 25.64C170.961 25.36 170.801 25.07 170.661 24.77C170.521 24.45 170.401 24.13 170.301 23.81C170.081 23.21 169.971 22.62 169.971 22.04V21.56C169.971 21.06 170.001 20.57 170.061 20.09C170.101 19.69 170.191 19.33 170.331 19.01C170.411 18.81 170.481 18.61 170.541 18.41C170.601 18.21 170.671 18.02 170.751 17.84L170.841 17.63C170.881 17.37 170.971 17.14 171.111 16.94C171.251 16.72 171.371 16.51 171.471 16.31C171.551 16.15 171.641 16.01 171.741 15.89C171.841 15.75 171.931 15.61 172.011 15.47C172.051 15.41 172.101 15.36 172.161 15.32C172.221 15.26 172.271 15.2 172.311 15.14C172.351 15.1 172.381 15.05 172.401 14.99C172.441 14.91 172.471 14.84 172.491 14.78C172.531 14.72 172.601 14.64 172.701 14.54C172.821 14.48 172.931 14.34 173.031 14.12C173.071 14.04 173.111 13.98 173.151 13.94C173.271 13.84 173.371 13.72 173.451 13.58C173.551 13.44 173.661 13.31 173.781 13.19C173.861 13.11 173.901 13 173.901 12.86C173.901 12.76 173.901 12.67 173.901 12.59C173.921 12.49 173.921 12.4 173.901 12.32C173.881 12.22 173.911 12.13 173.991 12.05C174.031 12.01 174.061 11.96 174.081 11.9C174.101 11.84 174.121 11.78 174.141 11.72C174.201 11.52 174.361 11.35 174.621 11.21C174.661 11.17 174.711 11.15 174.771 11.15C174.851 11.13 174.921 11.11 174.981 11.09C175.121 11.03 175.281 11.02 175.461 11.06C175.541 11.08 175.611 11.09 175.671 11.09C175.731 11.07 175.791 11.05 175.851 11.03C175.931 10.99 176.001 10.96 176.061 10.94C176.141 10.92 176.211 10.9 176.271 10.88C176.551 10.78 176.841 10.79 177.141 10.91C177.461 11.03 177.691 11.24 177.831 11.54C177.871 11.64 177.911 11.74 177.951 11.84C177.991 11.94 178.021 12.04 178.041 12.14C178.081 12.36 178.071 12.55 178.011 12.71C177.971 12.79 177.951 12.84 177.951 12.86C177.931 12.94 177.951 13.01 178.011 13.07C178.051 13.13 178.101 13.18 178.161 13.22C178.381 13.42 178.591 13.62 178.791 13.82C178.991 14 179.181 14.2 179.361 14.42C179.521 14.58 179.651 14.75 179.751 14.93C179.871 15.09 179.981 15.27 180.081 15.47C180.121 15.57 180.171 15.68 180.231 15.8C180.291 15.9 180.351 16 180.411 16.1C180.511 16.28 180.591 16.47 180.651 16.67C180.731 16.87 180.811 17.07 180.891 17.27V17.3C180.931 17.44 180.961 17.59 180.981 17.75C181.021 17.89 181.081 18.04 181.161 18.2C181.221 18.34 181.271 18.49 181.311 18.65C181.351 18.79 181.391 18.94 181.431 19.1C181.471 19.28 181.511 19.46 181.551 19.64C181.611 19.82 181.651 20 181.671 20.18C181.691 20.26 181.711 20.34 181.731 20.42C181.751 20.48 181.771 20.55 181.791 20.63C181.831 20.81 181.871 20.99 181.911 21.17C181.951 21.35 181.981 21.53 182.001 21.71L182.091 21.92C182.131 22.04 182.171 22.2 182.211 22.4C182.271 22.66 182.301 22.92 182.301 23.18C182.321 23.44 182.321 23.71 182.301 23.99C182.301 24.13 182.291 24.24 182.271 24.32C182.151 24.74 182.001 25.17 181.821 25.61C181.741 25.75 181.661 25.89 181.581 26.03C181.501 26.15 181.421 26.28 181.341 26.42L181.071 26.84C180.971 27.02 180.861 27.18 180.741 27.32C180.541 27.64 180.301 27.92 180.021 28.16C179.741 28.4 179.441 28.63 179.121 28.85C178.421 29.39 177.601 29.64 176.661 29.6ZM176.541 26.63C176.961 26.63 177.321 26.51 177.621 26.27C177.721 26.17 177.821 26.08 177.921 26C178.041 25.9 178.141 25.8 178.221 25.7C178.601 25.28 178.901 24.84 179.121 24.38L179.211 24.08C179.251 23.72 179.251 23.36 179.211 23L179.031 22.01C178.971 21.75 178.921 21.5 178.881 21.26C178.841 21 178.781 20.75 178.701 20.51C178.641 20.37 178.621 20.26 178.641 20.18C178.661 20.08 178.661 19.98 178.641 19.88C178.621 19.78 178.591 19.68 178.551 19.58C178.491 19.32 178.421 19.06 178.341 18.8C178.261 18.54 178.181 18.28 178.101 18.02C178.081 17.96 178.061 17.9 178.041 17.84C178.021 17.78 178.001 17.72 177.981 17.66C177.841 17.38 177.691 17.11 177.531 16.85C177.371 16.59 177.191 16.35 176.991 16.13C176.891 16.01 176.781 15.9 176.661 15.8C176.541 15.68 176.421 15.57 176.301 15.47C176.281 15.43 176.251 15.41 176.211 15.41C176.191 15.39 176.161 15.37 176.121 15.35C176.061 15.27 175.981 15.28 175.881 15.38C175.781 15.48 175.671 15.59 175.551 15.71C175.451 15.83 175.351 15.95 175.251 16.07C175.151 16.21 175.041 16.35 174.921 16.49C174.821 16.63 174.721 16.77 174.621 16.91C174.481 17.09 174.351 17.27 174.231 17.45C174.111 17.63 173.991 17.81 173.871 17.99C173.451 18.67 173.121 19.42 172.881 20.24C172.841 20.36 172.821 20.45 172.821 20.51C172.801 20.65 172.781 20.79 172.761 20.93C172.761 21.07 172.761 21.22 172.761 21.38V21.62C172.781 21.68 172.791 21.74 172.791 21.8C172.791 21.86 172.801 21.92 172.821 21.98C172.821 22.22 172.881 22.48 173.001 22.76C173.161 23.16 173.341 23.55 173.541 23.93C173.741 24.31 173.971 24.67 174.231 25.01C174.291 25.09 174.351 25.17 174.411 25.25C174.491 25.33 174.561 25.41 174.621 25.49C174.801 25.69 174.991 25.87 175.191 26.03C175.411 26.19 175.631 26.33 175.851 26.45C176.091 26.57 176.321 26.63 176.541 26.63ZM190.495 29.15C190.415 29.15 190.345 29.15 190.285 29.15C190.225 29.15 190.155 29.14 190.075 29.12C190.035 29.12 189.985 29.11 189.925 29.09C189.885 29.09 189.845 29.09 189.805 29.09C189.485 29.07 189.185 29.01 188.905 28.91C188.625 28.81 188.345 28.69 188.065 28.55C188.045 28.55 188.025 28.55 188.005 28.55C188.005 28.53 187.995 28.52 187.975 28.52C187.775 28.42 187.595 28.3 187.435 28.16C187.295 28.02 187.155 27.88 187.015 27.74C186.855 27.54 186.745 27.35 186.685 27.17C186.605 27.01 186.505 26.84 186.385 26.66C186.185 26.44 186.035 26.16 185.935 25.82C185.875 25.66 185.815 25.5 185.755 25.34C185.695 25.18 185.645 25.01 185.605 24.83C185.585 24.77 185.565 24.71 185.545 24.65C185.525 24.57 185.495 24.49 185.455 24.41C185.415 24.31 185.375 24.2 185.335 24.08C185.315 23.96 185.285 23.84 185.245 23.72C185.225 23.64 185.195 23.51 185.155 23.33C185.135 23.13 185.125 23.01 185.125 22.97V21.68C185.145 21.56 185.165 21.45 185.185 21.35C185.205 21.23 185.225 21.11 185.245 20.99L185.275 20.96C185.275 20.98 185.275 20.99 185.275 20.99C185.295 20.99 185.305 21 185.305 21.02C185.325 21.02 185.335 21.03 185.335 21.05C185.355 21.07 185.365 21.06 185.365 21.02C185.365 20.9 185.355 20.8 185.335 20.72C185.335 20.68 185.325 20.64 185.305 20.6C185.305 20.56 185.345 20.53 185.425 20.51C185.445 20.51 185.455 20.48 185.455 20.42L185.725 19.1C185.745 19 185.765 18.91 185.785 18.83C185.805 18.73 185.825 18.64 185.845 18.56L185.905 18.23C185.885 18.27 185.895 18.2 185.935 18.02C185.995 17.84 186.035 17.72 186.055 17.66C186.095 17.56 186.145 17.46 186.205 17.36C186.285 17.26 186.335 17.19 186.355 17.15C186.515 16.97 186.665 16.72 186.805 16.4L187.375 15.5C187.455 15.42 187.495 15.32 187.495 15.2C187.475 15.1 187.505 14.99 187.585 14.87C187.645 14.75 187.705 14.63 187.765 14.51C187.845 14.39 187.925 14.27 188.005 14.15C188.105 13.99 188.215 13.83 188.335 13.67C188.475 13.49 188.605 13.33 188.725 13.19C188.765 13.13 188.805 13.07 188.845 13.01C188.905 12.95 188.975 12.91 189.055 12.89C189.095 12.89 189.125 12.88 189.145 12.86C189.165 12.84 189.185 12.82 189.205 12.8C189.605 12.38 190.055 11.99 190.555 11.63C190.595 11.59 190.635 11.55 190.675 11.51C190.715 11.47 190.755 11.44 190.795 11.42C190.895 11.36 191.005 11.33 191.125 11.33C191.225 11.33 191.305 11.32 191.365 11.3C191.425 11.3 191.515 11.28 191.635 11.24C191.775 11.2 191.885 11.22 191.965 11.3C192.085 11.42 192.285 11.46 192.565 11.42C192.745 11.4 192.895 11.5 193.015 11.72C193.055 11.78 193.085 11.84 193.105 11.9C193.145 11.96 193.195 12.01 193.255 12.05C193.315 12.17 193.395 12.28 193.495 12.38C193.615 12.48 193.715 12.58 193.795 12.68L194.185 13.22C194.225 13.28 194.265 13.35 194.305 13.43C194.365 13.49 194.415 13.55 194.455 13.61C194.555 13.71 194.615 13.81 194.635 13.91C194.675 14.01 194.705 14.08 194.725 14.12C194.765 14.14 194.795 14.23 194.815 14.39C194.835 14.47 194.835 14.52 194.815 14.54C194.815 14.54 194.855 14.54 194.935 14.54C195.015 14.54 195.055 14.59 195.055 14.69C195.055 14.91 195.015 15.1 194.935 15.26C194.895 15.32 194.855 15.35 194.815 15.35C194.795 15.35 194.765 15.37 194.725 15.41C194.665 15.51 194.595 15.61 194.515 15.71C194.455 15.81 194.385 15.92 194.305 16.04C194.245 16.14 194.165 16.23 194.065 16.31C193.985 16.39 193.895 16.47 193.795 16.55C193.635 16.71 193.445 16.77 193.225 16.73C193.045 16.73 192.915 16.72 192.835 16.7C192.775 16.68 192.715 16.66 192.655 16.64C192.615 16.6 192.565 16.57 192.505 16.55C192.465 16.55 192.425 16.53 192.385 16.49C192.365 16.45 192.345 16.42 192.325 16.4C192.305 16.36 192.275 16.33 192.235 16.31C192.135 16.25 192.055 16.18 191.995 16.1C191.935 16 191.885 15.91 191.845 15.83C191.825 15.77 191.815 15.71 191.815 15.65C191.815 15.59 191.815 15.54 191.815 15.5C191.795 15.38 191.775 15.26 191.755 15.14C191.755 15.02 191.735 14.9 191.695 14.78C191.695 14.74 191.645 14.72 191.545 14.72C191.425 14.8 191.305 14.88 191.185 14.96C191.065 15.04 190.955 15.14 190.855 15.26L189.925 16.37C189.865 16.43 189.805 16.5 189.745 16.58C189.705 16.64 189.665 16.7 189.625 16.76C189.545 16.86 189.465 16.97 189.385 17.09C189.325 17.19 189.245 17.29 189.145 17.39C189.105 17.43 189.075 17.47 189.055 17.51C188.995 17.65 188.925 17.78 188.845 17.9C188.785 18.02 188.725 18.16 188.665 18.32C188.565 18.52 188.475 18.74 188.395 18.98C188.335 19.2 188.285 19.43 188.245 19.67C188.225 19.97 188.165 20.27 188.065 20.57C188.045 20.67 188.025 20.78 188.005 20.9C187.985 21.02 187.965 21.14 187.945 21.26C187.925 21.44 187.895 21.62 187.855 21.8C187.815 21.98 187.805 22.17 187.825 22.37C187.865 22.77 187.925 23.15 188.005 23.51C188.065 23.71 188.115 23.91 188.155 24.11C188.215 24.29 188.275 24.48 188.335 24.68C188.355 24.74 188.375 24.8 188.395 24.86C188.415 24.92 188.435 24.98 188.455 25.04C188.575 25.32 188.795 25.54 189.115 25.7C189.235 25.76 189.365 25.79 189.505 25.79C189.625 25.79 189.745 25.8 189.865 25.82C189.985 25.82 190.105 25.81 190.225 25.79C190.785 25.73 191.305 25.64 191.785 25.52C192.005 25.48 192.215 25.42 192.415 25.34C192.615 25.26 192.815 25.18 193.015 25.1C193.175 25.04 193.325 24.95 193.465 24.83C193.625 24.71 193.785 24.59 193.945 24.47C194.125 24.33 194.295 24.19 194.455 24.05C194.615 23.91 194.775 23.77 194.935 23.63C195.095 23.49 195.245 23.34 195.385 23.18C195.445 23.12 195.535 23.05 195.655 22.97C195.715 22.93 195.775 22.89 195.835 22.85C195.895 22.81 195.945 22.77 195.985 22.73C196.085 22.67 196.175 22.61 196.255 22.55C196.355 22.49 196.465 22.46 196.585 22.46C196.645 22.42 196.705 22.4 196.765 22.4C196.845 22.38 196.915 22.36 196.975 22.34C197.155 22.28 197.315 22.28 197.455 22.34C197.515 22.36 197.575 22.38 197.635 22.4C197.695 22.42 197.755 22.45 197.815 22.49C197.975 22.59 198.125 22.75 198.265 22.97C198.365 23.21 198.415 23.42 198.415 23.6V23.78C198.415 24.04 198.315 24.27 198.115 24.47C197.895 24.75 197.665 24.97 197.425 25.13C197.285 25.21 197.145 25.32 197.005 25.46C196.805 25.62 196.595 25.79 196.375 25.97C196.175 26.15 195.965 26.32 195.745 26.48L195.625 26.6C195.565 26.64 195.505 26.69 195.445 26.75C195.385 26.81 195.315 26.86 195.235 26.9C195.095 27.04 194.935 27.17 194.755 27.29C194.575 27.39 194.395 27.49 194.215 27.59C194.035 27.67 193.865 27.79 193.705 27.95C193.645 28.01 193.585 28.07 193.525 28.13C193.465 28.19 193.395 28.24 193.315 28.28C193.055 28.42 192.755 28.56 192.415 28.7C192.395 28.72 192.365 28.74 192.325 28.76C192.285 28.78 192.245 28.8 192.205 28.82C192.085 28.88 191.955 28.93 191.815 28.97C191.695 28.99 191.575 29.01 191.455 29.03C191.295 29.05 191.135 29.06 190.975 29.06C190.815 29.08 190.655 29.11 190.495 29.15ZM204.806 29.21C204.686 29.21 204.606 29.2 204.566 29.18C204.466 29.14 204.366 29.12 204.266 29.12C204.186 29.14 204.096 29.15 203.996 29.15C203.976 29.15 203.956 29.15 203.936 29.15C203.916 29.17 203.896 29.18 203.876 29.18C203.736 29.2 203.596 29.21 203.456 29.21C203.336 29.21 203.216 29.19 203.096 29.15C203.076 29.13 203.056 29.12 203.036 29.12C202.896 29.14 202.776 29.1 202.676 29C202.576 28.9 202.476 28.81 202.376 28.73C202.276 28.63 202.226 28.52 202.226 28.4L202.136 28.16C202.076 28.02 202.056 27.89 202.076 27.77C202.096 27.73 202.096 27.69 202.076 27.65C202.076 27.61 202.076 27.57 202.076 27.53C202.056 27.49 202.046 27.45 202.046 27.41C202.046 27.35 202.036 27.3 202.016 27.26C201.976 27.08 201.946 26.9 201.926 26.72C201.926 26.52 201.936 26.33 201.956 26.15C201.976 26.03 202.046 25.83 202.166 25.55C202.286 25.25 202.356 25.07 202.376 25.01C202.436 24.91 202.466 24.83 202.466 24.77C202.446 24.55 202.436 24.33 202.436 24.11C202.456 23.87 202.466 23.64 202.466 23.42C202.466 23.28 202.496 23.17 202.556 23.09C202.636 22.95 202.646 22.8 202.586 22.64L202.496 22.31C202.376 22.09 202.386 21.9 202.526 21.74C202.526 21.72 202.526 21.71 202.526 21.71C202.546 21.69 202.556 21.67 202.556 21.65C202.596 21.61 202.606 21.56 202.586 21.5C202.566 21.42 202.556 21.36 202.556 21.32C202.556 21.24 202.566 21.16 202.586 21.08C202.626 20.98 202.636 20.89 202.616 20.81C202.616 20.81 202.596 20.79 202.556 20.75C202.536 20.71 202.526 20.63 202.526 20.51C202.546 20.39 202.556 20.32 202.556 20.3V19.46C202.576 19.36 202.586 19.27 202.586 19.19C202.586 19.09 202.596 18.99 202.616 18.89C202.636 18.77 202.636 18.65 202.616 18.53C202.616 18.39 202.616 18.25 202.616 18.11C202.596 18.01 202.576 17.9 202.556 17.78C202.556 17.66 202.556 17.54 202.556 17.42C202.536 17.38 202.526 17.33 202.526 17.27C202.526 17.21 202.526 17.16 202.526 17.12C202.506 17.02 202.486 16.92 202.466 16.82C202.466 16.72 202.466 16.62 202.466 16.52C202.466 16.48 202.426 16.35 202.346 16.13C202.266 15.89 202.236 15.69 202.256 15.53C202.276 15.49 202.286 15.44 202.286 15.38C202.286 15.32 202.266 15.27 202.226 15.23C202.186 15.21 202.166 15.17 202.166 15.11V15.02C202.226 14.78 202.196 14.54 202.076 14.3C201.996 14.18 201.966 14.06 201.986 13.94C201.986 13.78 201.916 13.66 201.776 13.58C201.676 13.48 201.586 13.36 201.506 13.22C201.426 13.08 201.376 12.94 201.356 12.8C201.336 12.7 201.326 12.6 201.326 12.5C201.326 12.4 201.326 12.31 201.326 12.23C201.326 12.15 201.336 12.1 201.356 12.08C201.436 12 201.476 11.91 201.476 11.81C201.476 11.69 201.486 11.6 201.506 11.54C201.526 11.52 201.546 11.51 201.566 11.51C201.586 11.51 201.606 11.5 201.626 11.48C201.706 11.46 201.746 11.39 201.746 11.27C201.706 11.19 201.686 11.12 201.686 11.06C201.666 10.98 201.696 10.91 201.776 10.85C201.816 10.77 201.866 10.75 201.926 10.79C202.066 10.85 202.226 10.83 202.406 10.73C202.486 10.69 202.536 10.67 202.556 10.67C202.616 10.67 202.646 10.67 202.646 10.67C202.666 10.65 202.726 10.64 202.826 10.64C202.946 10.66 203.056 10.62 203.156 10.52C203.296 10.38 203.466 10.31 203.666 10.31H205.526C205.986 10.33 206.446 10.33 206.906 10.31C207.366 10.29 207.816 10.28 208.256 10.28C208.356 10.28 208.436 10.28 208.496 10.28C208.576 10.26 208.656 10.24 208.736 10.22C208.856 10.16 208.996 10.13 209.156 10.13H209.846C210.006 10.13 210.146 10.13 210.266 10.13C210.406 10.11 210.546 10.09 210.686 10.07C210.766 10.05 210.836 10.04 210.896 10.04C210.976 10.04 211.056 10.04 211.136 10.04C211.216 10.04 211.296 10.04 211.376 10.04C211.456 10.04 211.536 10.03 211.616 10.01C211.776 9.99 211.946 9.98 212.126 9.98C212.306 9.96 212.476 9.95 212.636 9.95C212.716 9.95 212.786 9.95 212.846 9.95C212.926 9.93 213.006 9.91 213.086 9.89C213.246 9.85 213.396 9.83 213.536 9.83C213.696 9.81 213.846 9.79 213.986 9.77C214.146 9.75 214.296 9.73 214.436 9.71C214.596 9.69 214.746 9.67 214.886 9.65C215.066 9.65 215.196 9.67 215.276 9.71C215.396 9.79 215.506 9.86 215.606 9.92C215.726 9.98 215.836 10.06 215.936 10.16C216.016 10.24 216.066 10.31 216.086 10.37C216.106 10.45 216.126 10.53 216.146 10.61C216.166 10.69 216.186 10.78 216.206 10.88V11.09C216.186 11.19 216.166 11.3 216.146 11.42C216.146 11.52 216.136 11.63 216.116 11.75C216.076 11.83 216.026 11.9 215.966 11.96L215.426 12.5C215.226 12.56 215.026 12.6 214.826 12.62C214.646 12.64 214.456 12.64 214.256 12.62H214.046C213.946 12.64 213.846 12.65 213.746 12.65C213.646 12.65 213.546 12.64 213.446 12.62C213.326 12.6 213.206 12.6 213.086 12.62C212.966 12.62 212.846 12.62 212.726 12.62C212.646 12.62 212.566 12.63 212.486 12.65C212.426 12.65 212.356 12.64 212.276 12.62C212.176 12.6 212.076 12.6 211.976 12.62C211.896 12.62 211.806 12.63 211.706 12.65C211.626 12.65 211.536 12.66 211.436 12.68C211.356 12.68 211.266 12.68 211.166 12.68C210.906 12.72 210.626 12.74 210.326 12.74C210.046 12.74 209.766 12.76 209.486 12.8C209.306 12.78 209.136 12.79 208.976 12.83C208.816 12.85 208.646 12.87 208.466 12.89C208.306 12.91 208.136 12.92 207.956 12.92C207.776 12.92 207.606 12.94 207.446 12.98C207.246 12.98 207.046 13.01 206.846 13.07C206.666 13.11 206.476 13.14 206.276 13.16L206.066 13.19C205.926 13.19 205.796 13.21 205.676 13.25C205.556 13.27 205.426 13.3 205.286 13.34C205.206 13.36 205.126 13.38 205.046 13.4C204.966 13.4 204.876 13.41 204.776 13.43C204.716 13.43 204.646 13.45 204.566 13.49C204.506 13.51 204.476 13.57 204.476 13.67L204.566 13.94C204.586 13.98 204.576 14.08 204.536 14.24C204.516 14.4 204.496 14.52 204.476 14.6C204.476 14.66 204.486 14.72 204.506 14.78C204.526 14.84 204.546 14.9 204.566 14.96C204.626 15.12 204.656 15.3 204.656 15.5C204.656 15.68 204.676 15.85 204.716 16.01C204.736 16.09 204.746 16.18 204.746 16.28C204.746 16.36 204.756 16.45 204.776 16.55C204.776 16.59 204.776 16.64 204.776 16.7C204.796 16.74 204.806 16.79 204.806 16.85C204.806 16.91 204.796 16.95 204.776 16.97C204.716 17.05 204.686 17.14 204.686 17.24C204.686 17.34 204.686 17.44 204.686 17.54C204.786 17.74 204.836 17.94 204.836 18.14C204.836 18.34 204.836 18.54 204.836 18.74C204.836 18.8 204.886 18.82 204.986 18.8H205.016C205.056 18.72 205.096 18.66 205.136 18.62C205.196 18.62 205.266 18.6 205.346 18.56C205.406 18.52 205.486 18.5 205.586 18.5C205.746 18.52 205.896 18.52 206.036 18.5C206.176 18.46 206.316 18.42 206.456 18.38C207.396 18.14 208.276 17.83 209.096 17.45C209.316 17.35 209.546 17.27 209.786 17.21C210.026 17.13 210.266 17.08 210.506 17.06H210.596C210.776 17.04 210.956 17.02 211.136 17C211.316 16.98 211.496 16.97 211.676 16.97C211.916 16.95 212.146 16.92 212.366 16.88C212.606 16.84 212.846 16.81 213.086 16.79C213.226 16.75 213.356 16.72 213.476 16.7C213.596 16.66 213.726 16.61 213.866 16.55C214.126 16.45 214.366 16.4 214.586 16.4C214.746 16.42 214.896 16.46 215.036 16.52C215.176 16.56 215.316 16.62 215.456 16.7C215.756 16.9 215.906 17.2 215.906 17.6C215.906 17.76 215.886 17.92 215.846 18.08C215.826 18.24 215.816 18.4 215.816 18.56C215.816 18.6 215.796 18.64 215.756 18.68L215.666 18.83C215.646 18.91 215.626 18.99 215.606 19.07C215.586 19.15 215.536 19.21 215.456 19.25C215.336 19.35 215.206 19.46 215.066 19.58C214.946 19.68 214.806 19.75 214.646 19.79C214.566 19.81 214.486 19.83 214.406 19.85C214.346 19.87 214.276 19.88 214.196 19.88C213.876 19.88 213.546 19.9 213.206 19.94C212.886 19.98 212.556 20.02 212.216 20.06C211.956 20.08 211.696 20.11 211.436 20.15C211.196 20.19 210.946 20.21 210.686 20.21C210.446 20.21 210.176 20.26 209.876 20.36C209.676 20.4 209.466 20.44 209.246 20.48C209.026 20.52 208.806 20.55 208.586 20.57C208.426 20.59 208.256 20.62 208.076 20.66C207.916 20.68 207.756 20.7 207.596 20.72L207.086 20.81C207.046 20.83 206.986 20.84 206.906 20.84C206.766 20.88 206.626 20.91 206.486 20.93C206.346 20.95 206.206 20.98 206.066 21.02C205.926 21.04 205.786 21.07 205.646 21.11C205.526 21.15 205.396 21.19 205.256 21.23C205.156 21.25 205.076 21.29 205.016 21.35C204.956 21.39 204.906 21.45 204.866 21.53C204.846 21.59 204.846 21.65 204.866 21.71C204.886 21.79 204.876 21.87 204.836 21.95C204.856 22.15 204.866 22.35 204.866 22.55C204.886 22.75 204.886 22.95 204.866 23.15C204.906 23.31 204.916 23.47 204.896 23.63C204.896 23.79 204.886 23.95 204.866 24.11C204.826 24.35 204.836 24.55 204.896 24.71C204.956 24.97 204.936 25.24 204.836 25.52C204.796 25.64 204.796 25.72 204.836 25.76C204.876 25.82 204.876 25.89 204.836 25.97V26.15C204.816 26.31 204.886 26.39 205.046 26.39H205.106C205.246 26.39 205.386 26.44 205.526 26.54C205.626 26.64 205.746 26.67 205.886 26.63L206.726 26.54C206.846 26.52 206.966 26.51 207.086 26.51C207.206 26.49 207.326 26.48 207.446 26.48C207.486 26.46 207.546 26.47 207.626 26.51C207.726 26.57 207.816 26.58 207.896 26.54C207.936 26.5 207.986 26.47 208.046 26.45C208.126 26.43 208.186 26.4 208.226 26.36C208.346 26.24 208.496 26.2 208.676 26.24C208.836 26.28 208.966 26.27 209.066 26.21C209.246 26.15 209.416 26.13 209.576 26.15C209.676 26.17 209.776 26.16 209.876 26.12C209.976 26.08 210.076 26.06 210.176 26.06C210.216 26.06 210.246 26.07 210.266 26.09C210.286 26.09 210.306 26.08 210.326 26.06C210.366 26.06 210.406 26.05 210.446 26.03C210.486 26.01 210.516 26 210.536 26C210.676 25.94 210.806 25.92 210.926 25.94C211.026 25.94 211.076 25.94 211.076 25.94C211.156 25.92 211.226 25.92 211.286 25.94C211.366 25.96 211.436 25.99 211.496 26.03C211.596 26.05 211.676 26.08 211.736 26.12C211.816 26.16 211.896 26.19 211.976 26.21C212.016 26.21 212.046 26.22 212.066 26.24C212.166 26.32 212.286 26.39 212.426 26.45C212.586 26.51 212.676 26.58 212.696 26.66C212.736 26.78 212.756 26.9 212.756 27.02C212.756 27.12 212.766 27.23 212.786 27.35C212.786 27.41 212.776 27.47 212.756 27.53C212.756 27.59 212.746 27.65 212.726 27.71C212.686 27.79 212.636 27.88 212.576 27.98C212.536 28.08 212.476 28.17 212.396 28.25C212.356 28.29 212.316 28.33 212.276 28.37C212.256 28.41 212.226 28.45 212.186 28.49C212.106 28.57 212.016 28.64 211.916 28.7C211.816 28.76 211.706 28.79 211.586 28.79C211.506 28.79 211.446 28.8 211.406 28.82C211.326 28.86 211.246 28.88 211.166 28.88C211.086 28.88 210.996 28.88 210.896 28.88C210.756 28.9 210.616 28.92 210.476 28.94C210.356 28.94 210.226 28.93 210.086 28.91C210.006 28.89 209.936 28.89 209.876 28.91C209.676 28.97 209.476 28.98 209.276 28.94C209.076 28.94 208.876 28.95 208.676 28.97C208.496 28.97 208.316 28.97 208.136 28.97H207.746C207.686 28.97 207.636 28.98 207.596 29C207.516 29.04 207.416 29.06 207.296 29.06C207.196 29.06 207.096 29.05 206.996 29.03H206.696C206.676 29.03 206.646 29.03 206.606 29.03C206.566 29.05 206.526 29.05 206.486 29.03C206.426 29.01 206.366 29 206.306 29C206.266 29.02 206.216 29.04 206.156 29.06C206.116 29.06 206.076 29.06 206.036 29.06C206.016 29.08 205.986 29.09 205.946 29.09C205.746 29.07 205.556 29.07 205.376 29.09C205.196 29.13 205.006 29.17 204.806 29.21ZM216.566 9.11C216.446 9.07 216.376 9.05 216.356 9.05C216.216 9.03 216.096 8.95 215.996 8.81C215.916 8.73 215.846 8.69 215.786 8.69L215.576 8.6C215.536 8.56 215.486 8.53 215.426 8.51C215.366 8.49 215.316 8.46 215.276 8.42C215.216 8.38 215.126 8.34 215.006 8.3C214.926 8.26 214.846 8.21 214.766 8.15C214.686 8.09 214.606 8.05 214.526 8.03C214.506 8.03 214.486 8.03 214.466 8.03C214.466 8.01 214.456 8 214.436 8C214.336 7.9 214.226 7.83 214.106 7.79C214.006 7.75 213.906 7.7 213.806 7.64C213.726 7.6 213.656 7.55 213.596 7.49C213.556 7.45 213.516 7.42 213.476 7.4C213.436 7.38 213.396 7.37 213.356 7.37C213.276 7.33 213.236 7.35 213.236 7.43C213.216 7.47 213.206 7.51 213.206 7.55C213.206 7.59 213.196 7.63 213.176 7.67C213.156 7.71 213.146 7.76 213.146 7.82C213.126 7.96 213.036 8.08 212.876 8.18C212.676 8.24 212.506 8.22 212.366 8.12C212.166 7.98 212.056 7.83 212.036 7.67L211.946 7.43C211.866 7.31 211.736 7.21 211.556 7.13C211.496 7.09 211.436 7.06 211.376 7.04C211.316 7.02 211.266 7 211.226 6.98C211.086 6.9 210.946 6.83 210.806 6.77C210.686 6.69 210.576 6.61 210.476 6.53C210.456 6.51 210.426 6.49 210.386 6.47C210.346 6.45 210.306 6.44 210.266 6.44C210.126 6.38 209.946 6.25 209.726 6.05C209.666 6.01 209.576 5.93 209.456 5.81C209.396 5.75 209.326 5.73 209.246 5.75H209.156C209.056 5.75 208.996 5.79 208.976 5.87C208.976 5.89 208.966 5.92 208.946 5.96C208.946 5.98 208.946 6 208.946 6.02C208.966 6.1 208.966 6.17 208.946 6.23C208.946 6.29 208.946 6.36 208.946 6.44C208.946 6.56 208.916 6.71 208.856 6.89C208.836 6.99 208.756 7.06 208.616 7.1C208.576 7.1 208.526 7.11 208.466 7.13C208.426 7.15 208.386 7.16 208.346 7.16C208.286 7.16 208.226 7.13 208.166 7.07C207.986 6.95 207.866 6.77 207.806 6.53V6.44C207.806 6.28 207.766 6.15 207.686 6.05C207.666 5.99 207.636 5.9 207.596 5.78C207.576 5.66 207.516 5.54 207.416 5.42C207.416 5.4 207.386 5.39 207.326 5.39C207.246 5.47 207.186 5.52 207.146 5.54C207.026 5.62 206.916 5.7 206.816 5.78C206.716 5.86 206.606 5.95 206.486 6.05C206.366 6.15 206.236 6.26 206.096 6.38C205.976 6.48 205.856 6.58 205.736 6.68C205.656 6.76 205.596 6.81 205.556 6.83C205.476 6.87 205.396 6.93 205.316 7.01C205.236 7.07 205.166 7.13 205.106 7.19C205.066 7.21 205.026 7.23 204.986 7.25C204.966 7.27 204.936 7.3 204.896 7.34L204.086 7.97C204.066 7.99 204.036 8.01 203.996 8.03C203.976 8.03 203.946 8.04 203.906 8.06L203.276 8.45C203.196 8.51 203.106 8.57 203.006 8.63C202.906 8.67 202.796 8.71 202.676 8.75C202.596 8.81 202.496 8.87 202.376 8.93C202.276 8.97 202.176 9.02 202.076 9.08C201.996 9.14 201.906 9.18 201.806 9.2C201.726 9.2 201.636 9.21 201.536 9.23C201.456 9.23 201.376 9.23 201.296 9.23C201.216 9.23 201.136 9.22 201.056 9.2C200.996 9.2 200.946 9.18 200.906 9.14C200.846 9.1 200.796 9.06 200.756 9.02C200.716 8.96 200.676 8.91 200.636 8.87C200.556 8.77 200.496 8.68 200.456 8.6C200.416 8.52 200.366 8.44 200.306 8.36C200.286 8.3 200.276 8.24 200.276 8.18C200.276 8.1 200.266 8.03 200.246 7.97L200.306 7.73C200.286 7.63 200.306 7.53 200.366 7.43C200.406 7.39 200.436 7.34 200.456 7.28C200.456 7.2 200.476 7.14 200.516 7.1C200.576 7.04 200.636 6.98 200.696 6.92C200.776 6.8 200.856 6.7 200.936 6.62C200.996 6.56 201.056 6.51 201.116 6.47C201.176 6.43 201.236 6.39 201.296 6.35C201.456 6.25 201.616 6.16 201.776 6.08C201.956 6 202.116 5.92 202.256 5.84C202.336 5.8 202.376 5.78 202.376 5.78C202.516 5.68 202.636 5.6 202.736 5.54C202.856 5.46 202.986 5.38 203.126 5.3L203.246 5.21C203.346 5.13 203.456 5.05 203.576 4.97C203.696 4.87 203.806 4.78 203.906 4.7C204.106 4.54 204.276 4.41 204.416 4.31C204.516 4.25 204.606 4.18 204.686 4.1C204.786 4.02 204.886 3.94 204.986 3.86C204.986 3.86 205.016 3.83 205.076 3.77C205.156 3.73 205.226 3.69 205.286 3.65C205.346 3.59 205.406 3.54 205.466 3.5C205.546 3.4 205.666 3.3 205.826 3.2C205.886 3.16 205.956 3.08 206.036 2.96C206.216 2.84 206.356 2.67 206.456 2.45C206.516 2.35 206.546 2.25 206.546 2.15C206.586 2.07 206.616 2 206.636 1.94C206.676 1.86 206.706 1.78 206.726 1.7C206.786 1.56 206.866 1.44 206.966 1.34C206.986 1.34 207.016 1.32 207.056 1.28C207.316 1.02 207.626 0.859999 207.986 0.799998C208.066 0.799998 208.146 0.799998 208.226 0.799998C208.306 0.799998 208.386 0.819999 208.466 0.859999C208.706 0.919999 208.946 1.03 209.186 1.19C209.246 1.23 209.306 1.27 209.366 1.31C209.426 1.33 209.486 1.36 209.546 1.4C209.586 1.42 209.626 1.45 209.666 1.49C209.726 1.53 209.786 1.57 209.846 1.61C209.886 1.63 209.926 1.65 209.966 1.67C210.006 1.69 210.036 1.72 210.056 1.76C210.176 1.96 210.336 2.12 210.536 2.24C210.576 2.28 210.596 2.3 210.596 2.3C210.756 2.42 210.916 2.53 211.076 2.63C211.236 2.73 211.386 2.84 211.526 2.96C211.626 2.98 211.726 3.05 211.826 3.17C211.886 3.19 211.936 3.22 211.976 3.26C212.036 3.28 212.086 3.31 212.126 3.35C212.286 3.47 212.446 3.59 212.606 3.71C212.786 3.81 212.956 3.91 213.116 4.01L213.236 4.1C213.376 4.18 213.526 4.28 213.686 4.4C213.846 4.5 213.996 4.6 214.136 4.7C214.176 4.72 214.216 4.75 214.256 4.79C214.296 4.81 214.336 4.83 214.376 4.85C214.436 4.89 214.496 4.94 214.556 5C214.636 5.04 214.716 5.08 214.796 5.12C214.896 5.18 215.006 5.24 215.126 5.3C215.246 5.36 215.366 5.42 215.486 5.48C215.586 5.54 215.686 5.59 215.786 5.63C215.906 5.67 216.016 5.72 216.116 5.78C216.236 5.82 216.356 5.86 216.476 5.9C216.596 5.94 216.716 5.99 216.836 6.05C216.896 6.09 217.016 6.11 217.196 6.11C217.216 6.11 217.236 6.12 217.256 6.14C217.276 6.14 217.296 6.14 217.316 6.14C217.596 6.14 217.866 6.25 218.126 6.47C218.226 6.55 218.296 6.69 218.336 6.89C218.396 7.07 218.426 7.17 218.426 7.19C218.446 7.25 218.466 7.31 218.486 7.37C218.506 7.43 218.526 7.49 218.546 7.55C218.586 7.61 218.586 7.67 218.546 7.73C218.526 7.77 218.506 7.81 218.486 7.85C218.466 7.89 218.456 7.93 218.456 7.97C218.456 7.99 218.446 8.01 218.426 8.03C218.366 8.09 218.326 8.14 218.306 8.18L218.276 8.39C218.276 8.47 218.226 8.53 218.126 8.57C218.046 8.61 217.986 8.65 217.946 8.69C217.926 8.73 217.896 8.76 217.856 8.78C217.816 8.8 217.776 8.83 217.736 8.87L217.436 9.05C217.156 9.17 216.866 9.19 216.566 9.11Z" fill="#353535"/>
</svg>
