<svg width="136" height="22" viewBox="0 0 136 22" fill="none" xmlns="http://www.w3.org/2000/svg">
<path d="M1.86582 21.43C1.84782 21.43 1.78482 21.412 1.67682 21.376C1.62282 21.358 1.55982 21.295 1.48782 21.187C1.46982 21.133 1.45182 21.079 1.43382 21.025C1.41582 20.971 1.40682 20.917 1.40682 20.863C1.35282 20.593 1.32582 20.323 1.32582 20.053V18.19C1.32582 18.028 1.30782 17.866 1.27182 17.704C1.23582 17.542 1.19982 17.38 1.16382 17.218C1.16382 17.182 1.14582 17.128 1.10982 17.056C1.09182 17.002 1.06482 16.948 1.02882 16.894C0.99282 16.822 0.95682 16.759 0.92082 16.705C0.84882 16.579 0.79482 16.444 0.75882 16.3C0.72282 16.156 0.69582 16.021 0.67782 15.895C0.65982 15.697 0.65982 15.508 0.67782 15.328C0.71382 15.22 0.74082 15.121 0.75882 15.031C0.77682 14.923 0.80382 14.824 0.83982 14.734C0.89382 14.59 0.93882 14.446 0.97482 14.302C1.01082 14.14 1.05582 13.978 1.10982 13.816L1.51482 12.493C1.64082 12.115 1.80282 11.728 2.00082 11.332C2.19882 10.954 2.38782 10.531 2.56782 10.063C2.60382 9.955 2.64882 9.838 2.70282 9.712C2.77482 9.514 2.84682 9.325 2.91882 9.145C3.00882 8.947 3.08982 8.758 3.16182 8.578L3.56682 7.444C3.60282 7.372 3.62982 7.3 3.64782 7.228C3.66582 7.156 3.68382 7.084 3.70182 7.012C3.84582 6.652 3.98982 6.31 4.13382 5.986C4.24182 5.77 4.31382 5.536 4.34982 5.284C4.38582 5.032 4.38582 4.78 4.34982 4.528C4.33182 4.42 4.31382 4.312 4.29582 4.204C4.29582 4.078 4.29582 3.961 4.29582 3.853C4.29582 3.799 4.27782 3.754 4.24182 3.718C4.22382 3.664 4.22382 3.61 4.24182 3.556C4.25982 3.52 4.27782 3.484 4.29582 3.448C4.33182 3.412 4.35882 3.376 4.37682 3.34C4.43082 3.142 4.51182 2.971 4.61982 2.827C4.74582 2.665 4.88082 2.521 5.02482 2.395C5.09682 2.323 5.19582 2.269 5.32182 2.233C5.39382 2.197 5.45682 2.161 5.51082 2.125C5.58282 2.089 5.64582 2.044 5.69982 1.99C5.78982 1.918 5.88882 1.873 5.99682 1.855C6.14082 1.837 6.29382 1.783 6.45582 1.693C6.59982 1.603 6.76182 1.576 6.94182 1.612H7.18482C7.31082 1.612 7.44582 1.657 7.58982 1.747C7.62582 1.765 7.66182 1.792 7.69782 1.828C7.75182 1.846 7.80582 1.873 7.85982 1.909C8.00382 2.017 8.07582 2.152 8.07582 2.314C8.07582 2.44 8.08482 2.557 8.10282 2.665C8.13882 2.773 8.16582 2.89 8.18382 3.016C8.21982 3.124 8.21982 3.241 8.18382 3.367C8.16582 3.403 8.15682 3.448 8.15682 3.502C8.15682 3.538 8.14782 3.574 8.12982 3.61C8.12982 3.682 8.12082 3.754 8.10282 3.826C8.10282 3.898 8.09382 3.97 8.07582 4.042C8.02182 4.168 8.03982 4.294 8.12982 4.42C8.27382 4.654 8.39982 4.897 8.50782 5.149C8.63382 5.401 8.75982 5.653 8.88582 5.905L9.37182 6.769C9.51582 7.003 9.65982 7.282 9.80382 7.606C9.83982 7.66 9.86682 7.714 9.88482 7.768C9.92082 7.822 9.95682 7.876 9.99282 7.93C10.0468 8.02 10.0918 8.119 10.1278 8.227C10.1818 8.335 10.2358 8.443 10.2898 8.551C10.4338 8.821 10.5508 9.1 10.6408 9.388C10.7488 9.658 10.8568 9.946 10.9648 10.252C10.9648 10.27 10.9648 10.288 10.9648 10.306C10.9828 10.306 10.9918 10.315 10.9918 10.333C11.0098 10.459 11.0998 10.522 11.2618 10.522C11.3158 10.504 11.3698 10.495 11.4238 10.495C11.4958 10.495 11.5588 10.495 11.6128 10.495C11.8108 10.495 11.9818 10.531 12.1258 10.603C12.2158 10.621 12.3058 10.675 12.3958 10.765C12.5398 10.909 12.6388 11.026 12.6928 11.116C12.7468 11.206 12.7828 11.341 12.8008 11.521C12.8728 11.863 12.8008 12.16 12.5848 12.412L12.4228 12.547C12.3868 12.583 12.3418 12.619 12.2878 12.655C12.2338 12.673 12.1888 12.7 12.1528 12.736C12.0628 12.808 12.0088 12.862 11.9908 12.898C11.9908 12.934 12.0178 13.015 12.0718 13.141L12.4768 14.113C12.6388 14.473 12.8008 14.833 12.9628 15.193C13.1428 15.553 13.3228 15.913 13.5028 16.273C13.5748 16.399 13.6288 16.525 13.6648 16.651C13.7188 16.777 13.7548 16.912 13.7728 17.056C13.7908 17.164 13.7908 17.272 13.7728 17.38C13.7728 17.488 13.7638 17.596 13.7458 17.704C13.7458 17.722 13.7278 17.785 13.6918 17.893C13.6378 17.965 13.5838 18.037 13.5298 18.109C13.4938 18.181 13.4488 18.253 13.3948 18.325C13.2508 18.523 13.1338 18.748 13.0438 19C13.0078 19.162 12.8908 19.288 12.6928 19.378C12.5848 19.432 12.4678 19.432 12.3418 19.378C12.1798 19.324 12.0718 19.216 12.0178 19.054L11.9638 18.919C11.9098 18.739 11.8288 18.568 11.7208 18.406C11.6488 18.28 11.5768 18.154 11.5048 18.028C11.4508 17.884 11.3878 17.749 11.3158 17.623C11.2978 17.587 11.2888 17.56 11.2888 17.542C11.2888 17.506 11.2798 17.479 11.2618 17.461C11.2438 17.353 11.2078 17.254 11.1538 17.164C11.1178 17.056 11.0728 16.957 11.0188 16.867C10.9108 16.597 10.7938 16.336 10.6678 16.084C10.5598 15.814 10.4428 15.544 10.3168 15.274L9.91182 14.41C9.89382 14.356 9.87582 14.302 9.85782 14.248C9.83982 14.176 9.81282 14.104 9.77682 14.032L9.45282 13.303C9.45282 13.267 9.43482 13.213 9.39882 13.141C9.30882 12.997 9.19182 12.916 9.04782 12.898C8.92182 12.898 8.80482 12.889 8.69682 12.871C8.58882 12.853 8.48082 12.844 8.37282 12.844C8.08482 12.844 7.79682 12.871 7.50882 12.925C7.22082 12.979 6.95082 13.078 6.69882 13.222C6.35682 13.42 6.00582 13.546 5.64582 13.6C5.57382 13.6 5.50182 13.609 5.42982 13.627C5.35782 13.645 5.28582 13.672 5.21382 13.708C5.10582 13.78 5.04282 13.861 5.02482 13.951C4.98882 14.059 4.97082 14.14 4.97082 14.194L4.88982 14.572C4.87182 14.698 4.79982 14.824 4.67382 14.95C4.58382 15.04 4.45782 15.085 4.29582 15.085C4.06182 15.049 3.90882 14.932 3.83682 14.734C3.81882 14.68 3.80082 14.626 3.78282 14.572C3.76482 14.518 3.74682 14.455 3.72882 14.383C3.65682 14.491 3.64782 14.581 3.70182 14.653C3.73782 14.725 3.71982 14.788 3.64782 14.842C3.61182 14.878 3.60282 14.905 3.62082 14.923C3.65682 14.995 3.64782 15.058 3.59382 15.112C3.53982 15.166 3.52182 15.229 3.53982 15.301C3.55782 15.337 3.55782 15.382 3.53982 15.436C3.44982 15.562 3.38682 15.715 3.35082 15.895C3.36882 15.967 3.32382 16.021 3.21582 16.057C3.17982 16.057 3.16182 16.075 3.16182 16.111C3.12582 16.165 3.08982 16.246 3.05382 16.354C3.03582 16.444 3.00882 16.543 2.97282 16.651C2.95482 16.741 2.92782 16.831 2.89182 16.921L2.72982 17.596V17.704C2.72982 17.866 2.71182 18.028 2.67582 18.19C2.65782 18.334 2.64882 18.487 2.64882 18.649L2.56782 19.54C2.54982 19.666 2.53182 19.792 2.51382 19.918C2.51382 20.062 2.51382 20.206 2.51382 20.35C2.49582 20.458 2.47782 20.557 2.45982 20.647C2.45982 20.755 2.44182 20.863 2.40582 20.971C2.36982 21.133 2.30682 21.25 2.21682 21.322C2.14482 21.43 2.02782 21.466 1.86582 21.43ZM5.37582 10.495H5.40282C5.58282 10.459 5.75382 10.432 5.91582 10.414C6.07782 10.396 6.23982 10.378 6.40182 10.36C6.50982 10.342 6.61782 10.333 6.72582 10.333C6.83382 10.315 6.94182 10.306 7.04982 10.306H7.61682C7.65282 10.306 7.68882 10.306 7.72482 10.306C7.76082 10.288 7.78782 10.279 7.80582 10.279C7.84182 10.279 7.85982 10.243 7.85982 10.171C7.80582 10.099 7.76082 10.027 7.72482 9.955C7.68882 9.883 7.65282 9.811 7.61682 9.739C7.50882 9.487 7.36482 9.271 7.18482 9.091C7.16682 9.055 7.14882 9.028 7.13082 9.01C7.11282 8.974 7.09482 8.938 7.07682 8.902C7.05882 8.866 7.03182 8.83 6.99582 8.794C6.97782 8.74 6.95082 8.695 6.91482 8.659C6.82482 8.587 6.73482 8.605 6.64482 8.713L6.56382 8.929C6.54582 9.073 6.51882 9.226 6.48282 9.388C6.44682 9.532 6.41082 9.676 6.37482 9.82C6.37482 9.856 6.35682 9.91 6.32082 9.982C6.28482 10.09 6.19482 10.171 6.05082 10.225C5.92482 10.279 5.78982 10.261 5.64582 10.171L5.48382 10.063C5.48382 10.063 5.46582 10.063 5.42982 10.063C5.39382 10.135 5.37582 10.189 5.37582 10.225C5.37582 10.261 5.37582 10.297 5.37582 10.333C5.39382 10.369 5.38482 10.405 5.34882 10.441C5.31282 10.477 5.32182 10.495 5.37582 10.495ZM18.3493 19.54C18.0073 19.576 17.7283 19.468 17.5123 19.216C17.4043 19.108 17.3053 18.991 17.2153 18.865C17.1253 18.739 17.0533 18.604 16.9993 18.46C16.9093 18.208 16.8283 17.956 16.7563 17.704C16.6843 17.434 16.6213 17.173 16.5673 16.921C16.5133 16.723 16.4863 16.534 16.4863 16.354C16.4683 16.156 16.4413 15.967 16.4053 15.787C16.3873 15.589 16.3783 15.391 16.3783 15.193C16.3783 15.085 16.3783 14.977 16.3783 14.869C16.3783 14.743 16.3693 14.626 16.3513 14.518C16.3333 14.446 16.3243 14.383 16.3243 14.329C16.3243 14.275 16.3243 14.212 16.3243 14.14C16.3243 13.888 16.3243 13.636 16.3243 13.384C16.3243 13.114 16.3153 12.853 16.2973 12.601C16.2973 12.457 16.2883 12.331 16.2703 12.223C16.2523 12.097 16.2163 11.971 16.1623 11.845C16.0903 11.647 16.0813 11.431 16.1353 11.197C16.1353 11.143 16.1443 11.107 16.1623 11.089C16.1983 10.963 16.2163 10.837 16.2163 10.711C16.2343 10.585 16.2343 10.459 16.2163 10.333C16.1983 10.243 16.1893 10.153 16.1893 10.063C16.1893 9.973 16.1893 9.892 16.1893 9.82C16.1713 9.622 16.1623 9.424 16.1623 9.226C16.1803 9.01 16.1983 8.803 16.2163 8.605C16.2343 8.551 16.2433 8.497 16.2433 8.443C16.2433 8.389 16.2433 8.335 16.2433 8.281C16.2253 8.083 16.2253 7.894 16.2433 7.714C16.2793 7.534 16.3063 7.354 16.3243 7.174C16.3603 6.958 16.3963 6.751 16.4323 6.553C16.4683 6.337 16.5133 6.121 16.5673 5.905C16.6033 5.815 16.6213 5.716 16.6213 5.608C16.6213 5.5 16.6213 5.392 16.6213 5.284C16.6213 5.194 16.6123 5.104 16.5943 5.014C16.5943 4.924 16.5943 4.843 16.5943 4.771C16.5943 4.717 16.5943 4.663 16.5943 4.609C16.5943 4.555 16.6033 4.501 16.6213 4.447C16.6393 4.393 16.6483 4.339 16.6483 4.285C16.6483 4.231 16.6573 4.195 16.6753 4.177C16.7293 4.105 16.7743 4.042 16.8103 3.988C16.8463 3.916 16.9003 3.853 16.9723 3.799C17.0623 3.745 17.1433 3.691 17.2153 3.637C17.3053 3.583 17.3863 3.538 17.4583 3.502C17.5483 3.466 17.6203 3.421 17.6743 3.367C17.7463 3.277 17.8183 3.196 17.8903 3.124C17.9803 3.034 18.0523 2.935 18.1063 2.827C18.1963 2.737 18.2863 2.638 18.3763 2.53C18.4843 2.404 18.6013 2.305 18.7273 2.233C18.7633 2.215 18.8173 2.17 18.8893 2.098C19.1053 1.9 19.3573 1.774 19.6453 1.72C19.6993 1.702 19.7443 1.693 19.7803 1.693C19.8343 1.675 19.8883 1.666 19.9423 1.666L20.1313 1.585C20.2753 1.531 20.4013 1.558 20.5093 1.666C20.5453 1.72 20.5903 1.774 20.6443 1.828C20.7163 1.864 20.7793 1.9 20.8333 1.936C20.9773 2.062 21.1123 2.197 21.2383 2.341C21.3823 2.485 21.5083 2.647 21.6163 2.827C21.7963 3.115 21.9493 3.403 22.0753 3.691C22.2193 3.979 22.3543 4.276 22.4803 4.582L22.9663 5.743C22.9843 5.851 23.0293 5.95 23.1013 6.04C23.2453 6.31 23.3533 6.589 23.4253 6.877C23.4973 7.147 23.5693 7.426 23.6413 7.714C23.6593 7.75 23.6683 7.786 23.6683 7.822C23.6863 7.858 23.6953 7.894 23.6953 7.93C23.7313 8.074 23.7583 8.227 23.7763 8.389C23.8123 8.533 23.8213 8.677 23.8033 8.821C23.8213 8.983 23.8123 9.145 23.7763 9.307C23.7583 9.451 23.7313 9.595 23.6953 9.739C23.6413 9.919 23.5783 10.09 23.5063 10.252C23.4343 10.396 23.3533 10.549 23.2633 10.711C23.2273 10.819 23.1643 10.918 23.0743 11.008C22.9843 11.098 22.8943 11.179 22.8043 11.251C22.6603 11.323 22.5163 11.431 22.3723 11.575C22.3363 11.611 22.2913 11.638 22.2373 11.656C22.2013 11.674 22.1653 11.701 22.1293 11.737C22.0033 11.791 21.8683 11.854 21.7243 11.926C21.5803 11.98 21.4363 12.034 21.2923 12.088C21.2743 12.088 21.2653 12.106 21.2653 12.142C21.2653 12.16 21.2743 12.178 21.2923 12.196L22.0213 12.709C22.1113 12.763 22.1923 12.817 22.2643 12.871C22.3363 12.907 22.4083 12.952 22.4803 13.006L22.6423 13.087C22.8583 13.213 23.0743 13.348 23.2903 13.492C23.5063 13.636 23.7133 13.78 23.9113 13.924C24.2893 14.158 24.6673 14.401 25.0453 14.653C25.4233 14.887 25.7833 15.148 26.1253 15.436C26.4313 15.67 26.7013 15.94 26.9353 16.246C26.9893 16.3 27.0433 16.363 27.0973 16.435C27.1513 16.489 27.2143 16.534 27.2863 16.57L27.3673 16.651C27.6553 16.903 27.8173 17.245 27.8533 17.677C27.8533 17.731 27.8443 17.785 27.8263 17.839C27.8263 17.893 27.8263 17.947 27.8263 18.001C27.8263 18.109 27.7903 18.199 27.7183 18.271C27.6463 18.307 27.6103 18.352 27.6103 18.406C27.5563 18.532 27.4753 18.622 27.3673 18.676C27.2773 18.712 27.1873 18.766 27.0973 18.838C27.0613 18.856 26.9983 18.865 26.9083 18.865C26.8003 18.847 26.6833 18.829 26.5573 18.811C26.4493 18.793 26.3413 18.784 26.2333 18.784C26.0893 18.784 25.9363 18.721 25.7743 18.595C25.6663 18.505 25.5673 18.424 25.4773 18.352C25.3873 18.262 25.2973 18.154 25.2073 18.028C24.9733 17.704 24.6673 17.407 24.2893 17.137C24.1093 16.993 23.9383 16.858 23.7763 16.732C23.6143 16.606 23.4343 16.489 23.2363 16.381C23.1103 16.309 22.9843 16.237 22.8583 16.165C22.7503 16.075 22.6243 15.994 22.4803 15.922C22.0303 15.616 21.5713 15.319 21.1033 15.031C20.6353 14.725 20.1673 14.419 19.6993 14.113C19.6273 14.059 19.5463 14.005 19.4563 13.951C19.3663 13.897 19.2763 13.843 19.1863 13.789C19.1503 13.753 19.0963 13.717 19.0243 13.681C18.9523 13.681 18.9163 13.708 18.9163 13.762C18.9163 13.78 18.9073 13.798 18.8893 13.816C18.8893 13.816 18.8893 13.825 18.8893 13.843C18.8893 13.897 18.8893 13.951 18.8893 14.005C18.8893 14.059 18.8983 14.113 18.9163 14.167C18.9343 14.311 18.9433 14.455 18.9433 14.599C18.9433 14.725 18.9433 14.86 18.9433 15.004C18.9433 15.112 18.9433 15.22 18.9433 15.328C18.9613 15.418 18.9793 15.517 18.9973 15.625C18.9973 15.679 18.9973 15.742 18.9973 15.814C19.0153 15.868 19.0243 15.922 19.0243 15.976C19.0063 16.138 19.0153 16.3 19.0513 16.462C19.0873 16.624 19.1143 16.786 19.1323 16.948L19.2943 17.65C19.3123 17.722 19.3303 17.803 19.3483 17.893C19.3663 17.965 19.3843 18.046 19.4023 18.136C19.4203 18.208 19.4203 18.28 19.4023 18.352C19.4023 18.406 19.3933 18.469 19.3753 18.541C19.3753 18.559 19.3573 18.586 19.3213 18.622C19.2313 18.64 19.1683 18.703 19.1323 18.811C19.0783 18.937 18.9973 19.045 18.8893 19.135C18.7993 19.243 18.7003 19.342 18.5923 19.432C18.5743 19.45 18.5383 19.468 18.4843 19.486C18.4303 19.504 18.3853 19.522 18.3493 19.54ZM19.4023 10.09H19.4563C19.6543 10.054 19.8523 10.018 20.0503 9.982C20.2663 9.928 20.4733 9.865 20.6713 9.793C20.8693 9.739 21.0403 9.64 21.1843 9.496C21.3103 9.37 21.3733 9.226 21.3733 9.064C21.3913 8.938 21.3913 8.821 21.3733 8.713C21.3733 8.587 21.3553 8.461 21.3193 8.335C21.2473 8.011 21.1663 7.696 21.0763 7.39C20.9863 7.066 20.8783 6.76 20.7523 6.472L20.5093 5.824C20.4553 5.644 20.3923 5.473 20.3203 5.311C20.2483 5.131 20.1673 4.96 20.0773 4.798C20.0593 4.762 20.0413 4.726 20.0233 4.69C20.0053 4.636 19.9873 4.591 19.9693 4.555L19.8613 4.447C19.8073 4.375 19.7443 4.375 19.6723 4.447C19.6543 4.447 19.6273 4.465 19.5913 4.501C19.4653 4.663 19.3483 4.834 19.2403 5.014C19.1503 5.194 19.0963 5.392 19.0783 5.608C19.0603 5.68 19.0423 5.752 19.0243 5.824C19.0243 5.896 19.0243 5.977 19.0243 6.067V7.228C19.0063 7.48 18.9973 7.741 18.9973 8.011C19.0153 8.281 19.0063 8.542 18.9703 8.794C18.9523 8.848 18.9433 8.902 18.9433 8.956C18.9613 9.01 18.9703 9.064 18.9703 9.118C18.9883 9.226 18.9973 9.334 18.9973 9.442C18.9973 9.532 18.9973 9.631 18.9973 9.739C18.9973 9.919 19.0153 10.027 19.0513 10.063C19.1053 10.099 19.2223 10.108 19.4023 10.09ZM41.0557 20.593H40.9207C40.8667 20.593 40.8037 20.584 40.7317 20.566C40.6777 20.566 40.6147 20.566 40.5427 20.566C40.4167 20.584 40.3087 20.557 40.2187 20.485C40.1467 20.431 40.0657 20.359 39.9757 20.269C39.9397 20.233 39.8947 20.188 39.8407 20.134C39.8047 20.098 39.7597 20.071 39.7057 20.053C39.6697 20.035 39.6337 19.99 39.5977 19.918C39.5797 19.882 39.5527 19.837 39.5167 19.783C39.4987 19.729 39.4717 19.675 39.4357 19.621C39.3997 19.531 39.3907 19.432 39.4087 19.324C39.4267 19.27 39.4357 19.216 39.4357 19.162C39.4537 19.126 39.4627 19.081 39.4627 19.027C39.4627 18.847 39.4627 18.676 39.4627 18.514C39.4627 18.334 39.4447 18.154 39.4087 17.974C39.3907 17.92 39.3817 17.866 39.3817 17.812C39.3817 17.74 39.3727 17.668 39.3547 17.596C39.3547 17.47 39.3457 17.371 39.3277 17.299C39.3277 17.209 39.3187 17.128 39.3007 17.056C39.3007 16.984 39.3007 16.912 39.3007 16.84C39.2827 16.714 39.2737 16.597 39.2737 16.489C39.2737 16.381 39.2557 16.264 39.2197 16.138V16.057C39.2197 15.823 39.2017 15.598 39.1657 15.382C39.1477 15.148 39.1387 14.914 39.1387 14.68C39.1387 14.572 39.1297 14.491 39.1117 14.437C39.0937 14.275 39.0757 14.113 39.0577 13.951C39.0577 13.771 39.0577 13.591 39.0577 13.411C39.0577 13.249 39.0577 13.087 39.0577 12.925C39.0577 12.745 39.0397 12.574 39.0037 12.412C38.9857 12.376 38.9767 12.331 38.9767 12.277C38.9767 12.223 38.9767 12.178 38.9767 12.142C38.9767 11.404 38.9767 10.666 38.9767 9.928C38.9767 9.19 38.9857 8.461 39.0037 7.741C39.0037 7.651 39.0037 7.561 39.0037 7.471C39.0217 7.381 39.0307 7.291 39.0307 7.201C39.0307 7.147 39.0307 7.093 39.0307 7.039C39.0487 6.985 39.0577 6.94 39.0577 6.904C39.0577 6.706 39.0577 6.508 39.0577 6.31C39.0757 6.094 39.0937 5.887 39.1117 5.689C39.1477 5.635 39.1477 5.563 39.1117 5.473C39.0937 5.455 39.0667 5.446 39.0307 5.446L38.9497 5.527C38.9137 5.581 38.8687 5.635 38.8147 5.689C38.7607 5.743 38.7157 5.797 38.6797 5.851C38.6077 5.959 38.5267 6.076 38.4367 6.202C38.3647 6.31 38.2837 6.427 38.1937 6.553C38.0677 6.769 37.9327 6.994 37.7887 7.228C37.6447 7.444 37.5367 7.678 37.4647 7.93C37.4467 7.966 37.4287 8.011 37.4107 8.065C37.3927 8.101 37.3747 8.137 37.3567 8.173C37.2847 8.353 37.2037 8.533 37.1137 8.713C37.0417 8.875 36.9697 9.055 36.8977 9.253C36.7897 9.487 36.6367 9.703 36.4387 9.901C36.4027 9.937 36.3667 9.955 36.3307 9.955C36.2407 10.009 36.1417 10.063 36.0337 10.117C35.9257 10.153 35.8087 10.162 35.6827 10.144H35.5207C35.3587 10.18 35.2237 10.144 35.1157 10.036C34.9897 10 34.8817 9.937 34.7917 9.847C34.7197 9.757 34.6387 9.658 34.5487 9.55C34.4767 9.46 34.4137 9.352 34.3597 9.226C34.3237 9.1 34.3057 8.974 34.3057 8.848C34.2877 8.812 34.2787 8.767 34.2787 8.713C34.2787 8.659 34.2787 8.614 34.2787 8.578C34.2607 8.542 34.2427 8.506 34.2247 8.47C34.2067 8.416 34.1977 8.38 34.1977 8.362C34.1977 8.326 34.1797 8.272 34.1437 8.2C34.1077 8.128 34.0357 7.984 33.9277 7.768C33.8197 7.552 33.7657 7.453 33.7657 7.471C33.7117 7.381 33.6577 7.282 33.6037 7.174C33.5497 7.066 33.4867 6.967 33.4147 6.877L33.2527 6.58C33.2167 6.58 33.1897 6.571 33.1717 6.553L33.1447 6.58C33.1447 6.634 33.1447 6.688 33.1447 6.742C33.1447 6.796 33.1537 6.85 33.1717 6.904C33.2077 7.102 33.2257 7.3 33.2257 7.498C33.2257 7.696 33.2077 7.894 33.1717 8.092C33.1717 8.2 33.1807 8.29 33.1987 8.362C33.2167 8.398 33.2257 8.461 33.2257 8.551C33.2257 8.659 33.2257 8.767 33.2257 8.875C33.2437 8.983 33.2437 9.091 33.2257 9.199C33.2077 9.289 33.1987 9.388 33.1987 9.496C33.2167 9.586 33.2347 9.676 33.2527 9.766V10.036C33.2167 10.144 33.2167 10.261 33.2527 10.387C33.2707 10.477 33.2707 10.576 33.2527 10.684C33.2527 10.774 33.2617 10.864 33.2797 10.954C33.2797 11.044 33.2617 11.161 33.2257 11.305C33.1177 11.737 33.1447 12.151 33.3067 12.547C33.3247 12.619 33.3427 12.691 33.3607 12.763C33.3787 12.817 33.3787 12.88 33.3607 12.952C33.3607 13.006 33.3607 13.06 33.3607 13.114C33.3607 13.168 33.3697 13.222 33.3877 13.276C33.4237 13.348 33.4417 13.42 33.4417 13.492C33.4597 13.69 33.4687 13.843 33.4687 13.951C33.4867 14.059 33.5047 14.14 33.5227 14.194C33.5587 14.392 33.5947 14.599 33.6307 14.815C33.6667 15.013 33.7027 15.211 33.7387 15.409C33.7747 15.643 33.8107 15.877 33.8467 16.111C33.9007 16.327 33.9277 16.552 33.9277 16.786C33.9277 16.858 33.9367 16.912 33.9547 16.948C33.9907 17.092 34.0087 17.245 34.0087 17.407C34.0087 17.551 34.0177 17.695 34.0357 17.839C34.0357 18.037 33.9907 18.19 33.9007 18.298C33.8647 18.37 33.8467 18.415 33.8467 18.433C33.6847 18.775 33.3967 18.973 32.9827 19.027C32.9287 19.045 32.8747 19.054 32.8207 19.054C32.7667 19.054 32.7127 19.054 32.6587 19.054C32.4607 19.09 32.3167 19.054 32.2267 18.946C32.1907 18.91 32.1547 18.892 32.1187 18.892C32.0287 18.91 31.9387 18.856 31.8487 18.73C31.7947 18.64 31.7137 18.559 31.6057 18.487C31.5517 18.433 31.5067 18.343 31.4707 18.217C31.4527 18.181 31.4347 18.145 31.4167 18.109C31.4167 18.073 31.4167 18.037 31.4167 18.001C31.3987 17.749 31.3717 17.506 31.3357 17.272C31.2997 17.02 31.2727 16.777 31.2547 16.543L31.2277 16.273C31.2097 16.201 31.2007 16.138 31.2007 16.084C31.2007 16.03 31.1917 15.967 31.1737 15.895V15.733C31.1197 15.481 31.0927 15.229 31.0927 14.977C31.0927 14.707 31.1017 14.446 31.1197 14.194C31.1377 14.032 31.1467 13.87 31.1467 13.708C31.1467 13.528 31.1557 13.357 31.1737 13.195V12.574C31.1737 12.484 31.1737 12.394 31.1737 12.304C31.1737 12.196 31.1647 12.097 31.1467 12.007C31.1287 11.899 31.1197 11.791 31.1197 11.683C31.1197 11.575 31.1197 11.467 31.1197 11.359V10.117C31.1017 9.973 31.0927 9.829 31.0927 9.685C31.0927 9.523 31.0927 9.37 31.0927 9.226C31.0927 9.172 31.0927 9.118 31.0927 9.064C31.0927 8.992 31.0837 8.929 31.0657 8.875C31.0657 8.785 31.0567 8.704 31.0387 8.632C31.0387 8.542 31.0297 8.461 31.0117 8.389V8.2C30.9757 8.038 30.9577 7.885 30.9577 7.741C30.9577 7.579 30.9577 7.417 30.9577 7.255C30.9577 7.111 30.9577 6.967 30.9577 6.823C30.9577 6.661 30.9397 6.517 30.9037 6.391C30.8857 6.337 30.8767 6.283 30.8767 6.229C30.8767 6.175 30.8767 6.121 30.8767 6.067C30.8767 5.941 30.8767 5.824 30.8767 5.716C30.8767 5.59 30.8587 5.464 30.8227 5.338C30.8047 5.302 30.7957 5.239 30.7957 5.149V3.799C30.7957 3.709 30.7957 3.628 30.7957 3.556C30.7957 3.466 30.7777 3.385 30.7417 3.313C30.6877 3.133 30.6967 2.926 30.7687 2.692C30.8047 2.602 30.8407 2.539 30.8767 2.503C30.9127 2.449 30.9487 2.395 30.9847 2.341C31.0207 2.287 31.0477 2.233 31.0657 2.179C31.1017 2.125 31.1287 2.098 31.1467 2.098C31.2187 2.08 31.2727 2.053 31.3087 2.017C31.3627 1.981 31.4077 1.945 31.4437 1.909L31.6057 1.828C31.6417 1.81 31.6957 1.801 31.7677 1.801C31.8577 1.819 31.9477 1.837 32.0377 1.855C32.1457 1.855 32.2447 1.864 32.3347 1.882C32.4427 1.882 32.5237 1.927 32.5777 2.017C32.6677 2.143 32.7577 2.269 32.8477 2.395C32.9377 2.521 33.0097 2.656 33.0637 2.8C33.1177 2.926 33.1897 3.034 33.2797 3.124C33.3877 3.268 33.4957 3.412 33.6037 3.556C33.7117 3.7 33.8287 3.844 33.9547 3.988C34.0087 4.042 34.0537 4.105 34.0897 4.177C34.1437 4.249 34.1887 4.321 34.2247 4.393C34.3147 4.519 34.3957 4.645 34.4677 4.771C34.5577 4.879 34.6477 4.996 34.7377 5.122L35.1427 5.77C35.1787 5.842 35.2147 5.914 35.2507 5.986C35.2867 6.04 35.3227 6.094 35.3587 6.148C35.3947 6.238 35.4487 6.247 35.5207 6.175C35.5927 6.085 35.6647 5.995 35.7367 5.905C35.8267 5.797 35.9077 5.698 35.9797 5.608C36.1417 5.41 36.3037 5.203 36.4657 4.987C36.6277 4.771 36.7987 4.564 36.9787 4.366L37.1407 4.123C37.2667 3.943 37.3837 3.772 37.4917 3.61C37.6177 3.43 37.7347 3.25 37.8427 3.07C37.9687 2.872 38.0767 2.674 38.1667 2.476C38.2747 2.278 38.3647 2.08 38.4367 1.882L38.7607 1.153C38.8687 0.936999 39.0217 0.756999 39.2197 0.612999C39.4897 0.396999 39.7867 0.315999 40.1107 0.369998C40.2367 0.387999 40.3537 0.423999 40.4617 0.477999C40.5697 0.513999 40.6777 0.549999 40.7857 0.585999C40.8937 0.622 40.9657 0.703 41.0017 0.828999C41.0377 0.882999 41.0647 0.936999 41.0827 0.990999C41.1007 1.045 41.1097 1.099 41.1097 1.153C41.1277 1.279 41.1547 1.396 41.1907 1.504C41.2267 1.594 41.2537 1.702 41.2717 1.828L41.2987 2.098C41.3347 2.26 41.3707 2.422 41.4067 2.584C41.4607 2.746 41.5057 2.908 41.5417 3.07V3.124C41.5597 3.304 41.5777 3.484 41.5957 3.664C41.6317 3.826 41.6407 3.997 41.6227 4.177V4.798C41.6227 4.888 41.6227 4.978 41.6227 5.068C41.6227 5.158 41.6137 5.248 41.5957 5.338C41.5777 5.464 41.5687 5.59 41.5687 5.716C41.5687 5.824 41.5687 5.941 41.5687 6.067C41.5507 6.139 41.5417 6.211 41.5417 6.283C41.5417 6.355 41.5327 6.427 41.5147 6.499C41.4967 6.571 41.4877 6.643 41.4877 6.715C41.4877 6.769 41.4877 6.841 41.4877 6.931V7.687C41.4877 7.813 41.4787 7.93 41.4607 8.038C41.4607 8.146 41.4517 8.263 41.4337 8.389C41.4157 8.461 41.4067 8.533 41.4067 8.605C41.4067 8.659 41.4067 8.722 41.4067 8.794V10.441C41.4067 10.567 41.4067 10.693 41.4067 10.819C41.4247 10.945 41.4427 11.071 41.4607 11.197C41.4787 11.287 41.4877 11.386 41.4877 11.494C41.4877 11.584 41.4877 11.674 41.4877 11.764C41.5057 11.89 41.5147 12.016 41.5147 12.142C41.5147 12.25 41.5237 12.376 41.5417 12.52V12.817C41.5597 12.961 41.5687 13.114 41.5687 13.276C41.5687 13.42 41.5687 13.564 41.5687 13.708V14.059C41.6047 14.185 41.6227 14.32 41.6227 14.464C41.6227 14.608 41.6317 14.752 41.6497 14.896V15.085C41.6857 15.193 41.7037 15.301 41.7037 15.409C41.7037 15.517 41.7127 15.625 41.7307 15.733L41.8117 16.705C41.8297 16.777 41.8387 16.849 41.8387 16.921C41.8567 16.975 41.8657 17.038 41.8657 17.11C41.8837 17.182 41.8927 17.254 41.8927 17.326C41.8927 17.38 41.9017 17.443 41.9197 17.515C41.9197 17.533 41.9197 17.56 41.9197 17.596C41.9377 17.632 41.9467 17.668 41.9467 17.704C41.9467 17.83 41.9557 17.965 41.9737 18.109C42.0097 18.253 42.0367 18.397 42.0547 18.541L42.1627 19.297C42.1627 19.405 42.1537 19.477 42.1357 19.513C42.1177 19.621 42.0727 19.72 42.0007 19.81C41.9467 19.918 41.9017 20.017 41.8657 20.107C41.8657 20.125 41.8567 20.134 41.8387 20.134C41.7127 20.242 41.5867 20.332 41.4607 20.404C41.3347 20.494 41.1997 20.557 41.0557 20.593ZM56.4697 20.971C56.3077 20.971 56.1637 20.908 56.0377 20.782C56.0017 20.728 55.9657 20.674 55.9297 20.62C55.8937 20.566 55.8577 20.512 55.8217 20.458C55.6597 20.08 55.5787 19.684 55.5787 19.27L55.4977 18.622C55.4437 18.37 55.3987 18.118 55.3627 17.866C55.3267 17.614 55.2637 17.371 55.1737 17.137L55.0117 16.678C55.0117 16.642 55.0027 16.606 54.9847 16.57C54.9847 16.534 54.9757 16.498 54.9577 16.462L54.5527 15.031C54.5347 14.995 54.5167 14.95 54.4987 14.896C54.4987 14.842 54.4807 14.797 54.4447 14.761C54.3907 14.653 54.3457 14.545 54.3097 14.437C54.2917 14.311 54.2647 14.185 54.2287 14.059C54.2107 13.969 54.1927 13.888 54.1747 13.816C54.1567 13.726 54.1297 13.636 54.0937 13.546C54.0577 13.438 54.0217 13.375 53.9857 13.357C53.9497 13.321 53.8687 13.321 53.7427 13.357C53.6527 13.375 53.5537 13.393 53.4457 13.411C53.3557 13.411 53.2657 13.429 53.1757 13.465C53.1037 13.483 53.0137 13.501 52.9057 13.519C52.8157 13.519 52.7257 13.528 52.6357 13.546L52.2577 13.627C52.1677 13.645 52.0687 13.672 51.9607 13.708C51.8707 13.726 51.7807 13.735 51.6907 13.735L51.2047 13.816C51.0607 13.852 50.9077 13.888 50.7457 13.924C50.5837 13.96 50.4307 13.996 50.2867 14.032C49.8547 14.14 49.4227 14.221 48.9907 14.275C48.8467 14.311 48.7657 14.374 48.7477 14.464C48.7297 14.464 48.7207 14.473 48.7207 14.491C48.6127 14.779 48.4867 15.067 48.3427 15.355C48.2167 15.625 48.0817 15.904 47.9377 16.192C47.9017 16.264 47.8657 16.336 47.8297 16.408C47.8117 16.462 47.7847 16.525 47.7487 16.597C47.7307 16.633 47.7127 16.678 47.6947 16.732C47.6767 16.768 47.6587 16.804 47.6407 16.84C47.5327 16.966 47.4787 17.119 47.4787 17.299C47.4607 17.407 47.4247 17.515 47.3707 17.623C47.3167 17.713 47.2627 17.803 47.2087 17.893C47.1907 17.947 47.1547 17.974 47.1007 17.974C47.0287 17.992 46.9567 18.019 46.8847 18.055C46.8127 18.091 46.7317 18.127 46.6417 18.163C46.5877 18.181 46.5337 18.181 46.4797 18.163C46.4437 18.145 46.3987 18.127 46.3447 18.109C46.3087 18.073 46.2727 18.055 46.2367 18.055C46.0387 18.037 45.8947 17.92 45.8047 17.704C45.6607 17.416 45.5617 17.128 45.5077 16.84C45.4897 16.768 45.4897 16.705 45.5077 16.651C45.5437 16.597 45.5707 16.543 45.5887 16.489C45.6967 16.417 45.7597 16.336 45.7777 16.246V16.219C45.7777 15.985 45.8227 15.769 45.9127 15.571C46.0207 15.355 46.1107 15.148 46.1827 14.95C46.2187 14.842 46.2637 14.734 46.3177 14.626C46.3717 14.518 46.4257 14.41 46.4797 14.302C46.5517 14.176 46.6057 14.059 46.6417 13.951C46.6957 13.825 46.7407 13.699 46.7767 13.573C46.8307 13.429 46.8307 13.294 46.7767 13.168C46.7407 13.06 46.7227 12.961 46.7227 12.871C46.7227 12.763 46.7317 12.655 46.7497 12.547C46.7497 12.349 46.8217 12.178 46.9657 12.034C47.0377 11.944 47.1097 11.872 47.1817 11.818C47.2717 11.746 47.3527 11.674 47.4247 11.602C47.5867 11.44 47.7127 11.224 47.8027 10.954C47.8747 10.72 47.9287 10.486 47.9647 10.252C48.0187 10 48.0727 9.757 48.1267 9.523C48.1627 9.289 48.1987 9.064 48.2347 8.848C48.2887 8.614 48.3427 8.389 48.3967 8.173C48.4147 8.083 48.4327 8.002 48.4507 7.93C48.4867 7.84 48.5137 7.759 48.5317 7.687C48.5857 7.543 48.6397 7.408 48.6937 7.282C48.7477 7.138 48.7837 6.994 48.8017 6.85C48.8377 6.778 48.8377 6.715 48.8017 6.661C48.7837 6.571 48.7837 6.49 48.8017 6.418C48.8377 6.346 48.8647 6.274 48.8827 6.202C48.9367 6.076 48.9727 5.95 48.9907 5.824C49.0267 5.698 49.0717 5.572 49.1257 5.446C49.2157 5.212 49.2877 5.023 49.3417 4.879C49.4137 4.717 49.4767 4.537 49.5307 4.339C49.5667 4.231 49.6027 4.132 49.6387 4.042C49.6927 3.934 49.7287 3.826 49.7467 3.718C49.8007 3.556 49.8457 3.394 49.8817 3.232C49.9177 3.052 49.9357 2.881 49.9357 2.719C49.9717 2.575 50.0077 2.476 50.0437 2.422C50.1337 2.242 50.2417 2.089 50.3677 1.963C50.5117 1.837 50.6467 1.711 50.7727 1.585C50.8627 1.531 50.9527 1.495 51.0427 1.477C51.1327 1.441 51.2227 1.45 51.3127 1.504C51.3847 1.54 51.4297 1.558 51.4477 1.558C51.6097 1.54 51.7447 1.576 51.8527 1.666C51.9607 1.756 52.0507 1.864 52.1227 1.99C52.1587 2.026 52.1857 2.071 52.2037 2.125C52.2217 2.179 52.2397 2.224 52.2577 2.26C52.3477 2.404 52.3927 2.548 52.3927 2.692C52.3927 2.764 52.4017 2.845 52.4197 2.935C52.4377 3.007 52.4557 3.088 52.4737 3.178C52.5277 3.286 52.6087 3.34 52.7167 3.34C52.7347 3.322 52.7527 3.322 52.7707 3.34C52.7887 3.358 52.7977 3.376 52.7977 3.394C52.8877 3.502 52.9147 3.619 52.8787 3.745C52.8427 3.889 52.8337 4.033 52.8517 4.177C52.8877 4.303 52.9237 4.438 52.9597 4.582C53.0317 4.762 53.1037 4.942 53.1757 5.122C53.2477 5.302 53.3197 5.482 53.3917 5.662C53.4817 5.86 53.5717 6.058 53.6617 6.256C53.7517 6.454 53.8327 6.652 53.9047 6.85C53.9947 7.102 54.0847 7.354 54.1747 7.606C54.2827 7.858 54.3997 8.11 54.5257 8.362L54.6067 8.659C54.6247 8.731 54.6427 8.803 54.6607 8.875C54.6967 8.947 54.7237 9.019 54.7417 9.091C54.7777 9.145 54.8047 9.199 54.8227 9.253C54.8587 9.307 54.8947 9.352 54.9307 9.388C55.0207 9.514 55.0747 9.649 55.0927 9.793C55.1467 9.973 55.2277 10.135 55.3357 10.279C55.3717 10.333 55.4257 10.36 55.4977 10.36C55.7677 10.324 56.0377 10.297 56.3077 10.279C56.5777 10.243 56.8477 10.189 57.1177 10.117C57.3157 10.063 57.5047 10.036 57.6847 10.036C58.0267 10.036 58.3417 10.153 58.6297 10.387C58.9717 10.657 59.1517 10.999 59.1697 11.413C59.1697 11.503 59.1787 11.575 59.1967 11.629C59.1967 11.755 59.1607 11.854 59.0887 11.926C59.0707 11.98 59.0347 12.034 58.9807 12.088C58.9447 12.142 58.9087 12.196 58.8727 12.25C58.8367 12.322 58.8007 12.376 58.7647 12.412L58.6027 12.547C58.5847 12.583 58.5577 12.628 58.5217 12.682C58.4857 12.718 58.4407 12.745 58.3867 12.763C58.3147 12.781 58.2427 12.808 58.1707 12.844C58.0987 12.862 58.0177 12.871 57.9277 12.871C57.6037 12.907 57.3157 12.898 57.0637 12.844H56.6317C56.5957 12.844 56.5417 12.862 56.4697 12.898C56.3977 12.934 56.3617 12.979 56.3617 13.033V13.141C56.4157 13.303 56.4517 13.474 56.4697 13.654C56.5057 13.816 56.5597 13.969 56.6317 14.113C56.6317 14.185 56.6497 14.257 56.6857 14.329C56.7757 14.491 56.8477 14.662 56.9017 14.842C56.9557 15.004 57.0007 15.175 57.0367 15.355C57.0367 15.391 57.0547 15.463 57.0907 15.571C57.1447 15.697 57.1897 15.832 57.2257 15.976C57.2617 16.102 57.2887 16.237 57.3067 16.381C57.3067 16.489 57.3337 16.588 57.3877 16.678C57.4597 16.84 57.5137 17.002 57.5497 17.164C57.5857 17.326 57.6127 17.497 57.6307 17.677C57.6487 17.695 57.6577 17.731 57.6577 17.785C57.6577 17.821 57.6667 17.857 57.6847 17.893C57.7747 18.091 57.8377 18.307 57.8737 18.541C57.9097 18.757 57.9547 18.973 58.0087 19.189C58.0447 19.297 58.0627 19.405 58.0627 19.513C58.0807 19.639 58.0897 19.765 58.0897 19.891C58.0897 19.981 58.0627 20.08 58.0087 20.188C57.9547 20.242 57.9277 20.269 57.9277 20.269C57.8197 20.287 57.7567 20.35 57.7387 20.458L57.6577 20.62C57.6217 20.692 57.5677 20.737 57.4957 20.755C57.4237 20.755 57.3607 20.782 57.3067 20.836C57.2347 20.908 57.1357 20.944 57.0097 20.944C56.9377 20.944 56.8477 20.944 56.7397 20.944C56.6497 20.944 56.5597 20.953 56.4697 20.971ZM49.9627 11.17C50.0707 11.152 50.1787 11.134 50.2867 11.116C50.4127 11.098 50.5477 11.08 50.6917 11.062C50.7817 11.044 50.8987 11.026 51.0427 11.008C51.1867 10.99 51.3217 10.972 51.4477 10.954C51.5737 10.918 51.6997 10.9 51.8257 10.9C51.9517 10.882 52.0777 10.864 52.2037 10.846C52.3117 10.81 52.4197 10.792 52.5277 10.792C52.6357 10.774 52.7437 10.756 52.8517 10.738C53.0137 10.702 53.0767 10.612 53.0407 10.468C53.0227 10.324 52.9867 10.18 52.9327 10.036C52.8967 9.874 52.8157 9.739 52.6897 9.631C52.6537 9.595 52.6357 9.541 52.6357 9.469V9.388C52.5997 9.244 52.5547 9.109 52.5007 8.983C52.4647 8.839 52.4197 8.704 52.3657 8.578C52.3297 8.434 52.2847 8.308 52.2307 8.2C52.1947 8.074 52.1497 7.948 52.0957 7.822L51.7717 6.85C51.7177 6.724 51.6637 6.598 51.6097 6.472C51.5737 6.346 51.5377 6.22 51.5017 6.094L51.4207 5.986H51.3397L51.2857 6.067C51.1957 6.337 51.0877 6.607 50.9617 6.877C50.8537 7.147 50.7547 7.435 50.6647 7.741C50.6647 7.777 50.6557 7.822 50.6377 7.876C50.6197 7.93 50.6017 7.984 50.5837 8.038C50.5117 8.218 50.4397 8.416 50.3677 8.632C50.3137 8.848 50.2687 9.064 50.2327 9.28C50.2147 9.406 50.1967 9.532 50.1787 9.658C50.1607 9.766 50.1337 9.883 50.0977 10.009L49.8547 11.062C49.8367 11.08 49.8457 11.107 49.8817 11.143C49.9177 11.161 49.9447 11.17 49.9627 11.17ZM70.4108 19.243C70.3568 19.225 70.2938 19.207 70.2218 19.189C70.1678 19.171 70.1138 19.153 70.0598 19.135C69.9158 19.081 69.7718 19.009 69.6278 18.919C69.5558 18.883 69.5018 18.829 69.4658 18.757C69.3398 18.559 69.2228 18.379 69.1148 18.217C69.0068 18.037 68.8898 17.857 68.7638 17.677L68.5208 17.245C68.3948 16.993 68.2688 16.75 68.1428 16.516C68.0168 16.264 67.8908 16.021 67.7648 15.787C67.7288 15.697 67.6838 15.625 67.6298 15.571C67.5938 15.499 67.5578 15.427 67.5218 15.355C67.3958 15.157 67.2788 14.959 67.1708 14.761C67.0628 14.545 66.9548 14.338 66.8468 14.14L66.1718 12.817C65.9918 12.457 65.8118 12.106 65.6318 11.764C65.4518 11.404 65.2718 11.044 65.0918 10.684C65.0558 10.648 65.0198 10.594 64.9838 10.522C64.9118 10.324 64.8218 10.135 64.7138 9.955C64.6238 9.775 64.5338 9.595 64.4438 9.415C64.3718 9.289 64.3088 9.163 64.2548 9.037C64.2008 8.893 64.1378 8.758 64.0658 8.632L63.7688 8.092C63.7328 8.092 63.7058 8.083 63.6878 8.065C63.6878 8.065 63.6788 8.074 63.6608 8.092C63.6608 8.092 63.6608 8.101 63.6608 8.119C63.6428 8.353 63.6248 8.596 63.6068 8.848C63.5888 9.1 63.5888 9.352 63.6068 9.604C63.6428 9.712 63.6428 9.829 63.6068 9.955C63.5708 10.279 63.5798 10.567 63.6338 10.819C63.6518 10.891 63.6518 10.963 63.6338 11.035C63.6338 11.107 63.6248 11.188 63.6068 11.278C63.5888 11.404 63.5798 11.521 63.5798 11.629C63.5798 11.737 63.5708 11.854 63.5528 11.98C63.5888 12.052 63.6068 12.133 63.6068 12.223C63.6068 12.295 63.5978 12.367 63.5798 12.439C63.5258 12.619 63.5258 12.808 63.5798 13.006C63.6158 13.06 63.6158 13.114 63.5798 13.168C63.5078 13.33 63.4898 13.528 63.5258 13.762C63.5798 14.068 63.5618 14.401 63.4718 14.761C63.4538 14.797 63.4448 14.86 63.4448 14.95C63.4268 15.022 63.4448 15.085 63.4988 15.139C63.5708 15.175 63.5888 15.22 63.5528 15.274C63.5348 15.508 63.5348 15.751 63.5528 16.003C63.5528 16.003 63.5528 16.012 63.5528 16.03C63.5528 16.03 63.5438 16.03 63.5258 16.03C63.5078 16.03 63.4988 16.021 63.4988 16.003C63.4808 15.985 63.4718 15.967 63.4718 15.949C63.4358 15.913 63.4178 15.922 63.4178 15.976C63.4178 16.066 63.4268 16.12 63.4448 16.138C63.4808 16.228 63.4988 16.318 63.4988 16.408C63.4988 16.498 63.4988 16.588 63.4988 16.678V17.515C63.4988 17.569 63.4898 17.623 63.4718 17.677C63.4718 17.731 63.4448 17.776 63.3908 17.812C63.3188 17.83 63.2828 17.893 63.2828 18.001C63.2648 18.199 63.1928 18.37 63.0668 18.514C62.9588 18.658 62.8328 18.784 62.6888 18.892C62.6168 18.946 62.5268 18.982 62.4188 19C62.3288 19 62.2388 18.991 62.1488 18.973L61.6628 18.811C61.6268 18.811 61.5908 18.784 61.5548 18.73C61.5008 18.676 61.4468 18.622 61.3928 18.568C61.3388 18.496 61.2758 18.433 61.2038 18.379C61.1138 18.325 61.0508 18.226 61.0148 18.082C60.9968 17.992 60.9698 17.893 60.9338 17.785C60.8978 17.677 60.8798 17.569 60.8798 17.461C60.8798 17.335 60.8798 17.218 60.8798 17.11C60.8978 17.002 60.9068 16.885 60.9068 16.759C60.9248 16.669 60.9338 16.588 60.9338 16.516C60.9338 16.426 60.9428 16.336 60.9608 16.246V6.364C60.9608 6.274 60.9608 6.184 60.9608 6.094C60.9788 6.004 60.9968 5.923 61.0148 5.851C61.0148 5.761 61.0148 5.671 61.0148 5.581C61.0328 5.491 61.0418 5.401 61.0418 5.311C61.0418 5.203 61.0418 5.095 61.0418 4.987C61.0598 4.879 61.0778 4.78 61.0958 4.69C61.1138 4.618 61.1228 4.555 61.1228 4.501C61.1228 4.447 61.1228 4.384 61.1228 4.312V3.475C61.1228 3.349 61.1318 3.241 61.1498 3.151C61.1858 3.043 61.2128 2.935 61.2308 2.827L61.3118 2.692C61.3658 2.638 61.4108 2.557 61.4468 2.449C61.4828 2.341 61.5368 2.287 61.6088 2.287C61.6628 2.251 61.7168 2.224 61.7708 2.206C61.8248 2.17 61.8608 2.116 61.8788 2.044L61.9058 2.017C61.9238 2.017 61.9418 2.017 61.9598 2.017C61.9778 1.999 61.9958 1.99 62.0138 1.99C62.0858 1.99 62.1398 1.972 62.1758 1.936C62.2298 1.9 62.2928 1.891 62.3648 1.909C62.4368 1.927 62.5088 1.936 62.5808 1.936C62.6528 1.936 62.7248 1.945 62.7968 1.963C63.1928 2.035 63.4718 2.269 63.6338 2.665L63.7958 3.205C63.8138 3.385 63.8948 3.556 64.0388 3.718C64.1468 3.844 64.2548 3.979 64.3628 4.123C64.4708 4.267 64.5878 4.411 64.7138 4.555C65.1818 5.149 65.6138 5.815 66.0098 6.553C66.0458 6.625 66.0818 6.697 66.1178 6.769C66.1538 6.841 66.1898 6.913 66.2258 6.985L67.6298 9.82C67.7378 10.018 67.8368 10.225 67.9268 10.441C68.0348 10.639 68.1518 10.837 68.2778 11.035C68.3138 11.107 68.3498 11.179 68.3858 11.251C68.4218 11.305 68.4488 11.368 68.4668 11.44C68.5568 11.656 68.6648 11.872 68.7908 12.088C68.7908 12.088 68.7908 12.097 68.7908 12.115C68.8088 12.115 68.8178 12.106 68.8178 12.088C68.8358 12.088 68.8448 12.088 68.8448 12.088C68.8628 12.07 68.8718 12.061 68.8718 12.061L68.9528 11.116V10.846C68.9708 10.756 68.9798 10.666 68.9798 10.576C68.9978 10.468 69.0158 10.369 69.0338 10.279C69.0518 10.225 69.0518 10.162 69.0338 10.09C69.0338 10.018 69.0428 9.946 69.0608 9.874C69.0608 9.766 69.0608 9.658 69.0608 9.55C69.0788 9.424 69.0968 9.307 69.1148 9.199C69.1328 9.145 69.1418 9.091 69.1418 9.037C69.1418 8.965 69.1418 8.902 69.1418 8.848V8.119H69.1148V7.39C69.1148 7.3 69.1148 7.21 69.1148 7.12C69.1148 7.03 69.0968 6.94 69.0608 6.85C69.0428 6.796 69.0338 6.715 69.0338 6.607L69.0608 6.418C69.0608 6.364 69.0518 6.319 69.0338 6.283C69.0338 6.229 69.0338 6.175 69.0338 6.121C69.0518 6.049 69.0428 5.977 69.0068 5.905C68.9708 5.833 68.9528 5.761 68.9528 5.689C68.9708 5.617 68.9798 5.545 68.9798 5.473C68.9798 5.401 68.9798 5.329 68.9798 5.257C68.9798 5.185 68.9438 5.149 68.8718 5.149C68.8538 5.149 68.8448 5.131 68.8448 5.095C68.8268 5.041 68.8268 4.996 68.8448 4.96C68.8808 4.87 68.8988 4.771 68.8988 4.663C68.8988 4.555 68.8988 4.447 68.8988 4.339V3.556C68.8808 3.448 68.8898 3.34 68.9258 3.232C68.9618 3.124 69.0068 3.025 69.0608 2.935L69.1688 2.773C69.2588 2.683 69.3578 2.593 69.4658 2.503C69.5738 2.413 69.6818 2.323 69.7898 2.233C69.7898 2.233 69.8258 2.215 69.8978 2.179C69.9878 2.161 70.0688 2.143 70.1408 2.125C70.2308 2.107 70.3208 2.107 70.4108 2.125C70.4828 2.125 70.5368 2.134 70.5728 2.152C70.6448 2.188 70.7168 2.233 70.7888 2.287C70.8608 2.323 70.9328 2.368 71.0048 2.422C71.0408 2.44 71.0588 2.458 71.0588 2.476C71.0768 2.494 71.0948 2.512 71.1128 2.53C71.1488 2.566 71.1758 2.611 71.1938 2.665C71.2298 2.701 71.2568 2.737 71.2748 2.773C71.3648 2.845 71.4188 2.935 71.4368 3.043C71.4728 3.133 71.4998 3.223 71.5178 3.313V4.447C71.5178 4.573 71.5178 4.699 71.5178 4.825C71.5358 4.933 71.5538 5.05 71.5718 5.176C71.5898 5.248 71.5988 5.32 71.5988 5.392C71.5988 5.446 71.5988 5.509 71.5988 5.581C71.5988 5.725 71.5988 5.878 71.5988 6.04C71.6168 6.184 71.6258 6.328 71.6258 6.472V6.661C71.6258 6.787 71.6168 6.913 71.5988 7.039C71.5988 7.147 71.5988 7.264 71.5988 7.39V8.578C71.5988 8.758 71.5898 8.947 71.5718 9.145C71.5718 9.325 71.5808 9.514 71.5988 9.712C71.5988 9.784 71.5898 9.838 71.5718 9.874C71.5538 10.054 71.5448 10.234 71.5448 10.414C71.5448 10.576 71.5358 10.747 71.5178 10.927C71.5178 10.999 71.5178 11.08 71.5178 11.17C71.5178 11.26 71.5088 11.35 71.4908 11.44C71.4728 11.512 71.4638 11.584 71.4638 11.656C71.4818 11.728 71.4908 11.8 71.4908 11.872C71.5268 12.034 71.5358 12.196 71.5178 12.358C71.5178 12.52 71.5088 12.682 71.4908 12.844C71.4728 13.132 71.4548 13.429 71.4368 13.735C71.4368 14.023 71.4548 14.32 71.4908 14.626C71.4908 14.698 71.4908 14.779 71.4908 14.869C71.5088 14.959 71.5178 15.049 71.5178 15.139C71.4998 15.409 71.5088 15.67 71.5448 15.922C71.5988 16.174 71.6528 16.426 71.7068 16.678C71.7428 16.858 71.7788 17.038 71.8148 17.218C71.8508 17.38 71.8778 17.56 71.8958 17.758C71.8958 17.83 71.8868 17.875 71.8688 17.893C71.8508 17.929 71.8328 17.974 71.8148 18.028C71.7968 18.064 71.7878 18.1 71.7878 18.136C71.7698 18.28 71.7158 18.415 71.6258 18.541C71.5538 18.667 71.4728 18.793 71.3828 18.919C71.1488 19.225 70.8248 19.333 70.4108 19.243ZM78.0963 19.378C77.9703 19.378 77.8173 19.333 77.6373 19.243C77.5473 19.189 77.4753 19.117 77.4213 19.027C77.4033 18.973 77.3583 18.973 77.2863 19.027C77.2323 19.063 77.1873 19.063 77.1513 19.027C77.0973 18.973 77.0433 18.937 76.9893 18.919C76.9173 18.919 76.8813 18.892 76.8813 18.838C76.8813 18.784 76.8723 18.739 76.8543 18.703C76.8543 18.649 76.8363 18.604 76.8003 18.568C76.6923 18.532 76.6203 18.442 76.5843 18.298C76.5663 18.244 76.5483 18.199 76.5303 18.163C76.5123 18.109 76.4853 18.055 76.4493 18.001C76.4133 17.929 76.3953 17.866 76.3953 17.812C76.3773 17.758 76.3593 17.713 76.3413 17.677C76.3413 17.623 76.3233 17.569 76.2873 17.515C76.2693 17.389 76.2333 17.272 76.1793 17.164C76.1253 17.056 76.0803 16.939 76.0443 16.813C76.0083 16.741 75.9903 16.642 75.9903 16.516C75.9903 16.192 76.0443 15.895 76.1523 15.625C76.2423 15.463 76.2693 15.301 76.2333 15.139C76.2153 15.067 76.2153 14.995 76.2333 14.923C76.2693 14.851 76.2783 14.779 76.2603 14.707C76.2423 14.635 76.2243 14.572 76.2063 14.518C76.2063 14.464 76.2063 14.401 76.2063 14.329C76.1883 14.293 76.1793 14.248 76.1793 14.194C76.1793 14.086 76.1793 13.978 76.1793 13.87C76.1793 13.744 76.1613 13.618 76.1253 13.492C76.1073 13.438 76.0983 13.357 76.0983 13.249V12.25C76.0803 12.016 76.0533 11.782 76.0173 11.548C75.9813 11.314 75.9363 11.08 75.8823 10.846C75.8823 10.792 75.8733 10.738 75.8553 10.684C75.8553 10.63 75.8553 10.576 75.8553 10.522C75.8553 10.126 75.7923 9.739 75.6663 9.361V9.118C75.7023 8.92 75.6843 8.767 75.6123 8.659C75.5943 8.587 75.5853 8.488 75.5853 8.362V8.335C75.5853 8.155 75.5763 7.975 75.5583 7.795C75.5583 7.615 75.5673 7.435 75.5853 7.255C75.6213 6.931 75.6213 6.589 75.5853 6.229C75.5853 6.085 75.5853 5.941 75.5853 5.797C75.5853 5.653 75.5763 5.518 75.5583 5.392V5.23C75.5943 5.14 75.6123 5.059 75.6123 4.987C75.6123 4.915 75.6123 4.843 75.6123 4.771C75.6123 4.555 75.6033 4.348 75.5853 4.15C75.5853 3.934 75.5673 3.727 75.5313 3.529C75.5313 3.475 75.5313 3.421 75.5313 3.367C75.5313 3.295 75.5223 3.232 75.5043 3.178C75.5043 3.052 75.4593 2.944 75.3693 2.854L75.1803 2.692C75.0003 2.584 74.8833 2.413 74.8293 2.179C74.8113 2.143 74.8023 2.116 74.8023 2.098C74.8023 2.062 74.7933 2.026 74.7753 1.99C74.7393 1.9 74.7573 1.819 74.8293 1.747C74.8833 1.675 74.9193 1.603 74.9373 1.531C74.9373 1.477 74.9463 1.432 74.9643 1.396C75.0003 1.342 75.0273 1.288 75.0453 1.234C75.0633 1.18 75.0813 1.117 75.0993 1.045C75.1353 0.990999 75.1623 0.972999 75.1803 0.990999C75.3063 0.990999 75.3963 0.972999 75.4503 0.936999C75.5763 0.846999 75.7113 0.829 75.8553 0.883C75.8913 0.901 75.9453 0.891999 76.0173 0.855999C76.0353 0.855999 76.0443 0.846999 76.0443 0.828999C76.1343 0.738999 76.2333 0.693999 76.3413 0.693999C76.4493 0.675999 76.5663 0.675999 76.6923 0.693999C76.7103 0.693999 76.7283 0.702999 76.7463 0.720999C76.7643 0.720999 76.7823 0.720999 76.8003 0.720999C76.9443 0.756999 77.0793 0.792999 77.2053 0.828999C77.3493 0.846999 77.4843 0.846999 77.6103 0.828999C77.7003 0.828999 77.7903 0.837999 77.8803 0.855999C77.9883 0.873999 78.0873 0.883 78.1773 0.883C78.2493 0.883 78.3123 0.892 78.3663 0.91C78.4383 0.927999 78.5013 0.945999 78.5553 0.963999C78.6273 0.981999 78.6903 1.009 78.7443 1.045C78.7983 1.063 78.8613 1.072 78.9333 1.072C79.0233 1.09 79.0953 1.108 79.1493 1.126C79.2213 1.144 79.2933 1.171 79.3653 1.207C79.5993 1.333 79.8333 1.45 80.0673 1.558C80.1753 1.612 80.2743 1.684 80.3643 1.774C80.4903 1.864 80.5983 1.918 80.6883 1.936C80.7063 1.936 80.7243 1.945 80.7423 1.963C80.7603 1.963 80.7783 1.963 80.7963 1.963C80.8143 1.981 80.8323 1.99 80.8503 1.99C80.8683 1.99 80.8863 1.999 80.9043 2.017C80.9943 2.107 81.1023 2.179 81.2283 2.233C81.3723 2.269 81.4893 2.332 81.5793 2.422C81.6153 2.458 81.6693 2.494 81.7413 2.53C81.8853 2.584 82.0113 2.665 82.1193 2.773C82.1553 2.809 82.1823 2.827 82.2003 2.827C82.2723 2.827 82.3533 2.872 82.4433 2.962L83.0103 3.556C83.0823 3.628 83.1363 3.691 83.1723 3.745C83.2623 3.871 83.3613 3.988 83.4693 4.096C83.5773 4.204 83.6853 4.312 83.7933 4.42C83.8293 4.456 83.8653 4.501 83.9013 4.555C83.9553 4.591 83.9913 4.636 84.0093 4.69C84.0273 4.726 84.0543 4.762 84.0903 4.798C84.1263 4.816 84.1533 4.843 84.1713 4.879C84.3693 5.095 84.5583 5.32 84.7383 5.554C84.9363 5.788 85.1163 6.031 85.2783 6.283C85.3683 6.409 85.4493 6.544 85.5213 6.688C85.5933 6.832 85.6563 6.976 85.7103 7.12C85.7643 7.246 85.8183 7.372 85.8723 7.498C85.9443 7.624 86.0073 7.75 86.0613 7.876C86.1153 8.074 86.1783 8.254 86.2503 8.416C86.3223 8.65 86.3943 8.875 86.4663 9.091C86.5383 9.307 86.6013 9.541 86.6553 9.793L86.7363 10.144C86.7363 10.288 86.7363 10.441 86.7363 10.603C86.7543 10.747 86.7633 10.9 86.7633 11.062C86.7633 11.134 86.7543 11.197 86.7363 11.251C86.7363 11.305 86.7183 11.368 86.6823 11.44C86.6463 11.548 86.6283 11.647 86.6283 11.737C86.6103 11.917 86.5653 12.088 86.4933 12.25C86.4393 12.412 86.3763 12.565 86.3043 12.709C86.1423 12.997 85.9983 13.285 85.8723 13.573C85.8363 13.645 85.8003 13.717 85.7643 13.789C85.7463 13.843 85.7193 13.906 85.6833 13.978L85.5213 14.302C85.3953 14.554 85.2423 14.806 85.0623 15.058C84.9003 15.292 84.7203 15.517 84.5223 15.733C84.4503 15.823 84.3603 15.913 84.2523 16.003C84.1623 16.075 84.0723 16.156 83.9823 16.246C83.8023 16.408 83.6223 16.57 83.4423 16.732C83.2623 16.876 83.0733 17.02 82.8753 17.164C82.6953 17.29 82.5063 17.407 82.3083 17.515C82.1283 17.623 81.9303 17.713 81.7143 17.785C81.6063 17.803 81.4983 17.857 81.3903 17.947C81.2823 18.019 81.1653 18.091 81.0393 18.163C80.9313 18.235 80.8143 18.316 80.6883 18.406C80.6343 18.424 80.5803 18.451 80.5263 18.487C80.4723 18.505 80.4093 18.523 80.3373 18.541C80.2833 18.559 80.2203 18.577 80.1483 18.595C80.0943 18.613 80.0403 18.631 79.9863 18.649C79.9143 18.667 79.8423 18.694 79.7703 18.73C79.7163 18.766 79.6623 18.811 79.6083 18.865C79.4823 18.955 79.3473 19.027 79.2033 19.081C79.0593 19.153 78.9153 19.234 78.7713 19.324C78.7353 19.342 78.6723 19.351 78.5823 19.351C78.5283 19.369 78.4743 19.369 78.4203 19.351C78.3663 19.351 78.3123 19.351 78.2583 19.351V19.378H78.0963ZM79.1763 16.354C79.3563 16.354 79.5093 16.318 79.6353 16.246C79.7793 16.192 79.9143 16.129 80.0403 16.057C80.1663 15.985 80.2833 15.904 80.3913 15.814L80.7153 15.49C80.8953 15.346 81.0573 15.193 81.2013 15.031C81.3633 14.869 81.5343 14.725 81.7143 14.599C81.7503 14.563 81.7683 14.545 81.7683 14.545C81.8403 14.473 81.9033 14.41 81.9573 14.356C82.0293 14.284 82.0923 14.212 82.1463 14.14C82.1823 14.104 82.2273 14.059 82.2813 14.005C82.3353 13.951 82.3713 13.906 82.3893 13.87C82.4613 13.744 82.5603 13.636 82.6863 13.546C82.7763 13.492 82.8303 13.438 82.8483 13.384C82.8843 13.294 82.9293 13.204 82.9833 13.114C83.0553 13.024 83.1273 12.943 83.1993 12.871C83.2893 12.763 83.3793 12.601 83.4693 12.385L83.5773 12.115C83.6853 11.863 83.7393 11.629 83.7393 11.413C83.7573 11.359 83.7663 11.278 83.7663 11.17C83.7843 10.9 83.7663 10.612 83.7123 10.306C83.6943 10.216 83.6763 10.126 83.6583 10.036C83.6403 9.946 83.6313 9.865 83.6313 9.793C83.6133 9.721 83.5953 9.658 83.5773 9.604C83.5773 9.532 83.5593 9.469 83.5233 9.415C83.4873 9.343 83.4603 9.271 83.4423 9.199C83.4243 9.127 83.4063 9.055 83.3883 8.983C83.3883 8.857 83.3703 8.749 83.3343 8.659C83.2983 8.551 83.2623 8.443 83.2263 8.335C83.1723 8.227 83.1183 8.119 83.0643 8.011C83.0103 7.885 82.9653 7.759 82.9293 7.633L82.9023 7.525C82.8483 7.453 82.8033 7.381 82.7673 7.309C82.7493 7.219 82.7223 7.138 82.6863 7.066C82.6143 6.904 82.5423 6.742 82.4703 6.58C82.4163 6.418 82.3443 6.265 82.2543 6.121C82.1643 5.959 82.0653 5.797 81.9573 5.635C81.8673 5.473 81.7503 5.329 81.6063 5.203C81.1923 4.753 80.7153 4.348 80.1753 3.988C79.8513 3.754 79.5273 3.601 79.2033 3.529C79.0773 3.493 78.9333 3.466 78.7713 3.448C78.6093 3.412 78.4563 3.385 78.3123 3.367C78.2583 3.367 78.2133 3.385 78.1773 3.421C78.0873 3.493 78.0423 3.583 78.0423 3.691C78.0423 3.817 78.0333 3.952 78.0153 4.096C78.0153 4.222 78.0153 4.357 78.0153 4.501C78.0513 4.753 78.0423 4.96 77.9883 5.122C77.9703 5.194 77.9523 5.266 77.9343 5.338C77.9343 5.41 77.9433 5.491 77.9613 5.581C77.9973 5.689 77.9883 5.788 77.9343 5.878C77.8803 5.986 77.8803 6.103 77.9343 6.229C78.0063 6.373 78.0243 6.553 77.9883 6.769C77.9343 6.985 77.9343 7.201 77.9883 7.417C78.0063 7.489 78.0153 7.561 78.0153 7.633C78.0333 7.705 78.0333 7.786 78.0153 7.876C78.0153 8.074 78.0243 8.272 78.0423 8.47C78.0783 8.668 78.1053 8.866 78.1233 9.064C78.1233 9.1 78.1413 9.154 78.1773 9.226V9.658C78.1773 9.694 78.1683 9.739 78.1503 9.793C78.1503 9.829 78.1593 9.865 78.1773 9.901C78.2133 10.045 78.2403 10.198 78.2583 10.36C78.2943 10.504 78.3303 10.648 78.3663 10.792C78.3663 10.828 78.3753 10.873 78.3933 10.927C78.4113 10.963 78.4203 11.008 78.4203 11.062C78.4203 11.188 78.4293 11.314 78.4473 11.44C78.4653 11.566 78.4833 11.701 78.5013 11.845C78.5553 12.349 78.6363 12.862 78.7443 13.384C78.7983 13.6 78.8253 13.825 78.8253 14.059C78.8253 14.113 78.8253 14.176 78.8253 14.248C78.8253 14.302 78.8343 14.356 78.8523 14.41C78.8883 14.536 78.9063 14.662 78.9063 14.788C78.9063 14.914 78.9063 15.04 78.9063 15.166C78.9063 15.202 78.8973 15.247 78.8793 15.301C78.8793 15.355 78.8883 15.4 78.9063 15.436C78.9423 15.526 78.9603 15.616 78.9603 15.706C78.9603 15.778 78.9603 15.859 78.9603 15.949C78.9603 16.021 78.9783 16.111 79.0143 16.219C79.0143 16.309 79.0683 16.354 79.1763 16.354ZM91.5955 19.27C91.4875 19.27 91.4155 19.261 91.3795 19.243C91.3075 19.207 91.2445 19.18 91.1905 19.162C91.1365 19.144 91.0825 19.126 91.0285 19.108C90.9745 19.072 90.9205 19.036 90.8665 19C90.8305 18.946 90.7945 18.892 90.7585 18.838C90.7225 18.802 90.6865 18.784 90.6505 18.784C90.5425 18.784 90.4885 18.73 90.4885 18.622C90.4705 18.514 90.4525 18.406 90.4345 18.298C90.4165 18.19 90.3985 18.082 90.3805 17.974C90.3625 17.812 90.3445 17.65 90.3265 17.488C90.3265 17.326 90.3085 17.173 90.2725 17.029V16.786C90.2725 16.714 90.2635 16.651 90.2455 16.597C90.2455 16.543 90.2455 16.48 90.2455 16.408C90.2095 16.318 90.2095 16.246 90.2455 16.192C90.2815 15.868 90.2815 15.544 90.2455 15.22C90.2275 15.13 90.2185 15.04 90.2185 14.95C90.2185 14.86 90.2095 14.77 90.1915 14.68C90.1915 14.5 90.1915 14.32 90.1915 14.14C90.1915 13.942 90.1735 13.753 90.1375 13.573V13.141C90.1375 12.997 90.1285 12.862 90.1105 12.736C90.1105 12.61 90.1015 12.484 90.0835 12.358C90.0655 12.196 90.0475 12.034 90.0295 11.872C90.0295 11.71 90.0205 11.548 90.0025 11.386C89.9845 11.35 89.9755 11.287 89.9755 11.197C89.9575 11.107 89.9395 11.017 89.9215 10.927C89.9215 10.819 89.9215 10.72 89.9215 10.63L89.8405 9.28C89.8225 9.136 89.8045 9.001 89.7865 8.875C89.7865 8.731 89.7865 8.596 89.7865 8.47C89.7685 8.254 89.7505 8.038 89.7325 7.822C89.7145 7.606 89.6965 7.399 89.6785 7.201C89.6785 7.165 89.6695 7.129 89.6515 7.093C89.6515 7.057 89.6515 7.03 89.6515 7.012C89.6515 6.796 89.6425 6.58 89.6245 6.364C89.6065 6.148 89.5885 5.923 89.5705 5.689L89.4895 4.933C89.4355 4.645 89.4265 4.33 89.4625 3.988C89.4625 3.826 89.5255 3.691 89.6515 3.583C89.6875 3.547 89.7145 3.529 89.7325 3.529C89.7505 3.511 89.7685 3.493 89.7865 3.475C89.8765 3.457 89.9215 3.394 89.9215 3.286C89.9215 3.25 89.9575 3.232 90.0295 3.232H90.1645C90.1825 3.232 90.1915 3.232 90.1915 3.232C90.2095 3.214 90.2275 3.205 90.2455 3.205C90.2815 3.187 90.3085 3.169 90.3265 3.151C90.3625 3.115 90.3895 3.097 90.4075 3.097C90.4435 3.097 90.4795 3.106 90.5155 3.124C90.5515 3.124 90.5875 3.133 90.6235 3.151C90.6595 3.151 90.6865 3.142 90.7045 3.124C90.7945 3.106 90.8845 3.115 90.9745 3.151C91.0825 3.169 91.1725 3.196 91.2445 3.232C91.3525 3.25 91.4335 3.322 91.4875 3.448C91.5415 3.61 91.5865 3.772 91.6225 3.934C91.6765 4.078 91.7125 4.231 91.7305 4.393V4.609C91.7665 4.735 91.7845 4.87 91.7845 5.014C91.7845 5.14 91.7845 5.275 91.7845 5.419C91.7845 5.545 91.7845 5.671 91.7845 5.797C91.8025 5.905 91.8205 6.013 91.8385 6.121C91.8385 6.175 91.8385 6.229 91.8385 6.283C91.8385 6.337 91.8475 6.391 91.8655 6.445C91.8655 6.553 91.8655 6.661 91.8655 6.769C91.8835 6.877 91.9015 6.994 91.9195 7.12C91.9375 7.318 91.9555 7.525 91.9735 7.741C91.9915 7.957 92.0005 8.173 92.0005 8.389C92.0005 8.479 92.0005 8.578 92.0005 8.686C92.0005 8.776 92.0095 8.866 92.0275 8.956C92.0455 9.01 92.0545 9.064 92.0545 9.118C92.0545 9.172 92.0545 9.226 92.0545 9.28V9.82C92.0545 9.928 92.0635 10.018 92.0815 10.09C92.1175 10.216 92.1265 10.342 92.1085 10.468C92.1085 10.576 92.1175 10.693 92.1355 10.819L92.2165 12.061C92.2345 12.241 92.2435 12.43 92.2435 12.628C92.2615 12.808 92.2705 12.997 92.2705 13.195C92.2705 13.267 92.2705 13.348 92.2705 13.438C92.2705 13.51 92.2795 13.582 92.2975 13.654C92.3155 13.708 92.3245 13.762 92.3245 13.816C92.3245 13.87 92.3245 13.924 92.3245 13.978C92.3425 13.996 92.3425 14.032 92.3245 14.086C92.3245 14.122 92.3335 14.158 92.3515 14.194C92.3875 14.32 92.4055 14.446 92.4055 14.572C92.4055 14.698 92.4055 14.833 92.4055 14.977C92.4055 15.049 92.4055 15.13 92.4055 15.22C92.4235 15.292 92.4325 15.373 92.4325 15.463C92.4505 15.553 92.4595 15.652 92.4595 15.76C92.4595 15.868 92.4595 15.967 92.4595 16.057C92.4775 16.147 92.4865 16.246 92.4865 16.354C92.4865 16.444 92.4955 16.534 92.5135 16.624C92.5315 16.66 92.5405 16.696 92.5405 16.732C92.5405 16.93 92.5585 17.128 92.5945 17.326C92.6305 17.524 92.6665 17.722 92.7025 17.92C92.7205 17.974 92.7295 18.037 92.7295 18.109C92.7295 18.163 92.7295 18.217 92.7295 18.271C92.7295 18.325 92.7115 18.37 92.6755 18.406C92.6035 18.46 92.5495 18.568 92.5135 18.73C92.5135 18.784 92.4865 18.829 92.4325 18.865C92.3065 18.919 92.1985 18.991 92.1085 19.081C91.9645 19.207 91.7935 19.27 91.5955 19.27ZM105.479 19.243C105.425 19.225 105.362 19.207 105.29 19.189C105.236 19.171 105.182 19.153 105.128 19.135C104.984 19.081 104.84 19.009 104.696 18.919C104.624 18.883 104.57 18.829 104.534 18.757C104.408 18.559 104.291 18.379 104.183 18.217C104.075 18.037 103.958 17.857 103.832 17.677L103.589 17.245C103.463 16.993 103.337 16.75 103.211 16.516C103.085 16.264 102.959 16.021 102.833 15.787C102.797 15.697 102.752 15.625 102.698 15.571C102.662 15.499 102.626 15.427 102.59 15.355C102.464 15.157 102.347 14.959 102.239 14.761C102.131 14.545 102.023 14.338 101.915 14.14L101.24 12.817C101.06 12.457 100.88 12.106 100.7 11.764C100.52 11.404 100.34 11.044 100.16 10.684C100.124 10.648 100.088 10.594 100.052 10.522C99.9802 10.324 99.8902 10.135 99.7822 9.955C99.6922 9.775 99.6022 9.595 99.5122 9.415C99.4402 9.289 99.3772 9.163 99.3232 9.037C99.2692 8.893 99.2062 8.758 99.1342 8.632L98.8372 8.092C98.8012 8.092 98.7742 8.083 98.7562 8.065C98.7562 8.065 98.7472 8.074 98.7292 8.092C98.7292 8.092 98.7292 8.101 98.7292 8.119C98.7112 8.353 98.6932 8.596 98.6752 8.848C98.6572 9.1 98.6572 9.352 98.6752 9.604C98.7112 9.712 98.7112 9.829 98.6752 9.955C98.6392 10.279 98.6482 10.567 98.7022 10.819C98.7202 10.891 98.7202 10.963 98.7022 11.035C98.7022 11.107 98.6932 11.188 98.6752 11.278C98.6572 11.404 98.6482 11.521 98.6482 11.629C98.6482 11.737 98.6392 11.854 98.6212 11.98C98.6572 12.052 98.6752 12.133 98.6752 12.223C98.6752 12.295 98.6662 12.367 98.6482 12.439C98.5942 12.619 98.5942 12.808 98.6482 13.006C98.6842 13.06 98.6842 13.114 98.6482 13.168C98.5762 13.33 98.5582 13.528 98.5942 13.762C98.6482 14.068 98.6302 14.401 98.5402 14.761C98.5222 14.797 98.5132 14.86 98.5132 14.95C98.4952 15.022 98.5132 15.085 98.5672 15.139C98.6392 15.175 98.6572 15.22 98.6212 15.274C98.6032 15.508 98.6032 15.751 98.6212 16.003C98.6212 16.003 98.6212 16.012 98.6212 16.03C98.6212 16.03 98.6122 16.03 98.5942 16.03C98.5762 16.03 98.5672 16.021 98.5672 16.003C98.5492 15.985 98.5402 15.967 98.5402 15.949C98.5042 15.913 98.4862 15.922 98.4862 15.976C98.4862 16.066 98.4952 16.12 98.5132 16.138C98.5492 16.228 98.5672 16.318 98.5672 16.408C98.5672 16.498 98.5672 16.588 98.5672 16.678V17.515C98.5672 17.569 98.5582 17.623 98.5402 17.677C98.5402 17.731 98.5132 17.776 98.4592 17.812C98.3872 17.83 98.3512 17.893 98.3512 18.001C98.3332 18.199 98.2612 18.37 98.1352 18.514C98.0272 18.658 97.9012 18.784 97.7572 18.892C97.6852 18.946 97.5952 18.982 97.4872 19C97.3972 19 97.3072 18.991 97.2172 18.973L96.7312 18.811C96.6952 18.811 96.6592 18.784 96.6232 18.73C96.5692 18.676 96.5152 18.622 96.4612 18.568C96.4072 18.496 96.3442 18.433 96.2722 18.379C96.1822 18.325 96.1192 18.226 96.0832 18.082C96.0652 17.992 96.0382 17.893 96.0022 17.785C95.9662 17.677 95.9482 17.569 95.9482 17.461C95.9482 17.335 95.9482 17.218 95.9482 17.11C95.9662 17.002 95.9752 16.885 95.9752 16.759C95.9932 16.669 96.0022 16.588 96.0022 16.516C96.0022 16.426 96.0112 16.336 96.0292 16.246V6.364C96.0292 6.274 96.0292 6.184 96.0292 6.094C96.0472 6.004 96.0652 5.923 96.0832 5.851C96.0832 5.761 96.0832 5.671 96.0832 5.581C96.1012 5.491 96.1102 5.401 96.1102 5.311C96.1102 5.203 96.1102 5.095 96.1102 4.987C96.1282 4.879 96.1462 4.78 96.1642 4.69C96.1822 4.618 96.1912 4.555 96.1912 4.501C96.1912 4.447 96.1912 4.384 96.1912 4.312V3.475C96.1912 3.349 96.2002 3.241 96.2182 3.151C96.2542 3.043 96.2812 2.935 96.2992 2.827L96.3802 2.692C96.4342 2.638 96.4792 2.557 96.5152 2.449C96.5512 2.341 96.6052 2.287 96.6772 2.287C96.7312 2.251 96.7852 2.224 96.8392 2.206C96.8932 2.17 96.9292 2.116 96.9472 2.044L96.9742 2.017C96.9922 2.017 97.0102 2.017 97.0282 2.017C97.0462 1.999 97.0642 1.99 97.0822 1.99C97.1542 1.99 97.2082 1.972 97.2442 1.936C97.2982 1.9 97.3612 1.891 97.4332 1.909C97.5052 1.927 97.5772 1.936 97.6492 1.936C97.7212 1.936 97.7932 1.945 97.8652 1.963C98.2612 2.035 98.5402 2.269 98.7022 2.665L98.8642 3.205C98.8822 3.385 98.9632 3.556 99.1072 3.718C99.2152 3.844 99.3232 3.979 99.4312 4.123C99.5392 4.267 99.6562 4.411 99.7822 4.555C100.25 5.149 100.682 5.815 101.078 6.553C101.114 6.625 101.15 6.697 101.186 6.769C101.222 6.841 101.258 6.913 101.294 6.985L102.698 9.82C102.806 10.018 102.905 10.225 102.995 10.441C103.103 10.639 103.22 10.837 103.346 11.035C103.382 11.107 103.418 11.179 103.454 11.251C103.49 11.305 103.517 11.368 103.535 11.44C103.625 11.656 103.733 11.872 103.859 12.088C103.859 12.088 103.859 12.097 103.859 12.115C103.877 12.115 103.886 12.106 103.886 12.088C103.904 12.088 103.913 12.088 103.913 12.088C103.931 12.07 103.94 12.061 103.94 12.061L104.021 11.116V10.846C104.039 10.756 104.048 10.666 104.048 10.576C104.066 10.468 104.084 10.369 104.102 10.279C104.12 10.225 104.12 10.162 104.102 10.09C104.102 10.018 104.111 9.946 104.129 9.874C104.129 9.766 104.129 9.658 104.129 9.55C104.147 9.424 104.165 9.307 104.183 9.199C104.201 9.145 104.21 9.091 104.21 9.037C104.21 8.965 104.21 8.902 104.21 8.848V8.119H104.183V7.39C104.183 7.3 104.183 7.21 104.183 7.12C104.183 7.03 104.165 6.94 104.129 6.85C104.111 6.796 104.102 6.715 104.102 6.607L104.129 6.418C104.129 6.364 104.12 6.319 104.102 6.283C104.102 6.229 104.102 6.175 104.102 6.121C104.12 6.049 104.111 5.977 104.075 5.905C104.039 5.833 104.021 5.761 104.021 5.689C104.039 5.617 104.048 5.545 104.048 5.473C104.048 5.401 104.048 5.329 104.048 5.257C104.048 5.185 104.012 5.149 103.94 5.149C103.922 5.149 103.913 5.131 103.913 5.095C103.895 5.041 103.895 4.996 103.913 4.96C103.949 4.87 103.967 4.771 103.967 4.663C103.967 4.555 103.967 4.447 103.967 4.339V3.556C103.949 3.448 103.958 3.34 103.994 3.232C104.03 3.124 104.075 3.025 104.129 2.935L104.237 2.773C104.327 2.683 104.426 2.593 104.534 2.503C104.642 2.413 104.75 2.323 104.858 2.233C104.858 2.233 104.894 2.215 104.966 2.179C105.056 2.161 105.137 2.143 105.209 2.125C105.299 2.107 105.389 2.107 105.479 2.125C105.551 2.125 105.605 2.134 105.641 2.152C105.713 2.188 105.785 2.233 105.857 2.287C105.929 2.323 106.001 2.368 106.073 2.422C106.109 2.44 106.127 2.458 106.127 2.476C106.145 2.494 106.163 2.512 106.181 2.53C106.217 2.566 106.244 2.611 106.262 2.665C106.298 2.701 106.325 2.737 106.343 2.773C106.433 2.845 106.487 2.935 106.505 3.043C106.541 3.133 106.568 3.223 106.586 3.313V4.447C106.586 4.573 106.586 4.699 106.586 4.825C106.604 4.933 106.622 5.05 106.64 5.176C106.658 5.248 106.667 5.32 106.667 5.392C106.667 5.446 106.667 5.509 106.667 5.581C106.667 5.725 106.667 5.878 106.667 6.04C106.685 6.184 106.694 6.328 106.694 6.472V6.661C106.694 6.787 106.685 6.913 106.667 7.039C106.667 7.147 106.667 7.264 106.667 7.39V8.578C106.667 8.758 106.658 8.947 106.64 9.145C106.64 9.325 106.649 9.514 106.667 9.712C106.667 9.784 106.658 9.838 106.64 9.874C106.622 10.054 106.613 10.234 106.613 10.414C106.613 10.576 106.604 10.747 106.586 10.927C106.586 10.999 106.586 11.08 106.586 11.17C106.586 11.26 106.577 11.35 106.559 11.44C106.541 11.512 106.532 11.584 106.532 11.656C106.55 11.728 106.559 11.8 106.559 11.872C106.595 12.034 106.604 12.196 106.586 12.358C106.586 12.52 106.577 12.682 106.559 12.844C106.541 13.132 106.523 13.429 106.505 13.735C106.505 14.023 106.523 14.32 106.559 14.626C106.559 14.698 106.559 14.779 106.559 14.869C106.577 14.959 106.586 15.049 106.586 15.139C106.568 15.409 106.577 15.67 106.613 15.922C106.667 16.174 106.721 16.426 106.775 16.678C106.811 16.858 106.847 17.038 106.883 17.218C106.919 17.38 106.946 17.56 106.964 17.758C106.964 17.83 106.955 17.875 106.937 17.893C106.919 17.929 106.901 17.974 106.883 18.028C106.865 18.064 106.856 18.1 106.856 18.136C106.838 18.28 106.784 18.415 106.694 18.541C106.622 18.667 106.541 18.793 106.451 18.919C106.217 19.225 105.893 19.333 105.479 19.243ZM120.71 19.648C120.548 19.666 120.395 19.666 120.251 19.648C120.107 19.63 119.963 19.558 119.819 19.432C119.783 19.396 119.729 19.36 119.657 19.324C119.567 19.27 119.513 19.207 119.495 19.135C119.477 19.063 119.441 19.009 119.387 18.973C119.333 18.919 119.297 18.856 119.279 18.784C119.261 18.73 119.252 18.676 119.252 18.622C119.27 18.55 119.279 18.487 119.279 18.433C119.279 18.379 119.27 18.325 119.252 18.271C119.252 18.217 119.252 18.163 119.252 18.109C119.198 17.839 119.144 17.569 119.09 17.299C119.036 17.011 118.991 16.732 118.955 16.462C118.937 16.336 118.919 16.21 118.901 16.084C118.883 15.958 118.865 15.832 118.847 15.706C118.829 15.472 118.802 15.238 118.766 15.004C118.748 14.77 118.721 14.536 118.685 14.302C118.649 14.158 118.631 14.032 118.631 13.924C118.631 13.78 118.622 13.645 118.604 13.519C118.586 13.375 118.568 13.24 118.55 13.114C118.532 13.006 118.469 12.952 118.361 12.952L118.172 12.925C118.082 12.907 117.983 12.898 117.875 12.898C117.767 12.898 117.659 12.889 117.551 12.871H117.281C117.245 12.889 117.191 12.898 117.119 12.898C117.047 12.898 116.975 12.898 116.903 12.898C116.849 12.88 116.777 12.88 116.687 12.898C116.615 12.898 116.543 12.907 116.471 12.925C116.417 12.925 116.345 12.916 116.255 12.898C116.237 12.88 116.201 12.88 116.147 12.898C116.111 12.898 116.075 12.898 116.039 12.898C115.949 12.898 115.85 12.907 115.742 12.925C115.652 12.925 115.562 12.925 115.472 12.925C115.418 12.925 115.364 12.925 115.31 12.925C115.256 12.925 115.202 12.934 115.148 12.952C115.022 12.97 114.896 12.988 114.77 13.006C114.644 13.006 114.518 13.006 114.392 13.006C114.212 12.988 114.032 12.988 113.852 13.006C113.672 13.024 113.492 13.042 113.312 13.06H113.231C113.141 13.096 113.096 13.15 113.096 13.222C113.096 13.24 113.087 13.258 113.069 13.276C113.069 13.276 113.069 13.285 113.069 13.303C113.069 13.393 113.078 13.465 113.096 13.519C113.114 13.645 113.132 13.78 113.15 13.924C113.168 14.05 113.186 14.185 113.204 14.329L113.285 14.977C113.303 15.157 113.33 15.337 113.366 15.517C113.402 15.679 113.429 15.841 113.447 16.003C113.465 16.021 113.474 16.048 113.474 16.084C113.474 16.102 113.483 16.129 113.501 16.165C113.537 16.255 113.555 16.354 113.555 16.462C113.555 16.57 113.555 16.678 113.555 16.786C113.591 16.804 113.582 16.84 113.528 16.894C113.51 16.93 113.492 16.966 113.474 17.002C113.456 17.038 113.447 17.074 113.447 17.11C113.393 17.29 113.276 17.461 113.096 17.623C112.916 17.767 112.745 17.848 112.583 17.866C112.565 17.866 112.547 17.875 112.529 17.893C112.511 17.893 112.484 17.893 112.448 17.893C112.214 17.947 111.962 17.929 111.692 17.839L111.611 17.785C111.593 17.713 111.557 17.659 111.503 17.623C111.449 17.587 111.404 17.551 111.368 17.515C111.332 17.461 111.287 17.416 111.233 17.38C111.197 17.326 111.17 17.263 111.152 17.191C111.152 17.173 111.143 17.164 111.125 17.164C111.053 17.074 111.008 16.975 110.99 16.867C110.972 16.759 110.954 16.651 110.936 16.543L110.855 16.111C110.837 15.949 110.81 15.787 110.774 15.625C110.756 15.445 110.738 15.265 110.72 15.085L110.558 14.032C110.54 13.906 110.522 13.78 110.504 13.654C110.486 13.51 110.468 13.375 110.45 13.249L110.369 12.385C110.351 12.205 110.333 12.025 110.315 11.845C110.297 11.665 110.27 11.485 110.234 11.305V11.062C110.234 10.918 110.225 10.774 110.207 10.63C110.207 10.486 110.198 10.351 110.18 10.225C110.162 10.171 110.153 10.117 110.153 10.063C110.153 10.009 110.153 9.955 110.153 9.901C110.153 9.811 110.144 9.73 110.126 9.658C110.126 9.568 110.117 9.478 110.099 9.388L110.018 8.821C110 8.623 109.964 8.416 109.91 8.2C109.874 7.984 109.82 7.777 109.748 7.579C109.712 7.471 109.667 7.363 109.613 7.255C109.559 7.129 109.514 7.003 109.478 6.877C109.442 6.733 109.406 6.634 109.37 6.58C109.316 6.4 109.316 6.229 109.37 6.067L109.532 5.662C109.55 5.59 109.604 5.527 109.694 5.473C109.73 5.419 109.775 5.374 109.829 5.338C109.883 5.284 109.937 5.239 109.991 5.203C110.027 5.185 110.072 5.176 110.126 5.176C110.18 5.194 110.252 5.185 110.342 5.149L110.423 5.095C110.585 5.005 110.747 5.005 110.909 5.095C110.999 5.131 111.089 5.167 111.179 5.203C111.287 5.239 111.377 5.302 111.449 5.392C111.557 5.41 111.629 5.491 111.665 5.635L111.908 6.175C112.052 6.481 112.178 6.796 112.286 7.12C112.394 7.444 112.466 7.786 112.502 8.146C112.52 8.272 112.538 8.407 112.556 8.551C112.592 8.677 112.619 8.812 112.637 8.956V9.172C112.637 9.262 112.646 9.325 112.664 9.361C112.682 9.487 112.691 9.622 112.691 9.766C112.709 9.91 112.718 10.054 112.718 10.198V10.252C112.736 10.342 112.79 10.405 112.88 10.441C112.934 10.459 112.988 10.477 113.042 10.495C113.096 10.495 113.15 10.495 113.204 10.495C113.294 10.477 113.366 10.477 113.42 10.495C113.492 10.495 113.564 10.495 113.636 10.495C113.762 10.495 113.879 10.495 113.987 10.495C114.095 10.477 114.212 10.468 114.338 10.468H114.662C114.716 10.468 114.77 10.477 114.824 10.495C114.896 10.495 114.959 10.486 115.013 10.468C115.049 10.468 115.076 10.468 115.094 10.468C115.13 10.45 115.157 10.441 115.175 10.441C115.355 10.459 115.535 10.468 115.715 10.468C115.895 10.45 116.075 10.441 116.255 10.441C116.435 10.459 116.615 10.468 116.795 10.468C116.975 10.45 117.155 10.441 117.335 10.441C117.479 10.441 117.614 10.45 117.74 10.468C117.884 10.468 118.019 10.468 118.145 10.468C118.271 10.468 118.334 10.414 118.334 10.306C118.334 10.216 118.334 10.117 118.334 10.009C118.334 9.901 118.325 9.802 118.307 9.712C118.289 9.514 118.271 9.334 118.253 9.172C118.253 8.992 118.244 8.812 118.226 8.632C118.208 8.38 118.199 8.137 118.199 7.903C118.217 7.651 118.208 7.408 118.172 7.174C118.154 6.976 118.136 6.778 118.118 6.58C118.118 6.382 118.1 6.193 118.064 6.013V5.635C118.064 5.563 118.073 5.509 118.091 5.473C118.091 5.437 118.091 5.41 118.091 5.392C118.109 5.356 118.118 5.329 118.118 5.311C118.118 5.221 118.1 5.167 118.064 5.149L117.983 5.095C117.875 5.023 117.857 4.942 117.929 4.852C117.983 4.78 117.992 4.699 117.956 4.609C117.956 4.555 117.965 4.519 117.983 4.501C118.019 4.447 118.055 4.393 118.091 4.339C118.127 4.285 118.154 4.222 118.172 4.15C118.226 3.952 118.307 3.862 118.415 3.88C118.541 3.88 118.622 3.898 118.658 3.934C118.676 3.952 118.694 3.961 118.712 3.961C118.73 3.943 118.739 3.925 118.739 3.907C118.739 3.799 118.793 3.736 118.901 3.718C119.009 3.7 119.09 3.682 119.144 3.664L119.306 3.556H119.387C119.477 3.592 119.549 3.637 119.603 3.691C119.675 3.727 119.747 3.763 119.819 3.799C119.855 3.817 119.9 3.853 119.954 3.907C120.08 4.069 120.17 4.276 120.224 4.528C120.26 4.708 120.296 4.879 120.332 5.041C120.368 5.203 120.395 5.374 120.413 5.554C120.413 5.59 120.413 5.626 120.413 5.662C120.431 5.698 120.44 5.734 120.44 5.77L120.467 5.959C120.467 6.175 120.476 6.391 120.494 6.607C120.53 6.805 120.557 7.012 120.575 7.228C120.593 7.246 120.602 7.282 120.602 7.336C120.584 7.462 120.575 7.588 120.575 7.714C120.593 7.822 120.611 7.948 120.629 8.092C120.647 8.218 120.656 8.362 120.656 8.524C120.674 8.668 120.683 8.812 120.683 8.956C120.683 9.046 120.683 9.145 120.683 9.253C120.701 9.361 120.719 9.46 120.737 9.55C120.755 9.64 120.764 9.73 120.764 9.82C120.764 9.91 120.764 10 120.764 10.09C120.764 10.18 120.764 10.27 120.764 10.36C120.782 10.432 120.8 10.513 120.818 10.603V10.711C120.836 10.927 120.854 11.143 120.872 11.359C120.908 11.557 120.935 11.764 120.953 11.98C120.971 11.998 120.98 12.034 120.98 12.088C120.98 12.286 120.998 12.493 121.034 12.709C121.07 12.907 121.097 13.105 121.115 13.303L121.196 14.248C121.196 14.266 121.196 14.302 121.196 14.356C121.214 14.392 121.223 14.428 121.223 14.464C121.241 14.5 121.25 14.572 121.25 14.68C121.25 14.842 121.259 15.004 121.277 15.166C121.313 15.328 121.34 15.49 121.358 15.652C121.394 15.832 121.421 16.012 121.439 16.192C121.457 16.372 121.484 16.561 121.52 16.759C121.556 16.975 121.601 17.191 121.655 17.407C121.709 17.623 121.754 17.839 121.79 18.055C121.808 18.127 121.817 18.208 121.817 18.298C121.835 18.37 121.844 18.451 121.844 18.541C121.844 18.631 121.817 18.721 121.763 18.811C121.745 18.829 121.727 18.865 121.709 18.919C121.709 18.955 121.691 18.991 121.655 19.027C121.637 19.045 121.628 19.063 121.628 19.081C121.628 19.099 121.619 19.108 121.601 19.108C121.529 19.126 121.466 19.171 121.412 19.243C121.358 19.315 121.295 19.369 121.223 19.405C121.151 19.477 121.052 19.531 120.926 19.567L120.71 19.648ZM130.255 19.54C130.075 19.522 129.895 19.495 129.715 19.459C129.553 19.441 129.391 19.396 129.229 19.324L128.554 19.081C128.32 18.991 128.104 18.892 127.906 18.784C127.708 18.658 127.51 18.532 127.312 18.406C127.222 18.316 127.132 18.235 127.042 18.163C126.952 18.073 126.862 17.992 126.772 17.92C126.628 17.776 126.484 17.632 126.34 17.488C126.196 17.326 126.061 17.155 125.935 16.975L125.287 15.976C125.125 15.724 124.981 15.463 124.855 15.193C124.729 14.905 124.621 14.617 124.531 14.329C124.333 13.789 124.234 13.258 124.234 12.736V12.304C124.234 11.854 124.261 11.413 124.315 10.981C124.351 10.621 124.432 10.297 124.558 10.009C124.63 9.829 124.693 9.649 124.747 9.469C124.801 9.289 124.864 9.118 124.936 8.956L125.017 8.767C125.053 8.533 125.134 8.326 125.26 8.146C125.386 7.948 125.494 7.759 125.584 7.579C125.656 7.435 125.737 7.309 125.827 7.201C125.917 7.075 125.998 6.949 126.07 6.823C126.106 6.769 126.151 6.724 126.205 6.688C126.259 6.634 126.304 6.58 126.34 6.526C126.376 6.49 126.403 6.445 126.421 6.391C126.457 6.319 126.484 6.256 126.502 6.202C126.538 6.148 126.601 6.076 126.691 5.986C126.799 5.932 126.898 5.806 126.988 5.608C127.024 5.536 127.06 5.482 127.096 5.446C127.204 5.356 127.294 5.248 127.366 5.122C127.456 4.996 127.555 4.879 127.663 4.771C127.735 4.699 127.771 4.6 127.771 4.474C127.771 4.384 127.771 4.303 127.771 4.231C127.789 4.141 127.789 4.06 127.771 3.988C127.753 3.898 127.78 3.817 127.852 3.745C127.888 3.709 127.915 3.664 127.933 3.61C127.951 3.556 127.969 3.502 127.987 3.448C128.041 3.268 128.185 3.115 128.419 2.989C128.455 2.953 128.5 2.935 128.554 2.935C128.626 2.917 128.689 2.899 128.743 2.881C128.869 2.827 129.013 2.818 129.175 2.854C129.247 2.872 129.31 2.881 129.364 2.881C129.418 2.863 129.472 2.845 129.526 2.827C129.598 2.791 129.661 2.764 129.715 2.746C129.787 2.728 129.85 2.71 129.904 2.692C130.156 2.602 130.417 2.611 130.687 2.719C130.975 2.827 131.182 3.016 131.308 3.286C131.344 3.376 131.38 3.466 131.416 3.556C131.452 3.646 131.479 3.736 131.497 3.826C131.533 4.024 131.524 4.195 131.47 4.339C131.434 4.411 131.416 4.456 131.416 4.474C131.398 4.546 131.416 4.609 131.47 4.663C131.506 4.717 131.551 4.762 131.605 4.798C131.803 4.978 131.992 5.158 132.172 5.338C132.352 5.5 132.523 5.68 132.685 5.878C132.829 6.022 132.946 6.175 133.036 6.337C133.144 6.481 133.243 6.643 133.333 6.823C133.369 6.913 133.414 7.012 133.468 7.12C133.522 7.21 133.576 7.3 133.63 7.39C133.72 7.552 133.792 7.723 133.846 7.903C133.918 8.083 133.99 8.263 134.062 8.443V8.47C134.098 8.596 134.125 8.731 134.143 8.875C134.179 9.001 134.233 9.136 134.305 9.28C134.359 9.406 134.404 9.541 134.44 9.685C134.476 9.811 134.512 9.946 134.548 10.09C134.584 10.252 134.62 10.414 134.656 10.576C134.71 10.738 134.746 10.9 134.764 11.062C134.782 11.134 134.8 11.206 134.818 11.278C134.836 11.332 134.854 11.395 134.872 11.467C134.908 11.629 134.944 11.791 134.98 11.953C135.016 12.115 135.043 12.277 135.061 12.439L135.142 12.628C135.178 12.736 135.214 12.88 135.25 13.06C135.304 13.294 135.331 13.528 135.331 13.762C135.349 13.996 135.349 14.239 135.331 14.491C135.331 14.617 135.322 14.716 135.304 14.788C135.196 15.166 135.061 15.553 134.899 15.949C134.827 16.075 134.755 16.201 134.683 16.327C134.611 16.435 134.539 16.552 134.467 16.678L134.224 17.056C134.134 17.218 134.035 17.362 133.927 17.488C133.747 17.776 133.531 18.028 133.279 18.244C133.027 18.46 132.757 18.667 132.469 18.865C131.839 19.351 131.101 19.576 130.255 19.54ZM130.147 16.867C130.525 16.867 130.849 16.759 131.119 16.543C131.209 16.453 131.299 16.372 131.389 16.3C131.497 16.21 131.587 16.12 131.659 16.03C132.001 15.652 132.271 15.256 132.469 14.842L132.55 14.572C132.586 14.248 132.586 13.924 132.55 13.6L132.388 12.709C132.334 12.475 132.289 12.25 132.253 12.034C132.217 11.8 132.163 11.575 132.091 11.359C132.037 11.233 132.019 11.134 132.037 11.062C132.055 10.972 132.055 10.882 132.037 10.792C132.019 10.702 131.992 10.612 131.956 10.522C131.902 10.288 131.839 10.054 131.767 9.82C131.695 9.586 131.623 9.352 131.551 9.118C131.533 9.064 131.515 9.01 131.497 8.956C131.479 8.902 131.461 8.848 131.443 8.794C131.317 8.542 131.182 8.299 131.038 8.065C130.894 7.831 130.732 7.615 130.552 7.417C130.462 7.309 130.363 7.21 130.255 7.12C130.147 7.012 130.039 6.913 129.931 6.823C129.913 6.787 129.886 6.769 129.85 6.769C129.832 6.751 129.805 6.733 129.769 6.715C129.715 6.643 129.643 6.652 129.553 6.742C129.463 6.832 129.364 6.931 129.256 7.039C129.166 7.147 129.076 7.255 128.986 7.363C128.896 7.489 128.797 7.615 128.689 7.741C128.599 7.867 128.509 7.993 128.419 8.119C128.293 8.281 128.176 8.443 128.068 8.605C127.96 8.767 127.852 8.929 127.744 9.091C127.366 9.703 127.069 10.378 126.853 11.116C126.817 11.224 126.799 11.305 126.799 11.359C126.781 11.485 126.763 11.611 126.745 11.737C126.745 11.863 126.745 11.998 126.745 12.142V12.358C126.763 12.412 126.772 12.466 126.772 12.52C126.772 12.574 126.781 12.628 126.799 12.682C126.799 12.898 126.853 13.132 126.961 13.384C127.105 13.744 127.267 14.095 127.447 14.437C127.627 14.779 127.834 15.103 128.068 15.409C128.122 15.481 128.176 15.553 128.23 15.625C128.302 15.697 128.365 15.769 128.419 15.841C128.581 16.021 128.752 16.183 128.932 16.327C129.13 16.471 129.328 16.597 129.526 16.705C129.742 16.813 129.949 16.867 130.147 16.867Z" fill="#353535"/>
</svg>
