<svg width="182" height="22" viewBox="0 0 182 22" fill="none" xmlns="http://www.w3.org/2000/svg">
<path d="M1.24902 20.25C1.23236 20.25 1.17402 20.2333 1.07402 20.2C1.02402 20.1833 0.96569 20.125 0.899024 20.025C0.882357 19.975 0.86569 19.925 0.849024 19.875C0.832357 19.825 0.824023 19.775 0.824023 19.725C0.774024 19.475 0.749024 19.225 0.749024 18.975V17.25C0.749024 17.1 0.732357 16.95 0.699024 16.8C0.66569 16.65 0.632357 16.5 0.599023 16.35C0.599023 16.3167 0.582357 16.2667 0.549023 16.2C0.532357 16.15 0.507357 16.1 0.474024 16.05C0.44069 15.9833 0.407357 15.925 0.374024 15.875C0.307357 15.7583 0.257357 15.6333 0.224023 15.5C0.19069 15.3667 0.16569 15.2417 0.149023 15.125C0.132357 14.9417 0.132357 14.7667 0.149023 14.6C0.182357 14.5 0.207357 14.4083 0.224023 14.325C0.24069 14.225 0.26569 14.1333 0.299023 14.05C0.349023 13.9167 0.39069 13.7833 0.424024 13.65C0.457357 13.5 0.499024 13.35 0.549023 13.2L0.924024 11.975C1.04069 11.625 1.19069 11.2667 1.37402 10.9C1.55736 10.55 1.73236 10.1583 1.89902 9.725C1.93236 9.625 1.97402 9.51667 2.02402 9.4C2.09069 9.21667 2.15736 9.04167 2.22402 8.875C2.30736 8.69167 2.38236 8.51667 2.44902 8.35L2.82402 7.3C2.85736 7.23333 2.88236 7.16667 2.89902 7.1C2.91569 7.03333 2.93236 6.96667 2.94902 6.9C3.08236 6.56667 3.21569 6.25 3.34902 5.95C3.44902 5.75 3.51569 5.53333 3.54902 5.3C3.58236 5.06667 3.58236 4.83333 3.54902 4.6C3.53236 4.5 3.51569 4.4 3.49902 4.3C3.49902 4.18333 3.49902 4.075 3.49902 3.975C3.49902 3.925 3.48236 3.88333 3.44902 3.85C3.43236 3.8 3.43236 3.75 3.44902 3.7C3.46569 3.66667 3.48236 3.63333 3.49902 3.6C3.53236 3.56667 3.55736 3.53333 3.57402 3.5C3.62402 3.31667 3.69902 3.15833 3.79902 3.025C3.91569 2.875 4.04069 2.74167 4.17402 2.625C4.24069 2.55833 4.33236 2.50833 4.44902 2.475C4.51569 2.44167 4.57402 2.40833 4.62402 2.375C4.69069 2.34167 4.74902 2.3 4.79902 2.25C4.88236 2.18333 4.97402 2.14167 5.07402 2.125C5.20736 2.10833 5.34902 2.05833 5.49902 1.975C5.63236 1.89167 5.78236 1.86667 5.94902 1.9H6.17402C6.29069 1.9 6.41569 1.94167 6.54902 2.025C6.58236 2.04167 6.61569 2.06667 6.64902 2.1C6.69902 2.11667 6.74902 2.14167 6.79902 2.175C6.93236 2.275 6.99902 2.4 6.99902 2.55C6.99902 2.66667 7.00736 2.775 7.02402 2.875C7.05736 2.975 7.08236 3.08333 7.09902 3.2C7.13236 3.3 7.13236 3.40833 7.09902 3.525C7.08236 3.55833 7.07402 3.6 7.07402 3.65C7.07402 3.68333 7.06569 3.71667 7.04902 3.75C7.04902 3.81667 7.04069 3.88333 7.02402 3.95C7.02402 4.01667 7.01569 4.08333 6.99902 4.15C6.94902 4.26667 6.96569 4.38333 7.04902 4.5C7.18236 4.71667 7.29902 4.94167 7.39902 5.175C7.51569 5.40833 7.63236 5.64167 7.74902 5.875L8.19902 6.675C8.33236 6.89167 8.46569 7.15 8.59902 7.45C8.63236 7.5 8.65736 7.55 8.67402 7.6C8.70736 7.65 8.74069 7.7 8.77402 7.75C8.82402 7.83333 8.86569 7.925 8.89902 8.025C8.94902 8.125 8.99902 8.225 9.04902 8.325C9.18236 8.575 9.29069 8.83333 9.37402 9.1C9.47402 9.35 9.57402 9.61667 9.67402 9.9C9.67402 9.91667 9.67402 9.93333 9.67402 9.95C9.69069 9.95 9.69902 9.95833 9.69902 9.975C9.71569 10.0917 9.79902 10.15 9.94902 10.15C9.99902 10.1333 10.049 10.125 10.099 10.125C10.1657 10.125 10.224 10.125 10.274 10.125C10.4574 10.125 10.6157 10.1583 10.749 10.225C10.8324 10.2417 10.9157 10.2917 10.999 10.375C11.1324 10.5083 11.224 10.6167 11.274 10.7C11.324 10.7833 11.3574 10.9083 11.374 11.075C11.4407 11.3917 11.374 11.6667 11.174 11.9L11.024 12.025C10.9907 12.0583 10.949 12.0917 10.899 12.125C10.849 12.1417 10.8074 12.1667 10.774 12.2C10.6907 12.2667 10.6407 12.3167 10.624 12.35C10.624 12.3833 10.649 12.4583 10.699 12.575L11.074 13.475C11.224 13.8083 11.374 14.1417 11.524 14.475C11.6907 14.8083 11.8574 15.1417 12.024 15.475C12.0907 15.5917 12.1407 15.7083 12.174 15.825C12.224 15.9417 12.2574 16.0667 12.274 16.2C12.2907 16.3 12.2907 16.4 12.274 16.5C12.274 16.6 12.2657 16.7 12.249 16.8C12.249 16.8167 12.2324 16.875 12.199 16.975C12.149 17.0417 12.099 17.1083 12.049 17.175C12.0157 17.2417 11.974 17.3083 11.924 17.375C11.7907 17.5583 11.6824 17.7667 11.599 18C11.5657 18.15 11.4574 18.2667 11.274 18.35C11.174 18.4 11.0657 18.4 10.949 18.35C10.799 18.3 10.699 18.2 10.649 18.05L10.599 17.925C10.549 17.7583 10.474 17.6 10.374 17.45C10.3074 17.3333 10.2407 17.2167 10.174 17.1C10.124 16.9667 10.0657 16.8417 9.99902 16.725C9.98236 16.6917 9.97402 16.6667 9.97402 16.65C9.97402 16.6167 9.96569 16.5917 9.94902 16.575C9.93236 16.475 9.89902 16.3833 9.84902 16.3C9.81569 16.2 9.77402 16.1083 9.72402 16.025C9.62402 15.775 9.51569 15.5333 9.39902 15.3C9.29902 15.05 9.19069 14.8 9.07402 14.55L8.69902 13.75C8.68236 13.7 8.66569 13.65 8.64902 13.6C8.63236 13.5333 8.60736 13.4667 8.57402 13.4L8.27402 12.725C8.27402 12.6917 8.25736 12.6417 8.22402 12.575C8.14069 12.4417 8.03236 12.3667 7.89902 12.35C7.78236 12.35 7.67402 12.3417 7.57402 12.325C7.47402 12.3083 7.37402 12.3 7.27402 12.3C7.00736 12.3 6.74069 12.325 6.47402 12.375C6.20736 12.425 5.95736 12.5167 5.72402 12.65C5.40736 12.8333 5.08236 12.95 4.74902 13C4.68236 13 4.61569 13.0083 4.54902 13.025C4.48236 13.0417 4.41569 13.0667 4.34902 13.1C4.24902 13.1667 4.19069 13.2417 4.17402 13.325C4.14069 13.425 4.12402 13.5 4.12402 13.55L4.04902 13.9C4.03236 14.0167 3.96569 14.1333 3.84902 14.25C3.76569 14.3333 3.64902 14.375 3.49902 14.375C3.28236 14.3417 3.14069 14.2333 3.07402 14.05C3.05736 14 3.04069 13.95 3.02402 13.9C3.00736 13.85 2.99069 13.7917 2.97402 13.725C2.90736 13.825 2.89902 13.9083 2.94902 13.975C2.98236 14.0417 2.96569 14.1 2.89902 14.15C2.86569 14.1833 2.85736 14.2083 2.87402 14.225C2.90736 14.2917 2.89902 14.35 2.84902 14.4C2.79902 14.45 2.78236 14.5083 2.79902 14.575C2.81569 14.6083 2.81569 14.65 2.79902 14.7C2.71569 14.8167 2.65736 14.9583 2.62402 15.125C2.64069 15.1917 2.59902 15.2417 2.49902 15.275C2.46569 15.275 2.44902 15.2917 2.44902 15.325C2.41569 15.375 2.38236 15.45 2.34902 15.55C2.33236 15.6333 2.30736 15.725 2.27402 15.825C2.25736 15.9083 2.23236 15.9917 2.19902 16.075L2.04902 16.7V16.8C2.04902 16.95 2.03236 17.1 1.99902 17.25C1.98236 17.3833 1.97402 17.525 1.97402 17.675L1.89902 18.5C1.88236 18.6167 1.86569 18.7333 1.84902 18.85C1.84902 18.9833 1.84902 19.1167 1.84902 19.25C1.83236 19.35 1.81569 19.4417 1.79902 19.525C1.79902 19.625 1.78236 19.725 1.74902 19.825C1.71569 19.975 1.65736 20.0833 1.57402 20.15C1.50736 20.25 1.39902 20.2833 1.24902 20.25ZM4.49902 10.125H4.52402C4.69069 10.0917 4.84902 10.0667 4.99902 10.05C5.14902 10.0333 5.29902 10.0167 5.44902 10C5.54902 9.98333 5.64902 9.975 5.74902 9.975C5.84902 9.95833 5.94902 9.95 6.04902 9.95H6.57402C6.60736 9.95 6.64069 9.95 6.67402 9.95C6.70736 9.93333 6.73236 9.925 6.74902 9.925C6.78236 9.925 6.79902 9.89167 6.79902 9.825C6.74902 9.75833 6.70736 9.69167 6.67402 9.625C6.64069 9.55833 6.60736 9.49167 6.57402 9.425C6.47402 9.19167 6.34069 8.99167 6.17402 8.825C6.15736 8.79167 6.14069 8.76667 6.12402 8.75C6.10736 8.71667 6.09069 8.68333 6.07402 8.65C6.05736 8.61667 6.03236 8.58333 5.99902 8.55C5.98236 8.5 5.95736 8.45833 5.92402 8.425C5.84069 8.35833 5.75736 8.375 5.67402 8.475L5.59902 8.675C5.58236 8.80833 5.55736 8.95 5.52402 9.1C5.49069 9.23333 5.45736 9.36667 5.42402 9.5C5.42402 9.53333 5.40736 9.58333 5.37402 9.65C5.34069 9.75 5.25736 9.825 5.12402 9.875C5.00736 9.925 4.88236 9.90833 4.74902 9.825L4.59902 9.725C4.59902 9.725 4.58236 9.725 4.54902 9.725C4.51569 9.79167 4.49902 9.84167 4.49902 9.875C4.49902 9.90833 4.49902 9.94167 4.49902 9.975C4.51569 10.0083 4.50736 10.0417 4.47402 10.075C4.44069 10.1083 4.44902 10.125 4.49902 10.125ZM18.3023 19.225L17.8773 19.15C17.6607 19.1167 17.4357 19.0833 17.2023 19.05C16.9857 19.0167 16.7607 18.9917 16.5273 18.975C16.294 18.975 16.0607 18.9083 15.8273 18.775C15.6107 18.6583 15.4607 18.475 15.3773 18.225C15.3607 18.1417 15.3357 18.0583 15.3023 17.975C15.2857 17.8917 15.269 17.8083 15.2523 17.725C15.2523 17.525 15.294 17.375 15.3773 17.275C15.4607 17.1917 15.5273 17.1083 15.5773 17.025C15.644 16.9417 15.7107 16.8667 15.7773 16.8C15.8107 16.7667 15.844 16.7417 15.8773 16.725C15.9107 16.7083 15.944 16.6917 15.9773 16.675C16.0607 16.625 16.144 16.5917 16.2273 16.575C16.3107 16.5417 16.394 16.5167 16.4773 16.5C16.5107 16.4833 16.5357 16.4833 16.5523 16.5C16.5857 16.5 16.6107 16.5 16.6273 16.5C16.7107 16.5167 16.8023 16.5333 16.9023 16.55C17.0023 16.55 17.094 16.5667 17.1773 16.6L18.2273 16.75C18.4607 16.7833 18.669 16.75 18.8523 16.65C18.919 16.6167 18.9773 16.5833 19.0273 16.55C19.094 16.5167 19.1523 16.4833 19.2023 16.45C19.569 16.2333 19.8857 16.0083 20.1523 15.775C20.3523 15.5917 20.544 15.4083 20.7273 15.225C20.9107 15.0417 21.0773 14.8417 21.2273 14.625C21.344 14.475 21.419 14.325 21.4523 14.175C21.4857 14.0083 21.494 13.8417 21.4773 13.675L21.4023 13.475C21.3857 13.3917 21.3523 13.325 21.3023 13.275C21.2523 13.225 21.2023 13.1667 21.1523 13.1C21.0523 13.0167 20.9523 12.925 20.8523 12.825C20.769 12.725 20.6773 12.6417 20.5773 12.575C20.3273 12.375 20.0773 12.1833 19.8273 12C19.594 11.8167 19.3523 11.6333 19.1023 11.45C19.0857 11.4167 19.0357 11.3833 18.9523 11.35C18.8023 11.25 18.6523 11.1417 18.5023 11.025C18.369 10.8917 18.2357 10.7667 18.1023 10.65C17.9357 10.4833 17.7523 10.325 17.5523 10.175C17.4523 10.125 17.3607 10.0417 17.2773 9.925C17.2107 9.84167 17.1107 9.75833 16.9773 9.675C16.8607 9.60833 16.7523 9.53333 16.6523 9.45C16.5523 9.35 16.4523 9.25833 16.3523 9.175L16.0273 8.875C15.9607 8.79167 15.8857 8.71667 15.8023 8.65C15.7357 8.56667 15.6607 8.48333 15.5773 8.4C15.544 8.31667 15.494 8.25 15.4273 8.2C15.3773 8.15 15.3273 8.09167 15.2773 8.025C15.2607 7.99167 15.2357 7.95833 15.2023 7.925C15.169 7.875 15.144 7.825 15.1273 7.775C15.0273 7.575 14.919 7.375 14.8023 7.175C14.7023 6.975 14.6107 6.76667 14.5273 6.55C14.4773 6.41667 14.4273 6.29167 14.3773 6.175C14.344 6.04167 14.3107 5.91667 14.2773 5.8C14.2607 5.66667 14.2273 5.55 14.1773 5.45C14.144 5.33333 14.1107 5.21667 14.0773 5.1C14.044 4.91667 14.0023 4.74167 13.9523 4.575C13.919 4.39167 13.8857 4.21667 13.8523 4.05L13.8023 3.85C13.7857 3.66667 13.7857 3.49167 13.8023 3.325C13.8357 3.09167 13.8857 2.88333 13.9523 2.7C14.019 2.5 14.1273 2.34167 14.2773 2.225C14.444 2.09167 14.6107 1.95833 14.7773 1.825C14.944 1.69167 15.119 1.58333 15.3023 1.5C15.3357 1.5 15.3607 1.49167 15.3773 1.475C15.544 1.34167 15.7273 1.25 15.9273 1.2C16.1273 1.13333 16.3273 1.075 16.5273 1.025C17.3273 0.791666 18.1523 0.616666 19.0023 0.499999H19.2523C19.419 0.499999 19.5773 0.499999 19.7273 0.499999C19.8773 0.499999 20.0357 0.491666 20.2023 0.474999C20.4023 0.474999 20.6023 0.499999 20.8023 0.55C21.0023 0.583333 21.194 0.641666 21.3773 0.724999C21.5107 0.791666 21.644 0.866666 21.7773 0.949999C21.9107 1.01667 22.0357 1.09167 22.1523 1.175C22.2857 1.275 22.369 1.38333 22.4023 1.5L22.4773 1.675C22.5607 1.825 22.6023 1.98333 22.6023 2.15C22.619 2.3 22.6107 2.45833 22.5773 2.625C22.5773 2.675 22.569 2.73333 22.5523 2.8C22.5523 2.85 22.5523 2.9 22.5523 2.95C22.5023 3.31667 22.3273 3.6 22.0273 3.8C21.844 3.96667 21.6023 4.03333 21.3023 4C21.2357 3.96667 21.2023 3.98333 21.2023 4.05C21.2023 4.11667 21.1607 4.15 21.0773 4.15H20.9273C20.8273 4.15 20.7273 4.1 20.6273 4C20.544 3.91667 20.5023 3.85 20.5023 3.8C20.5023 3.73333 20.5357 3.68333 20.6023 3.65C20.569 3.56667 20.5357 3.49167 20.5023 3.425C20.469 3.35833 20.4357 3.30833 20.4023 3.275C20.3523 3.19167 20.2773 3.13333 20.1773 3.1C20.094 3.08333 20.0107 3.06667 19.9273 3.05C19.844 3.03333 19.7607 3.01667 19.6773 3C19.6107 3 19.5357 3 19.4523 3C19.369 2.98333 19.2857 2.96667 19.2023 2.95C19.1523 2.93333 19.0773 2.94167 18.9773 2.975C18.9273 2.99167 18.8773 3.00833 18.8273 3.025C18.7773 3.025 18.719 3.01667 18.6523 3C18.6023 3 18.544 3 18.4773 3C18.4273 3 18.369 3.01667 18.3023 3.05L17.8273 3.125C17.5607 3.175 17.3023 3.275 17.0523 3.425C17.0023 3.44167 16.9523 3.45833 16.9023 3.475C16.8523 3.49167 16.8023 3.49167 16.7523 3.475C16.6523 3.45833 16.569 3.48333 16.5023 3.55C16.4857 3.58333 16.444 3.60833 16.3773 3.625C16.3273 3.625 16.2857 3.64167 16.2523 3.675C16.1857 3.74167 16.1523 3.80833 16.1523 3.875C16.169 3.90833 16.1773 3.95833 16.1773 4.025L16.7023 5.55C16.8023 5.81667 16.9273 6.06667 17.0773 6.3C17.244 6.51667 17.419 6.73333 17.6023 6.95C17.8857 7.28333 18.1773 7.56667 18.4773 7.8L19.2773 8.475C19.444 8.625 19.619 8.76667 19.8023 8.9C19.9857 9.03333 20.1607 9.16667 20.3273 9.3C20.5773 9.48333 20.8273 9.675 21.0773 9.875C21.3273 10.0583 21.5773 10.25 21.8273 10.45C22.0273 10.6167 22.219 10.7833 22.4023 10.95C22.6023 11.1 22.7857 11.2667 22.9523 11.45C23.069 11.5833 23.1857 11.7167 23.3023 11.85C23.419 11.9833 23.519 12.1333 23.6023 12.3C23.719 12.4833 23.819 12.7 23.9023 12.95C24.0023 13.2667 24.044 13.5667 24.0273 13.85C24.0107 13.8833 24.0023 13.9333 24.0023 14C24.0023 14.2 23.9773 14.3917 23.9273 14.575C23.894 14.7417 23.8357 14.9167 23.7523 15.1C23.669 15.2667 23.5773 15.4417 23.4773 15.625C23.394 15.7917 23.294 15.9583 23.1773 16.125C23.0107 16.3417 22.8357 16.55 22.6523 16.75C22.4857 16.9333 22.294 17.1167 22.0773 17.3C21.9607 17.4 21.844 17.5083 21.7273 17.625C21.6107 17.725 21.4857 17.8167 21.3523 17.9C21.269 17.9667 21.1857 18.025 21.1023 18.075C21.019 18.1417 20.9357 18.2083 20.8523 18.275C20.7857 18.3083 20.719 18.35 20.6523 18.4C20.5857 18.45 20.519 18.5 20.4523 18.55C20.3857 18.6167 20.3023 18.6667 20.2023 18.7C20.119 18.75 20.0357 18.7917 19.9523 18.825L19.2273 19.125C19.0773 19.175 18.9273 19.2083 18.7773 19.225C18.6273 19.2417 18.469 19.2417 18.3023 19.225ZM30.4043 17.975C30.371 17.9583 30.321 17.95 30.2543 17.95C30.221 17.95 30.1876 17.925 30.1543 17.875C30.121 17.825 30.0876 17.7833 30.0543 17.75C30.021 17.7 29.9876 17.6417 29.9543 17.575C29.9043 17.5083 29.8626 17.5083 29.8293 17.575H29.7793C29.7793 17.5583 29.771 17.55 29.7543 17.55C29.7543 17.5333 29.7543 17.525 29.7543 17.525C29.7043 17.2917 29.6293 17.075 29.5293 16.875C29.4793 16.7417 29.4293 16.6083 29.3793 16.475C29.346 16.325 29.321 16.175 29.3043 16.025L29.1543 14.925L29.0793 14.025V13.975C29.046 13.775 29.0293 13.575 29.0293 13.375C29.0293 13.1583 29.0293 12.9417 29.0293 12.725C29.0126 12.6083 29.0043 12.5 29.0043 12.4C29.0043 12.2833 28.996 12.1667 28.9793 12.05C28.9626 11.9167 28.946 11.7833 28.9293 11.65C28.9293 11.5167 28.9293 11.3917 28.9293 11.275L28.9543 9.3V6.625C28.921 6.525 28.871 6.475 28.8043 6.475C28.771 6.475 28.7293 6.48333 28.6793 6.5C28.646 6.5 28.6126 6.5 28.5793 6.5L27.4543 6.8C27.3043 6.85 27.1543 6.9 27.0043 6.95C26.8543 6.98333 26.7043 7.025 26.5543 7.075C26.4376 7.09167 26.321 7.10833 26.2043 7.125C26.1043 7.125 25.996 7.125 25.8793 7.125C25.796 7.125 25.7043 7.09167 25.6043 7.025C25.4876 6.975 25.3876 6.90833 25.3043 6.825C25.221 6.74167 25.1376 6.65 25.0543 6.55L25.0043 6.475C24.971 6.35833 24.9376 6.25 24.9043 6.15C24.8876 6.03333 24.8876 5.91667 24.9043 5.8C24.921 5.65 24.9543 5.50833 25.0043 5.375C25.071 5.24167 25.1626 5.125 25.2793 5.025C25.3293 4.99167 25.371 4.95 25.4043 4.9C25.4543 4.85 25.5043 4.8 25.5543 4.75C25.621 4.71667 25.6626 4.7 25.6793 4.7C25.7793 4.7 25.871 4.68333 25.9543 4.65C26.0376 4.6 26.121 4.56667 26.2043 4.55C26.2876 4.53333 26.371 4.51667 26.4543 4.5C26.5376 4.48333 26.621 4.46667 26.7043 4.45C26.9376 4.38333 27.171 4.325 27.4043 4.275C27.6376 4.20833 27.871 4.15833 28.1043 4.125L29.4543 3.9C29.4876 3.88333 29.5126 3.875 29.5293 3.875C29.5626 3.875 29.5876 3.86667 29.6043 3.85C29.7043 3.81667 29.8043 3.79167 29.9043 3.775C30.0043 3.75833 30.1043 3.76667 30.2043 3.8C30.2376 3.81667 30.2626 3.825 30.2793 3.825C30.3126 3.80833 30.3376 3.8 30.3543 3.8C30.6376 3.76667 30.921 3.73333 31.2043 3.7C31.4876 3.66667 31.7626 3.625 32.0293 3.575C32.246 3.54167 32.4626 3.50833 32.6793 3.475C32.896 3.44167 33.1126 3.41667 33.3293 3.4C33.496 3.36667 33.6626 3.34167 33.8293 3.325C33.996 3.30833 34.1626 3.29167 34.3293 3.275C34.4626 3.25833 34.596 3.24167 34.7293 3.225C34.8793 3.20833 35.021 3.19167 35.1543 3.175C35.2876 3.15833 35.4126 3.15833 35.5293 3.175C35.6626 3.175 35.796 3.175 35.9293 3.175C36.0126 3.175 36.0876 3.2 36.1543 3.25C36.2376 3.3 36.3126 3.34167 36.3793 3.375C36.446 3.425 36.5376 3.50833 36.6543 3.625C36.6876 3.65833 36.721 3.73333 36.7543 3.85C36.771 3.9 36.7876 3.95833 36.8043 4.025C36.821 4.075 36.8376 4.13333 36.8543 4.2C36.8876 4.35 36.871 4.49167 36.8043 4.625L36.6543 4.975C36.6376 5.025 36.6126 5.075 36.5793 5.125C36.5626 5.15833 36.5376 5.19167 36.5043 5.225C36.471 5.25833 36.4543 5.275 36.4543 5.275C36.3876 5.325 36.3126 5.375 36.2293 5.425C36.1626 5.475 36.0793 5.50833 35.9793 5.525L34.9043 5.6C34.8043 5.6 34.7043 5.60833 34.6043 5.625C34.5043 5.625 34.396 5.63333 34.2793 5.65H34.1543C33.8876 5.66667 33.6293 5.69167 33.3793 5.725C33.1293 5.75833 32.8793 5.79167 32.6293 5.825L31.6293 5.975C31.5793 5.975 31.546 5.98333 31.5293 6C31.4626 6 31.4126 6.05 31.3793 6.15V6.225C31.3793 6.39167 31.3793 6.55833 31.3793 6.725C31.3793 6.875 31.3876 7.03333 31.4043 7.2C31.4543 7.43333 31.4543 7.66667 31.4043 7.9C31.3876 7.95 31.371 8 31.3543 8.05C31.3543 8.08333 31.3543 8.11667 31.3543 8.15C31.371 8.35 31.3543 8.56667 31.3043 8.8C31.3043 8.85 31.3043 8.9 31.3043 8.95C31.3043 9 31.3126 9.05 31.3293 9.1C31.346 9.16667 31.3543 9.24167 31.3543 9.325C31.3543 9.40833 31.3543 9.49167 31.3543 9.575V10.875C31.3543 10.9417 31.346 11.025 31.3293 11.125C31.3293 11.2083 31.3293 11.2917 31.3293 11.375C31.3293 11.4417 31.3293 11.5167 31.3293 11.6C31.346 11.6833 31.3543 11.7667 31.3543 11.85C31.3543 11.9667 31.3543 12.0833 31.3543 12.2C31.371 12.3167 31.371 12.4417 31.3543 12.575V13.35C31.3543 13.3667 31.346 13.3833 31.3293 13.4C31.3293 13.4167 31.3376 13.4417 31.3543 13.475C31.371 13.625 31.3793 13.7833 31.3793 13.95C31.3793 14.1 31.396 14.25 31.4293 14.4C31.4293 14.45 31.4293 14.5 31.4293 14.55C31.446 14.6 31.446 14.65 31.4293 14.7C31.4293 14.85 31.446 15.0083 31.4793 15.175C31.5126 15.325 31.5376 15.475 31.5543 15.625C31.5876 15.8083 31.621 15.9917 31.6543 16.175C31.7043 16.3583 31.746 16.5417 31.7793 16.725L31.8543 17.075C31.8543 17.125 31.8293 17.1667 31.7793 17.2C31.7793 17.2 31.771 17.2 31.7543 17.2C31.7543 17.2 31.746 17.2083 31.7293 17.225C31.646 17.2583 31.6126 17.3083 31.6293 17.375V17.5C31.6293 17.5 31.621 17.5083 31.6043 17.525C31.6043 17.5417 31.596 17.55 31.5793 17.55C31.496 17.55 31.4293 17.5833 31.3793 17.65C31.3293 17.7167 31.271 17.775 31.2043 17.825C31.1543 17.8583 31.0876 17.8917 31.0043 17.925C30.7876 18.0083 30.5876 18.025 30.4043 17.975ZM40.95 18.5C40.6333 18.5333 40.375 18.4333 40.175 18.2C40.075 18.1 39.9833 17.9917 39.9 17.875C39.8167 17.7583 39.75 17.6333 39.7 17.5C39.6167 17.2667 39.5417 17.0333 39.475 16.8C39.4083 16.55 39.35 16.3083 39.3 16.075C39.25 15.8917 39.225 15.7167 39.225 15.55C39.2083 15.3667 39.1833 15.1917 39.15 15.025C39.1333 14.8417 39.125 14.6583 39.125 14.475C39.125 14.375 39.125 14.275 39.125 14.175C39.125 14.0583 39.1167 13.95 39.1 13.85C39.0833 13.7833 39.075 13.725 39.075 13.675C39.075 13.625 39.075 13.5667 39.075 13.5C39.075 13.2667 39.075 13.0333 39.075 12.8C39.075 12.55 39.0667 12.3083 39.05 12.075C39.05 11.9417 39.0417 11.825 39.025 11.725C39.0083 11.6083 38.975 11.4917 38.925 11.375C38.8583 11.1917 38.85 10.9917 38.9 10.775C38.9 10.725 38.9083 10.6917 38.925 10.675C38.9583 10.5583 38.975 10.4417 38.975 10.325C38.9917 10.2083 38.9917 10.0917 38.975 9.975C38.9583 9.89167 38.95 9.80833 38.95 9.725C38.95 9.64167 38.95 9.56667 38.95 9.5C38.9333 9.31667 38.925 9.13333 38.925 8.95C38.9417 8.75 38.9583 8.55833 38.975 8.375C38.9917 8.325 39 8.275 39 8.225C39 8.175 39 8.125 39 8.075C38.9833 7.89167 38.9833 7.71667 39 7.55C39.0333 7.38333 39.0583 7.21667 39.075 7.05C39.1083 6.85 39.1417 6.65833 39.175 6.475C39.2083 6.275 39.25 6.075 39.3 5.875C39.3333 5.79167 39.35 5.7 39.35 5.6C39.35 5.5 39.35 5.4 39.35 5.3C39.35 5.21667 39.3417 5.13333 39.325 5.05C39.325 4.96667 39.325 4.89167 39.325 4.825C39.325 4.775 39.325 4.725 39.325 4.675C39.325 4.625 39.3333 4.575 39.35 4.525C39.3667 4.475 39.375 4.425 39.375 4.375C39.375 4.325 39.3833 4.29167 39.4 4.275C39.45 4.20833 39.4917 4.15 39.525 4.1C39.5583 4.03333 39.6083 3.975 39.675 3.925C39.7583 3.875 39.8333 3.825 39.9 3.775C39.9833 3.725 40.0583 3.68333 40.125 3.65C40.2083 3.61667 40.275 3.575 40.325 3.525C40.3917 3.44167 40.4583 3.36667 40.525 3.3C40.6083 3.21667 40.675 3.125 40.725 3.025C40.8083 2.94167 40.8917 2.85 40.975 2.75C41.075 2.63333 41.1833 2.54167 41.3 2.475C41.3333 2.45833 41.3833 2.41667 41.45 2.35C41.65 2.16667 41.8833 2.05 42.15 2C42.2 1.98333 42.2417 1.975 42.275 1.975C42.325 1.95833 42.375 1.95 42.425 1.95L42.6 1.875C42.7333 1.825 42.85 1.85 42.95 1.95C42.9833 2 43.025 2.05 43.075 2.1C43.1417 2.13333 43.2 2.16667 43.25 2.2C43.3833 2.31667 43.5083 2.44167 43.625 2.575C43.7583 2.70833 43.875 2.85833 43.975 3.025C44.1417 3.29167 44.2833 3.55833 44.4 3.825C44.5333 4.09167 44.6583 4.36667 44.775 4.65L45.225 5.725C45.2417 5.825 45.2833 5.91667 45.35 6C45.4833 6.25 45.5833 6.50833 45.65 6.775C45.7167 7.025 45.7833 7.28333 45.85 7.55C45.8667 7.58333 45.875 7.61667 45.875 7.65C45.8917 7.68333 45.9 7.71667 45.9 7.75C45.9333 7.88333 45.9583 8.025 45.975 8.175C46.0083 8.30833 46.0167 8.44167 46 8.575C46.0167 8.725 46.0083 8.875 45.975 9.025C45.9583 9.15833 45.9333 9.29167 45.9 9.425C45.85 9.59167 45.7917 9.75 45.725 9.9C45.6583 10.0333 45.5833 10.175 45.5 10.325C45.4667 10.425 45.4083 10.5167 45.325 10.6C45.2417 10.6833 45.1583 10.7583 45.075 10.825C44.9417 10.8917 44.8083 10.9917 44.675 11.125C44.6417 11.1583 44.6 11.1833 44.55 11.2C44.5167 11.2167 44.4833 11.2417 44.45 11.275C44.3333 11.325 44.2083 11.3833 44.075 11.45C43.9417 11.5 43.8083 11.55 43.675 11.6C43.6583 11.6 43.65 11.6167 43.65 11.65C43.65 11.6667 43.6583 11.6833 43.675 11.7L44.35 12.175C44.4333 12.225 44.5083 12.275 44.575 12.325C44.6417 12.3583 44.7083 12.4 44.775 12.45L44.925 12.525C45.125 12.6417 45.325 12.7667 45.525 12.9C45.725 13.0333 45.9167 13.1667 46.1 13.3C46.45 13.5167 46.8 13.7417 47.15 13.975C47.5 14.1917 47.8333 14.4333 48.15 14.7C48.4333 14.9167 48.6833 15.1667 48.9 15.45C48.95 15.5 49 15.5583 49.05 15.625C49.1 15.675 49.1583 15.7167 49.225 15.75L49.3 15.825C49.5667 16.0583 49.7167 16.375 49.75 16.775C49.75 16.825 49.7417 16.875 49.725 16.925C49.725 16.975 49.725 17.025 49.725 17.075C49.725 17.175 49.6917 17.2583 49.625 17.325C49.5583 17.3583 49.525 17.4 49.525 17.45C49.475 17.5667 49.4 17.65 49.3 17.7C49.2167 17.7333 49.1333 17.7833 49.05 17.85C49.0167 17.8667 48.9583 17.875 48.875 17.875C48.775 17.8583 48.6667 17.8417 48.55 17.825C48.45 17.8083 48.35 17.8 48.25 17.8C48.1167 17.8 47.975 17.7417 47.825 17.625C47.725 17.5417 47.6333 17.4667 47.55 17.4C47.4667 17.3167 47.3833 17.2167 47.3 17.1C47.0833 16.8 46.8 16.525 46.45 16.275C46.2833 16.1417 46.125 16.0167 45.975 15.9C45.825 15.7833 45.6583 15.675 45.475 15.575C45.3583 15.5083 45.2417 15.4417 45.125 15.375C45.025 15.2917 44.9083 15.2167 44.775 15.15C44.3583 14.8667 43.9333 14.5917 43.5 14.325C43.0667 14.0417 42.6333 13.7583 42.2 13.475C42.1333 13.425 42.0583 13.375 41.975 13.325C41.8917 13.275 41.8083 13.225 41.725 13.175C41.6917 13.1417 41.6417 13.1083 41.575 13.075C41.5083 13.075 41.475 13.1 41.475 13.15C41.475 13.1667 41.4667 13.1833 41.45 13.2C41.45 13.2 41.45 13.2083 41.45 13.225C41.45 13.275 41.45 13.325 41.45 13.375C41.45 13.425 41.4583 13.475 41.475 13.525C41.4917 13.6583 41.5 13.7917 41.5 13.925C41.5 14.0417 41.5 14.1667 41.5 14.3C41.5 14.4 41.5 14.5 41.5 14.6C41.5167 14.6833 41.5333 14.775 41.55 14.875C41.55 14.925 41.55 14.9833 41.55 15.05C41.5667 15.1 41.575 15.15 41.575 15.2C41.5583 15.35 41.5667 15.5 41.6 15.65C41.6333 15.8 41.6583 15.95 41.675 16.1L41.825 16.75C41.8417 16.8167 41.8583 16.8917 41.875 16.975C41.8917 17.0417 41.9083 17.1167 41.925 17.2C41.9417 17.2667 41.9417 17.3333 41.925 17.4C41.925 17.45 41.9167 17.5083 41.9 17.575C41.9 17.5917 41.8833 17.6167 41.85 17.65C41.7667 17.6667 41.7083 17.725 41.675 17.825C41.625 17.9417 41.55 18.0417 41.45 18.125C41.3667 18.225 41.275 18.3167 41.175 18.4C41.1583 18.4167 41.125 18.4333 41.075 18.45C41.025 18.4667 40.9833 18.4833 40.95 18.5ZM41.925 9.75H41.975C42.1583 9.71667 42.3417 9.68333 42.525 9.65C42.725 9.6 42.9167 9.54167 43.1 9.475C43.2833 9.425 43.4417 9.33333 43.575 9.2C43.6917 9.08333 43.75 8.95 43.75 8.8C43.7667 8.68333 43.7667 8.575 43.75 8.475C43.75 8.35833 43.7333 8.24167 43.7 8.125C43.6333 7.825 43.5583 7.53333 43.475 7.25C43.3917 6.95 43.2917 6.66667 43.175 6.4L42.95 5.8C42.9 5.63333 42.8417 5.475 42.775 5.325C42.7083 5.15833 42.6333 5 42.55 4.85C42.5333 4.81667 42.5167 4.78333 42.5 4.75C42.4833 4.7 42.4667 4.65833 42.45 4.625L42.35 4.525C42.3 4.45833 42.2417 4.45833 42.175 4.525C42.1583 4.525 42.1333 4.54167 42.1 4.575C41.9833 4.725 41.875 4.88333 41.775 5.05C41.6917 5.21667 41.6417 5.4 41.625 5.6C41.6083 5.66667 41.5917 5.73333 41.575 5.8C41.575 5.86667 41.575 5.94167 41.575 6.025V7.1C41.5583 7.33333 41.55 7.575 41.55 7.825C41.5667 8.075 41.5583 8.31667 41.525 8.55C41.5083 8.6 41.5 8.65 41.5 8.7C41.5167 8.75 41.525 8.8 41.525 8.85C41.5417 8.95 41.55 9.05 41.55 9.15C41.55 9.23333 41.55 9.325 41.55 9.425C41.55 9.59167 41.5667 9.69167 41.6 9.725C41.65 9.75833 41.7583 9.76667 41.925 9.75ZM55.7523 18.25C55.7357 18.2333 55.7107 18.225 55.6773 18.225C55.5107 18.125 55.344 18.0333 55.1773 17.95C55.0273 17.85 54.8857 17.7417 54.7523 17.625C54.6857 17.5917 54.644 17.5583 54.6273 17.525C54.4773 17.4417 54.344 17.3417 54.2273 17.225C54.1107 17.0917 54.0023 16.95 53.9023 16.8C53.869 16.7667 53.8357 16.725 53.8023 16.675C53.769 16.625 53.7273 16.575 53.6773 16.525C53.5107 16.3583 53.3773 16.1583 53.2773 15.925C53.2607 15.875 53.2357 15.825 53.2023 15.775C53.169 15.725 53.1357 15.675 53.1023 15.625C53.0023 15.4917 52.9273 15.3667 52.8773 15.25C52.844 15.1167 52.794 14.9917 52.7273 14.875C52.6607 14.7417 52.594 14.6167 52.5273 14.5C52.5107 14.4333 52.4857 14.3667 52.4523 14.3C52.419 14.2333 52.394 14.1667 52.3773 14.1C52.3773 14.0167 52.3523 13.925 52.3023 13.825C52.2357 13.6417 52.169 13.4583 52.1023 13.275C52.0523 13.075 52.0023 12.875 51.9523 12.675C51.919 12.6083 51.9023 12.5583 51.9023 12.525C51.8023 12.3083 51.7273 12.0833 51.6773 11.85C51.6273 11.6167 51.5773 11.3917 51.5273 11.175L51.3773 10.05C51.3607 10.0167 51.3523 9.975 51.3523 9.925C51.3523 9.875 51.3523 9.83333 51.3523 9.8C51.3523 9.7 51.3523 9.60833 51.3523 9.525C51.3523 9.425 51.3357 9.325 51.3023 9.225C51.269 9.00833 51.2773 8.80833 51.3273 8.625C51.3273 8.55833 51.3273 8.5 51.3273 8.45C51.344 8.38333 51.3523 8.31667 51.3523 8.25C51.3523 8.16667 51.3523 8.08333 51.3523 8C51.369 7.9 51.3857 7.81667 51.4023 7.75C51.419 7.7 51.4273 7.63333 51.4273 7.55C51.4607 7.4 51.4773 7.25833 51.4773 7.125C51.494 6.975 51.5107 6.83333 51.5273 6.7C51.5773 6.46667 51.6023 6.24167 51.6023 6.025C51.6023 5.95833 51.6023 5.9 51.6023 5.85C51.619 5.78333 51.6357 5.71667 51.6523 5.65C51.6523 5.5 51.644 5.39167 51.6273 5.325C51.5773 5.25833 51.569 5.16667 51.6023 5.05C51.6357 4.98333 51.6523 4.93333 51.6523 4.9C51.669 4.86667 51.6773 4.83333 51.6773 4.8C51.6773 4.75 51.7023 4.71667 51.7523 4.7H51.9273C51.994 4.7 52.0357 4.675 52.0523 4.625C52.069 4.55833 52.1273 4.50833 52.2273 4.475C52.3107 4.44167 52.3857 4.41667 52.4523 4.4C52.519 4.36667 52.5857 4.325 52.6523 4.275C52.7023 4.24167 52.7607 4.225 52.8273 4.225C52.894 4.225 52.9607 4.23333 53.0273 4.25L53.4773 4.4C53.494 4.41667 53.5023 4.425 53.5023 4.425C53.519 4.425 53.5357 4.43333 53.5523 4.45C53.6857 4.58333 53.794 4.73333 53.8773 4.9C53.9773 5.06667 54.0357 5.25 54.0523 5.45C54.0523 5.51667 54.0523 5.58333 54.0523 5.65C54.0523 5.7 54.0357 5.75833 54.0023 5.825C53.9857 5.925 53.969 6.025 53.9523 6.125C53.9357 6.225 53.919 6.33333 53.9023 6.45C53.869 6.61667 53.844 6.78333 53.8273 6.95C53.8273 7.1 53.8273 7.25833 53.8273 7.425C53.8107 7.49167 53.8023 7.55833 53.8023 7.625C53.8023 7.675 53.794 7.73333 53.7773 7.8C53.7607 8 53.7523 8.2 53.7523 8.4C53.7523 8.6 53.769 8.79167 53.8023 8.975C53.8023 8.99167 53.8023 9.01667 53.8023 9.05C53.819 9.08333 53.819 9.11667 53.8023 9.15C53.8023 9.31667 53.819 9.49167 53.8523 9.675C53.8857 9.85833 53.9107 10.0417 53.9273 10.225C53.944 10.3917 53.9607 10.55 53.9773 10.7C53.994 10.85 54.019 11 54.0523 11.15C54.0857 11.2167 54.1023 11.2833 54.1023 11.35C54.119 11.4167 54.1357 11.4833 54.1523 11.55C54.219 11.8667 54.294 12.175 54.3773 12.475C54.4607 12.775 54.569 13.075 54.7023 13.375C54.7857 13.5583 54.869 13.7167 54.9523 13.85C55.0857 14.0833 55.2023 14.3167 55.3023 14.55C55.369 14.6667 55.4357 14.7833 55.5023 14.9C55.569 15 55.6357 15.1083 55.7023 15.225C55.769 15.3083 55.8357 15.3833 55.9023 15.45C55.969 15.5167 56.0357 15.5917 56.1023 15.675C56.1857 15.7583 56.294 15.7833 56.4273 15.75C56.5107 15.7167 56.569 15.6833 56.6023 15.65C56.6857 15.6 56.7607 15.55 56.8273 15.5C56.9107 15.45 56.9857 15.3917 57.0523 15.325C57.2357 15.1417 57.4023 14.9583 57.5523 14.775C57.719 14.5917 57.8607 14.3917 57.9773 14.175C58.0773 13.9917 58.1773 13.8 58.2773 13.6C58.3773 13.4 58.469 13.2 58.5523 13C58.6523 12.7667 58.744 12.5333 58.8273 12.3C58.9273 12.0667 59.019 11.825 59.1023 11.575C59.169 11.4083 59.219 11.2417 59.2523 11.075C59.3023 10.8917 59.3357 10.7167 59.3523 10.55C59.3857 10.3667 59.4107 10.1833 59.4273 10C59.4607 9.8 59.469 9.60833 59.4523 9.425C59.4523 9.375 59.4523 9.325 59.4523 9.275C59.469 9.225 59.4773 9.175 59.4773 9.125C59.5107 9.00833 59.519 8.9 59.5023 8.8C59.5023 8.7 59.494 8.6 59.4773 8.5C59.4607 8.21667 59.4357 7.95 59.4023 7.7C59.3857 7.43333 59.369 7.16667 59.3523 6.9C59.3523 6.76667 59.344 6.675 59.3273 6.625C59.3107 6.475 59.294 6.325 59.2773 6.175C59.2773 6.025 59.2607 5.875 59.2273 5.725V5.525C59.2273 5.35833 59.219 5.2 59.2023 5.05C59.2023 4.88333 59.2023 4.71667 59.2023 4.55C59.2023 4.41667 59.194 4.3 59.1773 4.2C59.1773 4.08333 59.1773 3.96667 59.1773 3.85C59.1773 3.7 59.2023 3.575 59.2523 3.475C59.3023 3.39167 59.319 3.325 59.3023 3.275C59.2523 3.175 59.2773 3.1 59.3773 3.05C59.4607 2.96667 59.544 2.9 59.6273 2.85C59.7273 2.8 59.8357 2.76667 59.9523 2.75C59.9857 2.73333 60.0107 2.725 60.0273 2.725C60.0607 2.725 60.0857 2.71667 60.1023 2.7C60.2023 2.61667 60.3357 2.59167 60.5023 2.625C60.5357 2.64167 60.5857 2.65 60.6523 2.65C60.8023 2.68333 60.9107 2.74167 60.9773 2.825C61.0273 2.875 61.1023 2.93333 61.2023 3C61.3357 3.06667 61.4273 3.15 61.4773 3.25C61.5273 3.35 61.5607 3.45833 61.5773 3.575C61.6107 3.74167 61.6357 3.9 61.6523 4.05C61.6857 4.2 61.694 4.35833 61.6773 4.525V4.75C61.6773 4.91667 61.6773 5.08333 61.6773 5.25C61.694 5.4 61.7107 5.55833 61.7273 5.725C61.744 5.775 61.7523 5.83333 61.7523 5.9C61.7523 5.95 61.7523 6 61.7523 6.05C61.7523 6.15 61.7523 6.25 61.7523 6.35C61.769 6.43333 61.7857 6.525 61.8023 6.625C61.819 6.65833 61.8273 6.70833 61.8273 6.775C61.8107 6.94167 61.8107 7.10833 61.8273 7.275C61.8607 7.425 61.8857 7.58333 61.9023 7.75C61.919 7.91667 61.9273 8.09167 61.9273 8.275C61.944 8.45833 61.9523 8.64167 61.9523 8.825C61.969 8.84167 61.969 8.86667 61.9523 8.9C61.9523 8.93333 61.9523 8.96667 61.9523 9C61.9023 9.15 61.894 9.325 61.9273 9.525C61.9607 9.74167 61.9523 9.95 61.9023 10.15C61.8857 10.3 61.869 10.45 61.8523 10.6C61.8357 10.75 61.8107 10.9083 61.7773 11.075C61.744 11.3417 61.6857 11.6083 61.6023 11.875C61.519 12.1417 61.4357 12.4083 61.3523 12.675C61.3523 12.7083 61.3273 12.7667 61.2773 12.85C61.2107 12.9667 61.1523 13.0917 61.1023 13.225C61.0523 13.3417 61.0107 13.4667 60.9773 13.6L60.9023 13.775C60.819 13.9417 60.744 14.1083 60.6773 14.275C60.6273 14.425 60.5607 14.5833 60.4773 14.75C60.4273 14.85 60.3773 14.95 60.3273 15.05C60.2773 15.15 60.219 15.2417 60.1523 15.325C60.1357 15.3583 60.1107 15.3917 60.0773 15.425C60.044 15.5417 59.994 15.65 59.9273 15.75C59.8607 15.85 59.794 15.95 59.7273 16.05C59.544 16.3333 59.3273 16.6 59.0773 16.85C58.844 17.1 58.5857 17.3333 58.3023 17.55L58.0023 17.725C57.769 17.8417 57.519 17.9417 57.2523 18.025C57.0023 18.1083 56.744 18.1667 56.4773 18.2C56.394 18.2167 56.3023 18.2167 56.2023 18.2C56.1523 18.2 56.1023 18.2 56.0523 18.2C56.0023 18.2 55.9523 18.2167 55.9023 18.25H55.7523ZM67.5115 18.35C67.3949 18.35 67.2532 18.3083 67.0865 18.225C67.0032 18.175 66.9365 18.1083 66.8865 18.025C66.8699 17.975 66.8282 17.975 66.7615 18.025C66.7115 18.0583 66.6699 18.0583 66.6365 18.025C66.5865 17.975 66.5365 17.9417 66.4865 17.925C66.4199 17.925 66.3865 17.9 66.3865 17.85C66.3865 17.8 66.3782 17.7583 66.3615 17.725C66.3615 17.675 66.3449 17.6333 66.3115 17.6C66.2115 17.5667 66.1449 17.4833 66.1115 17.35C66.0949 17.3 66.0782 17.2583 66.0615 17.225C66.0449 17.175 66.0199 17.125 65.9865 17.075C65.9532 17.0083 65.9365 16.95 65.9365 16.9C65.9199 16.85 65.9032 16.8083 65.8865 16.775C65.8865 16.725 65.8699 16.675 65.8365 16.625C65.8199 16.5083 65.7865 16.4 65.7365 16.3C65.6865 16.2 65.6449 16.0917 65.6115 15.975C65.5782 15.9083 65.5615 15.8167 65.5615 15.7C65.5615 15.4 65.6115 15.125 65.7115 14.875C65.7949 14.725 65.8199 14.575 65.7865 14.425C65.7699 14.3583 65.7699 14.2917 65.7865 14.225C65.8199 14.1583 65.8282 14.0917 65.8115 14.025C65.7949 13.9583 65.7782 13.9 65.7615 13.85C65.7615 13.8 65.7615 13.7417 65.7615 13.675C65.7449 13.6417 65.7365 13.6 65.7365 13.55C65.7365 13.45 65.7365 13.35 65.7365 13.25C65.7365 13.1333 65.7199 13.0167 65.6865 12.9C65.6699 12.85 65.6615 12.775 65.6615 12.675V11.75C65.6449 11.5333 65.6199 11.3167 65.5865 11.1C65.5532 10.8833 65.5115 10.6667 65.4615 10.45C65.4615 10.4 65.4532 10.35 65.4365 10.3C65.4365 10.25 65.4365 10.2 65.4365 10.15C65.4365 9.78333 65.3782 9.425 65.2615 9.075V8.85C65.2949 8.66667 65.2782 8.525 65.2115 8.425C65.1949 8.35833 65.1865 8.26667 65.1865 8.15V8.125C65.1865 7.95833 65.1782 7.79167 65.1615 7.625C65.1615 7.45833 65.1699 7.29167 65.1865 7.125C65.2199 6.825 65.2199 6.50833 65.1865 6.175C65.1865 6.04167 65.1865 5.90833 65.1865 5.775C65.1865 5.64167 65.1782 5.51667 65.1615 5.4V5.25C65.1949 5.16667 65.2115 5.09167 65.2115 5.025C65.2115 4.95833 65.2115 4.89167 65.2115 4.825C65.2115 4.625 65.2032 4.43333 65.1865 4.25C65.1865 4.05 65.1699 3.85833 65.1365 3.675C65.1365 3.625 65.1365 3.575 65.1365 3.525C65.1365 3.45833 65.1282 3.4 65.1115 3.35C65.1115 3.23333 65.0699 3.13333 64.9865 3.05L64.8115 2.9C64.6449 2.8 64.5365 2.64167 64.4865 2.425C64.4699 2.39167 64.4615 2.36667 64.4615 2.35C64.4615 2.31667 64.4532 2.28333 64.4365 2.25C64.4032 2.16667 64.4199 2.09167 64.4865 2.025C64.5365 1.95833 64.5699 1.89167 64.5865 1.825C64.5865 1.775 64.5949 1.73333 64.6115 1.7C64.6449 1.65 64.6699 1.6 64.6865 1.55C64.7032 1.5 64.7199 1.44167 64.7365 1.375C64.7699 1.325 64.7949 1.30833 64.8115 1.325C64.9282 1.325 65.0115 1.30833 65.0615 1.275C65.1782 1.19167 65.3032 1.175 65.4365 1.225C65.4699 1.24167 65.5199 1.23333 65.5865 1.2C65.6032 1.2 65.6115 1.19167 65.6115 1.175C65.6949 1.09167 65.7865 1.05 65.8865 1.05C65.9865 1.03333 66.0949 1.03333 66.2115 1.05C66.2282 1.05 66.2449 1.05833 66.2615 1.075C66.2782 1.075 66.2949 1.075 66.3115 1.075C66.4449 1.10833 66.5699 1.14167 66.6865 1.175C66.8199 1.19167 66.9449 1.19167 67.0615 1.175C67.1449 1.175 67.2282 1.18333 67.3115 1.2C67.4115 1.21667 67.5032 1.225 67.5865 1.225C67.6532 1.225 67.7115 1.23333 67.7615 1.25C67.8282 1.26667 67.8865 1.28333 67.9365 1.3C68.0032 1.31667 68.0615 1.34167 68.1115 1.375C68.1615 1.39167 68.2199 1.4 68.2865 1.4C68.3699 1.41667 68.4365 1.43333 68.4865 1.45C68.5532 1.46667 68.6199 1.49167 68.6865 1.525C68.9032 1.64167 69.1199 1.75 69.3365 1.85C69.4365 1.9 69.5282 1.96667 69.6115 2.05C69.7282 2.13333 69.8282 2.18333 69.9115 2.2C69.9282 2.2 69.9449 2.20833 69.9615 2.225C69.9782 2.225 69.9949 2.225 70.0115 2.225C70.0282 2.24167 70.0449 2.25 70.0615 2.25C70.0782 2.25 70.0949 2.25833 70.1115 2.275C70.1949 2.35833 70.2949 2.425 70.4115 2.475C70.5449 2.50833 70.6532 2.56667 70.7365 2.65C70.7699 2.68333 70.8199 2.71667 70.8865 2.75C71.0199 2.8 71.1365 2.875 71.2365 2.975C71.2699 3.00833 71.2949 3.025 71.3115 3.025C71.3782 3.025 71.4532 3.06667 71.5365 3.15L72.0615 3.7C72.1282 3.76667 72.1782 3.825 72.2115 3.875C72.2949 3.99167 72.3865 4.1 72.4865 4.2C72.5865 4.3 72.6865 4.4 72.7865 4.5C72.8199 4.53333 72.8532 4.575 72.8865 4.625C72.9365 4.65833 72.9699 4.7 72.9865 4.75C73.0032 4.78333 73.0282 4.81667 73.0615 4.85C73.0949 4.86667 73.1199 4.89167 73.1365 4.925C73.3199 5.125 73.4949 5.33333 73.6615 5.55C73.8449 5.76667 74.0115 5.99167 74.1615 6.225C74.2449 6.34167 74.3199 6.46667 74.3865 6.6C74.4532 6.73333 74.5115 6.86667 74.5615 7C74.6115 7.11667 74.6615 7.23333 74.7115 7.35C74.7782 7.46667 74.8365 7.58333 74.8865 7.7C74.9365 7.88333 74.9949 8.05 75.0615 8.2C75.1282 8.41667 75.1949 8.625 75.2615 8.825C75.3282 9.025 75.3865 9.24167 75.4365 9.475L75.5115 9.8C75.5115 9.93333 75.5115 10.075 75.5115 10.225C75.5282 10.3583 75.5365 10.5 75.5365 10.65C75.5365 10.7167 75.5282 10.775 75.5115 10.825C75.5115 10.875 75.4949 10.9333 75.4615 11C75.4282 11.1 75.4115 11.1917 75.4115 11.275C75.3949 11.4417 75.3532 11.6 75.2865 11.75C75.2365 11.9 75.1782 12.0417 75.1115 12.175C74.9615 12.4417 74.8282 12.7083 74.7115 12.975C74.6782 13.0417 74.6449 13.1083 74.6115 13.175C74.5949 13.225 74.5699 13.2833 74.5365 13.35L74.3865 13.65C74.2699 13.8833 74.1282 14.1167 73.9615 14.35C73.8115 14.5667 73.6449 14.775 73.4615 14.975C73.3949 15.0583 73.3115 15.1417 73.2115 15.225C73.1282 15.2917 73.0449 15.3667 72.9615 15.45C72.7949 15.6 72.6282 15.75 72.4615 15.9C72.2949 16.0333 72.1199 16.1667 71.9365 16.3C71.7699 16.4167 71.5949 16.525 71.4115 16.625C71.2449 16.725 71.0615 16.8083 70.8615 16.875C70.7615 16.8917 70.6615 16.9417 70.5615 17.025C70.4615 17.0917 70.3532 17.1583 70.2365 17.225C70.1365 17.2917 70.0282 17.3667 69.9115 17.45C69.8615 17.4667 69.8115 17.4917 69.7615 17.525C69.7115 17.5417 69.6532 17.5583 69.5865 17.575C69.5365 17.5917 69.4782 17.6083 69.4115 17.625C69.3615 17.6417 69.3115 17.6583 69.2615 17.675C69.1949 17.6917 69.1282 17.7167 69.0615 17.75C69.0115 17.7833 68.9615 17.825 68.9115 17.875C68.7949 17.9583 68.6699 18.025 68.5365 18.075C68.4032 18.1417 68.2699 18.2167 68.1365 18.3C68.1032 18.3167 68.0449 18.325 67.9615 18.325C67.9115 18.3417 67.8615 18.3417 67.8115 18.325C67.7615 18.325 67.7115 18.325 67.6615 18.325V18.35H67.5115ZM68.5115 15.55C68.6782 15.55 68.8199 15.5167 68.9365 15.45C69.0699 15.4 69.1949 15.3417 69.3115 15.275C69.4282 15.2083 69.5365 15.1333 69.6365 15.05L69.9365 14.75C70.1032 14.6167 70.2532 14.475 70.3865 14.325C70.5365 14.175 70.6949 14.0417 70.8615 13.925C70.8949 13.8917 70.9115 13.875 70.9115 13.875C70.9782 13.8083 71.0365 13.75 71.0865 13.7C71.1532 13.6333 71.2115 13.5667 71.2615 13.5C71.2949 13.4667 71.3365 13.425 71.3865 13.375C71.4365 13.325 71.4699 13.2833 71.4865 13.25C71.5532 13.1333 71.6449 13.0333 71.7615 12.95C71.8449 12.9 71.8949 12.85 71.9115 12.8C71.9449 12.7167 71.9865 12.6333 72.0365 12.55C72.1032 12.4667 72.1699 12.3917 72.2365 12.325C72.3199 12.225 72.4032 12.075 72.4865 11.875L72.5865 11.625C72.6865 11.3917 72.7365 11.175 72.7365 10.975C72.7532 10.925 72.7615 10.85 72.7615 10.75C72.7782 10.5 72.7615 10.2333 72.7115 9.95C72.6949 9.86667 72.6782 9.78333 72.6615 9.7C72.6449 9.61667 72.6365 9.54167 72.6365 9.475C72.6199 9.40833 72.6032 9.35 72.5865 9.3C72.5865 9.23333 72.5699 9.175 72.5365 9.125C72.5032 9.05833 72.4782 8.99167 72.4615 8.925C72.4449 8.85833 72.4282 8.79167 72.4115 8.725C72.4115 8.60833 72.3949 8.50833 72.3615 8.425C72.3282 8.325 72.2949 8.225 72.2615 8.125C72.2115 8.025 72.1615 7.925 72.1115 7.825C72.0615 7.70833 72.0199 7.59167 71.9865 7.475L71.9615 7.375C71.9115 7.30833 71.8699 7.24167 71.8365 7.175C71.8199 7.09167 71.7949 7.01667 71.7615 6.95C71.6949 6.8 71.6282 6.65 71.5615 6.5C71.5115 6.35 71.4449 6.20833 71.3615 6.075C71.2782 5.925 71.1865 5.775 71.0865 5.625C71.0032 5.475 70.8949 5.34167 70.7615 5.225C70.3782 4.80833 69.9365 4.43333 69.4365 4.1C69.1365 3.88333 68.8365 3.74167 68.5365 3.675C68.4199 3.64167 68.2865 3.61667 68.1365 3.6C67.9865 3.56667 67.8449 3.54167 67.7115 3.525C67.6615 3.525 67.6199 3.54167 67.5865 3.575C67.5032 3.64167 67.4615 3.725 67.4615 3.825C67.4615 3.94167 67.4532 4.06667 67.4365 4.2C67.4365 4.31667 67.4365 4.44167 67.4365 4.575C67.4699 4.80833 67.4615 5 67.4115 5.15C67.3949 5.21667 67.3782 5.28333 67.3615 5.35C67.3615 5.41667 67.3699 5.49167 67.3865 5.575C67.4199 5.675 67.4115 5.76667 67.3615 5.85C67.3115 5.95 67.3115 6.05833 67.3615 6.175C67.4282 6.30833 67.4449 6.475 67.4115 6.675C67.3615 6.875 67.3615 7.075 67.4115 7.275C67.4282 7.34167 67.4365 7.40833 67.4365 7.475C67.4532 7.54167 67.4532 7.61667 67.4365 7.7C67.4365 7.88333 67.4449 8.06667 67.4615 8.25C67.4949 8.43333 67.5199 8.61667 67.5365 8.8C67.5365 8.83333 67.5532 8.88333 67.5865 8.95V9.35C67.5865 9.38333 67.5782 9.425 67.5615 9.475C67.5615 9.50833 67.5699 9.54167 67.5865 9.575C67.6199 9.70833 67.6449 9.85 67.6615 10C67.6949 10.1333 67.7282 10.2667 67.7615 10.4C67.7615 10.4333 67.7699 10.475 67.7865 10.525C67.8032 10.5583 67.8115 10.6 67.8115 10.65C67.8115 10.7667 67.8199 10.8833 67.8365 11C67.8532 11.1167 67.8699 11.2417 67.8865 11.375C67.9365 11.8417 68.0115 12.3167 68.1115 12.8C68.1615 13 68.1865 13.2083 68.1865 13.425C68.1865 13.475 68.1865 13.5333 68.1865 13.6C68.1865 13.65 68.1949 13.7 68.2115 13.75C68.2449 13.8667 68.2615 13.9833 68.2615 14.1C68.2615 14.2167 68.2615 14.3333 68.2615 14.45C68.2615 14.4833 68.2532 14.525 68.2365 14.575C68.2365 14.625 68.2449 14.6667 68.2615 14.7C68.2949 14.7833 68.3115 14.8667 68.3115 14.95C68.3115 15.0167 68.3115 15.0917 68.3115 15.175C68.3115 15.2417 68.3282 15.325 68.3615 15.425C68.3615 15.5083 68.4115 15.55 68.5115 15.55ZM92.4816 21.325C92.215 21.4917 91.9983 21.4333 91.8316 21.15C91.765 21.05 91.7316 20.9583 91.7316 20.875L91.6566 20.525C91.64 20.275 91.6066 20.025 91.5566 19.775C91.5066 19.525 91.4483 19.2667 91.3816 19C91.3816 18.9667 91.3733 18.9333 91.3566 18.9C91.3566 18.8833 91.3566 18.8583 91.3566 18.825C91.3566 18.7583 91.3483 18.7083 91.3316 18.675C91.2816 18.425 91.1483 18.2417 90.9316 18.125C90.7816 18.0417 90.6233 17.9667 90.4566 17.9C90.3066 17.8167 90.1483 17.7417 89.9816 17.675L89.3566 17.375C89.2233 17.3083 89.0983 17.2 88.9816 17.05C88.7983 16.85 88.6316 16.6417 88.4816 16.425C88.3316 16.2083 88.2066 15.975 88.1066 15.725C88.0733 15.625 88.0316 15.525 87.9816 15.425C87.9483 15.325 87.915 15.225 87.8816 15.125C87.8483 15.0417 87.8233 14.9583 87.8066 14.875C87.79 14.7917 87.765 14.7167 87.7316 14.65L87.5816 14.125C87.5483 14.0583 87.5316 13.9917 87.5316 13.925C87.515 13.8083 87.4983 13.7 87.4816 13.6C87.4816 13.4833 87.465 13.3667 87.4316 13.25C87.415 13.1333 87.3983 13.0167 87.3816 12.9C87.3816 12.7833 87.3816 12.6667 87.3816 12.55C87.3816 12.4833 87.3733 12.4333 87.3566 12.4C87.34 12.1667 87.3316 11.9417 87.3316 11.725C87.3316 11.5083 87.3233 11.2917 87.3066 11.075C87.3066 10.9417 87.3066 10.8083 87.3066 10.675C87.3066 10.5417 87.315 10.4167 87.3316 10.3L87.4066 9.4C87.4066 9.35 87.4066 9.30833 87.4066 9.275C87.4233 9.225 87.4316 9.18333 87.4316 9.15C87.4483 8.93333 87.465 8.725 87.4816 8.525C87.515 8.325 87.5566 8.125 87.6066 7.925C87.64 7.875 87.6566 7.825 87.6566 7.775C87.6566 7.725 87.6566 7.675 87.6566 7.625C87.7066 7.44167 87.7483 7.25833 87.7816 7.075C87.8316 6.875 87.8733 6.675 87.9066 6.475L88.0566 5.65C88.09 5.51667 88.115 5.38333 88.1316 5.25C88.165 5.11667 88.1983 4.98333 88.2316 4.85C88.365 4.28333 88.5983 3.8 88.9316 3.4C89.1316 3.11667 89.365 2.89167 89.6316 2.725C89.8316 2.59167 90.0316 2.45833 90.2316 2.325C90.4483 2.19167 90.665 2.075 90.8816 1.975C91.115 1.84167 91.3566 1.725 91.6066 1.625C91.8566 1.525 92.115 1.43333 92.3816 1.35C92.4983 1.31667 92.6066 1.28333 92.7066 1.25C92.8233 1.21667 92.94 1.19167 93.0566 1.175C93.2566 1.125 93.4566 1.10833 93.6566 1.125C93.8566 1.125 94.0483 1.16667 94.2316 1.25C94.465 1.33333 94.665 1.44167 94.8316 1.575C94.915 1.64167 94.9983 1.70833 95.0816 1.775C95.1816 1.825 95.265 1.89167 95.3316 1.975C95.6816 2.225 95.9066 2.56667 96.0066 3C96.0233 3.06667 96.04 3.13333 96.0566 3.2C96.0733 3.25 96.0816 3.31667 96.0816 3.4C96.0983 3.7 96.0483 3.98333 95.9316 4.25C95.8983 4.31667 95.8566 4.39167 95.8066 4.475C95.7733 4.54167 95.7233 4.60833 95.6566 4.675C95.5733 4.775 95.49 4.88333 95.4066 5C95.34 5.1 95.265 5.2 95.1816 5.3C95.0316 5.46667 94.9566 5.675 94.9566 5.925V7.475C94.9566 7.54167 94.9483 7.60833 94.9316 7.675C94.9316 7.725 94.9316 7.78333 94.9316 7.85C94.915 7.93333 94.9066 8.025 94.9066 8.125C94.9066 8.20833 94.9066 8.29167 94.9066 8.375C94.9066 8.45833 94.94 8.48333 95.0066 8.45H95.0816C95.1316 8.43333 95.1733 8.425 95.2066 8.425C95.2566 8.425 95.2983 8.41667 95.3316 8.4C95.5816 8.31667 95.8316 8.25833 96.0816 8.225C96.3316 8.175 96.59 8.14167 96.8566 8.125C97.09 8.09167 97.315 8.09167 97.5316 8.125C97.7483 8.14167 97.965 8.175 98.1816 8.225C98.3316 8.275 98.4733 8.33333 98.6066 8.4C98.7566 8.45 98.89 8.525 99.0066 8.625C99.09 8.69167 99.1733 8.76667 99.2566 8.85C99.34 8.91667 99.4066 8.99167 99.4566 9.075C99.5733 9.24167 99.665 9.41667 99.7316 9.6C99.815 9.76667 99.8566 9.94167 99.8566 10.125V10.15C99.89 10.3167 99.9066 10.4833 99.9066 10.65C99.9066 10.8167 99.89 10.9833 99.8566 11.15C99.84 11.25 99.8233 11.35 99.8066 11.45C99.79 11.5333 99.7733 11.625 99.7566 11.725C99.7233 11.875 99.6816 12.025 99.6316 12.175C99.5983 12.325 99.565 12.475 99.5316 12.625C99.515 12.6917 99.4983 12.7583 99.4816 12.825C99.4816 12.875 99.4816 12.9333 99.4816 13V14.45C99.4816 14.5833 99.49 14.7167 99.5066 14.85C99.5233 14.9833 99.54 15.1167 99.5566 15.25C99.5733 15.3333 99.59 15.4167 99.6066 15.5C99.64 15.5833 99.665 15.6667 99.6816 15.75C99.6816 15.7833 99.715 15.8333 99.7816 15.9C99.865 15.9833 99.915 16.075 99.9316 16.175C99.9316 16.225 99.94 16.2583 99.9566 16.275C100.023 16.425 100.057 16.6 100.057 16.8C100.057 16.8667 100.048 16.9333 100.032 17C100.032 17.0667 100.04 17.1417 100.057 17.225C100.09 17.325 100.065 17.4167 99.9816 17.5C99.9483 17.5333 99.9233 17.575 99.9066 17.625C99.89 17.675 99.865 17.725 99.8316 17.775C99.7816 17.875 99.715 17.9667 99.6316 18.05C99.5816 18.0667 99.54 18.1 99.5066 18.15C99.4733 18.2 99.44 18.2417 99.4066 18.275C99.2733 18.425 99.115 18.475 98.9316 18.425C98.915 18.425 98.89 18.4167 98.8566 18.4C98.84 18.4 98.8233 18.4 98.8066 18.4C98.6566 18.3833 98.5233 18.3333 98.4066 18.25C98.3066 18.1833 98.2066 18.1 98.1066 18C98.0733 17.95 98.0316 17.9 97.9816 17.85C97.9483 17.7833 97.9066 17.725 97.8566 17.675C97.8066 17.6083 97.765 17.5333 97.7316 17.45C97.715 17.3667 97.69 17.2917 97.6566 17.225C97.59 16.9917 97.515 16.75 97.4316 16.5C97.365 16.25 97.315 16 97.2816 15.75C97.2483 15.5167 97.2066 15.2833 97.1566 15.05C97.1066 14.8 97.0733 14.55 97.0566 14.3C97.0233 14.1667 97.0066 14.05 97.0066 13.95C96.9733 13.8833 96.9566 13.85 96.9566 13.85C96.89 13.8833 96.8483 13.9083 96.8316 13.925C96.665 14.125 96.4816 14.325 96.2816 14.525C96.0816 14.7083 95.89 14.9 95.7066 15.1C95.6733 15.15 95.6316 15.2 95.5816 15.25C95.5483 15.2833 95.515 15.3167 95.4816 15.35C95.3816 15.45 95.2816 15.55 95.1816 15.65C95.0816 15.7333 94.99 15.825 94.9066 15.925C94.84 15.975 94.7816 16.025 94.7316 16.075C94.6816 16.125 94.6233 16.1667 94.5566 16.2C94.5233 16.2333 94.49 16.2667 94.4566 16.3C94.4233 16.3333 94.39 16.3667 94.3566 16.4C94.29 16.4667 94.2233 16.5333 94.1566 16.6C94.1066 16.65 94.04 16.7 93.9566 16.75L93.8566 16.85C93.59 17.0667 93.3233 17.2583 93.0566 17.425C92.7733 17.575 92.6316 17.8167 92.6316 18.15C92.6316 18.25 92.6316 18.35 92.6316 18.45C92.6316 18.55 92.64 18.65 92.6566 18.75C92.6566 18.7667 92.6566 18.775 92.6566 18.775C92.6733 18.775 92.6816 18.7833 92.6816 18.8C92.6983 19.1167 92.715 19.4333 92.7316 19.75C92.765 20.0833 92.7733 20.4167 92.7566 20.75C92.74 20.8 92.7316 20.8667 92.7316 20.95C92.6983 21.1 92.615 21.225 92.4816 21.325ZM92.3316 14.225C92.6316 14.375 92.9233 14.3667 93.2066 14.2C93.2566 14.15 93.2983 14.1167 93.3316 14.1C93.465 14 93.59 13.9 93.7066 13.8C93.8233 13.6833 93.94 13.575 94.0566 13.475C94.1733 13.375 94.2816 13.275 94.3816 13.175C94.4816 13.0583 94.59 12.95 94.7066 12.85C94.84 12.7167 94.9733 12.575 95.1066 12.425C95.24 12.275 95.365 12.125 95.4816 11.975C95.565 11.875 95.6316 11.7667 95.6816 11.65C95.7483 11.5667 95.79 11.4667 95.8066 11.35C95.8066 11.2333 95.7566 11.1917 95.6566 11.225C95.5733 11.2417 95.49 11.2583 95.4066 11.275C95.3233 11.2917 95.24 11.3333 95.1566 11.4C95.0566 11.4667 94.9483 11.5333 94.8316 11.6C94.7316 11.6667 94.6233 11.7417 94.5066 11.825C94.4733 11.8583 94.44 11.9083 94.4066 11.975C94.3733 12.0917 94.34 12.2333 94.3066 12.4C94.3066 12.5167 94.2983 12.625 94.2816 12.725C94.2816 12.825 94.2733 12.925 94.2566 13.025C94.2066 13.2583 94.09 13.4083 93.9066 13.475C93.79 13.525 93.69 13.5167 93.6066 13.45C93.49 13.3833 93.4066 13.2917 93.3566 13.175C93.3233 13.0583 93.29 12.9417 93.2566 12.825C93.2233 12.7083 93.1983 12.5917 93.1816 12.475L93.1066 12C93.1066 11.8 93.015 11.5917 92.8316 11.375C92.7983 11.3417 92.7566 11.3 92.7066 11.25C92.6733 11.2 92.64 11.15 92.6066 11.1C92.54 11 92.4816 10.8917 92.4316 10.775C92.3983 10.6583 92.365 10.5417 92.3316 10.425L92.3066 10.25C92.3233 9.93333 92.44 9.65833 92.6566 9.425C92.9233 9.125 93.215 8.93333 93.5316 8.85L93.7816 8.775C93.8816 8.74167 93.915 8.68333 93.8816 8.6C93.865 8.51667 93.8483 8.43333 93.8316 8.35C93.815 8.25 93.7983 8.15833 93.7816 8.075C93.765 7.90833 93.7483 7.75 93.7316 7.6C93.7316 7.43333 93.715 7.26667 93.6816 7.1C93.6816 7.1 93.6816 7.05833 93.6816 6.975C93.665 6.79167 93.64 6.60833 93.6066 6.425C93.59 6.225 93.565 6.025 93.5316 5.825C93.4983 5.65833 93.4316 5.525 93.3316 5.425C93.1983 5.29167 93.0483 5.225 92.8816 5.225C92.7316 5.25833 92.6233 5.3 92.5566 5.35C92.39 5.46667 92.2316 5.58333 92.0816 5.7C91.9316 5.8 91.765 5.89167 91.5816 5.975C91.465 6.04167 91.3816 6.11667 91.3316 6.2C91.2816 6.31667 91.2233 6.43333 91.1566 6.55C91.1066 6.65 91.065 6.76667 91.0316 6.9C91.015 6.98333 90.99 7.075 90.9566 7.175C90.9233 7.25833 90.89 7.34167 90.8566 7.425C90.8566 7.45833 90.8483 7.49167 90.8316 7.525C90.815 7.55833 90.7983 7.59167 90.7816 7.625C90.7316 7.74167 90.69 7.85 90.6566 7.95C90.6233 8.06667 90.59 8.18333 90.5566 8.3C90.5233 8.41667 90.49 8.54167 90.4566 8.675C90.4233 8.79167 90.39 8.93333 90.3566 9.1C90.3233 9.26667 90.29 9.43333 90.2566 9.6C90.2233 9.76667 90.19 9.93333 90.1566 10.1C90.14 10.1667 90.1233 10.2333 90.1066 10.3C90.1066 10.35 90.1066 10.4167 90.1066 10.5C90.1066 10.5667 90.1066 10.6417 90.1066 10.725C90.1066 10.8083 90.09 10.8917 90.0566 10.975C90.0566 11.025 90.0483 11.0833 90.0316 11.15C90.0316 11.2 90.0316 11.25 90.0316 11.3C90.0316 11.35 90.0316 11.4 90.0316 11.45C90.0483 11.5 90.0566 11.5667 90.0566 11.65C90.04 11.7667 90.04 11.9083 90.0566 12.075C90.0733 12.225 90.09 12.375 90.1066 12.525L90.1566 12.725C90.19 12.825 90.2316 12.9333 90.2816 13.05C90.3316 13.15 90.39 13.2417 90.4566 13.325C90.6233 13.5083 90.7816 13.6583 90.9316 13.775C91.0816 13.8917 91.1816 13.9667 91.2316 14C91.2983 14.0167 91.4316 14.025 91.6316 14.025C91.7816 14.025 91.9316 14.05 92.0816 14.1C92.1483 14.1167 92.2316 14.1583 92.3316 14.225ZM104.474 18.25C104.374 18.25 104.307 18.2417 104.274 18.225C104.207 18.1917 104.149 18.1667 104.099 18.15C104.049 18.1333 103.999 18.1167 103.949 18.1C103.899 18.0667 103.849 18.0333 103.799 18C103.765 17.95 103.732 17.9 103.699 17.85C103.665 17.8167 103.632 17.8 103.599 17.8C103.499 17.8 103.449 17.75 103.449 17.65C103.432 17.55 103.415 17.45 103.399 17.35C103.382 17.25 103.365 17.15 103.349 17.05C103.332 16.9 103.315 16.75 103.299 16.6C103.299 16.45 103.282 16.3083 103.249 16.175V15.95C103.249 15.8833 103.24 15.825 103.224 15.775C103.224 15.725 103.224 15.6667 103.224 15.6C103.19 15.5167 103.19 15.45 103.224 15.4C103.257 15.1 103.257 14.8 103.224 14.5C103.207 14.4167 103.199 14.3333 103.199 14.25C103.199 14.1667 103.19 14.0833 103.174 14C103.174 13.8333 103.174 13.6667 103.174 13.5C103.174 13.3167 103.157 13.1417 103.124 12.975V12.575C103.124 12.4417 103.115 12.3167 103.099 12.2C103.099 12.0833 103.09 11.9667 103.074 11.85C103.057 11.7 103.04 11.55 103.024 11.4C103.024 11.25 103.015 11.1 102.999 10.95C102.982 10.9167 102.974 10.8583 102.974 10.775C102.957 10.6917 102.94 10.6083 102.924 10.525C102.924 10.425 102.924 10.3333 102.924 10.25L102.849 9C102.832 8.86667 102.815 8.74167 102.799 8.625C102.799 8.49167 102.799 8.36667 102.799 8.25C102.782 8.05 102.765 7.85 102.749 7.65C102.732 7.45 102.715 7.25833 102.699 7.075C102.699 7.04167 102.69 7.00833 102.674 6.975C102.674 6.94167 102.674 6.91667 102.674 6.9C102.674 6.7 102.665 6.5 102.649 6.3C102.632 6.1 102.615 5.89167 102.599 5.675L102.524 4.975C102.474 4.70833 102.465 4.41667 102.499 4.1C102.499 3.95 102.557 3.825 102.674 3.725C102.707 3.69167 102.732 3.675 102.749 3.675C102.765 3.65833 102.782 3.64167 102.799 3.625C102.882 3.60833 102.924 3.55 102.924 3.45C102.924 3.41667 102.957 3.4 103.024 3.4H103.149C103.165 3.4 103.174 3.4 103.174 3.4C103.19 3.38333 103.207 3.375 103.224 3.375C103.257 3.35833 103.282 3.34167 103.299 3.325C103.332 3.29167 103.357 3.275 103.374 3.275C103.407 3.275 103.44 3.28333 103.474 3.3C103.507 3.3 103.54 3.30833 103.574 3.325C103.607 3.325 103.632 3.31667 103.649 3.3C103.732 3.28333 103.815 3.29167 103.899 3.325C103.999 3.34167 104.082 3.36667 104.149 3.4C104.249 3.41667 104.324 3.48333 104.374 3.6C104.424 3.75 104.465 3.9 104.499 4.05C104.549 4.18333 104.582 4.325 104.599 4.475V4.675C104.632 4.79167 104.649 4.91667 104.649 5.05C104.649 5.16667 104.649 5.29167 104.649 5.425C104.649 5.54167 104.649 5.65833 104.649 5.775C104.665 5.875 104.682 5.975 104.699 6.075C104.699 6.125 104.699 6.175 104.699 6.225C104.699 6.275 104.707 6.325 104.724 6.375C104.724 6.475 104.724 6.575 104.724 6.675C104.74 6.775 104.757 6.88333 104.774 7C104.79 7.18333 104.807 7.375 104.824 7.575C104.84 7.775 104.849 7.975 104.849 8.175C104.849 8.25833 104.849 8.35 104.849 8.45C104.849 8.53333 104.857 8.61667 104.874 8.7C104.89 8.75 104.899 8.8 104.899 8.85C104.899 8.9 104.899 8.95 104.899 9V9.5C104.899 9.6 104.907 9.68333 104.924 9.75C104.957 9.86667 104.965 9.98333 104.949 10.1C104.949 10.2 104.957 10.3083 104.974 10.425L105.049 11.575C105.065 11.7417 105.074 11.9167 105.074 12.1C105.09 12.2667 105.099 12.4417 105.099 12.625C105.099 12.6917 105.099 12.7667 105.099 12.85C105.099 12.9167 105.107 12.9833 105.124 13.05C105.14 13.1 105.149 13.15 105.149 13.2C105.149 13.25 105.149 13.3 105.149 13.35C105.165 13.3667 105.165 13.4 105.149 13.45C105.149 13.4833 105.157 13.5167 105.174 13.55C105.207 13.6667 105.224 13.7833 105.224 13.9C105.224 14.0167 105.224 14.1417 105.224 14.275C105.224 14.3417 105.224 14.4167 105.224 14.5C105.24 14.5667 105.249 14.6417 105.249 14.725C105.265 14.8083 105.274 14.9 105.274 15C105.274 15.1 105.274 15.1917 105.274 15.275C105.29 15.3583 105.299 15.45 105.299 15.55C105.299 15.6333 105.307 15.7167 105.324 15.8C105.34 15.8333 105.349 15.8667 105.349 15.9C105.349 16.0833 105.365 16.2667 105.399 16.45C105.432 16.6333 105.465 16.8167 105.499 17C105.515 17.05 105.524 17.1083 105.524 17.175C105.524 17.225 105.524 17.275 105.524 17.325C105.524 17.375 105.507 17.4167 105.474 17.45C105.407 17.5 105.357 17.6 105.324 17.75C105.324 17.8 105.299 17.8417 105.249 17.875C105.132 17.925 105.032 17.9917 104.949 18.075C104.815 18.1917 104.657 18.25 104.474 18.25ZM110.331 18.075C110.197 18.125 110.047 18.1083 109.881 18.025L109.381 17.8C109.297 17.7667 109.231 17.6917 109.181 17.575L109.106 17.425C109.072 17.3417 109.031 17.2833 108.981 17.25C108.897 17.1833 108.839 17.0667 108.806 16.9C108.772 16.7333 108.747 16.5667 108.731 16.4C108.714 16.2333 108.697 16.0667 108.681 15.9C108.664 15.7667 108.656 15.6333 108.656 15.5C108.656 15.3667 108.656 15.2417 108.656 15.125L108.681 14.95C108.714 14.8667 108.731 14.7833 108.731 14.7C108.731 14.6167 108.731 14.5417 108.731 14.475V9.925C108.764 9.69167 108.781 9.45833 108.781 9.225C108.781 8.975 108.781 8.73333 108.781 8.5C108.797 8.26667 108.806 8.04167 108.806 7.825C108.806 7.59167 108.789 7.36667 108.756 7.15C108.739 7.06667 108.731 6.975 108.731 6.875C108.731 6.775 108.731 6.675 108.731 6.575C108.731 6.425 108.731 6.275 108.731 6.125C108.731 5.975 108.714 5.825 108.681 5.675V5.6C108.681 5.36667 108.664 5.14167 108.631 4.925C108.614 4.69167 108.597 4.46667 108.581 4.25C108.564 4.11667 108.547 3.99167 108.531 3.875C108.514 3.75833 108.489 3.64167 108.456 3.525C108.439 3.45833 108.431 3.39167 108.431 3.325C108.431 3.25833 108.431 3.19167 108.431 3.125C108.431 3.00833 108.447 2.9 108.481 2.8C108.514 2.68333 108.547 2.575 108.581 2.475C108.597 2.44167 108.639 2.39167 108.706 2.325C108.739 2.29167 108.772 2.26667 108.806 2.25C108.839 2.23333 108.864 2.21667 108.881 2.2C108.981 2.06667 109.114 2.00833 109.281 2.025C109.314 2.04167 109.364 2.03333 109.431 2C109.514 1.93333 109.589 1.925 109.656 1.975C109.706 2.00833 109.789 2.00833 109.906 1.975C109.956 1.975 109.997 1.99167 110.031 2.025C110.081 2.09167 110.147 2.14167 110.231 2.175C110.314 2.20833 110.372 2.25833 110.406 2.325C110.456 2.375 110.506 2.425 110.556 2.475C110.589 2.525 110.622 2.575 110.656 2.625C110.706 2.65833 110.731 2.70833 110.731 2.775C110.747 2.84167 110.747 2.90833 110.731 2.975C110.731 3.025 110.731 3.08333 110.731 3.15C110.731 3.3 110.739 3.45833 110.756 3.625C110.789 3.775 110.814 3.925 110.831 4.075C110.864 4.24167 110.889 4.41667 110.906 4.6C110.922 4.76667 110.939 4.94167 110.956 5.125V5.375C110.989 5.49167 111.006 5.60833 111.006 5.725C111.006 5.84167 111.014 5.95833 111.031 6.075V6.1C111.047 6.3 111.064 6.5 111.081 6.7C111.097 6.9 111.114 7.1 111.131 7.3C111.147 7.38333 111.156 7.475 111.156 7.575C111.156 7.65833 111.156 7.74167 111.156 7.825V14.475C111.156 14.625 111.164 14.775 111.181 14.925C111.214 15.075 111.239 15.2167 111.256 15.35C111.256 15.4333 111.306 15.475 111.406 15.475C111.556 15.5083 111.697 15.5083 111.831 15.475C112.014 15.4417 112.189 15.425 112.356 15.425C112.539 15.425 112.722 15.425 112.906 15.425C113.089 15.425 113.264 15.425 113.431 15.425C113.614 15.4083 113.789 15.3917 113.956 15.375H114.231C114.364 15.3917 114.481 15.4083 114.581 15.425C114.697 15.425 114.814 15.425 114.931 15.425C115.114 15.425 115.297 15.4333 115.481 15.45C115.681 15.45 115.872 15.4583 116.056 15.475C116.189 15.4917 116.322 15.5 116.456 15.5C116.606 15.5 116.756 15.5 116.906 15.5H117.031C117.364 15.4833 117.664 15.5667 117.931 15.75C118.047 15.8 118.131 15.8833 118.181 16C118.214 16.0667 118.239 16.1333 118.256 16.2C118.289 16.25 118.314 16.3167 118.331 16.4C118.347 16.4667 118.356 16.5333 118.356 16.6C118.372 16.65 118.389 16.7083 118.406 16.775C118.456 16.925 118.439 17.0917 118.356 17.275C118.339 17.325 118.322 17.375 118.306 17.425C118.289 17.475 118.264 17.525 118.231 17.575C118.197 17.625 118.156 17.6667 118.106 17.7C118.106 17.7 118.072 17.7167 118.006 17.75C117.872 17.8667 117.722 17.9417 117.556 17.975C117.406 18.0083 117.239 18.0417 117.056 18.075L116.806 18.05C116.556 17.9667 116.306 17.9167 116.056 17.9C115.989 17.8833 115.914 17.875 115.831 17.875C115.747 17.8583 115.664 17.85 115.581 17.85C115.464 17.85 115.347 17.85 115.231 17.85C115.114 17.8333 114.989 17.8167 114.856 17.8L114.606 17.775C114.456 17.7917 114.306 17.8 114.156 17.8C114.006 17.7833 113.856 17.7833 113.706 17.8C113.639 17.8 113.572 17.8 113.506 17.8C113.439 17.7833 113.372 17.775 113.306 17.775C113.172 17.775 113.039 17.775 112.906 17.775C112.789 17.775 112.664 17.7917 112.531 17.825C112.464 17.8417 112.381 17.8583 112.281 17.875C112.197 17.875 112.114 17.875 112.031 17.875C111.781 17.8917 111.531 17.9167 111.281 17.95C111.031 17.9667 110.789 18 110.556 18.05C110.506 18.0667 110.431 18.075 110.331 18.075ZM122.062 18.25C121.928 18.2333 121.795 18.2 121.662 18.15C121.528 18.1167 121.412 18.0583 121.312 17.975C121.295 17.9417 121.27 17.9167 121.237 17.9C121.203 17.8667 121.178 17.8417 121.162 17.825C121.095 17.725 121.037 17.6167 120.987 17.5C120.937 17.3833 120.903 17.2667 120.887 17.15C120.87 16.9 120.895 16.65 120.962 16.4C121.045 16.1333 121.103 15.8667 121.137 15.6C121.17 15.3167 121.187 15.0333 121.187 14.75C121.203 14.4167 121.212 14.0833 121.212 13.75C121.212 13.4167 121.212 13.0917 121.212 12.775C121.212 12.6917 121.203 12.6083 121.187 12.525C121.187 12.425 121.178 12.3333 121.162 12.25C121.145 12.1667 121.137 12.075 121.137 11.975C121.137 11.875 121.137 11.7833 121.137 11.7C121.137 11.6167 121.128 11.5333 121.112 11.45C121.112 11.35 121.103 11.2583 121.087 11.175C121.07 11.1083 121.062 11.0417 121.062 10.975C121.078 10.9083 121.078 10.8417 121.062 10.775C121.062 10.6583 121.062 10.5417 121.062 10.425C121.062 10.3083 121.053 10.1917 121.037 10.075C121.02 10.0583 121.012 10.025 121.012 9.975V8.625C120.995 8.54167 120.987 8.46667 120.987 8.4C120.987 8.31667 120.987 8.23333 120.987 8.15C121.003 8.1 121.012 8.025 121.012 7.925V7.625C121.012 7.525 121.003 7.43333 120.987 7.35C120.987 7.25 120.995 7.15 121.012 7.05V6.925C120.995 6.79167 120.987 6.66667 120.987 6.55C121.003 6.41667 121.02 6.29167 121.037 6.175C121.053 6.10833 121.062 6 121.062 5.85C121.028 5.75 121.012 5.675 121.012 5.625C120.995 5.54167 120.978 5.46667 120.962 5.4C120.962 5.31667 120.97 5.24167 120.987 5.175C121.003 5.025 120.97 4.86667 120.887 4.7C120.837 4.63333 120.795 4.56667 120.762 4.5C120.745 4.41667 120.72 4.34167 120.687 4.275V4.2C120.72 4.16667 120.753 4.16667 120.787 4.2C120.837 4.21667 120.862 4.20833 120.862 4.175C120.878 4.14167 120.887 4.10833 120.887 4.075C120.887 4.025 120.895 3.99167 120.912 3.975C120.928 3.925 120.92 3.85833 120.887 3.775C120.87 3.725 120.895 3.69167 120.962 3.675C120.995 3.60833 121.053 3.56667 121.137 3.55C121.22 3.51667 121.27 3.49167 121.287 3.475C121.337 3.40833 121.395 3.375 121.462 3.375C121.528 3.375 121.595 3.375 121.662 3.375C121.712 3.375 121.787 3.35833 121.887 3.325C121.953 3.30833 122.02 3.30833 122.087 3.325C122.12 3.34167 122.153 3.36667 122.187 3.4C122.22 3.41667 122.253 3.43333 122.287 3.45C122.453 3.51667 122.595 3.65 122.712 3.85C122.745 3.93333 122.778 4.01667 122.812 4.1C122.845 4.18333 122.853 4.275 122.837 4.375C122.837 4.425 122.87 4.45 122.937 4.45H123.137C123.22 4.41667 123.303 4.4 123.387 4.4C123.487 4.4 123.57 4.4 123.637 4.4H124.287C124.47 4.38333 124.653 4.39167 124.837 4.425C125.037 4.44167 125.228 4.46667 125.412 4.5C125.962 4.56667 126.487 4.69167 126.987 4.875C127.537 5.04167 128.053 5.31667 128.537 5.7C128.72 5.83333 128.92 6.025 129.137 6.275C129.203 6.34167 129.262 6.41667 129.312 6.5C129.378 6.56667 129.437 6.64167 129.487 6.725C129.67 7.00833 129.762 7.3 129.762 7.6C129.795 7.8 129.795 7.99167 129.762 8.175C129.762 8.325 129.728 8.45833 129.662 8.575C129.662 8.575 129.653 8.58333 129.637 8.6C129.637 8.6 129.637 8.60833 129.637 8.625C129.603 8.675 129.578 8.73333 129.562 8.8C129.562 8.86667 129.537 8.91667 129.487 8.95L129.262 9.225C129.178 9.325 129.087 9.43333 128.987 9.55C128.903 9.65 128.803 9.74167 128.687 9.825L128.437 10C128.387 10.0167 128.337 10.0417 128.287 10.075C128.237 10.1083 128.195 10.15 128.162 10.2C128.112 10.25 128.053 10.2917 127.987 10.325C127.92 10.375 127.845 10.425 127.762 10.475C127.695 10.5083 127.62 10.5417 127.537 10.575C127.453 10.6083 127.453 10.65 127.537 10.7L127.712 10.775C127.795 10.825 127.887 10.875 127.987 10.925C128.087 10.9583 128.178 11 128.262 11.05C128.395 11.1167 128.528 11.2 128.662 11.3C128.812 11.3833 128.945 11.4667 129.062 11.55L129.362 11.825C129.445 11.9083 129.52 12 129.587 12.1C129.67 12.1833 129.745 12.275 129.812 12.375C129.945 12.5417 130.053 12.725 130.137 12.925C130.237 13.125 130.303 13.3333 130.337 13.55C130.37 13.6667 130.387 13.7917 130.387 13.925C130.387 14.0417 130.37 14.1667 130.337 14.3C130.303 14.4333 130.312 14.5583 130.362 14.675C130.378 14.725 130.37 14.8083 130.337 14.925L130.262 15.25C130.228 15.35 130.187 15.4417 130.137 15.525C130.103 15.6083 130.045 15.6917 129.962 15.775L129.662 16.175C129.562 16.2917 129.453 16.4083 129.337 16.525C129.237 16.6417 129.12 16.7417 128.987 16.825L128.762 16.975C128.728 16.975 128.678 16.9917 128.612 17.025C127.878 17.4083 127.12 17.6083 126.337 17.625C126.253 17.625 126.187 17.6333 126.137 17.65C125.987 17.6667 125.828 17.6833 125.662 17.7C125.512 17.7 125.353 17.7 125.187 17.7C125.053 17.7 124.912 17.7167 124.762 17.75C124.628 17.7667 124.495 17.775 124.362 17.775C124.295 17.7917 124.228 17.8083 124.162 17.825C124.095 17.825 124.028 17.825 123.962 17.825C123.878 17.8417 123.787 17.8583 123.687 17.875C123.603 17.8917 123.52 17.9167 123.437 17.95C123.387 17.9667 123.337 17.9833 123.287 18C123.253 18.0167 123.212 18.0417 123.162 18.075C122.995 18.1917 122.803 18.25 122.587 18.25H122.062ZM123.162 9.925C123.228 9.925 123.287 9.91667 123.337 9.9C123.403 9.88333 123.462 9.86667 123.512 9.85C123.728 9.76667 123.937 9.69167 124.137 9.625C124.337 9.54167 124.545 9.46667 124.762 9.4C125.012 9.31667 125.262 9.225 125.512 9.125C125.762 9.00833 126.012 8.9 126.262 8.8C126.462 8.71667 126.653 8.60833 126.837 8.475C127.037 8.34167 127.22 8.20833 127.387 8.075C127.42 8.05833 127.445 8.04167 127.462 8.025C127.478 7.99167 127.495 7.96667 127.512 7.95C127.545 7.9 127.545 7.85 127.512 7.8L127.437 7.675C127.37 7.625 127.312 7.575 127.262 7.525C127.212 7.475 127.145 7.425 127.062 7.375C126.995 7.34167 126.928 7.3 126.862 7.25C126.795 7.2 126.72 7.15833 126.637 7.125L126.412 6.975C126.162 6.875 125.912 6.79167 125.662 6.725C125.412 6.65833 125.153 6.625 124.887 6.625H124.037C123.903 6.625 123.77 6.63333 123.637 6.65C123.503 6.66667 123.37 6.69167 123.237 6.725C123.187 6.725 123.112 6.74167 123.012 6.775C122.912 6.79167 122.862 6.85 122.862 6.95V7.525C122.895 7.69167 122.895 7.86667 122.862 8.05V8.275C122.895 8.375 122.912 8.48333 122.912 8.6C122.912 8.7 122.912 8.80833 122.912 8.925C122.928 9.225 122.978 9.54167 123.062 9.875C123.062 9.90833 123.095 9.925 123.162 9.925ZM123.362 15.7H123.462C123.578 15.6833 123.695 15.675 123.812 15.675C123.928 15.6583 124.045 15.6417 124.162 15.625C124.362 15.5917 124.562 15.5583 124.762 15.525C124.978 15.4917 125.187 15.4667 125.387 15.45C125.77 15.4167 126.145 15.3667 126.512 15.3C126.662 15.2667 126.803 15.2333 126.937 15.2C127.087 15.1667 127.228 15.1333 127.362 15.1C127.445 15.0667 127.52 15.0333 127.587 15C127.67 14.95 127.745 14.9083 127.812 14.875C128.045 14.7083 128.178 14.4583 128.212 14.125C128.228 13.8083 128.112 13.55 127.862 13.35C127.828 13.3167 127.762 13.2667 127.662 13.2C127.395 13.0167 127.112 12.8667 126.812 12.75C126.512 12.6333 126.203 12.5417 125.887 12.475C125.737 12.4417 125.587 12.4167 125.437 12.4C125.303 12.3667 125.162 12.3583 125.012 12.375C124.945 12.375 124.87 12.3833 124.787 12.4C124.72 12.4 124.653 12.4 124.587 12.4C124.52 12.4 124.453 12.4083 124.387 12.425C124.32 12.425 124.245 12.425 124.162 12.425C124.078 12.425 123.987 12.425 123.887 12.425C123.803 12.425 123.72 12.4333 123.637 12.45H123.412C123.328 12.4833 123.287 12.5333 123.287 12.6C123.303 12.7333 123.312 12.875 123.312 13.025C123.312 13.175 123.312 13.3167 123.312 13.45C123.312 13.4833 123.312 13.5167 123.312 13.55C123.328 13.5833 123.337 13.6167 123.337 13.65V14.175C123.32 14.275 123.312 14.375 123.312 14.475C123.312 14.575 123.312 14.6667 123.312 14.75C123.312 14.8667 123.312 14.9833 123.312 15.1C123.328 15.2 123.32 15.3083 123.287 15.425C123.27 15.4583 123.262 15.5167 123.262 15.6C123.262 15.6333 123.295 15.6667 123.362 15.7ZM135.671 18.175C135.571 18.175 135.505 18.1667 135.471 18.15C135.388 18.1167 135.305 18.1 135.221 18.1C135.155 18.1167 135.08 18.125 134.996 18.125C134.98 18.125 134.963 18.125 134.946 18.125C134.93 18.1417 134.913 18.15 134.896 18.15C134.78 18.1667 134.663 18.175 134.546 18.175C134.446 18.175 134.346 18.1583 134.246 18.125C134.23 18.1083 134.213 18.1 134.196 18.1C134.08 18.1167 133.98 18.0833 133.896 18C133.813 17.9167 133.73 17.8417 133.646 17.775C133.563 17.6917 133.521 17.6 133.521 17.5L133.446 17.3C133.396 17.1833 133.38 17.075 133.396 16.975C133.413 16.9417 133.413 16.9083 133.396 16.875C133.396 16.8417 133.396 16.8083 133.396 16.775C133.38 16.7417 133.371 16.7083 133.371 16.675C133.371 16.625 133.363 16.5833 133.346 16.55C133.313 16.4 133.288 16.25 133.271 16.1C133.271 15.9333 133.28 15.775 133.296 15.625C133.313 15.525 133.371 15.3583 133.471 15.125C133.571 14.875 133.63 14.725 133.646 14.675C133.696 14.5917 133.721 14.525 133.721 14.475C133.705 14.2917 133.696 14.1083 133.696 13.925C133.713 13.725 133.721 13.5333 133.721 13.35C133.721 13.2333 133.746 13.1417 133.796 13.075C133.863 12.9583 133.871 12.8333 133.821 12.7L133.746 12.425C133.646 12.2417 133.655 12.0833 133.771 11.95C133.771 11.9333 133.771 11.925 133.771 11.925C133.788 11.9083 133.796 11.8917 133.796 11.875C133.83 11.8417 133.838 11.8 133.821 11.75C133.805 11.6833 133.796 11.6333 133.796 11.6C133.796 11.5333 133.805 11.4667 133.821 11.4C133.855 11.3167 133.863 11.2417 133.846 11.175C133.846 11.175 133.83 11.1583 133.796 11.125C133.78 11.0917 133.771 11.025 133.771 10.925C133.788 10.825 133.796 10.7667 133.796 10.75V10.05C133.813 9.96667 133.821 9.89167 133.821 9.825C133.821 9.74167 133.83 9.65833 133.846 9.575C133.863 9.475 133.863 9.375 133.846 9.275C133.846 9.15833 133.846 9.04167 133.846 8.925C133.83 8.84167 133.813 8.75 133.796 8.65C133.796 8.55 133.796 8.45 133.796 8.35C133.78 8.31667 133.771 8.275 133.771 8.225C133.771 8.175 133.771 8.13333 133.771 8.1C133.755 8.01667 133.738 7.93333 133.721 7.85C133.721 7.76667 133.721 7.68333 133.721 7.6C133.721 7.56667 133.688 7.45833 133.621 7.275C133.555 7.075 133.53 6.90833 133.546 6.775C133.563 6.74167 133.571 6.7 133.571 6.65C133.571 6.6 133.555 6.55833 133.521 6.525C133.488 6.50833 133.471 6.475 133.471 6.425V6.35C133.521 6.15 133.496 5.95 133.396 5.75C133.33 5.65 133.305 5.55 133.321 5.45C133.321 5.31667 133.263 5.21667 133.146 5.15C133.063 5.06667 132.988 4.96667 132.921 4.85C132.855 4.73333 132.813 4.61667 132.796 4.5C132.78 4.41667 132.771 4.33333 132.771 4.25C132.771 4.16667 132.771 4.09167 132.771 4.025C132.771 3.95833 132.78 3.91667 132.796 3.9C132.863 3.83333 132.896 3.75833 132.896 3.675C132.896 3.575 132.905 3.5 132.921 3.45C132.938 3.43333 132.955 3.425 132.971 3.425C132.988 3.425 133.005 3.41667 133.021 3.4C133.088 3.38333 133.121 3.325 133.121 3.225C133.088 3.15833 133.071 3.1 133.071 3.05C133.055 2.98333 133.08 2.925 133.146 2.875C133.18 2.80833 133.221 2.79167 133.271 2.825C133.388 2.875 133.521 2.85833 133.671 2.775C133.738 2.74167 133.78 2.725 133.796 2.725C133.846 2.725 133.871 2.725 133.871 2.725C133.888 2.70833 133.938 2.7 134.021 2.7C134.121 2.71667 134.213 2.68333 134.296 2.6C134.413 2.48333 134.555 2.425 134.721 2.425H136.271C136.655 2.44167 137.038 2.44167 137.421 2.425C137.805 2.40833 138.18 2.4 138.546 2.4C138.63 2.4 138.696 2.4 138.746 2.4C138.813 2.38333 138.88 2.36667 138.946 2.35C139.046 2.3 139.163 2.275 139.296 2.275H139.871C140.005 2.275 140.121 2.275 140.221 2.275C140.338 2.25833 140.455 2.24167 140.571 2.225C140.638 2.20833 140.696 2.2 140.746 2.2C140.813 2.2 140.88 2.2 140.946 2.2C141.013 2.2 141.08 2.2 141.146 2.2C141.213 2.2 141.28 2.19167 141.346 2.175C141.48 2.15833 141.621 2.15 141.771 2.15C141.921 2.13333 142.063 2.125 142.196 2.125C142.263 2.125 142.321 2.125 142.371 2.125C142.438 2.10833 142.505 2.09167 142.571 2.075C142.705 2.04167 142.83 2.025 142.946 2.025C143.08 2.00833 143.205 1.99167 143.321 1.975C143.455 1.95833 143.58 1.94167 143.696 1.925C143.83 1.90833 143.955 1.89167 144.071 1.875C144.221 1.875 144.33 1.89167 144.396 1.925C144.496 1.99167 144.588 2.05 144.671 2.1C144.771 2.15 144.863 2.21667 144.946 2.3C145.013 2.36667 145.055 2.425 145.071 2.475C145.088 2.54167 145.105 2.60833 145.121 2.675C145.138 2.74167 145.155 2.81667 145.171 2.9V3.075C145.155 3.15833 145.138 3.25 145.121 3.35C145.121 3.43333 145.113 3.525 145.096 3.625C145.063 3.69167 145.021 3.75 144.971 3.8L144.521 4.25C144.355 4.3 144.188 4.33333 144.021 4.35C143.871 4.36667 143.713 4.36667 143.546 4.35H143.371C143.288 4.36667 143.205 4.375 143.121 4.375C143.038 4.375 142.955 4.36667 142.871 4.35C142.771 4.33333 142.671 4.33333 142.571 4.35C142.471 4.35 142.371 4.35 142.271 4.35C142.205 4.35 142.138 4.35833 142.071 4.375C142.021 4.375 141.963 4.36667 141.896 4.35C141.813 4.33333 141.73 4.33333 141.646 4.35C141.58 4.35 141.505 4.35833 141.421 4.375C141.355 4.375 141.28 4.38333 141.196 4.4C141.13 4.4 141.055 4.4 140.971 4.4C140.755 4.43333 140.521 4.45 140.271 4.45C140.038 4.45 139.805 4.46667 139.571 4.5C139.421 4.48333 139.28 4.49167 139.146 4.525C139.013 4.54167 138.871 4.55833 138.721 4.575C138.588 4.59167 138.446 4.6 138.296 4.6C138.146 4.6 138.005 4.61667 137.871 4.65C137.705 4.65 137.538 4.675 137.371 4.725C137.221 4.75833 137.063 4.78333 136.896 4.8L136.721 4.825C136.605 4.825 136.496 4.84167 136.396 4.875C136.296 4.89167 136.188 4.91667 136.071 4.95C136.005 4.96667 135.938 4.98333 135.871 5C135.805 5 135.73 5.00833 135.646 5.025C135.596 5.025 135.538 5.04167 135.471 5.075C135.421 5.09167 135.396 5.14167 135.396 5.225L135.471 5.45C135.488 5.48333 135.48 5.56667 135.446 5.7C135.43 5.83333 135.413 5.93333 135.396 6C135.396 6.05 135.405 6.1 135.421 6.15C135.438 6.2 135.455 6.25 135.471 6.3C135.521 6.43333 135.546 6.58333 135.546 6.75C135.546 6.9 135.563 7.04167 135.596 7.175C135.613 7.24167 135.621 7.31667 135.621 7.4C135.621 7.46667 135.63 7.54167 135.646 7.625C135.646 7.65833 135.646 7.7 135.646 7.75C135.663 7.78333 135.671 7.825 135.671 7.875C135.671 7.925 135.663 7.95833 135.646 7.975C135.596 8.04167 135.571 8.11667 135.571 8.2C135.571 8.28333 135.571 8.36667 135.571 8.45C135.655 8.61667 135.696 8.78333 135.696 8.95C135.696 9.11667 135.696 9.28333 135.696 9.45C135.696 9.5 135.738 9.51667 135.821 9.5H135.846C135.88 9.43333 135.913 9.38333 135.946 9.35C135.996 9.35 136.055 9.33333 136.121 9.3C136.171 9.26667 136.238 9.25 136.321 9.25C136.455 9.26667 136.58 9.26667 136.696 9.25C136.813 9.21667 136.93 9.18333 137.046 9.15C137.83 8.95 138.563 8.69167 139.246 8.375C139.43 8.29167 139.621 8.225 139.821 8.175C140.021 8.10833 140.221 8.06667 140.421 8.05H140.496C140.646 8.03333 140.796 8.01667 140.946 8C141.096 7.98333 141.246 7.975 141.396 7.975C141.596 7.95833 141.788 7.93333 141.971 7.9C142.171 7.86667 142.371 7.84167 142.571 7.825C142.688 7.79167 142.796 7.76667 142.896 7.75C142.996 7.71667 143.105 7.675 143.221 7.625C143.438 7.54167 143.638 7.5 143.821 7.5C143.955 7.51667 144.08 7.55 144.196 7.6C144.313 7.63333 144.43 7.68333 144.546 7.75C144.796 7.91667 144.921 8.16667 144.921 8.5C144.921 8.63333 144.905 8.76667 144.871 8.9C144.855 9.03333 144.846 9.16667 144.846 9.3C144.846 9.33333 144.83 9.36667 144.796 9.4L144.721 9.525C144.705 9.59167 144.688 9.65833 144.671 9.725C144.655 9.79167 144.613 9.84167 144.546 9.875C144.446 9.95833 144.338 10.05 144.221 10.15C144.121 10.2333 144.005 10.2917 143.871 10.325C143.805 10.3417 143.738 10.3583 143.671 10.375C143.621 10.3917 143.563 10.4 143.496 10.4C143.23 10.4 142.955 10.4167 142.671 10.45C142.405 10.4833 142.13 10.5167 141.846 10.55C141.63 10.5667 141.413 10.5917 141.196 10.625C140.996 10.6583 140.788 10.675 140.571 10.675C140.371 10.675 140.146 10.7167 139.896 10.8C139.73 10.8333 139.555 10.8667 139.371 10.9C139.188 10.9333 139.005 10.9583 138.821 10.975C138.688 10.9917 138.546 11.0167 138.396 11.05C138.263 11.0667 138.13 11.0833 137.996 11.1L137.571 11.175C137.538 11.1917 137.488 11.2 137.421 11.2C137.305 11.2333 137.188 11.2583 137.071 11.275C136.955 11.2917 136.838 11.3167 136.721 11.35C136.605 11.3667 136.488 11.3917 136.371 11.425C136.271 11.4583 136.163 11.4917 136.046 11.525C135.963 11.5417 135.896 11.575 135.846 11.625C135.796 11.6583 135.755 11.7083 135.721 11.775C135.705 11.825 135.705 11.875 135.721 11.925C135.738 11.9917 135.73 12.0583 135.696 12.125C135.713 12.2917 135.721 12.4583 135.721 12.625C135.738 12.7917 135.738 12.9583 135.721 13.125C135.755 13.2583 135.763 13.3917 135.746 13.525C135.746 13.6583 135.738 13.7917 135.721 13.925C135.688 14.125 135.696 14.2917 135.746 14.425C135.796 14.6417 135.78 14.8667 135.696 15.1C135.663 15.2 135.663 15.2667 135.696 15.3C135.73 15.35 135.73 15.4083 135.696 15.475V15.625C135.68 15.7583 135.738 15.825 135.871 15.825H135.921C136.038 15.825 136.155 15.8667 136.271 15.95C136.355 16.0333 136.455 16.0583 136.571 16.025L137.271 15.95C137.371 15.9333 137.471 15.925 137.571 15.925C137.671 15.9083 137.771 15.9 137.871 15.9C137.905 15.8833 137.955 15.8917 138.021 15.925C138.105 15.975 138.18 15.9833 138.246 15.95C138.28 15.9167 138.321 15.8917 138.371 15.875C138.438 15.8583 138.488 15.8333 138.521 15.8C138.621 15.7 138.746 15.6667 138.896 15.7C139.03 15.7333 139.138 15.725 139.221 15.675C139.371 15.625 139.513 15.6083 139.646 15.625C139.73 15.6417 139.813 15.6333 139.896 15.6C139.98 15.5667 140.063 15.55 140.146 15.55C140.18 15.55 140.205 15.5583 140.221 15.575C140.238 15.575 140.255 15.5667 140.271 15.55C140.305 15.55 140.338 15.5417 140.371 15.525C140.405 15.5083 140.43 15.5 140.446 15.5C140.563 15.45 140.671 15.4333 140.771 15.45C140.855 15.45 140.896 15.45 140.896 15.45C140.963 15.4333 141.021 15.4333 141.071 15.45C141.138 15.4667 141.196 15.4917 141.246 15.525C141.33 15.5417 141.396 15.5667 141.446 15.6C141.513 15.6333 141.58 15.6583 141.646 15.675C141.68 15.675 141.705 15.6833 141.721 15.7C141.805 15.7667 141.905 15.825 142.021 15.875C142.155 15.925 142.23 15.9833 142.246 16.05C142.28 16.15 142.296 16.25 142.296 16.35C142.296 16.4333 142.305 16.525 142.321 16.625C142.321 16.675 142.313 16.725 142.296 16.775C142.296 16.825 142.288 16.875 142.271 16.925C142.238 16.9917 142.196 17.0667 142.146 17.15C142.113 17.2333 142.063 17.3083 141.996 17.375C141.963 17.4083 141.93 17.4417 141.896 17.475C141.88 17.5083 141.855 17.5417 141.821 17.575C141.755 17.6417 141.68 17.7 141.596 17.75C141.513 17.8 141.421 17.825 141.321 17.825C141.255 17.825 141.205 17.8333 141.171 17.85C141.105 17.8833 141.038 17.9 140.971 17.9C140.905 17.9 140.83 17.9 140.746 17.9C140.63 17.9167 140.513 17.9333 140.396 17.95C140.296 17.95 140.188 17.9417 140.071 17.925C140.005 17.9083 139.946 17.9083 139.896 17.925C139.73 17.975 139.563 17.9833 139.396 17.95C139.23 17.95 139.063 17.9583 138.896 17.975C138.746 17.975 138.596 17.975 138.446 17.975H138.121C138.071 17.975 138.03 17.9833 137.996 18C137.93 18.0333 137.846 18.05 137.746 18.05C137.663 18.05 137.58 18.0417 137.496 18.025H137.246C137.23 18.025 137.205 18.025 137.171 18.025C137.138 18.0417 137.105 18.0417 137.071 18.025C137.021 18.0083 136.971 18 136.921 18C136.888 18.0167 136.846 18.0333 136.796 18.05C136.763 18.05 136.73 18.05 136.696 18.05C136.68 18.0667 136.655 18.075 136.621 18.075C136.455 18.0583 136.296 18.0583 136.146 18.075C135.996 18.1083 135.838 18.1417 135.671 18.175ZM149.519 18.5C149.203 18.5333 148.944 18.4333 148.744 18.2C148.644 18.1 148.553 17.9917 148.469 17.875C148.386 17.7583 148.319 17.6333 148.269 17.5C148.186 17.2667 148.111 17.0333 148.044 16.8C147.978 16.55 147.919 16.3083 147.869 16.075C147.819 15.8917 147.794 15.7167 147.794 15.55C147.778 15.3667 147.753 15.1917 147.719 15.025C147.703 14.8417 147.694 14.6583 147.694 14.475C147.694 14.375 147.694 14.275 147.694 14.175C147.694 14.0583 147.686 13.95 147.669 13.85C147.653 13.7833 147.644 13.725 147.644 13.675C147.644 13.625 147.644 13.5667 147.644 13.5C147.644 13.2667 147.644 13.0333 147.644 12.8C147.644 12.55 147.636 12.3083 147.619 12.075C147.619 11.9417 147.611 11.825 147.594 11.725C147.578 11.6083 147.544 11.4917 147.494 11.375C147.428 11.1917 147.419 10.9917 147.469 10.775C147.469 10.725 147.478 10.6917 147.494 10.675C147.528 10.5583 147.544 10.4417 147.544 10.325C147.561 10.2083 147.561 10.0917 147.544 9.975C147.528 9.89167 147.519 9.80833 147.519 9.725C147.519 9.64167 147.519 9.56667 147.519 9.5C147.503 9.31667 147.494 9.13333 147.494 8.95C147.511 8.75 147.528 8.55833 147.544 8.375C147.561 8.325 147.569 8.275 147.569 8.225C147.569 8.175 147.569 8.125 147.569 8.075C147.553 7.89167 147.553 7.71667 147.569 7.55C147.603 7.38333 147.628 7.21667 147.644 7.05C147.678 6.85 147.711 6.65833 147.744 6.475C147.778 6.275 147.819 6.075 147.869 5.875C147.903 5.79167 147.919 5.7 147.919 5.6C147.919 5.5 147.919 5.4 147.919 5.3C147.919 5.21667 147.911 5.13333 147.894 5.05C147.894 4.96667 147.894 4.89167 147.894 4.825C147.894 4.775 147.894 4.725 147.894 4.675C147.894 4.625 147.903 4.575 147.919 4.525C147.936 4.475 147.944 4.425 147.944 4.375C147.944 4.325 147.953 4.29167 147.969 4.275C148.019 4.20833 148.061 4.15 148.094 4.1C148.128 4.03333 148.178 3.975 148.244 3.925C148.328 3.875 148.403 3.825 148.469 3.775C148.553 3.725 148.628 3.68333 148.694 3.65C148.778 3.61667 148.844 3.575 148.894 3.525C148.961 3.44167 149.028 3.36667 149.094 3.3C149.178 3.21667 149.244 3.125 149.294 3.025C149.378 2.94167 149.461 2.85 149.544 2.75C149.644 2.63333 149.753 2.54167 149.869 2.475C149.903 2.45833 149.953 2.41667 150.019 2.35C150.219 2.16667 150.453 2.05 150.719 2C150.769 1.98333 150.811 1.975 150.844 1.975C150.894 1.95833 150.944 1.95 150.994 1.95L151.169 1.875C151.303 1.825 151.419 1.85 151.519 1.95C151.553 2 151.594 2.05 151.644 2.1C151.711 2.13333 151.769 2.16667 151.819 2.2C151.953 2.31667 152.078 2.44167 152.194 2.575C152.328 2.70833 152.444 2.85833 152.544 3.025C152.711 3.29167 152.853 3.55833 152.969 3.825C153.103 4.09167 153.228 4.36667 153.344 4.65L153.794 5.725C153.811 5.825 153.853 5.91667 153.919 6C154.053 6.25 154.153 6.50833 154.219 6.775C154.286 7.025 154.353 7.28333 154.419 7.55C154.436 7.58333 154.444 7.61667 154.444 7.65C154.461 7.68333 154.469 7.71667 154.469 7.75C154.503 7.88333 154.528 8.025 154.544 8.175C154.578 8.30833 154.586 8.44167 154.569 8.575C154.586 8.725 154.578 8.875 154.544 9.025C154.528 9.15833 154.503 9.29167 154.469 9.425C154.419 9.59167 154.361 9.75 154.294 9.9C154.228 10.0333 154.153 10.175 154.069 10.325C154.036 10.425 153.978 10.5167 153.894 10.6C153.811 10.6833 153.728 10.7583 153.644 10.825C153.511 10.8917 153.378 10.9917 153.244 11.125C153.211 11.1583 153.169 11.1833 153.119 11.2C153.086 11.2167 153.053 11.2417 153.019 11.275C152.903 11.325 152.778 11.3833 152.644 11.45C152.511 11.5 152.378 11.55 152.244 11.6C152.228 11.6 152.219 11.6167 152.219 11.65C152.219 11.6667 152.228 11.6833 152.244 11.7L152.919 12.175C153.003 12.225 153.078 12.275 153.144 12.325C153.211 12.3583 153.278 12.4 153.344 12.45L153.494 12.525C153.694 12.6417 153.894 12.7667 154.094 12.9C154.294 13.0333 154.486 13.1667 154.669 13.3C155.019 13.5167 155.369 13.7417 155.719 13.975C156.069 14.1917 156.403 14.4333 156.719 14.7C157.003 14.9167 157.253 15.1667 157.469 15.45C157.519 15.5 157.569 15.5583 157.619 15.625C157.669 15.675 157.728 15.7167 157.794 15.75L157.869 15.825C158.136 16.0583 158.286 16.375 158.319 16.775C158.319 16.825 158.311 16.875 158.294 16.925C158.294 16.975 158.294 17.025 158.294 17.075C158.294 17.175 158.261 17.2583 158.194 17.325C158.128 17.3583 158.094 17.4 158.094 17.45C158.044 17.5667 157.969 17.65 157.869 17.7C157.786 17.7333 157.703 17.7833 157.619 17.85C157.586 17.8667 157.528 17.875 157.444 17.875C157.344 17.8583 157.236 17.8417 157.119 17.825C157.019 17.8083 156.919 17.8 156.819 17.8C156.686 17.8 156.544 17.7417 156.394 17.625C156.294 17.5417 156.203 17.4667 156.119 17.4C156.036 17.3167 155.953 17.2167 155.869 17.1C155.653 16.8 155.369 16.525 155.019 16.275C154.853 16.1417 154.694 16.0167 154.544 15.9C154.394 15.7833 154.228 15.675 154.044 15.575C153.928 15.5083 153.811 15.4417 153.694 15.375C153.594 15.2917 153.478 15.2167 153.344 15.15C152.928 14.8667 152.503 14.5917 152.069 14.325C151.636 14.0417 151.203 13.7583 150.769 13.475C150.703 13.425 150.628 13.375 150.544 13.325C150.461 13.275 150.378 13.225 150.294 13.175C150.261 13.1417 150.211 13.1083 150.144 13.075C150.078 13.075 150.044 13.1 150.044 13.15C150.044 13.1667 150.036 13.1833 150.019 13.2C150.019 13.2 150.019 13.2083 150.019 13.225C150.019 13.275 150.019 13.325 150.019 13.375C150.019 13.425 150.028 13.475 150.044 13.525C150.061 13.6583 150.069 13.7917 150.069 13.925C150.069 14.0417 150.069 14.1667 150.069 14.3C150.069 14.4 150.069 14.5 150.069 14.6C150.086 14.6833 150.103 14.775 150.119 14.875C150.119 14.925 150.119 14.9833 150.119 15.05C150.136 15.1 150.144 15.15 150.144 15.2C150.128 15.35 150.136 15.5 150.169 15.65C150.203 15.8 150.228 15.95 150.244 16.1L150.394 16.75C150.411 16.8167 150.428 16.8917 150.444 16.975C150.461 17.0417 150.478 17.1167 150.494 17.2C150.511 17.2667 150.511 17.3333 150.494 17.4C150.494 17.45 150.486 17.5083 150.469 17.575C150.469 17.5917 150.453 17.6167 150.419 17.65C150.336 17.6667 150.278 17.725 150.244 17.825C150.194 17.9417 150.119 18.0417 150.019 18.125C149.936 18.225 149.844 18.3167 149.744 18.4C149.728 18.4167 149.694 18.4333 149.644 18.45C149.594 18.4667 149.553 18.4833 149.519 18.5ZM150.494 9.75H150.544C150.728 9.71667 150.911 9.68333 151.094 9.65C151.294 9.6 151.486 9.54167 151.669 9.475C151.853 9.425 152.011 9.33333 152.144 9.2C152.261 9.08333 152.319 8.95 152.319 8.8C152.336 8.68333 152.336 8.575 152.319 8.475C152.319 8.35833 152.303 8.24167 152.269 8.125C152.203 7.825 152.128 7.53333 152.044 7.25C151.961 6.95 151.861 6.66667 151.744 6.4L151.519 5.8C151.469 5.63333 151.411 5.475 151.344 5.325C151.278 5.15833 151.203 5 151.119 4.85C151.103 4.81667 151.086 4.78333 151.069 4.75C151.053 4.7 151.036 4.65833 151.019 4.625L150.919 4.525C150.869 4.45833 150.811 4.45833 150.744 4.525C150.728 4.525 150.703 4.54167 150.669 4.575C150.553 4.725 150.444 4.88333 150.344 5.05C150.261 5.21667 150.211 5.4 150.194 5.6C150.178 5.66667 150.161 5.73333 150.144 5.8C150.144 5.86667 150.144 5.94167 150.144 6.025V7.1C150.128 7.33333 150.119 7.575 150.119 7.825C150.136 8.075 150.128 8.31667 150.094 8.55C150.078 8.6 150.069 8.65 150.069 8.7C150.086 8.75 150.094 8.8 150.094 8.85C150.111 8.95 150.119 9.05 150.119 9.15C150.119 9.23333 150.119 9.325 150.119 9.425C150.119 9.59167 150.136 9.69167 150.169 9.725C150.219 9.75833 150.328 9.76667 150.494 9.75ZM164.315 17.975C164.282 17.9583 164.232 17.95 164.165 17.95C164.132 17.95 164.099 17.925 164.065 17.875C164.032 17.825 163.999 17.7833 163.965 17.75C163.932 17.7 163.899 17.6417 163.865 17.575C163.815 17.5083 163.774 17.5083 163.74 17.575H163.69C163.69 17.5583 163.682 17.55 163.665 17.55C163.665 17.5333 163.665 17.525 163.665 17.525C163.615 17.2917 163.54 17.075 163.44 16.875C163.39 16.7417 163.34 16.6083 163.29 16.475C163.257 16.325 163.232 16.175 163.215 16.025L163.065 14.925L162.99 14.025V13.975C162.957 13.775 162.94 13.575 162.94 13.375C162.94 13.1583 162.94 12.9417 162.94 12.725C162.924 12.6083 162.915 12.5 162.915 12.4C162.915 12.2833 162.907 12.1667 162.89 12.05C162.874 11.9167 162.857 11.7833 162.84 11.65C162.84 11.5167 162.84 11.3917 162.84 11.275L162.865 9.3V6.625C162.832 6.525 162.782 6.475 162.715 6.475C162.682 6.475 162.64 6.48333 162.59 6.5C162.557 6.5 162.524 6.5 162.49 6.5L161.365 6.8C161.215 6.85 161.065 6.9 160.915 6.95C160.765 6.98333 160.615 7.025 160.465 7.075C160.349 7.09167 160.232 7.10833 160.115 7.125C160.015 7.125 159.907 7.125 159.79 7.125C159.707 7.125 159.615 7.09167 159.515 7.025C159.399 6.975 159.299 6.90833 159.215 6.825C159.132 6.74167 159.049 6.65 158.965 6.55L158.915 6.475C158.882 6.35833 158.849 6.25 158.815 6.15C158.799 6.03333 158.799 5.91667 158.815 5.8C158.832 5.65 158.865 5.50833 158.915 5.375C158.982 5.24167 159.074 5.125 159.19 5.025C159.24 4.99167 159.282 4.95 159.315 4.9C159.365 4.85 159.415 4.8 159.465 4.75C159.532 4.71667 159.574 4.7 159.59 4.7C159.69 4.7 159.782 4.68333 159.865 4.65C159.949 4.6 160.032 4.56667 160.115 4.55C160.199 4.53333 160.282 4.51667 160.365 4.5C160.449 4.48333 160.532 4.46667 160.615 4.45C160.849 4.38333 161.082 4.325 161.315 4.275C161.549 4.20833 161.782 4.15833 162.015 4.125L163.365 3.9C163.399 3.88333 163.424 3.875 163.44 3.875C163.474 3.875 163.499 3.86667 163.515 3.85C163.615 3.81667 163.715 3.79167 163.815 3.775C163.915 3.75833 164.015 3.76667 164.115 3.8C164.149 3.81667 164.174 3.825 164.19 3.825C164.224 3.80833 164.249 3.8 164.265 3.8C164.549 3.76667 164.832 3.73333 165.115 3.7C165.399 3.66667 165.674 3.625 165.94 3.575C166.157 3.54167 166.374 3.50833 166.59 3.475C166.807 3.44167 167.024 3.41667 167.24 3.4C167.407 3.36667 167.574 3.34167 167.74 3.325C167.907 3.30833 168.074 3.29167 168.24 3.275C168.374 3.25833 168.507 3.24167 168.64 3.225C168.79 3.20833 168.932 3.19167 169.065 3.175C169.199 3.15833 169.324 3.15833 169.44 3.175C169.574 3.175 169.707 3.175 169.84 3.175C169.924 3.175 169.999 3.2 170.065 3.25C170.149 3.3 170.224 3.34167 170.29 3.375C170.357 3.425 170.449 3.50833 170.565 3.625C170.599 3.65833 170.632 3.73333 170.665 3.85C170.682 3.9 170.699 3.95833 170.715 4.025C170.732 4.075 170.749 4.13333 170.765 4.2C170.799 4.35 170.782 4.49167 170.715 4.625L170.565 4.975C170.549 5.025 170.524 5.075 170.49 5.125C170.474 5.15833 170.449 5.19167 170.415 5.225C170.382 5.25833 170.365 5.275 170.365 5.275C170.299 5.325 170.224 5.375 170.14 5.425C170.074 5.475 169.99 5.50833 169.89 5.525L168.815 5.6C168.715 5.6 168.615 5.60833 168.515 5.625C168.415 5.625 168.307 5.63333 168.19 5.65H168.065C167.799 5.66667 167.54 5.69167 167.29 5.725C167.04 5.75833 166.79 5.79167 166.54 5.825L165.54 5.975C165.49 5.975 165.457 5.98333 165.44 6C165.374 6 165.324 6.05 165.29 6.15V6.225C165.29 6.39167 165.29 6.55833 165.29 6.725C165.29 6.875 165.299 7.03333 165.315 7.2C165.365 7.43333 165.365 7.66667 165.315 7.9C165.299 7.95 165.282 8 165.265 8.05C165.265 8.08333 165.265 8.11667 165.265 8.15C165.282 8.35 165.265 8.56667 165.215 8.8C165.215 8.85 165.215 8.9 165.215 8.95C165.215 9 165.224 9.05 165.24 9.1C165.257 9.16667 165.265 9.24167 165.265 9.325C165.265 9.40833 165.265 9.49167 165.265 9.575V10.875C165.265 10.9417 165.257 11.025 165.24 11.125C165.24 11.2083 165.24 11.2917 165.24 11.375C165.24 11.4417 165.24 11.5167 165.24 11.6C165.257 11.6833 165.265 11.7667 165.265 11.85C165.265 11.9667 165.265 12.0833 165.265 12.2C165.282 12.3167 165.282 12.4417 165.265 12.575V13.35C165.265 13.3667 165.257 13.3833 165.24 13.4C165.24 13.4167 165.249 13.4417 165.265 13.475C165.282 13.625 165.29 13.7833 165.29 13.95C165.29 14.1 165.307 14.25 165.34 14.4C165.34 14.45 165.34 14.5 165.34 14.55C165.357 14.6 165.357 14.65 165.34 14.7C165.34 14.85 165.357 15.0083 165.39 15.175C165.424 15.325 165.449 15.475 165.465 15.625C165.499 15.8083 165.532 15.9917 165.565 16.175C165.615 16.3583 165.657 16.5417 165.69 16.725L165.765 17.075C165.765 17.125 165.74 17.1667 165.69 17.2C165.69 17.2 165.682 17.2 165.665 17.2C165.665 17.2 165.657 17.2083 165.64 17.225C165.557 17.2583 165.524 17.3083 165.54 17.375V17.5C165.54 17.5 165.532 17.5083 165.515 17.525C165.515 17.5417 165.507 17.55 165.49 17.55C165.407 17.55 165.34 17.5833 165.29 17.65C165.24 17.7167 165.182 17.775 165.115 17.825C165.065 17.8583 164.999 17.8917 164.915 17.925C164.699 18.0083 164.499 18.025 164.315 17.975ZM177.159 18.5C176.992 18.4833 176.826 18.4583 176.659 18.425C176.509 18.4083 176.359 18.3667 176.209 18.3L175.584 18.075C175.367 17.9917 175.167 17.9 174.984 17.8C174.801 17.6833 174.617 17.5667 174.434 17.45C174.351 17.3667 174.267 17.2917 174.184 17.225C174.101 17.1417 174.017 17.0667 173.934 17C173.801 16.8667 173.667 16.7333 173.534 16.6C173.401 16.45 173.276 16.2917 173.159 16.125L172.559 15.2C172.409 14.9667 172.276 14.725 172.159 14.475C172.042 14.2083 171.942 13.9417 171.859 13.675C171.676 13.175 171.584 12.6833 171.584 12.2V11.8C171.584 11.3833 171.609 10.975 171.659 10.575C171.692 10.2417 171.767 9.94167 171.884 9.675C171.951 9.50833 172.009 9.34167 172.059 9.175C172.109 9.00833 172.167 8.85 172.234 8.7L172.309 8.525C172.342 8.30833 172.417 8.11667 172.534 7.95C172.651 7.76667 172.751 7.59167 172.834 7.425C172.901 7.29167 172.976 7.175 173.059 7.075C173.142 6.95833 173.217 6.84167 173.284 6.725C173.317 6.675 173.359 6.63333 173.409 6.6C173.459 6.55 173.501 6.5 173.534 6.45C173.567 6.41667 173.592 6.375 173.609 6.325C173.642 6.25833 173.667 6.2 173.684 6.15C173.717 6.1 173.776 6.03333 173.859 5.95C173.959 5.9 174.051 5.78333 174.134 5.6C174.167 5.53333 174.201 5.48333 174.234 5.45C174.334 5.36667 174.417 5.26667 174.484 5.15C174.567 5.03333 174.659 4.925 174.759 4.825C174.826 4.75833 174.859 4.66667 174.859 4.55C174.859 4.46667 174.859 4.39167 174.859 4.325C174.876 4.24167 174.876 4.16667 174.859 4.1C174.842 4.01667 174.867 3.94167 174.934 3.875C174.967 3.84167 174.992 3.8 175.009 3.75C175.026 3.7 175.042 3.65 175.059 3.6C175.109 3.43333 175.242 3.29167 175.459 3.175C175.492 3.14167 175.534 3.125 175.584 3.125C175.651 3.10833 175.709 3.09167 175.759 3.075C175.876 3.025 176.009 3.01667 176.159 3.05C176.226 3.06667 176.284 3.075 176.334 3.075C176.384 3.05833 176.434 3.04167 176.484 3.025C176.551 2.99167 176.609 2.96667 176.659 2.95C176.726 2.93333 176.784 2.91667 176.834 2.9C177.067 2.81667 177.309 2.825 177.559 2.925C177.826 3.025 178.017 3.2 178.134 3.45C178.167 3.53333 178.201 3.61667 178.234 3.7C178.267 3.78333 178.292 3.86667 178.309 3.95C178.342 4.13333 178.334 4.29167 178.284 4.425C178.251 4.49167 178.234 4.53333 178.234 4.55C178.217 4.61667 178.234 4.675 178.284 4.725C178.317 4.775 178.359 4.81667 178.409 4.85C178.592 5.01667 178.767 5.18333 178.934 5.35C179.101 5.5 179.259 5.66667 179.409 5.85C179.542 5.98333 179.651 6.125 179.734 6.275C179.834 6.40833 179.926 6.55833 180.009 6.725C180.042 6.80833 180.084 6.9 180.134 7C180.184 7.08333 180.234 7.16667 180.284 7.25C180.367 7.4 180.434 7.55833 180.484 7.725C180.551 7.89167 180.617 8.05833 180.684 8.225V8.25C180.717 8.36667 180.742 8.49167 180.759 8.625C180.792 8.74167 180.842 8.86667 180.909 9C180.959 9.11667 181.001 9.24167 181.034 9.375C181.067 9.49167 181.101 9.61667 181.134 9.75C181.167 9.9 181.201 10.05 181.234 10.2C181.284 10.35 181.317 10.5 181.334 10.65C181.351 10.7167 181.367 10.7833 181.384 10.85C181.401 10.9 181.417 10.9583 181.434 11.025C181.467 11.175 181.501 11.325 181.534 11.475C181.567 11.625 181.592 11.775 181.609 11.925L181.684 12.1C181.717 12.2 181.751 12.3333 181.784 12.5C181.834 12.7167 181.859 12.9333 181.859 13.15C181.876 13.3667 181.876 13.5917 181.859 13.825C181.859 13.9417 181.851 14.0333 181.834 14.1C181.734 14.45 181.609 14.8083 181.459 15.175C181.392 15.2917 181.326 15.4083 181.259 15.525C181.192 15.625 181.126 15.7333 181.059 15.85L180.834 16.2C180.751 16.35 180.659 16.4833 180.559 16.6C180.392 16.8667 180.192 17.1 179.959 17.3C179.726 17.5 179.476 17.6917 179.209 17.875C178.626 18.325 177.942 18.5333 177.159 18.5ZM177.059 16.025C177.409 16.025 177.709 15.925 177.959 15.725C178.042 15.6417 178.126 15.5667 178.209 15.5C178.309 15.4167 178.392 15.3333 178.459 15.25C178.776 14.9 179.026 14.5333 179.209 14.15L179.284 13.9C179.317 13.6 179.317 13.3 179.284 13L179.134 12.175C179.084 11.9583 179.042 11.75 179.009 11.55C178.976 11.3333 178.926 11.125 178.859 10.925C178.809 10.8083 178.792 10.7167 178.809 10.65C178.826 10.5667 178.826 10.4833 178.809 10.4C178.792 10.3167 178.767 10.2333 178.734 10.15C178.684 9.93333 178.626 9.71667 178.559 9.5C178.492 9.28333 178.426 9.06667 178.359 8.85C178.342 8.8 178.326 8.75 178.309 8.7C178.292 8.65 178.276 8.6 178.259 8.55C178.142 8.31667 178.017 8.09167 177.884 7.875C177.751 7.65833 177.601 7.45833 177.434 7.275C177.351 7.175 177.259 7.08333 177.159 7C177.059 6.9 176.959 6.80833 176.859 6.725C176.842 6.69167 176.817 6.675 176.784 6.675C176.767 6.65833 176.742 6.64167 176.709 6.625C176.659 6.55833 176.592 6.56667 176.509 6.65C176.426 6.73333 176.334 6.825 176.234 6.925C176.151 7.025 176.067 7.125 175.984 7.225C175.901 7.34167 175.809 7.45833 175.709 7.575C175.626 7.69167 175.542 7.80833 175.459 7.925C175.342 8.075 175.234 8.225 175.134 8.375C175.034 8.525 174.934 8.675 174.834 8.825C174.484 9.39167 174.209 10.0167 174.009 10.7C173.976 10.8 173.959 10.875 173.959 10.925C173.942 11.0417 173.926 11.1583 173.909 11.275C173.909 11.3917 173.909 11.5167 173.909 11.65V11.85C173.926 11.9 173.934 11.95 173.934 12C173.934 12.05 173.942 12.1 173.959 12.15C173.959 12.35 174.009 12.5667 174.109 12.8C174.242 13.1333 174.392 13.4583 174.559 13.775C174.726 14.0917 174.917 14.3917 175.134 14.675C175.184 14.7417 175.234 14.8083 175.284 14.875C175.351 14.9417 175.409 15.0083 175.459 15.075C175.609 15.2417 175.767 15.3917 175.934 15.525C176.117 15.6583 176.301 15.775 176.484 15.875C176.684 15.975 176.876 16.025 177.059 16.025Z" fill="#353535"/>
</svg>
