<svg width="180" height="25" viewBox="0 0 180 25" fill="none" xmlns="http://www.w3.org/2000/svg">
<path d="M2.51309 22.3C2.35309 22.28 2.19309 22.24 2.03309 22.18C1.87309 22.14 1.73309 22.07 1.61309 21.97C1.59309 21.93 1.56309 21.9 1.52309 21.88C1.48309 21.84 1.45309 21.81 1.43309 21.79C1.35309 21.67 1.28309 21.54 1.22309 21.4C1.16309 21.26 1.12309 21.12 1.10309 20.98C1.08309 20.68 1.11309 20.38 1.19309 20.08C1.29309 19.76 1.36309 19.44 1.40309 19.12C1.44309 18.78 1.46309 18.44 1.46309 18.1C1.48309 17.7 1.49309 17.3 1.49309 16.9C1.49309 16.5 1.49309 16.11 1.49309 15.73C1.49309 15.63 1.48309 15.53 1.46309 15.43C1.46309 15.31 1.45309 15.2 1.43309 15.1C1.41309 15 1.40309 14.89 1.40309 14.77C1.40309 14.65 1.40309 14.54 1.40309 14.44C1.40309 14.34 1.39309 14.24 1.37309 14.14C1.37309 14.02 1.36309 13.91 1.34309 13.81C1.32309 13.73 1.31309 13.65 1.31309 13.57C1.33309 13.49 1.33309 13.41 1.31309 13.33C1.31309 13.19 1.31309 13.05 1.31309 12.91C1.31309 12.77 1.30309 12.63 1.28309 12.49C1.26309 12.47 1.25309 12.43 1.25309 12.37V10.75C1.23309 10.65 1.22309 10.56 1.22309 10.48C1.22309 10.38 1.22309 10.28 1.22309 10.18C1.24309 10.12 1.25309 10.03 1.25309 9.91V9.55C1.25309 9.43 1.24309 9.32 1.22309 9.22C1.22309 9.1 1.23309 8.98 1.25309 8.86V8.71C1.23309 8.55 1.22309 8.4 1.22309 8.26C1.24309 8.1 1.26309 7.95 1.28309 7.81C1.30309 7.73 1.31309 7.6 1.31309 7.42C1.27309 7.3 1.25309 7.21 1.25309 7.15C1.23309 7.05 1.21309 6.96 1.19309 6.88C1.19309 6.78 1.20309 6.69 1.22309 6.61C1.24309 6.43 1.20309 6.24 1.10309 6.04C1.04309 5.96 0.993086 5.88 0.953086 5.8C0.933086 5.7 0.903086 5.61 0.863086 5.53V5.44C0.903086 5.4 0.943086 5.4 0.983086 5.44C1.04309 5.46 1.07309 5.45 1.07309 5.41C1.09309 5.37 1.10309 5.33 1.10309 5.29C1.10309 5.23 1.11309 5.19 1.13309 5.17C1.15309 5.11 1.14309 5.03 1.10309 4.93C1.08309 4.87 1.11309 4.83 1.19309 4.81C1.23309 4.73 1.30309 4.68 1.40309 4.66C1.50309 4.62 1.56309 4.59 1.58309 4.57C1.64309 4.49 1.71309 4.45 1.79309 4.45C1.87309 4.45 1.95309 4.45 2.03309 4.45C2.09309 4.45 2.18309 4.43 2.30309 4.39C2.38309 4.37 2.46309 4.37 2.54309 4.39C2.58309 4.41 2.62309 4.44 2.66309 4.48C2.70309 4.5 2.74309 4.52 2.78309 4.54C2.98309 4.62 3.15309 4.78 3.29309 5.02C3.33309 5.12 3.37309 5.22 3.41309 5.32C3.45309 5.42 3.46309 5.53 3.44309 5.65C3.44309 5.71 3.48309 5.74 3.56309 5.74H3.80309C3.90309 5.7 4.00309 5.68 4.10309 5.68C4.22309 5.68 4.32309 5.68 4.40309 5.68H5.18309C5.40309 5.66 5.62309 5.67 5.84309 5.71C6.08309 5.73 6.31309 5.76 6.53309 5.8C7.19309 5.88 7.82309 6.03 8.42309 6.25C9.08309 6.45 9.70309 6.78 10.2831 7.24C10.5031 7.4 10.7431 7.63 11.0031 7.93C11.0831 8.01 11.1531 8.1 11.2131 8.2C11.2931 8.28 11.3631 8.37 11.4231 8.47C11.6431 8.81 11.7531 9.16 11.7531 9.52C11.7931 9.76 11.7931 9.99 11.7531 10.21C11.7531 10.39 11.7131 10.55 11.6331 10.69C11.6331 10.69 11.6231 10.7 11.6031 10.72C11.6031 10.72 11.6031 10.73 11.6031 10.75C11.5631 10.81 11.5331 10.88 11.5131 10.96C11.5131 11.04 11.4831 11.1 11.4231 11.14L11.1531 11.47C11.0531 11.59 10.9431 11.72 10.8231 11.86C10.7231 11.98 10.6031 12.09 10.4631 12.19L10.1631 12.4C10.1031 12.42 10.0431 12.45 9.98309 12.49C9.92309 12.53 9.87309 12.58 9.83309 12.64C9.77309 12.7 9.70309 12.75 9.62309 12.79C9.54309 12.85 9.45309 12.91 9.35309 12.97C9.27309 13.01 9.18309 13.05 9.08309 13.09C8.98309 13.13 8.98309 13.18 9.08309 13.24L9.29309 13.33C9.39309 13.39 9.50309 13.45 9.62309 13.51C9.74309 13.55 9.85309 13.6 9.95309 13.66C10.1131 13.74 10.2731 13.84 10.4331 13.96C10.6131 14.06 10.7731 14.16 10.9131 14.26L11.2731 14.59C11.3731 14.69 11.4631 14.8 11.5431 14.92C11.6431 15.02 11.7331 15.13 11.8131 15.25C11.9731 15.45 12.1031 15.67 12.2031 15.91C12.3231 16.15 12.4031 16.4 12.4431 16.66C12.4831 16.8 12.5031 16.95 12.5031 17.11C12.5031 17.25 12.4831 17.4 12.4431 17.56C12.4031 17.72 12.4131 17.87 12.4731 18.01C12.4931 18.07 12.4831 18.17 12.4431 18.31L12.3531 18.7C12.3131 18.82 12.2631 18.93 12.2031 19.03C12.1631 19.13 12.0931 19.23 11.9931 19.33L11.6331 19.81C11.5131 19.95 11.3831 20.09 11.2431 20.23C11.1231 20.37 10.9831 20.49 10.8231 20.59L10.5531 20.77C10.5131 20.77 10.4531 20.79 10.3731 20.83C9.49309 21.29 8.58309 21.53 7.64309 21.55C7.54309 21.55 7.46309 21.56 7.40309 21.58C7.22309 21.6 7.03309 21.62 6.83309 21.64C6.65309 21.64 6.46309 21.64 6.26309 21.64C6.10309 21.64 5.93309 21.66 5.75309 21.7C5.59309 21.72 5.43309 21.73 5.27309 21.73C5.19309 21.75 5.11309 21.77 5.03309 21.79C4.95309 21.79 4.87309 21.79 4.79309 21.79C4.69309 21.81 4.58309 21.83 4.46309 21.85C4.36309 21.87 4.26309 21.9 4.16309 21.94C4.10309 21.96 4.04309 21.98 3.98309 22C3.94309 22.02 3.89309 22.05 3.83309 22.09C3.63309 22.23 3.40309 22.3 3.14309 22.3H2.51309ZM3.83309 12.31C3.91309 12.31 3.98309 12.3 4.04309 12.28C4.12309 12.26 4.19309 12.24 4.25309 12.22C4.51309 12.12 4.76309 12.03 5.00309 11.95C5.24309 11.85 5.49309 11.76 5.75309 11.68C6.05309 11.58 6.35309 11.47 6.65309 11.35C6.95309 11.21 7.25309 11.08 7.55309 10.96C7.79309 10.86 8.02309 10.73 8.24309 10.57C8.48309 10.41 8.70309 10.25 8.90309 10.09C8.94309 10.07 8.97309 10.05 8.99309 10.03C9.01309 9.99 9.03309 9.96 9.05309 9.94C9.09309 9.88 9.09309 9.82 9.05309 9.76L8.96309 9.61C8.88309 9.55 8.81309 9.49 8.75309 9.43C8.69309 9.37 8.61309 9.31 8.51309 9.25C8.43309 9.21 8.35309 9.16 8.27309 9.1C8.19309 9.04 8.10309 8.99 8.00309 8.95L7.73309 8.77C7.43309 8.65 7.13309 8.55 6.83309 8.47C6.53309 8.39 6.22309 8.35 5.90309 8.35H4.88309C4.72309 8.35 4.56309 8.36 4.40309 8.38C4.24309 8.4 4.08309 8.43 3.92309 8.47C3.86309 8.47 3.77309 8.49 3.65309 8.53C3.53309 8.55 3.47309 8.62 3.47309 8.74V9.43C3.51309 9.63 3.51309 9.84 3.47309 10.06V10.33C3.51309 10.45 3.53309 10.58 3.53309 10.72C3.53309 10.84 3.53309 10.97 3.53309 11.11C3.55309 11.47 3.61309 11.85 3.71309 12.25C3.71309 12.29 3.75309 12.31 3.83309 12.31ZM4.07309 19.24H4.19309C4.33309 19.22 4.47309 19.21 4.61309 19.21C4.75309 19.19 4.89309 19.17 5.03309 19.15C5.27309 19.11 5.51309 19.07 5.75309 19.03C6.01309 18.99 6.26309 18.96 6.50309 18.94C6.96309 18.9 7.41309 18.84 7.85309 18.76C8.03309 18.72 8.20309 18.68 8.36309 18.64C8.54309 18.6 8.71309 18.56 8.87309 18.52C8.97309 18.48 9.06309 18.44 9.14309 18.4C9.24309 18.34 9.33309 18.29 9.41309 18.25C9.69309 18.05 9.85309 17.75 9.89309 17.35C9.91309 16.97 9.77309 16.66 9.47309 16.42C9.43309 16.38 9.35309 16.32 9.23309 16.24C8.91309 16.02 8.57309 15.84 8.21309 15.7C7.85309 15.56 7.48309 15.45 7.10309 15.37C6.92309 15.33 6.74309 15.3 6.56309 15.28C6.40309 15.24 6.23309 15.23 6.05309 15.25C5.97309 15.25 5.88309 15.26 5.78309 15.28C5.70309 15.28 5.62309 15.28 5.54309 15.28C5.46309 15.28 5.38309 15.29 5.30309 15.31C5.22309 15.31 5.13309 15.31 5.03309 15.31C4.93309 15.31 4.82309 15.31 4.70309 15.31C4.60309 15.31 4.50309 15.32 4.40309 15.34H4.13309C4.03309 15.38 3.98309 15.44 3.98309 15.52C4.00309 15.68 4.01309 15.85 4.01309 16.03C4.01309 16.21 4.01309 16.38 4.01309 16.54C4.01309 16.58 4.01309 16.62 4.01309 16.66C4.03309 16.7 4.04309 16.74 4.04309 16.78V17.41C4.02309 17.53 4.01309 17.65 4.01309 17.77C4.01309 17.89 4.01309 18 4.01309 18.1C4.01309 18.24 4.01309 18.38 4.01309 18.52C4.03309 18.64 4.02309 18.77 3.98309 18.91C3.96309 18.95 3.95309 19.02 3.95309 19.12C3.95309 19.16 3.99309 19.2 4.07309 19.24ZM27.3693 24.19C27.1893 24.19 27.0293 24.12 26.8893 23.98C26.8493 23.92 26.8093 23.86 26.7693 23.8C26.7293 23.74 26.6893 23.68 26.6493 23.62C26.4693 23.2 26.3793 22.76 26.3793 22.3L26.2893 21.58C26.2293 21.3 26.1793 21.02 26.1393 20.74C26.0993 20.46 26.0293 20.19 25.9293 19.93L25.7493 19.42C25.7493 19.38 25.7393 19.34 25.7193 19.3C25.7193 19.26 25.7093 19.22 25.6893 19.18L25.2393 17.59C25.2193 17.55 25.1993 17.5 25.1793 17.44C25.1793 17.38 25.1593 17.33 25.1193 17.29C25.0593 17.17 25.0093 17.05 24.9693 16.93C24.9493 16.79 24.9193 16.65 24.8793 16.51C24.8593 16.41 24.8393 16.32 24.8193 16.24C24.7993 16.14 24.7693 16.04 24.7293 15.94C24.6893 15.82 24.6493 15.75 24.6093 15.73C24.5693 15.69 24.4793 15.69 24.3393 15.73C24.2393 15.75 24.1293 15.77 24.0093 15.79C23.9093 15.79 23.8093 15.81 23.7093 15.85C23.6293 15.87 23.5293 15.89 23.4093 15.91C23.3093 15.91 23.2093 15.92 23.1093 15.94L22.6893 16.03C22.5893 16.05 22.4793 16.08 22.3593 16.12C22.2593 16.14 22.1593 16.15 22.0593 16.15L21.5193 16.24C21.3593 16.28 21.1893 16.32 21.0093 16.36C20.8293 16.4 20.6593 16.44 20.4993 16.48C20.0193 16.6 19.5393 16.69 19.0593 16.75C18.8993 16.79 18.8093 16.86 18.7893 16.96C18.7693 16.96 18.7593 16.97 18.7593 16.99C18.6393 17.31 18.4993 17.63 18.3393 17.95C18.1993 18.25 18.0493 18.56 17.8893 18.88C17.8493 18.96 17.8093 19.04 17.7693 19.12C17.7493 19.18 17.7193 19.25 17.6793 19.33C17.6593 19.37 17.6393 19.42 17.6193 19.48C17.5993 19.52 17.5793 19.56 17.5593 19.6C17.4393 19.74 17.3793 19.91 17.3793 20.11C17.3593 20.23 17.3193 20.35 17.2593 20.47C17.1993 20.57 17.1393 20.67 17.0793 20.77C17.0593 20.83 17.0193 20.86 16.9593 20.86C16.8793 20.88 16.7993 20.91 16.7193 20.95C16.6393 20.99 16.5493 21.03 16.4493 21.07C16.3893 21.09 16.3293 21.09 16.2693 21.07C16.2293 21.05 16.1793 21.03 16.1193 21.01C16.0793 20.97 16.0393 20.95 15.9993 20.95C15.7793 20.93 15.6193 20.8 15.5193 20.56C15.3593 20.24 15.2493 19.92 15.1893 19.6C15.1693 19.52 15.1693 19.45 15.1893 19.39C15.2293 19.33 15.2593 19.27 15.2793 19.21C15.3993 19.13 15.4693 19.04 15.4893 18.94V18.91C15.4893 18.65 15.5393 18.41 15.6393 18.19C15.7593 17.95 15.8593 17.72 15.9393 17.5C15.9793 17.38 16.0293 17.26 16.0893 17.14C16.1493 17.02 16.2093 16.9 16.2693 16.78C16.3493 16.64 16.4093 16.51 16.4493 16.39C16.5093 16.25 16.5593 16.11 16.5993 15.97C16.6593 15.81 16.6593 15.66 16.5993 15.52C16.5593 15.4 16.5393 15.29 16.5393 15.19C16.5393 15.07 16.5493 14.95 16.5693 14.83C16.5693 14.61 16.6493 14.42 16.8093 14.26C16.8893 14.16 16.9693 14.08 17.0493 14.02C17.1493 13.94 17.2393 13.86 17.3193 13.78C17.4993 13.6 17.6393 13.36 17.7393 13.06C17.8193 12.8 17.8793 12.54 17.9193 12.28C17.9793 12 18.0393 11.73 18.0993 11.47C18.1393 11.21 18.1793 10.96 18.2193 10.72C18.2793 10.46 18.3393 10.21 18.3993 9.97C18.4193 9.87 18.4393 9.78 18.4593 9.7C18.4993 9.6 18.5293 9.51 18.5493 9.43C18.6093 9.27 18.6693 9.12 18.7293 8.98C18.7893 8.82 18.8293 8.66 18.8493 8.5C18.8893 8.42 18.8893 8.35 18.8493 8.29C18.8293 8.19 18.8293 8.1 18.8493 8.02C18.8893 7.94 18.9193 7.86 18.9393 7.78C18.9993 7.64 19.0393 7.5 19.0593 7.36C19.0993 7.22 19.1493 7.08 19.2093 6.94C19.3093 6.68 19.3893 6.47 19.4493 6.31C19.5293 6.13 19.5993 5.93 19.6593 5.71C19.6993 5.59 19.7393 5.48 19.7793 5.38C19.8393 5.26 19.8793 5.14 19.8993 5.02C19.9593 4.84 20.0093 4.66 20.0493 4.48C20.0893 4.28 20.1093 4.09 20.1093 3.91C20.1493 3.75 20.1893 3.64 20.2293 3.58C20.3293 3.38 20.4493 3.21 20.5893 3.07C20.7493 2.93 20.8993 2.79 21.0393 2.65C21.1393 2.59 21.2393 2.55 21.3393 2.53C21.4393 2.49 21.5393 2.5 21.6393 2.56C21.7193 2.6 21.7693 2.62 21.7893 2.62C21.9693 2.6 22.1193 2.64 22.2393 2.74C22.3593 2.84 22.4593 2.96 22.5393 3.1C22.5793 3.14 22.6093 3.19 22.6293 3.25C22.6493 3.31 22.6693 3.36 22.6893 3.4C22.7893 3.56 22.8393 3.72 22.8393 3.88C22.8393 3.96 22.8493 4.05 22.8693 4.15C22.8893 4.23 22.9093 4.32 22.9293 4.42C22.9893 4.54 23.0793 4.6 23.1993 4.6C23.2193 4.58 23.2393 4.58 23.2593 4.6C23.2793 4.62 23.2893 4.64 23.2893 4.66C23.3893 4.78 23.4193 4.91 23.3793 5.05C23.3393 5.21 23.3293 5.37 23.3493 5.53C23.3893 5.67 23.4293 5.82 23.4693 5.98C23.5493 6.18 23.6293 6.38 23.7093 6.58C23.7893 6.78 23.8693 6.98 23.9493 7.18C24.0493 7.4 24.1493 7.62 24.2493 7.84C24.3493 8.06 24.4393 8.28 24.5193 8.5C24.6193 8.78 24.7193 9.06 24.8193 9.34C24.9393 9.62 25.0693 9.9 25.2093 10.18L25.2993 10.51C25.3193 10.59 25.3393 10.67 25.3593 10.75C25.3993 10.83 25.4293 10.91 25.4493 10.99C25.4893 11.05 25.5193 11.11 25.5393 11.17C25.5793 11.23 25.6193 11.28 25.6593 11.32C25.7593 11.46 25.8193 11.61 25.8393 11.77C25.8993 11.97 25.9893 12.15 26.1093 12.31C26.1493 12.37 26.2093 12.4 26.2893 12.4C26.5893 12.36 26.8893 12.33 27.1893 12.31C27.4893 12.27 27.7893 12.21 28.0893 12.13C28.3093 12.07 28.5193 12.04 28.7193 12.04C29.0993 12.04 29.4493 12.17 29.7693 12.43C30.1493 12.73 30.3493 13.11 30.3693 13.57C30.3693 13.67 30.3793 13.75 30.3993 13.81C30.3993 13.95 30.3593 14.06 30.2793 14.14C30.2593 14.2 30.2193 14.26 30.1593 14.32C30.1193 14.38 30.0793 14.44 30.0393 14.5C29.9993 14.58 29.9593 14.64 29.9193 14.68L29.7393 14.83C29.7193 14.87 29.6893 14.92 29.6493 14.98C29.6093 15.02 29.5593 15.05 29.4993 15.07C29.4193 15.09 29.3393 15.12 29.2593 15.16C29.1793 15.18 29.0893 15.19 28.9893 15.19C28.6293 15.23 28.3093 15.22 28.0293 15.16H27.5493C27.5093 15.16 27.4493 15.18 27.3693 15.22C27.2893 15.26 27.2493 15.31 27.2493 15.37V15.49C27.3093 15.67 27.3493 15.86 27.3693 16.06C27.4093 16.24 27.4693 16.41 27.5493 16.57C27.5493 16.65 27.5693 16.73 27.6093 16.81C27.7093 16.99 27.7893 17.18 27.8493 17.38C27.9093 17.56 27.9593 17.75 27.9993 17.95C27.9993 17.99 28.0193 18.07 28.0593 18.19C28.1193 18.33 28.1693 18.48 28.2093 18.64C28.2493 18.78 28.2793 18.93 28.2993 19.09C28.2993 19.21 28.3293 19.32 28.3893 19.42C28.4693 19.6 28.5293 19.78 28.5693 19.96C28.6093 20.14 28.6393 20.33 28.6593 20.53C28.6793 20.55 28.6893 20.59 28.6893 20.65C28.6893 20.69 28.6993 20.73 28.7193 20.77C28.8193 20.99 28.8893 21.23 28.9293 21.49C28.9693 21.73 29.0193 21.97 29.0793 22.21C29.1193 22.33 29.1393 22.45 29.1393 22.57C29.1593 22.71 29.1693 22.85 29.1693 22.99C29.1693 23.09 29.1393 23.2 29.0793 23.32C29.0193 23.38 28.9893 23.41 28.9893 23.41C28.8693 23.43 28.7993 23.5 28.7793 23.62L28.6893 23.8C28.6493 23.88 28.5893 23.93 28.5093 23.95C28.4293 23.95 28.3593 23.98 28.2993 24.04C28.2193 24.12 28.1093 24.16 27.9693 24.16C27.8893 24.16 27.7893 24.16 27.6693 24.16C27.5693 24.16 27.4693 24.17 27.3693 24.19ZM20.1393 13.3C20.2593 13.28 20.3793 13.26 20.4993 13.24C20.6393 13.22 20.7893 13.2 20.9493 13.18C21.0493 13.16 21.1793 13.14 21.3393 13.12C21.4993 13.1 21.6493 13.08 21.7893 13.06C21.9293 13.02 22.0693 13 22.2093 13C22.3493 12.98 22.4893 12.96 22.6293 12.94C22.7493 12.9 22.8693 12.88 22.9893 12.88C23.1093 12.86 23.2293 12.84 23.3493 12.82C23.5293 12.78 23.5993 12.68 23.5593 12.52C23.5393 12.36 23.4993 12.2 23.4393 12.04C23.3993 11.86 23.3093 11.71 23.1693 11.59C23.1293 11.55 23.1093 11.49 23.1093 11.41V11.32C23.0693 11.16 23.0193 11.01 22.9593 10.87C22.9193 10.71 22.8693 10.56 22.8093 10.42C22.7693 10.26 22.7193 10.12 22.6593 10C22.6193 9.86 22.5693 9.72 22.5093 9.58L22.1493 8.5C22.0893 8.36 22.0293 8.22 21.9693 8.08C21.9293 7.94 21.8893 7.8 21.8493 7.66L21.7593 7.54H21.6693L21.6093 7.63C21.5093 7.93 21.3893 8.23 21.2493 8.53C21.1293 8.83 21.0193 9.15 20.9193 9.49C20.9193 9.53 20.9093 9.58 20.8893 9.64C20.8693 9.7 20.8493 9.76 20.8293 9.82C20.7493 10.02 20.6693 10.24 20.5893 10.48C20.5293 10.72 20.4793 10.96 20.4393 11.2C20.4193 11.34 20.3993 11.48 20.3793 11.62C20.3593 11.74 20.3293 11.87 20.2893 12.01L20.0193 13.18C19.9993 13.2 20.0093 13.23 20.0493 13.27C20.0893 13.29 20.1193 13.3 20.1393 13.3ZM36.0179 22.42C35.8779 22.42 35.7079 22.37 35.5079 22.27C35.4079 22.21 35.3279 22.13 35.2679 22.03C35.2479 21.97 35.1979 21.97 35.1179 22.03C35.0579 22.07 35.0079 22.07 34.9679 22.03C34.9079 21.97 34.8479 21.93 34.7879 21.91C34.7079 21.91 34.6679 21.88 34.6679 21.82C34.6679 21.76 34.6579 21.71 34.6379 21.67C34.6379 21.61 34.6179 21.56 34.5779 21.52C34.4579 21.48 34.3779 21.38 34.3379 21.22C34.3179 21.16 34.2979 21.11 34.2779 21.07C34.2579 21.01 34.2279 20.95 34.1879 20.89C34.1479 20.81 34.1279 20.74 34.1279 20.68C34.1079 20.62 34.0879 20.57 34.0679 20.53C34.0679 20.47 34.0479 20.41 34.0079 20.35C33.9879 20.21 33.9479 20.08 33.8879 19.96C33.8279 19.84 33.7779 19.71 33.7379 19.57C33.6979 19.49 33.6779 19.38 33.6779 19.24C33.6779 18.88 33.7379 18.55 33.8579 18.25C33.9579 18.07 33.9879 17.89 33.9479 17.71C33.9279 17.63 33.9279 17.55 33.9479 17.47C33.9879 17.39 33.9979 17.31 33.9779 17.23C33.9579 17.15 33.9379 17.08 33.9179 17.02C33.9179 16.96 33.9179 16.89 33.9179 16.81C33.8979 16.77 33.8879 16.72 33.8879 16.66C33.8879 16.54 33.8879 16.42 33.8879 16.3C33.8879 16.16 33.8679 16.02 33.8279 15.88C33.8079 15.82 33.7979 15.73 33.7979 15.61V14.5C33.7779 14.24 33.7479 13.98 33.7079 13.72C33.6679 13.46 33.6179 13.2 33.5579 12.94C33.5579 12.88 33.5479 12.82 33.5279 12.76C33.5279 12.7 33.5279 12.64 33.5279 12.58C33.5279 12.14 33.4579 11.71 33.3179 11.29V11.02C33.3579 10.8 33.3379 10.63 33.2579 10.51C33.2379 10.43 33.2279 10.32 33.2279 10.18V10.15C33.2279 9.95 33.2179 9.75 33.1979 9.55C33.1979 9.35 33.2079 9.15 33.2279 8.95C33.2679 8.59 33.2679 8.21 33.2279 7.81C33.2279 7.65 33.2279 7.49 33.2279 7.33C33.2279 7.17 33.2179 7.02 33.1979 6.88V6.7C33.2379 6.6 33.2579 6.51 33.2579 6.43C33.2579 6.35 33.2579 6.27 33.2579 6.19C33.2579 5.95 33.2479 5.72 33.2279 5.5C33.2279 5.26 33.2079 5.03 33.1679 4.81C33.1679 4.75 33.1679 4.69 33.1679 4.63C33.1679 4.55 33.1579 4.48 33.1379 4.42C33.1379 4.28 33.0879 4.16 32.9879 4.06L32.7779 3.88C32.5779 3.76 32.4479 3.57 32.3879 3.31C32.3679 3.27 32.3579 3.24 32.3579 3.22C32.3579 3.18 32.3479 3.14 32.3279 3.1C32.2879 3 32.3079 2.91 32.3879 2.83C32.4479 2.75 32.4879 2.67 32.5079 2.59C32.5079 2.53 32.5179 2.48 32.5379 2.44C32.5779 2.38 32.6079 2.32 32.6279 2.26C32.6479 2.2 32.6679 2.13 32.6879 2.05C32.7279 1.99 32.7579 1.97 32.7779 1.99C32.9179 1.99 33.0179 1.97 33.0779 1.93C33.2179 1.83 33.3679 1.81 33.5279 1.87C33.5679 1.89 33.6279 1.88 33.7079 1.84C33.7279 1.84 33.7379 1.83 33.7379 1.81C33.8379 1.71 33.9479 1.66 34.0679 1.66C34.1879 1.64 34.3179 1.64 34.4579 1.66C34.4779 1.66 34.4979 1.67 34.5179 1.69C34.5379 1.69 34.5579 1.69 34.5779 1.69C34.7379 1.73 34.8879 1.77 35.0279 1.81C35.1879 1.83 35.3379 1.83 35.4779 1.81C35.5779 1.81 35.6779 1.82 35.7779 1.84C35.8979 1.86 36.0079 1.87 36.1079 1.87C36.1879 1.87 36.2579 1.88 36.3179 1.9C36.3979 1.92 36.4679 1.94 36.5279 1.96C36.6079 1.98 36.6779 2.01 36.7379 2.05C36.7979 2.07 36.8679 2.08 36.9479 2.08C37.0479 2.1 37.1279 2.12 37.1879 2.14C37.2679 2.16 37.3479 2.19 37.4279 2.23C37.6879 2.37 37.9479 2.5 38.2079 2.62C38.3279 2.68 38.4379 2.76 38.5379 2.86C38.6779 2.96 38.7979 3.02 38.8979 3.04C38.9179 3.04 38.9379 3.05 38.9579 3.07C38.9779 3.07 38.9979 3.07 39.0179 3.07C39.0379 3.09 39.0579 3.1 39.0779 3.1C39.0979 3.1 39.1179 3.11 39.1379 3.13C39.2379 3.23 39.3579 3.31 39.4979 3.37C39.6579 3.41 39.7879 3.48 39.8879 3.58C39.9279 3.62 39.9879 3.66 40.0679 3.7C40.2279 3.76 40.3679 3.85 40.4879 3.97C40.5279 4.01 40.5579 4.03 40.5779 4.03C40.6579 4.03 40.7479 4.08 40.8479 4.18L41.4779 4.84C41.5579 4.92 41.6179 4.99 41.6579 5.05C41.7579 5.19 41.8679 5.32 41.9879 5.44C42.1079 5.56 42.2279 5.68 42.3479 5.8C42.3879 5.84 42.4279 5.89 42.4679 5.95C42.5279 5.99 42.5679 6.04 42.5879 6.1C42.6079 6.14 42.6379 6.18 42.6779 6.22C42.7179 6.24 42.7479 6.27 42.7679 6.31C42.9879 6.55 43.1979 6.8 43.3979 7.06C43.6179 7.32 43.8179 7.59 43.9979 7.87C44.0979 8.01 44.1879 8.16 44.2679 8.32C44.3479 8.48 44.4179 8.64 44.4779 8.8C44.5379 8.94 44.5979 9.08 44.6579 9.22C44.7379 9.36 44.8079 9.5 44.8679 9.64C44.9279 9.86 44.9979 10.06 45.0779 10.24C45.1579 10.5 45.2379 10.75 45.3179 10.99C45.3979 11.23 45.4679 11.49 45.5279 11.77L45.6179 12.16C45.6179 12.32 45.6179 12.49 45.6179 12.67C45.6379 12.83 45.6479 13 45.6479 13.18C45.6479 13.26 45.6379 13.33 45.6179 13.39C45.6179 13.45 45.5979 13.52 45.5579 13.6C45.5179 13.72 45.4979 13.83 45.4979 13.93C45.4779 14.13 45.4279 14.32 45.3479 14.5C45.2879 14.68 45.2179 14.85 45.1379 15.01C44.9579 15.33 44.7979 15.65 44.6579 15.97C44.6179 16.05 44.5779 16.13 44.5379 16.21C44.5179 16.27 44.4879 16.34 44.4479 16.42L44.2679 16.78C44.1279 17.06 43.9579 17.34 43.7579 17.62C43.5779 17.88 43.3779 18.13 43.1579 18.37C43.0779 18.47 42.9779 18.57 42.8579 18.67C42.7579 18.75 42.6579 18.84 42.5579 18.94C42.3579 19.12 42.1579 19.3 41.9579 19.48C41.7579 19.64 41.5479 19.8 41.3279 19.96C41.1279 20.1 40.9179 20.23 40.6979 20.35C40.4979 20.47 40.2779 20.57 40.0379 20.65C39.9179 20.67 39.7979 20.73 39.6779 20.83C39.5579 20.91 39.4279 20.99 39.2879 21.07C39.1679 21.15 39.0379 21.24 38.8979 21.34C38.8379 21.36 38.7779 21.39 38.7179 21.43C38.6579 21.45 38.5879 21.47 38.5079 21.49C38.4479 21.51 38.3779 21.53 38.2979 21.55C38.2379 21.57 38.1779 21.59 38.1179 21.61C38.0379 21.63 37.9579 21.66 37.8779 21.7C37.8179 21.74 37.7579 21.79 37.6979 21.85C37.5579 21.95 37.4079 22.03 37.2479 22.09C37.0879 22.17 36.9279 22.26 36.7679 22.36C36.7279 22.38 36.6579 22.39 36.5579 22.39C36.4979 22.41 36.4379 22.41 36.3779 22.39C36.3179 22.39 36.2579 22.39 36.1979 22.39V22.42H36.0179ZM37.2179 19.06C37.4179 19.06 37.5879 19.02 37.7279 18.94C37.8879 18.88 38.0379 18.81 38.1779 18.73C38.3179 18.65 38.4479 18.56 38.5679 18.46L38.9279 18.1C39.1279 17.94 39.3079 17.77 39.4679 17.59C39.6479 17.41 39.8379 17.25 40.0379 17.11C40.0779 17.07 40.0979 17.05 40.0979 17.05C40.1779 16.97 40.2479 16.9 40.3079 16.84C40.3879 16.76 40.4579 16.68 40.5179 16.6C40.5579 16.56 40.6079 16.51 40.6679 16.45C40.7279 16.39 40.7679 16.34 40.7879 16.3C40.8679 16.16 40.9779 16.04 41.1179 15.94C41.2179 15.88 41.2779 15.82 41.2979 15.76C41.3379 15.66 41.3879 15.56 41.4479 15.46C41.5279 15.36 41.6079 15.27 41.6879 15.19C41.7879 15.07 41.8879 14.89 41.9879 14.65L42.1079 14.35C42.2279 14.07 42.2879 13.81 42.2879 13.57C42.3079 13.51 42.3179 13.42 42.3179 13.3C42.3379 13 42.3179 12.68 42.2579 12.34C42.2379 12.24 42.2179 12.14 42.1979 12.04C42.1779 11.94 42.1679 11.85 42.1679 11.77C42.1479 11.69 42.1279 11.62 42.1079 11.56C42.1079 11.48 42.0879 11.41 42.0479 11.35C42.0079 11.27 41.9779 11.19 41.9579 11.11C41.9379 11.03 41.9179 10.95 41.8979 10.87C41.8979 10.73 41.8779 10.61 41.8379 10.51C41.7979 10.39 41.7579 10.27 41.7179 10.15C41.6579 10.03 41.5979 9.91 41.5379 9.79C41.4779 9.65 41.4279 9.51 41.3879 9.37L41.3579 9.25C41.2979 9.17 41.2479 9.09 41.2079 9.01C41.1879 8.91 41.1579 8.82 41.1179 8.74C41.0379 8.56 40.9579 8.38 40.8779 8.2C40.8179 8.02 40.7379 7.85 40.6379 7.69C40.5379 7.51 40.4279 7.33 40.3079 7.15C40.2079 6.97 40.0779 6.81 39.9179 6.67C39.4579 6.17 38.9279 5.72 38.3279 5.32C37.9679 5.06 37.6079 4.89 37.2479 4.81C37.1079 4.77 36.9479 4.74 36.7679 4.72C36.5879 4.68 36.4179 4.65 36.2579 4.63C36.1979 4.63 36.1479 4.65 36.1079 4.69C36.0079 4.77 35.9579 4.87 35.9579 4.99C35.9579 5.13 35.9479 5.28 35.9279 5.44C35.9279 5.58 35.9279 5.73 35.9279 5.89C35.9679 6.17 35.9579 6.4 35.8979 6.58C35.8779 6.66 35.8579 6.74 35.8379 6.82C35.8379 6.9 35.8479 6.99 35.8679 7.09C35.9079 7.21 35.8979 7.32 35.8379 7.42C35.7779 7.54 35.7779 7.67 35.8379 7.81C35.9179 7.97 35.9379 8.17 35.8979 8.41C35.8379 8.65 35.8379 8.89 35.8979 9.13C35.9179 9.21 35.9279 9.29 35.9279 9.37C35.9479 9.45 35.9479 9.54 35.9279 9.64C35.9279 9.86 35.9379 10.08 35.9579 10.3C35.9979 10.52 36.0279 10.74 36.0479 10.96C36.0479 11 36.0679 11.06 36.1079 11.14V11.62C36.1079 11.66 36.0979 11.71 36.0779 11.77C36.0779 11.81 36.0879 11.85 36.1079 11.89C36.1479 12.05 36.1779 12.22 36.1979 12.4C36.2379 12.56 36.2779 12.72 36.3179 12.88C36.3179 12.92 36.3279 12.97 36.3479 13.03C36.3679 13.07 36.3779 13.12 36.3779 13.18C36.3779 13.32 36.3879 13.46 36.4079 13.6C36.4279 13.74 36.4479 13.89 36.4679 14.05C36.5279 14.61 36.6179 15.18 36.7379 15.76C36.7979 16 36.8279 16.25 36.8279 16.51C36.8279 16.57 36.8279 16.64 36.8279 16.72C36.8279 16.78 36.8379 16.84 36.8579 16.9C36.8979 17.04 36.9179 17.18 36.9179 17.32C36.9179 17.46 36.9179 17.6 36.9179 17.74C36.9179 17.78 36.9079 17.83 36.8879 17.89C36.8879 17.95 36.8979 18 36.9179 18.04C36.9579 18.14 36.9779 18.24 36.9779 18.34C36.9779 18.42 36.9779 18.51 36.9779 18.61C36.9779 18.69 36.9979 18.79 37.0379 18.91C37.0379 19.01 37.0979 19.06 37.2179 19.06ZM63.7621 22.42C63.6221 22.42 63.4521 22.37 63.2521 22.27C63.1521 22.21 63.0721 22.13 63.0121 22.03C62.9921 21.97 62.9421 21.97 62.8621 22.03C62.8021 22.07 62.7521 22.07 62.7121 22.03C62.6521 21.97 62.5921 21.93 62.5321 21.91C62.4521 21.91 62.4121 21.88 62.4121 21.82C62.4121 21.76 62.4021 21.71 62.3821 21.67C62.3821 21.61 62.3621 21.56 62.3221 21.52C62.2021 21.48 62.1221 21.38 62.0821 21.22C62.0621 21.16 62.0421 21.11 62.0221 21.07C62.0021 21.01 61.9721 20.95 61.9321 20.89C61.8921 20.81 61.8721 20.74 61.8721 20.68C61.8521 20.62 61.8321 20.57 61.8121 20.53C61.8121 20.47 61.7921 20.41 61.7521 20.35C61.7321 20.21 61.6921 20.08 61.6321 19.96C61.5721 19.84 61.5221 19.71 61.4821 19.57C61.4421 19.49 61.4221 19.38 61.4221 19.24C61.4221 18.88 61.4821 18.55 61.6021 18.25C61.7021 18.07 61.7321 17.89 61.6921 17.71C61.6721 17.63 61.6721 17.55 61.6921 17.47C61.7321 17.39 61.7421 17.31 61.7221 17.23C61.7021 17.15 61.6821 17.08 61.6621 17.02C61.6621 16.96 61.6621 16.89 61.6621 16.81C61.6421 16.77 61.6321 16.72 61.6321 16.66C61.6321 16.54 61.6321 16.42 61.6321 16.3C61.6321 16.16 61.6121 16.02 61.5721 15.88C61.5521 15.82 61.5421 15.73 61.5421 15.61V14.5C61.5221 14.24 61.4921 13.98 61.4521 13.72C61.4121 13.46 61.3621 13.2 61.3021 12.94C61.3021 12.88 61.2921 12.82 61.2721 12.76C61.2721 12.7 61.2721 12.64 61.2721 12.58C61.2721 12.14 61.2021 11.71 61.0621 11.29V11.02C61.1021 10.8 61.0821 10.63 61.0021 10.51C60.9821 10.43 60.9721 10.32 60.9721 10.18V10.15C60.9721 9.95 60.9621 9.75 60.9421 9.55C60.9421 9.35 60.9521 9.15 60.9721 8.95C61.0121 8.59 61.0121 8.21 60.9721 7.81C60.9721 7.65 60.9721 7.49 60.9721 7.33C60.9721 7.17 60.9621 7.02 60.9421 6.88V6.7C60.9821 6.6 61.0021 6.51 61.0021 6.43C61.0021 6.35 61.0021 6.27 61.0021 6.19C61.0021 5.95 60.9921 5.72 60.9721 5.5C60.9721 5.26 60.9521 5.03 60.9121 4.81C60.9121 4.75 60.9121 4.69 60.9121 4.63C60.9121 4.55 60.9021 4.48 60.8821 4.42C60.8821 4.28 60.8321 4.16 60.7321 4.06L60.5221 3.88C60.3221 3.76 60.1921 3.57 60.1321 3.31C60.1121 3.27 60.1021 3.24 60.1021 3.22C60.1021 3.18 60.0921 3.14 60.0721 3.1C60.0321 3 60.0521 2.91 60.1321 2.83C60.1921 2.75 60.2321 2.67 60.2521 2.59C60.2521 2.53 60.2621 2.48 60.2821 2.44C60.3221 2.38 60.3521 2.32 60.3721 2.26C60.3921 2.2 60.4121 2.13 60.4321 2.05C60.4721 1.99 60.5021 1.97 60.5221 1.99C60.6621 1.99 60.7621 1.97 60.8221 1.93C60.9621 1.83 61.1121 1.81 61.2721 1.87C61.3121 1.89 61.3721 1.88 61.4521 1.84C61.4721 1.84 61.4821 1.83 61.4821 1.81C61.5821 1.71 61.6921 1.66 61.8121 1.66C61.9321 1.64 62.0621 1.64 62.2021 1.66C62.2221 1.66 62.2421 1.67 62.2621 1.69C62.2821 1.69 62.3021 1.69 62.3221 1.69C62.4821 1.73 62.6321 1.77 62.7721 1.81C62.9321 1.83 63.0821 1.83 63.2221 1.81C63.3221 1.81 63.4221 1.82 63.5221 1.84C63.6421 1.86 63.7521 1.87 63.8521 1.87C63.9321 1.87 64.0021 1.88 64.0621 1.9C64.1421 1.92 64.2121 1.94 64.2721 1.96C64.3521 1.98 64.4221 2.01 64.4821 2.05C64.5421 2.07 64.6121 2.08 64.6921 2.08C64.7921 2.1 64.8721 2.12 64.9321 2.14C65.0121 2.16 65.0921 2.19 65.1721 2.23C65.4321 2.37 65.6921 2.5 65.9521 2.62C66.0721 2.68 66.1821 2.76 66.2821 2.86C66.4221 2.96 66.5421 3.02 66.6421 3.04C66.6621 3.04 66.6821 3.05 66.7021 3.07C66.7221 3.07 66.7421 3.07 66.7621 3.07C66.7821 3.09 66.8021 3.1 66.8221 3.1C66.8421 3.1 66.8621 3.11 66.8821 3.13C66.9821 3.23 67.1021 3.31 67.2421 3.37C67.4021 3.41 67.5321 3.48 67.6321 3.58C67.6721 3.62 67.7321 3.66 67.8121 3.7C67.9721 3.76 68.1121 3.85 68.2321 3.97C68.2721 4.01 68.3021 4.03 68.3221 4.03C68.4021 4.03 68.4921 4.08 68.5921 4.18L69.2221 4.84C69.3021 4.92 69.3621 4.99 69.4021 5.05C69.5021 5.19 69.6121 5.32 69.7321 5.44C69.8521 5.56 69.9721 5.68 70.0921 5.8C70.1321 5.84 70.1721 5.89 70.2121 5.95C70.2721 5.99 70.3121 6.04 70.3321 6.1C70.3521 6.14 70.3821 6.18 70.4221 6.22C70.4621 6.24 70.4921 6.27 70.5121 6.31C70.7321 6.55 70.9421 6.8 71.1421 7.06C71.3621 7.32 71.5621 7.59 71.7421 7.87C71.8421 8.01 71.9321 8.16 72.0121 8.32C72.0921 8.48 72.1621 8.64 72.2221 8.8C72.2821 8.94 72.3421 9.08 72.4021 9.22C72.4821 9.36 72.5521 9.5 72.6121 9.64C72.6721 9.86 72.7421 10.06 72.8221 10.24C72.9021 10.5 72.9821 10.75 73.0621 10.99C73.1421 11.23 73.2121 11.49 73.2721 11.77L73.3621 12.16C73.3621 12.32 73.3621 12.49 73.3621 12.67C73.3821 12.83 73.3921 13 73.3921 13.18C73.3921 13.26 73.3821 13.33 73.3621 13.39C73.3621 13.45 73.3421 13.52 73.3021 13.6C73.2621 13.72 73.2421 13.83 73.2421 13.93C73.2221 14.13 73.1721 14.32 73.0921 14.5C73.0321 14.68 72.9621 14.85 72.8821 15.01C72.7021 15.33 72.5421 15.65 72.4021 15.97C72.3621 16.05 72.3221 16.13 72.2821 16.21C72.2621 16.27 72.2321 16.34 72.1921 16.42L72.0121 16.78C71.8721 17.06 71.7021 17.34 71.5021 17.62C71.3221 17.88 71.1221 18.13 70.9021 18.37C70.8221 18.47 70.7221 18.57 70.6021 18.67C70.5021 18.75 70.4021 18.84 70.3021 18.94C70.1021 19.12 69.9021 19.3 69.7021 19.48C69.5021 19.64 69.2921 19.8 69.0721 19.96C68.8721 20.1 68.6621 20.23 68.4421 20.35C68.2421 20.47 68.0221 20.57 67.7821 20.65C67.6621 20.67 67.5421 20.73 67.4221 20.83C67.3021 20.91 67.1721 20.99 67.0321 21.07C66.9121 21.15 66.7821 21.24 66.6421 21.34C66.5821 21.36 66.5221 21.39 66.4621 21.43C66.4021 21.45 66.3321 21.47 66.2521 21.49C66.1921 21.51 66.1221 21.53 66.0421 21.55C65.9821 21.57 65.9221 21.59 65.8621 21.61C65.7821 21.63 65.7021 21.66 65.6221 21.7C65.5621 21.74 65.5021 21.79 65.4421 21.85C65.3021 21.95 65.1521 22.03 64.9921 22.09C64.8321 22.17 64.6721 22.26 64.5121 22.36C64.4721 22.38 64.4021 22.39 64.3021 22.39C64.2421 22.41 64.1821 22.41 64.1221 22.39C64.0621 22.39 64.0021 22.39 63.9421 22.39V22.42H63.7621ZM64.9621 19.06C65.1621 19.06 65.3321 19.02 65.4721 18.94C65.6321 18.88 65.7821 18.81 65.9221 18.73C66.0621 18.65 66.1921 18.56 66.3121 18.46L66.6721 18.1C66.8721 17.94 67.0521 17.77 67.2121 17.59C67.3921 17.41 67.5821 17.25 67.7821 17.11C67.8221 17.07 67.8421 17.05 67.8421 17.05C67.9221 16.97 67.9921 16.9 68.0521 16.84C68.1321 16.76 68.2021 16.68 68.2621 16.6C68.3021 16.56 68.3521 16.51 68.4121 16.45C68.4721 16.39 68.5121 16.34 68.5321 16.3C68.6121 16.16 68.7221 16.04 68.8621 15.94C68.9621 15.88 69.0221 15.82 69.0421 15.76C69.0821 15.66 69.1321 15.56 69.1921 15.46C69.2721 15.36 69.3521 15.27 69.4321 15.19C69.5321 15.07 69.6321 14.89 69.7321 14.65L69.8521 14.35C69.9721 14.07 70.0321 13.81 70.0321 13.57C70.0521 13.51 70.0621 13.42 70.0621 13.3C70.0821 13 70.0621 12.68 70.0021 12.34C69.9821 12.24 69.9621 12.14 69.9421 12.04C69.9221 11.94 69.9121 11.85 69.9121 11.77C69.8921 11.69 69.8721 11.62 69.8521 11.56C69.8521 11.48 69.8321 11.41 69.7921 11.35C69.7521 11.27 69.7221 11.19 69.7021 11.11C69.6821 11.03 69.6621 10.95 69.6421 10.87C69.6421 10.73 69.6221 10.61 69.5821 10.51C69.5421 10.39 69.5021 10.27 69.4621 10.15C69.4021 10.03 69.3421 9.91 69.2821 9.79C69.2221 9.65 69.1721 9.51 69.1321 9.37L69.1021 9.25C69.0421 9.17 68.9921 9.09 68.9521 9.01C68.9321 8.91 68.9021 8.82 68.8621 8.74C68.7821 8.56 68.7021 8.38 68.6221 8.2C68.5621 8.02 68.4821 7.85 68.3821 7.69C68.2821 7.51 68.1721 7.33 68.0521 7.15C67.9521 6.97 67.8221 6.81 67.6621 6.67C67.2021 6.17 66.6721 5.72 66.0721 5.32C65.7121 5.06 65.3521 4.89 64.9921 4.81C64.8521 4.77 64.6921 4.74 64.5121 4.72C64.3321 4.68 64.1621 4.65 64.0021 4.63C63.9421 4.63 63.8921 4.65 63.8521 4.69C63.7521 4.77 63.7021 4.87 63.7021 4.99C63.7021 5.13 63.6921 5.28 63.6721 5.44C63.6721 5.58 63.6721 5.73 63.6721 5.89C63.7121 6.17 63.7021 6.4 63.6421 6.58C63.6221 6.66 63.6021 6.74 63.5821 6.82C63.5821 6.9 63.5921 6.99 63.6121 7.09C63.6521 7.21 63.6421 7.32 63.5821 7.42C63.5221 7.54 63.5221 7.67 63.5821 7.81C63.6621 7.97 63.6821 8.17 63.6421 8.41C63.5821 8.65 63.5821 8.89 63.6421 9.13C63.6621 9.21 63.6721 9.29 63.6721 9.37C63.6921 9.45 63.6921 9.54 63.6721 9.64C63.6721 9.86 63.6821 10.08 63.7021 10.3C63.7421 10.52 63.7721 10.74 63.7921 10.96C63.7921 11 63.8121 11.06 63.8521 11.14V11.62C63.8521 11.66 63.8421 11.71 63.8221 11.77C63.8221 11.81 63.8321 11.85 63.8521 11.89C63.8921 12.05 63.9221 12.22 63.9421 12.4C63.9821 12.56 64.0221 12.72 64.0621 12.88C64.0621 12.92 64.0721 12.97 64.0921 13.03C64.1121 13.07 64.1221 13.12 64.1221 13.18C64.1221 13.32 64.1321 13.46 64.1521 13.6C64.1721 13.74 64.1921 13.89 64.2121 14.05C64.2721 14.61 64.3621 15.18 64.4821 15.76C64.5421 16 64.5721 16.25 64.5721 16.51C64.5721 16.57 64.5721 16.64 64.5721 16.72C64.5721 16.78 64.5821 16.84 64.6021 16.9C64.6421 17.04 64.6621 17.18 64.6621 17.32C64.6621 17.46 64.6621 17.6 64.6621 17.74C64.6621 17.78 64.6521 17.83 64.6321 17.89C64.6321 17.95 64.6421 18 64.6621 18.04C64.7021 18.14 64.7221 18.24 64.7221 18.34C64.7221 18.42 64.7221 18.51 64.7221 18.61C64.7221 18.69 64.7421 18.79 64.7821 18.91C64.7821 19.01 64.8421 19.06 64.9621 19.06ZM79.6068 22.21C79.4868 22.21 79.4068 22.2 79.3668 22.18C79.2668 22.14 79.1668 22.12 79.0668 22.12C78.9868 22.14 78.8968 22.15 78.7968 22.15C78.7768 22.15 78.7568 22.15 78.7368 22.15C78.7168 22.17 78.6968 22.18 78.6768 22.18C78.5368 22.2 78.3968 22.21 78.2568 22.21C78.1368 22.21 78.0168 22.19 77.8968 22.15C77.8768 22.13 77.8568 22.12 77.8368 22.12C77.6968 22.14 77.5768 22.1 77.4768 22C77.3768 21.9 77.2768 21.81 77.1768 21.73C77.0768 21.63 77.0268 21.52 77.0268 21.4L76.9368 21.16C76.8768 21.02 76.8568 20.89 76.8768 20.77C76.8968 20.73 76.8968 20.69 76.8768 20.65C76.8768 20.61 76.8768 20.57 76.8768 20.53C76.8568 20.49 76.8468 20.45 76.8468 20.41C76.8468 20.35 76.8368 20.3 76.8168 20.26C76.7768 20.08 76.7468 19.9 76.7268 19.72C76.7268 19.52 76.7368 19.33 76.7568 19.15C76.7768 19.03 76.8468 18.83 76.9668 18.55C77.0868 18.25 77.1568 18.07 77.1768 18.01C77.2368 17.91 77.2668 17.83 77.2668 17.77C77.2468 17.55 77.2368 17.33 77.2368 17.11C77.2568 16.87 77.2668 16.64 77.2668 16.42C77.2668 16.28 77.2968 16.17 77.3568 16.09C77.4368 15.95 77.4468 15.8 77.3868 15.64L77.2968 15.31C77.1768 15.09 77.1868 14.9 77.3268 14.74C77.3268 14.72 77.3268 14.71 77.3268 14.71C77.3468 14.69 77.3568 14.67 77.3568 14.65C77.3968 14.61 77.4068 14.56 77.3868 14.5C77.3668 14.42 77.3568 14.36 77.3568 14.32C77.3568 14.24 77.3668 14.16 77.3868 14.08C77.4268 13.98 77.4368 13.89 77.4168 13.81C77.4168 13.81 77.3968 13.79 77.3568 13.75C77.3368 13.71 77.3268 13.63 77.3268 13.51C77.3468 13.39 77.3568 13.32 77.3568 13.3V12.46C77.3768 12.36 77.3868 12.27 77.3868 12.19C77.3868 12.09 77.3968 11.99 77.4168 11.89C77.4368 11.77 77.4368 11.65 77.4168 11.53C77.4168 11.39 77.4168 11.25 77.4168 11.11C77.3968 11.01 77.3768 10.9 77.3568 10.78C77.3568 10.66 77.3568 10.54 77.3568 10.42C77.3368 10.38 77.3268 10.33 77.3268 10.27C77.3268 10.21 77.3268 10.16 77.3268 10.12C77.3068 10.02 77.2868 9.92 77.2668 9.82C77.2668 9.72 77.2668 9.62 77.2668 9.52C77.2668 9.48 77.2268 9.35 77.1468 9.13C77.0668 8.89 77.0368 8.69 77.0568 8.53C77.0768 8.49 77.0868 8.44 77.0868 8.38C77.0868 8.32 77.0668 8.27 77.0268 8.23C76.9868 8.21 76.9668 8.17 76.9668 8.11V8.02C77.0268 7.78 76.9968 7.54 76.8768 7.3C76.7968 7.18 76.7668 7.06 76.7868 6.94C76.7868 6.78 76.7168 6.66 76.5768 6.58C76.4768 6.48 76.3868 6.36 76.3068 6.22C76.2268 6.08 76.1768 5.94 76.1568 5.8C76.1368 5.7 76.1268 5.6 76.1268 5.5C76.1268 5.4 76.1268 5.31 76.1268 5.23C76.1268 5.15 76.1368 5.1 76.1568 5.08C76.2368 5 76.2768 4.91 76.2768 4.81C76.2768 4.69 76.2868 4.6 76.3068 4.54C76.3268 4.52 76.3468 4.51 76.3668 4.51C76.3868 4.51 76.4068 4.5 76.4268 4.48C76.5068 4.46 76.5468 4.39 76.5468 4.27C76.5068 4.19 76.4868 4.12 76.4868 4.06C76.4668 3.98 76.4968 3.91 76.5768 3.85C76.6168 3.77 76.6668 3.75 76.7268 3.79C76.8668 3.85 77.0268 3.83 77.2068 3.73C77.2868 3.69 77.3368 3.67 77.3568 3.67C77.4168 3.67 77.4468 3.67 77.4468 3.67C77.4668 3.65 77.5268 3.64 77.6268 3.64C77.7468 3.66 77.8568 3.62 77.9568 3.52C78.0968 3.38 78.2668 3.31 78.4668 3.31H80.3268C80.7868 3.33 81.2468 3.33 81.7068 3.31C82.1668 3.29 82.6168 3.28 83.0568 3.28C83.1568 3.28 83.2368 3.28 83.2968 3.28C83.3768 3.26 83.4568 3.24 83.5368 3.22C83.6568 3.16 83.7968 3.13 83.9568 3.13H84.6468C84.8068 3.13 84.9468 3.13 85.0668 3.13C85.2068 3.11 85.3468 3.09 85.4868 3.07C85.5668 3.05 85.6368 3.04 85.6968 3.04C85.7768 3.04 85.8568 3.04 85.9368 3.04C86.0168 3.04 86.0968 3.04 86.1768 3.04C86.2568 3.04 86.3368 3.03 86.4168 3.01C86.5768 2.99 86.7468 2.98 86.9268 2.98C87.1068 2.96 87.2768 2.95 87.4368 2.95C87.5168 2.95 87.5868 2.95 87.6468 2.95C87.7268 2.93 87.8068 2.91 87.8868 2.89C88.0468 2.85 88.1968 2.83 88.3368 2.83C88.4968 2.81 88.6468 2.79 88.7868 2.77C88.9468 2.75 89.0968 2.73 89.2368 2.71C89.3968 2.69 89.5468 2.67 89.6868 2.65C89.8668 2.65 89.9968 2.67 90.0768 2.71C90.1968 2.79 90.3068 2.86 90.4068 2.92C90.5268 2.98 90.6368 3.06 90.7368 3.16C90.8168 3.24 90.8668 3.31 90.8868 3.37C90.9068 3.45 90.9268 3.53 90.9468 3.61C90.9668 3.69 90.9868 3.78 91.0068 3.88V4.09C90.9868 4.19 90.9668 4.3 90.9468 4.42C90.9468 4.52 90.9368 4.63 90.9168 4.75C90.8768 4.83 90.8268 4.9 90.7668 4.96L90.2268 5.5C90.0268 5.56 89.8268 5.6 89.6268 5.62C89.4468 5.64 89.2568 5.64 89.0568 5.62H88.8468C88.7468 5.64 88.6468 5.65 88.5468 5.65C88.4468 5.65 88.3468 5.64 88.2468 5.62C88.1268 5.6 88.0068 5.6 87.8868 5.62C87.7668 5.62 87.6468 5.62 87.5268 5.62C87.4468 5.62 87.3668 5.63 87.2868 5.65C87.2268 5.65 87.1568 5.64 87.0768 5.62C86.9768 5.6 86.8768 5.6 86.7768 5.62C86.6968 5.62 86.6068 5.63 86.5068 5.65C86.4268 5.65 86.3368 5.66 86.2368 5.68C86.1568 5.68 86.0668 5.68 85.9668 5.68C85.7068 5.72 85.4268 5.74 85.1268 5.74C84.8468 5.74 84.5668 5.76 84.2868 5.8C84.1068 5.78 83.9368 5.79 83.7768 5.83C83.6168 5.85 83.4468 5.87 83.2668 5.89C83.1068 5.91 82.9368 5.92 82.7568 5.92C82.5768 5.92 82.4068 5.94 82.2468 5.98C82.0468 5.98 81.8468 6.01 81.6468 6.07C81.4668 6.11 81.2768 6.14 81.0768 6.16L80.8668 6.19C80.7268 6.19 80.5968 6.21 80.4768 6.25C80.3568 6.27 80.2268 6.3 80.0868 6.34C80.0068 6.36 79.9268 6.38 79.8468 6.4C79.7668 6.4 79.6768 6.41 79.5768 6.43C79.5168 6.43 79.4468 6.45 79.3668 6.49C79.3068 6.51 79.2768 6.57 79.2768 6.67L79.3668 6.94C79.3868 6.98 79.3768 7.08 79.3368 7.24C79.3168 7.4 79.2968 7.52 79.2768 7.6C79.2768 7.66 79.2868 7.72 79.3068 7.78C79.3268 7.84 79.3468 7.9 79.3668 7.96C79.4268 8.12 79.4568 8.3 79.4568 8.5C79.4568 8.68 79.4768 8.85 79.5168 9.01C79.5368 9.09 79.5468 9.18 79.5468 9.28C79.5468 9.36 79.5568 9.45 79.5768 9.55C79.5768 9.59 79.5768 9.64 79.5768 9.7C79.5968 9.74 79.6068 9.79 79.6068 9.85C79.6068 9.91 79.5968 9.95 79.5768 9.97C79.5168 10.05 79.4868 10.14 79.4868 10.24C79.4868 10.34 79.4868 10.44 79.4868 10.54C79.5868 10.74 79.6368 10.94 79.6368 11.14C79.6368 11.34 79.6368 11.54 79.6368 11.74C79.6368 11.8 79.6868 11.82 79.7868 11.8H79.8168C79.8568 11.72 79.8968 11.66 79.9368 11.62C79.9968 11.62 80.0668 11.6 80.1468 11.56C80.2068 11.52 80.2868 11.5 80.3868 11.5C80.5468 11.52 80.6968 11.52 80.8368 11.5C80.9768 11.46 81.1168 11.42 81.2568 11.38C82.1968 11.14 83.0768 10.83 83.8968 10.45C84.1168 10.35 84.3468 10.27 84.5868 10.21C84.8268 10.13 85.0668 10.08 85.3068 10.06H85.3968C85.5768 10.04 85.7568 10.02 85.9368 10C86.1168 9.98 86.2968 9.97 86.4768 9.97C86.7168 9.95 86.9468 9.92 87.1668 9.88C87.4068 9.84 87.6468 9.81 87.8868 9.79C88.0268 9.75 88.1568 9.72 88.2768 9.7C88.3968 9.66 88.5268 9.61 88.6668 9.55C88.9268 9.45 89.1668 9.4 89.3868 9.4C89.5468 9.42 89.6968 9.46 89.8368 9.52C89.9768 9.56 90.1168 9.62 90.2568 9.7C90.5568 9.9 90.7068 10.2 90.7068 10.6C90.7068 10.76 90.6868 10.92 90.6468 11.08C90.6268 11.24 90.6168 11.4 90.6168 11.56C90.6168 11.6 90.5968 11.64 90.5568 11.68L90.4668 11.83C90.4468 11.91 90.4268 11.99 90.4068 12.07C90.3868 12.15 90.3368 12.21 90.2568 12.25C90.1368 12.35 90.0068 12.46 89.8668 12.58C89.7468 12.68 89.6068 12.75 89.4468 12.79C89.3668 12.81 89.2868 12.83 89.2068 12.85C89.1468 12.87 89.0768 12.88 88.9968 12.88C88.6768 12.88 88.3468 12.9 88.0068 12.94C87.6868 12.98 87.3568 13.02 87.0168 13.06C86.7568 13.08 86.4968 13.11 86.2368 13.15C85.9968 13.19 85.7468 13.21 85.4868 13.21C85.2468 13.21 84.9768 13.26 84.6768 13.36C84.4768 13.4 84.2668 13.44 84.0468 13.48C83.8268 13.52 83.6068 13.55 83.3868 13.57C83.2268 13.59 83.0568 13.62 82.8768 13.66C82.7168 13.68 82.5568 13.7 82.3968 13.72L81.8868 13.81C81.8468 13.83 81.7868 13.84 81.7068 13.84C81.5668 13.88 81.4268 13.91 81.2868 13.93C81.1468 13.95 81.0068 13.98 80.8668 14.02C80.7268 14.04 80.5868 14.07 80.4468 14.11C80.3268 14.15 80.1968 14.19 80.0568 14.23C79.9568 14.25 79.8768 14.29 79.8168 14.35C79.7568 14.39 79.7068 14.45 79.6668 14.53C79.6468 14.59 79.6468 14.65 79.6668 14.71C79.6868 14.79 79.6768 14.87 79.6368 14.95C79.6568 15.15 79.6668 15.35 79.6668 15.55C79.6868 15.75 79.6868 15.95 79.6668 16.15C79.7068 16.31 79.7168 16.47 79.6968 16.63C79.6968 16.79 79.6868 16.95 79.6668 17.11C79.6268 17.35 79.6368 17.55 79.6968 17.71C79.7568 17.97 79.7368 18.24 79.6368 18.52C79.5968 18.64 79.5968 18.72 79.6368 18.76C79.6768 18.82 79.6768 18.89 79.6368 18.97V19.15C79.6168 19.31 79.6868 19.39 79.8468 19.39H79.9068C80.0468 19.39 80.1868 19.44 80.3268 19.54C80.4268 19.64 80.5468 19.67 80.6868 19.63L81.5268 19.54C81.6468 19.52 81.7668 19.51 81.8868 19.51C82.0068 19.49 82.1268 19.48 82.2468 19.48C82.2868 19.46 82.3468 19.47 82.4268 19.51C82.5268 19.57 82.6168 19.58 82.6968 19.54C82.7368 19.5 82.7868 19.47 82.8468 19.45C82.9268 19.43 82.9868 19.4 83.0268 19.36C83.1468 19.24 83.2968 19.2 83.4768 19.24C83.6368 19.28 83.7668 19.27 83.8668 19.21C84.0468 19.15 84.2168 19.13 84.3768 19.15C84.4768 19.17 84.5768 19.16 84.6768 19.12C84.7768 19.08 84.8768 19.06 84.9768 19.06C85.0168 19.06 85.0468 19.07 85.0668 19.09C85.0868 19.09 85.1068 19.08 85.1268 19.06C85.1668 19.06 85.2068 19.05 85.2468 19.03C85.2868 19.01 85.3168 19 85.3368 19C85.4768 18.94 85.6068 18.92 85.7268 18.94C85.8268 18.94 85.8768 18.94 85.8768 18.94C85.9568 18.92 86.0268 18.92 86.0868 18.94C86.1668 18.96 86.2368 18.99 86.2968 19.03C86.3968 19.05 86.4768 19.08 86.5368 19.12C86.6168 19.16 86.6968 19.19 86.7768 19.21C86.8168 19.21 86.8468 19.22 86.8668 19.24C86.9668 19.32 87.0868 19.39 87.2268 19.45C87.3868 19.51 87.4768 19.58 87.4968 19.66C87.5368 19.78 87.5568 19.9 87.5568 20.02C87.5568 20.12 87.5668 20.23 87.5868 20.35C87.5868 20.41 87.5768 20.47 87.5568 20.53C87.5568 20.59 87.5468 20.65 87.5268 20.71C87.4868 20.79 87.4368 20.88 87.3768 20.98C87.3368 21.08 87.2768 21.17 87.1968 21.25C87.1568 21.29 87.1168 21.33 87.0768 21.37C87.0568 21.41 87.0268 21.45 86.9868 21.49C86.9068 21.57 86.8168 21.64 86.7168 21.7C86.6168 21.76 86.5068 21.79 86.3868 21.79C86.3068 21.79 86.2468 21.8 86.2068 21.82C86.1268 21.86 86.0468 21.88 85.9668 21.88C85.8868 21.88 85.7968 21.88 85.6968 21.88C85.5568 21.9 85.4168 21.92 85.2768 21.94C85.1568 21.94 85.0268 21.93 84.8868 21.91C84.8068 21.89 84.7368 21.89 84.6768 21.91C84.4768 21.97 84.2768 21.98 84.0768 21.94C83.8768 21.94 83.6768 21.95 83.4768 21.97C83.2968 21.97 83.1168 21.97 82.9368 21.97H82.5468C82.4868 21.97 82.4368 21.98 82.3968 22C82.3168 22.04 82.2168 22.06 82.0968 22.06C81.9968 22.06 81.8968 22.05 81.7968 22.03H81.4968C81.4768 22.03 81.4468 22.03 81.4068 22.03C81.3668 22.05 81.3268 22.05 81.2868 22.03C81.2268 22.01 81.1668 22 81.1068 22C81.0668 22.02 81.0168 22.04 80.9568 22.06C80.9168 22.06 80.8768 22.06 80.8368 22.06C80.8168 22.08 80.7868 22.09 80.7468 22.09C80.5468 22.07 80.3568 22.07 80.1768 22.09C79.9968 22.13 79.8068 22.17 79.6068 22.21ZM98.7526 22.15C98.6726 22.15 98.6026 22.15 98.5426 22.15C98.4826 22.15 98.4126 22.14 98.3326 22.12C98.2926 22.12 98.2426 22.11 98.1826 22.09C98.1426 22.09 98.1026 22.09 98.0626 22.09C97.7426 22.07 97.4426 22.01 97.1626 21.91C96.8826 21.81 96.6026 21.69 96.3226 21.55C96.3026 21.55 96.2826 21.55 96.2626 21.55C96.2626 21.53 96.2526 21.52 96.2326 21.52C96.0326 21.42 95.8526 21.3 95.6926 21.16C95.5526 21.02 95.4126 20.88 95.2726 20.74C95.1126 20.54 95.0026 20.35 94.9426 20.17C94.8626 20.01 94.7626 19.84 94.6426 19.66C94.4426 19.44 94.2926 19.16 94.1926 18.82C94.1326 18.66 94.0726 18.5 94.0126 18.34C93.9526 18.18 93.9026 18.01 93.8626 17.83C93.8426 17.77 93.8226 17.71 93.8026 17.65C93.7826 17.57 93.7526 17.49 93.7126 17.41C93.6726 17.31 93.6326 17.2 93.5926 17.08C93.5726 16.96 93.5426 16.84 93.5026 16.72C93.4826 16.64 93.4526 16.51 93.4126 16.33C93.3926 16.13 93.3826 16.01 93.3826 15.97V14.68C93.4026 14.56 93.4226 14.45 93.4426 14.35C93.4626 14.23 93.4826 14.11 93.5026 13.99L93.5326 13.96C93.5326 13.98 93.5326 13.99 93.5326 13.99C93.5526 13.99 93.5626 14 93.5626 14.02C93.5826 14.02 93.5926 14.03 93.5926 14.05C93.6126 14.07 93.6226 14.06 93.6226 14.02C93.6226 13.9 93.6126 13.8 93.5926 13.72C93.5926 13.68 93.5826 13.64 93.5626 13.6C93.5626 13.56 93.6026 13.53 93.6826 13.51C93.7026 13.51 93.7126 13.48 93.7126 13.42L93.9826 12.1C94.0026 12 94.0226 11.91 94.0426 11.83C94.0626 11.73 94.0826 11.64 94.1026 11.56L94.1626 11.23C94.1426 11.27 94.1526 11.2 94.1926 11.02C94.2526 10.84 94.2926 10.72 94.3126 10.66C94.3526 10.56 94.4026 10.46 94.4626 10.36C94.5426 10.26 94.5926 10.19 94.6126 10.15C94.7726 9.97 94.9226 9.72 95.0626 9.4L95.6326 8.5C95.7126 8.42 95.7526 8.32 95.7526 8.2C95.7326 8.1 95.7626 7.99 95.8426 7.87C95.9026 7.75 95.9626 7.63 96.0226 7.51C96.1026 7.39 96.1826 7.27 96.2626 7.15C96.3626 6.99 96.4726 6.83 96.5926 6.67C96.7326 6.49 96.8626 6.33 96.9826 6.19C97.0226 6.13 97.0626 6.07 97.1026 6.01C97.1626 5.95 97.2326 5.91 97.3126 5.89C97.3526 5.89 97.3826 5.88 97.4026 5.86C97.4226 5.84 97.4426 5.82 97.4626 5.8C97.8626 5.38 98.3126 4.99 98.8126 4.63C98.8526 4.59 98.8926 4.55 98.9326 4.51C98.9726 4.47 99.0126 4.44 99.0526 4.42C99.1526 4.36 99.2626 4.33 99.3826 4.33C99.4826 4.33 99.5626 4.32 99.6226 4.3C99.6826 4.3 99.7726 4.28 99.8926 4.24C100.033 4.2 100.143 4.22 100.223 4.3C100.343 4.42 100.543 4.46 100.823 4.42C101.003 4.4 101.153 4.5 101.273 4.72C101.313 4.78 101.343 4.84 101.363 4.9C101.403 4.96 101.453 5.01 101.513 5.05C101.573 5.17 101.653 5.28 101.753 5.38C101.873 5.48 101.973 5.58 102.053 5.68L102.443 6.22C102.483 6.28 102.523 6.35 102.563 6.43C102.623 6.49 102.673 6.55 102.713 6.61C102.813 6.71 102.873 6.81 102.893 6.91C102.933 7.01 102.963 7.08 102.983 7.12C103.023 7.14 103.053 7.23 103.073 7.39C103.093 7.47 103.093 7.52 103.073 7.54C103.073 7.54 103.113 7.54 103.193 7.54C103.273 7.54 103.313 7.59 103.313 7.69C103.313 7.91 103.273 8.1 103.193 8.26C103.153 8.32 103.113 8.35 103.073 8.35C103.053 8.35 103.023 8.37 102.983 8.41C102.923 8.51 102.853 8.61 102.773 8.71C102.713 8.81 102.643 8.92 102.563 9.04C102.503 9.14 102.423 9.23 102.323 9.31C102.243 9.39 102.153 9.47 102.053 9.55C101.893 9.71 101.703 9.77 101.483 9.73C101.303 9.73 101.173 9.72 101.093 9.7C101.033 9.68 100.973 9.66 100.913 9.64C100.873 9.6 100.823 9.57 100.763 9.55C100.723 9.55 100.683 9.53 100.643 9.49C100.623 9.45 100.603 9.42 100.583 9.4C100.563 9.36 100.533 9.33 100.493 9.31C100.393 9.25 100.313 9.18 100.253 9.1C100.193 9 100.143 8.91 100.103 8.83C100.083 8.77 100.073 8.71 100.073 8.65C100.073 8.59 100.073 8.54 100.073 8.5C100.053 8.38 100.033 8.26 100.013 8.14C100.013 8.02 99.9926 7.9 99.9526 7.78C99.9526 7.74 99.9026 7.72 99.8026 7.72C99.6826 7.8 99.5626 7.88 99.4426 7.96C99.3226 8.04 99.2126 8.14 99.1126 8.26L98.1826 9.37C98.1226 9.43 98.0626 9.5 98.0026 9.58C97.9626 9.64 97.9226 9.7 97.8826 9.76C97.8026 9.86 97.7226 9.97 97.6426 10.09C97.5826 10.19 97.5026 10.29 97.4026 10.39C97.3626 10.43 97.3326 10.47 97.3126 10.51C97.2526 10.65 97.1826 10.78 97.1026 10.9C97.0426 11.02 96.9826 11.16 96.9226 11.32C96.8226 11.52 96.7326 11.74 96.6526 11.98C96.5926 12.2 96.5426 12.43 96.5026 12.67C96.4826 12.97 96.4226 13.27 96.3226 13.57C96.3026 13.67 96.2826 13.78 96.2626 13.9C96.2426 14.02 96.2226 14.14 96.2026 14.26C96.1826 14.44 96.1526 14.62 96.1126 14.8C96.0726 14.98 96.0626 15.17 96.0826 15.37C96.1226 15.77 96.1826 16.15 96.2626 16.51C96.3226 16.71 96.3726 16.91 96.4126 17.11C96.4726 17.29 96.5326 17.48 96.5926 17.68C96.6126 17.74 96.6326 17.8 96.6526 17.86C96.6726 17.92 96.6926 17.98 96.7126 18.04C96.8326 18.32 97.0526 18.54 97.3726 18.7C97.4926 18.76 97.6226 18.79 97.7626 18.79C97.8826 18.79 98.0026 18.8 98.1226 18.82C98.2426 18.82 98.3626 18.81 98.4826 18.79C99.0426 18.73 99.5626 18.64 100.043 18.52C100.263 18.48 100.473 18.42 100.673 18.34C100.873 18.26 101.073 18.18 101.273 18.1C101.433 18.04 101.583 17.95 101.723 17.83C101.883 17.71 102.043 17.59 102.203 17.47C102.383 17.33 102.553 17.19 102.713 17.05C102.873 16.91 103.033 16.77 103.193 16.63C103.353 16.49 103.503 16.34 103.643 16.18C103.703 16.12 103.793 16.05 103.913 15.97C103.973 15.93 104.033 15.89 104.093 15.85C104.153 15.81 104.203 15.77 104.243 15.73C104.343 15.67 104.433 15.61 104.513 15.55C104.613 15.49 104.723 15.46 104.843 15.46C104.903 15.42 104.963 15.4 105.023 15.4C105.103 15.38 105.173 15.36 105.233 15.34C105.413 15.28 105.573 15.28 105.713 15.34C105.773 15.36 105.833 15.38 105.893 15.4C105.953 15.42 106.013 15.45 106.073 15.49C106.233 15.59 106.383 15.75 106.523 15.97C106.623 16.21 106.673 16.42 106.673 16.6V16.78C106.673 17.04 106.573 17.27 106.373 17.47C106.153 17.75 105.923 17.97 105.683 18.13C105.543 18.21 105.403 18.32 105.263 18.46C105.063 18.62 104.853 18.79 104.633 18.97C104.433 19.15 104.223 19.32 104.003 19.48L103.883 19.6C103.823 19.64 103.763 19.69 103.703 19.75C103.643 19.81 103.573 19.86 103.493 19.9C103.353 20.04 103.193 20.17 103.013 20.29C102.833 20.39 102.653 20.49 102.473 20.59C102.293 20.67 102.123 20.79 101.963 20.95C101.903 21.01 101.843 21.07 101.783 21.13C101.723 21.19 101.653 21.24 101.573 21.28C101.313 21.42 101.013 21.56 100.673 21.7C100.653 21.72 100.623 21.74 100.583 21.76C100.543 21.78 100.503 21.8 100.463 21.82C100.343 21.88 100.213 21.93 100.073 21.97C99.9526 21.99 99.8326 22.01 99.7126 22.03C99.5526 22.05 99.3926 22.06 99.2326 22.06C99.0726 22.08 98.9126 22.11 98.7526 22.15ZM111.574 22.3C111.454 22.3 111.374 22.29 111.334 22.27C111.254 22.23 111.184 22.2 111.124 22.18C111.064 22.16 111.004 22.14 110.944 22.12C110.884 22.08 110.824 22.04 110.764 22C110.724 21.94 110.684 21.88 110.644 21.82C110.604 21.78 110.564 21.76 110.524 21.76C110.404 21.76 110.344 21.7 110.344 21.58C110.324 21.46 110.304 21.34 110.284 21.22C110.264 21.1 110.244 20.98 110.224 20.86C110.204 20.68 110.184 20.5 110.164 20.32C110.164 20.14 110.144 19.97 110.104 19.81V19.54C110.104 19.46 110.094 19.39 110.074 19.33C110.074 19.27 110.074 19.2 110.074 19.12C110.034 19.02 110.034 18.94 110.074 18.88C110.114 18.52 110.114 18.16 110.074 17.8C110.054 17.7 110.044 17.6 110.044 17.5C110.044 17.4 110.034 17.3 110.014 17.2C110.014 17 110.014 16.8 110.014 16.6C110.014 16.38 109.994 16.17 109.954 15.97V15.49C109.954 15.33 109.944 15.18 109.924 15.04C109.924 14.9 109.914 14.76 109.894 14.62C109.874 14.44 109.854 14.26 109.834 14.08C109.834 13.9 109.824 13.72 109.804 13.54C109.784 13.5 109.774 13.43 109.774 13.33C109.754 13.23 109.734 13.13 109.714 13.03C109.714 12.91 109.714 12.8 109.714 12.7L109.624 11.2C109.604 11.04 109.584 10.89 109.564 10.75C109.564 10.59 109.564 10.44 109.564 10.3C109.544 10.06 109.524 9.82 109.504 9.58C109.484 9.34 109.464 9.11 109.444 8.89C109.444 8.85 109.434 8.81 109.414 8.77C109.414 8.73 109.414 8.7 109.414 8.68C109.414 8.44 109.404 8.2 109.384 7.96C109.364 7.72 109.344 7.47 109.324 7.21L109.234 6.37C109.174 6.05 109.164 5.7 109.204 5.32C109.204 5.14 109.274 4.99 109.414 4.87C109.454 4.83 109.484 4.81 109.504 4.81C109.524 4.79 109.544 4.77 109.564 4.75C109.664 4.73 109.714 4.66 109.714 4.54C109.714 4.5 109.754 4.48 109.834 4.48H109.984C110.004 4.48 110.014 4.48 110.014 4.48C110.034 4.46 110.054 4.45 110.074 4.45C110.114 4.43 110.144 4.41 110.164 4.39C110.204 4.35 110.234 4.33 110.254 4.33C110.294 4.33 110.334 4.34 110.374 4.36C110.414 4.36 110.454 4.37 110.494 4.39C110.534 4.39 110.564 4.38 110.584 4.36C110.684 4.34 110.784 4.35 110.884 4.39C111.004 4.41 111.104 4.44 111.184 4.48C111.304 4.5 111.394 4.58 111.454 4.72C111.514 4.9 111.564 5.08 111.604 5.26C111.664 5.42 111.704 5.59 111.724 5.77V6.01C111.764 6.15 111.784 6.3 111.784 6.46C111.784 6.6 111.784 6.75 111.784 6.91C111.784 7.05 111.784 7.19 111.784 7.33C111.804 7.45 111.824 7.57 111.844 7.69C111.844 7.75 111.844 7.81 111.844 7.87C111.844 7.93 111.854 7.99 111.874 8.05C111.874 8.17 111.874 8.29 111.874 8.41C111.894 8.53 111.914 8.66 111.934 8.8C111.954 9.02 111.974 9.25 111.994 9.49C112.014 9.73 112.024 9.97 112.024 10.21C112.024 10.31 112.024 10.42 112.024 10.54C112.024 10.64 112.034 10.74 112.054 10.84C112.074 10.9 112.084 10.96 112.084 11.02C112.084 11.08 112.084 11.14 112.084 11.2V11.8C112.084 11.92 112.094 12.02 112.114 12.1C112.154 12.24 112.164 12.38 112.144 12.52C112.144 12.64 112.154 12.77 112.174 12.91L112.264 14.29C112.284 14.49 112.294 14.7 112.294 14.92C112.314 15.12 112.324 15.33 112.324 15.55C112.324 15.63 112.324 15.72 112.324 15.82C112.324 15.9 112.334 15.98 112.354 16.06C112.374 16.12 112.384 16.18 112.384 16.24C112.384 16.3 112.384 16.36 112.384 16.42C112.404 16.44 112.404 16.48 112.384 16.54C112.384 16.58 112.394 16.62 112.414 16.66C112.454 16.8 112.474 16.94 112.474 17.08C112.474 17.22 112.474 17.37 112.474 17.53C112.474 17.61 112.474 17.7 112.474 17.8C112.494 17.88 112.504 17.97 112.504 18.07C112.524 18.17 112.534 18.28 112.534 18.4C112.534 18.52 112.534 18.63 112.534 18.73C112.554 18.83 112.564 18.94 112.564 19.06C112.564 19.16 112.574 19.26 112.594 19.36C112.614 19.4 112.624 19.44 112.624 19.48C112.624 19.7 112.644 19.92 112.684 20.14C112.724 20.36 112.764 20.58 112.804 20.8C112.824 20.86 112.834 20.93 112.834 21.01C112.834 21.07 112.834 21.13 112.834 21.19C112.834 21.25 112.814 21.3 112.774 21.34C112.694 21.4 112.634 21.52 112.594 21.7C112.594 21.76 112.564 21.81 112.504 21.85C112.364 21.91 112.244 21.99 112.144 22.09C111.984 22.23 111.794 22.3 111.574 22.3ZM120.551 23.47L120.041 23.38C119.781 23.34 119.511 23.3 119.231 23.26C118.971 23.22 118.701 23.19 118.421 23.17C118.141 23.17 117.861 23.09 117.581 22.93C117.321 22.79 117.141 22.57 117.041 22.27C117.021 22.17 116.991 22.07 116.951 21.97C116.931 21.87 116.911 21.77 116.891 21.67C116.891 21.43 116.941 21.25 117.041 21.13C117.141 21.03 117.221 20.93 117.281 20.83C117.361 20.73 117.441 20.64 117.521 20.56C117.561 20.52 117.601 20.49 117.641 20.47C117.681 20.45 117.721 20.43 117.761 20.41C117.861 20.35 117.961 20.31 118.061 20.29C118.161 20.25 118.261 20.22 118.361 20.2C118.401 20.18 118.431 20.18 118.451 20.2C118.491 20.2 118.521 20.2 118.541 20.2C118.641 20.22 118.751 20.24 118.871 20.26C118.991 20.26 119.101 20.28 119.201 20.32L120.461 20.5C120.741 20.54 120.991 20.5 121.211 20.38C121.291 20.34 121.361 20.3 121.421 20.26C121.501 20.22 121.571 20.18 121.631 20.14C122.071 19.88 122.451 19.61 122.771 19.33C123.011 19.11 123.241 18.89 123.461 18.67C123.681 18.45 123.881 18.21 124.061 17.95C124.201 17.77 124.291 17.59 124.331 17.41C124.371 17.21 124.381 17.01 124.361 16.81L124.271 16.57C124.251 16.47 124.211 16.39 124.151 16.33C124.091 16.27 124.031 16.2 123.971 16.12C123.851 16.02 123.731 15.91 123.611 15.79C123.511 15.67 123.401 15.57 123.281 15.49C122.981 15.25 122.681 15.02 122.381 14.8C122.101 14.58 121.811 14.36 121.511 14.14C121.491 14.1 121.431 14.06 121.331 14.02C121.151 13.9 120.971 13.77 120.791 13.63C120.631 13.47 120.471 13.32 120.311 13.18C120.111 12.98 119.891 12.79 119.651 12.61C119.531 12.55 119.421 12.45 119.321 12.31C119.241 12.21 119.121 12.11 118.961 12.01C118.821 11.93 118.691 11.84 118.571 11.74C118.451 11.62 118.331 11.51 118.211 11.41L117.821 11.05C117.741 10.95 117.651 10.86 117.551 10.78C117.471 10.68 117.381 10.58 117.281 10.48C117.241 10.38 117.181 10.3 117.101 10.24C117.041 10.18 116.981 10.11 116.921 10.03C116.901 9.99 116.871 9.95 116.831 9.91C116.791 9.85 116.761 9.79 116.741 9.73C116.621 9.49 116.491 9.25 116.351 9.01C116.231 8.77 116.121 8.52 116.021 8.26C115.961 8.1 115.901 7.95 115.841 7.81C115.801 7.65 115.761 7.5 115.721 7.36C115.701 7.2 115.661 7.06 115.601 6.94C115.561 6.8 115.521 6.66 115.481 6.52C115.441 6.3 115.391 6.09 115.331 5.89C115.291 5.67 115.251 5.46 115.211 5.26L115.151 5.02C115.131 4.8 115.131 4.59 115.151 4.39C115.191 4.11 115.251 3.86 115.331 3.64C115.411 3.4 115.541 3.21 115.721 3.07C115.921 2.91 116.121 2.75 116.321 2.59C116.521 2.43 116.731 2.3 116.951 2.2C116.991 2.2 117.021 2.19 117.041 2.17C117.241 2.01 117.461 1.9 117.701 1.84C117.941 1.76 118.181 1.69 118.421 1.63C119.381 1.35 120.371 1.14 121.391 0.999999H121.691C121.891 0.999999 122.081 0.999999 122.261 0.999999C122.441 0.999999 122.631 0.989999 122.831 0.969999C123.071 0.969999 123.311 0.999999 123.551 1.06C123.791 1.1 124.021 1.17 124.241 1.27C124.401 1.35 124.561 1.44 124.721 1.54C124.881 1.62 125.031 1.71 125.171 1.81C125.331 1.93 125.431 2.06 125.471 2.2L125.561 2.41C125.661 2.59 125.711 2.78 125.711 2.98C125.731 3.16 125.721 3.35 125.681 3.55C125.681 3.61 125.671 3.68 125.651 3.76C125.651 3.82 125.651 3.88 125.651 3.94C125.591 4.38 125.381 4.72 125.021 4.96C124.801 5.16 124.511 5.24 124.151 5.2C124.071 5.16 124.031 5.18 124.031 5.26C124.031 5.34 123.981 5.38 123.881 5.38H123.701C123.581 5.38 123.461 5.32 123.341 5.2C123.241 5.1 123.191 5.02 123.191 4.96C123.191 4.88 123.231 4.82 123.311 4.78C123.271 4.68 123.231 4.59 123.191 4.51C123.151 4.43 123.111 4.37 123.071 4.33C123.011 4.23 122.921 4.16 122.801 4.12C122.701 4.1 122.601 4.08 122.501 4.06C122.401 4.04 122.301 4.02 122.201 4C122.121 4 122.031 4 121.931 4C121.831 3.98 121.731 3.96 121.631 3.94C121.571 3.92 121.481 3.93 121.361 3.97C121.301 3.99 121.241 4.01 121.181 4.03C121.121 4.03 121.051 4.02 120.971 4C120.911 4 120.841 4 120.761 4C120.701 4 120.631 4.02 120.551 4.06L119.981 4.15C119.661 4.21 119.351 4.33 119.051 4.51C118.991 4.53 118.931 4.55 118.871 4.57C118.811 4.59 118.751 4.59 118.691 4.57C118.571 4.55 118.471 4.58 118.391 4.66C118.371 4.7 118.321 4.73 118.241 4.75C118.181 4.75 118.131 4.77 118.091 4.81C118.011 4.89 117.971 4.97 117.971 5.05C117.991 5.09 118.001 5.15 118.001 5.23L118.631 7.06C118.751 7.38 118.901 7.68 119.081 7.96C119.281 8.22 119.491 8.48 119.711 8.74C120.051 9.14 120.401 9.48 120.761 9.76L121.721 10.57C121.921 10.75 122.131 10.92 122.351 11.08C122.571 11.24 122.781 11.4 122.981 11.56C123.281 11.78 123.581 12.01 123.881 12.25C124.181 12.47 124.481 12.7 124.781 12.94C125.021 13.14 125.251 13.34 125.471 13.54C125.711 13.72 125.931 13.92 126.131 14.14C126.271 14.3 126.411 14.46 126.551 14.62C126.691 14.78 126.811 14.96 126.911 15.16C127.051 15.38 127.171 15.64 127.271 15.94C127.391 16.32 127.441 16.68 127.421 17.02C127.401 17.06 127.391 17.12 127.391 17.2C127.391 17.44 127.361 17.67 127.301 17.89C127.261 18.09 127.191 18.3 127.091 18.52C126.991 18.72 126.881 18.93 126.761 19.15C126.661 19.35 126.541 19.55 126.401 19.75C126.201 20.01 125.991 20.26 125.771 20.5C125.571 20.72 125.341 20.94 125.081 21.16C124.941 21.28 124.801 21.41 124.661 21.55C124.521 21.67 124.371 21.78 124.211 21.88C124.111 21.96 124.011 22.03 123.911 22.09C123.811 22.17 123.711 22.25 123.611 22.33C123.531 22.37 123.451 22.42 123.371 22.48C123.291 22.54 123.211 22.6 123.131 22.66C123.051 22.74 122.951 22.8 122.831 22.84C122.731 22.9 122.631 22.95 122.531 22.99L121.661 23.35C121.481 23.41 121.301 23.45 121.121 23.47C120.941 23.49 120.751 23.49 120.551 23.47ZM132.404 22.3C132.284 22.3 132.204 22.29 132.164 22.27C132.084 22.23 132.014 22.2 131.954 22.18C131.894 22.16 131.834 22.14 131.774 22.12C131.714 22.08 131.654 22.04 131.594 22C131.554 21.94 131.514 21.88 131.474 21.82C131.434 21.78 131.394 21.76 131.354 21.76C131.234 21.76 131.174 21.7 131.174 21.58C131.154 21.46 131.134 21.34 131.114 21.22C131.094 21.1 131.074 20.98 131.054 20.86C131.034 20.68 131.014 20.5 130.994 20.32C130.994 20.14 130.974 19.97 130.934 19.81V19.54C130.934 19.46 130.924 19.39 130.904 19.33C130.904 19.27 130.904 19.2 130.904 19.12C130.864 19.02 130.864 18.94 130.904 18.88C130.944 18.52 130.944 18.16 130.904 17.8C130.884 17.7 130.874 17.6 130.874 17.5C130.874 17.4 130.864 17.3 130.844 17.2C130.844 17 130.844 16.8 130.844 16.6C130.844 16.38 130.824 16.17 130.784 15.97V15.49C130.784 15.33 130.774 15.18 130.754 15.04C130.754 14.9 130.744 14.76 130.724 14.62C130.704 14.44 130.684 14.26 130.664 14.08C130.664 13.9 130.654 13.72 130.634 13.54C130.614 13.5 130.604 13.43 130.604 13.33C130.584 13.23 130.564 13.13 130.544 13.03C130.544 12.91 130.544 12.8 130.544 12.7L130.454 11.2C130.434 11.04 130.414 10.89 130.394 10.75C130.394 10.59 130.394 10.44 130.394 10.3C130.374 10.06 130.354 9.82 130.334 9.58C130.314 9.34 130.294 9.11 130.274 8.89C130.274 8.85 130.264 8.81 130.244 8.77C130.244 8.73 130.244 8.7 130.244 8.68C130.244 8.44 130.234 8.2 130.214 7.96C130.194 7.72 130.174 7.47 130.154 7.21L130.064 6.37C130.004 6.05 129.994 5.7 130.034 5.32C130.034 5.14 130.104 4.99 130.244 4.87C130.284 4.83 130.314 4.81 130.334 4.81C130.354 4.79 130.374 4.77 130.394 4.75C130.494 4.73 130.544 4.66 130.544 4.54C130.544 4.5 130.584 4.48 130.664 4.48H130.814C130.834 4.48 130.844 4.48 130.844 4.48C130.864 4.46 130.884 4.45 130.904 4.45C130.944 4.43 130.974 4.41 130.994 4.39C131.034 4.35 131.064 4.33 131.084 4.33C131.124 4.33 131.164 4.34 131.204 4.36C131.244 4.36 131.284 4.37 131.324 4.39C131.364 4.39 131.394 4.38 131.414 4.36C131.514 4.34 131.614 4.35 131.714 4.39C131.834 4.41 131.934 4.44 132.014 4.48C132.134 4.5 132.224 4.58 132.284 4.72C132.344 4.9 132.394 5.08 132.434 5.26C132.494 5.42 132.534 5.59 132.554 5.77V6.01C132.594 6.15 132.614 6.3 132.614 6.46C132.614 6.6 132.614 6.75 132.614 6.91C132.614 7.05 132.614 7.19 132.614 7.33C132.634 7.45 132.654 7.57 132.674 7.69C132.674 7.75 132.674 7.81 132.674 7.87C132.674 7.93 132.684 7.99 132.704 8.05C132.704 8.17 132.704 8.29 132.704 8.41C132.724 8.53 132.744 8.66 132.764 8.8C132.784 9.02 132.804 9.25 132.824 9.49C132.844 9.73 132.854 9.97 132.854 10.21C132.854 10.31 132.854 10.42 132.854 10.54C132.854 10.64 132.864 10.74 132.884 10.84C132.904 10.9 132.914 10.96 132.914 11.02C132.914 11.08 132.914 11.14 132.914 11.2V11.8C132.914 11.92 132.924 12.02 132.944 12.1C132.984 12.24 132.994 12.38 132.974 12.52C132.974 12.64 132.984 12.77 133.004 12.91L133.094 14.29C133.114 14.49 133.124 14.7 133.124 14.92C133.144 15.12 133.154 15.33 133.154 15.55C133.154 15.63 133.154 15.72 133.154 15.82C133.154 15.9 133.164 15.98 133.184 16.06C133.204 16.12 133.214 16.18 133.214 16.24C133.214 16.3 133.214 16.36 133.214 16.42C133.234 16.44 133.234 16.48 133.214 16.54C133.214 16.58 133.224 16.62 133.244 16.66C133.284 16.8 133.304 16.94 133.304 17.08C133.304 17.22 133.304 17.37 133.304 17.53C133.304 17.61 133.304 17.7 133.304 17.8C133.324 17.88 133.334 17.97 133.334 18.07C133.354 18.17 133.364 18.28 133.364 18.4C133.364 18.52 133.364 18.63 133.364 18.73C133.384 18.83 133.394 18.94 133.394 19.06C133.394 19.16 133.404 19.26 133.424 19.36C133.444 19.4 133.454 19.44 133.454 19.48C133.454 19.7 133.474 19.92 133.514 20.14C133.554 20.36 133.594 20.58 133.634 20.8C133.654 20.86 133.664 20.93 133.664 21.01C133.664 21.07 133.664 21.13 133.664 21.19C133.664 21.25 133.644 21.3 133.604 21.34C133.524 21.4 133.464 21.52 133.424 21.7C133.424 21.76 133.394 21.81 133.334 21.85C133.194 21.91 133.074 21.99 132.974 22.09C132.814 22.23 132.624 22.3 132.404 22.3ZM143.278 22.6C143.078 22.58 142.878 22.55 142.678 22.51C142.498 22.49 142.318 22.44 142.138 22.36L141.388 22.09C141.128 21.99 140.888 21.88 140.668 21.76C140.448 21.62 140.228 21.48 140.008 21.34C139.908 21.24 139.808 21.15 139.708 21.07C139.608 20.97 139.508 20.88 139.408 20.8C139.248 20.64 139.088 20.48 138.928 20.32C138.768 20.14 138.618 19.95 138.478 19.75L137.758 18.64C137.578 18.36 137.418 18.07 137.278 17.77C137.138 17.45 137.018 17.13 136.918 16.81C136.698 16.21 136.588 15.62 136.588 15.04V14.56C136.588 14.06 136.618 13.57 136.678 13.09C136.718 12.69 136.808 12.33 136.948 12.01C137.028 11.81 137.098 11.61 137.158 11.41C137.218 11.21 137.288 11.02 137.368 10.84L137.458 10.63C137.498 10.37 137.588 10.14 137.728 9.94C137.868 9.72 137.988 9.51 138.088 9.31C138.168 9.15 138.258 9.01 138.358 8.89C138.458 8.75 138.548 8.61 138.628 8.47C138.668 8.41 138.718 8.36 138.778 8.32C138.838 8.26 138.888 8.2 138.928 8.14C138.968 8.1 138.998 8.05 139.018 7.99C139.058 7.91 139.088 7.84 139.108 7.78C139.148 7.72 139.218 7.64 139.318 7.54C139.438 7.48 139.548 7.34 139.648 7.12C139.688 7.04 139.728 6.98 139.768 6.94C139.888 6.84 139.988 6.72 140.068 6.58C140.168 6.44 140.278 6.31 140.398 6.19C140.478 6.11 140.518 6 140.518 5.86C140.518 5.76 140.518 5.67 140.518 5.59C140.538 5.49 140.538 5.4 140.518 5.32C140.498 5.22 140.528 5.13 140.608 5.05C140.648 5.01 140.678 4.96 140.698 4.9C140.718 4.84 140.738 4.78 140.758 4.72C140.818 4.52 140.978 4.35 141.238 4.21C141.278 4.17 141.328 4.15 141.388 4.15C141.468 4.13 141.538 4.11 141.598 4.09C141.738 4.03 141.898 4.02 142.078 4.06C142.158 4.08 142.228 4.09 142.288 4.09C142.348 4.07 142.408 4.05 142.468 4.03C142.548 3.99 142.618 3.96 142.678 3.94C142.758 3.92 142.828 3.9 142.888 3.88C143.168 3.78 143.458 3.79 143.758 3.91C144.078 4.03 144.308 4.24 144.448 4.54C144.488 4.64 144.528 4.74 144.568 4.84C144.608 4.94 144.638 5.04 144.658 5.14C144.698 5.36 144.688 5.55 144.628 5.71C144.588 5.79 144.568 5.84 144.568 5.86C144.548 5.94 144.568 6.01 144.628 6.07C144.668 6.13 144.718 6.18 144.778 6.22C144.998 6.42 145.208 6.62 145.408 6.82C145.608 7 145.798 7.2 145.978 7.42C146.138 7.58 146.268 7.75 146.368 7.93C146.488 8.09 146.598 8.27 146.698 8.47C146.738 8.57 146.788 8.68 146.848 8.8C146.908 8.9 146.968 9 147.028 9.1C147.128 9.28 147.208 9.47 147.268 9.67C147.348 9.87 147.428 10.07 147.508 10.27V10.3C147.548 10.44 147.578 10.59 147.598 10.75C147.638 10.89 147.698 11.04 147.778 11.2C147.838 11.34 147.888 11.49 147.928 11.65C147.968 11.79 148.008 11.94 148.048 12.1C148.088 12.28 148.128 12.46 148.168 12.64C148.228 12.82 148.268 13 148.288 13.18C148.308 13.26 148.328 13.34 148.348 13.42C148.368 13.48 148.388 13.55 148.408 13.63C148.448 13.81 148.488 13.99 148.528 14.17C148.568 14.35 148.598 14.53 148.618 14.71L148.708 14.92C148.748 15.04 148.788 15.2 148.828 15.4C148.888 15.66 148.918 15.92 148.918 16.18C148.938 16.44 148.938 16.71 148.918 16.99C148.918 17.13 148.908 17.24 148.888 17.32C148.768 17.74 148.618 18.17 148.438 18.61C148.358 18.75 148.278 18.89 148.198 19.03C148.118 19.15 148.038 19.28 147.958 19.42L147.688 19.84C147.588 20.02 147.478 20.18 147.358 20.32C147.158 20.64 146.918 20.92 146.638 21.16C146.358 21.4 146.058 21.63 145.738 21.85C145.038 22.39 144.218 22.64 143.278 22.6ZM143.158 19.63C143.578 19.63 143.938 19.51 144.238 19.27C144.338 19.17 144.438 19.08 144.538 19C144.658 18.9 144.758 18.8 144.838 18.7C145.218 18.28 145.518 17.84 145.738 17.38L145.828 17.08C145.868 16.72 145.868 16.36 145.828 16L145.648 15.01C145.588 14.75 145.538 14.5 145.498 14.26C145.458 14 145.398 13.75 145.318 13.51C145.258 13.37 145.238 13.26 145.258 13.18C145.278 13.08 145.278 12.98 145.258 12.88C145.238 12.78 145.208 12.68 145.168 12.58C145.108 12.32 145.038 12.06 144.958 11.8C144.878 11.54 144.798 11.28 144.718 11.02C144.698 10.96 144.678 10.9 144.658 10.84C144.638 10.78 144.618 10.72 144.598 10.66C144.458 10.38 144.308 10.11 144.148 9.85C143.988 9.59 143.808 9.35 143.608 9.13C143.508 9.01 143.398 8.9 143.278 8.8C143.158 8.68 143.038 8.57 142.918 8.47C142.898 8.43 142.868 8.41 142.828 8.41C142.808 8.39 142.778 8.37 142.738 8.35C142.678 8.27 142.598 8.28 142.498 8.38C142.398 8.48 142.288 8.59 142.168 8.71C142.068 8.83 141.968 8.95 141.868 9.07C141.768 9.21 141.658 9.35 141.538 9.49C141.438 9.63 141.338 9.77 141.238 9.91C141.098 10.09 140.968 10.27 140.848 10.45C140.728 10.63 140.608 10.81 140.488 10.99C140.068 11.67 139.738 12.42 139.498 13.24C139.458 13.36 139.438 13.45 139.438 13.51C139.418 13.65 139.398 13.79 139.378 13.93C139.378 14.07 139.378 14.22 139.378 14.38V14.62C139.398 14.68 139.408 14.74 139.408 14.8C139.408 14.86 139.418 14.92 139.438 14.98C139.438 15.22 139.498 15.48 139.618 15.76C139.778 16.16 139.958 16.55 140.158 16.93C140.358 17.31 140.588 17.67 140.848 18.01C140.908 18.09 140.968 18.17 141.028 18.25C141.108 18.33 141.178 18.41 141.238 18.49C141.418 18.69 141.608 18.87 141.808 19.03C142.028 19.19 142.248 19.33 142.468 19.45C142.708 19.57 142.938 19.63 143.158 19.63ZM162.566 22.27C162.506 22.25 162.436 22.23 162.356 22.21C162.296 22.19 162.236 22.17 162.176 22.15C162.016 22.09 161.856 22.01 161.696 21.91C161.616 21.87 161.556 21.81 161.516 21.73C161.376 21.51 161.246 21.31 161.126 21.13C161.006 20.93 160.876 20.73 160.736 20.53L160.466 20.05C160.326 19.77 160.186 19.5 160.046 19.24C159.906 18.96 159.766 18.69 159.626 18.43C159.586 18.33 159.536 18.25 159.476 18.19C159.436 18.11 159.396 18.03 159.356 17.95C159.216 17.73 159.086 17.51 158.966 17.29C158.846 17.05 158.726 16.82 158.606 16.6L157.856 15.13C157.656 14.73 157.456 14.34 157.256 13.96C157.056 13.56 156.856 13.16 156.656 12.76C156.616 12.72 156.576 12.66 156.536 12.58C156.456 12.36 156.356 12.15 156.236 11.95C156.136 11.75 156.036 11.55 155.936 11.35C155.856 11.21 155.786 11.07 155.726 10.93C155.666 10.77 155.596 10.62 155.516 10.48L155.186 9.88C155.146 9.88 155.116 9.87 155.096 9.85C155.096 9.85 155.086 9.86 155.066 9.88C155.066 9.88 155.066 9.89 155.066 9.91C155.046 10.17 155.026 10.44 155.006 10.72C154.986 11 154.986 11.28 155.006 11.56C155.046 11.68 155.046 11.81 155.006 11.95C154.966 12.31 154.976 12.63 155.036 12.91C155.056 12.99 155.056 13.07 155.036 13.15C155.036 13.23 155.026 13.32 155.006 13.42C154.986 13.56 154.976 13.69 154.976 13.81C154.976 13.93 154.966 14.06 154.946 14.2C154.986 14.28 155.006 14.37 155.006 14.47C155.006 14.55 154.996 14.63 154.976 14.71C154.916 14.91 154.916 15.12 154.976 15.34C155.016 15.4 155.016 15.46 154.976 15.52C154.896 15.7 154.876 15.92 154.916 16.18C154.976 16.52 154.956 16.89 154.856 17.29C154.836 17.33 154.826 17.4 154.826 17.5C154.806 17.58 154.826 17.65 154.886 17.71C154.966 17.75 154.986 17.8 154.946 17.86C154.926 18.12 154.926 18.39 154.946 18.67C154.946 18.67 154.946 18.68 154.946 18.7C154.946 18.7 154.936 18.7 154.916 18.7C154.896 18.7 154.886 18.69 154.886 18.67C154.866 18.65 154.856 18.63 154.856 18.61C154.816 18.57 154.796 18.58 154.796 18.64C154.796 18.74 154.806 18.8 154.826 18.82C154.866 18.92 154.886 19.02 154.886 19.12C154.886 19.22 154.886 19.32 154.886 19.42V20.35C154.886 20.41 154.876 20.47 154.856 20.53C154.856 20.59 154.826 20.64 154.766 20.68C154.686 20.7 154.646 20.77 154.646 20.89C154.626 21.11 154.546 21.3 154.406 21.46C154.286 21.62 154.146 21.76 153.986 21.88C153.906 21.94 153.806 21.98 153.686 22C153.586 22 153.486 21.99 153.386 21.97L152.846 21.79C152.806 21.79 152.766 21.76 152.726 21.7C152.666 21.64 152.606 21.58 152.546 21.52C152.486 21.44 152.416 21.37 152.336 21.31C152.236 21.25 152.166 21.14 152.126 20.98C152.106 20.88 152.076 20.77 152.036 20.65C151.996 20.53 151.976 20.41 151.976 20.29C151.976 20.15 151.976 20.02 151.976 19.9C151.996 19.78 152.006 19.65 152.006 19.51C152.026 19.41 152.036 19.32 152.036 19.24C152.036 19.14 152.046 19.04 152.066 18.94V7.96C152.066 7.86 152.066 7.76 152.066 7.66C152.086 7.56 152.106 7.47 152.126 7.39C152.126 7.29 152.126 7.19 152.126 7.09C152.146 6.99 152.156 6.89 152.156 6.79C152.156 6.67 152.156 6.55 152.156 6.43C152.176 6.31 152.196 6.2 152.216 6.1C152.236 6.02 152.246 5.95 152.246 5.89C152.246 5.83 152.246 5.76 152.246 5.68V4.75C152.246 4.61 152.256 4.49 152.276 4.39C152.316 4.27 152.346 4.15 152.366 4.03L152.456 3.88C152.516 3.82 152.566 3.73 152.606 3.61C152.646 3.49 152.706 3.43 152.786 3.43C152.846 3.39 152.906 3.36 152.966 3.34C153.026 3.3 153.066 3.24 153.086 3.16L153.116 3.13C153.136 3.13 153.156 3.13 153.176 3.13C153.196 3.11 153.216 3.1 153.236 3.1C153.316 3.1 153.376 3.08 153.416 3.04C153.476 3 153.546 2.99 153.626 3.01C153.706 3.03 153.786 3.04 153.866 3.04C153.946 3.04 154.026 3.05 154.106 3.07C154.546 3.15 154.856 3.41 155.036 3.85L155.216 4.45C155.236 4.65 155.326 4.84 155.486 5.02C155.606 5.16 155.726 5.31 155.846 5.47C155.966 5.63 156.096 5.79 156.236 5.95C156.756 6.61 157.236 7.35 157.676 8.17C157.716 8.25 157.756 8.33 157.796 8.41C157.836 8.49 157.876 8.57 157.916 8.65L159.476 11.8C159.596 12.02 159.706 12.25 159.806 12.49C159.926 12.71 160.056 12.93 160.196 13.15C160.236 13.23 160.276 13.31 160.316 13.39C160.356 13.45 160.386 13.52 160.406 13.6C160.506 13.84 160.626 14.08 160.766 14.32C160.766 14.32 160.766 14.33 160.766 14.35C160.786 14.35 160.796 14.34 160.796 14.32C160.816 14.32 160.826 14.32 160.826 14.32C160.846 14.3 160.856 14.29 160.856 14.29L160.946 13.24V12.94C160.966 12.84 160.976 12.74 160.976 12.64C160.996 12.52 161.016 12.41 161.036 12.31C161.056 12.25 161.056 12.18 161.036 12.1C161.036 12.02 161.046 11.94 161.066 11.86C161.066 11.74 161.066 11.62 161.066 11.5C161.086 11.36 161.106 11.23 161.126 11.11C161.146 11.05 161.156 10.99 161.156 10.93C161.156 10.85 161.156 10.78 161.156 10.72V9.91H161.126V9.1C161.126 9 161.126 8.9 161.126 8.8C161.126 8.7 161.106 8.6 161.066 8.5C161.046 8.44 161.036 8.35 161.036 8.23L161.066 8.02C161.066 7.96 161.056 7.91 161.036 7.87C161.036 7.81 161.036 7.75 161.036 7.69C161.056 7.61 161.046 7.53 161.006 7.45C160.966 7.37 160.946 7.29 160.946 7.21C160.966 7.13 160.976 7.05 160.976 6.97C160.976 6.89 160.976 6.81 160.976 6.73C160.976 6.65 160.936 6.61 160.856 6.61C160.836 6.61 160.826 6.59 160.826 6.55C160.806 6.49 160.806 6.44 160.826 6.4C160.866 6.3 160.886 6.19 160.886 6.07C160.886 5.95 160.886 5.83 160.886 5.71V4.84C160.866 4.72 160.876 4.6 160.916 4.48C160.956 4.36 161.006 4.25 161.066 4.15L161.186 3.97C161.286 3.87 161.396 3.77 161.516 3.67C161.636 3.57 161.756 3.47 161.876 3.37C161.876 3.37 161.916 3.35 161.996 3.31C162.096 3.29 162.186 3.27 162.266 3.25C162.366 3.23 162.466 3.23 162.566 3.25C162.646 3.25 162.706 3.26 162.746 3.28C162.826 3.32 162.906 3.37 162.986 3.43C163.066 3.47 163.146 3.52 163.226 3.58C163.266 3.6 163.286 3.62 163.286 3.64C163.306 3.66 163.326 3.68 163.346 3.7C163.386 3.74 163.416 3.79 163.436 3.85C163.476 3.89 163.506 3.93 163.526 3.97C163.626 4.05 163.686 4.15 163.706 4.27C163.746 4.37 163.776 4.47 163.796 4.57V5.83C163.796 5.97 163.796 6.11 163.796 6.25C163.816 6.37 163.836 6.5 163.856 6.64C163.876 6.72 163.886 6.8 163.886 6.88C163.886 6.94 163.886 7.01 163.886 7.09C163.886 7.25 163.886 7.42 163.886 7.6C163.906 7.76 163.916 7.92 163.916 8.08V8.29C163.916 8.43 163.906 8.57 163.886 8.71C163.886 8.83 163.886 8.96 163.886 9.1V10.42C163.886 10.62 163.876 10.83 163.856 11.05C163.856 11.25 163.866 11.46 163.886 11.68C163.886 11.76 163.876 11.82 163.856 11.86C163.836 12.06 163.826 12.26 163.826 12.46C163.826 12.64 163.816 12.83 163.796 13.03C163.796 13.11 163.796 13.2 163.796 13.3C163.796 13.4 163.786 13.5 163.766 13.6C163.746 13.68 163.736 13.76 163.736 13.84C163.756 13.92 163.766 14 163.766 14.08C163.806 14.26 163.816 14.44 163.796 14.62C163.796 14.8 163.786 14.98 163.766 15.16C163.746 15.48 163.726 15.81 163.706 16.15C163.706 16.47 163.726 16.8 163.766 17.14C163.766 17.22 163.766 17.31 163.766 17.41C163.786 17.51 163.796 17.61 163.796 17.71C163.776 18.01 163.786 18.3 163.826 18.58C163.886 18.86 163.946 19.14 164.006 19.42C164.046 19.62 164.086 19.82 164.126 20.02C164.166 20.2 164.196 20.4 164.216 20.62C164.216 20.7 164.206 20.75 164.186 20.77C164.166 20.81 164.146 20.86 164.126 20.92C164.106 20.96 164.096 21 164.096 21.04C164.076 21.2 164.016 21.35 163.916 21.49C163.836 21.63 163.746 21.77 163.646 21.91C163.386 22.25 163.026 22.37 162.566 22.27ZM172.26 23.47L171.75 23.38C171.49 23.34 171.22 23.3 170.94 23.26C170.68 23.22 170.41 23.19 170.13 23.17C169.85 23.17 169.57 23.09 169.29 22.93C169.03 22.79 168.85 22.57 168.75 22.27C168.73 22.17 168.7 22.07 168.66 21.97C168.64 21.87 168.62 21.77 168.6 21.67C168.6 21.43 168.65 21.25 168.75 21.13C168.85 21.03 168.93 20.93 168.99 20.83C169.07 20.73 169.15 20.64 169.23 20.56C169.27 20.52 169.31 20.49 169.35 20.47C169.39 20.45 169.43 20.43 169.47 20.41C169.57 20.35 169.67 20.31 169.77 20.29C169.87 20.25 169.97 20.22 170.07 20.2C170.11 20.18 170.14 20.18 170.16 20.2C170.2 20.2 170.23 20.2 170.25 20.2C170.35 20.22 170.46 20.24 170.58 20.26C170.7 20.26 170.81 20.28 170.91 20.32L172.17 20.5C172.45 20.54 172.7 20.5 172.92 20.38C173 20.34 173.07 20.3 173.13 20.26C173.21 20.22 173.28 20.18 173.34 20.14C173.78 19.88 174.16 19.61 174.48 19.33C174.72 19.11 174.95 18.89 175.17 18.67C175.39 18.45 175.59 18.21 175.77 17.95C175.91 17.77 176 17.59 176.04 17.41C176.08 17.21 176.09 17.01 176.07 16.81L175.98 16.57C175.96 16.47 175.92 16.39 175.86 16.33C175.8 16.27 175.74 16.2 175.68 16.12C175.56 16.02 175.44 15.91 175.32 15.79C175.22 15.67 175.11 15.57 174.99 15.49C174.69 15.25 174.39 15.02 174.09 14.8C173.81 14.58 173.52 14.36 173.22 14.14C173.2 14.1 173.14 14.06 173.04 14.02C172.86 13.9 172.68 13.77 172.5 13.63C172.34 13.47 172.18 13.32 172.02 13.18C171.82 12.98 171.6 12.79 171.36 12.61C171.24 12.55 171.13 12.45 171.03 12.31C170.95 12.21 170.83 12.11 170.67 12.01C170.53 11.93 170.4 11.84 170.28 11.74C170.16 11.62 170.04 11.51 169.92 11.41L169.53 11.05C169.45 10.95 169.36 10.86 169.26 10.78C169.18 10.68 169.09 10.58 168.99 10.48C168.95 10.38 168.89 10.3 168.81 10.24C168.75 10.18 168.69 10.11 168.63 10.03C168.61 9.99 168.58 9.95 168.54 9.91C168.5 9.85 168.47 9.79 168.45 9.73C168.33 9.49 168.2 9.25 168.06 9.01C167.94 8.77 167.83 8.52 167.73 8.26C167.67 8.1 167.61 7.95 167.55 7.81C167.51 7.65 167.47 7.5 167.43 7.36C167.41 7.2 167.37 7.06 167.31 6.94C167.27 6.8 167.23 6.66 167.19 6.52C167.15 6.3 167.1 6.09 167.04 5.89C167 5.67 166.96 5.46 166.92 5.26L166.86 5.02C166.84 4.8 166.84 4.59 166.86 4.39C166.9 4.11 166.96 3.86 167.04 3.64C167.12 3.4 167.25 3.21 167.43 3.07C167.63 2.91 167.83 2.75 168.03 2.59C168.23 2.43 168.44 2.3 168.66 2.2C168.7 2.2 168.73 2.19 168.75 2.17C168.95 2.01 169.17 1.9 169.41 1.84C169.65 1.76 169.89 1.69 170.13 1.63C171.09 1.35 172.08 1.14 173.1 0.999999H173.4C173.6 0.999999 173.79 0.999999 173.97 0.999999C174.15 0.999999 174.34 0.989999 174.54 0.969999C174.78 0.969999 175.02 0.999999 175.26 1.06C175.5 1.1 175.73 1.17 175.95 1.27C176.11 1.35 176.27 1.44 176.43 1.54C176.59 1.62 176.74 1.71 176.88 1.81C177.04 1.93 177.14 2.06 177.18 2.2L177.27 2.41C177.37 2.59 177.42 2.78 177.42 2.98C177.44 3.16 177.43 3.35 177.39 3.55C177.39 3.61 177.38 3.68 177.36 3.76C177.36 3.82 177.36 3.88 177.36 3.94C177.3 4.38 177.09 4.72 176.73 4.96C176.51 5.16 176.22 5.24 175.86 5.2C175.78 5.16 175.74 5.18 175.74 5.26C175.74 5.34 175.69 5.38 175.59 5.38H175.41C175.29 5.38 175.17 5.32 175.05 5.2C174.95 5.1 174.9 5.02 174.9 4.96C174.9 4.88 174.94 4.82 175.02 4.78C174.98 4.68 174.94 4.59 174.9 4.51C174.86 4.43 174.82 4.37 174.78 4.33C174.72 4.23 174.63 4.16 174.51 4.12C174.41 4.1 174.31 4.08 174.21 4.06C174.11 4.04 174.01 4.02 173.91 4C173.83 4 173.74 4 173.64 4C173.54 3.98 173.44 3.96 173.34 3.94C173.28 3.92 173.19 3.93 173.07 3.97C173.01 3.99 172.95 4.01 172.89 4.03C172.83 4.03 172.76 4.02 172.68 4C172.62 4 172.55 4 172.47 4C172.41 4 172.34 4.02 172.26 4.06L171.69 4.15C171.37 4.21 171.06 4.33 170.76 4.51C170.7 4.53 170.64 4.55 170.58 4.57C170.52 4.59 170.46 4.59 170.4 4.57C170.28 4.55 170.18 4.58 170.1 4.66C170.08 4.7 170.03 4.73 169.95 4.75C169.89 4.75 169.84 4.77 169.8 4.81C169.72 4.89 169.68 4.97 169.68 5.05C169.7 5.09 169.71 5.15 169.71 5.23L170.34 7.06C170.46 7.38 170.61 7.68 170.79 7.96C170.99 8.22 171.2 8.48 171.42 8.74C171.76 9.14 172.11 9.48 172.47 9.76L173.43 10.57C173.63 10.75 173.84 10.92 174.06 11.08C174.28 11.24 174.49 11.4 174.69 11.56C174.99 11.78 175.29 12.01 175.59 12.25C175.89 12.47 176.19 12.7 176.49 12.94C176.73 13.14 176.96 13.34 177.18 13.54C177.42 13.72 177.64 13.92 177.84 14.14C177.98 14.3 178.12 14.46 178.26 14.62C178.4 14.78 178.52 14.96 178.62 15.16C178.76 15.38 178.88 15.64 178.98 15.94C179.1 16.32 179.15 16.68 179.13 17.02C179.11 17.06 179.1 17.12 179.1 17.2C179.1 17.44 179.07 17.67 179.01 17.89C178.97 18.09 178.9 18.3 178.8 18.52C178.7 18.72 178.59 18.93 178.47 19.15C178.37 19.35 178.25 19.55 178.11 19.75C177.91 20.01 177.7 20.26 177.48 20.5C177.28 20.72 177.05 20.94 176.79 21.16C176.65 21.28 176.51 21.41 176.37 21.55C176.23 21.67 176.08 21.78 175.92 21.88C175.82 21.96 175.72 22.03 175.62 22.09C175.52 22.17 175.42 22.25 175.32 22.33C175.24 22.37 175.16 22.42 175.08 22.48C175 22.54 174.92 22.6 174.84 22.66C174.76 22.74 174.66 22.8 174.54 22.84C174.44 22.9 174.34 22.95 174.24 22.99L173.37 23.35C173.19 23.41 173.01 23.45 172.83 23.47C172.65 23.49 172.46 23.49 172.26 23.47Z" fill="#353535"/>
</svg>
