<svg width="110" height="23" viewBox="0 0 110 23" fill="none" xmlns="http://www.w3.org/2000/svg">
<path d="M4.25967 22.425C4.17633 22.4583 4.10967 22.45 4.05967 22.4C3.87633 22.3167 3.75967 22.175 3.70967 21.975V21.925C3.693 21.775 3.67633 21.625 3.65967 21.475C3.643 21.325 3.62633 21.1833 3.60967 21.05C3.60967 21.0167 3.60133 20.975 3.58467 20.925C3.58467 20.8917 3.58467 20.8583 3.58467 20.825C3.568 20.775 3.55967 20.725 3.55967 20.675C3.55967 20.625 3.55967 20.575 3.55967 20.525C3.55967 20.3917 3.543 20.275 3.50967 20.175C3.47633 20.075 3.443 19.975 3.40967 19.875C3.37633 19.8083 3.343 19.7667 3.30967 19.75C3.243 19.6667 3.193 19.575 3.15967 19.475C3.12633 19.3917 3.08467 19.3 3.03467 19.2V19.175C2.95133 18.9417 2.90133 18.7917 2.88467 18.725C2.868 18.6417 2.85967 18.4833 2.85967 18.25V17.925C2.85967 17.7583 2.90967 17.625 3.00967 17.525C3.02633 17.4917 3.043 17.4583 3.05967 17.425C3.093 17.3917 3.118 17.3583 3.13467 17.325C3.168 17.225 3.168 17.15 3.13467 17.1C3.068 16.9667 3.018 16.8333 2.98467 16.7C2.95133 16.55 2.918 16.4 2.88467 16.25V15.975C2.90133 15.875 2.90967 15.7833 2.90967 15.7C2.92633 15.6 2.943 15.5 2.95967 15.4C2.993 15.25 2.993 15.0833 2.95967 14.9C2.92633 14.8 2.90967 14.725 2.90967 14.675C2.893 14.625 2.87633 14.575 2.85967 14.525C2.85967 14.475 2.85967 14.425 2.85967 14.375C2.85967 14.175 2.83467 13.9917 2.78467 13.825C2.75133 13.725 2.73467 13.6417 2.73467 13.575C2.73467 13.3083 2.718 13.05 2.68467 12.8C2.65133 12.5333 2.618 12.2667 2.58467 12C2.58467 11.9667 2.57633 11.95 2.55967 11.95C2.55967 11.9333 2.55967 11.9167 2.55967 11.9C2.55967 11.7667 2.543 11.6333 2.50967 11.5C2.47633 11.35 2.443 11.2167 2.40967 11.1C2.393 11.0667 2.38467 11.025 2.38467 10.975C2.38467 10.925 2.37633 10.8833 2.35967 10.85C2.343 10.7333 2.32633 10.625 2.30967 10.525C2.30967 10.425 2.293 10.3167 2.25967 10.2V10.1C2.243 9.91667 2.20967 9.74167 2.15967 9.575C2.12633 9.40833 2.093 9.24167 2.05967 9.075C2.05967 9.00833 2.05133 8.94167 2.03467 8.875C2.03467 8.80833 2.02633 8.74167 2.00967 8.675L1.93467 8.4C1.918 8.33333 1.90133 8.26667 1.88467 8.2C1.88467 8.11667 1.87633 8.04167 1.85967 7.975C1.843 7.85833 1.83467 7.75 1.83467 7.65C1.83467 7.53333 1.82633 7.41667 1.80967 7.3C1.793 7.18333 1.77633 7.075 1.75967 6.975C1.75967 6.875 1.743 6.775 1.70967 6.675C1.693 6.54167 1.67633 6.40833 1.65967 6.275C1.65967 6.125 1.643 5.98333 1.60967 5.85C1.55967 5.58333 1.45967 5.34167 1.30967 5.125C0.993001 4.65833 0.859668 4.13333 0.909668 3.55C0.943001 3.36667 1.018 3.2 1.13467 3.05C1.15133 3.01667 1.193 2.96667 1.25967 2.9C1.37633 2.75 1.50967 2.64167 1.65967 2.575C1.82633 2.49167 2.00133 2.44167 2.18467 2.425C2.468 2.375 2.72633 2.3 2.95967 2.2C3.40967 2.06667 3.85967 1.96667 4.30967 1.9C4.60967 1.85 4.90967 1.825 5.20967 1.825H5.45967C5.593 1.79167 5.72633 1.775 5.85967 1.775C6.00967 1.775 6.15133 1.775 6.28467 1.775H6.50967C6.60967 1.775 6.693 1.74167 6.75967 1.675L7.05967 1.5C7.10967 1.46667 7.15967 1.46667 7.20967 1.5C7.25967 1.53333 7.30967 1.55833 7.35967 1.575C7.42633 1.59167 7.48467 1.61667 7.53467 1.65C7.618 1.68333 7.693 1.71667 7.75967 1.75C7.82634 1.78333 7.893 1.81667 7.95967 1.85C7.993 1.88333 8.03467 1.90833 8.08467 1.925C8.13467 1.94167 8.18467 1.95833 8.23467 1.975L8.70967 2.075C8.843 2.09167 8.95967 2.125 9.05967 2.175C9.17634 2.20833 9.293 2.25 9.40967 2.3C9.543 2.35 9.65967 2.425 9.75967 2.525C9.85967 2.60833 9.95967 2.70833 10.0597 2.825C10.293 3.04167 10.443 3.31667 10.5097 3.65C10.5263 3.78333 10.568 3.94167 10.6347 4.125C10.668 4.24167 10.6847 4.35833 10.6847 4.475C10.6847 4.59167 10.693 4.71667 10.7097 4.85C10.7097 4.85 10.7097 4.89167 10.7097 4.975C10.693 5.15833 10.668 5.35 10.6347 5.55C10.6013 5.73333 10.5597 5.91667 10.5097 6.1C10.4597 6.26667 10.4013 6.44167 10.3347 6.625C10.2847 6.80833 10.218 6.98333 10.1347 7.15C10.0347 7.4 9.893 7.64167 9.70967 7.875C9.593 8.025 9.47634 8.18333 9.35967 8.35C9.25967 8.5 9.143 8.65 9.00967 8.8C8.943 8.86667 8.87633 8.94167 8.80967 9.025C8.743 9.09167 8.67634 9.15833 8.60967 9.225L8.30967 9.525V9.575C8.30967 9.60833 8.32634 9.625 8.35967 9.625H8.73467C8.968 9.64167 9.20133 9.675 9.43467 9.725C9.668 9.75833 9.893 9.80833 10.1097 9.875C10.1597 9.89167 10.2013 9.90833 10.2347 9.925C10.2847 9.94167 10.3347 9.96667 10.3847 10L10.6847 10.175C10.7847 10.2417 10.8763 10.3083 10.9597 10.375C11.043 10.4417 11.1013 10.5417 11.1347 10.675C11.168 10.7583 11.2097 10.8417 11.2597 10.925C11.343 11.075 11.418 11.2333 11.4847 11.4C11.5513 11.55 11.618 11.7083 11.6847 11.875C11.718 11.9417 11.743 12.0083 11.7597 12.075C11.793 12.125 11.818 12.1833 11.8347 12.25C11.918 12.4833 12.0013 12.7167 12.0847 12.95C12.168 13.1833 12.2347 13.425 12.2847 13.675L12.3597 14.3C12.393 14.4 12.393 14.5083 12.3597 14.625C12.343 14.725 12.3263 14.825 12.3097 14.925C12.293 15.0083 12.2763 15.1 12.2597 15.2C12.2097 15.4167 12.1347 15.625 12.0347 15.825C11.9847 15.925 11.918 16.0167 11.8347 16.1C11.618 16.3667 11.393 16.575 11.1597 16.725C11.043 16.7917 10.9263 16.8667 10.8097 16.95C10.7097 17.0333 10.593 17.1167 10.4597 17.2C10.2097 17.35 9.92633 17.5083 9.60967 17.675C9.52634 17.7083 9.43467 17.75 9.33467 17.8C9.25133 17.85 9.168 17.8917 9.08467 17.925C8.818 18.0417 8.55967 18.1583 8.30967 18.275C8.05967 18.3917 7.80967 18.5 7.55967 18.6C7.293 18.7 7.03467 18.8 6.78467 18.9C6.53467 19 6.268 19.0917 5.98467 19.175C5.918 19.1917 5.85133 19.2083 5.78467 19.225C5.73467 19.2417 5.67633 19.2583 5.60967 19.275C5.30967 19.325 5.068 19.4833 4.88467 19.75C4.818 19.8167 4.78467 19.9 4.78467 20C4.768 20.0667 4.75133 20.125 4.73467 20.175C4.73467 20.2417 4.73467 20.3083 4.73467 20.375C4.718 20.425 4.70967 20.4917 4.70967 20.575V21.45C4.70967 21.5333 4.70967 21.6167 4.70967 21.7C4.70967 21.8 4.693 21.8917 4.65967 21.975C4.62633 22.1583 4.493 22.3083 4.25967 22.425ZM4.83467 9.3C4.85133 9.31667 4.85967 9.325 4.85967 9.325C4.85967 9.30833 4.868 9.3 4.88467 9.3C4.90133 9.28333 4.90967 9.275 4.90967 9.275C4.92633 9.275 4.93467 9.275 4.93467 9.275C5.018 9.29167 5.10133 9.275 5.18467 9.225C5.268 9.15833 5.35133 9.1 5.43467 9.05C5.53467 8.98333 5.63467 8.91667 5.73467 8.85C5.88467 8.75 6.02633 8.64167 6.15967 8.525C6.30967 8.39167 6.45133 8.25833 6.58467 8.125C6.78467 7.90833 6.97634 7.69167 7.15967 7.475C7.343 7.24167 7.50967 7 7.65967 6.75C7.743 6.6 7.82634 6.45833 7.90967 6.325C7.993 6.175 8.068 6.01667 8.13467 5.85C8.218 5.63333 8.27634 5.38333 8.30967 5.1C8.343 4.93333 8.33467 4.78333 8.28467 4.65C8.23467 4.51667 8.15967 4.425 8.05967 4.375C7.75967 4.24167 7.47634 4.175 7.20967 4.175C7.043 4.175 6.88467 4.175 6.73467 4.175C6.58467 4.175 6.43467 4.18333 6.28467 4.2C6.15133 4.21667 6.018 4.23333 5.88467 4.25C5.75133 4.26667 5.618 4.29167 5.48467 4.325C5.368 4.35833 5.243 4.4 5.10967 4.45C4.993 4.48333 4.868 4.51667 4.73467 4.55C4.55133 4.6 4.43467 4.70833 4.38467 4.875C4.35133 4.925 4.33467 5 4.33467 5.1V5.5C4.318 5.66667 4.318 5.83333 4.33467 6C4.35133 6.16667 4.368 6.33333 4.38467 6.5L4.40967 6.525C4.393 6.64167 4.393 6.75833 4.40967 6.875C4.443 6.99167 4.468 7.11667 4.48467 7.25C4.48467 7.3 4.50967 7.34167 4.55967 7.375C4.62633 7.40833 4.63467 7.475 4.58467 7.575C4.58467 7.575 4.57633 7.58333 4.55967 7.6C4.55967 7.6 4.568 7.60833 4.58467 7.625C4.618 7.64167 4.62633 7.675 4.60967 7.725C4.593 7.75833 4.58467 7.79167 4.58467 7.825C4.58467 7.95833 4.593 8.05 4.60967 8.1C4.62633 8.13333 4.63467 8.175 4.63467 8.225C4.63467 8.29167 4.643 8.36667 4.65967 8.45C4.67633 8.51667 4.693 8.58333 4.70967 8.65C4.70967 8.68333 4.72633 8.69167 4.75967 8.675C4.77633 8.65833 4.80133 8.65 4.83467 8.65C4.85133 8.65 4.85967 8.675 4.85967 8.725V8.8C4.77633 8.91667 4.75967 9.04167 4.80967 9.175V9.275C4.82633 9.275 4.83467 9.28333 4.83467 9.3ZM5.28467 16.925C5.33467 16.925 5.38467 16.925 5.43467 16.925C5.48467 16.925 5.543 16.9167 5.60967 16.9C5.90967 16.85 6.22633 16.7583 6.55967 16.625L7.53467 16.175C7.80133 16.0417 8.05967 15.9167 8.30967 15.8C8.55967 15.6667 8.818 15.5417 9.08467 15.425C9.368 15.275 9.62633 15.075 9.85967 14.825C10.0097 14.675 10.0847 14.4917 10.0847 14.275V14.15C10.068 14.1167 10.0597 14.0917 10.0597 14.075C10.0597 14.0417 10.0513 14.0083 10.0347 13.975C9.98467 13.7083 9.90967 13.4583 9.80967 13.225C9.72634 12.975 9.63467 12.725 9.53467 12.475C9.518 12.4083 9.493 12.35 9.45967 12.3C9.42634 12.2333 9.393 12.1667 9.35967 12.1C9.30967 12 9.243 11.9417 9.15967 11.925C9.00967 11.875 8.868 11.85 8.73467 11.85H8.33467C7.88467 11.8333 7.42633 11.8583 6.95967 11.925C6.493 11.9917 6.018 12.0917 5.53467 12.225L5.35967 12.3C5.343 12.3167 5.32633 12.325 5.30967 12.325C5.30967 12.325 5.30133 12.3333 5.28467 12.35C5.23467 12.4 5.22633 12.45 5.25967 12.5L5.30967 12.55C5.35967 12.6 5.368 12.65 5.33467 12.7C5.30133 12.75 5.28467 12.8167 5.28467 12.9C5.28467 12.9667 5.28467 13.0333 5.28467 13.1C5.28467 13.15 5.293 13.2083 5.30967 13.275C5.32633 13.3417 5.33467 13.4083 5.33467 13.475C5.33467 13.5417 5.33467 13.6083 5.33467 13.675V13.975C5.33467 14.1417 5.368 14.2667 5.43467 14.35C5.468 14.4167 5.48467 14.4833 5.48467 14.55C5.50133 14.6167 5.50967 14.6833 5.50967 14.75C5.50967 14.8333 5.48467 14.925 5.43467 15.025C5.38467 15.1083 5.37633 15.2083 5.40967 15.325C5.42634 15.3583 5.45133 15.3917 5.48467 15.425C5.518 15.5417 5.50133 15.6333 5.43467 15.7C5.38467 15.7833 5.368 15.8583 5.38467 15.925C5.38467 16.025 5.37633 16.1 5.35967 16.15C5.343 16.1833 5.318 16.225 5.28467 16.275C5.268 16.325 5.23467 16.3667 5.18467 16.4C5.10133 16.4667 5.043 16.5667 5.00967 16.7C4.97633 16.7667 4.95967 16.825 4.95967 16.875C4.95967 16.9083 5.018 16.9167 5.13467 16.9C5.168 16.9 5.193 16.9083 5.20967 16.925C5.243 16.925 5.268 16.925 5.28467 16.925ZM16.8257 19.25C16.7257 19.25 16.659 19.2417 16.6257 19.225C16.559 19.1917 16.5007 19.1667 16.4507 19.15C16.4007 19.1333 16.3507 19.1167 16.3007 19.1C16.2507 19.0667 16.2007 19.0333 16.1507 19C16.1174 18.95 16.084 18.9 16.0507 18.85C16.0174 18.8167 15.984 18.8 15.9507 18.8C15.8507 18.8 15.8007 18.75 15.8007 18.65C15.784 18.55 15.7674 18.45 15.7507 18.35C15.734 18.25 15.7174 18.15 15.7007 18.05C15.684 17.9 15.6674 17.75 15.6507 17.6C15.6507 17.45 15.634 17.3083 15.6007 17.175V16.95C15.6007 16.8833 15.5924 16.825 15.5757 16.775C15.5757 16.725 15.5757 16.6667 15.5757 16.6C15.5424 16.5167 15.5424 16.45 15.5757 16.4C15.609 16.1 15.609 15.8 15.5757 15.5C15.559 15.4167 15.5507 15.3333 15.5507 15.25C15.5507 15.1667 15.5424 15.0833 15.5257 15C15.5257 14.8333 15.5257 14.6667 15.5257 14.5C15.5257 14.3167 15.509 14.1417 15.4757 13.975V13.575C15.4757 13.4417 15.4674 13.3167 15.4507 13.2C15.4507 13.0833 15.4424 12.9667 15.4257 12.85C15.409 12.7 15.3924 12.55 15.3757 12.4C15.3757 12.25 15.3674 12.1 15.3507 11.95C15.334 11.9167 15.3257 11.8583 15.3257 11.775C15.309 11.6917 15.2924 11.6083 15.2757 11.525C15.2757 11.425 15.2757 11.3333 15.2757 11.25L15.2007 10C15.184 9.86667 15.1674 9.74167 15.1507 9.625C15.1507 9.49167 15.1507 9.36667 15.1507 9.25C15.134 9.05 15.1174 8.85 15.1007 8.65C15.084 8.45 15.0674 8.25833 15.0507 8.075C15.0507 8.04167 15.0424 8.00833 15.0257 7.975C15.0257 7.94167 15.0257 7.91667 15.0257 7.9C15.0257 7.7 15.0174 7.5 15.0007 7.3C14.984 7.1 14.9674 6.89167 14.9507 6.675L14.8757 5.975C14.8257 5.70833 14.8174 5.41667 14.8507 5.1C14.8507 4.95 14.909 4.825 15.0257 4.725C15.059 4.69167 15.084 4.675 15.1007 4.675C15.1174 4.65833 15.134 4.64167 15.1507 4.625C15.234 4.60833 15.2757 4.55 15.2757 4.45C15.2757 4.41667 15.309 4.4 15.3757 4.4H15.5007C15.5174 4.4 15.5257 4.4 15.5257 4.4C15.5424 4.38333 15.559 4.375 15.5757 4.375C15.609 4.35833 15.634 4.34167 15.6507 4.325C15.684 4.29167 15.709 4.275 15.7257 4.275C15.759 4.275 15.7924 4.28333 15.8257 4.3C15.859 4.3 15.8924 4.30833 15.9257 4.325C15.959 4.325 15.984 4.31667 16.0007 4.3C16.084 4.28333 16.1674 4.29167 16.2507 4.325C16.3507 4.34167 16.434 4.36667 16.5007 4.4C16.6007 4.41667 16.6757 4.48333 16.7257 4.6C16.7757 4.75 16.8174 4.9 16.8507 5.05C16.9007 5.18333 16.934 5.325 16.9507 5.475V5.675C16.984 5.79167 17.0007 5.91667 17.0007 6.05C17.0007 6.16667 17.0007 6.29167 17.0007 6.425C17.0007 6.54167 17.0007 6.65833 17.0007 6.775C17.0174 6.875 17.034 6.975 17.0507 7.075C17.0507 7.125 17.0507 7.175 17.0507 7.225C17.0507 7.275 17.059 7.325 17.0757 7.375C17.0757 7.475 17.0757 7.575 17.0757 7.675C17.0924 7.775 17.109 7.88333 17.1257 8C17.1424 8.18333 17.159 8.375 17.1757 8.575C17.1924 8.775 17.2007 8.975 17.2007 9.175C17.2007 9.25833 17.2007 9.35 17.2007 9.45C17.2007 9.53333 17.209 9.61667 17.2257 9.7C17.2424 9.75 17.2507 9.8 17.2507 9.85C17.2507 9.9 17.2507 9.95 17.2507 10V10.5C17.2507 10.6 17.259 10.6833 17.2757 10.75C17.309 10.8667 17.3174 10.9833 17.3007 11.1C17.3007 11.2 17.309 11.3083 17.3257 11.425L17.4007 12.575C17.4174 12.7417 17.4257 12.9167 17.4257 13.1C17.4424 13.2667 17.4507 13.4417 17.4507 13.625C17.4507 13.6917 17.4507 13.7667 17.4507 13.85C17.4507 13.9167 17.459 13.9833 17.4757 14.05C17.4924 14.1 17.5007 14.15 17.5007 14.2C17.5007 14.25 17.5007 14.3 17.5007 14.35C17.5174 14.3667 17.5174 14.4 17.5007 14.45C17.5007 14.4833 17.509 14.5167 17.5257 14.55C17.559 14.6667 17.5757 14.7833 17.5757 14.9C17.5757 15.0167 17.5757 15.1417 17.5757 15.275C17.5757 15.3417 17.5757 15.4167 17.5757 15.5C17.5924 15.5667 17.6007 15.6417 17.6007 15.725C17.6174 15.8083 17.6257 15.9 17.6257 16C17.6257 16.1 17.6257 16.1917 17.6257 16.275C17.6424 16.3583 17.6507 16.45 17.6507 16.55C17.6507 16.6333 17.659 16.7167 17.6757 16.8C17.6924 16.8333 17.7007 16.8667 17.7007 16.9C17.7007 17.0833 17.7174 17.2667 17.7507 17.45C17.784 17.6333 17.8174 17.8167 17.8507 18C17.8674 18.05 17.8757 18.1083 17.8757 18.175C17.8757 18.225 17.8757 18.275 17.8757 18.325C17.8757 18.375 17.859 18.4167 17.8257 18.45C17.759 18.5 17.709 18.6 17.6757 18.75C17.6757 18.8 17.6507 18.8417 17.6007 18.875C17.484 18.925 17.384 18.9917 17.3007 19.075C17.1674 19.1917 17.009 19.25 16.8257 19.25ZM22.6827 19.075C22.5494 19.125 22.3994 19.1083 22.2327 19.025L21.7327 18.8C21.6494 18.7667 21.5827 18.6917 21.5327 18.575L21.4577 18.425C21.4244 18.3417 21.3827 18.2833 21.3327 18.25C21.2494 18.1833 21.191 18.0667 21.1577 17.9C21.1244 17.7333 21.0994 17.5667 21.0827 17.4C21.066 17.2333 21.0494 17.0667 21.0327 16.9C21.016 16.7667 21.0077 16.6333 21.0077 16.5C21.0077 16.3667 21.0077 16.2417 21.0077 16.125L21.0327 15.95C21.066 15.8667 21.0827 15.7833 21.0827 15.7C21.0827 15.6167 21.0827 15.5417 21.0827 15.475V10.925C21.116 10.6917 21.1327 10.4583 21.1327 10.225C21.1327 9.975 21.1327 9.73333 21.1327 9.5C21.1494 9.26667 21.1577 9.04167 21.1577 8.825C21.1577 8.59167 21.141 8.36667 21.1077 8.15C21.091 8.06667 21.0827 7.975 21.0827 7.875C21.0827 7.775 21.0827 7.675 21.0827 7.575C21.0827 7.425 21.0827 7.275 21.0827 7.125C21.0827 6.975 21.066 6.825 21.0327 6.675V6.6C21.0327 6.36667 21.016 6.14167 20.9827 5.925C20.966 5.69167 20.9494 5.46667 20.9327 5.25C20.916 5.11667 20.8994 4.99167 20.8827 4.875C20.866 4.75833 20.841 4.64167 20.8077 4.525C20.791 4.45833 20.7827 4.39167 20.7827 4.325C20.7827 4.25833 20.7827 4.19167 20.7827 4.125C20.7827 4.00833 20.7994 3.9 20.8327 3.8C20.866 3.68333 20.8994 3.575 20.9327 3.475C20.9494 3.44167 20.991 3.39167 21.0577 3.325C21.091 3.29167 21.1244 3.26667 21.1577 3.25C21.191 3.23333 21.216 3.21667 21.2327 3.2C21.3327 3.06667 21.466 3.00833 21.6327 3.025C21.666 3.04167 21.716 3.03333 21.7827 3C21.866 2.93333 21.941 2.925 22.0077 2.975C22.0577 3.00833 22.141 3.00833 22.2577 2.975C22.3077 2.975 22.3494 2.99167 22.3827 3.025C22.4327 3.09167 22.4994 3.14167 22.5827 3.175C22.666 3.20833 22.7244 3.25833 22.7577 3.325C22.8077 3.375 22.8577 3.425 22.9077 3.475C22.941 3.525 22.9744 3.575 23.0077 3.625C23.0577 3.65833 23.0827 3.70833 23.0827 3.775C23.0994 3.84167 23.0994 3.90833 23.0827 3.975C23.0827 4.025 23.0827 4.08333 23.0827 4.15C23.0827 4.3 23.091 4.45833 23.1077 4.625C23.141 4.775 23.166 4.925 23.1827 5.075C23.216 5.24167 23.241 5.41667 23.2577 5.6C23.2744 5.76667 23.291 5.94167 23.3077 6.125V6.375C23.341 6.49167 23.3577 6.60833 23.3577 6.725C23.3577 6.84167 23.366 6.95833 23.3827 7.075V7.1C23.3994 7.3 23.416 7.5 23.4327 7.7C23.4494 7.9 23.466 8.1 23.4827 8.3C23.4994 8.38333 23.5077 8.475 23.5077 8.575C23.5077 8.65833 23.5077 8.74167 23.5077 8.825V15.475C23.5077 15.625 23.516 15.775 23.5327 15.925C23.566 16.075 23.591 16.2167 23.6077 16.35C23.6077 16.4333 23.6577 16.475 23.7577 16.475C23.9077 16.5083 24.0494 16.5083 24.1827 16.475C24.366 16.4417 24.541 16.425 24.7077 16.425C24.891 16.425 25.0744 16.425 25.2577 16.425C25.441 16.425 25.616 16.425 25.7827 16.425C25.966 16.4083 26.141 16.3917 26.3077 16.375H26.5827C26.716 16.3917 26.8327 16.4083 26.9327 16.425C27.0494 16.425 27.166 16.425 27.2827 16.425C27.466 16.425 27.6494 16.4333 27.8327 16.45C28.0327 16.45 28.2244 16.4583 28.4077 16.475C28.541 16.4917 28.6744 16.5 28.8077 16.5C28.9577 16.5 29.1077 16.5 29.2577 16.5H29.3827C29.716 16.4833 30.016 16.5667 30.2827 16.75C30.3994 16.8 30.4827 16.8833 30.5327 17C30.566 17.0667 30.591 17.1333 30.6077 17.2C30.641 17.25 30.666 17.3167 30.6827 17.4C30.6994 17.4667 30.7077 17.5333 30.7077 17.6C30.7244 17.65 30.741 17.7083 30.7577 17.775C30.8077 17.925 30.791 18.0917 30.7077 18.275C30.691 18.325 30.6744 18.375 30.6577 18.425C30.641 18.475 30.616 18.525 30.5827 18.575C30.5494 18.625 30.5077 18.6667 30.4577 18.7C30.4577 18.7 30.4244 18.7167 30.3577 18.75C30.2244 18.8667 30.0744 18.9417 29.9077 18.975C29.7577 19.0083 29.591 19.0417 29.4077 19.075L29.1577 19.05C28.9077 18.9667 28.6577 18.9167 28.4077 18.9C28.341 18.8833 28.266 18.875 28.1827 18.875C28.0994 18.8583 28.016 18.85 27.9327 18.85C27.816 18.85 27.6994 18.85 27.5827 18.85C27.466 18.8333 27.341 18.8167 27.2077 18.8L26.9577 18.775C26.8077 18.7917 26.6577 18.8 26.5077 18.8C26.3577 18.7833 26.2077 18.7833 26.0577 18.8C25.991 18.8 25.9244 18.8 25.8577 18.8C25.791 18.7833 25.7244 18.775 25.6577 18.775C25.5244 18.775 25.391 18.775 25.2577 18.775C25.141 18.775 25.016 18.7917 24.8827 18.825C24.816 18.8417 24.7327 18.8583 24.6327 18.875C24.5494 18.875 24.466 18.875 24.3827 18.875C24.1327 18.8917 23.8827 18.9167 23.6327 18.95C23.3827 18.9667 23.141 19 22.9077 19.05C22.8577 19.0667 22.7827 19.075 22.6827 19.075ZM34.9142 19.075C34.7808 19.125 34.6308 19.1083 34.4642 19.025L33.9642 18.8C33.8808 18.7667 33.8142 18.6917 33.7642 18.575L33.6892 18.425C33.6558 18.3417 33.6142 18.2833 33.5642 18.25C33.4808 18.1833 33.4225 18.0667 33.3892 17.9C33.3558 17.7333 33.3308 17.5667 33.3142 17.4C33.2975 17.2333 33.2808 17.0667 33.2642 16.9C33.2475 16.7667 33.2392 16.6333 33.2392 16.5C33.2392 16.3667 33.2392 16.2417 33.2392 16.125L33.2642 15.95C33.2975 15.8667 33.3142 15.7833 33.3142 15.7C33.3142 15.6167 33.3142 15.5417 33.3142 15.475V10.925C33.3475 10.6917 33.3642 10.4583 33.3642 10.225C33.3642 9.975 33.3642 9.73333 33.3642 9.5C33.3808 9.26667 33.3892 9.04167 33.3892 8.825C33.3892 8.59167 33.3725 8.36667 33.3392 8.15C33.3225 8.06667 33.3142 7.975 33.3142 7.875C33.3142 7.775 33.3142 7.675 33.3142 7.575C33.3142 7.425 33.3142 7.275 33.3142 7.125C33.3142 6.975 33.2975 6.825 33.2642 6.675V6.6C33.2642 6.36667 33.2475 6.14167 33.2142 5.925C33.1975 5.69167 33.1808 5.46667 33.1642 5.25C33.1475 5.11667 33.1308 4.99167 33.1142 4.875C33.0975 4.75833 33.0725 4.64167 33.0392 4.525C33.0225 4.45833 33.0142 4.39167 33.0142 4.325C33.0142 4.25833 33.0142 4.19167 33.0142 4.125C33.0142 4.00833 33.0308 3.9 33.0642 3.8C33.0975 3.68333 33.1308 3.575 33.1642 3.475C33.1808 3.44167 33.2225 3.39167 33.2892 3.325C33.3225 3.29167 33.3558 3.26667 33.3892 3.25C33.4225 3.23333 33.4475 3.21667 33.4642 3.2C33.5642 3.06667 33.6975 3.00833 33.8642 3.025C33.8975 3.04167 33.9475 3.03333 34.0142 3C34.0975 2.93333 34.1725 2.925 34.2392 2.975C34.2892 3.00833 34.3725 3.00833 34.4892 2.975C34.5392 2.975 34.5808 2.99167 34.6142 3.025C34.6642 3.09167 34.7308 3.14167 34.8142 3.175C34.8975 3.20833 34.9558 3.25833 34.9892 3.325C35.0392 3.375 35.0892 3.425 35.1392 3.475C35.1725 3.525 35.2058 3.575 35.2392 3.625C35.2892 3.65833 35.3142 3.70833 35.3142 3.775C35.3308 3.84167 35.3308 3.90833 35.3142 3.975C35.3142 4.025 35.3142 4.08333 35.3142 4.15C35.3142 4.3 35.3225 4.45833 35.3392 4.625C35.3725 4.775 35.3975 4.925 35.4142 5.075C35.4475 5.24167 35.4725 5.41667 35.4892 5.6C35.5058 5.76667 35.5225 5.94167 35.5392 6.125V6.375C35.5725 6.49167 35.5892 6.60833 35.5892 6.725C35.5892 6.84167 35.5975 6.95833 35.6142 7.075V7.1C35.6308 7.3 35.6475 7.5 35.6642 7.7C35.6808 7.9 35.6975 8.1 35.7142 8.3C35.7308 8.38333 35.7392 8.475 35.7392 8.575C35.7392 8.65833 35.7392 8.74167 35.7392 8.825V15.475C35.7392 15.625 35.7475 15.775 35.7642 15.925C35.7975 16.075 35.8225 16.2167 35.8392 16.35C35.8392 16.4333 35.8892 16.475 35.9892 16.475C36.1392 16.5083 36.2808 16.5083 36.4142 16.475C36.5975 16.4417 36.7725 16.425 36.9392 16.425C37.1225 16.425 37.3058 16.425 37.4892 16.425C37.6725 16.425 37.8475 16.425 38.0142 16.425C38.1975 16.4083 38.3725 16.3917 38.5392 16.375H38.8142C38.9475 16.3917 39.0642 16.4083 39.1642 16.425C39.2808 16.425 39.3975 16.425 39.5142 16.425C39.6975 16.425 39.8808 16.4333 40.0642 16.45C40.2642 16.45 40.4558 16.4583 40.6392 16.475C40.7725 16.4917 40.9058 16.5 41.0392 16.5C41.1892 16.5 41.3392 16.5 41.4892 16.5H41.6142C41.9475 16.4833 42.2475 16.5667 42.5142 16.75C42.6308 16.8 42.7142 16.8833 42.7642 17C42.7975 17.0667 42.8225 17.1333 42.8392 17.2C42.8725 17.25 42.8975 17.3167 42.9142 17.4C42.9308 17.4667 42.9392 17.5333 42.9392 17.6C42.9558 17.65 42.9725 17.7083 42.9892 17.775C43.0392 17.925 43.0225 18.0917 42.9392 18.275C42.9225 18.325 42.9058 18.375 42.8892 18.425C42.8725 18.475 42.8475 18.525 42.8142 18.575C42.7808 18.625 42.7392 18.6667 42.6892 18.7C42.6892 18.7 42.6558 18.7167 42.5892 18.75C42.4558 18.8667 42.3058 18.9417 42.1392 18.975C41.9892 19.0083 41.8225 19.0417 41.6392 19.075L41.3892 19.05C41.1392 18.9667 40.8892 18.9167 40.6392 18.9C40.5725 18.8833 40.4975 18.875 40.4142 18.875C40.3308 18.8583 40.2475 18.85 40.1642 18.85C40.0475 18.85 39.9308 18.85 39.8142 18.85C39.6975 18.8333 39.5725 18.8167 39.4392 18.8L39.1892 18.775C39.0392 18.7917 38.8892 18.8 38.7392 18.8C38.5892 18.7833 38.4392 18.7833 38.2892 18.8C38.2225 18.8 38.1558 18.8 38.0892 18.8C38.0225 18.7833 37.9558 18.775 37.8892 18.775C37.7558 18.775 37.6225 18.775 37.4892 18.775C37.3725 18.775 37.2475 18.7917 37.1142 18.825C37.0475 18.8417 36.9642 18.8583 36.8642 18.875C36.7808 18.875 36.6975 18.875 36.6142 18.875C36.3642 18.8917 36.1142 18.9167 35.8642 18.95C35.6142 18.9667 35.3725 19 35.1392 19.05C35.0892 19.0667 35.0142 19.075 34.9142 19.075ZM49.4478 20.65C49.3978 20.6667 49.3478 20.6667 49.2978 20.65C49.2478 20.65 49.2061 20.65 49.1728 20.65C48.9894 20.6 48.8311 20.5 48.6978 20.35C48.5811 20.2167 48.4728 20.0583 48.3728 19.875C48.3561 19.8083 48.3311 19.7417 48.2978 19.675C48.2811 19.6083 48.2728 19.5417 48.2728 19.475V19.3C48.2394 19.1167 48.2144 18.9333 48.1978 18.75C48.1978 18.5667 48.1978 18.3833 48.1978 18.2C48.1978 17.9667 48.1978 17.7333 48.1978 17.5C48.2144 17.2667 48.2228 17.0333 48.2228 16.8C48.2228 16.6833 48.2311 16.5917 48.2478 16.525C48.2644 16.2083 48.2644 15.875 48.2478 15.525C48.2311 15.4417 48.2144 15.35 48.1978 15.25C48.1978 15.15 48.1978 15.05 48.1978 14.95C48.2144 14.7667 48.2144 14.5833 48.1978 14.4C48.1811 14.2167 48.1561 14.0333 48.1228 13.85L48.0478 13.425C48.0478 13.3917 48.0394 13.3583 48.0228 13.325C48.0228 13.275 48.0228 13.2417 48.0228 13.225C47.8894 12.725 47.7061 12.275 47.4728 11.875C47.3894 11.725 47.2978 11.575 47.1978 11.425C47.1144 11.2583 47.0311 11.0917 46.9478 10.925C46.8644 10.7583 46.7978 10.5917 46.7478 10.425C46.7144 10.2417 46.6811 10.0667 46.6478 9.9C46.6478 9.86667 46.6478 9.825 46.6478 9.775C46.6644 9.725 46.6728 9.675 46.6728 9.625C46.6728 9.525 46.6728 9.425 46.6728 9.325C46.6894 9.20833 46.6978 9.09167 46.6978 8.975C46.6978 8.85833 46.6644 8.76667 46.5978 8.7L46.4478 8.5C46.3811 8.41667 46.3228 8.33333 46.2728 8.25C46.2228 8.15 46.1644 8.05833 46.0978 7.975L45.8228 7.6C45.7561 7.5 45.6811 7.4 45.5978 7.3C45.5144 7.2 45.4311 7.09167 45.3478 6.975C45.3144 6.94167 45.2811 6.90833 45.2478 6.875C45.2144 6.825 45.1728 6.79167 45.1228 6.775C45.0561 6.75833 45.0061 6.71667 44.9728 6.65C44.9228 6.6 44.8644 6.525 44.7978 6.425C44.6978 6.25833 44.5894 6.09167 44.4728 5.925C44.3728 5.74167 44.2728 5.56667 44.1728 5.4L44.0978 5.3C43.9478 4.98333 43.7978 4.66667 43.6478 4.35C43.5144 4.01667 43.3894 3.69167 43.2728 3.375C43.2061 3.225 43.1561 3.05833 43.1228 2.875C43.1061 2.775 43.0811 2.675 43.0478 2.575C43.0144 2.475 42.9728 2.38333 42.9228 2.3C42.8728 2.21667 42.8394 2.13333 42.8228 2.05C42.8228 1.96667 42.8228 1.88333 42.8228 1.8C42.8228 1.75 42.8311 1.7 42.8478 1.65C42.8811 1.6 42.9061 1.55 42.9228 1.5C42.9728 1.41667 43.0228 1.34167 43.0728 1.275C43.1394 1.19167 43.2061 1.11667 43.2728 1.05C43.3561 0.966665 43.4478 0.924999 43.5478 0.924999C43.5978 0.924999 43.6311 0.916666 43.6478 0.899999C43.7811 0.833332 43.9144 0.816666 44.0478 0.85C44.1978 0.883333 44.3311 0.924999 44.4478 0.975C44.4978 0.991666 44.5394 1.025 44.5728 1.075C44.6061 1.10833 44.6394 1.14167 44.6728 1.175L44.9478 1.625C44.9811 1.65833 44.9978 1.7 44.9978 1.75C45.0144 1.8 45.0311 1.85 45.0478 1.9C45.0644 1.93333 45.0811 1.975 45.0978 2.025C45.2144 2.275 45.3228 2.525 45.4228 2.775C45.5394 3.00833 45.6478 3.25 45.7478 3.5C45.8311 3.71667 45.9144 3.93333 45.9978 4.15C46.0978 4.35 46.2061 4.55 46.3228 4.75C46.4061 4.95 46.5061 5.14167 46.6228 5.325C46.7394 5.50833 46.8561 5.69167 46.9728 5.875C47.0394 5.94167 47.0978 6.01667 47.1478 6.1C47.1978 6.18333 47.2561 6.26667 47.3228 6.35L47.4478 6.5C47.5811 6.63333 47.6644 6.7 47.6978 6.7C47.7311 6.7 47.8061 6.625 47.9228 6.475C47.9894 6.39167 48.0478 6.30833 48.0978 6.225C48.1644 6.125 48.2311 6.04167 48.2978 5.975C48.4311 5.80833 48.5561 5.65 48.6728 5.5C48.8061 5.35 48.9311 5.2 49.0478 5.05C49.2311 4.83333 49.4644 4.61667 49.7478 4.4C49.8644 4.3 49.9728 4.19167 50.0728 4.075C50.1894 3.925 50.3228 3.81667 50.4728 3.75C50.5894 3.68333 50.6978 3.61667 50.7978 3.55C50.8978 3.46667 50.9978 3.39167 51.0978 3.325C51.1978 3.225 51.3061 3.14167 51.4228 3.075C51.4894 3.025 51.5478 2.975 51.5978 2.925C51.6644 2.85833 51.7228 2.79167 51.7728 2.725C51.8061 2.675 51.8394 2.63333 51.8728 2.6C51.9228 2.55 51.9728 2.50833 52.0228 2.475L52.3728 2.25C52.4061 2.23333 52.4311 2.225 52.4478 2.225C52.4644 2.20833 52.4811 2.19167 52.4978 2.175C52.5311 2.175 52.5561 2.175 52.5728 2.175C52.5894 2.15833 52.6061 2.15 52.6228 2.15C52.7061 2.11667 52.7811 2.09167 52.8478 2.075C52.9311 2.05833 53.0144 2.05 53.0978 2.05C53.1978 2.1 53.2978 2.15 53.3978 2.2C53.4978 2.25 53.5811 2.31667 53.6478 2.4C53.6811 2.41667 53.7061 2.425 53.7228 2.425C53.7561 2.425 53.7811 2.43333 53.7978 2.45C53.8144 2.46667 53.8228 2.48333 53.8228 2.5C53.8228 2.51667 53.8144 2.55 53.7978 2.6C53.7811 2.63333 53.7728 2.65833 53.7728 2.675C53.7728 2.69167 53.7894 2.7 53.8228 2.7C53.8561 2.7 53.8811 2.70833 53.8978 2.725C53.9144 2.74167 53.9311 2.75 53.9478 2.75C53.9644 2.75 53.9728 2.76667 53.9728 2.8C53.9561 2.93333 53.9728 3.075 54.0228 3.225C54.0561 3.275 54.0728 3.325 54.0728 3.375C54.0728 3.425 54.0644 3.475 54.0478 3.525L53.7228 4.125C53.7061 4.19167 53.6644 4.24167 53.5978 4.275C53.3478 4.49167 53.0978 4.65833 52.8478 4.775C52.5478 4.875 52.2978 5.00833 52.0978 5.175C52.0144 5.24167 51.9311 5.30833 51.8478 5.375C51.7644 5.425 51.6811 5.49167 51.5978 5.575C51.5644 5.60833 51.5144 5.64167 51.4478 5.675L51.2978 5.8C51.1144 6 50.9311 6.2 50.7478 6.4C50.5811 6.58333 50.4061 6.775 50.2228 6.975C50.1894 7.04167 50.1478 7.075 50.0978 7.075C50.0144 7.125 49.9394 7.19167 49.8728 7.275C49.7894 7.40833 49.6978 7.54167 49.5978 7.675C49.4978 7.79167 49.4228 7.93333 49.3728 8.1L49.2228 8.35C49.2061 8.36667 49.1894 8.39167 49.1728 8.425C49.1561 8.44167 49.1394 8.46667 49.1228 8.5C49.0561 8.61667 49.0478 8.74167 49.0978 8.875C49.1311 8.90833 49.1561 8.95 49.1728 9C49.2061 9.05 49.2311 9.1 49.2478 9.15C49.2978 9.23333 49.2894 9.31667 49.2228 9.4C49.1894 9.41667 49.1728 9.45833 49.1728 9.525C49.2061 9.59167 49.2228 9.64167 49.2228 9.675C49.2561 9.775 49.2478 9.86667 49.1978 9.95C49.1644 10.0167 49.1478 10.0583 49.1478 10.075C49.1311 10.175 49.1394 10.2667 49.1728 10.35C49.2061 10.4167 49.2394 10.5 49.2728 10.6C49.3228 10.6833 49.3811 10.7667 49.4478 10.85C49.5311 11.0167 49.6144 11.175 49.6978 11.325C49.7811 11.475 49.8561 11.6333 49.9228 11.8L50.2228 12.775C50.2561 12.925 50.2811 13.0833 50.2978 13.25C50.3144 13.4 50.3311 13.55 50.3478 13.7C50.3644 13.8 50.3811 13.9 50.3978 14C50.4144 14.0833 50.4144 14.175 50.3978 14.275C50.4311 14.6417 50.4394 15.0083 50.4228 15.375C50.4228 15.725 50.4228 16.0833 50.4228 16.45C50.4228 16.4833 50.4144 16.5167 50.3978 16.55C50.3811 16.7333 50.3728 16.925 50.3728 17.125C50.3728 17.325 50.3644 17.5167 50.3478 17.7C50.3478 17.8167 50.3478 17.9333 50.3478 18.05C50.3644 18.1667 50.3728 18.2917 50.3728 18.425C50.3728 18.475 50.3811 18.5083 50.3978 18.525C50.4311 18.6083 50.4561 18.7 50.4728 18.8C50.4894 18.8833 50.5061 18.9667 50.5228 19.05C50.5394 19.1167 50.5478 19.175 50.5478 19.225C50.5478 19.2917 50.5311 19.3583 50.4978 19.425C50.4478 19.5417 50.4478 19.6667 50.4978 19.8C50.4978 19.8167 50.4728 19.8417 50.4228 19.875C50.3894 19.875 50.3561 19.8833 50.3228 19.9C50.3061 19.9 50.2811 19.9167 50.2478 19.95C50.2478 19.9833 50.2394 20.0083 50.2228 20.025C50.2061 20.1083 50.1394 20.2083 50.0228 20.325C49.9561 20.4083 49.8644 20.475 49.7478 20.525C49.6478 20.575 49.5478 20.6167 49.4478 20.65ZM69.5017 19.25C69.485 19.25 69.46 19.2417 69.4267 19.225C69.41 19.225 69.385 19.225 69.3517 19.225C69.235 19.225 69.1517 19.175 69.1017 19.075C69.035 18.9583 68.9683 18.8583 68.9017 18.775C68.835 18.6917 68.76 18.6083 68.6767 18.525C68.5933 18.4417 68.5183 18.35 68.4517 18.25C68.4017 18.15 68.3517 18.05 68.3017 17.95C68.2517 17.8667 68.2267 17.7833 68.2267 17.7V17.45C68.2267 17.3667 68.2183 17.2833 68.2017 17.2C68.2017 17.1 68.1933 17.0083 68.1767 16.925C68.1433 16.7917 68.11 16.65 68.0767 16.5C68.06 16.35 68.035 16.2083 68.0017 16.075C68.0017 16.0417 67.9933 16.0083 67.9767 15.975C67.9767 15.925 67.9767 15.8833 67.9767 15.85C67.96 15.6667 67.935 15.4833 67.9017 15.3C67.8683 15.1 67.835 14.9083 67.8017 14.725C67.7517 14.3917 67.6933 14.0667 67.6267 13.75C67.5767 13.4167 67.5267 13.0917 67.4767 12.775L67.3267 11.95C67.31 11.8167 67.26 11.675 67.1767 11.525C67.0767 11.3417 67.0017 11.1417 66.9517 10.925C66.935 10.825 66.91 10.7333 66.8767 10.65C66.8433 10.55 66.81 10.45 66.7767 10.35C66.7267 10.1833 66.6767 10.0167 66.6267 9.85C66.5767 9.68333 66.535 9.51667 66.5017 9.35C66.485 9.21667 66.46 9.08333 66.4267 8.95C66.3933 8.81667 66.36 8.68333 66.3267 8.55L66.1767 7.875C66.1767 7.84167 66.1683 7.81667 66.1517 7.8C66.135 7.56667 66.1017 7.33333 66.0517 7.1C66.0017 6.85 65.9517 6.60833 65.9017 6.375C65.885 6.24167 65.86 6.08333 65.8267 5.9C65.81 5.7 65.81 5.54167 65.8267 5.425V5.175C65.86 4.94167 65.935 4.725 66.0517 4.525C66.185 4.29167 66.4017 4.10833 66.7017 3.975C66.785 3.94167 66.8683 3.91667 66.9517 3.9C67.035 3.88333 67.11 3.86667 67.1767 3.85C67.36 3.83333 67.535 3.85833 67.7017 3.925C67.8683 3.975 68.035 4.05 68.2017 4.15C68.2517 4.18333 68.2933 4.225 68.3267 4.275C68.3767 4.35833 68.4267 4.44167 68.4767 4.525C68.5433 4.60833 68.585 4.7 68.6017 4.8C68.635 4.9 68.6683 5 68.7017 5.1C68.7517 5.2 68.8017 5.29167 68.8517 5.375C68.935 5.54167 68.9933 5.71667 69.0267 5.9C69.06 6.08333 69.0933 6.26667 69.1267 6.45C69.1767 6.7 69.2017 6.96667 69.2017 7.25V7.375C69.235 7.54167 69.2517 7.70833 69.2517 7.875C69.2517 8.025 69.2517 8.18333 69.2517 8.35C69.2683 8.61667 69.2933 8.88333 69.3267 9.15C69.36 9.4 69.3933 9.66667 69.4267 9.95L69.5767 11.125V11.175C69.61 11.3583 69.6433 11.55 69.6767 11.75C69.7267 11.9333 69.76 12.1167 69.7767 12.3C69.8267 12.5833 69.8767 12.875 69.9267 13.175C69.9933 13.4583 70.0433 13.7417 70.0767 14.025L70.2267 15.075C70.26 15.2417 70.285 15.4083 70.3017 15.575C70.335 15.7417 70.3683 15.9083 70.4017 16.075C70.435 16.2417 70.46 16.4083 70.4767 16.575C70.51 16.725 70.5433 16.8833 70.5767 17.05C70.5933 17.1167 70.6017 17.1833 70.6017 17.25C70.6183 17.3 70.6267 17.3583 70.6267 17.425C70.6433 17.675 70.6017 17.9167 70.5017 18.15C70.485 18.2167 70.4433 18.2833 70.3767 18.35C70.31 18.45 70.2517 18.5167 70.2017 18.55C70.0683 18.6833 69.9683 18.825 69.9017 18.975C69.9017 18.9917 69.885 19.0167 69.8517 19.05C69.835 19.0833 69.81 19.1167 69.7767 19.15C69.71 19.2167 69.6183 19.25 69.5017 19.25ZM76.055 19.35C75.9383 19.35 75.7966 19.3083 75.63 19.225C75.5466 19.175 75.48 19.1083 75.43 19.025C75.4133 18.975 75.3716 18.975 75.305 19.025C75.255 19.0583 75.2133 19.0583 75.18 19.025C75.13 18.975 75.08 18.9417 75.03 18.925C74.9633 18.925 74.93 18.9 74.93 18.85C74.93 18.8 74.9216 18.7583 74.905 18.725C74.905 18.675 74.8883 18.6333 74.855 18.6C74.755 18.5667 74.6883 18.4833 74.655 18.35C74.6383 18.3 74.6216 18.2583 74.605 18.225C74.5883 18.175 74.5633 18.125 74.53 18.075C74.4966 18.0083 74.48 17.95 74.48 17.9C74.4633 17.85 74.4466 17.8083 74.43 17.775C74.43 17.725 74.4133 17.675 74.38 17.625C74.3633 17.5083 74.33 17.4 74.28 17.3C74.23 17.2 74.1883 17.0917 74.155 16.975C74.1216 16.9083 74.105 16.8167 74.105 16.7C74.105 16.4 74.155 16.125 74.255 15.875C74.3383 15.725 74.3633 15.575 74.33 15.425C74.3133 15.3583 74.3133 15.2917 74.33 15.225C74.3633 15.1583 74.3716 15.0917 74.355 15.025C74.3383 14.9583 74.3216 14.9 74.305 14.85C74.305 14.8 74.305 14.7417 74.305 14.675C74.2883 14.6417 74.28 14.6 74.28 14.55C74.28 14.45 74.28 14.35 74.28 14.25C74.28 14.1333 74.2633 14.0167 74.23 13.9C74.2133 13.85 74.205 13.775 74.205 13.675V12.75C74.1883 12.5333 74.1633 12.3167 74.13 12.1C74.0966 11.8833 74.055 11.6667 74.005 11.45C74.005 11.4 73.9966 11.35 73.98 11.3C73.98 11.25 73.98 11.2 73.98 11.15C73.98 10.7833 73.9216 10.425 73.805 10.075V9.85C73.8383 9.66667 73.8216 9.525 73.755 9.425C73.7383 9.35833 73.73 9.26667 73.73 9.15V9.125C73.73 8.95833 73.7216 8.79167 73.705 8.625C73.705 8.45833 73.7133 8.29167 73.73 8.125C73.7633 7.825 73.7633 7.50833 73.73 7.175C73.73 7.04167 73.73 6.90833 73.73 6.775C73.73 6.64167 73.7216 6.51667 73.705 6.4V6.25C73.7383 6.16667 73.755 6.09167 73.755 6.025C73.755 5.95833 73.755 5.89167 73.755 5.825C73.755 5.625 73.7466 5.43333 73.73 5.25C73.73 5.05 73.7133 4.85833 73.68 4.675C73.68 4.625 73.68 4.575 73.68 4.525C73.68 4.45833 73.6716 4.4 73.655 4.35C73.655 4.23333 73.6133 4.13333 73.53 4.05L73.355 3.9C73.1883 3.8 73.08 3.64167 73.03 3.425C73.0133 3.39167 73.005 3.36667 73.005 3.35C73.005 3.31667 72.9966 3.28333 72.98 3.25C72.9466 3.16667 72.9633 3.09167 73.03 3.025C73.08 2.95833 73.1133 2.89167 73.13 2.825C73.13 2.775 73.1383 2.73333 73.155 2.7C73.1883 2.65 73.2133 2.6 73.23 2.55C73.2466 2.5 73.2633 2.44167 73.28 2.375C73.3133 2.325 73.3383 2.30833 73.355 2.325C73.4716 2.325 73.555 2.30833 73.605 2.275C73.7216 2.19167 73.8466 2.175 73.98 2.225C74.0133 2.24167 74.0633 2.23333 74.13 2.2C74.1466 2.2 74.155 2.19167 74.155 2.175C74.2383 2.09167 74.33 2.05 74.43 2.05C74.53 2.03333 74.6383 2.03333 74.755 2.05C74.7716 2.05 74.7883 2.05833 74.805 2.075C74.8216 2.075 74.8383 2.075 74.855 2.075C74.9883 2.10833 75.1133 2.14167 75.23 2.175C75.3633 2.19167 75.4883 2.19167 75.605 2.175C75.6883 2.175 75.7716 2.18333 75.855 2.2C75.955 2.21667 76.0466 2.225 76.13 2.225C76.1966 2.225 76.255 2.23333 76.305 2.25C76.3716 2.26667 76.43 2.28333 76.48 2.3C76.5466 2.31667 76.605 2.34167 76.655 2.375C76.705 2.39167 76.7633 2.4 76.83 2.4C76.9133 2.41667 76.98 2.43333 77.03 2.45C77.0966 2.46667 77.1633 2.49167 77.23 2.525C77.4466 2.64167 77.6633 2.75 77.88 2.85C77.98 2.9 78.0716 2.96667 78.155 3.05C78.2716 3.13333 78.3716 3.18333 78.455 3.2C78.4716 3.2 78.4883 3.20833 78.505 3.225C78.5216 3.225 78.5383 3.225 78.555 3.225C78.5716 3.24167 78.5883 3.25 78.605 3.25C78.6216 3.25 78.6383 3.25833 78.655 3.275C78.7383 3.35833 78.8383 3.425 78.955 3.475C79.0883 3.50833 79.1966 3.56667 79.28 3.65C79.3133 3.68333 79.3633 3.71667 79.43 3.75C79.5633 3.8 79.68 3.875 79.78 3.975C79.8133 4.00833 79.8383 4.025 79.855 4.025C79.9216 4.025 79.9966 4.06667 80.08 4.15L80.605 4.7C80.6716 4.76667 80.7216 4.825 80.755 4.875C80.8383 4.99167 80.93 5.1 81.03 5.2C81.13 5.3 81.23 5.4 81.33 5.5C81.3633 5.53333 81.3966 5.575 81.43 5.625C81.48 5.65833 81.5133 5.7 81.53 5.75C81.5466 5.78333 81.5716 5.81667 81.605 5.85C81.6383 5.86667 81.6633 5.89167 81.68 5.925C81.8633 6.125 82.0383 6.33333 82.205 6.55C82.3883 6.76667 82.555 6.99167 82.705 7.225C82.7883 7.34167 82.8633 7.46667 82.93 7.6C82.9966 7.73333 83.055 7.86667 83.105 8C83.155 8.11667 83.205 8.23333 83.255 8.35C83.3216 8.46667 83.38 8.58333 83.43 8.7C83.48 8.88333 83.5383 9.05 83.605 9.2C83.6716 9.41667 83.7383 9.625 83.805 9.825C83.8716 10.025 83.93 10.2417 83.98 10.475L84.055 10.8C84.055 10.9333 84.055 11.075 84.055 11.225C84.0716 11.3583 84.08 11.5 84.08 11.65C84.08 11.7167 84.0716 11.775 84.055 11.825C84.055 11.875 84.0383 11.9333 84.005 12C83.9716 12.1 83.955 12.1917 83.955 12.275C83.9383 12.4417 83.8966 12.6 83.83 12.75C83.78 12.9 83.7216 13.0417 83.655 13.175C83.505 13.4417 83.3716 13.7083 83.255 13.975C83.2216 14.0417 83.1883 14.1083 83.155 14.175C83.1383 14.225 83.1133 14.2833 83.08 14.35L82.93 14.65C82.8133 14.8833 82.6716 15.1167 82.505 15.35C82.355 15.5667 82.1883 15.775 82.005 15.975C81.9383 16.0583 81.855 16.1417 81.755 16.225C81.6716 16.2917 81.5883 16.3667 81.505 16.45C81.3383 16.6 81.1716 16.75 81.005 16.9C80.8383 17.0333 80.6633 17.1667 80.48 17.3C80.3133 17.4167 80.1383 17.525 79.955 17.625C79.7883 17.725 79.605 17.8083 79.405 17.875C79.305 17.8917 79.205 17.9417 79.105 18.025C79.005 18.0917 78.8966 18.1583 78.78 18.225C78.68 18.2917 78.5716 18.3667 78.455 18.45C78.405 18.4667 78.355 18.4917 78.305 18.525C78.255 18.5417 78.1966 18.5583 78.13 18.575C78.08 18.5917 78.0216 18.6083 77.955 18.625C77.905 18.6417 77.855 18.6583 77.805 18.675C77.7383 18.6917 77.6716 18.7167 77.605 18.75C77.555 18.7833 77.505 18.825 77.455 18.875C77.3383 18.9583 77.2133 19.025 77.08 19.075C76.9466 19.1417 76.8133 19.2167 76.68 19.3C76.6466 19.3167 76.5883 19.325 76.505 19.325C76.455 19.3417 76.405 19.3417 76.355 19.325C76.305 19.325 76.255 19.325 76.205 19.325V19.35H76.055ZM77.055 16.55C77.2216 16.55 77.3633 16.5167 77.48 16.45C77.6133 16.4 77.7383 16.3417 77.855 16.275C77.9716 16.2083 78.08 16.1333 78.18 16.05L78.48 15.75C78.6466 15.6167 78.7966 15.475 78.93 15.325C79.08 15.175 79.2383 15.0417 79.405 14.925C79.4383 14.8917 79.455 14.875 79.455 14.875C79.5216 14.8083 79.58 14.75 79.63 14.7C79.6966 14.6333 79.755 14.5667 79.805 14.5C79.8383 14.4667 79.88 14.425 79.93 14.375C79.98 14.325 80.0133 14.2833 80.03 14.25C80.0966 14.1333 80.1883 14.0333 80.305 13.95C80.3883 13.9 80.4383 13.85 80.455 13.8C80.4883 13.7167 80.53 13.6333 80.58 13.55C80.6466 13.4667 80.7133 13.3917 80.78 13.325C80.8633 13.225 80.9466 13.075 81.03 12.875L81.13 12.625C81.23 12.3917 81.28 12.175 81.28 11.975C81.2966 11.925 81.305 11.85 81.305 11.75C81.3216 11.5 81.305 11.2333 81.255 10.95C81.2383 10.8667 81.2216 10.7833 81.205 10.7C81.1883 10.6167 81.18 10.5417 81.18 10.475C81.1633 10.4083 81.1466 10.35 81.13 10.3C81.13 10.2333 81.1133 10.175 81.08 10.125C81.0466 10.0583 81.0216 9.99167 81.005 9.925C80.9883 9.85833 80.9716 9.79167 80.955 9.725C80.955 9.60833 80.9383 9.50833 80.905 9.425C80.8716 9.325 80.8383 9.225 80.805 9.125C80.755 9.025 80.705 8.925 80.655 8.825C80.605 8.70833 80.5633 8.59167 80.53 8.475L80.505 8.375C80.455 8.30833 80.4133 8.24167 80.38 8.175C80.3633 8.09167 80.3383 8.01667 80.305 7.95C80.2383 7.8 80.1716 7.65 80.105 7.5C80.055 7.35 79.9883 7.20833 79.905 7.075C79.8216 6.925 79.73 6.775 79.63 6.625C79.5466 6.475 79.4383 6.34167 79.305 6.225C78.9216 5.80833 78.48 5.43333 77.98 5.1C77.68 4.88333 77.38 4.74167 77.08 4.675C76.9633 4.64167 76.83 4.61667 76.68 4.6C76.53 4.56667 76.3883 4.54167 76.255 4.525C76.205 4.525 76.1633 4.54167 76.13 4.575C76.0466 4.64167 76.005 4.725 76.005 4.825C76.005 4.94167 75.9966 5.06667 75.98 5.2C75.98 5.31667 75.98 5.44167 75.98 5.575C76.0133 5.80833 76.005 6 75.955 6.15C75.9383 6.21667 75.9216 6.28333 75.905 6.35C75.905 6.41667 75.9133 6.49167 75.93 6.575C75.9633 6.675 75.955 6.76667 75.905 6.85C75.855 6.95 75.855 7.05833 75.905 7.175C75.9716 7.30833 75.9883 7.475 75.955 7.675C75.905 7.875 75.905 8.075 75.955 8.275C75.9716 8.34167 75.98 8.40833 75.98 8.475C75.9966 8.54167 75.9966 8.61667 75.98 8.7C75.98 8.88333 75.9883 9.06667 76.005 9.25C76.0383 9.43333 76.0633 9.61667 76.08 9.8C76.08 9.83333 76.0966 9.88333 76.13 9.95V10.35C76.13 10.3833 76.1216 10.425 76.105 10.475C76.105 10.5083 76.1133 10.5417 76.13 10.575C76.1633 10.7083 76.1883 10.85 76.205 11C76.2383 11.1333 76.2716 11.2667 76.305 11.4C76.305 11.4333 76.3133 11.475 76.33 11.525C76.3466 11.5583 76.355 11.6 76.355 11.65C76.355 11.7667 76.3633 11.8833 76.38 12C76.3966 12.1167 76.4133 12.2417 76.43 12.375C76.48 12.8417 76.555 13.3167 76.655 13.8C76.705 14 76.73 14.2083 76.73 14.425C76.73 14.475 76.73 14.5333 76.73 14.6C76.73 14.65 76.7383 14.7 76.755 14.75C76.7883 14.8667 76.805 14.9833 76.805 15.1C76.805 15.2167 76.805 15.3333 76.805 15.45C76.805 15.4833 76.7966 15.525 76.78 15.575C76.78 15.625 76.7883 15.6667 76.805 15.7C76.8383 15.7833 76.855 15.8667 76.855 15.95C76.855 16.0167 76.855 16.0917 76.855 16.175C76.855 16.2417 76.8716 16.325 76.905 16.425C76.905 16.5083 76.955 16.55 77.055 16.55ZM91.8548 19.5C91.6881 19.4833 91.5215 19.4583 91.3548 19.425C91.2048 19.4083 91.0548 19.3667 90.9048 19.3L90.2798 19.075C90.0631 18.9917 89.8631 18.9 89.6798 18.8C89.4965 18.6833 89.3131 18.5667 89.1298 18.45C89.0465 18.3667 88.9631 18.2917 88.8798 18.225C88.7965 18.1417 88.7131 18.0667 88.6298 18C88.4965 17.8667 88.3631 17.7333 88.2298 17.6C88.0965 17.45 87.9715 17.2917 87.8548 17.125L87.2548 16.2C87.1048 15.9667 86.9715 15.725 86.8548 15.475C86.7381 15.2083 86.6381 14.9417 86.5548 14.675C86.3715 14.175 86.2798 13.6833 86.2798 13.2V12.8C86.2798 12.3833 86.3048 11.975 86.3548 11.575C86.3881 11.2417 86.4631 10.9417 86.5798 10.675C86.6465 10.5083 86.7048 10.3417 86.7548 10.175C86.8048 10.0083 86.8631 9.85 86.9298 9.7L87.0048 9.525C87.0381 9.30833 87.1131 9.11667 87.2298 8.95C87.3465 8.76667 87.4465 8.59167 87.5298 8.425C87.5965 8.29167 87.6715 8.175 87.7548 8.075C87.8381 7.95833 87.9131 7.84167 87.9798 7.725C88.0131 7.675 88.0548 7.63333 88.1048 7.6C88.1548 7.55 88.1965 7.5 88.2298 7.45C88.2631 7.41667 88.2881 7.375 88.3048 7.325C88.3381 7.25833 88.3631 7.2 88.3798 7.15C88.4131 7.1 88.4715 7.03333 88.5548 6.95C88.6548 6.9 88.7465 6.78333 88.8298 6.6C88.8631 6.53333 88.8965 6.48333 88.9298 6.45C89.0298 6.36667 89.1131 6.26667 89.1798 6.15C89.2631 6.03333 89.3548 5.925 89.4548 5.825C89.5215 5.75833 89.5548 5.66667 89.5548 5.55C89.5548 5.46667 89.5548 5.39167 89.5548 5.325C89.5715 5.24167 89.5715 5.16667 89.5548 5.1C89.5381 5.01667 89.5631 4.94167 89.6298 4.875C89.6631 4.84167 89.6881 4.8 89.7048 4.75C89.7215 4.7 89.7381 4.65 89.7548 4.6C89.8048 4.43333 89.9381 4.29167 90.1548 4.175C90.1881 4.14167 90.2298 4.125 90.2798 4.125C90.3465 4.10833 90.4048 4.09167 90.4548 4.075C90.5715 4.025 90.7048 4.01667 90.8548 4.05C90.9215 4.06667 90.9798 4.075 91.0298 4.075C91.0798 4.05833 91.1298 4.04167 91.1798 4.025C91.2465 3.99167 91.3048 3.96667 91.3548 3.95C91.4215 3.93333 91.4798 3.91667 91.5298 3.9C91.7631 3.81667 92.0048 3.825 92.2548 3.925C92.5215 4.025 92.7131 4.2 92.8298 4.45C92.8631 4.53333 92.8965 4.61667 92.9298 4.7C92.9631 4.78333 92.9881 4.86667 93.0048 4.95C93.0381 5.13333 93.0298 5.29167 92.9798 5.425C92.9465 5.49167 92.9298 5.53333 92.9298 5.55C92.9131 5.61667 92.9298 5.675 92.9798 5.725C93.0131 5.775 93.0548 5.81667 93.1048 5.85C93.2881 6.01667 93.4631 6.18333 93.6298 6.35C93.7965 6.5 93.9548 6.66667 94.1048 6.85C94.2381 6.98333 94.3465 7.125 94.4298 7.275C94.5298 7.40833 94.6215 7.55833 94.7048 7.725C94.7381 7.80833 94.7798 7.9 94.8298 8C94.8798 8.08333 94.9298 8.16667 94.9798 8.25C95.0631 8.4 95.1298 8.55833 95.1798 8.725C95.2465 8.89167 95.3131 9.05833 95.3798 9.225V9.25C95.4131 9.36667 95.4381 9.49167 95.4548 9.625C95.4881 9.74167 95.5381 9.86667 95.6048 10C95.6548 10.1167 95.6965 10.2417 95.7298 10.375C95.7631 10.4917 95.7965 10.6167 95.8298 10.75C95.8631 10.9 95.8965 11.05 95.9298 11.2C95.9798 11.35 96.0131 11.5 96.0298 11.65C96.0465 11.7167 96.0631 11.7833 96.0798 11.85C96.0965 11.9 96.1131 11.9583 96.1298 12.025C96.1631 12.175 96.1965 12.325 96.2298 12.475C96.2631 12.625 96.2881 12.775 96.3048 12.925L96.3798 13.1C96.4131 13.2 96.4465 13.3333 96.4798 13.5C96.5298 13.7167 96.5548 13.9333 96.5548 14.15C96.5715 14.3667 96.5715 14.5917 96.5548 14.825C96.5548 14.9417 96.5465 15.0333 96.5298 15.1C96.4298 15.45 96.3048 15.8083 96.1548 16.175C96.0881 16.2917 96.0215 16.4083 95.9548 16.525C95.8881 16.625 95.8215 16.7333 95.7548 16.85L95.5298 17.2C95.4465 17.35 95.3548 17.4833 95.2548 17.6C95.0881 17.8667 94.8881 18.1 94.6548 18.3C94.4215 18.5 94.1715 18.6917 93.9048 18.875C93.3215 19.325 92.6381 19.5333 91.8548 19.5ZM91.7548 17.025C92.1048 17.025 92.4048 16.925 92.6548 16.725C92.7381 16.6417 92.8215 16.5667 92.9048 16.5C93.0048 16.4167 93.0881 16.3333 93.1548 16.25C93.4715 15.9 93.7215 15.5333 93.9048 15.15L93.9798 14.9C94.0131 14.6 94.0131 14.3 93.9798 14L93.8298 13.175C93.7798 12.9583 93.7381 12.75 93.7048 12.55C93.6715 12.3333 93.6215 12.125 93.5548 11.925C93.5048 11.8083 93.4881 11.7167 93.5048 11.65C93.5215 11.5667 93.5215 11.4833 93.5048 11.4C93.4881 11.3167 93.4631 11.2333 93.4298 11.15C93.3798 10.9333 93.3215 10.7167 93.2548 10.5C93.1881 10.2833 93.1215 10.0667 93.0548 9.85C93.0381 9.8 93.0215 9.75 93.0048 9.7C92.9881 9.65 92.9715 9.6 92.9548 9.55C92.8381 9.31667 92.7131 9.09167 92.5798 8.875C92.4465 8.65833 92.2965 8.45833 92.1298 8.275C92.0465 8.175 91.9548 8.08333 91.8548 8C91.7548 7.9 91.6548 7.80833 91.5548 7.725C91.5381 7.69167 91.5131 7.675 91.4798 7.675C91.4631 7.65833 91.4381 7.64167 91.4048 7.625C91.3548 7.55833 91.2881 7.56667 91.2048 7.65C91.1215 7.73333 91.0298 7.825 90.9298 7.925C90.8465 8.025 90.7631 8.125 90.6798 8.225C90.5965 8.34167 90.5048 8.45833 90.4048 8.575C90.3215 8.69167 90.2381 8.80833 90.1548 8.925C90.0381 9.075 89.9298 9.225 89.8298 9.375C89.7298 9.525 89.6298 9.675 89.5298 9.825C89.1798 10.3917 88.9048 11.0167 88.7048 11.7C88.6715 11.8 88.6548 11.875 88.6548 11.925C88.6381 12.0417 88.6215 12.1583 88.6048 12.275C88.6048 12.3917 88.6048 12.5167 88.6048 12.65V12.85C88.6215 12.9 88.6298 12.95 88.6298 13C88.6298 13.05 88.6381 13.1 88.6548 13.15C88.6548 13.35 88.7048 13.5667 88.8048 13.8C88.9381 14.1333 89.0881 14.4583 89.2548 14.775C89.4215 15.0917 89.6131 15.3917 89.8298 15.675C89.8798 15.7417 89.9298 15.8083 89.9798 15.875C90.0465 15.9417 90.1048 16.0083 90.1548 16.075C90.3048 16.2417 90.4631 16.3917 90.6298 16.525C90.8131 16.6583 90.9965 16.775 91.1798 16.875C91.3798 16.975 91.5715 17.025 91.7548 17.025ZM100.979 19.075C100.845 19.125 100.695 19.1083 100.529 19.025L100.029 18.8C99.9453 18.7667 99.8786 18.6917 99.8286 18.575L99.7536 18.425C99.7203 18.3417 99.6786 18.2833 99.6286 18.25C99.5453 18.1833 99.4869 18.0667 99.4536 17.9C99.4203 17.7333 99.3953 17.5667 99.3786 17.4C99.3619 17.2333 99.3453 17.0667 99.3286 16.9C99.3119 16.7667 99.3036 16.6333 99.3036 16.5C99.3036 16.3667 99.3036 16.2417 99.3036 16.125L99.3286 15.95C99.3619 15.8667 99.3786 15.7833 99.3786 15.7C99.3786 15.6167 99.3786 15.5417 99.3786 15.475V10.925C99.4119 10.6917 99.4286 10.4583 99.4286 10.225C99.4286 9.975 99.4286 9.73333 99.4286 9.5C99.4453 9.26667 99.4536 9.04167 99.4536 8.825C99.4536 8.59167 99.4369 8.36667 99.4036 8.15C99.3869 8.06667 99.3786 7.975 99.3786 7.875C99.3786 7.775 99.3786 7.675 99.3786 7.575C99.3786 7.425 99.3786 7.275 99.3786 7.125C99.3786 6.975 99.3619 6.825 99.3286 6.675V6.6C99.3286 6.36667 99.3119 6.14167 99.2786 5.925C99.2619 5.69167 99.2453 5.46667 99.2286 5.25C99.2119 5.11667 99.1953 4.99167 99.1786 4.875C99.1619 4.75833 99.1369 4.64167 99.1036 4.525C99.0869 4.45833 99.0786 4.39167 99.0786 4.325C99.0786 4.25833 99.0786 4.19167 99.0786 4.125C99.0786 4.00833 99.0953 3.9 99.1286 3.8C99.1619 3.68333 99.1953 3.575 99.2286 3.475C99.2453 3.44167 99.2869 3.39167 99.3536 3.325C99.3869 3.29167 99.4203 3.26667 99.4536 3.25C99.4869 3.23333 99.5119 3.21667 99.5286 3.2C99.6286 3.06667 99.7619 3.00833 99.9286 3.025C99.9619 3.04167 100.012 3.03333 100.079 3C100.162 2.93333 100.237 2.925 100.304 2.975C100.354 3.00833 100.437 3.00833 100.554 2.975C100.604 2.975 100.645 2.99167 100.679 3.025C100.729 3.09167 100.795 3.14167 100.879 3.175C100.962 3.20833 101.02 3.25833 101.054 3.325C101.104 3.375 101.154 3.425 101.204 3.475C101.237 3.525 101.27 3.575 101.304 3.625C101.354 3.65833 101.379 3.70833 101.379 3.775C101.395 3.84167 101.395 3.90833 101.379 3.975C101.379 4.025 101.379 4.08333 101.379 4.15C101.379 4.3 101.387 4.45833 101.404 4.625C101.437 4.775 101.462 4.925 101.479 5.075C101.512 5.24167 101.537 5.41667 101.554 5.6C101.57 5.76667 101.587 5.94167 101.604 6.125V6.375C101.637 6.49167 101.654 6.60833 101.654 6.725C101.654 6.84167 101.662 6.95833 101.679 7.075V7.1C101.695 7.3 101.712 7.5 101.729 7.7C101.745 7.9 101.762 8.1 101.779 8.3C101.795 8.38333 101.804 8.475 101.804 8.575C101.804 8.65833 101.804 8.74167 101.804 8.825V15.475C101.804 15.625 101.812 15.775 101.829 15.925C101.862 16.075 101.887 16.2167 101.904 16.35C101.904 16.4333 101.954 16.475 102.054 16.475C102.204 16.5083 102.345 16.5083 102.479 16.475C102.662 16.4417 102.837 16.425 103.004 16.425C103.187 16.425 103.37 16.425 103.554 16.425C103.737 16.425 103.912 16.425 104.079 16.425C104.262 16.4083 104.437 16.3917 104.604 16.375H104.879C105.012 16.3917 105.129 16.4083 105.229 16.425C105.345 16.425 105.462 16.425 105.579 16.425C105.762 16.425 105.945 16.4333 106.129 16.45C106.329 16.45 106.52 16.4583 106.704 16.475C106.837 16.4917 106.97 16.5 107.104 16.5C107.254 16.5 107.404 16.5 107.554 16.5H107.679C108.012 16.4833 108.312 16.5667 108.579 16.75C108.695 16.8 108.779 16.8833 108.829 17C108.862 17.0667 108.887 17.1333 108.904 17.2C108.937 17.25 108.962 17.3167 108.979 17.4C108.995 17.4667 109.004 17.5333 109.004 17.6C109.02 17.65 109.037 17.7083 109.054 17.775C109.104 17.925 109.087 18.0917 109.004 18.275C108.987 18.325 108.97 18.375 108.954 18.425C108.937 18.475 108.912 18.525 108.879 18.575C108.845 18.625 108.804 18.6667 108.754 18.7C108.754 18.7 108.72 18.7167 108.654 18.75C108.52 18.8667 108.37 18.9417 108.204 18.975C108.054 19.0083 107.887 19.0417 107.704 19.075L107.454 19.05C107.204 18.9667 106.954 18.9167 106.704 18.9C106.637 18.8833 106.562 18.875 106.479 18.875C106.395 18.8583 106.312 18.85 106.229 18.85C106.112 18.85 105.995 18.85 105.879 18.85C105.762 18.8333 105.637 18.8167 105.504 18.8L105.254 18.775C105.104 18.7917 104.954 18.8 104.804 18.8C104.654 18.7833 104.504 18.7833 104.354 18.8C104.287 18.8 104.22 18.8 104.154 18.8C104.087 18.7833 104.02 18.775 103.954 18.775C103.82 18.775 103.687 18.775 103.554 18.775C103.437 18.775 103.312 18.7917 103.179 18.825C103.112 18.8417 103.029 18.8583 102.929 18.875C102.845 18.875 102.762 18.875 102.679 18.875C102.429 18.8917 102.179 18.9167 101.929 18.95C101.679 18.9667 101.437 19 101.204 19.05C101.154 19.0667 101.079 19.075 100.979 19.075Z" fill="#353535"/>
</svg>
