<svg width="186" height="27" viewBox="0 0 186 27" fill="none" xmlns="http://www.w3.org/2000/svg">
<path d="M4.13113 26.11C4.03113 26.15 3.95113 26.14 3.89113 26.08C3.67113 25.98 3.53113 25.81 3.47113 25.57V25.51C3.45113 25.33 3.43113 25.15 3.41113 24.97C3.39113 24.79 3.37113 24.62 3.35113 24.46C3.35113 24.42 3.34113 24.37 3.32113 24.31C3.32113 24.27 3.32113 24.23 3.32113 24.19C3.30113 24.13 3.29113 24.07 3.29113 24.01C3.29113 23.95 3.29113 23.89 3.29113 23.83C3.29113 23.67 3.27113 23.53 3.23113 23.41C3.19113 23.29 3.15113 23.17 3.11113 23.05C3.07113 22.97 3.03113 22.92 2.99113 22.9C2.91113 22.8 2.85113 22.69 2.81113 22.57C2.77113 22.47 2.72113 22.36 2.66113 22.24V22.21C2.56113 21.93 2.50113 21.75 2.48113 21.67C2.46113 21.57 2.45113 21.38 2.45113 21.1V20.71C2.45113 20.51 2.51113 20.35 2.63113 20.23C2.65113 20.19 2.67113 20.15 2.69113 20.11C2.73113 20.07 2.76113 20.03 2.78113 19.99C2.82113 19.87 2.82113 19.78 2.78113 19.72C2.70113 19.56 2.64113 19.4 2.60113 19.24C2.56113 19.06 2.52113 18.88 2.48113 18.7V18.37C2.50113 18.25 2.51113 18.14 2.51113 18.04C2.53113 17.92 2.55113 17.8 2.57113 17.68C2.61113 17.5 2.61113 17.3 2.57113 17.08C2.53113 16.96 2.51113 16.87 2.51113 16.81C2.49113 16.75 2.47113 16.69 2.45113 16.63C2.45113 16.57 2.45113 16.51 2.45113 16.45C2.45113 16.21 2.42113 15.99 2.36113 15.79C2.32113 15.67 2.30113 15.57 2.30113 15.49C2.30113 15.17 2.28113 14.86 2.24113 14.56C2.20113 14.24 2.16113 13.92 2.12113 13.6C2.12113 13.56 2.11113 13.54 2.09113 13.54C2.09113 13.52 2.09113 13.5 2.09113 13.48C2.09113 13.32 2.07113 13.16 2.03113 13C1.99113 12.82 1.95113 12.66 1.91113 12.52C1.89113 12.48 1.88113 12.43 1.88113 12.37C1.88113 12.31 1.87113 12.26 1.85113 12.22C1.83113 12.08 1.81113 11.95 1.79113 11.83C1.79113 11.71 1.77113 11.58 1.73113 11.44V11.32C1.71113 11.1 1.67113 10.89 1.61113 10.69C1.57113 10.49 1.53113 10.29 1.49113 10.09C1.49113 10.01 1.48113 9.93 1.46113 9.85C1.46113 9.77 1.45113 9.69 1.43113 9.61L1.34113 9.28C1.32113 9.2 1.30113 9.12 1.28113 9.04C1.28113 8.94 1.27113 8.85 1.25113 8.77C1.23113 8.63 1.22113 8.5 1.22113 8.38C1.22113 8.24 1.21113 8.1 1.19113 7.96C1.17113 7.82 1.15113 7.69 1.13113 7.57C1.13113 7.45 1.11113 7.33 1.07113 7.21C1.05113 7.05 1.03113 6.89 1.01113 6.73C1.01113 6.55 0.991133 6.38 0.951133 6.22C0.891133 5.9 0.771133 5.61 0.591133 5.35C0.211133 4.79 0.0511329 4.16 0.111133 3.46C0.151133 3.24 0.241133 3.04 0.381133 2.86C0.401133 2.82 0.451133 2.76 0.531133 2.68C0.671133 2.5 0.831133 2.37 1.01113 2.29C1.21113 2.19 1.42113 2.13 1.64113 2.11C1.98113 2.05 2.29113 1.96 2.57113 1.84C3.11113 1.68 3.65113 1.56 4.19113 1.48C4.55113 1.42 4.91113 1.39 5.27113 1.39H5.57113C5.73113 1.35 5.89113 1.33 6.05113 1.33C6.23113 1.33 6.40113 1.33 6.56113 1.33H6.83113C6.95113 1.33 7.05113 1.29 7.13113 1.21L7.49113 0.999999C7.55113 0.959999 7.61113 0.959999 7.67113 0.999999C7.73113 1.04 7.79113 1.07 7.85113 1.09C7.93113 1.11 8.00113 1.14 8.06113 1.18C8.16113 1.22 8.25113 1.26 8.33113 1.3C8.41113 1.34 8.49113 1.38 8.57113 1.42C8.61113 1.46 8.66113 1.49 8.72113 1.51C8.78113 1.53 8.84113 1.55 8.90113 1.57L9.47113 1.69C9.63113 1.71 9.77113 1.75 9.89113 1.81C10.0311 1.85 10.1711 1.9 10.3111 1.96C10.4711 2.02 10.6111 2.11 10.7311 2.23C10.8511 2.33 10.9711 2.45 11.0911 2.59C11.3711 2.85 11.5511 3.18 11.6311 3.58C11.6511 3.74 11.7011 3.93 11.7811 4.15C11.8211 4.29 11.8411 4.43 11.8411 4.57C11.8411 4.71 11.8511 4.86 11.8711 5.02C11.8711 5.02 11.8711 5.07 11.8711 5.17C11.8511 5.39 11.8211 5.62 11.7811 5.86C11.7411 6.08 11.6911 6.3 11.6311 6.52C11.5711 6.72 11.5011 6.93 11.4211 7.15C11.3611 7.37 11.2811 7.58 11.1811 7.78C11.0611 8.08 10.8911 8.37 10.6711 8.65C10.5311 8.83 10.3911 9.02 10.2511 9.22C10.1311 9.4 9.99113 9.58 9.83113 9.76C9.75113 9.84 9.67113 9.93 9.59113 10.03C9.51113 10.11 9.43113 10.19 9.35113 10.27L8.99113 10.63V10.69C8.99113 10.73 9.01113 10.75 9.05113 10.75H9.50113C9.78113 10.77 10.0611 10.81 10.3411 10.87C10.6211 10.91 10.8911 10.97 11.1511 11.05C11.2111 11.07 11.2611 11.09 11.3011 11.11C11.3611 11.13 11.4211 11.16 11.4811 11.2L11.8411 11.41C11.9611 11.49 12.0711 11.57 12.1711 11.65C12.2711 11.73 12.3411 11.85 12.3811 12.01C12.4211 12.11 12.4711 12.21 12.5311 12.31C12.6311 12.49 12.7211 12.68 12.8011 12.88C12.8811 13.06 12.9611 13.25 13.0411 13.45C13.0811 13.53 13.1111 13.61 13.1311 13.69C13.1711 13.75 13.2011 13.82 13.2211 13.9C13.3211 14.18 13.4211 14.46 13.5211 14.74C13.6211 15.02 13.7011 15.31 13.7611 15.61L13.8511 16.36C13.8911 16.48 13.8911 16.61 13.8511 16.75C13.8311 16.87 13.8111 16.99 13.7911 17.11C13.7711 17.21 13.7511 17.32 13.7311 17.44C13.6711 17.7 13.5811 17.95 13.4611 18.19C13.4011 18.31 13.3211 18.42 13.2211 18.52C12.9611 18.84 12.6911 19.09 12.4111 19.27C12.2711 19.35 12.1311 19.44 11.9911 19.54C11.8711 19.64 11.7311 19.74 11.5711 19.84C11.2711 20.02 10.9311 20.21 10.5511 20.41C10.4511 20.45 10.3411 20.5 10.2211 20.56C10.1211 20.62 10.0211 20.67 9.92113 20.71C9.60113 20.85 9.29113 20.99 8.99113 21.13C8.69113 21.27 8.39113 21.4 8.09113 21.52C7.77113 21.64 7.46113 21.76 7.16113 21.88C6.86113 22 6.54113 22.11 6.20113 22.21C6.12113 22.23 6.04113 22.25 5.96113 22.27C5.90113 22.29 5.83113 22.31 5.75113 22.33C5.39113 22.39 5.10113 22.58 4.88113 22.9C4.80113 22.98 4.76113 23.08 4.76113 23.2C4.74113 23.28 4.72113 23.35 4.70113 23.41C4.70113 23.49 4.70113 23.57 4.70113 23.65C4.68113 23.71 4.67113 23.79 4.67113 23.89V24.94C4.67113 25.04 4.67113 25.14 4.67113 25.24C4.67113 25.36 4.65113 25.47 4.61113 25.57C4.57113 25.79 4.41113 25.97 4.13113 26.11ZM4.82113 10.36C4.84113 10.38 4.85113 10.39 4.85113 10.39C4.85113 10.37 4.86113 10.36 4.88113 10.36C4.90113 10.34 4.91113 10.33 4.91113 10.33C4.93113 10.33 4.94113 10.33 4.94113 10.33C5.04113 10.35 5.14113 10.33 5.24113 10.27C5.34113 10.19 5.44113 10.12 5.54113 10.06C5.66113 9.98 5.78113 9.9 5.90113 9.82C6.08113 9.7 6.25113 9.57 6.41113 9.43C6.59113 9.27 6.76113 9.11 6.92113 8.95C7.16113 8.69 7.39113 8.43 7.61113 8.17C7.83113 7.89 8.03113 7.6 8.21113 7.3C8.31113 7.12 8.41113 6.95 8.51113 6.79C8.61113 6.61 8.70113 6.42 8.78113 6.22C8.88113 5.96 8.95113 5.66 8.99113 5.32C9.03113 5.12 9.02113 4.94 8.96113 4.78C8.90113 4.62 8.81113 4.51 8.69113 4.45C8.33113 4.29 7.99113 4.21 7.67113 4.21C7.47113 4.21 7.28113 4.21 7.10113 4.21C6.92113 4.21 6.74113 4.22 6.56113 4.24C6.40113 4.26 6.24113 4.28 6.08113 4.3C5.92113 4.32 5.76113 4.35 5.60113 4.39C5.46113 4.43 5.31113 4.48 5.15113 4.54C5.01113 4.58 4.86113 4.62 4.70113 4.66C4.48113 4.72 4.34113 4.85 4.28113 5.05C4.24113 5.11 4.22113 5.2 4.22113 5.32V5.8C4.20113 6 4.20113 6.2 4.22113 6.4C4.24113 6.6 4.26113 6.8 4.28113 7L4.31113 7.03C4.29113 7.17 4.29113 7.31 4.31113 7.45C4.35113 7.59 4.38113 7.74 4.40113 7.9C4.40113 7.96 4.43113 8.01 4.49113 8.05C4.57113 8.09 4.58113 8.17 4.52113 8.29C4.52113 8.29 4.51113 8.3 4.49113 8.32C4.49113 8.32 4.50113 8.33 4.52113 8.35C4.56113 8.37 4.57113 8.41 4.55113 8.47C4.53113 8.51 4.52113 8.55 4.52113 8.59C4.52113 8.75 4.53113 8.86 4.55113 8.92C4.57113 8.96 4.58113 9.01 4.58113 9.07C4.58113 9.15 4.59113 9.24 4.61113 9.34C4.63113 9.42 4.65113 9.5 4.67113 9.58C4.67113 9.62 4.69113 9.63 4.73113 9.61C4.75113 9.59 4.78113 9.58 4.82113 9.58C4.84113 9.58 4.85113 9.61 4.85113 9.67V9.76C4.75113 9.9 4.73113 10.05 4.79113 10.21V10.33C4.81113 10.33 4.82113 10.34 4.82113 10.36ZM5.36113 19.51C5.42113 19.51 5.48113 19.51 5.54113 19.51C5.60113 19.51 5.67113 19.5 5.75113 19.48C6.11113 19.42 6.49113 19.31 6.89113 19.15L8.06113 18.61C8.38113 18.45 8.69113 18.3 8.99113 18.16C9.29113 18 9.60113 17.85 9.92113 17.71C10.2611 17.53 10.5711 17.29 10.8511 16.99C11.0311 16.81 11.1211 16.59 11.1211 16.33V16.18C11.1011 16.14 11.0911 16.11 11.0911 16.09C11.0911 16.05 11.0811 16.01 11.0611 15.97C11.0011 15.65 10.9111 15.35 10.7911 15.07C10.6911 14.77 10.5811 14.47 10.4611 14.17C10.4411 14.09 10.4111 14.02 10.3711 13.96C10.3311 13.88 10.2911 13.8 10.2511 13.72C10.1911 13.6 10.1111 13.53 10.0111 13.51C9.83113 13.45 9.66113 13.42 9.50113 13.42H9.02113C8.48113 13.4 7.93113 13.43 7.37113 13.51C6.81113 13.59 6.24113 13.71 5.66113 13.87L5.45113 13.96C5.43113 13.98 5.41113 13.99 5.39113 13.99C5.39113 13.99 5.38113 14 5.36113 14.02C5.30113 14.08 5.29113 14.14 5.33113 14.2L5.39113 14.26C5.45113 14.32 5.46113 14.38 5.42113 14.44C5.38113 14.5 5.36113 14.58 5.36113 14.68C5.36113 14.76 5.36113 14.84 5.36113 14.92C5.36113 14.98 5.37113 15.05 5.39113 15.13C5.41113 15.21 5.42113 15.29 5.42113 15.37C5.42113 15.45 5.42113 15.53 5.42113 15.61V15.97C5.42113 16.17 5.46113 16.32 5.54113 16.42C5.58113 16.5 5.60113 16.58 5.60113 16.66C5.62113 16.74 5.63113 16.82 5.63113 16.9C5.63113 17 5.60113 17.11 5.54113 17.23C5.48113 17.33 5.47113 17.45 5.51113 17.59C5.53113 17.63 5.56113 17.67 5.60113 17.71C5.64113 17.85 5.62113 17.96 5.54113 18.04C5.48113 18.14 5.46113 18.23 5.48113 18.31C5.48113 18.43 5.47113 18.52 5.45113 18.58C5.43113 18.62 5.40113 18.67 5.36113 18.73C5.34113 18.79 5.30113 18.84 5.24113 18.88C5.14113 18.96 5.07113 19.08 5.03113 19.24C4.99113 19.32 4.97113 19.39 4.97113 19.45C4.97113 19.49 5.04113 19.5 5.18113 19.48C5.22113 19.48 5.25113 19.49 5.27113 19.51C5.31113 19.51 5.34113 19.51 5.36113 19.51ZM19.2368 22.09C19.0768 22.15 18.8968 22.13 18.6968 22.03L18.0968 21.76C17.9968 21.72 17.9168 21.63 17.8568 21.49L17.7668 21.31C17.7268 21.21 17.6768 21.14 17.6168 21.1C17.5168 21.02 17.4468 20.88 17.4068 20.68C17.3668 20.48 17.3368 20.28 17.3168 20.08C17.2968 19.88 17.2768 19.68 17.2568 19.48C17.2368 19.32 17.2268 19.16 17.2268 19C17.2268 18.84 17.2268 18.69 17.2268 18.55L17.2568 18.34C17.2968 18.24 17.3168 18.14 17.3168 18.04C17.3168 17.94 17.3168 17.85 17.3168 17.77V12.31C17.3568 12.03 17.3768 11.75 17.3768 11.47C17.3768 11.17 17.3768 10.88 17.3768 10.6C17.3968 10.32 17.4068 10.05 17.4068 9.79C17.4068 9.51 17.3868 9.24 17.3468 8.98C17.3268 8.88 17.3168 8.77 17.3168 8.65C17.3168 8.53 17.3168 8.41 17.3168 8.29C17.3168 8.11 17.3168 7.93 17.3168 7.75C17.3168 7.57 17.2968 7.39 17.2568 7.21V7.12C17.2568 6.84 17.2368 6.57 17.1968 6.31C17.1768 6.03 17.1568 5.76 17.1368 5.5C17.1168 5.34 17.0968 5.19 17.0768 5.05C17.0568 4.91 17.0268 4.77 16.9868 4.63C16.9668 4.55 16.9568 4.47 16.9568 4.39C16.9568 4.31 16.9568 4.23 16.9568 4.15C16.9568 4.01 16.9768 3.88 17.0168 3.76C17.0568 3.62 17.0968 3.49 17.1368 3.37C17.1568 3.33 17.2068 3.27 17.2868 3.19C17.3268 3.15 17.3668 3.12 17.4068 3.1C17.4468 3.08 17.4768 3.06 17.4968 3.04C17.6168 2.88 17.7768 2.81 17.9768 2.83C18.0168 2.85 18.0768 2.84 18.1568 2.8C18.2568 2.72 18.3468 2.71 18.4268 2.77C18.4868 2.81 18.5868 2.81 18.7268 2.77C18.7868 2.77 18.8368 2.79 18.8768 2.83C18.9368 2.91 19.0168 2.97 19.1168 3.01C19.2168 3.05 19.2868 3.11 19.3268 3.19C19.3868 3.25 19.4468 3.31 19.5068 3.37C19.5468 3.43 19.5868 3.49 19.6268 3.55C19.6868 3.59 19.7168 3.65 19.7168 3.73C19.7368 3.81 19.7368 3.89 19.7168 3.97C19.7168 4.03 19.7168 4.1 19.7168 4.18C19.7168 4.36 19.7268 4.55 19.7468 4.75C19.7868 4.93 19.8168 5.11 19.8368 5.29C19.8768 5.49 19.9068 5.7 19.9268 5.92C19.9468 6.12 19.9668 6.33 19.9868 6.55V6.85C20.0268 6.99 20.0468 7.13 20.0468 7.27C20.0468 7.41 20.0568 7.55 20.0768 7.69V7.72C20.0968 7.96 20.1168 8.2 20.1368 8.44C20.1568 8.68 20.1768 8.92 20.1968 9.16C20.2168 9.26 20.2268 9.37 20.2268 9.49C20.2268 9.59 20.2268 9.69 20.2268 9.79V17.77C20.2268 17.95 20.2368 18.13 20.2568 18.31C20.2968 18.49 20.3268 18.66 20.3468 18.82C20.3468 18.92 20.4068 18.97 20.5268 18.97C20.7068 19.01 20.8768 19.01 21.0368 18.97C21.2568 18.93 21.4668 18.91 21.6668 18.91C21.8868 18.91 22.1068 18.91 22.3268 18.91C22.5468 18.91 22.7568 18.91 22.9568 18.91C23.1768 18.89 23.3868 18.87 23.5868 18.85H23.9168C24.0768 18.87 24.2168 18.89 24.3368 18.91C24.4768 18.91 24.6168 18.91 24.7568 18.91C24.9768 18.91 25.1968 18.92 25.4168 18.94C25.6568 18.94 25.8868 18.95 26.1068 18.97C26.2668 18.99 26.4268 19 26.5868 19C26.7668 19 26.9468 19 27.1268 19H27.2768C27.6768 18.98 28.0368 19.08 28.3568 19.3C28.4968 19.36 28.5968 19.46 28.6568 19.6C28.6968 19.68 28.7268 19.76 28.7468 19.84C28.7868 19.9 28.8168 19.98 28.8368 20.08C28.8568 20.16 28.8668 20.24 28.8668 20.32C28.8868 20.38 28.9068 20.45 28.9268 20.53C28.9868 20.71 28.9668 20.91 28.8668 21.13C28.8468 21.19 28.8268 21.25 28.8068 21.31C28.7868 21.37 28.7568 21.43 28.7168 21.49C28.6768 21.55 28.6268 21.6 28.5668 21.64C28.5668 21.64 28.5268 21.66 28.4468 21.7C28.2868 21.84 28.1068 21.93 27.9068 21.97C27.7268 22.01 27.5268 22.05 27.3068 22.09L27.0068 22.06C26.7068 21.96 26.4068 21.9 26.1068 21.88C26.0268 21.86 25.9368 21.85 25.8368 21.85C25.7368 21.83 25.6368 21.82 25.5368 21.82C25.3968 21.82 25.2568 21.82 25.1168 21.82C24.9768 21.8 24.8268 21.78 24.6668 21.76L24.3668 21.73C24.1868 21.75 24.0068 21.76 23.8268 21.76C23.6468 21.74 23.4668 21.74 23.2868 21.76C23.2068 21.76 23.1268 21.76 23.0468 21.76C22.9668 21.74 22.8868 21.73 22.8068 21.73C22.6468 21.73 22.4868 21.73 22.3268 21.73C22.1868 21.73 22.0368 21.75 21.8768 21.79C21.7968 21.81 21.6968 21.83 21.5768 21.85C21.4768 21.85 21.3768 21.85 21.2768 21.85C20.9768 21.87 20.6768 21.9 20.3768 21.94C20.0768 21.96 19.7868 22 19.5068 22.06C19.4468 22.08 19.3568 22.09 19.2368 22.09ZM36.0671 22.3C36.0471 22.28 36.0171 22.27 35.9771 22.27C35.7771 22.15 35.5771 22.04 35.3771 21.94C35.1971 21.82 35.0271 21.69 34.8671 21.55C34.7871 21.51 34.7371 21.47 34.7171 21.43C34.5371 21.33 34.3771 21.21 34.2371 21.07C34.0971 20.91 33.9671 20.74 33.8471 20.56C33.8071 20.52 33.7671 20.47 33.7271 20.41C33.6871 20.35 33.6371 20.29 33.5771 20.23C33.3771 20.03 33.2171 19.79 33.0971 19.51C33.0771 19.45 33.0471 19.39 33.0071 19.33C32.9671 19.27 32.9271 19.21 32.8871 19.15C32.7671 18.99 32.6771 18.84 32.6171 18.7C32.5771 18.54 32.5171 18.39 32.4371 18.25C32.3571 18.09 32.2771 17.94 32.1971 17.8C32.1771 17.72 32.1471 17.64 32.1071 17.56C32.0671 17.48 32.0371 17.4 32.0171 17.32C32.0171 17.22 31.9871 17.11 31.9271 16.99C31.8471 16.77 31.7671 16.55 31.6871 16.33C31.6271 16.09 31.5671 15.85 31.5071 15.61C31.4671 15.53 31.4471 15.47 31.4471 15.43C31.3271 15.17 31.2371 14.9 31.1771 14.62C31.1171 14.34 31.0571 14.07 30.9971 13.81L30.8171 12.46C30.7971 12.42 30.7871 12.37 30.7871 12.31C30.7871 12.25 30.7871 12.2 30.7871 12.16C30.7871 12.04 30.7871 11.93 30.7871 11.83C30.7871 11.71 30.7671 11.59 30.7271 11.47C30.6871 11.21 30.6971 10.97 30.7571 10.75C30.7571 10.67 30.7571 10.6 30.7571 10.54C30.7771 10.46 30.7871 10.38 30.7871 10.3C30.7871 10.2 30.7871 10.1 30.7871 10C30.8071 9.88 30.8271 9.78 30.8471 9.7C30.8671 9.64 30.8771 9.56 30.8771 9.46C30.9171 9.28 30.9371 9.11 30.9371 8.95C30.9571 8.77 30.9771 8.6 30.9971 8.44C31.0571 8.16 31.0871 7.89 31.0871 7.63C31.0871 7.55 31.0871 7.48 31.0871 7.42C31.1071 7.34 31.1271 7.26 31.1471 7.18C31.1471 7 31.1371 6.87 31.1171 6.79C31.0571 6.71 31.0471 6.6 31.0871 6.46C31.1271 6.38 31.1471 6.32 31.1471 6.28C31.1671 6.24 31.1771 6.2 31.1771 6.16C31.1771 6.1 31.2071 6.06 31.2671 6.04H31.4771C31.5571 6.04 31.6071 6.01 31.6271 5.95C31.6471 5.87 31.7171 5.81 31.8371 5.77C31.9371 5.73 32.0271 5.7 32.1071 5.68C32.1871 5.64 32.2671 5.59 32.3471 5.53C32.4071 5.49 32.4771 5.47 32.5571 5.47C32.6371 5.47 32.7171 5.48 32.7971 5.5L33.3371 5.68C33.3571 5.7 33.3671 5.71 33.3671 5.71C33.3871 5.71 33.4071 5.72 33.4271 5.74C33.5871 5.9 33.7171 6.08 33.8171 6.28C33.9371 6.48 34.0071 6.7 34.0271 6.94C34.0271 7.02 34.0271 7.1 34.0271 7.18C34.0271 7.24 34.0071 7.31 33.9671 7.39C33.9471 7.51 33.9271 7.63 33.9071 7.75C33.8871 7.87 33.8671 8 33.8471 8.14C33.8071 8.34 33.7771 8.54 33.7571 8.74C33.7571 8.92 33.7571 9.11 33.7571 9.31C33.7371 9.39 33.7271 9.47 33.7271 9.55C33.7271 9.61 33.7171 9.68 33.6971 9.76C33.6771 10 33.6671 10.24 33.6671 10.48C33.6671 10.72 33.6871 10.95 33.7271 11.17C33.7271 11.19 33.7271 11.22 33.7271 11.26C33.7471 11.3 33.7471 11.34 33.7271 11.38C33.7271 11.58 33.7471 11.79 33.7871 12.01C33.8271 12.23 33.8571 12.45 33.8771 12.67C33.8971 12.87 33.9171 13.06 33.9371 13.24C33.9571 13.42 33.9871 13.6 34.0271 13.78C34.0671 13.86 34.0871 13.94 34.0871 14.02C34.1071 14.1 34.1271 14.18 34.1471 14.26C34.2271 14.64 34.3171 15.01 34.4171 15.37C34.5171 15.73 34.6471 16.09 34.8071 16.45C34.9071 16.67 35.0071 16.86 35.1071 17.02C35.2671 17.3 35.4071 17.58 35.5271 17.86C35.6071 18 35.6871 18.14 35.7671 18.28C35.8471 18.4 35.9271 18.53 36.0071 18.67C36.0871 18.77 36.1671 18.86 36.2471 18.94C36.3271 19.02 36.4071 19.11 36.4871 19.21C36.5871 19.31 36.7171 19.34 36.8771 19.3C36.9771 19.26 37.0471 19.22 37.0871 19.18C37.1871 19.12 37.2771 19.06 37.3571 19C37.4571 18.94 37.5471 18.87 37.6271 18.79C37.8471 18.57 38.0471 18.35 38.2271 18.13C38.4271 17.91 38.5971 17.67 38.7371 17.41C38.8571 17.19 38.9771 16.96 39.0971 16.72C39.2171 16.48 39.3271 16.24 39.4271 16C39.5471 15.72 39.6571 15.44 39.7571 15.16C39.8771 14.88 39.9871 14.59 40.0871 14.29C40.1671 14.09 40.2271 13.89 40.2671 13.69C40.3271 13.47 40.3671 13.26 40.3871 13.06C40.4271 12.84 40.4571 12.62 40.4771 12.4C40.5171 12.16 40.5271 11.93 40.5071 11.71C40.5071 11.65 40.5071 11.59 40.5071 11.53C40.5271 11.47 40.5371 11.41 40.5371 11.35C40.5771 11.21 40.5871 11.08 40.5671 10.96C40.5671 10.84 40.5571 10.72 40.5371 10.6C40.5171 10.26 40.4871 9.94 40.4471 9.64C40.4271 9.32 40.4071 9 40.3871 8.68C40.3871 8.52 40.3771 8.41 40.3571 8.35C40.3371 8.17 40.3171 7.99 40.2971 7.81C40.2971 7.63 40.2771 7.45 40.2371 7.27V7.03C40.2371 6.83 40.2271 6.64 40.2071 6.46C40.2071 6.26 40.2071 6.06 40.2071 5.86C40.2071 5.7 40.1971 5.56 40.1771 5.44C40.1771 5.3 40.1771 5.16 40.1771 5.02C40.1771 4.84 40.2071 4.69 40.2671 4.57C40.3271 4.47 40.3471 4.39 40.3271 4.33C40.2671 4.21 40.2971 4.12 40.4171 4.06C40.5171 3.96 40.6171 3.88 40.7171 3.82C40.8371 3.76 40.9671 3.72 41.1071 3.7C41.1471 3.68 41.1771 3.67 41.1971 3.67C41.2371 3.67 41.2671 3.66 41.2871 3.64C41.4071 3.54 41.5671 3.51 41.7671 3.55C41.8071 3.57 41.8671 3.58 41.9471 3.58C42.1271 3.62 42.2571 3.69 42.3371 3.79C42.3971 3.85 42.4871 3.92 42.6071 4C42.7671 4.08 42.8771 4.18 42.9371 4.3C42.9971 4.42 43.0371 4.55 43.0571 4.69C43.0971 4.89 43.1271 5.08 43.1471 5.26C43.1871 5.44 43.1971 5.63 43.1771 5.83V6.1C43.1771 6.3 43.1771 6.5 43.1771 6.7C43.1971 6.88 43.2171 7.07 43.2371 7.27C43.2571 7.33 43.2671 7.4 43.2671 7.48C43.2671 7.54 43.2671 7.6 43.2671 7.66C43.2671 7.78 43.2671 7.9 43.2671 8.02C43.2871 8.12 43.3071 8.23 43.3271 8.35C43.3471 8.39 43.3571 8.45 43.3571 8.53C43.3371 8.73 43.3371 8.93 43.3571 9.13C43.3971 9.31 43.4271 9.5 43.4471 9.7C43.4671 9.9 43.4771 10.11 43.4771 10.33C43.4971 10.55 43.5071 10.77 43.5071 10.99C43.5271 11.01 43.5271 11.04 43.5071 11.08C43.5071 11.12 43.5071 11.16 43.5071 11.2C43.4471 11.38 43.4371 11.59 43.4771 11.83C43.5171 12.09 43.5071 12.34 43.4471 12.58C43.4271 12.76 43.4071 12.94 43.3871 13.12C43.3671 13.3 43.3371 13.49 43.2971 13.69C43.2571 14.01 43.1871 14.33 43.0871 14.65C42.9871 14.97 42.8871 15.29 42.7871 15.61C42.7871 15.65 42.7571 15.72 42.6971 15.82C42.6171 15.96 42.5471 16.11 42.4871 16.27C42.4271 16.41 42.3771 16.56 42.3371 16.72L42.2471 16.93C42.1471 17.13 42.0571 17.33 41.9771 17.53C41.9171 17.71 41.8371 17.9 41.7371 18.1C41.6771 18.22 41.6171 18.34 41.5571 18.46C41.4971 18.58 41.4271 18.69 41.3471 18.79C41.3271 18.83 41.2971 18.87 41.2571 18.91C41.2171 19.05 41.1571 19.18 41.0771 19.3C40.9971 19.42 40.9171 19.54 40.8371 19.66C40.6171 20 40.3571 20.32 40.0571 20.62C39.7771 20.92 39.4671 21.2 39.1271 21.46L38.7671 21.67C38.4871 21.81 38.1871 21.93 37.8671 22.03C37.5671 22.13 37.2571 22.2 36.9371 22.24C36.8371 22.26 36.7271 22.26 36.6071 22.24C36.5471 22.24 36.4871 22.24 36.4271 22.24C36.3671 22.24 36.3071 22.26 36.2471 22.3H36.0671ZM50.0853 22.21C49.9653 22.21 49.8853 22.2 49.8453 22.18C49.7453 22.14 49.6453 22.12 49.5453 22.12C49.4653 22.14 49.3753 22.15 49.2753 22.15C49.2553 22.15 49.2353 22.15 49.2153 22.15C49.1953 22.17 49.1753 22.18 49.1553 22.18C49.0153 22.2 48.8753 22.21 48.7353 22.21C48.6153 22.21 48.4953 22.19 48.3753 22.15C48.3553 22.13 48.3353 22.12 48.3153 22.12C48.1753 22.14 48.0553 22.1 47.9553 22C47.8553 21.9 47.7553 21.81 47.6553 21.73C47.5553 21.63 47.5053 21.52 47.5053 21.4L47.4153 21.16C47.3553 21.02 47.3353 20.89 47.3553 20.77C47.3753 20.73 47.3753 20.69 47.3553 20.65C47.3553 20.61 47.3553 20.57 47.3553 20.53C47.3353 20.49 47.3253 20.45 47.3253 20.41C47.3253 20.35 47.3153 20.3 47.2953 20.26C47.2553 20.08 47.2253 19.9 47.2053 19.72C47.2053 19.52 47.2153 19.33 47.2353 19.15C47.2553 19.03 47.3253 18.83 47.4453 18.55C47.5653 18.25 47.6353 18.07 47.6553 18.01C47.7153 17.91 47.7453 17.83 47.7453 17.77C47.7253 17.55 47.7153 17.33 47.7153 17.11C47.7353 16.87 47.7453 16.64 47.7453 16.42C47.7453 16.28 47.7753 16.17 47.8353 16.09C47.9153 15.95 47.9253 15.8 47.8653 15.64L47.7753 15.31C47.6553 15.09 47.6653 14.9 47.8053 14.74C47.8053 14.72 47.8053 14.71 47.8053 14.71C47.8253 14.69 47.8353 14.67 47.8353 14.65C47.8753 14.61 47.8853 14.56 47.8653 14.5C47.8453 14.42 47.8353 14.36 47.8353 14.32C47.8353 14.24 47.8453 14.16 47.8653 14.08C47.9053 13.98 47.9153 13.89 47.8953 13.81C47.8953 13.81 47.8753 13.79 47.8353 13.75C47.8153 13.71 47.8053 13.63 47.8053 13.51C47.8253 13.39 47.8353 13.32 47.8353 13.3V12.46C47.8553 12.36 47.8653 12.27 47.8653 12.19C47.8653 12.09 47.8753 11.99 47.8953 11.89C47.9153 11.77 47.9153 11.65 47.8953 11.53C47.8953 11.39 47.8953 11.25 47.8953 11.11C47.8753 11.01 47.8553 10.9 47.8353 10.78C47.8353 10.66 47.8353 10.54 47.8353 10.42C47.8153 10.38 47.8053 10.33 47.8053 10.27C47.8053 10.21 47.8053 10.16 47.8053 10.12C47.7853 10.02 47.7653 9.92 47.7453 9.82C47.7453 9.72 47.7453 9.62 47.7453 9.52C47.7453 9.48 47.7053 9.35 47.6253 9.13C47.5453 8.89 47.5153 8.69 47.5353 8.53C47.5553 8.49 47.5653 8.44 47.5653 8.38C47.5653 8.32 47.5453 8.27 47.5053 8.23C47.4653 8.21 47.4453 8.17 47.4453 8.11V8.02C47.5053 7.78 47.4753 7.54 47.3553 7.3C47.2753 7.18 47.2453 7.06 47.2653 6.94C47.2653 6.78 47.1953 6.66 47.0553 6.58C46.9553 6.48 46.8653 6.36 46.7853 6.22C46.7053 6.08 46.6553 5.94 46.6353 5.8C46.6153 5.7 46.6053 5.6 46.6053 5.5C46.6053 5.4 46.6053 5.31 46.6053 5.23C46.6053 5.15 46.6153 5.1 46.6353 5.08C46.7153 5 46.7553 4.91 46.7553 4.81C46.7553 4.69 46.7653 4.6 46.7853 4.54C46.8053 4.52 46.8253 4.51 46.8453 4.51C46.8653 4.51 46.8853 4.5 46.9053 4.48C46.9853 4.46 47.0253 4.39 47.0253 4.27C46.9853 4.19 46.9653 4.12 46.9653 4.06C46.9453 3.98 46.9753 3.91 47.0553 3.85C47.0953 3.77 47.1453 3.75 47.2053 3.79C47.3453 3.85 47.5053 3.83 47.6853 3.73C47.7653 3.69 47.8153 3.67 47.8353 3.67C47.8953 3.67 47.9253 3.67 47.9253 3.67C47.9453 3.65 48.0053 3.64 48.1053 3.64C48.2253 3.66 48.3353 3.62 48.4353 3.52C48.5753 3.38 48.7453 3.31 48.9453 3.31H50.8053C51.2653 3.33 51.7253 3.33 52.1853 3.31C52.6453 3.29 53.0953 3.28 53.5353 3.28C53.6353 3.28 53.7153 3.28 53.7753 3.28C53.8553 3.26 53.9353 3.24 54.0153 3.22C54.1353 3.16 54.2753 3.13 54.4353 3.13H55.1253C55.2853 3.13 55.4253 3.13 55.5453 3.13C55.6853 3.11 55.8253 3.09 55.9653 3.07C56.0453 3.05 56.1153 3.04 56.1753 3.04C56.2553 3.04 56.3353 3.04 56.4153 3.04C56.4953 3.04 56.5753 3.04 56.6553 3.04C56.7353 3.04 56.8153 3.03 56.8953 3.01C57.0553 2.99 57.2253 2.98 57.4053 2.98C57.5853 2.96 57.7553 2.95 57.9153 2.95C57.9953 2.95 58.0653 2.95 58.1253 2.95C58.2053 2.93 58.2853 2.91 58.3653 2.89C58.5253 2.85 58.6753 2.83 58.8153 2.83C58.9753 2.81 59.1253 2.79 59.2653 2.77C59.4253 2.75 59.5753 2.73 59.7153 2.71C59.8753 2.69 60.0253 2.67 60.1653 2.65C60.3453 2.65 60.4753 2.67 60.5553 2.71C60.6753 2.79 60.7853 2.86 60.8853 2.92C61.0053 2.98 61.1153 3.06 61.2153 3.16C61.2953 3.24 61.3453 3.31 61.3653 3.37C61.3853 3.45 61.4053 3.53 61.4253 3.61C61.4453 3.69 61.4653 3.78 61.4853 3.88V4.09C61.4653 4.19 61.4453 4.3 61.4253 4.42C61.4253 4.52 61.4153 4.63 61.3953 4.75C61.3553 4.83 61.3053 4.9 61.2453 4.96L60.7053 5.5C60.5053 5.56 60.3053 5.6 60.1053 5.62C59.9253 5.64 59.7353 5.64 59.5353 5.62H59.3253C59.2253 5.64 59.1253 5.65 59.0253 5.65C58.9253 5.65 58.8253 5.64 58.7253 5.62C58.6053 5.6 58.4853 5.6 58.3653 5.62C58.2453 5.62 58.1253 5.62 58.0053 5.62C57.9253 5.62 57.8453 5.63 57.7653 5.65C57.7053 5.65 57.6353 5.64 57.5553 5.62C57.4553 5.6 57.3553 5.6 57.2553 5.62C57.1753 5.62 57.0853 5.63 56.9853 5.65C56.9053 5.65 56.8153 5.66 56.7153 5.68C56.6353 5.68 56.5453 5.68 56.4453 5.68C56.1853 5.72 55.9053 5.74 55.6053 5.74C55.3253 5.74 55.0453 5.76 54.7653 5.8C54.5853 5.78 54.4153 5.79 54.2553 5.83C54.0953 5.85 53.9253 5.87 53.7453 5.89C53.5853 5.91 53.4153 5.92 53.2353 5.92C53.0553 5.92 52.8853 5.94 52.7253 5.98C52.5253 5.98 52.3253 6.01 52.1253 6.07C51.9453 6.11 51.7553 6.14 51.5553 6.16L51.3453 6.19C51.2053 6.19 51.0753 6.21 50.9553 6.25C50.8353 6.27 50.7053 6.3 50.5653 6.34C50.4853 6.36 50.4053 6.38 50.3253 6.4C50.2453 6.4 50.1553 6.41 50.0553 6.43C49.9953 6.43 49.9253 6.45 49.8453 6.49C49.7853 6.51 49.7553 6.57 49.7553 6.67L49.8453 6.94C49.8653 6.98 49.8553 7.08 49.8153 7.24C49.7953 7.4 49.7753 7.52 49.7553 7.6C49.7553 7.66 49.7653 7.72 49.7853 7.78C49.8053 7.84 49.8253 7.9 49.8453 7.96C49.9053 8.12 49.9353 8.3 49.9353 8.5C49.9353 8.68 49.9553 8.85 49.9953 9.01C50.0153 9.09 50.0253 9.18 50.0253 9.28C50.0253 9.36 50.0353 9.45 50.0553 9.55C50.0553 9.59 50.0553 9.64 50.0553 9.7C50.0753 9.74 50.0853 9.79 50.0853 9.85C50.0853 9.91 50.0753 9.95 50.0553 9.97C49.9953 10.05 49.9653 10.14 49.9653 10.24C49.9653 10.34 49.9653 10.44 49.9653 10.54C50.0653 10.74 50.1153 10.94 50.1153 11.14C50.1153 11.34 50.1153 11.54 50.1153 11.74C50.1153 11.8 50.1653 11.82 50.2653 11.8H50.2953C50.3353 11.72 50.3753 11.66 50.4153 11.62C50.4753 11.62 50.5453 11.6 50.6253 11.56C50.6853 11.52 50.7653 11.5 50.8653 11.5C51.0253 11.52 51.1753 11.52 51.3153 11.5C51.4553 11.46 51.5953 11.42 51.7353 11.38C52.6753 11.14 53.5553 10.83 54.3753 10.45C54.5953 10.35 54.8253 10.27 55.0653 10.21C55.3053 10.13 55.5453 10.08 55.7853 10.06H55.8753C56.0553 10.04 56.2353 10.02 56.4153 10C56.5953 9.98 56.7753 9.97 56.9553 9.97C57.1953 9.95 57.4253 9.92 57.6453 9.88C57.8853 9.84 58.1253 9.81 58.3653 9.79C58.5053 9.75 58.6353 9.72 58.7553 9.7C58.8753 9.66 59.0053 9.61 59.1453 9.55C59.4053 9.45 59.6453 9.4 59.8653 9.4C60.0253 9.42 60.1753 9.46 60.3153 9.52C60.4553 9.56 60.5953 9.62 60.7353 9.7C61.0353 9.9 61.1853 10.2 61.1853 10.6C61.1853 10.76 61.1653 10.92 61.1253 11.08C61.1053 11.24 61.0953 11.4 61.0953 11.56C61.0953 11.6 61.0753 11.64 61.0353 11.68L60.9453 11.83C60.9253 11.91 60.9053 11.99 60.8853 12.07C60.8653 12.15 60.8153 12.21 60.7353 12.25C60.6153 12.35 60.4853 12.46 60.3453 12.58C60.2253 12.68 60.0853 12.75 59.9253 12.79C59.8453 12.81 59.7653 12.83 59.6853 12.85C59.6253 12.87 59.5553 12.88 59.4753 12.88C59.1553 12.88 58.8253 12.9 58.4853 12.94C58.1653 12.98 57.8353 13.02 57.4953 13.06C57.2353 13.08 56.9753 13.11 56.7153 13.15C56.4753 13.19 56.2253 13.21 55.9653 13.21C55.7253 13.21 55.4553 13.26 55.1553 13.36C54.9553 13.4 54.7453 13.44 54.5253 13.48C54.3053 13.52 54.0853 13.55 53.8653 13.57C53.7053 13.59 53.5353 13.62 53.3553 13.66C53.1953 13.68 53.0353 13.7 52.8753 13.72L52.3653 13.81C52.3253 13.83 52.2653 13.84 52.1853 13.84C52.0453 13.88 51.9053 13.91 51.7653 13.93C51.6253 13.95 51.4853 13.98 51.3453 14.02C51.2053 14.04 51.0653 14.07 50.9253 14.11C50.8053 14.15 50.6753 14.19 50.5353 14.23C50.4353 14.25 50.3553 14.29 50.2953 14.35C50.2353 14.39 50.1853 14.45 50.1453 14.53C50.1253 14.59 50.1253 14.65 50.1453 14.71C50.1653 14.79 50.1553 14.87 50.1153 14.95C50.1353 15.15 50.1453 15.35 50.1453 15.55C50.1653 15.75 50.1653 15.95 50.1453 16.15C50.1853 16.31 50.1953 16.47 50.1753 16.63C50.1753 16.79 50.1653 16.95 50.1453 17.11C50.1053 17.35 50.1153 17.55 50.1753 17.71C50.2353 17.97 50.2153 18.24 50.1153 18.52C50.0753 18.64 50.0753 18.72 50.1153 18.76C50.1553 18.82 50.1553 18.89 50.1153 18.97V19.15C50.0953 19.31 50.1653 19.39 50.3253 19.39H50.3853C50.5253 19.39 50.6653 19.44 50.8053 19.54C50.9053 19.64 51.0253 19.67 51.1653 19.63L52.0053 19.54C52.1253 19.52 52.2453 19.51 52.3653 19.51C52.4853 19.49 52.6053 19.48 52.7253 19.48C52.7653 19.46 52.8253 19.47 52.9053 19.51C53.0053 19.57 53.0953 19.58 53.1753 19.54C53.2153 19.5 53.2653 19.47 53.3253 19.45C53.4053 19.43 53.4653 19.4 53.5053 19.36C53.6253 19.24 53.7753 19.2 53.9553 19.24C54.1153 19.28 54.2453 19.27 54.3453 19.21C54.5253 19.15 54.6953 19.13 54.8553 19.15C54.9553 19.17 55.0553 19.16 55.1553 19.12C55.2553 19.08 55.3553 19.06 55.4553 19.06C55.4953 19.06 55.5253 19.07 55.5453 19.09C55.5653 19.09 55.5853 19.08 55.6053 19.06C55.6453 19.06 55.6853 19.05 55.7253 19.03C55.7653 19.01 55.7953 19 55.8153 19C55.9553 18.94 56.0853 18.92 56.2053 18.94C56.3053 18.94 56.3553 18.94 56.3553 18.94C56.4353 18.92 56.5053 18.92 56.5653 18.94C56.6453 18.96 56.7153 18.99 56.7753 19.03C56.8753 19.05 56.9553 19.08 57.0153 19.12C57.0953 19.16 57.1753 19.19 57.2553 19.21C57.2953 19.21 57.3253 19.22 57.3453 19.24C57.4453 19.32 57.5653 19.39 57.7053 19.45C57.8653 19.51 57.9553 19.58 57.9753 19.66C58.0153 19.78 58.0353 19.9 58.0353 20.02C58.0353 20.12 58.0453 20.23 58.0653 20.35C58.0653 20.41 58.0553 20.47 58.0353 20.53C58.0353 20.59 58.0253 20.65 58.0053 20.71C57.9653 20.79 57.9153 20.88 57.8553 20.98C57.8153 21.08 57.7553 21.17 57.6753 21.25C57.6353 21.29 57.5953 21.33 57.5553 21.37C57.5353 21.41 57.5053 21.45 57.4653 21.49C57.3853 21.57 57.2953 21.64 57.1953 21.7C57.0953 21.76 56.9853 21.79 56.8653 21.79C56.7853 21.79 56.7253 21.8 56.6853 21.82C56.6053 21.86 56.5253 21.88 56.4453 21.88C56.3653 21.88 56.2753 21.88 56.1753 21.88C56.0353 21.9 55.8953 21.92 55.7553 21.94C55.6353 21.94 55.5053 21.93 55.3653 21.91C55.2853 21.89 55.2153 21.89 55.1553 21.91C54.9553 21.97 54.7553 21.98 54.5553 21.94C54.3553 21.94 54.1553 21.95 53.9553 21.97C53.7753 21.97 53.5953 21.97 53.4153 21.97H53.0253C52.9653 21.97 52.9153 21.98 52.8753 22C52.7953 22.04 52.6953 22.06 52.5753 22.06C52.4753 22.06 52.3753 22.05 52.2753 22.03H51.9753C51.9553 22.03 51.9253 22.03 51.8853 22.03C51.8453 22.05 51.8053 22.05 51.7653 22.03C51.7053 22.01 51.6453 22 51.5853 22C51.5453 22.02 51.4953 22.04 51.4353 22.06C51.3953 22.06 51.3553 22.06 51.3153 22.06C51.2953 22.08 51.2653 22.09 51.2253 22.09C51.0253 22.07 50.8353 22.07 50.6553 22.09C50.4753 22.13 50.2853 22.17 50.0853 22.21ZM90.0321 24.16C89.9121 24.2 89.8021 24.17 89.7021 24.07C89.6221 23.99 89.5521 23.89 89.4921 23.77C89.4521 23.65 89.4121 23.52 89.3721 23.38C89.3321 23.24 89.3121 23.1 89.3121 22.96C89.3121 22.86 89.3121 22.76 89.3121 22.66C89.3121 22.56 89.2921 22.47 89.2521 22.39C89.2321 22.31 89.2121 22.23 89.1921 22.15C89.1921 22.09 89.1921 22.03 89.1921 21.97C89.1721 21.75 89.0921 21.54 88.9521 21.34C88.9321 21.34 88.9221 21.34 88.9221 21.34C88.9221 21.32 88.9221 21.31 88.9221 21.31C88.7621 21.09 88.6321 20.86 88.5321 20.62C88.4521 20.38 88.3921 20.13 88.3521 19.87L88.0821 18.25C88.0621 18.13 88.0421 18.02 88.0221 17.92C88.0021 17.8 87.9721 17.68 87.9321 17.56C87.9121 17.4 87.8821 17.25 87.8421 17.11C87.8021 16.97 87.7621 16.83 87.7221 16.69L87.5421 16.03V15.94C87.5221 15.8 87.4921 15.66 87.4521 15.52C87.4121 15.38 87.3821 15.24 87.3621 15.1C87.3421 14.94 87.3121 14.79 87.2721 14.65C87.2521 14.49 87.2221 14.34 87.1821 14.2C87.1821 14.12 87.1521 14.05 87.0921 13.99C87.0521 13.91 87.0021 13.83 86.9421 13.75C86.9421 13.73 86.9221 13.7 86.8821 13.66C86.6421 13.5 86.3721 13.44 86.0721 13.48C85.9921 13.48 85.9321 13.49 85.8921 13.51C85.6921 13.55 85.4921 13.61 85.2921 13.69C85.0921 13.77 84.8921 13.86 84.6921 13.96C84.6121 14 84.5621 14.03 84.5421 14.05C84.4421 14.13 84.3321 14.2 84.2121 14.26C84.0921 14.3 83.9721 14.34 83.8521 14.38C83.5521 14.5 83.2521 14.64 82.9521 14.8C82.6721 14.96 82.3921 15.12 82.1121 15.28L81.9321 15.43C81.8321 15.51 81.7221 15.6 81.6021 15.7C81.4821 15.78 81.3621 15.85 81.2421 15.91C81.0621 16.03 80.9721 16.19 80.9721 16.39C80.9321 16.67 80.9721 16.94 81.0921 17.2C81.1921 17.46 81.2621 17.76 81.3021 18.1C81.3021 18.22 81.3121 18.31 81.3321 18.37C81.3721 18.43 81.3921 18.5 81.3921 18.58C81.4121 18.64 81.4321 18.7 81.4521 18.76L81.5421 19.33C81.6021 19.73 81.5421 20.11 81.3621 20.47C81.3421 20.49 81.3121 20.54 81.2721 20.62C81.0921 20.92 80.9721 21.25 80.9121 21.61C80.8921 21.71 80.8621 21.81 80.8221 21.91C80.7821 21.99 80.7221 22.08 80.6421 22.18C80.5621 22.28 80.4421 22.34 80.2821 22.36C80.1221 22.38 79.9821 22.31 79.8621 22.15C79.7821 22.01 79.7221 21.83 79.6821 21.61C79.6421 21.41 79.6021 21.25 79.5621 21.13C79.5221 20.97 79.4521 20.85 79.3521 20.77C79.1921 20.55 79.0421 20.27 78.9021 19.93C78.8221 19.71 78.7621 19.49 78.7221 19.27C78.6821 19.05 78.6421 18.83 78.6021 18.61C78.5421 18.31 78.4821 18.01 78.4221 17.71C78.3621 17.41 78.2921 17.11 78.2121 16.81C78.1521 16.55 78.0821 16.3 78.0021 16.06C77.9421 15.8 77.8821 15.54 77.8221 15.28L77.2821 13.06C77.2621 12.84 77.2021 12.63 77.1021 12.43C77.0621 12.27 77.0121 12.11 76.9521 11.95C76.8921 11.77 76.8421 11.6 76.8021 11.44C76.7821 11.38 76.7621 11.32 76.7421 11.26C76.7221 11.18 76.7021 11.11 76.6821 11.05C76.6621 10.95 76.6321 10.85 76.5921 10.75C76.5721 10.65 76.5321 10.55 76.4721 10.45L76.3821 10.12C76.3421 9.96 76.3021 9.8 76.2621 9.64C76.2221 9.48 76.1821 9.33 76.1421 9.19L76.1121 9.07C76.1121 8.95 76.1021 8.83 76.0821 8.71C76.0621 8.59 76.0421 8.46 76.0221 8.32C76.0221 8.3 76.0121 8.29 75.9921 8.29C75.9921 8.27 75.9921 8.25 75.9921 8.23C75.9721 7.95 75.9521 7.67 75.9321 7.39C75.9121 7.09 75.9021 6.8 75.9021 6.52C75.8821 6.34 75.8821 6.23 75.9021 6.19C75.9221 6.15 75.9721 6.06 76.0521 5.92C76.1121 5.82 76.1821 5.71 76.2621 5.59C76.2621 5.55 76.2821 5.53 76.3221 5.53C76.4021 5.51 76.4721 5.48 76.5321 5.44C76.5921 5.38 76.6521 5.33 76.7121 5.29C76.9321 5.15 77.2021 5.08 77.5221 5.08C77.5821 5.08 77.6221 5.09 77.6421 5.11C77.7021 5.13 77.7521 5.15 77.7921 5.17C77.8521 5.19 77.9121 5.22 77.9721 5.26C78.0921 5.3 78.1921 5.37 78.2721 5.47C78.3721 5.57 78.4621 5.67 78.5421 5.77C78.6821 6.07 78.7621 6.35 78.7821 6.61C78.8221 6.85 78.8821 7.09 78.9621 7.33L79.0521 7.75C79.0921 7.95 79.1421 8.15 79.2021 8.35C79.2621 8.55 79.3121 8.75 79.3521 8.95C79.4121 9.23 79.4621 9.52 79.5021 9.82C79.5621 10.1 79.6221 10.38 79.6821 10.66L79.7721 11.2C79.7721 11.22 79.7721 11.25 79.7721 11.29C79.7921 11.31 79.8021 11.33 79.8021 11.35C79.8421 11.45 79.9021 11.5 79.9821 11.5C80.1821 11.52 80.3821 11.54 80.5821 11.56C80.7821 11.58 80.9821 11.57 81.1821 11.53C81.5221 11.49 81.8521 11.44 82.1721 11.38C82.4921 11.32 82.8121 11.26 83.1321 11.2C83.5521 11.12 83.9621 11.04 84.3621 10.96C84.7821 10.86 85.2021 10.76 85.6221 10.66L86.2221 10.51C86.3221 10.47 86.3721 10.4 86.3721 10.3C86.3521 10.24 86.3421 10.18 86.3421 10.12C86.3421 10.06 86.3321 10 86.3121 9.94C86.2121 9.66 86.1521 9.4 86.1321 9.16C86.1121 9.06 86.0921 8.96 86.0721 8.86C86.0521 8.74 86.0321 8.63 86.0121 8.53C85.9521 8.19 85.8921 7.85 85.8321 7.51C85.7921 7.15 85.7521 6.8 85.7121 6.46C85.6921 6.3 85.6721 6.15 85.6521 6.01C85.6521 5.85 85.6321 5.7 85.5921 5.56C85.5721 5.34 85.5521 5.12 85.5321 4.9C85.5321 4.66 85.5321 4.44 85.5321 4.24C85.5321 4.2 85.5321 4.16 85.5321 4.12C85.5521 4.08 85.5721 4.04 85.5921 4C85.6121 3.92 85.6321 3.85 85.6521 3.79C85.6721 3.71 85.6921 3.63 85.7121 3.55C85.7521 3.43 85.7921 3.33 85.8321 3.25C85.8921 3.15 85.9521 3.06 86.0121 2.98C86.1121 2.92 86.1921 2.84 86.2521 2.74C86.3521 2.64 86.4421 2.58 86.5221 2.56L86.7921 2.47C86.8521 2.43 86.9121 2.42 86.9721 2.44C87.0521 2.44 87.1221 2.45 87.1821 2.47C87.2421 2.47 87.3321 2.49 87.4521 2.53C87.5121 2.55 87.5721 2.58 87.6321 2.62C87.6921 2.66 87.7421 2.71 87.7821 2.77C87.8221 2.85 87.8721 2.93 87.9321 3.01C88.0121 3.07 88.0621 3.15 88.0821 3.25C88.1221 3.31 88.1721 3.34 88.2321 3.34C88.2921 3.36 88.3421 3.42 88.3821 3.52C88.3821 3.54 88.3821 3.56 88.3821 3.58C88.4021 3.6 88.4121 3.63 88.4121 3.67C88.4521 3.83 88.4921 4 88.5321 4.18C88.5721 4.34 88.6021 4.5 88.6221 4.66C88.6221 4.72 88.6221 4.78 88.6221 4.84C88.6421 4.9 88.6421 4.97 88.6221 5.05V5.29C88.6421 5.45 88.6621 5.62 88.6821 5.8C88.7021 5.96 88.7221 6.12 88.7421 6.28C88.7621 6.3 88.7721 6.35 88.7721 6.43C88.8321 6.51 88.8721 6.61 88.8921 6.73C88.9121 6.85 88.9321 6.96 88.9521 7.06C88.9721 7.16 88.9821 7.27 88.9821 7.39C89.0021 7.49 89.0321 7.59 89.0721 7.69C89.0921 7.73 89.1021 7.79 89.1021 7.87C89.1021 7.95 89.1021 8.03 89.1021 8.11C89.1221 8.17 89.1321 8.24 89.1321 8.32C89.1321 8.4 89.1421 8.45 89.1621 8.47C89.1821 8.49 89.2021 8.52 89.2221 8.56C89.2621 8.58 89.2721 8.61 89.2521 8.65C89.2521 8.69 89.2421 8.73 89.2221 8.77C89.2221 8.81 89.2221 8.85 89.2221 8.89V9.04C89.2621 9.14 89.2921 9.25 89.3121 9.37C89.3321 9.49 89.3521 9.6 89.3721 9.7C89.3721 9.82 89.4121 9.89 89.4921 9.91L89.5821 10C89.6221 10.04 89.6421 10.11 89.6421 10.21C89.6021 10.25 89.5821 10.29 89.5821 10.33C89.5621 10.37 89.5621 10.42 89.5821 10.48C89.6421 10.54 89.6621 10.6 89.6421 10.66C89.6021 10.72 89.6021 10.77 89.6421 10.81C89.6821 10.87 89.7021 10.96 89.7021 11.08V11.05C89.7221 11.07 89.7521 11.08 89.7921 11.08C89.8921 11.12 89.9221 11.19 89.8821 11.29C89.8821 11.33 89.8621 11.37 89.8221 11.41C89.7621 11.47 89.7421 11.52 89.7621 11.56C89.8221 11.84 89.8821 12.12 89.9421 12.4C90.0021 12.68 90.0521 12.96 90.0921 13.24L90.1821 13.96C90.2221 14.12 90.2521 14.28 90.2722 14.44C90.2921 14.6 90.3221 14.76 90.3621 14.92C90.3621 15.02 90.3821 15.15 90.4221 15.31C90.4221 15.35 90.4621 15.37 90.5421 15.37C90.5421 15.35 90.5521 15.34 90.5721 15.34C90.5921 15.34 90.6021 15.35 90.6021 15.37C90.6221 15.39 90.6521 15.44 90.6921 15.52L90.7821 15.91C90.8021 15.95 90.8121 16 90.8121 16.06C90.8121 16.1 90.8221 16.14 90.8421 16.18C90.8621 16.3 90.8221 16.4 90.7221 16.48C90.6621 16.5 90.6321 16.54 90.6321 16.6C90.6321 16.62 90.6321 16.63 90.6321 16.63C90.6521 16.63 90.6621 16.64 90.6621 16.66C90.6821 16.66 90.6921 16.65 90.6921 16.63H90.7221C90.7621 16.61 90.8021 16.61 90.8421 16.63C90.8821 16.63 90.9021 16.65 90.9021 16.69C90.9221 16.77 90.9421 16.86 90.9622 16.96C90.9821 17.06 90.9821 17.12 90.9622 17.14C90.9622 17.14 90.9521 17.15 90.9321 17.17C90.9321 17.17 90.9221 17.17 90.9021 17.17C90.8221 17.17 90.7821 17.26 90.7821 17.44C90.8021 17.64 90.8621 17.83 90.9622 18.01L91.1421 18.28C91.3021 18.56 91.3822 18.87 91.3822 19.21C91.3822 19.25 91.3621 19.29 91.3221 19.33C91.2621 19.39 91.2321 19.46 91.2321 19.54C91.2321 19.66 91.2421 19.76 91.2621 19.84C91.2621 19.98 91.2321 20.08 91.1721 20.14C91.1121 20.22 91.0821 20.32 91.0821 20.44C91.0621 20.62 91.0021 20.8 90.9021 20.98C90.7221 21.34 90.6321 21.74 90.6321 22.18C90.6121 22.26 90.6021 22.34 90.6021 22.42C90.6021 22.5 90.6021 22.59 90.6021 22.69C90.5821 22.77 90.5721 22.9 90.5721 23.08V23.47C90.5521 23.55 90.5321 23.63 90.5121 23.71C90.4921 23.79 90.4621 23.87 90.4221 23.95C90.3621 24.03 90.2821 24.09 90.1821 24.13C90.1621 24.13 90.1421 24.13 90.1221 24.13C90.1021 24.15 90.0721 24.16 90.0321 24.16ZM96.8471 22.3C96.7271 22.3 96.6471 22.29 96.6071 22.27C96.5271 22.23 96.4571 22.2 96.3971 22.18C96.3371 22.16 96.2771 22.14 96.2171 22.12C96.1571 22.08 96.0971 22.04 96.0371 22C95.9971 21.94 95.9571 21.88 95.9171 21.82C95.8771 21.78 95.8371 21.76 95.7971 21.76C95.6771 21.76 95.6171 21.7 95.6171 21.58C95.5971 21.46 95.5771 21.34 95.5571 21.22C95.5371 21.1 95.5171 20.98 95.4971 20.86C95.4771 20.68 95.4571 20.5 95.4371 20.32C95.4371 20.14 95.4171 19.97 95.3771 19.81V19.54C95.3771 19.46 95.3671 19.39 95.3471 19.33C95.3471 19.27 95.3471 19.2 95.3471 19.12C95.3071 19.02 95.3071 18.94 95.3471 18.88C95.3871 18.52 95.3871 18.16 95.3471 17.8C95.3271 17.7 95.3171 17.6 95.3171 17.5C95.3171 17.4 95.3071 17.3 95.2871 17.2C95.2871 17 95.2871 16.8 95.2871 16.6C95.2871 16.38 95.2671 16.17 95.2271 15.97V15.49C95.2271 15.33 95.2171 15.18 95.1971 15.04C95.1971 14.9 95.1871 14.76 95.1671 14.62C95.1471 14.44 95.1271 14.26 95.1071 14.08C95.1071 13.9 95.0971 13.72 95.0771 13.54C95.0571 13.5 95.0471 13.43 95.0471 13.33C95.0271 13.23 95.0071 13.13 94.9871 13.03C94.9871 12.91 94.9871 12.8 94.9871 12.7L94.8971 11.2C94.8771 11.04 94.8571 10.89 94.8371 10.75C94.8371 10.59 94.8371 10.44 94.8371 10.3C94.8171 10.06 94.7971 9.82 94.7771 9.58C94.7571 9.34 94.7371 9.11 94.7171 8.89C94.7171 8.85 94.7071 8.81 94.6871 8.77C94.6871 8.73 94.6871 8.7 94.6871 8.68C94.6871 8.44 94.6771 8.2 94.6571 7.96C94.6371 7.72 94.6171 7.47 94.5971 7.21L94.5071 6.37C94.4471 6.05 94.4371 5.7 94.4771 5.32C94.4771 5.14 94.5471 4.99 94.6871 4.87C94.7271 4.83 94.7571 4.81 94.7771 4.81C94.7971 4.79 94.8171 4.77 94.8371 4.75C94.9371 4.73 94.9871 4.66 94.9871 4.54C94.9871 4.5 95.0271 4.48 95.1071 4.48H95.2571C95.2771 4.48 95.2871 4.48 95.2871 4.48C95.3071 4.46 95.3271 4.45 95.3471 4.45C95.3871 4.43 95.4171 4.41 95.4371 4.39C95.4771 4.35 95.5071 4.33 95.5271 4.33C95.5671 4.33 95.6071 4.34 95.6471 4.36C95.6871 4.36 95.7271 4.37 95.7671 4.39C95.8071 4.39 95.8371 4.38 95.8571 4.36C95.9571 4.34 96.0571 4.35 96.1571 4.39C96.2771 4.41 96.3771 4.44 96.4571 4.48C96.5771 4.5 96.6671 4.58 96.7271 4.72C96.7871 4.9 96.8371 5.08 96.8771 5.26C96.9371 5.42 96.9771 5.59 96.9971 5.77V6.01C97.0371 6.15 97.0571 6.3 97.0571 6.46C97.0571 6.6 97.0571 6.75 97.0571 6.91C97.0571 7.05 97.0571 7.19 97.0571 7.33C97.0771 7.45 97.0971 7.57 97.1171 7.69C97.1171 7.75 97.1171 7.81 97.1171 7.87C97.1171 7.93 97.1271 7.99 97.1471 8.05C97.1471 8.17 97.1471 8.29 97.1471 8.41C97.1671 8.53 97.1871 8.66 97.2071 8.8C97.2271 9.02 97.2471 9.25 97.2671 9.49C97.2871 9.73 97.2971 9.97 97.2971 10.21C97.2971 10.31 97.2971 10.42 97.2971 10.54C97.2971 10.64 97.3071 10.74 97.3271 10.84C97.3471 10.9 97.3571 10.96 97.3571 11.02C97.3571 11.08 97.3571 11.14 97.3571 11.2V11.8C97.3571 11.92 97.3671 12.02 97.3871 12.1C97.4271 12.24 97.4371 12.38 97.4171 12.52C97.4171 12.64 97.4271 12.77 97.4471 12.91L97.5371 14.29C97.5571 14.49 97.5671 14.7 97.5671 14.92C97.5871 15.12 97.5971 15.33 97.5971 15.55C97.5971 15.63 97.5971 15.72 97.5971 15.82C97.5971 15.9 97.6071 15.98 97.6271 16.06C97.6471 16.12 97.6571 16.18 97.6571 16.24C97.6571 16.3 97.6571 16.36 97.6571 16.42C97.6771 16.44 97.6771 16.48 97.6571 16.54C97.6571 16.58 97.6671 16.62 97.6871 16.66C97.7271 16.8 97.7471 16.94 97.7471 17.08C97.7471 17.22 97.7471 17.37 97.7471 17.53C97.7471 17.61 97.7471 17.7 97.7471 17.8C97.7671 17.88 97.7771 17.97 97.7771 18.07C97.7971 18.17 97.8071 18.28 97.8071 18.4C97.8071 18.52 97.8071 18.63 97.8071 18.73C97.8271 18.83 97.8371 18.94 97.8371 19.06C97.8371 19.16 97.8471 19.26 97.8671 19.36C97.8871 19.4 97.8971 19.44 97.8971 19.48C97.8971 19.7 97.9171 19.92 97.9571 20.14C97.9971 20.36 98.0371 20.58 98.0771 20.8C98.0971 20.86 98.1071 20.93 98.1071 21.01C98.1071 21.07 98.1071 21.13 98.1071 21.19C98.1071 21.25 98.0871 21.3 98.0471 21.34C97.9671 21.4 97.9071 21.52 97.8671 21.7C97.8671 21.76 97.8371 21.81 97.7771 21.85C97.6371 21.91 97.5171 21.99 97.4171 22.09C97.2571 22.23 97.0671 22.3 96.8471 22.3ZM112.49 23.53C112.41 23.55 112.35 23.53 112.31 23.47C112.23 23.41 112.15 23.35 112.07 23.29C112.01 23.23 111.93 23.17 111.83 23.11C111.67 23.03 111.54 22.89 111.44 22.69C111.26 22.41 111.17 22.11 111.17 21.79C111.17 21.69 111.16 21.59 111.14 21.49C111.14 21.39 111.13 21.29 111.11 21.19C111.11 21.09 111.1 21 111.08 20.92C111.08 20.82 111.08 20.73 111.08 20.65C111.08 20.55 111.08 20.45 111.08 20.35C111.08 20.23 111.07 20.12 111.05 20.02C111.05 20 111.04 19.99 111.02 19.99C111.02 19.97 111.02 19.96 111.02 19.96C110.98 19.96 110.95 19.97 110.93 19.99L110.57 20.44C110.49 20.56 110.39 20.67 110.27 20.77C110.17 20.85 110.07 20.94 109.97 21.04C109.65 21.28 109.33 21.48 109.01 21.64C108.87 21.7 108.74 21.75 108.62 21.79C107.94 22.03 107.27 22.14 106.61 22.12C106.39 22.1 106.16 22.08 105.92 22.06C105.7 22.06 105.47 22.03 105.23 21.97C105.05 21.91 104.87 21.85 104.69 21.79C104.53 21.71 104.37 21.61 104.21 21.49C104.07 21.37 103.93 21.25 103.79 21.13C103.65 20.99 103.52 20.84 103.4 20.68C103.2 20.36 103.07 20.16 103.01 20.08C102.95 20 102.86 19.8 102.74 19.48L102.59 19.21C102.53 19.05 102.46 18.9 102.38 18.76C102.32 18.6 102.27 18.44 102.23 18.28L102.08 17.86C102.04 17.72 102 17.59 101.96 17.47C101.92 17.33 101.88 17.19 101.84 17.05C101.76 16.79 101.69 16.53 101.63 16.27C101.57 15.99 101.51 15.72 101.45 15.46L101.36 14.92C101.36 14.88 101.35 14.84 101.33 14.8C101.33 14.74 101.33 14.68 101.33 14.62L101.15 13.75C101.13 13.65 101.12 13.56 101.12 13.48C101.12 13.38 101.12 13.29 101.12 13.21C101.1 13.05 101.09 12.89 101.09 12.73C101.11 12.57 101.12 12.41 101.12 12.25C101.14 12.03 101.17 11.82 101.21 11.62C101.25 11.4 101.29 11.19 101.33 10.99C101.41 10.71 101.49 10.43 101.57 10.15C101.67 9.85 101.78 9.57 101.9 9.31C102 9.09 102.1 8.88 102.2 8.68C102.3 8.46 102.42 8.25 102.56 8.05C102.74 7.75 102.93 7.46 103.13 7.18C103.35 6.9 103.57 6.63 103.79 6.37C103.95 6.19 104.11 6.02 104.27 5.86C104.43 5.68 104.59 5.5 104.75 5.32C105.03 5.04 105.33 4.8 105.65 4.6C105.81 4.5 105.97 4.44 106.13 4.42C106.19 4.4 106.24 4.39 106.28 4.39C106.34 4.39 106.39 4.38 106.43 4.36C106.65 4.32 106.85 4.33 107.03 4.39C107.09 4.41 107.15 4.43 107.21 4.45C107.29 4.47 107.36 4.49 107.42 4.51C107.68 4.61 107.91 4.67 108.11 4.69C108.23 4.69 108.37 4.73 108.53 4.81C108.63 4.83 108.73 4.86 108.83 4.9C108.93 4.92 109.03 4.94 109.13 4.96C109.25 4.96 109.35 4.99 109.43 5.05C109.45 5.05 109.47 5.06 109.49 5.08C109.53 5.08 109.56 5.08 109.58 5.08C109.74 5.1 109.88 5.14 110 5.2C110.12 5.24 110.24 5.3 110.36 5.38C110.64 5.56 110.93 5.76 111.23 5.98C111.41 6.12 111.5 6.31 111.5 6.55V6.7C111.56 6.94 111.5 7.18 111.32 7.42C111.22 7.6 111.14 7.72 111.08 7.78C111.04 7.82 110.92 7.89 110.72 7.99C110.66 8.01 110.59 8.04 110.51 8.08C110.45 8.1 110.37 8.11 110.27 8.11C110.23 8.11 110.18 8.12 110.12 8.14C110.08 8.14 110.04 8.14 110 8.14C109.94 8.16 109.88 8.16 109.82 8.14C109.76 8.12 109.7 8.11 109.64 8.11C109.62 8.13 109.59 8.12 109.55 8.08L109.1 7.72C108.78 7.44 108.41 7.28 107.99 7.24C107.91 7.22 107.83 7.21 107.75 7.21C107.67 7.21 107.58 7.2 107.48 7.18C107.22 7.18 107.01 7.25 106.85 7.39L106.64 7.6C106.46 7.8 106.27 8 106.07 8.2C105.89 8.4 105.71 8.6 105.53 8.8C105.39 8.94 105.27 9.1 105.17 9.28C105.07 9.46 104.97 9.64 104.87 9.82C104.55 10.44 104.31 11.1 104.15 11.8C104.13 11.92 104.11 12.04 104.09 12.16C104.07 12.26 104.05 12.36 104.03 12.46C104.03 12.56 104.03 12.66 104.03 12.76C104.03 12.86 104.04 12.96 104.06 13.06C104.08 13.14 104.09 13.22 104.09 13.3C104.09 13.36 104.1 13.43 104.12 13.51L104.21 14.23C104.23 14.35 104.25 14.48 104.27 14.62C104.31 14.74 104.34 14.86 104.36 14.98C104.56 15.76 104.8 16.55 105.08 17.35C105.18 17.65 105.3 17.91 105.44 18.13L105.62 18.4C105.68 18.48 105.74 18.56 105.8 18.64C105.86 18.7 105.92 18.76 105.98 18.82C106.1 18.9 106.2 18.95 106.28 18.97C106.58 19.03 106.89 19.06 107.21 19.06C107.61 19.02 107.95 18.89 108.23 18.67C108.37 18.57 108.49 18.46 108.59 18.34C108.71 18.22 108.82 18.09 108.92 17.95C109.16 17.67 109.37 17.37 109.55 17.05C109.61 16.93 109.6 16.81 109.52 16.69C109.4 16.49 109.25 16.33 109.07 16.21C108.85 16.05 108.62 15.92 108.38 15.82C108.16 15.7 107.91 15.63 107.63 15.61L107.48 15.55C107.32 15.49 107.15 15.49 106.97 15.55C106.83 15.61 106.68 15.64 106.52 15.64C106.38 15.62 106.23 15.6 106.07 15.58C105.71 15.48 105.4 15.32 105.14 15.1C105.06 15 104.99 14.9 104.93 14.8C104.89 14.7 104.84 14.61 104.78 14.53C104.78 14.49 104.77 14.45 104.75 14.41C104.75 14.37 104.76 14.34 104.78 14.32C104.78 14.22 104.78 14.12 104.78 14.02C104.8 13.92 104.82 13.82 104.84 13.72C104.84 13.7 104.86 13.63 104.9 13.51C104.94 13.41 104.99 13.32 105.05 13.24C105.13 13.14 105.21 13.05 105.29 12.97C105.61 12.67 105.96 12.48 106.34 12.4C106.56 12.34 106.78 12.3 107 12.28C107.22 12.24 107.43 12.21 107.63 12.19H110.15C110.31 12.19 110.48 12.19 110.66 12.19C110.84 12.19 111.02 12.18 111.2 12.16C111.36 12.14 111.51 12.13 111.65 12.13C111.81 12.13 111.97 12.13 112.13 12.13C112.31 12.13 112.47 12.16 112.61 12.22C112.83 12.28 113 12.41 113.12 12.61C113.18 12.69 113.24 12.78 113.3 12.88C113.36 12.98 113.4 13.08 113.42 13.18C113.44 13.2 113.45 13.23 113.45 13.27C113.45 13.29 113.46 13.32 113.48 13.36L113.69 14.47C113.73 14.63 113.76 14.8 113.78 14.98C113.8 15.16 113.82 15.34 113.84 15.52C113.84 15.62 113.84 15.73 113.84 15.85C113.86 15.95 113.87 16.05 113.87 16.15C113.87 16.23 113.87 16.32 113.87 16.42C113.89 16.52 113.9 16.62 113.9 16.72V18.1C113.9 18.24 113.9 18.4 113.9 18.58C113.92 18.74 113.94 18.9 113.96 19.06C113.98 19.14 113.99 19.22 113.99 19.3C113.99 19.38 113.99 19.47 113.99 19.57C113.97 19.77 113.98 19.98 114.02 20.2C114.06 20.4 114.09 20.61 114.11 20.83C114.13 20.93 114.15 21.04 114.17 21.16C114.21 21.26 114.24 21.37 114.26 21.49C114.28 21.57 114.29 21.66 114.29 21.76C114.31 21.84 114.32 21.93 114.32 22.03C114.32 22.11 114.31 22.19 114.29 22.27C114.29 22.37 114.26 22.46 114.2 22.54C114.16 22.58 114.12 22.64 114.08 22.72C114 22.94 113.83 23.12 113.57 23.26C113.37 23.34 113.16 23.4 112.94 23.44C112.76 23.44 112.61 23.47 112.49 23.53ZM129.431 22.72C129.251 22.74 129.081 22.74 128.921 22.72C128.761 22.7 128.601 22.62 128.441 22.48C128.401 22.44 128.341 22.4 128.261 22.36C128.161 22.3 128.101 22.23 128.081 22.15C128.061 22.07 128.021 22.01 127.961 21.97C127.901 21.91 127.861 21.84 127.841 21.76C127.821 21.7 127.811 21.64 127.811 21.58C127.831 21.5 127.841 21.43 127.841 21.37C127.841 21.31 127.831 21.25 127.811 21.19C127.811 21.13 127.811 21.07 127.811 21.01C127.751 20.71 127.691 20.41 127.631 20.11C127.571 19.79 127.521 19.48 127.481 19.18C127.461 19.04 127.441 18.9 127.421 18.76C127.401 18.62 127.381 18.48 127.361 18.34C127.341 18.08 127.311 17.82 127.271 17.56C127.251 17.3 127.221 17.04 127.181 16.78C127.141 16.62 127.121 16.48 127.121 16.36C127.121 16.2 127.111 16.05 127.091 15.91C127.071 15.75 127.051 15.6 127.031 15.46C127.011 15.34 126.941 15.28 126.821 15.28L126.611 15.25C126.511 15.23 126.401 15.22 126.281 15.22C126.161 15.22 126.041 15.21 125.921 15.19H125.621C125.581 15.21 125.521 15.22 125.441 15.22C125.361 15.22 125.281 15.22 125.201 15.22C125.141 15.2 125.061 15.2 124.961 15.22C124.881 15.22 124.801 15.23 124.721 15.25C124.661 15.25 124.581 15.24 124.481 15.22C124.461 15.2 124.421 15.2 124.361 15.22C124.321 15.22 124.281 15.22 124.241 15.22C124.141 15.22 124.031 15.23 123.911 15.25C123.811 15.25 123.711 15.25 123.611 15.25C123.551 15.25 123.491 15.25 123.431 15.25C123.371 15.25 123.311 15.26 123.251 15.28C123.111 15.3 122.971 15.32 122.831 15.34C122.691 15.34 122.551 15.34 122.411 15.34C122.211 15.32 122.011 15.32 121.811 15.34C121.611 15.36 121.411 15.38 121.211 15.4H121.121C121.021 15.44 120.971 15.5 120.971 15.58C120.971 15.6 120.961 15.62 120.941 15.64C120.941 15.64 120.941 15.65 120.941 15.67C120.941 15.77 120.951 15.85 120.971 15.91C120.991 16.05 121.011 16.2 121.031 16.36C121.051 16.5 121.071 16.65 121.091 16.81L121.181 17.53C121.201 17.73 121.231 17.93 121.271 18.13C121.311 18.31 121.341 18.49 121.361 18.67C121.381 18.69 121.391 18.72 121.391 18.76C121.391 18.78 121.401 18.81 121.421 18.85C121.461 18.95 121.481 19.06 121.481 19.18C121.481 19.3 121.481 19.42 121.481 19.54C121.521 19.56 121.511 19.6 121.451 19.66C121.431 19.7 121.411 19.74 121.391 19.78C121.371 19.82 121.361 19.86 121.361 19.9C121.301 20.1 121.171 20.29 120.971 20.47C120.771 20.63 120.581 20.72 120.401 20.74C120.381 20.74 120.361 20.75 120.341 20.77C120.321 20.77 120.291 20.77 120.251 20.77C119.991 20.83 119.711 20.81 119.411 20.71L119.321 20.65C119.301 20.57 119.261 20.51 119.201 20.47C119.141 20.43 119.091 20.39 119.051 20.35C119.011 20.29 118.961 20.24 118.901 20.2C118.861 20.14 118.831 20.07 118.811 19.99C118.811 19.97 118.801 19.96 118.781 19.96C118.701 19.86 118.651 19.75 118.631 19.63C118.611 19.51 118.591 19.39 118.571 19.27L118.481 18.79C118.461 18.61 118.431 18.43 118.391 18.25C118.371 18.05 118.351 17.85 118.331 17.65L118.151 16.48C118.131 16.34 118.111 16.2 118.091 16.06C118.071 15.9 118.051 15.75 118.031 15.61L117.941 14.65C117.921 14.45 117.901 14.25 117.881 14.05C117.861 13.85 117.831 13.65 117.791 13.45V13.18C117.791 13.02 117.781 12.86 117.761 12.7C117.761 12.54 117.751 12.39 117.731 12.25C117.711 12.19 117.701 12.13 117.701 12.07C117.701 12.01 117.701 11.95 117.701 11.89C117.701 11.79 117.691 11.7 117.671 11.62C117.671 11.52 117.661 11.42 117.641 11.32L117.551 10.69C117.531 10.47 117.491 10.24 117.431 10C117.391 9.76 117.331 9.53 117.251 9.31C117.211 9.19 117.161 9.07 117.101 8.95C117.041 8.81 116.991 8.67 116.951 8.53C116.911 8.37 116.871 8.26 116.831 8.2C116.771 8 116.771 7.81 116.831 7.63L117.011 7.18C117.031 7.1 117.091 7.03 117.191 6.97C117.231 6.91 117.281 6.86 117.341 6.82C117.401 6.76 117.461 6.71 117.521 6.67C117.561 6.65 117.611 6.64 117.671 6.64C117.731 6.66 117.811 6.65 117.911 6.61L118.001 6.55C118.181 6.45 118.361 6.45 118.541 6.55C118.641 6.59 118.741 6.63 118.841 6.67C118.961 6.71 119.061 6.78 119.141 6.88C119.261 6.9 119.341 6.99 119.381 7.15L119.651 7.75C119.811 8.09 119.951 8.44 120.071 8.8C120.191 9.16 120.271 9.54 120.311 9.94C120.331 10.08 120.351 10.23 120.371 10.39C120.411 10.53 120.441 10.68 120.461 10.84V11.08C120.461 11.18 120.471 11.25 120.491 11.29C120.511 11.43 120.521 11.58 120.521 11.74C120.541 11.9 120.551 12.06 120.551 12.22V12.28C120.571 12.38 120.631 12.45 120.731 12.49C120.791 12.51 120.851 12.53 120.911 12.55C120.971 12.55 121.031 12.55 121.091 12.55C121.191 12.53 121.271 12.53 121.331 12.55C121.411 12.55 121.491 12.55 121.571 12.55C121.711 12.55 121.841 12.55 121.961 12.55C122.081 12.53 122.211 12.52 122.351 12.52H122.711C122.771 12.52 122.831 12.53 122.891 12.55C122.971 12.55 123.041 12.54 123.101 12.52C123.141 12.52 123.171 12.52 123.191 12.52C123.231 12.5 123.261 12.49 123.281 12.49C123.481 12.51 123.681 12.52 123.881 12.52C124.081 12.5 124.281 12.49 124.481 12.49C124.681 12.51 124.881 12.52 125.081 12.52C125.281 12.5 125.481 12.49 125.681 12.49C125.841 12.49 125.991 12.5 126.131 12.52C126.291 12.52 126.441 12.52 126.581 12.52C126.721 12.52 126.791 12.46 126.791 12.34C126.791 12.24 126.791 12.13 126.791 12.01C126.791 11.89 126.781 11.78 126.761 11.68C126.741 11.46 126.721 11.26 126.701 11.08C126.701 10.88 126.691 10.68 126.671 10.48C126.651 10.2 126.641 9.93 126.641 9.67C126.661 9.39 126.651 9.12 126.611 8.86C126.591 8.64 126.571 8.42 126.551 8.2C126.551 7.98 126.531 7.77 126.491 7.57V7.15C126.491 7.07 126.501 7.01 126.521 6.97C126.521 6.93 126.521 6.9 126.521 6.88C126.541 6.84 126.551 6.81 126.551 6.79C126.551 6.69 126.531 6.63 126.491 6.61L126.401 6.55C126.281 6.47 126.261 6.38 126.341 6.28C126.401 6.2 126.411 6.11 126.371 6.01C126.371 5.95 126.381 5.91 126.401 5.89C126.441 5.83 126.481 5.77 126.521 5.71C126.561 5.65 126.591 5.58 126.611 5.5C126.671 5.28 126.761 5.18 126.881 5.2C127.021 5.2 127.111 5.22 127.151 5.26C127.171 5.28 127.191 5.29 127.211 5.29C127.231 5.27 127.241 5.25 127.241 5.23C127.241 5.11 127.301 5.04 127.421 5.02C127.541 5 127.631 4.98 127.691 4.96L127.871 4.84H127.961C128.061 4.88 128.141 4.93 128.201 4.99C128.281 5.03 128.361 5.07 128.441 5.11C128.481 5.13 128.531 5.17 128.591 5.23C128.731 5.41 128.831 5.64 128.891 5.92C128.931 6.12 128.971 6.31 129.011 6.49C129.051 6.67 129.081 6.86 129.101 7.06C129.101 7.1 129.101 7.14 129.101 7.18C129.121 7.22 129.131 7.26 129.131 7.3L129.161 7.51C129.161 7.75 129.171 7.99 129.191 8.23C129.231 8.45 129.261 8.68 129.281 8.92C129.301 8.94 129.311 8.98 129.311 9.04C129.291 9.18 129.281 9.32 129.281 9.46C129.301 9.58 129.321 9.72 129.341 9.88C129.361 10.02 129.371 10.18 129.371 10.36C129.391 10.52 129.401 10.68 129.401 10.84C129.401 10.94 129.401 11.05 129.401 11.17C129.421 11.29 129.441 11.4 129.461 11.5C129.481 11.6 129.491 11.7 129.491 11.8C129.491 11.9 129.491 12 129.491 12.1C129.491 12.2 129.491 12.3 129.491 12.4C129.511 12.48 129.531 12.57 129.551 12.67V12.79C129.571 13.03 129.591 13.27 129.611 13.51C129.651 13.73 129.681 13.96 129.701 14.2C129.721 14.22 129.731 14.26 129.731 14.32C129.731 14.54 129.751 14.77 129.791 15.01C129.831 15.23 129.861 15.45 129.881 15.67L129.971 16.72C129.971 16.74 129.971 16.78 129.971 16.84C129.991 16.88 130.001 16.92 130.001 16.96C130.021 17 130.031 17.08 130.031 17.2C130.031 17.38 130.041 17.56 130.061 17.74C130.101 17.92 130.131 18.1 130.151 18.28C130.191 18.48 130.221 18.68 130.241 18.88C130.261 19.08 130.291 19.29 130.331 19.51C130.371 19.75 130.421 19.99 130.481 20.23C130.541 20.47 130.591 20.71 130.631 20.95C130.651 21.03 130.661 21.12 130.661 21.22C130.681 21.3 130.691 21.39 130.691 21.49C130.691 21.59 130.661 21.69 130.601 21.79C130.581 21.81 130.561 21.85 130.541 21.91C130.541 21.95 130.521 21.99 130.481 22.03C130.461 22.05 130.451 22.07 130.451 22.09C130.451 22.11 130.441 22.12 130.421 22.12C130.341 22.14 130.271 22.19 130.211 22.27C130.151 22.35 130.081 22.41 130.001 22.45C129.921 22.53 129.811 22.59 129.671 22.63L129.431 22.72ZM149.921 22.3C149.801 22.28 149.681 22.27 149.561 22.27C149.441 22.27 149.331 22.24 149.231 22.18C149.071 22.12 148.941 22.05 148.841 21.97C148.641 21.79 148.461 21.58 148.301 21.34C148.281 21.3 148.261 21.25 148.241 21.19C148.221 21.13 148.191 21.08 148.151 21.04C148.071 20.86 147.991 20.68 147.911 20.5C147.831 20.32 147.741 20.14 147.641 19.96C147.541 19.78 147.441 19.6 147.341 19.42C147.241 19.24 147.141 19.06 147.041 18.88C146.941 18.7 146.841 18.52 146.741 18.34C146.641 18.16 146.551 17.97 146.471 17.77L146.291 17.47C146.211 17.33 146.131 17.19 146.051 17.05C145.971 16.91 145.911 16.77 145.871 16.63C145.851 16.57 145.801 16.48 145.721 16.36L145.451 15.91C145.391 15.77 145.321 15.63 145.241 15.49C145.181 15.35 145.101 15.22 145.001 15.1L144.821 14.83C144.501 14.31 144.201 13.77 143.921 13.21C143.861 13.09 143.791 12.97 143.711 12.85C143.651 12.73 143.581 12.61 143.501 12.49C143.481 12.41 143.441 12.34 143.381 12.28C143.341 12.22 143.301 12.16 143.261 12.1C143.221 12.04 143.171 12.04 143.111 12.1C143.091 12.16 143.071 12.22 143.051 12.28C143.031 12.32 143.011 12.37 142.991 12.43C142.911 12.65 142.841 12.87 142.781 13.09C142.721 13.31 142.661 13.53 142.601 13.75C142.561 13.95 142.511 14.14 142.451 14.32C142.391 14.5 142.341 14.68 142.301 14.86C142.281 15 142.261 15.14 142.241 15.28C142.221 15.4 142.191 15.52 142.151 15.64C142.151 15.7 142.141 15.76 142.121 15.82C142.121 15.86 142.111 15.91 142.091 15.97C142.011 16.27 141.951 16.58 141.911 16.9C141.891 17.2 141.861 17.51 141.821 17.83V18.01C141.841 18.09 141.841 18.16 141.821 18.22C141.821 18.28 141.811 18.34 141.791 18.4C141.731 18.56 141.721 18.74 141.761 18.94C141.781 19.02 141.791 19.1 141.791 19.18C141.811 19.26 141.811 19.34 141.791 19.42C141.771 19.62 141.751 19.82 141.731 20.02C141.731 20.2 141.731 20.38 141.731 20.56C141.731 20.74 141.701 20.92 141.641 21.1C141.601 21.18 141.551 21.23 141.491 21.25C141.411 21.33 141.361 21.4 141.341 21.46C141.321 21.54 141.271 21.6 141.191 21.64C141.131 21.68 141.081 21.72 141.041 21.76C141.021 21.78 140.991 21.79 140.951 21.79C140.891 21.79 140.851 21.8 140.831 21.82C140.771 21.84 140.711 21.86 140.651 21.88C140.611 21.9 140.571 21.92 140.531 21.94C140.471 21.94 140.401 21.94 140.321 21.94C140.261 21.92 140.201 21.91 140.141 21.91C139.921 21.89 139.761 21.86 139.661 21.82C139.561 21.78 139.421 21.65 139.241 21.43C139.221 21.37 139.191 21.32 139.151 21.28C139.111 21.22 139.071 21.16 139.031 21.1C138.891 20.92 138.801 20.72 138.761 20.5C138.741 20.22 138.681 19.94 138.581 19.66C138.501 19.38 138.401 19.11 138.281 18.85C138.261 18.77 138.231 18.69 138.191 18.61C138.171 18.53 138.141 18.46 138.101 18.4C137.961 18.08 137.821 17.77 137.681 17.47C137.561 17.15 137.431 16.83 137.291 16.51C137.271 16.49 137.261 16.47 137.261 16.45C137.261 16.43 137.251 16.41 137.231 16.39C137.111 16.21 137.001 16.03 136.901 15.85C136.821 15.65 136.731 15.45 136.631 15.25C136.531 15.03 136.401 14.8 136.241 14.56C136.201 14.46 136.151 14.37 136.091 14.29C136.051 14.21 136.011 14.13 135.971 14.05C135.951 14.01 135.931 13.96 135.911 13.9C135.911 13.84 135.891 13.79 135.851 13.75C135.691 13.53 135.551 13.29 135.431 13.03C135.331 12.77 135.211 12.52 135.071 12.28L134.741 11.74C134.681 11.64 134.611 11.54 134.531 11.44C134.471 11.34 134.411 11.25 134.351 11.17C134.291 11.07 134.231 10.99 134.171 10.93C134.111 10.85 134.061 10.77 134.021 10.69C133.941 10.57 133.861 10.46 133.781 10.36C133.701 10.24 133.631 10.13 133.571 10.03C133.491 9.91 133.411 9.8 133.331 9.7C133.251 9.58 133.171 9.47 133.091 9.37C132.951 9.15 132.841 8.94 132.761 8.74C132.741 8.64 132.741 8.55 132.761 8.47C132.801 8.31 132.831 8.16 132.851 8.02C132.891 7.86 132.931 7.71 132.971 7.57L133.061 7.45C133.141 7.37 133.211 7.3 133.271 7.24C133.351 7.18 133.431 7.12 133.511 7.06C133.591 7.02 133.641 7 133.661 7C133.881 6.92 134.091 6.88 134.291 6.88C134.491 6.88 134.691 6.93 134.891 7.03C134.991 7.07 135.091 7.12 135.191 7.18C135.411 7.3 135.551 7.46 135.611 7.66C135.651 7.76 135.691 7.86 135.731 7.96C135.791 8.06 135.831 8.16 135.851 8.26C136.011 8.68 136.231 9.08 136.511 9.46C136.671 9.68 136.841 9.93 137.021 10.21C137.061 10.23 137.091 10.26 137.111 10.3C137.131 10.34 137.151 10.37 137.171 10.39C137.291 10.53 137.401 10.69 137.501 10.87C137.601 11.05 137.691 11.22 137.771 11.38C137.851 11.52 137.911 11.66 137.951 11.8C138.011 11.92 138.071 12.05 138.131 12.19C138.291 12.55 138.441 12.91 138.581 13.27C138.721 13.63 138.861 13.98 139.001 14.32C139.041 14.44 139.091 14.55 139.151 14.65C139.211 14.75 139.261 14.86 139.301 14.98C139.301 14.98 139.301 14.99 139.301 15.01C139.321 15.01 139.331 15 139.331 14.98C139.371 14.98 139.391 14.97 139.391 14.95C139.491 14.79 139.551 14.64 139.571 14.5L139.841 13.54C139.881 13.42 139.921 13.3 139.961 13.18C140.001 13.06 140.041 12.93 140.081 12.79C140.201 12.51 140.291 12.23 140.351 11.95C140.371 11.79 140.431 11.62 140.531 11.44C140.591 11.34 140.621 11.23 140.621 11.11L140.711 10.81C140.831 10.45 140.951 10.09 141.071 9.73C141.191 9.37 141.331 9.03 141.491 8.71C141.551 8.59 141.611 8.48 141.671 8.38C141.731 8.26 141.791 8.15 141.851 8.05C141.891 7.97 141.941 7.9 142.001 7.84C142.061 7.78 142.131 7.74 142.211 7.72C142.291 7.62 142.381 7.56 142.481 7.54C142.581 7.52 142.671 7.48 142.751 7.42C142.771 7.4 142.821 7.39 142.901 7.39C142.961 7.39 143.031 7.41 143.111 7.45C143.211 7.49 143.301 7.48 143.381 7.42C143.481 7.34 143.571 7.36 143.651 7.48C143.691 7.56 143.741 7.63 143.801 7.69C143.881 7.73 143.951 7.77 144.011 7.81C144.051 7.85 144.091 7.89 144.131 7.93C144.191 7.97 144.231 8.02 144.251 8.08L145.241 9.79C145.341 9.95 145.441 10.12 145.541 10.3C145.641 10.46 145.731 10.63 145.811 10.81C145.891 10.91 145.951 11.02 145.991 11.14C146.051 11.26 146.111 11.39 146.171 11.53C146.291 11.85 146.461 12.17 146.681 12.49C146.721 12.55 146.761 12.61 146.801 12.67C146.841 12.73 146.871 12.79 146.891 12.85C146.991 13.09 147.101 13.33 147.221 13.57C147.361 13.81 147.491 14.06 147.611 14.32C147.631 14.36 147.651 14.41 147.671 14.47C147.711 14.53 147.741 14.58 147.761 14.62C147.861 14.88 147.981 15.14 148.121 15.4C148.261 15.64 148.401 15.88 148.541 16.12C148.561 16.16 148.611 16.22 148.691 16.3C148.691 16.3 148.701 16.3 148.721 16.3C148.741 16.3 148.751 16.29 148.751 16.27C148.771 16.25 148.801 16.2 148.841 16.12C148.901 15.94 148.961 15.77 149.021 15.61C149.081 15.43 149.121 15.25 149.141 15.07C149.181 14.91 149.221 14.78 149.261 14.68C149.361 14.36 149.451 14.05 149.531 13.75C149.611 13.43 149.691 13.11 149.771 12.79C149.811 12.67 149.851 12.55 149.891 12.43C149.931 12.29 149.971 12.16 150.011 12.04C150.131 11.62 150.251 11.21 150.371 10.81C150.491 10.39 150.601 9.97 150.701 9.55L151.061 8.05C151.101 7.93 151.101 7.81 151.061 7.69C151.021 7.59 151.031 7.51 151.091 7.45C151.171 7.35 151.231 7.24 151.271 7.12C151.311 7 151.351 6.89 151.391 6.79C151.451 6.59 151.531 6.37 151.631 6.13C151.651 6.07 151.681 6.01 151.721 5.95C151.761 5.89 151.791 5.83 151.811 5.77C151.891 5.65 151.981 5.58 152.081 5.56C152.141 5.52 152.201 5.49 152.261 5.47C152.321 5.43 152.381 5.4 152.441 5.38C152.461 5.36 152.481 5.35 152.501 5.35C152.541 5.35 152.571 5.34 152.591 5.32C152.691 5.28 152.791 5.26 152.891 5.26C153.011 5.24 153.111 5.2 153.191 5.14C153.311 5.06 153.451 5.07 153.611 5.17C153.771 5.29 153.901 5.4 154.001 5.5C154.121 5.62 154.201 5.8 154.241 6.04C154.261 6.1 154.271 6.16 154.271 6.22C154.271 6.28 154.271 6.34 154.271 6.4C154.231 6.84 154.141 7.27 154.001 7.69C153.961 7.81 153.921 7.94 153.881 8.08C153.841 8.2 153.801 8.32 153.761 8.44C153.761 8.46 153.751 8.49 153.731 8.53C153.731 8.55 153.731 8.58 153.731 8.62C153.711 8.94 153.661 9.26 153.581 9.58C153.501 9.9 153.411 10.21 153.311 10.51C153.231 10.77 153.161 11.03 153.101 11.29C153.041 11.55 152.971 11.81 152.891 12.07C152.871 12.11 152.851 12.17 152.831 12.25C152.831 12.31 152.811 12.36 152.771 12.4C152.711 12.52 152.671 12.65 152.651 12.79C152.631 12.91 152.601 13.04 152.561 13.18C152.541 13.26 152.521 13.34 152.501 13.42C152.501 13.48 152.481 13.55 152.441 13.63C152.381 13.85 152.321 14.08 152.261 14.32C152.201 14.54 152.151 14.76 152.111 14.98L151.841 16C151.821 16.08 151.801 16.16 151.781 16.24C151.781 16.3 151.771 16.37 151.751 16.45C151.751 16.51 151.741 16.57 151.721 16.63C151.721 16.69 151.711 16.76 151.691 16.84C151.671 16.96 151.641 17.09 151.601 17.23C151.581 17.35 151.561 17.48 151.541 17.62C151.521 17.76 151.501 17.9 151.481 18.04C151.461 18.16 151.441 18.3 151.421 18.46C151.421 18.54 151.411 18.62 151.391 18.7C151.391 18.78 151.391 18.87 151.391 18.97L151.301 19.6C151.301 19.8 151.291 19.99 151.271 20.17C151.251 20.35 151.221 20.54 151.181 20.74C151.161 20.78 151.151 20.83 151.151 20.89C151.151 20.95 151.151 21 151.151 21.04C151.151 21.22 151.111 21.36 151.031 21.46C151.011 21.52 150.981 21.58 150.941 21.64C150.901 21.7 150.861 21.76 150.821 21.82L150.671 21.97C150.611 21.99 150.551 22.02 150.491 22.06C150.431 22.12 150.371 22.17 150.311 22.21C150.191 22.27 150.061 22.3 149.921 22.3ZM168.502 24.19C168.322 24.19 168.162 24.12 168.022 23.98C167.982 23.92 167.942 23.86 167.902 23.8C167.862 23.74 167.822 23.68 167.782 23.62C167.602 23.2 167.512 22.76 167.512 22.3L167.422 21.58C167.362 21.3 167.312 21.02 167.272 20.74C167.232 20.46 167.162 20.19 167.062 19.93L166.882 19.42C166.882 19.38 166.872 19.34 166.852 19.3C166.852 19.26 166.842 19.22 166.822 19.18L166.372 17.59C166.352 17.55 166.332 17.5 166.312 17.44C166.312 17.38 166.292 17.33 166.252 17.29C166.192 17.17 166.142 17.05 166.102 16.93C166.082 16.79 166.052 16.65 166.012 16.51C165.992 16.41 165.972 16.32 165.952 16.24C165.932 16.14 165.902 16.04 165.862 15.94C165.822 15.82 165.782 15.75 165.742 15.73C165.702 15.69 165.612 15.69 165.472 15.73C165.372 15.75 165.262 15.77 165.142 15.79C165.042 15.79 164.942 15.81 164.842 15.85C164.762 15.87 164.662 15.89 164.542 15.91C164.442 15.91 164.342 15.92 164.242 15.94L163.822 16.03C163.722 16.05 163.612 16.08 163.492 16.12C163.392 16.14 163.292 16.15 163.192 16.15L162.652 16.24C162.492 16.28 162.322 16.32 162.142 16.36C161.962 16.4 161.792 16.44 161.632 16.48C161.152 16.6 160.672 16.69 160.192 16.75C160.032 16.79 159.942 16.86 159.922 16.96C159.902 16.96 159.892 16.97 159.892 16.99C159.772 17.31 159.632 17.63 159.472 17.95C159.332 18.25 159.182 18.56 159.022 18.88C158.982 18.96 158.942 19.04 158.902 19.12C158.882 19.18 158.852 19.25 158.812 19.33C158.792 19.37 158.772 19.42 158.752 19.48C158.732 19.52 158.712 19.56 158.692 19.6C158.572 19.74 158.512 19.91 158.512 20.11C158.492 20.23 158.452 20.35 158.392 20.47C158.332 20.57 158.272 20.67 158.212 20.77C158.192 20.83 158.152 20.86 158.092 20.86C158.012 20.88 157.932 20.91 157.852 20.95C157.772 20.99 157.682 21.03 157.582 21.07C157.522 21.09 157.462 21.09 157.402 21.07C157.362 21.05 157.312 21.03 157.252 21.01C157.212 20.97 157.172 20.95 157.132 20.95C156.912 20.93 156.752 20.8 156.652 20.56C156.492 20.24 156.382 19.92 156.322 19.6C156.302 19.52 156.302 19.45 156.322 19.39C156.362 19.33 156.392 19.27 156.412 19.21C156.532 19.13 156.602 19.04 156.622 18.94V18.91C156.622 18.65 156.672 18.41 156.772 18.19C156.892 17.95 156.992 17.72 157.072 17.5C157.112 17.38 157.162 17.26 157.222 17.14C157.282 17.02 157.342 16.9 157.402 16.78C157.482 16.64 157.542 16.51 157.582 16.39C157.642 16.25 157.692 16.11 157.732 15.97C157.792 15.81 157.792 15.66 157.732 15.52C157.692 15.4 157.672 15.29 157.672 15.19C157.672 15.07 157.682 14.95 157.702 14.83C157.702 14.61 157.782 14.42 157.942 14.26C158.022 14.16 158.102 14.08 158.182 14.02C158.282 13.94 158.372 13.86 158.452 13.78C158.632 13.6 158.772 13.36 158.872 13.06C158.952 12.8 159.012 12.54 159.052 12.28C159.112 12 159.172 11.73 159.232 11.47C159.272 11.21 159.312 10.96 159.352 10.72C159.412 10.46 159.472 10.21 159.532 9.97C159.552 9.87 159.572 9.78 159.592 9.7C159.632 9.6 159.662 9.51 159.682 9.43C159.742 9.27 159.802 9.12 159.862 8.98C159.922 8.82 159.962 8.66 159.982 8.5C160.022 8.42 160.022 8.35 159.982 8.29C159.962 8.19 159.962 8.1 159.982 8.02C160.022 7.94 160.052 7.86 160.072 7.78C160.132 7.64 160.172 7.5 160.192 7.36C160.232 7.22 160.282 7.08 160.342 6.94C160.442 6.68 160.522 6.47 160.582 6.31C160.662 6.13 160.732 5.93 160.792 5.71C160.832 5.59 160.872 5.48 160.912 5.38C160.972 5.26 161.012 5.14 161.032 5.02C161.092 4.84 161.142 4.66 161.182 4.48C161.222 4.28 161.242 4.09 161.242 3.91C161.282 3.75 161.322 3.64 161.362 3.58C161.462 3.38 161.582 3.21 161.722 3.07C161.882 2.93 162.032 2.79 162.172 2.65C162.272 2.59 162.372 2.55 162.472 2.53C162.572 2.49 162.672 2.5 162.772 2.56C162.852 2.6 162.902 2.62 162.922 2.62C163.102 2.6 163.252 2.64 163.372 2.74C163.492 2.84 163.592 2.96 163.672 3.1C163.712 3.14 163.742 3.19 163.762 3.25C163.782 3.31 163.802 3.36 163.822 3.4C163.922 3.56 163.972 3.72 163.972 3.88C163.972 3.96 163.982 4.05 164.002 4.15C164.022 4.23 164.042 4.32 164.062 4.42C164.122 4.54 164.212 4.6 164.332 4.6C164.352 4.58 164.372 4.58 164.392 4.6C164.412 4.62 164.422 4.64 164.422 4.66C164.522 4.78 164.552 4.91 164.512 5.05C164.472 5.21 164.462 5.37 164.482 5.53C164.522 5.67 164.562 5.82 164.602 5.98C164.682 6.18 164.762 6.38 164.842 6.58C164.922 6.78 165.002 6.98 165.082 7.18C165.182 7.4 165.282 7.62 165.382 7.84C165.482 8.06 165.572 8.28 165.652 8.5C165.752 8.78 165.852 9.06 165.952 9.34C166.072 9.62 166.202 9.9 166.342 10.18L166.432 10.51C166.452 10.59 166.472 10.67 166.492 10.75C166.532 10.83 166.562 10.91 166.582 10.99C166.622 11.05 166.652 11.11 166.672 11.17C166.712 11.23 166.752 11.28 166.792 11.32C166.892 11.46 166.952 11.61 166.972 11.77C167.032 11.97 167.122 12.15 167.242 12.31C167.282 12.37 167.342 12.4 167.422 12.4C167.722 12.36 168.022 12.33 168.322 12.31C168.622 12.27 168.922 12.21 169.222 12.13C169.442 12.07 169.652 12.04 169.852 12.04C170.232 12.04 170.582 12.17 170.902 12.43C171.282 12.73 171.482 13.11 171.502 13.57C171.502 13.67 171.512 13.75 171.532 13.81C171.532 13.95 171.492 14.06 171.412 14.14C171.392 14.2 171.352 14.26 171.292 14.32C171.252 14.38 171.212 14.44 171.172 14.5C171.132 14.58 171.092 14.64 171.052 14.68L170.872 14.83C170.852 14.87 170.822 14.92 170.782 14.98C170.742 15.02 170.692 15.05 170.632 15.07C170.552 15.09 170.472 15.12 170.392 15.16C170.312 15.18 170.222 15.19 170.122 15.19C169.762 15.23 169.442 15.22 169.162 15.16H168.682C168.642 15.16 168.582 15.18 168.502 15.22C168.422 15.26 168.382 15.31 168.382 15.37V15.49C168.442 15.67 168.482 15.86 168.502 16.06C168.542 16.24 168.602 16.41 168.682 16.57C168.682 16.65 168.702 16.73 168.742 16.81C168.842 16.99 168.922 17.18 168.982 17.38C169.042 17.56 169.092 17.75 169.132 17.95C169.132 17.99 169.152 18.07 169.192 18.19C169.252 18.33 169.302 18.48 169.342 18.64C169.382 18.78 169.412 18.93 169.432 19.09C169.432 19.21 169.462 19.32 169.522 19.42C169.602 19.6 169.662 19.78 169.702 19.96C169.742 20.14 169.772 20.33 169.792 20.53C169.812 20.55 169.822 20.59 169.822 20.65C169.822 20.69 169.832 20.73 169.852 20.77C169.952 20.99 170.022 21.23 170.062 21.49C170.102 21.73 170.152 21.97 170.212 22.21C170.252 22.33 170.272 22.45 170.272 22.57C170.292 22.71 170.302 22.85 170.302 22.99C170.302 23.09 170.272 23.2 170.212 23.32C170.152 23.38 170.122 23.41 170.122 23.41C170.002 23.43 169.932 23.5 169.912 23.62L169.822 23.8C169.782 23.88 169.722 23.93 169.642 23.95C169.562 23.95 169.492 23.98 169.432 24.04C169.352 24.12 169.242 24.16 169.102 24.16C169.022 24.16 168.922 24.16 168.802 24.16C168.702 24.16 168.602 24.17 168.502 24.19ZM161.272 13.3C161.392 13.28 161.512 13.26 161.632 13.24C161.772 13.22 161.922 13.2 162.082 13.18C162.182 13.16 162.312 13.14 162.472 13.12C162.632 13.1 162.782 13.08 162.922 13.06C163.062 13.02 163.202 13 163.342 13C163.482 12.98 163.622 12.96 163.762 12.94C163.882 12.9 164.002 12.88 164.122 12.88C164.242 12.86 164.362 12.84 164.482 12.82C164.662 12.78 164.732 12.68 164.692 12.52C164.672 12.36 164.632 12.2 164.572 12.04C164.532 11.86 164.442 11.71 164.302 11.59C164.262 11.55 164.242 11.49 164.242 11.41V11.32C164.202 11.16 164.152 11.01 164.092 10.87C164.052 10.71 164.002 10.56 163.942 10.42C163.902 10.26 163.852 10.12 163.792 10C163.752 9.86 163.702 9.72 163.642 9.58L163.282 8.5C163.222 8.36 163.162 8.22 163.102 8.08C163.062 7.94 163.022 7.8 162.982 7.66L162.892 7.54H162.802L162.742 7.63C162.642 7.93 162.522 8.23 162.382 8.53C162.262 8.83 162.152 9.15 162.052 9.49C162.052 9.53 162.042 9.58 162.022 9.64C162.002 9.7 161.982 9.76 161.962 9.82C161.882 10.02 161.802 10.24 161.722 10.48C161.662 10.72 161.612 10.96 161.572 11.2C161.552 11.34 161.532 11.48 161.512 11.62C161.492 11.74 161.462 11.87 161.422 12.01L161.152 13.18C161.132 13.2 161.142 13.23 161.182 13.27C161.222 13.29 161.252 13.3 161.272 13.3ZM179.646 23.98C179.586 24 179.526 24 179.466 23.98C179.406 23.98 179.356 23.98 179.316 23.98C179.096 23.92 178.906 23.8 178.746 23.62C178.606 23.46 178.476 23.27 178.356 23.05C178.336 22.97 178.306 22.89 178.266 22.81C178.246 22.73 178.236 22.65 178.236 22.57V22.36C178.196 22.14 178.166 21.92 178.146 21.7C178.146 21.48 178.146 21.26 178.146 21.04C178.146 20.76 178.146 20.48 178.146 20.2C178.166 19.92 178.176 19.64 178.176 19.36C178.176 19.22 178.186 19.11 178.206 19.03C178.226 18.65 178.226 18.25 178.206 17.83C178.186 17.73 178.166 17.62 178.146 17.5C178.146 17.38 178.146 17.26 178.146 17.14C178.166 16.92 178.166 16.7 178.146 16.48C178.126 16.26 178.096 16.04 178.056 15.82L177.966 15.31C177.966 15.27 177.956 15.23 177.936 15.19C177.936 15.13 177.936 15.09 177.936 15.07C177.776 14.47 177.556 13.93 177.276 13.45C177.176 13.27 177.066 13.09 176.946 12.91C176.846 12.71 176.746 12.51 176.646 12.31C176.546 12.11 176.466 11.91 176.406 11.71C176.366 11.49 176.326 11.28 176.286 11.08C176.286 11.04 176.286 10.99 176.286 10.93C176.306 10.87 176.316 10.81 176.316 10.75C176.316 10.63 176.316 10.51 176.316 10.39C176.336 10.25 176.346 10.11 176.346 9.97C176.346 9.83 176.306 9.72 176.226 9.64L176.046 9.4C175.966 9.3 175.896 9.2 175.836 9.1C175.776 8.98 175.706 8.87 175.626 8.77L175.296 8.32C175.216 8.2 175.126 8.08 175.026 7.96C174.926 7.84 174.826 7.71 174.726 7.57C174.686 7.53 174.646 7.49 174.606 7.45C174.566 7.39 174.516 7.35 174.456 7.33C174.376 7.31 174.316 7.26 174.276 7.18C174.216 7.12 174.146 7.03 174.066 6.91C173.946 6.71 173.816 6.51 173.676 6.31C173.556 6.09 173.436 5.88 173.316 5.68L173.226 5.56C173.046 5.18 172.866 4.8 172.686 4.42C172.526 4.02 172.376 3.63 172.236 3.25C172.156 3.07 172.096 2.87 172.056 2.65C172.036 2.53 172.006 2.41 171.966 2.29C171.926 2.17 171.876 2.06 171.816 1.96C171.756 1.86 171.716 1.76 171.696 1.66C171.696 1.56 171.696 1.46 171.696 1.36C171.696 1.3 171.706 1.24 171.726 1.18C171.766 1.12 171.796 1.06 171.816 0.999999C171.876 0.899999 171.936 0.809999 171.996 0.729998C172.076 0.629999 172.156 0.539999 172.236 0.459998C172.336 0.359998 172.446 0.309999 172.566 0.309999C172.626 0.309999 172.666 0.299999 172.686 0.279999C172.846 0.199999 173.006 0.179999 173.166 0.22C173.346 0.259999 173.506 0.309999 173.646 0.37C173.706 0.389999 173.756 0.429999 173.796 0.49C173.836 0.529999 173.876 0.569999 173.916 0.609998L174.246 1.15C174.286 1.19 174.306 1.24 174.306 1.3C174.326 1.36 174.346 1.42 174.366 1.48C174.386 1.52 174.406 1.57 174.426 1.63C174.566 1.93 174.696 2.23 174.816 2.53C174.956 2.81 175.086 3.1 175.206 3.4C175.306 3.66 175.406 3.92 175.506 4.18C175.626 4.42 175.756 4.66 175.896 4.9C175.996 5.14 176.116 5.37 176.256 5.59C176.396 5.81 176.536 6.03 176.676 6.25C176.756 6.33 176.826 6.42 176.886 6.52C176.946 6.62 177.016 6.72 177.096 6.82L177.246 7C177.406 7.16 177.506 7.24 177.546 7.24C177.586 7.24 177.676 7.15 177.816 6.97C177.896 6.87 177.966 6.77 178.026 6.67C178.106 6.55 178.186 6.45 178.266 6.37C178.426 6.17 178.576 5.98 178.716 5.8C178.876 5.62 179.026 5.44 179.166 5.26C179.386 5 179.666 4.74 180.006 4.48C180.146 4.36 180.276 4.23 180.396 4.09C180.536 3.91 180.696 3.78 180.876 3.7C181.016 3.62 181.146 3.54 181.266 3.46C181.386 3.36 181.506 3.27 181.626 3.19C181.746 3.07 181.876 2.97 182.016 2.89C182.096 2.83 182.166 2.77 182.226 2.71C182.306 2.63 182.376 2.55 182.436 2.47C182.476 2.41 182.516 2.36 182.556 2.32C182.616 2.26 182.676 2.21 182.736 2.17L183.156 1.9C183.196 1.88 183.226 1.87 183.246 1.87C183.266 1.85 183.286 1.83 183.306 1.81C183.346 1.81 183.376 1.81 183.396 1.81C183.416 1.79 183.436 1.78 183.456 1.78C183.556 1.74 183.646 1.71 183.726 1.69C183.826 1.67 183.926 1.66 184.026 1.66C184.146 1.72 184.266 1.78 184.386 1.84C184.506 1.9 184.606 1.98 184.686 2.08C184.726 2.1 184.756 2.11 184.776 2.11C184.816 2.11 184.846 2.12 184.866 2.14C184.886 2.16 184.896 2.18 184.896 2.2C184.896 2.22 184.886 2.26 184.866 2.32C184.846 2.36 184.836 2.39 184.836 2.41C184.836 2.43 184.856 2.44 184.896 2.44C184.936 2.44 184.966 2.45 184.986 2.47C185.006 2.49 185.026 2.5 185.046 2.5C185.066 2.5 185.076 2.52 185.076 2.56C185.056 2.72 185.076 2.89 185.136 3.07C185.176 3.13 185.196 3.19 185.196 3.25C185.196 3.31 185.186 3.37 185.166 3.43L184.776 4.15C184.756 4.23 184.706 4.29 184.626 4.33C184.326 4.59 184.026 4.79 183.726 4.93C183.366 5.05 183.066 5.21 182.826 5.41C182.726 5.49 182.626 5.57 182.526 5.65C182.426 5.71 182.326 5.79 182.226 5.89C182.186 5.93 182.126 5.97 182.046 6.01L181.866 6.16C181.646 6.4 181.426 6.64 181.206 6.88C181.006 7.1 180.796 7.33 180.576 7.57C180.536 7.65 180.486 7.69 180.426 7.69C180.326 7.75 180.236 7.83 180.156 7.93C180.056 8.09 179.946 8.25 179.826 8.41C179.706 8.55 179.616 8.72 179.556 8.92L179.376 9.22C179.356 9.24 179.336 9.27 179.316 9.31C179.296 9.33 179.276 9.36 179.256 9.4C179.176 9.54 179.166 9.69 179.226 9.85C179.266 9.89 179.296 9.94 179.316 10C179.356 10.06 179.386 10.12 179.406 10.18C179.466 10.28 179.456 10.38 179.376 10.48C179.336 10.5 179.316 10.55 179.316 10.63C179.356 10.71 179.376 10.77 179.376 10.81C179.416 10.93 179.406 11.04 179.346 11.14C179.306 11.22 179.286 11.27 179.286 11.29C179.266 11.41 179.276 11.52 179.316 11.62C179.356 11.7 179.396 11.8 179.436 11.92C179.496 12.02 179.566 12.12 179.646 12.22C179.746 12.42 179.846 12.61 179.946 12.79C180.046 12.97 180.136 13.16 180.216 13.36L180.576 14.53C180.616 14.71 180.646 14.9 180.666 15.1C180.686 15.28 180.706 15.46 180.726 15.64C180.746 15.76 180.766 15.88 180.786 16C180.806 16.1 180.806 16.21 180.786 16.33C180.826 16.77 180.836 17.21 180.816 17.65C180.816 18.07 180.816 18.5 180.816 18.94C180.816 18.98 180.806 19.02 180.786 19.06C180.766 19.28 180.756 19.51 180.756 19.75C180.756 19.99 180.746 20.22 180.726 20.44C180.726 20.58 180.726 20.72 180.726 20.86C180.746 21 180.756 21.15 180.756 21.31C180.756 21.37 180.766 21.41 180.786 21.43C180.826 21.53 180.856 21.64 180.876 21.76C180.896 21.86 180.916 21.96 180.936 22.06C180.956 22.14 180.966 22.21 180.966 22.27C180.966 22.35 180.946 22.43 180.906 22.51C180.846 22.65 180.846 22.8 180.906 22.96C180.906 22.98 180.876 23.01 180.816 23.05C180.776 23.05 180.736 23.06 180.696 23.08C180.676 23.08 180.646 23.1 180.606 23.14C180.606 23.18 180.596 23.21 180.576 23.23C180.556 23.33 180.476 23.45 180.336 23.59C180.256 23.69 180.146 23.77 180.006 23.83C179.886 23.89 179.766 23.94 179.646 23.98Z" fill="#353535"/>
</svg>
