<svg width="132" height="23" viewBox="0 0 132 23" fill="none" xmlns="http://www.w3.org/2000/svg">
<path d="M4.11465 22.425C4.03132 22.4583 3.96465 22.45 3.91465 22.4C3.73132 22.3167 3.61465 22.175 3.56465 21.975V21.925C3.54798 21.775 3.53132 21.625 3.51465 21.475C3.49798 21.325 3.48132 21.1833 3.46465 21.05C3.46465 21.0167 3.45632 20.975 3.43965 20.925C3.43965 20.8917 3.43965 20.8583 3.43965 20.825C3.42298 20.775 3.41465 20.725 3.41465 20.675C3.41465 20.625 3.41465 20.575 3.41465 20.525C3.41465 20.3917 3.39798 20.275 3.36465 20.175C3.33132 20.075 3.29798 19.975 3.26465 19.875C3.23132 19.8083 3.19798 19.7667 3.16465 19.75C3.09798 19.6667 3.04798 19.575 3.01465 19.475C2.98132 19.3917 2.93965 19.3 2.88965 19.2V19.175C2.80632 18.9417 2.75632 18.7917 2.73965 18.725C2.72298 18.6417 2.71465 18.4833 2.71465 18.25V17.925C2.71465 17.7583 2.76465 17.625 2.86465 17.525C2.88132 17.4917 2.89798 17.4583 2.91465 17.425C2.94798 17.3917 2.97298 17.3583 2.98965 17.325C3.02298 17.225 3.02298 17.15 2.98965 17.1C2.92298 16.9667 2.87298 16.8333 2.83965 16.7C2.80632 16.55 2.77298 16.4 2.73965 16.25V15.975C2.75632 15.875 2.76465 15.7833 2.76465 15.7C2.78132 15.6 2.79798 15.5 2.81465 15.4C2.84798 15.25 2.84798 15.0833 2.81465 14.9C2.78132 14.8 2.76465 14.725 2.76465 14.675C2.74798 14.625 2.73132 14.575 2.71465 14.525C2.71465 14.475 2.71465 14.425 2.71465 14.375C2.71465 14.175 2.68965 13.9917 2.63965 13.825C2.60632 13.725 2.58965 13.6417 2.58965 13.575C2.58965 13.3083 2.57298 13.05 2.53965 12.8C2.50632 12.5333 2.47298 12.2667 2.43965 12C2.43965 11.9667 2.43132 11.95 2.41465 11.95C2.41465 11.9333 2.41465 11.9167 2.41465 11.9C2.41465 11.7667 2.39798 11.6333 2.36465 11.5C2.33132 11.35 2.29798 11.2167 2.26465 11.1C2.24798 11.0667 2.23965 11.025 2.23965 10.975C2.23965 10.925 2.23132 10.8833 2.21465 10.85C2.19798 10.7333 2.18132 10.625 2.16465 10.525C2.16465 10.425 2.14798 10.3167 2.11465 10.2V10.1C2.09798 9.91667 2.06465 9.74167 2.01465 9.575C1.98132 9.40833 1.94798 9.24167 1.91465 9.075C1.91465 9.00833 1.90632 8.94167 1.88965 8.875C1.88965 8.80833 1.88132 8.74167 1.86465 8.675L1.78965 8.4C1.77298 8.33333 1.75632 8.26667 1.73965 8.2C1.73965 8.11667 1.73132 8.04167 1.71465 7.975C1.69798 7.85833 1.68965 7.75 1.68965 7.65C1.68965 7.53333 1.68132 7.41667 1.66465 7.3C1.64798 7.18333 1.63132 7.075 1.61465 6.975C1.61465 6.875 1.59798 6.775 1.56465 6.675C1.54798 6.54167 1.53132 6.40833 1.51465 6.275C1.51465 6.125 1.49798 5.98333 1.46465 5.85C1.41465 5.58333 1.31465 5.34167 1.16465 5.125C0.847982 4.65833 0.714648 4.13333 0.764649 3.55C0.797982 3.36667 0.872982 3.2 0.989648 3.05C1.00632 3.01667 1.04798 2.96667 1.11465 2.9C1.23132 2.75 1.36465 2.64167 1.51465 2.575C1.68132 2.49167 1.85632 2.44167 2.03965 2.425C2.32298 2.375 2.58132 2.3 2.81465 2.2C3.26465 2.06667 3.71465 1.96667 4.16465 1.9C4.46465 1.85 4.76465 1.825 5.06465 1.825H5.31465C5.44798 1.79167 5.58132 1.775 5.71465 1.775C5.86465 1.775 6.00632 1.775 6.13965 1.775H6.36465C6.46465 1.775 6.54798 1.74167 6.61465 1.675L6.91465 1.5C6.96465 1.46667 7.01465 1.46667 7.06465 1.5C7.11465 1.53333 7.16465 1.55833 7.21465 1.575C7.28132 1.59167 7.33965 1.61667 7.38965 1.65C7.47298 1.68333 7.54798 1.71667 7.61465 1.75C7.68132 1.78333 7.74798 1.81667 7.81465 1.85C7.84798 1.88333 7.88965 1.90833 7.93965 1.925C7.98965 1.94167 8.03965 1.95833 8.08965 1.975L8.56465 2.075C8.69798 2.09167 8.81465 2.125 8.91465 2.175C9.03132 2.20833 9.14798 2.25 9.26465 2.3C9.39798 2.35 9.51465 2.425 9.61465 2.525C9.71465 2.60833 9.81465 2.70833 9.91465 2.825C10.148 3.04167 10.298 3.31667 10.3646 3.65C10.3813 3.78333 10.423 3.94167 10.4896 4.125C10.523 4.24167 10.5396 4.35833 10.5396 4.475C10.5396 4.59167 10.548 4.71667 10.5646 4.85C10.5646 4.85 10.5646 4.89167 10.5646 4.975C10.548 5.15833 10.523 5.35 10.4896 5.55C10.4563 5.73333 10.4146 5.91667 10.3646 6.1C10.3146 6.26667 10.2563 6.44167 10.1896 6.625C10.1396 6.80833 10.073 6.98333 9.98965 7.15C9.88965 7.4 9.74798 7.64167 9.56465 7.875C9.44798 8.025 9.33132 8.18333 9.21465 8.35C9.11465 8.5 8.99798 8.65 8.86465 8.8C8.79798 8.86667 8.73132 8.94167 8.66465 9.025C8.59798 9.09167 8.53132 9.15833 8.46465 9.225L8.16465 9.525V9.575C8.16465 9.60833 8.18132 9.625 8.21465 9.625H8.58965C8.82298 9.64167 9.05632 9.675 9.28965 9.725C9.52298 9.75833 9.74798 9.80833 9.96465 9.875C10.0146 9.89167 10.0563 9.90833 10.0896 9.925C10.1396 9.94167 10.1896 9.96667 10.2396 10L10.5396 10.175C10.6396 10.2417 10.7313 10.3083 10.8146 10.375C10.898 10.4417 10.9563 10.5417 10.9896 10.675C11.023 10.7583 11.0646 10.8417 11.1146 10.925C11.198 11.075 11.273 11.2333 11.3396 11.4C11.4063 11.55 11.473 11.7083 11.5396 11.875C11.573 11.9417 11.598 12.0083 11.6146 12.075C11.648 12.125 11.673 12.1833 11.6896 12.25C11.773 12.4833 11.8563 12.7167 11.9396 12.95C12.023 13.1833 12.0896 13.425 12.1396 13.675L12.2146 14.3C12.248 14.4 12.248 14.5083 12.2146 14.625C12.198 14.725 12.1813 14.825 12.1646 14.925C12.148 15.0083 12.1313 15.1 12.1146 15.2C12.0646 15.4167 11.9896 15.625 11.8896 15.825C11.8396 15.925 11.773 16.0167 11.6896 16.1C11.473 16.3667 11.248 16.575 11.0146 16.725C10.898 16.7917 10.7813 16.8667 10.6646 16.95C10.5646 17.0333 10.448 17.1167 10.3146 17.2C10.0646 17.35 9.78132 17.5083 9.46465 17.675C9.38132 17.7083 9.28965 17.75 9.18965 17.8C9.10632 17.85 9.02298 17.8917 8.93965 17.925C8.67298 18.0417 8.41465 18.1583 8.16465 18.275C7.91465 18.3917 7.66465 18.5 7.41465 18.6C7.14798 18.7 6.88965 18.8 6.63965 18.9C6.38965 19 6.12298 19.0917 5.83965 19.175C5.77298 19.1917 5.70632 19.2083 5.63965 19.225C5.58965 19.2417 5.53132 19.2583 5.46465 19.275C5.16465 19.325 4.92298 19.4833 4.73965 19.75C4.67298 19.8167 4.63965 19.9 4.63965 20C4.62298 20.0667 4.60632 20.125 4.58965 20.175C4.58965 20.2417 4.58965 20.3083 4.58965 20.375C4.57298 20.425 4.56465 20.4917 4.56465 20.575V21.45C4.56465 21.5333 4.56465 21.6167 4.56465 21.7C4.56465 21.8 4.54798 21.8917 4.51465 21.975C4.48132 22.1583 4.34798 22.3083 4.11465 22.425ZM4.68965 9.3C4.70632 9.31667 4.71465 9.325 4.71465 9.325C4.71465 9.30833 4.72298 9.3 4.73965 9.3C4.75632 9.28333 4.76465 9.275 4.76465 9.275C4.78132 9.275 4.78965 9.275 4.78965 9.275C4.87298 9.29167 4.95632 9.275 5.03965 9.225C5.12298 9.15833 5.20632 9.1 5.28965 9.05C5.38965 8.98333 5.48965 8.91667 5.58965 8.85C5.73965 8.75 5.88132 8.64167 6.01465 8.525C6.16465 8.39167 6.30632 8.25833 6.43965 8.125C6.63965 7.90833 6.83132 7.69167 7.01465 7.475C7.19798 7.24167 7.36465 7 7.51465 6.75C7.59798 6.6 7.68132 6.45833 7.76465 6.325C7.84798 6.175 7.92298 6.01667 7.98965 5.85C8.07298 5.63333 8.13132 5.38333 8.16465 5.1C8.19798 4.93333 8.18965 4.78333 8.13965 4.65C8.08965 4.51667 8.01465 4.425 7.91465 4.375C7.61465 4.24167 7.33132 4.175 7.06465 4.175C6.89798 4.175 6.73965 4.175 6.58965 4.175C6.43965 4.175 6.28965 4.18333 6.13965 4.2C6.00632 4.21667 5.87298 4.23333 5.73965 4.25C5.60632 4.26667 5.47298 4.29167 5.33965 4.325C5.22298 4.35833 5.09798 4.4 4.96465 4.45C4.84798 4.48333 4.72298 4.51667 4.58965 4.55C4.40632 4.6 4.28965 4.70833 4.23965 4.875C4.20632 4.925 4.18965 5 4.18965 5.1V5.5C4.17298 5.66667 4.17298 5.83333 4.18965 6C4.20632 6.16667 4.22298 6.33333 4.23965 6.5L4.26465 6.525C4.24798 6.64167 4.24798 6.75833 4.26465 6.875C4.29798 6.99167 4.32298 7.11667 4.33965 7.25C4.33965 7.3 4.36465 7.34167 4.41465 7.375C4.48132 7.40833 4.48965 7.475 4.43965 7.575C4.43965 7.575 4.43132 7.58333 4.41465 7.6C4.41465 7.6 4.42298 7.60833 4.43965 7.625C4.47298 7.64167 4.48132 7.675 4.46465 7.725C4.44798 7.75833 4.43965 7.79167 4.43965 7.825C4.43965 7.95833 4.44798 8.05 4.46465 8.1C4.48132 8.13333 4.48965 8.175 4.48965 8.225C4.48965 8.29167 4.49798 8.36667 4.51465 8.45C4.53132 8.51667 4.54798 8.58333 4.56465 8.65C4.56465 8.68333 4.58132 8.69167 4.61465 8.675C4.63132 8.65833 4.65632 8.65 4.68965 8.65C4.70632 8.65 4.71465 8.675 4.71465 8.725V8.8C4.63132 8.91667 4.61465 9.04167 4.66465 9.175V9.275C4.68132 9.275 4.68965 9.28333 4.68965 9.3ZM5.13965 16.925C5.18965 16.925 5.23965 16.925 5.28965 16.925C5.33965 16.925 5.39798 16.9167 5.46465 16.9C5.76465 16.85 6.08132 16.7583 6.41465 16.625L7.38965 16.175C7.65632 16.0417 7.91465 15.9167 8.16465 15.8C8.41465 15.6667 8.67298 15.5417 8.93965 15.425C9.22298 15.275 9.48132 15.075 9.71465 14.825C9.86465 14.675 9.93965 14.4917 9.93965 14.275V14.15C9.92298 14.1167 9.91465 14.0917 9.91465 14.075C9.91465 14.0417 9.90632 14.0083 9.88965 13.975C9.83965 13.7083 9.76465 13.4583 9.66465 13.225C9.58132 12.975 9.48965 12.725 9.38965 12.475C9.37298 12.4083 9.34798 12.35 9.31465 12.3C9.28132 12.2333 9.24798 12.1667 9.21465 12.1C9.16465 12 9.09798 11.9417 9.01465 11.925C8.86465 11.875 8.72298 11.85 8.58965 11.85H8.18965C7.73965 11.8333 7.28132 11.8583 6.81465 11.925C6.34798 11.9917 5.87298 12.0917 5.38965 12.225L5.21465 12.3C5.19798 12.3167 5.18132 12.325 5.16465 12.325C5.16465 12.325 5.15632 12.3333 5.13965 12.35C5.08965 12.4 5.08132 12.45 5.11465 12.5L5.16465 12.55C5.21465 12.6 5.22298 12.65 5.18965 12.7C5.15632 12.75 5.13965 12.8167 5.13965 12.9C5.13965 12.9667 5.13965 13.0333 5.13965 13.1C5.13965 13.15 5.14798 13.2083 5.16465 13.275C5.18132 13.3417 5.18965 13.4083 5.18965 13.475C5.18965 13.5417 5.18965 13.6083 5.18965 13.675V13.975C5.18965 14.1417 5.22298 14.2667 5.28965 14.35C5.32298 14.4167 5.33965 14.4833 5.33965 14.55C5.35632 14.6167 5.36465 14.6833 5.36465 14.75C5.36465 14.8333 5.33965 14.925 5.28965 15.025C5.23965 15.1083 5.23132 15.2083 5.26465 15.325C5.28132 15.3583 5.30632 15.3917 5.33965 15.425C5.37298 15.5417 5.35632 15.6333 5.28965 15.7C5.23965 15.7833 5.22298 15.8583 5.23965 15.925C5.23965 16.025 5.23132 16.1 5.21465 16.15C5.19798 16.1833 5.17298 16.225 5.13965 16.275C5.12298 16.325 5.08965 16.3667 5.03965 16.4C4.95632 16.4667 4.89798 16.5667 4.86465 16.7C4.83132 16.7667 4.81465 16.825 4.81465 16.875C4.81465 16.9083 4.87298 16.9167 4.98965 16.9C5.02298 16.9 5.04798 16.9083 5.06465 16.925C5.09798 16.925 5.12298 16.925 5.13965 16.925ZM19.9813 19.5C19.8146 19.4833 19.6479 19.4583 19.4813 19.425C19.3313 19.4083 19.1813 19.3667 19.0313 19.3L18.4063 19.075C18.1896 18.9917 17.9896 18.9 17.8063 18.8C17.6229 18.6833 17.4396 18.5667 17.2563 18.45C17.1729 18.3667 17.0896 18.2917 17.0063 18.225C16.9229 18.1417 16.8396 18.0667 16.7563 18C16.6229 17.8667 16.4896 17.7333 16.3563 17.6C16.2229 17.45 16.0979 17.2917 15.9813 17.125L15.3813 16.2C15.2313 15.9667 15.0979 15.725 14.9813 15.475C14.8646 15.2083 14.7646 14.9417 14.6813 14.675C14.4979 14.175 14.4063 13.6833 14.4063 13.2V12.8C14.4063 12.3833 14.4313 11.975 14.4812 11.575C14.5146 11.2417 14.5896 10.9417 14.7063 10.675C14.7729 10.5083 14.8313 10.3417 14.8813 10.175C14.9313 10.0083 14.9896 9.85 15.0563 9.7L15.1313 9.525C15.1646 9.30833 15.2396 9.11667 15.3563 8.95C15.4729 8.76667 15.5729 8.59167 15.6563 8.425C15.7229 8.29167 15.7979 8.175 15.8813 8.075C15.9646 7.95833 16.0396 7.84167 16.1063 7.725C16.1396 7.675 16.1813 7.63333 16.2313 7.6C16.2813 7.55 16.3229 7.5 16.3563 7.45C16.3896 7.41667 16.4146 7.375 16.4313 7.325C16.4646 7.25833 16.4896 7.2 16.5063 7.15C16.5396 7.1 16.5979 7.03333 16.6813 6.95C16.7813 6.9 16.8729 6.78333 16.9562 6.6C16.9896 6.53333 17.0229 6.48333 17.0563 6.45C17.1563 6.36667 17.2396 6.26667 17.3063 6.15C17.3896 6.03333 17.4813 5.925 17.5813 5.825C17.6479 5.75833 17.6813 5.66667 17.6813 5.55C17.6813 5.46667 17.6813 5.39167 17.6813 5.325C17.6979 5.24167 17.6979 5.16667 17.6813 5.1C17.6646 5.01667 17.6896 4.94167 17.7563 4.875C17.7896 4.84167 17.8146 4.8 17.8313 4.75C17.8479 4.7 17.8646 4.65 17.8813 4.6C17.9313 4.43333 18.0646 4.29167 18.2813 4.175C18.3146 4.14167 18.3563 4.125 18.4063 4.125C18.4729 4.10833 18.5313 4.09167 18.5813 4.075C18.6979 4.025 18.8313 4.01667 18.9813 4.05C19.0479 4.06667 19.1063 4.075 19.1563 4.075C19.2063 4.05833 19.2563 4.04167 19.3063 4.025C19.3729 3.99167 19.4313 3.96667 19.4813 3.95C19.5479 3.93333 19.6063 3.91667 19.6563 3.9C19.8896 3.81667 20.1313 3.825 20.3813 3.925C20.6479 4.025 20.8396 4.2 20.9563 4.45C20.9896 4.53333 21.0229 4.61667 21.0563 4.7C21.0896 4.78333 21.1146 4.86667 21.1313 4.95C21.1646 5.13333 21.1563 5.29167 21.1063 5.425C21.0729 5.49167 21.0563 5.53333 21.0563 5.55C21.0396 5.61667 21.0563 5.675 21.1063 5.725C21.1396 5.775 21.1813 5.81667 21.2313 5.85C21.4146 6.01667 21.5896 6.18333 21.7563 6.35C21.9229 6.5 22.0813 6.66667 22.2313 6.85C22.3646 6.98333 22.4729 7.125 22.5563 7.275C22.6563 7.40833 22.7479 7.55833 22.8313 7.725C22.8646 7.80833 22.9063 7.9 22.9563 8C23.0063 8.08333 23.0563 8.16667 23.1063 8.25C23.1896 8.4 23.2563 8.55833 23.3063 8.725C23.3729 8.89167 23.4396 9.05833 23.5063 9.225V9.25C23.5396 9.36667 23.5646 9.49167 23.5813 9.625C23.6146 9.74167 23.6646 9.86667 23.7313 10C23.7813 10.1167 23.8229 10.2417 23.8563 10.375C23.8896 10.4917 23.9229 10.6167 23.9563 10.75C23.9896 10.9 24.0229 11.05 24.0563 11.2C24.1063 11.35 24.1396 11.5 24.1563 11.65C24.1729 11.7167 24.1896 11.7833 24.2063 11.85C24.2229 11.9 24.2396 11.9583 24.2563 12.025C24.2896 12.175 24.3229 12.325 24.3563 12.475C24.3896 12.625 24.4146 12.775 24.4313 12.925L24.5063 13.1C24.5396 13.2 24.5729 13.3333 24.6063 13.5C24.6563 13.7167 24.6813 13.9333 24.6813 14.15C24.6979 14.3667 24.6979 14.5917 24.6813 14.825C24.6813 14.9417 24.6729 15.0333 24.6563 15.1C24.5563 15.45 24.4313 15.8083 24.2813 16.175C24.2146 16.2917 24.1479 16.4083 24.0813 16.525C24.0146 16.625 23.9479 16.7333 23.8813 16.85L23.6563 17.2C23.5729 17.35 23.4813 17.4833 23.3813 17.6C23.2146 17.8667 23.0146 18.1 22.7813 18.3C22.5479 18.5 22.2979 18.6917 22.0313 18.875C21.4479 19.325 20.7646 19.5333 19.9813 19.5ZM19.8813 17.025C20.2313 17.025 20.5313 16.925 20.7813 16.725C20.8646 16.6417 20.9479 16.5667 21.0313 16.5C21.1313 16.4167 21.2146 16.3333 21.2813 16.25C21.5979 15.9 21.8479 15.5333 22.0313 15.15L22.1063 14.9C22.1396 14.6 22.1396 14.3 22.1063 14L21.9563 13.175C21.9063 12.9583 21.8646 12.75 21.8313 12.55C21.7979 12.3333 21.7479 12.125 21.6813 11.925C21.6313 11.8083 21.6146 11.7167 21.6313 11.65C21.6479 11.5667 21.6479 11.4833 21.6313 11.4C21.6146 11.3167 21.5896 11.2333 21.5563 11.15C21.5063 10.9333 21.4479 10.7167 21.3813 10.5C21.3146 10.2833 21.2479 10.0667 21.1813 9.85C21.1646 9.8 21.1479 9.75 21.1313 9.7C21.1146 9.65 21.0979 9.6 21.0813 9.55C20.9646 9.31667 20.8396 9.09167 20.7063 8.875C20.5729 8.65833 20.4229 8.45833 20.2562 8.275C20.1729 8.175 20.0813 8.08333 19.9813 8C19.8813 7.9 19.7813 7.80833 19.6813 7.725C19.6646 7.69167 19.6396 7.675 19.6063 7.675C19.5896 7.65833 19.5646 7.64167 19.5313 7.625C19.4813 7.55833 19.4146 7.56667 19.3313 7.65C19.2479 7.73333 19.1563 7.825 19.0563 7.925C18.9729 8.025 18.8896 8.125 18.8063 8.225C18.7229 8.34167 18.6313 8.45833 18.5313 8.575C18.4479 8.69167 18.3646 8.80833 18.2813 8.925C18.1646 9.075 18.0563 9.225 17.9563 9.375C17.8563 9.525 17.7563 9.675 17.6563 9.825C17.3063 10.3917 17.0313 11.0167 16.8313 11.7C16.7979 11.8 16.7812 11.875 16.7812 11.925C16.7646 12.0417 16.7479 12.1583 16.7313 12.275C16.7313 12.3917 16.7313 12.5167 16.7313 12.65V12.85C16.7479 12.9 16.7563 12.95 16.7563 13C16.7563 13.05 16.7646 13.1 16.7812 13.15C16.7812 13.35 16.8313 13.5667 16.9313 13.8C17.0646 14.1333 17.2146 14.4583 17.3813 14.775C17.5479 15.0917 17.7396 15.3917 17.9563 15.675C18.0063 15.7417 18.0563 15.8083 18.1063 15.875C18.1729 15.9417 18.2313 16.0083 18.2813 16.075C18.4313 16.2417 18.5896 16.3917 18.7563 16.525C18.9396 16.6583 19.1229 16.775 19.3063 16.875C19.5063 16.975 19.6979 17.025 19.8813 17.025ZM28.5313 19.25C28.3979 19.2333 28.2646 19.2 28.1313 19.15C27.9979 19.1167 27.8813 19.0583 27.7813 18.975C27.7646 18.9417 27.7396 18.9167 27.7063 18.9C27.6729 18.8667 27.6479 18.8417 27.6313 18.825C27.5646 18.725 27.5063 18.6167 27.4563 18.5C27.4063 18.3833 27.3729 18.2667 27.3563 18.15C27.3396 17.9 27.3646 17.65 27.4313 17.4C27.5146 17.1333 27.5729 16.8667 27.6063 16.6C27.6396 16.3167 27.6563 16.0333 27.6563 15.75C27.6729 15.4167 27.6813 15.0833 27.6813 14.75C27.6813 14.4167 27.6813 14.0917 27.6813 13.775C27.6813 13.6917 27.6729 13.6083 27.6563 13.525C27.6563 13.425 27.6479 13.3333 27.6313 13.25C27.6146 13.1667 27.6063 13.075 27.6063 12.975C27.6063 12.875 27.6063 12.7833 27.6063 12.7C27.6063 12.6167 27.5979 12.5333 27.5813 12.45C27.5813 12.35 27.5729 12.2583 27.5563 12.175C27.5396 12.1083 27.5313 12.0417 27.5313 11.975C27.5479 11.9083 27.5479 11.8417 27.5313 11.775C27.5313 11.6583 27.5313 11.5417 27.5313 11.425C27.5313 11.3083 27.5229 11.1917 27.5063 11.075C27.4896 11.0583 27.4813 11.025 27.4813 10.975V9.625C27.4646 9.54167 27.4563 9.46667 27.4563 9.4C27.4563 9.31667 27.4563 9.23333 27.4563 9.15C27.4729 9.1 27.4813 9.025 27.4813 8.925V8.625C27.4813 8.525 27.4729 8.43333 27.4563 8.35C27.4563 8.25 27.4646 8.15 27.4813 8.05V7.925C27.4646 7.79167 27.4563 7.66667 27.4563 7.55C27.4729 7.41667 27.4896 7.29167 27.5063 7.175C27.5229 7.10833 27.5313 7 27.5313 6.85C27.4979 6.75 27.4813 6.675 27.4813 6.625C27.4646 6.54167 27.4479 6.46667 27.4313 6.4C27.4313 6.31667 27.4396 6.24167 27.4563 6.175C27.4729 6.025 27.4396 5.86667 27.3563 5.7C27.3063 5.63333 27.2646 5.56667 27.2313 5.5C27.2146 5.41667 27.1896 5.34167 27.1563 5.275V5.2C27.1896 5.16667 27.2229 5.16667 27.2563 5.2C27.3063 5.21667 27.3313 5.20833 27.3313 5.175C27.3479 5.14167 27.3563 5.10833 27.3563 5.075C27.3563 5.025 27.3646 4.99167 27.3813 4.975C27.3979 4.925 27.3896 4.85833 27.3563 4.775C27.3396 4.725 27.3646 4.69167 27.4313 4.675C27.4646 4.60833 27.5229 4.56667 27.6063 4.55C27.6896 4.51667 27.7396 4.49167 27.7563 4.475C27.8063 4.40833 27.8646 4.375 27.9313 4.375C27.9979 4.375 28.0646 4.375 28.1313 4.375C28.1813 4.375 28.2563 4.35833 28.3563 4.325C28.4229 4.30833 28.4896 4.30833 28.5563 4.325C28.5896 4.34167 28.6229 4.36667 28.6563 4.4C28.6896 4.41667 28.7229 4.43333 28.7563 4.45C28.9229 4.51667 29.0646 4.65 29.1813 4.85C29.2146 4.93333 29.2479 5.01667 29.2812 5.1C29.3146 5.18333 29.3229 5.275 29.3063 5.375C29.3063 5.425 29.3396 5.45 29.4063 5.45H29.6063C29.6896 5.41667 29.7729 5.4 29.8563 5.4C29.9563 5.4 30.0396 5.4 30.1063 5.4H30.7563C30.9396 5.38333 31.1229 5.39167 31.3063 5.425C31.5063 5.44167 31.6979 5.46667 31.8813 5.5C32.4313 5.56667 32.9563 5.69167 33.4563 5.875C34.0063 6.04167 34.5229 6.31667 35.0063 6.7C35.1896 6.83333 35.3896 7.025 35.6063 7.275C35.6729 7.34167 35.7313 7.41667 35.7813 7.5C35.8479 7.56667 35.9063 7.64167 35.9563 7.725C36.1396 8.00833 36.2313 8.3 36.2313 8.6C36.2646 8.8 36.2646 8.99167 36.2313 9.175C36.2313 9.325 36.1979 9.45833 36.1313 9.575C36.1313 9.575 36.1229 9.58333 36.1063 9.6C36.1063 9.6 36.1063 9.60833 36.1063 9.625C36.0729 9.675 36.0479 9.73333 36.0313 9.8C36.0313 9.86667 36.0063 9.91667 35.9563 9.95L35.7313 10.225C35.6479 10.325 35.5563 10.4333 35.4563 10.55C35.3729 10.65 35.2729 10.7417 35.1563 10.825L34.9063 11C34.8563 11.0167 34.8063 11.0417 34.7563 11.075C34.7063 11.1083 34.6646 11.15 34.6313 11.2C34.5813 11.25 34.5229 11.2917 34.4563 11.325C34.3896 11.375 34.3146 11.425 34.2313 11.475C34.1646 11.5083 34.0896 11.5417 34.0063 11.575C33.9229 11.6083 33.9229 11.65 34.0063 11.7L34.1813 11.775C34.2646 11.825 34.3563 11.875 34.4563 11.925C34.5563 11.9583 34.6479 12 34.7313 12.05C34.8646 12.1167 34.9979 12.2 35.1313 12.3C35.2813 12.3833 35.4146 12.4667 35.5313 12.55L35.8313 12.825C35.9146 12.9083 35.9896 13 36.0563 13.1C36.1396 13.1833 36.2146 13.275 36.2813 13.375C36.4146 13.5417 36.5229 13.725 36.6063 13.925C36.7063 14.125 36.7729 14.3333 36.8063 14.55C36.8396 14.6667 36.8563 14.7917 36.8563 14.925C36.8563 15.0417 36.8396 15.1667 36.8063 15.3C36.7729 15.4333 36.7813 15.5583 36.8313 15.675C36.8479 15.725 36.8396 15.8083 36.8063 15.925L36.7313 16.25C36.6979 16.35 36.6563 16.4417 36.6063 16.525C36.5729 16.6083 36.5146 16.6917 36.4313 16.775L36.1313 17.175C36.0313 17.2917 35.9229 17.4083 35.8063 17.525C35.7063 17.6417 35.5896 17.7417 35.4563 17.825L35.2313 17.975C35.1979 17.975 35.1479 17.9917 35.0813 18.025C34.3479 18.4083 33.5896 18.6083 32.8063 18.625C32.7229 18.625 32.6563 18.6333 32.6063 18.65C32.4563 18.6667 32.2979 18.6833 32.1313 18.7C31.9813 18.7 31.8229 18.7 31.6563 18.7C31.5229 18.7 31.3813 18.7167 31.2313 18.75C31.0979 18.7667 30.9646 18.775 30.8313 18.775C30.7646 18.7917 30.6979 18.8083 30.6313 18.825C30.5646 18.825 30.4979 18.825 30.4313 18.825C30.3479 18.8417 30.2563 18.8583 30.1563 18.875C30.0729 18.8917 29.9896 18.9167 29.9063 18.95C29.8563 18.9667 29.8063 18.9833 29.7563 19C29.7229 19.0167 29.6813 19.0417 29.6313 19.075C29.4646 19.1917 29.2729 19.25 29.0563 19.25H28.5313ZM29.6313 10.925C29.6979 10.925 29.7563 10.9167 29.8063 10.9C29.8729 10.8833 29.9313 10.8667 29.9813 10.85C30.1979 10.7667 30.4063 10.6917 30.6063 10.625C30.8063 10.5417 31.0146 10.4667 31.2313 10.4C31.4813 10.3167 31.7313 10.225 31.9813 10.125C32.2313 10.0083 32.4813 9.9 32.7313 9.8C32.9313 9.71667 33.1229 9.60833 33.3063 9.475C33.5063 9.34167 33.6896 9.20833 33.8563 9.075C33.8896 9.05833 33.9146 9.04167 33.9313 9.025C33.9479 8.99167 33.9646 8.96667 33.9813 8.95C34.0146 8.9 34.0146 8.85 33.9813 8.8L33.9063 8.675C33.8396 8.625 33.7813 8.575 33.7313 8.525C33.6813 8.475 33.6146 8.425 33.5313 8.375C33.4646 8.34167 33.3979 8.3 33.3313 8.25C33.2646 8.2 33.1896 8.15833 33.1063 8.125L32.8813 7.975C32.6313 7.875 32.3813 7.79167 32.1313 7.725C31.8813 7.65833 31.6229 7.625 31.3563 7.625H30.5063C30.3729 7.625 30.2396 7.63333 30.1063 7.65C29.9729 7.66667 29.8396 7.69167 29.7063 7.725C29.6563 7.725 29.5813 7.74167 29.4813 7.775C29.3813 7.79167 29.3313 7.85 29.3313 7.95V8.525C29.3646 8.69167 29.3646 8.86667 29.3313 9.05V9.275C29.3646 9.375 29.3813 9.48333 29.3813 9.6C29.3813 9.7 29.3813 9.80833 29.3813 9.925C29.3979 10.225 29.4479 10.5417 29.5313 10.875C29.5313 10.9083 29.5646 10.925 29.6313 10.925ZM29.8312 16.7H29.9313C30.0479 16.6833 30.1646 16.675 30.2813 16.675C30.3979 16.6583 30.5146 16.6417 30.6313 16.625C30.8313 16.5917 31.0313 16.5583 31.2313 16.525C31.4479 16.4917 31.6563 16.4667 31.8563 16.45C32.2396 16.4167 32.6146 16.3667 32.9813 16.3C33.1313 16.2667 33.2729 16.2333 33.4063 16.2C33.5563 16.1667 33.6979 16.1333 33.8313 16.1C33.9146 16.0667 33.9896 16.0333 34.0563 16C34.1396 15.95 34.2146 15.9083 34.2813 15.875C34.5146 15.7083 34.6479 15.4583 34.6813 15.125C34.6979 14.8083 34.5813 14.55 34.3313 14.35C34.2979 14.3167 34.2313 14.2667 34.1313 14.2C33.8646 14.0167 33.5813 13.8667 33.2813 13.75C32.9813 13.6333 32.6729 13.5417 32.3563 13.475C32.2063 13.4417 32.0563 13.4167 31.9063 13.4C31.7729 13.3667 31.6313 13.3583 31.4813 13.375C31.4146 13.375 31.3396 13.3833 31.2563 13.4C31.1896 13.4 31.1229 13.4 31.0563 13.4C30.9896 13.4 30.9229 13.4083 30.8563 13.425C30.7896 13.425 30.7146 13.425 30.6313 13.425C30.5479 13.425 30.4563 13.425 30.3563 13.425C30.2729 13.425 30.1896 13.4333 30.1063 13.45H29.8813C29.7979 13.4833 29.7563 13.5333 29.7563 13.6C29.7729 13.7333 29.7813 13.875 29.7813 14.025C29.7813 14.175 29.7813 14.3167 29.7813 14.45C29.7813 14.4833 29.7813 14.5167 29.7813 14.55C29.7979 14.5833 29.8063 14.6167 29.8063 14.65V15.175C29.7896 15.275 29.7813 15.375 29.7813 15.475C29.7813 15.575 29.7813 15.6667 29.7813 15.75C29.7813 15.8667 29.7813 15.9833 29.7813 16.1C29.7979 16.2 29.7896 16.3083 29.7563 16.425C29.7396 16.4583 29.7313 16.5167 29.7313 16.6C29.7313 16.6333 29.7646 16.6667 29.8312 16.7ZM50.3104 21C50.127 20.9667 50.002 20.8833 49.9354 20.75C49.8854 20.65 49.8437 20.5417 49.8104 20.425C49.7937 20.325 49.777 20.225 49.7604 20.125C49.7437 19.9917 49.727 19.85 49.7104 19.7C49.6937 19.5667 49.677 19.4333 49.6604 19.3C49.6437 19.1333 49.6187 18.975 49.5854 18.825C49.552 18.675 49.502 18.5167 49.4354 18.35C49.4187 18.3 49.402 18.2583 49.3854 18.225C49.3687 18.175 49.3437 18.125 49.3104 18.075L49.0104 17.45C48.927 17.2833 48.8854 17.1167 48.8854 16.95C48.8687 16.7333 48.8604 16.525 48.8604 16.325C48.8604 16.125 48.8687 15.925 48.8854 15.725C48.8854 15.6583 48.902 15.575 48.9354 15.475C48.9687 15.3083 49.002 15.15 49.0354 15C49.0854 14.8333 49.1187 14.675 49.1354 14.525C49.1687 14.325 49.202 14.1333 49.2354 13.95C49.2687 13.75 49.2937 13.5583 49.3104 13.375C49.3437 13.1917 49.3687 13.0083 49.3854 12.825C49.402 12.6417 49.4187 12.4583 49.4354 12.275C49.452 12.1417 49.4687 12.0167 49.4854 11.9C49.502 11.7667 49.5187 11.6417 49.5354 11.525C49.552 11.475 49.5604 11.4 49.5604 11.3C49.5604 11.2167 49.5687 11.1333 49.5854 11.05C49.602 10.95 49.6187 10.8583 49.6354 10.775C49.6687 10.6417 49.6854 10.5083 49.6854 10.375C49.702 10.225 49.7187 10.0833 49.7354 9.95C49.752 9.9 49.7604 9.83333 49.7604 9.75C49.8104 9.56667 49.8437 9.375 49.8604 9.175C49.8937 8.975 49.9187 8.775 49.9354 8.575L50.0104 8.15C50.0437 7.96667 50.0687 7.78333 50.0854 7.6C50.102 7.4 50.1187 7.20833 50.1354 7.025C50.1687 6.84167 50.1854 6.65833 50.1854 6.475C50.1854 6.275 50.1854 6.08333 50.1854 5.9C50.1854 5.8 50.1854 5.70833 50.1854 5.625C50.202 5.525 50.2187 5.425 50.2354 5.325C50.2687 4.89167 50.2354 4.475 50.1354 4.075C50.1187 4.05833 50.1104 4.04167 50.1104 4.025C50.0437 3.80833 50.0354 3.60833 50.0854 3.425C50.1354 3.24167 50.2187 3.06667 50.3354 2.9C50.5354 2.56667 50.8187 2.36667 51.1854 2.3C51.252 2.28333 51.3104 2.275 51.3604 2.275C51.4104 2.25833 51.4687 2.25833 51.5354 2.275C51.602 2.30833 51.6604 2.325 51.7104 2.325C51.8604 2.34167 52.002 2.40833 52.1354 2.525L52.3604 2.825C52.477 3.025 52.5854 3.175 52.6854 3.275C52.952 3.60833 53.1854 3.96667 53.3854 4.35C53.502 4.56667 53.602 4.78333 53.6854 5C53.7854 5.2 53.8854 5.4 53.9854 5.6C54.0354 5.71667 54.077 5.825 54.1104 5.925C54.1604 6.025 54.2104 6.125 54.2604 6.225C54.2937 6.275 54.3437 6.33333 54.4104 6.4C54.477 6.5 54.5104 6.575 54.5104 6.625C54.5437 6.69167 54.5354 6.75 54.4854 6.8C54.4687 6.81667 54.4687 6.84167 54.4854 6.875C54.502 6.90833 54.5187 6.94167 54.5354 6.975C54.552 6.99167 54.5854 7.09167 54.6354 7.275C54.6854 7.44167 54.702 7.5 54.6854 7.45C54.7187 7.53333 54.7687 7.575 54.8354 7.575C54.8854 7.59167 54.9187 7.625 54.9354 7.675C54.952 7.70833 54.927 7.75 54.8604 7.8C54.8104 7.81667 54.8104 7.88333 54.8604 8C54.9104 8.1 54.9437 8.16667 54.9604 8.2C55.027 8.36667 55.0854 8.53333 55.1354 8.7C55.1854 8.85 55.2437 9.00833 55.3104 9.175C55.3937 9.39167 55.4687 9.61667 55.5354 9.85C55.602 10.0833 55.6687 10.3167 55.7354 10.55C55.7854 10.7167 55.8354 10.8833 55.8854 11.05C55.952 11.2 56.0104 11.35 56.0604 11.5C56.0604 11.5333 56.077 11.55 56.1104 11.55L56.1604 11.5C56.1604 11.4667 56.177 11.4167 56.2104 11.35C56.2437 11.1667 56.2854 10.9833 56.3354 10.8C56.3854 10.6 56.4354 10.4083 56.4854 10.225C56.5687 9.975 56.6354 9.725 56.6854 9.475C56.752 9.225 56.8187 8.975 56.8854 8.725C56.9187 8.575 56.9604 8.425 57.0104 8.275C57.0604 8.10833 57.0937 7.95 57.1104 7.8C57.177 7.51667 57.2437 7.24167 57.3104 6.975C57.377 6.70833 57.4354 6.44167 57.4854 6.175C57.502 6.14167 57.5104 6.10833 57.5104 6.075C57.527 6.04167 57.5354 6.00833 57.5354 5.975C57.552 5.80833 57.602 5.65 57.6854 5.5C57.852 5.15 58.127 4.925 58.5104 4.825C58.6937 4.775 58.877 4.775 59.0604 4.825C59.2104 4.85833 59.3187 4.91667 59.3854 5C59.502 5.11667 59.6104 5.23333 59.7104 5.35C59.827 5.46667 59.927 5.59167 60.0104 5.725C60.077 5.825 60.1437 5.925 60.2104 6.025C60.277 6.10833 60.3437 6.2 60.4104 6.3C60.4604 6.36667 60.5104 6.44167 60.5604 6.525C60.6104 6.59167 60.652 6.66667 60.6854 6.75C60.8187 6.98333 60.9437 7.225 61.0604 7.475C61.177 7.725 61.277 7.98333 61.3604 8.25C61.3604 8.28333 61.3687 8.30833 61.3854 8.325C61.4687 8.49167 61.5354 8.66667 61.5854 8.85C61.6354 9.01667 61.6854 9.19167 61.7354 9.375C61.802 9.55833 61.852 9.74167 61.8854 9.925C61.9354 10.1083 61.9854 10.2917 62.0354 10.475C62.0354 10.5417 62.0437 10.5917 62.0604 10.625C62.1104 10.7583 62.152 10.9 62.1854 11.05C62.2187 11.2 62.252 11.3417 62.2854 11.475C62.3187 11.675 62.352 11.875 62.3854 12.075C62.4187 12.275 62.452 12.4667 62.4854 12.65C62.5187 12.9 62.552 13.15 62.5854 13.4C62.6187 13.65 62.6604 13.9 62.7104 14.15C62.7437 14.3167 62.7687 14.4917 62.7854 14.675C62.8187 14.8583 62.8437 15.0417 62.8604 15.225C62.8604 15.275 62.877 15.35 62.9104 15.45L62.9854 16.05C62.9854 16.1333 62.9937 16.1917 63.0104 16.225C63.0937 16.5417 63.1437 16.8667 63.1604 17.2C63.177 17.2167 63.1854 17.2417 63.1854 17.275C63.1854 17.2917 63.1937 17.3167 63.2104 17.35L63.3854 18.35C63.4187 18.4667 63.4187 18.5917 63.3854 18.725L63.3354 18.925C63.3354 19.0583 63.3104 19.1833 63.2604 19.3C63.2104 19.4167 63.152 19.5333 63.0854 19.65C63.0354 19.7167 62.977 19.7833 62.9104 19.85C62.8437 19.9333 62.7687 20 62.6854 20.05C62.502 20.1833 62.3187 20.1917 62.1354 20.075C61.752 19.825 61.4687 19.5167 61.2854 19.15C61.2687 19.0833 61.2437 19.025 61.2104 18.975C61.1937 18.9083 61.1854 18.8417 61.1854 18.775L61.1104 18.3C61.0937 18.2167 61.077 18.1333 61.0604 18.05C61.0604 17.95 61.052 17.8583 61.0354 17.775L60.7854 16.325C60.7687 16.2083 60.752 16.1 60.7354 16C60.7187 15.9 60.702 15.7917 60.6854 15.675L60.5854 15.125C60.552 14.9417 60.5187 14.7583 60.4854 14.575C60.452 14.375 60.4187 14.1833 60.3854 14L60.1354 12.4C60.1187 12.1667 60.077 11.9417 60.0104 11.725C59.9604 11.4917 59.9104 11.2667 59.8604 11.05C59.7937 10.7833 59.7187 10.5333 59.6354 10.3C59.552 10.05 59.4604 9.80833 59.3604 9.575L59.2854 9.35C59.2687 9.3 59.2437 9.25 59.2104 9.2C59.177 9.15 59.1437 9.10833 59.1104 9.075C59.0604 9.075 59.0354 9.08333 59.0354 9.1L58.9604 9.35C58.8937 9.56667 58.8354 9.8 58.7854 10.05C58.7354 10.2833 58.677 10.5167 58.6104 10.75C58.577 10.8833 58.5437 11.0167 58.5104 11.15C58.477 11.2833 58.4437 11.4167 58.4104 11.55C58.377 11.6667 58.3437 11.7917 58.3104 11.925C58.2937 12.0417 58.2687 12.1667 58.2354 12.3C58.202 12.5 58.1604 12.7 58.1104 12.9C58.0604 13.1 58.0187 13.3 57.9854 13.5C57.9687 13.65 57.9437 13.8 57.9104 13.95C57.8937 14.1 57.877 14.25 57.8604 14.4V14.55C57.8937 14.6833 57.8604 14.8 57.7604 14.9C57.7437 14.95 57.7187 15 57.6854 15.05C57.6687 15.0833 57.652 15.125 57.6354 15.175C57.602 15.325 57.5604 15.4333 57.5104 15.5L57.4354 15.675C57.4187 15.6917 57.402 15.725 57.3854 15.775C57.3854 15.8083 57.3687 15.8417 57.3354 15.875C57.2187 16.075 57.0687 16.2083 56.8854 16.275C56.8187 16.3083 56.752 16.3417 56.6854 16.375C56.6354 16.4083 56.577 16.4417 56.5104 16.475C56.3437 16.5583 56.1687 16.55 55.9854 16.45C55.7354 16.2833 55.5437 16.1 55.4104 15.9L54.9604 15.25C54.9604 15.2333 54.952 15.225 54.9354 15.225C54.9354 15.2083 54.9354 15.2 54.9354 15.2C54.8687 15.0167 54.7937 14.85 54.7104 14.7C54.627 14.55 54.5604 14.3917 54.5104 14.225L54.2104 13.35C54.127 13.1333 54.052 12.9167 53.9854 12.7C53.9187 12.4833 53.8437 12.2667 53.7604 12.05L53.6854 11.85C53.652 11.7 53.6104 11.55 53.5604 11.4C53.527 11.25 53.4854 11.1083 53.4354 10.975C53.402 10.825 53.3604 10.6833 53.3104 10.55C53.2604 10.4 53.2187 10.2583 53.1854 10.125C53.1187 9.94167 53.052 9.75833 52.9854 9.575C52.9354 9.375 52.8687 9.18333 52.7854 9C52.752 8.88333 52.702 8.79167 52.6354 8.725C52.502 8.59167 52.4104 8.43333 52.3604 8.25C52.3604 8.21667 52.3437 8.2 52.3104 8.2L52.2604 8.25V8.275C52.2437 8.29167 52.2354 8.31667 52.2354 8.35C52.2187 8.51667 52.202 8.69167 52.1854 8.875C52.1687 9.05833 52.1437 9.24167 52.1104 9.425L52.0354 10.25C52.0187 10.3833 52.002 10.5167 51.9854 10.65C51.9854 10.7833 51.977 10.9167 51.9604 11.05C51.9437 11.1167 51.927 11.1833 51.9104 11.25C51.9104 11.3167 51.9104 11.3917 51.9104 11.475C51.8937 11.8917 51.8437 12.3333 51.7604 12.8C51.7437 12.9167 51.727 13.05 51.7104 13.2C51.6937 13.3333 51.677 13.4667 51.6604 13.6L51.5854 14.15C51.5354 14.45 51.5104 14.7417 51.5104 15.025C51.5104 15.1417 51.5104 15.2583 51.5104 15.375C51.527 15.4917 51.5187 15.6083 51.4854 15.725C51.4687 15.875 51.4854 16.05 51.5354 16.25C51.602 16.3667 51.627 16.4833 51.6104 16.6C51.6104 16.7167 51.5937 16.8417 51.5604 16.975C51.5437 17.075 51.5104 17.175 51.4604 17.275C51.427 17.375 51.3687 17.4667 51.2854 17.55C51.252 17.6 51.2104 17.6583 51.1604 17.725C51.127 17.7917 51.0854 17.85 51.0354 17.9C50.902 18.0667 50.8354 18.25 50.8354 18.45V19C50.8354 19.1333 50.827 19.2583 50.8104 19.375C50.8104 19.5083 50.8187 19.6417 50.8354 19.775C50.8354 19.7917 50.827 19.8083 50.8104 19.825C50.8104 19.8417 50.8104 19.8667 50.8104 19.9C50.7937 19.95 50.7854 20 50.7854 20.05C50.7854 20.1 50.7854 20.15 50.7854 20.2C50.802 20.35 50.7854 20.5083 50.7354 20.675C50.652 20.825 50.5437 20.925 50.4104 20.975C50.377 20.9917 50.3437 21 50.3104 21ZM75.8316 20.825C75.6816 20.825 75.5483 20.7667 75.4316 20.65C75.3983 20.6 75.365 20.55 75.3316 20.5C75.2983 20.45 75.265 20.4 75.2316 20.35C75.0816 20 75.0066 19.6333 75.0066 19.25L74.9316 18.65C74.8816 18.4167 74.84 18.1833 74.8066 17.95C74.7733 17.7167 74.715 17.4917 74.6316 17.275L74.4816 16.85C74.4816 16.8167 74.4733 16.7833 74.4566 16.75C74.4566 16.7167 74.4483 16.6833 74.4316 16.65L74.0566 15.325C74.04 15.2917 74.0233 15.25 74.0066 15.2C74.0066 15.15 73.99 15.1083 73.9566 15.075C73.9066 14.975 73.865 14.875 73.8316 14.775C73.815 14.6583 73.79 14.5417 73.7566 14.425C73.74 14.3417 73.7233 14.2667 73.7066 14.2C73.69 14.1167 73.665 14.0333 73.6316 13.95C73.5983 13.85 73.565 13.7917 73.5316 13.775C73.4983 13.7417 73.4233 13.7417 73.3066 13.775C73.2233 13.7917 73.1316 13.8083 73.0316 13.825C72.9483 13.825 72.865 13.8417 72.7816 13.875C72.715 13.8917 72.6316 13.9083 72.5316 13.925C72.4483 13.925 72.365 13.9333 72.2816 13.95L71.9316 14.025C71.8483 14.0417 71.7566 14.0667 71.6566 14.1C71.5733 14.1167 71.49 14.125 71.4066 14.125L70.9566 14.2C70.8233 14.2333 70.6816 14.2667 70.5316 14.3C70.3816 14.3333 70.24 14.3667 70.1066 14.4C69.7066 14.5 69.3066 14.575 68.9066 14.625C68.7733 14.6583 68.6983 14.7167 68.6816 14.8C68.665 14.8 68.6566 14.8083 68.6566 14.825C68.5566 15.0917 68.44 15.3583 68.3066 15.625C68.19 15.875 68.065 16.1333 67.9316 16.4C67.8983 16.4667 67.865 16.5333 67.8316 16.6C67.815 16.65 67.79 16.7083 67.7566 16.775C67.74 16.8083 67.7233 16.85 67.7066 16.9C67.69 16.9333 67.6733 16.9667 67.6566 17C67.5566 17.1167 67.5066 17.2583 67.5066 17.425C67.49 17.525 67.4566 17.625 67.4066 17.725C67.3566 17.8083 67.3066 17.8917 67.2566 17.975C67.24 18.025 67.2066 18.05 67.1566 18.05C67.09 18.0667 67.0233 18.0917 66.9566 18.125C66.89 18.1583 66.815 18.1917 66.7316 18.225C66.6816 18.2417 66.6316 18.2417 66.5816 18.225C66.5483 18.2083 66.5066 18.1917 66.4566 18.175C66.4233 18.1417 66.39 18.125 66.3566 18.125C66.1733 18.1083 66.04 18 65.9566 17.8C65.8233 17.5333 65.7316 17.2667 65.6816 17C65.665 16.9333 65.665 16.875 65.6816 16.825C65.715 16.775 65.74 16.725 65.7566 16.675C65.8566 16.6083 65.915 16.5333 65.9316 16.45V16.425C65.9316 16.2083 65.9733 16.0083 66.0566 15.825C66.1566 15.625 66.24 15.4333 66.3066 15.25C66.34 15.15 66.3816 15.05 66.4316 14.95C66.4816 14.85 66.5316 14.75 66.5816 14.65C66.6483 14.5333 66.6983 14.425 66.7316 14.325C66.7816 14.2083 66.8233 14.0917 66.8566 13.975C66.9066 13.8417 66.9066 13.7167 66.8566 13.6C66.8233 13.5 66.8066 13.4083 66.8066 13.325C66.8066 13.225 66.815 13.125 66.8316 13.025C66.8316 12.8417 66.8983 12.6833 67.0316 12.55C67.0983 12.4667 67.165 12.4 67.2316 12.35C67.315 12.2833 67.39 12.2167 67.4566 12.15C67.6066 12 67.7233 11.8 67.8066 11.55C67.8733 11.3333 67.9233 11.1167 67.9566 10.9C68.0066 10.6667 68.0566 10.4417 68.1066 10.225C68.14 10.0083 68.1733 9.8 68.2066 9.6C68.2566 9.38333 68.3066 9.175 68.3566 8.975C68.3733 8.89167 68.39 8.81667 68.4066 8.75C68.44 8.66667 68.465 8.59167 68.4816 8.525C68.5316 8.39167 68.5816 8.26667 68.6316 8.15C68.6816 8.01667 68.715 7.88333 68.7316 7.75C68.765 7.68333 68.765 7.625 68.7316 7.575C68.715 7.49167 68.715 7.41667 68.7316 7.35C68.765 7.28333 68.79 7.21667 68.8066 7.15C68.8566 7.03333 68.89 6.91667 68.9066 6.8C68.94 6.68333 68.9816 6.56667 69.0316 6.45C69.115 6.23333 69.1816 6.05833 69.2316 5.925C69.2983 5.775 69.3566 5.60833 69.4066 5.425C69.44 5.325 69.4733 5.23333 69.5066 5.15C69.5566 5.05 69.59 4.95 69.6066 4.85C69.6566 4.7 69.6983 4.55 69.7316 4.4C69.765 4.23333 69.7816 4.075 69.7816 3.925C69.815 3.79167 69.8483 3.7 69.8816 3.65C69.965 3.48333 70.065 3.34167 70.1816 3.225C70.315 3.10833 70.44 2.99167 70.5566 2.875C70.64 2.825 70.7233 2.79167 70.8066 2.775C70.89 2.74167 70.9733 2.75 71.0566 2.8C71.1233 2.83333 71.165 2.85 71.1816 2.85C71.3316 2.83333 71.4566 2.86667 71.5566 2.95C71.6566 3.03333 71.74 3.13333 71.8066 3.25C71.84 3.28333 71.865 3.325 71.8816 3.375C71.8983 3.425 71.915 3.46667 71.9316 3.5C72.015 3.63333 72.0566 3.76667 72.0566 3.9C72.0566 3.96667 72.065 4.04167 72.0816 4.125C72.0983 4.19167 72.115 4.26667 72.1316 4.35C72.1816 4.45 72.2566 4.5 72.3566 4.5C72.3733 4.48333 72.39 4.48333 72.4066 4.5C72.4233 4.51667 72.4316 4.53333 72.4316 4.55C72.515 4.65 72.54 4.75833 72.5066 4.875C72.4733 5.00833 72.465 5.14167 72.4816 5.275C72.515 5.39167 72.5483 5.51667 72.5816 5.65C72.6483 5.81667 72.715 5.98333 72.7816 6.15C72.8483 6.31667 72.915 6.48333 72.9816 6.65C73.065 6.83333 73.1483 7.01667 73.2316 7.2C73.315 7.38333 73.39 7.56667 73.4566 7.75C73.54 7.98333 73.6233 8.21667 73.7066 8.45C73.8066 8.68333 73.915 8.91667 74.0316 9.15L74.1066 9.425C74.1233 9.49167 74.14 9.55833 74.1566 9.625C74.19 9.69167 74.215 9.75833 74.2316 9.825C74.265 9.875 74.29 9.925 74.3066 9.975C74.34 10.025 74.3733 10.0667 74.4066 10.1C74.49 10.2167 74.54 10.3417 74.5566 10.475C74.6066 10.6417 74.6816 10.7917 74.7816 10.925C74.815 10.975 74.865 11 74.9316 11C75.1816 10.9667 75.4316 10.9417 75.6816 10.925C75.9316 10.8917 76.1816 10.8417 76.4316 10.775C76.615 10.725 76.79 10.7 76.9566 10.7C77.2733 10.7 77.565 10.8083 77.8316 11.025C78.1483 11.275 78.315 11.5917 78.3316 11.975C78.3316 12.0583 78.34 12.125 78.3566 12.175C78.3566 12.2917 78.3233 12.3833 78.2566 12.45C78.24 12.5 78.2066 12.55 78.1566 12.6C78.1233 12.65 78.09 12.7 78.0566 12.75C78.0233 12.8167 77.99 12.8667 77.9566 12.9L77.8066 13.025C77.79 13.0583 77.765 13.1 77.7316 13.15C77.6983 13.1833 77.6566 13.2083 77.6066 13.225C77.54 13.2417 77.4733 13.2667 77.4066 13.3C77.34 13.3167 77.265 13.325 77.1816 13.325C76.8816 13.3583 76.615 13.35 76.3816 13.3H75.9816C75.9483 13.3 75.8983 13.3167 75.8316 13.35C75.765 13.3833 75.7316 13.425 75.7316 13.475V13.575C75.7816 13.725 75.815 13.8833 75.8316 14.05C75.865 14.2 75.915 14.3417 75.9816 14.475C75.9816 14.5417 75.9983 14.6083 76.0316 14.675C76.115 14.825 76.1816 14.9833 76.2316 15.15C76.2816 15.3 76.3233 15.4583 76.3566 15.625C76.3566 15.6583 76.3733 15.725 76.4066 15.825C76.4566 15.9417 76.4983 16.0667 76.5316 16.2C76.565 16.3167 76.59 16.4417 76.6066 16.575C76.6066 16.675 76.6316 16.7667 76.6816 16.85C76.7483 17 76.7983 17.15 76.8316 17.3C76.865 17.45 76.89 17.6083 76.9066 17.775C76.9233 17.7917 76.9316 17.825 76.9316 17.875C76.9316 17.9083 76.94 17.9417 76.9566 17.975C77.04 18.1583 77.0983 18.3583 77.1316 18.575C77.165 18.775 77.2066 18.975 77.2566 19.175C77.29 19.275 77.3066 19.375 77.3066 19.475C77.3233 19.5917 77.3316 19.7083 77.3316 19.825C77.3316 19.9083 77.3066 20 77.2566 20.1C77.2066 20.15 77.1816 20.175 77.1816 20.175C77.0816 20.1917 77.0233 20.25 77.0066 20.35L76.9316 20.5C76.8983 20.5667 76.8483 20.6083 76.7816 20.625C76.715 20.625 76.6566 20.65 76.6066 20.7C76.54 20.7667 76.4483 20.8 76.3316 20.8C76.265 20.8 76.1816 20.8 76.0816 20.8C75.9983 20.8 75.915 20.8083 75.8316 20.825ZM69.8066 11.75C69.9066 11.7333 70.0066 11.7167 70.1066 11.7C70.2233 11.6833 70.3483 11.6667 70.4816 11.65C70.565 11.6333 70.6733 11.6167 70.8066 11.6C70.94 11.5833 71.065 11.5667 71.1816 11.55C71.2983 11.5167 71.415 11.5 71.5316 11.5C71.6483 11.4833 71.765 11.4667 71.8816 11.45C71.9816 11.4167 72.0816 11.4 72.1816 11.4C72.2816 11.3833 72.3816 11.3667 72.4816 11.35C72.6316 11.3167 72.69 11.2333 72.6566 11.1C72.64 10.9667 72.6066 10.8333 72.5566 10.7C72.5233 10.55 72.4483 10.425 72.3316 10.325C72.2983 10.2917 72.2816 10.2417 72.2816 10.175V10.1C72.2483 9.96667 72.2066 9.84167 72.1566 9.725C72.1233 9.59167 72.0816 9.46667 72.0316 9.35C71.9983 9.21667 71.9566 9.1 71.9066 9C71.8733 8.88333 71.8316 8.76667 71.7816 8.65L71.4816 7.75C71.4316 7.63333 71.3816 7.51667 71.3316 7.4C71.2983 7.28333 71.265 7.16667 71.2316 7.05L71.1566 6.95H71.0816L71.0316 7.025C70.9483 7.275 70.8483 7.525 70.7316 7.775C70.6316 8.025 70.54 8.29167 70.4566 8.575C70.4566 8.60833 70.4483 8.65 70.4316 8.7C70.415 8.75 70.3983 8.8 70.3816 8.85C70.315 9.01667 70.2483 9.2 70.1816 9.4C70.1316 9.6 70.09 9.8 70.0566 10C70.04 10.1167 70.0233 10.2333 70.0066 10.35C69.99 10.45 69.965 10.5583 69.9316 10.675L69.7066 11.65C69.69 11.6667 69.6983 11.6917 69.7316 11.725C69.765 11.7417 69.79 11.75 69.8066 11.75ZM82.5271 19.5C82.2105 19.5333 81.9521 19.4333 81.7521 19.2C81.6521 19.1 81.5605 18.9917 81.4771 18.875C81.3938 18.7583 81.3271 18.6333 81.2771 18.5C81.1938 18.2667 81.1188 18.0333 81.0521 17.8C80.9855 17.55 80.9271 17.3083 80.8771 17.075C80.8271 16.8917 80.8021 16.7167 80.8021 16.55C80.7855 16.3667 80.7605 16.1917 80.7271 16.025C80.7105 15.8417 80.7021 15.6583 80.7021 15.475C80.7021 15.375 80.7021 15.275 80.7021 15.175C80.7021 15.0583 80.6938 14.95 80.6771 14.85C80.6605 14.7833 80.6521 14.725 80.6521 14.675C80.6521 14.625 80.6521 14.5667 80.6521 14.5C80.6521 14.2667 80.6521 14.0333 80.6521 13.8C80.6521 13.55 80.6438 13.3083 80.6271 13.075C80.6271 12.9417 80.6188 12.825 80.6021 12.725C80.5855 12.6083 80.5521 12.4917 80.5021 12.375C80.4355 12.1917 80.4271 11.9917 80.4771 11.775C80.4771 11.725 80.4855 11.6917 80.5021 11.675C80.5355 11.5583 80.5521 11.4417 80.5521 11.325C80.5688 11.2083 80.5688 11.0917 80.5521 10.975C80.5355 10.8917 80.5271 10.8083 80.5271 10.725C80.5271 10.6417 80.5271 10.5667 80.5271 10.5C80.5105 10.3167 80.5021 10.1333 80.5021 9.95C80.5188 9.75 80.5355 9.55833 80.5521 9.375C80.5688 9.325 80.5771 9.275 80.5771 9.225C80.5771 9.175 80.5771 9.125 80.5771 9.075C80.5605 8.89167 80.5605 8.71667 80.5771 8.55C80.6105 8.38333 80.6355 8.21667 80.6521 8.05C80.6855 7.85 80.7188 7.65833 80.7521 7.475C80.7855 7.275 80.8271 7.075 80.8771 6.875C80.9105 6.79167 80.9271 6.7 80.9271 6.6C80.9271 6.5 80.9271 6.4 80.9271 6.3C80.9271 6.21667 80.9188 6.13333 80.9021 6.05C80.9021 5.96667 80.9021 5.89167 80.9021 5.825C80.9021 5.775 80.9021 5.725 80.9021 5.675C80.9021 5.625 80.9105 5.575 80.9271 5.525C80.9438 5.475 80.9521 5.425 80.9521 5.375C80.9521 5.325 80.9605 5.29167 80.9771 5.275C81.0271 5.20833 81.0688 5.15 81.1021 5.1C81.1355 5.03333 81.1855 4.975 81.2521 4.925C81.3355 4.875 81.4105 4.825 81.4771 4.775C81.5605 4.725 81.6355 4.68333 81.7021 4.65C81.7855 4.61667 81.8521 4.575 81.9021 4.525C81.9688 4.44167 82.0355 4.36667 82.1021 4.3C82.1855 4.21667 82.2521 4.125 82.3021 4.025C82.3855 3.94167 82.4688 3.85 82.5521 3.75C82.6521 3.63333 82.7605 3.54167 82.8771 3.475C82.9105 3.45833 82.9605 3.41667 83.0271 3.35C83.2271 3.16667 83.4605 3.05 83.7271 3C83.7771 2.98333 83.8188 2.975 83.8521 2.975C83.9021 2.95833 83.9521 2.95 84.0021 2.95L84.1771 2.875C84.3105 2.825 84.4271 2.85 84.5271 2.95C84.5605 3 84.6021 3.05 84.6521 3.1C84.7188 3.13333 84.7771 3.16667 84.8271 3.2C84.9605 3.31667 85.0855 3.44167 85.2021 3.575C85.3355 3.70833 85.4521 3.85833 85.5521 4.025C85.7188 4.29167 85.8605 4.55833 85.9771 4.825C86.1105 5.09167 86.2355 5.36667 86.3521 5.65L86.8021 6.725C86.8188 6.825 86.8605 6.91667 86.9271 7C87.0605 7.25 87.1605 7.50833 87.2271 7.775C87.2938 8.025 87.3605 8.28333 87.4271 8.55C87.4438 8.58333 87.4521 8.61667 87.4521 8.65C87.4688 8.68333 87.4771 8.71667 87.4771 8.75C87.5105 8.88333 87.5355 9.025 87.5521 9.175C87.5855 9.30833 87.5938 9.44167 87.5771 9.575C87.5938 9.725 87.5855 9.875 87.5521 10.025C87.5355 10.1583 87.5105 10.2917 87.4771 10.425C87.4271 10.5917 87.3688 10.75 87.3021 10.9C87.2355 11.0333 87.1605 11.175 87.0771 11.325C87.0438 11.425 86.9855 11.5167 86.9021 11.6C86.8188 11.6833 86.7355 11.7583 86.6521 11.825C86.5188 11.8917 86.3855 11.9917 86.2521 12.125C86.2188 12.1583 86.1771 12.1833 86.1271 12.2C86.0938 12.2167 86.0605 12.2417 86.0271 12.275C85.9105 12.325 85.7855 12.3833 85.6521 12.45C85.5188 12.5 85.3855 12.55 85.2521 12.6C85.2355 12.6 85.2271 12.6167 85.2271 12.65C85.2271 12.6667 85.2355 12.6833 85.2521 12.7L85.9271 13.175C86.0105 13.225 86.0855 13.275 86.1521 13.325C86.2188 13.3583 86.2855 13.4 86.3521 13.45L86.5021 13.525C86.7021 13.6417 86.9021 13.7667 87.1021 13.9C87.3021 14.0333 87.4938 14.1667 87.6771 14.3C88.0271 14.5167 88.3771 14.7417 88.7271 14.975C89.0771 15.1917 89.4105 15.4333 89.7271 15.7C90.0105 15.9167 90.2605 16.1667 90.4771 16.45C90.5271 16.5 90.5771 16.5583 90.6271 16.625C90.6771 16.675 90.7355 16.7167 90.8021 16.75L90.8771 16.825C91.1438 17.0583 91.2938 17.375 91.3271 17.775C91.3271 17.825 91.3188 17.875 91.3021 17.925C91.3021 17.975 91.3021 18.025 91.3021 18.075C91.3021 18.175 91.2688 18.2583 91.2021 18.325C91.1355 18.3583 91.1021 18.4 91.1021 18.45C91.0521 18.5667 90.9771 18.65 90.8771 18.7C90.7938 18.7333 90.7105 18.7833 90.6271 18.85C90.5938 18.8667 90.5355 18.875 90.4521 18.875C90.3521 18.8583 90.2438 18.8417 90.1271 18.825C90.0271 18.8083 89.9271 18.8 89.8271 18.8C89.6938 18.8 89.5521 18.7417 89.4021 18.625C89.3021 18.5417 89.2105 18.4667 89.1271 18.4C89.0438 18.3167 88.9605 18.2167 88.8771 18.1C88.6605 17.8 88.3771 17.525 88.0271 17.275C87.8605 17.1417 87.7021 17.0167 87.5521 16.9C87.4021 16.7833 87.2355 16.675 87.0521 16.575C86.9355 16.5083 86.8188 16.4417 86.7021 16.375C86.6021 16.2917 86.4855 16.2167 86.3521 16.15C85.9355 15.8667 85.5105 15.5917 85.0771 15.325C84.6438 15.0417 84.2105 14.7583 83.7771 14.475C83.7105 14.425 83.6355 14.375 83.5521 14.325C83.4688 14.275 83.3855 14.225 83.3021 14.175C83.2688 14.1417 83.2188 14.1083 83.1521 14.075C83.0855 14.075 83.0521 14.1 83.0521 14.15C83.0521 14.1667 83.0438 14.1833 83.0271 14.2C83.0271 14.2 83.0271 14.2083 83.0271 14.225C83.0271 14.275 83.0271 14.325 83.0271 14.375C83.0271 14.425 83.0355 14.475 83.0521 14.525C83.0688 14.6583 83.0771 14.7917 83.0771 14.925C83.0771 15.0417 83.0771 15.1667 83.0771 15.3C83.0771 15.4 83.0771 15.5 83.0771 15.6C83.0938 15.6833 83.1105 15.775 83.1271 15.875C83.1271 15.925 83.1271 15.9833 83.1271 16.05C83.1438 16.1 83.1521 16.15 83.1521 16.2C83.1355 16.35 83.1438 16.5 83.1771 16.65C83.2105 16.8 83.2355 16.95 83.2521 17.1L83.4021 17.75C83.4188 17.8167 83.4355 17.8917 83.4521 17.975C83.4688 18.0417 83.4855 18.1167 83.5021 18.2C83.5188 18.2667 83.5188 18.3333 83.5021 18.4C83.5021 18.45 83.4938 18.5083 83.4771 18.575C83.4771 18.5917 83.4605 18.6167 83.4271 18.65C83.3438 18.6667 83.2855 18.725 83.2521 18.825C83.2021 18.9417 83.1271 19.0417 83.0271 19.125C82.9438 19.225 82.8521 19.3167 82.7521 19.4C82.7355 19.4167 82.7021 19.4333 82.6521 19.45C82.6021 19.4667 82.5605 19.4833 82.5271 19.5ZM83.5021 10.75H83.5521C83.7355 10.7167 83.9188 10.6833 84.1021 10.65C84.3021 10.6 84.4938 10.5417 84.6771 10.475C84.8605 10.425 85.0188 10.3333 85.1521 10.2C85.2688 10.0833 85.3271 9.95 85.3271 9.8C85.3438 9.68333 85.3438 9.575 85.3271 9.475C85.3271 9.35833 85.3105 9.24167 85.2771 9.125C85.2105 8.825 85.1355 8.53333 85.0521 8.25C84.9688 7.95 84.8688 7.66667 84.7521 7.4L84.5271 6.8C84.4771 6.63333 84.4188 6.475 84.3521 6.325C84.2855 6.15833 84.2105 6 84.1271 5.85C84.1105 5.81667 84.0938 5.78333 84.0771 5.75C84.0605 5.7 84.0438 5.65833 84.0271 5.625L83.9271 5.525C83.8771 5.45833 83.8188 5.45833 83.7521 5.525C83.7355 5.525 83.7105 5.54167 83.6771 5.575C83.5605 5.725 83.4521 5.88333 83.3521 6.05C83.2688 6.21667 83.2188 6.4 83.2021 6.6C83.1855 6.66667 83.1688 6.73333 83.1521 6.8C83.1521 6.86667 83.1521 6.94167 83.1521 7.025V8.1C83.1355 8.33333 83.1271 8.575 83.1271 8.825C83.1438 9.075 83.1355 9.31667 83.1021 9.55C83.0855 9.6 83.0771 9.65 83.0771 9.7C83.0938 9.75 83.1021 9.8 83.1021 9.85C83.1188 9.95 83.1271 10.05 83.1271 10.15C83.1271 10.2333 83.1271 10.325 83.1271 10.425C83.1271 10.5917 83.1438 10.6917 83.1771 10.725C83.2271 10.7583 83.3355 10.7667 83.5021 10.75ZM95.4381 19.075C95.3048 19.125 95.1548 19.1083 94.9881 19.025L94.4881 18.8C94.4048 18.7667 94.3381 18.6917 94.2881 18.575L94.2131 18.425C94.1798 18.3417 94.1381 18.2833 94.0881 18.25C94.0048 18.1833 93.9464 18.0667 93.9131 17.9C93.8798 17.7333 93.8548 17.5667 93.8381 17.4C93.8214 17.2333 93.8048 17.0667 93.7881 16.9C93.7714 16.7667 93.7631 16.6333 93.7631 16.5C93.7631 16.3667 93.7631 16.2417 93.7631 16.125L93.7881 15.95C93.8214 15.8667 93.8381 15.7833 93.8381 15.7C93.8381 15.6167 93.8381 15.5417 93.8381 15.475V10.925C93.8714 10.6917 93.8881 10.4583 93.8881 10.225C93.8881 9.975 93.8881 9.73333 93.8881 9.5C93.9048 9.26667 93.9131 9.04167 93.9131 8.825C93.9131 8.59167 93.8964 8.36667 93.8631 8.15C93.8464 8.06667 93.8381 7.975 93.8381 7.875C93.8381 7.775 93.8381 7.675 93.8381 7.575C93.8381 7.425 93.8381 7.275 93.8381 7.125C93.8381 6.975 93.8214 6.825 93.7881 6.675V6.6C93.7881 6.36667 93.7714 6.14167 93.7381 5.925C93.7214 5.69167 93.7048 5.46667 93.6881 5.25C93.6714 5.11667 93.6548 4.99167 93.6381 4.875C93.6214 4.75833 93.5964 4.64167 93.5631 4.525C93.5464 4.45833 93.5381 4.39167 93.5381 4.325C93.5381 4.25833 93.5381 4.19167 93.5381 4.125C93.5381 4.00833 93.5548 3.9 93.5881 3.8C93.6214 3.68333 93.6548 3.575 93.6881 3.475C93.7048 3.44167 93.7464 3.39167 93.8131 3.325C93.8464 3.29167 93.8798 3.26667 93.9131 3.25C93.9464 3.23333 93.9714 3.21667 93.9881 3.2C94.0881 3.06667 94.2214 3.00833 94.3881 3.025C94.4214 3.04167 94.4714 3.03333 94.5381 3C94.6214 2.93333 94.6964 2.925 94.7631 2.975C94.8131 3.00833 94.8964 3.00833 95.0131 2.975C95.0631 2.975 95.1048 2.99167 95.1381 3.025C95.1881 3.09167 95.2548 3.14167 95.3381 3.175C95.4214 3.20833 95.4798 3.25833 95.5131 3.325C95.5631 3.375 95.6131 3.425 95.6631 3.475C95.6964 3.525 95.7298 3.575 95.7631 3.625C95.8131 3.65833 95.8381 3.70833 95.8381 3.775C95.8548 3.84167 95.8548 3.90833 95.8381 3.975C95.8381 4.025 95.8381 4.08333 95.8381 4.15C95.8381 4.3 95.8464 4.45833 95.8631 4.625C95.8964 4.775 95.9214 4.925 95.9381 5.075C95.9714 5.24167 95.9964 5.41667 96.0131 5.6C96.0298 5.76667 96.0464 5.94167 96.0631 6.125V6.375C96.0964 6.49167 96.1131 6.60833 96.1131 6.725C96.1131 6.84167 96.1214 6.95833 96.1381 7.075V7.1C96.1548 7.3 96.1714 7.5 96.1881 7.7C96.2048 7.9 96.2214 8.1 96.2381 8.3C96.2548 8.38333 96.2631 8.475 96.2631 8.575C96.2631 8.65833 96.2631 8.74167 96.2631 8.825V15.475C96.2631 15.625 96.2714 15.775 96.2881 15.925C96.3214 16.075 96.3464 16.2167 96.3631 16.35C96.3631 16.4333 96.4131 16.475 96.5131 16.475C96.6631 16.5083 96.8048 16.5083 96.9381 16.475C97.1214 16.4417 97.2964 16.425 97.4631 16.425C97.6464 16.425 97.8298 16.425 98.0131 16.425C98.1964 16.425 98.3714 16.425 98.5381 16.425C98.7214 16.4083 98.8964 16.3917 99.0631 16.375H99.3381C99.4714 16.3917 99.5881 16.4083 99.6881 16.425C99.8048 16.425 99.9214 16.425 100.038 16.425C100.221 16.425 100.405 16.4333 100.588 16.45C100.788 16.45 100.98 16.4583 101.163 16.475C101.296 16.4917 101.43 16.5 101.563 16.5C101.713 16.5 101.863 16.5 102.013 16.5H102.138C102.471 16.4833 102.771 16.5667 103.038 16.75C103.155 16.8 103.238 16.8833 103.288 17C103.321 17.0667 103.346 17.1333 103.363 17.2C103.396 17.25 103.421 17.3167 103.438 17.4C103.455 17.4667 103.463 17.5333 103.463 17.6C103.48 17.65 103.496 17.7083 103.513 17.775C103.563 17.925 103.546 18.0917 103.463 18.275C103.446 18.325 103.43 18.375 103.413 18.425C103.396 18.475 103.371 18.525 103.338 18.575C103.305 18.625 103.263 18.6667 103.213 18.7C103.213 18.7 103.18 18.7167 103.113 18.75C102.98 18.8667 102.83 18.9417 102.663 18.975C102.513 19.0083 102.346 19.0417 102.163 19.075L101.913 19.05C101.663 18.9667 101.413 18.9167 101.163 18.9C101.096 18.8833 101.021 18.875 100.938 18.875C100.855 18.8583 100.771 18.85 100.688 18.85C100.571 18.85 100.455 18.85 100.338 18.85C100.221 18.8333 100.096 18.8167 99.9631 18.8L99.7131 18.775C99.5631 18.7917 99.4131 18.8 99.2631 18.8C99.1131 18.7833 98.9631 18.7833 98.8131 18.8C98.7464 18.8 98.6798 18.8 98.6131 18.8C98.5464 18.7833 98.4798 18.775 98.4131 18.775C98.2798 18.775 98.1464 18.775 98.0131 18.775C97.8964 18.775 97.7714 18.7917 97.6381 18.825C97.5714 18.8417 97.4881 18.8583 97.3881 18.875C97.3048 18.875 97.2214 18.875 97.1381 18.875C96.8881 18.8917 96.6381 18.9167 96.3881 18.95C96.1381 18.9667 95.8964 19 95.6631 19.05C95.6131 19.0667 95.5381 19.075 95.4381 19.075ZM108.718 19.175C108.618 19.175 108.552 19.1667 108.518 19.15C108.435 19.1167 108.352 19.1 108.268 19.1C108.202 19.1167 108.127 19.125 108.043 19.125C108.027 19.125 108.01 19.125 107.993 19.125C107.977 19.1417 107.96 19.15 107.943 19.15C107.827 19.1667 107.71 19.175 107.593 19.175C107.493 19.175 107.393 19.1583 107.293 19.125C107.277 19.1083 107.26 19.1 107.243 19.1C107.127 19.1167 107.027 19.0833 106.943 19C106.86 18.9167 106.777 18.8417 106.693 18.775C106.61 18.6917 106.568 18.6 106.568 18.5L106.493 18.3C106.443 18.1833 106.427 18.075 106.443 17.975C106.46 17.9417 106.46 17.9083 106.443 17.875C106.443 17.8417 106.443 17.8083 106.443 17.775C106.427 17.7417 106.418 17.7083 106.418 17.675C106.418 17.625 106.41 17.5833 106.393 17.55C106.36 17.4 106.335 17.25 106.318 17.1C106.318 16.9333 106.327 16.775 106.343 16.625C106.36 16.525 106.418 16.3583 106.518 16.125C106.618 15.875 106.677 15.725 106.693 15.675C106.743 15.5917 106.768 15.525 106.768 15.475C106.752 15.2917 106.743 15.1083 106.743 14.925C106.76 14.725 106.768 14.5333 106.768 14.35C106.768 14.2333 106.793 14.1417 106.843 14.075C106.91 13.9583 106.918 13.8333 106.868 13.7L106.793 13.425C106.693 13.2417 106.702 13.0833 106.818 12.95C106.818 12.9333 106.818 12.925 106.818 12.925C106.835 12.9083 106.843 12.8917 106.843 12.875C106.877 12.8417 106.885 12.8 106.868 12.75C106.852 12.6833 106.843 12.6333 106.843 12.6C106.843 12.5333 106.852 12.4667 106.868 12.4C106.902 12.3167 106.91 12.2417 106.893 12.175C106.893 12.175 106.877 12.1583 106.843 12.125C106.827 12.0917 106.818 12.025 106.818 11.925C106.835 11.825 106.843 11.7667 106.843 11.75V11.05C106.86 10.9667 106.868 10.8917 106.868 10.825C106.868 10.7417 106.877 10.6583 106.893 10.575C106.91 10.475 106.91 10.375 106.893 10.275C106.893 10.1583 106.893 10.0417 106.893 9.925C106.877 9.84167 106.86 9.75 106.843 9.65C106.843 9.55 106.843 9.45 106.843 9.35C106.827 9.31667 106.818 9.275 106.818 9.225C106.818 9.175 106.818 9.13333 106.818 9.1C106.802 9.01667 106.785 8.93333 106.768 8.85C106.768 8.76667 106.768 8.68333 106.768 8.6C106.768 8.56667 106.735 8.45833 106.668 8.275C106.602 8.075 106.577 7.90833 106.593 7.775C106.61 7.74167 106.618 7.7 106.618 7.65C106.618 7.6 106.602 7.55833 106.568 7.525C106.535 7.50833 106.518 7.475 106.518 7.425V7.35C106.568 7.15 106.543 6.95 106.443 6.75C106.377 6.65 106.352 6.55 106.368 6.45C106.368 6.31667 106.31 6.21667 106.193 6.15C106.11 6.06667 106.035 5.96667 105.968 5.85C105.902 5.73333 105.86 5.61667 105.843 5.5C105.827 5.41667 105.818 5.33333 105.818 5.25C105.818 5.16667 105.818 5.09167 105.818 5.025C105.818 4.95833 105.827 4.91667 105.843 4.9C105.91 4.83333 105.943 4.75833 105.943 4.675C105.943 4.575 105.952 4.5 105.968 4.45C105.985 4.43333 106.002 4.425 106.018 4.425C106.035 4.425 106.052 4.41667 106.068 4.4C106.135 4.38333 106.168 4.325 106.168 4.225C106.135 4.15833 106.118 4.1 106.118 4.05C106.102 3.98333 106.127 3.925 106.193 3.875C106.227 3.80833 106.268 3.79167 106.318 3.825C106.435 3.875 106.568 3.85833 106.718 3.775C106.785 3.74167 106.827 3.725 106.843 3.725C106.893 3.725 106.918 3.725 106.918 3.725C106.935 3.70833 106.985 3.7 107.068 3.7C107.168 3.71667 107.26 3.68333 107.343 3.6C107.46 3.48333 107.602 3.425 107.768 3.425H109.318C109.702 3.44167 110.085 3.44167 110.468 3.425C110.852 3.40833 111.227 3.4 111.593 3.4C111.677 3.4 111.743 3.4 111.793 3.4C111.86 3.38333 111.927 3.36667 111.993 3.35C112.093 3.3 112.21 3.275 112.343 3.275H112.918C113.052 3.275 113.168 3.275 113.268 3.275C113.385 3.25833 113.502 3.24167 113.618 3.225C113.685 3.20833 113.743 3.2 113.793 3.2C113.86 3.2 113.927 3.2 113.993 3.2C114.06 3.2 114.127 3.2 114.193 3.2C114.26 3.2 114.327 3.19167 114.393 3.175C114.527 3.15833 114.668 3.15 114.818 3.15C114.968 3.13333 115.11 3.125 115.243 3.125C115.31 3.125 115.368 3.125 115.418 3.125C115.485 3.10833 115.552 3.09167 115.618 3.075C115.752 3.04167 115.877 3.025 115.993 3.025C116.127 3.00833 116.252 2.99167 116.368 2.975C116.502 2.95833 116.627 2.94167 116.743 2.925C116.877 2.90833 117.002 2.89167 117.118 2.875C117.268 2.875 117.377 2.89167 117.443 2.925C117.543 2.99167 117.635 3.05 117.718 3.1C117.818 3.15 117.91 3.21667 117.993 3.3C118.06 3.36667 118.102 3.425 118.118 3.475C118.135 3.54167 118.152 3.60833 118.168 3.675C118.185 3.74167 118.202 3.81667 118.218 3.9V4.075C118.202 4.15833 118.185 4.25 118.168 4.35C118.168 4.43333 118.16 4.525 118.143 4.625C118.11 4.69167 118.068 4.75 118.018 4.8L117.568 5.25C117.402 5.3 117.235 5.33333 117.068 5.35C116.918 5.36667 116.76 5.36667 116.593 5.35H116.418C116.335 5.36667 116.252 5.375 116.168 5.375C116.085 5.375 116.002 5.36667 115.918 5.35C115.818 5.33333 115.718 5.33333 115.618 5.35C115.518 5.35 115.418 5.35 115.318 5.35C115.252 5.35 115.185 5.35833 115.118 5.375C115.068 5.375 115.01 5.36667 114.943 5.35C114.86 5.33333 114.777 5.33333 114.693 5.35C114.627 5.35 114.552 5.35833 114.468 5.375C114.402 5.375 114.327 5.38333 114.243 5.4C114.177 5.4 114.102 5.4 114.018 5.4C113.802 5.43333 113.568 5.45 113.318 5.45C113.085 5.45 112.852 5.46667 112.618 5.5C112.468 5.48333 112.327 5.49167 112.193 5.525C112.06 5.54167 111.918 5.55833 111.768 5.575C111.635 5.59167 111.493 5.6 111.343 5.6C111.193 5.6 111.052 5.61667 110.918 5.65C110.752 5.65 110.585 5.675 110.418 5.725C110.268 5.75833 110.11 5.78333 109.943 5.8L109.768 5.825C109.652 5.825 109.543 5.84167 109.443 5.875C109.343 5.89167 109.235 5.91667 109.118 5.95C109.052 5.96667 108.985 5.98333 108.918 6C108.852 6 108.777 6.00833 108.693 6.025C108.643 6.025 108.585 6.04167 108.518 6.075C108.468 6.09167 108.443 6.14167 108.443 6.225L108.518 6.45C108.535 6.48333 108.527 6.56667 108.493 6.7C108.477 6.83333 108.46 6.93333 108.443 7C108.443 7.05 108.452 7.1 108.468 7.15C108.485 7.2 108.502 7.25 108.518 7.3C108.568 7.43333 108.593 7.58333 108.593 7.75C108.593 7.9 108.61 8.04167 108.643 8.175C108.66 8.24167 108.668 8.31667 108.668 8.4C108.668 8.46667 108.677 8.54167 108.693 8.625C108.693 8.65833 108.693 8.7 108.693 8.75C108.71 8.78333 108.718 8.825 108.718 8.875C108.718 8.925 108.71 8.95833 108.693 8.975C108.643 9.04167 108.618 9.11667 108.618 9.2C108.618 9.28333 108.618 9.36667 108.618 9.45C108.702 9.61667 108.743 9.78333 108.743 9.95C108.743 10.1167 108.743 10.2833 108.743 10.45C108.743 10.5 108.785 10.5167 108.868 10.5H108.893C108.927 10.4333 108.96 10.3833 108.993 10.35C109.043 10.35 109.102 10.3333 109.168 10.3C109.218 10.2667 109.285 10.25 109.368 10.25C109.502 10.2667 109.627 10.2667 109.743 10.25C109.86 10.2167 109.977 10.1833 110.093 10.15C110.877 9.95 111.61 9.69167 112.293 9.375C112.477 9.29167 112.668 9.225 112.868 9.175C113.068 9.10833 113.268 9.06667 113.468 9.05H113.543C113.693 9.03333 113.843 9.01667 113.993 9C114.143 8.98333 114.293 8.975 114.443 8.975C114.643 8.95833 114.835 8.93333 115.018 8.9C115.218 8.86667 115.418 8.84167 115.618 8.825C115.735 8.79167 115.843 8.76667 115.943 8.75C116.043 8.71667 116.152 8.675 116.268 8.625C116.485 8.54167 116.685 8.5 116.868 8.5C117.002 8.51667 117.127 8.55 117.243 8.6C117.36 8.63333 117.477 8.68333 117.593 8.75C117.843 8.91667 117.968 9.16667 117.968 9.5C117.968 9.63333 117.952 9.76667 117.918 9.9C117.902 10.0333 117.893 10.1667 117.893 10.3C117.893 10.3333 117.877 10.3667 117.843 10.4L117.768 10.525C117.752 10.5917 117.735 10.6583 117.718 10.725C117.702 10.7917 117.66 10.8417 117.593 10.875C117.493 10.9583 117.385 11.05 117.268 11.15C117.168 11.2333 117.052 11.2917 116.918 11.325C116.852 11.3417 116.785 11.3583 116.718 11.375C116.668 11.3917 116.61 11.4 116.543 11.4C116.277 11.4 116.002 11.4167 115.718 11.45C115.452 11.4833 115.177 11.5167 114.893 11.55C114.677 11.5667 114.46 11.5917 114.243 11.625C114.043 11.6583 113.835 11.675 113.618 11.675C113.418 11.675 113.193 11.7167 112.943 11.8C112.777 11.8333 112.602 11.8667 112.418 11.9C112.235 11.9333 112.052 11.9583 111.868 11.975C111.735 11.9917 111.593 12.0167 111.443 12.05C111.31 12.0667 111.177 12.0833 111.043 12.1L110.618 12.175C110.585 12.1917 110.535 12.2 110.468 12.2C110.352 12.2333 110.235 12.2583 110.118 12.275C110.002 12.2917 109.885 12.3167 109.768 12.35C109.652 12.3667 109.535 12.3917 109.418 12.425C109.318 12.4583 109.21 12.4917 109.093 12.525C109.01 12.5417 108.943 12.575 108.893 12.625C108.843 12.6583 108.802 12.7083 108.768 12.775C108.752 12.825 108.752 12.875 108.768 12.925C108.785 12.9917 108.777 13.0583 108.743 13.125C108.76 13.2917 108.768 13.4583 108.768 13.625C108.785 13.7917 108.785 13.9583 108.768 14.125C108.802 14.2583 108.81 14.3917 108.793 14.525C108.793 14.6583 108.785 14.7917 108.768 14.925C108.735 15.125 108.743 15.2917 108.793 15.425C108.843 15.6417 108.827 15.8667 108.743 16.1C108.71 16.2 108.71 16.2667 108.743 16.3C108.777 16.35 108.777 16.4083 108.743 16.475V16.625C108.727 16.7583 108.785 16.825 108.918 16.825H108.968C109.085 16.825 109.202 16.8667 109.318 16.95C109.402 17.0333 109.502 17.0583 109.618 17.025L110.318 16.95C110.418 16.9333 110.518 16.925 110.618 16.925C110.718 16.9083 110.818 16.9 110.918 16.9C110.952 16.8833 111.002 16.8917 111.068 16.925C111.152 16.975 111.227 16.9833 111.293 16.95C111.327 16.9167 111.368 16.8917 111.418 16.875C111.485 16.8583 111.535 16.8333 111.568 16.8C111.668 16.7 111.793 16.6667 111.943 16.7C112.077 16.7333 112.185 16.725 112.268 16.675C112.418 16.625 112.56 16.6083 112.693 16.625C112.777 16.6417 112.86 16.6333 112.943 16.6C113.027 16.5667 113.11 16.55 113.193 16.55C113.227 16.55 113.252 16.5583 113.268 16.575C113.285 16.575 113.302 16.5667 113.318 16.55C113.352 16.55 113.385 16.5417 113.418 16.525C113.452 16.5083 113.477 16.5 113.493 16.5C113.61 16.45 113.718 16.4333 113.818 16.45C113.902 16.45 113.943 16.45 113.943 16.45C114.01 16.4333 114.068 16.4333 114.118 16.45C114.185 16.4667 114.243 16.4917 114.293 16.525C114.377 16.5417 114.443 16.5667 114.493 16.6C114.56 16.6333 114.627 16.6583 114.693 16.675C114.727 16.675 114.752 16.6833 114.768 16.7C114.852 16.7667 114.952 16.825 115.068 16.875C115.202 16.925 115.277 16.9833 115.293 17.05C115.327 17.15 115.343 17.25 115.343 17.35C115.343 17.4333 115.352 17.525 115.368 17.625C115.368 17.675 115.36 17.725 115.343 17.775C115.343 17.825 115.335 17.875 115.318 17.925C115.285 17.9917 115.243 18.0667 115.193 18.15C115.16 18.2333 115.11 18.3083 115.043 18.375C115.01 18.4083 114.977 18.4417 114.943 18.475C114.927 18.5083 114.902 18.5417 114.868 18.575C114.802 18.6417 114.727 18.7 114.643 18.75C114.56 18.8 114.468 18.825 114.368 18.825C114.302 18.825 114.252 18.8333 114.218 18.85C114.152 18.8833 114.085 18.9 114.018 18.9C113.952 18.9 113.877 18.9 113.793 18.9C113.677 18.9167 113.56 18.9333 113.443 18.95C113.343 18.95 113.235 18.9417 113.118 18.925C113.052 18.9083 112.993 18.9083 112.943 18.925C112.777 18.975 112.61 18.9833 112.443 18.95C112.277 18.95 112.11 18.9583 111.943 18.975C111.793 18.975 111.643 18.975 111.493 18.975H111.168C111.118 18.975 111.077 18.9833 111.043 19C110.977 19.0333 110.893 19.05 110.793 19.05C110.71 19.05 110.627 19.0417 110.543 19.025H110.293C110.277 19.025 110.252 19.025 110.218 19.025C110.185 19.0417 110.152 19.0417 110.118 19.025C110.068 19.0083 110.018 19 109.968 19C109.935 19.0167 109.893 19.0333 109.843 19.05C109.81 19.05 109.777 19.05 109.743 19.05C109.727 19.0667 109.702 19.075 109.668 19.075C109.502 19.0583 109.343 19.0583 109.193 19.075C109.043 19.1083 108.885 19.1417 108.718 19.175ZM126.866 20.65C126.816 20.6667 126.766 20.6667 126.716 20.65C126.666 20.65 126.625 20.65 126.591 20.65C126.408 20.6 126.25 20.5 126.116 20.35C126 20.2167 125.891 20.0583 125.791 19.875C125.775 19.8083 125.75 19.7417 125.716 19.675C125.7 19.6083 125.691 19.5417 125.691 19.475V19.3C125.658 19.1167 125.633 18.9333 125.616 18.75C125.616 18.5667 125.616 18.3833 125.616 18.2C125.616 17.9667 125.616 17.7333 125.616 17.5C125.633 17.2667 125.641 17.0333 125.641 16.8C125.641 16.6833 125.65 16.5917 125.666 16.525C125.683 16.2083 125.683 15.875 125.666 15.525C125.65 15.4417 125.633 15.35 125.616 15.25C125.616 15.15 125.616 15.05 125.616 14.95C125.633 14.7667 125.633 14.5833 125.616 14.4C125.6 14.2167 125.575 14.0333 125.541 13.85L125.466 13.425C125.466 13.3917 125.458 13.3583 125.441 13.325C125.441 13.275 125.441 13.2417 125.441 13.225C125.308 12.725 125.125 12.275 124.891 11.875C124.808 11.725 124.716 11.575 124.616 11.425C124.533 11.2583 124.45 11.0917 124.366 10.925C124.283 10.7583 124.216 10.5917 124.166 10.425C124.133 10.2417 124.1 10.0667 124.066 9.9C124.066 9.86667 124.066 9.825 124.066 9.775C124.083 9.725 124.091 9.675 124.091 9.625C124.091 9.525 124.091 9.425 124.091 9.325C124.108 9.20833 124.116 9.09167 124.116 8.975C124.116 8.85833 124.083 8.76667 124.016 8.7L123.866 8.5C123.8 8.41667 123.741 8.33333 123.691 8.25C123.641 8.15 123.583 8.05833 123.516 7.975L123.241 7.6C123.175 7.5 123.1 7.4 123.016 7.3C122.933 7.2 122.85 7.09167 122.766 6.975C122.733 6.94167 122.7 6.90833 122.666 6.875C122.633 6.825 122.591 6.79167 122.541 6.775C122.475 6.75833 122.425 6.71667 122.391 6.65C122.341 6.6 122.283 6.525 122.216 6.425C122.116 6.25833 122.008 6.09167 121.891 5.925C121.791 5.74167 121.691 5.56667 121.591 5.4L121.516 5.3C121.366 4.98333 121.216 4.66667 121.066 4.35C120.933 4.01667 120.808 3.69167 120.691 3.375C120.625 3.225 120.575 3.05833 120.541 2.875C120.525 2.775 120.5 2.675 120.466 2.575C120.433 2.475 120.391 2.38333 120.341 2.3C120.291 2.21667 120.258 2.13333 120.241 2.05C120.241 1.96667 120.241 1.88333 120.241 1.8C120.241 1.75 120.25 1.7 120.266 1.65C120.3 1.6 120.325 1.55 120.341 1.5C120.391 1.41667 120.441 1.34167 120.491 1.275C120.558 1.19167 120.625 1.11667 120.691 1.05C120.775 0.966665 120.866 0.924999 120.966 0.924999C121.016 0.924999 121.05 0.916666 121.066 0.899999C121.2 0.833332 121.333 0.816666 121.466 0.85C121.616 0.883333 121.75 0.924999 121.866 0.975C121.916 0.991666 121.958 1.025 121.991 1.075C122.025 1.10833 122.058 1.14167 122.091 1.175L122.366 1.625C122.4 1.65833 122.416 1.7 122.416 1.75C122.433 1.8 122.45 1.85 122.466 1.9C122.483 1.93333 122.5 1.975 122.516 2.025C122.633 2.275 122.741 2.525 122.841 2.775C122.958 3.00833 123.066 3.25 123.166 3.5C123.25 3.71667 123.333 3.93333 123.416 4.15C123.516 4.35 123.625 4.55 123.741 4.75C123.825 4.95 123.925 5.14167 124.041 5.325C124.158 5.50833 124.275 5.69167 124.391 5.875C124.458 5.94167 124.516 6.01667 124.566 6.1C124.616 6.18333 124.675 6.26667 124.741 6.35L124.866 6.5C125 6.63333 125.083 6.7 125.116 6.7C125.15 6.7 125.225 6.625 125.341 6.475C125.408 6.39167 125.466 6.30833 125.516 6.225C125.583 6.125 125.65 6.04167 125.716 5.975C125.85 5.80833 125.975 5.65 126.091 5.5C126.225 5.35 126.35 5.2 126.466 5.05C126.65 4.83333 126.883 4.61667 127.166 4.4C127.283 4.3 127.391 4.19167 127.491 4.075C127.608 3.925 127.741 3.81667 127.891 3.75C128.008 3.68333 128.116 3.61667 128.216 3.55C128.316 3.46667 128.416 3.39167 128.516 3.325C128.616 3.225 128.725 3.14167 128.841 3.075C128.908 3.025 128.966 2.975 129.016 2.925C129.083 2.85833 129.141 2.79167 129.191 2.725C129.225 2.675 129.258 2.63333 129.291 2.6C129.341 2.55 129.391 2.50833 129.441 2.475L129.791 2.25C129.825 2.23333 129.85 2.225 129.866 2.225C129.883 2.20833 129.9 2.19167 129.916 2.175C129.95 2.175 129.975 2.175 129.991 2.175C130.008 2.15833 130.025 2.15 130.041 2.15C130.125 2.11667 130.2 2.09167 130.266 2.075C130.35 2.05833 130.433 2.05 130.516 2.05C130.616 2.1 130.716 2.15 130.816 2.2C130.916 2.25 131 2.31667 131.066 2.4C131.1 2.41667 131.125 2.425 131.141 2.425C131.175 2.425 131.2 2.43333 131.216 2.45C131.233 2.46667 131.241 2.48333 131.241 2.5C131.241 2.51667 131.233 2.55 131.216 2.6C131.2 2.63333 131.191 2.65833 131.191 2.675C131.191 2.69167 131.208 2.7 131.241 2.7C131.275 2.7 131.3 2.70833 131.316 2.725C131.333 2.74167 131.35 2.75 131.366 2.75C131.383 2.75 131.391 2.76667 131.391 2.8C131.375 2.93333 131.391 3.075 131.441 3.225C131.475 3.275 131.491 3.325 131.491 3.375C131.491 3.425 131.483 3.475 131.466 3.525L131.141 4.125C131.125 4.19167 131.083 4.24167 131.016 4.275C130.766 4.49167 130.516 4.65833 130.266 4.775C129.966 4.875 129.716 5.00833 129.516 5.175C129.433 5.24167 129.35 5.30833 129.266 5.375C129.183 5.425 129.1 5.49167 129.016 5.575C128.983 5.60833 128.933 5.64167 128.866 5.675L128.716 5.8C128.533 6 128.35 6.2 128.166 6.4C128 6.58333 127.825 6.775 127.641 6.975C127.608 7.04167 127.566 7.075 127.516 7.075C127.433 7.125 127.358 7.19167 127.291 7.275C127.208 7.40833 127.116 7.54167 127.016 7.675C126.916 7.79167 126.841 7.93333 126.791 8.1L126.641 8.35C126.625 8.36667 126.608 8.39167 126.591 8.425C126.575 8.44167 126.558 8.46667 126.541 8.5C126.475 8.61667 126.466 8.74167 126.516 8.875C126.55 8.90833 126.575 8.95 126.591 9C126.625 9.05 126.65 9.1 126.666 9.15C126.716 9.23333 126.708 9.31667 126.641 9.4C126.608 9.41667 126.591 9.45833 126.591 9.525C126.625 9.59167 126.641 9.64167 126.641 9.675C126.675 9.775 126.666 9.86667 126.616 9.95C126.583 10.0167 126.566 10.0583 126.566 10.075C126.55 10.175 126.558 10.2667 126.591 10.35C126.625 10.4167 126.658 10.5 126.691 10.6C126.741 10.6833 126.8 10.7667 126.866 10.85C126.95 11.0167 127.033 11.175 127.116 11.325C127.2 11.475 127.275 11.6333 127.341 11.8L127.641 12.775C127.675 12.925 127.7 13.0833 127.716 13.25C127.733 13.4 127.75 13.55 127.766 13.7C127.783 13.8 127.8 13.9 127.816 14C127.833 14.0833 127.833 14.175 127.816 14.275C127.85 14.6417 127.858 15.0083 127.841 15.375C127.841 15.725 127.841 16.0833 127.841 16.45C127.841 16.4833 127.833 16.5167 127.816 16.55C127.8 16.7333 127.791 16.925 127.791 17.125C127.791 17.325 127.783 17.5167 127.766 17.7C127.766 17.8167 127.766 17.9333 127.766 18.05C127.783 18.1667 127.791 18.2917 127.791 18.425C127.791 18.475 127.8 18.5083 127.816 18.525C127.85 18.6083 127.875 18.7 127.891 18.8C127.908 18.8833 127.925 18.9667 127.941 19.05C127.958 19.1167 127.966 19.175 127.966 19.225C127.966 19.2917 127.95 19.3583 127.916 19.425C127.866 19.5417 127.866 19.6667 127.916 19.8C127.916 19.8167 127.891 19.8417 127.841 19.875C127.808 19.875 127.775 19.8833 127.741 19.9C127.725 19.9 127.7 19.9167 127.666 19.95C127.666 19.9833 127.658 20.0083 127.641 20.025C127.625 20.1083 127.558 20.2083 127.441 20.325C127.375 20.4083 127.283 20.475 127.166 20.525C127.066 20.575 126.966 20.6167 126.866 20.65Z" fill="#353535"/>
</svg>
