<svg width="226" height="24" viewBox="0 0 226 24" fill="none" xmlns="http://www.w3.org/2000/svg">
<path d="M5.88348 21.15C5.80348 21.15 5.73348 21.15 5.67348 21.15C5.61348 21.15 5.54348 21.14 5.46348 21.12C5.42348 21.12 5.37348 21.11 5.31348 21.09C5.27348 21.09 5.23348 21.09 5.19348 21.09C4.87348 21.07 4.57348 21.01 4.29348 20.91C4.01348 20.81 3.73348 20.69 3.45348 20.55C3.43348 20.55 3.41348 20.55 3.39348 20.55C3.39348 20.53 3.38348 20.52 3.36348 20.52C3.16348 20.42 2.98348 20.3 2.82348 20.16C2.68348 20.02 2.54348 19.88 2.40348 19.74C2.24348 19.54 2.13348 19.35 2.07348 19.17C1.99348 19.01 1.89348 18.84 1.77348 18.66C1.57348 18.44 1.42348 18.16 1.32348 17.82C1.26348 17.66 1.20348 17.5 1.14348 17.34C1.08348 17.18 1.03348 17.01 0.993477 16.83C0.973477 16.77 0.953477 16.71 0.933477 16.65C0.913477 16.57 0.883477 16.49 0.843477 16.41C0.803477 16.31 0.763477 16.2 0.723477 16.08C0.703477 15.96 0.673477 15.84 0.633477 15.72C0.613477 15.64 0.583477 15.51 0.543477 15.33C0.523477 15.13 0.513477 15.01 0.513477 14.97V13.68C0.533477 13.56 0.553477 13.45 0.573477 13.35C0.593477 13.23 0.613477 13.11 0.633477 12.99L0.663477 12.96C0.663477 12.98 0.663477 12.99 0.663477 12.99C0.683477 12.99 0.693477 13 0.693477 13.02C0.713477 13.02 0.723477 13.03 0.723477 13.05C0.743477 13.07 0.753477 13.06 0.753477 13.02C0.753477 12.9 0.743477 12.8 0.723477 12.72C0.723477 12.68 0.713477 12.64 0.693477 12.6C0.693477 12.56 0.733477 12.53 0.813477 12.51C0.833477 12.51 0.843477 12.48 0.843477 12.42L1.11348 11.1C1.13348 11 1.15348 10.91 1.17348 10.83C1.19348 10.73 1.21348 10.64 1.23348 10.56L1.29348 10.23C1.27348 10.27 1.28348 10.2 1.32348 10.02C1.38348 9.84 1.42348 9.72 1.44348 9.66C1.48348 9.56 1.53348 9.46 1.59348 9.36C1.67348 9.26 1.72348 9.19 1.74348 9.15C1.90348 8.97 2.05348 8.72 2.19348 8.4L2.76348 7.5C2.84348 7.42 2.88348 7.32 2.88348 7.2C2.86348 7.1 2.89348 6.99 2.97348 6.87C3.03348 6.75 3.09348 6.63 3.15348 6.51C3.23348 6.39 3.31348 6.27 3.39348 6.15C3.49348 5.99 3.60348 5.83 3.72348 5.67C3.86348 5.49 3.99348 5.33 4.11348 5.19C4.15348 5.13 4.19348 5.07 4.23348 5.01C4.29348 4.95 4.36348 4.91 4.44348 4.89C4.48348 4.89 4.51348 4.88 4.53348 4.86C4.55348 4.84 4.57348 4.82 4.59348 4.8C4.99348 4.38 5.44348 3.99 5.94348 3.63C5.98348 3.59 6.02348 3.55 6.06348 3.51C6.10348 3.47 6.14348 3.44 6.18348 3.42C6.28348 3.36 6.39348 3.33 6.51348 3.33C6.61348 3.33 6.69348 3.32 6.75348 3.3C6.81348 3.3 6.90348 3.28 7.02348 3.24C7.16348 3.2 7.27348 3.22 7.35348 3.3C7.47348 3.42 7.67348 3.46 7.95348 3.42C8.13348 3.4 8.28348 3.5 8.40348 3.72C8.44348 3.78 8.47348 3.84 8.49348 3.9C8.53348 3.96 8.58348 4.01 8.64348 4.05C8.70348 4.17 8.78348 4.28 8.88348 4.38C9.00348 4.48 9.10348 4.58 9.18348 4.68L9.57348 5.22C9.61348 5.28 9.65348 5.35 9.69348 5.43C9.75348 5.49 9.80348 5.55 9.84348 5.61C9.94348 5.71 10.0035 5.81 10.0235 5.91C10.0635 6.01 10.0935 6.08 10.1135 6.12C10.1535 6.14 10.1835 6.23 10.2035 6.39C10.2235 6.47 10.2235 6.52 10.2035 6.54C10.2035 6.54 10.2435 6.54 10.3235 6.54C10.4035 6.54 10.4435 6.59 10.4435 6.69C10.4435 6.91 10.4035 7.1 10.3235 7.26C10.2835 7.32 10.2435 7.35 10.2035 7.35C10.1835 7.35 10.1535 7.37 10.1135 7.41C10.0535 7.51 9.98348 7.61 9.90348 7.71C9.84348 7.81 9.77348 7.92 9.69348 8.04C9.63348 8.14 9.55348 8.23 9.45348 8.31C9.37348 8.39 9.28348 8.47 9.18348 8.55C9.02348 8.71 8.83348 8.77 8.61348 8.73C8.43348 8.73 8.30348 8.72 8.22348 8.7C8.16348 8.68 8.10348 8.66 8.04348 8.64C8.00348 8.6 7.95348 8.57 7.89348 8.55C7.85348 8.55 7.81348 8.53 7.77348 8.49C7.75348 8.45 7.73348 8.42 7.71348 8.4C7.69348 8.36 7.66348 8.33 7.62348 8.31C7.52348 8.25 7.44348 8.18 7.38348 8.1C7.32348 8 7.27348 7.91 7.23348 7.83C7.21348 7.77 7.20348 7.71 7.20348 7.65C7.20348 7.59 7.20348 7.54 7.20348 7.5C7.18348 7.38 7.16348 7.26 7.14348 7.14C7.14348 7.02 7.12348 6.9 7.08348 6.78C7.08348 6.74 7.03348 6.72 6.93348 6.72C6.81348 6.8 6.69348 6.88 6.57348 6.96C6.45348 7.04 6.34348 7.14 6.24348 7.26L5.31348 8.37C5.25348 8.43 5.19348 8.5 5.13348 8.58C5.09348 8.64 5.05348 8.7 5.01348 8.76C4.93348 8.86 4.85348 8.97 4.77348 9.09C4.71348 9.19 4.63348 9.29 4.53348 9.39C4.49348 9.43 4.46348 9.47 4.44348 9.51C4.38348 9.65 4.31348 9.78 4.23348 9.9C4.17348 10.02 4.11348 10.16 4.05348 10.32C3.95348 10.52 3.86348 10.74 3.78348 10.98C3.72348 11.2 3.67348 11.43 3.63348 11.67C3.61348 11.97 3.55348 12.27 3.45348 12.57C3.43348 12.67 3.41348 12.78 3.39348 12.9C3.37348 13.02 3.35348 13.14 3.33348 13.26C3.31348 13.44 3.28348 13.62 3.24348 13.8C3.20348 13.98 3.19348 14.17 3.21348 14.37C3.25348 14.77 3.31348 15.15 3.39348 15.51C3.45348 15.71 3.50348 15.91 3.54348 16.11C3.60348 16.29 3.66348 16.48 3.72348 16.68C3.74348 16.74 3.76348 16.8 3.78348 16.86C3.80348 16.92 3.82348 16.98 3.84348 17.04C3.96348 17.32 4.18348 17.54 4.50348 17.7C4.62348 17.76 4.75348 17.79 4.89348 17.79C5.01348 17.79 5.13348 17.8 5.25348 17.82C5.37348 17.82 5.49348 17.81 5.61348 17.79C6.17348 17.73 6.69348 17.64 7.17348 17.52C7.39348 17.48 7.60348 17.42 7.80348 17.34C8.00348 17.26 8.20348 17.18 8.40348 17.1C8.56348 17.04 8.71348 16.95 8.85348 16.83C9.01348 16.71 9.17348 16.59 9.33348 16.47C9.51348 16.33 9.68348 16.19 9.84348 16.05C10.0035 15.91 10.1635 15.77 10.3235 15.63C10.4835 15.49 10.6335 15.34 10.7735 15.18C10.8335 15.12 10.9235 15.05 11.0435 14.97C11.1035 14.93 11.1635 14.89 11.2235 14.85C11.2835 14.81 11.3335 14.77 11.3735 14.73C11.4735 14.67 11.5635 14.61 11.6435 14.55C11.7435 14.49 11.8535 14.46 11.9735 14.46C12.0335 14.42 12.0935 14.4 12.1535 14.4C12.2335 14.38 12.3035 14.36 12.3635 14.34C12.5435 14.28 12.7035 14.28 12.8435 14.34C12.9035 14.36 12.9635 14.38 13.0235 14.4C13.0835 14.42 13.1435 14.45 13.2035 14.49C13.3635 14.59 13.5135 14.75 13.6535 14.97C13.7535 15.21 13.8035 15.42 13.8035 15.6V15.78C13.8035 16.04 13.7035 16.27 13.5035 16.47C13.2835 16.75 13.0535 16.97 12.8135 17.13C12.6735 17.21 12.5335 17.32 12.3935 17.46C12.1935 17.62 11.9835 17.79 11.7635 17.97C11.5635 18.15 11.3535 18.32 11.1335 18.48L11.0135 18.6C10.9535 18.64 10.8935 18.69 10.8335 18.75C10.7735 18.81 10.7035 18.86 10.6235 18.9C10.4835 19.04 10.3235 19.17 10.1435 19.29C9.96348 19.39 9.78348 19.49 9.60348 19.59C9.42348 19.67 9.25348 19.79 9.09348 19.95C9.03348 20.01 8.97348 20.07 8.91348 20.13C8.85348 20.19 8.78348 20.24 8.70348 20.28C8.44348 20.42 8.14348 20.56 7.80348 20.7C7.78348 20.72 7.75348 20.74 7.71348 20.76C7.67348 20.78 7.63348 20.8 7.59348 20.82C7.47348 20.88 7.34348 20.93 7.20348 20.97C7.08348 20.99 6.96348 21.01 6.84348 21.03C6.68348 21.05 6.52348 21.06 6.36348 21.06C6.20348 21.08 6.04348 21.11 5.88348 21.15ZM28.4845 23.19C28.3045 23.19 28.1445 23.12 28.0045 22.98C27.9645 22.92 27.9245 22.86 27.8845 22.8C27.8445 22.74 27.8045 22.68 27.7645 22.62C27.5845 22.2 27.4945 21.76 27.4945 21.3L27.4045 20.58C27.3445 20.3 27.2945 20.02 27.2545 19.74C27.2145 19.46 27.1445 19.19 27.0445 18.93L26.8645 18.42C26.8645 18.38 26.8545 18.34 26.8345 18.3C26.8345 18.26 26.8245 18.22 26.8045 18.18L26.3545 16.59C26.3345 16.55 26.3145 16.5 26.2945 16.44C26.2945 16.38 26.2745 16.33 26.2345 16.29C26.1745 16.17 26.1245 16.05 26.0845 15.93C26.0645 15.79 26.0345 15.65 25.9945 15.51C25.9745 15.41 25.9545 15.32 25.9345 15.24C25.9145 15.14 25.8845 15.04 25.8445 14.94C25.8045 14.82 25.7645 14.75 25.7245 14.73C25.6845 14.69 25.5945 14.69 25.4545 14.73C25.3545 14.75 25.2445 14.77 25.1245 14.79C25.0245 14.79 24.9245 14.81 24.8245 14.85C24.7445 14.87 24.6445 14.89 24.5245 14.91C24.4245 14.91 24.3245 14.92 24.2245 14.94L23.8045 15.03C23.7045 15.05 23.5945 15.08 23.4745 15.12C23.3745 15.14 23.2745 15.15 23.1745 15.15L22.6345 15.24C22.4745 15.28 22.3045 15.32 22.1245 15.36C21.9445 15.4 21.7745 15.44 21.6145 15.48C21.1345 15.6 20.6545 15.69 20.1745 15.75C20.0145 15.79 19.9245 15.86 19.9045 15.96C19.8845 15.96 19.8745 15.97 19.8745 15.99C19.7545 16.31 19.6145 16.63 19.4545 16.95C19.3145 17.25 19.1645 17.56 19.0045 17.88C18.9645 17.96 18.9245 18.04 18.8845 18.12C18.8645 18.18 18.8345 18.25 18.7945 18.33C18.7745 18.37 18.7545 18.42 18.7345 18.48C18.7145 18.52 18.6945 18.56 18.6745 18.6C18.5545 18.74 18.4945 18.91 18.4945 19.11C18.4745 19.23 18.4345 19.35 18.3745 19.47C18.3145 19.57 18.2545 19.67 18.1945 19.77C18.1745 19.83 18.1345 19.86 18.0745 19.86C17.9945 19.88 17.9145 19.91 17.8345 19.95C17.7545 19.99 17.6645 20.03 17.5645 20.07C17.5045 20.09 17.4445 20.09 17.3845 20.07C17.3445 20.05 17.2945 20.03 17.2345 20.01C17.1945 19.97 17.1545 19.95 17.1145 19.95C16.8945 19.93 16.7345 19.8 16.6345 19.56C16.4745 19.24 16.3645 18.92 16.3045 18.6C16.2845 18.52 16.2845 18.45 16.3045 18.39C16.3445 18.33 16.3745 18.27 16.3945 18.21C16.5145 18.13 16.5845 18.04 16.6045 17.94V17.91C16.6045 17.65 16.6545 17.41 16.7545 17.19C16.8745 16.95 16.9745 16.72 17.0545 16.5C17.0945 16.38 17.1445 16.26 17.2045 16.14C17.2645 16.02 17.3245 15.9 17.3845 15.78C17.4645 15.64 17.5245 15.51 17.5645 15.39C17.6245 15.25 17.6745 15.11 17.7145 14.97C17.7745 14.81 17.7745 14.66 17.7145 14.52C17.6745 14.4 17.6545 14.29 17.6545 14.19C17.6545 14.07 17.6645 13.95 17.6845 13.83C17.6845 13.61 17.7645 13.42 17.9245 13.26C18.0045 13.16 18.0845 13.08 18.1645 13.02C18.2645 12.94 18.3545 12.86 18.4345 12.78C18.6145 12.6 18.7545 12.36 18.8545 12.06C18.9345 11.8 18.9945 11.54 19.0345 11.28C19.0945 11 19.1545 10.73 19.2145 10.47C19.2545 10.21 19.2945 9.96 19.3345 9.72C19.3945 9.46 19.4545 9.21 19.5145 8.97C19.5345 8.87 19.5545 8.78 19.5745 8.7C19.6145 8.6 19.6445 8.51 19.6645 8.43C19.7245 8.27 19.7845 8.12 19.8445 7.98C19.9045 7.82 19.9445 7.66 19.9645 7.5C20.0045 7.42 20.0045 7.35 19.9645 7.29C19.9445 7.19 19.9445 7.1 19.9645 7.02C20.0045 6.94 20.0345 6.86 20.0545 6.78C20.1145 6.64 20.1545 6.5 20.1745 6.36C20.2145 6.22 20.2645 6.08 20.3245 5.94C20.4245 5.68 20.5045 5.47 20.5645 5.31C20.6445 5.13 20.7145 4.93 20.7745 4.71C20.8145 4.59 20.8545 4.48 20.8945 4.38C20.9545 4.26 20.9945 4.14 21.0145 4.02C21.0745 3.84 21.1245 3.66 21.1645 3.48C21.2045 3.28 21.2245 3.09 21.2245 2.91C21.2645 2.75 21.3045 2.64 21.3445 2.58C21.4445 2.38 21.5645 2.21 21.7045 2.07C21.8645 1.93 22.0145 1.79 22.1545 1.65C22.2545 1.59 22.3545 1.55 22.4545 1.53C22.5545 1.49 22.6545 1.5 22.7545 1.56C22.8345 1.6 22.8845 1.62 22.9045 1.62C23.0845 1.6 23.2345 1.64 23.3545 1.74C23.4745 1.84 23.5745 1.96 23.6545 2.1C23.6945 2.14 23.7245 2.19 23.7445 2.25C23.7645 2.31 23.7845 2.36 23.8045 2.4C23.9045 2.56 23.9545 2.72 23.9545 2.88C23.9545 2.96 23.9645 3.05 23.9845 3.15C24.0045 3.23 24.0245 3.32 24.0445 3.42C24.1045 3.54 24.1945 3.6 24.3145 3.6C24.3345 3.58 24.3545 3.58 24.3745 3.6C24.3945 3.62 24.4045 3.64 24.4045 3.66C24.5045 3.78 24.5345 3.91 24.4945 4.05C24.4545 4.21 24.4445 4.37 24.4645 4.53C24.5045 4.67 24.5445 4.82 24.5845 4.98C24.6645 5.18 24.7445 5.38 24.8245 5.58C24.9045 5.78 24.9845 5.98 25.0645 6.18C25.1645 6.4 25.2645 6.62 25.3645 6.84C25.4645 7.06 25.5545 7.28 25.6345 7.5C25.7345 7.78 25.8345 8.06 25.9345 8.34C26.0545 8.62 26.1845 8.9 26.3245 9.18L26.4145 9.51C26.4345 9.59 26.4545 9.67 26.4745 9.75C26.5145 9.83 26.5445 9.91 26.5645 9.99C26.6045 10.05 26.6345 10.11 26.6545 10.17C26.6945 10.23 26.7345 10.28 26.7745 10.32C26.8745 10.46 26.9345 10.61 26.9545 10.77C27.0145 10.97 27.1045 11.15 27.2245 11.31C27.2645 11.37 27.3245 11.4 27.4045 11.4C27.7045 11.36 28.0045 11.33 28.3045 11.31C28.6045 11.27 28.9045 11.21 29.2045 11.13C29.4245 11.07 29.6345 11.04 29.8345 11.04C30.2145 11.04 30.5645 11.17 30.8845 11.43C31.2645 11.73 31.4645 12.11 31.4845 12.57C31.4845 12.67 31.4945 12.75 31.5145 12.81C31.5145 12.95 31.4745 13.06 31.3945 13.14C31.3745 13.2 31.3345 13.26 31.2745 13.32C31.2345 13.38 31.1945 13.44 31.1545 13.5C31.1145 13.58 31.0745 13.64 31.0345 13.68L30.8545 13.83C30.8345 13.87 30.8045 13.92 30.7645 13.98C30.7245 14.02 30.6745 14.05 30.6145 14.07C30.5345 14.09 30.4545 14.12 30.3745 14.16C30.2945 14.18 30.2045 14.19 30.1045 14.19C29.7445 14.23 29.4245 14.22 29.1445 14.16H28.6645C28.6245 14.16 28.5645 14.18 28.4845 14.22C28.4045 14.26 28.3645 14.31 28.3645 14.37V14.49C28.4245 14.67 28.4645 14.86 28.4845 15.06C28.5245 15.24 28.5845 15.41 28.6645 15.57C28.6645 15.65 28.6845 15.73 28.7245 15.81C28.8245 15.99 28.9045 16.18 28.9645 16.38C29.0245 16.56 29.0745 16.75 29.1145 16.95C29.1145 16.99 29.1345 17.07 29.1745 17.19C29.2345 17.33 29.2845 17.48 29.3245 17.64C29.3645 17.78 29.3945 17.93 29.4145 18.09C29.4145 18.21 29.4445 18.32 29.5045 18.42C29.5845 18.6 29.6445 18.78 29.6845 18.96C29.7245 19.14 29.7545 19.33 29.7745 19.53C29.7945 19.55 29.8045 19.59 29.8045 19.65C29.8045 19.69 29.8145 19.73 29.8345 19.77C29.9345 19.99 30.0045 20.23 30.0445 20.49C30.0845 20.73 30.1345 20.97 30.1945 21.21C30.2345 21.33 30.2545 21.45 30.2545 21.57C30.2745 21.71 30.2845 21.85 30.2845 21.99C30.2845 22.09 30.2545 22.2 30.1945 22.32C30.1345 22.38 30.1045 22.41 30.1045 22.41C29.9845 22.43 29.9145 22.5 29.8945 22.62L29.8045 22.8C29.7645 22.88 29.7045 22.93 29.6245 22.95C29.5445 22.95 29.4745 22.98 29.4145 23.04C29.3345 23.12 29.2245 23.16 29.0845 23.16C29.0045 23.16 28.9045 23.16 28.7845 23.16C28.6845 23.16 28.5845 23.17 28.4845 23.19ZM21.2545 12.3C21.3745 12.28 21.4945 12.26 21.6145 12.24C21.7545 12.22 21.9045 12.2 22.0645 12.18C22.1645 12.16 22.2945 12.14 22.4545 12.12C22.6145 12.1 22.7645 12.08 22.9045 12.06C23.0445 12.02 23.1845 12 23.3245 12C23.4645 11.98 23.6045 11.96 23.7445 11.94C23.8645 11.9 23.9845 11.88 24.1045 11.88C24.2245 11.86 24.3445 11.84 24.4645 11.82C24.6445 11.78 24.7145 11.68 24.6745 11.52C24.6545 11.36 24.6145 11.2 24.5545 11.04C24.5145 10.86 24.4245 10.71 24.2845 10.59C24.2445 10.55 24.2245 10.49 24.2245 10.41V10.32C24.1845 10.16 24.1345 10.01 24.0745 9.87C24.0345 9.71 23.9845 9.56 23.9245 9.42C23.8845 9.26 23.8345 9.12 23.7745 9C23.7345 8.86 23.6845 8.72 23.6245 8.58L23.2645 7.5C23.2045 7.36 23.1445 7.22 23.0845 7.08C23.0445 6.94 23.0045 6.8 22.9645 6.66L22.8745 6.54H22.7845L22.7245 6.63C22.6245 6.93 22.5045 7.23 22.3645 7.53C22.2445 7.83 22.1345 8.15 22.0345 8.49C22.0345 8.53 22.0245 8.58 22.0045 8.64C21.9845 8.7 21.9645 8.76 21.9445 8.82C21.8645 9.02 21.7845 9.24 21.7045 9.48C21.6445 9.72 21.5945 9.96 21.5545 10.2C21.5345 10.34 21.5145 10.48 21.4945 10.62C21.4745 10.74 21.4445 10.87 21.4045 11.01L21.1345 12.18C21.1145 12.2 21.1245 12.23 21.1645 12.27C21.2045 12.29 21.2345 12.3 21.2545 12.3ZM36.5191 21.6C36.1391 21.64 35.8291 21.52 35.5891 21.24C35.4691 21.12 35.3591 20.99 35.2591 20.85C35.1591 20.71 35.0791 20.56 35.0191 20.4C34.9191 20.12 34.8291 19.84 34.7491 19.56C34.6691 19.26 34.5991 18.97 34.5391 18.69C34.4791 18.47 34.4491 18.26 34.4491 18.06C34.4291 17.84 34.3991 17.63 34.3591 17.43C34.3391 17.21 34.3291 16.99 34.3291 16.77C34.3291 16.65 34.3291 16.53 34.3291 16.41C34.3291 16.27 34.3191 16.14 34.2991 16.02C34.2791 15.94 34.2691 15.87 34.2691 15.81C34.2691 15.75 34.2691 15.68 34.2691 15.6C34.2691 15.32 34.2691 15.04 34.2691 14.76C34.2691 14.46 34.2591 14.17 34.2391 13.89C34.2391 13.73 34.2291 13.59 34.2091 13.47C34.1891 13.33 34.1491 13.19 34.0891 13.05C34.0091 12.83 33.9991 12.59 34.0591 12.33C34.0591 12.27 34.0691 12.23 34.0891 12.21C34.1291 12.07 34.1491 11.93 34.1491 11.79C34.1691 11.65 34.1691 11.51 34.1491 11.37C34.1291 11.27 34.1191 11.17 34.1191 11.07C34.1191 10.97 34.1191 10.88 34.1191 10.8C34.0991 10.58 34.0891 10.36 34.0891 10.14C34.1091 9.9 34.1291 9.67 34.1491 9.45C34.1691 9.39 34.1791 9.33 34.1791 9.27C34.1791 9.21 34.1791 9.15 34.1791 9.09C34.1591 8.87 34.1591 8.66 34.1791 8.46C34.2191 8.26 34.2491 8.06 34.2691 7.86C34.3091 7.62 34.3491 7.39 34.3891 7.17C34.4291 6.93 34.4791 6.69 34.5391 6.45C34.5791 6.35 34.5991 6.24 34.5991 6.12C34.5991 6 34.5991 5.88 34.5991 5.76C34.5991 5.66 34.5891 5.56 34.5691 5.46C34.5691 5.36 34.5691 5.27 34.5691 5.19C34.5691 5.13 34.5691 5.07 34.5691 5.01C34.5691 4.95 34.5791 4.89 34.5991 4.83C34.6191 4.77 34.6291 4.71 34.6291 4.65C34.6291 4.59 34.6391 4.55 34.6591 4.53C34.7191 4.45 34.7691 4.38 34.8091 4.32C34.8491 4.24 34.9091 4.17 34.9891 4.11C35.0891 4.05 35.1791 3.99 35.2591 3.93C35.3591 3.87 35.4491 3.82 35.5291 3.78C35.6291 3.74 35.7091 3.69 35.7691 3.63C35.8491 3.53 35.9291 3.44 36.0091 3.36C36.1091 3.26 36.1891 3.15 36.2491 3.03C36.3491 2.93 36.4491 2.82 36.5491 2.7C36.6691 2.56 36.7991 2.45 36.9391 2.37C36.9791 2.35 37.0391 2.3 37.1191 2.22C37.3591 2 37.6391 1.86 37.9591 1.8C38.0191 1.78 38.0691 1.77 38.1091 1.77C38.1691 1.75 38.2291 1.74 38.2891 1.74L38.4991 1.65C38.6591 1.59 38.7991 1.62 38.9191 1.74C38.9591 1.8 39.0091 1.86 39.0691 1.92C39.1491 1.96 39.2191 2 39.2791 2.04C39.4391 2.18 39.5891 2.33 39.7291 2.49C39.8891 2.65 40.0291 2.83 40.1491 3.03C40.3491 3.35 40.5191 3.67 40.6591 3.99C40.8191 4.31 40.9691 4.64 41.1091 4.98L41.6491 6.27C41.6691 6.39 41.7191 6.5 41.7991 6.6C41.9591 6.9 42.0791 7.21 42.1591 7.53C42.2391 7.83 42.3191 8.14 42.3991 8.46C42.4191 8.5 42.4291 8.54 42.4291 8.58C42.4491 8.62 42.4591 8.66 42.4591 8.7C42.4991 8.86 42.5291 9.03 42.5491 9.21C42.5891 9.37 42.5991 9.53 42.5791 9.69C42.5991 9.87 42.5891 10.05 42.5491 10.23C42.5291 10.39 42.4991 10.55 42.4591 10.71C42.3991 10.91 42.3291 11.1 42.2491 11.28C42.1691 11.44 42.0791 11.61 41.9791 11.79C41.9391 11.91 41.8691 12.02 41.7691 12.12C41.6691 12.22 41.5691 12.31 41.4691 12.39C41.3091 12.47 41.1491 12.59 40.9891 12.75C40.9491 12.79 40.8991 12.82 40.8391 12.84C40.7991 12.86 40.7591 12.89 40.7191 12.93C40.5791 12.99 40.4291 13.06 40.2691 13.14C40.1091 13.2 39.9491 13.26 39.7891 13.32C39.7691 13.32 39.7591 13.34 39.7591 13.38C39.7591 13.4 39.7691 13.42 39.7891 13.44L40.5991 14.01C40.6991 14.07 40.7891 14.13 40.8691 14.19C40.9491 14.23 41.0291 14.28 41.1091 14.34L41.2891 14.43C41.5291 14.57 41.7691 14.72 42.0091 14.88C42.2491 15.04 42.4791 15.2 42.6991 15.36C43.1191 15.62 43.5391 15.89 43.9591 16.17C44.3791 16.43 44.7791 16.72 45.1591 17.04C45.4991 17.3 45.7991 17.6 46.0591 17.94C46.1191 18 46.1791 18.07 46.2391 18.15C46.2991 18.21 46.3691 18.26 46.4491 18.3L46.5391 18.39C46.8591 18.67 47.0391 19.05 47.0791 19.53C47.0791 19.59 47.0691 19.65 47.0491 19.71C47.0491 19.77 47.0491 19.83 47.0491 19.89C47.0491 20.01 47.0091 20.11 46.9291 20.19C46.8491 20.23 46.8091 20.28 46.8091 20.34C46.7491 20.48 46.6591 20.58 46.5391 20.64C46.4391 20.68 46.3391 20.74 46.2391 20.82C46.1991 20.84 46.1291 20.85 46.0291 20.85C45.9091 20.83 45.7791 20.81 45.6391 20.79C45.5191 20.77 45.3991 20.76 45.2791 20.76C45.1191 20.76 44.9491 20.69 44.7691 20.55C44.6491 20.45 44.5391 20.36 44.4391 20.28C44.3391 20.18 44.2391 20.06 44.1391 19.92C43.8791 19.56 43.5391 19.23 43.1191 18.93C42.9191 18.77 42.7291 18.62 42.5491 18.48C42.3691 18.34 42.1691 18.21 41.9491 18.09C41.8091 18.01 41.6691 17.93 41.5291 17.85C41.4091 17.75 41.2691 17.66 41.1091 17.58C40.6091 17.24 40.0991 16.91 39.5791 16.59C39.0591 16.25 38.5391 15.91 38.0191 15.57C37.9391 15.51 37.8491 15.45 37.7491 15.39C37.6491 15.33 37.5491 15.27 37.4491 15.21C37.4091 15.17 37.3491 15.13 37.2691 15.09C37.1891 15.09 37.1491 15.12 37.1491 15.18C37.1491 15.2 37.1391 15.22 37.1191 15.24C37.1191 15.24 37.1191 15.25 37.1191 15.27C37.1191 15.33 37.1191 15.39 37.1191 15.45C37.1191 15.51 37.1291 15.57 37.1491 15.63C37.1691 15.79 37.1791 15.95 37.1791 16.11C37.1791 16.25 37.1791 16.4 37.1791 16.56C37.1791 16.68 37.1791 16.8 37.1791 16.92C37.1991 17.02 37.2191 17.13 37.2391 17.25C37.2391 17.31 37.2391 17.38 37.2391 17.46C37.2591 17.52 37.2691 17.58 37.2691 17.64C37.2491 17.82 37.2591 18 37.2991 18.18C37.3391 18.36 37.3691 18.54 37.3891 18.72L37.5691 19.5C37.5891 19.58 37.6091 19.67 37.6291 19.77C37.6491 19.85 37.6691 19.94 37.6891 20.04C37.7091 20.12 37.7091 20.2 37.6891 20.28C37.6891 20.34 37.6791 20.41 37.6591 20.49C37.6591 20.51 37.6391 20.54 37.5991 20.58C37.4991 20.6 37.4291 20.67 37.3891 20.79C37.3291 20.93 37.2391 21.05 37.1191 21.15C37.0191 21.27 36.9091 21.38 36.7891 21.48C36.7691 21.5 36.7291 21.52 36.6691 21.54C36.6091 21.56 36.5591 21.58 36.5191 21.6ZM37.6891 11.1H37.7491C37.9691 11.06 38.1891 11.02 38.4091 10.98C38.6491 10.92 38.8791 10.85 39.0991 10.77C39.3191 10.71 39.5091 10.6 39.6691 10.44C39.8091 10.3 39.8791 10.14 39.8791 9.96C39.8991 9.82 39.8991 9.69 39.8791 9.57C39.8791 9.43 39.8591 9.29 39.8191 9.15C39.7391 8.79 39.6491 8.44 39.5491 8.1C39.4491 7.74 39.3291 7.4 39.1891 7.08L38.9191 6.36C38.8591 6.16 38.7891 5.97 38.7091 5.79C38.6291 5.59 38.5391 5.4 38.4391 5.22C38.4191 5.18 38.3991 5.14 38.3791 5.1C38.3591 5.04 38.3391 4.99 38.3191 4.95L38.1991 4.83C38.1391 4.75 38.0691 4.75 37.9891 4.83C37.9691 4.83 37.9391 4.85 37.8991 4.89C37.7591 5.07 37.6291 5.26 37.5091 5.46C37.4091 5.66 37.3491 5.88 37.3291 6.12C37.3091 6.2 37.2891 6.28 37.2691 6.36C37.2691 6.44 37.2691 6.53 37.2691 6.63V7.92C37.2491 8.2 37.2391 8.49 37.2391 8.79C37.2591 9.09 37.2491 9.38 37.2091 9.66C37.1891 9.72 37.1791 9.78 37.1791 9.84C37.1991 9.9 37.2091 9.96 37.2091 10.02C37.2291 10.14 37.2391 10.26 37.2391 10.38C37.2391 10.48 37.2391 10.59 37.2391 10.71C37.2391 10.91 37.2591 11.03 37.2991 11.07C37.3591 11.11 37.4891 11.12 37.6891 11.1ZM54.2744 20.97C54.2344 20.95 54.1744 20.94 54.0944 20.94C54.0544 20.94 54.0144 20.91 53.9744 20.85C53.9344 20.79 53.8944 20.74 53.8544 20.7C53.8144 20.64 53.7744 20.57 53.7344 20.49C53.6744 20.41 53.6244 20.41 53.5844 20.49H53.5244C53.5244 20.47 53.5144 20.46 53.4944 20.46C53.4944 20.44 53.4944 20.43 53.4944 20.43C53.4344 20.15 53.3444 19.89 53.2244 19.65C53.1644 19.49 53.1044 19.33 53.0444 19.17C53.0044 18.99 52.9744 18.81 52.9544 18.63L52.7744 17.31L52.6844 16.23V16.17C52.6444 15.93 52.6244 15.69 52.6244 15.45C52.6244 15.19 52.6244 14.93 52.6244 14.67C52.6044 14.53 52.5944 14.4 52.5944 14.28C52.5944 14.14 52.5844 14 52.5644 13.86C52.5444 13.7 52.5244 13.54 52.5044 13.38C52.5044 13.22 52.5044 13.07 52.5044 12.93L52.5344 10.56V7.35C52.4944 7.23 52.4344 7.17 52.3544 7.17C52.3144 7.17 52.2644 7.18 52.2044 7.2C52.1644 7.2 52.1244 7.2 52.0844 7.2L50.7344 7.56C50.5544 7.62 50.3744 7.68 50.1944 7.74C50.0144 7.78 49.8344 7.83 49.6544 7.89C49.5144 7.91 49.3744 7.93 49.2344 7.95C49.1144 7.95 48.9844 7.95 48.8444 7.95C48.7444 7.95 48.6344 7.91 48.5144 7.83C48.3744 7.77 48.2544 7.69 48.1544 7.59C48.0544 7.49 47.9544 7.38 47.8544 7.26L47.7944 7.17C47.7544 7.03 47.7144 6.9 47.6744 6.78C47.6544 6.64 47.6544 6.5 47.6744 6.36C47.6944 6.18 47.7344 6.01 47.7944 5.85C47.8744 5.69 47.9844 5.55 48.1244 5.43C48.1844 5.39 48.2344 5.34 48.2744 5.28C48.3344 5.22 48.3944 5.16 48.4544 5.1C48.5344 5.06 48.5844 5.04 48.6044 5.04C48.7244 5.04 48.8344 5.02 48.9344 4.98C49.0344 4.92 49.1344 4.88 49.2344 4.86C49.3344 4.84 49.4344 4.82 49.5344 4.8C49.6344 4.78 49.7344 4.76 49.8344 4.74C50.1144 4.66 50.3944 4.59 50.6744 4.53C50.9544 4.45 51.2344 4.39 51.5144 4.35L53.1344 4.08C53.1744 4.06 53.2044 4.05 53.2244 4.05C53.2644 4.05 53.2944 4.04 53.3144 4.02C53.4344 3.98 53.5544 3.95 53.6744 3.93C53.7944 3.91 53.9144 3.92 54.0344 3.96C54.0744 3.98 54.1044 3.99 54.1244 3.99C54.1644 3.97 54.1944 3.96 54.2144 3.96C54.5544 3.92 54.8944 3.88 55.2344 3.84C55.5744 3.8 55.9044 3.75 56.2244 3.69C56.4844 3.65 56.7444 3.61 57.0044 3.57C57.2644 3.53 57.5244 3.5 57.7844 3.48C57.9844 3.44 58.1844 3.41 58.3844 3.39C58.5844 3.37 58.7844 3.35 58.9844 3.33C59.1444 3.31 59.3044 3.29 59.4644 3.27C59.6444 3.25 59.8144 3.23 59.9744 3.21C60.1344 3.19 60.2844 3.19 60.4244 3.21C60.5844 3.21 60.7444 3.21 60.9044 3.21C61.0044 3.21 61.0944 3.24 61.1744 3.3C61.2744 3.36 61.3644 3.41 61.4444 3.45C61.5244 3.51 61.6344 3.61 61.7744 3.75C61.8144 3.79 61.8544 3.88 61.8944 4.02C61.9144 4.08 61.9344 4.15 61.9544 4.23C61.9744 4.29 61.9944 4.36 62.0144 4.44C62.0544 4.62 62.0344 4.79 61.9544 4.95L61.7744 5.37C61.7544 5.43 61.7244 5.49 61.6844 5.55C61.6644 5.59 61.6344 5.63 61.5944 5.67C61.5544 5.71 61.5344 5.73 61.5344 5.73C61.4544 5.79 61.3644 5.85 61.2644 5.91C61.1844 5.97 61.0844 6.01 60.9644 6.03L59.6744 6.12C59.5544 6.12 59.4344 6.13 59.3144 6.15C59.1944 6.15 59.0644 6.16 58.9244 6.18H58.7744C58.4544 6.2 58.1444 6.23 57.8444 6.27C57.5444 6.31 57.2444 6.35 56.9444 6.39L55.7444 6.57C55.6844 6.57 55.6444 6.58 55.6244 6.6C55.5444 6.6 55.4844 6.66 55.4444 6.78V6.87C55.4444 7.07 55.4444 7.27 55.4444 7.47C55.4444 7.65 55.4544 7.84 55.4744 8.04C55.5344 8.32 55.5344 8.6 55.4744 8.88C55.4544 8.94 55.4344 9 55.4144 9.06C55.4144 9.1 55.4144 9.14 55.4144 9.18C55.4344 9.42 55.4144 9.68 55.3544 9.96C55.3544 10.02 55.3544 10.08 55.3544 10.14C55.3544 10.2 55.3644 10.26 55.3844 10.32C55.4044 10.4 55.4144 10.49 55.4144 10.59C55.4144 10.69 55.4144 10.79 55.4144 10.89V12.45C55.4144 12.53 55.4044 12.63 55.3844 12.75C55.3844 12.85 55.3844 12.95 55.3844 13.05C55.3844 13.13 55.3844 13.22 55.3844 13.32C55.4044 13.42 55.4144 13.52 55.4144 13.62C55.4144 13.76 55.4144 13.9 55.4144 14.04C55.4344 14.18 55.4344 14.33 55.4144 14.49V15.42C55.4144 15.44 55.4044 15.46 55.3844 15.48C55.3844 15.5 55.3944 15.53 55.4144 15.57C55.4344 15.75 55.4444 15.94 55.4444 16.14C55.4444 16.32 55.4644 16.5 55.5044 16.68C55.5044 16.74 55.5044 16.8 55.5044 16.86C55.5244 16.92 55.5244 16.98 55.5044 17.04C55.5044 17.22 55.5244 17.41 55.5644 17.61C55.6044 17.79 55.6344 17.97 55.6544 18.15C55.6944 18.37 55.7344 18.59 55.7744 18.81C55.8344 19.03 55.8844 19.25 55.9244 19.47L56.0144 19.89C56.0144 19.95 55.9844 20 55.9244 20.04C55.9244 20.04 55.9144 20.04 55.8944 20.04C55.8944 20.04 55.8844 20.05 55.8644 20.07C55.7644 20.11 55.7244 20.17 55.7444 20.25V20.4C55.7444 20.4 55.7344 20.41 55.7144 20.43C55.7144 20.45 55.7044 20.46 55.6844 20.46C55.5844 20.46 55.5044 20.5 55.4444 20.58C55.3844 20.66 55.3144 20.73 55.2344 20.79C55.1744 20.83 55.0944 20.87 54.9944 20.91C54.7344 21.01 54.4944 21.03 54.2744 20.97ZM74.9786 23.19C74.7986 23.19 74.6386 23.12 74.4986 22.98C74.4586 22.92 74.4186 22.86 74.3786 22.8C74.3386 22.74 74.2986 22.68 74.2586 22.62C74.0786 22.2 73.9886 21.76 73.9886 21.3L73.8986 20.58C73.8386 20.3 73.7886 20.02 73.7486 19.74C73.7086 19.46 73.6386 19.19 73.5386 18.93L73.3586 18.42C73.3586 18.38 73.3486 18.34 73.3286 18.3C73.3286 18.26 73.3186 18.22 73.2986 18.18L72.8486 16.59C72.8286 16.55 72.8086 16.5 72.7886 16.44C72.7886 16.38 72.7686 16.33 72.7286 16.29C72.6686 16.17 72.6186 16.05 72.5786 15.93C72.5586 15.79 72.5286 15.65 72.4886 15.51C72.4686 15.41 72.4486 15.32 72.4286 15.24C72.4086 15.14 72.3786 15.04 72.3386 14.94C72.2986 14.82 72.2586 14.75 72.2186 14.73C72.1786 14.69 72.0886 14.69 71.9486 14.73C71.8486 14.75 71.7386 14.77 71.6186 14.79C71.5186 14.79 71.4186 14.81 71.3186 14.85C71.2386 14.87 71.1386 14.89 71.0186 14.91C70.9186 14.91 70.8186 14.92 70.7186 14.94L70.2986 15.03C70.1986 15.05 70.0886 15.08 69.9686 15.12C69.8686 15.14 69.7686 15.15 69.6686 15.15L69.1286 15.24C68.9686 15.28 68.7986 15.32 68.6186 15.36C68.4386 15.4 68.2686 15.44 68.1086 15.48C67.6286 15.6 67.1486 15.69 66.6686 15.75C66.5086 15.79 66.4186 15.86 66.3986 15.96C66.3786 15.96 66.3686 15.97 66.3686 15.99C66.2486 16.31 66.1086 16.63 65.9486 16.95C65.8086 17.25 65.6586 17.56 65.4986 17.88C65.4586 17.96 65.4186 18.04 65.3786 18.12C65.3586 18.18 65.3286 18.25 65.2886 18.33C65.2686 18.37 65.2486 18.42 65.2286 18.48C65.2086 18.52 65.1886 18.56 65.1686 18.6C65.0486 18.74 64.9886 18.91 64.9886 19.11C64.9686 19.23 64.9286 19.35 64.8686 19.47C64.8086 19.57 64.7486 19.67 64.6886 19.77C64.6686 19.83 64.6286 19.86 64.5686 19.86C64.4886 19.88 64.4086 19.91 64.3286 19.95C64.2486 19.99 64.1586 20.03 64.0586 20.07C63.9986 20.09 63.9386 20.09 63.8786 20.07C63.8386 20.05 63.7886 20.03 63.7286 20.01C63.6886 19.97 63.6486 19.95 63.6086 19.95C63.3886 19.93 63.2286 19.8 63.1286 19.56C62.9686 19.24 62.8586 18.92 62.7986 18.6C62.7786 18.52 62.7786 18.45 62.7986 18.39C62.8386 18.33 62.8686 18.27 62.8886 18.21C63.0086 18.13 63.0786 18.04 63.0986 17.94V17.91C63.0986 17.65 63.1486 17.41 63.2486 17.19C63.3686 16.95 63.4686 16.72 63.5486 16.5C63.5886 16.38 63.6386 16.26 63.6986 16.14C63.7586 16.02 63.8186 15.9 63.8786 15.78C63.9586 15.64 64.0186 15.51 64.0586 15.39C64.1186 15.25 64.1686 15.11 64.2086 14.97C64.2686 14.81 64.2686 14.66 64.2086 14.52C64.1686 14.4 64.1486 14.29 64.1486 14.19C64.1486 14.07 64.1586 13.95 64.1786 13.83C64.1786 13.61 64.2586 13.42 64.4186 13.26C64.4986 13.16 64.5786 13.08 64.6586 13.02C64.7586 12.94 64.8486 12.86 64.9286 12.78C65.1086 12.6 65.2486 12.36 65.3486 12.06C65.4286 11.8 65.4886 11.54 65.5286 11.28C65.5886 11 65.6486 10.73 65.7086 10.47C65.7486 10.21 65.7886 9.96 65.8286 9.72C65.8886 9.46 65.9486 9.21 66.0086 8.97C66.0286 8.87 66.0486 8.78 66.0686 8.7C66.1086 8.6 66.1386 8.51 66.1586 8.43C66.2186 8.27 66.2786 8.12 66.3386 7.98C66.3986 7.82 66.4386 7.66 66.4586 7.5C66.4986 7.42 66.4986 7.35 66.4586 7.29C66.4386 7.19 66.4386 7.1 66.4586 7.02C66.4986 6.94 66.5286 6.86 66.5486 6.78C66.6086 6.64 66.6486 6.5 66.6686 6.36C66.7086 6.22 66.7586 6.08 66.8186 5.94C66.9186 5.68 66.9986 5.47 67.0586 5.31C67.1386 5.13 67.2086 4.93 67.2686 4.71C67.3086 4.59 67.3486 4.48 67.3886 4.38C67.4486 4.26 67.4886 4.14 67.5086 4.02C67.5686 3.84 67.6186 3.66 67.6586 3.48C67.6986 3.28 67.7186 3.09 67.7186 2.91C67.7586 2.75 67.7986 2.64 67.8386 2.58C67.9386 2.38 68.0586 2.21 68.1986 2.07C68.3586 1.93 68.5086 1.79 68.6486 1.65C68.7486 1.59 68.8486 1.55 68.9486 1.53C69.0486 1.49 69.1486 1.5 69.2486 1.56C69.3286 1.6 69.3786 1.62 69.3986 1.62C69.5786 1.6 69.7286 1.64 69.8486 1.74C69.9686 1.84 70.0686 1.96 70.1486 2.1C70.1886 2.14 70.2186 2.19 70.2386 2.25C70.2586 2.31 70.2786 2.36 70.2986 2.4C70.3986 2.56 70.4486 2.72 70.4486 2.88C70.4486 2.96 70.4586 3.05 70.4786 3.15C70.4986 3.23 70.5186 3.32 70.5386 3.42C70.5986 3.54 70.6886 3.6 70.8086 3.6C70.8286 3.58 70.8486 3.58 70.8686 3.6C70.8886 3.62 70.8986 3.64 70.8986 3.66C70.9986 3.78 71.0286 3.91 70.9886 4.05C70.9486 4.21 70.9386 4.37 70.9586 4.53C70.9986 4.67 71.0386 4.82 71.0786 4.98C71.1586 5.18 71.2386 5.38 71.3186 5.58C71.3986 5.78 71.4786 5.98 71.5586 6.18C71.6586 6.4 71.7586 6.62 71.8586 6.84C71.9586 7.06 72.0486 7.28 72.1286 7.5C72.2286 7.78 72.3286 8.06 72.4286 8.34C72.5486 8.62 72.6786 8.9 72.8186 9.18L72.9086 9.51C72.9286 9.59 72.9486 9.67 72.9686 9.75C73.0086 9.83 73.0386 9.91 73.0586 9.99C73.0986 10.05 73.1286 10.11 73.1486 10.17C73.1886 10.23 73.2286 10.28 73.2686 10.32C73.3686 10.46 73.4286 10.61 73.4486 10.77C73.5086 10.97 73.5986 11.15 73.7186 11.31C73.7586 11.37 73.8186 11.4 73.8986 11.4C74.1986 11.36 74.4986 11.33 74.7986 11.31C75.0986 11.27 75.3986 11.21 75.6986 11.13C75.9186 11.07 76.1286 11.04 76.3286 11.04C76.7086 11.04 77.0586 11.17 77.3786 11.43C77.7586 11.73 77.9586 12.11 77.9786 12.57C77.9786 12.67 77.9886 12.75 78.0086 12.81C78.0086 12.95 77.9686 13.06 77.8886 13.14C77.8686 13.2 77.8286 13.26 77.7686 13.32C77.7286 13.38 77.6886 13.44 77.6486 13.5C77.6086 13.58 77.5686 13.64 77.5286 13.68L77.3486 13.83C77.3286 13.87 77.2986 13.92 77.2586 13.98C77.2186 14.02 77.1686 14.05 77.1086 14.07C77.0286 14.09 76.9486 14.12 76.8686 14.16C76.7886 14.18 76.6986 14.19 76.5986 14.19C76.2386 14.23 75.9186 14.22 75.6386 14.16H75.1586C75.1186 14.16 75.0586 14.18 74.9786 14.22C74.8986 14.26 74.8586 14.31 74.8586 14.37V14.49C74.9186 14.67 74.9586 14.86 74.9786 15.06C75.0186 15.24 75.0786 15.41 75.1586 15.57C75.1586 15.65 75.1786 15.73 75.2186 15.81C75.3186 15.99 75.3986 16.18 75.4586 16.38C75.5186 16.56 75.5686 16.75 75.6086 16.95C75.6086 16.99 75.6286 17.07 75.6686 17.19C75.7286 17.33 75.7786 17.48 75.8186 17.64C75.8586 17.78 75.8886 17.93 75.9086 18.09C75.9086 18.21 75.9386 18.32 75.9986 18.42C76.0786 18.6 76.1386 18.78 76.1786 18.96C76.2186 19.14 76.2486 19.33 76.2686 19.53C76.2886 19.55 76.2986 19.59 76.2986 19.65C76.2986 19.69 76.3086 19.73 76.3286 19.77C76.4286 19.99 76.4986 20.23 76.5386 20.49C76.5786 20.73 76.6286 20.97 76.6886 21.21C76.7286 21.33 76.7486 21.45 76.7486 21.57C76.7686 21.71 76.7786 21.85 76.7786 21.99C76.7786 22.09 76.7486 22.2 76.6886 22.32C76.6286 22.38 76.5986 22.41 76.5986 22.41C76.4786 22.43 76.4086 22.5 76.3886 22.62L76.2986 22.8C76.2586 22.88 76.1986 22.93 76.1186 22.95C76.0386 22.95 75.9686 22.98 75.9086 23.04C75.8286 23.12 75.7186 23.16 75.5786 23.16C75.4986 23.16 75.3986 23.16 75.2786 23.16C75.1786 23.16 75.0786 23.17 74.9786 23.19ZM67.7486 12.3C67.8686 12.28 67.9886 12.26 68.1086 12.24C68.2486 12.22 68.3986 12.2 68.5586 12.18C68.6586 12.16 68.7886 12.14 68.9486 12.12C69.1086 12.1 69.2586 12.08 69.3986 12.06C69.5386 12.02 69.6786 12 69.8186 12C69.9586 11.98 70.0986 11.96 70.2386 11.94C70.3586 11.9 70.4786 11.88 70.5986 11.88C70.7186 11.86 70.8386 11.84 70.9586 11.82C71.1386 11.78 71.2086 11.68 71.1686 11.52C71.1486 11.36 71.1086 11.2 71.0486 11.04C71.0086 10.86 70.9186 10.71 70.7786 10.59C70.7386 10.55 70.7186 10.49 70.7186 10.41V10.32C70.6786 10.16 70.6286 10.01 70.5686 9.87C70.5286 9.71 70.4786 9.56 70.4186 9.42C70.3786 9.26 70.3286 9.12 70.2686 9C70.2286 8.86 70.1786 8.72 70.1186 8.58L69.7586 7.5C69.6986 7.36 69.6386 7.22 69.5786 7.08C69.5386 6.94 69.4986 6.8 69.4586 6.66L69.3686 6.54H69.2786L69.2186 6.63C69.1186 6.93 68.9986 7.23 68.8586 7.53C68.7386 7.83 68.6286 8.15 68.5286 8.49C68.5286 8.53 68.5186 8.58 68.4986 8.64C68.4786 8.7 68.4586 8.76 68.4386 8.82C68.3586 9.02 68.2786 9.24 68.1986 9.48C68.1386 9.72 68.0886 9.96 68.0486 10.2C68.0286 10.34 68.0086 10.48 67.9886 10.62C67.9686 10.74 67.9386 10.87 67.8986 11.01L67.6286 12.18C67.6086 12.2 67.6186 12.23 67.6586 12.27C67.6986 12.29 67.7286 12.3 67.7486 12.3ZM104.012 23.19C103.832 23.19 103.672 23.12 103.532 22.98C103.492 22.92 103.452 22.86 103.412 22.8C103.372 22.74 103.332 22.68 103.292 22.62C103.112 22.2 103.022 21.76 103.022 21.3L102.932 20.58C102.872 20.3 102.822 20.02 102.782 19.74C102.742 19.46 102.672 19.19 102.572 18.93L102.392 18.42C102.392 18.38 102.382 18.34 102.362 18.3C102.362 18.26 102.352 18.22 102.332 18.18L101.882 16.59C101.862 16.55 101.842 16.5 101.822 16.44C101.822 16.38 101.802 16.33 101.762 16.29C101.702 16.17 101.652 16.05 101.612 15.93C101.592 15.79 101.562 15.65 101.522 15.51C101.502 15.41 101.482 15.32 101.462 15.24C101.442 15.14 101.412 15.04 101.372 14.94C101.332 14.82 101.292 14.75 101.252 14.73C101.212 14.69 101.122 14.69 100.982 14.73C100.882 14.75 100.772 14.77 100.652 14.79C100.552 14.79 100.452 14.81 100.352 14.85C100.272 14.87 100.172 14.89 100.052 14.91C99.9518 14.91 99.8518 14.92 99.7518 14.94L99.3318 15.03C99.2318 15.05 99.1218 15.08 99.0018 15.12C98.9018 15.14 98.8018 15.15 98.7018 15.15L98.1618 15.24C98.0018 15.28 97.8318 15.32 97.6518 15.36C97.4718 15.4 97.3018 15.44 97.1418 15.48C96.6618 15.6 96.1818 15.69 95.7018 15.75C95.5418 15.79 95.4518 15.86 95.4318 15.96C95.4118 15.96 95.4018 15.97 95.4018 15.99C95.2818 16.31 95.1418 16.63 94.9818 16.95C94.8418 17.25 94.6918 17.56 94.5318 17.88C94.4918 17.96 94.4518 18.04 94.4118 18.12C94.3918 18.18 94.3618 18.25 94.3218 18.33C94.3018 18.37 94.2818 18.42 94.2618 18.48C94.2418 18.52 94.2218 18.56 94.2018 18.6C94.0818 18.74 94.0218 18.91 94.0218 19.11C94.0018 19.23 93.9618 19.35 93.9018 19.47C93.8418 19.57 93.7818 19.67 93.7218 19.77C93.7018 19.83 93.6618 19.86 93.6018 19.86C93.5218 19.88 93.4418 19.91 93.3618 19.95C93.2818 19.99 93.1918 20.03 93.0918 20.07C93.0318 20.09 92.9718 20.09 92.9118 20.07C92.8718 20.05 92.8218 20.03 92.7618 20.01C92.7218 19.97 92.6818 19.95 92.6418 19.95C92.4218 19.93 92.2618 19.8 92.1618 19.56C92.0018 19.24 91.8918 18.92 91.8318 18.6C91.8118 18.52 91.8118 18.45 91.8318 18.39C91.8718 18.33 91.9018 18.27 91.9218 18.21C92.0418 18.13 92.1118 18.04 92.1318 17.94V17.91C92.1318 17.65 92.1818 17.41 92.2818 17.19C92.4018 16.95 92.5018 16.72 92.5818 16.5C92.6218 16.38 92.6718 16.26 92.7318 16.14C92.7918 16.02 92.8518 15.9 92.9118 15.78C92.9918 15.64 93.0518 15.51 93.0918 15.39C93.1518 15.25 93.2018 15.11 93.2418 14.97C93.3018 14.81 93.3018 14.66 93.2418 14.52C93.2018 14.4 93.1818 14.29 93.1818 14.19C93.1818 14.07 93.1918 13.95 93.2118 13.83C93.2118 13.61 93.2918 13.42 93.4518 13.26C93.5318 13.16 93.6118 13.08 93.6918 13.02C93.7918 12.94 93.8818 12.86 93.9618 12.78C94.1418 12.6 94.2818 12.36 94.3818 12.06C94.4618 11.8 94.5218 11.54 94.5618 11.28C94.6218 11 94.6818 10.73 94.7418 10.47C94.7818 10.21 94.8218 9.96 94.8618 9.72C94.9218 9.46 94.9818 9.21 95.0418 8.97C95.0618 8.87 95.0818 8.78 95.1018 8.7C95.1418 8.6 95.1718 8.51 95.1918 8.43C95.2518 8.27 95.3118 8.12 95.3718 7.98C95.4318 7.82 95.4718 7.66 95.4918 7.5C95.5318 7.42 95.5318 7.35 95.4918 7.29C95.4718 7.19 95.4718 7.1 95.4918 7.02C95.5318 6.94 95.5618 6.86 95.5818 6.78C95.6418 6.64 95.6818 6.5 95.7018 6.36C95.7418 6.22 95.7918 6.08 95.8518 5.94C95.9518 5.68 96.0318 5.47 96.0918 5.31C96.1718 5.13 96.2418 4.93 96.3018 4.71C96.3418 4.59 96.3818 4.48 96.4218 4.38C96.4818 4.26 96.5218 4.14 96.5418 4.02C96.6018 3.84 96.6518 3.66 96.6918 3.48C96.7318 3.28 96.7518 3.09 96.7518 2.91C96.7918 2.75 96.8318 2.64 96.8718 2.58C96.9718 2.38 97.0918 2.21 97.2318 2.07C97.3918 1.93 97.5418 1.79 97.6818 1.65C97.7818 1.59 97.8818 1.55 97.9818 1.53C98.0818 1.49 98.1818 1.5 98.2818 1.56C98.3618 1.6 98.4118 1.62 98.4318 1.62C98.6118 1.6 98.7618 1.64 98.8818 1.74C99.0018 1.84 99.1018 1.96 99.1818 2.1C99.2218 2.14 99.2518 2.19 99.2718 2.25C99.2918 2.31 99.3118 2.36 99.3318 2.4C99.4318 2.56 99.4818 2.72 99.4818 2.88C99.4818 2.96 99.4918 3.05 99.5118 3.15C99.5318 3.23 99.5518 3.32 99.5718 3.42C99.6318 3.54 99.7218 3.6 99.8418 3.6C99.8618 3.58 99.8818 3.58 99.9018 3.6C99.9218 3.62 99.9318 3.64 99.9318 3.66C100.032 3.78 100.062 3.91 100.022 4.05C99.9818 4.21 99.9718 4.37 99.9918 4.53C100.032 4.67 100.072 4.82 100.112 4.98C100.192 5.18 100.272 5.38 100.352 5.58C100.432 5.78 100.512 5.98 100.592 6.18C100.692 6.4 100.792 6.62 100.892 6.84C100.992 7.06 101.082 7.28 101.162 7.5C101.262 7.78 101.362 8.06 101.462 8.34C101.582 8.62 101.712 8.9 101.852 9.18L101.942 9.51C101.962 9.59 101.982 9.67 102.002 9.75C102.042 9.83 102.072 9.91 102.092 9.99C102.132 10.05 102.162 10.11 102.182 10.17C102.222 10.23 102.262 10.28 102.302 10.32C102.402 10.46 102.462 10.61 102.482 10.77C102.542 10.97 102.632 11.15 102.752 11.31C102.792 11.37 102.852 11.4 102.932 11.4C103.232 11.36 103.532 11.33 103.832 11.31C104.132 11.27 104.432 11.21 104.732 11.13C104.952 11.07 105.162 11.04 105.362 11.04C105.742 11.04 106.092 11.17 106.412 11.43C106.792 11.73 106.992 12.11 107.012 12.57C107.012 12.67 107.022 12.75 107.042 12.81C107.042 12.95 107.002 13.06 106.922 13.14C106.902 13.2 106.862 13.26 106.802 13.32C106.762 13.38 106.722 13.44 106.682 13.5C106.642 13.58 106.602 13.64 106.562 13.68L106.382 13.83C106.362 13.87 106.332 13.92 106.292 13.98C106.252 14.02 106.202 14.05 106.142 14.07C106.062 14.09 105.982 14.12 105.902 14.16C105.822 14.18 105.732 14.19 105.632 14.19C105.272 14.23 104.952 14.22 104.672 14.16H104.192C104.152 14.16 104.092 14.18 104.012 14.22C103.932 14.26 103.892 14.31 103.892 14.37V14.49C103.952 14.67 103.992 14.86 104.012 15.06C104.052 15.24 104.112 15.41 104.192 15.57C104.192 15.65 104.212 15.73 104.252 15.81C104.352 15.99 104.432 16.18 104.492 16.38C104.552 16.56 104.602 16.75 104.642 16.95C104.642 16.99 104.662 17.07 104.702 17.19C104.762 17.33 104.812 17.48 104.852 17.64C104.892 17.78 104.922 17.93 104.942 18.09C104.942 18.21 104.972 18.32 105.032 18.42C105.112 18.6 105.172 18.78 105.212 18.96C105.252 19.14 105.282 19.33 105.302 19.53C105.322 19.55 105.332 19.59 105.332 19.65C105.332 19.69 105.342 19.73 105.362 19.77C105.462 19.99 105.532 20.23 105.572 20.49C105.612 20.73 105.662 20.97 105.722 21.21C105.762 21.33 105.782 21.45 105.782 21.57C105.802 21.71 105.812 21.85 105.812 21.99C105.812 22.09 105.782 22.2 105.722 22.32C105.662 22.38 105.632 22.41 105.632 22.41C105.512 22.43 105.442 22.5 105.422 22.62L105.332 22.8C105.292 22.88 105.232 22.93 105.152 22.95C105.072 22.95 105.002 22.98 104.942 23.04C104.862 23.12 104.752 23.16 104.612 23.16C104.532 23.16 104.432 23.16 104.312 23.16C104.212 23.16 104.112 23.17 104.012 23.19ZM96.7818 12.3C96.9018 12.28 97.0218 12.26 97.1418 12.24C97.2818 12.22 97.4318 12.2 97.5918 12.18C97.6918 12.16 97.8218 12.14 97.9818 12.12C98.1418 12.1 98.2918 12.08 98.4318 12.06C98.5718 12.02 98.7118 12 98.8518 12C98.9918 11.98 99.1318 11.96 99.2718 11.94C99.3918 11.9 99.5118 11.88 99.6318 11.88C99.7518 11.86 99.8718 11.84 99.9918 11.82C100.172 11.78 100.242 11.68 100.202 11.52C100.182 11.36 100.142 11.2 100.082 11.04C100.042 10.86 99.9518 10.71 99.8118 10.59C99.7718 10.55 99.7518 10.49 99.7518 10.41V10.32C99.7118 10.16 99.6618 10.01 99.6018 9.87C99.5618 9.71 99.5118 9.56 99.4518 9.42C99.4118 9.26 99.3618 9.12 99.3018 9C99.2618 8.86 99.2118 8.72 99.1518 8.58L98.7918 7.5C98.7318 7.36 98.6718 7.22 98.6118 7.08C98.5718 6.94 98.5318 6.8 98.4918 6.66L98.4018 6.54H98.3118L98.2518 6.63C98.1518 6.93 98.0318 7.23 97.8918 7.53C97.7718 7.83 97.6618 8.15 97.5618 8.49C97.5618 8.53 97.5518 8.58 97.5318 8.64C97.5118 8.7 97.4918 8.76 97.4718 8.82C97.3918 9.02 97.3118 9.24 97.2318 9.48C97.1718 9.72 97.1218 9.96 97.0818 10.2C97.0618 10.34 97.0418 10.48 97.0218 10.62C97.0018 10.74 96.9718 10.87 96.9318 11.01L96.6618 12.18C96.6418 12.2 96.6518 12.23 96.6918 12.27C96.7318 12.29 96.7618 12.3 96.7818 12.3ZM115.917 21.6C115.717 21.58 115.517 21.55 115.317 21.51C115.137 21.49 114.957 21.44 114.777 21.36L114.027 21.09C113.767 20.99 113.527 20.88 113.307 20.76C113.087 20.62 112.867 20.48 112.647 20.34C112.547 20.24 112.447 20.15 112.347 20.07C112.247 19.97 112.147 19.88 112.047 19.8C111.887 19.64 111.727 19.48 111.567 19.32C111.407 19.14 111.257 18.95 111.117 18.75L110.397 17.64C110.217 17.36 110.057 17.07 109.917 16.77C109.777 16.45 109.657 16.13 109.557 15.81C109.337 15.21 109.227 14.62 109.227 14.04V13.56C109.227 13.06 109.257 12.57 109.317 12.09C109.357 11.69 109.447 11.33 109.587 11.01C109.667 10.81 109.737 10.61 109.797 10.41C109.857 10.21 109.927 10.02 110.007 9.84L110.097 9.63C110.137 9.37 110.227 9.14 110.367 8.94C110.507 8.72 110.627 8.51 110.727 8.31C110.807 8.15 110.897 8.01 110.997 7.89C111.097 7.75 111.187 7.61 111.267 7.47C111.307 7.41 111.357 7.36 111.417 7.32C111.477 7.26 111.527 7.2 111.567 7.14C111.607 7.1 111.637 7.05 111.657 6.99C111.697 6.91 111.727 6.84 111.747 6.78C111.787 6.72 111.857 6.64 111.957 6.54C112.077 6.48 112.187 6.34 112.287 6.12C112.327 6.04 112.367 5.98 112.407 5.94C112.527 5.84 112.627 5.72 112.707 5.58C112.807 5.44 112.917 5.31 113.037 5.19C113.117 5.11 113.157 5 113.157 4.86C113.157 4.76 113.157 4.67 113.157 4.59C113.177 4.49 113.177 4.4 113.157 4.32C113.137 4.22 113.167 4.13 113.247 4.05C113.287 4.01 113.317 3.96 113.337 3.9C113.357 3.84 113.377 3.78 113.397 3.72C113.457 3.52 113.617 3.35 113.877 3.21C113.917 3.17 113.967 3.15 114.027 3.15C114.107 3.13 114.177 3.11 114.237 3.09C114.377 3.03 114.537 3.02 114.717 3.06C114.797 3.08 114.867 3.09 114.927 3.09C114.987 3.07 115.047 3.05 115.107 3.03C115.187 2.99 115.257 2.96 115.317 2.94C115.397 2.92 115.467 2.9 115.527 2.88C115.807 2.78 116.097 2.79 116.397 2.91C116.717 3.03 116.947 3.24 117.087 3.54C117.127 3.64 117.167 3.74 117.207 3.84C117.247 3.94 117.277 4.04 117.297 4.14C117.337 4.36 117.327 4.55 117.267 4.71C117.227 4.79 117.207 4.84 117.207 4.86C117.187 4.94 117.207 5.01 117.267 5.07C117.307 5.13 117.357 5.18 117.417 5.22C117.637 5.42 117.847 5.62 118.047 5.82C118.247 6 118.437 6.2 118.617 6.42C118.777 6.58 118.907 6.75 119.007 6.93C119.127 7.09 119.237 7.27 119.337 7.47C119.377 7.57 119.427 7.68 119.487 7.8C119.547 7.9 119.607 8 119.667 8.1C119.767 8.28 119.847 8.47 119.907 8.67C119.987 8.87 120.067 9.07 120.147 9.27V9.3C120.187 9.44 120.217 9.59 120.237 9.75C120.277 9.89 120.337 10.04 120.417 10.2C120.477 10.34 120.527 10.49 120.567 10.65C120.607 10.79 120.647 10.94 120.687 11.1C120.727 11.28 120.767 11.46 120.807 11.64C120.867 11.82 120.907 12 120.927 12.18C120.947 12.26 120.967 12.34 120.987 12.42C121.007 12.48 121.027 12.55 121.047 12.63C121.087 12.81 121.127 12.99 121.167 13.17C121.207 13.35 121.237 13.53 121.257 13.71L121.347 13.92C121.387 14.04 121.427 14.2 121.467 14.4C121.527 14.66 121.557 14.92 121.557 15.18C121.577 15.44 121.577 15.71 121.557 15.99C121.557 16.13 121.547 16.24 121.527 16.32C121.407 16.74 121.257 17.17 121.077 17.61C120.997 17.75 120.917 17.89 120.837 18.03C120.757 18.15 120.677 18.28 120.597 18.42L120.327 18.84C120.227 19.02 120.117 19.18 119.997 19.32C119.797 19.64 119.557 19.92 119.277 20.16C118.997 20.4 118.697 20.63 118.377 20.85C117.677 21.39 116.857 21.64 115.917 21.6ZM115.797 18.63C116.217 18.63 116.577 18.51 116.877 18.27C116.977 18.17 117.077 18.08 117.177 18C117.297 17.9 117.397 17.8 117.477 17.7C117.857 17.28 118.157 16.84 118.377 16.38L118.467 16.08C118.507 15.72 118.507 15.36 118.467 15L118.287 14.01C118.227 13.75 118.177 13.5 118.137 13.26C118.097 13 118.037 12.75 117.957 12.51C117.897 12.37 117.877 12.26 117.897 12.18C117.917 12.08 117.917 11.98 117.897 11.88C117.877 11.78 117.847 11.68 117.807 11.58C117.747 11.32 117.677 11.06 117.597 10.8C117.517 10.54 117.437 10.28 117.357 10.02C117.337 9.96 117.317 9.9 117.297 9.84C117.277 9.78 117.257 9.72 117.237 9.66C117.097 9.38 116.947 9.11 116.787 8.85C116.627 8.59 116.447 8.35 116.247 8.13C116.147 8.01 116.037 7.9 115.917 7.8C115.797 7.68 115.677 7.57 115.557 7.47C115.537 7.43 115.507 7.41 115.467 7.41C115.447 7.39 115.417 7.37 115.377 7.35C115.317 7.27 115.237 7.28 115.137 7.38C115.037 7.48 114.927 7.59 114.807 7.71C114.707 7.83 114.607 7.95 114.507 8.07C114.407 8.21 114.297 8.35 114.177 8.49C114.077 8.63 113.977 8.77 113.877 8.91C113.737 9.09 113.607 9.27 113.487 9.45C113.367 9.63 113.247 9.81 113.127 9.99C112.707 10.67 112.377 11.42 112.137 12.24C112.097 12.36 112.077 12.45 112.077 12.51C112.057 12.65 112.037 12.79 112.017 12.93C112.017 13.07 112.017 13.22 112.017 13.38V13.62C112.037 13.68 112.047 13.74 112.047 13.8C112.047 13.86 112.057 13.92 112.077 13.98C112.077 14.22 112.137 14.48 112.257 14.76C112.417 15.16 112.597 15.55 112.797 15.93C112.997 16.31 113.227 16.67 113.487 17.01C113.547 17.09 113.607 17.17 113.667 17.25C113.747 17.33 113.817 17.41 113.877 17.49C114.057 17.69 114.247 17.87 114.447 18.03C114.667 18.19 114.887 18.33 115.107 18.45C115.347 18.57 115.577 18.63 115.797 18.63ZM141.989 20.97C141.949 20.95 141.889 20.94 141.809 20.94C141.769 20.94 141.729 20.91 141.689 20.85C141.649 20.79 141.609 20.74 141.569 20.7C141.529 20.64 141.489 20.57 141.449 20.49C141.389 20.41 141.339 20.41 141.299 20.49H141.239C141.239 20.47 141.229 20.46 141.209 20.46C141.209 20.44 141.209 20.43 141.209 20.43C141.149 20.15 141.059 19.89 140.939 19.65C140.879 19.49 140.819 19.33 140.759 19.17C140.719 18.99 140.689 18.81 140.669 18.63L140.489 17.31L140.399 16.23V16.17C140.359 15.93 140.339 15.69 140.339 15.45C140.339 15.19 140.339 14.93 140.339 14.67C140.319 14.53 140.309 14.4 140.309 14.28C140.309 14.14 140.299 14 140.279 13.86C140.259 13.7 140.239 13.54 140.219 13.38C140.219 13.22 140.219 13.07 140.219 12.93L140.249 10.56V7.35C140.209 7.23 140.149 7.17 140.069 7.17C140.029 7.17 139.979 7.18 139.919 7.2C139.879 7.2 139.839 7.2 139.799 7.2L138.449 7.56C138.269 7.62 138.089 7.68 137.909 7.74C137.729 7.78 137.549 7.83 137.369 7.89C137.229 7.91 137.089 7.93 136.949 7.95C136.829 7.95 136.699 7.95 136.559 7.95C136.459 7.95 136.349 7.91 136.229 7.83C136.089 7.77 135.969 7.69 135.869 7.59C135.769 7.49 135.669 7.38 135.569 7.26L135.509 7.17C135.469 7.03 135.429 6.9 135.389 6.78C135.369 6.64 135.369 6.5 135.389 6.36C135.409 6.18 135.449 6.01 135.509 5.85C135.589 5.69 135.699 5.55 135.839 5.43C135.899 5.39 135.949 5.34 135.989 5.28C136.049 5.22 136.109 5.16 136.169 5.1C136.249 5.06 136.299 5.04 136.319 5.04C136.439 5.04 136.549 5.02 136.649 4.98C136.749 4.92 136.849 4.88 136.949 4.86C137.049 4.84 137.149 4.82 137.249 4.8C137.349 4.78 137.449 4.76 137.549 4.74C137.829 4.66 138.109 4.59 138.389 4.53C138.669 4.45 138.949 4.39 139.229 4.35L140.849 4.08C140.889 4.06 140.919 4.05 140.939 4.05C140.979 4.05 141.009 4.04 141.029 4.02C141.149 3.98 141.269 3.95 141.389 3.93C141.509 3.91 141.629 3.92 141.749 3.96C141.789 3.98 141.819 3.99 141.839 3.99C141.879 3.97 141.909 3.96 141.929 3.96C142.269 3.92 142.609 3.88 142.949 3.84C143.289 3.8 143.619 3.75 143.939 3.69C144.199 3.65 144.459 3.61 144.719 3.57C144.979 3.53 145.239 3.5 145.499 3.48C145.699 3.44 145.899 3.41 146.099 3.39C146.299 3.37 146.499 3.35 146.699 3.33C146.859 3.31 147.019 3.29 147.179 3.27C147.359 3.25 147.529 3.23 147.689 3.21C147.849 3.19 147.999 3.19 148.139 3.21C148.299 3.21 148.459 3.21 148.619 3.21C148.719 3.21 148.809 3.24 148.889 3.3C148.989 3.36 149.079 3.41 149.159 3.45C149.239 3.51 149.349 3.61 149.489 3.75C149.529 3.79 149.569 3.88 149.609 4.02C149.629 4.08 149.649 4.15 149.669 4.23C149.689 4.29 149.709 4.36 149.729 4.44C149.769 4.62 149.749 4.79 149.669 4.95L149.489 5.37C149.469 5.43 149.439 5.49 149.399 5.55C149.379 5.59 149.349 5.63 149.309 5.67C149.269 5.71 149.249 5.73 149.249 5.73C149.169 5.79 149.079 5.85 148.979 5.91C148.899 5.97 148.799 6.01 148.679 6.03L147.389 6.12C147.269 6.12 147.149 6.13 147.029 6.15C146.909 6.15 146.779 6.16 146.639 6.18H146.489C146.169 6.2 145.859 6.23 145.559 6.27C145.259 6.31 144.959 6.35 144.659 6.39L143.459 6.57C143.399 6.57 143.359 6.58 143.339 6.6C143.259 6.6 143.199 6.66 143.159 6.78V6.87C143.159 7.07 143.159 7.27 143.159 7.47C143.159 7.65 143.169 7.84 143.189 8.04C143.249 8.32 143.249 8.6 143.189 8.88C143.169 8.94 143.149 9 143.129 9.06C143.129 9.1 143.129 9.14 143.129 9.18C143.149 9.42 143.129 9.68 143.069 9.96C143.069 10.02 143.069 10.08 143.069 10.14C143.069 10.2 143.079 10.26 143.099 10.32C143.119 10.4 143.129 10.49 143.129 10.59C143.129 10.69 143.129 10.79 143.129 10.89V12.45C143.129 12.53 143.119 12.63 143.099 12.75C143.099 12.85 143.099 12.95 143.099 13.05C143.099 13.13 143.099 13.22 143.099 13.32C143.119 13.42 143.129 13.52 143.129 13.62C143.129 13.76 143.129 13.9 143.129 14.04C143.149 14.18 143.149 14.33 143.129 14.49V15.42C143.129 15.44 143.119 15.46 143.099 15.48C143.099 15.5 143.109 15.53 143.129 15.57C143.149 15.75 143.159 15.94 143.159 16.14C143.159 16.32 143.179 16.5 143.219 16.68C143.219 16.74 143.219 16.8 143.219 16.86C143.239 16.92 143.239 16.98 143.219 17.04C143.219 17.22 143.239 17.41 143.279 17.61C143.319 17.79 143.349 17.97 143.369 18.15C143.409 18.37 143.449 18.59 143.489 18.81C143.549 19.03 143.599 19.25 143.639 19.47L143.729 19.89C143.729 19.95 143.699 20 143.639 20.04C143.639 20.04 143.629 20.04 143.609 20.04C143.609 20.04 143.599 20.05 143.579 20.07C143.479 20.11 143.439 20.17 143.459 20.25V20.4C143.459 20.4 143.449 20.41 143.429 20.43C143.429 20.45 143.419 20.46 143.399 20.46C143.299 20.46 143.219 20.5 143.159 20.58C143.099 20.66 143.029 20.73 142.949 20.79C142.889 20.83 142.809 20.87 142.709 20.91C142.449 21.01 142.209 21.03 141.989 20.97ZM157.402 21.6C157.202 21.58 157.002 21.55 156.802 21.51C156.622 21.49 156.442 21.44 156.262 21.36L155.512 21.09C155.252 20.99 155.012 20.88 154.792 20.76C154.572 20.62 154.352 20.48 154.132 20.34C154.032 20.24 153.932 20.15 153.832 20.07C153.732 19.97 153.632 19.88 153.532 19.8C153.372 19.64 153.212 19.48 153.052 19.32C152.892 19.14 152.742 18.95 152.602 18.75L151.882 17.64C151.702 17.36 151.542 17.07 151.402 16.77C151.262 16.45 151.142 16.13 151.042 15.81C150.822 15.21 150.712 14.62 150.712 14.04V13.56C150.712 13.06 150.742 12.57 150.802 12.09C150.842 11.69 150.932 11.33 151.072 11.01C151.152 10.81 151.222 10.61 151.282 10.41C151.342 10.21 151.412 10.02 151.492 9.84L151.582 9.63C151.622 9.37 151.712 9.14 151.852 8.94C151.992 8.72 152.112 8.51 152.212 8.31C152.292 8.15 152.382 8.01 152.482 7.89C152.582 7.75 152.672 7.61 152.752 7.47C152.792 7.41 152.842 7.36 152.902 7.32C152.962 7.26 153.012 7.2 153.052 7.14C153.092 7.1 153.122 7.05 153.142 6.99C153.182 6.91 153.212 6.84 153.232 6.78C153.272 6.72 153.342 6.64 153.442 6.54C153.562 6.48 153.672 6.34 153.772 6.12C153.812 6.04 153.852 5.98 153.892 5.94C154.012 5.84 154.112 5.72 154.192 5.58C154.292 5.44 154.402 5.31 154.522 5.19C154.602 5.11 154.642 5 154.642 4.86C154.642 4.76 154.642 4.67 154.642 4.59C154.662 4.49 154.662 4.4 154.642 4.32C154.622 4.22 154.652 4.13 154.732 4.05C154.772 4.01 154.802 3.96 154.822 3.9C154.842 3.84 154.862 3.78 154.882 3.72C154.942 3.52 155.102 3.35 155.362 3.21C155.402 3.17 155.452 3.15 155.512 3.15C155.592 3.13 155.662 3.11 155.722 3.09C155.862 3.03 156.022 3.02 156.202 3.06C156.282 3.08 156.352 3.09 156.412 3.09C156.472 3.07 156.532 3.05 156.592 3.03C156.672 2.99 156.742 2.96 156.802 2.94C156.882 2.92 156.952 2.9 157.012 2.88C157.292 2.78 157.582 2.79 157.882 2.91C158.202 3.03 158.432 3.24 158.572 3.54C158.612 3.64 158.652 3.74 158.692 3.84C158.732 3.94 158.762 4.04 158.782 4.14C158.822 4.36 158.812 4.55 158.752 4.71C158.712 4.79 158.692 4.84 158.692 4.86C158.672 4.94 158.692 5.01 158.752 5.07C158.792 5.13 158.842 5.18 158.902 5.22C159.122 5.42 159.332 5.62 159.532 5.82C159.732 6 159.922 6.2 160.102 6.42C160.262 6.58 160.392 6.75 160.492 6.93C160.612 7.09 160.722 7.27 160.822 7.47C160.862 7.57 160.912 7.68 160.972 7.8C161.032 7.9 161.092 8 161.152 8.1C161.252 8.28 161.332 8.47 161.392 8.67C161.472 8.87 161.552 9.07 161.632 9.27V9.3C161.672 9.44 161.702 9.59 161.722 9.75C161.762 9.89 161.822 10.04 161.902 10.2C161.962 10.34 162.012 10.49 162.052 10.65C162.092 10.79 162.132 10.94 162.172 11.1C162.212 11.28 162.252 11.46 162.292 11.64C162.352 11.82 162.392 12 162.412 12.18C162.432 12.26 162.452 12.34 162.472 12.42C162.492 12.48 162.512 12.55 162.532 12.63C162.572 12.81 162.612 12.99 162.652 13.17C162.692 13.35 162.722 13.53 162.742 13.71L162.832 13.92C162.872 14.04 162.912 14.2 162.952 14.4C163.012 14.66 163.042 14.92 163.042 15.18C163.062 15.44 163.062 15.71 163.042 15.99C163.042 16.13 163.032 16.24 163.012 16.32C162.892 16.74 162.742 17.17 162.562 17.61C162.482 17.75 162.402 17.89 162.322 18.03C162.242 18.15 162.162 18.28 162.082 18.42L161.812 18.84C161.712 19.02 161.602 19.18 161.482 19.32C161.282 19.64 161.042 19.92 160.762 20.16C160.482 20.4 160.182 20.63 159.862 20.85C159.162 21.39 158.342 21.64 157.402 21.6ZM157.282 18.63C157.702 18.63 158.062 18.51 158.362 18.27C158.462 18.17 158.562 18.08 158.662 18C158.782 17.9 158.882 17.8 158.962 17.7C159.342 17.28 159.642 16.84 159.862 16.38L159.952 16.08C159.992 15.72 159.992 15.36 159.952 15L159.772 14.01C159.712 13.75 159.662 13.5 159.622 13.26C159.582 13 159.522 12.75 159.442 12.51C159.382 12.37 159.362 12.26 159.382 12.18C159.402 12.08 159.402 11.98 159.382 11.88C159.362 11.78 159.332 11.68 159.292 11.58C159.232 11.32 159.162 11.06 159.082 10.8C159.002 10.54 158.922 10.28 158.842 10.02C158.822 9.96 158.802 9.9 158.782 9.84C158.762 9.78 158.742 9.72 158.722 9.66C158.582 9.38 158.432 9.11 158.272 8.85C158.112 8.59 157.932 8.35 157.732 8.13C157.632 8.01 157.522 7.9 157.402 7.8C157.282 7.68 157.162 7.57 157.042 7.47C157.022 7.43 156.992 7.41 156.952 7.41C156.932 7.39 156.902 7.37 156.862 7.35C156.802 7.27 156.722 7.28 156.622 7.38C156.522 7.48 156.412 7.59 156.292 7.71C156.192 7.83 156.092 7.95 155.992 8.07C155.892 8.21 155.782 8.35 155.662 8.49C155.562 8.63 155.462 8.77 155.362 8.91C155.222 9.09 155.092 9.27 154.972 9.45C154.852 9.63 154.732 9.81 154.612 9.99C154.192 10.67 153.862 11.42 153.622 12.24C153.582 12.36 153.562 12.45 153.562 12.51C153.542 12.65 153.522 12.79 153.502 12.93C153.502 13.07 153.502 13.22 153.502 13.38V13.62C153.522 13.68 153.532 13.74 153.532 13.8C153.532 13.86 153.542 13.92 153.562 13.98C153.562 14.22 153.622 14.48 153.742 14.76C153.902 15.16 154.082 15.55 154.282 15.93C154.482 16.31 154.712 16.67 154.972 17.01C155.032 17.09 155.092 17.17 155.152 17.25C155.232 17.33 155.302 17.41 155.362 17.49C155.542 17.69 155.732 17.87 155.932 18.03C156.152 18.19 156.372 18.33 156.592 18.45C156.832 18.57 157.062 18.63 157.282 18.63ZM178.145 22.77H177.995C177.935 22.77 177.865 22.76 177.785 22.74C177.725 22.74 177.655 22.74 177.575 22.74C177.435 22.76 177.315 22.73 177.215 22.65C177.135 22.59 177.045 22.51 176.945 22.41C176.905 22.37 176.855 22.32 176.795 22.26C176.755 22.22 176.705 22.19 176.645 22.17C176.605 22.15 176.565 22.1 176.525 22.02C176.505 21.98 176.475 21.93 176.435 21.87C176.415 21.81 176.385 21.75 176.345 21.69C176.305 21.59 176.295 21.48 176.315 21.36C176.335 21.3 176.345 21.24 176.345 21.18C176.365 21.14 176.375 21.09 176.375 21.03C176.375 20.83 176.375 20.64 176.375 20.46C176.375 20.26 176.355 20.06 176.315 19.86C176.295 19.8 176.285 19.74 176.285 19.68C176.285 19.6 176.275 19.52 176.255 19.44C176.255 19.3 176.245 19.19 176.225 19.11C176.225 19.01 176.215 18.92 176.195 18.84C176.195 18.76 176.195 18.68 176.195 18.6C176.175 18.46 176.165 18.33 176.165 18.21C176.165 18.09 176.145 17.96 176.105 17.82V17.73C176.105 17.47 176.085 17.22 176.045 16.98C176.025 16.72 176.015 16.46 176.015 16.2C176.015 16.08 176.005 15.99 175.985 15.93C175.965 15.75 175.945 15.57 175.925 15.39C175.925 15.19 175.925 14.99 175.925 14.79C175.925 14.61 175.925 14.43 175.925 14.25C175.925 14.05 175.905 13.86 175.865 13.68C175.845 13.64 175.835 13.59 175.835 13.53C175.835 13.47 175.835 13.42 175.835 13.38C175.835 12.56 175.835 11.74 175.835 10.92C175.835 10.1 175.845 9.29 175.865 8.49C175.865 8.39 175.865 8.29 175.865 8.19C175.885 8.09 175.895 7.99 175.895 7.89C175.895 7.83 175.895 7.77 175.895 7.71C175.915 7.65 175.925 7.6 175.925 7.56C175.925 7.34 175.925 7.12 175.925 6.9C175.945 6.66 175.965 6.43 175.985 6.21C176.025 6.15 176.025 6.07 175.985 5.97C175.965 5.95 175.935 5.94 175.895 5.94L175.805 6.03C175.765 6.09 175.715 6.15 175.655 6.21C175.595 6.27 175.545 6.33 175.505 6.39C175.425 6.51 175.335 6.64 175.235 6.78C175.155 6.9 175.065 7.03 174.965 7.17C174.825 7.41 174.675 7.66 174.515 7.92C174.355 8.16 174.235 8.42 174.155 8.7C174.135 8.74 174.115 8.79 174.095 8.85C174.075 8.89 174.055 8.93 174.035 8.97C173.955 9.17 173.865 9.37 173.765 9.57C173.685 9.75 173.605 9.95 173.525 10.17C173.405 10.43 173.235 10.67 173.015 10.89C172.975 10.93 172.935 10.95 172.895 10.95C172.795 11.01 172.685 11.07 172.565 11.13C172.445 11.17 172.315 11.18 172.175 11.16H171.995C171.815 11.2 171.665 11.16 171.545 11.04C171.405 11 171.285 10.93 171.185 10.83C171.105 10.73 171.015 10.62 170.915 10.5C170.835 10.4 170.765 10.28 170.705 10.14C170.665 10 170.645 9.86 170.645 9.72C170.625 9.68 170.615 9.63 170.615 9.57C170.615 9.51 170.615 9.46 170.615 9.42C170.595 9.38 170.575 9.34 170.555 9.3C170.535 9.24 170.525 9.2 170.525 9.18C170.525 9.14 170.505 9.08 170.465 9C170.425 8.92 170.345 8.76 170.225 8.52C170.105 8.28 170.045 8.17 170.045 8.19C169.985 8.09 169.925 7.98 169.865 7.86C169.805 7.74 169.735 7.63 169.655 7.53L169.475 7.2C169.435 7.2 169.405 7.19 169.385 7.17L169.355 7.2C169.355 7.26 169.355 7.32 169.355 7.38C169.355 7.44 169.365 7.5 169.385 7.56C169.425 7.78 169.445 8 169.445 8.22C169.445 8.44 169.425 8.66 169.385 8.88C169.385 9 169.395 9.1 169.415 9.18C169.435 9.22 169.445 9.29 169.445 9.39C169.445 9.51 169.445 9.63 169.445 9.75C169.465 9.87 169.465 9.99 169.445 10.11C169.425 10.21 169.415 10.32 169.415 10.44C169.435 10.54 169.455 10.64 169.475 10.74V11.04C169.435 11.16 169.435 11.29 169.475 11.43C169.495 11.53 169.495 11.64 169.475 11.76C169.475 11.86 169.485 11.96 169.505 12.06C169.505 12.16 169.485 12.29 169.445 12.45C169.325 12.93 169.355 13.39 169.535 13.83C169.555 13.91 169.575 13.99 169.595 14.07C169.615 14.13 169.615 14.2 169.595 14.28C169.595 14.34 169.595 14.4 169.595 14.46C169.595 14.52 169.605 14.58 169.625 14.64C169.665 14.72 169.685 14.8 169.685 14.88C169.705 15.1 169.715 15.27 169.715 15.39C169.735 15.51 169.755 15.6 169.775 15.66C169.815 15.88 169.855 16.11 169.895 16.35C169.935 16.57 169.975 16.79 170.015 17.01C170.055 17.27 170.095 17.53 170.135 17.79C170.195 18.03 170.225 18.28 170.225 18.54C170.225 18.62 170.235 18.68 170.255 18.72C170.295 18.88 170.315 19.05 170.315 19.23C170.315 19.39 170.325 19.55 170.345 19.71C170.345 19.93 170.295 20.1 170.195 20.22C170.155 20.3 170.135 20.35 170.135 20.37C169.955 20.75 169.635 20.97 169.175 21.03C169.115 21.05 169.055 21.06 168.995 21.06C168.935 21.06 168.875 21.06 168.815 21.06C168.595 21.1 168.435 21.06 168.335 20.94C168.295 20.9 168.255 20.88 168.215 20.88C168.115 20.9 168.015 20.84 167.915 20.7C167.855 20.6 167.765 20.51 167.645 20.43C167.585 20.37 167.535 20.27 167.495 20.13C167.475 20.09 167.455 20.05 167.435 20.01C167.435 19.97 167.435 19.93 167.435 19.89C167.415 19.61 167.385 19.34 167.345 19.08C167.305 18.8 167.275 18.53 167.255 18.27L167.225 17.97C167.205 17.89 167.195 17.82 167.195 17.76C167.195 17.7 167.185 17.63 167.165 17.55V17.37C167.105 17.09 167.075 16.81 167.075 16.53C167.075 16.23 167.085 15.94 167.105 15.66C167.125 15.48 167.135 15.3 167.135 15.12C167.135 14.92 167.145 14.73 167.165 14.55V13.86C167.165 13.76 167.165 13.66 167.165 13.56C167.165 13.44 167.155 13.33 167.135 13.23C167.115 13.11 167.105 12.99 167.105 12.87C167.105 12.75 167.105 12.63 167.105 12.51V11.13C167.085 10.97 167.075 10.81 167.075 10.65C167.075 10.47 167.075 10.3 167.075 10.14C167.075 10.08 167.075 10.02 167.075 9.96C167.075 9.88 167.065 9.81 167.045 9.75C167.045 9.65 167.035 9.56 167.015 9.48C167.015 9.38 167.005 9.29 166.985 9.21V9C166.945 8.82 166.925 8.65 166.925 8.49C166.925 8.31 166.925 8.13 166.925 7.95C166.925 7.79 166.925 7.63 166.925 7.47C166.925 7.29 166.905 7.13 166.865 6.99C166.845 6.93 166.835 6.87 166.835 6.81C166.835 6.75 166.835 6.69 166.835 6.63C166.835 6.49 166.835 6.36 166.835 6.24C166.835 6.1 166.815 5.96 166.775 5.82C166.755 5.78 166.745 5.71 166.745 5.61V4.11C166.745 4.01 166.745 3.92 166.745 3.84C166.745 3.74 166.725 3.65 166.685 3.57C166.625 3.37 166.635 3.14 166.715 2.88C166.755 2.78 166.795 2.71 166.835 2.67C166.875 2.61 166.915 2.55 166.955 2.49C166.995 2.43 167.025 2.37 167.045 2.31C167.085 2.25 167.115 2.22 167.135 2.22C167.215 2.2 167.275 2.17 167.315 2.13C167.375 2.09 167.425 2.05 167.465 2.01L167.645 1.92C167.685 1.9 167.745 1.89 167.825 1.89C167.925 1.91 168.025 1.93 168.125 1.95C168.245 1.95 168.355 1.96 168.455 1.98C168.575 1.98 168.665 2.03 168.725 2.13C168.825 2.27 168.925 2.41 169.025 2.55C169.125 2.69 169.205 2.84 169.265 3C169.325 3.14 169.405 3.26 169.505 3.36C169.625 3.52 169.745 3.68 169.865 3.84C169.985 4 170.115 4.16 170.255 4.32C170.315 4.38 170.365 4.45 170.405 4.53C170.465 4.61 170.515 4.69 170.555 4.77C170.655 4.91 170.745 5.05 170.825 5.19C170.925 5.31 171.025 5.44 171.125 5.58L171.575 6.3C171.615 6.38 171.655 6.46 171.695 6.54C171.735 6.6 171.775 6.66 171.815 6.72C171.855 6.82 171.915 6.83 171.995 6.75C172.075 6.65 172.155 6.55 172.235 6.45C172.335 6.33 172.425 6.22 172.505 6.12C172.685 5.9 172.865 5.67 173.045 5.43C173.225 5.19 173.415 4.96 173.615 4.74L173.795 4.47C173.935 4.27 174.065 4.08 174.185 3.9C174.325 3.7 174.455 3.5 174.575 3.3C174.715 3.08 174.835 2.86 174.935 2.64C175.055 2.42 175.155 2.2 175.235 1.98L175.595 1.17C175.715 0.929999 175.885 0.729999 176.105 0.569998C176.405 0.329999 176.735 0.239999 177.095 0.299998C177.235 0.319999 177.365 0.359999 177.485 0.419999C177.605 0.459999 177.725 0.499999 177.845 0.539999C177.965 0.579999 178.045 0.669999 178.085 0.809999C178.125 0.869999 178.155 0.929999 178.175 0.989998C178.195 1.05 178.205 1.11 178.205 1.17C178.225 1.31 178.255 1.44 178.295 1.56C178.335 1.66 178.365 1.78 178.385 1.92L178.415 2.22C178.455 2.4 178.495 2.58 178.535 2.76C178.595 2.94 178.645 3.12 178.685 3.3V3.36C178.705 3.56 178.725 3.76 178.745 3.96C178.785 4.14 178.795 4.33 178.775 4.53V5.22C178.775 5.32 178.775 5.42 178.775 5.52C178.775 5.62 178.765 5.72 178.745 5.82C178.725 5.96 178.715 6.1 178.715 6.24C178.715 6.36 178.715 6.49 178.715 6.63C178.695 6.71 178.685 6.79 178.685 6.87C178.685 6.95 178.675 7.03 178.655 7.11C178.635 7.19 178.625 7.27 178.625 7.35C178.625 7.41 178.625 7.49 178.625 7.59V8.43C178.625 8.57 178.615 8.7 178.595 8.82C178.595 8.94 178.585 9.07 178.565 9.21C178.545 9.29 178.535 9.37 178.535 9.45C178.535 9.51 178.535 9.58 178.535 9.66V11.49C178.535 11.63 178.535 11.77 178.535 11.91C178.555 12.05 178.575 12.19 178.595 12.33C178.615 12.43 178.625 12.54 178.625 12.66C178.625 12.76 178.625 12.86 178.625 12.96C178.645 13.1 178.655 13.24 178.655 13.38C178.655 13.5 178.665 13.64 178.685 13.8V14.13C178.705 14.29 178.715 14.46 178.715 14.64C178.715 14.8 178.715 14.96 178.715 15.12V15.51C178.755 15.65 178.775 15.8 178.775 15.96C178.775 16.12 178.785 16.28 178.805 16.44V16.65C178.845 16.77 178.865 16.89 178.865 17.01C178.865 17.13 178.875 17.25 178.895 17.37L178.985 18.45C179.005 18.53 179.015 18.61 179.015 18.69C179.035 18.75 179.045 18.82 179.045 18.9C179.065 18.98 179.075 19.06 179.075 19.14C179.075 19.2 179.085 19.27 179.105 19.35C179.105 19.37 179.105 19.4 179.105 19.44C179.125 19.48 179.135 19.52 179.135 19.56C179.135 19.7 179.145 19.85 179.165 20.01C179.205 20.17 179.235 20.33 179.255 20.49L179.375 21.33C179.375 21.45 179.365 21.53 179.345 21.57C179.325 21.69 179.275 21.8 179.195 21.9C179.135 22.02 179.085 22.13 179.045 22.23C179.045 22.25 179.035 22.26 179.015 22.26C178.875 22.38 178.735 22.48 178.595 22.56C178.455 22.66 178.305 22.73 178.145 22.77ZM201.245 20.97C201.125 20.99 201.025 20.99 200.945 20.97C200.885 20.93 200.825 20.9 200.765 20.88C200.725 20.84 200.685 20.81 200.645 20.79C200.565 20.73 200.485 20.67 200.405 20.61C200.345 20.55 200.275 20.48 200.195 20.4C200.095 20.34 200.035 20.26 200.015 20.16C199.935 20 199.865 19.78 199.805 19.5C199.725 19.18 199.775 18.87 199.955 18.57C199.955 18.53 199.965 18.51 199.985 18.51C200.085 18.35 200.165 18.19 200.225 18.03C200.285 17.87 200.335 17.71 200.375 17.55C200.455 17.27 200.525 17 200.585 16.74C200.665 16.46 200.735 16.19 200.795 15.93C200.855 15.71 200.895 15.5 200.915 15.3C200.955 15.08 200.985 14.87 201.005 14.67C201.045 14.49 201.065 14.32 201.065 14.16C201.085 13.98 201.105 13.79 201.125 13.59C201.125 13.47 201.135 13.37 201.155 13.29C201.155 13.21 201.155 13.13 201.155 13.05C201.175 12.97 201.185 12.89 201.185 12.81C201.185 12.67 201.125 12.62 201.005 12.66L200.705 12.75C200.585 12.77 200.465 12.8 200.345 12.84C200.245 12.86 200.135 12.89 200.015 12.93C199.875 12.97 199.725 13.03 199.565 13.11C199.405 13.17 199.265 13.26 199.145 13.38C199.065 13.42 199.005 13.46 198.965 13.5C198.685 13.68 198.425 13.66 198.185 13.44C197.885 13.14 197.645 12.86 197.465 12.6C197.425 12.52 197.385 12.45 197.345 12.39C197.305 12.31 197.265 12.23 197.225 12.15C197.045 11.75 197.085 11.36 197.345 10.98C197.465 10.82 197.565 10.68 197.645 10.56C197.645 10.52 197.665 10.5 197.705 10.5C197.745 10.48 197.775 10.47 197.795 10.47C197.835 10.45 197.865 10.43 197.885 10.41C197.985 10.31 198.085 10.26 198.185 10.26C198.365 10.22 198.545 10.18 198.725 10.14C198.925 10.1 199.115 10.07 199.295 10.05L199.505 10.02C199.705 10.02 199.895 10 200.075 9.96C200.275 9.92 200.475 9.89 200.675 9.87C200.755 9.87 200.835 9.87 200.915 9.87C201.015 9.87 201.105 9.86 201.185 9.84C201.305 9.84 201.405 9.83 201.485 9.81C201.585 9.77 201.645 9.71 201.665 9.63C201.685 9.61 201.695 9.56 201.695 9.48C201.735 9.2 201.785 8.94 201.845 8.7C201.925 8.44 202.005 8.18 202.085 7.92C202.125 7.82 202.155 7.72 202.175 7.62C202.195 7.5 202.215 7.4 202.235 7.32C202.255 7.16 202.305 6.99 202.385 6.81C202.545 6.45 202.665 6.09 202.745 5.73C202.765 5.63 202.795 5.53 202.835 5.43C202.875 5.33 202.905 5.23 202.925 5.13L203.225 4.11C203.245 4.07 203.255 4.04 203.255 4.02C203.255 3.98 203.265 3.95 203.285 3.93C203.285 3.85 203.255 3.81 203.195 3.81C202.995 3.87 202.805 3.92 202.625 3.96C202.445 4 202.265 4.06 202.085 4.14L201.815 4.23C201.615 4.29 201.415 4.37 201.215 4.47C201.015 4.55 200.815 4.64 200.615 4.74C200.535 4.78 200.445 4.83 200.345 4.89C200.265 4.93 200.185 4.97 200.105 5.01C200.045 5.03 199.985 5.06 199.925 5.1C199.865 5.14 199.815 5.18 199.775 5.22C199.635 5.3 199.505 5.4 199.385 5.52C199.265 5.62 199.145 5.72 199.025 5.82C198.905 5.9 198.815 6.01 198.755 6.15C198.675 6.29 198.565 6.43 198.425 6.57C198.245 6.75 198.075 6.86 197.915 6.9C197.715 6.96 197.515 7.01 197.315 7.05C197.135 7.09 196.945 7.11 196.745 7.11C196.685 7.09 196.625 7.08 196.565 7.08C196.505 7.08 196.445 7.07 196.385 7.05C196.265 7.01 196.155 6.93 196.055 6.81C195.975 6.73 195.915 6.66 195.875 6.6C195.755 6.44 195.665 6.28 195.605 6.12C195.585 6.08 195.575 6.05 195.575 6.03C195.575 6.01 195.565 5.99 195.545 5.97C195.485 5.81 195.455 5.67 195.455 5.55C195.475 5.41 195.505 5.27 195.545 5.13C195.665 4.77 195.875 4.45 196.175 4.17L196.355 4.05C196.435 4.01 196.505 3.97 196.565 3.93C196.645 3.87 196.725 3.83 196.805 3.81C196.905 3.77 196.995 3.74 197.075 3.72C197.155 3.7 197.245 3.69 197.345 3.69C197.805 3.69 198.235 3.62 198.635 3.48C198.735 3.44 198.835 3.41 198.935 3.39C199.035 3.37 199.135 3.36 199.235 3.36C199.315 3.36 199.395 3.35 199.475 3.33C199.555 3.29 199.635 3.26 199.715 3.24C200.015 3.12 200.315 3 200.615 2.88C200.915 2.74 201.225 2.61 201.545 2.49C201.585 2.49 201.645 2.47 201.725 2.43C201.765 2.41 201.805 2.36 201.845 2.28C201.845 2.22 201.895 2.17 201.995 2.13C202.195 2.03 202.385 1.94 202.565 1.86C202.765 1.78 202.965 1.7 203.165 1.62C203.205 1.6 203.245 1.58 203.285 1.56C203.345 1.54 203.395 1.52 203.435 1.5C203.495 1.46 203.555 1.43 203.615 1.41C203.675 1.37 203.715 1.32 203.735 1.26C203.795 1.18 203.855 1.11 203.915 1.05C203.975 0.969999 204.045 0.899999 204.125 0.839998C204.505 0.499999 204.955 0.359999 205.475 0.419999C205.715 0.459999 205.905 0.549999 206.045 0.689999C206.225 0.829999 206.355 0.979999 206.435 1.14C206.495 1.28 206.555 1.42 206.615 1.56C206.695 1.68 206.765 1.81 206.825 1.95C206.945 2.17 206.985 2.42 206.945 2.7C206.925 2.86 206.895 3.02 206.855 3.18C206.815 3.32 206.765 3.47 206.705 3.63C206.665 3.73 206.615 3.83 206.555 3.93C206.515 4.01 206.455 4.1 206.375 4.2C206.315 4.24 206.265 4.34 206.225 4.5C206.205 4.6 206.175 4.7 206.135 4.8C206.115 4.9 206.055 4.99 205.955 5.07C205.915 5.09 205.875 5.14 205.835 5.22C205.755 5.3 205.745 5.39 205.805 5.49C205.825 5.55 205.805 5.61 205.745 5.67C205.725 5.69 205.705 5.71 205.685 5.73C205.665 5.73 205.635 5.75 205.595 5.79C205.555 5.83 205.545 5.87 205.565 5.91C205.625 5.99 205.645 6.07 205.625 6.15C205.625 6.21 205.615 6.28 205.595 6.36C205.575 6.44 205.525 6.5 205.445 6.54C205.445 6.64 205.435 6.72 205.415 6.78C205.395 6.86 205.365 6.94 205.325 7.02C205.285 7.08 205.195 7.14 205.055 7.2L204.965 7.26C204.845 7.34 204.805 7.45 204.845 7.59C204.885 7.67 204.925 7.74 204.965 7.8C205.025 7.84 205.045 7.91 205.025 8.01C205.005 8.09 204.985 8.18 204.965 8.28C204.945 8.36 204.925 8.45 204.905 8.55L204.815 8.67C204.775 8.69 204.745 8.73 204.725 8.79C204.705 8.83 204.675 8.88 204.635 8.94C204.635 9 204.595 9.05 204.515 9.09C204.455 9.11 204.425 9.15 204.425 9.21C204.385 9.25 204.385 9.29 204.425 9.33C204.465 9.35 204.505 9.38 204.545 9.42C204.605 9.44 204.665 9.47 204.725 9.51C204.725 9.53 204.745 9.54 204.785 9.54C204.865 9.54 204.915 9.53 204.935 9.51C205.075 9.47 205.195 9.47 205.295 9.51C205.415 9.55 205.535 9.59 205.655 9.63C205.795 9.67 205.895 9.75 205.955 9.87C205.955 9.89 205.995 9.94 206.075 10.02C206.195 10.12 206.295 10.28 206.375 10.5C206.395 10.56 206.415 10.62 206.435 10.68C206.455 10.72 206.455 10.77 206.435 10.83C206.415 10.93 206.425 11.03 206.465 11.13C206.505 11.21 206.555 11.3 206.615 11.4C206.635 11.42 206.655 11.44 206.675 11.46C206.695 11.46 206.715 11.48 206.735 11.52C206.775 11.56 206.775 11.6 206.735 11.64L206.645 11.82C206.625 11.84 206.595 11.87 206.555 11.91C206.535 11.93 206.515 11.96 206.495 12C206.375 12.12 206.245 12.15 206.105 12.09C206.025 12.05 205.955 12.06 205.895 12.12C205.795 12.18 205.715 12.27 205.655 12.39C205.595 12.49 205.465 12.56 205.265 12.6C205.185 12.6 205.105 12.6 205.025 12.6C204.965 12.58 204.895 12.56 204.815 12.54C204.615 12.48 204.405 12.45 204.185 12.45C204.125 12.45 204.085 12.46 204.065 12.48C204.005 12.48 203.955 12.52 203.915 12.6C203.895 12.68 203.875 12.76 203.855 12.84C203.855 12.92 203.855 13 203.855 13.08C203.835 13.16 203.825 13.25 203.825 13.35C203.845 13.43 203.855 13.52 203.855 13.62C203.835 13.7 203.855 13.79 203.915 13.89C203.915 13.89 203.915 13.92 203.915 13.98C203.835 14.06 203.815 14.16 203.855 14.28C203.875 14.34 203.885 14.4 203.885 14.46C203.905 14.52 203.915 14.59 203.915 14.67C203.935 14.71 203.915 14.75 203.855 14.79C203.795 14.81 203.765 14.86 203.765 14.94V15.06C203.785 15.16 203.775 15.27 203.735 15.39C203.675 15.49 203.685 15.6 203.765 15.72C203.805 15.78 203.785 15.83 203.705 15.87C203.645 15.93 203.615 15.96 203.615 15.96L203.435 16.62C203.435 16.68 203.425 16.73 203.405 16.77C203.345 16.91 203.295 17.07 203.255 17.25C203.235 17.41 203.205 17.57 203.165 17.73C203.145 17.79 203.125 17.85 203.105 17.91C203.085 17.97 203.065 18.03 203.045 18.09C203.045 18.15 203.035 18.19 203.015 18.21C202.935 18.33 202.885 18.46 202.865 18.6C202.845 18.74 202.815 18.88 202.775 19.02C202.755 19.12 202.735 19.23 202.715 19.35C202.695 19.45 202.675 19.55 202.655 19.65C202.655 19.77 202.615 19.87 202.535 19.95L202.415 20.13C202.355 20.21 202.285 20.29 202.205 20.37C202.125 20.43 202.045 20.49 201.965 20.55C201.925 20.57 201.885 20.59 201.845 20.61C201.825 20.63 201.795 20.66 201.755 20.7C201.675 20.78 201.595 20.84 201.515 20.88C201.435 20.9 201.345 20.93 201.245 20.97ZM219.654 20.04C219.514 20.02 219.364 20.01 219.204 20.01C219.044 19.99 218.884 19.94 218.724 19.86C218.644 19.82 218.584 19.8 218.544 19.8C218.384 19.74 218.274 19.63 218.214 19.47V19.38C218.054 19.04 217.994 18.69 218.034 18.33C218.034 18.27 218.034 18.21 218.034 18.15C218.034 18.09 218.024 18.03 218.004 17.97C217.984 17.83 217.964 17.69 217.944 17.55C217.944 17.41 217.944 17.27 217.944 17.13C217.944 17.05 217.934 16.98 217.914 16.92C217.914 16.84 217.914 16.76 217.914 16.68C217.894 16.6 217.884 16.53 217.884 16.47C217.884 16.41 217.884 16.35 217.884 16.29C217.884 16.07 217.884 15.86 217.884 15.66C217.884 15.46 217.864 15.26 217.824 15.06C217.804 15 217.794 14.95 217.794 14.91C217.814 14.85 217.814 14.79 217.794 14.73C217.794 14.61 217.794 14.49 217.794 14.37C217.794 14.25 217.774 14.13 217.734 14.01C217.714 13.95 217.704 13.89 217.704 13.83C217.724 13.75 217.724 13.68 217.704 13.62L217.674 13.41C217.634 13.31 217.574 13.26 217.494 13.26C217.394 13.24 217.284 13.23 217.164 13.23C217.064 13.21 216.954 13.21 216.834 13.23C216.714 13.25 216.584 13.27 216.444 13.29C216.324 13.29 216.204 13.29 216.084 13.29C215.884 13.29 215.694 13.29 215.514 13.29C215.334 13.29 215.144 13.31 214.944 13.35H214.794C214.614 13.35 214.434 13.37 214.254 13.41C214.074 13.43 213.894 13.46 213.714 13.5C213.594 13.5 213.494 13.51 213.414 13.53C213.134 13.57 212.874 13.66 212.634 13.8C212.554 13.84 212.474 13.89 212.394 13.95C212.314 14.01 212.224 14.06 212.124 14.1C212.024 14.16 211.954 14.26 211.914 14.4C211.894 14.5 211.864 14.61 211.824 14.73C211.804 14.83 211.794 14.94 211.794 15.06C211.794 15.22 211.734 15.38 211.614 15.54C211.534 15.68 211.404 15.75 211.224 15.75C211.044 15.75 210.904 15.68 210.804 15.54C210.724 15.46 210.664 15.35 210.624 15.21C210.584 15.01 210.544 14.84 210.504 14.7L210.414 14.25C210.354 14.11 210.284 13.97 210.204 13.83L210.024 13.56C209.784 13.16 209.664 12.74 209.664 12.3C209.664 12.18 209.694 12.06 209.754 11.94L209.844 11.67C209.884 11.57 209.914 11.47 209.934 11.37C209.954 11.25 209.974 11.14 209.994 11.04C210.034 10.68 210.094 10.32 210.174 9.96C210.254 9.58 210.344 9.2 210.444 8.82C210.544 8.44 210.644 8.06 210.744 7.68C210.804 7.48 210.864 7.29 210.924 7.11C210.984 6.91 211.034 6.71 211.074 6.51C211.154 6.19 211.234 5.88 211.314 5.58C211.394 5.28 211.474 4.97 211.554 4.65C211.554 4.61 211.574 4.55 211.614 4.47C211.714 4.23 211.804 3.99 211.884 3.75C211.984 3.49 212.094 3.25 212.214 3.03L212.304 2.85C212.324 2.77 212.354 2.7 212.394 2.64C212.434 2.58 212.474 2.51 212.514 2.43C212.594 2.33 212.684 2.25 212.784 2.19C212.884 2.11 212.984 2.05 213.084 2.01C213.224 1.95 213.354 1.91 213.474 1.89C213.614 1.87 213.754 1.85 213.894 1.83C214.014 1.81 214.134 1.82 214.254 1.86C214.374 1.9 214.484 1.95 214.584 2.01C214.724 2.07 214.854 2.16 214.974 2.28C215.294 2.6 215.424 2.98 215.364 3.42C215.324 3.78 215.224 4.12 215.064 4.44C214.984 4.62 214.904 4.81 214.824 5.01C214.764 5.19 214.704 5.38 214.644 5.58C214.604 5.74 214.554 5.9 214.494 6.06C214.454 6.22 214.404 6.38 214.344 6.54C214.324 6.6 214.304 6.66 214.284 6.72C214.264 6.76 214.244 6.81 214.224 6.87C214.204 6.91 214.174 6.95 214.134 6.99C214.114 7.03 214.084 7.07 214.044 7.11C213.944 7.21 213.874 7.35 213.834 7.53C213.814 7.61 213.794 7.69 213.774 7.77C213.754 7.85 213.724 7.94 213.684 8.04C213.644 8.16 213.624 8.25 213.624 8.31C213.644 8.41 213.614 8.5 213.534 8.58C213.414 8.74 213.334 8.93 213.294 9.15C213.274 9.27 213.244 9.39 213.204 9.51C213.164 9.63 213.124 9.74 213.084 9.84L212.934 10.62C212.934 10.64 212.954 10.67 212.994 10.71H213.114C213.234 10.71 213.344 10.71 213.444 10.71C213.564 10.71 213.674 10.7 213.774 10.68C213.894 10.68 214.014 10.68 214.134 10.68C214.254 10.66 214.384 10.65 214.524 10.65C214.684 10.63 214.854 10.62 215.034 10.62C215.214 10.62 215.384 10.61 215.544 10.59C215.604 10.57 215.664 10.56 215.724 10.56C215.784 10.56 215.844 10.56 215.904 10.56C216.044 10.56 216.184 10.56 216.324 10.56C216.464 10.56 216.604 10.57 216.744 10.59C216.804 10.59 216.864 10.59 216.924 10.59C217.004 10.59 217.074 10.6 217.134 10.62H217.494C217.574 10.62 217.614 10.58 217.614 10.5C217.614 10.46 217.614 10.43 217.614 10.41C217.634 10.39 217.644 10.37 217.644 10.35V8.49C217.644 8.43 217.644 8.38 217.644 8.34C217.664 8.28 217.674 8.23 217.674 8.19C217.694 8.09 217.704 8 217.704 7.92C217.704 7.82 217.704 7.73 217.704 7.65C217.684 7.55 217.674 7.46 217.674 7.38C217.694 7.3 217.704 7.22 217.704 7.14C217.704 6.8 217.714 6.45 217.734 6.09C217.754 5.73 217.774 5.38 217.794 5.04C217.834 4.78 217.864 4.52 217.884 4.26C217.924 4 217.974 3.74 218.034 3.48C218.074 3.32 218.104 3.17 218.124 3.03C218.164 2.87 218.204 2.72 218.244 2.58C218.304 2.4 218.384 2.2 218.484 1.98C218.544 1.84 218.624 1.73 218.724 1.65C218.824 1.55 218.924 1.46 219.024 1.38C219.064 1.38 219.094 1.38 219.114 1.38C219.134 1.36 219.154 1.35 219.174 1.35C219.214 1.33 219.254 1.32 219.294 1.32C219.334 1.3 219.364 1.28 219.384 1.26C219.524 1.2 219.654 1.18 219.774 1.2L220.344 1.29L220.434 1.38C220.434 1.4 220.434 1.42 220.434 1.44C220.454 1.44 220.464 1.45 220.464 1.47C220.504 1.55 220.534 1.63 220.554 1.71C220.594 1.77 220.634 1.83 220.674 1.89C220.794 2.07 220.844 2.27 220.824 2.49V2.52C220.804 2.64 220.844 2.74 220.944 2.82C221.064 2.9 221.104 3.01 221.064 3.15V3.21C221.024 3.35 220.984 3.49 220.944 3.63C220.904 3.77 220.864 3.91 220.824 4.05C220.824 4.09 220.784 4.1 220.704 4.08C220.684 4.08 220.674 4.08 220.674 4.08C220.674 4.06 220.664 4.05 220.644 4.05C220.564 4.05 220.544 4.07 220.584 4.11L220.644 4.2C220.684 4.3 220.664 4.37 220.584 4.41C220.564 4.41 220.544 4.42 220.524 4.44C220.504 4.46 220.494 4.48 220.494 4.5C220.494 4.58 220.494 4.66 220.494 4.74C220.494 4.82 220.484 4.91 220.464 5.01C220.464 5.03 220.464 5.05 220.464 5.07C220.484 5.07 220.494 5.07 220.494 5.07L220.584 5.16C220.624 5.26 220.604 5.34 220.524 5.4C220.444 5.42 220.404 5.47 220.404 5.55C220.404 5.69 220.394 5.85 220.374 6.03C220.374 6.19 220.374 6.35 220.374 6.51V7.59C220.374 7.67 220.364 7.76 220.344 7.86C220.344 7.96 220.334 8.06 220.314 8.16C220.314 8.24 220.324 8.33 220.344 8.43C220.364 8.51 220.374 8.6 220.374 8.7C220.374 8.76 220.364 8.82 220.344 8.88C220.344 8.92 220.344 8.97 220.344 9.03C220.324 9.11 220.304 9.2 220.284 9.3C220.284 9.38 220.284 9.47 220.284 9.57C220.304 9.69 220.314 9.81 220.314 9.93C220.314 10.05 220.314 10.16 220.314 10.26V10.5C220.354 10.58 220.394 10.63 220.434 10.65C220.474 10.65 220.504 10.66 220.524 10.68C220.544 10.68 220.564 10.68 220.584 10.68C220.624 10.68 220.664 10.69 220.704 10.71C220.764 10.71 220.814 10.7 220.854 10.68C221.014 10.68 221.154 10.68 221.274 10.68C221.414 10.68 221.554 10.67 221.694 10.65H222.564C222.884 10.65 223.174 10.61 223.434 10.53L223.974 10.44H224.154C224.294 10.48 224.424 10.53 224.544 10.59C224.664 10.65 224.764 10.74 224.844 10.86C224.884 10.9 224.904 10.93 224.904 10.95C224.944 11.07 224.994 11.18 225.054 11.28C225.114 11.38 225.154 11.49 225.174 11.61C225.214 11.69 225.234 11.73 225.234 11.73C225.294 11.85 225.284 12 225.204 12.18C225.204 12.2 225.194 12.22 225.174 12.24C225.174 12.26 225.174 12.29 225.174 12.33C225.154 12.39 225.174 12.44 225.234 12.48C225.274 12.5 225.304 12.51 225.324 12.51C225.364 12.51 225.394 12.52 225.414 12.54C225.454 12.54 225.474 12.56 225.474 12.6C225.474 12.62 225.464 12.64 225.444 12.66C225.384 12.72 225.294 12.79 225.174 12.87C225.174 12.89 225.164 12.9 225.144 12.9C225.124 12.9 225.114 12.89 225.114 12.87C225.094 12.87 225.064 12.85 225.024 12.81C224.944 12.81 224.894 12.82 224.874 12.84L224.784 12.93C224.724 13.09 224.604 13.2 224.424 13.26C224.304 13.34 224.174 13.39 224.034 13.41C223.894 13.41 223.754 13.4 223.614 13.38C223.394 13.32 223.164 13.29 222.924 13.29C222.684 13.29 222.454 13.29 222.234 13.29C222.114 13.27 221.994 13.26 221.874 13.26C221.754 13.26 221.644 13.25 221.544 13.23C221.484 13.21 221.424 13.21 221.364 13.23C221.304 13.23 221.244 13.23 221.184 13.23C221.124 13.25 221.054 13.26 220.974 13.26C220.914 13.26 220.844 13.26 220.764 13.26C220.684 13.26 220.634 13.31 220.614 13.41V13.56C220.594 13.62 220.534 13.66 220.434 13.68V13.65C220.414 13.73 220.404 13.84 220.404 13.98C220.404 14.08 220.444 14.15 220.524 14.19C220.584 14.21 220.614 14.27 220.614 14.37C220.594 14.39 220.584 14.41 220.584 14.43C220.584 14.43 220.564 14.44 220.524 14.46C220.444 14.48 220.424 14.51 220.464 14.55C220.524 14.61 220.554 14.65 220.554 14.67C220.634 14.79 220.644 14.9 220.584 15L220.494 15.18C220.474 15.26 220.484 15.33 220.524 15.39C220.564 15.43 220.584 15.45 220.584 15.45L220.674 15.57C220.674 15.59 220.644 15.63 220.584 15.69C220.544 15.73 220.524 15.76 220.524 15.78V16.41C220.544 16.43 220.554 16.46 220.554 16.5C220.574 16.54 220.594 16.58 220.614 16.62C220.674 16.72 220.724 16.83 220.764 16.95C220.804 17.05 220.824 17.16 220.824 17.28C220.824 17.32 220.814 17.35 220.794 17.37C220.794 17.37 220.774 17.39 220.734 17.43L220.704 17.4C220.684 17.36 220.674 17.32 220.674 17.28C220.674 17.24 220.664 17.21 220.644 17.19C220.604 17.39 220.614 17.55 220.674 17.67C220.674 17.69 220.684 17.71 220.704 17.73C220.724 17.73 220.744 17.74 220.764 17.76C220.804 17.8 220.824 17.83 220.824 17.85C220.844 17.89 220.854 17.94 220.854 18C220.854 18.18 220.884 18.33 220.944 18.45C221.004 18.63 221.034 18.8 221.034 18.96C221.034 19 221.034 19.05 221.034 19.11C221.054 19.15 221.064 19.19 221.064 19.23C221.064 19.27 221.044 19.31 221.004 19.35C220.964 19.43 220.914 19.45 220.854 19.41C220.794 19.41 220.764 19.38 220.764 19.32V19.23C220.704 19.29 220.654 19.38 220.614 19.5C220.594 19.52 220.584 19.55 220.584 19.59C220.584 19.61 220.574 19.64 220.554 19.68C220.534 19.76 220.464 19.82 220.344 19.86H220.164C220.144 19.88 220.124 19.89 220.104 19.89C220.084 19.89 220.054 19.91 220.014 19.95C219.994 19.95 219.974 19.96 219.954 19.98C219.954 19.98 219.944 19.98 219.924 19.98C219.824 19.98 219.754 20 219.714 20.04H219.654ZM220.854 19.23C220.834 19.19 220.814 19.18 220.794 19.2C220.794 19.22 220.784 19.23 220.764 19.23H220.854Z" fill="#353535"/>
</svg>
