<svg width="128" height="23" viewBox="0 0 128 23" fill="none" xmlns="http://www.w3.org/2000/svg">
<path d="M4.27354 22.15C4.22354 22.15 4.18187 22.1333 4.14854 22.1C4.1152 22.0833 4.08187 22.0667 4.04854 22.05C3.98187 21.95 3.93187 21.85 3.89854 21.75C3.88187 21.65 3.8652 21.55 3.84854 21.45C3.83187 21.3667 3.82354 21.275 3.82354 21.175C3.82354 21.125 3.82354 21.0667 3.82354 21C3.82354 20.95 3.8152 20.8917 3.79854 20.825C3.78187 20.7417 3.7652 20.6583 3.74854 20.575C3.73187 20.5083 3.7152 20.4417 3.69854 20.375C3.64854 20.1583 3.55687 19.9833 3.42354 19.85C3.3402 19.8 3.27354 19.7333 3.22354 19.65C3.10687 19.5333 2.99854 19.4083 2.89854 19.275C2.79854 19.1583 2.70687 19.0333 2.62354 18.9L2.49854 18.675C2.38187 18.5417 2.28187 18.4 2.19854 18.25C2.13187 18.1 2.0652 17.95 1.99854 17.8L1.84854 17.4L1.77354 17.25C1.75687 17.1167 1.73187 16.9917 1.69854 16.875C1.6652 16.7417 1.63187 16.6167 1.59854 16.5C1.58187 16.4167 1.5652 16.35 1.54854 16.3C1.53187 16.2333 1.5152 16.1667 1.49854 16.1C1.48187 15.9667 1.4652 15.8333 1.44854 15.7C1.43187 15.5667 1.40687 15.4417 1.37354 15.325C1.35687 15.2917 1.34854 15.2333 1.34854 15.15L1.27354 14.45C1.25687 14.2667 1.2402 14.0917 1.22354 13.925C1.20687 13.7583 1.18187 13.5917 1.14854 13.425V13.325C1.14854 13.1917 1.1402 13.0583 1.12354 12.925C1.10687 12.7917 1.0902 12.6667 1.07354 12.55C1.05687 12.4833 1.04854 12.425 1.04854 12.375C1.04854 12.3083 1.04854 12.2417 1.04854 12.175C1.08187 12.0917 1.08187 12.0167 1.04854 11.95C1.03187 11.8667 1.02354 11.7833 1.02354 11.7C1.02354 11.6 1.02354 11.5167 1.02354 11.45C1.02354 11.2833 1.0152 11.125 0.998535 10.975C0.998535 10.8083 0.998535 10.6417 0.998535 10.475C0.998535 10.2917 0.998535 10.1083 0.998535 9.925C1.0152 9.74167 1.03187 9.56667 1.04854 9.4V9.225C1.0652 8.85833 1.10687 8.5 1.17354 8.15C1.2402 7.8 1.32354 7.45833 1.42354 7.125L1.72354 6.125C1.75687 6.025 1.7902 5.93333 1.82354 5.85C1.85687 5.75 1.8902 5.65833 1.92354 5.575C1.97354 5.44167 2.02354 5.30833 2.07354 5.175C2.12354 5.025 2.1652 4.88333 2.19854 4.75C2.23187 4.58333 2.27354 4.41667 2.32354 4.25C2.37354 4.06667 2.4152 3.89167 2.44854 3.725C2.5152 3.475 2.60687 3.23333 2.72354 3C2.8402 2.76667 2.9902 2.56667 3.17354 2.4C3.20687 2.36667 3.2402 2.33333 3.27354 2.3C3.30687 2.25 3.34854 2.21667 3.39854 2.2C3.48187 2.15 3.55687 2.1 3.62354 2.05C3.70687 2 3.7902 1.95 3.87354 1.9C4.20687 1.71667 4.5402 1.56667 4.87354 1.45L5.82354 1.075C5.92354 1.04167 6.0402 1.00833 6.17354 0.975C6.25687 0.941666 6.3402 0.924999 6.42354 0.924999C6.50687 0.908332 6.58187 0.891666 6.64854 0.874999C7.14854 0.775 7.6402 0.775 8.12354 0.874999C8.30687 0.924999 8.4902 0.999999 8.67354 1.1C8.9902 1.25 9.30687 1.44167 9.62354 1.675C9.80687 1.825 9.98187 1.99167 10.1485 2.175C10.3152 2.34167 10.4569 2.54167 10.5735 2.775C10.6902 2.99167 10.7985 3.20833 10.8985 3.425C10.9485 3.60833 11.0319 3.76667 11.1485 3.9L11.4485 4.35C11.4819 4.38333 11.5069 4.425 11.5235 4.475C11.5569 4.525 11.5819 4.56667 11.5985 4.6C11.7152 4.88333 11.7485 5.19167 11.6985 5.525C11.6485 5.79167 11.5652 6.00833 11.4485 6.175C11.3819 6.275 11.3319 6.34167 11.2985 6.375C11.0652 6.625 10.9485 6.94167 10.9485 7.325V7.4C10.9319 7.56667 10.9235 7.74167 10.9235 7.925C10.9235 8.09167 10.9152 8.26667 10.8985 8.45V9.5C10.8819 9.58333 10.8735 9.675 10.8735 9.775C10.8735 9.85833 10.8652 9.94167 10.8485 10.025C10.8319 10.075 10.8235 10.1333 10.8235 10.2C10.8235 10.25 10.8235 10.3083 10.8235 10.375C10.8235 10.5417 10.7819 10.7083 10.6985 10.875C10.5819 11.0417 10.4235 11.1 10.2235 11.05C10.0735 11 9.97354 10.9 9.92354 10.75C9.90687 10.7 9.88187 10.65 9.84854 10.6C9.83187 10.55 9.8152 10.4917 9.79854 10.425C9.78187 10.3417 9.7652 10.25 9.74854 10.15C9.74854 10.05 9.74854 9.95833 9.74854 9.875C9.74854 9.75833 9.7402 9.65 9.72354 9.55C9.72354 9.43333 9.72354 9.31667 9.72354 9.2V9.125C9.70687 9.00833 9.6902 8.9 9.67354 8.8C9.67354 8.68333 9.67354 8.56667 9.67354 8.45C9.65687 8.26667 9.6402 8.08333 9.62354 7.9C9.60687 7.71667 9.58187 7.54167 9.54854 7.375L9.32354 6.775C9.25687 6.64167 9.1902 6.50833 9.12354 6.375C9.07354 6.24167 9.0152 6.10833 8.94854 5.975C8.9152 5.85833 8.8652 5.75 8.79854 5.65C8.73187 5.55 8.6652 5.44167 8.59854 5.325C8.4652 5.075 8.3152 4.85833 8.14854 4.675C8.1152 4.64167 8.08187 4.60833 8.04854 4.575C8.0152 4.54167 7.98187 4.50833 7.94854 4.475C7.88187 4.44167 7.8152 4.40833 7.74854 4.375C7.69854 4.325 7.64854 4.26667 7.59854 4.2C7.58187 4.18333 7.55687 4.175 7.52354 4.175C7.50687 4.15833 7.48187 4.14167 7.44854 4.125C7.09854 4.025 6.7902 4.01667 6.52354 4.1L6.14854 4.175C6.08187 4.175 6.0152 4.18333 5.94854 4.2C5.89854 4.2 5.8402 4.20833 5.77354 4.225L5.59854 4.3C5.54854 4.31667 5.4902 4.375 5.42354 4.475C5.42354 4.54167 5.40687 4.60833 5.37354 4.675C5.35687 4.725 5.3402 4.775 5.32354 4.825C5.32354 4.85833 5.32354 4.89167 5.32354 4.925C5.27354 5.15833 5.20687 5.38333 5.12354 5.6C5.0402 5.81667 4.94854 6.04167 4.84854 6.275C4.8152 6.35833 4.7652 6.45 4.69854 6.55C4.6652 6.6 4.63187 6.65 4.59854 6.7C4.5652 6.73333 4.5402 6.79167 4.52354 6.875L4.37354 7.1C4.2902 7.18333 4.23187 7.3 4.19854 7.45C4.14854 7.58333 4.10687 7.725 4.07354 7.875C4.05687 8.00833 4.03187 8.14167 3.99854 8.275C3.94854 8.475 3.9152 8.675 3.89854 8.875C3.88187 9.075 3.8652 9.275 3.84854 9.475V11.125C3.84854 11.1917 3.8402 11.25 3.82354 11.3C3.82354 11.35 3.82354 11.4083 3.82354 11.475C3.82354 11.6083 3.8152 11.75 3.79854 11.9C3.79854 12.05 3.80687 12.1917 3.82354 12.325C3.8402 12.375 3.84854 12.45 3.84854 12.55C3.84854 12.7667 3.87354 12.9917 3.92354 13.225C3.92354 13.2917 3.93187 13.3333 3.94854 13.35C4.03187 13.4333 4.04854 13.5167 3.99854 13.6C3.99854 13.65 4.00687 13.6833 4.02354 13.7C4.0902 13.9167 4.14854 14.1333 4.19854 14.35C4.24854 14.55 4.30687 14.7583 4.37354 14.975C4.4402 15.1583 4.50687 15.3417 4.57354 15.525C4.65687 15.7083 4.75687 15.8917 4.87354 16.075C5.00687 16.275 5.19854 16.4333 5.44854 16.55C5.54854 16.5833 5.64854 16.6167 5.74854 16.65C5.84854 16.6833 5.94854 16.7083 6.04854 16.725C6.1652 16.7417 6.27354 16.7583 6.37354 16.775C6.47354 16.775 6.57354 16.775 6.67354 16.775C6.80687 16.775 6.9402 16.7667 7.07354 16.75C7.20687 16.7333 7.33187 16.7167 7.44854 16.7C7.63187 16.6667 7.79854 16.6333 7.94854 16.6C8.1152 16.5667 8.28187 16.5333 8.44854 16.5C8.73187 16.45 8.9902 16.3667 9.22354 16.25C9.2402 16.25 9.2652 16.2333 9.29854 16.2C9.43187 16.1167 9.55687 16.0333 9.67354 15.95C9.80687 15.85 9.93187 15.7417 10.0485 15.625C10.1485 15.525 10.2485 15.425 10.3485 15.325C10.4652 15.225 10.5652 15.1167 10.6485 15L10.8735 14.675C10.9735 14.4917 11.0819 14.3583 11.1985 14.275C11.2652 14.2083 11.3152 14.15 11.3485 14.1C11.3819 14.05 11.4235 14.025 11.4735 14.025C11.5735 14.025 11.6735 14.0167 11.7735 14C11.8735 13.9833 11.9819 13.9833 12.0985 14C12.1985 14.0167 12.2902 14.05 12.3735 14.1C12.4735 14.1333 12.5652 14.1667 12.6485 14.2C12.6819 14.2167 12.7235 14.25 12.7735 14.3C12.8569 14.4 12.9235 14.5 12.9735 14.6C13.0402 14.6833 13.0819 14.7833 13.0985 14.9C13.1319 15.0333 13.1485 15.125 13.1485 15.175C13.1652 15.275 13.1485 15.3917 13.0985 15.525C13.0319 15.675 12.9319 15.8333 12.7985 16C12.7152 16.0667 12.6319 16.15 12.5485 16.25C12.4652 16.35 12.3819 16.4417 12.2985 16.525C12.1819 16.6417 12.0735 16.7667 11.9735 16.9C11.8735 17.0167 11.7569 17.1333 11.6235 17.25C11.5735 17.2833 11.5235 17.325 11.4735 17.375C11.4402 17.4083 11.4069 17.4417 11.3735 17.475C11.2235 17.625 11.0569 17.7583 10.8735 17.875C10.7069 17.975 10.5319 18.0667 10.3485 18.15L9.67354 18.45C9.50687 18.5167 9.33187 18.575 9.14854 18.625C8.98187 18.675 8.80687 18.725 8.62354 18.775C8.45687 18.825 8.28187 18.875 8.09854 18.925C7.93187 18.9583 7.75687 18.9917 7.57354 19.025L6.59854 19.175C6.48187 19.1917 6.35687 19.2083 6.22354 19.225C6.10687 19.2583 5.98187 19.2667 5.84854 19.25C5.68187 19.2333 5.50687 19.2833 5.32354 19.4C5.15687 19.4833 5.0652 19.6 5.04854 19.75C5.0152 19.85 4.99854 19.925 4.99854 19.975L4.92354 20.625C4.92354 20.7417 4.9152 20.8667 4.89854 21C4.89854 21.1333 4.8902 21.2667 4.87354 21.4C4.85687 21.4667 4.8402 21.5333 4.82354 21.6C4.80687 21.6833 4.78187 21.7667 4.74854 21.85C4.6652 22.05 4.50687 22.15 4.27354 22.15ZM25.7325 19.6C25.5825 19.6167 25.4409 19.6167 25.3075 19.6C25.1742 19.5833 25.0409 19.5167 24.9075 19.4C24.8742 19.3667 24.8242 19.3333 24.7575 19.3C24.6742 19.25 24.6242 19.1917 24.6075 19.125C24.5909 19.0583 24.5575 19.0083 24.5075 18.975C24.4575 18.925 24.4242 18.8667 24.4075 18.8C24.3909 18.75 24.3825 18.7 24.3825 18.65C24.3992 18.5833 24.4075 18.525 24.4075 18.475C24.4075 18.425 24.3992 18.375 24.3825 18.325C24.3825 18.275 24.3825 18.225 24.3825 18.175C24.3325 17.925 24.2825 17.675 24.2325 17.425C24.1825 17.1583 24.1409 16.9 24.1075 16.65C24.0909 16.5333 24.0742 16.4167 24.0575 16.3C24.0409 16.1833 24.0242 16.0667 24.0075 15.95C23.9909 15.7333 23.9659 15.5167 23.9325 15.3C23.9159 15.0833 23.8909 14.8667 23.8575 14.65C23.8242 14.5167 23.8075 14.4 23.8075 14.3C23.8075 14.1667 23.7992 14.0417 23.7825 13.925C23.7659 13.7917 23.7492 13.6667 23.7325 13.55C23.7159 13.45 23.6575 13.4 23.5575 13.4L23.3825 13.375C23.2992 13.3583 23.2075 13.35 23.1075 13.35C23.0075 13.35 22.9075 13.3417 22.8075 13.325H22.5575C22.5242 13.3417 22.4742 13.35 22.4075 13.35C22.3409 13.35 22.2742 13.35 22.2075 13.35C22.1575 13.3333 22.0909 13.3333 22.0075 13.35C21.9409 13.35 21.8742 13.3583 21.8075 13.375C21.7575 13.375 21.6909 13.3667 21.6075 13.35C21.5909 13.3333 21.5575 13.3333 21.5075 13.35C21.4742 13.35 21.4409 13.35 21.4075 13.35C21.3242 13.35 21.2325 13.3583 21.1325 13.375C21.0492 13.375 20.9659 13.375 20.8825 13.375C20.8325 13.375 20.7825 13.375 20.7325 13.375C20.6825 13.375 20.6325 13.3833 20.5825 13.4C20.4659 13.4167 20.3492 13.4333 20.2325 13.45C20.1159 13.45 19.9992 13.45 19.8825 13.45C19.7159 13.4333 19.5492 13.4333 19.3825 13.45C19.2159 13.4667 19.0492 13.4833 18.8825 13.5H18.8075C18.7242 13.5333 18.6825 13.5833 18.6825 13.65C18.6825 13.6667 18.6742 13.6833 18.6575 13.7C18.6575 13.7 18.6575 13.7083 18.6575 13.725C18.6575 13.8083 18.6659 13.875 18.6825 13.925C18.6992 14.0417 18.7159 14.1667 18.7325 14.3C18.7492 14.4167 18.7659 14.5417 18.7825 14.675L18.8575 15.275C18.8742 15.4417 18.8992 15.6083 18.9325 15.775C18.9659 15.925 18.9909 16.075 19.0075 16.225C19.0242 16.2417 19.0325 16.2667 19.0325 16.3C19.0325 16.3167 19.0409 16.3417 19.0575 16.375C19.0909 16.4583 19.1075 16.55 19.1075 16.65C19.1075 16.75 19.1075 16.85 19.1075 16.95C19.1409 16.9667 19.1325 17 19.0825 17.05C19.0659 17.0833 19.0492 17.1167 19.0325 17.15C19.0159 17.1833 19.0075 17.2167 19.0075 17.25C18.9575 17.4167 18.8492 17.575 18.6825 17.725C18.5159 17.8583 18.3575 17.9333 18.2075 17.95C18.1909 17.95 18.1742 17.9583 18.1575 17.975C18.1409 17.975 18.1159 17.975 18.0825 17.975C17.8659 18.025 17.6325 18.0083 17.3825 17.925L17.3075 17.875C17.2909 17.8083 17.2575 17.7583 17.2075 17.725C17.1575 17.6917 17.1159 17.6583 17.0825 17.625C17.0492 17.575 17.0075 17.5333 16.9575 17.5C16.9242 17.45 16.8992 17.3917 16.8825 17.325C16.8825 17.3083 16.8742 17.3 16.8575 17.3C16.7909 17.2167 16.7492 17.125 16.7325 17.025C16.7159 16.925 16.6992 16.825 16.6825 16.725L16.6075 16.325C16.5909 16.175 16.5659 16.025 16.5325 15.875C16.5159 15.7083 16.4992 15.5417 16.4825 15.375L16.3325 14.4C16.3159 14.2833 16.2992 14.1667 16.2825 14.05C16.2659 13.9167 16.2492 13.7917 16.2325 13.675L16.1575 12.875C16.1409 12.7083 16.1242 12.5417 16.1075 12.375C16.0909 12.2083 16.0659 12.0417 16.0325 11.875V11.65C16.0325 11.5167 16.0242 11.3833 16.0075 11.25C16.0075 11.1167 15.9992 10.9917 15.9825 10.875C15.9659 10.825 15.9575 10.775 15.9575 10.725C15.9575 10.675 15.9575 10.625 15.9575 10.575C15.9575 10.4917 15.9492 10.4167 15.9325 10.35C15.9325 10.2667 15.9242 10.1833 15.9075 10.1L15.8325 9.575C15.8159 9.39167 15.7825 9.2 15.7325 9C15.6992 8.8 15.6492 8.60833 15.5825 8.425C15.5492 8.325 15.5075 8.225 15.4575 8.125C15.4075 8.00833 15.3659 7.89167 15.3325 7.775C15.2992 7.64167 15.2659 7.55 15.2325 7.5C15.1825 7.33333 15.1825 7.175 15.2325 7.025L15.3825 6.65C15.3992 6.58333 15.4492 6.525 15.5325 6.475C15.5659 6.425 15.6075 6.38333 15.6575 6.35C15.7075 6.3 15.7575 6.25833 15.8075 6.225C15.8409 6.20833 15.8825 6.2 15.9325 6.2C15.9825 6.21667 16.0492 6.20833 16.1325 6.175L16.2075 6.125C16.3575 6.04167 16.5075 6.04167 16.6575 6.125C16.7409 6.15833 16.8242 6.19167 16.9075 6.225C17.0075 6.25833 17.0909 6.31667 17.1575 6.4C17.2575 6.41667 17.3242 6.49167 17.3575 6.625L17.5825 7.125C17.7159 7.40833 17.8325 7.7 17.9325 8C18.0325 8.3 18.0992 8.61667 18.1325 8.95C18.1492 9.06667 18.1659 9.19167 18.1825 9.325C18.2159 9.44167 18.2409 9.56667 18.2575 9.7V9.9C18.2575 9.98333 18.2659 10.0417 18.2825 10.075C18.2992 10.1917 18.3075 10.3167 18.3075 10.45C18.3242 10.5833 18.3325 10.7167 18.3325 10.85V10.9C18.3492 10.9833 18.3992 11.0417 18.4825 11.075C18.5325 11.0917 18.5825 11.1083 18.6325 11.125C18.6825 11.125 18.7325 11.125 18.7825 11.125C18.8659 11.1083 18.9325 11.1083 18.9825 11.125C19.0492 11.125 19.1159 11.125 19.1825 11.125C19.2992 11.125 19.4075 11.125 19.5075 11.125C19.6075 11.1083 19.7159 11.1 19.8325 11.1H20.1325C20.1825 11.1 20.2325 11.1083 20.2825 11.125C20.3492 11.125 20.4075 11.1167 20.4575 11.1C20.4909 11.1 20.5159 11.1 20.5325 11.1C20.5659 11.0833 20.5909 11.075 20.6075 11.075C20.7742 11.0917 20.9409 11.1 21.1075 11.1C21.2742 11.0833 21.4409 11.075 21.6075 11.075C21.7742 11.0917 21.9409 11.1 22.1075 11.1C22.2742 11.0833 22.4409 11.075 22.6075 11.075C22.7409 11.075 22.8659 11.0833 22.9825 11.1C23.1159 11.1 23.2409 11.1 23.3575 11.1C23.4742 11.1 23.5325 11.05 23.5325 10.95C23.5325 10.8667 23.5325 10.775 23.5325 10.675C23.5325 10.575 23.5242 10.4833 23.5075 10.4C23.4909 10.2167 23.4742 10.05 23.4575 9.9C23.4575 9.73333 23.4492 9.56667 23.4325 9.4C23.4159 9.16667 23.4075 8.94167 23.4075 8.725C23.4242 8.49167 23.4159 8.26667 23.3825 8.05C23.3659 7.86667 23.3492 7.68333 23.3325 7.5C23.3325 7.31667 23.3159 7.14167 23.2825 6.975V6.625C23.2825 6.55833 23.2909 6.50833 23.3075 6.475C23.3075 6.44167 23.3075 6.41667 23.3075 6.4C23.3242 6.36667 23.3325 6.34167 23.3325 6.325C23.3325 6.24167 23.3159 6.19167 23.2825 6.175L23.2075 6.125C23.1075 6.05833 23.0909 5.98333 23.1575 5.9C23.2075 5.83333 23.2159 5.75833 23.1825 5.675C23.1825 5.625 23.1909 5.59167 23.2075 5.575C23.2409 5.525 23.2742 5.475 23.3075 5.425C23.3409 5.375 23.3659 5.31667 23.3825 5.25C23.4325 5.06667 23.5075 4.98333 23.6075 5C23.7242 5 23.7992 5.01667 23.8325 5.05C23.8492 5.06667 23.8659 5.075 23.8825 5.075C23.8992 5.05833 23.9075 5.04167 23.9075 5.025C23.9075 4.925 23.9575 4.86667 24.0575 4.85C24.1575 4.83333 24.2325 4.81667 24.2825 4.8L24.4325 4.7H24.5075C24.5909 4.73333 24.6575 4.775 24.7075 4.825C24.7742 4.85833 24.8409 4.89167 24.9075 4.925C24.9409 4.94167 24.9825 4.975 25.0325 5.025C25.1492 5.175 25.2325 5.36667 25.2825 5.6C25.3159 5.76667 25.3492 5.925 25.3825 6.075C25.4159 6.225 25.4409 6.38333 25.4575 6.55C25.4575 6.58333 25.4575 6.61667 25.4575 6.65C25.4742 6.68333 25.4825 6.71667 25.4825 6.75L25.5075 6.925C25.5075 7.125 25.5159 7.325 25.5325 7.525C25.5659 7.70833 25.5909 7.9 25.6075 8.1C25.6242 8.11667 25.6325 8.15 25.6325 8.2C25.6159 8.31667 25.6075 8.43333 25.6075 8.55C25.6242 8.65 25.6409 8.76667 25.6575 8.9C25.6742 9.01667 25.6825 9.15 25.6825 9.3C25.6992 9.43333 25.7075 9.56667 25.7075 9.7C25.7075 9.78333 25.7075 9.875 25.7075 9.975C25.7242 10.075 25.7409 10.1667 25.7575 10.25C25.7742 10.3333 25.7825 10.4167 25.7825 10.5C25.7825 10.5833 25.7825 10.6667 25.7825 10.75C25.7825 10.8333 25.7825 10.9167 25.7825 11C25.7992 11.0667 25.8159 11.1417 25.8325 11.225V11.325C25.8492 11.525 25.8659 11.725 25.8825 11.925C25.9159 12.1083 25.9409 12.3 25.9575 12.5C25.9742 12.5167 25.9825 12.55 25.9825 12.6C25.9825 12.7833 25.9992 12.975 26.0325 13.175C26.0659 13.3583 26.0909 13.5417 26.1075 13.725L26.1825 14.6C26.1825 14.6167 26.1825 14.65 26.1825 14.7C26.1992 14.7333 26.2075 14.7667 26.2075 14.8C26.2242 14.8333 26.2325 14.9 26.2325 15C26.2325 15.15 26.2409 15.3 26.2575 15.45C26.2909 15.6 26.3159 15.75 26.3325 15.9C26.3659 16.0667 26.3909 16.2333 26.4075 16.4C26.4242 16.5667 26.4492 16.7417 26.4825 16.925C26.5159 17.125 26.5575 17.325 26.6075 17.525C26.6575 17.725 26.6992 17.925 26.7325 18.125C26.7492 18.1917 26.7575 18.2667 26.7575 18.35C26.7742 18.4167 26.7825 18.4917 26.7825 18.575C26.7825 18.6583 26.7575 18.7417 26.7075 18.825C26.6909 18.8417 26.6742 18.875 26.6575 18.925C26.6575 18.9583 26.6409 18.9917 26.6075 19.025C26.5909 19.0417 26.5825 19.0583 26.5825 19.075C26.5825 19.0917 26.5742 19.1 26.5575 19.1C26.4909 19.1167 26.4325 19.1583 26.3825 19.225C26.3325 19.2917 26.2742 19.3417 26.2075 19.375C26.1409 19.4417 26.0492 19.4917 25.9325 19.525L25.7325 19.6ZM31.4653 19.25C31.3653 19.25 31.2987 19.2417 31.2653 19.225C31.1987 19.1917 31.1403 19.1667 31.0903 19.15C31.0403 19.1333 30.9903 19.1167 30.9403 19.1C30.8903 19.0667 30.8403 19.0333 30.7903 19C30.757 18.95 30.7237 18.9 30.6903 18.85C30.657 18.8167 30.6237 18.8 30.5903 18.8C30.4903 18.8 30.4403 18.75 30.4403 18.65C30.4237 18.55 30.407 18.45 30.3903 18.35C30.3737 18.25 30.357 18.15 30.3403 18.05C30.3237 17.9 30.307 17.75 30.2903 17.6C30.2903 17.45 30.2737 17.3083 30.2403 17.175V16.95C30.2403 16.8833 30.232 16.825 30.2153 16.775C30.2153 16.725 30.2153 16.6667 30.2153 16.6C30.182 16.5167 30.182 16.45 30.2153 16.4C30.2487 16.1 30.2487 15.8 30.2153 15.5C30.1987 15.4167 30.1903 15.3333 30.1903 15.25C30.1903 15.1667 30.182 15.0833 30.1653 15C30.1653 14.8333 30.1653 14.6667 30.1653 14.5C30.1653 14.3167 30.1487 14.1417 30.1153 13.975V13.575C30.1153 13.4417 30.107 13.3167 30.0903 13.2C30.0903 13.0833 30.082 12.9667 30.0653 12.85C30.0487 12.7 30.032 12.55 30.0153 12.4C30.0153 12.25 30.007 12.1 29.9903 11.95C29.9737 11.9167 29.9653 11.8583 29.9653 11.775C29.9487 11.6917 29.932 11.6083 29.9153 11.525C29.9153 11.425 29.9153 11.3333 29.9153 11.25L29.8403 10C29.8237 9.86667 29.807 9.74167 29.7903 9.625C29.7903 9.49167 29.7903 9.36667 29.7903 9.25C29.7737 9.05 29.757 8.85 29.7403 8.65C29.7237 8.45 29.707 8.25833 29.6903 8.075C29.6903 8.04167 29.682 8.00833 29.6653 7.975C29.6653 7.94167 29.6653 7.91667 29.6653 7.9C29.6653 7.7 29.657 7.5 29.6403 7.3C29.6237 7.1 29.607 6.89167 29.5903 6.675L29.5153 5.975C29.4653 5.70833 29.457 5.41667 29.4903 5.1C29.4903 4.95 29.5487 4.825 29.6653 4.725C29.6987 4.69167 29.7237 4.675 29.7403 4.675C29.757 4.65833 29.7737 4.64167 29.7903 4.625C29.8737 4.60833 29.9153 4.55 29.9153 4.45C29.9153 4.41667 29.9487 4.4 30.0153 4.4H30.1403C30.157 4.4 30.1653 4.4 30.1653 4.4C30.182 4.38333 30.1987 4.375 30.2153 4.375C30.2487 4.35833 30.2737 4.34167 30.2903 4.325C30.3237 4.29167 30.3487 4.275 30.3653 4.275C30.3987 4.275 30.432 4.28333 30.4653 4.3C30.4987 4.3 30.532 4.30833 30.5653 4.325C30.5987 4.325 30.6237 4.31667 30.6403 4.3C30.7237 4.28333 30.807 4.29167 30.8903 4.325C30.9903 4.34167 31.0737 4.36667 31.1403 4.4C31.2403 4.41667 31.3153 4.48333 31.3653 4.6C31.4153 4.75 31.457 4.9 31.4903 5.05C31.5403 5.18333 31.5737 5.325 31.5903 5.475V5.675C31.6237 5.79167 31.6403 5.91667 31.6403 6.05C31.6403 6.16667 31.6403 6.29167 31.6403 6.425C31.6403 6.54167 31.6403 6.65833 31.6403 6.775C31.657 6.875 31.6737 6.975 31.6903 7.075C31.6903 7.125 31.6903 7.175 31.6903 7.225C31.6903 7.275 31.6987 7.325 31.7153 7.375C31.7153 7.475 31.7153 7.575 31.7153 7.675C31.732 7.775 31.7487 7.88333 31.7653 8C31.782 8.18333 31.7987 8.375 31.8153 8.575C31.832 8.775 31.8403 8.975 31.8403 9.175C31.8403 9.25833 31.8403 9.35 31.8403 9.45C31.8403 9.53333 31.8487 9.61667 31.8653 9.7C31.882 9.75 31.8903 9.8 31.8903 9.85C31.8903 9.9 31.8903 9.95 31.8903 10V10.5C31.8903 10.6 31.8987 10.6833 31.9153 10.75C31.9487 10.8667 31.957 10.9833 31.9403 11.1C31.9403 11.2 31.9487 11.3083 31.9653 11.425L32.0403 12.575C32.057 12.7417 32.0653 12.9167 32.0653 13.1C32.082 13.2667 32.0903 13.4417 32.0903 13.625C32.0903 13.6917 32.0903 13.7667 32.0903 13.85C32.0903 13.9167 32.0987 13.9833 32.1153 14.05C32.132 14.1 32.1403 14.15 32.1403 14.2C32.1403 14.25 32.1403 14.3 32.1403 14.35C32.157 14.3667 32.157 14.4 32.1403 14.45C32.1403 14.4833 32.1487 14.5167 32.1653 14.55C32.1987 14.6667 32.2153 14.7833 32.2153 14.9C32.2153 15.0167 32.2153 15.1417 32.2153 15.275C32.2153 15.3417 32.2153 15.4167 32.2153 15.5C32.232 15.5667 32.2403 15.6417 32.2403 15.725C32.257 15.8083 32.2653 15.9 32.2653 16C32.2653 16.1 32.2653 16.1917 32.2653 16.275C32.282 16.3583 32.2903 16.45 32.2903 16.55C32.2903 16.6333 32.2987 16.7167 32.3153 16.8C32.332 16.8333 32.3403 16.8667 32.3403 16.9C32.3403 17.0833 32.357 17.2667 32.3903 17.45C32.4237 17.6333 32.457 17.8167 32.4903 18C32.507 18.05 32.5153 18.1083 32.5153 18.175C32.5153 18.225 32.5153 18.275 32.5153 18.325C32.5153 18.375 32.4987 18.4167 32.4653 18.45C32.3987 18.5 32.3487 18.6 32.3153 18.75C32.3153 18.8 32.2903 18.8417 32.2403 18.875C32.1237 18.925 32.0237 18.9917 31.9403 19.075C31.807 19.1917 31.6487 19.25 31.4653 19.25ZM45.4847 20.475H45.3597C45.3097 20.475 45.2513 20.4667 45.1847 20.45C45.1347 20.45 45.0763 20.45 45.0097 20.45C44.893 20.4667 44.793 20.4417 44.7097 20.375C44.643 20.325 44.568 20.2583 44.4847 20.175C44.4513 20.1417 44.4097 20.1 44.3597 20.05C44.3263 20.0167 44.2847 19.9917 44.2347 19.975C44.2013 19.9583 44.168 19.9167 44.1347 19.85C44.118 19.8167 44.093 19.775 44.0597 19.725C44.043 19.675 44.018 19.625 43.9847 19.575C43.9513 19.4917 43.943 19.4 43.9597 19.3C43.9763 19.25 43.9847 19.2 43.9847 19.15C44.0013 19.1167 44.0097 19.075 44.0097 19.025C44.0097 18.8583 44.0097 18.7 44.0097 18.55C44.0097 18.3833 43.993 18.2167 43.9597 18.05C43.943 18 43.9347 17.95 43.9347 17.9C43.9347 17.8333 43.9263 17.7667 43.9097 17.7C43.9097 17.5833 43.9013 17.4917 43.8847 17.425C43.8847 17.3417 43.8763 17.2667 43.8597 17.2C43.8597 17.1333 43.8597 17.0667 43.8597 17C43.843 16.8833 43.8347 16.775 43.8347 16.675C43.8347 16.575 43.818 16.4667 43.7847 16.35V16.275C43.7847 16.0583 43.768 15.85 43.7347 15.65C43.718 15.4333 43.7097 15.2167 43.7097 15C43.7097 14.9 43.7013 14.825 43.6847 14.775C43.668 14.625 43.6513 14.475 43.6347 14.325C43.6347 14.1583 43.6347 13.9917 43.6347 13.825C43.6347 13.675 43.6347 13.525 43.6347 13.375C43.6347 13.2083 43.618 13.05 43.5847 12.9C43.568 12.8667 43.5597 12.825 43.5597 12.775C43.5597 12.725 43.5597 12.6833 43.5597 12.65C43.5597 11.9667 43.5597 11.2833 43.5597 10.6C43.5597 9.91667 43.568 9.24167 43.5847 8.575C43.5847 8.49167 43.5847 8.40833 43.5847 8.325C43.6013 8.24167 43.6097 8.15833 43.6097 8.075C43.6097 8.025 43.6097 7.975 43.6097 7.925C43.6263 7.875 43.6347 7.83333 43.6347 7.8C43.6347 7.61667 43.6347 7.43333 43.6347 7.25C43.6513 7.05 43.668 6.85833 43.6847 6.675C43.718 6.625 43.718 6.55833 43.6847 6.475C43.668 6.45833 43.643 6.45 43.6097 6.45L43.5347 6.525C43.5013 6.575 43.4597 6.625 43.4097 6.675C43.3597 6.725 43.318 6.775 43.2847 6.825C43.218 6.925 43.143 7.03333 43.0597 7.15C42.993 7.25 42.918 7.35833 42.8347 7.475C42.718 7.675 42.593 7.88333 42.4597 8.1C42.3263 8.3 42.2263 8.51667 42.1597 8.75C42.143 8.78333 42.1263 8.825 42.1097 8.875C42.093 8.90833 42.0763 8.94167 42.0597 8.975C41.993 9.14167 41.918 9.30833 41.8347 9.475C41.768 9.625 41.7013 9.79167 41.6347 9.975C41.5347 10.1917 41.393 10.3917 41.2097 10.575C41.1763 10.6083 41.143 10.625 41.1097 10.625C41.0263 10.675 40.9347 10.725 40.8347 10.775C40.7347 10.8083 40.6263 10.8167 40.5097 10.8H40.3597C40.2097 10.8333 40.0847 10.8 39.9847 10.7C39.868 10.6667 39.768 10.6083 39.6847 10.525C39.618 10.4417 39.543 10.35 39.4597 10.25C39.393 10.1667 39.3347 10.0667 39.2847 9.95C39.2513 9.83333 39.2347 9.71667 39.2347 9.6C39.218 9.56667 39.2097 9.525 39.2097 9.475C39.2097 9.425 39.2097 9.38333 39.2097 9.35C39.193 9.31667 39.1763 9.28333 39.1597 9.25C39.143 9.2 39.1347 9.16667 39.1347 9.15C39.1347 9.11667 39.118 9.06667 39.0847 9C39.0513 8.93333 38.9847 8.8 38.8847 8.6C38.7847 8.4 38.7347 8.30833 38.7347 8.325C38.6847 8.24167 38.6347 8.15 38.5847 8.05C38.5347 7.95 38.4763 7.85833 38.4097 7.775L38.2597 7.5C38.2263 7.5 38.2013 7.49167 38.1847 7.475L38.1597 7.5C38.1597 7.55 38.1597 7.6 38.1597 7.65C38.1597 7.7 38.168 7.75 38.1847 7.8C38.218 7.98333 38.2347 8.16667 38.2347 8.35C38.2347 8.53333 38.218 8.71667 38.1847 8.9C38.1847 9 38.193 9.08333 38.2097 9.15C38.2263 9.18333 38.2347 9.24167 38.2347 9.325C38.2347 9.425 38.2347 9.525 38.2347 9.625C38.2513 9.725 38.2513 9.825 38.2347 9.925C38.218 10.0083 38.2097 10.1 38.2097 10.2C38.2263 10.2833 38.243 10.3667 38.2597 10.45V10.7C38.2263 10.8 38.2263 10.9083 38.2597 11.025C38.2763 11.1083 38.2763 11.2 38.2597 11.3C38.2597 11.3833 38.268 11.4667 38.2847 11.55C38.2847 11.6333 38.268 11.7417 38.2347 11.875C38.1347 12.275 38.1597 12.6583 38.3097 13.025C38.3263 13.0917 38.343 13.1583 38.3597 13.225C38.3763 13.275 38.3763 13.3333 38.3597 13.4C38.3597 13.45 38.3597 13.5 38.3597 13.55C38.3597 13.6 38.368 13.65 38.3847 13.7C38.418 13.7667 38.4347 13.8333 38.4347 13.9C38.4513 14.0833 38.4597 14.225 38.4597 14.325C38.4763 14.425 38.493 14.5 38.5097 14.55C38.543 14.7333 38.5763 14.925 38.6097 15.125C38.643 15.3083 38.6763 15.4917 38.7097 15.675C38.743 15.8917 38.7763 16.1083 38.8097 16.325C38.8597 16.525 38.8847 16.7333 38.8847 16.95C38.8847 17.0167 38.893 17.0667 38.9097 17.1C38.943 17.2333 38.9597 17.375 38.9597 17.525C38.9597 17.6583 38.968 17.7917 38.9847 17.925C38.9847 18.1083 38.943 18.25 38.8597 18.35C38.8263 18.4167 38.8097 18.4583 38.8097 18.475C38.6597 18.7917 38.393 18.975 38.0097 19.025C37.9597 19.0417 37.9097 19.05 37.8597 19.05C37.8097 19.05 37.7597 19.05 37.7097 19.05C37.5263 19.0833 37.393 19.05 37.3097 18.95C37.2763 18.9167 37.243 18.9 37.2097 18.9C37.1263 18.9167 37.043 18.8667 36.9597 18.75C36.9097 18.6667 36.8347 18.5917 36.7347 18.525C36.6847 18.475 36.643 18.3917 36.6097 18.275C36.593 18.2417 36.5763 18.2083 36.5597 18.175C36.5597 18.1417 36.5597 18.1083 36.5597 18.075C36.543 17.8417 36.518 17.6167 36.4847 17.4C36.4513 17.1667 36.4263 16.9417 36.4097 16.725L36.3847 16.475C36.368 16.4083 36.3597 16.35 36.3597 16.3C36.3597 16.25 36.3513 16.1917 36.3347 16.125V15.975C36.2847 15.7417 36.2597 15.5083 36.2597 15.275C36.2597 15.025 36.268 14.7833 36.2847 14.55C36.3013 14.4 36.3097 14.25 36.3097 14.1C36.3097 13.9333 36.318 13.775 36.3347 13.625V13.05C36.3347 12.9667 36.3347 12.8833 36.3347 12.8C36.3347 12.7 36.3263 12.6083 36.3097 12.525C36.293 12.425 36.2847 12.325 36.2847 12.225C36.2847 12.125 36.2847 12.025 36.2847 11.925V10.775C36.268 10.6417 36.2597 10.5083 36.2597 10.375C36.2597 10.225 36.2597 10.0833 36.2597 9.95C36.2597 9.9 36.2597 9.85 36.2597 9.8C36.2597 9.73333 36.2513 9.675 36.2347 9.625C36.2347 9.54167 36.2263 9.46667 36.2097 9.4C36.2097 9.31667 36.2013 9.24167 36.1847 9.175V9C36.1513 8.85 36.1347 8.70833 36.1347 8.575C36.1347 8.425 36.1347 8.275 36.1347 8.125C36.1347 7.99167 36.1347 7.85833 36.1347 7.725C36.1347 7.575 36.118 7.44167 36.0847 7.325C36.068 7.275 36.0597 7.225 36.0597 7.175C36.0597 7.125 36.0597 7.075 36.0597 7.025C36.0597 6.90833 36.0597 6.8 36.0597 6.7C36.0597 6.58333 36.043 6.46667 36.0097 6.35C35.993 6.31667 35.9847 6.25833 35.9847 6.175V4.925C35.9847 4.84167 35.9847 4.76667 35.9847 4.7C35.9847 4.61667 35.968 4.54167 35.9347 4.475C35.8847 4.30833 35.893 4.11667 35.9597 3.9C35.993 3.81667 36.0263 3.75833 36.0597 3.725C36.093 3.675 36.1263 3.625 36.1597 3.575C36.193 3.525 36.218 3.475 36.2347 3.425C36.268 3.375 36.293 3.35 36.3097 3.35C36.3763 3.33333 36.4263 3.30833 36.4597 3.275C36.5097 3.24167 36.5513 3.20833 36.5847 3.175L36.7347 3.1C36.768 3.08333 36.818 3.075 36.8847 3.075C36.968 3.09167 37.0513 3.10833 37.1347 3.125C37.2347 3.125 37.3263 3.13333 37.4097 3.15C37.5097 3.15 37.5847 3.19167 37.6347 3.275C37.718 3.39167 37.8013 3.50833 37.8847 3.625C37.968 3.74167 38.0347 3.86667 38.0847 4C38.1347 4.11667 38.2013 4.21667 38.2847 4.3C38.3847 4.43333 38.4847 4.56667 38.5847 4.7C38.6847 4.83333 38.793 4.96667 38.9097 5.1C38.9597 5.15 39.0013 5.20833 39.0347 5.275C39.0847 5.34167 39.1263 5.40833 39.1597 5.475C39.243 5.59167 39.318 5.70833 39.3847 5.825C39.468 5.925 39.5513 6.03333 39.6347 6.15L40.0097 6.75C40.043 6.81667 40.0763 6.88333 40.1097 6.95C40.143 7 40.1763 7.05 40.2097 7.1C40.243 7.18333 40.293 7.19167 40.3597 7.125C40.4263 7.04167 40.493 6.95833 40.5597 6.875C40.643 6.775 40.718 6.68333 40.7847 6.6C40.9347 6.41667 41.0847 6.225 41.2347 6.025C41.3847 5.825 41.543 5.63333 41.7097 5.45L41.8597 5.225C41.9763 5.05833 42.0847 4.9 42.1847 4.75C42.3013 4.58333 42.4097 4.41667 42.5097 4.25C42.6263 4.06667 42.7263 3.88333 42.8097 3.7C42.9097 3.51667 42.993 3.33333 43.0597 3.15L43.3597 2.475C43.4597 2.275 43.6013 2.10833 43.7847 1.975C44.0347 1.775 44.3097 1.7 44.6097 1.75C44.7263 1.76667 44.8347 1.8 44.9347 1.85C45.0347 1.88333 45.1347 1.91667 45.2347 1.95C45.3347 1.98333 45.4013 2.05833 45.4347 2.175C45.468 2.225 45.493 2.275 45.5097 2.325C45.5263 2.375 45.5347 2.425 45.5347 2.475C45.5513 2.59167 45.5763 2.7 45.6097 2.8C45.643 2.88333 45.668 2.98333 45.6847 3.1L45.7097 3.35C45.743 3.5 45.7763 3.65 45.8097 3.8C45.8597 3.95 45.9013 4.1 45.9347 4.25V4.3C45.9513 4.46667 45.968 4.63333 45.9847 4.8C46.018 4.95 46.0263 5.10833 46.0097 5.275V5.85C46.0097 5.93333 46.0097 6.01667 46.0097 6.1C46.0097 6.18333 46.0013 6.26667 45.9847 6.35C45.968 6.46667 45.9597 6.58333 45.9597 6.7C45.9597 6.8 45.9597 6.90833 45.9597 7.025C45.943 7.09167 45.9347 7.15833 45.9347 7.225C45.9347 7.29167 45.9263 7.35833 45.9097 7.425C45.893 7.49167 45.8847 7.55833 45.8847 7.625C45.8847 7.675 45.8847 7.74167 45.8847 7.825V8.525C45.8847 8.64167 45.8763 8.75 45.8597 8.85C45.8597 8.95 45.8513 9.05833 45.8347 9.175C45.818 9.24167 45.8097 9.30833 45.8097 9.375C45.8097 9.425 45.8097 9.48333 45.8097 9.55V11.075C45.8097 11.1917 45.8097 11.3083 45.8097 11.425C45.8263 11.5417 45.843 11.6583 45.8597 11.775C45.8763 11.8583 45.8847 11.95 45.8847 12.05C45.8847 12.1333 45.8847 12.2167 45.8847 12.3C45.9013 12.4167 45.9097 12.5333 45.9097 12.65C45.9097 12.75 45.918 12.8667 45.9347 13V13.275C45.9513 13.4083 45.9597 13.55 45.9597 13.7C45.9597 13.8333 45.9597 13.9667 45.9597 14.1V14.425C45.993 14.5417 46.0097 14.6667 46.0097 14.8C46.0097 14.9333 46.018 15.0667 46.0347 15.2V15.375C46.068 15.475 46.0847 15.575 46.0847 15.675C46.0847 15.775 46.093 15.875 46.1097 15.975L46.1847 16.875C46.2013 16.9417 46.2097 17.0083 46.2097 17.075C46.2263 17.125 46.2347 17.1833 46.2347 17.25C46.2513 17.3167 46.2597 17.3833 46.2597 17.45C46.2597 17.5 46.268 17.5583 46.2847 17.625C46.2847 17.6417 46.2847 17.6667 46.2847 17.7C46.3013 17.7333 46.3097 17.7667 46.3097 17.8C46.3097 17.9167 46.318 18.0417 46.3347 18.175C46.368 18.3083 46.393 18.4417 46.4097 18.575L46.5097 19.275C46.5097 19.375 46.5013 19.4417 46.4847 19.475C46.468 19.575 46.4263 19.6667 46.3597 19.75C46.3097 19.85 46.268 19.9417 46.2347 20.025C46.2347 20.0417 46.2263 20.05 46.2097 20.05C46.093 20.15 45.9763 20.2333 45.8597 20.3C45.743 20.3833 45.618 20.4417 45.4847 20.475ZM59.7569 20.825C59.6069 20.825 59.4736 20.7667 59.3569 20.65C59.3236 20.6 59.2903 20.55 59.2569 20.5C59.2236 20.45 59.1903 20.4 59.1569 20.35C59.0069 20 58.9319 19.6333 58.9319 19.25L58.8569 18.65C58.8069 18.4167 58.7653 18.1833 58.7319 17.95C58.6986 17.7167 58.6403 17.4917 58.5569 17.275L58.4069 16.85C58.4069 16.8167 58.3986 16.7833 58.3819 16.75C58.3819 16.7167 58.3736 16.6833 58.3569 16.65L57.9819 15.325C57.9653 15.2917 57.9486 15.25 57.9319 15.2C57.9319 15.15 57.9153 15.1083 57.8819 15.075C57.8319 14.975 57.7903 14.875 57.7569 14.775C57.7403 14.6583 57.7153 14.5417 57.6819 14.425C57.6653 14.3417 57.6486 14.2667 57.6319 14.2C57.6153 14.1167 57.5903 14.0333 57.5569 13.95C57.5236 13.85 57.4903 13.7917 57.4569 13.775C57.4236 13.7417 57.3486 13.7417 57.2319 13.775C57.1486 13.7917 57.0569 13.8083 56.9569 13.825C56.8736 13.825 56.7903 13.8417 56.7069 13.875C56.6403 13.8917 56.5569 13.9083 56.4569 13.925C56.3736 13.925 56.2903 13.9333 56.2069 13.95L55.8569 14.025C55.7736 14.0417 55.6819 14.0667 55.5819 14.1C55.4986 14.1167 55.4153 14.125 55.3319 14.125L54.8819 14.2C54.7486 14.2333 54.6069 14.2667 54.4569 14.3C54.3069 14.3333 54.1653 14.3667 54.0319 14.4C53.6319 14.5 53.2319 14.575 52.8319 14.625C52.6986 14.6583 52.6236 14.7167 52.6069 14.8C52.5903 14.8 52.5819 14.8083 52.5819 14.825C52.4819 15.0917 52.3653 15.3583 52.2319 15.625C52.1153 15.875 51.9903 16.1333 51.8569 16.4C51.8236 16.4667 51.7903 16.5333 51.7569 16.6C51.7403 16.65 51.7153 16.7083 51.6819 16.775C51.6653 16.8083 51.6486 16.85 51.6319 16.9C51.6153 16.9333 51.5986 16.9667 51.5819 17C51.4819 17.1167 51.4319 17.2583 51.4319 17.425C51.4153 17.525 51.3819 17.625 51.3319 17.725C51.2819 17.8083 51.2319 17.8917 51.1819 17.975C51.1653 18.025 51.1319 18.05 51.0819 18.05C51.0153 18.0667 50.9486 18.0917 50.8819 18.125C50.8153 18.1583 50.7403 18.1917 50.6569 18.225C50.6069 18.2417 50.5569 18.2417 50.5069 18.225C50.4736 18.2083 50.4319 18.1917 50.3819 18.175C50.3486 18.1417 50.3153 18.125 50.2819 18.125C50.0986 18.1083 49.9653 18 49.8819 17.8C49.7486 17.5333 49.6569 17.2667 49.6069 17C49.5903 16.9333 49.5903 16.875 49.6069 16.825C49.6403 16.775 49.6653 16.725 49.6819 16.675C49.7819 16.6083 49.8403 16.5333 49.8569 16.45V16.425C49.8569 16.2083 49.8986 16.0083 49.9819 15.825C50.0819 15.625 50.1653 15.4333 50.2319 15.25C50.2653 15.15 50.3069 15.05 50.3569 14.95C50.4069 14.85 50.4569 14.75 50.5069 14.65C50.5736 14.5333 50.6236 14.425 50.6569 14.325C50.7069 14.2083 50.7486 14.0917 50.7819 13.975C50.8319 13.8417 50.8319 13.7167 50.7819 13.6C50.7486 13.5 50.7319 13.4083 50.7319 13.325C50.7319 13.225 50.7403 13.125 50.7569 13.025C50.7569 12.8417 50.8236 12.6833 50.9569 12.55C51.0236 12.4667 51.0903 12.4 51.1569 12.35C51.2403 12.2833 51.3153 12.2167 51.3819 12.15C51.5319 12 51.6486 11.8 51.7319 11.55C51.7986 11.3333 51.8486 11.1167 51.8819 10.9C51.9319 10.6667 51.9819 10.4417 52.0319 10.225C52.0653 10.0083 52.0986 9.8 52.1319 9.6C52.1819 9.38333 52.2319 9.175 52.2819 8.975C52.2986 8.89167 52.3153 8.81667 52.3319 8.75C52.3653 8.66667 52.3903 8.59167 52.4069 8.525C52.4569 8.39167 52.5069 8.26667 52.5569 8.15C52.6069 8.01667 52.6403 7.88333 52.6569 7.75C52.6903 7.68333 52.6903 7.625 52.6569 7.575C52.6403 7.49167 52.6403 7.41667 52.6569 7.35C52.6903 7.28333 52.7153 7.21667 52.7319 7.15C52.7819 7.03333 52.8153 6.91667 52.8319 6.8C52.8653 6.68333 52.9069 6.56667 52.9569 6.45C53.0403 6.23333 53.1069 6.05833 53.1569 5.925C53.2236 5.775 53.2819 5.60833 53.3319 5.425C53.3653 5.325 53.3986 5.23333 53.4319 5.15C53.4819 5.05 53.5153 4.95 53.5319 4.85C53.5819 4.7 53.6236 4.55 53.6569 4.4C53.6903 4.23333 53.7069 4.075 53.7069 3.925C53.7403 3.79167 53.7736 3.7 53.8069 3.65C53.8903 3.48333 53.9903 3.34167 54.1069 3.225C54.2403 3.10833 54.3653 2.99167 54.4819 2.875C54.5653 2.825 54.6486 2.79167 54.7319 2.775C54.8153 2.74167 54.8986 2.75 54.9819 2.8C55.0486 2.83333 55.0903 2.85 55.1069 2.85C55.2569 2.83333 55.3819 2.86667 55.4819 2.95C55.5819 3.03333 55.6653 3.13333 55.7319 3.25C55.7653 3.28333 55.7903 3.325 55.8069 3.375C55.8236 3.425 55.8403 3.46667 55.8569 3.5C55.9403 3.63333 55.9819 3.76667 55.9819 3.9C55.9819 3.96667 55.9903 4.04167 56.0069 4.125C56.0236 4.19167 56.0403 4.26667 56.0569 4.35C56.1069 4.45 56.1819 4.5 56.2819 4.5C56.2986 4.48333 56.3153 4.48333 56.3319 4.5C56.3486 4.51667 56.3569 4.53333 56.3569 4.55C56.4403 4.65 56.4653 4.75833 56.4319 4.875C56.3986 5.00833 56.3903 5.14167 56.4069 5.275C56.4403 5.39167 56.4736 5.51667 56.5069 5.65C56.5736 5.81667 56.6403 5.98333 56.7069 6.15C56.7736 6.31667 56.8403 6.48333 56.9069 6.65C56.9903 6.83333 57.0736 7.01667 57.1569 7.2C57.2403 7.38333 57.3153 7.56667 57.3819 7.75C57.4653 7.98333 57.5486 8.21667 57.6319 8.45C57.7319 8.68333 57.8403 8.91667 57.9569 9.15L58.0319 9.425C58.0486 9.49167 58.0653 9.55833 58.0819 9.625C58.1153 9.69167 58.1403 9.75833 58.1569 9.825C58.1903 9.875 58.2153 9.925 58.2319 9.975C58.2653 10.025 58.2986 10.0667 58.3319 10.1C58.4153 10.2167 58.4653 10.3417 58.4819 10.475C58.5319 10.6417 58.6069 10.7917 58.7069 10.925C58.7403 10.975 58.7903 11 58.8569 11C59.1069 10.9667 59.3569 10.9417 59.6069 10.925C59.8569 10.8917 60.1069 10.8417 60.3569 10.775C60.5403 10.725 60.7153 10.7 60.8819 10.7C61.1986 10.7 61.4903 10.8083 61.7569 11.025C62.0736 11.275 62.2403 11.5917 62.2569 11.975C62.2569 12.0583 62.2653 12.125 62.2819 12.175C62.2819 12.2917 62.2486 12.3833 62.1819 12.45C62.1653 12.5 62.1319 12.55 62.0819 12.6C62.0486 12.65 62.0153 12.7 61.9819 12.75C61.9486 12.8167 61.9153 12.8667 61.8819 12.9L61.7319 13.025C61.7153 13.0583 61.6903 13.1 61.6569 13.15C61.6236 13.1833 61.5819 13.2083 61.5319 13.225C61.4653 13.2417 61.3986 13.2667 61.3319 13.3C61.2653 13.3167 61.1903 13.325 61.1069 13.325C60.8069 13.3583 60.5403 13.35 60.3069 13.3H59.9069C59.8736 13.3 59.8236 13.3167 59.7569 13.35C59.6903 13.3833 59.6569 13.425 59.6569 13.475V13.575C59.7069 13.725 59.7403 13.8833 59.7569 14.05C59.7903 14.2 59.8403 14.3417 59.9069 14.475C59.9069 14.5417 59.9236 14.6083 59.9569 14.675C60.0403 14.825 60.1069 14.9833 60.1569 15.15C60.2069 15.3 60.2486 15.4583 60.2819 15.625C60.2819 15.6583 60.2986 15.725 60.3319 15.825C60.3819 15.9417 60.4236 16.0667 60.4569 16.2C60.4903 16.3167 60.5153 16.4417 60.5319 16.575C60.5319 16.675 60.5569 16.7667 60.6069 16.85C60.6736 17 60.7236 17.15 60.7569 17.3C60.7903 17.45 60.8153 17.6083 60.8319 17.775C60.8486 17.7917 60.8569 17.825 60.8569 17.875C60.8569 17.9083 60.8653 17.9417 60.8819 17.975C60.9653 18.1583 61.0236 18.3583 61.0569 18.575C61.0903 18.775 61.1319 18.975 61.1819 19.175C61.2153 19.275 61.2319 19.375 61.2319 19.475C61.2486 19.5917 61.2569 19.7083 61.2569 19.825C61.2569 19.9083 61.2319 20 61.1819 20.1C61.1319 20.15 61.1069 20.175 61.1069 20.175C61.0069 20.1917 60.9486 20.25 60.9319 20.35L60.8569 20.5C60.8236 20.5667 60.7736 20.6083 60.7069 20.625C60.6403 20.625 60.5819 20.65 60.5319 20.7C60.4653 20.7667 60.3736 20.8 60.2569 20.8C60.1903 20.8 60.1069 20.8 60.0069 20.8C59.9236 20.8 59.8403 20.8083 59.7569 20.825ZM53.7319 11.75C53.8319 11.7333 53.9319 11.7167 54.0319 11.7C54.1486 11.6833 54.2736 11.6667 54.4069 11.65C54.4903 11.6333 54.5986 11.6167 54.7319 11.6C54.8653 11.5833 54.9903 11.5667 55.1069 11.55C55.2236 11.5167 55.3403 11.5 55.4569 11.5C55.5736 11.4833 55.6903 11.4667 55.8069 11.45C55.9069 11.4167 56.0069 11.4 56.1069 11.4C56.2069 11.3833 56.3069 11.3667 56.4069 11.35C56.5569 11.3167 56.6153 11.2333 56.5819 11.1C56.5653 10.9667 56.5319 10.8333 56.4819 10.7C56.4486 10.55 56.3736 10.425 56.2569 10.325C56.2236 10.2917 56.2069 10.2417 56.2069 10.175V10.1C56.1736 9.96667 56.1319 9.84167 56.0819 9.725C56.0486 9.59167 56.0069 9.46667 55.9569 9.35C55.9236 9.21667 55.8819 9.1 55.8319 9C55.7986 8.88333 55.7569 8.76667 55.7069 8.65L55.4069 7.75C55.3569 7.63333 55.3069 7.51667 55.2569 7.4C55.2236 7.28333 55.1903 7.16667 55.1569 7.05L55.0819 6.95H55.0069L54.9569 7.025C54.8736 7.275 54.7736 7.525 54.6569 7.775C54.5569 8.025 54.4653 8.29167 54.3819 8.575C54.3819 8.60833 54.3736 8.65 54.3569 8.7C54.3403 8.75 54.3236 8.8 54.3069 8.85C54.2403 9.01667 54.1736 9.2 54.1069 9.4C54.0569 9.6 54.0153 9.8 53.9819 10C53.9653 10.1167 53.9486 10.2333 53.9319 10.35C53.9153 10.45 53.8903 10.5583 53.8569 10.675L53.6319 11.65C53.6153 11.6667 53.6236 11.6917 53.6569 11.725C53.6903 11.7417 53.7153 11.75 53.7319 11.75ZM66.4524 19.5C66.1358 19.5333 65.8774 19.4333 65.6774 19.2C65.5774 19.1 65.4858 18.9917 65.4024 18.875C65.3191 18.7583 65.2524 18.6333 65.2024 18.5C65.1191 18.2667 65.0441 18.0333 64.9774 17.8C64.9108 17.55 64.8524 17.3083 64.8024 17.075C64.7524 16.8917 64.7274 16.7167 64.7274 16.55C64.7108 16.3667 64.6858 16.1917 64.6524 16.025C64.6358 15.8417 64.6274 15.6583 64.6274 15.475C64.6274 15.375 64.6274 15.275 64.6274 15.175C64.6274 15.0583 64.6191 14.95 64.6024 14.85C64.5858 14.7833 64.5774 14.725 64.5774 14.675C64.5774 14.625 64.5774 14.5667 64.5774 14.5C64.5774 14.2667 64.5774 14.0333 64.5774 13.8C64.5774 13.55 64.5691 13.3083 64.5524 13.075C64.5524 12.9417 64.5441 12.825 64.5274 12.725C64.5108 12.6083 64.4774 12.4917 64.4274 12.375C64.3608 12.1917 64.3524 11.9917 64.4024 11.775C64.4024 11.725 64.4108 11.6917 64.4274 11.675C64.4608 11.5583 64.4774 11.4417 64.4774 11.325C64.4941 11.2083 64.4941 11.0917 64.4774 10.975C64.4608 10.8917 64.4524 10.8083 64.4524 10.725C64.4524 10.6417 64.4524 10.5667 64.4524 10.5C64.4358 10.3167 64.4274 10.1333 64.4274 9.95C64.4441 9.75 64.4608 9.55833 64.4774 9.375C64.4941 9.325 64.5024 9.275 64.5024 9.225C64.5024 9.175 64.5024 9.125 64.5024 9.075C64.4858 8.89167 64.4858 8.71667 64.5024 8.55C64.5358 8.38333 64.5608 8.21667 64.5774 8.05C64.6108 7.85 64.6441 7.65833 64.6774 7.475C64.7108 7.275 64.7524 7.075 64.8024 6.875C64.8358 6.79167 64.8524 6.7 64.8524 6.6C64.8524 6.5 64.8524 6.4 64.8524 6.3C64.8524 6.21667 64.8441 6.13333 64.8274 6.05C64.8274 5.96667 64.8274 5.89167 64.8274 5.825C64.8274 5.775 64.8274 5.725 64.8274 5.675C64.8274 5.625 64.8358 5.575 64.8524 5.525C64.8691 5.475 64.8774 5.425 64.8774 5.375C64.8774 5.325 64.8858 5.29167 64.9024 5.275C64.9524 5.20833 64.9941 5.15 65.0274 5.1C65.0608 5.03333 65.1108 4.975 65.1774 4.925C65.2608 4.875 65.3358 4.825 65.4024 4.775C65.4858 4.725 65.5608 4.68333 65.6274 4.65C65.7108 4.61667 65.7774 4.575 65.8274 4.525C65.8941 4.44167 65.9608 4.36667 66.0274 4.3C66.1108 4.21667 66.1774 4.125 66.2274 4.025C66.3108 3.94167 66.3941 3.85 66.4774 3.75C66.5774 3.63333 66.6858 3.54167 66.8024 3.475C66.8358 3.45833 66.8858 3.41667 66.9524 3.35C67.1524 3.16667 67.3858 3.05 67.6524 3C67.7024 2.98333 67.7441 2.975 67.7774 2.975C67.8274 2.95833 67.8774 2.95 67.9274 2.95L68.1024 2.875C68.2358 2.825 68.3524 2.85 68.4524 2.95C68.4858 3 68.5274 3.05 68.5774 3.1C68.6441 3.13333 68.7024 3.16667 68.7524 3.2C68.8858 3.31667 69.0108 3.44167 69.1274 3.575C69.2608 3.70833 69.3774 3.85833 69.4774 4.025C69.6441 4.29167 69.7858 4.55833 69.9024 4.825C70.0358 5.09167 70.1608 5.36667 70.2774 5.65L70.7274 6.725C70.7441 6.825 70.7858 6.91667 70.8524 7C70.9858 7.25 71.0858 7.50833 71.1524 7.775C71.2191 8.025 71.2858 8.28333 71.3524 8.55C71.3691 8.58333 71.3774 8.61667 71.3774 8.65C71.3941 8.68333 71.4024 8.71667 71.4024 8.75C71.4358 8.88333 71.4608 9.025 71.4774 9.175C71.5108 9.30833 71.5191 9.44167 71.5024 9.575C71.5191 9.725 71.5108 9.875 71.4774 10.025C71.4608 10.1583 71.4358 10.2917 71.4024 10.425C71.3524 10.5917 71.2941 10.75 71.2274 10.9C71.1608 11.0333 71.0858 11.175 71.0024 11.325C70.9691 11.425 70.9108 11.5167 70.8274 11.6C70.7441 11.6833 70.6608 11.7583 70.5774 11.825C70.4441 11.8917 70.3108 11.9917 70.1774 12.125C70.1441 12.1583 70.1024 12.1833 70.0524 12.2C70.0191 12.2167 69.9858 12.2417 69.9524 12.275C69.8358 12.325 69.7108 12.3833 69.5774 12.45C69.4441 12.5 69.3108 12.55 69.1774 12.6C69.1608 12.6 69.1524 12.6167 69.1524 12.65C69.1524 12.6667 69.1608 12.6833 69.1774 12.7L69.8524 13.175C69.9358 13.225 70.0108 13.275 70.0774 13.325C70.1441 13.3583 70.2108 13.4 70.2774 13.45L70.4274 13.525C70.6274 13.6417 70.8274 13.7667 71.0274 13.9C71.2274 14.0333 71.4191 14.1667 71.6024 14.3C71.9524 14.5167 72.3024 14.7417 72.6524 14.975C73.0024 15.1917 73.3358 15.4333 73.6524 15.7C73.9358 15.9167 74.1858 16.1667 74.4024 16.45C74.4524 16.5 74.5024 16.5583 74.5524 16.625C74.6024 16.675 74.6608 16.7167 74.7274 16.75L74.8024 16.825C75.0691 17.0583 75.2191 17.375 75.2524 17.775C75.2524 17.825 75.2441 17.875 75.2274 17.925C75.2274 17.975 75.2274 18.025 75.2274 18.075C75.2274 18.175 75.1941 18.2583 75.1274 18.325C75.0608 18.3583 75.0274 18.4 75.0274 18.45C74.9774 18.5667 74.9024 18.65 74.8024 18.7C74.7191 18.7333 74.6358 18.7833 74.5524 18.85C74.5191 18.8667 74.4608 18.875 74.3774 18.875C74.2774 18.8583 74.1691 18.8417 74.0524 18.825C73.9524 18.8083 73.8524 18.8 73.7524 18.8C73.6191 18.8 73.4774 18.7417 73.3274 18.625C73.2274 18.5417 73.1358 18.4667 73.0524 18.4C72.9691 18.3167 72.8858 18.2167 72.8024 18.1C72.5858 17.8 72.3024 17.525 71.9524 17.275C71.7858 17.1417 71.6274 17.0167 71.4774 16.9C71.3274 16.7833 71.1608 16.675 70.9774 16.575C70.8608 16.5083 70.7441 16.4417 70.6274 16.375C70.5274 16.2917 70.4108 16.2167 70.2774 16.15C69.8608 15.8667 69.4358 15.5917 69.0024 15.325C68.5691 15.0417 68.1358 14.7583 67.7024 14.475C67.6358 14.425 67.5608 14.375 67.4774 14.325C67.3941 14.275 67.3108 14.225 67.2274 14.175C67.1941 14.1417 67.1441 14.1083 67.0774 14.075C67.0108 14.075 66.9774 14.1 66.9774 14.15C66.9774 14.1667 66.9691 14.1833 66.9524 14.2C66.9524 14.2 66.9524 14.2083 66.9524 14.225C66.9524 14.275 66.9524 14.325 66.9524 14.375C66.9524 14.425 66.9608 14.475 66.9774 14.525C66.9941 14.6583 67.0024 14.7917 67.0024 14.925C67.0024 15.0417 67.0024 15.1667 67.0024 15.3C67.0024 15.4 67.0024 15.5 67.0024 15.6C67.0191 15.6833 67.0358 15.775 67.0524 15.875C67.0524 15.925 67.0524 15.9833 67.0524 16.05C67.0691 16.1 67.0774 16.15 67.0774 16.2C67.0608 16.35 67.0691 16.5 67.1024 16.65C67.1358 16.8 67.1608 16.95 67.1774 17.1L67.3274 17.75C67.3441 17.8167 67.3608 17.8917 67.3774 17.975C67.3941 18.0417 67.4108 18.1167 67.4274 18.2C67.4441 18.2667 67.4441 18.3333 67.4274 18.4C67.4274 18.45 67.4191 18.5083 67.4024 18.575C67.4024 18.5917 67.3858 18.6167 67.3524 18.65C67.2691 18.6667 67.2108 18.725 67.1774 18.825C67.1274 18.9417 67.0524 19.0417 66.9524 19.125C66.8691 19.225 66.7774 19.3167 66.6774 19.4C66.6608 19.4167 66.6274 19.4333 66.5774 19.45C66.5274 19.4667 66.4858 19.4833 66.4524 19.5ZM67.4274 10.75H67.4774C67.6608 10.7167 67.8441 10.6833 68.0274 10.65C68.2274 10.6 68.4191 10.5417 68.6024 10.475C68.7858 10.425 68.9441 10.3333 69.0774 10.2C69.1941 10.0833 69.2524 9.95 69.2524 9.8C69.2691 9.68333 69.2691 9.575 69.2524 9.475C69.2524 9.35833 69.2358 9.24167 69.2024 9.125C69.1358 8.825 69.0608 8.53333 68.9774 8.25C68.8941 7.95 68.7941 7.66667 68.6774 7.4L68.4524 6.8C68.4024 6.63333 68.3441 6.475 68.2774 6.325C68.2108 6.15833 68.1358 6 68.0524 5.85C68.0358 5.81667 68.0191 5.78333 68.0024 5.75C67.9858 5.7 67.9691 5.65833 67.9524 5.625L67.8524 5.525C67.8024 5.45833 67.7441 5.45833 67.6774 5.525C67.6608 5.525 67.6358 5.54167 67.6024 5.575C67.4858 5.725 67.3774 5.88333 67.2774 6.05C67.1941 6.21667 67.1441 6.4 67.1274 6.6C67.1108 6.66667 67.0941 6.73333 67.0774 6.8C67.0774 6.86667 67.0774 6.94167 67.0774 7.025V8.1C67.0608 8.33333 67.0524 8.575 67.0524 8.825C67.0691 9.075 67.0608 9.31667 67.0274 9.55C67.0108 9.6 67.0024 9.65 67.0024 9.7C67.0191 9.75 67.0274 9.8 67.0274 9.85C67.0441 9.95 67.0524 10.05 67.0524 10.15C67.0524 10.2333 67.0524 10.325 67.0524 10.425C67.0524 10.5917 67.0691 10.6917 67.1024 10.725C67.1524 10.7583 67.2608 10.7667 67.4274 10.75ZM79.4651 19.5C79.1485 19.5333 78.8901 19.4333 78.6901 19.2C78.5901 19.1 78.4985 18.9917 78.4151 18.875C78.3318 18.7583 78.2651 18.6333 78.2151 18.5C78.1318 18.2667 78.0568 18.0333 77.9901 17.8C77.9235 17.55 77.8651 17.3083 77.8151 17.075C77.7651 16.8917 77.7401 16.7167 77.7401 16.55C77.7235 16.3667 77.6985 16.1917 77.6651 16.025C77.6485 15.8417 77.6401 15.6583 77.6401 15.475C77.6401 15.375 77.6401 15.275 77.6401 15.175C77.6401 15.0583 77.6318 14.95 77.6151 14.85C77.5985 14.7833 77.5901 14.725 77.5901 14.675C77.5901 14.625 77.5901 14.5667 77.5901 14.5C77.5901 14.2667 77.5901 14.0333 77.5901 13.8C77.5901 13.55 77.5818 13.3083 77.5651 13.075C77.5651 12.9417 77.5568 12.825 77.5401 12.725C77.5235 12.6083 77.4901 12.4917 77.4401 12.375C77.3735 12.1917 77.3651 11.9917 77.4151 11.775C77.4151 11.725 77.4235 11.6917 77.4401 11.675C77.4735 11.5583 77.4901 11.4417 77.4901 11.325C77.5068 11.2083 77.5068 11.0917 77.4901 10.975C77.4735 10.8917 77.4651 10.8083 77.4651 10.725C77.4651 10.6417 77.4651 10.5667 77.4651 10.5C77.4485 10.3167 77.4401 10.1333 77.4401 9.95C77.4568 9.75 77.4735 9.55833 77.4901 9.375C77.5068 9.325 77.5151 9.275 77.5151 9.225C77.5151 9.175 77.5151 9.125 77.5151 9.075C77.4985 8.89167 77.4985 8.71667 77.5151 8.55C77.5485 8.38333 77.5735 8.21667 77.5901 8.05C77.6235 7.85 77.6568 7.65833 77.6901 7.475C77.7235 7.275 77.7651 7.075 77.8151 6.875C77.8485 6.79167 77.8651 6.7 77.8651 6.6C77.8651 6.5 77.8651 6.4 77.8651 6.3C77.8651 6.21667 77.8568 6.13333 77.8401 6.05C77.8401 5.96667 77.8401 5.89167 77.8401 5.825C77.8401 5.775 77.8401 5.725 77.8401 5.675C77.8401 5.625 77.8485 5.575 77.8651 5.525C77.8818 5.475 77.8901 5.425 77.8901 5.375C77.8901 5.325 77.8985 5.29167 77.9151 5.275C77.9651 5.20833 78.0068 5.15 78.0401 5.1C78.0735 5.03333 78.1235 4.975 78.1901 4.925C78.2735 4.875 78.3485 4.825 78.4151 4.775C78.4985 4.725 78.5735 4.68333 78.6401 4.65C78.7235 4.61667 78.7901 4.575 78.8401 4.525C78.9068 4.44167 78.9735 4.36667 79.0401 4.3C79.1235 4.21667 79.1901 4.125 79.2401 4.025C79.3235 3.94167 79.4068 3.85 79.4901 3.75C79.5901 3.63333 79.6985 3.54167 79.8151 3.475C79.8485 3.45833 79.8985 3.41667 79.9651 3.35C80.1651 3.16667 80.3985 3.05 80.6651 3C80.7151 2.98333 80.7568 2.975 80.7901 2.975C80.8401 2.95833 80.8901 2.95 80.9401 2.95L81.1151 2.875C81.2485 2.825 81.3651 2.85 81.4651 2.95C81.4985 3 81.5401 3.05 81.5901 3.1C81.6568 3.13333 81.7151 3.16667 81.7651 3.2C81.8985 3.31667 82.0235 3.44167 82.1401 3.575C82.2735 3.70833 82.3901 3.85833 82.4901 4.025C82.6568 4.29167 82.7985 4.55833 82.9151 4.825C83.0485 5.09167 83.1735 5.36667 83.2901 5.65L83.7401 6.725C83.7568 6.825 83.7985 6.91667 83.8651 7C83.9985 7.25 84.0985 7.50833 84.1651 7.775C84.2318 8.025 84.2985 8.28333 84.3651 8.55C84.3818 8.58333 84.3901 8.61667 84.3901 8.65C84.4068 8.68333 84.4151 8.71667 84.4151 8.75C84.4485 8.88333 84.4735 9.025 84.4901 9.175C84.5235 9.30833 84.5318 9.44167 84.5151 9.575C84.5318 9.725 84.5235 9.875 84.4901 10.025C84.4735 10.1583 84.4485 10.2917 84.4151 10.425C84.3651 10.5917 84.3068 10.75 84.2401 10.9C84.1735 11.0333 84.0985 11.175 84.0151 11.325C83.9818 11.425 83.9235 11.5167 83.8401 11.6C83.7568 11.6833 83.6735 11.7583 83.5901 11.825C83.4568 11.8917 83.3235 11.9917 83.1901 12.125C83.1568 12.1583 83.1151 12.1833 83.0651 12.2C83.0318 12.2167 82.9985 12.2417 82.9651 12.275C82.8485 12.325 82.7235 12.3833 82.5901 12.45C82.4568 12.5 82.3235 12.55 82.1901 12.6C82.1735 12.6 82.1651 12.6167 82.1651 12.65C82.1651 12.6667 82.1735 12.6833 82.1901 12.7L82.8651 13.175C82.9485 13.225 83.0235 13.275 83.0901 13.325C83.1568 13.3583 83.2235 13.4 83.2901 13.45L83.4401 13.525C83.6401 13.6417 83.8401 13.7667 84.0401 13.9C84.2401 14.0333 84.4318 14.1667 84.6151 14.3C84.9651 14.5167 85.3151 14.7417 85.6651 14.975C86.0151 15.1917 86.3485 15.4333 86.6651 15.7C86.9485 15.9167 87.1985 16.1667 87.4151 16.45C87.4651 16.5 87.5151 16.5583 87.5651 16.625C87.6151 16.675 87.6735 16.7167 87.7401 16.75L87.8151 16.825C88.0818 17.0583 88.2318 17.375 88.2651 17.775C88.2651 17.825 88.2568 17.875 88.2401 17.925C88.2401 17.975 88.2401 18.025 88.2401 18.075C88.2401 18.175 88.2068 18.2583 88.1401 18.325C88.0735 18.3583 88.0401 18.4 88.0401 18.45C87.9901 18.5667 87.9151 18.65 87.8151 18.7C87.7318 18.7333 87.6485 18.7833 87.5651 18.85C87.5318 18.8667 87.4735 18.875 87.3901 18.875C87.2901 18.8583 87.1818 18.8417 87.0651 18.825C86.9651 18.8083 86.8651 18.8 86.7651 18.8C86.6318 18.8 86.4901 18.7417 86.3401 18.625C86.2401 18.5417 86.1485 18.4667 86.0651 18.4C85.9818 18.3167 85.8985 18.2167 85.8151 18.1C85.5985 17.8 85.3151 17.525 84.9651 17.275C84.7985 17.1417 84.6401 17.0167 84.4901 16.9C84.3401 16.7833 84.1735 16.675 83.9901 16.575C83.8735 16.5083 83.7568 16.4417 83.6401 16.375C83.5401 16.2917 83.4235 16.2167 83.2901 16.15C82.8735 15.8667 82.4485 15.5917 82.0151 15.325C81.5818 15.0417 81.1485 14.7583 80.7151 14.475C80.6485 14.425 80.5735 14.375 80.4901 14.325C80.4068 14.275 80.3235 14.225 80.2401 14.175C80.2068 14.1417 80.1568 14.1083 80.0901 14.075C80.0235 14.075 79.9901 14.1 79.9901 14.15C79.9901 14.1667 79.9818 14.1833 79.9651 14.2C79.9651 14.2 79.9651 14.2083 79.9651 14.225C79.9651 14.275 79.9651 14.325 79.9651 14.375C79.9651 14.425 79.9735 14.475 79.9901 14.525C80.0068 14.6583 80.0151 14.7917 80.0151 14.925C80.0151 15.0417 80.0151 15.1667 80.0151 15.3C80.0151 15.4 80.0151 15.5 80.0151 15.6C80.0318 15.6833 80.0485 15.775 80.0651 15.875C80.0651 15.925 80.0651 15.9833 80.0651 16.05C80.0818 16.1 80.0901 16.15 80.0901 16.2C80.0735 16.35 80.0818 16.5 80.1151 16.65C80.1485 16.8 80.1735 16.95 80.1901 17.1L80.3401 17.75C80.3568 17.8167 80.3735 17.8917 80.3901 17.975C80.4068 18.0417 80.4235 18.1167 80.4401 18.2C80.4568 18.2667 80.4568 18.3333 80.4401 18.4C80.4401 18.45 80.4318 18.5083 80.4151 18.575C80.4151 18.5917 80.3985 18.6167 80.3651 18.65C80.2818 18.6667 80.2235 18.725 80.1901 18.825C80.1401 18.9417 80.0651 19.0417 79.9651 19.125C79.8818 19.225 79.7901 19.3167 79.6901 19.4C79.6735 19.4167 79.6401 19.4333 79.5901 19.45C79.5401 19.4667 79.4985 19.4833 79.4651 19.5ZM80.4401 10.75H80.4901C80.6735 10.7167 80.8568 10.6833 81.0401 10.65C81.2401 10.6 81.4318 10.5417 81.6151 10.475C81.7985 10.425 81.9568 10.3333 82.0901 10.2C82.2068 10.0833 82.2651 9.95 82.2651 9.8C82.2818 9.68333 82.2818 9.575 82.2651 9.475C82.2651 9.35833 82.2485 9.24167 82.2151 9.125C82.1485 8.825 82.0735 8.53333 81.9901 8.25C81.9068 7.95 81.8068 7.66667 81.6901 7.4L81.4651 6.8C81.4151 6.63333 81.3568 6.475 81.2901 6.325C81.2235 6.15833 81.1485 6 81.0651 5.85C81.0485 5.81667 81.0318 5.78333 81.0151 5.75C80.9985 5.7 80.9818 5.65833 80.9651 5.625L80.8651 5.525C80.8151 5.45833 80.7568 5.45833 80.6901 5.525C80.6735 5.525 80.6485 5.54167 80.6151 5.575C80.4985 5.725 80.3901 5.88333 80.2901 6.05C80.2068 6.21667 80.1568 6.4 80.1401 6.6C80.1235 6.66667 80.1068 6.73333 80.0901 6.8C80.0901 6.86667 80.0901 6.94167 80.0901 7.025V8.1C80.0735 8.33333 80.0651 8.575 80.0651 8.825C80.0818 9.075 80.0735 9.31667 80.0401 9.55C80.0235 9.6 80.0151 9.65 80.0151 9.7C80.0318 9.75 80.0401 9.8 80.0401 9.85C80.0568 9.95 80.0651 10.05 80.0651 10.15C80.0651 10.2333 80.0651 10.325 80.0651 10.425C80.0651 10.5917 80.0818 10.6917 80.1151 10.725C80.1651 10.7583 80.2735 10.7667 80.4401 10.75ZM94.2675 19.25C94.2508 19.2333 94.2258 19.225 94.1925 19.225C94.0258 19.125 93.8591 19.0333 93.6925 18.95C93.5425 18.85 93.4008 18.7417 93.2675 18.625C93.2008 18.5917 93.1591 18.5583 93.1425 18.525C92.9925 18.4417 92.8591 18.3417 92.7425 18.225C92.6258 18.0917 92.5175 17.95 92.4175 17.8C92.3841 17.7667 92.3508 17.725 92.3175 17.675C92.2841 17.625 92.2425 17.575 92.1925 17.525C92.0258 17.3583 91.8925 17.1583 91.7925 16.925C91.7758 16.875 91.7508 16.825 91.7175 16.775C91.6841 16.725 91.6508 16.675 91.6175 16.625C91.5175 16.4917 91.4425 16.3667 91.3925 16.25C91.3591 16.1167 91.3091 15.9917 91.2425 15.875C91.1758 15.7417 91.1091 15.6167 91.0425 15.5C91.0258 15.4333 91.0008 15.3667 90.9675 15.3C90.9341 15.2333 90.9091 15.1667 90.8925 15.1C90.8925 15.0167 90.8675 14.925 90.8175 14.825C90.7508 14.6417 90.6841 14.4583 90.6175 14.275C90.5675 14.075 90.5175 13.875 90.4675 13.675C90.4341 13.6083 90.4175 13.5583 90.4175 13.525C90.3175 13.3083 90.2425 13.0833 90.1925 12.85C90.1425 12.6167 90.0925 12.3917 90.0425 12.175L89.8925 11.05C89.8758 11.0167 89.8675 10.975 89.8675 10.925C89.8675 10.875 89.8675 10.8333 89.8675 10.8C89.8675 10.7 89.8675 10.6083 89.8675 10.525C89.8675 10.425 89.8508 10.325 89.8175 10.225C89.7841 10.0083 89.7925 9.80833 89.8425 9.625C89.8425 9.55833 89.8425 9.5 89.8425 9.45C89.8591 9.38333 89.8675 9.31667 89.8675 9.25C89.8675 9.16667 89.8675 9.08333 89.8675 9C89.8841 8.9 89.9008 8.81667 89.9175 8.75C89.9341 8.7 89.9425 8.63333 89.9425 8.55C89.9758 8.4 89.9925 8.25833 89.9925 8.125C90.0091 7.975 90.0258 7.83333 90.0425 7.7C90.0925 7.46667 90.1175 7.24167 90.1175 7.025C90.1175 6.95833 90.1175 6.9 90.1175 6.85C90.1341 6.78333 90.1508 6.71667 90.1675 6.65C90.1675 6.5 90.1591 6.39167 90.1425 6.325C90.0925 6.25833 90.0841 6.16667 90.1175 6.05C90.1508 5.98333 90.1675 5.93333 90.1675 5.9C90.1841 5.86667 90.1925 5.83333 90.1925 5.8C90.1925 5.75 90.2175 5.71667 90.2675 5.7H90.4425C90.5091 5.7 90.5508 5.675 90.5675 5.625C90.5841 5.55833 90.6425 5.50833 90.7425 5.475C90.8258 5.44167 90.9008 5.41667 90.9675 5.4C91.0341 5.36667 91.1008 5.325 91.1675 5.275C91.2175 5.24167 91.2758 5.225 91.3425 5.225C91.4091 5.225 91.4758 5.23333 91.5425 5.25L91.9925 5.4C92.0091 5.41667 92.0175 5.425 92.0175 5.425C92.0341 5.425 92.0508 5.43333 92.0675 5.45C92.2008 5.58333 92.3091 5.73333 92.3925 5.9C92.4925 6.06667 92.5508 6.25 92.5675 6.45C92.5675 6.51667 92.5675 6.58333 92.5675 6.65C92.5675 6.7 92.5508 6.75833 92.5175 6.825C92.5008 6.925 92.4841 7.025 92.4675 7.125C92.4508 7.225 92.4341 7.33333 92.4175 7.45C92.3841 7.61667 92.3591 7.78333 92.3425 7.95C92.3425 8.1 92.3425 8.25833 92.3425 8.425C92.3258 8.49167 92.3175 8.55833 92.3175 8.625C92.3175 8.675 92.3091 8.73333 92.2925 8.8C92.2758 9 92.2675 9.2 92.2675 9.4C92.2675 9.6 92.2841 9.79167 92.3175 9.975C92.3175 9.99167 92.3175 10.0167 92.3175 10.05C92.3341 10.0833 92.3341 10.1167 92.3175 10.15C92.3175 10.3167 92.3341 10.4917 92.3675 10.675C92.4008 10.8583 92.4258 11.0417 92.4425 11.225C92.4591 11.3917 92.4758 11.55 92.4925 11.7C92.5091 11.85 92.5341 12 92.5675 12.15C92.6008 12.2167 92.6175 12.2833 92.6175 12.35C92.6341 12.4167 92.6508 12.4833 92.6675 12.55C92.7341 12.8667 92.8091 13.175 92.8925 13.475C92.9758 13.775 93.0841 14.075 93.2175 14.375C93.3008 14.5583 93.3841 14.7167 93.4675 14.85C93.6008 15.0833 93.7175 15.3167 93.8175 15.55C93.8841 15.6667 93.9508 15.7833 94.0175 15.9C94.0841 16 94.1508 16.1083 94.2175 16.225C94.2841 16.3083 94.3508 16.3833 94.4175 16.45C94.4841 16.5167 94.5508 16.5917 94.6175 16.675C94.7008 16.7583 94.8091 16.7833 94.9425 16.75C95.0258 16.7167 95.0841 16.6833 95.1175 16.65C95.2008 16.6 95.2758 16.55 95.3425 16.5C95.4258 16.45 95.5008 16.3917 95.5675 16.325C95.7508 16.1417 95.9175 15.9583 96.0675 15.775C96.2341 15.5917 96.3758 15.3917 96.4925 15.175C96.5925 14.9917 96.6925 14.8 96.7925 14.6C96.8925 14.4 96.9841 14.2 97.0675 14C97.1675 13.7667 97.2591 13.5333 97.3425 13.3C97.4425 13.0667 97.5341 12.825 97.6175 12.575C97.6841 12.4083 97.7341 12.2417 97.7675 12.075C97.8175 11.8917 97.8508 11.7167 97.8675 11.55C97.9008 11.3667 97.9258 11.1833 97.9425 11C97.9758 10.8 97.9841 10.6083 97.9675 10.425C97.9675 10.375 97.9675 10.325 97.9675 10.275C97.9841 10.225 97.9925 10.175 97.9925 10.125C98.0258 10.0083 98.0341 9.9 98.0175 9.8C98.0175 9.7 98.0091 9.6 97.9925 9.5C97.9758 9.21667 97.9508 8.95 97.9175 8.7C97.9008 8.43333 97.8841 8.16667 97.8675 7.9C97.8675 7.76667 97.8591 7.675 97.8425 7.625C97.8258 7.475 97.8091 7.325 97.7925 7.175C97.7925 7.025 97.7758 6.875 97.7425 6.725V6.525C97.7425 6.35833 97.7341 6.2 97.7175 6.05C97.7175 5.88333 97.7175 5.71667 97.7175 5.55C97.7175 5.41667 97.7091 5.3 97.6925 5.2C97.6925 5.08333 97.6925 4.96667 97.6925 4.85C97.6925 4.7 97.7175 4.575 97.7675 4.475C97.8175 4.39167 97.8341 4.325 97.8175 4.275C97.7675 4.175 97.7925 4.1 97.8925 4.05C97.9758 3.96667 98.0591 3.9 98.1425 3.85C98.2425 3.8 98.3508 3.76667 98.4675 3.75C98.5008 3.73333 98.5258 3.725 98.5425 3.725C98.5758 3.725 98.6008 3.71667 98.6175 3.7C98.7175 3.61667 98.8508 3.59167 99.0175 3.625C99.0508 3.64167 99.1008 3.65 99.1675 3.65C99.3175 3.68333 99.4258 3.74167 99.4925 3.825C99.5425 3.875 99.6175 3.93333 99.7175 4C99.8508 4.06667 99.9425 4.15 99.9925 4.25C100.042 4.35 100.076 4.45833 100.092 4.575C100.126 4.74167 100.151 4.9 100.167 5.05C100.201 5.2 100.209 5.35833 100.192 5.525V5.75C100.192 5.91667 100.192 6.08333 100.192 6.25C100.209 6.4 100.226 6.55833 100.242 6.725C100.259 6.775 100.267 6.83333 100.267 6.9C100.267 6.95 100.267 7 100.267 7.05C100.267 7.15 100.267 7.25 100.267 7.35C100.284 7.43333 100.301 7.525 100.317 7.625C100.334 7.65833 100.342 7.70833 100.342 7.775C100.326 7.94167 100.326 8.10833 100.342 8.275C100.376 8.425 100.401 8.58333 100.417 8.75C100.434 8.91667 100.442 9.09167 100.442 9.275C100.459 9.45833 100.467 9.64167 100.467 9.825C100.484 9.84167 100.484 9.86667 100.467 9.9C100.467 9.93333 100.467 9.96667 100.467 10C100.417 10.15 100.409 10.325 100.442 10.525C100.476 10.7417 100.467 10.95 100.417 11.15C100.401 11.3 100.384 11.45 100.367 11.6C100.351 11.75 100.326 11.9083 100.292 12.075C100.259 12.3417 100.201 12.6083 100.117 12.875C100.034 13.1417 99.9508 13.4083 99.8675 13.675C99.8675 13.7083 99.8425 13.7667 99.7925 13.85C99.7258 13.9667 99.6675 14.0917 99.6175 14.225C99.5675 14.3417 99.5258 14.4667 99.4925 14.6L99.4175 14.775C99.3341 14.9417 99.2591 15.1083 99.1925 15.275C99.1425 15.425 99.0758 15.5833 98.9925 15.75C98.9425 15.85 98.8925 15.95 98.8425 16.05C98.7925 16.15 98.7341 16.2417 98.6675 16.325C98.6508 16.3583 98.6258 16.3917 98.5925 16.425C98.5591 16.5417 98.5091 16.65 98.4425 16.75C98.3758 16.85 98.3091 16.95 98.2425 17.05C98.0591 17.3333 97.8425 17.6 97.5925 17.85C97.3591 18.1 97.1008 18.3333 96.8175 18.55L96.5175 18.725C96.2841 18.8417 96.0341 18.9417 95.7675 19.025C95.5175 19.1083 95.2591 19.1667 94.9925 19.2C94.9091 19.2167 94.8175 19.2167 94.7175 19.2C94.6675 19.2 94.6175 19.2 94.5675 19.2C94.5175 19.2 94.4675 19.2167 94.4175 19.25H94.2675ZM108.08 18.975C108.046 18.9583 107.996 18.95 107.93 18.95C107.896 18.95 107.863 18.925 107.83 18.875C107.796 18.825 107.763 18.7833 107.73 18.75C107.696 18.7 107.663 18.6417 107.63 18.575C107.58 18.5083 107.538 18.5083 107.505 18.575H107.455C107.455 18.5583 107.446 18.55 107.43 18.55C107.43 18.5333 107.43 18.525 107.43 18.525C107.38 18.2917 107.305 18.075 107.205 17.875C107.155 17.7417 107.105 17.6083 107.055 17.475C107.021 17.325 106.996 17.175 106.98 17.025L106.83 15.925L106.755 15.025V14.975C106.721 14.775 106.705 14.575 106.705 14.375C106.705 14.1583 106.705 13.9417 106.705 13.725C106.688 13.6083 106.68 13.5 106.68 13.4C106.68 13.2833 106.671 13.1667 106.655 13.05C106.638 12.9167 106.621 12.7833 106.605 12.65C106.605 12.5167 106.605 12.3917 106.605 12.275L106.63 10.3V7.625C106.596 7.525 106.546 7.475 106.48 7.475C106.446 7.475 106.405 7.48333 106.355 7.5C106.321 7.5 106.288 7.5 106.255 7.5L105.13 7.8C104.98 7.85 104.83 7.9 104.68 7.95C104.53 7.98333 104.38 8.025 104.23 8.075C104.113 8.09167 103.996 8.10833 103.88 8.125C103.78 8.125 103.671 8.125 103.555 8.125C103.471 8.125 103.38 8.09167 103.28 8.025C103.163 7.975 103.063 7.90833 102.98 7.825C102.896 7.74167 102.813 7.65 102.73 7.55L102.68 7.475C102.646 7.35833 102.613 7.25 102.58 7.15C102.563 7.03333 102.563 6.91667 102.58 6.8C102.596 6.65 102.63 6.50833 102.68 6.375C102.746 6.24167 102.838 6.125 102.955 6.025C103.005 5.99167 103.046 5.95 103.08 5.9C103.13 5.85 103.18 5.8 103.23 5.75C103.296 5.71667 103.338 5.7 103.355 5.7C103.455 5.7 103.546 5.68333 103.63 5.65C103.713 5.6 103.796 5.56667 103.88 5.55C103.963 5.53333 104.046 5.51667 104.13 5.5C104.213 5.48333 104.296 5.46667 104.38 5.45C104.613 5.38333 104.846 5.325 105.08 5.275C105.313 5.20833 105.546 5.15833 105.78 5.125L107.13 4.9C107.163 4.88333 107.188 4.875 107.205 4.875C107.238 4.875 107.263 4.86667 107.28 4.85C107.38 4.81667 107.48 4.79167 107.58 4.775C107.68 4.75833 107.78 4.76667 107.88 4.8C107.913 4.81667 107.938 4.825 107.955 4.825C107.988 4.80833 108.013 4.8 108.03 4.8C108.313 4.76667 108.596 4.73333 108.88 4.7C109.163 4.66667 109.438 4.625 109.705 4.575C109.921 4.54167 110.138 4.50833 110.355 4.475C110.571 4.44167 110.788 4.41667 111.005 4.4C111.171 4.36667 111.338 4.34167 111.505 4.325C111.671 4.30833 111.838 4.29167 112.005 4.275C112.138 4.25833 112.271 4.24167 112.405 4.225C112.555 4.20833 112.696 4.19167 112.83 4.175C112.963 4.15833 113.088 4.15833 113.205 4.175C113.338 4.175 113.471 4.175 113.605 4.175C113.688 4.175 113.763 4.2 113.83 4.25C113.913 4.3 113.988 4.34167 114.055 4.375C114.121 4.425 114.213 4.50833 114.33 4.625C114.363 4.65833 114.396 4.73333 114.43 4.85C114.446 4.9 114.463 4.95833 114.48 5.025C114.496 5.075 114.513 5.13333 114.53 5.2C114.563 5.35 114.546 5.49167 114.48 5.625L114.33 5.975C114.313 6.025 114.288 6.075 114.255 6.125C114.238 6.15833 114.213 6.19167 114.18 6.225C114.146 6.25833 114.13 6.275 114.13 6.275C114.063 6.325 113.988 6.375 113.905 6.425C113.838 6.475 113.755 6.50833 113.655 6.525L112.58 6.6C112.48 6.6 112.38 6.60833 112.28 6.625C112.18 6.625 112.071 6.63333 111.955 6.65H111.83C111.563 6.66667 111.305 6.69167 111.055 6.725C110.805 6.75833 110.555 6.79167 110.305 6.825L109.305 6.975C109.255 6.975 109.221 6.98333 109.205 7C109.138 7 109.088 7.05 109.055 7.15V7.225C109.055 7.39167 109.055 7.55833 109.055 7.725C109.055 7.875 109.063 8.03333 109.08 8.2C109.13 8.43333 109.13 8.66667 109.08 8.9C109.063 8.95 109.046 9 109.03 9.05C109.03 9.08333 109.03 9.11667 109.03 9.15C109.046 9.35 109.03 9.56667 108.98 9.8C108.98 9.85 108.98 9.9 108.98 9.95C108.98 10 108.988 10.05 109.005 10.1C109.021 10.1667 109.03 10.2417 109.03 10.325C109.03 10.4083 109.03 10.4917 109.03 10.575V11.875C109.03 11.9417 109.021 12.025 109.005 12.125C109.005 12.2083 109.005 12.2917 109.005 12.375C109.005 12.4417 109.005 12.5167 109.005 12.6C109.021 12.6833 109.03 12.7667 109.03 12.85C109.03 12.9667 109.03 13.0833 109.03 13.2C109.046 13.3167 109.046 13.4417 109.03 13.575V14.35C109.03 14.3667 109.021 14.3833 109.005 14.4C109.005 14.4167 109.013 14.4417 109.03 14.475C109.046 14.625 109.055 14.7833 109.055 14.95C109.055 15.1 109.071 15.25 109.105 15.4C109.105 15.45 109.105 15.5 109.105 15.55C109.121 15.6 109.121 15.65 109.105 15.7C109.105 15.85 109.121 16.0083 109.155 16.175C109.188 16.325 109.213 16.475 109.23 16.625C109.263 16.8083 109.296 16.9917 109.33 17.175C109.38 17.3583 109.421 17.5417 109.455 17.725L109.53 18.075C109.53 18.125 109.505 18.1667 109.455 18.2C109.455 18.2 109.446 18.2 109.43 18.2C109.43 18.2 109.421 18.2083 109.405 18.225C109.321 18.2583 109.288 18.3083 109.305 18.375V18.5C109.305 18.5 109.296 18.5083 109.28 18.525C109.28 18.5417 109.271 18.55 109.255 18.55C109.171 18.55 109.105 18.5833 109.055 18.65C109.005 18.7167 108.946 18.775 108.88 18.825C108.83 18.8583 108.763 18.8917 108.68 18.925C108.463 19.0083 108.263 19.025 108.08 18.975ZM121.271 20.225L120.846 20.15C120.629 20.1167 120.404 20.0833 120.171 20.05C119.954 20.0167 119.729 19.9917 119.496 19.975C119.262 19.975 119.029 19.9083 118.796 19.775C118.579 19.6583 118.429 19.475 118.346 19.225C118.329 19.1417 118.304 19.0583 118.271 18.975C118.254 18.8917 118.237 18.8083 118.221 18.725C118.221 18.525 118.262 18.375 118.346 18.275C118.429 18.1917 118.496 18.1083 118.546 18.025C118.612 17.9417 118.679 17.8667 118.746 17.8C118.779 17.7667 118.812 17.7417 118.846 17.725C118.879 17.7083 118.912 17.6917 118.946 17.675C119.029 17.625 119.112 17.5917 119.196 17.575C119.279 17.5417 119.362 17.5167 119.446 17.5C119.479 17.4833 119.504 17.4833 119.521 17.5C119.554 17.5 119.579 17.5 119.596 17.5C119.679 17.5167 119.771 17.5333 119.871 17.55C119.971 17.55 120.062 17.5667 120.146 17.6L121.196 17.75C121.429 17.7833 121.637 17.75 121.821 17.65C121.887 17.6167 121.946 17.5833 121.996 17.55C122.062 17.5167 122.121 17.4833 122.171 17.45C122.537 17.2333 122.854 17.0083 123.121 16.775C123.321 16.5917 123.512 16.4083 123.696 16.225C123.879 16.0417 124.046 15.8417 124.196 15.625C124.312 15.475 124.387 15.325 124.421 15.175C124.454 15.0083 124.462 14.8417 124.446 14.675L124.371 14.475C124.354 14.3917 124.321 14.325 124.271 14.275C124.221 14.225 124.171 14.1667 124.121 14.1C124.021 14.0167 123.921 13.925 123.821 13.825C123.737 13.725 123.646 13.6417 123.546 13.575C123.296 13.375 123.046 13.1833 122.796 13C122.562 12.8167 122.321 12.6333 122.071 12.45C122.054 12.4167 122.004 12.3833 121.921 12.35C121.771 12.25 121.621 12.1417 121.471 12.025C121.337 11.8917 121.204 11.7667 121.071 11.65C120.904 11.4833 120.721 11.325 120.521 11.175C120.421 11.125 120.329 11.0417 120.246 10.925C120.179 10.8417 120.079 10.7583 119.946 10.675C119.829 10.6083 119.721 10.5333 119.621 10.45C119.521 10.35 119.421 10.2583 119.321 10.175L118.996 9.875C118.929 9.79167 118.854 9.71667 118.771 9.65C118.704 9.56667 118.629 9.48333 118.546 9.4C118.512 9.31667 118.462 9.25 118.396 9.2C118.346 9.15 118.296 9.09167 118.246 9.025C118.229 8.99167 118.204 8.95833 118.171 8.925C118.137 8.875 118.112 8.825 118.096 8.775C117.996 8.575 117.887 8.375 117.771 8.175C117.671 7.975 117.579 7.76667 117.496 7.55C117.446 7.41667 117.396 7.29167 117.346 7.175C117.312 7.04167 117.279 6.91667 117.246 6.8C117.229 6.66667 117.196 6.55 117.146 6.45C117.112 6.33333 117.079 6.21667 117.046 6.1C117.012 5.91667 116.971 5.74167 116.921 5.575C116.887 5.39167 116.854 5.21667 116.821 5.05L116.771 4.85C116.754 4.66667 116.754 4.49167 116.771 4.325C116.804 4.09167 116.854 3.88333 116.921 3.7C116.987 3.5 117.096 3.34167 117.246 3.225C117.412 3.09167 117.579 2.95833 117.746 2.825C117.912 2.69167 118.087 2.58333 118.271 2.5C118.304 2.5 118.329 2.49167 118.346 2.475C118.512 2.34167 118.696 2.25 118.896 2.2C119.096 2.13333 119.296 2.075 119.496 2.025C120.296 1.79167 121.121 1.61667 121.971 1.5H122.221C122.387 1.5 122.546 1.5 122.696 1.5C122.846 1.5 123.004 1.49167 123.171 1.475C123.371 1.475 123.571 1.5 123.771 1.55C123.971 1.58333 124.162 1.64167 124.346 1.725C124.479 1.79167 124.612 1.86667 124.746 1.95C124.879 2.01667 125.004 2.09167 125.121 2.175C125.254 2.275 125.337 2.38333 125.371 2.5L125.446 2.675C125.529 2.825 125.571 2.98333 125.571 3.15C125.587 3.3 125.579 3.45833 125.546 3.625C125.546 3.675 125.537 3.73333 125.521 3.8C125.521 3.85 125.521 3.9 125.521 3.95C125.471 4.31667 125.296 4.6 124.996 4.8C124.812 4.96667 124.571 5.03333 124.271 5C124.204 4.96667 124.171 4.98333 124.171 5.05C124.171 5.11667 124.129 5.15 124.046 5.15H123.896C123.796 5.15 123.696 5.1 123.596 5C123.512 4.91667 123.471 4.85 123.471 4.8C123.471 4.73333 123.504 4.68333 123.571 4.65C123.537 4.56667 123.504 4.49167 123.471 4.425C123.437 4.35833 123.404 4.30833 123.371 4.275C123.321 4.19167 123.246 4.13333 123.146 4.1C123.062 4.08333 122.979 4.06667 122.896 4.05C122.812 4.03333 122.729 4.01667 122.646 4C122.579 4 122.504 4 122.421 4C122.337 3.98333 122.254 3.96667 122.171 3.95C122.121 3.93333 122.046 3.94167 121.946 3.975C121.896 3.99167 121.846 4.00833 121.796 4.025C121.746 4.025 121.687 4.01667 121.621 4C121.571 4 121.512 4 121.446 4C121.396 4 121.337 4.01667 121.271 4.05L120.796 4.125C120.529 4.175 120.271 4.275 120.021 4.425C119.971 4.44167 119.921 4.45833 119.871 4.475C119.821 4.49167 119.771 4.49167 119.721 4.475C119.621 4.45833 119.537 4.48333 119.471 4.55C119.454 4.58333 119.412 4.60833 119.346 4.625C119.296 4.625 119.254 4.64167 119.221 4.675C119.154 4.74167 119.121 4.80833 119.121 4.875C119.137 4.90833 119.146 4.95833 119.146 5.025L119.671 6.55C119.771 6.81667 119.896 7.06667 120.046 7.3C120.212 7.51667 120.387 7.73333 120.571 7.95C120.854 8.28333 121.146 8.56667 121.446 8.8L122.246 9.475C122.412 9.625 122.587 9.76667 122.771 9.9C122.954 10.0333 123.129 10.1667 123.296 10.3C123.546 10.4833 123.796 10.675 124.046 10.875C124.296 11.0583 124.546 11.25 124.796 11.45C124.996 11.6167 125.187 11.7833 125.371 11.95C125.571 12.1 125.754 12.2667 125.921 12.45C126.037 12.5833 126.154 12.7167 126.271 12.85C126.387 12.9833 126.487 13.1333 126.571 13.3C126.687 13.4833 126.787 13.7 126.871 13.95C126.971 14.2667 127.012 14.5667 126.996 14.85C126.979 14.8833 126.971 14.9333 126.971 15C126.971 15.2 126.946 15.3917 126.896 15.575C126.862 15.7417 126.804 15.9167 126.721 16.1C126.637 16.2667 126.546 16.4417 126.446 16.625C126.362 16.7917 126.262 16.9583 126.146 17.125C125.979 17.3417 125.804 17.55 125.621 17.75C125.454 17.9333 125.262 18.1167 125.046 18.3C124.929 18.4 124.812 18.5083 124.696 18.625C124.579 18.725 124.454 18.8167 124.321 18.9C124.237 18.9667 124.154 19.025 124.071 19.075C123.987 19.1417 123.904 19.2083 123.821 19.275C123.754 19.3083 123.687 19.35 123.621 19.4C123.554 19.45 123.487 19.5 123.421 19.55C123.354 19.6167 123.271 19.6667 123.171 19.7C123.087 19.75 123.004 19.7917 122.921 19.825L122.196 20.125C122.046 20.175 121.896 20.2083 121.746 20.225C121.596 20.2417 121.437 20.2417 121.271 20.225Z" fill="#353535"/>
</svg>
