<svg width="40" height="29" viewBox="0 0 40 29" fill="none" xmlns="http://www.w3.org/2000/svg">
<path d="M3.37656 28.15C3.32656 28.15 3.2849 28.1333 3.25156 28.1C3.21823 28.0833 3.1849 28.0667 3.15156 28.05C3.0849 27.95 3.0349 27.85 3.00156 27.75C2.9849 27.65 2.96823 27.55 2.95156 27.45C2.9349 27.3667 2.92656 27.275 2.92656 27.175C2.92656 27.125 2.92656 27.0667 2.92656 27C2.92656 26.95 2.91823 26.8917 2.90156 26.825C2.8849 26.7417 2.86823 26.6583 2.85156 26.575C2.8349 26.5083 2.81823 26.4417 2.80156 26.375C2.75156 26.1583 2.6599 25.9833 2.52656 25.85C2.44323 25.8 2.37656 25.7333 2.32656 25.65C2.2099 25.5333 2.10156 25.4083 2.00156 25.275C1.90156 25.1583 1.8099 25.0333 1.72656 24.9L1.60156 24.675C1.4849 24.5417 1.3849 24.4 1.30156 24.25C1.2349 24.1 1.16823 23.95 1.10156 23.8L0.951563 23.4L0.876563 23.25C0.859896 23.1167 0.834896 22.9917 0.801563 22.875C0.768229 22.7417 0.734896 22.6167 0.701563 22.5C0.684896 22.4167 0.668229 22.35 0.651563 22.3C0.634896 22.2333 0.618229 22.1667 0.601563 22.1C0.584896 21.9667 0.568229 21.8333 0.551563 21.7C0.534896 21.5667 0.509896 21.4417 0.476563 21.325C0.459896 21.2917 0.451563 21.2333 0.451563 21.15L0.376563 20.45C0.359896 20.2667 0.343229 20.0917 0.326563 19.925C0.309896 19.7583 0.284896 19.5917 0.251563 19.425V19.325C0.251563 19.1917 0.243229 19.0583 0.226563 18.925C0.209896 18.7917 0.193229 18.6667 0.176563 18.55C0.159896 18.4833 0.151563 18.425 0.151563 18.375C0.151563 18.3083 0.151563 18.2417 0.151563 18.175C0.184896 18.0917 0.184896 18.0167 0.151563 17.95C0.134896 17.8667 0.126563 17.7833 0.126563 17.7C0.126563 17.6 0.126563 17.5167 0.126563 17.45C0.126563 17.2833 0.118229 17.125 0.101563 16.975C0.101563 16.8083 0.101563 16.6417 0.101563 16.475C0.101563 16.2917 0.101563 16.1083 0.101563 15.925C0.118229 15.7417 0.134896 15.5667 0.151563 15.4V15.225C0.168229 14.8583 0.209896 14.5 0.276563 14.15C0.343229 13.8 0.426563 13.4583 0.526563 13.125L0.826563 12.125C0.859896 12.025 0.893229 11.9333 0.926563 11.85C0.959896 11.75 0.993229 11.6583 1.02656 11.575C1.07656 11.4417 1.12656 11.3083 1.17656 11.175C1.22656 11.025 1.26823 10.8833 1.30156 10.75C1.3349 10.5833 1.37656 10.4167 1.42656 10.25C1.47656 10.0667 1.51823 9.89167 1.55156 9.725C1.61823 9.475 1.7099 9.23333 1.82656 9C1.94323 8.76667 2.09323 8.56667 2.27656 8.4C2.3099 8.36667 2.34323 8.33333 2.37656 8.3C2.4099 8.25 2.45156 8.21667 2.50156 8.2C2.5849 8.15 2.6599 8.1 2.72656 8.05C2.8099 8 2.89323 7.95 2.97656 7.9C3.3099 7.71667 3.64323 7.56667 3.97656 7.45L4.92656 7.075C5.02656 7.04167 5.14323 7.00833 5.27656 6.975C5.3599 6.94167 5.44323 6.925 5.52656 6.925C5.6099 6.90833 5.6849 6.89167 5.75156 6.875C6.25156 6.775 6.74323 6.775 7.22656 6.875C7.4099 6.925 7.59323 7 7.77656 7.1C8.09323 7.25 8.4099 7.44167 8.72656 7.675C8.9099 7.825 9.0849 7.99167 9.25156 8.175C9.41823 8.34167 9.5599 8.54167 9.67656 8.775C9.79323 8.99167 9.90156 9.20833 10.0016 9.425C10.0516 9.60833 10.1349 9.76667 10.2516 9.9L10.5516 10.35C10.5849 10.3833 10.6099 10.425 10.6266 10.475C10.6599 10.525 10.6849 10.5667 10.7016 10.6C10.8182 10.8833 10.8516 11.1917 10.8016 11.525C10.7516 11.7917 10.6682 12.0083 10.5516 12.175C10.4849 12.275 10.4349 12.3417 10.4016 12.375C10.1682 12.625 10.0516 12.9417 10.0516 13.325V13.4C10.0349 13.5667 10.0266 13.7417 10.0266 13.925C10.0266 14.0917 10.0182 14.2667 10.0016 14.45V15.5C9.9849 15.5833 9.97656 15.675 9.97656 15.775C9.97656 15.8583 9.96823 15.9417 9.95156 16.025C9.9349 16.075 9.92656 16.1333 9.92656 16.2C9.92656 16.25 9.92656 16.3083 9.92656 16.375C9.92656 16.5417 9.8849 16.7083 9.80156 16.875C9.6849 17.0417 9.52656 17.1 9.32656 17.05C9.17656 17 9.07656 16.9 9.02656 16.75C9.0099 16.7 8.9849 16.65 8.95156 16.6C8.9349 16.55 8.91823 16.4917 8.90156 16.425C8.8849 16.3417 8.86823 16.25 8.85156 16.15C8.85156 16.05 8.85156 15.9583 8.85156 15.875C8.85156 15.7583 8.84323 15.65 8.82656 15.55C8.82656 15.4333 8.82656 15.3167 8.82656 15.2V15.125C8.8099 15.0083 8.79323 14.9 8.77656 14.8C8.77656 14.6833 8.77656 14.5667 8.77656 14.45C8.7599 14.2667 8.74323 14.0833 8.72656 13.9C8.7099 13.7167 8.6849 13.5417 8.65156 13.375L8.42656 12.775C8.3599 12.6417 8.29323 12.5083 8.22656 12.375C8.17656 12.2417 8.11823 12.1083 8.05156 11.975C8.01823 11.8583 7.96823 11.75 7.90156 11.65C7.8349 11.55 7.76823 11.4417 7.70156 11.325C7.56823 11.075 7.41823 10.8583 7.25156 10.675C7.21823 10.6417 7.1849 10.6083 7.15156 10.575C7.11823 10.5417 7.0849 10.5083 7.05156 10.475C6.9849 10.4417 6.91823 10.4083 6.85156 10.375C6.80156 10.325 6.75156 10.2667 6.70156 10.2C6.6849 10.1833 6.6599 10.175 6.62656 10.175C6.6099 10.1583 6.5849 10.1417 6.55156 10.125C6.20156 10.025 5.89323 10.0167 5.62656 10.1L5.25156 10.175C5.1849 10.175 5.11823 10.1833 5.05156 10.2C5.00156 10.2 4.94323 10.2083 4.87656 10.225L4.70156 10.3C4.65156 10.3167 4.59323 10.375 4.52656 10.475C4.52656 10.5417 4.5099 10.6083 4.47656 10.675C4.4599 10.725 4.44323 10.775 4.42656 10.825C4.42656 10.8583 4.42656 10.8917 4.42656 10.925C4.37656 11.1583 4.3099 11.3833 4.22656 11.6C4.14323 11.8167 4.05156 12.0417 3.95156 12.275C3.91823 12.3583 3.86823 12.45 3.80156 12.55C3.76823 12.6 3.7349 12.65 3.70156 12.7C3.66823 12.7333 3.64323 12.7917 3.62656 12.875L3.47656 13.1C3.39323 13.1833 3.3349 13.3 3.30156 13.45C3.25156 13.5833 3.2099 13.725 3.17656 13.875C3.1599 14.0083 3.1349 14.1417 3.10156 14.275C3.05156 14.475 3.01823 14.675 3.00156 14.875C2.9849 15.075 2.96823 15.275 2.95156 15.475V17.125C2.95156 17.1917 2.94323 17.25 2.92656 17.3C2.92656 17.35 2.92656 17.4083 2.92656 17.475C2.92656 17.6083 2.91823 17.75 2.90156 17.9C2.90156 18.05 2.9099 18.1917 2.92656 18.325C2.94323 18.375 2.95156 18.45 2.95156 18.55C2.95156 18.7667 2.97656 18.9917 3.02656 19.225C3.02656 19.2917 3.0349 19.3333 3.05156 19.35C3.1349 19.4333 3.15156 19.5167 3.10156 19.6C3.10156 19.65 3.1099 19.6833 3.12656 19.7C3.19323 19.9167 3.25156 20.1333 3.30156 20.35C3.35156 20.55 3.4099 20.7583 3.47656 20.975C3.54323 21.1583 3.6099 21.3417 3.67656 21.525C3.7599 21.7083 3.8599 21.8917 3.97656 22.075C4.1099 22.275 4.30156 22.4333 4.55156 22.55C4.65156 22.5833 4.75156 22.6167 4.85156 22.65C4.95156 22.6833 5.05156 22.7083 5.15156 22.725C5.26823 22.7417 5.37656 22.7583 5.47656 22.775C5.57656 22.775 5.67656 22.775 5.77656 22.775C5.9099 22.775 6.04323 22.7667 6.17656 22.75C6.3099 22.7333 6.4349 22.7167 6.55156 22.7C6.7349 22.6667 6.90156 22.6333 7.05156 22.6C7.21823 22.5667 7.3849 22.5333 7.55156 22.5C7.8349 22.45 8.09323 22.3667 8.32656 22.25C8.34323 22.25 8.36823 22.2333 8.40156 22.2C8.5349 22.1167 8.6599 22.0333 8.77656 21.95C8.9099 21.85 9.0349 21.7417 9.15156 21.625C9.25156 21.525 9.35156 21.425 9.45156 21.325C9.56823 21.225 9.66823 21.1167 9.75156 21L9.97656 20.675C10.0766 20.4917 10.1849 20.3583 10.3016 20.275C10.3682 20.2083 10.4182 20.15 10.4516 20.1C10.4849 20.05 10.5266 20.025 10.5766 20.025C10.6766 20.025 10.7766 20.0167 10.8766 20C10.9766 19.9833 11.0849 19.9833 11.2016 20C11.3016 20.0167 11.3932 20.05 11.4766 20.1C11.5766 20.1333 11.6682 20.1667 11.7516 20.2C11.7849 20.2167 11.8266 20.25 11.8766 20.3C11.9599 20.4 12.0266 20.5 12.0766 20.6C12.1432 20.6833 12.1849 20.7833 12.2016 20.9C12.2349 21.0333 12.2516 21.125 12.2516 21.175C12.2682 21.275 12.2516 21.3917 12.2016 21.525C12.1349 21.675 12.0349 21.8333 11.9016 22C11.8182 22.0667 11.7349 22.15 11.6516 22.25C11.5682 22.35 11.4849 22.4417 11.4016 22.525C11.2849 22.6417 11.1766 22.7667 11.0766 22.9C10.9766 23.0167 10.8599 23.1333 10.7266 23.25C10.6766 23.2833 10.6266 23.325 10.5766 23.375C10.5432 23.4083 10.5099 23.4417 10.4766 23.475C10.3266 23.625 10.1599 23.7583 9.97656 23.875C9.8099 23.975 9.6349 24.0667 9.45156 24.15L8.77656 24.45C8.6099 24.5167 8.4349 24.575 8.25156 24.625C8.0849 24.675 7.9099 24.725 7.72656 24.775C7.5599 24.825 7.3849 24.875 7.20156 24.925C7.0349 24.9583 6.8599 24.9917 6.67656 25.025L5.70156 25.175C5.5849 25.1917 5.4599 25.2083 5.32656 25.225C5.2099 25.2583 5.0849 25.2667 4.95156 25.25C4.7849 25.2333 4.6099 25.2833 4.42656 25.4C4.2599 25.4833 4.16823 25.6 4.15156 25.75C4.11823 25.85 4.10156 25.925 4.10156 25.975L4.02656 26.625C4.02656 26.7417 4.01823 26.8667 4.00156 27C4.00156 27.1333 3.99323 27.2667 3.97656 27.4C3.9599 27.4667 3.94323 27.5333 3.92656 27.6C3.9099 27.6833 3.8849 27.7667 3.85156 27.85C3.76823 28.05 3.6099 28.15 3.37656 28.15ZM17.5035 25.175C17.4035 25.175 17.3368 25.1667 17.3035 25.15C17.2202 25.1167 17.1368 25.1 17.0535 25.1C16.9868 25.1167 16.9118 25.125 16.8285 25.125C16.8118 25.125 16.7952 25.125 16.7785 25.125C16.7618 25.1417 16.7452 25.15 16.7285 25.15C16.6118 25.1667 16.4952 25.175 16.3785 25.175C16.2785 25.175 16.1785 25.1583 16.0785 25.125C16.0618 25.1083 16.0452 25.1 16.0285 25.1C15.9118 25.1167 15.8118 25.0833 15.7285 25C15.6452 24.9167 15.5618 24.8417 15.4785 24.775C15.3952 24.6917 15.3535 24.6 15.3535 24.5L15.2785 24.3C15.2285 24.1833 15.2118 24.075 15.2285 23.975C15.2452 23.9417 15.2452 23.9083 15.2285 23.875C15.2285 23.8417 15.2285 23.8083 15.2285 23.775C15.2118 23.7417 15.2035 23.7083 15.2035 23.675C15.2035 23.625 15.1952 23.5833 15.1785 23.55C15.1452 23.4 15.1202 23.25 15.1035 23.1C15.1035 22.9333 15.1118 22.775 15.1285 22.625C15.1452 22.525 15.2035 22.3583 15.3035 22.125C15.4035 21.875 15.4618 21.725 15.4785 21.675C15.5285 21.5917 15.5535 21.525 15.5535 21.475C15.5368 21.2917 15.5285 21.1083 15.5285 20.925C15.5452 20.725 15.5535 20.5333 15.5535 20.35C15.5535 20.2333 15.5785 20.1417 15.6285 20.075C15.6952 19.9583 15.7035 19.8333 15.6535 19.7L15.5785 19.425C15.4785 19.2417 15.4868 19.0833 15.6035 18.95C15.6035 18.9333 15.6035 18.925 15.6035 18.925C15.6202 18.9083 15.6285 18.8917 15.6285 18.875C15.6618 18.8417 15.6702 18.8 15.6535 18.75C15.6368 18.6833 15.6285 18.6333 15.6285 18.6C15.6285 18.5333 15.6368 18.4667 15.6535 18.4C15.6868 18.3167 15.6952 18.2417 15.6785 18.175C15.6785 18.175 15.6618 18.1583 15.6285 18.125C15.6118 18.0917 15.6035 18.025 15.6035 17.925C15.6202 17.825 15.6285 17.7667 15.6285 17.75V17.05C15.6452 16.9667 15.6535 16.8917 15.6535 16.825C15.6535 16.7417 15.6618 16.6583 15.6785 16.575C15.6952 16.475 15.6952 16.375 15.6785 16.275C15.6785 16.1583 15.6785 16.0417 15.6785 15.925C15.6618 15.8417 15.6452 15.75 15.6285 15.65C15.6285 15.55 15.6285 15.45 15.6285 15.35C15.6118 15.3167 15.6035 15.275 15.6035 15.225C15.6035 15.175 15.6035 15.1333 15.6035 15.1C15.5868 15.0167 15.5702 14.9333 15.5535 14.85C15.5535 14.7667 15.5535 14.6833 15.5535 14.6C15.5535 14.5667 15.5202 14.4583 15.4535 14.275C15.3868 14.075 15.3618 13.9083 15.3785 13.775C15.3952 13.7417 15.4035 13.7 15.4035 13.65C15.4035 13.6 15.3868 13.5583 15.3535 13.525C15.3202 13.5083 15.3035 13.475 15.3035 13.425V13.35C15.3535 13.15 15.3285 12.95 15.2285 12.75C15.1618 12.65 15.1368 12.55 15.1535 12.45C15.1535 12.3167 15.0952 12.2167 14.9785 12.15C14.8952 12.0667 14.8202 11.9667 14.7535 11.85C14.6868 11.7333 14.6452 11.6167 14.6285 11.5C14.6118 11.4167 14.6035 11.3333 14.6035 11.25C14.6035 11.1667 14.6035 11.0917 14.6035 11.025C14.6035 10.9583 14.6118 10.9167 14.6285 10.9C14.6952 10.8333 14.7285 10.7583 14.7285 10.675C14.7285 10.575 14.7368 10.5 14.7535 10.45C14.7702 10.4333 14.7868 10.425 14.8035 10.425C14.8202 10.425 14.8368 10.4167 14.8535 10.4C14.9202 10.3833 14.9535 10.325 14.9535 10.225C14.9202 10.1583 14.9035 10.1 14.9035 10.05C14.8868 9.98333 14.9118 9.925 14.9785 9.875C15.0118 9.80833 15.0535 9.79167 15.1035 9.825C15.2202 9.875 15.3535 9.85833 15.5035 9.775C15.5702 9.74167 15.6118 9.725 15.6285 9.725C15.6785 9.725 15.7035 9.725 15.7035 9.725C15.7202 9.70833 15.7702 9.7 15.8535 9.7C15.9535 9.71667 16.0452 9.68333 16.1285 9.6C16.2452 9.48333 16.3868 9.425 16.5535 9.425H18.1035C18.4868 9.44167 18.8702 9.44167 19.2535 9.425C19.6368 9.40833 20.0118 9.4 20.3785 9.4C20.4618 9.4 20.5285 9.4 20.5785 9.4C20.6452 9.38333 20.7118 9.36667 20.7785 9.35C20.8785 9.3 20.9952 9.275 21.1285 9.275H21.7035C21.8368 9.275 21.9535 9.275 22.0535 9.275C22.1702 9.25833 22.2868 9.24167 22.4035 9.225C22.4702 9.20833 22.5285 9.2 22.5785 9.2C22.6452 9.2 22.7118 9.2 22.7785 9.2C22.8452 9.2 22.9118 9.2 22.9785 9.2C23.0452 9.2 23.1118 9.19167 23.1785 9.175C23.3118 9.15833 23.4535 9.15 23.6035 9.15C23.7535 9.13333 23.8952 9.125 24.0285 9.125C24.0952 9.125 24.1535 9.125 24.2035 9.125C24.2702 9.10833 24.3368 9.09167 24.4035 9.075C24.5368 9.04167 24.6618 9.025 24.7785 9.025C24.9118 9.00833 25.0368 8.99167 25.1535 8.975C25.2868 8.95833 25.4118 8.94167 25.5285 8.925C25.6618 8.90833 25.7868 8.89167 25.9035 8.875C26.0535 8.875 26.1618 8.89167 26.2285 8.925C26.3285 8.99167 26.4202 9.05 26.5035 9.1C26.6035 9.15 26.6952 9.21667 26.7785 9.3C26.8452 9.36667 26.8868 9.425 26.9035 9.475C26.9202 9.54167 26.9369 9.60833 26.9535 9.675C26.9702 9.74167 26.9868 9.81667 27.0035 9.9V10.075C26.9868 10.1583 26.9702 10.25 26.9535 10.35C26.9535 10.4333 26.9452 10.525 26.9285 10.625C26.8952 10.6917 26.8535 10.75 26.8035 10.8L26.3535 11.25C26.1868 11.3 26.0202 11.3333 25.8535 11.35C25.7035 11.3667 25.5452 11.3667 25.3785 11.35H25.2035C25.1202 11.3667 25.0368 11.375 24.9535 11.375C24.8702 11.375 24.7868 11.3667 24.7035 11.35C24.6035 11.3333 24.5035 11.3333 24.4035 11.35C24.3035 11.35 24.2035 11.35 24.1035 11.35C24.0368 11.35 23.9702 11.3583 23.9035 11.375C23.8535 11.375 23.7952 11.3667 23.7285 11.35C23.6452 11.3333 23.5618 11.3333 23.4785 11.35C23.4118 11.35 23.3368 11.3583 23.2535 11.375C23.1868 11.375 23.1118 11.3833 23.0285 11.4C22.9618 11.4 22.8868 11.4 22.8035 11.4C22.5868 11.4333 22.3535 11.45 22.1035 11.45C21.8702 11.45 21.6368 11.4667 21.4035 11.5C21.2535 11.4833 21.1118 11.4917 20.9785 11.525C20.8452 11.5417 20.7035 11.5583 20.5535 11.575C20.4202 11.5917 20.2785 11.6 20.1285 11.6C19.9785 11.6 19.8368 11.6167 19.7035 11.65C19.5368 11.65 19.3702 11.675 19.2035 11.725C19.0535 11.7583 18.8952 11.7833 18.7285 11.8L18.5535 11.825C18.4368 11.825 18.3285 11.8417 18.2285 11.875C18.1285 11.8917 18.0202 11.9167 17.9035 11.95C17.8368 11.9667 17.7702 11.9833 17.7035 12C17.6368 12 17.5618 12.0083 17.4785 12.025C17.4285 12.025 17.3702 12.0417 17.3035 12.075C17.2535 12.0917 17.2285 12.1417 17.2285 12.225L17.3035 12.45C17.3202 12.4833 17.3118 12.5667 17.2785 12.7C17.2618 12.8333 17.2452 12.9333 17.2285 13C17.2285 13.05 17.2368 13.1 17.2535 13.15C17.2702 13.2 17.2868 13.25 17.3035 13.3C17.3535 13.4333 17.3785 13.5833 17.3785 13.75C17.3785 13.9 17.3952 14.0417 17.4285 14.175C17.4452 14.2417 17.4535 14.3167 17.4535 14.4C17.4535 14.4667 17.4618 14.5417 17.4785 14.625C17.4785 14.6583 17.4785 14.7 17.4785 14.75C17.4952 14.7833 17.5035 14.825 17.5035 14.875C17.5035 14.925 17.4952 14.9583 17.4785 14.975C17.4285 15.0417 17.4035 15.1167 17.4035 15.2C17.4035 15.2833 17.4035 15.3667 17.4035 15.45C17.4868 15.6167 17.5285 15.7833 17.5285 15.95C17.5285 16.1167 17.5285 16.2833 17.5285 16.45C17.5285 16.5 17.5702 16.5167 17.6535 16.5H17.6785C17.7118 16.4333 17.7452 16.3833 17.7785 16.35C17.8285 16.35 17.8868 16.3333 17.9535 16.3C18.0035 16.2667 18.0702 16.25 18.1535 16.25C18.2868 16.2667 18.4118 16.2667 18.5285 16.25C18.6452 16.2167 18.7618 16.1833 18.8785 16.15C19.6618 15.95 20.3952 15.6917 21.0785 15.375C21.2618 15.2917 21.4535 15.225 21.6535 15.175C21.8535 15.1083 22.0535 15.0667 22.2535 15.05H22.3285C22.4785 15.0333 22.6285 15.0167 22.7785 15C22.9285 14.9833 23.0785 14.975 23.2285 14.975C23.4285 14.9583 23.6202 14.9333 23.8035 14.9C24.0035 14.8667 24.2035 14.8417 24.4035 14.825C24.5202 14.7917 24.6285 14.7667 24.7285 14.75C24.8285 14.7167 24.9368 14.675 25.0535 14.625C25.2702 14.5417 25.4702 14.5 25.6535 14.5C25.7868 14.5167 25.9118 14.55 26.0285 14.6C26.1452 14.6333 26.2618 14.6833 26.3785 14.75C26.6285 14.9167 26.7535 15.1667 26.7535 15.5C26.7535 15.6333 26.7368 15.7667 26.7035 15.9C26.6868 16.0333 26.6785 16.1667 26.6785 16.3C26.6785 16.3333 26.6618 16.3667 26.6285 16.4L26.5535 16.525C26.5368 16.5917 26.5202 16.6583 26.5035 16.725C26.4868 16.7917 26.4452 16.8417 26.3785 16.875C26.2785 16.9583 26.1702 17.05 26.0535 17.15C25.9535 17.2333 25.8368 17.2917 25.7035 17.325C25.6368 17.3417 25.5702 17.3583 25.5035 17.375C25.4535 17.3917 25.3952 17.4 25.3285 17.4C25.0618 17.4 24.7868 17.4167 24.5035 17.45C24.2368 17.4833 23.9618 17.5167 23.6785 17.55C23.4618 17.5667 23.2452 17.5917 23.0285 17.625C22.8285 17.6583 22.6202 17.675 22.4035 17.675C22.2035 17.675 21.9785 17.7167 21.7285 17.8C21.5618 17.8333 21.3868 17.8667 21.2035 17.9C21.0202 17.9333 20.8368 17.9583 20.6535 17.975C20.5202 17.9917 20.3785 18.0167 20.2285 18.05C20.0952 18.0667 19.9618 18.0833 19.8285 18.1L19.4035 18.175C19.3702 18.1917 19.3202 18.2 19.2535 18.2C19.1368 18.2333 19.0202 18.2583 18.9035 18.275C18.7868 18.2917 18.6702 18.3167 18.5535 18.35C18.4368 18.3667 18.3202 18.3917 18.2035 18.425C18.1035 18.4583 17.9952 18.4917 17.8785 18.525C17.7952 18.5417 17.7285 18.575 17.6785 18.625C17.6285 18.6583 17.5868 18.7083 17.5535 18.775C17.5368 18.825 17.5368 18.875 17.5535 18.925C17.5702 18.9917 17.5618 19.0583 17.5285 19.125C17.5452 19.2917 17.5535 19.4583 17.5535 19.625C17.5702 19.7917 17.5702 19.9583 17.5535 20.125C17.5868 20.2583 17.5952 20.3917 17.5785 20.525C17.5785 20.6583 17.5702 20.7917 17.5535 20.925C17.5202 21.125 17.5285 21.2917 17.5785 21.425C17.6285 21.6417 17.6118 21.8667 17.5285 22.1C17.4952 22.2 17.4952 22.2667 17.5285 22.3C17.5618 22.35 17.5618 22.4083 17.5285 22.475V22.625C17.5118 22.7583 17.5702 22.825 17.7035 22.825H17.7535C17.8702 22.825 17.9868 22.8667 18.1035 22.95C18.1868 23.0333 18.2868 23.0583 18.4035 23.025L19.1035 22.95C19.2035 22.9333 19.3035 22.925 19.4035 22.925C19.5035 22.9083 19.6035 22.9 19.7035 22.9C19.7368 22.8833 19.7868 22.8917 19.8535 22.925C19.9368 22.975 20.0118 22.9833 20.0785 22.95C20.1118 22.9167 20.1535 22.8917 20.2035 22.875C20.2702 22.8583 20.3202 22.8333 20.3535 22.8C20.4535 22.7 20.5785 22.6667 20.7285 22.7C20.8618 22.7333 20.9702 22.725 21.0535 22.675C21.2035 22.625 21.3452 22.6083 21.4785 22.625C21.5618 22.6417 21.6452 22.6333 21.7285 22.6C21.8118 22.5667 21.8952 22.55 21.9785 22.55C22.0118 22.55 22.0368 22.5583 22.0535 22.575C22.0702 22.575 22.0868 22.5667 22.1035 22.55C22.1368 22.55 22.1702 22.5417 22.2035 22.525C22.2368 22.5083 22.2618 22.5 22.2785 22.5C22.3952 22.45 22.5035 22.4333 22.6035 22.45C22.6868 22.45 22.7285 22.45 22.7285 22.45C22.7952 22.4333 22.8535 22.4333 22.9035 22.45C22.9702 22.4667 23.0285 22.4917 23.0785 22.525C23.1618 22.5417 23.2285 22.5667 23.2785 22.6C23.3452 22.6333 23.4118 22.6583 23.4785 22.675C23.5118 22.675 23.5368 22.6833 23.5535 22.7C23.6368 22.7667 23.7368 22.825 23.8535 22.875C23.9868 22.925 24.0618 22.9833 24.0785 23.05C24.1118 23.15 24.1285 23.25 24.1285 23.35C24.1285 23.4333 24.1368 23.525 24.1535 23.625C24.1535 23.675 24.1452 23.725 24.1285 23.775C24.1285 23.825 24.1202 23.875 24.1035 23.925C24.0702 23.9917 24.0285 24.0667 23.9785 24.15C23.9452 24.2333 23.8952 24.3083 23.8285 24.375C23.7952 24.4083 23.7618 24.4417 23.7285 24.475C23.7118 24.5083 23.6868 24.5417 23.6535 24.575C23.5868 24.6417 23.5118 24.7 23.4285 24.75C23.3452 24.8 23.2535 24.825 23.1535 24.825C23.0868 24.825 23.0368 24.8333 23.0035 24.85C22.9368 24.8833 22.8702 24.9 22.8035 24.9C22.7368 24.9 22.6618 24.9 22.5785 24.9C22.4618 24.9167 22.3452 24.9333 22.2285 24.95C22.1285 24.95 22.0202 24.9417 21.9035 24.925C21.8368 24.9083 21.7785 24.9083 21.7285 24.925C21.5618 24.975 21.3952 24.9833 21.2285 24.95C21.0618 24.95 20.8952 24.9583 20.7285 24.975C20.5785 24.975 20.4285 24.975 20.2785 24.975H19.9535C19.9035 24.975 19.8618 24.9833 19.8285 25C19.7618 25.0333 19.6785 25.05 19.5785 25.05C19.4952 25.05 19.4118 25.0417 19.3285 25.025H19.0785C19.0618 25.025 19.0368 25.025 19.0035 25.025C18.9702 25.0417 18.9368 25.0417 18.9035 25.025C18.8535 25.0083 18.8035 25 18.7535 25C18.7202 25.0167 18.6785 25.0333 18.6285 25.05C18.5952 25.05 18.5618 25.05 18.5285 25.05C18.5118 25.0667 18.4868 25.075 18.4535 25.075C18.2868 25.0583 18.1285 25.0583 17.9785 25.075C17.8285 25.1083 17.6702 25.1417 17.5035 25.175ZM18.8035 8.25C18.6868 8.23333 18.6035 8.15833 18.5535 8.025C18.4702 7.89167 18.4285 7.75 18.4285 7.6C18.4118 7.5 18.3952 7.4 18.3785 7.3C18.3618 7.2 18.3368 7.1 18.3035 7C18.3035 6.93333 18.2702 6.85 18.2035 6.75L18.0785 6.6C17.8452 6.35 17.7285 6.01667 17.7285 5.6C17.7452 5.36667 17.7952 5.15 17.8785 4.95C17.9618 4.73333 18.0868 4.54167 18.2535 4.375C18.3368 4.29167 18.4202 4.225 18.5035 4.175C18.5868 4.125 18.6702 4.075 18.7535 4.025C18.8368 3.99167 18.9035 3.95833 18.9535 3.925C19.0202 3.89167 19.0868 3.86667 19.1535 3.85C19.1868 3.81667 19.2202 3.79167 19.2535 3.775C19.2868 3.75833 19.3118 3.74167 19.3285 3.725C19.4118 3.675 19.4868 3.625 19.5535 3.575C19.6202 3.50833 19.6868 3.44167 19.7535 3.375C19.9868 3.20833 20.2118 3.04167 20.4285 2.875C20.6618 2.69167 20.8868 2.51667 21.1035 2.35C21.3368 2.16667 21.5368 1.96667 21.7035 1.75C21.7535 1.68333 21.8035 1.625 21.8535 1.575C21.9202 1.50833 21.9868 1.44167 22.0535 1.375C22.1368 1.29167 22.2452 1.225 22.3785 1.175L22.9035 1.025C23.0035 0.991666 23.0785 0.983333 23.1285 0.999999C23.1452 1.01667 23.1785 1.025 23.2285 1.025C23.4952 1.025 23.7535 1.13333 24.0035 1.35C24.1368 1.45 24.2202 1.51667 24.2535 1.55C24.2868 1.58333 24.3202 1.68333 24.3535 1.85C24.3868 1.98333 24.4035 2.09167 24.4035 2.175C24.4202 2.225 24.4118 2.28333 24.3785 2.35C24.3785 2.38333 24.3702 2.41667 24.3535 2.45C24.3368 2.48333 24.3202 2.51667 24.3035 2.55L24.0785 3.1C24.0618 3.15 24.0368 3.2 24.0035 3.25C23.9868 3.28333 23.9618 3.31667 23.9285 3.35C23.8618 3.46667 23.7785 3.575 23.6785 3.675C23.5952 3.775 23.5035 3.875 23.4035 3.975C23.3368 4.04167 23.2535 4.11667 23.1535 4.2C23.0702 4.28333 22.9868 4.36667 22.9035 4.45C22.6702 4.66667 22.4285 4.85833 22.1785 5.025C22.0285 5.125 21.8702 5.23333 21.7035 5.35C21.5535 5.45 21.4035 5.55833 21.2535 5.675C21.2202 5.69167 21.1868 5.71667 21.1535 5.75C21.1202 5.76667 21.0868 5.78333 21.0535 5.8C20.9702 5.86667 20.8868 5.925 20.8035 5.975C20.7368 6.025 20.6618 6.08333 20.5785 6.15C20.4618 6.26667 20.3368 6.375 20.2035 6.475C20.0702 6.575 19.9368 6.68333 19.8035 6.8C19.6035 6.95 19.4785 7.15 19.4285 7.4L19.3535 7.85C19.3368 8 19.2785 8.10833 19.1785 8.175C19.0618 8.24167 18.9368 8.26667 18.8035 8.25ZM33.7025 25.25C33.6859 25.2333 33.6609 25.225 33.6275 25.225C33.4609 25.125 33.2942 25.0333 33.1275 24.95C32.9775 24.85 32.8359 24.7417 32.7025 24.625C32.6359 24.5917 32.5942 24.5583 32.5775 24.525C32.4275 24.4417 32.2942 24.3417 32.1775 24.225C32.0609 24.0917 31.9525 23.95 31.8525 23.8C31.8192 23.7667 31.7859 23.725 31.7525 23.675C31.7192 23.625 31.6775 23.575 31.6275 23.525C31.4609 23.3583 31.3275 23.1583 31.2275 22.925C31.2109 22.875 31.1859 22.825 31.1525 22.775C31.1192 22.725 31.0859 22.675 31.0525 22.625C30.9525 22.4917 30.8775 22.3667 30.8275 22.25C30.7942 22.1167 30.7442 21.9917 30.6775 21.875C30.6109 21.7417 30.5442 21.6167 30.4775 21.5C30.4609 21.4333 30.4359 21.3667 30.4025 21.3C30.3692 21.2333 30.3442 21.1667 30.3275 21.1C30.3275 21.0167 30.3025 20.925 30.2525 20.825C30.1859 20.6417 30.1192 20.4583 30.0525 20.275C30.0025 20.075 29.9525 19.875 29.9025 19.675C29.8692 19.6083 29.8525 19.5583 29.8525 19.525C29.7525 19.3083 29.6775 19.0833 29.6275 18.85C29.5775 18.6167 29.5275 18.3917 29.4775 18.175L29.3275 17.05C29.3109 17.0167 29.3025 16.975 29.3025 16.925C29.3025 16.875 29.3025 16.8333 29.3025 16.8C29.3025 16.7 29.3025 16.6083 29.3025 16.525C29.3025 16.425 29.2859 16.325 29.2525 16.225C29.2192 16.0083 29.2275 15.8083 29.2775 15.625C29.2775 15.5583 29.2775 15.5 29.2775 15.45C29.2942 15.3833 29.3025 15.3167 29.3025 15.25C29.3025 15.1667 29.3025 15.0833 29.3025 15C29.3192 14.9 29.3359 14.8167 29.3525 14.75C29.3692 14.7 29.3775 14.6333 29.3775 14.55C29.4109 14.4 29.4275 14.2583 29.4275 14.125C29.4442 13.975 29.4609 13.8333 29.4775 13.7C29.5275 13.4667 29.5525 13.2417 29.5525 13.025C29.5525 12.9583 29.5525 12.9 29.5525 12.85C29.5692 12.7833 29.5859 12.7167 29.6025 12.65C29.6025 12.5 29.5942 12.3917 29.5775 12.325C29.5275 12.2583 29.5192 12.1667 29.5525 12.05C29.5859 11.9833 29.6025 11.9333 29.6025 11.9C29.6192 11.8667 29.6275 11.8333 29.6275 11.8C29.6275 11.75 29.6525 11.7167 29.7025 11.7H29.8775C29.9442 11.7 29.9859 11.675 30.0025 11.625C30.0192 11.5583 30.0775 11.5083 30.1775 11.475C30.2609 11.4417 30.3359 11.4167 30.4025 11.4C30.4692 11.3667 30.5359 11.325 30.6025 11.275C30.6525 11.2417 30.7109 11.225 30.7775 11.225C30.8442 11.225 30.9109 11.2333 30.9775 11.25L31.4275 11.4C31.4442 11.4167 31.4525 11.425 31.4525 11.425C31.4692 11.425 31.4859 11.4333 31.5025 11.45C31.6359 11.5833 31.7442 11.7333 31.8275 11.9C31.9275 12.0667 31.9859 12.25 32.0025 12.45C32.0025 12.5167 32.0025 12.5833 32.0025 12.65C32.0025 12.7 31.9859 12.7583 31.9525 12.825C31.9359 12.925 31.9192 13.025 31.9025 13.125C31.8859 13.225 31.8692 13.3333 31.8525 13.45C31.8192 13.6167 31.7942 13.7833 31.7775 13.95C31.7775 14.1 31.7775 14.2583 31.7775 14.425C31.7609 14.4917 31.7525 14.5583 31.7525 14.625C31.7525 14.675 31.7442 14.7333 31.7275 14.8C31.7109 15 31.7025 15.2 31.7025 15.4C31.7025 15.6 31.7192 15.7917 31.7525 15.975C31.7525 15.9917 31.7525 16.0167 31.7525 16.05C31.7692 16.0833 31.7692 16.1167 31.7525 16.15C31.7525 16.3167 31.7692 16.4917 31.8025 16.675C31.8359 16.8583 31.8609 17.0417 31.8775 17.225C31.8942 17.3917 31.9109 17.55 31.9275 17.7C31.9442 17.85 31.9692 18 32.0025 18.15C32.0359 18.2167 32.0525 18.2833 32.0525 18.35C32.0692 18.4167 32.0859 18.4833 32.1025 18.55C32.1692 18.8667 32.2442 19.175 32.3275 19.475C32.4109 19.775 32.5192 20.075 32.6525 20.375C32.7359 20.5583 32.8192 20.7167 32.9025 20.85C33.0359 21.0833 33.1525 21.3167 33.2525 21.55C33.3192 21.6667 33.3859 21.7833 33.4525 21.9C33.5192 22 33.5859 22.1083 33.6525 22.225C33.7192 22.3083 33.7859 22.3833 33.8525 22.45C33.9192 22.5167 33.9859 22.5917 34.0525 22.675C34.1359 22.7583 34.2442 22.7833 34.3775 22.75C34.4609 22.7167 34.5192 22.6833 34.5525 22.65C34.6359 22.6 34.7109 22.55 34.7775 22.5C34.8609 22.45 34.9359 22.3917 35.0025 22.325C35.1859 22.1417 35.3525 21.9583 35.5025 21.775C35.6692 21.5917 35.8109 21.3917 35.9275 21.175C36.0275 20.9917 36.1275 20.8 36.2275 20.6C36.3275 20.4 36.4192 20.2 36.5025 20C36.6025 19.7667 36.6942 19.5333 36.7775 19.3C36.8775 19.0667 36.9692 18.825 37.0525 18.575C37.1192 18.4083 37.1692 18.2417 37.2025 18.075C37.2525 17.8917 37.2859 17.7167 37.3025 17.55C37.3359 17.3667 37.3609 17.1833 37.3775 17C37.4109 16.8 37.4192 16.6083 37.4025 16.425C37.4025 16.375 37.4025 16.325 37.4025 16.275C37.4192 16.225 37.4275 16.175 37.4275 16.125C37.4609 16.0083 37.4692 15.9 37.4525 15.8C37.4525 15.7 37.4442 15.6 37.4275 15.5C37.4109 15.2167 37.3859 14.95 37.3525 14.7C37.3359 14.4333 37.3192 14.1667 37.3025 13.9C37.3025 13.7667 37.2942 13.675 37.2775 13.625C37.2609 13.475 37.2442 13.325 37.2275 13.175C37.2275 13.025 37.2109 12.875 37.1775 12.725V12.525C37.1775 12.3583 37.1692 12.2 37.1525 12.05C37.1525 11.8833 37.1525 11.7167 37.1525 11.55C37.1525 11.4167 37.1442 11.3 37.1275 11.2C37.1275 11.0833 37.1275 10.9667 37.1275 10.85C37.1275 10.7 37.1525 10.575 37.2025 10.475C37.2525 10.3917 37.2692 10.325 37.2525 10.275C37.2025 10.175 37.2275 10.1 37.3275 10.05C37.4109 9.96667 37.4942 9.9 37.5775 9.85C37.6775 9.8 37.7859 9.76667 37.9025 9.75C37.9359 9.73333 37.9609 9.725 37.9775 9.725C38.0109 9.725 38.0359 9.71667 38.0525 9.7C38.1525 9.61667 38.2859 9.59167 38.4525 9.625C38.4859 9.64167 38.5359 9.65 38.6025 9.65C38.7525 9.68333 38.8609 9.74167 38.9275 9.825C38.9775 9.875 39.0525 9.93333 39.1525 10C39.2859 10.0667 39.3775 10.15 39.4275 10.25C39.4775 10.35 39.5109 10.4583 39.5275 10.575C39.5609 10.7417 39.5859 10.9 39.6025 11.05C39.6359 11.2 39.6442 11.3583 39.6275 11.525V11.75C39.6275 11.9167 39.6275 12.0833 39.6275 12.25C39.6442 12.4 39.6609 12.5583 39.6775 12.725C39.6942 12.775 39.7025 12.8333 39.7025 12.9C39.7025 12.95 39.7025 13 39.7025 13.05C39.7025 13.15 39.7025 13.25 39.7025 13.35C39.7192 13.4333 39.7359 13.525 39.7525 13.625C39.7692 13.6583 39.7775 13.7083 39.7775 13.775C39.7609 13.9417 39.7609 14.1083 39.7775 14.275C39.8109 14.425 39.8359 14.5833 39.8525 14.75C39.8692 14.9167 39.8775 15.0917 39.8775 15.275C39.8942 15.4583 39.9025 15.6417 39.9025 15.825C39.9192 15.8417 39.9192 15.8667 39.9025 15.9C39.9025 15.9333 39.9025 15.9667 39.9025 16C39.8525 16.15 39.8442 16.325 39.8775 16.525C39.9109 16.7417 39.9025 16.95 39.8525 17.15C39.8359 17.3 39.8192 17.45 39.8025 17.6C39.7859 17.75 39.7609 17.9083 39.7275 18.075C39.6942 18.3417 39.6359 18.6083 39.5525 18.875C39.4692 19.1417 39.3859 19.4083 39.3025 19.675C39.3025 19.7083 39.2775 19.7667 39.2275 19.85C39.1609 19.9667 39.1025 20.0917 39.0525 20.225C39.0025 20.3417 38.9609 20.4667 38.9275 20.6L38.8525 20.775C38.7692 20.9417 38.6942 21.1083 38.6275 21.275C38.5775 21.425 38.5109 21.5833 38.4275 21.75C38.3775 21.85 38.3275 21.95 38.2775 22.05C38.2275 22.15 38.1692 22.2417 38.1025 22.325C38.0859 22.3583 38.0609 22.3917 38.0275 22.425C37.9942 22.5417 37.9442 22.65 37.8775 22.75C37.8109 22.85 37.7442 22.95 37.6775 23.05C37.4942 23.3333 37.2775 23.6 37.0275 23.85C36.7942 24.1 36.5359 24.3333 36.2525 24.55L35.9525 24.725C35.7192 24.8417 35.4692 24.9417 35.2025 25.025C34.9525 25.1083 34.6942 25.1667 34.4275 25.2C34.3442 25.2167 34.2525 25.2167 34.1525 25.2C34.1025 25.2 34.0525 25.2 34.0025 25.2C33.9525 25.2 33.9025 25.2167 33.8525 25.25H33.7025Z" fill="#353535"/>
</svg>
