<svg width="94" height="29" viewBox="0 0 94 29" fill="none" xmlns="http://www.w3.org/2000/svg">
<path d="M3.08906 28.25C2.90573 28.3 2.7474 28.2333 2.61406 28.05L2.53906 27.85C2.50573 27.7167 2.4724 27.575 2.43906 27.425C2.40573 27.275 2.38073 27.1333 2.36406 27L2.28906 26.5C2.2724 26.4167 2.25573 26.325 2.23906 26.225C2.23906 26.1417 2.23073 26.0583 2.21406 25.975C2.21406 25.875 2.20573 25.775 2.18906 25.675C2.18906 25.5917 2.18073 25.5 2.16406 25.4C2.16406 25.3167 2.16406 25.2333 2.16406 25.15C2.16406 25.0833 2.15573 25.0083 2.13906 24.925C2.13906 24.8583 2.13906 24.7917 2.13906 24.725C2.13906 24.6583 2.13073 24.5917 2.11406 24.525C2.11406 24.4417 2.10573 24.35 2.08906 24.25C2.08906 24.1667 2.08906 24.0833 2.08906 24C2.0724 23.8833 2.06406 23.7667 2.06406 23.65C2.06406 23.5333 2.05573 23.4167 2.03906 23.3L1.96406 22.625V22.4C1.98073 22.2833 1.98906 22.1667 1.98906 22.05C1.98906 21.95 1.9974 21.8417 2.01406 21.725V21.525C2.03073 21.375 2.0224 21.225 1.98906 21.075C1.9724 20.9417 1.98073 20.8 2.01406 20.65C2.01406 20.5167 2.00573 20.375 1.98906 20.225C1.98906 20.075 1.98906 19.9333 1.98906 19.8C1.98906 19.7 1.9974 19.625 2.01406 19.575C2.03073 19.3917 2.0224 19.2083 1.98906 19.025C1.9724 18.8583 1.96406 18.6917 1.96406 18.525C1.96406 18.4583 1.95573 18.4083 1.93906 18.375C1.9224 18.325 1.8974 18.275 1.86406 18.225C1.7474 18.0583 1.68906 17.8583 1.68906 17.625C1.68906 17.5083 1.68073 17.4167 1.66406 17.35C1.66406 17.25 1.6724 17.175 1.68906 17.125C1.7224 16.8417 1.71406 16.5833 1.66406 16.35C1.66406 16.2667 1.66406 16.1917 1.66406 16.125C1.66406 16.0417 1.65573 15.9667 1.63906 15.9C1.63906 15.7833 1.63906 15.6667 1.63906 15.55C1.63906 15.4167 1.6224 15.2917 1.58906 15.175V15.15C1.5724 14.9333 1.55573 14.725 1.53906 14.525C1.53906 14.325 1.53073 14.1167 1.51406 13.9V13.775C1.48073 13.5417 1.45573 13.3083 1.43906 13.075C1.43906 12.825 1.41406 12.575 1.36406 12.325C1.3474 12.2417 1.33906 12.1583 1.33906 12.075C1.33906 11.975 1.33906 11.8833 1.33906 11.8C1.33906 11.65 1.33073 11.5083 1.31406 11.375C1.2974 11.225 1.2724 11.075 1.23906 10.925C1.23906 10.8583 1.23073 10.7917 1.21406 10.725C1.21406 10.6583 1.21406 10.5917 1.21406 10.525L1.13906 10C1.1224 9.95 1.10573 9.9 1.08906 9.85C1.08906 9.8 1.08906 9.74167 1.08906 9.675L1.01406 8.9C1.01406 8.83333 0.997396 8.76667 0.964063 8.7C0.947396 8.56667 0.922396 8.43333 0.889063 8.3C0.872396 8.15 0.872396 8.00833 0.889063 7.875C0.889063 7.75833 0.880729 7.66667 0.864063 7.6C0.847396 7.5 0.839063 7.4 0.839063 7.3C0.839063 7.18333 0.839063 7.075 0.839063 6.975C0.839063 6.74167 0.830729 6.50833 0.814063 6.275C0.814063 6.04167 0.822396 5.81667 0.839063 5.6C0.839063 5.45 0.839063 5.30833 0.839063 5.175C0.855729 5.025 0.872396 4.88333 0.889063 4.75V4.5C0.889063 4.36667 0.864063 4.24167 0.814063 4.125C0.780729 4.075 0.747396 4.01667 0.714063 3.95C0.697396 3.9 0.680729 3.85 0.664063 3.8C0.647396 3.73333 0.622396 3.66667 0.589063 3.6C0.505729 3.36667 0.530729 3.13333 0.664063 2.9C0.664063 2.88333 0.664063 2.875 0.664063 2.875C0.680729 2.85833 0.689063 2.84167 0.689063 2.825C0.739063 2.69167 0.830729 2.56667 0.964063 2.45C1.16406 2.3 1.2974 2.11667 1.36406 1.9C1.46406 1.66667 1.61406 1.48333 1.81406 1.35C1.86406 1.31667 1.90573 1.29167 1.93906 1.275C1.98906 1.24167 2.03906 1.225 2.08906 1.225C2.15573 1.20833 2.23073 1.15833 2.31406 1.075C2.33073 1.05833 2.36406 1.05 2.41406 1.05L2.91406 1.125C3.01406 1.125 3.0974 1.15833 3.16406 1.225C3.23073 1.29167 3.28906 1.35 3.33906 1.4C3.40573 1.45 3.4474 1.51667 3.46406 1.6L3.61406 1.75C3.6974 1.83333 3.78073 1.86667 3.86406 1.85C3.9474 1.83333 4.0224 1.83333 4.08906 1.85C4.15573 1.86667 4.2224 1.89167 4.28906 1.925C4.38906 1.975 4.48906 2.01667 4.58906 2.05C4.70573 2.08333 4.81406 2.11667 4.91406 2.15C4.98073 2.16667 5.03906 2.19167 5.08906 2.225C5.15573 2.25833 5.2224 2.29167 5.28906 2.325C5.48906 2.40833 5.68906 2.5 5.88906 2.6C6.08906 2.68333 6.28073 2.79167 6.46406 2.925C6.66406 3.05833 6.86406 3.2 7.06406 3.35C7.28073 3.48333 7.4724 3.63333 7.63906 3.8L8.76406 4.75C8.86406 4.81667 8.95573 4.9 9.03906 5C9.1224 5.08333 9.20573 5.16667 9.28906 5.25C9.45573 5.41667 9.63906 5.575 9.83906 5.725C9.9724 5.80833 10.0891 5.9 10.1891 6C10.3057 6.1 10.4224 6.2 10.5391 6.3C10.6724 6.41667 10.7974 6.54167 10.9141 6.675C11.0307 6.80833 11.1474 6.94167 11.2641 7.075C11.4141 7.24167 11.5474 7.41667 11.6641 7.6C11.7807 7.78333 11.8724 7.98333 11.9391 8.2L12.1641 8.8C12.2474 9 12.3141 9.20833 12.3641 9.425C12.4141 9.625 12.4307 9.84167 12.4141 10.075V10.45C12.4307 10.65 12.4224 10.85 12.3891 11.05C12.3557 11.25 12.3141 11.4417 12.2641 11.625C12.2474 11.7083 12.2307 11.7917 12.2141 11.875C12.1974 11.9417 12.1807 12.0167 12.1641 12.1C12.0641 12.3833 11.9391 12.6667 11.7891 12.95C11.7224 13.0667 11.6557 13.1917 11.5891 13.325C11.5224 13.4417 11.4474 13.5667 11.3641 13.7C11.3307 13.7667 11.2891 13.825 11.2391 13.875C11.0724 14.0917 10.8891 14.3 10.6891 14.5C10.5057 14.7 10.3057 14.8917 10.0891 15.075C10.0224 15.125 9.95573 15.1833 9.88906 15.25C9.8224 15.3 9.75573 15.3583 9.68906 15.425C9.6724 15.4583 9.63906 15.4917 9.58906 15.525C9.55573 15.5583 9.5224 15.5917 9.48906 15.625C9.38906 15.725 9.28906 15.825 9.18906 15.925C9.10573 16.0083 9.0224 16.1083 8.93906 16.225L8.86406 16.325C8.7474 16.425 8.63906 16.5333 8.53906 16.65C8.43906 16.7667 8.33073 16.875 8.21406 16.975C8.1474 17.0417 8.0724 17.1167 7.98906 17.2C7.90573 17.2667 7.8224 17.3417 7.73906 17.425C7.7224 17.4417 7.70573 17.4583 7.68906 17.475C7.6724 17.4917 7.6474 17.5167 7.61406 17.55C7.5974 17.5833 7.5724 17.6167 7.53906 17.65C7.50573 17.6667 7.4724 17.6917 7.43906 17.725L7.13906 18.025C7.0224 18.1417 6.90573 18.25 6.78906 18.35C6.6724 18.45 6.5474 18.5583 6.41406 18.675C6.3974 18.6917 6.3724 18.7083 6.33906 18.725C6.3224 18.7417 6.30573 18.7667 6.28906 18.8C6.2224 18.8667 6.1474 18.925 6.06406 18.975C5.98073 19.025 5.8974 19.0833 5.81406 19.15C5.76406 19.2 5.70573 19.225 5.63906 19.225C5.53906 19.2583 5.45573 19.275 5.38906 19.275C5.2724 19.275 5.1724 19.325 5.08906 19.425C5.0224 19.4917 4.95573 19.5667 4.88906 19.65C4.8224 19.7333 4.75573 19.8167 4.68906 19.9L4.11406 20.65C3.96406 20.8 3.86406 20.9917 3.81406 21.225C3.7974 21.3417 3.78073 21.4583 3.76406 21.575C3.7474 21.7083 3.7224 21.8417 3.68906 21.975C3.63906 22.175 3.61406 22.3917 3.61406 22.625C3.63073 22.8083 3.6224 22.9833 3.58906 23.15C3.5724 23.3333 3.55573 23.5167 3.53906 23.7V23.85C3.53906 23.9667 3.5474 24.0833 3.56406 24.2C3.58073 24.3333 3.58073 24.4667 3.56406 24.6C3.5474 24.7167 3.53906 24.8333 3.53906 24.95C3.53906 25.0833 3.53906 25.2083 3.53906 25.325C3.53906 25.4417 3.53906 25.55 3.53906 25.65C3.53906 25.75 3.53073 25.85 3.51406 25.95C3.51406 26.0667 3.50573 26.1833 3.48906 26.3C3.48906 26.4333 3.4974 26.5583 3.51406 26.675V26.925C3.51406 26.9917 3.51406 27.0583 3.51406 27.125C3.51406 27.1917 3.50573 27.2667 3.48906 27.35C3.48906 27.4333 3.48073 27.5167 3.46406 27.6C3.46406 27.7 3.45573 27.7917 3.43906 27.875C3.43906 27.8917 3.43073 27.9 3.41406 27.9C3.41406 27.9 3.41406 27.9083 3.41406 27.925C3.36406 28.125 3.25573 28.2333 3.08906 28.25ZM5.23906 15.825C5.2724 15.825 5.30573 15.8083 5.33906 15.775C5.4224 15.7417 5.50573 15.7 5.58906 15.65C5.6724 15.6 5.7474 15.55 5.81406 15.5C5.9474 15.4333 6.08906 15.325 6.23906 15.175C6.4224 14.975 6.61406 14.7833 6.81406 14.6C7.01406 14.4 7.20573 14.2 7.38906 14C7.5724 13.8 7.76406 13.6 7.96406 13.4C8.16406 13.1833 8.35573 12.9833 8.53906 12.8L9.03906 12.275C9.10573 12.2083 9.16406 12.1417 9.21406 12.075C9.26406 11.9917 9.31406 11.9167 9.36406 11.85C9.4974 11.6667 9.53906 11.4583 9.48906 11.225C9.43906 10.8583 9.33906 10.5167 9.18906 10.2C9.13906 10.05 9.08073 9.90833 9.01406 9.775C8.9474 9.625 8.88073 9.48333 8.81406 9.35C8.7474 9.25 8.70573 9.175 8.68906 9.125C8.63906 9.075 8.5974 9.01667 8.56406 8.95C8.46406 8.8 8.35573 8.66667 8.23906 8.55C8.20573 8.51667 8.16406 8.48333 8.11406 8.45C8.08073 8.4 8.0474 8.35 8.01406 8.3C7.9474 8.2 7.88073 8.1 7.81406 8C7.76406 7.9 7.6974 7.80833 7.61406 7.725C7.4974 7.54167 7.41406 7.43333 7.36406 7.4C7.31406 7.35 7.1974 7.26667 7.01406 7.15C6.81406 7.03333 6.6474 6.90833 6.51406 6.775L6.36406 6.625C6.21406 6.50833 6.06406 6.4 5.91406 6.3C5.78073 6.2 5.63906 6.09167 5.48906 5.975C5.3224 5.85833 5.15573 5.75833 4.98906 5.675C4.8224 5.575 4.6474 5.475 4.46406 5.375C4.41406 5.34167 4.35573 5.31667 4.28906 5.3C4.2224 5.28333 4.15573 5.26667 4.08906 5.25C4.0224 5.23333 3.96406 5.25 3.91406 5.3L3.86406 5.425C3.83073 5.49167 3.81406 5.60833 3.81406 5.775L3.88906 6.45C3.9224 6.63333 3.95573 6.81667 3.98906 7C4.03906 7.18333 4.08073 7.36667 4.11406 7.55V7.65C4.1474 7.81667 4.1724 7.99167 4.18906 8.175C4.20573 8.35833 4.23073 8.54167 4.26406 8.725C4.2974 8.875 4.3224 9.025 4.33906 9.175C4.35573 9.325 4.3724 9.475 4.38906 9.625C4.40573 9.75833 4.4224 9.89167 4.43906 10.025C4.4724 10.1417 4.4974 10.2667 4.51406 10.4C4.56406 10.6833 4.60573 10.9667 4.63906 11.25C4.68906 11.5167 4.73073 11.7917 4.76406 12.075L4.83906 12.7C4.85573 12.7667 4.86406 12.8333 4.86406 12.9C4.86406 12.95 4.8724 13 4.88906 13.05V13.25C4.9224 13.4333 4.9474 13.625 4.96406 13.825C4.9974 14.0083 5.0224 14.2 5.03906 14.4C5.05573 14.4333 5.06406 14.4833 5.06406 14.55C5.0474 14.7333 5.05573 14.925 5.08906 15.125C5.1224 15.325 5.13906 15.5167 5.13906 15.7V15.775C5.13906 15.7917 5.1474 15.8083 5.16406 15.825C5.1974 15.8417 5.2224 15.8417 5.23906 15.825ZM24.2389 20.825C24.0889 20.825 23.9555 20.7667 23.8389 20.65C23.8055 20.6 23.7722 20.55 23.7389 20.5C23.7055 20.45 23.6722 20.4 23.6389 20.35C23.4889 20 23.4139 19.6333 23.4139 19.25L23.3389 18.65C23.2889 18.4167 23.2472 18.1833 23.2139 17.95C23.1805 17.7167 23.1222 17.4917 23.0389 17.275L22.8889 16.85C22.8889 16.8167 22.8805 16.7833 22.8639 16.75C22.8639 16.7167 22.8555 16.6833 22.8389 16.65L22.4639 15.325C22.4472 15.2917 22.4305 15.25 22.4139 15.2C22.4139 15.15 22.3972 15.1083 22.3639 15.075C22.3139 14.975 22.2722 14.875 22.2389 14.775C22.2222 14.6583 22.1972 14.5417 22.1639 14.425C22.1472 14.3417 22.1305 14.2667 22.1139 14.2C22.0972 14.1167 22.0722 14.0333 22.0389 13.95C22.0055 13.85 21.9722 13.7917 21.9389 13.775C21.9055 13.7417 21.8305 13.7417 21.7139 13.775C21.6305 13.7917 21.5389 13.8083 21.4389 13.825C21.3555 13.825 21.2722 13.8417 21.1889 13.875C21.1222 13.8917 21.0389 13.9083 20.9389 13.925C20.8555 13.925 20.7722 13.9333 20.6889 13.95L20.3389 14.025C20.2555 14.0417 20.1639 14.0667 20.0639 14.1C19.9805 14.1167 19.8972 14.125 19.8139 14.125L19.3639 14.2C19.2305 14.2333 19.0889 14.2667 18.9389 14.3C18.7889 14.3333 18.6472 14.3667 18.5139 14.4C18.1139 14.5 17.7139 14.575 17.3139 14.625C17.1805 14.6583 17.1055 14.7167 17.0889 14.8C17.0722 14.8 17.0639 14.8083 17.0639 14.825C16.9639 15.0917 16.8472 15.3583 16.7139 15.625C16.5972 15.875 16.4722 16.1333 16.3389 16.4C16.3055 16.4667 16.2722 16.5333 16.2389 16.6C16.2222 16.65 16.1972 16.7083 16.1639 16.775C16.1472 16.8083 16.1305 16.85 16.1139 16.9C16.0972 16.9333 16.0805 16.9667 16.0639 17C15.9639 17.1167 15.9139 17.2583 15.9139 17.425C15.8972 17.525 15.8639 17.625 15.8139 17.725C15.7639 17.8083 15.7139 17.8917 15.6639 17.975C15.6472 18.025 15.6139 18.05 15.5639 18.05C15.4972 18.0667 15.4305 18.0917 15.3639 18.125C15.2972 18.1583 15.2222 18.1917 15.1389 18.225C15.0889 18.2417 15.0389 18.2417 14.9889 18.225C14.9555 18.2083 14.9139 18.1917 14.8639 18.175C14.8305 18.1417 14.7972 18.125 14.7639 18.125C14.5805 18.1083 14.4472 18 14.3639 17.8C14.2305 17.5333 14.1389 17.2667 14.0889 17C14.0722 16.9333 14.0722 16.875 14.0889 16.825C14.1222 16.775 14.1472 16.725 14.1639 16.675C14.2639 16.6083 14.3222 16.5333 14.3389 16.45V16.425C14.3389 16.2083 14.3805 16.0083 14.4639 15.825C14.5639 15.625 14.6472 15.4333 14.7139 15.25C14.7472 15.15 14.7889 15.05 14.8389 14.95C14.8889 14.85 14.9389 14.75 14.9889 14.65C15.0555 14.5333 15.1055 14.425 15.1389 14.325C15.1889 14.2083 15.2305 14.0917 15.2639 13.975C15.3139 13.8417 15.3139 13.7167 15.2639 13.6C15.2305 13.5 15.2139 13.4083 15.2139 13.325C15.2139 13.225 15.2222 13.125 15.2389 13.025C15.2389 12.8417 15.3055 12.6833 15.4389 12.55C15.5055 12.4667 15.5722 12.4 15.6389 12.35C15.7222 12.2833 15.7972 12.2167 15.8639 12.15C16.0139 12 16.1305 11.8 16.2139 11.55C16.2805 11.3333 16.3305 11.1167 16.3639 10.9C16.4139 10.6667 16.4639 10.4417 16.5139 10.225C16.5472 10.0083 16.5805 9.8 16.6139 9.6C16.6639 9.38333 16.7139 9.175 16.7639 8.975C16.7805 8.89167 16.7972 8.81667 16.8139 8.75C16.8472 8.66667 16.8722 8.59167 16.8889 8.525C16.9389 8.39167 16.9889 8.26667 17.0389 8.15C17.0889 8.01667 17.1222 7.88333 17.1389 7.75C17.1722 7.68333 17.1722 7.625 17.1389 7.575C17.1222 7.49167 17.1222 7.41667 17.1389 7.35C17.1722 7.28333 17.1972 7.21667 17.2139 7.15C17.2639 7.03333 17.2972 6.91667 17.3139 6.8C17.3472 6.68333 17.3889 6.56667 17.4389 6.45C17.5222 6.23333 17.5889 6.05833 17.6389 5.925C17.7055 5.775 17.7639 5.60833 17.8139 5.425C17.8472 5.325 17.8805 5.23333 17.9139 5.15C17.9639 5.05 17.9972 4.95 18.0139 4.85C18.0639 4.7 18.1055 4.55 18.1389 4.4C18.1722 4.23333 18.1889 4.075 18.1889 3.925C18.2222 3.79167 18.2555 3.7 18.2889 3.65C18.3722 3.48333 18.4722 3.34167 18.5889 3.225C18.7222 3.10833 18.8472 2.99167 18.9639 2.875C19.0472 2.825 19.1305 2.79167 19.2139 2.775C19.2972 2.74167 19.3805 2.75 19.4639 2.8C19.5305 2.83333 19.5722 2.85 19.5889 2.85C19.7389 2.83333 19.8639 2.86667 19.9639 2.95C20.0639 3.03333 20.1472 3.13333 20.2139 3.25C20.2472 3.28333 20.2722 3.325 20.2889 3.375C20.3055 3.425 20.3222 3.46667 20.3389 3.5C20.4222 3.63333 20.4639 3.76667 20.4639 3.9C20.4639 3.96667 20.4722 4.04167 20.4889 4.125C20.5055 4.19167 20.5222 4.26667 20.5389 4.35C20.5889 4.45 20.6639 4.5 20.7639 4.5C20.7805 4.48333 20.7972 4.48333 20.8139 4.5C20.8305 4.51667 20.8389 4.53333 20.8389 4.55C20.9222 4.65 20.9472 4.75833 20.9139 4.875C20.8805 5.00833 20.8722 5.14167 20.8889 5.275C20.9222 5.39167 20.9555 5.51667 20.9889 5.65C21.0555 5.81667 21.1222 5.98333 21.1889 6.15C21.2555 6.31667 21.3222 6.48333 21.3889 6.65C21.4722 6.83333 21.5555 7.01667 21.6389 7.2C21.7222 7.38333 21.7972 7.56667 21.8639 7.75C21.9472 7.98333 22.0305 8.21667 22.1139 8.45C22.2139 8.68333 22.3222 8.91667 22.4389 9.15L22.5139 9.425C22.5305 9.49167 22.5472 9.55833 22.5639 9.625C22.5972 9.69167 22.6222 9.75833 22.6389 9.825C22.6722 9.875 22.6972 9.925 22.7139 9.975C22.7472 10.025 22.7805 10.0667 22.8139 10.1C22.8972 10.2167 22.9472 10.3417 22.9639 10.475C23.0139 10.6417 23.0889 10.7917 23.1889 10.925C23.2222 10.975 23.2722 11 23.3389 11C23.5889 10.9667 23.8389 10.9417 24.0889 10.925C24.3389 10.8917 24.5889 10.8417 24.8389 10.775C25.0222 10.725 25.1972 10.7 25.3639 10.7C25.6805 10.7 25.9722 10.8083 26.2389 11.025C26.5555 11.275 26.7222 11.5917 26.7389 11.975C26.7389 12.0583 26.7472 12.125 26.7639 12.175C26.7639 12.2917 26.7305 12.3833 26.6639 12.45C26.6472 12.5 26.6139 12.55 26.5639 12.6C26.5305 12.65 26.4972 12.7 26.4639 12.75C26.4305 12.8167 26.3972 12.8667 26.3639 12.9L26.2139 13.025C26.1972 13.0583 26.1722 13.1 26.1389 13.15C26.1055 13.1833 26.0639 13.2083 26.0139 13.225C25.9472 13.2417 25.8805 13.2667 25.8139 13.3C25.7472 13.3167 25.6722 13.325 25.5889 13.325C25.2889 13.3583 25.0222 13.35 24.7889 13.3H24.3889C24.3555 13.3 24.3055 13.3167 24.2389 13.35C24.1722 13.3833 24.1389 13.425 24.1389 13.475V13.575C24.1889 13.725 24.2222 13.8833 24.2389 14.05C24.2722 14.2 24.3222 14.3417 24.3889 14.475C24.3889 14.5417 24.4055 14.6083 24.4389 14.675C24.5222 14.825 24.5889 14.9833 24.6389 15.15C24.6889 15.3 24.7305 15.4583 24.7639 15.625C24.7639 15.6583 24.7805 15.725 24.8139 15.825C24.8639 15.9417 24.9055 16.0667 24.9389 16.2C24.9722 16.3167 24.9972 16.4417 25.0139 16.575C25.0139 16.675 25.0389 16.7667 25.0889 16.85C25.1555 17 25.2055 17.15 25.2389 17.3C25.2722 17.45 25.2972 17.6083 25.3139 17.775C25.3305 17.7917 25.3389 17.825 25.3389 17.875C25.3389 17.9083 25.3472 17.9417 25.3639 17.975C25.4472 18.1583 25.5055 18.3583 25.5389 18.575C25.5722 18.775 25.6139 18.975 25.6639 19.175C25.6972 19.275 25.7139 19.375 25.7139 19.475C25.7305 19.5917 25.7389 19.7083 25.7389 19.825C25.7389 19.9083 25.7139 20 25.6639 20.1C25.6139 20.15 25.5889 20.175 25.5889 20.175C25.4889 20.1917 25.4305 20.25 25.4139 20.35L25.3389 20.5C25.3055 20.5667 25.2555 20.6083 25.1889 20.625C25.1222 20.625 25.0639 20.65 25.0139 20.7C24.9472 20.7667 24.8555 20.8 24.7389 20.8C24.6722 20.8 24.5889 20.8 24.4889 20.8C24.4055 20.8 24.3222 20.8083 24.2389 20.825ZM18.2139 11.75C18.3139 11.7333 18.4139 11.7167 18.5139 11.7C18.6305 11.6833 18.7555 11.6667 18.8889 11.65C18.9722 11.6333 19.0805 11.6167 19.2139 11.6C19.3472 11.5833 19.4722 11.5667 19.5889 11.55C19.7055 11.5167 19.8222 11.5 19.9389 11.5C20.0555 11.4833 20.1722 11.4667 20.2889 11.45C20.3889 11.4167 20.4889 11.4 20.5889 11.4C20.6889 11.3833 20.7889 11.3667 20.8889 11.35C21.0389 11.3167 21.0972 11.2333 21.0639 11.1C21.0472 10.9667 21.0139 10.8333 20.9639 10.7C20.9305 10.55 20.8555 10.425 20.7389 10.325C20.7055 10.2917 20.6889 10.2417 20.6889 10.175V10.1C20.6555 9.96667 20.6139 9.84167 20.5639 9.725C20.5305 9.59167 20.4889 9.46667 20.4389 9.35C20.4055 9.21667 20.3639 9.1 20.3139 9C20.2805 8.88333 20.2389 8.76667 20.1889 8.65L19.8889 7.75C19.8389 7.63333 19.7889 7.51667 19.7389 7.4C19.7055 7.28333 19.6722 7.16667 19.6389 7.05L19.5639 6.95H19.4889L19.4389 7.025C19.3555 7.275 19.2555 7.525 19.1389 7.775C19.0389 8.025 18.9472 8.29167 18.8639 8.575C18.8639 8.60833 18.8555 8.65 18.8389 8.7C18.8222 8.75 18.8055 8.8 18.7889 8.85C18.7222 9.01667 18.6555 9.2 18.5889 9.4C18.5389 9.6 18.4972 9.8 18.4639 10C18.4472 10.1167 18.4305 10.2333 18.4139 10.35C18.3972 10.45 18.3722 10.5583 18.3389 10.675L18.1139 11.65C18.0972 11.6667 18.1055 11.6917 18.1389 11.725C18.1722 11.7417 18.1972 11.75 18.2139 11.75ZM33.5254 20.65C33.4754 20.6667 33.4254 20.6667 33.3754 20.65C33.3254 20.65 33.2837 20.65 33.2504 20.65C33.0671 20.6 32.9087 20.5 32.7754 20.35C32.6587 20.2167 32.5504 20.0583 32.4504 19.875C32.4337 19.8083 32.4087 19.7417 32.3754 19.675C32.3587 19.6083 32.3504 19.5417 32.3504 19.475V19.3C32.3171 19.1167 32.2921 18.9333 32.2754 18.75C32.2754 18.5667 32.2754 18.3833 32.2754 18.2C32.2754 17.9667 32.2754 17.7333 32.2754 17.5C32.2921 17.2667 32.3004 17.0333 32.3004 16.8C32.3004 16.6833 32.3087 16.5917 32.3254 16.525C32.3421 16.2083 32.3421 15.875 32.3254 15.525C32.3087 15.4417 32.2921 15.35 32.2754 15.25C32.2754 15.15 32.2754 15.05 32.2754 14.95C32.2921 14.7667 32.2921 14.5833 32.2754 14.4C32.2587 14.2167 32.2337 14.0333 32.2004 13.85L32.1254 13.425C32.1254 13.3917 32.1171 13.3583 32.1004 13.325C32.1004 13.275 32.1004 13.2417 32.1004 13.225C31.9671 12.725 31.7837 12.275 31.5504 11.875C31.4671 11.725 31.3754 11.575 31.2754 11.425C31.1921 11.2583 31.1087 11.0917 31.0254 10.925C30.9421 10.7583 30.8754 10.5917 30.8254 10.425C30.7921 10.2417 30.7587 10.0667 30.7254 9.9C30.7254 9.86667 30.7254 9.825 30.7254 9.775C30.7421 9.725 30.7504 9.675 30.7504 9.625C30.7504 9.525 30.7504 9.425 30.7504 9.325C30.7671 9.20833 30.7754 9.09167 30.7754 8.975C30.7754 8.85833 30.7421 8.76667 30.6754 8.7L30.5254 8.5C30.4587 8.41667 30.4004 8.33333 30.3504 8.25C30.3004 8.15 30.2421 8.05833 30.1754 7.975L29.9004 7.6C29.8337 7.5 29.7587 7.4 29.6754 7.3C29.5921 7.2 29.5087 7.09167 29.4254 6.975C29.3921 6.94167 29.3587 6.90833 29.3254 6.875C29.2921 6.825 29.2504 6.79167 29.2004 6.775C29.1337 6.75833 29.0837 6.71667 29.0504 6.65C29.0004 6.6 28.9421 6.525 28.8754 6.425C28.7754 6.25833 28.6671 6.09167 28.5504 5.925C28.4504 5.74167 28.3504 5.56667 28.2504 5.4L28.1754 5.3C28.0254 4.98333 27.8754 4.66667 27.7254 4.35C27.5921 4.01667 27.4671 3.69167 27.3504 3.375C27.2837 3.225 27.2337 3.05833 27.2004 2.875C27.1837 2.775 27.1587 2.675 27.1254 2.575C27.0921 2.475 27.0504 2.38333 27.0004 2.3C26.9504 2.21667 26.9171 2.13333 26.9004 2.05C26.9004 1.96667 26.9004 1.88333 26.9004 1.8C26.9004 1.75 26.9087 1.7 26.9254 1.65C26.9587 1.6 26.9837 1.55 27.0004 1.5C27.0504 1.41667 27.1004 1.34167 27.1504 1.275C27.2171 1.19167 27.2837 1.11667 27.3504 1.05C27.4337 0.966665 27.5254 0.924999 27.6254 0.924999C27.6754 0.924999 27.7087 0.916666 27.7254 0.899999C27.8587 0.833332 27.9921 0.816666 28.1254 0.85C28.2754 0.883333 28.4087 0.924999 28.5254 0.975C28.5754 0.991666 28.6171 1.025 28.6504 1.075C28.6837 1.10833 28.7171 1.14167 28.7504 1.175L29.0254 1.625C29.0587 1.65833 29.0754 1.7 29.0754 1.75C29.0921 1.8 29.1087 1.85 29.1254 1.9C29.1421 1.93333 29.1587 1.975 29.1754 2.025C29.2921 2.275 29.4004 2.525 29.5004 2.775C29.6171 3.00833 29.7254 3.25 29.8254 3.5C29.9087 3.71667 29.9921 3.93333 30.0754 4.15C30.1754 4.35 30.2837 4.55 30.4004 4.75C30.4837 4.95 30.5837 5.14167 30.7004 5.325C30.8171 5.50833 30.9337 5.69167 31.0504 5.875C31.1171 5.94167 31.1754 6.01667 31.2254 6.1C31.2754 6.18333 31.3337 6.26667 31.4004 6.35L31.5254 6.5C31.6587 6.63333 31.7421 6.7 31.7754 6.7C31.8087 6.7 31.8837 6.625 32.0004 6.475C32.0671 6.39167 32.1254 6.30833 32.1754 6.225C32.2421 6.125 32.3087 6.04167 32.3754 5.975C32.5087 5.80833 32.6337 5.65 32.7504 5.5C32.8837 5.35 33.0087 5.2 33.1254 5.05C33.3087 4.83333 33.5421 4.61667 33.8254 4.4C33.9421 4.3 34.0504 4.19167 34.1504 4.075C34.2671 3.925 34.4004 3.81667 34.5504 3.75C34.6671 3.68333 34.7754 3.61667 34.8754 3.55C34.9754 3.46667 35.0754 3.39167 35.1754 3.325C35.2754 3.225 35.3837 3.14167 35.5004 3.075C35.5671 3.025 35.6254 2.975 35.6754 2.925C35.7421 2.85833 35.8004 2.79167 35.8504 2.725C35.8837 2.675 35.9171 2.63333 35.9504 2.6C36.0004 2.55 36.0504 2.50833 36.1004 2.475L36.4504 2.25C36.4837 2.23333 36.5087 2.225 36.5254 2.225C36.5421 2.20833 36.5587 2.19167 36.5754 2.175C36.6087 2.175 36.6337 2.175 36.6504 2.175C36.6671 2.15833 36.6837 2.15 36.7004 2.15C36.7837 2.11667 36.8587 2.09167 36.9254 2.075C37.0087 2.05833 37.0921 2.05 37.1754 2.05C37.2754 2.1 37.3754 2.15 37.4754 2.2C37.5754 2.25 37.6587 2.31667 37.7254 2.4C37.7587 2.41667 37.7837 2.425 37.8004 2.425C37.8337 2.425 37.8587 2.43333 37.8754 2.45C37.8921 2.46667 37.9004 2.48333 37.9004 2.5C37.9004 2.51667 37.8921 2.55 37.8754 2.6C37.8587 2.63333 37.8504 2.65833 37.8504 2.675C37.8504 2.69167 37.8671 2.7 37.9004 2.7C37.9337 2.7 37.9587 2.70833 37.9754 2.725C37.9921 2.74167 38.0087 2.75 38.0254 2.75C38.0421 2.75 38.0504 2.76667 38.0504 2.8C38.0337 2.93333 38.0504 3.075 38.1004 3.225C38.1337 3.275 38.1504 3.325 38.1504 3.375C38.1504 3.425 38.1421 3.475 38.1254 3.525L37.8004 4.125C37.7837 4.19167 37.7421 4.24167 37.6754 4.275C37.4254 4.49167 37.1754 4.65833 36.9254 4.775C36.6254 4.875 36.3754 5.00833 36.1754 5.175C36.0921 5.24167 36.0087 5.30833 35.9254 5.375C35.8421 5.425 35.7587 5.49167 35.6754 5.575C35.6421 5.60833 35.5921 5.64167 35.5254 5.675L35.3754 5.8C35.1921 6 35.0087 6.2 34.8254 6.4C34.6587 6.58333 34.4837 6.775 34.3004 6.975C34.2671 7.04167 34.2254 7.075 34.1754 7.075C34.0921 7.125 34.0171 7.19167 33.9504 7.275C33.8671 7.40833 33.7754 7.54167 33.6754 7.675C33.5754 7.79167 33.5004 7.93333 33.4504 8.1L33.3004 8.35C33.2837 8.36667 33.2671 8.39167 33.2504 8.425C33.2337 8.44167 33.2171 8.46667 33.2004 8.5C33.1337 8.61667 33.1254 8.74167 33.1754 8.875C33.2087 8.90833 33.2337 8.95 33.2504 9C33.2837 9.05 33.3087 9.1 33.3254 9.15C33.3754 9.23333 33.3671 9.31667 33.3004 9.4C33.2671 9.41667 33.2504 9.45833 33.2504 9.525C33.2837 9.59167 33.3004 9.64167 33.3004 9.675C33.3337 9.775 33.3254 9.86667 33.2754 9.95C33.2421 10.0167 33.2254 10.0583 33.2254 10.075C33.2087 10.175 33.2171 10.2667 33.2504 10.35C33.2837 10.4167 33.3171 10.5 33.3504 10.6C33.4004 10.6833 33.4587 10.7667 33.5254 10.85C33.6087 11.0167 33.6921 11.175 33.7754 11.325C33.8587 11.475 33.9337 11.6333 34.0004 11.8L34.3004 12.775C34.3337 12.925 34.3587 13.0833 34.3754 13.25C34.3921 13.4 34.4087 13.55 34.4254 13.7C34.4421 13.8 34.4587 13.9 34.4754 14C34.4921 14.0833 34.4921 14.175 34.4754 14.275C34.5087 14.6417 34.5171 15.0083 34.5004 15.375C34.5004 15.725 34.5004 16.0833 34.5004 16.45C34.5004 16.4833 34.4921 16.5167 34.4754 16.55C34.4587 16.7333 34.4504 16.925 34.4504 17.125C34.4504 17.325 34.4421 17.5167 34.4254 17.7C34.4254 17.8167 34.4254 17.9333 34.4254 18.05C34.4421 18.1667 34.4504 18.2917 34.4504 18.425C34.4504 18.475 34.4587 18.5083 34.4754 18.525C34.5087 18.6083 34.5337 18.7 34.5504 18.8C34.5671 18.8833 34.5837 18.9667 34.6004 19.05C34.6171 19.1167 34.6254 19.175 34.6254 19.225C34.6254 19.2917 34.6087 19.3583 34.5754 19.425C34.5254 19.5417 34.5254 19.6667 34.5754 19.8C34.5754 19.8167 34.5504 19.8417 34.5004 19.875C34.4671 19.875 34.4337 19.8833 34.4004 19.9C34.3837 19.9 34.3587 19.9167 34.3254 19.95C34.3254 19.9833 34.3171 20.0083 34.3004 20.025C34.2837 20.1083 34.2171 20.2083 34.1004 20.325C34.0337 20.4083 33.9421 20.475 33.8254 20.525C33.7254 20.575 33.6254 20.6167 33.5254 20.65ZM48.4848 20.275C48.4181 20.2917 48.3681 20.275 48.3348 20.225C48.2681 20.175 48.2014 20.125 48.1348 20.075C48.0848 20.025 48.0181 19.975 47.9348 19.925C47.8014 19.8583 47.6931 19.7417 47.6098 19.575C47.4598 19.3417 47.3848 19.0917 47.3848 18.825C47.3848 18.7417 47.3764 18.6583 47.3598 18.575C47.3598 18.4917 47.3514 18.4083 47.3348 18.325C47.3348 18.2417 47.3264 18.1667 47.3098 18.1C47.3098 18.0167 47.3098 17.9417 47.3098 17.875C47.3098 17.7917 47.3098 17.7083 47.3098 17.625C47.3098 17.525 47.3014 17.4333 47.2848 17.35C47.2848 17.3333 47.2764 17.325 47.2598 17.325C47.2598 17.3083 47.2598 17.3 47.2598 17.3C47.2264 17.3 47.2014 17.3083 47.1848 17.325L46.8848 17.7C46.8181 17.8 46.7348 17.8917 46.6348 17.975C46.5514 18.0417 46.4681 18.1167 46.3848 18.2C46.1181 18.4 45.8514 18.5667 45.5848 18.7C45.4681 18.75 45.3598 18.7917 45.2598 18.825C44.6931 19.025 44.1348 19.1167 43.5848 19.1C43.4014 19.0833 43.2098 19.0667 43.0098 19.05C42.8264 19.05 42.6348 19.025 42.4348 18.975C42.2848 18.925 42.1348 18.875 41.9848 18.825C41.8514 18.7583 41.7181 18.675 41.5848 18.575C41.4681 18.475 41.3514 18.375 41.2348 18.275C41.1181 18.1583 41.0098 18.0333 40.9098 17.9C40.7431 17.6333 40.6348 17.4667 40.5848 17.4C40.5348 17.3333 40.4598 17.1667 40.3598 16.9L40.2348 16.675C40.1848 16.5417 40.1264 16.4167 40.0598 16.3C40.0098 16.1667 39.9681 16.0333 39.9348 15.9L39.8098 15.55C39.7764 15.4333 39.7431 15.325 39.7098 15.225C39.6764 15.1083 39.6431 14.9917 39.6098 14.875C39.5431 14.6583 39.4848 14.4417 39.4348 14.225C39.3848 13.9917 39.3348 13.7667 39.2848 13.55L39.2098 13.1C39.2098 13.0667 39.2014 13.0333 39.1848 13C39.1848 12.95 39.1848 12.9 39.1848 12.85L39.0348 12.125C39.0181 12.0417 39.0098 11.9667 39.0098 11.9C39.0098 11.8167 39.0098 11.7417 39.0098 11.675C38.9931 11.5417 38.9848 11.4083 38.9848 11.275C39.0014 11.1417 39.0098 11.0083 39.0098 10.875C39.0264 10.6917 39.0514 10.5167 39.0848 10.35C39.1181 10.1667 39.1514 9.99167 39.1848 9.825C39.2514 9.59167 39.3181 9.35833 39.3848 9.125C39.4681 8.875 39.5598 8.64167 39.6598 8.425C39.7431 8.24167 39.8264 8.06667 39.9098 7.9C39.9931 7.71667 40.0931 7.54167 40.2098 7.375C40.3598 7.125 40.5181 6.88333 40.6848 6.65C40.8681 6.41667 41.0514 6.19167 41.2348 5.975C41.3681 5.825 41.5014 5.68333 41.6348 5.55C41.7681 5.4 41.9014 5.25 42.0348 5.1C42.2681 4.86667 42.5181 4.66667 42.7848 4.5C42.9181 4.41667 43.0514 4.36667 43.1848 4.35C43.2348 4.33333 43.2764 4.325 43.3098 4.325C43.3598 4.325 43.4014 4.31667 43.4348 4.3C43.6181 4.26667 43.7848 4.275 43.9348 4.325C43.9848 4.34167 44.0348 4.35833 44.0848 4.375C44.1514 4.39167 44.2098 4.40833 44.2598 4.425C44.4764 4.50833 44.6681 4.55833 44.8348 4.575C44.9348 4.575 45.0514 4.60833 45.1848 4.675C45.2681 4.69167 45.3514 4.71667 45.4348 4.75C45.5181 4.76667 45.6014 4.78333 45.6848 4.8C45.7848 4.8 45.8681 4.825 45.9348 4.875C45.9514 4.875 45.9681 4.88333 45.9848 4.9C46.0181 4.9 46.0431 4.9 46.0598 4.9C46.1931 4.91667 46.3098 4.95 46.4098 5C46.5098 5.03333 46.6098 5.08333 46.7098 5.15C46.9431 5.3 47.1848 5.46667 47.4348 5.65C47.5848 5.76667 47.6598 5.925 47.6598 6.125V6.25C47.7098 6.45 47.6598 6.65 47.5098 6.85C47.4264 7 47.3598 7.1 47.3098 7.15C47.2764 7.18333 47.1764 7.24167 47.0098 7.325C46.9598 7.34167 46.9014 7.36667 46.8348 7.4C46.7848 7.41667 46.7181 7.425 46.6348 7.425C46.6014 7.425 46.5598 7.43333 46.5098 7.45C46.4764 7.45 46.4431 7.45 46.4098 7.45C46.3598 7.46667 46.3098 7.46667 46.2598 7.45C46.2098 7.43333 46.1598 7.425 46.1098 7.425C46.0931 7.44167 46.0681 7.43333 46.0348 7.4L45.6598 7.1C45.3931 6.86667 45.0848 6.73333 44.7348 6.7C44.6681 6.68333 44.6014 6.675 44.5348 6.675C44.4681 6.675 44.3931 6.66667 44.3098 6.65C44.0931 6.65 43.9181 6.70833 43.7848 6.825L43.6098 7C43.4598 7.16667 43.3014 7.33333 43.1348 7.5C42.9848 7.66667 42.8348 7.83333 42.6848 8C42.5681 8.11667 42.4681 8.25 42.3848 8.4C42.3014 8.55 42.2181 8.7 42.1348 8.85C41.8681 9.36667 41.6681 9.91667 41.5348 10.5C41.5181 10.6 41.5014 10.7 41.4848 10.8C41.4681 10.8833 41.4514 10.9667 41.4348 11.05C41.4348 11.1333 41.4348 11.2167 41.4348 11.3C41.4348 11.3833 41.4431 11.4667 41.4598 11.55C41.4764 11.6167 41.4848 11.6833 41.4848 11.75C41.4848 11.8 41.4931 11.8583 41.5098 11.925L41.5848 12.525C41.6014 12.625 41.6181 12.7333 41.6348 12.85C41.6681 12.95 41.6931 13.05 41.7098 13.15C41.8764 13.8 42.0764 14.4583 42.3098 15.125C42.3931 15.375 42.4931 15.5917 42.6098 15.775L42.7598 16C42.8098 16.0667 42.8598 16.1333 42.9098 16.2C42.9598 16.25 43.0098 16.3 43.0598 16.35C43.1598 16.4167 43.2431 16.4583 43.3098 16.475C43.5598 16.525 43.8181 16.55 44.0848 16.55C44.4181 16.5167 44.7014 16.4083 44.9348 16.225C45.0514 16.1417 45.1514 16.05 45.2348 15.95C45.3348 15.85 45.4264 15.7417 45.5098 15.625C45.7098 15.3917 45.8848 15.1417 46.0348 14.875C46.0848 14.775 46.0764 14.675 46.0098 14.575C45.9098 14.4083 45.7848 14.275 45.6348 14.175C45.4514 14.0417 45.2598 13.9333 45.0598 13.85C44.8764 13.75 44.6681 13.6917 44.4348 13.675L44.3098 13.625C44.1764 13.575 44.0348 13.575 43.8848 13.625C43.7681 13.675 43.6431 13.7 43.5098 13.7C43.3931 13.6833 43.2681 13.6667 43.1348 13.65C42.8348 13.5667 42.5764 13.4333 42.3598 13.25C42.2931 13.1667 42.2348 13.0833 42.1848 13C42.1514 12.9167 42.1098 12.8417 42.0598 12.775C42.0598 12.7417 42.0514 12.7083 42.0348 12.675C42.0348 12.6417 42.0431 12.6167 42.0598 12.6C42.0598 12.5167 42.0598 12.4333 42.0598 12.35C42.0764 12.2667 42.0931 12.1833 42.1098 12.1C42.1098 12.0833 42.1264 12.025 42.1598 11.925C42.1931 11.8417 42.2348 11.7667 42.2848 11.7C42.3514 11.6167 42.4181 11.5417 42.4848 11.475C42.7514 11.225 43.0431 11.0667 43.3598 11C43.5431 10.95 43.7264 10.9167 43.9098 10.9C44.0931 10.8667 44.2681 10.8417 44.4348 10.825H46.5348C46.6681 10.825 46.8098 10.825 46.9598 10.825C47.1098 10.825 47.2598 10.8167 47.4098 10.8C47.5431 10.7833 47.6681 10.775 47.7848 10.775C47.9181 10.775 48.0514 10.775 48.1848 10.775C48.3348 10.775 48.4681 10.8 48.5848 10.85C48.7681 10.9 48.9098 11.0083 49.0098 11.175C49.0598 11.2417 49.1098 11.3167 49.1598 11.4C49.2098 11.4833 49.2431 11.5667 49.2598 11.65C49.2764 11.6667 49.2848 11.6917 49.2848 11.725C49.2848 11.7417 49.2931 11.7667 49.3098 11.8L49.4848 12.725C49.5181 12.8583 49.5431 13 49.5598 13.15C49.5764 13.3 49.5931 13.45 49.6098 13.6C49.6098 13.6833 49.6098 13.775 49.6098 13.875C49.6264 13.9583 49.6348 14.0417 49.6348 14.125C49.6348 14.1917 49.6348 14.2667 49.6348 14.35C49.6514 14.4333 49.6598 14.5167 49.6598 14.6V15.75C49.6598 15.8667 49.6598 16 49.6598 16.15C49.6764 16.2833 49.6931 16.4167 49.7098 16.55C49.7264 16.6167 49.7348 16.6833 49.7348 16.75C49.7348 16.8167 49.7348 16.8917 49.7348 16.975C49.7181 17.1417 49.7264 17.3167 49.7598 17.5C49.7931 17.6667 49.8181 17.8417 49.8348 18.025C49.8514 18.1083 49.8681 18.2 49.8848 18.3C49.9181 18.3833 49.9431 18.475 49.9598 18.575C49.9764 18.6417 49.9848 18.7167 49.9848 18.8C50.0014 18.8667 50.0098 18.9417 50.0098 19.025C50.0098 19.0917 50.0014 19.1583 49.9848 19.225C49.9848 19.3083 49.9598 19.3833 49.9098 19.45C49.8764 19.4833 49.8431 19.5333 49.8098 19.6C49.7431 19.7833 49.6014 19.9333 49.3848 20.05C49.2181 20.1167 49.0431 20.1667 48.8598 20.2C48.7098 20.2 48.5848 20.225 48.4848 20.275ZM54.3678 19.075C54.2344 19.125 54.0844 19.1083 53.9178 19.025L53.4178 18.8C53.3344 18.7667 53.2678 18.6917 53.2178 18.575L53.1428 18.425C53.1094 18.3417 53.0678 18.2833 53.0178 18.25C52.9344 18.1833 52.8761 18.0667 52.8428 17.9C52.8094 17.7333 52.7844 17.5667 52.7678 17.4C52.7511 17.2333 52.7344 17.0667 52.7178 16.9C52.7011 16.7667 52.6928 16.6333 52.6928 16.5C52.6928 16.3667 52.6928 16.2417 52.6928 16.125L52.7178 15.95C52.7511 15.8667 52.7678 15.7833 52.7678 15.7C52.7678 15.6167 52.7678 15.5417 52.7678 15.475V10.925C52.8011 10.6917 52.8178 10.4583 52.8178 10.225C52.8178 9.975 52.8178 9.73333 52.8178 9.5C52.8344 9.26667 52.8428 9.04167 52.8428 8.825C52.8428 8.59167 52.8261 8.36667 52.7928 8.15C52.7761 8.06667 52.7678 7.975 52.7678 7.875C52.7678 7.775 52.7678 7.675 52.7678 7.575C52.7678 7.425 52.7678 7.275 52.7678 7.125C52.7678 6.975 52.7511 6.825 52.7178 6.675V6.6C52.7178 6.36667 52.7011 6.14167 52.6678 5.925C52.6511 5.69167 52.6344 5.46667 52.6178 5.25C52.6011 5.11667 52.5844 4.99167 52.5678 4.875C52.5511 4.75833 52.5261 4.64167 52.4928 4.525C52.4761 4.45833 52.4678 4.39167 52.4678 4.325C52.4678 4.25833 52.4678 4.19167 52.4678 4.125C52.4678 4.00833 52.4844 3.9 52.5178 3.8C52.5511 3.68333 52.5844 3.575 52.6178 3.475C52.6344 3.44167 52.6761 3.39167 52.7428 3.325C52.7761 3.29167 52.8094 3.26667 52.8428 3.25C52.8761 3.23333 52.9011 3.21667 52.9178 3.2C53.0178 3.06667 53.1511 3.00833 53.3178 3.025C53.3511 3.04167 53.4011 3.03333 53.4678 3C53.5511 2.93333 53.6261 2.925 53.6928 2.975C53.7428 3.00833 53.8261 3.00833 53.9428 2.975C53.9928 2.975 54.0344 2.99167 54.0678 3.025C54.1178 3.09167 54.1844 3.14167 54.2678 3.175C54.3511 3.20833 54.4094 3.25833 54.4428 3.325C54.4928 3.375 54.5428 3.425 54.5928 3.475C54.6261 3.525 54.6594 3.575 54.6928 3.625C54.7428 3.65833 54.7678 3.70833 54.7678 3.775C54.7844 3.84167 54.7844 3.90833 54.7678 3.975C54.7678 4.025 54.7678 4.08333 54.7678 4.15C54.7678 4.3 54.7761 4.45833 54.7928 4.625C54.8261 4.775 54.8511 4.925 54.8678 5.075C54.9011 5.24167 54.9261 5.41667 54.9428 5.6C54.9594 5.76667 54.9761 5.94167 54.9928 6.125V6.375C55.0261 6.49167 55.0428 6.60833 55.0428 6.725C55.0428 6.84167 55.0511 6.95833 55.0678 7.075V7.1C55.0844 7.3 55.1011 7.5 55.1178 7.7C55.1344 7.9 55.1511 8.1 55.1678 8.3C55.1844 8.38333 55.1928 8.475 55.1928 8.575C55.1928 8.65833 55.1928 8.74167 55.1928 8.825V15.475C55.1928 15.625 55.2011 15.775 55.2178 15.925C55.2511 16.075 55.2761 16.2167 55.2928 16.35C55.2928 16.4333 55.3428 16.475 55.4428 16.475C55.5928 16.5083 55.7344 16.5083 55.8678 16.475C56.0511 16.4417 56.2261 16.425 56.3928 16.425C56.5761 16.425 56.7594 16.425 56.9428 16.425C57.1261 16.425 57.3011 16.425 57.4678 16.425C57.6511 16.4083 57.8261 16.3917 57.9928 16.375H58.2678C58.4011 16.3917 58.5178 16.4083 58.6178 16.425C58.7344 16.425 58.8511 16.425 58.9678 16.425C59.1511 16.425 59.3344 16.4333 59.5178 16.45C59.7178 16.45 59.9094 16.4583 60.0928 16.475C60.2261 16.4917 60.3594 16.5 60.4928 16.5C60.6428 16.5 60.7928 16.5 60.9428 16.5H61.0678C61.4011 16.4833 61.7011 16.5667 61.9678 16.75C62.0844 16.8 62.1678 16.8833 62.2178 17C62.2511 17.0667 62.2761 17.1333 62.2928 17.2C62.3261 17.25 62.3511 17.3167 62.3678 17.4C62.3844 17.4667 62.3928 17.5333 62.3928 17.6C62.4094 17.65 62.4261 17.7083 62.4428 17.775C62.4928 17.925 62.4761 18.0917 62.3928 18.275C62.3761 18.325 62.3594 18.375 62.3428 18.425C62.3261 18.475 62.3011 18.525 62.2678 18.575C62.2344 18.625 62.1928 18.6667 62.1428 18.7C62.1428 18.7 62.1094 18.7167 62.0428 18.75C61.9094 18.8667 61.7594 18.9417 61.5928 18.975C61.4428 19.0083 61.2761 19.0417 61.0928 19.075L60.8428 19.05C60.5928 18.9667 60.3428 18.9167 60.0928 18.9C60.0261 18.8833 59.9511 18.875 59.8678 18.875C59.7844 18.8583 59.7011 18.85 59.6178 18.85C59.5011 18.85 59.3844 18.85 59.2678 18.85C59.1511 18.8333 59.0261 18.8167 58.8928 18.8L58.6428 18.775C58.4928 18.7917 58.3428 18.8 58.1928 18.8C58.0428 18.7833 57.8928 18.7833 57.7428 18.8C57.6761 18.8 57.6094 18.8 57.5428 18.8C57.4761 18.7833 57.4094 18.775 57.3428 18.775C57.2094 18.775 57.0761 18.775 56.9428 18.775C56.8261 18.775 56.7011 18.7917 56.5678 18.825C56.5011 18.8417 56.4178 18.8583 56.3178 18.875C56.2344 18.875 56.1511 18.875 56.0678 18.875C55.8178 18.8917 55.5678 18.9167 55.3178 18.95C55.0678 18.9667 54.8261 19 54.5928 19.05C54.5428 19.0667 54.4678 19.075 54.3678 19.075ZM69.6336 19.5C69.4669 19.4833 69.3003 19.4583 69.1336 19.425C68.9836 19.4083 68.8336 19.3667 68.6836 19.3L68.0586 19.075C67.8419 18.9917 67.6419 18.9 67.4586 18.8C67.2753 18.6833 67.0919 18.5667 66.9086 18.45C66.8253 18.3667 66.7419 18.2917 66.6586 18.225C66.5753 18.1417 66.4919 18.0667 66.4086 18C66.2753 17.8667 66.1419 17.7333 66.0086 17.6C65.8753 17.45 65.7503 17.2917 65.6336 17.125L65.0336 16.2C64.8836 15.9667 64.7503 15.725 64.6336 15.475C64.5169 15.2083 64.4169 14.9417 64.3336 14.675C64.1503 14.175 64.0586 13.6833 64.0586 13.2V12.8C64.0586 12.3833 64.0836 11.975 64.1336 11.575C64.1669 11.2417 64.2419 10.9417 64.3586 10.675C64.4253 10.5083 64.4836 10.3417 64.5336 10.175C64.5836 10.0083 64.6419 9.85 64.7086 9.7L64.7836 9.525C64.8169 9.30833 64.8919 9.11667 65.0086 8.95C65.1253 8.76667 65.2253 8.59167 65.3086 8.425C65.3753 8.29167 65.4503 8.175 65.5336 8.075C65.6169 7.95833 65.6919 7.84167 65.7586 7.725C65.7919 7.675 65.8336 7.63333 65.8836 7.6C65.9336 7.55 65.9753 7.5 66.0086 7.45C66.0419 7.41667 66.0669 7.375 66.0836 7.325C66.1169 7.25833 66.1419 7.2 66.1586 7.15C66.1919 7.1 66.2503 7.03333 66.3336 6.95C66.4336 6.9 66.5253 6.78333 66.6086 6.6C66.6419 6.53333 66.6753 6.48333 66.7086 6.45C66.8086 6.36667 66.8919 6.26667 66.9586 6.15C67.0419 6.03333 67.1336 5.925 67.2336 5.825C67.3003 5.75833 67.3336 5.66667 67.3336 5.55C67.3336 5.46667 67.3336 5.39167 67.3336 5.325C67.3503 5.24167 67.3503 5.16667 67.3336 5.1C67.3169 5.01667 67.3419 4.94167 67.4086 4.875C67.4419 4.84167 67.4669 4.8 67.4836 4.75C67.5003 4.7 67.5169 4.65 67.5336 4.6C67.5836 4.43333 67.7169 4.29167 67.9336 4.175C67.9669 4.14167 68.0086 4.125 68.0586 4.125C68.1253 4.10833 68.1836 4.09167 68.2336 4.075C68.3503 4.025 68.4836 4.01667 68.6336 4.05C68.7003 4.06667 68.7586 4.075 68.8086 4.075C68.8586 4.05833 68.9086 4.04167 68.9586 4.025C69.0253 3.99167 69.0836 3.96667 69.1336 3.95C69.2003 3.93333 69.2586 3.91667 69.3086 3.9C69.5419 3.81667 69.7836 3.825 70.0336 3.925C70.3003 4.025 70.4919 4.2 70.6086 4.45C70.6419 4.53333 70.6753 4.61667 70.7086 4.7C70.7419 4.78333 70.7669 4.86667 70.7836 4.95C70.8169 5.13333 70.8086 5.29167 70.7586 5.425C70.7253 5.49167 70.7086 5.53333 70.7086 5.55C70.6919 5.61667 70.7086 5.675 70.7586 5.725C70.7919 5.775 70.8336 5.81667 70.8836 5.85C71.0669 6.01667 71.2419 6.18333 71.4086 6.35C71.5753 6.5 71.7336 6.66667 71.8836 6.85C72.0169 6.98333 72.1253 7.125 72.2086 7.275C72.3086 7.40833 72.4003 7.55833 72.4836 7.725C72.5169 7.80833 72.5586 7.9 72.6086 8C72.6586 8.08333 72.7086 8.16667 72.7586 8.25C72.8419 8.4 72.9086 8.55833 72.9586 8.725C73.0253 8.89167 73.0919 9.05833 73.1586 9.225V9.25C73.1919 9.36667 73.2169 9.49167 73.2336 9.625C73.2669 9.74167 73.3169 9.86667 73.3836 10C73.4336 10.1167 73.4753 10.2417 73.5086 10.375C73.5419 10.4917 73.5753 10.6167 73.6086 10.75C73.6419 10.9 73.6753 11.05 73.7086 11.2C73.7586 11.35 73.7919 11.5 73.8086 11.65C73.8253 11.7167 73.8419 11.7833 73.8586 11.85C73.8753 11.9 73.8919 11.9583 73.9086 12.025C73.9419 12.175 73.9753 12.325 74.0086 12.475C74.0419 12.625 74.0669 12.775 74.0836 12.925L74.1586 13.1C74.1919 13.2 74.2253 13.3333 74.2586 13.5C74.3086 13.7167 74.3336 13.9333 74.3336 14.15C74.3503 14.3667 74.3503 14.5917 74.3336 14.825C74.3336 14.9417 74.3253 15.0333 74.3086 15.1C74.2086 15.45 74.0836 15.8083 73.9336 16.175C73.8669 16.2917 73.8003 16.4083 73.7336 16.525C73.6669 16.625 73.6003 16.7333 73.5336 16.85L73.3086 17.2C73.2253 17.35 73.1336 17.4833 73.0336 17.6C72.8669 17.8667 72.6669 18.1 72.4336 18.3C72.2003 18.5 71.9503 18.6917 71.6836 18.875C71.1003 19.325 70.4169 19.5333 69.6336 19.5ZM69.5336 17.025C69.8836 17.025 70.1836 16.925 70.4336 16.725C70.5169 16.6417 70.6003 16.5667 70.6836 16.5C70.7836 16.4167 70.8669 16.3333 70.9336 16.25C71.2503 15.9 71.5003 15.5333 71.6836 15.15L71.7586 14.9C71.7919 14.6 71.7919 14.3 71.7586 14L71.6086 13.175C71.5586 12.9583 71.5169 12.75 71.4836 12.55C71.4503 12.3333 71.4003 12.125 71.3336 11.925C71.2836 11.8083 71.2669 11.7167 71.2836 11.65C71.3003 11.5667 71.3003 11.4833 71.2836 11.4C71.2669 11.3167 71.2419 11.2333 71.2086 11.15C71.1586 10.9333 71.1003 10.7167 71.0336 10.5C70.9669 10.2833 70.9003 10.0667 70.8336 9.85C70.8169 9.8 70.8003 9.75 70.7836 9.7C70.7669 9.65 70.7503 9.6 70.7336 9.55C70.6169 9.31667 70.4919 9.09167 70.3586 8.875C70.2253 8.65833 70.0753 8.45833 69.9086 8.275C69.8253 8.175 69.7336 8.08333 69.6336 8C69.5336 7.9 69.4336 7.80833 69.3336 7.725C69.3169 7.69167 69.2919 7.675 69.2586 7.675C69.2419 7.65833 69.2169 7.64167 69.1836 7.625C69.1336 7.55833 69.0669 7.56667 68.9836 7.65C68.9003 7.73333 68.8086 7.825 68.7086 7.925C68.6253 8.025 68.5419 8.125 68.4586 8.225C68.3753 8.34167 68.2836 8.45833 68.1836 8.575C68.1003 8.69167 68.0169 8.80833 67.9336 8.925C67.8169 9.075 67.7086 9.225 67.6086 9.375C67.5086 9.525 67.4086 9.675 67.3086 9.825C66.9586 10.3917 66.6836 11.0167 66.4836 11.7C66.4503 11.8 66.4336 11.875 66.4336 11.925C66.4169 12.0417 66.4003 12.1583 66.3836 12.275C66.3836 12.3917 66.3836 12.5167 66.3836 12.65V12.85C66.4003 12.9 66.4086 12.95 66.4086 13C66.4086 13.05 66.4169 13.1 66.4336 13.15C66.4336 13.35 66.4836 13.5667 66.5836 13.8C66.7169 14.1333 66.8669 14.4583 67.0336 14.775C67.2003 15.0917 67.3919 15.3917 67.6086 15.675C67.6586 15.7417 67.7086 15.8083 67.7586 15.875C67.8253 15.9417 67.8836 16.0083 67.9336 16.075C68.0836 16.2417 68.2419 16.3917 68.4086 16.525C68.5919 16.6583 68.7753 16.775 68.9586 16.875C69.1586 16.975 69.3503 17.025 69.5336 17.025ZM90.0779 19.25C89.9779 19.2333 89.8779 19.225 89.7779 19.225C89.6779 19.225 89.5863 19.2 89.5029 19.15C89.3696 19.1 89.2613 19.0417 89.1779 18.975C89.0113 18.825 88.8613 18.65 88.7279 18.45C88.7113 18.4167 88.6946 18.375 88.6779 18.325C88.6613 18.275 88.6363 18.2333 88.6029 18.2C88.5363 18.05 88.4696 17.9 88.4029 17.75C88.3363 17.6 88.2613 17.45 88.1779 17.3C88.0946 17.15 88.0113 17 87.9279 16.85C87.8446 16.7 87.7613 16.55 87.6779 16.4C87.5946 16.25 87.5113 16.1 87.4279 15.95C87.3446 15.8 87.2696 15.6417 87.2029 15.475L87.0529 15.225C86.9863 15.1083 86.9196 14.9917 86.8529 14.875C86.7863 14.7583 86.7363 14.6417 86.7029 14.525C86.6863 14.475 86.6446 14.4 86.5779 14.3L86.3529 13.925C86.3029 13.8083 86.2446 13.6917 86.1779 13.575C86.1279 13.4583 86.0613 13.35 85.9779 13.25L85.8279 13.025C85.5613 12.5917 85.3113 12.1417 85.0779 11.675C85.0279 11.575 84.9696 11.475 84.9029 11.375C84.8529 11.275 84.7946 11.175 84.7279 11.075C84.7113 11.0083 84.6779 10.95 84.6279 10.9C84.5946 10.85 84.5613 10.8 84.5279 10.75C84.4946 10.7 84.4529 10.7 84.4029 10.75C84.3863 10.8 84.3696 10.85 84.3529 10.9C84.3363 10.9333 84.3196 10.975 84.3029 11.025C84.2363 11.2083 84.1779 11.3917 84.1279 11.575C84.0779 11.7583 84.0279 11.9417 83.9779 12.125C83.9446 12.2917 83.9029 12.45 83.8529 12.6C83.8029 12.75 83.7613 12.9 83.7279 13.05C83.7113 13.1667 83.6946 13.2833 83.6779 13.4C83.6613 13.5 83.6363 13.6 83.6029 13.7C83.6029 13.75 83.5946 13.8 83.5779 13.85C83.5779 13.8833 83.5696 13.925 83.5529 13.975C83.4863 14.225 83.4363 14.4833 83.4029 14.75C83.3863 15 83.3613 15.2583 83.3279 15.525V15.675C83.3446 15.7417 83.3446 15.8 83.3279 15.85C83.3279 15.9 83.3196 15.95 83.3029 16C83.2529 16.1333 83.2446 16.2833 83.2779 16.45C83.2946 16.5167 83.3029 16.5833 83.3029 16.65C83.3196 16.7167 83.3196 16.7833 83.3029 16.85C83.2863 17.0167 83.2696 17.1833 83.2529 17.35C83.2529 17.5 83.2529 17.65 83.2529 17.8C83.2529 17.95 83.2279 18.1 83.1779 18.25C83.1446 18.3167 83.1029 18.3583 83.0529 18.375C82.9863 18.4417 82.9446 18.5 82.9279 18.55C82.9113 18.6167 82.8696 18.6667 82.8029 18.7C82.7529 18.7333 82.7113 18.7667 82.6779 18.8C82.6613 18.8167 82.6363 18.825 82.6029 18.825C82.5529 18.825 82.5196 18.8333 82.5029 18.85C82.4529 18.8667 82.4029 18.8833 82.3529 18.9C82.3196 18.9167 82.2863 18.9333 82.2529 18.95C82.2029 18.95 82.1446 18.95 82.0779 18.95C82.0279 18.9333 81.9779 18.925 81.9279 18.925C81.7446 18.9083 81.6113 18.8833 81.5279 18.85C81.4446 18.8167 81.3279 18.7083 81.1779 18.525C81.1613 18.475 81.1363 18.4333 81.1029 18.4C81.0696 18.35 81.0363 18.3 81.0029 18.25C80.8863 18.1 80.8113 17.9333 80.7779 17.75C80.7613 17.5167 80.7113 17.2833 80.6279 17.05C80.5613 16.8167 80.4779 16.5917 80.3779 16.375C80.3613 16.3083 80.3363 16.2417 80.3029 16.175C80.2863 16.1083 80.2613 16.05 80.2279 16C80.1113 15.7333 79.9946 15.475 79.8779 15.225C79.7779 14.9583 79.6696 14.6917 79.5529 14.425C79.5363 14.4083 79.5279 14.3917 79.5279 14.375C79.5279 14.3583 79.5196 14.3417 79.5029 14.325C79.4029 14.175 79.3113 14.025 79.2279 13.875C79.1613 13.7083 79.0863 13.5417 79.0029 13.375C78.9196 13.1917 78.8113 13 78.6779 12.8C78.6446 12.7167 78.6029 12.6417 78.5529 12.575C78.5196 12.5083 78.4863 12.4417 78.4529 12.375C78.4363 12.3417 78.4196 12.3 78.4029 12.25C78.4029 12.2 78.3863 12.1583 78.3529 12.125C78.2196 11.9417 78.1029 11.7417 78.0029 11.525C77.9196 11.3083 77.8196 11.1 77.7029 10.9L77.4279 10.45C77.3779 10.3667 77.3196 10.2833 77.2529 10.2C77.2029 10.1167 77.1529 10.0417 77.1029 9.975C77.0529 9.89167 77.0029 9.825 76.9529 9.775C76.9029 9.70833 76.8613 9.64167 76.8279 9.575C76.7613 9.475 76.6946 9.38333 76.6279 9.3C76.5613 9.2 76.5029 9.10833 76.4529 9.025C76.3863 8.925 76.3196 8.83333 76.2529 8.75C76.1863 8.65 76.1196 8.55833 76.0529 8.475C75.9363 8.29167 75.8446 8.11667 75.7779 7.95C75.7613 7.86667 75.7613 7.79167 75.7779 7.725C75.8113 7.59167 75.8363 7.46667 75.8529 7.35C75.8863 7.21667 75.9196 7.09167 75.9529 6.975L76.0279 6.875C76.0946 6.80833 76.1529 6.75 76.2029 6.7C76.2696 6.65 76.3363 6.6 76.4029 6.55C76.4696 6.51667 76.5113 6.5 76.5279 6.5C76.7113 6.43333 76.8863 6.4 77.0529 6.4C77.2196 6.4 77.3863 6.44167 77.5529 6.525C77.6363 6.55833 77.7196 6.6 77.8029 6.65C77.9863 6.75 78.1029 6.88333 78.1529 7.05C78.1863 7.13333 78.2196 7.21667 78.2529 7.3C78.3029 7.38333 78.3363 7.46667 78.3529 7.55C78.4863 7.9 78.6696 8.23333 78.9029 8.55C79.0363 8.73333 79.1779 8.94167 79.3279 9.175C79.3613 9.19167 79.3863 9.21667 79.4029 9.25C79.4196 9.28333 79.4363 9.30833 79.4529 9.325C79.5529 9.44167 79.6446 9.575 79.7279 9.725C79.8113 9.875 79.8863 10.0167 79.9529 10.15C80.0196 10.2667 80.0696 10.3833 80.1029 10.5C80.1529 10.6 80.2029 10.7083 80.2529 10.825C80.3863 11.125 80.5113 11.425 80.6279 11.725C80.7446 12.025 80.8613 12.3167 80.9779 12.6C81.0113 12.7 81.0529 12.7917 81.1029 12.875C81.1529 12.9583 81.1946 13.05 81.2279 13.15C81.2279 13.15 81.2279 13.1583 81.2279 13.175C81.2446 13.175 81.2529 13.1667 81.2529 13.15C81.2863 13.15 81.3029 13.1417 81.3029 13.125C81.3863 12.9917 81.4363 12.8667 81.4529 12.75L81.6779 11.95C81.7113 11.85 81.7446 11.75 81.7779 11.65C81.8113 11.55 81.8446 11.4417 81.8779 11.325C81.9779 11.0917 82.0529 10.8583 82.1029 10.625C82.1196 10.4917 82.1696 10.35 82.2529 10.2C82.3029 10.1167 82.3279 10.025 82.3279 9.925L82.4029 9.675C82.5029 9.375 82.6029 9.075 82.7029 8.775C82.8029 8.475 82.9196 8.19167 83.0529 7.925C83.1029 7.825 83.1529 7.73333 83.2029 7.65C83.2529 7.55 83.3029 7.45833 83.3529 7.375C83.3863 7.30833 83.4279 7.25 83.4779 7.2C83.5279 7.15 83.5863 7.11667 83.6529 7.1C83.7196 7.01667 83.7946 6.96667 83.8779 6.95C83.9613 6.93333 84.0363 6.9 84.1029 6.85C84.1196 6.83333 84.1613 6.825 84.2279 6.825C84.2779 6.825 84.3363 6.84167 84.4029 6.875C84.4863 6.90833 84.5613 6.9 84.6279 6.85C84.7113 6.78333 84.7863 6.8 84.8529 6.9C84.8863 6.96667 84.9279 7.025 84.9779 7.075C85.0446 7.10833 85.1029 7.14167 85.1529 7.175C85.1863 7.20833 85.2196 7.24167 85.2529 7.275C85.3029 7.30833 85.3363 7.35 85.3529 7.4L86.1779 8.825C86.2613 8.95833 86.3446 9.1 86.4279 9.25C86.5113 9.38333 86.5863 9.525 86.6529 9.675C86.7196 9.75833 86.7696 9.85 86.8029 9.95C86.8529 10.05 86.9029 10.1583 86.9529 10.275C87.0529 10.5417 87.1946 10.8083 87.3779 11.075C87.4113 11.125 87.4446 11.175 87.4779 11.225C87.5113 11.275 87.5363 11.325 87.5529 11.375C87.6363 11.575 87.7279 11.775 87.8279 11.975C87.9446 12.175 88.0529 12.3833 88.1529 12.6C88.1696 12.6333 88.1863 12.675 88.2029 12.725C88.2363 12.775 88.2613 12.8167 88.2779 12.85C88.3613 13.0667 88.4613 13.2833 88.5779 13.5C88.6946 13.7 88.8113 13.9 88.9279 14.1C88.9446 14.1333 88.9863 14.1833 89.0529 14.25C89.0529 14.25 89.0613 14.25 89.0779 14.25C89.0946 14.25 89.1029 14.2417 89.1029 14.225C89.1196 14.2083 89.1446 14.1667 89.1779 14.1C89.2279 13.95 89.2779 13.8083 89.3279 13.675C89.3779 13.525 89.4113 13.375 89.4279 13.225C89.4613 13.0917 89.4946 12.9833 89.5279 12.9C89.6113 12.6333 89.6863 12.375 89.7529 12.125C89.8196 11.8583 89.8863 11.5917 89.9529 11.325C89.9863 11.225 90.0196 11.125 90.0529 11.025C90.0863 10.9083 90.1196 10.8 90.1529 10.7C90.2529 10.35 90.3529 10.0083 90.4529 9.675C90.5529 9.325 90.6446 8.975 90.7279 8.625L91.0279 7.375C91.0613 7.275 91.0613 7.175 91.0279 7.075C90.9946 6.99167 91.0029 6.925 91.0529 6.875C91.1196 6.79167 91.1696 6.7 91.2029 6.6C91.2363 6.5 91.2696 6.40833 91.3029 6.325C91.3529 6.15833 91.4196 5.975 91.5029 5.775C91.5196 5.725 91.5446 5.675 91.5779 5.625C91.6113 5.575 91.6363 5.525 91.6529 5.475C91.7196 5.375 91.7946 5.31667 91.8779 5.3C91.9279 5.26667 91.9779 5.24167 92.0279 5.225C92.0779 5.19167 92.1279 5.16667 92.1779 5.15C92.1946 5.13333 92.2113 5.125 92.2279 5.125C92.2613 5.125 92.2863 5.11667 92.3029 5.1C92.3863 5.06667 92.4696 5.05 92.5529 5.05C92.6529 5.03333 92.7363 5 92.8029 4.95C92.9029 4.88333 93.0196 4.89167 93.1529 4.975C93.2863 5.075 93.3946 5.16667 93.4779 5.25C93.5779 5.35 93.6446 5.5 93.6779 5.7C93.6946 5.75 93.7029 5.8 93.7029 5.85C93.7029 5.9 93.7029 5.95 93.7029 6C93.6696 6.36667 93.5946 6.725 93.4779 7.075C93.4446 7.175 93.4113 7.28333 93.3779 7.4C93.3446 7.5 93.3113 7.6 93.2779 7.7C93.2779 7.71667 93.2696 7.74167 93.2529 7.775C93.2529 7.79167 93.2529 7.81667 93.2529 7.85C93.2363 8.11667 93.1946 8.38333 93.1279 8.65C93.0613 8.91667 92.9863 9.175 92.9029 9.425C92.8363 9.64167 92.7779 9.85833 92.7279 10.075C92.6779 10.2917 92.6196 10.5083 92.5529 10.725C92.5363 10.7583 92.5196 10.8083 92.5029 10.875C92.5029 10.925 92.4863 10.9667 92.4529 11C92.4029 11.1 92.3696 11.2083 92.3529 11.325C92.3363 11.425 92.3113 11.5333 92.2779 11.65C92.2613 11.7167 92.2446 11.7833 92.2279 11.85C92.2279 11.9 92.2113 11.9583 92.1779 12.025C92.1279 12.2083 92.0779 12.4 92.0279 12.6C91.9779 12.7833 91.9363 12.9667 91.9029 13.15L91.6779 14C91.6613 14.0667 91.6446 14.1333 91.6279 14.2C91.6279 14.25 91.6196 14.3083 91.6029 14.375C91.6029 14.425 91.5946 14.475 91.5779 14.525C91.5779 14.575 91.5696 14.6333 91.5529 14.7C91.5363 14.8 91.5113 14.9083 91.4779 15.025C91.4613 15.125 91.4446 15.2333 91.4279 15.35C91.4113 15.4667 91.3946 15.5833 91.3779 15.7C91.3613 15.8 91.3446 15.9167 91.3279 16.05C91.3279 16.1167 91.3196 16.1833 91.3029 16.25C91.3029 16.3167 91.3029 16.3917 91.3029 16.475L91.2279 17C91.2279 17.1667 91.2196 17.325 91.2029 17.475C91.1863 17.625 91.1613 17.7833 91.1279 17.95C91.1113 17.9833 91.1029 18.025 91.1029 18.075C91.1029 18.125 91.1029 18.1667 91.1029 18.2C91.1029 18.35 91.0696 18.4667 91.0029 18.55C90.9863 18.6 90.9613 18.65 90.9279 18.7C90.8946 18.75 90.8613 18.8 90.8279 18.85L90.7029 18.975C90.6529 18.9917 90.6029 19.0167 90.5529 19.05C90.5029 19.1 90.4529 19.1417 90.4029 19.175C90.3029 19.225 90.1946 19.25 90.0779 19.25Z" fill="#353535"/>
</svg>
