<svg width="93" height="28" viewBox="0 0 93 28" fill="none" xmlns="http://www.w3.org/2000/svg">
<path d="M3.55293 27.25C3.3696 27.3 3.21126 27.2333 3.07793 27.05L3.00293 26.85C2.9696 26.7167 2.93626 26.575 2.90293 26.425C2.8696 26.275 2.8446 26.1333 2.82793 26L2.75293 25.5C2.73626 25.4167 2.7196 25.325 2.70293 25.225C2.70293 25.1417 2.6946 25.0583 2.67793 24.975C2.67793 24.875 2.6696 24.775 2.65293 24.675C2.65293 24.5917 2.6446 24.5 2.62793 24.4C2.62793 24.3167 2.62793 24.2333 2.62793 24.15C2.62793 24.0833 2.6196 24.0083 2.60293 23.925C2.60293 23.8583 2.60293 23.7917 2.60293 23.725C2.60293 23.6583 2.5946 23.5917 2.57793 23.525C2.57793 23.4417 2.5696 23.35 2.55293 23.25C2.55293 23.1667 2.55293 23.0833 2.55293 23C2.53626 22.8833 2.52793 22.7667 2.52793 22.65C2.52793 22.5333 2.5196 22.4167 2.50293 22.3L2.42793 21.625V21.4C2.4446 21.2833 2.45293 21.1667 2.45293 21.05C2.45293 20.95 2.46126 20.8417 2.47793 20.725V20.525C2.4946 20.375 2.48626 20.225 2.45293 20.075C2.43626 19.9417 2.4446 19.8 2.47793 19.65C2.47793 19.5167 2.4696 19.375 2.45293 19.225C2.45293 19.075 2.45293 18.9333 2.45293 18.8C2.45293 18.7 2.46126 18.625 2.47793 18.575C2.4946 18.3917 2.48626 18.2083 2.45293 18.025C2.43626 17.8583 2.42793 17.6917 2.42793 17.525C2.42793 17.4583 2.4196 17.4083 2.40293 17.375C2.38626 17.325 2.36126 17.275 2.32793 17.225C2.21126 17.0583 2.15293 16.8583 2.15293 16.625C2.15293 16.5083 2.1446 16.4167 2.12793 16.35C2.12793 16.25 2.13626 16.175 2.15293 16.125C2.18626 15.8417 2.17793 15.5833 2.12793 15.35C2.12793 15.2667 2.12793 15.1917 2.12793 15.125C2.12793 15.0417 2.1196 14.9667 2.10293 14.9C2.10293 14.7833 2.10293 14.6667 2.10293 14.55C2.10293 14.4167 2.08626 14.2917 2.05293 14.175V14.15C2.03626 13.9333 2.0196 13.725 2.00293 13.525C2.00293 13.325 1.9946 13.1167 1.97793 12.9V12.775C1.9446 12.5417 1.9196 12.3083 1.90293 12.075C1.90293 11.825 1.87793 11.575 1.82793 11.325C1.81126 11.2417 1.80293 11.1583 1.80293 11.075C1.80293 10.975 1.80293 10.8833 1.80293 10.8C1.80293 10.65 1.7946 10.5083 1.77793 10.375C1.76126 10.225 1.73626 10.075 1.70293 9.925C1.70293 9.85833 1.6946 9.79167 1.67793 9.725C1.67793 9.65833 1.67793 9.59167 1.67793 9.525L1.60293 9C1.58626 8.95 1.5696 8.9 1.55293 8.85C1.55293 8.8 1.55293 8.74167 1.55293 8.675L1.47793 7.9C1.47793 7.83333 1.46126 7.76667 1.42793 7.7C1.41126 7.56667 1.38626 7.43333 1.35293 7.3C1.33626 7.15 1.33626 7.00833 1.35293 6.875C1.35293 6.75833 1.3446 6.66667 1.32793 6.6C1.31126 6.5 1.30293 6.4 1.30293 6.3C1.30293 6.18333 1.30293 6.075 1.30293 5.975C1.30293 5.74167 1.2946 5.50833 1.27793 5.275C1.27793 5.04167 1.28626 4.81667 1.30293 4.6C1.30293 4.45 1.30293 4.30833 1.30293 4.175C1.3196 4.025 1.33626 3.88333 1.35293 3.75V3.5C1.35293 3.36667 1.32793 3.24167 1.27793 3.125C1.2446 3.075 1.21126 3.01667 1.17793 2.95C1.16126 2.9 1.1446 2.85 1.12793 2.8C1.11126 2.73333 1.08626 2.66667 1.05293 2.6C0.969596 2.36667 0.994596 2.13333 1.12793 1.9C1.12793 1.88333 1.12793 1.875 1.12793 1.875C1.1446 1.85833 1.15293 1.84167 1.15293 1.825C1.20293 1.69167 1.2946 1.56667 1.42793 1.45C1.62793 1.3 1.76126 1.11667 1.82793 0.9C1.92793 0.666666 2.07793 0.483333 2.27793 0.349999C2.32793 0.316666 2.3696 0.291666 2.40293 0.274999C2.45293 0.241666 2.50293 0.224999 2.55293 0.224999C2.6196 0.208333 2.6946 0.158333 2.77793 0.0749998C2.7946 0.0583324 2.82793 0.0499986 2.87793 0.0499986L3.37793 0.124999C3.47793 0.124999 3.56126 0.158333 3.62793 0.224999C3.6946 0.291666 3.75293 0.349999 3.80293 0.399999C3.8696 0.449999 3.91126 0.516666 3.92793 0.599999L4.07793 0.749999C4.16126 0.833332 4.2446 0.866665 4.32793 0.849999C4.41126 0.833332 4.48626 0.833332 4.55293 0.849999C4.6196 0.866665 4.68626 0.891665 4.75293 0.924999C4.85293 0.975 4.95293 1.01667 5.05293 1.05C5.1696 1.08333 5.27793 1.11667 5.37793 1.15C5.4446 1.16667 5.50293 1.19167 5.55293 1.225C5.6196 1.25833 5.68626 1.29167 5.75293 1.325C5.95293 1.40833 6.15293 1.5 6.35293 1.6C6.55293 1.68333 6.7446 1.79167 6.92793 1.925C7.12793 2.05833 7.32793 2.2 7.52793 2.35C7.7446 2.48333 7.93626 2.63333 8.10293 2.8L9.22793 3.75C9.32793 3.81667 9.4196 3.9 9.50293 4C9.58626 4.08333 9.6696 4.16667 9.75293 4.25C9.9196 4.41667 10.1029 4.575 10.3029 4.725C10.4363 4.80833 10.5529 4.9 10.6529 5C10.7696 5.1 10.8863 5.2 11.0029 5.3C11.1363 5.41667 11.2613 5.54167 11.3779 5.675C11.4946 5.80833 11.6113 5.94167 11.7279 6.075C11.8779 6.24167 12.0113 6.41667 12.1279 6.6C12.2446 6.78333 12.3363 6.98333 12.4029 7.2L12.6279 7.8C12.7113 8 12.7779 8.20833 12.8279 8.425C12.8779 8.625 12.8946 8.84167 12.8779 9.075V9.45C12.8946 9.65 12.8863 9.85 12.8529 10.05C12.8196 10.25 12.7779 10.4417 12.7279 10.625C12.7113 10.7083 12.6946 10.7917 12.6779 10.875C12.6613 10.9417 12.6446 11.0167 12.6279 11.1C12.5279 11.3833 12.4029 11.6667 12.2529 11.95C12.1863 12.0667 12.1196 12.1917 12.0529 12.325C11.9863 12.4417 11.9113 12.5667 11.8279 12.7C11.7946 12.7667 11.7529 12.825 11.7029 12.875C11.5363 13.0917 11.3529 13.3 11.1529 13.5C10.9696 13.7 10.7696 13.8917 10.5529 14.075C10.4863 14.125 10.4196 14.1833 10.3529 14.25C10.2863 14.3 10.2196 14.3583 10.1529 14.425C10.1363 14.4583 10.1029 14.4917 10.0529 14.525C10.0196 14.5583 9.98626 14.5917 9.95293 14.625C9.85293 14.725 9.75293 14.825 9.65293 14.925C9.5696 15.0083 9.48626 15.1083 9.40293 15.225L9.32793 15.325C9.21126 15.425 9.10293 15.5333 9.00293 15.65C8.90293 15.7667 8.7946 15.875 8.67793 15.975C8.61126 16.0417 8.53626 16.1167 8.45293 16.2C8.3696 16.2667 8.28626 16.3417 8.20293 16.425C8.18626 16.4417 8.1696 16.4583 8.15293 16.475C8.13626 16.4917 8.11126 16.5167 8.07793 16.55C8.06126 16.5833 8.03626 16.6167 8.00293 16.65C7.9696 16.6667 7.93626 16.6917 7.90293 16.725L7.60293 17.025C7.48626 17.1417 7.3696 17.25 7.25293 17.35C7.13626 17.45 7.01126 17.5583 6.87793 17.675C6.86126 17.6917 6.83626 17.7083 6.80293 17.725C6.78626 17.7417 6.7696 17.7667 6.75293 17.8C6.68626 17.8667 6.61126 17.925 6.52793 17.975C6.4446 18.025 6.36126 18.0833 6.27793 18.15C6.22793 18.2 6.1696 18.225 6.10293 18.225C6.00293 18.2583 5.9196 18.275 5.85293 18.275C5.73626 18.275 5.63626 18.325 5.55293 18.425C5.48626 18.4917 5.4196 18.5667 5.35293 18.65C5.28626 18.7333 5.2196 18.8167 5.15293 18.9L4.57793 19.65C4.42793 19.8 4.32793 19.9917 4.27793 20.225C4.26126 20.3417 4.2446 20.4583 4.22793 20.575C4.21126 20.7083 4.18626 20.8417 4.15293 20.975C4.10293 21.175 4.07793 21.3917 4.07793 21.625C4.0946 21.8083 4.08626 21.9833 4.05293 22.15C4.03626 22.3333 4.0196 22.5167 4.00293 22.7V22.85C4.00293 22.9667 4.01126 23.0833 4.02793 23.2C4.0446 23.3333 4.0446 23.4667 4.02793 23.6C4.01126 23.7167 4.00293 23.8333 4.00293 23.95C4.00293 24.0833 4.00293 24.2083 4.00293 24.325C4.00293 24.4417 4.00293 24.55 4.00293 24.65C4.00293 24.75 3.9946 24.85 3.97793 24.95C3.97793 25.0667 3.9696 25.1833 3.95293 25.3C3.95293 25.4333 3.96126 25.5583 3.97793 25.675V25.925C3.97793 25.9917 3.97793 26.0583 3.97793 26.125C3.97793 26.1917 3.9696 26.2667 3.95293 26.35C3.95293 26.4333 3.9446 26.5167 3.92793 26.6C3.92793 26.7 3.9196 26.7917 3.90293 26.875C3.90293 26.8917 3.8946 26.9 3.87793 26.9C3.87793 26.9 3.87793 26.9083 3.87793 26.925C3.82793 27.125 3.7196 27.2333 3.55293 27.25ZM5.70293 14.825C5.73626 14.825 5.7696 14.8083 5.80293 14.775C5.88626 14.7417 5.9696 14.7 6.05293 14.65C6.13626 14.6 6.21126 14.55 6.27793 14.5C6.41126 14.4333 6.55293 14.325 6.70293 14.175C6.88626 13.975 7.07793 13.7833 7.27793 13.6C7.47793 13.4 7.6696 13.2 7.85293 13C8.03626 12.8 8.22793 12.6 8.42793 12.4C8.62793 12.1833 8.8196 11.9833 9.00293 11.8L9.50293 11.275C9.5696 11.2083 9.62793 11.1417 9.67793 11.075C9.72793 10.9917 9.77793 10.9167 9.82793 10.85C9.96126 10.6667 10.0029 10.4583 9.95293 10.225C9.90293 9.85833 9.80293 9.51667 9.65293 9.2C9.60293 9.05 9.5446 8.90833 9.47793 8.775C9.41126 8.625 9.3446 8.48333 9.27793 8.35C9.21126 8.25 9.1696 8.175 9.15293 8.125C9.10293 8.075 9.06126 8.01667 9.02793 7.95C8.92793 7.8 8.8196 7.66667 8.70293 7.55C8.6696 7.51667 8.62793 7.48333 8.57793 7.45C8.5446 7.4 8.51126 7.35 8.47793 7.3C8.41126 7.2 8.3446 7.1 8.27793 7C8.22793 6.9 8.16126 6.80833 8.07793 6.725C7.96126 6.54167 7.87793 6.43333 7.82793 6.4C7.77793 6.35 7.66126 6.26667 7.47793 6.15C7.27793 6.03333 7.11126 5.90833 6.97793 5.775L6.82793 5.625C6.67793 5.50833 6.52793 5.4 6.37793 5.3C6.2446 5.2 6.10293 5.09167 5.95293 4.975C5.78626 4.85833 5.6196 4.75833 5.45293 4.675C5.28626 4.575 5.11126 4.475 4.92793 4.375C4.87793 4.34167 4.8196 4.31667 4.75293 4.3C4.68626 4.28333 4.6196 4.26667 4.55293 4.25C4.48626 4.23333 4.42793 4.25 4.37793 4.3L4.32793 4.425C4.2946 4.49167 4.27793 4.60833 4.27793 4.775L4.35293 5.45C4.38626 5.63333 4.4196 5.81667 4.45293 6C4.50293 6.18333 4.5446 6.36667 4.57793 6.55V6.65C4.61126 6.81667 4.63626 6.99167 4.65293 7.175C4.6696 7.35833 4.6946 7.54167 4.72793 7.725C4.76126 7.875 4.78626 8.025 4.80293 8.175C4.8196 8.325 4.83626 8.475 4.85293 8.625C4.8696 8.75833 4.88626 8.89167 4.90293 9.025C4.93626 9.14167 4.96126 9.26667 4.97793 9.4C5.02793 9.68333 5.0696 9.96667 5.10293 10.25C5.15293 10.5167 5.1946 10.7917 5.22793 11.075L5.30293 11.7C5.3196 11.7667 5.32793 11.8333 5.32793 11.9C5.32793 11.95 5.33626 12 5.35293 12.05V12.25C5.38626 12.4333 5.41126 12.625 5.42793 12.825C5.46126 13.0083 5.48626 13.2 5.50293 13.4C5.5196 13.4333 5.52793 13.4833 5.52793 13.55C5.51126 13.7333 5.5196 13.925 5.55293 14.125C5.58626 14.325 5.60293 14.5167 5.60293 14.7V14.775C5.60293 14.7917 5.61126 14.8083 5.62793 14.825C5.66126 14.8417 5.68626 14.8417 5.70293 14.825ZM17.9898 18.175C17.8898 18.175 17.8232 18.1667 17.7898 18.15C17.7065 18.1167 17.6232 18.1 17.5398 18.1C17.4732 18.1167 17.3982 18.125 17.3148 18.125C17.2982 18.125 17.2815 18.125 17.2648 18.125C17.2482 18.1417 17.2315 18.15 17.2148 18.15C17.0982 18.1667 16.9815 18.175 16.8648 18.175C16.7648 18.175 16.6648 18.1583 16.5648 18.125C16.5482 18.1083 16.5315 18.1 16.5148 18.1C16.3982 18.1167 16.2982 18.0833 16.2148 18C16.1315 17.9167 16.0482 17.8417 15.9648 17.775C15.8815 17.6917 15.8398 17.6 15.8398 17.5L15.7648 17.3C15.7148 17.1833 15.6982 17.075 15.7148 16.975C15.7315 16.9417 15.7315 16.9083 15.7148 16.875C15.7148 16.8417 15.7148 16.8083 15.7148 16.775C15.6982 16.7417 15.6898 16.7083 15.6898 16.675C15.6898 16.625 15.6815 16.5833 15.6648 16.55C15.6315 16.4 15.6065 16.25 15.5898 16.1C15.5898 15.9333 15.5982 15.775 15.6148 15.625C15.6315 15.525 15.6898 15.3583 15.7898 15.125C15.8898 14.875 15.9482 14.725 15.9648 14.675C16.0148 14.5917 16.0398 14.525 16.0398 14.475C16.0232 14.2917 16.0148 14.1083 16.0148 13.925C16.0315 13.725 16.0398 13.5333 16.0398 13.35C16.0398 13.2333 16.0648 13.1417 16.1148 13.075C16.1815 12.9583 16.1898 12.8333 16.1398 12.7L16.0648 12.425C15.9648 12.2417 15.9732 12.0833 16.0898 11.95C16.0898 11.9333 16.0898 11.925 16.0898 11.925C16.1065 11.9083 16.1148 11.8917 16.1148 11.875C16.1482 11.8417 16.1565 11.8 16.1398 11.75C16.1232 11.6833 16.1148 11.6333 16.1148 11.6C16.1148 11.5333 16.1232 11.4667 16.1398 11.4C16.1732 11.3167 16.1815 11.2417 16.1648 11.175C16.1648 11.175 16.1482 11.1583 16.1148 11.125C16.0982 11.0917 16.0898 11.025 16.0898 10.925C16.1065 10.825 16.1148 10.7667 16.1148 10.75V10.05C16.1315 9.96667 16.1398 9.89167 16.1398 9.825C16.1398 9.74167 16.1482 9.65833 16.1648 9.575C16.1815 9.475 16.1815 9.375 16.1648 9.275C16.1648 9.15833 16.1648 9.04167 16.1648 8.925C16.1482 8.84167 16.1315 8.75 16.1148 8.65C16.1148 8.55 16.1148 8.45 16.1148 8.35C16.0982 8.31667 16.0898 8.275 16.0898 8.225C16.0898 8.175 16.0898 8.13333 16.0898 8.1C16.0732 8.01667 16.0565 7.93333 16.0398 7.85C16.0398 7.76667 16.0398 7.68333 16.0398 7.6C16.0398 7.56667 16.0065 7.45833 15.9398 7.275C15.8732 7.075 15.8482 6.90833 15.8648 6.775C15.8815 6.74167 15.8898 6.7 15.8898 6.65C15.8898 6.6 15.8732 6.55833 15.8398 6.525C15.8065 6.50833 15.7898 6.475 15.7898 6.425V6.35C15.8398 6.15 15.8148 5.95 15.7148 5.75C15.6482 5.65 15.6232 5.55 15.6398 5.45C15.6398 5.31667 15.5815 5.21667 15.4648 5.15C15.3815 5.06667 15.3065 4.96667 15.2398 4.85C15.1732 4.73333 15.1315 4.61667 15.1148 4.5C15.0982 4.41667 15.0898 4.33333 15.0898 4.25C15.0898 4.16667 15.0898 4.09167 15.0898 4.025C15.0898 3.95833 15.0982 3.91667 15.1148 3.9C15.1815 3.83333 15.2148 3.75833 15.2148 3.675C15.2148 3.575 15.2232 3.5 15.2398 3.45C15.2565 3.43333 15.2732 3.425 15.2898 3.425C15.3065 3.425 15.3232 3.41667 15.3398 3.4C15.4065 3.38333 15.4398 3.325 15.4398 3.225C15.4065 3.15833 15.3898 3.1 15.3898 3.05C15.3732 2.98333 15.3982 2.925 15.4648 2.875C15.4982 2.80833 15.5398 2.79167 15.5898 2.825C15.7065 2.875 15.8398 2.85833 15.9898 2.775C16.0565 2.74167 16.0982 2.725 16.1148 2.725C16.1648 2.725 16.1898 2.725 16.1898 2.725C16.2065 2.70833 16.2565 2.7 16.3398 2.7C16.4398 2.71667 16.5315 2.68333 16.6148 2.6C16.7315 2.48333 16.8732 2.425 17.0398 2.425H18.5898C18.9732 2.44167 19.3565 2.44167 19.7398 2.425C20.1232 2.40833 20.4982 2.4 20.8648 2.4C20.9482 2.4 21.0148 2.4 21.0648 2.4C21.1315 2.38333 21.1982 2.36667 21.2648 2.35C21.3648 2.3 21.4815 2.275 21.6148 2.275H22.1898C22.3232 2.275 22.4398 2.275 22.5398 2.275C22.6565 2.25833 22.7732 2.24167 22.8898 2.225C22.9565 2.20833 23.0148 2.2 23.0648 2.2C23.1315 2.2 23.1982 2.2 23.2648 2.2C23.3315 2.2 23.3982 2.2 23.4648 2.2C23.5315 2.2 23.5982 2.19167 23.6648 2.175C23.7982 2.15833 23.9398 2.15 24.0898 2.15C24.2398 2.13333 24.3815 2.125 24.5148 2.125C24.5815 2.125 24.6398 2.125 24.6898 2.125C24.7565 2.10833 24.8232 2.09167 24.8898 2.075C25.0232 2.04167 25.1482 2.025 25.2648 2.025C25.3982 2.00833 25.5232 1.99167 25.6398 1.975C25.7732 1.95833 25.8982 1.94167 26.0148 1.925C26.1482 1.90833 26.2732 1.89167 26.3898 1.875C26.5398 1.875 26.6482 1.89167 26.7148 1.925C26.8148 1.99167 26.9065 2.05 26.9898 2.1C27.0898 2.15 27.1815 2.21667 27.2648 2.3C27.3315 2.36667 27.3732 2.425 27.3898 2.475C27.4065 2.54167 27.4232 2.60833 27.4398 2.675C27.4565 2.74167 27.4732 2.81667 27.4898 2.9V3.075C27.4732 3.15833 27.4565 3.25 27.4398 3.35C27.4398 3.43333 27.4315 3.525 27.4148 3.625C27.3815 3.69167 27.3398 3.75 27.2898 3.8L26.8398 4.25C26.6732 4.3 26.5065 4.33333 26.3398 4.35C26.1898 4.36667 26.0315 4.36667 25.8648 4.35H25.6898C25.6065 4.36667 25.5232 4.375 25.4398 4.375C25.3565 4.375 25.2732 4.36667 25.1898 4.35C25.0898 4.33333 24.9898 4.33333 24.8898 4.35C24.7898 4.35 24.6898 4.35 24.5898 4.35C24.5232 4.35 24.4565 4.35833 24.3898 4.375C24.3398 4.375 24.2815 4.36667 24.2148 4.35C24.1315 4.33333 24.0482 4.33333 23.9648 4.35C23.8982 4.35 23.8232 4.35833 23.7398 4.375C23.6732 4.375 23.5982 4.38333 23.5148 4.4C23.4482 4.4 23.3732 4.4 23.2898 4.4C23.0732 4.43333 22.8398 4.45 22.5898 4.45C22.3565 4.45 22.1232 4.46667 21.8898 4.5C21.7398 4.48333 21.5982 4.49167 21.4648 4.525C21.3315 4.54167 21.1898 4.55833 21.0398 4.575C20.9065 4.59167 20.7648 4.6 20.6148 4.6C20.4648 4.6 20.3232 4.61667 20.1898 4.65C20.0232 4.65 19.8565 4.675 19.6898 4.725C19.5398 4.75833 19.3815 4.78333 19.2148 4.8L19.0398 4.825C18.9232 4.825 18.8148 4.84167 18.7148 4.875C18.6148 4.89167 18.5065 4.91667 18.3898 4.95C18.3232 4.96667 18.2565 4.98333 18.1898 5C18.1232 5 18.0482 5.00833 17.9648 5.025C17.9148 5.025 17.8565 5.04167 17.7898 5.075C17.7398 5.09167 17.7148 5.14167 17.7148 5.225L17.7898 5.45C17.8065 5.48333 17.7982 5.56667 17.7648 5.7C17.7482 5.83333 17.7315 5.93333 17.7148 6C17.7148 6.05 17.7232 6.1 17.7398 6.15C17.7565 6.2 17.7732 6.25 17.7898 6.3C17.8398 6.43333 17.8648 6.58333 17.8648 6.75C17.8648 6.9 17.8815 7.04167 17.9148 7.175C17.9315 7.24167 17.9398 7.31667 17.9398 7.4C17.9398 7.46667 17.9482 7.54167 17.9648 7.625C17.9648 7.65833 17.9648 7.7 17.9648 7.75C17.9815 7.78333 17.9898 7.825 17.9898 7.875C17.9898 7.925 17.9815 7.95833 17.9648 7.975C17.9148 8.04167 17.8898 8.11667 17.8898 8.2C17.8898 8.28333 17.8898 8.36667 17.8898 8.45C17.9732 8.61667 18.0148 8.78333 18.0148 8.95C18.0148 9.11667 18.0148 9.28333 18.0148 9.45C18.0148 9.5 18.0565 9.51667 18.1398 9.5H18.1648C18.1982 9.43333 18.2315 9.38333 18.2648 9.35C18.3148 9.35 18.3732 9.33333 18.4398 9.3C18.4898 9.26667 18.5565 9.25 18.6398 9.25C18.7732 9.26667 18.8982 9.26667 19.0148 9.25C19.1315 9.21667 19.2482 9.18333 19.3648 9.15C20.1482 8.95 20.8815 8.69167 21.5648 8.375C21.7482 8.29167 21.9398 8.225 22.1398 8.175C22.3398 8.10833 22.5398 8.06667 22.7398 8.05H22.8148C22.9648 8.03333 23.1148 8.01667 23.2648 8C23.4148 7.98333 23.5648 7.975 23.7148 7.975C23.9148 7.95833 24.1065 7.93333 24.2898 7.9C24.4898 7.86667 24.6898 7.84167 24.8898 7.825C25.0065 7.79167 25.1148 7.76667 25.2148 7.75C25.3148 7.71667 25.4232 7.675 25.5398 7.625C25.7565 7.54167 25.9565 7.5 26.1398 7.5C26.2732 7.51667 26.3982 7.55 26.5148 7.6C26.6315 7.63333 26.7482 7.68333 26.8648 7.75C27.1148 7.91667 27.2398 8.16667 27.2398 8.5C27.2398 8.63333 27.2232 8.76667 27.1898 8.9C27.1732 9.03333 27.1648 9.16667 27.1648 9.3C27.1648 9.33333 27.1482 9.36667 27.1148 9.4L27.0398 9.525C27.0232 9.59167 27.0065 9.65833 26.9898 9.725C26.9732 9.79167 26.9315 9.84167 26.8648 9.875C26.7648 9.95833 26.6565 10.05 26.5398 10.15C26.4398 10.2333 26.3232 10.2917 26.1898 10.325C26.1232 10.3417 26.0565 10.3583 25.9898 10.375C25.9398 10.3917 25.8815 10.4 25.8148 10.4C25.5482 10.4 25.2732 10.4167 24.9898 10.45C24.7232 10.4833 24.4482 10.5167 24.1648 10.55C23.9482 10.5667 23.7315 10.5917 23.5148 10.625C23.3148 10.6583 23.1065 10.675 22.8898 10.675C22.6898 10.675 22.4648 10.7167 22.2148 10.8C22.0482 10.8333 21.8732 10.8667 21.6898 10.9C21.5065 10.9333 21.3232 10.9583 21.1398 10.975C21.0065 10.9917 20.8648 11.0167 20.7148 11.05C20.5815 11.0667 20.4482 11.0833 20.3148 11.1L19.8898 11.175C19.8565 11.1917 19.8065 11.2 19.7398 11.2C19.6232 11.2333 19.5065 11.2583 19.3898 11.275C19.2732 11.2917 19.1565 11.3167 19.0398 11.35C18.9232 11.3667 18.8065 11.3917 18.6898 11.425C18.5898 11.4583 18.4815 11.4917 18.3648 11.525C18.2815 11.5417 18.2148 11.575 18.1648 11.625C18.1148 11.6583 18.0732 11.7083 18.0398 11.775C18.0232 11.825 18.0232 11.875 18.0398 11.925C18.0565 11.9917 18.0482 12.0583 18.0148 12.125C18.0315 12.2917 18.0398 12.4583 18.0398 12.625C18.0565 12.7917 18.0565 12.9583 18.0398 13.125C18.0732 13.2583 18.0815 13.3917 18.0648 13.525C18.0648 13.6583 18.0565 13.7917 18.0398 13.925C18.0065 14.125 18.0148 14.2917 18.0648 14.425C18.1148 14.6417 18.0982 14.8667 18.0148 15.1C17.9815 15.2 17.9815 15.2667 18.0148 15.3C18.0482 15.35 18.0482 15.4083 18.0148 15.475V15.625C17.9982 15.7583 18.0565 15.825 18.1898 15.825H18.2398C18.3565 15.825 18.4732 15.8667 18.5898 15.95C18.6732 16.0333 18.7732 16.0583 18.8898 16.025L19.5898 15.95C19.6898 15.9333 19.7898 15.925 19.8898 15.925C19.9898 15.9083 20.0898 15.9 20.1898 15.9C20.2232 15.8833 20.2732 15.8917 20.3398 15.925C20.4232 15.975 20.4982 15.9833 20.5648 15.95C20.5982 15.9167 20.6398 15.8917 20.6898 15.875C20.7565 15.8583 20.8065 15.8333 20.8398 15.8C20.9398 15.7 21.0648 15.6667 21.2148 15.7C21.3482 15.7333 21.4565 15.725 21.5398 15.675C21.6898 15.625 21.8315 15.6083 21.9648 15.625C22.0482 15.6417 22.1315 15.6333 22.2148 15.6C22.2982 15.5667 22.3815 15.55 22.4648 15.55C22.4982 15.55 22.5232 15.5583 22.5398 15.575C22.5565 15.575 22.5732 15.5667 22.5898 15.55C22.6232 15.55 22.6565 15.5417 22.6898 15.525C22.7232 15.5083 22.7482 15.5 22.7648 15.5C22.8815 15.45 22.9898 15.4333 23.0898 15.45C23.1732 15.45 23.2148 15.45 23.2148 15.45C23.2815 15.4333 23.3398 15.4333 23.3898 15.45C23.4565 15.4667 23.5148 15.4917 23.5648 15.525C23.6482 15.5417 23.7148 15.5667 23.7648 15.6C23.8315 15.6333 23.8982 15.6583 23.9648 15.675C23.9982 15.675 24.0232 15.6833 24.0398 15.7C24.1232 15.7667 24.2232 15.825 24.3398 15.875C24.4732 15.925 24.5482 15.9833 24.5648 16.05C24.5982 16.15 24.6148 16.25 24.6148 16.35C24.6148 16.4333 24.6232 16.525 24.6398 16.625C24.6398 16.675 24.6315 16.725 24.6148 16.775C24.6148 16.825 24.6065 16.875 24.5898 16.925C24.5565 16.9917 24.5148 17.0667 24.4648 17.15C24.4315 17.2333 24.3815 17.3083 24.3148 17.375C24.2815 17.4083 24.2482 17.4417 24.2148 17.475C24.1982 17.5083 24.1732 17.5417 24.1398 17.575C24.0732 17.6417 23.9982 17.7 23.9148 17.75C23.8315 17.8 23.7398 17.825 23.6398 17.825C23.5732 17.825 23.5232 17.8333 23.4898 17.85C23.4232 17.8833 23.3565 17.9 23.2898 17.9C23.2232 17.9 23.1482 17.9 23.0648 17.9C22.9482 17.9167 22.8315 17.9333 22.7148 17.95C22.6148 17.95 22.5065 17.9417 22.3898 17.925C22.3232 17.9083 22.2648 17.9083 22.2148 17.925C22.0482 17.975 21.8815 17.9833 21.7148 17.95C21.5482 17.95 21.3815 17.9583 21.2148 17.975C21.0648 17.975 20.9148 17.975 20.7648 17.975H20.4398C20.3898 17.975 20.3482 17.9833 20.3148 18C20.2482 18.0333 20.1648 18.05 20.0648 18.05C19.9815 18.05 19.8982 18.0417 19.8148 18.025H19.5648C19.5482 18.025 19.5232 18.025 19.4898 18.025C19.4565 18.0417 19.4232 18.0417 19.3898 18.025C19.3398 18.0083 19.2898 18 19.2398 18C19.2065 18.0167 19.1648 18.0333 19.1148 18.05C19.0815 18.05 19.0482 18.05 19.0148 18.05C18.9982 18.0667 18.9732 18.075 18.9398 18.075C18.7732 18.0583 18.6148 18.0583 18.4648 18.075C18.3148 18.1083 18.1565 18.1417 17.9898 18.175ZM35.3227 18.45C35.156 18.4833 34.9893 18.4917 34.8227 18.475C34.656 18.4583 34.481 18.4333 34.2977 18.4H34.2227C33.8727 18.35 33.581 18.2083 33.3477 17.975C33.3143 17.9417 33.2893 17.925 33.2727 17.925C33.206 17.875 33.1477 17.8917 33.0977 17.975C33.081 17.975 33.0727 17.9833 33.0727 18C32.9727 17.9 32.8977 17.7833 32.8477 17.65C32.731 17.4 32.5893 17.2 32.4227 17.05C32.356 17 32.306 16.925 32.2727 16.825C32.2227 16.675 32.1977 16.5333 32.1977 16.4C32.1977 16.2667 32.1893 16.175 32.1727 16.125C32.156 16.075 32.1393 16.025 32.1227 15.975C32.1227 15.925 32.131 15.8667 32.1477 15.8C32.181 15.6667 32.206 15.525 32.2227 15.375C32.2393 15.225 32.256 15.075 32.2727 14.925C32.306 14.6917 32.3643 14.475 32.4477 14.275L32.7477 13.3C32.781 13.2167 32.8227 13.1333 32.8727 13.05C32.9727 12.95 33.0477 12.8333 33.0977 12.7L33.3977 11.975C33.431 11.9083 33.406 11.875 33.3227 11.875H33.2727C33.0227 11.925 32.7727 11.975 32.5227 12.025C32.2727 12.0583 32.0227 12.1 31.7727 12.15C31.706 12.1667 31.631 12.1833 31.5477 12.2C31.481 12.2167 31.4227 12.2583 31.3727 12.325C31.3393 12.3583 31.2893 12.3917 31.2227 12.425C31.1727 12.4417 31.1227 12.4667 31.0727 12.5L30.8727 12.575H30.6977C30.4977 12.6083 30.3143 12.575 30.1477 12.475C30.1143 12.4417 30.0727 12.425 30.0227 12.425C29.906 12.4083 29.806 12.3333 29.7227 12.2C29.706 12.1667 29.681 12.125 29.6477 12.075C29.631 12.025 29.606 11.9917 29.5727 11.975C29.5227 11.9083 29.481 11.85 29.4477 11.8C29.431 11.7333 29.406 11.6667 29.3727 11.6C29.356 11.4833 29.356 11.375 29.3727 11.275C29.406 11.225 29.4227 11.175 29.4227 11.125C29.4393 11.075 29.456 11.025 29.4727 10.975C29.4893 10.825 29.5727 10.675 29.7227 10.525C29.806 10.425 29.906 10.35 30.0227 10.3C30.0727 10.3 30.131 10.2833 30.1977 10.25C30.281 10.1833 30.3727 10.1417 30.4727 10.125C30.5893 10.0917 30.6977 10.0667 30.7977 10.05C30.931 10.0167 31.0643 9.99167 31.1977 9.975C31.331 9.95833 31.4643 9.94167 31.5977 9.925L31.7977 9.875C32.0643 9.79167 32.3227 9.73333 32.5727 9.7C32.8393 9.65 33.0977 9.59167 33.3477 9.525L33.6727 9.45C33.806 9.43333 33.9393 9.40833 34.0727 9.375C34.2227 9.325 34.3643 9.28333 34.4977 9.25C34.531 9.25 34.5977 9.23333 34.6977 9.2C34.7977 9.15 34.8727 9.08333 34.9227 9L35.3727 8.1C35.3893 8.06667 35.4143 8 35.4477 7.9C35.4643 7.81667 35.4893 7.73333 35.5227 7.65C35.5727 7.55 35.6143 7.45833 35.6477 7.375L36.1227 6.4C36.206 6.23333 36.2893 6.075 36.3727 5.925C36.456 5.75833 36.5393 5.59167 36.6227 5.425C36.656 5.35833 36.6893 5.3 36.7227 5.25C36.756 5.2 36.781 5.14167 36.7977 5.075C36.7977 5.075 36.7977 5.04167 36.7977 4.975C36.7977 4.90833 36.756 4.9 36.6727 4.95L36.2727 5.025C35.806 5.15833 35.3477 5.29167 34.8977 5.425C34.4477 5.55833 34.006 5.71667 33.5727 5.9L32.8227 6.2C32.6393 6.28333 32.4727 6.35 32.3227 6.4C32.206 6.43333 32.081 6.475 31.9477 6.525C31.831 6.575 31.7143 6.64167 31.5977 6.725C31.4477 6.825 31.2893 6.88333 31.1227 6.9C30.9727 6.9 30.8143 6.88333 30.6477 6.85C30.5977 6.85 30.5393 6.83333 30.4727 6.8C30.3393 6.78333 30.2227 6.70833 30.1227 6.575L29.8977 6.3C29.7643 6.15 29.6893 5.96667 29.6727 5.75C29.6393 5.56667 29.6227 5.45 29.6227 5.4C29.6393 5.35 29.6893 5.25 29.7727 5.1C29.856 4.91667 29.906 4.80833 29.9227 4.775C29.956 4.74167 30.0643 4.675 30.2477 4.575C30.4477 4.45833 30.6143 4.38333 30.7477 4.35C30.9643 4.28333 31.1727 4.21667 31.3727 4.15C31.5893 4.08333 31.806 4.01667 32.0227 3.95L33.3477 3.5C33.4477 3.46667 33.5477 3.43333 33.6477 3.4C33.7643 3.36667 33.8727 3.33333 33.9727 3.3L35.6977 2.775C35.881 2.725 36.0727 2.68333 36.2727 2.65C36.4727 2.6 36.6643 2.55 36.8477 2.5C36.9143 2.48333 36.9727 2.475 37.0227 2.475C37.0727 2.45833 37.1227 2.45 37.1727 2.45C37.3727 2.4 37.581 2.375 37.7977 2.375L38.5977 2.3C38.681 2.28333 38.7477 2.275 38.7977 2.275C38.8643 2.275 38.931 2.29167 38.9977 2.325C39.0143 2.34167 39.031 2.35 39.0477 2.35C39.081 2.35 39.106 2.35833 39.1227 2.375C39.1727 2.39167 39.2227 2.40833 39.2727 2.425C39.3393 2.425 39.3977 2.44167 39.4477 2.475C39.4977 2.49167 39.5393 2.525 39.5727 2.575C39.606 2.625 39.6393 2.66667 39.6727 2.7C39.8893 2.95 39.9977 3.21667 39.9977 3.5C40.031 3.68333 40.006 3.85 39.9227 4L39.5727 4.8C39.506 4.95 39.4227 5.1 39.3227 5.25C39.2393 5.4 39.156 5.54167 39.0727 5.675C39.056 5.725 39.031 5.775 38.9977 5.825C38.9643 5.875 38.931 5.93333 38.8977 6C38.5977 6.61667 38.2727 7.24167 37.9227 7.875C37.906 7.90833 37.881 7.95 37.8477 8C37.8143 8.05 37.7977 8.1 37.7977 8.15C37.7977 8.21667 37.831 8.25 37.8977 8.25C38.031 8.21667 38.1477 8.18333 38.2477 8.15C38.4143 8.1 38.5727 8.04167 38.7227 7.975C38.8727 7.90833 39.031 7.85 39.1977 7.8C39.281 7.76667 39.356 7.74167 39.4227 7.725C39.506 7.70833 39.581 7.69167 39.6477 7.675C39.6977 7.65833 39.7477 7.64167 39.7977 7.625C39.8477 7.60833 39.8977 7.59167 39.9477 7.575C40.231 7.45833 40.5227 7.35 40.8227 7.25C41.1393 7.15 41.4477 7.05 41.7477 6.95C41.831 6.91667 41.906 6.9 41.9727 6.9C42.056 6.88333 42.131 6.86667 42.1977 6.85C42.281 6.83333 42.3643 6.80833 42.4477 6.775C42.5477 6.74167 42.6393 6.71667 42.7227 6.7C42.806 6.68333 42.8727 6.65833 42.9227 6.625C42.9893 6.575 43.0477 6.53333 43.0977 6.5C43.1477 6.45 43.1977 6.40833 43.2477 6.375C43.3143 6.325 43.381 6.28333 43.4477 6.25C43.481 6.23333 43.531 6.225 43.5977 6.225H43.7477C43.831 6.175 43.9143 6.15833 43.9977 6.175C44.0977 6.19167 44.181 6.21667 44.2477 6.25C44.4477 6.31667 44.6227 6.41667 44.7727 6.55C44.8727 6.65 44.9477 6.75833 44.9977 6.875L45.0227 6.9C45.0393 6.96667 45.0643 7.025 45.0977 7.075C45.1477 7.125 45.1643 7.18333 45.1477 7.25C45.131 7.36667 45.1143 7.49167 45.0977 7.625C45.081 7.74167 45.0393 7.85833 44.9727 7.975C44.9727 8.00833 44.9477 8.04167 44.8977 8.075C44.8477 8.125 44.7977 8.175 44.7477 8.225C44.7143 8.25833 44.681 8.30833 44.6477 8.375C44.631 8.425 44.5977 8.45833 44.5477 8.475L44.3227 8.55C43.9727 8.65 43.6227 8.75833 43.2727 8.875C42.9227 8.99167 42.5727 9.1 42.2227 9.2C41.9893 9.26667 41.756 9.33333 41.5227 9.4C41.2893 9.46667 41.056 9.53333 40.8227 9.6C40.506 9.7 40.181 9.80833 39.8477 9.925C39.531 10.025 39.206 10.125 38.8727 10.225C38.5227 10.325 38.1727 10.4333 37.8227 10.55C37.4727 10.65 37.1143 10.7583 36.7477 10.875C36.7143 10.8917 36.6727 10.9083 36.6227 10.925C36.5727 10.9417 36.5227 10.9583 36.4727 10.975C36.306 11.025 36.1893 11.125 36.1227 11.275C36.056 11.3917 35.9893 11.5083 35.9227 11.625C35.856 11.7417 35.781 11.85 35.6977 11.95C35.681 12 35.656 12.05 35.6227 12.1C35.606 12.15 35.5893 12.2083 35.5727 12.275C35.556 12.3417 35.531 12.4083 35.4977 12.475C35.481 12.525 35.456 12.5833 35.4227 12.65C35.3727 12.7167 35.3393 12.7833 35.3227 12.85C35.2393 13.05 35.131 13.2333 34.9977 13.4C34.9143 13.5167 34.8727 13.6333 34.8727 13.75C34.8727 13.85 34.8393 13.95 34.7727 14.05C34.7393 14.1167 34.7143 14.1917 34.6977 14.275C34.681 14.3417 34.656 14.4167 34.6227 14.5C34.606 14.6333 34.5643 14.775 34.4977 14.925C34.4477 15.0917 34.4227 15.2583 34.4227 15.425C34.4227 15.5917 34.431 15.7667 34.4477 15.95C34.4477 16.0667 34.506 16.1417 34.6227 16.175C34.7227 16.2083 34.7977 16.225 34.8477 16.225C34.931 16.225 35.0143 16.225 35.0977 16.225C35.181 16.225 35.256 16.2167 35.3227 16.2C35.4227 16.2 35.5227 16.1917 35.6227 16.175C35.7227 16.1417 35.8227 16.1167 35.9227 16.1C36.156 16.05 36.381 16 36.5977 15.95C36.8143 15.8833 37.031 15.8167 37.2477 15.75L37.5227 15.675C37.7393 15.625 37.9477 15.5667 38.1477 15.5C38.3643 15.4333 38.5727 15.3667 38.7727 15.3C38.906 15.25 39.0477 15.2 39.1977 15.15C39.3477 15.1 39.4893 15.0667 39.6227 15.05C39.706 15.05 39.7977 15.0333 39.8977 15C40.0477 14.9167 40.206 14.8667 40.3727 14.85C40.4393 14.85 40.506 14.8333 40.5727 14.8C40.806 14.7 41.0393 14.6167 41.2727 14.55C41.506 14.4833 41.731 14.4167 41.9477 14.35C42.031 14.3333 42.1143 14.3167 42.1977 14.3C42.2977 14.2667 42.3893 14.2417 42.4727 14.225C42.606 14.1917 42.7227 14.1583 42.8227 14.125C42.9393 14.075 43.056 14.025 43.1727 13.975C43.1893 13.9583 43.2143 13.95 43.2477 13.95H43.6477C43.731 13.95 43.7977 13.9667 43.8477 14C43.9143 14.0167 43.981 14.0417 44.0477 14.075C44.1643 14.1083 44.2477 14.1667 44.2977 14.25L44.3727 14.375C44.5393 14.525 44.6227 14.725 44.6227 14.975V15.15C44.6227 15.2 44.6227 15.225 44.6227 15.225C44.606 15.2917 44.581 15.375 44.5477 15.475C44.5143 15.5583 44.481 15.6417 44.4477 15.725C44.381 15.825 44.281 15.9167 44.1477 16C44.0477 16.0333 43.9477 16.0667 43.8477 16.1C43.7643 16.1333 43.6727 16.1667 43.5727 16.2C43.3893 16.2333 43.1977 16.275 42.9977 16.325C42.7977 16.375 42.606 16.425 42.4227 16.475C42.3893 16.475 42.3643 16.4833 42.3477 16.5C42.081 16.6 41.8143 16.6833 41.5477 16.75C41.2977 16.8167 41.031 16.8917 40.7477 16.975L40.5477 17.05C40.231 17.1667 39.9143 17.275 39.5977 17.375C39.2977 17.475 38.981 17.575 38.6477 17.675L37.1477 18.125C37.081 18.1417 37.006 18.1583 36.9227 18.175C36.8393 18.2083 36.756 18.225 36.6727 18.225L36.4727 18.275C36.306 18.3083 36.131 18.3417 35.9477 18.375C35.7643 18.4083 35.581 18.4333 35.3977 18.45H35.3227ZM57.3932 19.825C57.2432 19.825 57.1098 19.7667 56.9932 19.65C56.9598 19.6 56.9265 19.55 56.8932 19.5C56.8598 19.45 56.8265 19.4 56.7932 19.35C56.6432 19 56.5682 18.6333 56.5682 18.25L56.4932 17.65C56.4432 17.4167 56.4015 17.1833 56.3682 16.95C56.3348 16.7167 56.2765 16.4917 56.1932 16.275L56.0432 15.85C56.0432 15.8167 56.0348 15.7833 56.0182 15.75C56.0182 15.7167 56.0098 15.6833 55.9932 15.65L55.6182 14.325C55.6015 14.2917 55.5848 14.25 55.5682 14.2C55.5682 14.15 55.5515 14.1083 55.5182 14.075C55.4682 13.975 55.4265 13.875 55.3932 13.775C55.3765 13.6583 55.3515 13.5417 55.3182 13.425C55.3015 13.3417 55.2848 13.2667 55.2682 13.2C55.2515 13.1167 55.2265 13.0333 55.1932 12.95C55.1598 12.85 55.1265 12.7917 55.0932 12.775C55.0598 12.7417 54.9848 12.7417 54.8682 12.775C54.7848 12.7917 54.6932 12.8083 54.5932 12.825C54.5098 12.825 54.4265 12.8417 54.3432 12.875C54.2765 12.8917 54.1932 12.9083 54.0932 12.925C54.0098 12.925 53.9265 12.9333 53.8432 12.95L53.4932 13.025C53.4098 13.0417 53.3182 13.0667 53.2182 13.1C53.1348 13.1167 53.0515 13.125 52.9682 13.125L52.5182 13.2C52.3848 13.2333 52.2432 13.2667 52.0932 13.3C51.9432 13.3333 51.8015 13.3667 51.6682 13.4C51.2682 13.5 50.8682 13.575 50.4682 13.625C50.3348 13.6583 50.2598 13.7167 50.2432 13.8C50.2265 13.8 50.2182 13.8083 50.2182 13.825C50.1182 14.0917 50.0015 14.3583 49.8682 14.625C49.7515 14.875 49.6265 15.1333 49.4932 15.4C49.4598 15.4667 49.4265 15.5333 49.3932 15.6C49.3765 15.65 49.3515 15.7083 49.3182 15.775C49.3015 15.8083 49.2848 15.85 49.2682 15.9C49.2515 15.9333 49.2348 15.9667 49.2182 16C49.1182 16.1167 49.0682 16.2583 49.0682 16.425C49.0515 16.525 49.0182 16.625 48.9682 16.725C48.9182 16.8083 48.8682 16.8917 48.8182 16.975C48.8015 17.025 48.7682 17.05 48.7182 17.05C48.6515 17.0667 48.5848 17.0917 48.5182 17.125C48.4515 17.1583 48.3765 17.1917 48.2932 17.225C48.2432 17.2417 48.1932 17.2417 48.1432 17.225C48.1098 17.2083 48.0682 17.1917 48.0182 17.175C47.9848 17.1417 47.9515 17.125 47.9182 17.125C47.7348 17.1083 47.6015 17 47.5182 16.8C47.3848 16.5333 47.2932 16.2667 47.2432 16C47.2265 15.9333 47.2265 15.875 47.2432 15.825C47.2765 15.775 47.3015 15.725 47.3182 15.675C47.4182 15.6083 47.4765 15.5333 47.4932 15.45V15.425C47.4932 15.2083 47.5348 15.0083 47.6182 14.825C47.7182 14.625 47.8015 14.4333 47.8682 14.25C47.9015 14.15 47.9432 14.05 47.9932 13.95C48.0432 13.85 48.0932 13.75 48.1432 13.65C48.2098 13.5333 48.2598 13.425 48.2932 13.325C48.3432 13.2083 48.3848 13.0917 48.4182 12.975C48.4682 12.8417 48.4682 12.7167 48.4182 12.6C48.3848 12.5 48.3682 12.4083 48.3682 12.325C48.3682 12.225 48.3765 12.125 48.3932 12.025C48.3932 11.8417 48.4598 11.6833 48.5932 11.55C48.6598 11.4667 48.7265 11.4 48.7932 11.35C48.8765 11.2833 48.9515 11.2167 49.0182 11.15C49.1682 11 49.2848 10.8 49.3682 10.55C49.4348 10.3333 49.4848 10.1167 49.5182 9.9C49.5682 9.66667 49.6182 9.44167 49.6682 9.225C49.7015 9.00833 49.7348 8.8 49.7682 8.6C49.8182 8.38333 49.8682 8.175 49.9182 7.975C49.9348 7.89167 49.9515 7.81667 49.9682 7.75C50.0015 7.66667 50.0265 7.59167 50.0432 7.525C50.0932 7.39167 50.1432 7.26667 50.1932 7.15C50.2432 7.01667 50.2765 6.88333 50.2932 6.75C50.3265 6.68333 50.3265 6.625 50.2932 6.575C50.2765 6.49167 50.2765 6.41667 50.2932 6.35C50.3265 6.28333 50.3515 6.21667 50.3682 6.15C50.4182 6.03333 50.4515 5.91667 50.4682 5.8C50.5015 5.68333 50.5432 5.56667 50.5932 5.45C50.6765 5.23333 50.7432 5.05833 50.7932 4.925C50.8598 4.775 50.9182 4.60833 50.9682 4.425C51.0015 4.325 51.0348 4.23333 51.0682 4.15C51.1182 4.05 51.1515 3.95 51.1682 3.85C51.2182 3.7 51.2598 3.55 51.2932 3.4C51.3265 3.23333 51.3432 3.075 51.3432 2.925C51.3765 2.79167 51.4098 2.7 51.4432 2.65C51.5265 2.48333 51.6265 2.34167 51.7432 2.225C51.8765 2.10833 52.0015 1.99167 52.1182 1.875C52.2015 1.825 52.2848 1.79167 52.3682 1.775C52.4515 1.74167 52.5348 1.75 52.6182 1.8C52.6848 1.83333 52.7265 1.85 52.7432 1.85C52.8932 1.83333 53.0182 1.86667 53.1182 1.95C53.2182 2.03333 53.3015 2.13333 53.3682 2.25C53.4015 2.28333 53.4265 2.325 53.4432 2.375C53.4598 2.425 53.4765 2.46667 53.4932 2.5C53.5765 2.63333 53.6182 2.76667 53.6182 2.9C53.6182 2.96667 53.6265 3.04167 53.6432 3.125C53.6598 3.19167 53.6765 3.26667 53.6932 3.35C53.7432 3.45 53.8182 3.5 53.9182 3.5C53.9348 3.48333 53.9515 3.48333 53.9682 3.5C53.9848 3.51667 53.9932 3.53333 53.9932 3.55C54.0765 3.65 54.1015 3.75833 54.0682 3.875C54.0348 4.00833 54.0265 4.14167 54.0432 4.275C54.0765 4.39167 54.1098 4.51667 54.1432 4.65C54.2098 4.81667 54.2765 4.98333 54.3432 5.15C54.4098 5.31667 54.4765 5.48333 54.5432 5.65C54.6265 5.83333 54.7098 6.01667 54.7932 6.2C54.8765 6.38333 54.9515 6.56667 55.0182 6.75C55.1015 6.98333 55.1848 7.21667 55.2682 7.45C55.3682 7.68333 55.4765 7.91667 55.5932 8.15L55.6682 8.425C55.6848 8.49167 55.7015 8.55833 55.7182 8.625C55.7515 8.69167 55.7765 8.75833 55.7932 8.825C55.8265 8.875 55.8515 8.925 55.8682 8.975C55.9015 9.025 55.9348 9.06667 55.9682 9.1C56.0515 9.21667 56.1015 9.34167 56.1182 9.475C56.1682 9.64167 56.2432 9.79167 56.3432 9.925C56.3765 9.975 56.4265 10 56.4932 10C56.7432 9.96667 56.9932 9.94167 57.2432 9.925C57.4932 9.89167 57.7432 9.84167 57.9932 9.775C58.1765 9.725 58.3515 9.7 58.5182 9.7C58.8348 9.7 59.1265 9.80833 59.3932 10.025C59.7098 10.275 59.8765 10.5917 59.8932 10.975C59.8932 11.0583 59.9015 11.125 59.9182 11.175C59.9182 11.2917 59.8848 11.3833 59.8182 11.45C59.8015 11.5 59.7682 11.55 59.7182 11.6C59.6848 11.65 59.6515 11.7 59.6182 11.75C59.5848 11.8167 59.5515 11.8667 59.5182 11.9L59.3682 12.025C59.3515 12.0583 59.3265 12.1 59.2932 12.15C59.2598 12.1833 59.2182 12.2083 59.1682 12.225C59.1015 12.2417 59.0348 12.2667 58.9682 12.3C58.9015 12.3167 58.8265 12.325 58.7432 12.325C58.4432 12.3583 58.1765 12.35 57.9432 12.3H57.5432C57.5098 12.3 57.4598 12.3167 57.3932 12.35C57.3265 12.3833 57.2932 12.425 57.2932 12.475V12.575C57.3432 12.725 57.3765 12.8833 57.3932 13.05C57.4265 13.2 57.4765 13.3417 57.5432 13.475C57.5432 13.5417 57.5598 13.6083 57.5932 13.675C57.6765 13.825 57.7432 13.9833 57.7932 14.15C57.8432 14.3 57.8848 14.4583 57.9182 14.625C57.9182 14.6583 57.9348 14.725 57.9682 14.825C58.0182 14.9417 58.0598 15.0667 58.0932 15.2C58.1265 15.3167 58.1515 15.4417 58.1682 15.575C58.1682 15.675 58.1932 15.7667 58.2432 15.85C58.3098 16 58.3598 16.15 58.3932 16.3C58.4265 16.45 58.4515 16.6083 58.4682 16.775C58.4848 16.7917 58.4932 16.825 58.4932 16.875C58.4932 16.9083 58.5015 16.9417 58.5182 16.975C58.6015 17.1583 58.6598 17.3583 58.6932 17.575C58.7265 17.775 58.7682 17.975 58.8182 18.175C58.8515 18.275 58.8682 18.375 58.8682 18.475C58.8848 18.5917 58.8932 18.7083 58.8932 18.825C58.8932 18.9083 58.8682 19 58.8182 19.1C58.7682 19.15 58.7432 19.175 58.7432 19.175C58.6432 19.1917 58.5848 19.25 58.5682 19.35L58.4932 19.5C58.4598 19.5667 58.4098 19.6083 58.3432 19.625C58.2765 19.625 58.2182 19.65 58.1682 19.7C58.1015 19.7667 58.0098 19.8 57.8932 19.8C57.8265 19.8 57.7432 19.8 57.6432 19.8C57.5598 19.8 57.4765 19.8083 57.3932 19.825ZM51.3682 10.75C51.4682 10.7333 51.5682 10.7167 51.6682 10.7C51.7848 10.6833 51.9098 10.6667 52.0432 10.65C52.1265 10.6333 52.2348 10.6167 52.3682 10.6C52.5015 10.5833 52.6265 10.5667 52.7432 10.55C52.8598 10.5167 52.9765 10.5 53.0932 10.5C53.2098 10.4833 53.3265 10.4667 53.4432 10.45C53.5432 10.4167 53.6432 10.4 53.7432 10.4C53.8432 10.3833 53.9432 10.3667 54.0432 10.35C54.1932 10.3167 54.2515 10.2333 54.2182 10.1C54.2015 9.96667 54.1682 9.83333 54.1182 9.7C54.0848 9.55 54.0098 9.425 53.8932 9.325C53.8598 9.29167 53.8432 9.24167 53.8432 9.175V9.1C53.8098 8.96667 53.7682 8.84167 53.7182 8.725C53.6848 8.59167 53.6432 8.46667 53.5932 8.35C53.5598 8.21667 53.5182 8.1 53.4682 8C53.4348 7.88333 53.3932 7.76667 53.3432 7.65L53.0432 6.75C52.9932 6.63333 52.9432 6.51667 52.8932 6.4C52.8598 6.28333 52.8265 6.16667 52.7932 6.05L52.7182 5.95H52.6432L52.5932 6.025C52.5098 6.275 52.4098 6.525 52.2932 6.775C52.1932 7.025 52.1015 7.29167 52.0182 7.575C52.0182 7.60833 52.0098 7.65 51.9932 7.7C51.9765 7.75 51.9598 7.8 51.9432 7.85C51.8765 8.01667 51.8098 8.2 51.7432 8.4C51.6932 8.6 51.6515 8.8 51.6182 9C51.6015 9.11667 51.5848 9.23333 51.5682 9.35C51.5515 9.45 51.5265 9.55833 51.4932 9.675L51.2682 10.65C51.2515 10.6667 51.2598 10.6917 51.2932 10.725C51.3265 10.7417 51.3515 10.75 51.3682 10.75ZM64.0887 18.5C63.772 18.5333 63.5137 18.4333 63.3137 18.2C63.2137 18.1 63.122 17.9917 63.0387 17.875C62.9553 17.7583 62.8887 17.6333 62.8387 17.5C62.7553 17.2667 62.6803 17.0333 62.6137 16.8C62.547 16.55 62.4887 16.3083 62.4387 16.075C62.3887 15.8917 62.3637 15.7167 62.3637 15.55C62.347 15.3667 62.322 15.1917 62.2887 15.025C62.272 14.8417 62.2637 14.6583 62.2637 14.475C62.2637 14.375 62.2637 14.275 62.2637 14.175C62.2637 14.0583 62.2553 13.95 62.2387 13.85C62.222 13.7833 62.2137 13.725 62.2137 13.675C62.2137 13.625 62.2137 13.5667 62.2137 13.5C62.2137 13.2667 62.2137 13.0333 62.2137 12.8C62.2137 12.55 62.2053 12.3083 62.1887 12.075C62.1887 11.9417 62.1803 11.825 62.1637 11.725C62.147 11.6083 62.1137 11.4917 62.0637 11.375C61.997 11.1917 61.9887 10.9917 62.0387 10.775C62.0387 10.725 62.047 10.6917 62.0637 10.675C62.097 10.5583 62.1137 10.4417 62.1137 10.325C62.1303 10.2083 62.1303 10.0917 62.1137 9.975C62.097 9.89167 62.0887 9.80833 62.0887 9.725C62.0887 9.64167 62.0887 9.56667 62.0887 9.5C62.072 9.31667 62.0637 9.13333 62.0637 8.95C62.0803 8.75 62.097 8.55833 62.1137 8.375C62.1303 8.325 62.1387 8.275 62.1387 8.225C62.1387 8.175 62.1387 8.125 62.1387 8.075C62.122 7.89167 62.122 7.71667 62.1387 7.55C62.172 7.38333 62.197 7.21667 62.2137 7.05C62.247 6.85 62.2803 6.65833 62.3137 6.475C62.347 6.275 62.3887 6.075 62.4387 5.875C62.472 5.79167 62.4887 5.7 62.4887 5.6C62.4887 5.5 62.4887 5.4 62.4887 5.3C62.4887 5.21667 62.4803 5.13333 62.4637 5.05C62.4637 4.96667 62.4637 4.89167 62.4637 4.825C62.4637 4.775 62.4637 4.725 62.4637 4.675C62.4637 4.625 62.472 4.575 62.4887 4.525C62.5053 4.475 62.5137 4.425 62.5137 4.375C62.5137 4.325 62.522 4.29167 62.5387 4.275C62.5887 4.20833 62.6303 4.15 62.6637 4.1C62.697 4.03333 62.747 3.975 62.8137 3.925C62.897 3.875 62.972 3.825 63.0387 3.775C63.122 3.725 63.197 3.68333 63.2637 3.65C63.347 3.61667 63.4137 3.575 63.4637 3.525C63.5303 3.44167 63.597 3.36667 63.6637 3.3C63.747 3.21667 63.8137 3.125 63.8637 3.025C63.947 2.94167 64.0303 2.85 64.1137 2.75C64.2137 2.63333 64.322 2.54167 64.4387 2.475C64.472 2.45833 64.522 2.41667 64.5887 2.35C64.7887 2.16667 65.022 2.05 65.2887 2C65.3387 1.98333 65.3803 1.975 65.4137 1.975C65.4637 1.95833 65.5137 1.95 65.5637 1.95L65.7387 1.875C65.872 1.825 65.9887 1.85 66.0887 1.95C66.122 2 66.1637 2.05 66.2137 2.1C66.2803 2.13333 66.3387 2.16667 66.3887 2.2C66.522 2.31667 66.647 2.44167 66.7637 2.575C66.897 2.70833 67.0137 2.85833 67.1137 3.025C67.2803 3.29167 67.422 3.55833 67.5387 3.825C67.672 4.09167 67.797 4.36667 67.9137 4.65L68.3637 5.725C68.3803 5.825 68.422 5.91667 68.4887 6C68.622 6.25 68.722 6.50833 68.7887 6.775C68.8553 7.025 68.922 7.28333 68.9887 7.55C69.0053 7.58333 69.0137 7.61667 69.0137 7.65C69.0303 7.68333 69.0387 7.71667 69.0387 7.75C69.072 7.88333 69.097 8.025 69.1137 8.175C69.147 8.30833 69.1553 8.44167 69.1387 8.575C69.1553 8.725 69.147 8.875 69.1137 9.025C69.097 9.15833 69.072 9.29167 69.0387 9.425C68.9887 9.59167 68.9303 9.75 68.8637 9.9C68.797 10.0333 68.722 10.175 68.6387 10.325C68.6053 10.425 68.547 10.5167 68.4637 10.6C68.3803 10.6833 68.297 10.7583 68.2137 10.825C68.0803 10.8917 67.947 10.9917 67.8137 11.125C67.7803 11.1583 67.7387 11.1833 67.6887 11.2C67.6553 11.2167 67.622 11.2417 67.5887 11.275C67.472 11.325 67.347 11.3833 67.2137 11.45C67.0803 11.5 66.947 11.55 66.8137 11.6C66.797 11.6 66.7887 11.6167 66.7887 11.65C66.7887 11.6667 66.797 11.6833 66.8137 11.7L67.4887 12.175C67.572 12.225 67.647 12.275 67.7137 12.325C67.7803 12.3583 67.847 12.4 67.9137 12.45L68.0637 12.525C68.2637 12.6417 68.4637 12.7667 68.6637 12.9C68.8637 13.0333 69.0553 13.1667 69.2387 13.3C69.5887 13.5167 69.9387 13.7417 70.2887 13.975C70.6387 14.1917 70.972 14.4333 71.2887 14.7C71.572 14.9167 71.822 15.1667 72.0387 15.45C72.0887 15.5 72.1387 15.5583 72.1887 15.625C72.2387 15.675 72.297 15.7167 72.3637 15.75L72.4387 15.825C72.7053 16.0583 72.8553 16.375 72.8887 16.775C72.8887 16.825 72.8803 16.875 72.8637 16.925C72.8637 16.975 72.8637 17.025 72.8637 17.075C72.8637 17.175 72.8303 17.2583 72.7637 17.325C72.697 17.3583 72.6637 17.4 72.6637 17.45C72.6137 17.5667 72.5387 17.65 72.4387 17.7C72.3553 17.7333 72.272 17.7833 72.1887 17.85C72.1553 17.8667 72.097 17.875 72.0137 17.875C71.9137 17.8583 71.8053 17.8417 71.6887 17.825C71.5887 17.8083 71.4887 17.8 71.3887 17.8C71.2553 17.8 71.1137 17.7417 70.9637 17.625C70.8637 17.5417 70.772 17.4667 70.6887 17.4C70.6053 17.3167 70.522 17.2167 70.4387 17.1C70.222 16.8 69.9387 16.525 69.5887 16.275C69.422 16.1417 69.2637 16.0167 69.1137 15.9C68.9637 15.7833 68.797 15.675 68.6137 15.575C68.497 15.5083 68.3803 15.4417 68.2637 15.375C68.1637 15.2917 68.047 15.2167 67.9137 15.15C67.497 14.8667 67.072 14.5917 66.6387 14.325C66.2053 14.0417 65.772 13.7583 65.3387 13.475C65.272 13.425 65.197 13.375 65.1137 13.325C65.0303 13.275 64.947 13.225 64.8637 13.175C64.8303 13.1417 64.7803 13.1083 64.7137 13.075C64.647 13.075 64.6137 13.1 64.6137 13.15C64.6137 13.1667 64.6053 13.1833 64.5887 13.2C64.5887 13.2 64.5887 13.2083 64.5887 13.225C64.5887 13.275 64.5887 13.325 64.5887 13.375C64.5887 13.425 64.597 13.475 64.6137 13.525C64.6303 13.6583 64.6387 13.7917 64.6387 13.925C64.6387 14.0417 64.6387 14.1667 64.6387 14.3C64.6387 14.4 64.6387 14.5 64.6387 14.6C64.6553 14.6833 64.672 14.775 64.6887 14.875C64.6887 14.925 64.6887 14.9833 64.6887 15.05C64.7053 15.1 64.7137 15.15 64.7137 15.2C64.697 15.35 64.7053 15.5 64.7387 15.65C64.772 15.8 64.797 15.95 64.8137 16.1L64.9637 16.75C64.9803 16.8167 64.997 16.8917 65.0137 16.975C65.0303 17.0417 65.047 17.1167 65.0637 17.2C65.0803 17.2667 65.0803 17.3333 65.0637 17.4C65.0637 17.45 65.0553 17.5083 65.0387 17.575C65.0387 17.5917 65.022 17.6167 64.9887 17.65C64.9053 17.6667 64.847 17.725 64.8137 17.825C64.7637 17.9417 64.6887 18.0417 64.5887 18.125C64.5053 18.225 64.4137 18.3167 64.3137 18.4C64.297 18.4167 64.2637 18.4333 64.2137 18.45C64.1637 18.4667 64.122 18.4833 64.0887 18.5ZM65.0637 9.75H65.1137C65.297 9.71667 65.4803 9.68333 65.6637 9.65C65.8637 9.6 66.0553 9.54167 66.2387 9.475C66.422 9.425 66.5803 9.33333 66.7137 9.2C66.8303 9.08333 66.8887 8.95 66.8887 8.8C66.9053 8.68333 66.9053 8.575 66.8887 8.475C66.8887 8.35833 66.872 8.24167 66.8387 8.125C66.772 7.825 66.697 7.53333 66.6137 7.25C66.5303 6.95 66.4303 6.66667 66.3137 6.4L66.0887 5.8C66.0387 5.63333 65.9803 5.475 65.9137 5.325C65.847 5.15833 65.772 5 65.6887 4.85C65.672 4.81667 65.6553 4.78333 65.6387 4.75C65.622 4.7 65.6053 4.65833 65.5887 4.625L65.4887 4.525C65.4387 4.45833 65.3803 4.45833 65.3137 4.525C65.297 4.525 65.272 4.54167 65.2387 4.575C65.122 4.725 65.0137 4.88333 64.9137 5.05C64.8303 5.21667 64.7803 5.4 64.7637 5.6C64.747 5.66667 64.7303 5.73333 64.7137 5.8C64.7137 5.86667 64.7137 5.94167 64.7137 6.025V7.1C64.697 7.33333 64.6887 7.575 64.6887 7.825C64.7053 8.075 64.697 8.31667 64.6637 8.55C64.647 8.6 64.6387 8.65 64.6387 8.7C64.6553 8.75 64.6637 8.8 64.6637 8.85C64.6803 8.95 64.6887 9.05 64.6887 9.15C64.6887 9.23333 64.6887 9.325 64.6887 9.425C64.6887 9.59167 64.7053 9.69167 64.7387 9.725C64.7887 9.75833 64.897 9.76667 65.0637 9.75ZM76.8555 18.25C76.7555 18.25 76.6888 18.2417 76.6555 18.225C76.5888 18.1917 76.5305 18.1667 76.4805 18.15C76.4305 18.1333 76.3805 18.1167 76.3305 18.1C76.2805 18.0667 76.2305 18.0333 76.1805 18C76.1471 17.95 76.1138 17.9 76.0805 17.85C76.0471 17.8167 76.0138 17.8 75.9805 17.8C75.8805 17.8 75.8305 17.75 75.8305 17.65C75.8138 17.55 75.7971 17.45 75.7805 17.35C75.7638 17.25 75.7471 17.15 75.7305 17.05C75.7138 16.9 75.6971 16.75 75.6805 16.6C75.6805 16.45 75.6638 16.3083 75.6305 16.175V15.95C75.6305 15.8833 75.6221 15.825 75.6055 15.775C75.6055 15.725 75.6055 15.6667 75.6055 15.6C75.5721 15.5167 75.5721 15.45 75.6055 15.4C75.6388 15.1 75.6388 14.8 75.6055 14.5C75.5888 14.4167 75.5805 14.3333 75.5805 14.25C75.5805 14.1667 75.5721 14.0833 75.5555 14C75.5555 13.8333 75.5555 13.6667 75.5555 13.5C75.5555 13.3167 75.5388 13.1417 75.5055 12.975V12.575C75.5055 12.4417 75.4971 12.3167 75.4805 12.2C75.4805 12.0833 75.4721 11.9667 75.4555 11.85C75.4388 11.7 75.4221 11.55 75.4055 11.4C75.4055 11.25 75.3971 11.1 75.3805 10.95C75.3638 10.9167 75.3555 10.8583 75.3555 10.775C75.3388 10.6917 75.3221 10.6083 75.3055 10.525C75.3055 10.425 75.3055 10.3333 75.3055 10.25L75.2305 9C75.2138 8.86667 75.1971 8.74167 75.1805 8.625C75.1805 8.49167 75.1805 8.36667 75.1805 8.25C75.1638 8.05 75.1471 7.85 75.1305 7.65C75.1138 7.45 75.0971 7.25833 75.0805 7.075C75.0805 7.04167 75.0721 7.00833 75.0555 6.975C75.0555 6.94167 75.0555 6.91667 75.0555 6.9C75.0555 6.7 75.0471 6.5 75.0305 6.3C75.0138 6.1 74.9971 5.89167 74.9805 5.675L74.9055 4.975C74.8555 4.70833 74.8471 4.41667 74.8805 4.1C74.8805 3.95 74.9388 3.825 75.0555 3.725C75.0888 3.69167 75.1138 3.675 75.1305 3.675C75.1471 3.65833 75.1638 3.64167 75.1805 3.625C75.2638 3.60833 75.3055 3.55 75.3055 3.45C75.3055 3.41667 75.3388 3.4 75.4055 3.4H75.5305C75.5471 3.4 75.5555 3.4 75.5555 3.4C75.5721 3.38333 75.5888 3.375 75.6055 3.375C75.6388 3.35833 75.6638 3.34167 75.6805 3.325C75.7138 3.29167 75.7388 3.275 75.7555 3.275C75.7888 3.275 75.8221 3.28333 75.8555 3.3C75.8888 3.3 75.9221 3.30833 75.9555 3.325C75.9888 3.325 76.0138 3.31667 76.0305 3.3C76.1138 3.28333 76.1971 3.29167 76.2805 3.325C76.3805 3.34167 76.4638 3.36667 76.5305 3.4C76.6305 3.41667 76.7055 3.48333 76.7555 3.6C76.8055 3.75 76.8471 3.9 76.8805 4.05C76.9305 4.18333 76.9638 4.325 76.9805 4.475V4.675C77.0138 4.79167 77.0305 4.91667 77.0305 5.05C77.0305 5.16667 77.0305 5.29167 77.0305 5.425C77.0305 5.54167 77.0305 5.65833 77.0305 5.775C77.0471 5.875 77.0638 5.975 77.0805 6.075C77.0805 6.125 77.0805 6.175 77.0805 6.225C77.0805 6.275 77.0888 6.325 77.1055 6.375C77.1055 6.475 77.1055 6.575 77.1055 6.675C77.1221 6.775 77.1388 6.88333 77.1555 7C77.1721 7.18333 77.1888 7.375 77.2055 7.575C77.2221 7.775 77.2305 7.975 77.2305 8.175C77.2305 8.25833 77.2305 8.35 77.2305 8.45C77.2305 8.53333 77.2388 8.61667 77.2555 8.7C77.2721 8.75 77.2805 8.8 77.2805 8.85C77.2805 8.9 77.2805 8.95 77.2805 9V9.5C77.2805 9.6 77.2888 9.68333 77.3055 9.75C77.3388 9.86667 77.3471 9.98333 77.3305 10.1C77.3305 10.2 77.3388 10.3083 77.3555 10.425L77.4305 11.575C77.4471 11.7417 77.4555 11.9167 77.4555 12.1C77.4721 12.2667 77.4805 12.4417 77.4805 12.625C77.4805 12.6917 77.4805 12.7667 77.4805 12.85C77.4805 12.9167 77.4888 12.9833 77.5055 13.05C77.5221 13.1 77.5305 13.15 77.5305 13.2C77.5305 13.25 77.5305 13.3 77.5305 13.35C77.5471 13.3667 77.5471 13.4 77.5305 13.45C77.5305 13.4833 77.5388 13.5167 77.5555 13.55C77.5888 13.6667 77.6055 13.7833 77.6055 13.9C77.6055 14.0167 77.6055 14.1417 77.6055 14.275C77.6055 14.3417 77.6055 14.4167 77.6055 14.5C77.6221 14.5667 77.6305 14.6417 77.6305 14.725C77.6471 14.8083 77.6555 14.9 77.6555 15C77.6555 15.1 77.6555 15.1917 77.6555 15.275C77.6721 15.3583 77.6805 15.45 77.6805 15.55C77.6805 15.6333 77.6888 15.7167 77.7055 15.8C77.7221 15.8333 77.7305 15.8667 77.7305 15.9C77.7305 16.0833 77.7471 16.2667 77.7805 16.45C77.8138 16.6333 77.8471 16.8167 77.8805 17C77.8971 17.05 77.9055 17.1083 77.9055 17.175C77.9055 17.225 77.9055 17.275 77.9055 17.325C77.9055 17.375 77.8888 17.4167 77.8555 17.45C77.7888 17.5 77.7388 17.6 77.7055 17.75C77.7055 17.8 77.6805 17.8417 77.6305 17.875C77.5138 17.925 77.4138 17.9917 77.3305 18.075C77.1971 18.1917 77.0388 18.25 76.8555 18.25ZM83.4928 18.175C83.3928 18.175 83.3261 18.1667 83.2928 18.15C83.2094 18.1167 83.1261 18.1 83.0428 18.1C82.9761 18.1167 82.9011 18.125 82.8178 18.125C82.8011 18.125 82.7844 18.125 82.7678 18.125C82.7511 18.1417 82.7344 18.15 82.7178 18.15C82.6011 18.1667 82.4844 18.175 82.3678 18.175C82.2678 18.175 82.1678 18.1583 82.0678 18.125C82.0511 18.1083 82.0344 18.1 82.0178 18.1C81.9011 18.1167 81.8011 18.0833 81.7178 18C81.6344 17.9167 81.5511 17.8417 81.4678 17.775C81.3844 17.6917 81.3428 17.6 81.3428 17.5L81.2678 17.3C81.2178 17.1833 81.2011 17.075 81.2178 16.975C81.2344 16.9417 81.2344 16.9083 81.2178 16.875C81.2178 16.8417 81.2178 16.8083 81.2178 16.775C81.2011 16.7417 81.1928 16.7083 81.1928 16.675C81.1928 16.625 81.1844 16.5833 81.1678 16.55C81.1344 16.4 81.1094 16.25 81.0928 16.1C81.0928 15.9333 81.1011 15.775 81.1178 15.625C81.1344 15.525 81.1928 15.3583 81.2928 15.125C81.3928 14.875 81.4511 14.725 81.4678 14.675C81.5178 14.5917 81.5428 14.525 81.5428 14.475C81.5261 14.2917 81.5178 14.1083 81.5178 13.925C81.5344 13.725 81.5428 13.5333 81.5428 13.35C81.5428 13.2333 81.5678 13.1417 81.6178 13.075C81.6844 12.9583 81.6928 12.8333 81.6428 12.7L81.5678 12.425C81.4678 12.2417 81.4761 12.0833 81.5928 11.95C81.5928 11.9333 81.5928 11.925 81.5928 11.925C81.6094 11.9083 81.6178 11.8917 81.6178 11.875C81.6511 11.8417 81.6594 11.8 81.6428 11.75C81.6261 11.6833 81.6178 11.6333 81.6178 11.6C81.6178 11.5333 81.6261 11.4667 81.6428 11.4C81.6761 11.3167 81.6844 11.2417 81.6678 11.175C81.6678 11.175 81.6511 11.1583 81.6178 11.125C81.6011 11.0917 81.5928 11.025 81.5928 10.925C81.6094 10.825 81.6178 10.7667 81.6178 10.75V10.05C81.6344 9.96667 81.6428 9.89167 81.6428 9.825C81.6428 9.74167 81.6511 9.65833 81.6678 9.575C81.6844 9.475 81.6844 9.375 81.6678 9.275C81.6678 9.15833 81.6678 9.04167 81.6678 8.925C81.6511 8.84167 81.6344 8.75 81.6178 8.65C81.6178 8.55 81.6178 8.45 81.6178 8.35C81.6011 8.31667 81.5928 8.275 81.5928 8.225C81.5928 8.175 81.5928 8.13333 81.5928 8.1C81.5761 8.01667 81.5594 7.93333 81.5428 7.85C81.5428 7.76667 81.5428 7.68333 81.5428 7.6C81.5428 7.56667 81.5094 7.45833 81.4428 7.275C81.3761 7.075 81.3511 6.90833 81.3678 6.775C81.3844 6.74167 81.3928 6.7 81.3928 6.65C81.3928 6.6 81.3761 6.55833 81.3428 6.525C81.3094 6.50833 81.2928 6.475 81.2928 6.425V6.35C81.3428 6.15 81.3178 5.95 81.2178 5.75C81.1511 5.65 81.1261 5.55 81.1428 5.45C81.1428 5.31667 81.0844 5.21667 80.9678 5.15C80.8844 5.06667 80.8094 4.96667 80.7428 4.85C80.6761 4.73333 80.6344 4.61667 80.6178 4.5C80.6011 4.41667 80.5928 4.33333 80.5928 4.25C80.5928 4.16667 80.5928 4.09167 80.5928 4.025C80.5928 3.95833 80.6011 3.91667 80.6178 3.9C80.6844 3.83333 80.7178 3.75833 80.7178 3.675C80.7178 3.575 80.7261 3.5 80.7428 3.45C80.7594 3.43333 80.7761 3.425 80.7928 3.425C80.8094 3.425 80.8261 3.41667 80.8428 3.4C80.9094 3.38333 80.9428 3.325 80.9428 3.225C80.9094 3.15833 80.8928 3.1 80.8928 3.05C80.8761 2.98333 80.9011 2.925 80.9678 2.875C81.0011 2.80833 81.0428 2.79167 81.0928 2.825C81.2094 2.875 81.3428 2.85833 81.4928 2.775C81.5594 2.74167 81.6011 2.725 81.6178 2.725C81.6678 2.725 81.6928 2.725 81.6928 2.725C81.7094 2.70833 81.7594 2.7 81.8428 2.7C81.9428 2.71667 82.0344 2.68333 82.1178 2.6C82.2344 2.48333 82.3761 2.425 82.5428 2.425H84.0928C84.4761 2.44167 84.8594 2.44167 85.2428 2.425C85.6261 2.40833 86.0011 2.4 86.3678 2.4C86.4511 2.4 86.5178 2.4 86.5678 2.4C86.6344 2.38333 86.7011 2.36667 86.7678 2.35C86.8678 2.3 86.9844 2.275 87.1178 2.275H87.6928C87.8261 2.275 87.9428 2.275 88.0428 2.275C88.1594 2.25833 88.2761 2.24167 88.3928 2.225C88.4594 2.20833 88.5178 2.2 88.5678 2.2C88.6344 2.2 88.7011 2.2 88.7678 2.2C88.8344 2.2 88.9011 2.2 88.9678 2.2C89.0344 2.2 89.1011 2.19167 89.1678 2.175C89.3011 2.15833 89.4428 2.15 89.5928 2.15C89.7428 2.13333 89.8844 2.125 90.0178 2.125C90.0844 2.125 90.1428 2.125 90.1928 2.125C90.2594 2.10833 90.3261 2.09167 90.3928 2.075C90.5261 2.04167 90.6511 2.025 90.7678 2.025C90.9011 2.00833 91.0261 1.99167 91.1428 1.975C91.2761 1.95833 91.4011 1.94167 91.5178 1.925C91.6511 1.90833 91.7761 1.89167 91.8928 1.875C92.0428 1.875 92.1511 1.89167 92.2178 1.925C92.3178 1.99167 92.4094 2.05 92.4928 2.1C92.5928 2.15 92.6844 2.21667 92.7678 2.3C92.8344 2.36667 92.8761 2.425 92.8928 2.475C92.9094 2.54167 92.9261 2.60833 92.9428 2.675C92.9594 2.74167 92.9761 2.81667 92.9928 2.9V3.075C92.9761 3.15833 92.9594 3.25 92.9428 3.35C92.9428 3.43333 92.9344 3.525 92.9178 3.625C92.8844 3.69167 92.8428 3.75 92.7928 3.8L92.3428 4.25C92.1761 4.3 92.0094 4.33333 91.8428 4.35C91.6928 4.36667 91.5344 4.36667 91.3678 4.35H91.1928C91.1094 4.36667 91.0261 4.375 90.9428 4.375C90.8594 4.375 90.7761 4.36667 90.6928 4.35C90.5928 4.33333 90.4928 4.33333 90.3928 4.35C90.2928 4.35 90.1928 4.35 90.0928 4.35C90.0261 4.35 89.9594 4.35833 89.8928 4.375C89.8428 4.375 89.7844 4.36667 89.7178 4.35C89.6344 4.33333 89.5511 4.33333 89.4678 4.35C89.4011 4.35 89.3261 4.35833 89.2428 4.375C89.1761 4.375 89.1011 4.38333 89.0178 4.4C88.9511 4.4 88.8761 4.4 88.7928 4.4C88.5761 4.43333 88.3428 4.45 88.0928 4.45C87.8594 4.45 87.6261 4.46667 87.3928 4.5C87.2428 4.48333 87.1011 4.49167 86.9678 4.525C86.8344 4.54167 86.6928 4.55833 86.5428 4.575C86.4094 4.59167 86.2678 4.6 86.1178 4.6C85.9678 4.6 85.8261 4.61667 85.6928 4.65C85.5261 4.65 85.3594 4.675 85.1928 4.725C85.0428 4.75833 84.8844 4.78333 84.7178 4.8L84.5428 4.825C84.4261 4.825 84.3178 4.84167 84.2178 4.875C84.1178 4.89167 84.0094 4.91667 83.8928 4.95C83.8261 4.96667 83.7594 4.98333 83.6928 5C83.6261 5 83.5511 5.00833 83.4678 5.025C83.4178 5.025 83.3594 5.04167 83.2928 5.075C83.2428 5.09167 83.2178 5.14167 83.2178 5.225L83.2928 5.45C83.3094 5.48333 83.3011 5.56667 83.2678 5.7C83.2511 5.83333 83.2344 5.93333 83.2178 6C83.2178 6.05 83.2261 6.1 83.2428 6.15C83.2594 6.2 83.2761 6.25 83.2928 6.3C83.3428 6.43333 83.3678 6.58333 83.3678 6.75C83.3678 6.9 83.3844 7.04167 83.4178 7.175C83.4344 7.24167 83.4428 7.31667 83.4428 7.4C83.4428 7.46667 83.4511 7.54167 83.4678 7.625C83.4678 7.65833 83.4678 7.7 83.4678 7.75C83.4844 7.78333 83.4928 7.825 83.4928 7.875C83.4928 7.925 83.4844 7.95833 83.4678 7.975C83.4178 8.04167 83.3928 8.11667 83.3928 8.2C83.3928 8.28333 83.3928 8.36667 83.3928 8.45C83.4761 8.61667 83.5178 8.78333 83.5178 8.95C83.5178 9.11667 83.5178 9.28333 83.5178 9.45C83.5178 9.5 83.5594 9.51667 83.6428 9.5H83.6678C83.7011 9.43333 83.7344 9.38333 83.7678 9.35C83.8178 9.35 83.8761 9.33333 83.9428 9.3C83.9928 9.26667 84.0594 9.25 84.1428 9.25C84.2761 9.26667 84.4011 9.26667 84.5178 9.25C84.6344 9.21667 84.7511 9.18333 84.8678 9.15C85.6511 8.95 86.3844 8.69167 87.0678 8.375C87.2511 8.29167 87.4428 8.225 87.6428 8.175C87.8428 8.10833 88.0428 8.06667 88.2428 8.05H88.3178C88.4678 8.03333 88.6178 8.01667 88.7678 8C88.9178 7.98333 89.0678 7.975 89.2178 7.975C89.4178 7.95833 89.6094 7.93333 89.7928 7.9C89.9928 7.86667 90.1928 7.84167 90.3928 7.825C90.5094 7.79167 90.6178 7.76667 90.7178 7.75C90.8178 7.71667 90.9261 7.675 91.0428 7.625C91.2594 7.54167 91.4594 7.5 91.6428 7.5C91.7761 7.51667 91.9011 7.55 92.0178 7.6C92.1344 7.63333 92.2511 7.68333 92.3678 7.75C92.6178 7.91667 92.7428 8.16667 92.7428 8.5C92.7428 8.63333 92.7261 8.76667 92.6928 8.9C92.6761 9.03333 92.6678 9.16667 92.6678 9.3C92.6678 9.33333 92.6511 9.36667 92.6178 9.4L92.5428 9.525C92.5261 9.59167 92.5094 9.65833 92.4928 9.725C92.4761 9.79167 92.4344 9.84167 92.3678 9.875C92.2678 9.95833 92.1594 10.05 92.0428 10.15C91.9428 10.2333 91.8261 10.2917 91.6928 10.325C91.6261 10.3417 91.5594 10.3583 91.4928 10.375C91.4428 10.3917 91.3844 10.4 91.3178 10.4C91.0511 10.4 90.7761 10.4167 90.4928 10.45C90.2261 10.4833 89.9511 10.5167 89.6678 10.55C89.4511 10.5667 89.2344 10.5917 89.0178 10.625C88.8178 10.6583 88.6094 10.675 88.3928 10.675C88.1928 10.675 87.9678 10.7167 87.7178 10.8C87.5511 10.8333 87.3761 10.8667 87.1928 10.9C87.0094 10.9333 86.8261 10.9583 86.6428 10.975C86.5094 10.9917 86.3678 11.0167 86.2178 11.05C86.0844 11.0667 85.9511 11.0833 85.8178 11.1L85.3928 11.175C85.3594 11.1917 85.3094 11.2 85.2428 11.2C85.1261 11.2333 85.0094 11.2583 84.8928 11.275C84.7761 11.2917 84.6594 11.3167 84.5428 11.35C84.4261 11.3667 84.3094 11.3917 84.1928 11.425C84.0928 11.4583 83.9844 11.4917 83.8678 11.525C83.7844 11.5417 83.7178 11.575 83.6678 11.625C83.6178 11.6583 83.5761 11.7083 83.5428 11.775C83.5261 11.825 83.5261 11.875 83.5428 11.925C83.5594 11.9917 83.5511 12.0583 83.5178 12.125C83.5344 12.2917 83.5428 12.4583 83.5428 12.625C83.5594 12.7917 83.5594 12.9583 83.5428 13.125C83.5761 13.2583 83.5844 13.3917 83.5678 13.525C83.5678 13.6583 83.5594 13.7917 83.5428 13.925C83.5094 14.125 83.5178 14.2917 83.5678 14.425C83.6178 14.6417 83.6011 14.8667 83.5178 15.1C83.4844 15.2 83.4844 15.2667 83.5178 15.3C83.5511 15.35 83.5511 15.4083 83.5178 15.475V15.625C83.5011 15.7583 83.5594 15.825 83.6928 15.825H83.7428C83.8594 15.825 83.9761 15.8667 84.0928 15.95C84.1761 16.0333 84.2761 16.0583 84.3928 16.025L85.0928 15.95C85.1928 15.9333 85.2928 15.925 85.3928 15.925C85.4928 15.9083 85.5928 15.9 85.6928 15.9C85.7261 15.8833 85.7761 15.8917 85.8428 15.925C85.9261 15.975 86.0011 15.9833 86.0678 15.95C86.1011 15.9167 86.1428 15.8917 86.1928 15.875C86.2594 15.8583 86.3094 15.8333 86.3428 15.8C86.4428 15.7 86.5678 15.6667 86.7178 15.7C86.8511 15.7333 86.9594 15.725 87.0428 15.675C87.1928 15.625 87.3344 15.6083 87.4678 15.625C87.5511 15.6417 87.6344 15.6333 87.7178 15.6C87.8011 15.5667 87.8844 15.55 87.9678 15.55C88.0011 15.55 88.0261 15.5583 88.0428 15.575C88.0594 15.575 88.0761 15.5667 88.0928 15.55C88.1261 15.55 88.1594 15.5417 88.1928 15.525C88.2261 15.5083 88.2511 15.5 88.2678 15.5C88.3844 15.45 88.4928 15.4333 88.5928 15.45C88.6761 15.45 88.7178 15.45 88.7178 15.45C88.7844 15.4333 88.8428 15.4333 88.8928 15.45C88.9594 15.4667 89.0178 15.4917 89.0678 15.525C89.1511 15.5417 89.2178 15.5667 89.2678 15.6C89.3344 15.6333 89.4011 15.6583 89.4678 15.675C89.5011 15.675 89.5261 15.6833 89.5428 15.7C89.6261 15.7667 89.7261 15.825 89.8428 15.875C89.9761 15.925 90.0511 15.9833 90.0678 16.05C90.1011 16.15 90.1178 16.25 90.1178 16.35C90.1178 16.4333 90.1261 16.525 90.1428 16.625C90.1428 16.675 90.1344 16.725 90.1178 16.775C90.1178 16.825 90.1094 16.875 90.0928 16.925C90.0594 16.9917 90.0178 17.0667 89.9678 17.15C89.9344 17.2333 89.8844 17.3083 89.8178 17.375C89.7844 17.4083 89.7511 17.4417 89.7178 17.475C89.7011 17.5083 89.6761 17.5417 89.6428 17.575C89.5761 17.6417 89.5011 17.7 89.4178 17.75C89.3344 17.8 89.2428 17.825 89.1428 17.825C89.0761 17.825 89.0261 17.8333 88.9928 17.85C88.9261 17.8833 88.8594 17.9 88.7928 17.9C88.7261 17.9 88.6511 17.9 88.5678 17.9C88.4511 17.9167 88.3344 17.9333 88.2178 17.95C88.1178 17.95 88.0094 17.9417 87.8928 17.925C87.8261 17.9083 87.7678 17.9083 87.7178 17.925C87.5511 17.975 87.3844 17.9833 87.2178 17.95C87.0511 17.95 86.8844 17.9583 86.7178 17.975C86.5678 17.975 86.4178 17.975 86.2678 17.975H85.9428C85.8928 17.975 85.8511 17.9833 85.8178 18C85.7511 18.0333 85.6678 18.05 85.5678 18.05C85.4844 18.05 85.4011 18.0417 85.3178 18.025H85.0678C85.0511 18.025 85.0261 18.025 84.9928 18.025C84.9594 18.0417 84.9261 18.0417 84.8928 18.025C84.8428 18.0083 84.7928 18 84.7428 18C84.7094 18.0167 84.6678 18.0333 84.6178 18.05C84.5844 18.05 84.5511 18.05 84.5178 18.05C84.5011 18.0667 84.4761 18.075 84.4428 18.075C84.2761 18.0583 84.1178 18.0583 83.9678 18.075C83.8178 18.1083 83.6594 18.1417 83.4928 18.175Z" fill="#353535"/>
</svg>
