<svg width="140" height="29" viewBox="0 0 140 29" fill="none" xmlns="http://www.w3.org/2000/svg">
<path d="M2.99336 28.25C2.81003 28.3 2.65169 28.2333 2.51836 28.05L2.44336 27.85C2.41003 27.7167 2.37669 27.575 2.34336 27.425C2.31003 27.275 2.28503 27.1333 2.26836 27L2.19336 26.5C2.17669 26.4167 2.16003 26.325 2.14336 26.225C2.14336 26.1417 2.13503 26.0583 2.11836 25.975C2.11836 25.875 2.11003 25.775 2.09336 25.675C2.09336 25.5917 2.08503 25.5 2.06836 25.4C2.06836 25.3167 2.06836 25.2333 2.06836 25.15C2.06836 25.0833 2.06003 25.0083 2.04336 24.925C2.04336 24.8583 2.04336 24.7917 2.04336 24.725C2.04336 24.6583 2.03503 24.5917 2.01836 24.525C2.01836 24.4417 2.01003 24.35 1.99336 24.25C1.99336 24.1667 1.99336 24.0833 1.99336 24C1.97669 23.8833 1.96836 23.7667 1.96836 23.65C1.96836 23.5333 1.96003 23.4167 1.94336 23.3L1.86836 22.625V22.4C1.88503 22.2833 1.89336 22.1667 1.89336 22.05C1.89336 21.95 1.90169 21.8417 1.91836 21.725V21.525C1.93503 21.375 1.92669 21.225 1.89336 21.075C1.87669 20.9417 1.88503 20.8 1.91836 20.65C1.91836 20.5167 1.91003 20.375 1.89336 20.225C1.89336 20.075 1.89336 19.9333 1.89336 19.8C1.89336 19.7 1.90169 19.625 1.91836 19.575C1.93503 19.3917 1.92669 19.2083 1.89336 19.025C1.87669 18.8583 1.86836 18.6917 1.86836 18.525C1.86836 18.4583 1.86003 18.4083 1.84336 18.375C1.82669 18.325 1.80169 18.275 1.76836 18.225C1.65169 18.0583 1.59336 17.8583 1.59336 17.625C1.59336 17.5083 1.58503 17.4167 1.56836 17.35C1.56836 17.25 1.57669 17.175 1.59336 17.125C1.62669 16.8417 1.61836 16.5833 1.56836 16.35C1.56836 16.2667 1.56836 16.1917 1.56836 16.125C1.56836 16.0417 1.56003 15.9667 1.54336 15.9C1.54336 15.7833 1.54336 15.6667 1.54336 15.55C1.54336 15.4167 1.52669 15.2917 1.49336 15.175V15.15C1.47669 14.9333 1.46003 14.725 1.44336 14.525C1.44336 14.325 1.43503 14.1167 1.41836 13.9V13.775C1.38503 13.5417 1.36003 13.3083 1.34336 13.075C1.34336 12.825 1.31836 12.575 1.26836 12.325C1.25169 12.2417 1.24336 12.1583 1.24336 12.075C1.24336 11.975 1.24336 11.8833 1.24336 11.8C1.24336 11.65 1.23503 11.5083 1.21836 11.375C1.20169 11.225 1.17669 11.075 1.14336 10.925C1.14336 10.8583 1.13503 10.7917 1.11836 10.725C1.11836 10.6583 1.11836 10.5917 1.11836 10.525L1.04336 10C1.02669 9.95 1.01003 9.9 0.993359 9.85C0.993359 9.8 0.993359 9.74167 0.993359 9.675L0.918359 8.9C0.918359 8.83333 0.901693 8.76667 0.868359 8.7C0.851693 8.56667 0.826693 8.43333 0.793359 8.3C0.776693 8.15 0.776693 8.00833 0.793359 7.875C0.793359 7.75833 0.785026 7.66667 0.768359 7.6C0.751693 7.5 0.743359 7.4 0.743359 7.3C0.743359 7.18333 0.743359 7.075 0.743359 6.975C0.743359 6.74167 0.735026 6.50833 0.718359 6.275C0.718359 6.04167 0.726693 5.81667 0.743359 5.6C0.743359 5.45 0.743359 5.30833 0.743359 5.175C0.760026 5.025 0.776693 4.88333 0.793359 4.75V4.5C0.793359 4.36667 0.768359 4.24167 0.718359 4.125C0.685026 4.075 0.651693 4.01667 0.618359 3.95C0.601693 3.9 0.585026 3.85 0.568359 3.8C0.551693 3.73333 0.526693 3.66667 0.493359 3.6C0.410026 3.36667 0.435026 3.13333 0.568359 2.9C0.568359 2.88333 0.568359 2.875 0.568359 2.875C0.585026 2.85833 0.593359 2.84167 0.593359 2.825C0.643359 2.69167 0.735026 2.56667 0.868359 2.45C1.06836 2.3 1.20169 2.11667 1.26836 1.9C1.36836 1.66667 1.51836 1.48333 1.71836 1.35C1.76836 1.31667 1.81003 1.29167 1.84336 1.275C1.89336 1.24167 1.94336 1.225 1.99336 1.225C2.06003 1.20833 2.13503 1.15833 2.21836 1.075C2.23503 1.05833 2.26836 1.05 2.31836 1.05L2.81836 1.125C2.91836 1.125 3.00169 1.15833 3.06836 1.225C3.13503 1.29167 3.19336 1.35 3.24336 1.4C3.31003 1.45 3.35169 1.51667 3.36836 1.6L3.51836 1.75C3.60169 1.83333 3.68503 1.86667 3.76836 1.85C3.85169 1.83333 3.92669 1.83333 3.99336 1.85C4.06003 1.86667 4.12669 1.89167 4.19336 1.925C4.29336 1.975 4.39336 2.01667 4.49336 2.05C4.61003 2.08333 4.71836 2.11667 4.81836 2.15C4.88503 2.16667 4.94336 2.19167 4.99336 2.225C5.06003 2.25833 5.12669 2.29167 5.19336 2.325C5.39336 2.40833 5.59336 2.5 5.79336 2.6C5.99336 2.68333 6.18503 2.79167 6.36836 2.925C6.56836 3.05833 6.76836 3.2 6.96836 3.35C7.18503 3.48333 7.37669 3.63333 7.54336 3.8L8.66836 4.75C8.76836 4.81667 8.86003 4.9 8.94336 5C9.02669 5.08333 9.11003 5.16667 9.19336 5.25C9.36003 5.41667 9.54336 5.575 9.74336 5.725C9.87669 5.80833 9.99336 5.9 10.0934 6C10.21 6.1 10.3267 6.2 10.4434 6.3C10.5767 6.41667 10.7017 6.54167 10.8184 6.675C10.935 6.80833 11.0517 6.94167 11.1684 7.075C11.3184 7.24167 11.4517 7.41667 11.5684 7.6C11.685 7.78333 11.7767 7.98333 11.8434 8.2L12.0684 8.8C12.1517 9 12.2184 9.20833 12.2684 9.425C12.3184 9.625 12.335 9.84167 12.3184 10.075V10.45C12.335 10.65 12.3267 10.85 12.2934 11.05C12.26 11.25 12.2184 11.4417 12.1684 11.625C12.1517 11.7083 12.135 11.7917 12.1184 11.875C12.1017 11.9417 12.085 12.0167 12.0684 12.1C11.9684 12.3833 11.8434 12.6667 11.6934 12.95C11.6267 13.0667 11.56 13.1917 11.4934 13.325C11.4267 13.4417 11.3517 13.5667 11.2684 13.7C11.235 13.7667 11.1934 13.825 11.1434 13.875C10.9767 14.0917 10.7934 14.3 10.5934 14.5C10.41 14.7 10.21 14.8917 9.99336 15.075C9.92669 15.125 9.86003 15.1833 9.79336 15.25C9.72669 15.3 9.66003 15.3583 9.59336 15.425C9.57669 15.4583 9.54336 15.4917 9.49336 15.525C9.46003 15.5583 9.42669 15.5917 9.39336 15.625C9.29336 15.725 9.19336 15.825 9.09336 15.925C9.01003 16.0083 8.92669 16.1083 8.84336 16.225L8.76836 16.325C8.65169 16.425 8.54336 16.5333 8.44336 16.65C8.34336 16.7667 8.23503 16.875 8.11836 16.975C8.05169 17.0417 7.97669 17.1167 7.89336 17.2C7.81003 17.2667 7.72669 17.3417 7.64336 17.425C7.62669 17.4417 7.61003 17.4583 7.59336 17.475C7.57669 17.4917 7.55169 17.5167 7.51836 17.55C7.50169 17.5833 7.47669 17.6167 7.44336 17.65C7.41003 17.6667 7.37669 17.6917 7.34336 17.725L7.04336 18.025C6.92669 18.1417 6.81003 18.25 6.69336 18.35C6.57669 18.45 6.45169 18.5583 6.31836 18.675C6.30169 18.6917 6.27669 18.7083 6.24336 18.725C6.22669 18.7417 6.21003 18.7667 6.19336 18.8C6.12669 18.8667 6.05169 18.925 5.96836 18.975C5.88503 19.025 5.80169 19.0833 5.71836 19.15C5.66836 19.2 5.61003 19.225 5.54336 19.225C5.44336 19.2583 5.36003 19.275 5.29336 19.275C5.17669 19.275 5.07669 19.325 4.99336 19.425C4.92669 19.4917 4.86003 19.5667 4.79336 19.65C4.72669 19.7333 4.66003 19.8167 4.59336 19.9L4.01836 20.65C3.86836 20.8 3.76836 20.9917 3.71836 21.225C3.70169 21.3417 3.68503 21.4583 3.66836 21.575C3.65169 21.7083 3.62669 21.8417 3.59336 21.975C3.54336 22.175 3.51836 22.3917 3.51836 22.625C3.53503 22.8083 3.52669 22.9833 3.49336 23.15C3.47669 23.3333 3.46003 23.5167 3.44336 23.7V23.85C3.44336 23.9667 3.45169 24.0833 3.46836 24.2C3.48503 24.3333 3.48503 24.4667 3.46836 24.6C3.45169 24.7167 3.44336 24.8333 3.44336 24.95C3.44336 25.0833 3.44336 25.2083 3.44336 25.325C3.44336 25.4417 3.44336 25.55 3.44336 25.65C3.44336 25.75 3.43503 25.85 3.41836 25.95C3.41836 26.0667 3.41003 26.1833 3.39336 26.3C3.39336 26.4333 3.40169 26.5583 3.41836 26.675V26.925C3.41836 26.9917 3.41836 27.0583 3.41836 27.125C3.41836 27.1917 3.41003 27.2667 3.39336 27.35C3.39336 27.4333 3.38503 27.5167 3.36836 27.6C3.36836 27.7 3.36003 27.7917 3.34336 27.875C3.34336 27.8917 3.33503 27.9 3.31836 27.9C3.31836 27.9 3.31836 27.9083 3.31836 27.925C3.26836 28.125 3.16003 28.2333 2.99336 28.25ZM5.14336 15.825C5.17669 15.825 5.21003 15.8083 5.24336 15.775C5.32669 15.7417 5.41003 15.7 5.49336 15.65C5.57669 15.6 5.65169 15.55 5.71836 15.5C5.85169 15.4333 5.99336 15.325 6.14336 15.175C6.32669 14.975 6.51836 14.7833 6.71836 14.6C6.91836 14.4 7.11003 14.2 7.29336 14C7.47669 13.8 7.66836 13.6 7.86836 13.4C8.06836 13.1833 8.26003 12.9833 8.44336 12.8L8.94336 12.275C9.01003 12.2083 9.06836 12.1417 9.11836 12.075C9.16836 11.9917 9.21836 11.9167 9.26836 11.85C9.40169 11.6667 9.44336 11.4583 9.39336 11.225C9.34336 10.8583 9.24336 10.5167 9.09336 10.2C9.04336 10.05 8.98503 9.90833 8.91836 9.775C8.85169 9.625 8.78503 9.48333 8.71836 9.35C8.65169 9.25 8.61003 9.175 8.59336 9.125C8.54336 9.075 8.50169 9.01667 8.46836 8.95C8.36836 8.8 8.26003 8.66667 8.14336 8.55C8.11003 8.51667 8.06836 8.48333 8.01836 8.45C7.98503 8.4 7.95169 8.35 7.91836 8.3C7.85169 8.2 7.78503 8.1 7.71836 8C7.66836 7.9 7.60169 7.80833 7.51836 7.725C7.40169 7.54167 7.31836 7.43333 7.26836 7.4C7.21836 7.35 7.10169 7.26667 6.91836 7.15C6.71836 7.03333 6.55169 6.90833 6.41836 6.775L6.26836 6.625C6.11836 6.50833 5.96836 6.4 5.81836 6.3C5.68503 6.2 5.54336 6.09167 5.39336 5.975C5.22669 5.85833 5.06003 5.75833 4.89336 5.675C4.72669 5.575 4.55169 5.475 4.36836 5.375C4.31836 5.34167 4.26003 5.31667 4.19336 5.3C4.12669 5.28333 4.06003 5.26667 3.99336 5.25C3.92669 5.23333 3.86836 5.25 3.81836 5.3L3.76836 5.425C3.73503 5.49167 3.71836 5.60833 3.71836 5.775L3.79336 6.45C3.82669 6.63333 3.86003 6.81667 3.89336 7C3.94336 7.18333 3.98503 7.36667 4.01836 7.55V7.65C4.05169 7.81667 4.07669 7.99167 4.09336 8.175C4.11003 8.35833 4.13503 8.54167 4.16836 8.725C4.20169 8.875 4.22669 9.025 4.24336 9.175C4.26003 9.325 4.27669 9.475 4.29336 9.625C4.31003 9.75833 4.32669 9.89167 4.34336 10.025C4.37669 10.1417 4.40169 10.2667 4.41836 10.4C4.46836 10.6833 4.51003 10.9667 4.54336 11.25C4.59336 11.5167 4.63503 11.7917 4.66836 12.075L4.74336 12.7C4.76003 12.7667 4.76836 12.8333 4.76836 12.9C4.76836 12.95 4.77669 13 4.79336 13.05V13.25C4.82669 13.4333 4.85169 13.625 4.86836 13.825C4.90169 14.0083 4.92669 14.2 4.94336 14.4C4.96003 14.4333 4.96836 14.4833 4.96836 14.55C4.95169 14.7333 4.96003 14.925 4.99336 15.125C5.02669 15.325 5.04336 15.5167 5.04336 15.7V15.775C5.04336 15.7917 5.05169 15.8083 5.06836 15.825C5.10169 15.8417 5.12669 15.8417 5.14336 15.825ZM16.6768 19.25C16.5768 19.25 16.5101 19.2417 16.4768 19.225C16.4101 19.1917 16.3518 19.1667 16.3018 19.15C16.2518 19.1333 16.2018 19.1167 16.1518 19.1C16.1018 19.0667 16.0518 19.0333 16.0018 19C15.9684 18.95 15.9351 18.9 15.9018 18.85C15.8684 18.8167 15.8351 18.8 15.8018 18.8C15.7018 18.8 15.6518 18.75 15.6518 18.65C15.6351 18.55 15.6184 18.45 15.6018 18.35C15.5851 18.25 15.5684 18.15 15.5518 18.05C15.5351 17.9 15.5184 17.75 15.5018 17.6C15.5018 17.45 15.4851 17.3083 15.4518 17.175V16.95C15.4518 16.8833 15.4434 16.825 15.4268 16.775C15.4268 16.725 15.4268 16.6667 15.4268 16.6C15.3934 16.5167 15.3934 16.45 15.4268 16.4C15.4601 16.1 15.4601 15.8 15.4268 15.5C15.4101 15.4167 15.4018 15.3333 15.4018 15.25C15.4018 15.1667 15.3934 15.0833 15.3768 15C15.3768 14.8333 15.3768 14.6667 15.3768 14.5C15.3768 14.3167 15.3601 14.1417 15.3268 13.975V13.575C15.3268 13.4417 15.3184 13.3167 15.3018 13.2C15.3018 13.0833 15.2934 12.9667 15.2768 12.85C15.2601 12.7 15.2434 12.55 15.2268 12.4C15.2268 12.25 15.2184 12.1 15.2018 11.95C15.1851 11.9167 15.1768 11.8583 15.1768 11.775C15.1601 11.6917 15.1434 11.6083 15.1268 11.525C15.1268 11.425 15.1268 11.3333 15.1268 11.25L15.0518 10C15.0351 9.86667 15.0184 9.74167 15.0018 9.625C15.0018 9.49167 15.0018 9.36667 15.0018 9.25C14.9851 9.05 14.9684 8.85 14.9518 8.65C14.9351 8.45 14.9184 8.25833 14.9018 8.075C14.9018 8.04167 14.8934 8.00833 14.8768 7.975C14.8768 7.94167 14.8768 7.91667 14.8768 7.9C14.8768 7.7 14.8684 7.5 14.8518 7.3C14.8351 7.1 14.8184 6.89167 14.8018 6.675L14.7268 5.975C14.6768 5.70833 14.6684 5.41667 14.7018 5.1C14.7018 4.95 14.7601 4.825 14.8768 4.725C14.9101 4.69167 14.9351 4.675 14.9518 4.675C14.9684 4.65833 14.9851 4.64167 15.0018 4.625C15.0851 4.60833 15.1268 4.55 15.1268 4.45C15.1268 4.41667 15.1601 4.4 15.2268 4.4H15.3518C15.3684 4.4 15.3768 4.4 15.3768 4.4C15.3934 4.38333 15.4101 4.375 15.4268 4.375C15.4601 4.35833 15.4851 4.34167 15.5018 4.325C15.5351 4.29167 15.5601 4.275 15.5768 4.275C15.6101 4.275 15.6434 4.28333 15.6768 4.3C15.7101 4.3 15.7434 4.30833 15.7768 4.325C15.8101 4.325 15.8351 4.31667 15.8518 4.3C15.9351 4.28333 16.0184 4.29167 16.1018 4.325C16.2018 4.34167 16.2851 4.36667 16.3518 4.4C16.4518 4.41667 16.5268 4.48333 16.5768 4.6C16.6268 4.75 16.6684 4.9 16.7018 5.05C16.7518 5.18333 16.7851 5.325 16.8018 5.475V5.675C16.8351 5.79167 16.8518 5.91667 16.8518 6.05C16.8518 6.16667 16.8518 6.29167 16.8518 6.425C16.8518 6.54167 16.8518 6.65833 16.8518 6.775C16.8684 6.875 16.8851 6.975 16.9018 7.075C16.9018 7.125 16.9018 7.175 16.9018 7.225C16.9018 7.275 16.9101 7.325 16.9268 7.375C16.9268 7.475 16.9268 7.575 16.9268 7.675C16.9434 7.775 16.9601 7.88333 16.9768 8C16.9934 8.18333 17.0101 8.375 17.0268 8.575C17.0434 8.775 17.0518 8.975 17.0518 9.175C17.0518 9.25833 17.0518 9.35 17.0518 9.45C17.0518 9.53333 17.0601 9.61667 17.0768 9.7C17.0934 9.75 17.1018 9.8 17.1018 9.85C17.1018 9.9 17.1018 9.95 17.1018 10V10.5C17.1018 10.6 17.1101 10.6833 17.1268 10.75C17.1601 10.8667 17.1684 10.9833 17.1518 11.1C17.1518 11.2 17.1601 11.3083 17.1768 11.425L17.2518 12.575C17.2684 12.7417 17.2768 12.9167 17.2768 13.1C17.2934 13.2667 17.3018 13.4417 17.3018 13.625C17.3018 13.6917 17.3018 13.7667 17.3018 13.85C17.3018 13.9167 17.3101 13.9833 17.3268 14.05C17.3434 14.1 17.3518 14.15 17.3518 14.2C17.3518 14.25 17.3518 14.3 17.3518 14.35C17.3684 14.3667 17.3684 14.4 17.3518 14.45C17.3518 14.4833 17.3601 14.5167 17.3768 14.55C17.4101 14.6667 17.4268 14.7833 17.4268 14.9C17.4268 15.0167 17.4268 15.1417 17.4268 15.275C17.4268 15.3417 17.4268 15.4167 17.4268 15.5C17.4434 15.5667 17.4518 15.6417 17.4518 15.725C17.4684 15.8083 17.4768 15.9 17.4768 16C17.4768 16.1 17.4768 16.1917 17.4768 16.275C17.4934 16.3583 17.5018 16.45 17.5018 16.55C17.5018 16.6333 17.5101 16.7167 17.5268 16.8C17.5434 16.8333 17.5518 16.8667 17.5518 16.9C17.5518 17.0833 17.5684 17.2667 17.6018 17.45C17.6351 17.6333 17.6684 17.8167 17.7018 18C17.7184 18.05 17.7268 18.1083 17.7268 18.175C17.7268 18.225 17.7268 18.275 17.7268 18.325C17.7268 18.375 17.7101 18.4167 17.6768 18.45C17.6101 18.5 17.5601 18.6 17.5268 18.75C17.5268 18.8 17.5018 18.8417 17.4518 18.875C17.3351 18.925 17.2351 18.9917 17.1518 19.075C17.0184 19.1917 16.8601 19.25 16.6768 19.25ZM22.7088 19.5C22.3921 19.5333 22.1338 19.4333 21.9338 19.2C21.8338 19.1 21.7421 18.9917 21.6588 18.875C21.5755 18.7583 21.5088 18.6333 21.4588 18.5C21.3755 18.2667 21.3005 18.0333 21.2338 17.8C21.1671 17.55 21.1088 17.3083 21.0588 17.075C21.0088 16.8917 20.9838 16.7167 20.9838 16.55C20.9671 16.3667 20.9421 16.1917 20.9088 16.025C20.8921 15.8417 20.8838 15.6583 20.8838 15.475C20.8838 15.375 20.8838 15.275 20.8838 15.175C20.8838 15.0583 20.8755 14.95 20.8588 14.85C20.8421 14.7833 20.8338 14.725 20.8338 14.675C20.8338 14.625 20.8338 14.5667 20.8338 14.5C20.8338 14.2667 20.8338 14.0333 20.8338 13.8C20.8338 13.55 20.8255 13.3083 20.8088 13.075C20.8088 12.9417 20.8005 12.825 20.7838 12.725C20.7671 12.6083 20.7338 12.4917 20.6838 12.375C20.6171 12.1917 20.6088 11.9917 20.6588 11.775C20.6588 11.725 20.6671 11.6917 20.6838 11.675C20.7171 11.5583 20.7338 11.4417 20.7338 11.325C20.7505 11.2083 20.7505 11.0917 20.7338 10.975C20.7171 10.8917 20.7088 10.8083 20.7088 10.725C20.7088 10.6417 20.7088 10.5667 20.7088 10.5C20.6921 10.3167 20.6838 10.1333 20.6838 9.95C20.7005 9.75 20.7171 9.55833 20.7338 9.375C20.7505 9.325 20.7588 9.275 20.7588 9.225C20.7588 9.175 20.7588 9.125 20.7588 9.075C20.7421 8.89167 20.7421 8.71667 20.7588 8.55C20.7921 8.38333 20.8171 8.21667 20.8338 8.05C20.8671 7.85 20.9005 7.65833 20.9338 7.475C20.9671 7.275 21.0088 7.075 21.0588 6.875C21.0921 6.79167 21.1088 6.7 21.1088 6.6C21.1088 6.5 21.1088 6.4 21.1088 6.3C21.1088 6.21667 21.1005 6.13333 21.0838 6.05C21.0838 5.96667 21.0838 5.89167 21.0838 5.825C21.0838 5.775 21.0838 5.725 21.0838 5.675C21.0838 5.625 21.0921 5.575 21.1088 5.525C21.1255 5.475 21.1338 5.425 21.1338 5.375C21.1338 5.325 21.1421 5.29167 21.1588 5.275C21.2088 5.20833 21.2505 5.15 21.2838 5.1C21.3171 5.03333 21.3671 4.975 21.4338 4.925C21.5171 4.875 21.5921 4.825 21.6588 4.775C21.7421 4.725 21.8171 4.68333 21.8838 4.65C21.9671 4.61667 22.0338 4.575 22.0838 4.525C22.1505 4.44167 22.2171 4.36667 22.2838 4.3C22.3671 4.21667 22.4338 4.125 22.4838 4.025C22.5671 3.94167 22.6505 3.85 22.7338 3.75C22.8338 3.63333 22.9421 3.54167 23.0588 3.475C23.0921 3.45833 23.1421 3.41667 23.2088 3.35C23.4088 3.16667 23.6421 3.05 23.9088 3C23.9588 2.98333 24.0005 2.975 24.0338 2.975C24.0838 2.95833 24.1338 2.95 24.1838 2.95L24.3588 2.875C24.4921 2.825 24.6088 2.85 24.7088 2.95C24.7421 3 24.7838 3.05 24.8338 3.1C24.9005 3.13333 24.9588 3.16667 25.0088 3.2C25.1421 3.31667 25.2671 3.44167 25.3838 3.575C25.5171 3.70833 25.6338 3.85833 25.7338 4.025C25.9005 4.29167 26.0421 4.55833 26.1588 4.825C26.2921 5.09167 26.4171 5.36667 26.5338 5.65L26.9838 6.725C27.0005 6.825 27.0421 6.91667 27.1088 7C27.2421 7.25 27.3421 7.50833 27.4088 7.775C27.4755 8.025 27.5421 8.28333 27.6088 8.55C27.6255 8.58333 27.6338 8.61667 27.6338 8.65C27.6505 8.68333 27.6588 8.71667 27.6588 8.75C27.6921 8.88333 27.7171 9.025 27.7338 9.175C27.7671 9.30833 27.7755 9.44167 27.7588 9.575C27.7755 9.725 27.7671 9.875 27.7338 10.025C27.7171 10.1583 27.6921 10.2917 27.6588 10.425C27.6088 10.5917 27.5505 10.75 27.4838 10.9C27.4171 11.0333 27.3421 11.175 27.2588 11.325C27.2255 11.425 27.1671 11.5167 27.0838 11.6C27.0005 11.6833 26.9171 11.7583 26.8338 11.825C26.7005 11.8917 26.5671 11.9917 26.4338 12.125C26.4005 12.1583 26.3588 12.1833 26.3088 12.2C26.2755 12.2167 26.2421 12.2417 26.2088 12.275C26.0921 12.325 25.9671 12.3833 25.8338 12.45C25.7005 12.5 25.5671 12.55 25.4338 12.6C25.4171 12.6 25.4088 12.6167 25.4088 12.65C25.4088 12.6667 25.4171 12.6833 25.4338 12.7L26.1088 13.175C26.1921 13.225 26.2671 13.275 26.3338 13.325C26.4005 13.3583 26.4671 13.4 26.5338 13.45L26.6838 13.525C26.8838 13.6417 27.0838 13.7667 27.2838 13.9C27.4838 14.0333 27.6755 14.1667 27.8588 14.3C28.2088 14.5167 28.5588 14.7417 28.9088 14.975C29.2588 15.1917 29.5921 15.4333 29.9088 15.7C30.1921 15.9167 30.4421 16.1667 30.6588 16.45C30.7088 16.5 30.7588 16.5583 30.8088 16.625C30.8588 16.675 30.9171 16.7167 30.9838 16.75L31.0588 16.825C31.3255 17.0583 31.4755 17.375 31.5088 17.775C31.5088 17.825 31.5005 17.875 31.4838 17.925C31.4838 17.975 31.4838 18.025 31.4838 18.075C31.4838 18.175 31.4505 18.2583 31.3838 18.325C31.3171 18.3583 31.2838 18.4 31.2838 18.45C31.2338 18.5667 31.1588 18.65 31.0588 18.7C30.9755 18.7333 30.8921 18.7833 30.8088 18.85C30.7755 18.8667 30.7171 18.875 30.6338 18.875C30.5338 18.8583 30.4255 18.8417 30.3088 18.825C30.2088 18.8083 30.1088 18.8 30.0088 18.8C29.8755 18.8 29.7338 18.7417 29.5838 18.625C29.4838 18.5417 29.3921 18.4667 29.3088 18.4C29.2255 18.3167 29.1421 18.2167 29.0588 18.1C28.8421 17.8 28.5588 17.525 28.2088 17.275C28.0421 17.1417 27.8838 17.0167 27.7338 16.9C27.5838 16.7833 27.4171 16.675 27.2338 16.575C27.1171 16.5083 27.0005 16.4417 26.8838 16.375C26.7838 16.2917 26.6671 16.2167 26.5338 16.15C26.1171 15.8667 25.6921 15.5917 25.2588 15.325C24.8255 15.0417 24.3921 14.7583 23.9588 14.475C23.8921 14.425 23.8171 14.375 23.7338 14.325C23.6505 14.275 23.5671 14.225 23.4838 14.175C23.4505 14.1417 23.4005 14.1083 23.3338 14.075C23.2671 14.075 23.2338 14.1 23.2338 14.15C23.2338 14.1667 23.2255 14.1833 23.2088 14.2C23.2088 14.2 23.2088 14.2083 23.2088 14.225C23.2088 14.275 23.2088 14.325 23.2088 14.375C23.2088 14.425 23.2171 14.475 23.2338 14.525C23.2505 14.6583 23.2588 14.7917 23.2588 14.925C23.2588 15.0417 23.2588 15.1667 23.2588 15.3C23.2588 15.4 23.2588 15.5 23.2588 15.6C23.2755 15.6833 23.2921 15.775 23.3088 15.875C23.3088 15.925 23.3088 15.9833 23.3088 16.05C23.3255 16.1 23.3338 16.15 23.3338 16.2C23.3171 16.35 23.3255 16.5 23.3588 16.65C23.3921 16.8 23.4171 16.95 23.4338 17.1L23.5838 17.75C23.6005 17.8167 23.6171 17.8917 23.6338 17.975C23.6505 18.0417 23.6671 18.1167 23.6838 18.2C23.7005 18.2667 23.7005 18.3333 23.6838 18.4C23.6838 18.45 23.6755 18.5083 23.6588 18.575C23.6588 18.5917 23.6421 18.6167 23.6088 18.65C23.5255 18.6667 23.4671 18.725 23.4338 18.825C23.3838 18.9417 23.3088 19.0417 23.2088 19.125C23.1255 19.225 23.0338 19.3167 22.9338 19.4C22.9171 19.4167 22.8838 19.4333 22.8338 19.45C22.7838 19.4667 22.7421 19.4833 22.7088 19.5ZM23.6838 10.75H23.7338C23.9171 10.7167 24.1005 10.6833 24.2838 10.65C24.4838 10.6 24.6755 10.5417 24.8588 10.475C25.0421 10.425 25.2005 10.3333 25.3338 10.2C25.4505 10.0833 25.5088 9.95 25.5088 9.8C25.5255 9.68333 25.5255 9.575 25.5088 9.475C25.5088 9.35833 25.4921 9.24167 25.4588 9.125C25.3921 8.825 25.3171 8.53333 25.2338 8.25C25.1505 7.95 25.0505 7.66667 24.9338 7.4L24.7088 6.8C24.6588 6.63333 24.6005 6.475 24.5338 6.325C24.4671 6.15833 24.3921 6 24.3088 5.85C24.2921 5.81667 24.2755 5.78333 24.2588 5.75C24.2421 5.7 24.2255 5.65833 24.2088 5.625L24.1088 5.525C24.0588 5.45833 24.0005 5.45833 23.9338 5.525C23.9171 5.525 23.8921 5.54167 23.8588 5.575C23.7421 5.725 23.6338 5.88333 23.5338 6.05C23.4505 6.21667 23.4005 6.4 23.3838 6.6C23.3671 6.66667 23.3505 6.73333 23.3338 6.8C23.3338 6.86667 23.3338 6.94167 23.3338 7.025V8.1C23.3171 8.33333 23.3088 8.575 23.3088 8.825C23.3255 9.075 23.3171 9.31667 23.2838 9.55C23.2671 9.6 23.2588 9.65 23.2588 9.7C23.2755 9.75 23.2838 9.8 23.2838 9.85C23.3005 9.95 23.3088 10.05 23.3088 10.15C23.3088 10.2333 23.3088 10.325 23.3088 10.425C23.3088 10.5917 23.3255 10.6917 23.3588 10.725C23.4088 10.7583 23.5171 10.7667 23.6838 10.75ZM36.4977 19.175C36.3977 19.175 36.331 19.1667 36.2977 19.15C36.2143 19.1167 36.131 19.1 36.0477 19.1C35.981 19.1167 35.906 19.125 35.8227 19.125C35.806 19.125 35.7893 19.125 35.7727 19.125C35.756 19.1417 35.7393 19.15 35.7227 19.15C35.606 19.1667 35.4893 19.175 35.3727 19.175C35.2727 19.175 35.1727 19.1583 35.0727 19.125C35.056 19.1083 35.0393 19.1 35.0227 19.1C34.906 19.1167 34.806 19.0833 34.7227 19C34.6393 18.9167 34.556 18.8417 34.4727 18.775C34.3893 18.6917 34.3477 18.6 34.3477 18.5L34.2727 18.3C34.2227 18.1833 34.206 18.075 34.2227 17.975C34.2393 17.9417 34.2393 17.9083 34.2227 17.875C34.2227 17.8417 34.2227 17.8083 34.2227 17.775C34.206 17.7417 34.1977 17.7083 34.1977 17.675C34.1977 17.625 34.1893 17.5833 34.1727 17.55C34.1393 17.4 34.1143 17.25 34.0977 17.1C34.0977 16.9333 34.106 16.775 34.1227 16.625C34.1393 16.525 34.1977 16.3583 34.2977 16.125C34.3977 15.875 34.456 15.725 34.4727 15.675C34.5227 15.5917 34.5477 15.525 34.5477 15.475C34.531 15.2917 34.5227 15.1083 34.5227 14.925C34.5393 14.725 34.5477 14.5333 34.5477 14.35C34.5477 14.2333 34.5727 14.1417 34.6227 14.075C34.6893 13.9583 34.6977 13.8333 34.6477 13.7L34.5727 13.425C34.4727 13.2417 34.481 13.0833 34.5977 12.95C34.5977 12.9333 34.5977 12.925 34.5977 12.925C34.6143 12.9083 34.6227 12.8917 34.6227 12.875C34.656 12.8417 34.6643 12.8 34.6477 12.75C34.631 12.6833 34.6227 12.6333 34.6227 12.6C34.6227 12.5333 34.631 12.4667 34.6477 12.4C34.681 12.3167 34.6893 12.2417 34.6727 12.175C34.6727 12.175 34.656 12.1583 34.6227 12.125C34.606 12.0917 34.5977 12.025 34.5977 11.925C34.6143 11.825 34.6227 11.7667 34.6227 11.75V11.05C34.6393 10.9667 34.6477 10.8917 34.6477 10.825C34.6477 10.7417 34.656 10.6583 34.6727 10.575C34.6893 10.475 34.6893 10.375 34.6727 10.275C34.6727 10.1583 34.6727 10.0417 34.6727 9.925C34.656 9.84167 34.6393 9.75 34.6227 9.65C34.6227 9.55 34.6227 9.45 34.6227 9.35C34.606 9.31667 34.5977 9.275 34.5977 9.225C34.5977 9.175 34.5977 9.13333 34.5977 9.1C34.581 9.01667 34.5643 8.93333 34.5477 8.85C34.5477 8.76667 34.5477 8.68333 34.5477 8.6C34.5477 8.56667 34.5143 8.45833 34.4477 8.275C34.381 8.075 34.356 7.90833 34.3727 7.775C34.3893 7.74167 34.3977 7.7 34.3977 7.65C34.3977 7.6 34.381 7.55833 34.3477 7.525C34.3143 7.50833 34.2977 7.475 34.2977 7.425V7.35C34.3477 7.15 34.3227 6.95 34.2227 6.75C34.156 6.65 34.131 6.55 34.1477 6.45C34.1477 6.31667 34.0893 6.21667 33.9727 6.15C33.8893 6.06667 33.8143 5.96667 33.7477 5.85C33.681 5.73333 33.6393 5.61667 33.6227 5.5C33.606 5.41667 33.5977 5.33333 33.5977 5.25C33.5977 5.16667 33.5977 5.09167 33.5977 5.025C33.5977 4.95833 33.606 4.91667 33.6227 4.9C33.6893 4.83333 33.7227 4.75833 33.7227 4.675C33.7227 4.575 33.731 4.5 33.7477 4.45C33.7643 4.43333 33.781 4.425 33.7977 4.425C33.8143 4.425 33.831 4.41667 33.8477 4.4C33.9143 4.38333 33.9477 4.325 33.9477 4.225C33.9143 4.15833 33.8977 4.1 33.8977 4.05C33.881 3.98333 33.906 3.925 33.9727 3.875C34.006 3.80833 34.0477 3.79167 34.0977 3.825C34.2143 3.875 34.3477 3.85833 34.4977 3.775C34.5643 3.74167 34.606 3.725 34.6227 3.725C34.6727 3.725 34.6977 3.725 34.6977 3.725C34.7143 3.70833 34.7643 3.7 34.8477 3.7C34.9477 3.71667 35.0393 3.68333 35.1227 3.6C35.2393 3.48333 35.381 3.425 35.5477 3.425H37.0977C37.481 3.44167 37.8643 3.44167 38.2477 3.425C38.631 3.40833 39.006 3.4 39.3727 3.4C39.456 3.4 39.5227 3.4 39.5727 3.4C39.6393 3.38333 39.706 3.36667 39.7727 3.35C39.8727 3.3 39.9893 3.275 40.1227 3.275H40.6977C40.831 3.275 40.9477 3.275 41.0477 3.275C41.1643 3.25833 41.281 3.24167 41.3977 3.225C41.4643 3.20833 41.5227 3.2 41.5727 3.2C41.6393 3.2 41.706 3.2 41.7727 3.2C41.8393 3.2 41.906 3.2 41.9727 3.2C42.0393 3.2 42.106 3.19167 42.1727 3.175C42.306 3.15833 42.4477 3.15 42.5977 3.15C42.7477 3.13333 42.8893 3.125 43.0227 3.125C43.0893 3.125 43.1477 3.125 43.1977 3.125C43.2643 3.10833 43.331 3.09167 43.3977 3.075C43.531 3.04167 43.656 3.025 43.7727 3.025C43.906 3.00833 44.031 2.99167 44.1477 2.975C44.281 2.95833 44.406 2.94167 44.5227 2.925C44.656 2.90833 44.781 2.89167 44.8977 2.875C45.0477 2.875 45.156 2.89167 45.2227 2.925C45.3227 2.99167 45.4143 3.05 45.4977 3.1C45.5977 3.15 45.6893 3.21667 45.7727 3.3C45.8393 3.36667 45.881 3.425 45.8977 3.475C45.9143 3.54167 45.931 3.60833 45.9477 3.675C45.9643 3.74167 45.981 3.81667 45.9977 3.9V4.075C45.981 4.15833 45.9643 4.25 45.9477 4.35C45.9477 4.43333 45.9393 4.525 45.9227 4.625C45.8893 4.69167 45.8477 4.75 45.7977 4.8L45.3477 5.25C45.181 5.3 45.0143 5.33333 44.8477 5.35C44.6977 5.36667 44.5393 5.36667 44.3727 5.35H44.1977C44.1143 5.36667 44.031 5.375 43.9477 5.375C43.8643 5.375 43.781 5.36667 43.6977 5.35C43.5977 5.33333 43.4977 5.33333 43.3977 5.35C43.2977 5.35 43.1977 5.35 43.0977 5.35C43.031 5.35 42.9643 5.35833 42.8977 5.375C42.8477 5.375 42.7893 5.36667 42.7227 5.35C42.6393 5.33333 42.556 5.33333 42.4727 5.35C42.406 5.35 42.331 5.35833 42.2477 5.375C42.181 5.375 42.106 5.38333 42.0227 5.4C41.956 5.4 41.881 5.4 41.7977 5.4C41.581 5.43333 41.3477 5.45 41.0977 5.45C40.8643 5.45 40.631 5.46667 40.3977 5.5C40.2477 5.48333 40.106 5.49167 39.9727 5.525C39.8393 5.54167 39.6977 5.55833 39.5477 5.575C39.4143 5.59167 39.2727 5.6 39.1227 5.6C38.9727 5.6 38.831 5.61667 38.6977 5.65C38.531 5.65 38.3643 5.675 38.1977 5.725C38.0477 5.75833 37.8893 5.78333 37.7227 5.8L37.5477 5.825C37.431 5.825 37.3227 5.84167 37.2227 5.875C37.1227 5.89167 37.0143 5.91667 36.8977 5.95C36.831 5.96667 36.7643 5.98333 36.6977 6C36.631 6 36.556 6.00833 36.4727 6.025C36.4227 6.025 36.3643 6.04167 36.2977 6.075C36.2477 6.09167 36.2227 6.14167 36.2227 6.225L36.2977 6.45C36.3143 6.48333 36.306 6.56667 36.2727 6.7C36.256 6.83333 36.2393 6.93333 36.2227 7C36.2227 7.05 36.231 7.1 36.2477 7.15C36.2643 7.2 36.281 7.25 36.2977 7.3C36.3477 7.43333 36.3727 7.58333 36.3727 7.75C36.3727 7.9 36.3893 8.04167 36.4227 8.175C36.4393 8.24167 36.4477 8.31667 36.4477 8.4C36.4477 8.46667 36.456 8.54167 36.4727 8.625C36.4727 8.65833 36.4727 8.7 36.4727 8.75C36.4893 8.78333 36.4977 8.825 36.4977 8.875C36.4977 8.925 36.4893 8.95833 36.4727 8.975C36.4227 9.04167 36.3977 9.11667 36.3977 9.2C36.3977 9.28333 36.3977 9.36667 36.3977 9.45C36.481 9.61667 36.5227 9.78333 36.5227 9.95C36.5227 10.1167 36.5227 10.2833 36.5227 10.45C36.5227 10.5 36.5643 10.5167 36.6477 10.5H36.6727C36.706 10.4333 36.7393 10.3833 36.7727 10.35C36.8227 10.35 36.881 10.3333 36.9477 10.3C36.9977 10.2667 37.0643 10.25 37.1477 10.25C37.281 10.2667 37.406 10.2667 37.5227 10.25C37.6393 10.2167 37.756 10.1833 37.8727 10.15C38.656 9.95 39.3893 9.69167 40.0727 9.375C40.256 9.29167 40.4477 9.225 40.6477 9.175C40.8477 9.10833 41.0477 9.06667 41.2477 9.05H41.3227C41.4727 9.03333 41.6227 9.01667 41.7727 9C41.9227 8.98333 42.0727 8.975 42.2227 8.975C42.4227 8.95833 42.6143 8.93333 42.7977 8.9C42.9977 8.86667 43.1977 8.84167 43.3977 8.825C43.5143 8.79167 43.6227 8.76667 43.7227 8.75C43.8227 8.71667 43.931 8.675 44.0477 8.625C44.2643 8.54167 44.4643 8.5 44.6477 8.5C44.781 8.51667 44.906 8.55 45.0227 8.6C45.1393 8.63333 45.256 8.68333 45.3727 8.75C45.6227 8.91667 45.7477 9.16667 45.7477 9.5C45.7477 9.63333 45.731 9.76667 45.6977 9.9C45.681 10.0333 45.6727 10.1667 45.6727 10.3C45.6727 10.3333 45.656 10.3667 45.6227 10.4L45.5477 10.525C45.531 10.5917 45.5143 10.6583 45.4977 10.725C45.481 10.7917 45.4393 10.8417 45.3727 10.875C45.2727 10.9583 45.1643 11.05 45.0477 11.15C44.9477 11.2333 44.831 11.2917 44.6977 11.325C44.631 11.3417 44.5643 11.3583 44.4977 11.375C44.4477 11.3917 44.3893 11.4 44.3227 11.4C44.056 11.4 43.781 11.4167 43.4977 11.45C43.231 11.4833 42.956 11.5167 42.6727 11.55C42.456 11.5667 42.2393 11.5917 42.0227 11.625C41.8227 11.6583 41.6143 11.675 41.3977 11.675C41.1977 11.675 40.9727 11.7167 40.7227 11.8C40.556 11.8333 40.381 11.8667 40.1977 11.9C40.0143 11.9333 39.831 11.9583 39.6477 11.975C39.5143 11.9917 39.3727 12.0167 39.2227 12.05C39.0893 12.0667 38.956 12.0833 38.8227 12.1L38.3977 12.175C38.3643 12.1917 38.3143 12.2 38.2477 12.2C38.131 12.2333 38.0143 12.2583 37.8977 12.275C37.781 12.2917 37.6643 12.3167 37.5477 12.35C37.431 12.3667 37.3143 12.3917 37.1977 12.425C37.0977 12.4583 36.9893 12.4917 36.8727 12.525C36.7893 12.5417 36.7227 12.575 36.6727 12.625C36.6227 12.6583 36.581 12.7083 36.5477 12.775C36.531 12.825 36.531 12.875 36.5477 12.925C36.5643 12.9917 36.556 13.0583 36.5227 13.125C36.5393 13.2917 36.5477 13.4583 36.5477 13.625C36.5643 13.7917 36.5643 13.9583 36.5477 14.125C36.581 14.2583 36.5893 14.3917 36.5727 14.525C36.5727 14.6583 36.5643 14.7917 36.5477 14.925C36.5143 15.125 36.5227 15.2917 36.5727 15.425C36.6227 15.6417 36.606 15.8667 36.5227 16.1C36.4893 16.2 36.4893 16.2667 36.5227 16.3C36.556 16.35 36.556 16.4083 36.5227 16.475V16.625C36.506 16.7583 36.5643 16.825 36.6977 16.825H36.7477C36.8643 16.825 36.981 16.8667 37.0977 16.95C37.181 17.0333 37.281 17.0583 37.3977 17.025L38.0977 16.95C38.1977 16.9333 38.2977 16.925 38.3977 16.925C38.4977 16.9083 38.5977 16.9 38.6977 16.9C38.731 16.8833 38.781 16.8917 38.8477 16.925C38.931 16.975 39.006 16.9833 39.0727 16.95C39.106 16.9167 39.1477 16.8917 39.1977 16.875C39.2643 16.8583 39.3143 16.8333 39.3477 16.8C39.4477 16.7 39.5727 16.6667 39.7227 16.7C39.856 16.7333 39.9643 16.725 40.0477 16.675C40.1977 16.625 40.3393 16.6083 40.4727 16.625C40.556 16.6417 40.6393 16.6333 40.7227 16.6C40.806 16.5667 40.8893 16.55 40.9727 16.55C41.006 16.55 41.031 16.5583 41.0477 16.575C41.0643 16.575 41.081 16.5667 41.0977 16.55C41.131 16.55 41.1643 16.5417 41.1977 16.525C41.231 16.5083 41.256 16.5 41.2727 16.5C41.3893 16.45 41.4977 16.4333 41.5977 16.45C41.681 16.45 41.7227 16.45 41.7227 16.45C41.7893 16.4333 41.8477 16.4333 41.8977 16.45C41.9643 16.4667 42.0227 16.4917 42.0727 16.525C42.156 16.5417 42.2227 16.5667 42.2727 16.6C42.3393 16.6333 42.406 16.6583 42.4727 16.675C42.506 16.675 42.531 16.6833 42.5477 16.7C42.631 16.7667 42.731 16.825 42.8477 16.875C42.981 16.925 43.056 16.9833 43.0727 17.05C43.106 17.15 43.1227 17.25 43.1227 17.35C43.1227 17.4333 43.131 17.525 43.1477 17.625C43.1477 17.675 43.1393 17.725 43.1227 17.775C43.1227 17.825 43.1143 17.875 43.0977 17.925C43.0643 17.9917 43.0227 18.0667 42.9727 18.15C42.9393 18.2333 42.8893 18.3083 42.8227 18.375C42.7893 18.4083 42.756 18.4417 42.7227 18.475C42.706 18.5083 42.681 18.5417 42.6477 18.575C42.581 18.6417 42.506 18.7 42.4227 18.75C42.3393 18.8 42.2477 18.825 42.1477 18.825C42.081 18.825 42.031 18.8333 41.9977 18.85C41.931 18.8833 41.8643 18.9 41.7977 18.9C41.731 18.9 41.656 18.9 41.5727 18.9C41.456 18.9167 41.3393 18.9333 41.2227 18.95C41.1227 18.95 41.0143 18.9417 40.8977 18.925C40.831 18.9083 40.7727 18.9083 40.7227 18.925C40.556 18.975 40.3893 18.9833 40.2227 18.95C40.056 18.95 39.8893 18.9583 39.7227 18.975C39.5727 18.975 39.4227 18.975 39.2727 18.975H38.9477C38.8977 18.975 38.856 18.9833 38.8227 19C38.756 19.0333 38.6727 19.05 38.5727 19.05C38.4893 19.05 38.406 19.0417 38.3227 19.025H38.0727C38.056 19.025 38.031 19.025 37.9977 19.025C37.9643 19.0417 37.931 19.0417 37.8977 19.025C37.8477 19.0083 37.7977 19 37.7477 19C37.7143 19.0167 37.6727 19.0333 37.6227 19.05C37.5893 19.05 37.556 19.05 37.5227 19.05C37.506 19.0667 37.481 19.075 37.4477 19.075C37.281 19.0583 37.1227 19.0583 36.9727 19.075C36.8227 19.1083 36.6643 19.1417 36.4977 19.175ZM61.9617 22.25C61.8284 22.2167 61.7367 22.1417 61.6867 22.025C61.6534 21.8917 61.6201 21.7667 61.5867 21.65C61.5534 21.5333 61.5367 21.4167 61.5367 21.3V21.15C61.5534 20.9833 61.5451 20.8167 61.5117 20.65C61.4784 20.5 61.4534 20.3417 61.4367 20.175C61.4367 20.1083 61.4284 20.0583 61.4117 20.025L61.1367 19.5C61.1034 19.4667 61.0534 19.4 60.9867 19.3C60.9367 19.1833 60.8784 19.0833 60.8117 19C60.7617 18.9 60.7034 18.8 60.6367 18.7C60.6034 18.6333 60.5617 18.575 60.5117 18.525C60.4617 18.475 60.4117 18.4167 60.3617 18.35C60.3284 18.3 60.2951 18.2417 60.2617 18.175C60.2284 18.1083 60.1784 18.05 60.1117 18L60.0367 17.875C59.9701 17.7583 59.9034 17.65 59.8367 17.55C59.7867 17.45 59.7367 17.35 59.6867 17.25L59.6117 17.1C59.5451 16.8833 59.4701 16.675 59.3867 16.475C59.3201 16.275 59.2451 16.0667 59.1617 15.85C59.1117 15.7167 59.0617 15.5917 59.0117 15.475C58.9784 15.3583 58.9284 15.2417 58.8617 15.125C58.7451 14.875 58.6701 14.6083 58.6367 14.325C58.6201 14.125 58.6367 13.9167 58.6867 13.7C58.7367 13.5667 58.8117 13.45 58.9117 13.35C59.2284 13.0833 59.5784 12.9833 59.9617 13.05L60.2367 13.1C60.4367 13.1833 60.5784 13.3 60.6617 13.45C60.7284 13.5667 60.7867 13.6917 60.8367 13.825C60.8867 13.9417 60.9201 14.075 60.9367 14.225C60.9701 14.325 61.0034 14.4333 61.0367 14.55C61.0701 14.65 61.1117 14.7583 61.1617 14.875C61.2451 15.0583 61.3367 15.2417 61.4367 15.425C61.5201 15.575 61.6201 15.7 61.7367 15.8C61.8201 15.8667 61.9117 15.9417 62.0117 16.025C62.1117 16.1083 62.2034 16.1917 62.2867 16.275L62.8117 16.8C62.8451 16.8167 62.8701 16.8417 62.8867 16.875C62.9201 16.9083 62.9451 16.9417 62.9617 16.975C63.0117 17.0083 63.0701 17.0167 63.1367 17C63.3034 16.95 63.4701 16.8583 63.6367 16.725C63.9034 16.5083 64.1201 16.2833 64.2867 16.05C64.4534 15.8167 64.5617 15.5417 64.6117 15.225C64.6451 14.9417 64.5617 14.6917 64.3617 14.475C64.3284 14.4083 64.2784 14.3667 64.2117 14.35C64.0951 14.2833 63.9784 14.225 63.8617 14.175C63.7617 14.1083 63.6451 14.0583 63.5117 14.025C63.3784 13.975 63.2617 13.9 63.1617 13.8C63.0951 13.7167 62.9951 13.6667 62.8617 13.65C62.7451 13.6167 62.6367 13.575 62.5367 13.525C62.4367 13.475 62.3451 13.4167 62.2617 13.35C62.1617 13.2667 62.0617 13.2 61.9617 13.15C61.8617 13.0833 61.7617 13.0167 61.6617 12.95C61.5617 12.9 61.4617 12.8417 61.3617 12.775C61.2784 12.7083 61.1951 12.6417 61.1117 12.575C60.9951 12.4917 60.8867 12.4083 60.7867 12.325C60.6867 12.225 60.5867 12.1333 60.4867 12.05C60.4201 12.0167 60.3784 11.9833 60.3617 11.95C60.2784 11.85 60.1867 11.7583 60.0867 11.675C60.0034 11.575 59.9201 11.4667 59.8367 11.35C59.7867 11.2833 59.7367 11.225 59.6867 11.175C59.6367 11.1083 59.5784 11.0417 59.5117 10.975C59.4451 10.9083 59.3784 10.8417 59.3117 10.775C59.2617 10.6917 59.2201 10.6083 59.1867 10.525L58.9617 10.15C58.8784 9.98333 58.8034 9.81667 58.7367 9.65C58.6701 9.48333 58.5951 9.31667 58.5117 9.15C58.4451 8.96667 58.3784 8.78333 58.3117 8.6C58.2617 8.41667 58.2201 8.23333 58.1867 8.05C58.1701 7.91667 58.1451 7.79167 58.1117 7.675C58.0951 7.55833 58.0784 7.44167 58.0617 7.325C58.0451 7.14167 58.0367 6.96667 58.0367 6.8C58.0367 6.61667 58.0284 6.43333 58.0117 6.25C58.0117 6.03333 58.0284 5.81667 58.0617 5.6C58.0951 5.38333 58.1367 5.16667 58.1867 4.95C58.2201 4.81667 58.2534 4.68333 58.2867 4.55C58.3201 4.41667 58.3534 4.29167 58.3867 4.175C58.4201 4.09167 58.4534 4.01667 58.4867 3.95C58.5201 3.86667 58.5451 3.79167 58.5617 3.725C58.6951 3.375 58.8867 3.025 59.1367 2.675C59.2201 2.55833 59.3034 2.45 59.3867 2.35C59.4867 2.23333 59.5867 2.125 59.6867 2.025C59.7701 1.94167 59.8534 1.85 59.9367 1.75C60.0201 1.65 60.0951 1.55 60.1617 1.45C60.3784 1.16667 60.6284 0.958332 60.9117 0.824999C61.1951 0.674999 61.5201 0.616665 61.8867 0.649999C62.3367 0.716666 62.7617 0.891666 63.1617 1.175C63.2951 1.275 63.4284 1.38333 63.5617 1.5C63.7117 1.6 63.8534 1.70833 63.9867 1.825C64.3201 2.09167 64.5951 2.39167 64.8117 2.725C64.9117 2.875 65.0117 3.025 65.1117 3.175C65.2117 3.325 65.3034 3.475 65.3867 3.625C65.4367 3.69167 65.4784 3.75833 65.5117 3.825C65.5451 3.89167 65.5701 3.96667 65.5867 4.05C65.6201 4.2 65.6284 4.35 65.6117 4.5C65.6117 4.63333 65.5951 4.775 65.5617 4.925L65.4867 5.125C65.4367 5.20833 65.3867 5.3 65.3367 5.4C65.2867 5.5 65.2367 5.59167 65.1867 5.675C65.1534 5.74167 65.1117 5.80833 65.0617 5.875C65.0284 5.925 64.9951 5.975 64.9617 6.025C64.8284 6.24167 64.7617 6.45833 64.7617 6.675V9.1C64.7617 9.43333 64.7117 9.75 64.6117 10.05C64.6117 10.0667 64.6034 10.0833 64.5867 10.1C64.5867 10.1 64.5867 10.1167 64.5867 10.15C64.5867 10.2333 64.6117 10.3 64.6617 10.35L64.8867 10.5C65.0701 10.6167 65.2367 10.75 65.3867 10.9C65.5534 11.0333 65.7201 11.1667 65.8867 11.3C65.9867 11.3833 66.0784 11.4833 66.1617 11.6C66.2451 11.7 66.3201 11.8 66.3867 11.9C66.4534 11.9833 66.5117 12.075 66.5617 12.175C66.6117 12.2583 66.6617 12.3417 66.7117 12.425C66.7951 12.5417 66.8534 12.675 66.8867 12.825C66.9367 12.975 66.9784 13.125 67.0117 13.275V13.375C66.9951 13.4917 66.9951 13.6167 67.0117 13.75C67.0284 13.8833 67.0451 14.0167 67.0617 14.15C67.0617 14.1833 67.0617 14.225 67.0617 14.275C67.0784 14.3083 67.0784 14.35 67.0617 14.4L66.9867 14.925C66.9534 15.0083 66.9701 15.0583 67.0367 15.075C67.0867 15.075 67.1117 15.0917 67.1117 15.125C67.1617 15.1417 67.1701 15.1833 67.1367 15.25C67.1034 15.3167 67.0617 15.3333 67.0117 15.3C67.0117 15.2833 67.0034 15.275 66.9867 15.275C66.9367 15.2583 66.9034 15.2667 66.8867 15.3C66.8701 15.35 66.8534 15.4 66.8367 15.45C66.8367 15.5 66.8367 15.5583 66.8367 15.625C66.7701 15.725 66.7534 15.8083 66.7867 15.875C66.7867 15.925 66.7784 15.9583 66.7617 15.975C66.7117 16.025 66.6951 16.0917 66.7117 16.175C66.7117 16.2083 66.6867 16.2417 66.6367 16.275C66.5367 16.325 66.4617 16.4167 66.4117 16.55C66.3284 16.7667 66.2284 16.975 66.1117 17.175C66.0117 17.3583 65.8951 17.5417 65.7617 17.725C65.6284 17.9083 65.4867 18.0917 65.3367 18.275C65.2034 18.4417 65.0451 18.6 64.8617 18.75C64.7117 18.8667 64.5534 18.975 64.3867 19.075C64.2201 19.1917 64.0451 19.2917 63.8617 19.375C63.7951 19.3917 63.7284 19.425 63.6617 19.475L63.3617 19.625C63.2284 19.6417 63.0951 19.7083 62.9617 19.825L62.8117 19.925C62.7617 19.975 62.7201 20.0583 62.6867 20.175V20.85C62.6867 20.9167 62.6867 20.9833 62.6867 21.05C62.6867 21.1167 62.6784 21.1833 62.6617 21.25C62.6451 21.2833 62.6367 21.325 62.6367 21.375C62.6367 21.425 62.6284 21.4667 62.6117 21.5C62.5951 21.5667 62.5784 21.6333 62.5617 21.7C62.5451 21.7833 62.5201 21.8667 62.4867 21.95C62.4034 22.1833 62.2284 22.2833 61.9617 22.25ZM63.4867 9.7C63.5534 9.7 63.5951 9.675 63.6117 9.625C63.6284 9.54167 63.6284 9.45833 63.6117 9.375C63.6117 9.29167 63.6034 9.21667 63.5867 9.15C63.5701 9.06667 63.5617 8.98333 63.5617 8.9C63.5617 8.8 63.5534 8.70833 63.5367 8.625C63.5367 8.525 63.5284 8.425 63.5117 8.325C63.4951 8.225 63.4951 8.125 63.5117 8.025C63.5284 8.00833 63.5284 8 63.5117 8C63.5117 7.98333 63.5117 7.975 63.5117 7.975C63.4951 7.85833 63.4867 7.75 63.4867 7.65C63.4867 7.55 63.4867 7.45 63.4867 7.35C63.4867 7.01667 63.4201 6.69167 63.2867 6.375C63.1701 6.10833 63.0451 5.85 62.9117 5.6C62.7951 5.35 62.6701 5.1 62.5367 4.85C62.4867 4.75 62.4201 4.65833 62.3367 4.575C62.2701 4.475 62.1951 4.38333 62.1117 4.3C62.0451 4.2 61.9534 4.18333 61.8367 4.25C61.7367 4.26667 61.6284 4.33333 61.5117 4.45C61.4117 4.56667 61.3201 4.69167 61.2367 4.825C61.1534 4.95833 61.0784 5.1 61.0117 5.25C60.9951 5.3 60.9784 5.35 60.9617 5.4C60.9451 5.45 60.9284 5.49167 60.9117 5.525C60.8951 5.64167 60.8784 5.76667 60.8617 5.9C60.8617 6.01667 60.8617 6.14167 60.8617 6.275V6.6C60.8617 6.83333 60.9284 7.08333 61.0617 7.35C61.1784 7.6 61.3451 7.85 61.5617 8.1C61.6117 8.16667 61.6617 8.23333 61.7117 8.3C61.7617 8.35 61.8117 8.41667 61.8617 8.5C62.0117 8.7 62.1784 8.875 62.3617 9.025C62.5617 9.175 62.7701 9.31667 62.9867 9.45L63.3617 9.65C63.3951 9.66667 63.4201 9.675 63.4367 9.675C63.4534 9.675 63.4701 9.68333 63.4867 9.7ZM73.9551 18.975C73.9217 18.9583 73.8717 18.95 73.8051 18.95C73.7717 18.95 73.7384 18.925 73.7051 18.875C73.6717 18.825 73.6384 18.7833 73.6051 18.75C73.5717 18.7 73.5384 18.6417 73.5051 18.575C73.4551 18.5083 73.4134 18.5083 73.3801 18.575H73.3301C73.3301 18.5583 73.3217 18.55 73.3051 18.55C73.3051 18.5333 73.3051 18.525 73.3051 18.525C73.2551 18.2917 73.1801 18.075 73.0801 17.875C73.0301 17.7417 72.9801 17.6083 72.9301 17.475C72.8967 17.325 72.8717 17.175 72.8551 17.025L72.7051 15.925L72.6301 15.025V14.975C72.5967 14.775 72.5801 14.575 72.5801 14.375C72.5801 14.1583 72.5801 13.9417 72.5801 13.725C72.5634 13.6083 72.5551 13.5 72.5551 13.4C72.5551 13.2833 72.5467 13.1667 72.5301 13.05C72.5134 12.9167 72.4967 12.7833 72.4801 12.65C72.4801 12.5167 72.4801 12.3917 72.4801 12.275L72.5051 10.3V7.625C72.4717 7.525 72.4217 7.475 72.3551 7.475C72.3217 7.475 72.2801 7.48333 72.2301 7.5C72.1967 7.5 72.1634 7.5 72.1301 7.5L71.0051 7.8C70.8551 7.85 70.7051 7.9 70.5551 7.95C70.4051 7.98333 70.2551 8.025 70.1051 8.075C69.9884 8.09167 69.8717 8.10833 69.7551 8.125C69.6551 8.125 69.5467 8.125 69.4301 8.125C69.3467 8.125 69.2551 8.09167 69.1551 8.025C69.0384 7.975 68.9384 7.90833 68.8551 7.825C68.7717 7.74167 68.6884 7.65 68.6051 7.55L68.5551 7.475C68.5217 7.35833 68.4884 7.25 68.4551 7.15C68.4384 7.03333 68.4384 6.91667 68.4551 6.8C68.4717 6.65 68.5051 6.50833 68.5551 6.375C68.6217 6.24167 68.7134 6.125 68.8301 6.025C68.8801 5.99167 68.9217 5.95 68.9551 5.9C69.0051 5.85 69.0551 5.8 69.1051 5.75C69.1717 5.71667 69.2134 5.7 69.2301 5.7C69.3301 5.7 69.4217 5.68333 69.5051 5.65C69.5884 5.6 69.6717 5.56667 69.7551 5.55C69.8384 5.53333 69.9217 5.51667 70.0051 5.5C70.0884 5.48333 70.1717 5.46667 70.2551 5.45C70.4884 5.38333 70.7217 5.325 70.9551 5.275C71.1884 5.20833 71.4217 5.15833 71.6551 5.125L73.0051 4.9C73.0384 4.88333 73.0634 4.875 73.0801 4.875C73.1134 4.875 73.1384 4.86667 73.1551 4.85C73.2551 4.81667 73.3551 4.79167 73.4551 4.775C73.5551 4.75833 73.6551 4.76667 73.7551 4.8C73.7884 4.81667 73.8134 4.825 73.8301 4.825C73.8634 4.80833 73.8884 4.8 73.9051 4.8C74.1884 4.76667 74.4717 4.73333 74.7551 4.7C75.0384 4.66667 75.3134 4.625 75.5801 4.575C75.7967 4.54167 76.0134 4.50833 76.2301 4.475C76.4467 4.44167 76.6634 4.41667 76.8801 4.4C77.0467 4.36667 77.2134 4.34167 77.3801 4.325C77.5467 4.30833 77.7134 4.29167 77.8801 4.275C78.0134 4.25833 78.1467 4.24167 78.2801 4.225C78.4301 4.20833 78.5717 4.19167 78.7051 4.175C78.8384 4.15833 78.9634 4.15833 79.0801 4.175C79.2134 4.175 79.3467 4.175 79.4801 4.175C79.5634 4.175 79.6384 4.2 79.7051 4.25C79.7884 4.3 79.8634 4.34167 79.9301 4.375C79.9967 4.425 80.0884 4.50833 80.2051 4.625C80.2384 4.65833 80.2717 4.73333 80.3051 4.85C80.3217 4.9 80.3384 4.95833 80.3551 5.025C80.3717 5.075 80.3884 5.13333 80.4051 5.2C80.4384 5.35 80.4217 5.49167 80.3551 5.625L80.2051 5.975C80.1884 6.025 80.1634 6.075 80.1301 6.125C80.1134 6.15833 80.0884 6.19167 80.0551 6.225C80.0217 6.25833 80.0051 6.275 80.0051 6.275C79.9384 6.325 79.8634 6.375 79.7801 6.425C79.7134 6.475 79.6301 6.50833 79.5301 6.525L78.4551 6.6C78.3551 6.6 78.2551 6.60833 78.1551 6.625C78.0551 6.625 77.9467 6.63333 77.8301 6.65H77.7051C77.4384 6.66667 77.1801 6.69167 76.9301 6.725C76.6801 6.75833 76.4301 6.79167 76.1801 6.825L75.1801 6.975C75.1301 6.975 75.0967 6.98333 75.0801 7C75.0134 7 74.9634 7.05 74.9301 7.15V7.225C74.9301 7.39167 74.9301 7.55833 74.9301 7.725C74.9301 7.875 74.9384 8.03333 74.9551 8.2C75.0051 8.43333 75.0051 8.66667 74.9551 8.9C74.9384 8.95 74.9217 9 74.9051 9.05C74.9051 9.08333 74.9051 9.11667 74.9051 9.15C74.9217 9.35 74.9051 9.56667 74.8551 9.8C74.8551 9.85 74.8551 9.9 74.8551 9.95C74.8551 10 74.8634 10.05 74.8801 10.1C74.8967 10.1667 74.9051 10.2417 74.9051 10.325C74.9051 10.4083 74.9051 10.4917 74.9051 10.575V11.875C74.9051 11.9417 74.8967 12.025 74.8801 12.125C74.8801 12.2083 74.8801 12.2917 74.8801 12.375C74.8801 12.4417 74.8801 12.5167 74.8801 12.6C74.8967 12.6833 74.9051 12.7667 74.9051 12.85C74.9051 12.9667 74.9051 13.0833 74.9051 13.2C74.9217 13.3167 74.9217 13.4417 74.9051 13.575V14.35C74.9051 14.3667 74.8967 14.3833 74.8801 14.4C74.8801 14.4167 74.8884 14.4417 74.9051 14.475C74.9217 14.625 74.9301 14.7833 74.9301 14.95C74.9301 15.1 74.9467 15.25 74.9801 15.4C74.9801 15.45 74.9801 15.5 74.9801 15.55C74.9967 15.6 74.9967 15.65 74.9801 15.7C74.9801 15.85 74.9967 16.0083 75.0301 16.175C75.0634 16.325 75.0884 16.475 75.1051 16.625C75.1384 16.8083 75.1717 16.9917 75.2051 17.175C75.2551 17.3583 75.2967 17.5417 75.3301 17.725L75.4051 18.075C75.4051 18.125 75.3801 18.1667 75.3301 18.2C75.3301 18.2 75.3217 18.2 75.3051 18.2C75.3051 18.2 75.2967 18.2083 75.2801 18.225C75.1967 18.2583 75.1634 18.3083 75.1801 18.375V18.5C75.1801 18.5 75.1717 18.5083 75.1551 18.525C75.1551 18.5417 75.1467 18.55 75.1301 18.55C75.0467 18.55 74.9801 18.5833 74.9301 18.65C74.8801 18.7167 74.8217 18.775 74.7551 18.825C74.7051 18.8583 74.6384 18.8917 74.5551 18.925C74.3384 19.0083 74.1384 19.025 73.9551 18.975ZM84.5008 19.5C84.1841 19.5333 83.9258 19.4333 83.7258 19.2C83.6258 19.1 83.5341 18.9917 83.4508 18.875C83.3674 18.7583 83.3008 18.6333 83.2508 18.5C83.1674 18.2667 83.0924 18.0333 83.0258 17.8C82.9591 17.55 82.9008 17.3083 82.8508 17.075C82.8008 16.8917 82.7758 16.7167 82.7758 16.55C82.7591 16.3667 82.7341 16.1917 82.7008 16.025C82.6841 15.8417 82.6758 15.6583 82.6758 15.475C82.6758 15.375 82.6758 15.275 82.6758 15.175C82.6758 15.0583 82.6674 14.95 82.6508 14.85C82.6341 14.7833 82.6258 14.725 82.6258 14.675C82.6258 14.625 82.6258 14.5667 82.6258 14.5C82.6258 14.2667 82.6258 14.0333 82.6258 13.8C82.6258 13.55 82.6174 13.3083 82.6008 13.075C82.6008 12.9417 82.5924 12.825 82.5758 12.725C82.5591 12.6083 82.5258 12.4917 82.4758 12.375C82.4091 12.1917 82.4008 11.9917 82.4508 11.775C82.4508 11.725 82.4591 11.6917 82.4758 11.675C82.5091 11.5583 82.5258 11.4417 82.5258 11.325C82.5424 11.2083 82.5424 11.0917 82.5258 10.975C82.5091 10.8917 82.5008 10.8083 82.5008 10.725C82.5008 10.6417 82.5008 10.5667 82.5008 10.5C82.4841 10.3167 82.4758 10.1333 82.4758 9.95C82.4924 9.75 82.5091 9.55833 82.5258 9.375C82.5424 9.325 82.5508 9.275 82.5508 9.225C82.5508 9.175 82.5508 9.125 82.5508 9.075C82.5341 8.89167 82.5341 8.71667 82.5508 8.55C82.5841 8.38333 82.6091 8.21667 82.6258 8.05C82.6591 7.85 82.6924 7.65833 82.7258 7.475C82.7591 7.275 82.8008 7.075 82.8508 6.875C82.8841 6.79167 82.9008 6.7 82.9008 6.6C82.9008 6.5 82.9008 6.4 82.9008 6.3C82.9008 6.21667 82.8924 6.13333 82.8758 6.05C82.8758 5.96667 82.8758 5.89167 82.8758 5.825C82.8758 5.775 82.8758 5.725 82.8758 5.675C82.8758 5.625 82.8841 5.575 82.9008 5.525C82.9174 5.475 82.9258 5.425 82.9258 5.375C82.9258 5.325 82.9341 5.29167 82.9508 5.275C83.0008 5.20833 83.0424 5.15 83.0758 5.1C83.1091 5.03333 83.1591 4.975 83.2258 4.925C83.3091 4.875 83.3841 4.825 83.4508 4.775C83.5341 4.725 83.6091 4.68333 83.6758 4.65C83.7591 4.61667 83.8258 4.575 83.8758 4.525C83.9424 4.44167 84.0091 4.36667 84.0758 4.3C84.1591 4.21667 84.2258 4.125 84.2758 4.025C84.3591 3.94167 84.4424 3.85 84.5258 3.75C84.6258 3.63333 84.7341 3.54167 84.8508 3.475C84.8841 3.45833 84.9341 3.41667 85.0008 3.35C85.2008 3.16667 85.4341 3.05 85.7008 3C85.7508 2.98333 85.7924 2.975 85.8258 2.975C85.8758 2.95833 85.9258 2.95 85.9758 2.95L86.1508 2.875C86.2841 2.825 86.4008 2.85 86.5008 2.95C86.5341 3 86.5758 3.05 86.6258 3.1C86.6924 3.13333 86.7508 3.16667 86.8008 3.2C86.9341 3.31667 87.0591 3.44167 87.1758 3.575C87.3091 3.70833 87.4258 3.85833 87.5258 4.025C87.6924 4.29167 87.8341 4.55833 87.9508 4.825C88.0841 5.09167 88.2091 5.36667 88.3258 5.65L88.7758 6.725C88.7924 6.825 88.8341 6.91667 88.9008 7C89.0341 7.25 89.1341 7.50833 89.2008 7.775C89.2674 8.025 89.3341 8.28333 89.4008 8.55C89.4174 8.58333 89.4258 8.61667 89.4258 8.65C89.4424 8.68333 89.4508 8.71667 89.4508 8.75C89.4841 8.88333 89.5091 9.025 89.5258 9.175C89.5591 9.30833 89.5674 9.44167 89.5508 9.575C89.5674 9.725 89.5591 9.875 89.5258 10.025C89.5091 10.1583 89.4841 10.2917 89.4508 10.425C89.4008 10.5917 89.3424 10.75 89.2758 10.9C89.2091 11.0333 89.1341 11.175 89.0508 11.325C89.0174 11.425 88.9591 11.5167 88.8758 11.6C88.7924 11.6833 88.7091 11.7583 88.6258 11.825C88.4924 11.8917 88.3591 11.9917 88.2258 12.125C88.1924 12.1583 88.1508 12.1833 88.1008 12.2C88.0674 12.2167 88.0341 12.2417 88.0008 12.275C87.8841 12.325 87.7591 12.3833 87.6258 12.45C87.4924 12.5 87.3591 12.55 87.2258 12.6C87.2091 12.6 87.2008 12.6167 87.2008 12.65C87.2008 12.6667 87.2091 12.6833 87.2258 12.7L87.9008 13.175C87.9841 13.225 88.0591 13.275 88.1258 13.325C88.1924 13.3583 88.2591 13.4 88.3258 13.45L88.4758 13.525C88.6758 13.6417 88.8758 13.7667 89.0758 13.9C89.2758 14.0333 89.4674 14.1667 89.6508 14.3C90.0008 14.5167 90.3508 14.7417 90.7008 14.975C91.0508 15.1917 91.3841 15.4333 91.7008 15.7C91.9841 15.9167 92.2341 16.1667 92.4508 16.45C92.5008 16.5 92.5508 16.5583 92.6008 16.625C92.6508 16.675 92.7091 16.7167 92.7758 16.75L92.8508 16.825C93.1174 17.0583 93.2674 17.375 93.3008 17.775C93.3008 17.825 93.2924 17.875 93.2758 17.925C93.2758 17.975 93.2758 18.025 93.2758 18.075C93.2758 18.175 93.2424 18.2583 93.1758 18.325C93.1091 18.3583 93.0758 18.4 93.0758 18.45C93.0258 18.5667 92.9508 18.65 92.8508 18.7C92.7674 18.7333 92.6841 18.7833 92.6008 18.85C92.5674 18.8667 92.5091 18.875 92.4258 18.875C92.3258 18.8583 92.2174 18.8417 92.1008 18.825C92.0008 18.8083 91.9008 18.8 91.8008 18.8C91.6674 18.8 91.5258 18.7417 91.3758 18.625C91.2758 18.5417 91.1841 18.4667 91.1008 18.4C91.0174 18.3167 90.9341 18.2167 90.8508 18.1C90.6341 17.8 90.3508 17.525 90.0008 17.275C89.8341 17.1417 89.6758 17.0167 89.5258 16.9C89.3758 16.7833 89.2091 16.675 89.0258 16.575C88.9091 16.5083 88.7924 16.4417 88.6758 16.375C88.5758 16.2917 88.4591 16.2167 88.3258 16.15C87.9091 15.8667 87.4841 15.5917 87.0508 15.325C86.6174 15.0417 86.1841 14.7583 85.7508 14.475C85.6841 14.425 85.6091 14.375 85.5258 14.325C85.4424 14.275 85.3591 14.225 85.2758 14.175C85.2424 14.1417 85.1924 14.1083 85.1258 14.075C85.0591 14.075 85.0258 14.1 85.0258 14.15C85.0258 14.1667 85.0174 14.1833 85.0008 14.2C85.0008 14.2 85.0008 14.2083 85.0008 14.225C85.0008 14.275 85.0008 14.325 85.0008 14.375C85.0008 14.425 85.0091 14.475 85.0258 14.525C85.0424 14.6583 85.0508 14.7917 85.0508 14.925C85.0508 15.0417 85.0508 15.1667 85.0508 15.3C85.0508 15.4 85.0508 15.5 85.0508 15.6C85.0674 15.6833 85.0841 15.775 85.1008 15.875C85.1008 15.925 85.1008 15.9833 85.1008 16.05C85.1174 16.1 85.1258 16.15 85.1258 16.2C85.1091 16.35 85.1174 16.5 85.1508 16.65C85.1841 16.8 85.2091 16.95 85.2258 17.1L85.3758 17.75C85.3924 17.8167 85.4091 17.8917 85.4258 17.975C85.4424 18.0417 85.4591 18.1167 85.4758 18.2C85.4924 18.2667 85.4924 18.3333 85.4758 18.4C85.4758 18.45 85.4674 18.5083 85.4508 18.575C85.4508 18.5917 85.4341 18.6167 85.4008 18.65C85.3174 18.6667 85.2591 18.725 85.2258 18.825C85.1758 18.9417 85.1008 19.0417 85.0008 19.125C84.9174 19.225 84.8258 19.3167 84.7258 19.4C84.7091 19.4167 84.6758 19.4333 84.6258 19.45C84.5758 19.4667 84.5341 19.4833 84.5008 19.5ZM85.4758 10.75H85.5258C85.7091 10.7167 85.8924 10.6833 86.0758 10.65C86.2758 10.6 86.4674 10.5417 86.6508 10.475C86.8341 10.425 86.9924 10.3333 87.1258 10.2C87.2424 10.0833 87.3008 9.95 87.3008 9.8C87.3174 9.68333 87.3174 9.575 87.3008 9.475C87.3008 9.35833 87.2841 9.24167 87.2508 9.125C87.1841 8.825 87.1091 8.53333 87.0258 8.25C86.9424 7.95 86.8424 7.66667 86.7258 7.4L86.5008 6.8C86.4508 6.63333 86.3924 6.475 86.3258 6.325C86.2591 6.15833 86.1841 6 86.1008 5.85C86.0841 5.81667 86.0674 5.78333 86.0508 5.75C86.0341 5.7 86.0174 5.65833 86.0008 5.625L85.9008 5.525C85.8508 5.45833 85.7924 5.45833 85.7258 5.525C85.7091 5.525 85.6841 5.54167 85.6508 5.575C85.5341 5.725 85.4258 5.88333 85.3258 6.05C85.2424 6.21667 85.1924 6.4 85.1758 6.6C85.1591 6.66667 85.1424 6.73333 85.1258 6.8C85.1258 6.86667 85.1258 6.94167 85.1258 7.025V8.1C85.1091 8.33333 85.1008 8.575 85.1008 8.825C85.1174 9.075 85.1091 9.31667 85.0758 9.55C85.0591 9.6 85.0508 9.65 85.0508 9.7C85.0674 9.75 85.0758 9.8 85.0758 9.85C85.0924 9.95 85.1008 10.05 85.1008 10.15C85.1008 10.2333 85.1008 10.325 85.1008 10.425C85.1008 10.5917 85.1174 10.6917 85.1508 10.725C85.2008 10.7583 85.3091 10.7667 85.4758 10.75ZM105.759 20.825C105.609 20.825 105.476 20.7667 105.359 20.65C105.326 20.6 105.293 20.55 105.259 20.5C105.226 20.45 105.193 20.4 105.159 20.35C105.009 20 104.934 19.6333 104.934 19.25L104.859 18.65C104.809 18.4167 104.768 18.1833 104.734 17.95C104.701 17.7167 104.643 17.4917 104.559 17.275L104.409 16.85C104.409 16.8167 104.401 16.7833 104.384 16.75C104.384 16.7167 104.376 16.6833 104.359 16.65L103.984 15.325C103.968 15.2917 103.951 15.25 103.934 15.2C103.934 15.15 103.918 15.1083 103.884 15.075C103.834 14.975 103.793 14.875 103.759 14.775C103.743 14.6583 103.718 14.5417 103.684 14.425C103.668 14.3417 103.651 14.2667 103.634 14.2C103.618 14.1167 103.593 14.0333 103.559 13.95C103.526 13.85 103.493 13.7917 103.459 13.775C103.426 13.7417 103.351 13.7417 103.234 13.775C103.151 13.7917 103.059 13.8083 102.959 13.825C102.876 13.825 102.793 13.8417 102.709 13.875C102.643 13.8917 102.559 13.9083 102.459 13.925C102.376 13.925 102.293 13.9333 102.209 13.95L101.859 14.025C101.776 14.0417 101.684 14.0667 101.584 14.1C101.501 14.1167 101.418 14.125 101.334 14.125L100.884 14.2C100.751 14.2333 100.609 14.2667 100.459 14.3C100.309 14.3333 100.168 14.3667 100.034 14.4C99.6344 14.5 99.2344 14.575 98.8344 14.625C98.701 14.6583 98.626 14.7167 98.6094 14.8C98.5927 14.8 98.5844 14.8083 98.5844 14.825C98.4844 15.0917 98.3677 15.3583 98.2344 15.625C98.1177 15.875 97.9927 16.1333 97.8594 16.4C97.826 16.4667 97.7927 16.5333 97.7594 16.6C97.7427 16.65 97.7177 16.7083 97.6844 16.775C97.6677 16.8083 97.651 16.85 97.6344 16.9C97.6177 16.9333 97.601 16.9667 97.5844 17C97.4844 17.1167 97.4344 17.2583 97.4344 17.425C97.4177 17.525 97.3844 17.625 97.3344 17.725C97.2844 17.8083 97.2344 17.8917 97.1844 17.975C97.1677 18.025 97.1344 18.05 97.0844 18.05C97.0177 18.0667 96.951 18.0917 96.8844 18.125C96.8177 18.1583 96.7427 18.1917 96.6594 18.225C96.6094 18.2417 96.5594 18.2417 96.5094 18.225C96.476 18.2083 96.4344 18.1917 96.3844 18.175C96.351 18.1417 96.3177 18.125 96.2844 18.125C96.101 18.1083 95.9677 18 95.8844 17.8C95.751 17.5333 95.6594 17.2667 95.6094 17C95.5927 16.9333 95.5927 16.875 95.6094 16.825C95.6427 16.775 95.6677 16.725 95.6844 16.675C95.7844 16.6083 95.8427 16.5333 95.8594 16.45V16.425C95.8594 16.2083 95.901 16.0083 95.9844 15.825C96.0844 15.625 96.1677 15.4333 96.2344 15.25C96.2677 15.15 96.3094 15.05 96.3594 14.95C96.4094 14.85 96.4594 14.75 96.5094 14.65C96.576 14.5333 96.626 14.425 96.6594 14.325C96.7094 14.2083 96.751 14.0917 96.7844 13.975C96.8344 13.8417 96.8344 13.7167 96.7844 13.6C96.751 13.5 96.7344 13.4083 96.7344 13.325C96.7344 13.225 96.7427 13.125 96.7594 13.025C96.7594 12.8417 96.826 12.6833 96.9594 12.55C97.026 12.4667 97.0927 12.4 97.1594 12.35C97.2427 12.2833 97.3177 12.2167 97.3844 12.15C97.5344 12 97.651 11.8 97.7344 11.55C97.801 11.3333 97.851 11.1167 97.8844 10.9C97.9344 10.6667 97.9844 10.4417 98.0344 10.225C98.0677 10.0083 98.101 9.8 98.1344 9.6C98.1844 9.38333 98.2344 9.175 98.2844 8.975C98.301 8.89167 98.3177 8.81667 98.3344 8.75C98.3677 8.66667 98.3927 8.59167 98.4094 8.525C98.4594 8.39167 98.5094 8.26667 98.5594 8.15C98.6094 8.01667 98.6427 7.88333 98.6594 7.75C98.6927 7.68333 98.6927 7.625 98.6594 7.575C98.6427 7.49167 98.6427 7.41667 98.6594 7.35C98.6927 7.28333 98.7177 7.21667 98.7344 7.15C98.7844 7.03333 98.8177 6.91667 98.8344 6.8C98.8677 6.68333 98.9094 6.56667 98.9594 6.45C99.0427 6.23333 99.1094 6.05833 99.1594 5.925C99.226 5.775 99.2844 5.60833 99.3344 5.425C99.3677 5.325 99.401 5.23333 99.4344 5.15C99.4844 5.05 99.5177 4.95 99.5344 4.85C99.5844 4.7 99.626 4.55 99.6594 4.4C99.6927 4.23333 99.7094 4.075 99.7094 3.925C99.7427 3.79167 99.776 3.7 99.8094 3.65C99.8927 3.48333 99.9927 3.34167 100.109 3.225C100.243 3.10833 100.368 2.99167 100.484 2.875C100.568 2.825 100.651 2.79167 100.734 2.775C100.818 2.74167 100.901 2.75 100.984 2.8C101.051 2.83333 101.093 2.85 101.109 2.85C101.259 2.83333 101.384 2.86667 101.484 2.95C101.584 3.03333 101.668 3.13333 101.734 3.25C101.768 3.28333 101.793 3.325 101.809 3.375C101.826 3.425 101.843 3.46667 101.859 3.5C101.943 3.63333 101.984 3.76667 101.984 3.9C101.984 3.96667 101.993 4.04167 102.009 4.125C102.026 4.19167 102.043 4.26667 102.059 4.35C102.109 4.45 102.184 4.5 102.284 4.5C102.301 4.48333 102.318 4.48333 102.334 4.5C102.351 4.51667 102.359 4.53333 102.359 4.55C102.443 4.65 102.468 4.75833 102.434 4.875C102.401 5.00833 102.393 5.14167 102.409 5.275C102.443 5.39167 102.476 5.51667 102.509 5.65C102.576 5.81667 102.643 5.98333 102.709 6.15C102.776 6.31667 102.843 6.48333 102.909 6.65C102.993 6.83333 103.076 7.01667 103.159 7.2C103.243 7.38333 103.318 7.56667 103.384 7.75C103.468 7.98333 103.551 8.21667 103.634 8.45C103.734 8.68333 103.843 8.91667 103.959 9.15L104.034 9.425C104.051 9.49167 104.068 9.55833 104.084 9.625C104.118 9.69167 104.143 9.75833 104.159 9.825C104.193 9.875 104.218 9.925 104.234 9.975C104.268 10.025 104.301 10.0667 104.334 10.1C104.418 10.2167 104.468 10.3417 104.484 10.475C104.534 10.6417 104.609 10.7917 104.709 10.925C104.743 10.975 104.793 11 104.859 11C105.109 10.9667 105.359 10.9417 105.609 10.925C105.859 10.8917 106.109 10.8417 106.359 10.775C106.543 10.725 106.718 10.7 106.884 10.7C107.201 10.7 107.493 10.8083 107.759 11.025C108.076 11.275 108.243 11.5917 108.259 11.975C108.259 12.0583 108.268 12.125 108.284 12.175C108.284 12.2917 108.251 12.3833 108.184 12.45C108.168 12.5 108.134 12.55 108.084 12.6C108.051 12.65 108.018 12.7 107.984 12.75C107.951 12.8167 107.918 12.8667 107.884 12.9L107.734 13.025C107.718 13.0583 107.693 13.1 107.659 13.15C107.626 13.1833 107.584 13.2083 107.534 13.225C107.468 13.2417 107.401 13.2667 107.334 13.3C107.268 13.3167 107.193 13.325 107.109 13.325C106.809 13.3583 106.543 13.35 106.309 13.3H105.909C105.876 13.3 105.826 13.3167 105.759 13.35C105.693 13.3833 105.659 13.425 105.659 13.475V13.575C105.709 13.725 105.743 13.8833 105.759 14.05C105.793 14.2 105.843 14.3417 105.909 14.475C105.909 14.5417 105.926 14.6083 105.959 14.675C106.043 14.825 106.109 14.9833 106.159 15.15C106.209 15.3 106.251 15.4583 106.284 15.625C106.284 15.6583 106.301 15.725 106.334 15.825C106.384 15.9417 106.426 16.0667 106.459 16.2C106.493 16.3167 106.518 16.4417 106.534 16.575C106.534 16.675 106.559 16.7667 106.609 16.85C106.676 17 106.726 17.15 106.759 17.3C106.793 17.45 106.818 17.6083 106.834 17.775C106.851 17.7917 106.859 17.825 106.859 17.875C106.859 17.9083 106.868 17.9417 106.884 17.975C106.968 18.1583 107.026 18.3583 107.059 18.575C107.093 18.775 107.134 18.975 107.184 19.175C107.218 19.275 107.234 19.375 107.234 19.475C107.251 19.5917 107.259 19.7083 107.259 19.825C107.259 19.9083 107.234 20 107.184 20.1C107.134 20.15 107.109 20.175 107.109 20.175C107.009 20.1917 106.951 20.25 106.934 20.35L106.859 20.5C106.826 20.5667 106.776 20.6083 106.709 20.625C106.643 20.625 106.584 20.65 106.534 20.7C106.468 20.7667 106.376 20.8 106.259 20.8C106.193 20.8 106.109 20.8 106.009 20.8C105.926 20.8 105.843 20.8083 105.759 20.825ZM99.7344 11.75C99.8344 11.7333 99.9344 11.7167 100.034 11.7C100.151 11.6833 100.276 11.6667 100.409 11.65C100.493 11.6333 100.601 11.6167 100.734 11.6C100.868 11.5833 100.993 11.5667 101.109 11.55C101.226 11.5167 101.343 11.5 101.459 11.5C101.576 11.4833 101.693 11.4667 101.809 11.45C101.909 11.4167 102.009 11.4 102.109 11.4C102.209 11.3833 102.309 11.3667 102.409 11.35C102.559 11.3167 102.618 11.2333 102.584 11.1C102.568 10.9667 102.534 10.8333 102.484 10.7C102.451 10.55 102.376 10.425 102.259 10.325C102.226 10.2917 102.209 10.2417 102.209 10.175V10.1C102.176 9.96667 102.134 9.84167 102.084 9.725C102.051 9.59167 102.009 9.46667 101.959 9.35C101.926 9.21667 101.884 9.1 101.834 9C101.801 8.88333 101.759 8.76667 101.709 8.65L101.409 7.75C101.359 7.63333 101.309 7.51667 101.259 7.4C101.226 7.28333 101.193 7.16667 101.159 7.05L101.084 6.95H101.009L100.959 7.025C100.876 7.275 100.776 7.525 100.659 7.775C100.559 8.025 100.468 8.29167 100.384 8.575C100.384 8.60833 100.376 8.65 100.359 8.7C100.343 8.75 100.326 8.8 100.309 8.85C100.243 9.01667 100.176 9.2 100.109 9.4C100.059 9.6 100.018 9.8 99.9844 10C99.9677 10.1167 99.951 10.2333 99.9344 10.35C99.9177 10.45 99.8927 10.5583 99.8594 10.675L99.6344 11.65C99.6177 11.6667 99.626 11.6917 99.6594 11.725C99.6927 11.7417 99.7177 11.75 99.7344 11.75ZM112.233 19.25C112.133 19.25 112.067 19.2417 112.033 19.225C111.967 19.1917 111.908 19.1667 111.858 19.15C111.808 19.1333 111.758 19.1167 111.708 19.1C111.658 19.0667 111.608 19.0333 111.558 19C111.525 18.95 111.492 18.9 111.458 18.85C111.425 18.8167 111.392 18.8 111.358 18.8C111.258 18.8 111.208 18.75 111.208 18.65C111.192 18.55 111.175 18.45 111.158 18.35C111.142 18.25 111.125 18.15 111.108 18.05C111.092 17.9 111.075 17.75 111.058 17.6C111.058 17.45 111.042 17.3083 111.008 17.175V16.95C111.008 16.8833 111 16.825 110.983 16.775C110.983 16.725 110.983 16.6667 110.983 16.6C110.95 16.5167 110.95 16.45 110.983 16.4C111.017 16.1 111.017 15.8 110.983 15.5C110.967 15.4167 110.958 15.3333 110.958 15.25C110.958 15.1667 110.95 15.0833 110.933 15C110.933 14.8333 110.933 14.6667 110.933 14.5C110.933 14.3167 110.917 14.1417 110.883 13.975V13.575C110.883 13.4417 110.875 13.3167 110.858 13.2C110.858 13.0833 110.85 12.9667 110.833 12.85C110.817 12.7 110.8 12.55 110.783 12.4C110.783 12.25 110.775 12.1 110.758 11.95C110.742 11.9167 110.733 11.8583 110.733 11.775C110.717 11.6917 110.7 11.6083 110.683 11.525C110.683 11.425 110.683 11.3333 110.683 11.25L110.608 10C110.592 9.86667 110.575 9.74167 110.558 9.625C110.558 9.49167 110.558 9.36667 110.558 9.25C110.542 9.05 110.525 8.85 110.508 8.65C110.492 8.45 110.475 8.25833 110.458 8.075C110.458 8.04167 110.45 8.00833 110.433 7.975C110.433 7.94167 110.433 7.91667 110.433 7.9C110.433 7.7 110.425 7.5 110.408 7.3C110.392 7.1 110.375 6.89167 110.358 6.675L110.283 5.975C110.233 5.70833 110.225 5.41667 110.258 5.1C110.258 4.95 110.317 4.825 110.433 4.725C110.467 4.69167 110.492 4.675 110.508 4.675C110.525 4.65833 110.542 4.64167 110.558 4.625C110.642 4.60833 110.683 4.55 110.683 4.45C110.683 4.41667 110.717 4.4 110.783 4.4H110.908C110.925 4.4 110.933 4.4 110.933 4.4C110.95 4.38333 110.967 4.375 110.983 4.375C111.017 4.35833 111.042 4.34167 111.058 4.325C111.092 4.29167 111.117 4.275 111.133 4.275C111.167 4.275 111.2 4.28333 111.233 4.3C111.267 4.3 111.3 4.30833 111.333 4.325C111.367 4.325 111.392 4.31667 111.408 4.3C111.492 4.28333 111.575 4.29167 111.658 4.325C111.758 4.34167 111.842 4.36667 111.908 4.4C112.008 4.41667 112.083 4.48333 112.133 4.6C112.183 4.75 112.225 4.9 112.258 5.05C112.308 5.18333 112.342 5.325 112.358 5.475V5.675C112.392 5.79167 112.408 5.91667 112.408 6.05C112.408 6.16667 112.408 6.29167 112.408 6.425C112.408 6.54167 112.408 6.65833 112.408 6.775C112.425 6.875 112.442 6.975 112.458 7.075C112.458 7.125 112.458 7.175 112.458 7.225C112.458 7.275 112.467 7.325 112.483 7.375C112.483 7.475 112.483 7.575 112.483 7.675C112.5 7.775 112.517 7.88333 112.533 8C112.55 8.18333 112.567 8.375 112.583 8.575C112.6 8.775 112.608 8.975 112.608 9.175C112.608 9.25833 112.608 9.35 112.608 9.45C112.608 9.53333 112.617 9.61667 112.633 9.7C112.65 9.75 112.658 9.8 112.658 9.85C112.658 9.9 112.658 9.95 112.658 10V10.5C112.658 10.6 112.667 10.6833 112.683 10.75C112.717 10.8667 112.725 10.9833 112.708 11.1C112.708 11.2 112.717 11.3083 112.733 11.425L112.808 12.575C112.825 12.7417 112.833 12.9167 112.833 13.1C112.85 13.2667 112.858 13.4417 112.858 13.625C112.858 13.6917 112.858 13.7667 112.858 13.85C112.858 13.9167 112.867 13.9833 112.883 14.05C112.9 14.1 112.908 14.15 112.908 14.2C112.908 14.25 112.908 14.3 112.908 14.35C112.925 14.3667 112.925 14.4 112.908 14.45C112.908 14.4833 112.917 14.5167 112.933 14.55C112.967 14.6667 112.983 14.7833 112.983 14.9C112.983 15.0167 112.983 15.1417 112.983 15.275C112.983 15.3417 112.983 15.4167 112.983 15.5C113 15.5667 113.008 15.6417 113.008 15.725C113.025 15.8083 113.033 15.9 113.033 16C113.033 16.1 113.033 16.1917 113.033 16.275C113.05 16.3583 113.058 16.45 113.058 16.55C113.058 16.6333 113.067 16.7167 113.083 16.8C113.1 16.8333 113.108 16.8667 113.108 16.9C113.108 17.0833 113.125 17.2667 113.158 17.45C113.192 17.6333 113.225 17.8167 113.258 18C113.275 18.05 113.283 18.1083 113.283 18.175C113.283 18.225 113.283 18.275 113.283 18.325C113.283 18.375 113.267 18.4167 113.233 18.45C113.167 18.5 113.117 18.6 113.083 18.75C113.083 18.8 113.058 18.8417 113.008 18.875C112.892 18.925 112.792 18.9917 112.708 19.075C112.575 19.1917 112.417 19.25 112.233 19.25ZM120.635 18.975C120.601 18.9583 120.551 18.95 120.485 18.95C120.451 18.95 120.418 18.925 120.385 18.875C120.351 18.825 120.318 18.7833 120.285 18.75C120.251 18.7 120.218 18.6417 120.185 18.575C120.135 18.5083 120.093 18.5083 120.06 18.575H120.01C120.01 18.5583 120.001 18.55 119.985 18.55C119.985 18.5333 119.985 18.525 119.985 18.525C119.935 18.2917 119.86 18.075 119.76 17.875C119.71 17.7417 119.66 17.6083 119.61 17.475C119.576 17.325 119.551 17.175 119.535 17.025L119.385 15.925L119.31 15.025V14.975C119.276 14.775 119.26 14.575 119.26 14.375C119.26 14.1583 119.26 13.9417 119.26 13.725C119.243 13.6083 119.235 13.5 119.235 13.4C119.235 13.2833 119.226 13.1667 119.21 13.05C119.193 12.9167 119.176 12.7833 119.16 12.65C119.16 12.5167 119.16 12.3917 119.16 12.275L119.185 10.3V7.625C119.151 7.525 119.101 7.475 119.035 7.475C119.001 7.475 118.96 7.48333 118.91 7.5C118.876 7.5 118.843 7.5 118.81 7.5L117.685 7.8C117.535 7.85 117.385 7.9 117.235 7.95C117.085 7.98333 116.935 8.025 116.785 8.075C116.668 8.09167 116.551 8.10833 116.435 8.125C116.335 8.125 116.226 8.125 116.11 8.125C116.026 8.125 115.935 8.09167 115.835 8.025C115.718 7.975 115.618 7.90833 115.535 7.825C115.451 7.74167 115.368 7.65 115.285 7.55L115.235 7.475C115.201 7.35833 115.168 7.25 115.135 7.15C115.118 7.03333 115.118 6.91667 115.135 6.8C115.151 6.65 115.185 6.50833 115.235 6.375C115.301 6.24167 115.393 6.125 115.51 6.025C115.56 5.99167 115.601 5.95 115.635 5.9C115.685 5.85 115.735 5.8 115.785 5.75C115.851 5.71667 115.893 5.7 115.91 5.7C116.01 5.7 116.101 5.68333 116.185 5.65C116.268 5.6 116.351 5.56667 116.435 5.55C116.518 5.53333 116.601 5.51667 116.685 5.5C116.768 5.48333 116.851 5.46667 116.935 5.45C117.168 5.38333 117.401 5.325 117.635 5.275C117.868 5.20833 118.101 5.15833 118.335 5.125L119.685 4.9C119.718 4.88333 119.743 4.875 119.76 4.875C119.793 4.875 119.818 4.86667 119.835 4.85C119.935 4.81667 120.035 4.79167 120.135 4.775C120.235 4.75833 120.335 4.76667 120.435 4.8C120.468 4.81667 120.493 4.825 120.51 4.825C120.543 4.80833 120.568 4.8 120.585 4.8C120.868 4.76667 121.151 4.73333 121.435 4.7C121.718 4.66667 121.993 4.625 122.26 4.575C122.476 4.54167 122.693 4.50833 122.91 4.475C123.126 4.44167 123.343 4.41667 123.56 4.4C123.726 4.36667 123.893 4.34167 124.06 4.325C124.226 4.30833 124.393 4.29167 124.56 4.275C124.693 4.25833 124.826 4.24167 124.96 4.225C125.11 4.20833 125.251 4.19167 125.385 4.175C125.518 4.15833 125.643 4.15833 125.76 4.175C125.893 4.175 126.026 4.175 126.16 4.175C126.243 4.175 126.318 4.2 126.385 4.25C126.468 4.3 126.543 4.34167 126.61 4.375C126.676 4.425 126.768 4.50833 126.885 4.625C126.918 4.65833 126.951 4.73333 126.985 4.85C127.001 4.9 127.018 4.95833 127.035 5.025C127.051 5.075 127.068 5.13333 127.085 5.2C127.118 5.35 127.101 5.49167 127.035 5.625L126.885 5.975C126.868 6.025 126.843 6.075 126.81 6.125C126.793 6.15833 126.768 6.19167 126.735 6.225C126.701 6.25833 126.685 6.275 126.685 6.275C126.618 6.325 126.543 6.375 126.46 6.425C126.393 6.475 126.31 6.50833 126.21 6.525L125.135 6.6C125.035 6.6 124.935 6.60833 124.835 6.625C124.735 6.625 124.626 6.63333 124.51 6.65H124.385C124.118 6.66667 123.86 6.69167 123.61 6.725C123.36 6.75833 123.11 6.79167 122.86 6.825L121.86 6.975C121.81 6.975 121.776 6.98333 121.76 7C121.693 7 121.643 7.05 121.61 7.15V7.225C121.61 7.39167 121.61 7.55833 121.61 7.725C121.61 7.875 121.618 8.03333 121.635 8.2C121.685 8.43333 121.685 8.66667 121.635 8.9C121.618 8.95 121.601 9 121.585 9.05C121.585 9.08333 121.585 9.11667 121.585 9.15C121.601 9.35 121.585 9.56667 121.535 9.8C121.535 9.85 121.535 9.9 121.535 9.95C121.535 10 121.543 10.05 121.56 10.1C121.576 10.1667 121.585 10.2417 121.585 10.325C121.585 10.4083 121.585 10.4917 121.585 10.575V11.875C121.585 11.9417 121.576 12.025 121.56 12.125C121.56 12.2083 121.56 12.2917 121.56 12.375C121.56 12.4417 121.56 12.5167 121.56 12.6C121.576 12.6833 121.585 12.7667 121.585 12.85C121.585 12.9667 121.585 13.0833 121.585 13.2C121.601 13.3167 121.601 13.4417 121.585 13.575V14.35C121.585 14.3667 121.576 14.3833 121.56 14.4C121.56 14.4167 121.568 14.4417 121.585 14.475C121.601 14.625 121.61 14.7833 121.61 14.95C121.61 15.1 121.626 15.25 121.66 15.4C121.66 15.45 121.66 15.5 121.66 15.55C121.676 15.6 121.676 15.65 121.66 15.7C121.66 15.85 121.676 16.0083 121.71 16.175C121.743 16.325 121.768 16.475 121.785 16.625C121.818 16.8083 121.851 16.9917 121.885 17.175C121.935 17.3583 121.976 17.5417 122.01 17.725L122.085 18.075C122.085 18.125 122.06 18.1667 122.01 18.2C122.01 18.2 122.001 18.2 121.985 18.2C121.985 18.2 121.976 18.2083 121.96 18.225C121.876 18.2583 121.843 18.3083 121.86 18.375V18.5C121.86 18.5 121.851 18.5083 121.835 18.525C121.835 18.5417 121.826 18.55 121.81 18.55C121.726 18.55 121.66 18.5833 121.61 18.65C121.56 18.7167 121.501 18.775 121.435 18.825C121.385 18.8583 121.318 18.8917 121.235 18.925C121.018 19.0083 120.818 19.025 120.635 18.975ZM133.826 20.225L133.401 20.15C133.184 20.1167 132.959 20.0833 132.726 20.05C132.509 20.0167 132.284 19.9917 132.051 19.975C131.817 19.975 131.584 19.9083 131.351 19.775C131.134 19.6583 130.984 19.475 130.901 19.225C130.884 19.1417 130.859 19.0583 130.826 18.975C130.809 18.8917 130.792 18.8083 130.776 18.725C130.776 18.525 130.817 18.375 130.901 18.275C130.984 18.1917 131.051 18.1083 131.101 18.025C131.167 17.9417 131.234 17.8667 131.301 17.8C131.334 17.7667 131.367 17.7417 131.401 17.725C131.434 17.7083 131.467 17.6917 131.501 17.675C131.584 17.625 131.667 17.5917 131.751 17.575C131.834 17.5417 131.917 17.5167 132.001 17.5C132.034 17.4833 132.059 17.4833 132.076 17.5C132.109 17.5 132.134 17.5 132.151 17.5C132.234 17.5167 132.326 17.5333 132.426 17.55C132.526 17.55 132.617 17.5667 132.701 17.6L133.751 17.75C133.984 17.7833 134.192 17.75 134.376 17.65C134.442 17.6167 134.501 17.5833 134.551 17.55C134.617 17.5167 134.676 17.4833 134.726 17.45C135.092 17.2333 135.409 17.0083 135.676 16.775C135.876 16.5917 136.067 16.4083 136.251 16.225C136.434 16.0417 136.601 15.8417 136.751 15.625C136.867 15.475 136.942 15.325 136.976 15.175C137.009 15.0083 137.017 14.8417 137.001 14.675L136.926 14.475C136.909 14.3917 136.876 14.325 136.826 14.275C136.776 14.225 136.726 14.1667 136.676 14.1C136.576 14.0167 136.476 13.925 136.376 13.825C136.292 13.725 136.201 13.6417 136.101 13.575C135.851 13.375 135.601 13.1833 135.351 13C135.117 12.8167 134.876 12.6333 134.626 12.45C134.609 12.4167 134.559 12.3833 134.476 12.35C134.326 12.25 134.176 12.1417 134.026 12.025C133.892 11.8917 133.759 11.7667 133.626 11.65C133.459 11.4833 133.276 11.325 133.076 11.175C132.976 11.125 132.884 11.0417 132.801 10.925C132.734 10.8417 132.634 10.7583 132.501 10.675C132.384 10.6083 132.276 10.5333 132.176 10.45C132.076 10.35 131.976 10.2583 131.876 10.175L131.551 9.875C131.484 9.79167 131.409 9.71667 131.326 9.65C131.259 9.56667 131.184 9.48333 131.101 9.4C131.067 9.31667 131.017 9.25 130.951 9.2C130.901 9.15 130.851 9.09167 130.801 9.025C130.784 8.99167 130.759 8.95833 130.726 8.925C130.692 8.875 130.667 8.825 130.651 8.775C130.551 8.575 130.442 8.375 130.326 8.175C130.226 7.975 130.134 7.76667 130.051 7.55C130.001 7.41667 129.951 7.29167 129.901 7.175C129.867 7.04167 129.834 6.91667 129.801 6.8C129.784 6.66667 129.751 6.55 129.701 6.45C129.667 6.33333 129.634 6.21667 129.601 6.1C129.567 5.91667 129.526 5.74167 129.476 5.575C129.442 5.39167 129.409 5.21667 129.376 5.05L129.326 4.85C129.309 4.66667 129.309 4.49167 129.326 4.325C129.359 4.09167 129.409 3.88333 129.476 3.7C129.542 3.5 129.651 3.34167 129.801 3.225C129.967 3.09167 130.134 2.95833 130.301 2.825C130.467 2.69167 130.642 2.58333 130.826 2.5C130.859 2.5 130.884 2.49167 130.901 2.475C131.067 2.34167 131.251 2.25 131.451 2.2C131.651 2.13333 131.851 2.075 132.051 2.025C132.851 1.79167 133.676 1.61667 134.526 1.5H134.776C134.942 1.5 135.101 1.5 135.251 1.5C135.401 1.5 135.559 1.49167 135.726 1.475C135.926 1.475 136.126 1.5 136.326 1.55C136.526 1.58333 136.717 1.64167 136.901 1.725C137.034 1.79167 137.167 1.86667 137.301 1.95C137.434 2.01667 137.559 2.09167 137.676 2.175C137.809 2.275 137.892 2.38333 137.926 2.5L138.001 2.675C138.084 2.825 138.126 2.98333 138.126 3.15C138.142 3.3 138.134 3.45833 138.101 3.625C138.101 3.675 138.092 3.73333 138.076 3.8C138.076 3.85 138.076 3.9 138.076 3.95C138.026 4.31667 137.851 4.6 137.551 4.8C137.367 4.96667 137.126 5.03333 136.826 5C136.759 4.96667 136.726 4.98333 136.726 5.05C136.726 5.11667 136.684 5.15 136.601 5.15H136.451C136.351 5.15 136.251 5.1 136.151 5C136.067 4.91667 136.026 4.85 136.026 4.8C136.026 4.73333 136.059 4.68333 136.126 4.65C136.092 4.56667 136.059 4.49167 136.026 4.425C135.992 4.35833 135.959 4.30833 135.926 4.275C135.876 4.19167 135.801 4.13333 135.701 4.1C135.617 4.08333 135.534 4.06667 135.451 4.05C135.367 4.03333 135.284 4.01667 135.201 4C135.134 4 135.059 4 134.976 4C134.892 3.98333 134.809 3.96667 134.726 3.95C134.676 3.93333 134.601 3.94167 134.501 3.975C134.451 3.99167 134.401 4.00833 134.351 4.025C134.301 4.025 134.242 4.01667 134.176 4C134.126 4 134.067 4 134.001 4C133.951 4 133.892 4.01667 133.826 4.05L133.351 4.125C133.084 4.175 132.826 4.275 132.576 4.425C132.526 4.44167 132.476 4.45833 132.426 4.475C132.376 4.49167 132.326 4.49167 132.276 4.475C132.176 4.45833 132.092 4.48333 132.026 4.55C132.009 4.58333 131.967 4.60833 131.901 4.625C131.851 4.625 131.809 4.64167 131.776 4.675C131.709 4.74167 131.676 4.80833 131.676 4.875C131.692 4.90833 131.701 4.95833 131.701 5.025L132.226 6.55C132.326 6.81667 132.451 7.06667 132.601 7.3C132.767 7.51667 132.942 7.73333 133.126 7.95C133.409 8.28333 133.701 8.56667 134.001 8.8L134.801 9.475C134.967 9.625 135.142 9.76667 135.326 9.9C135.509 10.0333 135.684 10.1667 135.851 10.3C136.101 10.4833 136.351 10.675 136.601 10.875C136.851 11.0583 137.101 11.25 137.351 11.45C137.551 11.6167 137.742 11.7833 137.926 11.95C138.126 12.1 138.309 12.2667 138.476 12.45C138.592 12.5833 138.709 12.7167 138.826 12.85C138.942 12.9833 139.042 13.1333 139.126 13.3C139.242 13.4833 139.342 13.7 139.426 13.95C139.526 14.2667 139.567 14.5667 139.551 14.85C139.534 14.8833 139.526 14.9333 139.526 15C139.526 15.2 139.501 15.3917 139.451 15.575C139.417 15.7417 139.359 15.9167 139.276 16.1C139.192 16.2667 139.101 16.4417 139.001 16.625C138.917 16.7917 138.817 16.9583 138.701 17.125C138.534 17.3417 138.359 17.55 138.176 17.75C138.009 17.9333 137.817 18.1167 137.601 18.3C137.484 18.4 137.367 18.5083 137.251 18.625C137.134 18.725 137.009 18.8167 136.876 18.9C136.792 18.9667 136.709 19.025 136.626 19.075C136.542 19.1417 136.459 19.2083 136.376 19.275C136.309 19.3083 136.242 19.35 136.176 19.4C136.109 19.45 136.042 19.5 135.976 19.55C135.909 19.6167 135.826 19.6667 135.726 19.7C135.642 19.75 135.559 19.7917 135.476 19.825L134.751 20.125C134.601 20.175 134.451 20.2083 134.301 20.225C134.151 20.2417 133.992 20.2417 133.826 20.225Z" fill="#353535"/>
</svg>
