<svg width="168" height="35" viewBox="0 0 168 35" fill="none" xmlns="http://www.w3.org/2000/svg">
<path d="M3.59203 34.1C3.37203 34.16 3.18203 34.08 3.02203 33.86L2.93203 33.62C2.89203 33.46 2.85203 33.29 2.81203 33.11C2.77203 32.93 2.74203 32.76 2.72203 32.6L2.63203 32C2.61203 31.9 2.59203 31.79 2.57203 31.67C2.57203 31.57 2.56203 31.47 2.54203 31.37C2.54203 31.25 2.53203 31.13 2.51203 31.01C2.51203 30.91 2.50203 30.8 2.48203 30.68C2.48203 30.58 2.48203 30.48 2.48203 30.38C2.48203 30.3 2.47203 30.21 2.45203 30.11C2.45203 30.03 2.45203 29.95 2.45203 29.87C2.45203 29.79 2.44203 29.71 2.42203 29.63C2.42203 29.53 2.41203 29.42 2.39203 29.3C2.39203 29.2 2.39203 29.1 2.39203 29C2.37203 28.86 2.36203 28.72 2.36203 28.58C2.36203 28.44 2.35203 28.3 2.33203 28.16L2.24203 27.35V27.08C2.26203 26.94 2.27203 26.8 2.27203 26.66C2.27203 26.54 2.28203 26.41 2.30203 26.27V26.03C2.32203 25.85 2.31203 25.67 2.27203 25.49C2.25203 25.33 2.26203 25.16 2.30203 24.98C2.30203 24.82 2.29203 24.65 2.27203 24.47C2.27203 24.29 2.27203 24.12 2.27203 23.96C2.27203 23.84 2.28203 23.75 2.30203 23.69C2.32203 23.47 2.31203 23.25 2.27203 23.03C2.25203 22.83 2.24203 22.63 2.24203 22.43C2.24203 22.35 2.23203 22.29 2.21203 22.25C2.19203 22.19 2.16203 22.13 2.12203 22.07C1.98203 21.87 1.91203 21.63 1.91203 21.35C1.91203 21.21 1.90203 21.1 1.88203 21.02C1.88203 20.9 1.89203 20.81 1.91203 20.75C1.95203 20.41 1.94203 20.1 1.88203 19.82C1.88203 19.72 1.88203 19.63 1.88203 19.55C1.88203 19.45 1.87203 19.36 1.85203 19.28C1.85203 19.14 1.85203 19 1.85203 18.86C1.85203 18.7 1.83203 18.55 1.79203 18.41V18.38C1.77203 18.12 1.75203 17.87 1.73203 17.63C1.73203 17.39 1.72203 17.14 1.70203 16.88V16.73C1.66203 16.45 1.63203 16.17 1.61203 15.89C1.61203 15.59 1.58203 15.29 1.52203 14.99C1.50203 14.89 1.49203 14.79 1.49203 14.69C1.49203 14.57 1.49203 14.46 1.49203 14.36C1.49203 14.18 1.48203 14.01 1.46203 13.85C1.44203 13.67 1.41203 13.49 1.37203 13.31C1.37203 13.23 1.36203 13.15 1.34203 13.07C1.34203 12.99 1.34203 12.91 1.34203 12.83L1.25203 12.2C1.23203 12.14 1.21203 12.08 1.19203 12.02C1.19203 11.96 1.19203 11.89 1.19203 11.81L1.10203 10.88C1.10203 10.8 1.08203 10.72 1.04203 10.64C1.02203 10.48 0.992031 10.32 0.952031 10.16C0.932031 9.98 0.932031 9.81 0.952031 9.65C0.952031 9.51 0.942031 9.4 0.922031 9.32C0.902031 9.2 0.892031 9.08 0.892031 8.96C0.892031 8.82 0.892031 8.69 0.892031 8.57C0.892031 8.29 0.882031 8.01 0.862031 7.73C0.862031 7.45 0.872031 7.18 0.892031 6.92C0.892031 6.74 0.892031 6.57 0.892031 6.41C0.912031 6.23 0.932031 6.06 0.952031 5.9V5.6C0.952031 5.44 0.922031 5.29 0.862031 5.15C0.822031 5.09 0.782031 5.02 0.742031 4.94C0.722031 4.88 0.702031 4.82 0.682031 4.76C0.662031 4.68 0.632031 4.6 0.592031 4.52C0.492031 4.24 0.522031 3.96 0.682031 3.68C0.682031 3.66 0.682031 3.65 0.682031 3.65C0.702031 3.63 0.712031 3.61 0.712031 3.59C0.772031 3.43 0.882031 3.28 1.04203 3.14C1.28203 2.96 1.44203 2.74 1.52203 2.48C1.64203 2.2 1.82203 1.98 2.06203 1.82C2.12203 1.78 2.17203 1.75 2.21203 1.73C2.27203 1.69 2.33203 1.67 2.39203 1.67C2.47203 1.65 2.56203 1.59 2.66203 1.49C2.68203 1.47 2.72203 1.46 2.78203 1.46L3.38203 1.55C3.50203 1.55 3.60203 1.59 3.68203 1.67C3.76203 1.75 3.83203 1.82 3.89203 1.88C3.97203 1.94 4.02203 2.02 4.04203 2.12L4.22203 2.3C4.32203 2.4 4.42203 2.44 4.52203 2.42C4.62203 2.4 4.71203 2.4 4.79203 2.42C4.87203 2.44 4.95203 2.47 5.03203 2.51C5.15203 2.57 5.27203 2.62 5.39203 2.66C5.53203 2.7 5.66203 2.74 5.78203 2.78C5.86203 2.8 5.93203 2.83 5.99203 2.87C6.07203 2.91 6.15203 2.95 6.23203 2.99C6.47203 3.09 6.71203 3.2 6.95203 3.32C7.19203 3.42 7.42203 3.55 7.64203 3.71C7.88203 3.87 8.12203 4.04 8.36203 4.22C8.62203 4.38 8.85203 4.56 9.05203 4.76L10.402 5.9C10.522 5.98 10.632 6.08 10.732 6.2C10.832 6.3 10.932 6.4 11.032 6.5C11.232 6.7 11.452 6.89 11.692 7.07C11.852 7.17 11.992 7.28 12.112 7.4C12.252 7.52 12.392 7.64 12.532 7.76C12.692 7.9 12.842 8.05 12.982 8.21C13.122 8.37 13.262 8.53 13.402 8.69C13.582 8.89 13.742 9.1 13.882 9.32C14.022 9.54 14.132 9.78 14.212 10.04L14.482 10.76C14.582 11 14.662 11.25 14.722 11.51C14.782 11.75 14.802 12.01 14.782 12.29V12.74C14.802 12.98 14.792 13.22 14.752 13.46C14.712 13.7 14.662 13.93 14.602 14.15C14.582 14.25 14.562 14.35 14.542 14.45C14.522 14.53 14.502 14.62 14.482 14.72C14.362 15.06 14.212 15.4 14.032 15.74C13.952 15.88 13.872 16.03 13.792 16.19C13.712 16.33 13.622 16.48 13.522 16.64C13.482 16.72 13.432 16.79 13.372 16.85C13.172 17.11 12.952 17.36 12.712 17.6C12.492 17.84 12.252 18.07 11.992 18.29C11.912 18.35 11.832 18.42 11.752 18.5C11.672 18.56 11.592 18.63 11.512 18.71C11.492 18.75 11.452 18.79 11.392 18.83C11.352 18.87 11.312 18.91 11.272 18.95C11.152 19.07 11.032 19.19 10.912 19.31C10.812 19.41 10.712 19.53 10.612 19.67L10.522 19.79C10.382 19.91 10.252 20.04 10.132 20.18C10.012 20.32 9.88203 20.45 9.74203 20.57C9.66203 20.65 9.57203 20.74 9.47203 20.84C9.37203 20.92 9.27203 21.01 9.17203 21.11C9.15203 21.13 9.13203 21.15 9.11203 21.17C9.09203 21.19 9.06203 21.22 9.02203 21.26C9.00203 21.3 8.97203 21.34 8.93203 21.38C8.89203 21.4 8.85203 21.43 8.81203 21.47L8.45203 21.83C8.31203 21.97 8.17203 22.1 8.03203 22.22C7.89203 22.34 7.74203 22.47 7.58203 22.61C7.56203 22.63 7.53203 22.65 7.49203 22.67C7.47203 22.69 7.45203 22.72 7.43203 22.76C7.35203 22.84 7.26203 22.91 7.16203 22.97C7.06203 23.03 6.96203 23.1 6.86203 23.18C6.80203 23.24 6.73203 23.27 6.65203 23.27C6.53203 23.31 6.43203 23.33 6.35203 23.33C6.21203 23.33 6.09203 23.39 5.99203 23.51C5.91203 23.59 5.83203 23.68 5.75203 23.78C5.67203 23.88 5.59203 23.98 5.51203 24.08L4.82203 24.98C4.64203 25.16 4.52203 25.39 4.46203 25.67C4.44203 25.81 4.42203 25.95 4.40203 26.09C4.38203 26.25 4.35203 26.41 4.31203 26.57C4.25203 26.81 4.22203 27.07 4.22203 27.35C4.24203 27.57 4.23203 27.78 4.19203 27.98C4.17203 28.2 4.15203 28.42 4.13203 28.64V28.82C4.13203 28.96 4.14203 29.1 4.16203 29.24C4.18203 29.4 4.18203 29.56 4.16203 29.72C4.14203 29.86 4.13203 30 4.13203 30.14C4.13203 30.3 4.13203 30.45 4.13203 30.59C4.13203 30.73 4.13203 30.86 4.13203 30.98C4.13203 31.1 4.12203 31.22 4.10203 31.34C4.10203 31.48 4.09203 31.62 4.07203 31.76C4.07203 31.92 4.08203 32.07 4.10203 32.21V32.51C4.10203 32.59 4.10203 32.67 4.10203 32.75C4.10203 32.83 4.09203 32.92 4.07203 33.02C4.07203 33.12 4.06203 33.22 4.04203 33.32C4.04203 33.44 4.03203 33.55 4.01203 33.65C4.01203 33.67 4.00203 33.68 3.98203 33.68C3.98203 33.68 3.98203 33.69 3.98203 33.71C3.92203 33.95 3.79203 34.08 3.59203 34.1ZM6.17203 19.19C6.21203 19.19 6.25203 19.17 6.29203 19.13C6.39203 19.09 6.49203 19.04 6.59203 18.98C6.69203 18.92 6.78203 18.86 6.86203 18.8C7.02203 18.72 7.19203 18.59 7.37203 18.41C7.59203 18.17 7.82203 17.94 8.06203 17.72C8.30203 17.48 8.53203 17.24 8.75203 17C8.97203 16.76 9.20203 16.52 9.44203 16.28C9.68203 16.02 9.91203 15.78 10.132 15.56L10.732 14.93C10.812 14.85 10.882 14.77 10.942 14.69C11.002 14.59 11.062 14.5 11.122 14.42C11.282 14.2 11.332 13.95 11.272 13.67C11.212 13.23 11.092 12.82 10.912 12.44C10.852 12.26 10.782 12.09 10.702 11.93C10.622 11.75 10.542 11.58 10.462 11.42C10.382 11.3 10.332 11.21 10.312 11.15C10.252 11.09 10.202 11.02 10.162 10.94C10.042 10.76 9.91203 10.6 9.77203 10.46C9.73203 10.42 9.68203 10.38 9.62203 10.34C9.58203 10.28 9.54203 10.22 9.50203 10.16C9.42203 10.04 9.34203 9.92 9.26203 9.8C9.20203 9.68 9.12203 9.57 9.02203 9.47C8.88203 9.25 8.78203 9.12 8.72203 9.08C8.66203 9.02 8.52203 8.92 8.30203 8.78C8.06203 8.64 7.86203 8.49 7.70203 8.33L7.52203 8.15C7.34203 8.01 7.16203 7.88 6.98203 7.76C6.82203 7.64 6.65203 7.51 6.47203 7.37C6.27203 7.23 6.07203 7.11 5.87203 7.01C5.67203 6.89 5.46203 6.77 5.24203 6.65C5.18203 6.61 5.11203 6.58 5.03203 6.56C4.95203 6.54 4.87203 6.52 4.79203 6.5C4.71203 6.48 4.64203 6.5 4.58203 6.56L4.52203 6.71C4.48203 6.79 4.46203 6.93 4.46203 7.13L4.55203 7.94C4.59203 8.16 4.63203 8.38 4.67203 8.6C4.73203 8.82 4.78203 9.04 4.82203 9.26V9.38C4.86203 9.58 4.89203 9.79 4.91203 10.01C4.93203 10.23 4.96203 10.45 5.00203 10.67C5.04203 10.85 5.07203 11.03 5.09203 11.21C5.11203 11.39 5.13203 11.57 5.15203 11.75C5.17203 11.91 5.19203 12.07 5.21203 12.23C5.25203 12.37 5.28203 12.52 5.30203 12.68C5.36203 13.02 5.41203 13.36 5.45203 13.7C5.51203 14.02 5.56203 14.35 5.60203 14.69L5.69203 15.44C5.71203 15.52 5.72203 15.6 5.72203 15.68C5.72203 15.74 5.73203 15.8 5.75203 15.86V16.1C5.79203 16.32 5.82203 16.55 5.84203 16.79C5.88203 17.01 5.91203 17.24 5.93203 17.48C5.95203 17.52 5.96203 17.58 5.96203 17.66C5.94203 17.88 5.95203 18.11 5.99203 18.35C6.03203 18.59 6.05203 18.82 6.05203 19.04V19.13C6.05203 19.15 6.06203 19.17 6.08203 19.19C6.12203 19.21 6.15203 19.21 6.17203 19.19ZM20.0121 23.3C19.8921 23.3 19.8121 23.29 19.7721 23.27C19.6921 23.23 19.6221 23.2 19.5621 23.18C19.5021 23.16 19.4421 23.14 19.3821 23.12C19.3221 23.08 19.2621 23.04 19.2021 23C19.1621 22.94 19.1221 22.88 19.0821 22.82C19.0421 22.78 19.0021 22.76 18.9621 22.76C18.8421 22.76 18.7821 22.7 18.7821 22.58C18.7621 22.46 18.7421 22.34 18.7221 22.22C18.7021 22.1 18.6821 21.98 18.6621 21.86C18.6421 21.68 18.6221 21.5 18.6021 21.32C18.6021 21.14 18.5821 20.97 18.5421 20.81V20.54C18.5421 20.46 18.5321 20.39 18.5121 20.33C18.5121 20.27 18.5121 20.2 18.5121 20.12C18.4721 20.02 18.4721 19.94 18.5121 19.88C18.5521 19.52 18.5521 19.16 18.5121 18.8C18.4921 18.7 18.4821 18.6 18.4821 18.5C18.4821 18.4 18.4721 18.3 18.4521 18.2C18.4521 18 18.4521 17.8 18.4521 17.6C18.4521 17.38 18.4321 17.17 18.3921 16.97V16.49C18.3921 16.33 18.3821 16.18 18.3621 16.04C18.3621 15.9 18.3521 15.76 18.3321 15.62C18.3121 15.44 18.2921 15.26 18.2721 15.08C18.2721 14.9 18.2621 14.72 18.2421 14.54C18.2221 14.5 18.2121 14.43 18.2121 14.33C18.1921 14.23 18.1721 14.13 18.1521 14.03C18.1521 13.91 18.1521 13.8 18.1521 13.7L18.0621 12.2C18.0421 12.04 18.0221 11.89 18.0021 11.75C18.0021 11.59 18.0021 11.44 18.0021 11.3C17.9821 11.06 17.9621 10.82 17.9421 10.58C17.9221 10.34 17.9021 10.11 17.8821 9.89C17.8821 9.85 17.8721 9.81 17.8521 9.77C17.8521 9.73 17.8521 9.7 17.8521 9.68C17.8521 9.44 17.8421 9.2 17.8221 8.96C17.8021 8.72 17.7821 8.47 17.7621 8.21L17.6721 7.37C17.6121 7.05 17.6021 6.7 17.6421 6.32C17.6421 6.14 17.7121 5.99 17.8521 5.87C17.8921 5.83 17.9221 5.81 17.9421 5.81C17.9621 5.79 17.9821 5.77 18.0021 5.75C18.1021 5.73 18.1521 5.66 18.1521 5.54C18.1521 5.5 18.1921 5.48 18.2721 5.48H18.4221C18.4421 5.48 18.4521 5.48 18.4521 5.48C18.4721 5.46 18.4921 5.45 18.5121 5.45C18.5521 5.43 18.5821 5.41 18.6021 5.39C18.6421 5.35 18.6721 5.33 18.6921 5.33C18.7321 5.33 18.7721 5.34 18.8121 5.36C18.8521 5.36 18.8921 5.37 18.9321 5.39C18.9721 5.39 19.0021 5.38 19.0221 5.36C19.1221 5.34 19.2221 5.35 19.3221 5.39C19.4421 5.41 19.5421 5.44 19.6221 5.48C19.7421 5.5 19.8321 5.58 19.8921 5.72C19.9521 5.9 20.0021 6.08 20.0421 6.26C20.1021 6.42 20.1421 6.59 20.1621 6.77V7.01C20.2021 7.15 20.2221 7.3 20.2221 7.46C20.2221 7.6 20.2221 7.75 20.2221 7.91C20.2221 8.05 20.2221 8.19 20.2221 8.33C20.2421 8.45 20.2621 8.57 20.2821 8.69C20.2821 8.75 20.2821 8.81 20.2821 8.87C20.2821 8.93 20.2921 8.99 20.3121 9.05C20.3121 9.17 20.3121 9.29 20.3121 9.41C20.3321 9.53 20.3521 9.66 20.3721 9.8C20.3921 10.02 20.4121 10.25 20.4321 10.49C20.4521 10.73 20.4621 10.97 20.4621 11.21C20.4621 11.31 20.4621 11.42 20.4621 11.54C20.4621 11.64 20.4721 11.74 20.4921 11.84C20.5121 11.9 20.5221 11.96 20.5221 12.02C20.5221 12.08 20.5221 12.14 20.5221 12.2V12.8C20.5221 12.92 20.5321 13.02 20.5521 13.1C20.5921 13.24 20.6021 13.38 20.5821 13.52C20.5821 13.64 20.5921 13.77 20.6121 13.91L20.7021 15.29C20.7221 15.49 20.7321 15.7 20.7321 15.92C20.7521 16.12 20.7621 16.33 20.7621 16.55C20.7621 16.63 20.7621 16.72 20.7621 16.82C20.7621 16.9 20.7721 16.98 20.7921 17.06C20.8121 17.12 20.8221 17.18 20.8221 17.24C20.8221 17.3 20.8221 17.36 20.8221 17.42C20.8421 17.44 20.8421 17.48 20.8221 17.54C20.8221 17.58 20.8321 17.62 20.8521 17.66C20.8921 17.8 20.9121 17.94 20.9121 18.08C20.9121 18.22 20.9121 18.37 20.9121 18.53C20.9121 18.61 20.9121 18.7 20.9121 18.8C20.9321 18.88 20.9421 18.97 20.9421 19.07C20.9621 19.17 20.9721 19.28 20.9721 19.4C20.9721 19.52 20.9721 19.63 20.9721 19.73C20.9921 19.83 21.0021 19.94 21.0021 20.06C21.0021 20.16 21.0121 20.26 21.0321 20.36C21.0521 20.4 21.0621 20.44 21.0621 20.48C21.0621 20.7 21.0821 20.92 21.1221 21.14C21.1621 21.36 21.2021 21.58 21.2421 21.8C21.2621 21.86 21.2721 21.93 21.2721 22.01C21.2721 22.07 21.2721 22.13 21.2721 22.19C21.2721 22.25 21.2521 22.3 21.2121 22.34C21.1321 22.4 21.0721 22.52 21.0321 22.7C21.0321 22.76 21.0021 22.81 20.9421 22.85C20.8021 22.91 20.6821 22.99 20.5821 23.09C20.4221 23.23 20.2321 23.3 20.0121 23.3ZM27.2505 23.6C26.8705 23.64 26.5605 23.52 26.3205 23.24C26.2005 23.12 26.0905 22.99 25.9905 22.85C25.8905 22.71 25.8105 22.56 25.7505 22.4C25.6505 22.12 25.5605 21.84 25.4805 21.56C25.4005 21.26 25.3305 20.97 25.2705 20.69C25.2105 20.47 25.1805 20.26 25.1805 20.06C25.1605 19.84 25.1305 19.63 25.0905 19.43C25.0705 19.21 25.0605 18.99 25.0605 18.77C25.0605 18.65 25.0605 18.53 25.0605 18.41C25.0605 18.27 25.0505 18.14 25.0305 18.02C25.0105 17.94 25.0005 17.87 25.0005 17.81C25.0005 17.75 25.0005 17.68 25.0005 17.6C25.0005 17.32 25.0005 17.04 25.0005 16.76C25.0005 16.46 24.9905 16.17 24.9705 15.89C24.9705 15.73 24.9605 15.59 24.9405 15.47C24.9205 15.33 24.8805 15.19 24.8205 15.05C24.7405 14.83 24.7305 14.59 24.7905 14.33C24.7905 14.27 24.8005 14.23 24.8205 14.21C24.8605 14.07 24.8805 13.93 24.8805 13.79C24.9005 13.65 24.9005 13.51 24.8805 13.37C24.8605 13.27 24.8505 13.17 24.8505 13.07C24.8505 12.97 24.8505 12.88 24.8505 12.8C24.8305 12.58 24.8205 12.36 24.8205 12.14C24.8405 11.9 24.8605 11.67 24.8805 11.45C24.9005 11.39 24.9105 11.33 24.9105 11.27C24.9105 11.21 24.9105 11.15 24.9105 11.09C24.8905 10.87 24.8905 10.66 24.9105 10.46C24.9505 10.26 24.9805 10.06 25.0005 9.86C25.0405 9.62 25.0805 9.39 25.1205 9.17C25.1605 8.93 25.2105 8.69 25.2705 8.45C25.3105 8.35 25.3305 8.24 25.3305 8.12C25.3305 8 25.3305 7.88 25.3305 7.76C25.3305 7.66 25.3205 7.56 25.3005 7.46C25.3005 7.36 25.3005 7.27 25.3005 7.19C25.3005 7.13 25.3005 7.07 25.3005 7.01C25.3005 6.95 25.3105 6.89 25.3305 6.83C25.3505 6.77 25.3605 6.71 25.3605 6.65C25.3605 6.59 25.3705 6.55 25.3905 6.53C25.4505 6.45 25.5005 6.38 25.5405 6.32C25.5805 6.24 25.6405 6.17 25.7205 6.11C25.8205 6.05 25.9105 5.99 25.9905 5.93C26.0905 5.87 26.1805 5.82 26.2605 5.78C26.3605 5.74 26.4405 5.69 26.5005 5.63C26.5805 5.53 26.6605 5.44 26.7405 5.36C26.8405 5.26 26.9205 5.15 26.9805 5.03C27.0805 4.93 27.1805 4.82 27.2805 4.7C27.4005 4.56 27.5305 4.45 27.6705 4.37C27.7105 4.35 27.7705 4.3 27.8505 4.22C28.0905 4 28.3705 3.86 28.6905 3.8C28.7505 3.78 28.8005 3.77 28.8405 3.77C28.9005 3.75 28.9605 3.74 29.0205 3.74L29.2305 3.65C29.3905 3.59 29.5305 3.62 29.6505 3.74C29.6905 3.8 29.7405 3.86 29.8005 3.92C29.8805 3.96 29.9505 4 30.0105 4.04C30.1705 4.18 30.3205 4.33 30.4605 4.49C30.6205 4.65 30.7605 4.83 30.8805 5.03C31.0805 5.35 31.2505 5.67 31.3905 5.99C31.5505 6.31 31.7005 6.64 31.8405 6.98L32.3805 8.27C32.4005 8.39 32.4505 8.5 32.5305 8.6C32.6905 8.9 32.8105 9.21 32.8905 9.53C32.9705 9.83 33.0505 10.14 33.1305 10.46C33.1505 10.5 33.1605 10.54 33.1605 10.58C33.1805 10.62 33.1905 10.66 33.1905 10.7C33.2305 10.86 33.2605 11.03 33.2805 11.21C33.3205 11.37 33.3305 11.53 33.3105 11.69C33.3305 11.87 33.3205 12.05 33.2805 12.23C33.2605 12.39 33.2305 12.55 33.1905 12.71C33.1305 12.91 33.0605 13.1 32.9805 13.28C32.9005 13.44 32.8105 13.61 32.7105 13.79C32.6705 13.91 32.6005 14.02 32.5005 14.12C32.4005 14.22 32.3005 14.31 32.2005 14.39C32.0405 14.47 31.8805 14.59 31.7205 14.75C31.6805 14.79 31.6305 14.82 31.5705 14.84C31.5305 14.86 31.4905 14.89 31.4505 14.93C31.3105 14.99 31.1605 15.06 31.0005 15.14C30.8405 15.2 30.6805 15.26 30.5205 15.32C30.5005 15.32 30.4905 15.34 30.4905 15.38C30.4905 15.4 30.5005 15.42 30.5205 15.44L31.3305 16.01C31.4305 16.07 31.5205 16.13 31.6005 16.19C31.6805 16.23 31.7605 16.28 31.8405 16.34L32.0205 16.43C32.2605 16.57 32.5005 16.72 32.7405 16.88C32.9805 17.04 33.2105 17.2 33.4305 17.36C33.8505 17.62 34.2705 17.89 34.6905 18.17C35.1105 18.43 35.5105 18.72 35.8905 19.04C36.2305 19.3 36.5305 19.6 36.7905 19.94C36.8505 20 36.9105 20.07 36.9705 20.15C37.0305 20.21 37.1005 20.26 37.1805 20.3L37.2705 20.39C37.5905 20.67 37.7705 21.05 37.8105 21.53C37.8105 21.59 37.8005 21.65 37.7805 21.71C37.7805 21.77 37.7805 21.83 37.7805 21.89C37.7805 22.01 37.7405 22.11 37.6605 22.19C37.5805 22.23 37.5405 22.28 37.5405 22.34C37.4805 22.48 37.3905 22.58 37.2705 22.64C37.1705 22.68 37.0705 22.74 36.9705 22.82C36.9305 22.84 36.8605 22.85 36.7605 22.85C36.6405 22.83 36.5105 22.81 36.3705 22.79C36.2505 22.77 36.1305 22.76 36.0105 22.76C35.8505 22.76 35.6805 22.69 35.5005 22.55C35.3805 22.45 35.2705 22.36 35.1705 22.28C35.0705 22.18 34.9705 22.06 34.8705 21.92C34.6105 21.56 34.2705 21.23 33.8505 20.93C33.6505 20.77 33.4605 20.62 33.2805 20.48C33.1005 20.34 32.9005 20.21 32.6805 20.09C32.5405 20.01 32.4005 19.93 32.2605 19.85C32.1405 19.75 32.0005 19.66 31.8405 19.58C31.3405 19.24 30.8305 18.91 30.3105 18.59C29.7905 18.25 29.2705 17.91 28.7505 17.57C28.6705 17.51 28.5805 17.45 28.4805 17.39C28.3805 17.33 28.2805 17.27 28.1805 17.21C28.1405 17.17 28.0805 17.13 28.0005 17.09C27.9205 17.09 27.8805 17.12 27.8805 17.18C27.8805 17.2 27.8705 17.22 27.8505 17.24C27.8505 17.24 27.8505 17.25 27.8505 17.27C27.8505 17.33 27.8505 17.39 27.8505 17.45C27.8505 17.51 27.8605 17.57 27.8805 17.63C27.9005 17.79 27.9105 17.95 27.9105 18.11C27.9105 18.25 27.9105 18.4 27.9105 18.56C27.9105 18.68 27.9105 18.8 27.9105 18.92C27.9305 19.02 27.9505 19.13 27.9705 19.25C27.9705 19.31 27.9705 19.38 27.9705 19.46C27.9905 19.52 28.0005 19.58 28.0005 19.64C27.9805 19.82 27.9905 20 28.0305 20.18C28.0705 20.36 28.1005 20.54 28.1205 20.72L28.3005 21.5C28.3205 21.58 28.3405 21.67 28.3605 21.77C28.3805 21.85 28.4005 21.94 28.4205 22.04C28.4405 22.12 28.4405 22.2 28.4205 22.28C28.4205 22.34 28.4105 22.41 28.3905 22.49C28.3905 22.51 28.3705 22.54 28.3305 22.58C28.2305 22.6 28.1605 22.67 28.1205 22.79C28.0605 22.93 27.9705 23.05 27.8505 23.15C27.7505 23.27 27.6405 23.38 27.5205 23.48C27.5005 23.5 27.4605 23.52 27.4005 23.54C27.3405 23.56 27.2905 23.58 27.2505 23.6ZM28.4205 13.1H28.4805C28.7005 13.06 28.9205 13.02 29.1405 12.98C29.3805 12.92 29.6105 12.85 29.8305 12.77C30.0505 12.71 30.2405 12.6 30.4005 12.44C30.5405 12.3 30.6105 12.14 30.6105 11.96C30.6305 11.82 30.6305 11.69 30.6105 11.57C30.6105 11.43 30.5905 11.29 30.5505 11.15C30.4705 10.79 30.3805 10.44 30.2805 10.1C30.1805 9.74 30.0605 9.4 29.9205 9.08L29.6505 8.36C29.5905 8.16 29.5205 7.97 29.4405 7.79C29.3605 7.59 29.2705 7.4 29.1705 7.22C29.1505 7.18 29.1305 7.14 29.1105 7.1C29.0905 7.04 29.0705 6.99 29.0505 6.95L28.9305 6.83C28.8705 6.75 28.8005 6.75 28.7205 6.83C28.7005 6.83 28.6705 6.85 28.6305 6.89C28.4905 7.07 28.3605 7.26 28.2405 7.46C28.1405 7.66 28.0805 7.88 28.0605 8.12C28.0405 8.2 28.0205 8.28 28.0005 8.36C28.0005 8.44 28.0005 8.53 28.0005 8.63V9.92C27.9805 10.2 27.9705 10.49 27.9705 10.79C27.9905 11.09 27.9805 11.38 27.9405 11.66C27.9205 11.72 27.9105 11.78 27.9105 11.84C27.9305 11.9 27.9405 11.96 27.9405 12.02C27.9605 12.14 27.9705 12.26 27.9705 12.38C27.9705 12.48 27.9705 12.59 27.9705 12.71C27.9705 12.91 27.9905 13.03 28.0305 13.07C28.0905 13.11 28.2205 13.12 28.4205 13.1ZM43.7972 23.21C43.6772 23.21 43.5972 23.2 43.5572 23.18C43.4572 23.14 43.3572 23.12 43.2572 23.12C43.1772 23.14 43.0872 23.15 42.9872 23.15C42.9672 23.15 42.9472 23.15 42.9272 23.15C42.9072 23.17 42.8872 23.18 42.8672 23.18C42.7272 23.2 42.5872 23.21 42.4472 23.21C42.3272 23.21 42.2072 23.19 42.0872 23.15C42.0672 23.13 42.0472 23.12 42.0272 23.12C41.8872 23.14 41.7672 23.1 41.6672 23C41.5672 22.9 41.4672 22.81 41.3672 22.73C41.2672 22.63 41.2172 22.52 41.2172 22.4L41.1272 22.16C41.0672 22.02 41.0472 21.89 41.0672 21.77C41.0872 21.73 41.0872 21.69 41.0672 21.65C41.0672 21.61 41.0672 21.57 41.0672 21.53C41.0472 21.49 41.0372 21.45 41.0372 21.41C41.0372 21.35 41.0272 21.3 41.0072 21.26C40.9672 21.08 40.9372 20.9 40.9172 20.72C40.9172 20.52 40.9272 20.33 40.9472 20.15C40.9672 20.03 41.0372 19.83 41.1572 19.55C41.2772 19.25 41.3472 19.07 41.3672 19.01C41.4272 18.91 41.4572 18.83 41.4572 18.77C41.4372 18.55 41.4272 18.33 41.4272 18.11C41.4472 17.87 41.4572 17.64 41.4572 17.42C41.4572 17.28 41.4872 17.17 41.5472 17.09C41.6272 16.95 41.6372 16.8 41.5772 16.64L41.4872 16.31C41.3672 16.09 41.3772 15.9 41.5172 15.74C41.5172 15.72 41.5172 15.71 41.5172 15.71C41.5372 15.69 41.5472 15.67 41.5472 15.65C41.5872 15.61 41.5972 15.56 41.5772 15.5C41.5572 15.42 41.5472 15.36 41.5472 15.32C41.5472 15.24 41.5572 15.16 41.5772 15.08C41.6172 14.98 41.6272 14.89 41.6072 14.81C41.6072 14.81 41.5872 14.79 41.5472 14.75C41.5272 14.71 41.5172 14.63 41.5172 14.51C41.5372 14.39 41.5472 14.32 41.5472 14.3V13.46C41.5672 13.36 41.5772 13.27 41.5772 13.19C41.5772 13.09 41.5872 12.99 41.6072 12.89C41.6272 12.77 41.6272 12.65 41.6072 12.53C41.6072 12.39 41.6072 12.25 41.6072 12.11C41.5872 12.01 41.5672 11.9 41.5472 11.78C41.5472 11.66 41.5472 11.54 41.5472 11.42C41.5272 11.38 41.5172 11.33 41.5172 11.27C41.5172 11.21 41.5172 11.16 41.5172 11.12C41.4972 11.02 41.4772 10.92 41.4572 10.82C41.4572 10.72 41.4572 10.62 41.4572 10.52C41.4572 10.48 41.4172 10.35 41.3372 10.13C41.2572 9.89 41.2272 9.69 41.2472 9.53C41.2672 9.49 41.2772 9.44 41.2772 9.38C41.2772 9.32 41.2572 9.27 41.2172 9.23C41.1772 9.21 41.1572 9.17 41.1572 9.11V9.02C41.2172 8.78 41.1872 8.54 41.0672 8.3C40.9872 8.18 40.9572 8.06 40.9772 7.94C40.9772 7.78 40.9072 7.66 40.7672 7.58C40.6672 7.48 40.5772 7.36 40.4972 7.22C40.4172 7.08 40.3672 6.94 40.3472 6.8C40.3272 6.7 40.3172 6.6 40.3172 6.5C40.3172 6.4 40.3172 6.31 40.3172 6.23C40.3172 6.15 40.3272 6.1 40.3472 6.08C40.4272 6 40.4672 5.91 40.4672 5.81C40.4672 5.69 40.4772 5.6 40.4972 5.54C40.5172 5.52 40.5372 5.51 40.5572 5.51C40.5772 5.51 40.5972 5.5 40.6172 5.48C40.6972 5.46 40.7372 5.39 40.7372 5.27C40.6972 5.19 40.6772 5.12 40.6772 5.06C40.6572 4.98 40.6872 4.91 40.7672 4.85C40.8072 4.77 40.8572 4.75 40.9172 4.79C41.0572 4.85 41.2172 4.83 41.3972 4.73C41.4772 4.69 41.5272 4.67 41.5472 4.67C41.6072 4.67 41.6372 4.67 41.6372 4.67C41.6572 4.65 41.7172 4.64 41.8172 4.64C41.9372 4.66 42.0472 4.62 42.1472 4.52C42.2872 4.38 42.4572 4.31 42.6572 4.31H44.5172C44.9772 4.33 45.4372 4.33 45.8972 4.31C46.3572 4.29 46.8072 4.28 47.2472 4.28C47.3472 4.28 47.4272 4.28 47.4872 4.28C47.5672 4.26 47.6472 4.24 47.7272 4.22C47.8472 4.16 47.9872 4.13 48.1472 4.13H48.8372C48.9972 4.13 49.1372 4.13 49.2572 4.13C49.3972 4.11 49.5372 4.09 49.6772 4.07C49.7572 4.05 49.8272 4.04 49.8872 4.04C49.9672 4.04 50.0472 4.04 50.1272 4.04C50.2072 4.04 50.2872 4.04 50.3672 4.04C50.4472 4.04 50.5272 4.03 50.6072 4.01C50.7672 3.99 50.9372 3.98 51.1172 3.98C51.2972 3.96 51.4672 3.95 51.6272 3.95C51.7072 3.95 51.7772 3.95 51.8372 3.95C51.9172 3.93 51.9972 3.91 52.0772 3.89C52.2372 3.85 52.3872 3.83 52.5272 3.83C52.6872 3.81 52.8372 3.79 52.9772 3.77C53.1372 3.75 53.2872 3.73 53.4272 3.71C53.5872 3.69 53.7372 3.67 53.8772 3.65C54.0572 3.65 54.1872 3.67 54.2672 3.71C54.3872 3.79 54.4972 3.86 54.5972 3.92C54.7172 3.98 54.8272 4.06 54.9272 4.16C55.0072 4.24 55.0572 4.31 55.0772 4.37C55.0972 4.45 55.1172 4.53 55.1372 4.61C55.1572 4.69 55.1772 4.78 55.1972 4.88V5.09C55.1772 5.19 55.1572 5.3 55.1372 5.42C55.1372 5.52 55.1272 5.63 55.1072 5.75C55.0672 5.83 55.0172 5.9 54.9572 5.96L54.4172 6.5C54.2172 6.56 54.0172 6.6 53.8172 6.62C53.6372 6.64 53.4472 6.64 53.2472 6.62H53.0372C52.9372 6.64 52.8372 6.65 52.7372 6.65C52.6372 6.65 52.5372 6.64 52.4372 6.62C52.3172 6.6 52.1972 6.6 52.0772 6.62C51.9572 6.62 51.8372 6.62 51.7172 6.62C51.6372 6.62 51.5572 6.63 51.4772 6.65C51.4172 6.65 51.3472 6.64 51.2672 6.62C51.1672 6.6 51.0672 6.6 50.9672 6.62C50.8872 6.62 50.7972 6.63 50.6972 6.65C50.6172 6.65 50.5272 6.66 50.4272 6.68C50.3472 6.68 50.2572 6.68 50.1572 6.68C49.8972 6.72 49.6172 6.74 49.3172 6.74C49.0372 6.74 48.7572 6.76 48.4772 6.8C48.2972 6.78 48.1272 6.79 47.9672 6.83C47.8072 6.85 47.6372 6.87 47.4572 6.89C47.2972 6.91 47.1272 6.92 46.9472 6.92C46.7672 6.92 46.5972 6.94 46.4372 6.98C46.2372 6.98 46.0372 7.01 45.8372 7.07C45.6572 7.11 45.4672 7.14 45.2672 7.16L45.0572 7.19C44.9172 7.19 44.7872 7.21 44.6672 7.25C44.5472 7.27 44.4172 7.3 44.2772 7.34C44.1972 7.36 44.1172 7.38 44.0372 7.4C43.9572 7.4 43.8672 7.41 43.7672 7.43C43.7072 7.43 43.6372 7.45 43.5572 7.49C43.4972 7.51 43.4672 7.57 43.4672 7.67L43.5572 7.94C43.5772 7.98 43.5672 8.08 43.5272 8.24C43.5072 8.4 43.4872 8.52 43.4672 8.6C43.4672 8.66 43.4772 8.72 43.4972 8.78C43.5172 8.84 43.5372 8.9 43.5572 8.96C43.6172 9.12 43.6472 9.3 43.6472 9.5C43.6472 9.68 43.6672 9.85 43.7072 10.01C43.7272 10.09 43.7372 10.18 43.7372 10.28C43.7372 10.36 43.7472 10.45 43.7672 10.55C43.7672 10.59 43.7672 10.64 43.7672 10.7C43.7872 10.74 43.7972 10.79 43.7972 10.85C43.7972 10.91 43.7872 10.95 43.7672 10.97C43.7072 11.05 43.6772 11.14 43.6772 11.24C43.6772 11.34 43.6772 11.44 43.6772 11.54C43.7772 11.74 43.8272 11.94 43.8272 12.14C43.8272 12.34 43.8272 12.54 43.8272 12.74C43.8272 12.8 43.8772 12.82 43.9772 12.8H44.0072C44.0472 12.72 44.0872 12.66 44.1272 12.62C44.1872 12.62 44.2572 12.6 44.3372 12.56C44.3972 12.52 44.4772 12.5 44.5772 12.5C44.7372 12.52 44.8872 12.52 45.0272 12.5C45.1672 12.46 45.3072 12.42 45.4472 12.38C46.3872 12.14 47.2672 11.83 48.0872 11.45C48.3072 11.35 48.5372 11.27 48.7772 11.21C49.0172 11.13 49.2572 11.08 49.4972 11.06H49.5872C49.7672 11.04 49.9472 11.02 50.1272 11C50.3072 10.98 50.4872 10.97 50.6672 10.97C50.9072 10.95 51.1372 10.92 51.3572 10.88C51.5972 10.84 51.8372 10.81 52.0772 10.79C52.2172 10.75 52.3472 10.72 52.4672 10.7C52.5872 10.66 52.7172 10.61 52.8572 10.55C53.1172 10.45 53.3572 10.4 53.5772 10.4C53.7372 10.42 53.8872 10.46 54.0272 10.52C54.1672 10.56 54.3072 10.62 54.4472 10.7C54.7472 10.9 54.8972 11.2 54.8972 11.6C54.8972 11.76 54.8772 11.92 54.8372 12.08C54.8172 12.24 54.8072 12.4 54.8072 12.56C54.8072 12.6 54.7872 12.64 54.7472 12.68L54.6572 12.83C54.6372 12.91 54.6172 12.99 54.5972 13.07C54.5772 13.15 54.5272 13.21 54.4472 13.25C54.3272 13.35 54.1972 13.46 54.0572 13.58C53.9372 13.68 53.7972 13.75 53.6372 13.79C53.5572 13.81 53.4772 13.83 53.3972 13.85C53.3372 13.87 53.2672 13.88 53.1872 13.88C52.8672 13.88 52.5372 13.9 52.1972 13.94C51.8772 13.98 51.5472 14.02 51.2072 14.06C50.9472 14.08 50.6872 14.11 50.4272 14.15C50.1872 14.19 49.9372 14.21 49.6772 14.21C49.4372 14.21 49.1672 14.26 48.8672 14.36C48.6672 14.4 48.4572 14.44 48.2372 14.48C48.0172 14.52 47.7972 14.55 47.5772 14.57C47.4172 14.59 47.2472 14.62 47.0672 14.66C46.9072 14.68 46.7472 14.7 46.5872 14.72L46.0772 14.81C46.0372 14.83 45.9772 14.84 45.8972 14.84C45.7572 14.88 45.6172 14.91 45.4772 14.93C45.3372 14.95 45.1972 14.98 45.0572 15.02C44.9172 15.04 44.7772 15.07 44.6372 15.11C44.5172 15.15 44.3872 15.19 44.2472 15.23C44.1472 15.25 44.0672 15.29 44.0072 15.35C43.9472 15.39 43.8972 15.45 43.8572 15.53C43.8372 15.59 43.8372 15.65 43.8572 15.71C43.8772 15.79 43.8672 15.87 43.8272 15.95C43.8472 16.15 43.8572 16.35 43.8572 16.55C43.8772 16.75 43.8772 16.95 43.8572 17.15C43.8972 17.31 43.9072 17.47 43.8872 17.63C43.8872 17.79 43.8772 17.95 43.8572 18.11C43.8172 18.35 43.8272 18.55 43.8872 18.71C43.9472 18.97 43.9272 19.24 43.8272 19.52C43.7872 19.64 43.7872 19.72 43.8272 19.76C43.8672 19.82 43.8672 19.89 43.8272 19.97V20.15C43.8072 20.31 43.8772 20.39 44.0372 20.39H44.0972C44.2372 20.39 44.3772 20.44 44.5172 20.54C44.6172 20.64 44.7372 20.67 44.8772 20.63L45.7172 20.54C45.8372 20.52 45.9572 20.51 46.0772 20.51C46.1972 20.49 46.3172 20.48 46.4372 20.48C46.4772 20.46 46.5372 20.47 46.6172 20.51C46.7172 20.57 46.8072 20.58 46.8872 20.54C46.9272 20.5 46.9772 20.47 47.0372 20.45C47.1172 20.43 47.1772 20.4 47.2172 20.36C47.3372 20.24 47.4872 20.2 47.6672 20.24C47.8272 20.28 47.9572 20.27 48.0572 20.21C48.2372 20.15 48.4072 20.13 48.5672 20.15C48.6672 20.17 48.7672 20.16 48.8672 20.12C48.9672 20.08 49.0672 20.06 49.1672 20.06C49.2072 20.06 49.2372 20.07 49.2572 20.09C49.2772 20.09 49.2972 20.08 49.3172 20.06C49.3572 20.06 49.3972 20.05 49.4372 20.03C49.4772 20.01 49.5072 20 49.5272 20C49.6672 19.94 49.7972 19.92 49.9172 19.94C50.0172 19.94 50.0672 19.94 50.0672 19.94C50.1472 19.92 50.2172 19.92 50.2772 19.94C50.3572 19.96 50.4272 19.99 50.4872 20.03C50.5872 20.05 50.6672 20.08 50.7272 20.12C50.8072 20.16 50.8872 20.19 50.9672 20.21C51.0072 20.21 51.0372 20.22 51.0572 20.24C51.1572 20.32 51.2772 20.39 51.4172 20.45C51.5772 20.51 51.6672 20.58 51.6872 20.66C51.7272 20.78 51.7472 20.9 51.7472 21.02C51.7472 21.12 51.7572 21.23 51.7772 21.35C51.7772 21.41 51.7672 21.47 51.7472 21.53C51.7472 21.59 51.7372 21.65 51.7172 21.71C51.6772 21.79 51.6272 21.88 51.5672 21.98C51.5272 22.08 51.4672 22.17 51.3872 22.25C51.3472 22.29 51.3072 22.33 51.2672 22.37C51.2472 22.41 51.2172 22.45 51.1772 22.49C51.0972 22.57 51.0072 22.64 50.9072 22.7C50.8072 22.76 50.6972 22.79 50.5772 22.79C50.4972 22.79 50.4372 22.8 50.3972 22.82C50.3172 22.86 50.2372 22.88 50.1572 22.88C50.0772 22.88 49.9872 22.88 49.8872 22.88C49.7472 22.9 49.6072 22.92 49.4672 22.94C49.3472 22.94 49.2172 22.93 49.0772 22.91C48.9972 22.89 48.9272 22.89 48.8672 22.91C48.6672 22.97 48.4672 22.98 48.2672 22.94C48.0672 22.94 47.8672 22.95 47.6672 22.97C47.4872 22.97 47.3072 22.97 47.1272 22.97H46.7372C46.6772 22.97 46.6272 22.98 46.5872 23C46.5072 23.04 46.4072 23.06 46.2872 23.06C46.1872 23.06 46.0872 23.05 45.9872 23.03H45.6872C45.6672 23.03 45.6372 23.03 45.5972 23.03C45.5572 23.05 45.5172 23.05 45.4772 23.03C45.4172 23.01 45.3572 23 45.2972 23C45.2572 23.02 45.2072 23.04 45.1472 23.06C45.1072 23.06 45.0672 23.06 45.0272 23.06C45.0072 23.08 44.9772 23.09 44.9372 23.09C44.7372 23.07 44.5472 23.07 44.3672 23.09C44.1872 23.13 43.9972 23.17 43.7972 23.21ZM74.3541 26.9C74.1941 26.86 74.0841 26.77 74.0241 26.63C73.9841 26.47 73.9441 26.32 73.9041 26.18C73.8641 26.04 73.8441 25.9 73.8441 25.76V25.58C73.8641 25.38 73.8541 25.18 73.8141 24.98C73.7741 24.8 73.7441 24.61 73.7241 24.41C73.7241 24.33 73.7141 24.27 73.6941 24.23L73.3641 23.6C73.3241 23.56 73.2641 23.48 73.1841 23.36C73.1241 23.22 73.0541 23.1 72.9741 23C72.9141 22.88 72.8441 22.76 72.7641 22.64C72.7241 22.56 72.6741 22.49 72.6141 22.43C72.5541 22.37 72.4941 22.3 72.4341 22.22C72.3941 22.16 72.3541 22.09 72.3141 22.01C72.2741 21.93 72.2141 21.86 72.1341 21.8L72.0441 21.65C71.9641 21.51 71.8841 21.38 71.8041 21.26C71.7441 21.14 71.6841 21.02 71.6241 20.9L71.5341 20.72C71.4541 20.46 71.3641 20.21 71.2641 19.97C71.1841 19.73 71.0941 19.48 70.9941 19.22C70.9341 19.06 70.8741 18.91 70.8141 18.77C70.7741 18.63 70.7141 18.49 70.6341 18.35C70.4941 18.05 70.4041 17.73 70.3641 17.39C70.3441 17.15 70.3641 16.9 70.4241 16.64C70.4841 16.48 70.5741 16.34 70.6941 16.22C71.0741 15.9 71.4941 15.78 71.9541 15.86L72.2841 15.92C72.5241 16.02 72.6941 16.16 72.7941 16.34C72.8741 16.48 72.9441 16.63 73.0041 16.79C73.0641 16.93 73.1041 17.09 73.1241 17.27C73.1641 17.39 73.2041 17.52 73.2441 17.66C73.2841 17.78 73.3341 17.91 73.3941 18.05C73.4941 18.27 73.6041 18.49 73.7241 18.71C73.8241 18.89 73.9441 19.04 74.0841 19.16C74.1841 19.24 74.2941 19.33 74.4141 19.43C74.5341 19.53 74.6441 19.63 74.7441 19.73L75.3741 20.36C75.4141 20.38 75.4441 20.41 75.4641 20.45C75.5041 20.49 75.5341 20.53 75.5541 20.57C75.6141 20.61 75.6841 20.62 75.7641 20.6C75.9641 20.54 76.1641 20.43 76.3641 20.27C76.6841 20.01 76.9441 19.74 77.1441 19.46C77.3441 19.18 77.4741 18.85 77.5341 18.47C77.5741 18.13 77.4741 17.83 77.2341 17.57C77.1941 17.49 77.1341 17.44 77.0541 17.42C76.9141 17.34 76.7741 17.27 76.6341 17.21C76.5141 17.13 76.3741 17.07 76.2141 17.03C76.0541 16.97 75.9141 16.88 75.7941 16.76C75.7141 16.66 75.5941 16.6 75.4341 16.58C75.2941 16.54 75.1641 16.49 75.0441 16.43C74.9241 16.37 74.8141 16.3 74.7141 16.22C74.5941 16.12 74.4741 16.04 74.3541 15.98C74.2341 15.9 74.1141 15.82 73.9941 15.74C73.8741 15.68 73.7541 15.61 73.6341 15.53C73.5341 15.45 73.4341 15.37 73.3341 15.29C73.1941 15.19 73.0641 15.09 72.9441 14.99C72.8241 14.87 72.7041 14.76 72.5841 14.66C72.5041 14.62 72.4541 14.58 72.4341 14.54C72.3341 14.42 72.2241 14.31 72.1041 14.21C72.0041 14.09 71.9041 13.96 71.8041 13.82C71.7441 13.74 71.6841 13.67 71.6241 13.61C71.5641 13.53 71.4941 13.45 71.4141 13.37C71.3341 13.29 71.2541 13.21 71.1741 13.13C71.1141 13.03 71.0641 12.93 71.0241 12.83L70.7541 12.38C70.6541 12.18 70.5641 11.98 70.4841 11.78C70.4041 11.58 70.3141 11.38 70.2141 11.18C70.1341 10.96 70.0541 10.74 69.9741 10.52C69.9141 10.3 69.8641 10.08 69.8241 9.86C69.8041 9.7 69.7741 9.55 69.7341 9.41C69.7141 9.27 69.6941 9.13 69.6741 8.99C69.6541 8.77 69.6441 8.56 69.6441 8.36C69.6441 8.14 69.6341 7.92 69.6141 7.7C69.6141 7.44 69.6341 7.18 69.6741 6.92C69.7141 6.66 69.7641 6.4 69.8241 6.14C69.8641 5.98 69.9041 5.82 69.9441 5.66C69.9841 5.5 70.0241 5.35 70.0641 5.21C70.1041 5.11 70.1441 5.02 70.1841 4.94C70.2241 4.84 70.2541 4.75 70.2741 4.67C70.4341 4.25 70.6641 3.83 70.9641 3.41C71.0641 3.27 71.1641 3.14 71.2641 3.02C71.3841 2.88 71.5041 2.75 71.6241 2.63C71.7241 2.53 71.8241 2.42 71.9241 2.3C72.0241 2.18 72.1141 2.06 72.1941 1.94C72.4541 1.6 72.7541 1.35 73.0941 1.19C73.4341 1.01 73.8241 0.939999 74.2641 0.979999C74.8041 1.06 75.3141 1.27 75.7941 1.61C75.9541 1.73 76.1141 1.86 76.2741 2C76.4541 2.12 76.6241 2.25 76.7841 2.39C77.1841 2.71 77.5141 3.07 77.7741 3.47C77.8941 3.65 78.0141 3.83 78.1341 4.01C78.2541 4.19 78.3641 4.37 78.4641 4.55C78.5241 4.63 78.5741 4.71 78.6141 4.79C78.6541 4.87 78.6841 4.96 78.7041 5.06C78.7441 5.24 78.7541 5.42 78.7341 5.6C78.7341 5.76 78.7141 5.93 78.6741 6.11L78.5841 6.35C78.5241 6.45 78.4641 6.56 78.4041 6.68C78.3441 6.8 78.2841 6.91 78.2241 7.01C78.1841 7.09 78.1341 7.17 78.0741 7.25C78.0341 7.31 77.9941 7.37 77.9541 7.43C77.7941 7.69 77.7141 7.95 77.7141 8.21V11.12C77.7141 11.52 77.6541 11.9 77.5341 12.26C77.5341 12.28 77.5241 12.3 77.5041 12.32C77.5041 12.32 77.5041 12.34 77.5041 12.38C77.5041 12.48 77.5341 12.56 77.5941 12.62L77.8641 12.8C78.0841 12.94 78.2841 13.1 78.4641 13.28C78.6641 13.44 78.8641 13.6 79.0641 13.76C79.1841 13.86 79.2941 13.98 79.3941 14.12C79.4941 14.24 79.5841 14.36 79.6641 14.48C79.7441 14.58 79.8141 14.69 79.8741 14.81C79.9341 14.91 79.9941 15.01 80.0541 15.11C80.1541 15.25 80.2241 15.41 80.2641 15.59C80.3241 15.77 80.3741 15.95 80.4141 16.13V16.25C80.3941 16.39 80.3941 16.54 80.4141 16.7C80.4341 16.86 80.4541 17.02 80.4741 17.18C80.4741 17.22 80.4741 17.27 80.4741 17.33C80.4941 17.37 80.4941 17.42 80.4741 17.48L80.3841 18.11C80.3441 18.21 80.3641 18.27 80.4441 18.29C80.5041 18.29 80.5341 18.31 80.5341 18.35C80.5941 18.37 80.6041 18.42 80.5641 18.5C80.5241 18.58 80.4741 18.6 80.4141 18.56C80.4141 18.54 80.4041 18.53 80.3841 18.53C80.3241 18.51 80.2841 18.52 80.2641 18.56C80.2441 18.62 80.2241 18.68 80.2041 18.74C80.2041 18.8 80.2041 18.87 80.2041 18.95C80.1241 19.07 80.1041 19.17 80.1441 19.25C80.1441 19.31 80.1341 19.35 80.1141 19.37C80.0541 19.43 80.0341 19.51 80.0541 19.61C80.0541 19.65 80.0241 19.69 79.9641 19.73C79.8441 19.79 79.7541 19.9 79.6941 20.06C79.5941 20.32 79.4741 20.57 79.3341 20.81C79.2141 21.03 79.0741 21.25 78.9141 21.47C78.7541 21.69 78.5841 21.91 78.4041 22.13C78.2441 22.33 78.0541 22.52 77.8341 22.7C77.6541 22.84 77.4641 22.97 77.2641 23.09C77.0641 23.23 76.8541 23.35 76.6341 23.45C76.5541 23.47 76.4741 23.51 76.3941 23.57L76.0341 23.75C75.8741 23.77 75.7141 23.85 75.5541 23.99L75.3741 24.11C75.3141 24.17 75.2641 24.27 75.2241 24.41V25.22C75.2241 25.3 75.2241 25.38 75.2241 25.46C75.2241 25.54 75.2141 25.62 75.1941 25.7C75.1741 25.74 75.1641 25.79 75.1641 25.85C75.1641 25.91 75.1541 25.96 75.1341 26C75.1141 26.08 75.0941 26.16 75.0741 26.24C75.0541 26.34 75.0241 26.44 74.9841 26.54C74.8841 26.82 74.6741 26.94 74.3541 26.9ZM76.1841 11.84C76.2641 11.84 76.3141 11.81 76.3341 11.75C76.3541 11.65 76.3541 11.55 76.3341 11.45C76.3341 11.35 76.3241 11.26 76.3041 11.18C76.2841 11.08 76.2741 10.98 76.2741 10.88C76.2741 10.76 76.2641 10.65 76.2441 10.55C76.2441 10.43 76.2341 10.31 76.2141 10.19C76.1941 10.07 76.1941 9.95 76.2141 9.83C76.2341 9.81 76.2341 9.8 76.2141 9.8C76.2141 9.78 76.2141 9.77 76.2141 9.77C76.1941 9.63 76.1841 9.5 76.1841 9.38C76.1841 9.26 76.1841 9.14 76.1841 9.02C76.1841 8.62 76.1041 8.23 75.9441 7.85C75.8041 7.53 75.6541 7.22 75.4941 6.92C75.3541 6.62 75.2041 6.32 75.0441 6.02C74.9841 5.9 74.9041 5.79 74.8041 5.69C74.7241 5.57 74.6341 5.46 74.5341 5.36C74.4541 5.24 74.3441 5.22 74.2041 5.3C74.0841 5.32 73.9541 5.4 73.8141 5.54C73.6941 5.68 73.5841 5.83 73.4841 5.99C73.3841 6.15 73.2941 6.32 73.2141 6.5C73.1941 6.56 73.1741 6.62 73.1541 6.68C73.1341 6.74 73.1141 6.79 73.0941 6.83C73.0741 6.97 73.0541 7.12 73.0341 7.28C73.0341 7.42 73.0341 7.57 73.0341 7.73V8.12C73.0341 8.4 73.1141 8.7 73.2741 9.02C73.4141 9.32 73.6141 9.62 73.8741 9.92C73.9341 10 73.9941 10.08 74.0541 10.16C74.1141 10.22 74.1741 10.3 74.2341 10.4C74.4141 10.64 74.6141 10.85 74.8341 11.03C75.0741 11.21 75.3241 11.38 75.5841 11.54L76.0341 11.78C76.0741 11.8 76.1041 11.81 76.1241 11.81C76.1441 11.81 76.1641 11.82 76.1841 11.84ZM88.7461 22.97C88.7061 22.95 88.6461 22.94 88.5661 22.94C88.5261 22.94 88.4861 22.91 88.4461 22.85C88.4061 22.79 88.3661 22.74 88.3261 22.7C88.2861 22.64 88.2461 22.57 88.2061 22.49C88.1461 22.41 88.0961 22.41 88.0561 22.49H87.9961C87.9961 22.47 87.9861 22.46 87.9661 22.46C87.9661 22.44 87.9661 22.43 87.9661 22.43C87.9061 22.15 87.8161 21.89 87.6961 21.65C87.6361 21.49 87.5761 21.33 87.5161 21.17C87.4761 20.99 87.4461 20.81 87.4261 20.63L87.2461 19.31L87.1561 18.23V18.17C87.1161 17.93 87.0961 17.69 87.0961 17.45C87.0961 17.19 87.0961 16.93 87.0961 16.67C87.0761 16.53 87.0661 16.4 87.0661 16.28C87.0661 16.14 87.0561 16 87.0361 15.86C87.0161 15.7 86.9961 15.54 86.9761 15.38C86.9761 15.22 86.9761 15.07 86.9761 14.93L87.0061 12.56V9.35C86.9661 9.23 86.9061 9.17 86.8261 9.17C86.7861 9.17 86.7361 9.18 86.6761 9.2C86.6361 9.2 86.5961 9.2 86.5561 9.2L85.2061 9.56C85.0261 9.62 84.8461 9.68 84.6661 9.74C84.4861 9.78 84.3061 9.83 84.1261 9.89C83.9861 9.91 83.8461 9.93 83.7061 9.95C83.5861 9.95 83.4561 9.95 83.3161 9.95C83.2161 9.95 83.1061 9.91 82.9861 9.83C82.8461 9.77 82.7261 9.69 82.6261 9.59C82.5261 9.49 82.4261 9.38 82.3261 9.26L82.2661 9.17C82.2261 9.03 82.1861 8.9 82.1461 8.78C82.1261 8.64 82.1261 8.5 82.1461 8.36C82.1661 8.18 82.2061 8.01 82.2661 7.85C82.3461 7.69 82.4561 7.55 82.5961 7.43C82.6561 7.39 82.7061 7.34 82.7461 7.28C82.8061 7.22 82.8661 7.16 82.9261 7.1C83.0061 7.06 83.0561 7.04 83.0761 7.04C83.1961 7.04 83.3061 7.02 83.4061 6.98C83.5061 6.92 83.6061 6.88 83.7061 6.86C83.8061 6.84 83.9061 6.82 84.0061 6.8C84.1061 6.78 84.2061 6.76 84.3061 6.74C84.5861 6.66 84.8661 6.59 85.1461 6.53C85.4261 6.45 85.7061 6.39 85.9861 6.35L87.6061 6.08C87.6461 6.06 87.6761 6.05 87.6961 6.05C87.7361 6.05 87.7661 6.04 87.7861 6.02C87.9061 5.98 88.0261 5.95 88.1461 5.93C88.2661 5.91 88.3861 5.92 88.5061 5.96C88.5461 5.98 88.5761 5.99 88.5961 5.99C88.6361 5.97 88.6661 5.96 88.6861 5.96C89.0261 5.92 89.3661 5.88 89.7061 5.84C90.0461 5.8 90.3761 5.75 90.6961 5.69C90.9561 5.65 91.2161 5.61 91.4761 5.57C91.7361 5.53 91.9961 5.5 92.2561 5.48C92.4561 5.44 92.6561 5.41 92.8561 5.39C93.0561 5.37 93.2561 5.35 93.4561 5.33C93.6161 5.31 93.7761 5.29 93.9361 5.27C94.1161 5.25 94.2861 5.23 94.4461 5.21C94.6061 5.19 94.7561 5.19 94.8961 5.21C95.0561 5.21 95.2161 5.21 95.3761 5.21C95.4761 5.21 95.5661 5.24 95.6461 5.3C95.7461 5.36 95.8361 5.41 95.9161 5.45C95.9961 5.51 96.1061 5.61 96.2461 5.75C96.2861 5.79 96.3261 5.88 96.3661 6.02C96.3861 6.08 96.4061 6.15 96.4261 6.23C96.4461 6.29 96.4661 6.36 96.4861 6.44C96.5261 6.62 96.5061 6.79 96.4261 6.95L96.2461 7.37C96.2261 7.43 96.1961 7.49 96.1561 7.55C96.1361 7.59 96.1061 7.63 96.0661 7.67C96.0261 7.71 96.0061 7.73 96.0061 7.73C95.9261 7.79 95.8361 7.85 95.7361 7.91C95.6561 7.97 95.5561 8.01 95.4361 8.03L94.1461 8.12C94.0261 8.12 93.9061 8.13 93.7861 8.15C93.6661 8.15 93.5361 8.16 93.3961 8.18H93.2461C92.9261 8.2 92.6161 8.23 92.3161 8.27C92.0161 8.31 91.7161 8.35 91.4161 8.39L90.2161 8.57C90.1561 8.57 90.1161 8.58 90.0961 8.6C90.0161 8.6 89.9561 8.66 89.9161 8.78V8.87C89.9161 9.07 89.9161 9.27 89.9161 9.47C89.9161 9.65 89.9261 9.84 89.9461 10.04C90.0061 10.32 90.0061 10.6 89.9461 10.88C89.9261 10.94 89.9061 11 89.8861 11.06C89.8861 11.1 89.8861 11.14 89.8861 11.18C89.9061 11.42 89.8861 11.68 89.8261 11.96C89.8261 12.02 89.8261 12.08 89.8261 12.14C89.8261 12.2 89.8361 12.26 89.8561 12.32C89.8761 12.4 89.8861 12.49 89.8861 12.59C89.8861 12.69 89.8861 12.79 89.8861 12.89V14.45C89.8861 14.53 89.8761 14.63 89.8561 14.75C89.8561 14.85 89.8561 14.95 89.8561 15.05C89.8561 15.13 89.8561 15.22 89.8561 15.32C89.8761 15.42 89.8861 15.52 89.8861 15.62C89.8861 15.76 89.8861 15.9 89.8861 16.04C89.9061 16.18 89.9061 16.33 89.8861 16.49V17.42C89.8861 17.44 89.8761 17.46 89.8561 17.48C89.8561 17.5 89.8661 17.53 89.8861 17.57C89.9061 17.75 89.9161 17.94 89.9161 18.14C89.9161 18.32 89.9361 18.5 89.9761 18.68C89.9761 18.74 89.9761 18.8 89.9761 18.86C89.9961 18.92 89.9961 18.98 89.9761 19.04C89.9761 19.22 89.9961 19.41 90.0361 19.61C90.0761 19.79 90.1061 19.97 90.1261 20.15C90.1661 20.37 90.2061 20.59 90.2461 20.81C90.3061 21.03 90.3561 21.25 90.3961 21.47L90.4861 21.89C90.4861 21.95 90.4561 22 90.3961 22.04C90.3961 22.04 90.3861 22.04 90.3661 22.04C90.3661 22.04 90.3561 22.05 90.3361 22.07C90.2361 22.11 90.1961 22.17 90.2161 22.25V22.4C90.2161 22.4 90.2061 22.41 90.1861 22.43C90.1861 22.45 90.1761 22.46 90.1561 22.46C90.0561 22.46 89.9761 22.5 89.9161 22.58C89.8561 22.66 89.7861 22.73 89.7061 22.79C89.6461 22.83 89.5661 22.87 89.4661 22.91C89.2061 23.01 88.9661 23.03 88.7461 22.97ZM101.401 23.6C101.021 23.64 100.711 23.52 100.471 23.24C100.351 23.12 100.241 22.99 100.141 22.85C100.041 22.71 99.9609 22.56 99.9009 22.4C99.8009 22.12 99.7109 21.84 99.6309 21.56C99.5509 21.26 99.4809 20.97 99.4209 20.69C99.3609 20.47 99.3309 20.26 99.3309 20.06C99.3109 19.84 99.2809 19.63 99.2409 19.43C99.2209 19.21 99.2109 18.99 99.2109 18.77C99.2109 18.65 99.2109 18.53 99.2109 18.41C99.2109 18.27 99.2009 18.14 99.1809 18.02C99.1609 17.94 99.1509 17.87 99.1509 17.81C99.1509 17.75 99.1509 17.68 99.1509 17.6C99.1509 17.32 99.1509 17.04 99.1509 16.76C99.1509 16.46 99.1409 16.17 99.1209 15.89C99.1209 15.73 99.1109 15.59 99.0909 15.47C99.0709 15.33 99.0309 15.19 98.9709 15.05C98.8909 14.83 98.8809 14.59 98.9409 14.33C98.9409 14.27 98.9509 14.23 98.9709 14.21C99.0109 14.07 99.0309 13.93 99.0309 13.79C99.0509 13.65 99.0509 13.51 99.0309 13.37C99.0109 13.27 99.0009 13.17 99.0009 13.07C99.0009 12.97 99.0009 12.88 99.0009 12.8C98.9809 12.58 98.9709 12.36 98.9709 12.14C98.9909 11.9 99.0109 11.67 99.0309 11.45C99.0509 11.39 99.0609 11.33 99.0609 11.27C99.0609 11.21 99.0609 11.15 99.0609 11.09C99.0409 10.87 99.0409 10.66 99.0609 10.46C99.1009 10.26 99.1309 10.06 99.1509 9.86C99.1909 9.62 99.2309 9.39 99.2709 9.17C99.3109 8.93 99.3609 8.69 99.4209 8.45C99.4609 8.35 99.4809 8.24 99.4809 8.12C99.4809 8 99.4809 7.88 99.4809 7.76C99.4809 7.66 99.4709 7.56 99.4509 7.46C99.4509 7.36 99.4509 7.27 99.4509 7.19C99.4509 7.13 99.4509 7.07 99.4509 7.01C99.4509 6.95 99.4609 6.89 99.4809 6.83C99.5009 6.77 99.5109 6.71 99.5109 6.65C99.5109 6.59 99.5209 6.55 99.5409 6.53C99.6009 6.45 99.6509 6.38 99.6909 6.32C99.7309 6.24 99.7909 6.17 99.8709 6.11C99.9709 6.05 100.061 5.99 100.141 5.93C100.241 5.87 100.331 5.82 100.411 5.78C100.511 5.74 100.591 5.69 100.651 5.63C100.731 5.53 100.811 5.44 100.891 5.36C100.991 5.26 101.071 5.15 101.131 5.03C101.231 4.93 101.331 4.82 101.431 4.7C101.551 4.56 101.681 4.45 101.821 4.37C101.861 4.35 101.921 4.3 102.001 4.22C102.241 4 102.521 3.86 102.841 3.8C102.901 3.78 102.951 3.77 102.991 3.77C103.051 3.75 103.111 3.74 103.171 3.74L103.381 3.65C103.541 3.59 103.681 3.62 103.801 3.74C103.841 3.8 103.891 3.86 103.951 3.92C104.031 3.96 104.101 4 104.161 4.04C104.321 4.18 104.471 4.33 104.611 4.49C104.771 4.65 104.911 4.83 105.031 5.03C105.231 5.35 105.401 5.67 105.541 5.99C105.701 6.31 105.851 6.64 105.991 6.98L106.531 8.27C106.551 8.39 106.601 8.5 106.681 8.6C106.841 8.9 106.961 9.21 107.041 9.53C107.121 9.83 107.201 10.14 107.281 10.46C107.301 10.5 107.311 10.54 107.311 10.58C107.331 10.62 107.341 10.66 107.341 10.7C107.381 10.86 107.411 11.03 107.431 11.21C107.471 11.37 107.481 11.53 107.461 11.69C107.481 11.87 107.471 12.05 107.431 12.23C107.411 12.39 107.381 12.55 107.341 12.71C107.281 12.91 107.211 13.1 107.131 13.28C107.051 13.44 106.961 13.61 106.861 13.79C106.821 13.91 106.751 14.02 106.651 14.12C106.551 14.22 106.451 14.31 106.351 14.39C106.191 14.47 106.031 14.59 105.871 14.75C105.831 14.79 105.781 14.82 105.721 14.84C105.681 14.86 105.641 14.89 105.601 14.93C105.461 14.99 105.311 15.06 105.151 15.14C104.991 15.2 104.831 15.26 104.671 15.32C104.651 15.32 104.641 15.34 104.641 15.38C104.641 15.4 104.651 15.42 104.671 15.44L105.481 16.01C105.581 16.07 105.671 16.13 105.751 16.19C105.831 16.23 105.911 16.28 105.991 16.34L106.171 16.43C106.411 16.57 106.651 16.72 106.891 16.88C107.131 17.04 107.361 17.2 107.581 17.36C108.001 17.62 108.421 17.89 108.841 18.17C109.261 18.43 109.661 18.72 110.041 19.04C110.381 19.3 110.681 19.6 110.941 19.94C111.001 20 111.061 20.07 111.121 20.15C111.181 20.21 111.251 20.26 111.331 20.3L111.421 20.39C111.741 20.67 111.921 21.05 111.961 21.53C111.961 21.59 111.951 21.65 111.931 21.71C111.931 21.77 111.931 21.83 111.931 21.89C111.931 22.01 111.891 22.11 111.811 22.19C111.731 22.23 111.691 22.28 111.691 22.34C111.631 22.48 111.541 22.58 111.421 22.64C111.321 22.68 111.221 22.74 111.121 22.82C111.081 22.84 111.011 22.85 110.911 22.85C110.791 22.83 110.661 22.81 110.521 22.79C110.401 22.77 110.281 22.76 110.161 22.76C110.001 22.76 109.831 22.69 109.651 22.55C109.531 22.45 109.421 22.36 109.321 22.28C109.221 22.18 109.121 22.06 109.021 21.92C108.761 21.56 108.421 21.23 108.001 20.93C107.801 20.77 107.611 20.62 107.431 20.48C107.251 20.34 107.051 20.21 106.831 20.09C106.691 20.01 106.551 19.93 106.411 19.85C106.291 19.75 106.151 19.66 105.991 19.58C105.491 19.24 104.981 18.91 104.461 18.59C103.941 18.25 103.421 17.91 102.901 17.57C102.821 17.51 102.731 17.45 102.631 17.39C102.531 17.33 102.431 17.27 102.331 17.21C102.291 17.17 102.231 17.13 102.151 17.09C102.071 17.09 102.031 17.12 102.031 17.18C102.031 17.2 102.021 17.22 102.001 17.24C102.001 17.24 102.001 17.25 102.001 17.27C102.001 17.33 102.001 17.39 102.001 17.45C102.001 17.51 102.011 17.57 102.031 17.63C102.051 17.79 102.061 17.95 102.061 18.11C102.061 18.25 102.061 18.4 102.061 18.56C102.061 18.68 102.061 18.8 102.061 18.92C102.081 19.02 102.101 19.13 102.121 19.25C102.121 19.31 102.121 19.38 102.121 19.46C102.141 19.52 102.151 19.58 102.151 19.64C102.131 19.82 102.141 20 102.181 20.18C102.221 20.36 102.251 20.54 102.271 20.72L102.451 21.5C102.471 21.58 102.491 21.67 102.511 21.77C102.531 21.85 102.551 21.94 102.571 22.04C102.591 22.12 102.591 22.2 102.571 22.28C102.571 22.34 102.561 22.41 102.541 22.49C102.541 22.51 102.521 22.54 102.481 22.58C102.381 22.6 102.311 22.67 102.271 22.79C102.211 22.93 102.121 23.05 102.001 23.15C101.901 23.27 101.791 23.38 101.671 23.48C101.651 23.5 101.611 23.52 101.551 23.54C101.491 23.56 101.441 23.58 101.401 23.6ZM102.571 13.1H102.631C102.851 13.06 103.071 13.02 103.291 12.98C103.531 12.92 103.761 12.85 103.981 12.77C104.201 12.71 104.391 12.6 104.551 12.44C104.691 12.3 104.761 12.14 104.761 11.96C104.781 11.82 104.781 11.69 104.761 11.57C104.761 11.43 104.741 11.29 104.701 11.15C104.621 10.79 104.531 10.44 104.431 10.1C104.331 9.74 104.211 9.4 104.071 9.08L103.801 8.36C103.741 8.16 103.671 7.97 103.591 7.79C103.511 7.59 103.421 7.4 103.321 7.22C103.301 7.18 103.281 7.14 103.261 7.1C103.241 7.04 103.221 6.99 103.201 6.95L103.081 6.83C103.021 6.75 102.951 6.75 102.871 6.83C102.851 6.83 102.821 6.85 102.781 6.89C102.641 7.07 102.511 7.26 102.391 7.46C102.291 7.66 102.231 7.88 102.211 8.12C102.191 8.2 102.171 8.28 102.151 8.36C102.151 8.44 102.151 8.53 102.151 8.63V9.92C102.131 10.2 102.121 10.49 102.121 10.79C102.141 11.09 102.131 11.38 102.091 11.66C102.071 11.72 102.061 11.78 102.061 11.84C102.081 11.9 102.091 11.96 102.091 12.02C102.111 12.14 102.121 12.26 102.121 12.38C102.121 12.48 102.121 12.59 102.121 12.71C102.121 12.91 102.141 13.03 102.181 13.07C102.241 13.11 102.371 13.12 102.571 13.1ZM126.911 25.19C126.731 25.19 126.571 25.12 126.431 24.98C126.391 24.92 126.351 24.86 126.311 24.8C126.271 24.74 126.231 24.68 126.191 24.62C126.011 24.2 125.921 23.76 125.921 23.3L125.831 22.58C125.771 22.3 125.721 22.02 125.681 21.74C125.641 21.46 125.571 21.19 125.471 20.93L125.291 20.42C125.291 20.38 125.281 20.34 125.261 20.3C125.261 20.26 125.251 20.22 125.231 20.18L124.781 18.59C124.761 18.55 124.741 18.5 124.721 18.44C124.721 18.38 124.701 18.33 124.661 18.29C124.601 18.17 124.551 18.05 124.511 17.93C124.491 17.79 124.461 17.65 124.421 17.51C124.401 17.41 124.381 17.32 124.361 17.24C124.341 17.14 124.311 17.04 124.271 16.94C124.231 16.82 124.191 16.75 124.151 16.73C124.111 16.69 124.021 16.69 123.881 16.73C123.781 16.75 123.671 16.77 123.551 16.79C123.451 16.79 123.351 16.81 123.251 16.85C123.171 16.87 123.071 16.89 122.951 16.91C122.851 16.91 122.751 16.92 122.651 16.94L122.231 17.03C122.131 17.05 122.021 17.08 121.901 17.12C121.801 17.14 121.701 17.15 121.601 17.15L121.061 17.24C120.901 17.28 120.731 17.32 120.551 17.36C120.371 17.4 120.201 17.44 120.041 17.48C119.561 17.6 119.081 17.69 118.601 17.75C118.441 17.79 118.351 17.86 118.331 17.96C118.311 17.96 118.301 17.97 118.301 17.99C118.181 18.31 118.041 18.63 117.881 18.95C117.741 19.25 117.591 19.56 117.431 19.88C117.391 19.96 117.351 20.04 117.311 20.12C117.291 20.18 117.261 20.25 117.221 20.33C117.201 20.37 117.181 20.42 117.161 20.48C117.141 20.52 117.121 20.56 117.101 20.6C116.981 20.74 116.921 20.91 116.921 21.11C116.901 21.23 116.861 21.35 116.801 21.47C116.741 21.57 116.681 21.67 116.621 21.77C116.601 21.83 116.561 21.86 116.501 21.86C116.421 21.88 116.341 21.91 116.261 21.95C116.181 21.99 116.091 22.03 115.991 22.07C115.931 22.09 115.871 22.09 115.811 22.07C115.771 22.05 115.721 22.03 115.661 22.01C115.621 21.97 115.581 21.95 115.541 21.95C115.321 21.93 115.161 21.8 115.061 21.56C114.901 21.24 114.791 20.92 114.731 20.6C114.711 20.52 114.711 20.45 114.731 20.39C114.771 20.33 114.801 20.27 114.821 20.21C114.941 20.13 115.011 20.04 115.031 19.94V19.91C115.031 19.65 115.081 19.41 115.181 19.19C115.301 18.95 115.401 18.72 115.481 18.5C115.521 18.38 115.571 18.26 115.631 18.14C115.691 18.02 115.751 17.9 115.811 17.78C115.891 17.64 115.951 17.51 115.991 17.39C116.051 17.25 116.101 17.11 116.141 16.97C116.201 16.81 116.201 16.66 116.141 16.52C116.101 16.4 116.081 16.29 116.081 16.19C116.081 16.07 116.091 15.95 116.111 15.83C116.111 15.61 116.191 15.42 116.351 15.26C116.431 15.16 116.511 15.08 116.591 15.02C116.691 14.94 116.781 14.86 116.861 14.78C117.041 14.6 117.181 14.36 117.281 14.06C117.361 13.8 117.421 13.54 117.461 13.28C117.521 13 117.581 12.73 117.641 12.47C117.681 12.21 117.721 11.96 117.761 11.72C117.821 11.46 117.881 11.21 117.941 10.97C117.961 10.87 117.981 10.78 118.001 10.7C118.041 10.6 118.071 10.51 118.091 10.43C118.151 10.27 118.211 10.12 118.271 9.98C118.331 9.82 118.371 9.66 118.391 9.5C118.431 9.42 118.431 9.35 118.391 9.29C118.371 9.19 118.371 9.1 118.391 9.02C118.431 8.94 118.461 8.86 118.481 8.78C118.541 8.64 118.581 8.5 118.601 8.36C118.641 8.22 118.691 8.08 118.751 7.94C118.851 7.68 118.931 7.47 118.991 7.31C119.071 7.13 119.141 6.93 119.201 6.71C119.241 6.59 119.281 6.48 119.321 6.38C119.381 6.26 119.421 6.14 119.441 6.02C119.501 5.84 119.551 5.66 119.591 5.48C119.631 5.28 119.651 5.09 119.651 4.91C119.691 4.75 119.731 4.64 119.771 4.58C119.871 4.38 119.991 4.21 120.131 4.07C120.291 3.93 120.441 3.79 120.581 3.65C120.681 3.59 120.781 3.55 120.881 3.53C120.981 3.49 121.081 3.5 121.181 3.56C121.261 3.6 121.311 3.62 121.331 3.62C121.511 3.6 121.661 3.64 121.781 3.74C121.901 3.84 122.001 3.96 122.081 4.1C122.121 4.14 122.151 4.19 122.171 4.25C122.191 4.31 122.211 4.36 122.231 4.4C122.331 4.56 122.381 4.72 122.381 4.88C122.381 4.96 122.391 5.05 122.411 5.15C122.431 5.23 122.451 5.32 122.471 5.42C122.531 5.54 122.621 5.6 122.741 5.6C122.761 5.58 122.781 5.58 122.801 5.6C122.821 5.62 122.831 5.64 122.831 5.66C122.931 5.78 122.961 5.91 122.921 6.05C122.881 6.21 122.871 6.37 122.891 6.53C122.931 6.67 122.971 6.82 123.011 6.98C123.091 7.18 123.171 7.38 123.251 7.58C123.331 7.78 123.411 7.98 123.491 8.18C123.591 8.4 123.691 8.62 123.791 8.84C123.891 9.06 123.981 9.28 124.061 9.5C124.161 9.78 124.261 10.06 124.361 10.34C124.481 10.62 124.611 10.9 124.751 11.18L124.841 11.51C124.861 11.59 124.881 11.67 124.901 11.75C124.941 11.83 124.971 11.91 124.991 11.99C125.031 12.05 125.061 12.11 125.081 12.17C125.121 12.23 125.161 12.28 125.201 12.32C125.301 12.46 125.361 12.61 125.381 12.77C125.441 12.97 125.531 13.15 125.651 13.31C125.691 13.37 125.751 13.4 125.831 13.4C126.131 13.36 126.431 13.33 126.731 13.31C127.031 13.27 127.331 13.21 127.631 13.13C127.851 13.07 128.061 13.04 128.261 13.04C128.641 13.04 128.991 13.17 129.311 13.43C129.691 13.73 129.891 14.11 129.911 14.57C129.911 14.67 129.921 14.75 129.941 14.81C129.941 14.95 129.901 15.06 129.821 15.14C129.801 15.2 129.761 15.26 129.701 15.32C129.661 15.38 129.621 15.44 129.581 15.5C129.541 15.58 129.501 15.64 129.461 15.68L129.281 15.83C129.261 15.87 129.231 15.92 129.191 15.98C129.151 16.02 129.101 16.05 129.041 16.07C128.961 16.09 128.881 16.12 128.801 16.16C128.721 16.18 128.631 16.19 128.531 16.19C128.171 16.23 127.851 16.22 127.571 16.16H127.091C127.051 16.16 126.991 16.18 126.911 16.22C126.831 16.26 126.791 16.31 126.791 16.37V16.49C126.851 16.67 126.891 16.86 126.911 17.06C126.951 17.24 127.011 17.41 127.091 17.57C127.091 17.65 127.111 17.73 127.151 17.81C127.251 17.99 127.331 18.18 127.391 18.38C127.451 18.56 127.501 18.75 127.541 18.95C127.541 18.99 127.561 19.07 127.601 19.19C127.661 19.33 127.711 19.48 127.751 19.64C127.791 19.78 127.821 19.93 127.841 20.09C127.841 20.21 127.871 20.32 127.931 20.42C128.011 20.6 128.071 20.78 128.111 20.96C128.151 21.14 128.181 21.33 128.201 21.53C128.221 21.55 128.231 21.59 128.231 21.65C128.231 21.69 128.241 21.73 128.261 21.77C128.361 21.99 128.431 22.23 128.471 22.49C128.511 22.73 128.561 22.97 128.621 23.21C128.661 23.33 128.681 23.45 128.681 23.57C128.701 23.71 128.711 23.85 128.711 23.99C128.711 24.09 128.681 24.2 128.621 24.32C128.561 24.38 128.531 24.41 128.531 24.41C128.411 24.43 128.341 24.5 128.321 24.62L128.231 24.8C128.191 24.88 128.131 24.93 128.051 24.95C127.971 24.95 127.901 24.98 127.841 25.04C127.761 25.12 127.651 25.16 127.511 25.16C127.431 25.16 127.331 25.16 127.211 25.16C127.111 25.16 127.011 25.17 126.911 25.19ZM119.681 14.3C119.801 14.28 119.921 14.26 120.041 14.24C120.181 14.22 120.331 14.2 120.491 14.18C120.591 14.16 120.721 14.14 120.881 14.12C121.041 14.1 121.191 14.08 121.331 14.06C121.471 14.02 121.611 14 121.751 14C121.891 13.98 122.031 13.96 122.171 13.94C122.291 13.9 122.411 13.88 122.531 13.88C122.651 13.86 122.771 13.84 122.891 13.82C123.071 13.78 123.141 13.68 123.101 13.52C123.081 13.36 123.041 13.2 122.981 13.04C122.941 12.86 122.851 12.71 122.711 12.59C122.671 12.55 122.651 12.49 122.651 12.41V12.32C122.611 12.16 122.561 12.01 122.501 11.87C122.461 11.71 122.411 11.56 122.351 11.42C122.311 11.26 122.261 11.12 122.201 11C122.161 10.86 122.111 10.72 122.051 10.58L121.691 9.5C121.631 9.36 121.571 9.22 121.511 9.08C121.471 8.94 121.431 8.8 121.391 8.66L121.301 8.54H121.211L121.151 8.63C121.051 8.93 120.931 9.23 120.791 9.53C120.671 9.83 120.561 10.15 120.461 10.49C120.461 10.53 120.451 10.58 120.431 10.64C120.411 10.7 120.391 10.76 120.371 10.82C120.291 11.02 120.211 11.24 120.131 11.48C120.071 11.72 120.021 11.96 119.981 12.2C119.961 12.34 119.941 12.48 119.921 12.62C119.901 12.74 119.871 12.87 119.831 13.01L119.561 14.18C119.541 14.2 119.551 14.23 119.591 14.27C119.631 14.29 119.661 14.3 119.681 14.3ZM134.68 23.3C134.56 23.3 134.48 23.29 134.44 23.27C134.36 23.23 134.29 23.2 134.23 23.18C134.17 23.16 134.11 23.14 134.05 23.12C133.99 23.08 133.93 23.04 133.87 23C133.83 22.94 133.79 22.88 133.75 22.82C133.71 22.78 133.67 22.76 133.63 22.76C133.51 22.76 133.45 22.7 133.45 22.58C133.43 22.46 133.41 22.34 133.39 22.22C133.37 22.1 133.35 21.98 133.33 21.86C133.31 21.68 133.29 21.5 133.27 21.32C133.27 21.14 133.25 20.97 133.21 20.81V20.54C133.21 20.46 133.2 20.39 133.18 20.33C133.18 20.27 133.18 20.2 133.18 20.12C133.14 20.02 133.14 19.94 133.18 19.88C133.22 19.52 133.22 19.16 133.18 18.8C133.16 18.7 133.15 18.6 133.15 18.5C133.15 18.4 133.14 18.3 133.12 18.2C133.12 18 133.12 17.8 133.12 17.6C133.12 17.38 133.1 17.17 133.06 16.97V16.49C133.06 16.33 133.05 16.18 133.03 16.04C133.03 15.9 133.02 15.76 133 15.62C132.98 15.44 132.96 15.26 132.94 15.08C132.94 14.9 132.93 14.72 132.91 14.54C132.89 14.5 132.88 14.43 132.88 14.33C132.86 14.23 132.84 14.13 132.82 14.03C132.82 13.91 132.82 13.8 132.82 13.7L132.73 12.2C132.71 12.04 132.69 11.89 132.67 11.75C132.67 11.59 132.67 11.44 132.67 11.3C132.65 11.06 132.63 10.82 132.61 10.58C132.59 10.34 132.57 10.11 132.55 9.89C132.55 9.85 132.54 9.81 132.52 9.77C132.52 9.73 132.52 9.7 132.52 9.68C132.52 9.44 132.51 9.2 132.49 8.96C132.47 8.72 132.45 8.47 132.43 8.21L132.34 7.37C132.28 7.05 132.27 6.7 132.31 6.32C132.31 6.14 132.38 5.99 132.52 5.87C132.56 5.83 132.59 5.81 132.61 5.81C132.63 5.79 132.65 5.77 132.67 5.75C132.77 5.73 132.82 5.66 132.82 5.54C132.82 5.5 132.86 5.48 132.94 5.48H133.09C133.11 5.48 133.12 5.48 133.12 5.48C133.14 5.46 133.16 5.45 133.18 5.45C133.22 5.43 133.25 5.41 133.27 5.39C133.31 5.35 133.34 5.33 133.36 5.33C133.4 5.33 133.44 5.34 133.48 5.36C133.52 5.36 133.56 5.37 133.6 5.39C133.64 5.39 133.67 5.38 133.69 5.36C133.79 5.34 133.89 5.35 133.99 5.39C134.11 5.41 134.21 5.44 134.29 5.48C134.41 5.5 134.5 5.58 134.56 5.72C134.62 5.9 134.67 6.08 134.71 6.26C134.77 6.42 134.81 6.59 134.83 6.77V7.01C134.87 7.15 134.89 7.3 134.89 7.46C134.89 7.6 134.89 7.75 134.89 7.91C134.89 8.05 134.89 8.19 134.89 8.33C134.91 8.45 134.93 8.57 134.95 8.69C134.95 8.75 134.95 8.81 134.95 8.87C134.95 8.93 134.96 8.99 134.98 9.05C134.98 9.17 134.98 9.29 134.98 9.41C135 9.53 135.02 9.66 135.04 9.8C135.06 10.02 135.08 10.25 135.1 10.49C135.12 10.73 135.13 10.97 135.13 11.21C135.13 11.31 135.13 11.42 135.13 11.54C135.13 11.64 135.14 11.74 135.16 11.84C135.18 11.9 135.19 11.96 135.19 12.02C135.19 12.08 135.19 12.14 135.19 12.2V12.8C135.19 12.92 135.2 13.02 135.22 13.1C135.26 13.24 135.27 13.38 135.25 13.52C135.25 13.64 135.26 13.77 135.28 13.91L135.37 15.29C135.39 15.49 135.4 15.7 135.4 15.92C135.42 16.12 135.43 16.33 135.43 16.55C135.43 16.63 135.43 16.72 135.43 16.82C135.43 16.9 135.44 16.98 135.46 17.06C135.48 17.12 135.49 17.18 135.49 17.24C135.49 17.3 135.49 17.36 135.49 17.42C135.51 17.44 135.51 17.48 135.49 17.54C135.49 17.58 135.5 17.62 135.52 17.66C135.56 17.8 135.58 17.94 135.58 18.08C135.58 18.22 135.58 18.37 135.58 18.53C135.58 18.61 135.58 18.7 135.58 18.8C135.6 18.88 135.61 18.97 135.61 19.07C135.63 19.17 135.64 19.28 135.64 19.4C135.64 19.52 135.64 19.63 135.64 19.73C135.66 19.83 135.67 19.94 135.67 20.06C135.67 20.16 135.68 20.26 135.7 20.36C135.72 20.4 135.73 20.44 135.73 20.48C135.73 20.7 135.75 20.92 135.79 21.14C135.83 21.36 135.87 21.58 135.91 21.8C135.93 21.86 135.94 21.93 135.94 22.01C135.94 22.07 135.94 22.13 135.94 22.19C135.94 22.25 135.92 22.3 135.88 22.34C135.8 22.4 135.74 22.52 135.7 22.7C135.7 22.76 135.67 22.81 135.61 22.85C135.47 22.91 135.35 22.99 135.25 23.09C135.09 23.23 134.9 23.3 134.68 23.3ZM144.762 22.97C144.722 22.95 144.662 22.94 144.582 22.94C144.542 22.94 144.502 22.91 144.462 22.85C144.422 22.79 144.382 22.74 144.342 22.7C144.302 22.64 144.262 22.57 144.222 22.49C144.162 22.41 144.112 22.41 144.072 22.49H144.012C144.012 22.47 144.002 22.46 143.982 22.46C143.982 22.44 143.982 22.43 143.982 22.43C143.922 22.15 143.832 21.89 143.712 21.65C143.652 21.49 143.592 21.33 143.532 21.17C143.492 20.99 143.462 20.81 143.442 20.63L143.262 19.31L143.172 18.23V18.17C143.132 17.93 143.112 17.69 143.112 17.45C143.112 17.19 143.112 16.93 143.112 16.67C143.092 16.53 143.082 16.4 143.082 16.28C143.082 16.14 143.072 16 143.052 15.86C143.032 15.7 143.012 15.54 142.992 15.38C142.992 15.22 142.992 15.07 142.992 14.93L143.022 12.56V9.35C142.982 9.23 142.922 9.17 142.842 9.17C142.802 9.17 142.752 9.18 142.692 9.2C142.652 9.2 142.612 9.2 142.572 9.2L141.222 9.56C141.042 9.62 140.862 9.68 140.682 9.74C140.502 9.78 140.322 9.83 140.142 9.89C140.002 9.91 139.862 9.93 139.722 9.95C139.602 9.95 139.472 9.95 139.332 9.95C139.232 9.95 139.122 9.91 139.002 9.83C138.862 9.77 138.742 9.69 138.642 9.59C138.542 9.49 138.442 9.38 138.342 9.26L138.282 9.17C138.242 9.03 138.202 8.9 138.162 8.78C138.142 8.64 138.142 8.5 138.162 8.36C138.182 8.18 138.222 8.01 138.282 7.85C138.362 7.69 138.472 7.55 138.612 7.43C138.672 7.39 138.722 7.34 138.762 7.28C138.822 7.22 138.882 7.16 138.942 7.1C139.022 7.06 139.072 7.04 139.092 7.04C139.212 7.04 139.322 7.02 139.422 6.98C139.522 6.92 139.622 6.88 139.722 6.86C139.822 6.84 139.922 6.82 140.022 6.8C140.122 6.78 140.222 6.76 140.322 6.74C140.602 6.66 140.882 6.59 141.162 6.53C141.442 6.45 141.722 6.39 142.002 6.35L143.622 6.08C143.662 6.06 143.692 6.05 143.712 6.05C143.752 6.05 143.782 6.04 143.802 6.02C143.922 5.98 144.042 5.95 144.162 5.93C144.282 5.91 144.402 5.92 144.522 5.96C144.562 5.98 144.592 5.99 144.612 5.99C144.652 5.97 144.682 5.96 144.702 5.96C145.042 5.92 145.382 5.88 145.722 5.84C146.062 5.8 146.392 5.75 146.712 5.69C146.972 5.65 147.232 5.61 147.492 5.57C147.752 5.53 148.012 5.5 148.272 5.48C148.472 5.44 148.672 5.41 148.872 5.39C149.072 5.37 149.272 5.35 149.472 5.33C149.632 5.31 149.792 5.29 149.952 5.27C150.132 5.25 150.302 5.23 150.462 5.21C150.622 5.19 150.772 5.19 150.912 5.21C151.072 5.21 151.232 5.21 151.392 5.21C151.492 5.21 151.582 5.24 151.662 5.3C151.762 5.36 151.852 5.41 151.932 5.45C152.012 5.51 152.122 5.61 152.262 5.75C152.302 5.79 152.342 5.88 152.382 6.02C152.402 6.08 152.422 6.15 152.442 6.23C152.462 6.29 152.482 6.36 152.502 6.44C152.542 6.62 152.522 6.79 152.442 6.95L152.262 7.37C152.242 7.43 152.212 7.49 152.172 7.55C152.152 7.59 152.122 7.63 152.082 7.67C152.042 7.71 152.022 7.73 152.022 7.73C151.942 7.79 151.852 7.85 151.752 7.91C151.672 7.97 151.572 8.01 151.452 8.03L150.162 8.12C150.042 8.12 149.922 8.13 149.802 8.15C149.682 8.15 149.552 8.16 149.412 8.18H149.262C148.942 8.2 148.632 8.23 148.332 8.27C148.032 8.31 147.732 8.35 147.432 8.39L146.232 8.57C146.172 8.57 146.132 8.58 146.112 8.6C146.032 8.6 145.972 8.66 145.932 8.78V8.87C145.932 9.07 145.932 9.27 145.932 9.47C145.932 9.65 145.942 9.84 145.962 10.04C146.022 10.32 146.022 10.6 145.962 10.88C145.942 10.94 145.922 11 145.902 11.06C145.902 11.1 145.902 11.14 145.902 11.18C145.922 11.42 145.902 11.68 145.842 11.96C145.842 12.02 145.842 12.08 145.842 12.14C145.842 12.2 145.852 12.26 145.872 12.32C145.892 12.4 145.902 12.49 145.902 12.59C145.902 12.69 145.902 12.79 145.902 12.89V14.45C145.902 14.53 145.892 14.63 145.872 14.75C145.872 14.85 145.872 14.95 145.872 15.05C145.872 15.13 145.872 15.22 145.872 15.32C145.892 15.42 145.902 15.52 145.902 15.62C145.902 15.76 145.902 15.9 145.902 16.04C145.922 16.18 145.922 16.33 145.902 16.49V17.42C145.902 17.44 145.892 17.46 145.872 17.48C145.872 17.5 145.882 17.53 145.902 17.57C145.922 17.75 145.932 17.94 145.932 18.14C145.932 18.32 145.952 18.5 145.992 18.68C145.992 18.74 145.992 18.8 145.992 18.86C146.012 18.92 146.012 18.98 145.992 19.04C145.992 19.22 146.012 19.41 146.052 19.61C146.092 19.79 146.122 19.97 146.142 20.15C146.182 20.37 146.222 20.59 146.262 20.81C146.322 21.03 146.372 21.25 146.412 21.47L146.502 21.89C146.502 21.95 146.472 22 146.412 22.04C146.412 22.04 146.402 22.04 146.382 22.04C146.382 22.04 146.372 22.05 146.352 22.07C146.252 22.11 146.212 22.17 146.232 22.25V22.4C146.232 22.4 146.222 22.41 146.202 22.43C146.202 22.45 146.192 22.46 146.172 22.46C146.072 22.46 145.992 22.5 145.932 22.58C145.872 22.66 145.802 22.73 145.722 22.79C145.662 22.83 145.582 22.87 145.482 22.91C145.222 23.01 144.982 23.03 144.762 22.97ZM160.591 24.47L160.081 24.38C159.821 24.34 159.551 24.3 159.271 24.26C159.011 24.22 158.741 24.19 158.461 24.17C158.181 24.17 157.901 24.09 157.621 23.93C157.361 23.79 157.181 23.57 157.081 23.27C157.061 23.17 157.031 23.07 156.991 22.97C156.971 22.87 156.951 22.77 156.931 22.67C156.931 22.43 156.981 22.25 157.081 22.13C157.181 22.03 157.261 21.93 157.321 21.83C157.401 21.73 157.481 21.64 157.561 21.56C157.601 21.52 157.641 21.49 157.681 21.47C157.721 21.45 157.761 21.43 157.801 21.41C157.901 21.35 158.001 21.31 158.101 21.29C158.201 21.25 158.301 21.22 158.401 21.2C158.441 21.18 158.471 21.18 158.491 21.2C158.531 21.2 158.561 21.2 158.581 21.2C158.681 21.22 158.791 21.24 158.911 21.26C159.031 21.26 159.141 21.28 159.241 21.32L160.501 21.5C160.781 21.54 161.031 21.5 161.251 21.38C161.331 21.34 161.401 21.3 161.461 21.26C161.541 21.22 161.611 21.18 161.671 21.14C162.111 20.88 162.491 20.61 162.811 20.33C163.051 20.11 163.281 19.89 163.501 19.67C163.721 19.45 163.921 19.21 164.101 18.95C164.241 18.77 164.331 18.59 164.371 18.41C164.411 18.21 164.421 18.01 164.401 17.81L164.311 17.57C164.291 17.47 164.251 17.39 164.191 17.33C164.131 17.27 164.071 17.2 164.011 17.12C163.891 17.02 163.771 16.91 163.651 16.79C163.551 16.67 163.441 16.57 163.321 16.49C163.021 16.25 162.721 16.02 162.421 15.8C162.141 15.58 161.851 15.36 161.551 15.14C161.531 15.1 161.471 15.06 161.371 15.02C161.191 14.9 161.011 14.77 160.831 14.63C160.671 14.47 160.511 14.32 160.351 14.18C160.151 13.98 159.931 13.79 159.691 13.61C159.571 13.55 159.461 13.45 159.361 13.31C159.281 13.21 159.161 13.11 159.001 13.01C158.861 12.93 158.731 12.84 158.611 12.74C158.491 12.62 158.371 12.51 158.251 12.41L157.861 12.05C157.781 11.95 157.691 11.86 157.591 11.78C157.511 11.68 157.421 11.58 157.321 11.48C157.281 11.38 157.221 11.3 157.141 11.24C157.081 11.18 157.021 11.11 156.961 11.03C156.941 10.99 156.911 10.95 156.871 10.91C156.831 10.85 156.801 10.79 156.781 10.73C156.661 10.49 156.531 10.25 156.391 10.01C156.271 9.77 156.161 9.52 156.061 9.26C156.001 9.1 155.941 8.95 155.881 8.81C155.841 8.65 155.801 8.5 155.761 8.36C155.741 8.2 155.701 8.06 155.641 7.94C155.601 7.8 155.561 7.66 155.521 7.52C155.481 7.3 155.431 7.09 155.371 6.89C155.331 6.67 155.291 6.46 155.251 6.26L155.191 6.02C155.171 5.8 155.171 5.59 155.191 5.39C155.231 5.11 155.291 4.86 155.371 4.64C155.451 4.4 155.581 4.21 155.761 4.07C155.961 3.91 156.161 3.75 156.361 3.59C156.561 3.43 156.771 3.3 156.991 3.2C157.031 3.2 157.061 3.19 157.081 3.17C157.281 3.01 157.501 2.9 157.741 2.84C157.981 2.76 158.221 2.69 158.461 2.63C159.421 2.35 160.411 2.14 161.431 2H161.731C161.931 2 162.121 2 162.301 2C162.481 2 162.671 1.99 162.871 1.97C163.111 1.97 163.351 2 163.591 2.06C163.831 2.1 164.061 2.17 164.281 2.27C164.441 2.35 164.601 2.44 164.761 2.54C164.921 2.62 165.071 2.71 165.211 2.81C165.371 2.93 165.471 3.06 165.511 3.2L165.601 3.41C165.701 3.59 165.751 3.78 165.751 3.98C165.771 4.16 165.761 4.35 165.721 4.55C165.721 4.61 165.711 4.68 165.691 4.76C165.691 4.82 165.691 4.88 165.691 4.94C165.631 5.38 165.421 5.72 165.061 5.96C164.841 6.16 164.551 6.24 164.191 6.2C164.111 6.16 164.071 6.18 164.071 6.26C164.071 6.34 164.021 6.38 163.921 6.38H163.741C163.621 6.38 163.501 6.32 163.381 6.2C163.281 6.1 163.231 6.02 163.231 5.96C163.231 5.88 163.271 5.82 163.351 5.78C163.311 5.68 163.271 5.59 163.231 5.51C163.191 5.43 163.151 5.37 163.111 5.33C163.051 5.23 162.961 5.16 162.841 5.12C162.741 5.1 162.641 5.08 162.541 5.06C162.441 5.04 162.341 5.02 162.241 5C162.161 5 162.071 5 161.971 5C161.871 4.98 161.771 4.96 161.671 4.94C161.611 4.92 161.521 4.93 161.401 4.97C161.341 4.99 161.281 5.01 161.221 5.03C161.161 5.03 161.091 5.02 161.011 5C160.951 5 160.881 5 160.801 5C160.741 5 160.671 5.02 160.591 5.06L160.021 5.15C159.701 5.21 159.391 5.33 159.091 5.51C159.031 5.53 158.971 5.55 158.911 5.57C158.851 5.59 158.791 5.59 158.731 5.57C158.611 5.55 158.511 5.58 158.431 5.66C158.411 5.7 158.361 5.73 158.281 5.75C158.221 5.75 158.171 5.77 158.131 5.81C158.051 5.89 158.011 5.97 158.011 6.05C158.031 6.09 158.041 6.15 158.041 6.23L158.671 8.06C158.791 8.38 158.941 8.68 159.121 8.96C159.321 9.22 159.531 9.48 159.751 9.74C160.091 10.14 160.441 10.48 160.801 10.76L161.761 11.57C161.961 11.75 162.171 11.92 162.391 12.08C162.611 12.24 162.821 12.4 163.021 12.56C163.321 12.78 163.621 13.01 163.921 13.25C164.221 13.47 164.521 13.7 164.821 13.94C165.061 14.14 165.291 14.34 165.511 14.54C165.751 14.72 165.971 14.92 166.171 15.14C166.311 15.3 166.451 15.46 166.591 15.62C166.731 15.78 166.851 15.96 166.951 16.16C167.091 16.38 167.211 16.64 167.311 16.94C167.431 17.32 167.481 17.68 167.461 18.02C167.441 18.06 167.431 18.12 167.431 18.2C167.431 18.44 167.401 18.67 167.341 18.89C167.301 19.09 167.231 19.3 167.131 19.52C167.031 19.72 166.921 19.93 166.801 20.15C166.701 20.35 166.581 20.55 166.441 20.75C166.241 21.01 166.031 21.26 165.811 21.5C165.611 21.72 165.381 21.94 165.121 22.16C164.981 22.28 164.841 22.41 164.701 22.55C164.561 22.67 164.411 22.78 164.251 22.88C164.151 22.96 164.051 23.03 163.951 23.09C163.851 23.17 163.751 23.25 163.651 23.33C163.571 23.37 163.491 23.42 163.411 23.48C163.331 23.54 163.251 23.6 163.171 23.66C163.091 23.74 162.991 23.8 162.871 23.84C162.771 23.9 162.671 23.95 162.571 23.99L161.701 24.35C161.521 24.41 161.341 24.45 161.161 24.47C160.981 24.49 160.791 24.49 160.591 24.47Z" fill="#353535"/>
</svg>
