<svg width="132" height="29" viewBox="0 0 132 29" fill="none" xmlns="http://www.w3.org/2000/svg">
<path d="M5.62275 22.425C5.38942 22.525 5.19775 22.45 5.04775 22.2C4.96442 22.0833 4.90609 21.925 4.87275 21.725C4.85609 21.575 4.83109 21.425 4.79775 21.275C4.76442 21.125 4.73109 20.9667 4.69775 20.8C4.68109 20.7333 4.65609 20.6667 4.62275 20.6C4.60609 20.5333 4.58109 20.4667 4.54775 20.4C4.49775 20.3 4.44775 20.2 4.39775 20.1C4.34775 20 4.28942 19.9083 4.22275 19.825C4.15609 19.6917 4.11442 19.6 4.09775 19.55L3.97275 19.275C3.87275 19.0417 3.82275 18.8 3.82275 18.55C3.80609 18.4333 3.79775 18.3167 3.79775 18.2C3.81442 18.0833 3.83109 17.9667 3.84775 17.85C3.89775 17.55 3.88942 17.275 3.82275 17.025L3.59775 15.9C3.58109 15.8 3.56442 15.7 3.54775 15.6C3.53109 15.4833 3.51442 15.3667 3.49775 15.25L3.42275 14.9C3.40609 14.75 3.38942 14.6 3.37275 14.45C3.35609 14.3 3.33942 14.1583 3.32275 14.025C3.30609 13.975 3.29775 13.925 3.29775 13.875C3.29775 13.825 3.29775 13.775 3.29775 13.725C3.29775 13.5417 3.23942 13.3833 3.12275 13.25C3.05609 13.1667 2.98942 13.0833 2.92275 13C2.87275 12.9 2.83109 12.8083 2.79775 12.725C2.73109 12.625 2.66442 12.5333 2.59775 12.45C2.54775 12.35 2.49775 12.25 2.44775 12.15C2.39775 12.05 2.31442 11.9917 2.19775 11.975C2.09775 11.9583 2.00609 11.9167 1.92275 11.85C1.80609 11.75 1.69775 11.6417 1.59775 11.525C1.56442 11.4583 1.53109 11.4083 1.49775 11.375C1.44775 11.3083 1.43109 11.2417 1.44775 11.175C1.48109 11.125 1.48109 11.075 1.44775 11.025C1.39775 10.9417 1.38109 10.8667 1.39775 10.8C1.41442 10.7333 1.43109 10.6667 1.44775 10.6C1.44775 10.5333 1.46442 10.475 1.49775 10.425C1.53109 10.375 1.56442 10.325 1.59775 10.275C1.66442 10.175 1.73942 10.0917 1.82275 10.025C1.92275 9.94167 2.02275 9.86667 2.12275 9.8C2.18942 9.76667 2.23942 9.73333 2.27275 9.7C2.35609 9.66667 2.38109 9.61667 2.34775 9.55V9.475C2.31442 9.29167 2.28109 9.11667 2.24775 8.95C2.21442 8.78333 2.17275 8.61667 2.12275 8.45C2.10609 8.36667 2.08109 8.28333 2.04775 8.2C2.03109 8.11667 2.00609 8.03333 1.97275 7.95C1.95609 7.93333 1.94775 7.9 1.94775 7.85C1.94775 7.76667 1.93942 7.68333 1.92275 7.6C1.90609 7.51667 1.88942 7.44167 1.87275 7.375C1.82275 6.975 1.74775 6.575 1.64775 6.175C1.63109 6.05833 1.58942 5.94167 1.52275 5.825C1.45609 5.675 1.41442 5.54167 1.39775 5.425C1.34775 5.24167 1.29775 5.06667 1.24775 4.9C1.19775 4.71667 1.15609 4.54167 1.12275 4.375C1.07275 4.20833 1.03109 4.04167 0.997754 3.875C0.981087 3.70833 0.964421 3.54167 0.947754 3.375C0.931087 2.975 1.07275 2.65 1.37275 2.4L1.44775 2.325C1.58109 2.20833 1.71442 2.13333 1.84775 2.1C1.99775 2.05 2.15609 2.025 2.32275 2.025C2.47275 2.04167 2.60609 2.03333 2.72275 2C2.85609 1.95 2.98109 1.89167 3.09775 1.825C3.13109 1.80833 3.18109 1.8 3.24775 1.8H3.32275C3.37275 1.8 3.41442 1.80833 3.44775 1.825C3.49775 1.85833 3.55609 1.84167 3.62275 1.775C3.63942 1.75833 3.66442 1.76667 3.69775 1.8C3.73109 1.85 3.77275 1.875 3.82275 1.875C3.85609 1.89167 3.88942 1.9 3.92275 1.9C3.97275 1.9 4.02275 1.91667 4.07275 1.95C4.10609 1.96667 4.13942 1.99167 4.17275 2.025C4.22275 2.05833 4.25609 2.10833 4.27275 2.175L4.34775 2.25C4.39775 2.26667 4.43942 2.30833 4.47275 2.375C4.48942 2.44167 4.54775 2.475 4.64775 2.475C4.69775 2.475 4.77275 2.45833 4.87275 2.425C5.05609 2.39167 5.23109 2.35833 5.39775 2.325C5.58109 2.29167 5.75609 2.26667 5.92275 2.25C5.97275 2.23333 6.03109 2.225 6.09775 2.225C6.43109 2.20833 6.76442 2.175 7.09775 2.125C7.43109 2.075 7.75609 2.01667 8.07275 1.95L8.19775 1.9C8.53109 1.85 8.84775 1.75 9.14775 1.6C9.26442 1.53333 9.38942 1.475 9.52275 1.425C9.65609 1.375 9.78109 1.325 9.89775 1.275L10.7478 0.975C10.8644 0.941666 10.9394 0.908332 10.9728 0.874999C11.0728 0.791666 11.1644 0.733333 11.2478 0.699999C11.4644 0.566666 11.7061 0.483333 11.9728 0.449999C12.1228 0.449999 12.2728 0.474999 12.4228 0.524999C12.6561 0.624999 12.8728 0.783332 13.0728 0.999999C13.1228 1.08333 13.1394 1.175 13.1228 1.275C13.0728 1.375 13.0728 1.48333 13.1228 1.6C13.1394 1.7 13.1394 1.78333 13.1228 1.85C13.1061 1.91667 13.0978 1.98333 13.0978 2.05C13.0978 2.11667 13.0894 2.18333 13.0728 2.25C13.0728 2.33333 13.0478 2.4 12.9978 2.45C12.8811 2.61667 12.7644 2.74167 12.6478 2.825C12.6311 2.84167 12.6144 2.85833 12.5978 2.875C12.5978 2.89167 12.5811 2.91667 12.5478 2.95C12.5311 2.96667 12.5144 2.98333 12.4978 3C12.4978 3.01667 12.4811 3.04167 12.4478 3.075C12.3644 3.14167 12.2894 3.21667 12.2228 3.3C12.1728 3.38333 12.1144 3.46667 12.0478 3.55C11.9811 3.66667 11.8978 3.78333 11.7978 3.9C11.7144 4 11.6144 4.09167 11.4978 4.175L11.2978 4.4C11.1978 4.53333 11.1394 4.65833 11.1228 4.775C11.0894 4.925 11.0561 5.075 11.0228 5.225C11.0061 5.35833 10.9978 5.5 10.9978 5.65L10.9228 6.175C10.9228 6.24167 10.9061 6.30833 10.8728 6.375C10.8061 6.54167 10.6728 6.625 10.4728 6.625C10.4561 6.64167 10.4311 6.65 10.3978 6.65C10.3811 6.63333 10.3644 6.625 10.3478 6.625C10.1978 6.54167 10.0978 6.43333 10.0478 6.3C9.98109 6.08333 9.93109 5.84167 9.89775 5.575C9.89775 5.49167 9.88942 5.40833 9.87275 5.325C9.87275 5.225 9.86442 5.13333 9.84775 5.05L9.77275 4.875C9.73942 4.75833 9.67275 4.73333 9.57275 4.8C9.55609 4.8 9.53109 4.80833 9.49775 4.825C9.48109 4.84167 9.45609 4.85833 9.42275 4.875C9.35609 4.90833 9.28942 4.95 9.22275 5C9.17275 5.03333 9.12275 5.075 9.07275 5.125C8.92275 5.20833 8.73942 5.29167 8.52275 5.375C8.22275 5.475 7.94775 5.625 7.69775 5.825C7.66442 5.84167 7.62275 5.86667 7.57275 5.9C7.53942 5.93333 7.49775 5.96667 7.44775 6C7.39775 6.03333 7.34775 6.06667 7.29775 6.1C7.24775 6.13333 7.18942 6.16667 7.12275 6.2L6.94775 6.3C6.89775 6.33333 6.83942 6.4 6.77275 6.5C6.75609 6.58333 6.73109 6.675 6.69775 6.775C6.68109 6.85833 6.67275 6.95 6.67275 7.05C6.67275 7.2 6.66442 7.35 6.64775 7.5C6.64775 7.65 6.65609 7.8 6.67275 7.95C6.67275 8.03333 6.67275 8.125 6.67275 8.225C6.67275 8.30833 6.65609 8.39167 6.62275 8.475C6.58942 8.59167 6.63109 8.63333 6.74775 8.6C6.83109 8.6 6.89775 8.59167 6.94775 8.575C7.13109 8.54167 7.31442 8.51667 7.49775 8.5C7.69775 8.46667 7.88109 8.43333 8.04775 8.4L8.59775 8.325C8.68109 8.30833 8.74775 8.29167 8.79775 8.275C8.86442 8.25833 8.93109 8.23333 8.99775 8.2C9.09775 8.13333 9.19775 8.09167 9.29775 8.075C9.39775 8.05833 9.49775 8.04167 9.59775 8.025C9.81442 7.975 10.0311 8.01667 10.2478 8.15L10.5728 8.375C10.6394 8.44167 10.6728 8.50833 10.6728 8.575C10.7061 8.69167 10.7478 8.75 10.7978 8.75C10.8478 8.73333 10.8811 8.73333 10.8978 8.75C10.9478 8.81667 10.9894 8.89167 11.0228 8.975C11.0728 9.04167 11.1061 9.11667 11.1228 9.2C11.1228 9.26667 11.0978 9.30833 11.0478 9.325C10.9811 9.325 10.9311 9.35 10.8978 9.4C10.8644 9.45 10.8311 9.5 10.7978 9.55C10.7811 9.56667 10.7728 9.58333 10.7728 9.6C10.7894 9.61667 10.7978 9.63333 10.7978 9.65C10.8311 9.7 10.8311 9.75833 10.7978 9.825C10.7811 9.85833 10.7644 9.9 10.7478 9.95C10.7311 9.98333 10.7144 10.0167 10.6978 10.05C10.6311 10.2 10.5311 10.325 10.3978 10.425C10.3311 10.4917 10.2728 10.5417 10.2228 10.575C10.0894 10.6583 9.96442 10.8083 9.84775 11.025C9.83109 11.0583 9.81442 11.1 9.79775 11.15C9.78109 11.1833 9.75609 11.225 9.72275 11.275C9.67275 11.3417 9.59775 11.3917 9.49775 11.425C9.33109 11.4583 9.19775 11.45 9.09775 11.4L8.94775 11.325C8.84775 11.2917 8.76442 11.3 8.69775 11.35C8.68109 11.3667 8.63942 11.3917 8.57275 11.425C8.42275 11.4917 8.25609 11.5 8.07275 11.45C7.98942 11.4167 7.89775 11.375 7.79775 11.325C7.71442 11.275 7.63109 11.2333 7.54775 11.2C7.51442 11.1833 7.48109 11.1583 7.44775 11.125C7.38109 11.075 7.30609 11.0667 7.22275 11.1C7.12275 11.1167 7.02275 11.1417 6.92275 11.175C6.82275 11.1917 6.72275 11.2167 6.62275 11.25C6.47275 11.2667 6.30609 11.3167 6.12275 11.4C6.07275 11.4 6.02275 11.425 5.97275 11.475C5.88942 11.5417 5.85609 11.6167 5.87275 11.7V11.75C5.92275 11.9 5.95609 12.05 5.97275 12.2C6.00609 12.35 6.03109 12.5 6.04775 12.65L6.19775 13.7C6.19775 13.7167 6.19775 13.7333 6.19775 13.75C6.21442 13.75 6.22275 13.75 6.22275 13.75C6.22275 13.9333 6.23109 14.1167 6.24775 14.3C6.26442 14.4833 6.27275 14.6667 6.27275 14.85C6.27275 15.0667 6.27275 15.275 6.27275 15.475C6.28942 15.675 6.29775 15.875 6.29775 16.075V16.375C6.33109 16.4417 6.38109 16.475 6.44775 16.475L6.77275 16.4C6.85609 16.3833 6.93109 16.3667 6.99775 16.35C7.08109 16.3333 7.15609 16.3167 7.22275 16.3L7.67275 16.225C7.77275 16.225 7.84775 16.2167 7.89775 16.2C8.11442 16.1667 8.33109 16.125 8.54775 16.075C8.76442 16.025 8.98109 15.9833 9.19775 15.95C9.29775 15.9333 9.39775 15.9167 9.49775 15.9C9.61442 15.8833 9.73109 15.8667 9.84775 15.85C10.0311 15.8333 10.2061 15.8167 10.3728 15.8C10.5561 15.7667 10.7311 15.7417 10.8978 15.725C10.9811 15.7083 11.0561 15.7 11.1228 15.7C11.2061 15.6833 11.2811 15.675 11.3478 15.675C11.4478 15.6417 11.5228 15.6083 11.5728 15.575C11.6061 15.5417 11.6394 15.5167 11.6728 15.5C11.7228 15.4833 11.7561 15.4667 11.7728 15.45C11.9228 15.3167 12.0894 15.2667 12.2728 15.3C12.3228 15.3 12.3644 15.2917 12.3978 15.275C12.4311 15.275 12.4728 15.275 12.5228 15.275C12.5728 15.275 12.6144 15.2833 12.6478 15.3C12.7311 15.3333 12.8061 15.3667 12.8728 15.4C12.9394 15.4167 13.0061 15.45 13.0728 15.5C13.0894 15.5167 13.1061 15.525 13.1228 15.525C13.2561 15.6083 13.3894 15.6167 13.5228 15.55C13.5728 15.5167 13.6311 15.4917 13.6978 15.475C13.7644 15.4417 13.8311 15.4167 13.8978 15.4C14.0644 15.35 14.2311 15.35 14.3978 15.4C14.4478 15.4167 14.4978 15.4333 14.5478 15.45C14.6144 15.4667 14.6644 15.4917 14.6978 15.525C14.7978 15.575 14.8894 15.6583 14.9728 15.775C15.1228 15.9917 15.2228 16.2167 15.2728 16.45C15.3061 16.5 15.3061 16.55 15.2728 16.6C15.2561 16.65 15.2394 16.7 15.2228 16.75C15.2061 16.7833 15.1894 16.825 15.1728 16.875C15.1561 16.9083 15.1394 16.95 15.1228 17C15.1061 17.0333 15.0894 17.0667 15.0728 17.1C15.0728 17.1667 15.0394 17.2167 14.9728 17.25C14.9061 17.2667 14.8561 17.3167 14.8228 17.4C14.7894 17.4667 14.7478 17.4833 14.6978 17.45C14.6311 17.45 14.5894 17.4583 14.5728 17.475C14.4894 17.5417 14.3978 17.5917 14.2978 17.625C14.1978 17.6583 14.0978 17.6917 13.9978 17.725C13.8144 17.7583 13.6311 17.8083 13.4478 17.875C13.2644 17.925 13.0811 17.975 12.8978 18.025C12.7978 18.0583 12.7228 18.075 12.6728 18.075C12.5728 18.0917 12.4728 18.1167 12.3728 18.15C12.2894 18.1667 12.2061 18.1917 12.1228 18.225C12.1061 18.2417 12.0811 18.25 12.0478 18.25C12.0311 18.25 12.0061 18.2583 11.9728 18.275C11.8561 18.2917 11.7311 18.3167 11.5978 18.35C11.4811 18.3833 11.3644 18.425 11.2478 18.475C11.1978 18.5083 11.1228 18.525 11.0228 18.525C10.8894 18.525 10.7478 18.55 10.5978 18.6C10.4311 18.6333 10.2644 18.6667 10.0978 18.7C9.93109 18.7167 9.75609 18.7417 9.57275 18.775L9.04775 18.85C8.83109 18.9 8.63942 18.9583 8.47275 19.025C8.43942 19.0417 8.39775 19.0583 8.34775 19.075C8.29775 19.0917 8.25609 19.1083 8.22275 19.125C7.87275 19.1917 7.54775 19.3167 7.24775 19.5L7.04775 19.575C6.91442 19.5917 6.78109 19.6333 6.64775 19.7C6.53109 19.7667 6.40609 19.8333 6.27275 19.9C6.17275 19.9667 6.10609 20.0167 6.07275 20.05C6.03942 20.0833 6.00609 20.1333 5.97275 20.2C5.88942 20.4 5.84775 20.575 5.84775 20.725C5.86442 20.8417 5.87275 20.95 5.87275 21.05C5.87275 21.1667 5.88109 21.2917 5.89775 21.425C5.93109 21.625 5.92275 21.8083 5.87275 21.975C5.87275 22.0417 5.85609 22.125 5.82275 22.225C5.75609 22.325 5.68942 22.3917 5.62275 22.425ZM5.62275 8.825C5.68942 8.79167 5.72275 8.74167 5.72275 8.675C5.70609 8.64167 5.69775 8.60833 5.69775 8.575C5.69775 8.525 5.68942 8.48333 5.67275 8.45C5.58942 8.23333 5.54775 8.04167 5.54775 7.875C5.54775 7.84167 5.53942 7.81667 5.52275 7.8C5.52275 7.78333 5.52275 7.76667 5.52275 7.75C5.48942 7.71667 5.47275 7.7 5.47275 7.7V7.75C5.45609 7.83333 5.43942 7.925 5.42275 8.025C5.42275 8.125 5.42275 8.225 5.42275 8.325V8.725C5.45609 8.775 5.48942 8.8 5.52275 8.8C5.53942 8.81667 5.57275 8.825 5.62275 8.825ZM19.4493 19.075C19.316 19.125 19.166 19.1083 18.9993 19.025L18.4993 18.8C18.416 18.7667 18.3493 18.6917 18.2993 18.575L18.2243 18.425C18.191 18.3417 18.1493 18.2833 18.0993 18.25C18.016 18.1833 17.9576 18.0667 17.9243 17.9C17.891 17.7333 17.866 17.5667 17.8493 17.4C17.8326 17.2333 17.816 17.0667 17.7993 16.9C17.7826 16.7667 17.7743 16.6333 17.7743 16.5C17.7743 16.3667 17.7743 16.2417 17.7743 16.125L17.7993 15.95C17.8326 15.8667 17.8493 15.7833 17.8493 15.7C17.8493 15.6167 17.8493 15.5417 17.8493 15.475V10.925C17.8826 10.6917 17.8993 10.4583 17.8993 10.225C17.8993 9.975 17.8993 9.73333 17.8993 9.5C17.916 9.26667 17.9243 9.04167 17.9243 8.825C17.9243 8.59167 17.9076 8.36667 17.8743 8.15C17.8576 8.06667 17.8493 7.975 17.8493 7.875C17.8493 7.775 17.8493 7.675 17.8493 7.575C17.8493 7.425 17.8493 7.275 17.8493 7.125C17.8493 6.975 17.8326 6.825 17.7993 6.675V6.6C17.7993 6.36667 17.7826 6.14167 17.7493 5.925C17.7326 5.69167 17.716 5.46667 17.6993 5.25C17.6826 5.11667 17.666 4.99167 17.6493 4.875C17.6326 4.75833 17.6076 4.64167 17.5743 4.525C17.5576 4.45833 17.5493 4.39167 17.5493 4.325C17.5493 4.25833 17.5493 4.19167 17.5493 4.125C17.5493 4.00833 17.566 3.9 17.5993 3.8C17.6326 3.68333 17.666 3.575 17.6993 3.475C17.716 3.44167 17.7576 3.39167 17.8243 3.325C17.8576 3.29167 17.891 3.26667 17.9243 3.25C17.9576 3.23333 17.9826 3.21667 17.9993 3.2C18.0993 3.06667 18.2326 3.00833 18.3993 3.025C18.4326 3.04167 18.4826 3.03333 18.5493 3C18.6326 2.93333 18.7076 2.925 18.7743 2.975C18.8243 3.00833 18.9076 3.00833 19.0243 2.975C19.0743 2.975 19.116 2.99167 19.1493 3.025C19.1993 3.09167 19.266 3.14167 19.3493 3.175C19.4326 3.20833 19.491 3.25833 19.5243 3.325C19.5743 3.375 19.6243 3.425 19.6743 3.475C19.7076 3.525 19.741 3.575 19.7743 3.625C19.8243 3.65833 19.8493 3.70833 19.8493 3.775C19.866 3.84167 19.866 3.90833 19.8493 3.975C19.8493 4.025 19.8493 4.08333 19.8493 4.15C19.8493 4.3 19.8576 4.45833 19.8743 4.625C19.9076 4.775 19.9326 4.925 19.9493 5.075C19.9826 5.24167 20.0077 5.41667 20.0243 5.6C20.041 5.76667 20.0576 5.94167 20.0743 6.125V6.375C20.1076 6.49167 20.1243 6.60833 20.1243 6.725C20.1243 6.84167 20.1326 6.95833 20.1493 7.075V7.1C20.166 7.3 20.1827 7.5 20.1993 7.7C20.216 7.9 20.2326 8.1 20.2493 8.3C20.266 8.38333 20.2743 8.475 20.2743 8.575C20.2743 8.65833 20.2743 8.74167 20.2743 8.825V15.475C20.2743 15.625 20.2826 15.775 20.2993 15.925C20.3326 16.075 20.3577 16.2167 20.3743 16.35C20.3743 16.4333 20.4243 16.475 20.5243 16.475C20.6743 16.5083 20.816 16.5083 20.9493 16.475C21.1326 16.4417 21.3076 16.425 21.4743 16.425C21.6576 16.425 21.841 16.425 22.0243 16.425C22.2076 16.425 22.3826 16.425 22.5493 16.425C22.7327 16.4083 22.9077 16.3917 23.0743 16.375H23.3493C23.4826 16.3917 23.5993 16.4083 23.6993 16.425C23.816 16.425 23.9327 16.425 24.0493 16.425C24.2327 16.425 24.416 16.4333 24.5993 16.45C24.7993 16.45 24.991 16.4583 25.1743 16.475C25.3077 16.4917 25.441 16.5 25.5743 16.5C25.7243 16.5 25.8743 16.5 26.0243 16.5H26.1493C26.4827 16.4833 26.7827 16.5667 27.0493 16.75C27.166 16.8 27.2493 16.8833 27.2993 17C27.3326 17.0667 27.3577 17.1333 27.3743 17.2C27.4077 17.25 27.4327 17.3167 27.4493 17.4C27.466 17.4667 27.4743 17.5333 27.4743 17.6C27.491 17.65 27.5077 17.7083 27.5243 17.775C27.5743 17.925 27.5577 18.0917 27.4743 18.275C27.4577 18.325 27.441 18.375 27.4243 18.425C27.4077 18.475 27.3827 18.525 27.3493 18.575C27.316 18.625 27.2743 18.6667 27.2243 18.7C27.2243 18.7 27.191 18.7167 27.1243 18.75C26.991 18.8667 26.841 18.9417 26.6743 18.975C26.5243 19.0083 26.3577 19.0417 26.1743 19.075L25.9243 19.05C25.6743 18.9667 25.4243 18.9167 25.1743 18.9C25.1077 18.8833 25.0327 18.875 24.9493 18.875C24.866 18.8583 24.7827 18.85 24.6993 18.85C24.5826 18.85 24.466 18.85 24.3493 18.85C24.2326 18.8333 24.1077 18.8167 23.9743 18.8L23.7243 18.775C23.5743 18.7917 23.4243 18.8 23.2743 18.8C23.1243 18.7833 22.9743 18.7833 22.8243 18.8C22.7577 18.8 22.691 18.8 22.6243 18.8C22.5576 18.7833 22.491 18.775 22.4243 18.775C22.291 18.775 22.1577 18.775 22.0243 18.775C21.9077 18.775 21.7827 18.7917 21.6493 18.825C21.5826 18.8417 21.4993 18.8583 21.3993 18.875C21.316 18.875 21.2327 18.875 21.1493 18.875C20.8993 18.8917 20.6493 18.9167 20.3993 18.95C20.1493 18.9667 19.9076 19 19.6743 19.05C19.6243 19.0667 19.5493 19.075 19.4493 19.075ZM31.5366 19.25C31.4366 19.25 31.37 19.2417 31.3366 19.225C31.27 19.1917 31.2116 19.1667 31.1616 19.15C31.1116 19.1333 31.0616 19.1167 31.0116 19.1C30.9616 19.0667 30.9116 19.0333 30.8616 19C30.8283 18.95 30.795 18.9 30.7616 18.85C30.7283 18.8167 30.695 18.8 30.6616 18.8C30.5616 18.8 30.5116 18.75 30.5116 18.65C30.495 18.55 30.4783 18.45 30.4616 18.35C30.445 18.25 30.4283 18.15 30.4116 18.05C30.395 17.9 30.3783 17.75 30.3616 17.6C30.3616 17.45 30.345 17.3083 30.3116 17.175V16.95C30.3116 16.8833 30.3033 16.825 30.2866 16.775C30.2866 16.725 30.2866 16.6667 30.2866 16.6C30.2533 16.5167 30.2533 16.45 30.2866 16.4C30.32 16.1 30.32 15.8 30.2866 15.5C30.27 15.4167 30.2616 15.3333 30.2616 15.25C30.2616 15.1667 30.2533 15.0833 30.2366 15C30.2366 14.8333 30.2366 14.6667 30.2366 14.5C30.2366 14.3167 30.22 14.1417 30.1866 13.975V13.575C30.1866 13.4417 30.1783 13.3167 30.1616 13.2C30.1616 13.0833 30.1533 12.9667 30.1366 12.85C30.12 12.7 30.1033 12.55 30.0866 12.4C30.0866 12.25 30.0783 12.1 30.0616 11.95C30.045 11.9167 30.0366 11.8583 30.0366 11.775C30.02 11.6917 30.0033 11.6083 29.9866 11.525C29.9866 11.425 29.9866 11.3333 29.9866 11.25L29.9116 10C29.895 9.86667 29.8783 9.74167 29.8616 9.625C29.8616 9.49167 29.8616 9.36667 29.8616 9.25C29.845 9.05 29.8283 8.85 29.8116 8.65C29.795 8.45 29.7783 8.25833 29.7616 8.075C29.7616 8.04167 29.7533 8.00833 29.7366 7.975C29.7366 7.94167 29.7366 7.91667 29.7366 7.9C29.7366 7.7 29.7283 7.5 29.7116 7.3C29.695 7.1 29.6783 6.89167 29.6616 6.675L29.5866 5.975C29.5366 5.70833 29.5283 5.41667 29.5616 5.1C29.5616 4.95 29.62 4.825 29.7366 4.725C29.77 4.69167 29.795 4.675 29.8116 4.675C29.8283 4.65833 29.845 4.64167 29.8616 4.625C29.945 4.60833 29.9866 4.55 29.9866 4.45C29.9866 4.41667 30.02 4.4 30.0866 4.4H30.2116C30.2283 4.4 30.2366 4.4 30.2366 4.4C30.2533 4.38333 30.27 4.375 30.2866 4.375C30.32 4.35833 30.345 4.34167 30.3616 4.325C30.395 4.29167 30.42 4.275 30.4366 4.275C30.47 4.275 30.5033 4.28333 30.5366 4.3C30.57 4.3 30.6033 4.30833 30.6366 4.325C30.67 4.325 30.695 4.31667 30.7116 4.3C30.795 4.28333 30.8783 4.29167 30.9616 4.325C31.0616 4.34167 31.145 4.36667 31.2116 4.4C31.3116 4.41667 31.3866 4.48333 31.4366 4.6C31.4866 4.75 31.5283 4.9 31.5616 5.05C31.6116 5.18333 31.645 5.325 31.6616 5.475V5.675C31.695 5.79167 31.7116 5.91667 31.7116 6.05C31.7116 6.16667 31.7116 6.29167 31.7116 6.425C31.7116 6.54167 31.7116 6.65833 31.7116 6.775C31.7283 6.875 31.745 6.975 31.7616 7.075C31.7616 7.125 31.7616 7.175 31.7616 7.225C31.7616 7.275 31.77 7.325 31.7866 7.375C31.7866 7.475 31.7866 7.575 31.7866 7.675C31.8033 7.775 31.82 7.88333 31.8366 8C31.8533 8.18333 31.87 8.375 31.8866 8.575C31.9033 8.775 31.9116 8.975 31.9116 9.175C31.9116 9.25833 31.9116 9.35 31.9116 9.45C31.9116 9.53333 31.92 9.61667 31.9366 9.7C31.9533 9.75 31.9616 9.8 31.9616 9.85C31.9616 9.9 31.9616 9.95 31.9616 10V10.5C31.9616 10.6 31.97 10.6833 31.9866 10.75C32.02 10.8667 32.0283 10.9833 32.0116 11.1C32.0116 11.2 32.02 11.3083 32.0366 11.425L32.1116 12.575C32.1283 12.7417 32.1366 12.9167 32.1366 13.1C32.1533 13.2667 32.1616 13.4417 32.1616 13.625C32.1616 13.6917 32.1616 13.7667 32.1616 13.85C32.1616 13.9167 32.17 13.9833 32.1866 14.05C32.2033 14.1 32.2116 14.15 32.2116 14.2C32.2116 14.25 32.2116 14.3 32.2116 14.35C32.2283 14.3667 32.2283 14.4 32.2116 14.45C32.2116 14.4833 32.22 14.5167 32.2366 14.55C32.27 14.6667 32.2866 14.7833 32.2866 14.9C32.2866 15.0167 32.2866 15.1417 32.2866 15.275C32.2866 15.3417 32.2866 15.4167 32.2866 15.5C32.3033 15.5667 32.3116 15.6417 32.3116 15.725C32.3283 15.8083 32.3366 15.9 32.3366 16C32.3366 16.1 32.3366 16.1917 32.3366 16.275C32.3533 16.3583 32.3616 16.45 32.3616 16.55C32.3616 16.6333 32.37 16.7167 32.3866 16.8C32.4033 16.8333 32.4116 16.8667 32.4116 16.9C32.4116 17.0833 32.4283 17.2667 32.4616 17.45C32.495 17.6333 32.5283 17.8167 32.5616 18C32.5783 18.05 32.5866 18.1083 32.5866 18.175C32.5866 18.225 32.5866 18.275 32.5866 18.325C32.5866 18.375 32.57 18.4167 32.5366 18.45C32.47 18.5 32.42 18.6 32.3866 18.75C32.3866 18.8 32.3616 18.8417 32.3116 18.875C32.195 18.925 32.095 18.9917 32.0116 19.075C31.8783 19.1917 31.72 19.25 31.5366 19.25ZM39.0177 20.225L38.5927 20.15C38.376 20.1167 38.151 20.0833 37.9177 20.05C37.701 20.0167 37.476 19.9917 37.2427 19.975C37.0093 19.975 36.776 19.9083 36.5427 19.775C36.326 19.6583 36.176 19.475 36.0927 19.225C36.076 19.1417 36.051 19.0583 36.0177 18.975C36.001 18.8917 35.9843 18.8083 35.9677 18.725C35.9677 18.525 36.0093 18.375 36.0927 18.275C36.176 18.1917 36.2427 18.1083 36.2927 18.025C36.3593 17.9417 36.426 17.8667 36.4927 17.8C36.526 17.7667 36.5593 17.7417 36.5927 17.725C36.626 17.7083 36.6593 17.6917 36.6927 17.675C36.776 17.625 36.8593 17.5917 36.9427 17.575C37.026 17.5417 37.1093 17.5167 37.1927 17.5C37.226 17.4833 37.251 17.4833 37.2677 17.5C37.301 17.5 37.326 17.5 37.3427 17.5C37.426 17.5167 37.5177 17.5333 37.6177 17.55C37.7177 17.55 37.8093 17.5667 37.8927 17.6L38.9427 17.75C39.176 17.7833 39.3843 17.75 39.5677 17.65C39.6343 17.6167 39.6927 17.5833 39.7427 17.55C39.8093 17.5167 39.8677 17.4833 39.9177 17.45C40.2843 17.2333 40.601 17.0083 40.8677 16.775C41.0677 16.5917 41.2593 16.4083 41.4427 16.225C41.626 16.0417 41.7927 15.8417 41.9427 15.625C42.0593 15.475 42.1343 15.325 42.1677 15.175C42.201 15.0083 42.2093 14.8417 42.1927 14.675L42.1177 14.475C42.101 14.3917 42.0677 14.325 42.0177 14.275C41.9677 14.225 41.9177 14.1667 41.8677 14.1C41.7677 14.0167 41.6677 13.925 41.5677 13.825C41.4843 13.725 41.3927 13.6417 41.2927 13.575C41.0427 13.375 40.7927 13.1833 40.5427 13C40.3093 12.8167 40.0677 12.6333 39.8177 12.45C39.801 12.4167 39.751 12.3833 39.6677 12.35C39.5177 12.25 39.3677 12.1417 39.2177 12.025C39.0843 11.8917 38.951 11.7667 38.8177 11.65C38.651 11.4833 38.4677 11.325 38.2677 11.175C38.1677 11.125 38.076 11.0417 37.9927 10.925C37.926 10.8417 37.826 10.7583 37.6927 10.675C37.576 10.6083 37.4677 10.5333 37.3677 10.45C37.2677 10.35 37.1677 10.2583 37.0677 10.175L36.7427 9.875C36.676 9.79167 36.601 9.71667 36.5177 9.65C36.451 9.56667 36.376 9.48333 36.2927 9.4C36.2593 9.31667 36.2093 9.25 36.1427 9.2C36.0927 9.15 36.0427 9.09167 35.9927 9.025C35.976 8.99167 35.951 8.95833 35.9177 8.925C35.8843 8.875 35.8593 8.825 35.8427 8.775C35.7427 8.575 35.6343 8.375 35.5177 8.175C35.4177 7.975 35.326 7.76667 35.2427 7.55C35.1927 7.41667 35.1427 7.29167 35.0927 7.175C35.0593 7.04167 35.026 6.91667 34.9927 6.8C34.976 6.66667 34.9427 6.55 34.8927 6.45C34.8593 6.33333 34.826 6.21667 34.7927 6.1C34.7593 5.91667 34.7177 5.74167 34.6677 5.575C34.6343 5.39167 34.601 5.21667 34.5677 5.05L34.5177 4.85C34.501 4.66667 34.501 4.49167 34.5177 4.325C34.551 4.09167 34.601 3.88333 34.6677 3.7C34.7343 3.5 34.8427 3.34167 34.9927 3.225C35.1593 3.09167 35.326 2.95833 35.4927 2.825C35.6593 2.69167 35.8343 2.58333 36.0177 2.5C36.051 2.5 36.076 2.49167 36.0927 2.475C36.2593 2.34167 36.4427 2.25 36.6427 2.2C36.8427 2.13333 37.0427 2.075 37.2427 2.025C38.0427 1.79167 38.8677 1.61667 39.7177 1.5H39.9677C40.1343 1.5 40.2927 1.5 40.4427 1.5C40.5927 1.5 40.751 1.49167 40.9177 1.475C41.1177 1.475 41.3177 1.5 41.5177 1.55C41.7177 1.58333 41.9093 1.64167 42.0927 1.725C42.226 1.79167 42.3593 1.86667 42.4927 1.95C42.626 2.01667 42.751 2.09167 42.8677 2.175C43.001 2.275 43.0843 2.38333 43.1177 2.5L43.1927 2.675C43.276 2.825 43.3177 2.98333 43.3177 3.15C43.3343 3.3 43.326 3.45833 43.2927 3.625C43.2927 3.675 43.2843 3.73333 43.2677 3.8C43.2677 3.85 43.2677 3.9 43.2677 3.95C43.2177 4.31667 43.0427 4.6 42.7427 4.8C42.5593 4.96667 42.3177 5.03333 42.0177 5C41.951 4.96667 41.9177 4.98333 41.9177 5.05C41.9177 5.11667 41.876 5.15 41.7927 5.15H41.6427C41.5427 5.15 41.4427 5.1 41.3427 5C41.2593 4.91667 41.2177 4.85 41.2177 4.8C41.2177 4.73333 41.251 4.68333 41.3177 4.65C41.2843 4.56667 41.251 4.49167 41.2177 4.425C41.1843 4.35833 41.151 4.30833 41.1177 4.275C41.0677 4.19167 40.9927 4.13333 40.8927 4.1C40.8093 4.08333 40.726 4.06667 40.6427 4.05C40.5593 4.03333 40.476 4.01667 40.3927 4C40.326 4 40.251 4 40.1677 4C40.0843 3.98333 40.001 3.96667 39.9177 3.95C39.8677 3.93333 39.7927 3.94167 39.6927 3.975C39.6427 3.99167 39.5927 4.00833 39.5427 4.025C39.4927 4.025 39.4343 4.01667 39.3677 4C39.3177 4 39.2593 4 39.1927 4C39.1427 4 39.0843 4.01667 39.0177 4.05L38.5427 4.125C38.276 4.175 38.0177 4.275 37.7677 4.425C37.7177 4.44167 37.6677 4.45833 37.6177 4.475C37.5677 4.49167 37.5177 4.49167 37.4677 4.475C37.3677 4.45833 37.2843 4.48333 37.2177 4.55C37.201 4.58333 37.1593 4.60833 37.0927 4.625C37.0427 4.625 37.001 4.64167 36.9677 4.675C36.901 4.74167 36.8677 4.80833 36.8677 4.875C36.8843 4.90833 36.8927 4.95833 36.8927 5.025L37.4177 6.55C37.5177 6.81667 37.6427 7.06667 37.7927 7.3C37.9593 7.51667 38.1343 7.73333 38.3177 7.95C38.601 8.28333 38.8927 8.56667 39.1927 8.8L39.9927 9.475C40.1593 9.625 40.3343 9.76667 40.5177 9.9C40.701 10.0333 40.876 10.1667 41.0427 10.3C41.2927 10.4833 41.5427 10.675 41.7927 10.875C42.0427 11.0583 42.2927 11.25 42.5427 11.45C42.7427 11.6167 42.9343 11.7833 43.1177 11.95C43.3177 12.1 43.501 12.2667 43.6677 12.45C43.7843 12.5833 43.901 12.7167 44.0177 12.85C44.1343 12.9833 44.2343 13.1333 44.3177 13.3C44.4343 13.4833 44.5343 13.7 44.6177 13.95C44.7177 14.2667 44.7593 14.5667 44.7427 14.85C44.726 14.8833 44.7177 14.9333 44.7177 15C44.7177 15.2 44.6927 15.3917 44.6427 15.575C44.6093 15.7417 44.551 15.9167 44.4677 16.1C44.3843 16.2667 44.2927 16.4417 44.1927 16.625C44.1093 16.7917 44.0093 16.9583 43.8927 17.125C43.726 17.3417 43.551 17.55 43.3677 17.75C43.201 17.9333 43.0093 18.1167 42.7927 18.3C42.676 18.4 42.5593 18.5083 42.4427 18.625C42.326 18.725 42.201 18.8167 42.0677 18.9C41.9843 18.9667 41.901 19.025 41.8177 19.075C41.7343 19.1417 41.651 19.2083 41.5677 19.275C41.501 19.3083 41.4343 19.35 41.3677 19.4C41.301 19.45 41.2343 19.5 41.1677 19.55C41.101 19.6167 41.0177 19.6667 40.9177 19.7C40.8343 19.75 40.751 19.7917 40.6677 19.825L39.9427 20.125C39.7927 20.175 39.6427 20.2083 39.4927 20.225C39.3427 20.2417 39.1843 20.2417 39.0177 20.225ZM68.7583 28.425L68.4333 28.125C68.4 28.0917 68.3833 28.0583 68.3833 28.025L68.3083 27.775C68.3083 27.6417 68.2833 27.5 68.2333 27.35C68.2166 27.3167 68.2083 27.275 68.2083 27.225C68.2083 27.175 68.2 27.1333 68.1833 27.1C68.1833 26.9667 68.175 26.8333 68.1583 26.7C68.1416 26.5833 68.1166 26.4667 68.0833 26.35V26.25C68.0666 26.0167 68.0416 25.775 68.0083 25.525C67.975 25.2917 67.9583 25.0583 67.9583 24.825V24.475C67.9583 24.425 67.9583 24.375 67.9583 24.325C67.975 24.275 67.975 24.2167 67.9583 24.15C67.9583 24.05 67.95 23.9333 67.9333 23.8C67.9333 23.6833 67.9333 23.5667 67.9333 23.45C67.9333 23.3667 67.9333 23.275 67.9333 23.175C67.9333 23.075 67.925 22.9833 67.9083 22.9C67.8916 22.7333 67.875 22.5667 67.8583 22.4C67.8416 22.2333 67.825 22.0667 67.8083 21.9C67.7916 21.7333 67.775 21.5667 67.7583 21.4C67.7583 21.2333 67.7583 21.0667 67.7583 20.9C67.725 20.7667 67.7 20.6417 67.6833 20.525C67.6666 20.4083 67.6416 20.2917 67.6083 20.175C67.575 20.025 67.5166 19.9083 67.4333 19.825C67.3666 19.7417 67.3 19.6583 67.2333 19.575C67.1833 19.5083 67.1416 19.4333 67.1083 19.35C67.075 19.2833 67.0416 19.2333 67.0083 19.2C66.925 19.1167 66.8416 19.025 66.7583 18.925C66.6916 18.8083 66.6166 18.7 66.5333 18.6C66.45 18.45 66.3583 18.3167 66.2583 18.2C66.2083 18.1167 66.15 18.0417 66.0833 17.975C66.0333 17.8917 65.9916 17.8167 65.9583 17.75C65.925 17.6667 65.875 17.6 65.8083 17.55C65.7583 17.4833 65.7083 17.425 65.6583 17.375L64.7083 16.325C64.5583 16.1583 64.4166 15.9917 64.2833 15.825C64.25 15.7417 64.2083 15.675 64.1583 15.625C64.1083 15.575 64.05 15.5167 63.9833 15.45L63.3833 14.825C63.3333 14.7583 63.275 14.7083 63.2083 14.675C63.1583 14.625 63.1 14.5833 63.0333 14.55C62.9 14.4833 62.7666 14.3833 62.6333 14.25C62.6333 14.2333 62.6166 14.2083 62.5833 14.175C62.4833 14.1083 62.3833 14.0333 62.2833 13.95C62.2 13.8667 62.1166 13.7833 62.0333 13.7C61.9333 13.6 61.8583 13.5333 61.8083 13.5C61.675 13.3667 61.5333 13.2417 61.3833 13.125C61.25 13.0083 61.1166 12.8833 60.9833 12.75C60.9166 12.6833 60.85 12.625 60.7833 12.575C60.7333 12.5083 60.6833 12.4417 60.6333 12.375L60.4833 12.225C60.4833 12.225 60.475 12.225 60.4583 12.225C60.4583 12.225 60.4583 12.2333 60.4583 12.25L60.4333 12.275V12.3C60.5166 12.6333 60.575 13 60.6083 13.4C60.6083 13.45 60.6166 13.4833 60.6333 13.5C60.6833 13.6667 60.7 13.8333 60.6833 14C60.6833 14.15 60.6666 14.3083 60.6333 14.475C60.6 14.6083 60.625 14.7167 60.7083 14.8C60.7416 14.8333 60.7416 14.8667 60.7083 14.9C60.7083 14.9833 60.7083 15.025 60.7083 15.025C60.725 15.1083 60.7333 15.1917 60.7333 15.275C60.7333 15.3583 60.7333 15.4417 60.7333 15.525C60.7333 15.6417 60.7416 15.725 60.7583 15.775C60.8083 16.025 60.825 16.2583 60.8083 16.475C60.7916 16.5417 60.7833 16.6167 60.7833 16.7C60.7833 16.7833 60.775 16.8667 60.7583 16.95C60.7416 17 60.7333 17.05 60.7333 17.1C60.75 17.1333 60.7583 17.1667 60.7583 17.2C60.775 17.2667 60.7833 17.3333 60.7833 17.4C60.8 17.45 60.8 17.5083 60.7833 17.575C60.7833 17.725 60.75 17.8583 60.6833 17.975C60.5833 18.1417 60.45 18.2417 60.2833 18.275C60.2333 18.275 60.2 18.2833 60.1833 18.3C60.1 18.3333 60.0583 18.375 60.0583 18.425C60.0583 18.5083 60.05 18.5917 60.0333 18.675C60.0333 18.7417 60.0333 18.8167 60.0333 18.9V19.55C60.05 19.7 60.0166 19.85 59.9333 20C59.8833 20.0833 59.8166 20.1417 59.7333 20.175C59.65 20.2083 59.5666 20.2167 59.4833 20.2C59.25 20.1167 59.1 19.9667 59.0333 19.75L58.9583 19.45C58.9416 19.3333 58.9083 19.2167 58.8583 19.1C58.825 19 58.7666 18.9 58.6833 18.8C58.65 18.7333 58.6166 18.6667 58.5833 18.6C58.55 18.5333 58.5166 18.4667 58.4833 18.4C58.4166 18.25 58.3583 18.1 58.3083 17.95C58.275 17.7833 58.2416 17.6167 58.2083 17.45C58.1916 17.35 58.1833 17.2583 58.1833 17.175C58.1833 17.075 58.1833 16.975 58.1833 16.875C58.1833 16.8083 58.175 16.7417 58.1583 16.675C58.1583 16.6083 58.1583 16.5417 58.1583 16.475C58.1416 16.3583 58.1333 16.2417 58.1333 16.125C58.1333 16.0083 58.1333 15.8917 58.1333 15.775C58.1333 15.6917 58.1333 15.6 58.1333 15.5C58.1333 15.4 58.1166 15.3083 58.0833 15.225V15.125C58.0833 14.9583 58.075 14.8 58.0583 14.65C58.0416 14.5 58.025 14.3417 58.0083 14.175C58.0083 14.1417 58 14.1167 57.9833 14.1C57.9666 14 57.95 13.9 57.9333 13.8C57.9166 13.6833 57.8916 13.575 57.8583 13.475C57.825 13.3417 57.7916 13.2083 57.7583 13.075C57.7416 12.9417 57.7166 12.8083 57.6833 12.675C57.6666 12.5583 57.65 12.45 57.6333 12.35C57.6166 12.2333 57.5916 12.1167 57.5583 12C57.5416 11.9333 57.525 11.875 57.5083 11.825C57.5083 11.7583 57.5083 11.6917 57.5083 11.625C57.4916 11.525 57.475 11.4333 57.4583 11.35C57.4583 11.25 57.4583 11.1583 57.4583 11.075C57.4416 10.9417 57.425 10.8083 57.4083 10.675C57.3916 10.525 57.3666 10.3833 57.3333 10.25C57.3166 10.1667 57.3 10.0833 57.2833 10C57.2833 9.9 57.2833 9.80833 57.2833 9.725C57.2666 9.50833 57.2416 9.3 57.2083 9.1C57.1916 8.9 57.1833 8.69167 57.1833 8.475C57.1833 8.39167 57.175 8.31667 57.1583 8.25C57.1583 8.16667 57.1583 8.09167 57.1583 8.025C57.1416 7.875 57.1166 7.725 57.0833 7.575C57.0666 7.40833 57.05 7.25 57.0333 7.1L56.8833 6.1C56.8666 5.91667 56.85 5.725 56.8333 5.525C56.8166 5.325 56.8083 5.13333 56.8083 4.95C56.8083 4.83333 56.8083 4.71667 56.8083 4.6C56.8083 4.48333 56.8 4.36667 56.7833 4.25C56.75 4.03333 56.7583 3.825 56.8083 3.625C56.8583 3.39167 56.9583 3.19167 57.1083 3.025C57.1583 2.95833 57.2083 2.9 57.2583 2.85C57.3083 2.8 57.3583 2.75 57.4083 2.7C57.5083 2.61667 57.6166 2.55833 57.7333 2.525C57.8666 2.49167 57.9916 2.46667 58.1083 2.45C58.1916 2.45 58.275 2.45833 58.3583 2.475C58.4416 2.475 58.5166 2.48333 58.5833 2.5C58.6833 2.53333 58.7833 2.55833 58.8833 2.575C59 2.575 59.1166 2.575 59.2333 2.575C59.45 2.575 59.6583 2.575 59.8583 2.575C60.075 2.575 60.2916 2.58333 60.5083 2.6C60.8916 2.6 61.2833 2.625 61.6833 2.675C61.9166 2.70833 62.1333 2.75833 62.3333 2.825C62.55 2.875 62.7666 2.94167 62.9833 3.025C63.35 3.15833 63.6916 3.30833 64.0083 3.475C64.1583 3.54167 64.3 3.625 64.4333 3.725C64.5666 3.80833 64.6916 3.90833 64.8083 4.025C64.8583 4.075 64.9083 4.125 64.9583 4.175C65.0083 4.225 65.05 4.28333 65.0833 4.35C65.1333 4.4 65.1833 4.45 65.2333 4.5C65.2833 4.55 65.3166 4.61667 65.3333 4.7C65.3666 4.76667 65.3833 4.8 65.3833 4.8C65.5 4.96667 65.5833 5.15 65.6333 5.35C65.7 5.55 65.75 5.75 65.7833 5.95C65.8166 6.11667 65.8166 6.28333 65.7833 6.45C65.7666 6.6 65.75 6.75833 65.7333 6.925C65.7333 7.04167 65.725 7.15 65.7083 7.25C65.6916 7.35 65.6666 7.45 65.6333 7.55C65.6166 7.71667 65.5666 7.875 65.4833 8.025C65.4166 8.175 65.3416 8.31667 65.2583 8.45C65.2583 8.46667 65.25 8.48333 65.2333 8.5C65.2166 8.5 65.2 8.51667 65.1833 8.55C65.0666 8.68333 64.9333 8.81667 64.7833 8.95C64.65 9.08333 64.4916 9.2 64.3083 9.3C64.2416 9.33333 64.175 9.375 64.1083 9.425C64.0583 9.475 63.9916 9.51667 63.9083 9.55C63.875 9.58333 63.875 9.61667 63.9083 9.65C63.975 9.71667 64.025 9.75833 64.0583 9.775C64.175 9.875 64.2916 9.975 64.4083 10.075C64.5416 10.175 64.6666 10.275 64.7833 10.375C64.9166 10.4583 65.0333 10.5583 65.1333 10.675C65.2333 10.775 65.3416 10.875 65.4583 10.975C65.575 11.0917 65.6916 11.2083 65.8083 11.325C65.925 11.4417 66.0416 11.5583 66.1583 11.675C66.1916 11.6917 66.225 11.7167 66.2583 11.75C66.2916 11.7833 66.325 11.8167 66.3583 11.85C66.4416 11.9167 66.5166 11.9833 66.5833 12.05C66.65 12.1167 66.7166 12.1917 66.7833 12.275C66.8166 12.3417 66.8583 12.4 66.9083 12.45C66.9583 12.4833 67.0083 12.525 67.0583 12.575C67.125 12.625 67.1833 12.675 67.2333 12.725C67.2833 12.775 67.3416 12.8333 67.4083 12.9C67.4916 13 67.5833 13.1083 67.6833 13.225C67.7833 13.325 67.8833 13.425 67.9833 13.525L68.1333 13.7C68.1666 13.7333 68.2 13.7667 68.2333 13.8C68.2666 13.8333 68.2916 13.8667 68.3083 13.9C68.4583 14.0667 68.6083 14.2333 68.7583 14.4C68.925 14.5667 69.0916 14.7417 69.2583 14.925L69.4083 15.075C69.5083 15.1417 69.6 15.2333 69.6833 15.35C69.7833 15.45 69.875 15.5417 69.9583 15.625C70.025 15.675 70.075 15.75 70.1083 15.85C70.125 15.9 70.1416 15.95 70.1583 16C70.175 16.0333 70.1916 16.075 70.2083 16.125C70.2583 16.2583 70.275 16.3833 70.2583 16.5C70.2416 16.5333 70.2333 16.5917 70.2333 16.675C70.2333 16.8083 70.2 16.9333 70.1333 17.05C70.0833 17.1667 70.0166 17.275 69.9333 17.375L69.7083 17.575C69.5083 17.775 69.3833 18.0333 69.3333 18.35C69.3166 18.5167 69.3 18.6833 69.2833 18.85C69.2833 19.0167 69.2833 19.1917 69.2833 19.375C69.2833 19.5583 69.2833 19.7417 69.2833 19.925C69.2833 20.1083 69.2916 20.2917 69.3083 20.475V20.8C69.325 20.85 69.3333 20.9417 69.3333 21.075V24.5C69.3333 24.6167 69.325 24.7333 69.3083 24.85C69.3083 24.9833 69.3083 25.1167 69.3083 25.25C69.2916 25.3167 69.2833 25.3833 69.2833 25.45C69.2833 25.5167 69.2833 25.5833 69.2833 25.65V26.15C69.2833 26.2333 69.2916 26.3 69.3083 26.35C69.3416 26.6167 69.35 26.8833 69.3333 27.15C69.3333 27.4167 69.3416 27.6917 69.3583 27.975C69.3583 28.125 69.2916 28.2667 69.1583 28.4C69.025 28.5333 68.8916 28.5417 68.7583 28.425ZM60.0333 8.475C60.05 8.45833 60.0666 8.45 60.0833 8.45C60.1 8.45 60.1166 8.44167 60.1333 8.425C60.4 8.24167 60.6666 8.15833 60.9333 8.175C61.0333 8.175 61.1083 8.18333 61.1583 8.2C61.2916 8.23333 61.4083 8.20833 61.5083 8.125C61.6583 8.04167 61.8083 7.975 61.9583 7.925C62.1083 7.85833 62.25 7.78333 62.3833 7.7C62.4 7.7 62.4083 7.7 62.4083 7.7C62.4083 7.68333 62.4166 7.675 62.4333 7.675C62.65 7.60833 62.85 7.49167 63.0333 7.325C63.2 7.20833 63.2916 7.13333 63.3083 7.1C63.3416 7.05 63.375 6.91667 63.4083 6.7V6.6C63.4083 6.5 63.4 6.40833 63.3833 6.325C63.3666 6.24167 63.3583 6.16667 63.3583 6.1C63.3083 5.91667 63.2083 5.775 63.0583 5.675C62.9083 5.575 62.75 5.5 62.5833 5.45C62.4 5.36667 62.2083 5.30833 62.0083 5.275C61.8083 5.225 61.6166 5.18333 61.4333 5.15C61.4166 5.15 61.4 5.15 61.3833 5.15C61.3833 5.13333 61.375 5.125 61.3583 5.125C61.1916 5.09167 61.0416 5.125 60.9083 5.225C60.9083 5.225 60.9 5.225 60.8833 5.225C60.8833 5.225 60.875 5.23333 60.8583 5.25C60.675 5.35 60.5083 5.375 60.3583 5.325H60.2333C59.9833 5.325 59.8083 5.43333 59.7083 5.65C59.675 5.75 59.6583 5.825 59.6583 5.875C59.6583 5.95833 59.6583 6.05 59.6583 6.15C59.6583 6.25 59.6666 6.34167 59.6833 6.425C59.7166 6.525 59.7333 6.6 59.7333 6.65C59.7333 6.76667 59.7416 6.875 59.7583 6.975C59.775 7.075 59.7916 7.175 59.8083 7.275C59.825 7.29167 59.8333 7.325 59.8333 7.375C59.8166 7.44167 59.8083 7.5 59.8083 7.55C59.825 7.6 59.8333 7.65833 59.8333 7.725C59.85 7.79167 59.8583 7.85 59.8583 7.9C59.875 7.95 59.875 8 59.8583 8.05C59.8583 8.18333 59.8833 8.31667 59.9333 8.45C59.9333 8.46667 59.9416 8.48333 59.9583 8.5C59.9916 8.5 60.0166 8.49167 60.0333 8.475ZM75.3321 19.175C75.2321 19.175 75.1655 19.1667 75.1321 19.15C75.0488 19.1167 74.9655 19.1 74.8821 19.1C74.8155 19.1167 74.7405 19.125 74.6571 19.125C74.6405 19.125 74.6238 19.125 74.6071 19.125C74.5905 19.1417 74.5738 19.15 74.5571 19.15C74.4405 19.1667 74.3238 19.175 74.2071 19.175C74.1071 19.175 74.0071 19.1583 73.9071 19.125C73.8905 19.1083 73.8738 19.1 73.8571 19.1C73.7405 19.1167 73.6405 19.0833 73.5571 19C73.4738 18.9167 73.3905 18.8417 73.3071 18.775C73.2238 18.6917 73.1821 18.6 73.1821 18.5L73.1071 18.3C73.0571 18.1833 73.0405 18.075 73.0571 17.975C73.0738 17.9417 73.0738 17.9083 73.0571 17.875C73.0571 17.8417 73.0571 17.8083 73.0571 17.775C73.0405 17.7417 73.0321 17.7083 73.0321 17.675C73.0321 17.625 73.0238 17.5833 73.0071 17.55C72.9738 17.4 72.9488 17.25 72.9321 17.1C72.9321 16.9333 72.9405 16.775 72.9571 16.625C72.9738 16.525 73.0321 16.3583 73.1321 16.125C73.2321 15.875 73.2905 15.725 73.3071 15.675C73.3571 15.5917 73.3821 15.525 73.3821 15.475C73.3655 15.2917 73.3571 15.1083 73.3571 14.925C73.3738 14.725 73.3821 14.5333 73.3821 14.35C73.3821 14.2333 73.4071 14.1417 73.4571 14.075C73.5238 13.9583 73.5321 13.8333 73.4821 13.7L73.4071 13.425C73.3071 13.2417 73.3155 13.0833 73.4321 12.95C73.4321 12.9333 73.4321 12.925 73.4321 12.925C73.4488 12.9083 73.4571 12.8917 73.4571 12.875C73.4905 12.8417 73.4988 12.8 73.4821 12.75C73.4655 12.6833 73.4571 12.6333 73.4571 12.6C73.4571 12.5333 73.4655 12.4667 73.4821 12.4C73.5155 12.3167 73.5238 12.2417 73.5071 12.175C73.5071 12.175 73.4905 12.1583 73.4571 12.125C73.4405 12.0917 73.4321 12.025 73.4321 11.925C73.4488 11.825 73.4571 11.7667 73.4571 11.75V11.05C73.4738 10.9667 73.4821 10.8917 73.4821 10.825C73.4821 10.7417 73.4905 10.6583 73.5071 10.575C73.5238 10.475 73.5238 10.375 73.5071 10.275C73.5071 10.1583 73.5071 10.0417 73.5071 9.925C73.4905 9.84167 73.4738 9.75 73.4571 9.65C73.4571 9.55 73.4571 9.45 73.4571 9.35C73.4405 9.31667 73.4321 9.275 73.4321 9.225C73.4321 9.175 73.4321 9.13333 73.4321 9.1C73.4155 9.01667 73.3988 8.93333 73.3821 8.85C73.3821 8.76667 73.3821 8.68333 73.3821 8.6C73.3821 8.56667 73.3488 8.45833 73.2821 8.275C73.2155 8.075 73.1905 7.90833 73.2071 7.775C73.2238 7.74167 73.2321 7.7 73.2321 7.65C73.2321 7.6 73.2155 7.55833 73.1821 7.525C73.1488 7.50833 73.1321 7.475 73.1321 7.425V7.35C73.1821 7.15 73.1571 6.95 73.0571 6.75C72.9905 6.65 72.9655 6.55 72.9821 6.45C72.9821 6.31667 72.9238 6.21667 72.8071 6.15C72.7238 6.06667 72.6488 5.96667 72.5821 5.85C72.5155 5.73333 72.4738 5.61667 72.4571 5.5C72.4405 5.41667 72.4321 5.33333 72.4321 5.25C72.4321 5.16667 72.4321 5.09167 72.4321 5.025C72.4321 4.95833 72.4405 4.91667 72.4571 4.9C72.5238 4.83333 72.5571 4.75833 72.5571 4.675C72.5571 4.575 72.5655 4.5 72.5821 4.45C72.5988 4.43333 72.6155 4.425 72.6321 4.425C72.6488 4.425 72.6655 4.41667 72.6821 4.4C72.7488 4.38333 72.7821 4.325 72.7821 4.225C72.7488 4.15833 72.7321 4.1 72.7321 4.05C72.7155 3.98333 72.7405 3.925 72.8071 3.875C72.8405 3.80833 72.8821 3.79167 72.9321 3.825C73.0488 3.875 73.1821 3.85833 73.3321 3.775C73.3988 3.74167 73.4405 3.725 73.4571 3.725C73.5071 3.725 73.5321 3.725 73.5321 3.725C73.5488 3.70833 73.5988 3.7 73.6821 3.7C73.7821 3.71667 73.8738 3.68333 73.9571 3.6C74.0738 3.48333 74.2155 3.425 74.3821 3.425H75.9321C76.3155 3.44167 76.6988 3.44167 77.0821 3.425C77.4655 3.40833 77.8405 3.4 78.2071 3.4C78.2905 3.4 78.3571 3.4 78.4071 3.4C78.4738 3.38333 78.5405 3.36667 78.6071 3.35C78.7071 3.3 78.8238 3.275 78.9571 3.275H79.5321C79.6655 3.275 79.7821 3.275 79.8821 3.275C79.9988 3.25833 80.1155 3.24167 80.2321 3.225C80.2988 3.20833 80.3571 3.2 80.4071 3.2C80.4738 3.2 80.5405 3.2 80.6071 3.2C80.6738 3.2 80.7405 3.2 80.8071 3.2C80.8738 3.2 80.9405 3.19167 81.0071 3.175C81.1405 3.15833 81.2821 3.15 81.4321 3.15C81.5821 3.13333 81.7238 3.125 81.8571 3.125C81.9238 3.125 81.9821 3.125 82.0321 3.125C82.0988 3.10833 82.1655 3.09167 82.2321 3.075C82.3655 3.04167 82.4905 3.025 82.6071 3.025C82.7405 3.00833 82.8655 2.99167 82.9821 2.975C83.1155 2.95833 83.2405 2.94167 83.3571 2.925C83.4905 2.90833 83.6155 2.89167 83.7321 2.875C83.8821 2.875 83.9905 2.89167 84.0571 2.925C84.1571 2.99167 84.2488 3.05 84.3321 3.1C84.4321 3.15 84.5238 3.21667 84.6071 3.3C84.6738 3.36667 84.7155 3.425 84.7321 3.475C84.7488 3.54167 84.7655 3.60833 84.7821 3.675C84.7988 3.74167 84.8155 3.81667 84.8321 3.9V4.075C84.8155 4.15833 84.7988 4.25 84.7821 4.35C84.7821 4.43333 84.7738 4.525 84.7571 4.625C84.7238 4.69167 84.6821 4.75 84.6321 4.8L84.1821 5.25C84.0155 5.3 83.8488 5.33333 83.6821 5.35C83.5321 5.36667 83.3738 5.36667 83.2071 5.35H83.0321C82.9488 5.36667 82.8655 5.375 82.7821 5.375C82.6988 5.375 82.6155 5.36667 82.5321 5.35C82.4321 5.33333 82.3321 5.33333 82.2321 5.35C82.1321 5.35 82.0321 5.35 81.9321 5.35C81.8655 5.35 81.7988 5.35833 81.7321 5.375C81.6821 5.375 81.6238 5.36667 81.5571 5.35C81.4738 5.33333 81.3905 5.33333 81.3071 5.35C81.2405 5.35 81.1655 5.35833 81.0821 5.375C81.0155 5.375 80.9405 5.38333 80.8571 5.4C80.7905 5.4 80.7155 5.4 80.6321 5.4C80.4155 5.43333 80.1821 5.45 79.9321 5.45C79.6988 5.45 79.4655 5.46667 79.2321 5.5C79.0821 5.48333 78.9405 5.49167 78.8071 5.525C78.6738 5.54167 78.5321 5.55833 78.3821 5.575C78.2488 5.59167 78.1071 5.6 77.9571 5.6C77.8071 5.6 77.6655 5.61667 77.5321 5.65C77.3655 5.65 77.1988 5.675 77.0321 5.725C76.8821 5.75833 76.7238 5.78333 76.5571 5.8L76.3821 5.825C76.2655 5.825 76.1571 5.84167 76.0571 5.875C75.9571 5.89167 75.8488 5.91667 75.7321 5.95C75.6655 5.96667 75.5988 5.98333 75.5321 6C75.4655 6 75.3905 6.00833 75.3071 6.025C75.2571 6.025 75.1988 6.04167 75.1321 6.075C75.0821 6.09167 75.0571 6.14167 75.0571 6.225L75.1321 6.45C75.1488 6.48333 75.1405 6.56667 75.1071 6.7C75.0905 6.83333 75.0738 6.93333 75.0571 7C75.0571 7.05 75.0655 7.1 75.0821 7.15C75.0988 7.2 75.1155 7.25 75.1321 7.3C75.1821 7.43333 75.2071 7.58333 75.2071 7.75C75.2071 7.9 75.2238 8.04167 75.2571 8.175C75.2738 8.24167 75.2821 8.31667 75.2821 8.4C75.2821 8.46667 75.2905 8.54167 75.3071 8.625C75.3071 8.65833 75.3071 8.7 75.3071 8.75C75.3238 8.78333 75.3321 8.825 75.3321 8.875C75.3321 8.925 75.3238 8.95833 75.3071 8.975C75.2571 9.04167 75.2321 9.11667 75.2321 9.2C75.2321 9.28333 75.2321 9.36667 75.2321 9.45C75.3155 9.61667 75.3571 9.78333 75.3571 9.95C75.3571 10.1167 75.3571 10.2833 75.3571 10.45C75.3571 10.5 75.3988 10.5167 75.4821 10.5H75.5071C75.5405 10.4333 75.5738 10.3833 75.6071 10.35C75.6571 10.35 75.7155 10.3333 75.7821 10.3C75.8321 10.2667 75.8988 10.25 75.9821 10.25C76.1155 10.2667 76.2405 10.2667 76.3571 10.25C76.4738 10.2167 76.5905 10.1833 76.7071 10.15C77.4905 9.95 78.2238 9.69167 78.9071 9.375C79.0905 9.29167 79.2821 9.225 79.4821 9.175C79.6821 9.10833 79.8821 9.06667 80.0821 9.05H80.1571C80.3071 9.03333 80.4571 9.01667 80.6071 9C80.7571 8.98333 80.9071 8.975 81.0571 8.975C81.2571 8.95833 81.4488 8.93333 81.6321 8.9C81.8321 8.86667 82.0321 8.84167 82.2321 8.825C82.3488 8.79167 82.4571 8.76667 82.5571 8.75C82.6571 8.71667 82.7655 8.675 82.8821 8.625C83.0988 8.54167 83.2988 8.5 83.4821 8.5C83.6155 8.51667 83.7405 8.55 83.8571 8.6C83.9738 8.63333 84.0905 8.68333 84.2071 8.75C84.4571 8.91667 84.5821 9.16667 84.5821 9.5C84.5821 9.63333 84.5655 9.76667 84.5321 9.9C84.5155 10.0333 84.5071 10.1667 84.5071 10.3C84.5071 10.3333 84.4905 10.3667 84.4571 10.4L84.3821 10.525C84.3655 10.5917 84.3488 10.6583 84.3321 10.725C84.3155 10.7917 84.2738 10.8417 84.2071 10.875C84.1071 10.9583 83.9988 11.05 83.8821 11.15C83.7821 11.2333 83.6655 11.2917 83.5321 11.325C83.4655 11.3417 83.3988 11.3583 83.3321 11.375C83.2821 11.3917 83.2238 11.4 83.1571 11.4C82.8905 11.4 82.6155 11.4167 82.3321 11.45C82.0655 11.4833 81.7905 11.5167 81.5071 11.55C81.2905 11.5667 81.0738 11.5917 80.8571 11.625C80.6571 11.6583 80.4488 11.675 80.2321 11.675C80.0321 11.675 79.8071 11.7167 79.5571 11.8C79.3905 11.8333 79.2155 11.8667 79.0321 11.9C78.8488 11.9333 78.6655 11.9583 78.4821 11.975C78.3488 11.9917 78.2071 12.0167 78.0571 12.05C77.9238 12.0667 77.7905 12.0833 77.6571 12.1L77.2321 12.175C77.1988 12.1917 77.1488 12.2 77.0821 12.2C76.9655 12.2333 76.8488 12.2583 76.7321 12.275C76.6155 12.2917 76.4988 12.3167 76.3821 12.35C76.2655 12.3667 76.1488 12.3917 76.0321 12.425C75.9321 12.4583 75.8238 12.4917 75.7071 12.525C75.6238 12.5417 75.5571 12.575 75.5071 12.625C75.4571 12.6583 75.4155 12.7083 75.3821 12.775C75.3655 12.825 75.3655 12.875 75.3821 12.925C75.3988 12.9917 75.3905 13.0583 75.3571 13.125C75.3738 13.2917 75.3821 13.4583 75.3821 13.625C75.3988 13.7917 75.3988 13.9583 75.3821 14.125C75.4155 14.2583 75.4238 14.3917 75.4071 14.525C75.4071 14.6583 75.3988 14.7917 75.3821 14.925C75.3488 15.125 75.3571 15.2917 75.4071 15.425C75.4571 15.6417 75.4405 15.8667 75.3571 16.1C75.3238 16.2 75.3238 16.2667 75.3571 16.3C75.3905 16.35 75.3905 16.4083 75.3571 16.475V16.625C75.3405 16.7583 75.3988 16.825 75.5321 16.825H75.5821C75.6988 16.825 75.8155 16.8667 75.9321 16.95C76.0155 17.0333 76.1155 17.0583 76.2321 17.025L76.9321 16.95C77.0321 16.9333 77.1321 16.925 77.2321 16.925C77.3321 16.9083 77.4321 16.9 77.5321 16.9C77.5655 16.8833 77.6155 16.8917 77.6821 16.925C77.7655 16.975 77.8405 16.9833 77.9071 16.95C77.9405 16.9167 77.9821 16.8917 78.0321 16.875C78.0988 16.8583 78.1488 16.8333 78.1821 16.8C78.2821 16.7 78.4071 16.6667 78.5571 16.7C78.6905 16.7333 78.7988 16.725 78.8821 16.675C79.0321 16.625 79.1738 16.6083 79.3071 16.625C79.3905 16.6417 79.4738 16.6333 79.5571 16.6C79.6405 16.5667 79.7238 16.55 79.8071 16.55C79.8405 16.55 79.8655 16.5583 79.8821 16.575C79.8988 16.575 79.9155 16.5667 79.9321 16.55C79.9655 16.55 79.9988 16.5417 80.0321 16.525C80.0655 16.5083 80.0905 16.5 80.1071 16.5C80.2238 16.45 80.3321 16.4333 80.4321 16.45C80.5155 16.45 80.5571 16.45 80.5571 16.45C80.6238 16.4333 80.6821 16.4333 80.7321 16.45C80.7988 16.4667 80.8571 16.4917 80.9071 16.525C80.9905 16.5417 81.0571 16.5667 81.1071 16.6C81.1738 16.6333 81.2405 16.6583 81.3071 16.675C81.3405 16.675 81.3655 16.6833 81.3821 16.7C81.4655 16.7667 81.5655 16.825 81.6821 16.875C81.8155 16.925 81.8905 16.9833 81.9071 17.05C81.9405 17.15 81.9571 17.25 81.9571 17.35C81.9571 17.4333 81.9655 17.525 81.9821 17.625C81.9821 17.675 81.9738 17.725 81.9571 17.775C81.9571 17.825 81.9488 17.875 81.9321 17.925C81.8988 17.9917 81.8571 18.0667 81.8071 18.15C81.7738 18.2333 81.7238 18.3083 81.6571 18.375C81.6238 18.4083 81.5905 18.4417 81.5571 18.475C81.5405 18.5083 81.5155 18.5417 81.4821 18.575C81.4155 18.6417 81.3405 18.7 81.2571 18.75C81.1738 18.8 81.0821 18.825 80.9821 18.825C80.9155 18.825 80.8655 18.8333 80.8321 18.85C80.7655 18.8833 80.6988 18.9 80.6321 18.9C80.5655 18.9 80.4905 18.9 80.4071 18.9C80.2905 18.9167 80.1738 18.9333 80.0571 18.95C79.9571 18.95 79.8488 18.9417 79.7321 18.925C79.6655 18.9083 79.6071 18.9083 79.5571 18.925C79.3905 18.975 79.2238 18.9833 79.0571 18.95C78.8905 18.95 78.7238 18.9583 78.5571 18.975C78.4071 18.975 78.2571 18.975 78.1071 18.975H77.7821C77.7321 18.975 77.6905 18.9833 77.6571 19C77.5905 19.0333 77.5071 19.05 77.4071 19.05C77.3238 19.05 77.2405 19.0417 77.1571 19.025H76.9071C76.8905 19.025 76.8655 19.025 76.8321 19.025C76.7988 19.0417 76.7655 19.0417 76.7321 19.025C76.6821 19.0083 76.6321 19 76.5821 19C76.5488 19.0167 76.5071 19.0333 76.4571 19.05C76.4238 19.05 76.3905 19.05 76.3571 19.05C76.3405 19.0667 76.3155 19.075 76.2821 19.075C76.1155 19.0583 75.9571 19.0583 75.8071 19.075C75.6571 19.1083 75.4988 19.1417 75.3321 19.175ZM96.3788 20.275C96.3121 20.2917 96.2621 20.275 96.2288 20.225C96.1621 20.175 96.0955 20.125 96.0288 20.075C95.9788 20.025 95.9121 19.975 95.8288 19.925C95.6955 19.8583 95.5871 19.7417 95.5038 19.575C95.3538 19.3417 95.2788 19.0917 95.2788 18.825C95.2788 18.7417 95.2705 18.6583 95.2538 18.575C95.2538 18.4917 95.2455 18.4083 95.2288 18.325C95.2288 18.2417 95.2205 18.1667 95.2038 18.1C95.2038 18.0167 95.2038 17.9417 95.2038 17.875C95.2038 17.7917 95.2038 17.7083 95.2038 17.625C95.2038 17.525 95.1955 17.4333 95.1788 17.35C95.1788 17.3333 95.1705 17.325 95.1538 17.325C95.1538 17.3083 95.1538 17.3 95.1538 17.3C95.1205 17.3 95.0955 17.3083 95.0788 17.325L94.7788 17.7C94.7121 17.8 94.6288 17.8917 94.5288 17.975C94.4455 18.0417 94.3621 18.1167 94.2788 18.2C94.0121 18.4 93.7455 18.5667 93.4788 18.7C93.3621 18.75 93.2538 18.7917 93.1538 18.825C92.5871 19.025 92.0288 19.1167 91.4788 19.1C91.2955 19.0833 91.1038 19.0667 90.9038 19.05C90.7205 19.05 90.5288 19.025 90.3288 18.975C90.1788 18.925 90.0288 18.875 89.8788 18.825C89.7455 18.7583 89.6121 18.675 89.4788 18.575C89.3621 18.475 89.2455 18.375 89.1288 18.275C89.0121 18.1583 88.9038 18.0333 88.8038 17.9C88.6371 17.6333 88.5288 17.4667 88.4788 17.4C88.4288 17.3333 88.3538 17.1667 88.2538 16.9L88.1288 16.675C88.0788 16.5417 88.0205 16.4167 87.9538 16.3C87.9038 16.1667 87.8621 16.0333 87.8288 15.9L87.7038 15.55C87.6705 15.4333 87.6371 15.325 87.6038 15.225C87.5705 15.1083 87.5371 14.9917 87.5038 14.875C87.4371 14.6583 87.3788 14.4417 87.3288 14.225C87.2788 13.9917 87.2288 13.7667 87.1788 13.55L87.1038 13.1C87.1038 13.0667 87.0955 13.0333 87.0788 13C87.0788 12.95 87.0788 12.9 87.0788 12.85L86.9288 12.125C86.9121 12.0417 86.9038 11.9667 86.9038 11.9C86.9038 11.8167 86.9038 11.7417 86.9038 11.675C86.8871 11.5417 86.8788 11.4083 86.8788 11.275C86.8955 11.1417 86.9038 11.0083 86.9038 10.875C86.9205 10.6917 86.9455 10.5167 86.9788 10.35C87.0121 10.1667 87.0455 9.99167 87.0788 9.825C87.1455 9.59167 87.2121 9.35833 87.2788 9.125C87.3621 8.875 87.4538 8.64167 87.5538 8.425C87.6371 8.24167 87.7205 8.06667 87.8038 7.9C87.8871 7.71667 87.9871 7.54167 88.1038 7.375C88.2538 7.125 88.4121 6.88333 88.5788 6.65C88.7621 6.41667 88.9455 6.19167 89.1288 5.975C89.2621 5.825 89.3955 5.68333 89.5288 5.55C89.6621 5.4 89.7955 5.25 89.9288 5.1C90.1621 4.86667 90.4121 4.66667 90.6788 4.5C90.8121 4.41667 90.9455 4.36667 91.0788 4.35C91.1288 4.33333 91.1705 4.325 91.2038 4.325C91.2538 4.325 91.2955 4.31667 91.3288 4.3C91.5121 4.26667 91.6788 4.275 91.8288 4.325C91.8788 4.34167 91.9288 4.35833 91.9788 4.375C92.0455 4.39167 92.1038 4.40833 92.1538 4.425C92.3705 4.50833 92.5621 4.55833 92.7288 4.575C92.8288 4.575 92.9455 4.60833 93.0788 4.675C93.1621 4.69167 93.2455 4.71667 93.3288 4.75C93.4121 4.76667 93.4955 4.78333 93.5788 4.8C93.6788 4.8 93.7621 4.825 93.8288 4.875C93.8455 4.875 93.8621 4.88333 93.8788 4.9C93.9121 4.9 93.9371 4.9 93.9538 4.9C94.0871 4.91667 94.2038 4.95 94.3038 5C94.4038 5.03333 94.5038 5.08333 94.6038 5.15C94.8371 5.3 95.0788 5.46667 95.3288 5.65C95.4788 5.76667 95.5538 5.925 95.5538 6.125V6.25C95.6038 6.45 95.5538 6.65 95.4038 6.85C95.3205 7 95.2538 7.1 95.2038 7.15C95.1705 7.18333 95.0705 7.24167 94.9038 7.325C94.8538 7.34167 94.7955 7.36667 94.7288 7.4C94.6788 7.41667 94.6121 7.425 94.5288 7.425C94.4955 7.425 94.4538 7.43333 94.4038 7.45C94.3705 7.45 94.3371 7.45 94.3038 7.45C94.2538 7.46667 94.2038 7.46667 94.1538 7.45C94.1038 7.43333 94.0538 7.425 94.0038 7.425C93.9871 7.44167 93.9621 7.43333 93.9288 7.4L93.5538 7.1C93.2871 6.86667 92.9788 6.73333 92.6288 6.7C92.5621 6.68333 92.4955 6.675 92.4288 6.675C92.3621 6.675 92.2871 6.66667 92.2038 6.65C91.9871 6.65 91.8121 6.70833 91.6788 6.825L91.5038 7C91.3538 7.16667 91.1955 7.33333 91.0288 7.5C90.8788 7.66667 90.7288 7.83333 90.5788 8C90.4621 8.11667 90.3621 8.25 90.2788 8.4C90.1955 8.55 90.1121 8.7 90.0288 8.85C89.7621 9.36667 89.5621 9.91667 89.4288 10.5C89.4121 10.6 89.3955 10.7 89.3788 10.8C89.3621 10.8833 89.3455 10.9667 89.3288 11.05C89.3288 11.1333 89.3288 11.2167 89.3288 11.3C89.3288 11.3833 89.3371 11.4667 89.3538 11.55C89.3705 11.6167 89.3788 11.6833 89.3788 11.75C89.3788 11.8 89.3871 11.8583 89.4038 11.925L89.4788 12.525C89.4955 12.625 89.5121 12.7333 89.5288 12.85C89.5621 12.95 89.5871 13.05 89.6038 13.15C89.7705 13.8 89.9705 14.4583 90.2038 15.125C90.2871 15.375 90.3871 15.5917 90.5038 15.775L90.6538 16C90.7038 16.0667 90.7538 16.1333 90.8038 16.2C90.8538 16.25 90.9038 16.3 90.9538 16.35C91.0538 16.4167 91.1371 16.4583 91.2038 16.475C91.4538 16.525 91.7121 16.55 91.9788 16.55C92.3121 16.5167 92.5955 16.4083 92.8288 16.225C92.9455 16.1417 93.0455 16.05 93.1288 15.95C93.2288 15.85 93.3205 15.7417 93.4038 15.625C93.6038 15.3917 93.7788 15.1417 93.9288 14.875C93.9788 14.775 93.9705 14.675 93.9038 14.575C93.8038 14.4083 93.6788 14.275 93.5288 14.175C93.3455 14.0417 93.1538 13.9333 92.9538 13.85C92.7705 13.75 92.5621 13.6917 92.3288 13.675L92.2038 13.625C92.0705 13.575 91.9288 13.575 91.7788 13.625C91.6621 13.675 91.5371 13.7 91.4038 13.7C91.2871 13.6833 91.1621 13.6667 91.0288 13.65C90.7288 13.5667 90.4705 13.4333 90.2538 13.25C90.1871 13.1667 90.1288 13.0833 90.0788 13C90.0455 12.9167 90.0038 12.8417 89.9538 12.775C89.9538 12.7417 89.9455 12.7083 89.9288 12.675C89.9288 12.6417 89.9371 12.6167 89.9538 12.6C89.9538 12.5167 89.9538 12.4333 89.9538 12.35C89.9705 12.2667 89.9871 12.1833 90.0038 12.1C90.0038 12.0833 90.0205 12.025 90.0538 11.925C90.0871 11.8417 90.1288 11.7667 90.1788 11.7C90.2455 11.6167 90.3121 11.5417 90.3788 11.475C90.6455 11.225 90.9371 11.0667 91.2538 11C91.4371 10.95 91.6205 10.9167 91.8038 10.9C91.9871 10.8667 92.1621 10.8417 92.3288 10.825H94.4288C94.5621 10.825 94.7038 10.825 94.8538 10.825C95.0038 10.825 95.1538 10.8167 95.3038 10.8C95.4371 10.7833 95.5621 10.775 95.6788 10.775C95.8121 10.775 95.9455 10.775 96.0788 10.775C96.2288 10.775 96.3621 10.8 96.4788 10.85C96.6621 10.9 96.8038 11.0083 96.9038 11.175C96.9538 11.2417 97.0038 11.3167 97.0538 11.4C97.1038 11.4833 97.1371 11.5667 97.1538 11.65C97.1705 11.6667 97.1788 11.6917 97.1788 11.725C97.1788 11.7417 97.1871 11.7667 97.2038 11.8L97.3788 12.725C97.4121 12.8583 97.4371 13 97.4538 13.15C97.4705 13.3 97.4871 13.45 97.5038 13.6C97.5038 13.6833 97.5038 13.775 97.5038 13.875C97.5205 13.9583 97.5288 14.0417 97.5288 14.125C97.5288 14.1917 97.5288 14.2667 97.5288 14.35C97.5455 14.4333 97.5538 14.5167 97.5538 14.6V15.75C97.5538 15.8667 97.5538 16 97.5538 16.15C97.5705 16.2833 97.5871 16.4167 97.6038 16.55C97.6205 16.6167 97.6288 16.6833 97.6288 16.75C97.6288 16.8167 97.6288 16.8917 97.6288 16.975C97.6121 17.1417 97.6205 17.3167 97.6538 17.5C97.6871 17.6667 97.7121 17.8417 97.7288 18.025C97.7455 18.1083 97.7621 18.2 97.7788 18.3C97.8121 18.3833 97.8371 18.475 97.8538 18.575C97.8705 18.6417 97.8788 18.7167 97.8788 18.8C97.8955 18.8667 97.9038 18.9417 97.9038 19.025C97.9038 19.0917 97.8955 19.1583 97.8788 19.225C97.8788 19.3083 97.8538 19.3833 97.8038 19.45C97.7705 19.4833 97.7371 19.5333 97.7038 19.6C97.6371 19.7833 97.4955 19.9333 97.2788 20.05C97.1121 20.1167 96.9371 20.1667 96.7538 20.2C96.6038 20.2 96.4788 20.225 96.3788 20.275ZM102.24 19.25C102.14 19.25 102.073 19.2417 102.04 19.225C101.973 19.1917 101.915 19.1667 101.865 19.15C101.815 19.1333 101.765 19.1167 101.715 19.1C101.665 19.0667 101.615 19.0333 101.565 19C101.531 18.95 101.498 18.9 101.465 18.85C101.431 18.8167 101.398 18.8 101.365 18.8C101.265 18.8 101.215 18.75 101.215 18.65C101.198 18.55 101.181 18.45 101.165 18.35C101.148 18.25 101.131 18.15 101.115 18.05C101.098 17.9 101.081 17.75 101.065 17.6C101.065 17.45 101.048 17.3083 101.015 17.175V16.95C101.015 16.8833 101.006 16.825 100.99 16.775C100.99 16.725 100.99 16.6667 100.99 16.6C100.956 16.5167 100.956 16.45 100.99 16.4C101.023 16.1 101.023 15.8 100.99 15.5C100.973 15.4167 100.965 15.3333 100.965 15.25C100.965 15.1667 100.956 15.0833 100.94 15C100.94 14.8333 100.94 14.6667 100.94 14.5C100.94 14.3167 100.923 14.1417 100.89 13.975V13.575C100.89 13.4417 100.881 13.3167 100.865 13.2C100.865 13.0833 100.856 12.9667 100.84 12.85C100.823 12.7 100.806 12.55 100.79 12.4C100.79 12.25 100.781 12.1 100.765 11.95C100.748 11.9167 100.74 11.8583 100.74 11.775C100.723 11.6917 100.706 11.6083 100.69 11.525C100.69 11.425 100.69 11.3333 100.69 11.25L100.615 10C100.598 9.86667 100.581 9.74167 100.565 9.625C100.565 9.49167 100.565 9.36667 100.565 9.25C100.548 9.05 100.531 8.85 100.515 8.65C100.498 8.45 100.481 8.25833 100.465 8.075C100.465 8.04167 100.456 8.00833 100.44 7.975C100.44 7.94167 100.44 7.91667 100.44 7.9C100.44 7.7 100.431 7.5 100.415 7.3C100.398 7.1 100.381 6.89167 100.365 6.675L100.29 5.975C100.24 5.70833 100.231 5.41667 100.265 5.1C100.265 4.95 100.323 4.825 100.44 4.725C100.473 4.69167 100.498 4.675 100.515 4.675C100.531 4.65833 100.548 4.64167 100.565 4.625C100.648 4.60833 100.69 4.55 100.69 4.45C100.69 4.41667 100.723 4.4 100.79 4.4H100.915C100.931 4.4 100.94 4.4 100.94 4.4C100.956 4.38333 100.973 4.375 100.99 4.375C101.023 4.35833 101.048 4.34167 101.065 4.325C101.098 4.29167 101.123 4.275 101.14 4.275C101.173 4.275 101.206 4.28333 101.24 4.3C101.273 4.3 101.306 4.30833 101.34 4.325C101.373 4.325 101.398 4.31667 101.415 4.3C101.498 4.28333 101.581 4.29167 101.665 4.325C101.765 4.34167 101.848 4.36667 101.915 4.4C102.015 4.41667 102.09 4.48333 102.14 4.6C102.19 4.75 102.231 4.9 102.265 5.05C102.315 5.18333 102.348 5.325 102.365 5.475V5.675C102.398 5.79167 102.415 5.91667 102.415 6.05C102.415 6.16667 102.415 6.29167 102.415 6.425C102.415 6.54167 102.415 6.65833 102.415 6.775C102.431 6.875 102.448 6.975 102.465 7.075C102.465 7.125 102.465 7.175 102.465 7.225C102.465 7.275 102.473 7.325 102.49 7.375C102.49 7.475 102.49 7.575 102.49 7.675C102.506 7.775 102.523 7.88333 102.54 8C102.556 8.18333 102.573 8.375 102.59 8.575C102.606 8.775 102.615 8.975 102.615 9.175C102.615 9.25833 102.615 9.35 102.615 9.45C102.615 9.53333 102.623 9.61667 102.64 9.7C102.656 9.75 102.665 9.8 102.665 9.85C102.665 9.9 102.665 9.95 102.665 10V10.5C102.665 10.6 102.673 10.6833 102.69 10.75C102.723 10.8667 102.731 10.9833 102.715 11.1C102.715 11.2 102.723 11.3083 102.74 11.425L102.815 12.575C102.831 12.7417 102.84 12.9167 102.84 13.1C102.856 13.2667 102.865 13.4417 102.865 13.625C102.865 13.6917 102.865 13.7667 102.865 13.85C102.865 13.9167 102.873 13.9833 102.89 14.05C102.906 14.1 102.915 14.15 102.915 14.2C102.915 14.25 102.915 14.3 102.915 14.35C102.931 14.3667 102.931 14.4 102.915 14.45C102.915 14.4833 102.923 14.5167 102.94 14.55C102.973 14.6667 102.99 14.7833 102.99 14.9C102.99 15.0167 102.99 15.1417 102.99 15.275C102.99 15.3417 102.99 15.4167 102.99 15.5C103.006 15.5667 103.015 15.6417 103.015 15.725C103.031 15.8083 103.04 15.9 103.04 16C103.04 16.1 103.04 16.1917 103.04 16.275C103.056 16.3583 103.065 16.45 103.065 16.55C103.065 16.6333 103.073 16.7167 103.09 16.8C103.106 16.8333 103.115 16.8667 103.115 16.9C103.115 17.0833 103.131 17.2667 103.165 17.45C103.198 17.6333 103.231 17.8167 103.265 18C103.281 18.05 103.29 18.1083 103.29 18.175C103.29 18.225 103.29 18.275 103.29 18.325C103.29 18.375 103.273 18.4167 103.24 18.45C103.173 18.5 103.123 18.6 103.09 18.75C103.09 18.8 103.065 18.8417 103.015 18.875C102.898 18.925 102.798 18.9917 102.715 19.075C102.581 19.1917 102.423 19.25 102.24 19.25ZM115.095 19.225C115.045 19.2083 114.987 19.1917 114.92 19.175C114.87 19.1583 114.82 19.1417 114.77 19.125C114.637 19.075 114.503 19.0083 114.37 18.925C114.303 18.8917 114.253 18.8417 114.22 18.775C114.103 18.5917 113.995 18.425 113.895 18.275C113.795 18.1083 113.687 17.9417 113.57 17.775L113.345 17.375C113.228 17.1417 113.112 16.9167 112.995 16.7C112.878 16.4667 112.762 16.2417 112.645 16.025C112.612 15.9417 112.57 15.875 112.52 15.825C112.487 15.7583 112.453 15.6917 112.42 15.625C112.303 15.4417 112.195 15.2583 112.095 15.075C111.995 14.875 111.895 14.6833 111.795 14.5L111.17 13.275C111.003 12.9417 110.837 12.6167 110.67 12.3C110.503 11.9667 110.337 11.6333 110.17 11.3C110.137 11.2667 110.103 11.2167 110.07 11.15C110.003 10.9667 109.92 10.7917 109.82 10.625C109.737 10.4583 109.653 10.2917 109.57 10.125C109.503 10.0083 109.445 9.89167 109.395 9.775C109.345 9.64167 109.287 9.51667 109.22 9.4L108.945 8.9C108.912 8.9 108.887 8.89167 108.87 8.875C108.87 8.875 108.862 8.88333 108.845 8.9C108.845 8.9 108.845 8.90833 108.845 8.925C108.828 9.14167 108.812 9.36667 108.795 9.6C108.778 9.83333 108.778 10.0667 108.795 10.3C108.828 10.4 108.828 10.5083 108.795 10.625C108.762 10.925 108.77 11.1917 108.82 11.425C108.837 11.4917 108.837 11.5583 108.82 11.625C108.82 11.6917 108.812 11.7667 108.795 11.85C108.778 11.9667 108.77 12.075 108.77 12.175C108.77 12.275 108.762 12.3833 108.745 12.5C108.778 12.5667 108.795 12.6417 108.795 12.725C108.795 12.7917 108.787 12.8583 108.77 12.925C108.72 13.0917 108.72 13.2667 108.77 13.45C108.803 13.5 108.803 13.55 108.77 13.6C108.703 13.75 108.687 13.9333 108.72 14.15C108.77 14.4333 108.753 14.7417 108.67 15.075C108.653 15.1083 108.645 15.1667 108.645 15.25C108.628 15.3167 108.645 15.375 108.695 15.425C108.762 15.4583 108.778 15.5 108.745 15.55C108.728 15.7667 108.728 15.9917 108.745 16.225C108.745 16.225 108.745 16.2333 108.745 16.25C108.745 16.25 108.737 16.25 108.72 16.25C108.703 16.25 108.695 16.2417 108.695 16.225C108.678 16.2083 108.67 16.1917 108.67 16.175C108.637 16.1417 108.62 16.15 108.62 16.2C108.62 16.2833 108.628 16.3333 108.645 16.35C108.678 16.4333 108.695 16.5167 108.695 16.6C108.695 16.6833 108.695 16.7667 108.695 16.85V17.625C108.695 17.675 108.687 17.725 108.67 17.775C108.67 17.825 108.645 17.8667 108.595 17.9C108.528 17.9167 108.495 17.975 108.495 18.075C108.478 18.2583 108.412 18.4167 108.295 18.55C108.195 18.6833 108.078 18.8 107.945 18.9C107.878 18.95 107.795 18.9833 107.695 19C107.612 19 107.528 18.9917 107.445 18.975L106.995 18.825C106.962 18.825 106.928 18.8 106.895 18.75C106.845 18.7 106.795 18.65 106.745 18.6C106.695 18.5333 106.637 18.475 106.57 18.425C106.487 18.375 106.428 18.2833 106.395 18.15C106.378 18.0667 106.353 17.975 106.32 17.875C106.287 17.775 106.27 17.675 106.27 17.575C106.27 17.4583 106.27 17.35 106.27 17.25C106.287 17.15 106.295 17.0417 106.295 16.925C106.312 16.8417 106.32 16.7667 106.32 16.7C106.32 16.6167 106.328 16.5333 106.345 16.45V7.3C106.345 7.21667 106.345 7.13333 106.345 7.05C106.362 6.96667 106.378 6.89167 106.395 6.825C106.395 6.74167 106.395 6.65833 106.395 6.575C106.412 6.49167 106.42 6.40833 106.42 6.325C106.42 6.225 106.42 6.125 106.42 6.025C106.437 5.925 106.453 5.83333 106.47 5.75C106.487 5.68333 106.495 5.625 106.495 5.575C106.495 5.525 106.495 5.46667 106.495 5.4V4.625C106.495 4.50833 106.503 4.40833 106.52 4.325C106.553 4.225 106.578 4.125 106.595 4.025L106.67 3.9C106.72 3.85 106.762 3.775 106.795 3.675C106.828 3.575 106.878 3.525 106.945 3.525C106.995 3.49167 107.045 3.46667 107.095 3.45C107.145 3.41667 107.178 3.36667 107.195 3.3L107.22 3.275C107.237 3.275 107.253 3.275 107.27 3.275C107.287 3.25833 107.303 3.25 107.32 3.25C107.387 3.25 107.437 3.23333 107.47 3.2C107.52 3.16667 107.578 3.15833 107.645 3.175C107.712 3.19167 107.778 3.2 107.845 3.2C107.912 3.2 107.978 3.20833 108.045 3.225C108.412 3.29167 108.67 3.50833 108.82 3.875L108.97 4.375C108.987 4.54167 109.062 4.7 109.195 4.85C109.295 4.96667 109.395 5.09167 109.495 5.225C109.595 5.35833 109.703 5.49167 109.82 5.625C110.253 6.175 110.653 6.79167 111.02 7.475C111.053 7.54167 111.087 7.60833 111.12 7.675C111.153 7.74167 111.187 7.80833 111.22 7.875L112.52 10.5C112.62 10.6833 112.712 10.875 112.795 11.075C112.895 11.2583 113.003 11.4417 113.12 11.625C113.153 11.6917 113.187 11.7583 113.22 11.825C113.253 11.875 113.278 11.9333 113.295 12C113.378 12.2 113.478 12.4 113.595 12.6C113.595 12.6 113.595 12.6083 113.595 12.625C113.612 12.625 113.62 12.6167 113.62 12.6C113.637 12.6 113.645 12.6 113.645 12.6C113.662 12.5833 113.67 12.575 113.67 12.575L113.745 11.7V11.45C113.762 11.3667 113.77 11.2833 113.77 11.2C113.787 11.1 113.803 11.0083 113.82 10.925C113.837 10.875 113.837 10.8167 113.82 10.75C113.82 10.6833 113.828 10.6167 113.845 10.55C113.845 10.45 113.845 10.35 113.845 10.25C113.862 10.1333 113.878 10.025 113.895 9.925C113.912 9.875 113.92 9.825 113.92 9.775C113.92 9.70833 113.92 9.65 113.92 9.6V8.925H113.895V8.25C113.895 8.16667 113.895 8.08333 113.895 8C113.895 7.91667 113.878 7.83333 113.845 7.75C113.828 7.7 113.82 7.625 113.82 7.525L113.845 7.35C113.845 7.3 113.837 7.25833 113.82 7.225C113.82 7.175 113.82 7.125 113.82 7.075C113.837 7.00833 113.828 6.94167 113.795 6.875C113.762 6.80833 113.745 6.74167 113.745 6.675C113.762 6.60833 113.77 6.54167 113.77 6.475C113.77 6.40833 113.77 6.34167 113.77 6.275C113.77 6.20833 113.737 6.175 113.67 6.175C113.653 6.175 113.645 6.15833 113.645 6.125C113.628 6.075 113.628 6.03333 113.645 6C113.678 5.91667 113.695 5.825 113.695 5.725C113.695 5.625 113.695 5.525 113.695 5.425V4.7C113.678 4.6 113.687 4.5 113.72 4.4C113.753 4.3 113.795 4.20833 113.845 4.125L113.945 3.975C114.028 3.89167 114.12 3.80833 114.22 3.725C114.32 3.64167 114.42 3.55833 114.52 3.475C114.52 3.475 114.553 3.45833 114.62 3.425C114.703 3.40833 114.778 3.39167 114.845 3.375C114.928 3.35833 115.012 3.35833 115.095 3.375C115.162 3.375 115.212 3.38333 115.245 3.4C115.312 3.43333 115.378 3.475 115.445 3.525C115.512 3.55833 115.578 3.6 115.645 3.65C115.678 3.66667 115.695 3.68333 115.695 3.7C115.712 3.71667 115.728 3.73333 115.745 3.75C115.778 3.78333 115.803 3.825 115.82 3.875C115.853 3.90833 115.878 3.94167 115.895 3.975C115.978 4.04167 116.028 4.125 116.045 4.225C116.078 4.30833 116.103 4.39167 116.12 4.475V5.525C116.12 5.64167 116.12 5.75833 116.12 5.875C116.137 5.975 116.153 6.08333 116.17 6.2C116.187 6.26667 116.195 6.33333 116.195 6.4C116.195 6.45 116.195 6.50833 116.195 6.575C116.195 6.70833 116.195 6.85 116.195 7C116.212 7.13333 116.22 7.26667 116.22 7.4V7.575C116.22 7.69167 116.212 7.80833 116.195 7.925C116.195 8.025 116.195 8.13333 116.195 8.25V9.35C116.195 9.51667 116.187 9.69167 116.17 9.875C116.17 10.0417 116.178 10.2167 116.195 10.4C116.195 10.4667 116.187 10.5167 116.17 10.55C116.153 10.7167 116.145 10.8833 116.145 11.05C116.145 11.2 116.137 11.3583 116.12 11.525C116.12 11.5917 116.12 11.6667 116.12 11.75C116.12 11.8333 116.112 11.9167 116.095 12C116.078 12.0667 116.07 12.1333 116.07 12.2C116.087 12.2667 116.095 12.3333 116.095 12.4C116.128 12.55 116.137 12.7 116.12 12.85C116.12 13 116.112 13.15 116.095 13.3C116.078 13.5667 116.062 13.8417 116.045 14.125C116.045 14.3917 116.062 14.6667 116.095 14.95C116.095 15.0167 116.095 15.0917 116.095 15.175C116.112 15.2583 116.12 15.3417 116.12 15.425C116.103 15.675 116.112 15.9167 116.145 16.15C116.195 16.3833 116.245 16.6167 116.295 16.85C116.328 17.0167 116.362 17.1833 116.395 17.35C116.428 17.5 116.453 17.6667 116.47 17.85C116.47 17.9167 116.462 17.9583 116.445 17.975C116.428 18.0083 116.412 18.05 116.395 18.1C116.378 18.1333 116.37 18.1667 116.37 18.2C116.353 18.3333 116.303 18.4583 116.22 18.575C116.153 18.6917 116.078 18.8083 115.995 18.925C115.778 19.2083 115.478 19.3083 115.095 19.225ZM129.018 20.825C128.868 20.825 128.734 20.7667 128.618 20.65C128.584 20.6 128.551 20.55 128.518 20.5C128.484 20.45 128.451 20.4 128.418 20.35C128.268 20 128.193 19.6333 128.193 19.25L128.118 18.65C128.068 18.4167 128.026 18.1833 127.993 17.95C127.959 17.7167 127.901 17.4917 127.818 17.275L127.668 16.85C127.668 16.8167 127.659 16.7833 127.643 16.75C127.643 16.7167 127.634 16.6833 127.618 16.65L127.243 15.325C127.226 15.2917 127.209 15.25 127.193 15.2C127.193 15.15 127.176 15.1083 127.143 15.075C127.093 14.975 127.051 14.875 127.018 14.775C127.001 14.6583 126.976 14.5417 126.943 14.425C126.926 14.3417 126.909 14.2667 126.893 14.2C126.876 14.1167 126.851 14.0333 126.818 13.95C126.784 13.85 126.751 13.7917 126.718 13.775C126.684 13.7417 126.609 13.7417 126.493 13.775C126.409 13.7917 126.318 13.8083 126.218 13.825C126.134 13.825 126.051 13.8417 125.968 13.875C125.901 13.8917 125.818 13.9083 125.718 13.925C125.634 13.925 125.551 13.9333 125.468 13.95L125.118 14.025C125.034 14.0417 124.943 14.0667 124.843 14.1C124.759 14.1167 124.676 14.125 124.593 14.125L124.143 14.2C124.009 14.2333 123.868 14.2667 123.718 14.3C123.568 14.3333 123.426 14.3667 123.293 14.4C122.893 14.5 122.493 14.575 122.093 14.625C121.959 14.6583 121.884 14.7167 121.868 14.8C121.851 14.8 121.843 14.8083 121.843 14.825C121.743 15.0917 121.626 15.3583 121.493 15.625C121.376 15.875 121.251 16.1333 121.118 16.4C121.084 16.4667 121.051 16.5333 121.018 16.6C121.001 16.65 120.976 16.7083 120.943 16.775C120.926 16.8083 120.909 16.85 120.893 16.9C120.876 16.9333 120.859 16.9667 120.843 17C120.743 17.1167 120.693 17.2583 120.693 17.425C120.676 17.525 120.643 17.625 120.593 17.725C120.543 17.8083 120.493 17.8917 120.443 17.975C120.426 18.025 120.393 18.05 120.343 18.05C120.276 18.0667 120.209 18.0917 120.143 18.125C120.076 18.1583 120.001 18.1917 119.918 18.225C119.868 18.2417 119.818 18.2417 119.768 18.225C119.734 18.2083 119.693 18.1917 119.643 18.175C119.609 18.1417 119.576 18.125 119.543 18.125C119.359 18.1083 119.226 18 119.143 17.8C119.009 17.5333 118.918 17.2667 118.868 17C118.851 16.9333 118.851 16.875 118.868 16.825C118.901 16.775 118.926 16.725 118.943 16.675C119.043 16.6083 119.101 16.5333 119.118 16.45V16.425C119.118 16.2083 119.159 16.0083 119.243 15.825C119.343 15.625 119.426 15.4333 119.493 15.25C119.526 15.15 119.568 15.05 119.618 14.95C119.668 14.85 119.718 14.75 119.768 14.65C119.834 14.5333 119.884 14.425 119.918 14.325C119.968 14.2083 120.009 14.0917 120.043 13.975C120.093 13.8417 120.093 13.7167 120.043 13.6C120.009 13.5 119.993 13.4083 119.993 13.325C119.993 13.225 120.001 13.125 120.018 13.025C120.018 12.8417 120.084 12.6833 120.218 12.55C120.284 12.4667 120.351 12.4 120.418 12.35C120.501 12.2833 120.576 12.2167 120.643 12.15C120.793 12 120.909 11.8 120.993 11.55C121.059 11.3333 121.109 11.1167 121.143 10.9C121.193 10.6667 121.243 10.4417 121.293 10.225C121.326 10.0083 121.359 9.8 121.393 9.6C121.443 9.38333 121.493 9.175 121.543 8.975C121.559 8.89167 121.576 8.81667 121.593 8.75C121.626 8.66667 121.651 8.59167 121.668 8.525C121.718 8.39167 121.768 8.26667 121.818 8.15C121.868 8.01667 121.901 7.88333 121.918 7.75C121.951 7.68333 121.951 7.625 121.918 7.575C121.901 7.49167 121.901 7.41667 121.918 7.35C121.951 7.28333 121.976 7.21667 121.993 7.15C122.043 7.03333 122.076 6.91667 122.093 6.8C122.126 6.68333 122.168 6.56667 122.218 6.45C122.301 6.23333 122.368 6.05833 122.418 5.925C122.484 5.775 122.543 5.60833 122.593 5.425C122.626 5.325 122.659 5.23333 122.693 5.15C122.743 5.05 122.776 4.95 122.793 4.85C122.843 4.7 122.884 4.55 122.918 4.4C122.951 4.23333 122.968 4.075 122.968 3.925C123.001 3.79167 123.034 3.7 123.068 3.65C123.151 3.48333 123.251 3.34167 123.368 3.225C123.501 3.10833 123.626 2.99167 123.743 2.875C123.826 2.825 123.909 2.79167 123.993 2.775C124.076 2.74167 124.159 2.75 124.243 2.8C124.309 2.83333 124.351 2.85 124.368 2.85C124.518 2.83333 124.643 2.86667 124.743 2.95C124.843 3.03333 124.926 3.13333 124.993 3.25C125.026 3.28333 125.051 3.325 125.068 3.375C125.084 3.425 125.101 3.46667 125.118 3.5C125.201 3.63333 125.243 3.76667 125.243 3.9C125.243 3.96667 125.251 4.04167 125.268 4.125C125.284 4.19167 125.301 4.26667 125.318 4.35C125.368 4.45 125.443 4.5 125.543 4.5C125.559 4.48333 125.576 4.48333 125.593 4.5C125.609 4.51667 125.618 4.53333 125.618 4.55C125.701 4.65 125.726 4.75833 125.693 4.875C125.659 5.00833 125.651 5.14167 125.668 5.275C125.701 5.39167 125.734 5.51667 125.768 5.65C125.834 5.81667 125.901 5.98333 125.968 6.15C126.034 6.31667 126.101 6.48333 126.168 6.65C126.251 6.83333 126.334 7.01667 126.418 7.2C126.501 7.38333 126.576 7.56667 126.643 7.75C126.726 7.98333 126.809 8.21667 126.893 8.45C126.993 8.68333 127.101 8.91667 127.218 9.15L127.293 9.425C127.309 9.49167 127.326 9.55833 127.343 9.625C127.376 9.69167 127.401 9.75833 127.418 9.825C127.451 9.875 127.476 9.925 127.493 9.975C127.526 10.025 127.559 10.0667 127.593 10.1C127.676 10.2167 127.726 10.3417 127.743 10.475C127.793 10.6417 127.868 10.7917 127.968 10.925C128.001 10.975 128.051 11 128.118 11C128.368 10.9667 128.618 10.9417 128.868 10.925C129.118 10.8917 129.368 10.8417 129.618 10.775C129.801 10.725 129.976 10.7 130.143 10.7C130.459 10.7 130.751 10.8083 131.018 11.025C131.334 11.275 131.501 11.5917 131.518 11.975C131.518 12.0583 131.526 12.125 131.543 12.175C131.543 12.2917 131.509 12.3833 131.443 12.45C131.426 12.5 131.393 12.55 131.343 12.6C131.309 12.65 131.276 12.7 131.243 12.75C131.209 12.8167 131.176 12.8667 131.143 12.9L130.993 13.025C130.976 13.0583 130.951 13.1 130.918 13.15C130.884 13.1833 130.843 13.2083 130.793 13.225C130.726 13.2417 130.659 13.2667 130.593 13.3C130.526 13.3167 130.451 13.325 130.368 13.325C130.068 13.3583 129.801 13.35 129.568 13.3H129.168C129.134 13.3 129.084 13.3167 129.018 13.35C128.951 13.3833 128.918 13.425 128.918 13.475V13.575C128.968 13.725 129.001 13.8833 129.018 14.05C129.051 14.2 129.101 14.3417 129.168 14.475C129.168 14.5417 129.184 14.6083 129.218 14.675C129.301 14.825 129.368 14.9833 129.418 15.15C129.468 15.3 129.509 15.4583 129.543 15.625C129.543 15.6583 129.559 15.725 129.593 15.825C129.643 15.9417 129.684 16.0667 129.718 16.2C129.751 16.3167 129.776 16.4417 129.793 16.575C129.793 16.675 129.818 16.7667 129.868 16.85C129.934 17 129.984 17.15 130.018 17.3C130.051 17.45 130.076 17.6083 130.093 17.775C130.109 17.7917 130.118 17.825 130.118 17.875C130.118 17.9083 130.126 17.9417 130.143 17.975C130.226 18.1583 130.284 18.3583 130.318 18.575C130.351 18.775 130.393 18.975 130.443 19.175C130.476 19.275 130.493 19.375 130.493 19.475C130.509 19.5917 130.518 19.7083 130.518 19.825C130.518 19.9083 130.493 20 130.443 20.1C130.393 20.15 130.368 20.175 130.368 20.175C130.268 20.1917 130.209 20.25 130.193 20.35L130.118 20.5C130.084 20.5667 130.034 20.6083 129.968 20.625C129.901 20.625 129.843 20.65 129.793 20.7C129.726 20.7667 129.634 20.8 129.518 20.8C129.451 20.8 129.368 20.8 129.268 20.8C129.184 20.8 129.101 20.8083 129.018 20.825ZM122.993 11.75C123.093 11.7333 123.193 11.7167 123.293 11.7C123.409 11.6833 123.534 11.6667 123.668 11.65C123.751 11.6333 123.859 11.6167 123.993 11.6C124.126 11.5833 124.251 11.5667 124.368 11.55C124.484 11.5167 124.601 11.5 124.718 11.5C124.834 11.4833 124.951 11.4667 125.068 11.45C125.168 11.4167 125.268 11.4 125.368 11.4C125.468 11.3833 125.568 11.3667 125.668 11.35C125.818 11.3167 125.876 11.2333 125.843 11.1C125.826 10.9667 125.793 10.8333 125.743 10.7C125.709 10.55 125.634 10.425 125.518 10.325C125.484 10.2917 125.468 10.2417 125.468 10.175V10.1C125.434 9.96667 125.393 9.84167 125.343 9.725C125.309 9.59167 125.268 9.46667 125.218 9.35C125.184 9.21667 125.143 9.1 125.093 9C125.059 8.88333 125.018 8.76667 124.968 8.65L124.668 7.75C124.618 7.63333 124.568 7.51667 124.518 7.4C124.484 7.28333 124.451 7.16667 124.418 7.05L124.343 6.95H124.268L124.218 7.025C124.134 7.275 124.034 7.525 123.918 7.775C123.818 8.025 123.726 8.29167 123.643 8.575C123.643 8.60833 123.634 8.65 123.618 8.7C123.601 8.75 123.584 8.8 123.568 8.85C123.501 9.01667 123.434 9.2 123.368 9.4C123.318 9.6 123.276 9.8 123.243 10C123.226 10.1167 123.209 10.2333 123.193 10.35C123.176 10.45 123.151 10.5583 123.118 10.675L122.893 11.65C122.876 11.6667 122.884 11.6917 122.918 11.725C122.951 11.7417 122.976 11.75 122.993 11.75Z" fill="#353535"/>
</svg>
