<svg width="134" height="25" viewBox="0 0 134 25" fill="none" xmlns="http://www.w3.org/2000/svg">
<path d="M12.0483 23.53C11.9683 23.55 11.9083 23.53 11.8683 23.47C11.7883 23.41 11.7083 23.35 11.6283 23.29C11.5683 23.23 11.4883 23.17 11.3883 23.11C11.2283 23.03 11.0983 22.89 10.9983 22.69C10.8183 22.41 10.7283 22.11 10.7283 21.79C10.7283 21.69 10.7183 21.59 10.6983 21.49C10.6983 21.39 10.6883 21.29 10.6683 21.19C10.6683 21.09 10.6583 21 10.6383 20.92C10.6383 20.82 10.6383 20.73 10.6383 20.65C10.6383 20.55 10.6383 20.45 10.6383 20.35C10.6383 20.23 10.6283 20.12 10.6083 20.02C10.6083 20 10.5983 19.99 10.5783 19.99C10.5783 19.97 10.5783 19.96 10.5783 19.96C10.5383 19.96 10.5083 19.97 10.4883 19.99L10.1283 20.44C10.0483 20.56 9.94832 20.67 9.82832 20.77C9.72832 20.85 9.62832 20.94 9.52832 21.04C9.20832 21.28 8.88832 21.48 8.56832 21.64C8.42832 21.7 8.29832 21.75 8.17832 21.79C7.49832 22.03 6.82832 22.14 6.16832 22.12C5.94832 22.1 5.71832 22.08 5.47832 22.06C5.25832 22.06 5.02832 22.03 4.78832 21.97C4.60832 21.91 4.42832 21.85 4.24832 21.79C4.08832 21.71 3.92832 21.61 3.76832 21.49C3.62832 21.37 3.48832 21.25 3.34832 21.13C3.20832 20.99 3.07832 20.84 2.95832 20.68C2.75832 20.36 2.62832 20.16 2.56832 20.08C2.50832 20 2.41832 19.8 2.29832 19.48L2.14832 19.21C2.08832 19.05 2.01832 18.9 1.93832 18.76C1.87832 18.6 1.82832 18.44 1.78832 18.28L1.63832 17.86C1.59832 17.72 1.55832 17.59 1.51832 17.47C1.47832 17.33 1.43832 17.19 1.39832 17.05C1.31832 16.79 1.24832 16.53 1.18832 16.27C1.12832 15.99 1.06832 15.72 1.00832 15.46L0.91832 14.92C0.91832 14.88 0.90832 14.84 0.88832 14.8C0.88832 14.74 0.88832 14.68 0.88832 14.62L0.70832 13.75C0.68832 13.65 0.67832 13.56 0.67832 13.48C0.67832 13.38 0.67832 13.29 0.67832 13.21C0.65832 13.05 0.64832 12.89 0.64832 12.73C0.66832 12.57 0.67832 12.41 0.67832 12.25C0.69832 12.03 0.72832 11.82 0.76832 11.62C0.80832 11.4 0.84832 11.19 0.88832 10.99C0.96832 10.71 1.04832 10.43 1.12832 10.15C1.22832 9.85 1.33832 9.57 1.45832 9.31C1.55832 9.09 1.65832 8.88 1.75832 8.68C1.85832 8.46 1.97832 8.25 2.11832 8.05C2.29832 7.75 2.48832 7.46 2.68832 7.18C2.90832 6.9 3.12832 6.63 3.34832 6.37C3.50832 6.19 3.66832 6.02 3.82832 5.86C3.98832 5.68 4.14832 5.5 4.30832 5.32C4.58832 5.04 4.88832 4.8 5.20832 4.6C5.36832 4.5 5.52832 4.44 5.68832 4.42C5.74832 4.4 5.79832 4.39 5.83832 4.39C5.89832 4.39 5.94832 4.38 5.98832 4.36C6.20832 4.32 6.40832 4.33 6.58832 4.39C6.64832 4.41 6.70832 4.43 6.76832 4.45C6.84832 4.47 6.91832 4.49 6.97832 4.51C7.23832 4.61 7.46832 4.67 7.66832 4.69C7.78832 4.69 7.92832 4.73 8.08832 4.81C8.18832 4.83 8.28832 4.86 8.38832 4.9C8.48832 4.92 8.58832 4.94 8.68832 4.96C8.80832 4.96 8.90832 4.99 8.98832 5.05C9.00832 5.05 9.02832 5.06 9.04832 5.08C9.08832 5.08 9.11832 5.08 9.13832 5.08C9.29832 5.1 9.43832 5.14 9.55832 5.2C9.67832 5.24 9.79832 5.3 9.91832 5.38C10.1983 5.56 10.4883 5.76 10.7883 5.98C10.9683 6.12 11.0583 6.31 11.0583 6.55V6.7C11.1183 6.94 11.0583 7.18 10.8783 7.42C10.7783 7.6 10.6983 7.72 10.6383 7.78C10.5983 7.82 10.4783 7.89 10.2783 7.99C10.2183 8.01 10.1483 8.04 10.0683 8.08C10.0083 8.1 9.92832 8.11 9.82832 8.11C9.78832 8.11 9.73832 8.12 9.67832 8.14C9.63832 8.14 9.59832 8.14 9.55832 8.14C9.49832 8.16 9.43832 8.16 9.37832 8.14C9.31832 8.12 9.25832 8.11 9.19832 8.11C9.17832 8.13 9.14832 8.12 9.10832 8.08L8.65832 7.72C8.33832 7.44 7.96832 7.28 7.54832 7.24C7.46832 7.22 7.38832 7.21 7.30832 7.21C7.22832 7.21 7.13832 7.2 7.03832 7.18C6.77832 7.18 6.56832 7.25 6.40832 7.39L6.19832 7.6C6.01832 7.8 5.82832 8 5.62832 8.2C5.44832 8.4 5.26832 8.6 5.08832 8.8C4.94832 8.94 4.82832 9.1 4.72832 9.28C4.62832 9.46 4.52832 9.64 4.42832 9.82C4.10832 10.44 3.86832 11.1 3.70832 11.8C3.68832 11.92 3.66832 12.04 3.64832 12.16C3.62832 12.26 3.60832 12.36 3.58832 12.46C3.58832 12.56 3.58832 12.66 3.58832 12.76C3.58832 12.86 3.59832 12.96 3.61832 13.06C3.63832 13.14 3.64832 13.22 3.64832 13.3C3.64832 13.36 3.65832 13.43 3.67832 13.51L3.76832 14.23C3.78832 14.35 3.80832 14.48 3.82832 14.62C3.86832 14.74 3.89832 14.86 3.91832 14.98C4.11832 15.76 4.35832 16.55 4.63832 17.35C4.73832 17.65 4.85832 17.91 4.99832 18.13L5.17832 18.4C5.23832 18.48 5.29832 18.56 5.35832 18.64C5.41832 18.7 5.47832 18.76 5.53832 18.82C5.65832 18.9 5.75832 18.95 5.83832 18.97C6.13832 19.03 6.44832 19.06 6.76832 19.06C7.16832 19.02 7.50832 18.89 7.78832 18.67C7.92832 18.57 8.04832 18.46 8.14832 18.34C8.26832 18.22 8.37832 18.09 8.47832 17.95C8.71832 17.67 8.92832 17.37 9.10832 17.05C9.16832 16.93 9.15832 16.81 9.07832 16.69C8.95832 16.49 8.80832 16.33 8.62832 16.21C8.40832 16.05 8.17832 15.92 7.93832 15.82C7.71832 15.7 7.46832 15.63 7.18832 15.61L7.03832 15.55C6.87832 15.49 6.70832 15.49 6.52832 15.55C6.38832 15.61 6.23832 15.64 6.07832 15.64C5.93832 15.62 5.78832 15.6 5.62832 15.58C5.26832 15.48 4.95832 15.32 4.69832 15.1C4.61832 15 4.54832 14.9 4.48832 14.8C4.44832 14.7 4.39832 14.61 4.33832 14.53C4.33832 14.49 4.32832 14.45 4.30832 14.41C4.30832 14.37 4.31832 14.34 4.33832 14.32C4.33832 14.22 4.33832 14.12 4.33832 14.02C4.35832 13.92 4.37832 13.82 4.39832 13.72C4.39832 13.7 4.41832 13.63 4.45832 13.51C4.49832 13.41 4.54832 13.32 4.60832 13.24C4.68832 13.14 4.76832 13.05 4.84832 12.97C5.16832 12.67 5.51832 12.48 5.89832 12.4C6.11832 12.34 6.33832 12.3 6.55832 12.28C6.77832 12.24 6.98832 12.21 7.18832 12.19H9.70832C9.86832 12.19 10.0383 12.19 10.2183 12.19C10.3983 12.19 10.5783 12.18 10.7583 12.16C10.9183 12.14 11.0683 12.13 11.2083 12.13C11.3683 12.13 11.5283 12.13 11.6883 12.13C11.8683 12.13 12.0283 12.16 12.1683 12.22C12.3883 12.28 12.5583 12.41 12.6783 12.61C12.7383 12.69 12.7983 12.78 12.8583 12.88C12.9183 12.98 12.9583 13.08 12.9783 13.18C12.9983 13.2 13.0083 13.23 13.0083 13.27C13.0083 13.29 13.0183 13.32 13.0383 13.36L13.2483 14.47C13.2883 14.63 13.3183 14.8 13.3383 14.98C13.3583 15.16 13.3783 15.34 13.3983 15.52C13.3983 15.62 13.3983 15.73 13.3983 15.85C13.4183 15.95 13.4283 16.05 13.4283 16.15C13.4283 16.23 13.4283 16.32 13.4283 16.42C13.4483 16.52 13.4583 16.62 13.4583 16.72V18.1C13.4583 18.24 13.4583 18.4 13.4583 18.58C13.4783 18.74 13.4983 18.9 13.5183 19.06C13.5383 19.14 13.5483 19.22 13.5483 19.3C13.5483 19.38 13.5483 19.47 13.5483 19.57C13.5283 19.77 13.5383 19.98 13.5783 20.2C13.6183 20.4 13.6483 20.61 13.6683 20.83C13.6883 20.93 13.7083 21.04 13.7283 21.16C13.7683 21.26 13.7983 21.37 13.8183 21.49C13.8383 21.57 13.8483 21.66 13.8483 21.76C13.8683 21.84 13.8783 21.93 13.8783 22.03C13.8783 22.11 13.8683 22.19 13.8483 22.27C13.8483 22.37 13.8183 22.46 13.7583 22.54C13.7183 22.58 13.6783 22.64 13.6383 22.72C13.5583 22.94 13.3883 23.12 13.1283 23.26C12.9283 23.34 12.7183 23.4 12.4983 23.44C12.3183 23.44 12.1683 23.47 12.0483 23.53ZM28.5685 24.19C28.3885 24.19 28.2285 24.12 28.0885 23.98C28.0485 23.92 28.0085 23.86 27.9685 23.8C27.9285 23.74 27.8885 23.68 27.8485 23.62C27.6685 23.2 27.5785 22.76 27.5785 22.3L27.4885 21.58C27.4285 21.3 27.3785 21.02 27.3385 20.74C27.2985 20.46 27.2285 20.19 27.1285 19.93L26.9485 19.42C26.9485 19.38 26.9385 19.34 26.9185 19.3C26.9185 19.26 26.9085 19.22 26.8885 19.18L26.4385 17.59C26.4185 17.55 26.3985 17.5 26.3785 17.44C26.3785 17.38 26.3585 17.33 26.3185 17.29C26.2585 17.17 26.2085 17.05 26.1685 16.93C26.1485 16.79 26.1185 16.65 26.0785 16.51C26.0585 16.41 26.0385 16.32 26.0185 16.24C25.9985 16.14 25.9685 16.04 25.9285 15.94C25.8885 15.82 25.8485 15.75 25.8085 15.73C25.7685 15.69 25.6785 15.69 25.5385 15.73C25.4385 15.75 25.3285 15.77 25.2085 15.79C25.1085 15.79 25.0085 15.81 24.9085 15.85C24.8285 15.87 24.7285 15.89 24.6085 15.91C24.5085 15.91 24.4085 15.92 24.3085 15.94L23.8885 16.03C23.7885 16.05 23.6785 16.08 23.5585 16.12C23.4585 16.14 23.3585 16.15 23.2585 16.15L22.7185 16.24C22.5585 16.28 22.3885 16.32 22.2085 16.36C22.0285 16.4 21.8585 16.44 21.6985 16.48C21.2185 16.6 20.7385 16.69 20.2585 16.75C20.0985 16.79 20.0085 16.86 19.9885 16.96C19.9685 16.96 19.9585 16.97 19.9585 16.99C19.8385 17.31 19.6985 17.63 19.5385 17.95C19.3985 18.25 19.2485 18.56 19.0885 18.88C19.0485 18.96 19.0085 19.04 18.9685 19.12C18.9485 19.18 18.9185 19.25 18.8785 19.33C18.8585 19.37 18.8385 19.42 18.8185 19.48C18.7985 19.52 18.7785 19.56 18.7585 19.6C18.6385 19.74 18.5785 19.91 18.5785 20.11C18.5585 20.23 18.5185 20.35 18.4585 20.47C18.3985 20.57 18.3385 20.67 18.2785 20.77C18.2585 20.83 18.2185 20.86 18.1585 20.86C18.0785 20.88 17.9985 20.91 17.9185 20.95C17.8385 20.99 17.7485 21.03 17.6485 21.07C17.5885 21.09 17.5285 21.09 17.4685 21.07C17.4285 21.05 17.3785 21.03 17.3185 21.01C17.2785 20.97 17.2385 20.95 17.1985 20.95C16.9785 20.93 16.8185 20.8 16.7185 20.56C16.5585 20.24 16.4485 19.92 16.3885 19.6C16.3685 19.52 16.3685 19.45 16.3885 19.39C16.4285 19.33 16.4585 19.27 16.4785 19.21C16.5985 19.13 16.6685 19.04 16.6885 18.94V18.91C16.6885 18.65 16.7385 18.41 16.8385 18.19C16.9585 17.95 17.0585 17.72 17.1385 17.5C17.1785 17.38 17.2285 17.26 17.2885 17.14C17.3485 17.02 17.4085 16.9 17.4685 16.78C17.5485 16.64 17.6085 16.51 17.6485 16.39C17.7085 16.25 17.7585 16.11 17.7985 15.97C17.8585 15.81 17.8585 15.66 17.7985 15.52C17.7585 15.4 17.7385 15.29 17.7385 15.19C17.7385 15.07 17.7485 14.95 17.7685 14.83C17.7685 14.61 17.8485 14.42 18.0085 14.26C18.0885 14.16 18.1685 14.08 18.2485 14.02C18.3485 13.94 18.4385 13.86 18.5185 13.78C18.6985 13.6 18.8385 13.36 18.9385 13.06C19.0185 12.8 19.0785 12.54 19.1185 12.28C19.1785 12 19.2385 11.73 19.2985 11.47C19.3385 11.21 19.3785 10.96 19.4185 10.72C19.4785 10.46 19.5385 10.21 19.5985 9.97C19.6185 9.87 19.6385 9.78 19.6585 9.7C19.6985 9.6 19.7285 9.51 19.7485 9.43C19.8085 9.27 19.8685 9.12 19.9285 8.98C19.9885 8.82 20.0285 8.66 20.0485 8.5C20.0885 8.42 20.0885 8.35 20.0485 8.29C20.0285 8.19 20.0285 8.1 20.0485 8.02C20.0885 7.94 20.1185 7.86 20.1385 7.78C20.1985 7.64 20.2385 7.5 20.2585 7.36C20.2985 7.22 20.3485 7.08 20.4085 6.94C20.5085 6.68 20.5885 6.47 20.6485 6.31C20.7285 6.13 20.7985 5.93 20.8585 5.71C20.8985 5.59 20.9385 5.48 20.9785 5.38C21.0385 5.26 21.0785 5.14 21.0985 5.02C21.1585 4.84 21.2085 4.66 21.2485 4.48C21.2885 4.28 21.3085 4.09 21.3085 3.91C21.3485 3.75 21.3885 3.64 21.4285 3.58C21.5285 3.38 21.6485 3.21 21.7885 3.07C21.9485 2.93 22.0985 2.79 22.2385 2.65C22.3385 2.59 22.4385 2.55 22.5385 2.53C22.6385 2.49 22.7385 2.5 22.8385 2.56C22.9185 2.6 22.9685 2.62 22.9885 2.62C23.1685 2.6 23.3185 2.64 23.4385 2.74C23.5585 2.84 23.6585 2.96 23.7385 3.1C23.7785 3.14 23.8085 3.19 23.8285 3.25C23.8485 3.31 23.8685 3.36 23.8885 3.4C23.9885 3.56 24.0385 3.72 24.0385 3.88C24.0385 3.96 24.0485 4.05 24.0685 4.15C24.0885 4.23 24.1085 4.32 24.1285 4.42C24.1885 4.54 24.2785 4.6 24.3985 4.6C24.4185 4.58 24.4385 4.58 24.4585 4.6C24.4785 4.62 24.4885 4.64 24.4885 4.66C24.5885 4.78 24.6185 4.91 24.5785 5.05C24.5385 5.21 24.5285 5.37 24.5485 5.53C24.5885 5.67 24.6285 5.82 24.6685 5.98C24.7485 6.18 24.8285 6.38 24.9085 6.58C24.9885 6.78 25.0685 6.98 25.1485 7.18C25.2485 7.4 25.3485 7.62 25.4485 7.84C25.5485 8.06 25.6385 8.28 25.7185 8.5C25.8185 8.78 25.9185 9.06 26.0185 9.34C26.1385 9.62 26.2685 9.9 26.4085 10.18L26.4985 10.51C26.5185 10.59 26.5385 10.67 26.5585 10.75C26.5985 10.83 26.6285 10.91 26.6485 10.99C26.6885 11.05 26.7185 11.11 26.7385 11.17C26.7785 11.23 26.8185 11.28 26.8585 11.32C26.9585 11.46 27.0185 11.61 27.0385 11.77C27.0985 11.97 27.1885 12.15 27.3085 12.31C27.3485 12.37 27.4085 12.4 27.4885 12.4C27.7885 12.36 28.0885 12.33 28.3885 12.31C28.6885 12.27 28.9885 12.21 29.2885 12.13C29.5085 12.07 29.7185 12.04 29.9185 12.04C30.2985 12.04 30.6485 12.17 30.9685 12.43C31.3485 12.73 31.5485 13.11 31.5685 13.57C31.5685 13.67 31.5785 13.75 31.5985 13.81C31.5985 13.95 31.5585 14.06 31.4785 14.14C31.4585 14.2 31.4185 14.26 31.3585 14.32C31.3185 14.38 31.2785 14.44 31.2385 14.5C31.1985 14.58 31.1585 14.64 31.1185 14.68L30.9385 14.83C30.9185 14.87 30.8885 14.92 30.8485 14.98C30.8085 15.02 30.7585 15.05 30.6985 15.07C30.6185 15.09 30.5385 15.12 30.4585 15.16C30.3785 15.18 30.2885 15.19 30.1885 15.19C29.8285 15.23 29.5085 15.22 29.2285 15.16H28.7485C28.7085 15.16 28.6485 15.18 28.5685 15.22C28.4885 15.26 28.4485 15.31 28.4485 15.37V15.49C28.5085 15.67 28.5485 15.86 28.5685 16.06C28.6085 16.24 28.6685 16.41 28.7485 16.57C28.7485 16.65 28.7685 16.73 28.8085 16.81C28.9085 16.99 28.9885 17.18 29.0485 17.38C29.1085 17.56 29.1585 17.75 29.1985 17.95C29.1985 17.99 29.2185 18.07 29.2585 18.19C29.3185 18.33 29.3685 18.48 29.4085 18.64C29.4485 18.78 29.4785 18.93 29.4985 19.09C29.4985 19.21 29.5285 19.32 29.5885 19.42C29.6685 19.6 29.7285 19.78 29.7685 19.96C29.8085 20.14 29.8385 20.33 29.8585 20.53C29.8785 20.55 29.8885 20.59 29.8885 20.65C29.8885 20.69 29.8985 20.73 29.9185 20.77C30.0185 20.99 30.0885 21.23 30.1285 21.49C30.1685 21.73 30.2185 21.97 30.2785 22.21C30.3185 22.33 30.3385 22.45 30.3385 22.57C30.3585 22.71 30.3685 22.85 30.3685 22.99C30.3685 23.09 30.3385 23.2 30.2785 23.32C30.2185 23.38 30.1885 23.41 30.1885 23.41C30.0685 23.43 29.9985 23.5 29.9785 23.62L29.8885 23.8C29.8485 23.88 29.7885 23.93 29.7085 23.95C29.6285 23.95 29.5585 23.98 29.4985 24.04C29.4185 24.12 29.3085 24.16 29.1685 24.16C29.0885 24.16 28.9885 24.16 28.8685 24.16C28.7685 24.16 28.6685 24.17 28.5685 24.19ZM21.3385 13.3C21.4585 13.28 21.5785 13.26 21.6985 13.24C21.8385 13.22 21.9885 13.2 22.1485 13.18C22.2485 13.16 22.3785 13.14 22.5385 13.12C22.6985 13.1 22.8485 13.08 22.9885 13.06C23.1285 13.02 23.2685 13 23.4085 13C23.5485 12.98 23.6885 12.96 23.8285 12.94C23.9485 12.9 24.0685 12.88 24.1885 12.88C24.3085 12.86 24.4285 12.84 24.5485 12.82C24.7285 12.78 24.7985 12.68 24.7585 12.52C24.7385 12.36 24.6985 12.2 24.6385 12.04C24.5985 11.86 24.5085 11.71 24.3685 11.59C24.3285 11.55 24.3085 11.49 24.3085 11.41V11.32C24.2685 11.16 24.2185 11.01 24.1585 10.87C24.1185 10.71 24.0685 10.56 24.0085 10.42C23.9685 10.26 23.9185 10.12 23.8585 10C23.8185 9.86 23.7685 9.72 23.7085 9.58L23.3485 8.5C23.2885 8.36 23.2285 8.22 23.1685 8.08C23.1285 7.94 23.0885 7.8 23.0485 7.66L22.9585 7.54H22.8685L22.8085 7.63C22.7085 7.93 22.5885 8.23 22.4485 8.53C22.3285 8.83 22.2185 9.15 22.1185 9.49C22.1185 9.53 22.1085 9.58 22.0885 9.64C22.0685 9.7 22.0485 9.76 22.0285 9.82C21.9485 10.02 21.8685 10.24 21.7885 10.48C21.7285 10.72 21.6785 10.96 21.6385 11.2C21.6185 11.34 21.5985 11.48 21.5785 11.62C21.5585 11.74 21.5285 11.87 21.4885 12.01L21.2185 13.18C21.1985 13.2 21.2085 13.23 21.2485 13.27C21.2885 13.29 21.3185 13.3 21.3385 13.3ZM36.6031 22.6C36.2231 22.64 35.9131 22.52 35.6731 22.24C35.5531 22.12 35.4431 21.99 35.3431 21.85C35.2431 21.71 35.1631 21.56 35.1031 21.4C35.0031 21.12 34.9131 20.84 34.8331 20.56C34.7531 20.26 34.6831 19.97 34.6231 19.69C34.5631 19.47 34.5331 19.26 34.5331 19.06C34.5131 18.84 34.4831 18.63 34.4431 18.43C34.4231 18.21 34.4131 17.99 34.4131 17.77C34.4131 17.65 34.4131 17.53 34.4131 17.41C34.4131 17.27 34.4031 17.14 34.3831 17.02C34.3631 16.94 34.3531 16.87 34.3531 16.81C34.3531 16.75 34.3531 16.68 34.3531 16.6C34.3531 16.32 34.3531 16.04 34.3531 15.76C34.3531 15.46 34.3431 15.17 34.3231 14.89C34.3231 14.73 34.3131 14.59 34.2931 14.47C34.2731 14.33 34.2331 14.19 34.1731 14.05C34.0931 13.83 34.0831 13.59 34.1431 13.33C34.1431 13.27 34.1531 13.23 34.1731 13.21C34.2131 13.07 34.2331 12.93 34.2331 12.79C34.2531 12.65 34.2531 12.51 34.2331 12.37C34.2131 12.27 34.2031 12.17 34.2031 12.07C34.2031 11.97 34.2031 11.88 34.2031 11.8C34.1831 11.58 34.1731 11.36 34.1731 11.14C34.1931 10.9 34.2131 10.67 34.2331 10.45C34.2531 10.39 34.2631 10.33 34.2631 10.27C34.2631 10.21 34.2631 10.15 34.2631 10.09C34.2431 9.87 34.2431 9.66 34.2631 9.46C34.3031 9.26 34.3331 9.06 34.3531 8.86C34.3931 8.62 34.4331 8.39 34.4731 8.17C34.5131 7.93 34.5631 7.69 34.6231 7.45C34.6631 7.35 34.6831 7.24 34.6831 7.12C34.6831 7 34.6831 6.88 34.6831 6.76C34.6831 6.66 34.6731 6.56 34.6531 6.46C34.6531 6.36 34.6531 6.27 34.6531 6.19C34.6531 6.13 34.6531 6.07 34.6531 6.01C34.6531 5.95 34.6631 5.89 34.6831 5.83C34.7031 5.77 34.7131 5.71 34.7131 5.65C34.7131 5.59 34.7231 5.55 34.7431 5.53C34.8031 5.45 34.8531 5.38 34.8931 5.32C34.9331 5.24 34.9931 5.17 35.0731 5.11C35.1731 5.05 35.2631 4.99 35.3431 4.93C35.4431 4.87 35.5331 4.82 35.6131 4.78C35.7131 4.74 35.7931 4.69 35.8531 4.63C35.9331 4.53 36.0131 4.44 36.0931 4.36C36.1931 4.26 36.2731 4.15 36.3331 4.03C36.4331 3.93 36.5331 3.82 36.6331 3.7C36.7531 3.56 36.8831 3.45 37.0231 3.37C37.0631 3.35 37.1231 3.3 37.2031 3.22C37.4431 3 37.7231 2.86 38.0431 2.8C38.1031 2.78 38.1531 2.77 38.1931 2.77C38.2531 2.75 38.3131 2.74 38.3731 2.74L38.5831 2.65C38.7431 2.59 38.8831 2.62 39.0031 2.74C39.0431 2.8 39.0931 2.86 39.1531 2.92C39.2331 2.96 39.3031 3 39.3631 3.04C39.5231 3.18 39.6731 3.33 39.8131 3.49C39.9731 3.65 40.1131 3.83 40.2331 4.03C40.4331 4.35 40.6031 4.67 40.7431 4.99C40.9031 5.31 41.0531 5.64 41.1931 5.98L41.7331 7.27C41.7531 7.39 41.8031 7.5 41.8831 7.6C42.0431 7.9 42.1631 8.21 42.2431 8.53C42.3231 8.83 42.4031 9.14 42.4831 9.46C42.5031 9.5 42.5131 9.54 42.5131 9.58C42.5331 9.62 42.5431 9.66 42.5431 9.7C42.5831 9.86 42.6131 10.03 42.6331 10.21C42.6731 10.37 42.6831 10.53 42.6631 10.69C42.6831 10.87 42.6731 11.05 42.6331 11.23C42.6131 11.39 42.5831 11.55 42.5431 11.71C42.4831 11.91 42.4131 12.1 42.3331 12.28C42.2531 12.44 42.1631 12.61 42.0631 12.79C42.0231 12.91 41.9531 13.02 41.8531 13.12C41.7531 13.22 41.6531 13.31 41.5531 13.39C41.3931 13.47 41.2331 13.59 41.0731 13.75C41.0331 13.79 40.9831 13.82 40.9231 13.84C40.8831 13.86 40.8431 13.89 40.8031 13.93C40.6631 13.99 40.5131 14.06 40.3531 14.14C40.1931 14.2 40.0331 14.26 39.8731 14.32C39.8531 14.32 39.8431 14.34 39.8431 14.38C39.8431 14.4 39.8531 14.42 39.8731 14.44L40.6831 15.01C40.7831 15.07 40.8731 15.13 40.9531 15.19C41.0331 15.23 41.1131 15.28 41.1931 15.34L41.3731 15.43C41.6131 15.57 41.8531 15.72 42.0931 15.88C42.3331 16.04 42.5631 16.2 42.7831 16.36C43.2031 16.62 43.6231 16.89 44.0431 17.17C44.4631 17.43 44.8631 17.72 45.2431 18.04C45.5831 18.3 45.8831 18.6 46.1431 18.94C46.2031 19 46.2631 19.07 46.3231 19.15C46.3831 19.21 46.4531 19.26 46.5331 19.3L46.6231 19.39C46.9431 19.67 47.1231 20.05 47.1631 20.53C47.1631 20.59 47.1531 20.65 47.1331 20.71C47.1331 20.77 47.1331 20.83 47.1331 20.89C47.1331 21.01 47.0931 21.11 47.0131 21.19C46.9331 21.23 46.8931 21.28 46.8931 21.34C46.8331 21.48 46.7431 21.58 46.6231 21.64C46.5231 21.68 46.4231 21.74 46.3231 21.82C46.2831 21.84 46.2131 21.85 46.1131 21.85C45.9931 21.83 45.8631 21.81 45.7231 21.79C45.6031 21.77 45.4831 21.76 45.3631 21.76C45.2031 21.76 45.0331 21.69 44.8531 21.55C44.7331 21.45 44.6231 21.36 44.5231 21.28C44.4231 21.18 44.3231 21.06 44.2231 20.92C43.9631 20.56 43.6231 20.23 43.2031 19.93C43.0031 19.77 42.8131 19.62 42.6331 19.48C42.4531 19.34 42.2531 19.21 42.0331 19.09C41.8931 19.01 41.7531 18.93 41.6131 18.85C41.4931 18.75 41.3531 18.66 41.1931 18.58C40.6931 18.24 40.1831 17.91 39.6631 17.59C39.1431 17.25 38.6231 16.91 38.1031 16.57C38.0231 16.51 37.9331 16.45 37.8331 16.39C37.7331 16.33 37.6331 16.27 37.5331 16.21C37.4931 16.17 37.4331 16.13 37.3531 16.09C37.2731 16.09 37.2331 16.12 37.2331 16.18C37.2331 16.2 37.2231 16.22 37.2031 16.24C37.2031 16.24 37.2031 16.25 37.2031 16.27C37.2031 16.33 37.2031 16.39 37.2031 16.45C37.2031 16.51 37.2131 16.57 37.2331 16.63C37.2531 16.79 37.2631 16.95 37.2631 17.11C37.2631 17.25 37.2631 17.4 37.2631 17.56C37.2631 17.68 37.2631 17.8 37.2631 17.92C37.2831 18.02 37.3031 18.13 37.3231 18.25C37.3231 18.31 37.3231 18.38 37.3231 18.46C37.3431 18.52 37.3531 18.58 37.3531 18.64C37.3331 18.82 37.3431 19 37.3831 19.18C37.4231 19.36 37.4531 19.54 37.4731 19.72L37.6531 20.5C37.6731 20.58 37.6931 20.67 37.7131 20.77C37.7331 20.85 37.7531 20.94 37.7731 21.04C37.7931 21.12 37.7931 21.2 37.7731 21.28C37.7731 21.34 37.7631 21.41 37.7431 21.49C37.7431 21.51 37.7231 21.54 37.6831 21.58C37.5831 21.6 37.5131 21.67 37.4731 21.79C37.4131 21.93 37.3231 22.05 37.2031 22.15C37.1031 22.27 36.9931 22.38 36.8731 22.48C36.8531 22.5 36.8131 22.52 36.7531 22.54C36.6931 22.56 36.6431 22.58 36.6031 22.6ZM37.7731 12.1H37.8331C38.0531 12.06 38.2731 12.02 38.4931 11.98C38.7331 11.92 38.9631 11.85 39.1831 11.77C39.4031 11.71 39.5931 11.6 39.7531 11.44C39.8931 11.3 39.9631 11.14 39.9631 10.96C39.9831 10.82 39.9831 10.69 39.9631 10.57C39.9631 10.43 39.9431 10.29 39.9031 10.15C39.8231 9.79 39.7331 9.44 39.6331 9.1C39.5331 8.74 39.4131 8.4 39.2731 8.08L39.0031 7.36C38.9431 7.16 38.8731 6.97 38.7931 6.79C38.7131 6.59 38.6231 6.4 38.5231 6.22C38.5031 6.18 38.4831 6.14 38.4631 6.1C38.4431 6.04 38.4231 5.99 38.4031 5.95L38.2831 5.83C38.2231 5.75 38.1531 5.75 38.0731 5.83C38.0531 5.83 38.0231 5.85 37.9831 5.89C37.8431 6.07 37.7131 6.26 37.5931 6.46C37.4931 6.66 37.4331 6.88 37.4131 7.12C37.3931 7.2 37.3731 7.28 37.3531 7.36C37.3531 7.44 37.3531 7.53 37.3531 7.63V8.92C37.3331 9.2 37.3231 9.49 37.3231 9.79C37.3431 10.09 37.3331 10.38 37.2931 10.66C37.2731 10.72 37.2631 10.78 37.2631 10.84C37.2831 10.9 37.2931 10.96 37.2931 11.02C37.3131 11.14 37.3231 11.26 37.3231 11.38C37.3231 11.48 37.3231 11.59 37.3231 11.71C37.3231 11.91 37.3431 12.03 37.3831 12.07C37.4431 12.11 37.5731 12.12 37.7731 12.1ZM55.7082 22.6C55.5082 22.58 55.3082 22.55 55.1082 22.51C54.9282 22.49 54.7482 22.44 54.5682 22.36L53.8182 22.09C53.5582 21.99 53.3182 21.88 53.0982 21.76C52.8782 21.62 52.6582 21.48 52.4382 21.34C52.3382 21.24 52.2382 21.15 52.1382 21.07C52.0382 20.97 51.9382 20.88 51.8382 20.8C51.6782 20.64 51.5182 20.48 51.3582 20.32C51.1982 20.14 51.0482 19.95 50.9082 19.75L50.1882 18.64C50.0082 18.36 49.8482 18.07 49.7082 17.77C49.5682 17.45 49.4482 17.13 49.3482 16.81C49.1282 16.21 49.0182 15.62 49.0182 15.04V14.56C49.0182 14.06 49.0482 13.57 49.1082 13.09C49.1482 12.69 49.2382 12.33 49.3782 12.01C49.4582 11.81 49.5282 11.61 49.5882 11.41C49.6482 11.21 49.7182 11.02 49.7982 10.84L49.8882 10.63C49.9282 10.37 50.0182 10.14 50.1582 9.94C50.2982 9.72 50.4182 9.51 50.5182 9.31C50.5982 9.15 50.6882 9.01 50.7882 8.89C50.8882 8.75 50.9782 8.61 51.0582 8.47C51.0982 8.41 51.1482 8.36 51.2082 8.32C51.2682 8.26 51.3182 8.2 51.3582 8.14C51.3982 8.1 51.4282 8.05 51.4482 7.99C51.4882 7.91 51.5182 7.84 51.5382 7.78C51.5782 7.72 51.6482 7.64 51.7482 7.54C51.8682 7.48 51.9782 7.34 52.0782 7.12C52.1182 7.04 52.1582 6.98 52.1982 6.94C52.3182 6.84 52.4182 6.72 52.4982 6.58C52.5982 6.44 52.7082 6.31 52.8282 6.19C52.9082 6.11 52.9482 6 52.9482 5.86C52.9482 5.76 52.9482 5.67 52.9482 5.59C52.9682 5.49 52.9682 5.4 52.9482 5.32C52.9282 5.22 52.9582 5.13 53.0382 5.05C53.0782 5.01 53.1082 4.96 53.1282 4.9C53.1482 4.84 53.1682 4.78 53.1882 4.72C53.2482 4.52 53.4082 4.35 53.6682 4.21C53.7082 4.17 53.7582 4.15 53.8182 4.15C53.8982 4.13 53.9682 4.11 54.0282 4.09C54.1682 4.03 54.3282 4.02 54.5082 4.06C54.5882 4.08 54.6582 4.09 54.7182 4.09C54.7782 4.07 54.8382 4.05 54.8982 4.03C54.9782 3.99 55.0482 3.96 55.1082 3.94C55.1882 3.92 55.2582 3.9 55.3182 3.88C55.5982 3.78 55.8882 3.79 56.1882 3.91C56.5082 4.03 56.7382 4.24 56.8782 4.54C56.9182 4.64 56.9582 4.74 56.9982 4.84C57.0382 4.94 57.0682 5.04 57.0882 5.14C57.1282 5.36 57.1182 5.55 57.0582 5.71C57.0182 5.79 56.9982 5.84 56.9982 5.86C56.9782 5.94 56.9982 6.01 57.0582 6.07C57.0982 6.13 57.1482 6.18 57.2082 6.22C57.4282 6.42 57.6382 6.62 57.8382 6.82C58.0382 7 58.2282 7.2 58.4082 7.42C58.5682 7.58 58.6982 7.75 58.7982 7.93C58.9182 8.09 59.0282 8.27 59.1282 8.47C59.1682 8.57 59.2182 8.68 59.2782 8.8C59.3382 8.9 59.3982 9 59.4582 9.1C59.5582 9.28 59.6382 9.47 59.6982 9.67C59.7782 9.87 59.8582 10.07 59.9382 10.27V10.3C59.9782 10.44 60.0082 10.59 60.0282 10.75C60.0682 10.89 60.1282 11.04 60.2082 11.2C60.2682 11.34 60.3182 11.49 60.3582 11.65C60.3982 11.79 60.4382 11.94 60.4782 12.1C60.5182 12.28 60.5582 12.46 60.5982 12.64C60.6582 12.82 60.6982 13 60.7182 13.18C60.7382 13.26 60.7582 13.34 60.7782 13.42C60.7982 13.48 60.8182 13.55 60.8382 13.63C60.8782 13.81 60.9182 13.99 60.9582 14.17C60.9982 14.35 61.0282 14.53 61.0482 14.71L61.1382 14.92C61.1782 15.04 61.2182 15.2 61.2582 15.4C61.3182 15.66 61.3482 15.92 61.3482 16.18C61.3682 16.44 61.3682 16.71 61.3482 16.99C61.3482 17.13 61.3382 17.24 61.3182 17.32C61.1982 17.74 61.0482 18.17 60.8682 18.61C60.7882 18.75 60.7082 18.89 60.6282 19.03C60.5482 19.15 60.4682 19.28 60.3882 19.42L60.1182 19.84C60.0182 20.02 59.9082 20.18 59.7882 20.32C59.5882 20.64 59.3482 20.92 59.0682 21.16C58.7882 21.4 58.4882 21.63 58.1682 21.85C57.4682 22.39 56.6482 22.64 55.7082 22.6ZM55.5882 19.63C56.0082 19.63 56.3682 19.51 56.6682 19.27C56.7682 19.17 56.8682 19.08 56.9682 19C57.0882 18.9 57.1882 18.8 57.2682 18.7C57.6482 18.28 57.9482 17.84 58.1682 17.38L58.2582 17.08C58.2982 16.72 58.2982 16.36 58.2582 16L58.0782 15.01C58.0182 14.75 57.9682 14.5 57.9282 14.26C57.8882 14 57.8282 13.75 57.7482 13.51C57.6882 13.37 57.6682 13.26 57.6882 13.18C57.7082 13.08 57.7082 12.98 57.6882 12.88C57.6682 12.78 57.6382 12.68 57.5982 12.58C57.5382 12.32 57.4682 12.06 57.3882 11.8C57.3082 11.54 57.2282 11.28 57.1482 11.02C57.1282 10.96 57.1082 10.9 57.0882 10.84C57.0682 10.78 57.0482 10.72 57.0282 10.66C56.8882 10.38 56.7382 10.11 56.5782 9.85C56.4182 9.59 56.2382 9.35 56.0382 9.13C55.9382 9.01 55.8282 8.9 55.7082 8.8C55.5882 8.68 55.4682 8.57 55.3482 8.47C55.3282 8.43 55.2982 8.41 55.2582 8.41C55.2382 8.39 55.2082 8.37 55.1682 8.35C55.1082 8.27 55.0282 8.28 54.9282 8.38C54.8282 8.48 54.7182 8.59 54.5982 8.71C54.4982 8.83 54.3982 8.95 54.2982 9.07C54.1982 9.21 54.0882 9.35 53.9682 9.49C53.8682 9.63 53.7682 9.77 53.6682 9.91C53.5282 10.09 53.3982 10.27 53.2782 10.45C53.1582 10.63 53.0382 10.81 52.9182 10.99C52.4982 11.67 52.1682 12.42 51.9282 13.24C51.8882 13.36 51.8682 13.45 51.8682 13.51C51.8482 13.65 51.8282 13.79 51.8082 13.93C51.8082 14.07 51.8082 14.22 51.8082 14.38V14.62C51.8282 14.68 51.8382 14.74 51.8382 14.8C51.8382 14.86 51.8482 14.92 51.8682 14.98C51.8682 15.22 51.9282 15.48 52.0482 15.76C52.2082 16.16 52.3882 16.55 52.5882 16.93C52.7882 17.31 53.0182 17.67 53.2782 18.01C53.3382 18.09 53.3982 18.17 53.4582 18.25C53.5382 18.33 53.6082 18.41 53.6682 18.49C53.8482 18.69 54.0382 18.87 54.2382 19.03C54.4582 19.19 54.6782 19.33 54.8982 19.45C55.1382 19.57 55.3682 19.63 55.5882 19.63ZM69.4756 21.97C69.4356 21.95 69.3756 21.94 69.2956 21.94C69.2556 21.94 69.2156 21.91 69.1756 21.85C69.1356 21.79 69.0956 21.74 69.0556 21.7C69.0156 21.64 68.9756 21.57 68.9356 21.49C68.8756 21.41 68.8256 21.41 68.7856 21.49H68.7256C68.7256 21.47 68.7156 21.46 68.6956 21.46C68.6956 21.44 68.6956 21.43 68.6956 21.43C68.6356 21.15 68.5456 20.89 68.4256 20.65C68.3656 20.49 68.3056 20.33 68.2456 20.17C68.2056 19.99 68.1756 19.81 68.1556 19.63L67.9756 18.31L67.8856 17.23V17.17C67.8456 16.93 67.8256 16.69 67.8256 16.45C67.8256 16.19 67.8256 15.93 67.8256 15.67C67.8056 15.53 67.7956 15.4 67.7956 15.28C67.7956 15.14 67.7856 15 67.7656 14.86C67.7456 14.7 67.7256 14.54 67.7056 14.38C67.7056 14.22 67.7056 14.07 67.7056 13.93L67.7356 11.56V8.35C67.6956 8.23 67.6356 8.17 67.5556 8.17C67.5156 8.17 67.4656 8.18 67.4056 8.2C67.3656 8.2 67.3256 8.2 67.2856 8.2L65.9356 8.56C65.7556 8.62 65.5756 8.68 65.3956 8.74C65.2156 8.78 65.0356 8.83 64.8556 8.89C64.7156 8.91 64.5756 8.93 64.4356 8.95C64.3156 8.95 64.1856 8.95 64.0456 8.95C63.9456 8.95 63.8356 8.91 63.7156 8.83C63.5756 8.77 63.4556 8.69 63.3556 8.59C63.2556 8.49 63.1556 8.38 63.0556 8.26L62.9956 8.17C62.9556 8.03 62.9156 7.9 62.8756 7.78C62.8556 7.64 62.8556 7.5 62.8756 7.36C62.8956 7.18 62.9356 7.01 62.9956 6.85C63.0756 6.69 63.1856 6.55 63.3256 6.43C63.3856 6.39 63.4356 6.34 63.4756 6.28C63.5356 6.22 63.5956 6.16 63.6556 6.1C63.7356 6.06 63.7856 6.04 63.8056 6.04C63.9256 6.04 64.0356 6.02 64.1356 5.98C64.2356 5.92 64.3356 5.88 64.4356 5.86C64.5356 5.84 64.6356 5.82 64.7356 5.8C64.8356 5.78 64.9356 5.76 65.0356 5.74C65.3156 5.66 65.5956 5.59 65.8756 5.53C66.1556 5.45 66.4356 5.39 66.7156 5.35L68.3356 5.08C68.3756 5.06 68.4056 5.05 68.4256 5.05C68.4656 5.05 68.4956 5.04 68.5156 5.02C68.6356 4.98 68.7556 4.95 68.8756 4.93C68.9956 4.91 69.1156 4.92 69.2356 4.96C69.2756 4.98 69.3056 4.99 69.3256 4.99C69.3656 4.97 69.3956 4.96 69.4156 4.96C69.7556 4.92 70.0956 4.88 70.4356 4.84C70.7756 4.8 71.1056 4.75 71.4256 4.69C71.6856 4.65 71.9456 4.61 72.2056 4.57C72.4656 4.53 72.7256 4.5 72.9856 4.48C73.1856 4.44 73.3856 4.41 73.5856 4.39C73.7856 4.37 73.9856 4.35 74.1856 4.33C74.3456 4.31 74.5056 4.29 74.6656 4.27C74.8456 4.25 75.0156 4.23 75.1756 4.21C75.3356 4.19 75.4856 4.19 75.6256 4.21C75.7856 4.21 75.9456 4.21 76.1056 4.21C76.2056 4.21 76.2956 4.24 76.3756 4.3C76.4756 4.36 76.5656 4.41 76.6456 4.45C76.7256 4.51 76.8356 4.61 76.9756 4.75C77.0156 4.79 77.0556 4.88 77.0956 5.02C77.1156 5.08 77.1356 5.15 77.1556 5.23C77.1756 5.29 77.1956 5.36 77.2156 5.44C77.2556 5.62 77.2356 5.79 77.1556 5.95L76.9756 6.37C76.9556 6.43 76.9256 6.49 76.8856 6.55C76.8656 6.59 76.8356 6.63 76.7956 6.67C76.7556 6.71 76.7356 6.73 76.7356 6.73C76.6556 6.79 76.5656 6.85 76.4656 6.91C76.3856 6.97 76.2856 7.01 76.1656 7.03L74.8756 7.12C74.7556 7.12 74.6356 7.13 74.5156 7.15C74.3956 7.15 74.2656 7.16 74.1256 7.18H73.9756C73.6556 7.2 73.3456 7.23 73.0456 7.27C72.7456 7.31 72.4456 7.35 72.1456 7.39L70.9456 7.57C70.8856 7.57 70.8456 7.58 70.8256 7.6C70.7456 7.6 70.6856 7.66 70.6456 7.78V7.87C70.6456 8.07 70.6456 8.27 70.6456 8.47C70.6456 8.65 70.6556 8.84 70.6756 9.04C70.7356 9.32 70.7356 9.6 70.6756 9.88C70.6556 9.94 70.6356 10 70.6156 10.06C70.6156 10.1 70.6156 10.14 70.6156 10.18C70.6356 10.42 70.6156 10.68 70.5556 10.96C70.5556 11.02 70.5556 11.08 70.5556 11.14C70.5556 11.2 70.5656 11.26 70.5856 11.32C70.6056 11.4 70.6156 11.49 70.6156 11.59C70.6156 11.69 70.6156 11.79 70.6156 11.89V13.45C70.6156 13.53 70.6056 13.63 70.5856 13.75C70.5856 13.85 70.5856 13.95 70.5856 14.05C70.5856 14.13 70.5856 14.22 70.5856 14.32C70.6056 14.42 70.6156 14.52 70.6156 14.62C70.6156 14.76 70.6156 14.9 70.6156 15.04C70.6356 15.18 70.6356 15.33 70.6156 15.49V16.42C70.6156 16.44 70.6056 16.46 70.5856 16.48C70.5856 16.5 70.5956 16.53 70.6156 16.57C70.6356 16.75 70.6456 16.94 70.6456 17.14C70.6456 17.32 70.6656 17.5 70.7056 17.68C70.7056 17.74 70.7056 17.8 70.7056 17.86C70.7256 17.92 70.7256 17.98 70.7056 18.04C70.7056 18.22 70.7256 18.41 70.7656 18.61C70.8056 18.79 70.8356 18.97 70.8556 19.15C70.8956 19.37 70.9356 19.59 70.9756 19.81C71.0356 20.03 71.0856 20.25 71.1256 20.47L71.2156 20.89C71.2156 20.95 71.1856 21 71.1256 21.04C71.1256 21.04 71.1156 21.04 71.0956 21.04C71.0956 21.04 71.0856 21.05 71.0656 21.07C70.9656 21.11 70.9256 21.17 70.9456 21.25V21.4C70.9456 21.4 70.9356 21.41 70.9156 21.43C70.9156 21.45 70.9056 21.46 70.8856 21.46C70.7856 21.46 70.7056 21.5 70.6456 21.58C70.5856 21.66 70.5156 21.73 70.4356 21.79C70.3756 21.83 70.2956 21.87 70.1956 21.91C69.9356 22.01 69.6956 22.03 69.4756 21.97ZM84.8879 22.6C84.6879 22.58 84.4879 22.55 84.2879 22.51C84.1079 22.49 83.9279 22.44 83.7479 22.36L82.9979 22.09C82.7379 21.99 82.4979 21.88 82.2779 21.76C82.0579 21.62 81.8379 21.48 81.6179 21.34C81.5179 21.24 81.4179 21.15 81.3179 21.07C81.2179 20.97 81.1179 20.88 81.0179 20.8C80.8579 20.64 80.6979 20.48 80.5379 20.32C80.3779 20.14 80.2279 19.95 80.0879 19.75L79.3679 18.64C79.1879 18.36 79.0279 18.07 78.8879 17.77C78.7479 17.45 78.6279 17.13 78.5279 16.81C78.3079 16.21 78.1979 15.62 78.1979 15.04V14.56C78.1979 14.06 78.2279 13.57 78.2879 13.09C78.3279 12.69 78.4179 12.33 78.5579 12.01C78.6379 11.81 78.7079 11.61 78.7679 11.41C78.8279 11.21 78.8979 11.02 78.9779 10.84L79.0679 10.63C79.1079 10.37 79.1979 10.14 79.3379 9.94C79.4779 9.72 79.5979 9.51 79.6979 9.31C79.7779 9.15 79.8679 9.01 79.9679 8.89C80.0679 8.75 80.1579 8.61 80.2379 8.47C80.2779 8.41 80.3279 8.36 80.3879 8.32C80.4479 8.26 80.4979 8.2 80.5379 8.14C80.5779 8.1 80.6079 8.05 80.6279 7.99C80.6679 7.91 80.6979 7.84 80.7179 7.78C80.7579 7.72 80.8279 7.64 80.9279 7.54C81.0479 7.48 81.1579 7.34 81.2579 7.12C81.2979 7.04 81.3379 6.98 81.3779 6.94C81.4979 6.84 81.5979 6.72 81.6779 6.58C81.7779 6.44 81.8879 6.31 82.0079 6.19C82.0879 6.11 82.1279 6 82.1279 5.86C82.1279 5.76 82.1279 5.67 82.1279 5.59C82.1479 5.49 82.1479 5.4 82.1279 5.32C82.1079 5.22 82.1379 5.13 82.2179 5.05C82.2579 5.01 82.2879 4.96 82.3079 4.9C82.3279 4.84 82.3479 4.78 82.3679 4.72C82.4279 4.52 82.5879 4.35 82.8479 4.21C82.8879 4.17 82.9379 4.15 82.9979 4.15C83.0779 4.13 83.1479 4.11 83.2079 4.09C83.3479 4.03 83.5079 4.02 83.6879 4.06C83.7679 4.08 83.8379 4.09 83.8979 4.09C83.9579 4.07 84.0179 4.05 84.0779 4.03C84.1579 3.99 84.2279 3.96 84.2879 3.94C84.3679 3.92 84.4379 3.9 84.4979 3.88C84.7779 3.78 85.0679 3.79 85.3679 3.91C85.6879 4.03 85.9179 4.24 86.0579 4.54C86.0979 4.64 86.1379 4.74 86.1779 4.84C86.2179 4.94 86.2479 5.04 86.2679 5.14C86.3079 5.36 86.2979 5.55 86.2379 5.71C86.1979 5.79 86.1779 5.84 86.1779 5.86C86.1579 5.94 86.1779 6.01 86.2379 6.07C86.2779 6.13 86.3279 6.18 86.3879 6.22C86.6079 6.42 86.8179 6.62 87.0179 6.82C87.2179 7 87.4079 7.2 87.5879 7.42C87.7479 7.58 87.8779 7.75 87.9779 7.93C88.0979 8.09 88.2079 8.27 88.3079 8.47C88.3479 8.57 88.3979 8.68 88.4579 8.8C88.5179 8.9 88.5779 9 88.6379 9.1C88.7379 9.28 88.8179 9.47 88.8779 9.67C88.9579 9.87 89.0379 10.07 89.1179 10.27V10.3C89.1579 10.44 89.1879 10.59 89.2079 10.75C89.2479 10.89 89.3079 11.04 89.3879 11.2C89.4479 11.34 89.4979 11.49 89.5379 11.65C89.5779 11.79 89.6179 11.94 89.6579 12.1C89.6979 12.28 89.7379 12.46 89.7779 12.64C89.8379 12.82 89.8779 13 89.8979 13.18C89.9179 13.26 89.9379 13.34 89.9579 13.42C89.9779 13.48 89.9979 13.55 90.0179 13.63C90.0579 13.81 90.0979 13.99 90.1379 14.17C90.1779 14.35 90.2079 14.53 90.2279 14.71L90.3179 14.92C90.3579 15.04 90.3979 15.2 90.4379 15.4C90.4979 15.66 90.5279 15.92 90.5279 16.18C90.5479 16.44 90.5479 16.71 90.5279 16.99C90.5279 17.13 90.5179 17.24 90.4979 17.32C90.3779 17.74 90.2279 18.17 90.0479 18.61C89.9679 18.75 89.8879 18.89 89.8079 19.03C89.7279 19.15 89.6479 19.28 89.5679 19.42L89.2979 19.84C89.1979 20.02 89.0879 20.18 88.9679 20.32C88.7679 20.64 88.5279 20.92 88.2479 21.16C87.9679 21.4 87.6679 21.63 87.3479 21.85C86.6479 22.39 85.8279 22.64 84.8879 22.6ZM84.7679 19.63C85.1879 19.63 85.5479 19.51 85.8479 19.27C85.9479 19.17 86.0479 19.08 86.1479 19C86.2679 18.9 86.3679 18.8 86.4479 18.7C86.8279 18.28 87.1279 17.84 87.3479 17.38L87.4379 17.08C87.4779 16.72 87.4779 16.36 87.4379 16L87.2579 15.01C87.1979 14.75 87.1479 14.5 87.1079 14.26C87.0679 14 87.0079 13.75 86.9279 13.51C86.8679 13.37 86.8479 13.26 86.8679 13.18C86.8879 13.08 86.8879 12.98 86.8679 12.88C86.8479 12.78 86.8179 12.68 86.7779 12.58C86.7179 12.32 86.6479 12.06 86.5679 11.8C86.4879 11.54 86.4079 11.28 86.3279 11.02C86.3079 10.96 86.2879 10.9 86.2679 10.84C86.2479 10.78 86.2279 10.72 86.2079 10.66C86.0679 10.38 85.9179 10.11 85.7579 9.85C85.5979 9.59 85.4179 9.35 85.2179 9.13C85.1179 9.01 85.0079 8.9 84.8879 8.8C84.7679 8.68 84.6479 8.57 84.5279 8.47C84.5079 8.43 84.4779 8.41 84.4379 8.41C84.4179 8.39 84.3879 8.37 84.3479 8.35C84.2879 8.27 84.2079 8.28 84.1079 8.38C84.0079 8.48 83.8979 8.59 83.7779 8.71C83.6779 8.83 83.5779 8.95 83.4779 9.07C83.3779 9.21 83.2679 9.35 83.1479 9.49C83.0479 9.63 82.9479 9.77 82.8479 9.91C82.7079 10.09 82.5779 10.27 82.4579 10.45C82.3379 10.63 82.2179 10.81 82.0979 10.99C81.6779 11.67 81.3479 12.42 81.1079 13.24C81.0679 13.36 81.0479 13.45 81.0479 13.51C81.0279 13.65 81.0079 13.79 80.9879 13.93C80.9879 14.07 80.9879 14.22 80.9879 14.38V14.62C81.0079 14.68 81.0179 14.74 81.0179 14.8C81.0179 14.86 81.0279 14.92 81.0479 14.98C81.0479 15.22 81.1079 15.48 81.2279 15.76C81.3879 16.16 81.5679 16.55 81.7679 16.93C81.9679 17.31 82.1979 17.67 82.4579 18.01C82.5179 18.09 82.5779 18.17 82.6379 18.25C82.7179 18.33 82.7879 18.41 82.8479 18.49C83.0279 18.69 83.2179 18.87 83.4179 19.03C83.6379 19.19 83.8579 19.33 84.0779 19.45C84.3179 19.57 84.5479 19.63 84.7679 19.63ZM97.5509 23.47L97.0409 23.38C96.7809 23.34 96.5109 23.3 96.2309 23.26C95.9709 23.22 95.7009 23.19 95.4209 23.17C95.1409 23.17 94.8609 23.09 94.5809 22.93C94.3209 22.79 94.1409 22.57 94.0409 22.27C94.0209 22.17 93.9909 22.07 93.9509 21.97C93.9309 21.87 93.9109 21.77 93.8909 21.67C93.8909 21.43 93.9409 21.25 94.0409 21.13C94.1409 21.03 94.2209 20.93 94.2809 20.83C94.3609 20.73 94.4409 20.64 94.5209 20.56C94.5609 20.52 94.6009 20.49 94.6409 20.47C94.6809 20.45 94.7209 20.43 94.7609 20.41C94.8609 20.35 94.9609 20.31 95.0609 20.29C95.1609 20.25 95.2609 20.22 95.3609 20.2C95.4009 20.18 95.4309 20.18 95.4509 20.2C95.4909 20.2 95.5209 20.2 95.5409 20.2C95.6409 20.22 95.7509 20.24 95.8709 20.26C95.9909 20.26 96.1009 20.28 96.2009 20.32L97.4609 20.5C97.7409 20.54 97.9909 20.5 98.2109 20.38C98.2909 20.34 98.3609 20.3 98.4209 20.26C98.5009 20.22 98.5709 20.18 98.6309 20.14C99.0709 19.88 99.4509 19.61 99.7709 19.33C100.011 19.11 100.241 18.89 100.461 18.67C100.681 18.45 100.881 18.21 101.061 17.95C101.201 17.77 101.291 17.59 101.331 17.41C101.371 17.21 101.381 17.01 101.361 16.81L101.271 16.57C101.251 16.47 101.211 16.39 101.151 16.33C101.091 16.27 101.031 16.2 100.971 16.12C100.851 16.02 100.731 15.91 100.611 15.79C100.511 15.67 100.401 15.57 100.281 15.49C99.9809 15.25 99.6809 15.02 99.3809 14.8C99.1009 14.58 98.8109 14.36 98.5109 14.14C98.4909 14.1 98.4309 14.06 98.3309 14.02C98.1509 13.9 97.9709 13.77 97.7909 13.63C97.6309 13.47 97.4709 13.32 97.3109 13.18C97.1109 12.98 96.8909 12.79 96.6509 12.61C96.5309 12.55 96.4209 12.45 96.3209 12.31C96.2409 12.21 96.1209 12.11 95.9609 12.01C95.8209 11.93 95.6909 11.84 95.5709 11.74C95.4509 11.62 95.3309 11.51 95.2109 11.41L94.8209 11.05C94.7409 10.95 94.6509 10.86 94.5509 10.78C94.4709 10.68 94.3809 10.58 94.2809 10.48C94.2409 10.38 94.1809 10.3 94.1009 10.24C94.0409 10.18 93.9809 10.11 93.9209 10.03C93.9009 9.99 93.8709 9.95 93.8309 9.91C93.7909 9.85 93.7609 9.79 93.7409 9.73C93.6209 9.49 93.4909 9.25 93.3509 9.01C93.2309 8.77 93.1209 8.52 93.0209 8.26C92.9609 8.1 92.9009 7.95 92.8409 7.81C92.8009 7.65 92.7609 7.5 92.7209 7.36C92.7009 7.2 92.6609 7.06 92.6009 6.94C92.5609 6.8 92.5209 6.66 92.4809 6.52C92.4409 6.3 92.3909 6.09 92.3309 5.89C92.2909 5.67 92.2509 5.46 92.2109 5.26L92.1509 5.02C92.1309 4.8 92.1309 4.59 92.1509 4.39C92.1909 4.11 92.2509 3.86 92.3309 3.64C92.4109 3.4 92.5409 3.21 92.7209 3.07C92.9209 2.91 93.1209 2.75 93.3209 2.59C93.5209 2.43 93.7309 2.3 93.9509 2.2C93.9909 2.2 94.0209 2.19 94.0409 2.17C94.2409 2.01 94.4609 1.9 94.7009 1.84C94.9409 1.76 95.1809 1.69 95.4209 1.63C96.3809 1.35 97.3709 1.14 98.3909 0.999999H98.6909C98.8909 0.999999 99.0809 0.999999 99.2609 0.999999C99.4409 0.999999 99.6309 0.989999 99.8309 0.969999C100.071 0.969999 100.311 0.999999 100.551 1.06C100.791 1.1 101.021 1.17 101.241 1.27C101.401 1.35 101.561 1.44 101.721 1.54C101.881 1.62 102.031 1.71 102.171 1.81C102.331 1.93 102.431 2.06 102.471 2.2L102.561 2.41C102.661 2.59 102.711 2.78 102.711 2.98C102.731 3.16 102.721 3.35 102.681 3.55C102.681 3.61 102.671 3.68 102.651 3.76C102.651 3.82 102.651 3.88 102.651 3.94C102.591 4.38 102.381 4.72 102.021 4.96C101.801 5.16 101.511 5.24 101.151 5.2C101.071 5.16 101.031 5.18 101.031 5.26C101.031 5.34 100.981 5.38 100.881 5.38H100.701C100.581 5.38 100.461 5.32 100.341 5.2C100.241 5.1 100.191 5.02 100.191 4.96C100.191 4.88 100.231 4.82 100.311 4.78C100.271 4.68 100.231 4.59 100.191 4.51C100.151 4.43 100.111 4.37 100.071 4.33C100.011 4.23 99.9209 4.16 99.8009 4.12C99.7009 4.1 99.6009 4.08 99.5009 4.06C99.4009 4.04 99.3009 4.02 99.2009 4C99.1209 4 99.0309 4 98.9309 4C98.8309 3.98 98.7309 3.96 98.6309 3.94C98.5709 3.92 98.4809 3.93 98.3609 3.97C98.3009 3.99 98.2409 4.01 98.1809 4.03C98.1209 4.03 98.0509 4.02 97.9709 4C97.9109 4 97.8409 4 97.7609 4C97.7009 4 97.6309 4.02 97.5509 4.06L96.9809 4.15C96.6609 4.21 96.3509 4.33 96.0509 4.51C95.9909 4.53 95.9309 4.55 95.8709 4.57C95.8109 4.59 95.7509 4.59 95.6909 4.57C95.5709 4.55 95.4709 4.58 95.3909 4.66C95.3709 4.7 95.3209 4.73 95.2409 4.75C95.1809 4.75 95.1309 4.77 95.0909 4.81C95.0109 4.89 94.9709 4.97 94.9709 5.05C94.9909 5.09 95.0009 5.15 95.0009 5.23L95.6309 7.06C95.7509 7.38 95.9009 7.68 96.0809 7.96C96.2809 8.22 96.4909 8.48 96.7109 8.74C97.0509 9.14 97.4009 9.48 97.7609 9.76L98.7209 10.57C98.9209 10.75 99.1309 10.92 99.3509 11.08C99.5709 11.24 99.7809 11.4 99.9809 11.56C100.281 11.78 100.581 12.01 100.881 12.25C101.181 12.47 101.481 12.7 101.781 12.94C102.021 13.14 102.251 13.34 102.471 13.54C102.711 13.72 102.931 13.92 103.131 14.14C103.271 14.3 103.411 14.46 103.551 14.62C103.691 14.78 103.811 14.96 103.911 15.16C104.051 15.38 104.171 15.64 104.271 15.94C104.391 16.32 104.441 16.68 104.421 17.02C104.401 17.06 104.391 17.12 104.391 17.2C104.391 17.44 104.361 17.67 104.301 17.89C104.261 18.09 104.191 18.3 104.091 18.52C103.991 18.72 103.881 18.93 103.761 19.15C103.661 19.35 103.541 19.55 103.401 19.75C103.201 20.01 102.991 20.26 102.771 20.5C102.571 20.72 102.341 20.94 102.081 21.16C101.941 21.28 101.801 21.41 101.661 21.55C101.521 21.67 101.371 21.78 101.211 21.88C101.111 21.96 101.011 22.03 100.911 22.09C100.811 22.17 100.711 22.25 100.611 22.33C100.531 22.37 100.451 22.42 100.371 22.48C100.291 22.54 100.211 22.6 100.131 22.66C100.051 22.74 99.9509 22.8 99.8309 22.84C99.7309 22.9 99.6309 22.95 99.5309 22.99L98.6609 23.35C98.4809 23.41 98.3009 23.45 98.1209 23.47C97.9409 23.49 97.7509 23.49 97.5509 23.47ZM123.25 22.3C123.23 22.3 123.2 22.29 123.16 22.27C123.14 22.27 123.11 22.27 123.07 22.27C122.93 22.27 122.83 22.21 122.77 22.09C122.69 21.95 122.61 21.83 122.53 21.73C122.45 21.63 122.36 21.53 122.26 21.43C122.16 21.33 122.07 21.22 121.99 21.1C121.93 20.98 121.87 20.86 121.81 20.74C121.75 20.64 121.72 20.54 121.72 20.44V20.14C121.72 20.04 121.71 19.94 121.69 19.84C121.69 19.72 121.68 19.61 121.66 19.51C121.62 19.35 121.58 19.18 121.54 19C121.52 18.82 121.49 18.65 121.45 18.49C121.45 18.45 121.44 18.41 121.42 18.37C121.42 18.31 121.42 18.26 121.42 18.22C121.4 18 121.37 17.78 121.33 17.56C121.29 17.32 121.25 17.09 121.21 16.87C121.15 16.47 121.08 16.08 121 15.7C120.94 15.3 120.88 14.91 120.82 14.53L120.64 13.54C120.62 13.38 120.56 13.21 120.46 13.03C120.34 12.81 120.25 12.57 120.19 12.31C120.17 12.19 120.14 12.08 120.1 11.98C120.06 11.86 120.02 11.74 119.98 11.62C119.92 11.42 119.86 11.22 119.8 11.02C119.74 10.82 119.69 10.62 119.65 10.42C119.63 10.26 119.6 10.1 119.56 9.94C119.52 9.78 119.48 9.62 119.44 9.46L119.26 8.65C119.26 8.61 119.25 8.58 119.23 8.56C119.21 8.28 119.17 8 119.11 7.72C119.05 7.42 118.99 7.13 118.93 6.85C118.91 6.69 118.88 6.5 118.84 6.28C118.82 6.04 118.82 5.85 118.84 5.71V5.41C118.88 5.13 118.97 4.87 119.11 4.63C119.27 4.35 119.53 4.13 119.89 3.97C119.99 3.93 120.09 3.9 120.19 3.88C120.29 3.86 120.38 3.84 120.46 3.82C120.68 3.8 120.89 3.83 121.09 3.91C121.29 3.97 121.49 4.06 121.69 4.18C121.75 4.22 121.8 4.27 121.84 4.33C121.9 4.43 121.96 4.53 122.02 4.63C122.1 4.73 122.15 4.84 122.17 4.96C122.21 5.08 122.25 5.2 122.29 5.32C122.35 5.44 122.41 5.55 122.47 5.65C122.57 5.85 122.64 6.06 122.68 6.28C122.72 6.5 122.76 6.72 122.8 6.94C122.86 7.24 122.89 7.56 122.89 7.9V8.05C122.93 8.25 122.95 8.45 122.95 8.65C122.95 8.83 122.95 9.02 122.95 9.22C122.97 9.54 123 9.86 123.04 10.18C123.08 10.48 123.12 10.8 123.16 11.14L123.34 12.55V12.61C123.38 12.83 123.42 13.06 123.46 13.3C123.52 13.52 123.56 13.74 123.58 13.96C123.64 14.3 123.7 14.65 123.76 15.01C123.84 15.35 123.9 15.69 123.94 16.03L124.12 17.29C124.16 17.49 124.19 17.69 124.21 17.89C124.25 18.09 124.29 18.29 124.33 18.49C124.37 18.69 124.4 18.89 124.42 19.09C124.46 19.27 124.5 19.46 124.54 19.66C124.56 19.74 124.57 19.82 124.57 19.9C124.59 19.96 124.6 20.03 124.6 20.11C124.62 20.41 124.57 20.7 124.45 20.98C124.43 21.06 124.38 21.14 124.3 21.22C124.22 21.34 124.15 21.42 124.09 21.46C123.93 21.62 123.81 21.79 123.73 21.97C123.73 21.99 123.71 22.02 123.67 22.06C123.65 22.1 123.62 22.14 123.58 22.18C123.5 22.26 123.39 22.3 123.25 22.3ZM131.658 22.3C131.638 22.3 131.608 22.29 131.568 22.27C131.548 22.27 131.518 22.27 131.478 22.27C131.338 22.27 131.238 22.21 131.178 22.09C131.098 21.95 131.018 21.83 130.938 21.73C130.858 21.63 130.768 21.53 130.668 21.43C130.568 21.33 130.478 21.22 130.398 21.1C130.338 20.98 130.278 20.86 130.218 20.74C130.158 20.64 130.128 20.54 130.128 20.44V20.14C130.128 20.04 130.118 19.94 130.098 19.84C130.098 19.72 130.088 19.61 130.068 19.51C130.028 19.35 129.988 19.18 129.948 19C129.928 18.82 129.898 18.65 129.858 18.49C129.858 18.45 129.848 18.41 129.828 18.37C129.828 18.31 129.828 18.26 129.828 18.22C129.808 18 129.778 17.78 129.738 17.56C129.698 17.32 129.658 17.09 129.618 16.87C129.558 16.47 129.488 16.08 129.408 15.7C129.348 15.3 129.288 14.91 129.228 14.53L129.048 13.54C129.028 13.38 128.968 13.21 128.868 13.03C128.748 12.81 128.658 12.57 128.598 12.31C128.578 12.19 128.548 12.08 128.508 11.98C128.468 11.86 128.428 11.74 128.388 11.62C128.328 11.42 128.268 11.22 128.208 11.02C128.148 10.82 128.098 10.62 128.058 10.42C128.038 10.26 128.008 10.1 127.968 9.94C127.928 9.78 127.888 9.62 127.848 9.46L127.668 8.65C127.668 8.61 127.658 8.58 127.638 8.56C127.618 8.28 127.578 8 127.518 7.72C127.458 7.42 127.398 7.13 127.338 6.85C127.318 6.69 127.288 6.5 127.248 6.28C127.228 6.04 127.228 5.85 127.248 5.71V5.41C127.288 5.13 127.378 4.87 127.518 4.63C127.678 4.35 127.938 4.13 128.298 3.97C128.398 3.93 128.498 3.9 128.598 3.88C128.698 3.86 128.788 3.84 128.868 3.82C129.088 3.8 129.298 3.83 129.498 3.91C129.698 3.97 129.898 4.06 130.098 4.18C130.158 4.22 130.208 4.27 130.248 4.33C130.308 4.43 130.368 4.53 130.428 4.63C130.508 4.73 130.558 4.84 130.578 4.96C130.618 5.08 130.658 5.2 130.698 5.32C130.758 5.44 130.818 5.55 130.878 5.65C130.978 5.85 131.048 6.06 131.088 6.28C131.128 6.5 131.168 6.72 131.208 6.94C131.268 7.24 131.298 7.56 131.298 7.9V8.05C131.338 8.25 131.358 8.45 131.358 8.65C131.358 8.83 131.358 9.02 131.358 9.22C131.378 9.54 131.408 9.86 131.448 10.18C131.488 10.48 131.528 10.8 131.568 11.14L131.748 12.55V12.61C131.788 12.83 131.828 13.06 131.868 13.3C131.928 13.52 131.968 13.74 131.988 13.96C132.048 14.3 132.108 14.65 132.168 15.01C132.248 15.35 132.308 15.69 132.348 16.03L132.528 17.29C132.568 17.49 132.598 17.69 132.618 17.89C132.658 18.09 132.698 18.29 132.738 18.49C132.778 18.69 132.808 18.89 132.828 19.09C132.868 19.27 132.908 19.46 132.948 19.66C132.968 19.74 132.978 19.82 132.978 19.9C132.998 19.96 133.008 20.03 133.008 20.11C133.028 20.41 132.978 20.7 132.858 20.98C132.838 21.06 132.788 21.14 132.708 21.22C132.628 21.34 132.558 21.42 132.498 21.46C132.338 21.62 132.218 21.79 132.138 21.97C132.138 21.99 132.118 22.02 132.078 22.06C132.058 22.1 132.028 22.14 131.988 22.18C131.908 22.26 131.798 22.3 131.658 22.3Z" fill="#353535"/>
</svg>
