<svg width="92" height="19" viewBox="0 0 92 19" fill="none" xmlns="http://www.w3.org/2000/svg">
<path d="M11.8023 18.8C11.7023 18.8333 11.6107 18.8083 11.5273 18.725C11.4607 18.6583 11.4023 18.575 11.3523 18.475C11.319 18.375 11.2857 18.2667 11.2523 18.15C11.219 18.0333 11.2023 17.9167 11.2023 17.8C11.2023 17.7167 11.2023 17.6333 11.2023 17.55C11.2023 17.4667 11.1857 17.3917 11.1523 17.325C11.1357 17.2583 11.119 17.1917 11.1023 17.125C11.1023 17.075 11.1023 17.025 11.1023 16.975C11.0857 16.7917 11.019 16.6167 10.9023 16.45C10.8857 16.45 10.8773 16.45 10.8773 16.45C10.8773 16.4333 10.8773 16.425 10.8773 16.425C10.744 16.2417 10.6357 16.05 10.5523 15.85C10.4857 15.65 10.4357 15.4417 10.4023 15.225L10.1773 13.875C10.1607 13.775 10.144 13.6833 10.1273 13.6C10.1107 13.5 10.0857 13.4 10.0523 13.3C10.0357 13.1667 10.0107 13.0417 9.97734 12.925C9.94401 12.8083 9.91068 12.6917 9.87734 12.575L9.72734 12.025V11.95C9.71068 11.8333 9.68568 11.7167 9.65234 11.6C9.61901 11.4833 9.59401 11.3667 9.57734 11.25C9.56068 11.1167 9.53568 10.9917 9.50234 10.875C9.48568 10.7417 9.46068 10.6167 9.42734 10.5C9.42734 10.4333 9.40234 10.375 9.35234 10.325C9.31901 10.2583 9.27734 10.1917 9.22734 10.125C9.22734 10.1083 9.21068 10.0833 9.17734 10.05C8.97734 9.91667 8.75234 9.86667 8.50234 9.9C8.43568 9.9 8.38568 9.90833 8.35234 9.925C8.18568 9.95833 8.01901 10.0083 7.85234 10.075C7.68568 10.1417 7.51901 10.2167 7.35234 10.3C7.28568 10.3333 7.24401 10.3583 7.22734 10.375C7.14401 10.4417 7.05234 10.5 6.95234 10.55C6.85234 10.5833 6.75234 10.6167 6.65234 10.65C6.40234 10.75 6.15234 10.8667 5.90234 11C5.66901 11.1333 5.43568 11.2667 5.20234 11.4L5.05234 11.525C4.96901 11.5917 4.87734 11.6667 4.77734 11.75C4.67734 11.8167 4.57734 11.875 4.47734 11.925C4.32734 12.025 4.25234 12.1583 4.25234 12.325C4.21901 12.5583 4.25234 12.7833 4.35234 13C4.43568 13.2167 4.49401 13.4667 4.52734 13.75C4.52734 13.85 4.53568 13.925 4.55234 13.975C4.58568 14.025 4.60234 14.0833 4.60234 14.15C4.61901 14.2 4.63568 14.25 4.65234 14.3L4.72734 14.775C4.77734 15.1083 4.72734 15.425 4.57734 15.725C4.56068 15.7417 4.53568 15.7833 4.50234 15.85C4.35234 16.1 4.25234 16.375 4.20234 16.675C4.18568 16.7583 4.16068 16.8417 4.12734 16.925C4.09401 16.9917 4.04401 17.0667 3.97734 17.15C3.91068 17.2333 3.81068 17.2833 3.67734 17.3C3.54401 17.3167 3.42734 17.2583 3.32734 17.125C3.26068 17.0083 3.21068 16.8583 3.17734 16.675C3.14401 16.5083 3.11068 16.375 3.07734 16.275C3.04401 16.1417 2.98568 16.0417 2.90234 15.975C2.76901 15.7917 2.64401 15.5583 2.52734 15.275C2.46068 15.0917 2.41068 14.9083 2.37734 14.725C2.34401 14.5417 2.31068 14.3583 2.27734 14.175C2.22734 13.925 2.17734 13.675 2.12734 13.425C2.07734 13.175 2.01901 12.925 1.95234 12.675C1.90234 12.4583 1.84401 12.25 1.77734 12.05C1.72734 11.8333 1.67734 11.6167 1.62734 11.4L1.17734 9.55C1.16068 9.36667 1.11068 9.19167 1.02734 9.025C0.99401 8.89167 0.952344 8.75833 0.902344 8.625C0.852344 8.475 0.810677 8.33333 0.777344 8.2C0.760677 8.15 0.744011 8.1 0.727344 8.05C0.710677 7.98333 0.69401 7.925 0.677344 7.875C0.660677 7.79167 0.635677 7.70833 0.602344 7.625C0.585677 7.54167 0.552344 7.45833 0.502344 7.375L0.427344 7.1C0.39401 6.96667 0.360677 6.83333 0.327344 6.7C0.29401 6.56667 0.260677 6.44167 0.227344 6.325L0.202344 6.225C0.202344 6.125 0.19401 6.025 0.177344 5.925C0.160677 5.825 0.14401 5.71667 0.127344 5.6C0.127344 5.58333 0.11901 5.575 0.102344 5.575C0.102344 5.55833 0.102344 5.54167 0.102344 5.525C0.0856771 5.29167 0.0690105 5.05833 0.0523438 4.825C0.0356771 4.575 0.0273438 4.33333 0.0273438 4.1C0.0106771 3.95 0.0106771 3.85833 0.0273438 3.825C0.0440105 3.79167 0.0856771 3.71667 0.152344 3.6C0.202344 3.51667 0.260677 3.425 0.327344 3.325C0.327344 3.29167 0.34401 3.275 0.377344 3.275C0.44401 3.25833 0.502344 3.23333 0.552344 3.2C0.602344 3.15 0.652344 3.10833 0.702344 3.075C0.885677 2.95833 1.11068 2.9 1.37734 2.9C1.42734 2.9 1.46068 2.90833 1.47734 2.925C1.52734 2.94167 1.56901 2.95833 1.60234 2.975C1.65234 2.99167 1.70234 3.01667 1.75234 3.05C1.85234 3.08333 1.93568 3.14167 2.00234 3.225C2.08568 3.30833 2.16068 3.39167 2.22734 3.475C2.34401 3.725 2.41068 3.95833 2.42734 4.175C2.46068 4.375 2.51068 4.575 2.57734 4.775L2.65234 5.125C2.68568 5.29167 2.72734 5.45833 2.77734 5.625C2.82734 5.79167 2.86901 5.95833 2.90234 6.125C2.95234 6.35833 2.99401 6.6 3.02734 6.85C3.07734 7.08333 3.12734 7.31667 3.17734 7.55L3.25234 8C3.25234 8.01667 3.25234 8.04167 3.25234 8.075C3.26901 8.09167 3.27734 8.10833 3.27734 8.125C3.31068 8.20833 3.36068 8.25 3.42734 8.25C3.59401 8.26667 3.76068 8.28333 3.92734 8.3C4.09401 8.31667 4.26068 8.30833 4.42734 8.275C4.71068 8.24167 4.98568 8.2 5.25234 8.15C5.51901 8.1 5.78568 8.05 6.05234 8C6.40234 7.93333 6.74401 7.86667 7.07734 7.8C7.42734 7.71667 7.77734 7.63333 8.12734 7.55L8.62734 7.425C8.71068 7.39167 8.75234 7.33333 8.75234 7.25C8.73568 7.2 8.72734 7.15 8.72734 7.1C8.72734 7.05 8.71901 7 8.70234 6.95C8.61901 6.71667 8.56901 6.5 8.55234 6.3C8.53568 6.21667 8.51901 6.13333 8.50234 6.05C8.48568 5.95 8.46901 5.85833 8.45234 5.775C8.40234 5.49167 8.35234 5.20833 8.30234 4.925C8.26901 4.625 8.23568 4.33333 8.20234 4.05C8.18568 3.91667 8.16901 3.79167 8.15234 3.675C8.15234 3.54167 8.13568 3.41667 8.10234 3.3C8.08568 3.11667 8.06901 2.93333 8.05234 2.75C8.05234 2.55 8.05234 2.36667 8.05234 2.2C8.05234 2.16667 8.05234 2.13333 8.05234 2.1C8.06901 2.06667 8.08568 2.03333 8.10234 2C8.11901 1.93333 8.13568 1.875 8.15234 1.825C8.16901 1.75833 8.18568 1.69167 8.20234 1.625C8.23568 1.525 8.26901 1.44167 8.30234 1.375C8.35234 1.29167 8.40234 1.21667 8.45234 1.15C8.53568 1.1 8.60234 1.03333 8.65234 0.95C8.73568 0.866666 8.81068 0.816666 8.87734 0.8L9.10234 0.724999C9.15234 0.691666 9.20234 0.683332 9.25234 0.7C9.31901 0.7 9.37734 0.708333 9.42734 0.724999C9.47734 0.724999 9.55234 0.741666 9.65234 0.774999C9.70234 0.791666 9.75234 0.816666 9.80234 0.849999C9.85234 0.883332 9.89401 0.924999 9.92734 0.974999C9.96068 1.04167 10.0023 1.10833 10.0523 1.175C10.119 1.225 10.1607 1.29167 10.1773 1.375C10.2107 1.425 10.2523 1.45 10.3023 1.45C10.3523 1.46667 10.394 1.51667 10.4273 1.6C10.4273 1.61667 10.4273 1.63333 10.4273 1.65C10.444 1.66667 10.4523 1.69167 10.4523 1.725C10.4857 1.85833 10.519 2 10.5523 2.15C10.5857 2.28333 10.6107 2.41667 10.6273 2.55C10.6273 2.6 10.6273 2.65 10.6273 2.7C10.644 2.75 10.644 2.80833 10.6273 2.875V3.075C10.644 3.20833 10.6607 3.35 10.6773 3.5C10.694 3.63333 10.7107 3.76667 10.7273 3.9C10.744 3.91667 10.7523 3.95833 10.7523 4.025C10.8023 4.09167 10.8357 4.175 10.8523 4.275C10.869 4.375 10.8857 4.46667 10.9023 4.55C10.919 4.63333 10.9273 4.725 10.9273 4.825C10.944 4.90833 10.969 4.99167 11.0023 5.075C11.019 5.10833 11.0273 5.15833 11.0273 5.225C11.0273 5.29167 11.0273 5.35833 11.0273 5.425C11.044 5.475 11.0523 5.53333 11.0523 5.6C11.0523 5.66667 11.0607 5.70833 11.0773 5.725C11.094 5.74167 11.1107 5.76667 11.1273 5.8C11.1607 5.81667 11.169 5.84167 11.1523 5.875C11.1523 5.90833 11.144 5.94167 11.1273 5.975C11.1273 6.00833 11.1273 6.04167 11.1273 6.075V6.2C11.1607 6.28333 11.1857 6.375 11.2023 6.475C11.219 6.575 11.2357 6.66667 11.2523 6.75C11.2523 6.85 11.2857 6.90833 11.3523 6.925L11.4273 7C11.4607 7.03333 11.4773 7.09167 11.4773 7.175C11.444 7.20833 11.4273 7.24167 11.4273 7.275C11.4107 7.30833 11.4107 7.35 11.4273 7.4C11.4773 7.45 11.494 7.5 11.4773 7.55C11.444 7.6 11.444 7.64167 11.4773 7.675C11.5107 7.725 11.5273 7.8 11.5273 7.9V7.875C11.544 7.89167 11.569 7.9 11.6023 7.9C11.6857 7.93333 11.7107 7.99167 11.6773 8.075C11.6773 8.10833 11.6607 8.14167 11.6273 8.175C11.5773 8.225 11.5607 8.26667 11.5773 8.3C11.6273 8.53333 11.6773 8.76667 11.7273 9C11.7773 9.23333 11.819 9.46667 11.8523 9.7L11.9273 10.3C11.9607 10.4333 11.9857 10.5667 12.0023 10.7C12.019 10.8333 12.044 10.9667 12.0773 11.1C12.0773 11.1833 12.094 11.2917 12.1273 11.425C12.1273 11.4583 12.1607 11.475 12.2273 11.475C12.2273 11.4583 12.2357 11.45 12.2523 11.45C12.269 11.45 12.2773 11.4583 12.2773 11.475C12.294 11.4917 12.319 11.5333 12.3523 11.6L12.4273 11.925C12.444 11.9583 12.4523 12 12.4523 12.05C12.4523 12.0833 12.4607 12.1167 12.4773 12.15C12.494 12.25 12.4607 12.3333 12.3773 12.4C12.3273 12.4167 12.3023 12.45 12.3023 12.5C12.3023 12.5167 12.3023 12.525 12.3023 12.525C12.319 12.525 12.3273 12.5333 12.3273 12.55C12.344 12.55 12.3523 12.5417 12.3523 12.525H12.3773C12.4107 12.5083 12.444 12.5083 12.4773 12.525C12.5107 12.525 12.5273 12.5417 12.5273 12.575C12.544 12.6417 12.5607 12.7167 12.5773 12.8C12.594 12.8833 12.594 12.9333 12.5773 12.95C12.5773 12.95 12.569 12.9583 12.5523 12.975C12.5523 12.975 12.544 12.975 12.5273 12.975C12.4607 12.975 12.4273 13.05 12.4273 13.2C12.444 13.3667 12.494 13.525 12.5773 13.675L12.7273 13.9C12.8607 14.1333 12.9273 14.3917 12.9273 14.675C12.9273 14.7083 12.9107 14.7417 12.8773 14.775C12.8273 14.825 12.8023 14.8833 12.8023 14.95C12.8023 15.05 12.8107 15.1333 12.8273 15.2C12.8273 15.3167 12.8023 15.4 12.7523 15.45C12.7023 15.5167 12.6773 15.6 12.6773 15.7C12.6607 15.85 12.6107 16 12.5273 16.15C12.3773 16.45 12.3023 16.7833 12.3023 17.15C12.2857 17.2167 12.2773 17.2833 12.2773 17.35C12.2773 17.4167 12.2773 17.4917 12.2773 17.575C12.2607 17.6417 12.2523 17.75 12.2523 17.9V18.225C12.2357 18.2917 12.219 18.3583 12.2023 18.425C12.1857 18.4917 12.1607 18.5583 12.1273 18.625C12.0773 18.6917 12.0107 18.7417 11.9273 18.775C11.9107 18.775 11.894 18.775 11.8773 18.775C11.8607 18.7917 11.8357 18.8 11.8023 18.8ZM25.4117 18.825C25.2617 18.825 25.1284 18.7667 25.0117 18.65C24.9784 18.6 24.9451 18.55 24.9117 18.5C24.8784 18.45 24.8451 18.4 24.8117 18.35C24.6617 18 24.5867 17.6333 24.5867 17.25L24.5117 16.65C24.4617 16.4167 24.4201 16.1833 24.3867 15.95C24.3534 15.7167 24.2951 15.4917 24.2117 15.275L24.0617 14.85C24.0617 14.8167 24.0534 14.7833 24.0367 14.75C24.0367 14.7167 24.0284 14.6833 24.0117 14.65L23.6367 13.325C23.6201 13.2917 23.6034 13.25 23.5867 13.2C23.5867 13.15 23.5701 13.1083 23.5367 13.075C23.4867 12.975 23.4451 12.875 23.4117 12.775C23.3951 12.6583 23.3701 12.5417 23.3367 12.425C23.3201 12.3417 23.3034 12.2667 23.2867 12.2C23.2701 12.1167 23.2451 12.0333 23.2117 11.95C23.1784 11.85 23.1451 11.7917 23.1117 11.775C23.0784 11.7417 23.0034 11.7417 22.8867 11.775C22.8034 11.7917 22.7117 11.8083 22.6117 11.825C22.5284 11.825 22.4451 11.8417 22.3617 11.875C22.2951 11.8917 22.2117 11.9083 22.1117 11.925C22.0284 11.925 21.9451 11.9333 21.8617 11.95L21.5117 12.025C21.4284 12.0417 21.3367 12.0667 21.2367 12.1C21.1534 12.1167 21.0701 12.125 20.9867 12.125L20.5367 12.2C20.4034 12.2333 20.2617 12.2667 20.1117 12.3C19.9617 12.3333 19.8201 12.3667 19.6867 12.4C19.2867 12.5 18.8867 12.575 18.4867 12.625C18.3534 12.6583 18.2784 12.7167 18.2617 12.8C18.2451 12.8 18.2367 12.8083 18.2367 12.825C18.1367 13.0917 18.0201 13.3583 17.8867 13.625C17.7701 13.875 17.6451 14.1333 17.5117 14.4C17.4784 14.4667 17.4451 14.5333 17.4117 14.6C17.3951 14.65 17.3701 14.7083 17.3367 14.775C17.3201 14.8083 17.3034 14.85 17.2867 14.9C17.2701 14.9333 17.2534 14.9667 17.2367 15C17.1367 15.1167 17.0867 15.2583 17.0867 15.425C17.0701 15.525 17.0367 15.625 16.9867 15.725C16.9367 15.8083 16.8867 15.8917 16.8367 15.975C16.8201 16.025 16.7867 16.05 16.7367 16.05C16.6701 16.0667 16.6034 16.0917 16.5367 16.125C16.4701 16.1583 16.3951 16.1917 16.3117 16.225C16.2617 16.2417 16.2117 16.2417 16.1617 16.225C16.1284 16.2083 16.0867 16.1917 16.0367 16.175C16.0034 16.1417 15.9701 16.125 15.9367 16.125C15.7534 16.1083 15.6201 16 15.5367 15.8C15.4034 15.5333 15.3117 15.2667 15.2617 15C15.2451 14.9333 15.2451 14.875 15.2617 14.825C15.2951 14.775 15.3201 14.725 15.3367 14.675C15.4367 14.6083 15.4951 14.5333 15.5117 14.45V14.425C15.5117 14.2083 15.5534 14.0083 15.6367 13.825C15.7367 13.625 15.8201 13.4333 15.8867 13.25C15.9201 13.15 15.9617 13.05 16.0117 12.95C16.0617 12.85 16.1117 12.75 16.1617 12.65C16.2284 12.5333 16.2784 12.425 16.3117 12.325C16.3617 12.2083 16.4034 12.0917 16.4367 11.975C16.4867 11.8417 16.4867 11.7167 16.4367 11.6C16.4034 11.5 16.3867 11.4083 16.3867 11.325C16.3867 11.225 16.3951 11.125 16.4117 11.025C16.4117 10.8417 16.4784 10.6833 16.6117 10.55C16.6784 10.4667 16.7451 10.4 16.8117 10.35C16.8951 10.2833 16.9701 10.2167 17.0367 10.15C17.1867 10 17.3034 9.8 17.3867 9.55C17.4534 9.33333 17.5034 9.11667 17.5367 8.9C17.5867 8.66667 17.6367 8.44167 17.6867 8.225C17.7201 8.00833 17.7534 7.8 17.7867 7.6C17.8367 7.38333 17.8867 7.175 17.9367 6.975C17.9534 6.89167 17.9701 6.81667 17.9867 6.75C18.0201 6.66667 18.0451 6.59167 18.0617 6.525C18.1117 6.39167 18.1617 6.26667 18.2117 6.15C18.2617 6.01667 18.2951 5.88333 18.3117 5.75C18.3451 5.68333 18.3451 5.625 18.3117 5.575C18.2951 5.49167 18.2951 5.41667 18.3117 5.35C18.3451 5.28333 18.3701 5.21667 18.3867 5.15C18.4367 5.03333 18.4701 4.91667 18.4867 4.8C18.5201 4.68333 18.5617 4.56667 18.6117 4.45C18.6951 4.23333 18.7617 4.05833 18.8117 3.925C18.8784 3.775 18.9367 3.60833 18.9867 3.425C19.0201 3.325 19.0534 3.23333 19.0867 3.15C19.1367 3.05 19.1701 2.95 19.1867 2.85C19.2367 2.7 19.2784 2.55 19.3117 2.4C19.3451 2.23333 19.3617 2.075 19.3617 1.925C19.3951 1.79167 19.4284 1.7 19.4617 1.65C19.5451 1.48333 19.6451 1.34167 19.7617 1.225C19.8951 1.10833 20.0201 0.991666 20.1367 0.874999C20.2201 0.825 20.3034 0.791666 20.3867 0.774999C20.4701 0.741666 20.5534 0.75 20.6367 0.8C20.7034 0.833333 20.7451 0.849999 20.7617 0.849999C20.9117 0.833333 21.0367 0.866666 21.1367 0.95C21.2367 1.03333 21.3201 1.13333 21.3867 1.25C21.4201 1.28333 21.4451 1.325 21.4617 1.375C21.4784 1.425 21.4951 1.46667 21.5117 1.5C21.5951 1.63333 21.6367 1.76667 21.6367 1.9C21.6367 1.96667 21.6451 2.04167 21.6617 2.125C21.6784 2.19167 21.6951 2.26667 21.7117 2.35C21.7617 2.45 21.8367 2.5 21.9367 2.5C21.9534 2.48333 21.9701 2.48333 21.9867 2.5C22.0034 2.51667 22.0117 2.53333 22.0117 2.55C22.0951 2.65 22.1201 2.75833 22.0867 2.875C22.0534 3.00833 22.0451 3.14167 22.0617 3.275C22.0951 3.39167 22.1284 3.51667 22.1617 3.65C22.2284 3.81667 22.2951 3.98333 22.3617 4.15C22.4284 4.31667 22.4951 4.48333 22.5617 4.65C22.6451 4.83333 22.7284 5.01667 22.8117 5.2C22.8951 5.38333 22.9701 5.56667 23.0367 5.75C23.1201 5.98333 23.2034 6.21667 23.2867 6.45C23.3867 6.68333 23.4951 6.91667 23.6117 7.15L23.6867 7.425C23.7034 7.49167 23.7201 7.55833 23.7367 7.625C23.7701 7.69167 23.7951 7.75833 23.8117 7.825C23.8451 7.875 23.8701 7.925 23.8867 7.975C23.9201 8.025 23.9534 8.06667 23.9867 8.1C24.0701 8.21667 24.1201 8.34167 24.1367 8.475C24.1867 8.64167 24.2617 8.79167 24.3617 8.925C24.3951 8.975 24.4451 9 24.5117 9C24.7617 8.96667 25.0117 8.94167 25.2617 8.925C25.5117 8.89167 25.7617 8.84167 26.0117 8.775C26.1951 8.725 26.3701 8.7 26.5367 8.7C26.8534 8.7 27.1451 8.80833 27.4117 9.025C27.7284 9.275 27.8951 9.59167 27.9117 9.975C27.9117 10.0583 27.9201 10.125 27.9367 10.175C27.9367 10.2917 27.9034 10.3833 27.8367 10.45C27.8201 10.5 27.7867 10.55 27.7367 10.6C27.7034 10.65 27.6701 10.7 27.6367 10.75C27.6034 10.8167 27.5701 10.8667 27.5367 10.9L27.3867 11.025C27.3701 11.0583 27.3451 11.1 27.3117 11.15C27.2784 11.1833 27.2367 11.2083 27.1867 11.225C27.1201 11.2417 27.0534 11.2667 26.9867 11.3C26.9201 11.3167 26.8451 11.325 26.7617 11.325C26.4617 11.3583 26.1951 11.35 25.9617 11.3H25.5617C25.5284 11.3 25.4784 11.3167 25.4117 11.35C25.3451 11.3833 25.3117 11.425 25.3117 11.475V11.575C25.3617 11.725 25.3951 11.8833 25.4117 12.05C25.4451 12.2 25.4951 12.3417 25.5617 12.475C25.5617 12.5417 25.5784 12.6083 25.6117 12.675C25.6951 12.825 25.7617 12.9833 25.8117 13.15C25.8617 13.3 25.9034 13.4583 25.9367 13.625C25.9367 13.6583 25.9534 13.725 25.9867 13.825C26.0367 13.9417 26.0784 14.0667 26.1117 14.2C26.1451 14.3167 26.1701 14.4417 26.1867 14.575C26.1867 14.675 26.2117 14.7667 26.2617 14.85C26.3284 15 26.3784 15.15 26.4117 15.3C26.4451 15.45 26.4701 15.6083 26.4867 15.775C26.5034 15.7917 26.5117 15.825 26.5117 15.875C26.5117 15.9083 26.5201 15.9417 26.5367 15.975C26.6201 16.1583 26.6784 16.3583 26.7117 16.575C26.7451 16.775 26.7867 16.975 26.8367 17.175C26.8701 17.275 26.8867 17.375 26.8867 17.475C26.9034 17.5917 26.9117 17.7083 26.9117 17.825C26.9117 17.9083 26.8867 18 26.8367 18.1C26.7867 18.15 26.7617 18.175 26.7617 18.175C26.6617 18.1917 26.6034 18.25 26.5867 18.35L26.5117 18.5C26.4784 18.5667 26.4284 18.6083 26.3617 18.625C26.2951 18.625 26.2367 18.65 26.1867 18.7C26.1201 18.7667 26.0284 18.8 25.9117 18.8C25.8451 18.8 25.7617 18.8 25.6617 18.8C25.5784 18.8 25.4951 18.8083 25.4117 18.825ZM19.3867 9.75C19.4867 9.73333 19.5867 9.71667 19.6867 9.7C19.8034 9.68333 19.9284 9.66667 20.0617 9.65C20.1451 9.63333 20.2534 9.61667 20.3867 9.6C20.5201 9.58333 20.6451 9.56667 20.7617 9.55C20.8784 9.51667 20.9951 9.5 21.1117 9.5C21.2284 9.48333 21.3451 9.46667 21.4617 9.45C21.5617 9.41667 21.6617 9.4 21.7617 9.4C21.8617 9.38333 21.9617 9.36667 22.0617 9.35C22.2117 9.31667 22.2701 9.23333 22.2367 9.1C22.2201 8.96667 22.1867 8.83333 22.1367 8.7C22.1034 8.55 22.0284 8.425 21.9117 8.325C21.8784 8.29167 21.8617 8.24167 21.8617 8.175V8.1C21.8284 7.96667 21.7867 7.84167 21.7367 7.725C21.7034 7.59167 21.6617 7.46667 21.6117 7.35C21.5784 7.21667 21.5367 7.1 21.4867 7C21.4534 6.88333 21.4117 6.76667 21.3617 6.65L21.0617 5.75C21.0117 5.63333 20.9617 5.51667 20.9117 5.4C20.8784 5.28333 20.8451 5.16667 20.8117 5.05L20.7367 4.95H20.6617L20.6117 5.025C20.5284 5.275 20.4284 5.525 20.3117 5.775C20.2117 6.025 20.1201 6.29167 20.0367 6.575C20.0367 6.60833 20.0284 6.65 20.0117 6.7C19.9951 6.75 19.9784 6.8 19.9617 6.85C19.8951 7.01667 19.8284 7.2 19.7617 7.4C19.7117 7.6 19.6701 7.8 19.6367 8C19.6201 8.11667 19.6034 8.23333 19.5867 8.35C19.5701 8.45 19.5451 8.55833 19.5117 8.675L19.2867 9.65C19.2701 9.66667 19.2784 9.69167 19.3117 9.725C19.3451 9.74167 19.3701 9.75 19.3867 9.75ZM32.1072 17.5C31.7906 17.5333 31.5322 17.4333 31.3322 17.2C31.2322 17.1 31.1406 16.9917 31.0572 16.875C30.9739 16.7583 30.9072 16.6333 30.8572 16.5C30.7739 16.2667 30.6989 16.0333 30.6322 15.8C30.5656 15.55 30.5072 15.3083 30.4572 15.075C30.4072 14.8917 30.3822 14.7167 30.3822 14.55C30.3656 14.3667 30.3406 14.1917 30.3072 14.025C30.2906 13.8417 30.2822 13.6583 30.2822 13.475C30.2822 13.375 30.2822 13.275 30.2822 13.175C30.2822 13.0583 30.2739 12.95 30.2572 12.85C30.2406 12.7833 30.2322 12.725 30.2322 12.675C30.2322 12.625 30.2322 12.5667 30.2322 12.5C30.2322 12.2667 30.2322 12.0333 30.2322 11.8C30.2322 11.55 30.2239 11.3083 30.2072 11.075C30.2072 10.9417 30.1989 10.825 30.1822 10.725C30.1656 10.6083 30.1322 10.4917 30.0822 10.375C30.0156 10.1917 30.0072 9.99167 30.0572 9.775C30.0572 9.725 30.0656 9.69167 30.0822 9.675C30.1156 9.55833 30.1322 9.44167 30.1322 9.325C30.1489 9.20833 30.1489 9.09167 30.1322 8.975C30.1156 8.89167 30.1072 8.80833 30.1072 8.725C30.1072 8.64167 30.1072 8.56667 30.1072 8.5C30.0906 8.31667 30.0822 8.13333 30.0822 7.95C30.0989 7.75 30.1156 7.55833 30.1322 7.375C30.1489 7.325 30.1572 7.275 30.1572 7.225C30.1572 7.175 30.1572 7.125 30.1572 7.075C30.1406 6.89167 30.1406 6.71667 30.1572 6.55C30.1906 6.38333 30.2156 6.21667 30.2322 6.05C30.2656 5.85 30.2989 5.65833 30.3322 5.475C30.3656 5.275 30.4072 5.075 30.4572 4.875C30.4906 4.79167 30.5072 4.7 30.5072 4.6C30.5072 4.5 30.5072 4.4 30.5072 4.3C30.5072 4.21667 30.4989 4.13333 30.4822 4.05C30.4822 3.96667 30.4822 3.89167 30.4822 3.825C30.4822 3.775 30.4822 3.725 30.4822 3.675C30.4822 3.625 30.4906 3.575 30.5072 3.525C30.5239 3.475 30.5322 3.425 30.5322 3.375C30.5322 3.325 30.5406 3.29167 30.5572 3.275C30.6072 3.20833 30.6489 3.15 30.6822 3.1C30.7156 3.03333 30.7656 2.975 30.8322 2.925C30.9156 2.875 30.9906 2.825 31.0572 2.775C31.1406 2.725 31.2156 2.68333 31.2822 2.65C31.3656 2.61667 31.4322 2.575 31.4822 2.525C31.5489 2.44167 31.6156 2.36667 31.6822 2.3C31.7656 2.21667 31.8322 2.125 31.8822 2.025C31.9656 1.94167 32.0489 1.85 32.1322 1.75C32.2322 1.63333 32.3406 1.54167 32.4572 1.475C32.4906 1.45833 32.5406 1.41667 32.6072 1.35C32.8072 1.16667 33.0406 1.05 33.3072 0.999999C33.3572 0.983332 33.3989 0.974999 33.4322 0.974999C33.4822 0.958333 33.5322 0.95 33.5822 0.95L33.7572 0.874999C33.8906 0.825 34.0072 0.85 34.1072 0.95C34.1406 0.999999 34.1822 1.05 34.2322 1.1C34.2989 1.13333 34.3572 1.16667 34.4072 1.2C34.5406 1.31667 34.6656 1.44167 34.7822 1.575C34.9156 1.70833 35.0322 1.85833 35.1322 2.025C35.2989 2.29167 35.4406 2.55833 35.5572 2.825C35.6906 3.09167 35.8156 3.36667 35.9322 3.65L36.3822 4.725C36.3989 4.825 36.4406 4.91667 36.5072 5C36.6406 5.25 36.7406 5.50833 36.8072 5.775C36.8739 6.025 36.9406 6.28333 37.0072 6.55C37.0239 6.58333 37.0322 6.61667 37.0322 6.65C37.0489 6.68333 37.0572 6.71667 37.0572 6.75C37.0906 6.88333 37.1156 7.025 37.1322 7.175C37.1656 7.30833 37.1739 7.44167 37.1572 7.575C37.1739 7.725 37.1656 7.875 37.1322 8.025C37.1156 8.15833 37.0906 8.29167 37.0572 8.425C37.0072 8.59167 36.9489 8.75 36.8822 8.9C36.8156 9.03333 36.7406 9.175 36.6572 9.325C36.6239 9.425 36.5656 9.51667 36.4822 9.6C36.3989 9.68333 36.3156 9.75833 36.2322 9.825C36.0989 9.89167 35.9656 9.99167 35.8322 10.125C35.7989 10.1583 35.7572 10.1833 35.7072 10.2C35.6739 10.2167 35.6406 10.2417 35.6072 10.275C35.4906 10.325 35.3656 10.3833 35.2322 10.45C35.0989 10.5 34.9656 10.55 34.8322 10.6C34.8156 10.6 34.8072 10.6167 34.8072 10.65C34.8072 10.6667 34.8156 10.6833 34.8322 10.7L35.5072 11.175C35.5906 11.225 35.6656 11.275 35.7322 11.325C35.7989 11.3583 35.8656 11.4 35.9322 11.45L36.0822 11.525C36.2822 11.6417 36.4822 11.7667 36.6822 11.9C36.8822 12.0333 37.0739 12.1667 37.2572 12.3C37.6072 12.5167 37.9572 12.7417 38.3072 12.975C38.6572 13.1917 38.9906 13.4333 39.3072 13.7C39.5906 13.9167 39.8406 14.1667 40.0572 14.45C40.1072 14.5 40.1572 14.5583 40.2072 14.625C40.2572 14.675 40.3156 14.7167 40.3822 14.75L40.4572 14.825C40.7239 15.0583 40.8739 15.375 40.9072 15.775C40.9072 15.825 40.8989 15.875 40.8822 15.925C40.8822 15.975 40.8822 16.025 40.8822 16.075C40.8822 16.175 40.8489 16.2583 40.7822 16.325C40.7156 16.3583 40.6822 16.4 40.6822 16.45C40.6322 16.5667 40.5572 16.65 40.4572 16.7C40.3739 16.7333 40.2906 16.7833 40.2072 16.85C40.1739 16.8667 40.1156 16.875 40.0322 16.875C39.9322 16.8583 39.8239 16.8417 39.7072 16.825C39.6072 16.8083 39.5072 16.8 39.4072 16.8C39.2739 16.8 39.1322 16.7417 38.9822 16.625C38.8822 16.5417 38.7906 16.4667 38.7072 16.4C38.6239 16.3167 38.5406 16.2167 38.4572 16.1C38.2406 15.8 37.9572 15.525 37.6072 15.275C37.4406 15.1417 37.2822 15.0167 37.1322 14.9C36.9822 14.7833 36.8156 14.675 36.6322 14.575C36.5156 14.5083 36.3989 14.4417 36.2822 14.375C36.1822 14.2917 36.0656 14.2167 35.9322 14.15C35.5156 13.8667 35.0906 13.5917 34.6572 13.325C34.2239 13.0417 33.7906 12.7583 33.3572 12.475C33.2906 12.425 33.2156 12.375 33.1322 12.325C33.0489 12.275 32.9656 12.225 32.8822 12.175C32.8489 12.1417 32.7989 12.1083 32.7322 12.075C32.6656 12.075 32.6322 12.1 32.6322 12.15C32.6322 12.1667 32.6239 12.1833 32.6072 12.2C32.6072 12.2 32.6072 12.2083 32.6072 12.225C32.6072 12.275 32.6072 12.325 32.6072 12.375C32.6072 12.425 32.6156 12.475 32.6322 12.525C32.6489 12.6583 32.6572 12.7917 32.6572 12.925C32.6572 13.0417 32.6572 13.1667 32.6572 13.3C32.6572 13.4 32.6572 13.5 32.6572 13.6C32.6739 13.6833 32.6906 13.775 32.7072 13.875C32.7072 13.925 32.7072 13.9833 32.7072 14.05C32.7239 14.1 32.7322 14.15 32.7322 14.2C32.7156 14.35 32.7239 14.5 32.7572 14.65C32.7906 14.8 32.8156 14.95 32.8322 15.1L32.9822 15.75C32.9989 15.8167 33.0156 15.8917 33.0322 15.975C33.0489 16.0417 33.0656 16.1167 33.0822 16.2C33.0989 16.2667 33.0989 16.3333 33.0822 16.4C33.0822 16.45 33.0739 16.5083 33.0572 16.575C33.0572 16.5917 33.0406 16.6167 33.0072 16.65C32.9239 16.6667 32.8656 16.725 32.8322 16.825C32.7822 16.9417 32.7072 17.0417 32.6072 17.125C32.5239 17.225 32.4322 17.3167 32.3322 17.4C32.3156 17.4167 32.2822 17.4333 32.2322 17.45C32.1822 17.4667 32.1406 17.4833 32.1072 17.5ZM33.0822 8.75H33.1322C33.3156 8.71667 33.4989 8.68333 33.6822 8.65C33.8822 8.6 34.0739 8.54167 34.2572 8.475C34.4406 8.425 34.5989 8.33333 34.7322 8.2C34.8489 8.08333 34.9072 7.95 34.9072 7.8C34.9239 7.68333 34.9239 7.575 34.9072 7.475C34.9072 7.35833 34.8906 7.24167 34.8572 7.125C34.7906 6.825 34.7156 6.53333 34.6322 6.25C34.5489 5.95 34.4489 5.66667 34.3322 5.4L34.1072 4.8C34.0572 4.63333 33.9989 4.475 33.9322 4.325C33.8656 4.15833 33.7906 4 33.7072 3.85C33.6906 3.81667 33.6739 3.78333 33.6572 3.75C33.6406 3.7 33.6239 3.65833 33.6072 3.625L33.5072 3.525C33.4572 3.45833 33.3989 3.45833 33.3322 3.525C33.3156 3.525 33.2906 3.54167 33.2572 3.575C33.1406 3.725 33.0322 3.88333 32.9322 4.05C32.8489 4.21667 32.7989 4.4 32.7822 4.6C32.7656 4.66667 32.7489 4.73333 32.7322 4.8C32.7322 4.86667 32.7322 4.94167 32.7322 5.025V6.1C32.7156 6.33333 32.7072 6.575 32.7072 6.825C32.7239 7.075 32.7156 7.31667 32.6822 7.55C32.6656 7.6 32.6572 7.65 32.6572 7.7C32.6739 7.75 32.6822 7.8 32.6822 7.85C32.6989 7.95 32.7072 8.05 32.7072 8.15C32.7072 8.23333 32.7072 8.325 32.7072 8.425C32.7072 8.59167 32.7239 8.69167 32.7572 8.725C32.8072 8.75833 32.9156 8.76667 33.0822 8.75ZM44.5176 17.25C44.3842 17.2333 44.2509 17.2 44.1176 17.15C43.9842 17.1167 43.8676 17.0583 43.7676 16.975C43.7509 16.9417 43.7259 16.9167 43.6926 16.9C43.6592 16.8667 43.6342 16.8417 43.6176 16.825C43.5509 16.725 43.4926 16.6167 43.4426 16.5C43.3926 16.3833 43.3592 16.2667 43.3426 16.15C43.3259 15.9 43.3509 15.65 43.4176 15.4C43.5009 15.1333 43.5592 14.8667 43.5926 14.6C43.6259 14.3167 43.6426 14.0333 43.6426 13.75C43.6592 13.4167 43.6676 13.0833 43.6676 12.75C43.6676 12.4167 43.6676 12.0917 43.6676 11.775C43.6676 11.6917 43.6592 11.6083 43.6426 11.525C43.6426 11.425 43.6342 11.3333 43.6176 11.25C43.6009 11.1667 43.5926 11.075 43.5926 10.975C43.5926 10.875 43.5926 10.7833 43.5926 10.7C43.5926 10.6167 43.5842 10.5333 43.5676 10.45C43.5676 10.35 43.5592 10.2583 43.5426 10.175C43.5259 10.1083 43.5176 10.0417 43.5176 9.975C43.5342 9.90833 43.5342 9.84167 43.5176 9.775C43.5176 9.65833 43.5176 9.54167 43.5176 9.425C43.5176 9.30833 43.5092 9.19167 43.4926 9.075C43.4759 9.05833 43.4676 9.025 43.4676 8.975V7.625C43.4509 7.54167 43.4426 7.46667 43.4426 7.4C43.4426 7.31667 43.4426 7.23333 43.4426 7.15C43.4592 7.1 43.4676 7.025 43.4676 6.925V6.625C43.4676 6.525 43.4592 6.43333 43.4426 6.35C43.4426 6.25 43.4509 6.15 43.4676 6.05V5.925C43.4509 5.79167 43.4426 5.66667 43.4426 5.55C43.4592 5.41667 43.4759 5.29167 43.4926 5.175C43.5092 5.10833 43.5176 5 43.5176 4.85C43.4842 4.75 43.4676 4.675 43.4676 4.625C43.4509 4.54167 43.4342 4.46667 43.4176 4.4C43.4176 4.31667 43.4259 4.24167 43.4426 4.175C43.4592 4.025 43.4259 3.86667 43.3426 3.7C43.2926 3.63333 43.2509 3.56667 43.2176 3.5C43.2009 3.41667 43.1759 3.34167 43.1426 3.275V3.2C43.1759 3.16667 43.2092 3.16667 43.2426 3.2C43.2926 3.21667 43.3176 3.20833 43.3176 3.175C43.3342 3.14167 43.3426 3.10833 43.3426 3.075C43.3426 3.025 43.3509 2.99167 43.3676 2.975C43.3842 2.925 43.3759 2.85833 43.3426 2.775C43.3259 2.725 43.3509 2.69167 43.4176 2.675C43.4509 2.60833 43.5092 2.56667 43.5926 2.55C43.6759 2.51667 43.7259 2.49167 43.7426 2.475C43.7926 2.40833 43.8509 2.375 43.9176 2.375C43.9842 2.375 44.0509 2.375 44.1176 2.375C44.1676 2.375 44.2426 2.35833 44.3426 2.325C44.4092 2.30833 44.4759 2.30833 44.5426 2.325C44.5759 2.34167 44.6092 2.36667 44.6426 2.4C44.6759 2.41667 44.7092 2.43333 44.7426 2.45C44.9092 2.51667 45.0509 2.65 45.1676 2.85C45.2009 2.93333 45.2342 3.01667 45.2676 3.1C45.3009 3.18333 45.3092 3.275 45.2926 3.375C45.2926 3.425 45.3259 3.45 45.3926 3.45H45.5926C45.6759 3.41667 45.7592 3.4 45.8426 3.4C45.9426 3.4 46.0259 3.4 46.0926 3.4H46.7426C46.9259 3.38333 47.1092 3.39167 47.2926 3.425C47.4926 3.44167 47.6842 3.46667 47.8676 3.5C48.4176 3.56667 48.9426 3.69167 49.4426 3.875C49.9926 4.04167 50.5092 4.31667 50.9926 4.7C51.1759 4.83333 51.3759 5.025 51.5926 5.275C51.6592 5.34167 51.7176 5.41667 51.7676 5.5C51.8342 5.56667 51.8926 5.64167 51.9426 5.725C52.1259 6.00833 52.2176 6.3 52.2176 6.6C52.2509 6.8 52.2509 6.99167 52.2176 7.175C52.2176 7.325 52.1842 7.45833 52.1176 7.575C52.1176 7.575 52.1092 7.58333 52.0926 7.6C52.0926 7.6 52.0926 7.60833 52.0926 7.625C52.0592 7.675 52.0342 7.73333 52.0176 7.8C52.0176 7.86667 51.9926 7.91667 51.9426 7.95L51.7176 8.225C51.6342 8.325 51.5426 8.43333 51.4426 8.55C51.3592 8.65 51.2592 8.74167 51.1426 8.825L50.8926 9C50.8426 9.01667 50.7926 9.04167 50.7426 9.075C50.6926 9.10833 50.6509 9.15 50.6176 9.2C50.5676 9.25 50.5092 9.29167 50.4426 9.325C50.3759 9.375 50.3009 9.425 50.2176 9.475C50.1509 9.50833 50.0759 9.54167 49.9926 9.575C49.9092 9.60833 49.9092 9.65 49.9926 9.7L50.1676 9.775C50.2509 9.825 50.3426 9.875 50.4426 9.925C50.5426 9.95833 50.6342 10 50.7176 10.05C50.8509 10.1167 50.9842 10.2 51.1176 10.3C51.2676 10.3833 51.4009 10.4667 51.5176 10.55L51.8176 10.825C51.9009 10.9083 51.9759 11 52.0426 11.1C52.1259 11.1833 52.2009 11.275 52.2676 11.375C52.4009 11.5417 52.5092 11.725 52.5926 11.925C52.6926 12.125 52.7592 12.3333 52.7926 12.55C52.8259 12.6667 52.8426 12.7917 52.8426 12.925C52.8426 13.0417 52.8259 13.1667 52.7926 13.3C52.7592 13.4333 52.7676 13.5583 52.8176 13.675C52.8342 13.725 52.8259 13.8083 52.7926 13.925L52.7176 14.25C52.6842 14.35 52.6426 14.4417 52.5926 14.525C52.5592 14.6083 52.5009 14.6917 52.4176 14.775L52.1176 15.175C52.0176 15.2917 51.9092 15.4083 51.7926 15.525C51.6926 15.6417 51.5759 15.7417 51.4426 15.825L51.2176 15.975C51.1842 15.975 51.1342 15.9917 51.0676 16.025C50.3342 16.4083 49.5759 16.6083 48.7926 16.625C48.7092 16.625 48.6426 16.6333 48.5926 16.65C48.4426 16.6667 48.2842 16.6833 48.1176 16.7C47.9676 16.7 47.8092 16.7 47.6426 16.7C47.5092 16.7 47.3676 16.7167 47.2176 16.75C47.0842 16.7667 46.9509 16.775 46.8176 16.775C46.7509 16.7917 46.6842 16.8083 46.6176 16.825C46.5509 16.825 46.4842 16.825 46.4176 16.825C46.3342 16.8417 46.2426 16.8583 46.1426 16.875C46.0592 16.8917 45.9759 16.9167 45.8926 16.95C45.8426 16.9667 45.7926 16.9833 45.7426 17C45.7092 17.0167 45.6676 17.0417 45.6176 17.075C45.4509 17.1917 45.2592 17.25 45.0426 17.25H44.5176ZM45.6176 8.925C45.6842 8.925 45.7426 8.91667 45.7926 8.9C45.8592 8.88333 45.9176 8.86667 45.9676 8.85C46.1842 8.76667 46.3926 8.69167 46.5926 8.625C46.7926 8.54167 47.0009 8.46667 47.2176 8.4C47.4676 8.31667 47.7176 8.225 47.9676 8.125C48.2176 8.00833 48.4676 7.9 48.7176 7.8C48.9176 7.71667 49.1092 7.60833 49.2926 7.475C49.4926 7.34167 49.6759 7.20833 49.8426 7.075C49.8759 7.05833 49.9009 7.04167 49.9176 7.025C49.9342 6.99167 49.9509 6.96667 49.9676 6.95C50.0009 6.9 50.0009 6.85 49.9676 6.8L49.8926 6.675C49.8259 6.625 49.7676 6.575 49.7176 6.525C49.6676 6.475 49.6009 6.425 49.5176 6.375C49.4509 6.34167 49.3842 6.3 49.3176 6.25C49.2509 6.2 49.1759 6.15833 49.0926 6.125L48.8676 5.975C48.6176 5.875 48.3676 5.79167 48.1176 5.725C47.8676 5.65833 47.6092 5.625 47.3426 5.625H46.4926C46.3592 5.625 46.2259 5.63333 46.0926 5.65C45.9592 5.66667 45.8259 5.69167 45.6926 5.725C45.6426 5.725 45.5676 5.74167 45.4676 5.775C45.3676 5.79167 45.3176 5.85 45.3176 5.95V6.525C45.3509 6.69167 45.3509 6.86667 45.3176 7.05V7.275C45.3509 7.375 45.3676 7.48333 45.3676 7.6C45.3676 7.7 45.3676 7.80833 45.3676 7.925C45.3842 8.225 45.4342 8.54167 45.5176 8.875C45.5176 8.90833 45.5509 8.925 45.6176 8.925ZM45.8176 14.7H45.9176C46.0342 14.6833 46.1509 14.675 46.2676 14.675C46.3842 14.6583 46.5009 14.6417 46.6176 14.625C46.8176 14.5917 47.0176 14.5583 47.2176 14.525C47.4342 14.4917 47.6426 14.4667 47.8426 14.45C48.2259 14.4167 48.6009 14.3667 48.9676 14.3C49.1176 14.2667 49.2592 14.2333 49.3926 14.2C49.5426 14.1667 49.6842 14.1333 49.8176 14.1C49.9009 14.0667 49.9759 14.0333 50.0426 14C50.1259 13.95 50.2009 13.9083 50.2676 13.875C50.5009 13.7083 50.6342 13.4583 50.6676 13.125C50.6842 12.8083 50.5676 12.55 50.3176 12.35C50.2842 12.3167 50.2176 12.2667 50.1176 12.2C49.8509 12.0167 49.5676 11.8667 49.2676 11.75C48.9676 11.6333 48.6592 11.5417 48.3426 11.475C48.1926 11.4417 48.0426 11.4167 47.8926 11.4C47.7592 11.3667 47.6176 11.3583 47.4676 11.375C47.4009 11.375 47.3259 11.3833 47.2426 11.4C47.1759 11.4 47.1092 11.4 47.0426 11.4C46.9759 11.4 46.9092 11.4083 46.8426 11.425C46.7759 11.425 46.7009 11.425 46.6176 11.425C46.5342 11.425 46.4426 11.425 46.3426 11.425C46.2592 11.425 46.1759 11.4333 46.0926 11.45H45.8676C45.7842 11.4833 45.7426 11.5333 45.7426 11.6C45.7592 11.7333 45.7676 11.875 45.7676 12.025C45.7676 12.175 45.7676 12.3167 45.7676 12.45C45.7676 12.4833 45.7676 12.5167 45.7676 12.55C45.7842 12.5833 45.7926 12.6167 45.7926 12.65V13.175C45.7759 13.275 45.7676 13.375 45.7676 13.475C45.7676 13.575 45.7676 13.6667 45.7676 13.75C45.7676 13.8667 45.7676 13.9833 45.7676 14.1C45.7842 14.2 45.7759 14.3083 45.7426 14.425C45.7259 14.4583 45.7176 14.5167 45.7176 14.6C45.7176 14.6333 45.7509 14.6667 45.8176 14.7ZM60.5525 17.5C60.3859 17.4833 60.2192 17.4583 60.0525 17.425C59.9025 17.4083 59.7525 17.3667 59.6025 17.3L58.9775 17.075C58.7609 16.9917 58.5609 16.9 58.3775 16.8C58.1942 16.6833 58.0109 16.5667 57.8275 16.45C57.7442 16.3667 57.6609 16.2917 57.5775 16.225C57.4942 16.1417 57.4109 16.0667 57.3275 16C57.1942 15.8667 57.0609 15.7333 56.9275 15.6C56.7942 15.45 56.6692 15.2917 56.5525 15.125L55.9525 14.2C55.8025 13.9667 55.6692 13.725 55.5525 13.475C55.4359 13.2083 55.3359 12.9417 55.2525 12.675C55.0692 12.175 54.9775 11.6833 54.9775 11.2V10.8C54.9775 10.3833 55.0025 9.975 55.0525 9.575C55.0859 9.24167 55.1609 8.94167 55.2775 8.675C55.3442 8.50833 55.4025 8.34167 55.4525 8.175C55.5025 8.00833 55.5609 7.85 55.6275 7.7L55.7025 7.525C55.7359 7.30833 55.8109 7.11667 55.9275 6.95C56.0442 6.76667 56.1442 6.59167 56.2275 6.425C56.2942 6.29167 56.3692 6.175 56.4525 6.075C56.5359 5.95833 56.6109 5.84167 56.6775 5.725C56.7109 5.675 56.7525 5.63333 56.8025 5.6C56.8525 5.55 56.8942 5.5 56.9275 5.45C56.9609 5.41667 56.9859 5.375 57.0025 5.325C57.0359 5.25833 57.0609 5.2 57.0775 5.15C57.1109 5.1 57.1692 5.03333 57.2525 4.95C57.3525 4.9 57.4442 4.78333 57.5275 4.6C57.5609 4.53333 57.5942 4.48333 57.6275 4.45C57.7275 4.36667 57.8109 4.26667 57.8775 4.15C57.9609 4.03333 58.0525 3.925 58.1525 3.825C58.2192 3.75833 58.2525 3.66667 58.2525 3.55C58.2525 3.46667 58.2525 3.39167 58.2525 3.325C58.2692 3.24167 58.2692 3.16667 58.2525 3.1C58.2359 3.01667 58.2609 2.94167 58.3275 2.875C58.3609 2.84167 58.3859 2.8 58.4025 2.75C58.4192 2.7 58.4359 2.65 58.4525 2.6C58.5025 2.43333 58.6359 2.29167 58.8525 2.175C58.8859 2.14167 58.9275 2.125 58.9775 2.125C59.0442 2.10833 59.1025 2.09167 59.1525 2.075C59.2692 2.025 59.4025 2.01667 59.5525 2.05C59.6192 2.06667 59.6775 2.075 59.7275 2.075C59.7775 2.05833 59.8275 2.04167 59.8775 2.025C59.9442 1.99167 60.0025 1.96667 60.0525 1.95C60.1192 1.93333 60.1775 1.91667 60.2275 1.9C60.4609 1.81667 60.7025 1.825 60.9525 1.925C61.2192 2.025 61.4109 2.2 61.5275 2.45C61.5609 2.53333 61.5942 2.61667 61.6275 2.7C61.6609 2.78333 61.6859 2.86667 61.7025 2.95C61.7359 3.13333 61.7275 3.29167 61.6775 3.425C61.6442 3.49167 61.6275 3.53333 61.6275 3.55C61.6109 3.61667 61.6275 3.675 61.6775 3.725C61.7109 3.775 61.7525 3.81667 61.8025 3.85C61.9859 4.01667 62.1609 4.18333 62.3275 4.35C62.4942 4.5 62.6525 4.66667 62.8025 4.85C62.9359 4.98333 63.0442 5.125 63.1275 5.275C63.2275 5.40833 63.3192 5.55833 63.4025 5.725C63.4359 5.80833 63.4775 5.9 63.5275 6C63.5775 6.08333 63.6275 6.16667 63.6775 6.25C63.7609 6.4 63.8275 6.55833 63.8775 6.725C63.9442 6.89167 64.0109 7.05833 64.0775 7.225V7.25C64.1109 7.36667 64.1359 7.49167 64.1525 7.625C64.1859 7.74167 64.2359 7.86667 64.3025 8C64.3525 8.11667 64.3942 8.24167 64.4275 8.375C64.4609 8.49167 64.4942 8.61667 64.5275 8.75C64.5609 8.9 64.5942 9.05 64.6275 9.2C64.6775 9.35 64.7109 9.5 64.7275 9.65C64.7442 9.71667 64.7609 9.78333 64.7775 9.85C64.7942 9.9 64.8109 9.95833 64.8275 10.025C64.8609 10.175 64.8942 10.325 64.9275 10.475C64.9609 10.625 64.9859 10.775 65.0025 10.925L65.0775 11.1C65.1109 11.2 65.1442 11.3333 65.1775 11.5C65.2275 11.7167 65.2525 11.9333 65.2525 12.15C65.2692 12.3667 65.2692 12.5917 65.2525 12.825C65.2525 12.9417 65.2442 13.0333 65.2275 13.1C65.1275 13.45 65.0025 13.8083 64.8525 14.175C64.7859 14.2917 64.7192 14.4083 64.6525 14.525C64.5859 14.625 64.5192 14.7333 64.4525 14.85L64.2275 15.2C64.1442 15.35 64.0525 15.4833 63.9525 15.6C63.7859 15.8667 63.5859 16.1 63.3525 16.3C63.1192 16.5 62.8692 16.6917 62.6025 16.875C62.0192 17.325 61.3359 17.5333 60.5525 17.5ZM60.4525 15.025C60.8025 15.025 61.1025 14.925 61.3525 14.725C61.4359 14.6417 61.5192 14.5667 61.6025 14.5C61.7025 14.4167 61.7859 14.3333 61.8525 14.25C62.1692 13.9 62.4192 13.5333 62.6025 13.15L62.6775 12.9C62.7109 12.6 62.7109 12.3 62.6775 12L62.5275 11.175C62.4775 10.9583 62.4359 10.75 62.4025 10.55C62.3692 10.3333 62.3192 10.125 62.2525 9.925C62.2025 9.80833 62.1859 9.71667 62.2025 9.65C62.2192 9.56667 62.2192 9.48333 62.2025 9.4C62.1859 9.31667 62.1609 9.23333 62.1275 9.15C62.0775 8.93333 62.0192 8.71667 61.9525 8.5C61.8859 8.28333 61.8192 8.06667 61.7525 7.85C61.7359 7.8 61.7192 7.75 61.7025 7.7C61.6859 7.65 61.6692 7.6 61.6525 7.55C61.5359 7.31667 61.4109 7.09167 61.2775 6.875C61.1442 6.65833 60.9942 6.45833 60.8275 6.275C60.7442 6.175 60.6525 6.08333 60.5525 6C60.4525 5.9 60.3525 5.80833 60.2525 5.725C60.2359 5.69167 60.2109 5.675 60.1775 5.675C60.1609 5.65833 60.1359 5.64167 60.1025 5.625C60.0525 5.55833 59.9859 5.56667 59.9025 5.65C59.8192 5.73333 59.7275 5.825 59.6275 5.925C59.5442 6.025 59.4609 6.125 59.3775 6.225C59.2942 6.34167 59.2025 6.45833 59.1025 6.575C59.0192 6.69167 58.9359 6.80833 58.8525 6.925C58.7359 7.075 58.6275 7.225 58.5275 7.375C58.4275 7.525 58.3275 7.675 58.2275 7.825C57.8775 8.39167 57.6025 9.01667 57.4025 9.7C57.3692 9.8 57.3525 9.875 57.3525 9.925C57.3359 10.0417 57.3192 10.1583 57.3025 10.275C57.3025 10.3917 57.3025 10.5167 57.3025 10.65V10.85C57.3192 10.9 57.3275 10.95 57.3275 11C57.3275 11.05 57.3359 11.1 57.3525 11.15C57.3525 11.35 57.4025 11.5667 57.5025 11.8C57.6359 12.1333 57.7859 12.4583 57.9525 12.775C58.1192 13.0917 58.3109 13.3917 58.5275 13.675C58.5775 13.7417 58.6275 13.8083 58.6775 13.875C58.7442 13.9417 58.8025 14.0083 58.8525 14.075C59.0025 14.2417 59.1609 14.3917 59.3275 14.525C59.5109 14.6583 59.6942 14.775 59.8775 14.875C60.0775 14.975 60.2692 15.025 60.4525 15.025ZM72.0316 17.25C72.015 17.2333 71.99 17.225 71.9566 17.225C71.79 17.125 71.6233 17.0333 71.4566 16.95C71.3066 16.85 71.165 16.7417 71.0316 16.625C70.965 16.5917 70.9233 16.5583 70.9066 16.525C70.7566 16.4417 70.6233 16.3417 70.5066 16.225C70.39 16.0917 70.2816 15.95 70.1816 15.8C70.1483 15.7667 70.115 15.725 70.0816 15.675C70.0483 15.625 70.0066 15.575 69.9566 15.525C69.79 15.3583 69.6566 15.1583 69.5566 14.925C69.54 14.875 69.515 14.825 69.4816 14.775C69.4483 14.725 69.415 14.675 69.3816 14.625C69.2816 14.4917 69.2066 14.3667 69.1566 14.25C69.1233 14.1167 69.0733 13.9917 69.0066 13.875C68.94 13.7417 68.8733 13.6167 68.8066 13.5C68.79 13.4333 68.765 13.3667 68.7316 13.3C68.6983 13.2333 68.6733 13.1667 68.6566 13.1C68.6566 13.0167 68.6316 12.925 68.5816 12.825C68.515 12.6417 68.4483 12.4583 68.3816 12.275C68.3316 12.075 68.2816 11.875 68.2316 11.675C68.1983 11.6083 68.1816 11.5583 68.1816 11.525C68.0816 11.3083 68.0066 11.0833 67.9566 10.85C67.9066 10.6167 67.8566 10.3917 67.8066 10.175L67.6566 9.05C67.64 9.01667 67.6316 8.975 67.6316 8.925C67.6316 8.875 67.6316 8.83333 67.6316 8.8C67.6316 8.7 67.6316 8.60833 67.6316 8.525C67.6316 8.425 67.615 8.325 67.5816 8.225C67.5483 8.00833 67.5566 7.80833 67.6066 7.625C67.6066 7.55833 67.6066 7.5 67.6066 7.45C67.6233 7.38333 67.6316 7.31667 67.6316 7.25C67.6316 7.16667 67.6316 7.08333 67.6316 7C67.6483 6.9 67.665 6.81667 67.6816 6.75C67.6983 6.7 67.7066 6.63333 67.7066 6.55C67.74 6.4 67.7566 6.25833 67.7566 6.125C67.7733 5.975 67.79 5.83333 67.8066 5.7C67.8566 5.46667 67.8816 5.24167 67.8816 5.025C67.8816 4.95833 67.8816 4.9 67.8816 4.85C67.8983 4.78333 67.915 4.71667 67.9316 4.65C67.9316 4.5 67.9233 4.39167 67.9066 4.325C67.8566 4.25833 67.8483 4.16667 67.8816 4.05C67.915 3.98333 67.9316 3.93333 67.9316 3.9C67.9483 3.86667 67.9566 3.83333 67.9566 3.8C67.9566 3.75 67.9816 3.71667 68.0316 3.7H68.2066C68.2733 3.7 68.315 3.675 68.3316 3.625C68.3483 3.55833 68.4066 3.50833 68.5066 3.475C68.59 3.44167 68.665 3.41667 68.7316 3.4C68.7983 3.36667 68.865 3.325 68.9316 3.275C68.9816 3.24167 69.04 3.225 69.1066 3.225C69.1733 3.225 69.24 3.23333 69.3066 3.25L69.7566 3.4C69.7733 3.41667 69.7816 3.425 69.7816 3.425C69.7983 3.425 69.815 3.43333 69.8316 3.45C69.965 3.58333 70.0733 3.73333 70.1566 3.9C70.2566 4.06667 70.315 4.25 70.3316 4.45C70.3316 4.51667 70.3316 4.58333 70.3316 4.65C70.3316 4.7 70.315 4.75833 70.2816 4.825C70.265 4.925 70.2483 5.025 70.2316 5.125C70.215 5.225 70.1983 5.33333 70.1816 5.45C70.1483 5.61667 70.1233 5.78333 70.1066 5.95C70.1066 6.1 70.1066 6.25833 70.1066 6.425C70.09 6.49167 70.0816 6.55833 70.0816 6.625C70.0816 6.675 70.0733 6.73333 70.0566 6.8C70.04 7 70.0316 7.2 70.0316 7.4C70.0316 7.6 70.0483 7.79167 70.0816 7.975C70.0816 7.99167 70.0816 8.01667 70.0816 8.05C70.0983 8.08333 70.0983 8.11667 70.0816 8.15C70.0816 8.31667 70.0983 8.49167 70.1316 8.675C70.165 8.85833 70.19 9.04167 70.2066 9.225C70.2233 9.39167 70.24 9.55 70.2566 9.7C70.2733 9.85 70.2983 10 70.3316 10.15C70.365 10.2167 70.3816 10.2833 70.3816 10.35C70.3983 10.4167 70.415 10.4833 70.4316 10.55C70.4983 10.8667 70.5733 11.175 70.6566 11.475C70.74 11.775 70.8483 12.075 70.9816 12.375C71.065 12.5583 71.1483 12.7167 71.2316 12.85C71.365 13.0833 71.4816 13.3167 71.5816 13.55C71.6483 13.6667 71.715 13.7833 71.7816 13.9C71.8483 14 71.915 14.1083 71.9816 14.225C72.0483 14.3083 72.115 14.3833 72.1816 14.45C72.2483 14.5167 72.315 14.5917 72.3816 14.675C72.465 14.7583 72.5733 14.7833 72.7066 14.75C72.79 14.7167 72.8483 14.6833 72.8816 14.65C72.965 14.6 73.04 14.55 73.1066 14.5C73.19 14.45 73.265 14.3917 73.3316 14.325C73.515 14.1417 73.6816 13.9583 73.8316 13.775C73.9983 13.5917 74.14 13.3917 74.2566 13.175C74.3566 12.9917 74.4566 12.8 74.5566 12.6C74.6566 12.4 74.7483 12.2 74.8316 12C74.9316 11.7667 75.0233 11.5333 75.1066 11.3C75.2066 11.0667 75.2983 10.825 75.3816 10.575C75.4483 10.4083 75.4983 10.2417 75.5316 10.075C75.5816 9.89167 75.615 9.71667 75.6316 9.55C75.665 9.36667 75.69 9.18333 75.7066 9C75.74 8.8 75.7483 8.60833 75.7316 8.425C75.7316 8.375 75.7316 8.325 75.7316 8.275C75.7483 8.225 75.7566 8.175 75.7566 8.125C75.79 8.00833 75.7983 7.9 75.7816 7.8C75.7816 7.7 75.7733 7.6 75.7566 7.5C75.74 7.21667 75.715 6.95 75.6816 6.7C75.665 6.43333 75.6483 6.16667 75.6316 5.9C75.6316 5.76667 75.6233 5.675 75.6066 5.625C75.59 5.475 75.5733 5.325 75.5566 5.175C75.5566 5.025 75.54 4.875 75.5066 4.725V4.525C75.5066 4.35833 75.4983 4.2 75.4816 4.05C75.4816 3.88333 75.4816 3.71667 75.4816 3.55C75.4816 3.41667 75.4733 3.3 75.4566 3.2C75.4566 3.08333 75.4566 2.96667 75.4566 2.85C75.4566 2.7 75.4816 2.575 75.5316 2.475C75.5816 2.39167 75.5983 2.325 75.5816 2.275C75.5316 2.175 75.5566 2.1 75.6566 2.05C75.74 1.96667 75.8233 1.9 75.9066 1.85C76.0066 1.8 76.115 1.76667 76.2316 1.75C76.265 1.73333 76.29 1.725 76.3066 1.725C76.34 1.725 76.365 1.71667 76.3816 1.7C76.4816 1.61667 76.615 1.59167 76.7816 1.625C76.815 1.64167 76.865 1.65 76.9316 1.65C77.0816 1.68333 77.19 1.74167 77.2566 1.825C77.3066 1.875 77.3816 1.93333 77.4816 2C77.615 2.06667 77.7066 2.15 77.7566 2.25C77.8066 2.35 77.84 2.45833 77.8566 2.575C77.89 2.74167 77.915 2.9 77.9316 3.05C77.965 3.2 77.9733 3.35833 77.9566 3.525V3.75C77.9566 3.91667 77.9566 4.08333 77.9566 4.25C77.9733 4.4 77.99 4.55833 78.0066 4.725C78.0233 4.775 78.0316 4.83333 78.0316 4.9C78.0316 4.95 78.0316 5 78.0316 5.05C78.0316 5.15 78.0316 5.25 78.0316 5.35C78.0483 5.43333 78.065 5.525 78.0816 5.625C78.0983 5.65833 78.1066 5.70833 78.1066 5.775C78.09 5.94167 78.09 6.10833 78.1066 6.275C78.14 6.425 78.165 6.58333 78.1816 6.75C78.1983 6.91667 78.2066 7.09167 78.2066 7.275C78.2233 7.45833 78.2316 7.64167 78.2316 7.825C78.2483 7.84167 78.2483 7.86667 78.2316 7.9C78.2316 7.93333 78.2316 7.96667 78.2316 8C78.1816 8.15 78.1733 8.325 78.2066 8.525C78.24 8.74167 78.2316 8.95 78.1816 9.15C78.165 9.3 78.1483 9.45 78.1316 9.6C78.115 9.75 78.09 9.90833 78.0566 10.075C78.0233 10.3417 77.965 10.6083 77.8816 10.875C77.7983 11.1417 77.715 11.4083 77.6316 11.675C77.6316 11.7083 77.6066 11.7667 77.5566 11.85C77.49 11.9667 77.4316 12.0917 77.3816 12.225C77.3316 12.3417 77.29 12.4667 77.2566 12.6L77.1816 12.775C77.0983 12.9417 77.0233 13.1083 76.9566 13.275C76.9066 13.425 76.84 13.5833 76.7566 13.75C76.7066 13.85 76.6566 13.95 76.6066 14.05C76.5566 14.15 76.4983 14.2417 76.4316 14.325C76.415 14.3583 76.39 14.3917 76.3566 14.425C76.3233 14.5417 76.2733 14.65 76.2066 14.75C76.14 14.85 76.0733 14.95 76.0066 15.05C75.8233 15.3333 75.6066 15.6 75.3566 15.85C75.1233 16.1 74.865 16.3333 74.5816 16.55L74.2816 16.725C74.0483 16.8417 73.7983 16.9417 73.5316 17.025C73.2816 17.1083 73.0233 17.1667 72.7566 17.2C72.6733 17.2167 72.5816 17.2167 72.4816 17.2C72.4316 17.2 72.3816 17.2 72.3316 17.2C72.2816 17.2 72.2316 17.2167 72.1816 17.25H72.0316ZM83.1814 17.5C82.8648 17.5333 82.6064 17.4333 82.4064 17.2C82.3064 17.1 82.2148 16.9917 82.1314 16.875C82.0481 16.7583 81.9814 16.6333 81.9314 16.5C81.8481 16.2667 81.7731 16.0333 81.7064 15.8C81.6398 15.55 81.5814 15.3083 81.5314 15.075C81.4814 14.8917 81.4564 14.7167 81.4564 14.55C81.4398 14.3667 81.4148 14.1917 81.3814 14.025C81.3648 13.8417 81.3564 13.6583 81.3564 13.475C81.3564 13.375 81.3564 13.275 81.3564 13.175C81.3564 13.0583 81.3481 12.95 81.3314 12.85C81.3148 12.7833 81.3064 12.725 81.3064 12.675C81.3064 12.625 81.3064 12.5667 81.3064 12.5C81.3064 12.2667 81.3064 12.0333 81.3064 11.8C81.3064 11.55 81.2981 11.3083 81.2814 11.075C81.2814 10.9417 81.2731 10.825 81.2564 10.725C81.2398 10.6083 81.2064 10.4917 81.1564 10.375C81.0898 10.1917 81.0814 9.99167 81.1314 9.775C81.1314 9.725 81.1398 9.69167 81.1564 9.675C81.1898 9.55833 81.2064 9.44167 81.2064 9.325C81.2231 9.20833 81.2231 9.09167 81.2064 8.975C81.1898 8.89167 81.1814 8.80833 81.1814 8.725C81.1814 8.64167 81.1814 8.56667 81.1814 8.5C81.1648 8.31667 81.1564 8.13333 81.1564 7.95C81.1731 7.75 81.1898 7.55833 81.2064 7.375C81.2231 7.325 81.2314 7.275 81.2314 7.225C81.2314 7.175 81.2314 7.125 81.2314 7.075C81.2148 6.89167 81.2148 6.71667 81.2314 6.55C81.2648 6.38333 81.2898 6.21667 81.3064 6.05C81.3398 5.85 81.3731 5.65833 81.4064 5.475C81.4398 5.275 81.4814 5.075 81.5314 4.875C81.5648 4.79167 81.5814 4.7 81.5814 4.6C81.5814 4.5 81.5814 4.4 81.5814 4.3C81.5814 4.21667 81.5731 4.13333 81.5564 4.05C81.5564 3.96667 81.5564 3.89167 81.5564 3.825C81.5564 3.775 81.5564 3.725 81.5564 3.675C81.5564 3.625 81.5648 3.575 81.5814 3.525C81.5981 3.475 81.6064 3.425 81.6064 3.375C81.6064 3.325 81.6148 3.29167 81.6314 3.275C81.6814 3.20833 81.7231 3.15 81.7564 3.1C81.7898 3.03333 81.8398 2.975 81.9064 2.925C81.9898 2.875 82.0648 2.825 82.1314 2.775C82.2148 2.725 82.2898 2.68333 82.3564 2.65C82.4398 2.61667 82.5064 2.575 82.5564 2.525C82.6231 2.44167 82.6898 2.36667 82.7564 2.3C82.8398 2.21667 82.9064 2.125 82.9564 2.025C83.0398 1.94167 83.1231 1.85 83.2064 1.75C83.3064 1.63333 83.4148 1.54167 83.5314 1.475C83.5648 1.45833 83.6148 1.41667 83.6814 1.35C83.8814 1.16667 84.1148 1.05 84.3814 0.999999C84.4314 0.983332 84.4731 0.974999 84.5064 0.974999C84.5564 0.958333 84.6064 0.95 84.6564 0.95L84.8314 0.874999C84.9648 0.825 85.0814 0.85 85.1814 0.95C85.2148 0.999999 85.2564 1.05 85.3064 1.1C85.3731 1.13333 85.4314 1.16667 85.4814 1.2C85.6148 1.31667 85.7398 1.44167 85.8564 1.575C85.9898 1.70833 86.1064 1.85833 86.2064 2.025C86.3731 2.29167 86.5148 2.55833 86.6314 2.825C86.7648 3.09167 86.8898 3.36667 87.0064 3.65L87.4564 4.725C87.4731 4.825 87.5148 4.91667 87.5814 5C87.7148 5.25 87.8148 5.50833 87.8814 5.775C87.9481 6.025 88.0148 6.28333 88.0814 6.55C88.0981 6.58333 88.1064 6.61667 88.1064 6.65C88.1231 6.68333 88.1314 6.71667 88.1314 6.75C88.1648 6.88333 88.1898 7.025 88.2064 7.175C88.2398 7.30833 88.2481 7.44167 88.2314 7.575C88.2481 7.725 88.2398 7.875 88.2064 8.025C88.1898 8.15833 88.1648 8.29167 88.1314 8.425C88.0814 8.59167 88.0231 8.75 87.9564 8.9C87.8898 9.03333 87.8148 9.175 87.7314 9.325C87.6981 9.425 87.6398 9.51667 87.5564 9.6C87.4731 9.68333 87.3898 9.75833 87.3064 9.825C87.1731 9.89167 87.0398 9.99167 86.9064 10.125C86.8731 10.1583 86.8314 10.1833 86.7814 10.2C86.7481 10.2167 86.7148 10.2417 86.6814 10.275C86.5648 10.325 86.4398 10.3833 86.3064 10.45C86.1731 10.5 86.0398 10.55 85.9064 10.6C85.8898 10.6 85.8814 10.6167 85.8814 10.65C85.8814 10.6667 85.8898 10.6833 85.9064 10.7L86.5814 11.175C86.6648 11.225 86.7398 11.275 86.8064 11.325C86.8731 11.3583 86.9398 11.4 87.0064 11.45L87.1564 11.525C87.3564 11.6417 87.5564 11.7667 87.7564 11.9C87.9564 12.0333 88.1481 12.1667 88.3314 12.3C88.6814 12.5167 89.0314 12.7417 89.3814 12.975C89.7314 13.1917 90.0648 13.4333 90.3814 13.7C90.6648 13.9167 90.9148 14.1667 91.1314 14.45C91.1814 14.5 91.2314 14.5583 91.2814 14.625C91.3314 14.675 91.3898 14.7167 91.4564 14.75L91.5314 14.825C91.7981 15.0583 91.9481 15.375 91.9814 15.775C91.9814 15.825 91.9731 15.875 91.9564 15.925C91.9564 15.975 91.9564 16.025 91.9564 16.075C91.9564 16.175 91.9231 16.2583 91.8564 16.325C91.7898 16.3583 91.7564 16.4 91.7564 16.45C91.7064 16.5667 91.6314 16.65 91.5314 16.7C91.4481 16.7333 91.3648 16.7833 91.2814 16.85C91.2481 16.8667 91.1898 16.875 91.1064 16.875C91.0064 16.8583 90.8981 16.8417 90.7814 16.825C90.6814 16.8083 90.5814 16.8 90.4814 16.8C90.3481 16.8 90.2064 16.7417 90.0564 16.625C89.9564 16.5417 89.8648 16.4667 89.7814 16.4C89.6981 16.3167 89.6148 16.2167 89.5314 16.1C89.3148 15.8 89.0314 15.525 88.6814 15.275C88.5148 15.1417 88.3564 15.0167 88.2064 14.9C88.0564 14.7833 87.8898 14.675 87.7064 14.575C87.5898 14.5083 87.4731 14.4417 87.3564 14.375C87.2564 14.2917 87.1398 14.2167 87.0064 14.15C86.5898 13.8667 86.1648 13.5917 85.7314 13.325C85.2981 13.0417 84.8648 12.7583 84.4314 12.475C84.3648 12.425 84.2898 12.375 84.2064 12.325C84.1231 12.275 84.0398 12.225 83.9564 12.175C83.9231 12.1417 83.8731 12.1083 83.8064 12.075C83.7398 12.075 83.7064 12.1 83.7064 12.15C83.7064 12.1667 83.6981 12.1833 83.6814 12.2C83.6814 12.2 83.6814 12.2083 83.6814 12.225C83.6814 12.275 83.6814 12.325 83.6814 12.375C83.6814 12.425 83.6898 12.475 83.7064 12.525C83.7231 12.6583 83.7314 12.7917 83.7314 12.925C83.7314 13.0417 83.7314 13.1667 83.7314 13.3C83.7314 13.4 83.7314 13.5 83.7314 13.6C83.7481 13.6833 83.7648 13.775 83.7814 13.875C83.7814 13.925 83.7814 13.9833 83.7814 14.05C83.7981 14.1 83.8064 14.15 83.8064 14.2C83.7898 14.35 83.7981 14.5 83.8314 14.65C83.8648 14.8 83.8898 14.95 83.9064 15.1L84.0564 15.75C84.0731 15.8167 84.0898 15.8917 84.1064 15.975C84.1231 16.0417 84.1398 16.1167 84.1564 16.2C84.1731 16.2667 84.1731 16.3333 84.1564 16.4C84.1564 16.45 84.1481 16.5083 84.1314 16.575C84.1314 16.5917 84.1148 16.6167 84.0814 16.65C83.9981 16.6667 83.9398 16.725 83.9064 16.825C83.8564 16.9417 83.7814 17.0417 83.6814 17.125C83.5981 17.225 83.5064 17.3167 83.4064 17.4C83.3898 17.4167 83.3564 17.4333 83.3064 17.45C83.2564 17.4667 83.2148 17.4833 83.1814 17.5ZM84.1564 8.75H84.2064C84.3898 8.71667 84.5731 8.68333 84.7564 8.65C84.9564 8.6 85.1481 8.54167 85.3314 8.475C85.5148 8.425 85.6731 8.33333 85.8064 8.2C85.9231 8.08333 85.9814 7.95 85.9814 7.8C85.9981 7.68333 85.9981 7.575 85.9814 7.475C85.9814 7.35833 85.9648 7.24167 85.9314 7.125C85.8648 6.825 85.7898 6.53333 85.7064 6.25C85.6231 5.95 85.5231 5.66667 85.4064 5.4L85.1814 4.8C85.1314 4.63333 85.0731 4.475 85.0064 4.325C84.9398 4.15833 84.8648 4 84.7814 3.85C84.7648 3.81667 84.7481 3.78333 84.7314 3.75C84.7148 3.7 84.6981 3.65833 84.6814 3.625L84.5814 3.525C84.5314 3.45833 84.4731 3.45833 84.4064 3.525C84.3898 3.525 84.3648 3.54167 84.3314 3.575C84.2148 3.725 84.1064 3.88333 84.0064 4.05C83.9231 4.21667 83.8731 4.4 83.8564 4.6C83.8398 4.66667 83.8231 4.73333 83.8064 4.8C83.8064 4.86667 83.8064 4.94167 83.8064 5.025V6.1C83.7898 6.33333 83.7814 6.575 83.7814 6.825C83.7981 7.075 83.7898 7.31667 83.7564 7.55C83.7398 7.6 83.7314 7.65 83.7314 7.7C83.7481 7.75 83.7564 7.8 83.7564 7.85C83.7731 7.95 83.7814 8.05 83.7814 8.15C83.7814 8.23333 83.7814 8.325 83.7814 8.425C83.7814 8.59167 83.7981 8.69167 83.8314 8.725C83.8814 8.75833 83.9898 8.76667 84.1564 8.75Z" fill="#353535"/>
</svg>
