<svg width="223" height="29" viewBox="0 0 223 29" fill="none" xmlns="http://www.w3.org/2000/svg">
<path d="M4.6393 24.3C4.6193 24.3 4.5893 24.29 4.5493 24.27C4.5293 24.27 4.4993 24.27 4.4593 24.27C4.3193 24.27 4.2193 24.21 4.1593 24.09C4.0793 23.95 3.9993 23.83 3.9193 23.73C3.8393 23.63 3.7493 23.53 3.6493 23.43C3.5493 23.33 3.4593 23.22 3.3793 23.1C3.3193 22.98 3.2593 22.86 3.1993 22.74C3.1393 22.64 3.1093 22.54 3.1093 22.44V22.14C3.1093 22.04 3.0993 21.94 3.0793 21.84C3.0793 21.72 3.0693 21.61 3.0493 21.51C3.0093 21.35 2.9693 21.18 2.9293 21C2.9093 20.82 2.8793 20.65 2.8393 20.49C2.8393 20.45 2.8293 20.41 2.8093 20.37C2.8093 20.31 2.8093 20.26 2.8093 20.22C2.7893 20 2.7593 19.78 2.7193 19.56C2.6793 19.32 2.6393 19.09 2.5993 18.87C2.5393 18.47 2.4693 18.08 2.3893 17.7C2.3293 17.3 2.2693 16.91 2.2093 16.53L2.0293 15.54C2.0093 15.38 1.9493 15.21 1.8493 15.03C1.7293 14.81 1.6393 14.57 1.5793 14.31C1.5593 14.19 1.5293 14.08 1.4893 13.98C1.4493 13.86 1.4093 13.74 1.3693 13.62C1.3093 13.42 1.2493 13.22 1.1893 13.02C1.1293 12.82 1.0793 12.62 1.0393 12.42C1.0193 12.26 0.989297 12.1 0.949297 11.94C0.909297 11.78 0.869297 11.62 0.829297 11.46L0.649297 10.65C0.649297 10.61 0.639297 10.58 0.619297 10.56C0.599297 10.28 0.559297 10 0.499297 9.72C0.439297 9.42 0.379297 9.13 0.319297 8.85C0.299297 8.69 0.269297 8.5 0.229297 8.28C0.209297 8.04 0.209297 7.85 0.229297 7.71V7.41C0.269297 7.13 0.359297 6.87 0.499297 6.63C0.659297 6.35 0.919297 6.13 1.2793 5.97C1.3793 5.93 1.4793 5.9 1.5793 5.88C1.6793 5.86 1.7693 5.84 1.8493 5.82C2.0693 5.8 2.2793 5.83 2.4793 5.91C2.6793 5.97 2.8793 6.06 3.0793 6.18C3.1393 6.22 3.1893 6.27 3.2293 6.33C3.2893 6.43 3.3493 6.53 3.4093 6.63C3.4893 6.73 3.5393 6.84 3.5593 6.96C3.5993 7.08 3.6393 7.2 3.6793 7.32C3.7393 7.44 3.7993 7.55 3.8593 7.65C3.9593 7.85 4.0293 8.06 4.0693 8.28C4.1093 8.5 4.1493 8.72 4.1893 8.94C4.2493 9.24 4.2793 9.56 4.2793 9.9V10.05C4.3193 10.25 4.3393 10.45 4.3393 10.65C4.3393 10.83 4.3393 11.02 4.3393 11.22C4.3593 11.54 4.3893 11.86 4.4293 12.18C4.4693 12.48 4.5093 12.8 4.5493 13.14L4.7293 14.55V14.61C4.7693 14.83 4.8093 15.06 4.8493 15.3C4.9093 15.52 4.9493 15.74 4.9693 15.96C5.0293 16.3 5.0893 16.65 5.1493 17.01C5.2293 17.35 5.2893 17.69 5.3293 18.03L5.5093 19.29C5.5493 19.49 5.5793 19.69 5.5993 19.89C5.6393 20.09 5.6793 20.29 5.7193 20.49C5.7593 20.69 5.7893 20.89 5.8093 21.09C5.8493 21.27 5.8893 21.46 5.9293 21.66C5.9493 21.74 5.9593 21.82 5.9593 21.9C5.9793 21.96 5.9893 22.03 5.9893 22.11C6.0093 22.41 5.9593 22.7 5.8393 22.98C5.8193 23.06 5.7693 23.14 5.6893 23.22C5.6093 23.34 5.5393 23.42 5.4793 23.46C5.3193 23.62 5.1993 23.79 5.1193 23.97C5.1193 23.99 5.0993 24.02 5.0593 24.06C5.0393 24.1 5.0093 24.14 4.9693 24.18C4.8893 24.26 4.7793 24.3 4.6393 24.3ZM9.50891 10.29C9.32891 10.29 9.17891 10.21 9.05891 10.05C8.95891 9.91 8.86891 9.76 8.78891 9.6C8.70891 9.44 8.64891 9.27 8.60891 9.09C8.52891 8.69 8.57891 8.29 8.75891 7.89C8.79891 7.83 8.82891 7.77 8.84891 7.71C8.88891 7.65 8.91891 7.6 8.93891 7.56L9.17891 7.05C9.19891 7.07 9.20891 7.08 9.20891 7.08C9.26891 6.94 9.32891 6.81 9.38891 6.69C9.46891 6.55 9.53891 6.41 9.59891 6.27C9.63891 6.19 9.67891 6.09 9.71891 5.97C9.75891 5.81 9.80891 5.66 9.86891 5.52C9.92891 5.38 9.99891 5.24 10.0789 5.1C10.1589 4.94 10.2289 4.79 10.2889 4.65C10.3689 4.51 10.4389 4.37 10.4989 4.23C10.5389 4.13 10.5789 4.05 10.6189 3.99C10.6789 3.91 10.7289 3.83 10.7689 3.75C10.8089 3.67 10.8489 3.6 10.8889 3.54C10.9489 3.46 10.9889 3.38 11.0089 3.3C11.1689 3.08 11.3289 2.9 11.4889 2.76C11.6689 2.6 11.8789 2.48 12.1189 2.4C12.5589 2.28 12.9789 2.3 13.3789 2.46C13.8189 2.68 14.0989 3 14.2189 3.42C14.3189 3.74 14.3389 4.03 14.2789 4.29C14.2189 4.65 14.0789 4.99 13.8589 5.31C13.7789 5.45 13.6989 5.59 13.6189 5.73C13.5389 5.87 13.4689 6.02 13.4089 6.18L12.8389 7.35C12.7989 7.47 12.7589 7.59 12.7189 7.71C12.6789 7.81 12.6389 7.92 12.5989 8.04C12.5389 8.24 12.4489 8.41 12.3289 8.55C12.2489 8.69 12.1489 8.83 12.0289 8.97C11.9289 9.11 11.8289 9.26 11.7289 9.42C11.6489 9.52 11.5589 9.61 11.4589 9.69C11.3789 9.77 11.2889 9.85 11.1889 9.93C11.0489 10.01 10.8889 10.08 10.7089 10.14C10.5489 10.18 10.3889 10.22 10.2289 10.26C10.1489 10.26 10.0489 10.27 9.92891 10.29C9.82891 10.29 9.72891 10.29 9.62891 10.29H9.50891ZM19.0034 24.09C18.8434 24.15 18.6634 24.13 18.4634 24.03L17.8634 23.76C17.7634 23.72 17.6834 23.63 17.6234 23.49L17.5334 23.31C17.4934 23.21 17.4434 23.14 17.3834 23.1C17.2834 23.02 17.2134 22.88 17.1734 22.68C17.1334 22.48 17.1034 22.28 17.0834 22.08C17.0634 21.88 17.0434 21.68 17.0234 21.48C17.0034 21.32 16.9934 21.16 16.9934 21C16.9934 20.84 16.9934 20.69 16.9934 20.55L17.0234 20.34C17.0634 20.24 17.0834 20.14 17.0834 20.04C17.0834 19.94 17.0834 19.85 17.0834 19.77V14.31C17.1234 14.03 17.1434 13.75 17.1434 13.47C17.1434 13.17 17.1434 12.88 17.1434 12.6C17.1634 12.32 17.1734 12.05 17.1734 11.79C17.1734 11.51 17.1534 11.24 17.1134 10.98C17.0934 10.88 17.0834 10.77 17.0834 10.65C17.0834 10.53 17.0834 10.41 17.0834 10.29C17.0834 10.11 17.0834 9.93 17.0834 9.75C17.0834 9.57 17.0634 9.39 17.0234 9.21V9.12C17.0234 8.84 17.0034 8.57 16.9634 8.31C16.9434 8.03 16.9234 7.76 16.9034 7.5C16.8834 7.34 16.8634 7.19 16.8434 7.05C16.8234 6.91 16.7934 6.77 16.7534 6.63C16.7334 6.55 16.7234 6.47 16.7234 6.39C16.7234 6.31 16.7234 6.23 16.7234 6.15C16.7234 6.01 16.7434 5.88 16.7834 5.76C16.8234 5.62 16.8634 5.49 16.9034 5.37C16.9234 5.33 16.9734 5.27 17.0534 5.19C17.0934 5.15 17.1334 5.12 17.1734 5.1C17.2134 5.08 17.2434 5.06 17.2634 5.04C17.3834 4.88 17.5434 4.81 17.7434 4.83C17.7834 4.85 17.8434 4.84 17.9234 4.8C18.0234 4.72 18.1134 4.71 18.1934 4.77C18.2534 4.81 18.3534 4.81 18.4934 4.77C18.5534 4.77 18.6034 4.79 18.6434 4.83C18.7034 4.91 18.7834 4.97 18.8834 5.01C18.9834 5.05 19.0534 5.11 19.0934 5.19C19.1534 5.25 19.2134 5.31 19.2734 5.37C19.3134 5.43 19.3534 5.49 19.3934 5.55C19.4534 5.59 19.4834 5.65 19.4834 5.73C19.5034 5.81 19.5034 5.89 19.4834 5.97C19.4834 6.03 19.4834 6.1 19.4834 6.18C19.4834 6.36 19.4934 6.55 19.5134 6.75C19.5534 6.93 19.5834 7.11 19.6034 7.29C19.6434 7.49 19.6734 7.7 19.6934 7.92C19.7134 8.12 19.7334 8.33 19.7534 8.55V8.85C19.7934 8.99 19.8134 9.13 19.8134 9.27C19.8134 9.41 19.8234 9.55 19.8434 9.69V9.72C19.8634 9.96 19.8834 10.2 19.9034 10.44C19.9234 10.68 19.9434 10.92 19.9634 11.16C19.9834 11.26 19.9934 11.37 19.9934 11.49C19.9934 11.59 19.9934 11.69 19.9934 11.79V19.77C19.9934 19.95 20.0034 20.13 20.0234 20.31C20.0634 20.49 20.0934 20.66 20.1134 20.82C20.1134 20.92 20.1734 20.97 20.2934 20.97C20.4734 21.01 20.6434 21.01 20.8034 20.97C21.0234 20.93 21.2334 20.91 21.4334 20.91C21.6534 20.91 21.8734 20.91 22.0934 20.91C22.3134 20.91 22.5234 20.91 22.7234 20.91C22.9434 20.89 23.1534 20.87 23.3534 20.85H23.6834C23.8434 20.87 23.9834 20.89 24.1034 20.91C24.2434 20.91 24.3834 20.91 24.5234 20.91C24.7434 20.91 24.9634 20.92 25.1834 20.94C25.4234 20.94 25.6534 20.95 25.8734 20.97C26.0334 20.99 26.1934 21 26.3534 21C26.5334 21 26.7134 21 26.8934 21H27.0434C27.4434 20.98 27.8034 21.08 28.1234 21.3C28.2634 21.36 28.3634 21.46 28.4234 21.6C28.4634 21.68 28.4934 21.76 28.5134 21.84C28.5534 21.9 28.5834 21.98 28.6034 22.08C28.6234 22.16 28.6334 22.24 28.6334 22.32C28.6534 22.38 28.6734 22.45 28.6934 22.53C28.7534 22.71 28.7334 22.91 28.6334 23.13C28.6134 23.19 28.5934 23.25 28.5734 23.31C28.5534 23.37 28.5234 23.43 28.4834 23.49C28.4434 23.55 28.3934 23.6 28.3334 23.64C28.3334 23.64 28.2934 23.66 28.2134 23.7C28.0534 23.84 27.8734 23.93 27.6734 23.97C27.4934 24.01 27.2934 24.05 27.0734 24.09L26.7734 24.06C26.4734 23.96 26.1734 23.9 25.8734 23.88C25.7934 23.86 25.7034 23.85 25.6034 23.85C25.5034 23.83 25.4034 23.82 25.3034 23.82C25.1634 23.82 25.0234 23.82 24.8834 23.82C24.7434 23.8 24.5934 23.78 24.4334 23.76L24.1334 23.73C23.9534 23.75 23.7734 23.76 23.5934 23.76C23.4134 23.74 23.2334 23.74 23.0534 23.76C22.9734 23.76 22.8934 23.76 22.8134 23.76C22.7334 23.74 22.6534 23.73 22.5734 23.73C22.4134 23.73 22.2534 23.73 22.0934 23.73C21.9534 23.73 21.8034 23.75 21.6434 23.79C21.5634 23.81 21.4634 23.83 21.3434 23.85C21.2434 23.85 21.1434 23.85 21.0434 23.85C20.7434 23.87 20.4434 23.9 20.1434 23.94C19.8434 23.96 19.5534 24 19.2734 24.06C19.2134 24.08 19.1234 24.09 19.0034 24.09ZM33.6812 24.09C33.5212 24.15 33.3412 24.13 33.1412 24.03L32.5412 23.76C32.4412 23.72 32.3612 23.63 32.3012 23.49L32.2112 23.31C32.1712 23.21 32.1212 23.14 32.0612 23.1C31.9612 23.02 31.8912 22.88 31.8512 22.68C31.8112 22.48 31.7812 22.28 31.7612 22.08C31.7412 21.88 31.7212 21.68 31.7012 21.48C31.6812 21.32 31.6712 21.16 31.6712 21C31.6712 20.84 31.6712 20.69 31.6712 20.55L31.7012 20.34C31.7412 20.24 31.7612 20.14 31.7612 20.04C31.7612 19.94 31.7612 19.85 31.7612 19.77V14.31C31.8012 14.03 31.8212 13.75 31.8212 13.47C31.8212 13.17 31.8212 12.88 31.8212 12.6C31.8412 12.32 31.8512 12.05 31.8512 11.79C31.8512 11.51 31.8312 11.24 31.7912 10.98C31.7712 10.88 31.7612 10.77 31.7612 10.65C31.7612 10.53 31.7612 10.41 31.7612 10.29C31.7612 10.11 31.7612 9.93 31.7612 9.75C31.7612 9.57 31.7412 9.39 31.7012 9.21V9.12C31.7012 8.84 31.6812 8.57 31.6412 8.31C31.6212 8.03 31.6012 7.76 31.5812 7.5C31.5612 7.34 31.5412 7.19 31.5212 7.05C31.5012 6.91 31.4712 6.77 31.4312 6.63C31.4112 6.55 31.4012 6.47 31.4012 6.39C31.4012 6.31 31.4012 6.23 31.4012 6.15C31.4012 6.01 31.4212 5.88 31.4612 5.76C31.5012 5.62 31.5412 5.49 31.5812 5.37C31.6012 5.33 31.6512 5.27 31.7312 5.19C31.7712 5.15 31.8112 5.12 31.8512 5.1C31.8912 5.08 31.9212 5.06 31.9412 5.04C32.0612 4.88 32.2212 4.81 32.4212 4.83C32.4612 4.85 32.5212 4.84 32.6012 4.8C32.7012 4.72 32.7912 4.71 32.8712 4.77C32.9312 4.81 33.0312 4.81 33.1712 4.77C33.2312 4.77 33.2812 4.79 33.3212 4.83C33.3812 4.91 33.4612 4.97 33.5612 5.01C33.6612 5.05 33.7312 5.11 33.7712 5.19C33.8312 5.25 33.8912 5.31 33.9512 5.37C33.9912 5.43 34.0312 5.49 34.0712 5.55C34.1312 5.59 34.1612 5.65 34.1612 5.73C34.1812 5.81 34.1812 5.89 34.1612 5.97C34.1612 6.03 34.1612 6.1 34.1612 6.18C34.1612 6.36 34.1712 6.55 34.1912 6.75C34.2312 6.93 34.2612 7.11 34.2812 7.29C34.3212 7.49 34.3512 7.7 34.3712 7.92C34.3912 8.12 34.4112 8.33 34.4312 8.55V8.85C34.4712 8.99 34.4912 9.13 34.4912 9.27C34.4912 9.41 34.5012 9.55 34.5212 9.69V9.72C34.5412 9.96 34.5612 10.2 34.5812 10.44C34.6012 10.68 34.6212 10.92 34.6412 11.16C34.6612 11.26 34.6712 11.37 34.6712 11.49C34.6712 11.59 34.6712 11.69 34.6712 11.79V19.77C34.6712 19.95 34.6812 20.13 34.7012 20.31C34.7412 20.49 34.7712 20.66 34.7912 20.82C34.7912 20.92 34.8512 20.97 34.9712 20.97C35.1512 21.01 35.3212 21.01 35.4812 20.97C35.7012 20.93 35.9112 20.91 36.1112 20.91C36.3312 20.91 36.5512 20.91 36.7712 20.91C36.9912 20.91 37.2012 20.91 37.4012 20.91C37.6212 20.89 37.8312 20.87 38.0312 20.85H38.3612C38.5212 20.87 38.6612 20.89 38.7812 20.91C38.9212 20.91 39.0612 20.91 39.2012 20.91C39.4212 20.91 39.6412 20.92 39.8612 20.94C40.1012 20.94 40.3312 20.95 40.5512 20.97C40.7112 20.99 40.8712 21 41.0312 21C41.2112 21 41.3912 21 41.5712 21H41.7212C42.1212 20.98 42.4812 21.08 42.8012 21.3C42.9412 21.36 43.0412 21.46 43.1012 21.6C43.1412 21.68 43.1712 21.76 43.1912 21.84C43.2312 21.9 43.2612 21.98 43.2812 22.08C43.3012 22.16 43.3112 22.24 43.3112 22.32C43.3312 22.38 43.3512 22.45 43.3712 22.53C43.4312 22.71 43.4112 22.91 43.3112 23.13C43.2912 23.19 43.2712 23.25 43.2512 23.31C43.2312 23.37 43.2012 23.43 43.1612 23.49C43.1212 23.55 43.0712 23.6 43.0112 23.64C43.0112 23.64 42.9712 23.66 42.8912 23.7C42.7312 23.84 42.5512 23.93 42.3512 23.97C42.1712 24.01 41.9712 24.05 41.7512 24.09L41.4512 24.06C41.1512 23.96 40.8512 23.9 40.5512 23.88C40.4712 23.86 40.3812 23.85 40.2812 23.85C40.1812 23.83 40.0812 23.82 39.9812 23.82C39.8412 23.82 39.7012 23.82 39.5612 23.82C39.4212 23.8 39.2712 23.78 39.1112 23.76L38.8112 23.73C38.6312 23.75 38.4512 23.76 38.2712 23.76C38.0912 23.74 37.9112 23.74 37.7312 23.76C37.6512 23.76 37.5712 23.76 37.4912 23.76C37.4112 23.74 37.3312 23.73 37.2512 23.73C37.0912 23.73 36.9312 23.73 36.7712 23.73C36.6312 23.73 36.4812 23.75 36.3212 23.79C36.2412 23.81 36.1412 23.83 36.0212 23.85C35.9212 23.85 35.8212 23.85 35.7212 23.85C35.4212 23.87 35.1212 23.9 34.8212 23.94C34.5212 23.96 34.2312 24 33.9512 24.06C33.8912 24.08 33.8012 24.09 33.6812 24.09ZM61.847 28.11C61.747 28.15 61.667 28.14 61.607 28.08C61.387 27.98 61.247 27.81 61.187 27.57V27.51C61.167 27.33 61.147 27.15 61.127 26.97C61.107 26.79 61.087 26.62 61.067 26.46C61.067 26.42 61.057 26.37 61.037 26.31C61.037 26.27 61.037 26.23 61.037 26.19C61.017 26.13 61.007 26.07 61.007 26.01C61.007 25.95 61.007 25.89 61.007 25.83C61.007 25.67 60.987 25.53 60.947 25.41C60.907 25.29 60.867 25.17 60.827 25.05C60.787 24.97 60.747 24.92 60.707 24.9C60.627 24.8 60.567 24.69 60.527 24.57C60.487 24.47 60.437 24.36 60.377 24.24V24.21C60.277 23.93 60.217 23.75 60.197 23.67C60.177 23.57 60.167 23.38 60.167 23.1V22.71C60.167 22.51 60.227 22.35 60.347 22.23C60.367 22.19 60.387 22.15 60.407 22.11C60.447 22.07 60.477 22.03 60.497 21.99C60.537 21.87 60.537 21.78 60.497 21.72C60.417 21.56 60.357 21.4 60.317 21.24C60.277 21.06 60.237 20.88 60.197 20.7V20.37C60.217 20.25 60.227 20.14 60.227 20.04C60.247 19.92 60.267 19.8 60.287 19.68C60.327 19.5 60.327 19.3 60.287 19.08C60.247 18.96 60.227 18.87 60.227 18.81C60.207 18.75 60.187 18.69 60.167 18.63C60.167 18.57 60.167 18.51 60.167 18.45C60.167 18.21 60.137 17.99 60.077 17.79C60.037 17.67 60.017 17.57 60.017 17.49C60.017 17.17 59.997 16.86 59.957 16.56C59.917 16.24 59.877 15.92 59.837 15.6C59.837 15.56 59.827 15.54 59.807 15.54C59.807 15.52 59.807 15.5 59.807 15.48C59.807 15.32 59.787 15.16 59.747 15C59.707 14.82 59.667 14.66 59.627 14.52C59.607 14.48 59.597 14.43 59.597 14.37C59.597 14.31 59.587 14.26 59.567 14.22C59.547 14.08 59.527 13.95 59.507 13.83C59.507 13.71 59.487 13.58 59.447 13.44V13.32C59.427 13.1 59.387 12.89 59.327 12.69C59.287 12.49 59.247 12.29 59.207 12.09C59.207 12.01 59.197 11.93 59.177 11.85C59.177 11.77 59.167 11.69 59.147 11.61L59.057 11.28C59.037 11.2 59.017 11.12 58.997 11.04C58.997 10.94 58.987 10.85 58.967 10.77C58.947 10.63 58.937 10.5 58.937 10.38C58.937 10.24 58.927 10.1 58.907 9.96C58.887 9.82 58.867 9.69 58.847 9.57C58.847 9.45 58.827 9.33 58.787 9.21C58.767 9.05 58.747 8.89 58.727 8.73C58.727 8.55 58.707 8.38 58.667 8.22C58.607 7.9 58.487 7.61 58.307 7.35C57.927 6.79 57.767 6.16 57.827 5.46C57.867 5.24 57.957 5.04 58.097 4.86C58.117 4.82 58.167 4.76 58.247 4.68C58.387 4.5 58.547 4.37 58.727 4.29C58.927 4.19 59.137 4.13 59.357 4.11C59.697 4.05 60.007 3.96 60.287 3.84C60.827 3.68 61.367 3.56 61.907 3.48C62.267 3.42 62.627 3.39 62.987 3.39H63.287C63.447 3.35 63.607 3.33 63.767 3.33C63.947 3.33 64.117 3.33 64.277 3.33H64.547C64.667 3.33 64.767 3.29 64.847 3.21L65.207 3C65.267 2.96 65.327 2.96 65.387 3C65.447 3.04 65.507 3.07 65.567 3.09C65.647 3.11 65.717 3.14 65.777 3.18C65.877 3.22 65.967 3.26 66.047 3.3C66.127 3.34 66.207 3.38 66.287 3.42C66.327 3.46 66.377 3.49 66.437 3.51C66.497 3.53 66.557 3.55 66.617 3.57L67.187 3.69C67.347 3.71 67.487 3.75 67.607 3.81C67.747 3.85 67.887 3.9 68.027 3.96C68.187 4.02 68.327 4.11 68.447 4.23C68.567 4.33 68.687 4.45 68.807 4.59C69.087 4.85 69.267 5.18 69.347 5.58C69.367 5.74 69.417 5.93 69.497 6.15C69.537 6.29 69.557 6.43 69.557 6.57C69.557 6.71 69.567 6.86 69.587 7.02C69.587 7.02 69.587 7.07 69.587 7.17C69.567 7.39 69.537 7.62 69.497 7.86C69.457 8.08 69.407 8.3 69.347 8.52C69.287 8.72 69.217 8.93 69.137 9.15C69.077 9.37 68.997 9.58 68.897 9.78C68.777 10.08 68.607 10.37 68.387 10.65C68.247 10.83 68.107 11.02 67.967 11.22C67.847 11.4 67.707 11.58 67.547 11.76C67.467 11.84 67.387 11.93 67.307 12.03C67.227 12.11 67.147 12.19 67.067 12.27L66.707 12.63V12.69C66.707 12.73 66.727 12.75 66.767 12.75H67.217C67.497 12.77 67.777 12.81 68.057 12.87C68.337 12.91 68.607 12.97 68.867 13.05C68.927 13.07 68.977 13.09 69.017 13.11C69.077 13.13 69.137 13.16 69.197 13.2L69.557 13.41C69.677 13.49 69.787 13.57 69.887 13.65C69.987 13.73 70.057 13.85 70.097 14.01C70.137 14.11 70.187 14.21 70.247 14.31C70.347 14.49 70.437 14.68 70.517 14.88C70.597 15.06 70.677 15.25 70.757 15.45C70.797 15.53 70.827 15.61 70.847 15.69C70.887 15.75 70.917 15.82 70.937 15.9C71.037 16.18 71.137 16.46 71.237 16.74C71.337 17.02 71.417 17.31 71.477 17.61L71.567 18.36C71.607 18.48 71.607 18.61 71.567 18.75C71.547 18.87 71.527 18.99 71.507 19.11C71.487 19.21 71.467 19.32 71.447 19.44C71.387 19.7 71.297 19.95 71.177 20.19C71.117 20.31 71.037 20.42 70.937 20.52C70.677 20.84 70.407 21.09 70.127 21.27C69.987 21.35 69.847 21.44 69.707 21.54C69.587 21.64 69.447 21.74 69.287 21.84C68.987 22.02 68.647 22.21 68.267 22.41C68.167 22.45 68.057 22.5 67.937 22.56C67.837 22.62 67.737 22.67 67.637 22.71C67.317 22.85 67.007 22.99 66.707 23.13C66.407 23.27 66.107 23.4 65.807 23.52C65.487 23.64 65.177 23.76 64.877 23.88C64.577 24 64.257 24.11 63.917 24.21C63.837 24.23 63.757 24.25 63.677 24.27C63.617 24.29 63.547 24.31 63.467 24.33C63.107 24.39 62.817 24.58 62.597 24.9C62.517 24.98 62.477 25.08 62.477 25.2C62.457 25.28 62.437 25.35 62.417 25.41C62.417 25.49 62.417 25.57 62.417 25.65C62.397 25.71 62.387 25.79 62.387 25.89V26.94C62.387 27.04 62.387 27.14 62.387 27.24C62.387 27.36 62.367 27.47 62.327 27.57C62.287 27.79 62.127 27.97 61.847 28.11ZM62.537 12.36C62.557 12.38 62.567 12.39 62.567 12.39C62.567 12.37 62.577 12.36 62.597 12.36C62.617 12.34 62.627 12.33 62.627 12.33C62.647 12.33 62.657 12.33 62.657 12.33C62.757 12.35 62.857 12.33 62.957 12.27C63.057 12.19 63.157 12.12 63.257 12.06C63.377 11.98 63.497 11.9 63.617 11.82C63.797 11.7 63.967 11.57 64.127 11.43C64.307 11.27 64.477 11.11 64.637 10.95C64.877 10.69 65.107 10.43 65.327 10.17C65.547 9.89 65.747 9.6 65.927 9.3C66.027 9.12 66.127 8.95 66.227 8.79C66.327 8.61 66.417 8.42 66.497 8.22C66.597 7.96 66.667 7.66 66.707 7.32C66.747 7.12 66.737 6.94 66.677 6.78C66.617 6.62 66.527 6.51 66.407 6.45C66.047 6.29 65.707 6.21 65.387 6.21C65.187 6.21 64.997 6.21 64.817 6.21C64.637 6.21 64.457 6.22 64.277 6.24C64.117 6.26 63.957 6.28 63.797 6.3C63.637 6.32 63.477 6.35 63.317 6.39C63.177 6.43 63.027 6.48 62.867 6.54C62.727 6.58 62.577 6.62 62.417 6.66C62.197 6.72 62.057 6.85 61.997 7.05C61.957 7.11 61.937 7.2 61.937 7.32V7.8C61.917 8 61.917 8.2 61.937 8.4C61.957 8.6 61.977 8.8 61.997 9L62.027 9.03C62.007 9.17 62.007 9.31 62.027 9.45C62.067 9.59 62.097 9.74 62.117 9.9C62.117 9.96 62.147 10.01 62.207 10.05C62.287 10.09 62.297 10.17 62.237 10.29C62.237 10.29 62.227 10.3 62.207 10.32C62.207 10.32 62.217 10.33 62.237 10.35C62.277 10.37 62.287 10.41 62.267 10.47C62.247 10.51 62.237 10.55 62.237 10.59C62.237 10.75 62.247 10.86 62.267 10.92C62.287 10.96 62.297 11.01 62.297 11.07C62.297 11.15 62.307 11.24 62.327 11.34C62.347 11.42 62.367 11.5 62.387 11.58C62.387 11.62 62.407 11.63 62.447 11.61C62.467 11.59 62.497 11.58 62.537 11.58C62.557 11.58 62.567 11.61 62.567 11.67V11.76C62.467 11.9 62.447 12.05 62.507 12.21V12.33C62.527 12.33 62.537 12.34 62.537 12.36ZM63.077 21.51C63.137 21.51 63.197 21.51 63.257 21.51C63.317 21.51 63.387 21.5 63.467 21.48C63.827 21.42 64.207 21.31 64.607 21.15L65.777 20.61C66.097 20.45 66.407 20.3 66.707 20.16C67.007 20 67.317 19.85 67.637 19.71C67.977 19.53 68.287 19.29 68.567 18.99C68.747 18.81 68.837 18.59 68.837 18.33V18.18C68.817 18.14 68.807 18.11 68.807 18.09C68.807 18.05 68.797 18.01 68.777 17.97C68.717 17.65 68.627 17.35 68.507 17.07C68.407 16.77 68.297 16.47 68.177 16.17C68.157 16.09 68.127 16.02 68.087 15.96C68.047 15.88 68.007 15.8 67.967 15.72C67.907 15.6 67.827 15.53 67.727 15.51C67.547 15.45 67.377 15.42 67.217 15.42H66.737C66.197 15.4 65.647 15.43 65.087 15.51C64.527 15.59 63.957 15.71 63.377 15.87L63.167 15.96C63.147 15.98 63.127 15.99 63.107 15.99C63.107 15.99 63.097 16 63.077 16.02C63.017 16.08 63.007 16.14 63.047 16.2L63.107 16.26C63.167 16.32 63.177 16.38 63.137 16.44C63.097 16.5 63.077 16.58 63.077 16.68C63.077 16.76 63.077 16.84 63.077 16.92C63.077 16.98 63.087 17.05 63.107 17.13C63.127 17.21 63.137 17.29 63.137 17.37C63.137 17.45 63.137 17.53 63.137 17.61V17.97C63.137 18.17 63.177 18.32 63.257 18.42C63.297 18.5 63.317 18.58 63.317 18.66C63.337 18.74 63.347 18.82 63.347 18.9C63.347 19 63.317 19.11 63.257 19.23C63.197 19.33 63.187 19.45 63.227 19.59C63.247 19.63 63.277 19.67 63.317 19.71C63.357 19.85 63.337 19.96 63.257 20.04C63.197 20.14 63.177 20.23 63.197 20.31C63.197 20.43 63.187 20.52 63.167 20.58C63.147 20.62 63.117 20.67 63.077 20.73C63.057 20.79 63.017 20.84 62.957 20.88C62.857 20.96 62.787 21.08 62.747 21.24C62.707 21.32 62.687 21.39 62.687 21.45C62.687 21.49 62.757 21.5 62.897 21.48C62.937 21.48 62.967 21.49 62.987 21.51C63.027 21.51 63.057 21.51 63.077 21.51ZM77.8597 24.21C77.7397 24.21 77.6597 24.2 77.6197 24.18C77.5197 24.14 77.4197 24.12 77.3197 24.12C77.2397 24.14 77.1497 24.15 77.0497 24.15C77.0297 24.15 77.0097 24.15 76.9897 24.15C76.9697 24.17 76.9497 24.18 76.9297 24.18C76.7897 24.2 76.6497 24.21 76.5097 24.21C76.3897 24.21 76.2697 24.19 76.1497 24.15C76.1297 24.13 76.1097 24.12 76.0897 24.12C75.9497 24.14 75.8297 24.1 75.7297 24C75.6297 23.9 75.5297 23.81 75.4297 23.73C75.3297 23.63 75.2797 23.52 75.2797 23.4L75.1897 23.16C75.1297 23.02 75.1097 22.89 75.1297 22.77C75.1497 22.73 75.1497 22.69 75.1297 22.65C75.1297 22.61 75.1297 22.57 75.1297 22.53C75.1097 22.49 75.0997 22.45 75.0997 22.41C75.0997 22.35 75.0897 22.3 75.0697 22.26C75.0297 22.08 74.9997 21.9 74.9797 21.72C74.9797 21.52 74.9897 21.33 75.0097 21.15C75.0297 21.03 75.0997 20.83 75.2197 20.55C75.3397 20.25 75.4097 20.07 75.4297 20.01C75.4897 19.91 75.5197 19.83 75.5197 19.77C75.4997 19.55 75.4897 19.33 75.4897 19.11C75.5097 18.87 75.5197 18.64 75.5197 18.42C75.5197 18.28 75.5497 18.17 75.6097 18.09C75.6897 17.95 75.6997 17.8 75.6397 17.64L75.5497 17.31C75.4297 17.09 75.4397 16.9 75.5797 16.74C75.5797 16.72 75.5797 16.71 75.5797 16.71C75.5997 16.69 75.6097 16.67 75.6097 16.65C75.6497 16.61 75.6597 16.56 75.6397 16.5C75.6197 16.42 75.6097 16.36 75.6097 16.32C75.6097 16.24 75.6197 16.16 75.6397 16.08C75.6797 15.98 75.6897 15.89 75.6697 15.81C75.6697 15.81 75.6497 15.79 75.6097 15.75C75.5897 15.71 75.5797 15.63 75.5797 15.51C75.5997 15.39 75.6097 15.32 75.6097 15.3V14.46C75.6297 14.36 75.6397 14.27 75.6397 14.19C75.6397 14.09 75.6497 13.99 75.6697 13.89C75.6897 13.77 75.6897 13.65 75.6697 13.53C75.6697 13.39 75.6697 13.25 75.6697 13.11C75.6497 13.01 75.6297 12.9 75.6097 12.78C75.6097 12.66 75.6097 12.54 75.6097 12.42C75.5897 12.38 75.5797 12.33 75.5797 12.27C75.5797 12.21 75.5797 12.16 75.5797 12.12C75.5597 12.02 75.5397 11.92 75.5197 11.82C75.5197 11.72 75.5197 11.62 75.5197 11.52C75.5197 11.48 75.4797 11.35 75.3997 11.13C75.3197 10.89 75.2897 10.69 75.3097 10.53C75.3297 10.49 75.3397 10.44 75.3397 10.38C75.3397 10.32 75.3197 10.27 75.2797 10.23C75.2397 10.21 75.2197 10.17 75.2197 10.11V10.02C75.2797 9.78 75.2497 9.54 75.1297 9.3C75.0497 9.18 75.0197 9.06 75.0397 8.94C75.0397 8.78 74.9697 8.66 74.8297 8.58C74.7297 8.48 74.6397 8.36 74.5597 8.22C74.4797 8.08 74.4297 7.94 74.4097 7.8C74.3897 7.7 74.3797 7.6 74.3797 7.5C74.3797 7.4 74.3797 7.31 74.3797 7.23C74.3797 7.15 74.3897 7.1 74.4097 7.08C74.4897 7 74.5297 6.91 74.5297 6.81C74.5297 6.69 74.5397 6.6 74.5597 6.54C74.5797 6.52 74.5997 6.51 74.6197 6.51C74.6397 6.51 74.6597 6.5 74.6797 6.48C74.7597 6.46 74.7997 6.39 74.7997 6.27C74.7597 6.19 74.7397 6.12 74.7397 6.06C74.7197 5.98 74.7497 5.91 74.8297 5.85C74.8697 5.77 74.9197 5.75 74.9797 5.79C75.1197 5.85 75.2797 5.83 75.4597 5.73C75.5397 5.69 75.5897 5.67 75.6097 5.67C75.6697 5.67 75.6997 5.67 75.6997 5.67C75.7197 5.65 75.7797 5.64 75.8797 5.64C75.9997 5.66 76.1097 5.62 76.2097 5.52C76.3497 5.38 76.5197 5.31 76.7197 5.31H78.5797C79.0397 5.33 79.4997 5.33 79.9597 5.31C80.4197 5.29 80.8697 5.28 81.3097 5.28C81.4097 5.28 81.4897 5.28 81.5497 5.28C81.6297 5.26 81.7097 5.24 81.7897 5.22C81.9097 5.16 82.0497 5.13 82.2097 5.13H82.8997C83.0597 5.13 83.1997 5.13 83.3197 5.13C83.4597 5.11 83.5997 5.09 83.7397 5.07C83.8197 5.05 83.8897 5.04 83.9497 5.04C84.0297 5.04 84.1097 5.04 84.1897 5.04C84.2697 5.04 84.3497 5.04 84.4297 5.04C84.5097 5.04 84.5897 5.03 84.6697 5.01C84.8297 4.99 84.9997 4.98 85.1797 4.98C85.3597 4.96 85.5297 4.95 85.6897 4.95C85.7697 4.95 85.8397 4.95 85.8997 4.95C85.9797 4.93 86.0597 4.91 86.1397 4.89C86.2997 4.85 86.4497 4.83 86.5897 4.83C86.7497 4.81 86.8997 4.79 87.0397 4.77C87.1997 4.75 87.3497 4.73 87.4897 4.71C87.6497 4.69 87.7997 4.67 87.9397 4.65C88.1197 4.65 88.2497 4.67 88.3297 4.71C88.4497 4.79 88.5597 4.86 88.6597 4.92C88.7797 4.98 88.8897 5.06 88.9897 5.16C89.0697 5.24 89.1197 5.31 89.1397 5.37C89.1597 5.45 89.1797 5.53 89.1997 5.61C89.2197 5.69 89.2397 5.78 89.2597 5.88V6.09C89.2397 6.19 89.2197 6.3 89.1997 6.42C89.1997 6.52 89.1897 6.63 89.1697 6.75C89.1297 6.83 89.0797 6.9 89.0197 6.96L88.4797 7.5C88.2797 7.56 88.0797 7.6 87.8797 7.62C87.6997 7.64 87.5097 7.64 87.3097 7.62H87.0997C86.9997 7.64 86.8997 7.65 86.7997 7.65C86.6997 7.65 86.5997 7.64 86.4997 7.62C86.3797 7.6 86.2597 7.6 86.1397 7.62C86.0197 7.62 85.8997 7.62 85.7797 7.62C85.6997 7.62 85.6197 7.63 85.5397 7.65C85.4797 7.65 85.4097 7.64 85.3297 7.62C85.2297 7.6 85.1297 7.6 85.0297 7.62C84.9497 7.62 84.8597 7.63 84.7597 7.65C84.6797 7.65 84.5897 7.66 84.4897 7.68C84.4097 7.68 84.3197 7.68 84.2197 7.68C83.9597 7.72 83.6797 7.74 83.3797 7.74C83.0997 7.74 82.8197 7.76 82.5397 7.8C82.3597 7.78 82.1897 7.79 82.0297 7.83C81.8697 7.85 81.6997 7.87 81.5197 7.89C81.3597 7.91 81.1897 7.92 81.0097 7.92C80.8297 7.92 80.6597 7.94 80.4997 7.98C80.2997 7.98 80.0997 8.01 79.8997 8.07C79.7197 8.11 79.5297 8.14 79.3297 8.16L79.1197 8.19C78.9797 8.19 78.8497 8.21 78.7297 8.25C78.6097 8.27 78.4797 8.3 78.3397 8.34C78.2597 8.36 78.1797 8.38 78.0997 8.4C78.0197 8.4 77.9297 8.41 77.8297 8.43C77.7697 8.43 77.6997 8.45 77.6197 8.49C77.5597 8.51 77.5297 8.57 77.5297 8.67L77.6197 8.94C77.6397 8.98 77.6297 9.08 77.5897 9.24C77.5697 9.4 77.5497 9.52 77.5297 9.6C77.5297 9.66 77.5397 9.72 77.5597 9.78C77.5797 9.84 77.5997 9.9 77.6197 9.96C77.6797 10.12 77.7097 10.3 77.7097 10.5C77.7097 10.68 77.7297 10.85 77.7697 11.01C77.7897 11.09 77.7997 11.18 77.7997 11.28C77.7997 11.36 77.8097 11.45 77.8297 11.55C77.8297 11.59 77.8297 11.64 77.8297 11.7C77.8497 11.74 77.8597 11.79 77.8597 11.85C77.8597 11.91 77.8497 11.95 77.8297 11.97C77.7697 12.05 77.7397 12.14 77.7397 12.24C77.7397 12.34 77.7397 12.44 77.7397 12.54C77.8397 12.74 77.8897 12.94 77.8897 13.14C77.8897 13.34 77.8897 13.54 77.8897 13.74C77.8897 13.8 77.9397 13.82 78.0397 13.8H78.0697C78.1097 13.72 78.1497 13.66 78.1897 13.62C78.2497 13.62 78.3197 13.6 78.3997 13.56C78.4597 13.52 78.5397 13.5 78.6397 13.5C78.7997 13.52 78.9497 13.52 79.0897 13.5C79.2297 13.46 79.3697 13.42 79.5097 13.38C80.4497 13.14 81.3297 12.83 82.1497 12.45C82.3697 12.35 82.5997 12.27 82.8397 12.21C83.0797 12.13 83.3197 12.08 83.5597 12.06H83.6497C83.8297 12.04 84.0097 12.02 84.1897 12C84.3697 11.98 84.5497 11.97 84.7297 11.97C84.9697 11.95 85.1997 11.92 85.4197 11.88C85.6597 11.84 85.8997 11.81 86.1397 11.79C86.2797 11.75 86.4097 11.72 86.5297 11.7C86.6497 11.66 86.7797 11.61 86.9197 11.55C87.1797 11.45 87.4197 11.4 87.6397 11.4C87.7997 11.42 87.9497 11.46 88.0897 11.52C88.2297 11.56 88.3697 11.62 88.5097 11.7C88.8097 11.9 88.9597 12.2 88.9597 12.6C88.9597 12.76 88.9397 12.92 88.8997 13.08C88.8797 13.24 88.8697 13.4 88.8697 13.56C88.8697 13.6 88.8497 13.64 88.8097 13.68L88.7197 13.83C88.6997 13.91 88.6797 13.99 88.6597 14.07C88.6397 14.15 88.5897 14.21 88.5097 14.25C88.3897 14.35 88.2597 14.46 88.1197 14.58C87.9997 14.68 87.8597 14.75 87.6997 14.79C87.6197 14.81 87.5397 14.83 87.4597 14.85C87.3997 14.87 87.3297 14.88 87.2497 14.88C86.9297 14.88 86.5997 14.9 86.2597 14.94C85.9397 14.98 85.6097 15.02 85.2697 15.06C85.0097 15.08 84.7497 15.11 84.4897 15.15C84.2497 15.19 83.9997 15.21 83.7397 15.21C83.4997 15.21 83.2297 15.26 82.9297 15.36C82.7297 15.4 82.5197 15.44 82.2997 15.48C82.0797 15.52 81.8597 15.55 81.6397 15.57C81.4797 15.59 81.3097 15.62 81.1297 15.66C80.9697 15.68 80.8097 15.7 80.6497 15.72L80.1397 15.81C80.0997 15.83 80.0397 15.84 79.9597 15.84C79.8197 15.88 79.6797 15.91 79.5397 15.93C79.3997 15.95 79.2597 15.98 79.1197 16.02C78.9797 16.04 78.8397 16.07 78.6997 16.11C78.5797 16.15 78.4497 16.19 78.3097 16.23C78.2097 16.25 78.1297 16.29 78.0697 16.35C78.0097 16.39 77.9597 16.45 77.9197 16.53C77.8997 16.59 77.8997 16.65 77.9197 16.71C77.9397 16.79 77.9297 16.87 77.8897 16.95C77.9097 17.15 77.9197 17.35 77.9197 17.55C77.9397 17.75 77.9397 17.95 77.9197 18.15C77.9597 18.31 77.9697 18.47 77.9497 18.63C77.9497 18.79 77.9397 18.95 77.9197 19.11C77.8797 19.35 77.8897 19.55 77.9497 19.71C78.0097 19.97 77.9897 20.24 77.8897 20.52C77.8497 20.64 77.8497 20.72 77.8897 20.76C77.9297 20.82 77.9297 20.89 77.8897 20.97V21.15C77.8697 21.31 77.9397 21.39 78.0997 21.39H78.1597C78.2997 21.39 78.4397 21.44 78.5797 21.54C78.6797 21.64 78.7997 21.67 78.9397 21.63L79.7797 21.54C79.8997 21.52 80.0197 21.51 80.1397 21.51C80.2597 21.49 80.3797 21.48 80.4997 21.48C80.5397 21.46 80.5997 21.47 80.6797 21.51C80.7797 21.57 80.8697 21.58 80.9497 21.54C80.9897 21.5 81.0397 21.47 81.0997 21.45C81.1797 21.43 81.2397 21.4 81.2797 21.36C81.3997 21.24 81.5497 21.2 81.7297 21.24C81.8897 21.28 82.0197 21.27 82.1197 21.21C82.2997 21.15 82.4697 21.13 82.6297 21.15C82.7297 21.17 82.8297 21.16 82.9297 21.12C83.0297 21.08 83.1297 21.06 83.2297 21.06C83.2697 21.06 83.2997 21.07 83.3197 21.09C83.3397 21.09 83.3597 21.08 83.3797 21.06C83.4197 21.06 83.4597 21.05 83.4997 21.03C83.5397 21.01 83.5697 21 83.5897 21C83.7297 20.94 83.8597 20.92 83.9797 20.94C84.0797 20.94 84.1297 20.94 84.1297 20.94C84.2097 20.92 84.2797 20.92 84.3397 20.94C84.4197 20.96 84.4897 20.99 84.5497 21.03C84.6497 21.05 84.7297 21.08 84.7897 21.12C84.8697 21.16 84.9497 21.19 85.0297 21.21C85.0697 21.21 85.0997 21.22 85.1197 21.24C85.2197 21.32 85.3397 21.39 85.4797 21.45C85.6397 21.51 85.7297 21.58 85.7497 21.66C85.7897 21.78 85.8097 21.9 85.8097 22.02C85.8097 22.12 85.8197 22.23 85.8397 22.35C85.8397 22.41 85.8297 22.47 85.8097 22.53C85.8097 22.59 85.7997 22.65 85.7797 22.71C85.7397 22.79 85.6897 22.88 85.6297 22.98C85.5897 23.08 85.5297 23.17 85.4497 23.25C85.4097 23.29 85.3697 23.33 85.3297 23.37C85.3097 23.41 85.2797 23.45 85.2397 23.49C85.1597 23.57 85.0697 23.64 84.9697 23.7C84.8697 23.76 84.7597 23.79 84.6397 23.79C84.5597 23.79 84.4997 23.8 84.4597 23.82C84.3797 23.86 84.2997 23.88 84.2197 23.88C84.1397 23.88 84.0497 23.88 83.9497 23.88C83.8097 23.9 83.6697 23.92 83.5297 23.94C83.4097 23.94 83.2797 23.93 83.1397 23.91C83.0597 23.89 82.9897 23.89 82.9297 23.91C82.7297 23.97 82.5297 23.98 82.3297 23.94C82.1297 23.94 81.9297 23.95 81.7297 23.97C81.5497 23.97 81.3697 23.97 81.1897 23.97H80.7997C80.7397 23.97 80.6897 23.98 80.6497 24C80.5697 24.04 80.4697 24.06 80.3497 24.06C80.2497 24.06 80.1497 24.05 80.0497 24.03H79.7497C79.7297 24.03 79.6997 24.03 79.6597 24.03C79.6197 24.05 79.5797 24.05 79.5397 24.03C79.4797 24.01 79.4197 24 79.3597 24C79.3197 24.02 79.2697 24.04 79.2097 24.06C79.1697 24.06 79.1297 24.06 79.0897 24.06C79.0697 24.08 79.0397 24.09 78.9997 24.09C78.7997 24.07 78.6097 24.07 78.4297 24.09C78.2497 24.13 78.0597 24.17 77.8597 24.21ZM110.067 24.6C109.867 24.58 109.667 24.55 109.467 24.51C109.287 24.49 109.107 24.44 108.927 24.36L108.177 24.09C107.917 23.99 107.677 23.88 107.457 23.76C107.237 23.62 107.017 23.48 106.797 23.34C106.697 23.24 106.597 23.15 106.497 23.07C106.397 22.97 106.297 22.88 106.197 22.8C106.037 22.64 105.877 22.48 105.717 22.32C105.557 22.14 105.407 21.95 105.267 21.75L104.547 20.64C104.367 20.36 104.207 20.07 104.067 19.77C103.927 19.45 103.807 19.13 103.707 18.81C103.487 18.21 103.377 17.62 103.377 17.04V16.56C103.377 16.06 103.407 15.57 103.467 15.09C103.507 14.69 103.597 14.33 103.737 14.01C103.817 13.81 103.887 13.61 103.947 13.41C104.007 13.21 104.077 13.02 104.157 12.84L104.247 12.63C104.287 12.37 104.377 12.14 104.517 11.94C104.657 11.72 104.777 11.51 104.877 11.31C104.957 11.15 105.047 11.01 105.147 10.89C105.247 10.75 105.337 10.61 105.417 10.47C105.457 10.41 105.507 10.36 105.567 10.32C105.627 10.26 105.677 10.2 105.717 10.14C105.757 10.1 105.787 10.05 105.807 9.99C105.847 9.91 105.877 9.84 105.897 9.78C105.937 9.72 106.007 9.64 106.107 9.54C106.227 9.48 106.337 9.34 106.437 9.12C106.477 9.04 106.517 8.98 106.557 8.94C106.677 8.84 106.777 8.72 106.857 8.58C106.957 8.44 107.067 8.31 107.187 8.19C107.267 8.11 107.307 8 107.307 7.86C107.307 7.76 107.307 7.67 107.307 7.59C107.327 7.49 107.327 7.4 107.307 7.32C107.287 7.22 107.317 7.13 107.397 7.05C107.437 7.01 107.467 6.96 107.487 6.9C107.507 6.84 107.527 6.78 107.547 6.72C107.607 6.52 107.767 6.35 108.027 6.21C108.067 6.17 108.117 6.15 108.177 6.15C108.257 6.13 108.327 6.11 108.387 6.09C108.527 6.03 108.687 6.02 108.867 6.06C108.947 6.08 109.017 6.09 109.077 6.09C109.137 6.07 109.197 6.05 109.257 6.03C109.337 5.99 109.407 5.96 109.467 5.94C109.547 5.92 109.617 5.9 109.677 5.88C109.957 5.78 110.247 5.79 110.547 5.91C110.867 6.03 111.097 6.24 111.237 6.54C111.277 6.64 111.317 6.74 111.357 6.84C111.397 6.94 111.427 7.04 111.447 7.14C111.487 7.36 111.477 7.55 111.417 7.71C111.377 7.79 111.357 7.84 111.357 7.86C111.337 7.94 111.357 8.01 111.417 8.07C111.457 8.13 111.507 8.18 111.567 8.22C111.787 8.42 111.997 8.62 112.197 8.82C112.397 9 112.587 9.2 112.767 9.42C112.927 9.58 113.057 9.75 113.157 9.93C113.277 10.09 113.387 10.27 113.487 10.47C113.527 10.57 113.577 10.68 113.637 10.8C113.697 10.9 113.757 11 113.817 11.1C113.917 11.28 113.997 11.47 114.057 11.67C114.137 11.87 114.217 12.07 114.297 12.27V12.3C114.337 12.44 114.367 12.59 114.387 12.75C114.427 12.89 114.487 13.04 114.567 13.2C114.627 13.34 114.677 13.49 114.717 13.65C114.757 13.79 114.797 13.94 114.837 14.1C114.877 14.28 114.917 14.46 114.957 14.64C115.017 14.82 115.057 15 115.077 15.18C115.097 15.26 115.117 15.34 115.137 15.42C115.157 15.48 115.177 15.55 115.197 15.63C115.237 15.81 115.277 15.99 115.317 16.17C115.357 16.35 115.387 16.53 115.407 16.71L115.497 16.92C115.537 17.04 115.577 17.2 115.617 17.4C115.677 17.66 115.707 17.92 115.707 18.18C115.727 18.44 115.727 18.71 115.707 18.99C115.707 19.13 115.697 19.24 115.677 19.32C115.557 19.74 115.407 20.17 115.227 20.61C115.147 20.75 115.067 20.89 114.987 21.03C114.907 21.15 114.827 21.28 114.747 21.42L114.477 21.84C114.377 22.02 114.267 22.18 114.147 22.32C113.947 22.64 113.707 22.92 113.427 23.16C113.147 23.4 112.847 23.63 112.527 23.85C111.827 24.39 111.007 24.64 110.067 24.6ZM109.947 21.63C110.367 21.63 110.727 21.51 111.027 21.27C111.127 21.17 111.227 21.08 111.327 21C111.447 20.9 111.547 20.8 111.627 20.7C112.007 20.28 112.307 19.84 112.527 19.38L112.617 19.08C112.657 18.72 112.657 18.36 112.617 18L112.437 17.01C112.377 16.75 112.327 16.5 112.287 16.26C112.247 16 112.187 15.75 112.107 15.51C112.047 15.37 112.027 15.26 112.047 15.18C112.067 15.08 112.067 14.98 112.047 14.88C112.027 14.78 111.997 14.68 111.957 14.58C111.897 14.32 111.827 14.06 111.747 13.8C111.667 13.54 111.587 13.28 111.507 13.02C111.487 12.96 111.467 12.9 111.447 12.84C111.427 12.78 111.407 12.72 111.387 12.66C111.247 12.38 111.097 12.11 110.937 11.85C110.777 11.59 110.597 11.35 110.397 11.13C110.297 11.01 110.187 10.9 110.067 10.8C109.947 10.68 109.827 10.57 109.707 10.47C109.687 10.43 109.657 10.41 109.617 10.41C109.597 10.39 109.567 10.37 109.527 10.35C109.467 10.27 109.387 10.28 109.287 10.38C109.187 10.48 109.077 10.59 108.957 10.71C108.857 10.83 108.757 10.95 108.657 11.07C108.557 11.21 108.447 11.35 108.327 11.49C108.227 11.63 108.127 11.77 108.027 11.91C107.887 12.09 107.757 12.27 107.637 12.45C107.517 12.63 107.397 12.81 107.277 12.99C106.857 13.67 106.527 14.42 106.287 15.24C106.247 15.36 106.227 15.45 106.227 15.51C106.207 15.65 106.187 15.79 106.167 15.93C106.167 16.07 106.167 16.22 106.167 16.38V16.62C106.187 16.68 106.197 16.74 106.197 16.8C106.197 16.86 106.207 16.92 106.227 16.98C106.227 17.22 106.287 17.48 106.407 17.76C106.567 18.16 106.747 18.55 106.947 18.93C107.147 19.31 107.377 19.67 107.637 20.01C107.697 20.09 107.757 20.17 107.817 20.25C107.897 20.33 107.967 20.41 108.027 20.49C108.207 20.69 108.397 20.87 108.597 21.03C108.817 21.19 109.037 21.33 109.257 21.45C109.497 21.57 109.727 21.63 109.947 21.63ZM125.364 24.9C124.984 24.86 124.674 24.72 124.434 24.48C124.114 24.16 123.894 23.77 123.774 23.31C123.694 22.91 123.574 22.52 123.414 22.14L122.964 20.94C122.844 20.62 122.724 20.31 122.604 20.01C122.484 19.71 122.364 19.41 122.244 19.11L122.064 18.6C122.024 18.52 121.984 18.45 121.944 18.39C121.924 18.31 121.894 18.23 121.854 18.15C121.814 18.05 121.764 17.95 121.704 17.85C121.664 17.73 121.614 17.62 121.554 17.52C121.474 17.3 121.394 17.08 121.314 16.86C121.234 16.64 121.144 16.42 121.044 16.2C121.024 16.16 121.004 16.12 120.984 16.08C120.964 16.02 120.934 15.96 120.894 15.9C120.774 15.62 120.644 15.34 120.504 15.06C120.384 14.76 120.254 14.46 120.114 14.16L119.214 12.09C119.074 11.75 118.924 11.41 118.764 11.07C118.624 10.73 118.484 10.39 118.344 10.05L118.164 9.54C118.144 9.48 118.124 9.42 118.104 9.36C118.084 9.3 118.054 9.24 118.014 9.18C118.014 9.14 118.004 9.1 117.984 9.06C117.964 9.02 117.954 8.99 117.954 8.97C117.914 8.81 117.854 8.66 117.774 8.52C117.714 8.36 117.644 8.21 117.564 8.07L117.414 7.74C117.394 7.68 117.364 7.62 117.324 7.56C117.304 7.5 117.274 7.44 117.234 7.38C117.254 7.28 117.264 7.18 117.264 7.08C117.264 6.98 117.274 6.89 117.294 6.81C117.354 6.53 117.394 6.38 117.414 6.36C117.434 6.32 117.564 6.21 117.804 6.03C117.824 6.01 117.874 5.98 117.954 5.94C118.094 5.84 118.224 5.8 118.344 5.82C118.424 5.82 118.494 5.81 118.554 5.79C118.634 5.75 118.714 5.74 118.794 5.76C118.914 5.76 118.994 5.77 119.034 5.79C119.154 5.83 119.224 5.85 119.244 5.85C119.424 5.89 119.544 5.97 119.604 6.09C119.624 6.11 119.644 6.13 119.664 6.15C119.684 6.17 119.704 6.19 119.724 6.21C119.944 6.39 120.074 6.62 120.114 6.9C120.154 7.04 120.194 7.19 120.234 7.35C120.294 7.49 120.354 7.63 120.414 7.77C120.514 7.99 120.614 8.22 120.714 8.46C120.814 8.7 120.904 8.93 120.984 9.15C121.104 9.41 121.214 9.67 121.314 9.93C121.434 10.19 121.554 10.46 121.674 10.74C121.774 10.96 121.874 11.19 121.974 11.43C122.074 11.65 122.164 11.87 122.244 12.09C122.324 12.25 122.394 12.42 122.454 12.6C122.534 12.76 122.604 12.93 122.664 13.11L122.694 13.23C122.854 13.55 122.994 13.88 123.114 14.22C123.254 14.54 123.394 14.87 123.534 15.21C123.574 15.27 123.604 15.33 123.624 15.39C123.644 15.45 123.664 15.51 123.684 15.57C123.764 15.65 123.824 15.75 123.864 15.87C123.924 15.99 123.974 16.1 124.014 16.2C124.074 16.36 124.134 16.52 124.194 16.68C124.254 16.82 124.324 16.97 124.404 17.13C124.444 17.27 124.494 17.4 124.554 17.52C124.634 17.62 124.714 17.73 124.794 17.85C124.834 17.87 124.874 17.86 124.914 17.82C124.994 17.66 125.064 17.51 125.124 17.37C125.204 17.21 125.274 17.05 125.334 16.89C125.394 16.71 125.454 16.54 125.514 16.38C125.594 16.2 125.664 16.02 125.724 15.84C125.724 15.82 125.724 15.81 125.724 15.81C125.744 15.81 125.754 15.8 125.754 15.78C125.854 15.48 125.954 15.18 126.054 14.88C126.154 14.58 126.244 14.28 126.324 13.98L126.774 12.3C126.894 11.84 127.014 11.38 127.134 10.92C127.254 10.46 127.384 10.01 127.524 9.57C127.544 9.47 127.564 9.38 127.584 9.3C127.624 9.22 127.654 9.14 127.674 9.06L128.304 7.5C128.344 7.4 128.384 7.32 128.424 7.26C128.464 7.18 128.494 7.1 128.514 7.02C128.614 6.86 128.694 6.69 128.754 6.51C128.814 6.33 128.874 6.15 128.934 5.97C128.954 5.89 128.974 5.82 128.994 5.76C129.014 5.68 129.014 5.6 128.994 5.52C128.974 5.46 128.984 5.37 129.024 5.25L129.204 4.83C129.324 4.51 129.534 4.29 129.834 4.17C129.934 4.11 130.034 4.06 130.134 4.02C130.234 3.94 130.334 3.92 130.434 3.96C130.574 3.98 130.704 4 130.824 4.02C130.964 4.04 131.094 4.07 131.214 4.11C131.374 4.17 131.494 4.27 131.574 4.41C131.614 4.45 131.644 4.49 131.664 4.53C131.684 4.57 131.704 4.61 131.724 4.65L131.814 4.89C131.854 4.93 131.884 4.97 131.904 5.01C131.944 5.03 131.964 5.07 131.964 5.13C131.964 5.21 131.964 5.29 131.964 5.37C131.984 5.43 131.994 5.51 131.994 5.61C131.894 6.03 131.774 6.41 131.634 6.75C131.614 6.83 131.584 6.92 131.544 7.02C131.504 7.1 131.464 7.19 131.424 7.29C131.404 7.31 131.394 7.34 131.394 7.38C131.254 7.64 131.134 7.91 131.034 8.19C130.954 8.45 130.854 8.72 130.734 9C130.654 9.2 130.574 9.4 130.494 9.6C130.434 9.78 130.364 9.97 130.284 10.17C130.204 10.37 130.134 10.57 130.074 10.77C130.034 10.97 129.994 11.17 129.954 11.37C129.934 11.45 129.914 11.53 129.894 11.61C129.874 11.67 129.854 11.73 129.834 11.79C129.774 12.05 129.714 12.31 129.654 12.57C129.594 12.83 129.524 13.09 129.444 13.35C129.404 13.55 129.354 13.74 129.294 13.92C129.234 14.1 129.184 14.28 129.144 14.46C129.144 14.48 129.134 14.5 129.114 14.52C129.114 14.54 129.114 14.56 129.114 14.58C129.034 14.7 128.974 14.82 128.934 14.94C128.914 15.06 128.884 15.18 128.844 15.3C128.804 15.42 128.754 15.55 128.694 15.69C128.654 15.81 128.604 15.93 128.544 16.05C128.404 16.31 128.324 16.58 128.304 16.86C128.284 16.9 128.264 16.95 128.244 17.01C128.244 17.07 128.224 17.13 128.184 17.19L127.824 18.09C127.784 18.17 127.754 18.24 127.734 18.3C127.654 18.6 127.574 18.91 127.494 19.23C127.414 19.53 127.324 19.83 127.224 20.13C127.144 20.41 127.084 20.7 127.044 21C127.004 21.3 126.964 21.59 126.924 21.87C126.884 22.21 126.894 22.51 126.954 22.77C126.974 22.87 126.984 22.98 126.984 23.1C126.984 23.22 126.984 23.33 126.984 23.43C127.004 23.63 126.954 23.81 126.834 23.97C126.794 24.01 126.754 24.09 126.714 24.21C126.514 24.59 126.194 24.81 125.754 24.87C125.694 24.87 125.634 24.87 125.574 24.87C125.514 24.89 125.444 24.9 125.364 24.9ZM137.977 24.21C137.857 24.21 137.777 24.2 137.737 24.18C137.637 24.14 137.537 24.12 137.437 24.12C137.357 24.14 137.267 24.15 137.167 24.15C137.147 24.15 137.127 24.15 137.107 24.15C137.087 24.17 137.067 24.18 137.047 24.18C136.907 24.2 136.767 24.21 136.627 24.21C136.507 24.21 136.387 24.19 136.267 24.15C136.247 24.13 136.227 24.12 136.207 24.12C136.067 24.14 135.947 24.1 135.847 24C135.747 23.9 135.647 23.81 135.547 23.73C135.447 23.63 135.397 23.52 135.397 23.4L135.307 23.16C135.247 23.02 135.227 22.89 135.247 22.77C135.267 22.73 135.267 22.69 135.247 22.65C135.247 22.61 135.247 22.57 135.247 22.53C135.227 22.49 135.217 22.45 135.217 22.41C135.217 22.35 135.207 22.3 135.187 22.26C135.147 22.08 135.117 21.9 135.097 21.72C135.097 21.52 135.107 21.33 135.127 21.15C135.147 21.03 135.217 20.83 135.337 20.55C135.457 20.25 135.527 20.07 135.547 20.01C135.607 19.91 135.637 19.83 135.637 19.77C135.617 19.55 135.607 19.33 135.607 19.11C135.627 18.87 135.637 18.64 135.637 18.42C135.637 18.28 135.667 18.17 135.727 18.09C135.807 17.95 135.817 17.8 135.757 17.64L135.667 17.31C135.547 17.09 135.557 16.9 135.697 16.74C135.697 16.72 135.697 16.71 135.697 16.71C135.717 16.69 135.727 16.67 135.727 16.65C135.767 16.61 135.777 16.56 135.757 16.5C135.737 16.42 135.727 16.36 135.727 16.32C135.727 16.24 135.737 16.16 135.757 16.08C135.797 15.98 135.807 15.89 135.787 15.81C135.787 15.81 135.767 15.79 135.727 15.75C135.707 15.71 135.697 15.63 135.697 15.51C135.717 15.39 135.727 15.32 135.727 15.3V14.46C135.747 14.36 135.757 14.27 135.757 14.19C135.757 14.09 135.767 13.99 135.787 13.89C135.807 13.77 135.807 13.65 135.787 13.53C135.787 13.39 135.787 13.25 135.787 13.11C135.767 13.01 135.747 12.9 135.727 12.78C135.727 12.66 135.727 12.54 135.727 12.42C135.707 12.38 135.697 12.33 135.697 12.27C135.697 12.21 135.697 12.16 135.697 12.12C135.677 12.02 135.657 11.92 135.637 11.82C135.637 11.72 135.637 11.62 135.637 11.52C135.637 11.48 135.597 11.35 135.517 11.13C135.437 10.89 135.407 10.69 135.427 10.53C135.447 10.49 135.457 10.44 135.457 10.38C135.457 10.32 135.437 10.27 135.397 10.23C135.357 10.21 135.337 10.17 135.337 10.11V10.02C135.397 9.78 135.367 9.54 135.247 9.3C135.167 9.18 135.137 9.06 135.157 8.94C135.157 8.78 135.087 8.66 134.947 8.58C134.847 8.48 134.757 8.36 134.677 8.22C134.597 8.08 134.547 7.94 134.527 7.8C134.507 7.7 134.497 7.6 134.497 7.5C134.497 7.4 134.497 7.31 134.497 7.23C134.497 7.15 134.507 7.1 134.527 7.08C134.607 7 134.647 6.91 134.647 6.81C134.647 6.69 134.657 6.6 134.677 6.54C134.697 6.52 134.717 6.51 134.737 6.51C134.757 6.51 134.777 6.5 134.797 6.48C134.877 6.46 134.917 6.39 134.917 6.27C134.877 6.19 134.857 6.12 134.857 6.06C134.837 5.98 134.867 5.91 134.947 5.85C134.987 5.77 135.037 5.75 135.097 5.79C135.237 5.85 135.397 5.83 135.577 5.73C135.657 5.69 135.707 5.67 135.727 5.67C135.787 5.67 135.817 5.67 135.817 5.67C135.837 5.65 135.897 5.64 135.997 5.64C136.117 5.66 136.227 5.62 136.327 5.52C136.467 5.38 136.637 5.31 136.837 5.31H138.697C139.157 5.33 139.617 5.33 140.077 5.31C140.537 5.29 140.987 5.28 141.427 5.28C141.527 5.28 141.607 5.28 141.667 5.28C141.747 5.26 141.827 5.24 141.907 5.22C142.027 5.16 142.167 5.13 142.327 5.13H143.017C143.177 5.13 143.317 5.13 143.437 5.13C143.577 5.11 143.717 5.09 143.857 5.07C143.937 5.05 144.007 5.04 144.067 5.04C144.147 5.04 144.227 5.04 144.307 5.04C144.387 5.04 144.467 5.04 144.547 5.04C144.627 5.04 144.707 5.03 144.787 5.01C144.947 4.99 145.117 4.98 145.297 4.98C145.477 4.96 145.647 4.95 145.807 4.95C145.887 4.95 145.957 4.95 146.017 4.95C146.097 4.93 146.177 4.91 146.257 4.89C146.417 4.85 146.567 4.83 146.707 4.83C146.867 4.81 147.017 4.79 147.157 4.77C147.317 4.75 147.467 4.73 147.607 4.71C147.767 4.69 147.917 4.67 148.057 4.65C148.237 4.65 148.367 4.67 148.447 4.71C148.567 4.79 148.677 4.86 148.777 4.92C148.897 4.98 149.007 5.06 149.107 5.16C149.187 5.24 149.237 5.31 149.257 5.37C149.277 5.45 149.297 5.53 149.317 5.61C149.337 5.69 149.357 5.78 149.377 5.88V6.09C149.357 6.19 149.337 6.3 149.317 6.42C149.317 6.52 149.307 6.63 149.287 6.75C149.247 6.83 149.197 6.9 149.137 6.96L148.597 7.5C148.397 7.56 148.197 7.6 147.997 7.62C147.817 7.64 147.627 7.64 147.427 7.62H147.217C147.117 7.64 147.017 7.65 146.917 7.65C146.817 7.65 146.717 7.64 146.617 7.62C146.497 7.6 146.377 7.6 146.257 7.62C146.137 7.62 146.017 7.62 145.897 7.62C145.817 7.62 145.737 7.63 145.657 7.65C145.597 7.65 145.527 7.64 145.447 7.62C145.347 7.6 145.247 7.6 145.147 7.62C145.067 7.62 144.977 7.63 144.877 7.65C144.797 7.65 144.707 7.66 144.607 7.68C144.527 7.68 144.437 7.68 144.337 7.68C144.077 7.72 143.797 7.74 143.497 7.74C143.217 7.74 142.937 7.76 142.657 7.8C142.477 7.78 142.307 7.79 142.147 7.83C141.987 7.85 141.817 7.87 141.637 7.89C141.477 7.91 141.307 7.92 141.127 7.92C140.947 7.92 140.777 7.94 140.617 7.98C140.417 7.98 140.217 8.01 140.017 8.07C139.837 8.11 139.647 8.14 139.447 8.16L139.237 8.19C139.097 8.19 138.967 8.21 138.847 8.25C138.727 8.27 138.597 8.3 138.457 8.34C138.377 8.36 138.297 8.38 138.217 8.4C138.137 8.4 138.047 8.41 137.947 8.43C137.887 8.43 137.817 8.45 137.737 8.49C137.677 8.51 137.647 8.57 137.647 8.67L137.737 8.94C137.757 8.98 137.747 9.08 137.707 9.24C137.687 9.4 137.667 9.52 137.647 9.6C137.647 9.66 137.657 9.72 137.677 9.78C137.697 9.84 137.717 9.9 137.737 9.96C137.797 10.12 137.827 10.3 137.827 10.5C137.827 10.68 137.847 10.85 137.887 11.01C137.907 11.09 137.917 11.18 137.917 11.28C137.917 11.36 137.927 11.45 137.947 11.55C137.947 11.59 137.947 11.64 137.947 11.7C137.967 11.74 137.977 11.79 137.977 11.85C137.977 11.91 137.967 11.95 137.947 11.97C137.887 12.05 137.857 12.14 137.857 12.24C137.857 12.34 137.857 12.44 137.857 12.54C137.957 12.74 138.007 12.94 138.007 13.14C138.007 13.34 138.007 13.54 138.007 13.74C138.007 13.8 138.057 13.82 138.157 13.8H138.187C138.227 13.72 138.267 13.66 138.307 13.62C138.367 13.62 138.437 13.6 138.517 13.56C138.577 13.52 138.657 13.5 138.757 13.5C138.917 13.52 139.067 13.52 139.207 13.5C139.347 13.46 139.487 13.42 139.627 13.38C140.567 13.14 141.447 12.83 142.267 12.45C142.487 12.35 142.717 12.27 142.957 12.21C143.197 12.13 143.437 12.08 143.677 12.06H143.767C143.947 12.04 144.127 12.02 144.307 12C144.487 11.98 144.667 11.97 144.847 11.97C145.087 11.95 145.317 11.92 145.537 11.88C145.777 11.84 146.017 11.81 146.257 11.79C146.397 11.75 146.527 11.72 146.647 11.7C146.767 11.66 146.897 11.61 147.037 11.55C147.297 11.45 147.537 11.4 147.757 11.4C147.917 11.42 148.067 11.46 148.207 11.52C148.347 11.56 148.487 11.62 148.627 11.7C148.927 11.9 149.077 12.2 149.077 12.6C149.077 12.76 149.057 12.92 149.017 13.08C148.997 13.24 148.987 13.4 148.987 13.56C148.987 13.6 148.967 13.64 148.927 13.68L148.837 13.83C148.817 13.91 148.797 13.99 148.777 14.07C148.757 14.15 148.707 14.21 148.627 14.25C148.507 14.35 148.377 14.46 148.237 14.58C148.117 14.68 147.977 14.75 147.817 14.79C147.737 14.81 147.657 14.83 147.577 14.85C147.517 14.87 147.447 14.88 147.367 14.88C147.047 14.88 146.717 14.9 146.377 14.94C146.057 14.98 145.727 15.02 145.387 15.06C145.127 15.08 144.867 15.11 144.607 15.15C144.367 15.19 144.117 15.21 143.857 15.21C143.617 15.21 143.347 15.26 143.047 15.36C142.847 15.4 142.637 15.44 142.417 15.48C142.197 15.52 141.977 15.55 141.757 15.57C141.597 15.59 141.427 15.62 141.247 15.66C141.087 15.68 140.927 15.7 140.767 15.72L140.257 15.81C140.217 15.83 140.157 15.84 140.077 15.84C139.937 15.88 139.797 15.91 139.657 15.93C139.517 15.95 139.377 15.98 139.237 16.02C139.097 16.04 138.957 16.07 138.817 16.11C138.697 16.15 138.567 16.19 138.427 16.23C138.327 16.25 138.247 16.29 138.187 16.35C138.127 16.39 138.077 16.45 138.037 16.53C138.017 16.59 138.017 16.65 138.037 16.71C138.057 16.79 138.047 16.87 138.007 16.95C138.027 17.15 138.037 17.35 138.037 17.55C138.057 17.75 138.057 17.95 138.037 18.15C138.077 18.31 138.087 18.47 138.067 18.63C138.067 18.79 138.057 18.95 138.037 19.11C137.997 19.35 138.007 19.55 138.067 19.71C138.127 19.97 138.107 20.24 138.007 20.52C137.967 20.64 137.967 20.72 138.007 20.76C138.047 20.82 138.047 20.89 138.007 20.97V21.15C137.987 21.31 138.057 21.39 138.217 21.39H138.277C138.417 21.39 138.557 21.44 138.697 21.54C138.797 21.64 138.917 21.67 139.057 21.63L139.897 21.54C140.017 21.52 140.137 21.51 140.257 21.51C140.377 21.49 140.497 21.48 140.617 21.48C140.657 21.46 140.717 21.47 140.797 21.51C140.897 21.57 140.987 21.58 141.067 21.54C141.107 21.5 141.157 21.47 141.217 21.45C141.297 21.43 141.357 21.4 141.397 21.36C141.517 21.24 141.667 21.2 141.847 21.24C142.007 21.28 142.137 21.27 142.237 21.21C142.417 21.15 142.587 21.13 142.747 21.15C142.847 21.17 142.947 21.16 143.047 21.12C143.147 21.08 143.247 21.06 143.347 21.06C143.387 21.06 143.417 21.07 143.437 21.09C143.457 21.09 143.477 21.08 143.497 21.06C143.537 21.06 143.577 21.05 143.617 21.03C143.657 21.01 143.687 21 143.707 21C143.847 20.94 143.977 20.92 144.097 20.94C144.197 20.94 144.247 20.94 144.247 20.94C144.327 20.92 144.397 20.92 144.457 20.94C144.537 20.96 144.607 20.99 144.667 21.03C144.767 21.05 144.847 21.08 144.907 21.12C144.987 21.16 145.067 21.19 145.147 21.21C145.187 21.21 145.217 21.22 145.237 21.24C145.337 21.32 145.457 21.39 145.597 21.45C145.757 21.51 145.847 21.58 145.867 21.66C145.907 21.78 145.927 21.9 145.927 22.02C145.927 22.12 145.937 22.23 145.957 22.35C145.957 22.41 145.947 22.47 145.927 22.53C145.927 22.59 145.917 22.65 145.897 22.71C145.857 22.79 145.807 22.88 145.747 22.98C145.707 23.08 145.647 23.17 145.567 23.25C145.527 23.29 145.487 23.33 145.447 23.37C145.427 23.41 145.397 23.45 145.357 23.49C145.277 23.57 145.187 23.64 145.087 23.7C144.987 23.76 144.877 23.79 144.757 23.79C144.677 23.79 144.617 23.8 144.577 23.82C144.497 23.86 144.417 23.88 144.337 23.88C144.257 23.88 144.167 23.88 144.067 23.88C143.927 23.9 143.787 23.92 143.647 23.94C143.527 23.94 143.397 23.93 143.257 23.91C143.177 23.89 143.107 23.89 143.047 23.91C142.847 23.97 142.647 23.98 142.447 23.94C142.247 23.94 142.047 23.95 141.847 23.97C141.667 23.97 141.487 23.97 141.307 23.97H140.917C140.857 23.97 140.807 23.98 140.767 24C140.687 24.04 140.587 24.06 140.467 24.06C140.367 24.06 140.267 24.05 140.167 24.03H139.867C139.847 24.03 139.817 24.03 139.777 24.03C139.737 24.05 139.697 24.05 139.657 24.03C139.597 24.01 139.537 24 139.477 24C139.437 24.02 139.387 24.04 139.327 24.06C139.287 24.06 139.247 24.06 139.207 24.06C139.187 24.08 139.157 24.09 139.117 24.09C138.917 24.07 138.727 24.07 138.547 24.09C138.367 24.13 138.177 24.17 137.977 24.21ZM154.594 24.6C154.214 24.64 153.904 24.52 153.664 24.24C153.544 24.12 153.434 23.99 153.334 23.85C153.234 23.71 153.154 23.56 153.094 23.4C152.994 23.12 152.904 22.84 152.824 22.56C152.744 22.26 152.674 21.97 152.614 21.69C152.554 21.47 152.524 21.26 152.524 21.06C152.504 20.84 152.474 20.63 152.434 20.43C152.414 20.21 152.404 19.99 152.404 19.77C152.404 19.65 152.404 19.53 152.404 19.41C152.404 19.27 152.394 19.14 152.374 19.02C152.354 18.94 152.344 18.87 152.344 18.81C152.344 18.75 152.344 18.68 152.344 18.6C152.344 18.32 152.344 18.04 152.344 17.76C152.344 17.46 152.334 17.17 152.314 16.89C152.314 16.73 152.304 16.59 152.284 16.47C152.264 16.33 152.224 16.19 152.164 16.05C152.084 15.83 152.074 15.59 152.134 15.33C152.134 15.27 152.144 15.23 152.164 15.21C152.204 15.07 152.224 14.93 152.224 14.79C152.244 14.65 152.244 14.51 152.224 14.37C152.204 14.27 152.194 14.17 152.194 14.07C152.194 13.97 152.194 13.88 152.194 13.8C152.174 13.58 152.164 13.36 152.164 13.14C152.184 12.9 152.204 12.67 152.224 12.45C152.244 12.39 152.254 12.33 152.254 12.27C152.254 12.21 152.254 12.15 152.254 12.09C152.234 11.87 152.234 11.66 152.254 11.46C152.294 11.26 152.324 11.06 152.344 10.86C152.384 10.62 152.424 10.39 152.464 10.17C152.504 9.93 152.554 9.69 152.614 9.45C152.654 9.35 152.674 9.24 152.674 9.12C152.674 9 152.674 8.88 152.674 8.76C152.674 8.66 152.664 8.56 152.644 8.46C152.644 8.36 152.644 8.27 152.644 8.19C152.644 8.13 152.644 8.07 152.644 8.01C152.644 7.95 152.654 7.89 152.674 7.83C152.694 7.77 152.704 7.71 152.704 7.65C152.704 7.59 152.714 7.55 152.734 7.53C152.794 7.45 152.844 7.38 152.884 7.32C152.924 7.24 152.984 7.17 153.064 7.11C153.164 7.05 153.254 6.99 153.334 6.93C153.434 6.87 153.524 6.82 153.604 6.78C153.704 6.74 153.784 6.69 153.844 6.63C153.924 6.53 154.004 6.44 154.084 6.36C154.184 6.26 154.264 6.15 154.324 6.03C154.424 5.93 154.524 5.82 154.624 5.7C154.744 5.56 154.874 5.45 155.014 5.37C155.054 5.35 155.114 5.3 155.194 5.22C155.434 5 155.714 4.86 156.034 4.8C156.094 4.78 156.144 4.77 156.184 4.77C156.244 4.75 156.304 4.74 156.364 4.74L156.574 4.65C156.734 4.59 156.874 4.62 156.994 4.74C157.034 4.8 157.084 4.86 157.144 4.92C157.224 4.96 157.294 5 157.354 5.04C157.514 5.18 157.664 5.33 157.804 5.49C157.964 5.65 158.104 5.83 158.224 6.03C158.424 6.35 158.594 6.67 158.734 6.99C158.894 7.31 159.044 7.64 159.184 7.98L159.724 9.27C159.744 9.39 159.794 9.5 159.874 9.6C160.034 9.9 160.154 10.21 160.234 10.53C160.314 10.83 160.394 11.14 160.474 11.46C160.494 11.5 160.504 11.54 160.504 11.58C160.524 11.62 160.534 11.66 160.534 11.7C160.574 11.86 160.604 12.03 160.624 12.21C160.664 12.37 160.674 12.53 160.654 12.69C160.674 12.87 160.664 13.05 160.624 13.23C160.604 13.39 160.574 13.55 160.534 13.71C160.474 13.91 160.404 14.1 160.324 14.28C160.244 14.44 160.154 14.61 160.054 14.79C160.014 14.91 159.944 15.02 159.844 15.12C159.744 15.22 159.644 15.31 159.544 15.39C159.384 15.47 159.224 15.59 159.064 15.75C159.024 15.79 158.974 15.82 158.914 15.84C158.874 15.86 158.834 15.89 158.794 15.93C158.654 15.99 158.504 16.06 158.344 16.14C158.184 16.2 158.024 16.26 157.864 16.32C157.844 16.32 157.834 16.34 157.834 16.38C157.834 16.4 157.844 16.42 157.864 16.44L158.674 17.01C158.774 17.07 158.864 17.13 158.944 17.19C159.024 17.23 159.104 17.28 159.184 17.34L159.364 17.43C159.604 17.57 159.844 17.72 160.084 17.88C160.324 18.04 160.554 18.2 160.774 18.36C161.194 18.62 161.614 18.89 162.034 19.17C162.454 19.43 162.854 19.72 163.234 20.04C163.574 20.3 163.874 20.6 164.134 20.94C164.194 21 164.254 21.07 164.314 21.15C164.374 21.21 164.444 21.26 164.524 21.3L164.614 21.39C164.934 21.67 165.114 22.05 165.154 22.53C165.154 22.59 165.144 22.65 165.124 22.71C165.124 22.77 165.124 22.83 165.124 22.89C165.124 23.01 165.084 23.11 165.004 23.19C164.924 23.23 164.884 23.28 164.884 23.34C164.824 23.48 164.734 23.58 164.614 23.64C164.514 23.68 164.414 23.74 164.314 23.82C164.274 23.84 164.204 23.85 164.104 23.85C163.984 23.83 163.854 23.81 163.714 23.79C163.594 23.77 163.474 23.76 163.354 23.76C163.194 23.76 163.024 23.69 162.844 23.55C162.724 23.45 162.614 23.36 162.514 23.28C162.414 23.18 162.314 23.06 162.214 22.92C161.954 22.56 161.614 22.23 161.194 21.93C160.994 21.77 160.804 21.62 160.624 21.48C160.444 21.34 160.244 21.21 160.024 21.09C159.884 21.01 159.744 20.93 159.604 20.85C159.484 20.75 159.344 20.66 159.184 20.58C158.684 20.24 158.174 19.91 157.654 19.59C157.134 19.25 156.614 18.91 156.094 18.57C156.014 18.51 155.924 18.45 155.824 18.39C155.724 18.33 155.624 18.27 155.524 18.21C155.484 18.17 155.424 18.13 155.344 18.09C155.264 18.09 155.224 18.12 155.224 18.18C155.224 18.2 155.214 18.22 155.194 18.24C155.194 18.24 155.194 18.25 155.194 18.27C155.194 18.33 155.194 18.39 155.194 18.45C155.194 18.51 155.204 18.57 155.224 18.63C155.244 18.79 155.254 18.95 155.254 19.11C155.254 19.25 155.254 19.4 155.254 19.56C155.254 19.68 155.254 19.8 155.254 19.92C155.274 20.02 155.294 20.13 155.314 20.25C155.314 20.31 155.314 20.38 155.314 20.46C155.334 20.52 155.344 20.58 155.344 20.64C155.324 20.82 155.334 21 155.374 21.18C155.414 21.36 155.444 21.54 155.464 21.72L155.644 22.5C155.664 22.58 155.684 22.67 155.704 22.77C155.724 22.85 155.744 22.94 155.764 23.04C155.784 23.12 155.784 23.2 155.764 23.28C155.764 23.34 155.754 23.41 155.734 23.49C155.734 23.51 155.714 23.54 155.674 23.58C155.574 23.6 155.504 23.67 155.464 23.79C155.404 23.93 155.314 24.05 155.194 24.15C155.094 24.27 154.984 24.38 154.864 24.48C154.844 24.5 154.804 24.52 154.744 24.54C154.684 24.56 154.634 24.58 154.594 24.6ZM155.764 14.1H155.824C156.044 14.06 156.264 14.02 156.484 13.98C156.724 13.92 156.954 13.85 157.174 13.77C157.394 13.71 157.584 13.6 157.744 13.44C157.884 13.3 157.954 13.14 157.954 12.96C157.974 12.82 157.974 12.69 157.954 12.57C157.954 12.43 157.934 12.29 157.894 12.15C157.814 11.79 157.724 11.44 157.624 11.1C157.524 10.74 157.404 10.4 157.264 10.08L156.994 9.36C156.934 9.16 156.864 8.97 156.784 8.79C156.704 8.59 156.614 8.4 156.514 8.22C156.494 8.18 156.474 8.14 156.454 8.1C156.434 8.04 156.414 7.99 156.394 7.95L156.274 7.83C156.214 7.75 156.144 7.75 156.064 7.83C156.044 7.83 156.014 7.85 155.974 7.89C155.834 8.07 155.704 8.26 155.584 8.46C155.484 8.66 155.424 8.88 155.404 9.12C155.384 9.2 155.364 9.28 155.344 9.36C155.344 9.44 155.344 9.53 155.344 9.63V10.92C155.324 11.2 155.314 11.49 155.314 11.79C155.334 12.09 155.324 12.38 155.284 12.66C155.264 12.72 155.254 12.78 155.254 12.84C155.274 12.9 155.284 12.96 155.284 13.02C155.304 13.14 155.314 13.26 155.314 13.38C155.314 13.48 155.314 13.59 155.314 13.71C155.314 13.91 155.334 14.03 155.374 14.07C155.434 14.11 155.564 14.12 155.764 14.1ZM186.875 27.15L186.665 27.06C186.565 27 186.515 26.92 186.515 26.82C186.495 26.64 186.445 26.46 186.365 26.28C186.285 26.12 186.195 25.97 186.095 25.83C185.935 25.57 185.825 25.29 185.765 24.99C185.765 24.93 185.755 24.86 185.735 24.78C185.735 24.72 185.735 24.66 185.735 24.6C185.755 24.26 185.735 23.92 185.675 23.58C185.635 23.22 185.595 22.87 185.555 22.53C185.535 22.39 185.515 22.26 185.495 22.14C185.475 22 185.455 21.86 185.435 21.72C185.415 21.66 185.405 21.61 185.405 21.57C185.405 21.51 185.395 21.46 185.375 21.42C185.335 21.22 185.305 21.03 185.285 20.85C185.265 20.65 185.235 20.45 185.195 20.25C185.175 20.13 185.155 20.01 185.135 19.89C185.115 19.77 185.085 19.65 185.045 19.53C185.025 19.37 184.995 19.21 184.955 19.05C184.915 18.89 184.875 18.73 184.835 18.57C184.815 18.43 184.785 18.3 184.745 18.18C184.705 18.04 184.675 17.9 184.655 17.76C184.635 17.7 184.615 17.64 184.595 17.58C184.595 17.52 184.575 17.46 184.535 17.4L184.445 17.19C184.405 17.01 184.355 16.83 184.295 16.65C184.235 16.45 184.185 16.26 184.145 16.08C184.105 15.96 184.055 15.84 183.995 15.72C183.935 15.6 183.885 15.48 183.845 15.36L183.665 14.91C183.625 14.77 183.585 14.63 183.545 14.49C183.505 14.33 183.465 14.18 183.425 14.04L183.335 13.53C183.315 13.43 183.295 13.32 183.275 13.2C183.255 13.08 183.235 12.97 183.215 12.87C183.215 12.77 183.205 12.69 183.185 12.63C183.185 12.55 183.185 12.47 183.185 12.39C183.165 12.25 183.155 12.12 183.155 12C183.155 11.86 183.145 11.72 183.125 11.58V11.37C183.165 11.23 183.185 11.1 183.185 10.98C183.205 10.86 183.225 10.74 183.245 10.62C183.285 10.52 183.285 10.43 183.245 10.35L183.065 9.96C183.045 9.92 183.025 9.89 183.005 9.87C183.005 9.85 182.995 9.83 182.975 9.81C182.875 9.71 182.785 9.6 182.705 9.48C182.625 9.34 182.535 9.21 182.435 9.09L182.375 9C182.315 8.88 182.245 8.76 182.165 8.64C182.105 8.5 182.025 8.39 181.925 8.31L181.475 7.68C181.395 7.56 181.315 7.44 181.235 7.32C181.155 7.2 181.065 7.08 180.965 6.96C180.865 6.8 180.755 6.65 180.635 6.51C180.535 6.35 180.415 6.2 180.275 6.06C179.975 5.7 179.735 5.29 179.555 4.83L179.375 4.29C179.255 3.95 179.225 3.59 179.285 3.21C179.285 3.17 179.285 3.13 179.285 3.09C179.305 3.05 179.315 3.01 179.315 2.97C179.375 2.51 179.615 2.13 180.035 1.83C180.115 1.77 180.195 1.73 180.275 1.71C180.315 1.69 180.355 1.68 180.395 1.68C180.455 1.68 180.505 1.67 180.545 1.65C180.665 1.61 180.775 1.59 180.875 1.59C180.915 1.59 180.955 1.6 180.995 1.62C181.055 1.64 181.105 1.66 181.145 1.68C181.225 1.7 181.305 1.71 181.385 1.71C181.485 1.71 181.575 1.75 181.655 1.83C181.755 1.93 181.845 2.04 181.925 2.16C182.005 2.26 182.075 2.38 182.135 2.52C182.175 2.62 182.245 2.68 182.345 2.7C182.405 2.72 182.455 2.77 182.495 2.85C182.495 2.87 182.495 2.9 182.495 2.94C182.515 2.96 182.525 2.98 182.525 3C182.545 3.18 182.625 3.35 182.765 3.51C182.785 3.55 182.815 3.59 182.855 3.63C183.015 3.83 183.175 4.03 183.335 4.23C183.495 4.43 183.655 4.63 183.815 4.83C183.855 4.89 183.895 4.95 183.935 5.01C183.995 5.05 184.035 5.1 184.055 5.16C184.295 5.54 184.535 5.91 184.775 6.27C185.015 6.63 185.245 6.99 185.465 7.35L185.705 7.71C185.725 7.73 185.735 7.74 185.735 7.74C185.755 7.74 185.775 7.75 185.795 7.77C185.835 7.81 185.885 7.81 185.945 7.77L186.245 7.47C186.345 7.35 186.445 7.23 186.545 7.11C186.665 6.99 186.785 6.88 186.905 6.78C187.185 6.5 187.445 6.22 187.685 5.94C187.945 5.64 188.205 5.35 188.465 5.07C188.565 4.95 188.675 4.83 188.795 4.71C188.915 4.59 189.025 4.48 189.125 4.38L189.545 3.93C189.705 3.73 189.865 3.54 190.025 3.36C190.185 3.16 190.345 2.96 190.505 2.76C190.625 2.6 190.735 2.45 190.835 2.31C190.955 2.17 191.085 2.03 191.225 1.89C191.545 1.53 191.895 1.25 192.275 1.05C192.415 0.969998 192.545 0.889998 192.665 0.809998C192.785 0.709998 192.905 0.619998 193.025 0.539998C193.185 0.419998 193.395 0.339999 193.655 0.299999C194.115 0.259999 194.475 0.409999 194.735 0.749999C194.815 0.829999 194.885 0.919999 194.945 1.02C195.005 1.12 195.045 1.23 195.065 1.35C195.145 1.49 195.165 1.67 195.125 1.89C195.125 2.07 195.075 2.24 194.975 2.4C194.855 2.66 194.685 2.92 194.465 3.18L194.255 3.48C194.215 3.56 194.165 3.64 194.105 3.72C194.045 3.78 193.995 3.84 193.955 3.9C193.915 3.96 193.855 4.03 193.775 4.11C193.695 4.25 193.595 4.37 193.475 4.47C193.375 4.55 193.265 4.64 193.145 4.74C193.065 4.8 192.985 4.86 192.905 4.92C192.845 4.98 192.775 5.04 192.695 5.1L192.335 5.31C192.195 5.37 192.065 5.46 191.945 5.58C191.885 5.64 191.835 5.68 191.795 5.7C191.655 5.8 191.515 5.92 191.375 6.06C191.255 6.18 191.135 6.3 191.015 6.42C190.935 6.5 190.855 6.57 190.775 6.63C190.715 6.69 190.645 6.75 190.565 6.81C190.485 6.87 190.405 6.94 190.325 7.02C190.245 7.08 190.165 7.14 190.085 7.2L189.695 7.56C189.675 7.58 189.655 7.6 189.635 7.62C189.615 7.62 189.595 7.63 189.575 7.65C189.375 7.89 189.135 8.1 188.855 8.28C188.795 8.34 188.765 8.37 188.765 8.37C188.745 8.45 188.705 8.51 188.645 8.55C188.605 8.59 188.555 8.63 188.495 8.67C188.475 8.69 188.455 8.71 188.435 8.73C188.415 8.75 188.385 8.77 188.345 8.79C188.265 8.93 188.165 9.06 188.045 9.18C187.925 9.3 187.805 9.41 187.685 9.51C187.625 9.55 187.565 9.6 187.505 9.66C187.465 9.72 187.425 9.78 187.385 9.84C187.345 9.88 187.335 9.95 187.355 10.05C187.375 10.11 187.395 10.18 187.415 10.26C187.435 10.32 187.455 10.38 187.475 10.44C187.535 10.64 187.535 10.85 187.475 11.07C187.475 11.09 187.465 11.12 187.445 11.16C187.445 11.18 187.445 11.21 187.445 11.25C187.425 11.29 187.395 11.33 187.355 11.37C187.315 11.41 187.295 11.46 187.295 11.52C187.275 11.56 187.265 11.62 187.265 11.7C187.265 11.8 187.205 11.87 187.085 11.91C187.045 11.91 187.005 11.94 186.965 12C186.945 12.02 186.935 12.04 186.935 12.06C186.935 12.08 186.915 12.1 186.875 12.12C186.755 12.18 186.715 12.27 186.755 12.39C186.755 12.47 186.755 12.56 186.755 12.66C186.775 12.76 186.785 12.86 186.785 12.96C186.805 13.12 186.825 13.28 186.845 13.44C186.865 13.6 186.885 13.76 186.905 13.92L186.995 14.49C187.055 14.75 187.105 15.02 187.145 15.3C187.205 15.56 187.255 15.83 187.295 16.11L187.565 17.52C187.605 17.7 187.645 17.88 187.685 18.06C187.725 18.24 187.755 18.42 187.775 18.6C187.795 18.76 187.815 18.93 187.835 19.11C187.875 19.27 187.905 19.43 187.925 19.59C187.945 19.71 187.955 19.83 187.955 19.95C187.955 20.05 187.955 20.16 187.955 20.28C187.975 20.3 187.985 20.33 187.985 20.37C187.985 20.41 187.995 20.45 188.015 20.49C188.075 20.67 188.105 20.85 188.105 21.03C188.105 21.11 188.105 21.19 188.105 21.27C188.125 21.33 188.135 21.39 188.135 21.45C188.155 21.51 188.165 21.57 188.165 21.63C188.185 21.69 188.205 21.75 188.225 21.81V21.9C188.245 22.04 188.265 22.17 188.285 22.29C188.305 22.41 188.325 22.54 188.345 22.68V22.8C188.325 22.96 188.325 23.13 188.345 23.31C188.365 23.47 188.385 23.63 188.405 23.79C188.405 23.89 188.415 23.98 188.435 24.06C188.475 24.16 188.505 24.26 188.525 24.36C188.525 24.44 188.515 24.5 188.495 24.54C188.415 24.62 188.355 24.74 188.315 24.9C188.315 24.92 188.305 24.94 188.285 24.96C188.285 24.98 188.285 24.99 188.285 24.99C188.225 25.07 188.195 25.16 188.195 25.26C188.155 25.48 188.075 25.65 187.955 25.77C187.755 25.97 187.655 26.24 187.655 26.58L187.595 26.82C187.555 26.96 187.455 27.06 187.295 27.12C187.135 27.2 186.995 27.21 186.875 27.15ZM201.561 24.6C201.361 24.58 201.161 24.55 200.961 24.51C200.781 24.49 200.601 24.44 200.421 24.36L199.671 24.09C199.411 23.99 199.171 23.88 198.951 23.76C198.731 23.62 198.511 23.48 198.291 23.34C198.191 23.24 198.091 23.15 197.991 23.07C197.891 22.97 197.791 22.88 197.691 22.8C197.531 22.64 197.371 22.48 197.211 22.32C197.051 22.14 196.901 21.95 196.761 21.75L196.041 20.64C195.861 20.36 195.701 20.07 195.561 19.77C195.421 19.45 195.301 19.13 195.201 18.81C194.981 18.21 194.871 17.62 194.871 17.04V16.56C194.871 16.06 194.901 15.57 194.961 15.09C195.001 14.69 195.091 14.33 195.231 14.01C195.311 13.81 195.381 13.61 195.441 13.41C195.501 13.21 195.571 13.02 195.651 12.84L195.741 12.63C195.781 12.37 195.871 12.14 196.011 11.94C196.151 11.72 196.271 11.51 196.371 11.31C196.451 11.15 196.541 11.01 196.641 10.89C196.741 10.75 196.831 10.61 196.911 10.47C196.951 10.41 197.001 10.36 197.061 10.32C197.121 10.26 197.171 10.2 197.211 10.14C197.251 10.1 197.281 10.05 197.301 9.99C197.341 9.91 197.371 9.84 197.391 9.78C197.431 9.72 197.501 9.64 197.601 9.54C197.721 9.48 197.831 9.34 197.931 9.12C197.971 9.04 198.011 8.98 198.051 8.94C198.171 8.84 198.271 8.72 198.351 8.58C198.451 8.44 198.561 8.31 198.681 8.19C198.761 8.11 198.801 8 198.801 7.86C198.801 7.76 198.801 7.67 198.801 7.59C198.821 7.49 198.821 7.4 198.801 7.32C198.781 7.22 198.811 7.13 198.891 7.05C198.931 7.01 198.961 6.96 198.981 6.9C199.001 6.84 199.021 6.78 199.041 6.72C199.101 6.52 199.261 6.35 199.521 6.21C199.561 6.17 199.611 6.15 199.671 6.15C199.751 6.13 199.821 6.11 199.881 6.09C200.021 6.03 200.181 6.02 200.361 6.06C200.441 6.08 200.511 6.09 200.571 6.09C200.631 6.07 200.691 6.05 200.751 6.03C200.831 5.99 200.901 5.96 200.961 5.94C201.041 5.92 201.111 5.9 201.171 5.88C201.451 5.78 201.741 5.79 202.041 5.91C202.361 6.03 202.591 6.24 202.731 6.54C202.771 6.64 202.811 6.74 202.851 6.84C202.891 6.94 202.921 7.04 202.941 7.14C202.981 7.36 202.971 7.55 202.911 7.71C202.871 7.79 202.851 7.84 202.851 7.86C202.831 7.94 202.851 8.01 202.911 8.07C202.951 8.13 203.001 8.18 203.061 8.22C203.281 8.42 203.491 8.62 203.691 8.82C203.891 9 204.081 9.2 204.261 9.42C204.421 9.58 204.551 9.75 204.651 9.93C204.771 10.09 204.881 10.27 204.981 10.47C205.021 10.57 205.071 10.68 205.131 10.8C205.191 10.9 205.251 11 205.311 11.1C205.411 11.28 205.491 11.47 205.551 11.67C205.631 11.87 205.711 12.07 205.791 12.27V12.3C205.831 12.44 205.861 12.59 205.881 12.75C205.921 12.89 205.981 13.04 206.061 13.2C206.121 13.34 206.171 13.49 206.211 13.65C206.251 13.79 206.291 13.94 206.331 14.1C206.371 14.28 206.411 14.46 206.451 14.64C206.511 14.82 206.551 15 206.571 15.18C206.591 15.26 206.611 15.34 206.631 15.42C206.651 15.48 206.671 15.55 206.691 15.63C206.731 15.81 206.771 15.99 206.811 16.17C206.851 16.35 206.881 16.53 206.901 16.71L206.991 16.92C207.031 17.04 207.071 17.2 207.111 17.4C207.171 17.66 207.201 17.92 207.201 18.18C207.221 18.44 207.221 18.71 207.201 18.99C207.201 19.13 207.191 19.24 207.171 19.32C207.051 19.74 206.901 20.17 206.721 20.61C206.641 20.75 206.561 20.89 206.481 21.03C206.401 21.15 206.321 21.28 206.241 21.42L205.971 21.84C205.871 22.02 205.761 22.18 205.641 22.32C205.441 22.64 205.201 22.92 204.921 23.16C204.641 23.4 204.341 23.63 204.021 23.85C203.321 24.39 202.501 24.64 201.561 24.6ZM201.441 21.63C201.861 21.63 202.221 21.51 202.521 21.27C202.621 21.17 202.721 21.08 202.821 21C202.941 20.9 203.041 20.8 203.121 20.7C203.501 20.28 203.801 19.84 204.021 19.38L204.111 19.08C204.151 18.72 204.151 18.36 204.111 18L203.931 17.01C203.871 16.75 203.821 16.5 203.781 16.26C203.741 16 203.681 15.75 203.601 15.51C203.541 15.37 203.521 15.26 203.541 15.18C203.561 15.08 203.561 14.98 203.541 14.88C203.521 14.78 203.491 14.68 203.451 14.58C203.391 14.32 203.321 14.06 203.241 13.8C203.161 13.54 203.081 13.28 203.001 13.02C202.981 12.96 202.961 12.9 202.941 12.84C202.921 12.78 202.901 12.72 202.881 12.66C202.741 12.38 202.591 12.11 202.431 11.85C202.271 11.59 202.091 11.35 201.891 11.13C201.791 11.01 201.681 10.9 201.561 10.8C201.441 10.68 201.321 10.57 201.201 10.47C201.181 10.43 201.151 10.41 201.111 10.41C201.091 10.39 201.061 10.37 201.021 10.35C200.961 10.27 200.881 10.28 200.781 10.38C200.681 10.48 200.571 10.59 200.451 10.71C200.351 10.83 200.251 10.95 200.151 11.07C200.051 11.21 199.941 11.35 199.821 11.49C199.721 11.63 199.621 11.77 199.521 11.91C199.381 12.09 199.251 12.27 199.131 12.45C199.011 12.63 198.891 12.81 198.771 12.99C198.351 13.67 198.021 14.42 197.781 15.24C197.741 15.36 197.721 15.45 197.721 15.51C197.701 15.65 197.681 15.79 197.661 15.93C197.661 16.07 197.661 16.22 197.661 16.38V16.62C197.681 16.68 197.691 16.74 197.691 16.8C197.691 16.86 197.701 16.92 197.721 16.98C197.721 17.22 197.781 17.48 197.901 17.76C198.061 18.16 198.241 18.55 198.441 18.93C198.641 19.31 198.871 19.67 199.131 20.01C199.191 20.09 199.251 20.17 199.311 20.25C199.391 20.33 199.461 20.41 199.521 20.49C199.701 20.69 199.891 20.87 200.091 21.03C200.311 21.19 200.531 21.33 200.751 21.45C200.991 21.57 201.221 21.63 201.441 21.63ZM215.336 24.3C215.316 24.28 215.286 24.27 215.246 24.27C215.046 24.15 214.846 24.04 214.646 23.94C214.466 23.82 214.296 23.69 214.136 23.55C214.056 23.51 214.006 23.47 213.986 23.43C213.806 23.33 213.646 23.21 213.506 23.07C213.366 22.91 213.236 22.74 213.116 22.56C213.076 22.52 213.036 22.47 212.996 22.41C212.956 22.35 212.906 22.29 212.846 22.23C212.646 22.03 212.486 21.79 212.366 21.51C212.346 21.45 212.316 21.39 212.276 21.33C212.236 21.27 212.196 21.21 212.156 21.15C212.036 20.99 211.946 20.84 211.886 20.7C211.846 20.54 211.786 20.39 211.706 20.25C211.626 20.09 211.546 19.94 211.466 19.8C211.446 19.72 211.416 19.64 211.376 19.56C211.336 19.48 211.306 19.4 211.286 19.32C211.286 19.22 211.256 19.11 211.196 18.99C211.116 18.77 211.036 18.55 210.956 18.33C210.896 18.09 210.836 17.85 210.776 17.61C210.736 17.53 210.716 17.47 210.716 17.43C210.596 17.17 210.506 16.9 210.446 16.62C210.386 16.34 210.326 16.07 210.266 15.81L210.086 14.46C210.066 14.42 210.056 14.37 210.056 14.31C210.056 14.25 210.056 14.2 210.056 14.16C210.056 14.04 210.056 13.93 210.056 13.83C210.056 13.71 210.036 13.59 209.996 13.47C209.956 13.21 209.966 12.97 210.026 12.75C210.026 12.67 210.026 12.6 210.026 12.54C210.046 12.46 210.056 12.38 210.056 12.3C210.056 12.2 210.056 12.1 210.056 12C210.076 11.88 210.096 11.78 210.116 11.7C210.136 11.64 210.146 11.56 210.146 11.46C210.186 11.28 210.206 11.11 210.206 10.95C210.226 10.77 210.246 10.6 210.266 10.44C210.326 10.16 210.356 9.89 210.356 9.63C210.356 9.55 210.356 9.48 210.356 9.42C210.376 9.34 210.396 9.26 210.416 9.18C210.416 9 210.406 8.87 210.386 8.79C210.326 8.71 210.316 8.6 210.356 8.46C210.396 8.38 210.416 8.32 210.416 8.28C210.436 8.24 210.446 8.2 210.446 8.16C210.446 8.1 210.476 8.06 210.536 8.04H210.746C210.826 8.04 210.876 8.01 210.896 7.95C210.916 7.87 210.986 7.81 211.106 7.77C211.206 7.73 211.296 7.7 211.376 7.68C211.456 7.64 211.536 7.59 211.616 7.53C211.676 7.49 211.746 7.47 211.826 7.47C211.906 7.47 211.986 7.48 212.066 7.5L212.606 7.68C212.626 7.7 212.636 7.71 212.636 7.71C212.656 7.71 212.676 7.72 212.696 7.74C212.856 7.9 212.986 8.08 213.086 8.28C213.206 8.48 213.276 8.7 213.296 8.94C213.296 9.02 213.296 9.1 213.296 9.18C213.296 9.24 213.276 9.31 213.236 9.39C213.216 9.51 213.196 9.63 213.176 9.75C213.156 9.87 213.136 10 213.116 10.14C213.076 10.34 213.046 10.54 213.026 10.74C213.026 10.92 213.026 11.11 213.026 11.31C213.006 11.39 212.996 11.47 212.996 11.55C212.996 11.61 212.986 11.68 212.966 11.76C212.946 12 212.936 12.24 212.936 12.48C212.936 12.72 212.956 12.95 212.996 13.17C212.996 13.19 212.996 13.22 212.996 13.26C213.016 13.3 213.016 13.34 212.996 13.38C212.996 13.58 213.016 13.79 213.056 14.01C213.096 14.23 213.126 14.45 213.146 14.67C213.166 14.87 213.186 15.06 213.206 15.24C213.226 15.42 213.256 15.6 213.296 15.78C213.336 15.86 213.356 15.94 213.356 16.02C213.376 16.1 213.396 16.18 213.416 16.26C213.496 16.64 213.586 17.01 213.686 17.37C213.786 17.73 213.916 18.09 214.076 18.45C214.176 18.67 214.276 18.86 214.376 19.02C214.536 19.3 214.676 19.58 214.796 19.86C214.876 20 214.956 20.14 215.036 20.28C215.116 20.4 215.196 20.53 215.276 20.67C215.356 20.77 215.436 20.86 215.516 20.94C215.596 21.02 215.676 21.11 215.756 21.21C215.856 21.31 215.986 21.34 216.146 21.3C216.246 21.26 216.316 21.22 216.356 21.18C216.456 21.12 216.546 21.06 216.626 21C216.726 20.94 216.816 20.87 216.896 20.79C217.116 20.57 217.316 20.35 217.496 20.13C217.696 19.91 217.866 19.67 218.006 19.41C218.126 19.19 218.246 18.96 218.366 18.72C218.486 18.48 218.596 18.24 218.696 18C218.816 17.72 218.926 17.44 219.026 17.16C219.146 16.88 219.256 16.59 219.356 16.29C219.436 16.09 219.496 15.89 219.536 15.69C219.596 15.47 219.636 15.26 219.656 15.06C219.696 14.84 219.726 14.62 219.746 14.4C219.786 14.16 219.796 13.93 219.776 13.71C219.776 13.65 219.776 13.59 219.776 13.53C219.796 13.47 219.806 13.41 219.806 13.35C219.846 13.21 219.856 13.08 219.836 12.96C219.836 12.84 219.826 12.72 219.806 12.6C219.786 12.26 219.756 11.94 219.716 11.64C219.696 11.32 219.676 11 219.656 10.68C219.656 10.52 219.646 10.41 219.626 10.35C219.606 10.17 219.586 9.99 219.566 9.81C219.566 9.63 219.546 9.45 219.506 9.27V9.03C219.506 8.83 219.496 8.64 219.476 8.46C219.476 8.26 219.476 8.06 219.476 7.86C219.476 7.7 219.466 7.56 219.446 7.44C219.446 7.3 219.446 7.16 219.446 7.02C219.446 6.84 219.476 6.69 219.536 6.57C219.596 6.47 219.616 6.39 219.596 6.33C219.536 6.21 219.566 6.12 219.686 6.06C219.786 5.96 219.886 5.88 219.986 5.82C220.106 5.76 220.236 5.72 220.376 5.7C220.416 5.68 220.446 5.67 220.466 5.67C220.506 5.67 220.536 5.66 220.556 5.64C220.676 5.54 220.836 5.51 221.036 5.55C221.076 5.57 221.136 5.58 221.216 5.58C221.396 5.62 221.526 5.69 221.606 5.79C221.666 5.85 221.756 5.92 221.876 6C222.036 6.08 222.146 6.18 222.206 6.3C222.266 6.42 222.306 6.55 222.326 6.69C222.366 6.89 222.396 7.08 222.416 7.26C222.456 7.44 222.466 7.63 222.446 7.83V8.1C222.446 8.3 222.446 8.5 222.446 8.7C222.466 8.88 222.486 9.07 222.506 9.27C222.526 9.33 222.536 9.4 222.536 9.48C222.536 9.54 222.536 9.6 222.536 9.66C222.536 9.78 222.536 9.9 222.536 10.02C222.556 10.12 222.576 10.23 222.596 10.35C222.616 10.39 222.626 10.45 222.626 10.53C222.606 10.73 222.606 10.93 222.626 11.13C222.666 11.31 222.696 11.5 222.716 11.7C222.736 11.9 222.746 12.11 222.746 12.33C222.766 12.55 222.776 12.77 222.776 12.99C222.796 13.01 222.796 13.04 222.776 13.08C222.776 13.12 222.776 13.16 222.776 13.2C222.716 13.38 222.706 13.59 222.746 13.83C222.786 14.09 222.776 14.34 222.716 14.58C222.696 14.76 222.676 14.94 222.656 15.12C222.636 15.3 222.606 15.49 222.566 15.69C222.526 16.01 222.456 16.33 222.356 16.65C222.256 16.97 222.156 17.29 222.056 17.61C222.056 17.65 222.026 17.72 221.966 17.82C221.886 17.96 221.816 18.11 221.756 18.27C221.696 18.41 221.646 18.56 221.606 18.72L221.516 18.93C221.416 19.13 221.326 19.33 221.246 19.53C221.186 19.71 221.106 19.9 221.006 20.1C220.946 20.22 220.886 20.34 220.826 20.46C220.766 20.58 220.696 20.69 220.616 20.79C220.596 20.83 220.566 20.87 220.526 20.91C220.486 21.05 220.426 21.18 220.346 21.3C220.266 21.42 220.186 21.54 220.106 21.66C219.886 22 219.626 22.32 219.326 22.62C219.046 22.92 218.736 23.2 218.396 23.46L218.036 23.67C217.756 23.81 217.456 23.93 217.136 24.03C216.836 24.13 216.526 24.2 216.206 24.24C216.106 24.26 215.996 24.26 215.876 24.24C215.816 24.24 215.756 24.24 215.696 24.24C215.636 24.24 215.576 24.26 215.516 24.3H215.336Z" fill="#353535"/>
</svg>
