<svg width="104" height="35" viewBox="0 0 104 35" fill="none" xmlns="http://www.w3.org/2000/svg">
<path d="M7.71231 34.5C7.67897 34.5 7.62897 34.4833 7.56231 34.45C7.52897 34.45 7.47897 34.45 7.41231 34.45C7.17897 34.45 7.01231 34.35 6.9123 34.15C6.77897 33.9167 6.64564 33.7167 6.5123 33.55C6.37897 33.3833 6.22897 33.2167 6.06231 33.05C5.89564 32.8833 5.74564 32.7 5.61231 32.5C5.51231 32.3 5.41231 32.1 5.31231 31.9C5.21231 31.7333 5.16231 31.5667 5.16231 31.4V30.9C5.16231 30.7333 5.14564 30.5667 5.1123 30.4C5.1123 30.2 5.09564 30.0167 5.0623 29.85C4.99564 29.5833 4.92897 29.3 4.86231 29C4.82897 28.7 4.77897 28.4167 4.7123 28.15C4.7123 28.0833 4.69564 28.0167 4.6623 27.95C4.6623 27.85 4.6623 27.7667 4.6623 27.7C4.62897 27.3333 4.57897 26.9667 4.5123 26.6C4.44564 26.2 4.37897 25.8167 4.3123 25.45C4.2123 24.7833 4.09564 24.1333 3.9623 23.5C3.8623 22.8333 3.7623 22.1833 3.6623 21.55L3.3623 19.9C3.32897 19.6333 3.22897 19.35 3.0623 19.05C2.8623 18.6833 2.7123 18.2833 2.6123 17.85C2.57897 17.65 2.52897 17.4667 2.4623 17.3C2.39564 17.1 2.32897 16.9 2.2623 16.7C2.1623 16.3667 2.0623 16.0333 1.9623 15.7C1.8623 15.3667 1.77897 15.0333 1.7123 14.7C1.67897 14.4333 1.62897 14.1667 1.5623 13.9C1.49564 13.6333 1.42897 13.3667 1.3623 13.1L1.0623 11.75C1.0623 11.6833 1.04564 11.6333 1.0123 11.6C0.978971 11.1333 0.912305 10.6667 0.812305 10.2C0.712305 9.7 0.612305 9.21667 0.512305 8.75C0.478971 8.48333 0.428972 8.16667 0.362305 7.8C0.328971 7.4 0.328971 7.08333 0.362305 6.85V6.35C0.428972 5.88333 0.578972 5.45 0.812305 5.05C1.07897 4.58333 1.5123 4.21666 2.1123 3.95C2.27897 3.88333 2.44564 3.83333 2.6123 3.8C2.77897 3.76667 2.92897 3.73333 3.0623 3.7C3.42897 3.66666 3.77897 3.71666 4.1123 3.85C4.44564 3.95 4.77897 4.1 5.1123 4.3C5.21231 4.36667 5.29564 4.45 5.3623 4.55C5.4623 4.71666 5.56231 4.88333 5.66231 5.05C5.79564 5.21667 5.87897 5.4 5.91231 5.6C5.97897 5.8 6.04564 6 6.1123 6.2C6.2123 6.4 6.31231 6.58333 6.41231 6.75C6.57897 7.08333 6.69564 7.43333 6.76231 7.8C6.82897 8.16667 6.89564 8.53333 6.9623 8.9C7.06231 9.4 7.11231 9.93333 7.11231 10.5V10.75C7.17897 11.0833 7.2123 11.4167 7.2123 11.75C7.2123 12.05 7.2123 12.3667 7.2123 12.7C7.24564 13.2333 7.29564 13.7667 7.36231 14.3C7.42897 14.8 7.49564 15.3333 7.56231 15.9L7.86231 18.25V18.35C7.92897 18.7167 7.99564 19.1 8.0623 19.5C8.16231 19.8667 8.22897 20.2333 8.26231 20.6C8.36231 21.1667 8.46231 21.75 8.56231 22.35C8.69564 22.9167 8.79564 23.4833 8.86231 24.05L9.1623 26.15C9.22897 26.4833 9.27897 26.8167 9.31231 27.15C9.37897 27.4833 9.44564 27.8167 9.5123 28.15C9.57897 28.4833 9.62897 28.8167 9.66231 29.15C9.72897 29.45 9.79564 29.7667 9.8623 30.1C9.89564 30.2333 9.9123 30.3667 9.9123 30.5C9.94564 30.6 9.96231 30.7167 9.96231 30.85C9.99564 31.35 9.91231 31.8333 9.71231 32.3C9.67897 32.4333 9.59564 32.5667 9.46231 32.7C9.32897 32.9 9.21231 33.0333 9.1123 33.1C8.84564 33.3667 8.64564 33.65 8.51231 33.95C8.51231 33.9833 8.47897 34.0333 8.4123 34.1C8.37897 34.1667 8.32897 34.2333 8.26231 34.3C8.12897 34.4333 7.94564 34.5 7.71231 34.5ZM32.1236 34.45C32.0236 34.4167 31.907 34.3833 31.7736 34.35C31.6736 34.3167 31.5736 34.2833 31.4736 34.25C31.207 34.15 30.9403 34.0167 30.6736 33.85C30.5403 33.7833 30.4403 33.6833 30.3736 33.55C30.1403 33.1833 29.9236 32.85 29.7236 32.55C29.5236 32.2167 29.307 31.8833 29.0736 31.55L28.6236 30.75C28.3903 30.2833 28.157 29.8333 27.9236 29.4C27.6903 28.9333 27.457 28.4833 27.2236 28.05C27.157 27.8833 27.0736 27.75 26.9736 27.65C26.907 27.5167 26.8403 27.3833 26.7736 27.25C26.5403 26.8833 26.3236 26.5167 26.1236 26.15C25.9236 25.75 25.7236 25.3667 25.5236 25L24.2736 22.55C23.9403 21.8833 23.607 21.2333 23.2736 20.6C22.9403 19.9333 22.607 19.2667 22.2736 18.6C22.207 18.5333 22.1403 18.4333 22.0736 18.3C21.9403 17.9333 21.7736 17.5833 21.5736 17.25C21.407 16.9167 21.2403 16.5833 21.0736 16.25C20.9403 16.0167 20.8236 15.7833 20.7236 15.55C20.6236 15.2833 20.507 15.0333 20.3736 14.8L19.8236 13.8C19.757 13.8 19.707 13.7833 19.6736 13.75C19.6736 13.75 19.657 13.7667 19.6236 13.8C19.6236 13.8 19.6236 13.8167 19.6236 13.85C19.5903 14.2833 19.557 14.7333 19.5236 15.2C19.4903 15.6667 19.4903 16.1333 19.5236 16.6C19.5903 16.8 19.5903 17.0167 19.5236 17.25C19.457 17.85 19.4736 18.3833 19.5736 18.85C19.607 18.9833 19.607 19.1167 19.5736 19.25C19.5736 19.3833 19.557 19.5333 19.5236 19.7C19.4903 19.9333 19.4736 20.15 19.4736 20.35C19.4736 20.55 19.457 20.7667 19.4236 21C19.4903 21.1333 19.5236 21.2833 19.5236 21.45C19.5236 21.5833 19.507 21.7167 19.4736 21.85C19.3736 22.1833 19.3736 22.5333 19.4736 22.9C19.5403 23 19.5403 23.1 19.4736 23.2C19.3403 23.5 19.307 23.8667 19.3736 24.3C19.4736 24.8667 19.4403 25.4833 19.2736 26.15C19.2403 26.2167 19.2236 26.3333 19.2236 26.5C19.1903 26.6333 19.2236 26.75 19.3236 26.85C19.457 26.9167 19.4903 27 19.4236 27.1C19.3903 27.5333 19.3903 27.9833 19.4236 28.45C19.4236 28.45 19.4236 28.4667 19.4236 28.5C19.4236 28.5 19.407 28.5 19.3736 28.5C19.3403 28.5 19.3236 28.4833 19.3236 28.45C19.2903 28.4167 19.2736 28.3833 19.2736 28.35C19.207 28.2833 19.1736 28.3 19.1736 28.4C19.1736 28.5667 19.1903 28.6667 19.2236 28.7C19.2903 28.8667 19.3236 29.0333 19.3236 29.2C19.3236 29.3667 19.3236 29.5333 19.3236 29.7V31.25C19.3236 31.35 19.307 31.45 19.2736 31.55C19.2736 31.65 19.2236 31.7333 19.1236 31.8C18.9903 31.8333 18.9236 31.95 18.9236 32.15C18.8903 32.5167 18.757 32.8333 18.5236 33.1C18.3236 33.3667 18.0903 33.6 17.8236 33.8C17.6903 33.9 17.5236 33.9667 17.3236 34C17.157 34 16.9903 33.9833 16.8236 33.95L15.9236 33.65C15.857 33.65 15.7903 33.6 15.7236 33.5C15.6236 33.4 15.5236 33.3 15.4236 33.2C15.3236 33.0667 15.207 32.95 15.0736 32.85C14.907 32.75 14.7903 32.5667 14.7236 32.3C14.6903 32.1333 14.6403 31.95 14.5736 31.75C14.507 31.55 14.4736 31.35 14.4736 31.15C14.4736 30.9167 14.4736 30.7 14.4736 30.5C14.507 30.3 14.5236 30.0833 14.5236 29.85C14.557 29.6833 14.5736 29.5333 14.5736 29.4C14.5736 29.2333 14.5903 29.0667 14.6236 28.9V10.6C14.6236 10.4333 14.6236 10.2667 14.6236 10.1C14.657 9.93333 14.6903 9.78333 14.7236 9.65C14.7236 9.48333 14.7236 9.31667 14.7236 9.15C14.757 8.98333 14.7736 8.81667 14.7736 8.65C14.7736 8.45 14.7736 8.25 14.7736 8.05C14.807 7.85 14.8403 7.66666 14.8736 7.5C14.907 7.36666 14.9236 7.25 14.9236 7.15C14.9236 7.05 14.9236 6.93333 14.9236 6.8V5.25C14.9236 5.01667 14.9403 4.81667 14.9736 4.65C15.0403 4.45 15.0903 4.25 15.1236 4.05L15.2736 3.8C15.3736 3.7 15.457 3.55 15.5236 3.35C15.5903 3.15 15.6903 3.05 15.8236 3.05C15.9236 2.98333 16.0236 2.93333 16.1236 2.9C16.2236 2.83333 16.2903 2.73333 16.3236 2.6L16.3736 2.55C16.407 2.55 16.4403 2.55 16.4736 2.55C16.507 2.51666 16.5403 2.5 16.5736 2.5C16.707 2.5 16.807 2.46666 16.8736 2.4C16.9736 2.33333 17.0903 2.31667 17.2236 2.35C17.357 2.38333 17.4903 2.4 17.6236 2.4C17.757 2.4 17.8903 2.41666 18.0236 2.45C18.757 2.58333 19.2736 3.01667 19.5736 3.75L19.8736 4.75C19.907 5.08333 20.057 5.4 20.3236 5.7C20.5236 5.93333 20.7236 6.18333 20.9236 6.45C21.1236 6.71667 21.3403 6.98333 21.5736 7.25C22.4403 8.35 23.2403 9.58333 23.9736 10.95C24.0403 11.0833 24.107 11.2167 24.1736 11.35C24.2403 11.4833 24.307 11.6167 24.3736 11.75L26.9736 17C27.1736 17.3667 27.357 17.75 27.5236 18.15C27.7236 18.5167 27.9403 18.8833 28.1736 19.25C28.2403 19.3833 28.307 19.5167 28.3736 19.65C28.4403 19.75 28.4903 19.8667 28.5236 20C28.6903 20.4 28.8903 20.8 29.1236 21.2C29.1236 21.2 29.1236 21.2167 29.1236 21.25C29.157 21.25 29.1736 21.2333 29.1736 21.2C29.207 21.2 29.2236 21.2 29.2236 21.2C29.257 21.1667 29.2736 21.15 29.2736 21.15L29.4236 19.4V18.9C29.457 18.7333 29.4736 18.5667 29.4736 18.4C29.507 18.2 29.5403 18.0167 29.5736 17.85C29.607 17.75 29.607 17.6333 29.5736 17.5C29.5736 17.3667 29.5903 17.2333 29.6236 17.1C29.6236 16.9 29.6236 16.7 29.6236 16.5C29.657 16.2667 29.6903 16.05 29.7236 15.85C29.757 15.75 29.7736 15.65 29.7736 15.55C29.7736 15.4167 29.7736 15.3 29.7736 15.2V13.85H29.7236V12.5C29.7236 12.3333 29.7236 12.1667 29.7236 12C29.7236 11.8333 29.6903 11.6667 29.6236 11.5C29.5903 11.4 29.5736 11.25 29.5736 11.05L29.6236 10.7C29.6236 10.6 29.607 10.5167 29.5736 10.45C29.5736 10.35 29.5736 10.25 29.5736 10.15C29.607 10.0167 29.5903 9.88333 29.5236 9.75C29.457 9.61667 29.4236 9.48333 29.4236 9.35C29.457 9.21667 29.4736 9.08333 29.4736 8.95C29.4736 8.81667 29.4736 8.68333 29.4736 8.55C29.4736 8.41667 29.407 8.35 29.2736 8.35C29.2403 8.35 29.2236 8.31667 29.2236 8.25C29.1903 8.15 29.1903 8.06667 29.2236 8C29.2903 7.83333 29.3236 7.65 29.3236 7.45C29.3236 7.25 29.3236 7.05 29.3236 6.85V5.4C29.2903 5.2 29.307 5 29.3736 4.8C29.4403 4.6 29.5236 4.41667 29.6236 4.25L29.8236 3.95C29.9903 3.78333 30.1736 3.61667 30.3736 3.45C30.5736 3.28333 30.7736 3.11666 30.9736 2.95C30.9736 2.95 31.0403 2.91666 31.1736 2.85C31.3403 2.81667 31.4903 2.78333 31.6236 2.75C31.7903 2.71667 31.957 2.71667 32.1236 2.75C32.257 2.75 32.357 2.76667 32.4236 2.8C32.557 2.86667 32.6903 2.95 32.8236 3.05C32.957 3.11666 33.0903 3.2 33.2236 3.3C33.2903 3.33333 33.3236 3.36666 33.3236 3.4C33.357 3.43333 33.3903 3.46667 33.4236 3.5C33.4903 3.56667 33.5403 3.65 33.5736 3.75C33.6403 3.81666 33.6903 3.88333 33.7236 3.95C33.8903 4.08333 33.9903 4.25 34.0236 4.45C34.0903 4.61667 34.1403 4.78333 34.1736 4.95V7.05C34.1736 7.28333 34.1736 7.51667 34.1736 7.75C34.207 7.95 34.2403 8.16666 34.2736 8.4C34.307 8.53333 34.3236 8.66667 34.3236 8.8C34.3236 8.9 34.3236 9.01666 34.3236 9.15C34.3236 9.41667 34.3236 9.7 34.3236 10C34.357 10.2667 34.3736 10.5333 34.3736 10.8V11.15C34.3736 11.3833 34.357 11.6167 34.3236 11.85C34.3236 12.05 34.3236 12.2667 34.3236 12.5V14.7C34.3236 15.0333 34.307 15.3833 34.2736 15.75C34.2736 16.0833 34.2903 16.4333 34.3236 16.8C34.3236 16.9333 34.307 17.0333 34.2736 17.1C34.2403 17.4333 34.2236 17.7667 34.2236 18.1C34.2236 18.4 34.207 18.7167 34.1736 19.05C34.1736 19.1833 34.1736 19.3333 34.1736 19.5C34.1736 19.6667 34.157 19.8333 34.1236 20C34.0903 20.1333 34.0736 20.2667 34.0736 20.4C34.107 20.5333 34.1236 20.6667 34.1236 20.8C34.1903 21.1 34.207 21.4 34.1736 21.7C34.1736 22 34.157 22.3 34.1236 22.6C34.0903 23.1333 34.057 23.6833 34.0236 24.25C34.0236 24.7833 34.057 25.3333 34.1236 25.9C34.1236 26.0333 34.1236 26.1833 34.1236 26.35C34.157 26.5167 34.1736 26.6833 34.1736 26.85C34.1403 27.35 34.157 27.8333 34.2236 28.3C34.3236 28.7667 34.4236 29.2333 34.5236 29.7C34.5903 30.0333 34.657 30.3667 34.7236 30.7C34.7903 31 34.8403 31.3333 34.8736 31.7C34.8736 31.8333 34.857 31.9167 34.8236 31.95C34.7903 32.0167 34.757 32.1 34.7236 32.2C34.6903 32.2667 34.6736 32.3333 34.6736 32.4C34.6403 32.6667 34.5403 32.9167 34.3736 33.15C34.2403 33.3833 34.0903 33.6167 33.9236 33.85C33.4903 34.4167 32.8903 34.6167 32.1236 34.45ZM46.3561 34.7C46.1227 34.7 45.8394 34.6167 45.5061 34.45C45.3394 34.35 45.2061 34.2167 45.1061 34.05C45.0727 33.95 44.9894 33.95 44.8561 34.05C44.7561 34.1167 44.6727 34.1167 44.6061 34.05C44.5061 33.95 44.4061 33.8833 44.3061 33.85C44.1727 33.85 44.1061 33.8 44.1061 33.7C44.1061 33.6 44.0894 33.5167 44.0561 33.45C44.0561 33.35 44.0227 33.2667 43.9561 33.2C43.7561 33.1333 43.6227 32.9667 43.5561 32.7C43.5227 32.6 43.4894 32.5167 43.4561 32.45C43.4227 32.35 43.3727 32.25 43.3061 32.15C43.2394 32.0167 43.2061 31.9 43.2061 31.8C43.1727 31.7 43.1394 31.6167 43.1061 31.55C43.1061 31.45 43.0727 31.35 43.0061 31.25C42.9727 31.0167 42.9061 30.8 42.8061 30.6C42.7061 30.4 42.6227 30.1833 42.5561 29.95C42.4894 29.8167 42.4561 29.6333 42.4561 29.4C42.4561 28.8 42.5561 28.25 42.7561 27.75C42.9227 27.45 42.9727 27.15 42.9061 26.85C42.8727 26.7167 42.8727 26.5833 42.9061 26.45C42.9727 26.3167 42.9894 26.1833 42.9561 26.05C42.9227 25.9167 42.8894 25.8 42.8561 25.7C42.8561 25.6 42.8561 25.4833 42.8561 25.35C42.8227 25.2833 42.8061 25.2 42.8061 25.1C42.8061 24.9 42.8061 24.7 42.8061 24.5C42.8061 24.2667 42.7727 24.0333 42.7061 23.8C42.6727 23.7 42.6561 23.55 42.6561 23.35V21.5C42.6227 21.0667 42.5727 20.6333 42.5061 20.2C42.4394 19.7667 42.3561 19.3333 42.2561 18.9C42.2561 18.8 42.2394 18.7 42.2061 18.6C42.2061 18.5 42.2061 18.4 42.2061 18.3C42.2061 17.5667 42.0894 16.85 41.8561 16.15V15.7C41.9227 15.3333 41.8894 15.05 41.7561 14.85C41.7227 14.7167 41.7061 14.5333 41.7061 14.3V14.25C41.7061 13.9167 41.6894 13.5833 41.6561 13.25C41.6561 12.9167 41.6727 12.5833 41.7061 12.25C41.7727 11.65 41.7727 11.0167 41.7061 10.35C41.7061 10.0833 41.7061 9.81667 41.7061 9.55C41.7061 9.28333 41.6894 9.03333 41.6561 8.8V8.5C41.7227 8.33333 41.7561 8.18333 41.7561 8.05C41.7561 7.91667 41.7561 7.78333 41.7561 7.65C41.7561 7.25 41.7394 6.86667 41.7061 6.5C41.7061 6.1 41.6727 5.71667 41.6061 5.35C41.6061 5.25 41.6061 5.15 41.6061 5.05C41.6061 4.91667 41.5894 4.8 41.5561 4.7C41.5561 4.46666 41.4727 4.26666 41.3061 4.1L40.9561 3.8C40.6227 3.6 40.4061 3.28333 40.3061 2.85C40.2727 2.78333 40.2561 2.73333 40.2561 2.7C40.2561 2.63333 40.2394 2.56667 40.2061 2.5C40.1394 2.33333 40.1727 2.18333 40.3061 2.05C40.4061 1.91667 40.4727 1.78333 40.5061 1.65C40.5061 1.55 40.5227 1.46667 40.5561 1.4C40.6227 1.3 40.6727 1.2 40.7061 1.1C40.7394 0.999999 40.7727 0.883333 40.8061 0.749999C40.8727 0.649998 40.9227 0.616664 40.9561 0.649997C41.1894 0.649997 41.3561 0.616664 41.4561 0.549999C41.6894 0.383332 41.9394 0.349999 42.2061 0.45C42.2727 0.483333 42.3727 0.466665 42.5061 0.399997C42.5394 0.399997 42.5561 0.383331 42.5561 0.349998C42.7227 0.183332 42.9061 0.0999984 43.1061 0.0999984C43.3061 0.0666655 43.5227 0.0666655 43.7561 0.0999984C43.7894 0.0999984 43.8227 0.116665 43.8561 0.149998C43.8894 0.149998 43.9227 0.149998 43.9561 0.149998C44.2227 0.216666 44.4727 0.283332 44.7061 0.349998C44.9727 0.383331 45.2227 0.383331 45.4561 0.349998C45.6227 0.349998 45.7894 0.366665 45.9561 0.399997C46.1561 0.433332 46.3394 0.45 46.5061 0.45C46.6394 0.45 46.7561 0.466666 46.8561 0.499999C46.9894 0.533332 47.1061 0.566665 47.2061 0.599998C47.3394 0.633331 47.4561 0.683331 47.5561 0.749999C47.6561 0.783332 47.7727 0.799998 47.9061 0.799998C48.0727 0.833331 48.2061 0.866664 48.3061 0.899997C48.4394 0.933332 48.5727 0.983332 48.7061 1.05C49.1394 1.28333 49.5727 1.5 50.0061 1.7C50.2061 1.8 50.3894 1.93333 50.5561 2.1C50.7894 2.26667 50.9894 2.36667 51.1561 2.4C51.1894 2.4 51.2227 2.41666 51.2561 2.45C51.2894 2.45 51.3227 2.45 51.3561 2.45C51.3894 2.48333 51.4227 2.5 51.4561 2.5C51.4894 2.5 51.5227 2.51666 51.5561 2.55C51.7227 2.71667 51.9227 2.85 52.1561 2.95C52.4227 3.01667 52.6394 3.13333 52.8061 3.3C52.8727 3.36666 52.9727 3.43333 53.1061 3.5C53.3727 3.6 53.6061 3.75 53.8061 3.95C53.8727 4.01667 53.9227 4.05 53.9561 4.05C54.0894 4.05 54.2394 4.13333 54.4061 4.3L55.4561 5.4C55.5894 5.53333 55.6894 5.65 55.7561 5.75C55.9227 5.98333 56.1061 6.2 56.3061 6.4C56.5061 6.6 56.7061 6.8 56.9061 7C56.9727 7.06666 57.0394 7.15 57.1061 7.25C57.2061 7.31666 57.2727 7.4 57.3061 7.5C57.3394 7.56667 57.3894 7.63333 57.4561 7.7C57.5227 7.73333 57.5727 7.78333 57.6061 7.85C57.9727 8.25 58.3227 8.66666 58.6561 9.1C59.0227 9.53333 59.3561 9.98333 59.6561 10.45C59.8227 10.6833 59.9727 10.9333 60.1061 11.2C60.2394 11.4667 60.3561 11.7333 60.4561 12C60.5561 12.2333 60.6561 12.4667 60.7561 12.7C60.8894 12.9333 61.0061 13.1667 61.1061 13.4C61.2061 13.7667 61.3227 14.1 61.4561 14.4C61.5894 14.8333 61.7227 15.25 61.8561 15.65C61.9894 16.05 62.1061 16.4833 62.2061 16.95L62.3561 17.6C62.3561 17.8667 62.3561 18.15 62.3561 18.45C62.3894 18.7167 62.4061 19 62.4061 19.3C62.4061 19.4333 62.3894 19.55 62.3561 19.65C62.3561 19.75 62.3227 19.8667 62.2561 20C62.1894 20.2 62.1561 20.3833 62.1561 20.55C62.1227 20.8833 62.0394 21.2 61.9061 21.5C61.8061 21.8 61.6894 22.0833 61.5561 22.35C61.2561 22.8833 60.9894 23.4167 60.7561 23.95C60.6894 24.0833 60.6227 24.2167 60.5561 24.35C60.5227 24.45 60.4727 24.5667 60.4061 24.7L60.1061 25.3C59.8727 25.7667 59.5894 26.2333 59.2561 26.7C58.9561 27.1333 58.6227 27.55 58.2561 27.95C58.1227 28.1167 57.9561 28.2833 57.7561 28.45C57.5894 28.5833 57.4227 28.7333 57.2561 28.9C56.9227 29.2 56.5894 29.5 56.2561 29.8C55.9227 30.0667 55.5727 30.3333 55.2061 30.6C54.8727 30.8333 54.5227 31.05 54.1561 31.25C53.8227 31.45 53.4561 31.6167 53.0561 31.75C52.8561 31.7833 52.6561 31.8833 52.4561 32.05C52.2561 32.1833 52.0394 32.3167 51.8061 32.45C51.6061 32.5833 51.3894 32.7333 51.1561 32.9C51.0561 32.9333 50.9561 32.9833 50.8561 33.05C50.7561 33.0833 50.6394 33.1167 50.5061 33.15C50.4061 33.1833 50.2894 33.2167 50.1561 33.25C50.0561 33.2833 49.9561 33.3167 49.8561 33.35C49.7227 33.3833 49.5894 33.4333 49.4561 33.5C49.3561 33.5667 49.2561 33.65 49.1561 33.75C48.9227 33.9167 48.6727 34.05 48.4061 34.15C48.1394 34.2833 47.8727 34.4333 47.6061 34.6C47.5394 34.6333 47.4227 34.65 47.2561 34.65C47.1561 34.6833 47.0561 34.6833 46.9561 34.65C46.8561 34.65 46.7561 34.65 46.6561 34.65V34.7H46.3561ZM48.3561 29.1C48.6894 29.1 48.9727 29.0333 49.2061 28.9C49.4727 28.8 49.7227 28.6833 49.9561 28.55C50.1894 28.4167 50.4061 28.2667 50.6061 28.1L51.2061 27.5C51.5394 27.2333 51.8394 26.95 52.1061 26.65C52.4061 26.35 52.7227 26.0833 53.0561 25.85C53.1227 25.7833 53.1561 25.75 53.1561 25.75C53.2894 25.6167 53.4061 25.5 53.5061 25.4C53.6394 25.2667 53.7561 25.1333 53.8561 25C53.9227 24.9333 54.0061 24.85 54.1061 24.75C54.2061 24.65 54.2727 24.5667 54.3061 24.5C54.4394 24.2667 54.6227 24.0667 54.8561 23.9C55.0227 23.8 55.1227 23.7 55.1561 23.6C55.2227 23.4333 55.3061 23.2667 55.4061 23.1C55.5394 22.9333 55.6727 22.7833 55.8061 22.65C55.9727 22.45 56.1394 22.15 56.3061 21.75L56.5061 21.25C56.7061 20.7833 56.8061 20.35 56.8061 19.95C56.8394 19.85 56.8561 19.7 56.8561 19.5C56.8894 19 56.8561 18.4667 56.7561 17.9C56.7227 17.7333 56.6894 17.5667 56.6561 17.4C56.6227 17.2333 56.6061 17.0833 56.6061 16.95C56.5727 16.8167 56.5394 16.7 56.5061 16.6C56.5061 16.4667 56.4727 16.35 56.4061 16.25C56.3394 16.1167 56.2894 15.9833 56.2561 15.85C56.2227 15.7167 56.1894 15.5833 56.1561 15.45C56.1561 15.2167 56.1227 15.0167 56.0561 14.85C55.9894 14.65 55.9227 14.45 55.8561 14.25C55.7561 14.05 55.6561 13.85 55.5561 13.65C55.4561 13.4167 55.3727 13.1833 55.3061 12.95L55.2561 12.75C55.1561 12.6167 55.0727 12.4833 55.0061 12.35C54.9727 12.1833 54.9227 12.0333 54.8561 11.9C54.7227 11.6 54.5894 11.3 54.4561 11C54.3561 10.7 54.2227 10.4167 54.0561 10.15C53.8894 9.85 53.7061 9.55 53.5061 9.25C53.3394 8.95 53.1227 8.68333 52.8561 8.45C52.0894 7.61667 51.2061 6.86667 50.2061 6.2C49.6061 5.76667 49.0061 5.48333 48.4061 5.35C48.1727 5.28333 47.9061 5.23333 47.6061 5.2C47.3061 5.13333 47.0227 5.08333 46.7561 5.05C46.6561 5.05 46.5727 5.08333 46.5061 5.15C46.3394 5.28333 46.2561 5.45 46.2561 5.65C46.2561 5.88333 46.2394 6.13333 46.2061 6.4C46.2061 6.63333 46.2061 6.88333 46.2061 7.15C46.2727 7.61667 46.2561 8 46.1561 8.3C46.1227 8.43333 46.0894 8.56666 46.0561 8.7C46.0561 8.83333 46.0727 8.98333 46.1061 9.15C46.1727 9.35 46.1561 9.53333 46.0561 9.7C45.9561 9.9 45.9561 10.1167 46.0561 10.35C46.1894 10.6167 46.2227 10.95 46.1561 11.35C46.0561 11.75 46.0561 12.15 46.1561 12.55C46.1894 12.6833 46.2061 12.8167 46.2061 12.95C46.2394 13.0833 46.2394 13.2333 46.2061 13.4C46.2061 13.7667 46.2227 14.1333 46.2561 14.5C46.3227 14.8667 46.3727 15.2333 46.4061 15.6C46.4061 15.6667 46.4394 15.7667 46.5061 15.9V16.7C46.5061 16.7667 46.4894 16.85 46.4561 16.95C46.4561 17.0167 46.4727 17.0833 46.5061 17.15C46.5727 17.4167 46.6227 17.7 46.6561 18C46.7227 18.2667 46.7894 18.5333 46.8561 18.8C46.8561 18.8667 46.8727 18.95 46.9061 19.05C46.9394 19.1167 46.9561 19.2 46.9561 19.3C46.9561 19.5333 46.9727 19.7667 47.0061 20C47.0394 20.2333 47.0727 20.4833 47.1061 20.75C47.2061 21.6833 47.3561 22.6333 47.5561 23.6C47.6561 24 47.7061 24.4167 47.7061 24.85C47.7061 24.95 47.7061 25.0667 47.7061 25.2C47.7061 25.3 47.7227 25.4 47.7561 25.5C47.8227 25.7333 47.8561 25.9667 47.8561 26.2C47.8561 26.4333 47.8561 26.6667 47.8561 26.9C47.8561 26.9667 47.8394 27.05 47.8061 27.15C47.8061 27.25 47.8227 27.3333 47.8561 27.4C47.9227 27.5667 47.9561 27.7333 47.9561 27.9C47.9561 28.0333 47.9561 28.1833 47.9561 28.35C47.9561 28.4833 47.9894 28.65 48.0561 28.85C48.0561 29.0167 48.1561 29.1 48.3561 29.1ZM71.3545 34.5C71.1545 34.5 71.0212 34.4833 70.9545 34.45C70.8212 34.3833 70.7045 34.3333 70.6045 34.3C70.5045 34.2667 70.4045 34.2333 70.3045 34.2C70.2045 34.1333 70.1045 34.0667 70.0045 34C69.9378 33.9 69.8712 33.8 69.8045 33.7C69.7378 33.6333 69.6712 33.6 69.6045 33.6C69.4045 33.6 69.3045 33.5 69.3045 33.3C69.2712 33.1 69.2378 32.9 69.2045 32.7C69.1712 32.5 69.1378 32.3 69.1045 32.1C69.0712 31.8 69.0378 31.5 69.0045 31.2C69.0045 30.9 68.9712 30.6167 68.9045 30.35V29.9C68.9045 29.7667 68.8878 29.65 68.8545 29.55C68.8545 29.45 68.8545 29.3333 68.8545 29.2C68.7878 29.0333 68.7878 28.9 68.8545 28.8C68.9212 28.2 68.9212 27.6 68.8545 27C68.8212 26.8333 68.8045 26.6667 68.8045 26.5C68.8045 26.3333 68.7878 26.1667 68.7545 26C68.7545 25.6667 68.7545 25.3333 68.7545 25C68.7545 24.6333 68.7212 24.2833 68.6545 23.95V23.15C68.6545 22.8833 68.6378 22.6333 68.6045 22.4C68.6045 22.1667 68.5878 21.9333 68.5545 21.7C68.5212 21.4 68.4878 21.1 68.4545 20.8C68.4545 20.5 68.4378 20.2 68.4045 19.9C68.3712 19.8333 68.3545 19.7167 68.3545 19.55C68.3212 19.3833 68.2878 19.2167 68.2545 19.05C68.2545 18.85 68.2545 18.6667 68.2545 18.5L68.1045 16C68.0712 15.7333 68.0378 15.4833 68.0045 15.25C68.0045 14.9833 68.0045 14.7333 68.0045 14.5C67.9712 14.1 67.9378 13.7 67.9045 13.3C67.8712 12.9 67.8378 12.5167 67.8045 12.15C67.8045 12.0833 67.7878 12.0167 67.7545 11.95C67.7545 11.8833 67.7545 11.8333 67.7545 11.8C67.7545 11.4 67.7378 11 67.7045 10.6C67.6712 10.2 67.6378 9.78333 67.6045 9.35L67.4545 7.95C67.3545 7.41667 67.3378 6.83333 67.4045 6.2C67.4045 5.9 67.5212 5.65 67.7545 5.45C67.8212 5.38333 67.8712 5.35 67.9045 5.35C67.9378 5.31667 67.9712 5.28333 68.0045 5.25C68.1712 5.21666 68.2545 5.1 68.2545 4.9C68.2545 4.83333 68.3212 4.8 68.4545 4.8H68.7045C68.7378 4.8 68.7545 4.8 68.7545 4.8C68.7878 4.76666 68.8212 4.75 68.8545 4.75C68.9212 4.71667 68.9712 4.68333 69.0045 4.65C69.0712 4.58333 69.1212 4.55 69.1545 4.55C69.2212 4.55 69.2878 4.56667 69.3545 4.6C69.4212 4.6 69.4878 4.61667 69.5545 4.65C69.6212 4.65 69.6712 4.63333 69.7045 4.6C69.8712 4.56667 70.0378 4.58333 70.2045 4.65C70.4045 4.68333 70.5712 4.73333 70.7045 4.8C70.9045 4.83333 71.0545 4.96667 71.1545 5.2C71.2545 5.5 71.3378 5.8 71.4045 6.1C71.5045 6.36667 71.5712 6.65 71.6045 6.95V7.35C71.6712 7.58333 71.7045 7.83333 71.7045 8.1C71.7045 8.33333 71.7045 8.58333 71.7045 8.85C71.7045 9.08333 71.7045 9.31667 71.7045 9.55C71.7378 9.75 71.7712 9.95 71.8045 10.15C71.8045 10.25 71.8045 10.35 71.8045 10.45C71.8045 10.55 71.8212 10.65 71.8545 10.75C71.8545 10.95 71.8545 11.15 71.8545 11.35C71.8878 11.55 71.9212 11.7667 71.9545 12C71.9878 12.3667 72.0212 12.75 72.0545 13.15C72.0878 13.55 72.1045 13.95 72.1045 14.35C72.1045 14.5167 72.1045 14.7 72.1045 14.9C72.1045 15.0667 72.1212 15.2333 72.1545 15.4C72.1878 15.5 72.2045 15.6 72.2045 15.7C72.2045 15.8 72.2045 15.9 72.2045 16V17C72.2045 17.2 72.2212 17.3667 72.2545 17.5C72.3212 17.7333 72.3378 17.9667 72.3045 18.2C72.3045 18.4 72.3212 18.6167 72.3545 18.85L72.5045 21.15C72.5378 21.4833 72.5545 21.8333 72.5545 22.2C72.5878 22.5333 72.6045 22.8833 72.6045 23.25C72.6045 23.3833 72.6045 23.5333 72.6045 23.7C72.6045 23.8333 72.6212 23.9667 72.6545 24.1C72.6878 24.2 72.7045 24.3 72.7045 24.4C72.7045 24.5 72.7045 24.6 72.7045 24.7C72.7378 24.7333 72.7378 24.8 72.7045 24.9C72.7045 24.9667 72.7212 25.0333 72.7545 25.1C72.8212 25.3333 72.8545 25.5667 72.8545 25.8C72.8545 26.0333 72.8545 26.2833 72.8545 26.55C72.8545 26.6833 72.8545 26.8333 72.8545 27C72.8878 27.1333 72.9045 27.2833 72.9045 27.45C72.9378 27.6167 72.9545 27.8 72.9545 28C72.9545 28.2 72.9545 28.3833 72.9545 28.55C72.9878 28.7167 73.0045 28.9 73.0045 29.1C73.0045 29.2667 73.0212 29.4333 73.0545 29.6C73.0878 29.6667 73.1045 29.7333 73.1045 29.8C73.1045 30.1667 73.1378 30.5333 73.2045 30.9C73.2712 31.2667 73.3378 31.6333 73.4045 32C73.4378 32.1 73.4545 32.2167 73.4545 32.35C73.4545 32.45 73.4545 32.55 73.4545 32.65C73.4545 32.75 73.4212 32.8333 73.3545 32.9C73.2212 33 73.1212 33.2 73.0545 33.5C73.0545 33.6 73.0045 33.6833 72.9045 33.75C72.6712 33.85 72.4712 33.9833 72.3045 34.15C72.0378 34.3833 71.7212 34.5 71.3545 34.5ZM84.6291 34.35C84.4291 34.35 84.2958 34.3333 84.2291 34.3C84.0624 34.2333 83.8958 34.2 83.7291 34.2C83.5958 34.2333 83.4458 34.25 83.2791 34.25C83.2458 34.25 83.2124 34.25 83.1791 34.25C83.1458 34.2833 83.1124 34.3 83.0791 34.3C82.8458 34.3333 82.6124 34.35 82.3791 34.35C82.1791 34.35 81.9791 34.3167 81.7791 34.25C81.7458 34.2167 81.7124 34.2 81.6791 34.2C81.4458 34.2333 81.2458 34.1667 81.0791 34C80.9124 33.8333 80.7458 33.6833 80.5791 33.55C80.4124 33.3833 80.3291 33.2 80.3291 33L80.1791 32.6C80.0791 32.3667 80.0458 32.15 80.0791 31.95C80.1124 31.8833 80.1124 31.8167 80.0791 31.75C80.0791 31.6833 80.0791 31.6167 80.0791 31.55C80.0458 31.4833 80.0291 31.4167 80.0291 31.35C80.0291 31.25 80.0124 31.1667 79.9791 31.1C79.9124 30.8 79.8624 30.5 79.8291 30.2C79.8291 29.8667 79.8458 29.55 79.8791 29.25C79.9124 29.05 80.0291 28.7167 80.2291 28.25C80.4291 27.75 80.5458 27.45 80.5791 27.35C80.6791 27.1833 80.7291 27.05 80.7291 26.95C80.6958 26.5833 80.6791 26.2167 80.6791 25.85C80.7124 25.45 80.7291 25.0667 80.7291 24.7C80.7291 24.4667 80.7791 24.2833 80.8791 24.15C81.0124 23.9167 81.0291 23.6667 80.9291 23.4L80.7791 22.85C80.5791 22.4833 80.5958 22.1667 80.8291 21.9C80.8291 21.8667 80.8291 21.85 80.8291 21.85C80.8624 21.8167 80.8791 21.7833 80.8791 21.75C80.9458 21.6833 80.9624 21.6 80.9291 21.5C80.8958 21.3667 80.8791 21.2667 80.8791 21.2C80.8791 21.0667 80.8958 20.9333 80.9291 20.8C80.9958 20.6333 81.0124 20.4833 80.9791 20.35C80.9791 20.35 80.9458 20.3167 80.8791 20.25C80.8458 20.1833 80.8291 20.05 80.8291 19.85C80.8624 19.65 80.8791 19.5333 80.8791 19.5V18.1C80.9124 17.9333 80.9291 17.7833 80.9291 17.65C80.9291 17.4833 80.9458 17.3167 80.9791 17.15C81.0124 16.95 81.0124 16.75 80.9791 16.55C80.9791 16.3167 80.9791 16.0833 80.9791 15.85C80.9458 15.6833 80.9124 15.5 80.8791 15.3C80.8791 15.1 80.8791 14.9 80.8791 14.7C80.8458 14.6333 80.8291 14.55 80.8291 14.45C80.8291 14.35 80.8291 14.2667 80.8291 14.2C80.7958 14.0333 80.7624 13.8667 80.7291 13.7C80.7291 13.5333 80.7291 13.3667 80.7291 13.2C80.7291 13.1333 80.6624 12.9167 80.5291 12.55C80.3958 12.15 80.3458 11.8167 80.3791 11.55C80.4124 11.4833 80.4291 11.4 80.4291 11.3C80.4291 11.2 80.3958 11.1167 80.3291 11.05C80.2624 11.0167 80.2291 10.95 80.2291 10.85V10.7C80.3291 10.3 80.2791 9.9 80.0791 9.5C79.9458 9.3 79.8958 9.1 79.9291 8.9C79.9291 8.63333 79.8124 8.43333 79.5791 8.3C79.4124 8.13333 79.2624 7.93333 79.1291 7.7C78.9958 7.46666 78.9124 7.23333 78.8791 7C78.8458 6.83333 78.8291 6.66667 78.8291 6.5C78.8291 6.33333 78.8291 6.18333 78.8291 6.05C78.8291 5.91667 78.8458 5.83333 78.8791 5.8C79.0124 5.66667 79.0791 5.51667 79.0791 5.35C79.0791 5.15 79.0958 5 79.1291 4.9C79.1624 4.86667 79.1958 4.85 79.2291 4.85C79.2624 4.85 79.2958 4.83333 79.3291 4.8C79.4624 4.76666 79.5291 4.65 79.5291 4.45C79.4624 4.31667 79.4291 4.2 79.4291 4.1C79.3958 3.96666 79.4458 3.85 79.5791 3.75C79.6458 3.61667 79.7291 3.58333 79.8291 3.65C80.0624 3.75 80.3291 3.71667 80.6291 3.55C80.7624 3.48333 80.8458 3.45 80.8791 3.45C80.9791 3.45 81.0291 3.45 81.0291 3.45C81.0624 3.41667 81.1624 3.4 81.3291 3.4C81.5291 3.43333 81.7124 3.36667 81.8791 3.2C82.1124 2.96666 82.3958 2.85 82.7291 2.85H85.8291C86.5958 2.88333 87.3624 2.88333 88.1291 2.85C88.8958 2.81667 89.6458 2.8 90.3791 2.8C90.5458 2.8 90.6791 2.8 90.7791 2.8C90.9124 2.76667 91.0458 2.73333 91.1791 2.7C91.3791 2.6 91.6124 2.55 91.8791 2.55H93.0291C93.2958 2.55 93.5291 2.55 93.7291 2.55C93.9624 2.51666 94.1958 2.48333 94.4291 2.45C94.5624 2.41666 94.6791 2.4 94.7791 2.4C94.9124 2.4 95.0458 2.4 95.1791 2.4C95.3124 2.4 95.4458 2.4 95.5791 2.4C95.7124 2.4 95.8458 2.38333 95.9791 2.35C96.2458 2.31667 96.5291 2.3 96.8291 2.3C97.1291 2.26666 97.4124 2.25 97.6791 2.25C97.8124 2.25 97.9291 2.25 98.0291 2.25C98.1624 2.21666 98.2958 2.18333 98.4291 2.15C98.6958 2.08333 98.9458 2.05 99.1791 2.05C99.4458 2.01666 99.6958 1.98333 99.9291 1.95C100.196 1.91667 100.446 1.88333 100.679 1.85C100.946 1.81666 101.196 1.78333 101.429 1.75C101.729 1.75 101.946 1.78333 102.079 1.85C102.279 1.98333 102.462 2.1 102.629 2.2C102.829 2.3 103.012 2.43333 103.179 2.6C103.312 2.73333 103.396 2.85 103.429 2.95C103.462 3.08333 103.496 3.21666 103.529 3.35C103.562 3.48333 103.596 3.63333 103.629 3.8V4.15C103.596 4.31667 103.562 4.5 103.529 4.7C103.529 4.86667 103.512 5.05 103.479 5.25C103.412 5.38333 103.329 5.5 103.229 5.6L102.329 6.5C101.996 6.6 101.662 6.66666 101.329 6.7C101.029 6.73333 100.712 6.73333 100.379 6.7H100.029C99.8624 6.73333 99.6958 6.75 99.5291 6.75C99.3624 6.75 99.1958 6.73333 99.0291 6.7C98.8291 6.66666 98.6291 6.66666 98.4291 6.7C98.2291 6.7 98.0291 6.7 97.8291 6.7C97.6958 6.7 97.5624 6.71667 97.4291 6.75C97.3291 6.75 97.2124 6.73333 97.0791 6.7C96.9124 6.66666 96.7458 6.66666 96.5791 6.7C96.4458 6.7 96.2958 6.71667 96.1291 6.75C95.9958 6.75 95.8458 6.76667 95.6791 6.8C95.5458 6.8 95.3958 6.8 95.2291 6.8C94.7958 6.86666 94.3291 6.9 93.8291 6.9C93.3624 6.9 92.8958 6.93333 92.4291 7C92.1291 6.96667 91.8458 6.98333 91.5791 7.05C91.3124 7.08333 91.0291 7.11667 90.7291 7.15C90.4624 7.18333 90.1791 7.2 89.8791 7.2C89.5791 7.2 89.2958 7.23333 89.0291 7.3C88.6958 7.3 88.3624 7.35 88.0291 7.45C87.7291 7.51666 87.4124 7.56667 87.0791 7.6L86.7291 7.65C86.4958 7.65 86.2791 7.68333 86.0791 7.75C85.8791 7.78333 85.6624 7.83333 85.4291 7.9C85.2958 7.93333 85.1624 7.96667 85.0291 8C84.8958 8 84.7458 8.01666 84.5791 8.05C84.4791 8.05 84.3624 8.08333 84.2291 8.15C84.1291 8.18333 84.0791 8.28333 84.0791 8.45L84.2291 8.9C84.2624 8.96667 84.2458 9.13333 84.1791 9.4C84.1458 9.66667 84.1124 9.86667 84.0791 10C84.0791 10.1 84.0958 10.2 84.1291 10.3C84.1624 10.4 84.1958 10.5 84.2291 10.6C84.3291 10.8667 84.3791 11.1667 84.3791 11.5C84.3791 11.8 84.4124 12.0833 84.4791 12.35C84.5124 12.4833 84.5291 12.6333 84.5291 12.8C84.5291 12.9333 84.5458 13.0833 84.5791 13.25C84.5791 13.3167 84.5791 13.4 84.5791 13.5C84.6124 13.5667 84.6291 13.65 84.6291 13.75C84.6291 13.85 84.6124 13.9167 84.5791 13.95C84.4791 14.0833 84.4291 14.2333 84.4291 14.4C84.4291 14.5667 84.4291 14.7333 84.4291 14.9C84.5958 15.2333 84.6791 15.5667 84.6791 15.9C84.6791 16.2333 84.6791 16.5667 84.6791 16.9C84.6791 17 84.7624 17.0333 84.9291 17H84.9791C85.0458 16.8667 85.1124 16.7667 85.1791 16.7C85.2791 16.7 85.3958 16.6667 85.5291 16.6C85.6291 16.5333 85.7624 16.5 85.9291 16.5C86.1958 16.5333 86.4458 16.5333 86.6791 16.5C86.9124 16.4333 87.1458 16.3667 87.3791 16.3C88.9458 15.9 90.4124 15.3833 91.7791 14.75C92.1458 14.5833 92.5291 14.45 92.9291 14.35C93.3291 14.2167 93.7291 14.1333 94.1291 14.1H94.2791C94.5791 14.0667 94.8791 14.0333 95.1791 14C95.4791 13.9667 95.7791 13.95 96.0791 13.95C96.4791 13.9167 96.8624 13.8667 97.2291 13.8C97.6291 13.7333 98.0291 13.6833 98.4291 13.65C98.6624 13.5833 98.8791 13.5333 99.0791 13.5C99.2791 13.4333 99.4958 13.35 99.7291 13.25C100.162 13.0833 100.562 13 100.929 13C101.196 13.0333 101.446 13.1 101.679 13.2C101.912 13.2667 102.146 13.3667 102.379 13.5C102.879 13.8333 103.129 14.3333 103.129 15C103.129 15.2667 103.096 15.5333 103.029 15.8C102.996 16.0667 102.979 16.3333 102.979 16.6C102.979 16.6667 102.946 16.7333 102.879 16.8L102.729 17.05C102.696 17.1833 102.662 17.3167 102.629 17.45C102.596 17.5833 102.512 17.6833 102.379 17.75C102.179 17.9167 101.962 18.1 101.729 18.3C101.529 18.4667 101.296 18.5833 101.029 18.65C100.896 18.6833 100.762 18.7167 100.629 18.75C100.529 18.7833 100.412 18.8 100.279 18.8C99.7458 18.8 99.1958 18.8333 98.6291 18.9C98.0958 18.9667 97.5458 19.0333 96.9791 19.1C96.5458 19.1333 96.1124 19.1833 95.6791 19.25C95.2791 19.3167 94.8624 19.35 94.4291 19.35C94.0291 19.35 93.5791 19.4333 93.0791 19.6C92.7458 19.6667 92.3958 19.7333 92.0291 19.8C91.6624 19.8667 91.2958 19.9167 90.9291 19.95C90.6624 19.9833 90.3791 20.0333 90.0791 20.1C89.8124 20.1333 89.5458 20.1667 89.2791 20.2L88.4291 20.35C88.3624 20.3833 88.2624 20.4 88.1291 20.4C87.8958 20.4667 87.6624 20.5167 87.4291 20.55C87.1958 20.5833 86.9624 20.6333 86.7291 20.7C86.4958 20.7333 86.2624 20.7833 86.0291 20.85C85.8291 20.9167 85.6124 20.9833 85.3791 21.05C85.2124 21.0833 85.0791 21.15 84.9791 21.25C84.8791 21.3167 84.7958 21.4167 84.7291 21.55C84.6958 21.65 84.6958 21.75 84.7291 21.85C84.7624 21.9833 84.7458 22.1167 84.6791 22.25C84.7124 22.5833 84.7291 22.9167 84.7291 23.25C84.7624 23.5833 84.7624 23.9167 84.7291 24.25C84.7958 24.5167 84.8124 24.7833 84.7791 25.05C84.7791 25.3167 84.7624 25.5833 84.7291 25.85C84.6624 26.25 84.6791 26.5833 84.7791 26.85C84.8791 27.2833 84.8458 27.7333 84.6791 28.2C84.6124 28.4 84.6124 28.5333 84.6791 28.6C84.7458 28.7 84.7458 28.8167 84.6791 28.95V29.25C84.6458 29.5167 84.7624 29.65 85.0291 29.65H85.1291C85.3624 29.65 85.5958 29.7333 85.8291 29.9C85.9958 30.0667 86.1958 30.1167 86.4291 30.05L87.8291 29.9C88.0291 29.8667 88.2291 29.85 88.4291 29.85C88.6291 29.8167 88.8291 29.8 89.0291 29.8C89.0958 29.7667 89.1958 29.7833 89.3291 29.85C89.4958 29.95 89.6458 29.9667 89.7791 29.9C89.8458 29.8333 89.9291 29.7833 90.0291 29.75C90.1624 29.7167 90.2624 29.6667 90.3291 29.6C90.5291 29.4 90.7791 29.3333 91.0791 29.4C91.3458 29.4667 91.5624 29.45 91.7291 29.35C92.0291 29.25 92.3124 29.2167 92.5791 29.25C92.7458 29.2833 92.9124 29.2667 93.0791 29.2C93.2458 29.1333 93.4124 29.1 93.5791 29.1C93.6458 29.1 93.6958 29.1167 93.7291 29.15C93.7624 29.15 93.7958 29.1333 93.8291 29.1C93.8958 29.1 93.9624 29.0833 94.0291 29.05C94.0958 29.0167 94.1458 29 94.1791 29C94.4124 28.9 94.6291 28.8667 94.8291 28.9C94.9958 28.9 95.0791 28.9 95.0791 28.9C95.2124 28.8667 95.3291 28.8667 95.4291 28.9C95.5624 28.9333 95.6791 28.9833 95.7791 29.05C95.9458 29.0833 96.0791 29.1333 96.1791 29.2C96.3124 29.2667 96.4458 29.3167 96.5791 29.35C96.6458 29.35 96.6958 29.3667 96.7291 29.4C96.8958 29.5333 97.0958 29.65 97.3291 29.75C97.5958 29.85 97.7458 29.9667 97.7791 30.1C97.8458 30.3 97.8791 30.5 97.8791 30.7C97.8791 30.8667 97.8958 31.05 97.9291 31.25C97.9291 31.35 97.9124 31.45 97.8791 31.55C97.8791 31.65 97.8624 31.75 97.8291 31.85C97.7624 31.9833 97.6791 32.1333 97.5791 32.3C97.5124 32.4667 97.4124 32.6167 97.2791 32.75C97.2124 32.8167 97.1458 32.8833 97.0791 32.95C97.0458 33.0167 96.9958 33.0833 96.9291 33.15C96.7958 33.2833 96.6458 33.4 96.4791 33.5C96.3124 33.6 96.1291 33.65 95.9291 33.65C95.7958 33.65 95.6958 33.6667 95.6291 33.7C95.4958 33.7667 95.3624 33.8 95.2291 33.8C95.0958 33.8 94.9458 33.8 94.7791 33.8C94.5458 33.8333 94.3124 33.8667 94.0791 33.9C93.8791 33.9 93.6624 33.8833 93.4291 33.85C93.2958 33.8167 93.1791 33.8167 93.0791 33.85C92.7458 33.95 92.4124 33.9667 92.0791 33.9C91.7458 33.9 91.4124 33.9167 91.0791 33.95C90.7791 33.95 90.4791 33.95 90.1791 33.95H89.5291C89.4291 33.95 89.3458 33.9667 89.2791 34C89.1458 34.0667 88.9791 34.1 88.7791 34.1C88.6124 34.1 88.4458 34.0833 88.2791 34.05H87.7791C87.7458 34.05 87.6958 34.05 87.6291 34.05C87.5624 34.0833 87.4958 34.0833 87.4291 34.05C87.3291 34.0167 87.2291 34 87.1291 34C87.0624 34.0333 86.9791 34.0667 86.8791 34.1C86.8124 34.1 86.7458 34.1 86.6791 34.1C86.6458 34.1333 86.5958 34.15 86.5291 34.15C86.1958 34.1167 85.8791 34.1167 85.5791 34.15C85.2791 34.2167 84.9624 34.2833 84.6291 34.35Z" fill="#353535"/>
</svg>
