<svg width="81" height="24" viewBox="0 0 81 24" fill="none" xmlns="http://www.w3.org/2000/svg">
<path d="M7.1741 21.6C7.0941 21.56 7.0241 21.54 6.9641 21.54C6.8841 21.56 6.8141 21.54 6.7541 21.48C6.6741 21.4 6.6141 21.35 6.5741 21.33L5.1641 20.61C5.0841 20.57 5.0041 20.53 4.9241 20.49C4.8441 20.45 4.7541 20.42 4.6541 20.4C4.3941 20.3 4.1241 20.21 3.8441 20.13C3.5841 20.05 3.3241 19.96 3.0641 19.86C2.9241 19.8 2.7741 19.73 2.6141 19.65C2.4741 19.57 2.3341 19.48 2.1941 19.38C2.0541 19.28 1.9141 19.17 1.7741 19.05C1.6541 18.91 1.5441 18.76 1.4441 18.6L1.2641 18.33C1.1441 18.11 1.0541 17.89 0.994102 17.67C0.954102 17.45 0.924102 17.23 0.904102 17.01C0.884102 16.77 0.884102 16.54 0.904102 16.32C0.944102 16.08 0.984102 15.85 1.0241 15.63L1.2041 14.64C1.2441 14.44 1.2941 14.25 1.3541 14.07C1.4141 13.89 1.4841 13.71 1.5641 13.53C1.6041 13.43 1.6541 13.35 1.7141 13.29C1.8741 13.19 2.0041 13.09 2.1041 12.99C2.1641 12.93 2.2541 12.91 2.3741 12.93C2.4741 12.95 2.5741 12.91 2.6741 12.81L2.7941 12.69C2.8141 12.67 2.8641 12.66 2.9441 12.66C3.0041 12.66 3.0641 12.66 3.1241 12.66C3.1841 12.66 3.2441 12.67 3.3041 12.69C3.3441 12.69 3.3841 12.71 3.4241 12.75C3.5041 12.83 3.6041 12.87 3.7241 12.87C3.8041 12.91 3.8441 12.96 3.8441 13.02C3.8641 13.04 3.8741 13.06 3.8741 13.08C3.8741 13.1 3.8841 13.12 3.9041 13.14C3.9041 13.2 3.9441 13.23 4.0241 13.23C4.1641 13.23 4.2441 13.29 4.2641 13.41V13.65C4.3641 13.77 4.4241 13.89 4.4441 14.01C4.4841 14.21 4.4741 14.38 4.4141 14.52L4.3241 14.76C4.2641 14.86 4.2241 14.98 4.2041 15.12C4.1841 15.24 4.1641 15.36 4.1441 15.48C4.1241 15.74 4.1241 15.99 4.1441 16.23C4.1641 16.29 4.1741 16.36 4.1741 16.44C4.1741 16.5 4.1841 16.56 4.2041 16.62C4.2041 16.8 4.2841 16.94 4.4441 17.04C4.5041 17.08 4.5641 17.13 4.6241 17.19C4.7041 17.23 4.7841 17.27 4.8641 17.31C5.0241 17.37 5.1841 17.44 5.3441 17.52C5.5041 17.58 5.6641 17.64 5.8241 17.7C5.8841 17.72 5.9441 17.74 6.0041 17.76C6.0641 17.78 6.1241 17.79 6.1841 17.79C6.5241 17.85 6.8741 17.96 7.2341 18.12L7.5041 18.21C7.7041 18.27 7.8941 18.22 8.0741 18.06C8.1741 17.96 8.2741 17.87 8.3741 17.79C8.4741 17.69 8.5641 17.59 8.6441 17.49C9.1241 16.95 9.4541 16.34 9.6341 15.66C9.7141 15.4 9.7741 15.14 9.8141 14.88C9.8741 14.62 9.9241 14.36 9.9641 14.1C10.0041 13.84 10.0241 13.59 10.0241 13.35C10.0441 13.09 10.0541 12.83 10.0541 12.57V11.28C10.0341 11.2 10.0241 11.13 10.0241 11.07C10.0241 10.99 10.0141 10.91 9.9941 10.83C9.9941 10.79 9.9841 10.75 9.9641 10.71C9.9641 10.67 9.9641 10.64 9.9641 10.62C9.9641 10.34 9.9441 10.06 9.9041 9.78C9.8841 9.5 9.8641 9.23 9.8441 8.97C9.8441 8.89 9.8341 8.81 9.8141 8.73C9.8141 8.65 9.8041 8.57 9.7841 8.49C9.7841 8.45 9.7741 8.41 9.7541 8.37C9.7541 8.31 9.7541 8.26 9.7541 8.22C9.7341 7.94 9.6941 7.66 9.6341 7.38C9.5941 7.1 9.5541 6.83 9.5141 6.57C9.4741 6.25 9.4141 5.94 9.3341 5.64C9.2741 5.34 9.2041 5.03 9.1241 4.71C9.0641 4.47 9.0241 4.23 9.0041 3.99C8.9841 3.73 8.9541 3.47 8.9141 3.21C8.9141 3.15 8.9241 3.1 8.9441 3.06C8.9841 2.96 9.0341 2.85 9.0941 2.73C9.1541 2.59 9.2041 2.51 9.2441 2.49C9.2841 2.45 9.3041 2.43 9.3041 2.43C9.3641 2.35 9.4441 2.32 9.5441 2.34C9.6641 2.34 9.7441 2.3 9.7841 2.22C9.7841 2.22 9.7941 2.19 9.8141 2.13C9.8541 2.07 9.9141 2.07 9.9941 2.13C10.0341 2.15 10.0841 2.17 10.1441 2.19C10.2041 2.21 10.2541 2.22 10.2941 2.22C10.3341 2.22 10.3741 2.2 10.4141 2.16C10.5341 2.12 10.8241 2.26 11.2841 2.58L11.3441 2.64C11.3441 2.66 11.3941 2.77 11.4941 2.97C11.6141 3.15 11.6841 3.29 11.7041 3.39C11.9441 4.17 12.1541 5 12.3341 5.88L12.4241 6.33C12.4641 6.71 12.5241 7.08 12.6041 7.44C12.6841 7.8 12.7441 8.17 12.7841 8.55C12.8241 8.81 12.8541 9.07 12.8741 9.33C12.8941 9.57 12.9241 9.81 12.9641 10.05C13.0041 10.25 13.0341 10.46 13.0541 10.68C13.0741 10.9 13.0941 11.12 13.1141 11.34C13.1541 11.48 13.1741 11.64 13.1741 11.82C13.1741 12 13.1841 12.17 13.2041 12.33C13.2041 12.41 13.2041 12.51 13.2041 12.63C13.2041 12.73 13.1941 12.83 13.1741 12.93C13.1541 13.07 13.1441 13.21 13.1441 13.35C13.1441 13.47 13.1441 13.6 13.1441 13.74C13.1441 13.98 13.1241 14.22 13.0841 14.46C13.0641 14.68 13.0341 14.9 12.9941 15.12C12.9541 15.44 12.8941 15.76 12.8141 16.08C12.7341 16.38 12.6441 16.69 12.5441 17.01L12.3341 17.58C12.0941 18.1 11.8141 18.6 11.4941 19.08C11.3341 19.32 11.1541 19.52 10.9541 19.68C10.7941 19.82 10.6241 19.97 10.4441 20.13C10.2841 20.27 10.1241 20.41 9.9641 20.55C9.7641 20.71 9.5441 20.86 9.3041 21C9.0841 21.14 8.8541 21.27 8.6141 21.39C8.5941 21.41 8.5641 21.42 8.5241 21.42C8.5041 21.42 8.4741 21.43 8.4341 21.45C8.3141 21.45 8.1941 21.46 8.0741 21.48C7.9541 21.52 7.8341 21.56 7.7141 21.6C7.6341 21.62 7.5441 21.63 7.4441 21.63C7.3641 21.63 7.2741 21.62 7.1741 21.6ZM28.0548 23.19C27.8748 23.19 27.7148 23.12 27.5748 22.98C27.5348 22.92 27.4948 22.86 27.4548 22.8C27.4148 22.74 27.3748 22.68 27.3348 22.62C27.1548 22.2 27.0648 21.76 27.0648 21.3L26.9748 20.58C26.9148 20.3 26.8648 20.02 26.8248 19.74C26.7848 19.46 26.7148 19.19 26.6148 18.93L26.4348 18.42C26.4348 18.38 26.4248 18.34 26.4048 18.3C26.4048 18.26 26.3948 18.22 26.3748 18.18L25.9248 16.59C25.9048 16.55 25.8848 16.5 25.8648 16.44C25.8648 16.38 25.8448 16.33 25.8048 16.29C25.7448 16.17 25.6948 16.05 25.6548 15.93C25.6348 15.79 25.6048 15.65 25.5648 15.51C25.5448 15.41 25.5248 15.32 25.5048 15.24C25.4848 15.14 25.4548 15.04 25.4148 14.94C25.3748 14.82 25.3348 14.75 25.2948 14.73C25.2548 14.69 25.1648 14.69 25.0248 14.73C24.9248 14.75 24.8148 14.77 24.6948 14.79C24.5948 14.79 24.4948 14.81 24.3948 14.85C24.3148 14.87 24.2148 14.89 24.0948 14.91C23.9948 14.91 23.8948 14.92 23.7948 14.94L23.3748 15.03C23.2748 15.05 23.1648 15.08 23.0448 15.12C22.9448 15.14 22.8448 15.15 22.7448 15.15L22.2048 15.24C22.0448 15.28 21.8748 15.32 21.6948 15.36C21.5148 15.4 21.3448 15.44 21.1848 15.48C20.7048 15.6 20.2248 15.69 19.7448 15.75C19.5848 15.79 19.4948 15.86 19.4748 15.96C19.4548 15.96 19.4448 15.97 19.4448 15.99C19.3248 16.31 19.1848 16.63 19.0248 16.95C18.8848 17.25 18.7348 17.56 18.5748 17.88C18.5348 17.96 18.4948 18.04 18.4548 18.12C18.4348 18.18 18.4048 18.25 18.3648 18.33C18.3448 18.37 18.3248 18.42 18.3048 18.48C18.2848 18.52 18.2648 18.56 18.2448 18.6C18.1248 18.74 18.0648 18.91 18.0648 19.11C18.0448 19.23 18.0048 19.35 17.9448 19.47C17.8848 19.57 17.8248 19.67 17.7648 19.77C17.7448 19.83 17.7048 19.86 17.6448 19.86C17.5648 19.88 17.4848 19.91 17.4048 19.95C17.3248 19.99 17.2348 20.03 17.1348 20.07C17.0748 20.09 17.0148 20.09 16.9548 20.07C16.9148 20.05 16.8648 20.03 16.8048 20.01C16.7648 19.97 16.7248 19.95 16.6848 19.95C16.4648 19.93 16.3048 19.8 16.2048 19.56C16.0448 19.24 15.9348 18.92 15.8748 18.6C15.8548 18.52 15.8548 18.45 15.8748 18.39C15.9148 18.33 15.9448 18.27 15.9648 18.21C16.0848 18.13 16.1548 18.04 16.1748 17.94V17.91C16.1748 17.65 16.2248 17.41 16.3248 17.19C16.4448 16.95 16.5448 16.72 16.6248 16.5C16.6648 16.38 16.7148 16.26 16.7748 16.14C16.8348 16.02 16.8948 15.9 16.9548 15.78C17.0348 15.64 17.0948 15.51 17.1348 15.39C17.1948 15.25 17.2448 15.11 17.2848 14.97C17.3448 14.81 17.3448 14.66 17.2848 14.52C17.2448 14.4 17.2248 14.29 17.2248 14.19C17.2248 14.07 17.2348 13.95 17.2548 13.83C17.2548 13.61 17.3348 13.42 17.4948 13.26C17.5748 13.16 17.6548 13.08 17.7348 13.02C17.8348 12.94 17.9248 12.86 18.0048 12.78C18.1848 12.6 18.3248 12.36 18.4248 12.06C18.5048 11.8 18.5648 11.54 18.6048 11.28C18.6648 11 18.7248 10.73 18.7848 10.47C18.8248 10.21 18.8648 9.96 18.9048 9.72C18.9648 9.46 19.0248 9.21 19.0848 8.97C19.1048 8.87 19.1248 8.78 19.1448 8.7C19.1848 8.6 19.2148 8.51 19.2348 8.43C19.2948 8.27 19.3548 8.12 19.4148 7.98C19.4748 7.82 19.5148 7.66 19.5348 7.5C19.5748 7.42 19.5748 7.35 19.5348 7.29C19.5148 7.19 19.5148 7.1 19.5348 7.02C19.5748 6.94 19.6048 6.86 19.6248 6.78C19.6848 6.64 19.7248 6.5 19.7448 6.36C19.7848 6.22 19.8348 6.08 19.8948 5.94C19.9948 5.68 20.0748 5.47 20.1348 5.31C20.2148 5.13 20.2848 4.93 20.3448 4.71C20.3848 4.59 20.4248 4.48 20.4648 4.38C20.5248 4.26 20.5648 4.14 20.5848 4.02C20.6448 3.84 20.6948 3.66 20.7348 3.48C20.7748 3.28 20.7948 3.09 20.7948 2.91C20.8348 2.75 20.8748 2.64 20.9148 2.58C21.0148 2.38 21.1348 2.21 21.2748 2.07C21.4348 1.93 21.5848 1.79 21.7248 1.65C21.8248 1.59 21.9248 1.55 22.0248 1.53C22.1248 1.49 22.2248 1.5 22.3248 1.56C22.4048 1.6 22.4548 1.62 22.4748 1.62C22.6548 1.6 22.8048 1.64 22.9248 1.74C23.0448 1.84 23.1448 1.96 23.2248 2.1C23.2648 2.14 23.2948 2.19 23.3148 2.25C23.3348 2.31 23.3548 2.36 23.3748 2.4C23.4748 2.56 23.5248 2.72 23.5248 2.88C23.5248 2.96 23.5348 3.05 23.5548 3.15C23.5748 3.23 23.5948 3.32 23.6148 3.42C23.6748 3.54 23.7648 3.6 23.8848 3.6C23.9048 3.58 23.9248 3.58 23.9448 3.6C23.9648 3.62 23.9748 3.64 23.9748 3.66C24.0748 3.78 24.1048 3.91 24.0648 4.05C24.0248 4.21 24.0148 4.37 24.0348 4.53C24.0748 4.67 24.1148 4.82 24.1548 4.98C24.2348 5.18 24.3148 5.38 24.3948 5.58C24.4748 5.78 24.5548 5.98 24.6348 6.18C24.7348 6.4 24.8348 6.62 24.9348 6.84C25.0348 7.06 25.1248 7.28 25.2048 7.5C25.3048 7.78 25.4048 8.06 25.5048 8.34C25.6248 8.62 25.7548 8.9 25.8948 9.18L25.9848 9.51C26.0048 9.59 26.0248 9.67 26.0448 9.75C26.0848 9.83 26.1148 9.91 26.1348 9.99C26.1748 10.05 26.2048 10.11 26.2248 10.17C26.2648 10.23 26.3048 10.28 26.3448 10.32C26.4448 10.46 26.5048 10.61 26.5248 10.77C26.5848 10.97 26.6748 11.15 26.7948 11.31C26.8348 11.37 26.8948 11.4 26.9748 11.4C27.2748 11.36 27.5748 11.33 27.8748 11.31C28.1748 11.27 28.4748 11.21 28.7748 11.13C28.9948 11.07 29.2048 11.04 29.4048 11.04C29.7848 11.04 30.1348 11.17 30.4548 11.43C30.8348 11.73 31.0348 12.11 31.0548 12.57C31.0548 12.67 31.0648 12.75 31.0848 12.81C31.0848 12.95 31.0448 13.06 30.9648 13.14C30.9448 13.2 30.9048 13.26 30.8448 13.32C30.8048 13.38 30.7648 13.44 30.7248 13.5C30.6848 13.58 30.6448 13.64 30.6048 13.68L30.4248 13.83C30.4048 13.87 30.3748 13.92 30.3348 13.98C30.2948 14.02 30.2448 14.05 30.1848 14.07C30.1048 14.09 30.0248 14.12 29.9448 14.16C29.8648 14.18 29.7748 14.19 29.6748 14.19C29.3148 14.23 28.9948 14.22 28.7148 14.16H28.2348C28.1948 14.16 28.1348 14.18 28.0548 14.22C27.9748 14.26 27.9348 14.31 27.9348 14.37V14.49C27.9948 14.67 28.0348 14.86 28.0548 15.06C28.0948 15.24 28.1548 15.41 28.2348 15.57C28.2348 15.65 28.2548 15.73 28.2948 15.81C28.3948 15.99 28.4748 16.18 28.5348 16.38C28.5948 16.56 28.6448 16.75 28.6848 16.95C28.6848 16.99 28.7048 17.07 28.7448 17.19C28.8048 17.33 28.8548 17.48 28.8948 17.64C28.9348 17.78 28.9648 17.93 28.9848 18.09C28.9848 18.21 29.0148 18.32 29.0748 18.42C29.1548 18.6 29.2148 18.78 29.2548 18.96C29.2948 19.14 29.3248 19.33 29.3448 19.53C29.3648 19.55 29.3748 19.59 29.3748 19.65C29.3748 19.69 29.3848 19.73 29.4048 19.77C29.5048 19.99 29.5748 20.23 29.6148 20.49C29.6548 20.73 29.7048 20.97 29.7648 21.21C29.8048 21.33 29.8248 21.45 29.8248 21.57C29.8448 21.71 29.8548 21.85 29.8548 21.99C29.8548 22.09 29.8248 22.2 29.7648 22.32C29.7048 22.38 29.6748 22.41 29.6748 22.41C29.5548 22.43 29.4848 22.5 29.4648 22.62L29.3748 22.8C29.3348 22.88 29.2748 22.93 29.1948 22.95C29.1148 22.95 29.0448 22.98 28.9848 23.04C28.9048 23.12 28.7948 23.16 28.6548 23.16C28.5748 23.16 28.4748 23.16 28.3548 23.16C28.2548 23.16 28.1548 23.17 28.0548 23.19ZM20.8248 12.3C20.9448 12.28 21.0648 12.26 21.1848 12.24C21.3248 12.22 21.4748 12.2 21.6348 12.18C21.7348 12.16 21.8648 12.14 22.0248 12.12C22.1848 12.1 22.3348 12.08 22.4748 12.06C22.6148 12.02 22.7548 12 22.8948 12C23.0348 11.98 23.1748 11.96 23.3148 11.94C23.4348 11.9 23.5548 11.88 23.6748 11.88C23.7948 11.86 23.9148 11.84 24.0348 11.82C24.2148 11.78 24.2848 11.68 24.2448 11.52C24.2248 11.36 24.1848 11.2 24.1248 11.04C24.0848 10.86 23.9948 10.71 23.8548 10.59C23.8148 10.55 23.7948 10.49 23.7948 10.41V10.32C23.7548 10.16 23.7048 10.01 23.6448 9.87C23.6048 9.71 23.5548 9.56 23.4948 9.42C23.4548 9.26 23.4048 9.12 23.3448 9C23.3048 8.86 23.2548 8.72 23.1948 8.58L22.8348 7.5C22.7748 7.36 22.7148 7.22 22.6548 7.08C22.6148 6.94 22.5748 6.8 22.5348 6.66L22.4448 6.54H22.3548L22.2948 6.63C22.1948 6.93 22.0748 7.23 21.9348 7.53C21.8148 7.83 21.7048 8.15 21.6048 8.49C21.6048 8.53 21.5948 8.58 21.5748 8.64C21.5548 8.7 21.5348 8.76 21.5148 8.82C21.4348 9.02 21.3548 9.24 21.2748 9.48C21.2148 9.72 21.1648 9.96 21.1248 10.2C21.1048 10.34 21.0848 10.48 21.0648 10.62C21.0448 10.74 21.0148 10.87 20.9748 11.01L20.7048 12.18C20.6848 12.2 20.6948 12.23 20.7348 12.27C20.7748 12.29 20.8048 12.3 20.8248 12.3ZM36.7035 21.42C36.5635 21.42 36.3935 21.37 36.1935 21.27C36.0935 21.21 36.0135 21.13 35.9535 21.03C35.9335 20.97 35.8835 20.97 35.8035 21.03C35.7435 21.07 35.6935 21.07 35.6535 21.03C35.5935 20.97 35.5335 20.93 35.4735 20.91C35.3935 20.91 35.3535 20.88 35.3535 20.82C35.3535 20.76 35.3435 20.71 35.3235 20.67C35.3235 20.61 35.3035 20.56 35.2635 20.52C35.1435 20.48 35.0635 20.38 35.0235 20.22C35.0035 20.16 34.9835 20.11 34.9635 20.07C34.9435 20.01 34.9135 19.95 34.8735 19.89C34.8335 19.81 34.8135 19.74 34.8135 19.68C34.7935 19.62 34.7735 19.57 34.7535 19.53C34.7535 19.47 34.7335 19.41 34.6935 19.35C34.6735 19.21 34.6335 19.08 34.5735 18.96C34.5135 18.84 34.4635 18.71 34.4235 18.57C34.3835 18.49 34.3635 18.38 34.3635 18.24C34.3635 17.88 34.4235 17.55 34.5435 17.25C34.6435 17.07 34.6735 16.89 34.6335 16.71C34.6135 16.63 34.6135 16.55 34.6335 16.47C34.6735 16.39 34.6835 16.31 34.6635 16.23C34.6435 16.15 34.6235 16.08 34.6035 16.02C34.6035 15.96 34.6035 15.89 34.6035 15.81C34.5835 15.77 34.5735 15.72 34.5735 15.66C34.5735 15.54 34.5735 15.42 34.5735 15.3C34.5735 15.16 34.5535 15.02 34.5135 14.88C34.4935 14.82 34.4835 14.73 34.4835 14.61V13.5C34.4635 13.24 34.4335 12.98 34.3935 12.72C34.3535 12.46 34.3035 12.2 34.2435 11.94C34.2435 11.88 34.2335 11.82 34.2135 11.76C34.2135 11.7 34.2135 11.64 34.2135 11.58C34.2135 11.14 34.1435 10.71 34.0035 10.29V10.02C34.0435 9.8 34.0235 9.63 33.9435 9.51C33.9235 9.43 33.9135 9.32 33.9135 9.18V9.15C33.9135 8.95 33.9035 8.75 33.8835 8.55C33.8835 8.35 33.8935 8.15 33.9135 7.95C33.9535 7.59 33.9535 7.21 33.9135 6.81C33.9135 6.65 33.9135 6.49 33.9135 6.33C33.9135 6.17 33.9035 6.02 33.8835 5.88V5.7C33.9235 5.6 33.9435 5.51 33.9435 5.43C33.9435 5.35 33.9435 5.27 33.9435 5.19C33.9435 4.95 33.9335 4.72 33.9135 4.5C33.9135 4.26 33.8935 4.03 33.8535 3.81C33.8535 3.75 33.8535 3.69 33.8535 3.63C33.8535 3.55 33.8435 3.48 33.8235 3.42C33.8235 3.28 33.7735 3.16 33.6735 3.06L33.4635 2.88C33.2635 2.76 33.1335 2.57 33.0735 2.31C33.0535 2.27 33.0435 2.24 33.0435 2.22C33.0435 2.18 33.0335 2.14 33.0135 2.1C32.9735 2 32.9935 1.91 33.0735 1.83C33.1335 1.75 33.1735 1.67 33.1935 1.59C33.1935 1.53 33.2035 1.48 33.2235 1.44C33.2635 1.38 33.2935 1.32 33.3135 1.26C33.3335 1.2 33.3535 1.13 33.3735 1.05C33.4135 0.989999 33.4435 0.969999 33.4635 0.989998C33.6035 0.989998 33.7035 0.969999 33.7635 0.929999C33.9035 0.829999 34.0535 0.809999 34.2135 0.87C34.2535 0.89 34.3135 0.879999 34.3935 0.839998C34.4135 0.839998 34.4235 0.829999 34.4235 0.809999C34.5235 0.709999 34.6335 0.659999 34.7535 0.659999C34.8735 0.639999 35.0035 0.639999 35.1435 0.659999C35.1635 0.659999 35.1835 0.669999 35.2035 0.689999C35.2235 0.689999 35.2435 0.689999 35.2635 0.689999C35.4235 0.729999 35.5735 0.769999 35.7135 0.809999C35.8735 0.829999 36.0235 0.829999 36.1635 0.809999C36.2635 0.809999 36.3635 0.819999 36.4635 0.839998C36.5835 0.859999 36.6935 0.87 36.7935 0.87C36.8735 0.87 36.9435 0.88 37.0035 0.899999C37.0835 0.919999 37.1535 0.939999 37.2135 0.959999C37.2935 0.979998 37.3635 1.01 37.4235 1.05C37.4835 1.07 37.5535 1.08 37.6335 1.08C37.7335 1.1 37.8135 1.12 37.8735 1.14C37.9535 1.16 38.0335 1.19 38.1135 1.23C38.3735 1.37 38.6335 1.5 38.8935 1.62C39.0135 1.68 39.1235 1.76 39.2235 1.86C39.3635 1.96 39.4835 2.02 39.5835 2.04C39.6035 2.04 39.6235 2.05 39.6435 2.07C39.6635 2.07 39.6835 2.07 39.7035 2.07C39.7235 2.09 39.7435 2.1 39.7635 2.1C39.7835 2.1 39.8035 2.11 39.8235 2.13C39.9235 2.23 40.0435 2.31 40.1835 2.37C40.3435 2.41 40.4735 2.48 40.5735 2.58C40.6135 2.62 40.6735 2.66 40.7535 2.7C40.9135 2.76 41.0535 2.85 41.1735 2.97C41.2135 3.01 41.2435 3.03 41.2635 3.03C41.3435 3.03 41.4335 3.08 41.5335 3.18L42.1635 3.84C42.2435 3.92 42.3035 3.99 42.3435 4.05C42.4435 4.19 42.5535 4.32 42.6735 4.44C42.7935 4.56 42.9135 4.68 43.0335 4.8C43.0735 4.84 43.1135 4.89 43.1535 4.95C43.2135 4.99 43.2535 5.04 43.2735 5.1C43.2935 5.14 43.3235 5.18 43.3635 5.22C43.4035 5.24 43.4335 5.27 43.4535 5.31C43.6735 5.55 43.8835 5.8 44.0835 6.06C44.3035 6.32 44.5035 6.59 44.6835 6.87C44.7835 7.01 44.8735 7.16 44.9535 7.32C45.0335 7.48 45.1035 7.64 45.1635 7.8C45.2235 7.94 45.2835 8.08 45.3435 8.22C45.4235 8.36 45.4935 8.5 45.5535 8.64C45.6135 8.86 45.6835 9.06 45.7635 9.24C45.8435 9.5 45.9235 9.75 46.0035 9.99C46.0835 10.23 46.1535 10.49 46.2135 10.77L46.3035 11.16C46.3035 11.32 46.3035 11.49 46.3035 11.67C46.3235 11.83 46.3335 12 46.3335 12.18C46.3335 12.26 46.3235 12.33 46.3035 12.39C46.3035 12.45 46.2835 12.52 46.2435 12.6C46.2035 12.72 46.1835 12.83 46.1835 12.93C46.1635 13.13 46.1135 13.32 46.0335 13.5C45.9735 13.68 45.9035 13.85 45.8235 14.01C45.6435 14.33 45.4835 14.65 45.3435 14.97C45.3035 15.05 45.2635 15.13 45.2235 15.21C45.2035 15.27 45.1735 15.34 45.1335 15.42L44.9535 15.78C44.8135 16.06 44.6435 16.34 44.4435 16.62C44.2635 16.88 44.0635 17.13 43.8435 17.37C43.7635 17.47 43.6635 17.57 43.5435 17.67C43.4435 17.75 43.3435 17.84 43.2435 17.94C43.0435 18.12 42.8435 18.3 42.6435 18.48C42.4435 18.64 42.2335 18.8 42.0135 18.96C41.8135 19.1 41.6035 19.23 41.3835 19.35C41.1835 19.47 40.9635 19.57 40.7235 19.65C40.6035 19.67 40.4835 19.73 40.3635 19.83C40.2435 19.91 40.1135 19.99 39.9735 20.07C39.8535 20.15 39.7235 20.24 39.5835 20.34C39.5235 20.36 39.4635 20.39 39.4035 20.43C39.3435 20.45 39.2735 20.47 39.1935 20.49C39.1335 20.51 39.0635 20.53 38.9835 20.55C38.9235 20.57 38.8635 20.59 38.8035 20.61C38.7235 20.63 38.6435 20.66 38.5635 20.7C38.5035 20.74 38.4435 20.79 38.3835 20.85C38.2435 20.95 38.0935 21.03 37.9335 21.09C37.7735 21.17 37.6135 21.26 37.4535 21.36C37.4135 21.38 37.3435 21.39 37.2435 21.39C37.1835 21.41 37.1235 21.41 37.0635 21.39C37.0035 21.39 36.9435 21.39 36.8835 21.39V21.42H36.7035ZM37.9035 18.06C38.1035 18.06 38.2735 18.02 38.4135 17.94C38.5735 17.88 38.7235 17.81 38.8635 17.73C39.0035 17.65 39.1335 17.56 39.2535 17.46L39.6135 17.1C39.8135 16.94 39.9935 16.77 40.1535 16.59C40.3335 16.41 40.5235 16.25 40.7235 16.11C40.7635 16.07 40.7835 16.05 40.7835 16.05C40.8635 15.97 40.9335 15.9 40.9935 15.84C41.0735 15.76 41.1435 15.68 41.2035 15.6C41.2435 15.56 41.2935 15.51 41.3535 15.45C41.4135 15.39 41.4535 15.34 41.4735 15.3C41.5535 15.16 41.6635 15.04 41.8035 14.94C41.9035 14.88 41.9635 14.82 41.9835 14.76C42.0235 14.66 42.0735 14.56 42.1335 14.46C42.2135 14.36 42.2935 14.27 42.3735 14.19C42.4735 14.07 42.5735 13.89 42.6735 13.65L42.7935 13.35C42.9135 13.07 42.9735 12.81 42.9735 12.57C42.9935 12.51 43.0035 12.42 43.0035 12.3C43.0235 12 43.0035 11.68 42.9435 11.34C42.9235 11.24 42.9035 11.14 42.8835 11.04C42.8635 10.94 42.8535 10.85 42.8535 10.77C42.8335 10.69 42.8135 10.62 42.7935 10.56C42.7935 10.48 42.7735 10.41 42.7335 10.35C42.6935 10.27 42.6635 10.19 42.6435 10.11C42.6235 10.03 42.6035 9.95 42.5835 9.87C42.5835 9.73 42.5635 9.61 42.5235 9.51C42.4835 9.39 42.4435 9.27 42.4035 9.15C42.3435 9.03 42.2835 8.91 42.2235 8.79C42.1635 8.65 42.1135 8.51 42.0735 8.37L42.0435 8.25C41.9835 8.17 41.9335 8.09 41.8935 8.01C41.8735 7.91 41.8435 7.82 41.8035 7.74C41.7235 7.56 41.6435 7.38 41.5635 7.2C41.5035 7.02 41.4235 6.85 41.3235 6.69C41.2235 6.51 41.1135 6.33 40.9935 6.15C40.8935 5.97 40.7635 5.81 40.6035 5.67C40.1435 5.17 39.6135 4.72 39.0135 4.32C38.6535 4.06 38.2935 3.89 37.9335 3.81C37.7935 3.77 37.6335 3.74 37.4535 3.72C37.2735 3.68 37.1035 3.65 36.9435 3.63C36.8835 3.63 36.8335 3.65 36.7935 3.69C36.6935 3.77 36.6435 3.87 36.6435 3.99C36.6435 4.13 36.6335 4.28 36.6135 4.44C36.6135 4.58 36.6135 4.73 36.6135 4.89C36.6535 5.17 36.6435 5.4 36.5835 5.58C36.5635 5.66 36.5435 5.74 36.5235 5.82C36.5235 5.9 36.5335 5.99 36.5535 6.09C36.5935 6.21 36.5835 6.32 36.5235 6.42C36.4635 6.54 36.4635 6.67 36.5235 6.81C36.6035 6.97 36.6235 7.17 36.5835 7.41C36.5235 7.65 36.5235 7.89 36.5835 8.13C36.6035 8.21 36.6135 8.29 36.6135 8.37C36.6335 8.45 36.6335 8.54 36.6135 8.64C36.6135 8.86 36.6235 9.08 36.6435 9.3C36.6835 9.52 36.7135 9.74 36.7335 9.96C36.7335 10 36.7535 10.06 36.7935 10.14V10.62C36.7935 10.66 36.7835 10.71 36.7635 10.77C36.7635 10.81 36.7735 10.85 36.7935 10.89C36.8335 11.05 36.8635 11.22 36.8835 11.4C36.9235 11.56 36.9635 11.72 37.0035 11.88C37.0035 11.92 37.0135 11.97 37.0335 12.03C37.0535 12.07 37.0635 12.12 37.0635 12.18C37.0635 12.32 37.0735 12.46 37.0935 12.6C37.1135 12.74 37.1335 12.89 37.1535 13.05C37.2135 13.61 37.3035 14.18 37.4235 14.76C37.4835 15 37.5135 15.25 37.5135 15.51C37.5135 15.57 37.5135 15.64 37.5135 15.72C37.5135 15.78 37.5235 15.84 37.5435 15.9C37.5835 16.04 37.6035 16.18 37.6035 16.32C37.6035 16.46 37.6035 16.6 37.6035 16.74C37.6035 16.78 37.5935 16.83 37.5735 16.89C37.5735 16.95 37.5835 17 37.6035 17.04C37.6435 17.14 37.6635 17.24 37.6635 17.34C37.6635 17.42 37.6635 17.51 37.6635 17.61C37.6635 17.69 37.6835 17.79 37.7235 17.91C37.7235 18.01 37.7835 18.06 37.9035 18.06ZM52.5482 21.21C52.4282 21.21 52.3482 21.2 52.3082 21.18C52.2082 21.14 52.1082 21.12 52.0082 21.12C51.9282 21.14 51.8382 21.15 51.7382 21.15C51.7182 21.15 51.6982 21.15 51.6782 21.15C51.6582 21.17 51.6382 21.18 51.6182 21.18C51.4782 21.2 51.3382 21.21 51.1982 21.21C51.0782 21.21 50.9582 21.19 50.8382 21.15C50.8182 21.13 50.7982 21.12 50.7782 21.12C50.6382 21.14 50.5182 21.1 50.4182 21C50.3182 20.9 50.2182 20.81 50.1182 20.73C50.0182 20.63 49.9682 20.52 49.9682 20.4L49.8782 20.16C49.8182 20.02 49.7982 19.89 49.8182 19.77C49.8382 19.73 49.8382 19.69 49.8182 19.65C49.8182 19.61 49.8182 19.57 49.8182 19.53C49.7982 19.49 49.7882 19.45 49.7882 19.41C49.7882 19.35 49.7782 19.3 49.7582 19.26C49.7182 19.08 49.6882 18.9 49.6682 18.72C49.6682 18.52 49.6782 18.33 49.6982 18.15C49.7182 18.03 49.7882 17.83 49.9082 17.55C50.0282 17.25 50.0982 17.07 50.1182 17.01C50.1782 16.91 50.2082 16.83 50.2082 16.77C50.1882 16.55 50.1782 16.33 50.1782 16.11C50.1982 15.87 50.2082 15.64 50.2082 15.42C50.2082 15.28 50.2382 15.17 50.2982 15.09C50.3782 14.95 50.3882 14.8 50.3282 14.64L50.2382 14.31C50.1182 14.09 50.1282 13.9 50.2682 13.74C50.2682 13.72 50.2682 13.71 50.2682 13.71C50.2882 13.69 50.2982 13.67 50.2982 13.65C50.3382 13.61 50.3482 13.56 50.3282 13.5C50.3082 13.42 50.2982 13.36 50.2982 13.32C50.2982 13.24 50.3082 13.16 50.3282 13.08C50.3682 12.98 50.3782 12.89 50.3582 12.81C50.3582 12.81 50.3382 12.79 50.2982 12.75C50.2782 12.71 50.2682 12.63 50.2682 12.51C50.2882 12.39 50.2982 12.32 50.2982 12.3V11.46C50.3182 11.36 50.3282 11.27 50.3282 11.19C50.3282 11.09 50.3382 10.99 50.3582 10.89C50.3782 10.77 50.3782 10.65 50.3582 10.53C50.3582 10.39 50.3582 10.25 50.3582 10.11C50.3382 10.01 50.3182 9.9 50.2982 9.78C50.2982 9.66 50.2982 9.54 50.2982 9.42C50.2782 9.38 50.2682 9.33 50.2682 9.27C50.2682 9.21 50.2682 9.16 50.2682 9.12C50.2482 9.02 50.2282 8.92 50.2082 8.82C50.2082 8.72 50.2082 8.62 50.2082 8.52C50.2082 8.48 50.1682 8.35 50.0882 8.13C50.0082 7.89 49.9782 7.69 49.9982 7.53C50.0182 7.49 50.0282 7.44 50.0282 7.38C50.0282 7.32 50.0082 7.27 49.9682 7.23C49.9282 7.21 49.9082 7.17 49.9082 7.11V7.02C49.9682 6.78 49.9382 6.54 49.8182 6.3C49.7382 6.18 49.7082 6.06 49.7282 5.94C49.7282 5.78 49.6582 5.66 49.5182 5.58C49.4182 5.48 49.3282 5.36 49.2482 5.22C49.1682 5.08 49.1182 4.94 49.0982 4.8C49.0782 4.7 49.0682 4.6 49.0682 4.5C49.0682 4.4 49.0682 4.31 49.0682 4.23C49.0682 4.15 49.0782 4.1 49.0982 4.08C49.1782 4 49.2182 3.91 49.2182 3.81C49.2182 3.69 49.2282 3.6 49.2482 3.54C49.2682 3.52 49.2882 3.51 49.3082 3.51C49.3282 3.51 49.3482 3.5 49.3682 3.48C49.4482 3.46 49.4882 3.39 49.4882 3.27C49.4482 3.19 49.4282 3.12 49.4282 3.06C49.4082 2.98 49.4382 2.91 49.5182 2.85C49.5582 2.77 49.6082 2.75 49.6682 2.79C49.8082 2.85 49.9682 2.83 50.1482 2.73C50.2282 2.69 50.2782 2.67 50.2982 2.67C50.3582 2.67 50.3882 2.67 50.3882 2.67C50.4082 2.65 50.4682 2.64 50.5682 2.64C50.6882 2.66 50.7982 2.62 50.8982 2.52C51.0382 2.38 51.2082 2.31 51.4082 2.31H53.2682C53.7282 2.33 54.1882 2.33 54.6482 2.31C55.1082 2.29 55.5582 2.28 55.9982 2.28C56.0982 2.28 56.1782 2.28 56.2382 2.28C56.3182 2.26 56.3982 2.24 56.4782 2.22C56.5982 2.16 56.7382 2.13 56.8982 2.13H57.5882C57.7482 2.13 57.8882 2.13 58.0082 2.13C58.1482 2.11 58.2882 2.09 58.4282 2.07C58.5082 2.05 58.5782 2.04 58.6382 2.04C58.7182 2.04 58.7982 2.04 58.8782 2.04C58.9582 2.04 59.0382 2.04 59.1182 2.04C59.1982 2.04 59.2782 2.03 59.3582 2.01C59.5182 1.99 59.6882 1.98 59.8682 1.98C60.0482 1.96 60.2182 1.95 60.3782 1.95C60.4582 1.95 60.5282 1.95 60.5882 1.95C60.6682 1.93 60.7482 1.91 60.8282 1.89C60.9882 1.85 61.1382 1.83 61.2782 1.83C61.4382 1.81 61.5882 1.79 61.7282 1.77C61.8882 1.75 62.0382 1.73 62.1782 1.71C62.3382 1.69 62.4882 1.67 62.6282 1.65C62.8082 1.65 62.9382 1.67 63.0182 1.71C63.1382 1.79 63.2482 1.86 63.3482 1.92C63.4682 1.98 63.5782 2.06 63.6782 2.16C63.7582 2.24 63.8082 2.31 63.8282 2.37C63.8482 2.45 63.8682 2.53 63.8882 2.61C63.9082 2.69 63.9282 2.78 63.9482 2.88V3.09C63.9282 3.19 63.9082 3.3 63.8882 3.42C63.8882 3.52 63.8782 3.63 63.8582 3.75C63.8182 3.83 63.7682 3.9 63.7082 3.96L63.1682 4.5C62.9682 4.56 62.7682 4.6 62.5682 4.62C62.3882 4.64 62.1982 4.64 61.9982 4.62H61.7882C61.6882 4.64 61.5882 4.65 61.4882 4.65C61.3882 4.65 61.2882 4.64 61.1882 4.62C61.0682 4.6 60.9482 4.6 60.8282 4.62C60.7082 4.62 60.5882 4.62 60.4682 4.62C60.3882 4.62 60.3082 4.63 60.2282 4.65C60.1682 4.65 60.0982 4.64 60.0182 4.62C59.9182 4.6 59.8182 4.6 59.7182 4.62C59.6382 4.62 59.5482 4.63 59.4482 4.65C59.3682 4.65 59.2782 4.66 59.1782 4.68C59.0982 4.68 59.0082 4.68 58.9082 4.68C58.6482 4.72 58.3682 4.74 58.0682 4.74C57.7882 4.74 57.5082 4.76 57.2282 4.8C57.0482 4.78 56.8782 4.79 56.7182 4.83C56.5582 4.85 56.3882 4.87 56.2082 4.89C56.0482 4.91 55.8782 4.92 55.6982 4.92C55.5182 4.92 55.3482 4.94 55.1882 4.98C54.9882 4.98 54.7882 5.01 54.5882 5.07C54.4082 5.11 54.2182 5.14 54.0182 5.16L53.8082 5.19C53.6682 5.19 53.5382 5.21 53.4182 5.25C53.2982 5.27 53.1682 5.3 53.0282 5.34C52.9482 5.36 52.8682 5.38 52.7882 5.4C52.7082 5.4 52.6182 5.41 52.5182 5.43C52.4582 5.43 52.3882 5.45 52.3082 5.49C52.2482 5.51 52.2182 5.57 52.2182 5.67L52.3082 5.94C52.3282 5.98 52.3182 6.08 52.2782 6.24C52.2582 6.4 52.2382 6.52 52.2182 6.6C52.2182 6.66 52.2282 6.72 52.2482 6.78C52.2682 6.84 52.2882 6.9 52.3082 6.96C52.3682 7.12 52.3982 7.3 52.3982 7.5C52.3982 7.68 52.4182 7.85 52.4582 8.01C52.4782 8.09 52.4882 8.18 52.4882 8.28C52.4882 8.36 52.4982 8.45 52.5182 8.55C52.5182 8.59 52.5182 8.64 52.5182 8.7C52.5382 8.74 52.5482 8.79 52.5482 8.85C52.5482 8.91 52.5382 8.95 52.5182 8.97C52.4582 9.05 52.4282 9.14 52.4282 9.24C52.4282 9.34 52.4282 9.44 52.4282 9.54C52.5282 9.74 52.5782 9.94 52.5782 10.14C52.5782 10.34 52.5782 10.54 52.5782 10.74C52.5782 10.8 52.6282 10.82 52.7282 10.8H52.7582C52.7982 10.72 52.8382 10.66 52.8782 10.62C52.9382 10.62 53.0082 10.6 53.0882 10.56C53.1482 10.52 53.2282 10.5 53.3282 10.5C53.4882 10.52 53.6382 10.52 53.7782 10.5C53.9182 10.46 54.0582 10.42 54.1982 10.38C55.1382 10.14 56.0182 9.83 56.8382 9.45C57.0582 9.35 57.2882 9.27 57.5282 9.21C57.7682 9.13 58.0082 9.08 58.2482 9.06H58.3382C58.5182 9.04 58.6982 9.02 58.8782 9C59.0582 8.98 59.2382 8.97 59.4182 8.97C59.6582 8.95 59.8882 8.92 60.1082 8.88C60.3482 8.84 60.5882 8.81 60.8282 8.79C60.9682 8.75 61.0982 8.72 61.2182 8.7C61.3382 8.66 61.4682 8.61 61.6082 8.55C61.8682 8.45 62.1082 8.4 62.3282 8.4C62.4882 8.42 62.6382 8.46 62.7782 8.52C62.9182 8.56 63.0582 8.62 63.1982 8.7C63.4982 8.9 63.6482 9.2 63.6482 9.6C63.6482 9.76 63.6282 9.92 63.5882 10.08C63.5682 10.24 63.5582 10.4 63.5582 10.56C63.5582 10.6 63.5382 10.64 63.4982 10.68L63.4082 10.83C63.3882 10.91 63.3682 10.99 63.3482 11.07C63.3282 11.15 63.2782 11.21 63.1982 11.25C63.0782 11.35 62.9482 11.46 62.8082 11.58C62.6882 11.68 62.5482 11.75 62.3882 11.79C62.3082 11.81 62.2282 11.83 62.1482 11.85C62.0882 11.87 62.0182 11.88 61.9382 11.88C61.6182 11.88 61.2882 11.9 60.9482 11.94C60.6282 11.98 60.2982 12.02 59.9582 12.06C59.6982 12.08 59.4382 12.11 59.1782 12.15C58.9382 12.19 58.6882 12.21 58.4282 12.21C58.1882 12.21 57.9182 12.26 57.6182 12.36C57.4182 12.4 57.2082 12.44 56.9882 12.48C56.7682 12.52 56.5482 12.55 56.3282 12.57C56.1682 12.59 55.9982 12.62 55.8182 12.66C55.6582 12.68 55.4982 12.7 55.3382 12.72L54.8282 12.81C54.7882 12.83 54.7282 12.84 54.6482 12.84C54.5082 12.88 54.3682 12.91 54.2282 12.93C54.0882 12.95 53.9482 12.98 53.8082 13.02C53.6682 13.04 53.5282 13.07 53.3882 13.11C53.2682 13.15 53.1382 13.19 52.9982 13.23C52.8982 13.25 52.8182 13.29 52.7582 13.35C52.6982 13.39 52.6482 13.45 52.6082 13.53C52.5882 13.59 52.5882 13.65 52.6082 13.71C52.6282 13.79 52.6182 13.87 52.5782 13.95C52.5982 14.15 52.6082 14.35 52.6082 14.55C52.6282 14.75 52.6282 14.95 52.6082 15.15C52.6482 15.31 52.6582 15.47 52.6382 15.63C52.6382 15.79 52.6282 15.95 52.6082 16.11C52.5682 16.35 52.5782 16.55 52.6382 16.71C52.6982 16.97 52.6782 17.24 52.5782 17.52C52.5382 17.64 52.5382 17.72 52.5782 17.76C52.6182 17.82 52.6182 17.89 52.5782 17.97V18.15C52.5582 18.31 52.6282 18.39 52.7882 18.39H52.8482C52.9882 18.39 53.1282 18.44 53.2682 18.54C53.3682 18.64 53.4882 18.67 53.6282 18.63L54.4682 18.54C54.5882 18.52 54.7082 18.51 54.8282 18.51C54.9482 18.49 55.0682 18.48 55.1882 18.48C55.2282 18.46 55.2882 18.47 55.3682 18.51C55.4682 18.57 55.5582 18.58 55.6382 18.54C55.6782 18.5 55.7282 18.47 55.7882 18.45C55.8682 18.43 55.9282 18.4 55.9682 18.36C56.0882 18.24 56.2382 18.2 56.4182 18.24C56.5782 18.28 56.7082 18.27 56.8082 18.21C56.9882 18.15 57.1582 18.13 57.3182 18.15C57.4182 18.17 57.5182 18.16 57.6182 18.12C57.7182 18.08 57.8182 18.06 57.9182 18.06C57.9582 18.06 57.9882 18.07 58.0082 18.09C58.0282 18.09 58.0482 18.08 58.0682 18.06C58.1082 18.06 58.1482 18.05 58.1882 18.03C58.2282 18.01 58.2582 18 58.2782 18C58.4182 17.94 58.5482 17.92 58.6682 17.94C58.7682 17.94 58.8182 17.94 58.8182 17.94C58.8982 17.92 58.9682 17.92 59.0282 17.94C59.1082 17.96 59.1782 17.99 59.2382 18.03C59.3382 18.05 59.4182 18.08 59.4782 18.12C59.5582 18.16 59.6382 18.19 59.7182 18.21C59.7582 18.21 59.7882 18.22 59.8082 18.24C59.9082 18.32 60.0282 18.39 60.1682 18.45C60.3282 18.51 60.4182 18.58 60.4382 18.66C60.4782 18.78 60.4982 18.9 60.4982 19.02C60.4982 19.12 60.5082 19.23 60.5282 19.35C60.5282 19.41 60.5182 19.47 60.4982 19.53C60.4982 19.59 60.4882 19.65 60.4682 19.71C60.4282 19.79 60.3782 19.88 60.3182 19.98C60.2782 20.08 60.2182 20.17 60.1382 20.25C60.0982 20.29 60.0582 20.33 60.0182 20.37C59.9982 20.41 59.9682 20.45 59.9282 20.49C59.8482 20.57 59.7582 20.64 59.6582 20.7C59.5582 20.76 59.4482 20.79 59.3282 20.79C59.2482 20.79 59.1882 20.8 59.1482 20.82C59.0682 20.86 58.9882 20.88 58.9082 20.88C58.8282 20.88 58.7382 20.88 58.6382 20.88C58.4982 20.9 58.3582 20.92 58.2182 20.94C58.0982 20.94 57.9682 20.93 57.8282 20.91C57.7482 20.89 57.6782 20.89 57.6182 20.91C57.4182 20.97 57.2182 20.98 57.0182 20.94C56.8182 20.94 56.6182 20.95 56.4182 20.97C56.2382 20.97 56.0582 20.97 55.8782 20.97H55.4882C55.4282 20.97 55.3782 20.98 55.3382 21C55.2582 21.04 55.1582 21.06 55.0382 21.06C54.9382 21.06 54.8382 21.05 54.7382 21.03H54.4382C54.4182 21.03 54.3882 21.03 54.3482 21.03C54.3082 21.05 54.2682 21.05 54.2282 21.03C54.1682 21.01 54.1082 21 54.0482 21C54.0082 21.02 53.9582 21.04 53.8982 21.06C53.8582 21.06 53.8182 21.06 53.7782 21.06C53.7582 21.08 53.7282 21.09 53.6882 21.09C53.4882 21.07 53.2982 21.07 53.1182 21.09C52.9382 21.13 52.7482 21.17 52.5482 21.21ZM70.4535 21.42C70.3135 21.42 70.1435 21.37 69.9435 21.27C69.8435 21.21 69.7635 21.13 69.7035 21.03C69.6835 20.97 69.6335 20.97 69.5535 21.03C69.4935 21.07 69.4435 21.07 69.4035 21.03C69.3435 20.97 69.2835 20.93 69.2235 20.91C69.1435 20.91 69.1035 20.88 69.1035 20.82C69.1035 20.76 69.0935 20.71 69.0735 20.67C69.0735 20.61 69.0535 20.56 69.0135 20.52C68.8935 20.48 68.8135 20.38 68.7735 20.22C68.7535 20.16 68.7335 20.11 68.7135 20.07C68.6935 20.01 68.6635 19.95 68.6235 19.89C68.5835 19.81 68.5635 19.74 68.5635 19.68C68.5435 19.62 68.5235 19.57 68.5035 19.53C68.5035 19.47 68.4835 19.41 68.4435 19.35C68.4235 19.21 68.3835 19.08 68.3235 18.96C68.2635 18.84 68.2135 18.71 68.1735 18.57C68.1335 18.49 68.1135 18.38 68.1135 18.24C68.1135 17.88 68.1735 17.55 68.2935 17.25C68.3935 17.07 68.4235 16.89 68.3835 16.71C68.3635 16.63 68.3635 16.55 68.3835 16.47C68.4235 16.39 68.4335 16.31 68.4135 16.23C68.3935 16.15 68.3735 16.08 68.3535 16.02C68.3535 15.96 68.3535 15.89 68.3535 15.81C68.3335 15.77 68.3235 15.72 68.3235 15.66C68.3235 15.54 68.3235 15.42 68.3235 15.3C68.3235 15.16 68.3035 15.02 68.2635 14.88C68.2435 14.82 68.2335 14.73 68.2335 14.61V13.5C68.2135 13.24 68.1835 12.98 68.1435 12.72C68.1035 12.46 68.0535 12.2 67.9935 11.94C67.9935 11.88 67.9835 11.82 67.9635 11.76C67.9635 11.7 67.9635 11.64 67.9635 11.58C67.9635 11.14 67.8935 10.71 67.7535 10.29V10.02C67.7935 9.8 67.7735 9.63 67.6935 9.51C67.6735 9.43 67.6635 9.32 67.6635 9.18V9.15C67.6635 8.95 67.6535 8.75 67.6335 8.55C67.6335 8.35 67.6435 8.15 67.6635 7.95C67.7035 7.59 67.7035 7.21 67.6635 6.81C67.6635 6.65 67.6635 6.49 67.6635 6.33C67.6635 6.17 67.6535 6.02 67.6335 5.88V5.7C67.6735 5.6 67.6935 5.51 67.6935 5.43C67.6935 5.35 67.6935 5.27 67.6935 5.19C67.6935 4.95 67.6835 4.72 67.6635 4.5C67.6635 4.26 67.6435 4.03 67.6035 3.81C67.6035 3.75 67.6035 3.69 67.6035 3.63C67.6035 3.55 67.5935 3.48 67.5735 3.42C67.5735 3.28 67.5235 3.16 67.4235 3.06L67.2135 2.88C67.0135 2.76 66.8835 2.57 66.8235 2.31C66.8035 2.27 66.7935 2.24 66.7935 2.22C66.7935 2.18 66.7835 2.14 66.7635 2.1C66.7235 2 66.7435 1.91 66.8235 1.83C66.8835 1.75 66.9235 1.67 66.9435 1.59C66.9435 1.53 66.9535 1.48 66.9735 1.44C67.0135 1.38 67.0435 1.32 67.0635 1.26C67.0835 1.2 67.1035 1.13 67.1235 1.05C67.1635 0.989999 67.1935 0.969999 67.2135 0.989998C67.3535 0.989998 67.4535 0.969999 67.5135 0.929999C67.6535 0.829999 67.8035 0.809999 67.9635 0.87C68.0035 0.89 68.0635 0.879999 68.1435 0.839998C68.1635 0.839998 68.1735 0.829999 68.1735 0.809999C68.2735 0.709999 68.3835 0.659999 68.5035 0.659999C68.6235 0.639999 68.7535 0.639999 68.8935 0.659999C68.9135 0.659999 68.9335 0.669999 68.9535 0.689999C68.9735 0.689999 68.9935 0.689999 69.0135 0.689999C69.1735 0.729999 69.3235 0.769999 69.4635 0.809999C69.6235 0.829999 69.7735 0.829999 69.9135 0.809999C70.0135 0.809999 70.1135 0.819999 70.2135 0.839998C70.3335 0.859999 70.4435 0.87 70.5435 0.87C70.6235 0.87 70.6935 0.88 70.7535 0.899999C70.8335 0.919999 70.9035 0.939999 70.9635 0.959999C71.0435 0.979998 71.1135 1.01 71.1735 1.05C71.2335 1.07 71.3035 1.08 71.3835 1.08C71.4835 1.1 71.5635 1.12 71.6235 1.14C71.7035 1.16 71.7835 1.19 71.8635 1.23C72.1235 1.37 72.3835 1.5 72.6435 1.62C72.7635 1.68 72.8735 1.76 72.9735 1.86C73.1135 1.96 73.2335 2.02 73.3335 2.04C73.3535 2.04 73.3735 2.05 73.3935 2.07C73.4135 2.07 73.4335 2.07 73.4535 2.07C73.4735 2.09 73.4935 2.1 73.5135 2.1C73.5335 2.1 73.5535 2.11 73.5735 2.13C73.6735 2.23 73.7935 2.31 73.9335 2.37C74.0935 2.41 74.2235 2.48 74.3235 2.58C74.3635 2.62 74.4235 2.66 74.5035 2.7C74.6635 2.76 74.8035 2.85 74.9235 2.97C74.9635 3.01 74.9935 3.03 75.0135 3.03C75.0935 3.03 75.1835 3.08 75.2835 3.18L75.9135 3.84C75.9935 3.92 76.0535 3.99 76.0935 4.05C76.1935 4.19 76.3035 4.32 76.4235 4.44C76.5435 4.56 76.6635 4.68 76.7835 4.8C76.8235 4.84 76.8635 4.89 76.9035 4.95C76.9635 4.99 77.0035 5.04 77.0235 5.1C77.0435 5.14 77.0735 5.18 77.1135 5.22C77.1535 5.24 77.1835 5.27 77.2035 5.31C77.4235 5.55 77.6335 5.8 77.8335 6.06C78.0535 6.32 78.2535 6.59 78.4335 6.87C78.5335 7.01 78.6235 7.16 78.7035 7.32C78.7835 7.48 78.8535 7.64 78.9135 7.8C78.9735 7.94 79.0335 8.08 79.0935 8.22C79.1735 8.36 79.2435 8.5 79.3035 8.64C79.3635 8.86 79.4335 9.06 79.5135 9.24C79.5935 9.5 79.6735 9.75 79.7535 9.99C79.8335 10.23 79.9035 10.49 79.9635 10.77L80.0535 11.16C80.0535 11.32 80.0535 11.49 80.0535 11.67C80.0735 11.83 80.0835 12 80.0835 12.18C80.0835 12.26 80.0735 12.33 80.0535 12.39C80.0535 12.45 80.0335 12.52 79.9935 12.6C79.9535 12.72 79.9335 12.83 79.9335 12.93C79.9135 13.13 79.8635 13.32 79.7835 13.5C79.7235 13.68 79.6535 13.85 79.5735 14.01C79.3935 14.33 79.2335 14.65 79.0935 14.97C79.0535 15.05 79.0135 15.13 78.9735 15.21C78.9535 15.27 78.9235 15.34 78.8835 15.42L78.7035 15.78C78.5635 16.06 78.3935 16.34 78.1935 16.62C78.0135 16.88 77.8135 17.13 77.5935 17.37C77.5135 17.47 77.4135 17.57 77.2935 17.67C77.1935 17.75 77.0935 17.84 76.9935 17.94C76.7935 18.12 76.5935 18.3 76.3935 18.48C76.1935 18.64 75.9835 18.8 75.7635 18.96C75.5635 19.1 75.3535 19.23 75.1335 19.35C74.9335 19.47 74.7135 19.57 74.4735 19.65C74.3535 19.67 74.2335 19.73 74.1135 19.83C73.9935 19.91 73.8635 19.99 73.7235 20.07C73.6035 20.15 73.4735 20.24 73.3335 20.34C73.2735 20.36 73.2135 20.39 73.1535 20.43C73.0935 20.45 73.0235 20.47 72.9435 20.49C72.8835 20.51 72.8135 20.53 72.7335 20.55C72.6735 20.57 72.6135 20.59 72.5535 20.61C72.4735 20.63 72.3935 20.66 72.3135 20.7C72.2535 20.74 72.1935 20.79 72.1335 20.85C71.9935 20.95 71.8435 21.03 71.6835 21.09C71.5235 21.17 71.3635 21.26 71.2035 21.36C71.1635 21.38 71.0935 21.39 70.9935 21.39C70.9335 21.41 70.8735 21.41 70.8135 21.39C70.7535 21.39 70.6935 21.39 70.6335 21.39V21.42H70.4535ZM71.6535 18.06C71.8535 18.06 72.0235 18.02 72.1635 17.94C72.3235 17.88 72.4735 17.81 72.6135 17.73C72.7535 17.65 72.8835 17.56 73.0035 17.46L73.3635 17.1C73.5635 16.94 73.7435 16.77 73.9035 16.59C74.0835 16.41 74.2735 16.25 74.4735 16.11C74.5135 16.07 74.5335 16.05 74.5335 16.05C74.6135 15.97 74.6835 15.9 74.7435 15.84C74.8235 15.76 74.8935 15.68 74.9535 15.6C74.9935 15.56 75.0435 15.51 75.1035 15.45C75.1635 15.39 75.2035 15.34 75.2235 15.3C75.3035 15.16 75.4135 15.04 75.5535 14.94C75.6535 14.88 75.7135 14.82 75.7335 14.76C75.7735 14.66 75.8235 14.56 75.8835 14.46C75.9635 14.36 76.0435 14.27 76.1235 14.19C76.2235 14.07 76.3235 13.89 76.4235 13.65L76.5435 13.35C76.6635 13.07 76.7235 12.81 76.7235 12.57C76.7435 12.51 76.7535 12.42 76.7535 12.3C76.7735 12 76.7535 11.68 76.6935 11.34C76.6735 11.24 76.6535 11.14 76.6335 11.04C76.6135 10.94 76.6035 10.85 76.6035 10.77C76.5835 10.69 76.5635 10.62 76.5435 10.56C76.5435 10.48 76.5235 10.41 76.4835 10.35C76.4435 10.27 76.4135 10.19 76.3935 10.11C76.3735 10.03 76.3535 9.95 76.3335 9.87C76.3335 9.73 76.3135 9.61 76.2735 9.51C76.2335 9.39 76.1935 9.27 76.1535 9.15C76.0935 9.03 76.0335 8.91 75.9735 8.79C75.9135 8.65 75.8635 8.51 75.8235 8.37L75.7935 8.25C75.7335 8.17 75.6835 8.09 75.6435 8.01C75.6235 7.91 75.5935 7.82 75.5535 7.74C75.4735 7.56 75.3935 7.38 75.3135 7.2C75.2535 7.02 75.1735 6.85 75.0735 6.69C74.9735 6.51 74.8635 6.33 74.7435 6.15C74.6435 5.97 74.5135 5.81 74.3535 5.67C73.8935 5.17 73.3635 4.72 72.7635 4.32C72.4035 4.06 72.0435 3.89 71.6835 3.81C71.5435 3.77 71.3835 3.74 71.2035 3.72C71.0235 3.68 70.8535 3.65 70.6935 3.63C70.6335 3.63 70.5835 3.65 70.5435 3.69C70.4435 3.77 70.3935 3.87 70.3935 3.99C70.3935 4.13 70.3835 4.28 70.3635 4.44C70.3635 4.58 70.3635 4.73 70.3635 4.89C70.4035 5.17 70.3935 5.4 70.3335 5.58C70.3135 5.66 70.2935 5.74 70.2735 5.82C70.2735 5.9 70.2835 5.99 70.3035 6.09C70.3435 6.21 70.3335 6.32 70.2735 6.42C70.2135 6.54 70.2135 6.67 70.2735 6.81C70.3535 6.97 70.3735 7.17 70.3335 7.41C70.2735 7.65 70.2735 7.89 70.3335 8.13C70.3535 8.21 70.3635 8.29 70.3635 8.37C70.3835 8.45 70.3835 8.54 70.3635 8.64C70.3635 8.86 70.3735 9.08 70.3935 9.3C70.4335 9.52 70.4635 9.74 70.4835 9.96C70.4835 10 70.5035 10.06 70.5435 10.14V10.62C70.5435 10.66 70.5335 10.71 70.5135 10.77C70.5135 10.81 70.5235 10.85 70.5435 10.89C70.5835 11.05 70.6135 11.22 70.6335 11.4C70.6735 11.56 70.7135 11.72 70.7535 11.88C70.7535 11.92 70.7635 11.97 70.7835 12.03C70.8035 12.07 70.8135 12.12 70.8135 12.18C70.8135 12.32 70.8235 12.46 70.8435 12.6C70.8635 12.74 70.8835 12.89 70.9035 13.05C70.9635 13.61 71.0535 14.18 71.1735 14.76C71.2335 15 71.2635 15.25 71.2635 15.51C71.2635 15.57 71.2635 15.64 71.2635 15.72C71.2635 15.78 71.2735 15.84 71.2935 15.9C71.3335 16.04 71.3535 16.18 71.3535 16.32C71.3535 16.46 71.3535 16.6 71.3535 16.74C71.3535 16.78 71.3435 16.83 71.3235 16.89C71.3235 16.95 71.3335 17 71.3535 17.04C71.3935 17.14 71.4135 17.24 71.4135 17.34C71.4135 17.42 71.4135 17.51 71.4135 17.61C71.4135 17.69 71.4335 17.79 71.4735 17.91C71.4735 18.01 71.5335 18.06 71.6535 18.06Z" fill="#353535"/>
</svg>
