<svg width="205" height="23" viewBox="0 0 205 23" fill="none" xmlns="http://www.w3.org/2000/svg">
<path d="M6.99148 20.6C6.91148 20.56 6.84148 20.54 6.78148 20.54C6.70148 20.56 6.63148 20.54 6.57148 20.48C6.49148 20.4 6.43148 20.35 6.39148 20.33L4.98148 19.61C4.90148 19.57 4.82148 19.53 4.74148 19.49C4.66148 19.45 4.57148 19.42 4.47148 19.4C4.21148 19.3 3.94148 19.21 3.66148 19.13C3.40148 19.05 3.14148 18.96 2.88148 18.86C2.74148 18.8 2.59148 18.73 2.43148 18.65C2.29148 18.57 2.15148 18.48 2.01148 18.38C1.87148 18.28 1.73148 18.17 1.59148 18.05C1.47148 17.91 1.36148 17.76 1.26148 17.6L1.08148 17.33C0.961484 17.11 0.871484 16.89 0.811484 16.67C0.771484 16.45 0.741484 16.23 0.721484 16.01C0.701484 15.77 0.701484 15.54 0.721484 15.32C0.761484 15.08 0.801484 14.85 0.841484 14.63L1.02148 13.64C1.06148 13.44 1.11148 13.25 1.17148 13.07C1.23148 12.89 1.30148 12.71 1.38148 12.53C1.42148 12.43 1.47148 12.35 1.53148 12.29C1.69148 12.19 1.82148 12.09 1.92148 11.99C1.98148 11.93 2.07148 11.91 2.19148 11.93C2.29148 11.95 2.39148 11.91 2.49148 11.81L2.61148 11.69C2.63148 11.67 2.68148 11.66 2.76148 11.66C2.82148 11.66 2.88148 11.66 2.94148 11.66C3.00148 11.66 3.06148 11.67 3.12148 11.69C3.16148 11.69 3.20148 11.71 3.24148 11.75C3.32148 11.83 3.42148 11.87 3.54148 11.87C3.62148 11.91 3.66148 11.96 3.66148 12.02C3.68148 12.04 3.69148 12.06 3.69148 12.08C3.69148 12.1 3.70148 12.12 3.72148 12.14C3.72148 12.2 3.76148 12.23 3.84148 12.23C3.98148 12.23 4.06148 12.29 4.08148 12.41V12.65C4.18148 12.77 4.24148 12.89 4.26148 13.01C4.30148 13.21 4.29148 13.38 4.23148 13.52L4.14148 13.76C4.08148 13.86 4.04148 13.98 4.02148 14.12C4.00148 14.24 3.98148 14.36 3.96148 14.48C3.94148 14.74 3.94148 14.99 3.96148 15.23C3.98148 15.29 3.99148 15.36 3.99148 15.44C3.99148 15.5 4.00148 15.56 4.02148 15.62C4.02148 15.8 4.10148 15.94 4.26148 16.04C4.32148 16.08 4.38148 16.13 4.44148 16.19C4.52148 16.23 4.60148 16.27 4.68148 16.31C4.84148 16.37 5.00148 16.44 5.16148 16.52C5.32148 16.58 5.48148 16.64 5.64148 16.7C5.70148 16.72 5.76148 16.74 5.82148 16.76C5.88148 16.78 5.94148 16.79 6.00148 16.79C6.34148 16.85 6.69148 16.96 7.05148 17.12L7.32148 17.21C7.52148 17.27 7.71148 17.22 7.89148 17.06C7.99148 16.96 8.09148 16.87 8.19148 16.79C8.29148 16.69 8.38148 16.59 8.46148 16.49C8.94148 15.95 9.27149 15.34 9.45149 14.66C9.53148 14.4 9.59148 14.14 9.63148 13.88C9.69148 13.62 9.74148 13.36 9.78148 13.1C9.82148 12.84 9.84148 12.59 9.84148 12.35C9.86149 12.09 9.87149 11.83 9.87149 11.57V10.28C9.85148 10.2 9.84148 10.13 9.84148 10.07C9.84148 9.99 9.83148 9.91 9.81149 9.83C9.81149 9.79 9.80148 9.75 9.78148 9.71C9.78148 9.67 9.78148 9.64 9.78148 9.62C9.78148 9.34 9.76148 9.06 9.72148 8.78C9.70148 8.5 9.68148 8.23 9.66149 7.97C9.66149 7.89 9.65149 7.81 9.63148 7.73C9.63148 7.65 9.62148 7.57 9.60149 7.49C9.60149 7.45 9.59148 7.41 9.57148 7.37C9.57148 7.31 9.57148 7.26 9.57148 7.22C9.55148 6.94 9.51149 6.66 9.45149 6.38C9.41149 6.1 9.37149 5.83 9.33149 5.57C9.29148 5.25 9.23148 4.94 9.15148 4.64C9.09148 4.34 9.02148 4.03 8.94148 3.71C8.88148 3.47 8.84148 3.23 8.82148 2.99C8.80148 2.73 8.77148 2.47 8.73148 2.21C8.73148 2.15 8.74148 2.1 8.76149 2.06C8.80148 1.96 8.85148 1.85 8.91149 1.73C8.97148 1.59 9.02148 1.51 9.06148 1.49C9.10149 1.45 9.12149 1.43 9.12149 1.43C9.18148 1.35 9.26148 1.32 9.36148 1.34C9.48148 1.34 9.56149 1.3 9.60149 1.22C9.60149 1.22 9.61149 1.19 9.63148 1.13C9.67148 1.07 9.73148 1.07 9.81149 1.13C9.85149 1.15 9.90149 1.17 9.96148 1.19C10.0215 1.21 10.0715 1.22 10.1115 1.22C10.1515 1.22 10.1915 1.2 10.2315 1.16C10.3515 1.12 10.6415 1.26 11.1015 1.58L11.1615 1.64C11.1615 1.66 11.2115 1.77 11.3115 1.97C11.4315 2.15 11.5015 2.29 11.5215 2.39C11.7615 3.17 11.9715 4 12.1515 4.88L12.2415 5.33C12.2815 5.71 12.3415 6.08 12.4215 6.44C12.5015 6.8 12.5615 7.17 12.6015 7.55C12.6415 7.81 12.6715 8.07 12.6915 8.33C12.7115 8.57 12.7415 8.81 12.7815 9.05C12.8215 9.25 12.8515 9.46 12.8715 9.68C12.8915 9.9 12.9115 10.12 12.9315 10.34C12.9715 10.48 12.9915 10.64 12.9915 10.82C12.9915 11 13.0015 11.17 13.0215 11.33C13.0215 11.41 13.0215 11.51 13.0215 11.63C13.0215 11.73 13.0115 11.83 12.9915 11.93C12.9715 12.07 12.9615 12.21 12.9615 12.35C12.9615 12.47 12.9615 12.6 12.9615 12.74C12.9615 12.98 12.9415 13.22 12.9015 13.46C12.8815 13.68 12.8515 13.9 12.8115 14.12C12.7715 14.44 12.7115 14.76 12.6315 15.08C12.5515 15.38 12.4615 15.69 12.3615 16.01L12.1515 16.58C11.9115 17.1 11.6315 17.6 11.3115 18.08C11.1515 18.32 10.9715 18.52 10.7715 18.68C10.6115 18.82 10.4415 18.97 10.2615 19.13C10.1015 19.27 9.94148 19.41 9.78148 19.55C9.58148 19.71 9.36148 19.86 9.12149 20C8.90148 20.14 8.67148 20.27 8.43148 20.39C8.41148 20.41 8.38148 20.42 8.34148 20.42C8.32148 20.42 8.29148 20.43 8.25148 20.45C8.13148 20.45 8.01149 20.46 7.89148 20.48C7.77148 20.52 7.65148 20.56 7.53148 20.6C7.45148 20.62 7.36148 20.63 7.26148 20.63C7.18148 20.63 7.09148 20.62 6.99148 20.6ZM27.8722 22.19C27.6922 22.19 27.5322 22.12 27.3922 21.98C27.3522 21.92 27.3122 21.86 27.2722 21.8C27.2322 21.74 27.1922 21.68 27.1522 21.62C26.9722 21.2 26.8822 20.76 26.8822 20.3L26.7922 19.58C26.7322 19.3 26.6822 19.02 26.6422 18.74C26.6022 18.46 26.5322 18.19 26.4322 17.93L26.2522 17.42C26.2522 17.38 26.2422 17.34 26.2222 17.3C26.2222 17.26 26.2122 17.22 26.1922 17.18L25.7422 15.59C25.7222 15.55 25.7022 15.5 25.6822 15.44C25.6822 15.38 25.6622 15.33 25.6222 15.29C25.5622 15.17 25.5122 15.05 25.4722 14.93C25.4522 14.79 25.4222 14.65 25.3822 14.51C25.3622 14.41 25.3422 14.32 25.3222 14.24C25.3022 14.14 25.2722 14.04 25.2322 13.94C25.1922 13.82 25.1522 13.75 25.1122 13.73C25.0722 13.69 24.9822 13.69 24.8422 13.73C24.7422 13.75 24.6322 13.77 24.5122 13.79C24.4122 13.79 24.3122 13.81 24.2122 13.85C24.1322 13.87 24.0322 13.89 23.9122 13.91C23.8122 13.91 23.7122 13.92 23.6122 13.94L23.1922 14.03C23.0922 14.05 22.9822 14.08 22.8622 14.12C22.7622 14.14 22.6622 14.15 22.5622 14.15L22.0222 14.24C21.8622 14.28 21.6922 14.32 21.5122 14.36C21.3322 14.4 21.1622 14.44 21.0022 14.48C20.5222 14.6 20.0422 14.69 19.5622 14.75C19.4022 14.79 19.3122 14.86 19.2922 14.96C19.2722 14.96 19.2622 14.97 19.2622 14.99C19.1422 15.31 19.0022 15.63 18.8422 15.95C18.7022 16.25 18.5522 16.56 18.3922 16.88C18.3522 16.96 18.3122 17.04 18.2722 17.12C18.2522 17.18 18.2222 17.25 18.1822 17.33C18.1622 17.37 18.1422 17.42 18.1222 17.48C18.1022 17.52 18.0822 17.56 18.0622 17.6C17.9422 17.74 17.8822 17.91 17.8822 18.11C17.8622 18.23 17.8222 18.35 17.7622 18.47C17.7022 18.57 17.6422 18.67 17.5822 18.77C17.5622 18.83 17.5222 18.86 17.4622 18.86C17.3822 18.88 17.3022 18.91 17.2222 18.95C17.1422 18.99 17.0522 19.03 16.9522 19.07C16.8922 19.09 16.8322 19.09 16.7722 19.07C16.7322 19.05 16.6822 19.03 16.6222 19.01C16.5822 18.97 16.5422 18.95 16.5022 18.95C16.2822 18.93 16.1222 18.8 16.0222 18.56C15.8622 18.24 15.7522 17.92 15.6922 17.6C15.6722 17.52 15.6722 17.45 15.6922 17.39C15.7322 17.33 15.7622 17.27 15.7822 17.21C15.9022 17.13 15.9722 17.04 15.9922 16.94V16.91C15.9922 16.65 16.0422 16.41 16.1422 16.19C16.2622 15.95 16.3622 15.72 16.4422 15.5C16.4822 15.38 16.5322 15.26 16.5922 15.14C16.6522 15.02 16.7122 14.9 16.7722 14.78C16.8522 14.64 16.9122 14.51 16.9522 14.39C17.0122 14.25 17.0622 14.11 17.1022 13.97C17.1622 13.81 17.1622 13.66 17.1022 13.52C17.0622 13.4 17.0422 13.29 17.0422 13.19C17.0422 13.07 17.0522 12.95 17.0722 12.83C17.0722 12.61 17.1522 12.42 17.3122 12.26C17.3922 12.16 17.4722 12.08 17.5522 12.02C17.6522 11.94 17.7422 11.86 17.8222 11.78C18.0022 11.6 18.1422 11.36 18.2422 11.06C18.3222 10.8 18.3822 10.54 18.4222 10.28C18.4822 10 18.5422 9.73 18.6022 9.47C18.6422 9.21 18.6822 8.96 18.7222 8.72C18.7822 8.46 18.8422 8.21 18.9022 7.97C18.9222 7.87 18.9422 7.78 18.9622 7.7C19.0022 7.6 19.0322 7.51 19.0522 7.43C19.1122 7.27 19.1722 7.12 19.2322 6.98C19.2922 6.82 19.3322 6.66 19.3522 6.5C19.3922 6.42 19.3922 6.35 19.3522 6.29C19.3322 6.19 19.3322 6.1 19.3522 6.02C19.3922 5.94 19.4222 5.86 19.4422 5.78C19.5022 5.64 19.5422 5.5 19.5622 5.36C19.6022 5.22 19.6522 5.08 19.7122 4.94C19.8122 4.68 19.8922 4.47 19.9522 4.31C20.0322 4.13 20.1022 3.93 20.1622 3.71C20.2022 3.59 20.2422 3.48 20.2822 3.38C20.3422 3.26 20.3822 3.14 20.4022 3.02C20.4622 2.84 20.5122 2.66 20.5522 2.48C20.5922 2.28 20.6122 2.09 20.6122 1.91C20.6522 1.75 20.6922 1.64 20.7322 1.58C20.8322 1.38 20.9522 1.21 21.0922 1.07C21.2522 0.929999 21.4022 0.789999 21.5422 0.649999C21.6422 0.59 21.7422 0.549999 21.8422 0.529999C21.9422 0.489999 22.0422 0.5 22.1422 0.56C22.2222 0.599999 22.2722 0.619999 22.2922 0.619999C22.4722 0.599999 22.6222 0.64 22.7422 0.739999C22.8622 0.839999 22.9622 0.959999 23.0422 1.1C23.0822 1.14 23.1122 1.19 23.1322 1.25C23.1522 1.31 23.1722 1.36 23.1922 1.4C23.2922 1.56 23.3422 1.72 23.3422 1.88C23.3422 1.96 23.3522 2.05 23.3722 2.15C23.3922 2.23 23.4122 2.32 23.4322 2.42C23.4922 2.54 23.5822 2.6 23.7022 2.6C23.7222 2.58 23.7422 2.58 23.7622 2.6C23.7822 2.62 23.7922 2.64 23.7922 2.66C23.8922 2.78 23.9222 2.91 23.8822 3.05C23.8422 3.21 23.8322 3.37 23.8522 3.53C23.8922 3.67 23.9322 3.82 23.9722 3.98C24.0522 4.18 24.1322 4.38 24.2122 4.58C24.2922 4.78 24.3722 4.98 24.4522 5.18C24.5522 5.4 24.6522 5.62 24.7522 5.84C24.8522 6.06 24.9422 6.28 25.0222 6.5C25.1222 6.78 25.2222 7.06 25.3222 7.34C25.4422 7.62 25.5722 7.9 25.7122 8.18L25.8022 8.51C25.8222 8.59 25.8422 8.67 25.8622 8.75C25.9022 8.83 25.9322 8.91 25.9522 8.99C25.9922 9.05 26.0222 9.11 26.0422 9.17C26.0822 9.23 26.1222 9.28 26.1622 9.32C26.2622 9.46 26.3222 9.61 26.3422 9.77C26.4022 9.97 26.4922 10.15 26.6122 10.31C26.6522 10.37 26.7122 10.4 26.7922 10.4C27.0922 10.36 27.3922 10.33 27.6922 10.31C27.9922 10.27 28.2922 10.21 28.5922 10.13C28.8122 10.07 29.0222 10.04 29.2222 10.04C29.6022 10.04 29.9522 10.17 30.2722 10.43C30.6522 10.73 30.8522 11.11 30.8722 11.57C30.8722 11.67 30.8822 11.75 30.9022 11.81C30.9022 11.95 30.8622 12.06 30.7822 12.14C30.7622 12.2 30.7222 12.26 30.6622 12.32C30.6222 12.38 30.5822 12.44 30.5422 12.5C30.5022 12.58 30.4622 12.64 30.4222 12.68L30.2422 12.83C30.2222 12.87 30.1922 12.92 30.1522 12.98C30.1122 13.02 30.0622 13.05 30.0022 13.07C29.9222 13.09 29.8422 13.12 29.7622 13.16C29.6822 13.18 29.5922 13.19 29.4922 13.19C29.1322 13.23 28.8122 13.22 28.5322 13.16H28.0522C28.0122 13.16 27.9522 13.18 27.8722 13.22C27.7922 13.26 27.7522 13.31 27.7522 13.37V13.49C27.8122 13.67 27.8522 13.86 27.8722 14.06C27.9122 14.24 27.9722 14.41 28.0522 14.57C28.0522 14.65 28.0722 14.73 28.1122 14.81C28.2122 14.99 28.2922 15.18 28.3522 15.38C28.4122 15.56 28.4622 15.75 28.5022 15.95C28.5022 15.99 28.5222 16.07 28.5622 16.19C28.6222 16.33 28.6722 16.48 28.7122 16.64C28.7522 16.78 28.7822 16.93 28.8022 17.09C28.8022 17.21 28.8322 17.32 28.8922 17.42C28.9722 17.6 29.0322 17.78 29.0722 17.96C29.1122 18.14 29.1422 18.33 29.1622 18.53C29.1822 18.55 29.1922 18.59 29.1922 18.65C29.1922 18.69 29.2022 18.73 29.2222 18.77C29.3222 18.99 29.3922 19.23 29.4322 19.49C29.4722 19.73 29.5222 19.97 29.5822 20.21C29.6222 20.33 29.6422 20.45 29.6422 20.57C29.6622 20.71 29.6722 20.85 29.6722 20.99C29.6722 21.09 29.6422 21.2 29.5822 21.32C29.5222 21.38 29.4922 21.41 29.4922 21.41C29.3722 21.43 29.3022 21.5 29.2822 21.62L29.1922 21.8C29.1522 21.88 29.0922 21.93 29.0122 21.95C28.9322 21.95 28.8622 21.98 28.8022 22.04C28.7222 22.12 28.6122 22.16 28.4722 22.16C28.3922 22.16 28.2922 22.16 28.1722 22.16C28.0722 22.16 27.9722 22.17 27.8722 22.19ZM20.6422 11.3C20.7622 11.28 20.8822 11.26 21.0022 11.24C21.1422 11.22 21.2922 11.2 21.4522 11.18C21.5522 11.16 21.6822 11.14 21.8422 11.12C22.0022 11.1 22.1522 11.08 22.2922 11.06C22.4322 11.02 22.5722 11 22.7122 11C22.8522 10.98 22.9922 10.96 23.1322 10.94C23.2522 10.9 23.3722 10.88 23.4922 10.88C23.6122 10.86 23.7322 10.84 23.8522 10.82C24.0322 10.78 24.1022 10.68 24.0622 10.52C24.0422 10.36 24.0022 10.2 23.9422 10.04C23.9022 9.86 23.8122 9.71 23.6722 9.59C23.6322 9.55 23.6122 9.49 23.6122 9.41V9.32C23.5722 9.16 23.5222 9.01 23.4622 8.87C23.4222 8.71 23.3722 8.56 23.3122 8.42C23.2722 8.26 23.2222 8.12 23.1622 8C23.1222 7.86 23.0722 7.72 23.0122 7.58L22.6522 6.5C22.5922 6.36 22.5322 6.22 22.4722 6.08C22.4322 5.94 22.3922 5.8 22.3522 5.66L22.2622 5.54H22.1722L22.1122 5.63C22.0122 5.93 21.8922 6.23 21.7522 6.53C21.6322 6.83 21.5222 7.15 21.4222 7.49C21.4222 7.53 21.4122 7.58 21.3922 7.64C21.3722 7.7 21.3522 7.76 21.3322 7.82C21.2522 8.02 21.1722 8.24 21.0922 8.48C21.0322 8.72 20.9822 8.96 20.9422 9.2C20.9222 9.34 20.9022 9.48 20.8822 9.62C20.8622 9.74 20.8322 9.87 20.7922 10.01L20.5222 11.18C20.5022 11.2 20.5122 11.23 20.5522 11.27C20.5922 11.29 20.6222 11.3 20.6422 11.3ZM45.9296 20.72C45.7496 20.74 45.5796 20.74 45.4196 20.72C45.2596 20.7 45.0996 20.62 44.9396 20.48C44.8996 20.44 44.8396 20.4 44.7596 20.36C44.6596 20.3 44.5996 20.23 44.5796 20.15C44.5596 20.07 44.5196 20.01 44.4596 19.97C44.3996 19.91 44.3596 19.84 44.3396 19.76C44.3196 19.7 44.3096 19.64 44.3096 19.58C44.3296 19.5 44.3396 19.43 44.3396 19.37C44.3396 19.31 44.3296 19.25 44.3096 19.19C44.3096 19.13 44.3096 19.07 44.3096 19.01C44.2496 18.71 44.1896 18.41 44.1296 18.11C44.0696 17.79 44.0196 17.48 43.9796 17.18C43.9596 17.04 43.9396 16.9 43.9196 16.76C43.8996 16.62 43.8796 16.48 43.8596 16.34C43.8396 16.08 43.8096 15.82 43.7696 15.56C43.7496 15.3 43.7196 15.04 43.6796 14.78C43.6396 14.62 43.6196 14.48 43.6196 14.36C43.6196 14.2 43.6096 14.05 43.5896 13.91C43.5696 13.75 43.5496 13.6 43.5296 13.46C43.5096 13.34 43.4396 13.28 43.3196 13.28L43.1096 13.25C43.0096 13.23 42.8996 13.22 42.7796 13.22C42.6596 13.22 42.5396 13.21 42.4196 13.19H42.1196C42.0796 13.21 42.0196 13.22 41.9396 13.22C41.8596 13.22 41.7796 13.22 41.6996 13.22C41.6396 13.2 41.5596 13.2 41.4596 13.22C41.3796 13.22 41.2996 13.23 41.2196 13.25C41.1596 13.25 41.0796 13.24 40.9796 13.22C40.9596 13.2 40.9196 13.2 40.8596 13.22C40.8196 13.22 40.7796 13.22 40.7396 13.22C40.6396 13.22 40.5296 13.23 40.4096 13.25C40.3096 13.25 40.2096 13.25 40.1096 13.25C40.0496 13.25 39.9896 13.25 39.9296 13.25C39.8696 13.25 39.8096 13.26 39.7496 13.28C39.6096 13.3 39.4696 13.32 39.3296 13.34C39.1896 13.34 39.0496 13.34 38.9096 13.34C38.7096 13.32 38.5096 13.32 38.3096 13.34C38.1096 13.36 37.9096 13.38 37.7096 13.4H37.6196C37.5196 13.44 37.4696 13.5 37.4696 13.58C37.4696 13.6 37.4596 13.62 37.4396 13.64C37.4396 13.64 37.4396 13.65 37.4396 13.67C37.4396 13.77 37.4496 13.85 37.4696 13.91C37.4896 14.05 37.5096 14.2 37.5296 14.36C37.5496 14.5 37.5696 14.65 37.5896 14.81L37.6796 15.53C37.6996 15.73 37.7296 15.93 37.7696 16.13C37.8096 16.31 37.8396 16.49 37.8596 16.67C37.8796 16.69 37.8896 16.72 37.8896 16.76C37.8896 16.78 37.8996 16.81 37.9196 16.85C37.9596 16.95 37.9796 17.06 37.9796 17.18C37.9796 17.3 37.9796 17.42 37.9796 17.54C38.0196 17.56 38.0096 17.6 37.9496 17.66C37.9296 17.7 37.9096 17.74 37.8896 17.78C37.8696 17.82 37.8596 17.86 37.8596 17.9C37.7996 18.1 37.6696 18.29 37.4696 18.47C37.2696 18.63 37.0796 18.72 36.8996 18.74C36.8796 18.74 36.8596 18.75 36.8396 18.77C36.8196 18.77 36.7896 18.77 36.7496 18.77C36.4896 18.83 36.2096 18.81 35.9096 18.71L35.8196 18.65C35.7996 18.57 35.7596 18.51 35.6996 18.47C35.6396 18.43 35.5896 18.39 35.5496 18.35C35.5096 18.29 35.4596 18.24 35.3996 18.2C35.3596 18.14 35.3296 18.07 35.3096 17.99C35.3096 17.97 35.2996 17.96 35.2796 17.96C35.1996 17.86 35.1496 17.75 35.1296 17.63C35.1096 17.51 35.0896 17.39 35.0696 17.27L34.9796 16.79C34.9596 16.61 34.9296 16.43 34.8896 16.25C34.8696 16.05 34.8496 15.85 34.8296 15.65L34.6496 14.48C34.6296 14.34 34.6096 14.2 34.5896 14.06C34.5696 13.9 34.5496 13.75 34.5296 13.61L34.4396 12.65C34.4196 12.45 34.3996 12.25 34.3796 12.05C34.3596 11.85 34.3296 11.65 34.2896 11.45V11.18C34.2896 11.02 34.2796 10.86 34.2596 10.7C34.2596 10.54 34.2496 10.39 34.2296 10.25C34.2096 10.19 34.1996 10.13 34.1996 10.07C34.1996 10.01 34.1996 9.95 34.1996 9.89C34.1996 9.79 34.1896 9.7 34.1696 9.62C34.1696 9.52 34.1596 9.42 34.1396 9.32L34.0496 8.69C34.0296 8.47 33.9896 8.24 33.9296 8C33.8896 7.76 33.8296 7.53 33.7496 7.31C33.7096 7.19 33.6596 7.07 33.5996 6.95C33.5396 6.81 33.4896 6.67 33.4496 6.53C33.4096 6.37 33.3696 6.26 33.3296 6.2C33.2696 6 33.2696 5.81 33.3296 5.63L33.5096 5.18C33.5296 5.1 33.5896 5.03 33.6896 4.97C33.7296 4.91 33.7796 4.86 33.8396 4.82C33.8996 4.76 33.9596 4.71 34.0196 4.67C34.0596 4.65 34.1096 4.64 34.1696 4.64C34.2296 4.66 34.3096 4.65 34.4096 4.61L34.4996 4.55C34.6796 4.45 34.8596 4.45 35.0396 4.55C35.1396 4.59 35.2396 4.63 35.3396 4.67C35.4596 4.71 35.5596 4.78 35.6396 4.88C35.7596 4.9 35.8396 4.99 35.8796 5.15L36.1496 5.75C36.3096 6.09 36.4496 6.44 36.5696 6.8C36.6896 7.16 36.7696 7.54 36.8096 7.94C36.8296 8.08 36.8496 8.23 36.8696 8.39C36.9096 8.53 36.9396 8.68 36.9596 8.84V9.08C36.9596 9.18 36.9696 9.25 36.9896 9.29C37.0096 9.43 37.0196 9.58 37.0196 9.74C37.0396 9.9 37.0496 10.06 37.0496 10.22V10.28C37.0696 10.38 37.1296 10.45 37.2296 10.49C37.2896 10.51 37.3496 10.53 37.4096 10.55C37.4696 10.55 37.5296 10.55 37.5896 10.55C37.6896 10.53 37.7696 10.53 37.8296 10.55C37.9096 10.55 37.9896 10.55 38.0696 10.55C38.2096 10.55 38.3396 10.55 38.4596 10.55C38.5796 10.53 38.7096 10.52 38.8496 10.52H39.2096C39.2696 10.52 39.3296 10.53 39.3896 10.55C39.4696 10.55 39.5396 10.54 39.5996 10.52C39.6396 10.52 39.6696 10.52 39.6896 10.52C39.7296 10.5 39.7596 10.49 39.7796 10.49C39.9796 10.51 40.1796 10.52 40.3796 10.52C40.5796 10.5 40.7796 10.49 40.9796 10.49C41.1796 10.51 41.3796 10.52 41.5796 10.52C41.7796 10.5 41.9796 10.49 42.1796 10.49C42.3396 10.49 42.4896 10.5 42.6296 10.52C42.7896 10.52 42.9396 10.52 43.0796 10.52C43.2196 10.52 43.2896 10.46 43.2896 10.34C43.2896 10.24 43.2896 10.13 43.2896 10.01C43.2896 9.89 43.2796 9.78 43.2596 9.68C43.2396 9.46 43.2196 9.26 43.1996 9.08C43.1996 8.88 43.1896 8.68 43.1696 8.48C43.1496 8.2 43.1396 7.93 43.1396 7.67C43.1596 7.39 43.1496 7.12 43.1096 6.86C43.0896 6.64 43.0696 6.42 43.0496 6.2C43.0496 5.98 43.0296 5.77 42.9896 5.57V5.15C42.9896 5.07 42.9996 5.01 43.0196 4.97C43.0196 4.93 43.0196 4.9 43.0196 4.88C43.0396 4.84 43.0496 4.81 43.0496 4.79C43.0496 4.69 43.0296 4.63 42.9896 4.61L42.8996 4.55C42.7796 4.47 42.7596 4.38 42.8396 4.28C42.8996 4.2 42.9096 4.11 42.8696 4.01C42.8696 3.95 42.8796 3.91 42.8996 3.89C42.9396 3.83 42.9796 3.77 43.0196 3.71C43.0596 3.65 43.0896 3.58 43.1096 3.5C43.1696 3.28 43.2596 3.18 43.3796 3.2C43.5196 3.2 43.6096 3.22 43.6496 3.26C43.6696 3.28 43.6896 3.29 43.7096 3.29C43.7296 3.27 43.7396 3.25 43.7396 3.23C43.7396 3.11 43.7996 3.04 43.9196 3.02C44.0396 3 44.1296 2.98 44.1896 2.96L44.3696 2.84H44.4596C44.5596 2.88 44.6396 2.93 44.6996 2.99C44.7796 3.03 44.8596 3.07 44.9396 3.11C44.9796 3.13 45.0296 3.17 45.0896 3.23C45.2296 3.41 45.3296 3.64 45.3896 3.92C45.4296 4.12 45.4696 4.31 45.5096 4.49C45.5496 4.67 45.5796 4.86 45.5996 5.06C45.5996 5.1 45.5996 5.14 45.5996 5.18C45.6196 5.22 45.6296 5.26 45.6296 5.3L45.6596 5.51C45.6596 5.75 45.6696 5.99 45.6896 6.23C45.7296 6.45 45.7596 6.68 45.7796 6.92C45.7996 6.94 45.8096 6.98 45.8096 7.04C45.7896 7.18 45.7796 7.32 45.7796 7.46C45.7996 7.58 45.8196 7.72 45.8396 7.88C45.8596 8.02 45.8696 8.18 45.8696 8.36C45.8896 8.52 45.8996 8.68 45.8996 8.84C45.8996 8.94 45.8996 9.05 45.8996 9.17C45.9196 9.29 45.9396 9.4 45.9596 9.5C45.9796 9.6 45.9896 9.7 45.9896 9.8C45.9896 9.9 45.9896 10 45.9896 10.1C45.9896 10.2 45.9896 10.3 45.9896 10.4C46.0096 10.48 46.0296 10.57 46.0496 10.67V10.79C46.0696 11.03 46.0896 11.27 46.1096 11.51C46.1496 11.73 46.1796 11.96 46.1996 12.2C46.2196 12.22 46.2296 12.26 46.2296 12.32C46.2296 12.54 46.2496 12.77 46.2896 13.01C46.3296 13.23 46.3596 13.45 46.3796 13.67L46.4696 14.72C46.4696 14.74 46.4696 14.78 46.4696 14.84C46.4896 14.88 46.4996 14.92 46.4996 14.96C46.5196 15 46.5296 15.08 46.5296 15.2C46.5296 15.38 46.5396 15.56 46.5596 15.74C46.5996 15.92 46.6296 16.1 46.6496 16.28C46.6896 16.48 46.7196 16.68 46.7396 16.88C46.7596 17.08 46.7896 17.29 46.8296 17.51C46.8696 17.75 46.9196 17.99 46.9796 18.23C47.0396 18.47 47.0896 18.71 47.1296 18.95C47.1496 19.03 47.1596 19.12 47.1596 19.22C47.1796 19.3 47.1896 19.39 47.1896 19.49C47.1896 19.59 47.1596 19.69 47.0996 19.79C47.0796 19.81 47.0596 19.85 47.0396 19.91C47.0396 19.95 47.0196 19.99 46.9796 20.03C46.9596 20.05 46.9496 20.07 46.9496 20.09C46.9496 20.11 46.9396 20.12 46.9196 20.12C46.8396 20.14 46.7696 20.19 46.7096 20.27C46.6496 20.35 46.5796 20.41 46.4996 20.45C46.4196 20.53 46.3096 20.59 46.1696 20.63L45.9296 20.72ZM67.8704 20.6C67.7904 20.56 67.7204 20.54 67.6604 20.54C67.5804 20.56 67.5104 20.54 67.4504 20.48C67.3704 20.4 67.3104 20.35 67.2704 20.33L65.8604 19.61C65.7804 19.57 65.7004 19.53 65.6204 19.49C65.5404 19.45 65.4504 19.42 65.3504 19.4C65.0904 19.3 64.8204 19.21 64.5404 19.13C64.2804 19.05 64.0204 18.96 63.7604 18.86C63.6204 18.8 63.4704 18.73 63.3104 18.65C63.1704 18.57 63.0304 18.48 62.8904 18.38C62.7504 18.28 62.6104 18.17 62.4704 18.05C62.3504 17.91 62.2404 17.76 62.1404 17.6L61.9604 17.33C61.8404 17.11 61.7504 16.89 61.6904 16.67C61.6504 16.45 61.6204 16.23 61.6004 16.01C61.5804 15.77 61.5804 15.54 61.6004 15.32C61.6404 15.08 61.6804 14.85 61.7204 14.63L61.9004 13.64C61.9404 13.44 61.9904 13.25 62.0504 13.07C62.1104 12.89 62.1804 12.71 62.2604 12.53C62.3004 12.43 62.3504 12.35 62.4104 12.29C62.5704 12.19 62.7004 12.09 62.8004 11.99C62.8604 11.93 62.9504 11.91 63.0704 11.93C63.1704 11.95 63.2704 11.91 63.3704 11.81L63.4904 11.69C63.5104 11.67 63.5604 11.66 63.6404 11.66C63.7004 11.66 63.7604 11.66 63.8204 11.66C63.8804 11.66 63.9404 11.67 64.0004 11.69C64.0404 11.69 64.0804 11.71 64.1204 11.75C64.2004 11.83 64.3004 11.87 64.4204 11.87C64.5004 11.91 64.5404 11.96 64.5404 12.02C64.5604 12.04 64.5704 12.06 64.5704 12.08C64.5704 12.1 64.5804 12.12 64.6004 12.14C64.6004 12.2 64.6404 12.23 64.7204 12.23C64.8604 12.23 64.9404 12.29 64.9604 12.41V12.65C65.0604 12.77 65.1204 12.89 65.1404 13.01C65.1804 13.21 65.1704 13.38 65.1104 13.52L65.0204 13.76C64.9604 13.86 64.9204 13.98 64.9004 14.12C64.8804 14.24 64.8604 14.36 64.8404 14.48C64.8204 14.74 64.8204 14.99 64.8404 15.23C64.8604 15.29 64.8704 15.36 64.8704 15.44C64.8704 15.5 64.8804 15.56 64.9004 15.62C64.9004 15.8 64.9804 15.94 65.1404 16.04C65.2004 16.08 65.2604 16.13 65.3204 16.19C65.4004 16.23 65.4804 16.27 65.5604 16.31C65.7204 16.37 65.8804 16.44 66.0404 16.52C66.2004 16.58 66.3604 16.64 66.5204 16.7C66.5804 16.72 66.6404 16.74 66.7004 16.76C66.7604 16.78 66.8204 16.79 66.8804 16.79C67.2204 16.85 67.5704 16.96 67.9304 17.12L68.2004 17.21C68.4004 17.27 68.5904 17.22 68.7704 17.06C68.8704 16.96 68.9704 16.87 69.0704 16.79C69.1704 16.69 69.2604 16.59 69.3404 16.49C69.8204 15.95 70.1504 15.34 70.3304 14.66C70.4104 14.4 70.4704 14.14 70.5104 13.88C70.5704 13.62 70.6204 13.36 70.6604 13.1C70.7004 12.84 70.7204 12.59 70.7204 12.35C70.7404 12.09 70.7504 11.83 70.7504 11.57V10.28C70.7304 10.2 70.7204 10.13 70.7204 10.07C70.7204 9.99 70.7104 9.91 70.6904 9.83C70.6904 9.79 70.6804 9.75 70.6604 9.71C70.6604 9.67 70.6604 9.64 70.6604 9.62C70.6604 9.34 70.6404 9.06 70.6004 8.78C70.5804 8.5 70.5604 8.23 70.5404 7.97C70.5404 7.89 70.5304 7.81 70.5104 7.73C70.5104 7.65 70.5004 7.57 70.4804 7.49C70.4804 7.45 70.4704 7.41 70.4504 7.37C70.4504 7.31 70.4504 7.26 70.4504 7.22C70.4304 6.94 70.3904 6.66 70.3304 6.38C70.2904 6.1 70.2504 5.83 70.2104 5.57C70.1704 5.25 70.1104 4.94 70.0304 4.64C69.9704 4.34 69.9004 4.03 69.8204 3.71C69.7604 3.47 69.7204 3.23 69.7004 2.99C69.6804 2.73 69.6504 2.47 69.6104 2.21C69.6104 2.15 69.6204 2.1 69.6404 2.06C69.6804 1.96 69.7304 1.85 69.7904 1.73C69.8504 1.59 69.9004 1.51 69.9404 1.49C69.9804 1.45 70.0004 1.43 70.0004 1.43C70.0604 1.35 70.1404 1.32 70.2404 1.34C70.3604 1.34 70.4404 1.3 70.4804 1.22C70.4804 1.22 70.4904 1.19 70.5104 1.13C70.5504 1.07 70.6104 1.07 70.6904 1.13C70.7304 1.15 70.7804 1.17 70.8404 1.19C70.9004 1.21 70.9504 1.22 70.9904 1.22C71.0304 1.22 71.0704 1.2 71.1104 1.16C71.2304 1.12 71.5204 1.26 71.9804 1.58L72.0404 1.64C72.0404 1.66 72.0904 1.77 72.1904 1.97C72.3104 2.15 72.3804 2.29 72.4004 2.39C72.6404 3.17 72.8504 4 73.0304 4.88L73.1204 5.33C73.1604 5.71 73.2204 6.08 73.3004 6.44C73.3804 6.8 73.4404 7.17 73.4804 7.55C73.5204 7.81 73.5504 8.07 73.5704 8.33C73.5904 8.57 73.6204 8.81 73.6604 9.05C73.7004 9.25 73.7304 9.46 73.7504 9.68C73.7704 9.9 73.7904 10.12 73.8104 10.34C73.8504 10.48 73.8704 10.64 73.8704 10.82C73.8704 11 73.8804 11.17 73.9004 11.33C73.9004 11.41 73.9004 11.51 73.9004 11.63C73.9004 11.73 73.8904 11.83 73.8704 11.93C73.8504 12.07 73.8404 12.21 73.8404 12.35C73.8404 12.47 73.8404 12.6 73.8404 12.74C73.8404 12.98 73.8204 13.22 73.7804 13.46C73.7604 13.68 73.7304 13.9 73.6904 14.12C73.6504 14.44 73.5904 14.76 73.5104 15.08C73.4304 15.38 73.3404 15.69 73.2404 16.01L73.0304 16.58C72.7904 17.1 72.5104 17.6 72.1904 18.08C72.0304 18.32 71.8504 18.52 71.6504 18.68C71.4904 18.82 71.3204 18.97 71.1404 19.13C70.9804 19.27 70.8204 19.41 70.6604 19.55C70.4604 19.71 70.2404 19.86 70.0004 20C69.7804 20.14 69.5504 20.27 69.3104 20.39C69.2904 20.41 69.2604 20.42 69.2204 20.42C69.2004 20.42 69.1704 20.43 69.1304 20.45C69.0104 20.45 68.8904 20.46 68.7704 20.48C68.6504 20.52 68.5304 20.56 68.4104 20.6C68.3304 20.62 68.2404 20.63 68.1404 20.63C68.0604 20.63 67.9704 20.62 67.8704 20.6ZM88.7511 22.19C88.5711 22.19 88.4111 22.12 88.2711 21.98C88.2311 21.92 88.1911 21.86 88.1511 21.8C88.1111 21.74 88.0711 21.68 88.0311 21.62C87.8511 21.2 87.7611 20.76 87.7611 20.3L87.6711 19.58C87.6111 19.3 87.5611 19.02 87.5211 18.74C87.4811 18.46 87.4111 18.19 87.3111 17.93L87.1311 17.42C87.1311 17.38 87.1211 17.34 87.1011 17.3C87.1011 17.26 87.0911 17.22 87.0711 17.18L86.6211 15.59C86.6011 15.55 86.5811 15.5 86.5611 15.44C86.5611 15.38 86.5411 15.33 86.5011 15.29C86.4411 15.17 86.3911 15.05 86.3511 14.93C86.3311 14.79 86.3011 14.65 86.2611 14.51C86.2411 14.41 86.2211 14.32 86.2011 14.24C86.1811 14.14 86.1511 14.04 86.1111 13.94C86.0711 13.82 86.0311 13.75 85.9911 13.73C85.9511 13.69 85.8611 13.69 85.7211 13.73C85.6211 13.75 85.5111 13.77 85.3911 13.79C85.2911 13.79 85.1911 13.81 85.0911 13.85C85.0111 13.87 84.9111 13.89 84.7911 13.91C84.6911 13.91 84.5911 13.92 84.4911 13.94L84.0711 14.03C83.9711 14.05 83.8611 14.08 83.7411 14.12C83.6411 14.14 83.5411 14.15 83.4411 14.15L82.9011 14.24C82.7411 14.28 82.5711 14.32 82.3911 14.36C82.2111 14.4 82.0411 14.44 81.8811 14.48C81.4011 14.6 80.9211 14.69 80.4411 14.75C80.2811 14.79 80.1911 14.86 80.1711 14.96C80.1511 14.96 80.1411 14.97 80.1411 14.99C80.0211 15.31 79.8811 15.63 79.7211 15.95C79.5811 16.25 79.4311 16.56 79.2711 16.88C79.2311 16.96 79.1911 17.04 79.1511 17.12C79.1311 17.18 79.1011 17.25 79.0611 17.33C79.0411 17.37 79.0211 17.42 79.0011 17.48C78.9811 17.52 78.9611 17.56 78.9411 17.6C78.8211 17.74 78.7611 17.91 78.7611 18.11C78.7411 18.23 78.7011 18.35 78.6411 18.47C78.5811 18.57 78.5211 18.67 78.4611 18.77C78.4411 18.83 78.4011 18.86 78.3411 18.86C78.2611 18.88 78.1811 18.91 78.1011 18.95C78.0211 18.99 77.9311 19.03 77.8311 19.07C77.7711 19.09 77.7111 19.09 77.6511 19.07C77.6111 19.05 77.5611 19.03 77.5011 19.01C77.4611 18.97 77.4211 18.95 77.3811 18.95C77.1611 18.93 77.0011 18.8 76.9011 18.56C76.7411 18.24 76.6311 17.92 76.5711 17.6C76.5511 17.52 76.5511 17.45 76.5711 17.39C76.6111 17.33 76.6411 17.27 76.6611 17.21C76.7811 17.13 76.8511 17.04 76.8711 16.94V16.91C76.8711 16.65 76.9211 16.41 77.0211 16.19C77.1411 15.95 77.2411 15.72 77.3211 15.5C77.3611 15.38 77.4111 15.26 77.4711 15.14C77.5311 15.02 77.5911 14.9 77.6511 14.78C77.7311 14.64 77.7911 14.51 77.8311 14.39C77.8911 14.25 77.9411 14.11 77.9811 13.97C78.0411 13.81 78.0411 13.66 77.9811 13.52C77.9411 13.4 77.9211 13.29 77.9211 13.19C77.9211 13.07 77.9311 12.95 77.9511 12.83C77.9511 12.61 78.0311 12.42 78.1911 12.26C78.2711 12.16 78.3511 12.08 78.4311 12.02C78.5311 11.94 78.6211 11.86 78.7011 11.78C78.8811 11.6 79.0211 11.36 79.1211 11.06C79.2011 10.8 79.2611 10.54 79.3011 10.28C79.3611 10 79.4211 9.73 79.4811 9.47C79.5211 9.21 79.5611 8.96 79.6011 8.72C79.6611 8.46 79.7211 8.21 79.7811 7.97C79.8011 7.87 79.8211 7.78 79.8411 7.7C79.8811 7.6 79.9111 7.51 79.9311 7.43C79.9911 7.27 80.0511 7.12 80.1111 6.98C80.1711 6.82 80.2111 6.66 80.2311 6.5C80.2711 6.42 80.2711 6.35 80.2311 6.29C80.2111 6.19 80.2111 6.1 80.2311 6.02C80.2711 5.94 80.3011 5.86 80.3211 5.78C80.3811 5.64 80.4211 5.5 80.4411 5.36C80.4811 5.22 80.5311 5.08 80.5911 4.94C80.6911 4.68 80.7711 4.47 80.8311 4.31C80.9111 4.13 80.9811 3.93 81.0411 3.71C81.0811 3.59 81.1211 3.48 81.1611 3.38C81.2211 3.26 81.2611 3.14 81.2811 3.02C81.3411 2.84 81.3911 2.66 81.4311 2.48C81.4711 2.28 81.4911 2.09 81.4911 1.91C81.5311 1.75 81.5711 1.64 81.6111 1.58C81.7111 1.38 81.8311 1.21 81.9711 1.07C82.1311 0.929999 82.2811 0.789999 82.4211 0.649999C82.5211 0.59 82.6211 0.549999 82.7211 0.529999C82.8211 0.489999 82.9211 0.5 83.0211 0.56C83.1011 0.599999 83.1511 0.619999 83.1711 0.619999C83.3511 0.599999 83.5011 0.64 83.6211 0.739999C83.7411 0.839999 83.8411 0.959999 83.9211 1.1C83.9611 1.14 83.9911 1.19 84.0111 1.25C84.0311 1.31 84.0511 1.36 84.0711 1.4C84.1711 1.56 84.2211 1.72 84.2211 1.88C84.2211 1.96 84.2311 2.05 84.2511 2.15C84.2711 2.23 84.2911 2.32 84.3111 2.42C84.3711 2.54 84.4611 2.6 84.5811 2.6C84.6011 2.58 84.6211 2.58 84.6411 2.6C84.6611 2.62 84.6711 2.64 84.6711 2.66C84.7711 2.78 84.8011 2.91 84.7611 3.05C84.7211 3.21 84.7111 3.37 84.7311 3.53C84.7711 3.67 84.8111 3.82 84.8511 3.98C84.9311 4.18 85.0111 4.38 85.0911 4.58C85.1711 4.78 85.2511 4.98 85.3311 5.18C85.4311 5.4 85.5311 5.62 85.6311 5.84C85.7311 6.06 85.8211 6.28 85.9011 6.5C86.0011 6.78 86.1011 7.06 86.2011 7.34C86.3211 7.62 86.4511 7.9 86.5911 8.18L86.6811 8.51C86.7011 8.59 86.7211 8.67 86.7411 8.75C86.7811 8.83 86.8111 8.91 86.8311 8.99C86.8711 9.05 86.9011 9.11 86.9211 9.17C86.9611 9.23 87.0011 9.28 87.0411 9.32C87.1411 9.46 87.2011 9.61 87.2211 9.77C87.2811 9.97 87.3711 10.15 87.4911 10.31C87.5311 10.37 87.5911 10.4 87.6711 10.4C87.9711 10.36 88.2711 10.33 88.5711 10.31C88.8711 10.27 89.1711 10.21 89.4711 10.13C89.6911 10.07 89.9011 10.04 90.1011 10.04C90.4811 10.04 90.8311 10.17 91.1511 10.43C91.5311 10.73 91.7311 11.11 91.7511 11.57C91.7511 11.67 91.7611 11.75 91.7811 11.81C91.7811 11.95 91.7411 12.06 91.6611 12.14C91.6411 12.2 91.6011 12.26 91.5411 12.32C91.5011 12.38 91.4611 12.44 91.4211 12.5C91.3811 12.58 91.3411 12.64 91.3011 12.68L91.1211 12.83C91.1011 12.87 91.0711 12.92 91.0311 12.98C90.9911 13.02 90.9411 13.05 90.8811 13.07C90.8011 13.09 90.7211 13.12 90.6411 13.16C90.5611 13.18 90.4711 13.19 90.3711 13.19C90.0111 13.23 89.6911 13.22 89.4111 13.16H88.9311C88.8911 13.16 88.8311 13.18 88.7511 13.22C88.6711 13.26 88.6311 13.31 88.6311 13.37V13.49C88.6911 13.67 88.7311 13.86 88.7511 14.06C88.7911 14.24 88.8511 14.41 88.9311 14.57C88.9311 14.65 88.9511 14.73 88.9911 14.81C89.0911 14.99 89.1711 15.18 89.2311 15.38C89.2911 15.56 89.3411 15.75 89.3811 15.95C89.3811 15.99 89.4011 16.07 89.4411 16.19C89.5011 16.33 89.5511 16.48 89.5911 16.64C89.6311 16.78 89.6611 16.93 89.6811 17.09C89.6811 17.21 89.7111 17.32 89.7711 17.42C89.8511 17.6 89.9111 17.78 89.9511 17.96C89.9911 18.14 90.0211 18.33 90.0411 18.53C90.0611 18.55 90.0711 18.59 90.0711 18.65C90.0711 18.69 90.0811 18.73 90.1011 18.77C90.2011 18.99 90.2711 19.23 90.3111 19.49C90.3511 19.73 90.4011 19.97 90.4611 20.21C90.5011 20.33 90.5211 20.45 90.5211 20.57C90.5411 20.71 90.5511 20.85 90.5511 20.99C90.5511 21.09 90.5211 21.2 90.4611 21.32C90.4011 21.38 90.3711 21.41 90.3711 21.41C90.2511 21.43 90.1811 21.5 90.1611 21.62L90.0711 21.8C90.0311 21.88 89.9711 21.93 89.8911 21.95C89.8111 21.95 89.7411 21.98 89.6811 22.04C89.6011 22.12 89.4911 22.16 89.3511 22.16C89.2711 22.16 89.1711 22.16 89.0511 22.16C88.9511 22.16 88.8511 22.17 88.7511 22.19ZM81.5211 11.3C81.6411 11.28 81.7611 11.26 81.8811 11.24C82.0211 11.22 82.1711 11.2 82.3311 11.18C82.4311 11.16 82.5611 11.14 82.7211 11.12C82.8811 11.1 83.0311 11.08 83.1711 11.06C83.3111 11.02 83.4511 11 83.5911 11C83.7311 10.98 83.8711 10.96 84.0111 10.94C84.1311 10.9 84.2511 10.88 84.3711 10.88C84.4911 10.86 84.6111 10.84 84.7311 10.82C84.9111 10.78 84.9811 10.68 84.9411 10.52C84.9211 10.36 84.8811 10.2 84.8211 10.04C84.7811 9.86 84.6911 9.71 84.5511 9.59C84.5111 9.55 84.4911 9.49 84.4911 9.41V9.32C84.4511 9.16 84.4011 9.01 84.3411 8.87C84.3011 8.71 84.2511 8.56 84.1911 8.42C84.1511 8.26 84.1011 8.12 84.0411 8C84.0011 7.86 83.9511 7.72 83.8911 7.58L83.5311 6.5C83.4711 6.36 83.4111 6.22 83.3511 6.08C83.3111 5.94 83.2711 5.8 83.2311 5.66L83.1411 5.54H83.0511L82.9911 5.63C82.8911 5.93 82.7711 6.23 82.6311 6.53C82.5111 6.83 82.4011 7.15 82.3011 7.49C82.3011 7.53 82.2911 7.58 82.2711 7.64C82.2511 7.7 82.2311 7.76 82.2111 7.82C82.1311 8.02 82.0511 8.24 81.9711 8.48C81.9111 8.72 81.8611 8.96 81.8211 9.2C81.8011 9.34 81.7811 9.48 81.7611 9.62C81.7411 9.74 81.7111 9.87 81.6711 10.01L81.4011 11.18C81.3811 11.2 81.3911 11.23 81.4311 11.27C81.4711 11.29 81.5011 11.3 81.5211 11.3ZM106.809 20.72C106.629 20.74 106.459 20.74 106.299 20.72C106.139 20.7 105.979 20.62 105.819 20.48C105.779 20.44 105.719 20.4 105.639 20.36C105.539 20.3 105.479 20.23 105.459 20.15C105.439 20.07 105.399 20.01 105.339 19.97C105.279 19.91 105.239 19.84 105.219 19.76C105.199 19.7 105.189 19.64 105.189 19.58C105.209 19.5 105.219 19.43 105.219 19.37C105.219 19.31 105.209 19.25 105.189 19.19C105.189 19.13 105.189 19.07 105.189 19.01C105.129 18.71 105.069 18.41 105.009 18.11C104.949 17.79 104.899 17.48 104.859 17.18C104.839 17.04 104.819 16.9 104.799 16.76C104.779 16.62 104.759 16.48 104.739 16.34C104.719 16.08 104.689 15.82 104.649 15.56C104.629 15.3 104.599 15.04 104.559 14.78C104.519 14.62 104.499 14.48 104.499 14.36C104.499 14.2 104.489 14.05 104.469 13.91C104.449 13.75 104.429 13.6 104.409 13.46C104.389 13.34 104.319 13.28 104.199 13.28L103.989 13.25C103.889 13.23 103.779 13.22 103.659 13.22C103.539 13.22 103.419 13.21 103.299 13.19H102.999C102.959 13.21 102.899 13.22 102.819 13.22C102.739 13.22 102.659 13.22 102.579 13.22C102.519 13.2 102.439 13.2 102.339 13.22C102.259 13.22 102.179 13.23 102.099 13.25C102.039 13.25 101.959 13.24 101.859 13.22C101.839 13.2 101.799 13.2 101.739 13.22C101.699 13.22 101.659 13.22 101.619 13.22C101.519 13.22 101.409 13.23 101.289 13.25C101.189 13.25 101.089 13.25 100.989 13.25C100.929 13.25 100.869 13.25 100.809 13.25C100.749 13.25 100.689 13.26 100.629 13.28C100.489 13.3 100.349 13.32 100.209 13.34C100.069 13.34 99.9285 13.34 99.7885 13.34C99.5885 13.32 99.3885 13.32 99.1885 13.34C98.9885 13.36 98.7885 13.38 98.5885 13.4H98.4985C98.3985 13.44 98.3485 13.5 98.3485 13.58C98.3485 13.6 98.3385 13.62 98.3185 13.64C98.3185 13.64 98.3185 13.65 98.3185 13.67C98.3185 13.77 98.3285 13.85 98.3485 13.91C98.3685 14.05 98.3885 14.2 98.4085 14.36C98.4285 14.5 98.4485 14.65 98.4685 14.81L98.5585 15.53C98.5785 15.73 98.6085 15.93 98.6485 16.13C98.6885 16.31 98.7185 16.49 98.7385 16.67C98.7585 16.69 98.7685 16.72 98.7685 16.76C98.7685 16.78 98.7785 16.81 98.7985 16.85C98.8385 16.95 98.8585 17.06 98.8585 17.18C98.8585 17.3 98.8585 17.42 98.8585 17.54C98.8985 17.56 98.8885 17.6 98.8285 17.66C98.8085 17.7 98.7885 17.74 98.7685 17.78C98.7485 17.82 98.7385 17.86 98.7385 17.9C98.6785 18.1 98.5485 18.29 98.3485 18.47C98.1485 18.63 97.9585 18.72 97.7785 18.74C97.7585 18.74 97.7385 18.75 97.7185 18.77C97.6985 18.77 97.6685 18.77 97.6285 18.77C97.3685 18.83 97.0885 18.81 96.7885 18.71L96.6985 18.65C96.6785 18.57 96.6385 18.51 96.5785 18.47C96.5185 18.43 96.4685 18.39 96.4285 18.35C96.3885 18.29 96.3385 18.24 96.2785 18.2C96.2385 18.14 96.2085 18.07 96.1885 17.99C96.1885 17.97 96.1785 17.96 96.1585 17.96C96.0785 17.86 96.0285 17.75 96.0085 17.63C95.9885 17.51 95.9685 17.39 95.9485 17.27L95.8585 16.79C95.8385 16.61 95.8085 16.43 95.7685 16.25C95.7485 16.05 95.7285 15.85 95.7085 15.65L95.5285 14.48C95.5085 14.34 95.4885 14.2 95.4685 14.06C95.4485 13.9 95.4285 13.75 95.4085 13.61L95.3185 12.65C95.2985 12.45 95.2785 12.25 95.2585 12.05C95.2385 11.85 95.2085 11.65 95.1685 11.45V11.18C95.1685 11.02 95.1585 10.86 95.1385 10.7C95.1385 10.54 95.1285 10.39 95.1085 10.25C95.0885 10.19 95.0785 10.13 95.0785 10.07C95.0785 10.01 95.0785 9.95 95.0785 9.89C95.0785 9.79 95.0685 9.7 95.0485 9.62C95.0485 9.52 95.0385 9.42 95.0185 9.32L94.9285 8.69C94.9085 8.47 94.8685 8.24 94.8085 8C94.7685 7.76 94.7085 7.53 94.6285 7.31C94.5885 7.19 94.5385 7.07 94.4785 6.95C94.4185 6.81 94.3685 6.67 94.3285 6.53C94.2885 6.37 94.2485 6.26 94.2085 6.2C94.1485 6 94.1485 5.81 94.2085 5.63L94.3885 5.18C94.4085 5.1 94.4685 5.03 94.5685 4.97C94.6085 4.91 94.6585 4.86 94.7185 4.82C94.7785 4.76 94.8385 4.71 94.8985 4.67C94.9385 4.65 94.9885 4.64 95.0485 4.64C95.1085 4.66 95.1885 4.65 95.2885 4.61L95.3785 4.55C95.5585 4.45 95.7385 4.45 95.9185 4.55C96.0185 4.59 96.1185 4.63 96.2185 4.67C96.3385 4.71 96.4385 4.78 96.5185 4.88C96.6385 4.9 96.7185 4.99 96.7585 5.15L97.0285 5.75C97.1885 6.09 97.3285 6.44 97.4485 6.8C97.5685 7.16 97.6485 7.54 97.6885 7.94C97.7085 8.08 97.7285 8.23 97.7485 8.39C97.7885 8.53 97.8185 8.68 97.8385 8.84V9.08C97.8385 9.18 97.8485 9.25 97.8685 9.29C97.8885 9.43 97.8985 9.58 97.8985 9.74C97.9185 9.9 97.9285 10.06 97.9285 10.22V10.28C97.9485 10.38 98.0085 10.45 98.1085 10.49C98.1685 10.51 98.2285 10.53 98.2885 10.55C98.3485 10.55 98.4085 10.55 98.4685 10.55C98.5685 10.53 98.6485 10.53 98.7085 10.55C98.7885 10.55 98.8685 10.55 98.9485 10.55C99.0885 10.55 99.2185 10.55 99.3385 10.55C99.4585 10.53 99.5885 10.52 99.7285 10.52H100.089C100.149 10.52 100.209 10.53 100.269 10.55C100.349 10.55 100.419 10.54 100.479 10.52C100.519 10.52 100.549 10.52 100.569 10.52C100.609 10.5 100.639 10.49 100.659 10.49C100.859 10.51 101.059 10.52 101.259 10.52C101.459 10.5 101.659 10.49 101.859 10.49C102.059 10.51 102.259 10.52 102.459 10.52C102.659 10.5 102.859 10.49 103.059 10.49C103.219 10.49 103.369 10.5 103.509 10.52C103.669 10.52 103.819 10.52 103.959 10.52C104.099 10.52 104.169 10.46 104.169 10.34C104.169 10.24 104.169 10.13 104.169 10.01C104.169 9.89 104.159 9.78 104.139 9.68C104.119 9.46 104.099 9.26 104.079 9.08C104.079 8.88 104.069 8.68 104.049 8.48C104.029 8.2 104.019 7.93 104.019 7.67C104.039 7.39 104.029 7.12 103.989 6.86C103.969 6.64 103.949 6.42 103.929 6.2C103.929 5.98 103.909 5.77 103.869 5.57V5.15C103.869 5.07 103.879 5.01 103.899 4.97C103.899 4.93 103.899 4.9 103.899 4.88C103.919 4.84 103.929 4.81 103.929 4.79C103.929 4.69 103.909 4.63 103.869 4.61L103.779 4.55C103.659 4.47 103.639 4.38 103.719 4.28C103.779 4.2 103.789 4.11 103.749 4.01C103.749 3.95 103.759 3.91 103.779 3.89C103.819 3.83 103.859 3.77 103.899 3.71C103.939 3.65 103.969 3.58 103.989 3.5C104.049 3.28 104.139 3.18 104.259 3.2C104.399 3.2 104.489 3.22 104.529 3.26C104.549 3.28 104.569 3.29 104.589 3.29C104.609 3.27 104.619 3.25 104.619 3.23C104.619 3.11 104.679 3.04 104.799 3.02C104.919 3 105.009 2.98 105.069 2.96L105.249 2.84H105.339C105.439 2.88 105.519 2.93 105.579 2.99C105.659 3.03 105.739 3.07 105.819 3.11C105.859 3.13 105.909 3.17 105.969 3.23C106.109 3.41 106.209 3.64 106.269 3.92C106.309 4.12 106.349 4.31 106.389 4.49C106.429 4.67 106.459 4.86 106.479 5.06C106.479 5.1 106.479 5.14 106.479 5.18C106.499 5.22 106.509 5.26 106.509 5.3L106.539 5.51C106.539 5.75 106.549 5.99 106.569 6.23C106.609 6.45 106.639 6.68 106.659 6.92C106.679 6.94 106.689 6.98 106.689 7.04C106.669 7.18 106.659 7.32 106.659 7.46C106.679 7.58 106.699 7.72 106.719 7.88C106.739 8.02 106.749 8.18 106.749 8.36C106.769 8.52 106.779 8.68 106.779 8.84C106.779 8.94 106.779 9.05 106.779 9.17C106.799 9.29 106.819 9.4 106.839 9.5C106.859 9.6 106.869 9.7 106.869 9.8C106.869 9.9 106.869 10 106.869 10.1C106.869 10.2 106.869 10.3 106.869 10.4C106.889 10.48 106.909 10.57 106.929 10.67V10.79C106.949 11.03 106.969 11.27 106.989 11.51C107.029 11.73 107.059 11.96 107.079 12.2C107.099 12.22 107.109 12.26 107.109 12.32C107.109 12.54 107.129 12.77 107.169 13.01C107.209 13.23 107.239 13.45 107.259 13.67L107.349 14.72C107.349 14.74 107.349 14.78 107.349 14.84C107.369 14.88 107.379 14.92 107.379 14.96C107.399 15 107.409 15.08 107.409 15.2C107.409 15.38 107.419 15.56 107.439 15.74C107.479 15.92 107.509 16.1 107.529 16.28C107.569 16.48 107.599 16.68 107.619 16.88C107.639 17.08 107.669 17.29 107.709 17.51C107.749 17.75 107.799 17.99 107.859 18.23C107.919 18.47 107.969 18.71 108.009 18.95C108.029 19.03 108.039 19.12 108.039 19.22C108.059 19.3 108.069 19.39 108.069 19.49C108.069 19.59 108.039 19.69 107.979 19.79C107.959 19.81 107.939 19.85 107.919 19.91C107.919 19.95 107.899 19.99 107.859 20.03C107.839 20.05 107.829 20.07 107.829 20.09C107.829 20.11 107.819 20.12 107.799 20.12C107.719 20.14 107.649 20.19 107.589 20.27C107.529 20.35 107.459 20.41 107.379 20.45C107.299 20.53 107.189 20.59 107.049 20.63L106.809 20.72ZM127.849 20.15C127.769 20.15 127.699 20.15 127.639 20.15C127.579 20.15 127.509 20.14 127.429 20.12C127.389 20.12 127.339 20.11 127.279 20.09C127.239 20.09 127.199 20.09 127.159 20.09C126.839 20.07 126.539 20.01 126.259 19.91C125.979 19.81 125.699 19.69 125.419 19.55C125.399 19.55 125.379 19.55 125.359 19.55C125.359 19.53 125.349 19.52 125.329 19.52C125.129 19.42 124.949 19.3 124.789 19.16C124.649 19.02 124.509 18.88 124.369 18.74C124.209 18.54 124.099 18.35 124.039 18.17C123.959 18.01 123.859 17.84 123.739 17.66C123.539 17.44 123.389 17.16 123.289 16.82C123.229 16.66 123.169 16.5 123.109 16.34C123.049 16.18 122.999 16.01 122.959 15.83C122.939 15.77 122.919 15.71 122.899 15.65C122.879 15.57 122.849 15.49 122.809 15.41C122.769 15.31 122.729 15.2 122.689 15.08C122.669 14.96 122.639 14.84 122.599 14.72C122.579 14.64 122.549 14.51 122.509 14.33C122.489 14.13 122.479 14.01 122.479 13.97V12.68C122.499 12.56 122.519 12.45 122.539 12.35C122.559 12.23 122.579 12.11 122.599 11.99L122.629 11.96C122.629 11.98 122.629 11.99 122.629 11.99C122.649 11.99 122.659 12 122.659 12.02C122.679 12.02 122.689 12.03 122.689 12.05C122.709 12.07 122.719 12.06 122.719 12.02C122.719 11.9 122.709 11.8 122.689 11.72C122.689 11.68 122.679 11.64 122.659 11.6C122.659 11.56 122.699 11.53 122.779 11.51C122.799 11.51 122.809 11.48 122.809 11.42L123.079 10.1C123.099 10 123.119 9.91 123.139 9.83C123.159 9.73 123.179 9.64 123.199 9.56L123.259 9.23C123.239 9.27 123.249 9.2 123.289 9.02C123.349 8.84 123.389 8.72 123.409 8.66C123.449 8.56 123.499 8.46 123.559 8.36C123.639 8.26 123.689 8.19 123.709 8.15C123.869 7.97 124.019 7.72 124.159 7.4L124.729 6.5C124.809 6.42 124.849 6.32 124.849 6.2C124.829 6.1 124.859 5.99 124.939 5.87C124.999 5.75 125.059 5.63 125.119 5.51C125.199 5.39 125.279 5.27 125.359 5.15C125.459 4.99 125.569 4.83 125.689 4.67C125.829 4.49 125.959 4.33 126.079 4.19C126.119 4.13 126.159 4.07 126.199 4.01C126.259 3.95 126.329 3.91 126.409 3.89C126.449 3.89 126.479 3.88 126.499 3.86C126.519 3.84 126.539 3.82 126.559 3.8C126.959 3.38 127.409 2.99 127.909 2.63C127.949 2.59 127.989 2.55 128.029 2.51C128.069 2.47 128.109 2.44 128.149 2.42C128.249 2.36 128.359 2.33 128.479 2.33C128.579 2.33 128.659 2.32 128.719 2.3C128.779 2.3 128.869 2.28 128.989 2.24C129.129 2.2 129.239 2.22 129.319 2.3C129.439 2.42 129.639 2.46 129.919 2.42C130.099 2.4 130.249 2.5 130.369 2.72C130.409 2.78 130.439 2.84 130.459 2.9C130.499 2.96 130.549 3.01 130.609 3.05C130.669 3.17 130.749 3.28 130.849 3.38C130.969 3.48 131.069 3.58 131.149 3.68L131.539 4.22C131.579 4.28 131.619 4.35 131.659 4.43C131.719 4.49 131.769 4.55 131.809 4.61C131.909 4.71 131.969 4.81 131.989 4.91C132.029 5.01 132.059 5.08 132.079 5.12C132.119 5.14 132.149 5.23 132.169 5.39C132.189 5.47 132.189 5.52 132.169 5.54C132.169 5.54 132.209 5.54 132.289 5.54C132.369 5.54 132.409 5.59 132.409 5.69C132.409 5.91 132.369 6.1 132.289 6.26C132.249 6.32 132.209 6.35 132.169 6.35C132.149 6.35 132.119 6.37 132.079 6.41C132.019 6.51 131.949 6.61 131.869 6.71C131.809 6.81 131.739 6.92 131.659 7.04C131.599 7.14 131.519 7.23 131.419 7.31C131.339 7.39 131.249 7.47 131.149 7.55C130.989 7.71 130.799 7.77 130.579 7.73C130.399 7.73 130.269 7.72 130.189 7.7C130.129 7.68 130.069 7.66 130.009 7.64C129.969 7.6 129.919 7.57 129.859 7.55C129.819 7.55 129.779 7.53 129.739 7.49C129.719 7.45 129.699 7.42 129.679 7.4C129.659 7.36 129.629 7.33 129.589 7.31C129.489 7.25 129.409 7.18 129.349 7.1C129.289 7 129.239 6.91 129.199 6.83C129.179 6.77 129.169 6.71 129.169 6.65C129.169 6.59 129.169 6.54 129.169 6.5C129.149 6.38 129.129 6.26 129.109 6.14C129.109 6.02 129.089 5.9 129.049 5.78C129.049 5.74 128.999 5.72 128.899 5.72C128.779 5.8 128.659 5.88 128.539 5.96C128.419 6.04 128.309 6.14 128.209 6.26L127.279 7.37C127.219 7.43 127.159 7.5 127.099 7.58C127.059 7.64 127.019 7.7 126.979 7.76C126.899 7.86 126.819 7.97 126.739 8.09C126.679 8.19 126.599 8.29 126.499 8.39C126.459 8.43 126.429 8.47 126.409 8.51C126.349 8.65 126.279 8.78 126.199 8.9C126.139 9.02 126.079 9.16 126.019 9.32C125.919 9.52 125.829 9.74 125.749 9.98C125.689 10.2 125.639 10.43 125.599 10.67C125.579 10.97 125.519 11.27 125.419 11.57C125.399 11.67 125.379 11.78 125.359 11.9C125.339 12.02 125.319 12.14 125.299 12.26C125.279 12.44 125.249 12.62 125.209 12.8C125.169 12.98 125.159 13.17 125.179 13.37C125.219 13.77 125.279 14.15 125.359 14.51C125.419 14.71 125.469 14.91 125.509 15.11C125.569 15.29 125.629 15.48 125.689 15.68C125.709 15.74 125.729 15.8 125.749 15.86C125.769 15.92 125.789 15.98 125.809 16.04C125.929 16.32 126.149 16.54 126.469 16.7C126.589 16.76 126.719 16.79 126.859 16.79C126.979 16.79 127.099 16.8 127.219 16.82C127.339 16.82 127.459 16.81 127.579 16.79C128.139 16.73 128.659 16.64 129.139 16.52C129.359 16.48 129.569 16.42 129.769 16.34C129.969 16.26 130.169 16.18 130.369 16.1C130.529 16.04 130.679 15.95 130.819 15.83C130.979 15.71 131.139 15.59 131.299 15.47C131.479 15.33 131.649 15.19 131.809 15.05C131.969 14.91 132.129 14.77 132.289 14.63C132.449 14.49 132.599 14.34 132.739 14.18C132.799 14.12 132.889 14.05 133.009 13.97C133.069 13.93 133.129 13.89 133.189 13.85C133.249 13.81 133.299 13.77 133.339 13.73C133.439 13.67 133.529 13.61 133.609 13.55C133.709 13.49 133.819 13.46 133.939 13.46C133.999 13.42 134.059 13.4 134.119 13.4C134.199 13.38 134.269 13.36 134.329 13.34C134.509 13.28 134.669 13.28 134.809 13.34C134.869 13.36 134.929 13.38 134.989 13.4C135.049 13.42 135.109 13.45 135.169 13.49C135.329 13.59 135.479 13.75 135.619 13.97C135.719 14.21 135.769 14.42 135.769 14.6V14.78C135.769 15.04 135.669 15.27 135.469 15.47C135.249 15.75 135.019 15.97 134.779 16.13C134.639 16.21 134.499 16.32 134.359 16.46C134.159 16.62 133.949 16.79 133.729 16.97C133.529 17.15 133.319 17.32 133.099 17.48L132.979 17.6C132.919 17.64 132.859 17.69 132.799 17.75C132.739 17.81 132.669 17.86 132.589 17.9C132.449 18.04 132.289 18.17 132.109 18.29C131.929 18.39 131.749 18.49 131.569 18.59C131.389 18.67 131.219 18.79 131.059 18.95C130.999 19.01 130.939 19.07 130.879 19.13C130.819 19.19 130.749 19.24 130.669 19.28C130.409 19.42 130.109 19.56 129.769 19.7C129.749 19.72 129.719 19.74 129.679 19.76C129.639 19.78 129.599 19.8 129.559 19.82C129.439 19.88 129.309 19.93 129.169 19.97C129.049 19.99 128.929 20.01 128.809 20.03C128.649 20.05 128.489 20.06 128.329 20.06C128.169 20.08 128.009 20.11 127.849 20.15ZM141.024 20.6C140.644 20.64 140.334 20.52 140.094 20.24C139.974 20.12 139.864 19.99 139.764 19.85C139.664 19.71 139.584 19.56 139.524 19.4C139.424 19.12 139.334 18.84 139.254 18.56C139.174 18.26 139.104 17.97 139.044 17.69C138.984 17.47 138.954 17.26 138.954 17.06C138.934 16.84 138.904 16.63 138.864 16.43C138.844 16.21 138.834 15.99 138.834 15.77C138.834 15.65 138.834 15.53 138.834 15.41C138.834 15.27 138.824 15.14 138.804 15.02C138.784 14.94 138.774 14.87 138.774 14.81C138.774 14.75 138.774 14.68 138.774 14.6C138.774 14.32 138.774 14.04 138.774 13.76C138.774 13.46 138.764 13.17 138.744 12.89C138.744 12.73 138.734 12.59 138.714 12.47C138.694 12.33 138.654 12.19 138.594 12.05C138.514 11.83 138.504 11.59 138.564 11.33C138.564 11.27 138.574 11.23 138.594 11.21C138.634 11.07 138.654 10.93 138.654 10.79C138.674 10.65 138.674 10.51 138.654 10.37C138.634 10.27 138.624 10.17 138.624 10.07C138.624 9.97 138.624 9.88 138.624 9.8C138.604 9.58 138.594 9.36 138.594 9.14C138.614 8.9 138.634 8.67 138.654 8.45C138.674 8.39 138.684 8.33 138.684 8.27C138.684 8.21 138.684 8.15 138.684 8.09C138.664 7.87 138.664 7.66 138.684 7.46C138.724 7.26 138.754 7.06 138.774 6.86C138.814 6.62 138.854 6.39 138.894 6.17C138.934 5.93 138.984 5.69 139.044 5.45C139.084 5.35 139.104 5.24 139.104 5.12C139.104 5 139.104 4.88 139.104 4.76C139.104 4.66 139.094 4.56 139.074 4.46C139.074 4.36 139.074 4.27 139.074 4.19C139.074 4.13 139.074 4.07 139.074 4.01C139.074 3.95 139.084 3.89 139.104 3.83C139.124 3.77 139.134 3.71 139.134 3.65C139.134 3.59 139.144 3.55 139.164 3.53C139.224 3.45 139.274 3.38 139.314 3.32C139.354 3.24 139.414 3.17 139.494 3.11C139.594 3.05 139.684 2.99 139.764 2.93C139.864 2.87 139.954 2.82 140.034 2.78C140.134 2.74 140.214 2.69 140.274 2.63C140.354 2.53 140.434 2.44 140.514 2.36C140.614 2.26 140.694 2.15 140.754 2.03C140.854 1.93 140.954 1.82 141.054 1.7C141.174 1.56 141.304 1.45 141.444 1.37C141.484 1.35 141.544 1.3 141.624 1.22C141.864 0.999999 142.144 0.859999 142.464 0.799999C142.524 0.779999 142.574 0.769999 142.614 0.769999C142.674 0.749999 142.734 0.739999 142.794 0.739999L143.004 0.649999C143.164 0.59 143.304 0.62 143.424 0.739999C143.464 0.799999 143.514 0.859998 143.574 0.919999C143.654 0.96 143.724 1 143.784 1.04C143.944 1.18 144.094 1.33 144.234 1.49C144.394 1.65 144.534 1.83 144.654 2.03C144.854 2.35 145.024 2.67 145.164 2.99C145.324 3.31 145.474 3.64 145.614 3.98L146.154 5.27C146.174 5.39 146.224 5.5 146.304 5.6C146.464 5.9 146.584 6.21 146.664 6.53C146.744 6.83 146.824 7.14 146.904 7.46C146.924 7.5 146.934 7.54 146.934 7.58C146.954 7.62 146.964 7.66 146.964 7.7C147.004 7.86 147.034 8.03 147.054 8.21C147.094 8.37 147.104 8.53 147.084 8.69C147.104 8.87 147.094 9.05 147.054 9.23C147.034 9.39 147.004 9.55 146.964 9.71C146.904 9.91 146.834 10.1 146.754 10.28C146.674 10.44 146.584 10.61 146.484 10.79C146.444 10.91 146.374 11.02 146.274 11.12C146.174 11.22 146.074 11.31 145.974 11.39C145.814 11.47 145.654 11.59 145.494 11.75C145.454 11.79 145.404 11.82 145.344 11.84C145.304 11.86 145.264 11.89 145.224 11.93C145.084 11.99 144.934 12.06 144.774 12.14C144.614 12.2 144.454 12.26 144.294 12.32C144.274 12.32 144.264 12.34 144.264 12.38C144.264 12.4 144.274 12.42 144.294 12.44L145.104 13.01C145.204 13.07 145.294 13.13 145.374 13.19C145.454 13.23 145.534 13.28 145.614 13.34L145.794 13.43C146.034 13.57 146.274 13.72 146.514 13.88C146.754 14.04 146.984 14.2 147.204 14.36C147.624 14.62 148.044 14.89 148.464 15.17C148.884 15.43 149.284 15.72 149.664 16.04C150.004 16.3 150.304 16.6 150.564 16.94C150.624 17 150.684 17.07 150.744 17.15C150.804 17.21 150.874 17.26 150.954 17.3L151.044 17.39C151.364 17.67 151.544 18.05 151.584 18.53C151.584 18.59 151.574 18.65 151.554 18.71C151.554 18.77 151.554 18.83 151.554 18.89C151.554 19.01 151.514 19.11 151.434 19.19C151.354 19.23 151.314 19.28 151.314 19.34C151.254 19.48 151.164 19.58 151.044 19.64C150.944 19.68 150.844 19.74 150.744 19.82C150.704 19.84 150.634 19.85 150.534 19.85C150.414 19.83 150.284 19.81 150.144 19.79C150.024 19.77 149.904 19.76 149.784 19.76C149.624 19.76 149.454 19.69 149.274 19.55C149.154 19.45 149.044 19.36 148.944 19.28C148.844 19.18 148.744 19.06 148.644 18.92C148.384 18.56 148.044 18.23 147.624 17.93C147.424 17.77 147.234 17.62 147.054 17.48C146.874 17.34 146.674 17.21 146.454 17.09C146.314 17.01 146.174 16.93 146.034 16.85C145.914 16.75 145.774 16.66 145.614 16.58C145.114 16.24 144.604 15.91 144.084 15.59C143.564 15.25 143.044 14.91 142.524 14.57C142.444 14.51 142.354 14.45 142.254 14.39C142.154 14.33 142.054 14.27 141.954 14.21C141.914 14.17 141.854 14.13 141.774 14.09C141.694 14.09 141.654 14.12 141.654 14.18C141.654 14.2 141.644 14.22 141.624 14.24C141.624 14.24 141.624 14.25 141.624 14.27C141.624 14.33 141.624 14.39 141.624 14.45C141.624 14.51 141.634 14.57 141.654 14.63C141.674 14.79 141.684 14.95 141.684 15.11C141.684 15.25 141.684 15.4 141.684 15.56C141.684 15.68 141.684 15.8 141.684 15.92C141.704 16.02 141.724 16.13 141.744 16.25C141.744 16.31 141.744 16.38 141.744 16.46C141.764 16.52 141.774 16.58 141.774 16.64C141.754 16.82 141.764 17 141.804 17.18C141.844 17.36 141.874 17.54 141.894 17.72L142.074 18.5C142.094 18.58 142.114 18.67 142.134 18.77C142.154 18.85 142.174 18.94 142.194 19.04C142.214 19.12 142.214 19.2 142.194 19.28C142.194 19.34 142.184 19.41 142.164 19.49C142.164 19.51 142.144 19.54 142.104 19.58C142.004 19.6 141.934 19.67 141.894 19.79C141.834 19.93 141.744 20.05 141.624 20.15C141.524 20.27 141.414 20.38 141.294 20.48C141.274 20.5 141.234 20.52 141.174 20.54C141.114 20.56 141.064 20.58 141.024 20.6ZM142.194 10.1H142.254C142.474 10.06 142.694 10.02 142.914 9.98C143.154 9.92 143.384 9.85 143.604 9.77C143.824 9.71 144.014 9.6 144.174 9.44C144.314 9.3 144.384 9.14 144.384 8.96C144.404 8.82 144.404 8.69 144.384 8.57C144.384 8.43 144.364 8.29 144.324 8.15C144.244 7.79 144.154 7.44 144.054 7.1C143.954 6.74 143.834 6.4 143.694 6.08L143.424 5.36C143.364 5.16 143.294 4.97 143.214 4.79C143.134 4.59 143.044 4.4 142.944 4.22C142.924 4.18 142.904 4.14 142.884 4.1C142.864 4.04 142.844 3.99 142.824 3.95L142.704 3.83C142.644 3.75 142.574 3.75 142.494 3.83C142.474 3.83 142.444 3.85 142.404 3.89C142.264 4.07 142.134 4.26 142.014 4.46C141.914 4.66 141.854 4.88 141.834 5.12C141.814 5.2 141.794 5.28 141.774 5.36C141.774 5.44 141.774 5.53 141.774 5.63V6.92C141.754 7.2 141.744 7.49 141.744 7.79C141.764 8.09 141.754 8.38 141.714 8.66C141.694 8.72 141.684 8.78 141.684 8.84C141.704 8.9 141.714 8.96 141.714 9.02C141.734 9.14 141.744 9.26 141.744 9.38C141.744 9.48 141.744 9.59 141.744 9.71C141.744 9.91 141.764 10.03 141.804 10.07C141.864 10.11 141.994 10.12 142.194 10.1ZM160.129 20.6C159.929 20.58 159.729 20.55 159.529 20.51C159.349 20.49 159.169 20.44 158.989 20.36L158.239 20.09C157.979 19.99 157.739 19.88 157.519 19.76C157.299 19.62 157.079 19.48 156.859 19.34C156.759 19.24 156.659 19.15 156.559 19.07C156.459 18.97 156.359 18.88 156.259 18.8C156.099 18.64 155.939 18.48 155.779 18.32C155.619 18.14 155.469 17.95 155.329 17.75L154.609 16.64C154.429 16.36 154.269 16.07 154.129 15.77C153.989 15.45 153.869 15.13 153.769 14.81C153.549 14.21 153.439 13.62 153.439 13.04V12.56C153.439 12.06 153.469 11.57 153.529 11.09C153.569 10.69 153.659 10.33 153.799 10.01C153.879 9.81 153.949 9.61 154.009 9.41C154.069 9.21 154.139 9.02 154.219 8.84L154.309 8.63C154.349 8.37 154.439 8.14 154.579 7.94C154.719 7.72 154.839 7.51 154.939 7.31C155.019 7.15 155.109 7.01 155.209 6.89C155.309 6.75 155.399 6.61 155.479 6.47C155.519 6.41 155.569 6.36 155.629 6.32C155.689 6.26 155.739 6.2 155.779 6.14C155.819 6.1 155.849 6.05 155.869 5.99C155.909 5.91 155.939 5.84 155.959 5.78C155.999 5.72 156.069 5.64 156.169 5.54C156.289 5.48 156.399 5.34 156.499 5.12C156.539 5.04 156.579 4.98 156.619 4.94C156.739 4.84 156.839 4.72 156.919 4.58C157.019 4.44 157.129 4.31 157.249 4.19C157.329 4.11 157.369 4 157.369 3.86C157.369 3.76 157.369 3.67 157.369 3.59C157.389 3.49 157.389 3.4 157.369 3.32C157.349 3.22 157.379 3.13 157.459 3.05C157.499 3.01 157.529 2.96 157.549 2.9C157.569 2.84 157.589 2.78 157.609 2.72C157.669 2.52 157.829 2.35 158.089 2.21C158.129 2.17 158.179 2.15 158.239 2.15C158.319 2.13 158.389 2.11 158.449 2.09C158.589 2.03 158.749 2.02 158.929 2.06C159.009 2.08 159.079 2.09 159.139 2.09C159.199 2.07 159.259 2.05 159.319 2.03C159.399 1.99 159.469 1.96 159.529 1.94C159.609 1.92 159.679 1.9 159.739 1.88C160.019 1.78 160.309 1.79 160.609 1.91C160.929 2.03 161.159 2.24 161.299 2.54C161.339 2.64 161.379 2.74 161.419 2.84C161.459 2.94 161.489 3.04 161.509 3.14C161.549 3.36 161.539 3.55 161.479 3.71C161.439 3.79 161.419 3.84 161.419 3.86C161.399 3.94 161.419 4.01 161.479 4.07C161.519 4.13 161.569 4.18 161.629 4.22C161.849 4.42 162.059 4.62 162.259 4.82C162.459 5 162.649 5.2 162.829 5.42C162.989 5.58 163.119 5.75 163.219 5.93C163.339 6.09 163.449 6.27 163.549 6.47C163.589 6.57 163.639 6.68 163.699 6.8C163.759 6.9 163.819 7 163.879 7.1C163.979 7.28 164.059 7.47 164.119 7.67C164.199 7.87 164.279 8.07 164.359 8.27V8.3C164.399 8.44 164.429 8.59 164.449 8.75C164.489 8.89 164.549 9.04 164.629 9.2C164.689 9.34 164.739 9.49 164.779 9.65C164.819 9.79 164.859 9.94 164.899 10.1C164.939 10.28 164.979 10.46 165.019 10.64C165.079 10.82 165.119 11 165.139 11.18C165.159 11.26 165.179 11.34 165.199 11.42C165.219 11.48 165.239 11.55 165.259 11.63C165.299 11.81 165.339 11.99 165.379 12.17C165.419 12.35 165.449 12.53 165.469 12.71L165.559 12.92C165.599 13.04 165.639 13.2 165.679 13.4C165.739 13.66 165.769 13.92 165.769 14.18C165.789 14.44 165.789 14.71 165.769 14.99C165.769 15.13 165.759 15.24 165.739 15.32C165.619 15.74 165.469 16.17 165.289 16.61C165.209 16.75 165.129 16.89 165.049 17.03C164.969 17.15 164.889 17.28 164.809 17.42L164.539 17.84C164.439 18.02 164.329 18.18 164.209 18.32C164.009 18.64 163.769 18.92 163.489 19.16C163.209 19.4 162.909 19.63 162.589 19.85C161.889 20.39 161.069 20.64 160.129 20.6ZM160.009 17.63C160.429 17.63 160.789 17.51 161.089 17.27C161.189 17.17 161.289 17.08 161.389 17C161.509 16.9 161.609 16.8 161.689 16.7C162.069 16.28 162.369 15.84 162.589 15.38L162.679 15.08C162.719 14.72 162.719 14.36 162.679 14L162.499 13.01C162.439 12.75 162.389 12.5 162.349 12.26C162.309 12 162.249 11.75 162.169 11.51C162.109 11.37 162.089 11.26 162.109 11.18C162.129 11.08 162.129 10.98 162.109 10.88C162.089 10.78 162.059 10.68 162.019 10.58C161.959 10.32 161.889 10.06 161.809 9.8C161.729 9.54 161.649 9.28 161.569 9.02C161.549 8.96 161.529 8.9 161.509 8.84C161.489 8.78 161.469 8.72 161.449 8.66C161.309 8.38 161.159 8.11 160.999 7.85C160.839 7.59 160.659 7.35 160.459 7.13C160.359 7.01 160.249 6.9 160.129 6.8C160.009 6.68 159.889 6.57 159.769 6.47C159.749 6.43 159.719 6.41 159.679 6.41C159.659 6.39 159.629 6.37 159.589 6.35C159.529 6.27 159.449 6.28 159.349 6.38C159.249 6.48 159.139 6.59 159.019 6.71C158.919 6.83 158.819 6.95 158.719 7.07C158.619 7.21 158.509 7.35 158.389 7.49C158.289 7.63 158.189 7.77 158.089 7.91C157.949 8.09 157.819 8.27 157.699 8.45C157.579 8.63 157.459 8.81 157.339 8.99C156.919 9.67 156.589 10.42 156.349 11.24C156.309 11.36 156.289 11.45 156.289 11.51C156.269 11.65 156.249 11.79 156.229 11.93C156.229 12.07 156.229 12.22 156.229 12.38V12.62C156.249 12.68 156.259 12.74 156.259 12.8C156.259 12.86 156.269 12.92 156.289 12.98C156.289 13.22 156.349 13.48 156.469 13.76C156.629 14.16 156.809 14.55 157.009 14.93C157.209 15.31 157.439 15.67 157.699 16.01C157.759 16.09 157.819 16.17 157.879 16.25C157.959 16.33 158.029 16.41 158.089 16.49C158.269 16.69 158.459 16.87 158.659 17.03C158.879 17.19 159.099 17.33 159.319 17.45C159.559 17.57 159.789 17.63 160.009 17.63ZM184.662 20.3C184.542 20.28 184.422 20.27 184.302 20.27C184.182 20.27 184.072 20.24 183.972 20.18C183.812 20.12 183.682 20.05 183.582 19.97C183.382 19.79 183.202 19.58 183.042 19.34C183.022 19.3 183.002 19.25 182.982 19.19C182.962 19.13 182.932 19.08 182.892 19.04C182.812 18.86 182.732 18.68 182.652 18.5C182.572 18.32 182.482 18.14 182.382 17.96C182.282 17.78 182.182 17.6 182.082 17.42C181.982 17.24 181.882 17.06 181.782 16.88C181.682 16.7 181.582 16.52 181.482 16.34C181.382 16.16 181.292 15.97 181.212 15.77L181.032 15.47C180.952 15.33 180.872 15.19 180.792 15.05C180.712 14.91 180.652 14.77 180.612 14.63C180.592 14.57 180.542 14.48 180.462 14.36L180.192 13.91C180.132 13.77 180.062 13.63 179.982 13.49C179.922 13.35 179.842 13.22 179.742 13.1L179.562 12.83C179.242 12.31 178.942 11.77 178.662 11.21C178.602 11.09 178.532 10.97 178.452 10.85C178.392 10.73 178.322 10.61 178.242 10.49C178.222 10.41 178.182 10.34 178.122 10.28C178.082 10.22 178.042 10.16 178.002 10.1C177.962 10.04 177.912 10.04 177.852 10.1C177.832 10.16 177.812 10.22 177.792 10.28C177.772 10.32 177.752 10.37 177.732 10.43C177.652 10.65 177.582 10.87 177.522 11.09C177.462 11.31 177.402 11.53 177.342 11.75C177.302 11.95 177.252 12.14 177.192 12.32C177.132 12.5 177.082 12.68 177.042 12.86C177.022 13 177.002 13.14 176.982 13.28C176.962 13.4 176.932 13.52 176.892 13.64C176.892 13.7 176.882 13.76 176.862 13.82C176.862 13.86 176.852 13.91 176.832 13.97C176.752 14.27 176.692 14.58 176.652 14.9C176.632 15.2 176.602 15.51 176.562 15.83V16.01C176.582 16.09 176.582 16.16 176.562 16.22C176.562 16.28 176.552 16.34 176.532 16.4C176.472 16.56 176.462 16.74 176.502 16.94C176.522 17.02 176.532 17.1 176.532 17.18C176.552 17.26 176.552 17.34 176.532 17.42C176.512 17.62 176.492 17.82 176.472 18.02C176.472 18.2 176.472 18.38 176.472 18.56C176.472 18.74 176.442 18.92 176.382 19.1C176.342 19.18 176.292 19.23 176.232 19.25C176.152 19.33 176.102 19.4 176.082 19.46C176.062 19.54 176.012 19.6 175.932 19.64C175.872 19.68 175.822 19.72 175.782 19.76C175.762 19.78 175.732 19.79 175.692 19.79C175.632 19.79 175.592 19.8 175.572 19.82C175.512 19.84 175.452 19.86 175.392 19.88C175.352 19.9 175.312 19.92 175.272 19.94C175.212 19.94 175.142 19.94 175.062 19.94C175.002 19.92 174.942 19.91 174.882 19.91C174.662 19.89 174.502 19.86 174.402 19.82C174.302 19.78 174.162 19.65 173.982 19.43C173.962 19.37 173.932 19.32 173.892 19.28C173.852 19.22 173.812 19.16 173.772 19.1C173.632 18.92 173.542 18.72 173.502 18.5C173.482 18.22 173.422 17.94 173.322 17.66C173.242 17.38 173.142 17.11 173.022 16.85C173.002 16.77 172.972 16.69 172.932 16.61C172.912 16.53 172.882 16.46 172.842 16.4C172.702 16.08 172.562 15.77 172.422 15.47C172.302 15.15 172.172 14.83 172.032 14.51C172.012 14.49 172.002 14.47 172.002 14.45C172.002 14.43 171.992 14.41 171.972 14.39C171.852 14.21 171.742 14.03 171.642 13.85C171.562 13.65 171.472 13.45 171.372 13.25C171.272 13.03 171.142 12.8 170.982 12.56C170.942 12.46 170.892 12.37 170.832 12.29C170.792 12.21 170.752 12.13 170.712 12.05C170.692 12.01 170.672 11.96 170.652 11.9C170.652 11.84 170.632 11.79 170.592 11.75C170.432 11.53 170.292 11.29 170.172 11.03C170.072 10.77 169.952 10.52 169.812 10.28L169.482 9.74C169.422 9.64 169.352 9.54 169.272 9.44C169.212 9.34 169.152 9.25 169.092 9.17C169.032 9.07 168.972 8.99 168.912 8.93C168.852 8.85 168.802 8.77 168.762 8.69C168.682 8.57 168.602 8.46 168.522 8.36C168.442 8.24 168.372 8.13 168.312 8.03C168.232 7.91 168.152 7.8 168.072 7.7C167.992 7.58 167.912 7.47 167.832 7.37C167.692 7.15 167.582 6.94 167.502 6.74C167.482 6.64 167.482 6.55 167.502 6.47C167.542 6.31 167.572 6.16 167.592 6.02C167.632 5.86 167.672 5.71 167.712 5.57L167.802 5.45C167.882 5.37 167.952 5.3 168.012 5.24C168.092 5.18 168.172 5.12 168.252 5.06C168.332 5.02 168.382 5 168.402 5C168.622 4.92 168.832 4.88 169.032 4.88C169.232 4.88 169.432 4.93 169.632 5.03C169.732 5.07 169.832 5.12 169.932 5.18C170.152 5.3 170.292 5.46 170.352 5.66C170.392 5.76 170.432 5.86 170.472 5.96C170.532 6.06 170.572 6.16 170.592 6.26C170.752 6.68 170.972 7.08 171.252 7.46C171.412 7.68 171.582 7.93 171.762 8.21C171.802 8.23 171.832 8.26 171.852 8.3C171.872 8.34 171.892 8.37 171.912 8.39C172.032 8.53 172.142 8.69 172.242 8.87C172.342 9.05 172.432 9.22 172.512 9.38C172.592 9.52 172.652 9.66 172.692 9.8C172.752 9.92 172.812 10.05 172.872 10.19C173.032 10.55 173.182 10.91 173.322 11.27C173.462 11.63 173.602 11.98 173.742 12.32C173.782 12.44 173.832 12.55 173.892 12.65C173.952 12.75 174.002 12.86 174.042 12.98C174.042 12.98 174.042 12.99 174.042 13.01C174.062 13.01 174.072 13 174.072 12.98C174.112 12.98 174.132 12.97 174.132 12.95C174.232 12.79 174.292 12.64 174.312 12.5L174.582 11.54C174.622 11.42 174.662 11.3 174.702 11.18C174.742 11.06 174.782 10.93 174.822 10.79C174.942 10.51 175.032 10.23 175.092 9.95C175.112 9.79 175.172 9.62 175.272 9.44C175.332 9.34 175.362 9.23 175.362 9.11L175.452 8.81C175.572 8.45 175.692 8.09 175.812 7.73C175.932 7.37 176.072 7.03 176.232 6.71C176.292 6.59 176.352 6.48 176.412 6.38C176.472 6.26 176.532 6.15 176.592 6.05C176.632 5.97 176.682 5.9 176.742 5.84C176.802 5.78 176.872 5.74 176.952 5.72C177.032 5.62 177.122 5.56 177.222 5.54C177.322 5.52 177.412 5.48 177.492 5.42C177.512 5.4 177.562 5.39 177.642 5.39C177.702 5.39 177.772 5.41 177.852 5.45C177.952 5.49 178.042 5.48 178.122 5.42C178.222 5.34 178.312 5.36 178.392 5.48C178.432 5.56 178.482 5.63 178.542 5.69C178.622 5.73 178.692 5.77 178.752 5.81C178.792 5.85 178.832 5.89 178.872 5.93C178.932 5.97 178.972 6.02 178.992 6.08L179.982 7.79C180.082 7.95 180.182 8.12 180.282 8.3C180.382 8.46 180.472 8.63 180.552 8.81C180.632 8.91 180.692 9.02 180.732 9.14C180.792 9.26 180.852 9.39 180.912 9.53C181.032 9.85 181.202 10.17 181.422 10.49C181.462 10.55 181.502 10.61 181.542 10.67C181.582 10.73 181.612 10.79 181.632 10.85C181.732 11.09 181.842 11.33 181.962 11.57C182.102 11.81 182.232 12.06 182.352 12.32C182.372 12.36 182.392 12.41 182.412 12.47C182.452 12.53 182.482 12.58 182.502 12.62C182.602 12.88 182.722 13.14 182.862 13.4C183.002 13.64 183.142 13.88 183.282 14.12C183.302 14.16 183.352 14.22 183.432 14.3C183.432 14.3 183.442 14.3 183.462 14.3C183.482 14.3 183.492 14.29 183.492 14.27C183.512 14.25 183.542 14.2 183.582 14.12C183.642 13.94 183.702 13.77 183.762 13.61C183.822 13.43 183.862 13.25 183.882 13.07C183.922 12.91 183.962 12.78 184.002 12.68C184.102 12.36 184.192 12.05 184.272 11.75C184.352 11.43 184.432 11.11 184.512 10.79C184.552 10.67 184.592 10.55 184.632 10.43C184.672 10.29 184.712 10.16 184.752 10.04C184.872 9.62 184.992 9.21 185.112 8.81C185.232 8.39 185.342 7.97 185.442 7.55L185.802 6.05C185.842 5.93 185.842 5.81 185.802 5.69C185.762 5.59 185.772 5.51 185.832 5.45C185.912 5.35 185.972 5.24 186.012 5.12C186.052 5 186.092 4.89 186.132 4.79C186.192 4.59 186.272 4.37 186.372 4.13C186.392 4.07 186.422 4.01 186.462 3.95C186.502 3.89 186.532 3.83 186.552 3.77C186.632 3.65 186.722 3.58 186.822 3.56C186.882 3.52 186.942 3.49 187.002 3.47C187.062 3.43 187.122 3.4 187.182 3.38C187.202 3.36 187.222 3.35 187.242 3.35C187.282 3.35 187.312 3.34 187.332 3.32C187.432 3.28 187.532 3.26 187.632 3.26C187.752 3.24 187.852 3.2 187.932 3.14C188.052 3.06 188.192 3.07 188.352 3.17C188.512 3.29 188.642 3.4 188.742 3.5C188.862 3.62 188.942 3.8 188.982 4.04C189.002 4.1 189.012 4.16 189.012 4.22C189.012 4.28 189.012 4.34 189.012 4.4C188.972 4.84 188.882 5.27 188.742 5.69C188.702 5.81 188.662 5.94 188.622 6.08C188.582 6.2 188.542 6.32 188.502 6.44C188.502 6.46 188.492 6.49 188.472 6.53C188.472 6.55 188.472 6.58 188.472 6.62C188.452 6.94 188.402 7.26 188.322 7.58C188.242 7.9 188.152 8.21 188.052 8.51C187.972 8.77 187.902 9.03 187.842 9.29C187.782 9.55 187.712 9.81 187.632 10.07C187.612 10.11 187.592 10.17 187.572 10.25C187.572 10.31 187.552 10.36 187.512 10.4C187.452 10.52 187.412 10.65 187.392 10.79C187.372 10.91 187.342 11.04 187.302 11.18C187.282 11.26 187.262 11.34 187.242 11.42C187.242 11.48 187.222 11.55 187.182 11.63C187.122 11.85 187.062 12.08 187.002 12.32C186.942 12.54 186.892 12.76 186.852 12.98L186.582 14C186.562 14.08 186.542 14.16 186.522 14.24C186.522 14.3 186.512 14.37 186.492 14.45C186.492 14.51 186.482 14.57 186.462 14.63C186.462 14.69 186.452 14.76 186.432 14.84C186.412 14.96 186.382 15.09 186.342 15.23C186.322 15.35 186.302 15.48 186.282 15.62C186.262 15.76 186.242 15.9 186.222 16.04C186.202 16.16 186.182 16.3 186.162 16.46C186.162 16.54 186.152 16.62 186.132 16.7C186.132 16.78 186.132 16.87 186.132 16.97L186.042 17.6C186.042 17.8 186.032 17.99 186.012 18.17C185.992 18.35 185.962 18.54 185.922 18.74C185.902 18.78 185.892 18.83 185.892 18.89C185.892 18.95 185.892 19 185.892 19.04C185.892 19.22 185.852 19.36 185.772 19.46C185.752 19.52 185.722 19.58 185.682 19.64C185.642 19.7 185.602 19.76 185.562 19.82L185.412 19.97C185.352 19.99 185.292 20.02 185.232 20.06C185.172 20.12 185.112 20.17 185.052 20.21C184.932 20.27 184.802 20.3 184.662 20.3ZM202.62 20.27C202.56 20.25 202.49 20.23 202.41 20.21C202.35 20.19 202.29 20.17 202.23 20.15C202.07 20.09 201.91 20.01 201.75 19.91C201.67 19.87 201.61 19.81 201.57 19.73C201.43 19.51 201.3 19.31 201.18 19.13C201.06 18.93 200.93 18.73 200.79 18.53L200.52 18.05C200.38 17.77 200.24 17.5 200.1 17.24C199.96 16.96 199.82 16.69 199.68 16.43C199.64 16.33 199.59 16.25 199.53 16.19C199.49 16.11 199.45 16.03 199.41 15.95C199.27 15.73 199.14 15.51 199.02 15.29C198.9 15.05 198.78 14.82 198.66 14.6L197.91 13.13C197.71 12.73 197.51 12.34 197.31 11.96C197.11 11.56 196.91 11.16 196.71 10.76C196.67 10.72 196.63 10.66 196.59 10.58C196.51 10.36 196.41 10.15 196.29 9.95C196.19 9.75 196.09 9.55 195.99 9.35C195.91 9.21 195.84 9.07 195.78 8.93C195.72 8.77 195.65 8.62 195.57 8.48L195.24 7.88C195.2 7.88 195.17 7.87 195.15 7.85C195.15 7.85 195.14 7.86 195.12 7.88C195.12 7.88 195.12 7.89 195.12 7.91C195.1 8.17 195.08 8.44 195.06 8.72C195.04 9 195.04 9.28 195.06 9.56C195.1 9.68 195.1 9.81 195.06 9.95C195.02 10.31 195.03 10.63 195.09 10.91C195.11 10.99 195.11 11.07 195.09 11.15C195.09 11.23 195.08 11.32 195.06 11.42C195.04 11.56 195.03 11.69 195.03 11.81C195.03 11.93 195.02 12.06 195 12.2C195.04 12.28 195.06 12.37 195.06 12.47C195.06 12.55 195.05 12.63 195.03 12.71C194.97 12.91 194.97 13.12 195.03 13.34C195.07 13.4 195.07 13.46 195.03 13.52C194.95 13.7 194.93 13.92 194.97 14.18C195.03 14.52 195.01 14.89 194.91 15.29C194.89 15.33 194.88 15.4 194.88 15.5C194.86 15.58 194.88 15.65 194.94 15.71C195.02 15.75 195.04 15.8 195 15.86C194.98 16.12 194.98 16.39 195 16.67C195 16.67 195 16.68 195 16.7C195 16.7 194.99 16.7 194.97 16.7C194.95 16.7 194.94 16.69 194.94 16.67C194.92 16.65 194.91 16.63 194.91 16.61C194.87 16.57 194.85 16.58 194.85 16.64C194.85 16.74 194.86 16.8 194.88 16.82C194.92 16.92 194.94 17.02 194.94 17.12C194.94 17.22 194.94 17.32 194.94 17.42V18.35C194.94 18.41 194.93 18.47 194.91 18.53C194.91 18.59 194.88 18.64 194.82 18.68C194.74 18.7 194.7 18.77 194.7 18.89C194.68 19.11 194.6 19.3 194.46 19.46C194.34 19.62 194.2 19.76 194.04 19.88C193.96 19.94 193.86 19.98 193.74 20C193.64 20 193.54 19.99 193.44 19.97L192.9 19.79C192.86 19.79 192.82 19.76 192.78 19.7C192.72 19.64 192.66 19.58 192.6 19.52C192.54 19.44 192.47 19.37 192.39 19.31C192.29 19.25 192.22 19.14 192.18 18.98C192.16 18.88 192.13 18.77 192.09 18.65C192.05 18.53 192.03 18.41 192.03 18.29C192.03 18.15 192.03 18.02 192.03 17.9C192.05 17.78 192.06 17.65 192.06 17.51C192.08 17.41 192.09 17.32 192.09 17.24C192.09 17.14 192.1 17.04 192.12 16.94V5.96C192.12 5.86 192.12 5.76 192.12 5.66C192.14 5.56 192.16 5.47 192.18 5.39C192.18 5.29 192.18 5.19 192.18 5.09C192.2 4.99 192.21 4.89 192.21 4.79C192.21 4.67 192.21 4.55 192.21 4.43C192.23 4.31 192.25 4.2 192.27 4.1C192.29 4.02 192.3 3.95 192.3 3.89C192.3 3.83 192.3 3.76 192.3 3.68V2.75C192.3 2.61 192.31 2.49 192.33 2.39C192.37 2.27 192.4 2.15 192.42 2.03L192.51 1.88C192.57 1.82 192.62 1.73 192.66 1.61C192.7 1.49 192.76 1.43 192.84 1.43C192.9 1.39 192.96 1.36 193.02 1.34C193.08 1.3 193.12 1.24 193.14 1.16L193.17 1.13C193.19 1.13 193.21 1.13 193.23 1.13C193.25 1.11 193.27 1.1 193.29 1.1C193.37 1.1 193.43 1.08 193.47 1.04C193.53 1 193.6 0.99 193.68 1.01C193.76 1.03 193.84 1.04 193.92 1.04C194 1.04 194.08 1.05 194.16 1.07C194.6 1.15 194.91 1.41 195.09 1.85L195.27 2.45C195.29 2.65 195.38 2.84 195.54 3.02C195.66 3.16 195.78 3.31 195.9 3.47C196.02 3.63 196.15 3.79 196.29 3.95C196.81 4.61 197.29 5.35 197.73 6.17C197.77 6.25 197.81 6.33 197.85 6.41C197.89 6.49 197.93 6.57 197.97 6.65L199.53 9.8C199.65 10.02 199.76 10.25 199.86 10.49C199.98 10.71 200.11 10.93 200.25 11.15C200.29 11.23 200.33 11.31 200.37 11.39C200.41 11.45 200.44 11.52 200.46 11.6C200.56 11.84 200.68 12.08 200.82 12.32C200.82 12.32 200.82 12.33 200.82 12.35C200.84 12.35 200.85 12.34 200.85 12.32C200.87 12.32 200.88 12.32 200.88 12.32C200.9 12.3 200.91 12.29 200.91 12.29L201 11.24V10.94C201.02 10.84 201.03 10.74 201.03 10.64C201.05 10.52 201.07 10.41 201.09 10.31C201.11 10.25 201.11 10.18 201.09 10.1C201.09 10.02 201.1 9.94 201.12 9.86C201.12 9.74 201.12 9.62 201.12 9.5C201.14 9.36 201.16 9.23 201.18 9.11C201.2 9.05 201.21 8.99 201.21 8.93C201.21 8.85 201.21 8.78 201.21 8.72V7.91H201.18V7.1C201.18 7 201.18 6.9 201.18 6.8C201.18 6.7 201.16 6.6 201.12 6.5C201.1 6.44 201.09 6.35 201.09 6.23L201.12 6.02C201.12 5.96 201.11 5.91 201.09 5.87C201.09 5.81 201.09 5.75 201.09 5.69C201.11 5.61 201.1 5.53 201.06 5.45C201.02 5.37 201 5.29 201 5.21C201.02 5.13 201.03 5.05 201.03 4.97C201.03 4.89 201.03 4.81 201.03 4.73C201.03 4.65 200.99 4.61 200.91 4.61C200.89 4.61 200.88 4.59 200.88 4.55C200.86 4.49 200.86 4.44 200.88 4.4C200.92 4.3 200.94 4.19 200.94 4.07C200.94 3.95 200.94 3.83 200.94 3.71V2.84C200.92 2.72 200.93 2.6 200.97 2.48C201.01 2.36 201.06 2.25 201.12 2.15L201.24 1.97C201.34 1.87 201.45 1.77 201.57 1.67C201.69 1.57 201.81 1.47 201.93 1.37C201.93 1.37 201.97 1.35 202.05 1.31C202.15 1.29 202.24 1.27 202.32 1.25C202.42 1.23 202.52 1.23 202.62 1.25C202.7 1.25 202.76 1.26 202.8 1.28C202.88 1.32 202.96 1.37 203.04 1.43C203.12 1.47 203.2 1.52 203.28 1.58C203.32 1.6 203.34 1.62 203.34 1.64C203.36 1.66 203.38 1.68 203.4 1.7C203.44 1.74 203.47 1.79 203.49 1.85C203.53 1.89 203.56 1.93 203.58 1.97C203.68 2.05 203.74 2.15 203.76 2.27C203.8 2.37 203.83 2.47 203.85 2.57V3.83C203.85 3.97 203.85 4.11 203.85 4.25C203.87 4.37 203.89 4.5 203.91 4.64C203.93 4.72 203.94 4.8 203.94 4.88C203.94 4.94 203.94 5.01 203.94 5.09C203.94 5.25 203.94 5.42 203.94 5.6C203.96 5.76 203.97 5.92 203.97 6.08V6.29C203.97 6.43 203.96 6.57 203.94 6.71C203.94 6.83 203.94 6.96 203.94 7.1V8.42C203.94 8.62 203.93 8.83 203.91 9.05C203.91 9.25 203.92 9.46 203.94 9.68C203.94 9.76 203.93 9.82 203.91 9.86C203.89 10.06 203.88 10.26 203.88 10.46C203.88 10.64 203.87 10.83 203.85 11.03C203.85 11.11 203.85 11.2 203.85 11.3C203.85 11.4 203.84 11.5 203.82 11.6C203.8 11.68 203.79 11.76 203.79 11.84C203.81 11.92 203.82 12 203.82 12.08C203.86 12.26 203.87 12.44 203.85 12.62C203.85 12.8 203.84 12.98 203.82 13.16C203.8 13.48 203.78 13.81 203.76 14.15C203.76 14.47 203.78 14.8 203.82 15.14C203.82 15.22 203.82 15.31 203.82 15.41C203.84 15.51 203.85 15.61 203.85 15.71C203.83 16.01 203.84 16.3 203.88 16.58C203.94 16.86 204 17.14 204.06 17.42C204.1 17.62 204.14 17.82 204.18 18.02C204.22 18.2 204.25 18.4 204.27 18.62C204.27 18.7 204.26 18.75 204.24 18.77C204.22 18.81 204.2 18.86 204.18 18.92C204.16 18.96 204.15 19 204.15 19.04C204.13 19.2 204.07 19.35 203.97 19.49C203.89 19.63 203.8 19.77 203.7 19.91C203.44 20.25 203.08 20.37 202.62 20.27Z" fill="#353535"/>
</svg>
