<svg width="155" height="33" viewBox="0 0 155 33" fill="none" xmlns="http://www.w3.org/2000/svg">
<path d="M4.92031 32.825C4.67031 32.775 4.52865 32.6333 4.49531 32.4C4.47865 32.35 4.47031 32.2833 4.47031 32.2C4.47031 32.0833 4.46198 31.9667 4.44531 31.85C4.44531 31.75 4.43698 31.65 4.42031 31.55V31.225C4.40365 31.075 4.39531 30.9167 4.39531 30.75C4.41198 30.6 4.40365 30.45 4.37031 30.3C4.33698 30.25 4.33698 30.2083 4.37031 30.175C4.38698 30.025 4.39531 29.875 4.39531 29.725C4.39531 29.575 4.40365 29.4333 4.42031 29.3C4.47031 29.1333 4.47865 28.9667 4.44531 28.8C4.42865 28.7167 4.42031 28.6333 4.42031 28.55C4.43698 28.4833 4.44531 28.4167 4.44531 28.35V28.15C4.42865 27.9 4.42031 27.6417 4.42031 27.375C4.42031 27.125 4.42031 26.8667 4.42031 26.6V26.425C4.45365 26.2917 4.47031 26.1583 4.47031 26.025C4.47031 25.8917 4.47031 25.7583 4.47031 25.625C4.45365 25.5583 4.44531 25.4917 4.44531 25.425C4.44531 25.375 4.44531 25.3167 4.44531 25.25C4.42865 25.15 4.42031 25.05 4.42031 24.95C4.42031 24.8667 4.42031 24.775 4.42031 24.675L4.34531 24.275C4.27865 24.0917 4.20365 23.9167 4.12031 23.75C4.03698 23.5833 3.95365 23.4167 3.87031 23.25C3.80365 23.1333 3.72031 23.0333 3.62031 22.95C3.53698 22.85 3.45365 22.7667 3.37031 22.7C3.20365 22.5667 3.03698 22.425 2.87031 22.275C2.78698 22.1917 2.70365 22.1167 2.62031 22.05C2.53698 21.9667 2.45365 21.8917 2.37031 21.825C2.28698 21.7417 2.19531 21.65 2.09531 21.55C2.01198 21.45 1.92031 21.3583 1.82031 21.275C1.73698 21.1917 1.66198 21.1 1.59531 21C1.52865 20.8833 1.47031 20.7667 1.42031 20.65C1.38698 20.5667 1.35365 20.4833 1.32031 20.4C1.28698 20.3167 1.25365 20.2333 1.22031 20.15C1.18698 20.0667 1.15365 19.9833 1.12031 19.9C1.10365 19.8167 1.07865 19.7417 1.04531 19.675C0.995313 19.525 0.945313 19.3833 0.895313 19.25C0.861979 19.1 0.828646 18.95 0.795313 18.8C0.745313 18.6167 0.703646 18.4333 0.670313 18.25C0.653646 18.05 0.636979 17.85 0.620313 17.65C0.620313 17.5667 0.611979 17.4917 0.595313 17.425C0.595313 17.3583 0.595313 17.2917 0.595313 17.225C0.578646 16.9083 0.578646 16.6 0.595313 16.3C0.611979 16.25 0.620313 16.1667 0.620313 16.05C0.620313 15.7667 0.661979 15.4583 0.745313 15.125L0.820313 14.725C0.870313 14.5083 0.928646 14.3167 0.995313 14.15C1.06198 14.0333 1.12865 13.925 1.19531 13.825C1.27865 13.725 1.37865 13.6417 1.49531 13.575C1.62865 13.4917 1.76198 13.4333 1.89531 13.4C2.04531 13.35 2.19531 13.3167 2.34531 13.3C2.64531 13.3 2.87865 13.4 3.04531 13.6C3.12865 13.6833 3.17031 13.7667 3.17031 13.85C3.18698 13.9167 3.21198 13.9917 3.24531 14.075C3.27865 14.1417 3.31198 14.2083 3.34531 14.275C3.34531 14.3417 3.37031 14.375 3.42031 14.375L3.47031 14.3C3.48698 14.2667 3.50365 14.25 3.52031 14.25C3.55365 14.25 3.57865 14.2667 3.59531 14.3C3.66198 14.4167 3.69531 14.55 3.69531 14.7C3.69531 14.75 3.68698 14.7833 3.67031 14.8C3.67031 14.8333 3.66198 14.8667 3.64531 14.9C3.62865 14.9333 3.62031 14.9667 3.62031 15C3.60365 15.0833 3.55365 15.1667 3.47031 15.25C3.40365 15.3 3.37031 15.375 3.37031 15.475C3.37031 15.5417 3.36198 15.5833 3.34531 15.6C3.29531 15.6333 3.27031 15.6833 3.27031 15.75C3.27031 15.8 3.26198 15.8583 3.24531 15.925C3.19531 16.0083 3.17865 16.1083 3.19531 16.225C3.19531 16.2583 3.18698 16.3 3.17031 16.35C3.17031 16.3833 3.17031 16.425 3.17031 16.475C3.17031 16.575 3.18698 16.65 3.22031 16.7C3.25365 16.8 3.27031 16.8833 3.27031 16.95C3.27031 17.1167 3.29531 17.275 3.34531 17.425L3.42031 17.725C3.42031 17.7917 3.43698 17.85 3.47031 17.9C3.50365 17.95 3.53698 18 3.57031 18.05C3.67031 18.15 3.77031 18.2417 3.87031 18.325C3.98698 18.4083 4.10365 18.4917 4.22031 18.575C4.33698 18.6417 4.45365 18.7083 4.57031 18.775C4.68698 18.825 4.80365 18.8917 4.92031 18.975C4.98698 18.9917 5.04531 19.0167 5.09531 19.05C5.16198 19.0667 5.22865 19.0833 5.29531 19.1C5.57865 19.1167 5.83698 19.2333 6.07031 19.45C6.10365 19.4833 6.13698 19.5083 6.17031 19.525C6.20365 19.5583 6.23698 19.5583 6.27031 19.525L6.42031 19.45C6.48698 19.3833 6.54531 19.3167 6.59531 19.25C6.66198 19.1833 6.72031 19.1167 6.77031 19.05C6.82031 18.9667 6.87031 18.8833 6.92031 18.8C6.97031 18.7167 7.02031 18.6417 7.07031 18.575C7.08698 18.5417 7.11198 18.5083 7.14531 18.475C7.22865 18.2417 7.30365 18.0167 7.37031 17.8C7.43698 17.5667 7.47865 17.3333 7.49531 17.1C7.51198 16.9 7.52031 16.7 7.52031 16.5C7.52031 16.3 7.52031 16.0917 7.52031 15.875V15.85C7.55365 15.7 7.56198 15.5583 7.54531 15.425C7.52865 15.275 7.51198 15.125 7.49531 14.975C7.49531 14.8917 7.49531 14.8083 7.49531 14.725C7.49531 14.625 7.48698 14.5417 7.47031 14.475C7.45365 14.325 7.43698 14.175 7.42031 14.025C7.42031 13.875 7.42031 13.7333 7.42031 13.6L7.34531 13.025C7.32865 12.9083 7.31198 12.8 7.29531 12.7C7.27865 12.5833 7.26198 12.4667 7.24531 12.35C7.22865 12.25 7.21198 12.15 7.19531 12.05C7.19531 11.95 7.17865 11.85 7.14531 11.75C7.12865 11.6167 7.11198 11.4917 7.09531 11.375C7.07865 11.2417 7.06198 11.1083 7.04531 10.975C7.02865 10.8583 7.01198 10.75 6.99531 10.65C6.99531 10.5333 6.97865 10.4167 6.94531 10.3L6.92031 10.125C6.92031 9.95833 6.91198 9.8 6.89531 9.65C6.87865 9.5 6.86198 9.35 6.84531 9.2C6.84531 9.11667 6.83698 9.05833 6.82031 9.025C6.82031 8.99167 6.81198 8.95833 6.79531 8.925C6.79531 8.89167 6.79531 8.85833 6.79531 8.825C6.77865 8.54167 6.76198 8.25833 6.74531 7.975C6.72865 7.675 6.72865 7.375 6.74531 7.075C6.74531 6.99167 6.74531 6.90833 6.74531 6.825C6.76198 6.74167 6.77865 6.65833 6.79531 6.575C6.82865 6.50833 6.84531 6.45833 6.84531 6.425C6.86198 6.24167 6.94531 6.06667 7.09531 5.9C7.12865 5.85 7.16198 5.80833 7.19531 5.775C7.24531 5.725 7.29531 5.68333 7.34531 5.65C7.39531 5.61667 7.44531 5.59167 7.49531 5.575C7.54531 5.54167 7.59531 5.50833 7.64531 5.475H7.69531C7.76198 5.49167 7.82031 5.49167 7.87031 5.475C7.93698 5.44167 8.00365 5.425 8.07031 5.425C8.15365 5.39167 8.22865 5.4 8.29531 5.45C8.32865 5.45 8.36198 5.46667 8.39531 5.5C8.56198 5.55 8.70365 5.625 8.82031 5.725C8.87031 5.825 8.92031 5.925 8.97031 6.025C9.02031 6.10833 9.05365 6.20833 9.07031 6.325C9.12031 6.49167 9.16198 6.65 9.19531 6.8C9.22865 6.95 9.25365 7.10833 9.27031 7.275C9.30365 7.525 9.34531 7.775 9.39531 8.025C9.44531 8.275 9.47865 8.525 9.49531 8.775L9.57031 9.35C9.60365 9.65 9.63698 9.95 9.67031 10.25C9.72031 10.55 9.77031 10.8417 9.82031 11.125C9.83698 11.1917 9.84531 11.25 9.84531 11.3C9.86198 11.35 9.87031 11.4083 9.87031 11.475C9.90365 11.575 9.92865 11.675 9.94531 11.775C9.96198 11.875 9.96198 11.9833 9.94531 12.1C9.94531 12.1333 9.95365 12.1583 9.97031 12.175L10.0453 12.975C10.062 13.1417 10.0786 13.3167 10.0953 13.5C10.1286 13.6833 10.1453 13.8667 10.1453 14.05C10.1453 14.1167 10.1536 14.1583 10.1703 14.175C10.2036 14.3083 10.212 14.45 10.1953 14.6C10.1953 14.7333 10.1953 14.8667 10.1953 15V15.725C10.212 15.9083 10.2203 16.0917 10.2203 16.275C10.2203 16.4583 10.2286 16.6417 10.2453 16.825V16.975C10.2286 17.1417 10.212 17.3167 10.1953 17.5C10.1786 17.6833 10.1536 17.8667 10.1203 18.05C10.1036 18.1333 10.087 18.225 10.0703 18.325C10.0536 18.4083 10.037 18.5 10.0203 18.6C9.97031 18.8167 9.89531 19.0583 9.79531 19.325C9.77865 19.4083 9.74531 19.5 9.69531 19.6C9.66198 19.6833 9.62865 19.7667 9.59531 19.85C9.52865 20.05 9.44531 20.2417 9.34531 20.425L9.12031 20.825C9.05365 20.925 8.98698 21.025 8.92031 21.125C8.87031 21.225 8.81198 21.3167 8.74531 21.4C8.67865 21.4833 8.61198 21.5667 8.54531 21.65C8.49531 21.7167 8.43698 21.7917 8.37031 21.875C8.35365 21.8917 8.33698 21.9167 8.32031 21.95C8.30365 21.9667 8.27865 21.9917 8.24531 22.025C8.22865 22.0417 8.20365 22.0667 8.17031 22.1C8.13698 22.1333 8.10365 22.1667 8.07031 22.2C8.00365 22.2667 7.92865 22.3417 7.84531 22.425C7.77865 22.4917 7.70365 22.5667 7.62031 22.65C7.42031 22.85 7.22031 23.0167 7.02031 23.15L6.49531 23.525C6.39531 23.575 6.31198 23.6417 6.24531 23.725C6.17865 23.825 6.12031 23.9167 6.07031 24C6.02031 24.0667 5.99531 24.1417 5.99531 24.225C5.99531 24.4417 5.97865 24.65 5.94531 24.85C5.92865 25.05 5.92031 25.2583 5.92031 25.475V26.925C5.88698 27.1083 5.87031 27.3 5.87031 27.5C5.87031 27.7 5.86198 27.8917 5.84531 28.075V28.4C5.84531 28.4333 5.84531 28.475 5.84531 28.525C5.84531 28.575 5.83698 28.625 5.82031 28.675C5.82031 28.775 5.82031 28.875 5.82031 28.975C5.82031 29.075 5.80365 29.175 5.77031 29.275C5.77031 29.3083 5.76198 29.3417 5.74531 29.375C5.74531 29.425 5.74531 29.475 5.74531 29.525C5.72865 29.5917 5.72031 29.6583 5.72031 29.725C5.72031 29.7917 5.71198 29.8667 5.69531 29.95V30.075C5.69531 30.2083 5.68698 30.3417 5.67031 30.475C5.65365 30.625 5.63698 30.7667 5.62031 30.9C5.60365 31.0167 5.59531 31.1417 5.59531 31.275C5.59531 31.4083 5.57865 31.5417 5.54531 31.675C5.52865 31.8083 5.50365 31.9417 5.47031 32.075C5.45365 32.225 5.42031 32.3667 5.37031 32.5C5.35365 32.55 5.32865 32.6 5.29531 32.65C5.26198 32.7 5.22031 32.7417 5.17031 32.775C5.12031 32.8083 5.03698 32.825 4.92031 32.825ZM18.2977 23.5C18.131 23.4833 17.9643 23.4583 17.7977 23.425C17.6477 23.4083 17.4977 23.3667 17.3477 23.3L16.7227 23.075C16.506 22.9917 16.306 22.9 16.1227 22.8C15.9393 22.6833 15.756 22.5667 15.5727 22.45C15.4893 22.3667 15.406 22.2917 15.3227 22.225C15.2393 22.1417 15.156 22.0667 15.0727 22C14.9393 21.8667 14.806 21.7333 14.6727 21.6C14.5393 21.45 14.4143 21.2917 14.2977 21.125L13.6977 20.2C13.5477 19.9667 13.4143 19.725 13.2977 19.475C13.181 19.2083 13.081 18.9417 12.9977 18.675C12.8143 18.175 12.7227 17.6833 12.7227 17.2V16.8C12.7227 16.3833 12.7477 15.975 12.7977 15.575C12.831 15.2417 12.906 14.9417 13.0227 14.675C13.0893 14.5083 13.1477 14.3417 13.1977 14.175C13.2477 14.0083 13.306 13.85 13.3727 13.7L13.4477 13.525C13.481 13.3083 13.556 13.1167 13.6727 12.95C13.7893 12.7667 13.8893 12.5917 13.9727 12.425C14.0393 12.2917 14.1143 12.175 14.1977 12.075C14.281 11.9583 14.356 11.8417 14.4227 11.725C14.456 11.675 14.4977 11.6333 14.5477 11.6C14.5977 11.55 14.6393 11.5 14.6727 11.45C14.706 11.4167 14.731 11.375 14.7477 11.325C14.781 11.2583 14.806 11.2 14.8227 11.15C14.856 11.1 14.9143 11.0333 14.9977 10.95C15.0977 10.9 15.1893 10.7833 15.2727 10.6C15.306 10.5333 15.3393 10.4833 15.3727 10.45C15.4727 10.3667 15.556 10.2667 15.6227 10.15C15.706 10.0333 15.7977 9.925 15.8977 9.825C15.9643 9.75833 15.9977 9.66667 15.9977 9.55C15.9977 9.46667 15.9977 9.39167 15.9977 9.325C16.0143 9.24167 16.0143 9.16667 15.9977 9.1C15.981 9.01667 16.006 8.94167 16.0727 8.875C16.106 8.84167 16.131 8.8 16.1477 8.75C16.1643 8.7 16.181 8.65 16.1977 8.6C16.2477 8.43333 16.381 8.29167 16.5977 8.175C16.631 8.14167 16.6727 8.125 16.7227 8.125C16.7893 8.10833 16.8477 8.09167 16.8977 8.075C17.0143 8.025 17.1477 8.01667 17.2977 8.05C17.3643 8.06667 17.4227 8.075 17.4727 8.075C17.5227 8.05833 17.5727 8.04167 17.6227 8.025C17.6893 7.99167 17.7477 7.96667 17.7977 7.95C17.8643 7.93333 17.9227 7.91667 17.9727 7.9C18.206 7.81667 18.4477 7.825 18.6977 7.925C18.9643 8.025 19.156 8.2 19.2727 8.45C19.306 8.53333 19.3393 8.61667 19.3727 8.7C19.406 8.78333 19.431 8.86667 19.4477 8.95C19.481 9.13333 19.4727 9.29167 19.4227 9.425C19.3893 9.49167 19.3727 9.53333 19.3727 9.55C19.356 9.61667 19.3727 9.675 19.4227 9.725C19.456 9.775 19.4977 9.81667 19.5477 9.85C19.731 10.0167 19.906 10.1833 20.0727 10.35C20.2393 10.5 20.3977 10.6667 20.5477 10.85C20.681 10.9833 20.7893 11.125 20.8727 11.275C20.9727 11.4083 21.0643 11.5583 21.1477 11.725C21.181 11.8083 21.2227 11.9 21.2727 12C21.3227 12.0833 21.3727 12.1667 21.4227 12.25C21.506 12.4 21.5727 12.5583 21.6227 12.725C21.6893 12.8917 21.756 13.0583 21.8227 13.225V13.25C21.856 13.3667 21.881 13.4917 21.8977 13.625C21.931 13.7417 21.981 13.8667 22.0477 14C22.0977 14.1167 22.1393 14.2417 22.1727 14.375C22.206 14.4917 22.2393 14.6167 22.2727 14.75C22.306 14.9 22.3393 15.05 22.3727 15.2C22.4227 15.35 22.456 15.5 22.4727 15.65C22.4893 15.7167 22.506 15.7833 22.5227 15.85C22.5393 15.9 22.556 15.9583 22.5727 16.025C22.606 16.175 22.6393 16.325 22.6727 16.475C22.706 16.625 22.731 16.775 22.7477 16.925L22.8227 17.1C22.856 17.2 22.8893 17.3333 22.9227 17.5C22.9727 17.7167 22.9977 17.9333 22.9977 18.15C23.0143 18.3667 23.0143 18.5917 22.9977 18.825C22.9977 18.9417 22.9893 19.0333 22.9727 19.1C22.8727 19.45 22.7477 19.8083 22.5977 20.175C22.531 20.2917 22.4643 20.4083 22.3977 20.525C22.331 20.625 22.2643 20.7333 22.1977 20.85L21.9727 21.2C21.8893 21.35 21.7977 21.4833 21.6977 21.6C21.531 21.8667 21.331 22.1 21.0977 22.3C20.8643 22.5 20.6143 22.6917 20.3477 22.875C19.7643 23.325 19.081 23.5333 18.2977 23.5ZM18.1977 21.025C18.5477 21.025 18.8477 20.925 19.0977 20.725C19.181 20.6417 19.2643 20.5667 19.3477 20.5C19.4477 20.4167 19.531 20.3333 19.5977 20.25C19.9143 19.9 20.1643 19.5333 20.3477 19.15L20.4227 18.9C20.456 18.6 20.456 18.3 20.4227 18L20.2727 17.175C20.2227 16.9583 20.181 16.75 20.1477 16.55C20.1143 16.3333 20.0643 16.125 19.9977 15.925C19.9477 15.8083 19.931 15.7167 19.9477 15.65C19.9643 15.5667 19.9643 15.4833 19.9477 15.4C19.931 15.3167 19.906 15.2333 19.8727 15.15C19.8227 14.9333 19.7643 14.7167 19.6977 14.5C19.631 14.2833 19.5643 14.0667 19.4977 13.85C19.481 13.8 19.4643 13.75 19.4477 13.7C19.431 13.65 19.4143 13.6 19.3977 13.55C19.281 13.3167 19.156 13.0917 19.0227 12.875C18.8893 12.6583 18.7393 12.4583 18.5727 12.275C18.4893 12.175 18.3977 12.0833 18.2977 12C18.1977 11.9 18.0977 11.8083 17.9977 11.725C17.981 11.6917 17.956 11.675 17.9227 11.675C17.906 11.6583 17.881 11.6417 17.8477 11.625C17.7977 11.5583 17.731 11.5667 17.6477 11.65C17.5643 11.7333 17.4727 11.825 17.3727 11.925C17.2893 12.025 17.206 12.125 17.1227 12.225C17.0393 12.3417 16.9477 12.4583 16.8477 12.575C16.7643 12.6917 16.681 12.8083 16.5977 12.925C16.481 13.075 16.3727 13.225 16.2727 13.375C16.1727 13.525 16.0727 13.675 15.9727 13.825C15.6227 14.3917 15.3477 15.0167 15.1477 15.7C15.1143 15.8 15.0977 15.875 15.0977 15.925C15.081 16.0417 15.0643 16.1583 15.0477 16.275C15.0477 16.3917 15.0477 16.5167 15.0477 16.65V16.85C15.0643 16.9 15.0727 16.95 15.0727 17C15.0727 17.05 15.081 17.1 15.0977 17.15C15.0977 17.35 15.1477 17.5667 15.2477 17.8C15.381 18.1333 15.531 18.4583 15.6977 18.775C15.8643 19.0917 16.056 19.3917 16.2727 19.675C16.3227 19.7417 16.3727 19.8083 16.4227 19.875C16.4893 19.9417 16.5477 20.0083 16.5977 20.075C16.7477 20.2417 16.906 20.3917 17.0727 20.525C17.256 20.6583 17.4393 20.775 17.6227 20.875C17.8227 20.975 18.0143 21.025 18.1977 21.025ZM35.1588 24.825C35.0088 24.825 34.8755 24.7667 34.7588 24.65C34.7255 24.6 34.6921 24.55 34.6588 24.5C34.6255 24.45 34.5921 24.4 34.5588 24.35C34.4088 24 34.3338 23.6333 34.3338 23.25L34.2588 22.65C34.2088 22.4167 34.1671 22.1833 34.1338 21.95C34.1005 21.7167 34.0421 21.4917 33.9588 21.275L33.8088 20.85C33.8088 20.8167 33.8005 20.7833 33.7838 20.75C33.7838 20.7167 33.7755 20.6833 33.7588 20.65L33.3838 19.325C33.3671 19.2917 33.3505 19.25 33.3338 19.2C33.3338 19.15 33.3171 19.1083 33.2838 19.075C33.2338 18.975 33.1921 18.875 33.1588 18.775C33.1421 18.6583 33.1171 18.5417 33.0838 18.425C33.0671 18.3417 33.0505 18.2667 33.0338 18.2C33.0171 18.1167 32.9921 18.0333 32.9588 17.95C32.9255 17.85 32.8921 17.7917 32.8588 17.775C32.8255 17.7417 32.7505 17.7417 32.6338 17.775C32.5505 17.7917 32.4588 17.8083 32.3588 17.825C32.2755 17.825 32.1921 17.8417 32.1088 17.875C32.0421 17.8917 31.9588 17.9083 31.8588 17.925C31.7755 17.925 31.6921 17.9333 31.6088 17.95L31.2588 18.025C31.1755 18.0417 31.0838 18.0667 30.9838 18.1C30.9005 18.1167 30.8171 18.125 30.7338 18.125L30.2838 18.2C30.1505 18.2333 30.0088 18.2667 29.8588 18.3C29.7088 18.3333 29.5671 18.3667 29.4338 18.4C29.0338 18.5 28.6338 18.575 28.2338 18.625C28.1005 18.6583 28.0255 18.7167 28.0088 18.8C27.9921 18.8 27.9838 18.8083 27.9838 18.825C27.8838 19.0917 27.7671 19.3583 27.6338 19.625C27.5171 19.875 27.3921 20.1333 27.2588 20.4C27.2255 20.4667 27.1921 20.5333 27.1588 20.6C27.1421 20.65 27.1171 20.7083 27.0838 20.775C27.0671 20.8083 27.0505 20.85 27.0338 20.9C27.0171 20.9333 27.0005 20.9667 26.9838 21C26.8838 21.1167 26.8338 21.2583 26.8338 21.425C26.8171 21.525 26.7838 21.625 26.7338 21.725C26.6838 21.8083 26.6338 21.8917 26.5838 21.975C26.5671 22.025 26.5338 22.05 26.4838 22.05C26.4171 22.0667 26.3505 22.0917 26.2838 22.125C26.2171 22.1583 26.1421 22.1917 26.0588 22.225C26.0088 22.2417 25.9588 22.2417 25.9088 22.225C25.8755 22.2083 25.8338 22.1917 25.7838 22.175C25.7505 22.1417 25.7171 22.125 25.6838 22.125C25.5005 22.1083 25.3671 22 25.2838 21.8C25.1505 21.5333 25.0588 21.2667 25.0088 21C24.9921 20.9333 24.9921 20.875 25.0088 20.825C25.0421 20.775 25.0671 20.725 25.0838 20.675C25.1838 20.6083 25.2421 20.5333 25.2588 20.45V20.425C25.2588 20.2083 25.3005 20.0083 25.3838 19.825C25.4838 19.625 25.5671 19.4333 25.6338 19.25C25.6671 19.15 25.7088 19.05 25.7588 18.95C25.8088 18.85 25.8588 18.75 25.9088 18.65C25.9755 18.5333 26.0255 18.425 26.0588 18.325C26.1088 18.2083 26.1505 18.0917 26.1838 17.975C26.2338 17.8417 26.2338 17.7167 26.1838 17.6C26.1505 17.5 26.1338 17.4083 26.1338 17.325C26.1338 17.225 26.1421 17.125 26.1588 17.025C26.1588 16.8417 26.2255 16.6833 26.3588 16.55C26.4255 16.4667 26.4921 16.4 26.5588 16.35C26.6421 16.2833 26.7171 16.2167 26.7838 16.15C26.9338 16 27.0505 15.8 27.1338 15.55C27.2005 15.3333 27.2505 15.1167 27.2838 14.9C27.3338 14.6667 27.3838 14.4417 27.4338 14.225C27.4671 14.0083 27.5005 13.8 27.5338 13.6C27.5838 13.3833 27.6338 13.175 27.6838 12.975C27.7005 12.8917 27.7171 12.8167 27.7338 12.75C27.7671 12.6667 27.7921 12.5917 27.8088 12.525C27.8588 12.3917 27.9088 12.2667 27.9588 12.15C28.0088 12.0167 28.0421 11.8833 28.0588 11.75C28.0921 11.6833 28.0921 11.625 28.0588 11.575C28.0421 11.4917 28.0421 11.4167 28.0588 11.35C28.0921 11.2833 28.1171 11.2167 28.1338 11.15C28.1838 11.0333 28.2171 10.9167 28.2338 10.8C28.2671 10.6833 28.3088 10.5667 28.3588 10.45C28.4421 10.2333 28.5088 10.0583 28.5588 9.925C28.6255 9.775 28.6838 9.60833 28.7338 9.425C28.7671 9.325 28.8005 9.23333 28.8338 9.15C28.8838 9.05 28.9171 8.95 28.9338 8.85C28.9838 8.7 29.0255 8.55 29.0588 8.4C29.0921 8.23333 29.1088 8.075 29.1088 7.925C29.1421 7.79167 29.1755 7.7 29.2088 7.65C29.2921 7.48333 29.3921 7.34167 29.5088 7.225C29.6421 7.10833 29.7671 6.99167 29.8838 6.875C29.9671 6.825 30.0505 6.79167 30.1338 6.775C30.2171 6.74167 30.3005 6.75 30.3838 6.8C30.4505 6.83333 30.4921 6.85 30.5088 6.85C30.6588 6.83333 30.7838 6.86667 30.8838 6.95C30.9838 7.03333 31.0671 7.13333 31.1338 7.25C31.1671 7.28333 31.1921 7.325 31.2088 7.375C31.2255 7.425 31.2421 7.46667 31.2588 7.5C31.3421 7.63333 31.3838 7.76667 31.3838 7.9C31.3838 7.96667 31.3921 8.04167 31.4088 8.125C31.4255 8.19167 31.4421 8.26667 31.4588 8.35C31.5088 8.45 31.5838 8.5 31.6838 8.5C31.7005 8.48333 31.7171 8.48333 31.7338 8.5C31.7505 8.51667 31.7588 8.53333 31.7588 8.55C31.8421 8.65 31.8671 8.75833 31.8338 8.875C31.8005 9.00833 31.7921 9.14167 31.8088 9.275C31.8421 9.39167 31.8755 9.51667 31.9088 9.65C31.9755 9.81667 32.0421 9.98333 32.1088 10.15C32.1755 10.3167 32.2421 10.4833 32.3088 10.65C32.3921 10.8333 32.4755 11.0167 32.5588 11.2C32.6421 11.3833 32.7171 11.5667 32.7838 11.75C32.8671 11.9833 32.9505 12.2167 33.0338 12.45C33.1338 12.6833 33.2421 12.9167 33.3588 13.15L33.4338 13.425C33.4505 13.4917 33.4671 13.5583 33.4838 13.625C33.5171 13.6917 33.5421 13.7583 33.5588 13.825C33.5921 13.875 33.6171 13.925 33.6338 13.975C33.6671 14.025 33.7005 14.0667 33.7338 14.1C33.8171 14.2167 33.8671 14.3417 33.8838 14.475C33.9338 14.6417 34.0088 14.7917 34.1088 14.925C34.1421 14.975 34.1921 15 34.2588 15C34.5088 14.9667 34.7588 14.9417 35.0088 14.925C35.2588 14.8917 35.5088 14.8417 35.7588 14.775C35.9421 14.725 36.1171 14.7 36.2838 14.7C36.6005 14.7 36.8921 14.8083 37.1588 15.025C37.4755 15.275 37.6421 15.5917 37.6588 15.975C37.6588 16.0583 37.6671 16.125 37.6838 16.175C37.6838 16.2917 37.6505 16.3833 37.5838 16.45C37.5671 16.5 37.5338 16.55 37.4838 16.6C37.4505 16.65 37.4171 16.7 37.3838 16.75C37.3505 16.8167 37.3171 16.8667 37.2838 16.9L37.1338 17.025C37.1171 17.0583 37.0921 17.1 37.0588 17.15C37.0255 17.1833 36.9838 17.2083 36.9338 17.225C36.8671 17.2417 36.8005 17.2667 36.7338 17.3C36.6671 17.3167 36.5921 17.325 36.5088 17.325C36.2088 17.3583 35.9421 17.35 35.7088 17.3H35.3088C35.2755 17.3 35.2255 17.3167 35.1588 17.35C35.0921 17.3833 35.0588 17.425 35.0588 17.475V17.575C35.1088 17.725 35.1421 17.8833 35.1588 18.05C35.1921 18.2 35.2421 18.3417 35.3088 18.475C35.3088 18.5417 35.3255 18.6083 35.3588 18.675C35.4421 18.825 35.5088 18.9833 35.5588 19.15C35.6088 19.3 35.6505 19.4583 35.6838 19.625C35.6838 19.6583 35.7005 19.725 35.7338 19.825C35.7838 19.9417 35.8255 20.0667 35.8588 20.2C35.8921 20.3167 35.9171 20.4417 35.9338 20.575C35.9338 20.675 35.9588 20.7667 36.0088 20.85C36.0755 21 36.1255 21.15 36.1588 21.3C36.1921 21.45 36.2171 21.6083 36.2338 21.775C36.2505 21.7917 36.2588 21.825 36.2588 21.875C36.2588 21.9083 36.2671 21.9417 36.2838 21.975C36.3671 22.1583 36.4255 22.3583 36.4588 22.575C36.4921 22.775 36.5338 22.975 36.5838 23.175C36.6171 23.275 36.6338 23.375 36.6338 23.475C36.6505 23.5917 36.6588 23.7083 36.6588 23.825C36.6588 23.9083 36.6338 24 36.5838 24.1C36.5338 24.15 36.5088 24.175 36.5088 24.175C36.4088 24.1917 36.3505 24.25 36.3338 24.35L36.2588 24.5C36.2255 24.5667 36.1755 24.6083 36.1088 24.625C36.0421 24.625 35.9838 24.65 35.9338 24.7C35.8671 24.7667 35.7755 24.8 35.6588 24.8C35.5921 24.8 35.5088 24.8 35.4088 24.8C35.3255 24.8 35.2421 24.8083 35.1588 24.825ZM29.1338 15.75C29.2338 15.7333 29.3338 15.7167 29.4338 15.7C29.5505 15.6833 29.6755 15.6667 29.8088 15.65C29.8921 15.6333 30.0005 15.6167 30.1338 15.6C30.2671 15.5833 30.3921 15.5667 30.5088 15.55C30.6255 15.5167 30.7421 15.5 30.8588 15.5C30.9755 15.4833 31.0921 15.4667 31.2088 15.45C31.3088 15.4167 31.4088 15.4 31.5088 15.4C31.6088 15.3833 31.7088 15.3667 31.8088 15.35C31.9588 15.3167 32.0171 15.2333 31.9838 15.1C31.9671 14.9667 31.9338 14.8333 31.8838 14.7C31.8505 14.55 31.7755 14.425 31.6588 14.325C31.6255 14.2917 31.6088 14.2417 31.6088 14.175V14.1C31.5755 13.9667 31.5338 13.8417 31.4838 13.725C31.4505 13.5917 31.4088 13.4667 31.3588 13.35C31.3255 13.2167 31.2838 13.1 31.2338 13C31.2005 12.8833 31.1588 12.7667 31.1088 12.65L30.8088 11.75C30.7588 11.6333 30.7088 11.5167 30.6588 11.4C30.6255 11.2833 30.5921 11.1667 30.5588 11.05L30.4838 10.95H30.4088L30.3588 11.025C30.2755 11.275 30.1755 11.525 30.0588 11.775C29.9588 12.025 29.8671 12.2917 29.7838 12.575C29.7838 12.6083 29.7755 12.65 29.7588 12.7C29.7421 12.75 29.7255 12.8 29.7088 12.85C29.6421 13.0167 29.5755 13.2 29.5088 13.4C29.4588 13.6 29.4171 13.8 29.3838 14C29.3671 14.1167 29.3505 14.2333 29.3338 14.35C29.3171 14.45 29.2921 14.5583 29.2588 14.675L29.0338 15.65C29.0171 15.6667 29.0255 15.6917 29.0588 15.725C29.0921 15.7417 29.1171 15.75 29.1338 15.75ZM33.3588 5.15C33.2088 5.11667 33.0505 5.08333 32.8838 5.05C32.7338 5.01667 32.5921 4.96667 32.4588 4.9L32.1088 4.75C31.6755 4.58333 31.3171 4.29167 31.0338 3.875L30.7338 3.45C30.6838 3.38333 30.6255 3.325 30.5588 3.275C30.4921 3.20833 30.4171 3.175 30.3338 3.175C30.2671 3.175 30.2005 3.175 30.1338 3.175C30.0838 3.175 30.0338 3.18333 29.9838 3.2C29.9005 3.21667 29.8171 3.23333 29.7338 3.25C29.6671 3.26667 29.5921 3.29167 29.5088 3.325C29.4921 3.325 29.4755 3.33333 29.4588 3.35C29.4421 3.35 29.4255 3.35 29.4088 3.35L28.8088 3.775C28.5088 3.975 28.2421 4.25 28.0088 4.6C27.9588 4.66667 27.9005 4.73333 27.8338 4.8C27.7671 4.85 27.6921 4.9 27.6088 4.95C27.5088 5 27.4088 5.01667 27.3088 5C27.2755 4.98333 27.2171 4.975 27.1338 4.975C27.0505 4.99167 26.9671 5.00833 26.8838 5.025C26.8005 5.025 26.7171 5.04167 26.6338 5.075C26.4838 5.09167 26.3671 5.05833 26.2838 4.975C26.0838 4.84167 25.9421 4.68333 25.8588 4.5C25.8088 4.41667 25.7838 4.34167 25.7838 4.275C25.7671 4.15833 25.7255 4.04167 25.6588 3.925C25.5588 3.70833 25.5588 3.5 25.6588 3.3C25.6921 3.21667 25.7338 3.13333 25.7838 3.05C25.8338 2.96667 25.8921 2.89167 25.9588 2.825C25.9921 2.80833 26.0171 2.78333 26.0338 2.75C26.0505 2.71667 26.0671 2.68333 26.0838 2.65L26.2588 2.4C26.2755 2.38333 26.2921 2.36667 26.3088 2.35C26.3255 2.33333 26.3421 2.31667 26.3588 2.3L26.7588 2.075C26.8921 1.99167 27.0171 1.91667 27.1338 1.85C27.2671 1.76667 27.3921 1.68333 27.5088 1.6C27.7421 1.45 27.9921 1.325 28.2588 1.225C28.4255 1.19167 28.5588 1.125 28.6588 1.025C28.6921 0.991665 28.7421 0.974999 28.8088 0.974999C28.8421 0.958332 28.9005 0.949999 28.9838 0.949999C29.0338 0.933333 29.0838 0.925 29.1338 0.925C29.1838 0.908332 29.2338 0.891665 29.2838 0.874999C29.3838 0.824998 29.4838 0.791665 29.5838 0.774999C29.7005 0.758332 29.8171 0.749999 29.9338 0.749999C30.0171 0.733332 30.1921 0.724999 30.4588 0.724999C30.7255 0.724999 30.9921 0.783332 31.2588 0.899998C31.4255 0.966665 31.5921 1.05833 31.7588 1.175C31.8088 1.19167 31.8505 1.21667 31.8838 1.25C31.9338 1.28333 31.9755 1.31667 32.0088 1.35C32.0421 1.36667 32.0671 1.39167 32.0838 1.425C32.1005 1.45833 32.1171 1.49167 32.1338 1.525C32.2671 1.625 32.3838 1.73333 32.4838 1.85C32.5838 1.96667 32.6838 2.09167 32.7838 2.225C32.8171 2.275 32.8505 2.325 32.8838 2.375C32.9171 2.40833 32.9505 2.44167 32.9838 2.475C33.0838 2.55833 33.1921 2.61667 33.3088 2.65C33.6255 2.71667 33.9338 2.65833 34.2338 2.475C34.2671 2.44167 34.3005 2.41667 34.3338 2.4C34.5005 2.26667 34.6755 2.175 34.8588 2.125C35.2588 1.99167 35.6338 2.05 35.9838 2.3C36.1505 2.41667 36.2588 2.55833 36.3088 2.725C36.3588 2.875 36.3921 3.025 36.4088 3.175C36.4421 3.325 36.4421 3.475 36.4088 3.625C36.3921 3.675 36.3755 3.725 36.3588 3.775C36.3588 3.825 36.3671 3.875 36.3838 3.925C36.4171 4.075 36.3505 4.175 36.1838 4.225C36.0338 4.25833 35.9421 4.30833 35.9088 4.375L35.8088 4.525C35.7588 4.55833 35.7088 4.59167 35.6588 4.625C35.6088 4.65833 35.5505 4.675 35.4838 4.675C35.4005 4.65833 35.3171 4.66667 35.2338 4.7C35.1671 4.73333 35.0921 4.76667 35.0088 4.8C34.8755 4.86667 34.7338 4.91667 34.5838 4.95C34.4338 4.98333 34.2921 5.025 34.1588 5.075C34.0421 5.09167 33.9088 5.11667 33.7588 5.15C33.6255 5.16667 33.4921 5.16667 33.3588 5.15ZM43.8836 23.5C43.7169 23.4833 43.5503 23.4583 43.3836 23.425C43.2336 23.4083 43.0836 23.3667 42.9336 23.3L42.3086 23.075C42.0919 22.9917 41.8919 22.9 41.7086 22.8C41.5253 22.6833 41.3419 22.5667 41.1586 22.45C41.0753 22.3667 40.9919 22.2917 40.9086 22.225C40.8253 22.1417 40.7419 22.0667 40.6586 22C40.5253 21.8667 40.3919 21.7333 40.2586 21.6C40.1253 21.45 40.0003 21.2917 39.8836 21.125L39.2836 20.2C39.1336 19.9667 39.0003 19.725 38.8836 19.475C38.7669 19.2083 38.6669 18.9417 38.5836 18.675C38.4003 18.175 38.3086 17.6833 38.3086 17.2V16.8C38.3086 16.3833 38.3336 15.975 38.3836 15.575C38.4169 15.2417 38.4919 14.9417 38.6086 14.675C38.6753 14.5083 38.7336 14.3417 38.7836 14.175C38.8336 14.0083 38.8919 13.85 38.9586 13.7L39.0336 13.525C39.0669 13.3083 39.1419 13.1167 39.2586 12.95C39.3753 12.7667 39.4753 12.5917 39.5586 12.425C39.6253 12.2917 39.7003 12.175 39.7836 12.075C39.8669 11.9583 39.9419 11.8417 40.0086 11.725C40.0419 11.675 40.0836 11.6333 40.1336 11.6C40.1836 11.55 40.2253 11.5 40.2586 11.45C40.2919 11.4167 40.3169 11.375 40.3336 11.325C40.3669 11.2583 40.3919 11.2 40.4086 11.15C40.4419 11.1 40.5003 11.0333 40.5836 10.95C40.6836 10.9 40.7753 10.7833 40.8586 10.6C40.8919 10.5333 40.9253 10.4833 40.9586 10.45C41.0586 10.3667 41.1419 10.2667 41.2086 10.15C41.2919 10.0333 41.3836 9.925 41.4836 9.825C41.5503 9.75833 41.5836 9.66667 41.5836 9.55C41.5836 9.46667 41.5836 9.39167 41.5836 9.325C41.6003 9.24167 41.6003 9.16667 41.5836 9.1C41.5669 9.01667 41.5919 8.94167 41.6586 8.875C41.6919 8.84167 41.7169 8.8 41.7336 8.75C41.7503 8.7 41.7669 8.65 41.7836 8.6C41.8336 8.43333 41.9669 8.29167 42.1836 8.175C42.2169 8.14167 42.2586 8.125 42.3086 8.125C42.3753 8.10833 42.4336 8.09167 42.4836 8.075C42.6003 8.025 42.7336 8.01667 42.8836 8.05C42.9503 8.06667 43.0086 8.075 43.0586 8.075C43.1086 8.05833 43.1586 8.04167 43.2086 8.025C43.2753 7.99167 43.3336 7.96667 43.3836 7.95C43.4503 7.93333 43.5086 7.91667 43.5586 7.9C43.7919 7.81667 44.0336 7.825 44.2836 7.925C44.5503 8.025 44.7419 8.2 44.8586 8.45C44.8919 8.53333 44.9253 8.61667 44.9586 8.7C44.9919 8.78333 45.0169 8.86667 45.0336 8.95C45.0669 9.13333 45.0586 9.29167 45.0086 9.425C44.9753 9.49167 44.9586 9.53333 44.9586 9.55C44.9419 9.61667 44.9586 9.675 45.0086 9.725C45.0419 9.775 45.0836 9.81667 45.1336 9.85C45.3169 10.0167 45.4919 10.1833 45.6586 10.35C45.8253 10.5 45.9836 10.6667 46.1336 10.85C46.2669 10.9833 46.3753 11.125 46.4586 11.275C46.5586 11.4083 46.6503 11.5583 46.7336 11.725C46.7669 11.8083 46.8086 11.9 46.8586 12C46.9086 12.0833 46.9586 12.1667 47.0086 12.25C47.0919 12.4 47.1586 12.5583 47.2086 12.725C47.2753 12.8917 47.3419 13.0583 47.4086 13.225V13.25C47.4419 13.3667 47.4669 13.4917 47.4836 13.625C47.5169 13.7417 47.5669 13.8667 47.6336 14C47.6836 14.1167 47.7253 14.2417 47.7586 14.375C47.7919 14.4917 47.8253 14.6167 47.8586 14.75C47.8919 14.9 47.9253 15.05 47.9586 15.2C48.0086 15.35 48.0419 15.5 48.0586 15.65C48.0753 15.7167 48.0919 15.7833 48.1086 15.85C48.1253 15.9 48.1419 15.9583 48.1586 16.025C48.1919 16.175 48.2253 16.325 48.2586 16.475C48.2919 16.625 48.3169 16.775 48.3336 16.925L48.4086 17.1C48.4419 17.2 48.4753 17.3333 48.5086 17.5C48.5586 17.7167 48.5836 17.9333 48.5836 18.15C48.6003 18.3667 48.6003 18.5917 48.5836 18.825C48.5836 18.9417 48.5753 19.0333 48.5586 19.1C48.4586 19.45 48.3336 19.8083 48.1836 20.175C48.1169 20.2917 48.0503 20.4083 47.9836 20.525C47.9169 20.625 47.8503 20.7333 47.7836 20.85L47.5586 21.2C47.4753 21.35 47.3836 21.4833 47.2836 21.6C47.1169 21.8667 46.9169 22.1 46.6836 22.3C46.4503 22.5 46.2003 22.6917 45.9336 22.875C45.3503 23.325 44.6669 23.5333 43.8836 23.5ZM43.7836 21.025C44.1336 21.025 44.4336 20.925 44.6836 20.725C44.7669 20.6417 44.8503 20.5667 44.9336 20.5C45.0336 20.4167 45.1169 20.3333 45.1836 20.25C45.5003 19.9 45.7503 19.5333 45.9336 19.15L46.0086 18.9C46.0419 18.6 46.0419 18.3 46.0086 18L45.8586 17.175C45.8086 16.9583 45.7669 16.75 45.7336 16.55C45.7003 16.3333 45.6503 16.125 45.5836 15.925C45.5336 15.8083 45.5169 15.7167 45.5336 15.65C45.5503 15.5667 45.5503 15.4833 45.5336 15.4C45.5169 15.3167 45.4919 15.2333 45.4586 15.15C45.4086 14.9333 45.3503 14.7167 45.2836 14.5C45.2169 14.2833 45.1503 14.0667 45.0836 13.85C45.0669 13.8 45.0503 13.75 45.0336 13.7C45.0169 13.65 45.0003 13.6 44.9836 13.55C44.8669 13.3167 44.7419 13.0917 44.6086 12.875C44.4753 12.6583 44.3253 12.4583 44.1586 12.275C44.0753 12.175 43.9836 12.0833 43.8836 12C43.7836 11.9 43.6836 11.8083 43.5836 11.725C43.5669 11.6917 43.5419 11.675 43.5086 11.675C43.4919 11.6583 43.4669 11.6417 43.4336 11.625C43.3836 11.5583 43.3169 11.5667 43.2336 11.65C43.1503 11.7333 43.0586 11.825 42.9586 11.925C42.8753 12.025 42.7919 12.125 42.7086 12.225C42.6253 12.3417 42.5336 12.4583 42.4336 12.575C42.3503 12.6917 42.2669 12.8083 42.1836 12.925C42.0669 13.075 41.9586 13.225 41.8586 13.375C41.7586 13.525 41.6586 13.675 41.5586 13.825C41.2086 14.3917 40.9336 15.0167 40.7336 15.7C40.7003 15.8 40.6836 15.875 40.6836 15.925C40.6669 16.0417 40.6503 16.1583 40.6336 16.275C40.6336 16.3917 40.6336 16.5167 40.6336 16.65V16.85C40.6503 16.9 40.6586 16.95 40.6586 17C40.6586 17.05 40.6669 17.1 40.6836 17.15C40.6836 17.35 40.7336 17.5667 40.8336 17.8C40.9669 18.1333 41.1169 18.4583 41.2836 18.775C41.4503 19.0917 41.6419 19.3917 41.8586 19.675C41.9086 19.7417 41.9586 19.8083 42.0086 19.875C42.0753 19.9417 42.1336 20.0083 42.1836 20.075C42.3336 20.2417 42.4919 20.3917 42.6586 20.525C42.8419 20.6583 43.0253 20.775 43.2086 20.875C43.4086 20.975 43.6003 21.025 43.7836 21.025ZM65.2854 26.325C65.0187 26.4917 64.802 26.4333 64.6354 26.15C64.5687 26.05 64.5354 25.9583 64.5354 25.875L64.4604 25.525C64.4437 25.275 64.4104 25.025 64.3604 24.775C64.3104 24.525 64.252 24.2667 64.1854 24C64.1854 23.9667 64.177 23.9333 64.1604 23.9C64.1604 23.8833 64.1604 23.8583 64.1604 23.825C64.1604 23.7583 64.152 23.7083 64.1354 23.675C64.0854 23.425 63.952 23.2417 63.7354 23.125C63.5854 23.0417 63.427 22.9667 63.2604 22.9C63.1104 22.8167 62.952 22.7417 62.7854 22.675L62.1604 22.375C62.027 22.3083 61.902 22.2 61.7854 22.05C61.602 21.85 61.4354 21.6417 61.2854 21.425C61.1354 21.2083 61.0104 20.975 60.9104 20.725C60.877 20.625 60.8354 20.525 60.7854 20.425C60.752 20.325 60.7187 20.225 60.6854 20.125C60.652 20.0417 60.627 19.9583 60.6104 19.875C60.5937 19.7917 60.5687 19.7167 60.5354 19.65L60.3854 19.125C60.352 19.0583 60.3354 18.9917 60.3354 18.925C60.3187 18.8083 60.302 18.7 60.2854 18.6C60.2854 18.4833 60.2687 18.3667 60.2354 18.25C60.2187 18.1333 60.202 18.0167 60.1854 17.9C60.1854 17.7833 60.1854 17.6667 60.1854 17.55C60.1854 17.4833 60.177 17.4333 60.1604 17.4C60.1437 17.1667 60.1354 16.9417 60.1354 16.725C60.1354 16.5083 60.127 16.2917 60.1104 16.075C60.1104 15.9417 60.1104 15.8083 60.1104 15.675C60.1104 15.5417 60.1187 15.4167 60.1354 15.3L60.2104 14.4C60.2104 14.35 60.2104 14.3083 60.2104 14.275C60.227 14.225 60.2354 14.1833 60.2354 14.15C60.252 13.9333 60.2687 13.725 60.2854 13.525C60.3187 13.325 60.3604 13.125 60.4104 12.925C60.4437 12.875 60.4604 12.825 60.4604 12.775C60.4604 12.725 60.4604 12.675 60.4604 12.625C60.5104 12.4417 60.552 12.2583 60.5854 12.075C60.6354 11.875 60.677 11.675 60.7104 11.475L60.8604 10.65C60.8937 10.5167 60.9187 10.3833 60.9354 10.25C60.9687 10.1167 61.002 9.98333 61.0354 9.85C61.1687 9.28333 61.402 8.8 61.7354 8.4C61.9354 8.11667 62.1687 7.89167 62.4354 7.725C62.6354 7.59167 62.8354 7.45833 63.0354 7.325C63.252 7.19167 63.4687 7.075 63.6854 6.975C63.9187 6.84167 64.1604 6.725 64.4104 6.625C64.6604 6.525 64.9187 6.43333 65.1854 6.35C65.302 6.31667 65.4104 6.28333 65.5104 6.25C65.627 6.21667 65.7437 6.19167 65.8604 6.175C66.0604 6.125 66.2604 6.10833 66.4604 6.125C66.6604 6.125 66.852 6.16667 67.0354 6.25C67.2687 6.33333 67.4687 6.44167 67.6354 6.575C67.7187 6.64167 67.802 6.70833 67.8854 6.775C67.9854 6.825 68.0687 6.89167 68.1354 6.975C68.4854 7.225 68.7104 7.56667 68.8104 8C68.827 8.06667 68.8437 8.13333 68.8604 8.2C68.877 8.25 68.8854 8.31667 68.8854 8.4C68.902 8.7 68.852 8.98333 68.7354 9.25C68.702 9.31667 68.6604 9.39167 68.6104 9.475C68.577 9.54167 68.527 9.60833 68.4604 9.675C68.377 9.775 68.2937 9.88333 68.2104 10C68.1437 10.1 68.0687 10.2 67.9854 10.3C67.8354 10.4667 67.7604 10.675 67.7604 10.925V12.475C67.7604 12.5417 67.752 12.6083 67.7354 12.675C67.7354 12.725 67.7354 12.7833 67.7354 12.85C67.7187 12.9333 67.7104 13.025 67.7104 13.125C67.7104 13.2083 67.7104 13.2917 67.7104 13.375C67.7104 13.4583 67.7437 13.4833 67.8104 13.45H67.8854C67.9354 13.4333 67.977 13.425 68.0104 13.425C68.0604 13.425 68.102 13.4167 68.1354 13.4C68.3854 13.3167 68.6354 13.2583 68.8854 13.225C69.1354 13.175 69.3937 13.1417 69.6604 13.125C69.8937 13.0917 70.1187 13.0917 70.3354 13.125C70.552 13.1417 70.7687 13.175 70.9854 13.225C71.1354 13.275 71.277 13.3333 71.4104 13.4C71.5604 13.45 71.6937 13.525 71.8104 13.625C71.8937 13.6917 71.977 13.7667 72.0604 13.85C72.1437 13.9167 72.2104 13.9917 72.2604 14.075C72.377 14.2417 72.4687 14.4167 72.5354 14.6C72.6187 14.7667 72.6604 14.9417 72.6604 15.125V15.15C72.6937 15.3167 72.7104 15.4833 72.7104 15.65C72.7104 15.8167 72.6937 15.9833 72.6604 16.15C72.6437 16.25 72.627 16.35 72.6104 16.45C72.5937 16.5333 72.577 16.625 72.5604 16.725C72.527 16.875 72.4854 17.025 72.4354 17.175C72.402 17.325 72.3687 17.475 72.3354 17.625C72.3187 17.6917 72.302 17.7583 72.2854 17.825C72.2854 17.875 72.2854 17.9333 72.2854 18V19.45C72.2854 19.5833 72.2937 19.7167 72.3104 19.85C72.327 19.9833 72.3437 20.1167 72.3604 20.25C72.377 20.3333 72.3937 20.4167 72.4104 20.5C72.4437 20.5833 72.4687 20.6667 72.4854 20.75C72.4854 20.7833 72.5187 20.8333 72.5854 20.9C72.6687 20.9833 72.7187 21.075 72.7354 21.175C72.7354 21.225 72.7437 21.2583 72.7604 21.275C72.827 21.425 72.8604 21.6 72.8604 21.8C72.8604 21.8667 72.852 21.9333 72.8354 22C72.8354 22.0667 72.8437 22.1417 72.8604 22.225C72.8937 22.325 72.8687 22.4167 72.7854 22.5C72.752 22.5333 72.727 22.575 72.7104 22.625C72.6937 22.675 72.6687 22.725 72.6354 22.775C72.5854 22.875 72.5187 22.9667 72.4354 23.05C72.3854 23.0667 72.3437 23.1 72.3104 23.15C72.277 23.2 72.2437 23.2417 72.2104 23.275C72.077 23.425 71.9187 23.475 71.7354 23.425C71.7187 23.425 71.6937 23.4167 71.6604 23.4C71.6437 23.4 71.627 23.4 71.6104 23.4C71.4604 23.3833 71.327 23.3333 71.2104 23.25C71.1104 23.1833 71.0104 23.1 70.9104 23C70.877 22.95 70.8354 22.9 70.7854 22.85C70.752 22.7833 70.7104 22.725 70.6604 22.675C70.6104 22.6083 70.5687 22.5333 70.5354 22.45C70.5187 22.3667 70.4937 22.2917 70.4604 22.225C70.3937 21.9917 70.3187 21.75 70.2354 21.5C70.1687 21.25 70.1187 21 70.0854 20.75C70.052 20.5167 70.0104 20.2833 69.9604 20.05C69.9104 19.8 69.877 19.55 69.8604 19.3C69.827 19.1667 69.8104 19.05 69.8104 18.95C69.777 18.8833 69.7604 18.85 69.7604 18.85C69.6937 18.8833 69.652 18.9083 69.6354 18.925C69.4687 19.125 69.2854 19.325 69.0854 19.525C68.8854 19.7083 68.6937 19.9 68.5104 20.1C68.477 20.15 68.4354 20.2 68.3854 20.25C68.352 20.2833 68.3187 20.3167 68.2854 20.35C68.1854 20.45 68.0854 20.55 67.9854 20.65C67.8854 20.7333 67.7937 20.825 67.7104 20.925C67.6437 20.975 67.5854 21.025 67.5354 21.075C67.4854 21.125 67.427 21.1667 67.3604 21.2C67.327 21.2333 67.2937 21.2667 67.2604 21.3C67.227 21.3333 67.1937 21.3667 67.1604 21.4C67.0937 21.4667 67.027 21.5333 66.9604 21.6C66.9104 21.65 66.8437 21.7 66.7604 21.75L66.6604 21.85C66.3937 22.0667 66.127 22.2583 65.8604 22.425C65.577 22.575 65.4354 22.8167 65.4354 23.15C65.4354 23.25 65.4354 23.35 65.4354 23.45C65.4354 23.55 65.4437 23.65 65.4604 23.75C65.4604 23.7667 65.4604 23.775 65.4604 23.775C65.477 23.775 65.4854 23.7833 65.4854 23.8C65.502 24.1167 65.5187 24.4333 65.5354 24.75C65.5687 25.0833 65.577 25.4167 65.5604 25.75C65.5437 25.8 65.5354 25.8667 65.5354 25.95C65.502 26.1 65.4187 26.225 65.2854 26.325ZM65.1354 19.225C65.4354 19.375 65.727 19.3667 66.0104 19.2C66.0604 19.15 66.102 19.1167 66.1354 19.1C66.2687 19 66.3937 18.9 66.5104 18.8C66.627 18.6833 66.7437 18.575 66.8604 18.475C66.977 18.375 67.0854 18.275 67.1854 18.175C67.2854 18.0583 67.3937 17.95 67.5104 17.85C67.6437 17.7167 67.777 17.575 67.9104 17.425C68.0437 17.275 68.1687 17.125 68.2854 16.975C68.3687 16.875 68.4354 16.7667 68.4854 16.65C68.552 16.5667 68.5937 16.4667 68.6104 16.35C68.6104 16.2333 68.5604 16.1917 68.4604 16.225C68.377 16.2417 68.2937 16.2583 68.2104 16.275C68.127 16.2917 68.0437 16.3333 67.9604 16.4C67.8604 16.4667 67.752 16.5333 67.6354 16.6C67.5354 16.6667 67.427 16.7417 67.3104 16.825C67.277 16.8583 67.2437 16.9083 67.2104 16.975C67.177 17.0917 67.1437 17.2333 67.1104 17.4C67.1104 17.5167 67.102 17.625 67.0854 17.725C67.0854 17.825 67.077 17.925 67.0604 18.025C67.0104 18.2583 66.8937 18.4083 66.7104 18.475C66.5937 18.525 66.4937 18.5167 66.4104 18.45C66.2937 18.3833 66.2104 18.2917 66.1604 18.175C66.127 18.0583 66.0937 17.9417 66.0604 17.825C66.027 17.7083 66.002 17.5917 65.9854 17.475L65.9104 17C65.9104 16.8 65.8187 16.5917 65.6354 16.375C65.602 16.3417 65.5604 16.3 65.5104 16.25C65.477 16.2 65.4437 16.15 65.4104 16.1C65.3437 16 65.2854 15.8917 65.2354 15.775C65.202 15.6583 65.1687 15.5417 65.1354 15.425L65.1104 15.25C65.127 14.9333 65.2437 14.6583 65.4604 14.425C65.727 14.125 66.0187 13.9333 66.3354 13.85L66.5854 13.775C66.6854 13.7417 66.7187 13.6833 66.6854 13.6C66.6687 13.5167 66.652 13.4333 66.6354 13.35C66.6187 13.25 66.602 13.1583 66.5854 13.075C66.5687 12.9083 66.552 12.75 66.5354 12.6C66.5354 12.4333 66.5187 12.2667 66.4854 12.1C66.4854 12.1 66.4854 12.0583 66.4854 11.975C66.4687 11.7917 66.4437 11.6083 66.4104 11.425C66.3937 11.225 66.3687 11.025 66.3354 10.825C66.302 10.6583 66.2354 10.525 66.1354 10.425C66.002 10.2917 65.852 10.225 65.6854 10.225C65.5354 10.2583 65.427 10.3 65.3604 10.35C65.1937 10.4667 65.0354 10.5833 64.8854 10.7C64.7354 10.8 64.5687 10.8917 64.3854 10.975C64.2687 11.0417 64.1854 11.1167 64.1354 11.2C64.0854 11.3167 64.027 11.4333 63.9604 11.55C63.9104 11.65 63.8687 11.7667 63.8354 11.9C63.8187 11.9833 63.7937 12.075 63.7604 12.175C63.727 12.2583 63.6937 12.3417 63.6604 12.425C63.6604 12.4583 63.652 12.4917 63.6354 12.525C63.6187 12.5583 63.602 12.5917 63.5854 12.625C63.5354 12.7417 63.4937 12.85 63.4604 12.95C63.427 13.0667 63.3937 13.1833 63.3604 13.3C63.327 13.4167 63.2937 13.5417 63.2604 13.675C63.227 13.7917 63.1937 13.9333 63.1604 14.1C63.127 14.2667 63.0937 14.4333 63.0604 14.6C63.027 14.7667 62.9937 14.9333 62.9604 15.1C62.9437 15.1667 62.927 15.2333 62.9104 15.3C62.9104 15.35 62.9104 15.4167 62.9104 15.5C62.9104 15.5667 62.9104 15.6417 62.9104 15.725C62.9104 15.8083 62.8937 15.8917 62.8604 15.975C62.8604 16.025 62.852 16.0833 62.8354 16.15C62.8354 16.2 62.8354 16.25 62.8354 16.3C62.8354 16.35 62.8354 16.4 62.8354 16.45C62.852 16.5 62.8604 16.5667 62.8604 16.65C62.8437 16.7667 62.8437 16.9083 62.8604 17.075C62.877 17.225 62.8937 17.375 62.9104 17.525L62.9604 17.725C62.9937 17.825 63.0354 17.9333 63.0854 18.05C63.1354 18.15 63.1937 18.2417 63.2604 18.325C63.427 18.5083 63.5854 18.6583 63.7354 18.775C63.8854 18.8917 63.9854 18.9667 64.0354 19C64.102 19.0167 64.2354 19.025 64.4354 19.025C64.5854 19.025 64.7354 19.05 64.8854 19.1C64.952 19.1167 65.0354 19.1583 65.1354 19.225ZM77.2773 23.25C77.1773 23.25 77.1107 23.2417 77.0773 23.225C77.0107 23.1917 76.9523 23.1667 76.9023 23.15C76.8523 23.1333 76.8023 23.1167 76.7523 23.1C76.7023 23.0667 76.6523 23.0333 76.6023 23C76.569 22.95 76.5357 22.9 76.5023 22.85C76.469 22.8167 76.4357 22.8 76.4023 22.8C76.3023 22.8 76.2523 22.75 76.2523 22.65C76.2357 22.55 76.219 22.45 76.2023 22.35C76.1857 22.25 76.169 22.15 76.1523 22.05C76.1357 21.9 76.119 21.75 76.1023 21.6C76.1023 21.45 76.0857 21.3083 76.0523 21.175V20.95C76.0523 20.8833 76.044 20.825 76.0273 20.775C76.0273 20.725 76.0273 20.6667 76.0273 20.6C75.994 20.5167 75.994 20.45 76.0273 20.4C76.0607 20.1 76.0607 19.8 76.0273 19.5C76.0107 19.4167 76.0023 19.3333 76.0023 19.25C76.0023 19.1667 75.994 19.0833 75.9773 19C75.9773 18.8333 75.9773 18.6667 75.9773 18.5C75.9773 18.3167 75.9607 18.1417 75.9273 17.975V17.575C75.9273 17.4417 75.919 17.3167 75.9023 17.2C75.9023 17.0833 75.894 16.9667 75.8773 16.85C75.8607 16.7 75.844 16.55 75.8273 16.4C75.8273 16.25 75.819 16.1 75.8023 15.95C75.7857 15.9167 75.7773 15.8583 75.7773 15.775C75.7607 15.6917 75.744 15.6083 75.7273 15.525C75.7273 15.425 75.7273 15.3333 75.7273 15.25L75.6523 14C75.6357 13.8667 75.619 13.7417 75.6023 13.625C75.6023 13.4917 75.6023 13.3667 75.6023 13.25C75.5857 13.05 75.569 12.85 75.5523 12.65C75.5357 12.45 75.519 12.2583 75.5023 12.075C75.5023 12.0417 75.494 12.0083 75.4773 11.975C75.4773 11.9417 75.4773 11.9167 75.4773 11.9C75.4773 11.7 75.469 11.5 75.4523 11.3C75.4357 11.1 75.419 10.8917 75.4023 10.675L75.3273 9.975C75.2773 9.70833 75.269 9.41667 75.3023 9.1C75.3023 8.95 75.3607 8.825 75.4773 8.725C75.5107 8.69167 75.5357 8.675 75.5523 8.675C75.569 8.65833 75.5857 8.64167 75.6023 8.625C75.6857 8.60833 75.7273 8.55 75.7273 8.45C75.7273 8.41667 75.7607 8.4 75.8273 8.4H75.9523C75.969 8.4 75.9773 8.4 75.9773 8.4C75.994 8.38333 76.0107 8.375 76.0273 8.375C76.0607 8.35833 76.0857 8.34167 76.1023 8.325C76.1357 8.29167 76.1607 8.275 76.1773 8.275C76.2107 8.275 76.244 8.28333 76.2773 8.3C76.3107 8.3 76.344 8.30833 76.3773 8.325C76.4107 8.325 76.4357 8.31667 76.4523 8.3C76.5357 8.28333 76.619 8.29167 76.7023 8.325C76.8023 8.34167 76.8857 8.36667 76.9523 8.4C77.0523 8.41667 77.1273 8.48333 77.1773 8.6C77.2273 8.75 77.269 8.9 77.3023 9.05C77.3523 9.18333 77.3857 9.325 77.4023 9.475V9.675C77.4357 9.79167 77.4523 9.91667 77.4523 10.05C77.4523 10.1667 77.4523 10.2917 77.4523 10.425C77.4523 10.5417 77.4523 10.6583 77.4523 10.775C77.469 10.875 77.4857 10.975 77.5023 11.075C77.5023 11.125 77.5023 11.175 77.5023 11.225C77.5023 11.275 77.5107 11.325 77.5273 11.375C77.5273 11.475 77.5273 11.575 77.5273 11.675C77.544 11.775 77.5607 11.8833 77.5773 12C77.594 12.1833 77.6107 12.375 77.6273 12.575C77.644 12.775 77.6523 12.975 77.6523 13.175C77.6523 13.2583 77.6523 13.35 77.6523 13.45C77.6523 13.5333 77.6607 13.6167 77.6773 13.7C77.694 13.75 77.7023 13.8 77.7023 13.85C77.7023 13.9 77.7023 13.95 77.7023 14V14.5C77.7023 14.6 77.7107 14.6833 77.7273 14.75C77.7607 14.8667 77.769 14.9833 77.7523 15.1C77.7523 15.2 77.7607 15.3083 77.7773 15.425L77.8523 16.575C77.869 16.7417 77.8773 16.9167 77.8773 17.1C77.894 17.2667 77.9023 17.4417 77.9023 17.625C77.9023 17.6917 77.9023 17.7667 77.9023 17.85C77.9023 17.9167 77.9107 17.9833 77.9273 18.05C77.944 18.1 77.9523 18.15 77.9523 18.2C77.9523 18.25 77.9523 18.3 77.9523 18.35C77.969 18.3667 77.969 18.4 77.9523 18.45C77.9523 18.4833 77.9607 18.5167 77.9773 18.55C78.0107 18.6667 78.0273 18.7833 78.0273 18.9C78.0273 19.0167 78.0273 19.1417 78.0273 19.275C78.0273 19.3417 78.0273 19.4167 78.0273 19.5C78.044 19.5667 78.0523 19.6417 78.0523 19.725C78.069 19.8083 78.0773 19.9 78.0773 20C78.0773 20.1 78.0773 20.1917 78.0773 20.275C78.094 20.3583 78.1023 20.45 78.1023 20.55C78.1023 20.6333 78.1107 20.7167 78.1273 20.8C78.144 20.8333 78.1523 20.8667 78.1523 20.9C78.1523 21.0833 78.169 21.2667 78.2023 21.45C78.2357 21.6333 78.269 21.8167 78.3023 22C78.319 22.05 78.3273 22.1083 78.3273 22.175C78.3273 22.225 78.3273 22.275 78.3273 22.325C78.3273 22.375 78.3107 22.4167 78.2773 22.45C78.2107 22.5 78.1607 22.6 78.1273 22.75C78.1273 22.8 78.1023 22.8417 78.0523 22.875C77.9357 22.925 77.8357 22.9917 77.7523 23.075C77.619 23.1917 77.4607 23.25 77.2773 23.25ZM83.1344 23.075C83.001 23.125 82.851 23.1083 82.6844 23.025L82.1844 22.8C82.101 22.7667 82.0344 22.6917 81.9844 22.575L81.9094 22.425C81.876 22.3417 81.8344 22.2833 81.7844 22.25C81.701 22.1833 81.6427 22.0667 81.6094 21.9C81.576 21.7333 81.551 21.5667 81.5344 21.4C81.5177 21.2333 81.501 21.0667 81.4844 20.9C81.4677 20.7667 81.4594 20.6333 81.4594 20.5C81.4594 20.3667 81.4594 20.2417 81.4594 20.125L81.4844 19.95C81.5177 19.8667 81.5344 19.7833 81.5344 19.7C81.5344 19.6167 81.5344 19.5417 81.5344 19.475V14.925C81.5677 14.6917 81.5844 14.4583 81.5844 14.225C81.5844 13.975 81.5844 13.7333 81.5844 13.5C81.601 13.2667 81.6094 13.0417 81.6094 12.825C81.6094 12.5917 81.5927 12.3667 81.5594 12.15C81.5427 12.0667 81.5344 11.975 81.5344 11.875C81.5344 11.775 81.5344 11.675 81.5344 11.575C81.5344 11.425 81.5344 11.275 81.5344 11.125C81.5344 10.975 81.5177 10.825 81.4844 10.675V10.6C81.4844 10.3667 81.4677 10.1417 81.4344 9.925C81.4177 9.69167 81.401 9.46667 81.3844 9.25C81.3677 9.11667 81.351 8.99167 81.3344 8.875C81.3177 8.75833 81.2927 8.64167 81.2594 8.525C81.2427 8.45833 81.2344 8.39167 81.2344 8.325C81.2344 8.25833 81.2344 8.19167 81.2344 8.125C81.2344 8.00833 81.251 7.9 81.2844 7.8C81.3177 7.68333 81.351 7.575 81.3844 7.475C81.401 7.44167 81.4427 7.39167 81.5094 7.325C81.5427 7.29167 81.576 7.26667 81.6094 7.25C81.6427 7.23333 81.6677 7.21667 81.6844 7.2C81.7844 7.06667 81.9177 7.00833 82.0844 7.025C82.1177 7.04167 82.1677 7.03333 82.2344 7C82.3177 6.93333 82.3927 6.925 82.4594 6.975C82.5094 7.00833 82.5927 7.00833 82.7094 6.975C82.7594 6.975 82.801 6.99167 82.8344 7.025C82.8844 7.09167 82.951 7.14167 83.0344 7.175C83.1177 7.20833 83.176 7.25833 83.2094 7.325C83.2594 7.375 83.3094 7.425 83.3594 7.475C83.3927 7.525 83.426 7.575 83.4594 7.625C83.5094 7.65833 83.5344 7.70833 83.5344 7.775C83.551 7.84167 83.551 7.90833 83.5344 7.975C83.5344 8.025 83.5344 8.08333 83.5344 8.15C83.5344 8.3 83.5427 8.45833 83.5594 8.625C83.5927 8.775 83.6177 8.925 83.6344 9.075C83.6677 9.24167 83.6927 9.41667 83.7094 9.6C83.726 9.76667 83.7427 9.94167 83.7594 10.125V10.375C83.7927 10.4917 83.8094 10.6083 83.8094 10.725C83.8094 10.8417 83.8177 10.9583 83.8344 11.075V11.1C83.851 11.3 83.8677 11.5 83.8844 11.7C83.901 11.9 83.9177 12.1 83.9344 12.3C83.951 12.3833 83.9594 12.475 83.9594 12.575C83.9594 12.6583 83.9594 12.7417 83.9594 12.825V19.475C83.9594 19.625 83.9677 19.775 83.9844 19.925C84.0177 20.075 84.0427 20.2167 84.0594 20.35C84.0594 20.4333 84.1094 20.475 84.2094 20.475C84.3594 20.5083 84.501 20.5083 84.6344 20.475C84.8177 20.4417 84.9927 20.425 85.1594 20.425C85.3427 20.425 85.526 20.425 85.7094 20.425C85.8927 20.425 86.0677 20.425 86.2344 20.425C86.4177 20.4083 86.5927 20.3917 86.7594 20.375H87.0344C87.1677 20.3917 87.2844 20.4083 87.3844 20.425C87.501 20.425 87.6177 20.425 87.7344 20.425C87.9177 20.425 88.101 20.4333 88.2844 20.45C88.4844 20.45 88.676 20.4583 88.8594 20.475C88.9927 20.4917 89.126 20.5 89.2594 20.5C89.4094 20.5 89.5594 20.5 89.7094 20.5H89.8344C90.1677 20.4833 90.4677 20.5667 90.7344 20.75C90.851 20.8 90.9344 20.8833 90.9844 21C91.0177 21.0667 91.0427 21.1333 91.0594 21.2C91.0927 21.25 91.1177 21.3167 91.1344 21.4C91.151 21.4667 91.1594 21.5333 91.1594 21.6C91.176 21.65 91.1927 21.7083 91.2094 21.775C91.2594 21.925 91.2427 22.0917 91.1594 22.275C91.1427 22.325 91.126 22.375 91.1094 22.425C91.0927 22.475 91.0677 22.525 91.0344 22.575C91.001 22.625 90.9594 22.6667 90.9094 22.7C90.9094 22.7 90.876 22.7167 90.8094 22.75C90.676 22.8667 90.526 22.9417 90.3594 22.975C90.2094 23.0083 90.0427 23.0417 89.8594 23.075L89.6094 23.05C89.3594 22.9667 89.1094 22.9167 88.8594 22.9C88.7927 22.8833 88.7177 22.875 88.6344 22.875C88.551 22.8583 88.4677 22.85 88.3844 22.85C88.2677 22.85 88.151 22.85 88.0344 22.85C87.9177 22.8333 87.7927 22.8167 87.6594 22.8L87.4094 22.775C87.2594 22.7917 87.1094 22.8 86.9594 22.8C86.8094 22.7833 86.6594 22.7833 86.5094 22.8C86.4427 22.8 86.376 22.8 86.3094 22.8C86.2427 22.7833 86.176 22.775 86.1094 22.775C85.976 22.775 85.8427 22.775 85.7094 22.775C85.5927 22.775 85.4677 22.7917 85.3344 22.825C85.2677 22.8417 85.1844 22.8583 85.0844 22.875C85.001 22.875 84.9177 22.875 84.8344 22.875C84.5844 22.8917 84.3344 22.9167 84.0844 22.95C83.8344 22.9667 83.5927 23 83.3594 23.05C83.3094 23.0667 83.2344 23.075 83.1344 23.075ZM94.8652 23.25C94.7319 23.2333 94.5986 23.2 94.4652 23.15C94.3319 23.1167 94.2152 23.0583 94.1152 22.975C94.0986 22.9417 94.0736 22.9167 94.0402 22.9C94.0069 22.8667 93.9819 22.8417 93.9652 22.825C93.8986 22.725 93.8402 22.6167 93.7902 22.5C93.7402 22.3833 93.7069 22.2667 93.6902 22.15C93.6736 21.9 93.6986 21.65 93.7652 21.4C93.8486 21.1333 93.9069 20.8667 93.9402 20.6C93.9736 20.3167 93.9902 20.0333 93.9902 19.75C94.0069 19.4167 94.0152 19.0833 94.0152 18.75C94.0152 18.4167 94.0152 18.0917 94.0152 17.775C94.0152 17.6917 94.0069 17.6083 93.9902 17.525C93.9902 17.425 93.9819 17.3333 93.9652 17.25C93.9486 17.1667 93.9402 17.075 93.9402 16.975C93.9402 16.875 93.9402 16.7833 93.9402 16.7C93.9402 16.6167 93.9319 16.5333 93.9152 16.45C93.9152 16.35 93.9069 16.2583 93.8902 16.175C93.8736 16.1083 93.8652 16.0417 93.8652 15.975C93.8819 15.9083 93.8819 15.8417 93.8652 15.775C93.8652 15.6583 93.8652 15.5417 93.8652 15.425C93.8652 15.3083 93.8569 15.1917 93.8402 15.075C93.8236 15.0583 93.8152 15.025 93.8152 14.975V13.625C93.7986 13.5417 93.7902 13.4667 93.7902 13.4C93.7902 13.3167 93.7902 13.2333 93.7902 13.15C93.8069 13.1 93.8152 13.025 93.8152 12.925V12.625C93.8152 12.525 93.8069 12.4333 93.7902 12.35C93.7902 12.25 93.7986 12.15 93.8152 12.05V11.925C93.7986 11.7917 93.7902 11.6667 93.7902 11.55C93.8069 11.4167 93.8236 11.2917 93.8402 11.175C93.8569 11.1083 93.8652 11 93.8652 10.85C93.8319 10.75 93.8152 10.675 93.8152 10.625C93.7986 10.5417 93.7819 10.4667 93.7652 10.4C93.7652 10.3167 93.7736 10.2417 93.7902 10.175C93.8069 10.025 93.7736 9.86667 93.6902 9.7C93.6402 9.63333 93.5986 9.56667 93.5652 9.5C93.5486 9.41667 93.5236 9.34167 93.4902 9.275V9.2C93.5236 9.16667 93.5569 9.16667 93.5902 9.2C93.6402 9.21667 93.6652 9.20833 93.6652 9.175C93.6819 9.14167 93.6902 9.10833 93.6902 9.075C93.6902 9.025 93.6986 8.99167 93.7152 8.975C93.7319 8.925 93.7236 8.85833 93.6902 8.775C93.6736 8.725 93.6986 8.69167 93.7652 8.675C93.7986 8.60833 93.8569 8.56667 93.9402 8.55C94.0236 8.51667 94.0736 8.49167 94.0902 8.475C94.1402 8.40833 94.1986 8.375 94.2652 8.375C94.3319 8.375 94.3986 8.375 94.4652 8.375C94.5152 8.375 94.5902 8.35833 94.6902 8.325C94.7569 8.30833 94.8236 8.30833 94.8902 8.325C94.9236 8.34167 94.9569 8.36667 94.9902 8.4C95.0236 8.41667 95.0569 8.43333 95.0902 8.45C95.2569 8.51667 95.3986 8.65 95.5152 8.85C95.5486 8.93333 95.5819 9.01667 95.6152 9.1C95.6486 9.18333 95.6569 9.275 95.6402 9.375C95.6402 9.425 95.6736 9.45 95.7402 9.45H95.9402C96.0236 9.41667 96.1069 9.4 96.1902 9.4C96.2902 9.4 96.3736 9.4 96.4402 9.4H97.0902C97.2736 9.38333 97.4569 9.39167 97.6402 9.425C97.8402 9.44167 98.0319 9.46667 98.2152 9.5C98.7652 9.56667 99.2902 9.69167 99.7902 9.875C100.34 10.0417 100.857 10.3167 101.34 10.7C101.524 10.8333 101.724 11.025 101.94 11.275C102.007 11.3417 102.065 11.4167 102.115 11.5C102.182 11.5667 102.24 11.6417 102.29 11.725C102.474 12.0083 102.565 12.3 102.565 12.6C102.599 12.8 102.599 12.9917 102.565 13.175C102.565 13.325 102.532 13.4583 102.465 13.575C102.465 13.575 102.457 13.5833 102.44 13.6C102.44 13.6 102.44 13.6083 102.44 13.625C102.407 13.675 102.382 13.7333 102.365 13.8C102.365 13.8667 102.34 13.9167 102.29 13.95L102.065 14.225C101.982 14.325 101.89 14.4333 101.79 14.55C101.707 14.65 101.607 14.7417 101.49 14.825L101.24 15C101.19 15.0167 101.14 15.0417 101.09 15.075C101.04 15.1083 100.999 15.15 100.965 15.2C100.915 15.25 100.857 15.2917 100.79 15.325C100.724 15.375 100.649 15.425 100.565 15.475C100.499 15.5083 100.424 15.5417 100.34 15.575C100.257 15.6083 100.257 15.65 100.34 15.7L100.515 15.775C100.599 15.825 100.69 15.875 100.79 15.925C100.89 15.9583 100.982 16 101.065 16.05C101.199 16.1167 101.332 16.2 101.465 16.3C101.615 16.3833 101.749 16.4667 101.865 16.55L102.165 16.825C102.249 16.9083 102.324 17 102.39 17.1C102.474 17.1833 102.549 17.275 102.615 17.375C102.749 17.5417 102.857 17.725 102.94 17.925C103.04 18.125 103.107 18.3333 103.14 18.55C103.174 18.6667 103.19 18.7917 103.19 18.925C103.19 19.0417 103.174 19.1667 103.14 19.3C103.107 19.4333 103.115 19.5583 103.165 19.675C103.182 19.725 103.174 19.8083 103.14 19.925L103.065 20.25C103.032 20.35 102.99 20.4417 102.94 20.525C102.907 20.6083 102.849 20.6917 102.765 20.775L102.465 21.175C102.365 21.2917 102.257 21.4083 102.14 21.525C102.04 21.6417 101.924 21.7417 101.79 21.825L101.565 21.975C101.532 21.975 101.482 21.9917 101.415 22.025C100.682 22.4083 99.9236 22.6083 99.1402 22.625C99.0569 22.625 98.9902 22.6333 98.9402 22.65C98.7902 22.6667 98.6319 22.6833 98.4652 22.7C98.3152 22.7 98.1569 22.7 97.9902 22.7C97.8569 22.7 97.7152 22.7167 97.5652 22.75C97.4319 22.7667 97.2986 22.775 97.1652 22.775C97.0986 22.7917 97.0319 22.8083 96.9652 22.825C96.8986 22.825 96.8319 22.825 96.7652 22.825C96.6819 22.8417 96.5902 22.8583 96.4902 22.875C96.4069 22.8917 96.3236 22.9167 96.2402 22.95C96.1902 22.9667 96.1402 22.9833 96.0902 23C96.0569 23.0167 96.0152 23.0417 95.9652 23.075C95.7986 23.1917 95.6069 23.25 95.3902 23.25H94.8652ZM95.9652 14.925C96.0319 14.925 96.0902 14.9167 96.1402 14.9C96.2069 14.8833 96.2652 14.8667 96.3152 14.85C96.5319 14.7667 96.7402 14.6917 96.9402 14.625C97.1402 14.5417 97.3486 14.4667 97.5652 14.4C97.8152 14.3167 98.0652 14.225 98.3152 14.125C98.5652 14.0083 98.8152 13.9 99.0652 13.8C99.2652 13.7167 99.4569 13.6083 99.6402 13.475C99.8402 13.3417 100.024 13.2083 100.19 13.075C100.224 13.0583 100.249 13.0417 100.265 13.025C100.282 12.9917 100.299 12.9667 100.315 12.95C100.349 12.9 100.349 12.85 100.315 12.8L100.24 12.675C100.174 12.625 100.115 12.575 100.065 12.525C100.015 12.475 99.9486 12.425 99.8652 12.375C99.7986 12.3417 99.7319 12.3 99.6652 12.25C99.5986 12.2 99.5236 12.1583 99.4402 12.125L99.2152 11.975C98.9652 11.875 98.7152 11.7917 98.4652 11.725C98.2152 11.6583 97.9569 11.625 97.6902 11.625H96.8402C96.7069 11.625 96.5736 11.6333 96.4402 11.65C96.3069 11.6667 96.1736 11.6917 96.0402 11.725C95.9902 11.725 95.9152 11.7417 95.8152 11.775C95.7152 11.7917 95.6652 11.85 95.6652 11.95V12.525C95.6986 12.6917 95.6986 12.8667 95.6652 13.05V13.275C95.6986 13.375 95.7152 13.4833 95.7152 13.6C95.7152 13.7 95.7152 13.8083 95.7152 13.925C95.7319 14.225 95.7819 14.5417 95.8652 14.875C95.8652 14.9083 95.8986 14.925 95.9652 14.925ZM96.1652 20.7H96.2652C96.3819 20.6833 96.4986 20.675 96.6152 20.675C96.7319 20.6583 96.8486 20.6417 96.9652 20.625C97.1652 20.5917 97.3652 20.5583 97.5652 20.525C97.7819 20.4917 97.9902 20.4667 98.1902 20.45C98.5736 20.4167 98.9486 20.3667 99.3152 20.3C99.4652 20.2667 99.6069 20.2333 99.7402 20.2C99.8902 20.1667 100.032 20.1333 100.165 20.1C100.249 20.0667 100.324 20.0333 100.39 20C100.474 19.95 100.549 19.9083 100.615 19.875C100.849 19.7083 100.982 19.4583 101.015 19.125C101.032 18.8083 100.915 18.55 100.665 18.35C100.632 18.3167 100.565 18.2667 100.465 18.2C100.199 18.0167 99.9152 17.8667 99.6152 17.75C99.3152 17.6333 99.0069 17.5417 98.6902 17.475C98.5402 17.4417 98.3902 17.4167 98.2402 17.4C98.1069 17.3667 97.9652 17.3583 97.8152 17.375C97.7486 17.375 97.6736 17.3833 97.5902 17.4C97.5236 17.4 97.4569 17.4 97.3902 17.4C97.3236 17.4 97.2569 17.4083 97.1902 17.425C97.1236 17.425 97.0486 17.425 96.9652 17.425C96.8819 17.425 96.7902 17.425 96.6902 17.425C96.6069 17.425 96.5236 17.4333 96.4402 17.45H96.2152C96.1319 17.4833 96.0902 17.5333 96.0902 17.6C96.1069 17.7333 96.1152 17.875 96.1152 18.025C96.1152 18.175 96.1152 18.3167 96.1152 18.45C96.1152 18.4833 96.1152 18.5167 96.1152 18.55C96.1319 18.5833 96.1402 18.6167 96.1402 18.65V19.175C96.1236 19.275 96.1152 19.375 96.1152 19.475C96.1152 19.575 96.1152 19.6667 96.1152 19.75C96.1152 19.8667 96.1152 19.9833 96.1152 20.1C96.1319 20.2 96.1236 20.3083 96.0902 20.425C96.0736 20.4583 96.0652 20.5167 96.0652 20.6C96.0652 20.6333 96.0986 20.6667 96.1652 20.7ZM108.475 23.175C108.375 23.175 108.309 23.1667 108.275 23.15C108.192 23.1167 108.109 23.1 108.025 23.1C107.959 23.1167 107.884 23.125 107.8 23.125C107.784 23.125 107.767 23.125 107.75 23.125C107.734 23.1417 107.717 23.15 107.7 23.15C107.584 23.1667 107.467 23.175 107.35 23.175C107.25 23.175 107.15 23.1583 107.05 23.125C107.034 23.1083 107.017 23.1 107 23.1C106.884 23.1167 106.784 23.0833 106.7 23C106.617 22.9167 106.534 22.8417 106.45 22.775C106.367 22.6917 106.325 22.6 106.325 22.5L106.25 22.3C106.2 22.1833 106.184 22.075 106.2 21.975C106.217 21.9417 106.217 21.9083 106.2 21.875C106.2 21.8417 106.2 21.8083 106.2 21.775C106.184 21.7417 106.175 21.7083 106.175 21.675C106.175 21.625 106.167 21.5833 106.15 21.55C106.117 21.4 106.092 21.25 106.075 21.1C106.075 20.9333 106.084 20.775 106.1 20.625C106.117 20.525 106.175 20.3583 106.275 20.125C106.375 19.875 106.434 19.725 106.45 19.675C106.5 19.5917 106.525 19.525 106.525 19.475C106.509 19.2917 106.5 19.1083 106.5 18.925C106.517 18.725 106.525 18.5333 106.525 18.35C106.525 18.2333 106.55 18.1417 106.6 18.075C106.667 17.9583 106.675 17.8333 106.625 17.7L106.55 17.425C106.45 17.2417 106.459 17.0833 106.575 16.95C106.575 16.9333 106.575 16.925 106.575 16.925C106.592 16.9083 106.6 16.8917 106.6 16.875C106.634 16.8417 106.642 16.8 106.625 16.75C106.609 16.6833 106.6 16.6333 106.6 16.6C106.6 16.5333 106.609 16.4667 106.625 16.4C106.659 16.3167 106.667 16.2417 106.65 16.175C106.65 16.175 106.634 16.1583 106.6 16.125C106.584 16.0917 106.575 16.025 106.575 15.925C106.592 15.825 106.6 15.7667 106.6 15.75V15.05C106.617 14.9667 106.625 14.8917 106.625 14.825C106.625 14.7417 106.634 14.6583 106.65 14.575C106.667 14.475 106.667 14.375 106.65 14.275C106.65 14.1583 106.65 14.0417 106.65 13.925C106.634 13.8417 106.617 13.75 106.6 13.65C106.6 13.55 106.6 13.45 106.6 13.35C106.584 13.3167 106.575 13.275 106.575 13.225C106.575 13.175 106.575 13.1333 106.575 13.1C106.559 13.0167 106.542 12.9333 106.525 12.85C106.525 12.7667 106.525 12.6833 106.525 12.6C106.525 12.5667 106.492 12.4583 106.425 12.275C106.359 12.075 106.334 11.9083 106.35 11.775C106.367 11.7417 106.375 11.7 106.375 11.65C106.375 11.6 106.359 11.5583 106.325 11.525C106.292 11.5083 106.275 11.475 106.275 11.425V11.35C106.325 11.15 106.3 10.95 106.2 10.75C106.134 10.65 106.109 10.55 106.125 10.45C106.125 10.3167 106.067 10.2167 105.95 10.15C105.867 10.0667 105.792 9.96667 105.725 9.85C105.659 9.73333 105.617 9.61667 105.6 9.5C105.584 9.41667 105.575 9.33333 105.575 9.25C105.575 9.16667 105.575 9.09167 105.575 9.025C105.575 8.95833 105.584 8.91667 105.6 8.9C105.667 8.83333 105.7 8.75833 105.7 8.675C105.7 8.575 105.709 8.5 105.725 8.45C105.742 8.43333 105.759 8.425 105.775 8.425C105.792 8.425 105.809 8.41667 105.825 8.4C105.892 8.38333 105.925 8.325 105.925 8.225C105.892 8.15833 105.875 8.1 105.875 8.05C105.859 7.98333 105.884 7.925 105.95 7.875C105.984 7.80833 106.025 7.79167 106.075 7.825C106.192 7.875 106.325 7.85833 106.475 7.775C106.542 7.74167 106.584 7.725 106.6 7.725C106.65 7.725 106.675 7.725 106.675 7.725C106.692 7.70833 106.742 7.7 106.825 7.7C106.925 7.71667 107.017 7.68333 107.1 7.6C107.217 7.48333 107.359 7.425 107.525 7.425H109.075C109.459 7.44167 109.842 7.44167 110.225 7.425C110.609 7.40833 110.984 7.4 111.35 7.4C111.434 7.4 111.5 7.4 111.55 7.4C111.617 7.38333 111.684 7.36667 111.75 7.35C111.85 7.3 111.967 7.275 112.1 7.275H112.675C112.809 7.275 112.925 7.275 113.025 7.275C113.142 7.25833 113.259 7.24167 113.375 7.225C113.442 7.20833 113.5 7.2 113.55 7.2C113.617 7.2 113.684 7.2 113.75 7.2C113.817 7.2 113.884 7.2 113.95 7.2C114.017 7.2 114.084 7.19167 114.15 7.175C114.284 7.15833 114.425 7.15 114.575 7.15C114.725 7.13333 114.867 7.125 115 7.125C115.067 7.125 115.125 7.125 115.175 7.125C115.242 7.10833 115.309 7.09167 115.375 7.075C115.509 7.04167 115.634 7.025 115.75 7.025C115.884 7.00833 116.009 6.99167 116.125 6.975C116.259 6.95833 116.384 6.94167 116.5 6.925C116.634 6.90833 116.759 6.89167 116.875 6.875C117.025 6.875 117.134 6.89167 117.2 6.925C117.3 6.99167 117.392 7.05 117.475 7.1C117.575 7.15 117.667 7.21667 117.75 7.3C117.817 7.36667 117.859 7.425 117.875 7.475C117.892 7.54167 117.909 7.60833 117.925 7.675C117.942 7.74167 117.959 7.81667 117.975 7.9V8.075C117.959 8.15833 117.942 8.25 117.925 8.35C117.925 8.43333 117.917 8.525 117.9 8.625C117.867 8.69167 117.825 8.75 117.775 8.8L117.325 9.25C117.159 9.3 116.992 9.33333 116.825 9.35C116.675 9.36667 116.517 9.36667 116.35 9.35H116.175C116.092 9.36667 116.009 9.375 115.925 9.375C115.842 9.375 115.759 9.36667 115.675 9.35C115.575 9.33333 115.475 9.33333 115.375 9.35C115.275 9.35 115.175 9.35 115.075 9.35C115.009 9.35 114.942 9.35833 114.875 9.375C114.825 9.375 114.767 9.36667 114.7 9.35C114.617 9.33333 114.534 9.33333 114.45 9.35C114.384 9.35 114.309 9.35833 114.225 9.375C114.159 9.375 114.084 9.38333 114 9.4C113.934 9.4 113.859 9.4 113.775 9.4C113.559 9.43333 113.325 9.45 113.075 9.45C112.842 9.45 112.609 9.46667 112.375 9.5C112.225 9.48333 112.084 9.49167 111.95 9.525C111.817 9.54167 111.675 9.55833 111.525 9.575C111.392 9.59167 111.25 9.6 111.1 9.6C110.95 9.6 110.809 9.61667 110.675 9.65C110.509 9.65 110.342 9.675 110.175 9.725C110.025 9.75833 109.867 9.78333 109.7 9.8L109.525 9.825C109.409 9.825 109.3 9.84167 109.2 9.875C109.1 9.89167 108.992 9.91667 108.875 9.95C108.809 9.96667 108.742 9.98333 108.675 10C108.609 10 108.534 10.0083 108.45 10.025C108.4 10.025 108.342 10.0417 108.275 10.075C108.225 10.0917 108.2 10.1417 108.2 10.225L108.275 10.45C108.292 10.4833 108.284 10.5667 108.25 10.7C108.234 10.8333 108.217 10.9333 108.2 11C108.2 11.05 108.209 11.1 108.225 11.15C108.242 11.2 108.259 11.25 108.275 11.3C108.325 11.4333 108.35 11.5833 108.35 11.75C108.35 11.9 108.367 12.0417 108.4 12.175C108.417 12.2417 108.425 12.3167 108.425 12.4C108.425 12.4667 108.434 12.5417 108.45 12.625C108.45 12.6583 108.45 12.7 108.45 12.75C108.467 12.7833 108.475 12.825 108.475 12.875C108.475 12.925 108.467 12.9583 108.45 12.975C108.4 13.0417 108.375 13.1167 108.375 13.2C108.375 13.2833 108.375 13.3667 108.375 13.45C108.459 13.6167 108.5 13.7833 108.5 13.95C108.5 14.1167 108.5 14.2833 108.5 14.45C108.5 14.5 108.542 14.5167 108.625 14.5H108.65C108.684 14.4333 108.717 14.3833 108.75 14.35C108.8 14.35 108.859 14.3333 108.925 14.3C108.975 14.2667 109.042 14.25 109.125 14.25C109.259 14.2667 109.384 14.2667 109.5 14.25C109.617 14.2167 109.734 14.1833 109.85 14.15C110.634 13.95 111.367 13.6917 112.05 13.375C112.234 13.2917 112.425 13.225 112.625 13.175C112.825 13.1083 113.025 13.0667 113.225 13.05H113.3C113.45 13.0333 113.6 13.0167 113.75 13C113.9 12.9833 114.05 12.975 114.2 12.975C114.4 12.9583 114.592 12.9333 114.775 12.9C114.975 12.8667 115.175 12.8417 115.375 12.825C115.492 12.7917 115.6 12.7667 115.7 12.75C115.8 12.7167 115.909 12.675 116.025 12.625C116.242 12.5417 116.442 12.5 116.625 12.5C116.759 12.5167 116.884 12.55 117 12.6C117.117 12.6333 117.234 12.6833 117.35 12.75C117.6 12.9167 117.725 13.1667 117.725 13.5C117.725 13.6333 117.709 13.7667 117.675 13.9C117.659 14.0333 117.65 14.1667 117.65 14.3C117.65 14.3333 117.634 14.3667 117.6 14.4L117.525 14.525C117.509 14.5917 117.492 14.6583 117.475 14.725C117.459 14.7917 117.417 14.8417 117.35 14.875C117.25 14.9583 117.142 15.05 117.025 15.15C116.925 15.2333 116.809 15.2917 116.675 15.325C116.609 15.3417 116.542 15.3583 116.475 15.375C116.425 15.3917 116.367 15.4 116.3 15.4C116.034 15.4 115.759 15.4167 115.475 15.45C115.209 15.4833 114.934 15.5167 114.65 15.55C114.434 15.5667 114.217 15.5917 114 15.625C113.8 15.6583 113.592 15.675 113.375 15.675C113.175 15.675 112.95 15.7167 112.7 15.8C112.534 15.8333 112.359 15.8667 112.175 15.9C111.992 15.9333 111.809 15.9583 111.625 15.975C111.492 15.9917 111.35 16.0167 111.2 16.05C111.067 16.0667 110.934 16.0833 110.8 16.1L110.375 16.175C110.342 16.1917 110.292 16.2 110.225 16.2C110.109 16.2333 109.992 16.2583 109.875 16.275C109.759 16.2917 109.642 16.3167 109.525 16.35C109.409 16.3667 109.292 16.3917 109.175 16.425C109.075 16.4583 108.967 16.4917 108.85 16.525C108.767 16.5417 108.7 16.575 108.65 16.625C108.6 16.6583 108.559 16.7083 108.525 16.775C108.509 16.825 108.509 16.875 108.525 16.925C108.542 16.9917 108.534 17.0583 108.5 17.125C108.517 17.2917 108.525 17.4583 108.525 17.625C108.542 17.7917 108.542 17.9583 108.525 18.125C108.559 18.2583 108.567 18.3917 108.55 18.525C108.55 18.6583 108.542 18.7917 108.525 18.925C108.492 19.125 108.5 19.2917 108.55 19.425C108.6 19.6417 108.584 19.8667 108.5 20.1C108.467 20.2 108.467 20.2667 108.5 20.3C108.534 20.35 108.534 20.4083 108.5 20.475V20.625C108.484 20.7583 108.542 20.825 108.675 20.825H108.725C108.842 20.825 108.959 20.8667 109.075 20.95C109.159 21.0333 109.259 21.0583 109.375 21.025L110.075 20.95C110.175 20.9333 110.275 20.925 110.375 20.925C110.475 20.9083 110.575 20.9 110.675 20.9C110.709 20.8833 110.759 20.8917 110.825 20.925C110.909 20.975 110.984 20.9833 111.05 20.95C111.084 20.9167 111.125 20.8917 111.175 20.875C111.242 20.8583 111.292 20.8333 111.325 20.8C111.425 20.7 111.55 20.6667 111.7 20.7C111.834 20.7333 111.942 20.725 112.025 20.675C112.175 20.625 112.317 20.6083 112.45 20.625C112.534 20.6417 112.617 20.6333 112.7 20.6C112.784 20.5667 112.867 20.55 112.95 20.55C112.984 20.55 113.009 20.5583 113.025 20.575C113.042 20.575 113.059 20.5667 113.075 20.55C113.109 20.55 113.142 20.5417 113.175 20.525C113.209 20.5083 113.234 20.5 113.25 20.5C113.367 20.45 113.475 20.4333 113.575 20.45C113.659 20.45 113.7 20.45 113.7 20.45C113.767 20.4333 113.825 20.4333 113.875 20.45C113.942 20.4667 114 20.4917 114.05 20.525C114.134 20.5417 114.2 20.5667 114.25 20.6C114.317 20.6333 114.384 20.6583 114.45 20.675C114.484 20.675 114.509 20.6833 114.525 20.7C114.609 20.7667 114.709 20.825 114.825 20.875C114.959 20.925 115.034 20.9833 115.05 21.05C115.084 21.15 115.1 21.25 115.1 21.35C115.1 21.4333 115.109 21.525 115.125 21.625C115.125 21.675 115.117 21.725 115.1 21.775C115.1 21.825 115.092 21.875 115.075 21.925C115.042 21.9917 115 22.0667 114.95 22.15C114.917 22.2333 114.867 22.3083 114.8 22.375C114.767 22.4083 114.734 22.4417 114.7 22.475C114.684 22.5083 114.659 22.5417 114.625 22.575C114.559 22.6417 114.484 22.7 114.4 22.75C114.317 22.8 114.225 22.825 114.125 22.825C114.059 22.825 114.009 22.8333 113.975 22.85C113.909 22.8833 113.842 22.9 113.775 22.9C113.709 22.9 113.634 22.9 113.55 22.9C113.434 22.9167 113.317 22.9333 113.2 22.95C113.1 22.95 112.992 22.9417 112.875 22.925C112.809 22.9083 112.75 22.9083 112.7 22.925C112.534 22.975 112.367 22.9833 112.2 22.95C112.034 22.95 111.867 22.9583 111.7 22.975C111.55 22.975 111.4 22.975 111.25 22.975H110.925C110.875 22.975 110.834 22.9833 110.8 23C110.734 23.0333 110.65 23.05 110.55 23.05C110.467 23.05 110.384 23.0417 110.3 23.025H110.05C110.034 23.025 110.009 23.025 109.975 23.025C109.942 23.0417 109.909 23.0417 109.875 23.025C109.825 23.0083 109.775 23 109.725 23C109.692 23.0167 109.65 23.0333 109.6 23.05C109.567 23.05 109.534 23.05 109.5 23.05C109.484 23.0667 109.459 23.075 109.425 23.075C109.259 23.0583 109.1 23.0583 108.95 23.075C108.8 23.1083 108.642 23.1417 108.475 23.175ZM122.323 23.5C122.006 23.5333 121.748 23.4333 121.548 23.2C121.448 23.1 121.356 22.9917 121.273 22.875C121.19 22.7583 121.123 22.6333 121.073 22.5C120.99 22.2667 120.915 22.0333 120.848 21.8C120.781 21.55 120.723 21.3083 120.673 21.075C120.623 20.8917 120.598 20.7167 120.598 20.55C120.581 20.3667 120.556 20.1917 120.523 20.025C120.506 19.8417 120.498 19.6583 120.498 19.475C120.498 19.375 120.498 19.275 120.498 19.175C120.498 19.0583 120.49 18.95 120.473 18.85C120.456 18.7833 120.448 18.725 120.448 18.675C120.448 18.625 120.448 18.5667 120.448 18.5C120.448 18.2667 120.448 18.0333 120.448 17.8C120.448 17.55 120.44 17.3083 120.423 17.075C120.423 16.9417 120.415 16.825 120.398 16.725C120.381 16.6083 120.348 16.4917 120.298 16.375C120.231 16.1917 120.223 15.9917 120.273 15.775C120.273 15.725 120.281 15.6917 120.298 15.675C120.331 15.5583 120.348 15.4417 120.348 15.325C120.365 15.2083 120.365 15.0917 120.348 14.975C120.331 14.8917 120.323 14.8083 120.323 14.725C120.323 14.6417 120.323 14.5667 120.323 14.5C120.306 14.3167 120.298 14.1333 120.298 13.95C120.315 13.75 120.331 13.5583 120.348 13.375C120.365 13.325 120.373 13.275 120.373 13.225C120.373 13.175 120.373 13.125 120.373 13.075C120.356 12.8917 120.356 12.7167 120.373 12.55C120.406 12.3833 120.431 12.2167 120.448 12.05C120.481 11.85 120.515 11.6583 120.548 11.475C120.581 11.275 120.623 11.075 120.673 10.875C120.706 10.7917 120.723 10.7 120.723 10.6C120.723 10.5 120.723 10.4 120.723 10.3C120.723 10.2167 120.715 10.1333 120.698 10.05C120.698 9.96667 120.698 9.89167 120.698 9.825C120.698 9.775 120.698 9.725 120.698 9.675C120.698 9.625 120.706 9.575 120.723 9.525C120.74 9.475 120.748 9.425 120.748 9.375C120.748 9.325 120.756 9.29167 120.773 9.275C120.823 9.20833 120.865 9.15 120.898 9.1C120.931 9.03333 120.981 8.975 121.048 8.925C121.131 8.875 121.206 8.825 121.273 8.775C121.356 8.725 121.431 8.68333 121.498 8.65C121.581 8.61667 121.648 8.575 121.698 8.525C121.765 8.44167 121.831 8.36667 121.898 8.3C121.981 8.21667 122.048 8.125 122.098 8.025C122.181 7.94167 122.265 7.85 122.348 7.75C122.448 7.63333 122.556 7.54167 122.673 7.475C122.706 7.45833 122.756 7.41667 122.823 7.35C123.023 7.16667 123.256 7.05 123.523 7C123.573 6.98333 123.615 6.975 123.648 6.975C123.698 6.95833 123.748 6.95 123.798 6.95L123.973 6.875C124.106 6.825 124.223 6.85 124.323 6.95C124.356 7 124.398 7.05 124.448 7.1C124.515 7.13333 124.573 7.16667 124.623 7.2C124.756 7.31667 124.881 7.44167 124.998 7.575C125.131 7.70833 125.248 7.85833 125.348 8.025C125.515 8.29167 125.656 8.55833 125.773 8.825C125.906 9.09167 126.031 9.36667 126.148 9.65L126.598 10.725C126.615 10.825 126.656 10.9167 126.723 11C126.856 11.25 126.956 11.5083 127.023 11.775C127.09 12.025 127.156 12.2833 127.223 12.55C127.24 12.5833 127.248 12.6167 127.248 12.65C127.265 12.6833 127.273 12.7167 127.273 12.75C127.306 12.8833 127.331 13.025 127.348 13.175C127.381 13.3083 127.39 13.4417 127.373 13.575C127.39 13.725 127.381 13.875 127.348 14.025C127.331 14.1583 127.306 14.2917 127.273 14.425C127.223 14.5917 127.165 14.75 127.098 14.9C127.031 15.0333 126.956 15.175 126.873 15.325C126.84 15.425 126.781 15.5167 126.698 15.6C126.615 15.6833 126.531 15.7583 126.448 15.825C126.315 15.8917 126.181 15.9917 126.048 16.125C126.015 16.1583 125.973 16.1833 125.923 16.2C125.89 16.2167 125.856 16.2417 125.823 16.275C125.706 16.325 125.581 16.3833 125.448 16.45C125.315 16.5 125.181 16.55 125.048 16.6C125.031 16.6 125.023 16.6167 125.023 16.65C125.023 16.6667 125.031 16.6833 125.048 16.7L125.723 17.175C125.806 17.225 125.881 17.275 125.948 17.325C126.015 17.3583 126.081 17.4 126.148 17.45L126.298 17.525C126.498 17.6417 126.698 17.7667 126.898 17.9C127.098 18.0333 127.29 18.1667 127.473 18.3C127.823 18.5167 128.173 18.7417 128.523 18.975C128.873 19.1917 129.206 19.4333 129.523 19.7C129.806 19.9167 130.056 20.1667 130.273 20.45C130.323 20.5 130.373 20.5583 130.423 20.625C130.473 20.675 130.531 20.7167 130.598 20.75L130.673 20.825C130.94 21.0583 131.09 21.375 131.123 21.775C131.123 21.825 131.115 21.875 131.098 21.925C131.098 21.975 131.098 22.025 131.098 22.075C131.098 22.175 131.065 22.2583 130.998 22.325C130.931 22.3583 130.898 22.4 130.898 22.45C130.848 22.5667 130.773 22.65 130.673 22.7C130.59 22.7333 130.506 22.7833 130.423 22.85C130.39 22.8667 130.331 22.875 130.248 22.875C130.148 22.8583 130.04 22.8417 129.923 22.825C129.823 22.8083 129.723 22.8 129.623 22.8C129.49 22.8 129.348 22.7417 129.198 22.625C129.098 22.5417 129.006 22.4667 128.923 22.4C128.84 22.3167 128.756 22.2167 128.673 22.1C128.456 21.8 128.173 21.525 127.823 21.275C127.656 21.1417 127.498 21.0167 127.348 20.9C127.198 20.7833 127.031 20.675 126.848 20.575C126.731 20.5083 126.615 20.4417 126.498 20.375C126.398 20.2917 126.281 20.2167 126.148 20.15C125.731 19.8667 125.306 19.5917 124.873 19.325C124.44 19.0417 124.006 18.7583 123.573 18.475C123.506 18.425 123.431 18.375 123.348 18.325C123.265 18.275 123.181 18.225 123.098 18.175C123.065 18.1417 123.015 18.1083 122.948 18.075C122.881 18.075 122.848 18.1 122.848 18.15C122.848 18.1667 122.84 18.1833 122.823 18.2C122.823 18.2 122.823 18.2083 122.823 18.225C122.823 18.275 122.823 18.325 122.823 18.375C122.823 18.425 122.831 18.475 122.848 18.525C122.865 18.6583 122.873 18.7917 122.873 18.925C122.873 19.0417 122.873 19.1667 122.873 19.3C122.873 19.4 122.873 19.5 122.873 19.6C122.89 19.6833 122.906 19.775 122.923 19.875C122.923 19.925 122.923 19.9833 122.923 20.05C122.94 20.1 122.948 20.15 122.948 20.2C122.931 20.35 122.94 20.5 122.973 20.65C123.006 20.8 123.031 20.95 123.048 21.1L123.198 21.75C123.215 21.8167 123.231 21.8917 123.248 21.975C123.265 22.0417 123.281 22.1167 123.298 22.2C123.315 22.2667 123.315 22.3333 123.298 22.4C123.298 22.45 123.29 22.5083 123.273 22.575C123.273 22.5917 123.256 22.6167 123.223 22.65C123.14 22.6667 123.081 22.725 123.048 22.825C122.998 22.9417 122.923 23.0417 122.823 23.125C122.74 23.225 122.648 23.3167 122.548 23.4C122.531 23.4167 122.498 23.4333 122.448 23.45C122.398 23.4667 122.356 23.4833 122.323 23.5ZM123.298 14.75H123.348C123.531 14.7167 123.715 14.6833 123.898 14.65C124.098 14.6 124.29 14.5417 124.473 14.475C124.656 14.425 124.815 14.3333 124.948 14.2C125.065 14.0833 125.123 13.95 125.123 13.8C125.14 13.6833 125.14 13.575 125.123 13.475C125.123 13.3583 125.106 13.2417 125.073 13.125C125.006 12.825 124.931 12.5333 124.848 12.25C124.765 11.95 124.665 11.6667 124.548 11.4L124.323 10.8C124.273 10.6333 124.215 10.475 124.148 10.325C124.081 10.1583 124.006 10 123.923 9.85C123.906 9.81667 123.89 9.78333 123.873 9.75C123.856 9.7 123.84 9.65833 123.823 9.625L123.723 9.525C123.673 9.45833 123.615 9.45833 123.548 9.525C123.531 9.525 123.506 9.54167 123.473 9.575C123.356 9.725 123.248 9.88333 123.148 10.05C123.065 10.2167 123.015 10.4 122.998 10.6C122.981 10.6667 122.965 10.7333 122.948 10.8C122.948 10.8667 122.948 10.9417 122.948 11.025V12.1C122.931 12.3333 122.923 12.575 122.923 12.825C122.94 13.075 122.931 13.3167 122.898 13.55C122.881 13.6 122.873 13.65 122.873 13.7C122.89 13.75 122.898 13.8 122.898 13.85C122.915 13.95 122.923 14.05 122.923 14.15C122.923 14.2333 122.923 14.325 122.923 14.425C122.923 14.5917 122.94 14.6917 122.973 14.725C123.023 14.7583 123.131 14.7667 123.298 14.75ZM137.119 22.975C137.086 22.9583 137.036 22.95 136.969 22.95C136.936 22.95 136.902 22.925 136.869 22.875C136.836 22.825 136.802 22.7833 136.769 22.75C136.736 22.7 136.702 22.6417 136.669 22.575C136.619 22.5083 136.577 22.5083 136.544 22.575H136.494C136.494 22.5583 136.486 22.55 136.469 22.55C136.469 22.5333 136.469 22.525 136.469 22.525C136.419 22.2917 136.344 22.075 136.244 21.875C136.194 21.7417 136.144 21.6083 136.094 21.475C136.061 21.325 136.036 21.175 136.019 21.025L135.869 19.925L135.794 19.025V18.975C135.761 18.775 135.744 18.575 135.744 18.375C135.744 18.1583 135.744 17.9417 135.744 17.725C135.727 17.6083 135.719 17.5 135.719 17.4C135.719 17.2833 135.711 17.1667 135.694 17.05C135.677 16.9167 135.661 16.7833 135.644 16.65C135.644 16.5167 135.644 16.3917 135.644 16.275L135.669 14.3V11.625C135.636 11.525 135.586 11.475 135.519 11.475C135.486 11.475 135.444 11.4833 135.394 11.5C135.361 11.5 135.327 11.5 135.294 11.5L134.169 11.8C134.019 11.85 133.869 11.9 133.719 11.95C133.569 11.9833 133.419 12.025 133.269 12.075C133.152 12.0917 133.036 12.1083 132.919 12.125C132.819 12.125 132.711 12.125 132.594 12.125C132.511 12.125 132.419 12.0917 132.319 12.025C132.202 11.975 132.102 11.9083 132.019 11.825C131.936 11.7417 131.852 11.65 131.769 11.55L131.719 11.475C131.686 11.3583 131.652 11.25 131.619 11.15C131.602 11.0333 131.602 10.9167 131.619 10.8C131.636 10.65 131.669 10.5083 131.719 10.375C131.786 10.2417 131.877 10.125 131.994 10.025C132.044 9.99167 132.086 9.95 132.119 9.9C132.169 9.85 132.219 9.8 132.269 9.75C132.336 9.71667 132.377 9.7 132.394 9.7C132.494 9.7 132.586 9.68333 132.669 9.65C132.752 9.6 132.836 9.56667 132.919 9.55C133.002 9.53333 133.086 9.51667 133.169 9.5C133.252 9.48333 133.336 9.46667 133.419 9.45C133.652 9.38333 133.886 9.325 134.119 9.275C134.352 9.20833 134.586 9.15833 134.819 9.125L136.169 8.9C136.202 8.88333 136.227 8.875 136.244 8.875C136.277 8.875 136.302 8.86667 136.319 8.85C136.419 8.81667 136.519 8.79167 136.619 8.775C136.719 8.75833 136.819 8.76667 136.919 8.8C136.952 8.81667 136.977 8.825 136.994 8.825C137.027 8.80833 137.052 8.8 137.069 8.8C137.352 8.76667 137.636 8.73333 137.919 8.7C138.202 8.66667 138.477 8.625 138.744 8.575C138.961 8.54167 139.177 8.50833 139.394 8.475C139.611 8.44167 139.827 8.41667 140.044 8.4C140.211 8.36667 140.377 8.34167 140.544 8.325C140.711 8.30833 140.877 8.29167 141.044 8.275C141.177 8.25833 141.311 8.24167 141.444 8.225C141.594 8.20833 141.736 8.19167 141.869 8.175C142.002 8.15833 142.127 8.15833 142.244 8.175C142.377 8.175 142.511 8.175 142.644 8.175C142.727 8.175 142.802 8.2 142.869 8.25C142.952 8.3 143.027 8.34167 143.094 8.375C143.161 8.425 143.252 8.50833 143.369 8.625C143.402 8.65833 143.436 8.73333 143.469 8.85C143.486 8.9 143.502 8.95833 143.519 9.025C143.536 9.075 143.552 9.13333 143.569 9.2C143.602 9.35 143.586 9.49167 143.519 9.625L143.369 9.975C143.352 10.025 143.327 10.075 143.294 10.125C143.277 10.1583 143.252 10.1917 143.219 10.225C143.186 10.2583 143.169 10.275 143.169 10.275C143.102 10.325 143.027 10.375 142.944 10.425C142.877 10.475 142.794 10.5083 142.694 10.525L141.619 10.6C141.519 10.6 141.419 10.6083 141.319 10.625C141.219 10.625 141.111 10.6333 140.994 10.65H140.869C140.602 10.6667 140.344 10.6917 140.094 10.725C139.844 10.7583 139.594 10.7917 139.344 10.825L138.344 10.975C138.294 10.975 138.261 10.9833 138.244 11C138.177 11 138.127 11.05 138.094 11.15V11.225C138.094 11.3917 138.094 11.5583 138.094 11.725C138.094 11.875 138.102 12.0333 138.119 12.2C138.169 12.4333 138.169 12.6667 138.119 12.9C138.102 12.95 138.086 13 138.069 13.05C138.069 13.0833 138.069 13.1167 138.069 13.15C138.086 13.35 138.069 13.5667 138.019 13.8C138.019 13.85 138.019 13.9 138.019 13.95C138.019 14 138.027 14.05 138.044 14.1C138.061 14.1667 138.069 14.2417 138.069 14.325C138.069 14.4083 138.069 14.4917 138.069 14.575V15.875C138.069 15.9417 138.061 16.025 138.044 16.125C138.044 16.2083 138.044 16.2917 138.044 16.375C138.044 16.4417 138.044 16.5167 138.044 16.6C138.061 16.6833 138.069 16.7667 138.069 16.85C138.069 16.9667 138.069 17.0833 138.069 17.2C138.086 17.3167 138.086 17.4417 138.069 17.575V18.35C138.069 18.3667 138.061 18.3833 138.044 18.4C138.044 18.4167 138.052 18.4417 138.069 18.475C138.086 18.625 138.094 18.7833 138.094 18.95C138.094 19.1 138.111 19.25 138.144 19.4C138.144 19.45 138.144 19.5 138.144 19.55C138.161 19.6 138.161 19.65 138.144 19.7C138.144 19.85 138.161 20.0083 138.194 20.175C138.227 20.325 138.252 20.475 138.269 20.625C138.302 20.8083 138.336 20.9917 138.369 21.175C138.419 21.3583 138.461 21.5417 138.494 21.725L138.569 22.075C138.569 22.125 138.544 22.1667 138.494 22.2C138.494 22.2 138.486 22.2 138.469 22.2C138.469 22.2 138.461 22.2083 138.444 22.225C138.361 22.2583 138.327 22.3083 138.344 22.375V22.5C138.344 22.5 138.336 22.5083 138.319 22.525C138.319 22.5417 138.311 22.55 138.294 22.55C138.211 22.55 138.144 22.5833 138.094 22.65C138.044 22.7167 137.986 22.775 137.919 22.825C137.869 22.8583 137.802 22.8917 137.719 22.925C137.502 23.0083 137.302 23.025 137.119 22.975ZM149.963 23.5C149.796 23.4833 149.629 23.4583 149.463 23.425C149.313 23.4083 149.163 23.3667 149.013 23.3L148.388 23.075C148.171 22.9917 147.971 22.9 147.788 22.8C147.604 22.6833 147.421 22.5667 147.238 22.45C147.154 22.3667 147.071 22.2917 146.988 22.225C146.904 22.1417 146.821 22.0667 146.738 22C146.604 21.8667 146.471 21.7333 146.338 21.6C146.204 21.45 146.079 21.2917 145.963 21.125L145.363 20.2C145.213 19.9667 145.079 19.725 144.963 19.475C144.846 19.2083 144.746 18.9417 144.663 18.675C144.479 18.175 144.388 17.6833 144.388 17.2V16.8C144.388 16.3833 144.413 15.975 144.463 15.575C144.496 15.2417 144.571 14.9417 144.688 14.675C144.754 14.5083 144.813 14.3417 144.863 14.175C144.913 14.0083 144.971 13.85 145.038 13.7L145.113 13.525C145.146 13.3083 145.221 13.1167 145.338 12.95C145.454 12.7667 145.554 12.5917 145.638 12.425C145.704 12.2917 145.779 12.175 145.863 12.075C145.946 11.9583 146.021 11.8417 146.088 11.725C146.121 11.675 146.163 11.6333 146.213 11.6C146.263 11.55 146.304 11.5 146.338 11.45C146.371 11.4167 146.396 11.375 146.413 11.325C146.446 11.2583 146.471 11.2 146.488 11.15C146.521 11.1 146.579 11.0333 146.663 10.95C146.763 10.9 146.854 10.7833 146.938 10.6C146.971 10.5333 147.004 10.4833 147.038 10.45C147.138 10.3667 147.221 10.2667 147.288 10.15C147.371 10.0333 147.463 9.925 147.563 9.825C147.629 9.75833 147.663 9.66667 147.663 9.55C147.663 9.46667 147.663 9.39167 147.663 9.325C147.679 9.24167 147.679 9.16667 147.663 9.1C147.646 9.01667 147.671 8.94167 147.738 8.875C147.771 8.84167 147.796 8.8 147.813 8.75C147.829 8.7 147.846 8.65 147.863 8.6C147.913 8.43333 148.046 8.29167 148.263 8.175C148.296 8.14167 148.338 8.125 148.388 8.125C148.454 8.10833 148.513 8.09167 148.563 8.075C148.679 8.025 148.813 8.01667 148.963 8.05C149.029 8.06667 149.088 8.075 149.138 8.075C149.188 8.05833 149.238 8.04167 149.288 8.025C149.354 7.99167 149.413 7.96667 149.463 7.95C149.529 7.93333 149.588 7.91667 149.638 7.9C149.871 7.81667 150.113 7.825 150.363 7.925C150.629 8.025 150.821 8.2 150.938 8.45C150.971 8.53333 151.004 8.61667 151.038 8.7C151.071 8.78333 151.096 8.86667 151.113 8.95C151.146 9.13333 151.138 9.29167 151.088 9.425C151.054 9.49167 151.038 9.53333 151.038 9.55C151.021 9.61667 151.038 9.675 151.088 9.725C151.121 9.775 151.163 9.81667 151.213 9.85C151.396 10.0167 151.571 10.1833 151.738 10.35C151.904 10.5 152.063 10.6667 152.213 10.85C152.346 10.9833 152.454 11.125 152.538 11.275C152.638 11.4083 152.729 11.5583 152.813 11.725C152.846 11.8083 152.888 11.9 152.938 12C152.988 12.0833 153.038 12.1667 153.088 12.25C153.171 12.4 153.238 12.5583 153.288 12.725C153.354 12.8917 153.421 13.0583 153.488 13.225V13.25C153.521 13.3667 153.546 13.4917 153.563 13.625C153.596 13.7417 153.646 13.8667 153.713 14C153.763 14.1167 153.804 14.2417 153.838 14.375C153.871 14.4917 153.904 14.6167 153.938 14.75C153.971 14.9 154.004 15.05 154.038 15.2C154.088 15.35 154.121 15.5 154.138 15.65C154.154 15.7167 154.171 15.7833 154.188 15.85C154.204 15.9 154.221 15.9583 154.238 16.025C154.271 16.175 154.304 16.325 154.338 16.475C154.371 16.625 154.396 16.775 154.413 16.925L154.488 17.1C154.521 17.2 154.554 17.3333 154.588 17.5C154.638 17.7167 154.663 17.9333 154.663 18.15C154.679 18.3667 154.679 18.5917 154.663 18.825C154.663 18.9417 154.654 19.0333 154.638 19.1C154.538 19.45 154.413 19.8083 154.263 20.175C154.196 20.2917 154.129 20.4083 154.063 20.525C153.996 20.625 153.929 20.7333 153.863 20.85L153.638 21.2C153.554 21.35 153.463 21.4833 153.363 21.6C153.196 21.8667 152.996 22.1 152.763 22.3C152.529 22.5 152.279 22.6917 152.013 22.875C151.429 23.325 150.746 23.5333 149.963 23.5ZM149.863 21.025C150.213 21.025 150.513 20.925 150.763 20.725C150.846 20.6417 150.929 20.5667 151.013 20.5C151.113 20.4167 151.196 20.3333 151.263 20.25C151.579 19.9 151.829 19.5333 152.013 19.15L152.088 18.9C152.121 18.6 152.121 18.3 152.088 18L151.938 17.175C151.888 16.9583 151.846 16.75 151.813 16.55C151.779 16.3333 151.729 16.125 151.663 15.925C151.613 15.8083 151.596 15.7167 151.613 15.65C151.629 15.5667 151.629 15.4833 151.613 15.4C151.596 15.3167 151.571 15.2333 151.538 15.15C151.488 14.9333 151.429 14.7167 151.363 14.5C151.296 14.2833 151.229 14.0667 151.163 13.85C151.146 13.8 151.129 13.75 151.113 13.7C151.096 13.65 151.079 13.6 151.063 13.55C150.946 13.3167 150.821 13.0917 150.688 12.875C150.554 12.6583 150.404 12.4583 150.238 12.275C150.154 12.175 150.063 12.0833 149.963 12C149.863 11.9 149.763 11.8083 149.663 11.725C149.646 11.6917 149.621 11.675 149.588 11.675C149.571 11.6583 149.546 11.6417 149.513 11.625C149.463 11.5583 149.396 11.5667 149.313 11.65C149.229 11.7333 149.138 11.825 149.038 11.925C148.954 12.025 148.871 12.125 148.788 12.225C148.704 12.3417 148.613 12.4583 148.513 12.575C148.429 12.6917 148.346 12.8083 148.263 12.925C148.146 13.075 148.038 13.225 147.938 13.375C147.838 13.525 147.738 13.675 147.638 13.825C147.288 14.3917 147.013 15.0167 146.813 15.7C146.779 15.8 146.763 15.875 146.763 15.925C146.746 16.0417 146.729 16.1583 146.713 16.275C146.713 16.3917 146.713 16.5167 146.713 16.65V16.85C146.729 16.9 146.738 16.95 146.738 17C146.738 17.05 146.746 17.1 146.763 17.15C146.763 17.35 146.813 17.5667 146.913 17.8C147.046 18.1333 147.196 18.4583 147.363 18.775C147.529 19.0917 147.721 19.3917 147.938 19.675C147.988 19.7417 148.038 19.8083 148.088 19.875C148.154 19.9417 148.213 20.0083 148.263 20.075C148.413 20.2417 148.571 20.3917 148.738 20.525C148.921 20.6583 149.104 20.775 149.288 20.875C149.488 20.975 149.679 21.025 149.863 21.025Z" fill="#353535"/>
</svg>
