<svg width="57" height="21" viewBox="0 0 57 21" fill="none" xmlns="http://www.w3.org/2000/svg">
<path d="M9.75195 20.95C9.58529 20.9333 9.46029 20.8333 9.37695 20.65C9.36029 20.6333 9.35195 20.5917 9.35195 20.525C9.33529 20.3917 9.31029 20.2583 9.27695 20.125C9.26029 19.9917 9.26029 19.8583 9.27695 19.725V19.6C9.26029 19.45 9.25195 19.3 9.25195 19.15C9.25195 19 9.24362 18.8583 9.22695 18.725C9.19362 18.4417 9.09362 18.225 8.92695 18.075L8.70195 17.85C8.61862 17.75 8.51029 17.7167 8.37695 17.75C8.27695 17.7667 8.17695 17.775 8.07695 17.775C7.99362 17.775 7.90195 17.7667 7.80195 17.75C7.73529 17.75 7.66029 17.7583 7.57695 17.775C7.51029 17.775 7.43529 17.775 7.35195 17.775C7.28529 17.775 7.21029 17.775 7.12695 17.775C7.06029 17.7583 6.99362 17.7583 6.92695 17.775C6.86029 17.7917 6.79362 17.8 6.72695 17.8C6.67695 17.8 6.62695 17.8 6.57695 17.8H5.72695C5.54362 17.8 5.35195 17.825 5.15195 17.875L4.55195 18.025C4.35195 18.0917 4.15195 18.1417 3.95195 18.175C3.88529 18.1917 3.81862 18.2083 3.75195 18.225C3.68529 18.2417 3.61862 18.2667 3.55195 18.3C3.30195 18.4167 3.06029 18.4833 2.82695 18.5C2.67695 18.5333 2.56862 18.6 2.50195 18.7L2.37695 18.85C2.34362 18.8667 2.31029 18.8833 2.27695 18.9C2.24362 18.9333 2.21029 18.9667 2.17695 19C2.06029 19.0667 1.93529 19.0667 1.80195 19C1.65195 18.9167 1.56029 18.825 1.52695 18.725C1.52695 18.7083 1.51862 18.6917 1.50195 18.675C1.50195 18.675 1.50195 18.6667 1.50195 18.65C1.38529 18.3667 1.19362 18.1167 0.926953 17.9C0.860286 17.85 0.801953 17.7917 0.751953 17.725C0.735287 17.675 0.710287 17.6333 0.676953 17.6C0.64362 17.55 0.610287 17.5083 0.576953 17.475L0.426953 17.25C0.360287 17.1333 0.335287 17 0.351953 16.85C0.36862 16.7667 0.376953 16.6833 0.376953 16.6C0.39362 16.5 0.410287 16.4083 0.426953 16.325V16.175C0.426953 15.9917 0.426953 15.8083 0.426953 15.625C0.426953 15.425 0.435286 15.2417 0.451953 15.075V14.825C0.485286 14.7583 0.49362 14.7 0.476953 14.65C0.476953 14.5833 0.476953 14.5167 0.476953 14.45C0.49362 14.2333 0.49362 14.025 0.476953 13.825C0.476953 13.6083 0.485287 13.3917 0.501953 13.175L0.576953 12.05C0.59362 11.8667 0.601953 11.6917 0.601953 11.525C0.61862 11.3583 0.626953 11.1917 0.626953 11.025V10.95C0.660287 10.75 0.676953 10.55 0.676953 10.35C0.676953 10.15 0.676953 9.94167 0.676953 9.725V8C0.660287 7.81667 0.64362 7.63333 0.626953 7.45C0.626953 7.26667 0.626953 7.08333 0.626953 6.9C0.626953 6.7 0.61862 6.5 0.601953 6.3C0.585287 6.08333 0.560287 5.86667 0.526953 5.65C0.510286 5.51667 0.485286 5.375 0.451953 5.225C0.435286 5.075 0.426953 4.925 0.426953 4.775C0.426953 4.74167 0.41862 4.70833 0.401953 4.675C0.401953 4.64167 0.401953 4.60833 0.401953 4.575C0.301953 4.125 0.251953 3.66667 0.251953 3.2V2.15C0.251953 2.03333 0.251953 1.925 0.251953 1.825C0.26862 1.70833 0.285287 1.59167 0.301953 1.475C0.335287 1.275 0.401953 1.125 0.501953 1.025L0.626953 0.874998C0.726953 0.741666 0.84362 0.649999 0.976953 0.599999C1.11029 0.533332 1.25195 0.491666 1.40195 0.474999H1.57695C1.82695 0.474999 2.02695 0.566666 2.17695 0.749999C2.21029 0.766666 2.23529 0.783333 2.25195 0.799999C2.26862 0.816666 2.28529 0.833332 2.30195 0.849999C2.38529 0.916666 2.43529 0.991666 2.45195 1.075C2.53529 1.24167 2.57695 1.35 2.57695 1.4C2.59362 1.45 2.60195 1.56667 2.60195 1.75V1.925C2.60195 2.04167 2.60195 2.15833 2.60195 2.275C2.60195 2.375 2.61029 2.48333 2.62695 2.6C2.64362 2.63333 2.65195 2.68333 2.65195 2.75C2.65195 2.86667 2.65195 2.98333 2.65195 3.1C2.66862 3.21667 2.68529 3.33333 2.70195 3.45C2.71862 3.61667 2.73529 3.78333 2.75195 3.95C2.76862 4.1 2.77695 4.26667 2.77695 4.45C2.77695 4.48333 2.77695 4.525 2.77695 4.575C2.79362 4.60833 2.80195 4.64167 2.80195 4.675C2.80195 4.69167 2.80195 4.71667 2.80195 4.75C2.81862 4.76667 2.82695 4.79167 2.82695 4.825L2.90195 6.1C2.91862 6.18333 2.92695 6.275 2.92695 6.375C2.92695 6.45833 2.92695 6.55 2.92695 6.65C2.94362 6.66667 2.95195 6.70833 2.95195 6.775C2.93529 6.85833 2.92695 6.95 2.92695 7.05C2.92695 7.13333 2.93529 7.21667 2.95195 7.3V8.95C2.93529 9.05 2.93529 9.15 2.95195 9.25V9.4C2.93529 9.53333 2.92695 9.675 2.92695 9.825C2.92695 9.95833 2.91862 10.1 2.90195 10.25C2.90195 10.3667 2.90195 10.4917 2.90195 10.625C2.90195 10.7417 2.89362 10.8667 2.87695 11C2.86029 11.0667 2.85195 11.1417 2.85195 11.225C2.85195 11.3083 2.85195 11.3917 2.85195 11.475C2.85195 11.5417 2.84362 11.625 2.82695 11.725C2.82695 11.8083 2.81862 11.8917 2.80195 11.975V12.05C2.78529 12.2167 2.76862 12.3833 2.75195 12.55C2.75195 12.7167 2.74362 12.8917 2.72695 13.075C2.71029 13.1583 2.70195 13.25 2.70195 13.35C2.70195 13.45 2.69362 13.55 2.67695 13.65C2.66029 13.7167 2.65195 13.8 2.65195 13.9C2.65195 13.9833 2.65195 14.0667 2.65195 14.15C2.65195 14.2333 2.64362 14.3167 2.62695 14.4C2.61029 14.5833 2.60195 14.7667 2.60195 14.95C2.60195 15.1167 2.60195 15.2917 2.60195 15.475V15.5C2.63529 15.5833 2.67695 15.625 2.72695 15.625L3.22695 15.7C3.62695 15.75 4.01862 15.775 4.40195 15.775C4.50195 15.775 4.58529 15.7667 4.65195 15.75C4.73529 15.7333 4.82695 15.725 4.92695 15.725C5.02695 15.725 5.11862 15.7167 5.20195 15.7H5.90195C6.01862 15.7 6.13529 15.6917 6.25195 15.675C6.36862 15.6417 6.48529 15.6167 6.60195 15.6H6.72695C6.91029 15.6 7.09362 15.5917 7.27695 15.575C7.46029 15.5417 7.64362 15.525 7.82695 15.525H8.65195C8.88529 15.525 9.08529 15.475 9.25195 15.375C9.38529 15.325 9.51029 15.2917 9.62695 15.275C9.76029 15.2583 9.89362 15.2417 10.027 15.225C10.227 15.225 10.402 15.275 10.552 15.375C10.8853 15.575 11.102 15.85 11.202 16.2C11.2353 16.3167 11.252 16.4417 11.252 16.575C11.2686 16.7083 11.2686 16.8417 11.252 16.975C11.2353 17.125 11.202 17.2667 11.152 17.4C11.102 17.5167 11.0353 17.6417 10.952 17.775L10.727 18.1C10.627 18.2833 10.552 18.4667 10.502 18.65C10.4853 18.8 10.4603 18.9417 10.427 19.075C10.3936 19.225 10.377 19.375 10.377 19.525C10.377 19.5917 10.3686 19.6583 10.352 19.725C10.352 19.7917 10.352 19.8583 10.352 19.925C10.3353 19.9917 10.327 20.05 10.327 20.1C10.327 20.15 10.327 20.2083 10.327 20.275C10.327 20.4083 10.2853 20.5583 10.202 20.725C10.102 20.8917 9.95195 20.9667 9.75195 20.95ZM16.3111 18.175C16.2111 18.175 16.1445 18.1667 16.1111 18.15C16.0278 18.1167 15.9445 18.1 15.8611 18.1C15.7945 18.1167 15.7195 18.125 15.6361 18.125C15.6195 18.125 15.6028 18.125 15.5861 18.125C15.5695 18.1417 15.5528 18.15 15.5361 18.15C15.4195 18.1667 15.3028 18.175 15.1861 18.175C15.0861 18.175 14.9861 18.1583 14.8861 18.125C14.8695 18.1083 14.8528 18.1 14.8361 18.1C14.7195 18.1167 14.6195 18.0833 14.5361 18C14.4528 17.9167 14.3695 17.8417 14.2861 17.775C14.2028 17.6917 14.1611 17.6 14.1611 17.5L14.0861 17.3C14.0361 17.1833 14.0195 17.075 14.0361 16.975C14.0528 16.9417 14.0528 16.9083 14.0361 16.875C14.0361 16.8417 14.0361 16.8083 14.0361 16.775C14.0195 16.7417 14.0111 16.7083 14.0111 16.675C14.0111 16.625 14.0028 16.5833 13.9861 16.55C13.9528 16.4 13.9278 16.25 13.9111 16.1C13.9111 15.9333 13.9195 15.775 13.9361 15.625C13.9528 15.525 14.0111 15.3583 14.1111 15.125C14.2111 14.875 14.2695 14.725 14.2861 14.675C14.3361 14.5917 14.3611 14.525 14.3611 14.475C14.3445 14.2917 14.3361 14.1083 14.3361 13.925C14.3528 13.725 14.3611 13.5333 14.3611 13.35C14.3611 13.2333 14.3861 13.1417 14.4361 13.075C14.5028 12.9583 14.5111 12.8333 14.4611 12.7L14.3861 12.425C14.2861 12.2417 14.2945 12.0833 14.4111 11.95C14.4111 11.9333 14.4111 11.925 14.4111 11.925C14.4278 11.9083 14.4361 11.8917 14.4361 11.875C14.4695 11.8417 14.4778 11.8 14.4611 11.75C14.4445 11.6833 14.4361 11.6333 14.4361 11.6C14.4361 11.5333 14.4445 11.4667 14.4611 11.4C14.4945 11.3167 14.5028 11.2417 14.4861 11.175C14.4861 11.175 14.4695 11.1583 14.4361 11.125C14.4195 11.0917 14.4111 11.025 14.4111 10.925C14.4278 10.825 14.4361 10.7667 14.4361 10.75V10.05C14.4528 9.96667 14.4611 9.89167 14.4611 9.825C14.4611 9.74167 14.4695 9.65833 14.4861 9.575C14.5028 9.475 14.5028 9.375 14.4861 9.275C14.4861 9.15833 14.4861 9.04167 14.4861 8.925C14.4695 8.84167 14.4528 8.75 14.4361 8.65C14.4361 8.55 14.4361 8.45 14.4361 8.35C14.4195 8.31667 14.4111 8.275 14.4111 8.225C14.4111 8.175 14.4111 8.13333 14.4111 8.1C14.3945 8.01667 14.3778 7.93333 14.3611 7.85C14.3611 7.76667 14.3611 7.68333 14.3611 7.6C14.3611 7.56667 14.3278 7.45833 14.2611 7.275C14.1945 7.075 14.1695 6.90833 14.1861 6.775C14.2028 6.74167 14.2111 6.7 14.2111 6.65C14.2111 6.6 14.1945 6.55833 14.1611 6.525C14.1278 6.50833 14.1111 6.475 14.1111 6.425V6.35C14.1611 6.15 14.1361 5.95 14.0361 5.75C13.9695 5.65 13.9445 5.55 13.9611 5.45C13.9611 5.31667 13.9028 5.21667 13.7861 5.15C13.7028 5.06667 13.6278 4.96667 13.5611 4.85C13.4945 4.73333 13.4528 4.61667 13.4361 4.5C13.4195 4.41667 13.4111 4.33333 13.4111 4.25C13.4111 4.16667 13.4111 4.09167 13.4111 4.025C13.4111 3.95833 13.4195 3.91667 13.4361 3.9C13.5028 3.83333 13.5361 3.75833 13.5361 3.675C13.5361 3.575 13.5445 3.5 13.5611 3.45C13.5778 3.43333 13.5945 3.425 13.6111 3.425C13.6278 3.425 13.6445 3.41667 13.6611 3.4C13.7278 3.38333 13.7611 3.325 13.7611 3.225C13.7278 3.15833 13.7111 3.1 13.7111 3.05C13.6945 2.98333 13.7195 2.925 13.7861 2.875C13.8195 2.80833 13.8611 2.79167 13.9111 2.825C14.0278 2.875 14.1611 2.85833 14.3111 2.775C14.3778 2.74167 14.4195 2.725 14.4361 2.725C14.4861 2.725 14.5111 2.725 14.5111 2.725C14.5278 2.70833 14.5778 2.7 14.6611 2.7C14.7611 2.71667 14.8528 2.68333 14.9361 2.6C15.0528 2.48333 15.1945 2.425 15.3611 2.425H16.9111C17.2945 2.44167 17.6778 2.44167 18.0611 2.425C18.4445 2.40833 18.8195 2.4 19.1861 2.4C19.2695 2.4 19.3361 2.4 19.3861 2.4C19.4528 2.38333 19.5195 2.36667 19.5861 2.35C19.6861 2.3 19.8028 2.275 19.9361 2.275H20.5111C20.6445 2.275 20.7611 2.275 20.8611 2.275C20.9778 2.25833 21.0945 2.24167 21.2111 2.225C21.2778 2.20833 21.3361 2.2 21.3861 2.2C21.4528 2.2 21.5195 2.2 21.5861 2.2C21.6528 2.2 21.7195 2.2 21.7861 2.2C21.8528 2.2 21.9195 2.19167 21.9861 2.175C22.1195 2.15833 22.2611 2.15 22.4111 2.15C22.5611 2.13333 22.7028 2.125 22.8361 2.125C22.9028 2.125 22.9611 2.125 23.0111 2.125C23.0778 2.10833 23.1445 2.09167 23.2111 2.075C23.3445 2.04167 23.4695 2.025 23.5861 2.025C23.7195 2.00833 23.8445 1.99167 23.9611 1.975C24.0945 1.95833 24.2195 1.94167 24.3361 1.925C24.4695 1.90833 24.5945 1.89167 24.7111 1.875C24.8611 1.875 24.9695 1.89167 25.0361 1.925C25.1361 1.99167 25.2278 2.05 25.3111 2.1C25.4111 2.15 25.5028 2.21667 25.5861 2.3C25.6528 2.36667 25.6945 2.425 25.7111 2.475C25.7278 2.54167 25.7445 2.60833 25.7611 2.675C25.7778 2.74167 25.7945 2.81667 25.8111 2.9V3.075C25.7945 3.15833 25.7778 3.25 25.7611 3.35C25.7611 3.43333 25.7528 3.525 25.7361 3.625C25.7028 3.69167 25.6611 3.75 25.6111 3.8L25.1611 4.25C24.9945 4.3 24.8278 4.33333 24.6611 4.35C24.5111 4.36667 24.3528 4.36667 24.1861 4.35H24.0111C23.9278 4.36667 23.8445 4.375 23.7611 4.375C23.6778 4.375 23.5945 4.36667 23.5111 4.35C23.4111 4.33333 23.3111 4.33333 23.2111 4.35C23.1111 4.35 23.0111 4.35 22.9111 4.35C22.8445 4.35 22.7778 4.35833 22.7111 4.375C22.6611 4.375 22.6028 4.36667 22.5361 4.35C22.4528 4.33333 22.3695 4.33333 22.2861 4.35C22.2195 4.35 22.1445 4.35833 22.0611 4.375C21.9945 4.375 21.9195 4.38333 21.8361 4.4C21.7695 4.4 21.6945 4.4 21.6111 4.4C21.3945 4.43333 21.1611 4.45 20.9111 4.45C20.6778 4.45 20.4445 4.46667 20.2111 4.5C20.0611 4.48333 19.9195 4.49167 19.7861 4.525C19.6528 4.54167 19.5111 4.55833 19.3611 4.575C19.2278 4.59167 19.0861 4.6 18.9361 4.6C18.7861 4.6 18.6445 4.61667 18.5111 4.65C18.3445 4.65 18.1778 4.675 18.0111 4.725C17.8611 4.75833 17.7028 4.78333 17.5361 4.8L17.3611 4.825C17.2445 4.825 17.1361 4.84167 17.0361 4.875C16.9361 4.89167 16.8278 4.91667 16.7111 4.95C16.6445 4.96667 16.5778 4.98333 16.5111 5C16.4445 5 16.3695 5.00833 16.2861 5.025C16.2361 5.025 16.1778 5.04167 16.1111 5.075C16.0611 5.09167 16.0361 5.14167 16.0361 5.225L16.1111 5.45C16.1278 5.48333 16.1195 5.56667 16.0861 5.7C16.0695 5.83333 16.0528 5.93333 16.0361 6C16.0361 6.05 16.0445 6.1 16.0611 6.15C16.0778 6.2 16.0945 6.25 16.1111 6.3C16.1611 6.43333 16.1861 6.58333 16.1861 6.75C16.1861 6.9 16.2028 7.04167 16.2361 7.175C16.2528 7.24167 16.2611 7.31667 16.2611 7.4C16.2611 7.46667 16.2695 7.54167 16.2861 7.625C16.2861 7.65833 16.2861 7.7 16.2861 7.75C16.3028 7.78333 16.3111 7.825 16.3111 7.875C16.3111 7.925 16.3028 7.95833 16.2861 7.975C16.2361 8.04167 16.2111 8.11667 16.2111 8.2C16.2111 8.28333 16.2111 8.36667 16.2111 8.45C16.2945 8.61667 16.3361 8.78333 16.3361 8.95C16.3361 9.11667 16.3361 9.28333 16.3361 9.45C16.3361 9.5 16.3778 9.51667 16.4611 9.5H16.4861C16.5195 9.43333 16.5528 9.38333 16.5861 9.35C16.6361 9.35 16.6945 9.33333 16.7611 9.3C16.8111 9.26667 16.8778 9.25 16.9611 9.25C17.0945 9.26667 17.2195 9.26667 17.3361 9.25C17.4528 9.21667 17.5695 9.18333 17.6861 9.15C18.4695 8.95 19.2028 8.69167 19.8861 8.375C20.0695 8.29167 20.2611 8.225 20.4611 8.175C20.6611 8.10833 20.8611 8.06667 21.0611 8.05H21.1361C21.2861 8.03333 21.4361 8.01667 21.5861 8C21.7361 7.98333 21.8861 7.975 22.0361 7.975C22.2361 7.95833 22.4278 7.93333 22.6111 7.9C22.8111 7.86667 23.0111 7.84167 23.2111 7.825C23.3278 7.79167 23.4361 7.76667 23.5361 7.75C23.6361 7.71667 23.7445 7.675 23.8611 7.625C24.0778 7.54167 24.2778 7.5 24.4611 7.5C24.5945 7.51667 24.7195 7.55 24.8361 7.6C24.9528 7.63333 25.0695 7.68333 25.1861 7.75C25.4361 7.91667 25.5611 8.16667 25.5611 8.5C25.5611 8.63333 25.5445 8.76667 25.5111 8.9C25.4945 9.03333 25.4861 9.16667 25.4861 9.3C25.4861 9.33333 25.4695 9.36667 25.4361 9.4L25.3611 9.525C25.3445 9.59167 25.3278 9.65833 25.3111 9.725C25.2945 9.79167 25.2528 9.84167 25.1861 9.875C25.0861 9.95833 24.9778 10.05 24.8611 10.15C24.7611 10.2333 24.6445 10.2917 24.5111 10.325C24.4445 10.3417 24.3778 10.3583 24.3111 10.375C24.2611 10.3917 24.2028 10.4 24.1361 10.4C23.8695 10.4 23.5945 10.4167 23.3111 10.45C23.0445 10.4833 22.7695 10.5167 22.4861 10.55C22.2695 10.5667 22.0528 10.5917 21.8361 10.625C21.6361 10.6583 21.4278 10.675 21.2111 10.675C21.0111 10.675 20.7861 10.7167 20.5361 10.8C20.3695 10.8333 20.1945 10.8667 20.0111 10.9C19.8278 10.9333 19.6445 10.9583 19.4611 10.975C19.3278 10.9917 19.1861 11.0167 19.0361 11.05C18.9028 11.0667 18.7695 11.0833 18.6361 11.1L18.2111 11.175C18.1778 11.1917 18.1278 11.2 18.0611 11.2C17.9445 11.2333 17.8278 11.2583 17.7111 11.275C17.5945 11.2917 17.4778 11.3167 17.3611 11.35C17.2445 11.3667 17.1278 11.3917 17.0111 11.425C16.9111 11.4583 16.8028 11.4917 16.6861 11.525C16.6028 11.5417 16.5361 11.575 16.4861 11.625C16.4361 11.6583 16.3945 11.7083 16.3611 11.775C16.3445 11.825 16.3445 11.875 16.3611 11.925C16.3778 11.9917 16.3695 12.0583 16.3361 12.125C16.3528 12.2917 16.3611 12.4583 16.3611 12.625C16.3778 12.7917 16.3778 12.9583 16.3611 13.125C16.3945 13.2583 16.4028 13.3917 16.3861 13.525C16.3861 13.6583 16.3778 13.7917 16.3611 13.925C16.3278 14.125 16.3361 14.2917 16.3861 14.425C16.4361 14.6417 16.4195 14.8667 16.3361 15.1C16.3028 15.2 16.3028 15.2667 16.3361 15.3C16.3695 15.35 16.3695 15.4083 16.3361 15.475V15.625C16.3195 15.7583 16.3778 15.825 16.5111 15.825H16.5611C16.6778 15.825 16.7945 15.8667 16.9111 15.95C16.9945 16.0333 17.0945 16.0583 17.2111 16.025L17.9111 15.95C18.0111 15.9333 18.1111 15.925 18.2111 15.925C18.3111 15.9083 18.4111 15.9 18.5111 15.9C18.5445 15.8833 18.5945 15.8917 18.6611 15.925C18.7445 15.975 18.8195 15.9833 18.8861 15.95C18.9195 15.9167 18.9611 15.8917 19.0111 15.875C19.0778 15.8583 19.1278 15.8333 19.1611 15.8C19.2611 15.7 19.3861 15.6667 19.5361 15.7C19.6695 15.7333 19.7778 15.725 19.8611 15.675C20.0111 15.625 20.1528 15.6083 20.2861 15.625C20.3695 15.6417 20.4528 15.6333 20.5361 15.6C20.6195 15.5667 20.7028 15.55 20.7861 15.55C20.8195 15.55 20.8445 15.5583 20.8611 15.575C20.8778 15.575 20.8945 15.5667 20.9111 15.55C20.9445 15.55 20.9778 15.5417 21.0111 15.525C21.0445 15.5083 21.0695 15.5 21.0861 15.5C21.2028 15.45 21.3111 15.4333 21.4111 15.45C21.4945 15.45 21.5361 15.45 21.5361 15.45C21.6028 15.4333 21.6611 15.4333 21.7111 15.45C21.7778 15.4667 21.8361 15.4917 21.8861 15.525C21.9695 15.5417 22.0361 15.5667 22.0861 15.6C22.1528 15.6333 22.2195 15.6583 22.2861 15.675C22.3195 15.675 22.3445 15.6833 22.3611 15.7C22.4445 15.7667 22.5445 15.825 22.6611 15.875C22.7945 15.925 22.8695 15.9833 22.8861 16.05C22.9195 16.15 22.9361 16.25 22.9361 16.35C22.9361 16.4333 22.9445 16.525 22.9611 16.625C22.9611 16.675 22.9528 16.725 22.9361 16.775C22.9361 16.825 22.9278 16.875 22.9111 16.925C22.8778 16.9917 22.8361 17.0667 22.7861 17.15C22.7528 17.2333 22.7028 17.3083 22.6361 17.375C22.6028 17.4083 22.5695 17.4417 22.5361 17.475C22.5195 17.5083 22.4945 17.5417 22.4611 17.575C22.3945 17.6417 22.3195 17.7 22.2361 17.75C22.1528 17.8 22.0611 17.825 21.9611 17.825C21.8945 17.825 21.8445 17.8333 21.8111 17.85C21.7445 17.8833 21.6778 17.9 21.6111 17.9C21.5445 17.9 21.4695 17.9 21.3861 17.9C21.2695 17.9167 21.1528 17.9333 21.0361 17.95C20.9361 17.95 20.8278 17.9417 20.7111 17.925C20.6445 17.9083 20.5861 17.9083 20.5361 17.925C20.3695 17.975 20.2028 17.9833 20.0361 17.95C19.8695 17.95 19.7028 17.9583 19.5361 17.975C19.3861 17.975 19.2361 17.975 19.0861 17.975H18.7611C18.7111 17.975 18.6695 17.9833 18.6361 18C18.5695 18.0333 18.4861 18.05 18.3861 18.05C18.3028 18.05 18.2195 18.0417 18.1361 18.025H17.8861C17.8695 18.025 17.8445 18.025 17.8111 18.025C17.7778 18.0417 17.7445 18.0417 17.7111 18.025C17.6611 18.0083 17.6111 18 17.5611 18C17.5278 18.0167 17.4861 18.0333 17.4361 18.05C17.4028 18.05 17.3695 18.05 17.3361 18.05C17.3195 18.0667 17.2945 18.075 17.2611 18.075C17.0945 18.0583 16.9361 18.0583 16.7861 18.075C16.6361 18.1083 16.4778 18.1417 16.3111 18.175ZM33.3357 18.5C33.1691 18.4833 33.0024 18.4583 32.8357 18.425C32.6857 18.4083 32.5357 18.3667 32.3857 18.3L31.7607 18.075C31.5441 17.9917 31.3441 17.9 31.1607 17.8C30.9774 17.6833 30.7941 17.5667 30.6107 17.45C30.5274 17.3667 30.4441 17.2917 30.3607 17.225C30.2774 17.1417 30.1941 17.0667 30.1107 17C29.9774 16.8667 29.8441 16.7333 29.7107 16.6C29.5774 16.45 29.4524 16.2917 29.3357 16.125L28.7357 15.2C28.5857 14.9667 28.4524 14.725 28.3357 14.475C28.2191 14.2083 28.1191 13.9417 28.0357 13.675C27.8524 13.175 27.7607 12.6833 27.7607 12.2V11.8C27.7607 11.3833 27.7857 10.975 27.8357 10.575C27.8691 10.2417 27.9441 9.94167 28.0607 9.675C28.1274 9.50833 28.1857 9.34167 28.2357 9.175C28.2857 9.00833 28.3441 8.85 28.4107 8.7L28.4857 8.525C28.5191 8.30833 28.5941 8.11667 28.7107 7.95C28.8274 7.76667 28.9274 7.59167 29.0107 7.425C29.0774 7.29167 29.1524 7.175 29.2357 7.075C29.3191 6.95833 29.3941 6.84167 29.4607 6.725C29.4941 6.675 29.5357 6.63333 29.5857 6.6C29.6357 6.55 29.6774 6.5 29.7107 6.45C29.7441 6.41667 29.7691 6.375 29.7857 6.325C29.8191 6.25833 29.8441 6.2 29.8607 6.15C29.8941 6.1 29.9524 6.03333 30.0357 5.95C30.1357 5.9 30.2274 5.78333 30.3107 5.6C30.3441 5.53333 30.3774 5.48333 30.4107 5.45C30.5107 5.36667 30.5941 5.26667 30.6607 5.15C30.7441 5.03333 30.8357 4.925 30.9357 4.825C31.0024 4.75833 31.0357 4.66667 31.0357 4.55C31.0357 4.46667 31.0357 4.39167 31.0357 4.325C31.0524 4.24167 31.0524 4.16667 31.0357 4.1C31.0191 4.01667 31.0441 3.94167 31.1107 3.875C31.1441 3.84167 31.1691 3.8 31.1857 3.75C31.2024 3.7 31.2191 3.65 31.2357 3.6C31.2857 3.43333 31.4191 3.29167 31.6357 3.175C31.6691 3.14167 31.7107 3.125 31.7607 3.125C31.8274 3.10833 31.8857 3.09167 31.9357 3.075C32.0524 3.025 32.1857 3.01667 32.3357 3.05C32.4024 3.06667 32.4607 3.075 32.5107 3.075C32.5607 3.05833 32.6107 3.04167 32.6607 3.025C32.7274 2.99167 32.7857 2.96667 32.8357 2.95C32.9024 2.93333 32.9607 2.91667 33.0107 2.9C33.2441 2.81667 33.4857 2.825 33.7357 2.925C34.0024 3.025 34.1941 3.2 34.3107 3.45C34.3441 3.53333 34.3774 3.61667 34.4107 3.7C34.4441 3.78333 34.4691 3.86667 34.4857 3.95C34.5191 4.13333 34.5107 4.29167 34.4607 4.425C34.4274 4.49167 34.4107 4.53333 34.4107 4.55C34.3941 4.61667 34.4107 4.675 34.4607 4.725C34.4941 4.775 34.5357 4.81667 34.5857 4.85C34.7691 5.01667 34.9441 5.18333 35.1107 5.35C35.2774 5.5 35.4357 5.66667 35.5857 5.85C35.7191 5.98333 35.8274 6.125 35.9107 6.275C36.0107 6.40833 36.1024 6.55833 36.1857 6.725C36.2191 6.80833 36.2607 6.9 36.3107 7C36.3607 7.08333 36.4107 7.16667 36.4607 7.25C36.5441 7.4 36.6107 7.55833 36.6607 7.725C36.7274 7.89167 36.7941 8.05833 36.8607 8.225V8.25C36.8941 8.36667 36.9191 8.49167 36.9357 8.625C36.9691 8.74167 37.0191 8.86667 37.0857 9C37.1357 9.11667 37.1774 9.24167 37.2107 9.375C37.2441 9.49167 37.2774 9.61667 37.3107 9.75C37.3441 9.9 37.3774 10.05 37.4107 10.2C37.4607 10.35 37.4941 10.5 37.5107 10.65C37.5274 10.7167 37.5441 10.7833 37.5607 10.85C37.5774 10.9 37.5941 10.9583 37.6107 11.025C37.6441 11.175 37.6774 11.325 37.7107 11.475C37.7441 11.625 37.7691 11.775 37.7857 11.925L37.8607 12.1C37.8941 12.2 37.9274 12.3333 37.9607 12.5C38.0107 12.7167 38.0357 12.9333 38.0357 13.15C38.0524 13.3667 38.0524 13.5917 38.0357 13.825C38.0357 13.9417 38.0274 14.0333 38.0107 14.1C37.9107 14.45 37.7857 14.8083 37.6357 15.175C37.5691 15.2917 37.5024 15.4083 37.4357 15.525C37.3691 15.625 37.3024 15.7333 37.2357 15.85L37.0107 16.2C36.9274 16.35 36.8357 16.4833 36.7357 16.6C36.5691 16.8667 36.3691 17.1 36.1357 17.3C35.9024 17.5 35.6524 17.6917 35.3857 17.875C34.8024 18.325 34.1191 18.5333 33.3357 18.5ZM33.2357 16.025C33.5857 16.025 33.8857 15.925 34.1357 15.725C34.2191 15.6417 34.3024 15.5667 34.3857 15.5C34.4857 15.4167 34.5691 15.3333 34.6357 15.25C34.9524 14.9 35.2024 14.5333 35.3857 14.15L35.4607 13.9C35.4941 13.6 35.4941 13.3 35.4607 13L35.3107 12.175C35.2607 11.9583 35.2191 11.75 35.1857 11.55C35.1524 11.3333 35.1024 11.125 35.0357 10.925C34.9857 10.8083 34.9691 10.7167 34.9857 10.65C35.0024 10.5667 35.0024 10.4833 34.9857 10.4C34.9691 10.3167 34.9441 10.2333 34.9107 10.15C34.8607 9.93333 34.8024 9.71667 34.7357 9.5C34.6691 9.28333 34.6024 9.06667 34.5357 8.85C34.5191 8.8 34.5024 8.75 34.4857 8.7C34.4691 8.65 34.4524 8.6 34.4357 8.55C34.3191 8.31667 34.1941 8.09167 34.0607 7.875C33.9274 7.65833 33.7774 7.45833 33.6107 7.275C33.5274 7.175 33.4357 7.08333 33.3357 7C33.2357 6.9 33.1357 6.80833 33.0357 6.725C33.0191 6.69167 32.9941 6.675 32.9607 6.675C32.9441 6.65833 32.9191 6.64167 32.8857 6.625C32.8357 6.55833 32.7691 6.56667 32.6857 6.65C32.6024 6.73333 32.5107 6.825 32.4107 6.925C32.3274 7.025 32.2441 7.125 32.1607 7.225C32.0774 7.34167 31.9857 7.45833 31.8857 7.575C31.8024 7.69167 31.7191 7.80833 31.6357 7.925C31.5191 8.075 31.4107 8.225 31.3107 8.375C31.2107 8.525 31.1107 8.675 31.0107 8.825C30.6607 9.39167 30.3857 10.0167 30.1857 10.7C30.1524 10.8 30.1357 10.875 30.1357 10.925C30.1191 11.0417 30.1024 11.1583 30.0857 11.275C30.0857 11.3917 30.0857 11.5167 30.0857 11.65V11.85C30.1024 11.9 30.1107 11.95 30.1107 12C30.1107 12.05 30.1191 12.1 30.1357 12.15C30.1357 12.35 30.1857 12.5667 30.2857 12.8C30.4191 13.1333 30.5691 13.4583 30.7357 13.775C30.9024 14.0917 31.0941 14.3917 31.3107 14.675C31.3607 14.7417 31.4107 14.8083 31.4607 14.875C31.5274 14.9417 31.5857 15.0083 31.6357 15.075C31.7857 15.2417 31.9441 15.3917 32.1107 15.525C32.2941 15.6583 32.4774 15.775 32.6607 15.875C32.8607 15.975 33.0524 16.025 33.2357 16.025ZM49.409 18.225C49.359 18.2083 49.3007 18.1917 49.234 18.175C49.184 18.1583 49.134 18.1417 49.084 18.125C48.9507 18.075 48.8173 18.0083 48.684 17.925C48.6173 17.8917 48.5673 17.8417 48.534 17.775C48.4173 17.5917 48.309 17.425 48.209 17.275C48.109 17.1083 48.0007 16.9417 47.884 16.775L47.659 16.375C47.5423 16.1417 47.4257 15.9167 47.309 15.7C47.1923 15.4667 47.0757 15.2417 46.959 15.025C46.9257 14.9417 46.884 14.875 46.834 14.825C46.8007 14.7583 46.7673 14.6917 46.734 14.625C46.6173 14.4417 46.509 14.2583 46.409 14.075C46.309 13.875 46.209 13.6833 46.109 13.5L45.484 12.275C45.3173 11.9417 45.1507 11.6167 44.984 11.3C44.8173 10.9667 44.6507 10.6333 44.484 10.3C44.4507 10.2667 44.4173 10.2167 44.384 10.15C44.3173 9.96667 44.234 9.79167 44.134 9.625C44.0507 9.45833 43.9673 9.29167 43.884 9.125C43.8173 9.00833 43.759 8.89167 43.709 8.775C43.659 8.64167 43.6007 8.51667 43.534 8.4L43.259 7.9C43.2257 7.9 43.2007 7.89167 43.184 7.875C43.184 7.875 43.1757 7.88333 43.159 7.9C43.159 7.9 43.159 7.90833 43.159 7.925C43.1423 8.14167 43.1257 8.36667 43.109 8.6C43.0923 8.83333 43.0923 9.06667 43.109 9.3C43.1423 9.4 43.1423 9.50833 43.109 9.625C43.0757 9.925 43.084 10.1917 43.134 10.425C43.1507 10.4917 43.1507 10.5583 43.134 10.625C43.134 10.6917 43.1257 10.7667 43.109 10.85C43.0923 10.9667 43.084 11.075 43.084 11.175C43.084 11.275 43.0757 11.3833 43.059 11.5C43.0923 11.5667 43.109 11.6417 43.109 11.725C43.109 11.7917 43.1007 11.8583 43.084 11.925C43.034 12.0917 43.034 12.2667 43.084 12.45C43.1173 12.5 43.1173 12.55 43.084 12.6C43.0173 12.75 43.0007 12.9333 43.034 13.15C43.084 13.4333 43.0673 13.7417 42.984 14.075C42.9673 14.1083 42.959 14.1667 42.959 14.25C42.9423 14.3167 42.959 14.375 43.009 14.425C43.0757 14.4583 43.0923 14.5 43.059 14.55C43.0423 14.7667 43.0423 14.9917 43.059 15.225C43.059 15.225 43.059 15.2333 43.059 15.25C43.059 15.25 43.0507 15.25 43.034 15.25C43.0173 15.25 43.009 15.2417 43.009 15.225C42.9923 15.2083 42.984 15.1917 42.984 15.175C42.9507 15.1417 42.934 15.15 42.934 15.2C42.934 15.2833 42.9423 15.3333 42.959 15.35C42.9923 15.4333 43.009 15.5167 43.009 15.6C43.009 15.6833 43.009 15.7667 43.009 15.85V16.625C43.009 16.675 43.0007 16.725 42.984 16.775C42.984 16.825 42.959 16.8667 42.909 16.9C42.8423 16.9167 42.809 16.975 42.809 17.075C42.7923 17.2583 42.7257 17.4167 42.609 17.55C42.509 17.6833 42.3923 17.8 42.259 17.9C42.1923 17.95 42.109 17.9833 42.009 18C41.9257 18 41.8423 17.9917 41.759 17.975L41.309 17.825C41.2757 17.825 41.2423 17.8 41.209 17.75C41.159 17.7 41.109 17.65 41.059 17.6C41.009 17.5333 40.9507 17.475 40.884 17.425C40.8007 17.375 40.7423 17.2833 40.709 17.15C40.6923 17.0667 40.6673 16.975 40.634 16.875C40.6007 16.775 40.584 16.675 40.584 16.575C40.584 16.4583 40.584 16.35 40.584 16.25C40.6007 16.15 40.609 16.0417 40.609 15.925C40.6257 15.8417 40.634 15.7667 40.634 15.7C40.634 15.6167 40.6423 15.5333 40.659 15.45V6.3C40.659 6.21667 40.659 6.13333 40.659 6.05C40.6757 5.96667 40.6923 5.89167 40.709 5.825C40.709 5.74167 40.709 5.65833 40.709 5.575C40.7257 5.49167 40.734 5.40833 40.734 5.325C40.734 5.225 40.734 5.125 40.734 5.025C40.7507 4.925 40.7673 4.83333 40.784 4.75C40.8007 4.68333 40.809 4.625 40.809 4.575C40.809 4.525 40.809 4.46667 40.809 4.4V3.625C40.809 3.50833 40.8173 3.40833 40.834 3.325C40.8673 3.225 40.8923 3.125 40.909 3.025L40.984 2.9C41.034 2.85 41.0757 2.775 41.109 2.675C41.1423 2.575 41.1923 2.525 41.259 2.525C41.309 2.49167 41.359 2.46667 41.409 2.45C41.459 2.41667 41.4923 2.36667 41.509 2.3L41.534 2.275C41.5507 2.275 41.5673 2.275 41.584 2.275C41.6007 2.25833 41.6173 2.25 41.634 2.25C41.7007 2.25 41.7507 2.23333 41.784 2.2C41.834 2.16667 41.8923 2.15833 41.959 2.175C42.0257 2.19167 42.0923 2.2 42.159 2.2C42.2257 2.2 42.2923 2.20833 42.359 2.225C42.7257 2.29167 42.984 2.50833 43.134 2.875L43.284 3.375C43.3007 3.54167 43.3757 3.7 43.509 3.85C43.609 3.96667 43.709 4.09167 43.809 4.225C43.909 4.35833 44.0173 4.49167 44.134 4.625C44.5673 5.175 44.9673 5.79167 45.334 6.475C45.3673 6.54167 45.4007 6.60833 45.434 6.675C45.4673 6.74167 45.5007 6.80833 45.534 6.875L46.834 9.5C46.934 9.68333 47.0257 9.875 47.109 10.075C47.209 10.2583 47.3173 10.4417 47.434 10.625C47.4673 10.6917 47.5007 10.7583 47.534 10.825C47.5673 10.875 47.5923 10.9333 47.609 11C47.6923 11.2 47.7923 11.4 47.909 11.6C47.909 11.6 47.909 11.6083 47.909 11.625C47.9257 11.625 47.934 11.6167 47.934 11.6C47.9507 11.6 47.959 11.6 47.959 11.6C47.9757 11.5833 47.984 11.575 47.984 11.575L48.059 10.7V10.45C48.0757 10.3667 48.084 10.2833 48.084 10.2C48.1007 10.1 48.1173 10.0083 48.134 9.925C48.1507 9.875 48.1507 9.81667 48.134 9.75C48.134 9.68333 48.1423 9.61667 48.159 9.55C48.159 9.45 48.159 9.35 48.159 9.25C48.1757 9.13333 48.1923 9.025 48.209 8.925C48.2257 8.875 48.234 8.825 48.234 8.775C48.234 8.70833 48.234 8.65 48.234 8.6V7.925H48.209V7.25C48.209 7.16667 48.209 7.08333 48.209 7C48.209 6.91667 48.1923 6.83333 48.159 6.75C48.1423 6.7 48.134 6.625 48.134 6.525L48.159 6.35C48.159 6.3 48.1507 6.25833 48.134 6.225C48.134 6.175 48.134 6.125 48.134 6.075C48.1507 6.00833 48.1423 5.94167 48.109 5.875C48.0757 5.80833 48.059 5.74167 48.059 5.675C48.0757 5.60833 48.084 5.54167 48.084 5.475C48.084 5.40833 48.084 5.34167 48.084 5.275C48.084 5.20833 48.0507 5.175 47.984 5.175C47.9673 5.175 47.959 5.15833 47.959 5.125C47.9423 5.075 47.9423 5.03333 47.959 5C47.9923 4.91667 48.009 4.825 48.009 4.725C48.009 4.625 48.009 4.525 48.009 4.425V3.7C47.9923 3.6 48.0007 3.5 48.034 3.4C48.0673 3.3 48.109 3.20833 48.159 3.125L48.259 2.975C48.3423 2.89167 48.434 2.80833 48.534 2.725C48.634 2.64167 48.734 2.55833 48.834 2.475C48.834 2.475 48.8673 2.45833 48.934 2.425C49.0173 2.40833 49.0923 2.39167 49.159 2.375C49.2423 2.35833 49.3257 2.35833 49.409 2.375C49.4757 2.375 49.5257 2.38333 49.559 2.4C49.6257 2.43333 49.6923 2.475 49.759 2.525C49.8257 2.55833 49.8923 2.6 49.959 2.65C49.9923 2.66667 50.009 2.68333 50.009 2.7C50.0257 2.71667 50.0423 2.73333 50.059 2.75C50.0923 2.78333 50.1173 2.825 50.134 2.875C50.1673 2.90833 50.1923 2.94167 50.209 2.975C50.2923 3.04167 50.3423 3.125 50.359 3.225C50.3923 3.30833 50.4173 3.39167 50.434 3.475V4.525C50.434 4.64167 50.434 4.75833 50.434 4.875C50.4507 4.975 50.4673 5.08333 50.484 5.2C50.5007 5.26667 50.509 5.33333 50.509 5.4C50.509 5.45 50.509 5.50833 50.509 5.575C50.509 5.70833 50.509 5.85 50.509 6C50.5257 6.13333 50.534 6.26667 50.534 6.4V6.575C50.534 6.69167 50.5257 6.80833 50.509 6.925C50.509 7.025 50.509 7.13333 50.509 7.25V8.35C50.509 8.51667 50.5007 8.69167 50.484 8.875C50.484 9.04167 50.4923 9.21667 50.509 9.4C50.509 9.46667 50.5007 9.51667 50.484 9.55C50.4673 9.71667 50.459 9.88333 50.459 10.05C50.459 10.2 50.4507 10.3583 50.434 10.525C50.434 10.5917 50.434 10.6667 50.434 10.75C50.434 10.8333 50.4257 10.9167 50.409 11C50.3923 11.0667 50.384 11.1333 50.384 11.2C50.4007 11.2667 50.409 11.3333 50.409 11.4C50.4423 11.55 50.4507 11.7 50.434 11.85C50.434 12 50.4257 12.15 50.409 12.3C50.3923 12.5667 50.3757 12.8417 50.359 13.125C50.359 13.3917 50.3757 13.6667 50.409 13.95C50.409 14.0167 50.409 14.0917 50.409 14.175C50.4257 14.2583 50.434 14.3417 50.434 14.425C50.4173 14.675 50.4257 14.9167 50.459 15.15C50.509 15.3833 50.559 15.6167 50.609 15.85C50.6423 16.0167 50.6757 16.1833 50.709 16.35C50.7423 16.5 50.7673 16.6667 50.784 16.85C50.784 16.9167 50.7757 16.9583 50.759 16.975C50.7423 17.0083 50.7257 17.05 50.709 17.1C50.6923 17.1333 50.684 17.1667 50.684 17.2C50.6673 17.3333 50.6173 17.4583 50.534 17.575C50.4673 17.6917 50.3923 17.8083 50.309 17.925C50.0923 18.2083 49.7923 18.3083 49.409 18.225ZM55.6943 18.25C55.5943 18.25 55.5277 18.2417 55.4943 18.225C55.4277 18.1917 55.3693 18.1667 55.3193 18.15C55.2693 18.1333 55.2193 18.1167 55.1693 18.1C55.1193 18.0667 55.0693 18.0333 55.0193 18C54.986 17.95 54.9527 17.9 54.9193 17.85C54.886 17.8167 54.8527 17.8 54.8193 17.8C54.7193 17.8 54.6693 17.75 54.6693 17.65C54.6527 17.55 54.636 17.45 54.6193 17.35C54.6027 17.25 54.586 17.15 54.5693 17.05C54.5527 16.9 54.536 16.75 54.5193 16.6C54.5193 16.45 54.5027 16.3083 54.4693 16.175V15.95C54.4693 15.8833 54.461 15.825 54.4443 15.775C54.4443 15.725 54.4443 15.6667 54.4443 15.6C54.411 15.5167 54.411 15.45 54.4443 15.4C54.4777 15.1 54.4777 14.8 54.4443 14.5C54.4277 14.4167 54.4193 14.3333 54.4193 14.25C54.4193 14.1667 54.411 14.0833 54.3943 14C54.3943 13.8333 54.3943 13.6667 54.3943 13.5C54.3943 13.3167 54.3777 13.1417 54.3443 12.975V12.575C54.3443 12.4417 54.336 12.3167 54.3193 12.2C54.3193 12.0833 54.311 11.9667 54.2943 11.85C54.2777 11.7 54.261 11.55 54.2443 11.4C54.2443 11.25 54.236 11.1 54.2193 10.95C54.2027 10.9167 54.1943 10.8583 54.1943 10.775C54.1777 10.6917 54.161 10.6083 54.1443 10.525C54.1443 10.425 54.1443 10.3333 54.1443 10.25L54.0693 9C54.0527 8.86667 54.036 8.74167 54.0193 8.625C54.0193 8.49167 54.0193 8.36667 54.0193 8.25C54.0027 8.05 53.986 7.85 53.9693 7.65C53.9527 7.45 53.936 7.25833 53.9193 7.075C53.9193 7.04167 53.911 7.00833 53.8943 6.975C53.8943 6.94167 53.8943 6.91667 53.8943 6.9C53.8943 6.7 53.886 6.5 53.8693 6.3C53.8527 6.1 53.836 5.89167 53.8193 5.675L53.7443 4.975C53.6943 4.70833 53.686 4.41667 53.7193 4.1C53.7193 3.95 53.7777 3.825 53.8943 3.725C53.9277 3.69167 53.9527 3.675 53.9693 3.675C53.986 3.65833 54.0027 3.64167 54.0193 3.625C54.1027 3.60833 54.1443 3.55 54.1443 3.45C54.1443 3.41667 54.1777 3.4 54.2443 3.4H54.3693C54.386 3.4 54.3943 3.4 54.3943 3.4C54.411 3.38333 54.4277 3.375 54.4443 3.375C54.4777 3.35833 54.5027 3.34167 54.5193 3.325C54.5527 3.29167 54.5777 3.275 54.5943 3.275C54.6277 3.275 54.661 3.28333 54.6943 3.3C54.7277 3.3 54.761 3.30833 54.7943 3.325C54.8277 3.325 54.8527 3.31667 54.8693 3.3C54.9527 3.28333 55.036 3.29167 55.1193 3.325C55.2193 3.34167 55.3027 3.36667 55.3693 3.4C55.4693 3.41667 55.5443 3.48333 55.5943 3.6C55.6443 3.75 55.686 3.9 55.7193 4.05C55.7693 4.18333 55.8027 4.325 55.8193 4.475V4.675C55.8527 4.79167 55.8693 4.91667 55.8693 5.05C55.8693 5.16667 55.8693 5.29167 55.8693 5.425C55.8693 5.54167 55.8693 5.65833 55.8693 5.775C55.886 5.875 55.9027 5.975 55.9193 6.075C55.9193 6.125 55.9193 6.175 55.9193 6.225C55.9193 6.275 55.9277 6.325 55.9443 6.375C55.9443 6.475 55.9443 6.575 55.9443 6.675C55.961 6.775 55.9777 6.88333 55.9943 7C56.011 7.18333 56.0277 7.375 56.0443 7.575C56.061 7.775 56.0693 7.975 56.0693 8.175C56.0693 8.25833 56.0693 8.35 56.0693 8.45C56.0693 8.53333 56.0777 8.61667 56.0943 8.7C56.111 8.75 56.1193 8.8 56.1193 8.85C56.1193 8.9 56.1193 8.95 56.1193 9V9.5C56.1193 9.6 56.1277 9.68333 56.1443 9.75C56.1777 9.86667 56.186 9.98333 56.1693 10.1C56.1693 10.2 56.1777 10.3083 56.1943 10.425L56.2693 11.575C56.286 11.7417 56.2943 11.9167 56.2943 12.1C56.311 12.2667 56.3193 12.4417 56.3193 12.625C56.3193 12.6917 56.3193 12.7667 56.3193 12.85C56.3193 12.9167 56.3277 12.9833 56.3443 13.05C56.361 13.1 56.3693 13.15 56.3693 13.2C56.3693 13.25 56.3693 13.3 56.3693 13.35C56.386 13.3667 56.386 13.4 56.3693 13.45C56.3693 13.4833 56.3777 13.5167 56.3943 13.55C56.4277 13.6667 56.4443 13.7833 56.4443 13.9C56.4443 14.0167 56.4443 14.1417 56.4443 14.275C56.4443 14.3417 56.4443 14.4167 56.4443 14.5C56.461 14.5667 56.4693 14.6417 56.4693 14.725C56.486 14.8083 56.4943 14.9 56.4943 15C56.4943 15.1 56.4943 15.1917 56.4943 15.275C56.511 15.3583 56.5193 15.45 56.5193 15.55C56.5193 15.6333 56.5277 15.7167 56.5443 15.8C56.561 15.8333 56.5693 15.8667 56.5693 15.9C56.5693 16.0833 56.586 16.2667 56.6193 16.45C56.6527 16.6333 56.686 16.8167 56.7193 17C56.736 17.05 56.7443 17.1083 56.7443 17.175C56.7443 17.225 56.7443 17.275 56.7443 17.325C56.7443 17.375 56.7277 17.4167 56.6943 17.45C56.6277 17.5 56.5777 17.6 56.5443 17.75C56.5443 17.8 56.5193 17.8417 56.4693 17.875C56.3527 17.925 56.2527 17.9917 56.1693 18.075C56.036 18.1917 55.8777 18.25 55.6943 18.25Z" fill="#353535"/>
</svg>
