<svg width="127" height="28" viewBox="0 0 127 28" fill="none" xmlns="http://www.w3.org/2000/svg">
<path d="M10.0107 26.95C9.84408 26.9333 9.71908 26.8333 9.63574 26.65C9.61908 26.6333 9.61074 26.5917 9.61074 26.525C9.59408 26.3917 9.56908 26.2583 9.53574 26.125C9.51908 25.9917 9.51908 25.8583 9.53574 25.725V25.6C9.51908 25.45 9.51074 25.3 9.51074 25.15C9.51074 25 9.50241 24.8583 9.48574 24.725C9.45241 24.4417 9.35241 24.225 9.18574 24.075L8.96074 23.85C8.87741 23.75 8.76908 23.7167 8.63574 23.75C8.53574 23.7667 8.43574 23.775 8.33574 23.775C8.25241 23.775 8.16074 23.7667 8.06074 23.75C7.99408 23.75 7.91908 23.7583 7.83574 23.775C7.76908 23.775 7.69408 23.775 7.61074 23.775C7.54408 23.775 7.46908 23.775 7.38574 23.775C7.31908 23.7583 7.25241 23.7583 7.18574 23.775C7.11908 23.7917 7.05241 23.8 6.98574 23.8C6.93574 23.8 6.88574 23.8 6.83574 23.8H5.98574C5.80241 23.8 5.61074 23.825 5.41074 23.875L4.81074 24.025C4.61074 24.0917 4.41074 24.1417 4.21074 24.175C4.14408 24.1917 4.07741 24.2083 4.01074 24.225C3.94408 24.2417 3.87741 24.2667 3.81074 24.3C3.56074 24.4167 3.31908 24.4833 3.08574 24.5C2.93574 24.5333 2.82741 24.6 2.76074 24.7L2.63574 24.85C2.60241 24.8667 2.56908 24.8833 2.53574 24.9C2.50241 24.9333 2.46908 24.9667 2.43574 25C2.31908 25.0667 2.19408 25.0667 2.06074 25C1.91074 24.9167 1.81908 24.825 1.78574 24.725C1.78574 24.7083 1.77741 24.6917 1.76074 24.675C1.76074 24.675 1.76074 24.6667 1.76074 24.65C1.64408 24.3667 1.45241 24.1167 1.18574 23.9C1.11908 23.85 1.06074 23.7917 1.01074 23.725C0.994076 23.675 0.969076 23.6333 0.935742 23.6C0.902409 23.55 0.869076 23.5083 0.835742 23.475L0.685742 23.25C0.619076 23.1333 0.594076 23 0.610742 22.85C0.627409 22.7667 0.635742 22.6833 0.635742 22.6C0.652409 22.5 0.669076 22.4083 0.685742 22.325V22.175C0.685742 21.9917 0.685742 21.8083 0.685742 21.625C0.685742 21.425 0.694076 21.2417 0.710742 21.075V20.825C0.744076 20.7583 0.752409 20.7 0.735742 20.65C0.735742 20.5833 0.735742 20.5167 0.735742 20.45C0.752409 20.2333 0.752409 20.025 0.735742 19.825C0.735742 19.6083 0.744076 19.3917 0.760742 19.175L0.835742 18.05C0.852409 17.8667 0.860742 17.6917 0.860742 17.525C0.877409 17.3583 0.885742 17.1917 0.885742 17.025V16.95C0.919076 16.75 0.935742 16.55 0.935742 16.35C0.935742 16.15 0.935742 15.9417 0.935742 15.725V14C0.919076 13.8167 0.902409 13.6333 0.885742 13.45C0.885742 13.2667 0.885742 13.0833 0.885742 12.9C0.885742 12.7 0.877409 12.5 0.860742 12.3C0.844076 12.0833 0.819076 11.8667 0.785742 11.65C0.769076 11.5167 0.744076 11.375 0.710742 11.225C0.694076 11.075 0.685742 10.925 0.685742 10.775C0.685742 10.7417 0.677409 10.7083 0.660742 10.675C0.660742 10.6417 0.660742 10.6083 0.660742 10.575C0.560742 10.125 0.510742 9.66667 0.510742 9.2V8.15C0.510742 8.03333 0.510742 7.925 0.510742 7.825C0.527409 7.70833 0.544076 7.59167 0.560742 7.475C0.594076 7.275 0.660742 7.125 0.760742 7.025L0.885742 6.875C0.985742 6.74167 1.10241 6.65 1.23574 6.6C1.36908 6.53333 1.51074 6.49167 1.66074 6.475H1.83574C2.08574 6.475 2.28574 6.56667 2.43574 6.75C2.46908 6.76667 2.49408 6.78333 2.51074 6.8C2.52741 6.81667 2.54408 6.83333 2.56074 6.85C2.64408 6.91667 2.69408 6.99167 2.71074 7.075C2.79408 7.24167 2.83574 7.35 2.83574 7.4C2.85241 7.45 2.86074 7.56667 2.86074 7.75V7.925C2.86074 8.04167 2.86074 8.15833 2.86074 8.275C2.86074 8.375 2.86908 8.48333 2.88574 8.6C2.90241 8.63333 2.91074 8.68333 2.91074 8.75C2.91074 8.86667 2.91074 8.98333 2.91074 9.1C2.92741 9.21667 2.94408 9.33333 2.96074 9.45C2.97741 9.61667 2.99408 9.78333 3.01074 9.95C3.02741 10.1 3.03574 10.2667 3.03574 10.45C3.03574 10.4833 3.03574 10.525 3.03574 10.575C3.05241 10.6083 3.06074 10.6417 3.06074 10.675C3.06074 10.6917 3.06074 10.7167 3.06074 10.75C3.07741 10.7667 3.08574 10.7917 3.08574 10.825L3.16074 12.1C3.17741 12.1833 3.18574 12.275 3.18574 12.375C3.18574 12.4583 3.18574 12.55 3.18574 12.65C3.20241 12.6667 3.21074 12.7083 3.21074 12.775C3.19408 12.8583 3.18574 12.95 3.18574 13.05C3.18574 13.1333 3.19408 13.2167 3.21074 13.3V14.95C3.19408 15.05 3.19408 15.15 3.21074 15.25V15.4C3.19408 15.5333 3.18574 15.675 3.18574 15.825C3.18574 15.9583 3.17741 16.1 3.16074 16.25C3.16074 16.3667 3.16074 16.4917 3.16074 16.625C3.16074 16.7417 3.15241 16.8667 3.13574 17C3.11908 17.0667 3.11074 17.1417 3.11074 17.225C3.11074 17.3083 3.11074 17.3917 3.11074 17.475C3.11074 17.5417 3.10241 17.625 3.08574 17.725C3.08574 17.8083 3.07741 17.8917 3.06074 17.975V18.05C3.04408 18.2167 3.02741 18.3833 3.01074 18.55C3.01074 18.7167 3.00241 18.8917 2.98574 19.075C2.96908 19.1583 2.96074 19.25 2.96074 19.35C2.96074 19.45 2.95241 19.55 2.93574 19.65C2.91908 19.7167 2.91074 19.8 2.91074 19.9C2.91074 19.9833 2.91074 20.0667 2.91074 20.15C2.91074 20.2333 2.90241 20.3167 2.88574 20.4C2.86908 20.5833 2.86074 20.7667 2.86074 20.95C2.86074 21.1167 2.86074 21.2917 2.86074 21.475V21.5C2.89408 21.5833 2.93574 21.625 2.98574 21.625L3.48574 21.7C3.88574 21.75 4.27741 21.775 4.66074 21.775C4.76074 21.775 4.84408 21.7667 4.91074 21.75C4.99408 21.7333 5.08574 21.725 5.18574 21.725C5.28574 21.725 5.37741 21.7167 5.46074 21.7H6.16074C6.27741 21.7 6.39408 21.6917 6.51074 21.675C6.62741 21.6417 6.74408 21.6167 6.86074 21.6H6.98574C7.16908 21.6 7.35241 21.5917 7.53574 21.575C7.71908 21.5417 7.90241 21.525 8.08574 21.525H8.91074C9.14408 21.525 9.34408 21.475 9.51074 21.375C9.64408 21.325 9.76908 21.2917 9.88574 21.275C10.0191 21.2583 10.1524 21.2417 10.2857 21.225C10.4857 21.225 10.6607 21.275 10.8107 21.375C11.1441 21.575 11.3607 21.85 11.4607 22.2C11.4941 22.3167 11.5107 22.4417 11.5107 22.575C11.5274 22.7083 11.5274 22.8417 11.5107 22.975C11.4941 23.125 11.4607 23.2667 11.4107 23.4C11.3607 23.5167 11.2941 23.6417 11.2107 23.775L10.9857 24.1C10.8857 24.2833 10.8107 24.4667 10.7607 24.65C10.7441 24.8 10.7191 24.9417 10.6857 25.075C10.6524 25.225 10.6357 25.375 10.6357 25.525C10.6357 25.5917 10.6274 25.6583 10.6107 25.725C10.6107 25.7917 10.6107 25.8583 10.6107 25.925C10.5941 25.9917 10.5857 26.05 10.5857 26.1C10.5857 26.15 10.5857 26.2083 10.5857 26.275C10.5857 26.4083 10.5441 26.5583 10.4607 26.725C10.3607 26.8917 10.2107 26.9667 10.0107 26.95ZM17.5346 24.25C17.5179 24.2333 17.4929 24.225 17.4596 24.225C17.2929 24.125 17.1262 24.0333 16.9596 23.95C16.8096 23.85 16.6679 23.7417 16.5346 23.625C16.4679 23.5917 16.4262 23.5583 16.4096 23.525C16.2596 23.4417 16.1262 23.3417 16.0096 23.225C15.8929 23.0917 15.7846 22.95 15.6846 22.8C15.6512 22.7667 15.6179 22.725 15.5846 22.675C15.5512 22.625 15.5096 22.575 15.4596 22.525C15.2929 22.3583 15.1596 22.1583 15.0596 21.925C15.0429 21.875 15.0179 21.825 14.9846 21.775C14.9512 21.725 14.9179 21.675 14.8846 21.625C14.7846 21.4917 14.7096 21.3667 14.6596 21.25C14.6262 21.1167 14.5762 20.9917 14.5096 20.875C14.4429 20.7417 14.3762 20.6167 14.3096 20.5C14.2929 20.4333 14.2679 20.3667 14.2346 20.3C14.2012 20.2333 14.1762 20.1667 14.1596 20.1C14.1596 20.0167 14.1346 19.925 14.0846 19.825C14.0179 19.6417 13.9512 19.4583 13.8846 19.275C13.8346 19.075 13.7846 18.875 13.7346 18.675C13.7012 18.6083 13.6846 18.5583 13.6846 18.525C13.5846 18.3083 13.5096 18.0833 13.4596 17.85C13.4096 17.6167 13.3596 17.3917 13.3096 17.175L13.1596 16.05C13.1429 16.0167 13.1346 15.975 13.1346 15.925C13.1346 15.875 13.1346 15.8333 13.1346 15.8C13.1346 15.7 13.1346 15.6083 13.1346 15.525C13.1346 15.425 13.1179 15.325 13.0846 15.225C13.0512 15.0083 13.0596 14.8083 13.1096 14.625C13.1096 14.5583 13.1096 14.5 13.1096 14.45C13.1262 14.3833 13.1346 14.3167 13.1346 14.25C13.1346 14.1667 13.1346 14.0833 13.1346 14C13.1512 13.9 13.1679 13.8167 13.1846 13.75C13.2012 13.7 13.2096 13.6333 13.2096 13.55C13.2429 13.4 13.2596 13.2583 13.2596 13.125C13.2762 12.975 13.2929 12.8333 13.3096 12.7C13.3596 12.4667 13.3846 12.2417 13.3846 12.025C13.3846 11.9583 13.3846 11.9 13.3846 11.85C13.4012 11.7833 13.4179 11.7167 13.4346 11.65C13.4346 11.5 13.4262 11.3917 13.4096 11.325C13.3596 11.2583 13.3512 11.1667 13.3846 11.05C13.4179 10.9833 13.4346 10.9333 13.4346 10.9C13.4512 10.8667 13.4596 10.8333 13.4596 10.8C13.4596 10.75 13.4846 10.7167 13.5346 10.7H13.7096C13.7762 10.7 13.8179 10.675 13.8346 10.625C13.8512 10.5583 13.9096 10.5083 14.0096 10.475C14.0929 10.4417 14.1679 10.4167 14.2346 10.4C14.3012 10.3667 14.3679 10.325 14.4346 10.275C14.4846 10.2417 14.5429 10.225 14.6096 10.225C14.6762 10.225 14.7429 10.2333 14.8096 10.25L15.2596 10.4C15.2762 10.4167 15.2846 10.425 15.2846 10.425C15.3012 10.425 15.3179 10.4333 15.3346 10.45C15.4679 10.5833 15.5762 10.7333 15.6596 10.9C15.7596 11.0667 15.8179 11.25 15.8346 11.45C15.8346 11.5167 15.8346 11.5833 15.8346 11.65C15.8346 11.7 15.8179 11.7583 15.7846 11.825C15.7679 11.925 15.7512 12.025 15.7346 12.125C15.7179 12.225 15.7012 12.3333 15.6846 12.45C15.6512 12.6167 15.6262 12.7833 15.6096 12.95C15.6096 13.1 15.6096 13.2583 15.6096 13.425C15.5929 13.4917 15.5846 13.5583 15.5846 13.625C15.5846 13.675 15.5762 13.7333 15.5596 13.8C15.5429 14 15.5346 14.2 15.5346 14.4C15.5346 14.6 15.5512 14.7917 15.5846 14.975C15.5846 14.9917 15.5846 15.0167 15.5846 15.05C15.6012 15.0833 15.6012 15.1167 15.5846 15.15C15.5846 15.3167 15.6012 15.4917 15.6346 15.675C15.6679 15.8583 15.6929 16.0417 15.7096 16.225C15.7262 16.3917 15.7429 16.55 15.7596 16.7C15.7762 16.85 15.8012 17 15.8346 17.15C15.8679 17.2167 15.8846 17.2833 15.8846 17.35C15.9012 17.4167 15.9179 17.4833 15.9346 17.55C16.0012 17.8667 16.0762 18.175 16.1596 18.475C16.2429 18.775 16.3512 19.075 16.4846 19.375C16.5679 19.5583 16.6512 19.7167 16.7346 19.85C16.8679 20.0833 16.9846 20.3167 17.0846 20.55C17.1512 20.6667 17.2179 20.7833 17.2846 20.9C17.3512 21 17.4179 21.1083 17.4846 21.225C17.5512 21.3083 17.6179 21.3833 17.6846 21.45C17.7512 21.5167 17.8179 21.5917 17.8846 21.675C17.9679 21.7583 18.0762 21.7833 18.2096 21.75C18.2929 21.7167 18.3512 21.6833 18.3846 21.65C18.4679 21.6 18.5429 21.55 18.6096 21.5C18.6929 21.45 18.7679 21.3917 18.8346 21.325C19.0179 21.1417 19.1846 20.9583 19.3346 20.775C19.5012 20.5917 19.6429 20.3917 19.7596 20.175C19.8596 19.9917 19.9596 19.8 20.0596 19.6C20.1596 19.4 20.2512 19.2 20.3346 19C20.4346 18.7667 20.5262 18.5333 20.6096 18.3C20.7096 18.0667 20.8012 17.825 20.8846 17.575C20.9512 17.4083 21.0012 17.2417 21.0346 17.075C21.0846 16.8917 21.1179 16.7167 21.1346 16.55C21.1679 16.3667 21.1929 16.1833 21.2096 16C21.2429 15.8 21.2512 15.6083 21.2346 15.425C21.2346 15.375 21.2346 15.325 21.2346 15.275C21.2512 15.225 21.2596 15.175 21.2596 15.125C21.2929 15.0083 21.3012 14.9 21.2846 14.8C21.2846 14.7 21.2762 14.6 21.2596 14.5C21.2429 14.2167 21.2179 13.95 21.1846 13.7C21.1679 13.4333 21.1512 13.1667 21.1346 12.9C21.1346 12.7667 21.1262 12.675 21.1096 12.625C21.0929 12.475 21.0762 12.325 21.0596 12.175C21.0596 12.025 21.0429 11.875 21.0096 11.725V11.525C21.0096 11.3583 21.0012 11.2 20.9846 11.05C20.9846 10.8833 20.9846 10.7167 20.9846 10.55C20.9846 10.4167 20.9762 10.3 20.9596 10.2C20.9596 10.0833 20.9596 9.96667 20.9596 9.85C20.9596 9.7 20.9846 9.575 21.0346 9.475C21.0846 9.39167 21.1012 9.325 21.0846 9.275C21.0346 9.175 21.0596 9.1 21.1596 9.05C21.2429 8.96667 21.3262 8.9 21.4096 8.85C21.5096 8.8 21.6179 8.76667 21.7346 8.75C21.7679 8.73333 21.7929 8.725 21.8096 8.725C21.8429 8.725 21.8679 8.71667 21.8846 8.7C21.9846 8.61667 22.1179 8.59167 22.2846 8.625C22.3179 8.64167 22.3679 8.65 22.4346 8.65C22.5846 8.68333 22.6929 8.74167 22.7596 8.825C22.8096 8.875 22.8846 8.93333 22.9846 9C23.1179 9.06667 23.2096 9.15 23.2596 9.25C23.3096 9.35 23.3429 9.45833 23.3596 9.575C23.3929 9.74167 23.4179 9.9 23.4346 10.05C23.4679 10.2 23.4762 10.3583 23.4596 10.525V10.75C23.4596 10.9167 23.4596 11.0833 23.4596 11.25C23.4762 11.4 23.4929 11.5583 23.5096 11.725C23.5262 11.775 23.5346 11.8333 23.5346 11.9C23.5346 11.95 23.5346 12 23.5346 12.05C23.5346 12.15 23.5346 12.25 23.5346 12.35C23.5512 12.4333 23.5679 12.525 23.5846 12.625C23.6012 12.6583 23.6096 12.7083 23.6096 12.775C23.5929 12.9417 23.5929 13.1083 23.6096 13.275C23.6429 13.425 23.6679 13.5833 23.6846 13.75C23.7012 13.9167 23.7096 14.0917 23.7096 14.275C23.7262 14.4583 23.7346 14.6417 23.7346 14.825C23.7512 14.8417 23.7512 14.8667 23.7346 14.9C23.7346 14.9333 23.7346 14.9667 23.7346 15C23.6846 15.15 23.6762 15.325 23.7096 15.525C23.7429 15.7417 23.7346 15.95 23.6846 16.15C23.6679 16.3 23.6512 16.45 23.6346 16.6C23.6179 16.75 23.5929 16.9083 23.5596 17.075C23.5262 17.3417 23.4679 17.6083 23.3846 17.875C23.3012 18.1417 23.2179 18.4083 23.1346 18.675C23.1346 18.7083 23.1096 18.7667 23.0596 18.85C22.9929 18.9667 22.9346 19.0917 22.8846 19.225C22.8346 19.3417 22.7929 19.4667 22.7596 19.6L22.6846 19.775C22.6012 19.9417 22.5262 20.1083 22.4596 20.275C22.4096 20.425 22.3429 20.5833 22.2596 20.75C22.2096 20.85 22.1596 20.95 22.1096 21.05C22.0596 21.15 22.0012 21.2417 21.9346 21.325C21.9179 21.3583 21.8929 21.3917 21.8596 21.425C21.8262 21.5417 21.7762 21.65 21.7096 21.75C21.6429 21.85 21.5762 21.95 21.5096 22.05C21.3262 22.3333 21.1096 22.6 20.8596 22.85C20.6262 23.1 20.3679 23.3333 20.0846 23.55L19.7846 23.725C19.5512 23.8417 19.3012 23.9417 19.0346 24.025C18.7846 24.1083 18.5262 24.1667 18.2596 24.2C18.1762 24.2167 18.0846 24.2167 17.9846 24.2C17.9346 24.2 17.8846 24.2 17.8346 24.2C17.7846 24.2 17.7346 24.2167 17.6846 24.25H17.5346ZM28.5117 24.25C28.4117 24.25 28.3451 24.2417 28.3117 24.225C28.2451 24.1917 28.1867 24.1667 28.1367 24.15C28.0867 24.1333 28.0367 24.1167 27.9867 24.1C27.9367 24.0667 27.8867 24.0333 27.8367 24C27.8034 23.95 27.7701 23.9 27.7367 23.85C27.7034 23.8167 27.6701 23.8 27.6367 23.8C27.5367 23.8 27.4867 23.75 27.4867 23.65C27.4701 23.55 27.4534 23.45 27.4367 23.35C27.4201 23.25 27.4034 23.15 27.3867 23.05C27.3701 22.9 27.3534 22.75 27.3367 22.6C27.3367 22.45 27.3201 22.3083 27.2867 22.175V21.95C27.2867 21.8833 27.2784 21.825 27.2617 21.775C27.2617 21.725 27.2617 21.6667 27.2617 21.6C27.2284 21.5167 27.2284 21.45 27.2617 21.4C27.2951 21.1 27.2951 20.8 27.2617 20.5C27.2451 20.4167 27.2367 20.3333 27.2367 20.25C27.2367 20.1667 27.2284 20.0833 27.2117 20C27.2117 19.8333 27.2117 19.6667 27.2117 19.5C27.2117 19.3167 27.1951 19.1417 27.1617 18.975V18.575C27.1617 18.4417 27.1534 18.3167 27.1367 18.2C27.1367 18.0833 27.1284 17.9667 27.1117 17.85C27.0951 17.7 27.0784 17.55 27.0617 17.4C27.0617 17.25 27.0534 17.1 27.0367 16.95C27.0201 16.9167 27.0117 16.8583 27.0117 16.775C26.9951 16.6917 26.9784 16.6083 26.9617 16.525C26.9617 16.425 26.9617 16.3333 26.9617 16.25L26.8867 15C26.8701 14.8667 26.8534 14.7417 26.8367 14.625C26.8367 14.4917 26.8367 14.3667 26.8367 14.25C26.8201 14.05 26.8034 13.85 26.7867 13.65C26.7701 13.45 26.7534 13.2583 26.7367 13.075C26.7367 13.0417 26.7284 13.0083 26.7117 12.975C26.7117 12.9417 26.7117 12.9167 26.7117 12.9C26.7117 12.7 26.7034 12.5 26.6867 12.3C26.6701 12.1 26.6534 11.8917 26.6367 11.675L26.5617 10.975C26.5117 10.7083 26.5034 10.4167 26.5367 10.1C26.5367 9.95 26.5951 9.825 26.7117 9.725C26.7451 9.69167 26.7701 9.675 26.7867 9.675C26.8034 9.65833 26.8201 9.64167 26.8367 9.625C26.9201 9.60833 26.9617 9.55 26.9617 9.45C26.9617 9.41667 26.9951 9.4 27.0617 9.4H27.1867C27.2034 9.4 27.2117 9.4 27.2117 9.4C27.2284 9.38333 27.2451 9.375 27.2617 9.375C27.2951 9.35833 27.3201 9.34167 27.3367 9.325C27.3701 9.29167 27.3951 9.275 27.4117 9.275C27.4451 9.275 27.4784 9.28333 27.5117 9.3C27.5451 9.3 27.5784 9.30833 27.6117 9.325C27.6451 9.325 27.6701 9.31667 27.6867 9.3C27.7701 9.28333 27.8534 9.29167 27.9367 9.325C28.0367 9.34167 28.1201 9.36667 28.1867 9.4C28.2867 9.41667 28.3617 9.48333 28.4117 9.6C28.4617 9.75 28.5034 9.9 28.5367 10.05C28.5867 10.1833 28.6201 10.325 28.6367 10.475V10.675C28.6701 10.7917 28.6867 10.9167 28.6867 11.05C28.6867 11.1667 28.6867 11.2917 28.6867 11.425C28.6867 11.5417 28.6867 11.6583 28.6867 11.775C28.7034 11.875 28.7201 11.975 28.7367 12.075C28.7367 12.125 28.7367 12.175 28.7367 12.225C28.7367 12.275 28.7451 12.325 28.7617 12.375C28.7617 12.475 28.7617 12.575 28.7617 12.675C28.7784 12.775 28.7951 12.8833 28.8117 13C28.8284 13.1833 28.8451 13.375 28.8617 13.575C28.8784 13.775 28.8867 13.975 28.8867 14.175C28.8867 14.2583 28.8867 14.35 28.8867 14.45C28.8867 14.5333 28.8951 14.6167 28.9117 14.7C28.9284 14.75 28.9367 14.8 28.9367 14.85C28.9367 14.9 28.9367 14.95 28.9367 15V15.5C28.9367 15.6 28.9451 15.6833 28.9617 15.75C28.9951 15.8667 29.0034 15.9833 28.9867 16.1C28.9867 16.2 28.9951 16.3083 29.0117 16.425L29.0867 17.575C29.1034 17.7417 29.1117 17.9167 29.1117 18.1C29.1284 18.2667 29.1367 18.4417 29.1367 18.625C29.1367 18.6917 29.1367 18.7667 29.1367 18.85C29.1367 18.9167 29.1451 18.9833 29.1617 19.05C29.1784 19.1 29.1867 19.15 29.1867 19.2C29.1867 19.25 29.1867 19.3 29.1867 19.35C29.2034 19.3667 29.2034 19.4 29.1867 19.45C29.1867 19.4833 29.1951 19.5167 29.2117 19.55C29.2451 19.6667 29.2617 19.7833 29.2617 19.9C29.2617 20.0167 29.2617 20.1417 29.2617 20.275C29.2617 20.3417 29.2617 20.4167 29.2617 20.5C29.2784 20.5667 29.2867 20.6417 29.2867 20.725C29.3034 20.8083 29.3117 20.9 29.3117 21C29.3117 21.1 29.3117 21.1917 29.3117 21.275C29.3284 21.3583 29.3367 21.45 29.3367 21.55C29.3367 21.6333 29.3451 21.7167 29.3617 21.8C29.3784 21.8333 29.3867 21.8667 29.3867 21.9C29.3867 22.0833 29.4034 22.2667 29.4367 22.45C29.4701 22.6333 29.5034 22.8167 29.5367 23C29.5534 23.05 29.5617 23.1083 29.5617 23.175C29.5617 23.225 29.5617 23.275 29.5617 23.325C29.5617 23.375 29.5451 23.4167 29.5117 23.45C29.4451 23.5 29.3951 23.6 29.3617 23.75C29.3617 23.8 29.3367 23.8417 29.2867 23.875C29.1701 23.925 29.0701 23.9917 28.9867 24.075C28.8534 24.1917 28.6951 24.25 28.5117 24.25ZM37.9311 24.45C37.7644 24.4833 37.5977 24.4917 37.4311 24.475C37.2644 24.4583 37.0894 24.4333 36.9061 24.4H36.8311C36.4811 24.35 36.1894 24.2083 35.9561 23.975C35.9227 23.9417 35.8977 23.925 35.8811 23.925C35.8144 23.875 35.7561 23.8917 35.7061 23.975C35.6894 23.975 35.6811 23.9833 35.6811 24C35.5811 23.9 35.5061 23.7833 35.4561 23.65C35.3394 23.4 35.1977 23.2 35.0311 23.05C34.9644 23 34.9144 22.925 34.8811 22.825C34.8311 22.675 34.8061 22.5333 34.8061 22.4C34.8061 22.2667 34.7977 22.175 34.7811 22.125C34.7644 22.075 34.7477 22.025 34.7311 21.975C34.7311 21.925 34.7394 21.8667 34.7561 21.8C34.7894 21.6667 34.8144 21.525 34.8311 21.375C34.8477 21.225 34.8644 21.075 34.8811 20.925C34.9144 20.6917 34.9727 20.475 35.0561 20.275L35.3561 19.3C35.3894 19.2167 35.4311 19.1333 35.4811 19.05C35.5811 18.95 35.6561 18.8333 35.7061 18.7L36.0061 17.975C36.0394 17.9083 36.0144 17.875 35.9311 17.875H35.8811C35.6311 17.925 35.3811 17.975 35.1311 18.025C34.8811 18.0583 34.6311 18.1 34.3811 18.15C34.3144 18.1667 34.2394 18.1833 34.1561 18.2C34.0894 18.2167 34.0311 18.2583 33.9811 18.325C33.9477 18.3583 33.8977 18.3917 33.8311 18.425C33.7811 18.4417 33.7311 18.4667 33.6811 18.5L33.4811 18.575H33.3061C33.1061 18.6083 32.9227 18.575 32.7561 18.475C32.7227 18.4417 32.6811 18.425 32.6311 18.425C32.5144 18.4083 32.4144 18.3333 32.3311 18.2C32.3144 18.1667 32.2894 18.125 32.2561 18.075C32.2394 18.025 32.2144 17.9917 32.1811 17.975C32.1311 17.9083 32.0894 17.85 32.0561 17.8C32.0394 17.7333 32.0144 17.6667 31.9811 17.6C31.9644 17.4833 31.9644 17.375 31.9811 17.275C32.0144 17.225 32.0311 17.175 32.0311 17.125C32.0477 17.075 32.0644 17.025 32.0811 16.975C32.0977 16.825 32.1811 16.675 32.3311 16.525C32.4144 16.425 32.5144 16.35 32.6311 16.3C32.6811 16.3 32.7394 16.2833 32.8061 16.25C32.8894 16.1833 32.9811 16.1417 33.0811 16.125C33.1977 16.0917 33.3061 16.0667 33.4061 16.05C33.5394 16.0167 33.6727 15.9917 33.8061 15.975C33.9394 15.9583 34.0727 15.9417 34.2061 15.925L34.4061 15.875C34.6727 15.7917 34.9311 15.7333 35.1811 15.7C35.4477 15.65 35.7061 15.5917 35.9561 15.525L36.2811 15.45C36.4144 15.4333 36.5477 15.4083 36.6811 15.375C36.8311 15.325 36.9727 15.2833 37.1061 15.25C37.1394 15.25 37.2061 15.2333 37.3061 15.2C37.4061 15.15 37.4811 15.0833 37.5311 15L37.9811 14.1C37.9977 14.0667 38.0227 14 38.0561 13.9C38.0727 13.8167 38.0977 13.7333 38.1311 13.65C38.1811 13.55 38.2227 13.4583 38.2561 13.375L38.7311 12.4C38.8144 12.2333 38.8977 12.075 38.9811 11.925C39.0644 11.7583 39.1477 11.5917 39.2311 11.425C39.2644 11.3583 39.2977 11.3 39.3311 11.25C39.3644 11.2 39.3894 11.1417 39.4061 11.075C39.4061 11.075 39.4061 11.0417 39.4061 10.975C39.4061 10.9083 39.3644 10.9 39.2811 10.95L38.8811 11.025C38.4144 11.1583 37.9561 11.2917 37.5061 11.425C37.0561 11.5583 36.6144 11.7167 36.1811 11.9L35.4311 12.2C35.2477 12.2833 35.0811 12.35 34.9311 12.4C34.8144 12.4333 34.6894 12.475 34.5561 12.525C34.4394 12.575 34.3227 12.6417 34.2061 12.725C34.0561 12.825 33.8977 12.8833 33.7311 12.9C33.5811 12.9 33.4227 12.8833 33.2561 12.85C33.2061 12.85 33.1477 12.8333 33.0811 12.8C32.9477 12.7833 32.8311 12.7083 32.7311 12.575L32.5061 12.3C32.3727 12.15 32.2977 11.9667 32.2811 11.75C32.2477 11.5667 32.2311 11.45 32.2311 11.4C32.2477 11.35 32.2977 11.25 32.3811 11.1C32.4644 10.9167 32.5144 10.8083 32.5311 10.775C32.5644 10.7417 32.6727 10.675 32.8561 10.575C33.0561 10.4583 33.2227 10.3833 33.3561 10.35C33.5727 10.2833 33.7811 10.2167 33.9811 10.15C34.1977 10.0833 34.4144 10.0167 34.6311 9.95L35.9561 9.5C36.0561 9.46667 36.1561 9.43333 36.2561 9.4C36.3727 9.36667 36.4811 9.33333 36.5811 9.3L38.3061 8.775C38.4894 8.725 38.6811 8.68333 38.8811 8.65C39.0811 8.6 39.2727 8.55 39.4561 8.5C39.5227 8.48333 39.5811 8.475 39.6311 8.475C39.6811 8.45833 39.7311 8.45 39.7811 8.45C39.9811 8.4 40.1894 8.375 40.4061 8.375L41.2061 8.3C41.2894 8.28333 41.3561 8.275 41.4061 8.275C41.4727 8.275 41.5394 8.29167 41.6061 8.325C41.6227 8.34167 41.6394 8.35 41.6561 8.35C41.6894 8.35 41.7144 8.35833 41.7311 8.375C41.7811 8.39167 41.8311 8.40833 41.8811 8.425C41.9477 8.425 42.0061 8.44167 42.0561 8.475C42.1061 8.49167 42.1477 8.525 42.1811 8.575C42.2144 8.625 42.2477 8.66667 42.2811 8.7C42.4977 8.95 42.6061 9.21667 42.6061 9.5C42.6394 9.68333 42.6144 9.85 42.5311 10L42.1811 10.8C42.1144 10.95 42.0311 11.1 41.9311 11.25C41.8477 11.4 41.7644 11.5417 41.6811 11.675C41.6644 11.725 41.6394 11.775 41.6061 11.825C41.5727 11.875 41.5394 11.9333 41.5061 12C41.2061 12.6167 40.8811 13.2417 40.5311 13.875C40.5144 13.9083 40.4894 13.95 40.4561 14C40.4227 14.05 40.4061 14.1 40.4061 14.15C40.4061 14.2167 40.4394 14.25 40.5061 14.25C40.6394 14.2167 40.7561 14.1833 40.8561 14.15C41.0227 14.1 41.1811 14.0417 41.3311 13.975C41.4811 13.9083 41.6394 13.85 41.8061 13.8C41.8894 13.7667 41.9644 13.7417 42.0311 13.725C42.1144 13.7083 42.1894 13.6917 42.2561 13.675C42.3061 13.6583 42.3561 13.6417 42.4061 13.625C42.4561 13.6083 42.5061 13.5917 42.5561 13.575C42.8394 13.4583 43.1311 13.35 43.4311 13.25C43.7477 13.15 44.0561 13.05 44.3561 12.95C44.4394 12.9167 44.5144 12.9 44.5811 12.9C44.6644 12.8833 44.7394 12.8667 44.8061 12.85C44.8894 12.8333 44.9727 12.8083 45.0561 12.775C45.1561 12.7417 45.2477 12.7167 45.3311 12.7C45.4144 12.6833 45.4811 12.6583 45.5311 12.625C45.5977 12.575 45.6561 12.5333 45.7061 12.5C45.7561 12.45 45.8061 12.4083 45.8561 12.375C45.9227 12.325 45.9894 12.2833 46.0561 12.25C46.0894 12.2333 46.1394 12.225 46.2061 12.225H46.3561C46.4394 12.175 46.5227 12.1583 46.6061 12.175C46.7061 12.1917 46.7894 12.2167 46.8561 12.25C47.0561 12.3167 47.2311 12.4167 47.3811 12.55C47.4811 12.65 47.5561 12.7583 47.6061 12.875L47.6311 12.9C47.6477 12.9667 47.6727 13.025 47.7061 13.075C47.7561 13.125 47.7727 13.1833 47.7561 13.25C47.7394 13.3667 47.7227 13.4917 47.7061 13.625C47.6894 13.7417 47.6477 13.8583 47.5811 13.975C47.5811 14.0083 47.5561 14.0417 47.5061 14.075C47.4561 14.125 47.4061 14.175 47.3561 14.225C47.3227 14.2583 47.2894 14.3083 47.2561 14.375C47.2394 14.425 47.2061 14.4583 47.1561 14.475L46.9311 14.55C46.5811 14.65 46.2311 14.7583 45.8811 14.875C45.5311 14.9917 45.1811 15.1 44.8311 15.2C44.5977 15.2667 44.3644 15.3333 44.1311 15.4C43.8977 15.4667 43.6644 15.5333 43.4311 15.6C43.1144 15.7 42.7894 15.8083 42.4561 15.925C42.1394 16.025 41.8144 16.125 41.4811 16.225C41.1311 16.325 40.7811 16.4333 40.4311 16.55C40.0811 16.65 39.7227 16.7583 39.3561 16.875C39.3227 16.8917 39.2811 16.9083 39.2311 16.925C39.1811 16.9417 39.1311 16.9583 39.0811 16.975C38.9144 17.025 38.7977 17.125 38.7311 17.275C38.6644 17.3917 38.5977 17.5083 38.5311 17.625C38.4644 17.7417 38.3894 17.85 38.3061 17.95C38.2894 18 38.2644 18.05 38.2311 18.1C38.2144 18.15 38.1977 18.2083 38.1811 18.275C38.1644 18.3417 38.1394 18.4083 38.1061 18.475C38.0894 18.525 38.0644 18.5833 38.0311 18.65C37.9811 18.7167 37.9477 18.7833 37.9311 18.85C37.8477 19.05 37.7394 19.2333 37.6061 19.4C37.5227 19.5167 37.4811 19.6333 37.4811 19.75C37.4811 19.85 37.4477 19.95 37.3811 20.05C37.3477 20.1167 37.3227 20.1917 37.3061 20.275C37.2894 20.3417 37.2644 20.4167 37.2311 20.5C37.2144 20.6333 37.1727 20.775 37.1061 20.925C37.0561 21.0917 37.0311 21.2583 37.0311 21.425C37.0311 21.5917 37.0394 21.7667 37.0561 21.95C37.0561 22.0667 37.1144 22.1417 37.2311 22.175C37.3311 22.2083 37.4061 22.225 37.4561 22.225C37.5394 22.225 37.6227 22.225 37.7061 22.225C37.7894 22.225 37.8644 22.2167 37.9311 22.2C38.0311 22.2 38.1311 22.1917 38.2311 22.175C38.3311 22.1417 38.4311 22.1167 38.5311 22.1C38.7644 22.05 38.9894 22 39.2061 21.95C39.4227 21.8833 39.6394 21.8167 39.8561 21.75L40.1311 21.675C40.3477 21.625 40.5561 21.5667 40.7561 21.5C40.9727 21.4333 41.1811 21.3667 41.3811 21.3C41.5144 21.25 41.6561 21.2 41.8061 21.15C41.9561 21.1 42.0977 21.0667 42.2311 21.05C42.3144 21.05 42.4061 21.0333 42.5061 21C42.6561 20.9167 42.8144 20.8667 42.9811 20.85C43.0477 20.85 43.1144 20.8333 43.1811 20.8C43.4144 20.7 43.6477 20.6167 43.8811 20.55C44.1144 20.4833 44.3394 20.4167 44.5561 20.35C44.6394 20.3333 44.7227 20.3167 44.8061 20.3C44.9061 20.2667 44.9977 20.2417 45.0811 20.225C45.2144 20.1917 45.3311 20.1583 45.4311 20.125C45.5477 20.075 45.6644 20.025 45.7811 19.975C45.7977 19.9583 45.8227 19.95 45.8561 19.95H46.2561C46.3394 19.95 46.4061 19.9667 46.4561 20C46.5227 20.0167 46.5894 20.0417 46.6561 20.075C46.7727 20.1083 46.8561 20.1667 46.9061 20.25L46.9811 20.375C47.1477 20.525 47.2311 20.725 47.2311 20.975V21.15C47.2311 21.2 47.2311 21.225 47.2311 21.225C47.2144 21.2917 47.1894 21.375 47.1561 21.475C47.1227 21.5583 47.0894 21.6417 47.0561 21.725C46.9894 21.825 46.8894 21.9167 46.7561 22C46.6561 22.0333 46.5561 22.0667 46.4561 22.1C46.3727 22.1333 46.2811 22.1667 46.1811 22.2C45.9977 22.2333 45.8061 22.275 45.6061 22.325C45.4061 22.375 45.2144 22.425 45.0311 22.475C44.9977 22.475 44.9727 22.4833 44.9561 22.5C44.6894 22.6 44.4227 22.6833 44.1561 22.75C43.9061 22.8167 43.6394 22.8917 43.3561 22.975L43.1561 23.05C42.8394 23.1667 42.5227 23.275 42.2061 23.375C41.9061 23.475 41.5894 23.575 41.2561 23.675L39.7561 24.125C39.6894 24.1417 39.6144 24.1583 39.5311 24.175C39.4477 24.2083 39.3644 24.225 39.2811 24.225L39.0811 24.275C38.9144 24.3083 38.7394 24.3417 38.5561 24.375C38.3727 24.4083 38.1894 24.4333 38.0061 24.45H37.9311ZM63.1137 27.425C63.0303 27.4583 62.9637 27.45 62.9137 27.4C62.7303 27.3167 62.6137 27.175 62.5637 26.975V26.925C62.547 26.775 62.5303 26.625 62.5137 26.475C62.497 26.325 62.4803 26.1833 62.4637 26.05C62.4637 26.0167 62.4553 25.975 62.4387 25.925C62.4387 25.8917 62.4387 25.8583 62.4387 25.825C62.422 25.775 62.4137 25.725 62.4137 25.675C62.4137 25.625 62.4137 25.575 62.4137 25.525C62.4137 25.3917 62.397 25.275 62.3637 25.175C62.3303 25.075 62.297 24.975 62.2637 24.875C62.2303 24.8083 62.197 24.7667 62.1637 24.75C62.097 24.6667 62.047 24.575 62.0137 24.475C61.9803 24.3917 61.9387 24.3 61.8887 24.2V24.175C61.8053 23.9417 61.7553 23.7917 61.7387 23.725C61.722 23.6417 61.7137 23.4833 61.7137 23.25V22.925C61.7137 22.7583 61.7637 22.625 61.8637 22.525C61.8803 22.4917 61.897 22.4583 61.9137 22.425C61.947 22.3917 61.972 22.3583 61.9887 22.325C62.022 22.225 62.022 22.15 61.9887 22.1C61.922 21.9667 61.872 21.8333 61.8387 21.7C61.8053 21.55 61.772 21.4 61.7387 21.25V20.975C61.7553 20.875 61.7637 20.7833 61.7637 20.7C61.7803 20.6 61.797 20.5 61.8137 20.4C61.847 20.25 61.847 20.0833 61.8137 19.9C61.7803 19.8 61.7637 19.725 61.7637 19.675C61.747 19.625 61.7303 19.575 61.7137 19.525C61.7137 19.475 61.7137 19.425 61.7137 19.375C61.7137 19.175 61.6887 18.9917 61.6387 18.825C61.6053 18.725 61.5887 18.6417 61.5887 18.575C61.5887 18.3083 61.572 18.05 61.5387 17.8C61.5053 17.5333 61.472 17.2667 61.4387 17C61.4387 16.9667 61.4303 16.95 61.4137 16.95C61.4137 16.9333 61.4137 16.9167 61.4137 16.9C61.4137 16.7667 61.397 16.6333 61.3637 16.5C61.3303 16.35 61.297 16.2167 61.2637 16.1C61.247 16.0667 61.2387 16.025 61.2387 15.975C61.2387 15.925 61.2303 15.8833 61.2137 15.85C61.197 15.7333 61.1803 15.625 61.1637 15.525C61.1637 15.425 61.147 15.3167 61.1137 15.2V15.1C61.097 14.9167 61.0637 14.7417 61.0137 14.575C60.9803 14.4083 60.947 14.2417 60.9137 14.075C60.9137 14.0083 60.9053 13.9417 60.8887 13.875C60.8887 13.8083 60.8803 13.7417 60.8637 13.675L60.7887 13.4C60.772 13.3333 60.7553 13.2667 60.7387 13.2C60.7387 13.1167 60.7303 13.0417 60.7137 12.975C60.697 12.8583 60.6887 12.75 60.6887 12.65C60.6887 12.5333 60.6803 12.4167 60.6637 12.3C60.647 12.1833 60.6303 12.075 60.6137 11.975C60.6137 11.875 60.597 11.775 60.5637 11.675C60.547 11.5417 60.5303 11.4083 60.5137 11.275C60.5137 11.125 60.497 10.9833 60.4637 10.85C60.4137 10.5833 60.3137 10.3417 60.1637 10.125C59.847 9.65833 59.7137 9.13333 59.7637 8.55C59.797 8.36667 59.872 8.2 59.9887 8.05C60.0053 8.01667 60.047 7.96667 60.1137 7.9C60.2303 7.75 60.3637 7.64167 60.5137 7.575C60.6803 7.49167 60.8553 7.44167 61.0387 7.425C61.322 7.375 61.5803 7.3 61.8137 7.2C62.2637 7.06667 62.7137 6.96667 63.1637 6.9C63.4637 6.85 63.7637 6.825 64.0637 6.825H64.3137C64.447 6.79167 64.5803 6.775 64.7137 6.775C64.8637 6.775 65.0053 6.775 65.1387 6.775H65.3637C65.4637 6.775 65.547 6.74167 65.6137 6.675L65.9137 6.5C65.9637 6.46667 66.0137 6.46667 66.0637 6.5C66.1137 6.53333 66.1637 6.55833 66.2137 6.575C66.2803 6.59167 66.3387 6.61667 66.3887 6.65C66.472 6.68333 66.547 6.71667 66.6137 6.75C66.6803 6.78333 66.747 6.81667 66.8137 6.85C66.847 6.88333 66.8887 6.90833 66.9387 6.925C66.9887 6.94167 67.0387 6.95833 67.0887 6.975L67.5637 7.075C67.697 7.09167 67.8137 7.125 67.9137 7.175C68.0303 7.20833 68.147 7.25 68.2637 7.3C68.397 7.35 68.5137 7.425 68.6137 7.525C68.7137 7.60833 68.8137 7.70833 68.9137 7.825C69.147 8.04167 69.297 8.31667 69.3637 8.65C69.3803 8.78333 69.422 8.94167 69.4887 9.125C69.522 9.24167 69.5387 9.35833 69.5387 9.475C69.5387 9.59167 69.547 9.71667 69.5637 9.85C69.5637 9.85 69.5637 9.89167 69.5637 9.975C69.547 10.1583 69.522 10.35 69.4887 10.55C69.4553 10.7333 69.4137 10.9167 69.3637 11.1C69.3137 11.2667 69.2553 11.4417 69.1887 11.625C69.1387 11.8083 69.072 11.9833 68.9887 12.15C68.8887 12.4 68.747 12.6417 68.5637 12.875C68.447 13.025 68.3303 13.1833 68.2137 13.35C68.1137 13.5 67.997 13.65 67.8637 13.8C67.797 13.8667 67.7303 13.9417 67.6637 14.025C67.597 14.0917 67.5303 14.1583 67.4637 14.225L67.1637 14.525V14.575C67.1637 14.6083 67.1803 14.625 67.2137 14.625H67.5887C67.822 14.6417 68.0553 14.675 68.2887 14.725C68.522 14.7583 68.747 14.8083 68.9637 14.875C69.0137 14.8917 69.0553 14.9083 69.0887 14.925C69.1387 14.9417 69.1887 14.9667 69.2387 15L69.5387 15.175C69.6387 15.2417 69.7303 15.3083 69.8137 15.375C69.897 15.4417 69.9553 15.5417 69.9887 15.675C70.022 15.7583 70.0637 15.8417 70.1137 15.925C70.197 16.075 70.272 16.2333 70.3387 16.4C70.4053 16.55 70.472 16.7083 70.5387 16.875C70.572 16.9417 70.597 17.0083 70.6137 17.075C70.647 17.125 70.672 17.1833 70.6887 17.25C70.772 17.4833 70.8553 17.7167 70.9387 17.95C71.022 18.1833 71.0887 18.425 71.1387 18.675L71.2137 19.3C71.247 19.4 71.247 19.5083 71.2137 19.625C71.197 19.725 71.1803 19.825 71.1637 19.925C71.147 20.0083 71.1303 20.1 71.1137 20.2C71.0637 20.4167 70.9887 20.625 70.8887 20.825C70.8387 20.925 70.772 21.0167 70.6887 21.1C70.472 21.3667 70.247 21.575 70.0137 21.725C69.897 21.7917 69.7803 21.8667 69.6637 21.95C69.5637 22.0333 69.447 22.1167 69.3137 22.2C69.0637 22.35 68.7803 22.5083 68.4637 22.675C68.3803 22.7083 68.2887 22.75 68.1887 22.8C68.1053 22.85 68.022 22.8917 67.9387 22.925C67.672 23.0417 67.4137 23.1583 67.1637 23.275C66.9137 23.3917 66.6637 23.5 66.4137 23.6C66.147 23.7 65.8887 23.8 65.6387 23.9C65.3887 24 65.122 24.0917 64.8387 24.175C64.772 24.1917 64.7053 24.2083 64.6387 24.225C64.5887 24.2417 64.5303 24.2583 64.4637 24.275C64.1637 24.325 63.922 24.4833 63.7387 24.75C63.672 24.8167 63.6387 24.9 63.6387 25C63.622 25.0667 63.6053 25.125 63.5887 25.175C63.5887 25.2417 63.5887 25.3083 63.5887 25.375C63.572 25.425 63.5637 25.4917 63.5637 25.575V26.45C63.5637 26.5333 63.5637 26.6167 63.5637 26.7C63.5637 26.8 63.547 26.8917 63.5137 26.975C63.4803 27.1583 63.347 27.3083 63.1137 27.425ZM63.6887 14.3C63.7053 14.3167 63.7137 14.325 63.7137 14.325C63.7137 14.3083 63.722 14.3 63.7387 14.3C63.7553 14.2833 63.7637 14.275 63.7637 14.275C63.7803 14.275 63.7887 14.275 63.7887 14.275C63.872 14.2917 63.9553 14.275 64.0387 14.225C64.122 14.1583 64.2053 14.1 64.2887 14.05C64.3887 13.9833 64.4887 13.9167 64.5887 13.85C64.7387 13.75 64.8803 13.6417 65.0137 13.525C65.1637 13.3917 65.3053 13.2583 65.4387 13.125C65.6387 12.9083 65.8303 12.6917 66.0137 12.475C66.197 12.2417 66.3637 12 66.5137 11.75C66.597 11.6 66.6803 11.4583 66.7637 11.325C66.847 11.175 66.922 11.0167 66.9887 10.85C67.072 10.6333 67.1303 10.3833 67.1637 10.1C67.197 9.93333 67.1887 9.78333 67.1387 9.65C67.0887 9.51667 67.0137 9.425 66.9137 9.375C66.6137 9.24167 66.3303 9.175 66.0637 9.175C65.897 9.175 65.7387 9.175 65.5887 9.175C65.4387 9.175 65.2887 9.18333 65.1387 9.2C65.0053 9.21667 64.872 9.23333 64.7387 9.25C64.6053 9.26667 64.472 9.29167 64.3387 9.325C64.222 9.35833 64.097 9.4 63.9637 9.45C63.847 9.48333 63.722 9.51667 63.5887 9.55C63.4053 9.6 63.2887 9.70833 63.2387 9.875C63.2053 9.925 63.1887 10 63.1887 10.1V10.5C63.172 10.6667 63.172 10.8333 63.1887 11C63.2053 11.1667 63.222 11.3333 63.2387 11.5L63.2637 11.525C63.247 11.6417 63.247 11.7583 63.2637 11.875C63.297 11.9917 63.322 12.1167 63.3387 12.25C63.3387 12.3 63.3637 12.3417 63.4137 12.375C63.4803 12.4083 63.4887 12.475 63.4387 12.575C63.4387 12.575 63.4303 12.5833 63.4137 12.6C63.4137 12.6 63.422 12.6083 63.4387 12.625C63.472 12.6417 63.4803 12.675 63.4637 12.725C63.447 12.7583 63.4387 12.7917 63.4387 12.825C63.4387 12.9583 63.447 13.05 63.4637 13.1C63.4803 13.1333 63.4887 13.175 63.4887 13.225C63.4887 13.2917 63.497 13.3667 63.5137 13.45C63.5303 13.5167 63.547 13.5833 63.5637 13.65C63.5637 13.6833 63.5803 13.6917 63.6137 13.675C63.6303 13.6583 63.6553 13.65 63.6887 13.65C63.7053 13.65 63.7137 13.675 63.7137 13.725V13.8C63.6303 13.9167 63.6137 14.0417 63.6637 14.175V14.275C63.6803 14.275 63.6887 14.2833 63.6887 14.3ZM64.1387 21.925C64.1887 21.925 64.2387 21.925 64.2887 21.925C64.3387 21.925 64.397 21.9167 64.4637 21.9C64.7637 21.85 65.0803 21.7583 65.4137 21.625L66.3887 21.175C66.6553 21.0417 66.9137 20.9167 67.1637 20.8C67.4137 20.6667 67.672 20.5417 67.9387 20.425C68.222 20.275 68.4803 20.075 68.7137 19.825C68.8637 19.675 68.9387 19.4917 68.9387 19.275V19.15C68.922 19.1167 68.9137 19.0917 68.9137 19.075C68.9137 19.0417 68.9053 19.0083 68.8887 18.975C68.8387 18.7083 68.7637 18.4583 68.6637 18.225C68.5803 17.975 68.4887 17.725 68.3887 17.475C68.372 17.4083 68.347 17.35 68.3137 17.3C68.2803 17.2333 68.247 17.1667 68.2137 17.1C68.1637 17 68.097 16.9417 68.0137 16.925C67.8637 16.875 67.722 16.85 67.5887 16.85H67.1887C66.7387 16.8333 66.2803 16.8583 65.8137 16.925C65.347 16.9917 64.872 17.0917 64.3887 17.225L64.2137 17.3C64.197 17.3167 64.1803 17.325 64.1637 17.325C64.1637 17.325 64.1553 17.3333 64.1387 17.35C64.0887 17.4 64.0803 17.45 64.1137 17.5L64.1637 17.55C64.2137 17.6 64.222 17.65 64.1887 17.7C64.1553 17.75 64.1387 17.8167 64.1387 17.9C64.1387 17.9667 64.1387 18.0333 64.1387 18.1C64.1387 18.15 64.147 18.2083 64.1637 18.275C64.1803 18.3417 64.1887 18.4083 64.1887 18.475C64.1887 18.5417 64.1887 18.6083 64.1887 18.675V18.975C64.1887 19.1417 64.222 19.2667 64.2887 19.35C64.322 19.4167 64.3387 19.4833 64.3387 19.55C64.3553 19.6167 64.3637 19.6833 64.3637 19.75C64.3637 19.8333 64.3387 19.925 64.2887 20.025C64.2387 20.1083 64.2303 20.2083 64.2637 20.325C64.2803 20.3583 64.3053 20.3917 64.3387 20.425C64.372 20.5417 64.3553 20.6333 64.2887 20.7C64.2387 20.7833 64.222 20.8583 64.2387 20.925C64.2387 21.025 64.2303 21.1 64.2137 21.15C64.197 21.1833 64.172 21.225 64.1387 21.275C64.122 21.325 64.0887 21.3667 64.0387 21.4C63.9553 21.4667 63.897 21.5667 63.8637 21.7C63.8303 21.7667 63.8137 21.825 63.8137 21.875C63.8137 21.9083 63.872 21.9167 63.9887 21.9C64.022 21.9 64.047 21.9083 64.0637 21.925C64.097 21.925 64.122 21.925 64.1387 21.925ZM78.9803 24.5C78.8136 24.4833 78.6469 24.4583 78.4803 24.425C78.3303 24.4083 78.1803 24.3667 78.0303 24.3L77.4053 24.075C77.1886 23.9917 76.9886 23.9 76.8053 23.8C76.6219 23.6833 76.4386 23.5667 76.2553 23.45C76.1719 23.3667 76.0886 23.2917 76.0053 23.225C75.9219 23.1417 75.8386 23.0667 75.7553 23C75.6219 22.8667 75.4886 22.7333 75.3553 22.6C75.2219 22.45 75.0969 22.2917 74.9803 22.125L74.3803 21.2C74.2303 20.9667 74.0969 20.725 73.9803 20.475C73.8636 20.2083 73.7636 19.9417 73.6803 19.675C73.4969 19.175 73.4053 18.6833 73.4053 18.2V17.8C73.4053 17.3833 73.4303 16.975 73.4803 16.575C73.5136 16.2417 73.5886 15.9417 73.7053 15.675C73.7719 15.5083 73.8303 15.3417 73.8803 15.175C73.9303 15.0083 73.9886 14.85 74.0553 14.7L74.1303 14.525C74.1636 14.3083 74.2386 14.1167 74.3553 13.95C74.4719 13.7667 74.5719 13.5917 74.6553 13.425C74.7219 13.2917 74.7969 13.175 74.8803 13.075C74.9636 12.9583 75.0386 12.8417 75.1053 12.725C75.1386 12.675 75.1803 12.6333 75.2303 12.6C75.2803 12.55 75.3219 12.5 75.3553 12.45C75.3886 12.4167 75.4136 12.375 75.4303 12.325C75.4636 12.2583 75.4886 12.2 75.5053 12.15C75.5386 12.1 75.5969 12.0333 75.6803 11.95C75.7803 11.9 75.8719 11.7833 75.9553 11.6C75.9886 11.5333 76.0219 11.4833 76.0553 11.45C76.1553 11.3667 76.2386 11.2667 76.3053 11.15C76.3886 11.0333 76.4803 10.925 76.5803 10.825C76.6469 10.7583 76.6803 10.6667 76.6803 10.55C76.6803 10.4667 76.6803 10.3917 76.6803 10.325C76.6969 10.2417 76.6969 10.1667 76.6803 10.1C76.6636 10.0167 76.6886 9.94167 76.7553 9.875C76.7886 9.84167 76.8136 9.8 76.8303 9.75C76.8469 9.7 76.8636 9.65 76.8803 9.6C76.9303 9.43333 77.0636 9.29167 77.2803 9.175C77.3136 9.14167 77.3553 9.125 77.4053 9.125C77.4719 9.10833 77.5303 9.09167 77.5803 9.075C77.6969 9.025 77.8303 9.01667 77.9803 9.05C78.0469 9.06667 78.1053 9.075 78.1553 9.075C78.2053 9.05833 78.2553 9.04167 78.3053 9.025C78.3719 8.99167 78.4303 8.96667 78.4803 8.95C78.5469 8.93333 78.6053 8.91667 78.6553 8.9C78.8886 8.81667 79.1303 8.825 79.3803 8.925C79.6469 9.025 79.8386 9.2 79.9553 9.45C79.9886 9.53333 80.0219 9.61667 80.0553 9.7C80.0886 9.78333 80.1136 9.86667 80.1303 9.95C80.1636 10.1333 80.1553 10.2917 80.1053 10.425C80.0719 10.4917 80.0553 10.5333 80.0553 10.55C80.0386 10.6167 80.0553 10.675 80.1053 10.725C80.1386 10.775 80.1803 10.8167 80.2303 10.85C80.4136 11.0167 80.5886 11.1833 80.7553 11.35C80.9219 11.5 81.0803 11.6667 81.2303 11.85C81.3636 11.9833 81.4719 12.125 81.5553 12.275C81.6553 12.4083 81.7469 12.5583 81.8303 12.725C81.8636 12.8083 81.9053 12.9 81.9553 13C82.0053 13.0833 82.0553 13.1667 82.1053 13.25C82.1886 13.4 82.2553 13.5583 82.3053 13.725C82.3719 13.8917 82.4386 14.0583 82.5053 14.225V14.25C82.5386 14.3667 82.5636 14.4917 82.5803 14.625C82.6136 14.7417 82.6636 14.8667 82.7303 15C82.7803 15.1167 82.8219 15.2417 82.8553 15.375C82.8886 15.4917 82.9219 15.6167 82.9553 15.75C82.9886 15.9 83.0219 16.05 83.0553 16.2C83.1053 16.35 83.1386 16.5 83.1553 16.65C83.1719 16.7167 83.1886 16.7833 83.2053 16.85C83.2219 16.9 83.2386 16.9583 83.2553 17.025C83.2886 17.175 83.3219 17.325 83.3553 17.475C83.3886 17.625 83.4136 17.775 83.4303 17.925L83.5053 18.1C83.5386 18.2 83.5719 18.3333 83.6053 18.5C83.6553 18.7167 83.6803 18.9333 83.6803 19.15C83.6969 19.3667 83.6969 19.5917 83.6803 19.825C83.6803 19.9417 83.6719 20.0333 83.6553 20.1C83.5553 20.45 83.4303 20.8083 83.2803 21.175C83.2136 21.2917 83.1469 21.4083 83.0803 21.525C83.0136 21.625 82.9469 21.7333 82.8803 21.85L82.6553 22.2C82.5719 22.35 82.4803 22.4833 82.3803 22.6C82.2136 22.8667 82.0136 23.1 81.7803 23.3C81.5469 23.5 81.2969 23.6917 81.0303 23.875C80.4469 24.325 79.7636 24.5333 78.9803 24.5ZM78.8803 22.025C79.2303 22.025 79.5303 21.925 79.7803 21.725C79.8636 21.6417 79.9469 21.5667 80.0303 21.5C80.1303 21.4167 80.2136 21.3333 80.2803 21.25C80.5969 20.9 80.8469 20.5333 81.0303 20.15L81.1053 19.9C81.1386 19.6 81.1386 19.3 81.1053 19L80.9553 18.175C80.9053 17.9583 80.8636 17.75 80.8303 17.55C80.7969 17.3333 80.7469 17.125 80.6803 16.925C80.6303 16.8083 80.6136 16.7167 80.6303 16.65C80.6469 16.5667 80.6469 16.4833 80.6303 16.4C80.6136 16.3167 80.5886 16.2333 80.5553 16.15C80.5053 15.9333 80.4469 15.7167 80.3803 15.5C80.3136 15.2833 80.2469 15.0667 80.1803 14.85C80.1636 14.8 80.1469 14.75 80.1303 14.7C80.1136 14.65 80.0969 14.6 80.0803 14.55C79.9636 14.3167 79.8386 14.0917 79.7053 13.875C79.5719 13.6583 79.4219 13.4583 79.2553 13.275C79.1719 13.175 79.0803 13.0833 78.9803 13C78.8803 12.9 78.7803 12.8083 78.6803 12.725C78.6636 12.6917 78.6386 12.675 78.6053 12.675C78.5886 12.6583 78.5636 12.6417 78.5303 12.625C78.4803 12.5583 78.4136 12.5667 78.3303 12.65C78.2469 12.7333 78.1553 12.825 78.0553 12.925C77.9719 13.025 77.8886 13.125 77.8053 13.225C77.7219 13.3417 77.6303 13.4583 77.5303 13.575C77.4469 13.6917 77.3636 13.8083 77.2803 13.925C77.1636 14.075 77.0553 14.225 76.9553 14.375C76.8553 14.525 76.7553 14.675 76.6553 14.825C76.3053 15.3917 76.0303 16.0167 75.8303 16.7C75.7969 16.8 75.7803 16.875 75.7803 16.925C75.7636 17.0417 75.7469 17.1583 75.7303 17.275C75.7303 17.3917 75.7303 17.5167 75.7303 17.65V17.85C75.7469 17.9 75.7553 17.95 75.7553 18C75.7553 18.05 75.7636 18.1 75.7803 18.15C75.7803 18.35 75.8303 18.5667 75.9303 18.8C76.0636 19.1333 76.2136 19.4583 76.3803 19.775C76.5469 20.0917 76.7386 20.3917 76.9553 20.675C77.0053 20.7417 77.0553 20.8083 77.1053 20.875C77.1719 20.9417 77.2303 21.0083 77.2803 21.075C77.4303 21.2417 77.5886 21.3917 77.7553 21.525C77.9386 21.6583 78.1219 21.775 78.3053 21.875C78.5053 21.975 78.6969 22.025 78.8803 22.025ZM95.0535 24.225C95.0035 24.2083 94.9452 24.1917 94.8785 24.175C94.8285 24.1583 94.7785 24.1417 94.7285 24.125C94.5952 24.075 94.4618 24.0083 94.3285 23.925C94.2618 23.8917 94.2118 23.8417 94.1785 23.775C94.0618 23.5917 93.9535 23.425 93.8535 23.275C93.7535 23.1083 93.6452 22.9417 93.5285 22.775L93.3035 22.375C93.1868 22.1417 93.0702 21.9167 92.9535 21.7C92.8368 21.4667 92.7202 21.2417 92.6035 21.025C92.5702 20.9417 92.5285 20.875 92.4785 20.825C92.4452 20.7583 92.4118 20.6917 92.3785 20.625C92.2618 20.4417 92.1535 20.2583 92.0535 20.075C91.9535 19.875 91.8535 19.6833 91.7535 19.5L91.1285 18.275C90.9618 17.9417 90.7952 17.6167 90.6285 17.3C90.4618 16.9667 90.2952 16.6333 90.1285 16.3C90.0952 16.2667 90.0618 16.2167 90.0285 16.15C89.9618 15.9667 89.8785 15.7917 89.7785 15.625C89.6952 15.4583 89.6118 15.2917 89.5285 15.125C89.4618 15.0083 89.4035 14.8917 89.3535 14.775C89.3035 14.6417 89.2452 14.5167 89.1785 14.4L88.9035 13.9C88.8702 13.9 88.8452 13.8917 88.8285 13.875C88.8285 13.875 88.8202 13.8833 88.8035 13.9C88.8035 13.9 88.8035 13.9083 88.8035 13.925C88.7868 14.1417 88.7702 14.3667 88.7535 14.6C88.7368 14.8333 88.7368 15.0667 88.7535 15.3C88.7868 15.4 88.7868 15.5083 88.7535 15.625C88.7202 15.925 88.7285 16.1917 88.7785 16.425C88.7952 16.4917 88.7952 16.5583 88.7785 16.625C88.7785 16.6917 88.7702 16.7667 88.7535 16.85C88.7368 16.9667 88.7285 17.075 88.7285 17.175C88.7285 17.275 88.7202 17.3833 88.7035 17.5C88.7368 17.5667 88.7535 17.6417 88.7535 17.725C88.7535 17.7917 88.7452 17.8583 88.7285 17.925C88.6785 18.0917 88.6785 18.2667 88.7285 18.45C88.7618 18.5 88.7618 18.55 88.7285 18.6C88.6618 18.75 88.6452 18.9333 88.6785 19.15C88.7285 19.4333 88.7118 19.7417 88.6285 20.075C88.6118 20.1083 88.6035 20.1667 88.6035 20.25C88.5868 20.3167 88.6035 20.375 88.6535 20.425C88.7202 20.4583 88.7368 20.5 88.7035 20.55C88.6868 20.7667 88.6868 20.9917 88.7035 21.225C88.7035 21.225 88.7035 21.2333 88.7035 21.25C88.7035 21.25 88.6952 21.25 88.6785 21.25C88.6618 21.25 88.6535 21.2417 88.6535 21.225C88.6368 21.2083 88.6285 21.1917 88.6285 21.175C88.5952 21.1417 88.5785 21.15 88.5785 21.2C88.5785 21.2833 88.5868 21.3333 88.6035 21.35C88.6368 21.4333 88.6535 21.5167 88.6535 21.6C88.6535 21.6833 88.6535 21.7667 88.6535 21.85V22.625C88.6535 22.675 88.6452 22.725 88.6285 22.775C88.6285 22.825 88.6035 22.8667 88.5535 22.9C88.4868 22.9167 88.4535 22.975 88.4535 23.075C88.4368 23.2583 88.3702 23.4167 88.2535 23.55C88.1535 23.6833 88.0368 23.8 87.9035 23.9C87.8368 23.95 87.7535 23.9833 87.6535 24C87.5702 24 87.4868 23.9917 87.4035 23.975L86.9535 23.825C86.9202 23.825 86.8868 23.8 86.8535 23.75C86.8035 23.7 86.7535 23.65 86.7035 23.6C86.6535 23.5333 86.5952 23.475 86.5285 23.425C86.4452 23.375 86.3868 23.2833 86.3535 23.15C86.3368 23.0667 86.3118 22.975 86.2785 22.875C86.2452 22.775 86.2285 22.675 86.2285 22.575C86.2285 22.4583 86.2285 22.35 86.2285 22.25C86.2452 22.15 86.2535 22.0417 86.2535 21.925C86.2702 21.8417 86.2785 21.7667 86.2785 21.7C86.2785 21.6167 86.2868 21.5333 86.3035 21.45V12.3C86.3035 12.2167 86.3035 12.1333 86.3035 12.05C86.3202 11.9667 86.3368 11.8917 86.3535 11.825C86.3535 11.7417 86.3535 11.6583 86.3535 11.575C86.3702 11.4917 86.3785 11.4083 86.3785 11.325C86.3785 11.225 86.3785 11.125 86.3785 11.025C86.3952 10.925 86.4118 10.8333 86.4285 10.75C86.4452 10.6833 86.4535 10.625 86.4535 10.575C86.4535 10.525 86.4535 10.4667 86.4535 10.4V9.625C86.4535 9.50833 86.4618 9.40833 86.4785 9.325C86.5118 9.225 86.5368 9.125 86.5535 9.025L86.6285 8.9C86.6785 8.85 86.7202 8.775 86.7535 8.675C86.7868 8.575 86.8368 8.525 86.9035 8.525C86.9535 8.49167 87.0035 8.46667 87.0535 8.45C87.1035 8.41667 87.1368 8.36667 87.1535 8.3L87.1785 8.275C87.1952 8.275 87.2118 8.275 87.2285 8.275C87.2452 8.25833 87.2618 8.25 87.2785 8.25C87.3452 8.25 87.3952 8.23333 87.4285 8.2C87.4785 8.16667 87.5368 8.15833 87.6035 8.175C87.6702 8.19167 87.7368 8.2 87.8035 8.2C87.8702 8.2 87.9368 8.20833 88.0035 8.225C88.3702 8.29167 88.6285 8.50833 88.7785 8.875L88.9285 9.375C88.9452 9.54167 89.0202 9.7 89.1535 9.85C89.2535 9.96667 89.3535 10.0917 89.4535 10.225C89.5535 10.3583 89.6618 10.4917 89.7785 10.625C90.2118 11.175 90.6118 11.7917 90.9785 12.475C91.0118 12.5417 91.0452 12.6083 91.0785 12.675C91.1118 12.7417 91.1452 12.8083 91.1785 12.875L92.4785 15.5C92.5785 15.6833 92.6702 15.875 92.7535 16.075C92.8535 16.2583 92.9618 16.4417 93.0785 16.625C93.1118 16.6917 93.1452 16.7583 93.1785 16.825C93.2118 16.875 93.2368 16.9333 93.2535 17C93.3368 17.2 93.4368 17.4 93.5535 17.6C93.5535 17.6 93.5535 17.6083 93.5535 17.625C93.5702 17.625 93.5785 17.6167 93.5785 17.6C93.5952 17.6 93.6035 17.6 93.6035 17.6C93.6202 17.5833 93.6285 17.575 93.6285 17.575L93.7035 16.7V16.45C93.7202 16.3667 93.7285 16.2833 93.7285 16.2C93.7452 16.1 93.7618 16.0083 93.7785 15.925C93.7952 15.875 93.7952 15.8167 93.7785 15.75C93.7785 15.6833 93.7868 15.6167 93.8035 15.55C93.8035 15.45 93.8035 15.35 93.8035 15.25C93.8202 15.1333 93.8368 15.025 93.8535 14.925C93.8702 14.875 93.8785 14.825 93.8785 14.775C93.8785 14.7083 93.8785 14.65 93.8785 14.6V13.925H93.8535V13.25C93.8535 13.1667 93.8535 13.0833 93.8535 13C93.8535 12.9167 93.8368 12.8333 93.8035 12.75C93.7868 12.7 93.7785 12.625 93.7785 12.525L93.8035 12.35C93.8035 12.3 93.7952 12.2583 93.7785 12.225C93.7785 12.175 93.7785 12.125 93.7785 12.075C93.7952 12.0083 93.7868 11.9417 93.7535 11.875C93.7202 11.8083 93.7035 11.7417 93.7035 11.675C93.7202 11.6083 93.7285 11.5417 93.7285 11.475C93.7285 11.4083 93.7285 11.3417 93.7285 11.275C93.7285 11.2083 93.6952 11.175 93.6285 11.175C93.6118 11.175 93.6035 11.1583 93.6035 11.125C93.5868 11.075 93.5868 11.0333 93.6035 11C93.6368 10.9167 93.6535 10.825 93.6535 10.725C93.6535 10.625 93.6535 10.525 93.6535 10.425V9.7C93.6368 9.6 93.6452 9.5 93.6785 9.4C93.7118 9.3 93.7535 9.20833 93.8035 9.125L93.9035 8.975C93.9868 8.89167 94.0785 8.80833 94.1785 8.725C94.2785 8.64167 94.3785 8.55833 94.4785 8.475C94.4785 8.475 94.5118 8.45833 94.5785 8.425C94.6618 8.40833 94.7368 8.39167 94.8035 8.375C94.8868 8.35833 94.9702 8.35833 95.0535 8.375C95.1202 8.375 95.1702 8.38333 95.2035 8.4C95.2702 8.43333 95.3368 8.475 95.4035 8.525C95.4702 8.55833 95.5368 8.6 95.6035 8.65C95.6368 8.66667 95.6535 8.68333 95.6535 8.7C95.6702 8.71667 95.6868 8.73333 95.7035 8.75C95.7368 8.78333 95.7618 8.825 95.7785 8.875C95.8118 8.90833 95.8368 8.94167 95.8535 8.975C95.9368 9.04167 95.9868 9.125 96.0035 9.225C96.0368 9.30833 96.0618 9.39167 96.0785 9.475V10.525C96.0785 10.6417 96.0785 10.7583 96.0785 10.875C96.0952 10.975 96.1118 11.0833 96.1285 11.2C96.1452 11.2667 96.1535 11.3333 96.1535 11.4C96.1535 11.45 96.1535 11.5083 96.1535 11.575C96.1535 11.7083 96.1535 11.85 96.1535 12C96.1702 12.1333 96.1785 12.2667 96.1785 12.4V12.575C96.1785 12.6917 96.1702 12.8083 96.1535 12.925C96.1535 13.025 96.1535 13.1333 96.1535 13.25V14.35C96.1535 14.5167 96.1452 14.6917 96.1285 14.875C96.1285 15.0417 96.1368 15.2167 96.1535 15.4C96.1535 15.4667 96.1452 15.5167 96.1285 15.55C96.1118 15.7167 96.1035 15.8833 96.1035 16.05C96.1035 16.2 96.0952 16.3583 96.0785 16.525C96.0785 16.5917 96.0785 16.6667 96.0785 16.75C96.0785 16.8333 96.0702 16.9167 96.0535 17C96.0368 17.0667 96.0285 17.1333 96.0285 17.2C96.0452 17.2667 96.0535 17.3333 96.0535 17.4C96.0868 17.55 96.0952 17.7 96.0785 17.85C96.0785 18 96.0702 18.15 96.0535 18.3C96.0368 18.5667 96.0202 18.8417 96.0035 19.125C96.0035 19.3917 96.0202 19.6667 96.0535 19.95C96.0535 20.0167 96.0535 20.0917 96.0535 20.175C96.0702 20.2583 96.0785 20.3417 96.0785 20.425C96.0618 20.675 96.0702 20.9167 96.1035 21.15C96.1535 21.3833 96.2035 21.6167 96.2535 21.85C96.2868 22.0167 96.3202 22.1833 96.3535 22.35C96.3868 22.5 96.4118 22.6667 96.4285 22.85C96.4285 22.9167 96.4202 22.9583 96.4035 22.975C96.3868 23.0083 96.3702 23.05 96.3535 23.1C96.3368 23.1333 96.3285 23.1667 96.3285 23.2C96.3118 23.3333 96.2618 23.4583 96.1785 23.575C96.1118 23.6917 96.0368 23.8083 95.9535 23.925C95.7368 24.2083 95.4368 24.3083 95.0535 24.225ZM100.988 24.95C100.972 24.9667 100.93 24.9583 100.863 24.925C100.797 24.8917 100.73 24.8667 100.663 24.85C100.613 24.85 100.555 24.8417 100.488 24.825C100.438 24.825 100.397 24.8 100.363 24.75C100.347 24.7 100.297 24.65 100.213 24.6C100.113 24.55 100.047 24.4583 100.013 24.325L99.9383 24.075C99.8883 23.975 99.8883 23.875 99.9383 23.775C99.9549 23.725 99.9549 23.675 99.9383 23.625C99.9383 23.575 99.9466 23.525 99.9633 23.475C99.9799 23.4417 99.9966 23.4083 100.013 23.375C100.03 23.325 100.047 23.2833 100.063 23.25C100.063 23.2 100.063 23.15 100.063 23.1C100.08 23.05 100.088 23 100.088 22.95C100.088 22.7667 100.088 22.575 100.088 22.375C100.088 22.175 100.097 21.9833 100.113 21.8C100.113 21.6667 100.105 21.5333 100.088 21.4C100.088 21.25 100.097 21.1083 100.113 20.975C100.113 20.875 100.122 20.7833 100.138 20.7C100.155 20.6 100.155 20.5083 100.138 20.425C100.138 20.3417 100.13 20.2583 100.113 20.175C100.113 20.0917 100.113 20.0083 100.113 19.925C100.113 19.8083 100.105 19.7 100.088 19.6C100.088 19.5 100.063 19.3917 100.013 19.275C99.9799 19.1417 99.9633 19.025 99.9633 18.925C99.9633 18.7417 99.9633 18.5667 99.9633 18.4C99.9633 18.2333 99.9716 18.0667 99.9883 17.9C99.9883 17.8667 99.9883 17.8333 99.9883 17.8C100.005 17.7667 100.005 17.7417 99.9883 17.725C99.9716 17.5917 99.9549 17.4667 99.9383 17.35C99.9383 17.2167 99.9383 17.0917 99.9383 16.975V16.9C99.9216 16.7833 99.8716 16.675 99.7883 16.575L99.6133 16.35C99.5466 16.25 99.5133 16.1583 99.5133 16.075C99.5133 16.025 99.5049 15.975 99.4883 15.925C99.4883 15.875 99.4883 15.825 99.4883 15.775C99.4716 15.6417 99.4966 15.5167 99.5633 15.4C99.6299 15.3 99.6966 15.175 99.7633 15.025C99.7966 14.9417 99.7966 14.8667 99.7633 14.8C99.7466 14.7333 99.7383 14.6667 99.7383 14.6V14.375C99.7383 14.275 99.7299 14.2 99.7133 14.15C99.6966 13.9667 99.6799 13.7833 99.6633 13.6C99.6633 13.4 99.6466 13.2167 99.6133 13.05C99.5966 12.9167 99.5883 12.7833 99.5883 12.65C99.5883 12.5167 99.5883 12.3917 99.5883 12.275C99.5716 12.1917 99.5633 12.1083 99.5633 12.025C99.5633 11.9417 99.5466 11.8583 99.5133 11.775L99.4883 11.6C99.5049 11.4167 99.4799 11.225 99.4133 11.025C99.3966 10.9583 99.3799 10.8917 99.3633 10.825C99.3633 10.7417 99.3716 10.6667 99.3883 10.6C99.4383 10.4667 99.4549 10.325 99.4383 10.175C99.4383 10.025 99.4299 9.875 99.4133 9.725C99.3966 9.59167 99.3883 9.46667 99.3883 9.35C99.3883 9.21667 99.3799 9.09167 99.3633 8.975C99.3466 8.775 99.3549 8.58333 99.3883 8.4C99.4383 8.2 99.4966 8 99.5633 7.8C99.5966 7.73333 99.6299 7.69167 99.6633 7.675C99.7299 7.64167 99.7883 7.60833 99.8383 7.575C99.8883 7.525 99.9383 7.48333 99.9883 7.45C100.055 7.41667 100.088 7.4 100.088 7.4C100.172 7.36667 100.247 7.34167 100.313 7.325C100.397 7.30833 100.472 7.29167 100.538 7.275C100.688 7.225 100.822 7.225 100.938 7.275C101.072 7.325 101.197 7.39167 101.313 7.475C101.447 7.54167 101.555 7.64167 101.638 7.775C101.655 7.80833 101.672 7.85 101.688 7.9C101.705 7.93333 101.722 7.975 101.738 8.025C101.738 8.09167 101.738 8.16667 101.738 8.25C101.755 8.31667 101.772 8.39167 101.788 8.475C101.822 8.575 101.872 8.625 101.938 8.625H102.013C102.28 8.64167 102.538 8.65833 102.788 8.675C103.055 8.675 103.322 8.675 103.588 8.675H103.688C103.822 8.64167 103.93 8.625 104.013 8.625C104.08 8.64167 104.172 8.65 104.288 8.65C104.322 8.63333 104.363 8.625 104.413 8.625C104.463 8.625 104.505 8.625 104.538 8.625C104.638 8.60833 104.722 8.60833 104.788 8.625C104.905 8.65833 105.005 8.65 105.088 8.6C105.138 8.56667 105.205 8.56667 105.288 8.6C105.322 8.61667 105.363 8.625 105.413 8.625C105.463 8.625 105.505 8.625 105.538 8.625C105.672 8.59167 105.805 8.56667 105.938 8.55C106.088 8.53333 106.23 8.51667 106.363 8.5C106.497 8.46667 106.622 8.44167 106.738 8.425C106.872 8.40833 106.997 8.39167 107.113 8.375C107.147 8.35833 107.197 8.35 107.263 8.35C107.513 8.36667 107.772 8.325 108.038 8.225C108.088 8.20833 108.138 8.2 108.188 8.2C108.238 8.18333 108.297 8.18333 108.363 8.2C108.43 8.21667 108.513 8.21667 108.613 8.2C108.747 8.18333 108.88 8.16667 109.013 8.15C109.147 8.11667 109.272 8.09167 109.388 8.075C109.472 8.04167 109.547 8.01667 109.613 8C109.68 7.96667 109.747 7.95833 109.813 7.975L110.038 7.9C110.155 7.85 110.272 7.86667 110.388 7.95L110.788 8.175C110.822 8.19167 110.847 8.20833 110.863 8.225C110.897 8.24167 110.922 8.26667 110.938 8.3C110.988 8.38333 111.03 8.46667 111.063 8.55C111.113 8.63333 111.147 8.725 111.163 8.825C111.163 8.89167 111.172 8.95 111.188 9C111.222 9.05 111.222 9.10833 111.188 9.175C111.172 9.225 111.155 9.275 111.138 9.325C111.122 9.375 111.105 9.425 111.088 9.475L111.013 9.65C110.997 9.73333 110.947 9.8 110.863 9.85L110.763 9.95C110.73 9.98333 110.688 10.025 110.638 10.075C110.605 10.1083 110.58 10.15 110.563 10.2C110.547 10.25 110.513 10.2833 110.463 10.3C110.397 10.3167 110.33 10.3417 110.263 10.375C110.213 10.4083 110.163 10.45 110.113 10.5C110.047 10.5167 109.98 10.5417 109.913 10.575C109.847 10.5917 109.772 10.5917 109.688 10.575C109.588 10.5583 109.463 10.5917 109.313 10.675C109.23 10.725 109.138 10.7667 109.038 10.8C108.938 10.8167 108.838 10.8417 108.738 10.875C108.538 10.925 108.355 10.925 108.188 10.875C108.122 10.8417 108.055 10.825 107.988 10.825C107.922 10.825 107.855 10.8167 107.788 10.8C107.722 10.7833 107.655 10.7667 107.588 10.75C107.538 10.7333 107.472 10.725 107.388 10.725C107.322 10.725 107.263 10.725 107.213 10.725C107.163 10.7083 107.105 10.6917 107.038 10.675C106.972 10.6583 106.863 10.65 106.713 10.65C106.663 10.65 106.613 10.6583 106.563 10.675C106.513 10.675 106.455 10.6667 106.388 10.65C106.322 10.6333 106.247 10.6333 106.163 10.65C106.097 10.65 106.022 10.6583 105.938 10.675C105.888 10.6917 105.838 10.7083 105.788 10.725C105.755 10.725 105.722 10.725 105.688 10.725C105.588 10.7583 105.513 10.7667 105.463 10.75C105.38 10.7333 105.297 10.7333 105.213 10.75C105.13 10.75 105.047 10.7583 104.963 10.775C104.93 10.775 104.888 10.775 104.838 10.775C104.788 10.775 104.747 10.7667 104.713 10.75C104.513 10.7 104.322 10.7417 104.138 10.875H104.088C104.022 10.9417 103.955 10.95 103.888 10.9C103.722 10.8167 103.597 10.85 103.513 11C103.463 11.1 103.388 11.1333 103.288 11.1C103.188 11.1 103.122 11.0833 103.088 11.05C103.005 11.0167 102.938 11.0417 102.888 11.125C102.855 11.1583 102.822 11.175 102.788 11.175C102.738 11.175 102.705 11.1667 102.688 11.15C102.622 11.1333 102.563 11.1333 102.513 11.15C102.313 11.2333 102.13 11.3 101.963 11.35C101.913 11.35 101.888 11.3833 101.888 11.45C101.872 11.7 101.872 11.9583 101.888 12.225C101.905 12.2917 101.913 12.3667 101.913 12.45C101.913 12.5167 101.922 12.5917 101.938 12.675C101.938 12.7417 101.938 12.8083 101.938 12.875C101.955 12.9417 101.972 13.0083 101.988 13.075V13.175C102.005 13.3417 102.022 13.5 102.038 13.65C102.055 13.8 102.072 13.9583 102.088 14.125C102.088 14.2083 102.113 14.3167 102.163 14.45C102.197 14.5333 102.255 14.575 102.338 14.575C102.388 14.5917 102.438 14.6 102.488 14.6C102.538 14.6 102.588 14.6 102.638 14.6H104.663C104.797 14.5667 104.93 14.55 105.063 14.55C105.213 14.55 105.355 14.55 105.488 14.55C105.555 14.5667 105.613 14.575 105.663 14.575C105.73 14.5583 105.788 14.5583 105.838 14.575H106.063C106.163 14.5583 106.263 14.55 106.363 14.55C106.463 14.5333 106.572 14.5167 106.688 14.5C106.822 14.4667 106.938 14.45 107.038 14.45C107.072 14.4333 107.122 14.425 107.188 14.425C107.322 14.4417 107.472 14.425 107.638 14.375C107.705 14.325 107.788 14.3167 107.888 14.35C107.955 14.3667 108.022 14.375 108.088 14.375C108.155 14.3583 108.222 14.35 108.288 14.35C108.355 14.3333 108.413 14.325 108.463 14.325C108.53 14.325 108.588 14.325 108.638 14.325C108.872 14.3417 109.113 14.325 109.363 14.275C109.463 14.2583 109.563 14.25 109.663 14.25C109.763 14.25 109.855 14.25 109.938 14.25C109.972 14.25 110.005 14.2583 110.038 14.275C110.088 14.275 110.13 14.2667 110.163 14.25C110.297 14.2167 110.43 14.2 110.563 14.2C110.713 14.1833 110.855 14.15 110.988 14.1C111.022 14.0833 111.063 14.0667 111.113 14.05C111.163 14.0333 111.205 14.0167 111.238 14C111.338 13.95 111.438 13.9167 111.538 13.9C111.655 13.8667 111.763 13.8417 111.863 13.825C111.913 13.8083 111.988 13.8 112.088 13.8H112.163C112.23 13.8167 112.297 13.8417 112.363 13.875C112.43 13.9083 112.488 13.95 112.538 14C112.655 14.1167 112.772 14.175 112.888 14.175C112.938 14.175 112.98 14.2083 113.013 14.275V14.35C113.013 14.4 112.997 14.425 112.963 14.425C112.963 14.425 112.955 14.4333 112.938 14.45C112.922 14.45 112.913 14.4583 112.913 14.475C112.947 14.5083 112.98 14.525 113.013 14.525V14.55C113.03 14.5833 113.022 14.6417 112.988 14.725C112.938 14.775 112.938 14.8333 112.988 14.9C113.055 15 113.063 15.0917 113.013 15.175C112.963 15.275 112.913 15.375 112.863 15.475C112.813 15.575 112.763 15.6667 112.713 15.75C112.613 15.9 112.497 16.0083 112.363 16.075C112.297 16.0917 112.213 16.1167 112.113 16.15C112.03 16.1667 111.947 16.1833 111.863 16.2C111.647 16.2333 111.422 16.2667 111.188 16.3C110.972 16.3333 110.747 16.3667 110.513 16.4C110.43 16.4167 110.347 16.4333 110.263 16.45C110.18 16.45 110.097 16.4583 110.013 16.475C109.847 16.4917 109.68 16.5083 109.513 16.525C109.347 16.5417 109.18 16.5667 109.013 16.6H108.813C108.73 16.6167 108.638 16.6333 108.538 16.65C108.455 16.65 108.372 16.65 108.288 16.65C108.155 16.65 108.022 16.6583 107.888 16.675C107.755 16.675 107.622 16.6833 107.488 16.7C107.405 16.7167 107.322 16.725 107.238 16.725C107.155 16.725 107.072 16.725 106.988 16.725C106.822 16.725 106.647 16.725 106.463 16.725C106.297 16.7083 106.122 16.6917 105.938 16.675C105.738 16.6583 105.538 16.65 105.338 16.65C105.155 16.65 104.963 16.65 104.763 16.65H103.838C103.755 16.65 103.697 16.6583 103.663 16.675C103.497 16.6917 103.322 16.7083 103.138 16.725C102.972 16.725 102.797 16.725 102.613 16.725H102.538C102.422 16.7583 102.363 16.8167 102.363 16.9C102.363 16.9667 102.363 17.0333 102.363 17.1C102.363 17.15 102.372 17.2 102.388 17.25C102.422 17.5 102.447 17.75 102.463 18C102.497 18.2333 102.513 18.4667 102.513 18.7C102.513 18.8167 102.513 18.925 102.513 19.025C102.513 19.125 102.522 19.2333 102.538 19.35C102.538 19.6167 102.547 19.8833 102.563 20.15C102.597 20.4167 102.605 20.6917 102.588 20.975C102.588 21.0917 102.588 21.2083 102.588 21.325C102.605 21.4417 102.622 21.5667 102.638 21.7C102.655 21.8167 102.655 21.9333 102.638 22.05C102.638 22.15 102.647 22.2667 102.663 22.4C102.663 22.4667 102.663 22.5417 102.663 22.625C102.68 22.6917 102.697 22.7667 102.713 22.85C102.73 22.9 102.73 22.95 102.713 23C102.713 23.05 102.722 23.1 102.738 23.15C102.738 23.2167 102.738 23.2833 102.738 23.35C102.738 23.4 102.747 23.4583 102.763 23.525C102.78 23.675 102.738 23.8 102.638 23.9C102.622 23.95 102.597 23.9917 102.563 24.025C102.547 24.075 102.53 24.1167 102.513 24.15C102.48 24.2333 102.43 24.3 102.363 24.35C102.297 24.4167 102.222 24.475 102.138 24.525C102.122 24.5417 102.097 24.55 102.063 24.55C102.03 24.5667 101.997 24.5833 101.963 24.6C101.863 24.6333 101.788 24.6667 101.738 24.7C101.705 24.7667 101.655 24.8083 101.588 24.825C101.538 24.8417 101.48 24.8667 101.413 24.9C101.347 24.9167 101.272 24.925 101.188 24.925C101.122 24.9417 101.055 24.95 100.988 24.95ZM124.455 25.825C124.305 25.825 124.171 25.7667 124.055 25.65C124.021 25.6 123.988 25.55 123.955 25.5C123.921 25.45 123.888 25.4 123.855 25.35C123.705 25 123.63 24.6333 123.63 24.25L123.555 23.65C123.505 23.4167 123.463 23.1833 123.43 22.95C123.396 22.7167 123.338 22.4917 123.255 22.275L123.105 21.85C123.105 21.8167 123.096 21.7833 123.08 21.75C123.08 21.7167 123.071 21.6833 123.055 21.65L122.68 20.325C122.663 20.2917 122.646 20.25 122.63 20.2C122.63 20.15 122.613 20.1083 122.58 20.075C122.53 19.975 122.488 19.875 122.455 19.775C122.438 19.6583 122.413 19.5417 122.38 19.425C122.363 19.3417 122.346 19.2667 122.33 19.2C122.313 19.1167 122.288 19.0333 122.255 18.95C122.221 18.85 122.188 18.7917 122.155 18.775C122.121 18.7417 122.046 18.7417 121.93 18.775C121.846 18.7917 121.755 18.8083 121.655 18.825C121.571 18.825 121.488 18.8417 121.405 18.875C121.338 18.8917 121.255 18.9083 121.155 18.925C121.071 18.925 120.988 18.9333 120.905 18.95L120.555 19.025C120.471 19.0417 120.38 19.0667 120.28 19.1C120.196 19.1167 120.113 19.125 120.03 19.125L119.58 19.2C119.446 19.2333 119.305 19.2667 119.155 19.3C119.005 19.3333 118.863 19.3667 118.73 19.4C118.33 19.5 117.93 19.575 117.53 19.625C117.396 19.6583 117.321 19.7167 117.305 19.8C117.288 19.8 117.28 19.8083 117.28 19.825C117.18 20.0917 117.063 20.3583 116.93 20.625C116.813 20.875 116.688 21.1333 116.555 21.4C116.521 21.4667 116.488 21.5333 116.455 21.6C116.438 21.65 116.413 21.7083 116.38 21.775C116.363 21.8083 116.346 21.85 116.33 21.9C116.313 21.9333 116.296 21.9667 116.28 22C116.18 22.1167 116.13 22.2583 116.13 22.425C116.113 22.525 116.08 22.625 116.03 22.725C115.98 22.8083 115.93 22.8917 115.88 22.975C115.863 23.025 115.83 23.05 115.78 23.05C115.713 23.0667 115.646 23.0917 115.58 23.125C115.513 23.1583 115.438 23.1917 115.355 23.225C115.305 23.2417 115.255 23.2417 115.205 23.225C115.171 23.2083 115.13 23.1917 115.08 23.175C115.046 23.1417 115.013 23.125 114.98 23.125C114.796 23.1083 114.663 23 114.58 22.8C114.446 22.5333 114.355 22.2667 114.305 22C114.288 21.9333 114.288 21.875 114.305 21.825C114.338 21.775 114.363 21.725 114.38 21.675C114.48 21.6083 114.538 21.5333 114.555 21.45V21.425C114.555 21.2083 114.596 21.0083 114.68 20.825C114.78 20.625 114.863 20.4333 114.93 20.25C114.963 20.15 115.005 20.05 115.055 19.95C115.105 19.85 115.155 19.75 115.205 19.65C115.271 19.5333 115.321 19.425 115.355 19.325C115.405 19.2083 115.446 19.0917 115.48 18.975C115.53 18.8417 115.53 18.7167 115.48 18.6C115.446 18.5 115.43 18.4083 115.43 18.325C115.43 18.225 115.438 18.125 115.455 18.025C115.455 17.8417 115.521 17.6833 115.655 17.55C115.721 17.4667 115.788 17.4 115.855 17.35C115.938 17.2833 116.013 17.2167 116.08 17.15C116.23 17 116.346 16.8 116.43 16.55C116.496 16.3333 116.546 16.1167 116.58 15.9C116.63 15.6667 116.68 15.4417 116.73 15.225C116.763 15.0083 116.796 14.8 116.83 14.6C116.88 14.3833 116.93 14.175 116.98 13.975C116.996 13.8917 117.013 13.8167 117.03 13.75C117.063 13.6667 117.088 13.5917 117.105 13.525C117.155 13.3917 117.205 13.2667 117.255 13.15C117.305 13.0167 117.338 12.8833 117.355 12.75C117.388 12.6833 117.388 12.625 117.355 12.575C117.338 12.4917 117.338 12.4167 117.355 12.35C117.388 12.2833 117.413 12.2167 117.43 12.15C117.48 12.0333 117.513 11.9167 117.53 11.8C117.563 11.6833 117.605 11.5667 117.655 11.45C117.738 11.2333 117.805 11.0583 117.855 10.925C117.921 10.775 117.98 10.6083 118.03 10.425C118.063 10.325 118.096 10.2333 118.13 10.15C118.18 10.05 118.213 9.95 118.23 9.85C118.28 9.7 118.321 9.55 118.355 9.4C118.388 9.23333 118.405 9.075 118.405 8.925C118.438 8.79167 118.471 8.7 118.505 8.65C118.588 8.48333 118.688 8.34167 118.805 8.225C118.938 8.10833 119.063 7.99167 119.18 7.875C119.263 7.825 119.346 7.79167 119.43 7.775C119.513 7.74167 119.596 7.75 119.68 7.8C119.746 7.83333 119.788 7.85 119.805 7.85C119.955 7.83333 120.08 7.86667 120.18 7.95C120.28 8.03333 120.363 8.13333 120.43 8.25C120.463 8.28333 120.488 8.325 120.505 8.375C120.521 8.425 120.538 8.46667 120.555 8.5C120.638 8.63333 120.68 8.76667 120.68 8.9C120.68 8.96667 120.688 9.04167 120.705 9.125C120.721 9.19167 120.738 9.26667 120.755 9.35C120.805 9.45 120.88 9.5 120.98 9.5C120.996 9.48333 121.013 9.48333 121.03 9.5C121.046 9.51667 121.055 9.53333 121.055 9.55C121.138 9.65 121.163 9.75833 121.13 9.875C121.096 10.0083 121.088 10.1417 121.105 10.275C121.138 10.3917 121.171 10.5167 121.205 10.65C121.271 10.8167 121.338 10.9833 121.405 11.15C121.471 11.3167 121.538 11.4833 121.605 11.65C121.688 11.8333 121.771 12.0167 121.855 12.2C121.938 12.3833 122.013 12.5667 122.08 12.75C122.163 12.9833 122.246 13.2167 122.33 13.45C122.43 13.6833 122.538 13.9167 122.655 14.15L122.73 14.425C122.746 14.4917 122.763 14.5583 122.78 14.625C122.813 14.6917 122.838 14.7583 122.855 14.825C122.888 14.875 122.913 14.925 122.93 14.975C122.963 15.025 122.996 15.0667 123.03 15.1C123.113 15.2167 123.163 15.3417 123.18 15.475C123.23 15.6417 123.305 15.7917 123.405 15.925C123.438 15.975 123.488 16 123.555 16C123.805 15.9667 124.055 15.9417 124.305 15.925C124.555 15.8917 124.805 15.8417 125.055 15.775C125.238 15.725 125.413 15.7 125.58 15.7C125.896 15.7 126.188 15.8083 126.455 16.025C126.771 16.275 126.938 16.5917 126.955 16.975C126.955 17.0583 126.963 17.125 126.98 17.175C126.98 17.2917 126.946 17.3833 126.88 17.45C126.863 17.5 126.83 17.55 126.78 17.6C126.746 17.65 126.713 17.7 126.68 17.75C126.646 17.8167 126.613 17.8667 126.58 17.9L126.43 18.025C126.413 18.0583 126.388 18.1 126.355 18.15C126.321 18.1833 126.28 18.2083 126.23 18.225C126.163 18.2417 126.096 18.2667 126.03 18.3C125.963 18.3167 125.888 18.325 125.805 18.325C125.505 18.3583 125.238 18.35 125.005 18.3H124.605C124.571 18.3 124.521 18.3167 124.455 18.35C124.388 18.3833 124.355 18.425 124.355 18.475V18.575C124.405 18.725 124.438 18.8833 124.455 19.05C124.488 19.2 124.538 19.3417 124.605 19.475C124.605 19.5417 124.621 19.6083 124.655 19.675C124.738 19.825 124.805 19.9833 124.855 20.15C124.905 20.3 124.946 20.4583 124.98 20.625C124.98 20.6583 124.996 20.725 125.03 20.825C125.08 20.9417 125.121 21.0667 125.155 21.2C125.188 21.3167 125.213 21.4417 125.23 21.575C125.23 21.675 125.255 21.7667 125.305 21.85C125.371 22 125.421 22.15 125.455 22.3C125.488 22.45 125.513 22.6083 125.53 22.775C125.546 22.7917 125.555 22.825 125.555 22.875C125.555 22.9083 125.563 22.9417 125.58 22.975C125.663 23.1583 125.721 23.3583 125.755 23.575C125.788 23.775 125.83 23.975 125.88 24.175C125.913 24.275 125.93 24.375 125.93 24.475C125.946 24.5917 125.955 24.7083 125.955 24.825C125.955 24.9083 125.93 25 125.88 25.1C125.83 25.15 125.805 25.175 125.805 25.175C125.705 25.1917 125.646 25.25 125.63 25.35L125.555 25.5C125.521 25.5667 125.471 25.6083 125.405 25.625C125.338 25.625 125.28 25.65 125.23 25.7C125.163 25.7667 125.071 25.8 124.955 25.8C124.888 25.8 124.805 25.8 124.705 25.8C124.621 25.8 124.538 25.8083 124.455 25.825ZM118.43 16.75C118.53 16.7333 118.63 16.7167 118.73 16.7C118.846 16.6833 118.971 16.6667 119.105 16.65C119.188 16.6333 119.296 16.6167 119.43 16.6C119.563 16.5833 119.688 16.5667 119.805 16.55C119.921 16.5167 120.038 16.5 120.155 16.5C120.271 16.4833 120.388 16.4667 120.505 16.45C120.605 16.4167 120.705 16.4 120.805 16.4C120.905 16.3833 121.005 16.3667 121.105 16.35C121.255 16.3167 121.313 16.2333 121.28 16.1C121.263 15.9667 121.23 15.8333 121.18 15.7C121.146 15.55 121.071 15.425 120.955 15.325C120.921 15.2917 120.905 15.2417 120.905 15.175V15.1C120.871 14.9667 120.83 14.8417 120.78 14.725C120.746 14.5917 120.705 14.4667 120.655 14.35C120.621 14.2167 120.58 14.1 120.53 14C120.496 13.8833 120.455 13.7667 120.405 13.65L120.105 12.75C120.055 12.6333 120.005 12.5167 119.955 12.4C119.921 12.2833 119.888 12.1667 119.855 12.05L119.78 11.95H119.705L119.655 12.025C119.571 12.275 119.471 12.525 119.355 12.775C119.255 13.025 119.163 13.2917 119.08 13.575C119.08 13.6083 119.071 13.65 119.055 13.7C119.038 13.75 119.021 13.8 119.005 13.85C118.938 14.0167 118.871 14.2 118.805 14.4C118.755 14.6 118.713 14.8 118.68 15C118.663 15.1167 118.646 15.2333 118.63 15.35C118.613 15.45 118.588 15.5583 118.555 15.675L118.33 16.65C118.313 16.6667 118.321 16.6917 118.355 16.725C118.388 16.7417 118.413 16.75 118.43 16.75ZM117.78 7.75C117.663 7.73333 117.58 7.65833 117.53 7.525C117.446 7.39167 117.405 7.25 117.405 7.1C117.388 7 117.371 6.9 117.355 6.8C117.338 6.7 117.313 6.6 117.28 6.5C117.28 6.43333 117.246 6.35 117.18 6.25L117.055 6.1C116.821 5.85 116.705 5.51667 116.705 5.1C116.721 4.86667 116.771 4.65 116.855 4.45C116.938 4.23333 117.063 4.04167 117.23 3.875C117.313 3.79167 117.396 3.725 117.48 3.675C117.563 3.625 117.646 3.575 117.73 3.525C117.813 3.49167 117.88 3.45833 117.93 3.425C117.996 3.39167 118.063 3.36667 118.13 3.35C118.163 3.31667 118.196 3.29167 118.23 3.275C118.263 3.25833 118.288 3.24167 118.305 3.225C118.388 3.175 118.463 3.125 118.53 3.075C118.596 3.00833 118.663 2.94167 118.73 2.875C118.963 2.70833 119.188 2.54167 119.405 2.375C119.638 2.19167 119.863 2.01667 120.08 1.85C120.313 1.66667 120.513 1.46667 120.68 1.25C120.73 1.18333 120.78 1.125 120.83 1.075C120.896 1.00833 120.963 0.941665 121.03 0.874998C121.113 0.791665 121.221 0.724999 121.355 0.674999L121.88 0.524998C121.98 0.491665 122.055 0.483332 122.105 0.499999C122.121 0.516665 122.155 0.524998 122.205 0.524998C122.471 0.524998 122.73 0.633332 122.98 0.849999C123.113 0.949999 123.196 1.01667 123.23 1.05C123.263 1.08333 123.296 1.18333 123.33 1.35C123.363 1.48333 123.38 1.59167 123.38 1.675C123.396 1.725 123.388 1.78333 123.355 1.85C123.355 1.88333 123.346 1.91667 123.33 1.95C123.313 1.98333 123.296 2.01667 123.28 2.05L123.055 2.6C123.038 2.65 123.013 2.7 122.98 2.75C122.963 2.78333 122.938 2.81667 122.905 2.85C122.838 2.96667 122.755 3.075 122.655 3.175C122.571 3.275 122.48 3.375 122.38 3.475C122.313 3.54167 122.23 3.61667 122.13 3.7C122.046 3.78333 121.963 3.86667 121.88 3.95C121.646 4.16667 121.405 4.35833 121.155 4.525C121.005 4.625 120.846 4.73333 120.68 4.85C120.53 4.95 120.38 5.05833 120.23 5.175C120.196 5.19167 120.163 5.21667 120.13 5.25C120.096 5.26667 120.063 5.28333 120.03 5.3C119.946 5.36667 119.863 5.425 119.78 5.475C119.713 5.525 119.638 5.58333 119.555 5.65C119.438 5.76667 119.313 5.875 119.18 5.975C119.046 6.075 118.913 6.18333 118.78 6.3C118.58 6.45 118.455 6.65 118.405 6.9L118.33 7.35C118.313 7.5 118.255 7.60833 118.155 7.675C118.038 7.74167 117.913 7.76667 117.78 7.75Z" fill="#353535"/>
</svg>
