<svg width="147" height="24" viewBox="0 0 147 24" fill="none" xmlns="http://www.w3.org/2000/svg">
<path d="M1.74762 23.4C1.52762 23.36 1.37762 23.26 1.29762 23.1C1.23762 22.98 1.18762 22.85 1.14762 22.71C1.12762 22.59 1.10762 22.47 1.08762 22.35C1.06762 22.19 1.04762 22.02 1.02762 21.84C1.00762 21.68 0.987617 21.52 0.967617 21.36C0.947617 21.16 0.917617 20.97 0.877617 20.79C0.837617 20.61 0.777617 20.42 0.697617 20.22C0.677617 20.16 0.657617 20.11 0.637617 20.07C0.617617 20.01 0.587617 19.95 0.547617 19.89L0.187617 19.14C0.0876172 18.94 0.0376172 18.74 0.0376172 18.54C0.0176173 18.28 0.00761727 18.03 0.00761727 17.79C0.00761727 17.55 0.0176173 17.31 0.0376172 17.07C0.0376172 16.99 0.0576172 16.89 0.0976172 16.77C0.137617 16.57 0.177617 16.38 0.217617 16.2C0.277617 16 0.317617 15.81 0.337617 15.63C0.377617 15.39 0.417617 15.16 0.457617 14.94C0.497617 14.7 0.527617 14.47 0.547617 14.25C0.587617 14.03 0.617617 13.81 0.637617 13.59C0.657617 13.37 0.677617 13.15 0.697617 12.93C0.717617 12.77 0.737617 12.62 0.757617 12.48C0.777617 12.32 0.797617 12.17 0.817617 12.03C0.837617 11.97 0.847617 11.88 0.847617 11.76C0.847617 11.66 0.857617 11.56 0.877617 11.46C0.897617 11.34 0.917617 11.23 0.937617 11.13C0.977617 10.97 0.997617 10.81 0.997617 10.65C1.01762 10.47 1.03762 10.3 1.05762 10.14C1.07762 10.08 1.08762 10 1.08762 9.9C1.14762 9.68 1.18762 9.45 1.20762 9.21C1.24762 8.97 1.27762 8.73 1.29762 8.49L1.38762 7.98C1.42762 7.76 1.45762 7.54 1.47762 7.32C1.49762 7.08 1.51762 6.85 1.53762 6.63C1.57762 6.41 1.59762 6.19 1.59762 5.97C1.59762 5.73 1.59762 5.5 1.59762 5.28C1.59762 5.16 1.59762 5.05 1.59762 4.95C1.61762 4.83 1.63762 4.71 1.65762 4.59C1.69762 4.07 1.65762 3.57 1.53762 3.09C1.51762 3.07 1.50762 3.05 1.50762 3.03C1.42762 2.77 1.41762 2.53 1.47762 2.31C1.53762 2.09 1.63762 1.88 1.77762 1.68C2.01762 1.28 2.35762 1.04 2.79762 0.959999C2.87762 0.939999 2.94762 0.929999 3.00762 0.929999C3.06762 0.909999 3.13762 0.909999 3.21762 0.929999C3.29762 0.969999 3.36762 0.989998 3.42762 0.989998C3.60762 1.01 3.77762 1.09 3.93762 1.23L4.20762 1.59C4.34762 1.83 4.47762 2.01 4.59762 2.13C4.91762 2.53 5.19762 2.96 5.43762 3.42C5.57762 3.68 5.69762 3.94 5.79762 4.2C5.91762 4.44 6.03762 4.68 6.15762 4.92C6.21762 5.06 6.26762 5.19 6.30762 5.31C6.36762 5.43 6.42762 5.55 6.48762 5.67C6.52762 5.73 6.58762 5.8 6.66762 5.88C6.74762 6 6.78762 6.09 6.78762 6.15C6.82762 6.23 6.81762 6.3 6.75762 6.36C6.73762 6.38 6.73762 6.41 6.75762 6.45C6.77762 6.49 6.79762 6.53 6.81762 6.57C6.83762 6.59 6.87762 6.71 6.93762 6.93C6.99762 7.13 7.01762 7.2 6.99762 7.14C7.03762 7.24 7.09762 7.29 7.17762 7.29C7.23762 7.31 7.27762 7.35 7.29762 7.41C7.31762 7.45 7.28762 7.5 7.20762 7.56C7.14762 7.58 7.14762 7.66 7.20762 7.8C7.26762 7.92 7.30762 8 7.32762 8.04C7.40762 8.24 7.47762 8.44 7.53762 8.64C7.59762 8.82 7.66762 9.01 7.74762 9.21C7.84762 9.47 7.93762 9.74 8.01762 10.02C8.09762 10.3 8.17762 10.58 8.25762 10.86C8.31762 11.06 8.37762 11.26 8.43762 11.46C8.51762 11.64 8.58762 11.82 8.64762 12C8.64762 12.04 8.66762 12.06 8.70762 12.06L8.76762 12C8.76762 11.96 8.78762 11.9 8.82762 11.82C8.86762 11.6 8.91762 11.38 8.97762 11.16C9.03762 10.92 9.09762 10.69 9.15762 10.47C9.25762 10.17 9.33762 9.87 9.39762 9.57C9.47762 9.27 9.55762 8.97 9.63762 8.67C9.67762 8.49 9.72762 8.31 9.78762 8.13C9.84762 7.93 9.88762 7.74 9.90762 7.56C9.98762 7.22 10.0676 6.89 10.1476 6.57C10.2276 6.25 10.2976 5.93 10.3576 5.61C10.3776 5.57 10.3876 5.53 10.3876 5.49C10.4076 5.45 10.4176 5.41 10.4176 5.37C10.4376 5.17 10.4976 4.98 10.5976 4.8C10.7976 4.38 11.1276 4.11 11.5876 3.99C11.8076 3.93 12.0276 3.93 12.2476 3.99C12.4276 4.03 12.5576 4.1 12.6376 4.2C12.7776 4.34 12.9076 4.48 13.0276 4.62C13.1676 4.76 13.2876 4.91 13.3876 5.07C13.4676 5.19 13.5476 5.31 13.6276 5.43C13.7076 5.53 13.7876 5.64 13.8676 5.76C13.9276 5.84 13.9876 5.93 14.0476 6.03C14.1076 6.11 14.1576 6.2 14.1976 6.3C14.3576 6.58 14.5076 6.87 14.6476 7.17C14.7876 7.47 14.9076 7.78 15.0076 8.1C15.0076 8.14 15.0176 8.17 15.0376 8.19C15.1376 8.39 15.2176 8.6 15.2776 8.82C15.3376 9.02 15.3976 9.23 15.4576 9.45C15.5376 9.67 15.5976 9.89 15.6376 10.11C15.6976 10.33 15.7576 10.55 15.8176 10.77C15.8176 10.85 15.8276 10.91 15.8476 10.95C15.9076 11.11 15.9576 11.28 15.9976 11.46C16.0376 11.64 16.0776 11.81 16.1176 11.97C16.1576 12.21 16.1976 12.45 16.2376 12.69C16.2776 12.93 16.3176 13.16 16.3576 13.38C16.3976 13.68 16.4376 13.98 16.4776 14.28C16.5176 14.58 16.5676 14.88 16.6276 15.18C16.6676 15.38 16.6976 15.59 16.7176 15.81C16.7576 16.03 16.7876 16.25 16.8076 16.47C16.8076 16.53 16.8276 16.62 16.8676 16.74L16.9576 17.46C16.9576 17.56 16.9676 17.63 16.9876 17.67C17.0876 18.05 17.1476 18.44 17.1676 18.84C17.1876 18.86 17.1976 18.89 17.1976 18.93C17.1976 18.95 17.2076 18.98 17.2276 19.02L17.4376 20.22C17.4776 20.36 17.4776 20.51 17.4376 20.67L17.3776 20.91C17.3776 21.07 17.3476 21.22 17.2876 21.36C17.2276 21.5 17.1576 21.64 17.0776 21.78C17.0176 21.86 16.9476 21.94 16.8676 22.02C16.7876 22.12 16.6976 22.2 16.5976 22.26C16.3776 22.42 16.1576 22.43 15.9376 22.29C15.4776 21.99 15.1376 21.62 14.9176 21.18C14.8976 21.1 14.8676 21.03 14.8276 20.97C14.8076 20.89 14.7976 20.81 14.7976 20.73L14.7076 20.16C14.6876 20.06 14.6676 19.96 14.6476 19.86C14.6476 19.74 14.6376 19.63 14.6176 19.53L14.3176 17.79C14.2976 17.65 14.2776 17.52 14.2576 17.4C14.2376 17.28 14.2176 17.15 14.1976 17.01L14.0776 16.35C14.0376 16.13 13.9976 15.91 13.9576 15.69C13.9176 15.45 13.8776 15.22 13.8376 15L13.5376 13.08C13.5176 12.8 13.4676 12.53 13.3876 12.27C13.3276 11.99 13.2676 11.72 13.2076 11.46C13.1276 11.14 13.0376 10.84 12.9376 10.56C12.8376 10.26 12.7276 9.97 12.6076 9.69L12.5176 9.42C12.4976 9.36 12.4676 9.3 12.4276 9.24C12.3876 9.18 12.3476 9.13 12.3076 9.09C12.2476 9.09 12.2176 9.1 12.2176 9.12L12.1276 9.42C12.0476 9.68 11.9776 9.96 11.9176 10.26C11.8576 10.54 11.7876 10.82 11.7076 11.1C11.6676 11.26 11.6276 11.42 11.5876 11.58C11.5476 11.74 11.5076 11.9 11.4676 12.06C11.4276 12.2 11.3876 12.35 11.3476 12.51C11.3276 12.65 11.2976 12.8 11.2576 12.96C11.2176 13.2 11.1676 13.44 11.1076 13.68C11.0476 13.92 10.9976 14.16 10.9576 14.4C10.9376 14.58 10.9076 14.76 10.8676 14.94C10.8476 15.12 10.8276 15.3 10.8076 15.48V15.66C10.8476 15.82 10.8076 15.96 10.6876 16.08C10.6676 16.14 10.6376 16.2 10.5976 16.26C10.5776 16.3 10.5576 16.35 10.5376 16.41C10.4976 16.59 10.4476 16.72 10.3876 16.8L10.2976 17.01C10.2776 17.03 10.2576 17.07 10.2376 17.13C10.2376 17.17 10.2176 17.21 10.1776 17.25C10.0376 17.49 9.85762 17.65 9.63762 17.73C9.55762 17.77 9.47762 17.81 9.39762 17.85C9.33762 17.89 9.26762 17.93 9.18762 17.97C8.98762 18.07 8.77762 18.06 8.55762 17.94C8.25762 17.74 8.02762 17.52 7.86762 17.28L7.32762 16.5C7.32762 16.48 7.31762 16.47 7.29762 16.47C7.29762 16.45 7.29762 16.44 7.29762 16.44C7.21762 16.22 7.12762 16.02 7.02762 15.84C6.92762 15.66 6.84762 15.47 6.78762 15.27L6.42762 14.22C6.32762 13.96 6.23762 13.7 6.15762 13.44C6.07762 13.18 5.98762 12.92 5.88762 12.66L5.79762 12.42C5.75762 12.24 5.70762 12.06 5.64762 11.88C5.60762 11.7 5.55762 11.53 5.49762 11.37C5.45762 11.19 5.40762 11.02 5.34762 10.86C5.28762 10.68 5.23762 10.51 5.19762 10.35C5.11762 10.13 5.03762 9.91 4.95762 9.69C4.89762 9.45 4.81762 9.22 4.71762 9C4.67762 8.86 4.61762 8.75 4.53762 8.67C4.37762 8.51 4.26762 8.32 4.20762 8.1C4.20762 8.06 4.18762 8.04 4.14762 8.04L4.08762 8.1V8.13C4.06762 8.15 4.05762 8.18 4.05762 8.22C4.03762 8.42 4.01762 8.63 3.99762 8.85C3.97762 9.07 3.94762 9.29 3.90762 9.51L3.81762 10.5C3.79762 10.66 3.77762 10.82 3.75762 10.98C3.75762 11.14 3.74762 11.3 3.72762 11.46C3.70762 11.54 3.68762 11.62 3.66762 11.7C3.66762 11.78 3.66762 11.87 3.66762 11.97C3.64762 12.47 3.58762 13 3.48762 13.56C3.46762 13.7 3.44762 13.86 3.42762 14.04C3.40762 14.2 3.38762 14.36 3.36762 14.52L3.27762 15.18C3.21762 15.54 3.18762 15.89 3.18762 16.23C3.18762 16.37 3.18762 16.51 3.18762 16.65C3.20762 16.79 3.19762 16.93 3.15762 17.07C3.13762 17.25 3.15762 17.46 3.21762 17.7C3.29762 17.84 3.32762 17.98 3.30762 18.12C3.30762 18.26 3.28762 18.41 3.24762 18.57C3.22762 18.69 3.18762 18.81 3.12762 18.93C3.08762 19.05 3.01762 19.16 2.91762 19.26C2.87762 19.32 2.82762 19.39 2.76762 19.47C2.72762 19.55 2.67762 19.62 2.61762 19.68C2.45762 19.88 2.37762 20.1 2.37762 20.34V21C2.37762 21.16 2.36762 21.31 2.34762 21.45C2.34762 21.61 2.35762 21.77 2.37762 21.93C2.37762 21.95 2.36762 21.97 2.34762 21.99C2.34762 22.01 2.34762 22.04 2.34762 22.08C2.32762 22.14 2.31762 22.2 2.31762 22.26C2.31762 22.32 2.31762 22.38 2.31762 22.44C2.33762 22.62 2.31762 22.81 2.25762 23.01C2.15762 23.19 2.02762 23.31 1.86762 23.37C1.82762 23.39 1.78762 23.4 1.74762 23.4ZM32.3732 23.19C32.1932 23.19 32.0332 23.12 31.8932 22.98C31.8532 22.92 31.8132 22.86 31.7732 22.8C31.7332 22.74 31.6932 22.68 31.6532 22.62C31.4732 22.2 31.3832 21.76 31.3832 21.3L31.2932 20.58C31.2332 20.3 31.1832 20.02 31.1432 19.74C31.1032 19.46 31.0332 19.19 30.9332 18.93L30.7532 18.42C30.7532 18.38 30.7432 18.34 30.7232 18.3C30.7232 18.26 30.7132 18.22 30.6932 18.18L30.2432 16.59C30.2232 16.55 30.2032 16.5 30.1832 16.44C30.1832 16.38 30.1632 16.33 30.1232 16.29C30.0632 16.17 30.0132 16.05 29.9732 15.93C29.9532 15.79 29.9232 15.65 29.8832 15.51C29.8632 15.41 29.8432 15.32 29.8232 15.24C29.8032 15.14 29.7732 15.04 29.7332 14.94C29.6932 14.82 29.6532 14.75 29.6132 14.73C29.5732 14.69 29.4832 14.69 29.3432 14.73C29.2432 14.75 29.1332 14.77 29.0132 14.79C28.9132 14.79 28.8132 14.81 28.7132 14.85C28.6332 14.87 28.5332 14.89 28.4132 14.91C28.3132 14.91 28.2132 14.92 28.1132 14.94L27.6932 15.03C27.5932 15.05 27.4832 15.08 27.3632 15.12C27.2632 15.14 27.1632 15.15 27.0632 15.15L26.5232 15.24C26.3632 15.28 26.1932 15.32 26.0132 15.36C25.8332 15.4 25.6632 15.44 25.5032 15.48C25.0232 15.6 24.5432 15.69 24.0632 15.75C23.9032 15.79 23.8132 15.86 23.7932 15.96C23.7732 15.96 23.7632 15.97 23.7632 15.99C23.6432 16.31 23.5032 16.63 23.3432 16.95C23.2032 17.25 23.0532 17.56 22.8932 17.88C22.8532 17.96 22.8132 18.04 22.7732 18.12C22.7532 18.18 22.7232 18.25 22.6832 18.33C22.6632 18.37 22.6432 18.42 22.6232 18.48C22.6032 18.52 22.5832 18.56 22.5632 18.6C22.4432 18.74 22.3832 18.91 22.3832 19.11C22.3632 19.23 22.3232 19.35 22.2632 19.47C22.2032 19.57 22.1432 19.67 22.0832 19.77C22.0632 19.83 22.0232 19.86 21.9632 19.86C21.8832 19.88 21.8032 19.91 21.7232 19.95C21.6432 19.99 21.5532 20.03 21.4532 20.07C21.3932 20.09 21.3332 20.09 21.2732 20.07C21.2332 20.05 21.1832 20.03 21.1232 20.01C21.0832 19.97 21.0432 19.95 21.0032 19.95C20.7832 19.93 20.6232 19.8 20.5232 19.56C20.3632 19.24 20.2532 18.92 20.1932 18.6C20.1732 18.52 20.1732 18.45 20.1932 18.39C20.2332 18.33 20.2632 18.27 20.2832 18.21C20.4032 18.13 20.4732 18.04 20.4932 17.94V17.91C20.4932 17.65 20.5432 17.41 20.6432 17.19C20.7632 16.95 20.8632 16.72 20.9432 16.5C20.9832 16.38 21.0332 16.26 21.0932 16.14C21.1532 16.02 21.2132 15.9 21.2732 15.78C21.3532 15.64 21.4132 15.51 21.4532 15.39C21.5132 15.25 21.5632 15.11 21.6032 14.97C21.6632 14.81 21.6632 14.66 21.6032 14.52C21.5632 14.4 21.5432 14.29 21.5432 14.19C21.5432 14.07 21.5532 13.95 21.5732 13.83C21.5732 13.61 21.6532 13.42 21.8132 13.26C21.8932 13.16 21.9732 13.08 22.0532 13.02C22.1532 12.94 22.2432 12.86 22.3232 12.78C22.5032 12.6 22.6432 12.36 22.7432 12.06C22.8232 11.8 22.8832 11.54 22.9232 11.28C22.9832 11 23.0432 10.73 23.1032 10.47C23.1432 10.21 23.1832 9.96 23.2232 9.72C23.2832 9.46 23.3432 9.21 23.4032 8.97C23.4232 8.87 23.4432 8.78 23.4632 8.7C23.5032 8.6 23.5332 8.51 23.5532 8.43C23.6132 8.27 23.6732 8.12 23.7332 7.98C23.7932 7.82 23.8332 7.66 23.8532 7.5C23.8932 7.42 23.8932 7.35 23.8532 7.29C23.8332 7.19 23.8332 7.1 23.8532 7.02C23.8932 6.94 23.9232 6.86 23.9432 6.78C24.0032 6.64 24.0432 6.5 24.0632 6.36C24.1032 6.22 24.1532 6.08 24.2132 5.94C24.3132 5.68 24.3932 5.47 24.4532 5.31C24.5332 5.13 24.6032 4.93 24.6632 4.71C24.7032 4.59 24.7432 4.48 24.7832 4.38C24.8432 4.26 24.8832 4.14 24.9032 4.02C24.9632 3.84 25.0132 3.66 25.0532 3.48C25.0932 3.28 25.1132 3.09 25.1132 2.91C25.1532 2.75 25.1932 2.64 25.2332 2.58C25.3332 2.38 25.4532 2.21 25.5932 2.07C25.7532 1.93 25.9032 1.79 26.0432 1.65C26.1432 1.59 26.2432 1.55 26.3432 1.53C26.4432 1.49 26.5432 1.5 26.6432 1.56C26.7232 1.6 26.7732 1.62 26.7932 1.62C26.9732 1.6 27.1232 1.64 27.2432 1.74C27.3632 1.84 27.4632 1.96 27.5432 2.1C27.5832 2.14 27.6132 2.19 27.6332 2.25C27.6532 2.31 27.6732 2.36 27.6932 2.4C27.7932 2.56 27.8432 2.72 27.8432 2.88C27.8432 2.96 27.8532 3.05 27.8732 3.15C27.8932 3.23 27.9132 3.32 27.9332 3.42C27.9932 3.54 28.0832 3.6 28.2032 3.6C28.2232 3.58 28.2432 3.58 28.2632 3.6C28.2832 3.62 28.2932 3.64 28.2932 3.66C28.3932 3.78 28.4232 3.91 28.3832 4.05C28.3432 4.21 28.3332 4.37 28.3532 4.53C28.3932 4.67 28.4332 4.82 28.4732 4.98C28.5532 5.18 28.6332 5.38 28.7132 5.58C28.7932 5.78 28.8732 5.98 28.9532 6.18C29.0532 6.4 29.1532 6.62 29.2532 6.84C29.3532 7.06 29.4432 7.28 29.5232 7.5C29.6232 7.78 29.7232 8.06 29.8232 8.34C29.9432 8.62 30.0732 8.9 30.2132 9.18L30.3032 9.51C30.3232 9.59 30.3432 9.67 30.3632 9.75C30.4032 9.83 30.4332 9.91 30.4532 9.99C30.4932 10.05 30.5232 10.11 30.5432 10.17C30.5832 10.23 30.6232 10.28 30.6632 10.32C30.7632 10.46 30.8232 10.61 30.8432 10.77C30.9032 10.97 30.9932 11.15 31.1132 11.31C31.1532 11.37 31.2132 11.4 31.2932 11.4C31.5932 11.36 31.8932 11.33 32.1932 11.31C32.4932 11.27 32.7932 11.21 33.0932 11.13C33.3132 11.07 33.5232 11.04 33.7232 11.04C34.1032 11.04 34.4532 11.17 34.7732 11.43C35.1532 11.73 35.3532 12.11 35.3732 12.57C35.3732 12.67 35.3832 12.75 35.4032 12.81C35.4032 12.95 35.3632 13.06 35.2832 13.14C35.2632 13.2 35.2232 13.26 35.1632 13.32C35.1232 13.38 35.0832 13.44 35.0432 13.5C35.0032 13.58 34.9632 13.64 34.9232 13.68L34.7432 13.83C34.7232 13.87 34.6932 13.92 34.6532 13.98C34.6132 14.02 34.5632 14.05 34.5032 14.07C34.4232 14.09 34.3432 14.12 34.2632 14.16C34.1832 14.18 34.0932 14.19 33.9932 14.19C33.6332 14.23 33.3132 14.22 33.0332 14.16H32.5532C32.5132 14.16 32.4532 14.18 32.3732 14.22C32.2932 14.26 32.2532 14.31 32.2532 14.37V14.49C32.3132 14.67 32.3532 14.86 32.3732 15.06C32.4132 15.24 32.4732 15.41 32.5532 15.57C32.5532 15.65 32.5732 15.73 32.6132 15.81C32.7132 15.99 32.7932 16.18 32.8532 16.38C32.9132 16.56 32.9632 16.75 33.0032 16.95C33.0032 16.99 33.0232 17.07 33.0632 17.19C33.1232 17.33 33.1732 17.48 33.2132 17.64C33.2532 17.78 33.2832 17.93 33.3032 18.09C33.3032 18.21 33.3332 18.32 33.3932 18.42C33.4732 18.6 33.5332 18.78 33.5732 18.96C33.6132 19.14 33.6432 19.33 33.6632 19.53C33.6832 19.55 33.6932 19.59 33.6932 19.65C33.6932 19.69 33.7032 19.73 33.7232 19.77C33.8232 19.99 33.8932 20.23 33.9332 20.49C33.9732 20.73 34.0232 20.97 34.0832 21.21C34.1232 21.33 34.1432 21.45 34.1432 21.57C34.1632 21.71 34.1732 21.85 34.1732 21.99C34.1732 22.09 34.1432 22.2 34.0832 22.32C34.0232 22.38 33.9932 22.41 33.9932 22.41C33.8732 22.43 33.8032 22.5 33.7832 22.62L33.6932 22.8C33.6532 22.88 33.5932 22.93 33.5132 22.95C33.4332 22.95 33.3632 22.98 33.3032 23.04C33.2232 23.12 33.1132 23.16 32.9732 23.16C32.8932 23.16 32.7932 23.16 32.6732 23.16C32.5732 23.16 32.4732 23.17 32.3732 23.19ZM25.1432 12.3C25.2632 12.28 25.3832 12.26 25.5032 12.24C25.6432 12.22 25.7932 12.2 25.9532 12.18C26.0532 12.16 26.1832 12.14 26.3432 12.12C26.5032 12.1 26.6532 12.08 26.7932 12.06C26.9332 12.02 27.0732 12 27.2132 12C27.3532 11.98 27.4932 11.96 27.6332 11.94C27.7532 11.9 27.8732 11.88 27.9932 11.88C28.1132 11.86 28.2332 11.84 28.3532 11.82C28.5332 11.78 28.6032 11.68 28.5632 11.52C28.5432 11.36 28.5032 11.2 28.4432 11.04C28.4032 10.86 28.3132 10.71 28.1732 10.59C28.1332 10.55 28.1132 10.49 28.1132 10.41V10.32C28.0732 10.16 28.0232 10.01 27.9632 9.87C27.9232 9.71 27.8732 9.56 27.8132 9.42C27.7732 9.26 27.7232 9.12 27.6632 9C27.6232 8.86 27.5732 8.72 27.5132 8.58L27.1532 7.5C27.0932 7.36 27.0332 7.22 26.9732 7.08C26.9332 6.94 26.8932 6.8 26.8532 6.66L26.7632 6.54H26.6732L26.6132 6.63C26.5132 6.93 26.3932 7.23 26.2532 7.53C26.1332 7.83 26.0232 8.15 25.9232 8.49C25.9232 8.53 25.9132 8.58 25.8932 8.64C25.8732 8.7 25.8532 8.76 25.8332 8.82C25.7532 9.02 25.6732 9.24 25.5932 9.48C25.5332 9.72 25.4832 9.96 25.4432 10.2C25.4232 10.34 25.4032 10.48 25.3832 10.62C25.3632 10.74 25.3332 10.87 25.2932 11.01L25.0232 12.18C25.0032 12.2 25.0132 12.23 25.0532 12.27C25.0932 12.29 25.1232 12.3 25.1432 12.3ZM41.0218 21.42C40.8818 21.42 40.7118 21.37 40.5118 21.27C40.4118 21.21 40.3318 21.13 40.2718 21.03C40.2518 20.97 40.2018 20.97 40.1218 21.03C40.0618 21.07 40.0118 21.07 39.9718 21.03C39.9118 20.97 39.8518 20.93 39.7918 20.91C39.7118 20.91 39.6718 20.88 39.6718 20.82C39.6718 20.76 39.6618 20.71 39.6418 20.67C39.6418 20.61 39.6218 20.56 39.5818 20.52C39.4618 20.48 39.3818 20.38 39.3418 20.22C39.3218 20.16 39.3018 20.11 39.2818 20.07C39.2618 20.01 39.2318 19.95 39.1918 19.89C39.1518 19.81 39.1318 19.74 39.1318 19.68C39.1118 19.62 39.0918 19.57 39.0718 19.53C39.0718 19.47 39.0518 19.41 39.0118 19.35C38.9918 19.21 38.9518 19.08 38.8918 18.96C38.8318 18.84 38.7818 18.71 38.7418 18.57C38.7018 18.49 38.6818 18.38 38.6818 18.24C38.6818 17.88 38.7418 17.55 38.8618 17.25C38.9618 17.07 38.9918 16.89 38.9518 16.71C38.9318 16.63 38.9318 16.55 38.9518 16.47C38.9918 16.39 39.0018 16.31 38.9818 16.23C38.9618 16.15 38.9418 16.08 38.9218 16.02C38.9218 15.96 38.9218 15.89 38.9218 15.81C38.9018 15.77 38.8918 15.72 38.8918 15.66C38.8918 15.54 38.8918 15.42 38.8918 15.3C38.8918 15.16 38.8718 15.02 38.8318 14.88C38.8118 14.82 38.8018 14.73 38.8018 14.61V13.5C38.7818 13.24 38.7518 12.98 38.7118 12.72C38.6718 12.46 38.6218 12.2 38.5618 11.94C38.5618 11.88 38.5518 11.82 38.5318 11.76C38.5318 11.7 38.5318 11.64 38.5318 11.58C38.5318 11.14 38.4618 10.71 38.3218 10.29V10.02C38.3618 9.8 38.3418 9.63 38.2618 9.51C38.2418 9.43 38.2318 9.32 38.2318 9.18V9.15C38.2318 8.95 38.2218 8.75 38.2018 8.55C38.2018 8.35 38.2118 8.15 38.2318 7.95C38.2718 7.59 38.2718 7.21 38.2318 6.81C38.2318 6.65 38.2318 6.49 38.2318 6.33C38.2318 6.17 38.2218 6.02 38.2018 5.88V5.7C38.2418 5.6 38.2618 5.51 38.2618 5.43C38.2618 5.35 38.2618 5.27 38.2618 5.19C38.2618 4.95 38.2518 4.72 38.2318 4.5C38.2318 4.26 38.2118 4.03 38.1718 3.81C38.1718 3.75 38.1718 3.69 38.1718 3.63C38.1718 3.55 38.1618 3.48 38.1418 3.42C38.1418 3.28 38.0918 3.16 37.9918 3.06L37.7818 2.88C37.5818 2.76 37.4518 2.57 37.3918 2.31C37.3718 2.27 37.3618 2.24 37.3618 2.22C37.3618 2.18 37.3518 2.14 37.3318 2.1C37.2918 2 37.3118 1.91 37.3918 1.83C37.4518 1.75 37.4918 1.67 37.5118 1.59C37.5118 1.53 37.5218 1.48 37.5418 1.44C37.5818 1.38 37.6118 1.32 37.6318 1.26C37.6518 1.2 37.6718 1.13 37.6918 1.05C37.7318 0.989999 37.7618 0.969999 37.7818 0.989998C37.9218 0.989998 38.0218 0.969999 38.0818 0.929999C38.2218 0.829999 38.3718 0.809999 38.5318 0.87C38.5718 0.89 38.6318 0.879999 38.7118 0.839998C38.7318 0.839998 38.7418 0.829999 38.7418 0.809999C38.8418 0.709999 38.9518 0.659999 39.0718 0.659999C39.1918 0.639999 39.3218 0.639999 39.4618 0.659999C39.4818 0.659999 39.5018 0.669999 39.5218 0.689999C39.5418 0.689999 39.5618 0.689999 39.5818 0.689999C39.7418 0.729999 39.8918 0.769999 40.0318 0.809999C40.1918 0.829999 40.3418 0.829999 40.4818 0.809999C40.5818 0.809999 40.6818 0.819999 40.7818 0.839998C40.9018 0.859999 41.0118 0.87 41.1118 0.87C41.1918 0.87 41.2618 0.88 41.3218 0.899999C41.4018 0.919999 41.4718 0.939999 41.5318 0.959999C41.6118 0.979998 41.6818 1.01 41.7418 1.05C41.8018 1.07 41.8718 1.08 41.9518 1.08C42.0518 1.1 42.1318 1.12 42.1918 1.14C42.2718 1.16 42.3518 1.19 42.4318 1.23C42.6918 1.37 42.9518 1.5 43.2118 1.62C43.3318 1.68 43.4418 1.76 43.5418 1.86C43.6818 1.96 43.8018 2.02 43.9018 2.04C43.9218 2.04 43.9418 2.05 43.9618 2.07C43.9818 2.07 44.0018 2.07 44.0218 2.07C44.0418 2.09 44.0618 2.1 44.0818 2.1C44.1018 2.1 44.1218 2.11 44.1418 2.13C44.2418 2.23 44.3618 2.31 44.5018 2.37C44.6618 2.41 44.7918 2.48 44.8918 2.58C44.9318 2.62 44.9918 2.66 45.0718 2.7C45.2318 2.76 45.3718 2.85 45.4918 2.97C45.5318 3.01 45.5618 3.03 45.5818 3.03C45.6618 3.03 45.7518 3.08 45.8518 3.18L46.4818 3.84C46.5618 3.92 46.6218 3.99 46.6618 4.05C46.7618 4.19 46.8718 4.32 46.9918 4.44C47.1118 4.56 47.2318 4.68 47.3518 4.8C47.3918 4.84 47.4318 4.89 47.4718 4.95C47.5318 4.99 47.5718 5.04 47.5918 5.1C47.6118 5.14 47.6418 5.18 47.6818 5.22C47.7218 5.24 47.7518 5.27 47.7718 5.31C47.9918 5.55 48.2018 5.8 48.4018 6.06C48.6218 6.32 48.8218 6.59 49.0018 6.87C49.1018 7.01 49.1918 7.16 49.2718 7.32C49.3518 7.48 49.4218 7.64 49.4818 7.8C49.5418 7.94 49.6018 8.08 49.6618 8.22C49.7418 8.36 49.8118 8.5 49.8718 8.64C49.9318 8.86 50.0018 9.06 50.0818 9.24C50.1618 9.5 50.2418 9.75 50.3218 9.99C50.4018 10.23 50.4718 10.49 50.5318 10.77L50.6218 11.16C50.6218 11.32 50.6218 11.49 50.6218 11.67C50.6418 11.83 50.6518 12 50.6518 12.18C50.6518 12.26 50.6418 12.33 50.6218 12.39C50.6218 12.45 50.6018 12.52 50.5618 12.6C50.5218 12.72 50.5018 12.83 50.5018 12.93C50.4818 13.13 50.4318 13.32 50.3518 13.5C50.2918 13.68 50.2218 13.85 50.1418 14.01C49.9618 14.33 49.8018 14.65 49.6618 14.97C49.6218 15.05 49.5818 15.13 49.5418 15.21C49.5218 15.27 49.4918 15.34 49.4518 15.42L49.2718 15.78C49.1318 16.06 48.9618 16.34 48.7618 16.62C48.5818 16.88 48.3818 17.13 48.1618 17.37C48.0818 17.47 47.9818 17.57 47.8618 17.67C47.7618 17.75 47.6618 17.84 47.5618 17.94C47.3618 18.12 47.1618 18.3 46.9618 18.48C46.7618 18.64 46.5518 18.8 46.3318 18.96C46.1318 19.1 45.9218 19.23 45.7018 19.35C45.5018 19.47 45.2818 19.57 45.0418 19.65C44.9218 19.67 44.8018 19.73 44.6818 19.83C44.5618 19.91 44.4318 19.99 44.2918 20.07C44.1718 20.15 44.0418 20.24 43.9018 20.34C43.8418 20.36 43.7818 20.39 43.7218 20.43C43.6618 20.45 43.5918 20.47 43.5118 20.49C43.4518 20.51 43.3818 20.53 43.3018 20.55C43.2418 20.57 43.1818 20.59 43.1218 20.61C43.0418 20.63 42.9618 20.66 42.8818 20.7C42.8218 20.74 42.7618 20.79 42.7018 20.85C42.5618 20.95 42.4118 21.03 42.2518 21.09C42.0918 21.17 41.9318 21.26 41.7718 21.36C41.7318 21.38 41.6618 21.39 41.5618 21.39C41.5018 21.41 41.4418 21.41 41.3818 21.39C41.3218 21.39 41.2618 21.39 41.2018 21.39V21.42H41.0218ZM42.2218 18.06C42.4218 18.06 42.5918 18.02 42.7318 17.94C42.8918 17.88 43.0418 17.81 43.1818 17.73C43.3218 17.65 43.4518 17.56 43.5718 17.46L43.9318 17.1C44.1318 16.94 44.3118 16.77 44.4718 16.59C44.6518 16.41 44.8418 16.25 45.0418 16.11C45.0818 16.07 45.1018 16.05 45.1018 16.05C45.1818 15.97 45.2518 15.9 45.3118 15.84C45.3918 15.76 45.4618 15.68 45.5218 15.6C45.5618 15.56 45.6118 15.51 45.6718 15.45C45.7318 15.39 45.7718 15.34 45.7918 15.3C45.8718 15.16 45.9818 15.04 46.1218 14.94C46.2218 14.88 46.2818 14.82 46.3018 14.76C46.3418 14.66 46.3918 14.56 46.4518 14.46C46.5318 14.36 46.6118 14.27 46.6918 14.19C46.7918 14.07 46.8918 13.89 46.9918 13.65L47.1118 13.35C47.2318 13.07 47.2918 12.81 47.2918 12.57C47.3118 12.51 47.3218 12.42 47.3218 12.3C47.3418 12 47.3218 11.68 47.2618 11.34C47.2418 11.24 47.2218 11.14 47.2018 11.04C47.1818 10.94 47.1718 10.85 47.1718 10.77C47.1518 10.69 47.1318 10.62 47.1118 10.56C47.1118 10.48 47.0918 10.41 47.0518 10.35C47.0118 10.27 46.9818 10.19 46.9618 10.11C46.9418 10.03 46.9218 9.95 46.9018 9.87C46.9018 9.73 46.8818 9.61 46.8418 9.51C46.8018 9.39 46.7618 9.27 46.7218 9.15C46.6618 9.03 46.6018 8.91 46.5418 8.79C46.4818 8.65 46.4318 8.51 46.3918 8.37L46.3618 8.25C46.3018 8.17 46.2518 8.09 46.2118 8.01C46.1918 7.91 46.1618 7.82 46.1218 7.74C46.0418 7.56 45.9618 7.38 45.8818 7.2C45.8218 7.02 45.7418 6.85 45.6418 6.69C45.5418 6.51 45.4318 6.33 45.3118 6.15C45.2118 5.97 45.0818 5.81 44.9218 5.67C44.4618 5.17 43.9318 4.72 43.3318 4.32C42.9718 4.06 42.6118 3.89 42.2518 3.81C42.1118 3.77 41.9518 3.74 41.7718 3.72C41.5918 3.68 41.4218 3.65 41.2618 3.63C41.2018 3.63 41.1518 3.65 41.1118 3.69C41.0118 3.77 40.9618 3.87 40.9618 3.99C40.9618 4.13 40.9518 4.28 40.9318 4.44C40.9318 4.58 40.9318 4.73 40.9318 4.89C40.9718 5.17 40.9618 5.4 40.9018 5.58C40.8818 5.66 40.8618 5.74 40.8418 5.82C40.8418 5.9 40.8518 5.99 40.8718 6.09C40.9118 6.21 40.9018 6.32 40.8418 6.42C40.7818 6.54 40.7818 6.67 40.8418 6.81C40.9218 6.97 40.9418 7.17 40.9018 7.41C40.8418 7.65 40.8418 7.89 40.9018 8.13C40.9218 8.21 40.9318 8.29 40.9318 8.37C40.9518 8.45 40.9518 8.54 40.9318 8.64C40.9318 8.86 40.9418 9.08 40.9618 9.3C41.0018 9.52 41.0318 9.74 41.0518 9.96C41.0518 10 41.0718 10.06 41.1118 10.14V10.62C41.1118 10.66 41.1018 10.71 41.0818 10.77C41.0818 10.81 41.0918 10.85 41.1118 10.89C41.1518 11.05 41.1818 11.22 41.2018 11.4C41.2418 11.56 41.2818 11.72 41.3218 11.88C41.3218 11.92 41.3318 11.97 41.3518 12.03C41.3718 12.07 41.3818 12.12 41.3818 12.18C41.3818 12.32 41.3918 12.46 41.4118 12.6C41.4318 12.74 41.4518 12.89 41.4718 13.05C41.5318 13.61 41.6218 14.18 41.7418 14.76C41.8018 15 41.8318 15.25 41.8318 15.51C41.8318 15.57 41.8318 15.64 41.8318 15.72C41.8318 15.78 41.8418 15.84 41.8618 15.9C41.9018 16.04 41.9218 16.18 41.9218 16.32C41.9218 16.46 41.9218 16.6 41.9218 16.74C41.9218 16.78 41.9118 16.83 41.8918 16.89C41.8918 16.95 41.9018 17 41.9218 17.04C41.9618 17.14 41.9818 17.24 41.9818 17.34C41.9818 17.42 41.9818 17.51 41.9818 17.61C41.9818 17.69 42.0018 17.79 42.0418 17.91C42.0418 18.01 42.1018 18.06 42.2218 18.06ZM81.966 21.3C81.846 21.28 81.726 21.27 81.606 21.27C81.486 21.27 81.376 21.24 81.276 21.18C81.116 21.12 80.986 21.05 80.886 20.97C80.686 20.79 80.506 20.58 80.346 20.34C80.326 20.3 80.306 20.25 80.286 20.19C80.266 20.13 80.236 20.08 80.196 20.04C80.116 19.86 80.036 19.68 79.956 19.5C79.876 19.32 79.786 19.14 79.686 18.96C79.586 18.78 79.486 18.6 79.386 18.42C79.286 18.24 79.186 18.06 79.086 17.88C78.986 17.7 78.886 17.52 78.786 17.34C78.686 17.16 78.596 16.97 78.516 16.77L78.336 16.47C78.256 16.33 78.176 16.19 78.096 16.05C78.016 15.91 77.956 15.77 77.916 15.63C77.896 15.57 77.846 15.48 77.766 15.36L77.496 14.91C77.436 14.77 77.366 14.63 77.286 14.49C77.226 14.35 77.146 14.22 77.046 14.1L76.866 13.83C76.546 13.31 76.246 12.77 75.966 12.21C75.906 12.09 75.836 11.97 75.756 11.85C75.696 11.73 75.626 11.61 75.546 11.49C75.526 11.41 75.486 11.34 75.426 11.28C75.386 11.22 75.346 11.16 75.306 11.1C75.266 11.04 75.216 11.04 75.156 11.1C75.136 11.16 75.116 11.22 75.096 11.28C75.076 11.32 75.056 11.37 75.036 11.43C74.956 11.65 74.886 11.87 74.826 12.09C74.766 12.31 74.706 12.53 74.646 12.75C74.606 12.95 74.556 13.14 74.496 13.32C74.436 13.5 74.386 13.68 74.346 13.86C74.326 14 74.306 14.14 74.286 14.28C74.266 14.4 74.236 14.52 74.196 14.64C74.196 14.7 74.186 14.76 74.166 14.82C74.166 14.86 74.156 14.91 74.136 14.97C74.056 15.27 73.996 15.58 73.956 15.9C73.936 16.2 73.906 16.51 73.866 16.83V17.01C73.886 17.09 73.886 17.16 73.866 17.22C73.866 17.28 73.856 17.34 73.836 17.4C73.776 17.56 73.766 17.74 73.806 17.94C73.826 18.02 73.836 18.1 73.836 18.18C73.856 18.26 73.856 18.34 73.836 18.42C73.816 18.62 73.796 18.82 73.776 19.02C73.776 19.2 73.776 19.38 73.776 19.56C73.776 19.74 73.746 19.92 73.686 20.1C73.646 20.18 73.596 20.23 73.536 20.25C73.456 20.33 73.406 20.4 73.386 20.46C73.366 20.54 73.316 20.6 73.236 20.64C73.176 20.68 73.126 20.72 73.086 20.76C73.066 20.78 73.036 20.79 72.996 20.79C72.936 20.79 72.896 20.8 72.876 20.82C72.816 20.84 72.756 20.86 72.696 20.88C72.656 20.9 72.616 20.92 72.576 20.94C72.516 20.94 72.446 20.94 72.366 20.94C72.306 20.92 72.246 20.91 72.186 20.91C71.966 20.89 71.806 20.86 71.706 20.82C71.606 20.78 71.466 20.65 71.286 20.43C71.266 20.37 71.236 20.32 71.196 20.28C71.156 20.22 71.116 20.16 71.076 20.1C70.936 19.92 70.846 19.72 70.806 19.5C70.786 19.22 70.726 18.94 70.626 18.66C70.546 18.38 70.446 18.11 70.326 17.85C70.306 17.77 70.276 17.69 70.236 17.61C70.216 17.53 70.186 17.46 70.146 17.4C70.006 17.08 69.866 16.77 69.726 16.47C69.606 16.15 69.476 15.83 69.336 15.51C69.316 15.49 69.306 15.47 69.306 15.45C69.306 15.43 69.296 15.41 69.276 15.39C69.156 15.21 69.046 15.03 68.946 14.85C68.866 14.65 68.776 14.45 68.676 14.25C68.576 14.03 68.446 13.8 68.286 13.56C68.246 13.46 68.196 13.37 68.136 13.29C68.096 13.21 68.056 13.13 68.016 13.05C67.996 13.01 67.976 12.96 67.956 12.9C67.956 12.84 67.936 12.79 67.896 12.75C67.736 12.53 67.596 12.29 67.476 12.03C67.376 11.77 67.256 11.52 67.116 11.28L66.786 10.74C66.726 10.64 66.656 10.54 66.576 10.44C66.516 10.34 66.456 10.25 66.396 10.17C66.336 10.07 66.276 9.99 66.216 9.93C66.156 9.85 66.106 9.77 66.066 9.69C65.986 9.57 65.906 9.46 65.826 9.36C65.746 9.24 65.676 9.13 65.616 9.03C65.536 8.91 65.456 8.8 65.376 8.7C65.296 8.58 65.216 8.47 65.136 8.37C64.996 8.15 64.886 7.94 64.806 7.74C64.786 7.64 64.786 7.55 64.806 7.47C64.846 7.31 64.876 7.16 64.896 7.02C64.936 6.86 64.976 6.71 65.016 6.57L65.106 6.45C65.186 6.37 65.256 6.3 65.316 6.24C65.396 6.18 65.476 6.12 65.556 6.06C65.636 6.02 65.686 6 65.706 6C65.926 5.92 66.136 5.88 66.336 5.88C66.536 5.88 66.736 5.93 66.936 6.03C67.036 6.07 67.136 6.12 67.236 6.18C67.456 6.3 67.596 6.46 67.656 6.66C67.696 6.76 67.736 6.86 67.776 6.96C67.836 7.06 67.876 7.16 67.896 7.26C68.056 7.68 68.276 8.08 68.556 8.46C68.716 8.68 68.886 8.93 69.066 9.21C69.106 9.23 69.136 9.26 69.156 9.3C69.176 9.34 69.196 9.37 69.216 9.39C69.336 9.53 69.446 9.69 69.546 9.87C69.646 10.05 69.736 10.22 69.816 10.38C69.896 10.52 69.956 10.66 69.996 10.8C70.056 10.92 70.116 11.05 70.176 11.19C70.336 11.55 70.486 11.91 70.626 12.27C70.766 12.63 70.906 12.98 71.046 13.32C71.086 13.44 71.136 13.55 71.196 13.65C71.256 13.75 71.306 13.86 71.346 13.98C71.346 13.98 71.346 13.99 71.346 14.01C71.366 14.01 71.376 14 71.376 13.98C71.416 13.98 71.436 13.97 71.436 13.95C71.536 13.79 71.596 13.64 71.616 13.5L71.886 12.54C71.926 12.42 71.966 12.3 72.006 12.18C72.046 12.06 72.086 11.93 72.126 11.79C72.246 11.51 72.336 11.23 72.396 10.95C72.416 10.79 72.476 10.62 72.576 10.44C72.636 10.34 72.666 10.23 72.666 10.11L72.756 9.81C72.876 9.45 72.996 9.09 73.116 8.73C73.236 8.37 73.376 8.03 73.536 7.71C73.596 7.59 73.656 7.48 73.716 7.38C73.776 7.26 73.836 7.15 73.896 7.05C73.936 6.97 73.986 6.9 74.046 6.84C74.106 6.78 74.176 6.74 74.256 6.72C74.336 6.62 74.426 6.56 74.526 6.54C74.626 6.52 74.716 6.48 74.796 6.42C74.816 6.4 74.866 6.39 74.946 6.39C75.006 6.39 75.076 6.41 75.156 6.45C75.256 6.49 75.346 6.48 75.426 6.42C75.526 6.34 75.616 6.36 75.696 6.48C75.736 6.56 75.786 6.63 75.846 6.69C75.926 6.73 75.996 6.77 76.056 6.81C76.096 6.85 76.136 6.89 76.176 6.93C76.236 6.97 76.276 7.02 76.296 7.08L77.286 8.79C77.386 8.95 77.486 9.12 77.586 9.3C77.686 9.46 77.776 9.63 77.856 9.81C77.936 9.91 77.996 10.02 78.036 10.14C78.096 10.26 78.156 10.39 78.216 10.53C78.336 10.85 78.506 11.17 78.726 11.49C78.766 11.55 78.806 11.61 78.846 11.67C78.886 11.73 78.916 11.79 78.936 11.85C79.036 12.09 79.146 12.33 79.266 12.57C79.406 12.81 79.536 13.06 79.656 13.32C79.676 13.36 79.696 13.41 79.716 13.47C79.756 13.53 79.786 13.58 79.806 13.62C79.906 13.88 80.026 14.14 80.166 14.4C80.306 14.64 80.446 14.88 80.586 15.12C80.606 15.16 80.656 15.22 80.736 15.3C80.736 15.3 80.746 15.3 80.766 15.3C80.786 15.3 80.796 15.29 80.796 15.27C80.816 15.25 80.846 15.2 80.886 15.12C80.946 14.94 81.006 14.77 81.066 14.61C81.126 14.43 81.166 14.25 81.186 14.07C81.226 13.91 81.266 13.78 81.306 13.68C81.406 13.36 81.496 13.05 81.576 12.75C81.656 12.43 81.736 12.11 81.816 11.79C81.856 11.67 81.896 11.55 81.936 11.43C81.976 11.29 82.016 11.16 82.056 11.04C82.176 10.62 82.296 10.21 82.416 9.81C82.536 9.39 82.646 8.97 82.746 8.55L83.106 7.05C83.146 6.93 83.146 6.81 83.106 6.69C83.066 6.59 83.076 6.51 83.136 6.45C83.216 6.35 83.276 6.24 83.316 6.12C83.356 6 83.396 5.89 83.436 5.79C83.496 5.59 83.576 5.37 83.676 5.13C83.696 5.07 83.726 5.01 83.766 4.95C83.806 4.89 83.836 4.83 83.856 4.77C83.936 4.65 84.026 4.58 84.126 4.56C84.186 4.52 84.246 4.49 84.306 4.47C84.366 4.43 84.426 4.4 84.486 4.38C84.506 4.36 84.526 4.35 84.546 4.35C84.586 4.35 84.616 4.34 84.636 4.32C84.736 4.28 84.836 4.26 84.936 4.26C85.056 4.24 85.156 4.2 85.236 4.14C85.356 4.06 85.496 4.07 85.656 4.17C85.816 4.29 85.946 4.4 86.046 4.5C86.166 4.62 86.246 4.8 86.286 5.04C86.306 5.1 86.316 5.16 86.316 5.22C86.316 5.28 86.316 5.34 86.316 5.4C86.276 5.84 86.186 6.27 86.046 6.69C86.006 6.81 85.966 6.94 85.926 7.08C85.886 7.2 85.846 7.32 85.806 7.44C85.806 7.46 85.796 7.49 85.776 7.53C85.776 7.55 85.776 7.58 85.776 7.62C85.756 7.94 85.706 8.26 85.626 8.58C85.546 8.9 85.456 9.21 85.356 9.51C85.276 9.77 85.206 10.03 85.146 10.29C85.086 10.55 85.016 10.81 84.936 11.07C84.916 11.11 84.896 11.17 84.876 11.25C84.876 11.31 84.856 11.36 84.816 11.4C84.756 11.52 84.716 11.65 84.696 11.79C84.676 11.91 84.646 12.04 84.606 12.18C84.586 12.26 84.566 12.34 84.546 12.42C84.546 12.48 84.526 12.55 84.486 12.63C84.426 12.85 84.366 13.08 84.306 13.32C84.246 13.54 84.196 13.76 84.156 13.98L83.886 15C83.866 15.08 83.846 15.16 83.826 15.24C83.826 15.3 83.816 15.37 83.796 15.45C83.796 15.51 83.786 15.57 83.766 15.63C83.766 15.69 83.756 15.76 83.736 15.84C83.716 15.96 83.686 16.09 83.646 16.23C83.626 16.35 83.606 16.48 83.586 16.62C83.566 16.76 83.546 16.9 83.526 17.04C83.506 17.16 83.486 17.3 83.466 17.46C83.466 17.54 83.456 17.62 83.436 17.7C83.436 17.78 83.436 17.87 83.436 17.97L83.346 18.6C83.346 18.8 83.336 18.99 83.316 19.17C83.296 19.35 83.266 19.54 83.226 19.74C83.206 19.78 83.196 19.83 83.196 19.89C83.196 19.95 83.196 20 83.196 20.04C83.196 20.22 83.156 20.36 83.076 20.46C83.056 20.52 83.026 20.58 82.986 20.64C82.946 20.7 82.906 20.76 82.866 20.82L82.716 20.97C82.656 20.99 82.596 21.02 82.536 21.06C82.476 21.12 82.416 21.17 82.356 21.21C82.236 21.27 82.106 21.3 81.966 21.3ZM95.2257 21.6C95.0257 21.58 94.8257 21.55 94.6257 21.51C94.4457 21.49 94.2657 21.44 94.0857 21.36L93.3357 21.09C93.0757 20.99 92.8357 20.88 92.6157 20.76C92.3957 20.62 92.1757 20.48 91.9557 20.34C91.8557 20.24 91.7557 20.15 91.6557 20.07C91.5557 19.97 91.4557 19.88 91.3557 19.8C91.1957 19.64 91.0357 19.48 90.8757 19.32C90.7157 19.14 90.5657 18.95 90.4257 18.75L89.7057 17.64C89.5257 17.36 89.3657 17.07 89.2257 16.77C89.0857 16.45 88.9657 16.13 88.8657 15.81C88.6457 15.21 88.5357 14.62 88.5357 14.04V13.56C88.5357 13.06 88.5657 12.57 88.6257 12.09C88.6657 11.69 88.7557 11.33 88.8957 11.01C88.9757 10.81 89.0457 10.61 89.1057 10.41C89.1657 10.21 89.2357 10.02 89.3157 9.84L89.4057 9.63C89.4457 9.37 89.5357 9.14 89.6757 8.94C89.8157 8.72 89.9357 8.51 90.0357 8.31C90.1157 8.15 90.2057 8.01 90.3057 7.89C90.4057 7.75 90.4957 7.61 90.5757 7.47C90.6157 7.41 90.6657 7.36 90.7257 7.32C90.7857 7.26 90.8357 7.2 90.8757 7.14C90.9157 7.1 90.9457 7.05 90.9657 6.99C91.0057 6.91 91.0357 6.84 91.0557 6.78C91.0957 6.72 91.1657 6.64 91.2657 6.54C91.3857 6.48 91.4957 6.34 91.5957 6.12C91.6357 6.04 91.6757 5.98 91.7157 5.94C91.8357 5.84 91.9357 5.72 92.0157 5.58C92.1157 5.44 92.2257 5.31 92.3457 5.19C92.4257 5.11 92.4657 5 92.4657 4.86C92.4657 4.76 92.4657 4.67 92.4657 4.59C92.4857 4.49 92.4857 4.4 92.4657 4.32C92.4457 4.22 92.4757 4.13 92.5557 4.05C92.5957 4.01 92.6257 3.96 92.6457 3.9C92.6657 3.84 92.6857 3.78 92.7057 3.72C92.7657 3.52 92.9257 3.35 93.1857 3.21C93.2257 3.17 93.2757 3.15 93.3357 3.15C93.4157 3.13 93.4857 3.11 93.5457 3.09C93.6857 3.03 93.8457 3.02 94.0257 3.06C94.1057 3.08 94.1757 3.09 94.2357 3.09C94.2957 3.07 94.3557 3.05 94.4157 3.03C94.4957 2.99 94.5657 2.96 94.6257 2.94C94.7057 2.92 94.7757 2.9 94.8357 2.88C95.1157 2.78 95.4057 2.79 95.7057 2.91C96.0257 3.03 96.2557 3.24 96.3957 3.54C96.4357 3.64 96.4757 3.74 96.5157 3.84C96.5557 3.94 96.5857 4.04 96.6057 4.14C96.6457 4.36 96.6357 4.55 96.5757 4.71C96.5357 4.79 96.5157 4.84 96.5157 4.86C96.4957 4.94 96.5157 5.01 96.5757 5.07C96.6157 5.13 96.6657 5.18 96.7257 5.22C96.9457 5.42 97.1557 5.62 97.3557 5.82C97.5557 6 97.7457 6.2 97.9257 6.42C98.0857 6.58 98.2157 6.75 98.3157 6.93C98.4357 7.09 98.5457 7.27 98.6457 7.47C98.6857 7.57 98.7357 7.68 98.7957 7.8C98.8557 7.9 98.9157 8 98.9757 8.1C99.0757 8.28 99.1557 8.47 99.2157 8.67C99.2957 8.87 99.3757 9.07 99.4557 9.27V9.3C99.4957 9.44 99.5257 9.59 99.5457 9.75C99.5857 9.89 99.6457 10.04 99.7257 10.2C99.7857 10.34 99.8357 10.49 99.8757 10.65C99.9157 10.79 99.9557 10.94 99.9957 11.1C100.036 11.28 100.076 11.46 100.116 11.64C100.176 11.82 100.216 12 100.236 12.18C100.256 12.26 100.276 12.34 100.296 12.42C100.316 12.48 100.336 12.55 100.356 12.63C100.396 12.81 100.436 12.99 100.476 13.17C100.516 13.35 100.546 13.53 100.566 13.71L100.656 13.92C100.696 14.04 100.736 14.2 100.776 14.4C100.836 14.66 100.866 14.92 100.866 15.18C100.886 15.44 100.886 15.71 100.866 15.99C100.866 16.13 100.856 16.24 100.836 16.32C100.716 16.74 100.566 17.17 100.386 17.61C100.306 17.75 100.226 17.89 100.146 18.03C100.066 18.15 99.9857 18.28 99.9057 18.42L99.6357 18.84C99.5357 19.02 99.4257 19.18 99.3057 19.32C99.1057 19.64 98.8657 19.92 98.5857 20.16C98.3057 20.4 98.0057 20.63 97.6857 20.85C96.9857 21.39 96.1657 21.64 95.2257 21.6ZM95.1057 18.63C95.5257 18.63 95.8857 18.51 96.1857 18.27C96.2857 18.17 96.3857 18.08 96.4857 18C96.6057 17.9 96.7057 17.8 96.7857 17.7C97.1657 17.28 97.4657 16.84 97.6857 16.38L97.7757 16.08C97.8157 15.72 97.8157 15.36 97.7757 15L97.5957 14.01C97.5357 13.75 97.4857 13.5 97.4457 13.26C97.4057 13 97.3457 12.75 97.2657 12.51C97.2057 12.37 97.1857 12.26 97.2057 12.18C97.2257 12.08 97.2257 11.98 97.2057 11.88C97.1857 11.78 97.1557 11.68 97.1157 11.58C97.0557 11.32 96.9857 11.06 96.9057 10.8C96.8257 10.54 96.7457 10.28 96.6657 10.02C96.6457 9.96 96.6257 9.9 96.6057 9.84C96.5857 9.78 96.5657 9.72 96.5457 9.66C96.4057 9.38 96.2557 9.11 96.0957 8.85C95.9357 8.59 95.7557 8.35 95.5557 8.13C95.4557 8.01 95.3457 7.9 95.2257 7.8C95.1057 7.68 94.9857 7.57 94.8657 7.47C94.8457 7.43 94.8157 7.41 94.7757 7.41C94.7557 7.39 94.7257 7.37 94.6857 7.35C94.6257 7.27 94.5457 7.28 94.4457 7.38C94.3457 7.48 94.2357 7.59 94.1157 7.71C94.0157 7.83 93.9157 7.95 93.8157 8.07C93.7157 8.21 93.6057 8.35 93.4857 8.49C93.3857 8.63 93.2857 8.77 93.1857 8.91C93.0457 9.09 92.9157 9.27 92.7957 9.45C92.6757 9.63 92.5557 9.81 92.4357 9.99C92.0157 10.67 91.6857 11.42 91.4457 12.24C91.4057 12.36 91.3857 12.45 91.3857 12.51C91.3657 12.65 91.3457 12.79 91.3257 12.93C91.3257 13.07 91.3257 13.22 91.3257 13.38V13.62C91.3457 13.68 91.3557 13.74 91.3557 13.8C91.3557 13.86 91.3657 13.92 91.3857 13.98C91.3857 14.22 91.4457 14.48 91.5657 14.76C91.7257 15.16 91.9057 15.55 92.1057 15.93C92.3057 16.31 92.5357 16.67 92.7957 17.01C92.8557 17.09 92.9157 17.17 92.9757 17.25C93.0557 17.33 93.1257 17.41 93.1857 17.49C93.3657 17.69 93.5557 17.87 93.7557 18.03C93.9757 18.19 94.1957 18.33 94.4157 18.45C94.6557 18.57 94.8857 18.63 95.1057 18.63ZM106.296 21.6C105.916 21.64 105.606 21.52 105.366 21.24C105.246 21.12 105.136 20.99 105.036 20.85C104.936 20.71 104.856 20.56 104.796 20.4C104.696 20.12 104.606 19.84 104.526 19.56C104.446 19.26 104.376 18.97 104.316 18.69C104.256 18.47 104.226 18.26 104.226 18.06C104.206 17.84 104.176 17.63 104.136 17.43C104.116 17.21 104.106 16.99 104.106 16.77C104.106 16.65 104.106 16.53 104.106 16.41C104.106 16.27 104.096 16.14 104.076 16.02C104.056 15.94 104.046 15.87 104.046 15.81C104.046 15.75 104.046 15.68 104.046 15.6C104.046 15.32 104.046 15.04 104.046 14.76C104.046 14.46 104.036 14.17 104.016 13.89C104.016 13.73 104.006 13.59 103.986 13.47C103.966 13.33 103.926 13.19 103.866 13.05C103.786 12.83 103.776 12.59 103.836 12.33C103.836 12.27 103.846 12.23 103.866 12.21C103.906 12.07 103.926 11.93 103.926 11.79C103.946 11.65 103.946 11.51 103.926 11.37C103.906 11.27 103.896 11.17 103.896 11.07C103.896 10.97 103.896 10.88 103.896 10.8C103.876 10.58 103.866 10.36 103.866 10.14C103.886 9.9 103.906 9.67 103.926 9.45C103.946 9.39 103.956 9.33 103.956 9.27C103.956 9.21 103.956 9.15 103.956 9.09C103.936 8.87 103.936 8.66 103.956 8.46C103.996 8.26 104.026 8.06 104.046 7.86C104.086 7.62 104.126 7.39 104.166 7.17C104.206 6.93 104.256 6.69 104.316 6.45C104.356 6.35 104.376 6.24 104.376 6.12C104.376 6 104.376 5.88 104.376 5.76C104.376 5.66 104.366 5.56 104.346 5.46C104.346 5.36 104.346 5.27 104.346 5.19C104.346 5.13 104.346 5.07 104.346 5.01C104.346 4.95 104.356 4.89 104.376 4.83C104.396 4.77 104.406 4.71 104.406 4.65C104.406 4.59 104.416 4.55 104.436 4.53C104.496 4.45 104.546 4.38 104.586 4.32C104.626 4.24 104.686 4.17 104.766 4.11C104.866 4.05 104.956 3.99 105.036 3.93C105.136 3.87 105.226 3.82 105.306 3.78C105.406 3.74 105.486 3.69 105.546 3.63C105.626 3.53 105.706 3.44 105.786 3.36C105.886 3.26 105.966 3.15 106.026 3.03C106.126 2.93 106.226 2.82 106.326 2.7C106.446 2.56 106.576 2.45 106.716 2.37C106.756 2.35 106.816 2.3 106.896 2.22C107.136 2 107.416 1.86 107.736 1.8C107.796 1.78 107.846 1.77 107.886 1.77C107.946 1.75 108.006 1.74 108.066 1.74L108.276 1.65C108.436 1.59 108.576 1.62 108.696 1.74C108.736 1.8 108.786 1.86 108.846 1.92C108.926 1.96 108.996 2 109.056 2.04C109.216 2.18 109.366 2.33 109.506 2.49C109.666 2.65 109.806 2.83 109.926 3.03C110.126 3.35 110.296 3.67 110.436 3.99C110.596 4.31 110.746 4.64 110.886 4.98L111.426 6.27C111.446 6.39 111.496 6.5 111.576 6.6C111.736 6.9 111.856 7.21 111.936 7.53C112.016 7.83 112.096 8.14 112.176 8.46C112.196 8.5 112.206 8.54 112.206 8.58C112.226 8.62 112.236 8.66 112.236 8.7C112.276 8.86 112.306 9.03 112.326 9.21C112.366 9.37 112.376 9.53 112.356 9.69C112.376 9.87 112.366 10.05 112.326 10.23C112.306 10.39 112.276 10.55 112.236 10.71C112.176 10.91 112.106 11.1 112.026 11.28C111.946 11.44 111.856 11.61 111.756 11.79C111.716 11.91 111.646 12.02 111.546 12.12C111.446 12.22 111.346 12.31 111.246 12.39C111.086 12.47 110.926 12.59 110.766 12.75C110.726 12.79 110.676 12.82 110.616 12.84C110.576 12.86 110.536 12.89 110.496 12.93C110.356 12.99 110.206 13.06 110.046 13.14C109.886 13.2 109.726 13.26 109.566 13.32C109.546 13.32 109.536 13.34 109.536 13.38C109.536 13.4 109.546 13.42 109.566 13.44L110.376 14.01C110.476 14.07 110.566 14.13 110.646 14.19C110.726 14.23 110.806 14.28 110.886 14.34L111.066 14.43C111.306 14.57 111.546 14.72 111.786 14.88C112.026 15.04 112.256 15.2 112.476 15.36C112.896 15.62 113.316 15.89 113.736 16.17C114.156 16.43 114.556 16.72 114.936 17.04C115.276 17.3 115.576 17.6 115.836 17.94C115.896 18 115.956 18.07 116.016 18.15C116.076 18.21 116.146 18.26 116.226 18.3L116.316 18.39C116.636 18.67 116.816 19.05 116.856 19.53C116.856 19.59 116.846 19.65 116.826 19.71C116.826 19.77 116.826 19.83 116.826 19.89C116.826 20.01 116.786 20.11 116.706 20.19C116.626 20.23 116.586 20.28 116.586 20.34C116.526 20.48 116.436 20.58 116.316 20.64C116.216 20.68 116.116 20.74 116.016 20.82C115.976 20.84 115.906 20.85 115.806 20.85C115.686 20.83 115.556 20.81 115.416 20.79C115.296 20.77 115.176 20.76 115.056 20.76C114.896 20.76 114.726 20.69 114.546 20.55C114.426 20.45 114.316 20.36 114.216 20.28C114.116 20.18 114.016 20.06 113.916 19.92C113.656 19.56 113.316 19.23 112.896 18.93C112.696 18.77 112.506 18.62 112.326 18.48C112.146 18.34 111.946 18.21 111.726 18.09C111.586 18.01 111.446 17.93 111.306 17.85C111.186 17.75 111.046 17.66 110.886 17.58C110.386 17.24 109.876 16.91 109.356 16.59C108.836 16.25 108.316 15.91 107.796 15.57C107.716 15.51 107.626 15.45 107.526 15.39C107.426 15.33 107.326 15.27 107.226 15.21C107.186 15.17 107.126 15.13 107.046 15.09C106.966 15.09 106.926 15.12 106.926 15.18C106.926 15.2 106.916 15.22 106.896 15.24C106.896 15.24 106.896 15.25 106.896 15.27C106.896 15.33 106.896 15.39 106.896 15.45C106.896 15.51 106.906 15.57 106.926 15.63C106.946 15.79 106.956 15.95 106.956 16.11C106.956 16.25 106.956 16.4 106.956 16.56C106.956 16.68 106.956 16.8 106.956 16.92C106.976 17.02 106.996 17.13 107.016 17.25C107.016 17.31 107.016 17.38 107.016 17.46C107.036 17.52 107.046 17.58 107.046 17.64C107.026 17.82 107.036 18 107.076 18.18C107.116 18.36 107.146 18.54 107.166 18.72L107.346 19.5C107.366 19.58 107.386 19.67 107.406 19.77C107.426 19.85 107.446 19.94 107.466 20.04C107.486 20.12 107.486 20.2 107.466 20.28C107.466 20.34 107.456 20.41 107.436 20.49C107.436 20.51 107.416 20.54 107.376 20.58C107.276 20.6 107.206 20.67 107.166 20.79C107.106 20.93 107.016 21.05 106.896 21.15C106.796 21.27 106.686 21.38 106.566 21.48C106.546 21.5 106.506 21.52 106.446 21.54C106.386 21.56 106.336 21.58 106.296 21.6ZM107.466 11.1H107.526C107.746 11.06 107.966 11.02 108.186 10.98C108.426 10.92 108.656 10.85 108.876 10.77C109.096 10.71 109.286 10.6 109.446 10.44C109.586 10.3 109.656 10.14 109.656 9.96C109.676 9.82 109.676 9.69 109.656 9.57C109.656 9.43 109.636 9.29 109.596 9.15C109.516 8.79 109.426 8.44 109.326 8.1C109.226 7.74 109.106 7.4 108.966 7.08L108.696 6.36C108.636 6.16 108.566 5.97 108.486 5.79C108.406 5.59 108.316 5.4 108.216 5.22C108.196 5.18 108.176 5.14 108.156 5.1C108.136 5.04 108.116 4.99 108.096 4.95L107.976 4.83C107.916 4.75 107.846 4.75 107.766 4.83C107.746 4.83 107.716 4.85 107.676 4.89C107.536 5.07 107.406 5.26 107.286 5.46C107.186 5.66 107.126 5.88 107.106 6.12C107.086 6.2 107.066 6.28 107.046 6.36C107.046 6.44 107.046 6.53 107.046 6.63V7.92C107.026 8.2 107.016 8.49 107.016 8.79C107.036 9.09 107.026 9.38 106.986 9.66C106.966 9.72 106.956 9.78 106.956 9.84C106.976 9.9 106.986 9.96 106.986 10.02C107.006 10.14 107.016 10.26 107.016 10.38C107.016 10.48 107.016 10.59 107.016 10.71C107.016 10.91 107.036 11.03 107.076 11.07C107.136 11.11 107.266 11.12 107.466 11.1ZM121.79 21.09C121.63 21.15 121.45 21.13 121.25 21.03L120.65 20.76C120.55 20.72 120.47 20.63 120.41 20.49L120.32 20.31C120.28 20.21 120.23 20.14 120.17 20.1C120.07 20.02 120 19.88 119.96 19.68C119.92 19.48 119.89 19.28 119.87 19.08C119.85 18.88 119.83 18.68 119.81 18.48C119.79 18.32 119.78 18.16 119.78 18C119.78 17.84 119.78 17.69 119.78 17.55L119.81 17.34C119.85 17.24 119.87 17.14 119.87 17.04C119.87 16.94 119.87 16.85 119.87 16.77V11.31C119.91 11.03 119.93 10.75 119.93 10.47C119.93 10.17 119.93 9.88 119.93 9.6C119.95 9.32 119.96 9.05 119.96 8.79C119.96 8.51 119.94 8.24 119.9 7.98C119.88 7.88 119.87 7.77 119.87 7.65C119.87 7.53 119.87 7.41 119.87 7.29C119.87 7.11 119.87 6.93 119.87 6.75C119.87 6.57 119.85 6.39 119.81 6.21V6.12C119.81 5.84 119.79 5.57 119.75 5.31C119.73 5.03 119.71 4.76 119.69 4.5C119.67 4.34 119.65 4.19 119.63 4.05C119.61 3.91 119.58 3.77 119.54 3.63C119.52 3.55 119.51 3.47 119.51 3.39C119.51 3.31 119.51 3.23 119.51 3.15C119.51 3.01 119.53 2.88 119.57 2.76C119.61 2.62 119.65 2.49 119.69 2.37C119.71 2.33 119.76 2.27 119.84 2.19C119.88 2.15 119.92 2.12 119.96 2.1C120 2.08 120.03 2.06 120.05 2.04C120.17 1.88 120.33 1.81 120.53 1.83C120.57 1.85 120.63 1.84 120.71 1.8C120.81 1.72 120.9 1.71 120.98 1.77C121.04 1.81 121.14 1.81 121.28 1.77C121.34 1.77 121.39 1.79 121.43 1.83C121.49 1.91 121.57 1.97 121.67 2.01C121.77 2.05 121.84 2.11 121.88 2.19C121.94 2.25 122 2.31 122.06 2.37C122.1 2.43 122.14 2.49 122.18 2.55C122.24 2.59 122.27 2.65 122.27 2.73C122.29 2.81 122.29 2.89 122.27 2.97C122.27 3.03 122.27 3.1 122.27 3.18C122.27 3.36 122.28 3.55 122.3 3.75C122.34 3.93 122.37 4.11 122.39 4.29C122.43 4.49 122.46 4.7 122.48 4.92C122.5 5.12 122.52 5.33 122.54 5.55V5.85C122.58 5.99 122.6 6.13 122.6 6.27C122.6 6.41 122.61 6.55 122.63 6.69V6.72C122.65 6.96 122.67 7.2 122.69 7.44C122.71 7.68 122.73 7.92 122.75 8.16C122.77 8.26 122.78 8.37 122.78 8.49C122.78 8.59 122.78 8.69 122.78 8.79V16.77C122.78 16.95 122.79 17.13 122.81 17.31C122.85 17.49 122.88 17.66 122.9 17.82C122.9 17.92 122.96 17.97 123.08 17.97C123.26 18.01 123.43 18.01 123.59 17.97C123.81 17.93 124.02 17.91 124.22 17.91C124.44 17.91 124.66 17.91 124.88 17.91C125.1 17.91 125.31 17.91 125.51 17.91C125.73 17.89 125.94 17.87 126.14 17.85H126.47C126.63 17.87 126.77 17.89 126.89 17.91C127.03 17.91 127.17 17.91 127.31 17.91C127.53 17.91 127.75 17.92 127.97 17.94C128.21 17.94 128.44 17.95 128.66 17.97C128.82 17.99 128.98 18 129.14 18C129.32 18 129.5 18 129.68 18H129.83C130.23 17.98 130.59 18.08 130.91 18.3C131.05 18.36 131.15 18.46 131.21 18.6C131.25 18.68 131.28 18.76 131.3 18.84C131.34 18.9 131.37 18.98 131.39 19.08C131.41 19.16 131.42 19.24 131.42 19.32C131.44 19.38 131.46 19.45 131.48 19.53C131.54 19.71 131.52 19.91 131.42 20.13C131.4 20.19 131.38 20.25 131.36 20.31C131.34 20.37 131.31 20.43 131.27 20.49C131.23 20.55 131.18 20.6 131.12 20.64C131.12 20.64 131.08 20.66 131 20.7C130.84 20.84 130.66 20.93 130.46 20.97C130.28 21.01 130.08 21.05 129.86 21.09L129.56 21.06C129.26 20.96 128.96 20.9 128.66 20.88C128.58 20.86 128.49 20.85 128.39 20.85C128.29 20.83 128.19 20.82 128.09 20.82C127.95 20.82 127.81 20.82 127.67 20.82C127.53 20.8 127.38 20.78 127.22 20.76L126.92 20.73C126.74 20.75 126.56 20.76 126.38 20.76C126.2 20.74 126.02 20.74 125.84 20.76C125.76 20.76 125.68 20.76 125.6 20.76C125.52 20.74 125.44 20.73 125.36 20.73C125.2 20.73 125.04 20.73 124.88 20.73C124.74 20.73 124.59 20.75 124.43 20.79C124.35 20.81 124.25 20.83 124.13 20.85C124.03 20.85 123.93 20.85 123.83 20.85C123.53 20.87 123.23 20.9 122.93 20.94C122.63 20.96 122.34 21 122.06 21.06C122 21.08 121.91 21.09 121.79 21.09ZM137.35 21.42C137.21 21.42 137.04 21.37 136.84 21.27C136.74 21.21 136.66 21.13 136.6 21.03C136.58 20.97 136.53 20.97 136.45 21.03C136.39 21.07 136.34 21.07 136.3 21.03C136.24 20.97 136.18 20.93 136.12 20.91C136.04 20.91 136 20.88 136 20.82C136 20.76 135.99 20.71 135.97 20.67C135.97 20.61 135.95 20.56 135.91 20.52C135.79 20.48 135.71 20.38 135.67 20.22C135.65 20.16 135.63 20.11 135.61 20.07C135.59 20.01 135.56 19.95 135.52 19.89C135.48 19.81 135.46 19.74 135.46 19.68C135.44 19.62 135.42 19.57 135.4 19.53C135.4 19.47 135.38 19.41 135.34 19.35C135.32 19.21 135.28 19.08 135.22 18.96C135.16 18.84 135.11 18.71 135.07 18.57C135.03 18.49 135.01 18.38 135.01 18.24C135.01 17.88 135.07 17.55 135.19 17.25C135.29 17.07 135.32 16.89 135.28 16.71C135.26 16.63 135.26 16.55 135.28 16.47C135.32 16.39 135.33 16.31 135.31 16.23C135.29 16.15 135.27 16.08 135.25 16.02C135.25 15.96 135.25 15.89 135.25 15.81C135.23 15.77 135.22 15.72 135.22 15.66C135.22 15.54 135.22 15.42 135.22 15.3C135.22 15.16 135.2 15.02 135.16 14.88C135.14 14.82 135.13 14.73 135.13 14.61V13.5C135.11 13.24 135.08 12.98 135.04 12.72C135 12.46 134.95 12.2 134.89 11.94C134.89 11.88 134.88 11.82 134.86 11.76C134.86 11.7 134.86 11.64 134.86 11.58C134.86 11.14 134.79 10.71 134.65 10.29V10.02C134.69 9.8 134.67 9.63 134.59 9.51C134.57 9.43 134.56 9.32 134.56 9.18V9.15C134.56 8.95 134.55 8.75 134.53 8.55C134.53 8.35 134.54 8.15 134.56 7.95C134.6 7.59 134.6 7.21 134.56 6.81C134.56 6.65 134.56 6.49 134.56 6.33C134.56 6.17 134.55 6.02 134.53 5.88V5.7C134.57 5.6 134.59 5.51 134.59 5.43C134.59 5.35 134.59 5.27 134.59 5.19C134.59 4.95 134.58 4.72 134.56 4.5C134.56 4.26 134.54 4.03 134.5 3.81C134.5 3.75 134.5 3.69 134.5 3.63C134.5 3.55 134.49 3.48 134.47 3.42C134.47 3.28 134.42 3.16 134.32 3.06L134.11 2.88C133.91 2.76 133.78 2.57 133.72 2.31C133.7 2.27 133.69 2.24 133.69 2.22C133.69 2.18 133.68 2.14 133.66 2.1C133.62 2 133.64 1.91 133.72 1.83C133.78 1.75 133.82 1.67 133.84 1.59C133.84 1.53 133.85 1.48 133.87 1.44C133.91 1.38 133.94 1.32 133.96 1.26C133.98 1.2 134 1.13 134.02 1.05C134.06 0.989999 134.09 0.969999 134.11 0.989998C134.25 0.989998 134.35 0.969999 134.41 0.929999C134.55 0.829999 134.7 0.809999 134.86 0.87C134.9 0.89 134.96 0.879999 135.04 0.839998C135.06 0.839998 135.07 0.829999 135.07 0.809999C135.17 0.709999 135.28 0.659999 135.4 0.659999C135.52 0.639999 135.65 0.639999 135.79 0.659999C135.81 0.659999 135.83 0.669999 135.85 0.689999C135.87 0.689999 135.89 0.689999 135.91 0.689999C136.07 0.729999 136.22 0.769999 136.36 0.809999C136.52 0.829999 136.67 0.829999 136.81 0.809999C136.91 0.809999 137.01 0.819999 137.11 0.839998C137.23 0.859999 137.34 0.87 137.44 0.87C137.52 0.87 137.59 0.88 137.65 0.899999C137.73 0.919999 137.8 0.939999 137.86 0.959999C137.94 0.979998 138.01 1.01 138.07 1.05C138.13 1.07 138.2 1.08 138.28 1.08C138.38 1.1 138.46 1.12 138.52 1.14C138.6 1.16 138.68 1.19 138.76 1.23C139.02 1.37 139.28 1.5 139.54 1.62C139.66 1.68 139.77 1.76 139.87 1.86C140.01 1.96 140.13 2.02 140.23 2.04C140.25 2.04 140.27 2.05 140.29 2.07C140.31 2.07 140.33 2.07 140.35 2.07C140.37 2.09 140.39 2.1 140.41 2.1C140.43 2.1 140.45 2.11 140.47 2.13C140.57 2.23 140.69 2.31 140.83 2.37C140.99 2.41 141.12 2.48 141.22 2.58C141.26 2.62 141.32 2.66 141.4 2.7C141.56 2.76 141.7 2.85 141.82 2.97C141.86 3.01 141.89 3.03 141.91 3.03C141.99 3.03 142.08 3.08 142.18 3.18L142.81 3.84C142.89 3.92 142.95 3.99 142.99 4.05C143.09 4.19 143.2 4.32 143.32 4.44C143.44 4.56 143.56 4.68 143.68 4.8C143.72 4.84 143.76 4.89 143.8 4.95C143.86 4.99 143.9 5.04 143.92 5.1C143.94 5.14 143.97 5.18 144.01 5.22C144.05 5.24 144.08 5.27 144.1 5.31C144.32 5.55 144.53 5.8 144.73 6.06C144.95 6.32 145.15 6.59 145.33 6.87C145.43 7.01 145.52 7.16 145.6 7.32C145.68 7.48 145.75 7.64 145.81 7.8C145.87 7.94 145.93 8.08 145.99 8.22C146.07 8.36 146.14 8.5 146.2 8.64C146.26 8.86 146.33 9.06 146.41 9.24C146.49 9.5 146.57 9.75 146.65 9.99C146.73 10.23 146.8 10.49 146.86 10.77L146.95 11.16C146.95 11.32 146.95 11.49 146.95 11.67C146.97 11.83 146.98 12 146.98 12.18C146.98 12.26 146.97 12.33 146.95 12.39C146.95 12.45 146.93 12.52 146.89 12.6C146.85 12.72 146.83 12.83 146.83 12.93C146.81 13.13 146.76 13.32 146.68 13.5C146.62 13.68 146.55 13.85 146.47 14.01C146.29 14.33 146.13 14.65 145.99 14.97C145.95 15.05 145.91 15.13 145.87 15.21C145.85 15.27 145.82 15.34 145.78 15.42L145.6 15.78C145.46 16.06 145.29 16.34 145.09 16.62C144.91 16.88 144.71 17.13 144.49 17.37C144.41 17.47 144.31 17.57 144.19 17.67C144.09 17.75 143.99 17.84 143.89 17.94C143.69 18.12 143.49 18.3 143.29 18.48C143.09 18.64 142.88 18.8 142.66 18.96C142.46 19.1 142.25 19.23 142.03 19.35C141.83 19.47 141.61 19.57 141.37 19.65C141.25 19.67 141.13 19.73 141.01 19.83C140.89 19.91 140.76 19.99 140.62 20.07C140.5 20.15 140.37 20.24 140.23 20.34C140.17 20.36 140.11 20.39 140.05 20.43C139.99 20.45 139.92 20.47 139.84 20.49C139.78 20.51 139.71 20.53 139.63 20.55C139.57 20.57 139.51 20.59 139.45 20.61C139.37 20.63 139.29 20.66 139.21 20.7C139.15 20.74 139.09 20.79 139.03 20.85C138.89 20.95 138.74 21.03 138.58 21.09C138.42 21.17 138.26 21.26 138.1 21.36C138.06 21.38 137.99 21.39 137.89 21.39C137.83 21.41 137.77 21.41 137.71 21.39C137.65 21.39 137.59 21.39 137.53 21.39V21.42H137.35ZM138.55 18.06C138.75 18.06 138.92 18.02 139.06 17.94C139.22 17.88 139.37 17.81 139.51 17.73C139.65 17.65 139.78 17.56 139.9 17.46L140.26 17.1C140.46 16.94 140.64 16.77 140.8 16.59C140.98 16.41 141.17 16.25 141.37 16.11C141.41 16.07 141.43 16.05 141.43 16.05C141.51 15.97 141.58 15.9 141.64 15.84C141.72 15.76 141.79 15.68 141.85 15.6C141.89 15.56 141.94 15.51 142 15.45C142.06 15.39 142.1 15.34 142.12 15.3C142.2 15.16 142.31 15.04 142.45 14.94C142.55 14.88 142.61 14.82 142.63 14.76C142.67 14.66 142.72 14.56 142.78 14.46C142.86 14.36 142.94 14.27 143.02 14.19C143.12 14.07 143.22 13.89 143.32 13.65L143.44 13.35C143.56 13.07 143.62 12.81 143.62 12.57C143.64 12.51 143.65 12.42 143.65 12.3C143.67 12 143.65 11.68 143.59 11.34C143.57 11.24 143.55 11.14 143.53 11.04C143.51 10.94 143.5 10.85 143.5 10.77C143.48 10.69 143.46 10.62 143.44 10.56C143.44 10.48 143.42 10.41 143.38 10.35C143.34 10.27 143.31 10.19 143.29 10.11C143.27 10.03 143.25 9.95 143.23 9.87C143.23 9.73 143.21 9.61 143.17 9.51C143.13 9.39 143.09 9.27 143.05 9.15C142.99 9.03 142.93 8.91 142.87 8.79C142.81 8.65 142.76 8.51 142.72 8.37L142.69 8.25C142.63 8.17 142.58 8.09 142.54 8.01C142.52 7.91 142.49 7.82 142.45 7.74C142.37 7.56 142.29 7.38 142.21 7.2C142.15 7.02 142.07 6.85 141.97 6.69C141.87 6.51 141.76 6.33 141.64 6.15C141.54 5.97 141.41 5.81 141.25 5.67C140.79 5.17 140.26 4.72 139.66 4.32C139.3 4.06 138.94 3.89 138.58 3.81C138.44 3.77 138.28 3.74 138.1 3.72C137.92 3.68 137.75 3.65 137.59 3.63C137.53 3.63 137.48 3.65 137.44 3.69C137.34 3.77 137.29 3.87 137.29 3.99C137.29 4.13 137.28 4.28 137.26 4.44C137.26 4.58 137.26 4.73 137.26 4.89C137.3 5.17 137.29 5.4 137.23 5.58C137.21 5.66 137.19 5.74 137.17 5.82C137.17 5.9 137.18 5.99 137.2 6.09C137.24 6.21 137.23 6.32 137.17 6.42C137.11 6.54 137.11 6.67 137.17 6.81C137.25 6.97 137.27 7.17 137.23 7.41C137.17 7.65 137.17 7.89 137.23 8.13C137.25 8.21 137.26 8.29 137.26 8.37C137.28 8.45 137.28 8.54 137.26 8.64C137.26 8.86 137.27 9.08 137.29 9.3C137.33 9.52 137.36 9.74 137.38 9.96C137.38 10 137.4 10.06 137.44 10.14V10.62C137.44 10.66 137.43 10.71 137.41 10.77C137.41 10.81 137.42 10.85 137.44 10.89C137.48 11.05 137.51 11.22 137.53 11.4C137.57 11.56 137.61 11.72 137.65 11.88C137.65 11.92 137.66 11.97 137.68 12.03C137.7 12.07 137.71 12.12 137.71 12.18C137.71 12.32 137.72 12.46 137.74 12.6C137.76 12.74 137.78 12.89 137.8 13.05C137.86 13.61 137.95 14.18 138.07 14.76C138.13 15 138.16 15.25 138.16 15.51C138.16 15.57 138.16 15.64 138.16 15.72C138.16 15.78 138.17 15.84 138.19 15.9C138.23 16.04 138.25 16.18 138.25 16.32C138.25 16.46 138.25 16.6 138.25 16.74C138.25 16.78 138.24 16.83 138.22 16.89C138.22 16.95 138.23 17 138.25 17.04C138.29 17.14 138.31 17.24 138.31 17.34C138.31 17.42 138.31 17.51 138.31 17.61C138.31 17.69 138.33 17.79 138.37 17.91C138.37 18.01 138.43 18.06 138.55 18.06Z" fill="#353535"/>
</svg>
