<svg width="86" height="19" viewBox="0 0 86 19" fill="none" xmlns="http://www.w3.org/2000/svg">
<path d="M2.28594 19C2.1026 18.9667 1.9776 18.8833 1.91094 18.75C1.86094 18.65 1.81927 18.5417 1.78594 18.425C1.76927 18.325 1.7526 18.225 1.73594 18.125C1.71927 17.9917 1.7026 17.85 1.68594 17.7C1.66927 17.5667 1.6526 17.4333 1.63594 17.3C1.61927 17.1333 1.59427 16.975 1.56094 16.825C1.5276 16.675 1.4776 16.5167 1.41094 16.35C1.39427 16.3 1.3776 16.2583 1.36094 16.225C1.34427 16.175 1.31927 16.125 1.28594 16.075L0.985938 15.45C0.902604 15.2833 0.860938 15.1167 0.860938 14.95C0.844271 14.7333 0.835938 14.525 0.835938 14.325C0.835938 14.125 0.844271 13.925 0.860938 13.725C0.860938 13.6583 0.877604 13.575 0.910938 13.475C0.944271 13.3083 0.977604 13.15 1.01094 13C1.06094 12.8333 1.09427 12.675 1.11094 12.525C1.14427 12.325 1.1776 12.1333 1.21094 11.95C1.24427 11.75 1.26927 11.5583 1.28594 11.375C1.31927 11.1917 1.34427 11.0083 1.36094 10.825C1.3776 10.6417 1.39427 10.4583 1.41094 10.275C1.4276 10.1417 1.44427 10.0167 1.46094 9.9C1.4776 9.76667 1.49427 9.64167 1.51094 9.525C1.5276 9.475 1.53594 9.4 1.53594 9.3C1.53594 9.21667 1.54427 9.13333 1.56094 9.05C1.5776 8.95 1.59427 8.85833 1.61094 8.775C1.64427 8.64167 1.66094 8.50833 1.66094 8.375C1.6776 8.225 1.69427 8.08333 1.71094 7.95C1.7276 7.9 1.73594 7.83333 1.73594 7.75C1.78594 7.56667 1.81927 7.375 1.83594 7.175C1.86927 6.975 1.89427 6.775 1.91094 6.575L1.98594 6.15C2.01927 5.96667 2.04427 5.78333 2.06094 5.6C2.0776 5.4 2.09427 5.20833 2.11094 5.025C2.14427 4.84167 2.16094 4.65833 2.16094 4.475C2.16094 4.275 2.16094 4.08333 2.16094 3.9C2.16094 3.8 2.16094 3.70833 2.16094 3.625C2.1776 3.525 2.19427 3.425 2.21094 3.325C2.24427 2.89167 2.21094 2.475 2.11094 2.075C2.09427 2.05833 2.08594 2.04167 2.08594 2.025C2.01927 1.80833 2.01094 1.60833 2.06094 1.425C2.11094 1.24167 2.19427 1.06667 2.31094 0.899999C2.51094 0.566666 2.79427 0.366666 3.16094 0.299999C3.2276 0.283332 3.28594 0.274999 3.33594 0.274999C3.38594 0.258333 3.44427 0.258333 3.51094 0.274999C3.5776 0.308332 3.63594 0.324999 3.68594 0.324999C3.83594 0.341666 3.9776 0.408333 4.11094 0.524999L4.33594 0.825C4.4526 1.025 4.56094 1.175 4.66094 1.275C4.9276 1.60833 5.16094 1.96667 5.36094 2.35C5.4776 2.56667 5.5776 2.78333 5.66094 3C5.76094 3.2 5.86094 3.4 5.96094 3.6C6.01094 3.71667 6.0526 3.825 6.08594 3.925C6.13594 4.025 6.18594 4.125 6.23594 4.225C6.26927 4.275 6.31927 4.33333 6.38594 4.4C6.4526 4.5 6.48594 4.575 6.48594 4.625C6.51927 4.69167 6.51094 4.75 6.46094 4.8C6.44427 4.81667 6.44427 4.84167 6.46094 4.875C6.4776 4.90833 6.49427 4.94167 6.51094 4.975C6.5276 4.99167 6.56094 5.09167 6.61094 5.275C6.66094 5.44167 6.6776 5.5 6.66094 5.45C6.69427 5.53333 6.74427 5.575 6.81094 5.575C6.86094 5.59167 6.89427 5.625 6.91094 5.675C6.9276 5.70833 6.9026 5.75 6.83594 5.8C6.78594 5.81667 6.78594 5.88333 6.83594 6C6.88594 6.1 6.91927 6.16667 6.93594 6.2C7.0026 6.36667 7.06094 6.53333 7.11094 6.7C7.16094 6.85 7.21927 7.00833 7.28594 7.175C7.36927 7.39167 7.44427 7.61667 7.51094 7.85C7.5776 8.08333 7.64427 8.31667 7.71094 8.55C7.76094 8.71667 7.81094 8.88333 7.86094 9.05C7.9276 9.2 7.98594 9.35 8.03594 9.5C8.03594 9.53333 8.0526 9.55 8.08594 9.55L8.13594 9.5C8.13594 9.46667 8.1526 9.41667 8.18594 9.35C8.21927 9.16667 8.26094 8.98333 8.31094 8.8C8.36094 8.6 8.41094 8.40833 8.46094 8.225C8.54427 7.975 8.61094 7.725 8.66094 7.475C8.7276 7.225 8.79427 6.975 8.86094 6.725C8.89427 6.575 8.93594 6.425 8.98594 6.275C9.03594 6.10833 9.06927 5.95 9.08594 5.8C9.1526 5.51667 9.21927 5.24167 9.28594 4.975C9.3526 4.70833 9.41094 4.44167 9.46094 4.175C9.4776 4.14167 9.48594 4.10833 9.48594 4.075C9.5026 4.04167 9.51094 4.00833 9.51094 3.975C9.5276 3.80833 9.5776 3.65 9.66094 3.5C9.8276 3.15 10.1026 2.925 10.4859 2.825C10.6693 2.775 10.8526 2.775 11.0359 2.825C11.1859 2.85833 11.2943 2.91667 11.3609 3C11.4776 3.11667 11.5859 3.23333 11.6859 3.35C11.8026 3.46667 11.9026 3.59167 11.9859 3.725C12.0526 3.825 12.1193 3.925 12.1859 4.025C12.2526 4.10833 12.3193 4.2 12.3859 4.3C12.4359 4.36667 12.4859 4.44167 12.5359 4.525C12.5859 4.59167 12.6276 4.66667 12.6609 4.75C12.7943 4.98333 12.9193 5.225 13.0359 5.475C13.1526 5.725 13.2526 5.98333 13.3359 6.25C13.3359 6.28333 13.3443 6.30833 13.3609 6.325C13.4443 6.49167 13.5109 6.66667 13.5609 6.85C13.6109 7.01667 13.6609 7.19167 13.7109 7.375C13.7776 7.55833 13.8276 7.74167 13.8609 7.925C13.9109 8.10833 13.9609 8.29167 14.0109 8.475C14.0109 8.54167 14.0193 8.59167 14.0359 8.625C14.0859 8.75833 14.1276 8.9 14.1609 9.05C14.1943 9.2 14.2276 9.34167 14.2609 9.475C14.2943 9.675 14.3276 9.875 14.3609 10.075C14.3943 10.275 14.4276 10.4667 14.4609 10.65C14.4943 10.9 14.5276 11.15 14.5609 11.4C14.5943 11.65 14.6359 11.9 14.6859 12.15C14.7193 12.3167 14.7443 12.4917 14.7609 12.675C14.7943 12.8583 14.8193 13.0417 14.8359 13.225C14.8359 13.275 14.8526 13.35 14.8859 13.45L14.9609 14.05C14.9609 14.1333 14.9693 14.1917 14.9859 14.225C15.0693 14.5417 15.1193 14.8667 15.1359 15.2C15.1526 15.2167 15.1609 15.2417 15.1609 15.275C15.1609 15.2917 15.1693 15.3167 15.1859 15.35L15.3609 16.35C15.3943 16.4667 15.3943 16.5917 15.3609 16.725L15.3109 16.925C15.3109 17.0583 15.2859 17.1833 15.2359 17.3C15.1859 17.4167 15.1276 17.5333 15.0609 17.65C15.0109 17.7167 14.9526 17.7833 14.8859 17.85C14.8193 17.9333 14.7443 18 14.6609 18.05C14.4776 18.1833 14.2943 18.1917 14.1109 18.075C13.7276 17.825 13.4443 17.5167 13.2609 17.15C13.2443 17.0833 13.2193 17.025 13.1859 16.975C13.1693 16.9083 13.1609 16.8417 13.1609 16.775L13.0859 16.3C13.0693 16.2167 13.0526 16.1333 13.0359 16.05C13.0359 15.95 13.0276 15.8583 13.0109 15.775L12.7609 14.325C12.7443 14.2083 12.7276 14.1 12.7109 14C12.6943 13.9 12.6776 13.7917 12.6609 13.675L12.5609 13.125C12.5276 12.9417 12.4943 12.7583 12.4609 12.575C12.4276 12.375 12.3943 12.1833 12.3609 12L12.1109 10.4C12.0943 10.1667 12.0526 9.94167 11.9859 9.725C11.9359 9.49167 11.8859 9.26667 11.8359 9.05C11.7693 8.78333 11.6943 8.53333 11.6109 8.3C11.5276 8.05 11.4359 7.80833 11.3359 7.575L11.2609 7.35C11.2443 7.3 11.2193 7.25 11.1859 7.2C11.1526 7.15 11.1193 7.10833 11.0859 7.075C11.0359 7.075 11.0109 7.08333 11.0109 7.1L10.9359 7.35C10.8693 7.56667 10.8109 7.8 10.7609 8.05C10.7109 8.28333 10.6526 8.51667 10.5859 8.75C10.5526 8.88333 10.5193 9.01667 10.4859 9.15C10.4526 9.28333 10.4193 9.41667 10.3859 9.55C10.3526 9.66667 10.3193 9.79167 10.2859 9.925C10.2693 10.0417 10.2443 10.1667 10.2109 10.3C10.1776 10.5 10.1359 10.7 10.0859 10.9C10.0359 11.1 9.99427 11.3 9.96094 11.5C9.94427 11.65 9.91927 11.8 9.88594 11.95C9.86927 12.1 9.8526 12.25 9.83594 12.4V12.55C9.86927 12.6833 9.83594 12.8 9.73594 12.9C9.71927 12.95 9.69427 13 9.66094 13.05C9.64427 13.0833 9.6276 13.125 9.61094 13.175C9.5776 13.325 9.53594 13.4333 9.48594 13.5L9.41094 13.675C9.39427 13.6917 9.3776 13.725 9.36094 13.775C9.36094 13.8083 9.34427 13.8417 9.31094 13.875C9.19427 14.075 9.04427 14.2083 8.86094 14.275C8.79427 14.3083 8.7276 14.3417 8.66094 14.375C8.61094 14.4083 8.5526 14.4417 8.48594 14.475C8.31927 14.5583 8.14427 14.55 7.96094 14.45C7.71094 14.2833 7.51927 14.1 7.38594 13.9L6.93594 13.25C6.93594 13.2333 6.9276 13.225 6.91094 13.225C6.91094 13.2083 6.91094 13.2 6.91094 13.2C6.84427 13.0167 6.76927 12.85 6.68594 12.7C6.6026 12.55 6.53594 12.3917 6.48594 12.225L6.18594 11.35C6.1026 11.1333 6.0276 10.9167 5.96094 10.7C5.89427 10.4833 5.81927 10.2667 5.73594 10.05L5.66094 9.85C5.6276 9.7 5.58594 9.55 5.53594 9.4C5.5026 9.25 5.46094 9.10833 5.41094 8.975C5.3776 8.825 5.33594 8.68333 5.28594 8.55C5.23594 8.4 5.19427 8.25833 5.16094 8.125C5.09427 7.94167 5.0276 7.75833 4.96094 7.575C4.91094 7.375 4.84427 7.18333 4.76094 7C4.7276 6.88333 4.6776 6.79167 4.61094 6.725C4.4776 6.59167 4.38594 6.43333 4.33594 6.25C4.33594 6.21667 4.31927 6.2 4.28594 6.2L4.23594 6.25V6.275C4.21927 6.29167 4.21094 6.31667 4.21094 6.35C4.19427 6.51667 4.1776 6.69167 4.16094 6.875C4.14427 7.05833 4.11927 7.24167 4.08594 7.425L4.01094 8.25C3.99427 8.38333 3.9776 8.51667 3.96094 8.65C3.96094 8.78333 3.9526 8.91667 3.93594 9.05C3.91927 9.11667 3.9026 9.18333 3.88594 9.25C3.88594 9.31667 3.88594 9.39167 3.88594 9.475C3.86927 9.89167 3.81927 10.3333 3.73594 10.8C3.71927 10.9167 3.7026 11.05 3.68594 11.2C3.66927 11.3333 3.6526 11.4667 3.63594 11.6L3.56094 12.15C3.51094 12.45 3.48594 12.7417 3.48594 13.025C3.48594 13.1417 3.48594 13.2583 3.48594 13.375C3.5026 13.4917 3.49427 13.6083 3.46094 13.725C3.44427 13.875 3.46094 14.05 3.51094 14.25C3.5776 14.3667 3.6026 14.4833 3.58594 14.6C3.58594 14.7167 3.56927 14.8417 3.53594 14.975C3.51927 15.075 3.48594 15.175 3.43594 15.275C3.4026 15.375 3.34427 15.4667 3.26094 15.55C3.2276 15.6 3.18594 15.6583 3.13594 15.725C3.1026 15.7917 3.06094 15.85 3.01094 15.9C2.8776 16.0667 2.81094 16.25 2.81094 16.45V17C2.81094 17.1333 2.8026 17.2583 2.78594 17.375C2.78594 17.5083 2.79427 17.6417 2.81094 17.775C2.81094 17.7917 2.8026 17.8083 2.78594 17.825C2.78594 17.8417 2.78594 17.8667 2.78594 17.9C2.76927 17.95 2.76094 18 2.76094 18.05C2.76094 18.1 2.76094 18.15 2.76094 18.2C2.7776 18.35 2.76094 18.5083 2.71094 18.675C2.6276 18.825 2.51927 18.925 2.38594 18.975C2.3526 18.9917 2.31927 19 2.28594 19ZM27.8072 18.825C27.6572 18.825 27.5239 18.7667 27.4072 18.65C27.3739 18.6 27.3406 18.55 27.3072 18.5C27.2739 18.45 27.2406 18.4 27.2072 18.35C27.0572 18 26.9822 17.6333 26.9822 17.25L26.9072 16.65C26.8572 16.4167 26.8156 16.1833 26.7822 15.95C26.7489 15.7167 26.6906 15.4917 26.6072 15.275L26.4572 14.85C26.4572 14.8167 26.4489 14.7833 26.4322 14.75C26.4322 14.7167 26.4239 14.6833 26.4072 14.65L26.0322 13.325C26.0156 13.2917 25.9989 13.25 25.9822 13.2C25.9822 13.15 25.9656 13.1083 25.9322 13.075C25.8822 12.975 25.8406 12.875 25.8072 12.775C25.7906 12.6583 25.7656 12.5417 25.7322 12.425C25.7156 12.3417 25.6989 12.2667 25.6822 12.2C25.6656 12.1167 25.6406 12.0333 25.6072 11.95C25.5739 11.85 25.5406 11.7917 25.5072 11.775C25.4739 11.7417 25.3989 11.7417 25.2822 11.775C25.1989 11.7917 25.1072 11.8083 25.0072 11.825C24.9239 11.825 24.8406 11.8417 24.7572 11.875C24.6906 11.8917 24.6072 11.9083 24.5072 11.925C24.4239 11.925 24.3406 11.9333 24.2572 11.95L23.9072 12.025C23.8239 12.0417 23.7322 12.0667 23.6322 12.1C23.5489 12.1167 23.4656 12.125 23.3822 12.125L22.9322 12.2C22.7989 12.2333 22.6572 12.2667 22.5072 12.3C22.3572 12.3333 22.2156 12.3667 22.0822 12.4C21.6822 12.5 21.2822 12.575 20.8822 12.625C20.7489 12.6583 20.6739 12.7167 20.6572 12.8C20.6406 12.8 20.6322 12.8083 20.6322 12.825C20.5322 13.0917 20.4156 13.3583 20.2822 13.625C20.1656 13.875 20.0406 14.1333 19.9072 14.4C19.8739 14.4667 19.8406 14.5333 19.8072 14.6C19.7906 14.65 19.7656 14.7083 19.7322 14.775C19.7156 14.8083 19.6989 14.85 19.6822 14.9C19.6656 14.9333 19.6489 14.9667 19.6322 15C19.5322 15.1167 19.4822 15.2583 19.4822 15.425C19.4656 15.525 19.4322 15.625 19.3822 15.725C19.3322 15.8083 19.2822 15.8917 19.2322 15.975C19.2156 16.025 19.1822 16.05 19.1322 16.05C19.0656 16.0667 18.9989 16.0917 18.9322 16.125C18.8656 16.1583 18.7906 16.1917 18.7072 16.225C18.6572 16.2417 18.6072 16.2417 18.5572 16.225C18.5239 16.2083 18.4822 16.1917 18.4322 16.175C18.3989 16.1417 18.3656 16.125 18.3322 16.125C18.1489 16.1083 18.0156 16 17.9322 15.8C17.7989 15.5333 17.7072 15.2667 17.6572 15C17.6406 14.9333 17.6406 14.875 17.6572 14.825C17.6906 14.775 17.7156 14.725 17.7322 14.675C17.8322 14.6083 17.8906 14.5333 17.9072 14.45V14.425C17.9072 14.2083 17.9489 14.0083 18.0322 13.825C18.1322 13.625 18.2156 13.4333 18.2822 13.25C18.3156 13.15 18.3572 13.05 18.4072 12.95C18.4572 12.85 18.5072 12.75 18.5572 12.65C18.6239 12.5333 18.6739 12.425 18.7072 12.325C18.7572 12.2083 18.7989 12.0917 18.8322 11.975C18.8822 11.8417 18.8822 11.7167 18.8322 11.6C18.7989 11.5 18.7822 11.4083 18.7822 11.325C18.7822 11.225 18.7906 11.125 18.8072 11.025C18.8072 10.8417 18.8739 10.6833 19.0072 10.55C19.0739 10.4667 19.1406 10.4 19.2072 10.35C19.2906 10.2833 19.3656 10.2167 19.4322 10.15C19.5822 10 19.6989 9.8 19.7822 9.55C19.8489 9.33333 19.8989 9.11667 19.9322 8.9C19.9822 8.66667 20.0322 8.44167 20.0822 8.225C20.1156 8.00833 20.1489 7.8 20.1822 7.6C20.2322 7.38333 20.2822 7.175 20.3322 6.975C20.3489 6.89167 20.3656 6.81667 20.3822 6.75C20.4156 6.66667 20.4406 6.59167 20.4572 6.525C20.5072 6.39167 20.5572 6.26667 20.6072 6.15C20.6572 6.01667 20.6906 5.88333 20.7072 5.75C20.7406 5.68333 20.7406 5.625 20.7072 5.575C20.6906 5.49167 20.6906 5.41667 20.7072 5.35C20.7406 5.28333 20.7656 5.21667 20.7822 5.15C20.8322 5.03333 20.8656 4.91667 20.8822 4.8C20.9156 4.68333 20.9572 4.56667 21.0072 4.45C21.0906 4.23333 21.1572 4.05833 21.2072 3.925C21.2739 3.775 21.3322 3.60833 21.3822 3.425C21.4156 3.325 21.4489 3.23333 21.4822 3.15C21.5322 3.05 21.5656 2.95 21.5822 2.85C21.6322 2.7 21.6739 2.55 21.7072 2.4C21.7406 2.23333 21.7572 2.075 21.7572 1.925C21.7906 1.79167 21.8239 1.7 21.8572 1.65C21.9406 1.48333 22.0406 1.34167 22.1572 1.225C22.2906 1.10833 22.4156 0.991666 22.5322 0.874999C22.6156 0.825 22.6989 0.791666 22.7822 0.774999C22.8656 0.741666 22.9489 0.75 23.0322 0.8C23.0989 0.833333 23.1406 0.849999 23.1572 0.849999C23.3072 0.833333 23.4322 0.866666 23.5322 0.95C23.6322 1.03333 23.7156 1.13333 23.7822 1.25C23.8156 1.28333 23.8406 1.325 23.8572 1.375C23.8739 1.425 23.8906 1.46667 23.9072 1.5C23.9906 1.63333 24.0322 1.76667 24.0322 1.9C24.0322 1.96667 24.0406 2.04167 24.0572 2.125C24.0739 2.19167 24.0906 2.26667 24.1072 2.35C24.1572 2.45 24.2322 2.5 24.3322 2.5C24.3489 2.48333 24.3656 2.48333 24.3822 2.5C24.3989 2.51667 24.4072 2.53333 24.4072 2.55C24.4906 2.65 24.5156 2.75833 24.4822 2.875C24.4489 3.00833 24.4406 3.14167 24.4572 3.275C24.4906 3.39167 24.5239 3.51667 24.5572 3.65C24.6239 3.81667 24.6906 3.98333 24.7572 4.15C24.8239 4.31667 24.8906 4.48333 24.9572 4.65C25.0406 4.83333 25.1239 5.01667 25.2072 5.2C25.2906 5.38333 25.3656 5.56667 25.4322 5.75C25.5156 5.98333 25.5989 6.21667 25.6822 6.45C25.7822 6.68333 25.8906 6.91667 26.0072 7.15L26.0822 7.425C26.0989 7.49167 26.1156 7.55833 26.1322 7.625C26.1656 7.69167 26.1906 7.75833 26.2072 7.825C26.2406 7.875 26.2656 7.925 26.2822 7.975C26.3156 8.025 26.3489 8.06667 26.3822 8.1C26.4656 8.21667 26.5156 8.34167 26.5322 8.475C26.5822 8.64167 26.6572 8.79167 26.7572 8.925C26.7906 8.975 26.8406 9 26.9072 9C27.1572 8.96667 27.4072 8.94167 27.6572 8.925C27.9072 8.89167 28.1572 8.84167 28.4072 8.775C28.5906 8.725 28.7656 8.7 28.9322 8.7C29.2489 8.7 29.5406 8.80833 29.8072 9.025C30.1239 9.275 30.2906 9.59167 30.3072 9.975C30.3072 10.0583 30.3156 10.125 30.3322 10.175C30.3322 10.2917 30.2989 10.3833 30.2322 10.45C30.2156 10.5 30.1822 10.55 30.1322 10.6C30.0989 10.65 30.0656 10.7 30.0322 10.75C29.9989 10.8167 29.9656 10.8667 29.9322 10.9L29.7822 11.025C29.7656 11.0583 29.7406 11.1 29.7072 11.15C29.6739 11.1833 29.6322 11.2083 29.5822 11.225C29.5156 11.2417 29.4489 11.2667 29.3822 11.3C29.3156 11.3167 29.2406 11.325 29.1572 11.325C28.8572 11.3583 28.5906 11.35 28.3572 11.3H27.9572C27.9239 11.3 27.8739 11.3167 27.8072 11.35C27.7406 11.3833 27.7072 11.425 27.7072 11.475V11.575C27.7572 11.725 27.7906 11.8833 27.8072 12.05C27.8406 12.2 27.8906 12.3417 27.9572 12.475C27.9572 12.5417 27.9739 12.6083 28.0072 12.675C28.0906 12.825 28.1572 12.9833 28.2072 13.15C28.2572 13.3 28.2989 13.4583 28.3322 13.625C28.3322 13.6583 28.3489 13.725 28.3822 13.825C28.4322 13.9417 28.4739 14.0667 28.5072 14.2C28.5406 14.3167 28.5656 14.4417 28.5822 14.575C28.5822 14.675 28.6072 14.7667 28.6572 14.85C28.7239 15 28.7739 15.15 28.8072 15.3C28.8406 15.45 28.8656 15.6083 28.8822 15.775C28.8989 15.7917 28.9072 15.825 28.9072 15.875C28.9072 15.9083 28.9156 15.9417 28.9322 15.975C29.0156 16.1583 29.0739 16.3583 29.1072 16.575C29.1406 16.775 29.1822 16.975 29.2322 17.175C29.2656 17.275 29.2822 17.375 29.2822 17.475C29.2989 17.5917 29.3072 17.7083 29.3072 17.825C29.3072 17.9083 29.2822 18 29.2322 18.1C29.1822 18.15 29.1572 18.175 29.1572 18.175C29.0572 18.1917 28.9989 18.25 28.9822 18.35L28.9072 18.5C28.8739 18.5667 28.8239 18.6083 28.7572 18.625C28.6906 18.625 28.6322 18.65 28.5822 18.7C28.5156 18.7667 28.4239 18.8 28.3072 18.8C28.2406 18.8 28.1572 18.8 28.0572 18.8C27.9739 18.8 27.8906 18.8083 27.8072 18.825ZM21.7822 9.75C21.8822 9.73333 21.9822 9.71667 22.0822 9.7C22.1989 9.68333 22.3239 9.66667 22.4572 9.65C22.5406 9.63333 22.6489 9.61667 22.7822 9.6C22.9156 9.58333 23.0406 9.56667 23.1572 9.55C23.2739 9.51667 23.3906 9.5 23.5072 9.5C23.6239 9.48333 23.7406 9.46667 23.8572 9.45C23.9572 9.41667 24.0572 9.4 24.1572 9.4C24.2572 9.38333 24.3572 9.36667 24.4572 9.35C24.6072 9.31667 24.6656 9.23333 24.6322 9.1C24.6156 8.96667 24.5822 8.83333 24.5322 8.7C24.4989 8.55 24.4239 8.425 24.3072 8.325C24.2739 8.29167 24.2572 8.24167 24.2572 8.175V8.1C24.2239 7.96667 24.1822 7.84167 24.1322 7.725C24.0989 7.59167 24.0572 7.46667 24.0072 7.35C23.9739 7.21667 23.9322 7.1 23.8822 7C23.8489 6.88333 23.8072 6.76667 23.7572 6.65L23.4572 5.75C23.4072 5.63333 23.3572 5.51667 23.3072 5.4C23.2739 5.28333 23.2406 5.16667 23.2072 5.05L23.1322 4.95H23.0572L23.0072 5.025C22.9239 5.275 22.8239 5.525 22.7072 5.775C22.6072 6.025 22.5156 6.29167 22.4322 6.575C22.4322 6.60833 22.4239 6.65 22.4072 6.7C22.3906 6.75 22.3739 6.8 22.3572 6.85C22.2906 7.01667 22.2239 7.2 22.1572 7.4C22.1072 7.6 22.0656 7.8 22.0322 8C22.0156 8.11667 21.9989 8.23333 21.9822 8.35C21.9656 8.45 21.9406 8.55833 21.9072 8.675L21.6822 9.65C21.6656 9.66667 21.6739 9.69167 21.7072 9.725C21.7406 9.74167 21.7656 9.75 21.7822 9.75ZM40.7156 17.225C40.6656 17.2083 40.6073 17.1917 40.5406 17.175C40.4906 17.1583 40.4406 17.1417 40.3906 17.125C40.2573 17.075 40.124 17.0083 39.9906 16.925C39.924 16.8917 39.874 16.8417 39.8406 16.775C39.724 16.5917 39.6156 16.425 39.5156 16.275C39.4156 16.1083 39.3073 15.9417 39.1906 15.775L38.9656 15.375C38.849 15.1417 38.7323 14.9167 38.6156 14.7C38.499 14.4667 38.3823 14.2417 38.2656 14.025C38.2323 13.9417 38.1906 13.875 38.1406 13.825C38.1073 13.7583 38.074 13.6917 38.0406 13.625C37.924 13.4417 37.8156 13.2583 37.7156 13.075C37.6156 12.875 37.5156 12.6833 37.4156 12.5L36.7906 11.275C36.624 10.9417 36.4573 10.6167 36.2906 10.3C36.124 9.96667 35.9573 9.63333 35.7906 9.3C35.7573 9.26667 35.724 9.21667 35.6906 9.15C35.624 8.96667 35.5406 8.79167 35.4406 8.625C35.3573 8.45833 35.274 8.29167 35.1906 8.125C35.124 8.00833 35.0656 7.89167 35.0156 7.775C34.9656 7.64167 34.9073 7.51667 34.8406 7.4L34.5656 6.9C34.5323 6.9 34.5073 6.89167 34.4906 6.875C34.4906 6.875 34.4823 6.88333 34.4656 6.9C34.4656 6.9 34.4656 6.90833 34.4656 6.925C34.449 7.14167 34.4323 7.36667 34.4156 7.6C34.399 7.83333 34.399 8.06667 34.4156 8.3C34.449 8.4 34.449 8.50833 34.4156 8.625C34.3823 8.925 34.3906 9.19167 34.4406 9.425C34.4573 9.49167 34.4573 9.55833 34.4406 9.625C34.4406 9.69167 34.4323 9.76667 34.4156 9.85C34.399 9.96667 34.3906 10.075 34.3906 10.175C34.3906 10.275 34.3823 10.3833 34.3656 10.5C34.399 10.5667 34.4156 10.6417 34.4156 10.725C34.4156 10.7917 34.4073 10.8583 34.3906 10.925C34.3406 11.0917 34.3406 11.2667 34.3906 11.45C34.424 11.5 34.424 11.55 34.3906 11.6C34.324 11.75 34.3073 11.9333 34.3406 12.15C34.3906 12.4333 34.374 12.7417 34.2906 13.075C34.274 13.1083 34.2656 13.1667 34.2656 13.25C34.249 13.3167 34.2656 13.375 34.3156 13.425C34.3823 13.4583 34.399 13.5 34.3656 13.55C34.349 13.7667 34.349 13.9917 34.3656 14.225C34.3656 14.225 34.3656 14.2333 34.3656 14.25C34.3656 14.25 34.3573 14.25 34.3406 14.25C34.324 14.25 34.3156 14.2417 34.3156 14.225C34.299 14.2083 34.2906 14.1917 34.2906 14.175C34.2573 14.1417 34.2406 14.15 34.2406 14.2C34.2406 14.2833 34.249 14.3333 34.2656 14.35C34.299 14.4333 34.3156 14.5167 34.3156 14.6C34.3156 14.6833 34.3156 14.7667 34.3156 14.85V15.625C34.3156 15.675 34.3073 15.725 34.2906 15.775C34.2906 15.825 34.2656 15.8667 34.2156 15.9C34.149 15.9167 34.1156 15.975 34.1156 16.075C34.099 16.2583 34.0323 16.4167 33.9156 16.55C33.8156 16.6833 33.699 16.8 33.5656 16.9C33.499 16.95 33.4156 16.9833 33.3156 17C33.2323 17 33.149 16.9917 33.0656 16.975L32.6156 16.825C32.5823 16.825 32.549 16.8 32.5156 16.75C32.4656 16.7 32.4156 16.65 32.3656 16.6C32.3156 16.5333 32.2573 16.475 32.1906 16.425C32.1073 16.375 32.049 16.2833 32.0156 16.15C31.999 16.0667 31.974 15.975 31.9406 15.875C31.9073 15.775 31.8906 15.675 31.8906 15.575C31.8906 15.4583 31.8906 15.35 31.8906 15.25C31.9073 15.15 31.9156 15.0417 31.9156 14.925C31.9323 14.8417 31.9406 14.7667 31.9406 14.7C31.9406 14.6167 31.949 14.5333 31.9656 14.45V5.3C31.9656 5.21667 31.9656 5.13333 31.9656 5.05C31.9823 4.96667 31.999 4.89167 32.0156 4.825C32.0156 4.74167 32.0156 4.65833 32.0156 4.575C32.0323 4.49167 32.0406 4.40833 32.0406 4.325C32.0406 4.225 32.0406 4.125 32.0406 4.025C32.0573 3.925 32.074 3.83333 32.0906 3.75C32.1073 3.68333 32.1156 3.625 32.1156 3.575C32.1156 3.525 32.1156 3.46667 32.1156 3.4V2.625C32.1156 2.50833 32.124 2.40833 32.1406 2.325C32.174 2.225 32.199 2.125 32.2156 2.025L32.2906 1.9C32.3406 1.85 32.3823 1.775 32.4156 1.675C32.449 1.575 32.499 1.525 32.5656 1.525C32.6156 1.49167 32.6656 1.46667 32.7156 1.45C32.7656 1.41667 32.799 1.36667 32.8156 1.3L32.8406 1.275C32.8573 1.275 32.874 1.275 32.8906 1.275C32.9073 1.25833 32.924 1.25 32.9406 1.25C33.0073 1.25 33.0573 1.23333 33.0906 1.2C33.1406 1.16667 33.199 1.15833 33.2656 1.175C33.3323 1.19167 33.399 1.2 33.4656 1.2C33.5323 1.2 33.599 1.20833 33.6656 1.225C34.0323 1.29167 34.2906 1.50833 34.4406 1.875L34.5906 2.375C34.6073 2.54167 34.6823 2.7 34.8156 2.85C34.9156 2.96667 35.0156 3.09167 35.1156 3.225C35.2156 3.35833 35.324 3.49167 35.4406 3.625C35.874 4.175 36.274 4.79167 36.6406 5.475C36.674 5.54167 36.7073 5.60833 36.7406 5.675C36.774 5.74167 36.8073 5.80833 36.8406 5.875L38.1406 8.5C38.2406 8.68333 38.3323 8.875 38.4156 9.075C38.5156 9.25833 38.624 9.44167 38.7406 9.625C38.774 9.69167 38.8073 9.75833 38.8406 9.825C38.874 9.875 38.899 9.93333 38.9156 10C38.999 10.2 39.099 10.4 39.2156 10.6C39.2156 10.6 39.2156 10.6083 39.2156 10.625C39.2323 10.625 39.2406 10.6167 39.2406 10.6C39.2573 10.6 39.2656 10.6 39.2656 10.6C39.2823 10.5833 39.2906 10.575 39.2906 10.575L39.3656 9.7V9.45C39.3823 9.36667 39.3906 9.28333 39.3906 9.2C39.4073 9.1 39.424 9.00833 39.4406 8.925C39.4573 8.875 39.4573 8.81667 39.4406 8.75C39.4406 8.68333 39.449 8.61667 39.4656 8.55C39.4656 8.45 39.4656 8.35 39.4656 8.25C39.4823 8.13333 39.499 8.025 39.5156 7.925C39.5323 7.875 39.5406 7.825 39.5406 7.775C39.5406 7.70833 39.5406 7.65 39.5406 7.6V6.925H39.5156V6.25C39.5156 6.16667 39.5156 6.08333 39.5156 6C39.5156 5.91667 39.499 5.83333 39.4656 5.75C39.449 5.7 39.4406 5.625 39.4406 5.525L39.4656 5.35C39.4656 5.3 39.4573 5.25833 39.4406 5.225C39.4406 5.175 39.4406 5.125 39.4406 5.075C39.4573 5.00833 39.449 4.94167 39.4156 4.875C39.3823 4.80833 39.3656 4.74167 39.3656 4.675C39.3823 4.60833 39.3906 4.54167 39.3906 4.475C39.3906 4.40833 39.3906 4.34167 39.3906 4.275C39.3906 4.20833 39.3573 4.175 39.2906 4.175C39.274 4.175 39.2656 4.15833 39.2656 4.125C39.249 4.075 39.249 4.03333 39.2656 4C39.299 3.91667 39.3156 3.825 39.3156 3.725C39.3156 3.625 39.3156 3.525 39.3156 3.425V2.7C39.299 2.6 39.3073 2.5 39.3406 2.4C39.374 2.3 39.4156 2.20833 39.4656 2.125L39.5656 1.975C39.649 1.89167 39.7406 1.80833 39.8406 1.725C39.9406 1.64167 40.0406 1.55833 40.1406 1.475C40.1406 1.475 40.174 1.45833 40.2406 1.425C40.324 1.40833 40.399 1.39167 40.4656 1.375C40.549 1.35833 40.6323 1.35833 40.7156 1.375C40.7823 1.375 40.8323 1.38333 40.8656 1.4C40.9323 1.43333 40.999 1.475 41.0656 1.525C41.1323 1.55833 41.199 1.6 41.2656 1.65C41.299 1.66667 41.3156 1.68333 41.3156 1.7C41.3323 1.71667 41.349 1.73333 41.3656 1.75C41.399 1.78333 41.424 1.825 41.4406 1.875C41.474 1.90833 41.499 1.94167 41.5156 1.975C41.599 2.04167 41.649 2.125 41.6656 2.225C41.699 2.30833 41.724 2.39167 41.7406 2.475V3.525C41.7406 3.64167 41.7406 3.75833 41.7406 3.875C41.7573 3.975 41.774 4.08333 41.7906 4.2C41.8073 4.26667 41.8156 4.33333 41.8156 4.4C41.8156 4.45 41.8156 4.50833 41.8156 4.575C41.8156 4.70833 41.8156 4.85 41.8156 5C41.8323 5.13333 41.8406 5.26667 41.8406 5.4V5.575C41.8406 5.69167 41.8323 5.80833 41.8156 5.925C41.8156 6.025 41.8156 6.13333 41.8156 6.25V7.35C41.8156 7.51667 41.8073 7.69167 41.7906 7.875C41.7906 8.04167 41.799 8.21667 41.8156 8.4C41.8156 8.46667 41.8073 8.51667 41.7906 8.55C41.774 8.71667 41.7656 8.88333 41.7656 9.05C41.7656 9.2 41.7573 9.35833 41.7406 9.525C41.7406 9.59167 41.7406 9.66667 41.7406 9.75C41.7406 9.83333 41.7323 9.91667 41.7156 10C41.699 10.0667 41.6906 10.1333 41.6906 10.2C41.7073 10.2667 41.7156 10.3333 41.7156 10.4C41.749 10.55 41.7573 10.7 41.7406 10.85C41.7406 11 41.7323 11.15 41.7156 11.3C41.699 11.5667 41.6823 11.8417 41.6656 12.125C41.6656 12.3917 41.6823 12.6667 41.7156 12.95C41.7156 13.0167 41.7156 13.0917 41.7156 13.175C41.7323 13.2583 41.7406 13.3417 41.7406 13.425C41.724 13.675 41.7323 13.9167 41.7656 14.15C41.8156 14.3833 41.8656 14.6167 41.9156 14.85C41.949 15.0167 41.9823 15.1833 42.0156 15.35C42.049 15.5 42.074 15.6667 42.0906 15.85C42.0906 15.9167 42.0823 15.9583 42.0656 15.975C42.049 16.0083 42.0323 16.05 42.0156 16.1C41.999 16.1333 41.9906 16.1667 41.9906 16.2C41.974 16.3333 41.924 16.4583 41.8406 16.575C41.774 16.6917 41.699 16.8083 41.6156 16.925C41.399 17.2083 41.099 17.3083 40.7156 17.225ZM47.8033 17.175C47.7033 17.175 47.6367 17.1667 47.6033 17.15C47.52 17.1167 47.4367 17.1 47.3533 17.1C47.2867 17.1167 47.2117 17.125 47.1283 17.125C47.1117 17.125 47.095 17.125 47.0783 17.125C47.0617 17.1417 47.045 17.15 47.0283 17.15C46.9117 17.1667 46.795 17.175 46.6783 17.175C46.5783 17.175 46.4783 17.1583 46.3783 17.125C46.3617 17.1083 46.345 17.1 46.3283 17.1C46.2117 17.1167 46.1117 17.0833 46.0283 17C45.945 16.9167 45.8617 16.8417 45.7783 16.775C45.695 16.6917 45.6533 16.6 45.6533 16.5L45.5783 16.3C45.5283 16.1833 45.5117 16.075 45.5283 15.975C45.545 15.9417 45.545 15.9083 45.5283 15.875C45.5283 15.8417 45.5283 15.8083 45.5283 15.775C45.5117 15.7417 45.5033 15.7083 45.5033 15.675C45.5033 15.625 45.495 15.5833 45.4783 15.55C45.445 15.4 45.42 15.25 45.4033 15.1C45.4033 14.9333 45.4117 14.775 45.4283 14.625C45.445 14.525 45.5033 14.3583 45.6033 14.125C45.7033 13.875 45.7617 13.725 45.7783 13.675C45.8283 13.5917 45.8533 13.525 45.8533 13.475C45.8367 13.2917 45.8283 13.1083 45.8283 12.925C45.845 12.725 45.8533 12.5333 45.8533 12.35C45.8533 12.2333 45.8783 12.1417 45.9283 12.075C45.995 11.9583 46.0033 11.8333 45.9533 11.7L45.8783 11.425C45.7783 11.2417 45.7867 11.0833 45.9033 10.95C45.9033 10.9333 45.9033 10.925 45.9033 10.925C45.92 10.9083 45.9283 10.8917 45.9283 10.875C45.9617 10.8417 45.97 10.8 45.9533 10.75C45.9367 10.6833 45.9283 10.6333 45.9283 10.6C45.9283 10.5333 45.9367 10.4667 45.9533 10.4C45.9867 10.3167 45.995 10.2417 45.9783 10.175C45.9783 10.175 45.9617 10.1583 45.9283 10.125C45.9117 10.0917 45.9033 10.025 45.9033 9.925C45.92 9.825 45.9283 9.76667 45.9283 9.75V9.05C45.945 8.96667 45.9533 8.89167 45.9533 8.825C45.9533 8.74167 45.9617 8.65833 45.9783 8.575C45.995 8.475 45.995 8.375 45.9783 8.275C45.9783 8.15833 45.9783 8.04167 45.9783 7.925C45.9617 7.84167 45.945 7.75 45.9283 7.65C45.9283 7.55 45.9283 7.45 45.9283 7.35C45.9117 7.31667 45.9033 7.275 45.9033 7.225C45.9033 7.175 45.9033 7.13333 45.9033 7.1C45.8867 7.01667 45.87 6.93333 45.8533 6.85C45.8533 6.76667 45.8533 6.68333 45.8533 6.6C45.8533 6.56667 45.82 6.45833 45.7533 6.275C45.6867 6.075 45.6617 5.90833 45.6783 5.775C45.695 5.74167 45.7033 5.7 45.7033 5.65C45.7033 5.6 45.6867 5.55833 45.6533 5.525C45.62 5.50833 45.6033 5.475 45.6033 5.425V5.35C45.6533 5.15 45.6283 4.95 45.5283 4.75C45.4617 4.65 45.4367 4.55 45.4533 4.45C45.4533 4.31667 45.395 4.21667 45.2783 4.15C45.195 4.06667 45.12 3.96667 45.0533 3.85C44.9867 3.73333 44.945 3.61667 44.9283 3.5C44.9117 3.41667 44.9033 3.33333 44.9033 3.25C44.9033 3.16667 44.9033 3.09167 44.9033 3.025C44.9033 2.95833 44.9117 2.91667 44.9283 2.9C44.995 2.83333 45.0283 2.75833 45.0283 2.675C45.0283 2.575 45.0367 2.5 45.0533 2.45C45.07 2.43333 45.0867 2.425 45.1033 2.425C45.12 2.425 45.1367 2.41667 45.1533 2.4C45.22 2.38333 45.2533 2.325 45.2533 2.225C45.22 2.15833 45.2033 2.1 45.2033 2.05C45.1867 1.98333 45.2117 1.925 45.2783 1.875C45.3117 1.80833 45.3533 1.79167 45.4033 1.825C45.52 1.875 45.6533 1.85833 45.8033 1.775C45.87 1.74167 45.9117 1.725 45.9283 1.725C45.9783 1.725 46.0033 1.725 46.0033 1.725C46.02 1.70833 46.07 1.7 46.1533 1.7C46.2533 1.71667 46.345 1.68333 46.4283 1.6C46.545 1.48333 46.6867 1.425 46.8533 1.425H48.4033C48.7867 1.44167 49.17 1.44167 49.5533 1.425C49.9367 1.40833 50.3117 1.4 50.6783 1.4C50.7617 1.4 50.8283 1.4 50.8783 1.4C50.945 1.38333 51.0117 1.36667 51.0783 1.35C51.1783 1.3 51.295 1.275 51.4283 1.275H52.0033C52.1367 1.275 52.2533 1.275 52.3533 1.275C52.47 1.25833 52.5867 1.24167 52.7033 1.225C52.77 1.20833 52.8283 1.2 52.8783 1.2C52.945 1.2 53.0117 1.2 53.0783 1.2C53.145 1.2 53.2117 1.2 53.2783 1.2C53.345 1.2 53.4117 1.19167 53.4783 1.175C53.6117 1.15833 53.7533 1.15 53.9033 1.15C54.0533 1.13333 54.195 1.125 54.3283 1.125C54.395 1.125 54.4533 1.125 54.5033 1.125C54.57 1.10833 54.6367 1.09167 54.7033 1.075C54.8367 1.04167 54.9617 1.025 55.0783 1.025C55.2117 1.00833 55.3367 0.991666 55.4533 0.974999C55.5867 0.958333 55.7117 0.941666 55.8283 0.925C55.9617 0.908332 56.0867 0.891665 56.2033 0.874999C56.3533 0.874999 56.4617 0.891666 56.5283 0.925C56.6283 0.991666 56.72 1.05 56.8033 1.1C56.9033 1.15 56.995 1.21667 57.0783 1.3C57.145 1.36667 57.1867 1.425 57.2033 1.475C57.22 1.54167 57.2367 1.60833 57.2533 1.675C57.27 1.74167 57.2867 1.81667 57.3033 1.9V2.075C57.2867 2.15833 57.27 2.25 57.2533 2.35C57.2533 2.43333 57.245 2.525 57.2283 2.625C57.195 2.69167 57.1533 2.75 57.1033 2.8L56.6533 3.25C56.4867 3.3 56.32 3.33333 56.1533 3.35C56.0033 3.36667 55.845 3.36667 55.6783 3.35H55.5033C55.42 3.36667 55.3367 3.375 55.2533 3.375C55.17 3.375 55.0867 3.36667 55.0033 3.35C54.9033 3.33333 54.8033 3.33333 54.7033 3.35C54.6033 3.35 54.5033 3.35 54.4033 3.35C54.3367 3.35 54.27 3.35833 54.2033 3.375C54.1533 3.375 54.095 3.36667 54.0283 3.35C53.945 3.33333 53.8617 3.33333 53.7783 3.35C53.7117 3.35 53.6367 3.35833 53.5533 3.375C53.4867 3.375 53.4117 3.38333 53.3283 3.4C53.2617 3.4 53.1867 3.4 53.1033 3.4C52.8867 3.43333 52.6533 3.45 52.4033 3.45C52.17 3.45 51.9367 3.46667 51.7033 3.5C51.5533 3.48333 51.4117 3.49167 51.2783 3.525C51.145 3.54167 51.0033 3.55833 50.8533 3.575C50.72 3.59167 50.5783 3.6 50.4283 3.6C50.2783 3.6 50.1367 3.61667 50.0033 3.65C49.8367 3.65 49.67 3.675 49.5033 3.725C49.3533 3.75833 49.195 3.78333 49.0283 3.8L48.8533 3.825C48.7367 3.825 48.6283 3.84167 48.5283 3.875C48.4283 3.89167 48.32 3.91667 48.2033 3.95C48.1367 3.96667 48.07 3.98333 48.0033 4C47.9367 4 47.8617 4.00833 47.7783 4.025C47.7283 4.025 47.67 4.04167 47.6033 4.075C47.5533 4.09167 47.5283 4.14167 47.5283 4.225L47.6033 4.45C47.62 4.48333 47.6117 4.56667 47.5783 4.7C47.5617 4.83333 47.545 4.93333 47.5283 5C47.5283 5.05 47.5367 5.1 47.5533 5.15C47.57 5.2 47.5867 5.25 47.6033 5.3C47.6533 5.43333 47.6783 5.58333 47.6783 5.75C47.6783 5.9 47.695 6.04167 47.7283 6.175C47.745 6.24167 47.7533 6.31667 47.7533 6.4C47.7533 6.46667 47.7617 6.54167 47.7783 6.625C47.7783 6.65833 47.7783 6.7 47.7783 6.75C47.795 6.78333 47.8033 6.825 47.8033 6.875C47.8033 6.925 47.795 6.95833 47.7783 6.975C47.7283 7.04167 47.7033 7.11667 47.7033 7.2C47.7033 7.28333 47.7033 7.36667 47.7033 7.45C47.7867 7.61667 47.8283 7.78333 47.8283 7.95C47.8283 8.11667 47.8283 8.28333 47.8283 8.45C47.8283 8.5 47.87 8.51667 47.9533 8.5H47.9783C48.0117 8.43333 48.045 8.38333 48.0783 8.35C48.1283 8.35 48.1867 8.33333 48.2533 8.3C48.3033 8.26667 48.37 8.25 48.4533 8.25C48.5867 8.26667 48.7117 8.26667 48.8283 8.25C48.945 8.21667 49.0617 8.18333 49.1783 8.15C49.9617 7.95 50.695 7.69167 51.3783 7.375C51.5617 7.29167 51.7533 7.225 51.9533 7.175C52.1533 7.10833 52.3533 7.06667 52.5533 7.05H52.6283C52.7783 7.03333 52.9283 7.01667 53.0783 7C53.2283 6.98333 53.3783 6.975 53.5283 6.975C53.7283 6.95833 53.92 6.93333 54.1033 6.9C54.3033 6.86667 54.5033 6.84167 54.7033 6.825C54.82 6.79167 54.9283 6.76667 55.0283 6.75C55.1283 6.71667 55.2367 6.675 55.3533 6.625C55.57 6.54167 55.77 6.5 55.9533 6.5C56.0867 6.51667 56.2117 6.55 56.3283 6.6C56.445 6.63333 56.5617 6.68333 56.6783 6.75C56.9283 6.91667 57.0533 7.16667 57.0533 7.5C57.0533 7.63333 57.0367 7.76667 57.0033 7.9C56.9867 8.03333 56.9783 8.16667 56.9783 8.3C56.9783 8.33333 56.9617 8.36667 56.9283 8.4L56.8533 8.525C56.8367 8.59167 56.82 8.65833 56.8033 8.725C56.7867 8.79167 56.745 8.84167 56.6783 8.875C56.5783 8.95833 56.47 9.05 56.3533 9.15C56.2533 9.23333 56.1367 9.29167 56.0033 9.325C55.9367 9.34167 55.87 9.35833 55.8033 9.375C55.7533 9.39167 55.695 9.4 55.6283 9.4C55.3617 9.4 55.0867 9.41667 54.8033 9.45C54.5367 9.48333 54.2617 9.51667 53.9783 9.55C53.7617 9.56667 53.545 9.59167 53.3283 9.625C53.1283 9.65833 52.92 9.675 52.7033 9.675C52.5033 9.675 52.2783 9.71667 52.0283 9.8C51.8617 9.83333 51.6867 9.86667 51.5033 9.9C51.32 9.93333 51.1367 9.95833 50.9533 9.975C50.82 9.99167 50.6783 10.0167 50.5283 10.05C50.395 10.0667 50.2617 10.0833 50.1283 10.1L49.7033 10.175C49.67 10.1917 49.62 10.2 49.5533 10.2C49.4367 10.2333 49.32 10.2583 49.2033 10.275C49.0867 10.2917 48.97 10.3167 48.8533 10.35C48.7367 10.3667 48.62 10.3917 48.5033 10.425C48.4033 10.4583 48.295 10.4917 48.1783 10.525C48.095 10.5417 48.0283 10.575 47.9783 10.625C47.9283 10.6583 47.8867 10.7083 47.8533 10.775C47.8367 10.825 47.8367 10.875 47.8533 10.925C47.87 10.9917 47.8617 11.0583 47.8283 11.125C47.845 11.2917 47.8533 11.4583 47.8533 11.625C47.87 11.7917 47.87 11.9583 47.8533 12.125C47.8867 12.2583 47.895 12.3917 47.8783 12.525C47.8783 12.6583 47.87 12.7917 47.8533 12.925C47.82 13.125 47.8283 13.2917 47.8783 13.425C47.9283 13.6417 47.9117 13.8667 47.8283 14.1C47.795 14.2 47.795 14.2667 47.8283 14.3C47.8617 14.35 47.8617 14.4083 47.8283 14.475V14.625C47.8117 14.7583 47.87 14.825 48.0033 14.825H48.0533C48.17 14.825 48.2867 14.8667 48.4033 14.95C48.4867 15.0333 48.5867 15.0583 48.7033 15.025L49.4033 14.95C49.5033 14.9333 49.6033 14.925 49.7033 14.925C49.8033 14.9083 49.9033 14.9 50.0033 14.9C50.0367 14.8833 50.0867 14.8917 50.1533 14.925C50.2367 14.975 50.3117 14.9833 50.3783 14.95C50.4117 14.9167 50.4533 14.8917 50.5033 14.875C50.57 14.8583 50.62 14.8333 50.6533 14.8C50.7533 14.7 50.8783 14.6667 51.0283 14.7C51.1617 14.7333 51.27 14.725 51.3533 14.675C51.5033 14.625 51.645 14.6083 51.7783 14.625C51.8617 14.6417 51.945 14.6333 52.0283 14.6C52.1117 14.5667 52.195 14.55 52.2783 14.55C52.3117 14.55 52.3367 14.5583 52.3533 14.575C52.37 14.575 52.3867 14.5667 52.4033 14.55C52.4367 14.55 52.47 14.5417 52.5033 14.525C52.5367 14.5083 52.5617 14.5 52.5783 14.5C52.695 14.45 52.8033 14.4333 52.9033 14.45C52.9867 14.45 53.0283 14.45 53.0283 14.45C53.095 14.4333 53.1533 14.4333 53.2033 14.45C53.27 14.4667 53.3283 14.4917 53.3783 14.525C53.4617 14.5417 53.5283 14.5667 53.5783 14.6C53.645 14.6333 53.7117 14.6583 53.7783 14.675C53.8117 14.675 53.8367 14.6833 53.8533 14.7C53.9367 14.7667 54.0367 14.825 54.1533 14.875C54.2867 14.925 54.3617 14.9833 54.3783 15.05C54.4117 15.15 54.4283 15.25 54.4283 15.35C54.4283 15.4333 54.4367 15.525 54.4533 15.625C54.4533 15.675 54.445 15.725 54.4283 15.775C54.4283 15.825 54.42 15.875 54.4033 15.925C54.37 15.9917 54.3283 16.0667 54.2783 16.15C54.245 16.2333 54.195 16.3083 54.1283 16.375C54.095 16.4083 54.0617 16.4417 54.0283 16.475C54.0117 16.5083 53.9867 16.5417 53.9533 16.575C53.8867 16.6417 53.8117 16.7 53.7283 16.75C53.645 16.8 53.5533 16.825 53.4533 16.825C53.3867 16.825 53.3367 16.8333 53.3033 16.85C53.2367 16.8833 53.17 16.9 53.1033 16.9C53.0367 16.9 52.9617 16.9 52.8783 16.9C52.7617 16.9167 52.645 16.9333 52.5283 16.95C52.4283 16.95 52.32 16.9417 52.2033 16.925C52.1367 16.9083 52.0783 16.9083 52.0283 16.925C51.8617 16.975 51.695 16.9833 51.5283 16.95C51.3617 16.95 51.195 16.9583 51.0283 16.975C50.8783 16.975 50.7283 16.975 50.5783 16.975H50.2533C50.2033 16.975 50.1617 16.9833 50.1283 17C50.0617 17.0333 49.9783 17.05 49.8783 17.05C49.795 17.05 49.7117 17.0417 49.6283 17.025H49.3783C49.3617 17.025 49.3367 17.025 49.3033 17.025C49.27 17.0417 49.2367 17.0417 49.2033 17.025C49.1533 17.0083 49.1033 17 49.0533 17C49.02 17.0167 48.9783 17.0333 48.9283 17.05C48.895 17.05 48.8617 17.05 48.8283 17.05C48.8117 17.0667 48.7867 17.075 48.7533 17.075C48.5867 17.0583 48.4283 17.0583 48.2783 17.075C48.1283 17.1083 47.97 17.1417 47.8033 17.175ZM66.2721 17.75C65.9554 17.7167 65.6971 17.6 65.4971 17.4C65.2304 17.1333 65.0471 16.8083 64.9471 16.425C64.8804 16.0917 64.7804 15.7667 64.6471 15.45L64.2721 14.45C64.1721 14.1833 64.0721 13.925 63.9721 13.675C63.8721 13.425 63.7721 13.175 63.6721 12.925L63.5221 12.5C63.4887 12.4333 63.4554 12.375 63.4221 12.325C63.4054 12.2583 63.3804 12.1917 63.3471 12.125C63.3137 12.0417 63.2721 11.9583 63.2221 11.875C63.1887 11.775 63.1471 11.6833 63.0971 11.6C63.0304 11.4167 62.9637 11.2333 62.8971 11.05C62.8304 10.8667 62.7554 10.6833 62.6721 10.5C62.6554 10.4667 62.6387 10.4333 62.6221 10.4C62.6054 10.35 62.5804 10.3 62.5471 10.25C62.4471 10.0167 62.3387 9.78333 62.2221 9.55C62.1221 9.3 62.0137 9.05 61.8971 8.8L61.1471 7.075C61.0304 6.79167 60.9054 6.50833 60.7721 6.225C60.6554 5.94167 60.5387 5.65833 60.4221 5.375L60.2721 4.95C60.2554 4.9 60.2387 4.85 60.2221 4.8C60.2054 4.75 60.1804 4.7 60.1471 4.65C60.1471 4.61667 60.1387 4.58333 60.1221 4.55C60.1054 4.51667 60.0971 4.49167 60.0971 4.475C60.0637 4.34167 60.0137 4.21667 59.9471 4.1C59.8971 3.96667 59.8387 3.84167 59.7721 3.725L59.6471 3.45C59.6304 3.4 59.6054 3.35 59.5721 3.3C59.5554 3.25 59.5304 3.2 59.4971 3.15C59.5137 3.06667 59.5221 2.98333 59.5221 2.9C59.5221 2.81667 59.5304 2.74167 59.5471 2.675C59.5971 2.44167 59.6304 2.31667 59.6471 2.3C59.6637 2.26667 59.7721 2.175 59.9721 2.025C59.9887 2.00833 60.0304 1.98333 60.0971 1.95C60.2137 1.86667 60.3221 1.83333 60.4221 1.85C60.4887 1.85 60.5471 1.84167 60.5971 1.825C60.6637 1.79167 60.7304 1.78333 60.7971 1.8C60.8971 1.8 60.9637 1.80833 60.9971 1.825C61.0971 1.85833 61.1554 1.875 61.1721 1.875C61.3221 1.90833 61.4221 1.975 61.4721 2.075C61.4887 2.09167 61.5054 2.10833 61.5221 2.125C61.5387 2.14167 61.5554 2.15833 61.5721 2.175C61.7554 2.325 61.8637 2.51667 61.8971 2.75C61.9304 2.86667 61.9637 2.99167 61.9971 3.125C62.0471 3.24167 62.0971 3.35833 62.1471 3.475C62.2304 3.65833 62.3137 3.85 62.3971 4.05C62.4804 4.25 62.5554 4.44167 62.6221 4.625C62.7221 4.84167 62.8137 5.05833 62.8971 5.275C62.9971 5.49167 63.0971 5.71667 63.1971 5.95C63.2804 6.13333 63.3637 6.325 63.4471 6.525C63.5304 6.70833 63.6054 6.89167 63.6721 7.075C63.7387 7.20833 63.7971 7.35 63.8471 7.5C63.9137 7.63333 63.9721 7.775 64.0221 7.925L64.0471 8.025C64.1804 8.29167 64.2971 8.56667 64.3971 8.85C64.5137 9.11667 64.6304 9.39167 64.7471 9.675C64.7804 9.725 64.8054 9.775 64.8221 9.825C64.8387 9.875 64.8554 9.925 64.8721 9.975C64.9387 10.0417 64.9887 10.125 65.0221 10.225C65.0721 10.325 65.1137 10.4167 65.1471 10.5C65.1971 10.6333 65.2471 10.7667 65.2971 10.9C65.3471 11.0167 65.4054 11.1417 65.4721 11.275C65.5054 11.3917 65.5471 11.5 65.5971 11.6C65.6637 11.6833 65.7304 11.775 65.7971 11.875C65.8304 11.8917 65.8637 11.8833 65.8971 11.85C65.9637 11.7167 66.0221 11.5917 66.0721 11.475C66.1387 11.3417 66.1971 11.2083 66.2471 11.075C66.2971 10.925 66.3471 10.7833 66.3971 10.65C66.4637 10.5 66.5221 10.35 66.5721 10.2C66.5721 10.1833 66.5721 10.175 66.5721 10.175C66.5887 10.175 66.5971 10.1667 66.5971 10.15C66.6804 9.9 66.7637 9.65 66.8471 9.4C66.9304 9.15 67.0054 8.9 67.0721 8.65L67.4471 7.25C67.5471 6.86667 67.6471 6.48333 67.7471 6.1C67.8471 5.71667 67.9554 5.34167 68.0721 4.975C68.0887 4.89167 68.1054 4.81667 68.1221 4.75C68.1554 4.68333 68.1804 4.61667 68.1971 4.55L68.7221 3.25C68.7554 3.16667 68.7887 3.1 68.8221 3.05C68.8554 2.98333 68.8804 2.91667 68.8971 2.85C68.9804 2.71667 69.0471 2.575 69.0971 2.425C69.1471 2.275 69.1971 2.125 69.2471 1.975C69.2637 1.90833 69.2804 1.85 69.2971 1.8C69.3137 1.73333 69.3137 1.66667 69.2971 1.6C69.2804 1.55 69.2887 1.475 69.3221 1.375L69.4721 1.025C69.5721 0.758332 69.7471 0.574999 69.9971 0.475C70.0804 0.424999 70.1637 0.383333 70.2471 0.35C70.3304 0.283333 70.4137 0.266666 70.4971 0.299999C70.6137 0.316665 70.7221 0.333332 70.8221 0.35C70.9387 0.366666 71.0471 0.391666 71.1471 0.424999C71.2804 0.474999 71.3804 0.558332 71.4471 0.674999C71.4804 0.708332 71.5054 0.741666 71.5221 0.774999C71.5387 0.808333 71.5554 0.841666 71.5721 0.874999L71.6471 1.075C71.6804 1.10833 71.7054 1.14167 71.7221 1.175C71.7554 1.19167 71.7721 1.225 71.7721 1.275C71.7721 1.34167 71.7721 1.40833 71.7721 1.475C71.7887 1.525 71.7971 1.59167 71.7971 1.675C71.7137 2.025 71.6137 2.34167 71.4971 2.625C71.4804 2.69167 71.4554 2.76667 71.4221 2.85C71.3887 2.91667 71.3554 2.99167 71.3221 3.075C71.3054 3.09167 71.2971 3.11667 71.2971 3.15C71.1804 3.36667 71.0804 3.59167 70.9971 3.825C70.9304 4.04167 70.8471 4.26667 70.7471 4.5C70.6804 4.66667 70.6137 4.83333 70.5471 5C70.4971 5.15 70.4387 5.30833 70.3721 5.475C70.3054 5.64167 70.2471 5.80833 70.1971 5.975C70.1637 6.14167 70.1304 6.30833 70.0971 6.475C70.0804 6.54167 70.0637 6.60833 70.0471 6.675C70.0304 6.725 70.0137 6.775 69.9971 6.825C69.9471 7.04167 69.8971 7.25833 69.8471 7.475C69.7971 7.69167 69.7387 7.90833 69.6721 8.125C69.6387 8.29167 69.5971 8.45 69.5471 8.6C69.4971 8.75 69.4554 8.9 69.4221 9.05C69.4221 9.06667 69.4137 9.08333 69.3971 9.1C69.3971 9.11667 69.3971 9.13333 69.3971 9.15C69.3304 9.25 69.2804 9.35 69.2471 9.45C69.2304 9.55 69.2054 9.65 69.1721 9.75C69.1387 9.85 69.0971 9.95833 69.0471 10.075C69.0137 10.175 68.9721 10.275 68.9221 10.375C68.8054 10.5917 68.7387 10.8167 68.7221 11.05C68.7054 11.0833 68.6887 11.125 68.6721 11.175C68.6721 11.225 68.6554 11.275 68.6221 11.325L68.3221 12.075C68.2887 12.1417 68.2637 12.2 68.2471 12.25C68.1804 12.5 68.1137 12.7583 68.0471 13.025C67.9804 13.275 67.9054 13.525 67.8221 13.775C67.7554 14.0083 67.7054 14.25 67.6721 14.5C67.6387 14.75 67.6054 14.9917 67.5721 15.225C67.5387 15.5083 67.5471 15.7583 67.5971 15.975C67.6137 16.0583 67.6221 16.15 67.6221 16.25C67.6221 16.35 67.6221 16.4417 67.6221 16.525C67.6387 16.6917 67.5971 16.8417 67.4971 16.975C67.4637 17.0083 67.4304 17.075 67.3971 17.175C67.2304 17.4917 66.9637 17.675 66.5971 17.725C66.5471 17.725 66.4971 17.725 66.4471 17.725C66.3971 17.7417 66.3387 17.75 66.2721 17.75ZM83.1295 18.825C82.9795 18.825 82.8462 18.7667 82.7295 18.65C82.6962 18.6 82.6628 18.55 82.6295 18.5C82.5962 18.45 82.5628 18.4 82.5295 18.35C82.3795 18 82.3045 17.6333 82.3045 17.25L82.2295 16.65C82.1795 16.4167 82.1378 16.1833 82.1045 15.95C82.0712 15.7167 82.0128 15.4917 81.9295 15.275L81.7795 14.85C81.7795 14.8167 81.7712 14.7833 81.7545 14.75C81.7545 14.7167 81.7462 14.6833 81.7295 14.65L81.3545 13.325C81.3378 13.2917 81.3212 13.25 81.3045 13.2C81.3045 13.15 81.2878 13.1083 81.2545 13.075C81.2045 12.975 81.1628 12.875 81.1295 12.775C81.1128 12.6583 81.0878 12.5417 81.0545 12.425C81.0378 12.3417 81.0212 12.2667 81.0045 12.2C80.9878 12.1167 80.9628 12.0333 80.9295 11.95C80.8962 11.85 80.8628 11.7917 80.8295 11.775C80.7962 11.7417 80.7212 11.7417 80.6045 11.775C80.5212 11.7917 80.4295 11.8083 80.3295 11.825C80.2462 11.825 80.1628 11.8417 80.0795 11.875C80.0128 11.8917 79.9295 11.9083 79.8295 11.925C79.7462 11.925 79.6628 11.9333 79.5795 11.95L79.2295 12.025C79.1462 12.0417 79.0545 12.0667 78.9545 12.1C78.8712 12.1167 78.7878 12.125 78.7045 12.125L78.2545 12.2C78.1212 12.2333 77.9795 12.2667 77.8295 12.3C77.6795 12.3333 77.5378 12.3667 77.4045 12.4C77.0045 12.5 76.6045 12.575 76.2045 12.625C76.0712 12.6583 75.9962 12.7167 75.9795 12.8C75.9628 12.8 75.9545 12.8083 75.9545 12.825C75.8545 13.0917 75.7378 13.3583 75.6045 13.625C75.4878 13.875 75.3628 14.1333 75.2295 14.4C75.1962 14.4667 75.1628 14.5333 75.1295 14.6C75.1128 14.65 75.0878 14.7083 75.0545 14.775C75.0378 14.8083 75.0212 14.85 75.0045 14.9C74.9878 14.9333 74.9712 14.9667 74.9545 15C74.8545 15.1167 74.8045 15.2583 74.8045 15.425C74.7878 15.525 74.7545 15.625 74.7045 15.725C74.6545 15.8083 74.6045 15.8917 74.5545 15.975C74.5378 16.025 74.5045 16.05 74.4545 16.05C74.3878 16.0667 74.3212 16.0917 74.2545 16.125C74.1878 16.1583 74.1128 16.1917 74.0295 16.225C73.9795 16.2417 73.9295 16.2417 73.8795 16.225C73.8462 16.2083 73.8045 16.1917 73.7545 16.175C73.7212 16.1417 73.6878 16.125 73.6545 16.125C73.4712 16.1083 73.3378 16 73.2545 15.8C73.1212 15.5333 73.0295 15.2667 72.9795 15C72.9628 14.9333 72.9628 14.875 72.9795 14.825C73.0128 14.775 73.0378 14.725 73.0545 14.675C73.1545 14.6083 73.2128 14.5333 73.2295 14.45V14.425C73.2295 14.2083 73.2712 14.0083 73.3545 13.825C73.4545 13.625 73.5378 13.4333 73.6045 13.25C73.6378 13.15 73.6795 13.05 73.7295 12.95C73.7795 12.85 73.8295 12.75 73.8795 12.65C73.9462 12.5333 73.9962 12.425 74.0295 12.325C74.0795 12.2083 74.1212 12.0917 74.1545 11.975C74.2045 11.8417 74.2045 11.7167 74.1545 11.6C74.1212 11.5 74.1045 11.4083 74.1045 11.325C74.1045 11.225 74.1128 11.125 74.1295 11.025C74.1295 10.8417 74.1962 10.6833 74.3295 10.55C74.3962 10.4667 74.4628 10.4 74.5295 10.35C74.6128 10.2833 74.6878 10.2167 74.7545 10.15C74.9045 10 75.0212 9.8 75.1045 9.55C75.1712 9.33333 75.2212 9.11667 75.2545 8.9C75.3045 8.66667 75.3545 8.44167 75.4045 8.225C75.4378 8.00833 75.4712 7.8 75.5045 7.6C75.5545 7.38333 75.6045 7.175 75.6545 6.975C75.6712 6.89167 75.6878 6.81667 75.7045 6.75C75.7378 6.66667 75.7628 6.59167 75.7795 6.525C75.8295 6.39167 75.8795 6.26667 75.9295 6.15C75.9795 6.01667 76.0128 5.88333 76.0295 5.75C76.0628 5.68333 76.0628 5.625 76.0295 5.575C76.0128 5.49167 76.0128 5.41667 76.0295 5.35C76.0628 5.28333 76.0878 5.21667 76.1045 5.15C76.1545 5.03333 76.1878 4.91667 76.2045 4.8C76.2378 4.68333 76.2795 4.56667 76.3295 4.45C76.4128 4.23333 76.4795 4.05833 76.5295 3.925C76.5962 3.775 76.6545 3.60833 76.7045 3.425C76.7378 3.325 76.7712 3.23333 76.8045 3.15C76.8545 3.05 76.8878 2.95 76.9045 2.85C76.9545 2.7 76.9962 2.55 77.0295 2.4C77.0628 2.23333 77.0795 2.075 77.0795 1.925C77.1128 1.79167 77.1462 1.7 77.1795 1.65C77.2628 1.48333 77.3628 1.34167 77.4795 1.225C77.6128 1.10833 77.7378 0.991666 77.8545 0.874999C77.9378 0.825 78.0212 0.791666 78.1045 0.774999C78.1878 0.741666 78.2712 0.75 78.3545 0.8C78.4212 0.833333 78.4628 0.849999 78.4795 0.849999C78.6295 0.833333 78.7545 0.866666 78.8545 0.95C78.9545 1.03333 79.0378 1.13333 79.1045 1.25C79.1378 1.28333 79.1628 1.325 79.1795 1.375C79.1962 1.425 79.2128 1.46667 79.2295 1.5C79.3128 1.63333 79.3545 1.76667 79.3545 1.9C79.3545 1.96667 79.3628 2.04167 79.3795 2.125C79.3962 2.19167 79.4128 2.26667 79.4295 2.35C79.4795 2.45 79.5545 2.5 79.6545 2.5C79.6712 2.48333 79.6878 2.48333 79.7045 2.5C79.7212 2.51667 79.7295 2.53333 79.7295 2.55C79.8128 2.65 79.8378 2.75833 79.8045 2.875C79.7712 3.00833 79.7628 3.14167 79.7795 3.275C79.8128 3.39167 79.8462 3.51667 79.8795 3.65C79.9462 3.81667 80.0128 3.98333 80.0795 4.15C80.1462 4.31667 80.2128 4.48333 80.2795 4.65C80.3628 4.83333 80.4462 5.01667 80.5295 5.2C80.6128 5.38333 80.6878 5.56667 80.7545 5.75C80.8378 5.98333 80.9212 6.21667 81.0045 6.45C81.1045 6.68333 81.2128 6.91667 81.3295 7.15L81.4045 7.425C81.4212 7.49167 81.4378 7.55833 81.4545 7.625C81.4878 7.69167 81.5128 7.75833 81.5295 7.825C81.5628 7.875 81.5878 7.925 81.6045 7.975C81.6378 8.025 81.6712 8.06667 81.7045 8.1C81.7878 8.21667 81.8378 8.34167 81.8545 8.475C81.9045 8.64167 81.9795 8.79167 82.0795 8.925C82.1128 8.975 82.1628 9 82.2295 9C82.4795 8.96667 82.7295 8.94167 82.9795 8.925C83.2295 8.89167 83.4795 8.84167 83.7295 8.775C83.9128 8.725 84.0878 8.7 84.2545 8.7C84.5712 8.7 84.8628 8.80833 85.1295 9.025C85.4462 9.275 85.6128 9.59167 85.6295 9.975C85.6295 10.0583 85.6378 10.125 85.6545 10.175C85.6545 10.2917 85.6212 10.3833 85.5545 10.45C85.5378 10.5 85.5045 10.55 85.4545 10.6C85.4212 10.65 85.3878 10.7 85.3545 10.75C85.3212 10.8167 85.2878 10.8667 85.2545 10.9L85.1045 11.025C85.0878 11.0583 85.0628 11.1 85.0295 11.15C84.9962 11.1833 84.9545 11.2083 84.9045 11.225C84.8378 11.2417 84.7712 11.2667 84.7045 11.3C84.6378 11.3167 84.5628 11.325 84.4795 11.325C84.1795 11.3583 83.9128 11.35 83.6795 11.3H83.2795C83.2462 11.3 83.1962 11.3167 83.1295 11.35C83.0628 11.3833 83.0295 11.425 83.0295 11.475V11.575C83.0795 11.725 83.1128 11.8833 83.1295 12.05C83.1628 12.2 83.2128 12.3417 83.2795 12.475C83.2795 12.5417 83.2962 12.6083 83.3295 12.675C83.4128 12.825 83.4795 12.9833 83.5295 13.15C83.5795 13.3 83.6212 13.4583 83.6545 13.625C83.6545 13.6583 83.6712 13.725 83.7045 13.825C83.7545 13.9417 83.7962 14.0667 83.8295 14.2C83.8628 14.3167 83.8878 14.4417 83.9045 14.575C83.9045 14.675 83.9295 14.7667 83.9795 14.85C84.0462 15 84.0962 15.15 84.1295 15.3C84.1628 15.45 84.1878 15.6083 84.2045 15.775C84.2212 15.7917 84.2295 15.825 84.2295 15.875C84.2295 15.9083 84.2378 15.9417 84.2545 15.975C84.3378 16.1583 84.3962 16.3583 84.4295 16.575C84.4628 16.775 84.5045 16.975 84.5545 17.175C84.5878 17.275 84.6045 17.375 84.6045 17.475C84.6212 17.5917 84.6295 17.7083 84.6295 17.825C84.6295 17.9083 84.6045 18 84.5545 18.1C84.5045 18.15 84.4795 18.175 84.4795 18.175C84.3795 18.1917 84.3212 18.25 84.3045 18.35L84.2295 18.5C84.1962 18.5667 84.1462 18.6083 84.0795 18.625C84.0128 18.625 83.9545 18.65 83.9045 18.7C83.8378 18.7667 83.7462 18.8 83.6295 18.8C83.5628 18.8 83.4795 18.8 83.3795 18.8C83.2962 18.8 83.2128 18.8083 83.1295 18.825ZM77.1045 9.75C77.2045 9.73333 77.3045 9.71667 77.4045 9.7C77.5212 9.68333 77.6462 9.66667 77.7795 9.65C77.8628 9.63333 77.9712 9.61667 78.1045 9.6C78.2378 9.58333 78.3628 9.56667 78.4795 9.55C78.5962 9.51667 78.7128 9.5 78.8295 9.5C78.9462 9.48333 79.0628 9.46667 79.1795 9.45C79.2795 9.41667 79.3795 9.4 79.4795 9.4C79.5795 9.38333 79.6795 9.36667 79.7795 9.35C79.9295 9.31667 79.9878 9.23333 79.9545 9.1C79.9378 8.96667 79.9045 8.83333 79.8545 8.7C79.8212 8.55 79.7462 8.425 79.6295 8.325C79.5962 8.29167 79.5795 8.24167 79.5795 8.175V8.1C79.5462 7.96667 79.5045 7.84167 79.4545 7.725C79.4212 7.59167 79.3795 7.46667 79.3295 7.35C79.2962 7.21667 79.2545 7.1 79.2045 7C79.1712 6.88333 79.1295 6.76667 79.0795 6.65L78.7795 5.75C78.7295 5.63333 78.6795 5.51667 78.6295 5.4C78.5962 5.28333 78.5628 5.16667 78.5295 5.05L78.4545 4.95H78.3795L78.3295 5.025C78.2462 5.275 78.1462 5.525 78.0295 5.775C77.9295 6.025 77.8378 6.29167 77.7545 6.575C77.7545 6.60833 77.7462 6.65 77.7295 6.7C77.7128 6.75 77.6962 6.8 77.6795 6.85C77.6128 7.01667 77.5462 7.2 77.4795 7.4C77.4295 7.6 77.3878 7.8 77.3545 8C77.3378 8.11667 77.3212 8.23333 77.3045 8.35C77.2878 8.45 77.2628 8.55833 77.2295 8.675L77.0045 9.65C76.9878 9.66667 76.9962 9.69167 77.0295 9.725C77.0628 9.74167 77.0878 9.75 77.1045 9.75Z" fill="#353535"/>
</svg>
