<svg width="114" height="21" viewBox="0 0 114 21" fill="none" xmlns="http://www.w3.org/2000/svg">
<path d="M2.23564 21C2.05231 20.9667 1.92731 20.8833 1.86064 20.75C1.81064 20.65 1.76898 20.5417 1.73564 20.425C1.71898 20.325 1.70231 20.225 1.68564 20.125C1.66898 19.9917 1.65231 19.85 1.63564 19.7C1.61898 19.5667 1.60231 19.4333 1.58564 19.3C1.56898 19.1333 1.54398 18.975 1.51064 18.825C1.47731 18.675 1.42731 18.5167 1.36064 18.35C1.34398 18.3 1.32731 18.2583 1.31064 18.225C1.29398 18.175 1.26898 18.125 1.23564 18.075L0.935645 17.45C0.852311 17.2833 0.810645 17.1167 0.810645 16.95C0.793978 16.7333 0.785645 16.525 0.785645 16.325C0.785645 16.125 0.793978 15.925 0.810645 15.725C0.810645 15.6583 0.827311 15.575 0.860645 15.475C0.893978 15.3083 0.927311 15.15 0.960645 15C1.01064 14.8333 1.04398 14.675 1.06064 14.525C1.09398 14.325 1.12731 14.1333 1.16064 13.95C1.19398 13.75 1.21898 13.5583 1.23564 13.375C1.26898 13.1917 1.29398 13.0083 1.31064 12.825C1.32731 12.6417 1.34398 12.4583 1.36064 12.275C1.37731 12.1417 1.39398 12.0167 1.41064 11.9C1.42731 11.7667 1.44398 11.6417 1.46064 11.525C1.47731 11.475 1.48564 11.4 1.48564 11.3C1.48564 11.2167 1.49398 11.1333 1.51064 11.05C1.52731 10.95 1.54398 10.8583 1.56064 10.775C1.59398 10.6417 1.61064 10.5083 1.61064 10.375C1.62731 10.225 1.64398 10.0833 1.66064 9.95C1.67731 9.9 1.68564 9.83333 1.68564 9.75C1.73564 9.56667 1.76898 9.375 1.78564 9.175C1.81898 8.975 1.84398 8.775 1.86064 8.575L1.93564 8.15C1.96898 7.96667 1.99398 7.78333 2.01064 7.6C2.02731 7.4 2.04398 7.20833 2.06064 7.025C2.09398 6.84167 2.11064 6.65833 2.11064 6.475C2.11064 6.275 2.11064 6.08333 2.11064 5.9C2.11064 5.8 2.11064 5.70833 2.11064 5.625C2.12731 5.525 2.14398 5.425 2.16064 5.325C2.19398 4.89167 2.16064 4.475 2.06064 4.075C2.04398 4.05833 2.03564 4.04167 2.03564 4.025C1.96898 3.80833 1.96064 3.60833 2.01064 3.425C2.06064 3.24167 2.14398 3.06667 2.26064 2.9C2.46064 2.56667 2.74398 2.36667 3.11064 2.3C3.17731 2.28333 3.23564 2.275 3.28564 2.275C3.33564 2.25833 3.39398 2.25833 3.46064 2.275C3.52731 2.30833 3.58564 2.325 3.63564 2.325C3.78564 2.34167 3.92731 2.40833 4.06064 2.525L4.28564 2.825C4.40231 3.025 4.51064 3.175 4.61064 3.275C4.87731 3.60833 5.11064 3.96667 5.31064 4.35C5.42731 4.56667 5.52731 4.78333 5.61064 5C5.71064 5.2 5.81064 5.4 5.91064 5.6C5.96064 5.71667 6.00231 5.825 6.03564 5.925C6.08564 6.025 6.13564 6.125 6.18564 6.225C6.21898 6.275 6.26898 6.33333 6.33565 6.4C6.40231 6.5 6.43564 6.575 6.43564 6.625C6.46898 6.69167 6.46064 6.75 6.41064 6.8C6.39398 6.81667 6.39398 6.84167 6.41064 6.875C6.42731 6.90833 6.44398 6.94167 6.46065 6.975C6.47731 6.99167 6.51064 7.09167 6.56065 7.275C6.61065 7.44167 6.62731 7.5 6.61064 7.45C6.64398 7.53333 6.69398 7.575 6.76064 7.575C6.81064 7.59167 6.84398 7.625 6.86065 7.675C6.87731 7.70833 6.85231 7.75 6.78564 7.8C6.73564 7.81667 6.73564 7.88333 6.78564 8C6.83564 8.1 6.86898 8.16667 6.88564 8.2C6.95231 8.36667 7.01064 8.53333 7.06064 8.7C7.11064 8.85 7.16898 9.00833 7.23564 9.175C7.31898 9.39167 7.39398 9.61667 7.46064 9.85C7.52731 10.0833 7.59398 10.3167 7.66065 10.55C7.71065 10.7167 7.76064 10.8833 7.81064 11.05C7.87731 11.2 7.93564 11.35 7.98564 11.5C7.98564 11.5333 8.00231 11.55 8.03564 11.55L8.08564 11.5C8.08564 11.4667 8.10231 11.4167 8.13565 11.35C8.16898 11.1667 8.21065 10.9833 8.26064 10.8C8.31064 10.6 8.36064 10.4083 8.41065 10.225C8.49398 9.975 8.56065 9.725 8.61064 9.475C8.67731 9.225 8.74398 8.975 8.81065 8.725C8.84398 8.575 8.88564 8.425 8.93565 8.275C8.98565 8.10833 9.01898 7.95 9.03564 7.8C9.10231 7.51667 9.16898 7.24167 9.23565 6.975C9.30231 6.70833 9.36065 6.44167 9.41065 6.175C9.42731 6.14167 9.43564 6.10833 9.43564 6.075C9.45231 6.04167 9.46065 6.00833 9.46065 5.975C9.47731 5.80833 9.52731 5.65 9.61064 5.5C9.77731 5.15 10.0523 4.925 10.4356 4.825C10.619 4.775 10.8023 4.775 10.9856 4.825C11.1356 4.85833 11.244 4.91667 11.3106 5C11.4273 5.11667 11.5356 5.23333 11.6356 5.35C11.7523 5.46667 11.8523 5.59167 11.9356 5.725C12.0023 5.825 12.069 5.925 12.1356 6.025C12.2023 6.10833 12.269 6.2 12.3356 6.3C12.3856 6.36667 12.4356 6.44167 12.4856 6.525C12.5356 6.59167 12.5773 6.66667 12.6106 6.75C12.744 6.98333 12.869 7.225 12.9856 7.475C13.1023 7.725 13.2023 7.98333 13.2856 8.25C13.2856 8.28333 13.294 8.30833 13.3106 8.325C13.394 8.49167 13.4606 8.66667 13.5106 8.85C13.5606 9.01667 13.6106 9.19167 13.6606 9.375C13.7273 9.55833 13.7773 9.74167 13.8106 9.925C13.8606 10.1083 13.9106 10.2917 13.9606 10.475C13.9606 10.5417 13.969 10.5917 13.9856 10.625C14.0356 10.7583 14.0773 10.9 14.1106 11.05C14.144 11.2 14.1773 11.3417 14.2106 11.475C14.244 11.675 14.2773 11.875 14.3106 12.075C14.344 12.275 14.3773 12.4667 14.4106 12.65C14.444 12.9 14.4773 13.15 14.5106 13.4C14.544 13.65 14.5856 13.9 14.6356 14.15C14.669 14.3167 14.694 14.4917 14.7106 14.675C14.744 14.8583 14.769 15.0417 14.7856 15.225C14.7856 15.275 14.8023 15.35 14.8356 15.45L14.9106 16.05C14.9106 16.1333 14.919 16.1917 14.9356 16.225C15.019 16.5417 15.069 16.8667 15.0856 17.2C15.1023 17.2167 15.1106 17.2417 15.1106 17.275C15.1106 17.2917 15.119 17.3167 15.1356 17.35L15.3106 18.35C15.344 18.4667 15.344 18.5917 15.3106 18.725L15.2606 18.925C15.2606 19.0583 15.2356 19.1833 15.1856 19.3C15.1356 19.4167 15.0773 19.5333 15.0106 19.65C14.9606 19.7167 14.9023 19.7833 14.8356 19.85C14.769 19.9333 14.694 20 14.6106 20.05C14.4273 20.1833 14.244 20.1917 14.0606 20.075C13.6773 19.825 13.394 19.5167 13.2106 19.15C13.194 19.0833 13.169 19.025 13.1356 18.975C13.119 18.9083 13.1106 18.8417 13.1106 18.775L13.0356 18.3C13.019 18.2167 13.0023 18.1333 12.9856 18.05C12.9856 17.95 12.9773 17.8583 12.9606 17.775L12.7106 16.325C12.694 16.2083 12.6773 16.1 12.6606 16C12.644 15.9 12.6273 15.7917 12.6106 15.675L12.5106 15.125C12.4773 14.9417 12.444 14.7583 12.4106 14.575C12.3773 14.375 12.344 14.1833 12.3106 14L12.0606 12.4C12.044 12.1667 12.0023 11.9417 11.9356 11.725C11.8856 11.4917 11.8356 11.2667 11.7856 11.05C11.719 10.7833 11.644 10.5333 11.5606 10.3C11.4773 10.05 11.3856 9.80833 11.2856 9.575L11.2106 9.35C11.194 9.3 11.169 9.25 11.1356 9.2C11.1023 9.15 11.069 9.10833 11.0356 9.075C10.9856 9.075 10.9606 9.08333 10.9606 9.1L10.8856 9.35C10.819 9.56667 10.7606 9.8 10.7106 10.05C10.6606 10.2833 10.6023 10.5167 10.5356 10.75C10.5023 10.8833 10.469 11.0167 10.4356 11.15C10.4023 11.2833 10.369 11.4167 10.3356 11.55C10.3023 11.6667 10.269 11.7917 10.2356 11.925C10.219 12.0417 10.194 12.1667 10.1606 12.3C10.1273 12.5 10.0856 12.7 10.0356 12.9C9.98564 13.1 9.94398 13.3 9.91065 13.5C9.89398 13.65 9.86898 13.8 9.83564 13.95C9.81898 14.1 9.80231 14.25 9.78564 14.4V14.55C9.81898 14.6833 9.78564 14.8 9.68565 14.9C9.66898 14.95 9.64398 15 9.61064 15.05C9.59398 15.0833 9.57731 15.125 9.56065 15.175C9.52731 15.325 9.48565 15.4333 9.43564 15.5L9.36064 15.675C9.34398 15.6917 9.32731 15.725 9.31064 15.775C9.31064 15.8083 9.29398 15.8417 9.26064 15.875C9.14398 16.075 8.99398 16.2083 8.81065 16.275C8.74398 16.3083 8.67731 16.3417 8.61064 16.375C8.56065 16.4083 8.50231 16.4417 8.43564 16.475C8.26898 16.5583 8.09398 16.55 7.91064 16.45C7.66064 16.2833 7.46898 16.1 7.33564 15.9L6.88564 15.25C6.88564 15.2333 6.87731 15.225 6.86065 15.225C6.86065 15.2083 6.86065 15.2 6.86065 15.2C6.79398 15.0167 6.71898 14.85 6.63565 14.7C6.55231 14.55 6.48564 14.3917 6.43564 14.225L6.13564 13.35C6.05231 13.1333 5.97731 12.9167 5.91064 12.7C5.84398 12.4833 5.76898 12.2667 5.68564 12.05L5.61064 11.85C5.57731 11.7 5.53564 11.55 5.48564 11.4C5.45231 11.25 5.41064 11.1083 5.36064 10.975C5.32731 10.825 5.28564 10.6833 5.23564 10.55C5.18564 10.4 5.14398 10.2583 5.11064 10.125C5.04398 9.94167 4.97731 9.75833 4.91064 9.575C4.86064 9.375 4.79398 9.18333 4.71064 9C4.67731 8.88333 4.62731 8.79167 4.56064 8.725C4.42731 8.59167 4.33564 8.43333 4.28564 8.25C4.28564 8.21667 4.26898 8.2 4.23564 8.2L4.18564 8.25V8.275C4.16898 8.29167 4.16064 8.31667 4.16064 8.35C4.14398 8.51667 4.12731 8.69167 4.11064 8.875C4.09398 9.05833 4.06898 9.24167 4.03564 9.425L3.96064 10.25C3.94398 10.3833 3.92731 10.5167 3.91064 10.65C3.91064 10.7833 3.90231 10.9167 3.88564 11.05C3.86898 11.1167 3.85231 11.1833 3.83564 11.25C3.83564 11.3167 3.83564 11.3917 3.83564 11.475C3.81898 11.8917 3.76898 12.3333 3.68564 12.8C3.66898 12.9167 3.65231 13.05 3.63564 13.2C3.61898 13.3333 3.60231 13.4667 3.58564 13.6L3.51064 14.15C3.46064 14.45 3.43564 14.7417 3.43564 15.025C3.43564 15.1417 3.43564 15.2583 3.43564 15.375C3.45231 15.4917 3.44398 15.6083 3.41064 15.725C3.39398 15.875 3.41064 16.05 3.46064 16.25C3.52731 16.3667 3.55231 16.4833 3.53564 16.6C3.53564 16.7167 3.51898 16.8417 3.48564 16.975C3.46898 17.075 3.43564 17.175 3.38564 17.275C3.35231 17.375 3.29398 17.4667 3.21064 17.55C3.17731 17.6 3.13564 17.6583 3.08564 17.725C3.05231 17.7917 3.01064 17.85 2.96064 17.9C2.82731 18.0667 2.76064 18.25 2.76064 18.45V19C2.76064 19.1333 2.75231 19.2583 2.73564 19.375C2.73564 19.5083 2.74398 19.6417 2.76064 19.775C2.76064 19.7917 2.75231 19.8083 2.73564 19.825C2.73564 19.8417 2.73564 19.8667 2.73564 19.9C2.71898 19.95 2.71064 20 2.71064 20.05C2.71064 20.1 2.71064 20.15 2.71064 20.2C2.72731 20.35 2.71064 20.5083 2.66064 20.675C2.57731 20.825 2.46898 20.925 2.33564 20.975C2.30231 20.9917 2.26898 21 2.23564 21ZM27.7569 20.825C27.6069 20.825 27.4736 20.7667 27.3569 20.65C27.3236 20.6 27.2903 20.55 27.2569 20.5C27.2236 20.45 27.1903 20.4 27.1569 20.35C27.0069 20 26.9319 19.6333 26.9319 19.25L26.8569 18.65C26.8069 18.4167 26.7653 18.1833 26.7319 17.95C26.6986 17.7167 26.6403 17.4917 26.5569 17.275L26.4069 16.85C26.4069 16.8167 26.3986 16.7833 26.3819 16.75C26.3819 16.7167 26.3736 16.6833 26.3569 16.65L25.9819 15.325C25.9653 15.2917 25.9486 15.25 25.9319 15.2C25.9319 15.15 25.9153 15.1083 25.8819 15.075C25.8319 14.975 25.7903 14.875 25.7569 14.775C25.7403 14.6583 25.7153 14.5417 25.6819 14.425C25.6653 14.3417 25.6486 14.2667 25.6319 14.2C25.6153 14.1167 25.5903 14.0333 25.5569 13.95C25.5236 13.85 25.4903 13.7917 25.4569 13.775C25.4236 13.7417 25.3486 13.7417 25.2319 13.775C25.1486 13.7917 25.0569 13.8083 24.9569 13.825C24.8736 13.825 24.7903 13.8417 24.7069 13.875C24.6403 13.8917 24.5569 13.9083 24.4569 13.925C24.3736 13.925 24.2903 13.9333 24.2069 13.95L23.8569 14.025C23.7736 14.0417 23.6819 14.0667 23.5819 14.1C23.4986 14.1167 23.4153 14.125 23.3319 14.125L22.8819 14.2C22.7486 14.2333 22.6069 14.2667 22.4569 14.3C22.3069 14.3333 22.1653 14.3667 22.0319 14.4C21.6319 14.5 21.2319 14.575 20.8319 14.625C20.6986 14.6583 20.6236 14.7167 20.6069 14.8C20.5903 14.8 20.5819 14.8083 20.5819 14.825C20.4819 15.0917 20.3653 15.3583 20.2319 15.625C20.1153 15.875 19.9903 16.1333 19.8569 16.4C19.8236 16.4667 19.7903 16.5333 19.7569 16.6C19.7403 16.65 19.7153 16.7083 19.6819 16.775C19.6653 16.8083 19.6486 16.85 19.6319 16.9C19.6153 16.9333 19.5986 16.9667 19.5819 17C19.4819 17.1167 19.4319 17.2583 19.4319 17.425C19.4153 17.525 19.3819 17.625 19.3319 17.725C19.2819 17.8083 19.2319 17.8917 19.1819 17.975C19.1653 18.025 19.1319 18.05 19.0819 18.05C19.0153 18.0667 18.9486 18.0917 18.8819 18.125C18.8153 18.1583 18.7403 18.1917 18.6569 18.225C18.6069 18.2417 18.5569 18.2417 18.5069 18.225C18.4736 18.2083 18.4319 18.1917 18.3819 18.175C18.3486 18.1417 18.3153 18.125 18.2819 18.125C18.0986 18.1083 17.9653 18 17.8819 17.8C17.7486 17.5333 17.6569 17.2667 17.6069 17C17.5903 16.9333 17.5903 16.875 17.6069 16.825C17.6403 16.775 17.6653 16.725 17.6819 16.675C17.7819 16.6083 17.8403 16.5333 17.8569 16.45V16.425C17.8569 16.2083 17.8986 16.0083 17.9819 15.825C18.0819 15.625 18.1653 15.4333 18.2319 15.25C18.2653 15.15 18.3069 15.05 18.3569 14.95C18.4069 14.85 18.4569 14.75 18.5069 14.65C18.5736 14.5333 18.6236 14.425 18.6569 14.325C18.7069 14.2083 18.7486 14.0917 18.7819 13.975C18.8319 13.8417 18.8319 13.7167 18.7819 13.6C18.7486 13.5 18.7319 13.4083 18.7319 13.325C18.7319 13.225 18.7403 13.125 18.7569 13.025C18.7569 12.8417 18.8236 12.6833 18.9569 12.55C19.0236 12.4667 19.0903 12.4 19.1569 12.35C19.2403 12.2833 19.3153 12.2167 19.3819 12.15C19.5319 12 19.6486 11.8 19.7319 11.55C19.7986 11.3333 19.8486 11.1167 19.8819 10.9C19.9319 10.6667 19.9819 10.4417 20.0319 10.225C20.0653 10.0083 20.0986 9.8 20.1319 9.6C20.1819 9.38333 20.2319 9.175 20.2819 8.975C20.2986 8.89167 20.3153 8.81667 20.3319 8.75C20.3653 8.66667 20.3903 8.59167 20.4069 8.525C20.4569 8.39167 20.5069 8.26667 20.5569 8.15C20.6069 8.01667 20.6403 7.88333 20.6569 7.75C20.6903 7.68333 20.6903 7.625 20.6569 7.575C20.6403 7.49167 20.6403 7.41667 20.6569 7.35C20.6903 7.28333 20.7153 7.21667 20.7319 7.15C20.7819 7.03333 20.8153 6.91667 20.8319 6.8C20.8653 6.68333 20.9069 6.56667 20.9569 6.45C21.0403 6.23333 21.1069 6.05833 21.1569 5.925C21.2236 5.775 21.2819 5.60833 21.3319 5.425C21.3653 5.325 21.3986 5.23333 21.4319 5.15C21.4819 5.05 21.5153 4.95 21.5319 4.85C21.5819 4.7 21.6236 4.55 21.6569 4.4C21.6903 4.23333 21.7069 4.075 21.7069 3.925C21.7403 3.79167 21.7736 3.7 21.8069 3.65C21.8903 3.48333 21.9903 3.34167 22.1069 3.225C22.2403 3.10833 22.3653 2.99167 22.4819 2.875C22.5653 2.825 22.6486 2.79167 22.7319 2.775C22.8153 2.74167 22.8986 2.75 22.9819 2.8C23.0486 2.83333 23.0903 2.85 23.1069 2.85C23.2569 2.83333 23.3819 2.86667 23.4819 2.95C23.5819 3.03333 23.6653 3.13333 23.7319 3.25C23.7653 3.28333 23.7903 3.325 23.8069 3.375C23.8236 3.425 23.8403 3.46667 23.8569 3.5C23.9403 3.63333 23.9819 3.76667 23.9819 3.9C23.9819 3.96667 23.9903 4.04167 24.0069 4.125C24.0236 4.19167 24.0403 4.26667 24.0569 4.35C24.1069 4.45 24.1819 4.5 24.2819 4.5C24.2986 4.48333 24.3153 4.48333 24.3319 4.5C24.3486 4.51667 24.3569 4.53333 24.3569 4.55C24.4403 4.65 24.4653 4.75833 24.4319 4.875C24.3986 5.00833 24.3903 5.14167 24.4069 5.275C24.4403 5.39167 24.4736 5.51667 24.5069 5.65C24.5736 5.81667 24.6403 5.98333 24.7069 6.15C24.7736 6.31667 24.8403 6.48333 24.9069 6.65C24.9903 6.83333 25.0736 7.01667 25.1569 7.2C25.2403 7.38333 25.3153 7.56667 25.3819 7.75C25.4653 7.98333 25.5486 8.21667 25.6319 8.45C25.7319 8.68333 25.8403 8.91667 25.9569 9.15L26.0319 9.425C26.0486 9.49167 26.0653 9.55833 26.0819 9.625C26.1153 9.69167 26.1403 9.75833 26.1569 9.825C26.1903 9.875 26.2153 9.925 26.2319 9.975C26.2653 10.025 26.2986 10.0667 26.3319 10.1C26.4153 10.2167 26.4653 10.3417 26.4819 10.475C26.5319 10.6417 26.6069 10.7917 26.7069 10.925C26.7403 10.975 26.7903 11 26.8569 11C27.1069 10.9667 27.3569 10.9417 27.6069 10.925C27.8569 10.8917 28.1069 10.8417 28.3569 10.775C28.5403 10.725 28.7153 10.7 28.8819 10.7C29.1986 10.7 29.4903 10.8083 29.7569 11.025C30.0736 11.275 30.2403 11.5917 30.2569 11.975C30.2569 12.0583 30.2653 12.125 30.2819 12.175C30.2819 12.2917 30.2486 12.3833 30.1819 12.45C30.1653 12.5 30.1319 12.55 30.0819 12.6C30.0486 12.65 30.0153 12.7 29.9819 12.75C29.9486 12.8167 29.9153 12.8667 29.8819 12.9L29.7319 13.025C29.7153 13.0583 29.6903 13.1 29.6569 13.15C29.6236 13.1833 29.5819 13.2083 29.5319 13.225C29.4653 13.2417 29.3986 13.2667 29.3319 13.3C29.2653 13.3167 29.1903 13.325 29.1069 13.325C28.8069 13.3583 28.5403 13.35 28.3069 13.3H27.9069C27.8736 13.3 27.8236 13.3167 27.7569 13.35C27.6903 13.3833 27.6569 13.425 27.6569 13.475V13.575C27.7069 13.725 27.7403 13.8833 27.7569 14.05C27.7903 14.2 27.8403 14.3417 27.9069 14.475C27.9069 14.5417 27.9236 14.6083 27.9569 14.675C28.0403 14.825 28.1069 14.9833 28.1569 15.15C28.2069 15.3 28.2486 15.4583 28.2819 15.625C28.2819 15.6583 28.2986 15.725 28.3319 15.825C28.3819 15.9417 28.4236 16.0667 28.4569 16.2C28.4903 16.3167 28.5153 16.4417 28.5319 16.575C28.5319 16.675 28.5569 16.7667 28.6069 16.85C28.6736 17 28.7236 17.15 28.7569 17.3C28.7903 17.45 28.8153 17.6083 28.8319 17.775C28.8486 17.7917 28.8569 17.825 28.8569 17.875C28.8569 17.9083 28.8653 17.9417 28.8819 17.975C28.9653 18.1583 29.0236 18.3583 29.0569 18.575C29.0903 18.775 29.1319 18.975 29.1819 19.175C29.2153 19.275 29.2319 19.375 29.2319 19.475C29.2486 19.5917 29.2569 19.7083 29.2569 19.825C29.2569 19.9083 29.2319 20 29.1819 20.1C29.1319 20.15 29.1069 20.175 29.1069 20.175C29.0069 20.1917 28.9486 20.25 28.9319 20.35L28.8569 20.5C28.8236 20.5667 28.7736 20.6083 28.7069 20.625C28.6403 20.625 28.5819 20.65 28.5319 20.7C28.4653 20.7667 28.3736 20.8 28.2569 20.8C28.1903 20.8 28.1069 20.8 28.0069 20.8C27.9236 20.8 27.8403 20.8083 27.7569 20.825ZM21.7319 11.75C21.8319 11.7333 21.9319 11.7167 22.0319 11.7C22.1486 11.6833 22.2736 11.6667 22.4069 11.65C22.4903 11.6333 22.5986 11.6167 22.7319 11.6C22.8653 11.5833 22.9903 11.5667 23.1069 11.55C23.2236 11.5167 23.3403 11.5 23.4569 11.5C23.5736 11.4833 23.6903 11.4667 23.8069 11.45C23.9069 11.4167 24.0069 11.4 24.1069 11.4C24.2069 11.3833 24.3069 11.3667 24.4069 11.35C24.5569 11.3167 24.6153 11.2333 24.5819 11.1C24.5653 10.9667 24.5319 10.8333 24.4819 10.7C24.4486 10.55 24.3736 10.425 24.2569 10.325C24.2236 10.2917 24.2069 10.2417 24.2069 10.175V10.1C24.1736 9.96667 24.1319 9.84167 24.0819 9.725C24.0486 9.59167 24.0069 9.46667 23.9569 9.35C23.9236 9.21667 23.8819 9.1 23.8319 9C23.7986 8.88333 23.7569 8.76667 23.7069 8.65L23.4069 7.75C23.3569 7.63333 23.3069 7.51667 23.2569 7.4C23.2236 7.28333 23.1903 7.16667 23.1569 7.05L23.0819 6.95H23.0069L22.9569 7.025C22.8736 7.275 22.7736 7.525 22.6569 7.775C22.5569 8.025 22.4653 8.29167 22.3819 8.575C22.3819 8.60833 22.3736 8.65 22.3569 8.7C22.3403 8.75 22.3236 8.8 22.3069 8.85C22.2403 9.01667 22.1736 9.2 22.1069 9.4C22.0569 9.6 22.0153 9.8 21.9819 10C21.9653 10.1167 21.9486 10.2333 21.9319 10.35C21.9153 10.45 21.8903 10.5583 21.8569 10.675L21.6319 11.65C21.6153 11.6667 21.6236 11.6917 21.6569 11.725C21.6903 11.7417 21.7153 11.75 21.7319 11.75ZM36.4312 18.975C36.3978 18.9583 36.3478 18.95 36.2812 18.95C36.2478 18.95 36.2145 18.925 36.1812 18.875C36.1478 18.825 36.1145 18.7833 36.0812 18.75C36.0478 18.7 36.0145 18.6417 35.9812 18.575C35.9312 18.5083 35.8895 18.5083 35.8562 18.575H35.8062C35.8062 18.5583 35.7978 18.55 35.7812 18.55C35.7812 18.5333 35.7812 18.525 35.7812 18.525C35.7312 18.2917 35.6562 18.075 35.5562 17.875C35.5062 17.7417 35.4562 17.6083 35.4062 17.475C35.3728 17.325 35.3478 17.175 35.3312 17.025L35.1812 15.925L35.1062 15.025V14.975C35.0728 14.775 35.0562 14.575 35.0562 14.375C35.0562 14.1583 35.0562 13.9417 35.0562 13.725C35.0395 13.6083 35.0312 13.5 35.0312 13.4C35.0312 13.2833 35.0228 13.1667 35.0062 13.05C34.9895 12.9167 34.9728 12.7833 34.9562 12.65C34.9562 12.5167 34.9562 12.3917 34.9562 12.275L34.9812 10.3V7.625C34.9478 7.525 34.8978 7.475 34.8312 7.475C34.7978 7.475 34.7562 7.48333 34.7062 7.5C34.6728 7.5 34.6395 7.5 34.6062 7.5L33.4812 7.8C33.3312 7.85 33.1812 7.9 33.0312 7.95C32.8812 7.98333 32.7312 8.025 32.5812 8.075C32.4645 8.09167 32.3478 8.10833 32.2312 8.125C32.1312 8.125 32.0228 8.125 31.9062 8.125C31.8228 8.125 31.7312 8.09167 31.6312 8.025C31.5145 7.975 31.4145 7.90833 31.3312 7.825C31.2478 7.74167 31.1645 7.65 31.0812 7.55L31.0312 7.475C30.9978 7.35833 30.9645 7.25 30.9312 7.15C30.9145 7.03333 30.9145 6.91667 30.9312 6.8C30.9478 6.65 30.9812 6.50833 31.0312 6.375C31.0978 6.24167 31.1895 6.125 31.3062 6.025C31.3562 5.99167 31.3978 5.95 31.4312 5.9C31.4812 5.85 31.5312 5.8 31.5812 5.75C31.6478 5.71667 31.6895 5.7 31.7062 5.7C31.8062 5.7 31.8978 5.68333 31.9812 5.65C32.0645 5.6 32.1478 5.56667 32.2312 5.55C32.3145 5.53333 32.3978 5.51667 32.4812 5.5C32.5645 5.48333 32.6478 5.46667 32.7312 5.45C32.9645 5.38333 33.1978 5.325 33.4312 5.275C33.6645 5.20833 33.8978 5.15833 34.1312 5.125L35.4812 4.9C35.5145 4.88333 35.5395 4.875 35.5562 4.875C35.5895 4.875 35.6145 4.86667 35.6312 4.85C35.7312 4.81667 35.8312 4.79167 35.9312 4.775C36.0312 4.75833 36.1312 4.76667 36.2312 4.8C36.2645 4.81667 36.2895 4.825 36.3062 4.825C36.3395 4.80833 36.3645 4.8 36.3812 4.8C36.6645 4.76667 36.9478 4.73333 37.2312 4.7C37.5145 4.66667 37.7895 4.625 38.0562 4.575C38.2728 4.54167 38.4895 4.50833 38.7062 4.475C38.9228 4.44167 39.1395 4.41667 39.3562 4.4C39.5228 4.36667 39.6895 4.34167 39.8562 4.325C40.0228 4.30833 40.1895 4.29167 40.3562 4.275C40.4895 4.25833 40.6228 4.24167 40.7562 4.225C40.9062 4.20833 41.0478 4.19167 41.1812 4.175C41.3145 4.15833 41.4395 4.15833 41.5562 4.175C41.6895 4.175 41.8228 4.175 41.9562 4.175C42.0395 4.175 42.1145 4.2 42.1812 4.25C42.2645 4.3 42.3395 4.34167 42.4062 4.375C42.4728 4.425 42.5645 4.50833 42.6812 4.625C42.7145 4.65833 42.7478 4.73333 42.7812 4.85C42.7978 4.9 42.8145 4.95833 42.8312 5.025C42.8478 5.075 42.8645 5.13333 42.8812 5.2C42.9145 5.35 42.8978 5.49167 42.8312 5.625L42.6812 5.975C42.6645 6.025 42.6395 6.075 42.6062 6.125C42.5895 6.15833 42.5645 6.19167 42.5312 6.225C42.4978 6.25833 42.4812 6.275 42.4812 6.275C42.4145 6.325 42.3395 6.375 42.2562 6.425C42.1895 6.475 42.1062 6.50833 42.0062 6.525L40.9312 6.6C40.8312 6.6 40.7312 6.60833 40.6312 6.625C40.5312 6.625 40.4228 6.63333 40.3062 6.65H40.1812C39.9145 6.66667 39.6562 6.69167 39.4062 6.725C39.1562 6.75833 38.9062 6.79167 38.6562 6.825L37.6562 6.975C37.6062 6.975 37.5728 6.98333 37.5562 7C37.4895 7 37.4395 7.05 37.4062 7.15V7.225C37.4062 7.39167 37.4062 7.55833 37.4062 7.725C37.4062 7.875 37.4145 8.03333 37.4312 8.2C37.4812 8.43333 37.4812 8.66667 37.4312 8.9C37.4145 8.95 37.3978 9 37.3812 9.05C37.3812 9.08333 37.3812 9.11667 37.3812 9.15C37.3978 9.35 37.3812 9.56667 37.3312 9.8C37.3312 9.85 37.3312 9.9 37.3312 9.95C37.3312 10 37.3395 10.05 37.3562 10.1C37.3728 10.1667 37.3812 10.2417 37.3812 10.325C37.3812 10.4083 37.3812 10.4917 37.3812 10.575V11.875C37.3812 11.9417 37.3728 12.025 37.3562 12.125C37.3562 12.2083 37.3562 12.2917 37.3562 12.375C37.3562 12.4417 37.3562 12.5167 37.3562 12.6C37.3728 12.6833 37.3812 12.7667 37.3812 12.85C37.3812 12.9667 37.3812 13.0833 37.3812 13.2C37.3978 13.3167 37.3978 13.4417 37.3812 13.575V14.35C37.3812 14.3667 37.3728 14.3833 37.3562 14.4C37.3562 14.4167 37.3645 14.4417 37.3812 14.475C37.3978 14.625 37.4062 14.7833 37.4062 14.95C37.4062 15.1 37.4228 15.25 37.4562 15.4C37.4562 15.45 37.4562 15.5 37.4562 15.55C37.4728 15.6 37.4728 15.65 37.4562 15.7C37.4562 15.85 37.4728 16.0083 37.5062 16.175C37.5395 16.325 37.5645 16.475 37.5812 16.625C37.6145 16.8083 37.6478 16.9917 37.6812 17.175C37.7312 17.3583 37.7728 17.5417 37.8062 17.725L37.8812 18.075C37.8812 18.125 37.8562 18.1667 37.8062 18.2C37.8062 18.2 37.7978 18.2 37.7812 18.2C37.7812 18.2 37.7728 18.2083 37.7562 18.225C37.6728 18.2583 37.6395 18.3083 37.6562 18.375V18.5C37.6562 18.5 37.6478 18.5083 37.6312 18.525C37.6312 18.5417 37.6228 18.55 37.6062 18.55C37.5228 18.55 37.4562 18.5833 37.4062 18.65C37.3562 18.7167 37.2978 18.775 37.2312 18.825C37.1812 18.8583 37.1145 18.8917 37.0312 18.925C36.8145 19.0083 36.6145 19.025 36.4312 18.975ZM47.0972 19.25C46.9972 19.25 46.9305 19.2417 46.8972 19.225C46.8305 19.1917 46.7722 19.1667 46.7222 19.15C46.6722 19.1333 46.6222 19.1167 46.5722 19.1C46.5222 19.0667 46.4722 19.0333 46.4222 19C46.3888 18.95 46.3555 18.9 46.3222 18.85C46.2888 18.8167 46.2555 18.8 46.2222 18.8C46.1222 18.8 46.0722 18.75 46.0722 18.65C46.0555 18.55 46.0388 18.45 46.0222 18.35C46.0055 18.25 45.9888 18.15 45.9722 18.05C45.9555 17.9 45.9388 17.75 45.9222 17.6C45.9222 17.45 45.9055 17.3083 45.8722 17.175V16.95C45.8722 16.8833 45.8638 16.825 45.8472 16.775C45.8472 16.725 45.8472 16.6667 45.8472 16.6C45.8138 16.5167 45.8138 16.45 45.8472 16.4C45.8805 16.1 45.8805 15.8 45.8472 15.5C45.8305 15.4167 45.8222 15.3333 45.8222 15.25C45.8222 15.1667 45.8138 15.0833 45.7972 15C45.7972 14.8333 45.7972 14.6667 45.7972 14.5C45.7972 14.3167 45.7805 14.1417 45.7472 13.975V13.575C45.7472 13.4417 45.7388 13.3167 45.7222 13.2C45.7222 13.0833 45.7138 12.9667 45.6972 12.85C45.6805 12.7 45.6638 12.55 45.6472 12.4C45.6472 12.25 45.6388 12.1 45.6222 11.95C45.6055 11.9167 45.5972 11.8583 45.5972 11.775C45.5805 11.6917 45.5638 11.6083 45.5472 11.525C45.5472 11.425 45.5472 11.3333 45.5472 11.25L45.4722 10C45.4555 9.86667 45.4388 9.74167 45.4222 9.625C45.4222 9.49167 45.4222 9.36667 45.4222 9.25C45.4055 9.05 45.3888 8.85 45.3722 8.65C45.3555 8.45 45.3388 8.25833 45.3222 8.075C45.3222 8.04167 45.3138 8.00833 45.2972 7.975C45.2972 7.94167 45.2972 7.91667 45.2972 7.9C45.2972 7.7 45.2888 7.5 45.2722 7.3C45.2555 7.1 45.2388 6.89167 45.2222 6.675L45.1472 5.975C45.0972 5.70833 45.0888 5.41667 45.1222 5.1C45.1222 4.95 45.1805 4.825 45.2972 4.725C45.3305 4.69167 45.3555 4.675 45.3722 4.675C45.3888 4.65833 45.4055 4.64167 45.4222 4.625C45.5055 4.60833 45.5472 4.55 45.5472 4.45C45.5472 4.41667 45.5805 4.4 45.6472 4.4H45.7722C45.7888 4.4 45.7972 4.4 45.7972 4.4C45.8138 4.38333 45.8305 4.375 45.8472 4.375C45.8805 4.35833 45.9055 4.34167 45.9222 4.325C45.9555 4.29167 45.9805 4.275 45.9972 4.275C46.0305 4.275 46.0638 4.28333 46.0972 4.3C46.1305 4.3 46.1638 4.30833 46.1972 4.325C46.2305 4.325 46.2555 4.31667 46.2722 4.3C46.3555 4.28333 46.4388 4.29167 46.5222 4.325C46.6222 4.34167 46.7055 4.36667 46.7722 4.4C46.8722 4.41667 46.9472 4.48333 46.9972 4.6C47.0472 4.75 47.0888 4.9 47.1222 5.05C47.1722 5.18333 47.2055 5.325 47.2222 5.475V5.675C47.2555 5.79167 47.2722 5.91667 47.2722 6.05C47.2722 6.16667 47.2722 6.29167 47.2722 6.425C47.2722 6.54167 47.2722 6.65833 47.2722 6.775C47.2888 6.875 47.3055 6.975 47.3222 7.075C47.3222 7.125 47.3222 7.175 47.3222 7.225C47.3222 7.275 47.3305 7.325 47.3472 7.375C47.3472 7.475 47.3472 7.575 47.3472 7.675C47.3638 7.775 47.3805 7.88333 47.3972 8C47.4138 8.18333 47.4305 8.375 47.4472 8.575C47.4638 8.775 47.4722 8.975 47.4722 9.175C47.4722 9.25833 47.4722 9.35 47.4722 9.45C47.4722 9.53333 47.4805 9.61667 47.4972 9.7C47.5138 9.75 47.5222 9.8 47.5222 9.85C47.5222 9.9 47.5222 9.95 47.5222 10V10.5C47.5222 10.6 47.5305 10.6833 47.5472 10.75C47.5805 10.8667 47.5888 10.9833 47.5722 11.1C47.5722 11.2 47.5805 11.3083 47.5972 11.425L47.6722 12.575C47.6888 12.7417 47.6972 12.9167 47.6972 13.1C47.7138 13.2667 47.7222 13.4417 47.7222 13.625C47.7222 13.6917 47.7222 13.7667 47.7222 13.85C47.7222 13.9167 47.7305 13.9833 47.7472 14.05C47.7638 14.1 47.7722 14.15 47.7722 14.2C47.7722 14.25 47.7722 14.3 47.7722 14.35C47.7888 14.3667 47.7888 14.4 47.7722 14.45C47.7722 14.4833 47.7805 14.5167 47.7972 14.55C47.8305 14.6667 47.8472 14.7833 47.8472 14.9C47.8472 15.0167 47.8472 15.1417 47.8472 15.275C47.8472 15.3417 47.8472 15.4167 47.8472 15.5C47.8638 15.5667 47.8722 15.6417 47.8722 15.725C47.8888 15.8083 47.8972 15.9 47.8972 16C47.8972 16.1 47.8972 16.1917 47.8972 16.275C47.9138 16.3583 47.9222 16.45 47.9222 16.55C47.9222 16.6333 47.9305 16.7167 47.9472 16.8C47.9638 16.8333 47.9722 16.8667 47.9722 16.9C47.9722 17.0833 47.9888 17.2667 48.0222 17.45C48.0555 17.6333 48.0888 17.8167 48.1222 18C48.1388 18.05 48.1472 18.1083 48.1472 18.175C48.1472 18.225 48.1472 18.275 48.1472 18.325C48.1472 18.375 48.1305 18.4167 48.0972 18.45C48.0305 18.5 47.9805 18.6 47.9472 18.75C47.9472 18.8 47.9222 18.8417 47.8722 18.875C47.7555 18.925 47.6555 18.9917 47.5722 19.075C47.4388 19.1917 47.2805 19.25 47.0972 19.25ZM54.5782 20.225L54.1532 20.15C53.9366 20.1167 53.7116 20.0833 53.4782 20.05C53.2616 20.0167 53.0366 19.9917 52.8032 19.975C52.5699 19.975 52.3366 19.9083 52.1032 19.775C51.8866 19.6583 51.7366 19.475 51.6532 19.225C51.6366 19.1417 51.6116 19.0583 51.5782 18.975C51.5616 18.8917 51.5449 18.8083 51.5282 18.725C51.5282 18.525 51.5699 18.375 51.6532 18.275C51.7366 18.1917 51.8032 18.1083 51.8532 18.025C51.9199 17.9417 51.9866 17.8667 52.0532 17.8C52.0866 17.7667 52.1199 17.7417 52.1532 17.725C52.1866 17.7083 52.2199 17.6917 52.2532 17.675C52.3366 17.625 52.4199 17.5917 52.5032 17.575C52.5866 17.5417 52.6699 17.5167 52.7532 17.5C52.7866 17.4833 52.8116 17.4833 52.8282 17.5C52.8616 17.5 52.8866 17.5 52.9032 17.5C52.9866 17.5167 53.0782 17.5333 53.1782 17.55C53.2782 17.55 53.3699 17.5667 53.4532 17.6L54.5032 17.75C54.7366 17.7833 54.9449 17.75 55.1282 17.65C55.1949 17.6167 55.2532 17.5833 55.3032 17.55C55.3699 17.5167 55.4282 17.4833 55.4782 17.45C55.8449 17.2333 56.1616 17.0083 56.4282 16.775C56.6282 16.5917 56.8199 16.4083 57.0032 16.225C57.1866 16.0417 57.3532 15.8417 57.5032 15.625C57.6199 15.475 57.6949 15.325 57.7282 15.175C57.7616 15.0083 57.7699 14.8417 57.7532 14.675L57.6782 14.475C57.6616 14.3917 57.6282 14.325 57.5782 14.275C57.5282 14.225 57.4782 14.1667 57.4282 14.1C57.3282 14.0167 57.2282 13.925 57.1282 13.825C57.0449 13.725 56.9532 13.6417 56.8532 13.575C56.6032 13.375 56.3532 13.1833 56.1032 13C55.8699 12.8167 55.6282 12.6333 55.3782 12.45C55.3616 12.4167 55.3116 12.3833 55.2282 12.35C55.0782 12.25 54.9282 12.1417 54.7782 12.025C54.6449 11.8917 54.5116 11.7667 54.3782 11.65C54.2116 11.4833 54.0282 11.325 53.8282 11.175C53.7282 11.125 53.6366 11.0417 53.5532 10.925C53.4866 10.8417 53.3866 10.7583 53.2532 10.675C53.1366 10.6083 53.0282 10.5333 52.9282 10.45C52.8282 10.35 52.7282 10.2583 52.6282 10.175L52.3032 9.875C52.2366 9.79167 52.1616 9.71667 52.0782 9.65C52.0116 9.56667 51.9366 9.48333 51.8532 9.4C51.8199 9.31667 51.7699 9.25 51.7032 9.2C51.6532 9.15 51.6032 9.09167 51.5532 9.025C51.5366 8.99167 51.5116 8.95833 51.4782 8.925C51.4449 8.875 51.4199 8.825 51.4032 8.775C51.3032 8.575 51.1949 8.375 51.0782 8.175C50.9782 7.975 50.8866 7.76667 50.8032 7.55C50.7532 7.41667 50.7032 7.29167 50.6532 7.175C50.6199 7.04167 50.5866 6.91667 50.5532 6.8C50.5366 6.66667 50.5032 6.55 50.4532 6.45C50.4199 6.33333 50.3866 6.21667 50.3532 6.1C50.3199 5.91667 50.2782 5.74167 50.2282 5.575C50.1949 5.39167 50.1616 5.21667 50.1282 5.05L50.0782 4.85C50.0616 4.66667 50.0616 4.49167 50.0782 4.325C50.1116 4.09167 50.1616 3.88333 50.2282 3.7C50.2949 3.5 50.4032 3.34167 50.5532 3.225C50.7199 3.09167 50.8866 2.95833 51.0532 2.825C51.2199 2.69167 51.3949 2.58333 51.5782 2.5C51.6116 2.5 51.6366 2.49167 51.6532 2.475C51.8199 2.34167 52.0032 2.25 52.2032 2.2C52.4032 2.13333 52.6032 2.075 52.8032 2.025C53.6032 1.79167 54.4282 1.61667 55.2782 1.5H55.5282C55.6949 1.5 55.8532 1.5 56.0032 1.5C56.1532 1.5 56.3116 1.49167 56.4782 1.475C56.6782 1.475 56.8782 1.5 57.0782 1.55C57.2782 1.58333 57.4699 1.64167 57.6532 1.725C57.7866 1.79167 57.9199 1.86667 58.0532 1.95C58.1866 2.01667 58.3116 2.09167 58.4282 2.175C58.5616 2.275 58.6449 2.38333 58.6782 2.5L58.7532 2.675C58.8366 2.825 58.8782 2.98333 58.8782 3.15C58.8949 3.3 58.8866 3.45833 58.8532 3.625C58.8532 3.675 58.8449 3.73333 58.8282 3.8C58.8282 3.85 58.8282 3.9 58.8282 3.95C58.7782 4.31667 58.6032 4.6 58.3032 4.8C58.1199 4.96667 57.8782 5.03333 57.5782 5C57.5116 4.96667 57.4782 4.98333 57.4782 5.05C57.4782 5.11667 57.4366 5.15 57.3532 5.15H57.2032C57.1032 5.15 57.0032 5.1 56.9032 5C56.8199 4.91667 56.7782 4.85 56.7782 4.8C56.7782 4.73333 56.8116 4.68333 56.8782 4.65C56.8449 4.56667 56.8116 4.49167 56.7782 4.425C56.7449 4.35833 56.7116 4.30833 56.6782 4.275C56.6282 4.19167 56.5532 4.13333 56.4532 4.1C56.3699 4.08333 56.2866 4.06667 56.2032 4.05C56.1199 4.03333 56.0366 4.01667 55.9532 4C55.8866 4 55.8116 4 55.7282 4C55.6449 3.98333 55.5616 3.96667 55.4782 3.95C55.4282 3.93333 55.3532 3.94167 55.2532 3.975C55.2032 3.99167 55.1532 4.00833 55.1032 4.025C55.0532 4.025 54.9949 4.01667 54.9282 4C54.8782 4 54.8199 4 54.7532 4C54.7032 4 54.6449 4.01667 54.5782 4.05L54.1032 4.125C53.8366 4.175 53.5782 4.275 53.3282 4.425C53.2782 4.44167 53.2282 4.45833 53.1782 4.475C53.1282 4.49167 53.0782 4.49167 53.0282 4.475C52.9282 4.45833 52.8449 4.48333 52.7782 4.55C52.7616 4.58333 52.7199 4.60833 52.6532 4.625C52.6032 4.625 52.5616 4.64167 52.5282 4.675C52.4616 4.74167 52.4282 4.80833 52.4282 4.875C52.4449 4.90833 52.4532 4.95833 52.4532 5.025L52.9782 6.55C53.0782 6.81667 53.2032 7.06667 53.3532 7.3C53.5199 7.51667 53.6949 7.73333 53.8782 7.95C54.1616 8.28333 54.4532 8.56667 54.7532 8.8L55.5532 9.475C55.7199 9.625 55.8949 9.76667 56.0782 9.9C56.2616 10.0333 56.4366 10.1667 56.6032 10.3C56.8532 10.4833 57.1032 10.675 57.3532 10.875C57.6032 11.0583 57.8532 11.25 58.1032 11.45C58.3032 11.6167 58.4949 11.7833 58.6782 11.95C58.8782 12.1 59.0616 12.2667 59.2282 12.45C59.3449 12.5833 59.4616 12.7167 59.5782 12.85C59.6949 12.9833 59.7949 13.1333 59.8782 13.3C59.9949 13.4833 60.0949 13.7 60.1782 13.95C60.2782 14.2667 60.3199 14.5667 60.3032 14.85C60.2866 14.8833 60.2782 14.9333 60.2782 15C60.2782 15.2 60.2532 15.3917 60.2032 15.575C60.1699 15.7417 60.1116 15.9167 60.0282 16.1C59.9449 16.2667 59.8532 16.4417 59.7532 16.625C59.6699 16.7917 59.5699 16.9583 59.4532 17.125C59.2866 17.3417 59.1116 17.55 58.9282 17.75C58.7616 17.9333 58.5699 18.1167 58.3532 18.3C58.2366 18.4 58.1199 18.5083 58.0032 18.625C57.8866 18.725 57.7616 18.8167 57.6282 18.9C57.5449 18.9667 57.4616 19.025 57.3782 19.075C57.2949 19.1417 57.2116 19.2083 57.1282 19.275C57.0616 19.3083 56.9949 19.35 56.9282 19.4C56.8616 19.45 56.7949 19.5 56.7282 19.55C56.6616 19.6167 56.5782 19.6667 56.4782 19.7C56.3949 19.75 56.3116 19.7917 56.2282 19.825L55.5032 20.125C55.3532 20.175 55.2032 20.2083 55.0532 20.225C54.9032 20.2417 54.7449 20.2417 54.5782 20.225ZM68.4399 20.65C68.3899 20.6667 68.3399 20.6667 68.2899 20.65C68.2399 20.65 68.1983 20.65 68.1649 20.65C67.9816 20.6 67.8233 20.5 67.6899 20.35C67.5733 20.2167 67.4649 20.0583 67.3649 19.875C67.3483 19.8083 67.3233 19.7417 67.2899 19.675C67.2733 19.6083 67.2649 19.5417 67.2649 19.475V19.3C67.2316 19.1167 67.2066 18.9333 67.1899 18.75C67.1899 18.5667 67.1899 18.3833 67.1899 18.2C67.1899 17.9667 67.1899 17.7333 67.1899 17.5C67.2066 17.2667 67.2149 17.0333 67.2149 16.8C67.2149 16.6833 67.2233 16.5917 67.2399 16.525C67.2566 16.2083 67.2566 15.875 67.2399 15.525C67.2233 15.4417 67.2066 15.35 67.1899 15.25C67.1899 15.15 67.1899 15.05 67.1899 14.95C67.2066 14.7667 67.2066 14.5833 67.1899 14.4C67.1733 14.2167 67.1483 14.0333 67.1149 13.85L67.0399 13.425C67.0399 13.3917 67.0316 13.3583 67.0149 13.325C67.0149 13.275 67.0149 13.2417 67.0149 13.225C66.8816 12.725 66.6983 12.275 66.4649 11.875C66.3816 11.725 66.2899 11.575 66.1899 11.425C66.1066 11.2583 66.0233 11.0917 65.9399 10.925C65.8566 10.7583 65.7899 10.5917 65.7399 10.425C65.7066 10.2417 65.6733 10.0667 65.6399 9.9C65.6399 9.86667 65.6399 9.825 65.6399 9.775C65.6566 9.725 65.6649 9.675 65.6649 9.625C65.6649 9.525 65.6649 9.425 65.6649 9.325C65.6816 9.20833 65.6899 9.09167 65.6899 8.975C65.6899 8.85833 65.6566 8.76667 65.5899 8.7L65.4399 8.5C65.3733 8.41667 65.3149 8.33333 65.2649 8.25C65.2149 8.15 65.1566 8.05833 65.0899 7.975L64.8149 7.6C64.7483 7.5 64.6733 7.4 64.5899 7.3C64.5066 7.2 64.4233 7.09167 64.3399 6.975C64.3066 6.94167 64.2733 6.90833 64.2399 6.875C64.2066 6.825 64.1649 6.79167 64.1149 6.775C64.0483 6.75833 63.9983 6.71667 63.9649 6.65C63.9149 6.6 63.8566 6.525 63.7899 6.425C63.6899 6.25833 63.5816 6.09167 63.4649 5.925C63.3649 5.74167 63.2649 5.56667 63.1649 5.4L63.0899 5.3C62.9399 4.98333 62.7899 4.66667 62.6399 4.35C62.5066 4.01667 62.3816 3.69167 62.2649 3.375C62.1983 3.225 62.1483 3.05833 62.1149 2.875C62.0983 2.775 62.0733 2.675 62.0399 2.575C62.0066 2.475 61.9649 2.38333 61.9149 2.3C61.8649 2.21667 61.8316 2.13333 61.8149 2.05C61.8149 1.96667 61.8149 1.88333 61.8149 1.8C61.8149 1.75 61.8233 1.7 61.8399 1.65C61.8733 1.6 61.8983 1.55 61.9149 1.5C61.9649 1.41667 62.0149 1.34167 62.0649 1.275C62.1316 1.19167 62.1983 1.11667 62.2649 1.05C62.3483 0.966665 62.4399 0.924999 62.5399 0.924999C62.5899 0.924999 62.6233 0.916666 62.6399 0.899999C62.7733 0.833332 62.9066 0.816666 63.0399 0.85C63.1899 0.883333 63.3233 0.924999 63.4399 0.975C63.4899 0.991666 63.5316 1.025 63.5649 1.075C63.5983 1.10833 63.6316 1.14167 63.6649 1.175L63.9399 1.625C63.9733 1.65833 63.9899 1.7 63.9899 1.75C64.0066 1.8 64.0233 1.85 64.0399 1.9C64.0566 1.93333 64.0733 1.975 64.0899 2.025C64.2066 2.275 64.3149 2.525 64.4149 2.775C64.5316 3.00833 64.6399 3.25 64.7399 3.5C64.8233 3.71667 64.9066 3.93333 64.9899 4.15C65.0899 4.35 65.1983 4.55 65.3149 4.75C65.3983 4.95 65.4983 5.14167 65.6149 5.325C65.7316 5.50833 65.8483 5.69167 65.9649 5.875C66.0316 5.94167 66.0899 6.01667 66.1399 6.1C66.1899 6.18333 66.2483 6.26667 66.3149 6.35L66.4399 6.5C66.5733 6.63333 66.6566 6.7 66.6899 6.7C66.7233 6.7 66.7983 6.625 66.9149 6.475C66.9816 6.39167 67.0399 6.30833 67.0899 6.225C67.1566 6.125 67.2233 6.04167 67.2899 5.975C67.4233 5.80833 67.5483 5.65 67.6649 5.5C67.7983 5.35 67.9233 5.2 68.0399 5.05C68.2233 4.83333 68.4566 4.61667 68.7399 4.4C68.8566 4.3 68.9649 4.19167 69.0649 4.075C69.1816 3.925 69.3149 3.81667 69.4649 3.75C69.5816 3.68333 69.6899 3.61667 69.7899 3.55C69.8899 3.46667 69.9899 3.39167 70.0899 3.325C70.1899 3.225 70.2983 3.14167 70.4149 3.075C70.4816 3.025 70.5399 2.975 70.5899 2.925C70.6566 2.85833 70.7149 2.79167 70.7649 2.725C70.7983 2.675 70.8316 2.63333 70.8649 2.6C70.9149 2.55 70.9649 2.50833 71.0149 2.475L71.3649 2.25C71.3983 2.23333 71.4233 2.225 71.4399 2.225C71.4566 2.20833 71.4733 2.19167 71.4899 2.175C71.5233 2.175 71.5483 2.175 71.5649 2.175C71.5816 2.15833 71.5983 2.15 71.6149 2.15C71.6983 2.11667 71.7733 2.09167 71.8399 2.075C71.9233 2.05833 72.0066 2.05 72.0899 2.05C72.1899 2.1 72.2899 2.15 72.3899 2.2C72.4899 2.25 72.5733 2.31667 72.6399 2.4C72.6733 2.41667 72.6983 2.425 72.7149 2.425C72.7483 2.425 72.7733 2.43333 72.7899 2.45C72.8066 2.46667 72.8149 2.48333 72.8149 2.5C72.8149 2.51667 72.8066 2.55 72.7899 2.6C72.7733 2.63333 72.7649 2.65833 72.7649 2.675C72.7649 2.69167 72.7816 2.7 72.8149 2.7C72.8483 2.7 72.8733 2.70833 72.8899 2.725C72.9066 2.74167 72.9233 2.75 72.9399 2.75C72.9566 2.75 72.9649 2.76667 72.9649 2.8C72.9483 2.93333 72.9649 3.075 73.0149 3.225C73.0483 3.275 73.0649 3.325 73.0649 3.375C73.0649 3.425 73.0566 3.475 73.0399 3.525L72.7149 4.125C72.6983 4.19167 72.6566 4.24167 72.5899 4.275C72.3399 4.49167 72.0899 4.65833 71.8399 4.775C71.5399 4.875 71.2899 5.00833 71.0899 5.175C71.0066 5.24167 70.9233 5.30833 70.8399 5.375C70.7566 5.425 70.6733 5.49167 70.5899 5.575C70.5566 5.60833 70.5066 5.64167 70.4399 5.675L70.2899 5.8C70.1066 6 69.9233 6.2 69.7399 6.4C69.5733 6.58333 69.3983 6.775 69.2149 6.975C69.1816 7.04167 69.1399 7.075 69.0899 7.075C69.0066 7.125 68.9316 7.19167 68.8649 7.275C68.7816 7.40833 68.6899 7.54167 68.5899 7.675C68.4899 7.79167 68.4149 7.93333 68.3649 8.1L68.2149 8.35C68.1983 8.36667 68.1816 8.39167 68.1649 8.425C68.1483 8.44167 68.1316 8.46667 68.1149 8.5C68.0483 8.61667 68.0399 8.74167 68.0899 8.875C68.1233 8.90833 68.1483 8.95 68.1649 9C68.1983 9.05 68.2233 9.1 68.2399 9.15C68.2899 9.23333 68.2816 9.31667 68.2149 9.4C68.1816 9.41667 68.1649 9.45833 68.1649 9.525C68.1983 9.59167 68.2149 9.64167 68.2149 9.675C68.2483 9.775 68.2399 9.86667 68.1899 9.95C68.1566 10.0167 68.1399 10.0583 68.1399 10.075C68.1233 10.175 68.1316 10.2667 68.1649 10.35C68.1983 10.4167 68.2316 10.5 68.2649 10.6C68.3149 10.6833 68.3733 10.7667 68.4399 10.85C68.5233 11.0167 68.6066 11.175 68.6899 11.325C68.7733 11.475 68.8483 11.6333 68.9149 11.8L69.2149 12.775C69.2483 12.925 69.2733 13.0833 69.2899 13.25C69.3066 13.4 69.3233 13.55 69.3399 13.7C69.3566 13.8 69.3733 13.9 69.3899 14C69.4066 14.0833 69.4066 14.175 69.3899 14.275C69.4233 14.6417 69.4316 15.0083 69.4149 15.375C69.4149 15.725 69.4149 16.0833 69.4149 16.45C69.4149 16.4833 69.4066 16.5167 69.3899 16.55C69.3733 16.7333 69.3649 16.925 69.3649 17.125C69.3649 17.325 69.3566 17.5167 69.3399 17.7C69.3399 17.8167 69.3399 17.9333 69.3399 18.05C69.3566 18.1667 69.3649 18.2917 69.3649 18.425C69.3649 18.475 69.3733 18.5083 69.3899 18.525C69.4233 18.6083 69.4483 18.7 69.4649 18.8C69.4816 18.8833 69.4983 18.9667 69.5149 19.05C69.5316 19.1167 69.5399 19.175 69.5399 19.225C69.5399 19.2917 69.5233 19.3583 69.4899 19.425C69.4399 19.5417 69.4399 19.6667 69.4899 19.8C69.4899 19.8167 69.4649 19.8417 69.4149 19.875C69.3816 19.875 69.3483 19.8833 69.3149 19.9C69.2983 19.9 69.2733 19.9167 69.2399 19.95C69.2399 19.9833 69.2316 20.0083 69.2149 20.025C69.1983 20.1083 69.1316 20.2083 69.0149 20.325C68.9483 20.4083 68.8566 20.475 68.7399 20.525C68.6399 20.575 68.5399 20.6167 68.4399 20.65ZM83.9093 20.825C83.7593 20.825 83.6259 20.7667 83.5093 20.65C83.4759 20.6 83.4426 20.55 83.4093 20.5C83.3759 20.45 83.3426 20.4 83.3093 20.35C83.1593 20 83.0843 19.6333 83.0843 19.25L83.0093 18.65C82.9593 18.4167 82.9176 18.1833 82.8843 17.95C82.8509 17.7167 82.7926 17.4917 82.7093 17.275L82.5593 16.85C82.5593 16.8167 82.5509 16.7833 82.5343 16.75C82.5343 16.7167 82.5259 16.6833 82.5093 16.65L82.1343 15.325C82.1176 15.2917 82.1009 15.25 82.0843 15.2C82.0843 15.15 82.0676 15.1083 82.0343 15.075C81.9843 14.975 81.9426 14.875 81.9093 14.775C81.8926 14.6583 81.8676 14.5417 81.8343 14.425C81.8176 14.3417 81.8009 14.2667 81.7843 14.2C81.7676 14.1167 81.7426 14.0333 81.7093 13.95C81.6759 13.85 81.6426 13.7917 81.6093 13.775C81.5759 13.7417 81.5009 13.7417 81.3843 13.775C81.3009 13.7917 81.2093 13.8083 81.1093 13.825C81.0259 13.825 80.9426 13.8417 80.8593 13.875C80.7926 13.8917 80.7093 13.9083 80.6093 13.925C80.5259 13.925 80.4426 13.9333 80.3593 13.95L80.0093 14.025C79.9259 14.0417 79.8343 14.0667 79.7343 14.1C79.6509 14.1167 79.5676 14.125 79.4843 14.125L79.0343 14.2C78.9009 14.2333 78.7593 14.2667 78.6093 14.3C78.4593 14.3333 78.3176 14.3667 78.1843 14.4C77.7843 14.5 77.3843 14.575 76.9843 14.625C76.8509 14.6583 76.7759 14.7167 76.7593 14.8C76.7426 14.8 76.7343 14.8083 76.7343 14.825C76.6343 15.0917 76.5176 15.3583 76.3843 15.625C76.2676 15.875 76.1426 16.1333 76.0093 16.4C75.9759 16.4667 75.9426 16.5333 75.9093 16.6C75.8926 16.65 75.8676 16.7083 75.8343 16.775C75.8176 16.8083 75.8009 16.85 75.7843 16.9C75.7676 16.9333 75.7509 16.9667 75.7343 17C75.6343 17.1167 75.5843 17.2583 75.5843 17.425C75.5676 17.525 75.5343 17.625 75.4843 17.725C75.4343 17.8083 75.3843 17.8917 75.3343 17.975C75.3176 18.025 75.2843 18.05 75.2343 18.05C75.1676 18.0667 75.1009 18.0917 75.0343 18.125C74.9676 18.1583 74.8926 18.1917 74.8093 18.225C74.7593 18.2417 74.7093 18.2417 74.6593 18.225C74.6259 18.2083 74.5843 18.1917 74.5343 18.175C74.5009 18.1417 74.4676 18.125 74.4343 18.125C74.2509 18.1083 74.1176 18 74.0343 17.8C73.9009 17.5333 73.8093 17.2667 73.7593 17C73.7426 16.9333 73.7426 16.875 73.7593 16.825C73.7926 16.775 73.8176 16.725 73.8343 16.675C73.9343 16.6083 73.9926 16.5333 74.0093 16.45V16.425C74.0093 16.2083 74.0509 16.0083 74.1343 15.825C74.2343 15.625 74.3176 15.4333 74.3843 15.25C74.4176 15.15 74.4593 15.05 74.5093 14.95C74.5593 14.85 74.6093 14.75 74.6593 14.65C74.7259 14.5333 74.7759 14.425 74.8093 14.325C74.8593 14.2083 74.9009 14.0917 74.9343 13.975C74.9843 13.8417 74.9843 13.7167 74.9343 13.6C74.9009 13.5 74.8843 13.4083 74.8843 13.325C74.8843 13.225 74.8926 13.125 74.9093 13.025C74.9093 12.8417 74.9759 12.6833 75.1093 12.55C75.1759 12.4667 75.2426 12.4 75.3093 12.35C75.3926 12.2833 75.4676 12.2167 75.5343 12.15C75.6843 12 75.8009 11.8 75.8843 11.55C75.9509 11.3333 76.0009 11.1167 76.0343 10.9C76.0843 10.6667 76.1343 10.4417 76.1843 10.225C76.2176 10.0083 76.2509 9.8 76.2843 9.6C76.3343 9.38333 76.3843 9.175 76.4343 8.975C76.4509 8.89167 76.4676 8.81667 76.4843 8.75C76.5176 8.66667 76.5426 8.59167 76.5593 8.525C76.6093 8.39167 76.6593 8.26667 76.7093 8.15C76.7593 8.01667 76.7926 7.88333 76.8093 7.75C76.8426 7.68333 76.8426 7.625 76.8093 7.575C76.7926 7.49167 76.7926 7.41667 76.8093 7.35C76.8426 7.28333 76.8676 7.21667 76.8843 7.15C76.9343 7.03333 76.9676 6.91667 76.9843 6.8C77.0176 6.68333 77.0593 6.56667 77.1093 6.45C77.1926 6.23333 77.2593 6.05833 77.3093 5.925C77.3759 5.775 77.4343 5.60833 77.4843 5.425C77.5176 5.325 77.5509 5.23333 77.5843 5.15C77.6343 5.05 77.6676 4.95 77.6843 4.85C77.7343 4.7 77.7759 4.55 77.8093 4.4C77.8426 4.23333 77.8593 4.075 77.8593 3.925C77.8926 3.79167 77.9259 3.7 77.9593 3.65C78.0426 3.48333 78.1426 3.34167 78.2593 3.225C78.3926 3.10833 78.5176 2.99167 78.6343 2.875C78.7176 2.825 78.8009 2.79167 78.8843 2.775C78.9676 2.74167 79.0509 2.75 79.1343 2.8C79.2009 2.83333 79.2426 2.85 79.2593 2.85C79.4093 2.83333 79.5343 2.86667 79.6343 2.95C79.7343 3.03333 79.8176 3.13333 79.8843 3.25C79.9176 3.28333 79.9426 3.325 79.9593 3.375C79.9759 3.425 79.9926 3.46667 80.0093 3.5C80.0926 3.63333 80.1343 3.76667 80.1343 3.9C80.1343 3.96667 80.1426 4.04167 80.1593 4.125C80.1759 4.19167 80.1926 4.26667 80.2093 4.35C80.2593 4.45 80.3343 4.5 80.4343 4.5C80.4509 4.48333 80.4676 4.48333 80.4843 4.5C80.5009 4.51667 80.5093 4.53333 80.5093 4.55C80.5926 4.65 80.6176 4.75833 80.5843 4.875C80.5509 5.00833 80.5426 5.14167 80.5593 5.275C80.5926 5.39167 80.6259 5.51667 80.6593 5.65C80.7259 5.81667 80.7926 5.98333 80.8593 6.15C80.9259 6.31667 80.9926 6.48333 81.0593 6.65C81.1426 6.83333 81.2259 7.01667 81.3093 7.2C81.3926 7.38333 81.4676 7.56667 81.5343 7.75C81.6176 7.98333 81.7009 8.21667 81.7843 8.45C81.8843 8.68333 81.9926 8.91667 82.1093 9.15L82.1843 9.425C82.2009 9.49167 82.2176 9.55833 82.2343 9.625C82.2676 9.69167 82.2926 9.75833 82.3093 9.825C82.3426 9.875 82.3676 9.925 82.3843 9.975C82.4176 10.025 82.4509 10.0667 82.4843 10.1C82.5676 10.2167 82.6176 10.3417 82.6343 10.475C82.6843 10.6417 82.7593 10.7917 82.8593 10.925C82.8926 10.975 82.9426 11 83.0093 11C83.2593 10.9667 83.5093 10.9417 83.7593 10.925C84.0093 10.8917 84.2593 10.8417 84.5093 10.775C84.6926 10.725 84.8676 10.7 85.0343 10.7C85.3509 10.7 85.6426 10.8083 85.9093 11.025C86.2259 11.275 86.3926 11.5917 86.4093 11.975C86.4093 12.0583 86.4176 12.125 86.4343 12.175C86.4343 12.2917 86.4009 12.3833 86.3343 12.45C86.3176 12.5 86.2843 12.55 86.2343 12.6C86.2009 12.65 86.1676 12.7 86.1343 12.75C86.1009 12.8167 86.0676 12.8667 86.0343 12.9L85.8843 13.025C85.8676 13.0583 85.8426 13.1 85.8093 13.15C85.7759 13.1833 85.7343 13.2083 85.6843 13.225C85.6176 13.2417 85.5509 13.2667 85.4843 13.3C85.4176 13.3167 85.3426 13.325 85.2593 13.325C84.9593 13.3583 84.6926 13.35 84.4593 13.3H84.0593C84.0259 13.3 83.9759 13.3167 83.9093 13.35C83.8426 13.3833 83.8093 13.425 83.8093 13.475V13.575C83.8593 13.725 83.8926 13.8833 83.9093 14.05C83.9426 14.2 83.9926 14.3417 84.0593 14.475C84.0593 14.5417 84.0759 14.6083 84.1093 14.675C84.1926 14.825 84.2593 14.9833 84.3093 15.15C84.3593 15.3 84.4009 15.4583 84.4343 15.625C84.4343 15.6583 84.4509 15.725 84.4843 15.825C84.5343 15.9417 84.5759 16.0667 84.6093 16.2C84.6426 16.3167 84.6676 16.4417 84.6843 16.575C84.6843 16.675 84.7093 16.7667 84.7593 16.85C84.8259 17 84.8759 17.15 84.9093 17.3C84.9426 17.45 84.9676 17.6083 84.9843 17.775C85.0009 17.7917 85.0093 17.825 85.0093 17.875C85.0093 17.9083 85.0176 17.9417 85.0343 17.975C85.1176 18.1583 85.1759 18.3583 85.2093 18.575C85.2426 18.775 85.2843 18.975 85.3343 19.175C85.3676 19.275 85.3843 19.375 85.3843 19.475C85.4009 19.5917 85.4093 19.7083 85.4093 19.825C85.4093 19.9083 85.3843 20 85.3343 20.1C85.2843 20.15 85.2593 20.175 85.2593 20.175C85.1593 20.1917 85.1009 20.25 85.0843 20.35L85.0093 20.5C84.9759 20.5667 84.9259 20.6083 84.8593 20.625C84.7926 20.625 84.7343 20.65 84.6843 20.7C84.6176 20.7667 84.5259 20.8 84.4093 20.8C84.3426 20.8 84.2593 20.8 84.1593 20.8C84.0759 20.8 83.9926 20.8083 83.9093 20.825ZM77.8843 11.75C77.9843 11.7333 78.0843 11.7167 78.1843 11.7C78.3009 11.6833 78.4259 11.6667 78.5593 11.65C78.6426 11.6333 78.7509 11.6167 78.8843 11.6C79.0176 11.5833 79.1426 11.5667 79.2593 11.55C79.3759 11.5167 79.4926 11.5 79.6093 11.5C79.7259 11.4833 79.8426 11.4667 79.9593 11.45C80.0593 11.4167 80.1593 11.4 80.2593 11.4C80.3593 11.3833 80.4593 11.3667 80.5593 11.35C80.7093 11.3167 80.7676 11.2333 80.7343 11.1C80.7176 10.9667 80.6843 10.8333 80.6343 10.7C80.6009 10.55 80.5259 10.425 80.4093 10.325C80.3759 10.2917 80.3593 10.2417 80.3593 10.175V10.1C80.3259 9.96667 80.2843 9.84167 80.2343 9.725C80.2009 9.59167 80.1593 9.46667 80.1093 9.35C80.0759 9.21667 80.0343 9.1 79.9843 9C79.9509 8.88333 79.9093 8.76667 79.8593 8.65L79.5593 7.75C79.5093 7.63333 79.4593 7.51667 79.4093 7.4C79.3759 7.28333 79.3426 7.16667 79.3093 7.05L79.2343 6.95H79.1593L79.1093 7.025C79.0259 7.275 78.9259 7.525 78.8093 7.775C78.7093 8.025 78.6176 8.29167 78.5343 8.575C78.5343 8.60833 78.5259 8.65 78.5093 8.7C78.4926 8.75 78.4759 8.8 78.4593 8.85C78.3926 9.01667 78.3259 9.2 78.2593 9.4C78.2093 9.6 78.1676 9.8 78.1343 10C78.1176 10.1167 78.1009 10.2333 78.0843 10.35C78.0676 10.45 78.0426 10.5583 78.0093 10.675L77.7843 11.65C77.7676 11.6667 77.7759 11.6917 77.8093 11.725C77.8426 11.7417 77.8676 11.75 77.8843 11.75ZM98.9571 19.6C98.8071 19.6167 98.6655 19.6167 98.5321 19.6C98.3988 19.5833 98.2655 19.5167 98.1321 19.4C98.0988 19.3667 98.0488 19.3333 97.9821 19.3C97.8988 19.25 97.8488 19.1917 97.8321 19.125C97.8155 19.0583 97.7821 19.0083 97.7321 18.975C97.6821 18.925 97.6488 18.8667 97.6321 18.8C97.6155 18.75 97.6071 18.7 97.6071 18.65C97.6238 18.5833 97.6321 18.525 97.6321 18.475C97.6321 18.425 97.6238 18.375 97.6071 18.325C97.6071 18.275 97.6071 18.225 97.6071 18.175C97.5571 17.925 97.5071 17.675 97.4571 17.425C97.4071 17.1583 97.3655 16.9 97.3321 16.65C97.3155 16.5333 97.2988 16.4167 97.2821 16.3C97.2655 16.1833 97.2488 16.0667 97.2321 15.95C97.2155 15.7333 97.1905 15.5167 97.1571 15.3C97.1405 15.0833 97.1155 14.8667 97.0821 14.65C97.0488 14.5167 97.0321 14.4 97.0321 14.3C97.0321 14.1667 97.0238 14.0417 97.0071 13.925C96.9905 13.7917 96.9738 13.6667 96.9571 13.55C96.9405 13.45 96.8821 13.4 96.7821 13.4L96.6071 13.375C96.5238 13.3583 96.4321 13.35 96.3321 13.35C96.2321 13.35 96.1321 13.3417 96.0321 13.325H95.7821C95.7488 13.3417 95.6988 13.35 95.6321 13.35C95.5655 13.35 95.4988 13.35 95.4321 13.35C95.3821 13.3333 95.3155 13.3333 95.2321 13.35C95.1655 13.35 95.0988 13.3583 95.0321 13.375C94.9821 13.375 94.9155 13.3667 94.8321 13.35C94.8155 13.3333 94.7821 13.3333 94.7321 13.35C94.6988 13.35 94.6655 13.35 94.6321 13.35C94.5488 13.35 94.4571 13.3583 94.3571 13.375C94.2738 13.375 94.1905 13.375 94.1071 13.375C94.0571 13.375 94.0071 13.375 93.9571 13.375C93.9071 13.375 93.8571 13.3833 93.8071 13.4C93.6905 13.4167 93.5738 13.4333 93.4571 13.45C93.3405 13.45 93.2238 13.45 93.1071 13.45C92.9405 13.4333 92.7738 13.4333 92.6071 13.45C92.4405 13.4667 92.2738 13.4833 92.1071 13.5H92.0321C91.9488 13.5333 91.9071 13.5833 91.9071 13.65C91.9071 13.6667 91.8988 13.6833 91.8821 13.7C91.8821 13.7 91.8821 13.7083 91.8821 13.725C91.8821 13.8083 91.8905 13.875 91.9071 13.925C91.9238 14.0417 91.9405 14.1667 91.9571 14.3C91.9738 14.4167 91.9905 14.5417 92.0071 14.675L92.0821 15.275C92.0988 15.4417 92.1238 15.6083 92.1571 15.775C92.1905 15.925 92.2155 16.075 92.2321 16.225C92.2488 16.2417 92.2571 16.2667 92.2571 16.3C92.2571 16.3167 92.2655 16.3417 92.2821 16.375C92.3155 16.4583 92.3321 16.55 92.3321 16.65C92.3321 16.75 92.3321 16.85 92.3321 16.95C92.3655 16.9667 92.3571 17 92.3071 17.05C92.2905 17.0833 92.2738 17.1167 92.2571 17.15C92.2405 17.1833 92.2321 17.2167 92.2321 17.25C92.1821 17.4167 92.0738 17.575 91.9071 17.725C91.7405 17.8583 91.5821 17.9333 91.4321 17.95C91.4155 17.95 91.3988 17.9583 91.3821 17.975C91.3655 17.975 91.3405 17.975 91.3071 17.975C91.0905 18.025 90.8571 18.0083 90.6071 17.925L90.5321 17.875C90.5155 17.8083 90.4821 17.7583 90.4321 17.725C90.3821 17.6917 90.3405 17.6583 90.3071 17.625C90.2738 17.575 90.2321 17.5333 90.1821 17.5C90.1488 17.45 90.1238 17.3917 90.1071 17.325C90.1071 17.3083 90.0988 17.3 90.0821 17.3C90.0155 17.2167 89.9738 17.125 89.9571 17.025C89.9405 16.925 89.9238 16.825 89.9071 16.725L89.8321 16.325C89.8155 16.175 89.7905 16.025 89.7571 15.875C89.7405 15.7083 89.7238 15.5417 89.7071 15.375L89.5571 14.4C89.5405 14.2833 89.5238 14.1667 89.5071 14.05C89.4905 13.9167 89.4738 13.7917 89.4571 13.675L89.3821 12.875C89.3655 12.7083 89.3488 12.5417 89.3321 12.375C89.3155 12.2083 89.2905 12.0417 89.2571 11.875V11.65C89.2571 11.5167 89.2488 11.3833 89.2321 11.25C89.2321 11.1167 89.2238 10.9917 89.2071 10.875C89.1905 10.825 89.1821 10.775 89.1821 10.725C89.1821 10.675 89.1821 10.625 89.1821 10.575C89.1821 10.4917 89.1738 10.4167 89.1571 10.35C89.1571 10.2667 89.1488 10.1833 89.1321 10.1L89.0571 9.575C89.0405 9.39167 89.0071 9.2 88.9571 9C88.9238 8.8 88.8738 8.60833 88.8071 8.425C88.7738 8.325 88.7321 8.225 88.6821 8.125C88.6321 8.00833 88.5905 7.89167 88.5571 7.775C88.5238 7.64167 88.4905 7.55 88.4571 7.5C88.4071 7.33333 88.4071 7.175 88.4571 7.025L88.6071 6.65C88.6238 6.58333 88.6738 6.525 88.7571 6.475C88.7905 6.425 88.8321 6.38333 88.8821 6.35C88.9321 6.3 88.9821 6.25833 89.0321 6.225C89.0655 6.20833 89.1071 6.2 89.1571 6.2C89.2071 6.21667 89.2738 6.20833 89.3571 6.175L89.4321 6.125C89.5821 6.04167 89.7321 6.04167 89.8821 6.125C89.9655 6.15833 90.0488 6.19167 90.1321 6.225C90.2321 6.25833 90.3155 6.31667 90.3821 6.4C90.4821 6.41667 90.5488 6.49167 90.5821 6.625L90.8071 7.125C90.9405 7.40833 91.0571 7.7 91.1571 8C91.2571 8.3 91.3238 8.61667 91.3571 8.95C91.3738 9.06667 91.3905 9.19167 91.4071 9.325C91.4405 9.44167 91.4655 9.56667 91.4821 9.7V9.9C91.4821 9.98333 91.4905 10.0417 91.5071 10.075C91.5238 10.1917 91.5321 10.3167 91.5321 10.45C91.5488 10.5833 91.5571 10.7167 91.5571 10.85V10.9C91.5738 10.9833 91.6238 11.0417 91.7071 11.075C91.7571 11.0917 91.8071 11.1083 91.8571 11.125C91.9071 11.125 91.9571 11.125 92.0071 11.125C92.0905 11.1083 92.1571 11.1083 92.2071 11.125C92.2738 11.125 92.3405 11.125 92.4071 11.125C92.5238 11.125 92.6321 11.125 92.7321 11.125C92.8321 11.1083 92.9405 11.1 93.0571 11.1H93.3571C93.4071 11.1 93.4571 11.1083 93.5071 11.125C93.5738 11.125 93.6321 11.1167 93.6821 11.1C93.7155 11.1 93.7405 11.1 93.7571 11.1C93.7905 11.0833 93.8155 11.075 93.8321 11.075C93.9988 11.0917 94.1655 11.1 94.3321 11.1C94.4988 11.0833 94.6655 11.075 94.8321 11.075C94.9988 11.0917 95.1655 11.1 95.3321 11.1C95.4988 11.0833 95.6655 11.075 95.8321 11.075C95.9655 11.075 96.0905 11.0833 96.2071 11.1C96.3405 11.1 96.4655 11.1 96.5821 11.1C96.6988 11.1 96.7571 11.05 96.7571 10.95C96.7571 10.8667 96.7571 10.775 96.7571 10.675C96.7571 10.575 96.7488 10.4833 96.7321 10.4C96.7155 10.2167 96.6988 10.05 96.6821 9.9C96.6821 9.73333 96.6738 9.56667 96.6571 9.4C96.6405 9.16667 96.6321 8.94167 96.6321 8.725C96.6488 8.49167 96.6405 8.26667 96.6071 8.05C96.5905 7.86667 96.5738 7.68333 96.5571 7.5C96.5571 7.31667 96.5405 7.14167 96.5071 6.975V6.625C96.5071 6.55833 96.5155 6.50833 96.5321 6.475C96.5321 6.44167 96.5321 6.41667 96.5321 6.4C96.5488 6.36667 96.5571 6.34167 96.5571 6.325C96.5571 6.24167 96.5405 6.19167 96.5071 6.175L96.4321 6.125C96.3321 6.05833 96.3155 5.98333 96.3821 5.9C96.4321 5.83333 96.4405 5.75833 96.4071 5.675C96.4071 5.625 96.4155 5.59167 96.4321 5.575C96.4655 5.525 96.4988 5.475 96.5321 5.425C96.5655 5.375 96.5905 5.31667 96.6071 5.25C96.6571 5.06667 96.7321 4.98333 96.8321 5C96.9488 5 97.0238 5.01667 97.0571 5.05C97.0738 5.06667 97.0905 5.075 97.1071 5.075C97.1238 5.05833 97.1321 5.04167 97.1321 5.025C97.1321 4.925 97.1821 4.86667 97.2821 4.85C97.3821 4.83333 97.4571 4.81667 97.5071 4.8L97.6571 4.7H97.7321C97.8155 4.73333 97.8821 4.775 97.9321 4.825C97.9988 4.85833 98.0655 4.89167 98.1321 4.925C98.1655 4.94167 98.2071 4.975 98.2571 5.025C98.3738 5.175 98.4571 5.36667 98.5071 5.6C98.5405 5.76667 98.5738 5.925 98.6071 6.075C98.6405 6.225 98.6655 6.38333 98.6821 6.55C98.6821 6.58333 98.6821 6.61667 98.6821 6.65C98.6988 6.68333 98.7071 6.71667 98.7071 6.75L98.7321 6.925C98.7321 7.125 98.7405 7.325 98.7571 7.525C98.7905 7.70833 98.8155 7.9 98.8321 8.1C98.8488 8.11667 98.8571 8.15 98.8571 8.2C98.8405 8.31667 98.8321 8.43333 98.8321 8.55C98.8488 8.65 98.8655 8.76667 98.8821 8.9C98.8988 9.01667 98.9071 9.15 98.9071 9.3C98.9238 9.43333 98.9321 9.56667 98.9321 9.7C98.9321 9.78333 98.9321 9.875 98.9321 9.975C98.9488 10.075 98.9655 10.1667 98.9821 10.25C98.9988 10.3333 99.0071 10.4167 99.0071 10.5C99.0071 10.5833 99.0071 10.6667 99.0071 10.75C99.0071 10.8333 99.0071 10.9167 99.0071 11C99.0238 11.0667 99.0405 11.1417 99.0571 11.225V11.325C99.0738 11.525 99.0905 11.725 99.1071 11.925C99.1405 12.1083 99.1655 12.3 99.1821 12.5C99.1988 12.5167 99.2071 12.55 99.2071 12.6C99.2071 12.7833 99.2238 12.975 99.2571 13.175C99.2905 13.3583 99.3155 13.5417 99.3321 13.725L99.4071 14.6C99.4071 14.6167 99.4071 14.65 99.4071 14.7C99.4238 14.7333 99.4321 14.7667 99.4321 14.8C99.4488 14.8333 99.4571 14.9 99.4571 15C99.4571 15.15 99.4655 15.3 99.4821 15.45C99.5155 15.6 99.5405 15.75 99.5571 15.9C99.5905 16.0667 99.6155 16.2333 99.6321 16.4C99.6488 16.5667 99.6738 16.7417 99.7071 16.925C99.7405 17.125 99.7821 17.325 99.8321 17.525C99.8821 17.725 99.9238 17.925 99.9571 18.125C99.9738 18.1917 99.9821 18.2667 99.9821 18.35C99.9988 18.4167 100.007 18.4917 100.007 18.575C100.007 18.6583 99.9821 18.7417 99.9321 18.825C99.9155 18.8417 99.8988 18.875 99.8821 18.925C99.8821 18.9583 99.8655 18.9917 99.8321 19.025C99.8155 19.0417 99.8071 19.0583 99.8071 19.075C99.8071 19.0917 99.7988 19.1 99.7821 19.1C99.7155 19.1167 99.6571 19.1583 99.6071 19.225C99.5571 19.2917 99.4988 19.3417 99.4321 19.375C99.3655 19.4417 99.2738 19.4917 99.1571 19.525L98.9571 19.6ZM107.018 19.25C107.002 19.2333 106.977 19.225 106.943 19.225C106.777 19.125 106.61 19.0333 106.443 18.95C106.293 18.85 106.152 18.7417 106.018 18.625C105.952 18.5917 105.91 18.5583 105.893 18.525C105.743 18.4417 105.61 18.3417 105.493 18.225C105.377 18.0917 105.268 17.95 105.168 17.8C105.135 17.7667 105.102 17.725 105.068 17.675C105.035 17.625 104.993 17.575 104.943 17.525C104.777 17.3583 104.643 17.1583 104.543 16.925C104.527 16.875 104.502 16.825 104.468 16.775C104.435 16.725 104.402 16.675 104.368 16.625C104.268 16.4917 104.193 16.3667 104.143 16.25C104.11 16.1167 104.06 15.9917 103.993 15.875C103.927 15.7417 103.86 15.6167 103.793 15.5C103.777 15.4333 103.752 15.3667 103.718 15.3C103.685 15.2333 103.66 15.1667 103.643 15.1C103.643 15.0167 103.618 14.925 103.568 14.825C103.502 14.6417 103.435 14.4583 103.368 14.275C103.318 14.075 103.268 13.875 103.218 13.675C103.185 13.6083 103.168 13.5583 103.168 13.525C103.068 13.3083 102.993 13.0833 102.943 12.85C102.893 12.6167 102.843 12.3917 102.793 12.175L102.643 11.05C102.627 11.0167 102.618 10.975 102.618 10.925C102.618 10.875 102.618 10.8333 102.618 10.8C102.618 10.7 102.618 10.6083 102.618 10.525C102.618 10.425 102.602 10.325 102.568 10.225C102.535 10.0083 102.543 9.80833 102.593 9.625C102.593 9.55833 102.593 9.5 102.593 9.45C102.61 9.38333 102.618 9.31667 102.618 9.25C102.618 9.16667 102.618 9.08333 102.618 9C102.635 8.9 102.652 8.81667 102.668 8.75C102.685 8.7 102.693 8.63333 102.693 8.55C102.727 8.4 102.743 8.25833 102.743 8.125C102.76 7.975 102.777 7.83333 102.793 7.7C102.843 7.46667 102.868 7.24167 102.868 7.025C102.868 6.95833 102.868 6.9 102.868 6.85C102.885 6.78333 102.902 6.71667 102.918 6.65C102.918 6.5 102.91 6.39167 102.893 6.325C102.843 6.25833 102.835 6.16667 102.868 6.05C102.902 5.98333 102.918 5.93333 102.918 5.9C102.935 5.86667 102.943 5.83333 102.943 5.8C102.943 5.75 102.968 5.71667 103.018 5.7H103.193C103.26 5.7 103.302 5.675 103.318 5.625C103.335 5.55833 103.393 5.50833 103.493 5.475C103.577 5.44167 103.652 5.41667 103.718 5.4C103.785 5.36667 103.852 5.325 103.918 5.275C103.968 5.24167 104.027 5.225 104.093 5.225C104.16 5.225 104.227 5.23333 104.293 5.25L104.743 5.4C104.76 5.41667 104.768 5.425 104.768 5.425C104.785 5.425 104.802 5.43333 104.818 5.45C104.952 5.58333 105.06 5.73333 105.143 5.9C105.243 6.06667 105.302 6.25 105.318 6.45C105.318 6.51667 105.318 6.58333 105.318 6.65C105.318 6.7 105.302 6.75833 105.268 6.825C105.252 6.925 105.235 7.025 105.218 7.125C105.202 7.225 105.185 7.33333 105.168 7.45C105.135 7.61667 105.11 7.78333 105.093 7.95C105.093 8.1 105.093 8.25833 105.093 8.425C105.077 8.49167 105.068 8.55833 105.068 8.625C105.068 8.675 105.06 8.73333 105.043 8.8C105.027 9 105.018 9.2 105.018 9.4C105.018 9.6 105.035 9.79167 105.068 9.975C105.068 9.99167 105.068 10.0167 105.068 10.05C105.085 10.0833 105.085 10.1167 105.068 10.15C105.068 10.3167 105.085 10.4917 105.118 10.675C105.152 10.8583 105.177 11.0417 105.193 11.225C105.21 11.3917 105.227 11.55 105.243 11.7C105.26 11.85 105.285 12 105.318 12.15C105.352 12.2167 105.368 12.2833 105.368 12.35C105.385 12.4167 105.402 12.4833 105.418 12.55C105.485 12.8667 105.56 13.175 105.643 13.475C105.727 13.775 105.835 14.075 105.968 14.375C106.052 14.5583 106.135 14.7167 106.218 14.85C106.352 15.0833 106.468 15.3167 106.568 15.55C106.635 15.6667 106.702 15.7833 106.768 15.9C106.835 16 106.902 16.1083 106.968 16.225C107.035 16.3083 107.102 16.3833 107.168 16.45C107.235 16.5167 107.302 16.5917 107.368 16.675C107.452 16.7583 107.56 16.7833 107.693 16.75C107.777 16.7167 107.835 16.6833 107.868 16.65C107.952 16.6 108.027 16.55 108.093 16.5C108.177 16.45 108.252 16.3917 108.318 16.325C108.502 16.1417 108.668 15.9583 108.818 15.775C108.985 15.5917 109.127 15.3917 109.243 15.175C109.343 14.9917 109.443 14.8 109.543 14.6C109.643 14.4 109.735 14.2 109.818 14C109.918 13.7667 110.01 13.5333 110.093 13.3C110.193 13.0667 110.285 12.825 110.368 12.575C110.435 12.4083 110.485 12.2417 110.518 12.075C110.568 11.8917 110.602 11.7167 110.618 11.55C110.652 11.3667 110.677 11.1833 110.693 11C110.727 10.8 110.735 10.6083 110.718 10.425C110.718 10.375 110.718 10.325 110.718 10.275C110.735 10.225 110.743 10.175 110.743 10.125C110.777 10.0083 110.785 9.9 110.768 9.8C110.768 9.7 110.76 9.6 110.743 9.5C110.727 9.21667 110.702 8.95 110.668 8.7C110.652 8.43333 110.635 8.16667 110.618 7.9C110.618 7.76667 110.61 7.675 110.593 7.625C110.577 7.475 110.56 7.325 110.543 7.175C110.543 7.025 110.527 6.875 110.493 6.725V6.525C110.493 6.35833 110.485 6.2 110.468 6.05C110.468 5.88333 110.468 5.71667 110.468 5.55C110.468 5.41667 110.46 5.3 110.443 5.2C110.443 5.08333 110.443 4.96667 110.443 4.85C110.443 4.7 110.468 4.575 110.518 4.475C110.568 4.39167 110.585 4.325 110.568 4.275C110.518 4.175 110.543 4.1 110.643 4.05C110.727 3.96667 110.81 3.9 110.893 3.85C110.993 3.8 111.102 3.76667 111.218 3.75C111.252 3.73333 111.277 3.725 111.293 3.725C111.327 3.725 111.352 3.71667 111.368 3.7C111.468 3.61667 111.602 3.59167 111.768 3.625C111.802 3.64167 111.852 3.65 111.918 3.65C112.068 3.68333 112.177 3.74167 112.243 3.825C112.293 3.875 112.368 3.93333 112.468 4C112.602 4.06667 112.693 4.15 112.743 4.25C112.793 4.35 112.827 4.45833 112.843 4.575C112.877 4.74167 112.902 4.9 112.918 5.05C112.952 5.2 112.96 5.35833 112.943 5.525V5.75C112.943 5.91667 112.943 6.08333 112.943 6.25C112.96 6.4 112.977 6.55833 112.993 6.725C113.01 6.775 113.018 6.83333 113.018 6.9C113.018 6.95 113.018 7 113.018 7.05C113.018 7.15 113.018 7.25 113.018 7.35C113.035 7.43333 113.052 7.525 113.068 7.625C113.085 7.65833 113.093 7.70833 113.093 7.775C113.077 7.94167 113.077 8.10833 113.093 8.275C113.127 8.425 113.152 8.58333 113.168 8.75C113.185 8.91667 113.193 9.09167 113.193 9.275C113.21 9.45833 113.218 9.64167 113.218 9.825C113.235 9.84167 113.235 9.86667 113.218 9.9C113.218 9.93333 113.218 9.96667 113.218 10C113.168 10.15 113.16 10.325 113.193 10.525C113.227 10.7417 113.218 10.95 113.168 11.15C113.152 11.3 113.135 11.45 113.118 11.6C113.102 11.75 113.077 11.9083 113.043 12.075C113.01 12.3417 112.952 12.6083 112.868 12.875C112.785 13.1417 112.702 13.4083 112.618 13.675C112.618 13.7083 112.593 13.7667 112.543 13.85C112.477 13.9667 112.418 14.0917 112.368 14.225C112.318 14.3417 112.277 14.4667 112.243 14.6L112.168 14.775C112.085 14.9417 112.01 15.1083 111.943 15.275C111.893 15.425 111.827 15.5833 111.743 15.75C111.693 15.85 111.643 15.95 111.593 16.05C111.543 16.15 111.485 16.2417 111.418 16.325C111.402 16.3583 111.377 16.3917 111.343 16.425C111.31 16.5417 111.26 16.65 111.193 16.75C111.127 16.85 111.06 16.95 110.993 17.05C110.81 17.3333 110.593 17.6 110.343 17.85C110.11 18.1 109.852 18.3333 109.568 18.55L109.268 18.725C109.035 18.8417 108.785 18.9417 108.518 19.025C108.268 19.1083 108.01 19.1667 107.743 19.2C107.66 19.2167 107.568 19.2167 107.468 19.2C107.418 19.2 107.368 19.2 107.318 19.2C107.268 19.2 107.218 19.2167 107.168 19.25H107.018Z" fill="#353535"/>
</svg>
