<svg width="229" height="25" viewBox="0 0 229 25" fill="none" xmlns="http://www.w3.org/2000/svg">
<path d="M1.77594 24.4C1.55594 24.36 1.40594 24.26 1.32594 24.1C1.26594 23.98 1.21594 23.85 1.17594 23.71C1.15594 23.59 1.13594 23.47 1.11594 23.35C1.09594 23.19 1.07594 23.02 1.05594 22.84C1.03594 22.68 1.01594 22.52 0.995938 22.36C0.975938 22.16 0.945938 21.97 0.905938 21.79C0.865938 21.61 0.805938 21.42 0.725938 21.22C0.705938 21.16 0.685938 21.11 0.665938 21.07C0.645938 21.01 0.615938 20.95 0.575938 20.89L0.215938 20.14C0.115938 19.94 0.0659375 19.74 0.0659375 19.54C0.0459376 19.28 0.0359376 19.03 0.0359376 18.79C0.0359376 18.55 0.0459376 18.31 0.0659375 18.07C0.0659375 17.99 0.0859375 17.89 0.125938 17.77C0.165938 17.57 0.205938 17.38 0.245938 17.2C0.305938 17 0.345938 16.81 0.365938 16.63C0.405938 16.39 0.445938 16.16 0.485938 15.94C0.525938 15.7 0.555938 15.47 0.575938 15.25C0.615938 15.03 0.645938 14.81 0.665938 14.59C0.685938 14.37 0.705938 14.15 0.725938 13.93C0.745938 13.77 0.765938 13.62 0.785938 13.48C0.805938 13.32 0.825938 13.17 0.845938 13.03C0.865938 12.97 0.875938 12.88 0.875938 12.76C0.875938 12.66 0.885938 12.56 0.905938 12.46C0.925938 12.34 0.945938 12.23 0.965938 12.13C1.00594 11.97 1.02594 11.81 1.02594 11.65C1.04594 11.47 1.06594 11.3 1.08594 11.14C1.10594 11.08 1.11594 11 1.11594 10.9C1.17594 10.68 1.21594 10.45 1.23594 10.21C1.27594 9.97 1.30594 9.73 1.32594 9.49L1.41594 8.98C1.45594 8.76 1.48594 8.54 1.50594 8.32C1.52594 8.08 1.54594 7.85 1.56594 7.63C1.60594 7.41 1.62594 7.19 1.62594 6.97C1.62594 6.73 1.62594 6.5 1.62594 6.28C1.62594 6.16 1.62594 6.05 1.62594 5.95C1.64594 5.83 1.66594 5.71 1.68594 5.59C1.72594 5.07 1.68594 4.57 1.56594 4.09C1.54594 4.07 1.53594 4.05 1.53594 4.03C1.45594 3.77 1.44594 3.53 1.50594 3.31C1.56594 3.09 1.66594 2.88 1.80594 2.68C2.04594 2.28 2.38594 2.04 2.82594 1.96C2.90594 1.94 2.97594 1.93 3.03594 1.93C3.09594 1.91 3.16594 1.91 3.24594 1.93C3.32594 1.97 3.39594 1.99 3.45594 1.99C3.63594 2.01 3.80594 2.09 3.96594 2.23L4.23594 2.59C4.37594 2.83 4.50594 3.01 4.62594 3.13C4.94594 3.53 5.22594 3.96 5.46594 4.42C5.60594 4.68 5.72594 4.94 5.82594 5.2C5.94594 5.44 6.06594 5.68 6.18594 5.92C6.24594 6.06 6.29594 6.19 6.33594 6.31C6.39594 6.43 6.45594 6.55 6.51594 6.67C6.55594 6.73 6.61594 6.8 6.69594 6.88C6.77594 7 6.81594 7.09 6.81594 7.15C6.85594 7.23 6.84594 7.3 6.78594 7.36C6.76594 7.38 6.76594 7.41 6.78594 7.45C6.80594 7.49 6.82594 7.53 6.84594 7.57C6.86594 7.59 6.90594 7.71 6.96594 7.93C7.02594 8.13 7.04594 8.2 7.02594 8.14C7.06594 8.24 7.12594 8.29 7.20594 8.29C7.26594 8.31 7.30594 8.35 7.32594 8.41C7.34594 8.45 7.31594 8.5 7.23594 8.56C7.17594 8.58 7.17594 8.66 7.23594 8.8C7.29594 8.92 7.33594 9 7.35594 9.04C7.43594 9.24 7.50594 9.44 7.56594 9.64C7.62594 9.82 7.69594 10.01 7.77594 10.21C7.87594 10.47 7.96594 10.74 8.04594 11.02C8.12594 11.3 8.20594 11.58 8.28594 11.86C8.34594 12.06 8.40594 12.26 8.46594 12.46C8.54594 12.64 8.61594 12.82 8.67594 13C8.67594 13.04 8.69594 13.06 8.73594 13.06L8.79594 13C8.79594 12.96 8.81594 12.9 8.85594 12.82C8.89594 12.6 8.94594 12.38 9.00594 12.16C9.06594 11.92 9.12594 11.69 9.18594 11.47C9.28594 11.17 9.36594 10.87 9.42594 10.57C9.50594 10.27 9.58594 9.97 9.66594 9.67C9.70594 9.49 9.75594 9.31 9.81594 9.13C9.87594 8.93 9.91594 8.74 9.93594 8.56C10.0159 8.22 10.0959 7.89 10.1759 7.57C10.2559 7.25 10.3259 6.93 10.3859 6.61C10.4059 6.57 10.4159 6.53 10.4159 6.49C10.4359 6.45 10.4459 6.41 10.4459 6.37C10.4659 6.17 10.5259 5.98 10.6259 5.8C10.8259 5.38 11.1559 5.11 11.6159 4.99C11.8359 4.93 12.0559 4.93 12.2759 4.99C12.4559 5.03 12.5859 5.1 12.6659 5.2C12.8059 5.34 12.9359 5.48 13.0559 5.62C13.1959 5.76 13.3159 5.91 13.4159 6.07C13.4959 6.19 13.5759 6.31 13.6559 6.43C13.7359 6.53 13.8159 6.64 13.8959 6.76C13.9559 6.84 14.0159 6.93 14.0759 7.03C14.1359 7.11 14.1859 7.2 14.2259 7.3C14.3859 7.58 14.5359 7.87 14.6759 8.17C14.8159 8.47 14.9359 8.78 15.0359 9.1C15.0359 9.14 15.0459 9.17 15.0659 9.19C15.1659 9.39 15.2459 9.6 15.3059 9.82C15.3659 10.02 15.4259 10.23 15.4859 10.45C15.5659 10.67 15.6259 10.89 15.6659 11.11C15.7259 11.33 15.7859 11.55 15.8459 11.77C15.8459 11.85 15.8559 11.91 15.8759 11.95C15.9359 12.11 15.9859 12.28 16.0259 12.46C16.0659 12.64 16.1059 12.81 16.1459 12.97C16.1859 13.21 16.2259 13.45 16.2659 13.69C16.3059 13.93 16.3459 14.16 16.3859 14.38C16.4259 14.68 16.4659 14.98 16.5059 15.28C16.5459 15.58 16.5959 15.88 16.6559 16.18C16.6959 16.38 16.7259 16.59 16.7459 16.81C16.7859 17.03 16.8159 17.25 16.8359 17.47C16.8359 17.53 16.8559 17.62 16.8959 17.74L16.9859 18.46C16.9859 18.56 16.9959 18.63 17.0159 18.67C17.1159 19.05 17.1759 19.44 17.1959 19.84C17.2159 19.86 17.2259 19.89 17.2259 19.93C17.2259 19.95 17.2359 19.98 17.2559 20.02L17.4659 21.22C17.5059 21.36 17.5059 21.51 17.4659 21.67L17.4059 21.91C17.4059 22.07 17.3759 22.22 17.3159 22.36C17.2559 22.5 17.1859 22.64 17.1059 22.78C17.0459 22.86 16.9759 22.94 16.8959 23.02C16.8159 23.12 16.7259 23.2 16.6259 23.26C16.4059 23.42 16.1859 23.43 15.9659 23.29C15.5059 22.99 15.1659 22.62 14.9459 22.18C14.9259 22.1 14.8959 22.03 14.8559 21.97C14.8359 21.89 14.8259 21.81 14.8259 21.73L14.7359 21.16C14.7159 21.06 14.6959 20.96 14.6759 20.86C14.6759 20.74 14.6659 20.63 14.6459 20.53L14.3459 18.79C14.3259 18.65 14.3059 18.52 14.2859 18.4C14.2659 18.28 14.2459 18.15 14.2259 18.01L14.1059 17.35C14.0659 17.13 14.0259 16.91 13.9859 16.69C13.9459 16.45 13.9059 16.22 13.8659 16L13.5659 14.08C13.5459 13.8 13.4959 13.53 13.4159 13.27C13.3559 12.99 13.2959 12.72 13.2359 12.46C13.1559 12.14 13.0659 11.84 12.9659 11.56C12.8659 11.26 12.7559 10.97 12.6359 10.69L12.5459 10.42C12.5259 10.36 12.4959 10.3 12.4559 10.24C12.4159 10.18 12.3759 10.13 12.3359 10.09C12.2759 10.09 12.2459 10.1 12.2459 10.12L12.1559 10.42C12.0759 10.68 12.0059 10.96 11.9459 11.26C11.8859 11.54 11.8159 11.82 11.7359 12.1C11.6959 12.26 11.6559 12.42 11.6159 12.58C11.5759 12.74 11.5359 12.9 11.4959 13.06C11.4559 13.2 11.4159 13.35 11.3759 13.51C11.3559 13.65 11.3259 13.8 11.2859 13.96C11.2459 14.2 11.1959 14.44 11.1359 14.68C11.0759 14.92 11.0259 15.16 10.9859 15.4C10.9659 15.58 10.9359 15.76 10.8959 15.94C10.8759 16.12 10.8559 16.3 10.8359 16.48V16.66C10.8759 16.82 10.8359 16.96 10.7159 17.08C10.6959 17.14 10.6659 17.2 10.6259 17.26C10.6059 17.3 10.5859 17.35 10.5659 17.41C10.5259 17.59 10.4759 17.72 10.4159 17.8L10.3259 18.01C10.3059 18.03 10.2859 18.07 10.2659 18.13C10.2659 18.17 10.2459 18.21 10.2059 18.25C10.0659 18.49 9.88594 18.65 9.66594 18.73C9.58594 18.77 9.50594 18.81 9.42594 18.85C9.36594 18.89 9.29594 18.93 9.21594 18.97C9.01594 19.07 8.80594 19.06 8.58594 18.94C8.28594 18.74 8.05594 18.52 7.89594 18.28L7.35594 17.5C7.35594 17.48 7.34594 17.47 7.32594 17.47C7.32594 17.45 7.32594 17.44 7.32594 17.44C7.24594 17.22 7.15594 17.02 7.05594 16.84C6.95594 16.66 6.87594 16.47 6.81594 16.27L6.45594 15.22C6.35594 14.96 6.26594 14.7 6.18594 14.44C6.10594 14.18 6.01594 13.92 5.91594 13.66L5.82594 13.42C5.78594 13.24 5.73594 13.06 5.67594 12.88C5.63594 12.7 5.58594 12.53 5.52594 12.37C5.48594 12.19 5.43594 12.02 5.37594 11.86C5.31594 11.68 5.26594 11.51 5.22594 11.35C5.14594 11.13 5.06594 10.91 4.98594 10.69C4.92594 10.45 4.84594 10.22 4.74594 10C4.70594 9.86 4.64594 9.75 4.56594 9.67C4.40594 9.51 4.29594 9.32 4.23594 9.1C4.23594 9.06 4.21594 9.04 4.17594 9.04L4.11594 9.1V9.13C4.09594 9.15 4.08594 9.18 4.08594 9.22C4.06594 9.42 4.04594 9.63 4.02594 9.85C4.00594 10.07 3.97594 10.29 3.93594 10.51L3.84594 11.5C3.82594 11.66 3.80594 11.82 3.78594 11.98C3.78594 12.14 3.77594 12.3 3.75594 12.46C3.73594 12.54 3.71594 12.62 3.69594 12.7C3.69594 12.78 3.69594 12.87 3.69594 12.97C3.67594 13.47 3.61594 14 3.51594 14.56C3.49594 14.7 3.47594 14.86 3.45594 15.04C3.43594 15.2 3.41594 15.36 3.39594 15.52L3.30594 16.18C3.24594 16.54 3.21594 16.89 3.21594 17.23C3.21594 17.37 3.21594 17.51 3.21594 17.65C3.23594 17.79 3.22594 17.93 3.18594 18.07C3.16594 18.25 3.18594 18.46 3.24594 18.7C3.32594 18.84 3.35594 18.98 3.33594 19.12C3.33594 19.26 3.31594 19.41 3.27594 19.57C3.25594 19.69 3.21594 19.81 3.15594 19.93C3.11594 20.05 3.04594 20.16 2.94594 20.26C2.90594 20.32 2.85594 20.39 2.79594 20.47C2.75594 20.55 2.70594 20.62 2.64594 20.68C2.48594 20.88 2.40594 21.1 2.40594 21.34V22C2.40594 22.16 2.39594 22.31 2.37594 22.45C2.37594 22.61 2.38594 22.77 2.40594 22.93C2.40594 22.95 2.39594 22.97 2.37594 22.99C2.37594 23.01 2.37594 23.04 2.37594 23.08C2.35594 23.14 2.34594 23.2 2.34594 23.26C2.34594 23.32 2.34594 23.38 2.34594 23.44C2.36594 23.62 2.34594 23.81 2.28594 24.01C2.18594 24.19 2.05594 24.31 1.89594 24.37C1.85594 24.39 1.81594 24.4 1.77594 24.4ZM22.8266 22.3C22.7066 22.3 22.6266 22.29 22.5866 22.27C22.5066 22.23 22.4366 22.2 22.3766 22.18C22.3166 22.16 22.2566 22.14 22.1966 22.12C22.1366 22.08 22.0766 22.04 22.0166 22C21.9766 21.94 21.9366 21.88 21.8966 21.82C21.8566 21.78 21.8166 21.76 21.7766 21.76C21.6566 21.76 21.5966 21.7 21.5966 21.58C21.5766 21.46 21.5566 21.34 21.5366 21.22C21.5166 21.1 21.4966 20.98 21.4766 20.86C21.4566 20.68 21.4366 20.5 21.4166 20.32C21.4166 20.14 21.3966 19.97 21.3566 19.81V19.54C21.3566 19.46 21.3466 19.39 21.3266 19.33C21.3266 19.27 21.3266 19.2 21.3266 19.12C21.2866 19.02 21.2866 18.94 21.3266 18.88C21.3666 18.52 21.3666 18.16 21.3266 17.8C21.3066 17.7 21.2966 17.6 21.2966 17.5C21.2966 17.4 21.2866 17.3 21.2666 17.2C21.2666 17 21.2666 16.8 21.2666 16.6C21.2666 16.38 21.2466 16.17 21.2066 15.97V15.49C21.2066 15.33 21.1966 15.18 21.1766 15.04C21.1766 14.9 21.1666 14.76 21.1466 14.62C21.1266 14.44 21.1066 14.26 21.0866 14.08C21.0866 13.9 21.0766 13.72 21.0566 13.54C21.0366 13.5 21.0266 13.43 21.0266 13.33C21.0066 13.23 20.9866 13.13 20.9666 13.03C20.9666 12.91 20.9666 12.8 20.9666 12.7L20.8766 11.2C20.8566 11.04 20.8366 10.89 20.8166 10.75C20.8166 10.59 20.8166 10.44 20.8166 10.3C20.7966 10.06 20.7766 9.82 20.7566 9.58C20.7366 9.34 20.7166 9.11 20.6966 8.89C20.6966 8.85 20.6866 8.81 20.6666 8.77C20.6666 8.73 20.6666 8.7 20.6666 8.68C20.6666 8.44 20.6566 8.2 20.6366 7.96C20.6166 7.72 20.5966 7.47 20.5766 7.21L20.4866 6.37C20.4266 6.05 20.4166 5.7 20.4566 5.32C20.4566 5.14 20.5266 4.99 20.6666 4.87C20.7066 4.83 20.7366 4.81 20.7566 4.81C20.7766 4.79 20.7966 4.77 20.8166 4.75C20.9166 4.73 20.9666 4.66 20.9666 4.54C20.9666 4.5 21.0066 4.48 21.0866 4.48H21.2366C21.2566 4.48 21.2666 4.48 21.2666 4.48C21.2866 4.46 21.3066 4.45 21.3266 4.45C21.3666 4.43 21.3966 4.41 21.4166 4.39C21.4566 4.35 21.4866 4.33 21.5066 4.33C21.5466 4.33 21.5866 4.34 21.6266 4.36C21.6666 4.36 21.7066 4.37 21.7466 4.39C21.7866 4.39 21.8166 4.38 21.8366 4.36C21.9366 4.34 22.0366 4.35 22.1366 4.39C22.2566 4.41 22.3566 4.44 22.4366 4.48C22.5566 4.5 22.6466 4.58 22.7066 4.72C22.7666 4.9 22.8166 5.08 22.8566 5.26C22.9166 5.42 22.9566 5.59 22.9766 5.77V6.01C23.0166 6.15 23.0366 6.3 23.0366 6.46C23.0366 6.6 23.0366 6.75 23.0366 6.91C23.0366 7.05 23.0366 7.19 23.0366 7.33C23.0566 7.45 23.0766 7.57 23.0966 7.69C23.0966 7.75 23.0966 7.81 23.0966 7.87C23.0966 7.93 23.1066 7.99 23.1266 8.05C23.1266 8.17 23.1266 8.29 23.1266 8.41C23.1466 8.53 23.1666 8.66 23.1866 8.8C23.2066 9.02 23.2266 9.25 23.2466 9.49C23.2666 9.73 23.2766 9.97 23.2766 10.21C23.2766 10.31 23.2766 10.42 23.2766 10.54C23.2766 10.64 23.2866 10.74 23.3066 10.84C23.3266 10.9 23.3366 10.96 23.3366 11.02C23.3366 11.08 23.3366 11.14 23.3366 11.2V11.8C23.3366 11.92 23.3466 12.02 23.3666 12.1C23.4066 12.24 23.4166 12.38 23.3966 12.52C23.3966 12.64 23.4066 12.77 23.4266 12.91L23.5166 14.29C23.5366 14.49 23.5466 14.7 23.5466 14.92C23.5666 15.12 23.5766 15.33 23.5766 15.55C23.5766 15.63 23.5766 15.72 23.5766 15.82C23.5766 15.9 23.5866 15.98 23.6066 16.06C23.6266 16.12 23.6366 16.18 23.6366 16.24C23.6366 16.3 23.6366 16.36 23.6366 16.42C23.6566 16.44 23.6566 16.48 23.6366 16.54C23.6366 16.58 23.6466 16.62 23.6666 16.66C23.7066 16.8 23.7266 16.94 23.7266 17.08C23.7266 17.22 23.7266 17.37 23.7266 17.53C23.7266 17.61 23.7266 17.7 23.7266 17.8C23.7466 17.88 23.7566 17.97 23.7566 18.07C23.7766 18.17 23.7866 18.28 23.7866 18.4C23.7866 18.52 23.7866 18.63 23.7866 18.73C23.8066 18.83 23.8166 18.94 23.8166 19.06C23.8166 19.16 23.8266 19.26 23.8466 19.36C23.8666 19.4 23.8766 19.44 23.8766 19.48C23.8766 19.7 23.8966 19.92 23.9366 20.14C23.9766 20.36 24.0166 20.58 24.0566 20.8C24.0766 20.86 24.0866 20.93 24.0866 21.01C24.0866 21.07 24.0866 21.13 24.0866 21.19C24.0866 21.25 24.0666 21.3 24.0266 21.34C23.9466 21.4 23.8866 21.52 23.8466 21.7C23.8466 21.76 23.8166 21.81 23.7566 21.85C23.6166 21.91 23.4966 21.99 23.3966 22.09C23.2366 22.23 23.0466 22.3 22.8266 22.3ZM29.855 22.09C29.695 22.15 29.515 22.13 29.315 22.03L28.715 21.76C28.615 21.72 28.535 21.63 28.475 21.49L28.385 21.31C28.345 21.21 28.295 21.14 28.235 21.1C28.135 21.02 28.065 20.88 28.025 20.68C27.985 20.48 27.955 20.28 27.935 20.08C27.915 19.88 27.895 19.68 27.875 19.48C27.855 19.32 27.845 19.16 27.845 19C27.845 18.84 27.845 18.69 27.845 18.55L27.875 18.34C27.915 18.24 27.935 18.14 27.935 18.04C27.935 17.94 27.935 17.85 27.935 17.77V12.31C27.975 12.03 27.995 11.75 27.995 11.47C27.995 11.17 27.995 10.88 27.995 10.6C28.015 10.32 28.025 10.05 28.025 9.79C28.025 9.51 28.005 9.24 27.965 8.98C27.945 8.88 27.935 8.77 27.935 8.65C27.935 8.53 27.935 8.41 27.935 8.29C27.935 8.11 27.935 7.93 27.935 7.75C27.935 7.57 27.915 7.39 27.875 7.21V7.12C27.875 6.84 27.855 6.57 27.815 6.31C27.795 6.03 27.775 5.76 27.755 5.5C27.735 5.34 27.715 5.19 27.695 5.05C27.675 4.91 27.645 4.77 27.605 4.63C27.585 4.55 27.575 4.47 27.575 4.39C27.575 4.31 27.575 4.23 27.575 4.15C27.575 4.01 27.595 3.88 27.635 3.76C27.675 3.62 27.715 3.49 27.755 3.37C27.775 3.33 27.825 3.27 27.905 3.19C27.945 3.15 27.985 3.12 28.025 3.1C28.065 3.08 28.095 3.06 28.115 3.04C28.235 2.88 28.395 2.81 28.595 2.83C28.635 2.85 28.695 2.84 28.775 2.8C28.875 2.72 28.965 2.71 29.045 2.77C29.105 2.81 29.205 2.81 29.345 2.77C29.405 2.77 29.455 2.79 29.495 2.83C29.555 2.91 29.635 2.97 29.735 3.01C29.835 3.05 29.905 3.11 29.945 3.19C30.005 3.25 30.065 3.31 30.125 3.37C30.165 3.43 30.205 3.49 30.245 3.55C30.305 3.59 30.335 3.65 30.335 3.73C30.355 3.81 30.355 3.89 30.335 3.97C30.335 4.03 30.335 4.1 30.335 4.18C30.335 4.36 30.345 4.55 30.365 4.75C30.405 4.93 30.435 5.11 30.455 5.29C30.495 5.49 30.525 5.7 30.545 5.92C30.565 6.12 30.585 6.33 30.605 6.55V6.85C30.645 6.99 30.665 7.13 30.665 7.27C30.665 7.41 30.675 7.55 30.695 7.69V7.72C30.715 7.96 30.735 8.2 30.755 8.44C30.775 8.68 30.795 8.92 30.815 9.16C30.835 9.26 30.845 9.37 30.845 9.49C30.845 9.59 30.845 9.69 30.845 9.79V17.77C30.845 17.95 30.855 18.13 30.875 18.31C30.915 18.49 30.945 18.66 30.965 18.82C30.965 18.92 31.025 18.97 31.145 18.97C31.325 19.01 31.495 19.01 31.655 18.97C31.875 18.93 32.085 18.91 32.285 18.91C32.505 18.91 32.725 18.91 32.945 18.91C33.165 18.91 33.375 18.91 33.575 18.91C33.795 18.89 34.005 18.87 34.205 18.85H34.535C34.695 18.87 34.835 18.89 34.955 18.91C35.095 18.91 35.235 18.91 35.375 18.91C35.595 18.91 35.815 18.92 36.035 18.94C36.275 18.94 36.505 18.95 36.725 18.97C36.885 18.99 37.045 19 37.205 19C37.385 19 37.565 19 37.745 19H37.895C38.295 18.98 38.655 19.08 38.975 19.3C39.115 19.36 39.215 19.46 39.275 19.6C39.315 19.68 39.345 19.76 39.365 19.84C39.405 19.9 39.435 19.98 39.455 20.08C39.475 20.16 39.485 20.24 39.485 20.32C39.505 20.38 39.525 20.45 39.545 20.53C39.605 20.71 39.585 20.91 39.485 21.13C39.465 21.19 39.445 21.25 39.425 21.31C39.405 21.37 39.375 21.43 39.335 21.49C39.295 21.55 39.245 21.6 39.185 21.64C39.185 21.64 39.145 21.66 39.065 21.7C38.905 21.84 38.725 21.93 38.525 21.97C38.345 22.01 38.145 22.05 37.925 22.09L37.625 22.06C37.325 21.96 37.025 21.9 36.725 21.88C36.645 21.86 36.555 21.85 36.455 21.85C36.355 21.83 36.255 21.82 36.155 21.82C36.015 21.82 35.875 21.82 35.735 21.82C35.595 21.8 35.445 21.78 35.285 21.76L34.985 21.73C34.805 21.75 34.625 21.76 34.445 21.76C34.265 21.74 34.085 21.74 33.905 21.76C33.825 21.76 33.745 21.76 33.665 21.76C33.585 21.74 33.505 21.73 33.425 21.73C33.265 21.73 33.105 21.73 32.945 21.73C32.805 21.73 32.655 21.75 32.495 21.79C32.415 21.81 32.315 21.83 32.195 21.85C32.095 21.85 31.995 21.85 31.895 21.85C31.595 21.87 31.295 21.9 30.995 21.94C30.695 21.96 30.405 22 30.125 22.06C30.065 22.08 29.975 22.09 29.855 22.09ZM57.4808 22.21C57.3608 22.21 57.2808 22.2 57.2408 22.18C57.1408 22.14 57.0408 22.12 56.9408 22.12C56.8608 22.14 56.7708 22.15 56.6708 22.15C56.6508 22.15 56.6308 22.15 56.6108 22.15C56.5908 22.17 56.5708 22.18 56.5508 22.18C56.4108 22.2 56.2708 22.21 56.1308 22.21C56.0108 22.21 55.8908 22.19 55.7708 22.15C55.7508 22.13 55.7308 22.12 55.7108 22.12C55.5708 22.14 55.4508 22.1 55.3508 22C55.2508 21.9 55.1508 21.81 55.0508 21.73C54.9508 21.63 54.9008 21.52 54.9008 21.4L54.8108 21.16C54.7508 21.02 54.7308 20.89 54.7508 20.77C54.7708 20.73 54.7708 20.69 54.7508 20.65C54.7508 20.61 54.7508 20.57 54.7508 20.53C54.7308 20.49 54.7208 20.45 54.7208 20.41C54.7208 20.35 54.7108 20.3 54.6908 20.26C54.6508 20.08 54.6208 19.9 54.6008 19.72C54.6008 19.52 54.6108 19.33 54.6308 19.15C54.6508 19.03 54.7208 18.83 54.8408 18.55C54.9608 18.25 55.0308 18.07 55.0508 18.01C55.1108 17.91 55.1408 17.83 55.1408 17.77C55.1208 17.55 55.1108 17.33 55.1108 17.11C55.1308 16.87 55.1408 16.64 55.1408 16.42C55.1408 16.28 55.1708 16.17 55.2308 16.09C55.3108 15.95 55.3208 15.8 55.2608 15.64L55.1708 15.31C55.0508 15.09 55.0608 14.9 55.2008 14.74C55.2008 14.72 55.2008 14.71 55.2008 14.71C55.2208 14.69 55.2308 14.67 55.2308 14.65C55.2708 14.61 55.2808 14.56 55.2608 14.5C55.2408 14.42 55.2308 14.36 55.2308 14.32C55.2308 14.24 55.2408 14.16 55.2608 14.08C55.3008 13.98 55.3108 13.89 55.2908 13.81C55.2908 13.81 55.2708 13.79 55.2308 13.75C55.2108 13.71 55.2008 13.63 55.2008 13.51C55.2208 13.39 55.2308 13.32 55.2308 13.3V12.46C55.2508 12.36 55.2608 12.27 55.2608 12.19C55.2608 12.09 55.2708 11.99 55.2908 11.89C55.3108 11.77 55.3108 11.65 55.2908 11.53C55.2908 11.39 55.2908 11.25 55.2908 11.11C55.2708 11.01 55.2508 10.9 55.2308 10.78C55.2308 10.66 55.2308 10.54 55.2308 10.42C55.2108 10.38 55.2008 10.33 55.2008 10.27C55.2008 10.21 55.2008 10.16 55.2008 10.12C55.1808 10.02 55.1608 9.92 55.1408 9.82C55.1408 9.72 55.1408 9.62 55.1408 9.52C55.1408 9.48 55.1008 9.35 55.0208 9.13C54.9408 8.89 54.9108 8.69 54.9308 8.53C54.9508 8.49 54.9608 8.44 54.9608 8.38C54.9608 8.32 54.9408 8.27 54.9008 8.23C54.8608 8.21 54.8408 8.17 54.8408 8.11V8.02C54.9008 7.78 54.8708 7.54 54.7508 7.3C54.6708 7.18 54.6408 7.06 54.6608 6.94C54.6608 6.78 54.5908 6.66 54.4508 6.58C54.3508 6.48 54.2608 6.36 54.1808 6.22C54.1008 6.08 54.0508 5.94 54.0308 5.8C54.0108 5.7 54.0008 5.6 54.0008 5.5C54.0008 5.4 54.0008 5.31 54.0008 5.23C54.0008 5.15 54.0108 5.1 54.0308 5.08C54.1108 5 54.1508 4.91 54.1508 4.81C54.1508 4.69 54.1608 4.6 54.1808 4.54C54.2008 4.52 54.2208 4.51 54.2408 4.51C54.2608 4.51 54.2808 4.5 54.3008 4.48C54.3808 4.46 54.4208 4.39 54.4208 4.27C54.3808 4.19 54.3608 4.12 54.3608 4.06C54.3408 3.98 54.3708 3.91 54.4508 3.85C54.4908 3.77 54.5408 3.75 54.6008 3.79C54.7408 3.85 54.9008 3.83 55.0808 3.73C55.1608 3.69 55.2108 3.67 55.2308 3.67C55.2908 3.67 55.3208 3.67 55.3208 3.67C55.3408 3.65 55.4008 3.64 55.5008 3.64C55.6208 3.66 55.7308 3.62 55.8308 3.52C55.9708 3.38 56.1408 3.31 56.3408 3.31H58.2008C58.6608 3.33 59.1208 3.33 59.5808 3.31C60.0408 3.29 60.4908 3.28 60.9308 3.28C61.0308 3.28 61.1108 3.28 61.1708 3.28C61.2508 3.26 61.3308 3.24 61.4108 3.22C61.5308 3.16 61.6708 3.13 61.8308 3.13H62.5208C62.6808 3.13 62.8208 3.13 62.9408 3.13C63.0808 3.11 63.2208 3.09 63.3608 3.07C63.4408 3.05 63.5108 3.04 63.5708 3.04C63.6508 3.04 63.7308 3.04 63.8108 3.04C63.8908 3.04 63.9708 3.04 64.0508 3.04C64.1308 3.04 64.2108 3.03 64.2908 3.01C64.4508 2.99 64.6208 2.98 64.8008 2.98C64.9808 2.96 65.1508 2.95 65.3108 2.95C65.3908 2.95 65.4608 2.95 65.5208 2.95C65.6008 2.93 65.6808 2.91 65.7608 2.89C65.9208 2.85 66.0708 2.83 66.2108 2.83C66.3708 2.81 66.5208 2.79 66.6608 2.77C66.8208 2.75 66.9708 2.73 67.1108 2.71C67.2708 2.69 67.4208 2.67 67.5608 2.65C67.7408 2.65 67.8708 2.67 67.9508 2.71C68.0708 2.79 68.1808 2.86 68.2808 2.92C68.4008 2.98 68.5108 3.06 68.6108 3.16C68.6908 3.24 68.7408 3.31 68.7608 3.37C68.7808 3.45 68.8008 3.53 68.8208 3.61C68.8408 3.69 68.8608 3.78 68.8808 3.88V4.09C68.8608 4.19 68.8408 4.3 68.8208 4.42C68.8208 4.52 68.8108 4.63 68.7908 4.75C68.7508 4.83 68.7008 4.9 68.6408 4.96L68.1008 5.5C67.9008 5.56 67.7008 5.6 67.5008 5.62C67.3208 5.64 67.1308 5.64 66.9308 5.62H66.7208C66.6208 5.64 66.5208 5.65 66.4208 5.65C66.3208 5.65 66.2208 5.64 66.1208 5.62C66.0008 5.6 65.8808 5.6 65.7608 5.62C65.6408 5.62 65.5208 5.62 65.4008 5.62C65.3208 5.62 65.2408 5.63 65.1608 5.65C65.1008 5.65 65.0308 5.64 64.9508 5.62C64.8508 5.6 64.7508 5.6 64.6508 5.62C64.5708 5.62 64.4808 5.63 64.3808 5.65C64.3008 5.65 64.2108 5.66 64.1108 5.68C64.0308 5.68 63.9408 5.68 63.8408 5.68C63.5808 5.72 63.3008 5.74 63.0008 5.74C62.7208 5.74 62.4408 5.76 62.1608 5.8C61.9808 5.78 61.8108 5.79 61.6508 5.83C61.4908 5.85 61.3208 5.87 61.1408 5.89C60.9808 5.91 60.8108 5.92 60.6308 5.92C60.4508 5.92 60.2808 5.94 60.1208 5.98C59.9208 5.98 59.7208 6.01 59.5208 6.07C59.3408 6.11 59.1508 6.14 58.9508 6.16L58.7408 6.19C58.6008 6.19 58.4708 6.21 58.3508 6.25C58.2308 6.27 58.1008 6.3 57.9608 6.34C57.8808 6.36 57.8008 6.38 57.7208 6.4C57.6408 6.4 57.5508 6.41 57.4508 6.43C57.3908 6.43 57.3208 6.45 57.2408 6.49C57.1808 6.51 57.1508 6.57 57.1508 6.67L57.2408 6.94C57.2608 6.98 57.2508 7.08 57.2108 7.24C57.1908 7.4 57.1708 7.52 57.1508 7.6C57.1508 7.66 57.1608 7.72 57.1808 7.78C57.2008 7.84 57.2208 7.9 57.2408 7.96C57.3008 8.12 57.3308 8.3 57.3308 8.5C57.3308 8.68 57.3508 8.85 57.3908 9.01C57.4108 9.09 57.4208 9.18 57.4208 9.28C57.4208 9.36 57.4308 9.45 57.4508 9.55C57.4508 9.59 57.4508 9.64 57.4508 9.7C57.4708 9.74 57.4808 9.79 57.4808 9.85C57.4808 9.91 57.4708 9.95 57.4508 9.97C57.3908 10.05 57.3608 10.14 57.3608 10.24C57.3608 10.34 57.3608 10.44 57.3608 10.54C57.4608 10.74 57.5108 10.94 57.5108 11.14C57.5108 11.34 57.5108 11.54 57.5108 11.74C57.5108 11.8 57.5608 11.82 57.6608 11.8H57.6908C57.7308 11.72 57.7708 11.66 57.8108 11.62C57.8708 11.62 57.9408 11.6 58.0208 11.56C58.0808 11.52 58.1608 11.5 58.2608 11.5C58.4208 11.52 58.5708 11.52 58.7108 11.5C58.8508 11.46 58.9908 11.42 59.1308 11.38C60.0708 11.14 60.9508 10.83 61.7708 10.45C61.9908 10.35 62.2208 10.27 62.4608 10.21C62.7008 10.13 62.9408 10.08 63.1808 10.06H63.2708C63.4508 10.04 63.6308 10.02 63.8108 10C63.9908 9.98 64.1708 9.97 64.3508 9.97C64.5908 9.95 64.8208 9.92 65.0408 9.88C65.2808 9.84 65.5208 9.81 65.7608 9.79C65.9008 9.75 66.0308 9.72 66.1508 9.7C66.2708 9.66 66.4008 9.61 66.5408 9.55C66.8008 9.45 67.0408 9.4 67.2608 9.4C67.4208 9.42 67.5708 9.46 67.7108 9.52C67.8508 9.56 67.9908 9.62 68.1308 9.7C68.4308 9.9 68.5808 10.2 68.5808 10.6C68.5808 10.76 68.5608 10.92 68.5208 11.08C68.5008 11.24 68.4908 11.4 68.4908 11.56C68.4908 11.6 68.4708 11.64 68.4308 11.68L68.3408 11.83C68.3208 11.91 68.3008 11.99 68.2808 12.07C68.2608 12.15 68.2108 12.21 68.1308 12.25C68.0108 12.35 67.8808 12.46 67.7408 12.58C67.6208 12.68 67.4808 12.75 67.3208 12.79C67.2408 12.81 67.1608 12.83 67.0808 12.85C67.0208 12.87 66.9508 12.88 66.8708 12.88C66.5508 12.88 66.2208 12.9 65.8808 12.94C65.5608 12.98 65.2308 13.02 64.8908 13.06C64.6308 13.08 64.3708 13.11 64.1108 13.15C63.8708 13.19 63.6208 13.21 63.3608 13.21C63.1208 13.21 62.8508 13.26 62.5508 13.36C62.3508 13.4 62.1408 13.44 61.9208 13.48C61.7008 13.52 61.4808 13.55 61.2608 13.57C61.1008 13.59 60.9308 13.62 60.7508 13.66C60.5908 13.68 60.4308 13.7 60.2708 13.72L59.7608 13.81C59.7208 13.83 59.6608 13.84 59.5808 13.84C59.4408 13.88 59.3008 13.91 59.1608 13.93C59.0208 13.95 58.8808 13.98 58.7408 14.02C58.6008 14.04 58.4608 14.07 58.3208 14.11C58.2008 14.15 58.0708 14.19 57.9308 14.23C57.8308 14.25 57.7508 14.29 57.6908 14.35C57.6308 14.39 57.5808 14.45 57.5408 14.53C57.5208 14.59 57.5208 14.65 57.5408 14.71C57.5608 14.79 57.5508 14.87 57.5108 14.95C57.5308 15.15 57.5408 15.35 57.5408 15.55C57.5608 15.75 57.5608 15.95 57.5408 16.15C57.5808 16.31 57.5908 16.47 57.5708 16.63C57.5708 16.79 57.5608 16.95 57.5408 17.11C57.5008 17.35 57.5108 17.55 57.5708 17.71C57.6308 17.97 57.6108 18.24 57.5108 18.52C57.4708 18.64 57.4708 18.72 57.5108 18.76C57.5508 18.82 57.5508 18.89 57.5108 18.97V19.15C57.4908 19.31 57.5608 19.39 57.7208 19.39H57.7808C57.9208 19.39 58.0608 19.44 58.2008 19.54C58.3008 19.64 58.4208 19.67 58.5608 19.63L59.4008 19.54C59.5208 19.52 59.6408 19.51 59.7608 19.51C59.8808 19.49 60.0008 19.48 60.1208 19.48C60.1608 19.46 60.2208 19.47 60.3008 19.51C60.4008 19.57 60.4908 19.58 60.5708 19.54C60.6108 19.5 60.6608 19.47 60.7208 19.45C60.8008 19.43 60.8608 19.4 60.9008 19.36C61.0208 19.24 61.1708 19.2 61.3508 19.24C61.5108 19.28 61.6408 19.27 61.7408 19.21C61.9208 19.15 62.0908 19.13 62.2508 19.15C62.3508 19.17 62.4508 19.16 62.5508 19.12C62.6508 19.08 62.7508 19.06 62.8508 19.06C62.8908 19.06 62.9208 19.07 62.9408 19.09C62.9608 19.09 62.9808 19.08 63.0008 19.06C63.0408 19.06 63.0808 19.05 63.1208 19.03C63.1608 19.01 63.1908 19 63.2108 19C63.3508 18.94 63.4808 18.92 63.6008 18.94C63.7008 18.94 63.7508 18.94 63.7508 18.94C63.8308 18.92 63.9008 18.92 63.9608 18.94C64.0408 18.96 64.1108 18.99 64.1708 19.03C64.2708 19.05 64.3508 19.08 64.4108 19.12C64.4908 19.16 64.5708 19.19 64.6508 19.21C64.6908 19.21 64.7208 19.22 64.7408 19.24C64.8408 19.32 64.9608 19.39 65.1008 19.45C65.2608 19.51 65.3508 19.58 65.3708 19.66C65.4108 19.78 65.4308 19.9 65.4308 20.02C65.4308 20.12 65.4408 20.23 65.4608 20.35C65.4608 20.41 65.4508 20.47 65.4308 20.53C65.4308 20.59 65.4208 20.65 65.4008 20.71C65.3608 20.79 65.3108 20.88 65.2508 20.98C65.2108 21.08 65.1508 21.17 65.0708 21.25C65.0308 21.29 64.9908 21.33 64.9508 21.37C64.9308 21.41 64.9008 21.45 64.8608 21.49C64.7808 21.57 64.6908 21.64 64.5908 21.7C64.4908 21.76 64.3808 21.79 64.2608 21.79C64.1808 21.79 64.1208 21.8 64.0808 21.82C64.0008 21.86 63.9208 21.88 63.8408 21.88C63.7608 21.88 63.6708 21.88 63.5708 21.88C63.4308 21.9 63.2908 21.92 63.1508 21.94C63.0308 21.94 62.9008 21.93 62.7608 21.91C62.6808 21.89 62.6108 21.89 62.5508 21.91C62.3508 21.97 62.1508 21.98 61.9508 21.94C61.7508 21.94 61.5508 21.95 61.3508 21.97C61.1708 21.97 60.9908 21.97 60.8108 21.97H60.4208C60.3608 21.97 60.3108 21.98 60.2708 22C60.1908 22.04 60.0908 22.06 59.9708 22.06C59.8708 22.06 59.7708 22.05 59.6708 22.03H59.3708C59.3508 22.03 59.3208 22.03 59.2808 22.03C59.2408 22.05 59.2008 22.05 59.1608 22.03C59.1008 22.01 59.0408 22 58.9808 22C58.9408 22.02 58.8908 22.04 58.8308 22.06C58.7908 22.06 58.7508 22.06 58.7108 22.06C58.6908 22.08 58.6608 22.09 58.6208 22.09C58.4208 22.07 58.2308 22.07 58.0508 22.09C57.8708 22.13 57.6808 22.17 57.4808 22.21ZM88.6677 22.3C88.6477 22.28 88.6177 22.27 88.5777 22.27C88.3777 22.15 88.1777 22.04 87.9777 21.94C87.7977 21.82 87.6277 21.69 87.4677 21.55C87.3877 21.51 87.3377 21.47 87.3177 21.43C87.1377 21.33 86.9777 21.21 86.8377 21.07C86.6977 20.91 86.5677 20.74 86.4477 20.56C86.4077 20.52 86.3677 20.47 86.3277 20.41C86.2877 20.35 86.2377 20.29 86.1777 20.23C85.9777 20.03 85.8177 19.79 85.6977 19.51C85.6777 19.45 85.6477 19.39 85.6077 19.33C85.5677 19.27 85.5277 19.21 85.4877 19.15C85.3677 18.99 85.2777 18.84 85.2177 18.7C85.1777 18.54 85.1177 18.39 85.0377 18.25C84.9577 18.09 84.8777 17.94 84.7977 17.8C84.7777 17.72 84.7477 17.64 84.7077 17.56C84.6677 17.48 84.6377 17.4 84.6177 17.32C84.6177 17.22 84.5877 17.11 84.5277 16.99C84.4477 16.77 84.3677 16.55 84.2877 16.33C84.2277 16.09 84.1677 15.85 84.1077 15.61C84.0677 15.53 84.0477 15.47 84.0477 15.43C83.9277 15.17 83.8377 14.9 83.7777 14.62C83.7177 14.34 83.6577 14.07 83.5977 13.81L83.4177 12.46C83.3977 12.42 83.3877 12.37 83.3877 12.31C83.3877 12.25 83.3877 12.2 83.3877 12.16C83.3877 12.04 83.3877 11.93 83.3877 11.83C83.3877 11.71 83.3677 11.59 83.3277 11.47C83.2877 11.21 83.2977 10.97 83.3577 10.75C83.3577 10.67 83.3577 10.6 83.3577 10.54C83.3777 10.46 83.3877 10.38 83.3877 10.3C83.3877 10.2 83.3877 10.1 83.3877 10C83.4077 9.88 83.4277 9.78 83.4477 9.7C83.4677 9.64 83.4777 9.56 83.4777 9.46C83.5177 9.28 83.5377 9.11 83.5377 8.95C83.5577 8.77 83.5777 8.6 83.5977 8.44C83.6577 8.16 83.6877 7.89 83.6877 7.63C83.6877 7.55 83.6877 7.48 83.6877 7.42C83.7077 7.34 83.7277 7.26 83.7477 7.18C83.7477 7 83.7377 6.87 83.7177 6.79C83.6577 6.71 83.6477 6.6 83.6877 6.46C83.7277 6.38 83.7477 6.32 83.7477 6.28C83.7677 6.24 83.7777 6.2 83.7777 6.16C83.7777 6.1 83.8077 6.06 83.8677 6.04H84.0777C84.1577 6.04 84.2077 6.01 84.2277 5.95C84.2477 5.87 84.3177 5.81 84.4377 5.77C84.5377 5.73 84.6277 5.7 84.7077 5.68C84.7877 5.64 84.8677 5.59 84.9477 5.53C85.0077 5.49 85.0777 5.47 85.1577 5.47C85.2377 5.47 85.3177 5.48 85.3977 5.5L85.9377 5.68C85.9577 5.7 85.9677 5.71 85.9677 5.71C85.9877 5.71 86.0077 5.72 86.0277 5.74C86.1877 5.9 86.3177 6.08 86.4177 6.28C86.5377 6.48 86.6077 6.7 86.6277 6.94C86.6277 7.02 86.6277 7.1 86.6277 7.18C86.6277 7.24 86.6077 7.31 86.5677 7.39C86.5477 7.51 86.5277 7.63 86.5077 7.75C86.4877 7.87 86.4677 8 86.4477 8.14C86.4077 8.34 86.3777 8.54 86.3577 8.74C86.3577 8.92 86.3577 9.11 86.3577 9.31C86.3377 9.39 86.3277 9.47 86.3277 9.55C86.3277 9.61 86.3177 9.68 86.2977 9.76C86.2777 10 86.2677 10.24 86.2677 10.48C86.2677 10.72 86.2877 10.95 86.3277 11.17C86.3277 11.19 86.3277 11.22 86.3277 11.26C86.3477 11.3 86.3477 11.34 86.3277 11.38C86.3277 11.58 86.3477 11.79 86.3877 12.01C86.4277 12.23 86.4577 12.45 86.4777 12.67C86.4977 12.87 86.5177 13.06 86.5377 13.24C86.5577 13.42 86.5877 13.6 86.6277 13.78C86.6677 13.86 86.6877 13.94 86.6877 14.02C86.7077 14.1 86.7277 14.18 86.7477 14.26C86.8277 14.64 86.9177 15.01 87.0177 15.37C87.1177 15.73 87.2477 16.09 87.4077 16.45C87.5077 16.67 87.6077 16.86 87.7077 17.02C87.8677 17.3 88.0077 17.58 88.1277 17.86C88.2077 18 88.2877 18.14 88.3677 18.28C88.4477 18.4 88.5277 18.53 88.6077 18.67C88.6877 18.77 88.7677 18.86 88.8477 18.94C88.9277 19.02 89.0077 19.11 89.0877 19.21C89.1877 19.31 89.3177 19.34 89.4777 19.3C89.5777 19.26 89.6477 19.22 89.6877 19.18C89.7877 19.12 89.8777 19.06 89.9577 19C90.0577 18.94 90.1477 18.87 90.2277 18.79C90.4477 18.57 90.6477 18.35 90.8277 18.13C91.0277 17.91 91.1977 17.67 91.3377 17.41C91.4577 17.19 91.5777 16.96 91.6977 16.72C91.8177 16.48 91.9277 16.24 92.0277 16C92.1477 15.72 92.2577 15.44 92.3577 15.16C92.4777 14.88 92.5877 14.59 92.6877 14.29C92.7677 14.09 92.8277 13.89 92.8677 13.69C92.9277 13.47 92.9677 13.26 92.9877 13.06C93.0277 12.84 93.0577 12.62 93.0777 12.4C93.1177 12.16 93.1277 11.93 93.1077 11.71C93.1077 11.65 93.1077 11.59 93.1077 11.53C93.1277 11.47 93.1377 11.41 93.1377 11.35C93.1777 11.21 93.1877 11.08 93.1677 10.96C93.1677 10.84 93.1577 10.72 93.1377 10.6C93.1177 10.26 93.0877 9.94 93.0477 9.64C93.0277 9.32 93.0077 9 92.9877 8.68C92.9877 8.52 92.9777 8.41 92.9577 8.35C92.9377 8.17 92.9177 7.99 92.8977 7.81C92.8977 7.63 92.8777 7.45 92.8377 7.27V7.03C92.8377 6.83 92.8277 6.64 92.8077 6.46C92.8077 6.26 92.8077 6.06 92.8077 5.86C92.8077 5.7 92.7977 5.56 92.7777 5.44C92.7777 5.3 92.7777 5.16 92.7777 5.02C92.7777 4.84 92.8077 4.69 92.8677 4.57C92.9277 4.47 92.9477 4.39 92.9277 4.33C92.8677 4.21 92.8977 4.12 93.0177 4.06C93.1177 3.96 93.2177 3.88 93.3177 3.82C93.4377 3.76 93.5677 3.72 93.7077 3.7C93.7477 3.68 93.7777 3.67 93.7977 3.67C93.8377 3.67 93.8677 3.66 93.8877 3.64C94.0077 3.54 94.1677 3.51 94.3677 3.55C94.4077 3.57 94.4677 3.58 94.5477 3.58C94.7277 3.62 94.8577 3.69 94.9377 3.79C94.9977 3.85 95.0877 3.92 95.2077 4C95.3677 4.08 95.4777 4.18 95.5377 4.3C95.5977 4.42 95.6377 4.55 95.6577 4.69C95.6977 4.89 95.7277 5.08 95.7477 5.26C95.7877 5.44 95.7977 5.63 95.7777 5.83V6.1C95.7777 6.3 95.7777 6.5 95.7777 6.7C95.7977 6.88 95.8177 7.07 95.8377 7.27C95.8577 7.33 95.8677 7.4 95.8677 7.48C95.8677 7.54 95.8677 7.6 95.8677 7.66C95.8677 7.78 95.8677 7.9 95.8677 8.02C95.8877 8.12 95.9077 8.23 95.9277 8.35C95.9477 8.39 95.9577 8.45 95.9577 8.53C95.9377 8.73 95.9377 8.93 95.9577 9.13C95.9977 9.31 96.0277 9.5 96.0477 9.7C96.0677 9.9 96.0777 10.11 96.0777 10.33C96.0977 10.55 96.1077 10.77 96.1077 10.99C96.1277 11.01 96.1277 11.04 96.1077 11.08C96.1077 11.12 96.1077 11.16 96.1077 11.2C96.0477 11.38 96.0377 11.59 96.0777 11.83C96.1177 12.09 96.1077 12.34 96.0477 12.58C96.0277 12.76 96.0077 12.94 95.9877 13.12C95.9677 13.3 95.9377 13.49 95.8977 13.69C95.8577 14.01 95.7877 14.33 95.6877 14.65C95.5877 14.97 95.4877 15.29 95.3877 15.61C95.3877 15.65 95.3577 15.72 95.2977 15.82C95.2177 15.96 95.1477 16.11 95.0877 16.27C95.0277 16.41 94.9777 16.56 94.9377 16.72L94.8477 16.93C94.7477 17.13 94.6577 17.33 94.5777 17.53C94.5177 17.71 94.4377 17.9 94.3377 18.1C94.2777 18.22 94.2177 18.34 94.1577 18.46C94.0977 18.58 94.0277 18.69 93.9477 18.79C93.9277 18.83 93.8977 18.87 93.8577 18.91C93.8177 19.05 93.7577 19.18 93.6777 19.3C93.5977 19.42 93.5177 19.54 93.4377 19.66C93.2177 20 92.9577 20.32 92.6577 20.62C92.3777 20.92 92.0677 21.2 91.7277 21.46L91.3677 21.67C91.0877 21.81 90.7877 21.93 90.4677 22.03C90.1677 22.13 89.8577 22.2 89.5377 22.24C89.4377 22.26 89.3277 22.26 89.2077 22.24C89.1477 22.24 89.0877 22.24 89.0277 22.24C88.9677 22.24 88.9077 22.26 88.8477 22.3H88.6677ZM111.632 23.77H111.482C111.422 23.77 111.352 23.76 111.272 23.74C111.212 23.74 111.142 23.74 111.062 23.74C110.922 23.76 110.802 23.73 110.702 23.65C110.622 23.59 110.532 23.51 110.432 23.41C110.392 23.37 110.342 23.32 110.282 23.26C110.242 23.22 110.192 23.19 110.132 23.17C110.092 23.15 110.052 23.1 110.012 23.02C109.992 22.98 109.962 22.93 109.922 22.87C109.902 22.81 109.872 22.75 109.832 22.69C109.792 22.59 109.782 22.48 109.802 22.36C109.822 22.3 109.832 22.24 109.832 22.18C109.852 22.14 109.862 22.09 109.862 22.03C109.862 21.83 109.862 21.64 109.862 21.46C109.862 21.26 109.842 21.06 109.802 20.86C109.782 20.8 109.772 20.74 109.772 20.68C109.772 20.6 109.762 20.52 109.742 20.44C109.742 20.3 109.732 20.19 109.712 20.11C109.712 20.01 109.702 19.92 109.682 19.84C109.682 19.76 109.682 19.68 109.682 19.6C109.662 19.46 109.652 19.33 109.652 19.21C109.652 19.09 109.632 18.96 109.592 18.82V18.73C109.592 18.47 109.572 18.22 109.532 17.98C109.512 17.72 109.502 17.46 109.502 17.2C109.502 17.08 109.492 16.99 109.472 16.93C109.452 16.75 109.432 16.57 109.412 16.39C109.412 16.19 109.412 15.99 109.412 15.79C109.412 15.61 109.412 15.43 109.412 15.25C109.412 15.05 109.392 14.86 109.352 14.68C109.332 14.64 109.322 14.59 109.322 14.53C109.322 14.47 109.322 14.42 109.322 14.38C109.322 13.56 109.322 12.74 109.322 11.92C109.322 11.1 109.332 10.29 109.352 9.49C109.352 9.39 109.352 9.29 109.352 9.19C109.372 9.09 109.382 8.99 109.382 8.89C109.382 8.83 109.382 8.77 109.382 8.71C109.402 8.65 109.412 8.6 109.412 8.56C109.412 8.34 109.412 8.12 109.412 7.9C109.432 7.66 109.452 7.43 109.472 7.21C109.512 7.15 109.512 7.07 109.472 6.97C109.452 6.95 109.422 6.94 109.382 6.94L109.292 7.03C109.252 7.09 109.202 7.15 109.142 7.21C109.082 7.27 109.032 7.33 108.992 7.39C108.912 7.51 108.822 7.64 108.722 7.78C108.642 7.9 108.552 8.03 108.452 8.17C108.312 8.41 108.162 8.66 108.002 8.92C107.842 9.16 107.722 9.42 107.642 9.7C107.622 9.74 107.602 9.79 107.582 9.85C107.562 9.89 107.542 9.93 107.522 9.97C107.442 10.17 107.352 10.37 107.252 10.57C107.172 10.75 107.092 10.95 107.012 11.17C106.892 11.43 106.722 11.67 106.502 11.89C106.462 11.93 106.422 11.95 106.382 11.95C106.282 12.01 106.172 12.07 106.052 12.13C105.932 12.17 105.802 12.18 105.662 12.16H105.482C105.302 12.2 105.152 12.16 105.032 12.04C104.892 12 104.772 11.93 104.672 11.83C104.592 11.73 104.502 11.62 104.402 11.5C104.322 11.4 104.252 11.28 104.192 11.14C104.152 11 104.132 10.86 104.132 10.72C104.112 10.68 104.102 10.63 104.102 10.57C104.102 10.51 104.102 10.46 104.102 10.42C104.082 10.38 104.062 10.34 104.042 10.3C104.022 10.24 104.012 10.2 104.012 10.18C104.012 10.14 103.992 10.08 103.952 10C103.912 9.92 103.832 9.76 103.712 9.52C103.592 9.28 103.532 9.17 103.532 9.19C103.472 9.09 103.412 8.98 103.352 8.86C103.292 8.74 103.222 8.63 103.142 8.53L102.962 8.2C102.922 8.2 102.892 8.19 102.872 8.17L102.842 8.2C102.842 8.26 102.842 8.32 102.842 8.38C102.842 8.44 102.852 8.5 102.872 8.56C102.912 8.78 102.932 9 102.932 9.22C102.932 9.44 102.912 9.66 102.872 9.88C102.872 10 102.882 10.1 102.902 10.18C102.922 10.22 102.932 10.29 102.932 10.39C102.932 10.51 102.932 10.63 102.932 10.75C102.952 10.87 102.952 10.99 102.932 11.11C102.912 11.21 102.902 11.32 102.902 11.44C102.922 11.54 102.942 11.64 102.962 11.74V12.04C102.922 12.16 102.922 12.29 102.962 12.43C102.982 12.53 102.982 12.64 102.962 12.76C102.962 12.86 102.972 12.96 102.992 13.06C102.992 13.16 102.972 13.29 102.932 13.45C102.812 13.93 102.842 14.39 103.022 14.83C103.042 14.91 103.062 14.99 103.082 15.07C103.102 15.13 103.102 15.2 103.082 15.28C103.082 15.34 103.082 15.4 103.082 15.46C103.082 15.52 103.092 15.58 103.112 15.64C103.152 15.72 103.172 15.8 103.172 15.88C103.192 16.1 103.202 16.27 103.202 16.39C103.222 16.51 103.242 16.6 103.262 16.66C103.302 16.88 103.342 17.11 103.382 17.35C103.422 17.57 103.462 17.79 103.502 18.01C103.542 18.27 103.582 18.53 103.622 18.79C103.682 19.03 103.712 19.28 103.712 19.54C103.712 19.62 103.722 19.68 103.742 19.72C103.782 19.88 103.802 20.05 103.802 20.23C103.802 20.39 103.812 20.55 103.832 20.71C103.832 20.93 103.782 21.1 103.682 21.22C103.642 21.3 103.622 21.35 103.622 21.37C103.442 21.75 103.122 21.97 102.662 22.03C102.602 22.05 102.542 22.06 102.482 22.06C102.422 22.06 102.362 22.06 102.302 22.06C102.082 22.1 101.922 22.06 101.822 21.94C101.782 21.9 101.742 21.88 101.702 21.88C101.602 21.9 101.502 21.84 101.402 21.7C101.342 21.6 101.252 21.51 101.132 21.43C101.072 21.37 101.022 21.27 100.982 21.13C100.962 21.09 100.942 21.05 100.922 21.01C100.922 20.97 100.922 20.93 100.922 20.89C100.902 20.61 100.872 20.34 100.832 20.08C100.792 19.8 100.762 19.53 100.742 19.27L100.712 18.97C100.692 18.89 100.682 18.82 100.682 18.76C100.682 18.7 100.672 18.63 100.652 18.55V18.37C100.592 18.09 100.562 17.81 100.562 17.53C100.562 17.23 100.572 16.94 100.592 16.66C100.612 16.48 100.622 16.3 100.622 16.12C100.622 15.92 100.632 15.73 100.652 15.55V14.86C100.652 14.76 100.652 14.66 100.652 14.56C100.652 14.44 100.642 14.33 100.622 14.23C100.602 14.11 100.592 13.99 100.592 13.87C100.592 13.75 100.592 13.63 100.592 13.51V12.13C100.572 11.97 100.562 11.81 100.562 11.65C100.562 11.47 100.562 11.3 100.562 11.14C100.562 11.08 100.562 11.02 100.562 10.96C100.562 10.88 100.552 10.81 100.532 10.75C100.532 10.65 100.522 10.56 100.502 10.48C100.502 10.38 100.492 10.29 100.472 10.21V10C100.432 9.82 100.412 9.65 100.412 9.49C100.412 9.31 100.412 9.13 100.412 8.95C100.412 8.79 100.412 8.63 100.412 8.47C100.412 8.29 100.392 8.13 100.352 7.99C100.332 7.93 100.322 7.87 100.322 7.81C100.322 7.75 100.322 7.69 100.322 7.63C100.322 7.49 100.322 7.36 100.322 7.24C100.322 7.1 100.302 6.96 100.262 6.82C100.242 6.78 100.232 6.71 100.232 6.61V5.11C100.232 5.01 100.232 4.92 100.232 4.84C100.232 4.74 100.212 4.65 100.172 4.57C100.112 4.37 100.122 4.14 100.202 3.88C100.242 3.78 100.282 3.71 100.322 3.67C100.362 3.61 100.402 3.55 100.442 3.49C100.482 3.43 100.512 3.37 100.532 3.31C100.572 3.25 100.602 3.22 100.622 3.22C100.702 3.2 100.762 3.17 100.802 3.13C100.862 3.09 100.912 3.05 100.952 3.01L101.132 2.92C101.172 2.9 101.232 2.89 101.312 2.89C101.412 2.91 101.512 2.93 101.612 2.95C101.732 2.95 101.842 2.96 101.942 2.98C102.062 2.98 102.152 3.03 102.212 3.13C102.312 3.27 102.412 3.41 102.512 3.55C102.612 3.69 102.692 3.84 102.752 4C102.812 4.14 102.892 4.26 102.992 4.36C103.112 4.52 103.232 4.68 103.352 4.84C103.472 5 103.602 5.16 103.742 5.32C103.802 5.38 103.852 5.45 103.892 5.53C103.952 5.61 104.002 5.69 104.042 5.77C104.142 5.91 104.232 6.05 104.312 6.19C104.412 6.31 104.512 6.44 104.612 6.58L105.062 7.3C105.102 7.38 105.142 7.46 105.182 7.54C105.222 7.6 105.262 7.66 105.302 7.72C105.342 7.82 105.402 7.83 105.482 7.75C105.562 7.65 105.642 7.55 105.722 7.45C105.822 7.33 105.912 7.22 105.992 7.12C106.172 6.9 106.352 6.67 106.532 6.43C106.712 6.19 106.902 5.96 107.102 5.74L107.282 5.47C107.422 5.27 107.552 5.08 107.672 4.9C107.812 4.7 107.942 4.5 108.062 4.3C108.202 4.08 108.322 3.86 108.422 3.64C108.542 3.42 108.642 3.2 108.722 2.98L109.082 2.17C109.202 1.93 109.372 1.73 109.592 1.57C109.892 1.33 110.222 1.24 110.582 1.3C110.722 1.32 110.852 1.36 110.972 1.42C111.092 1.46 111.212 1.5 111.332 1.54C111.452 1.58 111.532 1.67 111.572 1.81C111.612 1.87 111.642 1.93 111.662 1.99C111.682 2.05 111.692 2.11 111.692 2.17C111.712 2.31 111.742 2.44 111.782 2.56C111.822 2.66 111.852 2.78 111.872 2.92L111.902 3.22C111.942 3.4 111.982 3.58 112.022 3.76C112.082 3.94 112.132 4.12 112.172 4.3V4.36C112.192 4.56 112.212 4.76 112.232 4.96C112.272 5.14 112.282 5.33 112.262 5.53V6.22C112.262 6.32 112.262 6.42 112.262 6.52C112.262 6.62 112.252 6.72 112.232 6.82C112.212 6.96 112.202 7.1 112.202 7.24C112.202 7.36 112.202 7.49 112.202 7.63C112.182 7.71 112.172 7.79 112.172 7.87C112.172 7.95 112.162 8.03 112.142 8.11C112.122 8.19 112.112 8.27 112.112 8.35C112.112 8.41 112.112 8.49 112.112 8.59V9.43C112.112 9.57 112.102 9.7 112.082 9.82C112.082 9.94 112.072 10.07 112.052 10.21C112.032 10.29 112.022 10.37 112.022 10.45C112.022 10.51 112.022 10.58 112.022 10.66V12.49C112.022 12.63 112.022 12.77 112.022 12.91C112.042 13.05 112.062 13.19 112.082 13.33C112.102 13.43 112.112 13.54 112.112 13.66C112.112 13.76 112.112 13.86 112.112 13.96C112.132 14.1 112.142 14.24 112.142 14.38C112.142 14.5 112.152 14.64 112.172 14.8V15.13C112.192 15.29 112.202 15.46 112.202 15.64C112.202 15.8 112.202 15.96 112.202 16.12V16.51C112.242 16.65 112.262 16.8 112.262 16.96C112.262 17.12 112.272 17.28 112.292 17.44V17.65C112.332 17.77 112.352 17.89 112.352 18.01C112.352 18.13 112.362 18.25 112.382 18.37L112.472 19.45C112.492 19.53 112.502 19.61 112.502 19.69C112.522 19.75 112.532 19.82 112.532 19.9C112.552 19.98 112.562 20.06 112.562 20.14C112.562 20.2 112.572 20.27 112.592 20.35C112.592 20.37 112.592 20.4 112.592 20.44C112.612 20.48 112.622 20.52 112.622 20.56C112.622 20.7 112.632 20.85 112.652 21.01C112.692 21.17 112.722 21.33 112.742 21.49L112.862 22.33C112.862 22.45 112.852 22.53 112.832 22.57C112.812 22.69 112.762 22.8 112.682 22.9C112.622 23.02 112.572 23.13 112.532 23.23C112.532 23.25 112.522 23.26 112.502 23.26C112.362 23.38 112.222 23.48 112.082 23.56C111.942 23.66 111.792 23.73 111.632 23.77ZM128.759 24.19C128.579 24.19 128.419 24.12 128.279 23.98C128.239 23.92 128.199 23.86 128.159 23.8C128.119 23.74 128.079 23.68 128.039 23.62C127.859 23.2 127.769 22.76 127.769 22.3L127.679 21.58C127.619 21.3 127.569 21.02 127.529 20.74C127.489 20.46 127.419 20.19 127.319 19.93L127.139 19.42C127.139 19.38 127.129 19.34 127.109 19.3C127.109 19.26 127.099 19.22 127.079 19.18L126.629 17.59C126.609 17.55 126.589 17.5 126.569 17.44C126.569 17.38 126.549 17.33 126.509 17.29C126.449 17.17 126.399 17.05 126.359 16.93C126.339 16.79 126.309 16.65 126.269 16.51C126.249 16.41 126.229 16.32 126.209 16.24C126.189 16.14 126.159 16.04 126.119 15.94C126.079 15.82 126.039 15.75 125.999 15.73C125.959 15.69 125.869 15.69 125.729 15.73C125.629 15.75 125.519 15.77 125.399 15.79C125.299 15.79 125.199 15.81 125.099 15.85C125.019 15.87 124.919 15.89 124.799 15.91C124.699 15.91 124.599 15.92 124.499 15.94L124.079 16.03C123.979 16.05 123.869 16.08 123.749 16.12C123.649 16.14 123.549 16.15 123.449 16.15L122.909 16.24C122.749 16.28 122.579 16.32 122.399 16.36C122.219 16.4 122.049 16.44 121.889 16.48C121.409 16.6 120.929 16.69 120.449 16.75C120.289 16.79 120.199 16.86 120.179 16.96C120.159 16.96 120.149 16.97 120.149 16.99C120.029 17.31 119.889 17.63 119.729 17.95C119.589 18.25 119.439 18.56 119.279 18.88C119.239 18.96 119.199 19.04 119.159 19.12C119.139 19.18 119.109 19.25 119.069 19.33C119.049 19.37 119.029 19.42 119.009 19.48C118.989 19.52 118.969 19.56 118.949 19.6C118.829 19.74 118.769 19.91 118.769 20.11C118.749 20.23 118.709 20.35 118.649 20.47C118.589 20.57 118.529 20.67 118.469 20.77C118.449 20.83 118.409 20.86 118.349 20.86C118.269 20.88 118.189 20.91 118.109 20.95C118.029 20.99 117.939 21.03 117.839 21.07C117.779 21.09 117.719 21.09 117.659 21.07C117.619 21.05 117.569 21.03 117.509 21.01C117.469 20.97 117.429 20.95 117.389 20.95C117.169 20.93 117.009 20.8 116.909 20.56C116.749 20.24 116.639 19.92 116.579 19.6C116.559 19.52 116.559 19.45 116.579 19.39C116.619 19.33 116.649 19.27 116.669 19.21C116.789 19.13 116.859 19.04 116.879 18.94V18.91C116.879 18.65 116.929 18.41 117.029 18.19C117.149 17.95 117.249 17.72 117.329 17.5C117.369 17.38 117.419 17.26 117.479 17.14C117.539 17.02 117.599 16.9 117.659 16.78C117.739 16.64 117.799 16.51 117.839 16.39C117.899 16.25 117.949 16.11 117.989 15.97C118.049 15.81 118.049 15.66 117.989 15.52C117.949 15.4 117.929 15.29 117.929 15.19C117.929 15.07 117.939 14.95 117.959 14.83C117.959 14.61 118.039 14.42 118.199 14.26C118.279 14.16 118.359 14.08 118.439 14.02C118.539 13.94 118.629 13.86 118.709 13.78C118.889 13.6 119.029 13.36 119.129 13.06C119.209 12.8 119.269 12.54 119.309 12.28C119.369 12 119.429 11.73 119.489 11.47C119.529 11.21 119.569 10.96 119.609 10.72C119.669 10.46 119.729 10.21 119.789 9.97C119.809 9.87 119.829 9.78 119.849 9.7C119.889 9.6 119.919 9.51 119.939 9.43C119.999 9.27 120.059 9.12 120.119 8.98C120.179 8.82 120.219 8.66 120.239 8.5C120.279 8.42 120.279 8.35 120.239 8.29C120.219 8.19 120.219 8.1 120.239 8.02C120.279 7.94 120.309 7.86 120.329 7.78C120.389 7.64 120.429 7.5 120.449 7.36C120.489 7.22 120.539 7.08 120.599 6.94C120.699 6.68 120.779 6.47 120.839 6.31C120.919 6.13 120.989 5.93 121.049 5.71C121.089 5.59 121.129 5.48 121.169 5.38C121.229 5.26 121.269 5.14 121.289 5.02C121.349 4.84 121.399 4.66 121.439 4.48C121.479 4.28 121.499 4.09 121.499 3.91C121.539 3.75 121.579 3.64 121.619 3.58C121.719 3.38 121.839 3.21 121.979 3.07C122.139 2.93 122.289 2.79 122.429 2.65C122.529 2.59 122.629 2.55 122.729 2.53C122.829 2.49 122.929 2.5 123.029 2.56C123.109 2.6 123.159 2.62 123.179 2.62C123.359 2.6 123.509 2.64 123.629 2.74C123.749 2.84 123.849 2.96 123.929 3.1C123.969 3.14 123.999 3.19 124.019 3.25C124.039 3.31 124.059 3.36 124.079 3.4C124.179 3.56 124.229 3.72 124.229 3.88C124.229 3.96 124.239 4.05 124.259 4.15C124.279 4.23 124.299 4.32 124.319 4.42C124.379 4.54 124.469 4.6 124.589 4.6C124.609 4.58 124.629 4.58 124.649 4.6C124.669 4.62 124.679 4.64 124.679 4.66C124.779 4.78 124.809 4.91 124.769 5.05C124.729 5.21 124.719 5.37 124.739 5.53C124.779 5.67 124.819 5.82 124.859 5.98C124.939 6.18 125.019 6.38 125.099 6.58C125.179 6.78 125.259 6.98 125.339 7.18C125.439 7.4 125.539 7.62 125.639 7.84C125.739 8.06 125.829 8.28 125.909 8.5C126.009 8.78 126.109 9.06 126.209 9.34C126.329 9.62 126.459 9.9 126.599 10.18L126.689 10.51C126.709 10.59 126.729 10.67 126.749 10.75C126.789 10.83 126.819 10.91 126.839 10.99C126.879 11.05 126.909 11.11 126.929 11.17C126.969 11.23 127.009 11.28 127.049 11.32C127.149 11.46 127.209 11.61 127.229 11.77C127.289 11.97 127.379 12.15 127.499 12.31C127.539 12.37 127.599 12.4 127.679 12.4C127.979 12.36 128.279 12.33 128.579 12.31C128.879 12.27 129.179 12.21 129.479 12.13C129.699 12.07 129.909 12.04 130.109 12.04C130.489 12.04 130.839 12.17 131.159 12.43C131.539 12.73 131.739 13.11 131.759 13.57C131.759 13.67 131.769 13.75 131.789 13.81C131.789 13.95 131.749 14.06 131.669 14.14C131.649 14.2 131.609 14.26 131.549 14.32C131.509 14.38 131.469 14.44 131.429 14.5C131.389 14.58 131.349 14.64 131.309 14.68L131.129 14.83C131.109 14.87 131.079 14.92 131.039 14.98C130.999 15.02 130.949 15.05 130.889 15.07C130.809 15.09 130.729 15.12 130.649 15.16C130.569 15.18 130.479 15.19 130.379 15.19C130.019 15.23 129.699 15.22 129.419 15.16H128.939C128.899 15.16 128.839 15.18 128.759 15.22C128.679 15.26 128.639 15.31 128.639 15.37V15.49C128.699 15.67 128.739 15.86 128.759 16.06C128.799 16.24 128.859 16.41 128.939 16.57C128.939 16.65 128.959 16.73 128.999 16.81C129.099 16.99 129.179 17.18 129.239 17.38C129.299 17.56 129.349 17.75 129.389 17.95C129.389 17.99 129.409 18.07 129.449 18.19C129.509 18.33 129.559 18.48 129.599 18.64C129.639 18.78 129.669 18.93 129.689 19.09C129.689 19.21 129.719 19.32 129.779 19.42C129.859 19.6 129.919 19.78 129.959 19.96C129.999 20.14 130.029 20.33 130.049 20.53C130.069 20.55 130.079 20.59 130.079 20.65C130.079 20.69 130.089 20.73 130.109 20.77C130.209 20.99 130.279 21.23 130.319 21.49C130.359 21.73 130.409 21.97 130.469 22.21C130.509 22.33 130.529 22.45 130.529 22.57C130.549 22.71 130.559 22.85 130.559 22.99C130.559 23.09 130.529 23.2 130.469 23.32C130.409 23.38 130.379 23.41 130.379 23.41C130.259 23.43 130.189 23.5 130.169 23.62L130.079 23.8C130.039 23.88 129.979 23.93 129.899 23.95C129.819 23.95 129.749 23.98 129.689 24.04C129.609 24.12 129.499 24.16 129.359 24.16C129.279 24.16 129.179 24.16 129.059 24.16C128.959 24.16 128.859 24.17 128.759 24.19ZM121.529 13.3C121.649 13.28 121.769 13.26 121.889 13.24C122.029 13.22 122.179 13.2 122.339 13.18C122.439 13.16 122.569 13.14 122.729 13.12C122.889 13.1 123.039 13.08 123.179 13.06C123.319 13.02 123.459 13 123.599 13C123.739 12.98 123.879 12.96 124.019 12.94C124.139 12.9 124.259 12.88 124.379 12.88C124.499 12.86 124.619 12.84 124.739 12.82C124.919 12.78 124.989 12.68 124.949 12.52C124.929 12.36 124.889 12.2 124.829 12.04C124.789 11.86 124.699 11.71 124.559 11.59C124.519 11.55 124.499 11.49 124.499 11.41V11.32C124.459 11.16 124.409 11.01 124.349 10.87C124.309 10.71 124.259 10.56 124.199 10.42C124.159 10.26 124.109 10.12 124.049 10C124.009 9.86 123.959 9.72 123.899 9.58L123.539 8.5C123.479 8.36 123.419 8.22 123.359 8.08C123.319 7.94 123.279 7.8 123.239 7.66L123.149 7.54H123.059L122.999 7.63C122.899 7.93 122.779 8.23 122.639 8.53C122.519 8.83 122.409 9.15 122.309 9.49C122.309 9.53 122.299 9.58 122.279 9.64C122.259 9.7 122.239 9.76 122.219 9.82C122.139 10.02 122.059 10.24 121.979 10.48C121.919 10.72 121.869 10.96 121.829 11.2C121.809 11.34 121.789 11.48 121.769 11.62C121.749 11.74 121.719 11.87 121.679 12.01L121.409 13.18C121.389 13.2 121.399 13.23 121.439 13.27C121.479 13.29 121.509 13.3 121.529 13.3ZM156.202 22.27C156.142 22.25 156.072 22.23 155.992 22.21C155.932 22.19 155.872 22.17 155.812 22.15C155.652 22.09 155.492 22.01 155.332 21.91C155.252 21.87 155.192 21.81 155.152 21.73C155.012 21.51 154.882 21.31 154.762 21.13C154.642 20.93 154.512 20.73 154.372 20.53L154.102 20.05C153.962 19.77 153.822 19.5 153.682 19.24C153.542 18.96 153.402 18.69 153.262 18.43C153.222 18.33 153.172 18.25 153.112 18.19C153.072 18.11 153.032 18.03 152.992 17.95C152.852 17.73 152.722 17.51 152.602 17.29C152.482 17.05 152.362 16.82 152.242 16.6L151.492 15.13C151.292 14.73 151.092 14.34 150.892 13.96C150.692 13.56 150.492 13.16 150.292 12.76C150.252 12.72 150.212 12.66 150.172 12.58C150.092 12.36 149.992 12.15 149.872 11.95C149.772 11.75 149.672 11.55 149.572 11.35C149.492 11.21 149.422 11.07 149.362 10.93C149.302 10.77 149.232 10.62 149.152 10.48L148.822 9.88C148.782 9.88 148.752 9.87 148.732 9.85C148.732 9.85 148.722 9.86 148.702 9.88C148.702 9.88 148.702 9.89 148.702 9.91C148.682 10.17 148.662 10.44 148.642 10.72C148.622 11 148.622 11.28 148.642 11.56C148.682 11.68 148.682 11.81 148.642 11.95C148.602 12.31 148.612 12.63 148.672 12.91C148.692 12.99 148.692 13.07 148.672 13.15C148.672 13.23 148.662 13.32 148.642 13.42C148.622 13.56 148.612 13.69 148.612 13.81C148.612 13.93 148.602 14.06 148.582 14.2C148.622 14.28 148.642 14.37 148.642 14.47C148.642 14.55 148.632 14.63 148.612 14.71C148.552 14.91 148.552 15.12 148.612 15.34C148.652 15.4 148.652 15.46 148.612 15.52C148.532 15.7 148.512 15.92 148.552 16.18C148.612 16.52 148.592 16.89 148.492 17.29C148.472 17.33 148.462 17.4 148.462 17.5C148.442 17.58 148.462 17.65 148.522 17.71C148.602 17.75 148.622 17.8 148.582 17.86C148.562 18.12 148.562 18.39 148.582 18.67C148.582 18.67 148.582 18.68 148.582 18.7C148.582 18.7 148.572 18.7 148.552 18.7C148.532 18.7 148.522 18.69 148.522 18.67C148.502 18.65 148.492 18.63 148.492 18.61C148.452 18.57 148.432 18.58 148.432 18.64C148.432 18.74 148.442 18.8 148.462 18.82C148.502 18.92 148.522 19.02 148.522 19.12C148.522 19.22 148.522 19.32 148.522 19.42V20.35C148.522 20.41 148.512 20.47 148.492 20.53C148.492 20.59 148.462 20.64 148.402 20.68C148.322 20.7 148.282 20.77 148.282 20.89C148.262 21.11 148.182 21.3 148.042 21.46C147.922 21.62 147.782 21.76 147.622 21.88C147.542 21.94 147.442 21.98 147.322 22C147.222 22 147.122 21.99 147.022 21.97L146.482 21.79C146.442 21.79 146.402 21.76 146.362 21.7C146.302 21.64 146.242 21.58 146.182 21.52C146.122 21.44 146.052 21.37 145.972 21.31C145.872 21.25 145.802 21.14 145.762 20.98C145.742 20.88 145.712 20.77 145.672 20.65C145.632 20.53 145.612 20.41 145.612 20.29C145.612 20.15 145.612 20.02 145.612 19.9C145.632 19.78 145.642 19.65 145.642 19.51C145.662 19.41 145.672 19.32 145.672 19.24C145.672 19.14 145.682 19.04 145.702 18.94V7.96C145.702 7.86 145.702 7.76 145.702 7.66C145.722 7.56 145.742 7.47 145.762 7.39C145.762 7.29 145.762 7.19 145.762 7.09C145.782 6.99 145.792 6.89 145.792 6.79C145.792 6.67 145.792 6.55 145.792 6.43C145.812 6.31 145.832 6.2 145.852 6.1C145.872 6.02 145.882 5.95 145.882 5.89C145.882 5.83 145.882 5.76 145.882 5.68V4.75C145.882 4.61 145.892 4.49 145.912 4.39C145.952 4.27 145.982 4.15 146.002 4.03L146.092 3.88C146.152 3.82 146.202 3.73 146.242 3.61C146.282 3.49 146.342 3.43 146.422 3.43C146.482 3.39 146.542 3.36 146.602 3.34C146.662 3.3 146.702 3.24 146.722 3.16L146.752 3.13C146.772 3.13 146.792 3.13 146.812 3.13C146.832 3.11 146.852 3.1 146.872 3.1C146.952 3.1 147.012 3.08 147.052 3.04C147.112 3 147.182 2.99 147.262 3.01C147.342 3.03 147.422 3.04 147.502 3.04C147.582 3.04 147.662 3.05 147.742 3.07C148.182 3.15 148.492 3.41 148.672 3.85L148.852 4.45C148.872 4.65 148.962 4.84 149.122 5.02C149.242 5.16 149.362 5.31 149.482 5.47C149.602 5.63 149.732 5.79 149.872 5.95C150.392 6.61 150.872 7.35 151.312 8.17C151.352 8.25 151.392 8.33 151.432 8.41C151.472 8.49 151.512 8.57 151.552 8.65L153.112 11.8C153.232 12.02 153.342 12.25 153.442 12.49C153.562 12.71 153.692 12.93 153.832 13.15C153.872 13.23 153.912 13.31 153.952 13.39C153.992 13.45 154.022 13.52 154.042 13.6C154.142 13.84 154.262 14.08 154.402 14.32C154.402 14.32 154.402 14.33 154.402 14.35C154.422 14.35 154.432 14.34 154.432 14.32C154.452 14.32 154.462 14.32 154.462 14.32C154.482 14.3 154.492 14.29 154.492 14.29L154.582 13.24V12.94C154.602 12.84 154.612 12.74 154.612 12.64C154.632 12.52 154.652 12.41 154.672 12.31C154.692 12.25 154.692 12.18 154.672 12.1C154.672 12.02 154.682 11.94 154.702 11.86C154.702 11.74 154.702 11.62 154.702 11.5C154.722 11.36 154.742 11.23 154.762 11.11C154.782 11.05 154.792 10.99 154.792 10.93C154.792 10.85 154.792 10.78 154.792 10.72V9.91H154.762V9.1C154.762 9 154.762 8.9 154.762 8.8C154.762 8.7 154.742 8.6 154.702 8.5C154.682 8.44 154.672 8.35 154.672 8.23L154.702 8.02C154.702 7.96 154.692 7.91 154.672 7.87C154.672 7.81 154.672 7.75 154.672 7.69C154.692 7.61 154.682 7.53 154.642 7.45C154.602 7.37 154.582 7.29 154.582 7.21C154.602 7.13 154.612 7.05 154.612 6.97C154.612 6.89 154.612 6.81 154.612 6.73C154.612 6.65 154.572 6.61 154.492 6.61C154.472 6.61 154.462 6.59 154.462 6.55C154.442 6.49 154.442 6.44 154.462 6.4C154.502 6.3 154.522 6.19 154.522 6.07C154.522 5.95 154.522 5.83 154.522 5.71V4.84C154.502 4.72 154.512 4.6 154.552 4.48C154.592 4.36 154.642 4.25 154.702 4.15L154.822 3.97C154.922 3.87 155.032 3.77 155.152 3.67C155.272 3.57 155.392 3.47 155.512 3.37C155.512 3.37 155.552 3.35 155.632 3.31C155.732 3.29 155.822 3.27 155.902 3.25C156.002 3.23 156.102 3.23 156.202 3.25C156.282 3.25 156.342 3.26 156.382 3.28C156.462 3.32 156.542 3.37 156.622 3.43C156.702 3.47 156.782 3.52 156.862 3.58C156.902 3.6 156.922 3.62 156.922 3.64C156.942 3.66 156.962 3.68 156.982 3.7C157.022 3.74 157.052 3.79 157.072 3.85C157.112 3.89 157.142 3.93 157.162 3.97C157.262 4.05 157.322 4.15 157.342 4.27C157.382 4.37 157.412 4.47 157.432 4.57V5.83C157.432 5.97 157.432 6.11 157.432 6.25C157.452 6.37 157.472 6.5 157.492 6.64C157.512 6.72 157.522 6.8 157.522 6.88C157.522 6.94 157.522 7.01 157.522 7.09C157.522 7.25 157.522 7.42 157.522 7.6C157.542 7.76 157.552 7.92 157.552 8.08V8.29C157.552 8.43 157.542 8.57 157.522 8.71C157.522 8.83 157.522 8.96 157.522 9.1V10.42C157.522 10.62 157.512 10.83 157.492 11.05C157.492 11.25 157.502 11.46 157.522 11.68C157.522 11.76 157.512 11.82 157.492 11.86C157.472 12.06 157.462 12.26 157.462 12.46C157.462 12.64 157.452 12.83 157.432 13.03C157.432 13.11 157.432 13.2 157.432 13.3C157.432 13.4 157.422 13.5 157.402 13.6C157.382 13.68 157.372 13.76 157.372 13.84C157.392 13.92 157.402 14 157.402 14.08C157.442 14.26 157.452 14.44 157.432 14.62C157.432 14.8 157.422 14.98 157.402 15.16C157.382 15.48 157.362 15.81 157.342 16.15C157.342 16.47 157.362 16.8 157.402 17.14C157.402 17.22 157.402 17.31 157.402 17.41C157.422 17.51 157.432 17.61 157.432 17.71C157.412 18.01 157.422 18.3 157.462 18.58C157.522 18.86 157.582 19.14 157.642 19.42C157.682 19.62 157.722 19.82 157.762 20.02C157.802 20.2 157.832 20.4 157.852 20.62C157.852 20.7 157.842 20.75 157.822 20.77C157.802 20.81 157.782 20.86 157.762 20.92C157.742 20.96 157.732 21 157.732 21.04C157.712 21.2 157.652 21.35 157.552 21.49C157.472 21.63 157.382 21.77 157.282 21.91C157.022 22.25 156.662 22.37 156.202 22.27ZM167.529 22.6C167.329 22.58 167.129 22.55 166.929 22.51C166.749 22.49 166.569 22.44 166.389 22.36L165.639 22.09C165.379 21.99 165.139 21.88 164.919 21.76C164.699 21.62 164.479 21.48 164.259 21.34C164.159 21.24 164.059 21.15 163.959 21.07C163.859 20.97 163.759 20.88 163.659 20.8C163.499 20.64 163.339 20.48 163.179 20.32C163.019 20.14 162.869 19.95 162.729 19.75L162.009 18.64C161.829 18.36 161.669 18.07 161.529 17.77C161.389 17.45 161.269 17.13 161.169 16.81C160.949 16.21 160.839 15.62 160.839 15.04V14.56C160.839 14.06 160.869 13.57 160.929 13.09C160.969 12.69 161.059 12.33 161.199 12.01C161.279 11.81 161.349 11.61 161.409 11.41C161.469 11.21 161.539 11.02 161.619 10.84L161.709 10.63C161.749 10.37 161.839 10.14 161.979 9.94C162.119 9.72 162.239 9.51 162.339 9.31C162.419 9.15 162.509 9.01 162.609 8.89C162.709 8.75 162.799 8.61 162.879 8.47C162.919 8.41 162.969 8.36 163.029 8.32C163.089 8.26 163.139 8.2 163.179 8.14C163.219 8.1 163.249 8.05 163.269 7.99C163.309 7.91 163.339 7.84 163.359 7.78C163.399 7.72 163.469 7.64 163.569 7.54C163.689 7.48 163.799 7.34 163.899 7.12C163.939 7.04 163.979 6.98 164.019 6.94C164.139 6.84 164.239 6.72 164.319 6.58C164.419 6.44 164.529 6.31 164.649 6.19C164.729 6.11 164.769 6 164.769 5.86C164.769 5.76 164.769 5.67 164.769 5.59C164.789 5.49 164.789 5.4 164.769 5.32C164.749 5.22 164.779 5.13 164.859 5.05C164.899 5.01 164.929 4.96 164.949 4.9C164.969 4.84 164.989 4.78 165.009 4.72C165.069 4.52 165.229 4.35 165.489 4.21C165.529 4.17 165.579 4.15 165.639 4.15C165.719 4.13 165.789 4.11 165.849 4.09C165.989 4.03 166.149 4.02 166.329 4.06C166.409 4.08 166.479 4.09 166.539 4.09C166.599 4.07 166.659 4.05 166.719 4.03C166.799 3.99 166.869 3.96 166.929 3.94C167.009 3.92 167.079 3.9 167.139 3.88C167.419 3.78 167.709 3.79 168.009 3.91C168.329 4.03 168.559 4.24 168.699 4.54C168.739 4.64 168.779 4.74 168.819 4.84C168.859 4.94 168.889 5.04 168.909 5.14C168.949 5.36 168.939 5.55 168.879 5.71C168.839 5.79 168.819 5.84 168.819 5.86C168.799 5.94 168.819 6.01 168.879 6.07C168.919 6.13 168.969 6.18 169.029 6.22C169.249 6.42 169.459 6.62 169.659 6.82C169.859 7 170.049 7.2 170.229 7.42C170.389 7.58 170.519 7.75 170.619 7.93C170.739 8.09 170.849 8.27 170.949 8.47C170.989 8.57 171.039 8.68 171.099 8.8C171.159 8.9 171.219 9 171.279 9.1C171.379 9.28 171.459 9.47 171.519 9.67C171.599 9.87 171.679 10.07 171.759 10.27V10.3C171.799 10.44 171.829 10.59 171.849 10.75C171.889 10.89 171.949 11.04 172.029 11.2C172.089 11.34 172.139 11.49 172.179 11.65C172.219 11.79 172.259 11.94 172.299 12.1C172.339 12.28 172.379 12.46 172.419 12.64C172.479 12.82 172.519 13 172.539 13.18C172.559 13.26 172.579 13.34 172.599 13.42C172.619 13.48 172.639 13.55 172.659 13.63C172.699 13.81 172.739 13.99 172.779 14.17C172.819 14.35 172.849 14.53 172.869 14.71L172.959 14.92C172.999 15.04 173.039 15.2 173.079 15.4C173.139 15.66 173.169 15.92 173.169 16.18C173.189 16.44 173.189 16.71 173.169 16.99C173.169 17.13 173.159 17.24 173.139 17.32C173.019 17.74 172.869 18.17 172.689 18.61C172.609 18.75 172.529 18.89 172.449 19.03C172.369 19.15 172.289 19.28 172.209 19.42L171.939 19.84C171.839 20.02 171.729 20.18 171.609 20.32C171.409 20.64 171.169 20.92 170.889 21.16C170.609 21.4 170.309 21.63 169.989 21.85C169.289 22.39 168.469 22.64 167.529 22.6ZM167.409 19.63C167.829 19.63 168.189 19.51 168.489 19.27C168.589 19.17 168.689 19.08 168.789 19C168.909 18.9 169.009 18.8 169.089 18.7C169.469 18.28 169.769 17.84 169.989 17.38L170.079 17.08C170.119 16.72 170.119 16.36 170.079 16L169.899 15.01C169.839 14.75 169.789 14.5 169.749 14.26C169.709 14 169.649 13.75 169.569 13.51C169.509 13.37 169.489 13.26 169.509 13.18C169.529 13.08 169.529 12.98 169.509 12.88C169.489 12.78 169.459 12.68 169.419 12.58C169.359 12.32 169.289 12.06 169.209 11.8C169.129 11.54 169.049 11.28 168.969 11.02C168.949 10.96 168.929 10.9 168.909 10.84C168.889 10.78 168.869 10.72 168.849 10.66C168.709 10.38 168.559 10.11 168.399 9.85C168.239 9.59 168.059 9.35 167.859 9.13C167.759 9.01 167.649 8.9 167.529 8.8C167.409 8.68 167.289 8.57 167.169 8.47C167.149 8.43 167.119 8.41 167.079 8.41C167.059 8.39 167.029 8.37 166.989 8.35C166.929 8.27 166.849 8.28 166.749 8.38C166.649 8.48 166.539 8.59 166.419 8.71C166.319 8.83 166.219 8.95 166.119 9.07C166.019 9.21 165.909 9.35 165.789 9.49C165.689 9.63 165.589 9.77 165.489 9.91C165.349 10.09 165.219 10.27 165.099 10.45C164.979 10.63 164.859 10.81 164.739 10.99C164.319 11.67 163.989 12.42 163.749 13.24C163.709 13.36 163.689 13.45 163.689 13.51C163.669 13.65 163.649 13.79 163.629 13.93C163.629 14.07 163.629 14.22 163.629 14.38V14.62C163.649 14.68 163.659 14.74 163.659 14.8C163.659 14.86 163.669 14.92 163.689 14.98C163.689 15.22 163.749 15.48 163.869 15.76C164.029 16.16 164.209 16.55 164.409 16.93C164.609 17.31 164.839 17.67 165.099 18.01C165.159 18.09 165.219 18.17 165.279 18.25C165.359 18.33 165.429 18.41 165.489 18.49C165.669 18.69 165.859 18.87 166.059 19.03C166.279 19.19 166.499 19.33 166.719 19.45C166.959 19.57 167.189 19.63 167.409 19.63ZM178.481 22.3C178.361 22.3 178.281 22.29 178.241 22.27C178.161 22.23 178.091 22.2 178.031 22.18C177.971 22.16 177.911 22.14 177.851 22.12C177.791 22.08 177.731 22.04 177.671 22C177.631 21.94 177.591 21.88 177.551 21.82C177.511 21.78 177.471 21.76 177.431 21.76C177.311 21.76 177.251 21.7 177.251 21.58C177.231 21.46 177.211 21.34 177.191 21.22C177.171 21.1 177.151 20.98 177.131 20.86C177.111 20.68 177.091 20.5 177.071 20.32C177.071 20.14 177.051 19.97 177.011 19.81V19.54C177.011 19.46 177.001 19.39 176.981 19.33C176.981 19.27 176.981 19.2 176.981 19.12C176.941 19.02 176.941 18.94 176.981 18.88C177.021 18.52 177.021 18.16 176.981 17.8C176.961 17.7 176.951 17.6 176.951 17.5C176.951 17.4 176.941 17.3 176.921 17.2C176.921 17 176.921 16.8 176.921 16.6C176.921 16.38 176.901 16.17 176.861 15.97V15.49C176.861 15.33 176.851 15.18 176.831 15.04C176.831 14.9 176.821 14.76 176.801 14.62C176.781 14.44 176.761 14.26 176.741 14.08C176.741 13.9 176.731 13.72 176.711 13.54C176.691 13.5 176.681 13.43 176.681 13.33C176.661 13.23 176.641 13.13 176.621 13.03C176.621 12.91 176.621 12.8 176.621 12.7L176.531 11.2C176.511 11.04 176.491 10.89 176.471 10.75C176.471 10.59 176.471 10.44 176.471 10.3C176.451 10.06 176.431 9.82 176.411 9.58C176.391 9.34 176.371 9.11 176.351 8.89C176.351 8.85 176.341 8.81 176.321 8.77C176.321 8.73 176.321 8.7 176.321 8.68C176.321 8.44 176.311 8.2 176.291 7.96C176.271 7.72 176.251 7.47 176.231 7.21L176.141 6.37C176.081 6.05 176.071 5.7 176.111 5.32C176.111 5.14 176.181 4.99 176.321 4.87C176.361 4.83 176.391 4.81 176.411 4.81C176.431 4.79 176.451 4.77 176.471 4.75C176.571 4.73 176.621 4.66 176.621 4.54C176.621 4.5 176.661 4.48 176.741 4.48H176.891C176.911 4.48 176.921 4.48 176.921 4.48C176.941 4.46 176.961 4.45 176.981 4.45C177.021 4.43 177.051 4.41 177.071 4.39C177.111 4.35 177.141 4.33 177.161 4.33C177.201 4.33 177.241 4.34 177.281 4.36C177.321 4.36 177.361 4.37 177.401 4.39C177.441 4.39 177.471 4.38 177.491 4.36C177.591 4.34 177.691 4.35 177.791 4.39C177.911 4.41 178.011 4.44 178.091 4.48C178.211 4.5 178.301 4.58 178.361 4.72C178.421 4.9 178.471 5.08 178.511 5.26C178.571 5.42 178.611 5.59 178.631 5.77V6.01C178.671 6.15 178.691 6.3 178.691 6.46C178.691 6.6 178.691 6.75 178.691 6.91C178.691 7.05 178.691 7.19 178.691 7.33C178.711 7.45 178.731 7.57 178.751 7.69C178.751 7.75 178.751 7.81 178.751 7.87C178.751 7.93 178.761 7.99 178.781 8.05C178.781 8.17 178.781 8.29 178.781 8.41C178.801 8.53 178.821 8.66 178.841 8.8C178.861 9.02 178.881 9.25 178.901 9.49C178.921 9.73 178.931 9.97 178.931 10.21C178.931 10.31 178.931 10.42 178.931 10.54C178.931 10.64 178.941 10.74 178.961 10.84C178.981 10.9 178.991 10.96 178.991 11.02C178.991 11.08 178.991 11.14 178.991 11.2V11.8C178.991 11.92 179.001 12.02 179.021 12.1C179.061 12.24 179.071 12.38 179.051 12.52C179.051 12.64 179.061 12.77 179.081 12.91L179.171 14.29C179.191 14.49 179.201 14.7 179.201 14.92C179.221 15.12 179.231 15.33 179.231 15.55C179.231 15.63 179.231 15.72 179.231 15.82C179.231 15.9 179.241 15.98 179.261 16.06C179.281 16.12 179.291 16.18 179.291 16.24C179.291 16.3 179.291 16.36 179.291 16.42C179.311 16.44 179.311 16.48 179.291 16.54C179.291 16.58 179.301 16.62 179.321 16.66C179.361 16.8 179.381 16.94 179.381 17.08C179.381 17.22 179.381 17.37 179.381 17.53C179.381 17.61 179.381 17.7 179.381 17.8C179.401 17.88 179.411 17.97 179.411 18.07C179.431 18.17 179.441 18.28 179.441 18.4C179.441 18.52 179.441 18.63 179.441 18.73C179.461 18.83 179.471 18.94 179.471 19.06C179.471 19.16 179.481 19.26 179.501 19.36C179.521 19.4 179.531 19.44 179.531 19.48C179.531 19.7 179.551 19.92 179.591 20.14C179.631 20.36 179.671 20.58 179.711 20.8C179.731 20.86 179.741 20.93 179.741 21.01C179.741 21.07 179.741 21.13 179.741 21.19C179.741 21.25 179.721 21.3 179.681 21.34C179.601 21.4 179.541 21.52 179.501 21.7C179.501 21.76 179.471 21.81 179.411 21.85C179.271 21.91 179.151 21.99 179.051 22.09C178.891 22.23 178.701 22.3 178.481 22.3ZM188.562 21.97C188.523 21.95 188.463 21.94 188.383 21.94C188.343 21.94 188.303 21.91 188.263 21.85C188.223 21.79 188.183 21.74 188.143 21.7C188.103 21.64 188.063 21.57 188.023 21.49C187.963 21.41 187.913 21.41 187.873 21.49H187.813C187.813 21.47 187.803 21.46 187.783 21.46C187.783 21.44 187.783 21.43 187.783 21.43C187.723 21.15 187.633 20.89 187.513 20.65C187.453 20.49 187.393 20.33 187.333 20.17C187.293 19.99 187.263 19.81 187.243 19.63L187.063 18.31L186.973 17.23V17.17C186.933 16.93 186.913 16.69 186.913 16.45C186.913 16.19 186.913 15.93 186.913 15.67C186.893 15.53 186.883 15.4 186.883 15.28C186.883 15.14 186.873 15 186.853 14.86C186.833 14.7 186.813 14.54 186.793 14.38C186.793 14.22 186.793 14.07 186.793 13.93L186.823 11.56V8.35C186.783 8.23 186.723 8.17 186.643 8.17C186.603 8.17 186.553 8.18 186.493 8.2C186.453 8.2 186.413 8.2 186.373 8.2L185.022 8.56C184.843 8.62 184.663 8.68 184.483 8.74C184.303 8.78 184.123 8.83 183.943 8.89C183.803 8.91 183.663 8.93 183.523 8.95C183.403 8.95 183.273 8.95 183.133 8.95C183.033 8.95 182.923 8.91 182.803 8.83C182.663 8.77 182.543 8.69 182.443 8.59C182.343 8.49 182.243 8.38 182.143 8.26L182.083 8.17C182.043 8.03 182.003 7.9 181.963 7.78C181.943 7.64 181.943 7.5 181.963 7.36C181.983 7.18 182.023 7.01 182.083 6.85C182.163 6.69 182.273 6.55 182.413 6.43C182.473 6.39 182.523 6.34 182.563 6.28C182.623 6.22 182.683 6.16 182.743 6.1C182.823 6.06 182.873 6.04 182.893 6.04C183.013 6.04 183.123 6.02 183.223 5.98C183.323 5.92 183.423 5.88 183.523 5.86C183.623 5.84 183.723 5.82 183.823 5.8C183.923 5.78 184.023 5.76 184.123 5.74C184.403 5.66 184.683 5.59 184.963 5.53C185.243 5.45 185.523 5.39 185.803 5.35L187.423 5.08C187.463 5.06 187.493 5.05 187.513 5.05C187.553 5.05 187.583 5.04 187.603 5.02C187.723 4.98 187.843 4.95 187.963 4.93C188.083 4.91 188.203 4.92 188.323 4.96C188.363 4.98 188.393 4.99 188.413 4.99C188.453 4.97 188.483 4.96 188.503 4.96C188.843 4.92 189.183 4.88 189.523 4.84C189.863 4.8 190.193 4.75 190.513 4.69C190.773 4.65 191.033 4.61 191.293 4.57C191.553 4.53 191.813 4.5 192.073 4.48C192.273 4.44 192.473 4.41 192.673 4.39C192.873 4.37 193.073 4.35 193.273 4.33C193.433 4.31 193.593 4.29 193.753 4.27C193.933 4.25 194.103 4.23 194.263 4.21C194.423 4.19 194.573 4.19 194.713 4.21C194.873 4.21 195.033 4.21 195.193 4.21C195.293 4.21 195.383 4.24 195.463 4.3C195.563 4.36 195.653 4.41 195.733 4.45C195.813 4.51 195.923 4.61 196.062 4.75C196.103 4.79 196.143 4.88 196.183 5.02C196.202 5.08 196.223 5.15 196.243 5.23C196.263 5.29 196.283 5.36 196.303 5.44C196.343 5.62 196.323 5.79 196.243 5.95L196.062 6.37C196.043 6.43 196.013 6.49 195.973 6.55C195.953 6.59 195.923 6.63 195.883 6.67C195.843 6.71 195.823 6.73 195.823 6.73C195.743 6.79 195.653 6.85 195.553 6.91C195.473 6.97 195.373 7.01 195.253 7.03L193.963 7.12C193.843 7.12 193.723 7.13 193.603 7.15C193.483 7.15 193.353 7.16 193.213 7.18H193.063C192.743 7.2 192.433 7.23 192.133 7.27C191.833 7.31 191.533 7.35 191.233 7.39L190.033 7.57C189.973 7.57 189.933 7.58 189.913 7.6C189.833 7.6 189.773 7.66 189.733 7.78V7.87C189.733 8.07 189.733 8.27 189.733 8.47C189.733 8.65 189.743 8.84 189.763 9.04C189.823 9.32 189.823 9.6 189.763 9.88C189.743 9.94 189.723 10 189.703 10.06C189.703 10.1 189.703 10.14 189.703 10.18C189.723 10.42 189.703 10.68 189.643 10.96C189.643 11.02 189.643 11.08 189.643 11.14C189.643 11.2 189.653 11.26 189.673 11.32C189.693 11.4 189.703 11.49 189.703 11.59C189.703 11.69 189.703 11.79 189.703 11.89V13.45C189.703 13.53 189.693 13.63 189.673 13.75C189.673 13.85 189.673 13.95 189.673 14.05C189.673 14.13 189.673 14.22 189.673 14.32C189.693 14.42 189.703 14.52 189.703 14.62C189.703 14.76 189.703 14.9 189.703 15.04C189.723 15.18 189.723 15.33 189.703 15.49V16.42C189.703 16.44 189.693 16.46 189.673 16.48C189.673 16.5 189.683 16.53 189.703 16.57C189.723 16.75 189.733 16.94 189.733 17.14C189.733 17.32 189.753 17.5 189.793 17.68C189.793 17.74 189.793 17.8 189.793 17.86C189.813 17.92 189.813 17.98 189.793 18.04C189.793 18.22 189.813 18.41 189.853 18.61C189.893 18.79 189.923 18.97 189.943 19.15C189.983 19.37 190.023 19.59 190.063 19.81C190.123 20.03 190.173 20.25 190.213 20.47L190.303 20.89C190.303 20.95 190.273 21 190.213 21.04C190.213 21.04 190.203 21.04 190.183 21.04C190.183 21.04 190.173 21.05 190.153 21.07C190.053 21.11 190.013 21.17 190.033 21.25V21.4C190.033 21.4 190.023 21.41 190.003 21.43C190.003 21.45 189.993 21.46 189.973 21.46C189.873 21.46 189.793 21.5 189.733 21.58C189.673 21.66 189.603 21.73 189.523 21.79C189.463 21.83 189.383 21.87 189.283 21.91C189.023 22.01 188.783 22.03 188.562 21.97ZM202.442 22.21C202.322 22.21 202.242 22.2 202.202 22.18C202.102 22.14 202.002 22.12 201.902 22.12C201.822 22.14 201.732 22.15 201.632 22.15C201.612 22.15 201.592 22.15 201.572 22.15C201.552 22.17 201.532 22.18 201.512 22.18C201.372 22.2 201.232 22.21 201.092 22.21C200.972 22.21 200.852 22.19 200.732 22.15C200.712 22.13 200.692 22.12 200.672 22.12C200.532 22.14 200.412 22.1 200.312 22C200.212 21.9 200.112 21.81 200.012 21.73C199.912 21.63 199.862 21.52 199.862 21.4L199.772 21.16C199.712 21.02 199.692 20.89 199.712 20.77C199.732 20.73 199.732 20.69 199.712 20.65C199.712 20.61 199.712 20.57 199.712 20.53C199.692 20.49 199.682 20.45 199.682 20.41C199.682 20.35 199.672 20.3 199.652 20.26C199.612 20.08 199.582 19.9 199.562 19.72C199.562 19.52 199.572 19.33 199.592 19.15C199.612 19.03 199.682 18.83 199.802 18.55C199.922 18.25 199.992 18.07 200.012 18.01C200.072 17.91 200.102 17.83 200.102 17.77C200.082 17.55 200.072 17.33 200.072 17.11C200.092 16.87 200.102 16.64 200.102 16.42C200.102 16.28 200.132 16.17 200.192 16.09C200.272 15.95 200.282 15.8 200.222 15.64L200.132 15.31C200.012 15.09 200.022 14.9 200.162 14.74C200.162 14.72 200.162 14.71 200.162 14.71C200.182 14.69 200.192 14.67 200.192 14.65C200.232 14.61 200.242 14.56 200.222 14.5C200.202 14.42 200.192 14.36 200.192 14.32C200.192 14.24 200.202 14.16 200.222 14.08C200.262 13.98 200.272 13.89 200.252 13.81C200.252 13.81 200.232 13.79 200.192 13.75C200.172 13.71 200.162 13.63 200.162 13.51C200.182 13.39 200.192 13.32 200.192 13.3V12.46C200.212 12.36 200.222 12.27 200.222 12.19C200.222 12.09 200.232 11.99 200.252 11.89C200.272 11.77 200.272 11.65 200.252 11.53C200.252 11.39 200.252 11.25 200.252 11.11C200.232 11.01 200.212 10.9 200.192 10.78C200.192 10.66 200.192 10.54 200.192 10.42C200.172 10.38 200.162 10.33 200.162 10.27C200.162 10.21 200.162 10.16 200.162 10.12C200.142 10.02 200.122 9.92 200.102 9.82C200.102 9.72 200.102 9.62 200.102 9.52C200.102 9.48 200.062 9.35 199.982 9.13C199.902 8.89 199.872 8.69 199.892 8.53C199.912 8.49 199.922 8.44 199.922 8.38C199.922 8.32 199.902 8.27 199.862 8.23C199.822 8.21 199.802 8.17 199.802 8.11V8.02C199.862 7.78 199.832 7.54 199.712 7.3C199.632 7.18 199.602 7.06 199.622 6.94C199.622 6.78 199.552 6.66 199.412 6.58C199.312 6.48 199.222 6.36 199.142 6.22C199.062 6.08 199.012 5.94 198.992 5.8C198.972 5.7 198.962 5.6 198.962 5.5C198.962 5.4 198.962 5.31 198.962 5.23C198.962 5.15 198.972 5.1 198.992 5.08C199.072 5 199.112 4.91 199.112 4.81C199.112 4.69 199.122 4.6 199.142 4.54C199.162 4.52 199.182 4.51 199.202 4.51C199.222 4.51 199.242 4.5 199.262 4.48C199.342 4.46 199.382 4.39 199.382 4.27C199.342 4.19 199.322 4.12 199.322 4.06C199.302 3.98 199.332 3.91 199.412 3.85C199.452 3.77 199.502 3.75 199.562 3.79C199.702 3.85 199.862 3.83 200.042 3.73C200.122 3.69 200.172 3.67 200.192 3.67C200.252 3.67 200.282 3.67 200.282 3.67C200.302 3.65 200.362 3.64 200.462 3.64C200.582 3.66 200.692 3.62 200.792 3.52C200.932 3.38 201.102 3.31 201.302 3.31H203.162C203.622 3.33 204.082 3.33 204.542 3.31C205.002 3.29 205.452 3.28 205.892 3.28C205.992 3.28 206.072 3.28 206.132 3.28C206.212 3.26 206.292 3.24 206.372 3.22C206.492 3.16 206.632 3.13 206.792 3.13H207.482C207.642 3.13 207.782 3.13 207.902 3.13C208.042 3.11 208.182 3.09 208.322 3.07C208.402 3.05 208.472 3.04 208.532 3.04C208.612 3.04 208.692 3.04 208.772 3.04C208.852 3.04 208.932 3.04 209.012 3.04C209.092 3.04 209.172 3.03 209.252 3.01C209.412 2.99 209.582 2.98 209.762 2.98C209.942 2.96 210.112 2.95 210.272 2.95C210.352 2.95 210.422 2.95 210.482 2.95C210.562 2.93 210.642 2.91 210.722 2.89C210.882 2.85 211.032 2.83 211.172 2.83C211.332 2.81 211.482 2.79 211.622 2.77C211.782 2.75 211.932 2.73 212.072 2.71C212.232 2.69 212.382 2.67 212.522 2.65C212.702 2.65 212.832 2.67 212.912 2.71C213.032 2.79 213.142 2.86 213.242 2.92C213.362 2.98 213.472 3.06 213.572 3.16C213.652 3.24 213.702 3.31 213.722 3.37C213.742 3.45 213.762 3.53 213.782 3.61C213.802 3.69 213.822 3.78 213.842 3.88V4.09C213.822 4.19 213.802 4.3 213.782 4.42C213.782 4.52 213.772 4.63 213.752 4.75C213.712 4.83 213.662 4.9 213.602 4.96L213.062 5.5C212.862 5.56 212.662 5.6 212.462 5.62C212.282 5.64 212.092 5.64 211.892 5.62H211.682C211.582 5.64 211.482 5.65 211.382 5.65C211.282 5.65 211.182 5.64 211.082 5.62C210.962 5.6 210.842 5.6 210.722 5.62C210.602 5.62 210.482 5.62 210.362 5.62C210.282 5.62 210.202 5.63 210.122 5.65C210.062 5.65 209.992 5.64 209.912 5.62C209.812 5.6 209.712 5.6 209.612 5.62C209.532 5.62 209.442 5.63 209.342 5.65C209.262 5.65 209.172 5.66 209.072 5.68C208.992 5.68 208.902 5.68 208.802 5.68C208.542 5.72 208.262 5.74 207.962 5.74C207.682 5.74 207.402 5.76 207.122 5.8C206.942 5.78 206.772 5.79 206.612 5.83C206.452 5.85 206.282 5.87 206.102 5.89C205.942 5.91 205.772 5.92 205.592 5.92C205.412 5.92 205.242 5.94 205.082 5.98C204.882 5.98 204.682 6.01 204.482 6.07C204.302 6.11 204.112 6.14 203.912 6.16L203.702 6.19C203.562 6.19 203.432 6.21 203.312 6.25C203.192 6.27 203.062 6.3 202.922 6.34C202.842 6.36 202.762 6.38 202.682 6.4C202.602 6.4 202.512 6.41 202.412 6.43C202.352 6.43 202.282 6.45 202.202 6.49C202.142 6.51 202.112 6.57 202.112 6.67L202.202 6.94C202.222 6.98 202.212 7.08 202.172 7.24C202.152 7.4 202.132 7.52 202.112 7.6C202.112 7.66 202.122 7.72 202.142 7.78C202.162 7.84 202.182 7.9 202.202 7.96C202.262 8.12 202.292 8.3 202.292 8.5C202.292 8.68 202.312 8.85 202.352 9.01C202.372 9.09 202.382 9.18 202.382 9.28C202.382 9.36 202.392 9.45 202.412 9.55C202.412 9.59 202.412 9.64 202.412 9.7C202.432 9.74 202.442 9.79 202.442 9.85C202.442 9.91 202.432 9.95 202.412 9.97C202.352 10.05 202.322 10.14 202.322 10.24C202.322 10.34 202.322 10.44 202.322 10.54C202.422 10.74 202.472 10.94 202.472 11.14C202.472 11.34 202.472 11.54 202.472 11.74C202.472 11.8 202.522 11.82 202.622 11.8H202.652C202.692 11.72 202.732 11.66 202.772 11.62C202.832 11.62 202.902 11.6 202.982 11.56C203.042 11.52 203.122 11.5 203.222 11.5C203.382 11.52 203.532 11.52 203.672 11.5C203.812 11.46 203.952 11.42 204.092 11.38C205.032 11.14 205.912 10.83 206.732 10.45C206.952 10.35 207.182 10.27 207.422 10.21C207.662 10.13 207.902 10.08 208.142 10.06H208.232C208.412 10.04 208.592 10.02 208.772 10C208.952 9.98 209.132 9.97 209.312 9.97C209.552 9.95 209.782 9.92 210.002 9.88C210.242 9.84 210.482 9.81 210.722 9.79C210.862 9.75 210.992 9.72 211.112 9.7C211.232 9.66 211.362 9.61 211.502 9.55C211.762 9.45 212.002 9.4 212.222 9.4C212.382 9.42 212.532 9.46 212.672 9.52C212.812 9.56 212.952 9.62 213.092 9.7C213.392 9.9 213.542 10.2 213.542 10.6C213.542 10.76 213.522 10.92 213.482 11.08C213.462 11.24 213.452 11.4 213.452 11.56C213.452 11.6 213.432 11.64 213.392 11.68L213.302 11.83C213.282 11.91 213.262 11.99 213.242 12.07C213.222 12.15 213.172 12.21 213.092 12.25C212.972 12.35 212.842 12.46 212.702 12.58C212.582 12.68 212.442 12.75 212.282 12.79C212.202 12.81 212.122 12.83 212.042 12.85C211.982 12.87 211.912 12.88 211.832 12.88C211.512 12.88 211.182 12.9 210.842 12.94C210.522 12.98 210.192 13.02 209.852 13.06C209.592 13.08 209.332 13.11 209.072 13.15C208.832 13.19 208.582 13.21 208.322 13.21C208.082 13.21 207.812 13.26 207.512 13.36C207.312 13.4 207.102 13.44 206.882 13.48C206.662 13.52 206.442 13.55 206.222 13.57C206.062 13.59 205.892 13.62 205.712 13.66C205.552 13.68 205.392 13.7 205.232 13.72L204.722 13.81C204.682 13.83 204.622 13.84 204.542 13.84C204.402 13.88 204.262 13.91 204.122 13.93C203.982 13.95 203.842 13.98 203.702 14.02C203.562 14.04 203.422 14.07 203.282 14.11C203.162 14.15 203.032 14.19 202.892 14.23C202.792 14.25 202.712 14.29 202.652 14.35C202.592 14.39 202.542 14.45 202.502 14.53C202.482 14.59 202.482 14.65 202.502 14.71C202.522 14.79 202.512 14.87 202.472 14.95C202.492 15.15 202.502 15.35 202.502 15.55C202.522 15.75 202.522 15.95 202.502 16.15C202.542 16.31 202.552 16.47 202.532 16.63C202.532 16.79 202.522 16.95 202.502 17.11C202.462 17.35 202.472 17.55 202.532 17.71C202.592 17.97 202.572 18.24 202.472 18.52C202.432 18.64 202.432 18.72 202.472 18.76C202.512 18.82 202.512 18.89 202.472 18.97V19.15C202.452 19.31 202.522 19.39 202.682 19.39H202.742C202.882 19.39 203.022 19.44 203.162 19.54C203.262 19.64 203.382 19.67 203.522 19.63L204.362 19.54C204.482 19.52 204.602 19.51 204.722 19.51C204.842 19.49 204.962 19.48 205.082 19.48C205.122 19.46 205.182 19.47 205.262 19.51C205.362 19.57 205.452 19.58 205.532 19.54C205.572 19.5 205.622 19.47 205.682 19.45C205.762 19.43 205.822 19.4 205.862 19.36C205.982 19.24 206.132 19.2 206.312 19.24C206.472 19.28 206.602 19.27 206.702 19.21C206.882 19.15 207.052 19.13 207.212 19.15C207.312 19.17 207.412 19.16 207.512 19.12C207.612 19.08 207.712 19.06 207.812 19.06C207.852 19.06 207.882 19.07 207.902 19.09C207.922 19.09 207.942 19.08 207.962 19.06C208.002 19.06 208.042 19.05 208.082 19.03C208.122 19.01 208.152 19 208.172 19C208.312 18.94 208.442 18.92 208.562 18.94C208.662 18.94 208.712 18.94 208.712 18.94C208.792 18.92 208.862 18.92 208.922 18.94C209.002 18.96 209.072 18.99 209.132 19.03C209.232 19.05 209.312 19.08 209.372 19.12C209.452 19.16 209.532 19.19 209.612 19.21C209.652 19.21 209.682 19.22 209.702 19.24C209.802 19.32 209.922 19.39 210.062 19.45C210.222 19.51 210.312 19.58 210.332 19.66C210.372 19.78 210.392 19.9 210.392 20.02C210.392 20.12 210.402 20.23 210.422 20.35C210.422 20.41 210.412 20.47 210.392 20.53C210.392 20.59 210.382 20.65 210.362 20.71C210.322 20.79 210.272 20.88 210.212 20.98C210.172 21.08 210.112 21.17 210.032 21.25C209.992 21.29 209.952 21.33 209.912 21.37C209.892 21.41 209.862 21.45 209.822 21.49C209.742 21.57 209.652 21.64 209.552 21.7C209.452 21.76 209.342 21.79 209.222 21.79C209.142 21.79 209.082 21.8 209.042 21.82C208.962 21.86 208.882 21.88 208.802 21.88C208.722 21.88 208.632 21.88 208.532 21.88C208.392 21.9 208.252 21.92 208.112 21.94C207.992 21.94 207.862 21.93 207.722 21.91C207.642 21.89 207.572 21.89 207.512 21.91C207.312 21.97 207.112 21.98 206.912 21.94C206.712 21.94 206.512 21.95 206.312 21.97C206.132 21.97 205.952 21.97 205.772 21.97H205.382C205.322 21.97 205.272 21.98 205.232 22C205.152 22.04 205.052 22.06 204.932 22.06C204.832 22.06 204.732 22.05 204.632 22.03H204.332C204.312 22.03 204.282 22.03 204.242 22.03C204.202 22.05 204.162 22.05 204.122 22.03C204.062 22.01 204.002 22 203.942 22C203.902 22.02 203.852 22.04 203.792 22.06C203.752 22.06 203.712 22.06 203.672 22.06C203.652 22.08 203.622 22.09 203.582 22.09C203.382 22.07 203.192 22.07 203.012 22.09C202.832 22.13 202.642 22.17 202.442 22.21ZM222.087 23.47L221.577 23.38C221.317 23.34 221.047 23.3 220.767 23.26C220.507 23.22 220.237 23.19 219.957 23.17C219.677 23.17 219.397 23.09 219.117 22.93C218.857 22.79 218.677 22.57 218.577 22.27C218.557 22.17 218.527 22.07 218.487 21.97C218.467 21.87 218.447 21.77 218.427 21.67C218.427 21.43 218.477 21.25 218.577 21.13C218.677 21.03 218.757 20.93 218.817 20.83C218.897 20.73 218.977 20.64 219.057 20.56C219.097 20.52 219.137 20.49 219.177 20.47C219.217 20.45 219.257 20.43 219.297 20.41C219.397 20.35 219.497 20.31 219.597 20.29C219.697 20.25 219.797 20.22 219.897 20.2C219.937 20.18 219.967 20.18 219.987 20.2C220.027 20.2 220.057 20.2 220.077 20.2C220.177 20.22 220.287 20.24 220.407 20.26C220.527 20.26 220.637 20.28 220.737 20.32L221.997 20.5C222.277 20.54 222.527 20.5 222.747 20.38C222.827 20.34 222.897 20.3 222.957 20.26C223.037 20.22 223.107 20.18 223.167 20.14C223.607 19.88 223.987 19.61 224.307 19.33C224.547 19.11 224.777 18.89 224.997 18.67C225.217 18.45 225.417 18.21 225.597 17.95C225.737 17.77 225.827 17.59 225.867 17.41C225.907 17.21 225.917 17.01 225.897 16.81L225.807 16.57C225.787 16.47 225.747 16.39 225.687 16.33C225.627 16.27 225.567 16.2 225.507 16.12C225.387 16.02 225.267 15.91 225.147 15.79C225.047 15.67 224.937 15.57 224.817 15.49C224.517 15.25 224.217 15.02 223.917 14.8C223.637 14.58 223.347 14.36 223.047 14.14C223.027 14.1 222.967 14.06 222.867 14.02C222.687 13.9 222.507 13.77 222.327 13.63C222.167 13.47 222.007 13.32 221.847 13.18C221.647 12.98 221.427 12.79 221.187 12.61C221.067 12.55 220.957 12.45 220.857 12.31C220.777 12.21 220.657 12.11 220.497 12.01C220.357 11.93 220.227 11.84 220.107 11.74C219.987 11.62 219.867 11.51 219.747 11.41L219.357 11.05C219.277 10.95 219.187 10.86 219.087 10.78C219.007 10.68 218.917 10.58 218.817 10.48C218.777 10.38 218.717 10.3 218.637 10.24C218.577 10.18 218.517 10.11 218.457 10.03C218.437 9.99 218.407 9.95 218.367 9.91C218.327 9.85 218.297 9.79 218.277 9.73C218.157 9.49 218.027 9.25 217.887 9.01C217.767 8.77 217.657 8.52 217.557 8.26C217.497 8.1 217.437 7.95 217.377 7.81C217.337 7.65 217.297 7.5 217.257 7.36C217.237 7.2 217.197 7.06 217.137 6.94C217.097 6.8 217.057 6.66 217.017 6.52C216.977 6.3 216.927 6.09 216.867 5.89C216.827 5.67 216.787 5.46 216.747 5.26L216.687 5.02C216.667 4.8 216.667 4.59 216.687 4.39C216.727 4.11 216.787 3.86 216.867 3.64C216.947 3.4 217.077 3.21 217.257 3.07C217.457 2.91 217.657 2.75 217.857 2.59C218.057 2.43 218.267 2.3 218.487 2.2C218.527 2.2 218.557 2.19 218.577 2.17C218.777 2.01 218.997 1.9 219.237 1.84C219.477 1.76 219.717 1.69 219.957 1.63C220.917 1.35 221.907 1.14 222.927 0.999999H223.227C223.427 0.999999 223.617 0.999999 223.797 0.999999C223.977 0.999999 224.167 0.989999 224.367 0.969999C224.607 0.969999 224.847 0.999999 225.087 1.06C225.327 1.1 225.557 1.17 225.777 1.27C225.937 1.35 226.097 1.44 226.257 1.54C226.417 1.62 226.567 1.71 226.707 1.81C226.867 1.93 226.967 2.06 227.007 2.2L227.097 2.41C227.197 2.59 227.247 2.78 227.247 2.98C227.267 3.16 227.257 3.35 227.217 3.55C227.217 3.61 227.207 3.68 227.187 3.76C227.187 3.82 227.187 3.88 227.187 3.94C227.127 4.38 226.917 4.72 226.557 4.96C226.337 5.16 226.047 5.24 225.687 5.2C225.607 5.16 225.567 5.18 225.567 5.26C225.567 5.34 225.517 5.38 225.417 5.38H225.237C225.117 5.38 224.997 5.32 224.877 5.2C224.777 5.1 224.727 5.02 224.727 4.96C224.727 4.88 224.767 4.82 224.847 4.78C224.807 4.68 224.767 4.59 224.727 4.51C224.687 4.43 224.647 4.37 224.607 4.33C224.547 4.23 224.457 4.16 224.337 4.12C224.237 4.1 224.137 4.08 224.037 4.06C223.937 4.04 223.837 4.02 223.737 4C223.657 4 223.567 4 223.467 4C223.367 3.98 223.267 3.96 223.167 3.94C223.107 3.92 223.017 3.93 222.897 3.97C222.837 3.99 222.777 4.01 222.717 4.03C222.657 4.03 222.587 4.02 222.507 4C222.447 4 222.377 4 222.297 4C222.237 4 222.167 4.02 222.087 4.06L221.517 4.15C221.197 4.21 220.887 4.33 220.587 4.51C220.527 4.53 220.467 4.55 220.407 4.57C220.347 4.59 220.287 4.59 220.227 4.57C220.107 4.55 220.007 4.58 219.927 4.66C219.907 4.7 219.857 4.73 219.777 4.75C219.717 4.75 219.667 4.77 219.627 4.81C219.547 4.89 219.507 4.97 219.507 5.05C219.527 5.09 219.537 5.15 219.537 5.23L220.167 7.06C220.287 7.38 220.437 7.68 220.617 7.96C220.817 8.22 221.027 8.48 221.247 8.74C221.587 9.14 221.937 9.48 222.297 9.76L223.257 10.57C223.457 10.75 223.667 10.92 223.887 11.08C224.107 11.24 224.317 11.4 224.517 11.56C224.817 11.78 225.117 12.01 225.417 12.25C225.717 12.47 226.017 12.7 226.317 12.94C226.557 13.14 226.787 13.34 227.007 13.54C227.247 13.72 227.467 13.92 227.667 14.14C227.807 14.3 227.947 14.46 228.087 14.62C228.227 14.78 228.347 14.96 228.447 15.16C228.587 15.38 228.707 15.64 228.807 15.94C228.927 16.32 228.977 16.68 228.957 17.02C228.937 17.06 228.927 17.12 228.927 17.2C228.927 17.44 228.897 17.67 228.837 17.89C228.797 18.09 228.727 18.3 228.627 18.52C228.527 18.72 228.417 18.93 228.297 19.15C228.197 19.35 228.077 19.55 227.937 19.75C227.737 20.01 227.527 20.26 227.307 20.5C227.107 20.72 226.877 20.94 226.617 21.16C226.477 21.28 226.337 21.41 226.197 21.55C226.057 21.67 225.907 21.78 225.747 21.88C225.647 21.96 225.547 22.03 225.447 22.09C225.347 22.17 225.247 22.25 225.147 22.33C225.067 22.37 224.987 22.42 224.907 22.48C224.827 22.54 224.747 22.6 224.667 22.66C224.587 22.74 224.487 22.8 224.367 22.84C224.267 22.9 224.167 22.95 224.067 22.99L223.197 23.35C223.017 23.41 222.837 23.45 222.657 23.47C222.477 23.49 222.287 23.49 222.087 23.47Z" fill="#353535"/>
</svg>
