<svg width="57" height="24" viewBox="0 0 57 24" fill="none" xmlns="http://www.w3.org/2000/svg">
<path d="M1.96734 23.4C1.74734 23.36 1.59734 23.26 1.51734 23.1C1.45734 22.98 1.40734 22.85 1.36734 22.71C1.34734 22.59 1.32734 22.47 1.30734 22.35C1.28734 22.19 1.26734 22.02 1.24734 21.84C1.22734 21.68 1.20734 21.52 1.18734 21.36C1.16734 21.16 1.13734 20.97 1.09734 20.79C1.05734 20.61 0.997344 20.42 0.917344 20.22C0.897344 20.16 0.877344 20.11 0.857344 20.07C0.837344 20.01 0.807344 19.95 0.767344 19.89L0.407344 19.14C0.307344 18.94 0.257344 18.74 0.257344 18.54C0.237344 18.28 0.227344 18.03 0.227344 17.79C0.227344 17.55 0.237344 17.31 0.257344 17.07C0.257344 16.99 0.277344 16.89 0.317344 16.77C0.357344 16.57 0.397344 16.38 0.437344 16.2C0.497344 16 0.537344 15.81 0.557344 15.63C0.597344 15.39 0.637344 15.16 0.677344 14.94C0.717344 14.7 0.747344 14.47 0.767344 14.25C0.807344 14.03 0.837344 13.81 0.857344 13.59C0.877344 13.37 0.897344 13.15 0.917344 12.93C0.937344 12.77 0.957344 12.62 0.977344 12.48C0.997344 12.32 1.01734 12.17 1.03734 12.03C1.05734 11.97 1.06734 11.88 1.06734 11.76C1.06734 11.66 1.07734 11.56 1.09734 11.46C1.11734 11.34 1.13734 11.23 1.15734 11.13C1.19734 10.97 1.21734 10.81 1.21734 10.65C1.23734 10.47 1.25734 10.3 1.27734 10.14C1.29734 10.08 1.30734 10 1.30734 9.9C1.36734 9.68 1.40734 9.45 1.42734 9.21C1.46734 8.97 1.49734 8.73 1.51734 8.49L1.60734 7.98C1.64734 7.76 1.67734 7.54 1.69734 7.32C1.71734 7.08 1.73734 6.85 1.75734 6.63C1.79734 6.41 1.81734 6.19 1.81734 5.97C1.81734 5.73 1.81734 5.5 1.81734 5.28C1.81734 5.16 1.81734 5.05 1.81734 4.95C1.83734 4.83 1.85734 4.71 1.87734 4.59C1.91734 4.07 1.87734 3.57 1.75734 3.09C1.73734 3.07 1.72734 3.05 1.72734 3.03C1.64734 2.77 1.63734 2.53 1.69734 2.31C1.75734 2.09 1.85734 1.88 1.99734 1.68C2.23734 1.28 2.57734 1.04 3.01734 0.959999C3.09734 0.939999 3.16734 0.929999 3.22734 0.929999C3.28734 0.909999 3.35734 0.909999 3.43734 0.929999C3.51734 0.969999 3.58734 0.989998 3.64734 0.989998C3.82734 1.01 3.99734 1.09 4.15734 1.23L4.42734 1.59C4.56734 1.83 4.69734 2.01 4.81734 2.13C5.13734 2.53 5.41734 2.96 5.65734 3.42C5.79734 3.68 5.91734 3.94 6.01734 4.2C6.13734 4.44 6.25734 4.68 6.37734 4.92C6.43734 5.06 6.48734 5.19 6.52734 5.31C6.58734 5.43 6.64734 5.55 6.70734 5.67C6.74734 5.73 6.80734 5.8 6.88734 5.88C6.96734 6 7.00734 6.09 7.00734 6.15C7.04734 6.23 7.03734 6.3 6.97734 6.36C6.95734 6.38 6.95734 6.41 6.97734 6.45C6.99734 6.49 7.01734 6.53 7.03734 6.57C7.05734 6.59 7.09734 6.71 7.15734 6.93C7.21734 7.13 7.23734 7.2 7.21734 7.14C7.25734 7.24 7.31734 7.29 7.39734 7.29C7.45734 7.31 7.49734 7.35 7.51734 7.41C7.53734 7.45 7.50734 7.5 7.42734 7.56C7.36734 7.58 7.36734 7.66 7.42734 7.8C7.48734 7.92 7.52734 8 7.54734 8.04C7.62734 8.24 7.69734 8.44 7.75734 8.64C7.81734 8.82 7.88734 9.01 7.96734 9.21C8.06734 9.47 8.15734 9.74 8.23734 10.02C8.31734 10.3 8.39734 10.58 8.47734 10.86C8.53734 11.06 8.59734 11.26 8.65734 11.46C8.73734 11.64 8.80734 11.82 8.86734 12C8.86734 12.04 8.88734 12.06 8.92734 12.06L8.98734 12C8.98734 11.96 9.00734 11.9 9.04734 11.82C9.08734 11.6 9.13734 11.38 9.19734 11.16C9.25734 10.92 9.31734 10.69 9.37734 10.47C9.47734 10.17 9.55734 9.87 9.61734 9.57C9.69734 9.27 9.77734 8.97 9.85734 8.67C9.89734 8.49 9.94734 8.31 10.0073 8.13C10.0673 7.93 10.1073 7.74 10.1273 7.56C10.2073 7.22 10.2873 6.89 10.3673 6.57C10.4473 6.25 10.5173 5.93 10.5773 5.61C10.5973 5.57 10.6073 5.53 10.6073 5.49C10.6273 5.45 10.6373 5.41 10.6373 5.37C10.6573 5.17 10.7173 4.98 10.8173 4.8C11.0173 4.38 11.3473 4.11 11.8073 3.99C12.0273 3.93 12.2473 3.93 12.4673 3.99C12.6473 4.03 12.7773 4.1 12.8573 4.2C12.9973 4.34 13.1273 4.48 13.2473 4.62C13.3873 4.76 13.5073 4.91 13.6073 5.07C13.6873 5.19 13.7673 5.31 13.8473 5.43C13.9273 5.53 14.0073 5.64 14.0873 5.76C14.1473 5.84 14.2073 5.93 14.2673 6.03C14.3273 6.11 14.3773 6.2 14.4173 6.3C14.5773 6.58 14.7273 6.87 14.8673 7.17C15.0073 7.47 15.1273 7.78 15.2273 8.1C15.2273 8.14 15.2373 8.17 15.2573 8.19C15.3573 8.39 15.4373 8.6 15.4973 8.82C15.5573 9.02 15.6173 9.23 15.6773 9.45C15.7573 9.67 15.8173 9.89 15.8573 10.11C15.9173 10.33 15.9773 10.55 16.0373 10.77C16.0373 10.85 16.0473 10.91 16.0673 10.95C16.1273 11.11 16.1773 11.28 16.2173 11.46C16.2573 11.64 16.2973 11.81 16.3373 11.97C16.3773 12.21 16.4173 12.45 16.4573 12.69C16.4973 12.93 16.5373 13.16 16.5773 13.38C16.6173 13.68 16.6573 13.98 16.6973 14.28C16.7373 14.58 16.7873 14.88 16.8473 15.18C16.8873 15.38 16.9173 15.59 16.9373 15.81C16.9773 16.03 17.0073 16.25 17.0273 16.47C17.0273 16.53 17.0473 16.62 17.0873 16.74L17.1773 17.46C17.1773 17.56 17.1873 17.63 17.2073 17.67C17.3073 18.05 17.3673 18.44 17.3873 18.84C17.4073 18.86 17.4173 18.89 17.4173 18.93C17.4173 18.95 17.4273 18.98 17.4473 19.02L17.6573 20.22C17.6973 20.36 17.6973 20.51 17.6573 20.67L17.5973 20.91C17.5973 21.07 17.5673 21.22 17.5073 21.36C17.4473 21.5 17.3773 21.64 17.2973 21.78C17.2373 21.86 17.1673 21.94 17.0873 22.02C17.0073 22.12 16.9173 22.2 16.8173 22.26C16.5973 22.42 16.3773 22.43 16.1573 22.29C15.6973 21.99 15.3573 21.62 15.1373 21.18C15.1173 21.1 15.0873 21.03 15.0473 20.97C15.0273 20.89 15.0173 20.81 15.0173 20.73L14.9273 20.16C14.9073 20.06 14.8873 19.96 14.8673 19.86C14.8673 19.74 14.8573 19.63 14.8373 19.53L14.5373 17.79C14.5173 17.65 14.4973 17.52 14.4773 17.4C14.4573 17.28 14.4373 17.15 14.4173 17.01L14.2973 16.35C14.2573 16.13 14.2173 15.91 14.1773 15.69C14.1373 15.45 14.0973 15.22 14.0573 15L13.7573 13.08C13.7373 12.8 13.6873 12.53 13.6073 12.27C13.5473 11.99 13.4873 11.72 13.4273 11.46C13.3473 11.14 13.2573 10.84 13.1573 10.56C13.0573 10.26 12.9473 9.97 12.8273 9.69L12.7373 9.42C12.7173 9.36 12.6873 9.3 12.6473 9.24C12.6073 9.18 12.5673 9.13 12.5273 9.09C12.4673 9.09 12.4373 9.1 12.4373 9.12L12.3473 9.42C12.2673 9.68 12.1973 9.96 12.1373 10.26C12.0773 10.54 12.0073 10.82 11.9273 11.1C11.8873 11.26 11.8473 11.42 11.8073 11.58C11.7673 11.74 11.7273 11.9 11.6873 12.06C11.6473 12.2 11.6073 12.35 11.5673 12.51C11.5473 12.65 11.5173 12.8 11.4773 12.96C11.4373 13.2 11.3873 13.44 11.3273 13.68C11.2673 13.92 11.2173 14.16 11.1773 14.4C11.1573 14.58 11.1273 14.76 11.0873 14.94C11.0673 15.12 11.0473 15.3 11.0273 15.48V15.66C11.0673 15.82 11.0273 15.96 10.9073 16.08C10.8873 16.14 10.8573 16.2 10.8173 16.26C10.7973 16.3 10.7773 16.35 10.7573 16.41C10.7173 16.59 10.6673 16.72 10.6073 16.8L10.5173 17.01C10.4973 17.03 10.4773 17.07 10.4573 17.13C10.4573 17.17 10.4373 17.21 10.3973 17.25C10.2573 17.49 10.0773 17.65 9.85734 17.73C9.77734 17.77 9.69734 17.81 9.61734 17.85C9.55734 17.89 9.48734 17.93 9.40734 17.97C9.20734 18.07 8.99734 18.06 8.77734 17.94C8.47734 17.74 8.24734 17.52 8.08734 17.28L7.54734 16.5C7.54734 16.48 7.53734 16.47 7.51734 16.47C7.51734 16.45 7.51734 16.44 7.51734 16.44C7.43734 16.22 7.34734 16.02 7.24734 15.84C7.14734 15.66 7.06734 15.47 7.00734 15.27L6.64734 14.22C6.54734 13.96 6.45734 13.7 6.37734 13.44C6.29734 13.18 6.20734 12.92 6.10734 12.66L6.01734 12.42C5.97734 12.24 5.92734 12.06 5.86734 11.88C5.82734 11.7 5.77734 11.53 5.71734 11.37C5.67734 11.19 5.62734 11.02 5.56734 10.86C5.50734 10.68 5.45734 10.51 5.41734 10.35C5.33734 10.13 5.25734 9.91 5.17734 9.69C5.11734 9.45 5.03734 9.22 4.93734 9C4.89734 8.86 4.83734 8.75 4.75734 8.67C4.59734 8.51 4.48734 8.32 4.42734 8.1C4.42734 8.06 4.40734 8.04 4.36734 8.04L4.30734 8.1V8.13C4.28734 8.15 4.27734 8.18 4.27734 8.22C4.25734 8.42 4.23734 8.63 4.21734 8.85C4.19734 9.07 4.16734 9.29 4.12734 9.51L4.03734 10.5C4.01734 10.66 3.99734 10.82 3.97734 10.98C3.97734 11.14 3.96734 11.3 3.94734 11.46C3.92734 11.54 3.90734 11.62 3.88734 11.7C3.88734 11.78 3.88734 11.87 3.88734 11.97C3.86734 12.47 3.80734 13 3.70734 13.56C3.68734 13.7 3.66734 13.86 3.64734 14.04C3.62734 14.2 3.60734 14.36 3.58734 14.52L3.49734 15.18C3.43734 15.54 3.40734 15.89 3.40734 16.23C3.40734 16.37 3.40734 16.51 3.40734 16.65C3.42734 16.79 3.41734 16.93 3.37734 17.07C3.35734 17.25 3.37734 17.46 3.43734 17.7C3.51734 17.84 3.54734 17.98 3.52734 18.12C3.52734 18.26 3.50734 18.41 3.46734 18.57C3.44734 18.69 3.40734 18.81 3.34734 18.93C3.30734 19.05 3.23734 19.16 3.13734 19.26C3.09734 19.32 3.04734 19.39 2.98734 19.47C2.94734 19.55 2.89734 19.62 2.83734 19.68C2.67734 19.88 2.59734 20.1 2.59734 20.34V21C2.59734 21.16 2.58734 21.31 2.56734 21.45C2.56734 21.61 2.57734 21.77 2.59734 21.93C2.59734 21.95 2.58734 21.97 2.56734 21.99C2.56734 22.01 2.56734 22.04 2.56734 22.08C2.54734 22.14 2.53734 22.2 2.53734 22.26C2.53734 22.32 2.53734 22.38 2.53734 22.44C2.55734 22.62 2.53734 22.81 2.47734 23.01C2.37734 23.19 2.24734 23.31 2.08734 23.37C2.04734 23.39 2.00734 23.4 1.96734 23.4ZM24.4713 21.3C24.4513 21.3 24.4213 21.29 24.3813 21.27C24.3613 21.27 24.3313 21.27 24.2913 21.27C24.1513 21.27 24.0513 21.21 23.9913 21.09C23.9113 20.95 23.8313 20.83 23.7513 20.73C23.6713 20.63 23.5813 20.53 23.4813 20.43C23.3813 20.33 23.2913 20.22 23.2113 20.1C23.1513 19.98 23.0913 19.86 23.0313 19.74C22.9713 19.64 22.9413 19.54 22.9413 19.44V19.14C22.9413 19.04 22.9313 18.94 22.9113 18.84C22.9113 18.72 22.9013 18.61 22.8813 18.51C22.8413 18.35 22.8013 18.18 22.7613 18C22.7413 17.82 22.7113 17.65 22.6713 17.49C22.6713 17.45 22.6613 17.41 22.6413 17.37C22.6413 17.31 22.6413 17.26 22.6413 17.22C22.6213 17 22.5913 16.78 22.5513 16.56C22.5113 16.32 22.4713 16.09 22.4313 15.87C22.3713 15.47 22.3013 15.08 22.2213 14.7C22.1613 14.3 22.1013 13.91 22.0413 13.53L21.8613 12.54C21.8413 12.38 21.7813 12.21 21.6813 12.03C21.5613 11.81 21.4713 11.57 21.4113 11.31C21.3913 11.19 21.3613 11.08 21.3213 10.98C21.2813 10.86 21.2413 10.74 21.2013 10.62C21.1413 10.42 21.0813 10.22 21.0213 10.02C20.9613 9.82 20.9113 9.62 20.8713 9.42C20.8513 9.26 20.8213 9.1 20.7813 8.94C20.7413 8.78 20.7013 8.62 20.6613 8.46L20.4813 7.65C20.4813 7.61 20.4713 7.58 20.4513 7.56C20.4313 7.28 20.3913 7 20.3313 6.72C20.2713 6.42 20.2113 6.13 20.1513 5.85C20.1313 5.69 20.1013 5.5 20.0613 5.28C20.0413 5.04 20.0413 4.85 20.0613 4.71V4.41C20.1013 4.13 20.1913 3.87 20.3313 3.63C20.4913 3.35 20.7513 3.13 21.1113 2.97C21.2113 2.93 21.3113 2.9 21.4113 2.88C21.5113 2.86 21.6013 2.84 21.6813 2.82C21.9013 2.8 22.1113 2.83 22.3113 2.91C22.5113 2.97 22.7113 3.06 22.9113 3.18C22.9713 3.22 23.0213 3.27 23.0613 3.33C23.1213 3.43 23.1813 3.53 23.2413 3.63C23.3213 3.73 23.3713 3.84 23.3913 3.96C23.4313 4.08 23.4713 4.2 23.5113 4.32C23.5713 4.44 23.6313 4.55 23.6913 4.65C23.7913 4.85 23.8613 5.06 23.9013 5.28C23.9413 5.5 23.9813 5.72 24.0213 5.94C24.0813 6.24 24.1113 6.56 24.1113 6.9V7.05C24.1513 7.25 24.1713 7.45 24.1713 7.65C24.1713 7.83 24.1713 8.02 24.1713 8.22C24.1913 8.54 24.2213 8.86 24.2613 9.18C24.3013 9.48 24.3413 9.8 24.3813 10.14L24.5613 11.55V11.61C24.6013 11.83 24.6413 12.06 24.6813 12.3C24.7413 12.52 24.7813 12.74 24.8013 12.96C24.8613 13.3 24.9213 13.65 24.9813 14.01C25.0613 14.35 25.1213 14.69 25.1613 15.03L25.3413 16.29C25.3813 16.49 25.4113 16.69 25.4313 16.89C25.4713 17.09 25.5113 17.29 25.5513 17.49C25.5913 17.69 25.6213 17.89 25.6413 18.09C25.6813 18.27 25.7213 18.46 25.7613 18.66C25.7813 18.74 25.7913 18.82 25.7913 18.9C25.8113 18.96 25.8213 19.03 25.8213 19.11C25.8413 19.41 25.7913 19.7 25.6713 19.98C25.6513 20.06 25.6013 20.14 25.5213 20.22C25.4413 20.34 25.3713 20.42 25.3113 20.46C25.1513 20.62 25.0313 20.79 24.9513 20.97C24.9513 20.99 24.9313 21.02 24.8913 21.06C24.8713 21.1 24.8413 21.14 24.8013 21.18C24.7213 21.26 24.6113 21.3 24.4713 21.3ZM31.3648 21.09C31.2048 21.15 31.0248 21.13 30.8248 21.03L30.2248 20.76C30.1248 20.72 30.0448 20.63 29.9848 20.49L29.8948 20.31C29.8548 20.21 29.8048 20.14 29.7448 20.1C29.6448 20.02 29.5748 19.88 29.5348 19.68C29.4948 19.48 29.4648 19.28 29.4448 19.08C29.4248 18.88 29.4048 18.68 29.3848 18.48C29.3648 18.32 29.3548 18.16 29.3548 18C29.3548 17.84 29.3548 17.69 29.3548 17.55L29.3848 17.34C29.4248 17.24 29.4448 17.14 29.4448 17.04C29.4448 16.94 29.4448 16.85 29.4448 16.77V11.31C29.4848 11.03 29.5048 10.75 29.5048 10.47C29.5048 10.17 29.5048 9.88 29.5048 9.6C29.5248 9.32 29.5348 9.05 29.5348 8.79C29.5348 8.51 29.5148 8.24 29.4748 7.98C29.4548 7.88 29.4448 7.77 29.4448 7.65C29.4448 7.53 29.4448 7.41 29.4448 7.29C29.4448 7.11 29.4448 6.93 29.4448 6.75C29.4448 6.57 29.4248 6.39 29.3848 6.21V6.12C29.3848 5.84 29.3648 5.57 29.3248 5.31C29.3048 5.03 29.2848 4.76 29.2648 4.5C29.2448 4.34 29.2248 4.19 29.2048 4.05C29.1848 3.91 29.1548 3.77 29.1148 3.63C29.0948 3.55 29.0848 3.47 29.0848 3.39C29.0848 3.31 29.0848 3.23 29.0848 3.15C29.0848 3.01 29.1048 2.88 29.1448 2.76C29.1848 2.62 29.2248 2.49 29.2648 2.37C29.2848 2.33 29.3348 2.27 29.4148 2.19C29.4548 2.15 29.4948 2.12 29.5348 2.1C29.5748 2.08 29.6048 2.06 29.6248 2.04C29.7448 1.88 29.9048 1.81 30.1048 1.83C30.1448 1.85 30.2048 1.84 30.2848 1.8C30.3848 1.72 30.4748 1.71 30.5548 1.77C30.6148 1.81 30.7148 1.81 30.8548 1.77C30.9148 1.77 30.9648 1.79 31.0048 1.83C31.0648 1.91 31.1448 1.97 31.2448 2.01C31.3448 2.05 31.4148 2.11 31.4548 2.19C31.5148 2.25 31.5748 2.31 31.6348 2.37C31.6748 2.43 31.7148 2.49 31.7548 2.55C31.8148 2.59 31.8448 2.65 31.8448 2.73C31.8648 2.81 31.8648 2.89 31.8448 2.97C31.8448 3.03 31.8448 3.1 31.8448 3.18C31.8448 3.36 31.8548 3.55 31.8748 3.75C31.9148 3.93 31.9448 4.11 31.9648 4.29C32.0048 4.49 32.0348 4.7 32.0548 4.92C32.0748 5.12 32.0948 5.33 32.1148 5.55V5.85C32.1548 5.99 32.1748 6.13 32.1748 6.27C32.1748 6.41 32.1848 6.55 32.2048 6.69V6.72C32.2248 6.96 32.2448 7.2 32.2648 7.44C32.2848 7.68 32.3048 7.92 32.3248 8.16C32.3448 8.26 32.3548 8.37 32.3548 8.49C32.3548 8.59 32.3548 8.69 32.3548 8.79V16.77C32.3548 16.95 32.3648 17.13 32.3848 17.31C32.4248 17.49 32.4548 17.66 32.4748 17.82C32.4748 17.92 32.5348 17.97 32.6548 17.97C32.8348 18.01 33.0048 18.01 33.1648 17.97C33.3848 17.93 33.5948 17.91 33.7948 17.91C34.0148 17.91 34.2348 17.91 34.4548 17.91C34.6748 17.91 34.8848 17.91 35.0848 17.91C35.3048 17.89 35.5148 17.87 35.7148 17.85H36.0448C36.2048 17.87 36.3448 17.89 36.4648 17.91C36.6048 17.91 36.7448 17.91 36.8848 17.91C37.1048 17.91 37.3248 17.92 37.5448 17.94C37.7848 17.94 38.0148 17.95 38.2348 17.97C38.3948 17.99 38.5548 18 38.7148 18C38.8948 18 39.0748 18 39.2548 18H39.4048C39.8048 17.98 40.1648 18.08 40.4848 18.3C40.6248 18.36 40.7248 18.46 40.7848 18.6C40.8248 18.68 40.8548 18.76 40.8748 18.84C40.9148 18.9 40.9448 18.98 40.9648 19.08C40.9848 19.16 40.9948 19.24 40.9948 19.32C41.0148 19.38 41.0348 19.45 41.0548 19.53C41.1148 19.71 41.0948 19.91 40.9948 20.13C40.9748 20.19 40.9548 20.25 40.9348 20.31C40.9148 20.37 40.8848 20.43 40.8448 20.49C40.8048 20.55 40.7548 20.6 40.6948 20.64C40.6948 20.64 40.6548 20.66 40.5748 20.7C40.4148 20.84 40.2348 20.93 40.0348 20.97C39.8548 21.01 39.6548 21.05 39.4348 21.09L39.1348 21.06C38.8348 20.96 38.5348 20.9 38.2348 20.88C38.1548 20.86 38.0648 20.85 37.9648 20.85C37.8648 20.83 37.7648 20.82 37.6648 20.82C37.5248 20.82 37.3848 20.82 37.2448 20.82C37.1048 20.8 36.9548 20.78 36.7948 20.76L36.4948 20.73C36.3148 20.75 36.1348 20.76 35.9548 20.76C35.7748 20.74 35.5948 20.74 35.4148 20.76C35.3348 20.76 35.2548 20.76 35.1748 20.76C35.0948 20.74 35.0148 20.73 34.9348 20.73C34.7748 20.73 34.6148 20.73 34.4548 20.73C34.3148 20.73 34.1648 20.75 34.0048 20.79C33.9248 20.81 33.8248 20.83 33.7048 20.85C33.6048 20.85 33.5048 20.85 33.4048 20.85C33.1048 20.87 32.8048 20.9 32.5048 20.94C32.2048 20.96 31.9148 21 31.6348 21.06C31.5748 21.08 31.4848 21.09 31.3648 21.09ZM45.2597 21.51C45.1397 21.51 45.0297 21.47 44.9297 21.39C44.8697 21.33 44.7997 21.28 44.7197 21.24C44.6397 21.2 44.5697 21.15 44.5097 21.09C44.4497 21.05 44.3897 21.01 44.3297 20.97C44.2897 20.91 44.2497 20.86 44.2097 20.82C44.1297 20.7 44.0597 20.58 43.9997 20.46C43.9597 20.32 43.9497 20.18 43.9697 20.04C44.0097 19.82 44.0297 19.61 44.0297 19.41C44.0497 19.19 44.0697 18.98 44.0897 18.78C44.1097 18.68 44.1197 18.58 44.1197 18.48C44.1397 18.36 44.1497 18.25 44.1497 18.15C44.1497 17.91 44.1497 17.67 44.1497 17.43C44.1697 17.19 44.1997 16.95 44.2397 16.71V16.65C44.2597 16.03 44.2797 15.42 44.2997 14.82C44.3397 14.2 44.3597 13.58 44.3597 12.96C44.3397 12.5 44.3297 12.04 44.3297 11.58C44.3297 11.12 44.3297 10.67 44.3297 10.23C44.3297 10.01 44.3297 9.8 44.3297 9.6C44.3497 9.4 44.3397 9.2 44.2997 9C44.2797 8.66 44.2597 8.33 44.2397 8.01C44.2397 7.69 44.2397 7.37 44.2397 7.05C44.2397 6.99 44.2297 6.93 44.2097 6.87C44.2097 6.81 44.2097 6.75 44.2097 6.69C44.1897 6.61 44.1797 6.53 44.1797 6.45C44.1797 6.35 44.1697 6.26 44.1497 6.18C44.1497 6.08 44.1397 5.98 44.1197 5.88C44.1197 5.78 44.1097 5.69 44.0897 5.61V5.4C44.0697 5.18 44.0497 4.98 44.0297 4.8C44.0097 4.6 43.9797 4.4 43.9397 4.2C43.9197 4.04 43.8997 3.87 43.8797 3.69C43.8797 3.51 43.8797 3.33 43.8797 3.15C43.8797 3.03 43.9197 2.94 43.9997 2.88C44.0397 2.84 44.0597 2.79 44.0597 2.73C44.0997 2.65 44.1197 2.58 44.1197 2.52C44.1797 2.36 44.2597 2.26 44.3597 2.22C44.4197 2.18 44.4697 2.15 44.5097 2.13C44.5697 2.09 44.6297 2.08 44.6897 2.1C44.7897 2.1 44.8497 2.07 44.8697 2.01C44.9097 1.99 44.9397 1.97 44.9597 1.95C44.9797 1.91 44.9997 1.89 45.0197 1.89C45.1197 1.89 45.2097 1.88 45.2897 1.86C45.3897 1.84 45.4897 1.85 45.5897 1.89C45.7097 1.93 45.8097 1.95 45.8897 1.95C45.9897 1.97 46.0597 2.01 46.0997 2.07C46.1397 2.11 46.1797 2.13 46.2197 2.13C46.3197 2.15 46.3897 2.22 46.4297 2.34C46.4697 2.38 46.4897 2.43 46.4897 2.49C46.5097 2.53 46.5297 2.56 46.5497 2.58C46.6497 2.68 46.6797 2.8 46.6397 2.94C46.5997 3.16 46.5997 3.38 46.6397 3.6C46.6597 3.66 46.6597 3.72 46.6397 3.78C46.6397 3.84 46.6497 3.9 46.6697 3.96C46.6697 4.1 46.6697 4.24 46.6697 4.38C46.6897 4.5 46.7097 4.64 46.7297 4.8C46.7497 4.88 46.7597 4.96 46.7597 5.04C46.7597 5.1 46.7597 5.18 46.7597 5.28C46.7597 5.42 46.7597 5.58 46.7597 5.76C46.7597 5.92 46.7697 6.08 46.7897 6.24C46.8097 6.28 46.8197 6.35 46.8197 6.45C46.8197 6.59 46.8197 6.73 46.8197 6.87C46.8397 7.01 46.8597 7.15 46.8797 7.29C46.9397 7.59 46.9697 7.88 46.9697 8.16C46.9497 8.3 46.9497 8.45 46.9697 8.61C46.9897 8.77 46.9997 8.93 46.9997 9.09C46.9997 9.13 47.0197 9.15 47.0597 9.15C47.0997 9.15 47.1297 9.14 47.1497 9.12C47.1897 9.1 47.2497 9.05 47.3297 8.97L48.7697 7.53C49.0697 7.19 49.3997 6.89 49.7597 6.63C49.9397 6.49 50.1097 6.35 50.2697 6.21C50.4297 6.05 50.5797 5.89 50.7197 5.73C50.9197 5.51 51.1097 5.29 51.2897 5.07C51.4897 4.85 51.6897 4.63 51.8897 4.41C51.9897 4.31 52.0797 4.2 52.1597 4.08C52.2597 3.96 52.3497 3.84 52.4297 3.72C52.5497 3.58 52.6597 3.45 52.7597 3.33C52.8797 3.19 53.0097 3.06 53.1497 2.94C53.2097 2.9 53.2597 2.86 53.2997 2.82C53.3597 2.76 53.4297 2.72 53.5097 2.7C53.5297 2.7 53.5397 2.7 53.5397 2.7C53.5597 2.68 53.5697 2.67 53.5697 2.67C53.7697 2.49 53.9697 2.46 54.1697 2.58C54.2297 2.62 54.3197 2.64 54.4397 2.64C54.5997 2.64 54.7397 2.7 54.8597 2.82C54.8997 2.84 54.9297 2.86 54.9497 2.88C54.9897 2.88 55.0197 2.89 55.0397 2.91H55.3397C55.4597 2.91 55.5197 2.93 55.5197 2.97C55.5397 2.99 55.5397 3.05 55.5197 3.15C55.4797 3.21 55.4997 3.27 55.5797 3.33C55.6797 3.35 55.7097 3.41 55.6697 3.51C55.6497 3.55 55.6697 3.6 55.7297 3.66C55.7897 3.7 55.7897 3.75 55.7297 3.81C55.6297 3.97 55.5697 4.13 55.5497 4.29C55.5097 4.39 55.4597 4.49 55.3997 4.59C55.3597 4.67 55.2897 4.76 55.1897 4.86C54.9497 5.06 54.7297 5.29 54.5297 5.55C54.3297 5.79 54.1197 6.04 53.8997 6.3L53.7197 6.48C53.5197 6.66 53.3297 6.85 53.1497 7.05C52.9897 7.25 52.8297 7.45 52.6697 7.65C52.4497 7.91 52.2097 8.17 51.9497 8.43C51.7097 8.67 51.4697 8.91 51.2297 9.15C51.1097 9.27 51.0197 9.35 50.9597 9.39C50.8597 9.47 50.7597 9.56 50.6597 9.66C50.5597 9.76 50.4597 9.87 50.3597 9.99C50.3397 10.03 50.2997 10.07 50.2397 10.11C50.1997 10.15 50.1597 10.19 50.1197 10.23C49.9797 10.37 49.8397 10.52 49.6997 10.68C49.5597 10.82 49.4097 10.96 49.2497 11.1C49.2497 11.12 49.2397 11.14 49.2197 11.16C49.2197 11.16 49.2197 11.17 49.2197 11.19C49.2197 11.21 49.2097 11.23 49.1897 11.25C49.1897 11.27 49.1997 11.29 49.2197 11.31C49.2397 11.37 49.2897 11.44 49.3697 11.52L50.2397 12.33C50.4197 12.47 50.5897 12.63 50.7497 12.81C50.9097 12.97 51.0697 13.13 51.2297 13.29L51.5297 13.65C51.5697 13.69 51.6097 13.74 51.6497 13.8C51.6897 13.84 51.7297 13.88 51.7697 13.92C51.9897 14.1 52.2097 14.28 52.4297 14.46C52.6497 14.64 52.8597 14.82 53.0597 15L53.5097 15.36C53.7497 15.56 54.0097 15.75 54.2897 15.93C54.5697 16.11 54.8397 16.28 55.0997 16.44C55.2397 16.52 55.3697 16.6 55.4897 16.68C55.6297 16.74 55.7697 16.8 55.9097 16.86C56.1697 16.98 56.3797 17.19 56.5397 17.49C56.5597 17.51 56.5797 17.55 56.5997 17.61C56.6197 17.65 56.6397 17.69 56.6597 17.73C56.7597 17.95 56.7997 18.16 56.7797 18.36C56.7797 18.52 56.7597 18.63 56.7197 18.69L56.6297 18.93C56.6097 19.01 56.5697 19.1 56.5097 19.2C56.4697 19.28 56.3997 19.35 56.2997 19.41C56.2597 19.43 56.2197 19.48 56.1797 19.56C56.0997 19.64 56.0297 19.68 55.9697 19.68C55.8697 19.7 55.7597 19.72 55.6397 19.74C55.5397 19.76 55.4397 19.78 55.3397 19.8C55.2597 19.82 55.1797 19.83 55.0997 19.83C55.0197 19.83 54.9397 19.82 54.8597 19.8C54.8397 19.78 54.8097 19.77 54.7697 19.77C54.6897 19.75 54.6097 19.73 54.5297 19.71C54.4697 19.69 54.4097 19.67 54.3497 19.65C54.2897 19.61 54.2297 19.57 54.1697 19.53C54.1297 19.47 54.0897 19.42 54.0497 19.38C54.0097 19.34 53.9597 19.3 53.8997 19.26C53.8397 19.22 53.7797 19.19 53.7197 19.17L53.2697 18.9C53.2497 18.86 53.2097 18.83 53.1497 18.81C53.1097 18.77 53.0697 18.74 53.0297 18.72C52.9497 18.68 52.8997 18.65 52.8797 18.63C52.7997 18.53 52.6997 18.45 52.5797 18.39C52.4797 18.33 52.3797 18.26 52.2797 18.18C52.1197 18.04 51.9497 17.91 51.7697 17.79C51.6097 17.65 51.4497 17.51 51.2897 17.37C50.9497 17.07 50.6097 16.77 50.2697 16.47C49.9497 16.17 49.6297 15.86 49.3097 15.54C49.0697 15.3 48.8297 15.06 48.5897 14.82C48.3497 14.58 48.0897 14.34 47.8097 14.1C47.7297 14.04 47.6497 13.98 47.5697 13.92C47.5097 13.86 47.4297 13.8 47.3297 13.74C47.3097 13.7 47.2797 13.69 47.2397 13.71C47.2197 13.73 47.2097 13.76 47.2097 13.8C47.1897 13.82 47.1797 13.87 47.1797 13.95V17.19C47.1797 17.39 47.1797 17.6 47.1797 17.82C47.1797 18.02 47.1597 18.23 47.1197 18.45V18.9C47.0997 19.04 47.0897 19.18 47.0897 19.32C47.1097 19.46 47.1097 19.61 47.0897 19.77V20.22C47.0697 20.28 47.0497 20.34 47.0297 20.4C47.0097 20.46 46.9797 20.52 46.9397 20.58C46.8797 20.64 46.8297 20.71 46.7897 20.79C46.7497 20.85 46.7097 20.91 46.6697 20.97C46.6297 21.01 46.5897 21.03 46.5497 21.03C46.4697 21.05 46.3897 21.09 46.3097 21.15C46.2497 21.21 46.1697 21.26 46.0697 21.3C45.9297 21.42 45.7597 21.48 45.5597 21.48C45.5197 21.46 45.4697 21.46 45.4097 21.48C45.3697 21.5 45.3197 21.51 45.2597 21.51Z" fill="#353535"/>
</svg>
