<svg width="192" height="24" viewBox="0 0 192 24" fill="none" xmlns="http://www.w3.org/2000/svg">
<path d="M1.96539 23.4C1.74539 23.36 1.59539 23.26 1.51539 23.1C1.45539 22.98 1.40539 22.85 1.36539 22.71C1.34539 22.59 1.32539 22.47 1.30539 22.35C1.28539 22.19 1.26539 22.02 1.24539 21.84C1.22539 21.68 1.20539 21.52 1.18539 21.36C1.16539 21.16 1.13539 20.97 1.09539 20.79C1.05539 20.61 0.995391 20.42 0.915391 20.22C0.895391 20.16 0.875391 20.11 0.855391 20.07C0.835391 20.01 0.805391 19.95 0.765391 19.89L0.405391 19.14C0.305391 18.94 0.255391 18.74 0.255391 18.54C0.235391 18.28 0.225391 18.03 0.225391 17.79C0.225391 17.55 0.235391 17.31 0.255391 17.07C0.255391 16.99 0.275391 16.89 0.315391 16.77C0.355391 16.57 0.395391 16.38 0.435391 16.2C0.495391 16 0.535391 15.81 0.555391 15.63C0.595391 15.39 0.635391 15.16 0.675391 14.94C0.715391 14.7 0.745391 14.47 0.765391 14.25C0.805391 14.03 0.835391 13.81 0.855391 13.59C0.875391 13.37 0.895391 13.15 0.915391 12.93C0.935391 12.77 0.955391 12.62 0.975391 12.48C0.995391 12.32 1.01539 12.17 1.03539 12.03C1.05539 11.97 1.06539 11.88 1.06539 11.76C1.06539 11.66 1.07539 11.56 1.09539 11.46C1.11539 11.34 1.13539 11.23 1.15539 11.13C1.19539 10.97 1.21539 10.81 1.21539 10.65C1.23539 10.47 1.25539 10.3 1.27539 10.14C1.29539 10.08 1.30539 10 1.30539 9.9C1.36539 9.68 1.40539 9.45 1.42539 9.21C1.46539 8.97 1.49539 8.73 1.51539 8.49L1.60539 7.98C1.64539 7.76 1.67539 7.54 1.69539 7.32C1.71539 7.08 1.73539 6.85 1.75539 6.63C1.79539 6.41 1.81539 6.19 1.81539 5.97C1.81539 5.73 1.81539 5.5 1.81539 5.28C1.81539 5.16 1.81539 5.05 1.81539 4.95C1.83539 4.83 1.85539 4.71 1.87539 4.59C1.91539 4.07 1.87539 3.57 1.75539 3.09C1.73539 3.07 1.72539 3.05 1.72539 3.03C1.64539 2.77 1.63539 2.53 1.69539 2.31C1.75539 2.09 1.85539 1.88 1.99539 1.68C2.23539 1.28 2.57539 1.04 3.01539 0.959999C3.09539 0.939999 3.16539 0.929999 3.22539 0.929999C3.28539 0.909999 3.35539 0.909999 3.43539 0.929999C3.51539 0.969999 3.58539 0.989998 3.64539 0.989998C3.82539 1.01 3.99539 1.09 4.15539 1.23L4.42539 1.59C4.56539 1.83 4.69539 2.01 4.81539 2.13C5.13539 2.53 5.41539 2.96 5.65539 3.42C5.79539 3.68 5.91539 3.94 6.01539 4.2C6.13539 4.44 6.25539 4.68 6.37539 4.92C6.43539 5.06 6.48539 5.19 6.52539 5.31C6.58539 5.43 6.64539 5.55 6.70539 5.67C6.74539 5.73 6.80539 5.8 6.88539 5.88C6.96539 6 7.00539 6.09 7.00539 6.15C7.04539 6.23 7.03539 6.3 6.97539 6.36C6.95539 6.38 6.95539 6.41 6.97539 6.45C6.99539 6.49 7.01539 6.53 7.03539 6.57C7.05539 6.59 7.09539 6.71 7.15539 6.93C7.21539 7.13 7.23539 7.2 7.21539 7.14C7.25539 7.24 7.31539 7.29 7.39539 7.29C7.45539 7.31 7.49539 7.35 7.51539 7.41C7.53539 7.45 7.50539 7.5 7.42539 7.56C7.36539 7.58 7.36539 7.66 7.42539 7.8C7.48539 7.92 7.52539 8 7.54539 8.04C7.62539 8.24 7.69539 8.44 7.75539 8.64C7.81539 8.82 7.88539 9.01 7.96539 9.21C8.06539 9.47 8.15539 9.74 8.23539 10.02C8.31539 10.3 8.39539 10.58 8.47539 10.86C8.53539 11.06 8.59539 11.26 8.65539 11.46C8.73539 11.64 8.80539 11.82 8.86539 12C8.86539 12.04 8.88539 12.06 8.92539 12.06L8.98539 12C8.98539 11.96 9.00539 11.9 9.04539 11.82C9.08539 11.6 9.13539 11.38 9.19539 11.16C9.25539 10.92 9.31539 10.69 9.37539 10.47C9.47539 10.17 9.55539 9.87 9.61539 9.57C9.69539 9.27 9.77539 8.97 9.85539 8.67C9.89539 8.49 9.94539 8.31 10.0054 8.13C10.0654 7.93 10.1054 7.74 10.1254 7.56C10.2054 7.22 10.2854 6.89 10.3654 6.57C10.4454 6.25 10.5154 5.93 10.5754 5.61C10.5954 5.57 10.6054 5.53 10.6054 5.49C10.6254 5.45 10.6354 5.41 10.6354 5.37C10.6554 5.17 10.7154 4.98 10.8154 4.8C11.0154 4.38 11.3454 4.11 11.8054 3.99C12.0254 3.93 12.2454 3.93 12.4654 3.99C12.6454 4.03 12.7754 4.1 12.8554 4.2C12.9954 4.34 13.1254 4.48 13.2454 4.62C13.3854 4.76 13.5054 4.91 13.6054 5.07C13.6854 5.19 13.7654 5.31 13.8454 5.43C13.9254 5.53 14.0054 5.64 14.0854 5.76C14.1454 5.84 14.2054 5.93 14.2654 6.03C14.3254 6.11 14.3754 6.2 14.4154 6.3C14.5754 6.58 14.7254 6.87 14.8654 7.17C15.0054 7.47 15.1254 7.78 15.2254 8.1C15.2254 8.14 15.2354 8.17 15.2554 8.19C15.3554 8.39 15.4354 8.6 15.4954 8.82C15.5554 9.02 15.6154 9.23 15.6754 9.45C15.7554 9.67 15.8154 9.89 15.8554 10.11C15.9154 10.33 15.9754 10.55 16.0354 10.77C16.0354 10.85 16.0454 10.91 16.0654 10.95C16.1254 11.11 16.1754 11.28 16.2154 11.46C16.2554 11.64 16.2954 11.81 16.3354 11.97C16.3754 12.21 16.4154 12.45 16.4554 12.69C16.4954 12.93 16.5354 13.16 16.5754 13.38C16.6154 13.68 16.6554 13.98 16.6954 14.28C16.7354 14.58 16.7854 14.88 16.8454 15.18C16.8854 15.38 16.9154 15.59 16.9354 15.81C16.9754 16.03 17.0054 16.25 17.0254 16.47C17.0254 16.53 17.0454 16.62 17.0854 16.74L17.1754 17.46C17.1754 17.56 17.1854 17.63 17.2054 17.67C17.3054 18.05 17.3654 18.44 17.3854 18.84C17.4054 18.86 17.4154 18.89 17.4154 18.93C17.4154 18.95 17.4254 18.98 17.4454 19.02L17.6554 20.22C17.6954 20.36 17.6954 20.51 17.6554 20.67L17.5954 20.91C17.5954 21.07 17.5654 21.22 17.5054 21.36C17.4454 21.5 17.3754 21.64 17.2954 21.78C17.2354 21.86 17.1654 21.94 17.0854 22.02C17.0054 22.12 16.9154 22.2 16.8154 22.26C16.5954 22.42 16.3754 22.43 16.1554 22.29C15.6954 21.99 15.3554 21.62 15.1354 21.18C15.1154 21.1 15.0854 21.03 15.0454 20.97C15.0254 20.89 15.0154 20.81 15.0154 20.73L14.9254 20.16C14.9054 20.06 14.8854 19.96 14.8654 19.86C14.8654 19.74 14.8554 19.63 14.8354 19.53L14.5354 17.79C14.5154 17.65 14.4954 17.52 14.4754 17.4C14.4554 17.28 14.4354 17.15 14.4154 17.01L14.2954 16.35C14.2554 16.13 14.2154 15.91 14.1754 15.69C14.1354 15.45 14.0954 15.22 14.0554 15L13.7554 13.08C13.7354 12.8 13.6854 12.53 13.6054 12.27C13.5454 11.99 13.4854 11.72 13.4254 11.46C13.3454 11.14 13.2554 10.84 13.1554 10.56C13.0554 10.26 12.9454 9.97 12.8254 9.69L12.7354 9.42C12.7154 9.36 12.6854 9.3 12.6454 9.24C12.6054 9.18 12.5654 9.13 12.5254 9.09C12.4654 9.09 12.4354 9.1 12.4354 9.12L12.3454 9.42C12.2654 9.68 12.1954 9.96 12.1354 10.26C12.0754 10.54 12.0054 10.82 11.9254 11.1C11.8854 11.26 11.8454 11.42 11.8054 11.58C11.7654 11.74 11.7254 11.9 11.6854 12.06C11.6454 12.2 11.6054 12.35 11.5654 12.51C11.5454 12.65 11.5154 12.8 11.4754 12.96C11.4354 13.2 11.3854 13.44 11.3254 13.68C11.2654 13.92 11.2154 14.16 11.1754 14.4C11.1554 14.58 11.1254 14.76 11.0854 14.94C11.0654 15.12 11.0454 15.3 11.0254 15.48V15.66C11.0654 15.82 11.0254 15.96 10.9054 16.08C10.8854 16.14 10.8554 16.2 10.8154 16.26C10.7954 16.3 10.7754 16.35 10.7554 16.41C10.7154 16.59 10.6654 16.72 10.6054 16.8L10.5154 17.01C10.4954 17.03 10.4754 17.07 10.4554 17.13C10.4554 17.17 10.4354 17.21 10.3954 17.25C10.2554 17.49 10.0754 17.65 9.85539 17.73C9.77539 17.77 9.69539 17.81 9.61539 17.85C9.55539 17.89 9.48539 17.93 9.40539 17.97C9.20539 18.07 8.99539 18.06 8.77539 17.94C8.47539 17.74 8.24539 17.52 8.08539 17.28L7.54539 16.5C7.54539 16.48 7.53539 16.47 7.51539 16.47C7.51539 16.45 7.51539 16.44 7.51539 16.44C7.43539 16.22 7.34539 16.02 7.24539 15.84C7.14539 15.66 7.06539 15.47 7.00539 15.27L6.64539 14.22C6.54539 13.96 6.45539 13.7 6.37539 13.44C6.29539 13.18 6.20539 12.92 6.10539 12.66L6.01539 12.42C5.97539 12.24 5.92539 12.06 5.86539 11.88C5.82539 11.7 5.77539 11.53 5.71539 11.37C5.67539 11.19 5.62539 11.02 5.56539 10.86C5.50539 10.68 5.45539 10.51 5.41539 10.35C5.33539 10.13 5.25539 9.91 5.17539 9.69C5.11539 9.45 5.03539 9.22 4.93539 9C4.89539 8.86 4.83539 8.75 4.75539 8.67C4.59539 8.51 4.48539 8.32 4.42539 8.1C4.42539 8.06 4.40539 8.04 4.36539 8.04L4.30539 8.1V8.13C4.28539 8.15 4.27539 8.18 4.27539 8.22C4.25539 8.42 4.23539 8.63 4.21539 8.85C4.19539 9.07 4.16539 9.29 4.12539 9.51L4.03539 10.5C4.01539 10.66 3.99539 10.82 3.97539 10.98C3.97539 11.14 3.96539 11.3 3.94539 11.46C3.92539 11.54 3.90539 11.62 3.88539 11.7C3.88539 11.78 3.88539 11.87 3.88539 11.97C3.86539 12.47 3.80539 13 3.70539 13.56C3.68539 13.7 3.66539 13.86 3.64539 14.04C3.62539 14.2 3.60539 14.36 3.58539 14.52L3.49539 15.18C3.43539 15.54 3.40539 15.89 3.40539 16.23C3.40539 16.37 3.40539 16.51 3.40539 16.65C3.42539 16.79 3.41539 16.93 3.37539 17.07C3.35539 17.25 3.37539 17.46 3.43539 17.7C3.51539 17.84 3.54539 17.98 3.52539 18.12C3.52539 18.26 3.50539 18.41 3.46539 18.57C3.44539 18.69 3.40539 18.81 3.34539 18.93C3.30539 19.05 3.23539 19.16 3.13539 19.26C3.09539 19.32 3.04539 19.39 2.98539 19.47C2.94539 19.55 2.89539 19.62 2.83539 19.68C2.67539 19.88 2.59539 20.1 2.59539 20.34V21C2.59539 21.16 2.58539 21.31 2.56539 21.45C2.56539 21.61 2.57539 21.77 2.59539 21.93C2.59539 21.95 2.58539 21.97 2.56539 21.99C2.56539 22.01 2.56539 22.04 2.56539 22.08C2.54539 22.14 2.53539 22.2 2.53539 22.26C2.53539 22.32 2.53539 22.38 2.53539 22.44C2.55539 22.62 2.53539 22.81 2.47539 23.01C2.37539 23.19 2.24539 23.31 2.08539 23.37C2.04539 23.39 2.00539 23.4 1.96539 23.4ZM23.016 21.3C22.896 21.3 22.816 21.29 22.776 21.27C22.696 21.23 22.626 21.2 22.566 21.18C22.506 21.16 22.446 21.14 22.386 21.12C22.326 21.08 22.266 21.04 22.206 21C22.166 20.94 22.126 20.88 22.086 20.82C22.046 20.78 22.006 20.76 21.966 20.76C21.846 20.76 21.786 20.7 21.786 20.58C21.766 20.46 21.746 20.34 21.726 20.22C21.706 20.1 21.686 19.98 21.666 19.86C21.646 19.68 21.626 19.5 21.606 19.32C21.606 19.14 21.586 18.97 21.546 18.81V18.54C21.546 18.46 21.536 18.39 21.516 18.33C21.516 18.27 21.516 18.2 21.516 18.12C21.476 18.02 21.476 17.94 21.516 17.88C21.556 17.52 21.556 17.16 21.516 16.8C21.496 16.7 21.486 16.6 21.486 16.5C21.486 16.4 21.476 16.3 21.456 16.2C21.456 16 21.456 15.8 21.456 15.6C21.456 15.38 21.436 15.17 21.396 14.97V14.49C21.396 14.33 21.386 14.18 21.366 14.04C21.366 13.9 21.356 13.76 21.336 13.62C21.316 13.44 21.296 13.26 21.276 13.08C21.276 12.9 21.266 12.72 21.246 12.54C21.226 12.5 21.216 12.43 21.216 12.33C21.196 12.23 21.176 12.13 21.156 12.03C21.156 11.91 21.156 11.8 21.156 11.7L21.066 10.2C21.046 10.04 21.026 9.89 21.006 9.75C21.006 9.59 21.006 9.44 21.006 9.3C20.986 9.06 20.966 8.82 20.946 8.58C20.926 8.34 20.906 8.11 20.886 7.89C20.886 7.85 20.876 7.81 20.856 7.77C20.856 7.73 20.856 7.7 20.856 7.68C20.856 7.44 20.846 7.2 20.826 6.96C20.806 6.72 20.786 6.47 20.766 6.21L20.676 5.37C20.616 5.05 20.606 4.7 20.646 4.32C20.646 4.14 20.716 3.99 20.856 3.87C20.896 3.83 20.926 3.81 20.946 3.81C20.966 3.79 20.986 3.77 21.006 3.75C21.106 3.73 21.156 3.66 21.156 3.54C21.156 3.5 21.196 3.48 21.276 3.48H21.426C21.446 3.48 21.456 3.48 21.456 3.48C21.476 3.46 21.496 3.45 21.516 3.45C21.556 3.43 21.586 3.41 21.606 3.39C21.646 3.35 21.676 3.33 21.696 3.33C21.736 3.33 21.776 3.34 21.816 3.36C21.856 3.36 21.896 3.37 21.936 3.39C21.976 3.39 22.006 3.38 22.026 3.36C22.126 3.34 22.226 3.35 22.326 3.39C22.446 3.41 22.546 3.44 22.626 3.48C22.746 3.5 22.836 3.58 22.896 3.72C22.956 3.9 23.006 4.08 23.046 4.26C23.106 4.42 23.146 4.59 23.166 4.77V5.01C23.206 5.15 23.226 5.3 23.226 5.46C23.226 5.6 23.226 5.75 23.226 5.91C23.226 6.05 23.226 6.19 23.226 6.33C23.246 6.45 23.266 6.57 23.286 6.69C23.286 6.75 23.286 6.81 23.286 6.87C23.286 6.93 23.296 6.99 23.316 7.05C23.316 7.17 23.316 7.29 23.316 7.41C23.336 7.53 23.356 7.66 23.376 7.8C23.396 8.02 23.416 8.25 23.436 8.49C23.456 8.73 23.466 8.97 23.466 9.21C23.466 9.31 23.466 9.42 23.466 9.54C23.466 9.64 23.476 9.74 23.496 9.84C23.516 9.9 23.526 9.96 23.526 10.02C23.526 10.08 23.526 10.14 23.526 10.2V10.8C23.526 10.92 23.536 11.02 23.556 11.1C23.596 11.24 23.606 11.38 23.586 11.52C23.586 11.64 23.596 11.77 23.616 11.91L23.706 13.29C23.726 13.49 23.736 13.7 23.736 13.92C23.756 14.12 23.766 14.33 23.766 14.55C23.766 14.63 23.766 14.72 23.766 14.82C23.766 14.9 23.776 14.98 23.796 15.06C23.816 15.12 23.826 15.18 23.826 15.24C23.826 15.3 23.826 15.36 23.826 15.42C23.846 15.44 23.846 15.48 23.826 15.54C23.826 15.58 23.836 15.62 23.856 15.66C23.896 15.8 23.916 15.94 23.916 16.08C23.916 16.22 23.916 16.37 23.916 16.53C23.916 16.61 23.916 16.7 23.916 16.8C23.936 16.88 23.946 16.97 23.946 17.07C23.966 17.17 23.976 17.28 23.976 17.4C23.976 17.52 23.976 17.63 23.976 17.73C23.996 17.83 24.006 17.94 24.006 18.06C24.006 18.16 24.016 18.26 24.036 18.36C24.056 18.4 24.066 18.44 24.066 18.48C24.066 18.7 24.086 18.92 24.126 19.14C24.166 19.36 24.206 19.58 24.246 19.8C24.266 19.86 24.276 19.93 24.276 20.01C24.276 20.07 24.276 20.13 24.276 20.19C24.276 20.25 24.256 20.3 24.216 20.34C24.136 20.4 24.076 20.52 24.036 20.7C24.036 20.76 24.006 20.81 23.946 20.85C23.806 20.91 23.686 20.99 23.586 21.09C23.426 21.23 23.236 21.3 23.016 21.3ZM38.4423 21.27C38.3823 21.25 38.3123 21.23 38.2323 21.21C38.1723 21.19 38.1123 21.17 38.0523 21.15C37.8923 21.09 37.7323 21.01 37.5723 20.91C37.4923 20.87 37.4323 20.81 37.3923 20.73C37.2523 20.51 37.1223 20.31 37.0023 20.13C36.8823 19.93 36.7523 19.73 36.6123 19.53L36.3423 19.05C36.2023 18.77 36.0623 18.5 35.9223 18.24C35.7823 17.96 35.6423 17.69 35.5023 17.43C35.4623 17.33 35.4123 17.25 35.3523 17.19C35.3123 17.11 35.2723 17.03 35.2323 16.95C35.0923 16.73 34.9623 16.51 34.8423 16.29C34.7223 16.05 34.6023 15.82 34.4823 15.6L33.7323 14.13C33.5323 13.73 33.3323 13.34 33.1323 12.96C32.9323 12.56 32.7323 12.16 32.5323 11.76C32.4923 11.72 32.4523 11.66 32.4123 11.58C32.3323 11.36 32.2323 11.15 32.1123 10.95C32.0123 10.75 31.9123 10.55 31.8123 10.35C31.7323 10.21 31.6623 10.07 31.6023 9.93C31.5423 9.77 31.4723 9.62 31.3923 9.48L31.0623 8.88C31.0223 8.88 30.9923 8.87 30.9723 8.85C30.9723 8.85 30.9623 8.86 30.9423 8.88C30.9423 8.88 30.9423 8.89 30.9423 8.91C30.9223 9.17 30.9023 9.44 30.8823 9.72C30.8623 10 30.8623 10.28 30.8823 10.56C30.9223 10.68 30.9223 10.81 30.8823 10.95C30.8423 11.31 30.8523 11.63 30.9123 11.91C30.9323 11.99 30.9323 12.07 30.9123 12.15C30.9123 12.23 30.9023 12.32 30.8823 12.42C30.8623 12.56 30.8523 12.69 30.8523 12.81C30.8523 12.93 30.8423 13.06 30.8223 13.2C30.8623 13.28 30.8823 13.37 30.8823 13.47C30.8823 13.55 30.8723 13.63 30.8523 13.71C30.7923 13.91 30.7923 14.12 30.8523 14.34C30.8923 14.4 30.8923 14.46 30.8523 14.52C30.7723 14.7 30.7523 14.92 30.7923 15.18C30.8523 15.52 30.8323 15.89 30.7323 16.29C30.7123 16.33 30.7023 16.4 30.7023 16.5C30.6823 16.58 30.7023 16.65 30.7623 16.71C30.8423 16.75 30.8623 16.8 30.8223 16.86C30.8023 17.12 30.8023 17.39 30.8223 17.67C30.8223 17.67 30.8223 17.68 30.8223 17.7C30.8223 17.7 30.8123 17.7 30.7923 17.7C30.7723 17.7 30.7623 17.69 30.7623 17.67C30.7423 17.65 30.7323 17.63 30.7323 17.61C30.6923 17.57 30.6723 17.58 30.6723 17.64C30.6723 17.74 30.6823 17.8 30.7023 17.82C30.7423 17.92 30.7623 18.02 30.7623 18.12C30.7623 18.22 30.7623 18.32 30.7623 18.42V19.35C30.7623 19.41 30.7523 19.47 30.7323 19.53C30.7323 19.59 30.7023 19.64 30.6423 19.68C30.5623 19.7 30.5223 19.77 30.5223 19.89C30.5023 20.11 30.4223 20.3 30.2823 20.46C30.1623 20.62 30.0223 20.76 29.8623 20.88C29.7823 20.94 29.6823 20.98 29.5623 21C29.4623 21 29.3623 20.99 29.2623 20.97L28.7223 20.79C28.6823 20.79 28.6423 20.76 28.6023 20.7C28.5423 20.64 28.4823 20.58 28.4223 20.52C28.3623 20.44 28.2923 20.37 28.2123 20.31C28.1123 20.25 28.0423 20.14 28.0023 19.98C27.9823 19.88 27.9523 19.77 27.9123 19.65C27.8723 19.53 27.8523 19.41 27.8523 19.29C27.8523 19.15 27.8523 19.02 27.8523 18.9C27.8723 18.78 27.8823 18.65 27.8823 18.51C27.9023 18.41 27.9123 18.32 27.9123 18.24C27.9123 18.14 27.9223 18.04 27.9423 17.94V6.96C27.9423 6.86 27.9423 6.76 27.9423 6.66C27.9623 6.56 27.9823 6.47 28.0023 6.39C28.0023 6.29 28.0023 6.19 28.0023 6.09C28.0223 5.99 28.0323 5.89 28.0323 5.79C28.0323 5.67 28.0323 5.55 28.0323 5.43C28.0523 5.31 28.0723 5.2 28.0923 5.1C28.1123 5.02 28.1223 4.95 28.1223 4.89C28.1223 4.83 28.1223 4.76 28.1223 4.68V3.75C28.1223 3.61 28.1323 3.49 28.1523 3.39C28.1923 3.27 28.2223 3.15 28.2423 3.03L28.3323 2.88C28.3923 2.82 28.4423 2.73 28.4823 2.61C28.5223 2.49 28.5823 2.43 28.6623 2.43C28.7223 2.39 28.7823 2.36 28.8423 2.34C28.9023 2.3 28.9423 2.24 28.9623 2.16L28.9923 2.13C29.0123 2.13 29.0323 2.13 29.0523 2.13C29.0723 2.11 29.0923 2.1 29.1123 2.1C29.1923 2.1 29.2523 2.08 29.2923 2.04C29.3523 2 29.4223 1.99 29.5023 2.01C29.5823 2.03 29.6623 2.04 29.7423 2.04C29.8223 2.04 29.9023 2.05 29.9823 2.07C30.4223 2.15 30.7323 2.41 30.9123 2.85L31.0923 3.45C31.1123 3.65 31.2023 3.84 31.3623 4.02C31.4823 4.16 31.6023 4.31 31.7223 4.47C31.8423 4.63 31.9723 4.79 32.1123 4.95C32.6323 5.61 33.1123 6.35 33.5523 7.17C33.5923 7.25 33.6323 7.33 33.6723 7.41C33.7123 7.49 33.7523 7.57 33.7923 7.65L35.3523 10.8C35.4723 11.02 35.5823 11.25 35.6823 11.49C35.8023 11.71 35.9323 11.93 36.0723 12.15C36.1123 12.23 36.1523 12.31 36.1923 12.39C36.2323 12.45 36.2623 12.52 36.2823 12.6C36.3823 12.84 36.5023 13.08 36.6423 13.32C36.6423 13.32 36.6423 13.33 36.6423 13.35C36.6623 13.35 36.6723 13.34 36.6723 13.32C36.6923 13.32 36.7023 13.32 36.7023 13.32C36.7223 13.3 36.7323 13.29 36.7323 13.29L36.8223 12.24V11.94C36.8423 11.84 36.8523 11.74 36.8523 11.64C36.8723 11.52 36.8923 11.41 36.9123 11.31C36.9323 11.25 36.9323 11.18 36.9123 11.1C36.9123 11.02 36.9223 10.94 36.9423 10.86C36.9423 10.74 36.9423 10.62 36.9423 10.5C36.9623 10.36 36.9823 10.23 37.0023 10.11C37.0223 10.05 37.0323 9.99 37.0323 9.93C37.0323 9.85 37.0323 9.78 37.0323 9.72V8.91H37.0023V8.1C37.0023 8 37.0023 7.9 37.0023 7.8C37.0023 7.7 36.9823 7.6 36.9423 7.5C36.9223 7.44 36.9123 7.35 36.9123 7.23L36.9423 7.02C36.9423 6.96 36.9323 6.91 36.9123 6.87C36.9123 6.81 36.9123 6.75 36.9123 6.69C36.9323 6.61 36.9223 6.53 36.8823 6.45C36.8423 6.37 36.8223 6.29 36.8223 6.21C36.8423 6.13 36.8523 6.05 36.8523 5.97C36.8523 5.89 36.8523 5.81 36.8523 5.73C36.8523 5.65 36.8123 5.61 36.7323 5.61C36.7123 5.61 36.7023 5.59 36.7023 5.55C36.6823 5.49 36.6823 5.44 36.7023 5.4C36.7423 5.3 36.7623 5.19 36.7623 5.07C36.7623 4.95 36.7623 4.83 36.7623 4.71V3.84C36.7423 3.72 36.7523 3.6 36.7923 3.48C36.8323 3.36 36.8823 3.25 36.9423 3.15L37.0623 2.97C37.1623 2.87 37.2723 2.77 37.3923 2.67C37.5123 2.57 37.6323 2.47 37.7523 2.37C37.7523 2.37 37.7923 2.35 37.8723 2.31C37.9723 2.29 38.0623 2.27 38.1423 2.25C38.2423 2.23 38.3423 2.23 38.4423 2.25C38.5223 2.25 38.5823 2.26 38.6223 2.28C38.7023 2.32 38.7823 2.37 38.8623 2.43C38.9423 2.47 39.0223 2.52 39.1023 2.58C39.1423 2.6 39.1623 2.62 39.1623 2.64C39.1823 2.66 39.2023 2.68 39.2223 2.7C39.2623 2.74 39.2923 2.79 39.3123 2.85C39.3523 2.89 39.3823 2.93 39.4023 2.97C39.5023 3.05 39.5623 3.15 39.5823 3.27C39.6223 3.37 39.6523 3.47 39.6723 3.57V4.83C39.6723 4.97 39.6723 5.11 39.6723 5.25C39.6923 5.37 39.7123 5.5 39.7323 5.64C39.7523 5.72 39.7623 5.8 39.7623 5.88C39.7623 5.94 39.7623 6.01 39.7623 6.09C39.7623 6.25 39.7623 6.42 39.7623 6.6C39.7823 6.76 39.7923 6.92 39.7923 7.08V7.29C39.7923 7.43 39.7823 7.57 39.7623 7.71C39.7623 7.83 39.7623 7.96 39.7623 8.1V9.42C39.7623 9.62 39.7523 9.83 39.7323 10.05C39.7323 10.25 39.7423 10.46 39.7623 10.68C39.7623 10.76 39.7523 10.82 39.7323 10.86C39.7123 11.06 39.7023 11.26 39.7023 11.46C39.7023 11.64 39.6923 11.83 39.6723 12.03C39.6723 12.11 39.6723 12.2 39.6723 12.3C39.6723 12.4 39.6623 12.5 39.6423 12.6C39.6223 12.68 39.6123 12.76 39.6123 12.84C39.6323 12.92 39.6423 13 39.6423 13.08C39.6823 13.26 39.6923 13.44 39.6723 13.62C39.6723 13.8 39.6623 13.98 39.6423 14.16C39.6223 14.48 39.6023 14.81 39.5823 15.15C39.5823 15.47 39.6023 15.8 39.6423 16.14C39.6423 16.22 39.6423 16.31 39.6423 16.41C39.6623 16.51 39.6723 16.61 39.6723 16.71C39.6523 17.01 39.6623 17.3 39.7023 17.58C39.7623 17.86 39.8223 18.14 39.8823 18.42C39.9223 18.62 39.9623 18.82 40.0023 19.02C40.0423 19.2 40.0723 19.4 40.0923 19.62C40.0923 19.7 40.0823 19.75 40.0623 19.77C40.0423 19.81 40.0223 19.86 40.0023 19.92C39.9823 19.96 39.9723 20 39.9723 20.04C39.9523 20.2 39.8923 20.35 39.7923 20.49C39.7123 20.63 39.6223 20.77 39.5223 20.91C39.2623 21.25 38.9023 21.37 38.4423 21.27ZM55.3652 21.72C55.1852 21.74 55.0152 21.74 54.8552 21.72C54.6952 21.7 54.5352 21.62 54.3752 21.48C54.3352 21.44 54.2752 21.4 54.1952 21.36C54.0952 21.3 54.0352 21.23 54.0152 21.15C53.9952 21.07 53.9552 21.01 53.8952 20.97C53.8352 20.91 53.7952 20.84 53.7752 20.76C53.7552 20.7 53.7452 20.64 53.7452 20.58C53.7652 20.5 53.7752 20.43 53.7752 20.37C53.7752 20.31 53.7652 20.25 53.7452 20.19C53.7452 20.13 53.7452 20.07 53.7452 20.01C53.6852 19.71 53.6252 19.41 53.5652 19.11C53.5052 18.79 53.4552 18.48 53.4152 18.18C53.3952 18.04 53.3752 17.9 53.3552 17.76C53.3352 17.62 53.3152 17.48 53.2952 17.34C53.2752 17.08 53.2452 16.82 53.2052 16.56C53.1852 16.3 53.1552 16.04 53.1152 15.78C53.0752 15.62 53.0552 15.48 53.0552 15.36C53.0552 15.2 53.0452 15.05 53.0252 14.91C53.0052 14.75 52.9852 14.6 52.9652 14.46C52.9452 14.34 52.8752 14.28 52.7552 14.28L52.5452 14.25C52.4452 14.23 52.3352 14.22 52.2152 14.22C52.0952 14.22 51.9752 14.21 51.8552 14.19H51.5552C51.5152 14.21 51.4552 14.22 51.3752 14.22C51.2952 14.22 51.2152 14.22 51.1352 14.22C51.0752 14.2 50.9952 14.2 50.8952 14.22C50.8152 14.22 50.7352 14.23 50.6552 14.25C50.5952 14.25 50.5152 14.24 50.4152 14.22C50.3952 14.2 50.3552 14.2 50.2952 14.22C50.2552 14.22 50.2152 14.22 50.1752 14.22C50.0752 14.22 49.9652 14.23 49.8452 14.25C49.7452 14.25 49.6452 14.25 49.5452 14.25C49.4852 14.25 49.4252 14.25 49.3652 14.25C49.3052 14.25 49.2452 14.26 49.1852 14.28C49.0452 14.3 48.9052 14.32 48.7652 14.34C48.6252 14.34 48.4852 14.34 48.3452 14.34C48.1452 14.32 47.9452 14.32 47.7452 14.34C47.5452 14.36 47.3452 14.38 47.1452 14.4H47.0552C46.9552 14.44 46.9052 14.5 46.9052 14.58C46.9052 14.6 46.8952 14.62 46.8752 14.64C46.8752 14.64 46.8752 14.65 46.8752 14.67C46.8752 14.77 46.8852 14.85 46.9052 14.91C46.9252 15.05 46.9452 15.2 46.9652 15.36C46.9852 15.5 47.0052 15.65 47.0252 15.81L47.1152 16.53C47.1352 16.73 47.1652 16.93 47.2052 17.13C47.2452 17.31 47.2752 17.49 47.2952 17.67C47.3152 17.69 47.3252 17.72 47.3252 17.76C47.3252 17.78 47.3352 17.81 47.3552 17.85C47.3952 17.95 47.4152 18.06 47.4152 18.18C47.4152 18.3 47.4152 18.42 47.4152 18.54C47.4552 18.56 47.4452 18.6 47.3852 18.66C47.3652 18.7 47.3452 18.74 47.3252 18.78C47.3052 18.82 47.2952 18.86 47.2952 18.9C47.2352 19.1 47.1052 19.29 46.9052 19.47C46.7052 19.63 46.5152 19.72 46.3352 19.74C46.3152 19.74 46.2952 19.75 46.2752 19.77C46.2552 19.77 46.2252 19.77 46.1852 19.77C45.9252 19.83 45.6452 19.81 45.3452 19.71L45.2552 19.65C45.2352 19.57 45.1952 19.51 45.1352 19.47C45.0752 19.43 45.0252 19.39 44.9852 19.35C44.9452 19.29 44.8952 19.24 44.8352 19.2C44.7952 19.14 44.7652 19.07 44.7452 18.99C44.7452 18.97 44.7352 18.96 44.7152 18.96C44.6352 18.86 44.5852 18.75 44.5652 18.63C44.5452 18.51 44.5252 18.39 44.5052 18.27L44.4152 17.79C44.3952 17.61 44.3652 17.43 44.3252 17.25C44.3052 17.05 44.2852 16.85 44.2652 16.65L44.0852 15.48C44.0652 15.34 44.0452 15.2 44.0252 15.06C44.0052 14.9 43.9852 14.75 43.9652 14.61L43.8752 13.65C43.8552 13.45 43.8352 13.25 43.8152 13.05C43.7952 12.85 43.7652 12.65 43.7252 12.45V12.18C43.7252 12.02 43.7152 11.86 43.6952 11.7C43.6952 11.54 43.6852 11.39 43.6652 11.25C43.6452 11.19 43.6352 11.13 43.6352 11.07C43.6352 11.01 43.6352 10.95 43.6352 10.89C43.6352 10.79 43.6252 10.7 43.6052 10.62C43.6052 10.52 43.5952 10.42 43.5752 10.32L43.4852 9.69C43.4652 9.47 43.4252 9.24 43.3652 9C43.3252 8.76 43.2652 8.53 43.1852 8.31C43.1452 8.19 43.0952 8.07 43.0352 7.95C42.9752 7.81 42.9252 7.67 42.8852 7.53C42.8452 7.37 42.8052 7.26 42.7652 7.2C42.7052 7 42.7052 6.81 42.7652 6.63L42.9452 6.18C42.9652 6.1 43.0252 6.03 43.1252 5.97C43.1652 5.91 43.2152 5.86 43.2752 5.82C43.3352 5.76 43.3952 5.71 43.4552 5.67C43.4952 5.65 43.5452 5.64 43.6052 5.64C43.6652 5.66 43.7452 5.65 43.8452 5.61L43.9352 5.55C44.1152 5.45 44.2952 5.45 44.4752 5.55C44.5752 5.59 44.6752 5.63 44.7752 5.67C44.8952 5.71 44.9952 5.78 45.0752 5.88C45.1952 5.9 45.2752 5.99 45.3152 6.15L45.5852 6.75C45.7452 7.09 45.8852 7.44 46.0052 7.8C46.1252 8.16 46.2052 8.54 46.2452 8.94C46.2652 9.08 46.2852 9.23 46.3052 9.39C46.3452 9.53 46.3752 9.68 46.3952 9.84V10.08C46.3952 10.18 46.4052 10.25 46.4252 10.29C46.4452 10.43 46.4552 10.58 46.4552 10.74C46.4752 10.9 46.4852 11.06 46.4852 11.22V11.28C46.5052 11.38 46.5652 11.45 46.6652 11.49C46.7252 11.51 46.7852 11.53 46.8452 11.55C46.9052 11.55 46.9652 11.55 47.0252 11.55C47.1252 11.53 47.2052 11.53 47.2652 11.55C47.3452 11.55 47.4252 11.55 47.5052 11.55C47.6452 11.55 47.7752 11.55 47.8952 11.55C48.0152 11.53 48.1452 11.52 48.2852 11.52H48.6452C48.7052 11.52 48.7652 11.53 48.8252 11.55C48.9052 11.55 48.9752 11.54 49.0352 11.52C49.0752 11.52 49.1052 11.52 49.1252 11.52C49.1652 11.5 49.1952 11.49 49.2152 11.49C49.4152 11.51 49.6152 11.52 49.8152 11.52C50.0152 11.5 50.2152 11.49 50.4152 11.49C50.6152 11.51 50.8152 11.52 51.0152 11.52C51.2152 11.5 51.4152 11.49 51.6152 11.49C51.7752 11.49 51.9252 11.5 52.0652 11.52C52.2252 11.52 52.3752 11.52 52.5152 11.52C52.6552 11.52 52.7252 11.46 52.7252 11.34C52.7252 11.24 52.7252 11.13 52.7252 11.01C52.7252 10.89 52.7152 10.78 52.6952 10.68C52.6752 10.46 52.6552 10.26 52.6352 10.08C52.6352 9.88 52.6252 9.68 52.6052 9.48C52.5852 9.2 52.5752 8.93 52.5752 8.67C52.5952 8.39 52.5852 8.12 52.5452 7.86C52.5252 7.64 52.5052 7.42 52.4852 7.2C52.4852 6.98 52.4652 6.77 52.4252 6.57V6.15C52.4252 6.07 52.4352 6.01 52.4552 5.97C52.4552 5.93 52.4552 5.9 52.4552 5.88C52.4752 5.84 52.4852 5.81 52.4852 5.79C52.4852 5.69 52.4652 5.63 52.4252 5.61L52.3352 5.55C52.2152 5.47 52.1952 5.38 52.2752 5.28C52.3352 5.2 52.3452 5.11 52.3052 5.01C52.3052 4.95 52.3152 4.91 52.3352 4.89C52.3752 4.83 52.4152 4.77 52.4552 4.71C52.4952 4.65 52.5252 4.58 52.5452 4.5C52.6052 4.28 52.6952 4.18 52.8152 4.2C52.9552 4.2 53.0452 4.22 53.0852 4.26C53.1052 4.28 53.1252 4.29 53.1452 4.29C53.1652 4.27 53.1752 4.25 53.1752 4.23C53.1752 4.11 53.2352 4.04 53.3552 4.02C53.4752 4 53.5652 3.98 53.6252 3.96L53.8052 3.84H53.8952C53.9952 3.88 54.0752 3.93 54.1352 3.99C54.2152 4.03 54.2952 4.07 54.3752 4.11C54.4152 4.13 54.4652 4.17 54.5252 4.23C54.6652 4.41 54.7652 4.64 54.8252 4.92C54.8652 5.12 54.9052 5.31 54.9452 5.49C54.9852 5.67 55.0152 5.86 55.0352 6.06C55.0352 6.1 55.0352 6.14 55.0352 6.18C55.0552 6.22 55.0652 6.26 55.0652 6.3L55.0952 6.51C55.0952 6.75 55.1052 6.99 55.1252 7.23C55.1652 7.45 55.1952 7.68 55.2152 7.92C55.2352 7.94 55.2452 7.98 55.2452 8.04C55.2252 8.18 55.2152 8.32 55.2152 8.46C55.2352 8.58 55.2552 8.72 55.2752 8.88C55.2952 9.02 55.3052 9.18 55.3052 9.36C55.3252 9.52 55.3352 9.68 55.3352 9.84C55.3352 9.94 55.3352 10.05 55.3352 10.17C55.3552 10.29 55.3752 10.4 55.3952 10.5C55.4152 10.6 55.4252 10.7 55.4252 10.8C55.4252 10.9 55.4252 11 55.4252 11.1C55.4252 11.2 55.4252 11.3 55.4252 11.4C55.4452 11.48 55.4652 11.57 55.4852 11.67V11.79C55.5052 12.03 55.5252 12.27 55.5452 12.51C55.5852 12.73 55.6152 12.96 55.6352 13.2C55.6552 13.22 55.6652 13.26 55.6652 13.32C55.6652 13.54 55.6852 13.77 55.7252 14.01C55.7652 14.23 55.7952 14.45 55.8152 14.67L55.9052 15.72C55.9052 15.74 55.9052 15.78 55.9052 15.84C55.9252 15.88 55.9352 15.92 55.9352 15.96C55.9552 16 55.9652 16.08 55.9652 16.2C55.9652 16.38 55.9752 16.56 55.9952 16.74C56.0352 16.92 56.0652 17.1 56.0852 17.28C56.1252 17.48 56.1552 17.68 56.1752 17.88C56.1952 18.08 56.2252 18.29 56.2652 18.51C56.3052 18.75 56.3552 18.99 56.4152 19.23C56.4752 19.47 56.5252 19.71 56.5652 19.95C56.5852 20.03 56.5952 20.12 56.5952 20.22C56.6152 20.3 56.6252 20.39 56.6252 20.49C56.6252 20.59 56.5952 20.69 56.5352 20.79C56.5152 20.81 56.4952 20.85 56.4752 20.91C56.4752 20.95 56.4552 20.99 56.4152 21.03C56.3952 21.05 56.3852 21.07 56.3852 21.09C56.3852 21.11 56.3752 21.12 56.3552 21.12C56.2752 21.14 56.2052 21.19 56.1452 21.27C56.0852 21.35 56.0152 21.41 55.9352 21.45C55.8552 21.53 55.7452 21.59 55.6052 21.63L55.3652 21.72ZM71.4972 23.19C71.3172 23.19 71.1572 23.12 71.0172 22.98C70.9772 22.92 70.9372 22.86 70.8972 22.8C70.8572 22.74 70.8172 22.68 70.7772 22.62C70.5972 22.2 70.5072 21.76 70.5072 21.3L70.4172 20.58C70.3572 20.3 70.3072 20.02 70.2672 19.74C70.2272 19.46 70.1572 19.19 70.0572 18.93L69.8772 18.42C69.8772 18.38 69.8672 18.34 69.8472 18.3C69.8472 18.26 69.8372 18.22 69.8172 18.18L69.3672 16.59C69.3472 16.55 69.3272 16.5 69.3072 16.44C69.3072 16.38 69.2872 16.33 69.2472 16.29C69.1872 16.17 69.1372 16.05 69.0972 15.93C69.0772 15.79 69.0472 15.65 69.0072 15.51C68.9872 15.41 68.9672 15.32 68.9472 15.24C68.9272 15.14 68.8972 15.04 68.8572 14.94C68.8172 14.82 68.7772 14.75 68.7372 14.73C68.6972 14.69 68.6072 14.69 68.4672 14.73C68.3672 14.75 68.2572 14.77 68.1372 14.79C68.0372 14.79 67.9372 14.81 67.8372 14.85C67.7572 14.87 67.6572 14.89 67.5372 14.91C67.4372 14.91 67.3372 14.92 67.2372 14.94L66.8172 15.03C66.7172 15.05 66.6072 15.08 66.4872 15.12C66.3872 15.14 66.2872 15.15 66.1872 15.15L65.6472 15.24C65.4872 15.28 65.3172 15.32 65.1372 15.36C64.9572 15.4 64.7872 15.44 64.6272 15.48C64.1472 15.6 63.6672 15.69 63.1872 15.75C63.0272 15.79 62.9372 15.86 62.9172 15.96C62.8972 15.96 62.8872 15.97 62.8872 15.99C62.7672 16.31 62.6272 16.63 62.4672 16.95C62.3272 17.25 62.1772 17.56 62.0172 17.88C61.9772 17.96 61.9372 18.04 61.8972 18.12C61.8772 18.18 61.8472 18.25 61.8072 18.33C61.7872 18.37 61.7672 18.42 61.7472 18.48C61.7272 18.52 61.7072 18.56 61.6872 18.6C61.5672 18.74 61.5072 18.91 61.5072 19.11C61.4872 19.23 61.4472 19.35 61.3872 19.47C61.3272 19.57 61.2672 19.67 61.2072 19.77C61.1872 19.83 61.1472 19.86 61.0872 19.86C61.0072 19.88 60.9272 19.91 60.8472 19.95C60.7672 19.99 60.6772 20.03 60.5772 20.07C60.5172 20.09 60.4572 20.09 60.3972 20.07C60.3572 20.05 60.3072 20.03 60.2472 20.01C60.2072 19.97 60.1672 19.95 60.1272 19.95C59.9072 19.93 59.7472 19.8 59.6472 19.56C59.4872 19.24 59.3772 18.92 59.3172 18.6C59.2972 18.52 59.2972 18.45 59.3172 18.39C59.3572 18.33 59.3872 18.27 59.4072 18.21C59.5272 18.13 59.5972 18.04 59.6172 17.94V17.91C59.6172 17.65 59.6672 17.41 59.7672 17.19C59.8872 16.95 59.9872 16.72 60.0672 16.5C60.1072 16.38 60.1572 16.26 60.2172 16.14C60.2772 16.02 60.3372 15.9 60.3972 15.78C60.4772 15.64 60.5372 15.51 60.5772 15.39C60.6372 15.25 60.6872 15.11 60.7272 14.97C60.7872 14.81 60.7872 14.66 60.7272 14.52C60.6872 14.4 60.6672 14.29 60.6672 14.19C60.6672 14.07 60.6772 13.95 60.6972 13.83C60.6972 13.61 60.7772 13.42 60.9372 13.26C61.0172 13.16 61.0972 13.08 61.1772 13.02C61.2772 12.94 61.3672 12.86 61.4472 12.78C61.6272 12.6 61.7672 12.36 61.8672 12.06C61.9472 11.8 62.0072 11.54 62.0472 11.28C62.1072 11 62.1672 10.73 62.2272 10.47C62.2672 10.21 62.3072 9.96 62.3472 9.72C62.4072 9.46 62.4672 9.21 62.5272 8.97C62.5472 8.87 62.5672 8.78 62.5872 8.7C62.6272 8.6 62.6572 8.51 62.6772 8.43C62.7372 8.27 62.7972 8.12 62.8572 7.98C62.9172 7.82 62.9572 7.66 62.9772 7.5C63.0172 7.42 63.0172 7.35 62.9772 7.29C62.9572 7.19 62.9572 7.1 62.9772 7.02C63.0172 6.94 63.0472 6.86 63.0672 6.78C63.1272 6.64 63.1672 6.5 63.1872 6.36C63.2272 6.22 63.2772 6.08 63.3372 5.94C63.4372 5.68 63.5172 5.47 63.5772 5.31C63.6572 5.13 63.7272 4.93 63.7872 4.71C63.8272 4.59 63.8672 4.48 63.9072 4.38C63.9672 4.26 64.0072 4.14 64.0272 4.02C64.0872 3.84 64.1372 3.66 64.1772 3.48C64.2172 3.28 64.2372 3.09 64.2372 2.91C64.2772 2.75 64.3172 2.64 64.3572 2.58C64.4572 2.38 64.5772 2.21 64.7172 2.07C64.8772 1.93 65.0272 1.79 65.1672 1.65C65.2672 1.59 65.3672 1.55 65.4672 1.53C65.5672 1.49 65.6672 1.5 65.7672 1.56C65.8472 1.6 65.8972 1.62 65.9172 1.62C66.0972 1.6 66.2472 1.64 66.3672 1.74C66.4872 1.84 66.5872 1.96 66.6672 2.1C66.7072 2.14 66.7372 2.19 66.7572 2.25C66.7772 2.31 66.7972 2.36 66.8172 2.4C66.9172 2.56 66.9672 2.72 66.9672 2.88C66.9672 2.96 66.9772 3.05 66.9972 3.15C67.0172 3.23 67.0372 3.32 67.0572 3.42C67.1172 3.54 67.2072 3.6 67.3272 3.6C67.3472 3.58 67.3672 3.58 67.3872 3.6C67.4072 3.62 67.4172 3.64 67.4172 3.66C67.5172 3.78 67.5472 3.91 67.5072 4.05C67.4672 4.21 67.4572 4.37 67.4772 4.53C67.5172 4.67 67.5572 4.82 67.5972 4.98C67.6772 5.18 67.7572 5.38 67.8372 5.58C67.9172 5.78 67.9972 5.98 68.0772 6.18C68.1772 6.4 68.2772 6.62 68.3772 6.84C68.4772 7.06 68.5672 7.28 68.6472 7.5C68.7472 7.78 68.8472 8.06 68.9472 8.34C69.0672 8.62 69.1972 8.9 69.3372 9.18L69.4272 9.51C69.4472 9.59 69.4672 9.67 69.4872 9.75C69.5272 9.83 69.5572 9.91 69.5772 9.99C69.6172 10.05 69.6472 10.11 69.6672 10.17C69.7072 10.23 69.7472 10.28 69.7872 10.32C69.8872 10.46 69.9472 10.61 69.9672 10.77C70.0272 10.97 70.1172 11.15 70.2372 11.31C70.2772 11.37 70.3372 11.4 70.4172 11.4C70.7172 11.36 71.0172 11.33 71.3172 11.31C71.6172 11.27 71.9172 11.21 72.2172 11.13C72.4372 11.07 72.6472 11.04 72.8472 11.04C73.2272 11.04 73.5772 11.17 73.8972 11.43C74.2772 11.73 74.4772 12.11 74.4972 12.57C74.4972 12.67 74.5072 12.75 74.5272 12.81C74.5272 12.95 74.4872 13.06 74.4072 13.14C74.3872 13.2 74.3472 13.26 74.2872 13.32C74.2472 13.38 74.2072 13.44 74.1672 13.5C74.1272 13.58 74.0872 13.64 74.0472 13.68L73.8672 13.83C73.8472 13.87 73.8172 13.92 73.7772 13.98C73.7372 14.02 73.6872 14.05 73.6272 14.07C73.5472 14.09 73.4672 14.12 73.3872 14.16C73.3072 14.18 73.2172 14.19 73.1172 14.19C72.7572 14.23 72.4372 14.22 72.1572 14.16H71.6772C71.6372 14.16 71.5772 14.18 71.4972 14.22C71.4172 14.26 71.3772 14.31 71.3772 14.37V14.49C71.4372 14.67 71.4772 14.86 71.4972 15.06C71.5372 15.24 71.5972 15.41 71.6772 15.57C71.6772 15.65 71.6972 15.73 71.7372 15.81C71.8372 15.99 71.9172 16.18 71.9772 16.38C72.0372 16.56 72.0872 16.75 72.1272 16.95C72.1272 16.99 72.1472 17.07 72.1872 17.19C72.2472 17.33 72.2972 17.48 72.3372 17.64C72.3772 17.78 72.4072 17.93 72.4272 18.09C72.4272 18.21 72.4572 18.32 72.5172 18.42C72.5972 18.6 72.6572 18.78 72.6972 18.96C72.7372 19.14 72.7672 19.33 72.7872 19.53C72.8072 19.55 72.8172 19.59 72.8172 19.65C72.8172 19.69 72.8272 19.73 72.8472 19.77C72.9472 19.99 73.0172 20.23 73.0572 20.49C73.0972 20.73 73.1472 20.97 73.2072 21.21C73.2472 21.33 73.2672 21.45 73.2672 21.57C73.2872 21.71 73.2972 21.85 73.2972 21.99C73.2972 22.09 73.2672 22.2 73.2072 22.32C73.1472 22.38 73.1172 22.41 73.1172 22.41C72.9972 22.43 72.9272 22.5 72.9072 22.62L72.8172 22.8C72.7772 22.88 72.7172 22.93 72.6372 22.95C72.5572 22.95 72.4872 22.98 72.4272 23.04C72.3472 23.12 72.2372 23.16 72.0972 23.16C72.0172 23.16 71.9172 23.16 71.7972 23.16C71.6972 23.16 71.5972 23.17 71.4972 23.19ZM64.2672 12.3C64.3872 12.28 64.5072 12.26 64.6272 12.24C64.7672 12.22 64.9172 12.2 65.0772 12.18C65.1772 12.16 65.3072 12.14 65.4672 12.12C65.6272 12.1 65.7772 12.08 65.9172 12.06C66.0572 12.02 66.1972 12 66.3372 12C66.4772 11.98 66.6172 11.96 66.7572 11.94C66.8772 11.9 66.9972 11.88 67.1172 11.88C67.2372 11.86 67.3572 11.84 67.4772 11.82C67.6572 11.78 67.7272 11.68 67.6872 11.52C67.6672 11.36 67.6272 11.2 67.5672 11.04C67.5272 10.86 67.4372 10.71 67.2972 10.59C67.2572 10.55 67.2372 10.49 67.2372 10.41V10.32C67.1972 10.16 67.1472 10.01 67.0872 9.87C67.0472 9.71 66.9972 9.56 66.9372 9.42C66.8972 9.26 66.8472 9.12 66.7872 9C66.7472 8.86 66.6972 8.72 66.6372 8.58L66.2772 7.5C66.2172 7.36 66.1572 7.22 66.0972 7.08C66.0572 6.94 66.0172 6.8 65.9772 6.66L65.8872 6.54H65.7972L65.7372 6.63C65.6372 6.93 65.5172 7.23 65.3772 7.53C65.2572 7.83 65.1472 8.15 65.0472 8.49C65.0472 8.53 65.0372 8.58 65.0172 8.64C64.9972 8.7 64.9772 8.76 64.9572 8.82C64.8772 9.02 64.7972 9.24 64.7172 9.48C64.6572 9.72 64.6072 9.96 64.5672 10.2C64.5472 10.34 64.5272 10.48 64.5072 10.62C64.4872 10.74 64.4572 10.87 64.4172 11.01L64.1472 12.18C64.1272 12.2 64.1372 12.23 64.1772 12.27C64.2172 12.29 64.2472 12.3 64.2672 12.3ZM100.53 23.19C100.35 23.19 100.19 23.12 100.05 22.98C100.01 22.92 99.9704 22.86 99.9304 22.8C99.8904 22.74 99.8504 22.68 99.8104 22.62C99.6304 22.2 99.5404 21.76 99.5404 21.3L99.4504 20.58C99.3904 20.3 99.3404 20.02 99.3004 19.74C99.2604 19.46 99.1904 19.19 99.0904 18.93L98.9104 18.42C98.9104 18.38 98.9004 18.34 98.8804 18.3C98.8804 18.26 98.8704 18.22 98.8504 18.18L98.4004 16.59C98.3804 16.55 98.3604 16.5 98.3404 16.44C98.3404 16.38 98.3204 16.33 98.2804 16.29C98.2204 16.17 98.1704 16.05 98.1304 15.93C98.1104 15.79 98.0804 15.65 98.0404 15.51C98.0204 15.41 98.0004 15.32 97.9804 15.24C97.9604 15.14 97.9304 15.04 97.8904 14.94C97.8504 14.82 97.8104 14.75 97.7704 14.73C97.7304 14.69 97.6404 14.69 97.5004 14.73C97.4004 14.75 97.2904 14.77 97.1704 14.79C97.0704 14.79 96.9704 14.81 96.8704 14.85C96.7904 14.87 96.6904 14.89 96.5704 14.91C96.4704 14.91 96.3704 14.92 96.2704 14.94L95.8504 15.03C95.7504 15.05 95.6404 15.08 95.5204 15.12C95.4204 15.14 95.3204 15.15 95.2204 15.15L94.6804 15.24C94.5204 15.28 94.3504 15.32 94.1704 15.36C93.9904 15.4 93.8204 15.44 93.6604 15.48C93.1804 15.6 92.7004 15.69 92.2204 15.75C92.0604 15.79 91.9704 15.86 91.9504 15.96C91.9304 15.96 91.9204 15.97 91.9204 15.99C91.8004 16.31 91.6604 16.63 91.5004 16.95C91.3604 17.25 91.2104 17.56 91.0504 17.88C91.0104 17.96 90.9704 18.04 90.9304 18.12C90.9104 18.18 90.8804 18.25 90.8404 18.33C90.8204 18.37 90.8004 18.42 90.7804 18.48C90.7604 18.52 90.7404 18.56 90.7204 18.6C90.6004 18.74 90.5404 18.91 90.5404 19.11C90.5204 19.23 90.4804 19.35 90.4204 19.47C90.3604 19.57 90.3004 19.67 90.2404 19.77C90.2204 19.83 90.1804 19.86 90.1204 19.86C90.0404 19.88 89.9604 19.91 89.8804 19.95C89.8004 19.99 89.7104 20.03 89.6104 20.07C89.5504 20.09 89.4904 20.09 89.4304 20.07C89.3904 20.05 89.3404 20.03 89.2804 20.01C89.2404 19.97 89.2004 19.95 89.1604 19.95C88.9404 19.93 88.7804 19.8 88.6804 19.56C88.5204 19.24 88.4104 18.92 88.3504 18.6C88.3304 18.52 88.3304 18.45 88.3504 18.39C88.3904 18.33 88.4204 18.27 88.4404 18.21C88.5604 18.13 88.6304 18.04 88.6504 17.94V17.91C88.6504 17.65 88.7004 17.41 88.8004 17.19C88.9204 16.95 89.0204 16.72 89.1004 16.5C89.1404 16.38 89.1904 16.26 89.2504 16.14C89.3104 16.02 89.3704 15.9 89.4304 15.78C89.5104 15.64 89.5704 15.51 89.6104 15.39C89.6704 15.25 89.7204 15.11 89.7604 14.97C89.8204 14.81 89.8204 14.66 89.7604 14.52C89.7204 14.4 89.7004 14.29 89.7004 14.19C89.7004 14.07 89.7104 13.95 89.7304 13.83C89.7304 13.61 89.8104 13.42 89.9704 13.26C90.0504 13.16 90.1304 13.08 90.2104 13.02C90.3104 12.94 90.4004 12.86 90.4804 12.78C90.6604 12.6 90.8004 12.36 90.9004 12.06C90.9804 11.8 91.0404 11.54 91.0804 11.28C91.1404 11 91.2004 10.73 91.2604 10.47C91.3004 10.21 91.3404 9.96 91.3804 9.72C91.4404 9.46 91.5004 9.21 91.5604 8.97C91.5804 8.87 91.6004 8.78 91.6204 8.7C91.6604 8.6 91.6904 8.51 91.7104 8.43C91.7704 8.27 91.8304 8.12 91.8904 7.98C91.9504 7.82 91.9904 7.66 92.0104 7.5C92.0504 7.42 92.0504 7.35 92.0104 7.29C91.9904 7.19 91.9904 7.1 92.0104 7.02C92.0504 6.94 92.0804 6.86 92.1004 6.78C92.1604 6.64 92.2004 6.5 92.2204 6.36C92.2604 6.22 92.3104 6.08 92.3704 5.94C92.4704 5.68 92.5504 5.47 92.6104 5.31C92.6904 5.13 92.7604 4.93 92.8204 4.71C92.8604 4.59 92.9004 4.48 92.9404 4.38C93.0004 4.26 93.0404 4.14 93.0604 4.02C93.1204 3.84 93.1704 3.66 93.2104 3.48C93.2504 3.28 93.2704 3.09 93.2704 2.91C93.3104 2.75 93.3504 2.64 93.3904 2.58C93.4904 2.38 93.6104 2.21 93.7504 2.07C93.9104 1.93 94.0604 1.79 94.2004 1.65C94.3004 1.59 94.4004 1.55 94.5004 1.53C94.6004 1.49 94.7004 1.5 94.8004 1.56C94.8804 1.6 94.9304 1.62 94.9504 1.62C95.1304 1.6 95.2804 1.64 95.4004 1.74C95.5204 1.84 95.6204 1.96 95.7004 2.1C95.7404 2.14 95.7704 2.19 95.7904 2.25C95.8104 2.31 95.8304 2.36 95.8504 2.4C95.9504 2.56 96.0004 2.72 96.0004 2.88C96.0004 2.96 96.0104 3.05 96.0304 3.15C96.0504 3.23 96.0704 3.32 96.0904 3.42C96.1504 3.54 96.2404 3.6 96.3604 3.6C96.3804 3.58 96.4004 3.58 96.4204 3.6C96.4404 3.62 96.4504 3.64 96.4504 3.66C96.5504 3.78 96.5804 3.91 96.5404 4.05C96.5004 4.21 96.4904 4.37 96.5104 4.53C96.5504 4.67 96.5904 4.82 96.6304 4.98C96.7104 5.18 96.7904 5.38 96.8704 5.58C96.9504 5.78 97.0304 5.98 97.1104 6.18C97.2104 6.4 97.3104 6.62 97.4104 6.84C97.5104 7.06 97.6004 7.28 97.6804 7.5C97.7804 7.78 97.8804 8.06 97.9804 8.34C98.1004 8.62 98.2304 8.9 98.3704 9.18L98.4604 9.51C98.4804 9.59 98.5004 9.67 98.5204 9.75C98.5604 9.83 98.5904 9.91 98.6104 9.99C98.6504 10.05 98.6804 10.11 98.7004 10.17C98.7404 10.23 98.7804 10.28 98.8204 10.32C98.9204 10.46 98.9804 10.61 99.0004 10.77C99.0604 10.97 99.1504 11.15 99.2704 11.31C99.3104 11.37 99.3704 11.4 99.4504 11.4C99.7504 11.36 100.05 11.33 100.35 11.31C100.65 11.27 100.95 11.21 101.25 11.13C101.47 11.07 101.68 11.04 101.88 11.04C102.26 11.04 102.61 11.17 102.93 11.43C103.31 11.73 103.51 12.11 103.53 12.57C103.53 12.67 103.54 12.75 103.56 12.81C103.56 12.95 103.52 13.06 103.44 13.14C103.42 13.2 103.38 13.26 103.32 13.32C103.28 13.38 103.24 13.44 103.2 13.5C103.16 13.58 103.12 13.64 103.08 13.68L102.9 13.83C102.88 13.87 102.85 13.92 102.81 13.98C102.77 14.02 102.72 14.05 102.66 14.07C102.58 14.09 102.5 14.12 102.42 14.16C102.34 14.18 102.25 14.19 102.15 14.19C101.79 14.23 101.47 14.22 101.19 14.16H100.71C100.67 14.16 100.61 14.18 100.53 14.22C100.45 14.26 100.41 14.31 100.41 14.37V14.49C100.47 14.67 100.51 14.86 100.53 15.06C100.57 15.24 100.63 15.41 100.71 15.57C100.71 15.65 100.73 15.73 100.77 15.81C100.87 15.99 100.95 16.18 101.01 16.38C101.07 16.56 101.12 16.75 101.16 16.95C101.16 16.99 101.18 17.07 101.22 17.19C101.28 17.33 101.33 17.48 101.37 17.64C101.41 17.78 101.44 17.93 101.46 18.09C101.46 18.21 101.49 18.32 101.55 18.42C101.63 18.6 101.69 18.78 101.73 18.96C101.77 19.14 101.8 19.33 101.82 19.53C101.84 19.55 101.85 19.59 101.85 19.65C101.85 19.69 101.86 19.73 101.88 19.77C101.98 19.99 102.05 20.23 102.09 20.49C102.13 20.73 102.18 20.97 102.24 21.21C102.28 21.33 102.3 21.45 102.3 21.57C102.32 21.71 102.33 21.85 102.33 21.99C102.33 22.09 102.3 22.2 102.24 22.32C102.18 22.38 102.15 22.41 102.15 22.41C102.03 22.43 101.96 22.5 101.94 22.62L101.85 22.8C101.81 22.88 101.75 22.93 101.67 22.95C101.59 22.95 101.52 22.98 101.46 23.04C101.38 23.12 101.27 23.16 101.13 23.16C101.05 23.16 100.95 23.16 100.83 23.16C100.73 23.16 100.63 23.17 100.53 23.19ZM93.3004 12.3C93.4204 12.28 93.5404 12.26 93.6604 12.24C93.8004 12.22 93.9504 12.2 94.1104 12.18C94.2104 12.16 94.3404 12.14 94.5004 12.12C94.6604 12.1 94.8104 12.08 94.9504 12.06C95.0904 12.02 95.2304 12 95.3704 12C95.5104 11.98 95.6504 11.96 95.7904 11.94C95.9104 11.9 96.0304 11.88 96.1504 11.88C96.2704 11.86 96.3904 11.84 96.5104 11.82C96.6904 11.78 96.7604 11.68 96.7204 11.52C96.7004 11.36 96.6604 11.2 96.6004 11.04C96.5604 10.86 96.4704 10.71 96.3304 10.59C96.2904 10.55 96.2704 10.49 96.2704 10.41V10.32C96.2304 10.16 96.1804 10.01 96.1204 9.87C96.0804 9.71 96.0304 9.56 95.9704 9.42C95.9304 9.26 95.8804 9.12 95.8204 9C95.7804 8.86 95.7304 8.72 95.6704 8.58L95.3104 7.5C95.2504 7.36 95.1904 7.22 95.1304 7.08C95.0904 6.94 95.0504 6.8 95.0104 6.66L94.9204 6.54H94.8304L94.7704 6.63C94.6704 6.93 94.5504 7.23 94.4104 7.53C94.2904 7.83 94.1804 8.15 94.0804 8.49C94.0804 8.53 94.0704 8.58 94.0504 8.64C94.0304 8.7 94.0104 8.76 93.9904 8.82C93.9104 9.02 93.8304 9.24 93.7504 9.48C93.6904 9.72 93.6404 9.96 93.6004 10.2C93.5804 10.34 93.5604 10.48 93.5404 10.62C93.5204 10.74 93.4904 10.87 93.4504 11.01L93.1804 12.18C93.1604 12.2 93.1704 12.23 93.2104 12.27C93.2504 12.29 93.2804 12.3 93.3004 12.3ZM108.238 21.09C108.078 21.15 107.898 21.13 107.698 21.03L107.098 20.76C106.998 20.72 106.918 20.63 106.858 20.49L106.768 20.31C106.728 20.21 106.678 20.14 106.618 20.1C106.518 20.02 106.448 19.88 106.408 19.68C106.368 19.48 106.338 19.28 106.318 19.08C106.298 18.88 106.278 18.68 106.258 18.48C106.238 18.32 106.228 18.16 106.228 18C106.228 17.84 106.228 17.69 106.228 17.55L106.258 17.34C106.298 17.24 106.318 17.14 106.318 17.04C106.318 16.94 106.318 16.85 106.318 16.77V11.31C106.358 11.03 106.378 10.75 106.378 10.47C106.378 10.17 106.378 9.88 106.378 9.6C106.398 9.32 106.408 9.05 106.408 8.79C106.408 8.51 106.388 8.24 106.348 7.98C106.328 7.88 106.318 7.77 106.318 7.65C106.318 7.53 106.318 7.41 106.318 7.29C106.318 7.11 106.318 6.93 106.318 6.75C106.318 6.57 106.298 6.39 106.258 6.21V6.12C106.258 5.84 106.238 5.57 106.198 5.31C106.178 5.03 106.158 4.76 106.138 4.5C106.118 4.34 106.098 4.19 106.078 4.05C106.058 3.91 106.028 3.77 105.988 3.63C105.968 3.55 105.958 3.47 105.958 3.39C105.958 3.31 105.958 3.23 105.958 3.15C105.958 3.01 105.978 2.88 106.018 2.76C106.058 2.62 106.098 2.49 106.138 2.37C106.158 2.33 106.208 2.27 106.288 2.19C106.328 2.15 106.368 2.12 106.408 2.1C106.448 2.08 106.478 2.06 106.498 2.04C106.618 1.88 106.778 1.81 106.978 1.83C107.018 1.85 107.078 1.84 107.158 1.8C107.258 1.72 107.348 1.71 107.428 1.77C107.488 1.81 107.588 1.81 107.728 1.77C107.788 1.77 107.838 1.79 107.878 1.83C107.938 1.91 108.018 1.97 108.118 2.01C108.218 2.05 108.288 2.11 108.328 2.19C108.388 2.25 108.448 2.31 108.508 2.37C108.548 2.43 108.588 2.49 108.628 2.55C108.688 2.59 108.718 2.65 108.718 2.73C108.738 2.81 108.738 2.89 108.718 2.97C108.718 3.03 108.718 3.1 108.718 3.18C108.718 3.36 108.728 3.55 108.748 3.75C108.788 3.93 108.818 4.11 108.838 4.29C108.878 4.49 108.908 4.7 108.928 4.92C108.948 5.12 108.968 5.33 108.988 5.55V5.85C109.028 5.99 109.048 6.13 109.048 6.27C109.048 6.41 109.058 6.55 109.078 6.69V6.72C109.098 6.96 109.118 7.2 109.138 7.44C109.158 7.68 109.178 7.92 109.198 8.16C109.218 8.26 109.228 8.37 109.228 8.49C109.228 8.59 109.228 8.69 109.228 8.79V16.77C109.228 16.95 109.238 17.13 109.258 17.31C109.298 17.49 109.328 17.66 109.348 17.82C109.348 17.92 109.408 17.97 109.528 17.97C109.708 18.01 109.878 18.01 110.038 17.97C110.258 17.93 110.468 17.91 110.668 17.91C110.888 17.91 111.108 17.91 111.328 17.91C111.548 17.91 111.758 17.91 111.958 17.91C112.178 17.89 112.388 17.87 112.588 17.85H112.918C113.078 17.87 113.218 17.89 113.338 17.91C113.478 17.91 113.618 17.91 113.758 17.91C113.978 17.91 114.198 17.92 114.418 17.94C114.658 17.94 114.888 17.95 115.108 17.97C115.268 17.99 115.428 18 115.588 18C115.768 18 115.948 18 116.128 18H116.278C116.678 17.98 117.038 18.08 117.358 18.3C117.498 18.36 117.598 18.46 117.658 18.6C117.698 18.68 117.728 18.76 117.748 18.84C117.788 18.9 117.818 18.98 117.838 19.08C117.858 19.16 117.868 19.24 117.868 19.32C117.888 19.38 117.908 19.45 117.928 19.53C117.988 19.71 117.968 19.91 117.868 20.13C117.848 20.19 117.828 20.25 117.808 20.31C117.788 20.37 117.758 20.43 117.718 20.49C117.678 20.55 117.628 20.6 117.568 20.64C117.568 20.64 117.528 20.66 117.448 20.7C117.288 20.84 117.108 20.93 116.908 20.97C116.728 21.01 116.528 21.05 116.308 21.09L116.008 21.06C115.708 20.96 115.408 20.9 115.108 20.88C115.028 20.86 114.938 20.85 114.838 20.85C114.738 20.83 114.638 20.82 114.538 20.82C114.398 20.82 114.258 20.82 114.118 20.82C113.978 20.8 113.828 20.78 113.668 20.76L113.368 20.73C113.188 20.75 113.008 20.76 112.828 20.76C112.648 20.74 112.468 20.74 112.288 20.76C112.208 20.76 112.128 20.76 112.048 20.76C111.968 20.74 111.888 20.73 111.808 20.73C111.648 20.73 111.488 20.73 111.328 20.73C111.188 20.73 111.038 20.75 110.878 20.79C110.798 20.81 110.698 20.83 110.578 20.85C110.478 20.85 110.378 20.85 110.278 20.85C109.978 20.87 109.678 20.9 109.378 20.94C109.078 20.96 108.788 21 108.508 21.06C108.448 21.08 108.358 21.09 108.238 21.09ZM124.174 21.21C124.054 21.21 123.974 21.2 123.934 21.18C123.834 21.14 123.734 21.12 123.634 21.12C123.554 21.14 123.464 21.15 123.364 21.15C123.344 21.15 123.324 21.15 123.304 21.15C123.284 21.17 123.264 21.18 123.244 21.18C123.104 21.2 122.964 21.21 122.824 21.21C122.704 21.21 122.584 21.19 122.464 21.15C122.444 21.13 122.424 21.12 122.404 21.12C122.264 21.14 122.144 21.1 122.044 21C121.944 20.9 121.844 20.81 121.744 20.73C121.644 20.63 121.594 20.52 121.594 20.4L121.504 20.16C121.444 20.02 121.424 19.89 121.444 19.77C121.464 19.73 121.464 19.69 121.444 19.65C121.444 19.61 121.444 19.57 121.444 19.53C121.424 19.49 121.414 19.45 121.414 19.41C121.414 19.35 121.404 19.3 121.384 19.26C121.344 19.08 121.314 18.9 121.294 18.72C121.294 18.52 121.304 18.33 121.324 18.15C121.344 18.03 121.414 17.83 121.534 17.55C121.654 17.25 121.724 17.07 121.744 17.01C121.804 16.91 121.834 16.83 121.834 16.77C121.814 16.55 121.804 16.33 121.804 16.11C121.824 15.87 121.834 15.64 121.834 15.42C121.834 15.28 121.864 15.17 121.924 15.09C122.004 14.95 122.014 14.8 121.954 14.64L121.864 14.31C121.744 14.09 121.754 13.9 121.894 13.74C121.894 13.72 121.894 13.71 121.894 13.71C121.914 13.69 121.924 13.67 121.924 13.65C121.964 13.61 121.974 13.56 121.954 13.5C121.934 13.42 121.924 13.36 121.924 13.32C121.924 13.24 121.934 13.16 121.954 13.08C121.994 12.98 122.004 12.89 121.984 12.81C121.984 12.81 121.964 12.79 121.924 12.75C121.904 12.71 121.894 12.63 121.894 12.51C121.914 12.39 121.924 12.32 121.924 12.3V11.46C121.944 11.36 121.954 11.27 121.954 11.19C121.954 11.09 121.964 10.99 121.984 10.89C122.004 10.77 122.004 10.65 121.984 10.53C121.984 10.39 121.984 10.25 121.984 10.11C121.964 10.01 121.944 9.9 121.924 9.78C121.924 9.66 121.924 9.54 121.924 9.42C121.904 9.38 121.894 9.33 121.894 9.27C121.894 9.21 121.894 9.16 121.894 9.12C121.874 9.02 121.854 8.92 121.834 8.82C121.834 8.72 121.834 8.62 121.834 8.52C121.834 8.48 121.794 8.35 121.714 8.13C121.634 7.89 121.604 7.69 121.624 7.53C121.644 7.49 121.654 7.44 121.654 7.38C121.654 7.32 121.634 7.27 121.594 7.23C121.554 7.21 121.534 7.17 121.534 7.11V7.02C121.594 6.78 121.564 6.54 121.444 6.3C121.364 6.18 121.334 6.06 121.354 5.94C121.354 5.78 121.284 5.66 121.144 5.58C121.044 5.48 120.954 5.36 120.874 5.22C120.794 5.08 120.744 4.94 120.724 4.8C120.704 4.7 120.694 4.6 120.694 4.5C120.694 4.4 120.694 4.31 120.694 4.23C120.694 4.15 120.704 4.1 120.724 4.08C120.804 4 120.844 3.91 120.844 3.81C120.844 3.69 120.854 3.6 120.874 3.54C120.894 3.52 120.914 3.51 120.934 3.51C120.954 3.51 120.974 3.5 120.994 3.48C121.074 3.46 121.114 3.39 121.114 3.27C121.074 3.19 121.054 3.12 121.054 3.06C121.034 2.98 121.064 2.91 121.144 2.85C121.184 2.77 121.234 2.75 121.294 2.79C121.434 2.85 121.594 2.83 121.774 2.73C121.854 2.69 121.904 2.67 121.924 2.67C121.984 2.67 122.014 2.67 122.014 2.67C122.034 2.65 122.094 2.64 122.194 2.64C122.314 2.66 122.424 2.62 122.524 2.52C122.664 2.38 122.834 2.31 123.034 2.31H124.894C125.354 2.33 125.814 2.33 126.274 2.31C126.734 2.29 127.184 2.28 127.624 2.28C127.724 2.28 127.804 2.28 127.864 2.28C127.944 2.26 128.024 2.24 128.104 2.22C128.224 2.16 128.364 2.13 128.524 2.13H129.214C129.374 2.13 129.514 2.13 129.634 2.13C129.774 2.11 129.914 2.09 130.054 2.07C130.134 2.05 130.204 2.04 130.264 2.04C130.344 2.04 130.424 2.04 130.504 2.04C130.584 2.04 130.664 2.04 130.744 2.04C130.824 2.04 130.904 2.03 130.984 2.01C131.144 1.99 131.314 1.98 131.494 1.98C131.674 1.96 131.844 1.95 132.004 1.95C132.084 1.95 132.154 1.95 132.214 1.95C132.294 1.93 132.374 1.91 132.454 1.89C132.614 1.85 132.764 1.83 132.904 1.83C133.064 1.81 133.214 1.79 133.354 1.77C133.514 1.75 133.664 1.73 133.804 1.71C133.964 1.69 134.114 1.67 134.254 1.65C134.434 1.65 134.564 1.67 134.644 1.71C134.764 1.79 134.874 1.86 134.974 1.92C135.094 1.98 135.204 2.06 135.304 2.16C135.384 2.24 135.434 2.31 135.454 2.37C135.474 2.45 135.494 2.53 135.514 2.61C135.534 2.69 135.554 2.78 135.574 2.88V3.09C135.554 3.19 135.534 3.3 135.514 3.42C135.514 3.52 135.504 3.63 135.484 3.75C135.444 3.83 135.394 3.9 135.334 3.96L134.794 4.5C134.594 4.56 134.394 4.6 134.194 4.62C134.014 4.64 133.824 4.64 133.624 4.62H133.414C133.314 4.64 133.214 4.65 133.114 4.65C133.014 4.65 132.914 4.64 132.814 4.62C132.694 4.6 132.574 4.6 132.454 4.62C132.334 4.62 132.214 4.62 132.094 4.62C132.014 4.62 131.934 4.63 131.854 4.65C131.794 4.65 131.724 4.64 131.644 4.62C131.544 4.6 131.444 4.6 131.344 4.62C131.264 4.62 131.174 4.63 131.074 4.65C130.994 4.65 130.904 4.66 130.804 4.68C130.724 4.68 130.634 4.68 130.534 4.68C130.274 4.72 129.994 4.74 129.694 4.74C129.414 4.74 129.134 4.76 128.854 4.8C128.674 4.78 128.504 4.79 128.344 4.83C128.184 4.85 128.014 4.87 127.834 4.89C127.674 4.91 127.504 4.92 127.324 4.92C127.144 4.92 126.974 4.94 126.814 4.98C126.614 4.98 126.414 5.01 126.214 5.07C126.034 5.11 125.844 5.14 125.644 5.16L125.434 5.19C125.294 5.19 125.164 5.21 125.044 5.25C124.924 5.27 124.794 5.3 124.654 5.34C124.574 5.36 124.494 5.38 124.414 5.4C124.334 5.4 124.244 5.41 124.144 5.43C124.084 5.43 124.014 5.45 123.934 5.49C123.874 5.51 123.844 5.57 123.844 5.67L123.934 5.94C123.954 5.98 123.944 6.08 123.904 6.24C123.884 6.4 123.864 6.52 123.844 6.6C123.844 6.66 123.854 6.72 123.874 6.78C123.894 6.84 123.914 6.9 123.934 6.96C123.994 7.12 124.024 7.3 124.024 7.5C124.024 7.68 124.044 7.85 124.084 8.01C124.104 8.09 124.114 8.18 124.114 8.28C124.114 8.36 124.124 8.45 124.144 8.55C124.144 8.59 124.144 8.64 124.144 8.7C124.164 8.74 124.174 8.79 124.174 8.85C124.174 8.91 124.164 8.95 124.144 8.97C124.084 9.05 124.054 9.14 124.054 9.24C124.054 9.34 124.054 9.44 124.054 9.54C124.154 9.74 124.204 9.94 124.204 10.14C124.204 10.34 124.204 10.54 124.204 10.74C124.204 10.8 124.254 10.82 124.354 10.8H124.384C124.424 10.72 124.464 10.66 124.504 10.62C124.564 10.62 124.634 10.6 124.714 10.56C124.774 10.52 124.854 10.5 124.954 10.5C125.114 10.52 125.264 10.52 125.404 10.5C125.544 10.46 125.684 10.42 125.824 10.38C126.764 10.14 127.644 9.83 128.464 9.45C128.684 9.35 128.914 9.27 129.154 9.21C129.394 9.13 129.634 9.08 129.874 9.06H129.964C130.144 9.04 130.324 9.02 130.504 9C130.684 8.98 130.864 8.97 131.044 8.97C131.284 8.95 131.514 8.92 131.734 8.88C131.974 8.84 132.214 8.81 132.454 8.79C132.594 8.75 132.724 8.72 132.844 8.7C132.964 8.66 133.094 8.61 133.234 8.55C133.494 8.45 133.734 8.4 133.954 8.4C134.114 8.42 134.264 8.46 134.404 8.52C134.544 8.56 134.684 8.62 134.824 8.7C135.124 8.9 135.274 9.2 135.274 9.6C135.274 9.76 135.254 9.92 135.214 10.08C135.194 10.24 135.184 10.4 135.184 10.56C135.184 10.6 135.164 10.64 135.124 10.68L135.034 10.83C135.014 10.91 134.994 10.99 134.974 11.07C134.954 11.15 134.904 11.21 134.824 11.25C134.704 11.35 134.574 11.46 134.434 11.58C134.314 11.68 134.174 11.75 134.014 11.79C133.934 11.81 133.854 11.83 133.774 11.85C133.714 11.87 133.644 11.88 133.564 11.88C133.244 11.88 132.914 11.9 132.574 11.94C132.254 11.98 131.924 12.02 131.584 12.06C131.324 12.08 131.064 12.11 130.804 12.15C130.564 12.19 130.314 12.21 130.054 12.21C129.814 12.21 129.544 12.26 129.244 12.36C129.044 12.4 128.834 12.44 128.614 12.48C128.394 12.52 128.174 12.55 127.954 12.57C127.794 12.59 127.624 12.62 127.444 12.66C127.284 12.68 127.124 12.7 126.964 12.72L126.454 12.81C126.414 12.83 126.354 12.84 126.274 12.84C126.134 12.88 125.994 12.91 125.854 12.93C125.714 12.95 125.574 12.98 125.434 13.02C125.294 13.04 125.154 13.07 125.014 13.11C124.894 13.15 124.764 13.19 124.624 13.23C124.524 13.25 124.444 13.29 124.384 13.35C124.324 13.39 124.274 13.45 124.234 13.53C124.214 13.59 124.214 13.65 124.234 13.71C124.254 13.79 124.244 13.87 124.204 13.95C124.224 14.15 124.234 14.35 124.234 14.55C124.254 14.75 124.254 14.95 124.234 15.15C124.274 15.31 124.284 15.47 124.264 15.63C124.264 15.79 124.254 15.95 124.234 16.11C124.194 16.35 124.204 16.55 124.264 16.71C124.324 16.97 124.304 17.24 124.204 17.52C124.164 17.64 124.164 17.72 124.204 17.76C124.244 17.82 124.244 17.89 124.204 17.97V18.15C124.184 18.31 124.254 18.39 124.414 18.39H124.474C124.614 18.39 124.754 18.44 124.894 18.54C124.994 18.64 125.114 18.67 125.254 18.63L126.094 18.54C126.214 18.52 126.334 18.51 126.454 18.51C126.574 18.49 126.694 18.48 126.814 18.48C126.854 18.46 126.914 18.47 126.994 18.51C127.094 18.57 127.184 18.58 127.264 18.54C127.304 18.5 127.354 18.47 127.414 18.45C127.494 18.43 127.554 18.4 127.594 18.36C127.714 18.24 127.864 18.2 128.044 18.24C128.204 18.28 128.334 18.27 128.434 18.21C128.614 18.15 128.784 18.13 128.944 18.15C129.044 18.17 129.144 18.16 129.244 18.12C129.344 18.08 129.444 18.06 129.544 18.06C129.584 18.06 129.614 18.07 129.634 18.09C129.654 18.09 129.674 18.08 129.694 18.06C129.734 18.06 129.774 18.05 129.814 18.03C129.854 18.01 129.884 18 129.904 18C130.044 17.94 130.174 17.92 130.294 17.94C130.394 17.94 130.444 17.94 130.444 17.94C130.524 17.92 130.594 17.92 130.654 17.94C130.734 17.96 130.804 17.99 130.864 18.03C130.964 18.05 131.044 18.08 131.104 18.12C131.184 18.16 131.264 18.19 131.344 18.21C131.384 18.21 131.414 18.22 131.434 18.24C131.534 18.32 131.654 18.39 131.794 18.45C131.954 18.51 132.044 18.58 132.064 18.66C132.104 18.78 132.124 18.9 132.124 19.02C132.124 19.12 132.134 19.23 132.154 19.35C132.154 19.41 132.144 19.47 132.124 19.53C132.124 19.59 132.114 19.65 132.094 19.71C132.054 19.79 132.004 19.88 131.944 19.98C131.904 20.08 131.844 20.17 131.764 20.25C131.724 20.29 131.684 20.33 131.644 20.37C131.624 20.41 131.594 20.45 131.554 20.49C131.474 20.57 131.384 20.64 131.284 20.7C131.184 20.76 131.074 20.79 130.954 20.79C130.874 20.79 130.814 20.8 130.774 20.82C130.694 20.86 130.614 20.88 130.534 20.88C130.454 20.88 130.364 20.88 130.264 20.88C130.124 20.9 129.984 20.92 129.844 20.94C129.724 20.94 129.594 20.93 129.454 20.91C129.374 20.89 129.304 20.89 129.244 20.91C129.044 20.97 128.844 20.98 128.644 20.94C128.444 20.94 128.244 20.95 128.044 20.97C127.864 20.97 127.684 20.97 127.504 20.97H127.114C127.054 20.97 127.004 20.98 126.964 21C126.884 21.04 126.784 21.06 126.664 21.06C126.564 21.06 126.464 21.05 126.364 21.03H126.064C126.044 21.03 126.014 21.03 125.974 21.03C125.934 21.05 125.894 21.05 125.854 21.03C125.794 21.01 125.734 21 125.674 21C125.634 21.02 125.584 21.04 125.524 21.06C125.484 21.06 125.444 21.06 125.404 21.06C125.384 21.08 125.354 21.09 125.314 21.09C125.114 21.07 124.924 21.07 124.744 21.09C124.564 21.13 124.374 21.17 124.174 21.21ZM149.43 22.53C149.35 22.55 149.29 22.53 149.25 22.47C149.17 22.41 149.09 22.35 149.01 22.29C148.95 22.23 148.87 22.17 148.77 22.11C148.61 22.03 148.48 21.89 148.38 21.69C148.2 21.41 148.11 21.11 148.11 20.79C148.11 20.69 148.1 20.59 148.08 20.49C148.08 20.39 148.07 20.29 148.05 20.19C148.05 20.09 148.04 20 148.02 19.92C148.02 19.82 148.02 19.73 148.02 19.65C148.02 19.55 148.02 19.45 148.02 19.35C148.02 19.23 148.01 19.12 147.99 19.02C147.99 19 147.98 18.99 147.96 18.99C147.96 18.97 147.96 18.96 147.96 18.96C147.92 18.96 147.89 18.97 147.87 18.99L147.51 19.44C147.43 19.56 147.33 19.67 147.21 19.77C147.11 19.85 147.01 19.94 146.91 20.04C146.59 20.28 146.27 20.48 145.95 20.64C145.81 20.7 145.68 20.75 145.56 20.79C144.88 21.03 144.21 21.14 143.55 21.12C143.33 21.1 143.1 21.08 142.86 21.06C142.64 21.06 142.41 21.03 142.17 20.97C141.99 20.91 141.81 20.85 141.63 20.79C141.47 20.71 141.31 20.61 141.15 20.49C141.01 20.37 140.87 20.25 140.73 20.13C140.59 19.99 140.46 19.84 140.34 19.68C140.14 19.36 140.01 19.16 139.95 19.08C139.89 19 139.8 18.8 139.68 18.48L139.53 18.21C139.47 18.05 139.4 17.9 139.32 17.76C139.26 17.6 139.21 17.44 139.17 17.28L139.02 16.86C138.98 16.72 138.94 16.59 138.9 16.47C138.86 16.33 138.82 16.19 138.78 16.05C138.7 15.79 138.63 15.53 138.57 15.27C138.51 14.99 138.45 14.72 138.39 14.46L138.3 13.92C138.3 13.88 138.29 13.84 138.27 13.8C138.27 13.74 138.27 13.68 138.27 13.62L138.09 12.75C138.07 12.65 138.06 12.56 138.06 12.48C138.06 12.38 138.06 12.29 138.06 12.21C138.04 12.05 138.03 11.89 138.03 11.73C138.05 11.57 138.06 11.41 138.06 11.25C138.08 11.03 138.11 10.82 138.15 10.62C138.19 10.4 138.23 10.19 138.27 9.99C138.35 9.71 138.43 9.43 138.51 9.15C138.61 8.85 138.72 8.57 138.84 8.31C138.94 8.09 139.04 7.88 139.14 7.68C139.24 7.46 139.36 7.25 139.5 7.05C139.68 6.75 139.87 6.46 140.07 6.18C140.29 5.9 140.51 5.63 140.73 5.37C140.89 5.19 141.05 5.02 141.21 4.86C141.37 4.68 141.53 4.5 141.69 4.32C141.97 4.04 142.27 3.8 142.59 3.6C142.75 3.5 142.91 3.44 143.07 3.42C143.13 3.4 143.18 3.39 143.22 3.39C143.28 3.39 143.33 3.38 143.37 3.36C143.59 3.32 143.79 3.33 143.97 3.39C144.03 3.41 144.09 3.43 144.15 3.45C144.23 3.47 144.3 3.49 144.36 3.51C144.62 3.61 144.85 3.67 145.05 3.69C145.17 3.69 145.31 3.73 145.47 3.81C145.57 3.83 145.67 3.86 145.77 3.9C145.87 3.92 145.97 3.94 146.07 3.96C146.19 3.96 146.29 3.99 146.37 4.05C146.39 4.05 146.41 4.06 146.43 4.08C146.47 4.08 146.5 4.08 146.52 4.08C146.68 4.1 146.82 4.14 146.94 4.2C147.06 4.24 147.18 4.3 147.3 4.38C147.58 4.56 147.87 4.76 148.17 4.98C148.35 5.12 148.44 5.31 148.44 5.55V5.7C148.5 5.94 148.44 6.18 148.26 6.42C148.16 6.6 148.08 6.72 148.02 6.78C147.98 6.82 147.86 6.89 147.66 6.99C147.6 7.01 147.53 7.04 147.45 7.08C147.39 7.1 147.31 7.11 147.21 7.11C147.17 7.11 147.12 7.12 147.06 7.14C147.02 7.14 146.98 7.14 146.94 7.14C146.88 7.16 146.82 7.16 146.76 7.14C146.7 7.12 146.64 7.11 146.58 7.11C146.56 7.13 146.53 7.12 146.49 7.08L146.04 6.72C145.72 6.44 145.35 6.28 144.93 6.24C144.85 6.22 144.77 6.21 144.69 6.21C144.61 6.21 144.52 6.2 144.42 6.18C144.16 6.18 143.95 6.25 143.79 6.39L143.58 6.6C143.4 6.8 143.21 7 143.01 7.2C142.83 7.4 142.65 7.6 142.47 7.8C142.33 7.94 142.21 8.1 142.11 8.28C142.01 8.46 141.91 8.64 141.81 8.82C141.49 9.44 141.25 10.1 141.09 10.8C141.07 10.92 141.05 11.04 141.03 11.16C141.01 11.26 140.99 11.36 140.97 11.46C140.97 11.56 140.97 11.66 140.97 11.76C140.97 11.86 140.98 11.96 141 12.06C141.02 12.14 141.03 12.22 141.03 12.3C141.03 12.36 141.04 12.43 141.06 12.51L141.15 13.23C141.17 13.35 141.19 13.48 141.21 13.62C141.25 13.74 141.28 13.86 141.3 13.98C141.5 14.76 141.74 15.55 142.02 16.35C142.12 16.65 142.24 16.91 142.38 17.13L142.56 17.4C142.62 17.48 142.68 17.56 142.74 17.64C142.8 17.7 142.86 17.76 142.92 17.82C143.04 17.9 143.14 17.95 143.22 17.97C143.52 18.03 143.83 18.06 144.15 18.06C144.55 18.02 144.89 17.89 145.17 17.67C145.31 17.57 145.43 17.46 145.53 17.34C145.65 17.22 145.76 17.09 145.86 16.95C146.1 16.67 146.31 16.37 146.49 16.05C146.55 15.93 146.54 15.81 146.46 15.69C146.34 15.49 146.19 15.33 146.01 15.21C145.79 15.05 145.56 14.92 145.32 14.82C145.1 14.7 144.85 14.63 144.57 14.61L144.42 14.55C144.26 14.49 144.09 14.49 143.91 14.55C143.77 14.61 143.62 14.64 143.46 14.64C143.32 14.62 143.17 14.6 143.01 14.58C142.65 14.48 142.34 14.32 142.08 14.1C142 14 141.93 13.9 141.87 13.8C141.83 13.7 141.78 13.61 141.72 13.53C141.72 13.49 141.71 13.45 141.69 13.41C141.69 13.37 141.7 13.34 141.72 13.32C141.72 13.22 141.72 13.12 141.72 13.02C141.74 12.92 141.76 12.82 141.78 12.72C141.78 12.7 141.8 12.63 141.84 12.51C141.88 12.41 141.93 12.32 141.99 12.24C142.07 12.14 142.15 12.05 142.23 11.97C142.55 11.67 142.9 11.48 143.28 11.4C143.5 11.34 143.72 11.3 143.94 11.28C144.16 11.24 144.37 11.21 144.57 11.19H147.09C147.25 11.19 147.42 11.19 147.6 11.19C147.78 11.19 147.96 11.18 148.14 11.16C148.3 11.14 148.45 11.13 148.59 11.13C148.75 11.13 148.91 11.13 149.07 11.13C149.25 11.13 149.41 11.16 149.55 11.22C149.77 11.28 149.94 11.41 150.06 11.61C150.12 11.69 150.18 11.78 150.24 11.88C150.3 11.98 150.34 12.08 150.36 12.18C150.38 12.2 150.39 12.23 150.39 12.27C150.39 12.29 150.4 12.32 150.42 12.36L150.63 13.47C150.67 13.63 150.7 13.8 150.72 13.98C150.74 14.16 150.76 14.34 150.78 14.52C150.78 14.62 150.78 14.73 150.78 14.85C150.8 14.95 150.81 15.05 150.81 15.15C150.81 15.23 150.81 15.32 150.81 15.42C150.83 15.52 150.84 15.62 150.84 15.72V17.1C150.84 17.24 150.84 17.4 150.84 17.58C150.86 17.74 150.88 17.9 150.9 18.06C150.92 18.14 150.93 18.22 150.93 18.3C150.93 18.38 150.93 18.47 150.93 18.57C150.91 18.77 150.92 18.98 150.96 19.2C151 19.4 151.03 19.61 151.05 19.83C151.07 19.93 151.09 20.04 151.11 20.16C151.15 20.26 151.18 20.37 151.2 20.49C151.22 20.57 151.23 20.66 151.23 20.76C151.25 20.84 151.26 20.93 151.26 21.03C151.26 21.11 151.25 21.19 151.23 21.27C151.23 21.37 151.2 21.46 151.14 21.54C151.1 21.58 151.06 21.64 151.02 21.72C150.94 21.94 150.77 22.12 150.51 22.26C150.31 22.34 150.1 22.4 149.88 22.44C149.7 22.44 149.55 22.47 149.43 22.53ZM156.758 21.6C156.378 21.64 156.068 21.52 155.828 21.24C155.708 21.12 155.598 20.99 155.498 20.85C155.398 20.71 155.318 20.56 155.258 20.4C155.158 20.12 155.068 19.84 154.988 19.56C154.908 19.26 154.838 18.97 154.778 18.69C154.718 18.47 154.688 18.26 154.688 18.06C154.668 17.84 154.638 17.63 154.598 17.43C154.578 17.21 154.568 16.99 154.568 16.77C154.568 16.65 154.568 16.53 154.568 16.41C154.568 16.27 154.558 16.14 154.538 16.02C154.518 15.94 154.508 15.87 154.508 15.81C154.508 15.75 154.508 15.68 154.508 15.6C154.508 15.32 154.508 15.04 154.508 14.76C154.508 14.46 154.498 14.17 154.478 13.89C154.478 13.73 154.468 13.59 154.448 13.47C154.428 13.33 154.388 13.19 154.328 13.05C154.248 12.83 154.238 12.59 154.298 12.33C154.298 12.27 154.308 12.23 154.328 12.21C154.368 12.07 154.388 11.93 154.388 11.79C154.408 11.65 154.408 11.51 154.388 11.37C154.368 11.27 154.358 11.17 154.358 11.07C154.358 10.97 154.358 10.88 154.358 10.8C154.338 10.58 154.328 10.36 154.328 10.14C154.348 9.9 154.368 9.67 154.388 9.45C154.408 9.39 154.418 9.33 154.418 9.27C154.418 9.21 154.418 9.15 154.418 9.09C154.398 8.87 154.398 8.66 154.418 8.46C154.458 8.26 154.488 8.06 154.508 7.86C154.548 7.62 154.588 7.39 154.628 7.17C154.668 6.93 154.718 6.69 154.778 6.45C154.818 6.35 154.838 6.24 154.838 6.12C154.838 6 154.838 5.88 154.838 5.76C154.838 5.66 154.828 5.56 154.808 5.46C154.808 5.36 154.808 5.27 154.808 5.19C154.808 5.13 154.808 5.07 154.808 5.01C154.808 4.95 154.818 4.89 154.838 4.83C154.858 4.77 154.868 4.71 154.868 4.65C154.868 4.59 154.878 4.55 154.898 4.53C154.958 4.45 155.008 4.38 155.048 4.32C155.088 4.24 155.148 4.17 155.228 4.11C155.328 4.05 155.418 3.99 155.498 3.93C155.598 3.87 155.688 3.82 155.768 3.78C155.868 3.74 155.948 3.69 156.008 3.63C156.088 3.53 156.168 3.44 156.248 3.36C156.348 3.26 156.428 3.15 156.488 3.03C156.588 2.93 156.688 2.82 156.788 2.7C156.908 2.56 157.038 2.45 157.178 2.37C157.218 2.35 157.278 2.3 157.358 2.22C157.598 2 157.878 1.86 158.198 1.8C158.258 1.78 158.308 1.77 158.348 1.77C158.408 1.75 158.468 1.74 158.528 1.74L158.738 1.65C158.898 1.59 159.038 1.62 159.158 1.74C159.198 1.8 159.248 1.86 159.308 1.92C159.388 1.96 159.458 2 159.518 2.04C159.678 2.18 159.828 2.33 159.968 2.49C160.128 2.65 160.268 2.83 160.388 3.03C160.588 3.35 160.758 3.67 160.898 3.99C161.058 4.31 161.208 4.64 161.348 4.98L161.888 6.27C161.908 6.39 161.958 6.5 162.038 6.6C162.198 6.9 162.318 7.21 162.398 7.53C162.478 7.83 162.558 8.14 162.638 8.46C162.658 8.5 162.668 8.54 162.668 8.58C162.688 8.62 162.698 8.66 162.698 8.7C162.738 8.86 162.768 9.03 162.788 9.21C162.828 9.37 162.838 9.53 162.818 9.69C162.838 9.87 162.828 10.05 162.788 10.23C162.768 10.39 162.738 10.55 162.698 10.71C162.638 10.91 162.568 11.1 162.488 11.28C162.408 11.44 162.318 11.61 162.218 11.79C162.178 11.91 162.108 12.02 162.008 12.12C161.908 12.22 161.808 12.31 161.708 12.39C161.548 12.47 161.388 12.59 161.228 12.75C161.188 12.79 161.138 12.82 161.078 12.84C161.038 12.86 160.998 12.89 160.958 12.93C160.818 12.99 160.668 13.06 160.508 13.14C160.348 13.2 160.188 13.26 160.028 13.32C160.008 13.32 159.998 13.34 159.998 13.38C159.998 13.4 160.008 13.42 160.028 13.44L160.838 14.01C160.938 14.07 161.028 14.13 161.108 14.19C161.188 14.23 161.268 14.28 161.348 14.34L161.528 14.43C161.768 14.57 162.008 14.72 162.248 14.88C162.488 15.04 162.718 15.2 162.938 15.36C163.358 15.62 163.778 15.89 164.198 16.17C164.618 16.43 165.018 16.72 165.398 17.04C165.738 17.3 166.038 17.6 166.298 17.94C166.358 18 166.418 18.07 166.478 18.15C166.538 18.21 166.608 18.26 166.688 18.3L166.778 18.39C167.098 18.67 167.278 19.05 167.318 19.53C167.318 19.59 167.308 19.65 167.288 19.71C167.288 19.77 167.288 19.83 167.288 19.89C167.288 20.01 167.248 20.11 167.168 20.19C167.088 20.23 167.048 20.28 167.048 20.34C166.988 20.48 166.898 20.58 166.778 20.64C166.678 20.68 166.578 20.74 166.478 20.82C166.438 20.84 166.368 20.85 166.268 20.85C166.148 20.83 166.018 20.81 165.878 20.79C165.758 20.77 165.638 20.76 165.518 20.76C165.358 20.76 165.188 20.69 165.008 20.55C164.888 20.45 164.778 20.36 164.678 20.28C164.578 20.18 164.478 20.06 164.378 19.92C164.118 19.56 163.778 19.23 163.358 18.93C163.158 18.77 162.968 18.62 162.788 18.48C162.608 18.34 162.408 18.21 162.188 18.09C162.048 18.01 161.908 17.93 161.768 17.85C161.648 17.75 161.508 17.66 161.348 17.58C160.848 17.24 160.338 16.91 159.818 16.59C159.298 16.25 158.778 15.91 158.258 15.57C158.178 15.51 158.088 15.45 157.988 15.39C157.888 15.33 157.788 15.27 157.688 15.21C157.648 15.17 157.588 15.13 157.508 15.09C157.428 15.09 157.388 15.12 157.388 15.18C157.388 15.2 157.378 15.22 157.358 15.24C157.358 15.24 157.358 15.25 157.358 15.27C157.358 15.33 157.358 15.39 157.358 15.45C157.358 15.51 157.368 15.57 157.388 15.63C157.408 15.79 157.418 15.95 157.418 16.11C157.418 16.25 157.418 16.4 157.418 16.56C157.418 16.68 157.418 16.8 157.418 16.92C157.438 17.02 157.458 17.13 157.478 17.25C157.478 17.31 157.478 17.38 157.478 17.46C157.498 17.52 157.508 17.58 157.508 17.64C157.488 17.82 157.498 18 157.538 18.18C157.578 18.36 157.608 18.54 157.628 18.72L157.808 19.5C157.828 19.58 157.848 19.67 157.868 19.77C157.888 19.85 157.908 19.94 157.928 20.04C157.948 20.12 157.948 20.2 157.928 20.28C157.928 20.34 157.918 20.41 157.898 20.49C157.898 20.51 157.878 20.54 157.838 20.58C157.738 20.6 157.668 20.67 157.628 20.79C157.568 20.93 157.478 21.05 157.358 21.15C157.258 21.27 157.148 21.38 157.028 21.48C157.008 21.5 156.968 21.52 156.908 21.54C156.848 21.56 156.798 21.58 156.758 21.6ZM157.928 11.1H157.988C158.208 11.06 158.428 11.02 158.648 10.98C158.888 10.92 159.118 10.85 159.338 10.77C159.558 10.71 159.748 10.6 159.908 10.44C160.048 10.3 160.118 10.14 160.118 9.96C160.138 9.82 160.138 9.69 160.118 9.57C160.118 9.43 160.098 9.29 160.058 9.15C159.978 8.79 159.888 8.44 159.788 8.1C159.688 7.74 159.568 7.4 159.428 7.08L159.158 6.36C159.098 6.16 159.028 5.97 158.948 5.79C158.868 5.59 158.778 5.4 158.678 5.22C158.658 5.18 158.638 5.14 158.618 5.1C158.598 5.04 158.578 4.99 158.558 4.95L158.438 4.83C158.378 4.75 158.308 4.75 158.228 4.83C158.208 4.83 158.178 4.85 158.138 4.89C157.998 5.07 157.868 5.26 157.748 5.46C157.648 5.66 157.588 5.88 157.568 6.12C157.548 6.2 157.528 6.28 157.508 6.36C157.508 6.44 157.508 6.53 157.508 6.63V7.92C157.488 8.2 157.478 8.49 157.478 8.79C157.498 9.09 157.488 9.38 157.448 9.66C157.428 9.72 157.418 9.78 157.418 9.84C157.438 9.9 157.448 9.96 157.448 10.02C157.468 10.14 157.478 10.26 157.478 10.38C157.478 10.48 157.478 10.59 157.478 10.71C157.478 10.91 157.498 11.03 157.538 11.07C157.598 11.11 157.728 11.12 157.928 11.1ZM172.079 21.3C171.959 21.3 171.879 21.29 171.839 21.27C171.759 21.23 171.689 21.2 171.629 21.18C171.569 21.16 171.509 21.14 171.449 21.12C171.389 21.08 171.329 21.04 171.269 21C171.229 20.94 171.189 20.88 171.149 20.82C171.109 20.78 171.069 20.76 171.029 20.76C170.909 20.76 170.849 20.7 170.849 20.58C170.829 20.46 170.809 20.34 170.789 20.22C170.769 20.1 170.749 19.98 170.729 19.86C170.709 19.68 170.689 19.5 170.669 19.32C170.669 19.14 170.649 18.97 170.609 18.81V18.54C170.609 18.46 170.599 18.39 170.579 18.33C170.579 18.27 170.579 18.2 170.579 18.12C170.539 18.02 170.539 17.94 170.579 17.88C170.619 17.52 170.619 17.16 170.579 16.8C170.559 16.7 170.549 16.6 170.549 16.5C170.549 16.4 170.539 16.3 170.519 16.2C170.519 16 170.519 15.8 170.519 15.6C170.519 15.38 170.499 15.17 170.459 14.97V14.49C170.459 14.33 170.449 14.18 170.429 14.04C170.429 13.9 170.419 13.76 170.399 13.62C170.379 13.44 170.359 13.26 170.339 13.08C170.339 12.9 170.329 12.72 170.309 12.54C170.289 12.5 170.279 12.43 170.279 12.33C170.259 12.23 170.239 12.13 170.219 12.03C170.219 11.91 170.219 11.8 170.219 11.7L170.129 10.2C170.109 10.04 170.089 9.89 170.069 9.75C170.069 9.59 170.069 9.44 170.069 9.3C170.049 9.06 170.029 8.82 170.009 8.58C169.989 8.34 169.969 8.11 169.949 7.89C169.949 7.85 169.939 7.81 169.919 7.77C169.919 7.73 169.919 7.7 169.919 7.68C169.919 7.44 169.909 7.2 169.889 6.96C169.869 6.72 169.849 6.47 169.829 6.21L169.739 5.37C169.679 5.05 169.669 4.7 169.709 4.32C169.709 4.14 169.779 3.99 169.919 3.87C169.959 3.83 169.989 3.81 170.009 3.81C170.029 3.79 170.049 3.77 170.069 3.75C170.169 3.73 170.219 3.66 170.219 3.54C170.219 3.5 170.259 3.48 170.339 3.48H170.489C170.509 3.48 170.519 3.48 170.519 3.48C170.539 3.46 170.559 3.45 170.579 3.45C170.619 3.43 170.649 3.41 170.669 3.39C170.709 3.35 170.739 3.33 170.759 3.33C170.799 3.33 170.839 3.34 170.879 3.36C170.919 3.36 170.959 3.37 170.999 3.39C171.039 3.39 171.069 3.38 171.089 3.36C171.189 3.34 171.289 3.35 171.389 3.39C171.509 3.41 171.609 3.44 171.689 3.48C171.809 3.5 171.899 3.58 171.959 3.72C172.019 3.9 172.069 4.08 172.109 4.26C172.169 4.42 172.209 4.59 172.229 4.77V5.01C172.269 5.15 172.289 5.3 172.289 5.46C172.289 5.6 172.289 5.75 172.289 5.91C172.289 6.05 172.289 6.19 172.289 6.33C172.309 6.45 172.329 6.57 172.349 6.69C172.349 6.75 172.349 6.81 172.349 6.87C172.349 6.93 172.359 6.99 172.379 7.05C172.379 7.17 172.379 7.29 172.379 7.41C172.399 7.53 172.419 7.66 172.439 7.8C172.459 8.02 172.479 8.25 172.499 8.49C172.519 8.73 172.529 8.97 172.529 9.21C172.529 9.31 172.529 9.42 172.529 9.54C172.529 9.64 172.539 9.74 172.559 9.84C172.579 9.9 172.589 9.96 172.589 10.02C172.589 10.08 172.589 10.14 172.589 10.2V10.8C172.589 10.92 172.599 11.02 172.619 11.1C172.659 11.24 172.669 11.38 172.649 11.52C172.649 11.64 172.659 11.77 172.679 11.91L172.769 13.29C172.789 13.49 172.799 13.7 172.799 13.92C172.819 14.12 172.829 14.33 172.829 14.55C172.829 14.63 172.829 14.72 172.829 14.82C172.829 14.9 172.839 14.98 172.859 15.06C172.879 15.12 172.889 15.18 172.889 15.24C172.889 15.3 172.889 15.36 172.889 15.42C172.909 15.44 172.909 15.48 172.889 15.54C172.889 15.58 172.899 15.62 172.919 15.66C172.959 15.8 172.979 15.94 172.979 16.08C172.979 16.22 172.979 16.37 172.979 16.53C172.979 16.61 172.979 16.7 172.979 16.8C172.999 16.88 173.009 16.97 173.009 17.07C173.029 17.17 173.039 17.28 173.039 17.4C173.039 17.52 173.039 17.63 173.039 17.73C173.059 17.83 173.069 17.94 173.069 18.06C173.069 18.16 173.079 18.26 173.099 18.36C173.119 18.4 173.129 18.44 173.129 18.48C173.129 18.7 173.149 18.92 173.189 19.14C173.229 19.36 173.269 19.58 173.309 19.8C173.329 19.86 173.339 19.93 173.339 20.01C173.339 20.07 173.339 20.13 173.339 20.19C173.339 20.25 173.319 20.3 173.279 20.34C173.199 20.4 173.139 20.52 173.099 20.7C173.099 20.76 173.069 20.81 173.009 20.85C172.869 20.91 172.749 20.99 172.649 21.09C172.489 21.23 172.299 21.3 172.079 21.3ZM188.333 23.19C188.153 23.19 187.993 23.12 187.853 22.98C187.813 22.92 187.773 22.86 187.733 22.8C187.693 22.74 187.653 22.68 187.613 22.62C187.433 22.2 187.343 21.76 187.343 21.3L187.253 20.58C187.193 20.3 187.143 20.02 187.103 19.74C187.063 19.46 186.993 19.19 186.893 18.93L186.713 18.42C186.713 18.38 186.703 18.34 186.683 18.3C186.683 18.26 186.673 18.22 186.653 18.18L186.203 16.59C186.183 16.55 186.163 16.5 186.143 16.44C186.143 16.38 186.123 16.33 186.083 16.29C186.023 16.17 185.973 16.05 185.933 15.93C185.913 15.79 185.883 15.65 185.843 15.51C185.823 15.41 185.803 15.32 185.783 15.24C185.763 15.14 185.733 15.04 185.693 14.94C185.653 14.82 185.613 14.75 185.573 14.73C185.533 14.69 185.443 14.69 185.303 14.73C185.203 14.75 185.093 14.77 184.973 14.79C184.873 14.79 184.773 14.81 184.673 14.85C184.593 14.87 184.493 14.89 184.373 14.91C184.273 14.91 184.173 14.92 184.073 14.94L183.653 15.03C183.553 15.05 183.443 15.08 183.323 15.12C183.223 15.14 183.123 15.15 183.023 15.15L182.483 15.24C182.323 15.28 182.153 15.32 181.973 15.36C181.793 15.4 181.623 15.44 181.463 15.48C180.983 15.6 180.503 15.69 180.023 15.75C179.863 15.79 179.773 15.86 179.753 15.96C179.733 15.96 179.723 15.97 179.723 15.99C179.603 16.31 179.463 16.63 179.303 16.95C179.163 17.25 179.013 17.56 178.853 17.88C178.813 17.96 178.773 18.04 178.733 18.12C178.713 18.18 178.683 18.25 178.643 18.33C178.623 18.37 178.603 18.42 178.583 18.48C178.563 18.52 178.543 18.56 178.523 18.6C178.403 18.74 178.343 18.91 178.343 19.11C178.323 19.23 178.283 19.35 178.223 19.47C178.163 19.57 178.103 19.67 178.043 19.77C178.023 19.83 177.983 19.86 177.923 19.86C177.843 19.88 177.763 19.91 177.683 19.95C177.603 19.99 177.513 20.03 177.413 20.07C177.353 20.09 177.293 20.09 177.233 20.07C177.193 20.05 177.143 20.03 177.083 20.01C177.043 19.97 177.003 19.95 176.963 19.95C176.743 19.93 176.583 19.8 176.483 19.56C176.323 19.24 176.213 18.92 176.153 18.6C176.133 18.52 176.133 18.45 176.153 18.39C176.193 18.33 176.223 18.27 176.243 18.21C176.363 18.13 176.433 18.04 176.453 17.94V17.91C176.453 17.65 176.503 17.41 176.603 17.19C176.723 16.95 176.823 16.72 176.903 16.5C176.943 16.38 176.993 16.26 177.053 16.14C177.113 16.02 177.173 15.9 177.233 15.78C177.313 15.64 177.373 15.51 177.413 15.39C177.473 15.25 177.523 15.11 177.563 14.97C177.623 14.81 177.623 14.66 177.563 14.52C177.523 14.4 177.503 14.29 177.503 14.19C177.503 14.07 177.513 13.95 177.533 13.83C177.533 13.61 177.613 13.42 177.773 13.26C177.853 13.16 177.933 13.08 178.013 13.02C178.113 12.94 178.203 12.86 178.283 12.78C178.463 12.6 178.603 12.36 178.703 12.06C178.783 11.8 178.843 11.54 178.883 11.28C178.943 11 179.003 10.73 179.063 10.47C179.103 10.21 179.143 9.96 179.183 9.72C179.243 9.46 179.303 9.21 179.363 8.97C179.383 8.87 179.403 8.78 179.423 8.7C179.463 8.6 179.493 8.51 179.513 8.43C179.573 8.27 179.633 8.12 179.693 7.98C179.753 7.82 179.793 7.66 179.813 7.5C179.853 7.42 179.853 7.35 179.813 7.29C179.793 7.19 179.793 7.1 179.813 7.02C179.853 6.94 179.883 6.86 179.903 6.78C179.963 6.64 180.003 6.5 180.023 6.36C180.063 6.22 180.113 6.08 180.173 5.94C180.273 5.68 180.353 5.47 180.413 5.31C180.493 5.13 180.563 4.93 180.623 4.71C180.663 4.59 180.703 4.48 180.743 4.38C180.803 4.26 180.843 4.14 180.863 4.02C180.923 3.84 180.973 3.66 181.013 3.48C181.053 3.28 181.073 3.09 181.073 2.91C181.113 2.75 181.153 2.64 181.193 2.58C181.293 2.38 181.413 2.21 181.553 2.07C181.713 1.93 181.863 1.79 182.003 1.65C182.103 1.59 182.203 1.55 182.303 1.53C182.403 1.49 182.503 1.5 182.603 1.56C182.683 1.6 182.733 1.62 182.753 1.62C182.933 1.6 183.083 1.64 183.203 1.74C183.323 1.84 183.423 1.96 183.503 2.1C183.543 2.14 183.573 2.19 183.593 2.25C183.613 2.31 183.633 2.36 183.653 2.4C183.753 2.56 183.803 2.72 183.803 2.88C183.803 2.96 183.813 3.05 183.833 3.15C183.853 3.23 183.873 3.32 183.893 3.42C183.953 3.54 184.043 3.6 184.163 3.6C184.183 3.58 184.203 3.58 184.223 3.6C184.243 3.62 184.253 3.64 184.253 3.66C184.353 3.78 184.383 3.91 184.343 4.05C184.303 4.21 184.293 4.37 184.313 4.53C184.353 4.67 184.393 4.82 184.433 4.98C184.513 5.18 184.593 5.38 184.673 5.58C184.753 5.78 184.833 5.98 184.913 6.18C185.013 6.4 185.113 6.62 185.213 6.84C185.313 7.06 185.403 7.28 185.483 7.5C185.583 7.78 185.683 8.06 185.783 8.34C185.903 8.62 186.033 8.9 186.173 9.18L186.263 9.51C186.283 9.59 186.303 9.67 186.323 9.75C186.363 9.83 186.393 9.91 186.413 9.99C186.453 10.05 186.483 10.11 186.503 10.17C186.543 10.23 186.583 10.28 186.623 10.32C186.723 10.46 186.783 10.61 186.803 10.77C186.863 10.97 186.953 11.15 187.073 11.31C187.113 11.37 187.173 11.4 187.253 11.4C187.553 11.36 187.853 11.33 188.153 11.31C188.453 11.27 188.753 11.21 189.053 11.13C189.273 11.07 189.483 11.04 189.683 11.04C190.063 11.04 190.413 11.17 190.733 11.43C191.113 11.73 191.313 12.11 191.333 12.57C191.333 12.67 191.343 12.75 191.363 12.81C191.363 12.95 191.323 13.06 191.243 13.14C191.223 13.2 191.183 13.26 191.123 13.32C191.083 13.38 191.043 13.44 191.003 13.5C190.963 13.58 190.923 13.64 190.883 13.68L190.703 13.83C190.683 13.87 190.653 13.92 190.613 13.98C190.573 14.02 190.523 14.05 190.463 14.07C190.383 14.09 190.303 14.12 190.223 14.16C190.143 14.18 190.053 14.19 189.953 14.19C189.593 14.23 189.273 14.22 188.993 14.16H188.513C188.473 14.16 188.413 14.18 188.333 14.22C188.253 14.26 188.213 14.31 188.213 14.37V14.49C188.273 14.67 188.313 14.86 188.333 15.06C188.373 15.24 188.433 15.41 188.513 15.57C188.513 15.65 188.533 15.73 188.573 15.81C188.673 15.99 188.753 16.18 188.813 16.38C188.873 16.56 188.923 16.75 188.963 16.95C188.963 16.99 188.983 17.07 189.023 17.19C189.083 17.33 189.133 17.48 189.173 17.64C189.213 17.78 189.243 17.93 189.263 18.09C189.263 18.21 189.293 18.32 189.353 18.42C189.433 18.6 189.493 18.78 189.533 18.96C189.573 19.14 189.603 19.33 189.623 19.53C189.643 19.55 189.653 19.59 189.653 19.65C189.653 19.69 189.663 19.73 189.683 19.77C189.783 19.99 189.853 20.23 189.893 20.49C189.933 20.73 189.983 20.97 190.043 21.21C190.083 21.33 190.103 21.45 190.103 21.57C190.123 21.71 190.133 21.85 190.133 21.99C190.133 22.09 190.103 22.2 190.043 22.32C189.983 22.38 189.953 22.41 189.953 22.41C189.833 22.43 189.763 22.5 189.743 22.62L189.653 22.8C189.613 22.88 189.553 22.93 189.473 22.95C189.393 22.95 189.323 22.98 189.263 23.04C189.183 23.12 189.073 23.16 188.933 23.16C188.853 23.16 188.753 23.16 188.633 23.16C188.533 23.16 188.433 23.17 188.333 23.19ZM181.103 12.3C181.223 12.28 181.343 12.26 181.463 12.24C181.603 12.22 181.753 12.2 181.913 12.18C182.013 12.16 182.143 12.14 182.303 12.12C182.463 12.1 182.613 12.08 182.753 12.06C182.893 12.02 183.033 12 183.173 12C183.313 11.98 183.453 11.96 183.593 11.94C183.713 11.9 183.833 11.88 183.953 11.88C184.073 11.86 184.193 11.84 184.313 11.82C184.493 11.78 184.563 11.68 184.523 11.52C184.503 11.36 184.463 11.2 184.403 11.04C184.363 10.86 184.273 10.71 184.133 10.59C184.093 10.55 184.073 10.49 184.073 10.41V10.32C184.033 10.16 183.983 10.01 183.923 9.87C183.883 9.71 183.833 9.56 183.773 9.42C183.733 9.26 183.683 9.12 183.623 9C183.583 8.86 183.533 8.72 183.473 8.58L183.113 7.5C183.053 7.36 182.993 7.22 182.933 7.08C182.893 6.94 182.853 6.8 182.813 6.66L182.723 6.54H182.633L182.573 6.63C182.473 6.93 182.353 7.23 182.213 7.53C182.093 7.83 181.983 8.15 181.883 8.49C181.883 8.53 181.873 8.58 181.853 8.64C181.833 8.7 181.813 8.76 181.793 8.82C181.713 9.02 181.633 9.24 181.553 9.48C181.493 9.72 181.443 9.96 181.403 10.2C181.383 10.34 181.363 10.48 181.343 10.62C181.323 10.74 181.293 10.87 181.253 11.01L180.983 12.18C180.963 12.2 180.973 12.23 181.013 12.27C181.053 12.29 181.083 12.3 181.103 12.3Z" fill="#353535"/>
</svg>
