<svg width="82" height="43" viewBox="0 0 82 43" fill="none" xmlns="http://www.w3.org/2000/svg">
<path d="M3.07773 40C2.71107 39.9333 2.46107 39.7667 2.32773 39.5C2.22773 39.3 2.1444 39.0833 2.07773 38.85C2.0444 38.65 2.01107 38.45 1.97773 38.25C1.9444 37.9833 1.91107 37.7 1.87773 37.4C1.8444 37.1333 1.81107 36.8667 1.77773 36.6C1.7444 36.2667 1.6944 35.95 1.62773 35.65C1.56107 35.35 1.46107 35.0333 1.32773 34.7C1.2944 34.6 1.26107 34.5167 1.22773 34.45C1.1944 34.35 1.1444 34.25 1.07773 34.15L0.477735 32.9C0.311068 32.5667 0.227734 32.2333 0.227734 31.9C0.194401 31.4667 0.177735 31.05 0.177735 30.65C0.177735 30.25 0.194401 29.85 0.227734 29.45C0.227734 29.3167 0.261068 29.15 0.327734 28.95C0.394401 28.6167 0.461068 28.3 0.527734 28C0.627734 27.6667 0.694401 27.35 0.727735 27.05C0.794401 26.65 0.861068 26.2667 0.927735 25.9C0.994401 25.5 1.0444 25.1167 1.07773 24.75C1.1444 24.3833 1.1944 24.0167 1.22773 23.65C1.26107 23.2833 1.2944 22.9167 1.32773 22.55C1.36107 22.2833 1.3944 22.0333 1.42773 21.8C1.46107 21.5333 1.4944 21.2833 1.52773 21.05C1.56107 20.95 1.57773 20.8 1.57773 20.6C1.57773 20.4333 1.5944 20.2667 1.62773 20.1C1.66107 19.9 1.6944 19.7167 1.72773 19.55C1.7944 19.2833 1.82773 19.0167 1.82773 18.75C1.86107 18.45 1.8944 18.1667 1.92773 17.9C1.96107 17.8 1.97773 17.6667 1.97773 17.5C2.07773 17.1333 2.1444 16.75 2.17773 16.35C2.2444 15.95 2.2944 15.55 2.32773 15.15L2.47773 14.3C2.5444 13.9333 2.5944 13.5667 2.62773 13.2C2.66107 12.8 2.6944 12.4167 2.72773 12.05C2.7944 11.6833 2.82773 11.3167 2.82773 10.95C2.82773 10.55 2.82773 10.1667 2.82773 9.8C2.82773 9.6 2.82773 9.41667 2.82773 9.25C2.86107 9.05 2.8944 8.85 2.92773 8.65C2.9944 7.78333 2.92773 6.95 2.72773 6.15C2.6944 6.11666 2.67773 6.08333 2.67773 6.05C2.5444 5.61666 2.52773 5.21666 2.62773 4.85C2.72773 4.48333 2.8944 4.13333 3.12773 3.8C3.52773 3.13333 4.0944 2.73333 4.82773 2.6C4.96107 2.56666 5.07773 2.55 5.17773 2.55C5.27773 2.51667 5.3944 2.51667 5.52773 2.55C5.66107 2.61666 5.77773 2.65 5.87774 2.65C6.17773 2.68333 6.46107 2.81667 6.72773 3.05L7.17773 3.65C7.41107 4.05 7.62773 4.35 7.82773 4.55C8.36107 5.21667 8.82773 5.93333 9.22774 6.7C9.46107 7.13333 9.66107 7.56667 9.82773 8C10.0277 8.4 10.2277 8.8 10.4277 9.2C10.5277 9.43333 10.6111 9.65 10.6777 9.85C10.7777 10.05 10.8777 10.25 10.9777 10.45C11.0444 10.55 11.1444 10.6667 11.2777 10.8C11.4111 11 11.4777 11.15 11.4777 11.25C11.5444 11.3833 11.5277 11.5 11.4277 11.6C11.3944 11.6333 11.3944 11.6833 11.4277 11.75C11.4611 11.8167 11.4944 11.8833 11.5277 11.95C11.5611 11.9833 11.6277 12.1833 11.7277 12.55C11.8277 12.8833 11.8611 13 11.8277 12.9C11.8944 13.0667 11.9944 13.15 12.1277 13.15C12.2277 13.1833 12.2944 13.25 12.3277 13.35C12.3611 13.4167 12.3111 13.5 12.1777 13.6C12.0777 13.6333 12.0777 13.7667 12.1777 14C12.2777 14.2 12.3444 14.3333 12.3777 14.4C12.5111 14.7333 12.6277 15.0667 12.7277 15.4C12.8277 15.7 12.9444 16.0167 13.0777 16.35C13.2444 16.7833 13.3944 17.2333 13.5277 17.7C13.6611 18.1667 13.7944 18.6333 13.9277 19.1C14.0277 19.4333 14.1277 19.7667 14.2277 20.1C14.3611 20.4 14.4777 20.7 14.5777 21C14.5777 21.0667 14.6111 21.1 14.6777 21.1L14.7777 21C14.7777 20.9333 14.8111 20.8333 14.8777 20.7C14.9444 20.3333 15.0277 19.9667 15.1277 19.6C15.2277 19.2 15.3277 18.8167 15.4277 18.45C15.5944 17.95 15.7277 17.45 15.8277 16.95C15.9611 16.45 16.0944 15.95 16.2277 15.45C16.2944 15.15 16.3777 14.85 16.4777 14.55C16.5777 14.2167 16.6444 13.9 16.6777 13.6C16.8111 13.0333 16.9444 12.4833 17.0777 11.95C17.2111 11.4167 17.3277 10.8833 17.4277 10.35C17.4611 10.2833 17.4777 10.2167 17.4777 10.15C17.5111 10.0833 17.5277 10.0167 17.5277 9.95C17.5611 9.61667 17.6611 9.3 17.8277 9C18.1611 8.3 18.7111 7.85 19.4777 7.65C19.8444 7.55 20.2111 7.55 20.5777 7.65C20.8777 7.71667 21.0944 7.83333 21.2277 8C21.4611 8.23333 21.6777 8.46667 21.8777 8.7C22.1111 8.93333 22.3111 9.18333 22.4777 9.45C22.6111 9.65 22.7444 9.85 22.8777 10.05C23.0111 10.2167 23.1444 10.4 23.2777 10.6C23.3777 10.7333 23.4777 10.8833 23.5777 11.05C23.6777 11.1833 23.7611 11.3333 23.8277 11.5C24.0944 11.9667 24.3444 12.45 24.5777 12.95C24.8111 13.45 25.0111 13.9667 25.1777 14.5C25.1777 14.5667 25.1944 14.6167 25.2277 14.65C25.3944 14.9833 25.5277 15.3333 25.6277 15.7C25.7277 16.0333 25.8277 16.3833 25.9277 16.75C26.0611 17.1167 26.1611 17.4833 26.2277 17.85C26.3277 18.2167 26.4277 18.5833 26.5277 18.95C26.5277 19.0833 26.5444 19.1833 26.5777 19.25C26.6777 19.5167 26.7611 19.8 26.8277 20.1C26.8944 20.4 26.9611 20.6833 27.0277 20.95C27.0944 21.35 27.1611 21.75 27.2277 22.15C27.2944 22.55 27.3611 22.9333 27.4277 23.3C27.4944 23.8 27.5611 24.3 27.6277 24.8C27.6944 25.3 27.7777 25.8 27.8777 26.3C27.9444 26.6333 27.9944 26.9833 28.0277 27.35C28.0944 27.7167 28.1444 28.0833 28.1777 28.45C28.1777 28.55 28.2111 28.7 28.2777 28.9L28.4277 30.1C28.4277 30.2667 28.4444 30.3833 28.4777 30.45C28.6444 31.0833 28.7444 31.7333 28.7777 32.4C28.8111 32.4333 28.8277 32.4833 28.8277 32.55C28.8277 32.5833 28.8444 32.6333 28.8777 32.7L29.2277 34.7C29.2944 34.9333 29.2944 35.1833 29.2277 35.45L29.1277 35.85C29.1277 36.1167 29.0777 36.3667 28.9777 36.6C28.8777 36.8333 28.7611 37.0667 28.6277 37.3C28.5277 37.4333 28.4111 37.5667 28.2777 37.7C28.1444 37.8667 27.9944 38 27.8277 38.1C27.4611 38.3667 27.0944 38.3833 26.7277 38.15C25.9611 37.65 25.3944 37.0333 25.0277 36.3C24.9944 36.1667 24.9444 36.05 24.8777 35.95C24.8444 35.8167 24.8277 35.6833 24.8277 35.55L24.6777 34.6C24.6444 34.4333 24.6111 34.2667 24.5777 34.1C24.5777 33.9 24.5611 33.7167 24.5277 33.55L24.0277 30.65C23.9944 30.4167 23.9611 30.2 23.9277 30C23.8944 29.8 23.8611 29.5833 23.8277 29.35L23.6277 28.25C23.5611 27.8833 23.4944 27.5167 23.4277 27.15C23.3611 26.75 23.2944 26.3667 23.2277 26L22.7277 22.8C22.6944 22.3333 22.6111 21.8833 22.4777 21.45C22.3777 20.9833 22.2777 20.5333 22.1777 20.1C22.0444 19.5667 21.8944 19.0667 21.7277 18.6C21.5611 18.1 21.3777 17.6167 21.1777 17.15L21.0277 16.7C20.9944 16.6 20.9444 16.5 20.8777 16.4C20.8111 16.3 20.7444 16.2167 20.6777 16.15C20.5777 16.15 20.5277 16.1667 20.5277 16.2L20.3777 16.7C20.2444 17.1333 20.1277 17.6 20.0277 18.1C19.9277 18.5667 19.8111 19.0333 19.6777 19.5C19.6111 19.7667 19.5444 20.0333 19.4777 20.3C19.4111 20.5667 19.3444 20.8333 19.2777 21.1C19.2111 21.3333 19.1444 21.5833 19.0777 21.85C19.0444 22.0833 18.9944 22.3333 18.9277 22.6C18.8611 23 18.7777 23.4 18.6777 23.8C18.5777 24.2 18.4944 24.6 18.4277 25C18.3944 25.3 18.3444 25.6 18.2777 25.9C18.2444 26.2 18.2111 26.5 18.1777 26.8V27.1C18.2444 27.3667 18.1777 27.6 17.9777 27.8C17.9444 27.9 17.8944 28 17.8277 28.1C17.7944 28.1667 17.7611 28.25 17.7277 28.35C17.6611 28.65 17.5777 28.8667 17.4777 29L17.3277 29.35C17.2944 29.3833 17.2611 29.45 17.2277 29.55C17.2277 29.6167 17.1944 29.6833 17.1277 29.75C16.8944 30.15 16.5944 30.4167 16.2277 30.55C16.0944 30.6167 15.9611 30.6833 15.8277 30.75C15.7277 30.8167 15.6111 30.8833 15.4777 30.95C15.1444 31.1167 14.7944 31.1 14.4277 30.9C13.9277 30.5667 13.5444 30.2 13.2777 29.8L12.3777 28.5C12.3777 28.4667 12.3611 28.45 12.3277 28.45C12.3277 28.4167 12.3277 28.4 12.3277 28.4C12.1944 28.0333 12.0444 27.7 11.8777 27.4C11.7111 27.1 11.5777 26.7833 11.4777 26.45L10.8777 24.7C10.7111 24.2667 10.5611 23.8333 10.4277 23.4C10.2944 22.9667 10.1444 22.5333 9.97774 22.1L9.82773 21.7C9.76107 21.4 9.67773 21.1 9.57774 20.8C9.51107 20.5 9.42773 20.2167 9.32773 19.95C9.26107 19.65 9.17774 19.3667 9.07773 19.1C8.97773 18.8 8.8944 18.5167 8.82774 18.25C8.6944 17.8833 8.56107 17.5167 8.42774 17.15C8.32773 16.75 8.1944 16.3667 8.02773 16C7.96107 15.7667 7.86107 15.5833 7.72774 15.45C7.46107 15.1833 7.27773 14.8667 7.17773 14.5C7.17773 14.4333 7.1444 14.4 7.07773 14.4L6.97774 14.5V14.55C6.9444 14.5833 6.92773 14.6333 6.92773 14.7C6.8944 15.0333 6.86107 15.3833 6.82773 15.75C6.7944 16.1167 6.7444 16.4833 6.67773 16.85L6.52773 18.5C6.4944 18.7667 6.46107 19.0333 6.42773 19.3C6.42773 19.5667 6.41107 19.8333 6.37773 20.1C6.3444 20.2333 6.31107 20.3667 6.27773 20.5C6.27773 20.6333 6.27773 20.7833 6.27773 20.95C6.2444 21.7833 6.1444 22.6667 5.97773 23.6C5.9444 23.8333 5.91107 24.1 5.87774 24.4C5.8444 24.6667 5.81107 24.9333 5.77773 25.2L5.62773 26.3C5.52773 26.9 5.47774 27.4833 5.47774 28.05C5.47774 28.2833 5.47774 28.5167 5.47774 28.75C5.51107 28.9833 5.4944 29.2167 5.42773 29.45C5.3944 29.75 5.42773 30.1 5.52773 30.5C5.66107 30.7333 5.71107 30.9667 5.67773 31.2C5.67773 31.4333 5.6444 31.6833 5.57773 31.95C5.5444 32.15 5.47773 32.35 5.37773 32.55C5.31107 32.75 5.1944 32.9333 5.02773 33.1C4.96107 33.2 4.87773 33.3167 4.77773 33.45C4.71107 33.5833 4.62773 33.7 4.52773 33.8C4.26107 34.1333 4.12773 34.5 4.12773 34.9V36C4.12773 36.2667 4.11107 36.5167 4.07773 36.75C4.07773 37.0167 4.0944 37.2833 4.12773 37.55C4.12773 37.5833 4.11107 37.6167 4.07773 37.65C4.07773 37.6833 4.07773 37.7333 4.07773 37.8C4.0444 37.9 4.02773 38 4.02773 38.1C4.02773 38.2 4.02773 38.3 4.02773 38.4C4.06107 38.7 4.02773 39.0167 3.92773 39.35C3.76107 39.65 3.5444 39.85 3.27773 39.95C3.21107 39.9833 3.1444 40 3.07773 40ZM36.3598 38.95C36.0598 38.85 35.8264 38.65 35.6598 38.35L35.5098 37.8C35.4764 37.6333 35.4598 37.4667 35.4598 37.3C35.4598 37.1333 35.4431 36.9667 35.4098 36.8C35.3764 36.6667 35.3431 36.5333 35.3098 36.4C35.3098 36.3 35.2764 36.2 35.2098 36.1C35.1431 35.9667 35.0764 35.8333 35.0098 35.7C34.9431 35.5667 34.8764 35.4333 34.8098 35.3C34.4431 34.5 34.3264 33.7333 34.4598 33V32.75C34.4931 32.35 34.5264 31.9667 34.5598 31.6C34.5931 31.2 34.6264 30.8 34.6598 30.4C34.6598 30.2667 34.6598 30.1333 34.6598 30C34.6931 29.8667 34.7098 29.7333 34.7098 29.6C34.7098 29.5 34.7098 29.4 34.7098 29.3C34.7431 29.2 34.7598 29.1167 34.7598 29.05C34.7598 28.8833 34.7598 28.7 34.7598 28.5C34.7931 28.3 34.8098 28.1167 34.8098 27.95V27.65C34.7764 27.1167 34.7598 26.6 34.7598 26.1C34.7598 25.5667 34.7598 25.0333 34.7598 24.5C34.7598 24.3333 34.7598 24.1667 34.7598 24C34.7598 23.8 34.7431 23.6167 34.7098 23.45C34.6764 23.3833 34.6598 23.2833 34.6598 23.15C34.6931 22.9167 34.6931 22.7 34.6598 22.5C34.6598 22.3 34.6598 22.1 34.6598 21.9C34.6598 21.7667 34.6598 21.65 34.6598 21.55C34.6598 21.4167 34.6764 21.3 34.7098 21.2C34.7431 20.8667 34.7431 20.55 34.7098 20.25C34.6764 19.85 34.6431 19.45 34.6098 19.05C34.5764 18.65 34.5264 18.2667 34.4598 17.9C34.3931 17.3333 34.3264 16.7667 34.2598 16.2C34.2264 15.6333 34.2264 15.0667 34.2598 14.5V13C34.2598 12.8333 34.2598 12.6667 34.2598 12.5C34.2931 12.3333 34.3098 12.1833 34.3098 12.05V11.65C34.2764 11.3833 34.2598 11.1167 34.2598 10.85C34.2931 10.55 34.3264 10.25 34.3598 9.95V9.4C34.3598 8.93333 34.3598 8.46667 34.3598 8C34.3931 7.53333 34.4098 7.08333 34.4098 6.65C34.4098 6.38333 34.4098 6.13333 34.4098 5.9C34.4098 5.63333 34.3764 5.38333 34.3098 5.15C34.2764 4.75 34.3098 4.31667 34.4098 3.85C34.5098 3.58333 34.6264 3.33333 34.7598 3.1C34.8931 2.86667 35.0431 2.65 35.2098 2.45C35.8098 1.75 36.5931 1.4 37.5598 1.4C37.8598 1.43333 38.1431 1.5 38.4098 1.6C38.7098 1.66666 38.9764 1.8 39.2098 2C39.2764 2.03333 39.3764 2.11667 39.5098 2.25C39.6764 2.38333 39.8598 2.51667 40.0598 2.65C40.2931 2.75 40.5264 2.83333 40.7598 2.9C41.0264 2.93333 41.2931 2.98333 41.5598 3.05C41.8598 3.11667 42.1431 3.18333 42.4098 3.25C42.5098 3.28333 42.6431 3.3 42.8098 3.3C42.9764 3.3 43.1098 3.25 43.2098 3.15C43.2764 3.08333 43.3431 3.03333 43.4098 3C43.5098 2.93333 43.6098 2.88333 43.7098 2.85C44.1098 2.61667 44.4764 2.6 44.8098 2.8C44.9098 2.83333 44.9931 2.88333 45.0598 2.95C45.1598 2.98333 45.2431 3.01667 45.3098 3.05C45.6764 3.21666 45.9598 3.41666 46.1598 3.65C46.3264 3.85 46.5431 3.98333 46.8098 4.05C46.9764 4.08333 47.1098 4.13333 47.2098 4.2C47.3431 4.26667 47.4764 4.36667 47.6098 4.5C47.7431 4.6 47.8764 4.68333 48.0098 4.75C48.1764 4.81667 48.3264 4.88333 48.4598 4.95C48.7264 4.98333 48.9431 5.13333 49.1098 5.4C49.2431 5.66666 49.4598 5.85 49.7598 5.95C49.9264 5.98333 50.0931 6.08333 50.2598 6.25C50.3264 6.35 50.4931 6.46667 50.7598 6.6C50.9264 6.63333 51.0598 6.71667 51.1598 6.85C51.2931 6.95 51.4098 7.08333 51.5098 7.25L51.6098 7.4C51.8431 7.9 52.2264 8.36666 52.7598 8.8C52.9598 8.96667 53.1431 9.16667 53.3098 9.4C53.4764 9.6 53.5931 9.83333 53.6598 10.1C53.7264 10.2333 53.7931 10.3667 53.8598 10.5C53.9598 10.6333 54.0431 10.7833 54.1098 10.95C54.1764 11.05 54.2264 11.15 54.2598 11.25C54.2931 11.35 54.3264 11.4667 54.3598 11.6C54.3931 11.7333 54.4264 11.85 54.4598 11.95C54.4931 12.05 54.5264 12.1667 54.5598 12.3C54.5931 12.3667 54.6098 12.45 54.6098 12.55C54.6098 12.6167 54.6264 12.6833 54.6598 12.75C54.7598 13.1167 54.8264 13.5 54.8598 13.9C54.9264 14.3 54.9764 14.7 55.0098 15.1C55.0431 15.3333 55.0431 15.5667 55.0098 15.8C55.0098 16.0333 55.0098 16.2833 55.0098 16.55C55.0098 16.7167 54.9931 16.9 54.9598 17.1C54.9598 17.2667 54.9431 17.4333 54.9098 17.6C54.9098 17.7 54.8764 17.8167 54.8098 17.95C54.5098 18.85 54.0264 19.65 53.3598 20.35C53.2264 20.4833 53.0931 20.6333 52.9598 20.8C52.8264 20.9333 52.6931 21.0667 52.5598 21.2C52.3598 21.4 52.1598 21.5833 51.9598 21.75C51.7598 21.9167 51.5598 22.0833 51.3598 22.25L51.2098 22.4C50.9431 22.5333 50.6764 22.6667 50.4098 22.8C50.1431 22.9333 49.8598 23.0333 49.5598 23.1C49.4598 23.1 49.3931 23.1167 49.3598 23.15C49.1264 23.2833 48.8598 23.35 48.5598 23.35C48.2931 23.35 48.0264 23.3333 47.7598 23.3C47.6264 23.2667 47.4931 23.25 47.3598 23.25C47.2598 23.2167 47.1431 23.2 47.0098 23.2C46.5764 23.2 46.1598 23.2167 45.7598 23.25C45.3598 23.2833 44.9431 23.3333 44.5098 23.4L42.2098 23.75C42.1098 23.75 41.9931 23.7667 41.8598 23.8C41.7598 23.8 41.6431 23.8167 41.5098 23.85C41.2764 23.8833 41.0431 23.9333 40.8098 24C40.6098 24.0333 40.3931 24.0333 40.1598 24C40.0598 24 40.0098 24.0667 40.0098 24.2V25.05C39.9431 25.4167 39.9431 25.7833 40.0098 26.15C40.0764 26.45 40.0431 26.6833 39.9098 26.85C39.8098 27.0833 39.7931 27.3333 39.8598 27.6C39.9264 27.9 39.9764 28.2167 40.0098 28.55C40.0764 28.85 40.1431 29.15 40.2098 29.45C40.2431 29.6167 40.2598 29.7833 40.2598 29.95C40.2931 30.1167 40.3098 30.2833 40.3098 30.45C40.3764 31.15 40.4764 31.85 40.6098 32.55C40.6764 32.75 40.7098 32.95 40.7098 33.15C40.7431 33.3167 40.7764 33.5 40.8098 33.7C40.8098 33.9333 40.7931 34.1167 40.7598 34.25C40.7264 34.35 40.6931 34.4667 40.6598 34.6C40.6598 34.7 40.6264 34.8 40.5598 34.9L40.4098 35.25C40.3431 35.3167 40.2764 35.4167 40.2098 35.55C40.0764 35.8167 39.8431 36.0333 39.5098 36.2C39.1098 36.3667 38.7431 36.4333 38.4098 36.4C38.2431 36.4 38.1264 36.4167 38.0598 36.45C37.8931 36.45 37.7931 36.5167 37.7598 36.65C37.7264 36.7167 37.6931 36.8 37.6598 36.9C37.6264 37 37.5931 37.0833 37.5598 37.15C37.5598 37.2833 37.5431 37.4167 37.5098 37.55C37.5098 37.7167 37.4931 37.8833 37.4598 38.05C37.4264 38.3167 37.2931 38.5667 37.0598 38.8C36.8598 39 36.6264 39.05 36.3598 38.95ZM40.9098 19.4C41.1098 19.4 41.2931 19.4 41.4598 19.4C41.6598 19.3667 41.8598 19.3333 42.0598 19.3C42.2931 19.2333 42.5264 19.1833 42.7598 19.15C42.9931 19.1167 43.2264 19.0833 43.4598 19.05C43.9264 18.9833 44.3764 18.8833 44.8098 18.75C44.9431 18.7167 45.0764 18.7 45.2098 18.7C45.3431 18.6667 45.4764 18.65 45.6098 18.65C45.8431 18.65 46.0098 18.6333 46.1098 18.6C46.3431 18.5333 46.5598 18.5 46.7598 18.5C46.9931 18.5 47.2431 18.5 47.5098 18.5H48.2598C48.6598 18.4667 48.9764 18.3 49.2098 18L49.6098 17.55C49.7431 17.3833 49.8598 17.2167 49.9598 17.05C50.0931 16.85 50.1764 16.6333 50.2098 16.4C50.2764 15.9 50.2598 15.45 50.1598 15.05C50.0598 14.65 49.9431 14.2667 49.8098 13.9C49.6764 13.5 49.5098 13.1333 49.3098 12.8C49.1098 12.3667 48.8098 12.0333 48.4098 11.8C48.2764 11.7667 48.1764 11.6667 48.1098 11.5C48.0431 11.3 47.9264 11.15 47.7598 11.05C47.7264 11.0167 47.6931 10.9833 47.6598 10.95C47.6264 10.9167 47.5764 10.8833 47.5098 10.85C47.3764 10.7167 47.1931 10.65 46.9598 10.65C46.8264 10.65 46.6764 10.6333 46.5098 10.6C46.3764 10.5333 46.2431 10.4833 46.1098 10.45C45.9764 10.3833 45.8431 10.3167 45.7098 10.25C45.6098 10.1833 45.5098 10.1167 45.4098 10.05C45.0764 9.85 44.7098 9.75 44.3098 9.75C44.0098 9.75 43.6764 9.7 43.3098 9.6C42.9431 9.36667 42.5598 9.23333 42.1598 9.2C42.0931 9.2 41.9931 9.16667 41.8598 9.1L41.4598 8.95C41.2598 8.85 41.0931 8.8 40.9598 8.8C40.5264 8.66666 40.2098 8.81666 40.0098 9.25C39.9764 9.35 39.9431 9.46667 39.9098 9.6C39.8764 9.7 39.8431 9.81667 39.8098 9.95C39.7764 10.2167 39.7431 10.4833 39.7098 10.75C39.6764 11.0167 39.6431 11.2833 39.6098 11.55C39.5764 11.75 39.5431 11.95 39.5098 12.15C39.4764 12.35 39.4598 12.55 39.4598 12.75C39.4264 13.1833 39.4098 13.6167 39.4098 14.05C39.4431 14.4833 39.4931 14.9333 39.5598 15.4V15.9C39.5598 16.1333 39.5598 16.3667 39.5598 16.6C39.5931 16.8333 39.6264 17.0667 39.6598 17.3C39.6931 17.4 39.7098 17.5333 39.7098 17.7L39.8598 19.05C39.8598 19.25 39.9598 19.35 40.1598 19.35C40.2931 19.3833 40.4098 19.4 40.5098 19.4C40.6431 19.4 40.7764 19.4 40.9098 19.4ZM65.5691 42.85C65.4025 42.9167 65.2691 42.9 65.1691 42.8C64.8025 42.6333 64.5691 42.35 64.4691 41.95V41.85C64.4358 41.55 64.4025 41.25 64.3691 40.95C64.3358 40.65 64.3025 40.3667 64.2691 40.1C64.2691 40.0333 64.2525 39.95 64.2191 39.85C64.2191 39.7833 64.2191 39.7167 64.2191 39.65C64.1858 39.55 64.1691 39.45 64.1691 39.35C64.1691 39.25 64.1691 39.15 64.1691 39.05C64.1691 38.7833 64.1358 38.55 64.0691 38.35C64.0025 38.15 63.9358 37.95 63.8691 37.75C63.8025 37.6167 63.7358 37.5333 63.6691 37.5C63.5358 37.3333 63.4358 37.15 63.3691 36.95C63.3025 36.7833 63.2191 36.6 63.1191 36.4V36.35C62.9525 35.8833 62.8525 35.5833 62.8191 35.45C62.7858 35.2833 62.7691 34.9667 62.7691 34.5V33.85C62.7691 33.5167 62.8691 33.25 63.0691 33.05C63.1025 32.9833 63.1358 32.9167 63.1691 32.85C63.2358 32.7833 63.2858 32.7167 63.3191 32.65C63.3858 32.45 63.3858 32.3 63.3191 32.2C63.1858 31.9333 63.0858 31.6667 63.0191 31.4C62.9525 31.1 62.8858 30.8 62.8191 30.5V29.95C62.8525 29.75 62.8691 29.5667 62.8691 29.4C62.9025 29.2 62.9358 29 62.9691 28.8C63.0358 28.5 63.0358 28.1667 62.9691 27.8C62.9025 27.6 62.8691 27.45 62.8691 27.35C62.8358 27.25 62.8025 27.15 62.7691 27.05C62.7691 26.95 62.7691 26.85 62.7691 26.75C62.7691 26.35 62.7191 25.9833 62.6191 25.65C62.5525 25.45 62.5191 25.2833 62.5191 25.15C62.5191 24.6167 62.4858 24.1 62.4191 23.6C62.3525 23.0667 62.2858 22.5333 62.2191 22C62.2191 21.9333 62.2025 21.9 62.1691 21.9C62.1691 21.8667 62.1691 21.8333 62.1691 21.8C62.1691 21.5333 62.1358 21.2667 62.0691 21C62.0025 20.7 61.9358 20.4333 61.8691 20.2C61.8358 20.1333 61.8191 20.05 61.8191 19.95C61.8191 19.85 61.8025 19.7667 61.7691 19.7C61.7358 19.4667 61.7025 19.25 61.6691 19.05C61.6691 18.85 61.6358 18.6333 61.5691 18.4V18.2C61.5358 17.8333 61.4691 17.4833 61.3691 17.15C61.3025 16.8167 61.2358 16.4833 61.1691 16.15C61.1691 16.0167 61.1525 15.8833 61.1191 15.75C61.1191 15.6167 61.1025 15.4833 61.0691 15.35L60.9191 14.8C60.8858 14.6667 60.8525 14.5333 60.8191 14.4C60.8191 14.2333 60.8025 14.0833 60.7691 13.95C60.7358 13.7167 60.7191 13.5 60.7191 13.3C60.7191 13.0667 60.7025 12.8333 60.6691 12.6C60.6358 12.3667 60.6025 12.15 60.5691 11.95C60.5691 11.75 60.5358 11.55 60.4691 11.35C60.4358 11.0833 60.4025 10.8167 60.3691 10.55C60.3691 10.25 60.3358 9.96667 60.2691 9.7C60.1691 9.16666 59.9691 8.68333 59.6691 8.25C59.0358 7.31667 58.7691 6.26667 58.8691 5.1C58.9358 4.73333 59.0858 4.4 59.3191 4.1C59.3525 4.03333 59.4358 3.93333 59.5691 3.8C59.8025 3.5 60.0691 3.28333 60.3691 3.15C60.7025 2.98333 61.0525 2.88333 61.4191 2.85C61.9858 2.75 62.5025 2.6 62.9691 2.4C63.8691 2.13333 64.7691 1.93333 65.6691 1.8C66.2691 1.7 66.8691 1.65 67.4691 1.65H67.9691C68.2358 1.58333 68.5025 1.55 68.7691 1.55C69.0691 1.55 69.3525 1.55 69.6191 1.55H70.0691C70.2691 1.55 70.4358 1.48333 70.5691 1.35L71.1691 0.999998C71.2691 0.933332 71.3691 0.933332 71.4691 0.999998C71.5691 1.06667 71.6691 1.11667 71.7691 1.15C71.9025 1.18333 72.0191 1.23333 72.1191 1.3C72.2858 1.36667 72.4358 1.43333 72.5691 1.5C72.7025 1.56666 72.8358 1.63333 72.9691 1.7C73.0358 1.76667 73.1191 1.81667 73.2191 1.85C73.3191 1.88333 73.4191 1.91666 73.5191 1.95L74.4691 2.15C74.7358 2.18333 74.9691 2.25 75.1691 2.35C75.4025 2.41667 75.6358 2.5 75.8691 2.6C76.1358 2.7 76.3691 2.85 76.5691 3.05C76.7691 3.21666 76.9691 3.41666 77.1691 3.65C77.6358 4.08333 77.9358 4.63333 78.0691 5.3C78.1025 5.56667 78.1858 5.88333 78.3191 6.25C78.3858 6.48333 78.4191 6.71667 78.4191 6.95C78.4191 7.18333 78.4358 7.43333 78.4691 7.7C78.4691 7.7 78.4691 7.78333 78.4691 7.95C78.4358 8.31667 78.3858 8.7 78.3191 9.1C78.2525 9.46667 78.1691 9.83333 78.0691 10.2C77.9691 10.5333 77.8525 10.8833 77.7191 11.25C77.6191 11.6167 77.4858 11.9667 77.3191 12.3C77.1191 12.8 76.8358 13.2833 76.4691 13.75C76.2358 14.05 76.0025 14.3667 75.7691 14.7C75.5691 15 75.3358 15.3 75.0691 15.6C74.9358 15.7333 74.8025 15.8833 74.6691 16.05C74.5358 16.1833 74.4025 16.3167 74.2691 16.45L73.6691 17.05V17.15C73.6691 17.2167 73.7025 17.25 73.7691 17.25H74.5191C74.9858 17.2833 75.4525 17.35 75.9191 17.45C76.3858 17.5167 76.8358 17.6167 77.2691 17.75C77.3691 17.7833 77.4525 17.8167 77.5191 17.85C77.6191 17.8833 77.7191 17.9333 77.8191 18L78.4191 18.35C78.6191 18.4833 78.8025 18.6167 78.9691 18.75C79.1358 18.8833 79.2525 19.0833 79.3191 19.35C79.3858 19.5167 79.4691 19.6833 79.5691 19.85C79.7358 20.15 79.8858 20.4667 80.0191 20.8C80.1525 21.1 80.2858 21.4167 80.4191 21.75C80.4858 21.8833 80.5358 22.0167 80.5691 22.15C80.6358 22.25 80.6858 22.3667 80.7191 22.5C80.8858 22.9667 81.0525 23.4333 81.2191 23.9C81.3858 24.3667 81.5191 24.85 81.6191 25.35L81.7691 26.6C81.8358 26.8 81.8358 27.0167 81.7691 27.25C81.7358 27.45 81.7025 27.65 81.6691 27.85C81.6358 28.0167 81.6025 28.2 81.5691 28.4C81.4691 28.8333 81.3191 29.25 81.1191 29.65C81.0191 29.85 80.8858 30.0333 80.7191 30.2C80.2858 30.7333 79.8358 31.15 79.3691 31.45C79.1358 31.5833 78.9025 31.7333 78.6691 31.9C78.4691 32.0667 78.2358 32.2333 77.9691 32.4C77.4691 32.7 76.9025 33.0167 76.2691 33.35C76.1025 33.4167 75.9191 33.5 75.7191 33.6C75.5525 33.7 75.3858 33.7833 75.2191 33.85C74.6858 34.0833 74.1691 34.3167 73.6691 34.55C73.1691 34.7833 72.6691 35 72.1691 35.2C71.6358 35.4 71.1191 35.6 70.6191 35.8C70.1191 36 69.5858 36.1833 69.0191 36.35C68.8858 36.3833 68.7525 36.4167 68.6191 36.45C68.5191 36.4833 68.4025 36.5167 68.2691 36.55C67.6691 36.65 67.1858 36.9667 66.8191 37.5C66.6858 37.6333 66.6191 37.8 66.6191 38C66.5858 38.1333 66.5525 38.25 66.5191 38.35C66.5191 38.4833 66.5191 38.6167 66.5191 38.75C66.4858 38.85 66.4691 38.9833 66.4691 39.15V40.9C66.4691 41.0667 66.4691 41.2333 66.4691 41.4C66.4691 41.6 66.4358 41.7833 66.3691 41.95C66.3025 42.3167 66.0358 42.6167 65.5691 42.85ZM66.7191 16.6C66.7525 16.6333 66.7691 16.65 66.7691 16.65C66.7691 16.6167 66.7858 16.6 66.8191 16.6C66.8525 16.5667 66.8691 16.55 66.8691 16.55C66.9025 16.55 66.9191 16.55 66.9191 16.55C67.0858 16.5833 67.2525 16.55 67.4191 16.45C67.5858 16.3167 67.7525 16.2 67.9191 16.1C68.1191 15.9667 68.3191 15.8333 68.5191 15.7C68.8191 15.5 69.1025 15.2833 69.3691 15.05C69.6691 14.7833 69.9525 14.5167 70.2191 14.25C70.6191 13.8167 71.0025 13.3833 71.3691 12.95C71.7358 12.4833 72.0691 12 72.3691 11.5C72.5358 11.2 72.7025 10.9167 72.8691 10.65C73.0358 10.35 73.1858 10.0333 73.3191 9.7C73.4858 9.26667 73.6025 8.76666 73.6691 8.2C73.7358 7.86666 73.7191 7.56667 73.6191 7.3C73.5191 7.03333 73.3691 6.85 73.1691 6.75C72.5691 6.48333 72.0025 6.35 71.4691 6.35C71.1358 6.35 70.8191 6.35 70.5191 6.35C70.2191 6.35 69.9191 6.36666 69.6191 6.4C69.3525 6.43333 69.0858 6.46667 68.8191 6.5C68.5525 6.53333 68.2858 6.58333 68.0191 6.65C67.7858 6.71667 67.5358 6.8 67.2691 6.9C67.0358 6.96666 66.7858 7.03333 66.5191 7.1C66.1525 7.2 65.9191 7.41667 65.8191 7.75C65.7525 7.85 65.7191 8 65.7191 8.2V9C65.6858 9.33333 65.6858 9.66666 65.7191 10C65.7525 10.3333 65.7858 10.6667 65.8191 11L65.8691 11.05C65.8358 11.2833 65.8358 11.5167 65.8691 11.75C65.9358 11.9833 65.9858 12.2333 66.0191 12.5C66.0191 12.6 66.0691 12.6833 66.1691 12.75C66.3025 12.8167 66.3191 12.95 66.2191 13.15C66.2191 13.15 66.2025 13.1667 66.1691 13.2C66.1691 13.2 66.1858 13.2167 66.2191 13.25C66.2858 13.2833 66.3025 13.35 66.2691 13.45C66.2358 13.5167 66.2191 13.5833 66.2191 13.65C66.2191 13.9167 66.2358 14.1 66.2691 14.2C66.3025 14.2667 66.3191 14.35 66.3191 14.45C66.3191 14.5833 66.3358 14.7333 66.3691 14.9C66.4025 15.0333 66.4358 15.1667 66.4691 15.3C66.4691 15.3667 66.5025 15.3833 66.5691 15.35C66.6025 15.3167 66.6525 15.3 66.7191 15.3C66.7525 15.3 66.7691 15.35 66.7691 15.45V15.6C66.6025 15.8333 66.5691 16.0833 66.6691 16.35V16.55C66.7025 16.55 66.7191 16.5667 66.7191 16.6ZM67.6191 31.85C67.7191 31.85 67.8191 31.85 67.9191 31.85C68.0191 31.85 68.1358 31.8333 68.2691 31.8C68.8691 31.7 69.5025 31.5167 70.1691 31.25L72.1191 30.35C72.6525 30.0833 73.1691 29.8333 73.6691 29.6C74.1691 29.3333 74.6858 29.0833 75.2191 28.85C75.7858 28.55 76.3025 28.15 76.7691 27.65C77.0691 27.35 77.2191 26.9833 77.2191 26.55V26.3C77.1858 26.2333 77.1691 26.1833 77.1691 26.15C77.1691 26.0833 77.1525 26.0167 77.1191 25.95C77.0191 25.4167 76.8691 24.9167 76.6691 24.45C76.5025 23.95 76.3191 23.45 76.1191 22.95C76.0858 22.8167 76.0358 22.7 75.9691 22.6C75.9025 22.4667 75.8358 22.3333 75.7691 22.2C75.6691 22 75.5358 21.8833 75.3691 21.85C75.0691 21.75 74.7858 21.7 74.5191 21.7H73.7191C72.8191 21.6667 71.9025 21.7167 70.9691 21.85C70.0358 21.9833 69.0858 22.1833 68.1191 22.45L67.7691 22.6C67.7358 22.6333 67.7025 22.65 67.6691 22.65C67.6691 22.65 67.6525 22.6667 67.6191 22.7C67.5191 22.8 67.5025 22.9 67.5691 23L67.6691 23.1C67.7691 23.2 67.7858 23.3 67.7191 23.4C67.6525 23.5 67.6191 23.6333 67.6191 23.8C67.6191 23.9333 67.6191 24.0667 67.6191 24.2C67.6191 24.3 67.6358 24.4167 67.6691 24.55C67.7025 24.6833 67.7191 24.8167 67.7191 24.95C67.7191 25.0833 67.7191 25.2167 67.7191 25.35V25.95C67.7191 26.2833 67.7858 26.5333 67.9191 26.7C67.9858 26.8333 68.0191 26.9667 68.0191 27.1C68.0525 27.2333 68.0691 27.3667 68.0691 27.5C68.0691 27.6667 68.0191 27.85 67.9191 28.05C67.8191 28.2167 67.8025 28.4167 67.8691 28.65C67.9025 28.7167 67.9525 28.7833 68.0191 28.85C68.0858 29.0833 68.0525 29.2667 67.9191 29.4C67.8191 29.5667 67.7858 29.7167 67.8191 29.85C67.8191 30.05 67.8025 30.2 67.7691 30.3C67.7358 30.3667 67.6858 30.45 67.6191 30.55C67.5858 30.65 67.5191 30.7333 67.4191 30.8C67.2525 30.9333 67.1358 31.1333 67.0691 31.4C67.0025 31.5333 66.9691 31.65 66.9691 31.75C66.9691 31.8167 67.0858 31.8333 67.3191 31.8C67.3858 31.8 67.4358 31.8167 67.4691 31.85C67.5358 31.85 67.5858 31.85 67.6191 31.85Z" fill="#353535"/>
</svg>
