<svg width="188" height="24" viewBox="0 0 188 24" fill="none" xmlns="http://www.w3.org/2000/svg">
<path d="M11.7211 23.77H11.5711C11.5111 23.77 11.4411 23.76 11.3611 23.74C11.3011 23.74 11.2311 23.74 11.1511 23.74C11.0111 23.76 10.8911 23.73 10.7911 23.65C10.7111 23.59 10.6211 23.51 10.5211 23.41C10.4811 23.37 10.4311 23.32 10.3711 23.26C10.3311 23.22 10.2811 23.19 10.2211 23.17C10.1811 23.15 10.1411 23.1 10.1011 23.02C10.0811 22.98 10.0511 22.93 10.0111 22.87C9.99106 22.81 9.96106 22.75 9.92106 22.69C9.88106 22.59 9.87106 22.48 9.89105 22.36C9.91106 22.3 9.92106 22.24 9.92106 22.18C9.94106 22.14 9.95106 22.09 9.95106 22.03C9.95106 21.83 9.95106 21.64 9.95106 21.46C9.95106 21.26 9.93106 21.06 9.89105 20.86C9.87106 20.8 9.86106 20.74 9.86106 20.68C9.86106 20.6 9.85106 20.52 9.83105 20.44C9.83105 20.3 9.82105 20.19 9.80106 20.11C9.80106 20.01 9.79106 19.92 9.77106 19.84C9.77106 19.76 9.77106 19.68 9.77106 19.6C9.75106 19.46 9.74106 19.33 9.74106 19.21C9.74106 19.09 9.72106 18.96 9.68106 18.82V18.73C9.68106 18.47 9.66105 18.22 9.62105 17.98C9.60106 17.72 9.59106 17.46 9.59106 17.2C9.59106 17.08 9.58106 16.99 9.56106 16.93C9.54106 16.75 9.52106 16.57 9.50106 16.39C9.50106 16.19 9.50106 15.99 9.50106 15.79C9.50106 15.61 9.50106 15.43 9.50106 15.25C9.50106 15.05 9.48106 14.86 9.44106 14.68C9.42106 14.64 9.41105 14.59 9.41105 14.53C9.41105 14.47 9.41105 14.42 9.41105 14.38C9.41105 13.56 9.41105 12.74 9.41105 11.92C9.41105 11.1 9.42106 10.29 9.44106 9.49C9.44106 9.39 9.44106 9.29 9.44106 9.19C9.46106 9.09 9.47106 8.99 9.47106 8.89C9.47106 8.83 9.47106 8.77 9.47106 8.71C9.49106 8.65 9.50106 8.6 9.50106 8.56C9.50106 8.34 9.50106 8.12 9.50106 7.9C9.52106 7.66 9.54106 7.43 9.56106 7.21C9.60106 7.15 9.60106 7.07 9.56106 6.97C9.54106 6.95 9.51106 6.94 9.47106 6.94L9.38106 7.03C9.34106 7.09 9.29106 7.15 9.23106 7.21C9.17106 7.27 9.12106 7.33 9.08106 7.39C9.00106 7.51 8.91106 7.64 8.81106 7.78C8.73106 7.9 8.64106 8.03 8.54106 8.17C8.40106 8.41 8.25106 8.66 8.09105 8.92C7.93106 9.16 7.81106 9.42 7.73106 9.7C7.71106 9.74 7.69106 9.79 7.67105 9.85C7.65106 9.89 7.63106 9.93 7.61105 9.97C7.53106 10.17 7.44106 10.37 7.34105 10.57C7.26106 10.75 7.18106 10.95 7.10106 11.17C6.98105 11.43 6.81106 11.67 6.59106 11.89C6.55106 11.93 6.51106 11.95 6.47106 11.95C6.37106 12.01 6.26106 12.07 6.14105 12.13C6.02106 12.17 5.89106 12.18 5.75105 12.16H5.57106C5.39106 12.2 5.24106 12.16 5.12106 12.04C4.98106 12 4.86106 11.93 4.76105 11.83C4.68106 11.73 4.59106 11.62 4.49106 11.5C4.41106 11.4 4.34105 11.28 4.28105 11.14C4.24106 11 4.22106 10.86 4.22106 10.72C4.20106 10.68 4.19106 10.63 4.19106 10.57C4.19106 10.51 4.19106 10.46 4.19106 10.42C4.17106 10.38 4.15105 10.34 4.13105 10.3C4.11105 10.24 4.10105 10.2 4.10105 10.18C4.10105 10.14 4.08105 10.08 4.04106 10C4.00106 9.92 3.92106 9.76 3.80106 9.52C3.68105 9.28 3.62105 9.17 3.62105 9.19C3.56105 9.09 3.50106 8.98 3.44105 8.86C3.38106 8.74 3.31106 8.63 3.23105 8.53L3.05105 8.2C3.01105 8.2 2.98105 8.19 2.96105 8.17L2.93105 8.2C2.93105 8.26 2.93105 8.32 2.93105 8.38C2.93105 8.44 2.94105 8.5 2.96105 8.56C3.00105 8.78 3.02105 9 3.02105 9.22C3.02105 9.44 3.00105 9.66 2.96105 9.88C2.96105 10 2.97105 10.1 2.99105 10.18C3.01105 10.22 3.02105 10.29 3.02105 10.39C3.02105 10.51 3.02105 10.63 3.02105 10.75C3.04105 10.87 3.04105 10.99 3.02105 11.11C3.00105 11.21 2.99105 11.32 2.99105 11.44C3.01105 11.54 3.03105 11.64 3.05105 11.74V12.04C3.01105 12.16 3.01105 12.29 3.05105 12.43C3.07106 12.53 3.07106 12.64 3.05105 12.76C3.05105 12.86 3.06106 12.96 3.08106 13.06C3.08106 13.16 3.06106 13.29 3.02105 13.45C2.90105 13.93 2.93106 14.39 3.11106 14.83C3.13105 14.91 3.15105 14.99 3.17105 15.07C3.19105 15.13 3.19105 15.2 3.17105 15.28C3.17105 15.34 3.17105 15.4 3.17105 15.46C3.17105 15.52 3.18105 15.58 3.20105 15.64C3.24105 15.72 3.26105 15.8 3.26105 15.88C3.28106 16.1 3.29106 16.27 3.29106 16.39C3.31106 16.51 3.33106 16.6 3.35106 16.66C3.39105 16.88 3.43105 17.11 3.47105 17.35C3.51106 17.57 3.55105 17.79 3.59105 18.01C3.63105 18.27 3.67105 18.53 3.71105 18.79C3.77106 19.03 3.80106 19.28 3.80106 19.54C3.80106 19.62 3.81106 19.68 3.83105 19.72C3.87105 19.88 3.89105 20.05 3.89105 20.23C3.89105 20.39 3.90105 20.55 3.92105 20.71C3.92105 20.93 3.87106 21.1 3.77106 21.22C3.73106 21.3 3.71105 21.35 3.71105 21.37C3.53105 21.75 3.21105 21.97 2.75105 22.03C2.69105 22.05 2.63106 22.06 2.57105 22.06C2.51105 22.06 2.45105 22.06 2.39105 22.06C2.17105 22.1 2.01105 22.06 1.91105 21.94C1.87105 21.9 1.83105 21.88 1.79105 21.88C1.69105 21.9 1.59105 21.84 1.49105 21.7C1.43105 21.6 1.34105 21.51 1.22105 21.43C1.16105 21.37 1.11105 21.27 1.07105 21.13C1.05105 21.09 1.03105 21.05 1.01105 21.01C1.01105 20.97 1.01105 20.93 1.01105 20.89C0.991055 20.61 0.961055 20.34 0.921055 20.08C0.881055 19.8 0.851055 19.53 0.831055 19.27L0.801055 18.97C0.781055 18.89 0.771055 18.82 0.771055 18.76C0.771055 18.7 0.761055 18.63 0.741055 18.55V18.37C0.681055 18.09 0.651055 17.81 0.651055 17.53C0.651055 17.23 0.661055 16.94 0.681055 16.66C0.701055 16.48 0.711055 16.3 0.711055 16.12C0.711055 15.92 0.721055 15.73 0.741055 15.55V14.86C0.741055 14.76 0.741055 14.66 0.741055 14.56C0.741055 14.44 0.731055 14.33 0.711055 14.23C0.691055 14.11 0.681055 13.99 0.681055 13.87C0.681055 13.75 0.681055 13.63 0.681055 13.51V12.13C0.661055 11.97 0.651055 11.81 0.651055 11.65C0.651055 11.47 0.651055 11.3 0.651055 11.14C0.651055 11.08 0.651055 11.02 0.651055 10.96C0.651055 10.88 0.641055 10.81 0.621055 10.75C0.621055 10.65 0.611055 10.56 0.591055 10.48C0.591055 10.38 0.581055 10.29 0.561055 10.21V10C0.521055 9.82 0.501055 9.65 0.501055 9.49C0.501055 9.31 0.501055 9.13 0.501055 8.95C0.501055 8.79 0.501055 8.63 0.501055 8.47C0.501055 8.29 0.481055 8.13 0.441055 7.99C0.421055 7.93 0.411055 7.87 0.411055 7.81C0.411055 7.75 0.411055 7.69 0.411055 7.63C0.411055 7.49 0.411055 7.36 0.411055 7.24C0.411055 7.1 0.391055 6.96 0.351055 6.82C0.331055 6.78 0.321055 6.71 0.321055 6.61V5.11C0.321055 5.01 0.321055 4.92 0.321055 4.84C0.321055 4.74 0.301055 4.65 0.261055 4.57C0.201055 4.37 0.211055 4.14 0.291055 3.88C0.331055 3.78 0.371055 3.71 0.411055 3.67C0.451055 3.61 0.491055 3.55 0.531055 3.49C0.571055 3.43 0.601055 3.37 0.621055 3.31C0.661055 3.25 0.691055 3.22 0.711055 3.22C0.791055 3.2 0.851055 3.17 0.891055 3.13C0.951055 3.09 1.00105 3.05 1.04105 3.01L1.22105 2.92C1.26105 2.9 1.32105 2.89 1.40105 2.89C1.50105 2.91 1.60105 2.93 1.70105 2.95C1.82105 2.95 1.93105 2.96 2.03105 2.98C2.15105 2.98 2.24105 3.03 2.30105 3.13C2.40106 3.27 2.50106 3.41 2.60105 3.55C2.70105 3.69 2.78105 3.84 2.84106 4C2.90105 4.14 2.98105 4.26 3.08106 4.36C3.20105 4.52 3.32105 4.68 3.44105 4.84C3.56105 5 3.69105 5.16 3.83105 5.32C3.89105 5.38 3.94105 5.45 3.98106 5.53C4.04105 5.61 4.09105 5.69 4.13105 5.77C4.23105 5.91 4.32105 6.05 4.40106 6.19C4.50105 6.31 4.60105 6.44 4.70106 6.58L5.15106 7.3C5.19105 7.38 5.23105 7.46 5.27106 7.54C5.31105 7.6 5.35105 7.66 5.39105 7.72C5.43105 7.82 5.49106 7.83 5.57106 7.75C5.65106 7.65 5.73106 7.55 5.81105 7.45C5.91106 7.33 6.00106 7.22 6.08105 7.12C6.26105 6.9 6.44105 6.67 6.62106 6.43C6.80106 6.19 6.99106 5.96 7.19105 5.74L7.37106 5.47C7.51106 5.27 7.64106 5.08 7.76106 4.9C7.90106 4.7 8.03106 4.5 8.15106 4.3C8.29106 4.08 8.41105 3.86 8.51105 3.64C8.63106 3.42 8.73106 3.2 8.81106 2.98L9.17106 2.17C9.29105 1.93 9.46105 1.73 9.68106 1.57C9.98106 1.33 10.3111 1.24 10.6711 1.3C10.8111 1.32 10.9411 1.36 11.0611 1.42C11.1811 1.46 11.3011 1.5 11.4211 1.54C11.5411 1.58 11.6211 1.67 11.6611 1.81C11.7011 1.87 11.7311 1.93 11.7511 1.99C11.7711 2.05 11.7811 2.11 11.7811 2.17C11.8011 2.31 11.8311 2.44 11.8711 2.56C11.9111 2.66 11.9411 2.78 11.9611 2.92L11.9911 3.22C12.0311 3.4 12.0711 3.58 12.1111 3.76C12.1711 3.94 12.2211 4.12 12.2611 4.3V4.36C12.2811 4.56 12.3011 4.76 12.3211 4.96C12.3611 5.14 12.3711 5.33 12.3511 5.53V6.22C12.3511 6.32 12.3511 6.42 12.3511 6.52C12.3511 6.62 12.3411 6.72 12.3211 6.82C12.3011 6.96 12.2911 7.1 12.2911 7.24C12.2911 7.36 12.2911 7.49 12.2911 7.63C12.2711 7.71 12.2611 7.79 12.2611 7.87C12.2611 7.95 12.2511 8.03 12.2311 8.11C12.2111 8.19 12.2011 8.27 12.2011 8.35C12.2011 8.41 12.2011 8.49 12.2011 8.59V9.43C12.2011 9.57 12.1911 9.7 12.1711 9.82C12.1711 9.94 12.1611 10.07 12.1411 10.21C12.1211 10.29 12.1111 10.37 12.1111 10.45C12.1111 10.51 12.1111 10.58 12.1111 10.66V12.49C12.1111 12.63 12.1111 12.77 12.1111 12.91C12.1311 13.05 12.1511 13.19 12.1711 13.33C12.1911 13.43 12.2011 13.54 12.2011 13.66C12.2011 13.76 12.2011 13.86 12.2011 13.96C12.2211 14.1 12.2311 14.24 12.2311 14.38C12.2311 14.5 12.2411 14.64 12.2611 14.8V15.13C12.2811 15.29 12.2911 15.46 12.2911 15.64C12.2911 15.8 12.2911 15.96 12.2911 16.12V16.51C12.3311 16.65 12.3511 16.8 12.3511 16.96C12.3511 17.12 12.3611 17.28 12.3811 17.44V17.65C12.4211 17.77 12.4411 17.89 12.4411 18.01C12.4411 18.13 12.4511 18.25 12.4711 18.37L12.5611 19.45C12.5811 19.53 12.5911 19.61 12.5911 19.69C12.6111 19.75 12.6211 19.82 12.6211 19.9C12.6411 19.98 12.6511 20.06 12.6511 20.14C12.6511 20.2 12.6611 20.27 12.6811 20.35C12.6811 20.37 12.6811 20.4 12.6811 20.44C12.7011 20.48 12.7111 20.52 12.7111 20.56C12.7111 20.7 12.7211 20.85 12.7411 21.01C12.7811 21.17 12.8111 21.33 12.8311 21.49L12.9511 22.33C12.9511 22.45 12.9411 22.53 12.9211 22.57C12.9011 22.69 12.8511 22.8 12.7711 22.9C12.7111 23.02 12.6611 23.13 12.6211 23.23C12.6211 23.25 12.6111 23.26 12.5911 23.26C12.4511 23.38 12.3111 23.48 12.1711 23.56C12.0311 23.66 11.8811 23.73 11.7211 23.77ZM19.8316 22.6C19.4516 22.64 19.1416 22.52 18.9016 22.24C18.7816 22.12 18.6716 21.99 18.5716 21.85C18.4716 21.71 18.3916 21.56 18.3316 21.4C18.2316 21.12 18.1416 20.84 18.0616 20.56C17.9816 20.26 17.9116 19.97 17.8516 19.69C17.7916 19.47 17.7616 19.26 17.7616 19.06C17.7416 18.84 17.7116 18.63 17.6716 18.43C17.6516 18.21 17.6416 17.99 17.6416 17.77C17.6416 17.65 17.6416 17.53 17.6416 17.41C17.6416 17.27 17.6316 17.14 17.6116 17.02C17.5916 16.94 17.5816 16.87 17.5816 16.81C17.5816 16.75 17.5816 16.68 17.5816 16.6C17.5816 16.32 17.5816 16.04 17.5816 15.76C17.5816 15.46 17.5716 15.17 17.5516 14.89C17.5516 14.73 17.5416 14.59 17.5216 14.47C17.5016 14.33 17.4616 14.19 17.4016 14.05C17.3216 13.83 17.3116 13.59 17.3716 13.33C17.3716 13.27 17.3816 13.23 17.4016 13.21C17.4416 13.07 17.4616 12.93 17.4616 12.79C17.4816 12.65 17.4816 12.51 17.4616 12.37C17.4416 12.27 17.4316 12.17 17.4316 12.07C17.4316 11.97 17.4316 11.88 17.4316 11.8C17.4116 11.58 17.4016 11.36 17.4016 11.14C17.4216 10.9 17.4416 10.67 17.4616 10.45C17.4816 10.39 17.4916 10.33 17.4916 10.27C17.4916 10.21 17.4916 10.15 17.4916 10.09C17.4716 9.87 17.4716 9.66 17.4916 9.46C17.5316 9.26 17.5616 9.06 17.5816 8.86C17.6216 8.62 17.6616 8.39 17.7016 8.17C17.7416 7.93 17.7916 7.69 17.8516 7.45C17.8916 7.35 17.9116 7.24 17.9116 7.12C17.9116 7 17.9116 6.88 17.9116 6.76C17.9116 6.66 17.9016 6.56 17.8816 6.46C17.8816 6.36 17.8816 6.27 17.8816 6.19C17.8816 6.13 17.8816 6.07 17.8816 6.01C17.8816 5.95 17.8916 5.89 17.9116 5.83C17.9316 5.77 17.9416 5.71 17.9416 5.65C17.9416 5.59 17.9516 5.55 17.9716 5.53C18.0316 5.45 18.0816 5.38 18.1216 5.32C18.1616 5.24 18.2216 5.17 18.3016 5.11C18.4016 5.05 18.4916 4.99 18.5716 4.93C18.6716 4.87 18.7616 4.82 18.8416 4.78C18.9416 4.74 19.0216 4.69 19.0816 4.63C19.1616 4.53 19.2416 4.44 19.3216 4.36C19.4216 4.26 19.5016 4.15 19.5616 4.03C19.6616 3.93 19.7616 3.82 19.8616 3.7C19.9816 3.56 20.1116 3.45 20.2516 3.37C20.2916 3.35 20.3516 3.3 20.4316 3.22C20.6716 3 20.9516 2.86 21.2716 2.8C21.3316 2.78 21.3816 2.77 21.4216 2.77C21.4816 2.75 21.5416 2.74 21.6016 2.74L21.8116 2.65C21.9716 2.59 22.1116 2.62 22.2316 2.74C22.2716 2.8 22.3216 2.86 22.3816 2.92C22.4616 2.96 22.5316 3 22.5916 3.04C22.7516 3.18 22.9016 3.33 23.0416 3.49C23.2016 3.65 23.3416 3.83 23.4616 4.03C23.6616 4.35 23.8316 4.67 23.9716 4.99C24.1316 5.31 24.2816 5.64 24.4216 5.98L24.9616 7.27C24.9816 7.39 25.0316 7.5 25.1116 7.6C25.2716 7.9 25.3916 8.21 25.4716 8.53C25.5516 8.83 25.6316 9.14 25.7116 9.46C25.7316 9.5 25.7416 9.54 25.7416 9.58C25.7616 9.62 25.7716 9.66 25.7716 9.7C25.8116 9.86 25.8416 10.03 25.8616 10.21C25.9016 10.37 25.9116 10.53 25.8916 10.69C25.9116 10.87 25.9016 11.05 25.8616 11.23C25.8416 11.39 25.8116 11.55 25.7716 11.71C25.7116 11.91 25.6416 12.1 25.5616 12.28C25.4816 12.44 25.3916 12.61 25.2916 12.79C25.2516 12.91 25.1816 13.02 25.0816 13.12C24.9816 13.22 24.8816 13.31 24.7816 13.39C24.6216 13.47 24.4616 13.59 24.3016 13.75C24.2616 13.79 24.2116 13.82 24.1516 13.84C24.1116 13.86 24.0716 13.89 24.0316 13.93C23.8916 13.99 23.7416 14.06 23.5816 14.14C23.4216 14.2 23.2616 14.26 23.1016 14.32C23.0816 14.32 23.0716 14.34 23.0716 14.38C23.0716 14.4 23.0816 14.42 23.1016 14.44L23.9116 15.01C24.0116 15.07 24.1016 15.13 24.1816 15.19C24.2616 15.23 24.3416 15.28 24.4216 15.34L24.6016 15.43C24.8416 15.57 25.0816 15.72 25.3216 15.88C25.5616 16.04 25.7916 16.2 26.0116 16.36C26.4316 16.62 26.8516 16.89 27.2716 17.17C27.6916 17.43 28.0916 17.72 28.4716 18.04C28.8116 18.3 29.1116 18.6 29.3716 18.94C29.4316 19 29.4916 19.07 29.5516 19.15C29.6116 19.21 29.6816 19.26 29.7616 19.3L29.8516 19.39C30.1716 19.67 30.3516 20.05 30.3916 20.53C30.3916 20.59 30.3816 20.65 30.3616 20.71C30.3616 20.77 30.3616 20.83 30.3616 20.89C30.3616 21.01 30.3216 21.11 30.2416 21.19C30.1616 21.23 30.1216 21.28 30.1216 21.34C30.0616 21.48 29.9716 21.58 29.8516 21.64C29.7516 21.68 29.6516 21.74 29.5516 21.82C29.5116 21.84 29.4416 21.85 29.3416 21.85C29.2216 21.83 29.0916 21.81 28.9516 21.79C28.8316 21.77 28.7116 21.76 28.5916 21.76C28.4316 21.76 28.2616 21.69 28.0816 21.55C27.9616 21.45 27.8516 21.36 27.7516 21.28C27.6516 21.18 27.5516 21.06 27.4516 20.92C27.1916 20.56 26.8516 20.23 26.4316 19.93C26.2316 19.77 26.0416 19.62 25.8616 19.48C25.6816 19.34 25.4816 19.21 25.2616 19.09C25.1216 19.01 24.9816 18.93 24.8416 18.85C24.7216 18.75 24.5816 18.66 24.4216 18.58C23.9216 18.24 23.4116 17.91 22.8916 17.59C22.3716 17.25 21.8516 16.91 21.3316 16.57C21.2516 16.51 21.1616 16.45 21.0616 16.39C20.9616 16.33 20.8616 16.27 20.7616 16.21C20.7216 16.17 20.6616 16.13 20.5816 16.09C20.5016 16.09 20.4616 16.12 20.4616 16.18C20.4616 16.2 20.4516 16.22 20.4316 16.24C20.4316 16.24 20.4316 16.25 20.4316 16.27C20.4316 16.33 20.4316 16.39 20.4316 16.45C20.4316 16.51 20.4416 16.57 20.4616 16.63C20.4816 16.79 20.4916 16.95 20.4916 17.11C20.4916 17.25 20.4916 17.4 20.4916 17.56C20.4916 17.68 20.4916 17.8 20.4916 17.92C20.5116 18.02 20.5316 18.13 20.5516 18.25C20.5516 18.31 20.5516 18.38 20.5516 18.46C20.5716 18.52 20.5816 18.58 20.5816 18.64C20.5616 18.82 20.5716 19 20.6116 19.18C20.6516 19.36 20.6816 19.54 20.7016 19.72L20.8816 20.5C20.9016 20.58 20.9216 20.67 20.9416 20.77C20.9616 20.85 20.9816 20.94 21.0016 21.04C21.0216 21.12 21.0216 21.2 21.0016 21.28C21.0016 21.34 20.9916 21.41 20.9716 21.49C20.9716 21.51 20.9516 21.54 20.9116 21.58C20.8116 21.6 20.7416 21.67 20.7016 21.79C20.6416 21.93 20.5516 22.05 20.4316 22.15C20.3316 22.27 20.2216 22.38 20.1016 22.48C20.0816 22.5 20.0416 22.52 19.9816 22.54C19.9216 22.56 19.8716 22.58 19.8316 22.6ZM21.0016 12.1H21.0616C21.2816 12.06 21.5016 12.02 21.7216 11.98C21.9616 11.92 22.1916 11.85 22.4116 11.77C22.6316 11.71 22.8216 11.6 22.9816 11.44C23.1216 11.3 23.1916 11.14 23.1916 10.96C23.2116 10.82 23.2116 10.69 23.1916 10.57C23.1916 10.43 23.1716 10.29 23.1316 10.15C23.0516 9.79 22.9616 9.44 22.8616 9.1C22.7616 8.74 22.6416 8.4 22.5016 8.08L22.2316 7.36C22.1716 7.16 22.1016 6.97 22.0216 6.79C21.9416 6.59 21.8516 6.4 21.7516 6.22C21.7316 6.18 21.7116 6.14 21.6916 6.1C21.6716 6.04 21.6516 5.99 21.6316 5.95L21.5116 5.83C21.4516 5.75 21.3816 5.75 21.3016 5.83C21.2816 5.83 21.2516 5.85 21.2116 5.89C21.0716 6.07 20.9416 6.26 20.8216 6.46C20.7216 6.66 20.6616 6.88 20.6416 7.12C20.6216 7.2 20.6016 7.28 20.5816 7.36C20.5816 7.44 20.5816 7.53 20.5816 7.63V8.92C20.5616 9.2 20.5516 9.49 20.5516 9.79C20.5716 10.09 20.5616 10.38 20.5216 10.66C20.5016 10.72 20.4916 10.78 20.4916 10.84C20.5116 10.9 20.5216 10.96 20.5216 11.02C20.5416 11.14 20.5516 11.26 20.5516 11.38C20.5516 11.48 20.5516 11.59 20.5516 11.71C20.5516 11.91 20.5716 12.03 20.6116 12.07C20.6716 12.11 20.8016 12.12 21.0016 12.1ZM34.2726 19.9C34.1726 19.9 34.0926 19.87 34.0326 19.81L33.4926 19.51C33.4726 19.49 33.4526 19.48 33.4326 19.48C33.4326 19.46 33.4226 19.44 33.4026 19.42C33.3626 19.38 33.3026 19.29 33.2226 19.15C33.1626 18.99 33.1326 18.89 33.1326 18.85V18.43C33.1326 18.33 33.1726 18.24 33.2526 18.16C33.3526 18.08 33.4226 17.97 33.4626 17.83C33.5226 17.65 33.6226 17.5 33.7626 17.38C33.9026 17.26 34.0526 17.17 34.2126 17.11C34.2926 17.07 34.3626 17.04 34.4226 17.02C34.5026 17 34.5726 16.97 34.6326 16.93C34.7526 16.87 34.8526 16.88 34.9326 16.96V16.93C35.0326 16.97 35.1326 17.01 35.2326 17.05C35.3326 17.07 35.4226 17.1 35.5026 17.14C35.5826 17.16 35.6426 17.21 35.6826 17.29C35.8226 17.45 35.9326 17.62 36.0126 17.8C36.1126 18.02 36.1526 18.22 36.1326 18.4L36.0426 18.94C36.0226 19 36.0026 19.06 35.9826 19.12C35.9626 19.18 35.9226 19.23 35.8626 19.27L35.7426 19.39C35.5626 19.61 35.2826 19.75 34.9026 19.81C34.8226 19.83 34.7426 19.84 34.6626 19.84C34.6026 19.84 34.5326 19.86 34.4526 19.9C34.4126 19.94 34.3526 19.94 34.2726 19.9ZM52.185 22.3C52.025 22.28 51.865 22.24 51.705 22.18C51.545 22.14 51.405 22.07 51.285 21.97C51.265 21.93 51.235 21.9 51.195 21.88C51.155 21.84 51.125 21.81 51.105 21.79C51.025 21.67 50.955 21.54 50.895 21.4C50.835 21.26 50.795 21.12 50.775 20.98C50.755 20.68 50.785 20.38 50.865 20.08C50.965 19.76 51.035 19.44 51.075 19.12C51.115 18.78 51.135 18.44 51.135 18.1C51.155 17.7 51.165 17.3 51.165 16.9C51.165 16.5 51.165 16.11 51.165 15.73C51.165 15.63 51.155 15.53 51.135 15.43C51.135 15.31 51.125 15.2 51.105 15.1C51.085 15 51.075 14.89 51.075 14.77C51.075 14.65 51.075 14.54 51.075 14.44C51.075 14.34 51.065 14.24 51.045 14.14C51.045 14.02 51.035 13.91 51.015 13.81C50.995 13.73 50.985 13.65 50.985 13.57C51.005 13.49 51.005 13.41 50.985 13.33C50.985 13.19 50.985 13.05 50.985 12.91C50.985 12.77 50.975 12.63 50.955 12.49C50.935 12.47 50.925 12.43 50.925 12.37V10.75C50.905 10.65 50.895 10.56 50.895 10.48C50.895 10.38 50.895 10.28 50.895 10.18C50.915 10.12 50.925 10.03 50.925 9.91V9.55C50.925 9.43 50.915 9.32 50.895 9.22C50.895 9.1 50.905 8.98 50.925 8.86V8.71C50.905 8.55 50.895 8.4 50.895 8.26C50.915 8.1 50.935 7.95 50.955 7.81C50.975 7.73 50.985 7.6 50.985 7.42C50.945 7.3 50.925 7.21 50.925 7.15C50.905 7.05 50.885 6.96 50.865 6.88C50.865 6.78 50.875 6.69 50.895 6.61C50.915 6.43 50.875 6.24 50.775 6.04C50.715 5.96 50.665 5.88 50.625 5.8C50.605 5.7 50.575 5.61 50.535 5.53V5.44C50.575 5.4 50.615 5.4 50.655 5.44C50.715 5.46 50.745 5.45 50.745 5.41C50.765 5.37 50.775 5.33 50.775 5.29C50.775 5.23 50.785 5.19 50.805 5.17C50.825 5.11 50.815 5.03 50.775 4.93C50.755 4.87 50.785 4.83 50.865 4.81C50.905 4.73 50.975 4.68 51.075 4.66C51.175 4.62 51.235 4.59 51.255 4.57C51.315 4.49 51.385 4.45 51.465 4.45C51.545 4.45 51.625 4.45 51.705 4.45C51.765 4.45 51.855 4.43 51.975 4.39C52.055 4.37 52.135 4.37 52.215 4.39C52.255 4.41 52.295 4.44 52.335 4.48C52.375 4.5 52.415 4.52 52.455 4.54C52.655 4.62 52.825 4.78 52.965 5.02C53.005 5.12 53.045 5.22 53.085 5.32C53.125 5.42 53.135 5.53 53.115 5.65C53.115 5.71 53.155 5.74 53.235 5.74H53.475C53.575 5.7 53.675 5.68 53.775 5.68C53.895 5.68 53.995 5.68 54.075 5.68H54.855C55.075 5.66 55.295 5.67 55.515 5.71C55.755 5.73 55.985 5.76 56.205 5.8C56.865 5.88 57.495 6.03 58.095 6.25C58.755 6.45 59.375 6.78 59.955 7.24C60.175 7.4 60.415 7.63 60.675 7.93C60.755 8.01 60.825 8.1 60.885 8.2C60.965 8.28 61.035 8.37 61.095 8.47C61.315 8.81 61.425 9.16 61.425 9.52C61.465 9.76 61.465 9.99 61.425 10.21C61.425 10.39 61.385 10.55 61.305 10.69C61.305 10.69 61.295 10.7 61.275 10.72C61.275 10.72 61.275 10.73 61.275 10.75C61.235 10.81 61.205 10.88 61.185 10.96C61.185 11.04 61.155 11.1 61.095 11.14L60.825 11.47C60.725 11.59 60.615 11.72 60.495 11.86C60.395 11.98 60.275 12.09 60.135 12.19L59.835 12.4C59.775 12.42 59.715 12.45 59.655 12.49C59.595 12.53 59.545 12.58 59.505 12.64C59.445 12.7 59.375 12.75 59.295 12.79C59.215 12.85 59.125 12.91 59.025 12.97C58.945 13.01 58.855 13.05 58.755 13.09C58.655 13.13 58.655 13.18 58.755 13.24L58.965 13.33C59.065 13.39 59.175 13.45 59.295 13.51C59.415 13.55 59.525 13.6 59.625 13.66C59.785 13.74 59.945 13.84 60.105 13.96C60.285 14.06 60.445 14.16 60.585 14.26L60.945 14.59C61.045 14.69 61.135 14.8 61.215 14.92C61.315 15.02 61.405 15.13 61.485 15.25C61.645 15.45 61.775 15.67 61.875 15.91C61.995 16.15 62.075 16.4 62.115 16.66C62.155 16.8 62.175 16.95 62.175 17.11C62.175 17.25 62.155 17.4 62.115 17.56C62.075 17.72 62.085 17.87 62.145 18.01C62.165 18.07 62.155 18.17 62.115 18.31L62.025 18.7C61.985 18.82 61.935 18.93 61.875 19.03C61.835 19.13 61.765 19.23 61.665 19.33L61.305 19.81C61.185 19.95 61.055 20.09 60.915 20.23C60.795 20.37 60.655 20.49 60.495 20.59L60.225 20.77C60.185 20.77 60.125 20.79 60.045 20.83C59.165 21.29 58.255 21.53 57.315 21.55C57.215 21.55 57.135 21.56 57.075 21.58C56.895 21.6 56.705 21.62 56.505 21.64C56.325 21.64 56.135 21.64 55.935 21.64C55.775 21.64 55.605 21.66 55.425 21.7C55.265 21.72 55.105 21.73 54.945 21.73C54.865 21.75 54.785 21.77 54.705 21.79C54.625 21.79 54.545 21.79 54.465 21.79C54.365 21.81 54.255 21.83 54.135 21.85C54.035 21.87 53.935 21.9 53.835 21.94C53.775 21.96 53.715 21.98 53.655 22C53.615 22.02 53.565 22.05 53.505 22.09C53.305 22.23 53.075 22.3 52.815 22.3H52.185ZM53.505 12.31C53.585 12.31 53.655 12.3 53.715 12.28C53.795 12.26 53.865 12.24 53.925 12.22C54.185 12.12 54.435 12.03 54.675 11.95C54.915 11.85 55.165 11.76 55.425 11.68C55.725 11.58 56.025 11.47 56.325 11.35C56.625 11.21 56.925 11.08 57.225 10.96C57.465 10.86 57.695 10.73 57.915 10.57C58.155 10.41 58.375 10.25 58.575 10.09C58.615 10.07 58.645 10.05 58.665 10.03C58.685 9.99 58.705 9.96 58.725 9.94C58.765 9.88 58.765 9.82 58.725 9.76L58.635 9.61C58.555 9.55 58.485 9.49 58.425 9.43C58.365 9.37 58.285 9.31 58.185 9.25C58.105 9.21 58.025 9.16 57.945 9.1C57.865 9.04 57.775 8.99 57.675 8.95L57.405 8.77C57.105 8.65 56.805 8.55 56.505 8.47C56.205 8.39 55.895 8.35 55.575 8.35H54.555C54.395 8.35 54.235 8.36 54.075 8.38C53.915 8.4 53.755 8.43 53.595 8.47C53.535 8.47 53.445 8.49 53.325 8.53C53.205 8.55 53.145 8.62 53.145 8.74V9.43C53.185 9.63 53.185 9.84 53.145 10.06V10.33C53.185 10.45 53.205 10.58 53.205 10.72C53.205 10.84 53.205 10.97 53.205 11.11C53.225 11.47 53.285 11.85 53.385 12.25C53.385 12.29 53.425 12.31 53.505 12.31ZM53.745 19.24H53.865C54.005 19.22 54.145 19.21 54.285 19.21C54.425 19.19 54.565 19.17 54.705 19.15C54.945 19.11 55.185 19.07 55.425 19.03C55.685 18.99 55.935 18.96 56.175 18.94C56.635 18.9 57.085 18.84 57.525 18.76C57.705 18.72 57.875 18.68 58.035 18.64C58.215 18.6 58.385 18.56 58.545 18.52C58.645 18.48 58.735 18.44 58.815 18.4C58.915 18.34 59.005 18.29 59.085 18.25C59.365 18.05 59.525 17.75 59.565 17.35C59.585 16.97 59.445 16.66 59.145 16.42C59.105 16.38 59.025 16.32 58.905 16.24C58.585 16.02 58.245 15.84 57.885 15.7C57.525 15.56 57.155 15.45 56.775 15.37C56.595 15.33 56.415 15.3 56.235 15.28C56.075 15.24 55.905 15.23 55.725 15.25C55.645 15.25 55.555 15.26 55.455 15.28C55.375 15.28 55.295 15.28 55.215 15.28C55.135 15.28 55.055 15.29 54.975 15.31C54.895 15.31 54.805 15.31 54.705 15.31C54.605 15.31 54.495 15.31 54.375 15.31C54.275 15.31 54.175 15.32 54.075 15.34H53.805C53.705 15.38 53.655 15.44 53.655 15.52C53.675 15.68 53.685 15.85 53.685 16.03C53.685 16.21 53.685 16.38 53.685 16.54C53.685 16.58 53.685 16.62 53.685 16.66C53.705 16.7 53.715 16.74 53.715 16.78V17.41C53.695 17.53 53.685 17.65 53.685 17.77C53.685 17.89 53.685 18 53.685 18.1C53.685 18.24 53.685 18.38 53.685 18.52C53.705 18.64 53.695 18.77 53.655 18.91C53.635 18.95 53.625 19.02 53.625 19.12C53.625 19.16 53.665 19.2 53.745 19.24ZM67.2632 22.6C66.8832 22.64 66.5732 22.52 66.3332 22.24C66.2132 22.12 66.1032 21.99 66.0032 21.85C65.9032 21.71 65.8232 21.56 65.7632 21.4C65.6632 21.12 65.5732 20.84 65.4932 20.56C65.4132 20.26 65.3432 19.97 65.2832 19.69C65.2232 19.47 65.1932 19.26 65.1932 19.06C65.1732 18.84 65.1432 18.63 65.1032 18.43C65.0832 18.21 65.0732 17.99 65.0732 17.77C65.0732 17.65 65.0732 17.53 65.0732 17.41C65.0732 17.27 65.0632 17.14 65.0432 17.02C65.0232 16.94 65.0132 16.87 65.0132 16.81C65.0132 16.75 65.0132 16.68 65.0132 16.6C65.0132 16.32 65.0132 16.04 65.0132 15.76C65.0132 15.46 65.0032 15.17 64.9832 14.89C64.9832 14.73 64.9732 14.59 64.9532 14.47C64.9332 14.33 64.8932 14.19 64.8332 14.05C64.7532 13.83 64.7432 13.59 64.8032 13.33C64.8032 13.27 64.8132 13.23 64.8332 13.21C64.8732 13.07 64.8932 12.93 64.8932 12.79C64.9132 12.65 64.9132 12.51 64.8932 12.37C64.8732 12.27 64.8632 12.17 64.8632 12.07C64.8632 11.97 64.8632 11.88 64.8632 11.8C64.8432 11.58 64.8332 11.36 64.8332 11.14C64.8532 10.9 64.8732 10.67 64.8932 10.45C64.9132 10.39 64.9232 10.33 64.9232 10.27C64.9232 10.21 64.9232 10.15 64.9232 10.09C64.9032 9.87 64.9032 9.66 64.9232 9.46C64.9632 9.26 64.9932 9.06 65.0132 8.86C65.0532 8.62 65.0932 8.39 65.1332 8.17C65.1732 7.93 65.2232 7.69 65.2832 7.45C65.3232 7.35 65.3432 7.24 65.3432 7.12C65.3432 7 65.3432 6.88 65.3432 6.76C65.3432 6.66 65.3332 6.56 65.3132 6.46C65.3132 6.36 65.3132 6.27 65.3132 6.19C65.3132 6.13 65.3132 6.07 65.3132 6.01C65.3132 5.95 65.3232 5.89 65.3432 5.83C65.3632 5.77 65.3732 5.71 65.3732 5.65C65.3732 5.59 65.3832 5.55 65.4032 5.53C65.4632 5.45 65.5132 5.38 65.5532 5.32C65.5932 5.24 65.6532 5.17 65.7332 5.11C65.8332 5.05 65.9232 4.99 66.0032 4.93C66.1032 4.87 66.1932 4.82 66.2732 4.78C66.3732 4.74 66.4532 4.69 66.5132 4.63C66.5932 4.53 66.6732 4.44 66.7532 4.36C66.8532 4.26 66.9332 4.15 66.9932 4.03C67.0932 3.93 67.1932 3.82 67.2932 3.7C67.4132 3.56 67.5432 3.45 67.6832 3.37C67.7232 3.35 67.7832 3.3 67.8632 3.22C68.1032 3 68.3832 2.86 68.7032 2.8C68.7632 2.78 68.8132 2.77 68.8532 2.77C68.9132 2.75 68.9732 2.74 69.0332 2.74L69.2432 2.65C69.4032 2.59 69.5432 2.62 69.6632 2.74C69.7032 2.8 69.7532 2.86 69.8132 2.92C69.8932 2.96 69.9632 3 70.0232 3.04C70.1832 3.18 70.3332 3.33 70.4732 3.49C70.6332 3.65 70.7732 3.83 70.8932 4.03C71.0932 4.35 71.2632 4.67 71.4032 4.99C71.5632 5.31 71.7132 5.64 71.8532 5.98L72.3932 7.27C72.4132 7.39 72.4632 7.5 72.5432 7.6C72.7032 7.9 72.8232 8.21 72.9032 8.53C72.9832 8.83 73.0632 9.14 73.1432 9.46C73.1632 9.5 73.1732 9.54 73.1732 9.58C73.1932 9.62 73.2032 9.66 73.2032 9.7C73.2432 9.86 73.2732 10.03 73.2932 10.21C73.3332 10.37 73.3432 10.53 73.3232 10.69C73.3432 10.87 73.3332 11.05 73.2932 11.23C73.2732 11.39 73.2432 11.55 73.2032 11.71C73.1432 11.91 73.0732 12.1 72.9932 12.28C72.9132 12.44 72.8232 12.61 72.7232 12.79C72.6832 12.91 72.6132 13.02 72.5132 13.12C72.4132 13.22 72.3132 13.31 72.2132 13.39C72.0532 13.47 71.8932 13.59 71.7332 13.75C71.6932 13.79 71.6432 13.82 71.5832 13.84C71.5432 13.86 71.5032 13.89 71.4632 13.93C71.3232 13.99 71.1732 14.06 71.0132 14.14C70.8532 14.2 70.6932 14.26 70.5332 14.32C70.5132 14.32 70.5032 14.34 70.5032 14.38C70.5032 14.4 70.5132 14.42 70.5332 14.44L71.3432 15.01C71.4432 15.07 71.5332 15.13 71.6132 15.19C71.6932 15.23 71.7732 15.28 71.8532 15.34L72.0332 15.43C72.2732 15.57 72.5132 15.72 72.7532 15.88C72.9932 16.04 73.2232 16.2 73.4432 16.36C73.8632 16.62 74.2832 16.89 74.7032 17.17C75.1232 17.43 75.5232 17.72 75.9032 18.04C76.2432 18.3 76.5432 18.6 76.8032 18.94C76.8632 19 76.9232 19.07 76.9832 19.15C77.0432 19.21 77.1132 19.26 77.1932 19.3L77.2832 19.39C77.6032 19.67 77.7832 20.05 77.8232 20.53C77.8232 20.59 77.8132 20.65 77.7932 20.71C77.7932 20.77 77.7932 20.83 77.7932 20.89C77.7932 21.01 77.7532 21.11 77.6732 21.19C77.5932 21.23 77.5532 21.28 77.5532 21.34C77.4932 21.48 77.4032 21.58 77.2832 21.64C77.1832 21.68 77.0832 21.74 76.9832 21.82C76.9432 21.84 76.8732 21.85 76.7732 21.85C76.6532 21.83 76.5232 21.81 76.3832 21.79C76.2632 21.77 76.1432 21.76 76.0232 21.76C75.8632 21.76 75.6932 21.69 75.5132 21.55C75.3932 21.45 75.2832 21.36 75.1832 21.28C75.0832 21.18 74.9832 21.06 74.8832 20.92C74.6232 20.56 74.2832 20.23 73.8632 19.93C73.6632 19.77 73.4732 19.62 73.2932 19.48C73.1132 19.34 72.9132 19.21 72.6932 19.09C72.5532 19.01 72.4132 18.93 72.2732 18.85C72.1532 18.75 72.0132 18.66 71.8532 18.58C71.3532 18.24 70.8432 17.91 70.3232 17.59C69.8032 17.25 69.2832 16.91 68.7632 16.57C68.6832 16.51 68.5932 16.45 68.4932 16.39C68.3932 16.33 68.2932 16.27 68.1932 16.21C68.1532 16.17 68.0932 16.13 68.0132 16.09C67.9332 16.09 67.8932 16.12 67.8932 16.18C67.8932 16.2 67.8832 16.22 67.8632 16.24C67.8632 16.24 67.8632 16.25 67.8632 16.27C67.8632 16.33 67.8632 16.39 67.8632 16.45C67.8632 16.51 67.8732 16.57 67.8932 16.63C67.9132 16.79 67.9232 16.95 67.9232 17.11C67.9232 17.25 67.9232 17.4 67.9232 17.56C67.9232 17.68 67.9232 17.8 67.9232 17.92C67.9432 18.02 67.9632 18.13 67.9832 18.25C67.9832 18.31 67.9832 18.38 67.9832 18.46C68.0032 18.52 68.0132 18.58 68.0132 18.64C67.9932 18.82 68.0032 19 68.0432 19.18C68.0832 19.36 68.1132 19.54 68.1332 19.72L68.3132 20.5C68.3332 20.58 68.3532 20.67 68.3732 20.77C68.3932 20.85 68.4132 20.94 68.4332 21.04C68.4532 21.12 68.4532 21.2 68.4332 21.28C68.4332 21.34 68.4232 21.41 68.4032 21.49C68.4032 21.51 68.3832 21.54 68.3432 21.58C68.2432 21.6 68.1732 21.67 68.1332 21.79C68.0732 21.93 67.9832 22.05 67.8632 22.15C67.7632 22.27 67.6532 22.38 67.5332 22.48C67.5132 22.5 67.4732 22.52 67.4132 22.54C67.3532 22.56 67.3032 22.58 67.2632 22.6ZM68.4332 12.1H68.4932C68.7132 12.06 68.9332 12.02 69.1532 11.98C69.3932 11.92 69.6232 11.85 69.8432 11.77C70.0632 11.71 70.2532 11.6 70.4132 11.44C70.5532 11.3 70.6232 11.14 70.6232 10.96C70.6432 10.82 70.6432 10.69 70.6232 10.57C70.6232 10.43 70.6032 10.29 70.5632 10.15C70.4832 9.79 70.3932 9.44 70.2932 9.1C70.1932 8.74 70.0732 8.4 69.9332 8.08L69.6632 7.36C69.6032 7.16 69.5332 6.97 69.4532 6.79C69.3732 6.59 69.2832 6.4 69.1832 6.22C69.1632 6.18 69.1432 6.14 69.1232 6.1C69.1032 6.04 69.0832 5.99 69.0632 5.95L68.9432 5.83C68.8832 5.75 68.8132 5.75 68.7332 5.83C68.7132 5.83 68.6832 5.85 68.6432 5.89C68.5032 6.07 68.3732 6.26 68.2532 6.46C68.1532 6.66 68.0932 6.88 68.0732 7.12C68.0532 7.2 68.0332 7.28 68.0132 7.36C68.0132 7.44 68.0132 7.53 68.0132 7.63V8.92C67.9932 9.2 67.9832 9.49 67.9832 9.79C68.0032 10.09 67.9932 10.38 67.9532 10.66C67.9332 10.72 67.9232 10.78 67.9232 10.84C67.9432 10.9 67.9532 10.96 67.9532 11.02C67.9732 11.14 67.9832 11.26 67.9832 11.38C67.9832 11.48 67.9832 11.59 67.9832 11.71C67.9832 11.91 68.0032 12.03 68.0432 12.07C68.1032 12.11 68.2332 12.12 68.4332 12.1ZM82.5834 22.3C82.4634 22.3 82.3834 22.29 82.3434 22.27C82.2634 22.23 82.1934 22.2 82.1334 22.18C82.0734 22.16 82.0134 22.14 81.9534 22.12C81.8934 22.08 81.8334 22.04 81.7734 22C81.7334 21.94 81.6934 21.88 81.6534 21.82C81.6134 21.78 81.5734 21.76 81.5334 21.76C81.4134 21.76 81.3534 21.7 81.3534 21.58C81.3334 21.46 81.3134 21.34 81.2934 21.22C81.2734 21.1 81.2534 20.98 81.2334 20.86C81.2134 20.68 81.1934 20.5 81.1734 20.32C81.1734 20.14 81.1534 19.97 81.1134 19.81V19.54C81.1134 19.46 81.1034 19.39 81.0834 19.33C81.0834 19.27 81.0834 19.2 81.0834 19.12C81.0434 19.02 81.0434 18.94 81.0834 18.88C81.1234 18.52 81.1234 18.16 81.0834 17.8C81.0634 17.7 81.0534 17.6 81.0534 17.5C81.0534 17.4 81.0434 17.3 81.0234 17.2C81.0234 17 81.0234 16.8 81.0234 16.6C81.0234 16.38 81.0034 16.17 80.9634 15.97V15.49C80.9634 15.33 80.9534 15.18 80.9334 15.04C80.9334 14.9 80.9234 14.76 80.9034 14.62C80.8834 14.44 80.8634 14.26 80.8434 14.08C80.8434 13.9 80.8334 13.72 80.8134 13.54C80.7934 13.5 80.7834 13.43 80.7834 13.33C80.7634 13.23 80.7434 13.13 80.7234 13.03C80.7234 12.91 80.7234 12.8 80.7234 12.7L80.6334 11.2C80.6134 11.04 80.5934 10.89 80.5734 10.75C80.5734 10.59 80.5734 10.44 80.5734 10.3C80.5534 10.06 80.5334 9.82 80.5134 9.58C80.4934 9.34 80.4734 9.11 80.4534 8.89C80.4534 8.85 80.4434 8.81 80.4234 8.77C80.4234 8.73 80.4234 8.7 80.4234 8.68C80.4234 8.44 80.4134 8.2 80.3934 7.96C80.3734 7.72 80.3534 7.47 80.3334 7.21L80.2434 6.37C80.1834 6.05 80.1734 5.7 80.2134 5.32C80.2134 5.14 80.2834 4.99 80.4234 4.87C80.4634 4.83 80.4934 4.81 80.5134 4.81C80.5334 4.79 80.5534 4.77 80.5734 4.75C80.6734 4.73 80.7234 4.66 80.7234 4.54C80.7234 4.5 80.7634 4.48 80.8434 4.48H80.9934C81.0134 4.48 81.0234 4.48 81.0234 4.48C81.0434 4.46 81.0634 4.45 81.0834 4.45C81.1234 4.43 81.1534 4.41 81.1734 4.39C81.2134 4.35 81.2434 4.33 81.2634 4.33C81.3034 4.33 81.3434 4.34 81.3834 4.36C81.4234 4.36 81.4634 4.37 81.5034 4.39C81.5434 4.39 81.5734 4.38 81.5934 4.36C81.6934 4.34 81.7934 4.35 81.8934 4.39C82.0134 4.41 82.1134 4.44 82.1934 4.48C82.3134 4.5 82.4034 4.58 82.4634 4.72C82.5234 4.9 82.5734 5.08 82.6134 5.26C82.6734 5.42 82.7134 5.59 82.7334 5.77V6.01C82.7734 6.15 82.7934 6.3 82.7934 6.46C82.7934 6.6 82.7934 6.75 82.7934 6.91C82.7934 7.05 82.7934 7.19 82.7934 7.33C82.8134 7.45 82.8334 7.57 82.8534 7.69C82.8534 7.75 82.8534 7.81 82.8534 7.87C82.8534 7.93 82.8634 7.99 82.8834 8.05C82.8834 8.17 82.8834 8.29 82.8834 8.41C82.9034 8.53 82.9234 8.66 82.9434 8.8C82.9634 9.02 82.9834 9.25 83.0034 9.49C83.0234 9.73 83.0334 9.97 83.0334 10.21C83.0334 10.31 83.0334 10.42 83.0334 10.54C83.0334 10.64 83.0434 10.74 83.0634 10.84C83.0834 10.9 83.0934 10.96 83.0934 11.02C83.0934 11.08 83.0934 11.14 83.0934 11.2V11.8C83.0934 11.92 83.1034 12.02 83.1234 12.1C83.1634 12.24 83.1734 12.38 83.1534 12.52C83.1534 12.64 83.1634 12.77 83.1834 12.91L83.2734 14.29C83.2934 14.49 83.3034 14.7 83.3034 14.92C83.3234 15.12 83.3334 15.33 83.3334 15.55C83.3334 15.63 83.3334 15.72 83.3334 15.82C83.3334 15.9 83.3434 15.98 83.3634 16.06C83.3834 16.12 83.3934 16.18 83.3934 16.24C83.3934 16.3 83.3934 16.36 83.3934 16.42C83.4134 16.44 83.4134 16.48 83.3934 16.54C83.3934 16.58 83.4034 16.62 83.4234 16.66C83.4634 16.8 83.4834 16.94 83.4834 17.08C83.4834 17.22 83.4834 17.37 83.4834 17.53C83.4834 17.61 83.4834 17.7 83.4834 17.8C83.5034 17.88 83.5134 17.97 83.5134 18.07C83.5334 18.17 83.5434 18.28 83.5434 18.4C83.5434 18.52 83.5434 18.63 83.5434 18.73C83.5634 18.83 83.5734 18.94 83.5734 19.06C83.5734 19.16 83.5834 19.26 83.6034 19.36C83.6234 19.4 83.6334 19.44 83.6334 19.48C83.6334 19.7 83.6534 19.92 83.6934 20.14C83.7334 20.36 83.7734 20.58 83.8134 20.8C83.8334 20.86 83.8434 20.93 83.8434 21.01C83.8434 21.07 83.8434 21.13 83.8434 21.19C83.8434 21.25 83.8234 21.3 83.7834 21.34C83.7034 21.4 83.6434 21.52 83.6034 21.7C83.6034 21.76 83.5734 21.81 83.5134 21.85C83.3734 21.91 83.2534 21.99 83.1534 22.09C82.9934 22.23 82.8034 22.3 82.5834 22.3ZM98.2261 23.53C98.1461 23.55 98.0861 23.53 98.0461 23.47C97.9661 23.41 97.8861 23.35 97.8061 23.29C97.7461 23.23 97.6661 23.17 97.5661 23.11C97.4061 23.03 97.2761 22.89 97.1761 22.69C96.9961 22.41 96.9061 22.11 96.9061 21.79C96.9061 21.69 96.8961 21.59 96.8761 21.49C96.8761 21.39 96.8661 21.29 96.8461 21.19C96.8461 21.09 96.8361 21 96.8161 20.92C96.8161 20.82 96.8161 20.73 96.8161 20.65C96.8161 20.55 96.8161 20.45 96.8161 20.35C96.8161 20.23 96.8061 20.12 96.7861 20.02C96.7861 20 96.7761 19.99 96.7561 19.99C96.7561 19.97 96.7561 19.96 96.7561 19.96C96.7161 19.96 96.6861 19.97 96.6661 19.99L96.3061 20.44C96.2261 20.56 96.1261 20.67 96.0061 20.77C95.9061 20.85 95.8061 20.94 95.7061 21.04C95.3861 21.28 95.0661 21.48 94.7461 21.64C94.6061 21.7 94.4761 21.75 94.3561 21.79C93.6761 22.03 93.0061 22.14 92.3461 22.12C92.1261 22.1 91.8961 22.08 91.6561 22.06C91.4361 22.06 91.2061 22.03 90.9661 21.97C90.7861 21.91 90.6061 21.85 90.4261 21.79C90.2661 21.71 90.1061 21.61 89.9461 21.49C89.8061 21.37 89.6661 21.25 89.5261 21.13C89.3861 20.99 89.2561 20.84 89.1361 20.68C88.9361 20.36 88.8061 20.16 88.7461 20.08C88.6861 20 88.5961 19.8 88.4761 19.48L88.3261 19.21C88.2661 19.05 88.1961 18.9 88.1161 18.76C88.0561 18.6 88.0061 18.44 87.9661 18.28L87.8161 17.86C87.7761 17.72 87.7361 17.59 87.6961 17.47C87.6561 17.33 87.6161 17.19 87.5761 17.05C87.4961 16.79 87.4261 16.53 87.3661 16.27C87.3061 15.99 87.2461 15.72 87.1861 15.46L87.0961 14.92C87.0961 14.88 87.0861 14.84 87.0661 14.8C87.0661 14.74 87.0661 14.68 87.0661 14.62L86.8861 13.75C86.8661 13.65 86.8561 13.56 86.8561 13.48C86.8561 13.38 86.8561 13.29 86.8561 13.21C86.8361 13.05 86.8261 12.89 86.8261 12.73C86.8461 12.57 86.8561 12.41 86.8561 12.25C86.8761 12.03 86.9061 11.82 86.9461 11.62C86.9861 11.4 87.0261 11.19 87.0661 10.99C87.1461 10.71 87.2261 10.43 87.3061 10.15C87.4061 9.85 87.5161 9.57 87.6361 9.31C87.7361 9.09 87.8361 8.88 87.9361 8.68C88.0361 8.46 88.1561 8.25 88.2961 8.05C88.4761 7.75 88.6661 7.46 88.8661 7.18C89.0861 6.9 89.3061 6.63 89.5261 6.37C89.6861 6.19 89.8461 6.02 90.0061 5.86C90.1661 5.68 90.3261 5.5 90.4861 5.32C90.7661 5.04 91.0661 4.8 91.3861 4.6C91.5461 4.5 91.7061 4.44 91.8661 4.42C91.9261 4.4 91.9761 4.39 92.0161 4.39C92.0761 4.39 92.1261 4.38 92.1661 4.36C92.3861 4.32 92.5861 4.33 92.7661 4.39C92.8261 4.41 92.8861 4.43 92.9461 4.45C93.0261 4.47 93.0961 4.49 93.1561 4.51C93.4161 4.61 93.6461 4.67 93.8461 4.69C93.9661 4.69 94.1061 4.73 94.2661 4.81C94.3661 4.83 94.4661 4.86 94.5661 4.9C94.6661 4.92 94.7661 4.94 94.8661 4.96C94.9861 4.96 95.0861 4.99 95.1661 5.05C95.1861 5.05 95.2061 5.06 95.2261 5.08C95.2661 5.08 95.2961 5.08 95.3161 5.08C95.4761 5.1 95.6161 5.14 95.7361 5.2C95.8561 5.24 95.9761 5.3 96.0961 5.38C96.3761 5.56 96.6661 5.76 96.9661 5.98C97.1461 6.12 97.2361 6.31 97.2361 6.55V6.7C97.2961 6.94 97.2361 7.18 97.0561 7.42C96.9561 7.6 96.8761 7.72 96.8161 7.78C96.7761 7.82 96.6561 7.89 96.4561 7.99C96.3961 8.01 96.3261 8.04 96.2461 8.08C96.1861 8.1 96.1061 8.11 96.0061 8.11C95.9661 8.11 95.9161 8.12 95.8561 8.14C95.8161 8.14 95.7761 8.14 95.7361 8.14C95.6761 8.16 95.6161 8.16 95.5561 8.14C95.4961 8.12 95.4361 8.11 95.3761 8.11C95.3561 8.13 95.3261 8.12 95.2861 8.08L94.8361 7.72C94.5161 7.44 94.1461 7.28 93.7261 7.24C93.6461 7.22 93.5661 7.21 93.4861 7.21C93.4061 7.21 93.3161 7.2 93.2161 7.18C92.9561 7.18 92.7461 7.25 92.5861 7.39L92.3761 7.6C92.1961 7.8 92.0061 8 91.8061 8.2C91.6261 8.4 91.4461 8.6 91.2661 8.8C91.1261 8.94 91.0061 9.1 90.9061 9.28C90.8061 9.46 90.7061 9.64 90.6061 9.82C90.2861 10.44 90.0461 11.1 89.8861 11.8C89.8661 11.92 89.8461 12.04 89.8261 12.16C89.8061 12.26 89.7861 12.36 89.7661 12.46C89.7661 12.56 89.7661 12.66 89.7661 12.76C89.7661 12.86 89.7761 12.96 89.7961 13.06C89.8161 13.14 89.8261 13.22 89.8261 13.3C89.8261 13.36 89.8361 13.43 89.8561 13.51L89.9461 14.23C89.9661 14.35 89.9861 14.48 90.0061 14.62C90.0461 14.74 90.0761 14.86 90.0961 14.98C90.2961 15.76 90.5361 16.55 90.8161 17.35C90.9161 17.65 91.0361 17.91 91.1761 18.13L91.3561 18.4C91.4161 18.48 91.4761 18.56 91.5361 18.64C91.5961 18.7 91.6561 18.76 91.7161 18.82C91.8361 18.9 91.9361 18.95 92.0161 18.97C92.3161 19.03 92.6261 19.06 92.9461 19.06C93.3461 19.02 93.6861 18.89 93.9661 18.67C94.1061 18.57 94.2261 18.46 94.3261 18.34C94.4461 18.22 94.5561 18.09 94.6561 17.95C94.8961 17.67 95.1061 17.37 95.2861 17.05C95.3461 16.93 95.3361 16.81 95.2561 16.69C95.1361 16.49 94.9861 16.33 94.8061 16.21C94.5861 16.05 94.3561 15.92 94.1161 15.82C93.8961 15.7 93.6461 15.63 93.3661 15.61L93.2161 15.55C93.0561 15.49 92.8861 15.49 92.7061 15.55C92.5661 15.61 92.4161 15.64 92.2561 15.64C92.1161 15.62 91.9661 15.6 91.8061 15.58C91.4461 15.48 91.1361 15.32 90.8761 15.1C90.7961 15 90.7261 14.9 90.6661 14.8C90.6261 14.7 90.5761 14.61 90.5161 14.53C90.5161 14.49 90.5061 14.45 90.4861 14.41C90.4861 14.37 90.4961 14.34 90.5161 14.32C90.5161 14.22 90.5161 14.12 90.5161 14.02C90.5361 13.92 90.5561 13.82 90.5761 13.72C90.5761 13.7 90.5961 13.63 90.6361 13.51C90.6761 13.41 90.7261 13.32 90.7861 13.24C90.8661 13.14 90.9461 13.05 91.0261 12.97C91.3461 12.67 91.6961 12.48 92.0761 12.4C92.2961 12.34 92.5161 12.3 92.7361 12.28C92.9561 12.24 93.1661 12.21 93.3661 12.19H95.8861C96.0461 12.19 96.2161 12.19 96.3961 12.19C96.5761 12.19 96.7561 12.18 96.9361 12.16C97.0961 12.14 97.2461 12.13 97.3861 12.13C97.5461 12.13 97.7061 12.13 97.8661 12.13C98.0461 12.13 98.2061 12.16 98.3461 12.22C98.5661 12.28 98.7361 12.41 98.8561 12.61C98.9161 12.69 98.9761 12.78 99.0361 12.88C99.0961 12.98 99.1361 13.08 99.1561 13.18C99.1761 13.2 99.1861 13.23 99.1861 13.27C99.1861 13.29 99.1961 13.32 99.2161 13.36L99.4261 14.47C99.4661 14.63 99.4961 14.8 99.5161 14.98C99.5361 15.16 99.5561 15.34 99.5761 15.52C99.5761 15.62 99.5761 15.73 99.5761 15.85C99.5961 15.95 99.6061 16.05 99.6061 16.15C99.6061 16.23 99.6061 16.32 99.6061 16.42C99.6261 16.52 99.6361 16.62 99.6361 16.72V18.1C99.6361 18.24 99.6361 18.4 99.6361 18.58C99.6561 18.74 99.6761 18.9 99.6961 19.06C99.7161 19.14 99.7261 19.22 99.7261 19.3C99.7261 19.38 99.7261 19.47 99.7261 19.57C99.7061 19.77 99.7161 19.98 99.7561 20.2C99.7961 20.4 99.8261 20.61 99.8461 20.83C99.8661 20.93 99.8861 21.04 99.9061 21.16C99.9461 21.26 99.9761 21.37 99.9961 21.49C100.016 21.57 100.026 21.66 100.026 21.76C100.046 21.84 100.056 21.93 100.056 22.03C100.056 22.11 100.046 22.19 100.026 22.27C100.026 22.37 99.9961 22.46 99.9361 22.54C99.8961 22.58 99.8561 22.64 99.8161 22.72C99.7361 22.94 99.5661 23.12 99.3061 23.26C99.1061 23.34 98.8961 23.4 98.6761 23.44C98.4961 23.44 98.3461 23.47 98.2261 23.53ZM115.167 22.72C114.987 22.74 114.817 22.74 114.657 22.72C114.497 22.7 114.337 22.62 114.177 22.48C114.137 22.44 114.077 22.4 113.997 22.36C113.897 22.3 113.837 22.23 113.817 22.15C113.797 22.07 113.757 22.01 113.697 21.97C113.637 21.91 113.597 21.84 113.577 21.76C113.557 21.7 113.547 21.64 113.547 21.58C113.567 21.5 113.577 21.43 113.577 21.37C113.577 21.31 113.567 21.25 113.547 21.19C113.547 21.13 113.547 21.07 113.547 21.01C113.487 20.71 113.427 20.41 113.367 20.11C113.307 19.79 113.257 19.48 113.217 19.18C113.197 19.04 113.177 18.9 113.157 18.76C113.137 18.62 113.117 18.48 113.097 18.34C113.077 18.08 113.047 17.82 113.007 17.56C112.987 17.3 112.957 17.04 112.917 16.78C112.877 16.62 112.857 16.48 112.857 16.36C112.857 16.2 112.847 16.05 112.827 15.91C112.807 15.75 112.787 15.6 112.767 15.46C112.747 15.34 112.677 15.28 112.557 15.28L112.347 15.25C112.247 15.23 112.137 15.22 112.017 15.22C111.897 15.22 111.777 15.21 111.657 15.19H111.357C111.317 15.21 111.257 15.22 111.177 15.22C111.097 15.22 111.017 15.22 110.937 15.22C110.877 15.2 110.797 15.2 110.697 15.22C110.617 15.22 110.537 15.23 110.457 15.25C110.397 15.25 110.317 15.24 110.217 15.22C110.197 15.2 110.157 15.2 110.097 15.22C110.057 15.22 110.017 15.22 109.977 15.22C109.877 15.22 109.767 15.23 109.647 15.25C109.547 15.25 109.447 15.25 109.347 15.25C109.287 15.25 109.227 15.25 109.167 15.25C109.107 15.25 109.047 15.26 108.987 15.28C108.847 15.3 108.707 15.32 108.567 15.34C108.427 15.34 108.287 15.34 108.147 15.34C107.947 15.32 107.747 15.32 107.547 15.34C107.347 15.36 107.147 15.38 106.947 15.4H106.857C106.757 15.44 106.707 15.5 106.707 15.58C106.707 15.6 106.697 15.62 106.677 15.64C106.677 15.64 106.677 15.65 106.677 15.67C106.677 15.77 106.687 15.85 106.707 15.91C106.727 16.05 106.747 16.2 106.767 16.36C106.787 16.5 106.807 16.65 106.827 16.81L106.917 17.53C106.937 17.73 106.967 17.93 107.007 18.13C107.047 18.31 107.077 18.49 107.097 18.67C107.117 18.69 107.127 18.72 107.127 18.76C107.127 18.78 107.137 18.81 107.157 18.85C107.197 18.95 107.217 19.06 107.217 19.18C107.217 19.3 107.217 19.42 107.217 19.54C107.257 19.56 107.247 19.6 107.187 19.66C107.167 19.7 107.147 19.74 107.127 19.78C107.107 19.82 107.097 19.86 107.097 19.9C107.037 20.1 106.907 20.29 106.707 20.47C106.507 20.63 106.317 20.72 106.137 20.74C106.117 20.74 106.097 20.75 106.077 20.77C106.057 20.77 106.027 20.77 105.987 20.77C105.727 20.83 105.447 20.81 105.147 20.71L105.057 20.65C105.037 20.57 104.997 20.51 104.937 20.47C104.877 20.43 104.827 20.39 104.787 20.35C104.747 20.29 104.697 20.24 104.637 20.2C104.597 20.14 104.567 20.07 104.547 19.99C104.547 19.97 104.537 19.96 104.517 19.96C104.437 19.86 104.387 19.75 104.367 19.63C104.347 19.51 104.327 19.39 104.307 19.27L104.217 18.79C104.197 18.61 104.167 18.43 104.127 18.25C104.107 18.05 104.087 17.85 104.067 17.65L103.887 16.48C103.867 16.34 103.847 16.2 103.827 16.06C103.807 15.9 103.787 15.75 103.767 15.61L103.677 14.65C103.657 14.45 103.637 14.25 103.617 14.05C103.597 13.85 103.567 13.65 103.527 13.45V13.18C103.527 13.02 103.517 12.86 103.497 12.7C103.497 12.54 103.487 12.39 103.467 12.25C103.447 12.19 103.437 12.13 103.437 12.07C103.437 12.01 103.437 11.95 103.437 11.89C103.437 11.79 103.427 11.7 103.407 11.62C103.407 11.52 103.397 11.42 103.377 11.32L103.287 10.69C103.267 10.47 103.227 10.24 103.167 10C103.127 9.76 103.067 9.53 102.987 9.31C102.947 9.19 102.897 9.07 102.837 8.95C102.777 8.81 102.727 8.67 102.687 8.53C102.647 8.37 102.607 8.26 102.567 8.2C102.507 8 102.507 7.81 102.567 7.63L102.747 7.18C102.767 7.1 102.827 7.03 102.927 6.97C102.967 6.91 103.017 6.86 103.077 6.82C103.137 6.76 103.197 6.71 103.257 6.67C103.297 6.65 103.347 6.64 103.407 6.64C103.467 6.66 103.547 6.65 103.647 6.61L103.737 6.55C103.917 6.45 104.097 6.45 104.277 6.55C104.377 6.59 104.477 6.63 104.577 6.67C104.697 6.71 104.797 6.78 104.877 6.88C104.997 6.9 105.077 6.99 105.117 7.15L105.387 7.75C105.547 8.09 105.687 8.44 105.807 8.8C105.927 9.16 106.007 9.54 106.047 9.94C106.067 10.08 106.087 10.23 106.107 10.39C106.147 10.53 106.177 10.68 106.197 10.84V11.08C106.197 11.18 106.207 11.25 106.227 11.29C106.247 11.43 106.257 11.58 106.257 11.74C106.277 11.9 106.287 12.06 106.287 12.22V12.28C106.307 12.38 106.367 12.45 106.467 12.49C106.527 12.51 106.587 12.53 106.647 12.55C106.707 12.55 106.767 12.55 106.827 12.55C106.927 12.53 107.007 12.53 107.067 12.55C107.147 12.55 107.227 12.55 107.307 12.55C107.447 12.55 107.577 12.55 107.697 12.55C107.817 12.53 107.947 12.52 108.087 12.52H108.447C108.507 12.52 108.567 12.53 108.627 12.55C108.707 12.55 108.777 12.54 108.837 12.52C108.877 12.52 108.907 12.52 108.927 12.52C108.967 12.5 108.997 12.49 109.017 12.49C109.217 12.51 109.417 12.52 109.617 12.52C109.817 12.5 110.017 12.49 110.217 12.49C110.417 12.51 110.617 12.52 110.817 12.52C111.017 12.5 111.217 12.49 111.417 12.49C111.577 12.49 111.727 12.5 111.867 12.52C112.027 12.52 112.177 12.52 112.317 12.52C112.457 12.52 112.527 12.46 112.527 12.34C112.527 12.24 112.527 12.13 112.527 12.01C112.527 11.89 112.517 11.78 112.497 11.68C112.477 11.46 112.457 11.26 112.437 11.08C112.437 10.88 112.427 10.68 112.407 10.48C112.387 10.2 112.377 9.93 112.377 9.67C112.397 9.39 112.387 9.12 112.347 8.86C112.327 8.64 112.307 8.42 112.287 8.2C112.287 7.98 112.267 7.77 112.227 7.57V7.15C112.227 7.07 112.237 7.01 112.257 6.97C112.257 6.93 112.257 6.9 112.257 6.88C112.277 6.84 112.287 6.81 112.287 6.79C112.287 6.69 112.267 6.63 112.227 6.61L112.137 6.55C112.017 6.47 111.997 6.38 112.077 6.28C112.137 6.2 112.147 6.11 112.107 6.01C112.107 5.95 112.117 5.91 112.137 5.89C112.177 5.83 112.217 5.77 112.257 5.71C112.297 5.65 112.327 5.58 112.347 5.5C112.407 5.28 112.497 5.18 112.617 5.2C112.757 5.2 112.847 5.22 112.887 5.26C112.907 5.28 112.927 5.29 112.947 5.29C112.967 5.27 112.977 5.25 112.977 5.23C112.977 5.11 113.037 5.04 113.157 5.02C113.277 5 113.367 4.98 113.427 4.96L113.607 4.84H113.697C113.797 4.88 113.877 4.93 113.937 4.99C114.017 5.03 114.097 5.07 114.177 5.11C114.217 5.13 114.267 5.17 114.327 5.23C114.467 5.41 114.567 5.64 114.627 5.92C114.667 6.12 114.707 6.31 114.747 6.49C114.787 6.67 114.817 6.86 114.837 7.06C114.837 7.1 114.837 7.14 114.837 7.18C114.857 7.22 114.867 7.26 114.867 7.3L114.897 7.51C114.897 7.75 114.907 7.99 114.927 8.23C114.967 8.45 114.997 8.68 115.017 8.92C115.037 8.94 115.047 8.98 115.047 9.04C115.027 9.18 115.017 9.32 115.017 9.46C115.037 9.58 115.057 9.72 115.077 9.88C115.097 10.02 115.107 10.18 115.107 10.36C115.127 10.52 115.137 10.68 115.137 10.84C115.137 10.94 115.137 11.05 115.137 11.17C115.157 11.29 115.177 11.4 115.197 11.5C115.217 11.6 115.227 11.7 115.227 11.8C115.227 11.9 115.227 12 115.227 12.1C115.227 12.2 115.227 12.3 115.227 12.4C115.247 12.48 115.267 12.57 115.287 12.67V12.79C115.307 13.03 115.327 13.27 115.347 13.51C115.387 13.73 115.417 13.96 115.437 14.2C115.457 14.22 115.467 14.26 115.467 14.32C115.467 14.54 115.487 14.77 115.527 15.01C115.567 15.23 115.597 15.45 115.617 15.67L115.707 16.72C115.707 16.74 115.707 16.78 115.707 16.84C115.727 16.88 115.737 16.92 115.737 16.96C115.757 17 115.767 17.08 115.767 17.2C115.767 17.38 115.777 17.56 115.797 17.74C115.837 17.92 115.867 18.1 115.887 18.28C115.927 18.48 115.957 18.68 115.977 18.88C115.997 19.08 116.027 19.29 116.067 19.51C116.107 19.75 116.157 19.99 116.217 20.23C116.277 20.47 116.327 20.71 116.367 20.95C116.387 21.03 116.397 21.12 116.397 21.22C116.417 21.3 116.427 21.39 116.427 21.49C116.427 21.59 116.397 21.69 116.337 21.79C116.317 21.81 116.297 21.85 116.277 21.91C116.277 21.95 116.257 21.99 116.217 22.03C116.197 22.05 116.187 22.07 116.187 22.09C116.187 22.11 116.177 22.12 116.157 22.12C116.077 22.14 116.007 22.19 115.947 22.27C115.887 22.35 115.817 22.41 115.737 22.45C115.657 22.53 115.547 22.59 115.407 22.63L115.167 22.72ZM125.009 21.97C124.969 21.95 124.909 21.94 124.829 21.94C124.789 21.94 124.749 21.91 124.709 21.85C124.669 21.79 124.629 21.74 124.589 21.7C124.549 21.64 124.509 21.57 124.469 21.49C124.409 21.41 124.359 21.41 124.319 21.49H124.259C124.259 21.47 124.249 21.46 124.229 21.46C124.229 21.44 124.229 21.43 124.229 21.43C124.169 21.15 124.079 20.89 123.959 20.65C123.899 20.49 123.839 20.33 123.779 20.17C123.739 19.99 123.709 19.81 123.689 19.63L123.509 18.31L123.419 17.23V17.17C123.379 16.93 123.359 16.69 123.359 16.45C123.359 16.19 123.359 15.93 123.359 15.67C123.339 15.53 123.329 15.4 123.329 15.28C123.329 15.14 123.319 15 123.299 14.86C123.279 14.7 123.259 14.54 123.239 14.38C123.239 14.22 123.239 14.07 123.239 13.93L123.269 11.56V8.35C123.229 8.23 123.169 8.17 123.089 8.17C123.049 8.17 122.999 8.18 122.939 8.2C122.899 8.2 122.859 8.2 122.819 8.2L121.469 8.56C121.289 8.62 121.109 8.68 120.929 8.74C120.749 8.78 120.569 8.83 120.389 8.89C120.249 8.91 120.109 8.93 119.969 8.95C119.849 8.95 119.719 8.95 119.579 8.95C119.479 8.95 119.369 8.91 119.249 8.83C119.109 8.77 118.989 8.69 118.889 8.59C118.789 8.49 118.689 8.38 118.589 8.26L118.529 8.17C118.489 8.03 118.449 7.9 118.409 7.78C118.389 7.64 118.389 7.5 118.409 7.36C118.429 7.18 118.469 7.01 118.529 6.85C118.609 6.69 118.719 6.55 118.859 6.43C118.919 6.39 118.969 6.34 119.009 6.28C119.069 6.22 119.129 6.16 119.189 6.1C119.269 6.06 119.319 6.04 119.339 6.04C119.459 6.04 119.569 6.02 119.669 5.98C119.769 5.92 119.869 5.88 119.969 5.86C120.069 5.84 120.169 5.82 120.269 5.8C120.369 5.78 120.469 5.76 120.569 5.74C120.849 5.66 121.129 5.59 121.409 5.53C121.689 5.45 121.969 5.39 122.249 5.35L123.869 5.08C123.909 5.06 123.939 5.05 123.959 5.05C123.999 5.05 124.029 5.04 124.049 5.02C124.169 4.98 124.289 4.95 124.409 4.93C124.529 4.91 124.649 4.92 124.769 4.96C124.809 4.98 124.839 4.99 124.859 4.99C124.899 4.97 124.929 4.96 124.949 4.96C125.289 4.92 125.629 4.88 125.969 4.84C126.309 4.8 126.639 4.75 126.959 4.69C127.219 4.65 127.479 4.61 127.739 4.57C127.999 4.53 128.259 4.5 128.519 4.48C128.719 4.44 128.919 4.41 129.119 4.39C129.319 4.37 129.519 4.35 129.719 4.33C129.879 4.31 130.039 4.29 130.199 4.27C130.379 4.25 130.549 4.23 130.709 4.21C130.869 4.19 131.019 4.19 131.159 4.21C131.319 4.21 131.479 4.21 131.639 4.21C131.739 4.21 131.829 4.24 131.909 4.3C132.009 4.36 132.099 4.41 132.179 4.45C132.259 4.51 132.369 4.61 132.509 4.75C132.549 4.79 132.589 4.88 132.629 5.02C132.649 5.08 132.669 5.15 132.689 5.23C132.709 5.29 132.729 5.36 132.749 5.44C132.789 5.62 132.769 5.79 132.689 5.95L132.509 6.37C132.489 6.43 132.459 6.49 132.419 6.55C132.399 6.59 132.369 6.63 132.329 6.67C132.289 6.71 132.269 6.73 132.269 6.73C132.189 6.79 132.099 6.85 131.999 6.91C131.919 6.97 131.819 7.01 131.699 7.03L130.409 7.12C130.289 7.12 130.169 7.13 130.049 7.15C129.929 7.15 129.799 7.16 129.659 7.18H129.509C129.189 7.2 128.879 7.23 128.579 7.27C128.279 7.31 127.979 7.35 127.679 7.39L126.479 7.57C126.419 7.57 126.379 7.58 126.359 7.6C126.279 7.6 126.219 7.66 126.179 7.78V7.87C126.179 8.07 126.179 8.27 126.179 8.47C126.179 8.65 126.189 8.84 126.209 9.04C126.269 9.32 126.269 9.6 126.209 9.88C126.189 9.94 126.169 10 126.149 10.06C126.149 10.1 126.149 10.14 126.149 10.18C126.169 10.42 126.149 10.68 126.089 10.96C126.089 11.02 126.089 11.08 126.089 11.14C126.089 11.2 126.099 11.26 126.119 11.32C126.139 11.4 126.149 11.49 126.149 11.59C126.149 11.69 126.149 11.79 126.149 11.89V13.45C126.149 13.53 126.139 13.63 126.119 13.75C126.119 13.85 126.119 13.95 126.119 14.05C126.119 14.13 126.119 14.22 126.119 14.32C126.139 14.42 126.149 14.52 126.149 14.62C126.149 14.76 126.149 14.9 126.149 15.04C126.169 15.18 126.169 15.33 126.149 15.49V16.42C126.149 16.44 126.139 16.46 126.119 16.48C126.119 16.5 126.129 16.53 126.149 16.57C126.169 16.75 126.179 16.94 126.179 17.14C126.179 17.32 126.199 17.5 126.239 17.68C126.239 17.74 126.239 17.8 126.239 17.86C126.259 17.92 126.259 17.98 126.239 18.04C126.239 18.22 126.259 18.41 126.299 18.61C126.339 18.79 126.369 18.97 126.389 19.15C126.429 19.37 126.469 19.59 126.509 19.81C126.569 20.03 126.619 20.25 126.659 20.47L126.749 20.89C126.749 20.95 126.719 21 126.659 21.04C126.659 21.04 126.649 21.04 126.629 21.04C126.629 21.04 126.619 21.05 126.599 21.07C126.499 21.11 126.459 21.17 126.479 21.25V21.4C126.479 21.4 126.469 21.41 126.449 21.43C126.449 21.45 126.439 21.46 126.419 21.46C126.319 21.46 126.239 21.5 126.179 21.58C126.119 21.66 126.049 21.73 125.969 21.79C125.909 21.83 125.829 21.87 125.729 21.91C125.469 22.01 125.229 22.03 125.009 21.97ZM140.838 23.47L140.328 23.38C140.068 23.34 139.798 23.3 139.518 23.26C139.258 23.22 138.988 23.19 138.708 23.17C138.428 23.17 138.148 23.09 137.868 22.93C137.608 22.79 137.428 22.57 137.328 22.27C137.308 22.17 137.278 22.07 137.238 21.97C137.218 21.87 137.198 21.77 137.178 21.67C137.178 21.43 137.228 21.25 137.328 21.13C137.428 21.03 137.508 20.93 137.568 20.83C137.648 20.73 137.728 20.64 137.808 20.56C137.848 20.52 137.888 20.49 137.928 20.47C137.968 20.45 138.008 20.43 138.048 20.41C138.148 20.35 138.248 20.31 138.348 20.29C138.448 20.25 138.548 20.22 138.648 20.2C138.688 20.18 138.718 20.18 138.738 20.2C138.778 20.2 138.808 20.2 138.828 20.2C138.928 20.22 139.038 20.24 139.158 20.26C139.278 20.26 139.388 20.28 139.488 20.32L140.748 20.5C141.028 20.54 141.278 20.5 141.498 20.38C141.578 20.34 141.648 20.3 141.708 20.26C141.788 20.22 141.858 20.18 141.918 20.14C142.358 19.88 142.738 19.61 143.058 19.33C143.298 19.11 143.528 18.89 143.748 18.67C143.968 18.45 144.168 18.21 144.348 17.95C144.488 17.77 144.578 17.59 144.618 17.41C144.658 17.21 144.668 17.01 144.648 16.81L144.558 16.57C144.538 16.47 144.498 16.39 144.438 16.33C144.378 16.27 144.318 16.2 144.258 16.12C144.138 16.02 144.018 15.91 143.898 15.79C143.798 15.67 143.688 15.57 143.568 15.49C143.268 15.25 142.968 15.02 142.668 14.8C142.388 14.58 142.098 14.36 141.798 14.14C141.778 14.1 141.718 14.06 141.618 14.02C141.438 13.9 141.258 13.77 141.078 13.63C140.918 13.47 140.758 13.32 140.598 13.18C140.398 12.98 140.178 12.79 139.938 12.61C139.818 12.55 139.708 12.45 139.608 12.31C139.528 12.21 139.408 12.11 139.248 12.01C139.108 11.93 138.978 11.84 138.858 11.74C138.738 11.62 138.618 11.51 138.498 11.41L138.108 11.05C138.028 10.95 137.938 10.86 137.838 10.78C137.758 10.68 137.668 10.58 137.568 10.48C137.528 10.38 137.468 10.3 137.388 10.24C137.328 10.18 137.268 10.11 137.208 10.03C137.188 9.99 137.158 9.95 137.118 9.91C137.078 9.85 137.048 9.79 137.028 9.73C136.908 9.49 136.778 9.25 136.638 9.01C136.518 8.77 136.408 8.52 136.308 8.26C136.248 8.1 136.188 7.95 136.128 7.81C136.088 7.65 136.048 7.5 136.008 7.36C135.988 7.2 135.948 7.06 135.888 6.94C135.848 6.8 135.808 6.66 135.768 6.52C135.728 6.3 135.678 6.09 135.618 5.89C135.578 5.67 135.538 5.46 135.498 5.26L135.438 5.02C135.418 4.8 135.418 4.59 135.438 4.39C135.478 4.11 135.538 3.86 135.618 3.64C135.698 3.4 135.828 3.21 136.008 3.07C136.208 2.91 136.408 2.75 136.608 2.59C136.808 2.43 137.018 2.3 137.238 2.2C137.278 2.2 137.308 2.19 137.328 2.17C137.528 2.01 137.748 1.9 137.988 1.84C138.228 1.76 138.468 1.69 138.708 1.63C139.668 1.35 140.658 1.14 141.678 0.999999H141.978C142.178 0.999999 142.368 0.999999 142.548 0.999999C142.728 0.999999 142.918 0.989999 143.118 0.969999C143.358 0.969999 143.598 0.999999 143.838 1.06C144.078 1.1 144.308 1.17 144.528 1.27C144.688 1.35 144.848 1.44 145.008 1.54C145.168 1.62 145.318 1.71 145.458 1.81C145.618 1.93 145.718 2.06 145.758 2.2L145.848 2.41C145.948 2.59 145.998 2.78 145.998 2.98C146.018 3.16 146.008 3.35 145.968 3.55C145.968 3.61 145.958 3.68 145.938 3.76C145.938 3.82 145.938 3.88 145.938 3.94C145.878 4.38 145.668 4.72 145.308 4.96C145.088 5.16 144.798 5.24 144.438 5.2C144.358 5.16 144.318 5.18 144.318 5.26C144.318 5.34 144.268 5.38 144.168 5.38H143.988C143.868 5.38 143.748 5.32 143.628 5.2C143.528 5.1 143.478 5.02 143.478 4.96C143.478 4.88 143.518 4.82 143.598 4.78C143.558 4.68 143.518 4.59 143.478 4.51C143.438 4.43 143.398 4.37 143.358 4.33C143.298 4.23 143.208 4.16 143.088 4.12C142.988 4.1 142.888 4.08 142.788 4.06C142.688 4.04 142.588 4.02 142.488 4C142.408 4 142.318 4 142.218 4C142.118 3.98 142.018 3.96 141.918 3.94C141.858 3.92 141.768 3.93 141.648 3.97C141.588 3.99 141.528 4.01 141.468 4.03C141.408 4.03 141.338 4.02 141.258 4C141.198 4 141.128 4 141.048 4C140.988 4 140.918 4.02 140.838 4.06L140.268 4.15C139.948 4.21 139.638 4.33 139.338 4.51C139.278 4.53 139.218 4.55 139.158 4.57C139.098 4.59 139.038 4.59 138.978 4.57C138.858 4.55 138.758 4.58 138.678 4.66C138.658 4.7 138.608 4.73 138.528 4.75C138.468 4.75 138.418 4.77 138.378 4.81C138.298 4.89 138.258 4.97 138.258 5.05C138.278 5.09 138.288 5.15 138.288 5.23L138.918 7.06C139.038 7.38 139.188 7.68 139.368 7.96C139.568 8.22 139.778 8.48 139.998 8.74C140.338 9.14 140.688 9.48 141.048 9.76L142.008 10.57C142.208 10.75 142.418 10.92 142.638 11.08C142.858 11.24 143.068 11.4 143.268 11.56C143.568 11.78 143.868 12.01 144.168 12.25C144.468 12.47 144.768 12.7 145.068 12.94C145.308 13.14 145.538 13.34 145.758 13.54C145.998 13.72 146.218 13.92 146.418 14.14C146.558 14.3 146.698 14.46 146.838 14.62C146.978 14.78 147.098 14.96 147.198 15.16C147.338 15.38 147.458 15.64 147.558 15.94C147.678 16.32 147.728 16.68 147.708 17.02C147.688 17.06 147.678 17.12 147.678 17.2C147.678 17.44 147.648 17.67 147.588 17.89C147.548 18.09 147.478 18.3 147.378 18.52C147.278 18.72 147.168 18.93 147.048 19.15C146.948 19.35 146.828 19.55 146.688 19.75C146.488 20.01 146.278 20.26 146.058 20.5C145.858 20.72 145.628 20.94 145.368 21.16C145.228 21.28 145.088 21.41 144.948 21.55C144.808 21.67 144.658 21.78 144.498 21.88C144.398 21.96 144.298 22.03 144.198 22.09C144.098 22.17 143.998 22.25 143.898 22.33C143.818 22.37 143.738 22.42 143.658 22.48C143.578 22.54 143.498 22.6 143.418 22.66C143.338 22.74 143.238 22.8 143.118 22.84C143.018 22.9 142.918 22.95 142.818 22.99L141.948 23.35C141.768 23.41 141.588 23.45 141.408 23.47C141.228 23.49 141.038 23.49 140.838 23.47ZM152.691 22.3C152.571 22.3 152.491 22.29 152.451 22.27C152.371 22.23 152.301 22.2 152.241 22.18C152.181 22.16 152.121 22.14 152.061 22.12C152.001 22.08 151.941 22.04 151.881 22C151.841 21.94 151.801 21.88 151.761 21.82C151.721 21.78 151.681 21.76 151.641 21.76C151.521 21.76 151.461 21.7 151.461 21.58C151.441 21.46 151.421 21.34 151.401 21.22C151.381 21.1 151.361 20.98 151.341 20.86C151.321 20.68 151.301 20.5 151.281 20.32C151.281 20.14 151.261 19.97 151.221 19.81V19.54C151.221 19.46 151.211 19.39 151.191 19.33C151.191 19.27 151.191 19.2 151.191 19.12C151.151 19.02 151.151 18.94 151.191 18.88C151.231 18.52 151.231 18.16 151.191 17.8C151.171 17.7 151.161 17.6 151.161 17.5C151.161 17.4 151.151 17.3 151.131 17.2C151.131 17 151.131 16.8 151.131 16.6C151.131 16.38 151.111 16.17 151.071 15.97V15.49C151.071 15.33 151.061 15.18 151.041 15.04C151.041 14.9 151.031 14.76 151.011 14.62C150.991 14.44 150.971 14.26 150.951 14.08C150.951 13.9 150.941 13.72 150.921 13.54C150.901 13.5 150.891 13.43 150.891 13.33C150.871 13.23 150.851 13.13 150.831 13.03C150.831 12.91 150.831 12.8 150.831 12.7L150.741 11.2C150.721 11.04 150.701 10.89 150.681 10.75C150.681 10.59 150.681 10.44 150.681 10.3C150.661 10.06 150.641 9.82 150.621 9.58C150.601 9.34 150.581 9.11 150.561 8.89C150.561 8.85 150.551 8.81 150.531 8.77C150.531 8.73 150.531 8.7 150.531 8.68C150.531 8.44 150.521 8.2 150.501 7.96C150.481 7.72 150.461 7.47 150.441 7.21L150.351 6.37C150.291 6.05 150.281 5.7 150.321 5.32C150.321 5.14 150.391 4.99 150.531 4.87C150.571 4.83 150.601 4.81 150.621 4.81C150.641 4.79 150.661 4.77 150.681 4.75C150.781 4.73 150.831 4.66 150.831 4.54C150.831 4.5 150.871 4.48 150.951 4.48H151.101C151.121 4.48 151.131 4.48 151.131 4.48C151.151 4.46 151.171 4.45 151.191 4.45C151.231 4.43 151.261 4.41 151.281 4.39C151.321 4.35 151.351 4.33 151.371 4.33C151.411 4.33 151.451 4.34 151.491 4.36C151.531 4.36 151.571 4.37 151.611 4.39C151.651 4.39 151.681 4.38 151.701 4.36C151.801 4.34 151.901 4.35 152.001 4.39C152.121 4.41 152.221 4.44 152.301 4.48C152.421 4.5 152.511 4.58 152.571 4.72C152.631 4.9 152.681 5.08 152.721 5.26C152.781 5.42 152.821 5.59 152.841 5.77V6.01C152.881 6.15 152.901 6.3 152.901 6.46C152.901 6.6 152.901 6.75 152.901 6.91C152.901 7.05 152.901 7.19 152.901 7.33C152.921 7.45 152.941 7.57 152.961 7.69C152.961 7.75 152.961 7.81 152.961 7.87C152.961 7.93 152.971 7.99 152.991 8.05C152.991 8.17 152.991 8.29 152.991 8.41C153.011 8.53 153.031 8.66 153.051 8.8C153.071 9.02 153.091 9.25 153.111 9.49C153.131 9.73 153.141 9.97 153.141 10.21C153.141 10.31 153.141 10.42 153.141 10.54C153.141 10.64 153.151 10.74 153.171 10.84C153.191 10.9 153.201 10.96 153.201 11.02C153.201 11.08 153.201 11.14 153.201 11.2V11.8C153.201 11.92 153.211 12.02 153.231 12.1C153.271 12.24 153.281 12.38 153.261 12.52C153.261 12.64 153.271 12.77 153.291 12.91L153.381 14.29C153.401 14.49 153.411 14.7 153.411 14.92C153.431 15.12 153.441 15.33 153.441 15.55C153.441 15.63 153.441 15.72 153.441 15.82C153.441 15.9 153.451 15.98 153.471 16.06C153.491 16.12 153.501 16.18 153.501 16.24C153.501 16.3 153.501 16.36 153.501 16.42C153.521 16.44 153.521 16.48 153.501 16.54C153.501 16.58 153.511 16.62 153.531 16.66C153.571 16.8 153.591 16.94 153.591 17.08C153.591 17.22 153.591 17.37 153.591 17.53C153.591 17.61 153.591 17.7 153.591 17.8C153.611 17.88 153.621 17.97 153.621 18.07C153.641 18.17 153.651 18.28 153.651 18.4C153.651 18.52 153.651 18.63 153.651 18.73C153.671 18.83 153.681 18.94 153.681 19.06C153.681 19.16 153.691 19.26 153.711 19.36C153.731 19.4 153.741 19.44 153.741 19.48C153.741 19.7 153.761 19.92 153.801 20.14C153.841 20.36 153.881 20.58 153.921 20.8C153.941 20.86 153.951 20.93 153.951 21.01C153.951 21.07 153.951 21.13 153.951 21.19C153.951 21.25 153.931 21.3 153.891 21.34C153.811 21.4 153.751 21.52 153.711 21.7C153.711 21.76 153.681 21.81 153.621 21.85C153.481 21.91 153.361 21.99 153.261 22.09C153.101 22.23 152.911 22.3 152.691 22.3ZM160.719 22.42C160.579 22.42 160.409 22.37 160.209 22.27C160.109 22.21 160.029 22.13 159.969 22.03C159.949 21.97 159.899 21.97 159.819 22.03C159.759 22.07 159.709 22.07 159.669 22.03C159.609 21.97 159.549 21.93 159.489 21.91C159.409 21.91 159.369 21.88 159.369 21.82C159.369 21.76 159.359 21.71 159.339 21.67C159.339 21.61 159.319 21.56 159.279 21.52C159.159 21.48 159.079 21.38 159.039 21.22C159.019 21.16 158.999 21.11 158.979 21.07C158.959 21.01 158.929 20.95 158.889 20.89C158.849 20.81 158.829 20.74 158.829 20.68C158.809 20.62 158.789 20.57 158.769 20.53C158.769 20.47 158.749 20.41 158.709 20.35C158.689 20.21 158.649 20.08 158.589 19.96C158.529 19.84 158.479 19.71 158.439 19.57C158.399 19.49 158.379 19.38 158.379 19.24C158.379 18.88 158.439 18.55 158.559 18.25C158.659 18.07 158.689 17.89 158.649 17.71C158.629 17.63 158.629 17.55 158.649 17.47C158.689 17.39 158.699 17.31 158.679 17.23C158.659 17.15 158.639 17.08 158.619 17.02C158.619 16.96 158.619 16.89 158.619 16.81C158.599 16.77 158.589 16.72 158.589 16.66C158.589 16.54 158.589 16.42 158.589 16.3C158.589 16.16 158.569 16.02 158.529 15.88C158.509 15.82 158.499 15.73 158.499 15.61V14.5C158.479 14.24 158.449 13.98 158.409 13.72C158.369 13.46 158.319 13.2 158.259 12.94C158.259 12.88 158.249 12.82 158.229 12.76C158.229 12.7 158.229 12.64 158.229 12.58C158.229 12.14 158.159 11.71 158.019 11.29V11.02C158.059 10.8 158.039 10.63 157.959 10.51C157.939 10.43 157.929 10.32 157.929 10.18V10.15C157.929 9.95 157.919 9.75 157.899 9.55C157.899 9.35 157.909 9.15 157.929 8.95C157.969 8.59 157.969 8.21 157.929 7.81C157.929 7.65 157.929 7.49 157.929 7.33C157.929 7.17 157.919 7.02 157.899 6.88V6.7C157.939 6.6 157.959 6.51 157.959 6.43C157.959 6.35 157.959 6.27 157.959 6.19C157.959 5.95 157.949 5.72 157.929 5.5C157.929 5.26 157.909 5.03 157.869 4.81C157.869 4.75 157.869 4.69 157.869 4.63C157.869 4.55 157.859 4.48 157.839 4.42C157.839 4.28 157.789 4.16 157.689 4.06L157.479 3.88C157.279 3.76 157.149 3.57 157.089 3.31C157.069 3.27 157.059 3.24 157.059 3.22C157.059 3.18 157.049 3.14 157.029 3.1C156.989 3 157.009 2.91 157.089 2.83C157.149 2.75 157.189 2.67 157.209 2.59C157.209 2.53 157.219 2.48 157.239 2.44C157.279 2.38 157.309 2.32 157.329 2.26C157.349 2.2 157.369 2.13 157.389 2.05C157.429 1.99 157.459 1.97 157.479 1.99C157.619 1.99 157.719 1.97 157.779 1.93C157.919 1.83 158.069 1.81 158.229 1.87C158.269 1.89 158.329 1.88 158.409 1.84C158.429 1.84 158.439 1.83 158.439 1.81C158.539 1.71 158.649 1.66 158.769 1.66C158.889 1.64 159.019 1.64 159.159 1.66C159.179 1.66 159.199 1.67 159.219 1.69C159.239 1.69 159.259 1.69 159.279 1.69C159.439 1.73 159.589 1.77 159.729 1.81C159.889 1.83 160.039 1.83 160.179 1.81C160.279 1.81 160.379 1.82 160.479 1.84C160.599 1.86 160.709 1.87 160.809 1.87C160.889 1.87 160.959 1.88 161.019 1.9C161.099 1.92 161.169 1.94 161.229 1.96C161.309 1.98 161.379 2.01 161.439 2.05C161.499 2.07 161.569 2.08 161.649 2.08C161.749 2.1 161.829 2.12 161.889 2.14C161.969 2.16 162.049 2.19 162.129 2.23C162.389 2.37 162.649 2.5 162.909 2.62C163.029 2.68 163.139 2.76 163.239 2.86C163.379 2.96 163.499 3.02 163.599 3.04C163.619 3.04 163.639 3.05 163.659 3.07C163.679 3.07 163.699 3.07 163.719 3.07C163.739 3.09 163.759 3.1 163.779 3.1C163.799 3.1 163.819 3.11 163.839 3.13C163.939 3.23 164.059 3.31 164.199 3.37C164.359 3.41 164.489 3.48 164.589 3.58C164.629 3.62 164.689 3.66 164.769 3.7C164.929 3.76 165.069 3.85 165.189 3.97C165.229 4.01 165.259 4.03 165.279 4.03C165.359 4.03 165.449 4.08 165.549 4.18L166.179 4.84C166.259 4.92 166.319 4.99 166.359 5.05C166.459 5.19 166.569 5.32 166.689 5.44C166.809 5.56 166.929 5.68 167.049 5.8C167.089 5.84 167.129 5.89 167.169 5.95C167.229 5.99 167.269 6.04 167.289 6.1C167.309 6.14 167.339 6.18 167.379 6.22C167.419 6.24 167.449 6.27 167.469 6.31C167.689 6.55 167.899 6.8 168.099 7.06C168.319 7.32 168.519 7.59 168.699 7.87C168.799 8.01 168.889 8.16 168.969 8.32C169.049 8.48 169.119 8.64 169.179 8.8C169.239 8.94 169.299 9.08 169.359 9.22C169.439 9.36 169.509 9.5 169.569 9.64C169.629 9.86 169.699 10.06 169.779 10.24C169.859 10.5 169.939 10.75 170.019 10.99C170.099 11.23 170.169 11.49 170.229 11.77L170.319 12.16C170.319 12.32 170.319 12.49 170.319 12.67C170.339 12.83 170.349 13 170.349 13.18C170.349 13.26 170.339 13.33 170.319 13.39C170.319 13.45 170.299 13.52 170.259 13.6C170.219 13.72 170.199 13.83 170.199 13.93C170.179 14.13 170.129 14.32 170.049 14.5C169.989 14.68 169.919 14.85 169.839 15.01C169.659 15.33 169.499 15.65 169.359 15.97C169.319 16.05 169.279 16.13 169.239 16.21C169.219 16.27 169.189 16.34 169.149 16.42L168.969 16.78C168.829 17.06 168.659 17.34 168.459 17.62C168.279 17.88 168.079 18.13 167.859 18.37C167.779 18.47 167.679 18.57 167.559 18.67C167.459 18.75 167.359 18.84 167.259 18.94C167.059 19.12 166.859 19.3 166.659 19.48C166.459 19.64 166.249 19.8 166.029 19.96C165.829 20.1 165.619 20.23 165.399 20.35C165.199 20.47 164.979 20.57 164.739 20.65C164.619 20.67 164.499 20.73 164.379 20.83C164.259 20.91 164.129 20.99 163.989 21.07C163.869 21.15 163.739 21.24 163.599 21.34C163.539 21.36 163.479 21.39 163.419 21.43C163.359 21.45 163.289 21.47 163.209 21.49C163.149 21.51 163.079 21.53 162.999 21.55C162.939 21.57 162.879 21.59 162.819 21.61C162.739 21.63 162.659 21.66 162.579 21.7C162.519 21.74 162.459 21.79 162.399 21.85C162.259 21.95 162.109 22.03 161.949 22.09C161.789 22.17 161.629 22.26 161.469 22.36C161.429 22.38 161.359 22.39 161.259 22.39C161.199 22.41 161.139 22.41 161.079 22.39C161.019 22.39 160.959 22.39 160.899 22.39V22.42H160.719ZM161.919 19.06C162.119 19.06 162.289 19.02 162.429 18.94C162.589 18.88 162.739 18.81 162.879 18.73C163.019 18.65 163.149 18.56 163.269 18.46L163.629 18.1C163.829 17.94 164.009 17.77 164.169 17.59C164.349 17.41 164.539 17.25 164.739 17.11C164.779 17.07 164.799 17.05 164.799 17.05C164.879 16.97 164.949 16.9 165.009 16.84C165.089 16.76 165.159 16.68 165.219 16.6C165.259 16.56 165.309 16.51 165.369 16.45C165.429 16.39 165.469 16.34 165.489 16.3C165.569 16.16 165.679 16.04 165.819 15.94C165.919 15.88 165.979 15.82 165.999 15.76C166.039 15.66 166.089 15.56 166.149 15.46C166.229 15.36 166.309 15.27 166.389 15.19C166.489 15.07 166.589 14.89 166.689 14.65L166.809 14.35C166.929 14.07 166.989 13.81 166.989 13.57C167.009 13.51 167.019 13.42 167.019 13.3C167.039 13 167.019 12.68 166.959 12.34C166.939 12.24 166.919 12.14 166.899 12.04C166.879 11.94 166.869 11.85 166.869 11.77C166.849 11.69 166.829 11.62 166.809 11.56C166.809 11.48 166.789 11.41 166.749 11.35C166.709 11.27 166.679 11.19 166.659 11.11C166.639 11.03 166.619 10.95 166.599 10.87C166.599 10.73 166.579 10.61 166.539 10.51C166.499 10.39 166.459 10.27 166.419 10.15C166.359 10.03 166.299 9.91 166.239 9.79C166.179 9.65 166.129 9.51 166.089 9.37L166.059 9.25C165.999 9.17 165.949 9.09 165.909 9.01C165.889 8.91 165.859 8.82 165.819 8.74C165.739 8.56 165.659 8.38 165.579 8.2C165.519 8.02 165.439 7.85 165.339 7.69C165.239 7.51 165.129 7.33 165.009 7.15C164.909 6.97 164.779 6.81 164.619 6.67C164.159 6.17 163.629 5.72 163.029 5.32C162.669 5.06 162.309 4.89 161.949 4.81C161.809 4.77 161.649 4.74 161.469 4.72C161.289 4.68 161.119 4.65 160.959 4.63C160.899 4.63 160.849 4.65 160.809 4.69C160.709 4.77 160.659 4.87 160.659 4.99C160.659 5.13 160.649 5.28 160.629 5.44C160.629 5.58 160.629 5.73 160.629 5.89C160.669 6.17 160.659 6.4 160.599 6.58C160.579 6.66 160.559 6.74 160.539 6.82C160.539 6.9 160.549 6.99 160.569 7.09C160.609 7.21 160.599 7.32 160.539 7.42C160.479 7.54 160.479 7.67 160.539 7.81C160.619 7.97 160.639 8.17 160.599 8.41C160.539 8.65 160.539 8.89 160.599 9.13C160.619 9.21 160.629 9.29 160.629 9.37C160.649 9.45 160.649 9.54 160.629 9.64C160.629 9.86 160.639 10.08 160.659 10.3C160.699 10.52 160.729 10.74 160.749 10.96C160.749 11 160.769 11.06 160.809 11.14V11.62C160.809 11.66 160.799 11.71 160.779 11.77C160.779 11.81 160.789 11.85 160.809 11.89C160.849 12.05 160.879 12.22 160.899 12.4C160.939 12.56 160.979 12.72 161.019 12.88C161.019 12.92 161.029 12.97 161.049 13.03C161.069 13.07 161.079 13.12 161.079 13.18C161.079 13.32 161.089 13.46 161.109 13.6C161.129 13.74 161.149 13.89 161.169 14.05C161.229 14.61 161.319 15.18 161.439 15.76C161.499 16 161.529 16.25 161.529 16.51C161.529 16.57 161.529 16.64 161.529 16.72C161.529 16.78 161.539 16.84 161.559 16.9C161.599 17.04 161.619 17.18 161.619 17.32C161.619 17.46 161.619 17.6 161.619 17.74C161.619 17.78 161.609 17.83 161.589 17.89C161.589 17.95 161.599 18 161.619 18.04C161.659 18.14 161.679 18.24 161.679 18.34C161.679 18.42 161.679 18.51 161.679 18.61C161.679 18.69 161.699 18.79 161.739 18.91C161.739 19.01 161.799 19.06 161.919 19.06ZM176.564 22.21C176.444 22.21 176.364 22.2 176.324 22.18C176.224 22.14 176.124 22.12 176.024 22.12C175.944 22.14 175.854 22.15 175.754 22.15C175.734 22.15 175.714 22.15 175.694 22.15C175.674 22.17 175.654 22.18 175.634 22.18C175.494 22.2 175.354 22.21 175.214 22.21C175.094 22.21 174.974 22.19 174.854 22.15C174.834 22.13 174.814 22.12 174.794 22.12C174.654 22.14 174.534 22.1 174.434 22C174.334 21.9 174.234 21.81 174.134 21.73C174.034 21.63 173.984 21.52 173.984 21.4L173.894 21.16C173.834 21.02 173.814 20.89 173.834 20.77C173.854 20.73 173.854 20.69 173.834 20.65C173.834 20.61 173.834 20.57 173.834 20.53C173.814 20.49 173.804 20.45 173.804 20.41C173.804 20.35 173.794 20.3 173.774 20.26C173.734 20.08 173.704 19.9 173.684 19.72C173.684 19.52 173.694 19.33 173.714 19.15C173.734 19.03 173.804 18.83 173.924 18.55C174.044 18.25 174.114 18.07 174.134 18.01C174.194 17.91 174.224 17.83 174.224 17.77C174.204 17.55 174.194 17.33 174.194 17.11C174.214 16.87 174.224 16.64 174.224 16.42C174.224 16.28 174.254 16.17 174.314 16.09C174.394 15.95 174.404 15.8 174.344 15.64L174.254 15.31C174.134 15.09 174.144 14.9 174.284 14.74C174.284 14.72 174.284 14.71 174.284 14.71C174.304 14.69 174.314 14.67 174.314 14.65C174.354 14.61 174.364 14.56 174.344 14.5C174.324 14.42 174.314 14.36 174.314 14.32C174.314 14.24 174.324 14.16 174.344 14.08C174.384 13.98 174.394 13.89 174.374 13.81C174.374 13.81 174.354 13.79 174.314 13.75C174.294 13.71 174.284 13.63 174.284 13.51C174.304 13.39 174.314 13.32 174.314 13.3V12.46C174.334 12.36 174.344 12.27 174.344 12.19C174.344 12.09 174.354 11.99 174.374 11.89C174.394 11.77 174.394 11.65 174.374 11.53C174.374 11.39 174.374 11.25 174.374 11.11C174.354 11.01 174.334 10.9 174.314 10.78C174.314 10.66 174.314 10.54 174.314 10.42C174.294 10.38 174.284 10.33 174.284 10.27C174.284 10.21 174.284 10.16 174.284 10.12C174.264 10.02 174.244 9.92 174.224 9.82C174.224 9.72 174.224 9.62 174.224 9.52C174.224 9.48 174.184 9.35 174.104 9.13C174.024 8.89 173.994 8.69 174.014 8.53C174.034 8.49 174.044 8.44 174.044 8.38C174.044 8.32 174.024 8.27 173.984 8.23C173.944 8.21 173.924 8.17 173.924 8.11V8.02C173.984 7.78 173.954 7.54 173.834 7.3C173.754 7.18 173.724 7.06 173.744 6.94C173.744 6.78 173.674 6.66 173.534 6.58C173.434 6.48 173.344 6.36 173.264 6.22C173.184 6.08 173.134 5.94 173.114 5.8C173.094 5.7 173.084 5.6 173.084 5.5C173.084 5.4 173.084 5.31 173.084 5.23C173.084 5.15 173.094 5.1 173.114 5.08C173.194 5 173.234 4.91 173.234 4.81C173.234 4.69 173.244 4.6 173.264 4.54C173.284 4.52 173.304 4.51 173.324 4.51C173.344 4.51 173.364 4.5 173.384 4.48C173.464 4.46 173.504 4.39 173.504 4.27C173.464 4.19 173.444 4.12 173.444 4.06C173.424 3.98 173.454 3.91 173.534 3.85C173.574 3.77 173.624 3.75 173.684 3.79C173.824 3.85 173.984 3.83 174.164 3.73C174.244 3.69 174.294 3.67 174.314 3.67C174.374 3.67 174.404 3.67 174.404 3.67C174.424 3.65 174.484 3.64 174.584 3.64C174.704 3.66 174.814 3.62 174.914 3.52C175.054 3.38 175.224 3.31 175.424 3.31H177.284C177.744 3.33 178.204 3.33 178.664 3.31C179.124 3.29 179.574 3.28 180.014 3.28C180.114 3.28 180.194 3.28 180.254 3.28C180.334 3.26 180.414 3.24 180.494 3.22C180.614 3.16 180.754 3.13 180.914 3.13H181.604C181.764 3.13 181.904 3.13 182.024 3.13C182.164 3.11 182.304 3.09 182.444 3.07C182.524 3.05 182.594 3.04 182.654 3.04C182.734 3.04 182.814 3.04 182.894 3.04C182.974 3.04 183.054 3.04 183.134 3.04C183.214 3.04 183.294 3.03 183.374 3.01C183.534 2.99 183.704 2.98 183.884 2.98C184.064 2.96 184.234 2.95 184.394 2.95C184.474 2.95 184.544 2.95 184.604 2.95C184.684 2.93 184.764 2.91 184.844 2.89C185.004 2.85 185.154 2.83 185.294 2.83C185.454 2.81 185.604 2.79 185.744 2.77C185.904 2.75 186.054 2.73 186.194 2.71C186.354 2.69 186.504 2.67 186.644 2.65C186.824 2.65 186.954 2.67 187.034 2.71C187.154 2.79 187.264 2.86 187.364 2.92C187.484 2.98 187.594 3.06 187.694 3.16C187.774 3.24 187.824 3.31 187.844 3.37C187.864 3.45 187.884 3.53 187.904 3.61C187.924 3.69 187.944 3.78 187.964 3.88V4.09C187.944 4.19 187.924 4.3 187.904 4.42C187.904 4.52 187.894 4.63 187.874 4.75C187.834 4.83 187.784 4.9 187.724 4.96L187.184 5.5C186.984 5.56 186.784 5.6 186.584 5.62C186.404 5.64 186.214 5.64 186.014 5.62H185.804C185.704 5.64 185.604 5.65 185.504 5.65C185.404 5.65 185.304 5.64 185.204 5.62C185.084 5.6 184.964 5.6 184.844 5.62C184.724 5.62 184.604 5.62 184.484 5.62C184.404 5.62 184.324 5.63 184.244 5.65C184.184 5.65 184.114 5.64 184.034 5.62C183.934 5.6 183.834 5.6 183.734 5.62C183.654 5.62 183.564 5.63 183.464 5.65C183.384 5.65 183.294 5.66 183.194 5.68C183.114 5.68 183.024 5.68 182.924 5.68C182.664 5.72 182.384 5.74 182.084 5.74C181.804 5.74 181.524 5.76 181.244 5.8C181.064 5.78 180.894 5.79 180.734 5.83C180.574 5.85 180.404 5.87 180.224 5.89C180.064 5.91 179.894 5.92 179.714 5.92C179.534 5.92 179.364 5.94 179.204 5.98C179.004 5.98 178.804 6.01 178.604 6.07C178.424 6.11 178.234 6.14 178.034 6.16L177.824 6.19C177.684 6.19 177.554 6.21 177.434 6.25C177.314 6.27 177.184 6.3 177.044 6.34C176.964 6.36 176.884 6.38 176.804 6.4C176.724 6.4 176.634 6.41 176.534 6.43C176.474 6.43 176.404 6.45 176.324 6.49C176.264 6.51 176.234 6.57 176.234 6.67L176.324 6.94C176.344 6.98 176.334 7.08 176.294 7.24C176.274 7.4 176.254 7.52 176.234 7.6C176.234 7.66 176.244 7.72 176.264 7.78C176.284 7.84 176.304 7.9 176.324 7.96C176.384 8.12 176.414 8.3 176.414 8.5C176.414 8.68 176.434 8.85 176.474 9.01C176.494 9.09 176.504 9.18 176.504 9.28C176.504 9.36 176.514 9.45 176.534 9.55C176.534 9.59 176.534 9.64 176.534 9.7C176.554 9.74 176.564 9.79 176.564 9.85C176.564 9.91 176.554 9.95 176.534 9.97C176.474 10.05 176.444 10.14 176.444 10.24C176.444 10.34 176.444 10.44 176.444 10.54C176.544 10.74 176.594 10.94 176.594 11.14C176.594 11.34 176.594 11.54 176.594 11.74C176.594 11.8 176.644 11.82 176.744 11.8H176.774C176.814 11.72 176.854 11.66 176.894 11.62C176.954 11.62 177.024 11.6 177.104 11.56C177.164 11.52 177.244 11.5 177.344 11.5C177.504 11.52 177.654 11.52 177.794 11.5C177.934 11.46 178.074 11.42 178.214 11.38C179.154 11.14 180.034 10.83 180.854 10.45C181.074 10.35 181.304 10.27 181.544 10.21C181.784 10.13 182.024 10.08 182.264 10.06H182.354C182.534 10.04 182.714 10.02 182.894 10C183.074 9.98 183.254 9.97 183.434 9.97C183.674 9.95 183.904 9.92 184.124 9.88C184.364 9.84 184.604 9.81 184.844 9.79C184.984 9.75 185.114 9.72 185.234 9.7C185.354 9.66 185.484 9.61 185.624 9.55C185.884 9.45 186.124 9.4 186.344 9.4C186.504 9.42 186.654 9.46 186.794 9.52C186.934 9.56 187.074 9.62 187.214 9.7C187.514 9.9 187.664 10.2 187.664 10.6C187.664 10.76 187.644 10.92 187.604 11.08C187.584 11.24 187.574 11.4 187.574 11.56C187.574 11.6 187.554 11.64 187.514 11.68L187.424 11.83C187.404 11.91 187.384 11.99 187.364 12.07C187.344 12.15 187.294 12.21 187.214 12.25C187.094 12.35 186.964 12.46 186.824 12.58C186.704 12.68 186.564 12.75 186.404 12.79C186.324 12.81 186.244 12.83 186.164 12.85C186.104 12.87 186.034 12.88 185.954 12.88C185.634 12.88 185.304 12.9 184.964 12.94C184.644 12.98 184.314 13.02 183.974 13.06C183.714 13.08 183.454 13.11 183.194 13.15C182.954 13.19 182.704 13.21 182.444 13.21C182.204 13.21 181.934 13.26 181.634 13.36C181.434 13.4 181.224 13.44 181.004 13.48C180.784 13.52 180.564 13.55 180.344 13.57C180.184 13.59 180.014 13.62 179.834 13.66C179.674 13.68 179.514 13.7 179.354 13.72L178.844 13.81C178.804 13.83 178.744 13.84 178.664 13.84C178.524 13.88 178.384 13.91 178.244 13.93C178.104 13.95 177.964 13.98 177.824 14.02C177.684 14.04 177.544 14.07 177.404 14.11C177.284 14.15 177.154 14.19 177.014 14.23C176.914 14.25 176.834 14.29 176.774 14.35C176.714 14.39 176.664 14.45 176.624 14.53C176.604 14.59 176.604 14.65 176.624 14.71C176.644 14.79 176.634 14.87 176.594 14.95C176.614 15.15 176.624 15.35 176.624 15.55C176.644 15.75 176.644 15.95 176.624 16.15C176.664 16.31 176.674 16.47 176.654 16.63C176.654 16.79 176.644 16.95 176.624 17.11C176.584 17.35 176.594 17.55 176.654 17.71C176.714 17.97 176.694 18.24 176.594 18.52C176.554 18.64 176.554 18.72 176.594 18.76C176.634 18.82 176.634 18.89 176.594 18.97V19.15C176.574 19.31 176.644 19.39 176.804 19.39H176.864C177.004 19.39 177.144 19.44 177.284 19.54C177.384 19.64 177.504 19.67 177.644 19.63L178.484 19.54C178.604 19.52 178.724 19.51 178.844 19.51C178.964 19.49 179.084 19.48 179.204 19.48C179.244 19.46 179.304 19.47 179.384 19.51C179.484 19.57 179.574 19.58 179.654 19.54C179.694 19.5 179.744 19.47 179.804 19.45C179.884 19.43 179.944 19.4 179.984 19.36C180.104 19.24 180.254 19.2 180.434 19.24C180.594 19.28 180.724 19.27 180.824 19.21C181.004 19.15 181.174 19.13 181.334 19.15C181.434 19.17 181.534 19.16 181.634 19.12C181.734 19.08 181.834 19.06 181.934 19.06C181.974 19.06 182.004 19.07 182.024 19.09C182.044 19.09 182.064 19.08 182.084 19.06C182.124 19.06 182.164 19.05 182.204 19.03C182.244 19.01 182.274 19 182.294 19C182.434 18.94 182.564 18.92 182.684 18.94C182.784 18.94 182.834 18.94 182.834 18.94C182.914 18.92 182.984 18.92 183.044 18.94C183.124 18.96 183.194 18.99 183.254 19.03C183.354 19.05 183.434 19.08 183.494 19.12C183.574 19.16 183.654 19.19 183.734 19.21C183.774 19.21 183.804 19.22 183.824 19.24C183.924 19.32 184.044 19.39 184.184 19.45C184.344 19.51 184.434 19.58 184.454 19.66C184.494 19.78 184.514 19.9 184.514 20.02C184.514 20.12 184.524 20.23 184.544 20.35C184.544 20.41 184.534 20.47 184.514 20.53C184.514 20.59 184.504 20.65 184.484 20.71C184.444 20.79 184.394 20.88 184.334 20.98C184.294 21.08 184.234 21.17 184.154 21.25C184.114 21.29 184.074 21.33 184.034 21.37C184.014 21.41 183.984 21.45 183.944 21.49C183.864 21.57 183.774 21.64 183.674 21.7C183.574 21.76 183.464 21.79 183.344 21.79C183.264 21.79 183.204 21.8 183.164 21.82C183.084 21.86 183.004 21.88 182.924 21.88C182.844 21.88 182.754 21.88 182.654 21.88C182.514 21.9 182.374 21.92 182.234 21.94C182.114 21.94 181.984 21.93 181.844 21.91C181.764 21.89 181.694 21.89 181.634 21.91C181.434 21.97 181.234 21.98 181.034 21.94C180.834 21.94 180.634 21.95 180.434 21.97C180.254 21.97 180.074 21.97 179.894 21.97H179.504C179.444 21.97 179.394 21.98 179.354 22C179.274 22.04 179.174 22.06 179.054 22.06C178.954 22.06 178.854 22.05 178.754 22.03H178.454C178.434 22.03 178.404 22.03 178.364 22.03C178.324 22.05 178.284 22.05 178.244 22.03C178.184 22.01 178.124 22 178.064 22C178.024 22.02 177.974 22.04 177.914 22.06C177.874 22.06 177.834 22.06 177.794 22.06C177.774 22.08 177.744 22.09 177.704 22.09C177.504 22.07 177.314 22.07 177.134 22.09C176.954 22.13 176.764 22.17 176.564 22.21Z" fill="#353535"/>
</svg>
