<svg width="104" height="28" viewBox="0 0 104 28" fill="none" xmlns="http://www.w3.org/2000/svg">
<path d="M2.87873 27.8C2.62206 27.7533 2.44706 27.6367 2.35373 27.45C2.28373 27.31 2.2254 27.1583 2.17873 26.995C2.1554 26.855 2.13206 26.715 2.10873 26.575C2.0854 26.3883 2.06206 26.19 2.03873 25.98C2.0154 25.7933 1.99206 25.6067 1.96873 25.42C1.9454 25.1867 1.9104 24.965 1.86373 24.755C1.81706 24.545 1.74706 24.3233 1.65373 24.09C1.6304 24.02 1.60706 23.9617 1.58373 23.915C1.5604 23.845 1.5254 23.775 1.47873 23.705L1.05873 22.83C0.942064 22.5967 0.883731 22.3633 0.883731 22.13C0.860397 21.8267 0.848731 21.535 0.848731 21.255C0.848731 20.975 0.860397 20.695 0.883731 20.415C0.883731 20.3217 0.907064 20.205 0.953731 20.065C1.0004 19.8317 1.04706 19.61 1.09373 19.4C1.16373 19.1667 1.2104 18.945 1.23373 18.735C1.2804 18.455 1.32706 18.1867 1.37373 17.93C1.4204 17.65 1.4554 17.3817 1.47873 17.125C1.5254 16.8683 1.5604 16.6117 1.58373 16.355C1.60706 16.0983 1.6304 15.8417 1.65373 15.585C1.67706 15.3983 1.7004 15.2233 1.72373 15.06C1.74706 14.8733 1.7704 14.6983 1.79373 14.535C1.81706 14.465 1.82873 14.36 1.82873 14.22C1.82873 14.1033 1.8404 13.9867 1.86373 13.87C1.88706 13.73 1.9104 13.6017 1.93373 13.485C1.9804 13.2983 2.00373 13.1117 2.00373 12.925C2.02706 12.715 2.0504 12.5167 2.07373 12.33C2.09706 12.26 2.10873 12.1667 2.10873 12.05C2.17873 11.7933 2.2254 11.525 2.24873 11.245C2.2954 10.965 2.3304 10.685 2.35373 10.405L2.45873 9.81C2.5054 9.55333 2.5404 9.29667 2.56373 9.04C2.58706 8.76 2.6104 8.49167 2.63373 8.235C2.6804 7.97833 2.70373 7.72167 2.70373 7.465C2.70373 7.185 2.70373 6.91667 2.70373 6.66C2.70373 6.52 2.70373 6.39167 2.70373 6.275C2.72706 6.135 2.7504 5.995 2.77373 5.855C2.8204 5.24833 2.77373 4.665 2.63373 4.105C2.6104 4.08167 2.59873 4.05833 2.59873 4.035C2.5054 3.73167 2.49373 3.45167 2.56373 3.195C2.63373 2.93833 2.7504 2.69333 2.91373 2.46C3.19373 1.99333 3.5904 1.71333 4.10373 1.62C4.19706 1.59667 4.27873 1.585 4.34873 1.585C4.41873 1.56167 4.5004 1.56167 4.59373 1.585C4.68706 1.63167 4.76873 1.655 4.83873 1.655C5.04873 1.67833 5.24706 1.77167 5.43373 1.935L5.74873 2.355C5.91206 2.635 6.06373 2.845 6.20373 2.985C6.57706 3.45167 6.90373 3.95333 7.18373 4.49C7.34706 4.79333 7.48706 5.09667 7.60373 5.4C7.74373 5.68 7.88373 5.96 8.02373 6.24C8.09373 6.40333 8.15206 6.555 8.19873 6.695C8.26873 6.835 8.33873 6.975 8.40873 7.115C8.4554 7.185 8.5254 7.26667 8.61873 7.36C8.71206 7.5 8.75873 7.605 8.75873 7.675C8.8054 7.76833 8.79373 7.85 8.72373 7.92C8.7004 7.94333 8.7004 7.97833 8.72373 8.025C8.74706 8.07167 8.7704 8.11833 8.79373 8.165C8.81706 8.18833 8.86373 8.32833 8.93373 8.585C9.00373 8.81833 9.02706 8.9 9.00373 8.83C9.0504 8.94667 9.1204 9.005 9.21373 9.005C9.28373 9.02833 9.3304 9.075 9.35373 9.145C9.37706 9.19167 9.34206 9.25 9.24873 9.32C9.17873 9.34333 9.17873 9.43667 9.24873 9.6C9.31873 9.74 9.3654 9.83333 9.38873 9.88C9.48206 10.1133 9.56373 10.3467 9.63373 10.58C9.70373 10.79 9.7854 11.0117 9.87873 11.245C9.9954 11.5483 10.1004 11.8633 10.1937 12.19C10.2871 12.5167 10.3804 12.8433 10.4737 13.17C10.5437 13.4033 10.6137 13.6367 10.6837 13.87C10.7771 14.08 10.8587 14.29 10.9287 14.5C10.9287 14.5467 10.9521 14.57 10.9987 14.57L11.0687 14.5C11.0687 14.4533 11.0921 14.3833 11.1387 14.29C11.1854 14.0333 11.2437 13.7767 11.3137 13.52C11.3837 13.24 11.4537 12.9717 11.5237 12.715C11.6404 12.365 11.7337 12.015 11.8037 11.665C11.8971 11.315 11.9904 10.965 12.0837 10.615C12.1304 10.405 12.1887 10.195 12.2587 9.985C12.3287 9.75167 12.3754 9.53 12.3987 9.32C12.4921 8.92333 12.5854 8.53833 12.6787 8.165C12.7721 7.79167 12.8537 7.41833 12.9237 7.045C12.9471 6.99833 12.9587 6.95167 12.9587 6.905C12.9821 6.85833 12.9937 6.81167 12.9937 6.765C13.0171 6.53167 13.0871 6.31 13.2037 6.1C13.4371 5.61 13.8221 5.295 14.3587 5.155C14.6154 5.085 14.8721 5.085 15.1287 5.155C15.3387 5.20167 15.4904 5.28333 15.5837 5.4C15.7471 5.56333 15.8987 5.72667 16.0387 5.89C16.2021 6.05333 16.3421 6.22833 16.4587 6.415C16.5521 6.555 16.6454 6.695 16.7387 6.835C16.8321 6.95167 16.9254 7.08 17.0187 7.22C17.0887 7.31333 17.1587 7.41833 17.2287 7.535C17.2987 7.62833 17.3571 7.73333 17.4037 7.85C17.5904 8.17667 17.7654 8.515 17.9287 8.865C18.0921 9.215 18.2321 9.57667 18.3487 9.95C18.3487 9.99667 18.3604 10.0317 18.3837 10.055C18.5004 10.2883 18.5937 10.5333 18.6637 10.79C18.7337 11.0233 18.8037 11.2683 18.8737 11.525C18.9671 11.7817 19.0371 12.0383 19.0837 12.295C19.1537 12.5517 19.2237 12.8083 19.2937 13.065C19.2937 13.1583 19.3054 13.2283 19.3287 13.275C19.3987 13.4617 19.4571 13.66 19.5037 13.87C19.5504 14.08 19.5971 14.2783 19.6437 14.465C19.6904 14.745 19.7371 15.025 19.7837 15.305C19.8304 15.585 19.8771 15.8533 19.9237 16.11C19.9704 16.46 20.0171 16.81 20.0637 17.16C20.1104 17.51 20.1687 17.86 20.2387 18.21C20.2854 18.4433 20.3204 18.6883 20.3437 18.945C20.3904 19.2017 20.4254 19.4583 20.4487 19.715C20.4487 19.785 20.4721 19.89 20.5187 20.03L20.6237 20.87C20.6237 20.9867 20.6354 21.0683 20.6587 21.115C20.7754 21.5583 20.8454 22.0133 20.8687 22.48C20.8921 22.5033 20.9037 22.5383 20.9037 22.585C20.9037 22.6083 20.9154 22.6433 20.9387 22.69L21.1837 24.09C21.2304 24.2533 21.2304 24.4283 21.1837 24.615L21.1137 24.895C21.1137 25.0817 21.0787 25.2567 21.0087 25.42C20.9387 25.5833 20.8571 25.7467 20.7637 25.91C20.6937 26.0033 20.6121 26.0967 20.5187 26.19C20.4254 26.3067 20.3204 26.4 20.2037 26.47C19.9471 26.6567 19.6904 26.6683 19.4337 26.505C18.8971 26.155 18.5004 25.7233 18.2437 25.21C18.2204 25.1167 18.1854 25.035 18.1387 24.965C18.1154 24.8717 18.1037 24.7783 18.1037 24.685L17.9987 24.02C17.9754 23.9033 17.9521 23.7867 17.9287 23.67C17.9287 23.53 17.9171 23.4017 17.8937 23.285L17.5437 21.255C17.5204 21.0917 17.4971 20.94 17.4737 20.8C17.4504 20.66 17.4271 20.5083 17.4037 20.345L17.2637 19.575C17.2171 19.3183 17.1704 19.0617 17.1237 18.805C17.0771 18.525 17.0304 18.2567 16.9837 18L16.6337 15.76C16.6104 15.4333 16.5521 15.1183 16.4587 14.815C16.3887 14.4883 16.3187 14.1733 16.2487 13.87C16.1554 13.4967 16.0504 13.1467 15.9337 12.82C15.8171 12.47 15.6887 12.1317 15.5487 11.805L15.4437 11.49C15.4204 11.42 15.3854 11.35 15.3387 11.28C15.2921 11.21 15.2454 11.1517 15.1987 11.105C15.1287 11.105 15.0937 11.1167 15.0937 11.14L14.9887 11.49C14.8954 11.7933 14.8137 12.12 14.7437 12.47C14.6737 12.7967 14.5921 13.1233 14.4987 13.45C14.4521 13.6367 14.4054 13.8233 14.3587 14.01C14.3121 14.1967 14.2654 14.3833 14.2187 14.57C14.1721 14.7333 14.1254 14.9083 14.0787 15.095C14.0554 15.2583 14.0204 15.4333 13.9737 15.62C13.9271 15.9 13.8687 16.18 13.7987 16.46C13.7287 16.74 13.6704 17.02 13.6237 17.3C13.6004 17.51 13.5654 17.72 13.5187 17.93C13.4954 18.14 13.4721 18.35 13.4487 18.56V18.77C13.4954 18.9567 13.4487 19.12 13.3087 19.26C13.2854 19.33 13.2504 19.4 13.2037 19.47C13.1804 19.5167 13.1571 19.575 13.1337 19.645C13.0871 19.855 13.0287 20.0067 12.9587 20.1L12.8537 20.345C12.8304 20.3683 12.8071 20.415 12.7837 20.485C12.7837 20.5317 12.7604 20.5783 12.7137 20.625C12.5504 20.905 12.3404 21.0917 12.0837 21.185C11.9904 21.2317 11.8971 21.2783 11.8037 21.325C11.7337 21.3717 11.6521 21.4183 11.5587 21.465C11.3254 21.5817 11.0804 21.57 10.8237 21.43C10.4737 21.1967 10.2054 20.94 10.0187 20.66L9.38873 19.75C9.38873 19.7267 9.37706 19.715 9.35373 19.715C9.35373 19.6917 9.35373 19.68 9.35373 19.68C9.2604 19.4233 9.1554 19.19 9.03873 18.98C8.92206 18.77 8.82873 18.5483 8.75873 18.315L8.33873 17.09C8.22206 16.7867 8.11706 16.4833 8.02373 16.18C7.9304 15.8767 7.8254 15.5733 7.70873 15.27L7.60373 14.99C7.55706 14.78 7.49873 14.57 7.42873 14.36C7.38206 14.15 7.32373 13.9517 7.25373 13.765C7.20706 13.555 7.14873 13.3567 7.07873 13.17C7.00873 12.96 6.9504 12.7617 6.90373 12.575C6.8104 12.3183 6.71706 12.0617 6.62373 11.805C6.55373 11.525 6.4604 11.2567 6.34373 11C6.29706 10.8367 6.22706 10.7083 6.13373 10.615C5.94706 10.4283 5.81873 10.2067 5.74873 9.95C5.74873 9.90333 5.7254 9.88 5.67873 9.88L5.60873 9.95V9.985C5.5854 10.0083 5.57373 10.0433 5.57373 10.09C5.5504 10.3233 5.52706 10.5683 5.50373 10.825C5.4804 11.0817 5.4454 11.3383 5.39873 11.595L5.29373 12.75C5.2704 12.9367 5.24706 13.1233 5.22373 13.31C5.22373 13.4967 5.21206 13.6833 5.18873 13.87C5.1654 13.9633 5.14206 14.0567 5.11873 14.15C5.11873 14.2433 5.11873 14.3483 5.11873 14.465C5.0954 15.0483 5.0254 15.6667 4.90873 16.32C4.8854 16.4833 4.86206 16.67 4.83873 16.88C4.8154 17.0667 4.79206 17.2533 4.76873 17.44L4.66373 18.21C4.59373 18.63 4.55873 19.0383 4.55873 19.435C4.55873 19.5983 4.55873 19.7617 4.55873 19.925C4.58206 20.0883 4.5704 20.2517 4.52373 20.415C4.5004 20.625 4.52373 20.87 4.59373 21.15C4.68706 21.3133 4.72206 21.4767 4.69873 21.64C4.69873 21.8033 4.6754 21.9783 4.62873 22.165C4.6054 22.305 4.55873 22.445 4.48873 22.585C4.44206 22.725 4.3604 22.8533 4.24373 22.97C4.19706 23.04 4.13873 23.1217 4.06873 23.215C4.02206 23.3083 3.96373 23.39 3.89373 23.46C3.70706 23.6933 3.61373 23.95 3.61373 24.23V25C3.61373 25.1867 3.60206 25.3617 3.57873 25.525C3.57873 25.7117 3.5904 25.8983 3.61373 26.085C3.61373 26.1083 3.60206 26.1317 3.57873 26.155C3.57873 26.1783 3.57873 26.2133 3.57873 26.26C3.5554 26.33 3.54373 26.4 3.54373 26.47C3.54373 26.54 3.54373 26.61 3.54373 26.68C3.56706 26.89 3.54373 27.1117 3.47373 27.345C3.35706 27.555 3.2054 27.695 3.01873 27.765C2.97206 27.7883 2.9254 27.8 2.87873 27.8ZM30.6294 25.35C30.606 25.3267 30.571 25.315 30.5244 25.315C30.291 25.175 30.0577 25.0467 29.8244 24.93C29.6144 24.79 29.416 24.6383 29.2294 24.475C29.136 24.4283 29.0777 24.3817 29.0544 24.335C28.8444 24.2183 28.6577 24.0783 28.4944 23.915C28.331 23.7283 28.1794 23.53 28.0394 23.32C27.9927 23.2733 27.946 23.215 27.8994 23.145C27.8527 23.075 27.7944 23.005 27.7244 22.935C27.491 22.7017 27.3044 22.4217 27.1644 22.095C27.141 22.025 27.106 21.955 27.0594 21.885C27.0127 21.815 26.966 21.745 26.9194 21.675C26.7794 21.4883 26.6744 21.3133 26.6044 21.15C26.5577 20.9633 26.4877 20.7883 26.3944 20.625C26.301 20.4383 26.2077 20.2633 26.1144 20.1C26.091 20.0067 26.056 19.9133 26.0094 19.82C25.9627 19.7267 25.9277 19.6333 25.9044 19.54C25.9044 19.4233 25.8694 19.295 25.7994 19.155C25.706 18.8983 25.6127 18.6417 25.5194 18.385C25.4494 18.105 25.3794 17.825 25.3094 17.545C25.2627 17.4517 25.2394 17.3817 25.2394 17.335C25.0994 17.0317 24.9944 16.7167 24.9244 16.39C24.8544 16.0633 24.7844 15.7483 24.7144 15.445L24.5044 13.87C24.481 13.8233 24.4694 13.765 24.4694 13.695C24.4694 13.625 24.4694 13.5667 24.4694 13.52C24.4694 13.38 24.4694 13.2517 24.4694 13.135C24.4694 12.995 24.446 12.855 24.3994 12.715C24.3527 12.4117 24.3644 12.1317 24.4344 11.875C24.4344 11.7817 24.4344 11.7 24.4344 11.63C24.4577 11.5367 24.4694 11.4433 24.4694 11.35C24.4694 11.2333 24.4694 11.1167 24.4694 11C24.4927 10.86 24.516 10.7433 24.5394 10.65C24.5627 10.58 24.5744 10.4867 24.5744 10.37C24.621 10.16 24.6444 9.96167 24.6444 9.775C24.6677 9.565 24.691 9.36667 24.7144 9.18C24.7844 8.85333 24.8194 8.53833 24.8194 8.235C24.8194 8.14167 24.8194 8.06 24.8194 7.99C24.8427 7.89667 24.866 7.80333 24.8894 7.71C24.8894 7.5 24.8777 7.34833 24.8544 7.255C24.7844 7.16167 24.7727 7.03333 24.8194 6.87C24.866 6.77667 24.8894 6.70667 24.8894 6.66C24.9127 6.61333 24.9244 6.56667 24.9244 6.52C24.9244 6.45 24.9594 6.40333 25.0294 6.38H25.2744C25.3677 6.38 25.426 6.345 25.4494 6.275C25.4727 6.18167 25.5544 6.11167 25.6944 6.065C25.811 6.01833 25.916 5.98333 26.0094 5.96C26.1027 5.91333 26.196 5.855 26.2894 5.785C26.3594 5.73833 26.441 5.715 26.5344 5.715C26.6277 5.715 26.721 5.72667 26.8144 5.75L27.4444 5.96C27.4677 5.98333 27.4794 5.995 27.4794 5.995C27.5027 5.995 27.526 6.00667 27.5494 6.03C27.736 6.21667 27.8877 6.42667 28.0044 6.66C28.1444 6.89333 28.226 7.15 28.2494 7.43C28.2494 7.52333 28.2494 7.61667 28.2494 7.71C28.2494 7.78 28.226 7.86167 28.1794 7.955C28.156 8.095 28.1327 8.235 28.1094 8.375C28.086 8.515 28.0627 8.66667 28.0394 8.83C27.9927 9.06333 27.9577 9.29667 27.9344 9.53C27.9344 9.74 27.9344 9.96167 27.9344 10.195C27.911 10.2883 27.8994 10.3817 27.8994 10.475C27.8994 10.545 27.8877 10.6267 27.8644 10.72C27.841 11 27.8294 11.28 27.8294 11.56C27.8294 11.84 27.8527 12.1083 27.8994 12.365C27.8994 12.3883 27.8994 12.4233 27.8994 12.47C27.9227 12.5167 27.9227 12.5633 27.8994 12.61C27.8994 12.8433 27.9227 13.0883 27.9694 13.345C28.016 13.6017 28.051 13.8583 28.0744 14.115C28.0977 14.3483 28.121 14.57 28.1444 14.78C28.1677 14.99 28.2027 15.2 28.2494 15.41C28.296 15.5033 28.3194 15.5967 28.3194 15.69C28.3427 15.7833 28.366 15.8767 28.3894 15.97C28.4827 16.4133 28.5877 16.845 28.7044 17.265C28.821 17.685 28.9727 18.105 29.1594 18.525C29.276 18.7817 29.3927 19.0033 29.5094 19.19C29.696 19.5167 29.8594 19.8433 29.9994 20.17C30.0927 20.3333 30.186 20.4967 30.2794 20.66C30.3727 20.8 30.466 20.9517 30.5594 21.115C30.6527 21.2317 30.746 21.3367 30.8394 21.43C30.9327 21.5233 31.026 21.6283 31.1194 21.745C31.236 21.8617 31.3877 21.8967 31.5744 21.85C31.691 21.8033 31.7727 21.7567 31.8194 21.71C31.936 21.64 32.041 21.57 32.1344 21.5C32.251 21.43 32.356 21.3483 32.4494 21.255C32.706 20.9983 32.9394 20.7417 33.1494 20.485C33.3827 20.2283 33.581 19.9483 33.7444 19.645C33.8844 19.3883 34.0244 19.12 34.1644 18.84C34.3044 18.56 34.4327 18.28 34.5494 18C34.6894 17.6733 34.8177 17.3467 34.9344 17.02C35.0744 16.6933 35.2027 16.355 35.3194 16.005C35.4127 15.7717 35.4827 15.5383 35.5294 15.305C35.5994 15.0483 35.646 14.8033 35.6694 14.57C35.716 14.3133 35.751 14.0567 35.7744 13.8C35.821 13.52 35.8327 13.2517 35.8094 12.995C35.8094 12.925 35.8094 12.855 35.8094 12.785C35.8327 12.715 35.8444 12.645 35.8444 12.575C35.891 12.4117 35.9027 12.26 35.8794 12.12C35.8794 11.98 35.8677 11.84 35.8444 11.7C35.821 11.3033 35.786 10.93 35.7394 10.58C35.716 10.2067 35.6927 9.83333 35.6694 9.46C35.6694 9.27333 35.6577 9.145 35.6344 9.075C35.611 8.865 35.5877 8.655 35.5644 8.445C35.5644 8.235 35.541 8.025 35.4944 7.815V7.535C35.4944 7.30167 35.4827 7.08 35.4594 6.87C35.4594 6.63667 35.4594 6.40333 35.4594 6.17C35.4594 5.98333 35.4477 5.82 35.4244 5.68C35.4244 5.51667 35.4244 5.35333 35.4244 5.19C35.4244 4.98 35.4594 4.805 35.5294 4.665C35.5994 4.54833 35.6227 4.455 35.5994 4.385C35.5294 4.245 35.5644 4.14 35.7044 4.07C35.821 3.95333 35.9377 3.86 36.0544 3.79C36.1944 3.72 36.346 3.67333 36.5094 3.65C36.556 3.62667 36.591 3.615 36.6144 3.615C36.661 3.615 36.696 3.60333 36.7194 3.58C36.8594 3.46333 37.046 3.42833 37.2794 3.475C37.326 3.49833 37.396 3.51 37.4894 3.51C37.6994 3.55667 37.851 3.63833 37.9444 3.755C38.0144 3.825 38.1194 3.90667 38.2594 4C38.446 4.09333 38.5744 4.21 38.6444 4.35C38.7144 4.49 38.761 4.64167 38.7844 4.805C38.831 5.03833 38.866 5.26 38.8894 5.47C38.936 5.68 38.9477 5.90167 38.9244 6.135V6.45C38.9244 6.68333 38.9244 6.91667 38.9244 7.15C38.9477 7.36 38.971 7.58167 38.9944 7.815C39.0177 7.885 39.0294 7.96667 39.0294 8.06C39.0294 8.13 39.0294 8.2 39.0294 8.27C39.0294 8.41 39.0294 8.55 39.0294 8.69C39.0527 8.80667 39.076 8.935 39.0994 9.075C39.1227 9.12167 39.1344 9.19167 39.1344 9.285C39.111 9.51833 39.111 9.75167 39.1344 9.985C39.181 10.195 39.216 10.4167 39.2394 10.65C39.2627 10.8833 39.2744 11.1283 39.2744 11.385C39.2977 11.6417 39.3094 11.8983 39.3094 12.155C39.3327 12.1783 39.3327 12.2133 39.3094 12.26C39.3094 12.3067 39.3094 12.3533 39.3094 12.4C39.2394 12.61 39.2277 12.855 39.2744 13.135C39.321 13.4383 39.3094 13.73 39.2394 14.01C39.216 14.22 39.1927 14.43 39.1694 14.64C39.146 14.85 39.111 15.0717 39.0644 15.305C39.0177 15.6783 38.936 16.0517 38.8194 16.425C38.7027 16.7983 38.586 17.1717 38.4694 17.545C38.4694 17.5917 38.4344 17.6733 38.3644 17.79C38.271 17.9533 38.1894 18.1283 38.1194 18.315C38.0494 18.4783 37.991 18.6533 37.9444 18.84L37.8394 19.085C37.7227 19.3183 37.6177 19.5517 37.5244 19.785C37.4544 19.995 37.361 20.2167 37.2444 20.45C37.1744 20.59 37.1044 20.73 37.0344 20.87C36.9644 21.01 36.8827 21.1383 36.7894 21.255C36.766 21.3017 36.731 21.3483 36.6844 21.395C36.6377 21.5583 36.5677 21.71 36.4744 21.85C36.381 21.99 36.2877 22.13 36.1944 22.27C35.9377 22.6667 35.6344 23.04 35.2844 23.39C34.9577 23.74 34.596 24.0667 34.1994 24.37L33.7794 24.615C33.4527 24.7783 33.1027 24.9183 32.7294 25.035C32.3794 25.1517 32.0177 25.2333 31.6444 25.28C31.5277 25.3033 31.3994 25.3033 31.2594 25.28C31.1894 25.28 31.1194 25.28 31.0494 25.28C30.9794 25.28 30.9094 25.3033 30.8394 25.35H30.6294ZM48.7462 26.715L48.1512 26.61C47.8479 26.5633 47.5329 26.5167 47.2062 26.47C46.9029 26.4233 46.5879 26.3883 46.2612 26.365C45.9346 26.365 45.6079 26.2717 45.2812 26.085C44.9779 25.9217 44.7679 25.665 44.6512 25.315C44.6279 25.1983 44.5929 25.0817 44.5462 24.965C44.5229 24.8483 44.4996 24.7317 44.4762 24.615C44.4762 24.335 44.5346 24.125 44.6512 23.985C44.7679 23.8683 44.8612 23.7517 44.9312 23.635C45.0246 23.5183 45.1179 23.4133 45.2112 23.32C45.2579 23.2733 45.3046 23.2383 45.3512 23.215C45.3979 23.1917 45.4446 23.1683 45.4912 23.145C45.6079 23.075 45.7246 23.0283 45.8412 23.005C45.9579 22.9583 46.0746 22.9233 46.1912 22.9C46.2379 22.8767 46.2729 22.8767 46.2962 22.9C46.3429 22.9 46.3779 22.9 46.4012 22.9C46.5179 22.9233 46.6462 22.9467 46.7862 22.97C46.9262 22.97 47.0546 22.9933 47.1712 23.04L48.6412 23.25C48.9679 23.2967 49.2596 23.25 49.5162 23.11C49.6096 23.0633 49.6912 23.0167 49.7612 22.97C49.8546 22.9233 49.9362 22.8767 50.0062 22.83C50.5196 22.5267 50.9629 22.2117 51.3362 21.885C51.6162 21.6283 51.8846 21.3717 52.1412 21.115C52.3979 20.8583 52.6312 20.5783 52.8412 20.275C53.0046 20.065 53.1096 19.855 53.1562 19.645C53.2029 19.4117 53.2146 19.1783 53.1912 18.945L53.0862 18.665C53.0629 18.5483 53.0162 18.455 52.9462 18.385C52.8762 18.315 52.8062 18.2333 52.7362 18.14C52.5962 18.0233 52.4562 17.895 52.3162 17.755C52.1996 17.615 52.0712 17.4983 51.9312 17.405C51.5812 17.125 51.2312 16.8567 50.8812 16.6C50.5546 16.3433 50.2162 16.0867 49.8662 15.83C49.8429 15.7833 49.7729 15.7367 49.6562 15.69C49.4462 15.55 49.2362 15.3983 49.0262 15.235C48.8396 15.0483 48.6529 14.8733 48.4662 14.71C48.2329 14.4767 47.9762 14.255 47.6962 14.045C47.5562 13.975 47.4279 13.8583 47.3112 13.695C47.2179 13.5783 47.0779 13.4617 46.8912 13.345C46.7279 13.2517 46.5762 13.1467 46.4362 13.03C46.2962 12.89 46.1562 12.7617 46.0162 12.645L45.5612 12.225C45.4679 12.1083 45.3629 12.0033 45.2462 11.91C45.1529 11.7933 45.0479 11.6767 44.9312 11.56C44.8846 11.4433 44.8146 11.35 44.7212 11.28C44.6512 11.21 44.5812 11.1283 44.5112 11.035C44.4879 10.9883 44.4529 10.9417 44.4062 10.895C44.3596 10.825 44.3246 10.755 44.3012 10.685C44.1612 10.405 44.0096 10.125 43.8462 9.845C43.7062 9.565 43.5779 9.27333 43.4612 8.97C43.3912 8.78333 43.3212 8.60833 43.2512 8.445C43.2046 8.25833 43.1579 8.08333 43.1112 7.92C43.0879 7.73333 43.0412 7.57 42.9712 7.43C42.9246 7.26667 42.8779 7.10333 42.8312 6.94C42.7846 6.68333 42.7262 6.43833 42.6562 6.205C42.6096 5.94833 42.5629 5.70333 42.5162 5.47L42.4462 5.19C42.4229 4.93333 42.4229 4.68833 42.4462 4.455C42.4929 4.12833 42.5629 3.83667 42.6562 3.58C42.7496 3.3 42.9012 3.07833 43.1112 2.915C43.3446 2.72833 43.5779 2.54167 43.8112 2.355C44.0446 2.16833 44.2896 2.01667 44.5462 1.9C44.5929 1.9 44.6279 1.88833 44.6512 1.865C44.8846 1.67833 45.1412 1.55 45.4212 1.48C45.7012 1.38666 45.9812 1.305 46.2612 1.235C47.3812 0.908333 48.5362 0.663332 49.7262 0.499998H50.0762C50.3096 0.499998 50.5312 0.499998 50.7412 0.499998C50.9512 0.499998 51.1729 0.488332 51.4062 0.464999C51.6862 0.464999 51.9662 0.499999 52.2462 0.57C52.5262 0.616666 52.7946 0.698332 53.0512 0.814998C53.2379 0.908332 53.4246 1.01333 53.6112 1.13C53.7979 1.22333 53.9729 1.32833 54.1362 1.445C54.3229 1.585 54.4396 1.73667 54.4862 1.9L54.5912 2.145C54.7079 2.355 54.7662 2.57667 54.7662 2.81C54.7896 3.02 54.7779 3.24167 54.7312 3.475C54.7312 3.545 54.7196 3.62667 54.6962 3.72C54.6962 3.79 54.6962 3.86 54.6962 3.93C54.6262 4.44333 54.3812 4.84 53.9612 5.12C53.7046 5.35333 53.3662 5.44667 52.9462 5.4C52.8529 5.35333 52.8062 5.37667 52.8062 5.47C52.8062 5.56333 52.7479 5.61 52.6312 5.61H52.4212C52.2812 5.61 52.1412 5.54 52.0012 5.4C51.8846 5.28333 51.8262 5.19 51.8262 5.12C51.8262 5.02667 51.8729 4.95667 51.9662 4.91C51.9196 4.79333 51.8729 4.68833 51.8262 4.595C51.7796 4.50167 51.7329 4.43167 51.6862 4.385C51.6162 4.26833 51.5112 4.18667 51.3712 4.14C51.2546 4.11667 51.1379 4.09333 51.0212 4.07C50.9046 4.04667 50.7879 4.02333 50.6712 4C50.5779 4 50.4729 4 50.3562 4C50.2396 3.97667 50.1229 3.95333 50.0062 3.93C49.9362 3.90666 49.8312 3.91833 49.6912 3.965C49.6212 3.98833 49.5512 4.01167 49.4812 4.035C49.4112 4.035 49.3296 4.02333 49.2362 4C49.1662 4 49.0846 4 48.9912 4C48.9212 4 48.8396 4.02333 48.7462 4.07L48.0812 4.175C47.7079 4.245 47.3462 4.385 46.9962 4.595C46.9262 4.61833 46.8562 4.64167 46.7862 4.665C46.7162 4.68833 46.6462 4.68833 46.5762 4.665C46.4362 4.64167 46.3196 4.67667 46.2262 4.77C46.2029 4.81667 46.1446 4.85167 46.0512 4.875C45.9812 4.875 45.9229 4.89833 45.8762 4.945C45.7829 5.03833 45.7362 5.13167 45.7362 5.225C45.7596 5.27167 45.7712 5.34167 45.7712 5.435L46.5062 7.57C46.6462 7.94333 46.8212 8.29333 47.0312 8.62C47.2646 8.92333 47.5096 9.22667 47.7662 9.53C48.1629 9.99667 48.5712 10.3933 48.9912 10.72L50.1112 11.665C50.3446 11.875 50.5896 12.0733 50.8462 12.26C51.1029 12.4467 51.3479 12.6333 51.5812 12.82C51.9312 13.0767 52.2812 13.345 52.6312 13.625C52.9812 13.8817 53.3312 14.15 53.6812 14.43C53.9612 14.6633 54.2296 14.8967 54.4862 15.13C54.7662 15.34 55.0229 15.5733 55.2562 15.83C55.4196 16.0167 55.5829 16.2033 55.7462 16.39C55.9096 16.5767 56.0496 16.7867 56.1662 17.02C56.3296 17.2767 56.4696 17.58 56.5862 17.93C56.7262 18.3733 56.7846 18.7933 56.7612 19.19C56.7379 19.2367 56.7262 19.3067 56.7262 19.4C56.7262 19.68 56.6912 19.9483 56.6212 20.205C56.5746 20.4383 56.4929 20.6833 56.3762 20.94C56.2596 21.1733 56.1312 21.4183 55.9912 21.675C55.8746 21.9083 55.7346 22.1417 55.5712 22.375C55.3379 22.6783 55.0929 22.97 54.8362 23.25C54.6029 23.5067 54.3346 23.7633 54.0312 24.02C53.8679 24.16 53.7046 24.3117 53.5412 24.475C53.3779 24.615 53.2029 24.7433 53.0162 24.86C52.8996 24.9533 52.7829 25.035 52.6662 25.105C52.5496 25.1983 52.4329 25.2917 52.3162 25.385C52.2229 25.4317 52.1296 25.49 52.0362 25.56C51.9429 25.63 51.8496 25.7 51.7562 25.77C51.6629 25.8633 51.5462 25.9333 51.4062 25.98C51.2896 26.05 51.1729 26.1083 51.0562 26.155L50.0412 26.575C49.8312 26.645 49.6212 26.6917 49.4112 26.715C49.2012 26.7383 48.9796 26.7383 48.7462 26.715ZM62.5745 25.35C62.4345 25.35 62.3412 25.3383 62.2945 25.315C62.2012 25.2683 62.1195 25.2333 62.0495 25.21C61.9795 25.1867 61.9095 25.1633 61.8395 25.14C61.7695 25.0933 61.6995 25.0467 61.6295 25C61.5828 24.93 61.5362 24.86 61.4895 24.79C61.4428 24.7433 61.3962 24.72 61.3495 24.72C61.2095 24.72 61.1395 24.65 61.1395 24.51C61.1162 24.37 61.0928 24.23 61.0695 24.09C61.0462 23.95 61.0228 23.81 60.9995 23.67C60.9762 23.46 60.9528 23.25 60.9295 23.04C60.9295 22.83 60.9062 22.6317 60.8595 22.445V22.13C60.8595 22.0367 60.8478 21.955 60.8245 21.885C60.8245 21.815 60.8245 21.7333 60.8245 21.64C60.7778 21.5233 60.7778 21.43 60.8245 21.36C60.8712 20.94 60.8712 20.52 60.8245 20.1C60.8012 19.9833 60.7895 19.8667 60.7895 19.75C60.7895 19.6333 60.7778 19.5167 60.7545 19.4C60.7545 19.1667 60.7545 18.9333 60.7545 18.7C60.7545 18.4433 60.7312 18.1983 60.6845 17.965V17.405C60.6845 17.2183 60.6728 17.0433 60.6495 16.88C60.6495 16.7167 60.6378 16.5533 60.6145 16.39C60.5912 16.18 60.5678 15.97 60.5445 15.76C60.5445 15.55 60.5328 15.34 60.5095 15.13C60.4862 15.0833 60.4745 15.0017 60.4745 14.885C60.4512 14.7683 60.4278 14.6517 60.4045 14.535C60.4045 14.395 60.4045 14.2667 60.4045 14.15L60.2995 12.4C60.2762 12.2133 60.2528 12.0383 60.2295 11.875C60.2295 11.6883 60.2295 11.5133 60.2295 11.35C60.2062 11.07 60.1828 10.79 60.1595 10.51C60.1362 10.23 60.1128 9.96167 60.0895 9.705C60.0895 9.65833 60.0778 9.61167 60.0545 9.565C60.0545 9.51833 60.0545 9.48333 60.0545 9.46C60.0545 9.18 60.0428 8.9 60.0195 8.62C59.9962 8.34 59.9728 8.04833 59.9495 7.745L59.8445 6.765C59.7745 6.39167 59.7628 5.98333 59.8095 5.54C59.8095 5.33 59.8912 5.155 60.0545 5.015C60.1012 4.96833 60.1362 4.945 60.1595 4.945C60.1828 4.92167 60.2062 4.89833 60.2295 4.875C60.3462 4.85167 60.4045 4.77 60.4045 4.63C60.4045 4.58333 60.4512 4.56 60.5445 4.56H60.7195C60.7428 4.56 60.7545 4.56 60.7545 4.56C60.7778 4.53667 60.8012 4.525 60.8245 4.525C60.8712 4.50167 60.9062 4.47833 60.9295 4.455C60.9762 4.40833 61.0112 4.385 61.0345 4.385C61.0812 4.385 61.1278 4.39667 61.1745 4.42C61.2212 4.42 61.2678 4.43167 61.3145 4.455C61.3612 4.455 61.3962 4.44333 61.4195 4.42C61.5362 4.39667 61.6528 4.40833 61.7695 4.455C61.9095 4.47833 62.0262 4.51333 62.1195 4.56C62.2595 4.58333 62.3645 4.67667 62.4345 4.84C62.5045 5.05 62.5628 5.26 62.6095 5.47C62.6795 5.65667 62.7262 5.855 62.7495 6.065V6.345C62.7962 6.50833 62.8195 6.68333 62.8195 6.87C62.8195 7.03333 62.8195 7.20833 62.8195 7.395C62.8195 7.55833 62.8195 7.72167 62.8195 7.885C62.8428 8.025 62.8662 8.165 62.8895 8.305C62.8895 8.375 62.8895 8.445 62.8895 8.515C62.8895 8.585 62.9012 8.655 62.9245 8.725C62.9245 8.865 62.9245 9.005 62.9245 9.145C62.9478 9.285 62.9712 9.43667 62.9945 9.6C63.0178 9.85667 63.0412 10.125 63.0645 10.405C63.0878 10.685 63.0995 10.965 63.0995 11.245C63.0995 11.3617 63.0995 11.49 63.0995 11.63C63.0995 11.7467 63.1112 11.8633 63.1345 11.98C63.1578 12.05 63.1695 12.12 63.1695 12.19C63.1695 12.26 63.1695 12.33 63.1695 12.4V13.1C63.1695 13.24 63.1812 13.3567 63.2045 13.45C63.2512 13.6133 63.2628 13.7767 63.2395 13.94C63.2395 14.08 63.2512 14.2317 63.2745 14.395L63.3795 16.005C63.4028 16.2383 63.4145 16.4833 63.4145 16.74C63.4378 16.9733 63.4495 17.2183 63.4495 17.475C63.4495 17.5683 63.4495 17.6733 63.4495 17.79C63.4495 17.8833 63.4612 17.9767 63.4845 18.07C63.5078 18.14 63.5195 18.21 63.5195 18.28C63.5195 18.35 63.5195 18.42 63.5195 18.49C63.5428 18.5133 63.5428 18.56 63.5195 18.63C63.5195 18.6767 63.5312 18.7233 63.5545 18.77C63.6012 18.9333 63.6245 19.0967 63.6245 19.26C63.6245 19.4233 63.6245 19.5983 63.6245 19.785C63.6245 19.8783 63.6245 19.9833 63.6245 20.1C63.6478 20.1933 63.6595 20.2983 63.6595 20.415C63.6828 20.5317 63.6945 20.66 63.6945 20.8C63.6945 20.94 63.6945 21.0683 63.6945 21.185C63.7178 21.3017 63.7295 21.43 63.7295 21.57C63.7295 21.6867 63.7412 21.8033 63.7645 21.92C63.7878 21.9667 63.7995 22.0133 63.7995 22.06C63.7995 22.3167 63.8228 22.5733 63.8695 22.83C63.9162 23.0867 63.9628 23.3433 64.0095 23.6C64.0328 23.67 64.0445 23.7517 64.0445 23.845C64.0445 23.915 64.0445 23.985 64.0445 24.055C64.0445 24.125 64.0212 24.1833 63.9745 24.23C63.8812 24.3 63.8112 24.44 63.7645 24.65C63.7645 24.72 63.7295 24.7783 63.6595 24.825C63.4962 24.895 63.3562 24.9883 63.2395 25.105C63.0528 25.2683 62.8312 25.35 62.5745 25.35ZM73.935 25.175C73.8417 25.175 73.76 25.175 73.69 25.175C73.62 25.175 73.5384 25.1633 73.445 25.14C73.3984 25.14 73.34 25.1283 73.27 25.105C73.2234 25.105 73.1767 25.105 73.13 25.105C72.7567 25.0817 72.4067 25.0117 72.08 24.895C71.7534 24.7783 71.4267 24.6383 71.1 24.475C71.0767 24.475 71.0534 24.475 71.03 24.475C71.03 24.4517 71.0184 24.44 70.995 24.44C70.7617 24.3233 70.5517 24.1833 70.365 24.02C70.2017 23.8567 70.0384 23.6933 69.875 23.53C69.6884 23.2967 69.56 23.075 69.49 22.865C69.3967 22.6783 69.28 22.48 69.14 22.27C68.9067 22.0133 68.7317 21.6867 68.615 21.29C68.545 21.1033 68.475 20.9167 68.405 20.73C68.335 20.5433 68.2767 20.345 68.23 20.135C68.2067 20.065 68.1834 19.995 68.16 19.925C68.1367 19.8317 68.1017 19.7383 68.055 19.645C68.0084 19.5283 67.9617 19.4 67.915 19.26C67.8917 19.12 67.8567 18.98 67.81 18.84C67.7867 18.7467 67.7517 18.595 67.705 18.385C67.6817 18.1517 67.67 18.0117 67.67 17.965V16.46C67.6934 16.32 67.7167 16.1917 67.74 16.075C67.7634 15.935 67.7867 15.795 67.81 15.655L67.845 15.62C67.845 15.6433 67.845 15.655 67.845 15.655C67.8684 15.655 67.88 15.6667 67.88 15.69C67.9034 15.69 67.915 15.7017 67.915 15.725C67.9384 15.7483 67.95 15.7367 67.95 15.69C67.95 15.55 67.9384 15.4333 67.915 15.34C67.915 15.2933 67.9034 15.2467 67.88 15.2C67.88 15.1533 67.9267 15.1183 68.02 15.095C68.0434 15.095 68.055 15.06 68.055 14.99L68.37 13.45C68.3934 13.3333 68.4167 13.2283 68.44 13.135C68.4634 13.0183 68.4867 12.9133 68.51 12.82L68.58 12.435C68.5567 12.4817 68.5684 12.4 68.615 12.19C68.685 11.98 68.7317 11.84 68.755 11.77C68.8017 11.6533 68.86 11.5367 68.93 11.42C69.0234 11.3033 69.0817 11.2217 69.105 11.175C69.2917 10.965 69.4667 10.6733 69.63 10.3L70.295 9.25C70.3884 9.15667 70.435 9.04 70.435 8.9C70.4117 8.78333 70.4467 8.655 70.54 8.515C70.61 8.375 70.68 8.235 70.75 8.095C70.8434 7.955 70.9367 7.815 71.03 7.675C71.1467 7.48833 71.275 7.30167 71.415 7.115C71.5784 6.905 71.73 6.71833 71.87 6.555C71.9167 6.485 71.9634 6.415 72.01 6.345C72.08 6.275 72.1617 6.22833 72.255 6.205C72.3017 6.205 72.3367 6.19333 72.36 6.17C72.3834 6.14667 72.4067 6.12333 72.43 6.1C72.8967 5.61 73.4217 5.155 74.005 4.735C74.0517 4.68833 74.0984 4.64167 74.145 4.595C74.1917 4.54833 74.2384 4.51333 74.285 4.49C74.4017 4.42 74.53 4.385 74.67 4.385C74.7867 4.385 74.88 4.37333 74.95 4.35C75.02 4.35 75.125 4.32667 75.265 4.28C75.4284 4.23333 75.5567 4.25667 75.65 4.35C75.79 4.49 76.0234 4.53667 76.35 4.49C76.56 4.46667 76.735 4.58333 76.875 4.84C76.9217 4.91 76.9567 4.98 76.98 5.05C77.0267 5.12 77.085 5.17833 77.155 5.225C77.225 5.365 77.3184 5.49333 77.435 5.61C77.575 5.72667 77.6917 5.84333 77.785 5.96L78.24 6.59C78.2867 6.66 78.3334 6.74167 78.38 6.835C78.45 6.905 78.5084 6.975 78.555 7.045C78.6717 7.16167 78.7417 7.27833 78.765 7.395C78.8117 7.51167 78.8467 7.59333 78.87 7.64C78.9167 7.66333 78.9517 7.76833 78.975 7.955C78.9984 8.04833 78.9984 8.10667 78.975 8.13C78.975 8.13 79.0217 8.13 79.115 8.13C79.2084 8.13 79.255 8.18833 79.255 8.305C79.255 8.56167 79.2084 8.78333 79.115 8.97C79.0684 9.04 79.0217 9.075 78.975 9.075C78.9517 9.075 78.9167 9.09833 78.87 9.145C78.8 9.26167 78.7184 9.37833 78.625 9.495C78.555 9.61167 78.4734 9.74 78.38 9.88C78.31 9.99667 78.2167 10.1017 78.1 10.195C78.0067 10.2883 77.9017 10.3817 77.785 10.475C77.5984 10.6617 77.3767 10.7317 77.12 10.685C76.91 10.685 76.7584 10.6733 76.665 10.65C76.595 10.6267 76.525 10.6033 76.455 10.58C76.4084 10.5333 76.35 10.4983 76.28 10.475C76.2334 10.475 76.1867 10.4517 76.14 10.405C76.1167 10.3583 76.0934 10.3233 76.07 10.3C76.0467 10.2533 76.0117 10.2183 75.965 10.195C75.8484 10.125 75.755 10.0433 75.685 9.95C75.615 9.83333 75.5567 9.72833 75.51 9.635C75.4867 9.565 75.475 9.495 75.475 9.425C75.475 9.355 75.475 9.29667 75.475 9.25C75.4517 9.11 75.4284 8.97 75.405 8.83C75.405 8.69 75.3817 8.55 75.335 8.41C75.335 8.36333 75.2767 8.34 75.16 8.34C75.02 8.43333 74.88 8.52667 74.74 8.62C74.6 8.71333 74.4717 8.83 74.355 8.97L73.27 10.265C73.2 10.335 73.13 10.4167 73.06 10.51C73.0134 10.58 72.9667 10.65 72.92 10.72C72.8267 10.8367 72.7334 10.965 72.64 11.105C72.57 11.2217 72.4767 11.3383 72.36 11.455C72.3134 11.5017 72.2784 11.5483 72.255 11.595C72.185 11.7583 72.1034 11.91 72.01 12.05C71.94 12.19 71.87 12.3533 71.8 12.54C71.6834 12.7733 71.5784 13.03 71.485 13.31C71.415 13.5667 71.3567 13.835 71.31 14.115C71.2867 14.465 71.2167 14.815 71.1 15.165C71.0767 15.2817 71.0534 15.41 71.03 15.55C71.0067 15.69 70.9834 15.83 70.96 15.97C70.9367 16.18 70.9017 16.39 70.855 16.6C70.8084 16.81 70.7967 17.0317 70.82 17.265C70.8667 17.7317 70.9367 18.175 71.03 18.595C71.1 18.8283 71.1584 19.0617 71.205 19.295C71.275 19.505 71.345 19.7267 71.415 19.96C71.4384 20.03 71.4617 20.1 71.485 20.17C71.5084 20.24 71.5317 20.31 71.555 20.38C71.695 20.7067 71.9517 20.9633 72.325 21.15C72.465 21.22 72.6167 21.255 72.78 21.255C72.92 21.255 73.06 21.2667 73.2 21.29C73.34 21.29 73.48 21.2783 73.62 21.255C74.2734 21.185 74.88 21.08 75.44 20.94C75.6967 20.8933 75.9417 20.8233 76.175 20.73C76.4084 20.6367 76.6417 20.5433 76.875 20.45C77.0617 20.38 77.2367 20.275 77.4 20.135C77.5867 19.995 77.7734 19.855 77.96 19.715C78.17 19.5517 78.3684 19.3883 78.555 19.225C78.7417 19.0617 78.9284 18.8983 79.115 18.735C79.3017 18.5717 79.4767 18.3967 79.64 18.21C79.71 18.14 79.815 18.0583 79.955 17.965C80.025 17.9183 80.095 17.8717 80.165 17.825C80.235 17.7783 80.2934 17.7317 80.34 17.685C80.4567 17.615 80.5617 17.545 80.655 17.475C80.7717 17.405 80.9 17.37 81.04 17.37C81.11 17.3233 81.18 17.3 81.25 17.3C81.3434 17.2767 81.425 17.2533 81.495 17.23C81.705 17.16 81.8917 17.16 82.055 17.23C82.125 17.2533 82.195 17.2767 82.265 17.3C82.335 17.3233 82.405 17.3583 82.475 17.405C82.6617 17.5217 82.8367 17.7083 83 17.965C83.1167 18.245 83.175 18.49 83.175 18.7V18.91C83.175 19.2133 83.0584 19.4817 82.825 19.715C82.5684 20.0417 82.3 20.2983 82.02 20.485C81.8567 20.5783 81.6934 20.7067 81.53 20.87C81.2967 21.0567 81.0517 21.255 80.795 21.465C80.5617 21.675 80.3167 21.8733 80.06 22.06L79.92 22.2C79.85 22.2467 79.78 22.305 79.71 22.375C79.64 22.445 79.5584 22.5033 79.465 22.55C79.3017 22.7133 79.115 22.865 78.905 23.005C78.695 23.1217 78.485 23.2383 78.275 23.355C78.065 23.4483 77.8667 23.5883 77.68 23.775C77.61 23.845 77.54 23.915 77.47 23.985C77.4 24.055 77.3184 24.1133 77.225 24.16C76.9217 24.3233 76.5717 24.4867 76.175 24.65C76.1517 24.6733 76.1167 24.6967 76.07 24.72C76.0234 24.7433 75.9767 24.7667 75.93 24.79C75.79 24.86 75.6384 24.9183 75.475 24.965C75.335 24.9883 75.195 25.0117 75.055 25.035C74.8684 25.0583 74.6817 25.07 74.495 25.07C74.3084 25.0933 74.1217 25.1283 73.935 25.175ZM100.303 27.555C100.093 27.555 99.9062 27.4733 99.7429 27.31C99.6962 27.24 99.6495 27.17 99.6029 27.1C99.5562 27.03 99.5095 26.96 99.4629 26.89C99.2529 26.4 99.1479 25.8867 99.1479 25.35L99.0429 24.51C98.9729 24.1833 98.9145 23.8567 98.8679 23.53C98.8212 23.2033 98.7395 22.8883 98.6229 22.585L98.4129 21.99C98.4129 21.9433 98.4012 21.8967 98.3779 21.85C98.3779 21.8033 98.3662 21.7567 98.3429 21.71L97.8179 19.855C97.7945 19.8083 97.7712 19.75 97.7479 19.68C97.7479 19.61 97.7245 19.5517 97.6779 19.505C97.6079 19.365 97.5495 19.225 97.5029 19.085C97.4795 18.9217 97.4445 18.7583 97.3979 18.595C97.3745 18.4783 97.3512 18.3733 97.3279 18.28C97.3045 18.1633 97.2695 18.0467 97.2229 17.93C97.1762 17.79 97.1295 17.7083 97.0829 17.685C97.0362 17.6383 96.9312 17.6383 96.7679 17.685C96.6512 17.7083 96.5229 17.7317 96.3829 17.755C96.2662 17.755 96.1495 17.7783 96.0329 17.825C95.9395 17.8483 95.8229 17.8717 95.6829 17.895C95.5662 17.895 95.4495 17.9067 95.3329 17.93L94.8429 18.035C94.7262 18.0583 94.5979 18.0933 94.4579 18.14C94.3412 18.1633 94.2245 18.175 94.1079 18.175L93.4779 18.28C93.2912 18.3267 93.0929 18.3733 92.8829 18.42C92.6729 18.4667 92.4745 18.5133 92.2879 18.56C91.7279 18.7 91.1679 18.805 90.6079 18.875C90.4212 18.9217 90.3162 19.0033 90.2929 19.12C90.2695 19.12 90.2579 19.1317 90.2579 19.155C90.1179 19.5283 89.9545 19.9017 89.7679 20.275C89.6045 20.625 89.4295 20.9867 89.2429 21.36C89.1962 21.4533 89.1495 21.5467 89.1029 21.64C89.0795 21.71 89.0445 21.7917 88.9979 21.885C88.9745 21.9317 88.9512 21.99 88.9279 22.06C88.9045 22.1067 88.8812 22.1533 88.8579 22.2C88.7179 22.3633 88.6479 22.5617 88.6479 22.795C88.6245 22.935 88.5779 23.075 88.5079 23.215C88.4379 23.3317 88.3679 23.4483 88.2979 23.565C88.2745 23.635 88.2279 23.67 88.1579 23.67C88.0645 23.6933 87.9712 23.7283 87.8779 23.775C87.7845 23.8217 87.6795 23.8683 87.5629 23.915C87.4929 23.9383 87.4229 23.9383 87.3529 23.915C87.3062 23.8917 87.2479 23.8683 87.1779 23.845C87.1312 23.7983 87.0845 23.775 87.0379 23.775C86.7812 23.7517 86.5945 23.6 86.4779 23.32C86.2912 22.9467 86.1629 22.5733 86.0929 22.2C86.0695 22.1067 86.0695 22.025 86.0929 21.955C86.1395 21.885 86.1745 21.815 86.1979 21.745C86.3379 21.6517 86.4195 21.5467 86.4429 21.43V21.395C86.4429 21.0917 86.5012 20.8117 86.6179 20.555C86.7579 20.275 86.8745 20.0067 86.9679 19.75C87.0145 19.61 87.0729 19.47 87.1429 19.33C87.2129 19.19 87.2829 19.05 87.3529 18.91C87.4462 18.7467 87.5162 18.595 87.5629 18.455C87.6329 18.2917 87.6912 18.1283 87.7379 17.965C87.8079 17.7783 87.8079 17.6033 87.7379 17.44C87.6912 17.3 87.6679 17.1717 87.6679 17.055C87.6679 16.915 87.6795 16.775 87.7029 16.635C87.7029 16.3783 87.7962 16.1567 87.9829 15.97C88.0762 15.8533 88.1695 15.76 88.2629 15.69C88.3795 15.5967 88.4845 15.5033 88.5779 15.41C88.7879 15.2 88.9512 14.92 89.0679 14.57C89.1612 14.2667 89.2312 13.9633 89.2779 13.66C89.3479 13.3333 89.4179 13.0183 89.4879 12.715C89.5345 12.4117 89.5812 12.12 89.6279 11.84C89.6979 11.5367 89.7679 11.245 89.8379 10.965C89.8612 10.8483 89.8845 10.7433 89.9079 10.65C89.9545 10.5333 89.9895 10.4283 90.0129 10.335C90.0829 10.1483 90.1529 9.97333 90.2229 9.81C90.2929 9.62333 90.3395 9.43667 90.3629 9.25C90.4095 9.15667 90.4095 9.075 90.3629 9.005C90.3395 8.88833 90.3395 8.78333 90.3629 8.69C90.4095 8.59667 90.4445 8.50333 90.4679 8.41C90.5379 8.24667 90.5845 8.08333 90.6079 7.92C90.6545 7.75667 90.7129 7.59333 90.7829 7.43C90.8995 7.12667 90.9929 6.88167 91.0629 6.695C91.1562 6.485 91.2379 6.25167 91.3079 5.995C91.3545 5.855 91.4012 5.72667 91.4479 5.61C91.5179 5.47 91.5645 5.33 91.5879 5.19C91.6579 4.98 91.7162 4.77 91.7629 4.56C91.8095 4.32667 91.8329 4.105 91.8329 3.895C91.8795 3.70833 91.9262 3.58 91.9729 3.51C92.0895 3.27667 92.2295 3.07833 92.3929 2.915C92.5795 2.75167 92.7545 2.58833 92.9179 2.425C93.0345 2.355 93.1512 2.30833 93.2679 2.285C93.3845 2.23833 93.5012 2.25 93.6179 2.32C93.7112 2.36667 93.7695 2.39 93.7929 2.39C94.0029 2.36667 94.1779 2.41333 94.3179 2.53C94.4579 2.64667 94.5745 2.78667 94.6679 2.95C94.7145 2.99667 94.7495 3.055 94.7729 3.125C94.7962 3.195 94.8195 3.25333 94.8429 3.3C94.9595 3.48667 95.0179 3.67333 95.0179 3.86C95.0179 3.95333 95.0295 4.05833 95.0529 4.175C95.0762 4.26833 95.0995 4.37333 95.1229 4.49C95.1929 4.63 95.2979 4.7 95.4379 4.7C95.4612 4.67667 95.4845 4.67667 95.5079 4.7C95.5312 4.72333 95.5429 4.74667 95.5429 4.77C95.6595 4.91 95.6945 5.06167 95.6479 5.225C95.6012 5.41167 95.5895 5.59833 95.6129 5.785C95.6595 5.94833 95.7062 6.12333 95.7529 6.31C95.8462 6.54333 95.9395 6.77667 96.0329 7.01C96.1262 7.24333 96.2195 7.47667 96.3129 7.71C96.4295 7.96667 96.5462 8.22333 96.6629 8.48C96.7795 8.73667 96.8845 8.99333 96.9779 9.25C97.0945 9.57667 97.2112 9.90333 97.3279 10.23C97.4679 10.5567 97.6195 10.8833 97.7829 11.21L97.8879 11.595C97.9112 11.6883 97.9345 11.7817 97.9579 11.875C98.0045 11.9683 98.0395 12.0617 98.0629 12.155C98.1095 12.225 98.1445 12.295 98.1679 12.365C98.2145 12.435 98.2612 12.4933 98.3079 12.54C98.4245 12.7033 98.4945 12.8783 98.5179 13.065C98.5879 13.2983 98.6929 13.5083 98.8329 13.695C98.8795 13.765 98.9495 13.8 99.0429 13.8C99.3929 13.7533 99.7429 13.7183 100.093 13.695C100.443 13.6483 100.793 13.5783 101.143 13.485C101.4 13.415 101.645 13.38 101.878 13.38C102.321 13.38 102.73 13.5317 103.103 13.835C103.546 14.185 103.78 14.6283 103.803 15.165C103.803 15.2817 103.815 15.375 103.838 15.445C103.838 15.6083 103.791 15.7367 103.698 15.83C103.675 15.9 103.628 15.97 103.558 16.04C103.511 16.11 103.465 16.18 103.418 16.25C103.371 16.3433 103.325 16.4133 103.278 16.46L103.068 16.635C103.045 16.6817 103.01 16.74 102.963 16.81C102.916 16.8567 102.858 16.8917 102.788 16.915C102.695 16.9383 102.601 16.9733 102.508 17.02C102.415 17.0433 102.31 17.055 102.193 17.055C101.773 17.1017 101.4 17.09 101.073 17.02H100.513C100.466 17.02 100.396 17.0433 100.303 17.09C100.21 17.1367 100.163 17.195 100.163 17.265V17.405C100.233 17.615 100.28 17.8367 100.303 18.07C100.35 18.28 100.42 18.4783 100.513 18.665C100.513 18.7583 100.536 18.8517 100.583 18.945C100.7 19.155 100.793 19.3767 100.863 19.61C100.933 19.82 100.991 20.0417 101.038 20.275C101.038 20.3217 101.061 20.415 101.108 20.555C101.178 20.7183 101.236 20.8933 101.283 21.08C101.33 21.2433 101.365 21.4183 101.388 21.605C101.388 21.745 101.423 21.8733 101.493 21.99C101.586 22.2 101.656 22.41 101.703 22.62C101.75 22.83 101.785 23.0517 101.808 23.285C101.831 23.3083 101.843 23.355 101.843 23.425C101.843 23.4717 101.855 23.5183 101.878 23.565C101.995 23.8217 102.076 24.1017 102.123 24.405C102.17 24.685 102.228 24.965 102.298 25.245C102.345 25.385 102.368 25.525 102.368 25.665C102.391 25.8283 102.403 25.9917 102.403 26.155C102.403 26.2717 102.368 26.4 102.298 26.54C102.228 26.61 102.193 26.645 102.193 26.645C102.053 26.6683 101.971 26.75 101.948 26.89L101.843 27.1C101.796 27.1933 101.726 27.2517 101.633 27.275C101.54 27.275 101.458 27.31 101.388 27.38C101.295 27.4733 101.166 27.52 101.003 27.52C100.91 27.52 100.793 27.52 100.653 27.52C100.536 27.52 100.42 27.5317 100.303 27.555ZM91.8679 14.85C92.0079 14.8267 92.1479 14.8033 92.2879 14.78C92.4512 14.7567 92.6262 14.7333 92.8129 14.71C92.9295 14.6867 93.0812 14.6633 93.2679 14.64C93.4545 14.6167 93.6295 14.5933 93.7929 14.57C93.9562 14.5233 94.1195 14.5 94.2829 14.5C94.4462 14.4767 94.6095 14.4533 94.7729 14.43C94.9129 14.3833 95.0529 14.36 95.1929 14.36C95.3329 14.3367 95.4729 14.3133 95.6129 14.29C95.8229 14.2433 95.9045 14.1267 95.8579 13.94C95.8345 13.7533 95.7879 13.5667 95.7179 13.38C95.6712 13.17 95.5662 12.995 95.4029 12.855C95.3562 12.8083 95.3329 12.7383 95.3329 12.645V12.54C95.2862 12.3533 95.2279 12.1783 95.1579 12.015C95.1112 11.8283 95.0529 11.6533 94.9829 11.49C94.9362 11.3033 94.8779 11.14 94.8079 11C94.7612 10.8367 94.7029 10.6733 94.6329 10.51L94.2129 9.25C94.1429 9.08667 94.0729 8.92333 94.0029 8.76C93.9562 8.59667 93.9095 8.43333 93.8629 8.27L93.7579 8.13H93.6529L93.5829 8.235C93.4662 8.585 93.3262 8.935 93.1629 9.285C93.0229 9.635 92.8945 10.0083 92.7779 10.405C92.7779 10.4517 92.7662 10.51 92.7429 10.58C92.7195 10.65 92.6962 10.72 92.6729 10.79C92.5795 11.0233 92.4862 11.28 92.3929 11.56C92.3229 11.84 92.2645 12.12 92.2179 12.4C92.1945 12.5633 92.1712 12.7267 92.1479 12.89C92.1245 13.03 92.0895 13.1817 92.0429 13.345L91.7279 14.71C91.7045 14.7333 91.7162 14.7683 91.7629 14.815C91.8095 14.8383 91.8445 14.85 91.8679 14.85Z" fill="#353535"/>
</svg>
