<svg width="221" height="36" viewBox="0 0 221 36" fill="none" xmlns="http://www.w3.org/2000/svg">
<path d="M18.3816 33.24C18.1616 33.28 18.0216 33.22 17.9616 33.06C17.9416 33.02 17.9216 32.97 17.9016 32.91C17.8816 32.85 17.8516 32.8 17.8116 32.76C17.7916 32.66 17.7716 32.56 17.7516 32.46C17.7316 32.36 17.7116 32.26 17.6916 32.16C17.6716 32.08 17.6516 32 17.6316 31.92C17.6316 31.84 17.6316 31.76 17.6316 31.68C17.6116 31.5 17.5916 31.32 17.5716 31.14C17.5516 30.98 17.5316 30.81 17.5116 30.63C17.5116 30.59 17.5016 30.55 17.4816 30.51C17.4816 30.47 17.4816 30.43 17.4816 30.39C17.4816 30.13 17.4716 29.87 17.4516 29.61C17.4516 29.35 17.4416 29.09 17.4216 28.83C17.4016 28.77 17.3916 28.7 17.3916 28.62C17.3916 28.56 17.3916 28.5 17.3916 28.44V28.23C17.3716 27.95 17.3516 27.67 17.3316 27.39C17.3316 27.11 17.3316 26.83 17.3316 26.55C17.3316 26.33 17.3116 26.1 17.2716 25.86C17.2516 25.64 17.2216 25.43 17.1816 25.23C17.1216 24.99 17.0316 24.78 16.9116 24.6C16.8116 24.42 16.7216 24.23 16.6416 24.03C16.5616 23.85 16.4816 23.66 16.4016 23.46C16.3816 23.38 16.3416 23.31 16.2816 23.25C16.2416 23.19 16.2016 23.13 16.1616 23.07C15.9016 22.75 15.6416 22.43 15.3816 22.11C15.1216 21.79 14.8616 21.46 14.6016 21.12L13.7916 20.07L13.0116 19.08C12.8516 18.86 12.6816 18.65 12.5016 18.45C12.3416 18.23 12.1816 18.01 12.0216 17.79C11.7816 17.45 11.5316 17.12 11.2716 16.8C11.0116 16.46 10.7416 16.13 10.4616 15.81C9.8216 14.97 9.1816 14.18 8.5416 13.44C8.4616 13.32 8.3816 13.21 8.3016 13.11C8.2216 12.99 8.1416 12.87 8.0616 12.75C7.9816 12.65 7.9016 12.55 7.8216 12.45C7.7416 12.33 7.6516 12.22 7.5516 12.12C7.4916 12.04 7.4316 11.97 7.3716 11.91C7.3116 11.85 7.2616 11.78 7.2216 11.7L5.9616 10.26C5.9016 10.18 5.8416 10.11 5.7816 10.05C5.7216 9.99 5.6616 9.93 5.6016 9.87C5.4016 9.65 5.1916 9.43 4.9716 9.21C4.7716 8.97 4.5616 8.75 4.3416 8.55C4.2616 8.45 4.1816 8.36 4.1016 8.28C4.0216 8.2 3.9216 8.13 3.8016 8.07C3.8016 8.07 3.7916 8.07 3.7716 8.07C3.7516 8.07 3.7316 8.08 3.7116 8.1V8.19C3.6916 8.23 3.6816 8.29 3.6816 8.37C3.6816 8.53 3.6816 8.69 3.6816 8.85C3.6816 8.99 3.6716 9.14 3.6516 9.3C3.6316 9.38 3.6216 9.46 3.6216 9.54C3.6416 9.6 3.6416 9.66 3.6216 9.72V11.13C3.6216 11.19 3.6216 11.26 3.6216 11.34C3.6216 11.4 3.6116 11.47 3.5916 11.55C3.5716 11.67 3.5616 11.79 3.5616 11.91C3.5616 12.03 3.5616 12.16 3.5616 12.3V13.08C3.5616 13.26 3.5516 13.44 3.5316 13.62C3.5316 13.8 3.5216 13.98 3.5016 14.16C3.4816 14.4 3.4716 14.64 3.4716 14.88C3.4716 15.12 3.4716 15.36 3.4716 15.6C3.4716 15.78 3.4716 15.96 3.4716 16.14C3.4716 16.3 3.4516 16.46 3.4116 16.62V16.92C3.4116 17.08 3.4116 17.25 3.4116 17.43C3.4116 17.61 3.4016 17.78 3.3816 17.94C3.3816 18.04 3.3816 18.15 3.3816 18.27C3.3816 18.37 3.3716 18.47 3.3516 18.57C3.3316 18.71 3.3316 18.86 3.3516 19.02C3.3516 19.2 3.3516 19.38 3.3516 19.56C3.3716 19.74 3.3916 19.91 3.4116 20.07L3.5016 20.67C3.5416 20.93 3.5916 21.19 3.6516 21.45C3.7116 21.69 3.7716 21.94 3.8316 22.2C3.8516 22.26 3.8716 22.33 3.8916 22.41C3.9116 22.47 3.9316 22.53 3.9516 22.59C4.0116 22.73 4.0316 22.87 4.0116 23.01C4.0116 23.13 4.0016 23.26 3.9816 23.4C3.9616 23.46 3.9116 23.55 3.8316 23.67C3.7916 23.75 3.7416 23.83 3.6816 23.91C3.6416 23.97 3.5916 24.03 3.5316 24.09C3.4516 24.21 3.4016 24.3 3.3816 24.36C3.3816 24.42 3.3616 24.49 3.3216 24.57V24.69C3.2416 25.01 3.0216 25.17 2.6616 25.17C2.5416 25.19 2.4216 25.12 2.3016 24.96C2.3016 24.94 2.2916 24.92 2.2716 24.9C2.2716 24.88 2.2716 24.86 2.2716 24.84C2.2516 24.68 2.1916 24.54 2.0916 24.42C2.0116 24.32 1.9316 24.22 1.8516 24.12C1.8116 24.06 1.7616 24.01 1.7016 23.97C1.6616 23.91 1.6216 23.86 1.5816 23.82C1.5016 23.7 1.4516 23.6 1.4316 23.52L1.3116 23.22C1.2316 23 1.1616 22.79 1.1016 22.59C1.0416 22.39 0.991602 22.19 0.951602 21.99C0.951602 21.95 0.941602 21.92 0.921602 21.9C0.861602 21.68 0.811602 21.45 0.771602 21.21C0.751602 20.97 0.721602 20.73 0.681602 20.49C0.681602 20.37 0.671602 20.27 0.651602 20.19C0.631602 19.91 0.621602 19.64 0.621602 19.38C0.641602 19.1 0.651602 18.83 0.651602 18.57V17.49C0.651602 17.33 0.651602 17.18 0.651602 17.04C0.671602 16.88 0.691602 16.73 0.711602 16.59C0.731602 16.49 0.741602 16.4 0.741602 16.32C0.741602 16.22 0.741602 16.13 0.741602 16.05C0.741602 15.95 0.741602 15.85 0.741602 15.75C0.741602 15.65 0.751602 15.55 0.771602 15.45C0.791602 15.29 0.801602 15.13 0.801602 14.97C0.801602 14.81 0.801602 14.66 0.801602 14.52C0.821602 14.38 0.821602 14.25 0.801602 14.13C0.801602 13.99 0.801602 13.85 0.801602 13.71C0.821602 13.55 0.831602 13.39 0.831602 13.23C0.831602 13.05 0.831602 12.87 0.831602 12.69C0.851602 12.45 0.861602 12.21 0.861602 11.97C0.861602 11.73 0.861602 11.49 0.861602 11.25C0.881602 11.05 0.891602 10.86 0.891602 10.68C0.891602 10.48 0.901602 10.28 0.921602 10.08C0.941602 10.02 0.951602 9.93 0.951602 9.81V6.99C0.911602 6.73 0.881602 6.48 0.861602 6.24C0.861602 5.98 0.861602 5.72 0.861602 5.46C0.861602 5.32 0.831602 5.18 0.771602 5.04C0.771602 5 0.751602 4.94 0.711602 4.86C0.551602 4.46 0.561602 4.04 0.741602 3.6C0.901602 3.24 1.2116 2.98 1.6716 2.82C1.9316 2.74 2.2216 2.75 2.5416 2.85C2.6216 2.87 2.6916 2.9 2.7516 2.94C2.8316 2.98 2.8916 3.03 2.9316 3.09C2.9716 3.13 2.9916 3.16 2.9916 3.18C3.2116 3.44 3.4516 3.68 3.7116 3.9C3.8516 4.04 3.9816 4.18 4.1016 4.32C4.2416 4.44 4.3816 4.58 4.5216 4.74L5.3016 5.55C5.4816 5.73 5.6516 5.91 5.8116 6.09C5.9916 6.25 6.1616 6.43 6.3216 6.63L6.5316 6.84C6.7516 7.08 6.9716 7.32 7.1916 7.56C7.4316 7.8 7.6516 8.05 7.8516 8.31C7.9716 8.45 8.0916 8.59 8.2116 8.73C8.3316 8.85 8.4516 8.99 8.5716 9.15L9.2616 9.96C9.6416 10.44 10.0116 10.93 10.3716 11.43C10.7316 11.91 11.1016 12.39 11.4816 12.87C11.6416 13.07 11.7916 13.27 11.9316 13.47C12.0916 13.67 12.2416 13.87 12.3816 14.07L12.5916 14.34C12.6916 14.5 12.8016 14.66 12.9216 14.82C13.0416 14.96 13.1616 15.11 13.2816 15.27C13.4416 15.47 13.6016 15.67 13.7616 15.87C13.9216 16.05 14.0716 16.23 14.2116 16.41C14.3516 16.55 14.4816 16.71 14.6016 16.89C14.9416 17.27 15.2616 17.65 15.5616 18.03C15.6016 18.05 15.6316 18.05 15.6516 18.03V18C15.6516 17.92 15.6516 17.84 15.6516 17.76C15.6716 17.66 15.6816 17.57 15.6816 17.49C15.6616 17.39 15.6516 17.31 15.6516 17.25C15.6516 17.17 15.6516 17.09 15.6516 17.01C15.6516 16.87 15.6516 16.74 15.6516 16.62C15.6516 16.48 15.6416 16.34 15.6216 16.2V15.78C15.6016 15.62 15.5916 15.47 15.5916 15.33C15.5916 15.17 15.5916 15.02 15.5916 14.88V14.82C15.5716 14.6 15.5516 14.38 15.5316 14.16C15.5316 13.92 15.5216 13.69 15.5016 13.47C15.5016 13.33 15.4916 13.2 15.4716 13.08C15.4516 12.96 15.4316 12.84 15.4116 12.72C15.4116 12.66 15.4016 12.6 15.3816 12.54C15.3816 12.46 15.3816 12.39 15.3816 12.33C15.3616 12.11 15.3516 11.9 15.3516 11.7C15.3516 11.5 15.3416 11.3 15.3216 11.1C15.3016 10.78 15.2716 10.46 15.2316 10.14C15.2116 9.82 15.2016 9.5 15.2016 9.18C15.2216 8.74 15.2216 8.31 15.2016 7.89C15.2016 7.47 15.2016 7.04 15.2016 6.6V6.06C15.2016 6 15.1916 5.96 15.1716 5.94C15.1516 5.78 15.1416 5.63 15.1416 5.49C15.1416 5.35 15.1416 5.21 15.1416 5.07V4.77C15.1416 4.59 15.1316 4.41 15.1116 4.23C15.0916 4.05 15.0516 3.88 14.9916 3.72V3.66C14.9116 3.46 14.9216 3.24 15.0216 3C15.0816 2.8 15.1716 2.63 15.2916 2.49C15.4116 2.33 15.5416 2.18 15.6816 2.04L15.8916 1.95C16.2116 1.83 16.5216 1.82 16.8216 1.92L17.2716 2.19C17.3116 2.21 17.3416 2.25 17.3616 2.31C17.4016 2.35 17.4316 2.39 17.4516 2.43C17.6516 2.73 17.7516 3.03 17.7516 3.33C17.7516 3.41 17.7516 3.5 17.7516 3.6C17.7716 3.68 17.7816 3.77 17.7816 3.87C17.7816 3.95 17.7716 4.03 17.7516 4.11C17.7316 4.19 17.7216 4.27 17.7216 4.35C17.7416 4.63 17.7416 4.92 17.7216 5.22C17.7216 5.5 17.7216 5.78 17.7216 6.06C17.7216 6.2 17.7216 6.34 17.7216 6.48C17.7416 6.62 17.7516 6.77 17.7516 6.93C17.7516 7.01 17.7516 7.1 17.7516 7.2C17.7516 7.28 17.7616 7.37 17.7816 7.47C17.8016 7.55 17.8116 7.65 17.8116 7.77V8.46C17.8116 8.56 17.8116 8.66 17.8116 8.76C17.8116 8.86 17.8216 8.96 17.8416 9.06C17.8616 9.16 17.8716 9.27 17.8716 9.39C17.8716 9.49 17.8816 9.59 17.9016 9.69C17.9016 9.77 17.9016 9.85 17.9016 9.93C17.9016 9.99 17.9116 10.06 17.9316 10.14C17.9316 10.18 17.9316 10.22 17.9316 10.26C17.9516 10.3 17.9616 10.34 17.9616 10.38C17.9616 10.5 17.9616 10.62 17.9616 10.74C17.9816 10.86 18.0016 10.98 18.0216 11.1C18.0216 11.32 18.0316 11.55 18.0516 11.79C18.0916 12.03 18.1116 12.27 18.1116 12.51C18.1116 12.59 18.1116 12.67 18.1116 12.75C18.1316 12.81 18.1516 12.88 18.1716 12.96V13.11C18.1716 13.33 18.1816 13.55 18.2016 13.77C18.2416 13.99 18.2616 14.21 18.2616 14.43V14.55C18.3016 14.75 18.3216 14.95 18.3216 15.15C18.3216 15.35 18.3316 15.56 18.3516 15.78C18.3516 15.86 18.3516 15.94 18.3516 16.02C18.3516 16.1 18.3616 16.18 18.3816 16.26C18.3816 16.28 18.3816 16.31 18.3816 16.35C18.4016 16.37 18.4116 16.39 18.4116 16.41C18.4116 16.61 18.4216 16.8 18.4416 16.98C18.4616 17.16 18.4816 17.34 18.5016 17.52L18.5916 18.18L18.6216 18.39C18.6416 18.61 18.6616 18.83 18.6816 19.05C18.7216 19.27 18.7516 19.49 18.7716 19.71L18.8616 20.55C18.9016 20.81 18.9516 21.07 19.0116 21.33C19.0716 21.59 19.1716 21.84 19.3116 22.08C19.3716 22.2 19.4116 22.33 19.4316 22.47C19.4716 22.59 19.5016 22.71 19.5216 22.83V23.07C19.5016 23.13 19.4916 23.22 19.4916 23.34C19.4716 23.58 19.4116 23.82 19.3116 24.06C19.2716 24.18 19.2316 24.3 19.1916 24.42C19.1516 24.54 19.1116 24.66 19.0716 24.78C19.0516 24.86 19.0416 24.93 19.0416 24.99C19.0416 25.07 19.0316 25.15 19.0116 25.23C18.9516 25.59 18.9216 25.95 18.9216 26.31V27.21C18.9416 27.47 18.9516 27.73 18.9516 27.99C18.9516 28.25 18.9516 28.51 18.9516 28.77V29.37C18.9516 29.47 18.9516 29.57 18.9516 29.67C18.9516 29.79 18.9616 29.9 18.9816 30C19.0016 30.04 19.0016 30.09 18.9816 30.15C18.9816 30.21 18.9816 30.26 18.9816 30.3C18.9616 30.4 18.9516 30.5 18.9516 30.6C18.9516 30.72 18.9516 30.83 18.9516 30.93V32.1C18.9516 32.32 18.9216 32.55 18.8616 32.79C18.8016 33.03 18.6416 33.18 18.3816 33.24ZM25.8978 24.21C25.7778 24.21 25.6978 24.2 25.6578 24.18C25.5578 24.14 25.4578 24.12 25.3578 24.12C25.2778 24.14 25.1878 24.15 25.0878 24.15C25.0678 24.15 25.0478 24.15 25.0278 24.15C25.0078 24.17 24.9878 24.18 24.9678 24.18C24.8278 24.2 24.6878 24.21 24.5478 24.21C24.4278 24.21 24.3078 24.19 24.1878 24.15C24.1678 24.13 24.1478 24.12 24.1278 24.12C23.9878 24.14 23.8678 24.1 23.7678 24C23.6678 23.9 23.5678 23.81 23.4678 23.73C23.3678 23.63 23.3178 23.52 23.3178 23.4L23.2278 23.16C23.1678 23.02 23.1478 22.89 23.1678 22.77C23.1878 22.73 23.1878 22.69 23.1678 22.65C23.1678 22.61 23.1678 22.57 23.1678 22.53C23.1478 22.49 23.1378 22.45 23.1378 22.41C23.1378 22.35 23.1278 22.3 23.1078 22.26C23.0678 22.08 23.0378 21.9 23.0178 21.72C23.0178 21.52 23.0278 21.33 23.0478 21.15C23.0678 21.03 23.1378 20.83 23.2578 20.55C23.3778 20.25 23.4478 20.07 23.4678 20.01C23.5278 19.91 23.5578 19.83 23.5578 19.77C23.5378 19.55 23.5278 19.33 23.5278 19.11C23.5478 18.87 23.5578 18.64 23.5578 18.42C23.5578 18.28 23.5878 18.17 23.6478 18.09C23.7278 17.95 23.7378 17.8 23.6778 17.64L23.5878 17.31C23.4678 17.09 23.4778 16.9 23.6178 16.74C23.6178 16.72 23.6178 16.71 23.6178 16.71C23.6378 16.69 23.6478 16.67 23.6478 16.65C23.6878 16.61 23.6978 16.56 23.6778 16.5C23.6578 16.42 23.6478 16.36 23.6478 16.32C23.6478 16.24 23.6578 16.16 23.6778 16.08C23.7178 15.98 23.7278 15.89 23.7078 15.81C23.7078 15.81 23.6878 15.79 23.6478 15.75C23.6278 15.71 23.6178 15.63 23.6178 15.51C23.6378 15.39 23.6478 15.32 23.6478 15.3V14.46C23.6678 14.36 23.6778 14.27 23.6778 14.19C23.6778 14.09 23.6878 13.99 23.7078 13.89C23.7278 13.77 23.7278 13.65 23.7078 13.53C23.7078 13.39 23.7078 13.25 23.7078 13.11C23.6878 13.01 23.6678 12.9 23.6478 12.78C23.6478 12.66 23.6478 12.54 23.6478 12.42C23.6278 12.38 23.6178 12.33 23.6178 12.27C23.6178 12.21 23.6178 12.16 23.6178 12.12C23.5978 12.02 23.5778 11.92 23.5578 11.82C23.5578 11.72 23.5578 11.62 23.5578 11.52C23.5578 11.48 23.5178 11.35 23.4378 11.13C23.3578 10.89 23.3278 10.69 23.3478 10.53C23.3678 10.49 23.3778 10.44 23.3778 10.38C23.3778 10.32 23.3578 10.27 23.3178 10.23C23.2778 10.21 23.2578 10.17 23.2578 10.11V10.02C23.3178 9.78 23.2878 9.54 23.1678 9.3C23.0878 9.18 23.0578 9.06 23.0778 8.94C23.0778 8.78 23.0078 8.66 22.8678 8.58C22.7678 8.48 22.6778 8.36 22.5978 8.22C22.5178 8.08 22.4678 7.94 22.4478 7.8C22.4278 7.7 22.4178 7.6 22.4178 7.5C22.4178 7.4 22.4178 7.31 22.4178 7.23C22.4178 7.15 22.4278 7.1 22.4478 7.08C22.5278 7 22.5678 6.91 22.5678 6.81C22.5678 6.69 22.5778 6.6 22.5978 6.54C22.6178 6.52 22.6378 6.51 22.6578 6.51C22.6778 6.51 22.6978 6.5 22.7178 6.48C22.7978 6.46 22.8378 6.39 22.8378 6.27C22.7978 6.19 22.7778 6.12 22.7778 6.06C22.7578 5.98 22.7878 5.91 22.8678 5.85C22.9078 5.77 22.9578 5.75 23.0178 5.79C23.1578 5.85 23.3178 5.83 23.4978 5.73C23.5778 5.69 23.6278 5.67 23.6478 5.67C23.7078 5.67 23.7378 5.67 23.7378 5.67C23.7578 5.65 23.8178 5.64 23.9178 5.64C24.0378 5.66 24.1478 5.62 24.2478 5.52C24.3878 5.38 24.5578 5.31 24.7578 5.31H26.6178C27.0778 5.33 27.5378 5.33 27.9978 5.31C28.4578 5.29 28.9078 5.28 29.3478 5.28C29.4478 5.28 29.5278 5.28 29.5878 5.28C29.6678 5.26 29.7478 5.24 29.8278 5.22C29.9478 5.16 30.0878 5.13 30.2478 5.13H30.9378C31.0978 5.13 31.2378 5.13 31.3578 5.13C31.4978 5.11 31.6378 5.09 31.7778 5.07C31.8578 5.05 31.9278 5.04 31.9878 5.04C32.0678 5.04 32.1478 5.04 32.2278 5.04C32.3078 5.04 32.3878 5.04 32.4678 5.04C32.5478 5.04 32.6278 5.03 32.7078 5.01C32.8678 4.99 33.0378 4.98 33.2178 4.98C33.3978 4.96 33.5678 4.95 33.7278 4.95C33.8078 4.95 33.8778 4.95 33.9378 4.95C34.0178 4.93 34.0978 4.91 34.1778 4.89C34.3378 4.85 34.4878 4.83 34.6278 4.83C34.7878 4.81 34.9378 4.79 35.0778 4.77C35.2378 4.75 35.3878 4.73 35.5278 4.71C35.6878 4.69 35.8378 4.67 35.9778 4.65C36.1578 4.65 36.2878 4.67 36.3678 4.71C36.4878 4.79 36.5978 4.86 36.6978 4.92C36.8178 4.98 36.9278 5.06 37.0278 5.16C37.1078 5.24 37.1578 5.31 37.1778 5.37C37.1978 5.45 37.2178 5.53 37.2378 5.61C37.2578 5.69 37.2778 5.78 37.2978 5.88V6.09C37.2778 6.19 37.2578 6.3 37.2378 6.42C37.2378 6.52 37.2278 6.63 37.2078 6.75C37.1678 6.83 37.1178 6.9 37.0578 6.96L36.5178 7.5C36.3178 7.56 36.1178 7.6 35.9178 7.62C35.7378 7.64 35.5478 7.64 35.3478 7.62H35.1378C35.0378 7.64 34.9378 7.65 34.8378 7.65C34.7378 7.65 34.6378 7.64 34.5378 7.62C34.4178 7.6 34.2978 7.6 34.1778 7.62C34.0578 7.62 33.9378 7.62 33.8178 7.62C33.7378 7.62 33.6578 7.63 33.5778 7.65C33.5178 7.65 33.4478 7.64 33.3678 7.62C33.2678 7.6 33.1678 7.6 33.0678 7.62C32.9878 7.62 32.8978 7.63 32.7978 7.65C32.7178 7.65 32.6278 7.66 32.5278 7.68C32.4478 7.68 32.3578 7.68 32.2578 7.68C31.9978 7.72 31.7178 7.74 31.4178 7.74C31.1378 7.74 30.8578 7.76 30.5778 7.8C30.3978 7.78 30.2278 7.79 30.0678 7.83C29.9078 7.85 29.7378 7.87 29.5578 7.89C29.3978 7.91 29.2278 7.92 29.0478 7.92C28.8678 7.92 28.6978 7.94 28.5378 7.98C28.3378 7.98 28.1378 8.01 27.9378 8.07C27.7578 8.11 27.5678 8.14 27.3678 8.16L27.1578 8.19C27.0178 8.19 26.8878 8.21 26.7678 8.25C26.6478 8.27 26.5178 8.3 26.3778 8.34C26.2978 8.36 26.2178 8.38 26.1378 8.4C26.0578 8.4 25.9678 8.41 25.8678 8.43C25.8078 8.43 25.7378 8.45 25.6578 8.49C25.5978 8.51 25.5678 8.57 25.5678 8.67L25.6578 8.94C25.6778 8.98 25.6678 9.08 25.6278 9.24C25.6078 9.4 25.5878 9.52 25.5678 9.6C25.5678 9.66 25.5778 9.72 25.5978 9.78C25.6178 9.84 25.6378 9.9 25.6578 9.96C25.7178 10.12 25.7478 10.3 25.7478 10.5C25.7478 10.68 25.7678 10.85 25.8078 11.01C25.8278 11.09 25.8378 11.18 25.8378 11.28C25.8378 11.36 25.8478 11.45 25.8678 11.55C25.8678 11.59 25.8678 11.64 25.8678 11.7C25.8878 11.74 25.8978 11.79 25.8978 11.85C25.8978 11.91 25.8878 11.95 25.8678 11.97C25.8078 12.05 25.7778 12.14 25.7778 12.24C25.7778 12.34 25.7778 12.44 25.7778 12.54C25.8778 12.74 25.9278 12.94 25.9278 13.14C25.9278 13.34 25.9278 13.54 25.9278 13.74C25.9278 13.8 25.9778 13.82 26.0778 13.8H26.1078C26.1478 13.72 26.1878 13.66 26.2278 13.62C26.2878 13.62 26.3578 13.6 26.4378 13.56C26.4978 13.52 26.5778 13.5 26.6778 13.5C26.8378 13.52 26.9878 13.52 27.1278 13.5C27.2678 13.46 27.4078 13.42 27.5478 13.38C28.4878 13.14 29.3678 12.83 30.1878 12.45C30.4078 12.35 30.6378 12.27 30.8778 12.21C31.1178 12.13 31.3578 12.08 31.5978 12.06H31.6878C31.8678 12.04 32.0478 12.02 32.2278 12C32.4078 11.98 32.5878 11.97 32.7678 11.97C33.0078 11.95 33.2378 11.92 33.4578 11.88C33.6978 11.84 33.9378 11.81 34.1778 11.79C34.3178 11.75 34.4478 11.72 34.5678 11.7C34.6878 11.66 34.8178 11.61 34.9578 11.55C35.2178 11.45 35.4578 11.4 35.6778 11.4C35.8378 11.42 35.9878 11.46 36.1278 11.52C36.2678 11.56 36.4078 11.62 36.5478 11.7C36.8478 11.9 36.9978 12.2 36.9978 12.6C36.9978 12.76 36.9778 12.92 36.9378 13.08C36.9178 13.24 36.9078 13.4 36.9078 13.56C36.9078 13.6 36.8878 13.64 36.8478 13.68L36.7578 13.83C36.7378 13.91 36.7178 13.99 36.6978 14.07C36.6778 14.15 36.6278 14.21 36.5478 14.25C36.4278 14.35 36.2978 14.46 36.1578 14.58C36.0378 14.68 35.8978 14.75 35.7378 14.79C35.6578 14.81 35.5778 14.83 35.4978 14.85C35.4378 14.87 35.3678 14.88 35.2878 14.88C34.9678 14.88 34.6378 14.9 34.2978 14.94C33.9778 14.98 33.6478 15.02 33.3078 15.06C33.0478 15.08 32.7878 15.11 32.5278 15.15C32.2878 15.19 32.0378 15.21 31.7778 15.21C31.5378 15.21 31.2678 15.26 30.9678 15.36C30.7678 15.4 30.5578 15.44 30.3378 15.48C30.1178 15.52 29.8978 15.55 29.6778 15.57C29.5178 15.59 29.3478 15.62 29.1678 15.66C29.0078 15.68 28.8478 15.7 28.6878 15.72L28.1778 15.81C28.1378 15.83 28.0778 15.84 27.9978 15.84C27.8578 15.88 27.7178 15.91 27.5778 15.93C27.4378 15.95 27.2978 15.98 27.1578 16.02C27.0178 16.04 26.8778 16.07 26.7378 16.11C26.6178 16.15 26.4878 16.19 26.3478 16.23C26.2478 16.25 26.1678 16.29 26.1078 16.35C26.0478 16.39 25.9978 16.45 25.9578 16.53C25.9378 16.59 25.9378 16.65 25.9578 16.71C25.9778 16.79 25.9678 16.87 25.9278 16.95C25.9478 17.15 25.9578 17.35 25.9578 17.55C25.9778 17.75 25.9778 17.95 25.9578 18.15C25.9978 18.31 26.0078 18.47 25.9878 18.63C25.9878 18.79 25.9778 18.95 25.9578 19.11C25.9178 19.35 25.9278 19.55 25.9878 19.71C26.0478 19.97 26.0278 20.24 25.9278 20.52C25.8878 20.64 25.8878 20.72 25.9278 20.76C25.9678 20.82 25.9678 20.89 25.9278 20.97V21.15C25.9078 21.31 25.9778 21.39 26.1378 21.39H26.1978C26.3378 21.39 26.4778 21.44 26.6178 21.54C26.7178 21.64 26.8378 21.67 26.9778 21.63L27.8178 21.54C27.9378 21.52 28.0578 21.51 28.1778 21.51C28.2978 21.49 28.4178 21.48 28.5378 21.48C28.5778 21.46 28.6378 21.47 28.7178 21.51C28.8178 21.57 28.9078 21.58 28.9878 21.54C29.0278 21.5 29.0778 21.47 29.1378 21.45C29.2178 21.43 29.2778 21.4 29.3178 21.36C29.4378 21.24 29.5878 21.2 29.7678 21.24C29.9278 21.28 30.0578 21.27 30.1578 21.21C30.3378 21.15 30.5078 21.13 30.6678 21.15C30.7678 21.17 30.8678 21.16 30.9678 21.12C31.0678 21.08 31.1678 21.06 31.2678 21.06C31.3078 21.06 31.3378 21.07 31.3578 21.09C31.3778 21.09 31.3978 21.08 31.4178 21.06C31.4578 21.06 31.4978 21.05 31.5378 21.03C31.5778 21.01 31.6078 21 31.6278 21C31.7678 20.94 31.8978 20.92 32.0178 20.94C32.1178 20.94 32.1678 20.94 32.1678 20.94C32.2478 20.92 32.3178 20.92 32.3778 20.94C32.4578 20.96 32.5278 20.99 32.5878 21.03C32.6878 21.05 32.7678 21.08 32.8278 21.12C32.9078 21.16 32.9878 21.19 33.0678 21.21C33.1078 21.21 33.1378 21.22 33.1578 21.24C33.2578 21.32 33.3778 21.39 33.5178 21.45C33.6778 21.51 33.7678 21.58 33.7878 21.66C33.8278 21.78 33.8478 21.9 33.8478 22.02C33.8478 22.12 33.8578 22.23 33.8778 22.35C33.8778 22.41 33.8678 22.47 33.8478 22.53C33.8478 22.59 33.8378 22.65 33.8178 22.71C33.7778 22.79 33.7278 22.88 33.6678 22.98C33.6278 23.08 33.5678 23.17 33.4878 23.25C33.4478 23.29 33.4078 23.33 33.3678 23.37C33.3478 23.41 33.3178 23.45 33.2778 23.49C33.1978 23.57 33.1078 23.64 33.0078 23.7C32.9078 23.76 32.7978 23.79 32.6778 23.79C32.5978 23.79 32.5378 23.8 32.4978 23.82C32.4178 23.86 32.3378 23.88 32.2578 23.88C32.1778 23.88 32.0878 23.88 31.9878 23.88C31.8478 23.9 31.7078 23.92 31.5678 23.94C31.4478 23.94 31.3178 23.93 31.1778 23.91C31.0978 23.89 31.0278 23.89 30.9678 23.91C30.7678 23.97 30.5678 23.98 30.3678 23.94C30.1678 23.94 29.9678 23.95 29.7678 23.97C29.5878 23.97 29.4078 23.97 29.2278 23.97H28.8378C28.7778 23.97 28.7278 23.98 28.6878 24C28.6078 24.04 28.5078 24.06 28.3878 24.06C28.2878 24.06 28.1878 24.05 28.0878 24.03H27.7878C27.7678 24.03 27.7378 24.03 27.6978 24.03C27.6578 24.05 27.6178 24.05 27.5778 24.03C27.5178 24.01 27.4578 24 27.3978 24C27.3578 24.02 27.3078 24.04 27.2478 24.06C27.2078 24.06 27.1678 24.06 27.1278 24.06C27.1078 24.08 27.0778 24.09 27.0378 24.09C26.8378 24.07 26.6478 24.07 26.4678 24.09C26.2878 24.13 26.0978 24.17 25.8978 24.21ZM56.7687 24.3C56.6487 24.28 56.5287 24.27 56.4087 24.27C56.2887 24.27 56.1787 24.24 56.0787 24.18C55.9187 24.12 55.7887 24.05 55.6887 23.97C55.4887 23.79 55.3087 23.58 55.1487 23.34C55.1287 23.3 55.1087 23.25 55.0887 23.19C55.0687 23.13 55.0387 23.08 54.9987 23.04C54.9187 22.86 54.8387 22.68 54.7587 22.5C54.6787 22.32 54.5887 22.14 54.4887 21.96C54.3887 21.78 54.2887 21.6 54.1887 21.42C54.0887 21.24 53.9887 21.06 53.8887 20.88C53.7887 20.7 53.6887 20.52 53.5887 20.34C53.4887 20.16 53.3987 19.97 53.3187 19.77L53.1387 19.47C53.0587 19.33 52.9787 19.19 52.8987 19.05C52.8187 18.91 52.7587 18.77 52.7187 18.63C52.6987 18.57 52.6487 18.48 52.5687 18.36L52.2987 17.91C52.2387 17.77 52.1687 17.63 52.0887 17.49C52.0287 17.35 51.9487 17.22 51.8487 17.1L51.6687 16.83C51.3487 16.31 51.0487 15.77 50.7687 15.21C50.7087 15.09 50.6387 14.97 50.5587 14.85C50.4987 14.73 50.4287 14.61 50.3487 14.49C50.3287 14.41 50.2887 14.34 50.2287 14.28C50.1887 14.22 50.1487 14.16 50.1087 14.1C50.0687 14.04 50.0187 14.04 49.9587 14.1C49.9387 14.16 49.9187 14.22 49.8987 14.28C49.8787 14.32 49.8587 14.37 49.8387 14.43C49.7587 14.65 49.6887 14.87 49.6287 15.09C49.5687 15.31 49.5087 15.53 49.4487 15.75C49.4087 15.95 49.3587 16.14 49.2987 16.32C49.2387 16.5 49.1887 16.68 49.1487 16.86C49.1287 17 49.1087 17.14 49.0887 17.28C49.0687 17.4 49.0387 17.52 48.9987 17.64C48.9987 17.7 48.9887 17.76 48.9687 17.82C48.9687 17.86 48.9587 17.91 48.9387 17.97C48.8587 18.27 48.7987 18.58 48.7587 18.9C48.7387 19.2 48.7087 19.51 48.6687 19.83V20.01C48.6887 20.09 48.6887 20.16 48.6687 20.22C48.6687 20.28 48.6587 20.34 48.6387 20.4C48.5787 20.56 48.5687 20.74 48.6087 20.94C48.6287 21.02 48.6387 21.1 48.6387 21.18C48.6587 21.26 48.6587 21.34 48.6387 21.42C48.6187 21.62 48.5987 21.82 48.5787 22.02C48.5787 22.2 48.5787 22.38 48.5787 22.56C48.5787 22.74 48.5487 22.92 48.4887 23.1C48.4487 23.18 48.3987 23.23 48.3387 23.25C48.2587 23.33 48.2087 23.4 48.1887 23.46C48.1687 23.54 48.1187 23.6 48.0387 23.64C47.9787 23.68 47.9287 23.72 47.8887 23.76C47.8687 23.78 47.8387 23.79 47.7987 23.79C47.7387 23.79 47.6987 23.8 47.6787 23.82C47.6187 23.84 47.5587 23.86 47.4987 23.88C47.4587 23.9 47.4187 23.92 47.3787 23.94C47.3187 23.94 47.2487 23.94 47.1687 23.94C47.1087 23.92 47.0487 23.91 46.9887 23.91C46.7687 23.89 46.6087 23.86 46.5087 23.82C46.4087 23.78 46.2687 23.65 46.0887 23.43C46.0687 23.37 46.0387 23.32 45.9987 23.28C45.9587 23.22 45.9187 23.16 45.8787 23.1C45.7387 22.92 45.6487 22.72 45.6087 22.5C45.5887 22.22 45.5287 21.94 45.4287 21.66C45.3487 21.38 45.2487 21.11 45.1287 20.85C45.1087 20.77 45.0787 20.69 45.0387 20.61C45.0187 20.53 44.9887 20.46 44.9487 20.4C44.8087 20.08 44.6687 19.77 44.5287 19.47C44.4087 19.15 44.2787 18.83 44.1387 18.51C44.1187 18.49 44.1087 18.47 44.1087 18.45C44.1087 18.43 44.0987 18.41 44.0787 18.39C43.9587 18.21 43.8487 18.03 43.7487 17.85C43.6687 17.65 43.5787 17.45 43.4787 17.25C43.3787 17.03 43.2487 16.8 43.0887 16.56C43.0487 16.46 42.9987 16.37 42.9387 16.29C42.8987 16.21 42.8587 16.13 42.8187 16.05C42.7987 16.01 42.7787 15.96 42.7587 15.9C42.7587 15.84 42.7387 15.79 42.6987 15.75C42.5387 15.53 42.3987 15.29 42.2787 15.03C42.1787 14.77 42.0587 14.52 41.9187 14.28L41.5887 13.74C41.5287 13.64 41.4587 13.54 41.3787 13.44C41.3187 13.34 41.2587 13.25 41.1987 13.17C41.1387 13.07 41.0787 12.99 41.0187 12.93C40.9587 12.85 40.9087 12.77 40.8687 12.69C40.7887 12.57 40.7087 12.46 40.6287 12.36C40.5487 12.24 40.4787 12.13 40.4187 12.03C40.3387 11.91 40.2587 11.8 40.1787 11.7C40.0987 11.58 40.0187 11.47 39.9387 11.37C39.7987 11.15 39.6887 10.94 39.6087 10.74C39.5887 10.64 39.5887 10.55 39.6087 10.47C39.6487 10.31 39.6787 10.16 39.6987 10.02C39.7387 9.86 39.7787 9.71 39.8187 9.57L39.9087 9.45C39.9887 9.37 40.0587 9.3 40.1187 9.24C40.1987 9.18 40.2787 9.12 40.3587 9.06C40.4387 9.02 40.4887 9 40.5087 9C40.7287 8.92 40.9387 8.88 41.1387 8.88C41.3387 8.88 41.5387 8.93 41.7387 9.03C41.8387 9.07 41.9387 9.12 42.0387 9.18C42.2587 9.3 42.3987 9.46 42.4587 9.66C42.4987 9.76 42.5387 9.86 42.5787 9.96C42.6387 10.06 42.6787 10.16 42.6987 10.26C42.8587 10.68 43.0787 11.08 43.3587 11.46C43.5187 11.68 43.6887 11.93 43.8687 12.21C43.9087 12.23 43.9387 12.26 43.9587 12.3C43.9787 12.34 43.9987 12.37 44.0187 12.39C44.1387 12.53 44.2487 12.69 44.3487 12.87C44.4487 13.05 44.5387 13.22 44.6187 13.38C44.6987 13.52 44.7587 13.66 44.7987 13.8C44.8587 13.92 44.9187 14.05 44.9787 14.19C45.1387 14.55 45.2887 14.91 45.4287 15.27C45.5687 15.63 45.7087 15.98 45.8487 16.32C45.8887 16.44 45.9387 16.55 45.9987 16.65C46.0587 16.75 46.1087 16.86 46.1487 16.98C46.1487 16.98 46.1487 16.99 46.1487 17.01C46.1687 17.01 46.1787 17 46.1787 16.98C46.2187 16.98 46.2387 16.97 46.2387 16.95C46.3387 16.79 46.3987 16.64 46.4187 16.5L46.6887 15.54C46.7287 15.42 46.7687 15.3 46.8087 15.18C46.8487 15.06 46.8887 14.93 46.9287 14.79C47.0487 14.51 47.1387 14.23 47.1987 13.95C47.2187 13.79 47.2787 13.62 47.3787 13.44C47.4387 13.34 47.4687 13.23 47.4687 13.11L47.5587 12.81C47.6787 12.45 47.7987 12.09 47.9187 11.73C48.0387 11.37 48.1787 11.03 48.3387 10.71C48.3987 10.59 48.4587 10.48 48.5187 10.38C48.5787 10.26 48.6387 10.15 48.6987 10.05C48.7387 9.97 48.7887 9.9 48.8487 9.84C48.9087 9.78 48.9787 9.74 49.0587 9.72C49.1387 9.62 49.2287 9.56 49.3287 9.54C49.4287 9.52 49.5187 9.48 49.5987 9.42C49.6187 9.4 49.6687 9.39 49.7487 9.39C49.8087 9.39 49.8787 9.41 49.9587 9.45C50.0587 9.49 50.1487 9.48 50.2287 9.42C50.3287 9.34 50.4187 9.36 50.4987 9.48C50.5387 9.56 50.5887 9.63 50.6487 9.69C50.7287 9.73 50.7987 9.77 50.8587 9.81C50.8987 9.85 50.9387 9.89 50.9787 9.93C51.0387 9.97 51.0787 10.02 51.0987 10.08L52.0887 11.79C52.1887 11.95 52.2887 12.12 52.3887 12.3C52.4887 12.46 52.5787 12.63 52.6587 12.81C52.7387 12.91 52.7987 13.02 52.8387 13.14C52.8987 13.26 52.9587 13.39 53.0187 13.53C53.1387 13.85 53.3087 14.17 53.5287 14.49C53.5687 14.55 53.6087 14.61 53.6487 14.67C53.6887 14.73 53.7187 14.79 53.7387 14.85C53.8387 15.09 53.9487 15.33 54.0687 15.57C54.2087 15.81 54.3387 16.06 54.4587 16.32C54.4787 16.36 54.4987 16.41 54.5187 16.47C54.5587 16.53 54.5887 16.58 54.6087 16.62C54.7087 16.88 54.8287 17.14 54.9687 17.4C55.1087 17.64 55.2487 17.88 55.3887 18.12C55.4087 18.16 55.4587 18.22 55.5387 18.3C55.5387 18.3 55.5487 18.3 55.5687 18.3C55.5887 18.3 55.5987 18.29 55.5987 18.27C55.6187 18.25 55.6487 18.2 55.6887 18.12C55.7487 17.94 55.8087 17.77 55.8687 17.61C55.9287 17.43 55.9687 17.25 55.9887 17.07C56.0287 16.91 56.0687 16.78 56.1087 16.68C56.2087 16.36 56.2987 16.05 56.3787 15.75C56.4587 15.43 56.5387 15.11 56.6187 14.79C56.6587 14.67 56.6987 14.55 56.7387 14.43C56.7787 14.29 56.8187 14.16 56.8587 14.04C56.9787 13.62 57.0987 13.21 57.2187 12.81C57.3387 12.39 57.4487 11.97 57.5487 11.55L57.9087 10.05C57.9487 9.93 57.9487 9.81 57.9087 9.69C57.8687 9.59 57.8787 9.51 57.9387 9.45C58.0187 9.35 58.0787 9.24 58.1187 9.12C58.1587 9 58.1987 8.89 58.2387 8.79C58.2987 8.59 58.3787 8.37 58.4787 8.13C58.4987 8.07 58.5287 8.01 58.5687 7.95C58.6087 7.89 58.6387 7.83 58.6587 7.77C58.7387 7.65 58.8287 7.58 58.9287 7.56C58.9887 7.52 59.0487 7.49 59.1087 7.47C59.1687 7.43 59.2287 7.4 59.2887 7.38C59.3087 7.36 59.3287 7.35 59.3487 7.35C59.3887 7.35 59.4187 7.34 59.4387 7.32C59.5387 7.28 59.6387 7.26 59.7387 7.26C59.8587 7.24 59.9587 7.2 60.0387 7.14C60.1587 7.06 60.2987 7.07 60.4587 7.17C60.6187 7.29 60.7487 7.4 60.8487 7.5C60.9687 7.62 61.0487 7.8 61.0887 8.04C61.1087 8.1 61.1187 8.16 61.1187 8.22C61.1187 8.28 61.1187 8.34 61.1187 8.4C61.0787 8.84 60.9887 9.27 60.8487 9.69C60.8087 9.81 60.7687 9.94 60.7287 10.08C60.6887 10.2 60.6487 10.32 60.6087 10.44C60.6087 10.46 60.5987 10.49 60.5787 10.53C60.5787 10.55 60.5787 10.58 60.5787 10.62C60.5587 10.94 60.5087 11.26 60.4287 11.58C60.3487 11.9 60.2587 12.21 60.1587 12.51C60.0787 12.77 60.0087 13.03 59.9487 13.29C59.8887 13.55 59.8187 13.81 59.7387 14.07C59.7187 14.11 59.6987 14.17 59.6787 14.25C59.6787 14.31 59.6587 14.36 59.6187 14.4C59.5587 14.52 59.5187 14.65 59.4987 14.79C59.4787 14.91 59.4487 15.04 59.4087 15.18C59.3887 15.26 59.3687 15.34 59.3487 15.42C59.3487 15.48 59.3287 15.55 59.2887 15.63C59.2287 15.85 59.1687 16.08 59.1087 16.32C59.0487 16.54 58.9987 16.76 58.9587 16.98L58.6887 18C58.6687 18.08 58.6487 18.16 58.6287 18.24C58.6287 18.3 58.6187 18.37 58.5987 18.45C58.5987 18.51 58.5887 18.57 58.5687 18.63C58.5687 18.69 58.5587 18.76 58.5387 18.84C58.5187 18.96 58.4887 19.09 58.4487 19.23C58.4287 19.35 58.4087 19.48 58.3887 19.62C58.3687 19.76 58.3487 19.9 58.3287 20.04C58.3087 20.16 58.2887 20.3 58.2687 20.46C58.2687 20.54 58.2587 20.62 58.2387 20.7C58.2387 20.78 58.2387 20.87 58.2387 20.97L58.1487 21.6C58.1487 21.8 58.1387 21.99 58.1187 22.17C58.0987 22.35 58.0687 22.54 58.0287 22.74C58.0087 22.78 57.9987 22.83 57.9987 22.89C57.9987 22.95 57.9987 23 57.9987 23.04C57.9987 23.22 57.9587 23.36 57.8787 23.46C57.8587 23.52 57.8287 23.58 57.7887 23.64C57.7487 23.7 57.7087 23.76 57.6687 23.82L57.5187 23.97C57.4587 23.99 57.3987 24.02 57.3387 24.06C57.2787 24.12 57.2187 24.17 57.1587 24.21C57.0387 24.27 56.9087 24.3 56.7687 24.3ZM82.56 27.15L82.35 27.06C82.25 27 82.2 26.92 82.2 26.82C82.18 26.64 82.13 26.46 82.05 26.28C81.97 26.12 81.88 25.97 81.78 25.83C81.62 25.57 81.51 25.29 81.45 24.99C81.45 24.93 81.44 24.86 81.42 24.78C81.42 24.72 81.42 24.66 81.42 24.6C81.44 24.26 81.42 23.92 81.36 23.58C81.32 23.22 81.28 22.87 81.24 22.53C81.22 22.39 81.2 22.26 81.18 22.14C81.16 22 81.14 21.86 81.12 21.72C81.1 21.66 81.09 21.61 81.09 21.57C81.09 21.51 81.08 21.46 81.06 21.42C81.02 21.22 80.99 21.03 80.97 20.85C80.95 20.65 80.92 20.45 80.88 20.25C80.86 20.13 80.84 20.01 80.82 19.89C80.8 19.77 80.77 19.65 80.73 19.53C80.71 19.37 80.68 19.21 80.64 19.05C80.6 18.89 80.56 18.73 80.52 18.57C80.5 18.43 80.47 18.3 80.43 18.18C80.39 18.04 80.36 17.9 80.34 17.76C80.32 17.7 80.3 17.64 80.28 17.58C80.28 17.52 80.26 17.46 80.22 17.4L80.13 17.19C80.09 17.01 80.04 16.83 79.98 16.65C79.92 16.45 79.87 16.26 79.83 16.08C79.79 15.96 79.74 15.84 79.68 15.72C79.62 15.6 79.57 15.48 79.53 15.36L79.35 14.91C79.31 14.77 79.27 14.63 79.23 14.49C79.19 14.33 79.15 14.18 79.11 14.04L79.02 13.53C79 13.43 78.98 13.32 78.96 13.2C78.94 13.08 78.92 12.97 78.9 12.87C78.9 12.77 78.89 12.69 78.87 12.63C78.87 12.55 78.87 12.47 78.87 12.39C78.85 12.25 78.84 12.12 78.84 12C78.84 11.86 78.83 11.72 78.81 11.58V11.37C78.85 11.23 78.87 11.1 78.87 10.98C78.89 10.86 78.91 10.74 78.93 10.62C78.97 10.52 78.97 10.43 78.93 10.35L78.75 9.96C78.73 9.92 78.71 9.89 78.69 9.87C78.69 9.85 78.68 9.83 78.66 9.81C78.56 9.71 78.47 9.6 78.39 9.48C78.31 9.34 78.22 9.21 78.12 9.09L78.06 9C78 8.88 77.93 8.76 77.85 8.64C77.79 8.5 77.71 8.39 77.61 8.31L77.16 7.68C77.08 7.56 77 7.44 76.92 7.32C76.84 7.2 76.75 7.08 76.65 6.96C76.55 6.8 76.44 6.65 76.32 6.51C76.22 6.35 76.1 6.2 75.96 6.06C75.66 5.7 75.42 5.29 75.24 4.83L75.06 4.29C74.94 3.95 74.91 3.59 74.97 3.21C74.97 3.17 74.97 3.13 74.97 3.09C74.99 3.05 75 3.01 75 2.97C75.06 2.51 75.3 2.13 75.72 1.83C75.8 1.77 75.88 1.73 75.96 1.71C76 1.69 76.04 1.68 76.08 1.68C76.14 1.68 76.19 1.67 76.23 1.65C76.35 1.61 76.46 1.59 76.56 1.59C76.6 1.59 76.64 1.6 76.68 1.62C76.74 1.64 76.79 1.66 76.83 1.68C76.91 1.7 76.99 1.71 77.07 1.71C77.17 1.71 77.26 1.75 77.34 1.83C77.44 1.93 77.53 2.04 77.61 2.16C77.69 2.26 77.76 2.38 77.82 2.52C77.86 2.62 77.93 2.68 78.03 2.7C78.09 2.72 78.14 2.77 78.18 2.85C78.18 2.87 78.18 2.9 78.18 2.94C78.2 2.96 78.21 2.98 78.21 3C78.23 3.18 78.31 3.35 78.45 3.51C78.47 3.55 78.5 3.59 78.54 3.63C78.7 3.83 78.86 4.03 79.02 4.23C79.18 4.43 79.34 4.63 79.5 4.83C79.54 4.89 79.58 4.95 79.62 5.01C79.68 5.05 79.72 5.1 79.74 5.16C79.98 5.54 80.22 5.91 80.46 6.27C80.7 6.63 80.93 6.99 81.15 7.35L81.39 7.71C81.41 7.73 81.42 7.74 81.42 7.74C81.44 7.74 81.46 7.75 81.48 7.77C81.52 7.81 81.57 7.81 81.63 7.77L81.93 7.47C82.03 7.35 82.13 7.23 82.23 7.11C82.35 6.99 82.47 6.88 82.59 6.78C82.87 6.5 83.13 6.22 83.37 5.94C83.63 5.64 83.89 5.35 84.15 5.07C84.25 4.95 84.36 4.83 84.48 4.71C84.6 4.59 84.71 4.48 84.81 4.38L85.23 3.93C85.39 3.73 85.55 3.54 85.71 3.36C85.87 3.16 86.03 2.96 86.19 2.76C86.31 2.6 86.42 2.45 86.52 2.31C86.64 2.17 86.77 2.03 86.91 1.89C87.23 1.53 87.58 1.25 87.96 1.05C88.1 0.969998 88.23 0.889998 88.35 0.809998C88.47 0.709998 88.59 0.619998 88.71 0.539998C88.87 0.419998 89.08 0.339999 89.34 0.299999C89.8 0.259999 90.16 0.409999 90.42 0.749999C90.5 0.829999 90.57 0.919999 90.63 1.02C90.69 1.12 90.73 1.23 90.75 1.35C90.83 1.49 90.85 1.67 90.81 1.89C90.81 2.07 90.76 2.24 90.66 2.4C90.54 2.66 90.37 2.92 90.15 3.18L89.94 3.48C89.9 3.56 89.85 3.64 89.79 3.72C89.73 3.78 89.68 3.84 89.64 3.9C89.6 3.96 89.54 4.03 89.46 4.11C89.38 4.25 89.28 4.37 89.16 4.47C89.06 4.55 88.95 4.64 88.83 4.74C88.75 4.8 88.67 4.86 88.59 4.92C88.53 4.98 88.46 5.04 88.38 5.1L88.02 5.31C87.88 5.37 87.75 5.46 87.63 5.58C87.57 5.64 87.52 5.68 87.48 5.7C87.34 5.8 87.2 5.92 87.06 6.06C86.94 6.18 86.82 6.3 86.7 6.42C86.62 6.5 86.54 6.57 86.46 6.63C86.4 6.69 86.33 6.75 86.25 6.81C86.17 6.87 86.09 6.94 86.01 7.02C85.93 7.08 85.85 7.14 85.77 7.2L85.38 7.56C85.36 7.58 85.34 7.6 85.32 7.62C85.3 7.62 85.28 7.63 85.26 7.65C85.06 7.89 84.82 8.1 84.54 8.28C84.48 8.34 84.45 8.37 84.45 8.37C84.43 8.45 84.39 8.51 84.33 8.55C84.29 8.59 84.24 8.63 84.18 8.67C84.16 8.69 84.14 8.71 84.12 8.73C84.1 8.75 84.07 8.77 84.03 8.79C83.95 8.93 83.85 9.06 83.73 9.18C83.61 9.3 83.49 9.41 83.37 9.51C83.31 9.55 83.25 9.6 83.19 9.66C83.15 9.72 83.11 9.78 83.07 9.84C83.03 9.88 83.02 9.95 83.04 10.05C83.06 10.11 83.08 10.18 83.1 10.26C83.12 10.32 83.14 10.38 83.16 10.44C83.22 10.64 83.22 10.85 83.16 11.07C83.16 11.09 83.15 11.12 83.13 11.16C83.13 11.18 83.13 11.21 83.13 11.25C83.11 11.29 83.08 11.33 83.04 11.37C83 11.41 82.98 11.46 82.98 11.52C82.96 11.56 82.95 11.62 82.95 11.7C82.95 11.8 82.89 11.87 82.77 11.91C82.73 11.91 82.69 11.94 82.65 12C82.63 12.02 82.62 12.04 82.62 12.06C82.62 12.08 82.6 12.1 82.56 12.12C82.44 12.18 82.4 12.27 82.44 12.39C82.44 12.47 82.44 12.56 82.44 12.66C82.46 12.76 82.47 12.86 82.47 12.96C82.49 13.12 82.51 13.28 82.53 13.44C82.55 13.6 82.57 13.76 82.59 13.92L82.68 14.49C82.74 14.75 82.79 15.02 82.83 15.3C82.89 15.56 82.94 15.83 82.98 16.11L83.25 17.52C83.29 17.7 83.33 17.88 83.37 18.06C83.41 18.24 83.44 18.42 83.46 18.6C83.48 18.76 83.5 18.93 83.52 19.11C83.56 19.27 83.59 19.43 83.61 19.59C83.63 19.71 83.64 19.83 83.64 19.95C83.64 20.05 83.64 20.16 83.64 20.28C83.66 20.3 83.67 20.33 83.67 20.37C83.67 20.41 83.68 20.45 83.7 20.49C83.76 20.67 83.79 20.85 83.79 21.03C83.79 21.11 83.79 21.19 83.79 21.27C83.81 21.33 83.82 21.39 83.82 21.45C83.84 21.51 83.85 21.57 83.85 21.63C83.87 21.69 83.89 21.75 83.91 21.81V21.9C83.93 22.04 83.95 22.17 83.97 22.29C83.99 22.41 84.01 22.54 84.03 22.68V22.8C84.01 22.96 84.01 23.13 84.03 23.31C84.05 23.47 84.07 23.63 84.09 23.79C84.09 23.89 84.1 23.98 84.12 24.06C84.16 24.16 84.19 24.26 84.21 24.36C84.21 24.44 84.2 24.5 84.18 24.54C84.1 24.62 84.04 24.74 84 24.9C84 24.92 83.99 24.94 83.97 24.96C83.97 24.98 83.97 24.99 83.97 24.99C83.91 25.07 83.88 25.16 83.88 25.26C83.84 25.48 83.76 25.65 83.64 25.77C83.44 25.97 83.34 26.24 83.34 26.58L83.28 26.82C83.24 26.96 83.14 27.06 82.98 27.12C82.82 27.2 82.68 27.21 82.56 27.15ZM95.6829 24.21C95.5629 24.21 95.4829 24.2 95.4429 24.18C95.3429 24.14 95.2429 24.12 95.1429 24.12C95.0629 24.14 94.9729 24.15 94.8729 24.15C94.8529 24.15 94.8329 24.15 94.8129 24.15C94.7929 24.17 94.7729 24.18 94.7529 24.18C94.6129 24.2 94.4729 24.21 94.3329 24.21C94.2129 24.21 94.0929 24.19 93.9729 24.15C93.9529 24.13 93.9329 24.12 93.9129 24.12C93.7729 24.14 93.6529 24.1 93.5529 24C93.4529 23.9 93.3529 23.81 93.2529 23.73C93.1529 23.63 93.1029 23.52 93.1029 23.4L93.0129 23.16C92.9529 23.02 92.9329 22.89 92.9529 22.77C92.9729 22.73 92.9729 22.69 92.9529 22.65C92.9529 22.61 92.9529 22.57 92.9529 22.53C92.9329 22.49 92.9229 22.45 92.9229 22.41C92.9229 22.35 92.9129 22.3 92.8929 22.26C92.8529 22.08 92.8229 21.9 92.8029 21.72C92.8029 21.52 92.8129 21.33 92.8329 21.15C92.8529 21.03 92.9229 20.83 93.0429 20.55C93.1629 20.25 93.2329 20.07 93.2529 20.01C93.3129 19.91 93.3429 19.83 93.3429 19.77C93.3229 19.55 93.3129 19.33 93.3129 19.11C93.3329 18.87 93.3429 18.64 93.3429 18.42C93.3429 18.28 93.3729 18.17 93.4329 18.09C93.5129 17.95 93.5229 17.8 93.4629 17.64L93.3729 17.31C93.2529 17.09 93.2629 16.9 93.4029 16.74C93.4029 16.72 93.4029 16.71 93.4029 16.71C93.4229 16.69 93.4329 16.67 93.4329 16.65C93.4729 16.61 93.4829 16.56 93.4629 16.5C93.4429 16.42 93.4329 16.36 93.4329 16.32C93.4329 16.24 93.4429 16.16 93.4629 16.08C93.5029 15.98 93.5129 15.89 93.4929 15.81C93.4929 15.81 93.4729 15.79 93.4329 15.75C93.4129 15.71 93.4029 15.63 93.4029 15.51C93.4229 15.39 93.4329 15.32 93.4329 15.3V14.46C93.4529 14.36 93.4629 14.27 93.4629 14.19C93.4629 14.09 93.4729 13.99 93.4929 13.89C93.5129 13.77 93.5129 13.65 93.4929 13.53C93.4929 13.39 93.4929 13.25 93.4929 13.11C93.4729 13.01 93.4529 12.9 93.4329 12.78C93.4329 12.66 93.4329 12.54 93.4329 12.42C93.4129 12.38 93.4029 12.33 93.4029 12.27C93.4029 12.21 93.4029 12.16 93.4029 12.12C93.3829 12.02 93.3629 11.92 93.3429 11.82C93.3429 11.72 93.3429 11.62 93.3429 11.52C93.3429 11.48 93.3029 11.35 93.2229 11.13C93.1429 10.89 93.1129 10.69 93.1329 10.53C93.1529 10.49 93.1629 10.44 93.1629 10.38C93.1629 10.32 93.1429 10.27 93.1029 10.23C93.0629 10.21 93.0429 10.17 93.0429 10.11V10.02C93.1029 9.78 93.0729 9.54 92.9529 9.3C92.8729 9.18 92.8429 9.06 92.8629 8.94C92.8629 8.78 92.7929 8.66 92.6529 8.58C92.5529 8.48 92.4629 8.36 92.3829 8.22C92.3029 8.08 92.2529 7.94 92.2329 7.8C92.2129 7.7 92.2029 7.6 92.2029 7.5C92.2029 7.4 92.2029 7.31 92.2029 7.23C92.2029 7.15 92.2129 7.1 92.2329 7.08C92.3129 7 92.3529 6.91 92.3529 6.81C92.3529 6.69 92.3629 6.6 92.3829 6.54C92.4029 6.52 92.4229 6.51 92.4429 6.51C92.4629 6.51 92.4829 6.5 92.5029 6.48C92.5829 6.46 92.6229 6.39 92.6229 6.27C92.5829 6.19 92.5629 6.12 92.5629 6.06C92.5429 5.98 92.5729 5.91 92.6529 5.85C92.6929 5.77 92.7429 5.75 92.8029 5.79C92.9429 5.85 93.1029 5.83 93.2829 5.73C93.3629 5.69 93.4129 5.67 93.4329 5.67C93.4929 5.67 93.5229 5.67 93.5229 5.67C93.5429 5.65 93.6029 5.64 93.7029 5.64C93.8229 5.66 93.9329 5.62 94.0329 5.52C94.1729 5.38 94.3429 5.31 94.5429 5.31H96.4029C96.8629 5.33 97.3229 5.33 97.7829 5.31C98.2429 5.29 98.6929 5.28 99.1329 5.28C99.2329 5.28 99.3129 5.28 99.3729 5.28C99.4529 5.26 99.5329 5.24 99.6129 5.22C99.7329 5.16 99.8729 5.13 100.033 5.13H100.723C100.883 5.13 101.023 5.13 101.143 5.13C101.283 5.11 101.423 5.09 101.563 5.07C101.643 5.05 101.713 5.04 101.773 5.04C101.853 5.04 101.933 5.04 102.013 5.04C102.093 5.04 102.173 5.04 102.253 5.04C102.333 5.04 102.413 5.03 102.493 5.01C102.653 4.99 102.823 4.98 103.003 4.98C103.183 4.96 103.353 4.95 103.513 4.95C103.593 4.95 103.663 4.95 103.723 4.95C103.803 4.93 103.883 4.91 103.963 4.89C104.123 4.85 104.273 4.83 104.413 4.83C104.573 4.81 104.723 4.79 104.863 4.77C105.023 4.75 105.173 4.73 105.313 4.71C105.473 4.69 105.623 4.67 105.763 4.65C105.943 4.65 106.073 4.67 106.153 4.71C106.273 4.79 106.383 4.86 106.483 4.92C106.603 4.98 106.713 5.06 106.813 5.16C106.893 5.24 106.943 5.31 106.963 5.37C106.983 5.45 107.003 5.53 107.023 5.61C107.043 5.69 107.063 5.78 107.083 5.88V6.09C107.063 6.19 107.043 6.3 107.023 6.42C107.023 6.52 107.013 6.63 106.993 6.75C106.953 6.83 106.903 6.9 106.843 6.96L106.303 7.5C106.103 7.56 105.903 7.6 105.703 7.62C105.523 7.64 105.333 7.64 105.133 7.62H104.923C104.823 7.64 104.723 7.65 104.623 7.65C104.523 7.65 104.423 7.64 104.323 7.62C104.203 7.6 104.083 7.6 103.963 7.62C103.843 7.62 103.723 7.62 103.603 7.62C103.523 7.62 103.443 7.63 103.363 7.65C103.303 7.65 103.233 7.64 103.153 7.62C103.053 7.6 102.953 7.6 102.853 7.62C102.773 7.62 102.683 7.63 102.583 7.65C102.503 7.65 102.413 7.66 102.313 7.68C102.233 7.68 102.143 7.68 102.043 7.68C101.783 7.72 101.503 7.74 101.203 7.74C100.923 7.74 100.643 7.76 100.363 7.8C100.183 7.78 100.013 7.79 99.8529 7.83C99.6929 7.85 99.5229 7.87 99.3429 7.89C99.1829 7.91 99.0129 7.92 98.8329 7.92C98.6529 7.92 98.4829 7.94 98.3229 7.98C98.1229 7.98 97.9229 8.01 97.7229 8.07C97.5429 8.11 97.3529 8.14 97.1529 8.16L96.9429 8.19C96.8029 8.19 96.6729 8.21 96.5529 8.25C96.4329 8.27 96.3029 8.3 96.1629 8.34C96.0829 8.36 96.0029 8.38 95.9229 8.4C95.8429 8.4 95.7529 8.41 95.6529 8.43C95.5929 8.43 95.5229 8.45 95.4429 8.49C95.3829 8.51 95.3529 8.57 95.3529 8.67L95.4429 8.94C95.4629 8.98 95.4529 9.08 95.4129 9.24C95.3929 9.4 95.3729 9.52 95.3529 9.6C95.3529 9.66 95.3629 9.72 95.3829 9.78C95.4029 9.84 95.4229 9.9 95.4429 9.96C95.5029 10.12 95.5329 10.3 95.5329 10.5C95.5329 10.68 95.5529 10.85 95.5929 11.01C95.6129 11.09 95.6229 11.18 95.6229 11.28C95.6229 11.36 95.6329 11.45 95.6529 11.55C95.6529 11.59 95.6529 11.64 95.6529 11.7C95.6729 11.74 95.6829 11.79 95.6829 11.85C95.6829 11.91 95.6729 11.95 95.6529 11.97C95.5929 12.05 95.5629 12.14 95.5629 12.24C95.5629 12.34 95.5629 12.44 95.5629 12.54C95.6629 12.74 95.7129 12.94 95.7129 13.14C95.7129 13.34 95.7129 13.54 95.7129 13.74C95.7129 13.8 95.7629 13.82 95.8629 13.8H95.8929C95.9329 13.72 95.9729 13.66 96.0129 13.62C96.0729 13.62 96.1429 13.6 96.2229 13.56C96.2829 13.52 96.3629 13.5 96.4629 13.5C96.6229 13.52 96.7729 13.52 96.9129 13.5C97.0529 13.46 97.1929 13.42 97.3329 13.38C98.2729 13.14 99.1529 12.83 99.9729 12.45C100.193 12.35 100.423 12.27 100.663 12.21C100.903 12.13 101.143 12.08 101.383 12.06H101.473C101.653 12.04 101.833 12.02 102.013 12C102.193 11.98 102.373 11.97 102.553 11.97C102.793 11.95 103.023 11.92 103.243 11.88C103.483 11.84 103.723 11.81 103.963 11.79C104.103 11.75 104.233 11.72 104.353 11.7C104.473 11.66 104.603 11.61 104.743 11.55C105.003 11.45 105.243 11.4 105.463 11.4C105.623 11.42 105.773 11.46 105.913 11.52C106.053 11.56 106.193 11.62 106.333 11.7C106.633 11.9 106.783 12.2 106.783 12.6C106.783 12.76 106.763 12.92 106.723 13.08C106.703 13.24 106.693 13.4 106.693 13.56C106.693 13.6 106.673 13.64 106.633 13.68L106.543 13.83C106.523 13.91 106.503 13.99 106.483 14.07C106.463 14.15 106.413 14.21 106.333 14.25C106.213 14.35 106.083 14.46 105.943 14.58C105.823 14.68 105.683 14.75 105.523 14.79C105.443 14.81 105.363 14.83 105.283 14.85C105.223 14.87 105.153 14.88 105.073 14.88C104.753 14.88 104.423 14.9 104.083 14.94C103.763 14.98 103.433 15.02 103.093 15.06C102.833 15.08 102.573 15.11 102.313 15.15C102.073 15.19 101.823 15.21 101.563 15.21C101.323 15.21 101.053 15.26 100.753 15.36C100.553 15.4 100.343 15.44 100.123 15.48C99.9029 15.52 99.6829 15.55 99.4629 15.57C99.3029 15.59 99.1329 15.62 98.9529 15.66C98.7929 15.68 98.6329 15.7 98.4729 15.72L97.9629 15.81C97.9229 15.83 97.8629 15.84 97.7829 15.84C97.6429 15.88 97.5029 15.91 97.3629 15.93C97.2229 15.95 97.0829 15.98 96.9429 16.02C96.8029 16.04 96.6629 16.07 96.5229 16.11C96.4029 16.15 96.2729 16.19 96.1329 16.23C96.0329 16.25 95.9529 16.29 95.8929 16.35C95.8329 16.39 95.7829 16.45 95.7429 16.53C95.7229 16.59 95.7229 16.65 95.7429 16.71C95.7629 16.79 95.7529 16.87 95.7129 16.95C95.7329 17.15 95.7429 17.35 95.7429 17.55C95.7629 17.75 95.7629 17.95 95.7429 18.15C95.7829 18.31 95.7929 18.47 95.7729 18.63C95.7729 18.79 95.7629 18.95 95.7429 19.11C95.7029 19.35 95.7129 19.55 95.7729 19.71C95.8329 19.97 95.8129 20.24 95.7129 20.52C95.6729 20.64 95.6729 20.72 95.7129 20.76C95.7529 20.82 95.7529 20.89 95.7129 20.97V21.15C95.6929 21.31 95.7629 21.39 95.9229 21.39H95.9829C96.1229 21.39 96.2629 21.44 96.4029 21.54C96.5029 21.64 96.6229 21.67 96.7629 21.63L97.6029 21.54C97.7229 21.52 97.8429 21.51 97.9629 21.51C98.0829 21.49 98.2029 21.48 98.3229 21.48C98.3629 21.46 98.4229 21.47 98.5029 21.51C98.6029 21.57 98.6929 21.58 98.7729 21.54C98.8129 21.5 98.8629 21.47 98.9229 21.45C99.0029 21.43 99.0629 21.4 99.1029 21.36C99.2229 21.24 99.3729 21.2 99.5529 21.24C99.7129 21.28 99.8429 21.27 99.9429 21.21C100.123 21.15 100.293 21.13 100.453 21.15C100.553 21.17 100.653 21.16 100.753 21.12C100.853 21.08 100.953 21.06 101.053 21.06C101.093 21.06 101.123 21.07 101.143 21.09C101.163 21.09 101.183 21.08 101.203 21.06C101.243 21.06 101.283 21.05 101.323 21.03C101.363 21.01 101.393 21 101.413 21C101.553 20.94 101.683 20.92 101.803 20.94C101.903 20.94 101.953 20.94 101.953 20.94C102.033 20.92 102.103 20.92 102.163 20.94C102.243 20.96 102.313 20.99 102.373 21.03C102.473 21.05 102.553 21.08 102.613 21.12C102.693 21.16 102.773 21.19 102.853 21.21C102.893 21.21 102.923 21.22 102.943 21.24C103.043 21.32 103.163 21.39 103.303 21.45C103.463 21.51 103.553 21.58 103.573 21.66C103.613 21.78 103.633 21.9 103.633 22.02C103.633 22.12 103.643 22.23 103.663 22.35C103.663 22.41 103.653 22.47 103.633 22.53C103.633 22.59 103.623 22.65 103.603 22.71C103.563 22.79 103.513 22.88 103.453 22.98C103.413 23.08 103.353 23.17 103.273 23.25C103.233 23.29 103.193 23.33 103.153 23.37C103.133 23.41 103.103 23.45 103.063 23.49C102.983 23.57 102.893 23.64 102.793 23.7C102.693 23.76 102.583 23.79 102.463 23.79C102.383 23.79 102.323 23.8 102.283 23.82C102.203 23.86 102.123 23.88 102.043 23.88C101.963 23.88 101.873 23.88 101.773 23.88C101.633 23.9 101.493 23.92 101.353 23.94C101.233 23.94 101.103 23.93 100.963 23.91C100.883 23.89 100.813 23.89 100.753 23.91C100.553 23.97 100.353 23.98 100.153 23.94C99.9529 23.94 99.7529 23.95 99.5529 23.97C99.3729 23.97 99.1929 23.97 99.0129 23.97H98.6229C98.5629 23.97 98.5129 23.98 98.4729 24C98.3929 24.04 98.2929 24.06 98.1729 24.06C98.0729 24.06 97.9729 24.05 97.8729 24.03H97.5729C97.5529 24.03 97.5229 24.03 97.4829 24.03C97.4429 24.05 97.4029 24.05 97.3629 24.03C97.3029 24.01 97.2429 24 97.1829 24C97.1429 24.02 97.0929 24.04 97.0329 24.06C96.9929 24.06 96.9529 24.06 96.9129 24.06C96.8929 24.08 96.8629 24.09 96.8229 24.09C96.6229 24.07 96.4329 24.07 96.2529 24.09C96.0729 24.13 95.8829 24.17 95.6829 24.21ZM121.082 26.19C120.902 26.19 120.742 26.12 120.602 25.98C120.562 25.92 120.522 25.86 120.482 25.8C120.442 25.74 120.402 25.68 120.362 25.62C120.182 25.2 120.092 24.76 120.092 24.3L120.002 23.58C119.942 23.3 119.892 23.02 119.852 22.74C119.812 22.46 119.742 22.19 119.642 21.93L119.462 21.42C119.462 21.38 119.452 21.34 119.432 21.3C119.432 21.26 119.422 21.22 119.402 21.18L118.952 19.59C118.932 19.55 118.912 19.5 118.892 19.44C118.892 19.38 118.872 19.33 118.832 19.29C118.772 19.17 118.722 19.05 118.682 18.93C118.662 18.79 118.632 18.65 118.592 18.51C118.572 18.41 118.552 18.32 118.532 18.24C118.512 18.14 118.482 18.04 118.442 17.94C118.402 17.82 118.362 17.75 118.322 17.73C118.282 17.69 118.192 17.69 118.052 17.73C117.952 17.75 117.842 17.77 117.722 17.79C117.622 17.79 117.522 17.81 117.422 17.85C117.342 17.87 117.242 17.89 117.122 17.91C117.022 17.91 116.922 17.92 116.822 17.94L116.402 18.03C116.302 18.05 116.192 18.08 116.072 18.12C115.972 18.14 115.872 18.15 115.772 18.15L115.232 18.24C115.072 18.28 114.902 18.32 114.722 18.36C114.542 18.4 114.372 18.44 114.212 18.48C113.732 18.6 113.252 18.69 112.772 18.75C112.612 18.79 112.522 18.86 112.502 18.96C112.482 18.96 112.472 18.97 112.472 18.99C112.352 19.31 112.212 19.63 112.052 19.95C111.912 20.25 111.762 20.56 111.602 20.88C111.562 20.96 111.522 21.04 111.482 21.12C111.462 21.18 111.432 21.25 111.392 21.33C111.372 21.37 111.352 21.42 111.332 21.48C111.312 21.52 111.292 21.56 111.272 21.6C111.152 21.74 111.092 21.91 111.092 22.11C111.072 22.23 111.032 22.35 110.972 22.47C110.912 22.57 110.852 22.67 110.792 22.77C110.772 22.83 110.732 22.86 110.672 22.86C110.592 22.88 110.512 22.91 110.432 22.95C110.352 22.99 110.262 23.03 110.162 23.07C110.102 23.09 110.042 23.09 109.982 23.07C109.942 23.05 109.892 23.03 109.832 23.01C109.792 22.97 109.752 22.95 109.712 22.95C109.492 22.93 109.332 22.8 109.232 22.56C109.072 22.24 108.962 21.92 108.902 21.6C108.882 21.52 108.882 21.45 108.902 21.39C108.942 21.33 108.972 21.27 108.992 21.21C109.112 21.13 109.182 21.04 109.202 20.94V20.91C109.202 20.65 109.252 20.41 109.352 20.19C109.472 19.95 109.572 19.72 109.652 19.5C109.692 19.38 109.742 19.26 109.802 19.14C109.862 19.02 109.922 18.9 109.982 18.78C110.062 18.64 110.122 18.51 110.162 18.39C110.222 18.25 110.272 18.11 110.312 17.97C110.372 17.81 110.372 17.66 110.312 17.52C110.272 17.4 110.252 17.29 110.252 17.19C110.252 17.07 110.262 16.95 110.282 16.83C110.282 16.61 110.362 16.42 110.522 16.26C110.602 16.16 110.682 16.08 110.762 16.02C110.862 15.94 110.952 15.86 111.032 15.78C111.212 15.6 111.352 15.36 111.452 15.06C111.532 14.8 111.592 14.54 111.632 14.28C111.692 14 111.752 13.73 111.812 13.47C111.852 13.21 111.892 12.96 111.932 12.72C111.992 12.46 112.052 12.21 112.112 11.97C112.132 11.87 112.152 11.78 112.172 11.7C112.212 11.6 112.242 11.51 112.262 11.43C112.322 11.27 112.382 11.12 112.442 10.98C112.502 10.82 112.542 10.66 112.562 10.5C112.602 10.42 112.602 10.35 112.562 10.29C112.542 10.19 112.542 10.1 112.562 10.02C112.602 9.94 112.632 9.86 112.652 9.78C112.712 9.64 112.752 9.5 112.772 9.36C112.812 9.22 112.862 9.08 112.922 8.94C113.022 8.68 113.102 8.47 113.162 8.31C113.242 8.13 113.312 7.93 113.372 7.71C113.412 7.59 113.452 7.48 113.492 7.38C113.552 7.26 113.592 7.14 113.612 7.02C113.672 6.84 113.722 6.66 113.762 6.48C113.802 6.28 113.822 6.09 113.822 5.91C113.862 5.75 113.902 5.64 113.942 5.58C114.042 5.38 114.162 5.21 114.302 5.07C114.462 4.93 114.612 4.79 114.752 4.65C114.852 4.59 114.952 4.55 115.052 4.53C115.152 4.49 115.252 4.5 115.352 4.56C115.432 4.6 115.482 4.62 115.502 4.62C115.682 4.6 115.832 4.64 115.952 4.74C116.072 4.84 116.172 4.96 116.252 5.1C116.292 5.14 116.322 5.19 116.342 5.25C116.362 5.31 116.382 5.36 116.402 5.4C116.502 5.56 116.552 5.72 116.552 5.88C116.552 5.96 116.562 6.05 116.582 6.15C116.602 6.23 116.622 6.32 116.642 6.42C116.702 6.54 116.792 6.6 116.912 6.6C116.932 6.58 116.952 6.58 116.972 6.6C116.992 6.62 117.002 6.64 117.002 6.66C117.102 6.78 117.132 6.91 117.092 7.05C117.052 7.21 117.042 7.37 117.062 7.53C117.102 7.67 117.142 7.82 117.182 7.98C117.262 8.18 117.342 8.38 117.422 8.58C117.502 8.78 117.582 8.98 117.662 9.18C117.762 9.4 117.862 9.62 117.962 9.84C118.062 10.06 118.152 10.28 118.232 10.5C118.332 10.78 118.432 11.06 118.532 11.34C118.652 11.62 118.782 11.9 118.922 12.18L119.012 12.51C119.032 12.59 119.052 12.67 119.072 12.75C119.112 12.83 119.142 12.91 119.162 12.99C119.202 13.05 119.232 13.11 119.252 13.17C119.292 13.23 119.332 13.28 119.372 13.32C119.472 13.46 119.532 13.61 119.552 13.77C119.612 13.97 119.702 14.15 119.822 14.31C119.862 14.37 119.922 14.4 120.002 14.4C120.302 14.36 120.602 14.33 120.902 14.31C121.202 14.27 121.502 14.21 121.802 14.13C122.022 14.07 122.232 14.04 122.432 14.04C122.812 14.04 123.162 14.17 123.482 14.43C123.862 14.73 124.062 15.11 124.082 15.57C124.082 15.67 124.092 15.75 124.112 15.81C124.112 15.95 124.072 16.06 123.992 16.14C123.972 16.2 123.932 16.26 123.872 16.32C123.832 16.38 123.792 16.44 123.752 16.5C123.712 16.58 123.672 16.64 123.632 16.68L123.452 16.83C123.432 16.87 123.402 16.92 123.362 16.98C123.322 17.02 123.272 17.05 123.212 17.07C123.132 17.09 123.052 17.12 122.972 17.16C122.892 17.18 122.802 17.19 122.702 17.19C122.342 17.23 122.022 17.22 121.742 17.16H121.262C121.222 17.16 121.162 17.18 121.082 17.22C121.002 17.26 120.962 17.31 120.962 17.37V17.49C121.022 17.67 121.062 17.86 121.082 18.06C121.122 18.24 121.182 18.41 121.262 18.57C121.262 18.65 121.282 18.73 121.322 18.81C121.422 18.99 121.502 19.18 121.562 19.38C121.622 19.56 121.672 19.75 121.712 19.95C121.712 19.99 121.732 20.07 121.772 20.19C121.832 20.33 121.882 20.48 121.922 20.64C121.962 20.78 121.992 20.93 122.012 21.09C122.012 21.21 122.042 21.32 122.102 21.42C122.182 21.6 122.242 21.78 122.282 21.96C122.322 22.14 122.352 22.33 122.372 22.53C122.392 22.55 122.402 22.59 122.402 22.65C122.402 22.69 122.412 22.73 122.432 22.77C122.532 22.99 122.602 23.23 122.642 23.49C122.682 23.73 122.732 23.97 122.792 24.21C122.832 24.33 122.852 24.45 122.852 24.57C122.872 24.71 122.882 24.85 122.882 24.99C122.882 25.09 122.852 25.2 122.792 25.32C122.732 25.38 122.702 25.41 122.702 25.41C122.582 25.43 122.512 25.5 122.492 25.62L122.402 25.8C122.362 25.88 122.302 25.93 122.222 25.95C122.142 25.95 122.072 25.98 122.012 26.04C121.932 26.12 121.822 26.16 121.682 26.16C121.602 26.16 121.502 26.16 121.382 26.16C121.282 26.16 121.182 26.17 121.082 26.19ZM113.852 15.3C113.972 15.28 114.092 15.26 114.212 15.24C114.352 15.22 114.502 15.2 114.662 15.18C114.762 15.16 114.892 15.14 115.052 15.12C115.212 15.1 115.362 15.08 115.502 15.06C115.642 15.02 115.782 15 115.922 15C116.062 14.98 116.202 14.96 116.342 14.94C116.462 14.9 116.582 14.88 116.702 14.88C116.822 14.86 116.942 14.84 117.062 14.82C117.242 14.78 117.312 14.68 117.272 14.52C117.252 14.36 117.212 14.2 117.152 14.04C117.112 13.86 117.022 13.71 116.882 13.59C116.842 13.55 116.822 13.49 116.822 13.41V13.32C116.782 13.16 116.732 13.01 116.672 12.87C116.632 12.71 116.582 12.56 116.522 12.42C116.482 12.26 116.432 12.12 116.372 12C116.332 11.86 116.282 11.72 116.222 11.58L115.862 10.5C115.802 10.36 115.742 10.22 115.682 10.08C115.642 9.94 115.602 9.8 115.562 9.66L115.472 9.54H115.382L115.322 9.63C115.222 9.93 115.102 10.23 114.962 10.53C114.842 10.83 114.732 11.15 114.632 11.49C114.632 11.53 114.622 11.58 114.602 11.64C114.582 11.7 114.562 11.76 114.542 11.82C114.462 12.02 114.382 12.24 114.302 12.48C114.242 12.72 114.192 12.96 114.152 13.2C114.132 13.34 114.112 13.48 114.092 13.62C114.072 13.74 114.042 13.87 114.002 14.01L113.732 15.18C113.712 15.2 113.722 15.23 113.762 15.27C113.802 15.29 113.832 15.3 113.852 15.3ZM129.117 24.6C128.737 24.64 128.427 24.52 128.187 24.24C128.067 24.12 127.957 23.99 127.857 23.85C127.757 23.71 127.677 23.56 127.617 23.4C127.517 23.12 127.427 22.84 127.347 22.56C127.267 22.26 127.197 21.97 127.137 21.69C127.077 21.47 127.047 21.26 127.047 21.06C127.027 20.84 126.997 20.63 126.957 20.43C126.937 20.21 126.927 19.99 126.927 19.77C126.927 19.65 126.927 19.53 126.927 19.41C126.927 19.27 126.917 19.14 126.897 19.02C126.877 18.94 126.867 18.87 126.867 18.81C126.867 18.75 126.867 18.68 126.867 18.6C126.867 18.32 126.867 18.04 126.867 17.76C126.867 17.46 126.857 17.17 126.837 16.89C126.837 16.73 126.827 16.59 126.807 16.47C126.787 16.33 126.747 16.19 126.687 16.05C126.607 15.83 126.597 15.59 126.657 15.33C126.657 15.27 126.667 15.23 126.687 15.21C126.727 15.07 126.747 14.93 126.747 14.79C126.767 14.65 126.767 14.51 126.747 14.37C126.727 14.27 126.717 14.17 126.717 14.07C126.717 13.97 126.717 13.88 126.717 13.8C126.697 13.58 126.687 13.36 126.687 13.14C126.707 12.9 126.727 12.67 126.747 12.45C126.767 12.39 126.777 12.33 126.777 12.27C126.777 12.21 126.777 12.15 126.777 12.09C126.757 11.87 126.757 11.66 126.777 11.46C126.817 11.26 126.847 11.06 126.867 10.86C126.907 10.62 126.947 10.39 126.987 10.17C127.027 9.93 127.077 9.69 127.137 9.45C127.177 9.35 127.197 9.24 127.197 9.12C127.197 9 127.197 8.88 127.197 8.76C127.197 8.66 127.187 8.56 127.167 8.46C127.167 8.36 127.167 8.27 127.167 8.19C127.167 8.13 127.167 8.07 127.167 8.01C127.167 7.95 127.177 7.89 127.197 7.83C127.217 7.77 127.227 7.71 127.227 7.65C127.227 7.59 127.237 7.55 127.257 7.53C127.317 7.45 127.367 7.38 127.407 7.32C127.447 7.24 127.507 7.17 127.587 7.11C127.687 7.05 127.777 6.99 127.857 6.93C127.957 6.87 128.047 6.82 128.127 6.78C128.227 6.74 128.307 6.69 128.367 6.63C128.447 6.53 128.527 6.44 128.607 6.36C128.707 6.26 128.787 6.15 128.847 6.03C128.947 5.93 129.047 5.82 129.147 5.7C129.267 5.56 129.397 5.45 129.537 5.37C129.577 5.35 129.637 5.3 129.717 5.22C129.957 5 130.237 4.86 130.557 4.8C130.617 4.78 130.667 4.77 130.707 4.77C130.767 4.75 130.827 4.74 130.887 4.74L131.097 4.65C131.257 4.59 131.397 4.62 131.517 4.74C131.557 4.8 131.607 4.86 131.667 4.92C131.747 4.96 131.817 5 131.877 5.04C132.037 5.18 132.187 5.33 132.327 5.49C132.487 5.65 132.627 5.83 132.747 6.03C132.947 6.35 133.117 6.67 133.257 6.99C133.417 7.31 133.567 7.64 133.707 7.98L134.247 9.27C134.267 9.39 134.317 9.5 134.397 9.6C134.557 9.9 134.677 10.21 134.757 10.53C134.837 10.83 134.917 11.14 134.997 11.46C135.017 11.5 135.027 11.54 135.027 11.58C135.047 11.62 135.057 11.66 135.057 11.7C135.097 11.86 135.127 12.03 135.147 12.21C135.187 12.37 135.197 12.53 135.177 12.69C135.197 12.87 135.187 13.05 135.147 13.23C135.127 13.39 135.097 13.55 135.057 13.71C134.997 13.91 134.927 14.1 134.847 14.28C134.767 14.44 134.677 14.61 134.577 14.79C134.537 14.91 134.467 15.02 134.367 15.12C134.267 15.22 134.167 15.31 134.067 15.39C133.907 15.47 133.747 15.59 133.587 15.75C133.547 15.79 133.497 15.82 133.437 15.84C133.397 15.86 133.357 15.89 133.317 15.93C133.177 15.99 133.027 16.06 132.867 16.14C132.707 16.2 132.547 16.26 132.387 16.32C132.367 16.32 132.357 16.34 132.357 16.38C132.357 16.4 132.367 16.42 132.387 16.44L133.197 17.01C133.297 17.07 133.387 17.13 133.467 17.19C133.547 17.23 133.627 17.28 133.707 17.34L133.887 17.43C134.127 17.57 134.367 17.72 134.607 17.88C134.847 18.04 135.077 18.2 135.297 18.36C135.717 18.62 136.137 18.89 136.557 19.17C136.977 19.43 137.377 19.72 137.757 20.04C138.097 20.3 138.397 20.6 138.657 20.94C138.717 21 138.777 21.07 138.837 21.15C138.897 21.21 138.967 21.26 139.047 21.3L139.137 21.39C139.457 21.67 139.637 22.05 139.677 22.53C139.677 22.59 139.667 22.65 139.647 22.71C139.647 22.77 139.647 22.83 139.647 22.89C139.647 23.01 139.607 23.11 139.527 23.19C139.447 23.23 139.407 23.28 139.407 23.34C139.347 23.48 139.257 23.58 139.137 23.64C139.037 23.68 138.937 23.74 138.837 23.82C138.797 23.84 138.727 23.85 138.627 23.85C138.507 23.83 138.377 23.81 138.237 23.79C138.117 23.77 137.997 23.76 137.877 23.76C137.717 23.76 137.547 23.69 137.367 23.55C137.247 23.45 137.137 23.36 137.037 23.28C136.937 23.18 136.837 23.06 136.737 22.92C136.477 22.56 136.137 22.23 135.717 21.93C135.517 21.77 135.327 21.62 135.147 21.48C134.967 21.34 134.767 21.21 134.547 21.09C134.407 21.01 134.267 20.93 134.127 20.85C134.007 20.75 133.867 20.66 133.707 20.58C133.207 20.24 132.697 19.91 132.177 19.59C131.657 19.25 131.137 18.91 130.617 18.57C130.537 18.51 130.447 18.45 130.347 18.39C130.247 18.33 130.147 18.27 130.047 18.21C130.007 18.17 129.947 18.13 129.867 18.09C129.787 18.09 129.747 18.12 129.747 18.18C129.747 18.2 129.737 18.22 129.717 18.24C129.717 18.24 129.717 18.25 129.717 18.27C129.717 18.33 129.717 18.39 129.717 18.45C129.717 18.51 129.727 18.57 129.747 18.63C129.767 18.79 129.777 18.95 129.777 19.11C129.777 19.25 129.777 19.4 129.777 19.56C129.777 19.68 129.777 19.8 129.777 19.92C129.797 20.02 129.817 20.13 129.837 20.25C129.837 20.31 129.837 20.38 129.837 20.46C129.857 20.52 129.867 20.58 129.867 20.64C129.847 20.82 129.857 21 129.897 21.18C129.937 21.36 129.967 21.54 129.987 21.72L130.167 22.5C130.187 22.58 130.207 22.67 130.227 22.77C130.247 22.85 130.267 22.94 130.287 23.04C130.307 23.12 130.307 23.2 130.287 23.28C130.287 23.34 130.277 23.41 130.257 23.49C130.257 23.51 130.237 23.54 130.197 23.58C130.097 23.6 130.027 23.67 129.987 23.79C129.927 23.93 129.837 24.05 129.717 24.15C129.617 24.27 129.507 24.38 129.387 24.48C129.367 24.5 129.327 24.52 129.267 24.54C129.207 24.56 129.157 24.58 129.117 24.6ZM130.287 14.1H130.347C130.567 14.06 130.787 14.02 131.007 13.98C131.247 13.92 131.477 13.85 131.697 13.77C131.917 13.71 132.107 13.6 132.267 13.44C132.407 13.3 132.477 13.14 132.477 12.96C132.497 12.82 132.497 12.69 132.477 12.57C132.477 12.43 132.457 12.29 132.417 12.15C132.337 11.79 132.247 11.44 132.147 11.1C132.047 10.74 131.927 10.4 131.787 10.08L131.517 9.36C131.457 9.16 131.387 8.97 131.307 8.79C131.227 8.59 131.137 8.4 131.037 8.22C131.017 8.18 130.997 8.14 130.977 8.1C130.957 8.04 130.937 7.99 130.917 7.95L130.797 7.83C130.737 7.75 130.667 7.75 130.587 7.83C130.567 7.83 130.537 7.85 130.497 7.89C130.357 8.07 130.227 8.26 130.107 8.46C130.007 8.66 129.947 8.88 129.927 9.12C129.907 9.2 129.887 9.28 129.867 9.36C129.867 9.44 129.867 9.53 129.867 9.63V10.92C129.847 11.2 129.837 11.49 129.837 11.79C129.857 12.09 129.847 12.38 129.807 12.66C129.787 12.72 129.777 12.78 129.777 12.84C129.797 12.9 129.807 12.96 129.807 13.02C129.827 13.14 129.837 13.26 129.837 13.38C129.837 13.48 129.837 13.59 129.837 13.71C129.837 13.91 129.857 14.03 129.897 14.07C129.957 14.11 130.087 14.12 130.287 14.1ZM141.649 10.29C141.469 10.29 141.319 10.21 141.199 10.05C141.099 9.91 141.009 9.76 140.929 9.6C140.849 9.44 140.789 9.27 140.749 9.09C140.669 8.69 140.719 8.29 140.899 7.89C140.939 7.83 140.969 7.77 140.989 7.71C141.029 7.65 141.059 7.6 141.079 7.56L141.319 7.05C141.339 7.07 141.349 7.08 141.349 7.08C141.409 6.94 141.469 6.81 141.529 6.69C141.609 6.55 141.679 6.41 141.739 6.27C141.779 6.19 141.819 6.09 141.859 5.97C141.899 5.81 141.949 5.66 142.009 5.52C142.069 5.38 142.139 5.24 142.219 5.1C142.299 4.94 142.369 4.79 142.429 4.65C142.509 4.51 142.579 4.37 142.639 4.23C142.679 4.13 142.719 4.05 142.759 3.99C142.819 3.91 142.869 3.83 142.909 3.75C142.949 3.67 142.989 3.6 143.029 3.54C143.089 3.46 143.129 3.38 143.149 3.3C143.309 3.08 143.469 2.9 143.629 2.76C143.809 2.6 144.019 2.48 144.259 2.4C144.699 2.28 145.119 2.3 145.519 2.46C145.959 2.68 146.239 3 146.359 3.42C146.459 3.74 146.479 4.03 146.419 4.29C146.359 4.65 146.219 4.99 145.999 5.31C145.919 5.45 145.839 5.59 145.759 5.73C145.679 5.87 145.609 6.02 145.549 6.18L144.979 7.35C144.939 7.47 144.899 7.59 144.859 7.71C144.819 7.81 144.779 7.92 144.739 8.04C144.679 8.24 144.589 8.41 144.469 8.55C144.389 8.69 144.289 8.83 144.169 8.97C144.069 9.11 143.969 9.26 143.869 9.42C143.789 9.52 143.699 9.61 143.599 9.69C143.519 9.77 143.429 9.85 143.329 9.93C143.189 10.01 143.029 10.08 142.849 10.14C142.689 10.18 142.529 10.22 142.369 10.26C142.289 10.26 142.189 10.27 142.069 10.29C141.969 10.29 141.869 10.29 141.769 10.29H141.649ZM154.293 25.47L153.783 25.38C153.523 25.34 153.253 25.3 152.973 25.26C152.713 25.22 152.443 25.19 152.163 25.17C151.883 25.17 151.603 25.09 151.323 24.93C151.063 24.79 150.883 24.57 150.783 24.27C150.763 24.17 150.733 24.07 150.693 23.97C150.673 23.87 150.653 23.77 150.633 23.67C150.633 23.43 150.683 23.25 150.783 23.13C150.883 23.03 150.963 22.93 151.023 22.83C151.103 22.73 151.183 22.64 151.263 22.56C151.303 22.52 151.343 22.49 151.383 22.47C151.423 22.45 151.463 22.43 151.503 22.41C151.603 22.35 151.703 22.31 151.803 22.29C151.903 22.25 152.003 22.22 152.103 22.2C152.143 22.18 152.173 22.18 152.193 22.2C152.233 22.2 152.263 22.2 152.283 22.2C152.383 22.22 152.493 22.24 152.613 22.26C152.733 22.26 152.843 22.28 152.943 22.32L154.203 22.5C154.483 22.54 154.733 22.5 154.953 22.38C155.033 22.34 155.103 22.3 155.163 22.26C155.243 22.22 155.313 22.18 155.373 22.14C155.813 21.88 156.193 21.61 156.513 21.33C156.753 21.11 156.983 20.89 157.203 20.67C157.423 20.45 157.623 20.21 157.803 19.95C157.943 19.77 158.033 19.59 158.073 19.41C158.113 19.21 158.123 19.01 158.103 18.81L158.013 18.57C157.993 18.47 157.953 18.39 157.893 18.33C157.833 18.27 157.773 18.2 157.713 18.12C157.593 18.02 157.473 17.91 157.353 17.79C157.253 17.67 157.143 17.57 157.023 17.49C156.723 17.25 156.423 17.02 156.123 16.8C155.843 16.58 155.553 16.36 155.253 16.14C155.233 16.1 155.173 16.06 155.073 16.02C154.893 15.9 154.713 15.77 154.533 15.63C154.373 15.47 154.213 15.32 154.053 15.18C153.853 14.98 153.633 14.79 153.393 14.61C153.273 14.55 153.163 14.45 153.063 14.31C152.983 14.21 152.863 14.11 152.703 14.01C152.563 13.93 152.433 13.84 152.313 13.74C152.193 13.62 152.073 13.51 151.953 13.41L151.563 13.05C151.483 12.95 151.393 12.86 151.293 12.78C151.213 12.68 151.123 12.58 151.023 12.48C150.983 12.38 150.923 12.3 150.843 12.24C150.783 12.18 150.723 12.11 150.663 12.03C150.643 11.99 150.613 11.95 150.573 11.91C150.533 11.85 150.503 11.79 150.483 11.73C150.363 11.49 150.233 11.25 150.093 11.01C149.973 10.77 149.863 10.52 149.763 10.26C149.703 10.1 149.643 9.95 149.583 9.81C149.543 9.65 149.503 9.5 149.463 9.36C149.443 9.2 149.403 9.06 149.343 8.94C149.303 8.8 149.263 8.66 149.223 8.52C149.183 8.3 149.133 8.09 149.073 7.89C149.033 7.67 148.993 7.46 148.953 7.26L148.893 7.02C148.873 6.8 148.873 6.59 148.893 6.39C148.933 6.11 148.993 5.86 149.073 5.64C149.153 5.4 149.283 5.21 149.463 5.07C149.663 4.91 149.863 4.75 150.063 4.59C150.263 4.43 150.473 4.3 150.693 4.2C150.733 4.2 150.763 4.19 150.783 4.17C150.983 4.01 151.203 3.9 151.443 3.84C151.683 3.76 151.923 3.69 152.163 3.63C153.123 3.35 154.113 3.14 155.133 3H155.433C155.633 3 155.823 3 156.003 3C156.183 3 156.373 2.99 156.573 2.97C156.813 2.97 157.053 3 157.293 3.06C157.533 3.1 157.763 3.17 157.983 3.27C158.143 3.35 158.303 3.44 158.463 3.54C158.623 3.62 158.773 3.71 158.913 3.81C159.073 3.93 159.173 4.06 159.213 4.2L159.303 4.41C159.403 4.59 159.453 4.78 159.453 4.98C159.473 5.16 159.463 5.35 159.423 5.55C159.423 5.61 159.413 5.68 159.393 5.76C159.393 5.82 159.393 5.88 159.393 5.94C159.333 6.38 159.123 6.72 158.763 6.96C158.543 7.16 158.253 7.24 157.893 7.2C157.813 7.16 157.773 7.18 157.773 7.26C157.773 7.34 157.723 7.38 157.623 7.38H157.443C157.323 7.38 157.203 7.32 157.083 7.2C156.983 7.1 156.933 7.02 156.933 6.96C156.933 6.88 156.973 6.82 157.053 6.78C157.013 6.68 156.973 6.59 156.933 6.51C156.893 6.43 156.853 6.37 156.813 6.33C156.753 6.23 156.663 6.16 156.543 6.12C156.443 6.1 156.343 6.08 156.243 6.06C156.143 6.04 156.043 6.02 155.943 6C155.863 6 155.773 6 155.673 6C155.573 5.98 155.473 5.96 155.373 5.94C155.313 5.92 155.223 5.93 155.103 5.97C155.043 5.99 154.983 6.01 154.923 6.03C154.863 6.03 154.793 6.02 154.713 6C154.653 6 154.583 6 154.503 6C154.443 6 154.373 6.02 154.293 6.06L153.723 6.15C153.403 6.21 153.093 6.33 152.793 6.51C152.733 6.53 152.673 6.55 152.613 6.57C152.553 6.59 152.493 6.59 152.433 6.57C152.313 6.55 152.213 6.58 152.133 6.66C152.113 6.7 152.063 6.73 151.983 6.75C151.923 6.75 151.873 6.77 151.833 6.81C151.753 6.89 151.713 6.97 151.713 7.05C151.733 7.09 151.743 7.15 151.743 7.23L152.373 9.06C152.493 9.38 152.643 9.68 152.823 9.96C153.023 10.22 153.233 10.48 153.453 10.74C153.793 11.14 154.143 11.48 154.503 11.76L155.463 12.57C155.663 12.75 155.873 12.92 156.093 13.08C156.313 13.24 156.523 13.4 156.723 13.56C157.023 13.78 157.323 14.01 157.623 14.25C157.923 14.47 158.223 14.7 158.523 14.94C158.763 15.14 158.993 15.34 159.213 15.54C159.453 15.72 159.673 15.92 159.873 16.14C160.013 16.3 160.153 16.46 160.293 16.62C160.433 16.78 160.553 16.96 160.653 17.16C160.793 17.38 160.913 17.64 161.013 17.94C161.133 18.32 161.183 18.68 161.163 19.02C161.143 19.06 161.133 19.12 161.133 19.2C161.133 19.44 161.103 19.67 161.043 19.89C161.003 20.09 160.933 20.3 160.833 20.52C160.733 20.72 160.623 20.93 160.503 21.15C160.403 21.35 160.283 21.55 160.143 21.75C159.943 22.01 159.733 22.26 159.513 22.5C159.313 22.72 159.083 22.94 158.823 23.16C158.683 23.28 158.543 23.41 158.403 23.55C158.263 23.67 158.113 23.78 157.953 23.88C157.853 23.96 157.753 24.03 157.653 24.09C157.553 24.17 157.453 24.25 157.353 24.33C157.273 24.37 157.193 24.42 157.113 24.48C157.033 24.54 156.953 24.6 156.873 24.66C156.793 24.74 156.693 24.8 156.573 24.84C156.473 24.9 156.373 24.95 156.273 24.99L155.403 25.35C155.223 25.41 155.043 25.45 154.863 25.47C154.683 25.49 154.493 25.49 154.293 25.47ZM178.642 35.1C178.422 35.16 178.232 35.08 178.072 34.86L177.982 34.62C177.942 34.46 177.902 34.29 177.862 34.11C177.822 33.93 177.792 33.76 177.772 33.6L177.682 33C177.662 32.9 177.642 32.79 177.622 32.67C177.622 32.57 177.612 32.47 177.592 32.37C177.592 32.25 177.582 32.13 177.562 32.01C177.562 31.91 177.552 31.8 177.532 31.68C177.532 31.58 177.532 31.48 177.532 31.38C177.532 31.3 177.522 31.21 177.502 31.11C177.502 31.03 177.502 30.95 177.502 30.87C177.502 30.79 177.492 30.71 177.472 30.63C177.472 30.53 177.462 30.42 177.442 30.3C177.442 30.2 177.442 30.1 177.442 30C177.422 29.86 177.412 29.72 177.412 29.58C177.412 29.44 177.402 29.3 177.382 29.16L177.292 28.35V28.08C177.312 27.94 177.322 27.8 177.322 27.66C177.322 27.54 177.332 27.41 177.352 27.27V27.03C177.372 26.85 177.362 26.67 177.322 26.49C177.302 26.33 177.312 26.16 177.352 25.98C177.352 25.82 177.342 25.65 177.322 25.47C177.322 25.29 177.322 25.12 177.322 24.96C177.322 24.84 177.332 24.75 177.352 24.69C177.372 24.47 177.362 24.25 177.322 24.03C177.302 23.83 177.292 23.63 177.292 23.43C177.292 23.35 177.282 23.29 177.262 23.25C177.242 23.19 177.212 23.13 177.172 23.07C177.032 22.87 176.962 22.63 176.962 22.35C176.962 22.21 176.952 22.1 176.932 22.02C176.932 21.9 176.942 21.81 176.962 21.75C177.002 21.41 176.992 21.1 176.932 20.82C176.932 20.72 176.932 20.63 176.932 20.55C176.932 20.45 176.922 20.36 176.902 20.28C176.902 20.14 176.902 20 176.902 19.86C176.902 19.7 176.882 19.55 176.842 19.41V19.38C176.822 19.12 176.802 18.87 176.782 18.63C176.782 18.39 176.772 18.14 176.752 17.88V17.73C176.712 17.45 176.682 17.17 176.662 16.89C176.662 16.59 176.632 16.29 176.572 15.99C176.552 15.89 176.542 15.79 176.542 15.69C176.542 15.57 176.542 15.46 176.542 15.36C176.542 15.18 176.532 15.01 176.512 14.85C176.492 14.67 176.462 14.49 176.422 14.31C176.422 14.23 176.412 14.15 176.392 14.07C176.392 13.99 176.392 13.91 176.392 13.83L176.302 13.2C176.282 13.14 176.262 13.08 176.242 13.02C176.242 12.96 176.242 12.89 176.242 12.81L176.152 11.88C176.152 11.8 176.132 11.72 176.092 11.64C176.072 11.48 176.042 11.32 176.002 11.16C175.982 10.98 175.982 10.81 176.002 10.65C176.002 10.51 175.992 10.4 175.972 10.32C175.952 10.2 175.942 10.08 175.942 9.96C175.942 9.82 175.942 9.69 175.942 9.57C175.942 9.29 175.932 9.01 175.912 8.73C175.912 8.45 175.922 8.18 175.942 7.92C175.942 7.74 175.942 7.57 175.942 7.41C175.962 7.23 175.982 7.06 176.002 6.9V6.6C176.002 6.44 175.972 6.29 175.912 6.15C175.872 6.09 175.832 6.02 175.792 5.94C175.772 5.88 175.752 5.82 175.732 5.76C175.712 5.68 175.682 5.6 175.642 5.52C175.542 5.24 175.572 4.96 175.732 4.68C175.732 4.66 175.732 4.65 175.732 4.65C175.752 4.63 175.762 4.61 175.762 4.59C175.822 4.43 175.932 4.28 176.092 4.14C176.332 3.96 176.492 3.74 176.572 3.48C176.692 3.2 176.872 2.98 177.112 2.82C177.172 2.78 177.222 2.75 177.262 2.73C177.322 2.69 177.382 2.67 177.442 2.67C177.522 2.65 177.612 2.59 177.712 2.49C177.732 2.47 177.772 2.46 177.832 2.46L178.432 2.55C178.552 2.55 178.652 2.59 178.732 2.67C178.812 2.75 178.882 2.82 178.942 2.88C179.022 2.94 179.072 3.02 179.092 3.12L179.272 3.3C179.372 3.4 179.472 3.44 179.572 3.42C179.672 3.4 179.762 3.4 179.842 3.42C179.922 3.44 180.002 3.47 180.082 3.51C180.202 3.57 180.322 3.62 180.442 3.66C180.582 3.7 180.712 3.74 180.832 3.78C180.912 3.8 180.982 3.83 181.042 3.87C181.122 3.91 181.202 3.95 181.282 3.99C181.522 4.09 181.762 4.2 182.002 4.32C182.242 4.42 182.472 4.55 182.692 4.71C182.932 4.87 183.172 5.04 183.412 5.22C183.672 5.38 183.902 5.56 184.102 5.76L185.452 6.9C185.572 6.98 185.682 7.08 185.782 7.2C185.882 7.3 185.982 7.4 186.082 7.5C186.282 7.7 186.502 7.89 186.742 8.07C186.902 8.17 187.042 8.28 187.162 8.4C187.302 8.52 187.442 8.64 187.582 8.76C187.742 8.9 187.892 9.05 188.032 9.21C188.172 9.37 188.312 9.53 188.452 9.69C188.632 9.89 188.792 10.1 188.932 10.32C189.072 10.54 189.182 10.78 189.262 11.04L189.532 11.76C189.632 12 189.712 12.25 189.772 12.51C189.832 12.75 189.852 13.01 189.832 13.29V13.74C189.852 13.98 189.842 14.22 189.802 14.46C189.762 14.7 189.712 14.93 189.652 15.15C189.632 15.25 189.612 15.35 189.592 15.45C189.572 15.53 189.552 15.62 189.532 15.72C189.412 16.06 189.262 16.4 189.082 16.74C189.002 16.88 188.922 17.03 188.842 17.19C188.762 17.33 188.672 17.48 188.572 17.64C188.532 17.72 188.482 17.79 188.422 17.85C188.222 18.11 188.002 18.36 187.762 18.6C187.542 18.84 187.302 19.07 187.042 19.29C186.962 19.35 186.882 19.42 186.802 19.5C186.722 19.56 186.642 19.63 186.562 19.71C186.542 19.75 186.502 19.79 186.442 19.83C186.402 19.87 186.362 19.91 186.322 19.95C186.202 20.07 186.082 20.19 185.962 20.31C185.862 20.41 185.762 20.53 185.662 20.67L185.572 20.79C185.432 20.91 185.302 21.04 185.182 21.18C185.062 21.32 184.932 21.45 184.792 21.57C184.712 21.65 184.622 21.74 184.522 21.84C184.422 21.92 184.322 22.01 184.222 22.11C184.202 22.13 184.182 22.15 184.162 22.17C184.142 22.19 184.112 22.22 184.072 22.26C184.052 22.3 184.022 22.34 183.982 22.38C183.942 22.4 183.902 22.43 183.862 22.47L183.502 22.83C183.362 22.97 183.222 23.1 183.082 23.22C182.942 23.34 182.792 23.47 182.632 23.61C182.612 23.63 182.582 23.65 182.542 23.67C182.522 23.69 182.502 23.72 182.482 23.76C182.402 23.84 182.312 23.91 182.212 23.97C182.112 24.03 182.012 24.1 181.912 24.18C181.852 24.24 181.782 24.27 181.702 24.27C181.582 24.31 181.482 24.33 181.402 24.33C181.262 24.33 181.142 24.39 181.042 24.51C180.962 24.59 180.882 24.68 180.802 24.78C180.722 24.88 180.642 24.98 180.562 25.08L179.872 25.98C179.692 26.16 179.572 26.39 179.512 26.67C179.492 26.81 179.472 26.95 179.452 27.09C179.432 27.25 179.402 27.41 179.362 27.57C179.302 27.81 179.272 28.07 179.272 28.35C179.292 28.57 179.282 28.78 179.242 28.98C179.222 29.2 179.202 29.42 179.182 29.64V29.82C179.182 29.96 179.192 30.1 179.212 30.24C179.232 30.4 179.232 30.56 179.212 30.72C179.192 30.86 179.182 31 179.182 31.14C179.182 31.3 179.182 31.45 179.182 31.59C179.182 31.73 179.182 31.86 179.182 31.98C179.182 32.1 179.172 32.22 179.152 32.34C179.152 32.48 179.142 32.62 179.122 32.76C179.122 32.92 179.132 33.07 179.152 33.21V33.51C179.152 33.59 179.152 33.67 179.152 33.75C179.152 33.83 179.142 33.92 179.122 34.02C179.122 34.12 179.112 34.22 179.092 34.32C179.092 34.44 179.082 34.55 179.062 34.65C179.062 34.67 179.052 34.68 179.032 34.68C179.032 34.68 179.032 34.69 179.032 34.71C178.972 34.95 178.842 35.08 178.642 35.1ZM181.222 20.19C181.262 20.19 181.302 20.17 181.342 20.13C181.442 20.09 181.542 20.04 181.642 19.98C181.742 19.92 181.832 19.86 181.912 19.8C182.072 19.72 182.242 19.59 182.422 19.41C182.642 19.17 182.872 18.94 183.112 18.72C183.352 18.48 183.582 18.24 183.802 18C184.022 17.76 184.252 17.52 184.492 17.28C184.732 17.02 184.962 16.78 185.182 16.56L185.782 15.93C185.862 15.85 185.932 15.77 185.992 15.69C186.052 15.59 186.112 15.5 186.172 15.42C186.332 15.2 186.382 14.95 186.322 14.67C186.262 14.23 186.142 13.82 185.962 13.44C185.902 13.26 185.832 13.09 185.752 12.93C185.672 12.75 185.592 12.58 185.512 12.42C185.432 12.3 185.382 12.21 185.362 12.15C185.302 12.09 185.252 12.02 185.212 11.94C185.092 11.76 184.962 11.6 184.822 11.46C184.782 11.42 184.732 11.38 184.672 11.34C184.632 11.28 184.592 11.22 184.552 11.16C184.472 11.04 184.392 10.92 184.312 10.8C184.252 10.68 184.172 10.57 184.072 10.47C183.932 10.25 183.832 10.12 183.772 10.08C183.712 10.02 183.572 9.92 183.352 9.78C183.112 9.64 182.912 9.49 182.752 9.33L182.572 9.15C182.392 9.01 182.212 8.88 182.032 8.76C181.872 8.64 181.702 8.51 181.522 8.37C181.322 8.23 181.122 8.11 180.922 8.01C180.722 7.89 180.512 7.77 180.292 7.65C180.232 7.61 180.162 7.58 180.082 7.56C180.002 7.54 179.922 7.52 179.842 7.5C179.762 7.48 179.692 7.5 179.632 7.56L179.572 7.71C179.532 7.79 179.512 7.93 179.512 8.13L179.602 8.94C179.642 9.16 179.682 9.38 179.722 9.6C179.782 9.82 179.832 10.04 179.872 10.26V10.38C179.912 10.58 179.942 10.79 179.962 11.01C179.982 11.23 180.012 11.45 180.052 11.67C180.092 11.85 180.122 12.03 180.142 12.21C180.162 12.39 180.182 12.57 180.202 12.75C180.222 12.91 180.242 13.07 180.262 13.23C180.302 13.37 180.332 13.52 180.352 13.68C180.412 14.02 180.462 14.36 180.502 14.7C180.562 15.02 180.612 15.35 180.652 15.69L180.742 16.44C180.762 16.52 180.772 16.6 180.772 16.68C180.772 16.74 180.782 16.8 180.802 16.86V17.1C180.842 17.32 180.872 17.55 180.892 17.79C180.932 18.01 180.962 18.24 180.982 18.48C181.002 18.52 181.012 18.58 181.012 18.66C180.992 18.88 181.002 19.11 181.042 19.35C181.082 19.59 181.102 19.82 181.102 20.04V20.13C181.102 20.15 181.112 20.17 181.132 20.19C181.172 20.21 181.202 20.21 181.222 20.19ZM204.022 26.19C203.842 26.19 203.682 26.12 203.542 25.98C203.502 25.92 203.462 25.86 203.422 25.8C203.382 25.74 203.342 25.68 203.302 25.62C203.122 25.2 203.032 24.76 203.032 24.3L202.942 23.58C202.882 23.3 202.832 23.02 202.792 22.74C202.752 22.46 202.682 22.19 202.582 21.93L202.402 21.42C202.402 21.38 202.392 21.34 202.372 21.3C202.372 21.26 202.362 21.22 202.342 21.18L201.892 19.59C201.872 19.55 201.852 19.5 201.832 19.44C201.832 19.38 201.812 19.33 201.772 19.29C201.712 19.17 201.662 19.05 201.622 18.93C201.602 18.79 201.572 18.65 201.532 18.51C201.512 18.41 201.492 18.32 201.472 18.24C201.452 18.14 201.422 18.04 201.382 17.94C201.342 17.82 201.302 17.75 201.262 17.73C201.222 17.69 201.132 17.69 200.992 17.73C200.892 17.75 200.782 17.77 200.662 17.79C200.562 17.79 200.462 17.81 200.362 17.85C200.282 17.87 200.182 17.89 200.062 17.91C199.962 17.91 199.862 17.92 199.762 17.94L199.342 18.03C199.242 18.05 199.132 18.08 199.012 18.12C198.912 18.14 198.812 18.15 198.712 18.15L198.172 18.24C198.012 18.28 197.842 18.32 197.662 18.36C197.482 18.4 197.312 18.44 197.152 18.48C196.672 18.6 196.192 18.69 195.712 18.75C195.552 18.79 195.462 18.86 195.442 18.96C195.422 18.96 195.412 18.97 195.412 18.99C195.292 19.31 195.152 19.63 194.992 19.95C194.852 20.25 194.702 20.56 194.542 20.88C194.502 20.96 194.462 21.04 194.422 21.12C194.402 21.18 194.372 21.25 194.332 21.33C194.312 21.37 194.292 21.42 194.272 21.48C194.252 21.52 194.232 21.56 194.212 21.6C194.092 21.74 194.032 21.91 194.032 22.11C194.012 22.23 193.972 22.35 193.912 22.47C193.852 22.57 193.792 22.67 193.732 22.77C193.712 22.83 193.672 22.86 193.612 22.86C193.532 22.88 193.452 22.91 193.372 22.95C193.292 22.99 193.202 23.03 193.102 23.07C193.042 23.09 192.982 23.09 192.922 23.07C192.882 23.05 192.832 23.03 192.772 23.01C192.732 22.97 192.692 22.95 192.652 22.95C192.432 22.93 192.272 22.8 192.172 22.56C192.012 22.24 191.902 21.92 191.842 21.6C191.822 21.52 191.822 21.45 191.842 21.39C191.882 21.33 191.912 21.27 191.932 21.21C192.052 21.13 192.122 21.04 192.142 20.94V20.91C192.142 20.65 192.192 20.41 192.292 20.19C192.412 19.95 192.512 19.72 192.592 19.5C192.632 19.38 192.682 19.26 192.742 19.14C192.802 19.02 192.862 18.9 192.922 18.78C193.002 18.64 193.062 18.51 193.102 18.39C193.162 18.25 193.212 18.11 193.252 17.97C193.312 17.81 193.312 17.66 193.252 17.52C193.212 17.4 193.192 17.29 193.192 17.19C193.192 17.07 193.202 16.95 193.222 16.83C193.222 16.61 193.302 16.42 193.462 16.26C193.542 16.16 193.622 16.08 193.702 16.02C193.802 15.94 193.892 15.86 193.972 15.78C194.152 15.6 194.292 15.36 194.392 15.06C194.472 14.8 194.532 14.54 194.572 14.28C194.632 14 194.692 13.73 194.752 13.47C194.792 13.21 194.832 12.96 194.872 12.72C194.932 12.46 194.992 12.21 195.052 11.97C195.072 11.87 195.092 11.78 195.112 11.7C195.152 11.6 195.182 11.51 195.202 11.43C195.262 11.27 195.322 11.12 195.382 10.98C195.442 10.82 195.482 10.66 195.502 10.5C195.542 10.42 195.542 10.35 195.502 10.29C195.482 10.19 195.482 10.1 195.502 10.02C195.542 9.94 195.572 9.86 195.592 9.78C195.652 9.64 195.692 9.5 195.712 9.36C195.752 9.22 195.802 9.08 195.862 8.94C195.962 8.68 196.042 8.47 196.102 8.31C196.182 8.13 196.252 7.93 196.312 7.71C196.352 7.59 196.392 7.48 196.432 7.38C196.492 7.26 196.532 7.14 196.552 7.02C196.612 6.84 196.662 6.66 196.702 6.48C196.742 6.28 196.762 6.09 196.762 5.91C196.802 5.75 196.842 5.64 196.882 5.58C196.982 5.38 197.102 5.21 197.242 5.07C197.402 4.93 197.552 4.79 197.692 4.65C197.792 4.59 197.892 4.55 197.992 4.53C198.092 4.49 198.192 4.5 198.292 4.56C198.372 4.6 198.422 4.62 198.442 4.62C198.622 4.6 198.772 4.64 198.892 4.74C199.012 4.84 199.112 4.96 199.192 5.1C199.232 5.14 199.262 5.19 199.282 5.25C199.302 5.31 199.322 5.36 199.342 5.4C199.442 5.56 199.492 5.72 199.492 5.88C199.492 5.96 199.502 6.05 199.522 6.15C199.542 6.23 199.562 6.32 199.582 6.42C199.642 6.54 199.732 6.6 199.852 6.6C199.872 6.58 199.892 6.58 199.912 6.6C199.932 6.62 199.942 6.64 199.942 6.66C200.042 6.78 200.072 6.91 200.032 7.05C199.992 7.21 199.982 7.37 200.002 7.53C200.042 7.67 200.082 7.82 200.122 7.98C200.202 8.18 200.282 8.38 200.362 8.58C200.442 8.78 200.522 8.98 200.602 9.18C200.702 9.4 200.802 9.62 200.902 9.84C201.002 10.06 201.092 10.28 201.172 10.5C201.272 10.78 201.372 11.06 201.472 11.34C201.592 11.62 201.722 11.9 201.862 12.18L201.952 12.51C201.972 12.59 201.992 12.67 202.012 12.75C202.052 12.83 202.082 12.91 202.102 12.99C202.142 13.05 202.172 13.11 202.192 13.17C202.232 13.23 202.272 13.28 202.312 13.32C202.412 13.46 202.472 13.61 202.492 13.77C202.552 13.97 202.642 14.15 202.762 14.31C202.802 14.37 202.862 14.4 202.942 14.4C203.242 14.36 203.542 14.33 203.842 14.31C204.142 14.27 204.442 14.21 204.742 14.13C204.962 14.07 205.172 14.04 205.372 14.04C205.752 14.04 206.102 14.17 206.422 14.43C206.802 14.73 207.002 15.11 207.022 15.57C207.022 15.67 207.032 15.75 207.052 15.81C207.052 15.95 207.012 16.06 206.932 16.14C206.912 16.2 206.872 16.26 206.812 16.32C206.772 16.38 206.732 16.44 206.692 16.5C206.652 16.58 206.612 16.64 206.572 16.68L206.392 16.83C206.372 16.87 206.342 16.92 206.302 16.98C206.262 17.02 206.212 17.05 206.152 17.07C206.072 17.09 205.992 17.12 205.912 17.16C205.832 17.18 205.742 17.19 205.642 17.19C205.282 17.23 204.962 17.22 204.682 17.16H204.202C204.162 17.16 204.102 17.18 204.022 17.22C203.942 17.26 203.902 17.31 203.902 17.37V17.49C203.962 17.67 204.002 17.86 204.022 18.06C204.062 18.24 204.122 18.41 204.202 18.57C204.202 18.65 204.222 18.73 204.262 18.81C204.362 18.99 204.442 19.18 204.502 19.38C204.562 19.56 204.612 19.75 204.652 19.95C204.652 19.99 204.672 20.07 204.712 20.19C204.772 20.33 204.822 20.48 204.862 20.64C204.902 20.78 204.932 20.93 204.952 21.09C204.952 21.21 204.982 21.32 205.042 21.42C205.122 21.6 205.182 21.78 205.222 21.96C205.262 22.14 205.292 22.33 205.312 22.53C205.332 22.55 205.342 22.59 205.342 22.65C205.342 22.69 205.352 22.73 205.372 22.77C205.472 22.99 205.542 23.23 205.582 23.49C205.622 23.73 205.672 23.97 205.732 24.21C205.772 24.33 205.792 24.45 205.792 24.57C205.812 24.71 205.822 24.85 205.822 24.99C205.822 25.09 205.792 25.2 205.732 25.32C205.672 25.38 205.642 25.41 205.642 25.41C205.522 25.43 205.452 25.5 205.432 25.62L205.342 25.8C205.302 25.88 205.242 25.93 205.162 25.95C205.082 25.95 205.012 25.98 204.952 26.04C204.872 26.12 204.762 26.16 204.622 26.16C204.542 26.16 204.442 26.16 204.322 26.16C204.222 26.16 204.122 26.17 204.022 26.19ZM196.792 15.3C196.912 15.28 197.032 15.26 197.152 15.24C197.292 15.22 197.442 15.2 197.602 15.18C197.702 15.16 197.832 15.14 197.992 15.12C198.152 15.1 198.302 15.08 198.442 15.06C198.582 15.02 198.722 15 198.862 15C199.002 14.98 199.142 14.96 199.282 14.94C199.402 14.9 199.522 14.88 199.642 14.88C199.762 14.86 199.882 14.84 200.002 14.82C200.182 14.78 200.252 14.68 200.212 14.52C200.192 14.36 200.152 14.2 200.092 14.04C200.052 13.86 199.962 13.71 199.822 13.59C199.782 13.55 199.762 13.49 199.762 13.41V13.32C199.722 13.16 199.672 13.01 199.612 12.87C199.572 12.71 199.522 12.56 199.462 12.42C199.422 12.26 199.372 12.12 199.312 12C199.272 11.86 199.222 11.72 199.162 11.58L198.802 10.5C198.742 10.36 198.682 10.22 198.622 10.08C198.582 9.94 198.542 9.8 198.502 9.66L198.412 9.54H198.322L198.262 9.63C198.162 9.93 198.042 10.23 197.902 10.53C197.782 10.83 197.672 11.15 197.572 11.49C197.572 11.53 197.562 11.58 197.542 11.64C197.522 11.7 197.502 11.76 197.482 11.82C197.402 12.02 197.322 12.24 197.242 12.48C197.182 12.72 197.132 12.96 197.092 13.2C197.072 13.34 197.052 13.48 197.032 13.62C197.012 13.74 196.982 13.87 196.942 14.01L196.672 15.18C196.652 15.2 196.662 15.23 196.702 15.27C196.742 15.29 196.772 15.3 196.792 15.3ZM215.165 25.98C215.105 26 215.045 26 214.985 25.98C214.925 25.98 214.875 25.98 214.835 25.98C214.615 25.92 214.425 25.8 214.265 25.62C214.125 25.46 213.995 25.27 213.875 25.05C213.855 24.97 213.825 24.89 213.785 24.81C213.765 24.73 213.755 24.65 213.755 24.57V24.36C213.715 24.14 213.685 23.92 213.665 23.7C213.665 23.48 213.665 23.26 213.665 23.04C213.665 22.76 213.665 22.48 213.665 22.2C213.685 21.92 213.695 21.64 213.695 21.36C213.695 21.22 213.705 21.11 213.725 21.03C213.745 20.65 213.745 20.25 213.725 19.83C213.705 19.73 213.685 19.62 213.665 19.5C213.665 19.38 213.665 19.26 213.665 19.14C213.685 18.92 213.685 18.7 213.665 18.48C213.645 18.26 213.615 18.04 213.575 17.82L213.485 17.31C213.485 17.27 213.475 17.23 213.455 17.19C213.455 17.13 213.455 17.09 213.455 17.07C213.295 16.47 213.075 15.93 212.795 15.45C212.695 15.27 212.585 15.09 212.465 14.91C212.365 14.71 212.265 14.51 212.165 14.31C212.065 14.11 211.985 13.91 211.925 13.71C211.885 13.49 211.845 13.28 211.805 13.08C211.805 13.04 211.805 12.99 211.805 12.93C211.825 12.87 211.835 12.81 211.835 12.75C211.835 12.63 211.835 12.51 211.835 12.39C211.855 12.25 211.865 12.11 211.865 11.97C211.865 11.83 211.825 11.72 211.745 11.64L211.565 11.4C211.485 11.3 211.415 11.2 211.355 11.1C211.295 10.98 211.225 10.87 211.145 10.77L210.815 10.32C210.735 10.2 210.645 10.08 210.545 9.96C210.445 9.84 210.345 9.71 210.245 9.57C210.205 9.53 210.165 9.49 210.125 9.45C210.085 9.39 210.035 9.35 209.975 9.33C209.895 9.31 209.835 9.26 209.795 9.18C209.735 9.12 209.665 9.03 209.585 8.91C209.465 8.71 209.335 8.51 209.195 8.31C209.075 8.09 208.955 7.88 208.835 7.68L208.745 7.56C208.565 7.18 208.385 6.8 208.205 6.42C208.045 6.02 207.895 5.63 207.755 5.25C207.675 5.07 207.615 4.87 207.575 4.65C207.555 4.53 207.525 4.41 207.485 4.29C207.445 4.17 207.395 4.06 207.335 3.96C207.275 3.86 207.235 3.76 207.215 3.66C207.215 3.56 207.215 3.46 207.215 3.36C207.215 3.3 207.225 3.24 207.245 3.18C207.285 3.12 207.315 3.06 207.335 3C207.395 2.9 207.455 2.81 207.515 2.73C207.595 2.63 207.675 2.54 207.755 2.46C207.855 2.36 207.965 2.31 208.085 2.31C208.145 2.31 208.185 2.3 208.205 2.28C208.365 2.2 208.525 2.18 208.685 2.22C208.865 2.26 209.025 2.31 209.165 2.37C209.225 2.39 209.275 2.43 209.315 2.49C209.355 2.53 209.395 2.57 209.435 2.61L209.765 3.15C209.805 3.19 209.825 3.24 209.825 3.3C209.845 3.36 209.865 3.42 209.885 3.48C209.905 3.52 209.925 3.57 209.945 3.63C210.085 3.93 210.215 4.23 210.335 4.53C210.475 4.81 210.605 5.1 210.725 5.4C210.825 5.66 210.925 5.92 211.025 6.18C211.145 6.42 211.275 6.66 211.415 6.9C211.515 7.14 211.635 7.37 211.775 7.59C211.915 7.81 212.055 8.03 212.195 8.25C212.275 8.33 212.345 8.42 212.405 8.52C212.465 8.62 212.535 8.72 212.615 8.82L212.765 9C212.925 9.16 213.025 9.24 213.065 9.24C213.105 9.24 213.195 9.15 213.335 8.97C213.415 8.87 213.485 8.77 213.545 8.67C213.625 8.55 213.705 8.45 213.785 8.37C213.945 8.17 214.095 7.98 214.235 7.8C214.395 7.62 214.545 7.44 214.685 7.26C214.905 7 215.185 6.74 215.525 6.48C215.665 6.36 215.795 6.23 215.915 6.09C216.055 5.91 216.215 5.78 216.395 5.7C216.535 5.62 216.665 5.54 216.785 5.46C216.905 5.36 217.025 5.27 217.145 5.19C217.265 5.07 217.395 4.97 217.535 4.89C217.615 4.83 217.685 4.77 217.745 4.71C217.825 4.63 217.895 4.55 217.955 4.47C217.995 4.41 218.035 4.36 218.075 4.32C218.135 4.26 218.195 4.21 218.255 4.17L218.675 3.9C218.715 3.88 218.745 3.87 218.765 3.87C218.785 3.85 218.805 3.83 218.825 3.81C218.865 3.81 218.895 3.81 218.915 3.81C218.935 3.79 218.955 3.78 218.975 3.78C219.075 3.74 219.165 3.71 219.245 3.69C219.345 3.67 219.445 3.66 219.545 3.66C219.665 3.72 219.785 3.78 219.905 3.84C220.025 3.9 220.125 3.98 220.205 4.08C220.245 4.1 220.275 4.11 220.295 4.11C220.335 4.11 220.365 4.12 220.385 4.14C220.405 4.16 220.415 4.18 220.415 4.2C220.415 4.22 220.405 4.26 220.385 4.32C220.365 4.36 220.355 4.39 220.355 4.41C220.355 4.43 220.375 4.44 220.415 4.44C220.455 4.44 220.485 4.45 220.505 4.47C220.525 4.49 220.545 4.5 220.565 4.5C220.585 4.5 220.595 4.52 220.595 4.56C220.575 4.72 220.595 4.89 220.655 5.07C220.695 5.13 220.715 5.19 220.715 5.25C220.715 5.31 220.705 5.37 220.685 5.43L220.295 6.15C220.275 6.23 220.225 6.29 220.145 6.33C219.845 6.59 219.545 6.79 219.245 6.93C218.885 7.05 218.585 7.21 218.345 7.41C218.245 7.49 218.145 7.57 218.045 7.65C217.945 7.71 217.845 7.79 217.745 7.89C217.705 7.93 217.645 7.97 217.565 8.01L217.385 8.16C217.165 8.4 216.945 8.64 216.725 8.88C216.525 9.1 216.315 9.33 216.095 9.57C216.055 9.65 216.005 9.69 215.945 9.69C215.845 9.75 215.755 9.83 215.675 9.93C215.575 10.09 215.465 10.25 215.345 10.41C215.225 10.55 215.135 10.72 215.075 10.92L214.895 11.22C214.875 11.24 214.855 11.27 214.835 11.31C214.815 11.33 214.795 11.36 214.775 11.4C214.695 11.54 214.685 11.69 214.745 11.85C214.785 11.89 214.815 11.94 214.835 12C214.875 12.06 214.905 12.12 214.925 12.18C214.985 12.28 214.975 12.38 214.895 12.48C214.855 12.5 214.835 12.55 214.835 12.63C214.875 12.71 214.895 12.77 214.895 12.81C214.935 12.93 214.925 13.04 214.865 13.14C214.825 13.22 214.805 13.27 214.805 13.29C214.785 13.41 214.795 13.52 214.835 13.62C214.875 13.7 214.915 13.8 214.955 13.92C215.015 14.02 215.085 14.12 215.165 14.22C215.265 14.42 215.365 14.61 215.465 14.79C215.565 14.97 215.655 15.16 215.735 15.36L216.095 16.53C216.135 16.71 216.165 16.9 216.185 17.1C216.205 17.28 216.225 17.46 216.245 17.64C216.265 17.76 216.285 17.88 216.305 18C216.325 18.1 216.325 18.21 216.305 18.33C216.345 18.77 216.355 19.21 216.335 19.65C216.335 20.07 216.335 20.5 216.335 20.94C216.335 20.98 216.325 21.02 216.305 21.06C216.285 21.28 216.275 21.51 216.275 21.75C216.275 21.99 216.265 22.22 216.245 22.44C216.245 22.58 216.245 22.72 216.245 22.86C216.265 23 216.275 23.15 216.275 23.31C216.275 23.37 216.285 23.41 216.305 23.43C216.345 23.53 216.375 23.64 216.395 23.76C216.415 23.86 216.435 23.96 216.455 24.06C216.475 24.14 216.485 24.21 216.485 24.27C216.485 24.35 216.465 24.43 216.425 24.51C216.365 24.65 216.365 24.8 216.425 24.96C216.425 24.98 216.395 25.01 216.335 25.05C216.295 25.05 216.255 25.06 216.215 25.08C216.195 25.08 216.165 25.1 216.125 25.14C216.125 25.18 216.115 25.21 216.095 25.23C216.075 25.33 215.995 25.45 215.855 25.59C215.775 25.69 215.665 25.77 215.525 25.83C215.405 25.89 215.285 25.94 215.165 25.98Z" fill="#353535"/>
</svg>
