<svg width="213" height="25" viewBox="0 0 213 25" fill="none" xmlns="http://www.w3.org/2000/svg">
<path d="M11.2832 22.27C11.2232 22.25 11.1532 22.23 11.0732 22.21C11.0132 22.19 10.9532 22.17 10.8932 22.15C10.7332 22.09 10.5732 22.01 10.4132 21.91C10.3332 21.87 10.2732 21.81 10.2332 21.73C10.0932 21.51 9.96316 21.31 9.84316 21.13C9.72316 20.93 9.59316 20.73 9.45316 20.53L9.18316 20.05C9.04316 19.77 8.90316 19.5 8.76316 19.24C8.62316 18.96 8.48316 18.69 8.34316 18.43C8.30316 18.33 8.25316 18.25 8.19316 18.19C8.15316 18.11 8.11316 18.03 8.07316 17.95C7.93316 17.73 7.80316 17.51 7.68316 17.29C7.56316 17.05 7.44316 16.82 7.32316 16.6L6.57316 15.13C6.37316 14.73 6.17316 14.34 5.97316 13.96C5.77316 13.56 5.57316 13.16 5.37316 12.76C5.33316 12.72 5.29316 12.66 5.25316 12.58C5.17316 12.36 5.07316 12.15 4.95316 11.95C4.85316 11.75 4.75316 11.55 4.65316 11.35C4.57316 11.21 4.50316 11.07 4.44316 10.93C4.38316 10.77 4.31316 10.62 4.23316 10.48L3.90316 9.88C3.86316 9.88 3.83316 9.87 3.81316 9.85C3.81316 9.85 3.80316 9.86 3.78316 9.88C3.78316 9.88 3.78316 9.89 3.78316 9.91C3.76316 10.17 3.74316 10.44 3.72316 10.72C3.70316 11 3.70316 11.28 3.72316 11.56C3.76316 11.68 3.76316 11.81 3.72316 11.95C3.68316 12.31 3.69316 12.63 3.75316 12.91C3.77316 12.99 3.77316 13.07 3.75316 13.15C3.75316 13.23 3.74316 13.32 3.72316 13.42C3.70316 13.56 3.69316 13.69 3.69316 13.81C3.69316 13.93 3.68316 14.06 3.66316 14.2C3.70316 14.28 3.72316 14.37 3.72316 14.47C3.72316 14.55 3.71316 14.63 3.69316 14.71C3.63316 14.91 3.63316 15.12 3.69316 15.34C3.73316 15.4 3.73316 15.46 3.69316 15.52C3.61316 15.7 3.59316 15.92 3.63316 16.18C3.69316 16.52 3.67316 16.89 3.57316 17.29C3.55316 17.33 3.54316 17.4 3.54316 17.5C3.52316 17.58 3.54316 17.65 3.60316 17.71C3.68316 17.75 3.70316 17.8 3.66316 17.86C3.64316 18.12 3.64316 18.39 3.66316 18.67C3.66316 18.67 3.66316 18.68 3.66316 18.7C3.66316 18.7 3.65316 18.7 3.63316 18.7C3.61316 18.7 3.60316 18.69 3.60316 18.67C3.58316 18.65 3.57316 18.63 3.57316 18.61C3.53316 18.57 3.51316 18.58 3.51316 18.64C3.51316 18.74 3.52316 18.8 3.54316 18.82C3.58316 18.92 3.60316 19.02 3.60316 19.12C3.60316 19.22 3.60316 19.32 3.60316 19.42V20.35C3.60316 20.41 3.59316 20.47 3.57316 20.53C3.57316 20.59 3.54316 20.64 3.48316 20.68C3.40316 20.7 3.36316 20.77 3.36316 20.89C3.34316 21.11 3.26316 21.3 3.12316 21.46C3.00316 21.62 2.86316 21.76 2.70316 21.88C2.62316 21.94 2.52316 21.98 2.40316 22C2.30316 22 2.20316 21.99 2.10316 21.97L1.56316 21.79C1.52316 21.79 1.48316 21.76 1.44316 21.7C1.38316 21.64 1.32316 21.58 1.26316 21.52C1.20316 21.44 1.13316 21.37 1.05316 21.31C0.953164 21.25 0.883164 21.14 0.843164 20.98C0.823164 20.88 0.793164 20.77 0.753164 20.65C0.713164 20.53 0.693164 20.41 0.693164 20.29C0.693164 20.15 0.693164 20.02 0.693164 19.9C0.713164 19.78 0.723164 19.65 0.723164 19.51C0.743164 19.41 0.753164 19.32 0.753164 19.24C0.753164 19.14 0.763164 19.04 0.783164 18.94V7.96C0.783164 7.86 0.783164 7.76 0.783164 7.66C0.803164 7.56 0.823164 7.47 0.843164 7.39C0.843164 7.29 0.843164 7.19 0.843164 7.09C0.863164 6.99 0.873164 6.89 0.873164 6.79C0.873164 6.67 0.873164 6.55 0.873164 6.43C0.893164 6.31 0.913164 6.2 0.933164 6.1C0.953164 6.02 0.963164 5.95 0.963164 5.89C0.963164 5.83 0.963164 5.76 0.963164 5.68V4.75C0.963164 4.61 0.973164 4.49 0.993164 4.39C1.03316 4.27 1.06316 4.15 1.08316 4.03L1.17316 3.88C1.23316 3.82 1.28316 3.73 1.32316 3.61C1.36316 3.49 1.42316 3.43 1.50316 3.43C1.56316 3.39 1.62316 3.36 1.68316 3.34C1.74316 3.3 1.78316 3.24 1.80316 3.16L1.83316 3.13C1.85316 3.13 1.87316 3.13 1.89316 3.13C1.91316 3.11 1.93316 3.1 1.95316 3.1C2.03316 3.1 2.09316 3.08 2.13316 3.04C2.19316 3 2.26316 2.99 2.34316 3.01C2.42316 3.03 2.50316 3.04 2.58316 3.04C2.66316 3.04 2.74316 3.05 2.82316 3.07C3.26316 3.15 3.57316 3.41 3.75316 3.85L3.93316 4.45C3.95316 4.65 4.04316 4.84 4.20316 5.02C4.32316 5.16 4.44316 5.31 4.56316 5.47C4.68316 5.63 4.81316 5.79 4.95316 5.95C5.47316 6.61 5.95316 7.35 6.39316 8.17C6.43316 8.25 6.47316 8.33 6.51316 8.41C6.55316 8.49 6.59316 8.57 6.63316 8.65L8.19316 11.8C8.31316 12.02 8.42316 12.25 8.52316 12.49C8.64316 12.71 8.77316 12.93 8.91316 13.15C8.95316 13.23 8.99316 13.31 9.03316 13.39C9.07316 13.45 9.10316 13.52 9.12316 13.6C9.22316 13.84 9.34316 14.08 9.48316 14.32C9.48316 14.32 9.48316 14.33 9.48316 14.35C9.50316 14.35 9.51316 14.34 9.51316 14.32C9.53316 14.32 9.54316 14.32 9.54316 14.32C9.56316 14.3 9.57316 14.29 9.57316 14.29L9.66316 13.24V12.94C9.68316 12.84 9.69316 12.74 9.69316 12.64C9.71316 12.52 9.73316 12.41 9.75316 12.31C9.77316 12.25 9.77316 12.18 9.75316 12.1C9.75316 12.02 9.76316 11.94 9.78316 11.86C9.78316 11.74 9.78316 11.62 9.78316 11.5C9.80316 11.36 9.82316 11.23 9.84316 11.11C9.86316 11.05 9.87316 10.99 9.87316 10.93C9.87316 10.85 9.87316 10.78 9.87316 10.72V9.91H9.84316V9.1C9.84316 9 9.84316 8.9 9.84316 8.8C9.84316 8.7 9.82316 8.6 9.78316 8.5C9.76316 8.44 9.75316 8.35 9.75316 8.23L9.78316 8.02C9.78316 7.96 9.77316 7.91 9.75316 7.87C9.75316 7.81 9.75316 7.75 9.75316 7.69C9.77316 7.61 9.76316 7.53 9.72316 7.45C9.68316 7.37 9.66316 7.29 9.66316 7.21C9.68316 7.13 9.69316 7.05 9.69316 6.97C9.69316 6.89 9.69316 6.81 9.69316 6.73C9.69316 6.65 9.65316 6.61 9.57316 6.61C9.55316 6.61 9.54316 6.59 9.54316 6.55C9.52316 6.49 9.52316 6.44 9.54316 6.4C9.58316 6.3 9.60316 6.19 9.60316 6.07C9.60316 5.95 9.60316 5.83 9.60316 5.71V4.84C9.58316 4.72 9.59316 4.6 9.63316 4.48C9.67316 4.36 9.72316 4.25 9.78316 4.15L9.90316 3.97C10.0032 3.87 10.1132 3.77 10.2332 3.67C10.3532 3.57 10.4732 3.47 10.5932 3.37C10.5932 3.37 10.6332 3.35 10.7132 3.31C10.8132 3.29 10.9032 3.27 10.9832 3.25C11.0832 3.23 11.1832 3.23 11.2832 3.25C11.3632 3.25 11.4232 3.26 11.4632 3.28C11.5432 3.32 11.6232 3.37 11.7032 3.43C11.7832 3.47 11.8632 3.52 11.9432 3.58C11.9832 3.6 12.0032 3.62 12.0032 3.64C12.0232 3.66 12.0432 3.68 12.0632 3.7C12.1032 3.74 12.1332 3.79 12.1532 3.85C12.1932 3.89 12.2232 3.93 12.2432 3.97C12.3432 4.05 12.4032 4.15 12.4232 4.27C12.4632 4.37 12.4932 4.47 12.5132 4.57V5.83C12.5132 5.97 12.5132 6.11 12.5132 6.25C12.5332 6.37 12.5532 6.5 12.5732 6.64C12.5932 6.72 12.6032 6.8 12.6032 6.88C12.6032 6.94 12.6032 7.01 12.6032 7.09C12.6032 7.25 12.6032 7.42 12.6032 7.6C12.6232 7.76 12.6332 7.92 12.6332 8.08V8.29C12.6332 8.43 12.6232 8.57 12.6032 8.71C12.6032 8.83 12.6032 8.96 12.6032 9.1V10.42C12.6032 10.62 12.5932 10.83 12.5732 11.05C12.5732 11.25 12.5832 11.46 12.6032 11.68C12.6032 11.76 12.5932 11.82 12.5732 11.86C12.5532 12.06 12.5432 12.26 12.5432 12.46C12.5432 12.64 12.5332 12.83 12.5132 13.03C12.5132 13.11 12.5132 13.2 12.5132 13.3C12.5132 13.4 12.5032 13.5 12.4832 13.6C12.4632 13.68 12.4532 13.76 12.4532 13.84C12.4732 13.92 12.4832 14 12.4832 14.08C12.5232 14.26 12.5332 14.44 12.5132 14.62C12.5132 14.8 12.5032 14.98 12.4832 15.16C12.4632 15.48 12.4432 15.81 12.4232 16.15C12.4232 16.47 12.4432 16.8 12.4832 17.14C12.4832 17.22 12.4832 17.31 12.4832 17.41C12.5032 17.51 12.5132 17.61 12.5132 17.71C12.4932 18.01 12.5032 18.3 12.5432 18.58C12.6032 18.86 12.6632 19.14 12.7232 19.42C12.7632 19.62 12.8032 19.82 12.8432 20.02C12.8832 20.2 12.9132 20.4 12.9332 20.62C12.9332 20.7 12.9232 20.75 12.9032 20.77C12.8832 20.81 12.8632 20.86 12.8432 20.92C12.8232 20.96 12.8132 21 12.8132 21.04C12.7932 21.2 12.7332 21.35 12.6332 21.49C12.5532 21.63 12.4632 21.77 12.3632 21.91C12.1032 22.25 11.7432 22.37 11.2832 22.27ZM19.7884 22.21C19.6684 22.21 19.5884 22.2 19.5484 22.18C19.4484 22.14 19.3484 22.12 19.2484 22.12C19.1684 22.14 19.0784 22.15 18.9784 22.15C18.9584 22.15 18.9384 22.15 18.9184 22.15C18.8984 22.17 18.8784 22.18 18.8584 22.18C18.7184 22.2 18.5784 22.21 18.4384 22.21C18.3184 22.21 18.1984 22.19 18.0784 22.15C18.0584 22.13 18.0384 22.12 18.0184 22.12C17.8784 22.14 17.7584 22.1 17.6584 22C17.5584 21.9 17.4584 21.81 17.3584 21.73C17.2584 21.63 17.2084 21.52 17.2084 21.4L17.1184 21.16C17.0584 21.02 17.0384 20.89 17.0584 20.77C17.0784 20.73 17.0784 20.69 17.0584 20.65C17.0584 20.61 17.0584 20.57 17.0584 20.53C17.0384 20.49 17.0284 20.45 17.0284 20.41C17.0284 20.35 17.0184 20.3 16.9984 20.26C16.9584 20.08 16.9284 19.9 16.9084 19.72C16.9084 19.52 16.9184 19.33 16.9384 19.15C16.9584 19.03 17.0284 18.83 17.1484 18.55C17.2684 18.25 17.3384 18.07 17.3584 18.01C17.4184 17.91 17.4484 17.83 17.4484 17.77C17.4284 17.55 17.4184 17.33 17.4184 17.11C17.4384 16.87 17.4484 16.64 17.4484 16.42C17.4484 16.28 17.4784 16.17 17.5384 16.09C17.6184 15.95 17.6284 15.8 17.5684 15.64L17.4784 15.31C17.3584 15.09 17.3684 14.9 17.5084 14.74C17.5084 14.72 17.5084 14.71 17.5084 14.71C17.5284 14.69 17.5384 14.67 17.5384 14.65C17.5784 14.61 17.5884 14.56 17.5684 14.5C17.5484 14.42 17.5384 14.36 17.5384 14.32C17.5384 14.24 17.5484 14.16 17.5684 14.08C17.6084 13.98 17.6184 13.89 17.5984 13.81C17.5984 13.81 17.5784 13.79 17.5384 13.75C17.5184 13.71 17.5084 13.63 17.5084 13.51C17.5284 13.39 17.5384 13.32 17.5384 13.3V12.46C17.5584 12.36 17.5684 12.27 17.5684 12.19C17.5684 12.09 17.5784 11.99 17.5984 11.89C17.6184 11.77 17.6184 11.65 17.5984 11.53C17.5984 11.39 17.5984 11.25 17.5984 11.11C17.5784 11.01 17.5584 10.9 17.5384 10.78C17.5384 10.66 17.5384 10.54 17.5384 10.42C17.5184 10.38 17.5084 10.33 17.5084 10.27C17.5084 10.21 17.5084 10.16 17.5084 10.12C17.4884 10.02 17.4684 9.92 17.4484 9.82C17.4484 9.72 17.4484 9.62 17.4484 9.52C17.4484 9.48 17.4084 9.35 17.3284 9.13C17.2484 8.89 17.2184 8.69 17.2384 8.53C17.2584 8.49 17.2684 8.44 17.2684 8.38C17.2684 8.32 17.2484 8.27 17.2084 8.23C17.1684 8.21 17.1484 8.17 17.1484 8.11V8.02C17.2084 7.78 17.1784 7.54 17.0584 7.3C16.9784 7.18 16.9484 7.06 16.9684 6.94C16.9684 6.78 16.8984 6.66 16.7584 6.58C16.6584 6.48 16.5684 6.36 16.4884 6.22C16.4084 6.08 16.3584 5.94 16.3384 5.8C16.3184 5.7 16.3084 5.6 16.3084 5.5C16.3084 5.4 16.3084 5.31 16.3084 5.23C16.3084 5.15 16.3184 5.1 16.3384 5.08C16.4184 5 16.4584 4.91 16.4584 4.81C16.4584 4.69 16.4684 4.6 16.4884 4.54C16.5084 4.52 16.5284 4.51 16.5484 4.51C16.5684 4.51 16.5884 4.5 16.6084 4.48C16.6884 4.46 16.7284 4.39 16.7284 4.27C16.6884 4.19 16.6684 4.12 16.6684 4.06C16.6484 3.98 16.6784 3.91 16.7584 3.85C16.7984 3.77 16.8484 3.75 16.9084 3.79C17.0484 3.85 17.2084 3.83 17.3884 3.73C17.4684 3.69 17.5184 3.67 17.5384 3.67C17.5984 3.67 17.6284 3.67 17.6284 3.67C17.6484 3.65 17.7084 3.64 17.8084 3.64C17.9284 3.66 18.0384 3.62 18.1384 3.52C18.2784 3.38 18.4484 3.31 18.6484 3.31H20.5084C20.9684 3.33 21.4284 3.33 21.8884 3.31C22.3484 3.29 22.7984 3.28 23.2384 3.28C23.3384 3.28 23.4184 3.28 23.4784 3.28C23.5584 3.26 23.6384 3.24 23.7184 3.22C23.8384 3.16 23.9784 3.13 24.1384 3.13H24.8284C24.9884 3.13 25.1284 3.13 25.2484 3.13C25.3884 3.11 25.5284 3.09 25.6684 3.07C25.7484 3.05 25.8184 3.04 25.8784 3.04C25.9584 3.04 26.0384 3.04 26.1184 3.04C26.1984 3.04 26.2784 3.04 26.3584 3.04C26.4384 3.04 26.5184 3.03 26.5984 3.01C26.7584 2.99 26.9284 2.98 27.1084 2.98C27.2884 2.96 27.4584 2.95 27.6184 2.95C27.6984 2.95 27.7684 2.95 27.8284 2.95C27.9084 2.93 27.9884 2.91 28.0684 2.89C28.2284 2.85 28.3784 2.83 28.5184 2.83C28.6784 2.81 28.8284 2.79 28.9684 2.77C29.1284 2.75 29.2784 2.73 29.4184 2.71C29.5784 2.69 29.7284 2.67 29.8684 2.65C30.0484 2.65 30.1784 2.67 30.2584 2.71C30.3784 2.79 30.4884 2.86 30.5884 2.92C30.7084 2.98 30.8184 3.06 30.9184 3.16C30.9984 3.24 31.0484 3.31 31.0684 3.37C31.0884 3.45 31.1084 3.53 31.1284 3.61C31.1484 3.69 31.1684 3.78 31.1884 3.88V4.09C31.1684 4.19 31.1484 4.3 31.1284 4.42C31.1284 4.52 31.1184 4.63 31.0984 4.75C31.0584 4.83 31.0084 4.9 30.9484 4.96L30.4084 5.5C30.2084 5.56 30.0084 5.6 29.8084 5.62C29.6284 5.64 29.4384 5.64 29.2384 5.62H29.0284C28.9284 5.64 28.8284 5.65 28.7284 5.65C28.6284 5.65 28.5284 5.64 28.4284 5.62C28.3084 5.6 28.1884 5.6 28.0684 5.62C27.9484 5.62 27.8284 5.62 27.7084 5.62C27.6284 5.62 27.5484 5.63 27.4684 5.65C27.4084 5.65 27.3384 5.64 27.2584 5.62C27.1584 5.6 27.0584 5.6 26.9584 5.62C26.8784 5.62 26.7884 5.63 26.6884 5.65C26.6084 5.65 26.5184 5.66 26.4184 5.68C26.3384 5.68 26.2484 5.68 26.1484 5.68C25.8884 5.72 25.6084 5.74 25.3084 5.74C25.0284 5.74 24.7484 5.76 24.4684 5.8C24.2884 5.78 24.1184 5.79 23.9584 5.83C23.7984 5.85 23.6284 5.87 23.4484 5.89C23.2884 5.91 23.1184 5.92 22.9384 5.92C22.7584 5.92 22.5884 5.94 22.4284 5.98C22.2284 5.98 22.0284 6.01 21.8284 6.07C21.6484 6.11 21.4584 6.14 21.2584 6.16L21.0484 6.19C20.9084 6.19 20.7784 6.21 20.6584 6.25C20.5384 6.27 20.4084 6.3 20.2684 6.34C20.1884 6.36 20.1084 6.38 20.0284 6.4C19.9484 6.4 19.8584 6.41 19.7584 6.43C19.6984 6.43 19.6284 6.45 19.5484 6.49C19.4884 6.51 19.4584 6.57 19.4584 6.67L19.5484 6.94C19.5684 6.98 19.5584 7.08 19.5184 7.24C19.4984 7.4 19.4784 7.52 19.4584 7.6C19.4584 7.66 19.4684 7.72 19.4884 7.78C19.5084 7.84 19.5284 7.9 19.5484 7.96C19.6084 8.12 19.6384 8.3 19.6384 8.5C19.6384 8.68 19.6584 8.85 19.6984 9.01C19.7184 9.09 19.7284 9.18 19.7284 9.28C19.7284 9.36 19.7384 9.45 19.7584 9.55C19.7584 9.59 19.7584 9.64 19.7584 9.7C19.7784 9.74 19.7884 9.79 19.7884 9.85C19.7884 9.91 19.7784 9.95 19.7584 9.97C19.6984 10.05 19.6684 10.14 19.6684 10.24C19.6684 10.34 19.6684 10.44 19.6684 10.54C19.7684 10.74 19.8184 10.94 19.8184 11.14C19.8184 11.34 19.8184 11.54 19.8184 11.74C19.8184 11.8 19.8684 11.82 19.9684 11.8H19.9984C20.0384 11.72 20.0784 11.66 20.1184 11.62C20.1784 11.62 20.2484 11.6 20.3284 11.56C20.3884 11.52 20.4684 11.5 20.5684 11.5C20.7284 11.52 20.8784 11.52 21.0184 11.5C21.1584 11.46 21.2984 11.42 21.4384 11.38C22.3784 11.14 23.2584 10.83 24.0784 10.45C24.2984 10.35 24.5284 10.27 24.7684 10.21C25.0084 10.13 25.2484 10.08 25.4884 10.06H25.5784C25.7584 10.04 25.9384 10.02 26.1184 10C26.2984 9.98 26.4784 9.97 26.6584 9.97C26.8984 9.95 27.1284 9.92 27.3484 9.88C27.5884 9.84 27.8284 9.81 28.0684 9.79C28.2084 9.75 28.3384 9.72 28.4584 9.7C28.5784 9.66 28.7084 9.61 28.8484 9.55C29.1084 9.45 29.3484 9.4 29.5684 9.4C29.7284 9.42 29.8784 9.46 30.0184 9.52C30.1584 9.56 30.2984 9.62 30.4384 9.7C30.7384 9.9 30.8884 10.2 30.8884 10.6C30.8884 10.76 30.8684 10.92 30.8284 11.08C30.8084 11.24 30.7984 11.4 30.7984 11.56C30.7984 11.6 30.7784 11.64 30.7384 11.68L30.6484 11.83C30.6284 11.91 30.6084 11.99 30.5884 12.07C30.5684 12.15 30.5184 12.21 30.4384 12.25C30.3184 12.35 30.1884 12.46 30.0484 12.58C29.9284 12.68 29.7884 12.75 29.6284 12.79C29.5484 12.81 29.4684 12.83 29.3884 12.85C29.3284 12.87 29.2584 12.88 29.1784 12.88C28.8584 12.88 28.5284 12.9 28.1884 12.94C27.8684 12.98 27.5384 13.02 27.1984 13.06C26.9384 13.08 26.6784 13.11 26.4184 13.15C26.1784 13.19 25.9284 13.21 25.6684 13.21C25.4284 13.21 25.1584 13.26 24.8584 13.36C24.6584 13.4 24.4484 13.44 24.2284 13.48C24.0084 13.52 23.7884 13.55 23.5684 13.57C23.4084 13.59 23.2384 13.62 23.0584 13.66C22.8984 13.68 22.7384 13.7 22.5784 13.72L22.0684 13.81C22.0284 13.83 21.9684 13.84 21.8884 13.84C21.7484 13.88 21.6084 13.91 21.4684 13.93C21.3284 13.95 21.1884 13.98 21.0484 14.02C20.9084 14.04 20.7684 14.07 20.6284 14.11C20.5084 14.15 20.3784 14.19 20.2384 14.23C20.1384 14.25 20.0584 14.29 19.9984 14.35C19.9384 14.39 19.8884 14.45 19.8484 14.53C19.8284 14.59 19.8284 14.65 19.8484 14.71C19.8684 14.79 19.8584 14.87 19.8184 14.95C19.8384 15.15 19.8484 15.35 19.8484 15.55C19.8684 15.75 19.8684 15.95 19.8484 16.15C19.8884 16.31 19.8984 16.47 19.8784 16.63C19.8784 16.79 19.8684 16.95 19.8484 17.11C19.8084 17.35 19.8184 17.55 19.8784 17.71C19.9384 17.97 19.9184 18.24 19.8184 18.52C19.7784 18.64 19.7784 18.72 19.8184 18.76C19.8584 18.82 19.8584 18.89 19.8184 18.97V19.15C19.7984 19.31 19.8684 19.39 20.0284 19.39H20.0884C20.2284 19.39 20.3684 19.44 20.5084 19.54C20.6084 19.64 20.7284 19.67 20.8684 19.63L21.7084 19.54C21.8284 19.52 21.9484 19.51 22.0684 19.51C22.1884 19.49 22.3084 19.48 22.4284 19.48C22.4684 19.46 22.5284 19.47 22.6084 19.51C22.7084 19.57 22.7984 19.58 22.8784 19.54C22.9184 19.5 22.9684 19.47 23.0284 19.45C23.1084 19.43 23.1684 19.4 23.2084 19.36C23.3284 19.24 23.4784 19.2 23.6584 19.24C23.8184 19.28 23.9484 19.27 24.0484 19.21C24.2284 19.15 24.3984 19.13 24.5584 19.15C24.6584 19.17 24.7584 19.16 24.8584 19.12C24.9584 19.08 25.0584 19.06 25.1584 19.06C25.1984 19.06 25.2284 19.07 25.2484 19.09C25.2684 19.09 25.2884 19.08 25.3084 19.06C25.3484 19.06 25.3884 19.05 25.4284 19.03C25.4684 19.01 25.4984 19 25.5184 19C25.6584 18.94 25.7884 18.92 25.9084 18.94C26.0084 18.94 26.0584 18.94 26.0584 18.94C26.1384 18.92 26.2084 18.92 26.2684 18.94C26.3484 18.96 26.4184 18.99 26.4784 19.03C26.5784 19.05 26.6584 19.08 26.7184 19.12C26.7984 19.16 26.8784 19.19 26.9584 19.21C26.9984 19.21 27.0284 19.22 27.0484 19.24C27.1484 19.32 27.2684 19.39 27.4084 19.45C27.5684 19.51 27.6584 19.58 27.6784 19.66C27.7184 19.78 27.7384 19.9 27.7384 20.02C27.7384 20.12 27.7484 20.23 27.7684 20.35C27.7684 20.41 27.7584 20.47 27.7384 20.53C27.7384 20.59 27.7284 20.65 27.7084 20.71C27.6684 20.79 27.6184 20.88 27.5584 20.98C27.5184 21.08 27.4584 21.17 27.3784 21.25C27.3384 21.29 27.2984 21.33 27.2584 21.37C27.2384 21.41 27.2084 21.45 27.1684 21.49C27.0884 21.57 26.9984 21.64 26.8984 21.7C26.7984 21.76 26.6884 21.79 26.5684 21.79C26.4884 21.79 26.4284 21.8 26.3884 21.82C26.3084 21.86 26.2284 21.88 26.1484 21.88C26.0684 21.88 25.9784 21.88 25.8784 21.88C25.7384 21.9 25.5984 21.92 25.4584 21.94C25.3384 21.94 25.2084 21.93 25.0684 21.91C24.9884 21.89 24.9184 21.89 24.8584 21.91C24.6584 21.97 24.4584 21.98 24.2584 21.94C24.0584 21.94 23.8584 21.95 23.6584 21.97C23.4784 21.97 23.2984 21.97 23.1184 21.97H22.7284C22.6684 21.97 22.6184 21.98 22.5784 22C22.4984 22.04 22.3984 22.06 22.2784 22.06C22.1784 22.06 22.0784 22.05 21.9784 22.03H21.6784C21.6584 22.03 21.6284 22.03 21.5884 22.03C21.5484 22.05 21.5084 22.05 21.4684 22.03C21.4084 22.01 21.3484 22 21.2884 22C21.2484 22.02 21.1984 22.04 21.1384 22.06C21.0984 22.06 21.0584 22.06 21.0184 22.06C20.9984 22.08 20.9684 22.09 20.9284 22.09C20.7284 22.07 20.5384 22.07 20.3584 22.09C20.1784 22.13 19.9884 22.17 19.7884 22.21ZM50.6593 22.3C50.5393 22.28 50.4193 22.27 50.2993 22.27C50.1793 22.27 50.0693 22.24 49.9693 22.18C49.8093 22.12 49.6793 22.05 49.5793 21.97C49.3793 21.79 49.1993 21.58 49.0393 21.34C49.0193 21.3 48.9993 21.25 48.9793 21.19C48.9593 21.13 48.9293 21.08 48.8893 21.04C48.8093 20.86 48.7293 20.68 48.6493 20.5C48.5693 20.32 48.4793 20.14 48.3793 19.96C48.2793 19.78 48.1793 19.6 48.0793 19.42C47.9793 19.24 47.8793 19.06 47.7793 18.88C47.6793 18.7 47.5793 18.52 47.4793 18.34C47.3793 18.16 47.2893 17.97 47.2093 17.77L47.0293 17.47C46.9493 17.33 46.8693 17.19 46.7893 17.05C46.7093 16.91 46.6493 16.77 46.6093 16.63C46.5893 16.57 46.5393 16.48 46.4593 16.36L46.1893 15.91C46.1293 15.77 46.0593 15.63 45.9793 15.49C45.9193 15.35 45.8393 15.22 45.7393 15.1L45.5593 14.83C45.2393 14.31 44.9393 13.77 44.6593 13.21C44.5993 13.09 44.5293 12.97 44.4493 12.85C44.3893 12.73 44.3193 12.61 44.2393 12.49C44.2193 12.41 44.1793 12.34 44.1193 12.28C44.0793 12.22 44.0393 12.16 43.9993 12.1C43.9593 12.04 43.9093 12.04 43.8493 12.1C43.8293 12.16 43.8093 12.22 43.7893 12.28C43.7693 12.32 43.7493 12.37 43.7293 12.43C43.6493 12.65 43.5793 12.87 43.5193 13.09C43.4593 13.31 43.3993 13.53 43.3393 13.75C43.2993 13.95 43.2493 14.14 43.1893 14.32C43.1293 14.5 43.0793 14.68 43.0393 14.86C43.0193 15 42.9993 15.14 42.9793 15.28C42.9593 15.4 42.9293 15.52 42.8893 15.64C42.8893 15.7 42.8793 15.76 42.8593 15.82C42.8593 15.86 42.8493 15.91 42.8293 15.97C42.7493 16.27 42.6893 16.58 42.6493 16.9C42.6293 17.2 42.5993 17.51 42.5593 17.83V18.01C42.5793 18.09 42.5793 18.16 42.5593 18.22C42.5593 18.28 42.5493 18.34 42.5293 18.4C42.4693 18.56 42.4593 18.74 42.4993 18.94C42.5193 19.02 42.5293 19.1 42.5293 19.18C42.5493 19.26 42.5493 19.34 42.5293 19.42C42.5093 19.62 42.4893 19.82 42.4693 20.02C42.4693 20.2 42.4693 20.38 42.4693 20.56C42.4693 20.74 42.4393 20.92 42.3793 21.1C42.3393 21.18 42.2893 21.23 42.2293 21.25C42.1493 21.33 42.0993 21.4 42.0793 21.46C42.0593 21.54 42.0093 21.6 41.9293 21.64C41.8693 21.68 41.8193 21.72 41.7793 21.76C41.7593 21.78 41.7293 21.79 41.6893 21.79C41.6293 21.79 41.5893 21.8 41.5693 21.82C41.5093 21.84 41.4493 21.86 41.3893 21.88C41.3493 21.9 41.3093 21.92 41.2693 21.94C41.2093 21.94 41.1393 21.94 41.0593 21.94C40.9993 21.92 40.9393 21.91 40.8793 21.91C40.6593 21.89 40.4993 21.86 40.3993 21.82C40.2993 21.78 40.1593 21.65 39.9793 21.43C39.9593 21.37 39.9293 21.32 39.8893 21.28C39.8493 21.22 39.8093 21.16 39.7693 21.1C39.6293 20.92 39.5393 20.72 39.4993 20.5C39.4793 20.22 39.4193 19.94 39.3193 19.66C39.2393 19.38 39.1393 19.11 39.0193 18.85C38.9993 18.77 38.9693 18.69 38.9293 18.61C38.9093 18.53 38.8793 18.46 38.8393 18.4C38.6993 18.08 38.5593 17.77 38.4193 17.47C38.2993 17.15 38.1693 16.83 38.0293 16.51C38.0093 16.49 37.9993 16.47 37.9993 16.45C37.9993 16.43 37.9893 16.41 37.9693 16.39C37.8493 16.21 37.7393 16.03 37.6393 15.85C37.5593 15.65 37.4693 15.45 37.3693 15.25C37.2693 15.03 37.1393 14.8 36.9793 14.56C36.9393 14.46 36.8893 14.37 36.8293 14.29C36.7893 14.21 36.7493 14.13 36.7093 14.05C36.6893 14.01 36.6693 13.96 36.6493 13.9C36.6493 13.84 36.6293 13.79 36.5893 13.75C36.4293 13.53 36.2893 13.29 36.1693 13.03C36.0693 12.77 35.9493 12.52 35.8093 12.28L35.4793 11.74C35.4193 11.64 35.3493 11.54 35.2693 11.44C35.2093 11.34 35.1493 11.25 35.0893 11.17C35.0293 11.07 34.9693 10.99 34.9093 10.93C34.8493 10.85 34.7993 10.77 34.7593 10.69C34.6793 10.57 34.5993 10.46 34.5193 10.36C34.4393 10.24 34.3693 10.13 34.3093 10.03C34.2293 9.91 34.1493 9.8 34.0693 9.7C33.9893 9.58 33.9093 9.47 33.8293 9.37C33.6893 9.15 33.5793 8.94 33.4993 8.74C33.4793 8.64 33.4793 8.55 33.4993 8.47C33.5393 8.31 33.5693 8.16 33.5893 8.02C33.6293 7.86 33.6693 7.71 33.7093 7.57L33.7993 7.45C33.8793 7.37 33.9493 7.3 34.0093 7.24C34.0893 7.18 34.1693 7.12 34.2493 7.06C34.3293 7.02 34.3793 7 34.3993 7C34.6193 6.92 34.8293 6.88 35.0293 6.88C35.2293 6.88 35.4293 6.93 35.6293 7.03C35.7293 7.07 35.8293 7.12 35.9293 7.18C36.1493 7.3 36.2893 7.46 36.3493 7.66C36.3893 7.76 36.4293 7.86 36.4693 7.96C36.5293 8.06 36.5693 8.16 36.5893 8.26C36.7493 8.68 36.9693 9.08 37.2493 9.46C37.4093 9.68 37.5793 9.93 37.7593 10.21C37.7993 10.23 37.8293 10.26 37.8493 10.3C37.8693 10.34 37.8893 10.37 37.9093 10.39C38.0293 10.53 38.1393 10.69 38.2393 10.87C38.3393 11.05 38.4293 11.22 38.5093 11.38C38.5893 11.52 38.6493 11.66 38.6893 11.8C38.7493 11.92 38.8093 12.05 38.8693 12.19C39.0293 12.55 39.1793 12.91 39.3193 13.27C39.4593 13.63 39.5993 13.98 39.7393 14.32C39.7793 14.44 39.8293 14.55 39.8893 14.65C39.9493 14.75 39.9993 14.86 40.0393 14.98C40.0393 14.98 40.0393 14.99 40.0393 15.01C40.0593 15.01 40.0693 15 40.0693 14.98C40.1093 14.98 40.1293 14.97 40.1293 14.95C40.2293 14.79 40.2893 14.64 40.3093 14.5L40.5793 13.54C40.6193 13.42 40.6593 13.3 40.6993 13.18C40.7393 13.06 40.7793 12.93 40.8193 12.79C40.9393 12.51 41.0293 12.23 41.0893 11.95C41.1093 11.79 41.1693 11.62 41.2693 11.44C41.3293 11.34 41.3593 11.23 41.3593 11.11L41.4493 10.81C41.5693 10.45 41.6893 10.09 41.8093 9.73C41.9293 9.37 42.0693 9.03 42.2293 8.71C42.2893 8.59 42.3493 8.48 42.4093 8.38C42.4693 8.26 42.5293 8.15 42.5893 8.05C42.6293 7.97 42.6793 7.9 42.7393 7.84C42.7993 7.78 42.8693 7.74 42.9493 7.72C43.0293 7.62 43.1193 7.56 43.2193 7.54C43.3193 7.52 43.4093 7.48 43.4893 7.42C43.5093 7.4 43.5593 7.39 43.6393 7.39C43.6993 7.39 43.7693 7.41 43.8493 7.45C43.9493 7.49 44.0393 7.48 44.1193 7.42C44.2193 7.34 44.3093 7.36 44.3893 7.48C44.4293 7.56 44.4793 7.63 44.5393 7.69C44.6193 7.73 44.6893 7.77 44.7493 7.81C44.7893 7.85 44.8293 7.89 44.8693 7.93C44.9293 7.97 44.9693 8.02 44.9893 8.08L45.9793 9.79C46.0793 9.95 46.1793 10.12 46.2793 10.3C46.3793 10.46 46.4693 10.63 46.5493 10.81C46.6293 10.91 46.6893 11.02 46.7293 11.14C46.7893 11.26 46.8493 11.39 46.9093 11.53C47.0293 11.85 47.1993 12.17 47.4193 12.49C47.4593 12.55 47.4993 12.61 47.5393 12.67C47.5793 12.73 47.6093 12.79 47.6293 12.85C47.7293 13.09 47.8393 13.33 47.9593 13.57C48.0993 13.81 48.2293 14.06 48.3493 14.32C48.3693 14.36 48.3893 14.41 48.4093 14.47C48.4493 14.53 48.4793 14.58 48.4993 14.62C48.5993 14.88 48.7193 15.14 48.8593 15.4C48.9993 15.64 49.1393 15.88 49.2793 16.12C49.2993 16.16 49.3493 16.22 49.4293 16.3C49.4293 16.3 49.4393 16.3 49.4593 16.3C49.4793 16.3 49.4893 16.29 49.4893 16.27C49.5093 16.25 49.5393 16.2 49.5793 16.12C49.6393 15.94 49.6993 15.77 49.7593 15.61C49.8193 15.43 49.8593 15.25 49.8793 15.07C49.9193 14.91 49.9593 14.78 49.9993 14.68C50.0993 14.36 50.1893 14.05 50.2693 13.75C50.3493 13.43 50.4293 13.11 50.5093 12.79C50.5493 12.67 50.5893 12.55 50.6293 12.43C50.6693 12.29 50.7093 12.16 50.7493 12.04C50.8693 11.62 50.9893 11.21 51.1093 10.81C51.2293 10.39 51.3393 9.97 51.4393 9.55L51.7993 8.05C51.8393 7.93 51.8393 7.81 51.7993 7.69C51.7593 7.59 51.7693 7.51 51.8293 7.45C51.9093 7.35 51.9693 7.24 52.0093 7.12C52.0493 7 52.0893 6.89 52.1293 6.79C52.1893 6.59 52.2693 6.37 52.3693 6.13C52.3893 6.07 52.4193 6.01 52.4593 5.95C52.4993 5.89 52.5293 5.83 52.5493 5.77C52.6293 5.65 52.7193 5.58 52.8193 5.56C52.8793 5.52 52.9393 5.49 52.9993 5.47C53.0593 5.43 53.1193 5.4 53.1793 5.38C53.1993 5.36 53.2193 5.35 53.2393 5.35C53.2793 5.35 53.3093 5.34 53.3293 5.32C53.4293 5.28 53.5293 5.26 53.6293 5.26C53.7493 5.24 53.8493 5.2 53.9293 5.14C54.0493 5.06 54.1893 5.07 54.3493 5.17C54.5093 5.29 54.6393 5.4 54.7393 5.5C54.8593 5.62 54.9393 5.8 54.9793 6.04C54.9993 6.1 55.0093 6.16 55.0093 6.22C55.0093 6.28 55.0093 6.34 55.0093 6.4C54.9693 6.84 54.8793 7.27 54.7393 7.69C54.6993 7.81 54.6593 7.94 54.6193 8.08C54.5793 8.2 54.5393 8.32 54.4993 8.44C54.4993 8.46 54.4893 8.49 54.4693 8.53C54.4693 8.55 54.4693 8.58 54.4693 8.62C54.4493 8.94 54.3993 9.26 54.3193 9.58C54.2393 9.9 54.1493 10.21 54.0493 10.51C53.9693 10.77 53.8993 11.03 53.8393 11.29C53.7793 11.55 53.7093 11.81 53.6293 12.07C53.6093 12.11 53.5893 12.17 53.5693 12.25C53.5693 12.31 53.5493 12.36 53.5093 12.4C53.4493 12.52 53.4093 12.65 53.3893 12.79C53.3693 12.91 53.3393 13.04 53.2993 13.18C53.2793 13.26 53.2593 13.34 53.2393 13.42C53.2393 13.48 53.2193 13.55 53.1793 13.63C53.1193 13.85 53.0593 14.08 52.9993 14.32C52.9393 14.54 52.8893 14.76 52.8493 14.98L52.5793 16C52.5593 16.08 52.5393 16.16 52.5193 16.24C52.5193 16.3 52.5093 16.37 52.4893 16.45C52.4893 16.51 52.4793 16.57 52.4593 16.63C52.4593 16.69 52.4493 16.76 52.4293 16.84C52.4093 16.96 52.3793 17.09 52.3393 17.23C52.3193 17.35 52.2993 17.48 52.2793 17.62C52.2593 17.76 52.2393 17.9 52.2193 18.04C52.1993 18.16 52.1793 18.3 52.1593 18.46C52.1593 18.54 52.1493 18.62 52.1293 18.7C52.1293 18.78 52.1293 18.87 52.1293 18.97L52.0393 19.6C52.0393 19.8 52.0293 19.99 52.0093 20.17C51.9893 20.35 51.9593 20.54 51.9193 20.74C51.8993 20.78 51.8893 20.83 51.8893 20.89C51.8893 20.95 51.8893 21 51.8893 21.04C51.8893 21.22 51.8493 21.36 51.7693 21.46C51.7493 21.52 51.7193 21.58 51.6793 21.64C51.6393 21.7 51.5993 21.76 51.5593 21.82L51.4093 21.97C51.3493 21.99 51.2893 22.02 51.2293 22.06C51.1693 22.12 51.1093 22.17 51.0493 22.21C50.9293 22.27 50.7993 22.3 50.6593 22.3ZM76.7807 23.98C76.7207 24 76.6607 24 76.6007 23.98C76.5407 23.98 76.4907 23.98 76.4507 23.98C76.2307 23.92 76.0407 23.8 75.8807 23.62C75.7407 23.46 75.6107 23.27 75.4907 23.05C75.4707 22.97 75.4407 22.89 75.4007 22.81C75.3807 22.73 75.3707 22.65 75.3707 22.57V22.36C75.3307 22.14 75.3007 21.92 75.2807 21.7C75.2807 21.48 75.2807 21.26 75.2807 21.04C75.2807 20.76 75.2807 20.48 75.2807 20.2C75.3007 19.92 75.3107 19.64 75.3107 19.36C75.3107 19.22 75.3207 19.11 75.3407 19.03C75.3607 18.65 75.3607 18.25 75.3407 17.83C75.3207 17.73 75.3007 17.62 75.2807 17.5C75.2807 17.38 75.2807 17.26 75.2807 17.14C75.3007 16.92 75.3007 16.7 75.2807 16.48C75.2607 16.26 75.2307 16.04 75.1907 15.82L75.1007 15.31C75.1007 15.27 75.0907 15.23 75.0707 15.19C75.0707 15.13 75.0707 15.09 75.0707 15.07C74.9107 14.47 74.6907 13.93 74.4107 13.45C74.3107 13.27 74.2007 13.09 74.0807 12.91C73.9807 12.71 73.8807 12.51 73.7807 12.31C73.6807 12.11 73.6007 11.91 73.5407 11.71C73.5007 11.49 73.4607 11.28 73.4207 11.08C73.4207 11.04 73.4207 10.99 73.4207 10.93C73.4407 10.87 73.4507 10.81 73.4507 10.75C73.4507 10.63 73.4507 10.51 73.4507 10.39C73.4707 10.25 73.4807 10.11 73.4807 9.97C73.4807 9.83 73.4407 9.72 73.3607 9.64L73.1807 9.4C73.1007 9.3 73.0307 9.2 72.9707 9.1C72.9107 8.98 72.8407 8.87 72.7607 8.77L72.4307 8.32C72.3507 8.2 72.2607 8.08 72.1607 7.96C72.0607 7.84 71.9607 7.71 71.8607 7.57C71.8207 7.53 71.7807 7.49 71.7407 7.45C71.7007 7.39 71.6507 7.35 71.5907 7.33C71.5107 7.31 71.4507 7.26 71.4107 7.18C71.3507 7.12 71.2807 7.03 71.2007 6.91C71.0807 6.71 70.9507 6.51 70.8107 6.31C70.6907 6.09 70.5707 5.88 70.4507 5.68L70.3607 5.56C70.1807 5.18 70.0007 4.8 69.8207 4.42C69.6607 4.02 69.5107 3.63 69.3707 3.25C69.2907 3.07 69.2307 2.87 69.1907 2.65C69.1707 2.53 69.1407 2.41 69.1007 2.29C69.0607 2.17 69.0107 2.06 68.9507 1.96C68.8907 1.86 68.8507 1.76 68.8307 1.66C68.8307 1.56 68.8307 1.46 68.8307 1.36C68.8307 1.3 68.8407 1.24 68.8607 1.18C68.9007 1.12 68.9307 1.06 68.9507 0.999999C69.0107 0.899999 69.0707 0.809999 69.1307 0.729998C69.2107 0.629999 69.2907 0.539999 69.3707 0.459998C69.4707 0.359998 69.5807 0.309999 69.7007 0.309999C69.7607 0.309999 69.8007 0.299999 69.8207 0.279999C69.9807 0.199999 70.1407 0.179999 70.3007 0.22C70.4807 0.259999 70.6407 0.309999 70.7807 0.37C70.8407 0.389999 70.8907 0.429999 70.9307 0.49C70.9707 0.529999 71.0107 0.569999 71.0507 0.609998L71.3807 1.15C71.4207 1.19 71.4407 1.24 71.4407 1.3C71.4607 1.36 71.4807 1.42 71.5007 1.48C71.5207 1.52 71.5407 1.57 71.5607 1.63C71.7007 1.93 71.8307 2.23 71.9507 2.53C72.0907 2.81 72.2207 3.1 72.3407 3.4C72.4407 3.66 72.5407 3.92 72.6407 4.18C72.7607 4.42 72.8907 4.66 73.0307 4.9C73.1307 5.14 73.2507 5.37 73.3907 5.59C73.5307 5.81 73.6707 6.03 73.8107 6.25C73.8907 6.33 73.9607 6.42 74.0207 6.52C74.0807 6.62 74.1507 6.72 74.2307 6.82L74.3807 7C74.5407 7.16 74.6407 7.24 74.6807 7.24C74.7207 7.24 74.8107 7.15 74.9507 6.97C75.0307 6.87 75.1007 6.77 75.1607 6.67C75.2407 6.55 75.3207 6.45 75.4007 6.37C75.5607 6.17 75.7107 5.98 75.8507 5.8C76.0107 5.62 76.1607 5.44 76.3007 5.26C76.5207 5 76.8007 4.74 77.1407 4.48C77.2807 4.36 77.4107 4.23 77.5307 4.09C77.6707 3.91 77.8307 3.78 78.0107 3.7C78.1507 3.62 78.2807 3.54 78.4007 3.46C78.5207 3.36 78.6407 3.27 78.7607 3.19C78.8807 3.07 79.0107 2.97 79.1507 2.89C79.2307 2.83 79.3007 2.77 79.3607 2.71C79.4407 2.63 79.5107 2.55 79.5707 2.47C79.6107 2.41 79.6507 2.36 79.6907 2.32C79.7507 2.26 79.8107 2.21 79.8707 2.17L80.2907 1.9C80.3307 1.88 80.3607 1.87 80.3807 1.87C80.4007 1.85 80.4207 1.83 80.4407 1.81C80.4807 1.81 80.5107 1.81 80.5307 1.81C80.5507 1.79 80.5707 1.78 80.5907 1.78C80.6907 1.74 80.7807 1.71 80.8607 1.69C80.9607 1.67 81.0607 1.66 81.1607 1.66C81.2807 1.72 81.4007 1.78 81.5207 1.84C81.6407 1.9 81.7407 1.98 81.8207 2.08C81.8607 2.1 81.8907 2.11 81.9107 2.11C81.9507 2.11 81.9807 2.12 82.0007 2.14C82.0207 2.16 82.0307 2.18 82.0307 2.2C82.0307 2.22 82.0207 2.26 82.0007 2.32C81.9807 2.36 81.9707 2.39 81.9707 2.41C81.9707 2.43 81.9907 2.44 82.0307 2.44C82.0707 2.44 82.1007 2.45 82.1207 2.47C82.1407 2.49 82.1607 2.5 82.1807 2.5C82.2007 2.5 82.2107 2.52 82.2107 2.56C82.1907 2.72 82.2107 2.89 82.2707 3.07C82.3107 3.13 82.3307 3.19 82.3307 3.25C82.3307 3.31 82.3207 3.37 82.3007 3.43L81.9107 4.15C81.8907 4.23 81.8407 4.29 81.7607 4.33C81.4607 4.59 81.1607 4.79 80.8607 4.93C80.5007 5.05 80.2007 5.21 79.9607 5.41C79.8607 5.49 79.7607 5.57 79.6607 5.65C79.5607 5.71 79.4607 5.79 79.3607 5.89C79.3207 5.93 79.2607 5.97 79.1807 6.01L79.0007 6.16C78.7807 6.4 78.5607 6.64 78.3407 6.88C78.1407 7.1 77.9307 7.33 77.7107 7.57C77.6707 7.65 77.6207 7.69 77.5607 7.69C77.4607 7.75 77.3707 7.83 77.2907 7.93C77.1907 8.09 77.0807 8.25 76.9607 8.41C76.8407 8.55 76.7507 8.72 76.6907 8.92L76.5107 9.22C76.4907 9.24 76.4707 9.27 76.4507 9.31C76.4307 9.33 76.4107 9.36 76.3907 9.4C76.3107 9.54 76.3007 9.69 76.3607 9.85C76.4007 9.89 76.4307 9.94 76.4507 10C76.4907 10.06 76.5207 10.12 76.5407 10.18C76.6007 10.28 76.5907 10.38 76.5107 10.48C76.4707 10.5 76.4507 10.55 76.4507 10.63C76.4907 10.71 76.5107 10.77 76.5107 10.81C76.5507 10.93 76.5407 11.04 76.4807 11.14C76.4407 11.22 76.4207 11.27 76.4207 11.29C76.4007 11.41 76.4107 11.52 76.4507 11.62C76.4907 11.7 76.5307 11.8 76.5707 11.92C76.6307 12.02 76.7007 12.12 76.7807 12.22C76.8807 12.42 76.9807 12.61 77.0807 12.79C77.1807 12.97 77.2707 13.16 77.3507 13.36L77.7107 14.53C77.7507 14.71 77.7807 14.9 77.8007 15.1C77.8207 15.28 77.8407 15.46 77.8607 15.64C77.8807 15.76 77.9007 15.88 77.9207 16C77.9407 16.1 77.9407 16.21 77.9207 16.33C77.9607 16.77 77.9707 17.21 77.9507 17.65C77.9507 18.07 77.9507 18.5 77.9507 18.94C77.9507 18.98 77.9407 19.02 77.9207 19.06C77.9007 19.28 77.8907 19.51 77.8907 19.75C77.8907 19.99 77.8807 20.22 77.8607 20.44C77.8607 20.58 77.8607 20.72 77.8607 20.86C77.8807 21 77.8907 21.15 77.8907 21.31C77.8907 21.37 77.9007 21.41 77.9207 21.43C77.9607 21.53 77.9907 21.64 78.0107 21.76C78.0307 21.86 78.0507 21.96 78.0707 22.06C78.0907 22.14 78.1007 22.21 78.1007 22.27C78.1007 22.35 78.0807 22.43 78.0407 22.51C77.9807 22.65 77.9807 22.8 78.0407 22.96C78.0407 22.98 78.0107 23.01 77.9507 23.05C77.9107 23.05 77.8707 23.06 77.8307 23.08C77.8107 23.08 77.7807 23.1 77.7407 23.14C77.7407 23.18 77.7307 23.21 77.7107 23.23C77.6907 23.33 77.6107 23.45 77.4707 23.59C77.3907 23.69 77.2807 23.77 77.1407 23.83C77.0207 23.89 76.9007 23.94 76.7807 23.98ZM88.2845 22.21C88.1645 22.21 88.0845 22.2 88.0445 22.18C87.9445 22.14 87.8445 22.12 87.7445 22.12C87.6645 22.14 87.5745 22.15 87.4745 22.15C87.4545 22.15 87.4345 22.15 87.4145 22.15C87.3945 22.17 87.3745 22.18 87.3545 22.18C87.2145 22.2 87.0745 22.21 86.9345 22.21C86.8145 22.21 86.6945 22.19 86.5745 22.15C86.5545 22.13 86.5345 22.12 86.5145 22.12C86.3745 22.14 86.2545 22.1 86.1545 22C86.0545 21.9 85.9545 21.81 85.8545 21.73C85.7545 21.63 85.7045 21.52 85.7045 21.4L85.6145 21.16C85.5545 21.02 85.5345 20.89 85.5545 20.77C85.5745 20.73 85.5745 20.69 85.5545 20.65C85.5545 20.61 85.5545 20.57 85.5545 20.53C85.5345 20.49 85.5245 20.45 85.5245 20.41C85.5245 20.35 85.5145 20.3 85.4945 20.26C85.4545 20.08 85.4245 19.9 85.4045 19.72C85.4045 19.52 85.4145 19.33 85.4345 19.15C85.4545 19.03 85.5245 18.83 85.6445 18.55C85.7645 18.25 85.8345 18.07 85.8545 18.01C85.9145 17.91 85.9445 17.83 85.9445 17.77C85.9245 17.55 85.9145 17.33 85.9145 17.11C85.9345 16.87 85.9445 16.64 85.9445 16.42C85.9445 16.28 85.9745 16.17 86.0345 16.09C86.1145 15.95 86.1245 15.8 86.0645 15.64L85.9745 15.31C85.8545 15.09 85.8645 14.9 86.0045 14.74C86.0045 14.72 86.0045 14.71 86.0045 14.71C86.0245 14.69 86.0345 14.67 86.0345 14.65C86.0745 14.61 86.0845 14.56 86.0645 14.5C86.0445 14.42 86.0345 14.36 86.0345 14.32C86.0345 14.24 86.0445 14.16 86.0645 14.08C86.1045 13.98 86.1145 13.89 86.0945 13.81C86.0945 13.81 86.0745 13.79 86.0345 13.75C86.0145 13.71 86.0045 13.63 86.0045 13.51C86.0245 13.39 86.0345 13.32 86.0345 13.3V12.46C86.0545 12.36 86.0645 12.27 86.0645 12.19C86.0645 12.09 86.0745 11.99 86.0945 11.89C86.1145 11.77 86.1145 11.65 86.0945 11.53C86.0945 11.39 86.0945 11.25 86.0945 11.11C86.0745 11.01 86.0545 10.9 86.0345 10.78C86.0345 10.66 86.0345 10.54 86.0345 10.42C86.0145 10.38 86.0045 10.33 86.0045 10.27C86.0045 10.21 86.0045 10.16 86.0045 10.12C85.9845 10.02 85.9645 9.92 85.9445 9.82C85.9445 9.72 85.9445 9.62 85.9445 9.52C85.9445 9.48 85.9045 9.35 85.8245 9.13C85.7445 8.89 85.7145 8.69 85.7345 8.53C85.7545 8.49 85.7645 8.44 85.7645 8.38C85.7645 8.32 85.7445 8.27 85.7045 8.23C85.6645 8.21 85.6445 8.17 85.6445 8.11V8.02C85.7045 7.78 85.6745 7.54 85.5545 7.3C85.4745 7.18 85.4445 7.06 85.4645 6.94C85.4645 6.78 85.3945 6.66 85.2545 6.58C85.1545 6.48 85.0645 6.36 84.9845 6.22C84.9045 6.08 84.8545 5.94 84.8345 5.8C84.8145 5.7 84.8045 5.6 84.8045 5.5C84.8045 5.4 84.8045 5.31 84.8045 5.23C84.8045 5.15 84.8145 5.1 84.8345 5.08C84.9145 5 84.9545 4.91 84.9545 4.81C84.9545 4.69 84.9645 4.6 84.9845 4.54C85.0045 4.52 85.0245 4.51 85.0445 4.51C85.0645 4.51 85.0845 4.5 85.1045 4.48C85.1845 4.46 85.2245 4.39 85.2245 4.27C85.1845 4.19 85.1645 4.12 85.1645 4.06C85.1445 3.98 85.1745 3.91 85.2545 3.85C85.2945 3.77 85.3445 3.75 85.4045 3.79C85.5445 3.85 85.7045 3.83 85.8845 3.73C85.9645 3.69 86.0145 3.67 86.0345 3.67C86.0945 3.67 86.1245 3.67 86.1245 3.67C86.1445 3.65 86.2045 3.64 86.3045 3.64C86.4245 3.66 86.5345 3.62 86.6345 3.52C86.7745 3.38 86.9445 3.31 87.1445 3.31H89.0045C89.4645 3.33 89.9245 3.33 90.3845 3.31C90.8445 3.29 91.2945 3.28 91.7345 3.28C91.8345 3.28 91.9145 3.28 91.9745 3.28C92.0545 3.26 92.1345 3.24 92.2145 3.22C92.3345 3.16 92.4745 3.13 92.6345 3.13H93.3245C93.4845 3.13 93.6245 3.13 93.7445 3.13C93.8845 3.11 94.0245 3.09 94.1645 3.07C94.2445 3.05 94.3145 3.04 94.3745 3.04C94.4545 3.04 94.5345 3.04 94.6145 3.04C94.6945 3.04 94.7745 3.04 94.8545 3.04C94.9345 3.04 95.0145 3.03 95.0945 3.01C95.2545 2.99 95.4245 2.98 95.6045 2.98C95.7845 2.96 95.9545 2.95 96.1145 2.95C96.1945 2.95 96.2645 2.95 96.3245 2.95C96.4045 2.93 96.4845 2.91 96.5645 2.89C96.7245 2.85 96.8745 2.83 97.0145 2.83C97.1745 2.81 97.3245 2.79 97.4645 2.77C97.6245 2.75 97.7745 2.73 97.9145 2.71C98.0745 2.69 98.2245 2.67 98.3645 2.65C98.5445 2.65 98.6745 2.67 98.7545 2.71C98.8745 2.79 98.9845 2.86 99.0845 2.92C99.2045 2.98 99.3145 3.06 99.4145 3.16C99.4945 3.24 99.5445 3.31 99.5645 3.37C99.5845 3.45 99.6045 3.53 99.6245 3.61C99.6445 3.69 99.6645 3.78 99.6845 3.88V4.09C99.6645 4.19 99.6445 4.3 99.6245 4.42C99.6245 4.52 99.6145 4.63 99.5945 4.75C99.5545 4.83 99.5045 4.9 99.4445 4.96L98.9045 5.5C98.7045 5.56 98.5045 5.6 98.3045 5.62C98.1245 5.64 97.9345 5.64 97.7345 5.62H97.5245C97.4245 5.64 97.3245 5.65 97.2245 5.65C97.1245 5.65 97.0245 5.64 96.9245 5.62C96.8045 5.6 96.6845 5.6 96.5645 5.62C96.4445 5.62 96.3245 5.62 96.2045 5.62C96.1245 5.62 96.0445 5.63 95.9645 5.65C95.9045 5.65 95.8345 5.64 95.7545 5.62C95.6545 5.6 95.5545 5.6 95.4545 5.62C95.3745 5.62 95.2845 5.63 95.1845 5.65C95.1045 5.65 95.0145 5.66 94.9145 5.68C94.8345 5.68 94.7445 5.68 94.6445 5.68C94.3845 5.72 94.1045 5.74 93.8045 5.74C93.5245 5.74 93.2445 5.76 92.9645 5.8C92.7845 5.78 92.6145 5.79 92.4545 5.83C92.2945 5.85 92.1245 5.87 91.9445 5.89C91.7845 5.91 91.6145 5.92 91.4345 5.92C91.2545 5.92 91.0845 5.94 90.9245 5.98C90.7245 5.98 90.5245 6.01 90.3245 6.07C90.1445 6.11 89.9545 6.14 89.7545 6.16L89.5445 6.19C89.4045 6.19 89.2745 6.21 89.1545 6.25C89.0345 6.27 88.9045 6.3 88.7645 6.34C88.6845 6.36 88.6045 6.38 88.5245 6.4C88.4445 6.4 88.3545 6.41 88.2545 6.43C88.1945 6.43 88.1245 6.45 88.0445 6.49C87.9845 6.51 87.9545 6.57 87.9545 6.67L88.0445 6.94C88.0645 6.98 88.0545 7.08 88.0145 7.24C87.9945 7.4 87.9745 7.52 87.9545 7.6C87.9545 7.66 87.9645 7.72 87.9845 7.78C88.0045 7.84 88.0245 7.9 88.0445 7.96C88.1045 8.12 88.1345 8.3 88.1345 8.5C88.1345 8.68 88.1545 8.85 88.1945 9.01C88.2145 9.09 88.2245 9.18 88.2245 9.28C88.2245 9.36 88.2345 9.45 88.2545 9.55C88.2545 9.59 88.2545 9.64 88.2545 9.7C88.2745 9.74 88.2845 9.79 88.2845 9.85C88.2845 9.91 88.2745 9.95 88.2545 9.97C88.1945 10.05 88.1645 10.14 88.1645 10.24C88.1645 10.34 88.1645 10.44 88.1645 10.54C88.2645 10.74 88.3145 10.94 88.3145 11.14C88.3145 11.34 88.3145 11.54 88.3145 11.74C88.3145 11.8 88.3645 11.82 88.4645 11.8H88.4945C88.5345 11.72 88.5745 11.66 88.6145 11.62C88.6745 11.62 88.7445 11.6 88.8245 11.56C88.8845 11.52 88.9645 11.5 89.0645 11.5C89.2245 11.52 89.3745 11.52 89.5145 11.5C89.6545 11.46 89.7945 11.42 89.9345 11.38C90.8745 11.14 91.7545 10.83 92.5745 10.45C92.7945 10.35 93.0245 10.27 93.2645 10.21C93.5045 10.13 93.7445 10.08 93.9845 10.06H94.0745C94.2545 10.04 94.4345 10.02 94.6145 10C94.7945 9.98 94.9745 9.97 95.1545 9.97C95.3945 9.95 95.6245 9.92 95.8445 9.88C96.0845 9.84 96.3245 9.81 96.5645 9.79C96.7045 9.75 96.8345 9.72 96.9545 9.7C97.0745 9.66 97.2045 9.61 97.3445 9.55C97.6045 9.45 97.8445 9.4 98.0645 9.4C98.2245 9.42 98.3745 9.46 98.5145 9.52C98.6545 9.56 98.7945 9.62 98.9345 9.7C99.2345 9.9 99.3845 10.2 99.3845 10.6C99.3845 10.76 99.3645 10.92 99.3245 11.08C99.3045 11.24 99.2945 11.4 99.2945 11.56C99.2945 11.6 99.2745 11.64 99.2345 11.68L99.1445 11.83C99.1245 11.91 99.1045 11.99 99.0845 12.07C99.0645 12.15 99.0145 12.21 98.9345 12.25C98.8145 12.35 98.6845 12.46 98.5445 12.58C98.4245 12.68 98.2845 12.75 98.1245 12.79C98.0445 12.81 97.9645 12.83 97.8845 12.85C97.8245 12.87 97.7545 12.88 97.6745 12.88C97.3545 12.88 97.0245 12.9 96.6845 12.94C96.3645 12.98 96.0345 13.02 95.6945 13.06C95.4345 13.08 95.1745 13.11 94.9145 13.15C94.6745 13.19 94.4245 13.21 94.1645 13.21C93.9245 13.21 93.6545 13.26 93.3545 13.36C93.1545 13.4 92.9445 13.44 92.7245 13.48C92.5045 13.52 92.2845 13.55 92.0645 13.57C91.9045 13.59 91.7345 13.62 91.5545 13.66C91.3945 13.68 91.2345 13.7 91.0745 13.72L90.5645 13.81C90.5245 13.83 90.4645 13.84 90.3845 13.84C90.2445 13.88 90.1045 13.91 89.9645 13.93C89.8245 13.95 89.6845 13.98 89.5445 14.02C89.4045 14.04 89.2645 14.07 89.1245 14.11C89.0045 14.15 88.8745 14.19 88.7345 14.23C88.6345 14.25 88.5545 14.29 88.4945 14.35C88.4345 14.39 88.3845 14.45 88.3445 14.53C88.3245 14.59 88.3245 14.65 88.3445 14.71C88.3645 14.79 88.3545 14.87 88.3145 14.95C88.3345 15.15 88.3445 15.35 88.3445 15.55C88.3645 15.75 88.3645 15.95 88.3445 16.15C88.3845 16.31 88.3945 16.47 88.3745 16.63C88.3745 16.79 88.3645 16.95 88.3445 17.11C88.3045 17.35 88.3145 17.55 88.3745 17.71C88.4345 17.97 88.4145 18.24 88.3145 18.52C88.2745 18.64 88.2745 18.72 88.3145 18.76C88.3545 18.82 88.3545 18.89 88.3145 18.97V19.15C88.2945 19.31 88.3645 19.39 88.5245 19.39H88.5845C88.7245 19.39 88.8645 19.44 89.0045 19.54C89.1045 19.64 89.2245 19.67 89.3645 19.63L90.2045 19.54C90.3245 19.52 90.4445 19.51 90.5645 19.51C90.6845 19.49 90.8045 19.48 90.9245 19.48C90.9645 19.46 91.0245 19.47 91.1045 19.51C91.2045 19.57 91.2945 19.58 91.3745 19.54C91.4145 19.5 91.4645 19.47 91.5245 19.45C91.6045 19.43 91.6645 19.4 91.7045 19.36C91.8245 19.24 91.9745 19.2 92.1545 19.24C92.3145 19.28 92.4445 19.27 92.5445 19.21C92.7245 19.15 92.8945 19.13 93.0545 19.15C93.1545 19.17 93.2545 19.16 93.3545 19.12C93.4545 19.08 93.5545 19.06 93.6545 19.06C93.6945 19.06 93.7245 19.07 93.7445 19.09C93.7645 19.09 93.7845 19.08 93.8045 19.06C93.8445 19.06 93.8845 19.05 93.9245 19.03C93.9645 19.01 93.9945 19 94.0145 19C94.1545 18.94 94.2845 18.92 94.4045 18.94C94.5045 18.94 94.5545 18.94 94.5545 18.94C94.6345 18.92 94.7045 18.92 94.7645 18.94C94.8445 18.96 94.9145 18.99 94.9745 19.03C95.0745 19.05 95.1545 19.08 95.2145 19.12C95.2945 19.16 95.3745 19.19 95.4545 19.21C95.4945 19.21 95.5245 19.22 95.5445 19.24C95.6445 19.32 95.7645 19.39 95.9045 19.45C96.0645 19.51 96.1545 19.58 96.1745 19.66C96.2145 19.78 96.2345 19.9 96.2345 20.02C96.2345 20.12 96.2445 20.23 96.2645 20.35C96.2645 20.41 96.2545 20.47 96.2345 20.53C96.2345 20.59 96.2245 20.65 96.2045 20.71C96.1645 20.79 96.1145 20.88 96.0545 20.98C96.0145 21.08 95.9545 21.17 95.8745 21.25C95.8345 21.29 95.7945 21.33 95.7545 21.37C95.7345 21.41 95.7045 21.45 95.6645 21.49C95.5845 21.57 95.4945 21.64 95.3945 21.7C95.2945 21.76 95.1845 21.79 95.0645 21.79C94.9845 21.79 94.9245 21.8 94.8845 21.82C94.8045 21.86 94.7245 21.88 94.6445 21.88C94.5645 21.88 94.4745 21.88 94.3745 21.88C94.2345 21.9 94.0945 21.92 93.9545 21.94C93.8345 21.94 93.7045 21.93 93.5645 21.91C93.4845 21.89 93.4145 21.89 93.3545 21.91C93.1545 21.97 92.9545 21.98 92.7545 21.94C92.5545 21.94 92.3545 21.95 92.1545 21.97C91.9745 21.97 91.7945 21.97 91.6145 21.97H91.2245C91.1645 21.97 91.1145 21.98 91.0745 22C90.9945 22.04 90.8945 22.06 90.7745 22.06C90.6745 22.06 90.5745 22.05 90.4745 22.03H90.1745C90.1545 22.03 90.1245 22.03 90.0845 22.03C90.0445 22.05 90.0045 22.05 89.9645 22.03C89.9045 22.01 89.8445 22 89.7845 22C89.7445 22.02 89.6945 22.04 89.6345 22.06C89.5945 22.06 89.5545 22.06 89.5145 22.06C89.4945 22.08 89.4645 22.09 89.4245 22.09C89.2245 22.07 89.0345 22.07 88.8545 22.09C88.6745 22.13 88.4845 22.17 88.2845 22.21ZM113.684 24.19C113.504 24.19 113.344 24.12 113.204 23.98C113.164 23.92 113.124 23.86 113.084 23.8C113.044 23.74 113.004 23.68 112.964 23.62C112.784 23.2 112.694 22.76 112.694 22.3L112.604 21.58C112.544 21.3 112.494 21.02 112.454 20.74C112.414 20.46 112.344 20.19 112.244 19.93L112.064 19.42C112.064 19.38 112.054 19.34 112.034 19.3C112.034 19.26 112.024 19.22 112.004 19.18L111.554 17.59C111.534 17.55 111.514 17.5 111.494 17.44C111.494 17.38 111.474 17.33 111.434 17.29C111.374 17.17 111.324 17.05 111.284 16.93C111.264 16.79 111.234 16.65 111.194 16.51C111.174 16.41 111.154 16.32 111.134 16.24C111.114 16.14 111.084 16.04 111.044 15.94C111.004 15.82 110.964 15.75 110.924 15.73C110.884 15.69 110.794 15.69 110.654 15.73C110.554 15.75 110.444 15.77 110.324 15.79C110.224 15.79 110.124 15.81 110.024 15.85C109.944 15.87 109.844 15.89 109.724 15.91C109.624 15.91 109.524 15.92 109.424 15.94L109.004 16.03C108.904 16.05 108.794 16.08 108.674 16.12C108.574 16.14 108.474 16.15 108.374 16.15L107.834 16.24C107.674 16.28 107.504 16.32 107.324 16.36C107.144 16.4 106.974 16.44 106.814 16.48C106.334 16.6 105.854 16.69 105.374 16.75C105.214 16.79 105.124 16.86 105.104 16.96C105.084 16.96 105.074 16.97 105.074 16.99C104.954 17.31 104.814 17.63 104.654 17.95C104.514 18.25 104.364 18.56 104.204 18.88C104.164 18.96 104.124 19.04 104.084 19.12C104.064 19.18 104.034 19.25 103.994 19.33C103.974 19.37 103.954 19.42 103.934 19.48C103.914 19.52 103.894 19.56 103.874 19.6C103.754 19.74 103.694 19.91 103.694 20.11C103.674 20.23 103.634 20.35 103.574 20.47C103.514 20.57 103.454 20.67 103.394 20.77C103.374 20.83 103.334 20.86 103.274 20.86C103.194 20.88 103.114 20.91 103.034 20.95C102.954 20.99 102.864 21.03 102.764 21.07C102.704 21.09 102.644 21.09 102.584 21.07C102.544 21.05 102.494 21.03 102.434 21.01C102.394 20.97 102.354 20.95 102.314 20.95C102.094 20.93 101.934 20.8 101.834 20.56C101.674 20.24 101.564 19.92 101.504 19.6C101.484 19.52 101.484 19.45 101.504 19.39C101.544 19.33 101.574 19.27 101.594 19.21C101.714 19.13 101.784 19.04 101.804 18.94V18.91C101.804 18.65 101.854 18.41 101.954 18.19C102.074 17.95 102.174 17.72 102.254 17.5C102.294 17.38 102.344 17.26 102.404 17.14C102.464 17.02 102.524 16.9 102.584 16.78C102.664 16.64 102.724 16.51 102.764 16.39C102.824 16.25 102.874 16.11 102.914 15.97C102.974 15.81 102.974 15.66 102.914 15.52C102.874 15.4 102.854 15.29 102.854 15.19C102.854 15.07 102.864 14.95 102.884 14.83C102.884 14.61 102.964 14.42 103.124 14.26C103.204 14.16 103.284 14.08 103.364 14.02C103.464 13.94 103.554 13.86 103.634 13.78C103.814 13.6 103.954 13.36 104.054 13.06C104.134 12.8 104.194 12.54 104.234 12.28C104.294 12 104.354 11.73 104.414 11.47C104.454 11.21 104.494 10.96 104.534 10.72C104.594 10.46 104.654 10.21 104.714 9.97C104.734 9.87 104.754 9.78 104.774 9.7C104.814 9.6 104.844 9.51 104.864 9.43C104.924 9.27 104.984 9.12 105.044 8.98C105.104 8.82 105.144 8.66 105.164 8.5C105.204 8.42 105.204 8.35 105.164 8.29C105.144 8.19 105.144 8.1 105.164 8.02C105.204 7.94 105.234 7.86 105.254 7.78C105.314 7.64 105.354 7.5 105.374 7.36C105.414 7.22 105.464 7.08 105.524 6.94C105.624 6.68 105.704 6.47 105.764 6.31C105.844 6.13 105.914 5.93 105.974 5.71C106.014 5.59 106.054 5.48 106.094 5.38C106.154 5.26 106.194 5.14 106.214 5.02C106.274 4.84 106.324 4.66 106.364 4.48C106.404 4.28 106.424 4.09 106.424 3.91C106.464 3.75 106.504 3.64 106.544 3.58C106.644 3.38 106.764 3.21 106.904 3.07C107.064 2.93 107.214 2.79 107.354 2.65C107.454 2.59 107.554 2.55 107.654 2.53C107.754 2.49 107.854 2.5 107.954 2.56C108.034 2.6 108.084 2.62 108.104 2.62C108.284 2.6 108.434 2.64 108.554 2.74C108.674 2.84 108.774 2.96 108.854 3.1C108.894 3.14 108.924 3.19 108.944 3.25C108.964 3.31 108.984 3.36 109.004 3.4C109.104 3.56 109.154 3.72 109.154 3.88C109.154 3.96 109.164 4.05 109.184 4.15C109.204 4.23 109.224 4.32 109.244 4.42C109.304 4.54 109.394 4.6 109.514 4.6C109.534 4.58 109.554 4.58 109.574 4.6C109.594 4.62 109.604 4.64 109.604 4.66C109.704 4.78 109.734 4.91 109.694 5.05C109.654 5.21 109.644 5.37 109.664 5.53C109.704 5.67 109.744 5.82 109.784 5.98C109.864 6.18 109.944 6.38 110.024 6.58C110.104 6.78 110.184 6.98 110.264 7.18C110.364 7.4 110.464 7.62 110.564 7.84C110.664 8.06 110.754 8.28 110.834 8.5C110.934 8.78 111.034 9.06 111.134 9.34C111.254 9.62 111.384 9.9 111.524 10.18L111.614 10.51C111.634 10.59 111.654 10.67 111.674 10.75C111.714 10.83 111.744 10.91 111.764 10.99C111.804 11.05 111.834 11.11 111.854 11.17C111.894 11.23 111.934 11.28 111.974 11.32C112.074 11.46 112.134 11.61 112.154 11.77C112.214 11.97 112.304 12.15 112.424 12.31C112.464 12.37 112.524 12.4 112.604 12.4C112.904 12.36 113.204 12.33 113.504 12.31C113.804 12.27 114.104 12.21 114.404 12.13C114.624 12.07 114.834 12.04 115.034 12.04C115.414 12.04 115.764 12.17 116.084 12.43C116.464 12.73 116.664 13.11 116.684 13.57C116.684 13.67 116.694 13.75 116.714 13.81C116.714 13.95 116.674 14.06 116.594 14.14C116.574 14.2 116.534 14.26 116.474 14.32C116.434 14.38 116.394 14.44 116.354 14.5C116.314 14.58 116.274 14.64 116.234 14.68L116.054 14.83C116.034 14.87 116.004 14.92 115.964 14.98C115.924 15.02 115.874 15.05 115.814 15.07C115.734 15.09 115.654 15.12 115.574 15.16C115.494 15.18 115.404 15.19 115.304 15.19C114.944 15.23 114.624 15.22 114.344 15.16H113.864C113.824 15.16 113.764 15.18 113.684 15.22C113.604 15.26 113.564 15.31 113.564 15.37V15.49C113.624 15.67 113.664 15.86 113.684 16.06C113.724 16.24 113.784 16.41 113.864 16.57C113.864 16.65 113.884 16.73 113.924 16.81C114.024 16.99 114.104 17.18 114.164 17.38C114.224 17.56 114.274 17.75 114.314 17.95C114.314 17.99 114.334 18.07 114.374 18.19C114.434 18.33 114.484 18.48 114.524 18.64C114.564 18.78 114.594 18.93 114.614 19.09C114.614 19.21 114.644 19.32 114.704 19.42C114.784 19.6 114.844 19.78 114.884 19.96C114.924 20.14 114.954 20.33 114.974 20.53C114.994 20.55 115.004 20.59 115.004 20.65C115.004 20.69 115.014 20.73 115.034 20.77C115.134 20.99 115.204 21.23 115.244 21.49C115.284 21.73 115.334 21.97 115.394 22.21C115.434 22.33 115.454 22.45 115.454 22.57C115.474 22.71 115.484 22.85 115.484 22.99C115.484 23.09 115.454 23.2 115.394 23.32C115.334 23.38 115.304 23.41 115.304 23.41C115.184 23.43 115.114 23.5 115.094 23.62L115.004 23.8C114.964 23.88 114.904 23.93 114.824 23.95C114.744 23.95 114.674 23.98 114.614 24.04C114.534 24.12 114.424 24.16 114.284 24.16C114.204 24.16 114.104 24.16 113.984 24.16C113.884 24.16 113.784 24.17 113.684 24.19ZM106.454 13.3C106.574 13.28 106.694 13.26 106.814 13.24C106.954 13.22 107.104 13.2 107.264 13.18C107.364 13.16 107.494 13.14 107.654 13.12C107.814 13.1 107.964 13.08 108.104 13.06C108.244 13.02 108.384 13 108.524 13C108.664 12.98 108.804 12.96 108.944 12.94C109.064 12.9 109.184 12.88 109.304 12.88C109.424 12.86 109.544 12.84 109.664 12.82C109.844 12.78 109.914 12.68 109.874 12.52C109.854 12.36 109.814 12.2 109.754 12.04C109.714 11.86 109.624 11.71 109.484 11.59C109.444 11.55 109.424 11.49 109.424 11.41V11.32C109.384 11.16 109.334 11.01 109.274 10.87C109.234 10.71 109.184 10.56 109.124 10.42C109.084 10.26 109.034 10.12 108.974 10C108.934 9.86 108.884 9.72 108.824 9.58L108.464 8.5C108.404 8.36 108.344 8.22 108.284 8.08C108.244 7.94 108.204 7.8 108.164 7.66L108.074 7.54H107.984L107.924 7.63C107.824 7.93 107.704 8.23 107.564 8.53C107.444 8.83 107.334 9.15 107.234 9.49C107.234 9.53 107.224 9.58 107.204 9.64C107.184 9.7 107.164 9.76 107.144 9.82C107.064 10.02 106.984 10.24 106.904 10.48C106.844 10.72 106.794 10.96 106.754 11.2C106.734 11.34 106.714 11.48 106.694 11.62C106.674 11.74 106.644 11.87 106.604 12.01L106.334 13.18C106.314 13.2 106.324 13.23 106.364 13.27C106.404 13.29 106.434 13.3 106.454 13.3ZM121.718 22.6C121.338 22.64 121.028 22.52 120.788 22.24C120.668 22.12 120.558 21.99 120.458 21.85C120.358 21.71 120.278 21.56 120.218 21.4C120.118 21.12 120.028 20.84 119.948 20.56C119.868 20.26 119.798 19.97 119.738 19.69C119.678 19.47 119.648 19.26 119.648 19.06C119.628 18.84 119.598 18.63 119.558 18.43C119.538 18.21 119.528 17.99 119.528 17.77C119.528 17.65 119.528 17.53 119.528 17.41C119.528 17.27 119.518 17.14 119.498 17.02C119.478 16.94 119.468 16.87 119.468 16.81C119.468 16.75 119.468 16.68 119.468 16.6C119.468 16.32 119.468 16.04 119.468 15.76C119.468 15.46 119.458 15.17 119.438 14.89C119.438 14.73 119.428 14.59 119.408 14.47C119.388 14.33 119.348 14.19 119.288 14.05C119.208 13.83 119.198 13.59 119.258 13.33C119.258 13.27 119.268 13.23 119.288 13.21C119.328 13.07 119.348 12.93 119.348 12.79C119.368 12.65 119.368 12.51 119.348 12.37C119.328 12.27 119.318 12.17 119.318 12.07C119.318 11.97 119.318 11.88 119.318 11.8C119.298 11.58 119.288 11.36 119.288 11.14C119.308 10.9 119.328 10.67 119.348 10.45C119.368 10.39 119.378 10.33 119.378 10.27C119.378 10.21 119.378 10.15 119.378 10.09C119.358 9.87 119.358 9.66 119.378 9.46C119.418 9.26 119.448 9.06 119.468 8.86C119.508 8.62 119.548 8.39 119.588 8.17C119.628 7.93 119.678 7.69 119.738 7.45C119.778 7.35 119.798 7.24 119.798 7.12C119.798 7 119.798 6.88 119.798 6.76C119.798 6.66 119.788 6.56 119.768 6.46C119.768 6.36 119.768 6.27 119.768 6.19C119.768 6.13 119.768 6.07 119.768 6.01C119.768 5.95 119.778 5.89 119.798 5.83C119.818 5.77 119.828 5.71 119.828 5.65C119.828 5.59 119.838 5.55 119.858 5.53C119.918 5.45 119.968 5.38 120.008 5.32C120.048 5.24 120.108 5.17 120.188 5.11C120.288 5.05 120.378 4.99 120.458 4.93C120.558 4.87 120.648 4.82 120.728 4.78C120.828 4.74 120.908 4.69 120.968 4.63C121.048 4.53 121.128 4.44 121.208 4.36C121.308 4.26 121.388 4.15 121.448 4.03C121.548 3.93 121.648 3.82 121.748 3.7C121.868 3.56 121.998 3.45 122.138 3.37C122.178 3.35 122.238 3.3 122.318 3.22C122.558 3 122.838 2.86 123.158 2.8C123.218 2.78 123.268 2.77 123.308 2.77C123.368 2.75 123.428 2.74 123.488 2.74L123.698 2.65C123.858 2.59 123.998 2.62 124.118 2.74C124.158 2.8 124.208 2.86 124.268 2.92C124.348 2.96 124.418 3 124.478 3.04C124.638 3.18 124.788 3.33 124.928 3.49C125.088 3.65 125.228 3.83 125.348 4.03C125.548 4.35 125.718 4.67 125.858 4.99C126.018 5.31 126.168 5.64 126.308 5.98L126.848 7.27C126.868 7.39 126.918 7.5 126.998 7.6C127.158 7.9 127.278 8.21 127.358 8.53C127.438 8.83 127.518 9.14 127.598 9.46C127.618 9.5 127.628 9.54 127.628 9.58C127.648 9.62 127.658 9.66 127.658 9.7C127.698 9.86 127.728 10.03 127.748 10.21C127.788 10.37 127.798 10.53 127.778 10.69C127.798 10.87 127.788 11.05 127.748 11.23C127.728 11.39 127.698 11.55 127.658 11.71C127.598 11.91 127.528 12.1 127.448 12.28C127.368 12.44 127.278 12.61 127.178 12.79C127.138 12.91 127.068 13.02 126.968 13.12C126.868 13.22 126.768 13.31 126.668 13.39C126.508 13.47 126.348 13.59 126.188 13.75C126.148 13.79 126.098 13.82 126.038 13.84C125.998 13.86 125.958 13.89 125.918 13.93C125.778 13.99 125.628 14.06 125.468 14.14C125.308 14.2 125.148 14.26 124.988 14.32C124.968 14.32 124.958 14.34 124.958 14.38C124.958 14.4 124.968 14.42 124.988 14.44L125.798 15.01C125.898 15.07 125.988 15.13 126.068 15.19C126.148 15.23 126.228 15.28 126.308 15.34L126.488 15.43C126.728 15.57 126.968 15.72 127.208 15.88C127.448 16.04 127.678 16.2 127.898 16.36C128.318 16.62 128.738 16.89 129.158 17.17C129.578 17.43 129.978 17.72 130.358 18.04C130.698 18.3 130.998 18.6 131.258 18.94C131.318 19 131.378 19.07 131.438 19.15C131.498 19.21 131.568 19.26 131.648 19.3L131.738 19.39C132.058 19.67 132.238 20.05 132.278 20.53C132.278 20.59 132.268 20.65 132.248 20.71C132.248 20.77 132.248 20.83 132.248 20.89C132.248 21.01 132.208 21.11 132.128 21.19C132.048 21.23 132.008 21.28 132.008 21.34C131.948 21.48 131.858 21.58 131.738 21.64C131.638 21.68 131.538 21.74 131.438 21.82C131.398 21.84 131.328 21.85 131.228 21.85C131.108 21.83 130.978 21.81 130.838 21.79C130.718 21.77 130.598 21.76 130.478 21.76C130.318 21.76 130.148 21.69 129.968 21.55C129.848 21.45 129.738 21.36 129.638 21.28C129.538 21.18 129.438 21.06 129.338 20.92C129.078 20.56 128.738 20.23 128.318 19.93C128.118 19.77 127.928 19.62 127.748 19.48C127.568 19.34 127.368 19.21 127.148 19.09C127.008 19.01 126.868 18.93 126.728 18.85C126.608 18.75 126.468 18.66 126.308 18.58C125.808 18.24 125.298 17.91 124.778 17.59C124.258 17.25 123.738 16.91 123.218 16.57C123.138 16.51 123.048 16.45 122.948 16.39C122.848 16.33 122.748 16.27 122.648 16.21C122.608 16.17 122.548 16.13 122.468 16.09C122.388 16.09 122.348 16.12 122.348 16.18C122.348 16.2 122.338 16.22 122.318 16.24C122.318 16.24 122.318 16.25 122.318 16.27C122.318 16.33 122.318 16.39 122.318 16.45C122.318 16.51 122.328 16.57 122.348 16.63C122.368 16.79 122.378 16.95 122.378 17.11C122.378 17.25 122.378 17.4 122.378 17.56C122.378 17.68 122.378 17.8 122.378 17.92C122.398 18.02 122.418 18.13 122.438 18.25C122.438 18.31 122.438 18.38 122.438 18.46C122.458 18.52 122.468 18.58 122.468 18.64C122.448 18.82 122.458 19 122.498 19.18C122.538 19.36 122.568 19.54 122.588 19.72L122.768 20.5C122.788 20.58 122.808 20.67 122.828 20.77C122.848 20.85 122.868 20.94 122.888 21.04C122.908 21.12 122.908 21.2 122.888 21.28C122.888 21.34 122.878 21.41 122.858 21.49C122.858 21.51 122.838 21.54 122.798 21.58C122.698 21.6 122.628 21.67 122.588 21.79C122.528 21.93 122.438 22.05 122.318 22.15C122.218 22.27 122.108 22.38 121.988 22.48C121.968 22.5 121.928 22.52 121.868 22.54C121.808 22.56 121.758 22.58 121.718 22.6ZM122.888 12.1H122.948C123.168 12.06 123.388 12.02 123.608 11.98C123.848 11.92 124.078 11.85 124.298 11.77C124.518 11.71 124.708 11.6 124.868 11.44C125.008 11.3 125.078 11.14 125.078 10.96C125.098 10.82 125.098 10.69 125.078 10.57C125.078 10.43 125.058 10.29 125.018 10.15C124.938 9.79 124.848 9.44 124.748 9.1C124.648 8.74 124.528 8.4 124.388 8.08L124.118 7.36C124.058 7.16 123.988 6.97 123.908 6.79C123.828 6.59 123.738 6.4 123.638 6.22C123.618 6.18 123.598 6.14 123.578 6.1C123.558 6.04 123.538 5.99 123.518 5.95L123.398 5.83C123.338 5.75 123.268 5.75 123.188 5.83C123.168 5.83 123.138 5.85 123.098 5.89C122.958 6.07 122.828 6.26 122.708 6.46C122.608 6.66 122.548 6.88 122.528 7.12C122.508 7.2 122.488 7.28 122.468 7.36C122.468 7.44 122.468 7.53 122.468 7.63V8.92C122.448 9.2 122.438 9.49 122.438 9.79C122.458 10.09 122.448 10.38 122.408 10.66C122.388 10.72 122.378 10.78 122.378 10.84C122.398 10.9 122.408 10.96 122.408 11.02C122.428 11.14 122.438 11.26 122.438 11.38C122.438 11.48 122.438 11.59 122.438 11.71C122.438 11.91 122.458 12.03 122.498 12.07C122.558 12.11 122.688 12.12 122.888 12.1ZM134.25 8.29C134.07 8.29 133.92 8.21 133.8 8.05C133.7 7.91 133.61 7.76 133.53 7.6C133.45 7.44 133.39 7.27 133.35 7.09C133.27 6.69 133.32 6.29 133.5 5.89C133.54 5.83 133.57 5.77 133.59 5.71C133.63 5.65 133.66 5.6 133.68 5.56L133.92 5.05C133.94 5.07 133.95 5.08 133.95 5.08C134.01 4.94 134.07 4.81 134.13 4.69C134.21 4.55 134.28 4.41 134.34 4.27C134.38 4.19 134.42 4.09 134.46 3.97C134.5 3.81 134.55 3.66 134.61 3.52C134.67 3.38 134.74 3.24 134.82 3.1C134.9 2.94 134.97 2.79 135.03 2.65C135.11 2.51 135.18 2.37 135.24 2.23C135.28 2.13 135.32 2.05 135.36 1.99C135.42 1.91 135.47 1.83 135.51 1.75C135.55 1.67 135.59 1.6 135.63 1.54C135.69 1.46 135.73 1.38 135.75 1.3C135.91 1.08 136.07 0.899999 136.23 0.76C136.41 0.6 136.62 0.479999 136.86 0.399999C137.3 0.279999 137.72 0.299999 138.12 0.459998C138.56 0.679999 138.84 0.999999 138.96 1.42C139.06 1.74 139.08 2.03 139.02 2.29C138.96 2.65 138.82 2.99 138.6 3.31C138.52 3.45 138.44 3.59 138.36 3.73C138.28 3.87 138.21 4.02 138.15 4.18L137.58 5.35C137.54 5.47 137.5 5.59 137.46 5.71C137.42 5.81 137.38 5.92 137.34 6.04C137.28 6.24 137.19 6.41 137.07 6.55C136.99 6.69 136.89 6.83 136.77 6.97C136.67 7.11 136.57 7.26 136.47 7.42C136.39 7.52 136.3 7.61 136.2 7.69C136.12 7.77 136.03 7.85 135.93 7.93C135.79 8.01 135.63 8.08 135.45 8.14C135.29 8.18 135.13 8.22 134.97 8.26C134.89 8.26 134.79 8.27 134.67 8.29C134.57 8.29 134.47 8.29 134.37 8.29H134.25ZM146.895 23.47L146.385 23.38C146.125 23.34 145.855 23.3 145.575 23.26C145.315 23.22 145.045 23.19 144.765 23.17C144.485 23.17 144.205 23.09 143.925 22.93C143.665 22.79 143.485 22.57 143.385 22.27C143.365 22.17 143.335 22.07 143.295 21.97C143.275 21.87 143.255 21.77 143.235 21.67C143.235 21.43 143.285 21.25 143.385 21.13C143.485 21.03 143.565 20.93 143.625 20.83C143.705 20.73 143.785 20.64 143.865 20.56C143.905 20.52 143.945 20.49 143.985 20.47C144.025 20.45 144.065 20.43 144.105 20.41C144.205 20.35 144.305 20.31 144.405 20.29C144.505 20.25 144.605 20.22 144.705 20.2C144.745 20.18 144.775 20.18 144.795 20.2C144.835 20.2 144.865 20.2 144.885 20.2C144.985 20.22 145.095 20.24 145.215 20.26C145.335 20.26 145.445 20.28 145.545 20.32L146.805 20.5C147.085 20.54 147.335 20.5 147.555 20.38C147.635 20.34 147.705 20.3 147.765 20.26C147.845 20.22 147.915 20.18 147.975 20.14C148.415 19.88 148.795 19.61 149.115 19.33C149.355 19.11 149.585 18.89 149.805 18.67C150.025 18.45 150.225 18.21 150.405 17.95C150.545 17.77 150.635 17.59 150.675 17.41C150.715 17.21 150.725 17.01 150.705 16.81L150.615 16.57C150.595 16.47 150.555 16.39 150.495 16.33C150.435 16.27 150.375 16.2 150.315 16.12C150.195 16.02 150.075 15.91 149.955 15.79C149.855 15.67 149.745 15.57 149.625 15.49C149.325 15.25 149.025 15.02 148.725 14.8C148.445 14.58 148.155 14.36 147.855 14.14C147.835 14.1 147.775 14.06 147.675 14.02C147.495 13.9 147.315 13.77 147.135 13.63C146.975 13.47 146.815 13.32 146.655 13.18C146.455 12.98 146.235 12.79 145.995 12.61C145.875 12.55 145.765 12.45 145.665 12.31C145.585 12.21 145.465 12.11 145.305 12.01C145.165 11.93 145.035 11.84 144.915 11.74C144.795 11.62 144.675 11.51 144.555 11.41L144.165 11.05C144.085 10.95 143.995 10.86 143.895 10.78C143.815 10.68 143.725 10.58 143.625 10.48C143.585 10.38 143.525 10.3 143.445 10.24C143.385 10.18 143.325 10.11 143.265 10.03C143.245 9.99 143.215 9.95 143.175 9.91C143.135 9.85 143.105 9.79 143.085 9.73C142.965 9.49 142.835 9.25 142.695 9.01C142.575 8.77 142.465 8.52 142.365 8.26C142.305 8.1 142.245 7.95 142.185 7.81C142.145 7.65 142.105 7.5 142.065 7.36C142.045 7.2 142.005 7.06 141.945 6.94C141.905 6.8 141.865 6.66 141.825 6.52C141.785 6.3 141.735 6.09 141.675 5.89C141.635 5.67 141.595 5.46 141.555 5.26L141.495 5.02C141.475 4.8 141.475 4.59 141.495 4.39C141.535 4.11 141.595 3.86 141.675 3.64C141.755 3.4 141.885 3.21 142.065 3.07C142.265 2.91 142.465 2.75 142.665 2.59C142.865 2.43 143.075 2.3 143.295 2.2C143.335 2.2 143.365 2.19 143.385 2.17C143.585 2.01 143.805 1.9 144.045 1.84C144.285 1.76 144.525 1.69 144.765 1.63C145.725 1.35 146.715 1.14 147.735 0.999999H148.035C148.235 0.999999 148.425 0.999999 148.605 0.999999C148.785 0.999999 148.975 0.989999 149.175 0.969999C149.415 0.969999 149.655 0.999999 149.895 1.06C150.135 1.1 150.365 1.17 150.585 1.27C150.745 1.35 150.905 1.44 151.065 1.54C151.225 1.62 151.375 1.71 151.515 1.81C151.675 1.93 151.775 2.06 151.815 2.2L151.905 2.41C152.005 2.59 152.055 2.78 152.055 2.98C152.075 3.16 152.065 3.35 152.025 3.55C152.025 3.61 152.015 3.68 151.995 3.76C151.995 3.82 151.995 3.88 151.995 3.94C151.935 4.38 151.725 4.72 151.365 4.96C151.145 5.16 150.855 5.24 150.495 5.2C150.415 5.16 150.375 5.18 150.375 5.26C150.375 5.34 150.325 5.38 150.225 5.38H150.045C149.925 5.38 149.805 5.32 149.685 5.2C149.585 5.1 149.535 5.02 149.535 4.96C149.535 4.88 149.575 4.82 149.655 4.78C149.615 4.68 149.575 4.59 149.535 4.51C149.495 4.43 149.455 4.37 149.415 4.33C149.355 4.23 149.265 4.16 149.145 4.12C149.045 4.1 148.945 4.08 148.845 4.06C148.745 4.04 148.645 4.02 148.545 4C148.465 4 148.375 4 148.275 4C148.175 3.98 148.075 3.96 147.975 3.94C147.915 3.92 147.825 3.93 147.705 3.97C147.645 3.99 147.585 4.01 147.525 4.03C147.465 4.03 147.395 4.02 147.315 4C147.255 4 147.185 4 147.105 4C147.045 4 146.975 4.02 146.895 4.06L146.325 4.15C146.005 4.21 145.695 4.33 145.395 4.51C145.335 4.53 145.275 4.55 145.215 4.57C145.155 4.59 145.095 4.59 145.035 4.57C144.915 4.55 144.815 4.58 144.735 4.66C144.715 4.7 144.665 4.73 144.585 4.75C144.525 4.75 144.475 4.77 144.435 4.81C144.355 4.89 144.315 4.97 144.315 5.05C144.335 5.09 144.345 5.15 144.345 5.23L144.975 7.06C145.095 7.38 145.245 7.68 145.425 7.96C145.625 8.22 145.835 8.48 146.055 8.74C146.395 9.14 146.745 9.48 147.105 9.76L148.065 10.57C148.265 10.75 148.475 10.92 148.695 11.08C148.915 11.24 149.125 11.4 149.325 11.56C149.625 11.78 149.925 12.01 150.225 12.25C150.525 12.47 150.825 12.7 151.125 12.94C151.365 13.14 151.595 13.34 151.815 13.54C152.055 13.72 152.275 13.92 152.475 14.14C152.615 14.3 152.755 14.46 152.895 14.62C153.035 14.78 153.155 14.96 153.255 15.16C153.395 15.38 153.515 15.64 153.615 15.94C153.735 16.32 153.785 16.68 153.765 17.02C153.745 17.06 153.735 17.12 153.735 17.2C153.735 17.44 153.705 17.67 153.645 17.89C153.605 18.09 153.535 18.3 153.435 18.52C153.335 18.72 153.225 18.93 153.105 19.15C153.005 19.35 152.885 19.55 152.745 19.75C152.545 20.01 152.335 20.26 152.115 20.5C151.915 20.72 151.685 20.94 151.425 21.16C151.285 21.28 151.145 21.41 151.005 21.55C150.865 21.67 150.715 21.78 150.555 21.88C150.455 21.96 150.355 22.03 150.255 22.09C150.155 22.17 150.055 22.25 149.955 22.33C149.875 22.37 149.795 22.42 149.715 22.48C149.635 22.54 149.555 22.6 149.475 22.66C149.395 22.74 149.295 22.8 149.175 22.84C149.075 22.9 148.975 22.95 148.875 22.99L148.005 23.35C147.825 23.41 147.645 23.45 147.465 23.47C147.285 23.49 147.095 23.49 146.895 23.47ZM171.873 22.42C171.733 22.42 171.563 22.37 171.363 22.27C171.263 22.21 171.183 22.13 171.123 22.03C171.103 21.97 171.053 21.97 170.973 22.03C170.913 22.07 170.863 22.07 170.823 22.03C170.763 21.97 170.703 21.93 170.643 21.91C170.563 21.91 170.523 21.88 170.523 21.82C170.523 21.76 170.513 21.71 170.493 21.67C170.493 21.61 170.473 21.56 170.433 21.52C170.313 21.48 170.233 21.38 170.193 21.22C170.173 21.16 170.153 21.11 170.133 21.07C170.113 21.01 170.083 20.95 170.043 20.89C170.003 20.81 169.983 20.74 169.983 20.68C169.963 20.62 169.943 20.57 169.923 20.53C169.923 20.47 169.903 20.41 169.863 20.35C169.843 20.21 169.803 20.08 169.743 19.96C169.683 19.84 169.633 19.71 169.593 19.57C169.553 19.49 169.533 19.38 169.533 19.24C169.533 18.88 169.593 18.55 169.713 18.25C169.813 18.07 169.843 17.89 169.803 17.71C169.783 17.63 169.783 17.55 169.803 17.47C169.843 17.39 169.853 17.31 169.833 17.23C169.813 17.15 169.793 17.08 169.773 17.02C169.773 16.96 169.773 16.89 169.773 16.81C169.753 16.77 169.743 16.72 169.743 16.66C169.743 16.54 169.743 16.42 169.743 16.3C169.743 16.16 169.723 16.02 169.683 15.88C169.663 15.82 169.653 15.73 169.653 15.61V14.5C169.633 14.24 169.603 13.98 169.563 13.72C169.523 13.46 169.473 13.2 169.413 12.94C169.413 12.88 169.403 12.82 169.383 12.76C169.383 12.7 169.383 12.64 169.383 12.58C169.383 12.14 169.313 11.71 169.173 11.29V11.02C169.213 10.8 169.193 10.63 169.113 10.51C169.093 10.43 169.083 10.32 169.083 10.18V10.15C169.083 9.95 169.073 9.75 169.053 9.55C169.053 9.35 169.063 9.15 169.083 8.95C169.123 8.59 169.123 8.21 169.083 7.81C169.083 7.65 169.083 7.49 169.083 7.33C169.083 7.17 169.073 7.02 169.053 6.88V6.7C169.093 6.6 169.113 6.51 169.113 6.43C169.113 6.35 169.113 6.27 169.113 6.19C169.113 5.95 169.103 5.72 169.083 5.5C169.083 5.26 169.063 5.03 169.023 4.81C169.023 4.75 169.023 4.69 169.023 4.63C169.023 4.55 169.013 4.48 168.993 4.42C168.993 4.28 168.943 4.16 168.843 4.06L168.633 3.88C168.433 3.76 168.303 3.57 168.243 3.31C168.223 3.27 168.213 3.24 168.213 3.22C168.213 3.18 168.203 3.14 168.183 3.1C168.143 3 168.163 2.91 168.243 2.83C168.303 2.75 168.343 2.67 168.363 2.59C168.363 2.53 168.373 2.48 168.393 2.44C168.433 2.38 168.463 2.32 168.483 2.26C168.503 2.2 168.523 2.13 168.543 2.05C168.583 1.99 168.613 1.97 168.633 1.99C168.773 1.99 168.873 1.97 168.933 1.93C169.073 1.83 169.223 1.81 169.383 1.87C169.423 1.89 169.483 1.88 169.563 1.84C169.583 1.84 169.593 1.83 169.593 1.81C169.693 1.71 169.803 1.66 169.923 1.66C170.043 1.64 170.173 1.64 170.313 1.66C170.333 1.66 170.353 1.67 170.373 1.69C170.393 1.69 170.413 1.69 170.433 1.69C170.593 1.73 170.743 1.77 170.883 1.81C171.043 1.83 171.193 1.83 171.333 1.81C171.433 1.81 171.533 1.82 171.633 1.84C171.753 1.86 171.863 1.87 171.963 1.87C172.043 1.87 172.113 1.88 172.173 1.9C172.253 1.92 172.323 1.94 172.383 1.96C172.463 1.98 172.533 2.01 172.593 2.05C172.653 2.07 172.723 2.08 172.803 2.08C172.903 2.1 172.983 2.12 173.043 2.14C173.123 2.16 173.203 2.19 173.283 2.23C173.543 2.37 173.803 2.5 174.063 2.62C174.183 2.68 174.293 2.76 174.393 2.86C174.533 2.96 174.653 3.02 174.753 3.04C174.773 3.04 174.793 3.05 174.813 3.07C174.833 3.07 174.853 3.07 174.873 3.07C174.893 3.09 174.913 3.1 174.933 3.1C174.953 3.1 174.973 3.11 174.993 3.13C175.093 3.23 175.213 3.31 175.353 3.37C175.513 3.41 175.643 3.48 175.743 3.58C175.783 3.62 175.843 3.66 175.923 3.7C176.083 3.76 176.223 3.85 176.343 3.97C176.383 4.01 176.413 4.03 176.433 4.03C176.513 4.03 176.603 4.08 176.703 4.18L177.333 4.84C177.413 4.92 177.473 4.99 177.513 5.05C177.613 5.19 177.723 5.32 177.843 5.44C177.963 5.56 178.083 5.68 178.203 5.8C178.243 5.84 178.283 5.89 178.323 5.95C178.383 5.99 178.423 6.04 178.443 6.1C178.463 6.14 178.493 6.18 178.533 6.22C178.573 6.24 178.603 6.27 178.623 6.31C178.843 6.55 179.053 6.8 179.253 7.06C179.473 7.32 179.673 7.59 179.853 7.87C179.953 8.01 180.043 8.16 180.123 8.32C180.203 8.48 180.273 8.64 180.333 8.8C180.393 8.94 180.453 9.08 180.513 9.22C180.593 9.36 180.663 9.5 180.723 9.64C180.783 9.86 180.853 10.06 180.933 10.24C181.013 10.5 181.093 10.75 181.173 10.99C181.253 11.23 181.323 11.49 181.383 11.77L181.473 12.16C181.473 12.32 181.473 12.49 181.473 12.67C181.493 12.83 181.503 13 181.503 13.18C181.503 13.26 181.493 13.33 181.473 13.39C181.473 13.45 181.453 13.52 181.413 13.6C181.373 13.72 181.353 13.83 181.353 13.93C181.333 14.13 181.283 14.32 181.203 14.5C181.143 14.68 181.073 14.85 180.993 15.01C180.813 15.33 180.653 15.65 180.513 15.97C180.473 16.05 180.433 16.13 180.393 16.21C180.373 16.27 180.343 16.34 180.303 16.42L180.123 16.78C179.983 17.06 179.813 17.34 179.613 17.62C179.433 17.88 179.233 18.13 179.013 18.37C178.933 18.47 178.833 18.57 178.713 18.67C178.613 18.75 178.513 18.84 178.413 18.94C178.213 19.12 178.013 19.3 177.813 19.48C177.613 19.64 177.403 19.8 177.183 19.96C176.983 20.1 176.773 20.23 176.553 20.35C176.353 20.47 176.133 20.57 175.893 20.65C175.773 20.67 175.653 20.73 175.533 20.83C175.413 20.91 175.283 20.99 175.143 21.07C175.023 21.15 174.893 21.24 174.753 21.34C174.693 21.36 174.633 21.39 174.573 21.43C174.513 21.45 174.443 21.47 174.363 21.49C174.303 21.51 174.233 21.53 174.153 21.55C174.093 21.57 174.033 21.59 173.973 21.61C173.893 21.63 173.813 21.66 173.733 21.7C173.673 21.74 173.613 21.79 173.553 21.85C173.413 21.95 173.263 22.03 173.103 22.09C172.943 22.17 172.783 22.26 172.623 22.36C172.583 22.38 172.513 22.39 172.413 22.39C172.353 22.41 172.293 22.41 172.233 22.39C172.173 22.39 172.113 22.39 172.053 22.39V22.42H171.873ZM173.073 19.06C173.273 19.06 173.443 19.02 173.583 18.94C173.743 18.88 173.893 18.81 174.033 18.73C174.173 18.65 174.303 18.56 174.423 18.46L174.783 18.1C174.983 17.94 175.163 17.77 175.323 17.59C175.503 17.41 175.693 17.25 175.893 17.11C175.933 17.07 175.953 17.05 175.953 17.05C176.033 16.97 176.103 16.9 176.163 16.84C176.243 16.76 176.313 16.68 176.373 16.6C176.413 16.56 176.463 16.51 176.523 16.45C176.583 16.39 176.623 16.34 176.643 16.3C176.723 16.16 176.833 16.04 176.973 15.94C177.073 15.88 177.133 15.82 177.153 15.76C177.193 15.66 177.243 15.56 177.303 15.46C177.383 15.36 177.463 15.27 177.543 15.19C177.643 15.07 177.743 14.89 177.843 14.65L177.963 14.35C178.083 14.07 178.143 13.81 178.143 13.57C178.163 13.51 178.173 13.42 178.173 13.3C178.193 13 178.173 12.68 178.113 12.34C178.093 12.24 178.073 12.14 178.053 12.04C178.033 11.94 178.023 11.85 178.023 11.77C178.003 11.69 177.983 11.62 177.963 11.56C177.963 11.48 177.943 11.41 177.903 11.35C177.863 11.27 177.833 11.19 177.813 11.11C177.793 11.03 177.773 10.95 177.753 10.87C177.753 10.73 177.733 10.61 177.693 10.51C177.653 10.39 177.613 10.27 177.573 10.15C177.513 10.03 177.453 9.91 177.393 9.79C177.333 9.65 177.283 9.51 177.243 9.37L177.213 9.25C177.153 9.17 177.103 9.09 177.063 9.01C177.043 8.91 177.013 8.82 176.973 8.74C176.893 8.56 176.813 8.38 176.733 8.2C176.673 8.02 176.593 7.85 176.493 7.69C176.393 7.51 176.283 7.33 176.163 7.15C176.063 6.97 175.933 6.81 175.773 6.67C175.313 6.17 174.783 5.72 174.183 5.32C173.823 5.06 173.463 4.89 173.103 4.81C172.963 4.77 172.803 4.74 172.623 4.72C172.443 4.68 172.273 4.65 172.113 4.63C172.053 4.63 172.003 4.65 171.963 4.69C171.863 4.77 171.813 4.87 171.813 4.99C171.813 5.13 171.803 5.28 171.783 5.44C171.783 5.58 171.783 5.73 171.783 5.89C171.823 6.17 171.813 6.4 171.753 6.58C171.733 6.66 171.713 6.74 171.693 6.82C171.693 6.9 171.703 6.99 171.723 7.09C171.763 7.21 171.753 7.32 171.693 7.42C171.633 7.54 171.633 7.67 171.693 7.81C171.773 7.97 171.793 8.17 171.753 8.41C171.693 8.65 171.693 8.89 171.753 9.13C171.773 9.21 171.783 9.29 171.783 9.37C171.803 9.45 171.803 9.54 171.783 9.64C171.783 9.86 171.793 10.08 171.813 10.3C171.853 10.52 171.883 10.74 171.903 10.96C171.903 11 171.923 11.06 171.963 11.14V11.62C171.963 11.66 171.953 11.71 171.933 11.77C171.933 11.81 171.943 11.85 171.963 11.89C172.003 12.05 172.033 12.22 172.053 12.4C172.093 12.56 172.133 12.72 172.173 12.88C172.173 12.92 172.183 12.97 172.203 13.03C172.223 13.07 172.233 13.12 172.233 13.18C172.233 13.32 172.243 13.46 172.263 13.6C172.283 13.74 172.303 13.89 172.323 14.05C172.383 14.61 172.473 15.18 172.593 15.76C172.653 16 172.683 16.25 172.683 16.51C172.683 16.57 172.683 16.64 172.683 16.72C172.683 16.78 172.693 16.84 172.713 16.9C172.753 17.04 172.773 17.18 172.773 17.32C172.773 17.46 172.773 17.6 172.773 17.74C172.773 17.78 172.763 17.83 172.743 17.89C172.743 17.95 172.753 18 172.773 18.04C172.813 18.14 172.833 18.24 172.833 18.34C172.833 18.42 172.833 18.51 172.833 18.61C172.833 18.69 172.853 18.79 172.893 18.91C172.893 19.01 172.953 19.06 173.073 19.06ZM195.92 24.19C195.74 24.19 195.58 24.12 195.44 23.98C195.4 23.92 195.36 23.86 195.32 23.8C195.28 23.74 195.24 23.68 195.2 23.62C195.02 23.2 194.93 22.76 194.93 22.3L194.84 21.58C194.78 21.3 194.73 21.02 194.69 20.74C194.65 20.46 194.58 20.19 194.48 19.93L194.3 19.42C194.3 19.38 194.29 19.34 194.27 19.3C194.27 19.26 194.26 19.22 194.24 19.18L193.79 17.59C193.77 17.55 193.75 17.5 193.73 17.44C193.73 17.38 193.71 17.33 193.67 17.29C193.61 17.17 193.56 17.05 193.52 16.93C193.5 16.79 193.47 16.65 193.43 16.51C193.41 16.41 193.39 16.32 193.37 16.24C193.35 16.14 193.32 16.04 193.28 15.94C193.24 15.82 193.2 15.75 193.16 15.73C193.12 15.69 193.03 15.69 192.89 15.73C192.79 15.75 192.68 15.77 192.56 15.79C192.46 15.79 192.36 15.81 192.26 15.85C192.18 15.87 192.08 15.89 191.96 15.91C191.86 15.91 191.76 15.92 191.66 15.94L191.24 16.03C191.14 16.05 191.03 16.08 190.91 16.12C190.81 16.14 190.71 16.15 190.61 16.15L190.07 16.24C189.91 16.28 189.74 16.32 189.56 16.36C189.38 16.4 189.21 16.44 189.05 16.48C188.57 16.6 188.09 16.69 187.61 16.75C187.45 16.79 187.36 16.86 187.34 16.96C187.32 16.96 187.31 16.97 187.31 16.99C187.19 17.31 187.05 17.63 186.89 17.95C186.75 18.25 186.6 18.56 186.44 18.88C186.4 18.96 186.36 19.04 186.32 19.12C186.3 19.18 186.27 19.25 186.23 19.33C186.21 19.37 186.19 19.42 186.17 19.48C186.15 19.52 186.13 19.56 186.11 19.6C185.99 19.74 185.93 19.91 185.93 20.11C185.91 20.23 185.87 20.35 185.81 20.47C185.75 20.57 185.69 20.67 185.63 20.77C185.61 20.83 185.57 20.86 185.51 20.86C185.43 20.88 185.35 20.91 185.27 20.95C185.19 20.99 185.1 21.03 185 21.07C184.94 21.09 184.88 21.09 184.82 21.07C184.78 21.05 184.73 21.03 184.67 21.01C184.63 20.97 184.59 20.95 184.55 20.95C184.33 20.93 184.17 20.8 184.07 20.56C183.91 20.24 183.8 19.92 183.74 19.6C183.72 19.52 183.72 19.45 183.74 19.39C183.78 19.33 183.81 19.27 183.83 19.21C183.95 19.13 184.02 19.04 184.04 18.94V18.91C184.04 18.65 184.09 18.41 184.19 18.19C184.31 17.95 184.41 17.72 184.49 17.5C184.53 17.38 184.58 17.26 184.64 17.14C184.7 17.02 184.76 16.9 184.82 16.78C184.9 16.64 184.96 16.51 185 16.39C185.06 16.25 185.11 16.11 185.15 15.97C185.21 15.81 185.21 15.66 185.15 15.52C185.11 15.4 185.09 15.29 185.09 15.19C185.09 15.07 185.1 14.95 185.12 14.83C185.12 14.61 185.2 14.42 185.36 14.26C185.44 14.16 185.52 14.08 185.6 14.02C185.7 13.94 185.79 13.86 185.87 13.78C186.05 13.6 186.19 13.36 186.29 13.06C186.37 12.8 186.43 12.54 186.47 12.28C186.53 12 186.59 11.73 186.65 11.47C186.69 11.21 186.73 10.96 186.77 10.72C186.83 10.46 186.89 10.21 186.95 9.97C186.97 9.87 186.99 9.78 187.01 9.7C187.05 9.6 187.08 9.51 187.1 9.43C187.16 9.27 187.22 9.12 187.28 8.98C187.34 8.82 187.38 8.66 187.4 8.5C187.44 8.42 187.44 8.35 187.4 8.29C187.38 8.19 187.38 8.1 187.4 8.02C187.44 7.94 187.47 7.86 187.49 7.78C187.55 7.64 187.59 7.5 187.61 7.36C187.65 7.22 187.7 7.08 187.76 6.94C187.86 6.68 187.94 6.47 188 6.31C188.08 6.13 188.15 5.93 188.21 5.71C188.25 5.59 188.29 5.48 188.33 5.38C188.39 5.26 188.43 5.14 188.45 5.02C188.51 4.84 188.56 4.66 188.6 4.48C188.64 4.28 188.66 4.09 188.66 3.91C188.7 3.75 188.74 3.64 188.78 3.58C188.88 3.38 189 3.21 189.14 3.07C189.3 2.93 189.45 2.79 189.59 2.65C189.69 2.59 189.79 2.55 189.89 2.53C189.99 2.49 190.09 2.5 190.19 2.56C190.27 2.6 190.32 2.62 190.34 2.62C190.52 2.6 190.67 2.64 190.79 2.74C190.91 2.84 191.01 2.96 191.09 3.1C191.13 3.14 191.16 3.19 191.18 3.25C191.2 3.31 191.22 3.36 191.24 3.4C191.34 3.56 191.39 3.72 191.39 3.88C191.39 3.96 191.4 4.05 191.42 4.15C191.44 4.23 191.46 4.32 191.48 4.42C191.54 4.54 191.63 4.6 191.75 4.6C191.77 4.58 191.79 4.58 191.81 4.6C191.83 4.62 191.84 4.64 191.84 4.66C191.94 4.78 191.97 4.91 191.93 5.05C191.89 5.21 191.88 5.37 191.9 5.53C191.94 5.67 191.98 5.82 192.02 5.98C192.1 6.18 192.18 6.38 192.26 6.58C192.34 6.78 192.42 6.98 192.5 7.18C192.6 7.4 192.7 7.62 192.8 7.84C192.9 8.06 192.99 8.28 193.07 8.5C193.17 8.78 193.27 9.06 193.37 9.34C193.49 9.62 193.62 9.9 193.76 10.18L193.85 10.51C193.87 10.59 193.89 10.67 193.91 10.75C193.95 10.83 193.98 10.91 194 10.99C194.04 11.05 194.07 11.11 194.09 11.17C194.13 11.23 194.17 11.28 194.21 11.32C194.31 11.46 194.37 11.61 194.39 11.77C194.45 11.97 194.54 12.15 194.66 12.31C194.7 12.37 194.76 12.4 194.84 12.4C195.14 12.36 195.44 12.33 195.74 12.31C196.04 12.27 196.34 12.21 196.64 12.13C196.86 12.07 197.07 12.04 197.27 12.04C197.65 12.04 198 12.17 198.32 12.43C198.7 12.73 198.9 13.11 198.92 13.57C198.92 13.67 198.93 13.75 198.95 13.81C198.95 13.95 198.91 14.06 198.83 14.14C198.81 14.2 198.77 14.26 198.71 14.32C198.67 14.38 198.63 14.44 198.59 14.5C198.55 14.58 198.51 14.64 198.47 14.68L198.29 14.83C198.27 14.87 198.24 14.92 198.2 14.98C198.16 15.02 198.11 15.05 198.05 15.07C197.97 15.09 197.89 15.12 197.81 15.16C197.73 15.18 197.64 15.19 197.54 15.19C197.18 15.23 196.86 15.22 196.58 15.16H196.1C196.06 15.16 196 15.18 195.92 15.22C195.84 15.26 195.8 15.31 195.8 15.37V15.49C195.86 15.67 195.9 15.86 195.92 16.06C195.96 16.24 196.02 16.41 196.1 16.57C196.1 16.65 196.12 16.73 196.16 16.81C196.26 16.99 196.34 17.18 196.4 17.38C196.46 17.56 196.51 17.75 196.55 17.95C196.55 17.99 196.57 18.07 196.61 18.19C196.67 18.33 196.72 18.48 196.76 18.64C196.8 18.78 196.83 18.93 196.85 19.09C196.85 19.21 196.88 19.32 196.94 19.42C197.02 19.6 197.08 19.78 197.12 19.96C197.16 20.14 197.19 20.33 197.21 20.53C197.23 20.55 197.24 20.59 197.24 20.65C197.24 20.69 197.25 20.73 197.27 20.77C197.37 20.99 197.44 21.23 197.48 21.49C197.52 21.73 197.57 21.97 197.63 22.21C197.67 22.33 197.69 22.45 197.69 22.57C197.71 22.71 197.72 22.85 197.72 22.99C197.72 23.09 197.69 23.2 197.63 23.32C197.57 23.38 197.54 23.41 197.54 23.41C197.42 23.43 197.35 23.5 197.33 23.62L197.24 23.8C197.2 23.88 197.14 23.93 197.06 23.95C196.98 23.95 196.91 23.98 196.85 24.04C196.77 24.12 196.66 24.16 196.52 24.16C196.44 24.16 196.34 24.16 196.22 24.16C196.12 24.16 196.02 24.17 195.92 24.19ZM188.69 13.3C188.81 13.28 188.93 13.26 189.05 13.24C189.19 13.22 189.34 13.2 189.5 13.18C189.6 13.16 189.73 13.14 189.89 13.12C190.05 13.1 190.2 13.08 190.34 13.06C190.48 13.02 190.62 13 190.76 13C190.9 12.98 191.04 12.96 191.18 12.94C191.3 12.9 191.42 12.88 191.54 12.88C191.66 12.86 191.78 12.84 191.9 12.82C192.08 12.78 192.15 12.68 192.11 12.52C192.09 12.36 192.05 12.2 191.99 12.04C191.95 11.86 191.86 11.71 191.72 11.59C191.68 11.55 191.66 11.49 191.66 11.41V11.32C191.62 11.16 191.57 11.01 191.51 10.87C191.47 10.71 191.42 10.56 191.36 10.42C191.32 10.26 191.27 10.12 191.21 10C191.17 9.86 191.12 9.72 191.06 9.58L190.7 8.5C190.64 8.36 190.58 8.22 190.52 8.08C190.48 7.94 190.44 7.8 190.4 7.66L190.31 7.54H190.22L190.16 7.63C190.06 7.93 189.94 8.23 189.8 8.53C189.68 8.83 189.57 9.15 189.47 9.49C189.47 9.53 189.46 9.58 189.44 9.64C189.42 9.7 189.4 9.76 189.38 9.82C189.3 10.02 189.22 10.24 189.14 10.48C189.08 10.72 189.03 10.96 188.99 11.2C188.97 11.34 188.95 11.48 188.93 11.62C188.91 11.74 188.88 11.87 188.84 12.01L188.57 13.18C188.55 13.2 188.56 13.23 188.6 13.27C188.64 13.29 188.67 13.3 188.69 13.3ZM207.064 23.98C207.004 24 206.944 24 206.884 23.98C206.824 23.98 206.774 23.98 206.734 23.98C206.514 23.92 206.324 23.8 206.164 23.62C206.024 23.46 205.894 23.27 205.774 23.05C205.754 22.97 205.724 22.89 205.684 22.81C205.664 22.73 205.654 22.65 205.654 22.57V22.36C205.614 22.14 205.584 21.92 205.564 21.7C205.564 21.48 205.564 21.26 205.564 21.04C205.564 20.76 205.564 20.48 205.564 20.2C205.584 19.92 205.594 19.64 205.594 19.36C205.594 19.22 205.604 19.11 205.624 19.03C205.644 18.65 205.644 18.25 205.624 17.83C205.604 17.73 205.584 17.62 205.564 17.5C205.564 17.38 205.564 17.26 205.564 17.14C205.584 16.92 205.584 16.7 205.564 16.48C205.544 16.26 205.514 16.04 205.474 15.82L205.384 15.31C205.384 15.27 205.374 15.23 205.354 15.19C205.354 15.13 205.354 15.09 205.354 15.07C205.194 14.47 204.974 13.93 204.694 13.45C204.594 13.27 204.484 13.09 204.364 12.91C204.264 12.71 204.164 12.51 204.064 12.31C203.964 12.11 203.884 11.91 203.824 11.71C203.784 11.49 203.744 11.28 203.704 11.08C203.704 11.04 203.704 10.99 203.704 10.93C203.724 10.87 203.734 10.81 203.734 10.75C203.734 10.63 203.734 10.51 203.734 10.39C203.754 10.25 203.764 10.11 203.764 9.97C203.764 9.83 203.724 9.72 203.644 9.64L203.464 9.4C203.384 9.3 203.314 9.2 203.254 9.1C203.194 8.98 203.124 8.87 203.044 8.77L202.714 8.32C202.634 8.2 202.544 8.08 202.444 7.96C202.344 7.84 202.244 7.71 202.144 7.57C202.104 7.53 202.064 7.49 202.024 7.45C201.984 7.39 201.934 7.35 201.874 7.33C201.794 7.31 201.734 7.26 201.694 7.18C201.634 7.12 201.564 7.03 201.484 6.91C201.364 6.71 201.234 6.51 201.094 6.31C200.974 6.09 200.854 5.88 200.734 5.68L200.644 5.56C200.464 5.18 200.284 4.8 200.104 4.42C199.944 4.02 199.794 3.63 199.654 3.25C199.574 3.07 199.514 2.87 199.474 2.65C199.454 2.53 199.424 2.41 199.384 2.29C199.344 2.17 199.294 2.06 199.234 1.96C199.174 1.86 199.134 1.76 199.114 1.66C199.114 1.56 199.114 1.46 199.114 1.36C199.114 1.3 199.124 1.24 199.144 1.18C199.184 1.12 199.214 1.06 199.234 0.999999C199.294 0.899999 199.354 0.809999 199.414 0.729998C199.494 0.629999 199.574 0.539999 199.654 0.459998C199.754 0.359998 199.864 0.309999 199.984 0.309999C200.044 0.309999 200.084 0.299999 200.104 0.279999C200.264 0.199999 200.424 0.179999 200.584 0.22C200.764 0.259999 200.924 0.309999 201.064 0.37C201.124 0.389999 201.174 0.429999 201.214 0.49C201.254 0.529999 201.294 0.569999 201.334 0.609998L201.664 1.15C201.704 1.19 201.724 1.24 201.724 1.3C201.744 1.36 201.764 1.42 201.784 1.48C201.804 1.52 201.824 1.57 201.844 1.63C201.984 1.93 202.114 2.23 202.234 2.53C202.374 2.81 202.504 3.1 202.624 3.4C202.724 3.66 202.824 3.92 202.924 4.18C203.044 4.42 203.174 4.66 203.314 4.9C203.414 5.14 203.534 5.37 203.674 5.59C203.814 5.81 203.954 6.03 204.094 6.25C204.174 6.33 204.244 6.42 204.304 6.52C204.364 6.62 204.434 6.72 204.514 6.82L204.664 7C204.824 7.16 204.924 7.24 204.964 7.24C205.004 7.24 205.094 7.15 205.234 6.97C205.314 6.87 205.384 6.77 205.444 6.67C205.524 6.55 205.604 6.45 205.684 6.37C205.844 6.17 205.994 5.98 206.134 5.8C206.294 5.62 206.444 5.44 206.584 5.26C206.804 5 207.084 4.74 207.424 4.48C207.564 4.36 207.694 4.23 207.814 4.09C207.954 3.91 208.114 3.78 208.294 3.7C208.434 3.62 208.564 3.54 208.684 3.46C208.804 3.36 208.924 3.27 209.044 3.19C209.164 3.07 209.294 2.97 209.434 2.89C209.514 2.83 209.584 2.77 209.644 2.71C209.724 2.63 209.794 2.55 209.854 2.47C209.894 2.41 209.934 2.36 209.974 2.32C210.034 2.26 210.094 2.21 210.154 2.17L210.574 1.9C210.614 1.88 210.644 1.87 210.664 1.87C210.684 1.85 210.704 1.83 210.724 1.81C210.764 1.81 210.794 1.81 210.814 1.81C210.834 1.79 210.854 1.78 210.874 1.78C210.974 1.74 211.064 1.71 211.144 1.69C211.244 1.67 211.344 1.66 211.444 1.66C211.564 1.72 211.684 1.78 211.804 1.84C211.924 1.9 212.024 1.98 212.104 2.08C212.144 2.1 212.174 2.11 212.194 2.11C212.234 2.11 212.264 2.12 212.284 2.14C212.304 2.16 212.314 2.18 212.314 2.2C212.314 2.22 212.304 2.26 212.284 2.32C212.264 2.36 212.254 2.39 212.254 2.41C212.254 2.43 212.274 2.44 212.314 2.44C212.354 2.44 212.384 2.45 212.404 2.47C212.424 2.49 212.444 2.5 212.464 2.5C212.484 2.5 212.494 2.52 212.494 2.56C212.474 2.72 212.494 2.89 212.554 3.07C212.594 3.13 212.614 3.19 212.614 3.25C212.614 3.31 212.604 3.37 212.584 3.43L212.194 4.15C212.174 4.23 212.124 4.29 212.044 4.33C211.744 4.59 211.444 4.79 211.144 4.93C210.784 5.05 210.484 5.21 210.244 5.41C210.144 5.49 210.044 5.57 209.944 5.65C209.844 5.71 209.744 5.79 209.644 5.89C209.604 5.93 209.544 5.97 209.464 6.01L209.284 6.16C209.064 6.4 208.844 6.64 208.624 6.88C208.424 7.1 208.214 7.33 207.994 7.57C207.954 7.65 207.904 7.69 207.844 7.69C207.744 7.75 207.654 7.83 207.574 7.93C207.474 8.09 207.364 8.25 207.244 8.41C207.124 8.55 207.034 8.72 206.974 8.92L206.794 9.22C206.774 9.24 206.754 9.27 206.734 9.31C206.714 9.33 206.694 9.36 206.674 9.4C206.594 9.54 206.584 9.69 206.644 9.85C206.684 9.89 206.714 9.94 206.734 10C206.774 10.06 206.804 10.12 206.824 10.18C206.884 10.28 206.874 10.38 206.794 10.48C206.754 10.5 206.734 10.55 206.734 10.63C206.774 10.71 206.794 10.77 206.794 10.81C206.834 10.93 206.824 11.04 206.764 11.14C206.724 11.22 206.704 11.27 206.704 11.29C206.684 11.41 206.694 11.52 206.734 11.62C206.774 11.7 206.814 11.8 206.854 11.92C206.914 12.02 206.984 12.12 207.064 12.22C207.164 12.42 207.264 12.61 207.364 12.79C207.464 12.97 207.554 13.16 207.634 13.36L207.994 14.53C208.034 14.71 208.064 14.9 208.084 15.1C208.104 15.28 208.124 15.46 208.144 15.64C208.164 15.76 208.184 15.88 208.204 16C208.224 16.1 208.224 16.21 208.204 16.33C208.244 16.77 208.254 17.21 208.234 17.65C208.234 18.07 208.234 18.5 208.234 18.94C208.234 18.98 208.224 19.02 208.204 19.06C208.184 19.28 208.174 19.51 208.174 19.75C208.174 19.99 208.164 20.22 208.144 20.44C208.144 20.58 208.144 20.72 208.144 20.86C208.164 21 208.174 21.15 208.174 21.31C208.174 21.37 208.184 21.41 208.204 21.43C208.244 21.53 208.274 21.64 208.294 21.76C208.314 21.86 208.334 21.96 208.354 22.06C208.374 22.14 208.384 22.21 208.384 22.27C208.384 22.35 208.364 22.43 208.324 22.51C208.264 22.65 208.264 22.8 208.324 22.96C208.324 22.98 208.294 23.01 208.234 23.05C208.194 23.05 208.154 23.06 208.114 23.08C208.094 23.08 208.064 23.1 208.024 23.14C208.024 23.18 208.014 23.21 207.994 23.23C207.974 23.33 207.894 23.45 207.754 23.59C207.674 23.69 207.564 23.77 207.424 23.83C207.304 23.89 207.184 23.94 207.064 23.98Z" fill="#353535"/>
</svg>
