<svg width="167" height="29" viewBox="0 0 167 29" fill="none" xmlns="http://www.w3.org/2000/svg">
<path d="M11.164 21.27C11.104 21.25 11.034 21.23 10.954 21.21C10.894 21.19 10.834 21.17 10.774 21.15C10.614 21.09 10.454 21.01 10.294 20.91C10.214 20.87 10.154 20.81 10.114 20.73C9.97402 20.51 9.84402 20.31 9.72402 20.13C9.60402 19.93 9.47402 19.73 9.33402 19.53L9.06402 19.05C8.92402 18.77 8.78402 18.5 8.64402 18.24C8.50402 17.96 8.36402 17.69 8.22402 17.43C8.18402 17.33 8.13402 17.25 8.07402 17.19C8.03402 17.11 7.99402 17.03 7.95402 16.95C7.81402 16.73 7.68402 16.51 7.56402 16.29C7.44402 16.05 7.32402 15.82 7.20402 15.6L6.45402 14.13C6.25402 13.73 6.05402 13.34 5.85402 12.96C5.65402 12.56 5.45402 12.16 5.25402 11.76C5.21402 11.72 5.17402 11.66 5.13402 11.58C5.05402 11.36 4.95402 11.15 4.83402 10.95C4.73402 10.75 4.63402 10.55 4.53402 10.35C4.45402 10.21 4.38402 10.07 4.32402 9.93C4.26402 9.77 4.19402 9.62 4.11402 9.48L3.78402 8.88C3.74402 8.88 3.71402 8.87 3.69402 8.85C3.69402 8.85 3.68402 8.86 3.66402 8.88C3.66402 8.88 3.66402 8.89 3.66402 8.91C3.64402 9.17 3.62402 9.44 3.60402 9.72C3.58402 10 3.58402 10.28 3.60402 10.56C3.64402 10.68 3.64402 10.81 3.60402 10.95C3.56402 11.31 3.57402 11.63 3.63402 11.91C3.65402 11.99 3.65402 12.07 3.63402 12.15C3.63402 12.23 3.62402 12.32 3.60402 12.42C3.58402 12.56 3.57402 12.69 3.57402 12.81C3.57402 12.93 3.56402 13.06 3.54402 13.2C3.58402 13.28 3.60402 13.37 3.60402 13.47C3.60402 13.55 3.59402 13.63 3.57402 13.71C3.51402 13.91 3.51402 14.12 3.57402 14.34C3.61402 14.4 3.61402 14.46 3.57402 14.52C3.49402 14.7 3.47402 14.92 3.51402 15.18C3.57402 15.52 3.55402 15.89 3.45402 16.29C3.43402 16.33 3.42402 16.4 3.42402 16.5C3.40402 16.58 3.42402 16.65 3.48402 16.71C3.56402 16.75 3.58402 16.8 3.54402 16.86C3.52402 17.12 3.52402 17.39 3.54402 17.67C3.54402 17.67 3.54402 17.68 3.54402 17.7C3.54402 17.7 3.53402 17.7 3.51402 17.7C3.49402 17.7 3.48402 17.69 3.48402 17.67C3.46402 17.65 3.45402 17.63 3.45402 17.61C3.41402 17.57 3.39402 17.58 3.39402 17.64C3.39402 17.74 3.40402 17.8 3.42402 17.82C3.46402 17.92 3.48402 18.02 3.48402 18.12C3.48402 18.22 3.48402 18.32 3.48402 18.42V19.35C3.48402 19.41 3.47402 19.47 3.45402 19.53C3.45402 19.59 3.42402 19.64 3.36402 19.68C3.28402 19.7 3.24402 19.77 3.24402 19.89C3.22402 20.11 3.14402 20.3 3.00402 20.46C2.88402 20.62 2.74402 20.76 2.58402 20.88C2.50402 20.94 2.40402 20.98 2.28402 21C2.18402 21 2.08402 20.99 1.98402 20.97L1.44402 20.79C1.40402 20.79 1.36402 20.76 1.32402 20.7C1.26402 20.64 1.20402 20.58 1.14402 20.52C1.08402 20.44 1.01402 20.37 0.934023 20.31C0.834023 20.25 0.764023 20.14 0.724023 19.98C0.704024 19.88 0.674024 19.77 0.634024 19.65C0.594024 19.53 0.574024 19.41 0.574024 19.29C0.574024 19.15 0.574024 19.02 0.574024 18.9C0.594023 18.78 0.604023 18.65 0.604023 18.51C0.624024 18.41 0.634024 18.32 0.634024 18.24C0.634024 18.14 0.644024 18.04 0.664023 17.94V6.96C0.664023 6.86 0.664023 6.76 0.664023 6.66C0.684024 6.56 0.704024 6.47 0.724023 6.39C0.724023 6.29 0.724023 6.19 0.724023 6.09C0.744024 5.99 0.754024 5.89 0.754024 5.79C0.754024 5.67 0.754024 5.55 0.754024 5.43C0.774024 5.31 0.794023 5.2 0.814023 5.1C0.834023 5.02 0.844024 4.95 0.844024 4.89C0.844024 4.83 0.844024 4.76 0.844024 4.68V3.75C0.844024 3.61 0.854023 3.49 0.874023 3.39C0.914023 3.27 0.944023 3.15 0.964024 3.03L1.05402 2.88C1.11402 2.82 1.16402 2.73 1.20402 2.61C1.24402 2.49 1.30402 2.43 1.38402 2.43C1.44402 2.39 1.50402 2.36 1.56402 2.34C1.62402 2.3 1.66402 2.24 1.68402 2.16L1.71402 2.13C1.73402 2.13 1.75402 2.13 1.77402 2.13C1.79402 2.11 1.81402 2.1 1.83402 2.1C1.91402 2.1 1.97402 2.08 2.01402 2.04C2.07402 2 2.14402 1.99 2.22402 2.01C2.30402 2.03 2.38402 2.04 2.46402 2.04C2.54402 2.04 2.62402 2.05 2.70402 2.07C3.14402 2.15 3.45402 2.41 3.63402 2.85L3.81402 3.45C3.83402 3.65 3.92402 3.84 4.08402 4.02C4.20402 4.16 4.32402 4.31 4.44402 4.47C4.56402 4.63 4.69402 4.79 4.83402 4.95C5.35402 5.61 5.83402 6.35 6.27402 7.17C6.31402 7.25 6.35402 7.33 6.39402 7.41C6.43402 7.49 6.47402 7.57 6.51402 7.65L8.07402 10.8C8.19402 11.02 8.30402 11.25 8.40402 11.49C8.52402 11.71 8.65402 11.93 8.79402 12.15C8.83402 12.23 8.87402 12.31 8.91402 12.39C8.95402 12.45 8.98402 12.52 9.00402 12.6C9.10402 12.84 9.22402 13.08 9.36402 13.32C9.36402 13.32 9.36402 13.33 9.36402 13.35C9.38402 13.35 9.39402 13.34 9.39402 13.32C9.41402 13.32 9.42402 13.32 9.42402 13.32C9.44402 13.3 9.45402 13.29 9.45402 13.29L9.54402 12.24V11.94C9.56402 11.84 9.57402 11.74 9.57402 11.64C9.59402 11.52 9.61402 11.41 9.63402 11.31C9.65402 11.25 9.65402 11.18 9.63402 11.1C9.63402 11.02 9.64402 10.94 9.66402 10.86C9.66402 10.74 9.66402 10.62 9.66402 10.5C9.68402 10.36 9.70402 10.23 9.72402 10.11C9.74402 10.05 9.75402 9.99 9.75402 9.93C9.75402 9.85 9.75402 9.78 9.75402 9.72V8.91H9.72402V8.1C9.72402 8 9.72402 7.9 9.72402 7.8C9.72402 7.7 9.70402 7.6 9.66402 7.5C9.64402 7.44 9.63402 7.35 9.63402 7.23L9.66402 7.02C9.66402 6.96 9.65402 6.91 9.63402 6.87C9.63402 6.81 9.63402 6.75 9.63402 6.69C9.65402 6.61 9.64402 6.53 9.60402 6.45C9.56402 6.37 9.54402 6.29 9.54402 6.21C9.56402 6.13 9.57402 6.05 9.57402 5.97C9.57402 5.89 9.57402 5.81 9.57402 5.73C9.57402 5.65 9.53402 5.61 9.45402 5.61C9.43402 5.61 9.42402 5.59 9.42402 5.55C9.40402 5.49 9.40402 5.44 9.42402 5.4C9.46402 5.3 9.48402 5.19 9.48402 5.07C9.48402 4.95 9.48402 4.83 9.48402 4.71V3.84C9.46402 3.72 9.47402 3.6 9.51402 3.48C9.55402 3.36 9.60402 3.25 9.66402 3.15L9.78402 2.97C9.88402 2.87 9.99402 2.77 10.114 2.67C10.234 2.57 10.354 2.47 10.474 2.37C10.474 2.37 10.514 2.35 10.594 2.31C10.694 2.29 10.784 2.27 10.864 2.25C10.964 2.23 11.064 2.23 11.164 2.25C11.244 2.25 11.304 2.26 11.344 2.28C11.424 2.32 11.504 2.37 11.584 2.43C11.664 2.47 11.744 2.52 11.824 2.58C11.864 2.6 11.884 2.62 11.884 2.64C11.904 2.66 11.924 2.68 11.944 2.7C11.984 2.74 12.014 2.79 12.034 2.85C12.074 2.89 12.104 2.93 12.124 2.97C12.224 3.05 12.284 3.15 12.304 3.27C12.344 3.37 12.374 3.47 12.394 3.57V4.83C12.394 4.97 12.394 5.11 12.394 5.25C12.414 5.37 12.434 5.5 12.454 5.64C12.474 5.72 12.484 5.8 12.484 5.88C12.484 5.94 12.484 6.01 12.484 6.09C12.484 6.25 12.484 6.42 12.484 6.6C12.504 6.76 12.514 6.92 12.514 7.08V7.29C12.514 7.43 12.504 7.57 12.484 7.71C12.484 7.83 12.484 7.96 12.484 8.1V9.42C12.484 9.62 12.474 9.83 12.454 10.05C12.454 10.25 12.464 10.46 12.484 10.68C12.484 10.76 12.474 10.82 12.454 10.86C12.434 11.06 12.424 11.26 12.424 11.46C12.424 11.64 12.414 11.83 12.394 12.03C12.394 12.11 12.394 12.2 12.394 12.3C12.394 12.4 12.384 12.5 12.364 12.6C12.344 12.68 12.334 12.76 12.334 12.84C12.354 12.92 12.364 13 12.364 13.08C12.404 13.26 12.414 13.44 12.394 13.62C12.394 13.8 12.384 13.98 12.364 14.16C12.344 14.48 12.324 14.81 12.304 15.15C12.304 15.47 12.324 15.8 12.364 16.14C12.364 16.22 12.364 16.31 12.364 16.41C12.384 16.51 12.394 16.61 12.394 16.71C12.374 17.01 12.384 17.3 12.424 17.58C12.484 17.86 12.544 18.14 12.604 18.42C12.644 18.62 12.684 18.82 12.724 19.02C12.764 19.2 12.794 19.4 12.814 19.62C12.814 19.7 12.804 19.75 12.784 19.77C12.764 19.81 12.744 19.86 12.724 19.92C12.704 19.96 12.694 20 12.694 20.04C12.674 20.2 12.614 20.35 12.514 20.49C12.434 20.63 12.344 20.77 12.244 20.91C11.984 21.25 11.624 21.37 11.164 21.27ZM22.4914 21.6C22.2914 21.58 22.0914 21.55 21.8914 21.51C21.7114 21.49 21.5314 21.44 21.3514 21.36L20.6014 21.09C20.3414 20.99 20.1014 20.88 19.8814 20.76C19.6614 20.62 19.4414 20.48 19.2214 20.34C19.1214 20.24 19.0214 20.15 18.9214 20.07C18.8214 19.97 18.7214 19.88 18.6214 19.8C18.4614 19.64 18.3014 19.48 18.1414 19.32C17.9814 19.14 17.8314 18.95 17.6914 18.75L16.9714 17.64C16.7914 17.36 16.6314 17.07 16.4914 16.77C16.3514 16.45 16.2314 16.13 16.1314 15.81C15.9114 15.21 15.8014 14.62 15.8014 14.04V13.56C15.8014 13.06 15.8314 12.57 15.8914 12.09C15.9314 11.69 16.0214 11.33 16.1614 11.01C16.2414 10.81 16.3114 10.61 16.3714 10.41C16.4314 10.21 16.5014 10.02 16.5814 9.84L16.6714 9.63C16.7114 9.37 16.8014 9.14 16.9414 8.94C17.0814 8.72 17.2014 8.51 17.3014 8.31C17.3814 8.15 17.4714 8.01 17.5714 7.89C17.6714 7.75 17.7614 7.61 17.8414 7.47C17.8814 7.41 17.9314 7.36 17.9914 7.32C18.0514 7.26 18.1014 7.2 18.1414 7.14C18.1814 7.1 18.2114 7.05 18.2314 6.99C18.2714 6.91 18.3014 6.84 18.3214 6.78C18.3614 6.72 18.4314 6.64 18.5314 6.54C18.6514 6.48 18.7614 6.34 18.8614 6.12C18.9014 6.04 18.9414 5.98 18.9814 5.94C19.1014 5.84 19.2014 5.72 19.2814 5.58C19.3814 5.44 19.4914 5.31 19.6114 5.19C19.6914 5.11 19.7314 5 19.7314 4.86C19.7314 4.76 19.7314 4.67 19.7314 4.59C19.7514 4.49 19.7514 4.4 19.7314 4.32C19.7114 4.22 19.7414 4.13 19.8214 4.05C19.8614 4.01 19.8914 3.96 19.9114 3.9C19.9314 3.84 19.9514 3.78 19.9714 3.72C20.0314 3.52 20.1914 3.35 20.4514 3.21C20.4914 3.17 20.5414 3.15 20.6014 3.15C20.6814 3.13 20.7514 3.11 20.8114 3.09C20.9514 3.03 21.1114 3.02 21.2914 3.06C21.3714 3.08 21.4414 3.09 21.5014 3.09C21.5614 3.07 21.6214 3.05 21.6814 3.03C21.7614 2.99 21.8314 2.96 21.8914 2.94C21.9714 2.92 22.0414 2.9 22.1014 2.88C22.3814 2.78 22.6714 2.79 22.9714 2.91C23.2914 3.03 23.5214 3.24 23.6614 3.54C23.7014 3.64 23.7414 3.74 23.7814 3.84C23.8214 3.94 23.8514 4.04 23.8714 4.14C23.9114 4.36 23.9014 4.55 23.8414 4.71C23.8014 4.79 23.7814 4.84 23.7814 4.86C23.7614 4.94 23.7814 5.01 23.8414 5.07C23.8814 5.13 23.9314 5.18 23.9914 5.22C24.2114 5.42 24.4214 5.62 24.6214 5.82C24.8214 6 25.0114 6.2 25.1914 6.42C25.3514 6.58 25.4814 6.75 25.5814 6.93C25.7014 7.09 25.8114 7.27 25.9114 7.47C25.9514 7.57 26.0014 7.68 26.0614 7.8C26.1214 7.9 26.1814 8 26.2414 8.1C26.3414 8.28 26.4214 8.47 26.4814 8.67C26.5614 8.87 26.6414 9.07 26.7214 9.27V9.3C26.7614 9.44 26.7914 9.59 26.8114 9.75C26.8514 9.89 26.9114 10.04 26.9914 10.2C27.0514 10.34 27.1014 10.49 27.1414 10.65C27.1814 10.79 27.2214 10.94 27.2614 11.1C27.3014 11.28 27.3414 11.46 27.3814 11.64C27.4414 11.82 27.4814 12 27.5014 12.18C27.5214 12.26 27.5414 12.34 27.5614 12.42C27.5814 12.48 27.6014 12.55 27.6214 12.63C27.6614 12.81 27.7014 12.99 27.7414 13.17C27.7814 13.35 27.8114 13.53 27.8314 13.71L27.9214 13.92C27.9614 14.04 28.0014 14.2 28.0414 14.4C28.1014 14.66 28.1314 14.92 28.1314 15.18C28.1514 15.44 28.1514 15.71 28.1314 15.99C28.1314 16.13 28.1214 16.24 28.1014 16.32C27.9814 16.74 27.8314 17.17 27.6514 17.61C27.5714 17.75 27.4914 17.89 27.4114 18.03C27.3314 18.15 27.2514 18.28 27.1714 18.42L26.9014 18.84C26.8014 19.02 26.6914 19.18 26.5714 19.32C26.3714 19.64 26.1314 19.92 25.8514 20.16C25.5714 20.4 25.2714 20.63 24.9514 20.85C24.2514 21.39 23.4314 21.64 22.4914 21.6ZM22.3714 18.63C22.7914 18.63 23.1514 18.51 23.4514 18.27C23.5514 18.17 23.6514 18.08 23.7514 18C23.8714 17.9 23.9714 17.8 24.0514 17.7C24.4314 17.28 24.7314 16.84 24.9514 16.38L25.0414 16.08C25.0814 15.72 25.0814 15.36 25.0414 15L24.8614 14.01C24.8014 13.75 24.7514 13.5 24.7114 13.26C24.6714 13 24.6114 12.75 24.5314 12.51C24.4714 12.37 24.4514 12.26 24.4714 12.18C24.4914 12.08 24.4914 11.98 24.4714 11.88C24.4514 11.78 24.4214 11.68 24.3814 11.58C24.3214 11.32 24.2514 11.06 24.1714 10.8C24.0914 10.54 24.0114 10.28 23.9314 10.02C23.9114 9.96 23.8914 9.9 23.8714 9.84C23.8514 9.78 23.8314 9.72 23.8114 9.66C23.6714 9.38 23.5214 9.11 23.3614 8.85C23.2014 8.59 23.0214 8.35 22.8214 8.13C22.7214 8.01 22.6114 7.9 22.4914 7.8C22.3714 7.68 22.2514 7.57 22.1314 7.47C22.1114 7.43 22.0814 7.41 22.0414 7.41C22.0214 7.39 21.9914 7.37 21.9514 7.35C21.8914 7.27 21.8114 7.28 21.7114 7.38C21.6114 7.48 21.5014 7.59 21.3814 7.71C21.2814 7.83 21.1814 7.95 21.0814 8.07C20.9814 8.21 20.8714 8.35 20.7514 8.49C20.6514 8.63 20.5514 8.77 20.4514 8.91C20.3114 9.09 20.1814 9.27 20.0614 9.45C19.9414 9.63 19.8214 9.81 19.7014 9.99C19.2814 10.67 18.9514 11.42 18.7114 12.24C18.6714 12.36 18.6514 12.45 18.6514 12.51C18.6314 12.65 18.6114 12.79 18.5914 12.93C18.5914 13.07 18.5914 13.22 18.5914 13.38V13.62C18.6114 13.68 18.6214 13.74 18.6214 13.8C18.6214 13.86 18.6314 13.92 18.6514 13.98C18.6514 14.22 18.7114 14.48 18.8314 14.76C18.9914 15.16 19.1714 15.55 19.3714 15.93C19.5714 16.31 19.8014 16.67 20.0614 17.01C20.1214 17.09 20.1814 17.17 20.2414 17.25C20.3214 17.33 20.3914 17.41 20.4514 17.49C20.6314 17.69 20.8214 17.87 21.0214 18.03C21.2414 18.19 21.4614 18.33 21.6814 18.45C21.9214 18.57 22.1514 18.63 22.3714 18.63ZM37.7888 21.9C37.4088 21.86 37.0988 21.72 36.8588 21.48C36.5388 21.16 36.3188 20.77 36.1988 20.31C36.1188 19.91 35.9988 19.52 35.8388 19.14L35.3888 17.94C35.2688 17.62 35.1488 17.31 35.0288 17.01C34.9088 16.71 34.7888 16.41 34.6688 16.11L34.4888 15.6C34.4488 15.52 34.4088 15.45 34.3688 15.39C34.3488 15.31 34.3188 15.23 34.2788 15.15C34.2388 15.05 34.1888 14.95 34.1288 14.85C34.0888 14.73 34.0388 14.62 33.9788 14.52C33.8988 14.3 33.8188 14.08 33.7388 13.86C33.6588 13.64 33.5688 13.42 33.4688 13.2C33.4488 13.16 33.4288 13.12 33.4088 13.08C33.3888 13.02 33.3588 12.96 33.3188 12.9C33.1988 12.62 33.0688 12.34 32.9288 12.06C32.8088 11.76 32.6788 11.46 32.5388 11.16L31.6388 9.09C31.4988 8.75 31.3488 8.41 31.1888 8.07C31.0488 7.73 30.9088 7.39 30.7688 7.05L30.5888 6.54C30.5688 6.48 30.5488 6.42 30.5288 6.36C30.5088 6.3 30.4788 6.24 30.4388 6.18C30.4388 6.14 30.4288 6.1 30.4088 6.06C30.3888 6.02 30.3788 5.99 30.3788 5.97C30.3388 5.81 30.2788 5.66 30.1988 5.52C30.1388 5.36 30.0688 5.21 29.9888 5.07L29.8388 4.74C29.8188 4.68 29.7888 4.62 29.7488 4.56C29.7288 4.5 29.6988 4.44 29.6588 4.38C29.6788 4.28 29.6888 4.18 29.6888 4.08C29.6888 3.98 29.6988 3.89 29.7188 3.81C29.7788 3.53 29.8188 3.38 29.8388 3.36C29.8588 3.32 29.9888 3.21 30.2288 3.03C30.2488 3.01 30.2988 2.98 30.3788 2.94C30.5188 2.84 30.6488 2.8 30.7688 2.82C30.8488 2.82 30.9188 2.81 30.9788 2.79C31.0588 2.75 31.1388 2.74 31.2188 2.76C31.3388 2.76 31.4188 2.77 31.4588 2.79C31.5788 2.83 31.6488 2.85 31.6688 2.85C31.8488 2.89 31.9688 2.97 32.0288 3.09C32.0488 3.11 32.0688 3.13 32.0888 3.15C32.1088 3.17 32.1288 3.19 32.1488 3.21C32.3688 3.39 32.4988 3.62 32.5388 3.9C32.5788 4.04 32.6188 4.19 32.6588 4.35C32.7188 4.49 32.7788 4.63 32.8388 4.77C32.9388 4.99 33.0388 5.22 33.1388 5.46C33.2388 5.7 33.3288 5.93 33.4088 6.15C33.5288 6.41 33.6388 6.67 33.7388 6.93C33.8588 7.19 33.9788 7.46 34.0988 7.74C34.1988 7.96 34.2988 8.19 34.3988 8.43C34.4988 8.65 34.5888 8.87 34.6688 9.09C34.7488 9.25 34.8188 9.42 34.8788 9.6C34.9588 9.76 35.0288 9.93 35.0888 10.11L35.1188 10.23C35.2788 10.55 35.4188 10.88 35.5388 11.22C35.6788 11.54 35.8188 11.87 35.9588 12.21C35.9988 12.27 36.0288 12.33 36.0488 12.39C36.0688 12.45 36.0888 12.51 36.1088 12.57C36.1888 12.65 36.2488 12.75 36.2888 12.87C36.3488 12.99 36.3988 13.1 36.4388 13.2C36.4988 13.36 36.5588 13.52 36.6188 13.68C36.6788 13.82 36.7488 13.97 36.8288 14.13C36.8688 14.27 36.9188 14.4 36.9788 14.52C37.0588 14.62 37.1388 14.73 37.2188 14.85C37.2588 14.87 37.2988 14.86 37.3388 14.82C37.4188 14.66 37.4888 14.51 37.5488 14.37C37.6288 14.21 37.6988 14.05 37.7588 13.89C37.8188 13.71 37.8788 13.54 37.9388 13.38C38.0188 13.2 38.0888 13.02 38.1488 12.84C38.1488 12.82 38.1488 12.81 38.1488 12.81C38.1688 12.81 38.1788 12.8 38.1788 12.78C38.2788 12.48 38.3788 12.18 38.4788 11.88C38.5788 11.58 38.6688 11.28 38.7488 10.98L39.1988 9.3C39.3188 8.84 39.4388 8.38 39.5588 7.92C39.6788 7.46 39.8088 7.01 39.9488 6.57C39.9688 6.47 39.9888 6.38 40.0088 6.3C40.0488 6.22 40.0788 6.14 40.0988 6.06L40.7288 4.5C40.7688 4.4 40.8088 4.32 40.8488 4.26C40.8888 4.18 40.9188 4.1 40.9388 4.02C41.0388 3.86 41.1188 3.69 41.1788 3.51C41.2388 3.33 41.2988 3.15 41.3588 2.97C41.3788 2.89 41.3988 2.82 41.4188 2.76C41.4388 2.68 41.4388 2.6 41.4188 2.52C41.3988 2.46 41.4088 2.37 41.4488 2.25L41.6288 1.83C41.7488 1.51 41.9588 1.29 42.2588 1.17C42.3588 1.11 42.4588 1.06 42.5588 1.02C42.6588 0.94 42.7588 0.919999 42.8588 0.959999C42.9988 0.979998 43.1288 0.999999 43.2488 1.02C43.3888 1.04 43.5188 1.07 43.6388 1.11C43.7988 1.17 43.9188 1.27 43.9988 1.41C44.0388 1.45 44.0688 1.49 44.0888 1.53C44.1088 1.57 44.1288 1.61 44.1488 1.65L44.2388 1.89C44.2788 1.93 44.3088 1.97 44.3288 2.01C44.3688 2.03 44.3888 2.07 44.3888 2.13C44.3888 2.21 44.3888 2.29 44.3888 2.37C44.4088 2.43 44.4188 2.51 44.4188 2.61C44.3188 3.03 44.1988 3.41 44.0588 3.75C44.0388 3.83 44.0088 3.92 43.9688 4.02C43.9288 4.1 43.8888 4.19 43.8488 4.29C43.8288 4.31 43.8188 4.34 43.8188 4.38C43.6788 4.64 43.5588 4.91 43.4588 5.19C43.3788 5.45 43.2788 5.72 43.1588 6C43.0788 6.2 42.9988 6.4 42.9188 6.6C42.8588 6.78 42.7888 6.97 42.7088 7.17C42.6288 7.37 42.5588 7.57 42.4988 7.77C42.4588 7.97 42.4188 8.17 42.3788 8.37C42.3588 8.45 42.3388 8.53 42.3188 8.61C42.2988 8.67 42.2788 8.73 42.2588 8.79C42.1988 9.05 42.1388 9.31 42.0788 9.57C42.0188 9.83 41.9488 10.09 41.8688 10.35C41.8288 10.55 41.7788 10.74 41.7188 10.92C41.6588 11.1 41.6088 11.28 41.5688 11.46C41.5688 11.48 41.5588 11.5 41.5388 11.52C41.5388 11.54 41.5388 11.56 41.5388 11.58C41.4588 11.7 41.3988 11.82 41.3588 11.94C41.3388 12.06 41.3088 12.18 41.2688 12.3C41.2288 12.42 41.1788 12.55 41.1188 12.69C41.0788 12.81 41.0288 12.93 40.9688 13.05C40.8288 13.31 40.7488 13.58 40.7288 13.86C40.7088 13.9 40.6888 13.95 40.6688 14.01C40.6688 14.07 40.6488 14.13 40.6088 14.19L40.2488 15.09C40.2088 15.17 40.1788 15.24 40.1588 15.3C40.0788 15.6 39.9988 15.91 39.9188 16.23C39.8388 16.53 39.7488 16.83 39.6488 17.13C39.5688 17.41 39.5088 17.7 39.4688 18C39.4288 18.3 39.3888 18.59 39.3488 18.87C39.3088 19.21 39.3188 19.51 39.3788 19.77C39.3988 19.87 39.4088 19.98 39.4088 20.1C39.4088 20.22 39.4088 20.33 39.4088 20.43C39.4288 20.63 39.3788 20.81 39.2588 20.97C39.2188 21.01 39.1788 21.09 39.1388 21.21C38.9388 21.59 38.6188 21.81 38.1788 21.87C38.1188 21.87 38.0588 21.87 37.9988 21.87C37.9388 21.89 37.8688 21.9 37.7888 21.9ZM52.6964 21.6C52.4964 21.58 52.2964 21.55 52.0964 21.51C51.9164 21.49 51.7364 21.44 51.5564 21.36L50.8064 21.09C50.5464 20.99 50.3064 20.88 50.0864 20.76C49.8664 20.62 49.6464 20.48 49.4264 20.34C49.3264 20.24 49.2264 20.15 49.1264 20.07C49.0264 19.97 48.9264 19.88 48.8264 19.8C48.6664 19.64 48.5064 19.48 48.3464 19.32C48.1864 19.14 48.0364 18.95 47.8964 18.75L47.1764 17.64C46.9964 17.36 46.8364 17.07 46.6964 16.77C46.5564 16.45 46.4364 16.13 46.3364 15.81C46.1164 15.21 46.0064 14.62 46.0064 14.04V13.56C46.0064 13.06 46.0364 12.57 46.0964 12.09C46.1364 11.69 46.2264 11.33 46.3664 11.01C46.4464 10.81 46.5164 10.61 46.5764 10.41C46.6364 10.21 46.7064 10.02 46.7864 9.84L46.8764 9.63C46.9164 9.37 47.0064 9.14 47.1464 8.94C47.2864 8.72 47.4064 8.51 47.5064 8.31C47.5864 8.15 47.6764 8.01 47.7764 7.89C47.8764 7.75 47.9664 7.61 48.0464 7.47C48.0864 7.41 48.1364 7.36 48.1964 7.32C48.2564 7.26 48.3064 7.2 48.3464 7.14C48.3864 7.1 48.4164 7.05 48.4364 6.99C48.4764 6.91 48.5064 6.84 48.5264 6.78C48.5664 6.72 48.6364 6.64 48.7364 6.54C48.8564 6.48 48.9664 6.34 49.0664 6.12C49.1064 6.04 49.1464 5.98 49.1864 5.94C49.3064 5.84 49.4064 5.72 49.4864 5.58C49.5864 5.44 49.6964 5.31 49.8164 5.19C49.8964 5.11 49.9364 5 49.9364 4.86C49.9364 4.76 49.9364 4.67 49.9364 4.59C49.9564 4.49 49.9564 4.4 49.9364 4.32C49.9164 4.22 49.9464 4.13 50.0264 4.05C50.0664 4.01 50.0964 3.96 50.1164 3.9C50.1364 3.84 50.1564 3.78 50.1764 3.72C50.2364 3.52 50.3964 3.35 50.6564 3.21C50.6964 3.17 50.7464 3.15 50.8064 3.15C50.8864 3.13 50.9564 3.11 51.0164 3.09C51.1564 3.03 51.3164 3.02 51.4964 3.06C51.5764 3.08 51.6464 3.09 51.7064 3.09C51.7664 3.07 51.8264 3.05 51.8864 3.03C51.9664 2.99 52.0364 2.96 52.0964 2.94C52.1764 2.92 52.2464 2.9 52.3064 2.88C52.5864 2.78 52.8764 2.79 53.1764 2.91C53.4964 3.03 53.7264 3.24 53.8664 3.54C53.9064 3.64 53.9464 3.74 53.9864 3.84C54.0264 3.94 54.0564 4.04 54.0764 4.14C54.1164 4.36 54.1064 4.55 54.0464 4.71C54.0064 4.79 53.9864 4.84 53.9864 4.86C53.9664 4.94 53.9864 5.01 54.0464 5.07C54.0864 5.13 54.1364 5.18 54.1964 5.22C54.4164 5.42 54.6264 5.62 54.8264 5.82C55.0264 6 55.2164 6.2 55.3964 6.42C55.5564 6.58 55.6864 6.75 55.7864 6.93C55.9064 7.09 56.0164 7.27 56.1164 7.47C56.1564 7.57 56.2064 7.68 56.2664 7.8C56.3264 7.9 56.3864 8 56.4464 8.1C56.5464 8.28 56.6264 8.47 56.6864 8.67C56.7664 8.87 56.8464 9.07 56.9264 9.27V9.3C56.9664 9.44 56.9964 9.59 57.0164 9.75C57.0564 9.89 57.1164 10.04 57.1964 10.2C57.2564 10.34 57.3064 10.49 57.3464 10.65C57.3864 10.79 57.4264 10.94 57.4664 11.1C57.5064 11.28 57.5464 11.46 57.5864 11.64C57.6464 11.82 57.6864 12 57.7064 12.18C57.7264 12.26 57.7464 12.34 57.7664 12.42C57.7864 12.48 57.8064 12.55 57.8264 12.63C57.8664 12.81 57.9064 12.99 57.9464 13.17C57.9864 13.35 58.0164 13.53 58.0364 13.71L58.1264 13.92C58.1664 14.04 58.2064 14.2 58.2464 14.4C58.3064 14.66 58.3364 14.92 58.3364 15.18C58.3564 15.44 58.3564 15.71 58.3364 15.99C58.3364 16.13 58.3264 16.24 58.3064 16.32C58.1864 16.74 58.0364 17.17 57.8564 17.61C57.7764 17.75 57.6964 17.89 57.6164 18.03C57.5364 18.15 57.4564 18.28 57.3764 18.42L57.1064 18.84C57.0064 19.02 56.8964 19.18 56.7764 19.32C56.5764 19.64 56.3364 19.92 56.0564 20.16C55.7764 20.4 55.4764 20.63 55.1564 20.85C54.4564 21.39 53.6364 21.64 52.6964 21.6ZM52.5764 18.63C52.9964 18.63 53.3564 18.51 53.6564 18.27C53.7564 18.17 53.8564 18.08 53.9564 18C54.0764 17.9 54.1764 17.8 54.2564 17.7C54.6364 17.28 54.9364 16.84 55.1564 16.38L55.2464 16.08C55.2864 15.72 55.2864 15.36 55.2464 15L55.0664 14.01C55.0064 13.75 54.9564 13.5 54.9164 13.26C54.8764 13 54.8164 12.75 54.7364 12.51C54.6764 12.37 54.6564 12.26 54.6764 12.18C54.6964 12.08 54.6964 11.98 54.6764 11.88C54.6564 11.78 54.6264 11.68 54.5864 11.58C54.5264 11.32 54.4564 11.06 54.3764 10.8C54.2964 10.54 54.2164 10.28 54.1364 10.02C54.1164 9.96 54.0964 9.9 54.0764 9.84C54.0564 9.78 54.0364 9.72 54.0164 9.66C53.8764 9.38 53.7264 9.11 53.5664 8.85C53.4064 8.59 53.2264 8.35 53.0264 8.13C52.9264 8.01 52.8164 7.9 52.6964 7.8C52.5764 7.68 52.4564 7.57 52.3364 7.47C52.3164 7.43 52.2864 7.41 52.2464 7.41C52.2264 7.39 52.1964 7.37 52.1564 7.35C52.0964 7.27 52.0164 7.28 51.9164 7.38C51.8164 7.48 51.7064 7.59 51.5864 7.71C51.4864 7.83 51.3864 7.95 51.2864 8.07C51.1864 8.21 51.0764 8.35 50.9564 8.49C50.8564 8.63 50.7564 8.77 50.6564 8.91C50.5164 9.09 50.3864 9.27 50.2664 9.45C50.1464 9.63 50.0264 9.81 49.9064 9.99C49.4864 10.67 49.1564 11.42 48.9164 12.24C48.8764 12.36 48.8564 12.45 48.8564 12.51C48.8364 12.65 48.8164 12.79 48.7964 12.93C48.7964 13.07 48.7964 13.22 48.7964 13.38V13.62C48.8164 13.68 48.8264 13.74 48.8264 13.8C48.8264 13.86 48.8364 13.92 48.8564 13.98C48.8564 14.22 48.9164 14.48 49.0364 14.76C49.1964 15.16 49.3764 15.55 49.5764 15.93C49.7764 16.31 50.0064 16.67 50.2664 17.01C50.3264 17.09 50.3864 17.17 50.4464 17.25C50.5264 17.33 50.5964 17.41 50.6564 17.49C50.8364 17.69 51.0264 17.87 51.2264 18.03C51.4464 18.19 51.6664 18.33 51.8864 18.45C52.1264 18.57 52.3564 18.63 52.5764 18.63ZM77.8386 21.15C77.7586 21.15 77.6886 21.15 77.6286 21.15C77.5686 21.15 77.4986 21.14 77.4186 21.12C77.3786 21.12 77.3286 21.11 77.2686 21.09C77.2286 21.09 77.1886 21.09 77.1486 21.09C76.8286 21.07 76.5286 21.01 76.2486 20.91C75.9686 20.81 75.6886 20.69 75.4086 20.55C75.3886 20.55 75.3686 20.55 75.3486 20.55C75.3486 20.53 75.3386 20.52 75.3186 20.52C75.1186 20.42 74.9386 20.3 74.7786 20.16C74.6386 20.02 74.4986 19.88 74.3586 19.74C74.1986 19.54 74.0886 19.35 74.0286 19.17C73.9486 19.01 73.8486 18.84 73.7286 18.66C73.5286 18.44 73.3786 18.16 73.2786 17.82C73.2186 17.66 73.1586 17.5 73.0986 17.34C73.0386 17.18 72.9886 17.01 72.9486 16.83C72.9286 16.77 72.9086 16.71 72.8886 16.65C72.8686 16.57 72.8386 16.49 72.7986 16.41C72.7586 16.31 72.7186 16.2 72.6786 16.08C72.6586 15.96 72.6286 15.84 72.5886 15.72C72.5686 15.64 72.5386 15.51 72.4986 15.33C72.4786 15.13 72.4686 15.01 72.4686 14.97V13.68C72.4886 13.56 72.5086 13.45 72.5286 13.35C72.5486 13.23 72.5686 13.11 72.5886 12.99L72.6186 12.96C72.6186 12.98 72.6186 12.99 72.6186 12.99C72.6386 12.99 72.6486 13 72.6486 13.02C72.6686 13.02 72.6786 13.03 72.6786 13.05C72.6986 13.07 72.7086 13.06 72.7086 13.02C72.7086 12.9 72.6986 12.8 72.6786 12.72C72.6786 12.68 72.6686 12.64 72.6486 12.6C72.6486 12.56 72.6886 12.53 72.7686 12.51C72.7886 12.51 72.7986 12.48 72.7986 12.42L73.0686 11.1C73.0886 11 73.1086 10.91 73.1286 10.83C73.1486 10.73 73.1686 10.64 73.1886 10.56L73.2486 10.23C73.2286 10.27 73.2386 10.2 73.2786 10.02C73.3386 9.84 73.3786 9.72 73.3986 9.66C73.4386 9.56 73.4886 9.46 73.5486 9.36C73.6286 9.26 73.6786 9.19 73.6986 9.15C73.8586 8.97 74.0086 8.72 74.1486 8.4L74.7186 7.5C74.7986 7.42 74.8386 7.32 74.8386 7.2C74.8186 7.1 74.8486 6.99 74.9286 6.87C74.9886 6.75 75.0486 6.63 75.1086 6.51C75.1886 6.39 75.2686 6.27 75.3486 6.15C75.4486 5.99 75.5586 5.83 75.6786 5.67C75.8186 5.49 75.9486 5.33 76.0686 5.19C76.1086 5.13 76.1486 5.07 76.1886 5.01C76.2486 4.95 76.3186 4.91 76.3986 4.89C76.4386 4.89 76.4686 4.88 76.4886 4.86C76.5086 4.84 76.5286 4.82 76.5486 4.8C76.9486 4.38 77.3986 3.99 77.8986 3.63C77.9386 3.59 77.9786 3.55 78.0186 3.51C78.0586 3.47 78.0986 3.44 78.1386 3.42C78.2386 3.36 78.3486 3.33 78.4686 3.33C78.5686 3.33 78.6486 3.32 78.7086 3.3C78.7686 3.3 78.8586 3.28 78.9786 3.24C79.1186 3.2 79.2286 3.22 79.3086 3.3C79.4286 3.42 79.6286 3.46 79.9086 3.42C80.0886 3.4 80.2386 3.5 80.3586 3.72C80.3986 3.78 80.4286 3.84 80.4486 3.9C80.4886 3.96 80.5386 4.01 80.5986 4.05C80.6586 4.17 80.7386 4.28 80.8386 4.38C80.9586 4.48 81.0586 4.58 81.1386 4.68L81.5286 5.22C81.5686 5.28 81.6086 5.35 81.6486 5.43C81.7086 5.49 81.7586 5.55 81.7986 5.61C81.8986 5.71 81.9586 5.81 81.9786 5.91C82.0186 6.01 82.0486 6.08 82.0686 6.12C82.1086 6.14 82.1386 6.23 82.1586 6.39C82.1786 6.47 82.1786 6.52 82.1586 6.54C82.1586 6.54 82.1986 6.54 82.2786 6.54C82.3586 6.54 82.3986 6.59 82.3986 6.69C82.3986 6.91 82.3586 7.1 82.2786 7.26C82.2386 7.32 82.1986 7.35 82.1586 7.35C82.1386 7.35 82.1086 7.37 82.0686 7.41C82.0086 7.51 81.9386 7.61 81.8586 7.71C81.7986 7.81 81.7286 7.92 81.6486 8.04C81.5886 8.14 81.5086 8.23 81.4086 8.31C81.3286 8.39 81.2386 8.47 81.1386 8.55C80.9786 8.71 80.7886 8.77 80.5686 8.73C80.3886 8.73 80.2586 8.72 80.1786 8.7C80.1186 8.68 80.0586 8.66 79.9986 8.64C79.9586 8.6 79.9086 8.57 79.8486 8.55C79.8086 8.55 79.7686 8.53 79.7286 8.49C79.7086 8.45 79.6886 8.42 79.6686 8.4C79.6486 8.36 79.6186 8.33 79.5786 8.31C79.4786 8.25 79.3986 8.18 79.3386 8.1C79.2786 8 79.2286 7.91 79.1886 7.83C79.1686 7.77 79.1586 7.71 79.1586 7.65C79.1586 7.59 79.1586 7.54 79.1586 7.5C79.1386 7.38 79.1186 7.26 79.0986 7.14C79.0986 7.02 79.0786 6.9 79.0386 6.78C79.0386 6.74 78.9886 6.72 78.8886 6.72C78.7686 6.8 78.6486 6.88 78.5286 6.96C78.4086 7.04 78.2986 7.14 78.1986 7.26L77.2686 8.37C77.2086 8.43 77.1486 8.5 77.0886 8.58C77.0486 8.64 77.0086 8.7 76.9686 8.76C76.8886 8.86 76.8086 8.97 76.7286 9.09C76.6686 9.19 76.5886 9.29 76.4886 9.39C76.4486 9.43 76.4186 9.47 76.3986 9.51C76.3386 9.65 76.2686 9.78 76.1886 9.9C76.1286 10.02 76.0686 10.16 76.0086 10.32C75.9086 10.52 75.8186 10.74 75.7386 10.98C75.6786 11.2 75.6286 11.43 75.5886 11.67C75.5686 11.97 75.5086 12.27 75.4086 12.57C75.3886 12.67 75.3686 12.78 75.3486 12.9C75.3286 13.02 75.3086 13.14 75.2886 13.26C75.2686 13.44 75.2386 13.62 75.1986 13.8C75.1586 13.98 75.1486 14.17 75.1686 14.37C75.2086 14.77 75.2686 15.15 75.3486 15.51C75.4086 15.71 75.4586 15.91 75.4986 16.11C75.5586 16.29 75.6186 16.48 75.6786 16.68C75.6986 16.74 75.7186 16.8 75.7386 16.86C75.7586 16.92 75.7786 16.98 75.7986 17.04C75.9186 17.32 76.1386 17.54 76.4586 17.7C76.5786 17.76 76.7086 17.79 76.8486 17.79C76.9686 17.79 77.0886 17.8 77.2086 17.82C77.3286 17.82 77.4486 17.81 77.5686 17.79C78.1286 17.73 78.6486 17.64 79.1286 17.52C79.3486 17.48 79.5586 17.42 79.7586 17.34C79.9586 17.26 80.1586 17.18 80.3586 17.1C80.5186 17.04 80.6686 16.95 80.8086 16.83C80.9686 16.71 81.1286 16.59 81.2886 16.47C81.4686 16.33 81.6386 16.19 81.7986 16.05C81.9586 15.91 82.1186 15.77 82.2786 15.63C82.4386 15.49 82.5886 15.34 82.7286 15.18C82.7886 15.12 82.8786 15.05 82.9986 14.97C83.0586 14.93 83.1186 14.89 83.1786 14.85C83.2386 14.81 83.2886 14.77 83.3286 14.73C83.4286 14.67 83.5186 14.61 83.5986 14.55C83.6986 14.49 83.8086 14.46 83.9286 14.46C83.9886 14.42 84.0486 14.4 84.1086 14.4C84.1886 14.38 84.2586 14.36 84.3186 14.34C84.4986 14.28 84.6586 14.28 84.7986 14.34C84.8586 14.36 84.9186 14.38 84.9786 14.4C85.0386 14.42 85.0986 14.45 85.1586 14.49C85.3186 14.59 85.4686 14.75 85.6086 14.97C85.7086 15.21 85.7586 15.42 85.7586 15.6V15.78C85.7586 16.04 85.6586 16.27 85.4586 16.47C85.2386 16.75 85.0086 16.97 84.7686 17.13C84.6286 17.21 84.4886 17.32 84.3486 17.46C84.1486 17.62 83.9386 17.79 83.7186 17.97C83.5186 18.15 83.3086 18.32 83.0886 18.48L82.9686 18.6C82.9086 18.64 82.8486 18.69 82.7886 18.75C82.7286 18.81 82.6586 18.86 82.5786 18.9C82.4386 19.04 82.2786 19.17 82.0986 19.29C81.9186 19.39 81.7386 19.49 81.5586 19.59C81.3786 19.67 81.2086 19.79 81.0486 19.95C80.9886 20.01 80.9286 20.07 80.8686 20.13C80.8086 20.19 80.7386 20.24 80.6586 20.28C80.3986 20.42 80.0986 20.56 79.7586 20.7C79.7386 20.72 79.7086 20.74 79.6686 20.76C79.6286 20.78 79.5886 20.8 79.5486 20.82C79.4286 20.88 79.2986 20.93 79.1586 20.97C79.0386 20.99 78.9186 21.01 78.7986 21.03C78.6386 21.05 78.4786 21.06 78.3186 21.06C78.1586 21.08 77.9986 21.11 77.8386 21.15ZM95.0597 21.6C94.8597 21.58 94.6597 21.55 94.4597 21.51C94.2797 21.49 94.0997 21.44 93.9197 21.36L93.1697 21.09C92.9097 20.99 92.6697 20.88 92.4497 20.76C92.2297 20.62 92.0097 20.48 91.7897 20.34C91.6897 20.24 91.5897 20.15 91.4897 20.07C91.3897 19.97 91.2897 19.88 91.1897 19.8C91.0297 19.64 90.8697 19.48 90.7097 19.32C90.5497 19.14 90.3997 18.95 90.2597 18.75L89.5397 17.64C89.3597 17.36 89.1997 17.07 89.0597 16.77C88.9197 16.45 88.7997 16.13 88.6997 15.81C88.4797 15.21 88.3697 14.62 88.3697 14.04V13.56C88.3697 13.06 88.3997 12.57 88.4597 12.09C88.4997 11.69 88.5897 11.33 88.7297 11.01C88.8097 10.81 88.8797 10.61 88.9397 10.41C88.9997 10.21 89.0697 10.02 89.1497 9.84L89.2397 9.63C89.2797 9.37 89.3697 9.14 89.5097 8.94C89.6497 8.72 89.7697 8.51 89.8697 8.31C89.9497 8.15 90.0397 8.01 90.1397 7.89C90.2397 7.75 90.3297 7.61 90.4097 7.47C90.4497 7.41 90.4997 7.36 90.5597 7.32C90.6197 7.26 90.6697 7.2 90.7097 7.14C90.7497 7.1 90.7797 7.05 90.7997 6.99C90.8397 6.91 90.8697 6.84 90.8897 6.78C90.9297 6.72 90.9997 6.64 91.0997 6.54C91.2197 6.48 91.3297 6.34 91.4297 6.12C91.4697 6.04 91.5097 5.98 91.5497 5.94C91.6697 5.84 91.7697 5.72 91.8497 5.58C91.9497 5.44 92.0597 5.31 92.1797 5.19C92.2597 5.11 92.2997 5 92.2997 4.86C92.2997 4.76 92.2997 4.67 92.2997 4.59C92.3197 4.49 92.3197 4.4 92.2997 4.32C92.2797 4.22 92.3097 4.13 92.3897 4.05C92.4297 4.01 92.4597 3.96 92.4797 3.9C92.4997 3.84 92.5197 3.78 92.5397 3.72C92.5997 3.52 92.7597 3.35 93.0197 3.21C93.0597 3.17 93.1097 3.15 93.1697 3.15C93.2497 3.13 93.3197 3.11 93.3797 3.09C93.5197 3.03 93.6797 3.02 93.8597 3.06C93.9397 3.08 94.0097 3.09 94.0697 3.09C94.1297 3.07 94.1897 3.05 94.2497 3.03C94.3297 2.99 94.3997 2.96 94.4597 2.94C94.5397 2.92 94.6097 2.9 94.6697 2.88C94.9497 2.78 95.2397 2.79 95.5397 2.91C95.8597 3.03 96.0897 3.24 96.2297 3.54C96.2697 3.64 96.3097 3.74 96.3497 3.84C96.3897 3.94 96.4197 4.04 96.4397 4.14C96.4797 4.36 96.4697 4.55 96.4097 4.71C96.3697 4.79 96.3497 4.84 96.3497 4.86C96.3297 4.94 96.3497 5.01 96.4097 5.07C96.4497 5.13 96.4997 5.18 96.5597 5.22C96.7797 5.42 96.9897 5.62 97.1897 5.82C97.3897 6 97.5797 6.2 97.7597 6.42C97.9197 6.58 98.0497 6.75 98.1497 6.93C98.2697 7.09 98.3797 7.27 98.4797 7.47C98.5197 7.57 98.5697 7.68 98.6297 7.8C98.6897 7.9 98.7497 8 98.8097 8.1C98.9097 8.28 98.9897 8.47 99.0497 8.67C99.1297 8.87 99.2097 9.07 99.2897 9.27V9.3C99.3297 9.44 99.3597 9.59 99.3797 9.75C99.4197 9.89 99.4797 10.04 99.5597 10.2C99.6197 10.34 99.6697 10.49 99.7097 10.65C99.7497 10.79 99.7897 10.94 99.8297 11.1C99.8697 11.28 99.9097 11.46 99.9497 11.64C100.01 11.82 100.05 12 100.07 12.18C100.09 12.26 100.11 12.34 100.13 12.42C100.15 12.48 100.17 12.55 100.19 12.63C100.23 12.81 100.27 12.99 100.31 13.17C100.35 13.35 100.38 13.53 100.4 13.71L100.49 13.92C100.53 14.04 100.57 14.2 100.61 14.4C100.67 14.66 100.7 14.92 100.7 15.18C100.72 15.44 100.72 15.71 100.7 15.99C100.7 16.13 100.69 16.24 100.67 16.32C100.55 16.74 100.4 17.17 100.22 17.61C100.14 17.75 100.06 17.89 99.9797 18.03C99.8997 18.15 99.8197 18.28 99.7397 18.42L99.4697 18.84C99.3697 19.02 99.2597 19.18 99.1397 19.32C98.9397 19.64 98.6997 19.92 98.4197 20.16C98.1397 20.4 97.8397 20.63 97.5197 20.85C96.8197 21.39 95.9997 21.64 95.0597 21.6ZM94.9397 18.63C95.3597 18.63 95.7197 18.51 96.0197 18.27C96.1197 18.17 96.2197 18.08 96.3197 18C96.4397 17.9 96.5397 17.8 96.6197 17.7C96.9997 17.28 97.2997 16.84 97.5197 16.38L97.6097 16.08C97.6497 15.72 97.6497 15.36 97.6097 15L97.4297 14.01C97.3697 13.75 97.3197 13.5 97.2797 13.26C97.2397 13 97.1797 12.75 97.0997 12.51C97.0397 12.37 97.0197 12.26 97.0397 12.18C97.0597 12.08 97.0597 11.98 97.0397 11.88C97.0197 11.78 96.9897 11.68 96.9497 11.58C96.8897 11.32 96.8197 11.06 96.7397 10.8C96.6597 10.54 96.5797 10.28 96.4997 10.02C96.4797 9.96 96.4597 9.9 96.4397 9.84C96.4197 9.78 96.3997 9.72 96.3797 9.66C96.2397 9.38 96.0897 9.11 95.9297 8.85C95.7697 8.59 95.5897 8.35 95.3897 8.13C95.2897 8.01 95.1797 7.9 95.0597 7.8C94.9397 7.68 94.8197 7.57 94.6997 7.47C94.6797 7.43 94.6497 7.41 94.6097 7.41C94.5897 7.39 94.5597 7.37 94.5197 7.35C94.4597 7.27 94.3797 7.28 94.2797 7.38C94.1797 7.48 94.0697 7.59 93.9497 7.71C93.8497 7.83 93.7497 7.95 93.6497 8.07C93.5497 8.21 93.4397 8.35 93.3197 8.49C93.2197 8.63 93.1197 8.77 93.0197 8.91C92.8797 9.09 92.7497 9.27 92.6297 9.45C92.5097 9.63 92.3897 9.81 92.2697 9.99C91.8497 10.67 91.5197 11.42 91.2797 12.24C91.2397 12.36 91.2197 12.45 91.2197 12.51C91.1997 12.65 91.1797 12.79 91.1597 12.93C91.1597 13.07 91.1597 13.22 91.1597 13.38V13.62C91.1797 13.68 91.1897 13.74 91.1897 13.8C91.1897 13.86 91.1997 13.92 91.2197 13.98C91.2197 14.22 91.2797 14.48 91.3997 14.76C91.5597 15.16 91.7397 15.55 91.9397 15.93C92.1397 16.31 92.3697 16.67 92.6297 17.01C92.6897 17.09 92.7497 17.17 92.8097 17.25C92.8897 17.33 92.9597 17.41 93.0197 17.49C93.1997 17.69 93.3897 17.87 93.5897 18.03C93.8097 18.19 94.0297 18.33 94.2497 18.45C94.4897 18.57 94.7197 18.63 94.9397 18.63ZM115.803 22.77H115.653C115.593 22.77 115.523 22.76 115.443 22.74C115.383 22.74 115.313 22.74 115.233 22.74C115.093 22.76 114.973 22.73 114.873 22.65C114.793 22.59 114.703 22.51 114.603 22.41C114.563 22.37 114.513 22.32 114.453 22.26C114.413 22.22 114.363 22.19 114.303 22.17C114.263 22.15 114.223 22.1 114.183 22.02C114.163 21.98 114.133 21.93 114.093 21.87C114.073 21.81 114.043 21.75 114.003 21.69C113.963 21.59 113.953 21.48 113.973 21.36C113.993 21.3 114.003 21.24 114.003 21.18C114.023 21.14 114.033 21.09 114.033 21.03C114.033 20.83 114.033 20.64 114.033 20.46C114.033 20.26 114.013 20.06 113.973 19.86C113.953 19.8 113.943 19.74 113.943 19.68C113.943 19.6 113.933 19.52 113.913 19.44C113.913 19.3 113.903 19.19 113.883 19.11C113.883 19.01 113.873 18.92 113.853 18.84C113.853 18.76 113.853 18.68 113.853 18.6C113.833 18.46 113.823 18.33 113.823 18.21C113.823 18.09 113.803 17.96 113.763 17.82V17.73C113.763 17.47 113.743 17.22 113.703 16.98C113.683 16.72 113.673 16.46 113.673 16.2C113.673 16.08 113.663 15.99 113.643 15.93C113.623 15.75 113.603 15.57 113.583 15.39C113.583 15.19 113.583 14.99 113.583 14.79C113.583 14.61 113.583 14.43 113.583 14.25C113.583 14.05 113.563 13.86 113.523 13.68C113.503 13.64 113.493 13.59 113.493 13.53C113.493 13.47 113.493 13.42 113.493 13.38C113.493 12.56 113.493 11.74 113.493 10.92C113.493 10.1 113.503 9.29 113.523 8.49C113.523 8.39 113.523 8.29 113.523 8.19C113.543 8.09 113.553 7.99 113.553 7.89C113.553 7.83 113.553 7.77 113.553 7.71C113.573 7.65 113.583 7.6 113.583 7.56C113.583 7.34 113.583 7.12 113.583 6.9C113.603 6.66 113.623 6.43 113.643 6.21C113.683 6.15 113.683 6.07 113.643 5.97C113.623 5.95 113.593 5.94 113.553 5.94L113.463 6.03C113.423 6.09 113.373 6.15 113.313 6.21C113.253 6.27 113.203 6.33 113.163 6.39C113.083 6.51 112.993 6.64 112.893 6.78C112.813 6.9 112.723 7.03 112.623 7.17C112.483 7.41 112.333 7.66 112.173 7.92C112.013 8.16 111.893 8.42 111.813 8.7C111.793 8.74 111.773 8.79 111.753 8.85C111.733 8.89 111.713 8.93 111.693 8.97C111.613 9.17 111.523 9.37 111.423 9.57C111.343 9.75 111.263 9.95 111.183 10.17C111.063 10.43 110.893 10.67 110.673 10.89C110.633 10.93 110.593 10.95 110.553 10.95C110.453 11.01 110.343 11.07 110.223 11.13C110.103 11.17 109.973 11.18 109.833 11.16H109.653C109.473 11.2 109.323 11.16 109.203 11.04C109.063 11 108.943 10.93 108.843 10.83C108.763 10.73 108.673 10.62 108.573 10.5C108.493 10.4 108.423 10.28 108.363 10.14C108.323 10 108.303 9.86 108.303 9.72C108.283 9.68 108.273 9.63 108.273 9.57C108.273 9.51 108.273 9.46 108.273 9.42C108.253 9.38 108.233 9.34 108.213 9.3C108.193 9.24 108.183 9.2 108.183 9.18C108.183 9.14 108.163 9.08 108.123 9C108.083 8.92 108.003 8.76 107.883 8.52C107.763 8.28 107.703 8.17 107.703 8.19C107.643 8.09 107.583 7.98 107.523 7.86C107.463 7.74 107.393 7.63 107.313 7.53L107.133 7.2C107.093 7.2 107.063 7.19 107.043 7.17L107.013 7.2C107.013 7.26 107.013 7.32 107.013 7.38C107.013 7.44 107.023 7.5 107.043 7.56C107.083 7.78 107.103 8 107.103 8.22C107.103 8.44 107.083 8.66 107.043 8.88C107.043 9 107.053 9.1 107.073 9.18C107.093 9.22 107.103 9.29 107.103 9.39C107.103 9.51 107.103 9.63 107.103 9.75C107.123 9.87 107.123 9.99 107.103 10.11C107.083 10.21 107.073 10.32 107.073 10.44C107.093 10.54 107.113 10.64 107.133 10.74V11.04C107.093 11.16 107.093 11.29 107.133 11.43C107.153 11.53 107.153 11.64 107.133 11.76C107.133 11.86 107.143 11.96 107.163 12.06C107.163 12.16 107.143 12.29 107.103 12.45C106.983 12.93 107.013 13.39 107.193 13.83C107.213 13.91 107.233 13.99 107.253 14.07C107.273 14.13 107.273 14.2 107.253 14.28C107.253 14.34 107.253 14.4 107.253 14.46C107.253 14.52 107.263 14.58 107.283 14.64C107.323 14.72 107.343 14.8 107.343 14.88C107.363 15.1 107.373 15.27 107.373 15.39C107.393 15.51 107.413 15.6 107.433 15.66C107.473 15.88 107.513 16.11 107.553 16.35C107.593 16.57 107.633 16.79 107.673 17.01C107.713 17.27 107.753 17.53 107.793 17.79C107.853 18.03 107.883 18.28 107.883 18.54C107.883 18.62 107.893 18.68 107.913 18.72C107.953 18.88 107.973 19.05 107.973 19.23C107.973 19.39 107.983 19.55 108.003 19.71C108.003 19.93 107.953 20.1 107.853 20.22C107.813 20.3 107.793 20.35 107.793 20.37C107.613 20.75 107.293 20.97 106.833 21.03C106.773 21.05 106.713 21.06 106.653 21.06C106.593 21.06 106.533 21.06 106.473 21.06C106.253 21.1 106.093 21.06 105.993 20.94C105.953 20.9 105.913 20.88 105.873 20.88C105.773 20.9 105.673 20.84 105.573 20.7C105.513 20.6 105.423 20.51 105.303 20.43C105.243 20.37 105.193 20.27 105.153 20.13C105.133 20.09 105.113 20.05 105.093 20.01C105.093 19.97 105.093 19.93 105.093 19.89C105.073 19.61 105.043 19.34 105.003 19.08C104.963 18.8 104.933 18.53 104.913 18.27L104.883 17.97C104.863 17.89 104.853 17.82 104.853 17.76C104.853 17.7 104.843 17.63 104.823 17.55V17.37C104.763 17.09 104.733 16.81 104.733 16.53C104.733 16.23 104.743 15.94 104.763 15.66C104.783 15.48 104.793 15.3 104.793 15.12C104.793 14.92 104.803 14.73 104.823 14.55V13.86C104.823 13.76 104.823 13.66 104.823 13.56C104.823 13.44 104.813 13.33 104.793 13.23C104.773 13.11 104.763 12.99 104.763 12.87C104.763 12.75 104.763 12.63 104.763 12.51V11.13C104.743 10.97 104.733 10.81 104.733 10.65C104.733 10.47 104.733 10.3 104.733 10.14C104.733 10.08 104.733 10.02 104.733 9.96C104.733 9.88 104.723 9.81 104.703 9.75C104.703 9.65 104.693 9.56 104.673 9.48C104.673 9.38 104.663 9.29 104.643 9.21V9C104.603 8.82 104.583 8.65 104.583 8.49C104.583 8.31 104.583 8.13 104.583 7.95C104.583 7.79 104.583 7.63 104.583 7.47C104.583 7.29 104.563 7.13 104.523 6.99C104.503 6.93 104.493 6.87 104.493 6.81C104.493 6.75 104.493 6.69 104.493 6.63C104.493 6.49 104.493 6.36 104.493 6.24C104.493 6.1 104.473 5.96 104.433 5.82C104.413 5.78 104.403 5.71 104.403 5.61V4.11C104.403 4.01 104.403 3.92 104.403 3.84C104.403 3.74 104.383 3.65 104.343 3.57C104.283 3.37 104.293 3.14 104.373 2.88C104.413 2.78 104.453 2.71 104.493 2.67C104.533 2.61 104.573 2.55 104.613 2.49C104.653 2.43 104.683 2.37 104.703 2.31C104.743 2.25 104.773 2.22 104.793 2.22C104.873 2.2 104.933 2.17 104.973 2.13C105.033 2.09 105.083 2.05 105.123 2.01L105.303 1.92C105.343 1.9 105.403 1.89 105.483 1.89C105.583 1.91 105.683 1.93 105.783 1.95C105.903 1.95 106.013 1.96 106.113 1.98C106.233 1.98 106.323 2.03 106.383 2.13C106.483 2.27 106.583 2.41 106.683 2.55C106.783 2.69 106.863 2.84 106.923 3C106.983 3.14 107.063 3.26 107.163 3.36C107.283 3.52 107.403 3.68 107.523 3.84C107.643 4 107.773 4.16 107.913 4.32C107.973 4.38 108.023 4.45 108.063 4.53C108.123 4.61 108.173 4.69 108.213 4.77C108.313 4.91 108.403 5.05 108.483 5.19C108.583 5.31 108.683 5.44 108.783 5.58L109.233 6.3C109.273 6.38 109.313 6.46 109.353 6.54C109.393 6.6 109.433 6.66 109.473 6.72C109.513 6.82 109.573 6.83 109.653 6.75C109.733 6.65 109.813 6.55 109.893 6.45C109.993 6.33 110.083 6.22 110.163 6.12C110.343 5.9 110.523 5.67 110.703 5.43C110.883 5.19 111.073 4.96 111.273 4.74L111.453 4.47C111.593 4.27 111.723 4.08 111.843 3.9C111.983 3.7 112.113 3.5 112.233 3.3C112.373 3.08 112.493 2.86 112.593 2.64C112.713 2.42 112.813 2.2 112.893 1.98L113.253 1.17C113.373 0.929999 113.543 0.729999 113.763 0.569998C114.063 0.329999 114.393 0.239999 114.753 0.299998C114.893 0.319999 115.023 0.359999 115.143 0.419999C115.263 0.459999 115.383 0.499999 115.503 0.539999C115.623 0.579999 115.703 0.669999 115.743 0.809999C115.783 0.869999 115.813 0.929999 115.833 0.989998C115.853 1.05 115.863 1.11 115.863 1.17C115.883 1.31 115.913 1.44 115.953 1.56C115.993 1.66 116.023 1.78 116.043 1.92L116.073 2.22C116.113 2.4 116.153 2.58 116.193 2.76C116.253 2.94 116.303 3.12 116.343 3.3V3.36C116.363 3.56 116.383 3.76 116.403 3.96C116.443 4.14 116.453 4.33 116.433 4.53V5.22C116.433 5.32 116.433 5.42 116.433 5.52C116.433 5.62 116.423 5.72 116.403 5.82C116.383 5.96 116.373 6.1 116.373 6.24C116.373 6.36 116.373 6.49 116.373 6.63C116.353 6.71 116.343 6.79 116.343 6.87C116.343 6.95 116.333 7.03 116.313 7.11C116.293 7.19 116.283 7.27 116.283 7.35C116.283 7.41 116.283 7.49 116.283 7.59V8.43C116.283 8.57 116.273 8.7 116.253 8.82C116.253 8.94 116.243 9.07 116.223 9.21C116.203 9.29 116.193 9.37 116.193 9.45C116.193 9.51 116.193 9.58 116.193 9.66V11.49C116.193 11.63 116.193 11.77 116.193 11.91C116.213 12.05 116.233 12.19 116.253 12.33C116.273 12.43 116.283 12.54 116.283 12.66C116.283 12.76 116.283 12.86 116.283 12.96C116.303 13.1 116.313 13.24 116.313 13.38C116.313 13.5 116.323 13.64 116.343 13.8V14.13C116.363 14.29 116.373 14.46 116.373 14.64C116.373 14.8 116.373 14.96 116.373 15.12V15.51C116.413 15.65 116.433 15.8 116.433 15.96C116.433 16.12 116.443 16.28 116.463 16.44V16.65C116.503 16.77 116.523 16.89 116.523 17.01C116.523 17.13 116.533 17.25 116.553 17.37L116.643 18.45C116.663 18.53 116.673 18.61 116.673 18.69C116.693 18.75 116.703 18.82 116.703 18.9C116.723 18.98 116.733 19.06 116.733 19.14C116.733 19.2 116.743 19.27 116.763 19.35C116.763 19.37 116.763 19.4 116.763 19.44C116.783 19.48 116.793 19.52 116.793 19.56C116.793 19.7 116.803 19.85 116.823 20.01C116.863 20.17 116.893 20.33 116.913 20.49L117.033 21.33C117.033 21.45 117.023 21.53 117.003 21.57C116.983 21.69 116.933 21.8 116.853 21.9C116.793 22.02 116.743 22.13 116.703 22.23C116.703 22.25 116.693 22.26 116.673 22.26C116.533 22.38 116.393 22.48 116.253 22.56C116.113 22.66 115.963 22.73 115.803 22.77ZM124.699 21.21C124.579 21.21 124.499 21.2 124.459 21.18C124.359 21.14 124.259 21.12 124.159 21.12C124.079 21.14 123.989 21.15 123.889 21.15C123.869 21.15 123.849 21.15 123.829 21.15C123.809 21.17 123.789 21.18 123.769 21.18C123.629 21.2 123.489 21.21 123.349 21.21C123.229 21.21 123.109 21.19 122.989 21.15C122.969 21.13 122.949 21.12 122.929 21.12C122.789 21.14 122.669 21.1 122.569 21C122.469 20.9 122.369 20.81 122.269 20.73C122.169 20.63 122.119 20.52 122.119 20.4L122.029 20.16C121.969 20.02 121.949 19.89 121.969 19.77C121.989 19.73 121.989 19.69 121.969 19.65C121.969 19.61 121.969 19.57 121.969 19.53C121.949 19.49 121.939 19.45 121.939 19.41C121.939 19.35 121.929 19.3 121.909 19.26C121.869 19.08 121.839 18.9 121.819 18.72C121.819 18.52 121.829 18.33 121.849 18.15C121.869 18.03 121.939 17.83 122.059 17.55C122.179 17.25 122.249 17.07 122.269 17.01C122.329 16.91 122.359 16.83 122.359 16.77C122.339 16.55 122.329 16.33 122.329 16.11C122.349 15.87 122.359 15.64 122.359 15.42C122.359 15.28 122.389 15.17 122.449 15.09C122.529 14.95 122.539 14.8 122.479 14.64L122.389 14.31C122.269 14.09 122.279 13.9 122.419 13.74C122.419 13.72 122.419 13.71 122.419 13.71C122.439 13.69 122.449 13.67 122.449 13.65C122.489 13.61 122.499 13.56 122.479 13.5C122.459 13.42 122.449 13.36 122.449 13.32C122.449 13.24 122.459 13.16 122.479 13.08C122.519 12.98 122.529 12.89 122.509 12.81C122.509 12.81 122.489 12.79 122.449 12.75C122.429 12.71 122.419 12.63 122.419 12.51C122.439 12.39 122.449 12.32 122.449 12.3V11.46C122.469 11.36 122.479 11.27 122.479 11.19C122.479 11.09 122.489 10.99 122.509 10.89C122.529 10.77 122.529 10.65 122.509 10.53C122.509 10.39 122.509 10.25 122.509 10.11C122.489 10.01 122.469 9.9 122.449 9.78C122.449 9.66 122.449 9.54 122.449 9.42C122.429 9.38 122.419 9.33 122.419 9.27C122.419 9.21 122.419 9.16 122.419 9.12C122.399 9.02 122.379 8.92 122.359 8.82C122.359 8.72 122.359 8.62 122.359 8.52C122.359 8.48 122.319 8.35 122.239 8.13C122.159 7.89 122.129 7.69 122.149 7.53C122.169 7.49 122.179 7.44 122.179 7.38C122.179 7.32 122.159 7.27 122.119 7.23C122.079 7.21 122.059 7.17 122.059 7.11V7.02C122.119 6.78 122.089 6.54 121.969 6.3C121.889 6.18 121.859 6.06 121.879 5.94C121.879 5.78 121.809 5.66 121.669 5.58C121.569 5.48 121.479 5.36 121.399 5.22C121.319 5.08 121.269 4.94 121.249 4.8C121.229 4.7 121.219 4.6 121.219 4.5C121.219 4.4 121.219 4.31 121.219 4.23C121.219 4.15 121.229 4.1 121.249 4.08C121.329 4 121.369 3.91 121.369 3.81C121.369 3.69 121.379 3.6 121.399 3.54C121.419 3.52 121.439 3.51 121.459 3.51C121.479 3.51 121.499 3.5 121.519 3.48C121.599 3.46 121.639 3.39 121.639 3.27C121.599 3.19 121.579 3.12 121.579 3.06C121.559 2.98 121.589 2.91 121.669 2.85C121.709 2.77 121.759 2.75 121.819 2.79C121.959 2.85 122.119 2.83 122.299 2.73C122.379 2.69 122.429 2.67 122.449 2.67C122.509 2.67 122.539 2.67 122.539 2.67C122.559 2.65 122.619 2.64 122.719 2.64C122.839 2.66 122.949 2.62 123.049 2.52C123.189 2.38 123.359 2.31 123.559 2.31H125.419C125.879 2.33 126.339 2.33 126.799 2.31C127.259 2.29 127.709 2.28 128.149 2.28C128.249 2.28 128.329 2.28 128.389 2.28C128.469 2.26 128.549 2.24 128.629 2.22C128.749 2.16 128.889 2.13 129.049 2.13H129.739C129.899 2.13 130.039 2.13 130.159 2.13C130.299 2.11 130.439 2.09 130.579 2.07C130.659 2.05 130.729 2.04 130.789 2.04C130.869 2.04 130.949 2.04 131.029 2.04C131.109 2.04 131.189 2.04 131.269 2.04C131.349 2.04 131.429 2.03 131.509 2.01C131.669 1.99 131.839 1.98 132.019 1.98C132.199 1.96 132.369 1.95 132.529 1.95C132.609 1.95 132.679 1.95 132.739 1.95C132.819 1.93 132.899 1.91 132.979 1.89C133.139 1.85 133.289 1.83 133.429 1.83C133.589 1.81 133.739 1.79 133.879 1.77C134.039 1.75 134.189 1.73 134.329 1.71C134.489 1.69 134.639 1.67 134.779 1.65C134.959 1.65 135.089 1.67 135.169 1.71C135.289 1.79 135.399 1.86 135.499 1.92C135.619 1.98 135.729 2.06 135.829 2.16C135.909 2.24 135.959 2.31 135.979 2.37C135.999 2.45 136.019 2.53 136.039 2.61C136.059 2.69 136.079 2.78 136.099 2.88V3.09C136.079 3.19 136.059 3.3 136.039 3.42C136.039 3.52 136.029 3.63 136.009 3.75C135.969 3.83 135.919 3.9 135.859 3.96L135.319 4.5C135.119 4.56 134.919 4.6 134.719 4.62C134.539 4.64 134.349 4.64 134.149 4.62H133.939C133.839 4.64 133.739 4.65 133.639 4.65C133.539 4.65 133.439 4.64 133.339 4.62C133.219 4.6 133.099 4.6 132.979 4.62C132.859 4.62 132.739 4.62 132.619 4.62C132.539 4.62 132.459 4.63 132.379 4.65C132.319 4.65 132.249 4.64 132.169 4.62C132.069 4.6 131.969 4.6 131.869 4.62C131.789 4.62 131.699 4.63 131.599 4.65C131.519 4.65 131.429 4.66 131.329 4.68C131.249 4.68 131.159 4.68 131.059 4.68C130.799 4.72 130.519 4.74 130.219 4.74C129.939 4.74 129.659 4.76 129.379 4.8C129.199 4.78 129.029 4.79 128.869 4.83C128.709 4.85 128.539 4.87 128.359 4.89C128.199 4.91 128.029 4.92 127.849 4.92C127.669 4.92 127.499 4.94 127.339 4.98C127.139 4.98 126.939 5.01 126.739 5.07C126.559 5.11 126.369 5.14 126.169 5.16L125.959 5.19C125.819 5.19 125.689 5.21 125.569 5.25C125.449 5.27 125.319 5.3 125.179 5.34C125.099 5.36 125.019 5.38 124.939 5.4C124.859 5.4 124.769 5.41 124.669 5.43C124.609 5.43 124.539 5.45 124.459 5.49C124.399 5.51 124.369 5.57 124.369 5.67L124.459 5.94C124.479 5.98 124.469 6.08 124.429 6.24C124.409 6.4 124.389 6.52 124.369 6.6C124.369 6.66 124.379 6.72 124.399 6.78C124.419 6.84 124.439 6.9 124.459 6.96C124.519 7.12 124.549 7.3 124.549 7.5C124.549 7.68 124.569 7.85 124.609 8.01C124.629 8.09 124.639 8.18 124.639 8.28C124.639 8.36 124.649 8.45 124.669 8.55C124.669 8.59 124.669 8.64 124.669 8.7C124.689 8.74 124.699 8.79 124.699 8.85C124.699 8.91 124.689 8.95 124.669 8.97C124.609 9.05 124.579 9.14 124.579 9.24C124.579 9.34 124.579 9.44 124.579 9.54C124.679 9.74 124.729 9.94 124.729 10.14C124.729 10.34 124.729 10.54 124.729 10.74C124.729 10.8 124.779 10.82 124.879 10.8H124.909C124.949 10.72 124.989 10.66 125.029 10.62C125.089 10.62 125.159 10.6 125.239 10.56C125.299 10.52 125.379 10.5 125.479 10.5C125.639 10.52 125.789 10.52 125.929 10.5C126.069 10.46 126.209 10.42 126.349 10.38C127.289 10.14 128.169 9.83 128.989 9.45C129.209 9.35 129.439 9.27 129.679 9.21C129.919 9.13 130.159 9.08 130.399 9.06H130.489C130.669 9.04 130.849 9.02 131.029 9C131.209 8.98 131.389 8.97 131.569 8.97C131.809 8.95 132.039 8.92 132.259 8.88C132.499 8.84 132.739 8.81 132.979 8.79C133.119 8.75 133.249 8.72 133.369 8.7C133.489 8.66 133.619 8.61 133.759 8.55C134.019 8.45 134.259 8.4 134.479 8.4C134.639 8.42 134.789 8.46 134.929 8.52C135.069 8.56 135.209 8.62 135.349 8.7C135.649 8.9 135.799 9.2 135.799 9.6C135.799 9.76 135.779 9.92 135.739 10.08C135.719 10.24 135.709 10.4 135.709 10.56C135.709 10.6 135.689 10.64 135.649 10.68L135.559 10.83C135.539 10.91 135.519 10.99 135.499 11.07C135.479 11.15 135.429 11.21 135.349 11.25C135.229 11.35 135.099 11.46 134.959 11.58C134.839 11.68 134.699 11.75 134.539 11.79C134.459 11.81 134.379 11.83 134.299 11.85C134.239 11.87 134.169 11.88 134.089 11.88C133.769 11.88 133.439 11.9 133.099 11.94C132.779 11.98 132.449 12.02 132.109 12.06C131.849 12.08 131.589 12.11 131.329 12.15C131.089 12.19 130.839 12.21 130.579 12.21C130.339 12.21 130.069 12.26 129.769 12.36C129.569 12.4 129.359 12.44 129.139 12.48C128.919 12.52 128.699 12.55 128.479 12.57C128.319 12.59 128.149 12.62 127.969 12.66C127.809 12.68 127.649 12.7 127.489 12.72L126.979 12.81C126.939 12.83 126.879 12.84 126.799 12.84C126.659 12.88 126.519 12.91 126.379 12.93C126.239 12.95 126.099 12.98 125.959 13.02C125.819 13.04 125.679 13.07 125.539 13.11C125.419 13.15 125.289 13.19 125.149 13.23C125.049 13.25 124.969 13.29 124.909 13.35C124.849 13.39 124.799 13.45 124.759 13.53C124.739 13.59 124.739 13.65 124.759 13.71C124.779 13.79 124.769 13.87 124.729 13.95C124.749 14.15 124.759 14.35 124.759 14.55C124.779 14.75 124.779 14.95 124.759 15.15C124.799 15.31 124.809 15.47 124.789 15.63C124.789 15.79 124.779 15.95 124.759 16.11C124.719 16.35 124.729 16.55 124.789 16.71C124.849 16.97 124.829 17.24 124.729 17.52C124.689 17.64 124.689 17.72 124.729 17.76C124.769 17.82 124.769 17.89 124.729 17.97V18.15C124.709 18.31 124.779 18.39 124.939 18.39H124.999C125.139 18.39 125.279 18.44 125.419 18.54C125.519 18.64 125.639 18.67 125.779 18.63L126.619 18.54C126.739 18.52 126.859 18.51 126.979 18.51C127.099 18.49 127.219 18.48 127.339 18.48C127.379 18.46 127.439 18.47 127.519 18.51C127.619 18.57 127.709 18.58 127.789 18.54C127.829 18.5 127.879 18.47 127.939 18.45C128.019 18.43 128.079 18.4 128.119 18.36C128.239 18.24 128.389 18.2 128.569 18.24C128.729 18.28 128.859 18.27 128.959 18.21C129.139 18.15 129.309 18.13 129.469 18.15C129.569 18.17 129.669 18.16 129.769 18.12C129.869 18.08 129.969 18.06 130.069 18.06C130.109 18.06 130.139 18.07 130.159 18.09C130.179 18.09 130.199 18.08 130.219 18.06C130.259 18.06 130.299 18.05 130.339 18.03C130.379 18.01 130.409 18 130.429 18C130.569 17.94 130.699 17.92 130.819 17.94C130.919 17.94 130.969 17.94 130.969 17.94C131.049 17.92 131.119 17.92 131.179 17.94C131.259 17.96 131.329 17.99 131.389 18.03C131.489 18.05 131.569 18.08 131.629 18.12C131.709 18.16 131.789 18.19 131.869 18.21C131.909 18.21 131.939 18.22 131.959 18.24C132.059 18.32 132.179 18.39 132.319 18.45C132.479 18.51 132.569 18.58 132.589 18.66C132.629 18.78 132.649 18.9 132.649 19.02C132.649 19.12 132.659 19.23 132.679 19.35C132.679 19.41 132.669 19.47 132.649 19.53C132.649 19.59 132.639 19.65 132.619 19.71C132.579 19.79 132.529 19.88 132.469 19.98C132.429 20.08 132.369 20.17 132.289 20.25C132.249 20.29 132.209 20.33 132.169 20.37C132.149 20.41 132.119 20.45 132.079 20.49C131.999 20.57 131.909 20.64 131.809 20.7C131.709 20.76 131.599 20.79 131.479 20.79C131.399 20.79 131.339 20.8 131.299 20.82C131.219 20.86 131.139 20.88 131.059 20.88C130.979 20.88 130.889 20.88 130.789 20.88C130.649 20.9 130.509 20.92 130.369 20.94C130.249 20.94 130.119 20.93 129.979 20.91C129.899 20.89 129.829 20.89 129.769 20.91C129.569 20.97 129.369 20.98 129.169 20.94C128.969 20.94 128.769 20.95 128.569 20.97C128.389 20.97 128.209 20.97 128.029 20.97H127.639C127.579 20.97 127.529 20.98 127.489 21C127.409 21.04 127.309 21.06 127.189 21.06C127.089 21.06 126.989 21.05 126.889 21.03H126.589C126.569 21.03 126.539 21.03 126.499 21.03C126.459 21.05 126.419 21.05 126.379 21.03C126.319 21.01 126.259 21 126.199 21C126.159 21.02 126.109 21.04 126.049 21.06C126.009 21.06 125.969 21.06 125.929 21.06C125.909 21.08 125.879 21.09 125.839 21.09C125.639 21.07 125.449 21.07 125.269 21.09C125.089 21.13 124.899 21.17 124.699 21.21ZM143.844 21.15C143.764 21.15 143.694 21.15 143.634 21.15C143.574 21.15 143.504 21.14 143.424 21.12C143.384 21.12 143.334 21.11 143.274 21.09C143.234 21.09 143.194 21.09 143.154 21.09C142.834 21.07 142.534 21.01 142.254 20.91C141.974 20.81 141.694 20.69 141.414 20.55C141.394 20.55 141.374 20.55 141.354 20.55C141.354 20.53 141.344 20.52 141.324 20.52C141.124 20.42 140.944 20.3 140.784 20.16C140.644 20.02 140.504 19.88 140.364 19.74C140.204 19.54 140.094 19.35 140.034 19.17C139.954 19.01 139.854 18.84 139.734 18.66C139.534 18.44 139.384 18.16 139.284 17.82C139.224 17.66 139.164 17.5 139.104 17.34C139.044 17.18 138.994 17.01 138.954 16.83C138.934 16.77 138.914 16.71 138.894 16.65C138.874 16.57 138.844 16.49 138.804 16.41C138.764 16.31 138.724 16.2 138.684 16.08C138.664 15.96 138.634 15.84 138.594 15.72C138.574 15.64 138.544 15.51 138.504 15.33C138.484 15.13 138.474 15.01 138.474 14.97V13.68C138.494 13.56 138.514 13.45 138.534 13.35C138.554 13.23 138.574 13.11 138.594 12.99L138.624 12.96C138.624 12.98 138.624 12.99 138.624 12.99C138.644 12.99 138.654 13 138.654 13.02C138.674 13.02 138.684 13.03 138.684 13.05C138.704 13.07 138.714 13.06 138.714 13.02C138.714 12.9 138.704 12.8 138.684 12.72C138.684 12.68 138.674 12.64 138.654 12.6C138.654 12.56 138.694 12.53 138.774 12.51C138.794 12.51 138.804 12.48 138.804 12.42L139.074 11.1C139.094 11 139.114 10.91 139.134 10.83C139.154 10.73 139.174 10.64 139.194 10.56L139.254 10.23C139.234 10.27 139.244 10.2 139.284 10.02C139.344 9.84 139.384 9.72 139.404 9.66C139.444 9.56 139.494 9.46 139.554 9.36C139.634 9.26 139.684 9.19 139.704 9.15C139.864 8.97 140.014 8.72 140.154 8.4L140.724 7.5C140.804 7.42 140.844 7.32 140.844 7.2C140.824 7.1 140.854 6.99 140.934 6.87C140.994 6.75 141.054 6.63 141.114 6.51C141.194 6.39 141.274 6.27 141.354 6.15C141.454 5.99 141.564 5.83 141.684 5.67C141.824 5.49 141.954 5.33 142.074 5.19C142.114 5.13 142.154 5.07 142.194 5.01C142.254 4.95 142.324 4.91 142.404 4.89C142.444 4.89 142.474 4.88 142.494 4.86C142.514 4.84 142.534 4.82 142.554 4.8C142.954 4.38 143.404 3.99 143.904 3.63C143.944 3.59 143.984 3.55 144.024 3.51C144.064 3.47 144.104 3.44 144.144 3.42C144.244 3.36 144.354 3.33 144.474 3.33C144.574 3.33 144.654 3.32 144.714 3.3C144.774 3.3 144.864 3.28 144.984 3.24C145.124 3.2 145.234 3.22 145.314 3.3C145.434 3.42 145.634 3.46 145.914 3.42C146.094 3.4 146.244 3.5 146.364 3.72C146.404 3.78 146.434 3.84 146.454 3.9C146.494 3.96 146.544 4.01 146.604 4.05C146.664 4.17 146.744 4.28 146.844 4.38C146.964 4.48 147.064 4.58 147.144 4.68L147.534 5.22C147.574 5.28 147.614 5.35 147.654 5.43C147.714 5.49 147.764 5.55 147.804 5.61C147.904 5.71 147.964 5.81 147.984 5.91C148.024 6.01 148.054 6.08 148.074 6.12C148.114 6.14 148.144 6.23 148.164 6.39C148.184 6.47 148.184 6.52 148.164 6.54C148.164 6.54 148.204 6.54 148.284 6.54C148.364 6.54 148.404 6.59 148.404 6.69C148.404 6.91 148.364 7.1 148.284 7.26C148.244 7.32 148.204 7.35 148.164 7.35C148.144 7.35 148.114 7.37 148.074 7.41C148.014 7.51 147.944 7.61 147.864 7.71C147.804 7.81 147.734 7.92 147.654 8.04C147.594 8.14 147.514 8.23 147.414 8.31C147.334 8.39 147.244 8.47 147.144 8.55C146.984 8.71 146.794 8.77 146.574 8.73C146.394 8.73 146.264 8.72 146.184 8.7C146.124 8.68 146.064 8.66 146.004 8.64C145.964 8.6 145.914 8.57 145.854 8.55C145.814 8.55 145.774 8.53 145.734 8.49C145.714 8.45 145.694 8.42 145.674 8.4C145.654 8.36 145.624 8.33 145.584 8.31C145.484 8.25 145.404 8.18 145.344 8.1C145.284 8 145.234 7.91 145.194 7.83C145.174 7.77 145.164 7.71 145.164 7.65C145.164 7.59 145.164 7.54 145.164 7.5C145.144 7.38 145.124 7.26 145.104 7.14C145.104 7.02 145.084 6.9 145.044 6.78C145.044 6.74 144.994 6.72 144.894 6.72C144.774 6.8 144.654 6.88 144.534 6.96C144.414 7.04 144.304 7.14 144.204 7.26L143.274 8.37C143.214 8.43 143.154 8.5 143.094 8.58C143.054 8.64 143.014 8.7 142.974 8.76C142.894 8.86 142.814 8.97 142.734 9.09C142.674 9.19 142.594 9.29 142.494 9.39C142.454 9.43 142.424 9.47 142.404 9.51C142.344 9.65 142.274 9.78 142.194 9.9C142.134 10.02 142.074 10.16 142.014 10.32C141.914 10.52 141.824 10.74 141.744 10.98C141.684 11.2 141.634 11.43 141.594 11.67C141.574 11.97 141.514 12.27 141.414 12.57C141.394 12.67 141.374 12.78 141.354 12.9C141.334 13.02 141.314 13.14 141.294 13.26C141.274 13.44 141.244 13.62 141.204 13.8C141.164 13.98 141.154 14.17 141.174 14.37C141.214 14.77 141.274 15.15 141.354 15.51C141.414 15.71 141.464 15.91 141.504 16.11C141.564 16.29 141.624 16.48 141.684 16.68C141.704 16.74 141.724 16.8 141.744 16.86C141.764 16.92 141.784 16.98 141.804 17.04C141.924 17.32 142.144 17.54 142.464 17.7C142.584 17.76 142.714 17.79 142.854 17.79C142.974 17.79 143.094 17.8 143.214 17.82C143.334 17.82 143.454 17.81 143.574 17.79C144.134 17.73 144.654 17.64 145.134 17.52C145.354 17.48 145.564 17.42 145.764 17.34C145.964 17.26 146.164 17.18 146.364 17.1C146.524 17.04 146.674 16.95 146.814 16.83C146.974 16.71 147.134 16.59 147.294 16.47C147.474 16.33 147.644 16.19 147.804 16.05C147.964 15.91 148.124 15.77 148.284 15.63C148.444 15.49 148.594 15.34 148.734 15.18C148.794 15.12 148.884 15.05 149.004 14.97C149.064 14.93 149.124 14.89 149.184 14.85C149.244 14.81 149.294 14.77 149.334 14.73C149.434 14.67 149.524 14.61 149.604 14.55C149.704 14.49 149.814 14.46 149.934 14.46C149.994 14.42 150.054 14.4 150.114 14.4C150.194 14.38 150.264 14.36 150.324 14.34C150.504 14.28 150.664 14.28 150.804 14.34C150.864 14.36 150.924 14.38 150.984 14.4C151.044 14.42 151.104 14.45 151.164 14.49C151.324 14.59 151.474 14.75 151.614 14.97C151.714 15.21 151.764 15.42 151.764 15.6V15.78C151.764 16.04 151.664 16.27 151.464 16.47C151.244 16.75 151.014 16.97 150.774 17.13C150.634 17.21 150.494 17.32 150.354 17.46C150.154 17.62 149.944 17.79 149.724 17.97C149.524 18.15 149.314 18.32 149.094 18.48L148.974 18.6C148.914 18.64 148.854 18.69 148.794 18.75C148.734 18.81 148.664 18.86 148.584 18.9C148.444 19.04 148.284 19.17 148.104 19.29C147.924 19.39 147.744 19.49 147.564 19.59C147.384 19.67 147.214 19.79 147.054 19.95C146.994 20.01 146.934 20.07 146.874 20.13C146.814 20.19 146.744 20.24 146.664 20.28C146.404 20.42 146.104 20.56 145.764 20.7C145.744 20.72 145.714 20.74 145.674 20.76C145.634 20.78 145.594 20.8 145.554 20.82C145.434 20.88 145.304 20.93 145.164 20.97C145.044 20.99 144.924 21.01 144.804 21.03C144.644 21.05 144.484 21.06 144.324 21.06C144.164 21.08 144.004 21.11 143.844 21.15ZM142.764 28.92C142.704 28.94 142.654 28.93 142.614 28.89C142.554 28.87 142.484 28.86 142.404 28.86C142.304 28.88 142.204 28.86 142.104 28.8C142.084 28.78 142.034 28.75 141.954 28.71C141.914 28.67 141.884 28.63 141.864 28.59C141.864 28.55 141.854 28.52 141.834 28.5C141.814 28.32 141.734 28.18 141.594 28.08C141.534 28.02 141.504 27.95 141.504 27.87V27.54C141.504 27.38 141.534 27.26 141.594 27.18L141.654 27.09C141.714 26.91 141.804 26.74 141.924 26.58C141.964 26.48 142.024 26.42 142.104 26.4C142.204 26.36 142.294 26.32 142.374 26.28C142.474 26.24 142.564 26.2 142.644 26.16L143.304 25.89C143.644 25.77 143.984 25.65 144.324 25.53C144.684 25.41 145.034 25.29 145.374 25.17L146.094 24.99C146.214 24.95 146.334 24.91 146.454 24.87C146.574 24.83 146.684 24.79 146.784 24.75C146.924 24.71 147.024 24.66 147.084 24.6C147.144 24.54 147.154 24.5 147.114 24.48L147.024 24.39C146.684 24.15 146.334 23.89 145.974 23.61C145.874 23.51 145.764 23.43 145.644 23.37C145.544 23.31 145.434 23.25 145.314 23.19C144.934 23.03 144.604 22.81 144.324 22.53C144.164 22.37 144.014 22.2 143.874 22.02C143.734 21.86 143.604 21.68 143.484 21.48C143.404 21.36 143.354 21.26 143.334 21.18C143.294 21.04 143.254 20.91 143.214 20.79C143.174 20.65 143.134 20.51 143.094 20.37C143.094 20.31 143.084 20.25 143.064 20.19C143.064 20.13 143.054 20.07 143.034 20.01C142.934 19.63 142.874 19.26 142.854 18.9C142.834 18.52 142.834 18.14 142.854 17.76C142.854 17.34 142.914 16.94 143.034 16.56L143.124 16.32C143.304 15.9 143.604 15.63 144.024 15.51C144.104 15.47 144.184 15.45 144.264 15.45C144.344 15.45 144.424 15.45 144.504 15.45C144.824 15.43 145.114 15.56 145.374 15.84L145.614 16.02C145.714 16.1 145.784 16.19 145.824 16.29C145.884 16.37 145.934 16.46 145.974 16.56C145.994 16.58 146.004 16.63 146.004 16.71C146.044 17.01 146.034 17.29 145.974 17.55L145.884 18.3C145.864 18.54 145.854 18.78 145.854 19.02C145.854 19.24 145.864 19.47 145.884 19.71C145.884 19.81 145.894 19.91 145.914 20.01C145.954 20.11 145.984 20.21 146.004 20.31C146.024 20.39 146.054 20.46 146.094 20.52C146.134 20.56 146.174 20.6 146.214 20.64C146.294 20.68 146.364 20.73 146.424 20.79C146.484 20.83 146.544 20.87 146.604 20.91C146.824 21.05 147.034 21.2 147.234 21.36C147.454 21.52 147.664 21.68 147.864 21.84L148.494 22.29C148.674 22.39 148.834 22.5 148.974 22.62C149.014 22.64 149.054 22.67 149.094 22.71C149.134 22.77 149.174 22.82 149.214 22.86L149.574 23.4C149.614 23.44 149.654 23.52 149.694 23.64C149.714 23.72 149.734 23.8 149.754 23.88C149.794 23.96 149.824 24.04 149.844 24.12C149.884 24.2 149.904 24.26 149.904 24.3C149.924 24.34 149.934 24.4 149.934 24.48C149.934 24.54 149.904 24.57 149.844 24.57C149.764 24.57 149.724 24.6 149.724 24.66V24.9C149.684 25.46 149.484 25.91 149.124 26.25L148.764 26.58C148.524 26.74 148.294 26.88 148.074 27C147.994 27.08 147.894 27.13 147.774 27.15C147.674 27.19 147.574 27.23 147.474 27.27C147.254 27.33 147.024 27.39 146.784 27.45C146.564 27.53 146.344 27.6 146.124 27.66C146.104 27.66 146.084 27.67 146.064 27.69L144.444 28.23C144.364 28.25 144.284 28.28 144.204 28.32C144.124 28.38 144.054 28.45 143.994 28.53L143.904 28.62C143.844 28.66 143.784 28.69 143.724 28.71C143.664 28.75 143.604 28.79 143.544 28.83C143.424 28.89 143.294 28.92 143.154 28.92C143.034 28.92 142.904 28.92 142.764 28.92ZM161.066 21.6C160.866 21.58 160.666 21.55 160.466 21.51C160.286 21.49 160.106 21.44 159.926 21.36L159.176 21.09C158.916 20.99 158.676 20.88 158.456 20.76C158.236 20.62 158.016 20.48 157.796 20.34C157.696 20.24 157.596 20.15 157.496 20.07C157.396 19.97 157.296 19.88 157.196 19.8C157.036 19.64 156.876 19.48 156.716 19.32C156.556 19.14 156.406 18.95 156.266 18.75L155.546 17.64C155.366 17.36 155.206 17.07 155.066 16.77C154.926 16.45 154.806 16.13 154.706 15.81C154.486 15.21 154.376 14.62 154.376 14.04V13.56C154.376 13.06 154.406 12.57 154.466 12.09C154.506 11.69 154.596 11.33 154.736 11.01C154.816 10.81 154.886 10.61 154.946 10.41C155.006 10.21 155.076 10.02 155.156 9.84L155.246 9.63C155.286 9.37 155.376 9.14 155.516 8.94C155.656 8.72 155.776 8.51 155.876 8.31C155.956 8.15 156.046 8.01 156.146 7.89C156.246 7.75 156.336 7.61 156.416 7.47C156.456 7.41 156.506 7.36 156.566 7.32C156.626 7.26 156.676 7.2 156.716 7.14C156.756 7.1 156.786 7.05 156.806 6.99C156.846 6.91 156.876 6.84 156.896 6.78C156.936 6.72 157.006 6.64 157.106 6.54C157.226 6.48 157.336 6.34 157.436 6.12C157.476 6.04 157.516 5.98 157.556 5.94C157.676 5.84 157.776 5.72 157.856 5.58C157.956 5.44 158.066 5.31 158.186 5.19C158.266 5.11 158.306 5 158.306 4.86C158.306 4.76 158.306 4.67 158.306 4.59C158.326 4.49 158.326 4.4 158.306 4.32C158.286 4.22 158.316 4.13 158.396 4.05C158.436 4.01 158.466 3.96 158.486 3.9C158.506 3.84 158.526 3.78 158.546 3.72C158.606 3.52 158.766 3.35 159.026 3.21C159.066 3.17 159.116 3.15 159.176 3.15C159.256 3.13 159.326 3.11 159.386 3.09C159.526 3.03 159.686 3.02 159.866 3.06C159.946 3.08 160.016 3.09 160.076 3.09C160.136 3.07 160.196 3.05 160.256 3.03C160.336 2.99 160.406 2.96 160.466 2.94C160.546 2.92 160.616 2.9 160.676 2.88C160.956 2.78 161.246 2.79 161.546 2.91C161.866 3.03 162.096 3.24 162.236 3.54C162.276 3.64 162.316 3.74 162.356 3.84C162.396 3.94 162.426 4.04 162.446 4.14C162.486 4.36 162.476 4.55 162.416 4.71C162.376 4.79 162.356 4.84 162.356 4.86C162.336 4.94 162.356 5.01 162.416 5.07C162.456 5.13 162.506 5.18 162.566 5.22C162.786 5.42 162.996 5.62 163.196 5.82C163.396 6 163.586 6.2 163.766 6.42C163.926 6.58 164.056 6.75 164.156 6.93C164.276 7.09 164.386 7.27 164.486 7.47C164.526 7.57 164.576 7.68 164.636 7.8C164.696 7.9 164.756 8 164.816 8.1C164.916 8.28 164.996 8.47 165.056 8.67C165.136 8.87 165.216 9.07 165.296 9.27V9.3C165.336 9.44 165.366 9.59 165.386 9.75C165.426 9.89 165.486 10.04 165.566 10.2C165.626 10.34 165.676 10.49 165.716 10.65C165.756 10.79 165.796 10.94 165.836 11.1C165.876 11.28 165.916 11.46 165.956 11.64C166.016 11.82 166.056 12 166.076 12.18C166.096 12.26 166.116 12.34 166.136 12.42C166.156 12.48 166.176 12.55 166.196 12.63C166.236 12.81 166.276 12.99 166.316 13.17C166.356 13.35 166.386 13.53 166.406 13.71L166.496 13.92C166.536 14.04 166.576 14.2 166.616 14.4C166.676 14.66 166.706 14.92 166.706 15.18C166.726 15.44 166.726 15.71 166.706 15.99C166.706 16.13 166.696 16.24 166.676 16.32C166.556 16.74 166.406 17.17 166.226 17.61C166.146 17.75 166.066 17.89 165.986 18.03C165.906 18.15 165.826 18.28 165.746 18.42L165.476 18.84C165.376 19.02 165.266 19.18 165.146 19.32C164.946 19.64 164.706 19.92 164.426 20.16C164.146 20.4 163.846 20.63 163.526 20.85C162.826 21.39 162.006 21.64 161.066 21.6ZM160.946 18.63C161.366 18.63 161.726 18.51 162.026 18.27C162.126 18.17 162.226 18.08 162.326 18C162.446 17.9 162.546 17.8 162.626 17.7C163.006 17.28 163.306 16.84 163.526 16.38L163.616 16.08C163.656 15.72 163.656 15.36 163.616 15L163.436 14.01C163.376 13.75 163.326 13.5 163.286 13.26C163.246 13 163.186 12.75 163.106 12.51C163.046 12.37 163.026 12.26 163.046 12.18C163.066 12.08 163.066 11.98 163.046 11.88C163.026 11.78 162.996 11.68 162.956 11.58C162.896 11.32 162.826 11.06 162.746 10.8C162.666 10.54 162.586 10.28 162.506 10.02C162.486 9.96 162.466 9.9 162.446 9.84C162.426 9.78 162.406 9.72 162.386 9.66C162.246 9.38 162.096 9.11 161.936 8.85C161.776 8.59 161.596 8.35 161.396 8.13C161.296 8.01 161.186 7.9 161.066 7.8C160.946 7.68 160.826 7.57 160.706 7.47C160.686 7.43 160.656 7.41 160.616 7.41C160.596 7.39 160.566 7.37 160.526 7.35C160.466 7.27 160.386 7.28 160.286 7.38C160.186 7.48 160.076 7.59 159.956 7.71C159.856 7.83 159.756 7.95 159.656 8.07C159.556 8.21 159.446 8.35 159.326 8.49C159.226 8.63 159.126 8.77 159.026 8.91C158.886 9.09 158.756 9.27 158.636 9.45C158.516 9.63 158.396 9.81 158.276 9.99C157.856 10.67 157.526 11.42 157.286 12.24C157.246 12.36 157.226 12.45 157.226 12.51C157.206 12.65 157.186 12.79 157.166 12.93C157.166 13.07 157.166 13.22 157.166 13.38V13.62C157.186 13.68 157.196 13.74 157.196 13.8C157.196 13.86 157.206 13.92 157.226 13.98C157.226 14.22 157.286 14.48 157.406 14.76C157.566 15.16 157.746 15.55 157.946 15.93C158.146 16.31 158.376 16.67 158.636 17.01C158.696 17.09 158.756 17.17 158.816 17.25C158.896 17.33 158.966 17.41 159.026 17.49C159.206 17.69 159.396 17.87 159.596 18.03C159.816 18.19 160.036 18.33 160.256 18.45C160.496 18.57 160.726 18.63 160.946 18.63Z" fill="#353535"/>
</svg>
