<svg width="144" height="22" viewBox="0 0 144 22" fill="none" xmlns="http://www.w3.org/2000/svg">
<path d="M2.06514 19.475C1.91514 19.425 1.79847 19.325 1.71514 19.175L1.64014 18.9C1.62347 18.8167 1.61514 18.7333 1.61514 18.65C1.61514 18.5667 1.6068 18.4833 1.59014 18.4C1.57347 18.3333 1.5568 18.2667 1.54014 18.2C1.54014 18.15 1.52347 18.1 1.49014 18.05C1.4568 17.9833 1.42347 17.9167 1.39014 17.85C1.3568 17.7833 1.32347 17.7167 1.29014 17.65C1.1068 17.25 1.04847 16.8667 1.11514 16.5V16.375C1.1318 16.175 1.14847 15.9833 1.16514 15.8C1.1818 15.6 1.19847 15.4 1.21514 15.2C1.21514 15.1333 1.21514 15.0667 1.21514 15C1.2318 14.9333 1.24014 14.8667 1.24014 14.8C1.24014 14.75 1.24014 14.7 1.24014 14.65C1.2568 14.6 1.26514 14.5583 1.26514 14.525C1.26514 14.4417 1.26514 14.35 1.26514 14.25C1.2818 14.15 1.29014 14.0583 1.29014 13.975V13.825C1.27347 13.5583 1.26514 13.3 1.26514 13.05C1.26514 12.7833 1.26514 12.5167 1.26514 12.25C1.26514 12.1667 1.26514 12.0833 1.26514 12C1.26514 11.9 1.2568 11.8083 1.24014 11.725C1.22347 11.6917 1.21514 11.6417 1.21514 11.575C1.2318 11.4583 1.2318 11.35 1.21514 11.25C1.21514 11.15 1.21514 11.05 1.21514 10.95C1.21514 10.8833 1.21514 10.825 1.21514 10.775C1.21514 10.7083 1.22347 10.65 1.24014 10.6C1.2568 10.4333 1.2568 10.275 1.24014 10.125C1.22347 9.925 1.2068 9.725 1.19014 9.525C1.17347 9.325 1.14847 9.13333 1.11514 8.95C1.0818 8.66667 1.04847 8.38333 1.01514 8.1C0.99847 7.81667 0.99847 7.53333 1.01514 7.25V6.5C1.01514 6.41667 1.01514 6.33333 1.01514 6.25C1.0318 6.16667 1.04014 6.09167 1.04014 6.025V5.825C1.02347 5.69167 1.01514 5.55833 1.01514 5.425C1.0318 5.275 1.04847 5.125 1.06514 4.975V4.7C1.06514 4.46667 1.06514 4.23333 1.06514 4C1.0818 3.76667 1.09014 3.54167 1.09014 3.325C1.09014 3.19167 1.09014 3.06667 1.09014 2.95C1.09014 2.81667 1.07347 2.69167 1.04014 2.575C1.02347 2.375 1.04014 2.15833 1.09014 1.925C1.14014 1.79167 1.19847 1.66667 1.26514 1.55C1.3318 1.43333 1.4068 1.325 1.49014 1.225C1.79014 0.874999 2.1818 0.699999 2.66514 0.699999C2.81514 0.716666 2.9568 0.749999 3.09014 0.799999C3.24014 0.833332 3.37347 0.899999 3.49014 1C3.52347 1.01667 3.57347 1.05833 3.64014 1.125C3.72347 1.19167 3.81514 1.25833 3.91514 1.325C4.0318 1.375 4.14847 1.41667 4.26514 1.45C4.39847 1.46667 4.5318 1.49167 4.66514 1.525C4.81514 1.55833 4.9568 1.59167 5.09014 1.625C5.14014 1.64167 5.2068 1.65 5.29014 1.65C5.37347 1.65 5.44014 1.625 5.49014 1.575C5.52347 1.54167 5.5568 1.51667 5.59014 1.5C5.64014 1.46667 5.69014 1.44167 5.74014 1.425C5.94014 1.30833 6.12347 1.3 6.29014 1.4C6.34014 1.41667 6.3818 1.44167 6.41514 1.475C6.46514 1.49167 6.5068 1.50833 6.54014 1.525C6.72347 1.60833 6.86514 1.70833 6.96514 1.825C7.04847 1.925 7.1568 1.99167 7.29014 2.025C7.37347 2.04167 7.44014 2.06667 7.49014 2.1C7.5568 2.13333 7.62347 2.18333 7.69014 2.25C7.7568 2.3 7.82347 2.34167 7.89014 2.375C7.97347 2.40833 8.04847 2.44167 8.11514 2.475C8.24847 2.49167 8.3568 2.56667 8.44014 2.7C8.5068 2.83333 8.61514 2.925 8.76514 2.975C8.84847 2.99167 8.9318 3.04167 9.01514 3.125C9.04847 3.175 9.1318 3.23333 9.26514 3.3C9.34847 3.31667 9.41514 3.35833 9.46514 3.425C9.5318 3.475 9.59014 3.54167 9.64014 3.625L9.69014 3.7C9.8068 3.95 9.99847 4.18333 10.2651 4.4C10.3651 4.48333 10.4568 4.58333 10.5401 4.7C10.6235 4.8 10.6818 4.91667 10.7151 5.05C10.7485 5.11667 10.7818 5.18333 10.8151 5.25C10.8651 5.31667 10.9068 5.39167 10.9401 5.475C10.9735 5.525 10.9985 5.575 11.0151 5.625C11.0318 5.675 11.0485 5.73333 11.0651 5.8C11.0818 5.86667 11.0985 5.925 11.1151 5.975C11.1318 6.025 11.1485 6.08333 11.1651 6.15C11.1818 6.18333 11.1901 6.225 11.1901 6.275C11.1901 6.30833 11.1985 6.34167 11.2151 6.375C11.2651 6.55833 11.2985 6.75 11.3151 6.95C11.3485 7.15 11.3735 7.35 11.3901 7.55C11.4068 7.66667 11.4068 7.78333 11.3901 7.9C11.3901 8.01667 11.3901 8.14167 11.3901 8.275C11.3901 8.35833 11.3818 8.45 11.3651 8.55C11.3651 8.63333 11.3568 8.71667 11.3401 8.8C11.3401 8.85 11.3235 8.90833 11.2901 8.975C11.1401 9.425 10.8985 9.825 10.5651 10.175C10.4985 10.2417 10.4318 10.3167 10.3651 10.4C10.2985 10.4667 10.2318 10.5333 10.1651 10.6C10.0651 10.7 9.96514 10.7917 9.86514 10.875C9.76514 10.9583 9.66514 11.0417 9.56514 11.125L9.49014 11.2C9.3568 11.2667 9.22347 11.3333 9.09014 11.4C8.9568 11.4667 8.81514 11.5167 8.66514 11.55C8.61514 11.55 8.5818 11.5583 8.56514 11.575C8.44847 11.6417 8.31514 11.675 8.16514 11.675C8.0318 11.675 7.89847 11.6667 7.76514 11.65C7.69847 11.6333 7.6318 11.625 7.56514 11.625C7.51514 11.6083 7.4568 11.6 7.39014 11.6C7.17347 11.6 6.96514 11.6083 6.76514 11.625C6.56514 11.6417 6.3568 11.6667 6.14014 11.7L4.99014 11.875C4.94014 11.875 4.8818 11.8833 4.81514 11.9C4.76514 11.9 4.7068 11.9083 4.64014 11.925C4.52347 11.9417 4.4068 11.9667 4.29014 12C4.19014 12.0167 4.0818 12.0167 3.96514 12C3.91514 12 3.89014 12.0333 3.89014 12.1V12.525C3.8568 12.7083 3.8568 12.8917 3.89014 13.075C3.92347 13.225 3.9068 13.3417 3.84014 13.425C3.79014 13.5417 3.7818 13.6667 3.81514 13.8C3.84847 13.95 3.87347 14.1083 3.89014 14.275C3.92347 14.425 3.9568 14.575 3.99014 14.725C4.0068 14.8083 4.01514 14.8917 4.01514 14.975C4.0318 15.0583 4.04014 15.1417 4.04014 15.225C4.07347 15.575 4.12347 15.925 4.19014 16.275C4.22347 16.375 4.24014 16.475 4.24014 16.575C4.2568 16.6583 4.27347 16.75 4.29014 16.85C4.29014 16.9667 4.2818 17.0583 4.26514 17.125C4.24847 17.175 4.2318 17.2333 4.21514 17.3C4.21514 17.35 4.19847 17.4 4.16514 17.45L4.09014 17.625C4.0568 17.6583 4.02347 17.7083 3.99014 17.775C3.92347 17.9083 3.8068 18.0167 3.64014 18.1C3.44014 18.1833 3.2568 18.2167 3.09014 18.2C3.0068 18.2 2.94847 18.2083 2.91514 18.225C2.8318 18.225 2.7818 18.2583 2.76514 18.325C2.74847 18.3583 2.7318 18.4 2.71514 18.45C2.69847 18.5 2.6818 18.5417 2.66514 18.575C2.66514 18.6417 2.6568 18.7083 2.64014 18.775C2.64014 18.8583 2.6318 18.9417 2.61514 19.025C2.59847 19.1583 2.5318 19.2833 2.41514 19.4C2.31514 19.5 2.19847 19.525 2.06514 19.475ZM4.34014 9.7C4.44014 9.7 4.5318 9.7 4.61514 9.7C4.71514 9.68333 4.81514 9.66667 4.91514 9.65C5.0318 9.61667 5.14847 9.59167 5.26514 9.575C5.3818 9.55833 5.49847 9.54167 5.61514 9.525C5.84847 9.49167 6.07347 9.44167 6.29014 9.375C6.3568 9.35833 6.42347 9.35 6.49014 9.35C6.5568 9.33333 6.62347 9.325 6.69014 9.325C6.8068 9.325 6.89014 9.31667 6.94014 9.3C7.0568 9.26667 7.16514 9.25 7.26514 9.25C7.3818 9.25 7.5068 9.25 7.64014 9.25H8.01514C8.21514 9.23333 8.37347 9.15 8.49014 9L8.69014 8.775C8.7568 8.69167 8.81514 8.60833 8.86514 8.525C8.9318 8.425 8.97347 8.31667 8.99014 8.2C9.02347 7.95 9.01514 7.725 8.96514 7.525C8.91514 7.325 8.8568 7.13333 8.79014 6.95C8.72347 6.75 8.64014 6.56667 8.54014 6.4C8.44014 6.18333 8.29014 6.01667 8.09014 5.9C8.02347 5.88333 7.97347 5.83333 7.94014 5.75C7.9068 5.65 7.84847 5.575 7.76514 5.525C7.74847 5.50833 7.7318 5.49167 7.71514 5.475C7.69847 5.45833 7.67347 5.44167 7.64014 5.425C7.57347 5.35833 7.4818 5.325 7.36514 5.325C7.29847 5.325 7.22347 5.31667 7.14014 5.3C7.07347 5.26667 7.0068 5.24167 6.94014 5.225C6.87347 5.19167 6.8068 5.15833 6.74014 5.125C6.69014 5.09167 6.64014 5.05833 6.59014 5.025C6.42347 4.925 6.24014 4.875 6.04014 4.875C5.89014 4.875 5.72347 4.85 5.54014 4.8C5.3568 4.68333 5.16514 4.61667 4.96514 4.6C4.9318 4.6 4.8818 4.58333 4.81514 4.55L4.61514 4.475C4.51514 4.425 4.4318 4.4 4.36514 4.4C4.14847 4.33333 3.99014 4.40833 3.89014 4.625C3.87347 4.675 3.8568 4.73333 3.84014 4.8C3.82347 4.85 3.8068 4.90833 3.79014 4.975C3.77347 5.10833 3.7568 5.24167 3.74014 5.375C3.72347 5.50833 3.7068 5.64167 3.69014 5.775C3.67347 5.875 3.6568 5.975 3.64014 6.075C3.62347 6.175 3.61514 6.275 3.61514 6.375C3.59847 6.59167 3.59014 6.80833 3.59014 7.025C3.6068 7.24167 3.6318 7.46667 3.66514 7.7V7.95C3.66514 8.06667 3.66514 8.18333 3.66514 8.3C3.6818 8.41667 3.69847 8.53333 3.71514 8.65C3.7318 8.7 3.74014 8.76667 3.74014 8.85L3.81514 9.525C3.81514 9.625 3.86514 9.675 3.96514 9.675C4.0318 9.69167 4.09014 9.7 4.14014 9.7C4.2068 9.7 4.27347 9.7 4.34014 9.7ZM16.3419 18.175C16.2419 18.175 16.1752 18.1667 16.1419 18.15C16.0586 18.1167 15.9752 18.1 15.8919 18.1C15.8252 18.1167 15.7502 18.125 15.6669 18.125C15.6502 18.125 15.6336 18.125 15.6169 18.125C15.6002 18.1417 15.5836 18.15 15.5669 18.15C15.4502 18.1667 15.3336 18.175 15.2169 18.175C15.1169 18.175 15.0169 18.1583 14.9169 18.125C14.9002 18.1083 14.8836 18.1 14.8669 18.1C14.7502 18.1167 14.6502 18.0833 14.5669 18C14.4836 17.9167 14.4002 17.8417 14.3169 17.775C14.2336 17.6917 14.1919 17.6 14.1919 17.5L14.1169 17.3C14.0669 17.1833 14.0502 17.075 14.0669 16.975C14.0836 16.9417 14.0836 16.9083 14.0669 16.875C14.0669 16.8417 14.0669 16.8083 14.0669 16.775C14.0502 16.7417 14.0419 16.7083 14.0419 16.675C14.0419 16.625 14.0336 16.5833 14.0169 16.55C13.9836 16.4 13.9586 16.25 13.9419 16.1C13.9419 15.9333 13.9502 15.775 13.9669 15.625C13.9836 15.525 14.0419 15.3583 14.1419 15.125C14.2419 14.875 14.3002 14.725 14.3169 14.675C14.3669 14.5917 14.3919 14.525 14.3919 14.475C14.3752 14.2917 14.3669 14.1083 14.3669 13.925C14.3836 13.725 14.3919 13.5333 14.3919 13.35C14.3919 13.2333 14.4169 13.1417 14.4669 13.075C14.5336 12.9583 14.5419 12.8333 14.4919 12.7L14.4169 12.425C14.3169 12.2417 14.3252 12.0833 14.4419 11.95C14.4419 11.9333 14.4419 11.925 14.4419 11.925C14.4586 11.9083 14.4669 11.8917 14.4669 11.875C14.5002 11.8417 14.5086 11.8 14.4919 11.75C14.4752 11.6833 14.4669 11.6333 14.4669 11.6C14.4669 11.5333 14.4752 11.4667 14.4919 11.4C14.5252 11.3167 14.5336 11.2417 14.5169 11.175C14.5169 11.175 14.5002 11.1583 14.4669 11.125C14.4502 11.0917 14.4419 11.025 14.4419 10.925C14.4586 10.825 14.4669 10.7667 14.4669 10.75V10.05C14.4836 9.96667 14.4919 9.89167 14.4919 9.825C14.4919 9.74167 14.5002 9.65833 14.5169 9.575C14.5336 9.475 14.5336 9.375 14.5169 9.275C14.5169 9.15833 14.5169 9.04167 14.5169 8.925C14.5002 8.84167 14.4836 8.75 14.4669 8.65C14.4669 8.55 14.4669 8.45 14.4669 8.35C14.4502 8.31667 14.4419 8.275 14.4419 8.225C14.4419 8.175 14.4419 8.13333 14.4419 8.1C14.4252 8.01667 14.4086 7.93333 14.3919 7.85C14.3919 7.76667 14.3919 7.68333 14.3919 7.6C14.3919 7.56667 14.3586 7.45833 14.2919 7.275C14.2252 7.075 14.2002 6.90833 14.2169 6.775C14.2336 6.74167 14.2419 6.7 14.2419 6.65C14.2419 6.6 14.2252 6.55833 14.1919 6.525C14.1586 6.50833 14.1419 6.475 14.1419 6.425V6.35C14.1919 6.15 14.1669 5.95 14.0669 5.75C14.0002 5.65 13.9752 5.55 13.9919 5.45C13.9919 5.31667 13.9336 5.21667 13.8169 5.15C13.7336 5.06667 13.6586 4.96667 13.5919 4.85C13.5252 4.73333 13.4836 4.61667 13.4669 4.5C13.4502 4.41667 13.4419 4.33333 13.4419 4.25C13.4419 4.16667 13.4419 4.09167 13.4419 4.025C13.4419 3.95833 13.4502 3.91667 13.4669 3.9C13.5336 3.83333 13.5669 3.75833 13.5669 3.675C13.5669 3.575 13.5752 3.5 13.5919 3.45C13.6086 3.43333 13.6252 3.425 13.6419 3.425C13.6586 3.425 13.6752 3.41667 13.6919 3.4C13.7586 3.38333 13.7919 3.325 13.7919 3.225C13.7586 3.15833 13.7419 3.1 13.7419 3.05C13.7252 2.98333 13.7502 2.925 13.8169 2.875C13.8502 2.80833 13.8919 2.79167 13.9419 2.825C14.0586 2.875 14.1919 2.85833 14.3419 2.775C14.4086 2.74167 14.4502 2.725 14.4669 2.725C14.5169 2.725 14.5419 2.725 14.5419 2.725C14.5586 2.70833 14.6086 2.7 14.6919 2.7C14.7919 2.71667 14.8836 2.68333 14.9669 2.6C15.0836 2.48333 15.2252 2.425 15.3919 2.425H16.9419C17.3252 2.44167 17.7086 2.44167 18.0919 2.425C18.4752 2.40833 18.8502 2.4 19.2169 2.4C19.3002 2.4 19.3669 2.4 19.4169 2.4C19.4836 2.38333 19.5502 2.36667 19.6169 2.35C19.7169 2.3 19.8336 2.275 19.9669 2.275H20.5419C20.6752 2.275 20.7919 2.275 20.8919 2.275C21.0086 2.25833 21.1252 2.24167 21.2419 2.225C21.3086 2.20833 21.3669 2.2 21.4169 2.2C21.4836 2.2 21.5502 2.2 21.6169 2.2C21.6836 2.2 21.7502 2.2 21.8169 2.2C21.8836 2.2 21.9502 2.19167 22.0169 2.175C22.1502 2.15833 22.2919 2.15 22.4419 2.15C22.5919 2.13333 22.7336 2.125 22.8669 2.125C22.9336 2.125 22.9919 2.125 23.0419 2.125C23.1086 2.10833 23.1752 2.09167 23.2419 2.075C23.3752 2.04167 23.5002 2.025 23.6169 2.025C23.7502 2.00833 23.8752 1.99167 23.9919 1.975C24.1252 1.95833 24.2502 1.94167 24.3669 1.925C24.5002 1.90833 24.6252 1.89167 24.7419 1.875C24.8919 1.875 25.0002 1.89167 25.0669 1.925C25.1669 1.99167 25.2586 2.05 25.3419 2.1C25.4419 2.15 25.5336 2.21667 25.6169 2.3C25.6836 2.36667 25.7252 2.425 25.7419 2.475C25.7586 2.54167 25.7752 2.60833 25.7919 2.675C25.8086 2.74167 25.8252 2.81667 25.8419 2.9V3.075C25.8252 3.15833 25.8086 3.25 25.7919 3.35C25.7919 3.43333 25.7836 3.525 25.7669 3.625C25.7336 3.69167 25.6919 3.75 25.6419 3.8L25.1919 4.25C25.0252 4.3 24.8586 4.33333 24.6919 4.35C24.5419 4.36667 24.3836 4.36667 24.2169 4.35H24.0419C23.9586 4.36667 23.8752 4.375 23.7919 4.375C23.7086 4.375 23.6252 4.36667 23.5419 4.35C23.4419 4.33333 23.3419 4.33333 23.2419 4.35C23.1419 4.35 23.0419 4.35 22.9419 4.35C22.8752 4.35 22.8086 4.35833 22.7419 4.375C22.6919 4.375 22.6336 4.36667 22.5669 4.35C22.4836 4.33333 22.4002 4.33333 22.3169 4.35C22.2502 4.35 22.1752 4.35833 22.0919 4.375C22.0252 4.375 21.9502 4.38333 21.8669 4.4C21.8002 4.4 21.7252 4.4 21.6419 4.4C21.4252 4.43333 21.1919 4.45 20.9419 4.45C20.7086 4.45 20.4752 4.46667 20.2419 4.5C20.0919 4.48333 19.9502 4.49167 19.8169 4.525C19.6836 4.54167 19.5419 4.55833 19.3919 4.575C19.2586 4.59167 19.1169 4.6 18.9669 4.6C18.8169 4.6 18.6752 4.61667 18.5419 4.65C18.3752 4.65 18.2086 4.675 18.0419 4.725C17.8919 4.75833 17.7336 4.78333 17.5669 4.8L17.3919 4.825C17.2752 4.825 17.1669 4.84167 17.0669 4.875C16.9669 4.89167 16.8586 4.91667 16.7419 4.95C16.6752 4.96667 16.6086 4.98333 16.5419 5C16.4752 5 16.4002 5.00833 16.3169 5.025C16.2669 5.025 16.2086 5.04167 16.1419 5.075C16.0919 5.09167 16.0669 5.14167 16.0669 5.225L16.1419 5.45C16.1586 5.48333 16.1502 5.56667 16.1169 5.7C16.1002 5.83333 16.0836 5.93333 16.0669 6C16.0669 6.05 16.0752 6.1 16.0919 6.15C16.1086 6.2 16.1252 6.25 16.1419 6.3C16.1919 6.43333 16.2169 6.58333 16.2169 6.75C16.2169 6.9 16.2336 7.04167 16.2669 7.175C16.2836 7.24167 16.2919 7.31667 16.2919 7.4C16.2919 7.46667 16.3002 7.54167 16.3169 7.625C16.3169 7.65833 16.3169 7.7 16.3169 7.75C16.3336 7.78333 16.3419 7.825 16.3419 7.875C16.3419 7.925 16.3336 7.95833 16.3169 7.975C16.2669 8.04167 16.2419 8.11667 16.2419 8.2C16.2419 8.28333 16.2419 8.36667 16.2419 8.45C16.3252 8.61667 16.3669 8.78333 16.3669 8.95C16.3669 9.11667 16.3669 9.28333 16.3669 9.45C16.3669 9.5 16.4086 9.51667 16.4919 9.5H16.5169C16.5502 9.43333 16.5836 9.38333 16.6169 9.35C16.6669 9.35 16.7252 9.33333 16.7919 9.3C16.8419 9.26667 16.9086 9.25 16.9919 9.25C17.1252 9.26667 17.2502 9.26667 17.3669 9.25C17.4836 9.21667 17.6002 9.18333 17.7169 9.15C18.5002 8.95 19.2336 8.69167 19.9169 8.375C20.1002 8.29167 20.2919 8.225 20.4919 8.175C20.6919 8.10833 20.8919 8.06667 21.0919 8.05H21.1669C21.3169 8.03333 21.4669 8.01667 21.6169 8C21.7669 7.98333 21.9169 7.975 22.0669 7.975C22.2669 7.95833 22.4586 7.93333 22.6419 7.9C22.8419 7.86667 23.0419 7.84167 23.2419 7.825C23.3586 7.79167 23.4669 7.76667 23.5669 7.75C23.6669 7.71667 23.7752 7.675 23.8919 7.625C24.1086 7.54167 24.3086 7.5 24.4919 7.5C24.6252 7.51667 24.7502 7.55 24.8669 7.6C24.9836 7.63333 25.1002 7.68333 25.2169 7.75C25.4669 7.91667 25.5919 8.16667 25.5919 8.5C25.5919 8.63333 25.5752 8.76667 25.5419 8.9C25.5252 9.03333 25.5169 9.16667 25.5169 9.3C25.5169 9.33333 25.5002 9.36667 25.4669 9.4L25.3919 9.525C25.3752 9.59167 25.3586 9.65833 25.3419 9.725C25.3252 9.79167 25.2836 9.84167 25.2169 9.875C25.1169 9.95833 25.0086 10.05 24.8919 10.15C24.7919 10.2333 24.6752 10.2917 24.5419 10.325C24.4752 10.3417 24.4086 10.3583 24.3419 10.375C24.2919 10.3917 24.2336 10.4 24.1669 10.4C23.9002 10.4 23.6252 10.4167 23.3419 10.45C23.0752 10.4833 22.8002 10.5167 22.5169 10.55C22.3002 10.5667 22.0836 10.5917 21.8669 10.625C21.6669 10.6583 21.4586 10.675 21.2419 10.675C21.0419 10.675 20.8169 10.7167 20.5669 10.8C20.4002 10.8333 20.2252 10.8667 20.0419 10.9C19.8586 10.9333 19.6752 10.9583 19.4919 10.975C19.3586 10.9917 19.2169 11.0167 19.0669 11.05C18.9336 11.0667 18.8002 11.0833 18.6669 11.1L18.2419 11.175C18.2086 11.1917 18.1586 11.2 18.0919 11.2C17.9752 11.2333 17.8586 11.2583 17.7419 11.275C17.6252 11.2917 17.5086 11.3167 17.3919 11.35C17.2752 11.3667 17.1586 11.3917 17.0419 11.425C16.9419 11.4583 16.8336 11.4917 16.7169 11.525C16.6336 11.5417 16.5669 11.575 16.5169 11.625C16.4669 11.6583 16.4252 11.7083 16.3919 11.775C16.3752 11.825 16.3752 11.875 16.3919 11.925C16.4086 11.9917 16.4002 12.0583 16.3669 12.125C16.3836 12.2917 16.3919 12.4583 16.3919 12.625C16.4086 12.7917 16.4086 12.9583 16.3919 13.125C16.4252 13.2583 16.4336 13.3917 16.4169 13.525C16.4169 13.6583 16.4086 13.7917 16.3919 13.925C16.3586 14.125 16.3669 14.2917 16.4169 14.425C16.4669 14.6417 16.4502 14.8667 16.3669 15.1C16.3336 15.2 16.3336 15.2667 16.3669 15.3C16.4002 15.35 16.4002 15.4083 16.3669 15.475V15.625C16.3502 15.7583 16.4086 15.825 16.5419 15.825H16.5919C16.7086 15.825 16.8252 15.8667 16.9419 15.95C17.0252 16.0333 17.1252 16.0583 17.2419 16.025L17.9419 15.95C18.0419 15.9333 18.1419 15.925 18.2419 15.925C18.3419 15.9083 18.4419 15.9 18.5419 15.9C18.5752 15.8833 18.6252 15.8917 18.6919 15.925C18.7752 15.975 18.8502 15.9833 18.9169 15.95C18.9502 15.9167 18.9919 15.8917 19.0419 15.875C19.1086 15.8583 19.1586 15.8333 19.1919 15.8C19.2919 15.7 19.4169 15.6667 19.5669 15.7C19.7002 15.7333 19.8086 15.725 19.8919 15.675C20.0419 15.625 20.1836 15.6083 20.3169 15.625C20.4002 15.6417 20.4836 15.6333 20.5669 15.6C20.6502 15.5667 20.7336 15.55 20.8169 15.55C20.8502 15.55 20.8752 15.5583 20.8919 15.575C20.9086 15.575 20.9252 15.5667 20.9419 15.55C20.9752 15.55 21.0086 15.5417 21.0419 15.525C21.0752 15.5083 21.1002 15.5 21.1169 15.5C21.2336 15.45 21.3419 15.4333 21.4419 15.45C21.5252 15.45 21.5669 15.45 21.5669 15.45C21.6336 15.4333 21.6919 15.4333 21.7419 15.45C21.8086 15.4667 21.8669 15.4917 21.9169 15.525C22.0002 15.5417 22.0669 15.5667 22.1169 15.6C22.1836 15.6333 22.2502 15.6583 22.3169 15.675C22.3502 15.675 22.3752 15.6833 22.3919 15.7C22.4752 15.7667 22.5752 15.825 22.6919 15.875C22.8252 15.925 22.9002 15.9833 22.9169 16.05C22.9502 16.15 22.9669 16.25 22.9669 16.35C22.9669 16.4333 22.9752 16.525 22.9919 16.625C22.9919 16.675 22.9836 16.725 22.9669 16.775C22.9669 16.825 22.9586 16.875 22.9419 16.925C22.9086 16.9917 22.8669 17.0667 22.8169 17.15C22.7836 17.2333 22.7336 17.3083 22.6669 17.375C22.6336 17.4083 22.6002 17.4417 22.5669 17.475C22.5502 17.5083 22.5252 17.5417 22.4919 17.575C22.4252 17.6417 22.3502 17.7 22.2669 17.75C22.1836 17.8 22.0919 17.825 21.9919 17.825C21.9252 17.825 21.8752 17.8333 21.8419 17.85C21.7752 17.8833 21.7086 17.9 21.6419 17.9C21.5752 17.9 21.5002 17.9 21.4169 17.9C21.3002 17.9167 21.1836 17.9333 21.0669 17.95C20.9669 17.95 20.8586 17.9417 20.7419 17.925C20.6752 17.9083 20.6169 17.9083 20.5669 17.925C20.4002 17.975 20.2336 17.9833 20.0669 17.95C19.9002 17.95 19.7336 17.9583 19.5669 17.975C19.4169 17.975 19.2669 17.975 19.1169 17.975H18.7919C18.7419 17.975 18.7002 17.9833 18.6669 18C18.6002 18.0333 18.5169 18.05 18.4169 18.05C18.3336 18.05 18.2502 18.0417 18.1669 18.025H17.9169C17.9002 18.025 17.8752 18.025 17.8419 18.025C17.8086 18.0417 17.7752 18.0417 17.7419 18.025C17.6919 18.0083 17.6419 18 17.5919 18C17.5586 18.0167 17.5169 18.0333 17.4669 18.05C17.4336 18.05 17.4002 18.05 17.3669 18.05C17.3502 18.0667 17.3252 18.075 17.2919 18.075C17.1252 18.0583 16.9669 18.0583 16.8169 18.075C16.6669 18.1083 16.5086 18.1417 16.3419 18.175ZM31.0886 18.975C30.7219 19.0417 30.3969 18.925 30.1136 18.625C30.0636 18.575 30.0136 18.5167 29.9636 18.45C29.9302 18.3833 29.8886 18.3167 29.8386 18.25L29.7636 18.05C29.6302 17.7 29.5136 17.35 29.4136 17C29.3302 16.6333 29.2636 16.2667 29.2136 15.9C29.1636 15.65 29.1386 15.4167 29.1386 15.2C29.1219 14.9833 29.0969 14.7667 29.0636 14.55C29.0469 14.3333 29.0386 14.1167 29.0386 13.9C29.0386 13.8 29.0386 13.7 29.0386 13.6C29.0386 13.4833 29.0219 13.3667 28.9886 13.25V13.2C28.9719 13.0167 28.9552 12.8333 28.9386 12.65C28.9386 12.45 28.9219 12.2583 28.8886 12.075L28.8136 10.925C28.7969 10.7583 28.7802 10.6 28.7636 10.45C28.7469 10.3 28.7219 10.1417 28.6886 9.975C28.6886 9.90833 28.6802 9.85 28.6636 9.8C28.6636 9.73333 28.6636 9.66667 28.6636 9.6C28.6636 9.46667 28.6636 9.33333 28.6636 9.2C28.6636 9.06667 28.6552 8.94167 28.6386 8.825C28.6219 8.75833 28.6136 8.66667 28.6136 8.55V7.75C28.6302 7.51667 28.6219 7.28333 28.5886 7.05C28.5552 6.81667 28.5219 6.59167 28.4886 6.375L28.2636 5.025C28.2469 4.99167 28.2386 4.95 28.2386 4.9C28.2386 4.85 28.2386 4.80833 28.2386 4.775C28.2386 4.74167 28.2386 4.7 28.2386 4.65C28.2386 4.6 28.2302 4.55833 28.2136 4.525C28.1636 4.34167 28.1552 4.175 28.1886 4.025C28.2219 3.85833 28.2636 3.69167 28.3136 3.525C28.3302 3.50833 28.3552 3.46667 28.3886 3.4C28.4719 3.31667 28.5469 3.24167 28.6136 3.175C28.6802 3.09167 28.7636 3.025 28.8636 2.975C28.9636 2.94167 29.0386 2.86667 29.0886 2.75L29.1636 2.575C29.3302 2.275 29.5886 2.06667 29.9386 1.95C29.9552 1.93333 29.9719 1.925 29.9886 1.925C30.0219 1.925 30.0469 1.91667 30.0636 1.9C30.2802 1.8 30.5052 1.79167 30.7386 1.875C30.8219 1.89167 30.9052 1.91667 30.9886 1.95C31.0719 1.96667 31.1469 1.99167 31.2136 2.025C31.3302 2.075 31.4386 2.13333 31.5386 2.2C31.6386 2.25 31.7469 2.3 31.8636 2.35C32.1636 2.5 32.4636 2.65 32.7636 2.8C33.0636 2.93333 33.3636 3.06667 33.6636 3.2L34.3136 3.5C34.4136 3.55 34.5136 3.6 34.6136 3.65C34.7136 3.68333 34.8136 3.725 34.9136 3.775L35.1136 3.85C35.2136 3.91667 35.3136 3.98333 35.4136 4.05C35.5136 4.1 35.6219 4.15833 35.7386 4.225C35.9052 4.30833 36.0636 4.41667 36.2136 4.55C36.3636 4.68333 36.4969 4.81667 36.6136 4.95C36.7136 5.05 36.7719 5.14167 36.7886 5.225C36.8386 5.35833 36.8886 5.5 36.9386 5.65C36.9886 5.78333 37.0219 5.91667 37.0386 6.05C37.0719 6.11667 37.0719 6.19167 37.0386 6.275C36.9886 6.39167 36.9386 6.51667 36.8886 6.65C36.8552 6.76667 36.8219 6.89167 36.7886 7.025C36.6719 7.34167 36.4886 7.625 36.2386 7.875C36.0219 8.09167 35.8136 8.26667 35.6136 8.4C35.5302 8.45 35.4469 8.50833 35.3636 8.575C35.2802 8.625 35.1969 8.675 35.1136 8.725C34.9302 8.84167 34.7386 8.95 34.5386 9.05C34.3386 9.15 34.1302 9.23333 33.9136 9.3C33.8636 9.3 33.8219 9.31667 33.7886 9.35C33.6219 9.41667 33.4636 9.48333 33.3136 9.55C33.1636 9.61667 33.0136 9.69167 32.8636 9.775C32.7136 9.85833 32.6136 9.975 32.5636 10.125C32.5636 10.1417 32.5552 10.1583 32.5386 10.175C32.5386 10.175 32.5386 10.1917 32.5386 10.225C32.5219 10.3583 32.4636 10.475 32.3636 10.575C32.2802 10.675 32.1969 10.7833 32.1136 10.9C32.1136 10.9167 32.1052 10.925 32.0886 10.925C32.0719 10.925 32.0552 10.9333 32.0386 10.95L31.7386 11.1C31.6552 11.1333 31.6136 11.2083 31.6136 11.325C31.6136 11.3917 31.6136 11.4667 31.6136 11.55C31.6136 11.6167 31.6219 11.6833 31.6386 11.75L31.7386 12.3C31.7386 12.3667 31.7386 12.4333 31.7386 12.5C31.7552 12.55 31.7552 12.6167 31.7386 12.7C31.7386 12.8333 31.7386 12.975 31.7386 13.125C31.7552 13.275 31.7719 13.4167 31.7886 13.55C31.8052 13.6167 31.8136 13.6833 31.8136 13.75C31.8136 13.8 31.8136 13.8583 31.8136 13.925C31.8136 14.0083 31.8136 14.1 31.8136 14.2C31.8302 14.2833 31.8469 14.3667 31.8636 14.45C31.8636 14.4667 31.8636 14.4917 31.8636 14.525C31.8802 14.5417 31.8886 14.5667 31.8886 14.6C31.8719 14.8 31.8719 15.0083 31.8886 15.225C31.9219 15.425 31.9469 15.625 31.9636 15.825V15.925C31.9469 16.0583 31.9386 16.2 31.9386 16.35C31.9552 16.4833 31.9636 16.625 31.9636 16.775C31.9636 16.9917 31.9969 17.175 32.0636 17.325C32.1136 17.425 32.1302 17.525 32.1136 17.625C32.0969 17.725 32.0719 17.825 32.0386 17.925C32.0219 17.975 31.9969 18.025 31.9636 18.075C31.9469 18.1417 31.9219 18.2 31.8886 18.25C31.7552 18.5167 31.5802 18.725 31.3636 18.875C31.2636 18.9417 31.1719 18.975 31.0886 18.975ZM31.3886 8.05L31.5386 7.975C31.8219 7.79167 32.1052 7.625 32.3886 7.475C32.6886 7.325 32.9886 7.175 33.2886 7.025L33.7636 6.775C33.8636 6.70833 33.9552 6.65 34.0386 6.6C34.1386 6.55 34.2302 6.49167 34.3136 6.425C34.3302 6.40833 34.3552 6.36667 34.3886 6.3C34.4052 6.3 34.4136 6.29167 34.4136 6.275C34.4136 6.25833 34.4052 6.25 34.3886 6.25C34.3386 6.2 34.3136 6.175 34.3136 6.175C34.2302 6.125 34.1386 6.075 34.0386 6.025C33.9386 5.95833 33.8386 5.9 33.7386 5.85C33.6552 5.81667 33.5636 5.775 33.4636 5.725C33.3636 5.675 33.2636 5.625 33.1636 5.575C32.7636 5.39167 32.3719 5.20833 31.9886 5.025C31.8719 4.975 31.7552 4.93333 31.6386 4.9C31.5386 4.85 31.4302 4.8 31.3136 4.75C31.3136 4.75 31.2802 4.73333 31.2136 4.7C31.1469 4.7 31.1136 4.725 31.1136 4.775C31.0969 4.84167 31.0802 4.90833 31.0636 4.975C31.0469 5.025 31.0302 5.08333 31.0136 5.15V5.975C31.0136 6.125 31.0136 6.275 31.0136 6.425C31.0302 6.575 31.0552 6.71667 31.0886 6.85C31.0886 6.96667 31.0969 7.09167 31.1136 7.225C31.1302 7.34167 31.1469 7.46667 31.1636 7.6L31.2386 8C31.2719 8.06667 31.3219 8.08333 31.3886 8.05ZM41.586 18.175C41.486 18.175 41.4194 18.1667 41.386 18.15C41.3027 18.1167 41.2194 18.1 41.136 18.1C41.0694 18.1167 40.9944 18.125 40.911 18.125C40.8944 18.125 40.8777 18.125 40.861 18.125C40.8444 18.1417 40.8277 18.15 40.811 18.15C40.6944 18.1667 40.5777 18.175 40.461 18.175C40.361 18.175 40.261 18.1583 40.161 18.125C40.1444 18.1083 40.1277 18.1 40.111 18.1C39.9944 18.1167 39.8944 18.0833 39.811 18C39.7277 17.9167 39.6444 17.8417 39.561 17.775C39.4777 17.6917 39.436 17.6 39.436 17.5L39.361 17.3C39.311 17.1833 39.2944 17.075 39.311 16.975C39.3277 16.9417 39.3277 16.9083 39.311 16.875C39.311 16.8417 39.311 16.8083 39.311 16.775C39.2944 16.7417 39.286 16.7083 39.286 16.675C39.286 16.625 39.2777 16.5833 39.261 16.55C39.2277 16.4 39.2027 16.25 39.186 16.1C39.186 15.9333 39.1944 15.775 39.211 15.625C39.2277 15.525 39.286 15.3583 39.386 15.125C39.486 14.875 39.5444 14.725 39.561 14.675C39.611 14.5917 39.636 14.525 39.636 14.475C39.6194 14.2917 39.611 14.1083 39.611 13.925C39.6277 13.725 39.636 13.5333 39.636 13.35C39.636 13.2333 39.661 13.1417 39.711 13.075C39.7777 12.9583 39.786 12.8333 39.736 12.7L39.661 12.425C39.561 12.2417 39.5694 12.0833 39.686 11.95C39.686 11.9333 39.686 11.925 39.686 11.925C39.7027 11.9083 39.711 11.8917 39.711 11.875C39.7444 11.8417 39.7527 11.8 39.736 11.75C39.7194 11.6833 39.711 11.6333 39.711 11.6C39.711 11.5333 39.7194 11.4667 39.736 11.4C39.7694 11.3167 39.7777 11.2417 39.761 11.175C39.761 11.175 39.7444 11.1583 39.711 11.125C39.6944 11.0917 39.686 11.025 39.686 10.925C39.7027 10.825 39.711 10.7667 39.711 10.75V10.05C39.7277 9.96667 39.736 9.89167 39.736 9.825C39.736 9.74167 39.7444 9.65833 39.761 9.575C39.7777 9.475 39.7777 9.375 39.761 9.275C39.761 9.15833 39.761 9.04167 39.761 8.925C39.7444 8.84167 39.7277 8.75 39.711 8.65C39.711 8.55 39.711 8.45 39.711 8.35C39.6944 8.31667 39.686 8.275 39.686 8.225C39.686 8.175 39.686 8.13333 39.686 8.1C39.6694 8.01667 39.6527 7.93333 39.636 7.85C39.636 7.76667 39.636 7.68333 39.636 7.6C39.636 7.56667 39.6027 7.45833 39.536 7.275C39.4694 7.075 39.4444 6.90833 39.461 6.775C39.4777 6.74167 39.486 6.7 39.486 6.65C39.486 6.6 39.4694 6.55833 39.436 6.525C39.4027 6.50833 39.386 6.475 39.386 6.425V6.35C39.436 6.15 39.411 5.95 39.311 5.75C39.2444 5.65 39.2194 5.55 39.236 5.45C39.236 5.31667 39.1777 5.21667 39.061 5.15C38.9777 5.06667 38.9027 4.96667 38.836 4.85C38.7694 4.73333 38.7277 4.61667 38.711 4.5C38.6944 4.41667 38.686 4.33333 38.686 4.25C38.686 4.16667 38.686 4.09167 38.686 4.025C38.686 3.95833 38.6944 3.91667 38.711 3.9C38.7777 3.83333 38.811 3.75833 38.811 3.675C38.811 3.575 38.8194 3.5 38.836 3.45C38.8527 3.43333 38.8694 3.425 38.886 3.425C38.9027 3.425 38.9194 3.41667 38.936 3.4C39.0027 3.38333 39.036 3.325 39.036 3.225C39.0027 3.15833 38.986 3.1 38.986 3.05C38.9694 2.98333 38.9944 2.925 39.061 2.875C39.0944 2.80833 39.136 2.79167 39.186 2.825C39.3027 2.875 39.436 2.85833 39.586 2.775C39.6527 2.74167 39.6944 2.725 39.711 2.725C39.761 2.725 39.786 2.725 39.786 2.725C39.8027 2.70833 39.8527 2.7 39.936 2.7C40.036 2.71667 40.1277 2.68333 40.211 2.6C40.3277 2.48333 40.4694 2.425 40.636 2.425H42.186C42.5694 2.44167 42.9527 2.44167 43.336 2.425C43.7194 2.40833 44.0944 2.4 44.461 2.4C44.5444 2.4 44.611 2.4 44.661 2.4C44.7277 2.38333 44.7944 2.36667 44.861 2.35C44.961 2.3 45.0777 2.275 45.211 2.275H45.786C45.9194 2.275 46.036 2.275 46.136 2.275C46.2527 2.25833 46.3694 2.24167 46.486 2.225C46.5527 2.20833 46.611 2.2 46.661 2.2C46.7277 2.2 46.7944 2.2 46.861 2.2C46.9277 2.2 46.9944 2.2 47.061 2.2C47.1277 2.2 47.1944 2.19167 47.261 2.175C47.3944 2.15833 47.536 2.15 47.686 2.15C47.836 2.13333 47.9777 2.125 48.111 2.125C48.1777 2.125 48.236 2.125 48.286 2.125C48.3527 2.10833 48.4194 2.09167 48.486 2.075C48.6194 2.04167 48.7444 2.025 48.861 2.025C48.9944 2.00833 49.1194 1.99167 49.236 1.975C49.3694 1.95833 49.4944 1.94167 49.611 1.925C49.7444 1.90833 49.8694 1.89167 49.986 1.875C50.136 1.875 50.2444 1.89167 50.311 1.925C50.411 1.99167 50.5027 2.05 50.586 2.1C50.686 2.15 50.7777 2.21667 50.861 2.3C50.9277 2.36667 50.9694 2.425 50.986 2.475C51.0027 2.54167 51.0194 2.60833 51.036 2.675C51.0527 2.74167 51.0694 2.81667 51.086 2.9V3.075C51.0694 3.15833 51.0527 3.25 51.036 3.35C51.036 3.43333 51.0277 3.525 51.011 3.625C50.9777 3.69167 50.936 3.75 50.886 3.8L50.436 4.25C50.2694 4.3 50.1027 4.33333 49.936 4.35C49.786 4.36667 49.6277 4.36667 49.461 4.35H49.286C49.2027 4.36667 49.1194 4.375 49.036 4.375C48.9527 4.375 48.8694 4.36667 48.786 4.35C48.686 4.33333 48.586 4.33333 48.486 4.35C48.386 4.35 48.286 4.35 48.186 4.35C48.1194 4.35 48.0527 4.35833 47.986 4.375C47.936 4.375 47.8777 4.36667 47.811 4.35C47.7277 4.33333 47.6444 4.33333 47.561 4.35C47.4944 4.35 47.4194 4.35833 47.336 4.375C47.2694 4.375 47.1944 4.38333 47.111 4.4C47.0444 4.4 46.9694 4.4 46.886 4.4C46.6694 4.43333 46.436 4.45 46.186 4.45C45.9527 4.45 45.7194 4.46667 45.486 4.5C45.336 4.48333 45.1944 4.49167 45.061 4.525C44.9277 4.54167 44.786 4.55833 44.636 4.575C44.5027 4.59167 44.361 4.6 44.211 4.6C44.061 4.6 43.9194 4.61667 43.786 4.65C43.6194 4.65 43.4527 4.675 43.286 4.725C43.136 4.75833 42.9777 4.78333 42.811 4.8L42.636 4.825C42.5194 4.825 42.411 4.84167 42.311 4.875C42.211 4.89167 42.1027 4.91667 41.986 4.95C41.9194 4.96667 41.8527 4.98333 41.786 5C41.7194 5 41.6444 5.00833 41.561 5.025C41.511 5.025 41.4527 5.04167 41.386 5.075C41.336 5.09167 41.311 5.14167 41.311 5.225L41.386 5.45C41.4027 5.48333 41.3944 5.56667 41.361 5.7C41.3444 5.83333 41.3277 5.93333 41.311 6C41.311 6.05 41.3194 6.1 41.336 6.15C41.3527 6.2 41.3694 6.25 41.386 6.3C41.436 6.43333 41.461 6.58333 41.461 6.75C41.461 6.9 41.4777 7.04167 41.511 7.175C41.5277 7.24167 41.536 7.31667 41.536 7.4C41.536 7.46667 41.5444 7.54167 41.561 7.625C41.561 7.65833 41.561 7.7 41.561 7.75C41.5777 7.78333 41.586 7.825 41.586 7.875C41.586 7.925 41.5777 7.95833 41.561 7.975C41.511 8.04167 41.486 8.11667 41.486 8.2C41.486 8.28333 41.486 8.36667 41.486 8.45C41.5694 8.61667 41.611 8.78333 41.611 8.95C41.611 9.11667 41.611 9.28333 41.611 9.45C41.611 9.5 41.6527 9.51667 41.736 9.5H41.761C41.7944 9.43333 41.8277 9.38333 41.861 9.35C41.911 9.35 41.9694 9.33333 42.036 9.3C42.086 9.26667 42.1527 9.25 42.236 9.25C42.3694 9.26667 42.4944 9.26667 42.611 9.25C42.7277 9.21667 42.8444 9.18333 42.961 9.15C43.7444 8.95 44.4777 8.69167 45.161 8.375C45.3444 8.29167 45.536 8.225 45.736 8.175C45.936 8.10833 46.136 8.06667 46.336 8.05H46.411C46.561 8.03333 46.711 8.01667 46.861 8C47.011 7.98333 47.161 7.975 47.311 7.975C47.511 7.95833 47.7027 7.93333 47.886 7.9C48.086 7.86667 48.286 7.84167 48.486 7.825C48.6027 7.79167 48.711 7.76667 48.811 7.75C48.911 7.71667 49.0194 7.675 49.136 7.625C49.3527 7.54167 49.5527 7.5 49.736 7.5C49.8694 7.51667 49.9944 7.55 50.111 7.6C50.2277 7.63333 50.3444 7.68333 50.461 7.75C50.711 7.91667 50.836 8.16667 50.836 8.5C50.836 8.63333 50.8194 8.76667 50.786 8.9C50.7694 9.03333 50.761 9.16667 50.761 9.3C50.761 9.33333 50.7444 9.36667 50.711 9.4L50.636 9.525C50.6194 9.59167 50.6027 9.65833 50.586 9.725C50.5694 9.79167 50.5277 9.84167 50.461 9.875C50.361 9.95833 50.2527 10.05 50.136 10.15C50.036 10.2333 49.9194 10.2917 49.786 10.325C49.7194 10.3417 49.6527 10.3583 49.586 10.375C49.536 10.3917 49.4777 10.4 49.411 10.4C49.1444 10.4 48.8694 10.4167 48.586 10.45C48.3194 10.4833 48.0444 10.5167 47.761 10.55C47.5444 10.5667 47.3277 10.5917 47.111 10.625C46.911 10.6583 46.7027 10.675 46.486 10.675C46.286 10.675 46.061 10.7167 45.811 10.8C45.6444 10.8333 45.4694 10.8667 45.286 10.9C45.1027 10.9333 44.9194 10.9583 44.736 10.975C44.6027 10.9917 44.461 11.0167 44.311 11.05C44.1777 11.0667 44.0444 11.0833 43.911 11.1L43.486 11.175C43.4527 11.1917 43.4027 11.2 43.336 11.2C43.2194 11.2333 43.1027 11.2583 42.986 11.275C42.8694 11.2917 42.7527 11.3167 42.636 11.35C42.5194 11.3667 42.4027 11.3917 42.286 11.425C42.186 11.4583 42.0777 11.4917 41.961 11.525C41.8777 11.5417 41.811 11.575 41.761 11.625C41.711 11.6583 41.6694 11.7083 41.636 11.775C41.6194 11.825 41.6194 11.875 41.636 11.925C41.6527 11.9917 41.6444 12.0583 41.611 12.125C41.6277 12.2917 41.636 12.4583 41.636 12.625C41.6527 12.7917 41.6527 12.9583 41.636 13.125C41.6694 13.2583 41.6777 13.3917 41.661 13.525C41.661 13.6583 41.6527 13.7917 41.636 13.925C41.6027 14.125 41.611 14.2917 41.661 14.425C41.711 14.6417 41.6944 14.8667 41.611 15.1C41.5777 15.2 41.5777 15.2667 41.611 15.3C41.6444 15.35 41.6444 15.4083 41.611 15.475V15.625C41.5944 15.7583 41.6527 15.825 41.786 15.825H41.836C41.9527 15.825 42.0694 15.8667 42.186 15.95C42.2694 16.0333 42.3694 16.0583 42.486 16.025L43.186 15.95C43.286 15.9333 43.386 15.925 43.486 15.925C43.586 15.9083 43.686 15.9 43.786 15.9C43.8194 15.8833 43.8694 15.8917 43.936 15.925C44.0194 15.975 44.0944 15.9833 44.161 15.95C44.1944 15.9167 44.236 15.8917 44.286 15.875C44.3527 15.8583 44.4027 15.8333 44.436 15.8C44.536 15.7 44.661 15.6667 44.811 15.7C44.9444 15.7333 45.0527 15.725 45.136 15.675C45.286 15.625 45.4277 15.6083 45.561 15.625C45.6444 15.6417 45.7277 15.6333 45.811 15.6C45.8944 15.5667 45.9777 15.55 46.061 15.55C46.0944 15.55 46.1194 15.5583 46.136 15.575C46.1527 15.575 46.1694 15.5667 46.186 15.55C46.2194 15.55 46.2527 15.5417 46.286 15.525C46.3194 15.5083 46.3444 15.5 46.361 15.5C46.4777 15.45 46.586 15.4333 46.686 15.45C46.7694 15.45 46.811 15.45 46.811 15.45C46.8777 15.4333 46.936 15.4333 46.986 15.45C47.0527 15.4667 47.111 15.4917 47.161 15.525C47.2444 15.5417 47.311 15.5667 47.361 15.6C47.4277 15.6333 47.4944 15.6583 47.561 15.675C47.5944 15.675 47.6194 15.6833 47.636 15.7C47.7194 15.7667 47.8194 15.825 47.936 15.875C48.0694 15.925 48.1444 15.9833 48.161 16.05C48.1944 16.15 48.211 16.25 48.211 16.35C48.211 16.4333 48.2194 16.525 48.236 16.625C48.236 16.675 48.2277 16.725 48.211 16.775C48.211 16.825 48.2027 16.875 48.186 16.925C48.1527 16.9917 48.111 17.0667 48.061 17.15C48.0277 17.2333 47.9777 17.3083 47.911 17.375C47.8777 17.4083 47.8444 17.4417 47.811 17.475C47.7944 17.5083 47.7694 17.5417 47.736 17.575C47.6694 17.6417 47.5944 17.7 47.511 17.75C47.4277 17.8 47.336 17.825 47.236 17.825C47.1694 17.825 47.1194 17.8333 47.086 17.85C47.0194 17.8833 46.9527 17.9 46.886 17.9C46.8194 17.9 46.7444 17.9 46.661 17.9C46.5444 17.9167 46.4277 17.9333 46.311 17.95C46.211 17.95 46.1027 17.9417 45.986 17.925C45.9194 17.9083 45.861 17.9083 45.811 17.925C45.6444 17.975 45.4777 17.9833 45.311 17.95C45.1444 17.95 44.9777 17.9583 44.811 17.975C44.661 17.975 44.511 17.975 44.361 17.975H44.036C43.986 17.975 43.9444 17.9833 43.911 18C43.8444 18.0333 43.761 18.05 43.661 18.05C43.5777 18.05 43.4944 18.0417 43.411 18.025H43.161C43.1444 18.025 43.1194 18.025 43.086 18.025C43.0527 18.0417 43.0194 18.0417 42.986 18.025C42.936 18.0083 42.886 18 42.836 18C42.8027 18.0167 42.761 18.0333 42.711 18.05C42.6777 18.05 42.6444 18.05 42.611 18.05C42.5944 18.0667 42.5694 18.075 42.536 18.075C42.3694 18.0583 42.211 18.0583 42.061 18.075C41.911 18.1083 41.7527 18.1417 41.586 18.175ZM57.7851 18.25C57.7684 18.2333 57.7434 18.225 57.7101 18.225C57.5434 18.125 57.3767 18.0333 57.2101 17.95C57.0601 17.85 56.9184 17.7417 56.7851 17.625C56.7184 17.5917 56.6767 17.5583 56.6601 17.525C56.5101 17.4417 56.3767 17.3417 56.2601 17.225C56.1434 17.0917 56.0351 16.95 55.9351 16.8C55.9017 16.7667 55.8684 16.725 55.8351 16.675C55.8017 16.625 55.7601 16.575 55.7101 16.525C55.5434 16.3583 55.4101 16.1583 55.3101 15.925C55.2934 15.875 55.2684 15.825 55.2351 15.775C55.2017 15.725 55.1684 15.675 55.1351 15.625C55.0351 15.4917 54.9601 15.3667 54.9101 15.25C54.8767 15.1167 54.8267 14.9917 54.7601 14.875C54.6934 14.7417 54.6267 14.6167 54.5601 14.5C54.5434 14.4333 54.5184 14.3667 54.4851 14.3C54.4517 14.2333 54.4267 14.1667 54.4101 14.1C54.4101 14.0167 54.3851 13.925 54.3351 13.825C54.2684 13.6417 54.2017 13.4583 54.1351 13.275C54.0851 13.075 54.0351 12.875 53.9851 12.675C53.9517 12.6083 53.9351 12.5583 53.9351 12.525C53.8351 12.3083 53.7601 12.0833 53.7101 11.85C53.6601 11.6167 53.6101 11.3917 53.5601 11.175L53.4101 10.05C53.3934 10.0167 53.3851 9.975 53.3851 9.925C53.3851 9.875 53.3851 9.83333 53.3851 9.8C53.3851 9.7 53.3851 9.60833 53.3851 9.525C53.3851 9.425 53.3684 9.325 53.3351 9.225C53.3017 9.00833 53.3101 8.80833 53.3601 8.625C53.3601 8.55833 53.3601 8.5 53.3601 8.45C53.3767 8.38333 53.3851 8.31667 53.3851 8.25C53.3851 8.16667 53.3851 8.08333 53.3851 8C53.4017 7.9 53.4184 7.81667 53.4351 7.75C53.4517 7.7 53.4601 7.63333 53.4601 7.55C53.4934 7.4 53.5101 7.25833 53.5101 7.125C53.5267 6.975 53.5434 6.83333 53.5601 6.7C53.6101 6.46667 53.6351 6.24167 53.6351 6.025C53.6351 5.95833 53.6351 5.9 53.6351 5.85C53.6517 5.78333 53.6684 5.71667 53.6851 5.65C53.6851 5.5 53.6767 5.39167 53.6601 5.325C53.6101 5.25833 53.6017 5.16667 53.6351 5.05C53.6684 4.98333 53.6851 4.93333 53.6851 4.9C53.7017 4.86667 53.7101 4.83333 53.7101 4.8C53.7101 4.75 53.7351 4.71667 53.7851 4.7H53.9601C54.0267 4.7 54.0684 4.675 54.0851 4.625C54.1017 4.55833 54.1601 4.50833 54.2601 4.475C54.3434 4.44167 54.4184 4.41667 54.4851 4.4C54.5517 4.36667 54.6184 4.325 54.6851 4.275C54.7351 4.24167 54.7934 4.225 54.8601 4.225C54.9267 4.225 54.9934 4.23333 55.0601 4.25L55.5101 4.4C55.5267 4.41667 55.5351 4.425 55.5351 4.425C55.5517 4.425 55.5684 4.43333 55.5851 4.45C55.7184 4.58333 55.8267 4.73333 55.9101 4.9C56.0101 5.06667 56.0684 5.25 56.0851 5.45C56.0851 5.51667 56.0851 5.58333 56.0851 5.65C56.0851 5.7 56.0684 5.75833 56.0351 5.825C56.0184 5.925 56.0017 6.025 55.9851 6.125C55.9684 6.225 55.9517 6.33333 55.9351 6.45C55.9017 6.61667 55.8767 6.78333 55.8601 6.95C55.8601 7.1 55.8601 7.25833 55.8601 7.425C55.8434 7.49167 55.8351 7.55833 55.8351 7.625C55.8351 7.675 55.8267 7.73333 55.8101 7.8C55.7934 8 55.7851 8.2 55.7851 8.4C55.7851 8.6 55.8017 8.79167 55.8351 8.975C55.8351 8.99167 55.8351 9.01667 55.8351 9.05C55.8517 9.08333 55.8517 9.11667 55.8351 9.15C55.8351 9.31667 55.8517 9.49167 55.8851 9.675C55.9184 9.85833 55.9434 10.0417 55.9601 10.225C55.9767 10.3917 55.9934 10.55 56.0101 10.7C56.0267 10.85 56.0517 11 56.0851 11.15C56.1184 11.2167 56.1351 11.2833 56.1351 11.35C56.1517 11.4167 56.1684 11.4833 56.1851 11.55C56.2517 11.8667 56.3267 12.175 56.4101 12.475C56.4934 12.775 56.6017 13.075 56.7351 13.375C56.8184 13.5583 56.9017 13.7167 56.9851 13.85C57.1184 14.0833 57.2351 14.3167 57.3351 14.55C57.4017 14.6667 57.4684 14.7833 57.5351 14.9C57.6017 15 57.6684 15.1083 57.7351 15.225C57.8017 15.3083 57.8684 15.3833 57.9351 15.45C58.0017 15.5167 58.0684 15.5917 58.1351 15.675C58.2184 15.7583 58.3267 15.7833 58.4601 15.75C58.5434 15.7167 58.6017 15.6833 58.6351 15.65C58.7184 15.6 58.7934 15.55 58.8601 15.5C58.9434 15.45 59.0184 15.3917 59.0851 15.325C59.2684 15.1417 59.4351 14.9583 59.5851 14.775C59.7517 14.5917 59.8934 14.3917 60.0101 14.175C60.1101 13.9917 60.2101 13.8 60.3101 13.6C60.4101 13.4 60.5017 13.2 60.5851 13C60.6851 12.7667 60.7767 12.5333 60.8601 12.3C60.9601 12.0667 61.0517 11.825 61.1351 11.575C61.2017 11.4083 61.2517 11.2417 61.2851 11.075C61.3351 10.8917 61.3684 10.7167 61.3851 10.55C61.4184 10.3667 61.4434 10.1833 61.4601 10C61.4934 9.8 61.5017 9.60833 61.4851 9.425C61.4851 9.375 61.4851 9.325 61.4851 9.275C61.5017 9.225 61.5101 9.175 61.5101 9.125C61.5434 9.00833 61.5517 8.9 61.5351 8.8C61.5351 8.7 61.5267 8.6 61.5101 8.5C61.4934 8.21667 61.4684 7.95 61.4351 7.7C61.4184 7.43333 61.4017 7.16667 61.3851 6.9C61.3851 6.76667 61.3767 6.675 61.3601 6.625C61.3434 6.475 61.3267 6.325 61.3101 6.175C61.3101 6.025 61.2934 5.875 61.2601 5.725V5.525C61.2601 5.35833 61.2517 5.2 61.2351 5.05C61.2351 4.88333 61.2351 4.71667 61.2351 4.55C61.2351 4.41667 61.2267 4.3 61.2101 4.2C61.2101 4.08333 61.2101 3.96667 61.2101 3.85C61.2101 3.7 61.2351 3.575 61.2851 3.475C61.3351 3.39167 61.3517 3.325 61.3351 3.275C61.2851 3.175 61.3101 3.1 61.4101 3.05C61.4934 2.96667 61.5767 2.9 61.6601 2.85C61.7601 2.8 61.8684 2.76667 61.9851 2.75C62.0184 2.73333 62.0434 2.725 62.0601 2.725C62.0934 2.725 62.1184 2.71667 62.1351 2.7C62.2351 2.61667 62.3684 2.59167 62.5351 2.625C62.5684 2.64167 62.6184 2.65 62.6851 2.65C62.8351 2.68333 62.9434 2.74167 63.0101 2.825C63.0601 2.875 63.1351 2.93333 63.2351 3C63.3684 3.06667 63.4601 3.15 63.5101 3.25C63.5601 3.35 63.5934 3.45833 63.6101 3.575C63.6434 3.74167 63.6684 3.9 63.6851 4.05C63.7184 4.2 63.7267 4.35833 63.7101 4.525V4.75C63.7101 4.91667 63.7101 5.08333 63.7101 5.25C63.7267 5.4 63.7434 5.55833 63.7601 5.725C63.7767 5.775 63.7851 5.83333 63.7851 5.9C63.7851 5.95 63.7851 6 63.7851 6.05C63.7851 6.15 63.7851 6.25 63.7851 6.35C63.8017 6.43333 63.8184 6.525 63.8351 6.625C63.8517 6.65833 63.8601 6.70833 63.8601 6.775C63.8434 6.94167 63.8434 7.10833 63.8601 7.275C63.8934 7.425 63.9184 7.58333 63.9351 7.75C63.9517 7.91667 63.9601 8.09167 63.9601 8.275C63.9767 8.45833 63.9851 8.64167 63.9851 8.825C64.0017 8.84167 64.0017 8.86667 63.9851 8.9C63.9851 8.93333 63.9851 8.96667 63.9851 9C63.9351 9.15 63.9267 9.325 63.9601 9.525C63.9934 9.74167 63.9851 9.95 63.9351 10.15C63.9184 10.3 63.9017 10.45 63.8851 10.6C63.8684 10.75 63.8434 10.9083 63.8101 11.075C63.7767 11.3417 63.7184 11.6083 63.6351 11.875C63.5517 12.1417 63.4684 12.4083 63.3851 12.675C63.3851 12.7083 63.3601 12.7667 63.3101 12.85C63.2434 12.9667 63.1851 13.0917 63.1351 13.225C63.0851 13.3417 63.0434 13.4667 63.0101 13.6L62.9351 13.775C62.8517 13.9417 62.7767 14.1083 62.7101 14.275C62.6601 14.425 62.5934 14.5833 62.5101 14.75C62.4601 14.85 62.4101 14.95 62.3601 15.05C62.3101 15.15 62.2517 15.2417 62.1851 15.325C62.1684 15.3583 62.1434 15.3917 62.1101 15.425C62.0767 15.5417 62.0267 15.65 61.9601 15.75C61.8934 15.85 61.8267 15.95 61.7601 16.05C61.5767 16.3333 61.3601 16.6 61.1101 16.85C60.8767 17.1 60.6184 17.3333 60.3351 17.55L60.0351 17.725C59.8017 17.8417 59.5517 17.9417 59.2851 18.025C59.0351 18.1083 58.7767 18.1667 58.5101 18.2C58.4267 18.2167 58.3351 18.2167 58.2351 18.2C58.1851 18.2 58.1351 18.2 58.0851 18.2C58.0351 18.2 57.9851 18.2167 57.9351 18.25H57.7851ZM80.9157 21.325C80.6491 21.4917 80.4324 21.4333 80.2657 21.15C80.1991 21.05 80.1657 20.9583 80.1657 20.875L80.0907 20.525C80.0741 20.275 80.0407 20.025 79.9907 19.775C79.9407 19.525 79.8824 19.2667 79.8157 19C79.8157 18.9667 79.8074 18.9333 79.7907 18.9C79.7907 18.8833 79.7907 18.8583 79.7907 18.825C79.7907 18.7583 79.7824 18.7083 79.7657 18.675C79.7157 18.425 79.5824 18.2417 79.3657 18.125C79.2157 18.0417 79.0574 17.9667 78.8907 17.9C78.7407 17.8167 78.5824 17.7417 78.4157 17.675L77.7907 17.375C77.6574 17.3083 77.5324 17.2 77.4157 17.05C77.2324 16.85 77.0657 16.6417 76.9157 16.425C76.7657 16.2083 76.6407 15.975 76.5407 15.725C76.5074 15.625 76.4657 15.525 76.4157 15.425C76.3824 15.325 76.3491 15.225 76.3157 15.125C76.2824 15.0417 76.2574 14.9583 76.2407 14.875C76.2241 14.7917 76.1991 14.7167 76.1657 14.65L76.0157 14.125C75.9824 14.0583 75.9657 13.9917 75.9657 13.925C75.9491 13.8083 75.9324 13.7 75.9157 13.6C75.9157 13.4833 75.8991 13.3667 75.8657 13.25C75.8491 13.1333 75.8324 13.0167 75.8157 12.9C75.8157 12.7833 75.8157 12.6667 75.8157 12.55C75.8157 12.4833 75.8074 12.4333 75.7907 12.4C75.7741 12.1667 75.7657 11.9417 75.7657 11.725C75.7657 11.5083 75.7574 11.2917 75.7407 11.075C75.7407 10.9417 75.7407 10.8083 75.7407 10.675C75.7407 10.5417 75.7491 10.4167 75.7657 10.3L75.8407 9.4C75.8407 9.35 75.8407 9.30833 75.8407 9.275C75.8574 9.225 75.8657 9.18333 75.8657 9.15C75.8824 8.93333 75.8991 8.725 75.9157 8.525C75.9491 8.325 75.9907 8.125 76.0407 7.925C76.0741 7.875 76.0907 7.825 76.0907 7.775C76.0907 7.725 76.0907 7.675 76.0907 7.625C76.1407 7.44167 76.1824 7.25833 76.2157 7.075C76.2657 6.875 76.3074 6.675 76.3407 6.475L76.4907 5.65C76.5241 5.51667 76.5491 5.38333 76.5657 5.25C76.5991 5.11667 76.6324 4.98333 76.6657 4.85C76.7991 4.28333 77.0324 3.8 77.3657 3.4C77.5657 3.11667 77.7991 2.89167 78.0657 2.725C78.2657 2.59167 78.4657 2.45833 78.6657 2.325C78.8824 2.19167 79.0991 2.075 79.3157 1.975C79.5491 1.84167 79.7907 1.725 80.0407 1.625C80.2907 1.525 80.5491 1.43333 80.8157 1.35C80.9324 1.31667 81.0407 1.28333 81.1407 1.25C81.2574 1.21667 81.3741 1.19167 81.4907 1.175C81.6907 1.125 81.8907 1.10833 82.0907 1.125C82.2907 1.125 82.4824 1.16667 82.6657 1.25C82.8991 1.33333 83.0991 1.44167 83.2657 1.575C83.3491 1.64167 83.4324 1.70833 83.5157 1.775C83.6157 1.825 83.6991 1.89167 83.7657 1.975C84.1157 2.225 84.3407 2.56667 84.4407 3C84.4574 3.06667 84.4741 3.13333 84.4907 3.2C84.5074 3.25 84.5157 3.31667 84.5157 3.4C84.5324 3.7 84.4824 3.98333 84.3657 4.25C84.3324 4.31667 84.2907 4.39167 84.2407 4.475C84.2074 4.54167 84.1574 4.60833 84.0907 4.675C84.0074 4.775 83.9241 4.88333 83.8407 5C83.7741 5.1 83.6991 5.2 83.6157 5.3C83.4657 5.46667 83.3907 5.675 83.3907 5.925V7.475C83.3907 7.54167 83.3824 7.60833 83.3657 7.675C83.3657 7.725 83.3657 7.78333 83.3657 7.85C83.3491 7.93333 83.3407 8.025 83.3407 8.125C83.3407 8.20833 83.3407 8.29167 83.3407 8.375C83.3407 8.45833 83.3741 8.48333 83.4407 8.45H83.5157C83.5657 8.43333 83.6074 8.425 83.6407 8.425C83.6907 8.425 83.7324 8.41667 83.7657 8.4C84.0157 8.31667 84.2657 8.25833 84.5157 8.225C84.7657 8.175 85.0241 8.14167 85.2907 8.125C85.5241 8.09167 85.7491 8.09167 85.9657 8.125C86.1824 8.14167 86.3991 8.175 86.6157 8.225C86.7657 8.275 86.9074 8.33333 87.0407 8.4C87.1907 8.45 87.3241 8.525 87.4407 8.625C87.5241 8.69167 87.6074 8.76667 87.6907 8.85C87.7741 8.91667 87.8407 8.99167 87.8907 9.075C88.0074 9.24167 88.0991 9.41667 88.1657 9.6C88.2491 9.76667 88.2907 9.94167 88.2907 10.125V10.15C88.3241 10.3167 88.3407 10.4833 88.3407 10.65C88.3407 10.8167 88.3241 10.9833 88.2907 11.15C88.2741 11.25 88.2574 11.35 88.2407 11.45C88.2241 11.5333 88.2074 11.625 88.1907 11.725C88.1574 11.875 88.1157 12.025 88.0657 12.175C88.0324 12.325 87.9991 12.475 87.9657 12.625C87.9491 12.6917 87.9324 12.7583 87.9157 12.825C87.9157 12.875 87.9157 12.9333 87.9157 13V14.45C87.9157 14.5833 87.9241 14.7167 87.9407 14.85C87.9574 14.9833 87.9741 15.1167 87.9907 15.25C88.0074 15.3333 88.0241 15.4167 88.0407 15.5C88.0741 15.5833 88.0991 15.6667 88.1157 15.75C88.1157 15.7833 88.1491 15.8333 88.2157 15.9C88.2991 15.9833 88.3491 16.075 88.3657 16.175C88.3657 16.225 88.3741 16.2583 88.3907 16.275C88.4574 16.425 88.4907 16.6 88.4907 16.8C88.4907 16.8667 88.4824 16.9333 88.4657 17C88.4657 17.0667 88.4741 17.1417 88.4907 17.225C88.5241 17.325 88.4991 17.4167 88.4157 17.5C88.3824 17.5333 88.3574 17.575 88.3407 17.625C88.3241 17.675 88.2991 17.725 88.2657 17.775C88.2157 17.875 88.1491 17.9667 88.0657 18.05C88.0157 18.0667 87.9741 18.1 87.9407 18.15C87.9074 18.2 87.8741 18.2417 87.8407 18.275C87.7074 18.425 87.5491 18.475 87.3657 18.425C87.3491 18.425 87.3241 18.4167 87.2907 18.4C87.2741 18.4 87.2574 18.4 87.2407 18.4C87.0907 18.3833 86.9574 18.3333 86.8407 18.25C86.7407 18.1833 86.6407 18.1 86.5407 18C86.5074 17.95 86.4657 17.9 86.4157 17.85C86.3824 17.7833 86.3407 17.725 86.2907 17.675C86.2407 17.6083 86.1991 17.5333 86.1657 17.45C86.1491 17.3667 86.1241 17.2917 86.0907 17.225C86.0241 16.9917 85.9491 16.75 85.8657 16.5C85.7991 16.25 85.7491 16 85.7157 15.75C85.6824 15.5167 85.6407 15.2833 85.5907 15.05C85.5407 14.8 85.5074 14.55 85.4907 14.3C85.4574 14.1667 85.4407 14.05 85.4407 13.95C85.4074 13.8833 85.3907 13.85 85.3907 13.85C85.3241 13.8833 85.2824 13.9083 85.2657 13.925C85.0991 14.125 84.9157 14.325 84.7157 14.525C84.5157 14.7083 84.3241 14.9 84.1407 15.1C84.1074 15.15 84.0657 15.2 84.0157 15.25C83.9824 15.2833 83.9491 15.3167 83.9157 15.35C83.8157 15.45 83.7157 15.55 83.6157 15.65C83.5157 15.7333 83.4241 15.825 83.3407 15.925C83.2741 15.975 83.2157 16.025 83.1657 16.075C83.1157 16.125 83.0574 16.1667 82.9907 16.2C82.9574 16.2333 82.9241 16.2667 82.8907 16.3C82.8574 16.3333 82.8241 16.3667 82.7907 16.4C82.7241 16.4667 82.6574 16.5333 82.5907 16.6C82.5407 16.65 82.4741 16.7 82.3907 16.75L82.2907 16.85C82.0241 17.0667 81.7574 17.2583 81.4907 17.425C81.2074 17.575 81.0657 17.8167 81.0657 18.15C81.0657 18.25 81.0657 18.35 81.0657 18.45C81.0657 18.55 81.0741 18.65 81.0907 18.75C81.0907 18.7667 81.0907 18.775 81.0907 18.775C81.1074 18.775 81.1157 18.7833 81.1157 18.8C81.1324 19.1167 81.1491 19.4333 81.1657 19.75C81.1991 20.0833 81.2074 20.4167 81.1907 20.75C81.1741 20.8 81.1657 20.8667 81.1657 20.95C81.1324 21.1 81.0491 21.225 80.9157 21.325ZM80.7657 14.225C81.0657 14.375 81.3574 14.3667 81.6407 14.2C81.6907 14.15 81.7324 14.1167 81.7657 14.1C81.8991 14 82.0241 13.9 82.1407 13.8C82.2574 13.6833 82.3741 13.575 82.4907 13.475C82.6074 13.375 82.7157 13.275 82.8157 13.175C82.9157 13.0583 83.0241 12.95 83.1407 12.85C83.2741 12.7167 83.4074 12.575 83.5407 12.425C83.6741 12.275 83.7991 12.125 83.9157 11.975C83.9991 11.875 84.0657 11.7667 84.1157 11.65C84.1824 11.5667 84.2241 11.4667 84.2407 11.35C84.2407 11.2333 84.1907 11.1917 84.0907 11.225C84.0074 11.2417 83.9241 11.2583 83.8407 11.275C83.7574 11.2917 83.6741 11.3333 83.5907 11.4C83.4907 11.4667 83.3824 11.5333 83.2657 11.6C83.1657 11.6667 83.0574 11.7417 82.9407 11.825C82.9074 11.8583 82.8741 11.9083 82.8407 11.975C82.8074 12.0917 82.7741 12.2333 82.7407 12.4C82.7407 12.5167 82.7324 12.625 82.7157 12.725C82.7157 12.825 82.7074 12.925 82.6907 13.025C82.6407 13.2583 82.5241 13.4083 82.3407 13.475C82.2241 13.525 82.1241 13.5167 82.0407 13.45C81.9241 13.3833 81.8407 13.2917 81.7907 13.175C81.7574 13.0583 81.7241 12.9417 81.6907 12.825C81.6574 12.7083 81.6324 12.5917 81.6157 12.475L81.5407 12C81.5407 11.8 81.4491 11.5917 81.2657 11.375C81.2324 11.3417 81.1907 11.3 81.1407 11.25C81.1074 11.2 81.0741 11.15 81.0407 11.1C80.9741 11 80.9157 10.8917 80.8657 10.775C80.8324 10.6583 80.7991 10.5417 80.7657 10.425L80.7407 10.25C80.7574 9.93333 80.8741 9.65833 81.0907 9.425C81.3574 9.125 81.6491 8.93333 81.9657 8.85L82.2157 8.775C82.3157 8.74167 82.3491 8.68333 82.3157 8.6C82.2991 8.51667 82.2824 8.43333 82.2657 8.35C82.2491 8.25 82.2324 8.15833 82.2157 8.075C82.1991 7.90833 82.1824 7.75 82.1657 7.6C82.1657 7.43333 82.1491 7.26667 82.1157 7.1C82.1157 7.1 82.1157 7.05833 82.1157 6.975C82.0991 6.79167 82.0741 6.60833 82.0407 6.425C82.0241 6.225 81.9991 6.025 81.9657 5.825C81.9324 5.65833 81.8657 5.525 81.7657 5.425C81.6324 5.29167 81.4824 5.225 81.3157 5.225C81.1657 5.25833 81.0574 5.3 80.9907 5.35C80.8241 5.46667 80.6657 5.58333 80.5157 5.7C80.3657 5.8 80.1991 5.89167 80.0157 5.975C79.8991 6.04167 79.8157 6.11667 79.7657 6.2C79.7157 6.31667 79.6574 6.43333 79.5907 6.55C79.5407 6.65 79.4991 6.76667 79.4657 6.9C79.4491 6.98333 79.4241 7.075 79.3907 7.175C79.3574 7.25833 79.3241 7.34167 79.2907 7.425C79.2907 7.45833 79.2824 7.49167 79.2657 7.525C79.2491 7.55833 79.2324 7.59167 79.2157 7.625C79.1657 7.74167 79.1241 7.85 79.0907 7.95C79.0574 8.06667 79.0241 8.18333 78.9907 8.3C78.9574 8.41667 78.9241 8.54167 78.8907 8.675C78.8574 8.79167 78.8241 8.93333 78.7907 9.1C78.7574 9.26667 78.7241 9.43333 78.6907 9.6C78.6574 9.76667 78.6241 9.93333 78.5907 10.1C78.5741 10.1667 78.5574 10.2333 78.5407 10.3C78.5407 10.35 78.5407 10.4167 78.5407 10.5C78.5407 10.5667 78.5407 10.6417 78.5407 10.725C78.5407 10.8083 78.5241 10.8917 78.4907 10.975C78.4907 11.025 78.4824 11.0833 78.4657 11.15C78.4657 11.2 78.4657 11.25 78.4657 11.3C78.4657 11.35 78.4657 11.4 78.4657 11.45C78.4824 11.5 78.4907 11.5667 78.4907 11.65C78.4741 11.7667 78.4741 11.9083 78.4907 12.075C78.5074 12.225 78.5241 12.375 78.5407 12.525L78.5907 12.725C78.6241 12.825 78.6657 12.9333 78.7157 13.05C78.7657 13.15 78.8241 13.2417 78.8907 13.325C79.0574 13.5083 79.2157 13.6583 79.3657 13.775C79.5157 13.8917 79.6157 13.9667 79.6657 14C79.7324 14.0167 79.8657 14.025 80.0657 14.025C80.2157 14.025 80.3657 14.05 80.5157 14.1C80.5824 14.1167 80.6657 14.1583 80.7657 14.225ZM96.1839 18.5C96.0172 18.4833 95.8506 18.4583 95.6839 18.425C95.5339 18.4083 95.3839 18.3667 95.2339 18.3L94.6089 18.075C94.3922 17.9917 94.1922 17.9 94.0089 17.8C93.8256 17.6833 93.6422 17.5667 93.4589 17.45C93.3756 17.3667 93.2922 17.2917 93.2089 17.225C93.1256 17.1417 93.0422 17.0667 92.9589 17C92.8256 16.8667 92.6922 16.7333 92.5589 16.6C92.4256 16.45 92.3006 16.2917 92.1839 16.125L91.5839 15.2C91.4339 14.9667 91.3006 14.725 91.1839 14.475C91.0672 14.2083 90.9672 13.9417 90.8839 13.675C90.7006 13.175 90.6089 12.6833 90.6089 12.2V11.8C90.6089 11.3833 90.6339 10.975 90.6839 10.575C90.7172 10.2417 90.7922 9.94167 90.9089 9.675C90.9756 9.50833 91.0339 9.34167 91.0839 9.175C91.1339 9.00833 91.1922 8.85 91.2589 8.7L91.3339 8.525C91.3672 8.30833 91.4422 8.11667 91.5589 7.95C91.6756 7.76667 91.7756 7.59167 91.8589 7.425C91.9256 7.29167 92.0006 7.175 92.0839 7.075C92.1672 6.95833 92.2422 6.84167 92.3089 6.725C92.3422 6.675 92.3839 6.63333 92.4339 6.6C92.4839 6.55 92.5256 6.5 92.5589 6.45C92.5922 6.41667 92.6172 6.375 92.6339 6.325C92.6672 6.25833 92.6922 6.2 92.7089 6.15C92.7422 6.1 92.8006 6.03333 92.8839 5.95C92.9839 5.9 93.0756 5.78333 93.1589 5.6C93.1922 5.53333 93.2256 5.48333 93.2589 5.45C93.3589 5.36667 93.4422 5.26667 93.5089 5.15C93.5922 5.03333 93.6839 4.925 93.7839 4.825C93.8506 4.75833 93.8839 4.66667 93.8839 4.55C93.8839 4.46667 93.8839 4.39167 93.8839 4.325C93.9006 4.24167 93.9006 4.16667 93.8839 4.1C93.8672 4.01667 93.8922 3.94167 93.9589 3.875C93.9922 3.84167 94.0172 3.8 94.0339 3.75C94.0506 3.7 94.0672 3.65 94.0839 3.6C94.1339 3.43333 94.2672 3.29167 94.4839 3.175C94.5172 3.14167 94.5589 3.125 94.6089 3.125C94.6756 3.10833 94.7339 3.09167 94.7839 3.075C94.9006 3.025 95.0339 3.01667 95.1839 3.05C95.2506 3.06667 95.3089 3.075 95.3589 3.075C95.4089 3.05833 95.4589 3.04167 95.5089 3.025C95.5756 2.99167 95.6339 2.96667 95.6839 2.95C95.7506 2.93333 95.8089 2.91667 95.8589 2.9C96.0922 2.81667 96.3339 2.825 96.5839 2.925C96.8506 3.025 97.0422 3.2 97.1589 3.45C97.1922 3.53333 97.2256 3.61667 97.2589 3.7C97.2922 3.78333 97.3172 3.86667 97.3339 3.95C97.3672 4.13333 97.3589 4.29167 97.3089 4.425C97.2756 4.49167 97.2589 4.53333 97.2589 4.55C97.2422 4.61667 97.2589 4.675 97.3089 4.725C97.3422 4.775 97.3839 4.81667 97.4339 4.85C97.6172 5.01667 97.7922 5.18333 97.9589 5.35C98.1256 5.5 98.2839 5.66667 98.4339 5.85C98.5672 5.98333 98.6756 6.125 98.7589 6.275C98.8589 6.40833 98.9506 6.55833 99.0339 6.725C99.0672 6.80833 99.1089 6.9 99.1589 7C99.2089 7.08333 99.2589 7.16667 99.3089 7.25C99.3922 7.4 99.4589 7.55833 99.5089 7.725C99.5756 7.89167 99.6422 8.05833 99.7089 8.225V8.25C99.7422 8.36667 99.7672 8.49167 99.7839 8.625C99.8172 8.74167 99.8672 8.86667 99.9339 9C99.9839 9.11667 100.026 9.24167 100.059 9.375C100.092 9.49167 100.126 9.61667 100.159 9.75C100.192 9.9 100.226 10.05 100.259 10.2C100.309 10.35 100.342 10.5 100.359 10.65C100.376 10.7167 100.392 10.7833 100.409 10.85C100.426 10.9 100.442 10.9583 100.459 11.025C100.492 11.175 100.526 11.325 100.559 11.475C100.592 11.625 100.617 11.775 100.634 11.925L100.709 12.1C100.742 12.2 100.776 12.3333 100.809 12.5C100.859 12.7167 100.884 12.9333 100.884 13.15C100.901 13.3667 100.901 13.5917 100.884 13.825C100.884 13.9417 100.876 14.0333 100.859 14.1C100.759 14.45 100.634 14.8083 100.484 15.175C100.417 15.2917 100.351 15.4083 100.284 15.525C100.217 15.625 100.151 15.7333 100.084 15.85L99.8589 16.2C99.7756 16.35 99.6839 16.4833 99.5839 16.6C99.4172 16.8667 99.2172 17.1 98.9839 17.3C98.7506 17.5 98.5006 17.6917 98.2339 17.875C97.6506 18.325 96.9672 18.5333 96.1839 18.5ZM96.0839 16.025C96.4339 16.025 96.7339 15.925 96.9839 15.725C97.0672 15.6417 97.1506 15.5667 97.2339 15.5C97.3339 15.4167 97.4172 15.3333 97.4839 15.25C97.8006 14.9 98.0506 14.5333 98.2339 14.15L98.3089 13.9C98.3422 13.6 98.3422 13.3 98.3089 13L98.1589 12.175C98.1089 11.9583 98.0672 11.75 98.0339 11.55C98.0006 11.3333 97.9506 11.125 97.8839 10.925C97.8339 10.8083 97.8172 10.7167 97.8339 10.65C97.8506 10.5667 97.8506 10.4833 97.8339 10.4C97.8172 10.3167 97.7922 10.2333 97.7589 10.15C97.7089 9.93333 97.6506 9.71667 97.5839 9.5C97.5172 9.28333 97.4506 9.06667 97.3839 8.85C97.3672 8.8 97.3506 8.75 97.3339 8.7C97.3172 8.65 97.3006 8.6 97.2839 8.55C97.1672 8.31667 97.0422 8.09167 96.9089 7.875C96.7756 7.65833 96.6256 7.45833 96.4589 7.275C96.3756 7.175 96.2839 7.08333 96.1839 7C96.0839 6.9 95.9839 6.80833 95.8839 6.725C95.8672 6.69167 95.8422 6.675 95.8089 6.675C95.7922 6.65833 95.7672 6.64167 95.7339 6.625C95.6839 6.55833 95.6172 6.56667 95.5339 6.65C95.4506 6.73333 95.3589 6.825 95.2589 6.925C95.1756 7.025 95.0922 7.125 95.0089 7.225C94.9256 7.34167 94.8339 7.45833 94.7339 7.575C94.6506 7.69167 94.5672 7.80833 94.4839 7.925C94.3672 8.075 94.2589 8.225 94.1589 8.375C94.0589 8.525 93.9589 8.675 93.8589 8.825C93.5089 9.39167 93.2339 10.0167 93.0339 10.7C93.0006 10.8 92.9839 10.875 92.9839 10.925C92.9672 11.0417 92.9506 11.1583 92.9339 11.275C92.9339 11.3917 92.9339 11.5167 92.9339 11.65V11.85C92.9506 11.9 92.9589 11.95 92.9589 12C92.9589 12.05 92.9672 12.1 92.9839 12.15C92.9839 12.35 93.0339 12.5667 93.1339 12.8C93.2672 13.1333 93.4172 13.4583 93.5839 13.775C93.7506 14.0917 93.9422 14.3917 94.1589 14.675C94.2089 14.7417 94.2589 14.8083 94.3089 14.875C94.3756 14.9417 94.4339 15.0083 94.4839 15.075C94.6339 15.2417 94.7922 15.3917 94.9589 15.525C95.1422 15.6583 95.3256 15.775 95.5089 15.875C95.7089 15.975 95.9006 16.025 96.0839 16.025ZM113.47 19.475H113.345C113.295 19.475 113.237 19.4667 113.17 19.45C113.12 19.45 113.062 19.45 112.995 19.45C112.878 19.4667 112.778 19.4417 112.695 19.375C112.628 19.325 112.553 19.2583 112.47 19.175C112.437 19.1417 112.395 19.1 112.345 19.05C112.312 19.0167 112.27 18.9917 112.22 18.975C112.187 18.9583 112.153 18.9167 112.12 18.85C112.103 18.8167 112.078 18.775 112.045 18.725C112.028 18.675 112.003 18.625 111.97 18.575C111.937 18.4917 111.928 18.4 111.945 18.3C111.962 18.25 111.97 18.2 111.97 18.15C111.987 18.1167 111.995 18.075 111.995 18.025C111.995 17.8583 111.995 17.7 111.995 17.55C111.995 17.3833 111.978 17.2167 111.945 17.05C111.928 17 111.92 16.95 111.92 16.9C111.92 16.8333 111.912 16.7667 111.895 16.7C111.895 16.5833 111.887 16.4917 111.87 16.425C111.87 16.3417 111.862 16.2667 111.845 16.2C111.845 16.1333 111.845 16.0667 111.845 16C111.828 15.8833 111.82 15.775 111.82 15.675C111.82 15.575 111.803 15.4667 111.77 15.35V15.275C111.77 15.0583 111.753 14.85 111.72 14.65C111.703 14.4333 111.695 14.2167 111.695 14C111.695 13.9 111.687 13.825 111.67 13.775C111.653 13.625 111.637 13.475 111.62 13.325C111.62 13.1583 111.62 12.9917 111.62 12.825C111.62 12.675 111.62 12.525 111.62 12.375C111.62 12.2083 111.603 12.05 111.57 11.9C111.553 11.8667 111.545 11.825 111.545 11.775C111.545 11.725 111.545 11.6833 111.545 11.65C111.545 10.9667 111.545 10.2833 111.545 9.6C111.545 8.91667 111.553 8.24167 111.57 7.575C111.57 7.49167 111.57 7.40833 111.57 7.325C111.587 7.24167 111.595 7.15833 111.595 7.075C111.595 7.025 111.595 6.975 111.595 6.925C111.612 6.875 111.62 6.83333 111.62 6.8C111.62 6.61667 111.62 6.43333 111.62 6.25C111.637 6.05 111.653 5.85833 111.67 5.675C111.703 5.625 111.703 5.55833 111.67 5.475C111.653 5.45833 111.628 5.45 111.595 5.45L111.52 5.525C111.487 5.575 111.445 5.625 111.395 5.675C111.345 5.725 111.303 5.775 111.27 5.825C111.203 5.925 111.128 6.03333 111.045 6.15C110.978 6.25 110.903 6.35833 110.82 6.475C110.703 6.675 110.578 6.88333 110.445 7.1C110.312 7.3 110.212 7.51667 110.145 7.75C110.128 7.78333 110.112 7.825 110.095 7.875C110.078 7.90833 110.062 7.94167 110.045 7.975C109.978 8.14167 109.903 8.30833 109.82 8.475C109.753 8.625 109.687 8.79167 109.62 8.975C109.52 9.19167 109.378 9.39167 109.195 9.575C109.162 9.60833 109.128 9.625 109.095 9.625C109.012 9.675 108.92 9.725 108.82 9.775C108.72 9.80833 108.612 9.81667 108.495 9.8H108.345C108.195 9.83333 108.07 9.8 107.97 9.7C107.853 9.66667 107.753 9.60833 107.67 9.525C107.603 9.44167 107.528 9.35 107.445 9.25C107.378 9.16667 107.32 9.06667 107.27 8.95C107.237 8.83333 107.22 8.71667 107.22 8.6C107.203 8.56667 107.195 8.525 107.195 8.475C107.195 8.425 107.195 8.38333 107.195 8.35C107.178 8.31667 107.162 8.28333 107.145 8.25C107.128 8.2 107.12 8.16667 107.12 8.15C107.12 8.11667 107.103 8.06667 107.07 8C107.037 7.93333 106.97 7.8 106.87 7.6C106.77 7.4 106.72 7.30833 106.72 7.325C106.67 7.24167 106.62 7.15 106.57 7.05C106.52 6.95 106.462 6.85833 106.395 6.775L106.245 6.5C106.212 6.5 106.187 6.49167 106.17 6.475L106.145 6.5C106.145 6.55 106.145 6.6 106.145 6.65C106.145 6.7 106.153 6.75 106.17 6.8C106.203 6.98333 106.22 7.16667 106.22 7.35C106.22 7.53333 106.203 7.71667 106.17 7.9C106.17 8 106.178 8.08333 106.195 8.15C106.212 8.18333 106.22 8.24167 106.22 8.325C106.22 8.425 106.22 8.525 106.22 8.625C106.237 8.725 106.237 8.825 106.22 8.925C106.203 9.00833 106.195 9.1 106.195 9.2C106.212 9.28333 106.228 9.36667 106.245 9.45V9.7C106.212 9.8 106.212 9.90833 106.245 10.025C106.262 10.1083 106.262 10.2 106.245 10.3C106.245 10.3833 106.253 10.4667 106.27 10.55C106.27 10.6333 106.253 10.7417 106.22 10.875C106.12 11.275 106.145 11.6583 106.295 12.025C106.312 12.0917 106.328 12.1583 106.345 12.225C106.362 12.275 106.362 12.3333 106.345 12.4C106.345 12.45 106.345 12.5 106.345 12.55C106.345 12.6 106.353 12.65 106.37 12.7C106.403 12.7667 106.42 12.8333 106.42 12.9C106.437 13.0833 106.445 13.225 106.445 13.325C106.462 13.425 106.478 13.5 106.495 13.55C106.528 13.7333 106.562 13.925 106.595 14.125C106.628 14.3083 106.662 14.4917 106.695 14.675C106.728 14.8917 106.762 15.1083 106.795 15.325C106.845 15.525 106.87 15.7333 106.87 15.95C106.87 16.0167 106.878 16.0667 106.895 16.1C106.928 16.2333 106.945 16.375 106.945 16.525C106.945 16.6583 106.953 16.7917 106.97 16.925C106.97 17.1083 106.928 17.25 106.845 17.35C106.812 17.4167 106.795 17.4583 106.795 17.475C106.645 17.7917 106.378 17.975 105.995 18.025C105.945 18.0417 105.895 18.05 105.845 18.05C105.795 18.05 105.745 18.05 105.695 18.05C105.512 18.0833 105.378 18.05 105.295 17.95C105.262 17.9167 105.228 17.9 105.195 17.9C105.112 17.9167 105.028 17.8667 104.945 17.75C104.895 17.6667 104.82 17.5917 104.72 17.525C104.67 17.475 104.628 17.3917 104.595 17.275C104.578 17.2417 104.562 17.2083 104.545 17.175C104.545 17.1417 104.545 17.1083 104.545 17.075C104.528 16.8417 104.503 16.6167 104.47 16.4C104.437 16.1667 104.412 15.9417 104.395 15.725L104.37 15.475C104.353 15.4083 104.345 15.35 104.345 15.3C104.345 15.25 104.337 15.1917 104.32 15.125V14.975C104.27 14.7417 104.245 14.5083 104.245 14.275C104.245 14.025 104.253 13.7833 104.27 13.55C104.287 13.4 104.295 13.25 104.295 13.1C104.295 12.9333 104.303 12.775 104.32 12.625V12.05C104.32 11.9667 104.32 11.8833 104.32 11.8C104.32 11.7 104.312 11.6083 104.295 11.525C104.278 11.425 104.27 11.325 104.27 11.225C104.27 11.125 104.27 11.025 104.27 10.925V9.775C104.253 9.64167 104.245 9.50833 104.245 9.375C104.245 9.225 104.245 9.08333 104.245 8.95C104.245 8.9 104.245 8.85 104.245 8.8C104.245 8.73333 104.237 8.675 104.22 8.625C104.22 8.54167 104.212 8.46667 104.195 8.4C104.195 8.31667 104.187 8.24167 104.17 8.175V8C104.137 7.85 104.12 7.70833 104.12 7.575C104.12 7.425 104.12 7.275 104.12 7.125C104.12 6.99167 104.12 6.85833 104.12 6.725C104.12 6.575 104.103 6.44167 104.07 6.325C104.053 6.275 104.045 6.225 104.045 6.175C104.045 6.125 104.045 6.075 104.045 6.025C104.045 5.90833 104.045 5.8 104.045 5.7C104.045 5.58333 104.028 5.46667 103.995 5.35C103.978 5.31667 103.97 5.25833 103.97 5.175V3.925C103.97 3.84167 103.97 3.76667 103.97 3.7C103.97 3.61667 103.953 3.54167 103.92 3.475C103.87 3.30833 103.878 3.11667 103.945 2.9C103.978 2.81667 104.012 2.75833 104.045 2.725C104.078 2.675 104.112 2.625 104.145 2.575C104.178 2.525 104.203 2.475 104.22 2.425C104.253 2.375 104.278 2.35 104.295 2.35C104.362 2.33333 104.412 2.30833 104.445 2.275C104.495 2.24167 104.537 2.20833 104.57 2.175L104.72 2.1C104.753 2.08333 104.803 2.075 104.87 2.075C104.953 2.09167 105.037 2.10833 105.12 2.125C105.22 2.125 105.312 2.13333 105.395 2.15C105.495 2.15 105.57 2.19167 105.62 2.275C105.703 2.39167 105.787 2.50833 105.87 2.625C105.953 2.74167 106.02 2.86667 106.07 3C106.12 3.11667 106.187 3.21667 106.27 3.3C106.37 3.43333 106.47 3.56667 106.57 3.7C106.67 3.83333 106.778 3.96667 106.895 4.1C106.945 4.15 106.987 4.20833 107.02 4.275C107.07 4.34167 107.112 4.40833 107.145 4.475C107.228 4.59167 107.303 4.70833 107.37 4.825C107.453 4.925 107.537 5.03333 107.62 5.15L107.995 5.75C108.028 5.81667 108.062 5.88333 108.095 5.95C108.128 6 108.162 6.05 108.195 6.1C108.228 6.18333 108.278 6.19167 108.345 6.125C108.412 6.04167 108.478 5.95833 108.545 5.875C108.628 5.775 108.703 5.68333 108.77 5.6C108.92 5.41667 109.07 5.225 109.22 5.025C109.37 4.825 109.528 4.63333 109.695 4.45L109.845 4.225C109.962 4.05833 110.07 3.9 110.17 3.75C110.287 3.58333 110.395 3.41667 110.495 3.25C110.612 3.06667 110.712 2.88333 110.795 2.7C110.895 2.51667 110.978 2.33333 111.045 2.15L111.345 1.475C111.445 1.275 111.587 1.10833 111.77 0.974999C112.02 0.774999 112.295 0.699999 112.595 0.749999C112.712 0.766666 112.82 0.799999 112.92 0.849999C113.02 0.883333 113.12 0.916666 113.22 0.949999C113.32 0.983333 113.387 1.05833 113.42 1.175C113.453 1.225 113.478 1.275 113.495 1.325C113.512 1.375 113.52 1.425 113.52 1.475C113.537 1.59167 113.562 1.7 113.595 1.8C113.628 1.88333 113.653 1.98333 113.67 2.1L113.695 2.35C113.728 2.5 113.762 2.65 113.795 2.8C113.845 2.95 113.887 3.1 113.92 3.25V3.3C113.937 3.46667 113.953 3.63333 113.97 3.8C114.003 3.95 114.012 4.10833 113.995 4.275V4.85C113.995 4.93333 113.995 5.01667 113.995 5.1C113.995 5.18333 113.987 5.26667 113.97 5.35C113.953 5.46667 113.945 5.58333 113.945 5.7C113.945 5.8 113.945 5.90833 113.945 6.025C113.928 6.09167 113.92 6.15833 113.92 6.225C113.92 6.29167 113.912 6.35833 113.895 6.425C113.878 6.49167 113.87 6.55833 113.87 6.625C113.87 6.675 113.87 6.74167 113.87 6.825V7.525C113.87 7.64167 113.862 7.75 113.845 7.85C113.845 7.95 113.837 8.05833 113.82 8.175C113.803 8.24167 113.795 8.30833 113.795 8.375C113.795 8.425 113.795 8.48333 113.795 8.55V10.075C113.795 10.1917 113.795 10.3083 113.795 10.425C113.812 10.5417 113.828 10.6583 113.845 10.775C113.862 10.8583 113.87 10.95 113.87 11.05C113.87 11.1333 113.87 11.2167 113.87 11.3C113.887 11.4167 113.895 11.5333 113.895 11.65C113.895 11.75 113.903 11.8667 113.92 12V12.275C113.937 12.4083 113.945 12.55 113.945 12.7C113.945 12.8333 113.945 12.9667 113.945 13.1V13.425C113.978 13.5417 113.995 13.6667 113.995 13.8C113.995 13.9333 114.003 14.0667 114.02 14.2V14.375C114.053 14.475 114.07 14.575 114.07 14.675C114.07 14.775 114.078 14.875 114.095 14.975L114.17 15.875C114.187 15.9417 114.195 16.0083 114.195 16.075C114.212 16.125 114.22 16.1833 114.22 16.25C114.237 16.3167 114.245 16.3833 114.245 16.45C114.245 16.5 114.253 16.5583 114.27 16.625C114.27 16.6417 114.27 16.6667 114.27 16.7C114.287 16.7333 114.295 16.7667 114.295 16.8C114.295 16.9167 114.303 17.0417 114.32 17.175C114.353 17.3083 114.378 17.4417 114.395 17.575L114.495 18.275C114.495 18.375 114.487 18.4417 114.47 18.475C114.453 18.575 114.412 18.6667 114.345 18.75C114.295 18.85 114.253 18.9417 114.22 19.025C114.22 19.0417 114.212 19.05 114.195 19.05C114.078 19.15 113.962 19.2333 113.845 19.3C113.728 19.3833 113.603 19.4417 113.47 19.475ZM120.883 18.175C120.783 18.175 120.716 18.1667 120.683 18.15C120.6 18.1167 120.516 18.1 120.433 18.1C120.366 18.1167 120.291 18.125 120.208 18.125C120.191 18.125 120.175 18.125 120.158 18.125C120.141 18.1417 120.125 18.15 120.108 18.15C119.991 18.1667 119.875 18.175 119.758 18.175C119.658 18.175 119.558 18.1583 119.458 18.125C119.441 18.1083 119.425 18.1 119.408 18.1C119.291 18.1167 119.191 18.0833 119.108 18C119.025 17.9167 118.941 17.8417 118.858 17.775C118.775 17.6917 118.733 17.6 118.733 17.5L118.658 17.3C118.608 17.1833 118.591 17.075 118.608 16.975C118.625 16.9417 118.625 16.9083 118.608 16.875C118.608 16.8417 118.608 16.8083 118.608 16.775C118.591 16.7417 118.583 16.7083 118.583 16.675C118.583 16.625 118.575 16.5833 118.558 16.55C118.525 16.4 118.5 16.25 118.483 16.1C118.483 15.9333 118.491 15.775 118.508 15.625C118.525 15.525 118.583 15.3583 118.683 15.125C118.783 14.875 118.841 14.725 118.858 14.675C118.908 14.5917 118.933 14.525 118.933 14.475C118.916 14.2917 118.908 14.1083 118.908 13.925C118.925 13.725 118.933 13.5333 118.933 13.35C118.933 13.2333 118.958 13.1417 119.008 13.075C119.075 12.9583 119.083 12.8333 119.033 12.7L118.958 12.425C118.858 12.2417 118.866 12.0833 118.983 11.95C118.983 11.9333 118.983 11.925 118.983 11.925C119 11.9083 119.008 11.8917 119.008 11.875C119.041 11.8417 119.05 11.8 119.033 11.75C119.016 11.6833 119.008 11.6333 119.008 11.6C119.008 11.5333 119.016 11.4667 119.033 11.4C119.066 11.3167 119.075 11.2417 119.058 11.175C119.058 11.175 119.041 11.1583 119.008 11.125C118.991 11.0917 118.983 11.025 118.983 10.925C119 10.825 119.008 10.7667 119.008 10.75V10.05C119.025 9.96667 119.033 9.89167 119.033 9.825C119.033 9.74167 119.041 9.65833 119.058 9.575C119.075 9.475 119.075 9.375 119.058 9.275C119.058 9.15833 119.058 9.04167 119.058 8.925C119.041 8.84167 119.025 8.75 119.008 8.65C119.008 8.55 119.008 8.45 119.008 8.35C118.991 8.31667 118.983 8.275 118.983 8.225C118.983 8.175 118.983 8.13333 118.983 8.1C118.966 8.01667 118.95 7.93333 118.933 7.85C118.933 7.76667 118.933 7.68333 118.933 7.6C118.933 7.56667 118.9 7.45833 118.833 7.275C118.766 7.075 118.741 6.90833 118.758 6.775C118.775 6.74167 118.783 6.7 118.783 6.65C118.783 6.6 118.766 6.55833 118.733 6.525C118.7 6.50833 118.683 6.475 118.683 6.425V6.35C118.733 6.15 118.708 5.95 118.608 5.75C118.541 5.65 118.516 5.55 118.533 5.45C118.533 5.31667 118.475 5.21667 118.358 5.15C118.275 5.06667 118.2 4.96667 118.133 4.85C118.066 4.73333 118.025 4.61667 118.008 4.5C117.991 4.41667 117.983 4.33333 117.983 4.25C117.983 4.16667 117.983 4.09167 117.983 4.025C117.983 3.95833 117.991 3.91667 118.008 3.9C118.075 3.83333 118.108 3.75833 118.108 3.675C118.108 3.575 118.116 3.5 118.133 3.45C118.15 3.43333 118.166 3.425 118.183 3.425C118.2 3.425 118.216 3.41667 118.233 3.4C118.3 3.38333 118.333 3.325 118.333 3.225C118.3 3.15833 118.283 3.1 118.283 3.05C118.266 2.98333 118.291 2.925 118.358 2.875C118.391 2.80833 118.433 2.79167 118.483 2.825C118.6 2.875 118.733 2.85833 118.883 2.775C118.95 2.74167 118.991 2.725 119.008 2.725C119.058 2.725 119.083 2.725 119.083 2.725C119.1 2.70833 119.15 2.7 119.233 2.7C119.333 2.71667 119.425 2.68333 119.508 2.6C119.625 2.48333 119.766 2.425 119.933 2.425H121.483C121.866 2.44167 122.25 2.44167 122.633 2.425C123.016 2.40833 123.391 2.4 123.758 2.4C123.841 2.4 123.908 2.4 123.958 2.4C124.025 2.38333 124.091 2.36667 124.158 2.35C124.258 2.3 124.375 2.275 124.508 2.275H125.083C125.216 2.275 125.333 2.275 125.433 2.275C125.55 2.25833 125.666 2.24167 125.783 2.225C125.85 2.20833 125.908 2.2 125.958 2.2C126.025 2.2 126.091 2.2 126.158 2.2C126.225 2.2 126.291 2.2 126.358 2.2C126.425 2.2 126.491 2.19167 126.558 2.175C126.691 2.15833 126.833 2.15 126.983 2.15C127.133 2.13333 127.275 2.125 127.408 2.125C127.475 2.125 127.533 2.125 127.583 2.125C127.65 2.10833 127.716 2.09167 127.783 2.075C127.916 2.04167 128.041 2.025 128.158 2.025C128.291 2.00833 128.416 1.99167 128.533 1.975C128.666 1.95833 128.791 1.94167 128.908 1.925C129.041 1.90833 129.166 1.89167 129.283 1.875C129.433 1.875 129.541 1.89167 129.608 1.925C129.708 1.99167 129.8 2.05 129.883 2.1C129.983 2.15 130.075 2.21667 130.158 2.3C130.225 2.36667 130.266 2.425 130.283 2.475C130.3 2.54167 130.316 2.60833 130.333 2.675C130.35 2.74167 130.366 2.81667 130.383 2.9V3.075C130.366 3.15833 130.35 3.25 130.333 3.35C130.333 3.43333 130.325 3.525 130.308 3.625C130.275 3.69167 130.233 3.75 130.183 3.8L129.733 4.25C129.566 4.3 129.4 4.33333 129.233 4.35C129.083 4.36667 128.925 4.36667 128.758 4.35H128.583C128.5 4.36667 128.416 4.375 128.333 4.375C128.25 4.375 128.166 4.36667 128.083 4.35C127.983 4.33333 127.883 4.33333 127.783 4.35C127.683 4.35 127.583 4.35 127.483 4.35C127.416 4.35 127.35 4.35833 127.283 4.375C127.233 4.375 127.175 4.36667 127.108 4.35C127.025 4.33333 126.941 4.33333 126.858 4.35C126.791 4.35 126.716 4.35833 126.633 4.375C126.566 4.375 126.491 4.38333 126.408 4.4C126.341 4.4 126.266 4.4 126.183 4.4C125.966 4.43333 125.733 4.45 125.483 4.45C125.25 4.45 125.016 4.46667 124.783 4.5C124.633 4.48333 124.491 4.49167 124.358 4.525C124.225 4.54167 124.083 4.55833 123.933 4.575C123.8 4.59167 123.658 4.6 123.508 4.6C123.358 4.6 123.216 4.61667 123.083 4.65C122.916 4.65 122.75 4.675 122.583 4.725C122.433 4.75833 122.275 4.78333 122.108 4.8L121.933 4.825C121.816 4.825 121.708 4.84167 121.608 4.875C121.508 4.89167 121.4 4.91667 121.283 4.95C121.216 4.96667 121.15 4.98333 121.083 5C121.016 5 120.941 5.00833 120.858 5.025C120.808 5.025 120.75 5.04167 120.683 5.075C120.633 5.09167 120.608 5.14167 120.608 5.225L120.683 5.45C120.7 5.48333 120.691 5.56667 120.658 5.7C120.641 5.83333 120.625 5.93333 120.608 6C120.608 6.05 120.616 6.1 120.633 6.15C120.65 6.2 120.666 6.25 120.683 6.3C120.733 6.43333 120.758 6.58333 120.758 6.75C120.758 6.9 120.775 7.04167 120.808 7.175C120.825 7.24167 120.833 7.31667 120.833 7.4C120.833 7.46667 120.841 7.54167 120.858 7.625C120.858 7.65833 120.858 7.7 120.858 7.75C120.875 7.78333 120.883 7.825 120.883 7.875C120.883 7.925 120.875 7.95833 120.858 7.975C120.808 8.04167 120.783 8.11667 120.783 8.2C120.783 8.28333 120.783 8.36667 120.783 8.45C120.866 8.61667 120.908 8.78333 120.908 8.95C120.908 9.11667 120.908 9.28333 120.908 9.45C120.908 9.5 120.95 9.51667 121.033 9.5H121.058C121.091 9.43333 121.125 9.38333 121.158 9.35C121.208 9.35 121.266 9.33333 121.333 9.3C121.383 9.26667 121.45 9.25 121.533 9.25C121.666 9.26667 121.791 9.26667 121.908 9.25C122.025 9.21667 122.141 9.18333 122.258 9.15C123.041 8.95 123.775 8.69167 124.458 8.375C124.641 8.29167 124.833 8.225 125.033 8.175C125.233 8.10833 125.433 8.06667 125.633 8.05H125.708C125.858 8.03333 126.008 8.01667 126.158 8C126.308 7.98333 126.458 7.975 126.608 7.975C126.808 7.95833 127 7.93333 127.183 7.9C127.383 7.86667 127.583 7.84167 127.783 7.825C127.9 7.79167 128.008 7.76667 128.108 7.75C128.208 7.71667 128.316 7.675 128.433 7.625C128.65 7.54167 128.85 7.5 129.033 7.5C129.166 7.51667 129.291 7.55 129.408 7.6C129.525 7.63333 129.641 7.68333 129.758 7.75C130.008 7.91667 130.133 8.16667 130.133 8.5C130.133 8.63333 130.116 8.76667 130.083 8.9C130.066 9.03333 130.058 9.16667 130.058 9.3C130.058 9.33333 130.041 9.36667 130.008 9.4L129.933 9.525C129.916 9.59167 129.9 9.65833 129.883 9.725C129.866 9.79167 129.825 9.84167 129.758 9.875C129.658 9.95833 129.55 10.05 129.433 10.15C129.333 10.2333 129.216 10.2917 129.083 10.325C129.016 10.3417 128.95 10.3583 128.883 10.375C128.833 10.3917 128.775 10.4 128.708 10.4C128.441 10.4 128.166 10.4167 127.883 10.45C127.616 10.4833 127.341 10.5167 127.058 10.55C126.841 10.5667 126.625 10.5917 126.408 10.625C126.208 10.6583 126 10.675 125.783 10.675C125.583 10.675 125.358 10.7167 125.108 10.8C124.941 10.8333 124.766 10.8667 124.583 10.9C124.4 10.9333 124.216 10.9583 124.033 10.975C123.9 10.9917 123.758 11.0167 123.608 11.05C123.475 11.0667 123.341 11.0833 123.208 11.1L122.783 11.175C122.75 11.1917 122.7 11.2 122.633 11.2C122.516 11.2333 122.4 11.2583 122.283 11.275C122.166 11.2917 122.05 11.3167 121.933 11.35C121.816 11.3667 121.7 11.3917 121.583 11.425C121.483 11.4583 121.375 11.4917 121.258 11.525C121.175 11.5417 121.108 11.575 121.058 11.625C121.008 11.6583 120.966 11.7083 120.933 11.775C120.916 11.825 120.916 11.875 120.933 11.925C120.95 11.9917 120.941 12.0583 120.908 12.125C120.925 12.2917 120.933 12.4583 120.933 12.625C120.95 12.7917 120.95 12.9583 120.933 13.125C120.966 13.2583 120.975 13.3917 120.958 13.525C120.958 13.6583 120.95 13.7917 120.933 13.925C120.9 14.125 120.908 14.2917 120.958 14.425C121.008 14.6417 120.991 14.8667 120.908 15.1C120.875 15.2 120.875 15.2667 120.908 15.3C120.941 15.35 120.941 15.4083 120.908 15.475V15.625C120.891 15.7583 120.95 15.825 121.083 15.825H121.133C121.25 15.825 121.366 15.8667 121.483 15.95C121.566 16.0333 121.666 16.0583 121.783 16.025L122.483 15.95C122.583 15.9333 122.683 15.925 122.783 15.925C122.883 15.9083 122.983 15.9 123.083 15.9C123.116 15.8833 123.166 15.8917 123.233 15.925C123.316 15.975 123.391 15.9833 123.458 15.95C123.491 15.9167 123.533 15.8917 123.583 15.875C123.65 15.8583 123.7 15.8333 123.733 15.8C123.833 15.7 123.958 15.6667 124.108 15.7C124.241 15.7333 124.35 15.725 124.433 15.675C124.583 15.625 124.725 15.6083 124.858 15.625C124.941 15.6417 125.025 15.6333 125.108 15.6C125.191 15.5667 125.275 15.55 125.358 15.55C125.391 15.55 125.416 15.5583 125.433 15.575C125.45 15.575 125.466 15.5667 125.483 15.55C125.516 15.55 125.55 15.5417 125.583 15.525C125.616 15.5083 125.641 15.5 125.658 15.5C125.775 15.45 125.883 15.4333 125.983 15.45C126.066 15.45 126.108 15.45 126.108 15.45C126.175 15.4333 126.233 15.4333 126.283 15.45C126.35 15.4667 126.408 15.4917 126.458 15.525C126.541 15.5417 126.608 15.5667 126.658 15.6C126.725 15.6333 126.791 15.6583 126.858 15.675C126.891 15.675 126.916 15.6833 126.933 15.7C127.016 15.7667 127.116 15.825 127.233 15.875C127.366 15.925 127.441 15.9833 127.458 16.05C127.491 16.15 127.508 16.25 127.508 16.35C127.508 16.4333 127.516 16.525 127.533 16.625C127.533 16.675 127.525 16.725 127.508 16.775C127.508 16.825 127.5 16.875 127.483 16.925C127.45 16.9917 127.408 17.0667 127.358 17.15C127.325 17.2333 127.275 17.3083 127.208 17.375C127.175 17.4083 127.141 17.4417 127.108 17.475C127.091 17.5083 127.066 17.5417 127.033 17.575C126.966 17.6417 126.891 17.7 126.808 17.75C126.725 17.8 126.633 17.825 126.533 17.825C126.466 17.825 126.416 17.8333 126.383 17.85C126.316 17.8833 126.25 17.9 126.183 17.9C126.116 17.9 126.041 17.9 125.958 17.9C125.841 17.9167 125.725 17.9333 125.608 17.95C125.508 17.95 125.4 17.9417 125.283 17.925C125.216 17.9083 125.158 17.9083 125.108 17.925C124.941 17.975 124.775 17.9833 124.608 17.95C124.441 17.95 124.275 17.9583 124.108 17.975C123.958 17.975 123.808 17.975 123.658 17.975H123.333C123.283 17.975 123.241 17.9833 123.208 18C123.141 18.0333 123.058 18.05 122.958 18.05C122.875 18.05 122.791 18.0417 122.708 18.025H122.458C122.441 18.025 122.416 18.025 122.383 18.025C122.35 18.0417 122.316 18.0417 122.283 18.025C122.233 18.0083 122.183 18 122.133 18C122.1 18.0167 122.058 18.0333 122.008 18.05C121.975 18.05 121.941 18.05 121.908 18.05C121.891 18.0667 121.866 18.075 121.833 18.075C121.666 18.0583 121.508 18.0583 121.358 18.075C121.208 18.1083 121.05 18.1417 120.883 18.175ZM137.254 19.225L136.829 19.15C136.612 19.1167 136.387 19.0833 136.154 19.05C135.937 19.0167 135.712 18.9917 135.479 18.975C135.246 18.975 135.012 18.9083 134.779 18.775C134.562 18.6583 134.412 18.475 134.329 18.225C134.312 18.1417 134.287 18.0583 134.254 17.975C134.237 17.8917 134.221 17.8083 134.204 17.725C134.204 17.525 134.246 17.375 134.329 17.275C134.412 17.1917 134.479 17.1083 134.529 17.025C134.596 16.9417 134.662 16.8667 134.729 16.8C134.762 16.7667 134.796 16.7417 134.829 16.725C134.862 16.7083 134.896 16.6917 134.929 16.675C135.012 16.625 135.096 16.5917 135.179 16.575C135.262 16.5417 135.346 16.5167 135.429 16.5C135.462 16.4833 135.487 16.4833 135.504 16.5C135.537 16.5 135.562 16.5 135.579 16.5C135.662 16.5167 135.754 16.5333 135.854 16.55C135.954 16.55 136.046 16.5667 136.129 16.6L137.179 16.75C137.412 16.7833 137.621 16.75 137.804 16.65C137.871 16.6167 137.929 16.5833 137.979 16.55C138.046 16.5167 138.104 16.4833 138.154 16.45C138.521 16.2333 138.837 16.0083 139.104 15.775C139.304 15.5917 139.496 15.4083 139.679 15.225C139.862 15.0417 140.029 14.8417 140.179 14.625C140.296 14.475 140.371 14.325 140.404 14.175C140.437 14.0083 140.446 13.8417 140.429 13.675L140.354 13.475C140.337 13.3917 140.304 13.325 140.254 13.275C140.204 13.225 140.154 13.1667 140.104 13.1C140.004 13.0167 139.904 12.925 139.804 12.825C139.721 12.725 139.629 12.6417 139.529 12.575C139.279 12.375 139.029 12.1833 138.779 12C138.546 11.8167 138.304 11.6333 138.054 11.45C138.037 11.4167 137.987 11.3833 137.904 11.35C137.754 11.25 137.604 11.1417 137.454 11.025C137.321 10.8917 137.187 10.7667 137.054 10.65C136.887 10.4833 136.704 10.325 136.504 10.175C136.404 10.125 136.312 10.0417 136.229 9.925C136.162 9.84167 136.062 9.75833 135.929 9.675C135.812 9.60833 135.704 9.53333 135.604 9.45C135.504 9.35 135.404 9.25833 135.304 9.175L134.979 8.875C134.912 8.79167 134.837 8.71667 134.754 8.65C134.687 8.56667 134.612 8.48333 134.529 8.4C134.496 8.31667 134.446 8.25 134.379 8.2C134.329 8.15 134.279 8.09167 134.229 8.025C134.212 7.99167 134.187 7.95833 134.154 7.925C134.121 7.875 134.096 7.825 134.079 7.775C133.979 7.575 133.871 7.375 133.754 7.175C133.654 6.975 133.562 6.76667 133.479 6.55C133.429 6.41667 133.379 6.29167 133.329 6.175C133.296 6.04167 133.262 5.91667 133.229 5.8C133.212 5.66667 133.179 5.55 133.129 5.45C133.096 5.33333 133.062 5.21667 133.029 5.1C132.996 4.91667 132.954 4.74167 132.904 4.575C132.871 4.39167 132.837 4.21667 132.804 4.05L132.754 3.85C132.737 3.66667 132.737 3.49167 132.754 3.325C132.787 3.09167 132.837 2.88333 132.904 2.7C132.971 2.5 133.079 2.34167 133.229 2.225C133.396 2.09167 133.562 1.95833 133.729 1.825C133.896 1.69167 134.071 1.58333 134.254 1.5C134.287 1.5 134.312 1.49167 134.329 1.475C134.496 1.34167 134.679 1.25 134.879 1.2C135.079 1.13333 135.279 1.075 135.479 1.025C136.279 0.791666 137.104 0.616666 137.954 0.499999H138.204C138.371 0.499999 138.529 0.499999 138.679 0.499999C138.829 0.499999 138.987 0.491666 139.154 0.474999C139.354 0.474999 139.554 0.499999 139.754 0.55C139.954 0.583333 140.146 0.641666 140.329 0.724999C140.462 0.791666 140.596 0.866666 140.729 0.949999C140.862 1.01667 140.987 1.09167 141.104 1.175C141.237 1.275 141.321 1.38333 141.354 1.5L141.429 1.675C141.512 1.825 141.554 1.98333 141.554 2.15C141.571 2.3 141.562 2.45833 141.529 2.625C141.529 2.675 141.521 2.73333 141.504 2.8C141.504 2.85 141.504 2.9 141.504 2.95C141.454 3.31667 141.279 3.6 140.979 3.8C140.796 3.96667 140.554 4.03333 140.254 4C140.187 3.96667 140.154 3.98333 140.154 4.05C140.154 4.11667 140.112 4.15 140.029 4.15H139.879C139.779 4.15 139.679 4.1 139.579 4C139.496 3.91667 139.454 3.85 139.454 3.8C139.454 3.73333 139.487 3.68333 139.554 3.65C139.521 3.56667 139.487 3.49167 139.454 3.425C139.421 3.35833 139.387 3.30833 139.354 3.275C139.304 3.19167 139.229 3.13333 139.129 3.1C139.046 3.08333 138.962 3.06667 138.879 3.05C138.796 3.03333 138.712 3.01667 138.629 3C138.562 3 138.487 3 138.404 3C138.321 2.98333 138.237 2.96667 138.154 2.95C138.104 2.93333 138.029 2.94167 137.929 2.975C137.879 2.99167 137.829 3.00833 137.779 3.025C137.729 3.025 137.671 3.01667 137.604 3C137.554 3 137.496 3 137.429 3C137.379 3 137.321 3.01667 137.254 3.05L136.779 3.125C136.512 3.175 136.254 3.275 136.004 3.425C135.954 3.44167 135.904 3.45833 135.854 3.475C135.804 3.49167 135.754 3.49167 135.704 3.475C135.604 3.45833 135.521 3.48333 135.454 3.55C135.437 3.58333 135.396 3.60833 135.329 3.625C135.279 3.625 135.237 3.64167 135.204 3.675C135.137 3.74167 135.104 3.80833 135.104 3.875C135.121 3.90833 135.129 3.95833 135.129 4.025L135.654 5.55C135.754 5.81667 135.879 6.06667 136.029 6.3C136.196 6.51667 136.371 6.73333 136.554 6.95C136.837 7.28333 137.129 7.56667 137.429 7.8L138.229 8.475C138.396 8.625 138.571 8.76667 138.754 8.9C138.937 9.03333 139.112 9.16667 139.279 9.3C139.529 9.48333 139.779 9.675 140.029 9.875C140.279 10.0583 140.529 10.25 140.779 10.45C140.979 10.6167 141.171 10.7833 141.354 10.95C141.554 11.1 141.737 11.2667 141.904 11.45C142.021 11.5833 142.137 11.7167 142.254 11.85C142.371 11.9833 142.471 12.1333 142.554 12.3C142.671 12.4833 142.771 12.7 142.854 12.95C142.954 13.2667 142.996 13.5667 142.979 13.85C142.962 13.8833 142.954 13.9333 142.954 14C142.954 14.2 142.929 14.3917 142.879 14.575C142.846 14.7417 142.787 14.9167 142.704 15.1C142.621 15.2667 142.529 15.4417 142.429 15.625C142.346 15.7917 142.246 15.9583 142.129 16.125C141.962 16.3417 141.787 16.55 141.604 16.75C141.437 16.9333 141.246 17.1167 141.029 17.3C140.912 17.4 140.796 17.5083 140.679 17.625C140.562 17.725 140.437 17.8167 140.304 17.9C140.221 17.9667 140.137 18.025 140.054 18.075C139.971 18.1417 139.887 18.2083 139.804 18.275C139.737 18.3083 139.671 18.35 139.604 18.4C139.537 18.45 139.471 18.5 139.404 18.55C139.337 18.6167 139.254 18.6667 139.154 18.7C139.071 18.75 138.987 18.7917 138.904 18.825L138.179 19.125C138.029 19.175 137.879 19.2083 137.729 19.225C137.579 19.2417 137.421 19.2417 137.254 19.225Z" fill="#353535"/>
</svg>
