<svg width="138" height="23" viewBox="0 0 138 23" fill="none" xmlns="http://www.w3.org/2000/svg">
<path d="M1.57979 19.475C1.42979 19.425 1.31312 19.325 1.22979 19.175L1.15479 18.9C1.13812 18.8167 1.12979 18.7333 1.12979 18.65C1.12979 18.5667 1.12145 18.4833 1.10479 18.4C1.08812 18.3333 1.07145 18.2667 1.05479 18.2C1.05479 18.15 1.03812 18.1 1.00479 18.05C0.971452 17.9833 0.938119 17.9167 0.904785 17.85C0.871452 17.7833 0.838119 17.7167 0.804785 17.65C0.621452 17.25 0.563119 16.8667 0.629785 16.5V16.375C0.646452 16.175 0.663119 15.9833 0.679785 15.8C0.696452 15.6 0.713119 15.4 0.729785 15.2C0.729785 15.1333 0.729785 15.0667 0.729785 15C0.746452 14.9333 0.754785 14.8667 0.754785 14.8C0.754785 14.75 0.754785 14.7 0.754785 14.65C0.771452 14.6 0.779785 14.5583 0.779785 14.525C0.779785 14.4417 0.779785 14.35 0.779785 14.25C0.796452 14.15 0.804785 14.0583 0.804785 13.975V13.825C0.788119 13.5583 0.779785 13.3 0.779785 13.05C0.779785 12.7833 0.779785 12.5167 0.779785 12.25C0.779785 12.1667 0.779785 12.0833 0.779785 12C0.779785 11.9 0.771452 11.8083 0.754785 11.725C0.738119 11.6917 0.729785 11.6417 0.729785 11.575C0.746452 11.4583 0.746452 11.35 0.729785 11.25C0.729785 11.15 0.729785 11.05 0.729785 10.95C0.729785 10.8833 0.729785 10.825 0.729785 10.775C0.729785 10.7083 0.738119 10.65 0.754785 10.6C0.771452 10.4333 0.771452 10.275 0.754785 10.125C0.738119 9.925 0.721452 9.725 0.704785 9.525C0.688119 9.325 0.663119 9.13333 0.629785 8.95C0.596452 8.66667 0.563119 8.38333 0.529785 8.1C0.513119 7.81667 0.513119 7.53333 0.529785 7.25V6.5C0.529785 6.41667 0.529785 6.33333 0.529785 6.25C0.546452 6.16667 0.554785 6.09167 0.554785 6.025V5.825C0.538119 5.69167 0.529785 5.55833 0.529785 5.425C0.546452 5.275 0.563119 5.125 0.579785 4.975V4.7C0.579785 4.46667 0.579785 4.23333 0.579785 4C0.596452 3.76667 0.604785 3.54167 0.604785 3.325C0.604785 3.19167 0.604785 3.06667 0.604785 2.95C0.604785 2.81667 0.588119 2.69167 0.554785 2.575C0.538119 2.375 0.554785 2.15833 0.604785 1.925C0.654785 1.79167 0.713119 1.66667 0.779785 1.55C0.846452 1.43333 0.921452 1.325 1.00479 1.225C1.30479 0.874999 1.69645 0.699999 2.17979 0.699999C2.32979 0.716666 2.47145 0.749999 2.60479 0.799999C2.75479 0.833332 2.88812 0.899999 3.00479 1C3.03812 1.01667 3.08812 1.05833 3.15479 1.125C3.23812 1.19167 3.32979 1.25833 3.42979 1.325C3.54645 1.375 3.66312 1.41667 3.77979 1.45C3.91312 1.46667 4.04645 1.49167 4.17979 1.525C4.32979 1.55833 4.47145 1.59167 4.60479 1.625C4.65479 1.64167 4.72145 1.65 4.80479 1.65C4.88812 1.65 4.95479 1.625 5.00479 1.575C5.03812 1.54167 5.07145 1.51667 5.10479 1.5C5.15479 1.46667 5.20479 1.44167 5.25479 1.425C5.45479 1.30833 5.63812 1.3 5.80479 1.4C5.85479 1.41667 5.89645 1.44167 5.92979 1.475C5.97979 1.49167 6.02145 1.50833 6.05479 1.525C6.23812 1.60833 6.37979 1.70833 6.47979 1.825C6.56312 1.925 6.67145 1.99167 6.80479 2.025C6.88812 2.04167 6.95479 2.06667 7.00479 2.1C7.07145 2.13333 7.13812 2.18333 7.20479 2.25C7.27145 2.3 7.33812 2.34167 7.40479 2.375C7.48812 2.40833 7.56312 2.44167 7.62979 2.475C7.76312 2.49167 7.87145 2.56667 7.95479 2.7C8.02145 2.83333 8.12979 2.925 8.27979 2.975C8.36312 2.99167 8.44645 3.04167 8.52979 3.125C8.56312 3.175 8.64645 3.23333 8.77979 3.3C8.86312 3.31667 8.92979 3.35833 8.97979 3.425C9.04645 3.475 9.10479 3.54167 9.15479 3.625L9.20479 3.7C9.32145 3.95 9.51312 4.18333 9.77979 4.4C9.87979 4.48333 9.97145 4.58333 10.0548 4.7C10.1381 4.8 10.1965 4.91667 10.2298 5.05C10.2631 5.11667 10.2965 5.18333 10.3298 5.25C10.3798 5.31667 10.4215 5.39167 10.4548 5.475C10.4881 5.525 10.5131 5.575 10.5298 5.625C10.5465 5.675 10.5631 5.73333 10.5798 5.8C10.5965 5.86667 10.6131 5.925 10.6298 5.975C10.6465 6.025 10.6631 6.08333 10.6798 6.15C10.6965 6.18333 10.7048 6.225 10.7048 6.275C10.7048 6.30833 10.7131 6.34167 10.7298 6.375C10.7798 6.55833 10.8131 6.75 10.8298 6.95C10.8631 7.15 10.8881 7.35 10.9048 7.55C10.9215 7.66667 10.9215 7.78333 10.9048 7.9C10.9048 8.01667 10.9048 8.14167 10.9048 8.275C10.9048 8.35833 10.8965 8.45 10.8798 8.55C10.8798 8.63333 10.8715 8.71667 10.8548 8.8C10.8548 8.85 10.8381 8.90833 10.8048 8.975C10.6548 9.425 10.4131 9.825 10.0798 10.175C10.0131 10.2417 9.94645 10.3167 9.87979 10.4C9.81312 10.4667 9.74645 10.5333 9.67979 10.6C9.57979 10.7 9.47979 10.7917 9.37979 10.875C9.27979 10.9583 9.17979 11.0417 9.07979 11.125L9.00479 11.2C8.87145 11.2667 8.73812 11.3333 8.60479 11.4C8.47145 11.4667 8.32979 11.5167 8.17979 11.55C8.12979 11.55 8.09645 11.5583 8.07979 11.575C7.96312 11.6417 7.82979 11.675 7.67979 11.675C7.54645 11.675 7.41312 11.6667 7.27979 11.65C7.21312 11.6333 7.14645 11.625 7.07979 11.625C7.02979 11.6083 6.97145 11.6 6.90479 11.6C6.68812 11.6 6.47979 11.6083 6.27979 11.625C6.07979 11.6417 5.87145 11.6667 5.65479 11.7L4.50479 11.875C4.45479 11.875 4.39645 11.8833 4.32979 11.9C4.27979 11.9 4.22145 11.9083 4.15479 11.925C4.03812 11.9417 3.92145 11.9667 3.80479 12C3.70479 12.0167 3.59645 12.0167 3.47979 12C3.42979 12 3.40479 12.0333 3.40479 12.1V12.525C3.37145 12.7083 3.37145 12.8917 3.40479 13.075C3.43812 13.225 3.42145 13.3417 3.35479 13.425C3.30479 13.5417 3.29645 13.6667 3.32979 13.8C3.36312 13.95 3.38812 14.1083 3.40479 14.275C3.43812 14.425 3.47145 14.575 3.50479 14.725C3.52145 14.8083 3.52979 14.8917 3.52979 14.975C3.54645 15.0583 3.55479 15.1417 3.55479 15.225C3.58812 15.575 3.63812 15.925 3.70479 16.275C3.73812 16.375 3.75479 16.475 3.75479 16.575C3.77145 16.6583 3.78812 16.75 3.80479 16.85C3.80479 16.9667 3.79645 17.0583 3.77979 17.125C3.76312 17.175 3.74645 17.2333 3.72979 17.3C3.72979 17.35 3.71312 17.4 3.67979 17.45L3.60479 17.625C3.57145 17.6583 3.53812 17.7083 3.50479 17.775C3.43812 17.9083 3.32145 18.0167 3.15479 18.1C2.95479 18.1833 2.77145 18.2167 2.60479 18.2C2.52145 18.2 2.46312 18.2083 2.42979 18.225C2.34645 18.225 2.29645 18.2583 2.27979 18.325C2.26312 18.3583 2.24645 18.4 2.22979 18.45C2.21312 18.5 2.19645 18.5417 2.17979 18.575C2.17979 18.6417 2.17145 18.7083 2.15479 18.775C2.15479 18.8583 2.14645 18.9417 2.12979 19.025C2.11312 19.1583 2.04645 19.2833 1.92979 19.4C1.82979 19.5 1.71312 19.525 1.57979 19.475ZM3.85479 9.7C3.95479 9.7 4.04645 9.7 4.12979 9.7C4.22979 9.68333 4.32979 9.66667 4.42979 9.65C4.54645 9.61667 4.66312 9.59167 4.77979 9.575C4.89645 9.55833 5.01312 9.54167 5.12979 9.525C5.36312 9.49167 5.58812 9.44167 5.80479 9.375C5.87145 9.35833 5.93812 9.35 6.00479 9.35C6.07145 9.33333 6.13812 9.325 6.20479 9.325C6.32145 9.325 6.40479 9.31667 6.45479 9.3C6.57145 9.26667 6.67979 9.25 6.77979 9.25C6.89645 9.25 7.02145 9.25 7.15479 9.25H7.52979C7.72979 9.23333 7.88812 9.15 8.00479 9L8.20479 8.775C8.27145 8.69167 8.32979 8.60833 8.37979 8.525C8.44645 8.425 8.48812 8.31667 8.50479 8.2C8.53812 7.95 8.52979 7.725 8.47979 7.525C8.42979 7.325 8.37145 7.13333 8.30479 6.95C8.23812 6.75 8.15479 6.56667 8.05479 6.4C7.95479 6.18333 7.80479 6.01667 7.60479 5.9C7.53812 5.88333 7.48812 5.83333 7.45479 5.75C7.42145 5.65 7.36312 5.575 7.27979 5.525C7.26312 5.50833 7.24645 5.49167 7.22979 5.475C7.21312 5.45833 7.18812 5.44167 7.15479 5.425C7.08812 5.35833 6.99645 5.325 6.87979 5.325C6.81312 5.325 6.73812 5.31667 6.65479 5.3C6.58812 5.26667 6.52145 5.24167 6.45479 5.225C6.38812 5.19167 6.32145 5.15833 6.25479 5.125C6.20479 5.09167 6.15479 5.05833 6.10479 5.025C5.93812 4.925 5.75479 4.875 5.55479 4.875C5.40479 4.875 5.23812 4.85 5.05479 4.8C4.87145 4.68333 4.67979 4.61667 4.47979 4.6C4.44645 4.6 4.39645 4.58333 4.32979 4.55L4.12979 4.475C4.02979 4.425 3.94645 4.4 3.87979 4.4C3.66312 4.33333 3.50479 4.40833 3.40479 4.625C3.38812 4.675 3.37145 4.73333 3.35479 4.8C3.33812 4.85 3.32145 4.90833 3.30479 4.975C3.28812 5.10833 3.27145 5.24167 3.25479 5.375C3.23812 5.50833 3.22145 5.64167 3.20479 5.775C3.18812 5.875 3.17145 5.975 3.15479 6.075C3.13812 6.175 3.12979 6.275 3.12979 6.375C3.11312 6.59167 3.10479 6.80833 3.10479 7.025C3.12145 7.24167 3.14645 7.46667 3.17979 7.7V7.95C3.17979 8.06667 3.17979 8.18333 3.17979 8.3C3.19645 8.41667 3.21312 8.53333 3.22979 8.65C3.24645 8.7 3.25479 8.76667 3.25479 8.85L3.32979 9.525C3.32979 9.625 3.37979 9.675 3.47979 9.675C3.54645 9.69167 3.60479 9.7 3.65479 9.7C3.72145 9.7 3.78812 9.7 3.85479 9.7ZM15.3001 18.5C14.9834 18.5333 14.7251 18.4333 14.5251 18.2C14.4251 18.1 14.3334 17.9917 14.2501 17.875C14.1668 17.7583 14.1001 17.6333 14.0501 17.5C13.9668 17.2667 13.8918 17.0333 13.8251 16.8C13.7584 16.55 13.7001 16.3083 13.6501 16.075C13.6001 15.8917 13.5751 15.7167 13.5751 15.55C13.5584 15.3667 13.5334 15.1917 13.5001 15.025C13.4834 14.8417 13.4751 14.6583 13.4751 14.475C13.4751 14.375 13.4751 14.275 13.4751 14.175C13.4751 14.0583 13.4668 13.95 13.4501 13.85C13.4334 13.7833 13.4251 13.725 13.4251 13.675C13.4251 13.625 13.4251 13.5667 13.4251 13.5C13.4251 13.2667 13.4251 13.0333 13.4251 12.8C13.4251 12.55 13.4168 12.3083 13.4001 12.075C13.4001 11.9417 13.3918 11.825 13.3751 11.725C13.3584 11.6083 13.3251 11.4917 13.2751 11.375C13.2084 11.1917 13.2001 10.9917 13.2501 10.775C13.2501 10.725 13.2584 10.6917 13.2751 10.675C13.3084 10.5583 13.3251 10.4417 13.3251 10.325C13.3418 10.2083 13.3418 10.0917 13.3251 9.975C13.3084 9.89167 13.3001 9.80833 13.3001 9.725C13.3001 9.64167 13.3001 9.56667 13.3001 9.5C13.2834 9.31667 13.2751 9.13333 13.2751 8.95C13.2918 8.75 13.3084 8.55833 13.3251 8.375C13.3418 8.325 13.3501 8.275 13.3501 8.225C13.3501 8.175 13.3501 8.125 13.3501 8.075C13.3334 7.89167 13.3334 7.71667 13.3501 7.55C13.3834 7.38333 13.4084 7.21667 13.4251 7.05C13.4584 6.85 13.4918 6.65833 13.5251 6.475C13.5584 6.275 13.6001 6.075 13.6501 5.875C13.6834 5.79167 13.7001 5.7 13.7001 5.6C13.7001 5.5 13.7001 5.4 13.7001 5.3C13.7001 5.21667 13.6918 5.13333 13.6751 5.05C13.6751 4.96667 13.6751 4.89167 13.6751 4.825C13.6751 4.775 13.6751 4.725 13.6751 4.675C13.6751 4.625 13.6834 4.575 13.7001 4.525C13.7168 4.475 13.7251 4.425 13.7251 4.375C13.7251 4.325 13.7334 4.29167 13.7501 4.275C13.8001 4.20833 13.8418 4.15 13.8751 4.1C13.9084 4.03333 13.9584 3.975 14.0251 3.925C14.1084 3.875 14.1834 3.825 14.2501 3.775C14.3334 3.725 14.4084 3.68333 14.4751 3.65C14.5584 3.61667 14.6251 3.575 14.6751 3.525C14.7418 3.44167 14.8084 3.36667 14.8751 3.3C14.9584 3.21667 15.0251 3.125 15.0751 3.025C15.1584 2.94167 15.2418 2.85 15.3251 2.75C15.4251 2.63333 15.5334 2.54167 15.6501 2.475C15.6834 2.45833 15.7334 2.41667 15.8001 2.35C16.0001 2.16667 16.2334 2.05 16.5001 2C16.5501 1.98333 16.5918 1.975 16.6251 1.975C16.6751 1.95833 16.7251 1.95 16.7751 1.95L16.9501 1.875C17.0834 1.825 17.2001 1.85 17.3001 1.95C17.3334 2 17.3751 2.05 17.4251 2.1C17.4918 2.13333 17.5501 2.16667 17.6001 2.2C17.7334 2.31667 17.8584 2.44167 17.9751 2.575C18.1084 2.70833 18.2251 2.85833 18.3251 3.025C18.4918 3.29167 18.6334 3.55833 18.7501 3.825C18.8834 4.09167 19.0084 4.36667 19.1251 4.65L19.5751 5.725C19.5918 5.825 19.6334 5.91667 19.7001 6C19.8334 6.25 19.9334 6.50833 20.0001 6.775C20.0668 7.025 20.1334 7.28333 20.2001 7.55C20.2168 7.58333 20.2251 7.61667 20.2251 7.65C20.2418 7.68333 20.2501 7.71667 20.2501 7.75C20.2834 7.88333 20.3084 8.025 20.3251 8.175C20.3584 8.30833 20.3668 8.44167 20.3501 8.575C20.3668 8.725 20.3584 8.875 20.3251 9.025C20.3084 9.15833 20.2834 9.29167 20.2501 9.425C20.2001 9.59167 20.1418 9.75 20.0751 9.9C20.0084 10.0333 19.9334 10.175 19.8501 10.325C19.8168 10.425 19.7584 10.5167 19.6751 10.6C19.5918 10.6833 19.5084 10.7583 19.4251 10.825C19.2918 10.8917 19.1584 10.9917 19.0251 11.125C18.9918 11.1583 18.9501 11.1833 18.9001 11.2C18.8668 11.2167 18.8334 11.2417 18.8001 11.275C18.6834 11.325 18.5584 11.3833 18.4251 11.45C18.2918 11.5 18.1584 11.55 18.0251 11.6C18.0084 11.6 18.0001 11.6167 18.0001 11.65C18.0001 11.6667 18.0084 11.6833 18.0251 11.7L18.7001 12.175C18.7834 12.225 18.8584 12.275 18.9251 12.325C18.9918 12.3583 19.0584 12.4 19.1251 12.45L19.2751 12.525C19.4751 12.6417 19.6751 12.7667 19.8751 12.9C20.0751 13.0333 20.2668 13.1667 20.4501 13.3C20.8001 13.5167 21.1501 13.7417 21.5001 13.975C21.8501 14.1917 22.1834 14.4333 22.5001 14.7C22.7834 14.9167 23.0334 15.1667 23.2501 15.45C23.3001 15.5 23.3501 15.5583 23.4001 15.625C23.4501 15.675 23.5084 15.7167 23.5751 15.75L23.6501 15.825C23.9168 16.0583 24.0668 16.375 24.1001 16.775C24.1001 16.825 24.0918 16.875 24.0751 16.925C24.0751 16.975 24.0751 17.025 24.0751 17.075C24.0751 17.175 24.0418 17.2583 23.9751 17.325C23.9084 17.3583 23.8751 17.4 23.8751 17.45C23.8251 17.5667 23.7501 17.65 23.6501 17.7C23.5668 17.7333 23.4834 17.7833 23.4001 17.85C23.3668 17.8667 23.3084 17.875 23.2251 17.875C23.1251 17.8583 23.0168 17.8417 22.9001 17.825C22.8001 17.8083 22.7001 17.8 22.6001 17.8C22.4668 17.8 22.3251 17.7417 22.1751 17.625C22.0751 17.5417 21.9834 17.4667 21.9001 17.4C21.8168 17.3167 21.7334 17.2167 21.6501 17.1C21.4334 16.8 21.1501 16.525 20.8001 16.275C20.6334 16.1417 20.4751 16.0167 20.3251 15.9C20.1751 15.7833 20.0084 15.675 19.8251 15.575C19.7084 15.5083 19.5918 15.4417 19.4751 15.375C19.3751 15.2917 19.2584 15.2167 19.1251 15.15C18.7084 14.8667 18.2834 14.5917 17.8501 14.325C17.4168 14.0417 16.9834 13.7583 16.5501 13.475C16.4834 13.425 16.4084 13.375 16.3251 13.325C16.2418 13.275 16.1584 13.225 16.0751 13.175C16.0418 13.1417 15.9918 13.1083 15.9251 13.075C15.8584 13.075 15.8251 13.1 15.8251 13.15C15.8251 13.1667 15.8168 13.1833 15.8001 13.2C15.8001 13.2 15.8001 13.2083 15.8001 13.225C15.8001 13.275 15.8001 13.325 15.8001 13.375C15.8001 13.425 15.8084 13.475 15.8251 13.525C15.8418 13.6583 15.8501 13.7917 15.8501 13.925C15.8501 14.0417 15.8501 14.1667 15.8501 14.3C15.8501 14.4 15.8501 14.5 15.8501 14.6C15.8668 14.6833 15.8834 14.775 15.9001 14.875C15.9001 14.925 15.9001 14.9833 15.9001 15.05C15.9168 15.1 15.9251 15.15 15.9251 15.2C15.9084 15.35 15.9168 15.5 15.9501 15.65C15.9834 15.8 16.0084 15.95 16.0251 16.1L16.1751 16.75C16.1918 16.8167 16.2084 16.8917 16.2251 16.975C16.2418 17.0417 16.2584 17.1167 16.2751 17.2C16.2918 17.2667 16.2918 17.3333 16.2751 17.4C16.2751 17.45 16.2668 17.5083 16.2501 17.575C16.2501 17.5917 16.2334 17.6167 16.2001 17.65C16.1168 17.6667 16.0584 17.725 16.0251 17.825C15.9751 17.9417 15.9001 18.0417 15.8001 18.125C15.7168 18.225 15.6251 18.3167 15.5251 18.4C15.5084 18.4167 15.4751 18.4333 15.4251 18.45C15.3751 18.4667 15.3334 18.4833 15.3001 18.5ZM16.2751 9.75H16.3251C16.5084 9.71667 16.6918 9.68333 16.8751 9.65C17.0751 9.6 17.2668 9.54167 17.4501 9.475C17.6334 9.425 17.7918 9.33333 17.9251 9.2C18.0418 9.08333 18.1001 8.95 18.1001 8.8C18.1168 8.68333 18.1168 8.575 18.1001 8.475C18.1001 8.35833 18.0834 8.24167 18.0501 8.125C17.9834 7.825 17.9084 7.53333 17.8251 7.25C17.7418 6.95 17.6418 6.66667 17.5251 6.4L17.3001 5.8C17.2501 5.63333 17.1918 5.475 17.1251 5.325C17.0584 5.15833 16.9834 5 16.9001 4.85C16.8834 4.81667 16.8668 4.78333 16.8501 4.75C16.8334 4.7 16.8168 4.65833 16.8001 4.625L16.7001 4.525C16.6501 4.45833 16.5918 4.45833 16.5251 4.525C16.5084 4.525 16.4834 4.54167 16.4501 4.575C16.3334 4.725 16.2251 4.88333 16.1251 5.05C16.0418 5.21667 15.9918 5.4 15.9751 5.6C15.9584 5.66667 15.9418 5.73333 15.9251 5.8C15.9251 5.86667 15.9251 5.94167 15.9251 6.025V7.1C15.9084 7.33333 15.9001 7.575 15.9001 7.825C15.9168 8.075 15.9084 8.31667 15.8751 8.55C15.8584 8.6 15.8501 8.65 15.8501 8.7C15.8668 8.75 15.8751 8.8 15.8751 8.85C15.8918 8.95 15.9001 9.05 15.9001 9.15C15.9001 9.23333 15.9001 9.325 15.9001 9.425C15.9001 9.59167 15.9168 9.69167 15.9501 9.725C16.0001 9.75833 16.1084 9.76667 16.2751 9.75ZM29.089 18.175C28.989 18.175 28.9223 18.1667 28.889 18.15C28.8056 18.1167 28.7223 18.1 28.639 18.1C28.5723 18.1167 28.4973 18.125 28.414 18.125C28.3973 18.125 28.3806 18.125 28.364 18.125C28.3473 18.1417 28.3306 18.15 28.314 18.15C28.1973 18.1667 28.0806 18.175 27.964 18.175C27.864 18.175 27.764 18.1583 27.664 18.125C27.6473 18.1083 27.6306 18.1 27.614 18.1C27.4973 18.1167 27.3973 18.0833 27.314 18C27.2306 17.9167 27.1473 17.8417 27.064 17.775C26.9806 17.6917 26.939 17.6 26.939 17.5L26.864 17.3C26.814 17.1833 26.7973 17.075 26.814 16.975C26.8306 16.9417 26.8306 16.9083 26.814 16.875C26.814 16.8417 26.814 16.8083 26.814 16.775C26.7973 16.7417 26.789 16.7083 26.789 16.675C26.789 16.625 26.7806 16.5833 26.764 16.55C26.7306 16.4 26.7056 16.25 26.689 16.1C26.689 15.9333 26.6973 15.775 26.714 15.625C26.7306 15.525 26.789 15.3583 26.889 15.125C26.989 14.875 27.0473 14.725 27.064 14.675C27.114 14.5917 27.139 14.525 27.139 14.475C27.1223 14.2917 27.114 14.1083 27.114 13.925C27.1306 13.725 27.139 13.5333 27.139 13.35C27.139 13.2333 27.164 13.1417 27.214 13.075C27.2806 12.9583 27.289 12.8333 27.239 12.7L27.164 12.425C27.064 12.2417 27.0723 12.0833 27.189 11.95C27.189 11.9333 27.189 11.925 27.189 11.925C27.2056 11.9083 27.214 11.8917 27.214 11.875C27.2473 11.8417 27.2556 11.8 27.239 11.75C27.2223 11.6833 27.214 11.6333 27.214 11.6C27.214 11.5333 27.2223 11.4667 27.239 11.4C27.2723 11.3167 27.2806 11.2417 27.264 11.175C27.264 11.175 27.2473 11.1583 27.214 11.125C27.1973 11.0917 27.189 11.025 27.189 10.925C27.2056 10.825 27.214 10.7667 27.214 10.75V10.05C27.2306 9.96667 27.239 9.89167 27.239 9.825C27.239 9.74167 27.2473 9.65833 27.264 9.575C27.2806 9.475 27.2806 9.375 27.264 9.275C27.264 9.15833 27.264 9.04167 27.264 8.925C27.2473 8.84167 27.2306 8.75 27.214 8.65C27.214 8.55 27.214 8.45 27.214 8.35C27.1973 8.31667 27.189 8.275 27.189 8.225C27.189 8.175 27.189 8.13333 27.189 8.1C27.1723 8.01667 27.1556 7.93333 27.139 7.85C27.139 7.76667 27.139 7.68333 27.139 7.6C27.139 7.56667 27.1056 7.45833 27.039 7.275C26.9723 7.075 26.9473 6.90833 26.964 6.775C26.9806 6.74167 26.989 6.7 26.989 6.65C26.989 6.6 26.9723 6.55833 26.939 6.525C26.9056 6.50833 26.889 6.475 26.889 6.425V6.35C26.939 6.15 26.914 5.95 26.814 5.75C26.7473 5.65 26.7223 5.55 26.739 5.45C26.739 5.31667 26.6806 5.21667 26.564 5.15C26.4806 5.06667 26.4056 4.96667 26.339 4.85C26.2723 4.73333 26.2306 4.61667 26.214 4.5C26.1973 4.41667 26.189 4.33333 26.189 4.25C26.189 4.16667 26.189 4.09167 26.189 4.025C26.189 3.95833 26.1973 3.91667 26.214 3.9C26.2806 3.83333 26.314 3.75833 26.314 3.675C26.314 3.575 26.3223 3.5 26.339 3.45C26.3556 3.43333 26.3723 3.425 26.389 3.425C26.4056 3.425 26.4223 3.41667 26.439 3.4C26.5056 3.38333 26.539 3.325 26.539 3.225C26.5056 3.15833 26.489 3.1 26.489 3.05C26.4723 2.98333 26.4973 2.925 26.564 2.875C26.5973 2.80833 26.639 2.79167 26.689 2.825C26.8056 2.875 26.939 2.85833 27.089 2.775C27.1556 2.74167 27.1973 2.725 27.214 2.725C27.264 2.725 27.289 2.725 27.289 2.725C27.3056 2.70833 27.3556 2.7 27.439 2.7C27.539 2.71667 27.6306 2.68333 27.714 2.6C27.8306 2.48333 27.9723 2.425 28.139 2.425H29.689C30.0723 2.44167 30.4556 2.44167 30.839 2.425C31.2223 2.40833 31.5973 2.4 31.964 2.4C32.0473 2.4 32.114 2.4 32.164 2.4C32.2306 2.38333 32.2973 2.36667 32.364 2.35C32.464 2.3 32.5806 2.275 32.714 2.275H33.289C33.4223 2.275 33.539 2.275 33.639 2.275C33.7556 2.25833 33.8723 2.24167 33.989 2.225C34.0556 2.20833 34.114 2.2 34.164 2.2C34.2306 2.2 34.2973 2.2 34.364 2.2C34.4306 2.2 34.4973 2.2 34.564 2.2C34.6306 2.2 34.6973 2.19167 34.764 2.175C34.8973 2.15833 35.039 2.15 35.189 2.15C35.339 2.13333 35.4806 2.125 35.614 2.125C35.6806 2.125 35.739 2.125 35.789 2.125C35.8556 2.10833 35.9223 2.09167 35.989 2.075C36.1223 2.04167 36.2473 2.025 36.364 2.025C36.4973 2.00833 36.6223 1.99167 36.739 1.975C36.8723 1.95833 36.9973 1.94167 37.114 1.925C37.2473 1.90833 37.3723 1.89167 37.489 1.875C37.639 1.875 37.7473 1.89167 37.814 1.925C37.914 1.99167 38.0056 2.05 38.089 2.1C38.189 2.15 38.2806 2.21667 38.364 2.3C38.4306 2.36667 38.4723 2.425 38.489 2.475C38.5056 2.54167 38.5223 2.60833 38.539 2.675C38.5556 2.74167 38.5723 2.81667 38.589 2.9V3.075C38.5723 3.15833 38.5556 3.25 38.539 3.35C38.539 3.43333 38.5306 3.525 38.514 3.625C38.4806 3.69167 38.439 3.75 38.389 3.8L37.939 4.25C37.7723 4.3 37.6056 4.33333 37.439 4.35C37.289 4.36667 37.1306 4.36667 36.964 4.35H36.789C36.7056 4.36667 36.6223 4.375 36.539 4.375C36.4556 4.375 36.3723 4.36667 36.289 4.35C36.189 4.33333 36.089 4.33333 35.989 4.35C35.889 4.35 35.789 4.35 35.689 4.35C35.6223 4.35 35.5556 4.35833 35.489 4.375C35.439 4.375 35.3806 4.36667 35.314 4.35C35.2306 4.33333 35.1473 4.33333 35.064 4.35C34.9973 4.35 34.9223 4.35833 34.839 4.375C34.7723 4.375 34.6973 4.38333 34.614 4.4C34.5473 4.4 34.4723 4.4 34.389 4.4C34.1723 4.43333 33.939 4.45 33.689 4.45C33.4556 4.45 33.2223 4.46667 32.989 4.5C32.839 4.48333 32.6973 4.49167 32.564 4.525C32.4306 4.54167 32.289 4.55833 32.139 4.575C32.0056 4.59167 31.864 4.6 31.714 4.6C31.564 4.6 31.4223 4.61667 31.289 4.65C31.1223 4.65 30.9556 4.675 30.789 4.725C30.639 4.75833 30.4806 4.78333 30.314 4.8L30.139 4.825C30.0223 4.825 29.914 4.84167 29.814 4.875C29.714 4.89167 29.6056 4.91667 29.489 4.95C29.4223 4.96667 29.3556 4.98333 29.289 5C29.2223 5 29.1473 5.00833 29.064 5.025C29.014 5.025 28.9556 5.04167 28.889 5.075C28.839 5.09167 28.814 5.14167 28.814 5.225L28.889 5.45C28.9056 5.48333 28.8973 5.56667 28.864 5.7C28.8473 5.83333 28.8306 5.93333 28.814 6C28.814 6.05 28.8223 6.1 28.839 6.15C28.8556 6.2 28.8723 6.25 28.889 6.3C28.939 6.43333 28.964 6.58333 28.964 6.75C28.964 6.9 28.9806 7.04167 29.014 7.175C29.0306 7.24167 29.039 7.31667 29.039 7.4C29.039 7.46667 29.0473 7.54167 29.064 7.625C29.064 7.65833 29.064 7.7 29.064 7.75C29.0806 7.78333 29.089 7.825 29.089 7.875C29.089 7.925 29.0806 7.95833 29.064 7.975C29.014 8.04167 28.989 8.11667 28.989 8.2C28.989 8.28333 28.989 8.36667 28.989 8.45C29.0723 8.61667 29.114 8.78333 29.114 8.95C29.114 9.11667 29.114 9.28333 29.114 9.45C29.114 9.5 29.1556 9.51667 29.239 9.5H29.264C29.2973 9.43333 29.3306 9.38333 29.364 9.35C29.414 9.35 29.4723 9.33333 29.539 9.3C29.589 9.26667 29.6556 9.25 29.739 9.25C29.8723 9.26667 29.9973 9.26667 30.114 9.25C30.2306 9.21667 30.3473 9.18333 30.464 9.15C31.2473 8.95 31.9806 8.69167 32.664 8.375C32.8473 8.29167 33.039 8.225 33.239 8.175C33.439 8.10833 33.639 8.06667 33.839 8.05H33.914C34.064 8.03333 34.214 8.01667 34.364 8C34.514 7.98333 34.664 7.975 34.814 7.975C35.014 7.95833 35.2056 7.93333 35.389 7.9C35.589 7.86667 35.789 7.84167 35.989 7.825C36.1056 7.79167 36.214 7.76667 36.314 7.75C36.414 7.71667 36.5223 7.675 36.639 7.625C36.8556 7.54167 37.0556 7.5 37.239 7.5C37.3723 7.51667 37.4973 7.55 37.614 7.6C37.7306 7.63333 37.8473 7.68333 37.964 7.75C38.214 7.91667 38.339 8.16667 38.339 8.5C38.339 8.63333 38.3223 8.76667 38.289 8.9C38.2723 9.03333 38.264 9.16667 38.264 9.3C38.264 9.33333 38.2473 9.36667 38.214 9.4L38.139 9.525C38.1223 9.59167 38.1056 9.65833 38.089 9.725C38.0723 9.79167 38.0306 9.84167 37.964 9.875C37.864 9.95833 37.7556 10.05 37.639 10.15C37.539 10.2333 37.4223 10.2917 37.289 10.325C37.2223 10.3417 37.1556 10.3583 37.089 10.375C37.039 10.3917 36.9806 10.4 36.914 10.4C36.6473 10.4 36.3723 10.4167 36.089 10.45C35.8223 10.4833 35.5473 10.5167 35.264 10.55C35.0473 10.5667 34.8306 10.5917 34.614 10.625C34.414 10.6583 34.2056 10.675 33.989 10.675C33.789 10.675 33.564 10.7167 33.314 10.8C33.1473 10.8333 32.9723 10.8667 32.789 10.9C32.6056 10.9333 32.4223 10.9583 32.239 10.975C32.1056 10.9917 31.964 11.0167 31.814 11.05C31.6806 11.0667 31.5473 11.0833 31.414 11.1L30.989 11.175C30.9556 11.1917 30.9056 11.2 30.839 11.2C30.7223 11.2333 30.6056 11.2583 30.489 11.275C30.3723 11.2917 30.2556 11.3167 30.139 11.35C30.0223 11.3667 29.9056 11.3917 29.789 11.425C29.689 11.4583 29.5806 11.4917 29.464 11.525C29.3806 11.5417 29.314 11.575 29.264 11.625C29.214 11.6583 29.1723 11.7083 29.139 11.775C29.1223 11.825 29.1223 11.875 29.139 11.925C29.1556 11.9917 29.1473 12.0583 29.114 12.125C29.1306 12.2917 29.139 12.4583 29.139 12.625C29.1556 12.7917 29.1556 12.9583 29.139 13.125C29.1723 13.2583 29.1806 13.3917 29.164 13.525C29.164 13.6583 29.1556 13.7917 29.139 13.925C29.1056 14.125 29.114 14.2917 29.164 14.425C29.214 14.6417 29.1973 14.8667 29.114 15.1C29.0806 15.2 29.0806 15.2667 29.114 15.3C29.1473 15.35 29.1473 15.4083 29.114 15.475V15.625C29.0973 15.7583 29.1556 15.825 29.289 15.825H29.339C29.4556 15.825 29.5723 15.8667 29.689 15.95C29.7723 16.0333 29.8723 16.0583 29.989 16.025L30.689 15.95C30.789 15.9333 30.889 15.925 30.989 15.925C31.089 15.9083 31.189 15.9 31.289 15.9C31.3223 15.8833 31.3723 15.8917 31.439 15.925C31.5223 15.975 31.5973 15.9833 31.664 15.95C31.6973 15.9167 31.739 15.8917 31.789 15.875C31.8556 15.8583 31.9056 15.8333 31.939 15.8C32.039 15.7 32.164 15.6667 32.314 15.7C32.4473 15.7333 32.5556 15.725 32.639 15.675C32.789 15.625 32.9306 15.6083 33.064 15.625C33.1473 15.6417 33.2306 15.6333 33.314 15.6C33.3973 15.5667 33.4806 15.55 33.564 15.55C33.5973 15.55 33.6223 15.5583 33.639 15.575C33.6556 15.575 33.6723 15.5667 33.689 15.55C33.7223 15.55 33.7556 15.5417 33.789 15.525C33.8223 15.5083 33.8473 15.5 33.864 15.5C33.9806 15.45 34.089 15.4333 34.189 15.45C34.2723 15.45 34.314 15.45 34.314 15.45C34.3806 15.4333 34.439 15.4333 34.489 15.45C34.5556 15.4667 34.614 15.4917 34.664 15.525C34.7473 15.5417 34.814 15.5667 34.864 15.6C34.9306 15.6333 34.9973 15.6583 35.064 15.675C35.0973 15.675 35.1223 15.6833 35.139 15.7C35.2223 15.7667 35.3223 15.825 35.439 15.875C35.5723 15.925 35.6473 15.9833 35.664 16.05C35.6973 16.15 35.714 16.25 35.714 16.35C35.714 16.4333 35.7223 16.525 35.739 16.625C35.739 16.675 35.7306 16.725 35.714 16.775C35.714 16.825 35.7056 16.875 35.689 16.925C35.6556 16.9917 35.614 17.0667 35.564 17.15C35.5306 17.2333 35.4806 17.3083 35.414 17.375C35.3806 17.4083 35.3473 17.4417 35.314 17.475C35.2973 17.5083 35.2723 17.5417 35.239 17.575C35.1723 17.6417 35.0973 17.7 35.014 17.75C34.9306 17.8 34.839 17.825 34.739 17.825C34.6723 17.825 34.6223 17.8333 34.589 17.85C34.5223 17.8833 34.4556 17.9 34.389 17.9C34.3223 17.9 34.2473 17.9 34.164 17.9C34.0473 17.9167 33.9306 17.9333 33.814 17.95C33.714 17.95 33.6056 17.9417 33.489 17.925C33.4223 17.9083 33.364 17.9083 33.314 17.925C33.1473 17.975 32.9806 17.9833 32.814 17.95C32.6473 17.95 32.4806 17.9583 32.314 17.975C32.164 17.975 32.014 17.975 31.864 17.975H31.539C31.489 17.975 31.4473 17.9833 31.414 18C31.3473 18.0333 31.264 18.05 31.164 18.05C31.0806 18.05 30.9973 18.0417 30.914 18.025H30.664C30.6473 18.025 30.6223 18.025 30.589 18.025C30.5556 18.0417 30.5223 18.0417 30.489 18.025C30.439 18.0083 30.389 18 30.339 18C30.3056 18.0167 30.264 18.0333 30.214 18.05C30.1806 18.05 30.1473 18.05 30.114 18.05C30.0973 18.0667 30.0723 18.075 30.039 18.075C29.8723 18.0583 29.714 18.0583 29.564 18.075C29.414 18.1083 29.2556 18.1417 29.089 18.175ZM45.0438 18.125C44.9772 18.125 44.9188 18.125 44.8688 18.125C44.8188 18.125 44.7605 18.1167 44.6938 18.1C44.6605 18.1 44.6188 18.0917 44.5688 18.075C44.5355 18.075 44.5022 18.075 44.4688 18.075C44.2022 18.0583 43.9522 18.0083 43.7188 17.925C43.4855 17.8417 43.2522 17.7417 43.0188 17.625C43.0022 17.625 42.9855 17.625 42.9688 17.625C42.9688 17.6083 42.9605 17.6 42.9438 17.6C42.7772 17.5167 42.6272 17.4167 42.4938 17.3C42.3772 17.1833 42.2605 17.0667 42.1438 16.95C42.0105 16.7833 41.9188 16.625 41.8688 16.475C41.8022 16.3417 41.7188 16.2 41.6188 16.05C41.4522 15.8667 41.3272 15.6333 41.2438 15.35C41.1938 15.2167 41.1438 15.0833 41.0938 14.95C41.0438 14.8167 41.0022 14.675 40.9688 14.525C40.9522 14.475 40.9355 14.425 40.9188 14.375C40.9022 14.3083 40.8772 14.2417 40.8438 14.175C40.8105 14.0917 40.7772 14 40.7438 13.9C40.7272 13.8 40.7022 13.7 40.6688 13.6C40.6522 13.5333 40.6272 13.425 40.5938 13.275C40.5772 13.1083 40.5688 13.0083 40.5688 12.975V11.9C40.5855 11.8 40.6022 11.7083 40.6188 11.625C40.6355 11.525 40.6522 11.425 40.6688 11.325L40.6938 11.3C40.6938 11.3167 40.6938 11.325 40.6938 11.325C40.7105 11.325 40.7188 11.3333 40.7188 11.35C40.7355 11.35 40.7438 11.3583 40.7438 11.375C40.7605 11.3917 40.7688 11.3833 40.7688 11.35C40.7688 11.25 40.7605 11.1667 40.7438 11.1C40.7438 11.0667 40.7355 11.0333 40.7188 11C40.7188 10.9667 40.7522 10.9417 40.8188 10.925C40.8355 10.925 40.8438 10.9 40.8438 10.85L41.0688 9.75C41.0855 9.66667 41.1022 9.59167 41.1188 9.525C41.1355 9.44167 41.1522 9.36667 41.1688 9.3L41.2188 9.025C41.2022 9.05833 41.2105 9 41.2438 8.85C41.2938 8.7 41.3272 8.6 41.3438 8.55C41.3772 8.46667 41.4188 8.38333 41.4688 8.3C41.5355 8.21667 41.5772 8.15833 41.5938 8.125C41.7272 7.975 41.8522 7.76667 41.9688 7.5L42.4438 6.75C42.5105 6.68333 42.5438 6.6 42.5438 6.5C42.5272 6.41667 42.5522 6.325 42.6188 6.225C42.6688 6.125 42.7188 6.025 42.7688 5.925C42.8355 5.825 42.9022 5.725 42.9688 5.625C43.0522 5.49167 43.1438 5.35833 43.2438 5.225C43.3605 5.075 43.4688 4.94167 43.5688 4.825C43.6022 4.775 43.6355 4.725 43.6688 4.675C43.7188 4.625 43.7772 4.59167 43.8438 4.575C43.8772 4.575 43.9022 4.56667 43.9188 4.55C43.9355 4.53333 43.9522 4.51667 43.9688 4.5C44.3022 4.15 44.6772 3.825 45.0938 3.525C45.1272 3.49167 45.1605 3.45833 45.1938 3.425C45.2272 3.39167 45.2605 3.36667 45.2938 3.35C45.3772 3.3 45.4688 3.275 45.5688 3.275C45.6522 3.275 45.7188 3.26667 45.7688 3.25C45.8188 3.25 45.8938 3.23333 45.9938 3.2C46.1105 3.16667 46.2022 3.18333 46.2688 3.25C46.3688 3.35 46.5355 3.38333 46.7688 3.35C46.9188 3.33333 47.0438 3.41667 47.1438 3.6C47.1772 3.65 47.2022 3.7 47.2188 3.75C47.2522 3.8 47.2938 3.84167 47.3438 3.875C47.3938 3.975 47.4605 4.06667 47.5438 4.15C47.6438 4.23333 47.7272 4.31667 47.7938 4.4L48.1188 4.85C48.1522 4.9 48.1855 4.95833 48.2188 5.025C48.2688 5.075 48.3105 5.125 48.3438 5.175C48.4272 5.25833 48.4772 5.34167 48.4938 5.425C48.5272 5.50833 48.5522 5.56667 48.5688 5.6C48.6022 5.61667 48.6272 5.69167 48.6438 5.825C48.6605 5.89167 48.6605 5.93333 48.6438 5.95C48.6438 5.95 48.6772 5.95 48.7438 5.95C48.8105 5.95 48.8438 5.99167 48.8438 6.075C48.8438 6.25833 48.8105 6.41667 48.7438 6.55C48.7105 6.6 48.6772 6.625 48.6438 6.625C48.6272 6.625 48.6022 6.64167 48.5688 6.675C48.5188 6.75833 48.4605 6.84167 48.3938 6.925C48.3438 7.00833 48.2855 7.1 48.2188 7.2C48.1688 7.28333 48.1022 7.35833 48.0188 7.425C47.9522 7.49167 47.8772 7.55833 47.7938 7.625C47.6605 7.75833 47.5022 7.80833 47.3188 7.775C47.1688 7.775 47.0605 7.76667 46.9938 7.75C46.9438 7.73333 46.8938 7.71667 46.8438 7.7C46.8105 7.66667 46.7688 7.64167 46.7188 7.625C46.6855 7.625 46.6522 7.60833 46.6188 7.575C46.6022 7.54167 46.5855 7.51667 46.5688 7.5C46.5522 7.46667 46.5272 7.44167 46.4938 7.425C46.4105 7.375 46.3438 7.31667 46.2938 7.25C46.2438 7.16667 46.2022 7.09167 46.1688 7.025C46.1522 6.975 46.1438 6.925 46.1438 6.875C46.1438 6.825 46.1438 6.78333 46.1438 6.75C46.1272 6.65 46.1105 6.55 46.0938 6.45C46.0938 6.35 46.0772 6.25 46.0438 6.15C46.0438 6.11667 46.0022 6.1 45.9188 6.1C45.8188 6.16667 45.7188 6.23333 45.6188 6.3C45.5188 6.36667 45.4272 6.45 45.3438 6.55L44.5688 7.475C44.5188 7.525 44.4688 7.58333 44.4188 7.65C44.3855 7.7 44.3522 7.75 44.3188 7.8C44.2522 7.88333 44.1855 7.975 44.1188 8.075C44.0688 8.15833 44.0022 8.24167 43.9188 8.325C43.8855 8.35833 43.8605 8.39167 43.8438 8.425C43.7938 8.54167 43.7355 8.65 43.6688 8.75C43.6188 8.85 43.5688 8.96667 43.5188 9.1C43.4355 9.26667 43.3605 9.45 43.2938 9.65C43.2438 9.83333 43.2022 10.025 43.1688 10.225C43.1522 10.475 43.1022 10.725 43.0188 10.975C43.0022 11.0583 42.9855 11.15 42.9688 11.25C42.9522 11.35 42.9355 11.45 42.9188 11.55C42.9022 11.7 42.8772 11.85 42.8438 12C42.8105 12.15 42.8022 12.3083 42.8188 12.475C42.8522 12.8083 42.9022 13.125 42.9688 13.425C43.0188 13.5917 43.0605 13.7583 43.0938 13.925C43.1438 14.075 43.1938 14.2333 43.2438 14.4C43.2605 14.45 43.2772 14.5 43.2938 14.55C43.3105 14.6 43.3272 14.65 43.3438 14.7C43.4438 14.9333 43.6272 15.1167 43.8938 15.25C43.9938 15.3 44.1022 15.325 44.2188 15.325C44.3188 15.325 44.4188 15.3333 44.5188 15.35C44.6188 15.35 44.7188 15.3417 44.8188 15.325C45.2855 15.275 45.7188 15.2 46.1188 15.1C46.3022 15.0667 46.4772 15.0167 46.6438 14.95C46.8105 14.8833 46.9772 14.8167 47.1438 14.75C47.2772 14.7 47.4022 14.625 47.5188 14.525C47.6522 14.425 47.7855 14.325 47.9188 14.225C48.0688 14.1083 48.2105 13.9917 48.3438 13.875C48.4772 13.7583 48.6105 13.6417 48.7438 13.525C48.8772 13.4083 49.0022 13.2833 49.1188 13.15C49.1688 13.1 49.2438 13.0417 49.3438 12.975C49.3938 12.9417 49.4438 12.9083 49.4938 12.875C49.5438 12.8417 49.5855 12.8083 49.6188 12.775C49.7022 12.725 49.7772 12.675 49.8438 12.625C49.9272 12.575 50.0188 12.55 50.1188 12.55C50.1688 12.5167 50.2188 12.5 50.2688 12.5C50.3355 12.4833 50.3938 12.4667 50.4438 12.45C50.5938 12.4 50.7272 12.4 50.8438 12.45C50.8938 12.4667 50.9438 12.4833 50.9938 12.5C51.0438 12.5167 51.0938 12.5417 51.1438 12.575C51.2772 12.6583 51.4022 12.7917 51.5188 12.975C51.6022 13.175 51.6438 13.35 51.6438 13.5V13.65C51.6438 13.8667 51.5605 14.0583 51.3938 14.225C51.2105 14.4583 51.0188 14.6417 50.8188 14.775C50.7022 14.8417 50.5855 14.9333 50.4688 15.05C50.3022 15.1833 50.1272 15.325 49.9438 15.475C49.7772 15.625 49.6022 15.7667 49.4188 15.9L49.3188 16C49.2688 16.0333 49.2188 16.075 49.1688 16.125C49.1188 16.175 49.0605 16.2167 48.9938 16.25C48.8772 16.3667 48.7438 16.475 48.5938 16.575C48.4438 16.6583 48.2938 16.7417 48.1438 16.825C47.9938 16.8917 47.8522 16.9917 47.7188 17.125C47.6688 17.175 47.6188 17.225 47.5688 17.275C47.5188 17.325 47.4605 17.3667 47.3938 17.4C47.1772 17.5167 46.9272 17.6333 46.6438 17.75C46.6272 17.7667 46.6022 17.7833 46.5688 17.8C46.5355 17.8167 46.5022 17.8333 46.4688 17.85C46.3688 17.9 46.2605 17.9417 46.1438 17.975C46.0438 17.9917 45.9438 18.0083 45.8438 18.025C45.7105 18.0417 45.5772 18.05 45.4438 18.05C45.3105 18.0667 45.1772 18.0917 45.0438 18.125ZM55.728 18.25C55.628 18.25 55.5614 18.2417 55.528 18.225C55.4614 18.1917 55.403 18.1667 55.353 18.15C55.303 18.1333 55.253 18.1167 55.203 18.1C55.153 18.0667 55.103 18.0333 55.053 18C55.0197 17.95 54.9864 17.9 54.953 17.85C54.9197 17.8167 54.8864 17.8 54.853 17.8C54.753 17.8 54.703 17.75 54.703 17.65C54.6864 17.55 54.6697 17.45 54.653 17.35C54.6364 17.25 54.6197 17.15 54.603 17.05C54.5864 16.9 54.5697 16.75 54.553 16.6C54.553 16.45 54.5364 16.3083 54.503 16.175V15.95C54.503 15.8833 54.4947 15.825 54.478 15.775C54.478 15.725 54.478 15.6667 54.478 15.6C54.4447 15.5167 54.4447 15.45 54.478 15.4C54.5114 15.1 54.5114 14.8 54.478 14.5C54.4614 14.4167 54.453 14.3333 54.453 14.25C54.453 14.1667 54.4447 14.0833 54.428 14C54.428 13.8333 54.428 13.6667 54.428 13.5C54.428 13.3167 54.4114 13.1417 54.378 12.975V12.575C54.378 12.4417 54.3697 12.3167 54.353 12.2C54.353 12.0833 54.3447 11.9667 54.328 11.85C54.3114 11.7 54.2947 11.55 54.278 11.4C54.278 11.25 54.2697 11.1 54.253 10.95C54.2364 10.9167 54.228 10.8583 54.228 10.775C54.2114 10.6917 54.1947 10.6083 54.178 10.525C54.178 10.425 54.178 10.3333 54.178 10.25L54.103 9C54.0864 8.86667 54.0697 8.74167 54.053 8.625C54.053 8.49167 54.053 8.36667 54.053 8.25C54.0364 8.05 54.0197 7.85 54.003 7.65C53.9864 7.45 53.9697 7.25833 53.953 7.075C53.953 7.04167 53.9447 7.00833 53.928 6.975C53.928 6.94167 53.928 6.91667 53.928 6.9C53.928 6.7 53.9197 6.5 53.903 6.3C53.8864 6.1 53.8697 5.89167 53.853 5.675L53.778 4.975C53.728 4.70833 53.7197 4.41667 53.753 4.1C53.753 3.95 53.8114 3.825 53.928 3.725C53.9614 3.69167 53.9864 3.675 54.003 3.675C54.0197 3.65833 54.0364 3.64167 54.053 3.625C54.1364 3.60833 54.178 3.55 54.178 3.45C54.178 3.41667 54.2114 3.4 54.278 3.4H54.403C54.4197 3.4 54.428 3.4 54.428 3.4C54.4447 3.38333 54.4614 3.375 54.478 3.375C54.5114 3.35833 54.5364 3.34167 54.553 3.325C54.5864 3.29167 54.6114 3.275 54.628 3.275C54.6614 3.275 54.6947 3.28333 54.728 3.3C54.7614 3.3 54.7947 3.30833 54.828 3.325C54.8614 3.325 54.8864 3.31667 54.903 3.3C54.9864 3.28333 55.0697 3.29167 55.153 3.325C55.253 3.34167 55.3364 3.36667 55.403 3.4C55.503 3.41667 55.578 3.48333 55.628 3.6C55.678 3.75 55.7197 3.9 55.753 4.05C55.803 4.18333 55.8364 4.325 55.853 4.475V4.675C55.8864 4.79167 55.903 4.91667 55.903 5.05C55.903 5.16667 55.903 5.29167 55.903 5.425C55.903 5.54167 55.903 5.65833 55.903 5.775C55.9197 5.875 55.9364 5.975 55.953 6.075C55.953 6.125 55.953 6.175 55.953 6.225C55.953 6.275 55.9614 6.325 55.978 6.375C55.978 6.475 55.978 6.575 55.978 6.675C55.9947 6.775 56.0114 6.88333 56.028 7C56.0447 7.18333 56.0614 7.375 56.078 7.575C56.0947 7.775 56.103 7.975 56.103 8.175C56.103 8.25833 56.103 8.35 56.103 8.45C56.103 8.53333 56.1114 8.61667 56.128 8.7C56.1447 8.75 56.153 8.8 56.153 8.85C56.153 8.9 56.153 8.95 56.153 9V9.5C56.153 9.6 56.1614 9.68333 56.178 9.75C56.2114 9.86667 56.2197 9.98333 56.203 10.1C56.203 10.2 56.2114 10.3083 56.228 10.425L56.303 11.575C56.3197 11.7417 56.328 11.9167 56.328 12.1C56.3447 12.2667 56.353 12.4417 56.353 12.625C56.353 12.6917 56.353 12.7667 56.353 12.85C56.353 12.9167 56.3614 12.9833 56.378 13.05C56.3947 13.1 56.403 13.15 56.403 13.2C56.403 13.25 56.403 13.3 56.403 13.35C56.4197 13.3667 56.4197 13.4 56.403 13.45C56.403 13.4833 56.4114 13.5167 56.428 13.55C56.4614 13.6667 56.478 13.7833 56.478 13.9C56.478 14.0167 56.478 14.1417 56.478 14.275C56.478 14.3417 56.478 14.4167 56.478 14.5C56.4947 14.5667 56.503 14.6417 56.503 14.725C56.5197 14.8083 56.528 14.9 56.528 15C56.528 15.1 56.528 15.1917 56.528 15.275C56.5447 15.3583 56.553 15.45 56.553 15.55C56.553 15.6333 56.5614 15.7167 56.578 15.8C56.5947 15.8333 56.603 15.8667 56.603 15.9C56.603 16.0833 56.6197 16.2667 56.653 16.45C56.6864 16.6333 56.7197 16.8167 56.753 17C56.7697 17.05 56.778 17.1083 56.778 17.175C56.778 17.225 56.778 17.275 56.778 17.325C56.778 17.375 56.7614 17.4167 56.728 17.45C56.6614 17.5 56.6114 17.6 56.578 17.75C56.578 17.8 56.553 17.8417 56.503 17.875C56.3864 17.925 56.2864 17.9917 56.203 18.075C56.0697 18.1917 55.9114 18.25 55.728 18.25ZM64.7903 18.5C64.6237 18.4833 64.457 18.4583 64.2903 18.425C64.1403 18.4083 63.9903 18.3667 63.8403 18.3L63.2153 18.075C62.9987 17.9917 62.7987 17.9 62.6153 17.8C62.432 17.6833 62.2487 17.5667 62.0653 17.45C61.982 17.3667 61.8987 17.2917 61.8153 17.225C61.732 17.1417 61.6487 17.0667 61.5653 17C61.432 16.8667 61.2987 16.7333 61.1653 16.6C61.032 16.45 60.907 16.2917 60.7903 16.125L60.1903 15.2C60.0403 14.9667 59.907 14.725 59.7903 14.475C59.6737 14.2083 59.5737 13.9417 59.4903 13.675C59.307 13.175 59.2153 12.6833 59.2153 12.2V11.8C59.2153 11.3833 59.2403 10.975 59.2903 10.575C59.3237 10.2417 59.3987 9.94167 59.5153 9.675C59.582 9.50833 59.6403 9.34167 59.6903 9.175C59.7403 9.00833 59.7987 8.85 59.8653 8.7L59.9403 8.525C59.9737 8.30833 60.0487 8.11667 60.1653 7.95C60.282 7.76667 60.382 7.59167 60.4653 7.425C60.532 7.29167 60.607 7.175 60.6903 7.075C60.7737 6.95833 60.8487 6.84167 60.9153 6.725C60.9487 6.675 60.9903 6.63333 61.0403 6.6C61.0903 6.55 61.132 6.5 61.1653 6.45C61.1987 6.41667 61.2237 6.375 61.2403 6.325C61.2737 6.25833 61.2987 6.2 61.3153 6.15C61.3487 6.1 61.407 6.03333 61.4903 5.95C61.5903 5.9 61.682 5.78333 61.7653 5.6C61.7987 5.53333 61.832 5.48333 61.8653 5.45C61.9653 5.36667 62.0487 5.26667 62.1153 5.15C62.1987 5.03333 62.2903 4.925 62.3903 4.825C62.457 4.75833 62.4903 4.66667 62.4903 4.55C62.4903 4.46667 62.4903 4.39167 62.4903 4.325C62.507 4.24167 62.507 4.16667 62.4903 4.1C62.4737 4.01667 62.4987 3.94167 62.5653 3.875C62.5987 3.84167 62.6237 3.8 62.6403 3.75C62.657 3.7 62.6737 3.65 62.6903 3.6C62.7403 3.43333 62.8737 3.29167 63.0903 3.175C63.1237 3.14167 63.1653 3.125 63.2153 3.125C63.282 3.10833 63.3403 3.09167 63.3903 3.075C63.507 3.025 63.6403 3.01667 63.7903 3.05C63.857 3.06667 63.9153 3.075 63.9653 3.075C64.0153 3.05833 64.0653 3.04167 64.1153 3.025C64.182 2.99167 64.2403 2.96667 64.2903 2.95C64.357 2.93333 64.4153 2.91667 64.4653 2.9C64.6987 2.81667 64.9403 2.825 65.1903 2.925C65.457 3.025 65.6487 3.2 65.7653 3.45C65.7987 3.53333 65.832 3.61667 65.8653 3.7C65.8987 3.78333 65.9237 3.86667 65.9403 3.95C65.9737 4.13333 65.9653 4.29167 65.9153 4.425C65.882 4.49167 65.8653 4.53333 65.8653 4.55C65.8487 4.61667 65.8653 4.675 65.9153 4.725C65.9487 4.775 65.9903 4.81667 66.0403 4.85C66.2237 5.01667 66.3987 5.18333 66.5653 5.35C66.732 5.5 66.8903 5.66667 67.0403 5.85C67.1737 5.98333 67.282 6.125 67.3653 6.275C67.4653 6.40833 67.557 6.55833 67.6403 6.725C67.6737 6.80833 67.7153 6.9 67.7653 7C67.8153 7.08333 67.8653 7.16667 67.9153 7.25C67.9987 7.4 68.0653 7.55833 68.1153 7.725C68.182 7.89167 68.2487 8.05833 68.3153 8.225V8.25C68.3487 8.36667 68.3737 8.49167 68.3903 8.625C68.4237 8.74167 68.4737 8.86667 68.5403 9C68.5903 9.11667 68.632 9.24167 68.6653 9.375C68.6987 9.49167 68.732 9.61667 68.7653 9.75C68.7987 9.9 68.832 10.05 68.8653 10.2C68.9153 10.35 68.9487 10.5 68.9653 10.65C68.982 10.7167 68.9987 10.7833 69.0153 10.85C69.032 10.9 69.0487 10.9583 69.0653 11.025C69.0987 11.175 69.132 11.325 69.1653 11.475C69.1987 11.625 69.2237 11.775 69.2403 11.925L69.3153 12.1C69.3487 12.2 69.382 12.3333 69.4153 12.5C69.4653 12.7167 69.4903 12.9333 69.4903 13.15C69.507 13.3667 69.507 13.5917 69.4903 13.825C69.4903 13.9417 69.482 14.0333 69.4653 14.1C69.3653 14.45 69.2403 14.8083 69.0903 15.175C69.0237 15.2917 68.957 15.4083 68.8903 15.525C68.8237 15.625 68.757 15.7333 68.6903 15.85L68.4653 16.2C68.382 16.35 68.2903 16.4833 68.1903 16.6C68.0237 16.8667 67.8237 17.1 67.5903 17.3C67.357 17.5 67.107 17.6917 66.8403 17.875C66.257 18.325 65.5737 18.5333 64.7903 18.5ZM64.6903 16.025C65.0403 16.025 65.3403 15.925 65.5903 15.725C65.6737 15.6417 65.757 15.5667 65.8403 15.5C65.9403 15.4167 66.0237 15.3333 66.0903 15.25C66.407 14.9 66.657 14.5333 66.8403 14.15L66.9153 13.9C66.9487 13.6 66.9487 13.3 66.9153 13L66.7653 12.175C66.7153 11.9583 66.6737 11.75 66.6403 11.55C66.607 11.3333 66.557 11.125 66.4903 10.925C66.4403 10.8083 66.4237 10.7167 66.4403 10.65C66.457 10.5667 66.457 10.4833 66.4403 10.4C66.4237 10.3167 66.3987 10.2333 66.3653 10.15C66.3153 9.93333 66.257 9.71667 66.1903 9.5C66.1237 9.28333 66.057 9.06667 65.9903 8.85C65.9737 8.8 65.957 8.75 65.9403 8.7C65.9237 8.65 65.907 8.6 65.8903 8.55C65.7737 8.31667 65.6487 8.09167 65.5153 7.875C65.382 7.65833 65.232 7.45833 65.0653 7.275C64.982 7.175 64.8903 7.08333 64.7903 7C64.6903 6.9 64.5903 6.80833 64.4903 6.725C64.4737 6.69167 64.4487 6.675 64.4153 6.675C64.3987 6.65833 64.3737 6.64167 64.3403 6.625C64.2903 6.55833 64.2237 6.56667 64.1403 6.65C64.057 6.73333 63.9653 6.825 63.8653 6.925C63.782 7.025 63.6987 7.125 63.6153 7.225C63.532 7.34167 63.4403 7.45833 63.3403 7.575C63.257 7.69167 63.1737 7.80833 63.0903 7.925C62.9737 8.075 62.8653 8.225 62.7653 8.375C62.6653 8.525 62.5653 8.675 62.4653 8.825C62.1153 9.39167 61.8403 10.0167 61.6403 10.7C61.607 10.8 61.5903 10.875 61.5903 10.925C61.5737 11.0417 61.557 11.1583 61.5403 11.275C61.5403 11.3917 61.5403 11.5167 61.5403 11.65V11.85C61.557 11.9 61.5653 11.95 61.5653 12C61.5653 12.05 61.5737 12.1 61.5903 12.15C61.5903 12.35 61.6403 12.5667 61.7403 12.8C61.8737 13.1333 62.0237 13.4583 62.1903 13.775C62.357 14.0917 62.5487 14.3917 62.7653 14.675C62.8153 14.7417 62.8653 14.8083 62.9153 14.875C62.982 14.9417 63.0403 15.0083 63.0903 15.075C63.2403 15.2417 63.3987 15.3917 63.5653 15.525C63.7487 15.6583 63.932 15.775 64.1153 15.875C64.3153 15.975 64.507 16.025 64.6903 16.025ZM76.2694 18.25C76.2528 18.2333 76.2278 18.225 76.1944 18.225C76.0278 18.125 75.8611 18.0333 75.6944 17.95C75.5444 17.85 75.4028 17.7417 75.2694 17.625C75.2028 17.5917 75.1611 17.5583 75.1444 17.525C74.9944 17.4417 74.8611 17.3417 74.7444 17.225C74.6278 17.0917 74.5194 16.95 74.4194 16.8C74.3861 16.7667 74.3528 16.725 74.3194 16.675C74.2861 16.625 74.2444 16.575 74.1944 16.525C74.0278 16.3583 73.8944 16.1583 73.7944 15.925C73.7778 15.875 73.7528 15.825 73.7194 15.775C73.6861 15.725 73.6528 15.675 73.6194 15.625C73.5194 15.4917 73.4444 15.3667 73.3944 15.25C73.3611 15.1167 73.3111 14.9917 73.2444 14.875C73.1778 14.7417 73.1111 14.6167 73.0444 14.5C73.0278 14.4333 73.0028 14.3667 72.9694 14.3C72.9361 14.2333 72.9111 14.1667 72.8944 14.1C72.8944 14.0167 72.8694 13.925 72.8194 13.825C72.7528 13.6417 72.6861 13.4583 72.6194 13.275C72.5694 13.075 72.5194 12.875 72.4694 12.675C72.4361 12.6083 72.4194 12.5583 72.4194 12.525C72.3194 12.3083 72.2444 12.0833 72.1944 11.85C72.1444 11.6167 72.0944 11.3917 72.0444 11.175L71.8944 10.05C71.8778 10.0167 71.8694 9.975 71.8694 9.925C71.8694 9.875 71.8694 9.83333 71.8694 9.8C71.8694 9.7 71.8694 9.60833 71.8694 9.525C71.8694 9.425 71.8528 9.325 71.8194 9.225C71.7861 9.00833 71.7944 8.80833 71.8444 8.625C71.8444 8.55833 71.8444 8.5 71.8444 8.45C71.8611 8.38333 71.8694 8.31667 71.8694 8.25C71.8694 8.16667 71.8694 8.08333 71.8694 8C71.8861 7.9 71.9028 7.81667 71.9194 7.75C71.9361 7.7 71.9444 7.63333 71.9444 7.55C71.9778 7.4 71.9944 7.25833 71.9944 7.125C72.0111 6.975 72.0278 6.83333 72.0444 6.7C72.0944 6.46667 72.1194 6.24167 72.1194 6.025C72.1194 5.95833 72.1194 5.9 72.1194 5.85C72.1361 5.78333 72.1528 5.71667 72.1694 5.65C72.1694 5.5 72.1611 5.39167 72.1444 5.325C72.0944 5.25833 72.0861 5.16667 72.1194 5.05C72.1528 4.98333 72.1694 4.93333 72.1694 4.9C72.1861 4.86667 72.1944 4.83333 72.1944 4.8C72.1944 4.75 72.2194 4.71667 72.2694 4.7H72.4444C72.5111 4.7 72.5528 4.675 72.5694 4.625C72.5861 4.55833 72.6444 4.50833 72.7444 4.475C72.8278 4.44167 72.9028 4.41667 72.9694 4.4C73.0361 4.36667 73.1028 4.325 73.1694 4.275C73.2194 4.24167 73.2778 4.225 73.3444 4.225C73.4111 4.225 73.4778 4.23333 73.5444 4.25L73.9944 4.4C74.0111 4.41667 74.0194 4.425 74.0194 4.425C74.0361 4.425 74.0528 4.43333 74.0694 4.45C74.2028 4.58333 74.3111 4.73333 74.3944 4.9C74.4944 5.06667 74.5528 5.25 74.5694 5.45C74.5694 5.51667 74.5694 5.58333 74.5694 5.65C74.5694 5.7 74.5528 5.75833 74.5194 5.825C74.5028 5.925 74.4861 6.025 74.4694 6.125C74.4528 6.225 74.4361 6.33333 74.4194 6.45C74.3861 6.61667 74.3611 6.78333 74.3444 6.95C74.3444 7.1 74.3444 7.25833 74.3444 7.425C74.3278 7.49167 74.3194 7.55833 74.3194 7.625C74.3194 7.675 74.3111 7.73333 74.2944 7.8C74.2778 8 74.2694 8.2 74.2694 8.4C74.2694 8.6 74.2861 8.79167 74.3194 8.975C74.3194 8.99167 74.3194 9.01667 74.3194 9.05C74.3361 9.08333 74.3361 9.11667 74.3194 9.15C74.3194 9.31667 74.3361 9.49167 74.3694 9.675C74.4028 9.85833 74.4278 10.0417 74.4444 10.225C74.4611 10.3917 74.4778 10.55 74.4944 10.7C74.5111 10.85 74.5361 11 74.5694 11.15C74.6028 11.2167 74.6194 11.2833 74.6194 11.35C74.6361 11.4167 74.6528 11.4833 74.6694 11.55C74.7361 11.8667 74.8111 12.175 74.8944 12.475C74.9778 12.775 75.0861 13.075 75.2194 13.375C75.3028 13.5583 75.3861 13.7167 75.4694 13.85C75.6028 14.0833 75.7194 14.3167 75.8194 14.55C75.8861 14.6667 75.9528 14.7833 76.0194 14.9C76.0861 15 76.1528 15.1083 76.2194 15.225C76.2861 15.3083 76.3528 15.3833 76.4194 15.45C76.4861 15.5167 76.5528 15.5917 76.6194 15.675C76.7028 15.7583 76.8111 15.7833 76.9444 15.75C77.0278 15.7167 77.0861 15.6833 77.1194 15.65C77.2028 15.6 77.2778 15.55 77.3444 15.5C77.4278 15.45 77.5028 15.3917 77.5694 15.325C77.7528 15.1417 77.9194 14.9583 78.0694 14.775C78.2361 14.5917 78.3778 14.3917 78.4944 14.175C78.5944 13.9917 78.6944 13.8 78.7944 13.6C78.8944 13.4 78.9861 13.2 79.0694 13C79.1694 12.7667 79.2611 12.5333 79.3444 12.3C79.4444 12.0667 79.5361 11.825 79.6194 11.575C79.6861 11.4083 79.7361 11.2417 79.7694 11.075C79.8194 10.8917 79.8528 10.7167 79.8694 10.55C79.9028 10.3667 79.9278 10.1833 79.9444 10C79.9778 9.8 79.9861 9.60833 79.9694 9.425C79.9694 9.375 79.9694 9.325 79.9694 9.275C79.9861 9.225 79.9944 9.175 79.9944 9.125C80.0278 9.00833 80.0361 8.9 80.0194 8.8C80.0194 8.7 80.0111 8.6 79.9944 8.5C79.9778 8.21667 79.9528 7.95 79.9194 7.7C79.9028 7.43333 79.8861 7.16667 79.8694 6.9C79.8694 6.76667 79.8611 6.675 79.8444 6.625C79.8278 6.475 79.8111 6.325 79.7944 6.175C79.7944 6.025 79.7778 5.875 79.7444 5.725V5.525C79.7444 5.35833 79.7361 5.2 79.7194 5.05C79.7194 4.88333 79.7194 4.71667 79.7194 4.55C79.7194 4.41667 79.7111 4.3 79.6944 4.2C79.6944 4.08333 79.6944 3.96667 79.6944 3.85C79.6944 3.7 79.7194 3.575 79.7694 3.475C79.8194 3.39167 79.8361 3.325 79.8194 3.275C79.7694 3.175 79.7944 3.1 79.8944 3.05C79.9778 2.96667 80.0611 2.9 80.1444 2.85C80.2444 2.8 80.3528 2.76667 80.4694 2.75C80.5028 2.73333 80.5278 2.725 80.5444 2.725C80.5778 2.725 80.6028 2.71667 80.6194 2.7C80.7194 2.61667 80.8528 2.59167 81.0194 2.625C81.0528 2.64167 81.1028 2.65 81.1694 2.65C81.3194 2.68333 81.4278 2.74167 81.4944 2.825C81.5444 2.875 81.6194 2.93333 81.7194 3C81.8528 3.06667 81.9444 3.15 81.9944 3.25C82.0444 3.35 82.0778 3.45833 82.0944 3.575C82.1278 3.74167 82.1528 3.9 82.1694 4.05C82.2028 4.2 82.2111 4.35833 82.1944 4.525V4.75C82.1944 4.91667 82.1944 5.08333 82.1944 5.25C82.2111 5.4 82.2278 5.55833 82.2444 5.725C82.2611 5.775 82.2694 5.83333 82.2694 5.9C82.2694 5.95 82.2694 6 82.2694 6.05C82.2694 6.15 82.2694 6.25 82.2694 6.35C82.2861 6.43333 82.3028 6.525 82.3194 6.625C82.3361 6.65833 82.3444 6.70833 82.3444 6.775C82.3278 6.94167 82.3278 7.10833 82.3444 7.275C82.3778 7.425 82.4028 7.58333 82.4194 7.75C82.4361 7.91667 82.4444 8.09167 82.4444 8.275C82.4611 8.45833 82.4694 8.64167 82.4694 8.825C82.4861 8.84167 82.4861 8.86667 82.4694 8.9C82.4694 8.93333 82.4694 8.96667 82.4694 9C82.4194 9.15 82.4111 9.325 82.4444 9.525C82.4778 9.74167 82.4694 9.95 82.4194 10.15C82.4028 10.3 82.3861 10.45 82.3694 10.6C82.3528 10.75 82.3278 10.9083 82.2944 11.075C82.2611 11.3417 82.2028 11.6083 82.1194 11.875C82.0361 12.1417 81.9528 12.4083 81.8694 12.675C81.8694 12.7083 81.8444 12.7667 81.7944 12.85C81.7278 12.9667 81.6694 13.0917 81.6194 13.225C81.5694 13.3417 81.5278 13.4667 81.4944 13.6L81.4194 13.775C81.3361 13.9417 81.2611 14.1083 81.1944 14.275C81.1444 14.425 81.0778 14.5833 80.9944 14.75C80.9444 14.85 80.8944 14.95 80.8444 15.05C80.7944 15.15 80.7361 15.2417 80.6694 15.325C80.6528 15.3583 80.6278 15.3917 80.5944 15.425C80.5611 15.5417 80.5111 15.65 80.4444 15.75C80.3778 15.85 80.3111 15.95 80.2444 16.05C80.0611 16.3333 79.8444 16.6 79.5944 16.85C79.3611 17.1 79.1028 17.3333 78.8194 17.55L78.5194 17.725C78.2861 17.8417 78.0361 17.9417 77.7694 18.025C77.5194 18.1083 77.2611 18.1667 76.9944 18.2C76.9111 18.2167 76.8194 18.2167 76.7194 18.2C76.6694 18.2 76.6194 18.2 76.5694 18.2C76.5194 18.2 76.4694 18.2167 76.4194 18.25H76.2694ZM89.2101 19.225L88.7851 19.15C88.5684 19.1167 88.3434 19.0833 88.1101 19.05C87.8934 19.0167 87.6684 18.9917 87.4351 18.975C87.2017 18.975 86.9684 18.9083 86.7351 18.775C86.5184 18.6583 86.3684 18.475 86.2851 18.225C86.2684 18.1417 86.2434 18.0583 86.2101 17.975C86.1934 17.8917 86.1767 17.8083 86.1601 17.725C86.1601 17.525 86.2017 17.375 86.2851 17.275C86.3684 17.1917 86.4351 17.1083 86.4851 17.025C86.5517 16.9417 86.6184 16.8667 86.6851 16.8C86.7184 16.7667 86.7517 16.7417 86.7851 16.725C86.8184 16.7083 86.8517 16.6917 86.8851 16.675C86.9684 16.625 87.0517 16.5917 87.1351 16.575C87.2184 16.5417 87.3017 16.5167 87.3851 16.5C87.4184 16.4833 87.4434 16.4833 87.4601 16.5C87.4934 16.5 87.5184 16.5 87.5351 16.5C87.6184 16.5167 87.7101 16.5333 87.8101 16.55C87.9101 16.55 88.0017 16.5667 88.0851 16.6L89.1351 16.75C89.3684 16.7833 89.5767 16.75 89.7601 16.65C89.8267 16.6167 89.8851 16.5833 89.9351 16.55C90.0017 16.5167 90.0601 16.4833 90.1101 16.45C90.4767 16.2333 90.7934 16.0083 91.0601 15.775C91.2601 15.5917 91.4517 15.4083 91.6351 15.225C91.8184 15.0417 91.9851 14.8417 92.1351 14.625C92.2517 14.475 92.3267 14.325 92.3601 14.175C92.3934 14.0083 92.4017 13.8417 92.3851 13.675L92.3101 13.475C92.2934 13.3917 92.2601 13.325 92.2101 13.275C92.1601 13.225 92.1101 13.1667 92.0601 13.1C91.9601 13.0167 91.8601 12.925 91.7601 12.825C91.6767 12.725 91.5851 12.6417 91.4851 12.575C91.2351 12.375 90.9851 12.1833 90.7351 12C90.5017 11.8167 90.2601 11.6333 90.0101 11.45C89.9934 11.4167 89.9434 11.3833 89.8601 11.35C89.7101 11.25 89.5601 11.1417 89.4101 11.025C89.2767 10.8917 89.1434 10.7667 89.0101 10.65C88.8434 10.4833 88.6601 10.325 88.4601 10.175C88.3601 10.125 88.2684 10.0417 88.1851 9.925C88.1184 9.84167 88.0184 9.75833 87.8851 9.675C87.7684 9.60833 87.6601 9.53333 87.5601 9.45C87.4601 9.35 87.3601 9.25833 87.2601 9.175L86.9351 8.875C86.8684 8.79167 86.7934 8.71667 86.7101 8.65C86.6434 8.56667 86.5684 8.48333 86.4851 8.4C86.4517 8.31667 86.4017 8.25 86.3351 8.2C86.2851 8.15 86.2351 8.09167 86.1851 8.025C86.1684 7.99167 86.1434 7.95833 86.1101 7.925C86.0767 7.875 86.0517 7.825 86.0351 7.775C85.9351 7.575 85.8267 7.375 85.7101 7.175C85.6101 6.975 85.5184 6.76667 85.4351 6.55C85.3851 6.41667 85.3351 6.29167 85.2851 6.175C85.2517 6.04167 85.2184 5.91667 85.1851 5.8C85.1684 5.66667 85.1351 5.55 85.0851 5.45C85.0517 5.33333 85.0184 5.21667 84.9851 5.1C84.9517 4.91667 84.9101 4.74167 84.8601 4.575C84.8267 4.39167 84.7934 4.21667 84.7601 4.05L84.7101 3.85C84.6934 3.66667 84.6934 3.49167 84.7101 3.325C84.7434 3.09167 84.7934 2.88333 84.8601 2.7C84.9267 2.5 85.0351 2.34167 85.1851 2.225C85.3517 2.09167 85.5184 1.95833 85.6851 1.825C85.8517 1.69167 86.0267 1.58333 86.2101 1.5C86.2434 1.5 86.2684 1.49167 86.2851 1.475C86.4517 1.34167 86.6351 1.25 86.8351 1.2C87.0351 1.13333 87.2351 1.075 87.4351 1.025C88.2351 0.791666 89.0601 0.616666 89.9101 0.499999H90.1601C90.3267 0.499999 90.4851 0.499999 90.6351 0.499999C90.7851 0.499999 90.9434 0.491666 91.1101 0.474999C91.3101 0.474999 91.5101 0.499999 91.7101 0.55C91.9101 0.583333 92.1017 0.641666 92.2851 0.724999C92.4184 0.791666 92.5517 0.866666 92.6851 0.949999C92.8184 1.01667 92.9434 1.09167 93.0601 1.175C93.1934 1.275 93.2767 1.38333 93.3101 1.5L93.3851 1.675C93.4684 1.825 93.5101 1.98333 93.5101 2.15C93.5267 2.3 93.5184 2.45833 93.4851 2.625C93.4851 2.675 93.4767 2.73333 93.4601 2.8C93.4601 2.85 93.4601 2.9 93.4601 2.95C93.4101 3.31667 93.2351 3.6 92.9351 3.8C92.7517 3.96667 92.5101 4.03333 92.2101 4C92.1434 3.96667 92.1101 3.98333 92.1101 4.05C92.1101 4.11667 92.0684 4.15 91.9851 4.15H91.8351C91.7351 4.15 91.6351 4.1 91.5351 4C91.4517 3.91667 91.4101 3.85 91.4101 3.8C91.4101 3.73333 91.4434 3.68333 91.5101 3.65C91.4767 3.56667 91.4434 3.49167 91.4101 3.425C91.3767 3.35833 91.3434 3.30833 91.3101 3.275C91.2601 3.19167 91.1851 3.13333 91.0851 3.1C91.0017 3.08333 90.9184 3.06667 90.8351 3.05C90.7517 3.03333 90.6684 3.01667 90.5851 3C90.5184 3 90.4434 3 90.3601 3C90.2767 2.98333 90.1934 2.96667 90.1101 2.95C90.0601 2.93333 89.9851 2.94167 89.8851 2.975C89.8351 2.99167 89.7851 3.00833 89.7351 3.025C89.6851 3.025 89.6267 3.01667 89.5601 3C89.5101 3 89.4517 3 89.3851 3C89.3351 3 89.2767 3.01667 89.2101 3.05L88.7351 3.125C88.4684 3.175 88.2101 3.275 87.9601 3.425C87.9101 3.44167 87.8601 3.45833 87.8101 3.475C87.7601 3.49167 87.7101 3.49167 87.6601 3.475C87.5601 3.45833 87.4767 3.48333 87.4101 3.55C87.3934 3.58333 87.3517 3.60833 87.2851 3.625C87.2351 3.625 87.1934 3.64167 87.1601 3.675C87.0934 3.74167 87.0601 3.80833 87.0601 3.875C87.0767 3.90833 87.0851 3.95833 87.0851 4.025L87.6101 5.55C87.7101 5.81667 87.8351 6.06667 87.9851 6.3C88.1517 6.51667 88.3267 6.73333 88.5101 6.95C88.7934 7.28333 89.0851 7.56667 89.3851 7.8L90.1851 8.475C90.3517 8.625 90.5267 8.76667 90.7101 8.9C90.8934 9.03333 91.0684 9.16667 91.2351 9.3C91.4851 9.48333 91.7351 9.675 91.9851 9.875C92.2351 10.0583 92.4851 10.25 92.7351 10.45C92.9351 10.6167 93.1267 10.7833 93.3101 10.95C93.5101 11.1 93.6934 11.2667 93.8601 11.45C93.9767 11.5833 94.0934 11.7167 94.2101 11.85C94.3267 11.9833 94.4267 12.1333 94.5101 12.3C94.6267 12.4833 94.7267 12.7 94.8101 12.95C94.9101 13.2667 94.9517 13.5667 94.9351 13.85C94.9184 13.8833 94.9101 13.9333 94.9101 14C94.9101 14.2 94.8851 14.3917 94.8351 14.575C94.8017 14.7417 94.7434 14.9167 94.6601 15.1C94.5767 15.2667 94.4851 15.4417 94.3851 15.625C94.3017 15.7917 94.2017 15.9583 94.0851 16.125C93.9184 16.3417 93.7434 16.55 93.5601 16.75C93.3934 16.9333 93.2017 17.1167 92.9851 17.3C92.8684 17.4 92.7517 17.5083 92.6351 17.625C92.5184 17.725 92.3934 17.8167 92.2601 17.9C92.1767 17.9667 92.0934 18.025 92.0101 18.075C91.9267 18.1417 91.8434 18.2083 91.7601 18.275C91.6934 18.3083 91.6267 18.35 91.5601 18.4C91.4934 18.45 91.4267 18.5 91.3601 18.55C91.2934 18.6167 91.2101 18.6667 91.1101 18.7C91.0267 18.75 90.9434 18.7917 90.8601 18.825L90.1351 19.125C89.9851 19.175 89.8351 19.2083 89.6851 19.225C89.5351 19.2417 89.3767 19.2417 89.2101 19.225ZM107.951 22.125C107.767 22.1917 107.634 22.1417 107.551 21.975C107.467 21.8583 107.409 21.7167 107.376 21.55C107.376 21.4833 107.367 21.4167 107.351 21.35C107.351 21.3 107.351 21.2417 107.351 21.175C107.334 21.1417 107.326 21.1083 107.326 21.075C107.342 20.9417 107.351 20.8167 107.351 20.7C107.351 20.5833 107.359 20.4667 107.376 20.35C107.376 20.1167 107.376 19.875 107.376 19.625C107.392 19.3917 107.392 19.15 107.376 18.9C107.376 18.7 107.317 18.4833 107.201 18.25C107.101 18.0333 107.026 17.7917 106.976 17.525C106.959 17.4417 106.951 17.3667 106.951 17.3C106.951 17.2333 106.951 17.1667 106.951 17.1C106.984 16.9167 107.009 16.7333 107.026 16.55C107.042 16.35 107.059 16.1583 107.076 15.975C107.109 15.7917 107.126 15.6083 107.126 15.425C107.142 15.2417 107.159 15.0667 107.176 14.9C107.192 14.7167 107.209 14.5417 107.226 14.375C107.259 14.1917 107.267 14.0083 107.251 13.825C107.284 13.6417 107.301 13.4667 107.301 13.3C107.317 13.1167 107.334 12.9417 107.351 12.775C107.384 12.6417 107.392 12.5167 107.376 12.4C107.376 12.2667 107.367 12.1417 107.351 12.025C107.334 11.9417 107.326 11.875 107.326 11.825C107.342 11.7583 107.351 11.6917 107.351 11.625C107.367 11.5417 107.376 11.4583 107.376 11.375C107.376 11.275 107.384 11.1917 107.401 11.125V10.15C107.384 9.93333 107.376 9.725 107.376 9.525C107.392 9.30833 107.401 9.09167 107.401 8.875C107.384 8.70833 107.376 8.54167 107.376 8.375C107.392 8.19167 107.409 8.01667 107.426 7.85C107.442 7.8 107.451 7.75 107.451 7.7C107.451 7.65 107.451 7.60833 107.451 7.575V6.725C107.451 6.625 107.459 6.55 107.476 6.5V6.175C107.442 6.125 107.442 6.05833 107.476 5.975C107.509 5.825 107.509 5.675 107.476 5.525C107.459 5.49167 107.451 5.45833 107.451 5.425C107.467 5.375 107.476 5.325 107.476 5.275C107.476 5.19167 107.476 5.11667 107.476 5.05C107.492 4.96667 107.501 4.88333 107.501 4.8C107.501 4.73333 107.501 4.66667 107.501 4.6C107.517 4.51667 107.534 4.44167 107.551 4.375V4.275C107.551 4.14167 107.559 4.00833 107.576 3.875C107.592 3.725 107.609 3.59167 107.626 3.475L107.776 2.5C107.809 2.33333 107.842 2.175 107.876 2.025C107.926 1.875 107.984 1.725 108.051 1.575C108.151 1.275 108.334 0.999999 108.601 0.749999C108.684 0.683333 108.767 0.625 108.851 0.574999C108.951 0.524999 109.059 0.499999 109.176 0.499999C109.192 0.483332 109.217 0.474999 109.251 0.474999C109.367 0.441666 109.476 0.433333 109.576 0.449999C109.676 0.466666 109.776 0.491666 109.876 0.524998C110.109 0.574999 110.284 0.699999 110.401 0.9C110.484 1.01667 110.526 1.125 110.526 1.225C110.526 1.30833 110.534 1.375 110.551 1.425C110.601 1.64167 110.617 1.84167 110.601 2.025C110.601 2.09167 110.601 2.15833 110.601 2.225C110.617 2.29167 110.634 2.36667 110.651 2.45C110.684 2.53333 110.701 2.625 110.701 2.725C110.701 2.80833 110.701 2.89167 110.701 2.975C110.701 3.09167 110.692 3.20833 110.676 3.325C110.659 3.425 110.642 3.53333 110.626 3.65C110.609 3.71667 110.592 3.79167 110.576 3.875C110.576 3.94167 110.559 4.01667 110.526 4.1C110.509 4.21667 110.484 4.33333 110.451 4.45C110.434 4.56667 110.417 4.68333 110.401 4.8V4.9C110.367 5.06667 110.342 5.24167 110.326 5.425C110.309 5.59167 110.284 5.75833 110.251 5.925C110.234 5.975 110.226 6.025 110.226 6.075C110.226 6.125 110.226 6.16667 110.226 6.2C110.226 6.25 110.226 6.3 110.226 6.35C110.226 6.4 110.217 6.45 110.201 6.5C110.184 6.6 110.176 6.7 110.176 6.8C110.176 6.9 110.167 7.00833 110.151 7.125C110.151 7.14167 110.151 7.15 110.151 7.15C110.167 7.15 110.176 7.15833 110.176 7.175C110.176 7.19167 110.184 7.20833 110.201 7.225C110.234 7.24167 110.259 7.24167 110.276 7.225C110.342 7.19167 110.401 7.15 110.451 7.1C110.634 6.95 110.826 6.8 111.026 6.65C111.226 6.5 111.426 6.35 111.626 6.2C111.809 6.06667 111.992 5.93333 112.176 5.8C112.359 5.66667 112.542 5.53333 112.726 5.4C112.742 5.4 112.759 5.39167 112.776 5.375C112.942 5.24167 113.101 5.10833 113.251 4.975C113.417 4.84167 113.576 4.70833 113.726 4.575C113.909 4.40833 114.084 4.24167 114.251 4.075C114.434 3.90833 114.601 3.73333 114.751 3.55C114.784 3.51667 114.817 3.48333 114.851 3.45C114.884 3.41667 114.917 3.38333 114.951 3.35L115.776 2.45C115.909 2.3 116.084 2.14167 116.301 1.975C116.384 1.90833 116.476 1.86667 116.576 1.85C116.609 1.85 116.634 1.85 116.651 1.85C116.667 1.83333 116.684 1.83333 116.701 1.85C116.784 1.85 116.859 1.85833 116.926 1.875C116.992 1.875 117.059 1.88333 117.126 1.9C117.176 1.91667 117.251 1.925 117.351 1.925C117.434 1.89167 117.492 1.91667 117.526 2C117.526 2.01667 117.542 2.025 117.576 2.025C117.592 2.025 117.634 2.00833 117.701 1.975C117.751 1.975 117.776 1.99167 117.776 2.025C117.826 2.125 117.901 2.2 118.001 2.25C118.001 2.26667 118.001 2.275 118.001 2.275C118.017 2.275 118.026 2.275 118.026 2.275V2.35C118.026 2.43333 118.059 2.48333 118.126 2.5C118.142 2.5 118.151 2.50833 118.151 2.525C118.167 2.525 118.176 2.525 118.176 2.525C118.209 2.54167 118.242 2.58333 118.276 2.65C118.276 2.76667 118.301 2.89167 118.351 3.025C118.451 3.30833 118.442 3.58333 118.326 3.85C118.209 4.15 118.042 4.44167 117.826 4.725L117.201 5.55C117.134 5.63333 117.059 5.71667 116.976 5.8C116.892 5.88333 116.809 5.95833 116.726 6.025C116.642 6.10833 116.584 6.175 116.551 6.225C116.517 6.25833 116.484 6.29167 116.451 6.325C116.417 6.35833 116.384 6.39167 116.351 6.425C116.267 6.54167 116.167 6.63333 116.051 6.7C115.967 6.76667 115.876 6.83333 115.776 6.9C115.676 6.95 115.584 7.01667 115.501 7.1C115.417 7.16667 115.317 7.225 115.201 7.275C115.101 7.30833 115.001 7.34167 114.901 7.375C114.817 7.425 114.717 7.43333 114.601 7.4H114.576C114.359 7.33333 114.134 7.375 113.901 7.525C113.851 7.55833 113.792 7.59167 113.726 7.625C113.676 7.65833 113.617 7.69167 113.551 7.725C113.434 7.825 113.301 7.91667 113.151 8C113.084 8.03333 113.026 8.075 112.976 8.125C112.926 8.15833 112.876 8.19167 112.826 8.225C112.692 8.325 112.551 8.425 112.401 8.525C112.251 8.60833 112.109 8.7 111.976 8.8L111.476 9.1C111.426 9.13333 111.367 9.175 111.301 9.225C111.251 9.25833 111.192 9.3 111.126 9.35C111.092 9.38333 111.092 9.41667 111.126 9.45L111.426 9.675C111.642 9.79167 111.851 9.925 112.051 10.075C112.251 10.2083 112.451 10.35 112.651 10.5C112.834 10.6333 113.009 10.775 113.176 10.925C113.359 11.0583 113.542 11.1917 113.726 11.325C113.759 11.3417 113.792 11.3667 113.826 11.4C113.876 11.4333 113.909 11.4667 113.926 11.5C114.109 11.65 114.276 11.8 114.426 11.95C114.592 12.0833 114.759 12.225 114.926 12.375C115.209 12.6417 115.501 12.9 115.801 13.15C116.101 13.3833 116.384 13.6417 116.651 13.925L116.876 14.15C116.976 14.2667 117.076 14.375 117.176 14.475C117.292 14.5583 117.409 14.65 117.526 14.75C117.626 14.8 117.701 14.8667 117.751 14.95L117.826 15.025C117.942 15.1417 118.017 15.2667 118.051 15.4C118.084 15.5333 118.092 15.6833 118.076 15.85L118.051 16.025C118.067 16.1417 118.034 16.2333 117.951 16.3C117.901 16.3167 117.876 16.3833 117.876 16.5C117.876 16.5667 117.842 16.6 117.776 16.6C117.709 16.6167 117.651 16.65 117.601 16.7C117.484 16.8 117.342 16.875 117.176 16.925L116.976 17C116.909 17.0333 116.859 17.0417 116.826 17.025C116.759 16.9917 116.684 16.9583 116.601 16.925C116.517 16.8917 116.434 16.8667 116.351 16.85C116.317 16.8333 116.267 16.7917 116.201 16.725C116.117 16.6417 116.034 16.5583 115.951 16.475C115.867 16.375 115.784 16.275 115.701 16.175C115.584 16.0417 115.459 15.9083 115.326 15.775C115.192 15.6417 115.059 15.5167 114.926 15.4L114.126 14.725C113.942 14.5417 113.751 14.375 113.551 14.225C113.351 14.075 113.142 13.9167 112.926 13.75C112.892 13.7167 112.817 13.6833 112.701 13.65C112.651 13.65 112.601 13.6417 112.551 13.625C112.501 13.5917 112.451 13.5667 112.401 13.55C112.284 13.5 112.167 13.45 112.051 13.4C111.951 13.35 111.842 13.2917 111.726 13.225C111.626 13.1583 111.526 13.0917 111.426 13.025C111.326 12.9583 111.226 12.8917 111.126 12.825C111.009 12.725 110.876 12.6333 110.726 12.55C110.592 12.45 110.459 12.3583 110.326 12.275C110.309 12.2583 110.284 12.25 110.251 12.25C110.234 12.25 110.209 12.2417 110.176 12.225C110.109 12.1917 110.059 12.2167 110.026 12.3C109.992 12.3333 109.959 12.4 109.926 12.5L109.851 12.9C109.834 13.05 109.809 13.2083 109.776 13.375C109.759 13.525 109.742 13.675 109.726 13.825C109.709 13.9417 109.692 14.0583 109.676 14.175C109.659 14.275 109.642 14.375 109.626 14.475C109.609 14.575 109.592 14.675 109.576 14.775C109.559 14.875 109.534 14.975 109.501 15.075C109.484 15.1417 109.476 15.2167 109.476 15.3C109.476 15.3667 109.476 15.4417 109.476 15.525V16.35C109.476 16.55 109.459 16.75 109.426 16.95C109.392 17.1333 109.359 17.3167 109.326 17.5C109.276 17.8333 109.151 18.1083 108.951 18.325C108.834 18.4917 108.751 18.6833 108.701 18.9C108.634 19.2 108.584 19.5167 108.551 19.85C108.534 19.9167 108.526 19.9833 108.526 20.05C108.526 20.1333 108.517 20.2167 108.501 20.3C108.484 20.3667 108.476 20.4417 108.476 20.525C108.476 20.625 108.467 20.7167 108.451 20.8C108.434 20.9333 108.417 21.0667 108.401 21.2C108.401 21.35 108.384 21.4917 108.351 21.625C108.334 21.7417 108.284 21.85 108.201 21.95C108.134 22.0333 108.051 22.0917 107.951 22.125ZM122.745 18.25C122.645 18.25 122.578 18.2417 122.545 18.225C122.478 18.1917 122.42 18.1667 122.37 18.15C122.32 18.1333 122.27 18.1167 122.22 18.1C122.17 18.0667 122.12 18.0333 122.07 18C122.036 17.95 122.003 17.9 121.97 17.85C121.936 17.8167 121.903 17.8 121.87 17.8C121.77 17.8 121.72 17.75 121.72 17.65C121.703 17.55 121.686 17.45 121.67 17.35C121.653 17.25 121.636 17.15 121.62 17.05C121.603 16.9 121.586 16.75 121.57 16.6C121.57 16.45 121.553 16.3083 121.52 16.175V15.95C121.52 15.8833 121.511 15.825 121.495 15.775C121.495 15.725 121.495 15.6667 121.495 15.6C121.461 15.5167 121.461 15.45 121.495 15.4C121.528 15.1 121.528 14.8 121.495 14.5C121.478 14.4167 121.47 14.3333 121.47 14.25C121.47 14.1667 121.461 14.0833 121.445 14C121.445 13.8333 121.445 13.6667 121.445 13.5C121.445 13.3167 121.428 13.1417 121.395 12.975V12.575C121.395 12.4417 121.386 12.3167 121.37 12.2C121.37 12.0833 121.361 11.9667 121.345 11.85C121.328 11.7 121.311 11.55 121.295 11.4C121.295 11.25 121.286 11.1 121.27 10.95C121.253 10.9167 121.245 10.8583 121.245 10.775C121.228 10.6917 121.211 10.6083 121.195 10.525C121.195 10.425 121.195 10.3333 121.195 10.25L121.12 9C121.103 8.86667 121.086 8.74167 121.07 8.625C121.07 8.49167 121.07 8.36667 121.07 8.25C121.053 8.05 121.036 7.85 121.02 7.65C121.003 7.45 120.986 7.25833 120.97 7.075C120.97 7.04167 120.961 7.00833 120.945 6.975C120.945 6.94167 120.945 6.91667 120.945 6.9C120.945 6.7 120.936 6.5 120.92 6.3C120.903 6.1 120.886 5.89167 120.87 5.675L120.795 4.975C120.745 4.70833 120.736 4.41667 120.77 4.1C120.77 3.95 120.828 3.825 120.945 3.725C120.978 3.69167 121.003 3.675 121.02 3.675C121.036 3.65833 121.053 3.64167 121.07 3.625C121.153 3.60833 121.195 3.55 121.195 3.45C121.195 3.41667 121.228 3.4 121.295 3.4H121.42C121.436 3.4 121.445 3.4 121.445 3.4C121.461 3.38333 121.478 3.375 121.495 3.375C121.528 3.35833 121.553 3.34167 121.57 3.325C121.603 3.29167 121.628 3.275 121.645 3.275C121.678 3.275 121.711 3.28333 121.745 3.3C121.778 3.3 121.811 3.30833 121.845 3.325C121.878 3.325 121.903 3.31667 121.92 3.3C122.003 3.28333 122.086 3.29167 122.17 3.325C122.27 3.34167 122.353 3.36667 122.42 3.4C122.52 3.41667 122.595 3.48333 122.645 3.6C122.695 3.75 122.736 3.9 122.77 4.05C122.82 4.18333 122.853 4.325 122.87 4.475V4.675C122.903 4.79167 122.92 4.91667 122.92 5.05C122.92 5.16667 122.92 5.29167 122.92 5.425C122.92 5.54167 122.92 5.65833 122.92 5.775C122.936 5.875 122.953 5.975 122.97 6.075C122.97 6.125 122.97 6.175 122.97 6.225C122.97 6.275 122.978 6.325 122.995 6.375C122.995 6.475 122.995 6.575 122.995 6.675C123.011 6.775 123.028 6.88333 123.045 7C123.061 7.18333 123.078 7.375 123.095 7.575C123.111 7.775 123.12 7.975 123.12 8.175C123.12 8.25833 123.12 8.35 123.12 8.45C123.12 8.53333 123.128 8.61667 123.145 8.7C123.161 8.75 123.17 8.8 123.17 8.85C123.17 8.9 123.17 8.95 123.17 9V9.5C123.17 9.6 123.178 9.68333 123.195 9.75C123.228 9.86667 123.236 9.98333 123.22 10.1C123.22 10.2 123.228 10.3083 123.245 10.425L123.32 11.575C123.336 11.7417 123.345 11.9167 123.345 12.1C123.361 12.2667 123.37 12.4417 123.37 12.625C123.37 12.6917 123.37 12.7667 123.37 12.85C123.37 12.9167 123.378 12.9833 123.395 13.05C123.411 13.1 123.42 13.15 123.42 13.2C123.42 13.25 123.42 13.3 123.42 13.35C123.436 13.3667 123.436 13.4 123.42 13.45C123.42 13.4833 123.428 13.5167 123.445 13.55C123.478 13.6667 123.495 13.7833 123.495 13.9C123.495 14.0167 123.495 14.1417 123.495 14.275C123.495 14.3417 123.495 14.4167 123.495 14.5C123.511 14.5667 123.52 14.6417 123.52 14.725C123.536 14.8083 123.545 14.9 123.545 15C123.545 15.1 123.545 15.1917 123.545 15.275C123.561 15.3583 123.57 15.45 123.57 15.55C123.57 15.6333 123.578 15.7167 123.595 15.8C123.611 15.8333 123.62 15.8667 123.62 15.9C123.62 16.0833 123.636 16.2667 123.67 16.45C123.703 16.6333 123.736 16.8167 123.77 17C123.786 17.05 123.795 17.1083 123.795 17.175C123.795 17.225 123.795 17.275 123.795 17.325C123.795 17.375 123.778 17.4167 123.745 17.45C123.678 17.5 123.628 17.6 123.595 17.75C123.595 17.8 123.57 17.8417 123.52 17.875C123.403 17.925 123.303 17.9917 123.22 18.075C123.086 18.1917 122.928 18.25 122.745 18.25ZM129.435 18.35C129.318 18.35 129.177 18.3083 129.01 18.225C128.927 18.175 128.86 18.1083 128.81 18.025C128.793 17.975 128.752 17.975 128.685 18.025C128.635 18.0583 128.593 18.0583 128.56 18.025C128.51 17.975 128.46 17.9417 128.41 17.925C128.343 17.925 128.31 17.9 128.31 17.85C128.31 17.8 128.302 17.7583 128.285 17.725C128.285 17.675 128.268 17.6333 128.235 17.6C128.135 17.5667 128.068 17.4833 128.035 17.35C128.018 17.3 128.002 17.2583 127.985 17.225C127.968 17.175 127.943 17.125 127.91 17.075C127.877 17.0083 127.86 16.95 127.86 16.9C127.843 16.85 127.827 16.8083 127.81 16.775C127.81 16.725 127.793 16.675 127.76 16.625C127.743 16.5083 127.71 16.4 127.66 16.3C127.61 16.2 127.568 16.0917 127.535 15.975C127.502 15.9083 127.485 15.8167 127.485 15.7C127.485 15.4 127.535 15.125 127.635 14.875C127.718 14.725 127.743 14.575 127.71 14.425C127.693 14.3583 127.693 14.2917 127.71 14.225C127.743 14.1583 127.752 14.0917 127.735 14.025C127.718 13.9583 127.702 13.9 127.685 13.85C127.685 13.8 127.685 13.7417 127.685 13.675C127.668 13.6417 127.66 13.6 127.66 13.55C127.66 13.45 127.66 13.35 127.66 13.25C127.66 13.1333 127.643 13.0167 127.61 12.9C127.593 12.85 127.585 12.775 127.585 12.675V11.75C127.568 11.5333 127.543 11.3167 127.51 11.1C127.477 10.8833 127.435 10.6667 127.385 10.45C127.385 10.4 127.377 10.35 127.36 10.3C127.36 10.25 127.36 10.2 127.36 10.15C127.36 9.78333 127.302 9.425 127.185 9.075V8.85C127.218 8.66667 127.202 8.525 127.135 8.425C127.118 8.35833 127.11 8.26667 127.11 8.15V8.125C127.11 7.95833 127.102 7.79167 127.085 7.625C127.085 7.45833 127.093 7.29167 127.11 7.125C127.143 6.825 127.143 6.50833 127.11 6.175C127.11 6.04167 127.11 5.90833 127.11 5.775C127.11 5.64167 127.102 5.51667 127.085 5.4V5.25C127.118 5.16667 127.135 5.09167 127.135 5.025C127.135 4.95833 127.135 4.89167 127.135 4.825C127.135 4.625 127.127 4.43333 127.11 4.25C127.11 4.05 127.093 3.85833 127.06 3.675C127.06 3.625 127.06 3.575 127.06 3.525C127.06 3.45833 127.052 3.4 127.035 3.35C127.035 3.23333 126.993 3.13333 126.91 3.05L126.735 2.9C126.568 2.8 126.46 2.64167 126.41 2.425C126.393 2.39167 126.385 2.36667 126.385 2.35C126.385 2.31667 126.377 2.28333 126.36 2.25C126.327 2.16667 126.343 2.09167 126.41 2.025C126.46 1.95833 126.493 1.89167 126.51 1.825C126.51 1.775 126.518 1.73333 126.535 1.7C126.568 1.65 126.593 1.6 126.61 1.55C126.627 1.5 126.643 1.44167 126.66 1.375C126.693 1.325 126.718 1.30833 126.735 1.325C126.852 1.325 126.935 1.30833 126.985 1.275C127.102 1.19167 127.227 1.175 127.36 1.225C127.393 1.24167 127.443 1.23333 127.51 1.2C127.527 1.2 127.535 1.19167 127.535 1.175C127.618 1.09167 127.71 1.05 127.81 1.05C127.91 1.03333 128.018 1.03333 128.135 1.05C128.152 1.05 128.168 1.05833 128.185 1.075C128.202 1.075 128.218 1.075 128.235 1.075C128.368 1.10833 128.493 1.14167 128.61 1.175C128.743 1.19167 128.868 1.19167 128.985 1.175C129.068 1.175 129.152 1.18333 129.235 1.2C129.335 1.21667 129.427 1.225 129.51 1.225C129.577 1.225 129.635 1.23333 129.685 1.25C129.752 1.26667 129.81 1.28333 129.86 1.3C129.927 1.31667 129.985 1.34167 130.035 1.375C130.085 1.39167 130.143 1.4 130.21 1.4C130.293 1.41667 130.36 1.43333 130.41 1.45C130.477 1.46667 130.543 1.49167 130.61 1.525C130.827 1.64167 131.043 1.75 131.26 1.85C131.36 1.9 131.452 1.96667 131.535 2.05C131.652 2.13333 131.752 2.18333 131.835 2.2C131.852 2.2 131.868 2.20833 131.885 2.225C131.902 2.225 131.918 2.225 131.935 2.225C131.952 2.24167 131.968 2.25 131.985 2.25C132.002 2.25 132.018 2.25833 132.035 2.275C132.118 2.35833 132.218 2.425 132.335 2.475C132.468 2.50833 132.577 2.56667 132.66 2.65C132.693 2.68333 132.743 2.71667 132.81 2.75C132.943 2.8 133.06 2.875 133.16 2.975C133.193 3.00833 133.218 3.025 133.235 3.025C133.302 3.025 133.377 3.06667 133.46 3.15L133.985 3.7C134.052 3.76667 134.102 3.825 134.135 3.875C134.218 3.99167 134.31 4.1 134.41 4.2C134.51 4.3 134.61 4.4 134.71 4.5C134.743 4.53333 134.777 4.575 134.81 4.625C134.86 4.65833 134.893 4.7 134.91 4.75C134.927 4.78333 134.952 4.81667 134.985 4.85C135.018 4.86667 135.043 4.89167 135.06 4.925C135.243 5.125 135.418 5.33333 135.585 5.55C135.768 5.76667 135.935 5.99167 136.085 6.225C136.168 6.34167 136.243 6.46667 136.31 6.6C136.377 6.73333 136.435 6.86667 136.485 7C136.535 7.11667 136.585 7.23333 136.635 7.35C136.702 7.46667 136.76 7.58333 136.81 7.7C136.86 7.88333 136.918 8.05 136.985 8.2C137.052 8.41667 137.118 8.625 137.185 8.825C137.252 9.025 137.31 9.24167 137.36 9.475L137.435 9.8C137.435 9.93333 137.435 10.075 137.435 10.225C137.452 10.3583 137.46 10.5 137.46 10.65C137.46 10.7167 137.452 10.775 137.435 10.825C137.435 10.875 137.418 10.9333 137.385 11C137.352 11.1 137.335 11.1917 137.335 11.275C137.318 11.4417 137.277 11.6 137.21 11.75C137.16 11.9 137.102 12.0417 137.035 12.175C136.885 12.4417 136.752 12.7083 136.635 12.975C136.602 13.0417 136.568 13.1083 136.535 13.175C136.518 13.225 136.493 13.2833 136.46 13.35L136.31 13.65C136.193 13.8833 136.052 14.1167 135.885 14.35C135.735 14.5667 135.568 14.775 135.385 14.975C135.318 15.0583 135.235 15.1417 135.135 15.225C135.052 15.2917 134.968 15.3667 134.885 15.45C134.718 15.6 134.552 15.75 134.385 15.9C134.218 16.0333 134.043 16.1667 133.86 16.3C133.693 16.4167 133.518 16.525 133.335 16.625C133.168 16.725 132.985 16.8083 132.785 16.875C132.685 16.8917 132.585 16.9417 132.485 17.025C132.385 17.0917 132.277 17.1583 132.16 17.225C132.06 17.2917 131.952 17.3667 131.835 17.45C131.785 17.4667 131.735 17.4917 131.685 17.525C131.635 17.5417 131.577 17.5583 131.51 17.575C131.46 17.5917 131.402 17.6083 131.335 17.625C131.285 17.6417 131.235 17.6583 131.185 17.675C131.118 17.6917 131.052 17.7167 130.985 17.75C130.935 17.7833 130.885 17.825 130.835 17.875C130.718 17.9583 130.593 18.025 130.46 18.075C130.327 18.1417 130.193 18.2167 130.06 18.3C130.027 18.3167 129.968 18.325 129.885 18.325C129.835 18.3417 129.785 18.3417 129.735 18.325C129.685 18.325 129.635 18.325 129.585 18.325V18.35H129.435ZM130.435 15.55C130.602 15.55 130.743 15.5167 130.86 15.45C130.993 15.4 131.118 15.3417 131.235 15.275C131.352 15.2083 131.46 15.1333 131.56 15.05L131.86 14.75C132.027 14.6167 132.177 14.475 132.31 14.325C132.46 14.175 132.618 14.0417 132.785 13.925C132.818 13.8917 132.835 13.875 132.835 13.875C132.902 13.8083 132.96 13.75 133.01 13.7C133.077 13.6333 133.135 13.5667 133.185 13.5C133.218 13.4667 133.26 13.425 133.31 13.375C133.36 13.325 133.393 13.2833 133.41 13.25C133.477 13.1333 133.568 13.0333 133.685 12.95C133.768 12.9 133.818 12.85 133.835 12.8C133.868 12.7167 133.91 12.6333 133.96 12.55C134.027 12.4667 134.093 12.3917 134.16 12.325C134.243 12.225 134.327 12.075 134.41 11.875L134.51 11.625C134.61 11.3917 134.66 11.175 134.66 10.975C134.677 10.925 134.685 10.85 134.685 10.75C134.702 10.5 134.685 10.2333 134.635 9.95C134.618 9.86667 134.602 9.78333 134.585 9.7C134.568 9.61667 134.56 9.54167 134.56 9.475C134.543 9.40833 134.527 9.35 134.51 9.3C134.51 9.23333 134.493 9.175 134.46 9.125C134.427 9.05833 134.402 8.99167 134.385 8.925C134.368 8.85833 134.352 8.79167 134.335 8.725C134.335 8.60833 134.318 8.50833 134.285 8.425C134.252 8.325 134.218 8.225 134.185 8.125C134.135 8.025 134.085 7.925 134.035 7.825C133.985 7.70833 133.943 7.59167 133.91 7.475L133.885 7.375C133.835 7.30833 133.793 7.24167 133.76 7.175C133.743 7.09167 133.718 7.01667 133.685 6.95C133.618 6.8 133.552 6.65 133.485 6.5C133.435 6.35 133.368 6.20833 133.285 6.075C133.202 5.925 133.11 5.775 133.01 5.625C132.927 5.475 132.818 5.34167 132.685 5.225C132.302 4.80833 131.86 4.43333 131.36 4.1C131.06 3.88333 130.76 3.74167 130.46 3.675C130.343 3.64167 130.21 3.61667 130.06 3.6C129.91 3.56667 129.768 3.54167 129.635 3.525C129.585 3.525 129.543 3.54167 129.51 3.575C129.427 3.64167 129.385 3.725 129.385 3.825C129.385 3.94167 129.377 4.06667 129.36 4.2C129.36 4.31667 129.36 4.44167 129.36 4.575C129.393 4.80833 129.385 5 129.335 5.15C129.318 5.21667 129.302 5.28333 129.285 5.35C129.285 5.41667 129.293 5.49167 129.31 5.575C129.343 5.675 129.335 5.76667 129.285 5.85C129.235 5.95 129.235 6.05833 129.285 6.175C129.352 6.30833 129.368 6.475 129.335 6.675C129.285 6.875 129.285 7.075 129.335 7.275C129.352 7.34167 129.36 7.40833 129.36 7.475C129.377 7.54167 129.377 7.61667 129.36 7.7C129.36 7.88333 129.368 8.06667 129.385 8.25C129.418 8.43333 129.443 8.61667 129.46 8.8C129.46 8.83333 129.477 8.88333 129.51 8.95V9.35C129.51 9.38333 129.502 9.425 129.485 9.475C129.485 9.50833 129.493 9.54167 129.51 9.575C129.543 9.70833 129.568 9.85 129.585 10C129.618 10.1333 129.652 10.2667 129.685 10.4C129.685 10.4333 129.693 10.475 129.71 10.525C129.727 10.5583 129.735 10.6 129.735 10.65C129.735 10.7667 129.743 10.8833 129.76 11C129.777 11.1167 129.793 11.2417 129.81 11.375C129.86 11.8417 129.935 12.3167 130.035 12.8C130.085 13 130.11 13.2083 130.11 13.425C130.11 13.475 130.11 13.5333 130.11 13.6C130.11 13.65 130.118 13.7 130.135 13.75C130.168 13.8667 130.185 13.9833 130.185 14.1C130.185 14.2167 130.185 14.3333 130.185 14.45C130.185 14.4833 130.177 14.525 130.16 14.575C130.16 14.625 130.168 14.6667 130.185 14.7C130.218 14.7833 130.235 14.8667 130.235 14.95C130.235 15.0167 130.235 15.0917 130.235 15.175C130.235 15.2417 130.252 15.325 130.285 15.425C130.285 15.5083 130.335 15.55 130.435 15.55Z" fill="#353535"/>
</svg>
