<svg width="72" height="21" viewBox="0 0 72 21" fill="none" xmlns="http://www.w3.org/2000/svg">
<path d="M15.3417 20.4C14.9817 20.44 14.7017 20.33 14.5017 20.07C14.4417 19.93 14.3517 19.86 14.2317 19.86C14.1717 19.84 14.1317 19.8 14.1117 19.74C14.0917 19.66 14.0517 19.58 13.9917 19.5C13.8717 19.3 13.7417 19.11 13.6017 18.93C13.4817 18.75 13.3417 18.57 13.1817 18.39C13.1017 18.31 13.0317 18.23 12.9717 18.15C12.9117 18.07 12.8517 17.99 12.7917 17.91C12.7517 17.87 12.7117 17.82 12.6717 17.76C12.6317 17.7 12.5917 17.65 12.5517 17.61C12.4117 17.45 12.3117 17.36 12.2517 17.34C12.2117 17.32 12.0817 17.36 11.8617 17.46C11.4417 17.64 11.0217 17.8 10.6017 17.94C10.1817 18.08 9.74172 18.19 9.28172 18.27C9.06172 18.33 8.82172 18.34 8.56172 18.3L7.96172 18.24C7.88172 18.22 7.79172 18.21 7.69172 18.21C7.59172 18.21 7.49172 18.2 7.39172 18.18L6.76172 18.09H6.61172C6.43172 18.01 6.25172 17.95 6.07172 17.91C5.89172 17.85 5.72172 17.78 5.56172 17.7C5.32172 17.6 5.08172 17.49 4.84172 17.37C4.62172 17.25 4.40172 17.14 4.18172 17.04C3.98172 16.94 3.77172 16.8 3.55172 16.62C3.51172 16.6 3.47172 16.57 3.43172 16.53C3.23172 16.39 3.04172 16.23 2.86172 16.05C2.68172 15.87 2.51172 15.7 2.35172 15.54C2.29172 15.48 2.22172 15.39 2.14172 15.27C2.06172 15.17 1.99172 15.07 1.93172 14.97C1.87172 14.87 1.80172 14.78 1.72172 14.7C1.70172 14.7 1.69172 14.69 1.69172 14.67C1.51172 14.41 1.34172 14.13 1.18172 13.83C0.941719 13.41 0.761719 12.96 0.641719 12.48C0.601719 12.32 0.571719 12.17 0.551719 12.03C0.531719 11.87 0.511719 11.72 0.491719 11.58C0.491719 11.48 0.481719 11.39 0.461719 11.31C0.461719 11.23 0.451719 11.15 0.431719 11.07C0.431719 11.01 0.421719 10.95 0.401719 10.89C0.401719 10.81 0.401719 10.74 0.401719 10.68C0.421719 10.4 0.381719 10.26 0.281719 10.26C0.201719 10.24 0.161719 10.12 0.161719 9.9C0.201719 9.68 0.241719 9.46 0.281719 9.24C0.321719 9.02 0.391719 8.81 0.491719 8.61C0.531719 8.53 0.551719 8.47 0.551719 8.43C0.671719 7.87 0.871719 7.3 1.15172 6.72C1.25172 6.54 1.34172 6.36 1.42172 6.18C1.50172 6 1.58172 5.83 1.66172 5.67C1.82172 5.33 2.00172 5 2.20172 4.68C2.42172 4.36 2.63172 4.05 2.83172 3.75C2.89172 3.67 2.94172 3.6 2.98172 3.54C3.04172 3.46 3.10172 3.39 3.16172 3.33C3.32172 3.09 3.49172 2.87 3.67172 2.67C3.85172 2.47 4.04172 2.27 4.24172 2.07C4.62172 1.71 5.06172 1.43 5.56172 1.23C5.66172 1.19 5.76172 1.15 5.86172 1.11C5.98172 1.07 6.09172 1.03 6.19172 0.989999C6.29172 0.989999 6.35172 0.959999 6.37172 0.899998C6.41172 0.839999 6.46172 0.789999 6.52172 0.749999C6.58172 0.709999 6.64172 0.679999 6.70172 0.66C6.84172 0.599999 6.98172 0.539999 7.12172 0.479998C7.26172 0.419999 7.39172 0.34 7.51172 0.24C7.59172 0.199999 7.65172 0.179999 7.69172 0.179999C7.79172 0.199998 7.88172 0.209998 7.96172 0.209998C8.06172 0.209998 8.15172 0.219999 8.23172 0.24C8.43172 0.279999 8.63172 0.329999 8.83172 0.39C9.03172 0.449999 9.23172 0.529998 9.43172 0.629998C9.51172 0.669999 9.56172 0.689999 9.58172 0.689999C9.78172 0.729999 9.95172 0.809999 10.0917 0.93C10.2517 1.05 10.4017 1.17 10.5417 1.29C10.6417 1.35 10.7317 1.42 10.8117 1.5C10.8917 1.56 10.9717 1.63 11.0517 1.71C11.0917 1.73 11.1317 1.76 11.1717 1.8C11.2117 1.84 11.2417 1.88 11.2617 1.92C11.3217 2 11.3917 2.08 11.4717 2.16C11.5517 2.24 11.6317 2.33 11.7117 2.43C11.8117 2.53 11.9117 2.64 12.0117 2.76C12.1117 2.88 12.2217 2.99 12.3417 3.09C12.3817 3.13 12.4217 3.18 12.4617 3.24C12.5017 3.28 12.5317 3.33 12.5517 3.39C12.6717 3.59 12.7917 3.8 12.9117 4.02C13.0517 4.22 13.1617 4.44 13.2417 4.68C13.2817 4.7 13.3117 4.73 13.3317 4.77C13.3517 4.81 13.3717 4.85 13.3917 4.89C13.4917 5.11 13.6017 5.34 13.7217 5.58C13.8417 5.8 13.9417 6.03 14.0217 6.27C14.0617 6.37 14.1017 6.47 14.1417 6.57C14.1817 6.65 14.2217 6.74 14.2617 6.84C14.3817 7.1 14.4917 7.38 14.5917 7.68C14.6917 7.96 14.7917 8.24 14.8917 8.52C14.9917 8.76 15.0817 9.01 15.1617 9.27C15.2417 9.51 15.3217 9.76 15.4017 10.02L15.5817 10.71C15.6217 10.85 15.6617 11 15.7017 11.16C15.7417 11.32 15.7717 11.48 15.7917 11.64V11.76C15.8317 12.02 15.8517 12.28 15.8517 12.54C15.8517 12.78 15.8217 13.03 15.7617 13.29C15.7017 13.63 15.6017 13.96 15.4617 14.28C15.3217 14.6 15.1317 14.9 14.8917 15.18L14.7117 15.42C14.6917 15.48 14.6917 15.54 14.7117 15.6C14.7317 15.62 14.7617 15.67 14.8017 15.75C15.0217 16.01 15.2317 16.27 15.4317 16.53C15.6317 16.77 15.8317 17.03 16.0317 17.31L16.3017 17.61C16.5017 17.85 16.6517 18.14 16.7517 18.48C16.7717 18.54 16.7917 18.6 16.8117 18.66C16.8317 18.72 16.8517 18.78 16.8717 18.84C16.8717 18.96 16.8817 19.05 16.9017 19.11C16.9017 19.19 16.8717 19.25 16.8117 19.29C16.7317 19.35 16.6717 19.41 16.6317 19.47C16.6117 19.55 16.5817 19.64 16.5417 19.74C16.5217 19.76 16.5117 19.78 16.5117 19.8C16.5117 19.84 16.4917 19.87 16.4517 19.89L16.0017 20.25C15.9817 20.25 15.9617 20.25 15.9417 20.25C15.9417 20.27 15.9217 20.28 15.8817 20.28C15.8017 20.3 15.7117 20.32 15.6117 20.34C15.5317 20.36 15.4417 20.38 15.3417 20.4ZM8.41172 15.42H8.74172C9.02172 15.38 9.28172 15.34 9.52172 15.3C9.78172 15.24 10.0317 15.16 10.2717 15.06L10.4517 14.97C10.5517 14.93 10.5717 14.88 10.5117 14.82L10.4217 14.61C10.3217 14.45 10.2117 14.29 10.0917 14.13C9.99172 13.95 9.89172 13.78 9.79172 13.62C9.57172 13.22 9.33172 12.83 9.07172 12.45C8.83172 12.05 8.59172 11.66 8.35172 11.28C8.17172 10.98 7.98172 10.68 7.78172 10.38C7.60172 10.06 7.40172 9.75 7.18172 9.45L6.07172 7.92C6.01172 7.82 5.95172 7.73 5.89172 7.65C5.83172 7.57 5.77172 7.49 5.71172 7.41L5.44172 7.02C5.28172 6.82 5.20172 6.61 5.20172 6.39C5.20172 5.81 5.46172 5.35 5.98172 5.01C6.14172 4.91 6.30172 4.84 6.46172 4.8C6.62172 4.74 6.80172 4.76 7.00172 4.86C7.18172 4.88 7.33172 4.94 7.45172 5.04C7.59172 5.14 7.71172 5.26 7.81172 5.4L7.93172 5.58C8.03172 5.7 8.13172 5.83 8.23172 5.97C8.35172 6.09 8.45172 6.21 8.53172 6.33C8.75172 6.59 8.95172 6.86 9.13172 7.14C9.33172 7.42 9.52172 7.71 9.70172 8.01L10.4817 9.24C10.5817 9.38 10.6817 9.53 10.7817 9.69C10.8817 9.83 10.9717 9.98 11.0517 10.14C11.2317 10.42 11.4017 10.7 11.5617 10.98C11.7417 11.26 11.9217 11.54 12.1017 11.82C12.2217 12.02 12.3417 12.21 12.4617 12.39C12.5817 12.57 12.7017 12.75 12.8217 12.93H12.9117C12.9117 12.93 12.9217 12.92 12.9417 12.9C13.0217 12.62 13.0317 12.31 12.9717 11.97L12.8217 11.37C12.8017 11.23 12.7617 11.1 12.7017 10.98C12.6617 10.84 12.6217 10.71 12.5817 10.59C12.5617 10.55 12.5517 10.51 12.5517 10.47C12.5517 10.41 12.5417 10.36 12.5217 10.32C12.4217 10.06 12.3217 9.8 12.2217 9.54C12.1217 9.26 12.0217 8.99 11.9217 8.73C11.8617 8.55 11.7917 8.38 11.7117 8.22C11.6517 8.04 11.5917 7.86 11.5317 7.68C11.4317 7.4 11.3217 7.12 11.2017 6.84C11.0817 6.54 10.9617 6.26 10.8417 6C10.6217 5.46 10.3817 4.96 10.1217 4.5C9.80172 4.02 9.37172 3.6 8.83172 3.24C8.77172 3.18 8.71172 3.15 8.65172 3.15C8.53172 3.07 8.45172 3.1 8.41172 3.24C8.37172 3.38 8.26172 3.52 8.08172 3.66C8.08172 3.66 8.08172 3.67 8.08172 3.69C8.08172 3.69 8.07172 3.69 8.05172 3.69C7.93172 3.85 7.73172 3.96 7.45172 4.02L7.00172 4.11C6.72172 4.13 6.46172 4.25 6.22172 4.47C6.14172 4.55 6.06172 4.64 5.98172 4.74C5.92172 4.82 5.84172 4.9 5.74172 4.98L5.47172 5.34C5.15172 5.72 4.83172 6.15 4.51172 6.63C4.45172 6.73 4.38172 6.84 4.30172 6.96C4.24172 7.06 4.18172 7.17 4.12172 7.29C3.84172 7.77 3.62172 8.27 3.46172 8.79C3.30172 9.31 3.22172 9.85 3.22172 10.41C3.22172 10.57 3.22172 10.73 3.22172 10.89C3.24172 11.05 3.26172 11.21 3.28172 11.37C3.38172 11.81 3.53172 12.22 3.73172 12.6C3.89172 12.86 4.06172 13.11 4.24172 13.35C4.44172 13.57 4.66172 13.78 4.90172 13.98L5.53172 14.46C5.61172 14.52 5.68172 14.58 5.74172 14.64C5.82172 14.68 5.90172 14.72 5.98172 14.76C6.36172 14.96 6.75172 15.11 7.15172 15.21C7.57172 15.31 7.99172 15.38 8.41172 15.42ZM23.2816 18.25C23.265 18.2333 23.24 18.225 23.2066 18.225C23.04 18.125 22.8733 18.0333 22.7066 17.95C22.5566 17.85 22.415 17.7417 22.2816 17.625C22.215 17.5917 22.1733 17.5583 22.1566 17.525C22.0066 17.4417 21.8733 17.3417 21.7566 17.225C21.64 17.0917 21.5316 16.95 21.4316 16.8C21.3983 16.7667 21.365 16.725 21.3316 16.675C21.2983 16.625 21.2566 16.575 21.2066 16.525C21.04 16.3583 20.9066 16.1583 20.8066 15.925C20.79 15.875 20.765 15.825 20.7316 15.775C20.6983 15.725 20.665 15.675 20.6316 15.625C20.5316 15.4917 20.4566 15.3667 20.4066 15.25C20.3733 15.1167 20.3233 14.9917 20.2566 14.875C20.19 14.7417 20.1233 14.6167 20.0566 14.5C20.04 14.4333 20.015 14.3667 19.9816 14.3C19.9483 14.2333 19.9233 14.1667 19.9066 14.1C19.9066 14.0167 19.8816 13.925 19.8316 13.825C19.765 13.6417 19.6983 13.4583 19.6316 13.275C19.5816 13.075 19.5316 12.875 19.4816 12.675C19.4483 12.6083 19.4316 12.5583 19.4316 12.525C19.3316 12.3083 19.2566 12.0833 19.2066 11.85C19.1566 11.6167 19.1066 11.3917 19.0566 11.175L18.9066 10.05C18.89 10.0167 18.8816 9.975 18.8816 9.925C18.8816 9.875 18.8816 9.83333 18.8816 9.8C18.8816 9.7 18.8816 9.60833 18.8816 9.525C18.8816 9.425 18.865 9.325 18.8316 9.225C18.7983 9.00833 18.8066 8.80833 18.8566 8.625C18.8566 8.55833 18.8566 8.5 18.8566 8.45C18.8733 8.38333 18.8816 8.31667 18.8816 8.25C18.8816 8.16667 18.8816 8.08333 18.8816 8C18.8983 7.9 18.915 7.81667 18.9316 7.75C18.9483 7.7 18.9566 7.63333 18.9566 7.55C18.99 7.4 19.0066 7.25833 19.0066 7.125C19.0233 6.975 19.04 6.83333 19.0566 6.7C19.1066 6.46667 19.1316 6.24167 19.1316 6.025C19.1316 5.95833 19.1316 5.9 19.1316 5.85C19.1483 5.78333 19.165 5.71667 19.1816 5.65C19.1816 5.5 19.1733 5.39167 19.1566 5.325C19.1066 5.25833 19.0983 5.16667 19.1316 5.05C19.165 4.98333 19.1816 4.93333 19.1816 4.9C19.1983 4.86667 19.2066 4.83333 19.2066 4.8C19.2066 4.75 19.2316 4.71667 19.2816 4.7H19.4566C19.5233 4.7 19.565 4.675 19.5816 4.625C19.5983 4.55833 19.6566 4.50833 19.7566 4.475C19.84 4.44167 19.915 4.41667 19.9816 4.4C20.0483 4.36667 20.115 4.325 20.1816 4.275C20.2316 4.24167 20.29 4.225 20.3566 4.225C20.4233 4.225 20.49 4.23333 20.5566 4.25L21.0066 4.4C21.0233 4.41667 21.0316 4.425 21.0316 4.425C21.0483 4.425 21.065 4.43333 21.0816 4.45C21.215 4.58333 21.3233 4.73333 21.4066 4.9C21.5066 5.06667 21.565 5.25 21.5816 5.45C21.5816 5.51667 21.5816 5.58333 21.5816 5.65C21.5816 5.7 21.565 5.75833 21.5316 5.825C21.515 5.925 21.4983 6.025 21.4816 6.125C21.465 6.225 21.4483 6.33333 21.4316 6.45C21.3983 6.61667 21.3733 6.78333 21.3566 6.95C21.3566 7.1 21.3566 7.25833 21.3566 7.425C21.34 7.49167 21.3316 7.55833 21.3316 7.625C21.3316 7.675 21.3233 7.73333 21.3066 7.8C21.29 8 21.2816 8.2 21.2816 8.4C21.2816 8.6 21.2983 8.79167 21.3316 8.975C21.3316 8.99167 21.3316 9.01667 21.3316 9.05C21.3483 9.08333 21.3483 9.11667 21.3316 9.15C21.3316 9.31667 21.3483 9.49167 21.3816 9.675C21.415 9.85833 21.44 10.0417 21.4566 10.225C21.4733 10.3917 21.49 10.55 21.5066 10.7C21.5233 10.85 21.5483 11 21.5816 11.15C21.615 11.2167 21.6316 11.2833 21.6316 11.35C21.6483 11.4167 21.665 11.4833 21.6816 11.55C21.7483 11.8667 21.8233 12.175 21.9066 12.475C21.99 12.775 22.0983 13.075 22.2316 13.375C22.315 13.5583 22.3983 13.7167 22.4816 13.85C22.615 14.0833 22.7316 14.3167 22.8316 14.55C22.8983 14.6667 22.965 14.7833 23.0316 14.9C23.0983 15 23.165 15.1083 23.2316 15.225C23.2983 15.3083 23.365 15.3833 23.4316 15.45C23.4983 15.5167 23.565 15.5917 23.6316 15.675C23.715 15.7583 23.8233 15.7833 23.9566 15.75C24.04 15.7167 24.0983 15.6833 24.1316 15.65C24.215 15.6 24.29 15.55 24.3566 15.5C24.44 15.45 24.515 15.3917 24.5816 15.325C24.765 15.1417 24.9316 14.9583 25.0816 14.775C25.2483 14.5917 25.39 14.3917 25.5066 14.175C25.6066 13.9917 25.7066 13.8 25.8066 13.6C25.9066 13.4 25.9983 13.2 26.0816 13C26.1816 12.7667 26.2733 12.5333 26.3566 12.3C26.4566 12.0667 26.5483 11.825 26.6316 11.575C26.6983 11.4083 26.7483 11.2417 26.7816 11.075C26.8316 10.8917 26.865 10.7167 26.8816 10.55C26.915 10.3667 26.94 10.1833 26.9566 10C26.99 9.8 26.9983 9.60833 26.9816 9.425C26.9816 9.375 26.9816 9.325 26.9816 9.275C26.9983 9.225 27.0066 9.175 27.0066 9.125C27.04 9.00833 27.0483 8.9 27.0316 8.8C27.0316 8.7 27.0233 8.6 27.0066 8.5C26.99 8.21667 26.965 7.95 26.9316 7.7C26.915 7.43333 26.8983 7.16667 26.8816 6.9C26.8816 6.76667 26.8733 6.675 26.8566 6.625C26.84 6.475 26.8233 6.325 26.8066 6.175C26.8066 6.025 26.79 5.875 26.7566 5.725V5.525C26.7566 5.35833 26.7483 5.2 26.7316 5.05C26.7316 4.88333 26.7316 4.71667 26.7316 4.55C26.7316 4.41667 26.7233 4.3 26.7066 4.2C26.7066 4.08333 26.7066 3.96667 26.7066 3.85C26.7066 3.7 26.7316 3.575 26.7816 3.475C26.8316 3.39167 26.8483 3.325 26.8316 3.275C26.7816 3.175 26.8066 3.1 26.9066 3.05C26.99 2.96667 27.0733 2.9 27.1566 2.85C27.2566 2.8 27.365 2.76667 27.4816 2.75C27.515 2.73333 27.54 2.725 27.5566 2.725C27.59 2.725 27.615 2.71667 27.6316 2.7C27.7316 2.61667 27.865 2.59167 28.0316 2.625C28.065 2.64167 28.115 2.65 28.1816 2.65C28.3316 2.68333 28.44 2.74167 28.5066 2.825C28.5566 2.875 28.6316 2.93333 28.7316 3C28.865 3.06667 28.9566 3.15 29.0066 3.25C29.0566 3.35 29.09 3.45833 29.1066 3.575C29.14 3.74167 29.165 3.9 29.1816 4.05C29.215 4.2 29.2233 4.35833 29.2066 4.525V4.75C29.2066 4.91667 29.2066 5.08333 29.2066 5.25C29.2233 5.4 29.24 5.55833 29.2566 5.725C29.2733 5.775 29.2816 5.83333 29.2816 5.9C29.2816 5.95 29.2816 6 29.2816 6.05C29.2816 6.15 29.2816 6.25 29.2816 6.35C29.2983 6.43333 29.315 6.525 29.3316 6.625C29.3483 6.65833 29.3566 6.70833 29.3566 6.775C29.34 6.94167 29.34 7.10833 29.3566 7.275C29.39 7.425 29.415 7.58333 29.4316 7.75C29.4483 7.91667 29.4566 8.09167 29.4566 8.275C29.4733 8.45833 29.4816 8.64167 29.4816 8.825C29.4983 8.84167 29.4983 8.86667 29.4816 8.9C29.4816 8.93333 29.4816 8.96667 29.4816 9C29.4316 9.15 29.4233 9.325 29.4566 9.525C29.49 9.74167 29.4816 9.95 29.4316 10.15C29.415 10.3 29.3983 10.45 29.3816 10.6C29.365 10.75 29.34 10.9083 29.3066 11.075C29.2733 11.3417 29.215 11.6083 29.1316 11.875C29.0483 12.1417 28.965 12.4083 28.8816 12.675C28.8816 12.7083 28.8566 12.7667 28.8066 12.85C28.74 12.9667 28.6816 13.0917 28.6316 13.225C28.5816 13.3417 28.54 13.4667 28.5066 13.6L28.4316 13.775C28.3483 13.9417 28.2733 14.1083 28.2066 14.275C28.1566 14.425 28.09 14.5833 28.0066 14.75C27.9566 14.85 27.9066 14.95 27.8566 15.05C27.8066 15.15 27.7483 15.2417 27.6816 15.325C27.665 15.3583 27.64 15.3917 27.6066 15.425C27.5733 15.5417 27.5233 15.65 27.4566 15.75C27.39 15.85 27.3233 15.95 27.2566 16.05C27.0733 16.3333 26.8566 16.6 26.6066 16.85C26.3733 17.1 26.115 17.3333 25.8316 17.55L25.5316 17.725C25.2983 17.8417 25.0483 17.9417 24.7816 18.025C24.5316 18.1083 24.2733 18.1667 24.0066 18.2C23.9233 18.2167 23.8316 18.2167 23.7316 18.2C23.6816 18.2 23.6316 18.2 23.5816 18.2C23.5316 18.2 23.4816 18.2167 23.4316 18.25H23.2816ZM34.9635 18.175C34.8635 18.175 34.7968 18.1667 34.7635 18.15C34.6801 18.1167 34.5968 18.1 34.5135 18.1C34.4468 18.1167 34.3718 18.125 34.2885 18.125C34.2718 18.125 34.2551 18.125 34.2385 18.125C34.2218 18.1417 34.2051 18.15 34.1885 18.15C34.0718 18.1667 33.9551 18.175 33.8385 18.175C33.7385 18.175 33.6385 18.1583 33.5385 18.125C33.5218 18.1083 33.5051 18.1 33.4885 18.1C33.3718 18.1167 33.2718 18.0833 33.1885 18C33.1051 17.9167 33.0218 17.8417 32.9385 17.775C32.8551 17.6917 32.8135 17.6 32.8135 17.5L32.7385 17.3C32.6885 17.1833 32.6718 17.075 32.6885 16.975C32.7051 16.9417 32.7051 16.9083 32.6885 16.875C32.6885 16.8417 32.6885 16.8083 32.6885 16.775C32.6718 16.7417 32.6635 16.7083 32.6635 16.675C32.6635 16.625 32.6551 16.5833 32.6385 16.55C32.6051 16.4 32.5801 16.25 32.5635 16.1C32.5635 15.9333 32.5718 15.775 32.5885 15.625C32.6051 15.525 32.6635 15.3583 32.7635 15.125C32.8635 14.875 32.9218 14.725 32.9385 14.675C32.9885 14.5917 33.0135 14.525 33.0135 14.475C32.9968 14.2917 32.9885 14.1083 32.9885 13.925C33.0051 13.725 33.0135 13.5333 33.0135 13.35C33.0135 13.2333 33.0385 13.1417 33.0885 13.075C33.1551 12.9583 33.1635 12.8333 33.1135 12.7L33.0385 12.425C32.9385 12.2417 32.9468 12.0833 33.0635 11.95C33.0635 11.9333 33.0635 11.925 33.0635 11.925C33.0801 11.9083 33.0885 11.8917 33.0885 11.875C33.1218 11.8417 33.1301 11.8 33.1135 11.75C33.0968 11.6833 33.0885 11.6333 33.0885 11.6C33.0885 11.5333 33.0968 11.4667 33.1135 11.4C33.1468 11.3167 33.1551 11.2417 33.1385 11.175C33.1385 11.175 33.1218 11.1583 33.0885 11.125C33.0718 11.0917 33.0635 11.025 33.0635 10.925C33.0801 10.825 33.0885 10.7667 33.0885 10.75V10.05C33.1051 9.96667 33.1135 9.89167 33.1135 9.825C33.1135 9.74167 33.1218 9.65833 33.1385 9.575C33.1551 9.475 33.1551 9.375 33.1385 9.275C33.1385 9.15833 33.1385 9.04167 33.1385 8.925C33.1218 8.84167 33.1051 8.75 33.0885 8.65C33.0885 8.55 33.0885 8.45 33.0885 8.35C33.0718 8.31667 33.0635 8.275 33.0635 8.225C33.0635 8.175 33.0635 8.13333 33.0635 8.1C33.0468 8.01667 33.0301 7.93333 33.0135 7.85C33.0135 7.76667 33.0135 7.68333 33.0135 7.6C33.0135 7.56667 32.9801 7.45833 32.9135 7.275C32.8468 7.075 32.8218 6.90833 32.8385 6.775C32.8551 6.74167 32.8635 6.7 32.8635 6.65C32.8635 6.6 32.8468 6.55833 32.8135 6.525C32.7801 6.50833 32.7635 6.475 32.7635 6.425V6.35C32.8135 6.15 32.7885 5.95 32.6885 5.75C32.6218 5.65 32.5968 5.55 32.6135 5.45C32.6135 5.31667 32.5551 5.21667 32.4385 5.15C32.3551 5.06667 32.2801 4.96667 32.2135 4.85C32.1468 4.73333 32.1051 4.61667 32.0885 4.5C32.0718 4.41667 32.0635 4.33333 32.0635 4.25C32.0635 4.16667 32.0635 4.09167 32.0635 4.025C32.0635 3.95833 32.0718 3.91667 32.0885 3.9C32.1551 3.83333 32.1885 3.75833 32.1885 3.675C32.1885 3.575 32.1968 3.5 32.2135 3.45C32.2301 3.43333 32.2468 3.425 32.2635 3.425C32.2801 3.425 32.2968 3.41667 32.3135 3.4C32.3801 3.38333 32.4135 3.325 32.4135 3.225C32.3801 3.15833 32.3635 3.1 32.3635 3.05C32.3468 2.98333 32.3718 2.925 32.4385 2.875C32.4718 2.80833 32.5135 2.79167 32.5635 2.825C32.6801 2.875 32.8135 2.85833 32.9635 2.775C33.0301 2.74167 33.0718 2.725 33.0885 2.725C33.1385 2.725 33.1635 2.725 33.1635 2.725C33.1801 2.70833 33.2301 2.7 33.3135 2.7C33.4135 2.71667 33.5051 2.68333 33.5885 2.6C33.7051 2.48333 33.8468 2.425 34.0135 2.425H35.5635C35.9468 2.44167 36.3301 2.44167 36.7135 2.425C37.0968 2.40833 37.4718 2.4 37.8385 2.4C37.9218 2.4 37.9885 2.4 38.0385 2.4C38.1051 2.38333 38.1718 2.36667 38.2385 2.35C38.3385 2.3 38.4551 2.275 38.5885 2.275H39.1635C39.2968 2.275 39.4135 2.275 39.5135 2.275C39.6301 2.25833 39.7468 2.24167 39.8635 2.225C39.9301 2.20833 39.9885 2.2 40.0385 2.2C40.1051 2.2 40.1718 2.2 40.2385 2.2C40.3051 2.2 40.3718 2.2 40.4385 2.2C40.5051 2.2 40.5718 2.19167 40.6385 2.175C40.7718 2.15833 40.9135 2.15 41.0635 2.15C41.2135 2.13333 41.3551 2.125 41.4885 2.125C41.5551 2.125 41.6135 2.125 41.6635 2.125C41.7301 2.10833 41.7968 2.09167 41.8635 2.075C41.9968 2.04167 42.1218 2.025 42.2385 2.025C42.3718 2.00833 42.4968 1.99167 42.6135 1.975C42.7468 1.95833 42.8718 1.94167 42.9885 1.925C43.1218 1.90833 43.2468 1.89167 43.3635 1.875C43.5135 1.875 43.6218 1.89167 43.6885 1.925C43.7885 1.99167 43.8801 2.05 43.9635 2.1C44.0635 2.15 44.1551 2.21667 44.2385 2.3C44.3051 2.36667 44.3468 2.425 44.3635 2.475C44.3801 2.54167 44.3968 2.60833 44.4135 2.675C44.4301 2.74167 44.4468 2.81667 44.4635 2.9V3.075C44.4468 3.15833 44.4301 3.25 44.4135 3.35C44.4135 3.43333 44.4051 3.525 44.3885 3.625C44.3551 3.69167 44.3135 3.75 44.2635 3.8L43.8135 4.25C43.6468 4.3 43.4801 4.33333 43.3135 4.35C43.1635 4.36667 43.0051 4.36667 42.8385 4.35H42.6635C42.5801 4.36667 42.4968 4.375 42.4135 4.375C42.3301 4.375 42.2468 4.36667 42.1635 4.35C42.0635 4.33333 41.9635 4.33333 41.8635 4.35C41.7635 4.35 41.6635 4.35 41.5635 4.35C41.4968 4.35 41.4301 4.35833 41.3635 4.375C41.3135 4.375 41.2551 4.36667 41.1885 4.35C41.1051 4.33333 41.0218 4.33333 40.9385 4.35C40.8718 4.35 40.7968 4.35833 40.7135 4.375C40.6468 4.375 40.5718 4.38333 40.4885 4.4C40.4218 4.4 40.3468 4.4 40.2635 4.4C40.0468 4.43333 39.8135 4.45 39.5635 4.45C39.3301 4.45 39.0968 4.46667 38.8635 4.5C38.7135 4.48333 38.5718 4.49167 38.4385 4.525C38.3051 4.54167 38.1635 4.55833 38.0135 4.575C37.8801 4.59167 37.7385 4.6 37.5885 4.6C37.4385 4.6 37.2968 4.61667 37.1635 4.65C36.9968 4.65 36.8301 4.675 36.6635 4.725C36.5135 4.75833 36.3551 4.78333 36.1885 4.8L36.0135 4.825C35.8968 4.825 35.7885 4.84167 35.6885 4.875C35.5885 4.89167 35.4801 4.91667 35.3635 4.95C35.2968 4.96667 35.2301 4.98333 35.1635 5C35.0968 5 35.0218 5.00833 34.9385 5.025C34.8885 5.025 34.8301 5.04167 34.7635 5.075C34.7135 5.09167 34.6885 5.14167 34.6885 5.225L34.7635 5.45C34.7801 5.48333 34.7718 5.56667 34.7385 5.7C34.7218 5.83333 34.7051 5.93333 34.6885 6C34.6885 6.05 34.6968 6.1 34.7135 6.15C34.7301 6.2 34.7468 6.25 34.7635 6.3C34.8135 6.43333 34.8385 6.58333 34.8385 6.75C34.8385 6.9 34.8551 7.04167 34.8885 7.175C34.9051 7.24167 34.9135 7.31667 34.9135 7.4C34.9135 7.46667 34.9218 7.54167 34.9385 7.625C34.9385 7.65833 34.9385 7.7 34.9385 7.75C34.9551 7.78333 34.9635 7.825 34.9635 7.875C34.9635 7.925 34.9551 7.95833 34.9385 7.975C34.8885 8.04167 34.8635 8.11667 34.8635 8.2C34.8635 8.28333 34.8635 8.36667 34.8635 8.45C34.9468 8.61667 34.9885 8.78333 34.9885 8.95C34.9885 9.11667 34.9885 9.28333 34.9885 9.45C34.9885 9.5 35.0301 9.51667 35.1135 9.5H35.1385C35.1718 9.43333 35.2051 9.38333 35.2385 9.35C35.2885 9.35 35.3468 9.33333 35.4135 9.3C35.4635 9.26667 35.5301 9.25 35.6135 9.25C35.7468 9.26667 35.8718 9.26667 35.9885 9.25C36.1051 9.21667 36.2218 9.18333 36.3385 9.15C37.1218 8.95 37.8551 8.69167 38.5385 8.375C38.7218 8.29167 38.9135 8.225 39.1135 8.175C39.3135 8.10833 39.5135 8.06667 39.7135 8.05H39.7885C39.9385 8.03333 40.0885 8.01667 40.2385 8C40.3885 7.98333 40.5385 7.975 40.6885 7.975C40.8885 7.95833 41.0801 7.93333 41.2635 7.9C41.4635 7.86667 41.6635 7.84167 41.8635 7.825C41.9801 7.79167 42.0885 7.76667 42.1885 7.75C42.2885 7.71667 42.3968 7.675 42.5135 7.625C42.7301 7.54167 42.9301 7.5 43.1135 7.5C43.2468 7.51667 43.3718 7.55 43.4885 7.6C43.6051 7.63333 43.7218 7.68333 43.8385 7.75C44.0885 7.91667 44.2135 8.16667 44.2135 8.5C44.2135 8.63333 44.1968 8.76667 44.1635 8.9C44.1468 9.03333 44.1385 9.16667 44.1385 9.3C44.1385 9.33333 44.1218 9.36667 44.0885 9.4L44.0135 9.525C43.9968 9.59167 43.9801 9.65833 43.9635 9.725C43.9468 9.79167 43.9051 9.84167 43.8385 9.875C43.7385 9.95833 43.6301 10.05 43.5135 10.15C43.4135 10.2333 43.2968 10.2917 43.1635 10.325C43.0968 10.3417 43.0301 10.3583 42.9635 10.375C42.9135 10.3917 42.8551 10.4 42.7885 10.4C42.5218 10.4 42.2468 10.4167 41.9635 10.45C41.6968 10.4833 41.4218 10.5167 41.1385 10.55C40.9218 10.5667 40.7051 10.5917 40.4885 10.625C40.2885 10.6583 40.0801 10.675 39.8635 10.675C39.6635 10.675 39.4385 10.7167 39.1885 10.8C39.0218 10.8333 38.8468 10.8667 38.6635 10.9C38.4801 10.9333 38.2968 10.9583 38.1135 10.975C37.9801 10.9917 37.8385 11.0167 37.6885 11.05C37.5551 11.0667 37.4218 11.0833 37.2885 11.1L36.8635 11.175C36.8301 11.1917 36.7801 11.2 36.7135 11.2C36.5968 11.2333 36.4801 11.2583 36.3635 11.275C36.2468 11.2917 36.1301 11.3167 36.0135 11.35C35.8968 11.3667 35.7801 11.3917 35.6635 11.425C35.5635 11.4583 35.4551 11.4917 35.3385 11.525C35.2551 11.5417 35.1885 11.575 35.1385 11.625C35.0885 11.6583 35.0468 11.7083 35.0135 11.775C34.9968 11.825 34.9968 11.875 35.0135 11.925C35.0301 11.9917 35.0218 12.0583 34.9885 12.125C35.0051 12.2917 35.0135 12.4583 35.0135 12.625C35.0301 12.7917 35.0301 12.9583 35.0135 13.125C35.0468 13.2583 35.0551 13.3917 35.0385 13.525C35.0385 13.6583 35.0301 13.7917 35.0135 13.925C34.9801 14.125 34.9885 14.2917 35.0385 14.425C35.0885 14.6417 35.0718 14.8667 34.9885 15.1C34.9551 15.2 34.9551 15.2667 34.9885 15.3C35.0218 15.35 35.0218 15.4083 34.9885 15.475V15.625C34.9718 15.7583 35.0301 15.825 35.1635 15.825H35.2135C35.3301 15.825 35.4468 15.8667 35.5635 15.95C35.6468 16.0333 35.7468 16.0583 35.8635 16.025L36.5635 15.95C36.6635 15.9333 36.7635 15.925 36.8635 15.925C36.9635 15.9083 37.0635 15.9 37.1635 15.9C37.1968 15.8833 37.2468 15.8917 37.3135 15.925C37.3968 15.975 37.4718 15.9833 37.5385 15.95C37.5718 15.9167 37.6135 15.8917 37.6635 15.875C37.7301 15.8583 37.7801 15.8333 37.8135 15.8C37.9135 15.7 38.0385 15.6667 38.1885 15.7C38.3218 15.7333 38.4301 15.725 38.5135 15.675C38.6635 15.625 38.8051 15.6083 38.9385 15.625C39.0218 15.6417 39.1051 15.6333 39.1885 15.6C39.2718 15.5667 39.3551 15.55 39.4385 15.55C39.4718 15.55 39.4968 15.5583 39.5135 15.575C39.5301 15.575 39.5468 15.5667 39.5635 15.55C39.5968 15.55 39.6301 15.5417 39.6635 15.525C39.6968 15.5083 39.7218 15.5 39.7385 15.5C39.8551 15.45 39.9635 15.4333 40.0635 15.45C40.1468 15.45 40.1885 15.45 40.1885 15.45C40.2551 15.4333 40.3135 15.4333 40.3635 15.45C40.4301 15.4667 40.4885 15.4917 40.5385 15.525C40.6218 15.5417 40.6885 15.5667 40.7385 15.6C40.8051 15.6333 40.8718 15.6583 40.9385 15.675C40.9718 15.675 40.9968 15.6833 41.0135 15.7C41.0968 15.7667 41.1968 15.825 41.3135 15.875C41.4468 15.925 41.5218 15.9833 41.5385 16.05C41.5718 16.15 41.5885 16.25 41.5885 16.35C41.5885 16.4333 41.5968 16.525 41.6135 16.625C41.6135 16.675 41.6051 16.725 41.5885 16.775C41.5885 16.825 41.5801 16.875 41.5635 16.925C41.5301 16.9917 41.4885 17.0667 41.4385 17.15C41.4051 17.2333 41.3551 17.3083 41.2885 17.375C41.2551 17.4083 41.2218 17.4417 41.1885 17.475C41.1718 17.5083 41.1468 17.5417 41.1135 17.575C41.0468 17.6417 40.9718 17.7 40.8885 17.75C40.8051 17.8 40.7135 17.825 40.6135 17.825C40.5468 17.825 40.4968 17.8333 40.4635 17.85C40.3968 17.8833 40.3301 17.9 40.2635 17.9C40.1968 17.9 40.1218 17.9 40.0385 17.9C39.9218 17.9167 39.8051 17.9333 39.6885 17.95C39.5885 17.95 39.4801 17.9417 39.3635 17.925C39.2968 17.9083 39.2385 17.9083 39.1885 17.925C39.0218 17.975 38.8551 17.9833 38.6885 17.95C38.5218 17.95 38.3551 17.9583 38.1885 17.975C38.0385 17.975 37.8885 17.975 37.7385 17.975H37.4135C37.3635 17.975 37.3218 17.9833 37.2885 18C37.2218 18.0333 37.1385 18.05 37.0385 18.05C36.9551 18.05 36.8718 18.0417 36.7885 18.025H36.5385C36.5218 18.025 36.4968 18.025 36.4635 18.025C36.4301 18.0417 36.3968 18.0417 36.3635 18.025C36.3135 18.0083 36.2635 18 36.2135 18C36.1801 18.0167 36.1385 18.0333 36.0885 18.05C36.0551 18.05 36.0218 18.05 35.9885 18.05C35.9718 18.0667 35.9468 18.075 35.9135 18.075C35.7468 18.0583 35.5885 18.0583 35.4385 18.075C35.2885 18.1083 35.1301 18.1417 34.9635 18.175ZM49.6852 18.175C49.5852 18.175 49.5185 18.1667 49.4852 18.15C49.4018 18.1167 49.3185 18.1 49.2352 18.1C49.1685 18.1167 49.0935 18.125 49.0102 18.125C48.9935 18.125 48.9768 18.125 48.9602 18.125C48.9435 18.1417 48.9268 18.15 48.9102 18.15C48.7935 18.1667 48.6768 18.175 48.5602 18.175C48.4602 18.175 48.3602 18.1583 48.2602 18.125C48.2435 18.1083 48.2268 18.1 48.2102 18.1C48.0935 18.1167 47.9935 18.0833 47.9102 18C47.8268 17.9167 47.7435 17.8417 47.6602 17.775C47.5768 17.6917 47.5352 17.6 47.5352 17.5L47.4602 17.3C47.4102 17.1833 47.3935 17.075 47.4102 16.975C47.4268 16.9417 47.4268 16.9083 47.4102 16.875C47.4102 16.8417 47.4102 16.8083 47.4102 16.775C47.3935 16.7417 47.3852 16.7083 47.3852 16.675C47.3852 16.625 47.3768 16.5833 47.3602 16.55C47.3268 16.4 47.3018 16.25 47.2852 16.1C47.2852 15.9333 47.2935 15.775 47.3102 15.625C47.3268 15.525 47.3852 15.3583 47.4852 15.125C47.5852 14.875 47.6435 14.725 47.6602 14.675C47.7102 14.5917 47.7352 14.525 47.7352 14.475C47.7185 14.2917 47.7102 14.1083 47.7102 13.925C47.7268 13.725 47.7352 13.5333 47.7352 13.35C47.7352 13.2333 47.7602 13.1417 47.8102 13.075C47.8768 12.9583 47.8852 12.8333 47.8352 12.7L47.7602 12.425C47.6602 12.2417 47.6685 12.0833 47.7852 11.95C47.7852 11.9333 47.7852 11.925 47.7852 11.925C47.8018 11.9083 47.8102 11.8917 47.8102 11.875C47.8435 11.8417 47.8518 11.8 47.8352 11.75C47.8185 11.6833 47.8102 11.6333 47.8102 11.6C47.8102 11.5333 47.8185 11.4667 47.8352 11.4C47.8685 11.3167 47.8768 11.2417 47.8602 11.175C47.8602 11.175 47.8435 11.1583 47.8102 11.125C47.7935 11.0917 47.7852 11.025 47.7852 10.925C47.8018 10.825 47.8102 10.7667 47.8102 10.75V10.05C47.8268 9.96667 47.8352 9.89167 47.8352 9.825C47.8352 9.74167 47.8435 9.65833 47.8602 9.575C47.8768 9.475 47.8768 9.375 47.8602 9.275C47.8602 9.15833 47.8602 9.04167 47.8602 8.925C47.8435 8.84167 47.8268 8.75 47.8102 8.65C47.8102 8.55 47.8102 8.45 47.8102 8.35C47.7935 8.31667 47.7852 8.275 47.7852 8.225C47.7852 8.175 47.7852 8.13333 47.7852 8.1C47.7685 8.01667 47.7518 7.93333 47.7352 7.85C47.7352 7.76667 47.7352 7.68333 47.7352 7.6C47.7352 7.56667 47.7018 7.45833 47.6352 7.275C47.5685 7.075 47.5435 6.90833 47.5602 6.775C47.5768 6.74167 47.5852 6.7 47.5852 6.65C47.5852 6.6 47.5685 6.55833 47.5352 6.525C47.5018 6.50833 47.4852 6.475 47.4852 6.425V6.35C47.5352 6.15 47.5102 5.95 47.4102 5.75C47.3435 5.65 47.3185 5.55 47.3352 5.45C47.3352 5.31667 47.2768 5.21667 47.1602 5.15C47.0768 5.06667 47.0018 4.96667 46.9352 4.85C46.8685 4.73333 46.8268 4.61667 46.8102 4.5C46.7935 4.41667 46.7852 4.33333 46.7852 4.25C46.7852 4.16667 46.7852 4.09167 46.7852 4.025C46.7852 3.95833 46.7935 3.91667 46.8102 3.9C46.8768 3.83333 46.9102 3.75833 46.9102 3.675C46.9102 3.575 46.9185 3.5 46.9352 3.45C46.9518 3.43333 46.9685 3.425 46.9852 3.425C47.0018 3.425 47.0185 3.41667 47.0352 3.4C47.1018 3.38333 47.1352 3.325 47.1352 3.225C47.1018 3.15833 47.0852 3.1 47.0852 3.05C47.0685 2.98333 47.0935 2.925 47.1602 2.875C47.1935 2.80833 47.2352 2.79167 47.2852 2.825C47.4018 2.875 47.5352 2.85833 47.6852 2.775C47.7518 2.74167 47.7935 2.725 47.8102 2.725C47.8602 2.725 47.8852 2.725 47.8852 2.725C47.9018 2.70833 47.9518 2.7 48.0352 2.7C48.1352 2.71667 48.2268 2.68333 48.3102 2.6C48.4268 2.48333 48.5685 2.425 48.7352 2.425H50.2852C50.6685 2.44167 51.0518 2.44167 51.4352 2.425C51.8185 2.40833 52.1935 2.4 52.5602 2.4C52.6435 2.4 52.7102 2.4 52.7602 2.4C52.8268 2.38333 52.8935 2.36667 52.9602 2.35C53.0602 2.3 53.1768 2.275 53.3102 2.275H53.8852C54.0185 2.275 54.1352 2.275 54.2352 2.275C54.3518 2.25833 54.4685 2.24167 54.5852 2.225C54.6518 2.20833 54.7102 2.2 54.7602 2.2C54.8268 2.2 54.8935 2.2 54.9602 2.2C55.0268 2.2 55.0935 2.2 55.1602 2.2C55.2268 2.2 55.2935 2.19167 55.3602 2.175C55.4935 2.15833 55.6352 2.15 55.7852 2.15C55.9352 2.13333 56.0768 2.125 56.2102 2.125C56.2768 2.125 56.3352 2.125 56.3852 2.125C56.4518 2.10833 56.5185 2.09167 56.5852 2.075C56.7185 2.04167 56.8435 2.025 56.9602 2.025C57.0935 2.00833 57.2185 1.99167 57.3352 1.975C57.4685 1.95833 57.5935 1.94167 57.7102 1.925C57.8435 1.90833 57.9685 1.89167 58.0852 1.875C58.2352 1.875 58.3435 1.89167 58.4102 1.925C58.5102 1.99167 58.6018 2.05 58.6852 2.1C58.7852 2.15 58.8768 2.21667 58.9602 2.3C59.0268 2.36667 59.0685 2.425 59.0852 2.475C59.1018 2.54167 59.1185 2.60833 59.1352 2.675C59.1518 2.74167 59.1685 2.81667 59.1852 2.9V3.075C59.1685 3.15833 59.1518 3.25 59.1352 3.35C59.1352 3.43333 59.1268 3.525 59.1102 3.625C59.0768 3.69167 59.0352 3.75 58.9852 3.8L58.5352 4.25C58.3685 4.3 58.2018 4.33333 58.0352 4.35C57.8852 4.36667 57.7268 4.36667 57.5602 4.35H57.3852C57.3018 4.36667 57.2185 4.375 57.1352 4.375C57.0518 4.375 56.9685 4.36667 56.8852 4.35C56.7852 4.33333 56.6852 4.33333 56.5852 4.35C56.4852 4.35 56.3852 4.35 56.2852 4.35C56.2185 4.35 56.1518 4.35833 56.0852 4.375C56.0352 4.375 55.9768 4.36667 55.9102 4.35C55.8268 4.33333 55.7435 4.33333 55.6602 4.35C55.5935 4.35 55.5185 4.35833 55.4352 4.375C55.3685 4.375 55.2935 4.38333 55.2102 4.4C55.1435 4.4 55.0685 4.4 54.9852 4.4C54.7685 4.43333 54.5352 4.45 54.2852 4.45C54.0518 4.45 53.8185 4.46667 53.5852 4.5C53.4352 4.48333 53.2935 4.49167 53.1602 4.525C53.0268 4.54167 52.8852 4.55833 52.7352 4.575C52.6018 4.59167 52.4602 4.6 52.3102 4.6C52.1602 4.6 52.0185 4.61667 51.8852 4.65C51.7185 4.65 51.5518 4.675 51.3852 4.725C51.2352 4.75833 51.0768 4.78333 50.9102 4.8L50.7352 4.825C50.6185 4.825 50.5102 4.84167 50.4102 4.875C50.3102 4.89167 50.2018 4.91667 50.0852 4.95C50.0185 4.96667 49.9518 4.98333 49.8852 5C49.8185 5 49.7435 5.00833 49.6602 5.025C49.6102 5.025 49.5518 5.04167 49.4852 5.075C49.4352 5.09167 49.4102 5.14167 49.4102 5.225L49.4852 5.45C49.5018 5.48333 49.4935 5.56667 49.4602 5.7C49.4435 5.83333 49.4268 5.93333 49.4102 6C49.4102 6.05 49.4185 6.1 49.4352 6.15C49.4518 6.2 49.4685 6.25 49.4852 6.3C49.5352 6.43333 49.5602 6.58333 49.5602 6.75C49.5602 6.9 49.5768 7.04167 49.6102 7.175C49.6268 7.24167 49.6352 7.31667 49.6352 7.4C49.6352 7.46667 49.6435 7.54167 49.6602 7.625C49.6602 7.65833 49.6602 7.7 49.6602 7.75C49.6768 7.78333 49.6852 7.825 49.6852 7.875C49.6852 7.925 49.6768 7.95833 49.6602 7.975C49.6102 8.04167 49.5852 8.11667 49.5852 8.2C49.5852 8.28333 49.5852 8.36667 49.5852 8.45C49.6685 8.61667 49.7102 8.78333 49.7102 8.95C49.7102 9.11667 49.7102 9.28333 49.7102 9.45C49.7102 9.5 49.7518 9.51667 49.8352 9.5H49.8602C49.8935 9.43333 49.9268 9.38333 49.9602 9.35C50.0102 9.35 50.0685 9.33333 50.1352 9.3C50.1852 9.26667 50.2518 9.25 50.3352 9.25C50.4685 9.26667 50.5935 9.26667 50.7102 9.25C50.8268 9.21667 50.9435 9.18333 51.0602 9.15C51.8435 8.95 52.5768 8.69167 53.2602 8.375C53.4435 8.29167 53.6352 8.225 53.8352 8.175C54.0352 8.10833 54.2352 8.06667 54.4352 8.05H54.5102C54.6602 8.03333 54.8102 8.01667 54.9602 8C55.1102 7.98333 55.2602 7.975 55.4102 7.975C55.6102 7.95833 55.8018 7.93333 55.9852 7.9C56.1852 7.86667 56.3852 7.84167 56.5852 7.825C56.7018 7.79167 56.8102 7.76667 56.9102 7.75C57.0102 7.71667 57.1185 7.675 57.2352 7.625C57.4518 7.54167 57.6518 7.5 57.8352 7.5C57.9685 7.51667 58.0935 7.55 58.2102 7.6C58.3268 7.63333 58.4435 7.68333 58.5602 7.75C58.8102 7.91667 58.9352 8.16667 58.9352 8.5C58.9352 8.63333 58.9185 8.76667 58.8852 8.9C58.8685 9.03333 58.8602 9.16667 58.8602 9.3C58.8602 9.33333 58.8435 9.36667 58.8102 9.4L58.7352 9.525C58.7185 9.59167 58.7018 9.65833 58.6852 9.725C58.6685 9.79167 58.6268 9.84167 58.5602 9.875C58.4602 9.95833 58.3518 10.05 58.2352 10.15C58.1352 10.2333 58.0185 10.2917 57.8852 10.325C57.8185 10.3417 57.7518 10.3583 57.6852 10.375C57.6352 10.3917 57.5768 10.4 57.5102 10.4C57.2435 10.4 56.9685 10.4167 56.6852 10.45C56.4185 10.4833 56.1435 10.5167 55.8602 10.55C55.6435 10.5667 55.4268 10.5917 55.2102 10.625C55.0102 10.6583 54.8018 10.675 54.5852 10.675C54.3852 10.675 54.1602 10.7167 53.9102 10.8C53.7435 10.8333 53.5685 10.8667 53.3852 10.9C53.2018 10.9333 53.0185 10.9583 52.8352 10.975C52.7018 10.9917 52.5602 11.0167 52.4102 11.05C52.2768 11.0667 52.1435 11.0833 52.0102 11.1L51.5852 11.175C51.5518 11.1917 51.5018 11.2 51.4352 11.2C51.3185 11.2333 51.2018 11.2583 51.0852 11.275C50.9685 11.2917 50.8518 11.3167 50.7352 11.35C50.6185 11.3667 50.5018 11.3917 50.3852 11.425C50.2852 11.4583 50.1768 11.4917 50.0602 11.525C49.9768 11.5417 49.9102 11.575 49.8602 11.625C49.8102 11.6583 49.7685 11.7083 49.7352 11.775C49.7185 11.825 49.7185 11.875 49.7352 11.925C49.7518 11.9917 49.7435 12.0583 49.7102 12.125C49.7268 12.2917 49.7352 12.4583 49.7352 12.625C49.7518 12.7917 49.7518 12.9583 49.7352 13.125C49.7685 13.2583 49.7768 13.3917 49.7602 13.525C49.7602 13.6583 49.7518 13.7917 49.7352 13.925C49.7018 14.125 49.7102 14.2917 49.7602 14.425C49.8102 14.6417 49.7935 14.8667 49.7102 15.1C49.6768 15.2 49.6768 15.2667 49.7102 15.3C49.7435 15.35 49.7435 15.4083 49.7102 15.475V15.625C49.6935 15.7583 49.7518 15.825 49.8852 15.825H49.9352C50.0518 15.825 50.1685 15.8667 50.2852 15.95C50.3685 16.0333 50.4685 16.0583 50.5852 16.025L51.2852 15.95C51.3852 15.9333 51.4852 15.925 51.5852 15.925C51.6852 15.9083 51.7852 15.9 51.8852 15.9C51.9185 15.8833 51.9685 15.8917 52.0352 15.925C52.1185 15.975 52.1935 15.9833 52.2602 15.95C52.2935 15.9167 52.3352 15.8917 52.3852 15.875C52.4518 15.8583 52.5018 15.8333 52.5352 15.8C52.6352 15.7 52.7602 15.6667 52.9102 15.7C53.0435 15.7333 53.1518 15.725 53.2352 15.675C53.3852 15.625 53.5268 15.6083 53.6602 15.625C53.7435 15.6417 53.8268 15.6333 53.9102 15.6C53.9935 15.5667 54.0768 15.55 54.1602 15.55C54.1935 15.55 54.2185 15.5583 54.2352 15.575C54.2518 15.575 54.2685 15.5667 54.2852 15.55C54.3185 15.55 54.3518 15.5417 54.3852 15.525C54.4185 15.5083 54.4435 15.5 54.4602 15.5C54.5768 15.45 54.6852 15.4333 54.7852 15.45C54.8685 15.45 54.9102 15.45 54.9102 15.45C54.9768 15.4333 55.0352 15.4333 55.0852 15.45C55.1518 15.4667 55.2102 15.4917 55.2602 15.525C55.3435 15.5417 55.4102 15.5667 55.4602 15.6C55.5268 15.6333 55.5935 15.6583 55.6602 15.675C55.6935 15.675 55.7185 15.6833 55.7352 15.7C55.8185 15.7667 55.9185 15.825 56.0352 15.875C56.1685 15.925 56.2435 15.9833 56.2602 16.05C56.2935 16.15 56.3102 16.25 56.3102 16.35C56.3102 16.4333 56.3185 16.525 56.3352 16.625C56.3352 16.675 56.3268 16.725 56.3102 16.775C56.3102 16.825 56.3018 16.875 56.2852 16.925C56.2518 16.9917 56.2102 17.0667 56.1602 17.15C56.1268 17.2333 56.0768 17.3083 56.0102 17.375C55.9768 17.4083 55.9435 17.4417 55.9102 17.475C55.8935 17.5083 55.8685 17.5417 55.8352 17.575C55.7685 17.6417 55.6935 17.7 55.6102 17.75C55.5268 17.8 55.4352 17.825 55.3352 17.825C55.2685 17.825 55.2185 17.8333 55.1852 17.85C55.1185 17.8833 55.0518 17.9 54.9852 17.9C54.9185 17.9 54.8435 17.9 54.7602 17.9C54.6435 17.9167 54.5268 17.9333 54.4102 17.95C54.3102 17.95 54.2018 17.9417 54.0852 17.925C54.0185 17.9083 53.9602 17.9083 53.9102 17.925C53.7435 17.975 53.5768 17.9833 53.4102 17.95C53.2435 17.95 53.0768 17.9583 52.9102 17.975C52.7602 17.975 52.6102 17.975 52.4602 17.975H52.1352C52.0852 17.975 52.0435 17.9833 52.0102 18C51.9435 18.0333 51.8602 18.05 51.7602 18.05C51.6768 18.05 51.5935 18.0417 51.5102 18.025H51.2602C51.2435 18.025 51.2185 18.025 51.1852 18.025C51.1518 18.0417 51.1185 18.0417 51.0852 18.025C51.0352 18.0083 50.9852 18 50.9352 18C50.9018 18.0167 50.8602 18.0333 50.8102 18.05C50.7768 18.05 50.7435 18.05 50.7102 18.05C50.6935 18.0667 50.6685 18.075 50.6352 18.075C50.4685 18.0583 50.3102 18.0583 50.1602 18.075C50.0102 18.1083 49.8518 18.1417 49.6852 18.175ZM70.3563 18.225C70.3063 18.2083 70.2479 18.1917 70.1813 18.175C70.1313 18.1583 70.0813 18.1417 70.0313 18.125C69.8979 18.075 69.7646 18.0083 69.6313 17.925C69.5646 17.8917 69.5146 17.8417 69.4813 17.775C69.3646 17.5917 69.2563 17.425 69.1563 17.275C69.0563 17.1083 68.9479 16.9417 68.8313 16.775L68.6063 16.375C68.4896 16.1417 68.3729 15.9167 68.2563 15.7C68.1396 15.4667 68.0229 15.2417 67.9063 15.025C67.8729 14.9417 67.8313 14.875 67.7813 14.825C67.7479 14.7583 67.7146 14.6917 67.6813 14.625C67.5646 14.4417 67.4563 14.2583 67.3563 14.075C67.2563 13.875 67.1563 13.6833 67.0563 13.5L66.4313 12.275C66.2646 11.9417 66.0979 11.6167 65.9313 11.3C65.7646 10.9667 65.5979 10.6333 65.4313 10.3C65.3979 10.2667 65.3646 10.2167 65.3313 10.15C65.2646 9.96667 65.1813 9.79167 65.0813 9.625C64.9979 9.45833 64.9146 9.29167 64.8313 9.125C64.7646 9.00833 64.7063 8.89167 64.6563 8.775C64.6063 8.64167 64.5479 8.51667 64.4813 8.4L64.2062 7.9C64.1729 7.9 64.1479 7.89167 64.1313 7.875C64.1313 7.875 64.1229 7.88333 64.1063 7.9C64.1063 7.9 64.1063 7.90833 64.1063 7.925C64.0896 8.14167 64.0729 8.36667 64.0563 8.6C64.0396 8.83333 64.0396 9.06667 64.0563 9.3C64.0896 9.4 64.0896 9.50833 64.0563 9.625C64.0229 9.925 64.0313 10.1917 64.0813 10.425C64.0979 10.4917 64.0979 10.5583 64.0813 10.625C64.0813 10.6917 64.0729 10.7667 64.0563 10.85C64.0396 10.9667 64.0313 11.075 64.0313 11.175C64.0313 11.275 64.0229 11.3833 64.0063 11.5C64.0396 11.5667 64.0563 11.6417 64.0563 11.725C64.0563 11.7917 64.0479 11.8583 64.0313 11.925C63.9813 12.0917 63.9813 12.2667 64.0313 12.45C64.0646 12.5 64.0646 12.55 64.0313 12.6C63.9646 12.75 63.9479 12.9333 63.9813 13.15C64.0313 13.4333 64.0146 13.7417 63.9313 14.075C63.9146 14.1083 63.9063 14.1667 63.9063 14.25C63.8896 14.3167 63.9063 14.375 63.9563 14.425C64.0229 14.4583 64.0396 14.5 64.0063 14.55C63.9896 14.7667 63.9896 14.9917 64.0063 15.225C64.0063 15.225 64.0063 15.2333 64.0063 15.25C64.0063 15.25 63.9979 15.25 63.9813 15.25C63.9646 15.25 63.9563 15.2417 63.9563 15.225C63.9396 15.2083 63.9313 15.1917 63.9313 15.175C63.8979 15.1417 63.8813 15.15 63.8813 15.2C63.8813 15.2833 63.8896 15.3333 63.9063 15.35C63.9396 15.4333 63.9563 15.5167 63.9563 15.6C63.9563 15.6833 63.9563 15.7667 63.9563 15.85V16.625C63.9563 16.675 63.9479 16.725 63.9313 16.775C63.9313 16.825 63.9063 16.8667 63.8563 16.9C63.7896 16.9167 63.7563 16.975 63.7563 17.075C63.7396 17.2583 63.6729 17.4167 63.5563 17.55C63.4563 17.6833 63.3396 17.8 63.2063 17.9C63.1396 17.95 63.0563 17.9833 62.9563 18C62.8729 18 62.7896 17.9917 62.7063 17.975L62.2563 17.825C62.2229 17.825 62.1896 17.8 62.1563 17.75C62.1063 17.7 62.0563 17.65 62.0063 17.6C61.9563 17.5333 61.8979 17.475 61.8313 17.425C61.7479 17.375 61.6896 17.2833 61.6563 17.15C61.6396 17.0667 61.6146 16.975 61.5813 16.875C61.5479 16.775 61.5313 16.675 61.5313 16.575C61.5313 16.4583 61.5313 16.35 61.5313 16.25C61.5479 16.15 61.5563 16.0417 61.5563 15.925C61.5729 15.8417 61.5813 15.7667 61.5813 15.7C61.5813 15.6167 61.5896 15.5333 61.6063 15.45V6.3C61.6063 6.21667 61.6063 6.13333 61.6063 6.05C61.6229 5.96667 61.6396 5.89167 61.6563 5.825C61.6563 5.74167 61.6563 5.65833 61.6563 5.575C61.6729 5.49167 61.6813 5.40833 61.6813 5.325C61.6813 5.225 61.6813 5.125 61.6813 5.025C61.6979 4.925 61.7146 4.83333 61.7313 4.75C61.7479 4.68333 61.7563 4.625 61.7563 4.575C61.7563 4.525 61.7563 4.46667 61.7563 4.4V3.625C61.7563 3.50833 61.7646 3.40833 61.7813 3.325C61.8146 3.225 61.8396 3.125 61.8563 3.025L61.9313 2.9C61.9813 2.85 62.0229 2.775 62.0563 2.675C62.0896 2.575 62.1396 2.525 62.2063 2.525C62.2563 2.49167 62.3063 2.46667 62.3563 2.45C62.4063 2.41667 62.4396 2.36667 62.4563 2.3L62.4813 2.275C62.4979 2.275 62.5146 2.275 62.5313 2.275C62.5479 2.25833 62.5646 2.25 62.5813 2.25C62.6479 2.25 62.6979 2.23333 62.7313 2.2C62.7813 2.16667 62.8396 2.15833 62.9063 2.175C62.9729 2.19167 63.0396 2.2 63.1063 2.2C63.1729 2.2 63.2396 2.20833 63.3063 2.225C63.6729 2.29167 63.9313 2.50833 64.0813 2.875L64.2313 3.375C64.2479 3.54167 64.3229 3.7 64.4563 3.85C64.5563 3.96667 64.6563 4.09167 64.7563 4.225C64.8563 4.35833 64.9646 4.49167 65.0813 4.625C65.5146 5.175 65.9146 5.79167 66.2813 6.475C66.3146 6.54167 66.3479 6.60833 66.3813 6.675C66.4146 6.74167 66.4479 6.80833 66.4813 6.875L67.7813 9.5C67.8813 9.68333 67.9729 9.875 68.0563 10.075C68.1563 10.2583 68.2646 10.4417 68.3813 10.625C68.4146 10.6917 68.4479 10.7583 68.4813 10.825C68.5146 10.875 68.5396 10.9333 68.5563 11C68.6396 11.2 68.7396 11.4 68.8563 11.6C68.8563 11.6 68.8563 11.6083 68.8563 11.625C68.8729 11.625 68.8813 11.6167 68.8813 11.6C68.8979 11.6 68.9063 11.6 68.9063 11.6C68.9229 11.5833 68.9313 11.575 68.9313 11.575L69.0063 10.7V10.45C69.0229 10.3667 69.0313 10.2833 69.0313 10.2C69.0479 10.1 69.0646 10.0083 69.0813 9.925C69.0979 9.875 69.0979 9.81667 69.0813 9.75C69.0813 9.68333 69.0896 9.61667 69.1063 9.55C69.1063 9.45 69.1063 9.35 69.1063 9.25C69.1229 9.13333 69.1396 9.025 69.1563 8.925C69.1729 8.875 69.1813 8.825 69.1813 8.775C69.1813 8.70833 69.1813 8.65 69.1813 8.6V7.925H69.1563V7.25C69.1563 7.16667 69.1563 7.08333 69.1563 7C69.1563 6.91667 69.1396 6.83333 69.1063 6.75C69.0896 6.7 69.0813 6.625 69.0813 6.525L69.1063 6.35C69.1063 6.3 69.0979 6.25833 69.0813 6.225C69.0813 6.175 69.0813 6.125 69.0813 6.075C69.0979 6.00833 69.0896 5.94167 69.0563 5.875C69.0229 5.80833 69.0063 5.74167 69.0063 5.675C69.0229 5.60833 69.0313 5.54167 69.0313 5.475C69.0313 5.40833 69.0313 5.34167 69.0313 5.275C69.0313 5.20833 68.9979 5.175 68.9313 5.175C68.9146 5.175 68.9063 5.15833 68.9063 5.125C68.8896 5.075 68.8896 5.03333 68.9063 5C68.9396 4.91667 68.9563 4.825 68.9563 4.725C68.9563 4.625 68.9563 4.525 68.9563 4.425V3.7C68.9396 3.6 68.9479 3.5 68.9813 3.4C69.0146 3.3 69.0563 3.20833 69.1063 3.125L69.2063 2.975C69.2896 2.89167 69.3813 2.80833 69.4813 2.725C69.5813 2.64167 69.6813 2.55833 69.7813 2.475C69.7813 2.475 69.8146 2.45833 69.8813 2.425C69.9646 2.40833 70.0396 2.39167 70.1063 2.375C70.1896 2.35833 70.2729 2.35833 70.3563 2.375C70.4229 2.375 70.4729 2.38333 70.5063 2.4C70.5729 2.43333 70.6396 2.475 70.7063 2.525C70.7729 2.55833 70.8396 2.6 70.9063 2.65C70.9396 2.66667 70.9563 2.68333 70.9563 2.7C70.9729 2.71667 70.9896 2.73333 71.0063 2.75C71.0396 2.78333 71.0646 2.825 71.0813 2.875C71.1146 2.90833 71.1396 2.94167 71.1563 2.975C71.2396 3.04167 71.2896 3.125 71.3063 3.225C71.3396 3.30833 71.3646 3.39167 71.3813 3.475V4.525C71.3813 4.64167 71.3813 4.75833 71.3813 4.875C71.3979 4.975 71.4146 5.08333 71.4313 5.2C71.4479 5.26667 71.4563 5.33333 71.4563 5.4C71.4563 5.45 71.4563 5.50833 71.4563 5.575C71.4563 5.70833 71.4563 5.85 71.4563 6C71.4729 6.13333 71.4813 6.26667 71.4813 6.4V6.575C71.4813 6.69167 71.4729 6.80833 71.4563 6.925C71.4563 7.025 71.4563 7.13333 71.4563 7.25V8.35C71.4563 8.51667 71.4479 8.69167 71.4313 8.875C71.4313 9.04167 71.4396 9.21667 71.4563 9.4C71.4563 9.46667 71.4479 9.51667 71.4313 9.55C71.4146 9.71667 71.4063 9.88333 71.4063 10.05C71.4063 10.2 71.3979 10.3583 71.3813 10.525C71.3813 10.5917 71.3813 10.6667 71.3813 10.75C71.3813 10.8333 71.3729 10.9167 71.3563 11C71.3396 11.0667 71.3313 11.1333 71.3313 11.2C71.3479 11.2667 71.3563 11.3333 71.3563 11.4C71.3896 11.55 71.3979 11.7 71.3813 11.85C71.3813 12 71.3729 12.15 71.3563 12.3C71.3396 12.5667 71.3229 12.8417 71.3063 13.125C71.3063 13.3917 71.3229 13.6667 71.3563 13.95C71.3563 14.0167 71.3563 14.0917 71.3563 14.175C71.3729 14.2583 71.3813 14.3417 71.3813 14.425C71.3646 14.675 71.3729 14.9167 71.4063 15.15C71.4563 15.3833 71.5063 15.6167 71.5563 15.85C71.5896 16.0167 71.6229 16.1833 71.6563 16.35C71.6896 16.5 71.7146 16.6667 71.7313 16.85C71.7313 16.9167 71.7229 16.9583 71.7063 16.975C71.6896 17.0083 71.6729 17.05 71.6563 17.1C71.6396 17.1333 71.6313 17.1667 71.6313 17.2C71.6146 17.3333 71.5646 17.4583 71.4813 17.575C71.4146 17.6917 71.3396 17.8083 71.2563 17.925C71.0396 18.2083 70.7396 18.3083 70.3563 18.225Z" fill="#353535"/>
</svg>
