<svg width="158" height="24" viewBox="0 0 158 24" fill="none" xmlns="http://www.w3.org/2000/svg">
<path d="M2.60504 21.6C2.22504 21.64 1.91504 21.52 1.67504 21.24C1.55504 21.12 1.44504 20.99 1.34504 20.85C1.24504 20.71 1.16504 20.56 1.10504 20.4C1.00504 20.12 0.915039 19.84 0.835039 19.56C0.755039 19.26 0.685039 18.97 0.625039 18.69C0.565039 18.47 0.535039 18.26 0.535039 18.06C0.515039 17.84 0.485039 17.63 0.445039 17.43C0.425039 17.21 0.415039 16.99 0.415039 16.77C0.415039 16.65 0.415039 16.53 0.415039 16.41C0.415039 16.27 0.405039 16.14 0.385039 16.02C0.365039 15.94 0.355039 15.87 0.355039 15.81C0.355039 15.75 0.355039 15.68 0.355039 15.6C0.355039 15.32 0.355039 15.04 0.355039 14.76C0.355039 14.46 0.345039 14.17 0.325039 13.89C0.325039 13.73 0.315039 13.59 0.295039 13.47C0.275039 13.33 0.235039 13.19 0.175039 13.05C0.0950391 12.83 0.0850391 12.59 0.145039 12.33C0.145039 12.27 0.155039 12.23 0.175039 12.21C0.215039 12.07 0.235039 11.93 0.235039 11.79C0.255039 11.65 0.255039 11.51 0.235039 11.37C0.215039 11.27 0.205039 11.17 0.205039 11.07C0.205039 10.97 0.205039 10.88 0.205039 10.8C0.185039 10.58 0.175039 10.36 0.175039 10.14C0.195039 9.9 0.215039 9.67 0.235039 9.45C0.255039 9.39 0.265039 9.33 0.265039 9.27C0.265039 9.21 0.265039 9.15 0.265039 9.09C0.245039 8.87 0.245039 8.66 0.265039 8.46C0.305039 8.26 0.335039 8.06 0.355039 7.86C0.395039 7.62 0.435039 7.39 0.475039 7.17C0.515039 6.93 0.565039 6.69 0.625039 6.45C0.665039 6.35 0.685039 6.24 0.685039 6.12C0.685039 6 0.685039 5.88 0.685039 5.76C0.685039 5.66 0.675039 5.56 0.655039 5.46C0.655039 5.36 0.655039 5.27 0.655039 5.19C0.655039 5.13 0.655039 5.07 0.655039 5.01C0.655039 4.95 0.665039 4.89 0.685039 4.83C0.705039 4.77 0.715039 4.71 0.715039 4.65C0.715039 4.59 0.725039 4.55 0.745039 4.53C0.805039 4.45 0.855039 4.38 0.895039 4.32C0.935039 4.24 0.995039 4.17 1.07504 4.11C1.17504 4.05 1.26504 3.99 1.34504 3.93C1.44504 3.87 1.53504 3.82 1.61504 3.78C1.71504 3.74 1.79504 3.69 1.85504 3.63C1.93504 3.53 2.01504 3.44 2.09504 3.36C2.19504 3.26 2.27504 3.15 2.33504 3.03C2.43504 2.93 2.53504 2.82 2.63504 2.7C2.75504 2.56 2.88504 2.45 3.02504 2.37C3.06504 2.35 3.12504 2.3 3.20504 2.22C3.44504 2 3.72504 1.86 4.04504 1.8C4.10504 1.78 4.15504 1.77 4.19504 1.77C4.25504 1.75 4.31504 1.74 4.37504 1.74L4.58504 1.65C4.74504 1.59 4.88504 1.62 5.00504 1.74C5.04504 1.8 5.09504 1.86 5.15504 1.92C5.23504 1.96 5.30504 2 5.36504 2.04C5.52504 2.18 5.67504 2.33 5.81504 2.49C5.97504 2.65 6.11504 2.83 6.23504 3.03C6.43504 3.35 6.60504 3.67 6.74504 3.99C6.90504 4.31 7.05504 4.64 7.19504 4.98L7.73504 6.27C7.75504 6.39 7.80504 6.5 7.88504 6.6C8.04504 6.9 8.16504 7.21 8.24504 7.53C8.32504 7.83 8.40504 8.14 8.48504 8.46C8.50504 8.5 8.51504 8.54 8.51504 8.58C8.53504 8.62 8.54504 8.66 8.54504 8.7C8.58504 8.86 8.61504 9.03 8.63504 9.21C8.67504 9.37 8.68504 9.53 8.66504 9.69C8.68504 9.87 8.67504 10.05 8.63504 10.23C8.61504 10.39 8.58504 10.55 8.54504 10.71C8.48504 10.91 8.41504 11.1 8.33504 11.28C8.25504 11.44 8.16504 11.61 8.06504 11.79C8.02504 11.91 7.95504 12.02 7.85504 12.12C7.75504 12.22 7.65504 12.31 7.55504 12.39C7.39504 12.47 7.23504 12.59 7.07504 12.75C7.03504 12.79 6.98504 12.82 6.92504 12.84C6.88504 12.86 6.84504 12.89 6.80504 12.93C6.66504 12.99 6.51504 13.06 6.35504 13.14C6.19504 13.2 6.03504 13.26 5.87504 13.32C5.85504 13.32 5.84504 13.34 5.84504 13.38C5.84504 13.4 5.85504 13.42 5.87504 13.44L6.68504 14.01C6.78504 14.07 6.87504 14.13 6.95504 14.19C7.03504 14.23 7.11504 14.28 7.19504 14.34L7.37504 14.43C7.61504 14.57 7.85504 14.72 8.09504 14.88C8.33504 15.04 8.56504 15.2 8.78504 15.36C9.20504 15.62 9.62504 15.89 10.045 16.17C10.465 16.43 10.865 16.72 11.245 17.04C11.585 17.3 11.885 17.6 12.145 17.94C12.205 18 12.265 18.07 12.325 18.15C12.385 18.21 12.455 18.26 12.535 18.3L12.625 18.39C12.945 18.67 13.125 19.05 13.165 19.53C13.165 19.59 13.155 19.65 13.135 19.71C13.135 19.77 13.135 19.83 13.135 19.89C13.135 20.01 13.095 20.11 13.015 20.19C12.935 20.23 12.895 20.28 12.895 20.34C12.835 20.48 12.745 20.58 12.625 20.64C12.525 20.68 12.425 20.74 12.325 20.82C12.285 20.84 12.215 20.85 12.115 20.85C11.995 20.83 11.865 20.81 11.725 20.79C11.605 20.77 11.485 20.76 11.365 20.76C11.205 20.76 11.035 20.69 10.855 20.55C10.735 20.45 10.625 20.36 10.525 20.28C10.425 20.18 10.325 20.06 10.225 19.92C9.96504 19.56 9.62504 19.23 9.20504 18.93C9.00504 18.77 8.81504 18.62 8.63504 18.48C8.45504 18.34 8.25504 18.21 8.03504 18.09C7.89504 18.01 7.75504 17.93 7.61504 17.85C7.49504 17.75 7.35504 17.66 7.19504 17.58C6.69504 17.24 6.18504 16.91 5.66504 16.59C5.14504 16.25 4.62504 15.91 4.10504 15.57C4.02504 15.51 3.93504 15.45 3.83504 15.39C3.73504 15.33 3.63504 15.27 3.53504 15.21C3.49504 15.17 3.43504 15.13 3.35504 15.09C3.27504 15.09 3.23504 15.12 3.23504 15.18C3.23504 15.2 3.22504 15.22 3.20504 15.24C3.20504 15.24 3.20504 15.25 3.20504 15.27C3.20504 15.33 3.20504 15.39 3.20504 15.45C3.20504 15.51 3.21504 15.57 3.23504 15.63C3.25504 15.79 3.26504 15.95 3.26504 16.11C3.26504 16.25 3.26504 16.4 3.26504 16.56C3.26504 16.68 3.26504 16.8 3.26504 16.92C3.28504 17.02 3.30504 17.13 3.32504 17.25C3.32504 17.31 3.32504 17.38 3.32504 17.46C3.34504 17.52 3.35504 17.58 3.35504 17.64C3.33504 17.82 3.34504 18 3.38504 18.18C3.42504 18.36 3.45504 18.54 3.47504 18.72L3.65504 19.5C3.67504 19.58 3.69504 19.67 3.71504 19.77C3.73504 19.85 3.75504 19.94 3.77504 20.04C3.79504 20.12 3.79504 20.2 3.77504 20.28C3.77504 20.34 3.76504 20.41 3.74504 20.49C3.74504 20.51 3.72504 20.54 3.68504 20.58C3.58504 20.6 3.51504 20.67 3.47504 20.79C3.41504 20.93 3.32504 21.05 3.20504 21.15C3.10504 21.27 2.99504 21.38 2.87504 21.48C2.85504 21.5 2.81504 21.52 2.75504 21.54C2.69504 21.56 2.64504 21.58 2.60504 21.6ZM3.77504 11.1H3.83504C4.05504 11.06 4.27504 11.02 4.49504 10.98C4.73504 10.92 4.96504 10.85 5.18504 10.77C5.40504 10.71 5.59504 10.6 5.75504 10.44C5.89504 10.3 5.96504 10.14 5.96504 9.96C5.98504 9.82 5.98504 9.69 5.96504 9.57C5.96504 9.43 5.94504 9.29 5.90504 9.15C5.82504 8.79 5.73504 8.44 5.63504 8.1C5.53504 7.74 5.41504 7.4 5.27504 7.08L5.00504 6.36C4.94504 6.16 4.87504 5.97 4.79504 5.79C4.71504 5.59 4.62504 5.4 4.52504 5.22C4.50504 5.18 4.48504 5.14 4.46504 5.1C4.44504 5.04 4.42504 4.99 4.40504 4.95L4.28504 4.83C4.22504 4.75 4.15504 4.75 4.07504 4.83C4.05504 4.83 4.02504 4.85 3.98504 4.89C3.84504 5.07 3.71504 5.26 3.59504 5.46C3.49504 5.66 3.43504 5.88 3.41504 6.12C3.39504 6.2 3.37504 6.28 3.35504 6.36C3.35504 6.44 3.35504 6.53 3.35504 6.63V7.92C3.33504 8.2 3.32504 8.49 3.32504 8.79C3.34504 9.09 3.33504 9.38 3.29504 9.66C3.27504 9.72 3.26504 9.78 3.26504 9.84C3.28504 9.9 3.29504 9.96 3.29504 10.02C3.31504 10.14 3.32504 10.26 3.32504 10.38C3.32504 10.48 3.32504 10.59 3.32504 10.71C3.32504 10.91 3.34504 11.03 3.38504 11.07C3.44504 11.11 3.57504 11.12 3.77504 11.1ZM28.1154 23.19C27.9354 23.19 27.7754 23.12 27.6354 22.98C27.5954 22.92 27.5554 22.86 27.5154 22.8C27.4754 22.74 27.4354 22.68 27.3954 22.62C27.2154 22.2 27.1254 21.76 27.1254 21.3L27.0354 20.58C26.9754 20.3 26.9254 20.02 26.8854 19.74C26.8454 19.46 26.7754 19.19 26.6754 18.93L26.4954 18.42C26.4954 18.38 26.4854 18.34 26.4654 18.3C26.4654 18.26 26.4554 18.22 26.4354 18.18L25.9854 16.59C25.9654 16.55 25.9454 16.5 25.9254 16.44C25.9254 16.38 25.9054 16.33 25.8654 16.29C25.8054 16.17 25.7554 16.05 25.7154 15.93C25.6954 15.79 25.6654 15.65 25.6254 15.51C25.6054 15.41 25.5854 15.32 25.5654 15.24C25.5454 15.14 25.5154 15.04 25.4754 14.94C25.4354 14.82 25.3954 14.75 25.3554 14.73C25.3154 14.69 25.2254 14.69 25.0854 14.73C24.9854 14.75 24.8754 14.77 24.7554 14.79C24.6554 14.79 24.5554 14.81 24.4554 14.85C24.3754 14.87 24.2754 14.89 24.1554 14.91C24.0554 14.91 23.9554 14.92 23.8554 14.94L23.4354 15.03C23.3354 15.05 23.2254 15.08 23.1054 15.12C23.0054 15.14 22.9054 15.15 22.8054 15.15L22.2654 15.24C22.1054 15.28 21.9354 15.32 21.7554 15.36C21.5754 15.4 21.4054 15.44 21.2454 15.48C20.7654 15.6 20.2854 15.69 19.8054 15.75C19.6454 15.79 19.5554 15.86 19.5354 15.96C19.5154 15.96 19.5054 15.97 19.5054 15.99C19.3854 16.31 19.2454 16.63 19.0854 16.95C18.9454 17.25 18.7954 17.56 18.6354 17.88C18.5954 17.96 18.5554 18.04 18.5154 18.12C18.4954 18.18 18.4654 18.25 18.4254 18.33C18.4054 18.37 18.3854 18.42 18.3654 18.48C18.3454 18.52 18.3254 18.56 18.3054 18.6C18.1854 18.74 18.1254 18.91 18.1254 19.11C18.1054 19.23 18.0654 19.35 18.0054 19.47C17.9454 19.57 17.8854 19.67 17.8254 19.77C17.8054 19.83 17.7654 19.86 17.7054 19.86C17.6254 19.88 17.5454 19.91 17.4654 19.95C17.3854 19.99 17.2954 20.03 17.1954 20.07C17.1354 20.09 17.0754 20.09 17.0154 20.07C16.9754 20.05 16.9254 20.03 16.8654 20.01C16.8254 19.97 16.7854 19.95 16.7454 19.95C16.5254 19.93 16.3654 19.8 16.2654 19.56C16.1054 19.24 15.9954 18.92 15.9354 18.6C15.9154 18.52 15.9154 18.45 15.9354 18.39C15.9754 18.33 16.0054 18.27 16.0254 18.21C16.1454 18.13 16.2154 18.04 16.2354 17.94V17.91C16.2354 17.65 16.2854 17.41 16.3854 17.19C16.5054 16.95 16.6054 16.72 16.6854 16.5C16.7254 16.38 16.7754 16.26 16.8354 16.14C16.8954 16.02 16.9554 15.9 17.0154 15.78C17.0954 15.64 17.1554 15.51 17.1954 15.39C17.2554 15.25 17.3054 15.11 17.3454 14.97C17.4054 14.81 17.4054 14.66 17.3454 14.52C17.3054 14.4 17.2854 14.29 17.2854 14.19C17.2854 14.07 17.2954 13.95 17.3154 13.83C17.3154 13.61 17.3954 13.42 17.5554 13.26C17.6354 13.16 17.7154 13.08 17.7954 13.02C17.8954 12.94 17.9854 12.86 18.0654 12.78C18.2454 12.6 18.3854 12.36 18.4854 12.06C18.5654 11.8 18.6254 11.54 18.6654 11.28C18.7254 11 18.7854 10.73 18.8454 10.47C18.8854 10.21 18.9254 9.96 18.9654 9.72C19.0254 9.46 19.0854 9.21 19.1454 8.97C19.1654 8.87 19.1854 8.78 19.2054 8.7C19.2454 8.6 19.2754 8.51 19.2954 8.43C19.3554 8.27 19.4154 8.12 19.4754 7.98C19.5354 7.82 19.5754 7.66 19.5954 7.5C19.6354 7.42 19.6354 7.35 19.5954 7.29C19.5754 7.19 19.5754 7.1 19.5954 7.02C19.6354 6.94 19.6654 6.86 19.6854 6.78C19.7454 6.64 19.7854 6.5 19.8054 6.36C19.8454 6.22 19.8954 6.08 19.9554 5.94C20.0554 5.68 20.1354 5.47 20.1954 5.31C20.2754 5.13 20.3454 4.93 20.4054 4.71C20.4454 4.59 20.4854 4.48 20.5254 4.38C20.5854 4.26 20.6254 4.14 20.6454 4.02C20.7054 3.84 20.7554 3.66 20.7954 3.48C20.8354 3.28 20.8554 3.09 20.8554 2.91C20.8954 2.75 20.9354 2.64 20.9754 2.58C21.0754 2.38 21.1954 2.21 21.3354 2.07C21.4954 1.93 21.6454 1.79 21.7854 1.65C21.8854 1.59 21.9854 1.55 22.0854 1.53C22.1854 1.49 22.2854 1.5 22.3854 1.56C22.4654 1.6 22.5154 1.62 22.5354 1.62C22.7154 1.6 22.8654 1.64 22.9854 1.74C23.1054 1.84 23.2054 1.96 23.2854 2.1C23.3254 2.14 23.3554 2.19 23.3754 2.25C23.3954 2.31 23.4154 2.36 23.4354 2.4C23.5354 2.56 23.5854 2.72 23.5854 2.88C23.5854 2.96 23.5954 3.05 23.6154 3.15C23.6354 3.23 23.6554 3.32 23.6754 3.42C23.7354 3.54 23.8254 3.6 23.9454 3.6C23.9654 3.58 23.9854 3.58 24.0054 3.6C24.0254 3.62 24.0354 3.64 24.0354 3.66C24.1354 3.78 24.1654 3.91 24.1254 4.05C24.0854 4.21 24.0754 4.37 24.0954 4.53C24.1354 4.67 24.1754 4.82 24.2154 4.98C24.2954 5.18 24.3754 5.38 24.4554 5.58C24.5354 5.78 24.6154 5.98 24.6954 6.18C24.7954 6.4 24.8954 6.62 24.9954 6.84C25.0954 7.06 25.1854 7.28 25.2654 7.5C25.3654 7.78 25.4654 8.06 25.5654 8.34C25.6854 8.62 25.8154 8.9 25.9554 9.18L26.0454 9.51C26.0654 9.59 26.0854 9.67 26.1054 9.75C26.1454 9.83 26.1754 9.91 26.1954 9.99C26.2354 10.05 26.2654 10.11 26.2854 10.17C26.3254 10.23 26.3654 10.28 26.4054 10.32C26.5054 10.46 26.5654 10.61 26.5854 10.77C26.6454 10.97 26.7354 11.15 26.8554 11.31C26.8954 11.37 26.9554 11.4 27.0354 11.4C27.3354 11.36 27.6354 11.33 27.9354 11.31C28.2354 11.27 28.5354 11.21 28.8354 11.13C29.0554 11.07 29.2654 11.04 29.4654 11.04C29.8454 11.04 30.1954 11.17 30.5154 11.43C30.8954 11.73 31.0954 12.11 31.1154 12.57C31.1154 12.67 31.1254 12.75 31.1454 12.81C31.1454 12.95 31.1054 13.06 31.0254 13.14C31.0054 13.2 30.9654 13.26 30.9054 13.32C30.8654 13.38 30.8254 13.44 30.7854 13.5C30.7454 13.58 30.7054 13.64 30.6654 13.68L30.4854 13.83C30.4654 13.87 30.4354 13.92 30.3954 13.98C30.3554 14.02 30.3054 14.05 30.2454 14.07C30.1654 14.09 30.0854 14.12 30.0054 14.16C29.9254 14.18 29.8354 14.19 29.7354 14.19C29.3754 14.23 29.0554 14.22 28.7754 14.16H28.2954C28.2554 14.16 28.1954 14.18 28.1154 14.22C28.0354 14.26 27.9954 14.31 27.9954 14.37V14.49C28.0554 14.67 28.0954 14.86 28.1154 15.06C28.1554 15.24 28.2154 15.41 28.2954 15.57C28.2954 15.65 28.3154 15.73 28.3554 15.81C28.4554 15.99 28.5354 16.18 28.5954 16.38C28.6554 16.56 28.7054 16.75 28.7454 16.95C28.7454 16.99 28.7654 17.07 28.8054 17.19C28.8654 17.33 28.9154 17.48 28.9554 17.64C28.9954 17.78 29.0254 17.93 29.0454 18.09C29.0454 18.21 29.0754 18.32 29.1354 18.42C29.2154 18.6 29.2754 18.78 29.3154 18.96C29.3554 19.14 29.3854 19.33 29.4054 19.53C29.4254 19.55 29.4354 19.59 29.4354 19.65C29.4354 19.69 29.4454 19.73 29.4654 19.77C29.5654 19.99 29.6354 20.23 29.6754 20.49C29.7154 20.73 29.7654 20.97 29.8254 21.21C29.8654 21.33 29.8854 21.45 29.8854 21.57C29.9054 21.71 29.9154 21.85 29.9154 21.99C29.9154 22.09 29.8854 22.2 29.8254 22.32C29.7654 22.38 29.7354 22.41 29.7354 22.41C29.6154 22.43 29.5454 22.5 29.5254 22.62L29.4354 22.8C29.3954 22.88 29.3354 22.93 29.2554 22.95C29.1754 22.95 29.1054 22.98 29.0454 23.04C28.9654 23.12 28.8554 23.16 28.7154 23.16C28.6354 23.16 28.5354 23.16 28.4154 23.16C28.3154 23.16 28.2154 23.17 28.1154 23.19ZM20.8854 12.3C21.0054 12.28 21.1254 12.26 21.2454 12.24C21.3854 12.22 21.5354 12.2 21.6954 12.18C21.7954 12.16 21.9254 12.14 22.0854 12.12C22.2454 12.1 22.3954 12.08 22.5354 12.06C22.6754 12.02 22.8154 12 22.9554 12C23.0954 11.98 23.2354 11.96 23.3754 11.94C23.4954 11.9 23.6154 11.88 23.7354 11.88C23.8554 11.86 23.9754 11.84 24.0954 11.82C24.2754 11.78 24.3454 11.68 24.3054 11.52C24.2854 11.36 24.2454 11.2 24.1854 11.04C24.1454 10.86 24.0554 10.71 23.9154 10.59C23.8754 10.55 23.8554 10.49 23.8554 10.41V10.32C23.8154 10.16 23.7654 10.01 23.7054 9.87C23.6654 9.71 23.6154 9.56 23.5554 9.42C23.5154 9.26 23.4654 9.12 23.4054 9C23.3654 8.86 23.3154 8.72 23.2554 8.58L22.8954 7.5C22.8354 7.36 22.7754 7.22 22.7154 7.08C22.6754 6.94 22.6354 6.8 22.5954 6.66L22.5054 6.54H22.4154L22.3554 6.63C22.2554 6.93 22.1354 7.23 21.9954 7.53C21.8754 7.83 21.7654 8.15 21.6654 8.49C21.6654 8.53 21.6554 8.58 21.6354 8.64C21.6154 8.7 21.5954 8.76 21.5754 8.82C21.4954 9.02 21.4154 9.24 21.3354 9.48C21.2754 9.72 21.2254 9.96 21.1854 10.2C21.1654 10.34 21.1454 10.48 21.1254 10.62C21.1054 10.74 21.0754 10.87 21.0354 11.01L20.7654 12.18C20.7454 12.2 20.7554 12.23 20.7954 12.27C20.8354 12.29 20.8654 12.3 20.8854 12.3ZM36.764 21.42C36.624 21.42 36.454 21.37 36.254 21.27C36.154 21.21 36.074 21.13 36.014 21.03C35.994 20.97 35.944 20.97 35.864 21.03C35.804 21.07 35.754 21.07 35.714 21.03C35.654 20.97 35.594 20.93 35.534 20.91C35.454 20.91 35.414 20.88 35.414 20.82C35.414 20.76 35.404 20.71 35.384 20.67C35.384 20.61 35.364 20.56 35.324 20.52C35.204 20.48 35.124 20.38 35.084 20.22C35.064 20.16 35.044 20.11 35.024 20.07C35.004 20.01 34.974 19.95 34.934 19.89C34.894 19.81 34.874 19.74 34.874 19.68C34.854 19.62 34.834 19.57 34.814 19.53C34.814 19.47 34.794 19.41 34.754 19.35C34.734 19.21 34.694 19.08 34.634 18.96C34.574 18.84 34.524 18.71 34.484 18.57C34.444 18.49 34.424 18.38 34.424 18.24C34.424 17.88 34.484 17.55 34.604 17.25C34.704 17.07 34.734 16.89 34.694 16.71C34.674 16.63 34.674 16.55 34.694 16.47C34.734 16.39 34.744 16.31 34.724 16.23C34.704 16.15 34.684 16.08 34.664 16.02C34.664 15.96 34.664 15.89 34.664 15.81C34.644 15.77 34.634 15.72 34.634 15.66C34.634 15.54 34.634 15.42 34.634 15.3C34.634 15.16 34.614 15.02 34.574 14.88C34.554 14.82 34.544 14.73 34.544 14.61V13.5C34.524 13.24 34.494 12.98 34.454 12.72C34.414 12.46 34.364 12.2 34.304 11.94C34.304 11.88 34.294 11.82 34.274 11.76C34.274 11.7 34.274 11.64 34.274 11.58C34.274 11.14 34.204 10.71 34.064 10.29V10.02C34.104 9.8 34.084 9.63 34.004 9.51C33.984 9.43 33.974 9.32 33.974 9.18V9.15C33.974 8.95 33.964 8.75 33.944 8.55C33.944 8.35 33.954 8.15 33.974 7.95C34.014 7.59 34.014 7.21 33.974 6.81C33.974 6.65 33.974 6.49 33.974 6.33C33.974 6.17 33.964 6.02 33.944 5.88V5.7C33.984 5.6 34.004 5.51 34.004 5.43C34.004 5.35 34.004 5.27 34.004 5.19C34.004 4.95 33.994 4.72 33.974 4.5C33.974 4.26 33.954 4.03 33.914 3.81C33.914 3.75 33.914 3.69 33.914 3.63C33.914 3.55 33.904 3.48 33.884 3.42C33.884 3.28 33.834 3.16 33.734 3.06L33.524 2.88C33.324 2.76 33.194 2.57 33.134 2.31C33.114 2.27 33.104 2.24 33.104 2.22C33.104 2.18 33.094 2.14 33.074 2.1C33.034 2 33.054 1.91 33.134 1.83C33.194 1.75 33.234 1.67 33.254 1.59C33.254 1.53 33.264 1.48 33.284 1.44C33.324 1.38 33.354 1.32 33.374 1.26C33.394 1.2 33.414 1.13 33.434 1.05C33.474 0.989999 33.504 0.969999 33.524 0.989998C33.664 0.989998 33.764 0.969999 33.824 0.929999C33.964 0.829999 34.114 0.809999 34.274 0.87C34.314 0.89 34.374 0.879999 34.454 0.839998C34.474 0.839998 34.484 0.829999 34.484 0.809999C34.584 0.709999 34.694 0.659999 34.814 0.659999C34.934 0.639999 35.064 0.639999 35.204 0.659999C35.224 0.659999 35.244 0.669999 35.264 0.689999C35.284 0.689999 35.304 0.689999 35.324 0.689999C35.484 0.729999 35.634 0.769999 35.774 0.809999C35.934 0.829999 36.084 0.829999 36.224 0.809999C36.324 0.809999 36.424 0.819999 36.524 0.839998C36.644 0.859999 36.754 0.87 36.854 0.87C36.934 0.87 37.004 0.88 37.064 0.899999C37.144 0.919999 37.214 0.939999 37.274 0.959999C37.354 0.979998 37.424 1.01 37.484 1.05C37.544 1.07 37.614 1.08 37.694 1.08C37.794 1.1 37.874 1.12 37.934 1.14C38.014 1.16 38.094 1.19 38.174 1.23C38.434 1.37 38.694 1.5 38.954 1.62C39.074 1.68 39.184 1.76 39.284 1.86C39.424 1.96 39.544 2.02 39.644 2.04C39.664 2.04 39.684 2.05 39.704 2.07C39.724 2.07 39.744 2.07 39.764 2.07C39.784 2.09 39.804 2.1 39.824 2.1C39.844 2.1 39.864 2.11 39.884 2.13C39.984 2.23 40.104 2.31 40.244 2.37C40.404 2.41 40.534 2.48 40.634 2.58C40.674 2.62 40.734 2.66 40.814 2.7C40.974 2.76 41.114 2.85 41.234 2.97C41.274 3.01 41.304 3.03 41.324 3.03C41.404 3.03 41.494 3.08 41.594 3.18L42.224 3.84C42.304 3.92 42.364 3.99 42.404 4.05C42.504 4.19 42.614 4.32 42.734 4.44C42.854 4.56 42.974 4.68 43.094 4.8C43.134 4.84 43.174 4.89 43.214 4.95C43.274 4.99 43.314 5.04 43.334 5.1C43.354 5.14 43.384 5.18 43.424 5.22C43.464 5.24 43.494 5.27 43.514 5.31C43.734 5.55 43.944 5.8 44.144 6.06C44.364 6.32 44.564 6.59 44.744 6.87C44.844 7.01 44.934 7.16 45.014 7.32C45.094 7.48 45.164 7.64 45.224 7.8C45.284 7.94 45.344 8.08 45.404 8.22C45.484 8.36 45.554 8.5 45.614 8.64C45.674 8.86 45.744 9.06 45.824 9.24C45.904 9.5 45.984 9.75 46.064 9.99C46.144 10.23 46.214 10.49 46.274 10.77L46.364 11.16C46.364 11.32 46.364 11.49 46.364 11.67C46.384 11.83 46.394 12 46.394 12.18C46.394 12.26 46.384 12.33 46.364 12.39C46.364 12.45 46.344 12.52 46.304 12.6C46.264 12.72 46.244 12.83 46.244 12.93C46.224 13.13 46.174 13.32 46.094 13.5C46.034 13.68 45.964 13.85 45.884 14.01C45.704 14.33 45.544 14.65 45.404 14.97C45.364 15.05 45.324 15.13 45.284 15.21C45.264 15.27 45.234 15.34 45.194 15.42L45.014 15.78C44.874 16.06 44.704 16.34 44.504 16.62C44.324 16.88 44.124 17.13 43.904 17.37C43.824 17.47 43.724 17.57 43.604 17.67C43.504 17.75 43.404 17.84 43.304 17.94C43.104 18.12 42.904 18.3 42.704 18.48C42.504 18.64 42.294 18.8 42.074 18.96C41.874 19.1 41.664 19.23 41.444 19.35C41.244 19.47 41.024 19.57 40.784 19.65C40.664 19.67 40.544 19.73 40.424 19.83C40.304 19.91 40.174 19.99 40.034 20.07C39.914 20.15 39.784 20.24 39.644 20.34C39.584 20.36 39.524 20.39 39.464 20.43C39.404 20.45 39.334 20.47 39.254 20.49C39.194 20.51 39.124 20.53 39.044 20.55C38.984 20.57 38.924 20.59 38.864 20.61C38.784 20.63 38.704 20.66 38.624 20.7C38.564 20.74 38.504 20.79 38.444 20.85C38.304 20.95 38.154 21.03 37.994 21.09C37.834 21.17 37.674 21.26 37.514 21.36C37.474 21.38 37.404 21.39 37.304 21.39C37.244 21.41 37.184 21.41 37.124 21.39C37.064 21.39 37.004 21.39 36.944 21.39V21.42H36.764ZM37.964 18.06C38.164 18.06 38.334 18.02 38.474 17.94C38.634 17.88 38.784 17.81 38.924 17.73C39.064 17.65 39.194 17.56 39.314 17.46L39.674 17.1C39.874 16.94 40.054 16.77 40.214 16.59C40.394 16.41 40.584 16.25 40.784 16.11C40.824 16.07 40.844 16.05 40.844 16.05C40.924 15.97 40.994 15.9 41.054 15.84C41.134 15.76 41.204 15.68 41.264 15.6C41.304 15.56 41.354 15.51 41.414 15.45C41.474 15.39 41.514 15.34 41.534 15.3C41.614 15.16 41.724 15.04 41.864 14.94C41.964 14.88 42.024 14.82 42.044 14.76C42.084 14.66 42.134 14.56 42.194 14.46C42.274 14.36 42.354 14.27 42.434 14.19C42.534 14.07 42.634 13.89 42.734 13.65L42.854 13.35C42.974 13.07 43.034 12.81 43.034 12.57C43.054 12.51 43.064 12.42 43.064 12.3C43.084 12 43.064 11.68 43.004 11.34C42.984 11.24 42.964 11.14 42.944 11.04C42.924 10.94 42.914 10.85 42.914 10.77C42.894 10.69 42.874 10.62 42.854 10.56C42.854 10.48 42.834 10.41 42.794 10.35C42.754 10.27 42.724 10.19 42.704 10.11C42.684 10.03 42.664 9.95 42.644 9.87C42.644 9.73 42.624 9.61 42.584 9.51C42.544 9.39 42.504 9.27 42.464 9.15C42.404 9.03 42.344 8.91 42.284 8.79C42.224 8.65 42.174 8.51 42.134 8.37L42.104 8.25C42.044 8.17 41.994 8.09 41.954 8.01C41.934 7.91 41.904 7.82 41.864 7.74C41.784 7.56 41.704 7.38 41.624 7.2C41.564 7.02 41.484 6.85 41.384 6.69C41.284 6.51 41.174 6.33 41.054 6.15C40.954 5.97 40.824 5.81 40.664 5.67C40.204 5.17 39.674 4.72 39.074 4.32C38.714 4.06 38.354 3.89 37.994 3.81C37.854 3.77 37.694 3.74 37.514 3.72C37.334 3.68 37.164 3.65 37.004 3.63C36.944 3.63 36.894 3.65 36.854 3.69C36.754 3.77 36.704 3.87 36.704 3.99C36.704 4.13 36.694 4.28 36.674 4.44C36.674 4.58 36.674 4.73 36.674 4.89C36.714 5.17 36.704 5.4 36.644 5.58C36.624 5.66 36.604 5.74 36.584 5.82C36.584 5.9 36.594 5.99 36.614 6.09C36.654 6.21 36.644 6.32 36.584 6.42C36.524 6.54 36.524 6.67 36.584 6.81C36.664 6.97 36.684 7.17 36.644 7.41C36.584 7.65 36.584 7.89 36.644 8.13C36.664 8.21 36.674 8.29 36.674 8.37C36.694 8.45 36.694 8.54 36.674 8.64C36.674 8.86 36.684 9.08 36.704 9.3C36.744 9.52 36.774 9.74 36.794 9.96C36.794 10 36.814 10.06 36.854 10.14V10.62C36.854 10.66 36.844 10.71 36.824 10.77C36.824 10.81 36.834 10.85 36.854 10.89C36.894 11.05 36.924 11.22 36.944 11.4C36.984 11.56 37.024 11.72 37.064 11.88C37.064 11.92 37.074 11.97 37.094 12.03C37.114 12.07 37.124 12.12 37.124 12.18C37.124 12.32 37.134 12.46 37.154 12.6C37.174 12.74 37.194 12.89 37.214 13.05C37.274 13.61 37.364 14.18 37.484 14.76C37.544 15 37.574 15.25 37.574 15.51C37.574 15.57 37.574 15.64 37.574 15.72C37.574 15.78 37.584 15.84 37.604 15.9C37.644 16.04 37.664 16.18 37.664 16.32C37.664 16.46 37.664 16.6 37.664 16.74C37.664 16.78 37.654 16.83 37.634 16.89C37.634 16.95 37.644 17 37.664 17.04C37.704 17.14 37.724 17.24 37.724 17.34C37.724 17.42 37.724 17.51 37.724 17.61C37.724 17.69 37.744 17.79 37.784 17.91C37.784 18.01 37.844 18.06 37.964 18.06ZM51.7631 21.3C51.6431 21.3 51.5631 21.29 51.5231 21.27C51.4431 21.23 51.3731 21.2 51.3131 21.18C51.2531 21.16 51.1931 21.14 51.1331 21.12C51.0731 21.08 51.0131 21.04 50.9531 21C50.9131 20.94 50.8731 20.88 50.8331 20.82C50.7931 20.78 50.7531 20.76 50.7131 20.76C50.5931 20.76 50.5331 20.7 50.5331 20.58C50.5131 20.46 50.4931 20.34 50.4731 20.22C50.4531 20.1 50.4331 19.98 50.4131 19.86C50.3931 19.68 50.3731 19.5 50.3531 19.32C50.3531 19.14 50.3331 18.97 50.2931 18.81V18.54C50.2931 18.46 50.2831 18.39 50.2631 18.33C50.2631 18.27 50.2631 18.2 50.2631 18.12C50.2231 18.02 50.2231 17.94 50.2631 17.88C50.3031 17.52 50.3031 17.16 50.2631 16.8C50.2431 16.7 50.2331 16.6 50.2331 16.5C50.2331 16.4 50.2231 16.3 50.2031 16.2C50.2031 16 50.2031 15.8 50.2031 15.6C50.2031 15.38 50.1831 15.17 50.1431 14.97V14.49C50.1431 14.33 50.1331 14.18 50.1131 14.04C50.1131 13.9 50.1031 13.76 50.0831 13.62C50.0631 13.44 50.0431 13.26 50.0231 13.08C50.0231 12.9 50.0131 12.72 49.9931 12.54C49.9731 12.5 49.9631 12.43 49.9631 12.33C49.9431 12.23 49.9231 12.13 49.9031 12.03C49.9031 11.91 49.9031 11.8 49.9031 11.7L49.8131 10.2C49.7931 10.04 49.7731 9.89 49.7531 9.75C49.7531 9.59 49.7531 9.44 49.7531 9.3C49.7331 9.06 49.7131 8.82 49.6931 8.58C49.6731 8.34 49.6531 8.11 49.6331 7.89C49.6331 7.85 49.6231 7.81 49.6031 7.77C49.6031 7.73 49.6031 7.7 49.6031 7.68C49.6031 7.44 49.5931 7.2 49.5731 6.96C49.5531 6.72 49.5331 6.47 49.5131 6.21L49.4231 5.37C49.3631 5.05 49.3531 4.7 49.3931 4.32C49.3931 4.14 49.4631 3.99 49.6031 3.87C49.6431 3.83 49.6731 3.81 49.6931 3.81C49.7131 3.79 49.7331 3.77 49.7531 3.75C49.8531 3.73 49.9031 3.66 49.9031 3.54C49.9031 3.5 49.9431 3.48 50.0231 3.48H50.1731C50.1931 3.48 50.2031 3.48 50.2031 3.48C50.2231 3.46 50.2431 3.45 50.2631 3.45C50.3031 3.43 50.3331 3.41 50.3531 3.39C50.3931 3.35 50.4231 3.33 50.4431 3.33C50.4831 3.33 50.5231 3.34 50.5631 3.36C50.6031 3.36 50.6431 3.37 50.6831 3.39C50.7231 3.39 50.7531 3.38 50.7731 3.36C50.8731 3.34 50.9731 3.35 51.0731 3.39C51.1931 3.41 51.2931 3.44 51.3731 3.48C51.4931 3.5 51.5831 3.58 51.6431 3.72C51.7031 3.9 51.7531 4.08 51.7931 4.26C51.8531 4.42 51.8931 4.59 51.9131 4.77V5.01C51.9531 5.15 51.9731 5.3 51.9731 5.46C51.9731 5.6 51.9731 5.75 51.9731 5.91C51.9731 6.05 51.9731 6.19 51.9731 6.33C51.9931 6.45 52.0131 6.57 52.0331 6.69C52.0331 6.75 52.0331 6.81 52.0331 6.87C52.0331 6.93 52.0431 6.99 52.0631 7.05C52.0631 7.17 52.0631 7.29 52.0631 7.41C52.0831 7.53 52.1031 7.66 52.1231 7.8C52.1431 8.02 52.1631 8.25 52.1831 8.49C52.2031 8.73 52.2131 8.97 52.2131 9.21C52.2131 9.31 52.2131 9.42 52.2131 9.54C52.2131 9.64 52.2231 9.74 52.2431 9.84C52.2631 9.9 52.2731 9.96 52.2731 10.02C52.2731 10.08 52.2731 10.14 52.2731 10.2V10.8C52.2731 10.92 52.2831 11.02 52.3031 11.1C52.3431 11.24 52.3531 11.38 52.3331 11.52C52.3331 11.64 52.3431 11.77 52.3631 11.91L52.4531 13.29C52.4731 13.49 52.4831 13.7 52.4831 13.92C52.5031 14.12 52.5131 14.33 52.5131 14.55C52.5131 14.63 52.5131 14.72 52.5131 14.82C52.5131 14.9 52.5231 14.98 52.5431 15.06C52.5631 15.12 52.5731 15.18 52.5731 15.24C52.5731 15.3 52.5731 15.36 52.5731 15.42C52.5931 15.44 52.5931 15.48 52.5731 15.54C52.5731 15.58 52.5831 15.62 52.6031 15.66C52.6431 15.8 52.6631 15.94 52.6631 16.08C52.6631 16.22 52.6631 16.37 52.6631 16.53C52.6631 16.61 52.6631 16.7 52.6631 16.8C52.6831 16.88 52.6931 16.97 52.6931 17.07C52.7131 17.17 52.7231 17.28 52.7231 17.4C52.7231 17.52 52.7231 17.63 52.7231 17.73C52.7431 17.83 52.7531 17.94 52.7531 18.06C52.7531 18.16 52.7631 18.26 52.7831 18.36C52.8031 18.4 52.8131 18.44 52.8131 18.48C52.8131 18.7 52.8331 18.92 52.8731 19.14C52.9131 19.36 52.9531 19.58 52.9931 19.8C53.0131 19.86 53.0231 19.93 53.0231 20.01C53.0231 20.07 53.0231 20.13 53.0231 20.19C53.0231 20.25 53.0031 20.3 52.9631 20.34C52.8831 20.4 52.8231 20.52 52.7831 20.7C52.7831 20.76 52.7531 20.81 52.6931 20.85C52.5531 20.91 52.4331 20.99 52.3331 21.09C52.1731 21.23 51.9831 21.3 51.7631 21.3ZM62.6379 21.6C62.4379 21.58 62.2379 21.55 62.0379 21.51C61.8579 21.49 61.6779 21.44 61.4979 21.36L60.7479 21.09C60.4879 20.99 60.2479 20.88 60.0279 20.76C59.8079 20.62 59.5879 20.48 59.3679 20.34C59.2679 20.24 59.1679 20.15 59.0679 20.07C58.9679 19.97 58.8679 19.88 58.7679 19.8C58.6079 19.64 58.4479 19.48 58.2879 19.32C58.1279 19.14 57.9779 18.95 57.8379 18.75L57.1179 17.64C56.9379 17.36 56.7779 17.07 56.6379 16.77C56.4979 16.45 56.3779 16.13 56.2779 15.81C56.0579 15.21 55.9479 14.62 55.9479 14.04V13.56C55.9479 13.06 55.9779 12.57 56.0379 12.09C56.0779 11.69 56.1679 11.33 56.3079 11.01C56.3879 10.81 56.4579 10.61 56.5179 10.41C56.5779 10.21 56.6479 10.02 56.7279 9.84L56.8179 9.63C56.8579 9.37 56.9479 9.14 57.0879 8.94C57.2279 8.72 57.3479 8.51 57.4479 8.31C57.5279 8.15 57.6179 8.01 57.7179 7.89C57.8179 7.75 57.9079 7.61 57.9879 7.47C58.0279 7.41 58.0779 7.36 58.1379 7.32C58.1979 7.26 58.2479 7.2 58.2879 7.14C58.3279 7.1 58.3579 7.05 58.3779 6.99C58.4179 6.91 58.4479 6.84 58.4679 6.78C58.5079 6.72 58.5779 6.64 58.6779 6.54C58.7979 6.48 58.9079 6.34 59.0079 6.12C59.0479 6.04 59.0879 5.98 59.1279 5.94C59.2479 5.84 59.3479 5.72 59.4279 5.58C59.5279 5.44 59.6379 5.31 59.7579 5.19C59.8379 5.11 59.8779 5 59.8779 4.86C59.8779 4.76 59.8779 4.67 59.8779 4.59C59.8979 4.49 59.8979 4.4 59.8779 4.32C59.8579 4.22 59.8879 4.13 59.9679 4.05C60.0079 4.01 60.0379 3.96 60.0579 3.9C60.0779 3.84 60.0979 3.78 60.1179 3.72C60.1779 3.52 60.3379 3.35 60.5979 3.21C60.6379 3.17 60.6879 3.15 60.7479 3.15C60.8279 3.13 60.8979 3.11 60.9579 3.09C61.0979 3.03 61.2579 3.02 61.4379 3.06C61.5179 3.08 61.5879 3.09 61.6479 3.09C61.7079 3.07 61.7679 3.05 61.8279 3.03C61.9079 2.99 61.9779 2.96 62.0379 2.94C62.1179 2.92 62.1879 2.9 62.2479 2.88C62.5279 2.78 62.8179 2.79 63.1179 2.91C63.4379 3.03 63.6679 3.24 63.8079 3.54C63.8479 3.64 63.8879 3.74 63.9279 3.84C63.9679 3.94 63.9979 4.04 64.0179 4.14C64.0579 4.36 64.0479 4.55 63.9879 4.71C63.9479 4.79 63.9279 4.84 63.9279 4.86C63.9079 4.94 63.9279 5.01 63.9879 5.07C64.0279 5.13 64.0779 5.18 64.1379 5.22C64.3579 5.42 64.5679 5.62 64.7679 5.82C64.9679 6 65.1579 6.2 65.3379 6.42C65.4979 6.58 65.6279 6.75 65.7279 6.93C65.8479 7.09 65.9579 7.27 66.0579 7.47C66.0979 7.57 66.1479 7.68 66.2079 7.8C66.2679 7.9 66.3279 8 66.3879 8.1C66.4879 8.28 66.5679 8.47 66.6279 8.67C66.7079 8.87 66.7879 9.07 66.8679 9.27V9.3C66.9079 9.44 66.9379 9.59 66.9579 9.75C66.9979 9.89 67.0579 10.04 67.1379 10.2C67.1979 10.34 67.2479 10.49 67.2879 10.65C67.3279 10.79 67.3679 10.94 67.4079 11.1C67.4479 11.28 67.4879 11.46 67.5279 11.64C67.5879 11.82 67.6279 12 67.6479 12.18C67.6679 12.26 67.6879 12.34 67.7079 12.42C67.7279 12.48 67.7479 12.55 67.7679 12.63C67.8079 12.81 67.8479 12.99 67.8879 13.17C67.9279 13.35 67.9579 13.53 67.9779 13.71L68.0679 13.92C68.1079 14.04 68.1479 14.2 68.1879 14.4C68.2479 14.66 68.2779 14.92 68.2779 15.18C68.2979 15.44 68.2979 15.71 68.2779 15.99C68.2779 16.13 68.2679 16.24 68.2479 16.32C68.1279 16.74 67.9779 17.17 67.7979 17.61C67.7179 17.75 67.6379 17.89 67.5579 18.03C67.4779 18.15 67.3979 18.28 67.3179 18.42L67.0479 18.84C66.9479 19.02 66.8379 19.18 66.7179 19.32C66.5179 19.64 66.2779 19.92 65.9979 20.16C65.7179 20.4 65.4179 20.63 65.0979 20.85C64.3979 21.39 63.5779 21.64 62.6379 21.6ZM62.5179 18.63C62.9379 18.63 63.2979 18.51 63.5979 18.27C63.6979 18.17 63.7979 18.08 63.8979 18C64.0179 17.9 64.1179 17.8 64.1979 17.7C64.5779 17.28 64.8779 16.84 65.0979 16.38L65.1879 16.08C65.2279 15.72 65.2279 15.36 65.1879 15L65.0079 14.01C64.9479 13.75 64.8979 13.5 64.8579 13.26C64.8179 13 64.7579 12.75 64.6779 12.51C64.6179 12.37 64.5979 12.26 64.6179 12.18C64.6379 12.08 64.6379 11.98 64.6179 11.88C64.5979 11.78 64.5679 11.68 64.5279 11.58C64.4679 11.32 64.3979 11.06 64.3179 10.8C64.2379 10.54 64.1579 10.28 64.0779 10.02C64.0579 9.96 64.0379 9.9 64.0179 9.84C63.9979 9.78 63.9779 9.72 63.9579 9.66C63.8179 9.38 63.6679 9.11 63.5079 8.85C63.3479 8.59 63.1679 8.35 62.9679 8.13C62.8679 8.01 62.7579 7.9 62.6379 7.8C62.5179 7.68 62.3979 7.57 62.2779 7.47C62.2579 7.43 62.2279 7.41 62.1879 7.41C62.1679 7.39 62.1379 7.37 62.0979 7.35C62.0379 7.27 61.9579 7.28 61.8579 7.38C61.7579 7.48 61.6479 7.59 61.5279 7.71C61.4279 7.83 61.3279 7.95 61.2279 8.07C61.1279 8.21 61.0179 8.35 60.8979 8.49C60.7979 8.63 60.6979 8.77 60.5979 8.91C60.4579 9.09 60.3279 9.27 60.2079 9.45C60.0879 9.63 59.9679 9.81 59.8479 9.99C59.4279 10.67 59.0979 11.42 58.8579 12.24C58.8179 12.36 58.7979 12.45 58.7979 12.51C58.7779 12.65 58.7579 12.79 58.7379 12.93C58.7379 13.07 58.7379 13.22 58.7379 13.38V13.62C58.7579 13.68 58.7679 13.74 58.7679 13.8C58.7679 13.86 58.7779 13.92 58.7979 13.98C58.7979 14.22 58.8579 14.48 58.9779 14.76C59.1379 15.16 59.3179 15.55 59.5179 15.93C59.7179 16.31 59.9479 16.67 60.2079 17.01C60.2679 17.09 60.3279 17.17 60.3879 17.25C60.4679 17.33 60.5379 17.41 60.5979 17.49C60.7779 17.69 60.9679 17.87 61.1679 18.03C61.3879 18.19 61.6079 18.33 61.8279 18.45C62.0679 18.57 62.2979 18.63 62.5179 18.63ZM93.48 22.53C93.4 22.55 93.34 22.53 93.3 22.47C93.22 22.41 93.14 22.35 93.06 22.29C93 22.23 92.92 22.17 92.82 22.11C92.66 22.03 92.53 21.89 92.43 21.69C92.25 21.41 92.16 21.11 92.16 20.79C92.16 20.69 92.15 20.59 92.13 20.49C92.13 20.39 92.12 20.29 92.1 20.19C92.1 20.09 92.09 20 92.07 19.92C92.07 19.82 92.07 19.73 92.07 19.65C92.07 19.55 92.07 19.45 92.07 19.35C92.07 19.23 92.06 19.12 92.04 19.02C92.04 19 92.03 18.99 92.01 18.99C92.01 18.97 92.01 18.96 92.01 18.96C91.97 18.96 91.94 18.97 91.92 18.99L91.56 19.44C91.48 19.56 91.38 19.67 91.26 19.77C91.16 19.85 91.06 19.94 90.96 20.04C90.64 20.28 90.32 20.48 90 20.64C89.86 20.7 89.73 20.75 89.61 20.79C88.93 21.03 88.26 21.14 87.6 21.12C87.38 21.1 87.15 21.08 86.91 21.06C86.69 21.06 86.46 21.03 86.22 20.97C86.04 20.91 85.86 20.85 85.68 20.79C85.52 20.71 85.36 20.61 85.2 20.49C85.06 20.37 84.92 20.25 84.78 20.13C84.64 19.99 84.51 19.84 84.39 19.68C84.19 19.36 84.06 19.16 84 19.08C83.94 19 83.85 18.8 83.73 18.48L83.58 18.21C83.52 18.05 83.45 17.9 83.37 17.76C83.31 17.6 83.26 17.44 83.22 17.28L83.07 16.86C83.03 16.72 82.99 16.59 82.95 16.47C82.91 16.33 82.87 16.19 82.83 16.05C82.75 15.79 82.68 15.53 82.62 15.27C82.56 14.99 82.5 14.72 82.44 14.46L82.35 13.92C82.35 13.88 82.34 13.84 82.32 13.8C82.32 13.74 82.32 13.68 82.32 13.62L82.14 12.75C82.12 12.65 82.11 12.56 82.11 12.48C82.11 12.38 82.11 12.29 82.11 12.21C82.09 12.05 82.08 11.89 82.08 11.73C82.1 11.57 82.11 11.41 82.11 11.25C82.13 11.03 82.16 10.82 82.2 10.62C82.24 10.4 82.28 10.19 82.32 9.99C82.4 9.71 82.48 9.43 82.56 9.15C82.66 8.85 82.77 8.57 82.89 8.31C82.99 8.09 83.09 7.88 83.19 7.68C83.29 7.46 83.41 7.25 83.55 7.05C83.73 6.75 83.92 6.46 84.12 6.18C84.34 5.9 84.56 5.63 84.78 5.37C84.94 5.19 85.1 5.02 85.26 4.86C85.42 4.68 85.58 4.5 85.74 4.32C86.02 4.04 86.32 3.8 86.64 3.6C86.8 3.5 86.96 3.44 87.12 3.42C87.18 3.4 87.23 3.39 87.27 3.39C87.33 3.39 87.38 3.38 87.42 3.36C87.64 3.32 87.84 3.33 88.02 3.39C88.08 3.41 88.14 3.43 88.2 3.45C88.28 3.47 88.35 3.49 88.41 3.51C88.67 3.61 88.9 3.67 89.1 3.69C89.22 3.69 89.36 3.73 89.52 3.81C89.62 3.83 89.72 3.86 89.82 3.9C89.92 3.92 90.02 3.94 90.12 3.96C90.24 3.96 90.34 3.99 90.42 4.05C90.44 4.05 90.46 4.06 90.48 4.08C90.52 4.08 90.55 4.08 90.57 4.08C90.73 4.1 90.87 4.14 90.99 4.2C91.11 4.24 91.23 4.3 91.35 4.38C91.63 4.56 91.92 4.76 92.22 4.98C92.4 5.12 92.49 5.31 92.49 5.55V5.7C92.55 5.94 92.49 6.18 92.31 6.42C92.21 6.6 92.13 6.72 92.07 6.78C92.03 6.82 91.91 6.89 91.71 6.99C91.65 7.01 91.58 7.04 91.5 7.08C91.44 7.1 91.36 7.11 91.26 7.11C91.22 7.11 91.17 7.12 91.11 7.14C91.07 7.14 91.03 7.14 90.99 7.14C90.93 7.16 90.87 7.16 90.81 7.14C90.75 7.12 90.69 7.11 90.63 7.11C90.61 7.13 90.58 7.12 90.54 7.08L90.09 6.72C89.77 6.44 89.4 6.28 88.98 6.24C88.9 6.22 88.82 6.21 88.74 6.21C88.66 6.21 88.57 6.2 88.47 6.18C88.21 6.18 88 6.25 87.84 6.39L87.63 6.6C87.45 6.8 87.26 7 87.06 7.2C86.88 7.4 86.7 7.6 86.52 7.8C86.38 7.94 86.26 8.1 86.16 8.28C86.06 8.46 85.96 8.64 85.86 8.82C85.54 9.44 85.3 10.1 85.14 10.8C85.12 10.92 85.1 11.04 85.08 11.16C85.06 11.26 85.04 11.36 85.02 11.46C85.02 11.56 85.02 11.66 85.02 11.76C85.02 11.86 85.03 11.96 85.05 12.06C85.07 12.14 85.08 12.22 85.08 12.3C85.08 12.36 85.09 12.43 85.11 12.51L85.2 13.23C85.22 13.35 85.24 13.48 85.26 13.62C85.3 13.74 85.33 13.86 85.35 13.98C85.55 14.76 85.79 15.55 86.07 16.35C86.17 16.65 86.29 16.91 86.43 17.13L86.61 17.4C86.67 17.48 86.73 17.56 86.79 17.64C86.85 17.7 86.91 17.76 86.97 17.82C87.09 17.9 87.19 17.95 87.27 17.97C87.57 18.03 87.88 18.06 88.2 18.06C88.6 18.02 88.94 17.89 89.22 17.67C89.36 17.57 89.48 17.46 89.58 17.34C89.7 17.22 89.81 17.09 89.91 16.95C90.15 16.67 90.36 16.37 90.54 16.05C90.6 15.93 90.59 15.81 90.51 15.69C90.39 15.49 90.24 15.33 90.06 15.21C89.84 15.05 89.61 14.92 89.37 14.82C89.15 14.7 88.9 14.63 88.62 14.61L88.47 14.55C88.31 14.49 88.14 14.49 87.96 14.55C87.82 14.61 87.67 14.64 87.51 14.64C87.37 14.62 87.22 14.6 87.06 14.58C86.7 14.48 86.39 14.32 86.13 14.1C86.05 14 85.98 13.9 85.92 13.8C85.88 13.7 85.83 13.61 85.77 13.53C85.77 13.49 85.76 13.45 85.74 13.41C85.74 13.37 85.75 13.34 85.77 13.32C85.77 13.22 85.77 13.12 85.77 13.02C85.79 12.92 85.81 12.82 85.83 12.72C85.83 12.7 85.85 12.63 85.89 12.51C85.93 12.41 85.98 12.32 86.04 12.24C86.12 12.14 86.2 12.05 86.28 11.97C86.6 11.67 86.95 11.48 87.33 11.4C87.55 11.34 87.77 11.3 87.99 11.28C88.21 11.24 88.42 11.21 88.62 11.19H91.14C91.3 11.19 91.47 11.19 91.65 11.19C91.83 11.19 92.01 11.18 92.19 11.16C92.35 11.14 92.5 11.13 92.64 11.13C92.8 11.13 92.96 11.13 93.12 11.13C93.3 11.13 93.46 11.16 93.6 11.22C93.82 11.28 93.99 11.41 94.11 11.61C94.17 11.69 94.23 11.78 94.29 11.88C94.35 11.98 94.39 12.08 94.41 12.18C94.43 12.2 94.44 12.23 94.44 12.27C94.44 12.29 94.45 12.32 94.47 12.36L94.68 13.47C94.72 13.63 94.75 13.8 94.77 13.98C94.79 14.16 94.81 14.34 94.83 14.52C94.83 14.62 94.83 14.73 94.83 14.85C94.85 14.95 94.86 15.05 94.86 15.15C94.86 15.23 94.86 15.32 94.86 15.42C94.88 15.52 94.89 15.62 94.89 15.72V17.1C94.89 17.24 94.89 17.4 94.89 17.58C94.91 17.74 94.93 17.9 94.95 18.06C94.97 18.14 94.98 18.22 94.98 18.3C94.98 18.38 94.98 18.47 94.98 18.57C94.96 18.77 94.97 18.98 95.01 19.2C95.05 19.4 95.08 19.61 95.1 19.83C95.12 19.93 95.14 20.04 95.16 20.16C95.2 20.26 95.23 20.37 95.25 20.49C95.27 20.57 95.28 20.66 95.28 20.76C95.3 20.84 95.31 20.93 95.31 21.03C95.31 21.11 95.3 21.19 95.28 21.27C95.28 21.37 95.25 21.46 95.19 21.54C95.15 21.58 95.11 21.64 95.07 21.72C94.99 21.94 94.82 22.12 94.56 22.26C94.36 22.34 94.15 22.4 93.93 22.44C93.75 22.44 93.6 22.47 93.48 22.53ZM110 23.19C109.82 23.19 109.66 23.12 109.52 22.98C109.48 22.92 109.44 22.86 109.4 22.8C109.36 22.74 109.32 22.68 109.28 22.62C109.1 22.2 109.01 21.76 109.01 21.3L108.92 20.58C108.86 20.3 108.81 20.02 108.77 19.74C108.73 19.46 108.66 19.19 108.56 18.93L108.38 18.42C108.38 18.38 108.37 18.34 108.35 18.3C108.35 18.26 108.34 18.22 108.32 18.18L107.87 16.59C107.85 16.55 107.83 16.5 107.81 16.44C107.81 16.38 107.79 16.33 107.75 16.29C107.69 16.17 107.64 16.05 107.6 15.93C107.58 15.79 107.55 15.65 107.51 15.51C107.49 15.41 107.47 15.32 107.45 15.24C107.43 15.14 107.4 15.04 107.36 14.94C107.32 14.82 107.28 14.75 107.24 14.73C107.2 14.69 107.11 14.69 106.97 14.73C106.87 14.75 106.76 14.77 106.64 14.79C106.54 14.79 106.44 14.81 106.34 14.85C106.26 14.87 106.16 14.89 106.04 14.91C105.94 14.91 105.84 14.92 105.74 14.94L105.32 15.03C105.22 15.05 105.11 15.08 104.99 15.12C104.89 15.14 104.79 15.15 104.69 15.15L104.15 15.24C103.99 15.28 103.82 15.32 103.64 15.36C103.46 15.4 103.29 15.44 103.13 15.48C102.65 15.6 102.17 15.69 101.69 15.75C101.53 15.79 101.44 15.86 101.42 15.96C101.4 15.96 101.39 15.97 101.39 15.99C101.27 16.31 101.13 16.63 100.97 16.95C100.83 17.25 100.68 17.56 100.52 17.88C100.48 17.96 100.44 18.04 100.4 18.12C100.38 18.18 100.35 18.25 100.31 18.33C100.29 18.37 100.27 18.42 100.25 18.48C100.23 18.52 100.21 18.56 100.19 18.6C100.07 18.74 100.01 18.91 100.01 19.11C99.9901 19.23 99.9501 19.35 99.8901 19.47C99.8301 19.57 99.7701 19.67 99.7101 19.77C99.6901 19.83 99.6501 19.86 99.5901 19.86C99.5101 19.88 99.4301 19.91 99.3501 19.95C99.2701 19.99 99.1801 20.03 99.0801 20.07C99.0201 20.09 98.9601 20.09 98.9001 20.07C98.8601 20.05 98.8101 20.03 98.7501 20.01C98.7101 19.97 98.6701 19.95 98.6301 19.95C98.4101 19.93 98.2501 19.8 98.1501 19.56C97.9901 19.24 97.8801 18.92 97.8201 18.6C97.8001 18.52 97.8001 18.45 97.8201 18.39C97.8601 18.33 97.8901 18.27 97.9101 18.21C98.0301 18.13 98.1001 18.04 98.1201 17.94V17.91C98.1201 17.65 98.1701 17.41 98.2701 17.19C98.3901 16.95 98.4901 16.72 98.5701 16.5C98.6101 16.38 98.6601 16.26 98.7201 16.14C98.7801 16.02 98.8401 15.9 98.9001 15.78C98.9801 15.64 99.0401 15.51 99.0801 15.39C99.1401 15.25 99.1901 15.11 99.2301 14.97C99.2901 14.81 99.2901 14.66 99.2301 14.52C99.1901 14.4 99.1701 14.29 99.1701 14.19C99.1701 14.07 99.1801 13.95 99.2001 13.83C99.2001 13.61 99.2801 13.42 99.4401 13.26C99.5201 13.16 99.6001 13.08 99.6801 13.02C99.7801 12.94 99.8701 12.86 99.9501 12.78C100.13 12.6 100.27 12.36 100.37 12.06C100.45 11.8 100.51 11.54 100.55 11.28C100.61 11 100.67 10.73 100.73 10.47C100.77 10.21 100.81 9.96 100.85 9.72C100.91 9.46 100.97 9.21 101.03 8.97C101.05 8.87 101.07 8.78 101.09 8.7C101.13 8.6 101.16 8.51 101.18 8.43C101.24 8.27 101.3 8.12 101.36 7.98C101.42 7.82 101.46 7.66 101.48 7.5C101.52 7.42 101.52 7.35 101.48 7.29C101.46 7.19 101.46 7.1 101.48 7.02C101.52 6.94 101.55 6.86 101.57 6.78C101.63 6.64 101.67 6.5 101.69 6.36C101.73 6.22 101.78 6.08 101.84 5.94C101.94 5.68 102.02 5.47 102.08 5.31C102.16 5.13 102.23 4.93 102.29 4.71C102.33 4.59 102.37 4.48 102.41 4.38C102.47 4.26 102.51 4.14 102.53 4.02C102.59 3.84 102.64 3.66 102.68 3.48C102.72 3.28 102.74 3.09 102.74 2.91C102.78 2.75 102.82 2.64 102.86 2.58C102.96 2.38 103.08 2.21 103.22 2.07C103.38 1.93 103.53 1.79 103.67 1.65C103.77 1.59 103.87 1.55 103.97 1.53C104.07 1.49 104.17 1.5 104.27 1.56C104.35 1.6 104.4 1.62 104.42 1.62C104.6 1.6 104.75 1.64 104.87 1.74C104.99 1.84 105.09 1.96 105.17 2.1C105.21 2.14 105.24 2.19 105.26 2.25C105.28 2.31 105.3 2.36 105.32 2.4C105.42 2.56 105.47 2.72 105.47 2.88C105.47 2.96 105.48 3.05 105.5 3.15C105.52 3.23 105.54 3.32 105.56 3.42C105.62 3.54 105.71 3.6 105.83 3.6C105.85 3.58 105.87 3.58 105.89 3.6C105.91 3.62 105.92 3.64 105.92 3.66C106.02 3.78 106.05 3.91 106.01 4.05C105.97 4.21 105.96 4.37 105.98 4.53C106.02 4.67 106.06 4.82 106.1 4.98C106.18 5.18 106.26 5.38 106.34 5.58C106.42 5.78 106.5 5.98 106.58 6.18C106.68 6.4 106.78 6.62 106.88 6.84C106.98 7.06 107.07 7.28 107.15 7.5C107.25 7.78 107.35 8.06 107.45 8.34C107.57 8.62 107.7 8.9 107.84 9.18L107.93 9.51C107.95 9.59 107.97 9.67 107.99 9.75C108.03 9.83 108.06 9.91 108.08 9.99C108.12 10.05 108.15 10.11 108.17 10.17C108.21 10.23 108.25 10.28 108.29 10.32C108.39 10.46 108.45 10.61 108.47 10.77C108.53 10.97 108.62 11.15 108.74 11.31C108.78 11.37 108.84 11.4 108.92 11.4C109.22 11.36 109.52 11.33 109.82 11.31C110.12 11.27 110.42 11.21 110.72 11.13C110.94 11.07 111.15 11.04 111.35 11.04C111.73 11.04 112.08 11.17 112.4 11.43C112.78 11.73 112.98 12.11 113 12.57C113 12.67 113.01 12.75 113.03 12.81C113.03 12.95 112.99 13.06 112.91 13.14C112.89 13.2 112.85 13.26 112.79 13.32C112.75 13.38 112.71 13.44 112.67 13.5C112.63 13.58 112.59 13.64 112.55 13.68L112.37 13.83C112.35 13.87 112.32 13.92 112.28 13.98C112.24 14.02 112.19 14.05 112.13 14.07C112.05 14.09 111.97 14.12 111.89 14.16C111.81 14.18 111.72 14.19 111.62 14.19C111.26 14.23 110.94 14.22 110.66 14.16H110.18C110.14 14.16 110.08 14.18 110 14.22C109.92 14.26 109.88 14.31 109.88 14.37V14.49C109.94 14.67 109.98 14.86 110 15.06C110.04 15.24 110.1 15.41 110.18 15.57C110.18 15.65 110.2 15.73 110.24 15.81C110.34 15.99 110.42 16.18 110.48 16.38C110.54 16.56 110.59 16.75 110.63 16.95C110.63 16.99 110.65 17.07 110.69 17.19C110.75 17.33 110.8 17.48 110.84 17.64C110.88 17.78 110.91 17.93 110.93 18.09C110.93 18.21 110.96 18.32 111.02 18.42C111.1 18.6 111.16 18.78 111.2 18.96C111.24 19.14 111.27 19.33 111.29 19.53C111.31 19.55 111.32 19.59 111.32 19.65C111.32 19.69 111.33 19.73 111.35 19.77C111.45 19.99 111.52 20.23 111.56 20.49C111.6 20.73 111.65 20.97 111.71 21.21C111.75 21.33 111.77 21.45 111.77 21.57C111.79 21.71 111.8 21.85 111.8 21.99C111.8 22.09 111.77 22.2 111.71 22.32C111.65 22.38 111.62 22.41 111.62 22.41C111.5 22.43 111.43 22.5 111.41 22.62L111.32 22.8C111.28 22.88 111.22 22.93 111.14 22.95C111.06 22.95 110.99 22.98 110.93 23.04C110.85 23.12 110.74 23.16 110.6 23.16C110.52 23.16 110.42 23.16 110.3 23.16C110.2 23.16 110.1 23.17 110 23.19ZM102.77 12.3C102.89 12.28 103.01 12.26 103.13 12.24C103.27 12.22 103.42 12.2 103.58 12.18C103.68 12.16 103.81 12.14 103.97 12.12C104.13 12.1 104.28 12.08 104.42 12.06C104.56 12.02 104.7 12 104.84 12C104.98 11.98 105.12 11.96 105.26 11.94C105.38 11.9 105.5 11.88 105.62 11.88C105.74 11.86 105.86 11.84 105.98 11.82C106.16 11.78 106.23 11.68 106.19 11.52C106.17 11.36 106.13 11.2 106.07 11.04C106.03 10.86 105.94 10.71 105.8 10.59C105.76 10.55 105.74 10.49 105.74 10.41V10.32C105.7 10.16 105.65 10.01 105.59 9.87C105.55 9.71 105.5 9.56 105.44 9.42C105.4 9.26 105.35 9.12 105.29 9C105.25 8.86 105.2 8.72 105.14 8.58L104.78 7.5C104.72 7.36 104.66 7.22 104.6 7.08C104.56 6.94 104.52 6.8 104.48 6.66L104.39 6.54H104.3L104.24 6.63C104.14 6.93 104.02 7.23 103.88 7.53C103.76 7.83 103.65 8.15 103.55 8.49C103.55 8.53 103.54 8.58 103.52 8.64C103.5 8.7 103.48 8.76 103.46 8.82C103.38 9.02 103.3 9.24 103.22 9.48C103.16 9.72 103.11 9.96 103.07 10.2C103.05 10.34 103.03 10.48 103.01 10.62C102.99 10.74 102.96 10.87 102.92 11.01L102.65 12.18C102.63 12.2 102.64 12.23 102.68 12.27C102.72 12.29 102.75 12.3 102.77 12.3ZM137.923 22.53C137.843 22.55 137.783 22.53 137.743 22.47C137.663 22.41 137.583 22.35 137.503 22.29C137.443 22.23 137.363 22.17 137.263 22.11C137.103 22.03 136.973 21.89 136.873 21.69C136.693 21.41 136.603 21.11 136.603 20.79C136.603 20.69 136.593 20.59 136.573 20.49C136.573 20.39 136.563 20.29 136.543 20.19C136.543 20.09 136.533 20 136.513 19.92C136.513 19.82 136.513 19.73 136.513 19.65C136.513 19.55 136.513 19.45 136.513 19.35C136.513 19.23 136.503 19.12 136.483 19.02C136.483 19 136.473 18.99 136.453 18.99C136.453 18.97 136.453 18.96 136.453 18.96C136.413 18.96 136.383 18.97 136.363 18.99L136.003 19.44C135.923 19.56 135.823 19.67 135.703 19.77C135.603 19.85 135.503 19.94 135.403 20.04C135.083 20.28 134.763 20.48 134.443 20.64C134.303 20.7 134.173 20.75 134.053 20.79C133.373 21.03 132.703 21.14 132.043 21.12C131.823 21.1 131.593 21.08 131.353 21.06C131.133 21.06 130.903 21.03 130.663 20.97C130.483 20.91 130.303 20.85 130.123 20.79C129.963 20.71 129.803 20.61 129.643 20.49C129.503 20.37 129.363 20.25 129.223 20.13C129.083 19.99 128.953 19.84 128.833 19.68C128.633 19.36 128.503 19.16 128.443 19.08C128.383 19 128.293 18.8 128.173 18.48L128.023 18.21C127.963 18.05 127.893 17.9 127.813 17.76C127.753 17.6 127.703 17.44 127.663 17.28L127.513 16.86C127.473 16.72 127.433 16.59 127.393 16.47C127.353 16.33 127.313 16.19 127.273 16.05C127.193 15.79 127.123 15.53 127.063 15.27C127.003 14.99 126.943 14.72 126.883 14.46L126.793 13.92C126.793 13.88 126.783 13.84 126.763 13.8C126.763 13.74 126.763 13.68 126.763 13.62L126.583 12.75C126.563 12.65 126.553 12.56 126.553 12.48C126.553 12.38 126.553 12.29 126.553 12.21C126.533 12.05 126.523 11.89 126.523 11.73C126.543 11.57 126.553 11.41 126.553 11.25C126.573 11.03 126.603 10.82 126.643 10.62C126.683 10.4 126.723 10.19 126.763 9.99C126.843 9.71 126.923 9.43 127.003 9.15C127.103 8.85 127.213 8.57 127.333 8.31C127.433 8.09 127.533 7.88 127.633 7.68C127.733 7.46 127.853 7.25 127.993 7.05C128.173 6.75 128.363 6.46 128.563 6.18C128.783 5.9 129.003 5.63 129.223 5.37C129.383 5.19 129.543 5.02 129.703 4.86C129.863 4.68 130.023 4.5 130.183 4.32C130.463 4.04 130.763 3.8 131.083 3.6C131.243 3.5 131.403 3.44 131.563 3.42C131.623 3.4 131.673 3.39 131.713 3.39C131.773 3.39 131.823 3.38 131.863 3.36C132.083 3.32 132.283 3.33 132.463 3.39C132.523 3.41 132.583 3.43 132.643 3.45C132.723 3.47 132.793 3.49 132.853 3.51C133.113 3.61 133.343 3.67 133.543 3.69C133.663 3.69 133.803 3.73 133.963 3.81C134.063 3.83 134.163 3.86 134.263 3.9C134.363 3.92 134.463 3.94 134.563 3.96C134.683 3.96 134.783 3.99 134.863 4.05C134.883 4.05 134.903 4.06 134.923 4.08C134.963 4.08 134.993 4.08 135.013 4.08C135.173 4.1 135.313 4.14 135.433 4.2C135.553 4.24 135.673 4.3 135.793 4.38C136.073 4.56 136.363 4.76 136.663 4.98C136.843 5.12 136.933 5.31 136.933 5.55V5.7C136.993 5.94 136.933 6.18 136.753 6.42C136.653 6.6 136.573 6.72 136.513 6.78C136.473 6.82 136.353 6.89 136.153 6.99C136.093 7.01 136.023 7.04 135.943 7.08C135.883 7.1 135.803 7.11 135.703 7.11C135.663 7.11 135.613 7.12 135.553 7.14C135.513 7.14 135.473 7.14 135.433 7.14C135.373 7.16 135.313 7.16 135.253 7.14C135.193 7.12 135.133 7.11 135.073 7.11C135.053 7.13 135.023 7.12 134.983 7.08L134.533 6.72C134.213 6.44 133.843 6.28 133.423 6.24C133.343 6.22 133.263 6.21 133.183 6.21C133.103 6.21 133.013 6.2 132.913 6.18C132.653 6.18 132.443 6.25 132.283 6.39L132.073 6.6C131.893 6.8 131.703 7 131.503 7.2C131.323 7.4 131.143 7.6 130.963 7.8C130.823 7.94 130.703 8.1 130.603 8.28C130.503 8.46 130.403 8.64 130.303 8.82C129.983 9.44 129.743 10.1 129.583 10.8C129.563 10.92 129.543 11.04 129.523 11.16C129.503 11.26 129.483 11.36 129.463 11.46C129.463 11.56 129.463 11.66 129.463 11.76C129.463 11.86 129.473 11.96 129.493 12.06C129.513 12.14 129.523 12.22 129.523 12.3C129.523 12.36 129.533 12.43 129.553 12.51L129.643 13.23C129.663 13.35 129.683 13.48 129.703 13.62C129.743 13.74 129.773 13.86 129.793 13.98C129.993 14.76 130.233 15.55 130.513 16.35C130.613 16.65 130.733 16.91 130.873 17.13L131.053 17.4C131.113 17.48 131.173 17.56 131.233 17.64C131.293 17.7 131.353 17.76 131.413 17.82C131.533 17.9 131.633 17.95 131.713 17.97C132.013 18.03 132.323 18.06 132.643 18.06C133.043 18.02 133.383 17.89 133.663 17.67C133.803 17.57 133.923 17.46 134.023 17.34C134.143 17.22 134.253 17.09 134.353 16.95C134.593 16.67 134.803 16.37 134.983 16.05C135.043 15.93 135.033 15.81 134.953 15.69C134.833 15.49 134.683 15.33 134.503 15.21C134.283 15.05 134.053 14.92 133.813 14.82C133.593 14.7 133.343 14.63 133.063 14.61L132.913 14.55C132.753 14.49 132.583 14.49 132.403 14.55C132.263 14.61 132.113 14.64 131.953 14.64C131.813 14.62 131.663 14.6 131.503 14.58C131.143 14.48 130.833 14.32 130.573 14.1C130.493 14 130.423 13.9 130.363 13.8C130.323 13.7 130.273 13.61 130.213 13.53C130.213 13.49 130.203 13.45 130.183 13.41C130.183 13.37 130.193 13.34 130.213 13.32C130.213 13.22 130.213 13.12 130.213 13.02C130.233 12.92 130.253 12.82 130.273 12.72C130.273 12.7 130.293 12.63 130.333 12.51C130.373 12.41 130.423 12.32 130.483 12.24C130.563 12.14 130.643 12.05 130.723 11.97C131.043 11.67 131.393 11.48 131.773 11.4C131.993 11.34 132.213 11.3 132.433 11.28C132.653 11.24 132.863 11.21 133.063 11.19H135.583C135.743 11.19 135.913 11.19 136.093 11.19C136.273 11.19 136.453 11.18 136.633 11.16C136.793 11.14 136.943 11.13 137.083 11.13C137.243 11.13 137.403 11.13 137.563 11.13C137.743 11.13 137.903 11.16 138.043 11.22C138.263 11.28 138.433 11.41 138.553 11.61C138.613 11.69 138.673 11.78 138.733 11.88C138.793 11.98 138.833 12.08 138.853 12.18C138.873 12.2 138.883 12.23 138.883 12.27C138.883 12.29 138.893 12.32 138.913 12.36L139.123 13.47C139.163 13.63 139.193 13.8 139.213 13.98C139.233 14.16 139.253 14.34 139.273 14.52C139.273 14.62 139.273 14.73 139.273 14.85C139.293 14.95 139.303 15.05 139.303 15.15C139.303 15.23 139.303 15.32 139.303 15.42C139.323 15.52 139.333 15.62 139.333 15.72V17.1C139.333 17.24 139.333 17.4 139.333 17.58C139.353 17.74 139.373 17.9 139.393 18.06C139.413 18.14 139.423 18.22 139.423 18.3C139.423 18.38 139.423 18.47 139.423 18.57C139.403 18.77 139.413 18.98 139.453 19.2C139.493 19.4 139.523 19.61 139.543 19.83C139.563 19.93 139.583 20.04 139.603 20.16C139.643 20.26 139.673 20.37 139.693 20.49C139.713 20.57 139.723 20.66 139.723 20.76C139.743 20.84 139.753 20.93 139.753 21.03C139.753 21.11 139.743 21.19 139.723 21.27C139.723 21.37 139.693 21.46 139.633 21.54C139.593 21.58 139.553 21.64 139.513 21.72C139.433 21.94 139.263 22.12 139.003 22.26C138.803 22.34 138.593 22.4 138.373 22.44C138.193 22.44 138.043 22.47 137.923 22.53ZM154.443 23.19C154.263 23.19 154.103 23.12 153.963 22.98C153.923 22.92 153.883 22.86 153.843 22.8C153.803 22.74 153.763 22.68 153.723 22.62C153.543 22.2 153.453 21.76 153.453 21.3L153.363 20.58C153.303 20.3 153.253 20.02 153.213 19.74C153.173 19.46 153.103 19.19 153.003 18.93L152.823 18.42C152.823 18.38 152.813 18.34 152.793 18.3C152.793 18.26 152.783 18.22 152.763 18.18L152.313 16.59C152.293 16.55 152.273 16.5 152.253 16.44C152.253 16.38 152.233 16.33 152.193 16.29C152.133 16.17 152.083 16.05 152.043 15.93C152.023 15.79 151.993 15.65 151.953 15.51C151.933 15.41 151.913 15.32 151.893 15.24C151.873 15.14 151.843 15.04 151.803 14.94C151.763 14.82 151.723 14.75 151.683 14.73C151.643 14.69 151.553 14.69 151.413 14.73C151.313 14.75 151.203 14.77 151.083 14.79C150.983 14.79 150.883 14.81 150.783 14.85C150.703 14.87 150.603 14.89 150.483 14.91C150.383 14.91 150.283 14.92 150.183 14.94L149.763 15.03C149.663 15.05 149.553 15.08 149.433 15.12C149.333 15.14 149.233 15.15 149.133 15.15L148.593 15.24C148.433 15.28 148.263 15.32 148.083 15.36C147.903 15.4 147.733 15.44 147.573 15.48C147.093 15.6 146.613 15.69 146.133 15.75C145.973 15.79 145.883 15.86 145.863 15.96C145.843 15.96 145.833 15.97 145.833 15.99C145.713 16.31 145.573 16.63 145.413 16.95C145.273 17.25 145.123 17.56 144.963 17.88C144.923 17.96 144.883 18.04 144.843 18.12C144.823 18.18 144.793 18.25 144.753 18.33C144.733 18.37 144.713 18.42 144.693 18.48C144.673 18.52 144.653 18.56 144.633 18.6C144.513 18.74 144.453 18.91 144.453 19.11C144.433 19.23 144.393 19.35 144.333 19.47C144.273 19.57 144.213 19.67 144.153 19.77C144.133 19.83 144.093 19.86 144.033 19.86C143.953 19.88 143.873 19.91 143.793 19.95C143.713 19.99 143.623 20.03 143.523 20.07C143.463 20.09 143.403 20.09 143.343 20.07C143.303 20.05 143.253 20.03 143.193 20.01C143.153 19.97 143.113 19.95 143.073 19.95C142.853 19.93 142.693 19.8 142.593 19.56C142.433 19.24 142.323 18.92 142.263 18.6C142.243 18.52 142.243 18.45 142.263 18.39C142.303 18.33 142.333 18.27 142.353 18.21C142.473 18.13 142.543 18.04 142.563 17.94V17.91C142.563 17.65 142.613 17.41 142.713 17.19C142.833 16.95 142.933 16.72 143.013 16.5C143.053 16.38 143.103 16.26 143.163 16.14C143.223 16.02 143.283 15.9 143.343 15.78C143.423 15.64 143.483 15.51 143.523 15.39C143.583 15.25 143.633 15.11 143.673 14.97C143.733 14.81 143.733 14.66 143.673 14.52C143.633 14.4 143.613 14.29 143.613 14.19C143.613 14.07 143.623 13.95 143.643 13.83C143.643 13.61 143.723 13.42 143.883 13.26C143.963 13.16 144.043 13.08 144.123 13.02C144.223 12.94 144.313 12.86 144.393 12.78C144.573 12.6 144.713 12.36 144.813 12.06C144.893 11.8 144.953 11.54 144.993 11.28C145.053 11 145.113 10.73 145.173 10.47C145.213 10.21 145.253 9.96 145.293 9.72C145.353 9.46 145.413 9.21 145.473 8.97C145.493 8.87 145.513 8.78 145.533 8.7C145.573 8.6 145.603 8.51 145.623 8.43C145.683 8.27 145.743 8.12 145.803 7.98C145.863 7.82 145.903 7.66 145.923 7.5C145.963 7.42 145.963 7.35 145.923 7.29C145.903 7.19 145.903 7.1 145.923 7.02C145.963 6.94 145.993 6.86 146.013 6.78C146.073 6.64 146.113 6.5 146.133 6.36C146.173 6.22 146.223 6.08 146.283 5.94C146.383 5.68 146.463 5.47 146.523 5.31C146.603 5.13 146.673 4.93 146.733 4.71C146.773 4.59 146.813 4.48 146.853 4.38C146.913 4.26 146.953 4.14 146.973 4.02C147.033 3.84 147.083 3.66 147.123 3.48C147.163 3.28 147.183 3.09 147.183 2.91C147.223 2.75 147.263 2.64 147.303 2.58C147.403 2.38 147.523 2.21 147.663 2.07C147.823 1.93 147.973 1.79 148.113 1.65C148.213 1.59 148.313 1.55 148.413 1.53C148.513 1.49 148.613 1.5 148.713 1.56C148.793 1.6 148.843 1.62 148.863 1.62C149.043 1.6 149.193 1.64 149.313 1.74C149.433 1.84 149.533 1.96 149.613 2.1C149.653 2.14 149.683 2.19 149.703 2.25C149.723 2.31 149.743 2.36 149.763 2.4C149.863 2.56 149.913 2.72 149.913 2.88C149.913 2.96 149.923 3.05 149.943 3.15C149.963 3.23 149.983 3.32 150.003 3.42C150.063 3.54 150.153 3.6 150.273 3.6C150.293 3.58 150.313 3.58 150.333 3.6C150.353 3.62 150.363 3.64 150.363 3.66C150.463 3.78 150.493 3.91 150.453 4.05C150.413 4.21 150.403 4.37 150.423 4.53C150.463 4.67 150.503 4.82 150.543 4.98C150.623 5.18 150.703 5.38 150.783 5.58C150.863 5.78 150.943 5.98 151.023 6.18C151.123 6.4 151.223 6.62 151.323 6.84C151.423 7.06 151.513 7.28 151.593 7.5C151.693 7.78 151.793 8.06 151.893 8.34C152.013 8.62 152.143 8.9 152.283 9.18L152.373 9.51C152.393 9.59 152.413 9.67 152.433 9.75C152.473 9.83 152.503 9.91 152.523 9.99C152.563 10.05 152.593 10.11 152.613 10.17C152.653 10.23 152.693 10.28 152.733 10.32C152.833 10.46 152.893 10.61 152.913 10.77C152.973 10.97 153.063 11.15 153.183 11.31C153.223 11.37 153.283 11.4 153.363 11.4C153.663 11.36 153.963 11.33 154.263 11.31C154.563 11.27 154.863 11.21 155.163 11.13C155.383 11.07 155.593 11.04 155.793 11.04C156.173 11.04 156.523 11.17 156.843 11.43C157.223 11.73 157.423 12.11 157.443 12.57C157.443 12.67 157.453 12.75 157.473 12.81C157.473 12.95 157.433 13.06 157.353 13.14C157.333 13.2 157.293 13.26 157.233 13.32C157.193 13.38 157.153 13.44 157.113 13.5C157.073 13.58 157.033 13.64 156.993 13.68L156.813 13.83C156.793 13.87 156.763 13.92 156.723 13.98C156.683 14.02 156.633 14.05 156.573 14.07C156.493 14.09 156.413 14.12 156.333 14.16C156.253 14.18 156.163 14.19 156.063 14.19C155.703 14.23 155.383 14.22 155.103 14.16H154.623C154.583 14.16 154.523 14.18 154.443 14.22C154.363 14.26 154.323 14.31 154.323 14.37V14.49C154.383 14.67 154.423 14.86 154.443 15.06C154.483 15.24 154.543 15.41 154.623 15.57C154.623 15.65 154.643 15.73 154.683 15.81C154.783 15.99 154.863 16.18 154.923 16.38C154.983 16.56 155.033 16.75 155.073 16.95C155.073 16.99 155.093 17.07 155.133 17.19C155.193 17.33 155.243 17.48 155.283 17.64C155.323 17.78 155.353 17.93 155.373 18.09C155.373 18.21 155.403 18.32 155.463 18.42C155.543 18.6 155.603 18.78 155.643 18.96C155.683 19.14 155.713 19.33 155.733 19.53C155.753 19.55 155.763 19.59 155.763 19.65C155.763 19.69 155.773 19.73 155.793 19.77C155.893 19.99 155.963 20.23 156.003 20.49C156.043 20.73 156.093 20.97 156.153 21.21C156.193 21.33 156.213 21.45 156.213 21.57C156.233 21.71 156.243 21.85 156.243 21.99C156.243 22.09 156.213 22.2 156.153 22.32C156.093 22.38 156.063 22.41 156.063 22.41C155.943 22.43 155.873 22.5 155.853 22.62L155.763 22.8C155.723 22.88 155.663 22.93 155.583 22.95C155.503 22.95 155.433 22.98 155.373 23.04C155.293 23.12 155.183 23.16 155.043 23.16C154.963 23.16 154.863 23.16 154.743 23.16C154.643 23.16 154.543 23.17 154.443 23.19ZM147.213 12.3C147.333 12.28 147.453 12.26 147.573 12.24C147.713 12.22 147.863 12.2 148.023 12.18C148.123 12.16 148.253 12.14 148.413 12.12C148.573 12.1 148.723 12.08 148.863 12.06C149.003 12.02 149.143 12 149.283 12C149.423 11.98 149.563 11.96 149.703 11.94C149.823 11.9 149.943 11.88 150.063 11.88C150.183 11.86 150.303 11.84 150.423 11.82C150.603 11.78 150.673 11.68 150.633 11.52C150.613 11.36 150.573 11.2 150.513 11.04C150.473 10.86 150.383 10.71 150.243 10.59C150.203 10.55 150.183 10.49 150.183 10.41V10.32C150.143 10.16 150.093 10.01 150.033 9.87C149.993 9.71 149.943 9.56 149.883 9.42C149.843 9.26 149.793 9.12 149.733 9C149.693 8.86 149.643 8.72 149.583 8.58L149.223 7.5C149.163 7.36 149.103 7.22 149.043 7.08C149.003 6.94 148.963 6.8 148.923 6.66L148.833 6.54H148.743L148.683 6.63C148.583 6.93 148.463 7.23 148.323 7.53C148.203 7.83 148.093 8.15 147.993 8.49C147.993 8.53 147.983 8.58 147.963 8.64C147.943 8.7 147.923 8.76 147.903 8.82C147.823 9.02 147.743 9.24 147.663 9.48C147.603 9.72 147.553 9.96 147.513 10.2C147.493 10.34 147.473 10.48 147.453 10.62C147.433 10.74 147.403 10.87 147.363 11.01L147.093 12.18C147.073 12.2 147.083 12.23 147.123 12.27C147.163 12.29 147.193 12.3 147.213 12.3Z" fill="#353535"/>
</svg>
