<svg width="201" height="57" viewBox="0 0 201 57" fill="none" xmlns="http://www.w3.org/2000/svg">
<path d="M7.88066 37V36.95H7.43066C7.19733 36.9833 6.964 36.9667 6.73066 36.9C6.53066 36.8333 6.34733 36.75 6.18066 36.65C6.014 36.55 5.83066 36.4667 5.63066 36.4C5.43066 36.3333 5.24733 36.2333 5.08066 36.1C4.74733 35.8333 4.43066 35.5667 4.13066 35.3C3.83066 35 3.54733 34.6833 3.28066 34.35C3.214 34.2833 3.14733 34.2167 3.08066 34.15C3.014 34.05 2.94733 33.95 2.88066 33.85L1.98066 32.35C1.914 32.2833 1.84733 32.1833 1.78066 32.05L1.18066 30.8C1.114 30.6667 1.064 30.55 1.03066 30.45C0.963998 30.1167 0.880664 29.7833 0.780664 29.45C0.713997 29.0833 0.647331 28.7333 0.580664 28.4L0.280664 25.4C0.180664 24.9 0.163997 24.3667 0.230664 23.8C0.397331 22.7333 0.747331 21.7833 1.28066 20.95C1.44733 20.6833 1.614 20.4333 1.78066 20.2C1.98066 19.9667 2.19733 19.7333 2.43066 19.5C2.49733 19.4 2.58066 19.3167 2.68066 19.25C2.78066 19.15 2.84733 19.05 2.88066 18.95C3.18066 18.4833 3.564 18.0833 4.03066 17.75C4.164 17.65 4.28066 17.55 4.38066 17.45C4.514 17.35 4.64733 17.2333 4.78066 17.1L5.68066 16.2C5.94733 16 6.14733 15.75 6.28066 15.45C6.44733 15.25 6.44733 15.0667 6.28066 14.9C6.08066 14.7 5.88066 14.5 5.68066 14.3C5.514 14.1 5.33066 13.9167 5.13066 13.75C5.03066 13.65 4.914 13.5667 4.78066 13.5C4.68066 13.4 4.564 13.3167 4.43066 13.25C3.89733 12.95 3.43066 12.5833 3.03066 12.15L2.93066 12.05C2.69733 11.7167 2.48066 11.3833 2.28066 11.05C2.08066 10.7167 1.94733 10.35 1.88066 9.95C1.84733 9.88333 1.83066 9.83333 1.83066 9.8C1.83066 9.73333 1.814 9.68333 1.78066 9.65C1.64733 9.11667 1.64733 8.63333 1.78066 8.2C1.914 7.73333 2.14733 7.3 2.48066 6.9C2.74733 6.63333 3.014 6.38333 3.28066 6.15C3.58066 5.91667 3.88066 5.71667 4.18066 5.55C4.514 5.38333 4.83066 5.21667 5.13066 5.05C5.464 4.88333 5.79733 4.73333 6.13066 4.6C6.764 4.36667 7.39733 4.13333 8.03066 3.9C8.664 3.63333 9.29733 3.41667 9.93066 3.25C10.1973 3.18333 10.464 3.11666 10.7307 3.05C11.0307 2.95 11.3307 2.88333 11.6307 2.85C11.964 2.78333 12.2973 2.73333 12.6307 2.7C12.9973 2.63333 13.3473 2.61667 13.6807 2.65C14.014 2.65 14.3307 2.7 14.6307 2.8L15.2807 3.1C15.7807 3.3 16.1807 3.63333 16.4807 4.1C16.7473 4.5 17.014 4.86667 17.2807 5.2C17.614 5.66666 17.7807 6.21666 17.7807 6.85V7.15C17.7807 7.41667 17.864 7.61666 18.0307 7.75L18.5307 8.1C19.0307 8.46667 19.364 8.95 19.5307 9.55C19.6973 10.1167 19.6807 10.6667 19.4807 11.2C19.3807 11.4333 19.264 11.6333 19.1307 11.8C19.0307 11.9667 18.8807 12.1 18.6807 12.2C18.414 12.3667 18.164 12.5667 17.9307 12.8C17.6973 13 17.4807 13.2167 17.2807 13.45C17.1473 13.5833 16.9973 13.75 16.8307 13.95C16.6973 14.1167 16.5473 14.2833 16.3807 14.45C16.214 14.6833 16.0307 14.9 15.8307 15.1C15.6307 15.2667 15.414 15.4333 15.1807 15.6C15.0473 15.7333 14.964 15.8833 14.9307 16.05C14.9307 16.2167 14.8807 16.3833 14.7807 16.55C14.7807 16.5833 14.764 16.6333 14.7307 16.7C14.6973 16.7667 14.664 16.8333 14.6307 16.9C14.6307 17 14.6473 17.0833 14.6807 17.15C14.7473 17.1833 14.7973 17.2167 14.8307 17.25C14.864 17.2833 14.8973 17.3167 14.9307 17.35L15.5307 17.75C16.2307 18.2167 16.7973 18.8 17.2307 19.5L17.5807 20.1C17.8807 20.5 18.0807 20.9667 18.1807 21.5C18.2473 21.8333 18.314 22.1667 18.3807 22.5C18.4473 22.8 18.4973 23.1167 18.5307 23.45V23.65C18.5973 24.55 18.5973 25.45 18.5307 26.35L18.3807 27.7C18.3807 27.7667 18.364 27.85 18.3307 27.95C18.2973 28.05 18.264 28.1333 18.2307 28.2L17.7807 29.4C17.714 29.7 17.5973 29.9333 17.4307 30.1L17.2807 30.35C17.1807 30.5833 17.064 30.8 16.9307 31C16.7973 31.2 16.6473 31.4 16.4807 31.6C15.8473 32.5333 15.1473 33.4333 14.3807 34.3C14.2473 34.4333 14.114 34.5833 13.9807 34.75C13.8807 34.8833 13.7473 35.0167 13.5807 35.15C13.3473 35.3833 13.064 35.5833 12.7307 35.75C12.364 35.9167 11.9807 36.0667 11.5807 36.2C11.1807 36.3333 10.7807 36.4333 10.3807 36.5C10.214 36.5 10.0473 36.5333 9.88066 36.6C9.714 36.6667 9.54733 36.7167 9.38066 36.75C9.24733 36.7833 9.13066 36.8167 9.03066 36.85C8.93066 36.8833 8.814 36.9167 8.68066 36.95C8.54733 36.9833 8.414 37 8.28066 37C8.14733 37 8.014 37 7.88066 37ZM11.2807 12.3C11.514 12.3 11.664 12.2667 11.7307 12.2L12.4807 11.65C12.614 11.4833 12.614 11.3167 12.4807 11.15L12.2307 10.7C12.0973 10.5333 11.964 10.3667 11.8307 10.2C11.7307 10 11.5973 9.83333 11.4307 9.7C11.2307 9.5 11.0807 9.28333 10.9807 9.05C10.8473 8.81666 10.6473 8.6 10.3807 8.4C10.214 8.3 10.0473 8.26667 9.88066 8.3C9.714 8.4 9.53066 8.43333 9.33066 8.4C9.064 8.4 8.84733 8.46667 8.68066 8.6C8.514 8.66666 8.33066 8.73333 8.13066 8.8C7.99733 8.8 7.864 8.83333 7.73066 8.9C7.59733 8.96667 7.48066 9.03333 7.38066 9.1C7.24733 9.16666 7.23066 9.25 7.33066 9.35C7.364 9.38333 7.39733 9.41667 7.43066 9.45C7.464 9.48333 7.49733 9.51667 7.53066 9.55C7.864 9.75 8.18066 9.96667 8.48066 10.2C8.78066 10.4 9.08066 10.6333 9.38066 10.9C9.54733 11.0667 9.714 11.2333 9.88066 11.4C10.0807 11.5333 10.264 11.6833 10.4307 11.85C10.5307 12.0167 10.7307 12.15 11.0307 12.25C11.0973 12.2833 11.1807 12.3 11.2807 12.3ZM9.68066 31.65C10.0473 31.6833 10.364 31.55 10.6307 31.25L10.6807 31.2C10.9807 30.8667 11.2807 30.5333 11.5807 30.2C11.914 29.8333 12.2307 29.4833 12.5307 29.15L12.6807 29.05C12.914 28.75 13.114 28.45 13.2807 28.15C13.4473 27.85 13.5973 27.5333 13.7307 27.2C13.864 26.7667 13.964 26.35 14.0307 25.95C14.0973 25.5167 14.1307 25.0833 14.1307 24.65C14.1307 24.3833 14.1307 24.1333 14.1307 23.9C14.1307 23.6667 14.0973 23.4333 14.0307 23.2C13.9307 22.7667 13.7807 22.3833 13.5807 22.05C13.3807 21.6833 13.0807 21.3833 12.6807 21.15H12.6307C12.3307 20.95 12.0473 20.75 11.7807 20.55C11.514 20.35 11.2473 20.1167 10.9807 19.85L10.8307 19.7C10.664 19.5667 10.4473 19.45 10.1807 19.35C10.0807 19.35 9.99733 19.3667 9.93066 19.4C9.89733 19.4333 9.83066 19.4833 9.73066 19.55C9.664 19.6167 9.59733 19.6833 9.53066 19.75C9.43066 19.8167 9.33066 19.9 9.23066 20C9.13066 20.1 9.014 20.1833 8.88066 20.25C8.68066 20.3833 8.48066 20.5167 8.28066 20.65C8.114 20.75 7.94733 20.8833 7.78066 21.05C7.64733 21.1833 7.49733 21.2667 7.33066 21.3C7.264 21.3 7.19733 21.3167 7.13066 21.35C7.064 21.3833 6.99733 21.4167 6.93066 21.45C6.79733 21.5833 6.73066 21.7167 6.73066 21.85C6.764 21.9833 6.69733 22.0833 6.53066 22.15C6.33066 22.2167 6.18066 22.3167 6.08066 22.45C6.014 22.5833 5.94733 22.7 5.88066 22.8C5.814 22.9 5.764 23.0167 5.73066 23.15C5.664 23.2833 5.614 23.3667 5.58066 23.4C5.54733 23.4333 5.514 23.4833 5.48066 23.55C5.44733 23.5833 5.414 23.6167 5.38066 23.65C5.214 23.9167 5.14733 24.1667 5.18066 24.4C5.24733 24.5 5.23066 24.6667 5.13066 24.9C5.03066 25 5.03066 25.1167 5.13066 25.25C5.19733 25.35 5.23066 25.4667 5.23066 25.6C5.23066 25.7333 5.24733 25.8667 5.28066 26C5.314 26.0333 5.314 26.0833 5.28066 26.15C5.24733 26.1833 5.23066 26.2333 5.23066 26.3V26.5C5.23066 26.5333 5.23066 26.5833 5.23066 26.65C5.264 26.6833 5.28066 26.7333 5.28066 26.8C5.28066 27.0667 5.314 27.3333 5.38066 27.6C5.48066 27.8333 5.564 28.0833 5.63066 28.35L5.78066 28.7C5.78066 28.8333 5.814 28.9667 5.88066 29.1C5.94733 29.2 6.014 29.3 6.08066 29.4C6.24733 29.6 6.39733 29.8 6.53066 30C6.69733 30.2 6.864 30.3833 7.03066 30.55C7.13066 30.65 7.23066 30.75 7.33066 30.85C7.43066 30.9167 7.54733 30.9833 7.68066 31.05C7.78066 31.0833 7.864 31.1333 7.93066 31.2C8.03066 31.2667 8.13066 31.3333 8.23066 31.4L8.73066 31.55C8.864 31.5833 8.99733 31.6167 9.13066 31.65C9.29733 31.65 9.44733 31.65 9.58066 31.65H9.68066ZM25.3682 38.9C25.2682 38.8333 25.1848 38.75 25.1182 38.65C24.8515 38.2833 24.6848 37.8167 24.6182 37.25C24.5848 37.15 24.5682 37.0167 24.5682 36.85C24.5682 36.4167 24.4348 35.9833 24.1682 35.55C24.1015 35.4833 24.0348 35.4167 23.9682 35.35C23.9015 35.25 23.8348 35.15 23.7682 35.05C23.5348 34.7833 23.3682 34.4333 23.2682 34C23.2348 33.9 23.2015 33.8 23.1682 33.7C23.1682 33.6 23.1682 33.4833 23.1682 33.35C23.1348 33.0833 23.1348 32.8333 23.1682 32.6C23.1682 32.5333 23.1682 32.4833 23.1682 32.45C23.2015 32.3833 23.2182 32.3167 23.2182 32.25C23.3515 31.6167 23.6515 31.05 24.1182 30.55C24.1515 30.4833 24.2348 30.3833 24.3682 30.25C24.6015 30.0833 24.8015 29.9 24.9682 29.7C25.1348 29.5 25.3182 29.3 25.5182 29.1C25.9848 28.6 26.5348 28.1333 27.1682 27.7L27.9182 27.2C28.5182 26.6667 29.1015 26.2667 29.6682 26C29.9015 25.9333 30.1015 25.8333 30.2682 25.7C30.4348 25.5667 30.6015 25.4333 30.7682 25.3C30.9348 25.1667 31.0015 25.0167 30.9682 24.85C30.9348 24.7167 30.9015 24.5833 30.8682 24.45C30.8348 24.3167 30.8015 24.1833 30.7682 24.05C30.7015 23.6167 30.6348 23.1833 30.5682 22.75C30.5348 22.2833 30.5182 21.8333 30.5182 21.4V20C30.5182 19.7667 30.5182 19.5333 30.5182 19.3C30.5515 19.0667 30.5848 18.8333 30.6182 18.6L30.7682 17C30.8015 16.8667 30.8182 16.75 30.8182 16.65C30.8182 16.5167 30.8348 16.3833 30.8682 16.25C30.9348 15.9833 30.9848 15.7167 31.0182 15.45C31.0848 15.15 31.1515 14.8667 31.2182 14.6C31.2848 14.2667 31.3682 13.95 31.4682 13.65C31.5682 13.35 31.6848 13.05 31.8182 12.75C31.9515 12.4833 32.0848 12.2167 32.2182 11.95C32.3848 11.6833 32.5348 11.4333 32.6682 11.2C32.8348 10.9333 33.0182 10.6667 33.2182 10.4C33.4182 10.1333 33.6182 9.88333 33.8182 9.65C34.1515 9.31666 34.4848 9.03333 34.8182 8.8C35.4182 8.36667 36.0848 8 36.8182 7.7C37.5515 7.36667 38.4015 7.15 39.3682 7.05L41.0182 6.75C41.1848 6.75 41.3182 6.7 41.4182 6.6C41.6182 6.43333 41.8182 6.28333 42.0182 6.15C42.2182 5.98333 42.4182 5.81666 42.6182 5.65C42.6848 5.61667 42.7182 5.58333 42.7182 5.55C42.7515 5.51666 42.7848 5.48333 42.8182 5.45C43.0848 5.11666 43.3848 4.93333 43.7182 4.9C43.9182 4.86667 44.1015 4.83333 44.2682 4.8C44.4682 4.76666 44.6682 4.73333 44.8682 4.7C45.5348 4.5 46.1182 4.7 46.6182 5.3C46.7848 5.5 46.8848 5.71667 46.9182 5.95C46.9182 6.08333 46.9182 6.21666 46.9182 6.35C46.9515 6.45 46.9848 6.56667 47.0182 6.7C47.0182 7.1 47.1848 7.46666 47.5182 7.8C47.6848 8 47.8348 8.2 47.9682 8.4C48.1348 8.6 48.2848 8.8 48.4182 9C48.4848 9.13333 48.5515 9.26666 48.6182 9.4C48.7182 9.5 48.8015 9.63333 48.8682 9.8C48.9682 10.0333 49.0682 10.2667 49.1682 10.5C49.2682 10.7333 49.3848 10.9667 49.5182 11.2C49.5848 11.3333 49.6515 11.4333 49.7182 11.5C49.7182 11.5333 49.7515 11.55 49.8182 11.55C49.8515 11.55 49.8682 11.55 49.8682 11.55C49.8682 11.5167 49.8848 11.5 49.9182 11.5L53.1682 8.8C53.2682 8.7 53.3682 8.61667 53.4682 8.55C53.6015 8.45 53.7348 8.35 53.8682 8.25C54.4682 7.81667 55.1515 7.51667 55.9182 7.35C56.4515 7.21667 56.9848 7.25 57.5182 7.45C57.7848 7.58333 58.0182 7.73333 58.2182 7.9C58.4515 8.06667 58.6182 8.3 58.7182 8.6C58.8515 8.9 58.9682 9.23333 59.0682 9.6C59.1015 9.83333 59.1015 10.0667 59.0682 10.3L58.7682 11.1C58.7348 11.2333 58.6682 11.35 58.5682 11.45C58.5015 11.55 58.4348 11.65 58.3682 11.75C58.2348 11.8833 58.1015 12.0167 57.9682 12.15C57.8348 12.25 57.6848 12.3333 57.5182 12.4C57.4515 12.4333 57.3848 12.4667 57.3182 12.5C57.2515 12.5333 57.1848 12.5667 57.1182 12.6C57.0182 12.6333 56.9182 12.6833 56.8182 12.75C56.7182 12.8167 56.6348 12.8833 56.5682 12.95C56.3682 13.1167 56.1848 13.2167 56.0182 13.25C55.7848 13.2833 55.5515 13.35 55.3182 13.45C55.1182 13.55 54.9348 13.6667 54.7682 13.8C54.5348 13.9333 54.3015 14.0667 54.0682 14.2C53.8682 14.3333 53.6515 14.4667 53.4182 14.6C53.1848 14.7333 52.9515 14.9167 52.7182 15.15L51.5682 16.15L51.3682 16.35C51.2348 16.4833 51.1848 16.65 51.2182 16.85L51.3682 18C51.4348 18.4333 51.5015 18.85 51.5682 19.25C51.6348 19.65 51.6848 20.0667 51.7182 20.5C51.7515 20.7333 51.7682 20.9667 51.7682 21.2C51.8015 21.4 51.8182 21.6167 51.8182 21.85C51.8515 22.0833 51.8848 22.3167 51.9182 22.55C51.9515 22.75 51.9848 22.9667 52.0182 23.2C52.0848 23.5667 52.1182 23.95 52.1182 24.35C52.1182 24.7167 52.1015 25.0833 52.0682 25.45C52.0348 25.65 52.0015 25.85 51.9682 26.05C51.9348 26.25 51.8848 26.45 51.8182 26.65C51.7848 26.85 51.7348 27.05 51.6682 27.25C51.6348 27.4167 51.6182 27.6 51.6182 27.8C51.5848 28.2333 51.4848 28.6833 51.3182 29.15C51.2515 29.3833 51.1682 29.65 51.0682 29.95C51.0015 30.2167 50.9182 30.4833 50.8182 30.75C50.7182 31.0833 50.5848 31.4167 50.4182 31.75C50.2515 32.0833 50.0848 32.4167 49.9182 32.75C49.8515 32.8833 49.7682 33 49.6682 33.1C49.6015 33.2 49.5348 33.3 49.4682 33.4C49.3348 33.5333 49.2015 33.6667 49.0682 33.8C48.9682 33.9333 48.8682 34.0833 48.7682 34.25C48.6348 34.4833 48.4348 34.6833 48.1682 34.85C47.9015 35.0167 47.6515 35.0833 47.4182 35.05C47.3848 35.05 47.3515 35.05 47.3182 35.05C47.3182 35.0167 47.3015 35 47.2682 35C47.2348 35.0333 47.1848 35.05 47.1182 35.05C47.0848 35.05 47.0515 35.0667 47.0182 35.1L46.2182 35.7C45.5182 36.2 44.7682 36.6 43.9682 36.9C43.9348 36.9 43.8515 36.9333 43.7182 37C43.4515 37.1 43.2015 37.2833 42.9682 37.55C42.9015 37.6167 42.8015 37.75 42.6682 37.95C42.4682 38.2167 42.2015 38.3667 41.8682 38.4C41.4348 38.4667 41.1182 38.3167 40.9182 37.95C40.8848 37.8833 40.8515 37.8167 40.8182 37.75C40.8182 37.6833 40.7848 37.6167 40.7182 37.55C40.6182 37.2167 40.4015 37.05 40.0682 37.05C39.8682 36.9833 39.6682 36.9167 39.4682 36.85C39.2682 36.75 39.0848 36.6667 38.9182 36.6C38.5182 36.4 38.1182 36.1833 37.7182 35.95C37.3515 35.7167 36.9848 35.4833 36.6182 35.25C36.5182 35.1833 36.4182 35.1167 36.3182 35.05C36.2515 34.9833 36.1848 34.9167 36.1182 34.85L35.0182 33.7L34.4182 32.95C34.2182 32.6833 34.0182 32.4 33.8182 32.1C33.6515 31.8 33.4848 31.4833 33.3182 31.15C33.2515 30.9833 33.1515 30.8167 33.0182 30.65C32.9182 30.4833 32.8348 30.3167 32.7682 30.15C32.7682 30.1167 32.7348 30.1 32.6682 30.1C32.6348 30.0667 32.6015 30.0667 32.5682 30.1L32.3682 30.3C32.3015 30.3667 32.2182 30.45 32.1182 30.55C32.0515 30.6167 31.9682 30.6833 31.8682 30.75C31.7015 30.8833 31.5348 31.0333 31.3682 31.2C31.2348 31.3667 31.1015 31.5333 30.9682 31.7C30.9015 31.8333 30.8182 31.9667 30.7182 32.1C30.6182 32.2 30.5015 32.3167 30.3682 32.45C30.0348 32.7833 29.7015 33.1333 29.3682 33.5C29.0682 33.8667 28.7682 34.2333 28.4682 34.6C28.2682 34.8333 28.0182 35.0333 27.7182 35.2C27.1848 35.4667 26.8682 35.95 26.7682 36.65C26.7348 36.8167 26.7015 36.9833 26.6682 37.15C26.6682 37.35 26.6682 37.55 26.6682 37.75C26.6682 37.8167 26.6515 37.9 26.6182 38C26.6182 38.1 26.6182 38.2 26.6182 38.3C26.5848 38.5 26.4848 38.65 26.3182 38.75C26.0515 39.0167 25.7348 39.0667 25.3682 38.9ZM35.4182 21.95L35.7682 21.75C36.0348 21.55 36.2848 21.3667 36.5182 21.2C36.7848 21 37.0348 20.8 37.2682 20.6C37.7015 20.3 38.1182 19.9833 38.5182 19.65C38.9182 19.3167 39.3182 18.9833 39.7182 18.65C40.0848 18.2833 40.4682 17.9667 40.8682 17.7C41.3015 17.4 41.7348 17.1 42.1682 16.8C42.4682 16.6333 42.7515 16.45 43.0182 16.25C43.3182 16.05 43.6182 15.8667 43.9182 15.7C43.9848 15.6333 44.0682 15.5667 44.1682 15.5C44.2682 15.4333 44.3515 15.3667 44.4182 15.3C44.5182 15.2 44.5515 15.0833 44.5182 14.95C44.4848 14.8833 44.4682 14.8167 44.4682 14.75C44.4682 14.6833 44.4515 14.6333 44.4182 14.6C44.3182 14.3 44.2015 14.0167 44.0682 13.75C43.9682 13.45 43.8682 13.15 43.7682 12.85L43.6182 12.5C43.5182 12.3 43.3848 12.25 43.2182 12.35L42.9182 12.5C42.7182 12.6 42.5182 12.6 42.3182 12.5C42.1848 12.4333 42.0682 12.3667 41.9682 12.3C41.7682 12.1 41.6348 11.95 41.5682 11.85C41.4348 11.7167 41.2515 11.6167 41.0182 11.55C40.7515 11.45 40.4682 11.45 40.1682 11.55C39.9348 11.65 39.7015 11.75 39.4682 11.85C39.2348 11.9167 39.0015 12 38.7682 12.1C38.3348 12.2333 38.0182 12.4 37.8182 12.6C37.5848 12.8 37.3515 13.0167 37.1182 13.25C36.9182 13.45 36.7348 13.7 36.5682 14C36.5348 14.0333 36.4848 14.1167 36.4182 14.25C36.3182 14.35 36.2348 14.4667 36.1682 14.6C35.8015 15.4 35.5682 16.1667 35.4682 16.9L35.3182 18.05C35.2515 18.3833 35.2015 18.75 35.1682 19.15C35.1348 19.5167 35.1015 19.9333 35.0682 20.4C35.0682 20.5667 35.0848 20.7833 35.1182 21.05C35.1515 21.3167 35.1848 21.5833 35.2182 21.85C35.2848 21.9833 35.3515 22.0167 35.4182 21.95ZM41.9682 31.35C42.7348 31.25 43.4515 30.95 44.1182 30.45C44.4848 30.15 44.8182 29.8167 45.1182 29.45C45.4182 29.0833 45.6515 28.6833 45.8182 28.25L46.5682 26.25C46.6348 26.0833 46.6848 25.9 46.7182 25.7C46.7515 25.5 46.7682 25.3167 46.7682 25.15C46.7348 25.05 46.7182 24.95 46.7182 24.85C46.7182 24.75 46.7015 24.6667 46.6682 24.6C46.6348 24.3667 46.6015 24.15 46.5682 23.95C46.5348 23.7167 46.5015 23.5 46.4682 23.3C46.4348 23.1667 46.4182 23.05 46.4182 22.95C46.4182 22.8167 46.4015 22.6833 46.3682 22.55L46.2182 20.9C46.1848 20.8333 46.1682 20.7667 46.1682 20.7C46.1682 20.6 46.1348 20.5167 46.0682 20.45C46.0015 20.3833 45.9515 20.35 45.9182 20.35C45.8848 20.3833 45.8348 20.4 45.7682 20.4C45.7348 20.4 45.7015 20.4167 45.6682 20.45L44.6182 21.05C44.1848 21.3833 43.7348 21.7 43.2682 22C42.8015 22.3 42.3515 22.6167 41.9182 22.95C41.6515 23.15 41.3848 23.35 41.1182 23.55C40.8515 23.75 40.5848 23.95 40.3182 24.15L37.5182 26.35C37.2515 26.55 37.0348 26.7333 36.8682 26.9C36.7682 27 36.7348 27.1167 36.7682 27.25L36.8682 27.4C37.0348 27.7 37.2015 28.0167 37.3682 28.35C37.5348 28.65 37.6848 28.95 37.8182 29.25C38.0182 29.5833 38.2848 29.8667 38.6182 30.1C38.8848 30.3333 39.2015 30.5667 39.5682 30.8C40.2682 31.2667 41.0682 31.45 41.9682 31.35ZM64.6213 14.15C64.3213 14.15 64.0713 14.0167 63.8713 13.75C63.7046 13.5167 63.5546 13.2667 63.4213 13C63.288 12.7333 63.188 12.45 63.1213 12.15C62.988 11.4833 63.0713 10.8167 63.3713 10.15C63.438 10.05 63.488 9.95 63.5213 9.85C63.588 9.75 63.638 9.66667 63.6713 9.6L64.0713 8.75C64.1046 8.78333 64.1213 8.8 64.1213 8.8C64.2213 8.56667 64.3213 8.35 64.4213 8.15C64.5546 7.91666 64.6713 7.68333 64.7713 7.45C64.838 7.31667 64.9046 7.15 64.9713 6.95C65.038 6.68333 65.1213 6.43333 65.2213 6.2C65.3213 5.96666 65.438 5.73333 65.5713 5.5C65.7046 5.23333 65.8213 4.98333 65.9213 4.75C66.0546 4.51667 66.1713 4.28333 66.2713 4.05C66.338 3.88333 66.4046 3.75 66.4713 3.65C66.5713 3.51667 66.6546 3.38333 66.7213 3.25C66.788 3.11667 66.8546 3 66.9213 2.9C67.0213 2.76666 67.088 2.63333 67.1213 2.5C67.388 2.13333 67.6546 1.83333 67.9213 1.6C68.2213 1.33333 68.5713 1.13333 68.9713 0.999999C69.7046 0.799999 70.4046 0.833332 71.0713 1.1C71.8046 1.46667 72.2713 2 72.4713 2.7C72.638 3.23333 72.6713 3.71667 72.5713 4.15C72.4713 4.75 72.238 5.31666 71.8713 5.85C71.738 6.08333 71.6046 6.31666 71.4713 6.55C71.338 6.78333 71.2213 7.03333 71.1213 7.3L70.1713 9.25C70.1046 9.45 70.038 9.65 69.9713 9.85C69.9046 10.0167 69.838 10.2 69.7713 10.4C69.6713 10.7333 69.5213 11.0167 69.3213 11.25C69.188 11.4833 69.0213 11.7167 68.8213 11.95C68.6546 12.1833 68.488 12.4333 68.3213 12.7C68.188 12.8667 68.038 13.0167 67.8713 13.15C67.738 13.2833 67.588 13.4167 67.4213 13.55C67.188 13.6833 66.9213 13.8 66.6213 13.9C66.3546 13.9667 66.088 14.0333 65.8213 14.1C65.688 14.1 65.5213 14.1167 65.3213 14.15C65.1546 14.15 64.988 14.15 64.8213 14.15H64.6213ZM120.665 55.85L120.015 55.25C119.948 55.1833 119.915 55.1167 119.915 55.05L119.765 54.55C119.765 54.2833 119.715 54 119.615 53.7C119.582 53.6333 119.565 53.55 119.565 53.45C119.565 53.35 119.548 53.2667 119.515 53.2C119.515 52.9333 119.498 52.6667 119.465 52.4C119.432 52.1667 119.382 51.9333 119.315 51.7V51.5C119.282 51.0333 119.232 50.55 119.165 50.05C119.098 49.5833 119.065 49.1167 119.065 48.65V47.95C119.065 47.85 119.065 47.75 119.065 47.65C119.098 47.55 119.098 47.4333 119.065 47.3C119.065 47.1 119.048 46.8667 119.015 46.6C119.015 46.3667 119.015 46.1333 119.015 45.9C119.015 45.7333 119.015 45.55 119.015 45.35C119.015 45.15 118.998 44.9667 118.965 44.8C118.932 44.4667 118.898 44.1333 118.865 43.8C118.832 43.4667 118.798 43.1333 118.765 42.8C118.732 42.4667 118.698 42.1333 118.665 41.8C118.665 41.4667 118.665 41.1333 118.665 40.8C118.598 40.5333 118.548 40.2833 118.515 40.05C118.482 39.8167 118.432 39.5833 118.365 39.35C118.298 39.05 118.182 38.8167 118.015 38.65C117.882 38.4833 117.748 38.3167 117.615 38.15C117.515 38.0167 117.432 37.8667 117.365 37.7C117.298 37.5667 117.232 37.4667 117.165 37.4C116.998 37.2333 116.832 37.05 116.665 36.85C116.532 36.6167 116.382 36.4 116.215 36.2C116.048 35.9 115.865 35.6333 115.665 35.4C115.565 35.2333 115.448 35.0833 115.315 34.95C115.215 34.7833 115.132 34.6333 115.065 34.5C114.998 34.3333 114.898 34.2 114.765 34.1C114.665 33.9667 114.565 33.85 114.465 33.75L112.565 31.65C112.265 31.3167 111.982 30.9833 111.715 30.65C111.648 30.4833 111.565 30.35 111.465 30.25C111.365 30.15 111.248 30.0333 111.115 29.9L109.915 28.65C109.815 28.5167 109.698 28.4167 109.565 28.35C109.465 28.25 109.348 28.1667 109.215 28.1C108.948 27.9667 108.682 27.7667 108.415 27.5C108.415 27.4667 108.382 27.4167 108.315 27.35C108.115 27.2167 107.915 27.0667 107.715 26.9C107.548 26.7333 107.382 26.5667 107.215 26.4C107.015 26.2 106.865 26.0667 106.765 26C106.498 25.7333 106.215 25.4833 105.915 25.25C105.648 25.0167 105.382 24.7667 105.115 24.5C104.982 24.3667 104.848 24.25 104.715 24.15C104.615 24.0167 104.515 23.8833 104.415 23.75L104.115 23.45C104.115 23.45 104.098 23.45 104.065 23.45C104.065 23.45 104.065 23.4667 104.065 23.5L104.015 23.55V23.6C104.182 24.2667 104.298 25 104.365 25.8C104.365 25.9 104.382 25.9667 104.415 26C104.515 26.3333 104.548 26.6667 104.515 27C104.515 27.3 104.482 27.6167 104.415 27.95C104.348 28.2167 104.398 28.4333 104.565 28.6C104.632 28.6667 104.632 28.7333 104.565 28.8C104.565 28.9667 104.565 29.05 104.565 29.05C104.598 29.2167 104.615 29.3833 104.615 29.55C104.615 29.7167 104.615 29.8833 104.615 30.05C104.615 30.2833 104.632 30.45 104.665 30.55C104.765 31.05 104.798 31.5167 104.765 31.95C104.732 32.0833 104.715 32.2333 104.715 32.4C104.715 32.5667 104.698 32.7333 104.665 32.9C104.632 33 104.615 33.1 104.615 33.2C104.648 33.2667 104.665 33.3333 104.665 33.4C104.698 33.5333 104.715 33.6667 104.715 33.8C104.748 33.9 104.748 34.0167 104.715 34.15C104.715 34.45 104.648 34.7167 104.515 34.95C104.315 35.2833 104.048 35.4833 103.715 35.55C103.615 35.55 103.548 35.5667 103.515 35.6C103.348 35.6667 103.265 35.75 103.265 35.85C103.265 36.0167 103.248 36.1833 103.215 36.35C103.215 36.4833 103.215 36.6333 103.215 36.8V38.1C103.248 38.4 103.182 38.7 103.015 39C102.915 39.1667 102.782 39.2833 102.615 39.35C102.448 39.4167 102.282 39.4333 102.115 39.4C101.648 39.2333 101.348 38.9333 101.215 38.5L101.065 37.9C101.032 37.6667 100.965 37.4333 100.865 37.2C100.798 37 100.682 36.8 100.515 36.6C100.448 36.4667 100.382 36.3333 100.315 36.2C100.248 36.0667 100.182 35.9333 100.115 35.8C99.9817 35.5 99.865 35.2 99.765 34.9C99.6984 34.5667 99.6317 34.2333 99.565 33.9C99.5317 33.7 99.515 33.5167 99.515 33.35C99.515 33.15 99.515 32.95 99.515 32.75C99.515 32.6167 99.4984 32.4833 99.465 32.35C99.465 32.2167 99.465 32.0833 99.465 31.95C99.4317 31.7167 99.415 31.4833 99.415 31.25C99.415 31.0167 99.415 30.7833 99.415 30.55C99.415 30.3833 99.415 30.2 99.415 30C99.415 29.8 99.3817 29.6167 99.315 29.45V29.25C99.315 28.9167 99.2984 28.6 99.265 28.3C99.2317 28 99.1984 27.6833 99.165 27.35C99.165 27.2833 99.1484 27.2333 99.115 27.2C99.0817 27 99.0484 26.8 99.015 26.6C98.9817 26.3667 98.9317 26.15 98.865 25.95C98.7984 25.6833 98.7317 25.4167 98.665 25.15C98.6317 24.8833 98.5817 24.6167 98.515 24.35C98.4817 24.1167 98.4484 23.9 98.415 23.7C98.3817 23.4667 98.3317 23.2333 98.265 23C98.2317 22.8667 98.1984 22.75 98.165 22.65C98.165 22.5167 98.165 22.3833 98.165 22.25C98.1317 22.05 98.0984 21.8667 98.065 21.7C98.065 21.5 98.065 21.3167 98.065 21.15C98.0317 20.8833 97.9984 20.6167 97.965 20.35C97.9317 20.05 97.8817 19.7667 97.815 19.5C97.7817 19.3333 97.7484 19.1667 97.715 19C97.715 18.8 97.715 18.6167 97.715 18.45C97.6817 18.0167 97.6317 17.6 97.565 17.2C97.5317 16.8 97.515 16.3833 97.515 15.95C97.515 15.7833 97.4984 15.6333 97.465 15.5C97.465 15.3333 97.465 15.1833 97.465 15.05C97.4317 14.75 97.3817 14.45 97.315 14.15C97.2817 13.8167 97.2484 13.5 97.215 13.2L96.915 11.2C96.8817 10.8333 96.8484 10.45 96.815 10.05C96.7817 9.65 96.765 9.26667 96.765 8.9C96.765 8.66667 96.765 8.43333 96.765 8.2C96.765 7.96667 96.7484 7.73333 96.715 7.5C96.6484 7.06666 96.665 6.65 96.765 6.25C96.865 5.78333 97.065 5.38333 97.365 5.05C97.465 4.91667 97.565 4.8 97.665 4.7C97.765 4.6 97.865 4.5 97.965 4.4C98.165 4.23333 98.3817 4.11667 98.615 4.05C98.8817 3.98333 99.1317 3.93333 99.365 3.9C99.5317 3.9 99.6984 3.91666 99.865 3.95C100.032 3.95 100.182 3.96667 100.315 4C100.515 4.06666 100.715 4.11666 100.915 4.15C101.148 4.15 101.382 4.15 101.615 4.15C102.048 4.15 102.465 4.15 102.865 4.15C103.298 4.15 103.732 4.16667 104.165 4.2C104.932 4.2 105.715 4.25 106.515 4.35C106.982 4.41666 107.415 4.51667 107.815 4.65C108.248 4.75 108.682 4.88333 109.115 5.05C109.848 5.31666 110.532 5.61666 111.165 5.95C111.465 6.08333 111.748 6.25 112.015 6.45C112.282 6.61667 112.532 6.81667 112.765 7.05C112.865 7.15 112.965 7.25 113.065 7.35C113.165 7.45 113.248 7.56667 113.315 7.7C113.415 7.8 113.515 7.9 113.615 8C113.715 8.1 113.782 8.23333 113.815 8.4C113.882 8.53333 113.915 8.6 113.915 8.6C114.148 8.93333 114.315 9.3 114.415 9.7C114.548 10.1 114.648 10.5 114.715 10.9C114.782 11.2333 114.782 11.5667 114.715 11.9C114.682 12.2 114.648 12.5167 114.615 12.85C114.615 13.0833 114.598 13.3 114.565 13.5C114.532 13.7 114.482 13.9 114.415 14.1C114.382 14.4333 114.282 14.75 114.115 15.05C113.982 15.35 113.832 15.6333 113.665 15.9C113.665 15.9333 113.648 15.9667 113.615 16C113.582 16 113.548 16.0333 113.515 16.1C113.282 16.3667 113.015 16.6333 112.715 16.9C112.448 17.1667 112.132 17.4 111.765 17.6C111.632 17.6667 111.498 17.75 111.365 17.85C111.265 17.95 111.132 18.0333 110.965 18.1C110.898 18.1667 110.898 18.2333 110.965 18.3C111.098 18.4333 111.198 18.5167 111.265 18.55C111.498 18.75 111.732 18.95 111.965 19.15C112.232 19.35 112.482 19.55 112.715 19.75C112.982 19.9167 113.215 20.1167 113.415 20.35C113.615 20.55 113.832 20.75 114.065 20.95C114.298 21.1833 114.532 21.4167 114.765 21.65C114.998 21.8833 115.232 22.1167 115.465 22.35C115.532 22.3833 115.598 22.4333 115.665 22.5C115.732 22.5667 115.798 22.6333 115.865 22.7C116.032 22.8333 116.182 22.9667 116.315 23.1C116.448 23.2333 116.582 23.3833 116.715 23.55C116.782 23.6833 116.865 23.8 116.965 23.9C117.065 23.9667 117.165 24.05 117.265 24.15C117.398 24.25 117.515 24.35 117.615 24.45C117.715 24.55 117.832 24.6667 117.965 24.8C118.132 25 118.315 25.2167 118.515 25.45C118.715 25.65 118.915 25.85 119.115 26.05L119.415 26.4C119.482 26.4667 119.548 26.5333 119.615 26.6C119.682 26.6667 119.732 26.7333 119.765 26.8C120.065 27.1333 120.365 27.4667 120.665 27.8C120.998 28.1333 121.332 28.4833 121.665 28.85L121.965 29.15C122.165 29.2833 122.348 29.4667 122.515 29.7C122.715 29.9 122.898 30.0833 123.065 30.25C123.198 30.35 123.298 30.5 123.365 30.7C123.398 30.8 123.432 30.9 123.465 31C123.498 31.0667 123.532 31.15 123.565 31.25C123.665 31.5167 123.698 31.7667 123.665 32C123.632 32.0667 123.615 32.1833 123.615 32.35C123.615 32.6167 123.548 32.8667 123.415 33.1C123.315 33.3333 123.182 33.55 123.015 33.75L122.565 34.15C122.165 34.55 121.915 35.0667 121.815 35.7C121.782 36.0333 121.748 36.3667 121.715 36.7C121.715 37.0333 121.715 37.3833 121.715 37.75C121.715 38.1167 121.715 38.4833 121.715 38.85C121.715 39.2167 121.732 39.5833 121.765 39.95V40.6C121.798 40.7 121.815 40.8833 121.815 41.15V48C121.815 48.2333 121.798 48.4667 121.765 48.7C121.765 48.9667 121.765 49.2333 121.765 49.5C121.732 49.6333 121.715 49.7667 121.715 49.9C121.715 50.0333 121.715 50.1667 121.715 50.3V51.3C121.715 51.4667 121.732 51.6 121.765 51.7C121.832 52.2333 121.848 52.7667 121.815 53.3C121.815 53.8333 121.832 54.3833 121.865 54.95C121.865 55.25 121.732 55.5333 121.465 55.8C121.198 56.0667 120.932 56.0833 120.665 55.85ZM103.215 15.95C103.248 15.9167 103.282 15.9 103.315 15.9C103.348 15.9 103.382 15.8833 103.415 15.85C103.948 15.4833 104.482 15.3167 105.015 15.35C105.215 15.35 105.365 15.3667 105.465 15.4C105.732 15.4667 105.965 15.4167 106.165 15.25C106.465 15.0833 106.765 14.95 107.065 14.85C107.365 14.7167 107.648 14.5667 107.915 14.4C107.948 14.4 107.965 14.4 107.965 14.4C107.965 14.3667 107.982 14.35 108.015 14.35C108.448 14.2167 108.848 13.9833 109.215 13.65C109.548 13.4167 109.732 13.2667 109.765 13.2C109.832 13.1 109.898 12.8333 109.965 12.4V12.2C109.965 12 109.948 11.8167 109.915 11.65C109.882 11.4833 109.865 11.3333 109.865 11.2C109.765 10.8333 109.565 10.55 109.265 10.35C108.965 10.15 108.648 10 108.315 9.9C107.948 9.73333 107.565 9.61666 107.165 9.55C106.765 9.45 106.382 9.36666 106.015 9.3C105.982 9.3 105.948 9.3 105.915 9.3C105.915 9.26667 105.898 9.25 105.865 9.25C105.532 9.18333 105.232 9.25 104.965 9.45C104.965 9.45 104.948 9.45 104.915 9.45C104.915 9.45 104.898 9.46667 104.865 9.5C104.498 9.7 104.165 9.75 103.865 9.65H103.615C103.115 9.65 102.765 9.86666 102.565 10.3C102.498 10.5 102.465 10.65 102.465 10.75C102.465 10.9167 102.465 11.1 102.465 11.3C102.465 11.5 102.482 11.6833 102.515 11.85C102.582 12.05 102.615 12.2 102.615 12.3C102.615 12.5333 102.632 12.75 102.665 12.95C102.698 13.15 102.732 13.35 102.765 13.55C102.798 13.5833 102.815 13.65 102.815 13.75C102.782 13.8833 102.765 14 102.765 14.1C102.798 14.2 102.815 14.3167 102.815 14.45C102.848 14.5833 102.865 14.7 102.865 14.8C102.898 14.9 102.898 15 102.865 15.1C102.865 15.3667 102.915 15.6333 103.015 15.9C103.015 15.9333 103.032 15.9667 103.065 16C103.132 16 103.182 15.9833 103.215 15.95ZM138.663 38C138.329 37.9667 137.996 37.9167 137.663 37.85C137.363 37.8167 137.063 37.7333 136.763 37.6L135.513 37.15C135.079 36.9833 134.679 36.8 134.313 36.6C133.946 36.3667 133.579 36.1333 133.213 35.9C133.046 35.7333 132.879 35.5833 132.713 35.45C132.546 35.2833 132.379 35.1333 132.213 35C131.946 34.7333 131.679 34.4667 131.413 34.2C131.146 33.9 130.896 33.5833 130.663 33.25L129.463 31.4C129.163 30.9333 128.896 30.45 128.663 29.95C128.429 29.4167 128.229 28.8833 128.063 28.35C127.696 27.35 127.513 26.3667 127.513 25.4V24.6C127.513 23.7667 127.563 22.95 127.663 22.15C127.729 21.4833 127.879 20.8833 128.113 20.35C128.246 20.0167 128.363 19.6833 128.463 19.35C128.563 19.0167 128.679 18.7 128.813 18.4L128.963 18.05C129.029 17.6167 129.179 17.2333 129.413 16.9C129.646 16.5333 129.846 16.1833 130.013 15.85C130.146 15.5833 130.296 15.35 130.463 15.15C130.629 14.9167 130.779 14.6833 130.913 14.45C130.979 14.35 131.063 14.2667 131.163 14.2C131.263 14.1 131.346 14 131.413 13.9C131.479 13.8333 131.529 13.75 131.563 13.65C131.629 13.5167 131.679 13.4 131.713 13.3C131.779 13.2 131.896 13.0667 132.063 12.9C132.263 12.8 132.446 12.5667 132.613 12.2C132.679 12.0667 132.746 11.9667 132.813 11.9C133.013 11.7333 133.179 11.5333 133.313 11.3C133.479 11.0667 133.663 10.85 133.863 10.65C133.996 10.5167 134.063 10.3333 134.063 10.1C134.063 9.93333 134.063 9.78333 134.063 9.65C134.096 9.48333 134.096 9.33333 134.063 9.2C134.029 9.03333 134.079 8.88333 134.213 8.75C134.279 8.68333 134.329 8.6 134.363 8.5C134.396 8.4 134.429 8.3 134.463 8.2C134.563 7.86667 134.829 7.58333 135.263 7.35C135.329 7.28333 135.413 7.25 135.513 7.25C135.646 7.21667 135.763 7.18333 135.863 7.15C136.096 7.05 136.363 7.03333 136.663 7.1C136.796 7.13333 136.913 7.15 137.013 7.15C137.113 7.11666 137.213 7.08333 137.313 7.05C137.446 6.98333 137.563 6.93333 137.663 6.9C137.796 6.86666 137.913 6.83333 138.013 6.8C138.479 6.63333 138.963 6.65 139.463 6.85C139.996 7.05 140.379 7.4 140.613 7.9C140.679 8.06667 140.746 8.23333 140.813 8.4C140.879 8.56667 140.929 8.73333 140.963 8.9C141.029 9.26667 141.013 9.58333 140.913 9.85C140.846 9.98333 140.813 10.0667 140.813 10.1C140.779 10.2333 140.813 10.35 140.913 10.45C140.979 10.55 141.063 10.6333 141.163 10.7C141.529 11.0333 141.879 11.3667 142.213 11.7C142.546 12 142.863 12.3333 143.163 12.7C143.429 12.9667 143.646 13.25 143.813 13.55C144.013 13.8167 144.196 14.1167 144.363 14.45C144.429 14.6167 144.513 14.8 144.613 15C144.713 15.1667 144.813 15.3333 144.913 15.5C145.079 15.8 145.213 16.1167 145.313 16.45C145.446 16.7833 145.579 17.1167 145.713 17.45V17.5C145.779 17.7333 145.829 17.9833 145.863 18.25C145.929 18.4833 146.029 18.7333 146.163 19C146.263 19.2333 146.346 19.4833 146.413 19.75C146.479 19.9833 146.546 20.2333 146.613 20.5C146.679 20.8 146.746 21.1 146.813 21.4C146.913 21.7 146.979 22 147.013 22.3C147.046 22.4333 147.079 22.5667 147.113 22.7C147.146 22.8 147.179 22.9167 147.213 23.05C147.279 23.35 147.346 23.65 147.413 23.95C147.479 24.25 147.529 24.55 147.563 24.85L147.713 25.2C147.779 25.4 147.846 25.6667 147.913 26C148.013 26.4333 148.063 26.8667 148.063 27.3C148.096 27.7333 148.096 28.1833 148.063 28.65C148.063 28.8833 148.046 29.0667 148.013 29.2C147.813 29.9 147.563 30.6167 147.263 31.35C147.129 31.5833 146.996 31.8167 146.863 32.05C146.729 32.25 146.596 32.4667 146.463 32.7L146.013 33.4C145.846 33.7 145.663 33.9667 145.463 34.2C145.129 34.7333 144.729 35.2 144.263 35.6C143.796 36 143.296 36.3833 142.763 36.75C141.596 37.65 140.229 38.0667 138.663 38ZM138.463 33.05C139.163 33.05 139.763 32.85 140.263 32.45C140.429 32.2833 140.596 32.1333 140.763 32C140.963 31.8333 141.129 31.6667 141.263 31.5C141.896 30.8 142.396 30.0667 142.763 29.3L142.913 28.8C142.979 28.2 142.979 27.6 142.913 27L142.613 25.35C142.513 24.9167 142.429 24.5 142.363 24.1C142.296 23.6667 142.196 23.25 142.063 22.85C141.963 22.6167 141.929 22.4333 141.963 22.3C141.996 22.1333 141.996 21.9667 141.963 21.8C141.929 21.6333 141.879 21.4667 141.813 21.3C141.713 20.8667 141.596 20.4333 141.463 20C141.329 19.5667 141.196 19.1333 141.063 18.7C141.029 18.6 140.996 18.5 140.963 18.4C140.929 18.3 140.896 18.2 140.863 18.1C140.629 17.6333 140.379 17.1833 140.113 16.75C139.846 16.3167 139.546 15.9167 139.213 15.55C139.046 15.35 138.863 15.1667 138.663 15C138.463 14.8 138.263 14.6167 138.063 14.45C138.029 14.3833 137.979 14.35 137.913 14.35C137.879 14.3167 137.829 14.2833 137.763 14.25C137.663 14.1167 137.529 14.1333 137.363 14.3C137.196 14.4667 137.013 14.65 136.813 14.85C136.646 15.05 136.479 15.25 136.313 15.45C136.146 15.6833 135.963 15.9167 135.763 16.15C135.596 16.3833 135.429 16.6167 135.263 16.85C135.029 17.15 134.813 17.45 134.613 17.75C134.413 18.05 134.213 18.35 134.013 18.65C133.313 19.7833 132.763 21.0333 132.363 22.4C132.296 22.6 132.263 22.75 132.263 22.85C132.229 23.0833 132.196 23.3167 132.163 23.55C132.163 23.7833 132.163 24.0333 132.163 24.3V24.7C132.196 24.8 132.213 24.9 132.213 25C132.213 25.1 132.229 25.2 132.263 25.3C132.263 25.7 132.363 26.1333 132.563 26.6C132.829 27.2667 133.129 27.9167 133.463 28.55C133.796 29.1833 134.179 29.7833 134.613 30.35C134.713 30.4833 134.813 30.6167 134.913 30.75C135.046 30.8833 135.163 31.0167 135.263 31.15C135.563 31.4833 135.879 31.7833 136.213 32.05C136.579 32.3167 136.946 32.55 137.313 32.75C137.713 32.95 138.096 33.05 138.463 33.05ZM161.719 37.25C161.585 37.25 161.469 37.25 161.369 37.25C161.269 37.25 161.152 37.2333 161.019 37.2C160.952 37.2 160.869 37.1833 160.769 37.15C160.702 37.15 160.635 37.15 160.569 37.15C160.035 37.1167 159.535 37.0167 159.069 36.85C158.602 36.6833 158.135 36.4833 157.669 36.25C157.635 36.25 157.602 36.25 157.569 36.25C157.569 36.2167 157.552 36.2 157.519 36.2C157.185 36.0333 156.885 35.8333 156.619 35.6C156.385 35.3667 156.152 35.1333 155.919 34.9C155.652 34.5667 155.469 34.25 155.369 33.95C155.235 33.6833 155.069 33.4 154.869 33.1C154.535 32.7333 154.285 32.2667 154.119 31.7C154.019 31.4333 153.919 31.1667 153.819 30.9C153.719 30.6333 153.635 30.35 153.569 30.05C153.535 29.95 153.502 29.85 153.469 29.75C153.435 29.6167 153.385 29.4833 153.319 29.35C153.252 29.1833 153.185 29 153.119 28.8C153.085 28.6 153.035 28.4 152.969 28.2C152.935 28.0667 152.885 27.85 152.819 27.55C152.785 27.2167 152.769 27.0167 152.769 26.95V24.8C152.802 24.6 152.835 24.4167 152.869 24.25C152.902 24.05 152.935 23.85 152.969 23.65L153.019 23.6C153.019 23.6333 153.019 23.65 153.019 23.65C153.052 23.65 153.069 23.6667 153.069 23.7C153.102 23.7 153.119 23.7167 153.119 23.75C153.152 23.7833 153.169 23.7667 153.169 23.7C153.169 23.5 153.152 23.3333 153.119 23.2C153.119 23.1333 153.102 23.0667 153.069 23C153.069 22.9333 153.135 22.8833 153.269 22.85C153.302 22.85 153.319 22.8 153.319 22.7L153.769 20.5C153.802 20.3333 153.835 20.1833 153.869 20.05C153.902 19.8833 153.935 19.7333 153.969 19.6L154.069 19.05C154.035 19.1167 154.052 19 154.119 18.7C154.219 18.4 154.285 18.2 154.319 18.1C154.385 17.9333 154.469 17.7667 154.569 17.6C154.702 17.4333 154.785 17.3167 154.819 17.25C155.085 16.95 155.335 16.5333 155.569 16L156.519 14.5C156.652 14.3667 156.719 14.2 156.719 14C156.685 13.8333 156.735 13.65 156.869 13.45C156.969 13.25 157.069 13.05 157.169 12.85C157.302 12.65 157.435 12.45 157.569 12.25C157.735 11.9833 157.919 11.7167 158.119 11.45C158.352 11.15 158.569 10.8833 158.769 10.65C158.835 10.55 158.902 10.45 158.969 10.35C159.069 10.25 159.185 10.1833 159.319 10.15C159.385 10.15 159.435 10.1333 159.469 10.1C159.502 10.0667 159.535 10.0333 159.569 10C160.235 9.3 160.985 8.65 161.819 8.05C161.885 7.98333 161.952 7.91667 162.019 7.85C162.085 7.78333 162.152 7.73333 162.219 7.7C162.385 7.6 162.569 7.55 162.769 7.55C162.935 7.55 163.069 7.53333 163.169 7.5C163.269 7.5 163.419 7.46667 163.619 7.4C163.852 7.33333 164.035 7.36666 164.169 7.5C164.369 7.7 164.702 7.76666 165.169 7.7C165.469 7.66667 165.719 7.83333 165.919 8.2C165.985 8.3 166.035 8.4 166.069 8.5C166.135 8.6 166.219 8.68333 166.319 8.75C166.419 8.95 166.552 9.13333 166.719 9.3C166.919 9.46667 167.085 9.63333 167.219 9.8L167.869 10.7C167.935 10.8 168.002 10.9167 168.069 11.05C168.169 11.15 168.252 11.25 168.319 11.35C168.485 11.5167 168.585 11.6833 168.619 11.85C168.685 12.0167 168.735 12.1333 168.769 12.2C168.835 12.2333 168.885 12.3833 168.919 12.65C168.952 12.7833 168.952 12.8667 168.919 12.9C168.919 12.9 168.985 12.9 169.119 12.9C169.252 12.9 169.319 12.9833 169.319 13.15C169.319 13.5167 169.252 13.8333 169.119 14.1C169.052 14.2 168.985 14.25 168.919 14.25C168.885 14.25 168.835 14.2833 168.769 14.35C168.669 14.5167 168.552 14.6833 168.419 14.85C168.319 15.0167 168.202 15.2 168.069 15.4C167.969 15.5667 167.835 15.7167 167.669 15.85C167.535 15.9833 167.385 16.1167 167.219 16.25C166.952 16.5167 166.635 16.6167 166.269 16.55C165.969 16.55 165.752 16.5333 165.619 16.5C165.519 16.4667 165.419 16.4333 165.319 16.4C165.252 16.3333 165.169 16.2833 165.069 16.25C165.002 16.25 164.935 16.2167 164.869 16.15C164.835 16.0833 164.802 16.0333 164.769 16C164.735 15.9333 164.685 15.8833 164.619 15.85C164.452 15.75 164.319 15.6333 164.219 15.5C164.119 15.3333 164.035 15.1833 163.969 15.05C163.935 14.95 163.919 14.85 163.919 14.75C163.919 14.65 163.919 14.5667 163.919 14.5C163.885 14.3 163.852 14.1 163.819 13.9C163.819 13.7 163.785 13.5 163.719 13.3C163.719 13.2333 163.635 13.2 163.469 13.2C163.269 13.3333 163.069 13.4667 162.869 13.6C162.669 13.7333 162.485 13.9 162.319 14.1L160.769 15.95C160.669 16.05 160.569 16.1667 160.469 16.3C160.402 16.4 160.335 16.5 160.269 16.6C160.135 16.7667 160.002 16.95 159.869 17.15C159.769 17.3167 159.635 17.4833 159.469 17.65C159.402 17.7167 159.352 17.7833 159.319 17.85C159.219 18.0833 159.102 18.3 158.969 18.5C158.869 18.7 158.769 18.9333 158.669 19.2C158.502 19.5333 158.352 19.9 158.219 20.3C158.119 20.6667 158.035 21.05 157.969 21.45C157.935 21.95 157.835 22.45 157.669 22.95C157.635 23.1167 157.602 23.3 157.569 23.5C157.535 23.7 157.502 23.9 157.469 24.1C157.435 24.4 157.385 24.7 157.319 25C157.252 25.3 157.235 25.6167 157.269 25.95C157.335 26.6167 157.435 27.25 157.569 27.85C157.669 28.1833 157.752 28.5167 157.819 28.85C157.919 29.15 158.019 29.4667 158.119 29.8C158.152 29.9 158.185 30 158.219 30.1C158.252 30.2 158.285 30.3 158.319 30.4C158.519 30.8667 158.885 31.2333 159.419 31.5C159.619 31.6 159.835 31.65 160.069 31.65C160.269 31.65 160.469 31.6667 160.669 31.7C160.869 31.7 161.069 31.6833 161.269 31.65C162.202 31.55 163.069 31.4 163.869 31.2C164.235 31.1333 164.585 31.0333 164.919 30.9C165.252 30.7667 165.585 30.6333 165.919 30.5C166.185 30.4 166.435 30.25 166.669 30.05C166.935 29.85 167.202 29.65 167.469 29.45C167.769 29.2167 168.052 28.9833 168.319 28.75C168.585 28.5167 168.852 28.2833 169.119 28.05C169.385 27.8167 169.635 27.5667 169.869 27.3C169.969 27.2 170.119 27.0833 170.319 26.95C170.419 26.8833 170.519 26.8167 170.619 26.75C170.719 26.6833 170.802 26.6167 170.869 26.55C171.035 26.45 171.185 26.35 171.319 26.25C171.485 26.15 171.669 26.1 171.869 26.1C171.969 26.0333 172.069 26 172.169 26C172.302 25.9667 172.419 25.9333 172.519 25.9C172.819 25.8 173.085 25.8 173.319 25.9C173.419 25.9333 173.519 25.9667 173.619 26C173.719 26.0333 173.819 26.0833 173.919 26.15C174.185 26.3167 174.435 26.5833 174.669 26.95C174.835 27.35 174.919 27.7 174.919 28V28.3C174.919 28.7333 174.752 29.1167 174.419 29.45C174.052 29.9167 173.669 30.2833 173.269 30.55C173.035 30.6833 172.802 30.8667 172.569 31.1C172.235 31.3667 171.885 31.65 171.519 31.95C171.185 32.25 170.835 32.5333 170.469 32.8L170.269 33C170.169 33.0667 170.069 33.15 169.969 33.25C169.869 33.35 169.752 33.4333 169.619 33.5C169.385 33.7333 169.119 33.95 168.819 34.15C168.519 34.3167 168.219 34.4833 167.919 34.65C167.619 34.7833 167.335 34.9833 167.069 35.25C166.969 35.35 166.869 35.45 166.769 35.55C166.669 35.65 166.552 35.7333 166.419 35.8C165.985 36.0333 165.485 36.2667 164.919 36.5C164.885 36.5333 164.835 36.5667 164.769 36.6C164.702 36.6333 164.635 36.6667 164.569 36.7C164.369 36.8 164.152 36.8833 163.919 36.95C163.719 36.9833 163.519 37.0167 163.319 37.05C163.052 37.0833 162.785 37.1 162.519 37.1C162.252 37.1333 161.985 37.1833 161.719 37.25ZM181.631 37.85C181.431 37.85 181.248 37.7833 181.081 37.65C180.981 37.55 180.864 37.4667 180.731 37.4C180.598 37.3333 180.481 37.25 180.381 37.15C180.281 37.0833 180.181 37.0167 180.081 36.95C180.014 36.85 179.948 36.7667 179.881 36.7C179.748 36.5 179.631 36.3 179.531 36.1C179.464 35.8667 179.448 35.6333 179.481 35.4C179.548 35.0333 179.581 34.6833 179.581 34.35C179.614 33.9833 179.648 33.6333 179.681 33.3C179.714 33.1333 179.731 32.9667 179.731 32.8C179.764 32.6 179.781 32.4167 179.781 32.25C179.781 31.85 179.781 31.45 179.781 31.05C179.814 30.65 179.864 30.25 179.931 29.85V29.75C179.964 28.7167 179.998 27.7 180.031 26.7C180.098 25.6667 180.131 24.6333 180.131 23.6C180.098 22.8333 180.081 22.0667 180.081 21.3C180.081 20.5333 180.081 19.7833 180.081 19.05C180.081 18.6833 180.081 18.3333 180.081 18C180.114 17.6667 180.098 17.3333 180.031 17C179.998 16.4333 179.964 15.8833 179.931 15.35C179.931 14.8167 179.931 14.2833 179.931 13.75C179.931 13.65 179.914 13.55 179.881 13.45C179.881 13.35 179.881 13.25 179.881 13.15C179.848 13.0167 179.831 12.8833 179.831 12.75C179.831 12.5833 179.814 12.4333 179.781 12.3C179.781 12.1333 179.764 11.9667 179.731 11.8C179.731 11.6333 179.714 11.4833 179.681 11.35V11C179.648 10.6333 179.614 10.3 179.581 10C179.548 9.66667 179.498 9.33333 179.431 9C179.398 8.73333 179.364 8.45 179.331 8.15C179.331 7.85 179.331 7.55 179.331 7.25C179.331 7.05 179.398 6.9 179.531 6.8C179.598 6.73333 179.631 6.65 179.631 6.55C179.698 6.41667 179.731 6.3 179.731 6.2C179.831 5.93333 179.964 5.76667 180.131 5.7C180.231 5.63333 180.314 5.58333 180.381 5.55C180.481 5.48333 180.581 5.46666 180.681 5.5C180.848 5.5 180.948 5.45 180.981 5.35C181.048 5.31667 181.098 5.28333 181.131 5.25C181.164 5.18333 181.198 5.15 181.231 5.15C181.398 5.15 181.548 5.13333 181.681 5.1C181.848 5.06666 182.014 5.08333 182.181 5.15C182.381 5.21666 182.548 5.25 182.681 5.25C182.848 5.28333 182.964 5.35 183.031 5.45C183.098 5.51667 183.164 5.55 183.231 5.55C183.398 5.58333 183.514 5.7 183.581 5.9C183.648 5.96667 183.681 6.05 183.681 6.15C183.714 6.21667 183.748 6.26667 183.781 6.3C183.948 6.46667 183.998 6.66666 183.931 6.9C183.864 7.26667 183.864 7.63333 183.931 8C183.964 8.1 183.964 8.2 183.931 8.3C183.931 8.4 183.948 8.5 183.981 8.6C183.981 8.83333 183.981 9.06666 183.981 9.3C184.014 9.5 184.048 9.73333 184.081 10C184.114 10.1333 184.131 10.2667 184.131 10.4C184.131 10.5 184.131 10.6333 184.131 10.8C184.131 11.0333 184.131 11.3 184.131 11.6C184.131 11.8667 184.148 12.1333 184.181 12.4C184.214 12.4667 184.231 12.5833 184.231 12.75C184.231 12.9833 184.231 13.2167 184.231 13.45C184.264 13.6833 184.298 13.9167 184.331 14.15C184.431 14.65 184.481 15.1333 184.481 15.6C184.448 15.8333 184.448 16.0833 184.481 16.35C184.514 16.6167 184.531 16.8833 184.531 17.15C184.531 17.2167 184.564 17.25 184.631 17.25C184.698 17.25 184.748 17.2333 184.781 17.2C184.848 17.1667 184.948 17.0833 185.081 16.95L187.481 14.55C187.981 13.9833 188.531 13.4833 189.131 13.05C189.431 12.8167 189.714 12.5833 189.981 12.35C190.248 12.0833 190.498 11.8167 190.731 11.55C191.064 11.1833 191.381 10.8167 191.681 10.45C192.014 10.0833 192.348 9.71666 192.681 9.35C192.848 9.18333 192.998 9 193.131 8.8C193.298 8.6 193.448 8.4 193.581 8.2C193.781 7.96667 193.964 7.75 194.131 7.55C194.331 7.31667 194.548 7.1 194.781 6.9C194.881 6.83333 194.964 6.76667 195.031 6.7C195.131 6.6 195.248 6.53333 195.381 6.5C195.414 6.5 195.431 6.5 195.431 6.5C195.464 6.46667 195.481 6.45 195.481 6.45C195.814 6.15 196.148 6.1 196.481 6.3C196.581 6.36666 196.731 6.4 196.931 6.4C197.198 6.4 197.431 6.5 197.631 6.7C197.698 6.73333 197.748 6.76667 197.781 6.8C197.848 6.8 197.898 6.81666 197.931 6.85H198.431C198.631 6.85 198.731 6.88333 198.731 6.95C198.764 6.98333 198.764 7.08333 198.731 7.25C198.664 7.35 198.698 7.45 198.831 7.55C198.998 7.58333 199.048 7.68333 198.981 7.85C198.948 7.91667 198.981 8 199.081 8.1C199.181 8.16667 199.181 8.25 199.081 8.35C198.914 8.61667 198.814 8.88333 198.781 9.15C198.714 9.31666 198.631 9.48333 198.531 9.65C198.464 9.78333 198.348 9.93333 198.181 10.1C197.781 10.4333 197.414 10.8167 197.081 11.25C196.748 11.65 196.398 12.0667 196.031 12.5L195.731 12.8C195.398 13.1 195.081 13.4167 194.781 13.75C194.514 14.0833 194.248 14.4167 193.981 14.75C193.614 15.1833 193.214 15.6167 192.781 16.05C192.381 16.45 191.981 16.85 191.581 17.25C191.381 17.45 191.231 17.5833 191.131 17.65C190.964 17.7833 190.798 17.9333 190.631 18.1C190.464 18.2667 190.298 18.45 190.131 18.65C190.098 18.7167 190.031 18.7833 189.931 18.85C189.864 18.9167 189.798 18.9833 189.731 19.05C189.498 19.2833 189.264 19.5333 189.031 19.8C188.798 20.0333 188.548 20.2667 188.281 20.5C188.281 20.5333 188.264 20.5667 188.231 20.6C188.231 20.6 188.231 20.6167 188.231 20.65C188.231 20.6833 188.214 20.7167 188.181 20.75C188.181 20.7833 188.198 20.8167 188.231 20.85C188.264 20.95 188.348 21.0667 188.481 21.2L189.931 22.55C190.231 22.7833 190.514 23.05 190.781 23.35C191.048 23.6167 191.314 23.8833 191.581 24.15L192.081 24.75C192.148 24.8167 192.214 24.9 192.281 25C192.348 25.0667 192.414 25.1333 192.481 25.2C192.848 25.5 193.214 25.8 193.581 26.1C193.948 26.4 194.298 26.7 194.631 27L195.381 27.6C195.781 27.9333 196.214 28.25 196.681 28.55C197.148 28.85 197.598 29.1333 198.031 29.4C198.264 29.5333 198.481 29.6667 198.681 29.8C198.914 29.9 199.148 30 199.381 30.1C199.814 30.3 200.164 30.65 200.431 31.15C200.464 31.1833 200.498 31.25 200.531 31.35C200.564 31.4167 200.598 31.4833 200.631 31.55C200.798 31.9167 200.864 32.2667 200.831 32.6C200.831 32.8667 200.798 33.05 200.731 33.15L200.581 33.55C200.548 33.6833 200.481 33.8333 200.381 34C200.314 34.1333 200.198 34.25 200.031 34.35C199.964 34.3833 199.898 34.4667 199.831 34.6C199.698 34.7333 199.581 34.8 199.481 34.8C199.314 34.8333 199.131 34.8667 198.931 34.9C198.764 34.9333 198.598 34.9667 198.431 35C198.298 35.0333 198.164 35.05 198.031 35.05C197.898 35.05 197.764 35.0333 197.631 35C197.598 34.9667 197.548 34.95 197.481 34.95C197.348 34.9167 197.214 34.8833 197.081 34.85C196.981 34.8167 196.881 34.7833 196.781 34.75C196.681 34.6833 196.581 34.6167 196.481 34.55C196.414 34.45 196.348 34.3667 196.281 34.3C196.214 34.2333 196.131 34.1667 196.031 34.1C195.931 34.0333 195.831 33.9833 195.731 33.95L194.981 33.5C194.948 33.4333 194.881 33.3833 194.781 33.35C194.714 33.2833 194.648 33.2333 194.581 33.2C194.448 33.1333 194.364 33.0833 194.331 33.05C194.198 32.8833 194.031 32.75 193.831 32.65C193.664 32.55 193.498 32.4333 193.331 32.3C193.064 32.0667 192.781 31.85 192.481 31.65C192.214 31.4167 191.948 31.1833 191.681 30.95C191.114 30.45 190.548 29.95 189.981 29.45C189.448 28.95 188.914 28.4333 188.381 27.9C187.981 27.5 187.581 27.1 187.181 26.7C186.781 26.3 186.348 25.9 185.881 25.5C185.748 25.4 185.614 25.3 185.481 25.2C185.381 25.1 185.248 25 185.081 24.9C185.048 24.8333 184.998 24.8167 184.931 24.85C184.898 24.8833 184.881 24.9333 184.881 25C184.848 25.0333 184.831 25.1167 184.831 25.25V30.65C184.831 30.9833 184.831 31.3333 184.831 31.7C184.831 32.0333 184.798 32.3833 184.731 32.75V33.5C184.698 33.7333 184.681 33.9667 184.681 34.2C184.714 34.4333 184.714 34.6833 184.681 34.95V35.7C184.648 35.8 184.614 35.9 184.581 36C184.548 36.1 184.498 36.2 184.431 36.3C184.331 36.4 184.248 36.5167 184.181 36.65C184.114 36.75 184.048 36.85 183.981 36.95C183.914 37.0167 183.848 37.05 183.781 37.05C183.648 37.0833 183.514 37.15 183.381 37.25C183.281 37.35 183.148 37.4333 182.981 37.5C182.748 37.7 182.464 37.8 182.131 37.8C182.064 37.7667 181.981 37.7667 181.881 37.8C181.814 37.8333 181.731 37.85 181.631 37.85Z" fill="#353535"/>
</svg>
