<svg width="219" height="25" viewBox="0 0 219 25" fill="none" xmlns="http://www.w3.org/2000/svg">
<path d="M5.65148 23.47L5.14148 23.38C4.88148 23.34 4.61148 23.3 4.33148 23.26C4.07148 23.22 3.80148 23.19 3.52148 23.17C3.24148 23.17 2.96148 23.09 2.68148 22.93C2.42148 22.79 2.24148 22.57 2.14148 22.27C2.12148 22.17 2.09148 22.07 2.05148 21.97C2.03148 21.87 2.01148 21.77 1.99148 21.67C1.99148 21.43 2.04148 21.25 2.14148 21.13C2.24148 21.03 2.32148 20.93 2.38148 20.83C2.46148 20.73 2.54148 20.64 2.62148 20.56C2.66148 20.52 2.70148 20.49 2.74148 20.47C2.78148 20.45 2.82148 20.43 2.86148 20.41C2.96148 20.35 3.06148 20.31 3.16148 20.29C3.26148 20.25 3.36148 20.22 3.46148 20.2C3.50148 20.18 3.53148 20.18 3.55148 20.2C3.59148 20.2 3.62148 20.2 3.64148 20.2C3.74148 20.22 3.85148 20.24 3.97148 20.26C4.09148 20.26 4.20148 20.28 4.30148 20.32L5.56148 20.5C5.84148 20.54 6.09148 20.5 6.31148 20.38C6.39148 20.34 6.46148 20.3 6.52148 20.26C6.60148 20.22 6.67148 20.18 6.73148 20.14C7.17148 19.88 7.55148 19.61 7.87148 19.33C8.11148 19.11 8.34148 18.89 8.56148 18.67C8.78149 18.45 8.98149 18.21 9.16149 17.95C9.30149 17.77 9.39148 17.59 9.43148 17.41C9.47148 17.21 9.48148 17.01 9.46148 16.81L9.37149 16.57C9.35148 16.47 9.31148 16.39 9.25148 16.33C9.19149 16.27 9.13149 16.2 9.07148 16.12C8.95148 16.02 8.83149 15.91 8.71148 15.79C8.61148 15.67 8.50148 15.57 8.38148 15.49C8.08148 15.25 7.78148 15.02 7.48148 14.8C7.20148 14.58 6.91148 14.36 6.61149 14.14C6.59148 14.1 6.53148 14.06 6.43148 14.02C6.25148 13.9 6.07148 13.77 5.89148 13.63C5.73148 13.47 5.57148 13.32 5.41148 13.18C5.21148 12.98 4.99148 12.79 4.75148 12.61C4.63148 12.55 4.52148 12.45 4.42148 12.31C4.34148 12.21 4.22148 12.11 4.06148 12.01C3.92148 11.93 3.79148 11.84 3.67148 11.74C3.55148 11.62 3.43148 11.51 3.31148 11.41L2.92148 11.05C2.84148 10.95 2.75148 10.86 2.65148 10.78C2.57148 10.68 2.48148 10.58 2.38148 10.48C2.34148 10.38 2.28148 10.3 2.20148 10.24C2.14148 10.18 2.08148 10.11 2.02148 10.03C2.00148 9.99 1.97148 9.95 1.93148 9.91C1.89148 9.85 1.86148 9.79 1.84148 9.73C1.72148 9.49 1.59148 9.25 1.45148 9.01C1.33148 8.77 1.22148 8.52 1.12148 8.26C1.06148 8.1 1.00148 7.95 0.941484 7.81C0.901484 7.65 0.861484 7.5 0.821484 7.36C0.801484 7.2 0.761484 7.06 0.701484 6.94C0.661484 6.8 0.621484 6.66 0.581484 6.52C0.541484 6.3 0.491484 6.09 0.431484 5.89C0.391484 5.67 0.351484 5.46 0.311484 5.26L0.251484 5.02C0.231484 4.8 0.231484 4.59 0.251484 4.39C0.291484 4.11 0.351484 3.86 0.431484 3.64C0.511484 3.4 0.641484 3.21 0.821484 3.07C1.02148 2.91 1.22148 2.75 1.42148 2.59C1.62148 2.43 1.83148 2.3 2.05148 2.2C2.09148 2.2 2.12148 2.19 2.14148 2.17C2.34148 2.01 2.56148 1.9 2.80148 1.84C3.04148 1.76 3.28148 1.69 3.52148 1.63C4.48148 1.35 5.47148 1.14 6.49148 0.999999H6.79148C6.99148 0.999999 7.18149 0.999999 7.36149 0.999999C7.54148 0.999999 7.73148 0.989999 7.93148 0.969999C8.17148 0.969999 8.41148 0.999999 8.65148 1.06C8.89148 1.1 9.12148 1.17 9.34148 1.27C9.50149 1.35 9.66149 1.44 9.82148 1.54C9.98149 1.62 10.1315 1.71 10.2715 1.81C10.4315 1.93 10.5315 2.06 10.5715 2.2L10.6615 2.41C10.7615 2.59 10.8115 2.78 10.8115 2.98C10.8315 3.16 10.8215 3.35 10.7815 3.55C10.7815 3.61 10.7715 3.68 10.7515 3.76C10.7515 3.82 10.7515 3.88 10.7515 3.94C10.6915 4.38 10.4815 4.72 10.1215 4.96C9.90148 5.16 9.61149 5.24 9.25148 5.2C9.17148 5.16 9.13148 5.18 9.13148 5.26C9.13148 5.34 9.08148 5.38 8.98148 5.38H8.80148C8.68148 5.38 8.56148 5.32 8.44148 5.2C8.34148 5.1 8.29148 5.02 8.29148 4.96C8.29148 4.88 8.33148 4.82 8.41149 4.78C8.37148 4.68 8.33148 4.59 8.29148 4.51C8.25148 4.43 8.21148 4.37 8.17148 4.33C8.11148 4.23 8.02148 4.16 7.90148 4.12C7.80148 4.1 7.70148 4.08 7.60148 4.06C7.50148 4.04 7.40148 4.02 7.30149 4C7.22148 4 7.13148 4 7.03148 4C6.93149 3.98 6.83148 3.96 6.73148 3.94C6.67148 3.92 6.58148 3.93 6.46148 3.97C6.40148 3.99 6.34148 4.01 6.28148 4.03C6.22148 4.03 6.15148 4.02 6.07148 4C6.01148 4 5.94148 4 5.86148 4C5.80148 4 5.73148 4.02 5.65148 4.06L5.08148 4.15C4.76148 4.21 4.45148 4.33 4.15148 4.51C4.09148 4.53 4.03148 4.55 3.97148 4.57C3.91148 4.59 3.85148 4.59 3.79148 4.57C3.67148 4.55 3.57148 4.58 3.49148 4.66C3.47148 4.7 3.42148 4.73 3.34148 4.75C3.28148 4.75 3.23148 4.77 3.19148 4.81C3.11148 4.89 3.07148 4.97 3.07148 5.05C3.09148 5.09 3.10148 5.15 3.10148 5.23L3.73148 7.06C3.85148 7.38 4.00148 7.68 4.18148 7.96C4.38148 8.22 4.59148 8.48 4.81148 8.74C5.15148 9.14 5.50148 9.48 5.86148 9.76L6.82148 10.57C7.02148 10.75 7.23148 10.92 7.45148 11.08C7.67149 11.24 7.88149 11.4 8.08148 11.56C8.38148 11.78 8.68148 12.01 8.98148 12.25C9.28148 12.47 9.58148 12.7 9.88148 12.94C10.1215 13.14 10.3515 13.34 10.5715 13.54C10.8115 13.72 11.0315 13.92 11.2315 14.14C11.3715 14.3 11.5115 14.46 11.6515 14.62C11.7915 14.78 11.9115 14.96 12.0115 15.16C12.1515 15.38 12.2715 15.64 12.3715 15.94C12.4915 16.32 12.5415 16.68 12.5215 17.02C12.5015 17.06 12.4915 17.12 12.4915 17.2C12.4915 17.44 12.4615 17.67 12.4015 17.89C12.3615 18.09 12.2915 18.3 12.1915 18.52C12.0915 18.72 11.9815 18.93 11.8615 19.15C11.7615 19.35 11.6415 19.55 11.5015 19.75C11.3015 20.01 11.0915 20.26 10.8715 20.5C10.6715 20.72 10.4415 20.94 10.1815 21.16C10.0415 21.28 9.90148 21.41 9.76148 21.55C9.62148 21.67 9.47148 21.78 9.31149 21.88C9.21149 21.96 9.11149 22.03 9.01148 22.09C8.91148 22.17 8.81148 22.25 8.71148 22.33C8.63148 22.37 8.55148 22.42 8.47149 22.48C8.39149 22.54 8.31148 22.6 8.23148 22.66C8.15148 22.74 8.05148 22.8 7.93148 22.84C7.83149 22.9 7.73148 22.95 7.63148 22.99L6.76148 23.35C6.58148 23.41 6.40148 23.45 6.22148 23.47C6.04148 23.49 5.85148 23.49 5.65148 23.47ZM27.3136 24.19C27.1336 24.19 26.9736 24.12 26.8336 23.98C26.7936 23.92 26.7536 23.86 26.7136 23.8C26.6736 23.74 26.6336 23.68 26.5936 23.62C26.4136 23.2 26.3236 22.76 26.3236 22.3L26.2336 21.58C26.1736 21.3 26.1236 21.02 26.0836 20.74C26.0436 20.46 25.9736 20.19 25.8736 19.93L25.6936 19.42C25.6936 19.38 25.6836 19.34 25.6636 19.3C25.6636 19.26 25.6536 19.22 25.6336 19.18L25.1836 17.59C25.1636 17.55 25.1436 17.5 25.1236 17.44C25.1236 17.38 25.1036 17.33 25.0636 17.29C25.0036 17.17 24.9536 17.05 24.9136 16.93C24.8936 16.79 24.8636 16.65 24.8236 16.51C24.8036 16.41 24.7836 16.32 24.7636 16.24C24.7436 16.14 24.7136 16.04 24.6736 15.94C24.6336 15.82 24.5936 15.75 24.5536 15.73C24.5136 15.69 24.4236 15.69 24.2836 15.73C24.1836 15.75 24.0736 15.77 23.9536 15.79C23.8536 15.79 23.7536 15.81 23.6536 15.85C23.5736 15.87 23.4736 15.89 23.3536 15.91C23.2536 15.91 23.1536 15.92 23.0536 15.94L22.6336 16.03C22.5336 16.05 22.4236 16.08 22.3036 16.12C22.2036 16.14 22.1036 16.15 22.0036 16.15L21.4636 16.24C21.3036 16.28 21.1336 16.32 20.9536 16.36C20.7736 16.4 20.6036 16.44 20.4436 16.48C19.9636 16.6 19.4836 16.69 19.0036 16.75C18.8436 16.79 18.7536 16.86 18.7336 16.96C18.7136 16.96 18.7036 16.97 18.7036 16.99C18.5836 17.31 18.4436 17.63 18.2836 17.95C18.1436 18.25 17.9936 18.56 17.8336 18.88C17.7936 18.96 17.7536 19.04 17.7136 19.12C17.6936 19.18 17.6636 19.25 17.6236 19.33C17.6036 19.37 17.5836 19.42 17.5636 19.48C17.5436 19.52 17.5236 19.56 17.5036 19.6C17.3836 19.74 17.3236 19.91 17.3236 20.11C17.3036 20.23 17.2636 20.35 17.2036 20.47C17.1436 20.57 17.0836 20.67 17.0236 20.77C17.0036 20.83 16.9636 20.86 16.9036 20.86C16.8236 20.88 16.7436 20.91 16.6636 20.95C16.5836 20.99 16.4936 21.03 16.3936 21.07C16.3336 21.09 16.2736 21.09 16.2136 21.07C16.1736 21.05 16.1236 21.03 16.0636 21.01C16.0236 20.97 15.9836 20.95 15.9436 20.95C15.7236 20.93 15.5636 20.8 15.4636 20.56C15.3036 20.24 15.1936 19.92 15.1336 19.6C15.1136 19.52 15.1136 19.45 15.1336 19.39C15.1736 19.33 15.2036 19.27 15.2236 19.21C15.3436 19.13 15.4136 19.04 15.4336 18.94V18.91C15.4336 18.65 15.4836 18.41 15.5836 18.19C15.7036 17.95 15.8036 17.72 15.8836 17.5C15.9236 17.38 15.9736 17.26 16.0336 17.14C16.0936 17.02 16.1536 16.9 16.2136 16.78C16.2936 16.64 16.3536 16.51 16.3936 16.39C16.4536 16.25 16.5036 16.11 16.5436 15.97C16.6036 15.81 16.6036 15.66 16.5436 15.52C16.5036 15.4 16.4836 15.29 16.4836 15.19C16.4836 15.07 16.4936 14.95 16.5136 14.83C16.5136 14.61 16.5936 14.42 16.7536 14.26C16.8336 14.16 16.9136 14.08 16.9936 14.02C17.0936 13.94 17.1836 13.86 17.2636 13.78C17.4436 13.6 17.5836 13.36 17.6836 13.06C17.7636 12.8 17.8236 12.54 17.8636 12.28C17.9236 12 17.9836 11.73 18.0436 11.47C18.0836 11.21 18.1236 10.96 18.1636 10.72C18.2236 10.46 18.2836 10.21 18.3436 9.97C18.3636 9.87 18.3836 9.78 18.4036 9.7C18.4436 9.6 18.4736 9.51 18.4936 9.43C18.5536 9.27 18.6136 9.12 18.6736 8.98C18.7336 8.82 18.7736 8.66 18.7936 8.5C18.8336 8.42 18.8336 8.35 18.7936 8.29C18.7736 8.19 18.7736 8.1 18.7936 8.02C18.8336 7.94 18.8636 7.86 18.8836 7.78C18.9436 7.64 18.9836 7.5 19.0036 7.36C19.0436 7.22 19.0936 7.08 19.1536 6.94C19.2536 6.68 19.3336 6.47 19.3936 6.31C19.4736 6.13 19.5436 5.93 19.6036 5.71C19.6436 5.59 19.6836 5.48 19.7236 5.38C19.7836 5.26 19.8236 5.14 19.8436 5.02C19.9036 4.84 19.9536 4.66 19.9936 4.48C20.0336 4.28 20.0536 4.09 20.0536 3.91C20.0936 3.75 20.1336 3.64 20.1736 3.58C20.2736 3.38 20.3936 3.21 20.5336 3.07C20.6936 2.93 20.8436 2.79 20.9836 2.65C21.0836 2.59 21.1836 2.55 21.2836 2.53C21.3836 2.49 21.4836 2.5 21.5836 2.56C21.6636 2.6 21.7136 2.62 21.7336 2.62C21.9136 2.6 22.0636 2.64 22.1836 2.74C22.3036 2.84 22.4036 2.96 22.4836 3.1C22.5236 3.14 22.5536 3.19 22.5736 3.25C22.5936 3.31 22.6136 3.36 22.6336 3.4C22.7336 3.56 22.7836 3.72 22.7836 3.88C22.7836 3.96 22.7936 4.05 22.8136 4.15C22.8336 4.23 22.8536 4.32 22.8736 4.42C22.9336 4.54 23.0236 4.6 23.1436 4.6C23.1636 4.58 23.1836 4.58 23.2036 4.6C23.2236 4.62 23.2336 4.64 23.2336 4.66C23.3336 4.78 23.3636 4.91 23.3236 5.05C23.2836 5.21 23.2736 5.37 23.2936 5.53C23.3336 5.67 23.3736 5.82 23.4136 5.98C23.4936 6.18 23.5736 6.38 23.6536 6.58C23.7336 6.78 23.8136 6.98 23.8936 7.18C23.9936 7.4 24.0936 7.62 24.1936 7.84C24.2936 8.06 24.3836 8.28 24.4636 8.5C24.5636 8.78 24.6636 9.06 24.7636 9.34C24.8836 9.62 25.0136 9.9 25.1536 10.18L25.2436 10.51C25.2636 10.59 25.2836 10.67 25.3036 10.75C25.3436 10.83 25.3736 10.91 25.3936 10.99C25.4336 11.05 25.4636 11.11 25.4836 11.17C25.5236 11.23 25.5636 11.28 25.6036 11.32C25.7036 11.46 25.7636 11.61 25.7836 11.77C25.8436 11.97 25.9336 12.15 26.0536 12.31C26.0936 12.37 26.1536 12.4 26.2336 12.4C26.5336 12.36 26.8336 12.33 27.1336 12.31C27.4336 12.27 27.7336 12.21 28.0336 12.13C28.2536 12.07 28.4636 12.04 28.6636 12.04C29.0436 12.04 29.3936 12.17 29.7136 12.43C30.0936 12.73 30.2936 13.11 30.3136 13.57C30.3136 13.67 30.3236 13.75 30.3436 13.81C30.3436 13.95 30.3036 14.06 30.2236 14.14C30.2036 14.2 30.1636 14.26 30.1036 14.32C30.0636 14.38 30.0236 14.44 29.9836 14.5C29.9436 14.58 29.9036 14.64 29.8636 14.68L29.6836 14.83C29.6636 14.87 29.6336 14.92 29.5936 14.98C29.5536 15.02 29.5036 15.05 29.4436 15.07C29.3636 15.09 29.2836 15.12 29.2036 15.16C29.1236 15.18 29.0336 15.19 28.9336 15.19C28.5736 15.23 28.2536 15.22 27.9736 15.16H27.4936C27.4536 15.16 27.3936 15.18 27.3136 15.22C27.2336 15.26 27.1936 15.31 27.1936 15.37V15.49C27.2536 15.67 27.2936 15.86 27.3136 16.06C27.3536 16.24 27.4136 16.41 27.4936 16.57C27.4936 16.65 27.5136 16.73 27.5536 16.81C27.6536 16.99 27.7336 17.18 27.7936 17.38C27.8536 17.56 27.9036 17.75 27.9436 17.95C27.9436 17.99 27.9636 18.07 28.0036 18.19C28.0636 18.33 28.1136 18.48 28.1536 18.64C28.1936 18.78 28.2236 18.93 28.2436 19.09C28.2436 19.21 28.2736 19.32 28.3336 19.42C28.4136 19.6 28.4736 19.78 28.5136 19.96C28.5536 20.14 28.5836 20.33 28.6036 20.53C28.6236 20.55 28.6336 20.59 28.6336 20.65C28.6336 20.69 28.6436 20.73 28.6636 20.77C28.7636 20.99 28.8336 21.23 28.8736 21.49C28.9136 21.73 28.9636 21.97 29.0236 22.21C29.0636 22.33 29.0836 22.45 29.0836 22.57C29.1036 22.71 29.1136 22.85 29.1136 22.99C29.1136 23.09 29.0836 23.2 29.0236 23.32C28.9636 23.38 28.9336 23.41 28.9336 23.41C28.8136 23.43 28.7436 23.5 28.7236 23.62L28.6336 23.8C28.5936 23.88 28.5336 23.93 28.4536 23.95C28.3736 23.95 28.3036 23.98 28.2436 24.04C28.1636 24.12 28.0536 24.16 27.9136 24.16C27.8336 24.16 27.7336 24.16 27.6136 24.16C27.5136 24.16 27.4136 24.17 27.3136 24.19ZM20.0836 13.3C20.2036 13.28 20.3236 13.26 20.4436 13.24C20.5836 13.22 20.7336 13.2 20.8936 13.18C20.9936 13.16 21.1236 13.14 21.2836 13.12C21.4436 13.1 21.5936 13.08 21.7336 13.06C21.8736 13.02 22.0136 13 22.1536 13C22.2936 12.98 22.4336 12.96 22.5736 12.94C22.6936 12.9 22.8136 12.88 22.9336 12.88C23.0536 12.86 23.1736 12.84 23.2936 12.82C23.4736 12.78 23.5436 12.68 23.5036 12.52C23.4836 12.36 23.4436 12.2 23.3836 12.04C23.3436 11.86 23.2536 11.71 23.1136 11.59C23.0736 11.55 23.0536 11.49 23.0536 11.41V11.32C23.0136 11.16 22.9636 11.01 22.9036 10.87C22.8636 10.71 22.8136 10.56 22.7536 10.42C22.7136 10.26 22.6636 10.12 22.6036 10C22.5636 9.86 22.5136 9.72 22.4536 9.58L22.0936 8.5C22.0336 8.36 21.9736 8.22 21.9136 8.08C21.8736 7.94 21.8336 7.8 21.7936 7.66L21.7036 7.54H21.6136L21.5536 7.63C21.4536 7.93 21.3336 8.23 21.1936 8.53C21.0736 8.83 20.9636 9.15 20.8636 9.49C20.8636 9.53 20.8536 9.58 20.8336 9.64C20.8136 9.7 20.7936 9.76 20.7736 9.82C20.6936 10.02 20.6136 10.24 20.5336 10.48C20.4736 10.72 20.4236 10.96 20.3836 11.2C20.3636 11.34 20.3436 11.48 20.3236 11.62C20.3036 11.74 20.2736 11.87 20.2336 12.01L19.9636 13.18C19.9436 13.2 19.9536 13.23 19.9936 13.27C20.0336 13.29 20.0636 13.3 20.0836 13.3ZM44.9037 23.77H44.7537C44.6937 23.77 44.6237 23.76 44.5437 23.74C44.4837 23.74 44.4137 23.74 44.3337 23.74C44.1937 23.76 44.0737 23.73 43.9737 23.65C43.8937 23.59 43.8037 23.51 43.7037 23.41C43.6637 23.37 43.6137 23.32 43.5537 23.26C43.5137 23.22 43.4637 23.19 43.4037 23.17C43.3637 23.15 43.3237 23.1 43.2837 23.02C43.2637 22.98 43.2337 22.93 43.1937 22.87C43.1737 22.81 43.1437 22.75 43.1037 22.69C43.0637 22.59 43.0537 22.48 43.0737 22.36C43.0937 22.3 43.1037 22.24 43.1037 22.18C43.1237 22.14 43.1337 22.09 43.1337 22.03C43.1337 21.83 43.1337 21.64 43.1337 21.46C43.1337 21.26 43.1137 21.06 43.0737 20.86C43.0537 20.8 43.0437 20.74 43.0437 20.68C43.0437 20.6 43.0337 20.52 43.0137 20.44C43.0137 20.3 43.0037 20.19 42.9837 20.11C42.9837 20.01 42.9737 19.92 42.9537 19.84C42.9537 19.76 42.9537 19.68 42.9537 19.6C42.9337 19.46 42.9237 19.33 42.9237 19.21C42.9237 19.09 42.9037 18.96 42.8637 18.82V18.73C42.8637 18.47 42.8437 18.22 42.8037 17.98C42.7837 17.72 42.7737 17.46 42.7737 17.2C42.7737 17.08 42.7637 16.99 42.7437 16.93C42.7237 16.75 42.7037 16.57 42.6837 16.39C42.6837 16.19 42.6837 15.99 42.6837 15.79C42.6837 15.61 42.6837 15.43 42.6837 15.25C42.6837 15.05 42.6637 14.86 42.6237 14.68C42.6037 14.64 42.5937 14.59 42.5937 14.53C42.5937 14.47 42.5937 14.42 42.5937 14.38C42.5937 13.56 42.5937 12.74 42.5937 11.92C42.5937 11.1 42.6037 10.29 42.6237 9.49C42.6237 9.39 42.6237 9.29 42.6237 9.19C42.6437 9.09 42.6537 8.99 42.6537 8.89C42.6537 8.83 42.6537 8.77 42.6537 8.71C42.6737 8.65 42.6837 8.6 42.6837 8.56C42.6837 8.34 42.6837 8.12 42.6837 7.9C42.7037 7.66 42.7237 7.43 42.7437 7.21C42.7837 7.15 42.7837 7.07 42.7437 6.97C42.7237 6.95 42.6937 6.94 42.6537 6.94L42.5637 7.03C42.5237 7.09 42.4737 7.15 42.4137 7.21C42.3537 7.27 42.3037 7.33 42.2637 7.39C42.1837 7.51 42.0937 7.64 41.9937 7.78C41.9137 7.9 41.8237 8.03 41.7237 8.17C41.5837 8.41 41.4337 8.66 41.2737 8.92C41.1137 9.16 40.9937 9.42 40.9137 9.7C40.8937 9.74 40.8737 9.79 40.8537 9.85C40.8337 9.89 40.8137 9.93 40.7937 9.97C40.7137 10.17 40.6237 10.37 40.5237 10.57C40.4437 10.75 40.3637 10.95 40.2837 11.17C40.1637 11.43 39.9937 11.67 39.7737 11.89C39.7337 11.93 39.6937 11.95 39.6537 11.95C39.5537 12.01 39.4437 12.07 39.3237 12.13C39.2037 12.17 39.0737 12.18 38.9337 12.16H38.7537C38.5737 12.2 38.4237 12.16 38.3037 12.04C38.1637 12 38.0437 11.93 37.9437 11.83C37.8637 11.73 37.7737 11.62 37.6737 11.5C37.5937 11.4 37.5237 11.28 37.4637 11.14C37.4237 11 37.4037 10.86 37.4037 10.72C37.3837 10.68 37.3737 10.63 37.3737 10.57C37.3737 10.51 37.3737 10.46 37.3737 10.42C37.3537 10.38 37.3337 10.34 37.3137 10.3C37.2937 10.24 37.2837 10.2 37.2837 10.18C37.2837 10.14 37.2637 10.08 37.2237 10C37.1837 9.92 37.1037 9.76 36.9837 9.52C36.8637 9.28 36.8037 9.17 36.8037 9.19C36.7437 9.09 36.6837 8.98 36.6237 8.86C36.5637 8.74 36.4937 8.63 36.4137 8.53L36.2337 8.2C36.1937 8.2 36.1637 8.19 36.1437 8.17L36.1137 8.2C36.1137 8.26 36.1137 8.32 36.1137 8.38C36.1137 8.44 36.1237 8.5 36.1437 8.56C36.1837 8.78 36.2037 9 36.2037 9.22C36.2037 9.44 36.1837 9.66 36.1437 9.88C36.1437 10 36.1537 10.1 36.1737 10.18C36.1937 10.22 36.2037 10.29 36.2037 10.39C36.2037 10.51 36.2037 10.63 36.2037 10.75C36.2237 10.87 36.2237 10.99 36.2037 11.11C36.1837 11.21 36.1737 11.32 36.1737 11.44C36.1937 11.54 36.2137 11.64 36.2337 11.74V12.04C36.1937 12.16 36.1937 12.29 36.2337 12.43C36.2537 12.53 36.2537 12.64 36.2337 12.76C36.2337 12.86 36.2437 12.96 36.2637 13.06C36.2637 13.16 36.2437 13.29 36.2037 13.45C36.0837 13.93 36.1137 14.39 36.2937 14.83C36.3137 14.91 36.3337 14.99 36.3537 15.07C36.3737 15.13 36.3737 15.2 36.3537 15.28C36.3537 15.34 36.3537 15.4 36.3537 15.46C36.3537 15.52 36.3637 15.58 36.3837 15.64C36.4237 15.72 36.4437 15.8 36.4437 15.88C36.4637 16.1 36.4737 16.27 36.4737 16.39C36.4937 16.51 36.5137 16.6 36.5337 16.66C36.5737 16.88 36.6137 17.11 36.6537 17.35C36.6937 17.57 36.7337 17.79 36.7737 18.01C36.8137 18.27 36.8537 18.53 36.8937 18.79C36.9537 19.03 36.9837 19.28 36.9837 19.54C36.9837 19.62 36.9937 19.68 37.0137 19.72C37.0537 19.88 37.0737 20.05 37.0737 20.23C37.0737 20.39 37.0837 20.55 37.1037 20.71C37.1037 20.93 37.0537 21.1 36.9537 21.22C36.9137 21.3 36.8937 21.35 36.8937 21.37C36.7137 21.75 36.3937 21.97 35.9337 22.03C35.8737 22.05 35.8137 22.06 35.7537 22.06C35.6937 22.06 35.6337 22.06 35.5737 22.06C35.3537 22.1 35.1937 22.06 35.0937 21.94C35.0537 21.9 35.0137 21.88 34.9737 21.88C34.8737 21.9 34.7737 21.84 34.6737 21.7C34.6137 21.6 34.5237 21.51 34.4037 21.43C34.3437 21.37 34.2937 21.27 34.2537 21.13C34.2337 21.09 34.2137 21.05 34.1937 21.01C34.1937 20.97 34.1937 20.93 34.1937 20.89C34.1737 20.61 34.1437 20.34 34.1037 20.08C34.0637 19.8 34.0337 19.53 34.0137 19.27L33.9837 18.97C33.9637 18.89 33.9537 18.82 33.9537 18.76C33.9537 18.7 33.9437 18.63 33.9237 18.55V18.37C33.8637 18.09 33.8337 17.81 33.8337 17.53C33.8337 17.23 33.8437 16.94 33.8637 16.66C33.8837 16.48 33.8937 16.3 33.8937 16.12C33.8937 15.92 33.9037 15.73 33.9237 15.55V14.86C33.9237 14.76 33.9237 14.66 33.9237 14.56C33.9237 14.44 33.9137 14.33 33.8937 14.23C33.8737 14.11 33.8637 13.99 33.8637 13.87C33.8637 13.75 33.8637 13.63 33.8637 13.51V12.13C33.8437 11.97 33.8337 11.81 33.8337 11.65C33.8337 11.47 33.8337 11.3 33.8337 11.14C33.8337 11.08 33.8337 11.02 33.8337 10.96C33.8337 10.88 33.8237 10.81 33.8037 10.75C33.8037 10.65 33.7937 10.56 33.7737 10.48C33.7737 10.38 33.7637 10.29 33.7437 10.21V10C33.7037 9.82 33.6837 9.65 33.6837 9.49C33.6837 9.31 33.6837 9.13 33.6837 8.95C33.6837 8.79 33.6837 8.63 33.6837 8.47C33.6837 8.29 33.6637 8.13 33.6237 7.99C33.6037 7.93 33.5937 7.87 33.5937 7.81C33.5937 7.75 33.5937 7.69 33.5937 7.63C33.5937 7.49 33.5937 7.36 33.5937 7.24C33.5937 7.1 33.5737 6.96 33.5337 6.82C33.5137 6.78 33.5037 6.71 33.5037 6.61V5.11C33.5037 5.01 33.5037 4.92 33.5037 4.84C33.5037 4.74 33.4837 4.65 33.4437 4.57C33.3837 4.37 33.3937 4.14 33.4737 3.88C33.5137 3.78 33.5537 3.71 33.5937 3.67C33.6337 3.61 33.6737 3.55 33.7137 3.49C33.7537 3.43 33.7837 3.37 33.8037 3.31C33.8437 3.25 33.8737 3.22 33.8937 3.22C33.9737 3.2 34.0337 3.17 34.0737 3.13C34.1337 3.09 34.1837 3.05 34.2237 3.01L34.4037 2.92C34.4437 2.9 34.5037 2.89 34.5837 2.89C34.6837 2.91 34.7837 2.93 34.8837 2.95C35.0037 2.95 35.1137 2.96 35.2137 2.98C35.3337 2.98 35.4237 3.03 35.4837 3.13C35.5837 3.27 35.6837 3.41 35.7837 3.55C35.8837 3.69 35.9637 3.84 36.0237 4C36.0837 4.14 36.1637 4.26 36.2637 4.36C36.3837 4.52 36.5037 4.68 36.6237 4.84C36.7437 5 36.8737 5.16 37.0137 5.32C37.0737 5.38 37.1237 5.45 37.1637 5.53C37.2237 5.61 37.2737 5.69 37.3137 5.77C37.4137 5.91 37.5037 6.05 37.5837 6.19C37.6837 6.31 37.7837 6.44 37.8837 6.58L38.3337 7.3C38.3737 7.38 38.4137 7.46 38.4537 7.54C38.4937 7.6 38.5337 7.66 38.5737 7.72C38.6137 7.82 38.6737 7.83 38.7537 7.75C38.8337 7.65 38.9137 7.55 38.9937 7.45C39.0937 7.33 39.1837 7.22 39.2637 7.12C39.4437 6.9 39.6237 6.67 39.8037 6.43C39.9837 6.19 40.1737 5.96 40.3737 5.74L40.5537 5.47C40.6937 5.27 40.8237 5.08 40.9437 4.9C41.0837 4.7 41.2137 4.5 41.3337 4.3C41.4737 4.08 41.5937 3.86 41.6937 3.64C41.8137 3.42 41.9137 3.2 41.9937 2.98L42.3537 2.17C42.4737 1.93 42.6437 1.73 42.8637 1.57C43.1637 1.33 43.4937 1.24 43.8537 1.3C43.9937 1.32 44.1237 1.36 44.2437 1.42C44.3637 1.46 44.4837 1.5 44.6037 1.54C44.7237 1.58 44.8037 1.67 44.8437 1.81C44.8837 1.87 44.9137 1.93 44.9337 1.99C44.9537 2.05 44.9637 2.11 44.9637 2.17C44.9837 2.31 45.0137 2.44 45.0537 2.56C45.0937 2.66 45.1237 2.78 45.1437 2.92L45.1737 3.22C45.2137 3.4 45.2537 3.58 45.2937 3.76C45.3537 3.94 45.4037 4.12 45.4437 4.3V4.36C45.4637 4.56 45.4837 4.76 45.5037 4.96C45.5437 5.14 45.5537 5.33 45.5337 5.53V6.22C45.5337 6.32 45.5337 6.42 45.5337 6.52C45.5337 6.62 45.5237 6.72 45.5037 6.82C45.4837 6.96 45.4737 7.1 45.4737 7.24C45.4737 7.36 45.4737 7.49 45.4737 7.63C45.4537 7.71 45.4437 7.79 45.4437 7.87C45.4437 7.95 45.4337 8.03 45.4137 8.11C45.3937 8.19 45.3837 8.27 45.3837 8.35C45.3837 8.41 45.3837 8.49 45.3837 8.59V9.43C45.3837 9.57 45.3737 9.7 45.3537 9.82C45.3537 9.94 45.3437 10.07 45.3237 10.21C45.3037 10.29 45.2937 10.37 45.2937 10.45C45.2937 10.51 45.2937 10.58 45.2937 10.66V12.49C45.2937 12.63 45.2937 12.77 45.2937 12.91C45.3137 13.05 45.3337 13.19 45.3537 13.33C45.3737 13.43 45.3837 13.54 45.3837 13.66C45.3837 13.76 45.3837 13.86 45.3837 13.96C45.4037 14.1 45.4137 14.24 45.4137 14.38C45.4137 14.5 45.4237 14.64 45.4437 14.8V15.13C45.4637 15.29 45.4737 15.46 45.4737 15.64C45.4737 15.8 45.4737 15.96 45.4737 16.12V16.51C45.5137 16.65 45.5337 16.8 45.5337 16.96C45.5337 17.12 45.5437 17.28 45.5637 17.44V17.65C45.6037 17.77 45.6237 17.89 45.6237 18.01C45.6237 18.13 45.6337 18.25 45.6537 18.37L45.7437 19.45C45.7637 19.53 45.7737 19.61 45.7737 19.69C45.7937 19.75 45.8037 19.82 45.8037 19.9C45.8237 19.98 45.8337 20.06 45.8337 20.14C45.8337 20.2 45.8437 20.27 45.8637 20.35C45.8637 20.37 45.8637 20.4 45.8637 20.44C45.8837 20.48 45.8937 20.52 45.8937 20.56C45.8937 20.7 45.9037 20.85 45.9237 21.01C45.9637 21.17 45.9937 21.33 46.0137 21.49L46.1337 22.33C46.1337 22.45 46.1237 22.53 46.1037 22.57C46.0837 22.69 46.0337 22.8 45.9537 22.9C45.8937 23.02 45.8437 23.13 45.8037 23.23C45.8037 23.25 45.7937 23.26 45.7737 23.26C45.6337 23.38 45.4937 23.48 45.3537 23.56C45.2137 23.66 45.0637 23.73 44.9037 23.77ZM52.1742 22.3C52.0142 22.28 51.8542 22.24 51.6942 22.18C51.5342 22.14 51.3942 22.07 51.2742 21.97C51.2542 21.93 51.2242 21.9 51.1842 21.88C51.1442 21.84 51.1142 21.81 51.0942 21.79C51.0142 21.67 50.9442 21.54 50.8842 21.4C50.8242 21.26 50.7842 21.12 50.7642 20.98C50.7442 20.68 50.7742 20.38 50.8542 20.08C50.9542 19.76 51.0242 19.44 51.0642 19.12C51.1042 18.78 51.1242 18.44 51.1242 18.1C51.1442 17.7 51.1542 17.3 51.1542 16.9C51.1542 16.5 51.1542 16.11 51.1542 15.73C51.1542 15.63 51.1442 15.53 51.1242 15.43C51.1242 15.31 51.1142 15.2 51.0942 15.1C51.0742 15 51.0642 14.89 51.0642 14.77C51.0642 14.65 51.0642 14.54 51.0642 14.44C51.0642 14.34 51.0542 14.24 51.0342 14.14C51.0342 14.02 51.0242 13.91 51.0042 13.81C50.9842 13.73 50.9742 13.65 50.9742 13.57C50.9942 13.49 50.9942 13.41 50.9742 13.33C50.9742 13.19 50.9742 13.05 50.9742 12.91C50.9742 12.77 50.9642 12.63 50.9442 12.49C50.9242 12.47 50.9142 12.43 50.9142 12.37V10.75C50.8942 10.65 50.8842 10.56 50.8842 10.48C50.8842 10.38 50.8842 10.28 50.8842 10.18C50.9042 10.12 50.9142 10.03 50.9142 9.91V9.55C50.9142 9.43 50.9042 9.32 50.8842 9.22C50.8842 9.1 50.8942 8.98 50.9142 8.86V8.71C50.8942 8.55 50.8842 8.4 50.8842 8.26C50.9042 8.1 50.9242 7.95 50.9442 7.81C50.9642 7.73 50.9742 7.6 50.9742 7.42C50.9342 7.3 50.9142 7.21 50.9142 7.15C50.8942 7.05 50.8742 6.96 50.8542 6.88C50.8542 6.78 50.8642 6.69 50.8842 6.61C50.9042 6.43 50.8642 6.24 50.7642 6.04C50.7042 5.96 50.6542 5.88 50.6142 5.8C50.5942 5.7 50.5642 5.61 50.5242 5.53V5.44C50.5642 5.4 50.6042 5.4 50.6442 5.44C50.7042 5.46 50.7342 5.45 50.7342 5.41C50.7542 5.37 50.7642 5.33 50.7642 5.29C50.7642 5.23 50.7742 5.19 50.7942 5.17C50.8142 5.11 50.8042 5.03 50.7642 4.93C50.7442 4.87 50.7742 4.83 50.8542 4.81C50.8942 4.73 50.9642 4.68 51.0642 4.66C51.1642 4.62 51.2242 4.59 51.2442 4.57C51.3042 4.49 51.3742 4.45 51.4542 4.45C51.5342 4.45 51.6142 4.45 51.6942 4.45C51.7542 4.45 51.8442 4.43 51.9642 4.39C52.0442 4.37 52.1242 4.37 52.2042 4.39C52.2442 4.41 52.2842 4.44 52.3242 4.48C52.3642 4.5 52.4042 4.52 52.4442 4.54C52.6442 4.62 52.8142 4.78 52.9542 5.02C52.9942 5.12 53.0342 5.22 53.0742 5.32C53.1142 5.42 53.1242 5.53 53.1042 5.65C53.1042 5.71 53.1442 5.74 53.2242 5.74H53.4642C53.5642 5.7 53.6642 5.68 53.7642 5.68C53.8842 5.68 53.9842 5.68 54.0642 5.68H54.8442C55.0642 5.66 55.2842 5.67 55.5042 5.71C55.7442 5.73 55.9742 5.76 56.1942 5.8C56.8542 5.88 57.4842 6.03 58.0842 6.25C58.7442 6.45 59.3642 6.78 59.9442 7.24C60.1642 7.4 60.4042 7.63 60.6642 7.93C60.7442 8.01 60.8142 8.1 60.8742 8.2C60.9542 8.28 61.0242 8.37 61.0842 8.47C61.3042 8.81 61.4142 9.16 61.4142 9.52C61.4542 9.76 61.4542 9.99 61.4142 10.21C61.4142 10.39 61.3742 10.55 61.2942 10.69C61.2942 10.69 61.2842 10.7 61.2642 10.72C61.2642 10.72 61.2642 10.73 61.2642 10.75C61.2242 10.81 61.1942 10.88 61.1742 10.96C61.1742 11.04 61.1442 11.1 61.0842 11.14L60.8142 11.47C60.7142 11.59 60.6042 11.72 60.4842 11.86C60.3842 11.98 60.2642 12.09 60.1242 12.19L59.8242 12.4C59.7642 12.42 59.7042 12.45 59.6442 12.49C59.5842 12.53 59.5342 12.58 59.4942 12.64C59.4342 12.7 59.3642 12.75 59.2842 12.79C59.2042 12.85 59.1142 12.91 59.0142 12.97C58.9342 13.01 58.8442 13.05 58.7442 13.09C58.6442 13.13 58.6442 13.18 58.7442 13.24L58.9542 13.33C59.0542 13.39 59.1642 13.45 59.2842 13.51C59.4042 13.55 59.5142 13.6 59.6142 13.66C59.7742 13.74 59.9342 13.84 60.0942 13.96C60.2742 14.06 60.4342 14.16 60.5742 14.26L60.9342 14.59C61.0342 14.69 61.1242 14.8 61.2042 14.92C61.3042 15.02 61.3942 15.13 61.4742 15.25C61.6342 15.45 61.7642 15.67 61.8642 15.91C61.9842 16.15 62.0642 16.4 62.1042 16.66C62.1442 16.8 62.1642 16.95 62.1642 17.11C62.1642 17.25 62.1442 17.4 62.1042 17.56C62.0642 17.72 62.0742 17.87 62.1342 18.01C62.1542 18.07 62.1442 18.17 62.1042 18.31L62.0142 18.7C61.9742 18.82 61.9242 18.93 61.8642 19.03C61.8242 19.13 61.7542 19.23 61.6542 19.33L61.2942 19.81C61.1742 19.95 61.0442 20.09 60.9042 20.23C60.7842 20.37 60.6442 20.49 60.4842 20.59L60.2142 20.77C60.1742 20.77 60.1142 20.79 60.0342 20.83C59.1542 21.29 58.2442 21.53 57.3042 21.55C57.2042 21.55 57.1242 21.56 57.0642 21.58C56.8842 21.6 56.6942 21.62 56.4942 21.64C56.3142 21.64 56.1242 21.64 55.9242 21.64C55.7642 21.64 55.5942 21.66 55.4142 21.7C55.2542 21.72 55.0942 21.73 54.9342 21.73C54.8542 21.75 54.7742 21.77 54.6942 21.79C54.6142 21.79 54.5342 21.79 54.4542 21.79C54.3542 21.81 54.2442 21.83 54.1242 21.85C54.0242 21.87 53.9242 21.9 53.8242 21.94C53.7642 21.96 53.7042 21.98 53.6442 22C53.6042 22.02 53.5542 22.05 53.4942 22.09C53.2942 22.23 53.0642 22.3 52.8042 22.3H52.1742ZM53.4942 12.31C53.5742 12.31 53.6442 12.3 53.7042 12.28C53.7842 12.26 53.8542 12.24 53.9142 12.22C54.1742 12.12 54.4242 12.03 54.6642 11.95C54.9042 11.85 55.1542 11.76 55.4142 11.68C55.7142 11.58 56.0142 11.47 56.3142 11.35C56.6142 11.21 56.9142 11.08 57.2142 10.96C57.4542 10.86 57.6842 10.73 57.9042 10.57C58.1442 10.41 58.3642 10.25 58.5642 10.09C58.6042 10.07 58.6342 10.05 58.6542 10.03C58.6742 9.99 58.6942 9.96 58.7142 9.94C58.7542 9.88 58.7542 9.82 58.7142 9.76L58.6242 9.61C58.5442 9.55 58.4742 9.49 58.4142 9.43C58.3542 9.37 58.2742 9.31 58.1742 9.25C58.0942 9.21 58.0142 9.16 57.9342 9.1C57.8542 9.04 57.7642 8.99 57.6642 8.95L57.3942 8.77C57.0942 8.65 56.7942 8.55 56.4942 8.47C56.1942 8.39 55.8842 8.35 55.5642 8.35H54.5442C54.3842 8.35 54.2242 8.36 54.0642 8.38C53.9042 8.4 53.7442 8.43 53.5842 8.47C53.5242 8.47 53.4342 8.49 53.3142 8.53C53.1942 8.55 53.1342 8.62 53.1342 8.74V9.43C53.1742 9.63 53.1742 9.84 53.1342 10.06V10.33C53.1742 10.45 53.1942 10.58 53.1942 10.72C53.1942 10.84 53.1942 10.97 53.1942 11.11C53.2142 11.47 53.2742 11.85 53.3742 12.25C53.3742 12.29 53.4142 12.31 53.4942 12.31ZM53.7342 19.24H53.8542C53.9942 19.22 54.1342 19.21 54.2742 19.21C54.4142 19.19 54.5542 19.17 54.6942 19.15C54.9342 19.11 55.1742 19.07 55.4142 19.03C55.6742 18.99 55.9242 18.96 56.1642 18.94C56.6242 18.9 57.0742 18.84 57.5142 18.76C57.6942 18.72 57.8642 18.68 58.0242 18.64C58.2042 18.6 58.3742 18.56 58.5342 18.52C58.6342 18.48 58.7242 18.44 58.8042 18.4C58.9042 18.34 58.9942 18.29 59.0742 18.25C59.3542 18.05 59.5142 17.75 59.5542 17.35C59.5742 16.97 59.4342 16.66 59.1342 16.42C59.0942 16.38 59.0142 16.32 58.8942 16.24C58.5742 16.02 58.2342 15.84 57.8742 15.7C57.5142 15.56 57.1442 15.45 56.7642 15.37C56.5842 15.33 56.4042 15.3 56.2242 15.28C56.0642 15.24 55.8942 15.23 55.7142 15.25C55.6342 15.25 55.5442 15.26 55.4442 15.28C55.3642 15.28 55.2842 15.28 55.2042 15.28C55.1242 15.28 55.0442 15.29 54.9642 15.31C54.8842 15.31 54.7942 15.31 54.6942 15.31C54.5942 15.31 54.4842 15.31 54.3642 15.31C54.2642 15.31 54.1642 15.32 54.0642 15.34H53.7942C53.6942 15.38 53.6442 15.44 53.6442 15.52C53.6642 15.68 53.6742 15.85 53.6742 16.03C53.6742 16.21 53.6742 16.38 53.6742 16.54C53.6742 16.58 53.6742 16.62 53.6742 16.66C53.6942 16.7 53.7042 16.74 53.7042 16.78V17.41C53.6842 17.53 53.6742 17.65 53.6742 17.77C53.6742 17.89 53.6742 18 53.6742 18.1C53.6742 18.24 53.6742 18.38 53.6742 18.52C53.6942 18.64 53.6842 18.77 53.6442 18.91C53.6242 18.95 53.6142 19.02 53.6142 19.12C53.6142 19.16 53.6542 19.2 53.7342 19.24ZM77.0304 24.19C76.8504 24.19 76.6904 24.12 76.5504 23.98C76.5104 23.92 76.4704 23.86 76.4304 23.8C76.3904 23.74 76.3504 23.68 76.3104 23.62C76.1304 23.2 76.0404 22.76 76.0404 22.3L75.9504 21.58C75.8904 21.3 75.8404 21.02 75.8004 20.74C75.7604 20.46 75.6904 20.19 75.5904 19.93L75.4104 19.42C75.4104 19.38 75.4004 19.34 75.3804 19.3C75.3804 19.26 75.3704 19.22 75.3504 19.18L74.9004 17.59C74.8804 17.55 74.8604 17.5 74.8404 17.44C74.8404 17.38 74.8204 17.33 74.7804 17.29C74.7204 17.17 74.6704 17.05 74.6304 16.93C74.6104 16.79 74.5804 16.65 74.5404 16.51C74.5204 16.41 74.5004 16.32 74.4804 16.24C74.4604 16.14 74.4304 16.04 74.3904 15.94C74.3504 15.82 74.3104 15.75 74.2704 15.73C74.2304 15.69 74.1404 15.69 74.0004 15.73C73.9004 15.75 73.7904 15.77 73.6704 15.79C73.5704 15.79 73.4704 15.81 73.3704 15.85C73.2904 15.87 73.1904 15.89 73.0704 15.91C72.9704 15.91 72.8704 15.92 72.7704 15.94L72.3504 16.03C72.2504 16.05 72.1404 16.08 72.0204 16.12C71.9204 16.14 71.8204 16.15 71.7204 16.15L71.1804 16.24C71.0204 16.28 70.8504 16.32 70.6704 16.36C70.4904 16.4 70.3204 16.44 70.1604 16.48C69.6804 16.6 69.2004 16.69 68.7204 16.75C68.5604 16.79 68.4704 16.86 68.4504 16.96C68.4304 16.96 68.4204 16.97 68.4204 16.99C68.3004 17.31 68.1604 17.63 68.0004 17.95C67.8604 18.25 67.7104 18.56 67.5504 18.88C67.5104 18.96 67.4704 19.04 67.4304 19.12C67.4104 19.18 67.3804 19.25 67.3404 19.33C67.3204 19.37 67.3004 19.42 67.2804 19.48C67.2604 19.52 67.2404 19.56 67.2204 19.6C67.1004 19.74 67.0404 19.91 67.0404 20.11C67.0204 20.23 66.9804 20.35 66.9204 20.47C66.8604 20.57 66.8004 20.67 66.7404 20.77C66.7204 20.83 66.6804 20.86 66.6204 20.86C66.5404 20.88 66.4604 20.91 66.3804 20.95C66.3004 20.99 66.2104 21.03 66.1104 21.07C66.0504 21.09 65.9904 21.09 65.9304 21.07C65.8904 21.05 65.8404 21.03 65.7804 21.01C65.7404 20.97 65.7004 20.95 65.6604 20.95C65.4404 20.93 65.2804 20.8 65.1804 20.56C65.0204 20.24 64.9104 19.92 64.8504 19.6C64.8304 19.52 64.8304 19.45 64.8504 19.39C64.8904 19.33 64.9204 19.27 64.9404 19.21C65.0604 19.13 65.1304 19.04 65.1504 18.94V18.91C65.1504 18.65 65.2004 18.41 65.3004 18.19C65.4204 17.95 65.5204 17.72 65.6004 17.5C65.6404 17.38 65.6904 17.26 65.7504 17.14C65.8104 17.02 65.8704 16.9 65.9304 16.78C66.0104 16.64 66.0704 16.51 66.1104 16.39C66.1704 16.25 66.2204 16.11 66.2604 15.97C66.3204 15.81 66.3204 15.66 66.2604 15.52C66.2204 15.4 66.2004 15.29 66.2004 15.19C66.2004 15.07 66.2104 14.95 66.2304 14.83C66.2304 14.61 66.3104 14.42 66.4704 14.26C66.5504 14.16 66.6304 14.08 66.7104 14.02C66.8104 13.94 66.9004 13.86 66.9804 13.78C67.1604 13.6 67.3004 13.36 67.4004 13.06C67.4804 12.8 67.5404 12.54 67.5804 12.28C67.6404 12 67.7004 11.73 67.7604 11.47C67.8004 11.21 67.8404 10.96 67.8804 10.72C67.9404 10.46 68.0004 10.21 68.0604 9.97C68.0804 9.87 68.1004 9.78 68.1204 9.7C68.1604 9.6 68.1904 9.51 68.2104 9.43C68.2704 9.27 68.3304 9.12 68.3904 8.98C68.4504 8.82 68.4904 8.66 68.5104 8.5C68.5504 8.42 68.5504 8.35 68.5104 8.29C68.4904 8.19 68.4904 8.1 68.5104 8.02C68.5504 7.94 68.5804 7.86 68.6004 7.78C68.6604 7.64 68.7004 7.5 68.7204 7.36C68.7604 7.22 68.8104 7.08 68.8704 6.94C68.9704 6.68 69.0504 6.47 69.1104 6.31C69.1904 6.13 69.2604 5.93 69.3204 5.71C69.3604 5.59 69.4004 5.48 69.4404 5.38C69.5004 5.26 69.5404 5.14 69.5604 5.02C69.6204 4.84 69.6704 4.66 69.7104 4.48C69.7504 4.28 69.7704 4.09 69.7704 3.91C69.8104 3.75 69.8504 3.64 69.8904 3.58C69.9904 3.38 70.1104 3.21 70.2504 3.07C70.4104 2.93 70.5604 2.79 70.7004 2.65C70.8004 2.59 70.9004 2.55 71.0004 2.53C71.1004 2.49 71.2004 2.5 71.3004 2.56C71.3804 2.6 71.4304 2.62 71.4504 2.62C71.6304 2.6 71.7804 2.64 71.9004 2.74C72.0204 2.84 72.1204 2.96 72.2004 3.1C72.2404 3.14 72.2704 3.19 72.2904 3.25C72.3104 3.31 72.3304 3.36 72.3504 3.4C72.4504 3.56 72.5004 3.72 72.5004 3.88C72.5004 3.96 72.5104 4.05 72.5304 4.15C72.5504 4.23 72.5704 4.32 72.5904 4.42C72.6504 4.54 72.7404 4.6 72.8604 4.6C72.8804 4.58 72.9004 4.58 72.9204 4.6C72.9404 4.62 72.9504 4.64 72.9504 4.66C73.0504 4.78 73.0804 4.91 73.0404 5.05C73.0004 5.21 72.9904 5.37 73.0104 5.53C73.0504 5.67 73.0904 5.82 73.1304 5.98C73.2104 6.18 73.2904 6.38 73.3704 6.58C73.4504 6.78 73.5304 6.98 73.6104 7.18C73.7104 7.4 73.8104 7.62 73.9104 7.84C74.0104 8.06 74.1004 8.28 74.1804 8.5C74.2804 8.78 74.3804 9.06 74.4804 9.34C74.6004 9.62 74.7304 9.9 74.8704 10.18L74.9604 10.51C74.9804 10.59 75.0004 10.67 75.0204 10.75C75.0604 10.83 75.0904 10.91 75.1104 10.99C75.1504 11.05 75.1804 11.11 75.2004 11.17C75.2404 11.23 75.2804 11.28 75.3204 11.32C75.4204 11.46 75.4804 11.61 75.5004 11.77C75.5604 11.97 75.6504 12.15 75.7704 12.31C75.8104 12.37 75.8704 12.4 75.9504 12.4C76.2504 12.36 76.5504 12.33 76.8504 12.31C77.1504 12.27 77.4504 12.21 77.7504 12.13C77.9704 12.07 78.1804 12.04 78.3804 12.04C78.7604 12.04 79.1104 12.17 79.4304 12.43C79.8104 12.73 80.0104 13.11 80.0304 13.57C80.0304 13.67 80.0404 13.75 80.0604 13.81C80.0604 13.95 80.0204 14.06 79.9404 14.14C79.9204 14.2 79.8804 14.26 79.8204 14.32C79.7804 14.38 79.7404 14.44 79.7004 14.5C79.6604 14.58 79.6204 14.64 79.5804 14.68L79.4004 14.83C79.3804 14.87 79.3504 14.92 79.3104 14.98C79.2704 15.02 79.2204 15.05 79.1604 15.07C79.0804 15.09 79.0004 15.12 78.9204 15.16C78.8404 15.18 78.7504 15.19 78.6504 15.19C78.2904 15.23 77.9704 15.22 77.6904 15.16H77.2104C77.1704 15.16 77.1104 15.18 77.0304 15.22C76.9504 15.26 76.9104 15.31 76.9104 15.37V15.49C76.9704 15.67 77.0104 15.86 77.0304 16.06C77.0704 16.24 77.1304 16.41 77.2104 16.57C77.2104 16.65 77.2304 16.73 77.2704 16.81C77.3704 16.99 77.4504 17.18 77.5104 17.38C77.5704 17.56 77.6204 17.75 77.6604 17.95C77.6604 17.99 77.6804 18.07 77.7204 18.19C77.7804 18.33 77.8304 18.48 77.8704 18.64C77.9104 18.78 77.9404 18.93 77.9604 19.09C77.9604 19.21 77.9904 19.32 78.0504 19.42C78.1304 19.6 78.1904 19.78 78.2304 19.96C78.2704 20.14 78.3004 20.33 78.3204 20.53C78.3404 20.55 78.3504 20.59 78.3504 20.65C78.3504 20.69 78.3604 20.73 78.3804 20.77C78.4804 20.99 78.5504 21.23 78.5904 21.49C78.6304 21.73 78.6804 21.97 78.7404 22.21C78.7804 22.33 78.8004 22.45 78.8004 22.57C78.8204 22.71 78.8304 22.85 78.8304 22.99C78.8304 23.09 78.8004 23.2 78.7404 23.32C78.6804 23.38 78.6504 23.41 78.6504 23.41C78.5304 23.43 78.4604 23.5 78.4404 23.62L78.3504 23.8C78.3104 23.88 78.2504 23.93 78.1704 23.95C78.0904 23.95 78.0204 23.98 77.9604 24.04C77.8804 24.12 77.7704 24.16 77.6304 24.16C77.5504 24.16 77.4504 24.16 77.3304 24.16C77.2304 24.16 77.1304 24.17 77.0304 24.19ZM69.8004 13.3C69.9204 13.28 70.0404 13.26 70.1604 13.24C70.3004 13.22 70.4504 13.2 70.6104 13.18C70.7104 13.16 70.8404 13.14 71.0004 13.12C71.1604 13.1 71.3104 13.08 71.4504 13.06C71.5904 13.02 71.7304 13 71.8704 13C72.0104 12.98 72.1504 12.96 72.2904 12.94C72.4104 12.9 72.5304 12.88 72.6504 12.88C72.7704 12.86 72.8904 12.84 73.0104 12.82C73.1904 12.78 73.2604 12.68 73.2204 12.52C73.2004 12.36 73.1604 12.2 73.1004 12.04C73.0604 11.86 72.9704 11.71 72.8304 11.59C72.7904 11.55 72.7704 11.49 72.7704 11.41V11.32C72.7304 11.16 72.6804 11.01 72.6204 10.87C72.5804 10.71 72.5304 10.56 72.4704 10.42C72.4304 10.26 72.3804 10.12 72.3204 10C72.2804 9.86 72.2304 9.72 72.1704 9.58L71.8104 8.5C71.7504 8.36 71.6904 8.22 71.6304 8.08C71.5904 7.94 71.5504 7.8 71.5104 7.66L71.4204 7.54H71.3304L71.2704 7.63C71.1704 7.93 71.0504 8.23 70.9104 8.53C70.7904 8.83 70.6804 9.15 70.5804 9.49C70.5804 9.53 70.5704 9.58 70.5504 9.64C70.5304 9.7 70.5104 9.76 70.4904 9.82C70.4104 10.02 70.3304 10.24 70.2504 10.48C70.1904 10.72 70.1404 10.96 70.1004 11.2C70.0804 11.34 70.0604 11.48 70.0404 11.62C70.0204 11.74 69.9904 11.87 69.9504 12.01L69.6804 13.18C69.6604 13.2 69.6704 13.23 69.7104 13.27C69.7504 13.29 69.7804 13.3 69.8004 13.3ZM97.5736 22.42C97.4336 22.42 97.2636 22.37 97.0636 22.27C96.9636 22.21 96.8836 22.13 96.8236 22.03C96.8036 21.97 96.7536 21.97 96.6736 22.03C96.6136 22.07 96.5636 22.07 96.5236 22.03C96.4636 21.97 96.4036 21.93 96.3436 21.91C96.2636 21.91 96.2236 21.88 96.2236 21.82C96.2236 21.76 96.2136 21.71 96.1936 21.67C96.1936 21.61 96.1736 21.56 96.1336 21.52C96.0136 21.48 95.9336 21.38 95.8936 21.22C95.8736 21.16 95.8536 21.11 95.8336 21.07C95.8136 21.01 95.7836 20.95 95.7436 20.89C95.7036 20.81 95.6836 20.74 95.6836 20.68C95.6636 20.62 95.6436 20.57 95.6236 20.53C95.6236 20.47 95.6036 20.41 95.5636 20.35C95.5436 20.21 95.5036 20.08 95.4436 19.96C95.3836 19.84 95.3336 19.71 95.2936 19.57C95.2536 19.49 95.2336 19.38 95.2336 19.24C95.2336 18.88 95.2936 18.55 95.4136 18.25C95.5136 18.07 95.5436 17.89 95.5036 17.71C95.4836 17.63 95.4836 17.55 95.5036 17.47C95.5436 17.39 95.5536 17.31 95.5336 17.23C95.5136 17.15 95.4936 17.08 95.4736 17.02C95.4736 16.96 95.4736 16.89 95.4736 16.81C95.4536 16.77 95.4436 16.72 95.4436 16.66C95.4436 16.54 95.4436 16.42 95.4436 16.3C95.4436 16.16 95.4236 16.02 95.3836 15.88C95.3636 15.82 95.3536 15.73 95.3536 15.61V14.5C95.3336 14.24 95.3036 13.98 95.2636 13.72C95.2236 13.46 95.1736 13.2 95.1136 12.94C95.1136 12.88 95.1036 12.82 95.0836 12.76C95.0836 12.7 95.0836 12.64 95.0836 12.58C95.0836 12.14 95.0136 11.71 94.8736 11.29V11.02C94.9136 10.8 94.8936 10.63 94.8136 10.51C94.7936 10.43 94.7836 10.32 94.7836 10.18V10.15C94.7836 9.95 94.7736 9.75 94.7536 9.55C94.7536 9.35 94.7636 9.15 94.7836 8.95C94.8236 8.59 94.8236 8.21 94.7836 7.81C94.7836 7.65 94.7836 7.49 94.7836 7.33C94.7836 7.17 94.7736 7.02 94.7536 6.88V6.7C94.7936 6.6 94.8136 6.51 94.8136 6.43C94.8136 6.35 94.8136 6.27 94.8136 6.19C94.8136 5.95 94.8036 5.72 94.7836 5.5C94.7836 5.26 94.7636 5.03 94.7236 4.81C94.7236 4.75 94.7236 4.69 94.7236 4.63C94.7236 4.55 94.7136 4.48 94.6936 4.42C94.6936 4.28 94.6436 4.16 94.5436 4.06L94.3336 3.88C94.1336 3.76 94.0036 3.57 93.9436 3.31C93.9236 3.27 93.9136 3.24 93.9136 3.22C93.9136 3.18 93.9036 3.14 93.8836 3.1C93.8436 3 93.8636 2.91 93.9436 2.83C94.0036 2.75 94.0436 2.67 94.0636 2.59C94.0636 2.53 94.0736 2.48 94.0936 2.44C94.1336 2.38 94.1636 2.32 94.1836 2.26C94.2036 2.2 94.2236 2.13 94.2436 2.05C94.2836 1.99 94.3136 1.97 94.3336 1.99C94.4736 1.99 94.5736 1.97 94.6336 1.93C94.7736 1.83 94.9236 1.81 95.0836 1.87C95.1236 1.89 95.1836 1.88 95.2636 1.84C95.2836 1.84 95.2936 1.83 95.2936 1.81C95.3936 1.71 95.5036 1.66 95.6236 1.66C95.7436 1.64 95.8736 1.64 96.0136 1.66C96.0336 1.66 96.0536 1.67 96.0736 1.69C96.0936 1.69 96.1136 1.69 96.1336 1.69C96.2936 1.73 96.4436 1.77 96.5836 1.81C96.7436 1.83 96.8936 1.83 97.0336 1.81C97.1336 1.81 97.2336 1.82 97.3336 1.84C97.4536 1.86 97.5636 1.87 97.6636 1.87C97.7436 1.87 97.8136 1.88 97.8736 1.9C97.9536 1.92 98.0236 1.94 98.0836 1.96C98.1636 1.98 98.2336 2.01 98.2936 2.05C98.3536 2.07 98.4236 2.08 98.5036 2.08C98.6036 2.1 98.6836 2.12 98.7436 2.14C98.8236 2.16 98.9036 2.19 98.9836 2.23C99.2436 2.37 99.5036 2.5 99.7636 2.62C99.8836 2.68 99.9936 2.76 100.094 2.86C100.234 2.96 100.354 3.02 100.454 3.04C100.474 3.04 100.494 3.05 100.514 3.07C100.534 3.07 100.554 3.07 100.574 3.07C100.594 3.09 100.614 3.1 100.634 3.1C100.654 3.1 100.674 3.11 100.694 3.13C100.794 3.23 100.914 3.31 101.054 3.37C101.214 3.41 101.344 3.48 101.444 3.58C101.484 3.62 101.544 3.66 101.624 3.7C101.784 3.76 101.924 3.85 102.044 3.97C102.084 4.01 102.114 4.03 102.134 4.03C102.214 4.03 102.304 4.08 102.404 4.18L103.034 4.84C103.114 4.92 103.174 4.99 103.214 5.05C103.314 5.19 103.424 5.32 103.544 5.44C103.664 5.56 103.784 5.68 103.904 5.8C103.944 5.84 103.984 5.89 104.024 5.95C104.084 5.99 104.124 6.04 104.144 6.1C104.164 6.14 104.194 6.18 104.234 6.22C104.274 6.24 104.304 6.27 104.324 6.31C104.544 6.55 104.754 6.8 104.954 7.06C105.174 7.32 105.374 7.59 105.554 7.87C105.654 8.01 105.744 8.16 105.824 8.32C105.904 8.48 105.974 8.64 106.034 8.8C106.094 8.94 106.154 9.08 106.214 9.22C106.294 9.36 106.364 9.5 106.424 9.64C106.484 9.86 106.554 10.06 106.634 10.24C106.714 10.5 106.794 10.75 106.874 10.99C106.954 11.23 107.024 11.49 107.084 11.77L107.174 12.16C107.174 12.32 107.174 12.49 107.174 12.67C107.194 12.83 107.204 13 107.204 13.18C107.204 13.26 107.194 13.33 107.174 13.39C107.174 13.45 107.154 13.52 107.114 13.6C107.074 13.72 107.054 13.83 107.054 13.93C107.034 14.13 106.984 14.32 106.904 14.5C106.844 14.68 106.774 14.85 106.694 15.01C106.514 15.33 106.354 15.65 106.214 15.97C106.174 16.05 106.134 16.13 106.094 16.21C106.074 16.27 106.044 16.34 106.004 16.42L105.824 16.78C105.684 17.06 105.514 17.34 105.314 17.62C105.134 17.88 104.934 18.13 104.714 18.37C104.634 18.47 104.534 18.57 104.414 18.67C104.314 18.75 104.214 18.84 104.114 18.94C103.914 19.12 103.714 19.3 103.514 19.48C103.314 19.64 103.104 19.8 102.884 19.96C102.684 20.1 102.474 20.23 102.254 20.35C102.054 20.47 101.834 20.57 101.594 20.65C101.474 20.67 101.354 20.73 101.234 20.83C101.114 20.91 100.984 20.99 100.844 21.07C100.724 21.15 100.594 21.24 100.454 21.34C100.394 21.36 100.334 21.39 100.274 21.43C100.214 21.45 100.144 21.47 100.064 21.49C100.004 21.51 99.9336 21.53 99.8536 21.55C99.7936 21.57 99.7336 21.59 99.6736 21.61C99.5936 21.63 99.5136 21.66 99.4336 21.7C99.3736 21.74 99.3136 21.79 99.2536 21.85C99.1136 21.95 98.9636 22.03 98.8036 22.09C98.6436 22.17 98.4836 22.26 98.3236 22.36C98.2836 22.38 98.2136 22.39 98.1136 22.39C98.0536 22.41 97.9936 22.41 97.9336 22.39C97.8736 22.39 97.8136 22.39 97.7536 22.39V22.42H97.5736ZM98.7736 19.06C98.9736 19.06 99.1436 19.02 99.2836 18.94C99.4436 18.88 99.5936 18.81 99.7336 18.73C99.8736 18.65 100.004 18.56 100.124 18.46L100.484 18.1C100.684 17.94 100.864 17.77 101.024 17.59C101.204 17.41 101.394 17.25 101.594 17.11C101.634 17.07 101.654 17.05 101.654 17.05C101.734 16.97 101.804 16.9 101.864 16.84C101.944 16.76 102.014 16.68 102.074 16.6C102.114 16.56 102.164 16.51 102.224 16.45C102.284 16.39 102.324 16.34 102.344 16.3C102.424 16.16 102.534 16.04 102.674 15.94C102.774 15.88 102.834 15.82 102.854 15.76C102.894 15.66 102.944 15.56 103.004 15.46C103.084 15.36 103.164 15.27 103.244 15.19C103.344 15.07 103.444 14.89 103.544 14.65L103.664 14.35C103.784 14.07 103.844 13.81 103.844 13.57C103.864 13.51 103.874 13.42 103.874 13.3C103.894 13 103.874 12.68 103.814 12.34C103.794 12.24 103.774 12.14 103.754 12.04C103.734 11.94 103.724 11.85 103.724 11.77C103.704 11.69 103.684 11.62 103.664 11.56C103.664 11.48 103.644 11.41 103.604 11.35C103.564 11.27 103.534 11.19 103.514 11.11C103.494 11.03 103.474 10.95 103.454 10.87C103.454 10.73 103.434 10.61 103.394 10.51C103.354 10.39 103.314 10.27 103.274 10.15C103.214 10.03 103.154 9.91 103.094 9.79C103.034 9.65 102.984 9.51 102.944 9.37L102.914 9.25C102.854 9.17 102.804 9.09 102.764 9.01C102.744 8.91 102.714 8.82 102.674 8.74C102.594 8.56 102.514 8.38 102.434 8.2C102.374 8.02 102.294 7.85 102.194 7.69C102.094 7.51 101.984 7.33 101.864 7.15C101.764 6.97 101.634 6.81 101.474 6.67C101.014 6.17 100.484 5.72 99.8836 5.32C99.5236 5.06 99.1636 4.89 98.8036 4.81C98.6636 4.77 98.5036 4.74 98.3236 4.72C98.1436 4.68 97.9736 4.65 97.8136 4.63C97.7536 4.63 97.7036 4.65 97.6636 4.69C97.5636 4.77 97.5136 4.87 97.5136 4.99C97.5136 5.13 97.5036 5.28 97.4836 5.44C97.4836 5.58 97.4836 5.73 97.4836 5.89C97.5236 6.17 97.5136 6.4 97.4536 6.58C97.4336 6.66 97.4136 6.74 97.3936 6.82C97.3936 6.9 97.4036 6.99 97.4236 7.09C97.4636 7.21 97.4536 7.32 97.3936 7.42C97.3336 7.54 97.3336 7.67 97.3936 7.81C97.4736 7.97 97.4936 8.17 97.4536 8.41C97.3936 8.65 97.3936 8.89 97.4536 9.13C97.4736 9.21 97.4836 9.29 97.4836 9.37C97.5036 9.45 97.5036 9.54 97.4836 9.64C97.4836 9.86 97.4936 10.08 97.5136 10.3C97.5536 10.52 97.5836 10.74 97.6036 10.96C97.6036 11 97.6236 11.06 97.6636 11.14V11.62C97.6636 11.66 97.6536 11.71 97.6336 11.77C97.6336 11.81 97.6436 11.85 97.6636 11.89C97.7036 12.05 97.7336 12.22 97.7536 12.4C97.7936 12.56 97.8336 12.72 97.8736 12.88C97.8736 12.92 97.8836 12.97 97.9036 13.03C97.9236 13.07 97.9336 13.12 97.9336 13.18C97.9336 13.32 97.9436 13.46 97.9636 13.6C97.9836 13.74 98.0036 13.89 98.0236 14.05C98.0836 14.61 98.1736 15.18 98.2936 15.76C98.3536 16 98.3836 16.25 98.3836 16.51C98.3836 16.57 98.3836 16.64 98.3836 16.72C98.3836 16.78 98.3936 16.84 98.4136 16.9C98.4536 17.04 98.4736 17.18 98.4736 17.32C98.4736 17.46 98.4736 17.6 98.4736 17.74C98.4736 17.78 98.4636 17.83 98.4436 17.89C98.4436 17.95 98.4536 18 98.4736 18.04C98.5136 18.14 98.5336 18.24 98.5336 18.34C98.5336 18.42 98.5336 18.51 98.5336 18.61C98.5336 18.69 98.5536 18.79 98.5936 18.91C98.5936 19.01 98.6536 19.06 98.7736 19.06ZM113.418 22.21C113.298 22.21 113.218 22.2 113.178 22.18C113.078 22.14 112.978 22.12 112.878 22.12C112.798 22.14 112.708 22.15 112.608 22.15C112.588 22.15 112.568 22.15 112.548 22.15C112.528 22.17 112.508 22.18 112.488 22.18C112.348 22.2 112.208 22.21 112.068 22.21C111.948 22.21 111.828 22.19 111.708 22.15C111.688 22.13 111.668 22.12 111.648 22.12C111.508 22.14 111.388 22.1 111.288 22C111.188 21.9 111.088 21.81 110.988 21.73C110.888 21.63 110.838 21.52 110.838 21.4L110.748 21.16C110.688 21.02 110.668 20.89 110.688 20.77C110.708 20.73 110.708 20.69 110.688 20.65C110.688 20.61 110.688 20.57 110.688 20.53C110.668 20.49 110.658 20.45 110.658 20.41C110.658 20.35 110.648 20.3 110.628 20.26C110.588 20.08 110.558 19.9 110.538 19.72C110.538 19.52 110.548 19.33 110.568 19.15C110.588 19.03 110.658 18.83 110.778 18.55C110.898 18.25 110.968 18.07 110.988 18.01C111.048 17.91 111.078 17.83 111.078 17.77C111.058 17.55 111.048 17.33 111.048 17.11C111.068 16.87 111.078 16.64 111.078 16.42C111.078 16.28 111.108 16.17 111.168 16.09C111.248 15.95 111.258 15.8 111.198 15.64L111.108 15.31C110.988 15.09 110.998 14.9 111.138 14.74C111.138 14.72 111.138 14.71 111.138 14.71C111.158 14.69 111.168 14.67 111.168 14.65C111.208 14.61 111.218 14.56 111.198 14.5C111.178 14.42 111.168 14.36 111.168 14.32C111.168 14.24 111.178 14.16 111.198 14.08C111.238 13.98 111.248 13.89 111.228 13.81C111.228 13.81 111.208 13.79 111.168 13.75C111.148 13.71 111.138 13.63 111.138 13.51C111.158 13.39 111.168 13.32 111.168 13.3V12.46C111.188 12.36 111.198 12.27 111.198 12.19C111.198 12.09 111.208 11.99 111.228 11.89C111.248 11.77 111.248 11.65 111.228 11.53C111.228 11.39 111.228 11.25 111.228 11.11C111.208 11.01 111.188 10.9 111.168 10.78C111.168 10.66 111.168 10.54 111.168 10.42C111.148 10.38 111.138 10.33 111.138 10.27C111.138 10.21 111.138 10.16 111.138 10.12C111.118 10.02 111.098 9.92 111.078 9.82C111.078 9.72 111.078 9.62 111.078 9.52C111.078 9.48 111.038 9.35 110.958 9.13C110.878 8.89 110.848 8.69 110.868 8.53C110.888 8.49 110.898 8.44 110.898 8.38C110.898 8.32 110.878 8.27 110.838 8.23C110.798 8.21 110.778 8.17 110.778 8.11V8.02C110.838 7.78 110.808 7.54 110.688 7.3C110.608 7.18 110.578 7.06 110.598 6.94C110.598 6.78 110.528 6.66 110.388 6.58C110.288 6.48 110.198 6.36 110.118 6.22C110.038 6.08 109.988 5.94 109.968 5.8C109.948 5.7 109.938 5.6 109.938 5.5C109.938 5.4 109.938 5.31 109.938 5.23C109.938 5.15 109.948 5.1 109.968 5.08C110.048 5 110.088 4.91 110.088 4.81C110.088 4.69 110.098 4.6 110.118 4.54C110.138 4.52 110.158 4.51 110.178 4.51C110.198 4.51 110.218 4.5 110.238 4.48C110.318 4.46 110.358 4.39 110.358 4.27C110.318 4.19 110.298 4.12 110.298 4.06C110.278 3.98 110.308 3.91 110.388 3.85C110.428 3.77 110.478 3.75 110.538 3.79C110.678 3.85 110.838 3.83 111.018 3.73C111.098 3.69 111.148 3.67 111.168 3.67C111.228 3.67 111.258 3.67 111.258 3.67C111.278 3.65 111.338 3.64 111.438 3.64C111.558 3.66 111.668 3.62 111.768 3.52C111.908 3.38 112.078 3.31 112.278 3.31H114.138C114.598 3.33 115.058 3.33 115.518 3.31C115.978 3.29 116.428 3.28 116.868 3.28C116.968 3.28 117.048 3.28 117.108 3.28C117.188 3.26 117.268 3.24 117.348 3.22C117.468 3.16 117.608 3.13 117.768 3.13H118.458C118.618 3.13 118.758 3.13 118.878 3.13C119.018 3.11 119.158 3.09 119.298 3.07C119.378 3.05 119.448 3.04 119.508 3.04C119.588 3.04 119.668 3.04 119.748 3.04C119.828 3.04 119.908 3.04 119.988 3.04C120.068 3.04 120.148 3.03 120.228 3.01C120.388 2.99 120.558 2.98 120.738 2.98C120.918 2.96 121.088 2.95 121.248 2.95C121.328 2.95 121.398 2.95 121.458 2.95C121.538 2.93 121.618 2.91 121.698 2.89C121.858 2.85 122.008 2.83 122.148 2.83C122.308 2.81 122.458 2.79 122.598 2.77C122.758 2.75 122.908 2.73 123.048 2.71C123.208 2.69 123.358 2.67 123.498 2.65C123.678 2.65 123.808 2.67 123.888 2.71C124.008 2.79 124.118 2.86 124.218 2.92C124.338 2.98 124.448 3.06 124.548 3.16C124.628 3.24 124.678 3.31 124.698 3.37C124.718 3.45 124.738 3.53 124.758 3.61C124.778 3.69 124.798 3.78 124.818 3.88V4.09C124.798 4.19 124.778 4.3 124.758 4.42C124.758 4.52 124.748 4.63 124.728 4.75C124.688 4.83 124.638 4.9 124.578 4.96L124.038 5.5C123.838 5.56 123.638 5.6 123.438 5.62C123.258 5.64 123.068 5.64 122.868 5.62H122.658C122.558 5.64 122.458 5.65 122.358 5.65C122.258 5.65 122.158 5.64 122.058 5.62C121.938 5.6 121.818 5.6 121.698 5.62C121.578 5.62 121.458 5.62 121.338 5.62C121.258 5.62 121.178 5.63 121.098 5.65C121.038 5.65 120.968 5.64 120.888 5.62C120.788 5.6 120.688 5.6 120.588 5.62C120.508 5.62 120.418 5.63 120.318 5.65C120.238 5.65 120.148 5.66 120.048 5.68C119.968 5.68 119.878 5.68 119.778 5.68C119.518 5.72 119.238 5.74 118.938 5.74C118.658 5.74 118.378 5.76 118.098 5.8C117.918 5.78 117.748 5.79 117.588 5.83C117.428 5.85 117.258 5.87 117.078 5.89C116.918 5.91 116.748 5.92 116.568 5.92C116.388 5.92 116.218 5.94 116.058 5.98C115.858 5.98 115.658 6.01 115.458 6.07C115.278 6.11 115.088 6.14 114.888 6.16L114.678 6.19C114.538 6.19 114.408 6.21 114.288 6.25C114.168 6.27 114.038 6.3 113.898 6.34C113.818 6.36 113.738 6.38 113.658 6.4C113.578 6.4 113.488 6.41 113.388 6.43C113.328 6.43 113.258 6.45 113.178 6.49C113.118 6.51 113.088 6.57 113.088 6.67L113.178 6.94C113.198 6.98 113.188 7.08 113.148 7.24C113.128 7.4 113.108 7.52 113.088 7.6C113.088 7.66 113.098 7.72 113.118 7.78C113.138 7.84 113.158 7.9 113.178 7.96C113.238 8.12 113.268 8.3 113.268 8.5C113.268 8.68 113.288 8.85 113.328 9.01C113.348 9.09 113.358 9.18 113.358 9.28C113.358 9.36 113.368 9.45 113.388 9.55C113.388 9.59 113.388 9.64 113.388 9.7C113.408 9.74 113.418 9.79 113.418 9.85C113.418 9.91 113.408 9.95 113.388 9.97C113.328 10.05 113.298 10.14 113.298 10.24C113.298 10.34 113.298 10.44 113.298 10.54C113.398 10.74 113.448 10.94 113.448 11.14C113.448 11.34 113.448 11.54 113.448 11.74C113.448 11.8 113.498 11.82 113.598 11.8H113.628C113.668 11.72 113.708 11.66 113.748 11.62C113.808 11.62 113.878 11.6 113.958 11.56C114.018 11.52 114.098 11.5 114.198 11.5C114.358 11.52 114.508 11.52 114.648 11.5C114.788 11.46 114.928 11.42 115.068 11.38C116.008 11.14 116.888 10.83 117.708 10.45C117.928 10.35 118.158 10.27 118.398 10.21C118.638 10.13 118.878 10.08 119.118 10.06H119.208C119.388 10.04 119.568 10.02 119.748 10C119.928 9.98 120.108 9.97 120.288 9.97C120.528 9.95 120.758 9.92 120.978 9.88C121.218 9.84 121.458 9.81 121.698 9.79C121.838 9.75 121.968 9.72 122.088 9.7C122.208 9.66 122.338 9.61 122.478 9.55C122.738 9.45 122.978 9.4 123.198 9.4C123.358 9.42 123.508 9.46 123.648 9.52C123.788 9.56 123.928 9.62 124.068 9.7C124.368 9.9 124.518 10.2 124.518 10.6C124.518 10.76 124.498 10.92 124.458 11.08C124.438 11.24 124.428 11.4 124.428 11.56C124.428 11.6 124.408 11.64 124.368 11.68L124.278 11.83C124.258 11.91 124.238 11.99 124.218 12.07C124.198 12.15 124.148 12.21 124.068 12.25C123.948 12.35 123.818 12.46 123.678 12.58C123.558 12.68 123.418 12.75 123.258 12.79C123.178 12.81 123.098 12.83 123.018 12.85C122.958 12.87 122.888 12.88 122.808 12.88C122.488 12.88 122.158 12.9 121.818 12.94C121.498 12.98 121.168 13.02 120.828 13.06C120.568 13.08 120.308 13.11 120.048 13.15C119.808 13.19 119.558 13.21 119.298 13.21C119.058 13.21 118.788 13.26 118.488 13.36C118.288 13.4 118.078 13.44 117.858 13.48C117.638 13.52 117.418 13.55 117.198 13.57C117.038 13.59 116.868 13.62 116.688 13.66C116.528 13.68 116.368 13.7 116.208 13.72L115.698 13.81C115.658 13.83 115.598 13.84 115.518 13.84C115.378 13.88 115.238 13.91 115.098 13.93C114.958 13.95 114.818 13.98 114.678 14.02C114.538 14.04 114.398 14.07 114.258 14.11C114.138 14.15 114.008 14.19 113.868 14.23C113.768 14.25 113.688 14.29 113.628 14.35C113.568 14.39 113.518 14.45 113.478 14.53C113.458 14.59 113.458 14.65 113.478 14.71C113.498 14.79 113.488 14.87 113.448 14.95C113.468 15.15 113.478 15.35 113.478 15.55C113.498 15.75 113.498 15.95 113.478 16.15C113.518 16.31 113.528 16.47 113.508 16.63C113.508 16.79 113.498 16.95 113.478 17.11C113.438 17.35 113.448 17.55 113.508 17.71C113.568 17.97 113.548 18.24 113.448 18.52C113.408 18.64 113.408 18.72 113.448 18.76C113.488 18.82 113.488 18.89 113.448 18.97V19.15C113.428 19.31 113.498 19.39 113.658 19.39H113.718C113.858 19.39 113.998 19.44 114.138 19.54C114.238 19.64 114.358 19.67 114.498 19.63L115.338 19.54C115.458 19.52 115.578 19.51 115.698 19.51C115.818 19.49 115.938 19.48 116.058 19.48C116.098 19.46 116.158 19.47 116.238 19.51C116.338 19.57 116.428 19.58 116.508 19.54C116.548 19.5 116.598 19.47 116.658 19.45C116.738 19.43 116.798 19.4 116.838 19.36C116.958 19.24 117.108 19.2 117.288 19.24C117.448 19.28 117.578 19.27 117.678 19.21C117.858 19.15 118.028 19.13 118.188 19.15C118.288 19.17 118.388 19.16 118.488 19.12C118.588 19.08 118.688 19.06 118.788 19.06C118.828 19.06 118.858 19.07 118.878 19.09C118.898 19.09 118.918 19.08 118.938 19.06C118.978 19.06 119.018 19.05 119.058 19.03C119.098 19.01 119.128 19 119.148 19C119.288 18.94 119.418 18.92 119.538 18.94C119.638 18.94 119.688 18.94 119.688 18.94C119.768 18.92 119.838 18.92 119.898 18.94C119.978 18.96 120.048 18.99 120.108 19.03C120.208 19.05 120.288 19.08 120.348 19.12C120.428 19.16 120.508 19.19 120.588 19.21C120.628 19.21 120.658 19.22 120.678 19.24C120.778 19.32 120.898 19.39 121.038 19.45C121.198 19.51 121.288 19.58 121.308 19.66C121.348 19.78 121.368 19.9 121.368 20.02C121.368 20.12 121.378 20.23 121.398 20.35C121.398 20.41 121.388 20.47 121.368 20.53C121.368 20.59 121.358 20.65 121.338 20.71C121.298 20.79 121.248 20.88 121.188 20.98C121.148 21.08 121.088 21.17 121.008 21.25C120.968 21.29 120.928 21.33 120.888 21.37C120.868 21.41 120.838 21.45 120.798 21.49C120.718 21.57 120.628 21.64 120.528 21.7C120.428 21.76 120.318 21.79 120.198 21.79C120.118 21.79 120.058 21.8 120.018 21.82C119.938 21.86 119.858 21.88 119.778 21.88C119.698 21.88 119.608 21.88 119.508 21.88C119.368 21.9 119.228 21.92 119.088 21.94C118.968 21.94 118.838 21.93 118.698 21.91C118.618 21.89 118.548 21.89 118.488 21.91C118.288 21.97 118.088 21.98 117.888 21.94C117.688 21.94 117.488 21.95 117.288 21.97C117.108 21.97 116.928 21.97 116.748 21.97H116.358C116.298 21.97 116.248 21.98 116.208 22C116.128 22.04 116.028 22.06 115.908 22.06C115.808 22.06 115.708 22.05 115.608 22.03H115.308C115.288 22.03 115.258 22.03 115.218 22.03C115.178 22.05 115.138 22.05 115.098 22.03C115.038 22.01 114.978 22 114.918 22C114.878 22.02 114.828 22.04 114.768 22.06C114.728 22.06 114.688 22.06 114.648 22.06C114.628 22.08 114.598 22.09 114.558 22.09C114.358 22.07 114.168 22.07 113.988 22.09C113.808 22.13 113.618 22.17 113.418 22.21ZM145.625 22.6C145.425 22.58 145.225 22.55 145.025 22.51C144.845 22.49 144.665 22.44 144.485 22.36L143.735 22.09C143.475 21.99 143.235 21.88 143.015 21.76C142.795 21.62 142.575 21.48 142.355 21.34C142.255 21.24 142.155 21.15 142.055 21.07C141.955 20.97 141.855 20.88 141.755 20.8C141.595 20.64 141.435 20.48 141.275 20.32C141.115 20.14 140.965 19.95 140.825 19.75L140.105 18.64C139.925 18.36 139.765 18.07 139.625 17.77C139.485 17.45 139.365 17.13 139.265 16.81C139.045 16.21 138.935 15.62 138.935 15.04V14.56C138.935 14.06 138.965 13.57 139.025 13.09C139.065 12.69 139.155 12.33 139.295 12.01C139.375 11.81 139.445 11.61 139.505 11.41C139.565 11.21 139.635 11.02 139.715 10.84L139.805 10.63C139.845 10.37 139.935 10.14 140.075 9.94C140.215 9.72 140.335 9.51 140.435 9.31C140.515 9.15 140.605 9.01 140.705 8.89C140.805 8.75 140.895 8.61 140.975 8.47C141.015 8.41 141.065 8.36 141.125 8.32C141.185 8.26 141.235 8.2 141.275 8.14C141.315 8.1 141.345 8.05 141.365 7.99C141.405 7.91 141.435 7.84 141.455 7.78C141.495 7.72 141.565 7.64 141.665 7.54C141.785 7.48 141.895 7.34 141.995 7.12C142.035 7.04 142.075 6.98 142.115 6.94C142.235 6.84 142.335 6.72 142.415 6.58C142.515 6.44 142.625 6.31 142.745 6.19C142.825 6.11 142.865 6 142.865 5.86C142.865 5.76 142.865 5.67 142.865 5.59C142.885 5.49 142.885 5.4 142.865 5.32C142.845 5.22 142.875 5.13 142.955 5.05C142.995 5.01 143.025 4.96 143.045 4.9C143.065 4.84 143.085 4.78 143.105 4.72C143.165 4.52 143.325 4.35 143.585 4.21C143.625 4.17 143.675 4.15 143.735 4.15C143.815 4.13 143.885 4.11 143.945 4.09C144.085 4.03 144.245 4.02 144.425 4.06C144.505 4.08 144.575 4.09 144.635 4.09C144.695 4.07 144.755 4.05 144.815 4.03C144.895 3.99 144.965 3.96 145.025 3.94C145.105 3.92 145.175 3.9 145.235 3.88C145.515 3.78 145.805 3.79 146.105 3.91C146.425 4.03 146.655 4.24 146.795 4.54C146.835 4.64 146.875 4.74 146.915 4.84C146.955 4.94 146.985 5.04 147.005 5.14C147.045 5.36 147.035 5.55 146.975 5.71C146.935 5.79 146.915 5.84 146.915 5.86C146.895 5.94 146.915 6.01 146.975 6.07C147.015 6.13 147.065 6.18 147.125 6.22C147.345 6.42 147.555 6.62 147.755 6.82C147.955 7 148.145 7.2 148.325 7.42C148.485 7.58 148.615 7.75 148.715 7.93C148.835 8.09 148.945 8.27 149.045 8.47C149.085 8.57 149.135 8.68 149.195 8.8C149.255 8.9 149.315 9 149.375 9.1C149.475 9.28 149.555 9.47 149.615 9.67C149.695 9.87 149.775 10.07 149.855 10.27V10.3C149.895 10.44 149.925 10.59 149.945 10.75C149.985 10.89 150.045 11.04 150.125 11.2C150.185 11.34 150.235 11.49 150.275 11.65C150.315 11.79 150.355 11.94 150.395 12.1C150.435 12.28 150.475 12.46 150.515 12.64C150.575 12.82 150.615 13 150.635 13.18C150.655 13.26 150.675 13.34 150.695 13.42C150.715 13.48 150.735 13.55 150.755 13.63C150.795 13.81 150.835 13.99 150.875 14.17C150.915 14.35 150.945 14.53 150.965 14.71L151.055 14.92C151.095 15.04 151.135 15.2 151.175 15.4C151.235 15.66 151.265 15.92 151.265 16.18C151.285 16.44 151.285 16.71 151.265 16.99C151.265 17.13 151.255 17.24 151.235 17.32C151.115 17.74 150.965 18.17 150.785 18.61C150.705 18.75 150.625 18.89 150.545 19.03C150.465 19.15 150.385 19.28 150.305 19.42L150.035 19.84C149.935 20.02 149.825 20.18 149.705 20.32C149.505 20.64 149.265 20.92 148.985 21.16C148.705 21.4 148.405 21.63 148.085 21.85C147.385 22.39 146.565 22.64 145.625 22.6ZM145.505 19.63C145.925 19.63 146.285 19.51 146.585 19.27C146.685 19.17 146.785 19.08 146.885 19C147.005 18.9 147.105 18.8 147.185 18.7C147.565 18.28 147.865 17.84 148.085 17.38L148.175 17.08C148.215 16.72 148.215 16.36 148.175 16L147.995 15.01C147.935 14.75 147.885 14.5 147.845 14.26C147.805 14 147.745 13.75 147.665 13.51C147.605 13.37 147.585 13.26 147.605 13.18C147.625 13.08 147.625 12.98 147.605 12.88C147.585 12.78 147.555 12.68 147.515 12.58C147.455 12.32 147.385 12.06 147.305 11.8C147.225 11.54 147.145 11.28 147.065 11.02C147.045 10.96 147.025 10.9 147.005 10.84C146.985 10.78 146.965 10.72 146.945 10.66C146.805 10.38 146.655 10.11 146.495 9.85C146.335 9.59 146.155 9.35 145.955 9.13C145.855 9.01 145.745 8.9 145.625 8.8C145.505 8.68 145.385 8.57 145.265 8.47C145.245 8.43 145.215 8.41 145.175 8.41C145.155 8.39 145.125 8.37 145.085 8.35C145.025 8.27 144.945 8.28 144.845 8.38C144.745 8.48 144.635 8.59 144.515 8.71C144.415 8.83 144.315 8.95 144.215 9.07C144.115 9.21 144.005 9.35 143.885 9.49C143.785 9.63 143.685 9.77 143.585 9.91C143.445 10.09 143.315 10.27 143.195 10.45C143.075 10.63 142.955 10.81 142.835 10.99C142.415 11.67 142.085 12.42 141.845 13.24C141.805 13.36 141.785 13.45 141.785 13.51C141.765 13.65 141.745 13.79 141.725 13.93C141.725 14.07 141.725 14.22 141.725 14.38V14.62C141.745 14.68 141.755 14.74 141.755 14.8C141.755 14.86 141.765 14.92 141.785 14.98C141.785 15.22 141.845 15.48 141.965 15.76C142.125 16.16 142.305 16.55 142.505 16.93C142.705 17.31 142.935 17.67 143.195 18.01C143.255 18.09 143.315 18.17 143.375 18.25C143.455 18.33 143.525 18.41 143.585 18.49C143.765 18.69 143.955 18.87 144.155 19.03C144.375 19.19 144.595 19.33 144.815 19.45C145.055 19.57 145.285 19.63 145.505 19.63ZM156.696 22.6C156.316 22.64 156.006 22.52 155.766 22.24C155.646 22.12 155.536 21.99 155.436 21.85C155.336 21.71 155.256 21.56 155.196 21.4C155.096 21.12 155.006 20.84 154.926 20.56C154.846 20.26 154.776 19.97 154.716 19.69C154.656 19.47 154.626 19.26 154.626 19.06C154.606 18.84 154.576 18.63 154.536 18.43C154.516 18.21 154.506 17.99 154.506 17.77C154.506 17.65 154.506 17.53 154.506 17.41C154.506 17.27 154.496 17.14 154.476 17.02C154.456 16.94 154.446 16.87 154.446 16.81C154.446 16.75 154.446 16.68 154.446 16.6C154.446 16.32 154.446 16.04 154.446 15.76C154.446 15.46 154.436 15.17 154.416 14.89C154.416 14.73 154.406 14.59 154.386 14.47C154.366 14.33 154.326 14.19 154.266 14.05C154.186 13.83 154.176 13.59 154.236 13.33C154.236 13.27 154.246 13.23 154.266 13.21C154.306 13.07 154.326 12.93 154.326 12.79C154.346 12.65 154.346 12.51 154.326 12.37C154.306 12.27 154.296 12.17 154.296 12.07C154.296 11.97 154.296 11.88 154.296 11.8C154.276 11.58 154.266 11.36 154.266 11.14C154.286 10.9 154.306 10.67 154.326 10.45C154.346 10.39 154.356 10.33 154.356 10.27C154.356 10.21 154.356 10.15 154.356 10.09C154.336 9.87 154.336 9.66 154.356 9.46C154.396 9.26 154.426 9.06 154.446 8.86C154.486 8.62 154.526 8.39 154.566 8.17C154.606 7.93 154.656 7.69 154.716 7.45C154.756 7.35 154.776 7.24 154.776 7.12C154.776 7 154.776 6.88 154.776 6.76C154.776 6.66 154.766 6.56 154.746 6.46C154.746 6.36 154.746 6.27 154.746 6.19C154.746 6.13 154.746 6.07 154.746 6.01C154.746 5.95 154.756 5.89 154.776 5.83C154.796 5.77 154.806 5.71 154.806 5.65C154.806 5.59 154.816 5.55 154.836 5.53C154.896 5.45 154.946 5.38 154.986 5.32C155.026 5.24 155.086 5.17 155.166 5.11C155.266 5.05 155.356 4.99 155.436 4.93C155.536 4.87 155.626 4.82 155.706 4.78C155.806 4.74 155.886 4.69 155.946 4.63C156.026 4.53 156.106 4.44 156.186 4.36C156.286 4.26 156.366 4.15 156.426 4.03C156.526 3.93 156.626 3.82 156.726 3.7C156.846 3.56 156.976 3.45 157.116 3.37C157.156 3.35 157.216 3.3 157.296 3.22C157.536 3 157.816 2.86 158.136 2.8C158.196 2.78 158.246 2.77 158.286 2.77C158.346 2.75 158.406 2.74 158.466 2.74L158.676 2.65C158.836 2.59 158.976 2.62 159.096 2.74C159.136 2.8 159.186 2.86 159.246 2.92C159.326 2.96 159.396 3 159.456 3.04C159.616 3.18 159.766 3.33 159.906 3.49C160.066 3.65 160.206 3.83 160.326 4.03C160.526 4.35 160.696 4.67 160.836 4.99C160.996 5.31 161.146 5.64 161.286 5.98L161.826 7.27C161.846 7.39 161.896 7.5 161.976 7.6C162.136 7.9 162.256 8.21 162.336 8.53C162.416 8.83 162.496 9.14 162.576 9.46C162.596 9.5 162.606 9.54 162.606 9.58C162.626 9.62 162.636 9.66 162.636 9.7C162.676 9.86 162.706 10.03 162.726 10.21C162.766 10.37 162.776 10.53 162.756 10.69C162.776 10.87 162.766 11.05 162.726 11.23C162.706 11.39 162.676 11.55 162.636 11.71C162.576 11.91 162.506 12.1 162.426 12.28C162.346 12.44 162.256 12.61 162.156 12.79C162.116 12.91 162.046 13.02 161.946 13.12C161.846 13.22 161.746 13.31 161.646 13.39C161.486 13.47 161.326 13.59 161.166 13.75C161.126 13.79 161.076 13.82 161.016 13.84C160.976 13.86 160.936 13.89 160.896 13.93C160.756 13.99 160.606 14.06 160.446 14.14C160.286 14.2 160.126 14.26 159.966 14.32C159.946 14.32 159.936 14.34 159.936 14.38C159.936 14.4 159.946 14.42 159.966 14.44L160.776 15.01C160.876 15.07 160.966 15.13 161.046 15.19C161.126 15.23 161.206 15.28 161.286 15.34L161.466 15.43C161.706 15.57 161.946 15.72 162.186 15.88C162.426 16.04 162.656 16.2 162.876 16.36C163.296 16.62 163.716 16.89 164.136 17.17C164.556 17.43 164.956 17.72 165.336 18.04C165.676 18.3 165.976 18.6 166.236 18.94C166.296 19 166.356 19.07 166.416 19.15C166.476 19.21 166.546 19.26 166.626 19.3L166.716 19.39C167.036 19.67 167.216 20.05 167.256 20.53C167.256 20.59 167.246 20.65 167.226 20.71C167.226 20.77 167.226 20.83 167.226 20.89C167.226 21.01 167.186 21.11 167.106 21.19C167.026 21.23 166.986 21.28 166.986 21.34C166.926 21.48 166.836 21.58 166.716 21.64C166.616 21.68 166.516 21.74 166.416 21.82C166.376 21.84 166.306 21.85 166.206 21.85C166.086 21.83 165.956 21.81 165.816 21.79C165.696 21.77 165.576 21.76 165.456 21.76C165.296 21.76 165.126 21.69 164.946 21.55C164.826 21.45 164.716 21.36 164.616 21.28C164.516 21.18 164.416 21.06 164.316 20.92C164.056 20.56 163.716 20.23 163.296 19.93C163.096 19.77 162.906 19.62 162.726 19.48C162.546 19.34 162.346 19.21 162.126 19.09C161.986 19.01 161.846 18.93 161.706 18.85C161.586 18.75 161.446 18.66 161.286 18.58C160.786 18.24 160.276 17.91 159.756 17.59C159.236 17.25 158.716 16.91 158.196 16.57C158.116 16.51 158.026 16.45 157.926 16.39C157.826 16.33 157.726 16.27 157.626 16.21C157.586 16.17 157.526 16.13 157.446 16.09C157.366 16.09 157.326 16.12 157.326 16.18C157.326 16.2 157.316 16.22 157.296 16.24C157.296 16.24 157.296 16.25 157.296 16.27C157.296 16.33 157.296 16.39 157.296 16.45C157.296 16.51 157.306 16.57 157.326 16.63C157.346 16.79 157.356 16.95 157.356 17.11C157.356 17.25 157.356 17.4 157.356 17.56C157.356 17.68 157.356 17.8 157.356 17.92C157.376 18.02 157.396 18.13 157.416 18.25C157.416 18.31 157.416 18.38 157.416 18.46C157.436 18.52 157.446 18.58 157.446 18.64C157.426 18.82 157.436 19 157.476 19.18C157.516 19.36 157.546 19.54 157.566 19.72L157.746 20.5C157.766 20.58 157.786 20.67 157.806 20.77C157.826 20.85 157.846 20.94 157.866 21.04C157.886 21.12 157.886 21.2 157.866 21.28C157.866 21.34 157.856 21.41 157.836 21.49C157.836 21.51 157.816 21.54 157.776 21.58C157.676 21.6 157.606 21.67 157.566 21.79C157.506 21.93 157.416 22.05 157.296 22.15C157.196 22.27 157.086 22.38 156.966 22.48C156.946 22.5 156.906 22.52 156.846 22.54C156.786 22.56 156.736 22.58 156.696 22.6ZM157.866 12.1H157.926C158.146 12.06 158.366 12.02 158.586 11.98C158.826 11.92 159.056 11.85 159.276 11.77C159.496 11.71 159.686 11.6 159.846 11.44C159.986 11.3 160.056 11.14 160.056 10.96C160.076 10.82 160.076 10.69 160.056 10.57C160.056 10.43 160.036 10.29 159.996 10.15C159.916 9.79 159.826 9.44 159.726 9.1C159.626 8.74 159.506 8.4 159.366 8.08L159.096 7.36C159.036 7.16 158.966 6.97 158.886 6.79C158.806 6.59 158.716 6.4 158.616 6.22C158.596 6.18 158.576 6.14 158.556 6.1C158.536 6.04 158.516 5.99 158.496 5.95L158.376 5.83C158.316 5.75 158.246 5.75 158.166 5.83C158.146 5.83 158.116 5.85 158.076 5.89C157.936 6.07 157.806 6.26 157.686 6.46C157.586 6.66 157.526 6.88 157.506 7.12C157.486 7.2 157.466 7.28 157.446 7.36C157.446 7.44 157.446 7.53 157.446 7.63V8.92C157.426 9.2 157.416 9.49 157.416 9.79C157.436 10.09 157.426 10.38 157.386 10.66C157.366 10.72 157.356 10.78 157.356 10.84C157.376 10.9 157.386 10.96 157.386 11.02C157.406 11.14 157.416 11.26 157.416 11.38C157.416 11.48 157.416 11.59 157.416 11.71C157.416 11.91 157.436 12.03 157.476 12.07C157.536 12.11 157.666 12.12 157.866 12.1ZM171.683 23.14C171.663 23.16 171.613 23.15 171.533 23.11C171.453 23.07 171.373 23.04 171.293 23.02C171.233 23.02 171.163 23.01 171.083 22.99C171.023 22.99 170.973 22.96 170.933 22.9C170.913 22.84 170.853 22.78 170.753 22.72C170.633 22.66 170.553 22.55 170.513 22.39L170.423 22.09C170.363 21.97 170.363 21.85 170.423 21.73C170.443 21.67 170.443 21.61 170.423 21.55C170.423 21.49 170.433 21.43 170.453 21.37C170.473 21.33 170.493 21.29 170.513 21.25C170.533 21.19 170.553 21.14 170.573 21.1C170.573 21.04 170.573 20.98 170.573 20.92C170.593 20.86 170.603 20.8 170.603 20.74C170.603 20.52 170.603 20.29 170.603 20.05C170.603 19.81 170.613 19.58 170.633 19.36C170.633 19.2 170.623 19.04 170.603 18.88C170.603 18.7 170.613 18.53 170.633 18.37C170.633 18.25 170.643 18.14 170.663 18.04C170.683 17.92 170.683 17.81 170.663 17.71C170.663 17.61 170.653 17.51 170.633 17.41C170.633 17.31 170.633 17.21 170.633 17.11C170.633 16.97 170.623 16.84 170.603 16.72C170.603 16.6 170.573 16.47 170.513 16.33C170.473 16.17 170.453 16.03 170.453 15.91C170.453 15.69 170.453 15.48 170.453 15.28C170.453 15.08 170.463 14.88 170.483 14.68C170.483 14.64 170.483 14.6 170.483 14.56C170.503 14.52 170.503 14.49 170.483 14.47C170.463 14.31 170.443 14.16 170.423 14.02C170.423 13.86 170.423 13.71 170.423 13.57V13.48C170.403 13.34 170.343 13.21 170.243 13.09L170.033 12.82C169.953 12.7 169.913 12.59 169.913 12.49C169.913 12.43 169.903 12.37 169.883 12.31C169.883 12.25 169.883 12.19 169.883 12.13C169.863 11.97 169.893 11.82 169.973 11.68C170.053 11.56 170.133 11.41 170.213 11.23C170.253 11.13 170.253 11.04 170.213 10.96C170.193 10.88 170.183 10.8 170.183 10.72V10.45C170.183 10.33 170.173 10.24 170.153 10.18C170.133 9.96 170.113 9.74 170.093 9.52C170.093 9.28 170.073 9.06 170.033 8.86C170.013 8.7 170.003 8.54 170.003 8.38C170.003 8.22 170.003 8.07 170.003 7.93C169.983 7.83 169.973 7.73 169.973 7.63C169.973 7.53 169.953 7.43 169.913 7.33L169.883 7.12C169.903 6.9 169.873 6.67 169.793 6.43C169.773 6.35 169.753 6.27 169.733 6.19C169.733 6.09 169.743 6 169.763 5.92C169.823 5.76 169.843 5.59 169.823 5.41C169.823 5.23 169.813 5.05 169.793 4.87C169.773 4.71 169.763 4.56 169.763 4.42C169.763 4.26 169.753 4.11 169.733 3.97C169.713 3.73 169.723 3.5 169.763 3.28C169.823 3.04 169.893 2.8 169.973 2.56C170.013 2.48 170.053 2.43 170.093 2.41C170.173 2.37 170.243 2.33 170.303 2.29C170.363 2.23 170.423 2.18 170.483 2.14C170.563 2.1 170.603 2.08 170.603 2.08C170.703 2.04 170.793 2.01 170.873 1.99C170.973 1.97 171.063 1.95 171.143 1.93C171.323 1.87 171.483 1.87 171.623 1.93C171.783 1.99 171.933 2.07 172.073 2.17C172.233 2.25 172.363 2.37 172.463 2.53C172.483 2.57 172.503 2.62 172.523 2.68C172.543 2.72 172.563 2.77 172.583 2.83C172.583 2.91 172.583 3 172.583 3.1C172.603 3.18 172.623 3.27 172.643 3.37C172.683 3.49 172.743 3.55 172.823 3.55H172.913C173.233 3.57 173.543 3.59 173.843 3.61C174.163 3.61 174.483 3.61 174.803 3.61H174.923C175.083 3.57 175.213 3.55 175.313 3.55C175.393 3.57 175.503 3.58 175.643 3.58C175.683 3.56 175.733 3.55 175.793 3.55C175.853 3.55 175.903 3.55 175.943 3.55C176.063 3.53 176.163 3.53 176.243 3.55C176.383 3.59 176.503 3.58 176.603 3.52C176.663 3.48 176.743 3.48 176.843 3.52C176.883 3.54 176.933 3.55 176.993 3.55C177.053 3.55 177.103 3.55 177.143 3.55C177.303 3.51 177.463 3.48 177.623 3.46C177.803 3.44 177.973 3.42 178.133 3.4C178.293 3.36 178.443 3.33 178.583 3.31C178.743 3.29 178.893 3.27 179.033 3.25C179.073 3.23 179.133 3.22 179.213 3.22C179.513 3.24 179.823 3.19 180.143 3.07C180.203 3.05 180.263 3.04 180.323 3.04C180.383 3.02 180.453 3.02 180.533 3.04C180.613 3.06 180.713 3.06 180.833 3.04C180.993 3.02 181.153 3 181.313 2.98C181.473 2.94 181.623 2.91 181.763 2.89C181.863 2.85 181.953 2.82 182.033 2.8C182.113 2.76 182.193 2.75 182.273 2.77L182.543 2.68C182.683 2.62 182.823 2.64 182.963 2.74L183.443 3.01C183.483 3.03 183.513 3.05 183.533 3.07C183.573 3.09 183.603 3.12 183.623 3.16C183.683 3.26 183.733 3.36 183.773 3.46C183.833 3.56 183.873 3.67 183.893 3.79C183.893 3.87 183.903 3.94 183.923 4C183.963 4.06 183.963 4.13 183.923 4.21C183.903 4.27 183.883 4.33 183.863 4.39C183.843 4.45 183.823 4.51 183.803 4.57L183.713 4.78C183.693 4.88 183.633 4.96 183.533 5.02L183.413 5.14C183.373 5.18 183.323 5.23 183.263 5.29C183.223 5.33 183.193 5.38 183.173 5.44C183.153 5.5 183.113 5.54 183.053 5.56C182.973 5.58 182.893 5.61 182.813 5.65C182.753 5.69 182.693 5.74 182.633 5.8C182.553 5.82 182.473 5.85 182.393 5.89C182.313 5.91 182.223 5.91 182.123 5.89C182.003 5.87 181.853 5.91 181.673 6.01C181.573 6.07 181.463 6.12 181.343 6.16C181.223 6.18 181.103 6.21 180.983 6.25C180.743 6.31 180.523 6.31 180.323 6.25C180.243 6.21 180.163 6.19 180.083 6.19C180.003 6.19 179.923 6.18 179.843 6.16C179.763 6.14 179.683 6.12 179.603 6.1C179.543 6.08 179.463 6.07 179.363 6.07C179.283 6.07 179.213 6.07 179.153 6.07C179.093 6.05 179.023 6.03 178.943 6.01C178.863 5.99 178.733 5.98 178.553 5.98C178.493 5.98 178.433 5.99 178.373 6.01C178.313 6.01 178.243 6 178.163 5.98C178.083 5.96 177.993 5.96 177.893 5.98C177.813 5.98 177.723 5.99 177.623 6.01C177.563 6.03 177.503 6.05 177.443 6.07C177.403 6.07 177.363 6.07 177.323 6.07C177.203 6.11 177.113 6.12 177.053 6.1C176.953 6.08 176.853 6.08 176.753 6.1C176.653 6.1 176.553 6.11 176.453 6.13C176.413 6.13 176.363 6.13 176.303 6.13C176.243 6.13 176.193 6.12 176.153 6.1C175.913 6.04 175.683 6.09 175.463 6.25H175.403C175.323 6.33 175.243 6.34 175.163 6.28C174.963 6.18 174.813 6.22 174.713 6.4C174.653 6.52 174.563 6.56 174.443 6.52C174.323 6.52 174.243 6.5 174.203 6.46C174.103 6.42 174.023 6.45 173.963 6.55C173.923 6.59 173.883 6.61 173.843 6.61C173.783 6.61 173.743 6.6 173.723 6.58C173.643 6.56 173.573 6.56 173.513 6.58C173.273 6.68 173.053 6.76 172.853 6.82C172.793 6.82 172.763 6.86 172.763 6.94C172.743 7.24 172.743 7.55 172.763 7.87C172.783 7.95 172.793 8.04 172.793 8.14C172.793 8.22 172.803 8.31 172.823 8.41C172.823 8.49 172.823 8.57 172.823 8.65C172.843 8.73 172.863 8.81 172.883 8.89V9.01C172.903 9.21 172.923 9.4 172.943 9.58C172.963 9.76 172.983 9.95 173.003 10.15C173.003 10.25 173.033 10.38 173.093 10.54C173.133 10.64 173.203 10.69 173.303 10.69C173.363 10.71 173.423 10.72 173.483 10.72C173.543 10.72 173.603 10.72 173.663 10.72H176.093C176.253 10.68 176.413 10.66 176.573 10.66C176.753 10.66 176.923 10.66 177.083 10.66C177.163 10.68 177.233 10.69 177.293 10.69C177.373 10.67 177.443 10.67 177.503 10.69H177.773C177.893 10.67 178.013 10.66 178.133 10.66C178.253 10.64 178.383 10.62 178.523 10.6C178.683 10.56 178.823 10.54 178.943 10.54C178.983 10.52 179.043 10.51 179.123 10.51C179.283 10.53 179.463 10.51 179.663 10.45C179.743 10.39 179.843 10.38 179.963 10.42C180.043 10.44 180.123 10.45 180.203 10.45C180.283 10.43 180.363 10.42 180.443 10.42C180.523 10.4 180.593 10.39 180.653 10.39C180.733 10.39 180.803 10.39 180.863 10.39C181.143 10.41 181.433 10.39 181.733 10.33C181.853 10.31 181.973 10.3 182.093 10.3C182.213 10.3 182.323 10.3 182.423 10.3C182.463 10.3 182.503 10.31 182.543 10.33C182.603 10.33 182.653 10.32 182.693 10.3C182.853 10.26 183.013 10.24 183.173 10.24C183.353 10.22 183.523 10.18 183.683 10.12C183.723 10.1 183.773 10.08 183.833 10.06C183.893 10.04 183.943 10.02 183.983 10C184.103 9.94 184.223 9.9 184.343 9.88C184.483 9.84 184.613 9.81 184.733 9.79C184.793 9.77 184.883 9.76 185.003 9.76H185.093C185.173 9.78 185.253 9.81 185.333 9.85C185.413 9.89 185.483 9.94 185.543 10C185.683 10.14 185.823 10.21 185.963 10.21C186.023 10.21 186.073 10.25 186.113 10.33V10.42C186.113 10.48 186.093 10.51 186.053 10.51C186.053 10.51 186.043 10.52 186.023 10.54C186.003 10.54 185.993 10.55 185.993 10.57C186.033 10.61 186.073 10.63 186.113 10.63V10.66C186.133 10.7 186.123 10.77 186.083 10.87C186.023 10.93 186.023 11 186.083 11.08C186.163 11.2 186.173 11.31 186.113 11.41C186.053 11.53 185.993 11.65 185.933 11.77C185.873 11.89 185.813 12 185.753 12.1C185.633 12.28 185.493 12.41 185.333 12.49C185.253 12.51 185.153 12.54 185.033 12.58C184.933 12.6 184.833 12.62 184.733 12.64C184.473 12.68 184.203 12.72 183.923 12.76C183.663 12.8 183.393 12.84 183.113 12.88C183.013 12.9 182.913 12.92 182.813 12.94C182.713 12.94 182.613 12.95 182.513 12.97C182.313 12.99 182.113 13.01 181.913 13.03C181.713 13.05 181.513 13.08 181.313 13.12H181.073C180.973 13.14 180.863 13.16 180.743 13.18C180.643 13.18 180.543 13.18 180.443 13.18C180.283 13.18 180.123 13.19 179.963 13.21C179.803 13.21 179.643 13.22 179.483 13.24C179.383 13.26 179.283 13.27 179.183 13.27C179.083 13.27 178.983 13.27 178.883 13.27C178.683 13.27 178.473 13.27 178.253 13.27C178.053 13.25 177.843 13.23 177.623 13.21C177.383 13.19 177.143 13.18 176.903 13.18C176.683 13.18 176.453 13.18 176.213 13.18H175.103C175.003 13.18 174.933 13.19 174.893 13.21C174.693 13.23 174.483 13.25 174.263 13.27C174.063 13.27 173.853 13.27 173.633 13.27H173.543C173.403 13.31 173.333 13.38 173.333 13.48C173.333 13.56 173.333 13.64 173.333 13.72C173.333 13.78 173.343 13.84 173.363 13.9C173.403 14.2 173.433 14.5 173.453 14.8C173.493 15.08 173.513 15.36 173.513 15.64C173.513 15.78 173.513 15.91 173.513 16.03C173.513 16.15 173.523 16.28 173.543 16.42C173.543 16.74 173.553 17.06 173.573 17.38C173.613 17.7 173.623 18.03 173.603 18.37C173.603 18.51 173.603 18.65 173.603 18.79C173.623 18.93 173.643 19.08 173.663 19.24C173.683 19.38 173.683 19.52 173.663 19.66C173.663 19.78 173.673 19.92 173.693 20.08C173.693 20.16 173.693 20.25 173.693 20.35C173.713 20.43 173.733 20.52 173.753 20.62C173.773 20.68 173.773 20.74 173.753 20.8C173.753 20.86 173.763 20.92 173.783 20.98C173.783 21.06 173.783 21.14 173.783 21.22C173.783 21.28 173.793 21.35 173.813 21.43C173.833 21.61 173.783 21.76 173.663 21.88C173.643 21.94 173.613 21.99 173.573 22.03C173.553 22.09 173.533 22.14 173.513 22.18C173.473 22.28 173.413 22.36 173.333 22.42C173.253 22.5 173.163 22.57 173.063 22.63C173.043 22.65 173.013 22.66 172.973 22.66C172.933 22.68 172.893 22.7 172.853 22.72C172.733 22.76 172.643 22.8 172.583 22.84C172.543 22.92 172.483 22.97 172.403 22.99C172.343 23.01 172.273 23.04 172.193 23.08C172.113 23.1 172.023 23.11 171.923 23.11C171.843 23.13 171.763 23.14 171.683 23.14ZM191.905 22.21C191.785 22.21 191.705 22.2 191.665 22.18C191.565 22.14 191.465 22.12 191.365 22.12C191.285 22.14 191.195 22.15 191.095 22.15C191.075 22.15 191.055 22.15 191.035 22.15C191.015 22.17 190.995 22.18 190.975 22.18C190.835 22.2 190.695 22.21 190.555 22.21C190.435 22.21 190.315 22.19 190.195 22.15C190.175 22.13 190.155 22.12 190.135 22.12C189.995 22.14 189.875 22.1 189.775 22C189.675 21.9 189.575 21.81 189.475 21.73C189.375 21.63 189.325 21.52 189.325 21.4L189.235 21.16C189.175 21.02 189.155 20.89 189.175 20.77C189.195 20.73 189.195 20.69 189.175 20.65C189.175 20.61 189.175 20.57 189.175 20.53C189.155 20.49 189.145 20.45 189.145 20.41C189.145 20.35 189.135 20.3 189.115 20.26C189.075 20.08 189.045 19.9 189.025 19.72C189.025 19.52 189.035 19.33 189.055 19.15C189.075 19.03 189.145 18.83 189.265 18.55C189.385 18.25 189.455 18.07 189.475 18.01C189.535 17.91 189.565 17.83 189.565 17.77C189.545 17.55 189.535 17.33 189.535 17.11C189.555 16.87 189.565 16.64 189.565 16.42C189.565 16.28 189.595 16.17 189.655 16.09C189.735 15.95 189.745 15.8 189.685 15.64L189.595 15.31C189.475 15.09 189.485 14.9 189.625 14.74C189.625 14.72 189.625 14.71 189.625 14.71C189.645 14.69 189.655 14.67 189.655 14.65C189.695 14.61 189.705 14.56 189.685 14.5C189.665 14.42 189.655 14.36 189.655 14.32C189.655 14.24 189.665 14.16 189.685 14.08C189.725 13.98 189.735 13.89 189.715 13.81C189.715 13.81 189.695 13.79 189.655 13.75C189.635 13.71 189.625 13.63 189.625 13.51C189.645 13.39 189.655 13.32 189.655 13.3V12.46C189.675 12.36 189.685 12.27 189.685 12.19C189.685 12.09 189.695 11.99 189.715 11.89C189.735 11.77 189.735 11.65 189.715 11.53C189.715 11.39 189.715 11.25 189.715 11.11C189.695 11.01 189.675 10.9 189.655 10.78C189.655 10.66 189.655 10.54 189.655 10.42C189.635 10.38 189.625 10.33 189.625 10.27C189.625 10.21 189.625 10.16 189.625 10.12C189.605 10.02 189.585 9.92 189.565 9.82C189.565 9.72 189.565 9.62 189.565 9.52C189.565 9.48 189.525 9.35 189.445 9.13C189.365 8.89 189.335 8.69 189.355 8.53C189.375 8.49 189.385 8.44 189.385 8.38C189.385 8.32 189.365 8.27 189.325 8.23C189.285 8.21 189.265 8.17 189.265 8.11V8.02C189.325 7.78 189.295 7.54 189.175 7.3C189.095 7.18 189.065 7.06 189.085 6.94C189.085 6.78 189.015 6.66 188.875 6.58C188.775 6.48 188.685 6.36 188.605 6.22C188.525 6.08 188.475 5.94 188.455 5.8C188.435 5.7 188.425 5.6 188.425 5.5C188.425 5.4 188.425 5.31 188.425 5.23C188.425 5.15 188.435 5.1 188.455 5.08C188.535 5 188.575 4.91 188.575 4.81C188.575 4.69 188.585 4.6 188.605 4.54C188.625 4.52 188.645 4.51 188.665 4.51C188.685 4.51 188.705 4.5 188.725 4.48C188.805 4.46 188.845 4.39 188.845 4.27C188.805 4.19 188.785 4.12 188.785 4.06C188.765 3.98 188.795 3.91 188.875 3.85C188.915 3.77 188.965 3.75 189.025 3.79C189.165 3.85 189.325 3.83 189.505 3.73C189.585 3.69 189.635 3.67 189.655 3.67C189.715 3.67 189.745 3.67 189.745 3.67C189.765 3.65 189.825 3.64 189.925 3.64C190.045 3.66 190.155 3.62 190.255 3.52C190.395 3.38 190.565 3.31 190.765 3.31H192.625C193.085 3.33 193.545 3.33 194.005 3.31C194.465 3.29 194.915 3.28 195.355 3.28C195.455 3.28 195.535 3.28 195.595 3.28C195.675 3.26 195.755 3.24 195.835 3.22C195.955 3.16 196.095 3.13 196.255 3.13H196.945C197.105 3.13 197.245 3.13 197.365 3.13C197.505 3.11 197.645 3.09 197.785 3.07C197.865 3.05 197.935 3.04 197.995 3.04C198.075 3.04 198.155 3.04 198.235 3.04C198.315 3.04 198.395 3.04 198.475 3.04C198.555 3.04 198.635 3.03 198.715 3.01C198.875 2.99 199.045 2.98 199.225 2.98C199.405 2.96 199.575 2.95 199.735 2.95C199.815 2.95 199.885 2.95 199.945 2.95C200.025 2.93 200.105 2.91 200.185 2.89C200.345 2.85 200.495 2.83 200.635 2.83C200.795 2.81 200.945 2.79 201.085 2.77C201.245 2.75 201.395 2.73 201.535 2.71C201.695 2.69 201.845 2.67 201.985 2.65C202.165 2.65 202.295 2.67 202.375 2.71C202.495 2.79 202.605 2.86 202.705 2.92C202.825 2.98 202.935 3.06 203.035 3.16C203.115 3.24 203.165 3.31 203.185 3.37C203.205 3.45 203.225 3.53 203.245 3.61C203.265 3.69 203.285 3.78 203.305 3.88V4.09C203.285 4.19 203.265 4.3 203.245 4.42C203.245 4.52 203.235 4.63 203.215 4.75C203.175 4.83 203.125 4.9 203.065 4.96L202.525 5.5C202.325 5.56 202.125 5.6 201.925 5.62C201.745 5.64 201.555 5.64 201.355 5.62H201.145C201.045 5.64 200.945 5.65 200.845 5.65C200.745 5.65 200.645 5.64 200.545 5.62C200.425 5.6 200.305 5.6 200.185 5.62C200.065 5.62 199.945 5.62 199.825 5.62C199.745 5.62 199.665 5.63 199.585 5.65C199.525 5.65 199.455 5.64 199.375 5.62C199.275 5.6 199.175 5.6 199.075 5.62C198.995 5.62 198.905 5.63 198.805 5.65C198.725 5.65 198.635 5.66 198.535 5.68C198.455 5.68 198.365 5.68 198.265 5.68C198.005 5.72 197.725 5.74 197.425 5.74C197.145 5.74 196.865 5.76 196.585 5.8C196.405 5.78 196.235 5.79 196.075 5.83C195.915 5.85 195.745 5.87 195.565 5.89C195.405 5.91 195.235 5.92 195.055 5.92C194.875 5.92 194.705 5.94 194.545 5.98C194.345 5.98 194.145 6.01 193.945 6.07C193.765 6.11 193.575 6.14 193.375 6.16L193.165 6.19C193.025 6.19 192.895 6.21 192.775 6.25C192.655 6.27 192.525 6.3 192.385 6.34C192.305 6.36 192.225 6.38 192.145 6.4C192.065 6.4 191.975 6.41 191.875 6.43C191.815 6.43 191.745 6.45 191.665 6.49C191.605 6.51 191.575 6.57 191.575 6.67L191.665 6.94C191.685 6.98 191.675 7.08 191.635 7.24C191.615 7.4 191.595 7.52 191.575 7.6C191.575 7.66 191.585 7.72 191.605 7.78C191.625 7.84 191.645 7.9 191.665 7.96C191.725 8.12 191.755 8.3 191.755 8.5C191.755 8.68 191.775 8.85 191.815 9.01C191.835 9.09 191.845 9.18 191.845 9.28C191.845 9.36 191.855 9.45 191.875 9.55C191.875 9.59 191.875 9.64 191.875 9.7C191.895 9.74 191.905 9.79 191.905 9.85C191.905 9.91 191.895 9.95 191.875 9.97C191.815 10.05 191.785 10.14 191.785 10.24C191.785 10.34 191.785 10.44 191.785 10.54C191.885 10.74 191.935 10.94 191.935 11.14C191.935 11.34 191.935 11.54 191.935 11.74C191.935 11.8 191.985 11.82 192.085 11.8H192.115C192.155 11.72 192.195 11.66 192.235 11.62C192.295 11.62 192.365 11.6 192.445 11.56C192.505 11.52 192.585 11.5 192.685 11.5C192.845 11.52 192.995 11.52 193.135 11.5C193.275 11.46 193.415 11.42 193.555 11.38C194.495 11.14 195.375 10.83 196.195 10.45C196.415 10.35 196.645 10.27 196.885 10.21C197.125 10.13 197.365 10.08 197.605 10.06H197.695C197.875 10.04 198.055 10.02 198.235 10C198.415 9.98 198.595 9.97 198.775 9.97C199.015 9.95 199.245 9.92 199.465 9.88C199.705 9.84 199.945 9.81 200.185 9.79C200.325 9.75 200.455 9.72 200.575 9.7C200.695 9.66 200.825 9.61 200.965 9.55C201.225 9.45 201.465 9.4 201.685 9.4C201.845 9.42 201.995 9.46 202.135 9.52C202.275 9.56 202.415 9.62 202.555 9.7C202.855 9.9 203.005 10.2 203.005 10.6C203.005 10.76 202.985 10.92 202.945 11.08C202.925 11.24 202.915 11.4 202.915 11.56C202.915 11.6 202.895 11.64 202.855 11.68L202.765 11.83C202.745 11.91 202.725 11.99 202.705 12.07C202.685 12.15 202.635 12.21 202.555 12.25C202.435 12.35 202.305 12.46 202.165 12.58C202.045 12.68 201.905 12.75 201.745 12.79C201.665 12.81 201.585 12.83 201.505 12.85C201.445 12.87 201.375 12.88 201.295 12.88C200.975 12.88 200.645 12.9 200.305 12.94C199.985 12.98 199.655 13.02 199.315 13.06C199.055 13.08 198.795 13.11 198.535 13.15C198.295 13.19 198.045 13.21 197.785 13.21C197.545 13.21 197.275 13.26 196.975 13.36C196.775 13.4 196.565 13.44 196.345 13.48C196.125 13.52 195.905 13.55 195.685 13.57C195.525 13.59 195.355 13.62 195.175 13.66C195.015 13.68 194.855 13.7 194.695 13.72L194.185 13.81C194.145 13.83 194.085 13.84 194.005 13.84C193.865 13.88 193.725 13.91 193.585 13.93C193.445 13.95 193.305 13.98 193.165 14.02C193.025 14.04 192.885 14.07 192.745 14.11C192.625 14.15 192.495 14.19 192.355 14.23C192.255 14.25 192.175 14.29 192.115 14.35C192.055 14.39 192.005 14.45 191.965 14.53C191.945 14.59 191.945 14.65 191.965 14.71C191.985 14.79 191.975 14.87 191.935 14.95C191.955 15.15 191.965 15.35 191.965 15.55C191.985 15.75 191.985 15.95 191.965 16.15C192.005 16.31 192.015 16.47 191.995 16.63C191.995 16.79 191.985 16.95 191.965 17.11C191.925 17.35 191.935 17.55 191.995 17.71C192.055 17.97 192.035 18.24 191.935 18.52C191.895 18.64 191.895 18.72 191.935 18.76C191.975 18.82 191.975 18.89 191.935 18.97V19.15C191.915 19.31 191.985 19.39 192.145 19.39H192.205C192.345 19.39 192.485 19.44 192.625 19.54C192.725 19.64 192.845 19.67 192.985 19.63L193.825 19.54C193.945 19.52 194.065 19.51 194.185 19.51C194.305 19.49 194.425 19.48 194.545 19.48C194.585 19.46 194.645 19.47 194.725 19.51C194.825 19.57 194.915 19.58 194.995 19.54C195.035 19.5 195.085 19.47 195.145 19.45C195.225 19.43 195.285 19.4 195.325 19.36C195.445 19.24 195.595 19.2 195.775 19.24C195.935 19.28 196.065 19.27 196.165 19.21C196.345 19.15 196.515 19.13 196.675 19.15C196.775 19.17 196.875 19.16 196.975 19.12C197.075 19.08 197.175 19.06 197.275 19.06C197.315 19.06 197.345 19.07 197.365 19.09C197.385 19.09 197.405 19.08 197.425 19.06C197.465 19.06 197.505 19.05 197.545 19.03C197.585 19.01 197.615 19 197.635 19C197.775 18.94 197.905 18.92 198.025 18.94C198.125 18.94 198.175 18.94 198.175 18.94C198.255 18.92 198.325 18.92 198.385 18.94C198.465 18.96 198.535 18.99 198.595 19.03C198.695 19.05 198.775 19.08 198.835 19.12C198.915 19.16 198.995 19.19 199.075 19.21C199.115 19.21 199.145 19.22 199.165 19.24C199.265 19.32 199.385 19.39 199.525 19.45C199.685 19.51 199.775 19.58 199.795 19.66C199.835 19.78 199.855 19.9 199.855 20.02C199.855 20.12 199.865 20.23 199.885 20.35C199.885 20.41 199.875 20.47 199.855 20.53C199.855 20.59 199.845 20.65 199.825 20.71C199.785 20.79 199.735 20.88 199.675 20.98C199.635 21.08 199.575 21.17 199.495 21.25C199.455 21.29 199.415 21.33 199.375 21.37C199.355 21.41 199.325 21.45 199.285 21.49C199.205 21.57 199.115 21.64 199.015 21.7C198.915 21.76 198.805 21.79 198.685 21.79C198.605 21.79 198.545 21.8 198.505 21.82C198.425 21.86 198.345 21.88 198.265 21.88C198.185 21.88 198.095 21.88 197.995 21.88C197.855 21.9 197.715 21.92 197.575 21.94C197.455 21.94 197.325 21.93 197.185 21.91C197.105 21.89 197.035 21.89 196.975 21.91C196.775 21.97 196.575 21.98 196.375 21.94C196.175 21.94 195.975 21.95 195.775 21.97C195.595 21.97 195.415 21.97 195.235 21.97H194.845C194.785 21.97 194.735 21.98 194.695 22C194.615 22.04 194.515 22.06 194.395 22.06C194.295 22.06 194.195 22.05 194.095 22.03H193.795C193.775 22.03 193.745 22.03 193.705 22.03C193.665 22.05 193.625 22.05 193.585 22.03C193.525 22.01 193.465 22 193.405 22C193.365 22.02 193.315 22.04 193.255 22.06C193.215 22.06 193.175 22.06 193.135 22.06C193.115 22.08 193.085 22.09 193.045 22.09C192.845 22.07 192.655 22.07 192.475 22.09C192.295 22.13 192.105 22.17 191.905 22.21ZM211.343 22.3C211.323 22.28 211.293 22.27 211.253 22.27C211.053 22.15 210.853 22.04 210.653 21.94C210.473 21.82 210.303 21.69 210.143 21.55C210.063 21.51 210.013 21.47 209.993 21.43C209.813 21.33 209.653 21.21 209.513 21.07C209.373 20.91 209.243 20.74 209.123 20.56C209.083 20.52 209.043 20.47 209.003 20.41C208.963 20.35 208.913 20.29 208.853 20.23C208.653 20.03 208.493 19.79 208.373 19.51C208.353 19.45 208.323 19.39 208.283 19.33C208.243 19.27 208.203 19.21 208.163 19.15C208.043 18.99 207.953 18.84 207.893 18.7C207.853 18.54 207.793 18.39 207.713 18.25C207.633 18.09 207.553 17.94 207.473 17.8C207.453 17.72 207.423 17.64 207.383 17.56C207.343 17.48 207.313 17.4 207.293 17.32C207.293 17.22 207.263 17.11 207.203 16.99C207.123 16.77 207.043 16.55 206.963 16.33C206.903 16.09 206.843 15.85 206.783 15.61C206.743 15.53 206.723 15.47 206.723 15.43C206.603 15.17 206.513 14.9 206.453 14.62C206.393 14.34 206.333 14.07 206.273 13.81L206.093 12.46C206.073 12.42 206.063 12.37 206.063 12.31C206.063 12.25 206.063 12.2 206.063 12.16C206.063 12.04 206.063 11.93 206.063 11.83C206.063 11.71 206.043 11.59 206.003 11.47C205.963 11.21 205.973 10.97 206.033 10.75C206.033 10.67 206.033 10.6 206.033 10.54C206.053 10.46 206.063 10.38 206.063 10.3C206.063 10.2 206.063 10.1 206.063 10C206.083 9.88 206.103 9.78 206.123 9.7C206.143 9.64 206.153 9.56 206.153 9.46C206.193 9.28 206.213 9.11 206.213 8.95C206.233 8.77 206.253 8.6 206.273 8.44C206.333 8.16 206.363 7.89 206.363 7.63C206.363 7.55 206.363 7.48 206.363 7.42C206.383 7.34 206.403 7.26 206.423 7.18C206.423 7 206.413 6.87 206.393 6.79C206.333 6.71 206.323 6.6 206.363 6.46C206.403 6.38 206.423 6.32 206.423 6.28C206.443 6.24 206.453 6.2 206.453 6.16C206.453 6.1 206.483 6.06 206.543 6.04H206.753C206.833 6.04 206.883 6.01 206.903 5.95C206.923 5.87 206.993 5.81 207.113 5.77C207.213 5.73 207.303 5.7 207.383 5.68C207.463 5.64 207.543 5.59 207.623 5.53C207.683 5.49 207.753 5.47 207.833 5.47C207.913 5.47 207.993 5.48 208.073 5.5L208.613 5.68C208.633 5.7 208.643 5.71 208.643 5.71C208.663 5.71 208.683 5.72 208.703 5.74C208.863 5.9 208.993 6.08 209.093 6.28C209.213 6.48 209.283 6.7 209.303 6.94C209.303 7.02 209.303 7.1 209.303 7.18C209.303 7.24 209.283 7.31 209.243 7.39C209.223 7.51 209.203 7.63 209.183 7.75C209.163 7.87 209.143 8 209.123 8.14C209.083 8.34 209.053 8.54 209.033 8.74C209.033 8.92 209.033 9.11 209.033 9.31C209.013 9.39 209.003 9.47 209.003 9.55C209.003 9.61 208.993 9.68 208.973 9.76C208.953 10 208.943 10.24 208.943 10.48C208.943 10.72 208.963 10.95 209.003 11.17C209.003 11.19 209.003 11.22 209.003 11.26C209.023 11.3 209.023 11.34 209.003 11.38C209.003 11.58 209.023 11.79 209.063 12.01C209.103 12.23 209.133 12.45 209.153 12.67C209.173 12.87 209.193 13.06 209.213 13.24C209.233 13.42 209.263 13.6 209.303 13.78C209.343 13.86 209.363 13.94 209.363 14.02C209.383 14.1 209.403 14.18 209.423 14.26C209.503 14.64 209.593 15.01 209.693 15.37C209.793 15.73 209.923 16.09 210.083 16.45C210.183 16.67 210.283 16.86 210.383 17.02C210.543 17.3 210.683 17.58 210.803 17.86C210.883 18 210.963 18.14 211.043 18.28C211.123 18.4 211.203 18.53 211.283 18.67C211.363 18.77 211.443 18.86 211.523 18.94C211.603 19.02 211.683 19.11 211.763 19.21C211.863 19.31 211.993 19.34 212.153 19.3C212.253 19.26 212.323 19.22 212.363 19.18C212.463 19.12 212.553 19.06 212.633 19C212.733 18.94 212.823 18.87 212.903 18.79C213.123 18.57 213.323 18.35 213.503 18.13C213.703 17.91 213.873 17.67 214.013 17.41C214.133 17.19 214.253 16.96 214.373 16.72C214.493 16.48 214.603 16.24 214.703 16C214.823 15.72 214.933 15.44 215.033 15.16C215.153 14.88 215.263 14.59 215.363 14.29C215.443 14.09 215.503 13.89 215.543 13.69C215.603 13.47 215.643 13.26 215.663 13.06C215.703 12.84 215.733 12.62 215.753 12.4C215.793 12.16 215.803 11.93 215.783 11.71C215.783 11.65 215.783 11.59 215.783 11.53C215.803 11.47 215.813 11.41 215.813 11.35C215.853 11.21 215.863 11.08 215.843 10.96C215.843 10.84 215.833 10.72 215.813 10.6C215.793 10.26 215.763 9.94 215.723 9.64C215.703 9.32 215.683 9 215.663 8.68C215.663 8.52 215.653 8.41 215.633 8.35C215.613 8.17 215.593 7.99 215.573 7.81C215.573 7.63 215.553 7.45 215.513 7.27V7.03C215.513 6.83 215.503 6.64 215.483 6.46C215.483 6.26 215.483 6.06 215.483 5.86C215.483 5.7 215.473 5.56 215.453 5.44C215.453 5.3 215.453 5.16 215.453 5.02C215.453 4.84 215.483 4.69 215.543 4.57C215.603 4.47 215.623 4.39 215.603 4.33C215.543 4.21 215.573 4.12 215.693 4.06C215.793 3.96 215.893 3.88 215.993 3.82C216.113 3.76 216.243 3.72 216.383 3.7C216.423 3.68 216.453 3.67 216.473 3.67C216.513 3.67 216.543 3.66 216.563 3.64C216.683 3.54 216.843 3.51 217.043 3.55C217.083 3.57 217.143 3.58 217.223 3.58C217.403 3.62 217.533 3.69 217.613 3.79C217.673 3.85 217.763 3.92 217.883 4C218.043 4.08 218.153 4.18 218.213 4.3C218.273 4.42 218.313 4.55 218.333 4.69C218.373 4.89 218.403 5.08 218.423 5.26C218.463 5.44 218.473 5.63 218.453 5.83V6.1C218.453 6.3 218.453 6.5 218.453 6.7C218.473 6.88 218.493 7.07 218.513 7.27C218.533 7.33 218.543 7.4 218.543 7.48C218.543 7.54 218.543 7.6 218.543 7.66C218.543 7.78 218.543 7.9 218.543 8.02C218.563 8.12 218.583 8.23 218.603 8.35C218.623 8.39 218.633 8.45 218.633 8.53C218.613 8.73 218.613 8.93 218.633 9.13C218.673 9.31 218.703 9.5 218.723 9.7C218.743 9.9 218.753 10.11 218.753 10.33C218.773 10.55 218.783 10.77 218.783 10.99C218.803 11.01 218.803 11.04 218.783 11.08C218.783 11.12 218.783 11.16 218.783 11.2C218.723 11.38 218.713 11.59 218.753 11.83C218.793 12.09 218.783 12.34 218.723 12.58C218.703 12.76 218.683 12.94 218.663 13.12C218.643 13.3 218.613 13.49 218.573 13.69C218.533 14.01 218.463 14.33 218.363 14.65C218.263 14.97 218.163 15.29 218.063 15.61C218.063 15.65 218.033 15.72 217.973 15.82C217.893 15.96 217.823 16.11 217.763 16.27C217.703 16.41 217.653 16.56 217.613 16.72L217.523 16.93C217.423 17.13 217.333 17.33 217.253 17.53C217.193 17.71 217.113 17.9 217.013 18.1C216.953 18.22 216.893 18.34 216.833 18.46C216.773 18.58 216.703 18.69 216.623 18.79C216.603 18.83 216.573 18.87 216.533 18.91C216.493 19.05 216.433 19.18 216.353 19.3C216.273 19.42 216.193 19.54 216.113 19.66C215.893 20 215.633 20.32 215.333 20.62C215.053 20.92 214.743 21.2 214.403 21.46L214.043 21.67C213.763 21.81 213.463 21.93 213.143 22.03C212.843 22.13 212.533 22.2 212.213 22.24C212.113 22.26 212.003 22.26 211.883 22.24C211.823 22.24 211.763 22.24 211.703 22.24C211.643 22.24 211.583 22.26 211.523 22.3H211.343Z" fill="#353535"/>
</svg>
