<svg width="196" height="25" viewBox="0 0 196 25" fill="none" xmlns="http://www.w3.org/2000/svg">
<path d="M5.48742 23.47L4.97742 23.38C4.71742 23.34 4.44742 23.3 4.16742 23.26C3.90742 23.22 3.63742 23.19 3.35742 23.17C3.07742 23.17 2.79742 23.09 2.51742 22.93C2.25742 22.79 2.07742 22.57 1.97742 22.27C1.95742 22.17 1.92742 22.07 1.88742 21.97C1.86742 21.87 1.84742 21.77 1.82742 21.67C1.82742 21.43 1.87742 21.25 1.97742 21.13C2.07742 21.03 2.15742 20.93 2.21742 20.83C2.29742 20.73 2.37742 20.64 2.45742 20.56C2.49742 20.52 2.53742 20.49 2.57742 20.47C2.61742 20.45 2.65742 20.43 2.69742 20.41C2.79742 20.35 2.89742 20.31 2.99742 20.29C3.09742 20.25 3.19742 20.22 3.29742 20.2C3.33742 20.18 3.36742 20.18 3.38742 20.2C3.42742 20.2 3.45742 20.2 3.47742 20.2C3.57742 20.22 3.68742 20.24 3.80742 20.26C3.92742 20.26 4.03742 20.28 4.13742 20.32L5.39742 20.5C5.67742 20.54 5.92742 20.5 6.14742 20.38C6.22742 20.34 6.29742 20.3 6.35742 20.26C6.43742 20.22 6.50742 20.18 6.56742 20.14C7.00742 19.88 7.38742 19.61 7.70742 19.33C7.94742 19.11 8.17742 18.89 8.39742 18.67C8.61742 18.45 8.81742 18.21 8.99742 17.95C9.13742 17.77 9.22742 17.59 9.26742 17.41C9.30742 17.21 9.31742 17.01 9.29742 16.81L9.20742 16.57C9.18742 16.47 9.14742 16.39 9.08742 16.33C9.02742 16.27 8.96742 16.2 8.90742 16.12C8.78742 16.02 8.66742 15.91 8.54742 15.79C8.44742 15.67 8.33742 15.57 8.21742 15.49C7.91742 15.25 7.61742 15.02 7.31742 14.8C7.03742 14.58 6.74742 14.36 6.44742 14.14C6.42742 14.1 6.36742 14.06 6.26742 14.02C6.08742 13.9 5.90742 13.77 5.72742 13.63C5.56742 13.47 5.40742 13.32 5.24742 13.18C5.04742 12.98 4.82742 12.79 4.58742 12.61C4.46742 12.55 4.35742 12.45 4.25742 12.31C4.17742 12.21 4.05742 12.11 3.89742 12.01C3.75742 11.93 3.62742 11.84 3.50742 11.74C3.38742 11.62 3.26742 11.51 3.14742 11.41L2.75742 11.05C2.67742 10.95 2.58742 10.86 2.48742 10.78C2.40742 10.68 2.31742 10.58 2.21742 10.48C2.17742 10.38 2.11742 10.3 2.03742 10.24C1.97742 10.18 1.91742 10.11 1.85742 10.03C1.83742 9.99 1.80742 9.95 1.76742 9.91C1.72742 9.85 1.69742 9.79 1.67742 9.73C1.55742 9.49 1.42742 9.25 1.28742 9.01C1.16742 8.77 1.05742 8.52 0.957422 8.26C0.897422 8.1 0.837422 7.95 0.777422 7.81C0.737422 7.65 0.697422 7.5 0.657422 7.36C0.637422 7.2 0.597422 7.06 0.537422 6.94C0.497422 6.8 0.457422 6.66 0.417422 6.52C0.377422 6.3 0.327422 6.09 0.267422 5.89C0.227422 5.67 0.187422 5.46 0.147422 5.26L0.0874219 5.02C0.0674219 4.8 0.0674219 4.59 0.0874219 4.39C0.127422 4.11 0.187422 3.86 0.267422 3.64C0.347422 3.4 0.477422 3.21 0.657422 3.07C0.857422 2.91 1.05742 2.75 1.25742 2.59C1.45742 2.43 1.66742 2.3 1.88742 2.2C1.92742 2.2 1.95742 2.19 1.97742 2.17C2.17742 2.01 2.39742 1.9 2.63742 1.84C2.87742 1.76 3.11742 1.69 3.35742 1.63C4.31742 1.35 5.30742 1.14 6.32742 0.999999H6.62742C6.82742 0.999999 7.01742 0.999999 7.19742 0.999999C7.37742 0.999999 7.56742 0.989999 7.76742 0.969999C8.00742 0.969999 8.24742 0.999999 8.48742 1.06C8.72742 1.1 8.95742 1.17 9.17742 1.27C9.33742 1.35 9.49742 1.44 9.65742 1.54C9.81742 1.62 9.96742 1.71 10.1074 1.81C10.2674 1.93 10.3674 2.06 10.4074 2.2L10.4974 2.41C10.5974 2.59 10.6474 2.78 10.6474 2.98C10.6674 3.16 10.6574 3.35 10.6174 3.55C10.6174 3.61 10.6074 3.68 10.5874 3.76C10.5874 3.82 10.5874 3.88 10.5874 3.94C10.5274 4.38 10.3174 4.72 9.95742 4.96C9.73742 5.16 9.44742 5.24 9.08742 5.2C9.00742 5.16 8.96742 5.18 8.96742 5.26C8.96742 5.34 8.91742 5.38 8.81742 5.38H8.63742C8.51742 5.38 8.39742 5.32 8.27742 5.2C8.17742 5.1 8.12742 5.02 8.12742 4.96C8.12742 4.88 8.16742 4.82 8.24742 4.78C8.20742 4.68 8.16742 4.59 8.12742 4.51C8.08742 4.43 8.04742 4.37 8.00742 4.33C7.94742 4.23 7.85742 4.16 7.73742 4.12C7.63742 4.1 7.53742 4.08 7.43742 4.06C7.33742 4.04 7.23742 4.02 7.13742 4C7.05742 4 6.96742 4 6.86742 4C6.76742 3.98 6.66742 3.96 6.56742 3.94C6.50742 3.92 6.41742 3.93 6.29742 3.97C6.23742 3.99 6.17742 4.01 6.11742 4.03C6.05742 4.03 5.98742 4.02 5.90742 4C5.84742 4 5.77742 4 5.69742 4C5.63742 4 5.56742 4.02 5.48742 4.06L4.91742 4.15C4.59742 4.21 4.28742 4.33 3.98742 4.51C3.92742 4.53 3.86742 4.55 3.80742 4.57C3.74742 4.59 3.68742 4.59 3.62742 4.57C3.50742 4.55 3.40742 4.58 3.32742 4.66C3.30742 4.7 3.25742 4.73 3.17742 4.75C3.11742 4.75 3.06742 4.77 3.02742 4.81C2.94742 4.89 2.90742 4.97 2.90742 5.05C2.92742 5.09 2.93742 5.15 2.93742 5.23L3.56742 7.06C3.68742 7.38 3.83742 7.68 4.01742 7.96C4.21742 8.22 4.42742 8.48 4.64742 8.74C4.98742 9.14 5.33742 9.48 5.69742 9.76L6.65742 10.57C6.85742 10.75 7.06742 10.92 7.28742 11.08C7.50742 11.24 7.71742 11.4 7.91742 11.56C8.21742 11.78 8.51742 12.01 8.81742 12.25C9.11742 12.47 9.41742 12.7 9.71742 12.94C9.95742 13.14 10.1874 13.34 10.4074 13.54C10.6474 13.72 10.8674 13.92 11.0674 14.14C11.2074 14.3 11.3474 14.46 11.4874 14.62C11.6274 14.78 11.7474 14.96 11.8474 15.16C11.9874 15.38 12.1074 15.64 12.2074 15.94C12.3274 16.32 12.3774 16.68 12.3574 17.02C12.3374 17.06 12.3274 17.12 12.3274 17.2C12.3274 17.44 12.2974 17.67 12.2374 17.89C12.1974 18.09 12.1274 18.3 12.0274 18.52C11.9274 18.72 11.8174 18.93 11.6974 19.15C11.5974 19.35 11.4774 19.55 11.3374 19.75C11.1374 20.01 10.9274 20.26 10.7074 20.5C10.5074 20.72 10.2774 20.94 10.0174 21.16C9.87742 21.28 9.73742 21.41 9.59742 21.55C9.45742 21.67 9.30742 21.78 9.14742 21.88C9.04742 21.96 8.94742 22.03 8.84742 22.09C8.74742 22.17 8.64742 22.25 8.54742 22.33C8.46742 22.37 8.38742 22.42 8.30742 22.48C8.22742 22.54 8.14742 22.6 8.06742 22.66C7.98742 22.74 7.88742 22.8 7.76742 22.84C7.66742 22.9 7.56742 22.95 7.46742 22.99L6.59742 23.35C6.41742 23.41 6.23742 23.45 6.05742 23.47C5.87742 23.49 5.68742 23.49 5.48742 23.47ZM27.1495 24.19C26.9695 24.19 26.8095 24.12 26.6695 23.98C26.6295 23.92 26.5895 23.86 26.5495 23.8C26.5095 23.74 26.4695 23.68 26.4295 23.62C26.2495 23.2 26.1595 22.76 26.1595 22.3L26.0695 21.58C26.0095 21.3 25.9595 21.02 25.9195 20.74C25.8795 20.46 25.8095 20.19 25.7095 19.93L25.5295 19.42C25.5295 19.38 25.5195 19.34 25.4995 19.3C25.4995 19.26 25.4895 19.22 25.4695 19.18L25.0195 17.59C24.9995 17.55 24.9795 17.5 24.9595 17.44C24.9595 17.38 24.9395 17.33 24.8995 17.29C24.8395 17.17 24.7895 17.05 24.7495 16.93C24.7295 16.79 24.6995 16.65 24.6595 16.51C24.6395 16.41 24.6195 16.32 24.5995 16.24C24.5795 16.14 24.5495 16.04 24.5095 15.94C24.4695 15.82 24.4295 15.75 24.3895 15.73C24.3495 15.69 24.2595 15.69 24.1195 15.73C24.0195 15.75 23.9095 15.77 23.7895 15.79C23.6895 15.79 23.5895 15.81 23.4895 15.85C23.4095 15.87 23.3095 15.89 23.1895 15.91C23.0895 15.91 22.9895 15.92 22.8895 15.94L22.4695 16.03C22.3695 16.05 22.2595 16.08 22.1395 16.12C22.0395 16.14 21.9395 16.15 21.8395 16.15L21.2995 16.24C21.1395 16.28 20.9695 16.32 20.7895 16.36C20.6095 16.4 20.4395 16.44 20.2795 16.48C19.7995 16.6 19.3195 16.69 18.8395 16.75C18.6795 16.79 18.5895 16.86 18.5695 16.96C18.5495 16.96 18.5395 16.97 18.5395 16.99C18.4195 17.31 18.2795 17.63 18.1195 17.95C17.9795 18.25 17.8295 18.56 17.6695 18.88C17.6295 18.96 17.5895 19.04 17.5495 19.12C17.5295 19.18 17.4995 19.25 17.4595 19.33C17.4395 19.37 17.4195 19.42 17.3995 19.48C17.3795 19.52 17.3595 19.56 17.3395 19.6C17.2195 19.74 17.1595 19.91 17.1595 20.11C17.1395 20.23 17.0995 20.35 17.0395 20.47C16.9795 20.57 16.9195 20.67 16.8595 20.77C16.8395 20.83 16.7995 20.86 16.7395 20.86C16.6595 20.88 16.5795 20.91 16.4995 20.95C16.4195 20.99 16.3295 21.03 16.2295 21.07C16.1695 21.09 16.1095 21.09 16.0495 21.07C16.0095 21.05 15.9595 21.03 15.8995 21.01C15.8595 20.97 15.8195 20.95 15.7795 20.95C15.5595 20.93 15.3995 20.8 15.2995 20.56C15.1395 20.24 15.0295 19.92 14.9695 19.6C14.9495 19.52 14.9495 19.45 14.9695 19.39C15.0095 19.33 15.0395 19.27 15.0595 19.21C15.1795 19.13 15.2495 19.04 15.2695 18.94V18.91C15.2695 18.65 15.3195 18.41 15.4195 18.19C15.5395 17.95 15.6395 17.72 15.7195 17.5C15.7595 17.38 15.8095 17.26 15.8695 17.14C15.9295 17.02 15.9895 16.9 16.0495 16.78C16.1295 16.64 16.1895 16.51 16.2295 16.39C16.2895 16.25 16.3395 16.11 16.3795 15.97C16.4395 15.81 16.4395 15.66 16.3795 15.52C16.3395 15.4 16.3195 15.29 16.3195 15.19C16.3195 15.07 16.3295 14.95 16.3495 14.83C16.3495 14.61 16.4295 14.42 16.5895 14.26C16.6695 14.16 16.7495 14.08 16.8295 14.02C16.9295 13.94 17.0195 13.86 17.0995 13.78C17.2795 13.6 17.4195 13.36 17.5195 13.06C17.5995 12.8 17.6595 12.54 17.6995 12.28C17.7595 12 17.8195 11.73 17.8795 11.47C17.9195 11.21 17.9595 10.96 17.9995 10.72C18.0595 10.46 18.1195 10.21 18.1795 9.97C18.1995 9.87 18.2195 9.78 18.2395 9.7C18.2795 9.6 18.3095 9.51 18.3295 9.43C18.3895 9.27 18.4495 9.12 18.5095 8.98C18.5695 8.82 18.6095 8.66 18.6295 8.5C18.6695 8.42 18.6695 8.35 18.6295 8.29C18.6095 8.19 18.6095 8.1 18.6295 8.02C18.6695 7.94 18.6995 7.86 18.7195 7.78C18.7795 7.64 18.8195 7.5 18.8395 7.36C18.8795 7.22 18.9295 7.08 18.9895 6.94C19.0895 6.68 19.1695 6.47 19.2295 6.31C19.3095 6.13 19.3795 5.93 19.4395 5.71C19.4795 5.59 19.5195 5.48 19.5595 5.38C19.6195 5.26 19.6595 5.14 19.6795 5.02C19.7395 4.84 19.7895 4.66 19.8295 4.48C19.8695 4.28 19.8895 4.09 19.8895 3.91C19.9295 3.75 19.9695 3.64 20.0095 3.58C20.1095 3.38 20.2295 3.21 20.3695 3.07C20.5295 2.93 20.6795 2.79 20.8195 2.65C20.9195 2.59 21.0195 2.55 21.1195 2.53C21.2195 2.49 21.3195 2.5 21.4195 2.56C21.4995 2.6 21.5495 2.62 21.5695 2.62C21.7495 2.6 21.8995 2.64 22.0195 2.74C22.1395 2.84 22.2395 2.96 22.3195 3.1C22.3595 3.14 22.3895 3.19 22.4095 3.25C22.4295 3.31 22.4495 3.36 22.4695 3.4C22.5695 3.56 22.6195 3.72 22.6195 3.88C22.6195 3.96 22.6295 4.05 22.6495 4.15C22.6695 4.23 22.6895 4.32 22.7095 4.42C22.7695 4.54 22.8595 4.6 22.9795 4.6C22.9995 4.58 23.0195 4.58 23.0395 4.6C23.0595 4.62 23.0695 4.64 23.0695 4.66C23.1695 4.78 23.1995 4.91 23.1595 5.05C23.1195 5.21 23.1095 5.37 23.1295 5.53C23.1695 5.67 23.2095 5.82 23.2495 5.98C23.3295 6.18 23.4095 6.38 23.4895 6.58C23.5695 6.78 23.6495 6.98 23.7295 7.18C23.8295 7.4 23.9295 7.62 24.0295 7.84C24.1295 8.06 24.2195 8.28 24.2995 8.5C24.3995 8.78 24.4995 9.06 24.5995 9.34C24.7195 9.62 24.8495 9.9 24.9895 10.18L25.0795 10.51C25.0995 10.59 25.1195 10.67 25.1395 10.75C25.1795 10.83 25.2095 10.91 25.2295 10.99C25.2695 11.05 25.2995 11.11 25.3195 11.17C25.3595 11.23 25.3995 11.28 25.4395 11.32C25.5395 11.46 25.5995 11.61 25.6195 11.77C25.6795 11.97 25.7695 12.15 25.8895 12.31C25.9295 12.37 25.9895 12.4 26.0695 12.4C26.3695 12.36 26.6695 12.33 26.9695 12.31C27.2695 12.27 27.5695 12.21 27.8695 12.13C28.0895 12.07 28.2995 12.04 28.4995 12.04C28.8795 12.04 29.2295 12.17 29.5495 12.43C29.9295 12.73 30.1295 13.11 30.1495 13.57C30.1495 13.67 30.1595 13.75 30.1795 13.81C30.1795 13.95 30.1395 14.06 30.0595 14.14C30.0395 14.2 29.9995 14.26 29.9395 14.32C29.8995 14.38 29.8595 14.44 29.8195 14.5C29.7795 14.58 29.7395 14.64 29.6995 14.68L29.5195 14.83C29.4995 14.87 29.4695 14.92 29.4295 14.98C29.3895 15.02 29.3395 15.05 29.2795 15.07C29.1995 15.09 29.1195 15.12 29.0395 15.16C28.9595 15.18 28.8695 15.19 28.7695 15.19C28.4095 15.23 28.0895 15.22 27.8095 15.16H27.3295C27.2895 15.16 27.2295 15.18 27.1495 15.22C27.0695 15.26 27.0295 15.31 27.0295 15.37V15.49C27.0895 15.67 27.1295 15.86 27.1495 16.06C27.1895 16.24 27.2495 16.41 27.3295 16.57C27.3295 16.65 27.3495 16.73 27.3895 16.81C27.4895 16.99 27.5695 17.18 27.6295 17.38C27.6895 17.56 27.7395 17.75 27.7795 17.95C27.7795 17.99 27.7995 18.07 27.8395 18.19C27.8995 18.33 27.9495 18.48 27.9895 18.64C28.0295 18.78 28.0595 18.93 28.0795 19.09C28.0795 19.21 28.1095 19.32 28.1695 19.42C28.2495 19.6 28.3095 19.78 28.3495 19.96C28.3895 20.14 28.4195 20.33 28.4395 20.53C28.4595 20.55 28.4695 20.59 28.4695 20.65C28.4695 20.69 28.4795 20.73 28.4995 20.77C28.5995 20.99 28.6695 21.23 28.7095 21.49C28.7495 21.73 28.7995 21.97 28.8595 22.21C28.8995 22.33 28.9195 22.45 28.9195 22.57C28.9395 22.71 28.9495 22.85 28.9495 22.99C28.9495 23.09 28.9195 23.2 28.8595 23.32C28.7995 23.38 28.7695 23.41 28.7695 23.41C28.6495 23.43 28.5795 23.5 28.5595 23.62L28.4695 23.8C28.4295 23.88 28.3695 23.93 28.2895 23.95C28.2095 23.95 28.1395 23.98 28.0795 24.04C27.9995 24.12 27.8895 24.16 27.7495 24.16C27.6695 24.16 27.5695 24.16 27.4495 24.16C27.3495 24.16 27.2495 24.17 27.1495 24.19ZM19.9195 13.3C20.0395 13.28 20.1595 13.26 20.2795 13.24C20.4195 13.22 20.5695 13.2 20.7295 13.18C20.8295 13.16 20.9595 13.14 21.1195 13.12C21.2795 13.1 21.4295 13.08 21.5695 13.06C21.7095 13.02 21.8495 13 21.9895 13C22.1295 12.98 22.2695 12.96 22.4095 12.94C22.5295 12.9 22.6495 12.88 22.7695 12.88C22.8895 12.86 23.0095 12.84 23.1295 12.82C23.3095 12.78 23.3795 12.68 23.3395 12.52C23.3195 12.36 23.2795 12.2 23.2195 12.04C23.1795 11.86 23.0895 11.71 22.9495 11.59C22.9095 11.55 22.8895 11.49 22.8895 11.41V11.32C22.8495 11.16 22.7995 11.01 22.7395 10.87C22.6995 10.71 22.6495 10.56 22.5895 10.42C22.5495 10.26 22.4995 10.12 22.4395 10C22.3995 9.86 22.3495 9.72 22.2895 9.58L21.9295 8.5C21.8695 8.36 21.8095 8.22 21.7495 8.08C21.7095 7.94 21.6695 7.8 21.6295 7.66L21.5395 7.54H21.4495L21.3895 7.63C21.2895 7.93 21.1695 8.23 21.0295 8.53C20.9095 8.83 20.7995 9.15 20.6995 9.49C20.6995 9.53 20.6895 9.58 20.6695 9.64C20.6495 9.7 20.6295 9.76 20.6095 9.82C20.5295 10.02 20.4495 10.24 20.3695 10.48C20.3095 10.72 20.2595 10.96 20.2195 11.2C20.1995 11.34 20.1795 11.48 20.1595 11.62C20.1395 11.74 20.1095 11.87 20.0695 12.01L19.7995 13.18C19.7795 13.2 19.7895 13.23 19.8295 13.27C19.8695 13.29 19.8995 13.3 19.9195 13.3ZM38.2934 23.98C38.2334 24 38.1734 24 38.1134 23.98C38.0534 23.98 38.0034 23.98 37.9634 23.98C37.7434 23.92 37.5534 23.8 37.3934 23.62C37.2534 23.46 37.1234 23.27 37.0034 23.05C36.9834 22.97 36.9534 22.89 36.9134 22.81C36.8934 22.73 36.8834 22.65 36.8834 22.57V22.36C36.8434 22.14 36.8134 21.92 36.7934 21.7C36.7934 21.48 36.7934 21.26 36.7934 21.04C36.7934 20.76 36.7934 20.48 36.7934 20.2C36.8134 19.92 36.8234 19.64 36.8234 19.36C36.8234 19.22 36.8334 19.11 36.8534 19.03C36.8734 18.65 36.8734 18.25 36.8534 17.83C36.8334 17.73 36.8134 17.62 36.7934 17.5C36.7934 17.38 36.7934 17.26 36.7934 17.14C36.8134 16.92 36.8134 16.7 36.7934 16.48C36.7734 16.26 36.7434 16.04 36.7034 15.82L36.6134 15.31C36.6134 15.27 36.6034 15.23 36.5834 15.19C36.5834 15.13 36.5834 15.09 36.5834 15.07C36.4234 14.47 36.2034 13.93 35.9234 13.45C35.8234 13.27 35.7134 13.09 35.5934 12.91C35.4934 12.71 35.3934 12.51 35.2934 12.31C35.1934 12.11 35.1134 11.91 35.0534 11.71C35.0134 11.49 34.9734 11.28 34.9334 11.08C34.9334 11.04 34.9334 10.99 34.9334 10.93C34.9534 10.87 34.9634 10.81 34.9634 10.75C34.9634 10.63 34.9634 10.51 34.9634 10.39C34.9834 10.25 34.9934 10.11 34.9934 9.97C34.9934 9.83 34.9534 9.72 34.8734 9.64L34.6934 9.4C34.6134 9.3 34.5434 9.2 34.4834 9.1C34.4234 8.98 34.3534 8.87 34.2734 8.77L33.9434 8.32C33.8634 8.2 33.7734 8.08 33.6734 7.96C33.5734 7.84 33.4734 7.71 33.3734 7.57C33.3334 7.53 33.2934 7.49 33.2534 7.45C33.2134 7.39 33.1634 7.35 33.1034 7.33C33.0234 7.31 32.9634 7.26 32.9234 7.18C32.8634 7.12 32.7934 7.03 32.7134 6.91C32.5934 6.71 32.4634 6.51 32.3234 6.31C32.2034 6.09 32.0834 5.88 31.9634 5.68L31.8734 5.56C31.6934 5.18 31.5134 4.8 31.3334 4.42C31.1734 4.02 31.0234 3.63 30.8834 3.25C30.8034 3.07 30.7434 2.87 30.7034 2.65C30.6834 2.53 30.6534 2.41 30.6134 2.29C30.5734 2.17 30.5234 2.06 30.4634 1.96C30.4034 1.86 30.3634 1.76 30.3434 1.66C30.3434 1.56 30.3434 1.46 30.3434 1.36C30.3434 1.3 30.3534 1.24 30.3734 1.18C30.4134 1.12 30.4434 1.06 30.4634 0.999999C30.5234 0.899999 30.5834 0.809999 30.6434 0.729998C30.7234 0.629999 30.8034 0.539999 30.8834 0.459998C30.9834 0.359998 31.0934 0.309999 31.2134 0.309999C31.2734 0.309999 31.3134 0.299999 31.3334 0.279999C31.4934 0.199999 31.6534 0.179999 31.8134 0.22C31.9934 0.259999 32.1534 0.309999 32.2934 0.37C32.3534 0.389999 32.4034 0.429999 32.4434 0.49C32.4834 0.529999 32.5234 0.569999 32.5634 0.609998L32.8934 1.15C32.9334 1.19 32.9534 1.24 32.9534 1.3C32.9734 1.36 32.9934 1.42 33.0134 1.48C33.0334 1.52 33.0534 1.57 33.0734 1.63C33.2134 1.93 33.3434 2.23 33.4634 2.53C33.6034 2.81 33.7334 3.1 33.8534 3.4C33.9534 3.66 34.0534 3.92 34.1534 4.18C34.2734 4.42 34.4034 4.66 34.5434 4.9C34.6434 5.14 34.7634 5.37 34.9034 5.59C35.0434 5.81 35.1834 6.03 35.3234 6.25C35.4034 6.33 35.4734 6.42 35.5334 6.52C35.5934 6.62 35.6634 6.72 35.7434 6.82L35.8934 7C36.0534 7.16 36.1534 7.24 36.1934 7.24C36.2334 7.24 36.3234 7.15 36.4634 6.97C36.5434 6.87 36.6134 6.77 36.6734 6.67C36.7534 6.55 36.8334 6.45 36.9134 6.37C37.0734 6.17 37.2234 5.98 37.3634 5.8C37.5234 5.62 37.6734 5.44 37.8134 5.26C38.0334 5 38.3134 4.74 38.6534 4.48C38.7934 4.36 38.9234 4.23 39.0434 4.09C39.1834 3.91 39.3434 3.78 39.5234 3.7C39.6634 3.62 39.7934 3.54 39.9134 3.46C40.0334 3.36 40.1534 3.27 40.2734 3.19C40.3934 3.07 40.5234 2.97 40.6634 2.89C40.7434 2.83 40.8134 2.77 40.8734 2.71C40.9534 2.63 41.0234 2.55 41.0834 2.47C41.1234 2.41 41.1634 2.36 41.2034 2.32C41.2634 2.26 41.3234 2.21 41.3834 2.17L41.8034 1.9C41.8434 1.88 41.8734 1.87 41.8934 1.87C41.9134 1.85 41.9334 1.83 41.9534 1.81C41.9934 1.81 42.0234 1.81 42.0434 1.81C42.0634 1.79 42.0834 1.78 42.1034 1.78C42.2034 1.74 42.2934 1.71 42.3734 1.69C42.4734 1.67 42.5734 1.66 42.6734 1.66C42.7934 1.72 42.9134 1.78 43.0334 1.84C43.1534 1.9 43.2534 1.98 43.3334 2.08C43.3734 2.1 43.4034 2.11 43.4234 2.11C43.4634 2.11 43.4934 2.12 43.5134 2.14C43.5334 2.16 43.5434 2.18 43.5434 2.2C43.5434 2.22 43.5334 2.26 43.5134 2.32C43.4934 2.36 43.4834 2.39 43.4834 2.41C43.4834 2.43 43.5034 2.44 43.5434 2.44C43.5834 2.44 43.6134 2.45 43.6334 2.47C43.6534 2.49 43.6734 2.5 43.6934 2.5C43.7134 2.5 43.7234 2.52 43.7234 2.56C43.7034 2.72 43.7234 2.89 43.7834 3.07C43.8234 3.13 43.8434 3.19 43.8434 3.25C43.8434 3.31 43.8334 3.37 43.8134 3.43L43.4234 4.15C43.4034 4.23 43.3534 4.29 43.2734 4.33C42.9734 4.59 42.6734 4.79 42.3734 4.93C42.0134 5.05 41.7134 5.21 41.4734 5.41C41.3734 5.49 41.2734 5.57 41.1734 5.65C41.0734 5.71 40.9734 5.79 40.8734 5.89C40.8334 5.93 40.7734 5.97 40.6934 6.01L40.5134 6.16C40.2934 6.4 40.0734 6.64 39.8534 6.88C39.6534 7.1 39.4434 7.33 39.2234 7.57C39.1834 7.65 39.1334 7.69 39.0734 7.69C38.9734 7.75 38.8834 7.83 38.8034 7.93C38.7034 8.09 38.5934 8.25 38.4734 8.41C38.3534 8.55 38.2634 8.72 38.2034 8.92L38.0234 9.22C38.0034 9.24 37.9834 9.27 37.9634 9.31C37.9434 9.33 37.9234 9.36 37.9034 9.4C37.8234 9.54 37.8134 9.69 37.8734 9.85C37.9134 9.89 37.9434 9.94 37.9634 10C38.0034 10.06 38.0334 10.12 38.0534 10.18C38.1134 10.28 38.1034 10.38 38.0234 10.48C37.9834 10.5 37.9634 10.55 37.9634 10.63C38.0034 10.71 38.0234 10.77 38.0234 10.81C38.0634 10.93 38.0534 11.04 37.9934 11.14C37.9534 11.22 37.9334 11.27 37.9334 11.29C37.9134 11.41 37.9234 11.52 37.9634 11.62C38.0034 11.7 38.0434 11.8 38.0834 11.92C38.1434 12.02 38.2134 12.12 38.2934 12.22C38.3934 12.42 38.4934 12.61 38.5934 12.79C38.6934 12.97 38.7834 13.16 38.8634 13.36L39.2234 14.53C39.2634 14.71 39.2934 14.9 39.3134 15.1C39.3334 15.28 39.3534 15.46 39.3734 15.64C39.3934 15.76 39.4134 15.88 39.4334 16C39.4534 16.1 39.4534 16.21 39.4334 16.33C39.4734 16.77 39.4834 17.21 39.4634 17.65C39.4634 18.07 39.4634 18.5 39.4634 18.94C39.4634 18.98 39.4534 19.02 39.4334 19.06C39.4134 19.28 39.4034 19.51 39.4034 19.75C39.4034 19.99 39.3934 20.22 39.3734 20.44C39.3734 20.58 39.3734 20.72 39.3734 20.86C39.3934 21 39.4034 21.15 39.4034 21.31C39.4034 21.37 39.4134 21.41 39.4334 21.43C39.4734 21.53 39.5034 21.64 39.5234 21.76C39.5434 21.86 39.5634 21.96 39.5834 22.06C39.6034 22.14 39.6134 22.21 39.6134 22.27C39.6134 22.35 39.5934 22.43 39.5534 22.51C39.4934 22.65 39.4934 22.8 39.5534 22.96C39.5534 22.98 39.5234 23.01 39.4634 23.05C39.4234 23.05 39.3834 23.06 39.3434 23.08C39.3234 23.08 39.2934 23.1 39.2534 23.14C39.2534 23.18 39.2434 23.21 39.2234 23.23C39.2034 23.33 39.1234 23.45 38.9834 23.59C38.9034 23.69 38.7934 23.77 38.6534 23.83C38.5334 23.89 38.4134 23.94 38.2934 23.98ZM62.358 22.3C62.338 22.3 62.308 22.29 62.268 22.27C62.248 22.27 62.218 22.27 62.178 22.27C62.038 22.27 61.938 22.21 61.878 22.09C61.798 21.95 61.718 21.83 61.638 21.73C61.558 21.63 61.468 21.53 61.368 21.43C61.268 21.33 61.178 21.22 61.098 21.1C61.038 20.98 60.978 20.86 60.918 20.74C60.858 20.64 60.828 20.54 60.828 20.44V20.14C60.828 20.04 60.818 19.94 60.798 19.84C60.798 19.72 60.788 19.61 60.768 19.51C60.728 19.35 60.688 19.18 60.648 19C60.628 18.82 60.598 18.65 60.558 18.49C60.558 18.45 60.548 18.41 60.528 18.37C60.528 18.31 60.528 18.26 60.528 18.22C60.508 18 60.478 17.78 60.438 17.56C60.398 17.32 60.358 17.09 60.318 16.87C60.258 16.47 60.188 16.08 60.108 15.7C60.048 15.3 59.988 14.91 59.928 14.53L59.748 13.54C59.728 13.38 59.668 13.21 59.568 13.03C59.448 12.81 59.358 12.57 59.298 12.31C59.278 12.19 59.248 12.08 59.208 11.98C59.168 11.86 59.128 11.74 59.088 11.62C59.028 11.42 58.968 11.22 58.908 11.02C58.848 10.82 58.798 10.62 58.758 10.42C58.738 10.26 58.708 10.1 58.668 9.94C58.628 9.78 58.588 9.62 58.548 9.46L58.368 8.65C58.368 8.61 58.358 8.58 58.338 8.56C58.318 8.28 58.278 8 58.218 7.72C58.158 7.42 58.098 7.13 58.038 6.85C58.018 6.69 57.988 6.5 57.948 6.28C57.928 6.04 57.928 5.85 57.948 5.71V5.41C57.988 5.13 58.078 4.87 58.218 4.63C58.378 4.35 58.638 4.13 58.998 3.97C59.098 3.93 59.198 3.9 59.298 3.88C59.398 3.86 59.488 3.84 59.568 3.82C59.788 3.8 59.998 3.83 60.198 3.91C60.398 3.97 60.598 4.06 60.798 4.18C60.858 4.22 60.908 4.27 60.948 4.33C61.008 4.43 61.068 4.53 61.128 4.63C61.208 4.73 61.258 4.84 61.278 4.96C61.318 5.08 61.358 5.2 61.398 5.32C61.458 5.44 61.518 5.55 61.578 5.65C61.678 5.85 61.748 6.06 61.788 6.28C61.828 6.5 61.868 6.72 61.908 6.94C61.968 7.24 61.998 7.56 61.998 7.9V8.05C62.038 8.25 62.058 8.45 62.058 8.65C62.058 8.83 62.058 9.02 62.058 9.22C62.078 9.54 62.108 9.86 62.148 10.18C62.188 10.48 62.228 10.8 62.268 11.14L62.448 12.55V12.61C62.488 12.83 62.528 13.06 62.568 13.3C62.628 13.52 62.668 13.74 62.688 13.96C62.748 14.3 62.808 14.65 62.868 15.01C62.948 15.35 63.008 15.69 63.048 16.03L63.228 17.29C63.268 17.49 63.298 17.69 63.318 17.89C63.358 18.09 63.398 18.29 63.438 18.49C63.478 18.69 63.508 18.89 63.528 19.09C63.568 19.27 63.608 19.46 63.648 19.66C63.668 19.74 63.678 19.82 63.678 19.9C63.698 19.96 63.708 20.03 63.708 20.11C63.728 20.41 63.678 20.7 63.558 20.98C63.538 21.06 63.488 21.14 63.408 21.22C63.328 21.34 63.258 21.42 63.198 21.46C63.038 21.62 62.918 21.79 62.838 21.97C62.838 21.99 62.818 22.02 62.778 22.06C62.758 22.1 62.728 22.14 62.688 22.18C62.608 22.26 62.498 22.3 62.358 22.3ZM72.2168 21.97C72.1768 21.95 72.1168 21.94 72.0368 21.94C71.9968 21.94 71.9568 21.91 71.9168 21.85C71.8768 21.79 71.8368 21.74 71.7968 21.7C71.7568 21.64 71.7168 21.57 71.6768 21.49C71.6168 21.41 71.5668 21.41 71.5268 21.49H71.4668C71.4668 21.47 71.4568 21.46 71.4368 21.46C71.4368 21.44 71.4368 21.43 71.4368 21.43C71.3768 21.15 71.2868 20.89 71.1668 20.65C71.1068 20.49 71.0468 20.33 70.9868 20.17C70.9468 19.99 70.9168 19.81 70.8968 19.63L70.7168 18.31L70.6268 17.23V17.17C70.5868 16.93 70.5668 16.69 70.5668 16.45C70.5668 16.19 70.5668 15.93 70.5668 15.67C70.5468 15.53 70.5368 15.4 70.5368 15.28C70.5368 15.14 70.5268 15 70.5068 14.86C70.4868 14.7 70.4668 14.54 70.4468 14.38C70.4468 14.22 70.4468 14.07 70.4468 13.93L70.4768 11.56V8.35C70.4368 8.23 70.3768 8.17 70.2968 8.17C70.2568 8.17 70.2068 8.18 70.1468 8.2C70.1068 8.2 70.0668 8.2 70.0268 8.2L68.6768 8.56C68.4968 8.62 68.3168 8.68 68.1368 8.74C67.9568 8.78 67.7768 8.83 67.5968 8.89C67.4568 8.91 67.3168 8.93 67.1768 8.95C67.0568 8.95 66.9268 8.95 66.7868 8.95C66.6868 8.95 66.5768 8.91 66.4568 8.83C66.3168 8.77 66.1968 8.69 66.0968 8.59C65.9968 8.49 65.8968 8.38 65.7968 8.26L65.7368 8.17C65.6968 8.03 65.6568 7.9 65.6168 7.78C65.5968 7.64 65.5968 7.5 65.6168 7.36C65.6368 7.18 65.6768 7.01 65.7368 6.85C65.8168 6.69 65.9268 6.55 66.0668 6.43C66.1268 6.39 66.1768 6.34 66.2168 6.28C66.2768 6.22 66.3368 6.16 66.3968 6.1C66.4768 6.06 66.5268 6.04 66.5468 6.04C66.6668 6.04 66.7768 6.02 66.8768 5.98C66.9768 5.92 67.0768 5.88 67.1768 5.86C67.2768 5.84 67.3768 5.82 67.4768 5.8C67.5768 5.78 67.6768 5.76 67.7768 5.74C68.0568 5.66 68.3368 5.59 68.6168 5.53C68.8968 5.45 69.1768 5.39 69.4568 5.35L71.0768 5.08C71.1168 5.06 71.1468 5.05 71.1668 5.05C71.2068 5.05 71.2368 5.04 71.2568 5.02C71.3768 4.98 71.4968 4.95 71.6168 4.93C71.7368 4.91 71.8568 4.92 71.9768 4.96C72.0168 4.98 72.0468 4.99 72.0668 4.99C72.1068 4.97 72.1368 4.96 72.1568 4.96C72.4968 4.92 72.8368 4.88 73.1768 4.84C73.5168 4.8 73.8468 4.75 74.1668 4.69C74.4268 4.65 74.6868 4.61 74.9468 4.57C75.2068 4.53 75.4668 4.5 75.7268 4.48C75.9268 4.44 76.1268 4.41 76.3268 4.39C76.5268 4.37 76.7268 4.35 76.9268 4.33C77.0868 4.31 77.2468 4.29 77.4068 4.27C77.5868 4.25 77.7568 4.23 77.9168 4.21C78.0768 4.19 78.2268 4.19 78.3668 4.21C78.5268 4.21 78.6868 4.21 78.8468 4.21C78.9468 4.21 79.0368 4.24 79.1168 4.3C79.2168 4.36 79.3068 4.41 79.3868 4.45C79.4668 4.51 79.5768 4.61 79.7168 4.75C79.7568 4.79 79.7968 4.88 79.8368 5.02C79.8568 5.08 79.8768 5.15 79.8968 5.23C79.9168 5.29 79.9368 5.36 79.9568 5.44C79.9968 5.62 79.9768 5.79 79.8968 5.95L79.7168 6.37C79.6968 6.43 79.6668 6.49 79.6268 6.55C79.6068 6.59 79.5768 6.63 79.5368 6.67C79.4968 6.71 79.4768 6.73 79.4768 6.73C79.3968 6.79 79.3068 6.85 79.2068 6.91C79.1268 6.97 79.0268 7.01 78.9068 7.03L77.6168 7.12C77.4968 7.12 77.3768 7.13 77.2568 7.15C77.1368 7.15 77.0068 7.16 76.8668 7.18H76.7168C76.3968 7.2 76.0868 7.23 75.7868 7.27C75.4868 7.31 75.1868 7.35 74.8868 7.39L73.6868 7.57C73.6268 7.57 73.5868 7.58 73.5668 7.6C73.4868 7.6 73.4268 7.66 73.3868 7.78V7.87C73.3868 8.07 73.3868 8.27 73.3868 8.47C73.3868 8.65 73.3968 8.84 73.4168 9.04C73.4768 9.32 73.4768 9.6 73.4168 9.88C73.3968 9.94 73.3768 10 73.3568 10.06C73.3568 10.1 73.3568 10.14 73.3568 10.18C73.3768 10.42 73.3568 10.68 73.2968 10.96C73.2968 11.02 73.2968 11.08 73.2968 11.14C73.2968 11.2 73.3068 11.26 73.3268 11.32C73.3468 11.4 73.3568 11.49 73.3568 11.59C73.3568 11.69 73.3568 11.79 73.3568 11.89V13.45C73.3568 13.53 73.3468 13.63 73.3268 13.75C73.3268 13.85 73.3268 13.95 73.3268 14.05C73.3268 14.13 73.3268 14.22 73.3268 14.32C73.3468 14.42 73.3568 14.52 73.3568 14.62C73.3568 14.76 73.3568 14.9 73.3568 15.04C73.3768 15.18 73.3768 15.33 73.3568 15.49V16.42C73.3568 16.44 73.3468 16.46 73.3268 16.48C73.3268 16.5 73.3368 16.53 73.3568 16.57C73.3768 16.75 73.3868 16.94 73.3868 17.14C73.3868 17.32 73.4068 17.5 73.4468 17.68C73.4468 17.74 73.4468 17.8 73.4468 17.86C73.4668 17.92 73.4668 17.98 73.4468 18.04C73.4468 18.22 73.4668 18.41 73.5068 18.61C73.5468 18.79 73.5768 18.97 73.5968 19.15C73.6368 19.37 73.6768 19.59 73.7168 19.81C73.7768 20.03 73.8268 20.25 73.8668 20.47L73.9568 20.89C73.9568 20.95 73.9268 21 73.8668 21.04C73.8668 21.04 73.8568 21.04 73.8368 21.04C73.8368 21.04 73.8268 21.05 73.8068 21.07C73.7068 21.11 73.6668 21.17 73.6868 21.25V21.4C73.6868 21.4 73.6768 21.41 73.6568 21.43C73.6568 21.45 73.6468 21.46 73.6268 21.46C73.5268 21.46 73.4468 21.5 73.3868 21.58C73.3268 21.66 73.2568 21.73 73.1768 21.79C73.1168 21.83 73.0368 21.87 72.9368 21.91C72.6768 22.01 72.4368 22.03 72.2168 21.97ZM98.5104 22.3C98.4904 22.3 98.4604 22.29 98.4204 22.27C98.4004 22.27 98.3704 22.27 98.3304 22.27C98.1904 22.27 98.0904 22.21 98.0304 22.09C97.9504 21.95 97.8704 21.83 97.7904 21.73C97.7104 21.63 97.6204 21.53 97.5204 21.43C97.4204 21.33 97.3304 21.22 97.2504 21.1C97.1904 20.98 97.1304 20.86 97.0704 20.74C97.0104 20.64 96.9804 20.54 96.9804 20.44V20.14C96.9804 20.04 96.9704 19.94 96.9504 19.84C96.9504 19.72 96.9404 19.61 96.9204 19.51C96.8804 19.35 96.8404 19.18 96.8004 19C96.7804 18.82 96.7504 18.65 96.7104 18.49C96.7104 18.45 96.7004 18.41 96.6804 18.37C96.6804 18.31 96.6804 18.26 96.6804 18.22C96.6604 18 96.6304 17.78 96.5904 17.56C96.5504 17.32 96.5104 17.09 96.4704 16.87C96.4104 16.47 96.3404 16.08 96.2604 15.7C96.2004 15.3 96.1404 14.91 96.0804 14.53L95.9004 13.54C95.8804 13.38 95.8204 13.21 95.7204 13.03C95.6004 12.81 95.5104 12.57 95.4504 12.31C95.4304 12.19 95.4004 12.08 95.3604 11.98C95.3204 11.86 95.2804 11.74 95.2404 11.62C95.1804 11.42 95.1204 11.22 95.0604 11.02C95.0004 10.82 94.9504 10.62 94.9104 10.42C94.8904 10.26 94.8604 10.1 94.8204 9.94C94.7804 9.78 94.7404 9.62 94.7004 9.46L94.5204 8.65C94.5204 8.61 94.5104 8.58 94.4904 8.56C94.4704 8.28 94.4304 8 94.3704 7.72C94.3104 7.42 94.2504 7.13 94.1904 6.85C94.1704 6.69 94.1404 6.5 94.1004 6.28C94.0804 6.04 94.0804 5.85 94.1004 5.71V5.41C94.1404 5.13 94.2304 4.87 94.3704 4.63C94.5304 4.35 94.7904 4.13 95.1504 3.97C95.2504 3.93 95.3504 3.9 95.4504 3.88C95.5504 3.86 95.6404 3.84 95.7204 3.82C95.9404 3.8 96.1504 3.83 96.3504 3.91C96.5504 3.97 96.7504 4.06 96.9504 4.18C97.0104 4.22 97.0604 4.27 97.1004 4.33C97.1604 4.43 97.2204 4.53 97.2804 4.63C97.3604 4.73 97.4104 4.84 97.4304 4.96C97.4704 5.08 97.5104 5.2 97.5504 5.32C97.6104 5.44 97.6704 5.55 97.7304 5.65C97.8304 5.85 97.9004 6.06 97.9404 6.28C97.9804 6.5 98.0204 6.72 98.0604 6.94C98.1204 7.24 98.1504 7.56 98.1504 7.9V8.05C98.1904 8.25 98.2104 8.45 98.2104 8.65C98.2104 8.83 98.2104 9.02 98.2104 9.22C98.2304 9.54 98.2604 9.86 98.3004 10.18C98.3404 10.48 98.3804 10.8 98.4204 11.14L98.6004 12.55V12.61C98.6404 12.83 98.6804 13.06 98.7204 13.3C98.7804 13.52 98.8204 13.74 98.8404 13.96C98.9004 14.3 98.9604 14.65 99.0204 15.01C99.1004 15.35 99.1604 15.69 99.2004 16.03L99.3804 17.29C99.4204 17.49 99.4504 17.69 99.4704 17.89C99.5104 18.09 99.5504 18.29 99.5904 18.49C99.6304 18.69 99.6604 18.89 99.6804 19.09C99.7204 19.27 99.7604 19.46 99.8004 19.66C99.8204 19.74 99.8304 19.82 99.8304 19.9C99.8504 19.96 99.8604 20.03 99.8604 20.11C99.8804 20.41 99.8304 20.7 99.7104 20.98C99.6904 21.06 99.6404 21.14 99.5604 21.22C99.4804 21.34 99.4104 21.42 99.3504 21.46C99.1904 21.62 99.0704 21.79 98.9904 21.97C98.9904 21.99 98.9704 22.02 98.9304 22.06C98.9104 22.1 98.8804 22.14 98.8404 22.18C98.7604 22.26 98.6504 22.3 98.5104 22.3ZM107.294 23.47L106.784 23.38C106.524 23.34 106.254 23.3 105.974 23.26C105.714 23.22 105.444 23.19 105.164 23.17C104.884 23.17 104.604 23.09 104.324 22.93C104.064 22.79 103.884 22.57 103.784 22.27C103.764 22.17 103.734 22.07 103.694 21.97C103.674 21.87 103.654 21.77 103.634 21.67C103.634 21.43 103.684 21.25 103.784 21.13C103.884 21.03 103.964 20.93 104.024 20.83C104.104 20.73 104.184 20.64 104.264 20.56C104.304 20.52 104.344 20.49 104.384 20.47C104.424 20.45 104.464 20.43 104.504 20.41C104.604 20.35 104.704 20.31 104.804 20.29C104.904 20.25 105.004 20.22 105.104 20.2C105.144 20.18 105.174 20.18 105.194 20.2C105.234 20.2 105.264 20.2 105.284 20.2C105.384 20.22 105.494 20.24 105.614 20.26C105.734 20.26 105.844 20.28 105.944 20.32L107.204 20.5C107.484 20.54 107.734 20.5 107.954 20.38C108.034 20.34 108.104 20.3 108.164 20.26C108.244 20.22 108.314 20.18 108.374 20.14C108.814 19.88 109.194 19.61 109.514 19.33C109.754 19.11 109.984 18.89 110.204 18.67C110.424 18.45 110.624 18.21 110.804 17.95C110.944 17.77 111.034 17.59 111.074 17.41C111.114 17.21 111.124 17.01 111.104 16.81L111.014 16.57C110.994 16.47 110.954 16.39 110.894 16.33C110.834 16.27 110.774 16.2 110.714 16.12C110.594 16.02 110.474 15.91 110.354 15.79C110.254 15.67 110.144 15.57 110.024 15.49C109.724 15.25 109.424 15.02 109.124 14.8C108.844 14.58 108.554 14.36 108.254 14.14C108.234 14.1 108.174 14.06 108.074 14.02C107.894 13.9 107.714 13.77 107.534 13.63C107.374 13.47 107.214 13.32 107.054 13.18C106.854 12.98 106.634 12.79 106.394 12.61C106.274 12.55 106.164 12.45 106.064 12.31C105.984 12.21 105.864 12.11 105.704 12.01C105.564 11.93 105.434 11.84 105.314 11.74C105.194 11.62 105.074 11.51 104.954 11.41L104.564 11.05C104.484 10.95 104.394 10.86 104.294 10.78C104.214 10.68 104.124 10.58 104.024 10.48C103.984 10.38 103.924 10.3 103.844 10.24C103.784 10.18 103.724 10.11 103.664 10.03C103.644 9.99 103.614 9.95 103.574 9.91C103.534 9.85 103.504 9.79 103.484 9.73C103.364 9.49 103.234 9.25 103.094 9.01C102.974 8.77 102.864 8.52 102.764 8.26C102.704 8.1 102.644 7.95 102.584 7.81C102.544 7.65 102.504 7.5 102.464 7.36C102.444 7.2 102.404 7.06 102.344 6.94C102.304 6.8 102.264 6.66 102.224 6.52C102.184 6.3 102.134 6.09 102.074 5.89C102.034 5.67 101.994 5.46 101.954 5.26L101.894 5.02C101.874 4.8 101.874 4.59 101.894 4.39C101.934 4.11 101.994 3.86 102.074 3.64C102.154 3.4 102.284 3.21 102.464 3.07C102.664 2.91 102.864 2.75 103.064 2.59C103.264 2.43 103.474 2.3 103.694 2.2C103.734 2.2 103.764 2.19 103.784 2.17C103.984 2.01 104.204 1.9 104.444 1.84C104.684 1.76 104.924 1.69 105.164 1.63C106.124 1.35 107.114 1.14 108.134 0.999999H108.434C108.634 0.999999 108.824 0.999999 109.004 0.999999C109.184 0.999999 109.374 0.989999 109.574 0.969999C109.814 0.969999 110.054 0.999999 110.294 1.06C110.534 1.1 110.764 1.17 110.984 1.27C111.144 1.35 111.304 1.44 111.464 1.54C111.624 1.62 111.774 1.71 111.914 1.81C112.074 1.93 112.174 2.06 112.214 2.2L112.304 2.41C112.404 2.59 112.454 2.78 112.454 2.98C112.474 3.16 112.464 3.35 112.424 3.55C112.424 3.61 112.414 3.68 112.394 3.76C112.394 3.82 112.394 3.88 112.394 3.94C112.334 4.38 112.124 4.72 111.764 4.96C111.544 5.16 111.254 5.24 110.894 5.2C110.814 5.16 110.774 5.18 110.774 5.26C110.774 5.34 110.724 5.38 110.624 5.38H110.444C110.324 5.38 110.204 5.32 110.084 5.2C109.984 5.1 109.934 5.02 109.934 4.96C109.934 4.88 109.974 4.82 110.054 4.78C110.014 4.68 109.974 4.59 109.934 4.51C109.894 4.43 109.854 4.37 109.814 4.33C109.754 4.23 109.664 4.16 109.544 4.12C109.444 4.1 109.344 4.08 109.244 4.06C109.144 4.04 109.044 4.02 108.944 4C108.864 4 108.774 4 108.674 4C108.574 3.98 108.474 3.96 108.374 3.94C108.314 3.92 108.224 3.93 108.104 3.97C108.044 3.99 107.984 4.01 107.924 4.03C107.864 4.03 107.794 4.02 107.714 4C107.654 4 107.584 4 107.504 4C107.444 4 107.374 4.02 107.294 4.06L106.724 4.15C106.404 4.21 106.094 4.33 105.794 4.51C105.734 4.53 105.674 4.55 105.614 4.57C105.554 4.59 105.494 4.59 105.434 4.57C105.314 4.55 105.214 4.58 105.134 4.66C105.114 4.7 105.064 4.73 104.984 4.75C104.924 4.75 104.874 4.77 104.834 4.81C104.754 4.89 104.714 4.97 104.714 5.05C104.734 5.09 104.744 5.15 104.744 5.23L105.374 7.06C105.494 7.38 105.644 7.68 105.824 7.96C106.024 8.22 106.234 8.48 106.454 8.74C106.794 9.14 107.144 9.48 107.504 9.76L108.464 10.57C108.664 10.75 108.874 10.92 109.094 11.08C109.314 11.24 109.524 11.4 109.724 11.56C110.024 11.78 110.324 12.01 110.624 12.25C110.924 12.47 111.224 12.7 111.524 12.94C111.764 13.14 111.994 13.34 112.214 13.54C112.454 13.72 112.674 13.92 112.874 14.14C113.014 14.3 113.154 14.46 113.294 14.62C113.434 14.78 113.554 14.96 113.654 15.16C113.794 15.38 113.914 15.64 114.014 15.94C114.134 16.32 114.184 16.68 114.164 17.02C114.144 17.06 114.134 17.12 114.134 17.2C114.134 17.44 114.104 17.67 114.044 17.89C114.004 18.09 113.934 18.3 113.834 18.52C113.734 18.72 113.624 18.93 113.504 19.15C113.404 19.35 113.284 19.55 113.144 19.75C112.944 20.01 112.734 20.26 112.514 20.5C112.314 20.72 112.084 20.94 111.824 21.16C111.684 21.28 111.544 21.41 111.404 21.55C111.264 21.67 111.114 21.78 110.954 21.88C110.854 21.96 110.754 22.03 110.654 22.09C110.554 22.17 110.454 22.25 110.354 22.33C110.274 22.37 110.194 22.42 110.114 22.48C110.034 22.54 109.954 22.6 109.874 22.66C109.794 22.74 109.694 22.8 109.574 22.84C109.474 22.9 109.374 22.95 109.274 22.99L108.404 23.35C108.224 23.41 108.044 23.45 107.864 23.47C107.684 23.49 107.494 23.49 107.294 23.47ZM127.571 22.27C127.511 22.25 127.441 22.23 127.361 22.21C127.301 22.19 127.241 22.17 127.181 22.15C127.021 22.09 126.861 22.01 126.701 21.91C126.621 21.87 126.561 21.81 126.521 21.73C126.381 21.51 126.251 21.31 126.131 21.13C126.011 20.93 125.881 20.73 125.741 20.53L125.471 20.05C125.331 19.77 125.191 19.5 125.051 19.24C124.911 18.96 124.771 18.69 124.631 18.43C124.591 18.33 124.541 18.25 124.481 18.19C124.441 18.11 124.401 18.03 124.361 17.95C124.221 17.73 124.091 17.51 123.971 17.29C123.851 17.05 123.731 16.82 123.611 16.6L122.861 15.13C122.661 14.73 122.461 14.34 122.261 13.96C122.061 13.56 121.861 13.16 121.661 12.76C121.621 12.72 121.581 12.66 121.541 12.58C121.461 12.36 121.361 12.15 121.241 11.95C121.141 11.75 121.041 11.55 120.941 11.35C120.861 11.21 120.791 11.07 120.731 10.93C120.671 10.77 120.601 10.62 120.521 10.48L120.191 9.88C120.151 9.88 120.121 9.87 120.101 9.85C120.101 9.85 120.091 9.86 120.071 9.88C120.071 9.88 120.071 9.89 120.071 9.91C120.051 10.17 120.031 10.44 120.011 10.72C119.991 11 119.991 11.28 120.011 11.56C120.051 11.68 120.051 11.81 120.011 11.95C119.971 12.31 119.981 12.63 120.041 12.91C120.061 12.99 120.061 13.07 120.041 13.15C120.041 13.23 120.031 13.32 120.011 13.42C119.991 13.56 119.981 13.69 119.981 13.81C119.981 13.93 119.971 14.06 119.951 14.2C119.991 14.28 120.011 14.37 120.011 14.47C120.011 14.55 120.001 14.63 119.981 14.71C119.921 14.91 119.921 15.12 119.981 15.34C120.021 15.4 120.021 15.46 119.981 15.52C119.901 15.7 119.881 15.92 119.921 16.18C119.981 16.52 119.961 16.89 119.861 17.29C119.841 17.33 119.831 17.4 119.831 17.5C119.811 17.58 119.831 17.65 119.891 17.71C119.971 17.75 119.991 17.8 119.951 17.86C119.931 18.12 119.931 18.39 119.951 18.67C119.951 18.67 119.951 18.68 119.951 18.7C119.951 18.7 119.941 18.7 119.921 18.7C119.901 18.7 119.891 18.69 119.891 18.67C119.871 18.65 119.861 18.63 119.861 18.61C119.821 18.57 119.801 18.58 119.801 18.64C119.801 18.74 119.811 18.8 119.831 18.82C119.871 18.92 119.891 19.02 119.891 19.12C119.891 19.22 119.891 19.32 119.891 19.42V20.35C119.891 20.41 119.881 20.47 119.861 20.53C119.861 20.59 119.831 20.64 119.771 20.68C119.691 20.7 119.651 20.77 119.651 20.89C119.631 21.11 119.551 21.3 119.411 21.46C119.291 21.62 119.151 21.76 118.991 21.88C118.911 21.94 118.811 21.98 118.691 22C118.591 22 118.491 21.99 118.391 21.97L117.851 21.79C117.811 21.79 117.771 21.76 117.731 21.7C117.671 21.64 117.611 21.58 117.551 21.52C117.491 21.44 117.421 21.37 117.341 21.31C117.241 21.25 117.171 21.14 117.131 20.98C117.111 20.88 117.081 20.77 117.041 20.65C117.001 20.53 116.981 20.41 116.981 20.29C116.981 20.15 116.981 20.02 116.981 19.9C117.001 19.78 117.011 19.65 117.011 19.51C117.031 19.41 117.041 19.32 117.041 19.24C117.041 19.14 117.051 19.04 117.071 18.94V7.96C117.071 7.86 117.071 7.76 117.071 7.66C117.091 7.56 117.111 7.47 117.131 7.39C117.131 7.29 117.131 7.19 117.131 7.09C117.151 6.99 117.161 6.89 117.161 6.79C117.161 6.67 117.161 6.55 117.161 6.43C117.181 6.31 117.201 6.2 117.221 6.1C117.241 6.02 117.251 5.95 117.251 5.89C117.251 5.83 117.251 5.76 117.251 5.68V4.75C117.251 4.61 117.261 4.49 117.281 4.39C117.321 4.27 117.351 4.15 117.371 4.03L117.461 3.88C117.521 3.82 117.571 3.73 117.611 3.61C117.651 3.49 117.711 3.43 117.791 3.43C117.851 3.39 117.911 3.36 117.971 3.34C118.031 3.3 118.071 3.24 118.091 3.16L118.121 3.13C118.141 3.13 118.161 3.13 118.181 3.13C118.201 3.11 118.221 3.1 118.241 3.1C118.321 3.1 118.381 3.08 118.421 3.04C118.481 3 118.551 2.99 118.631 3.01C118.711 3.03 118.791 3.04 118.871 3.04C118.951 3.04 119.031 3.05 119.111 3.07C119.551 3.15 119.861 3.41 120.041 3.85L120.221 4.45C120.241 4.65 120.331 4.84 120.491 5.02C120.611 5.16 120.731 5.31 120.851 5.47C120.971 5.63 121.101 5.79 121.241 5.95C121.761 6.61 122.241 7.35 122.681 8.17C122.721 8.25 122.761 8.33 122.801 8.41C122.841 8.49 122.881 8.57 122.921 8.65L124.481 11.8C124.601 12.02 124.711 12.25 124.811 12.49C124.931 12.71 125.061 12.93 125.201 13.15C125.241 13.23 125.281 13.31 125.321 13.39C125.361 13.45 125.391 13.52 125.411 13.6C125.511 13.84 125.631 14.08 125.771 14.32C125.771 14.32 125.771 14.33 125.771 14.35C125.791 14.35 125.801 14.34 125.801 14.32C125.821 14.32 125.831 14.32 125.831 14.32C125.851 14.3 125.861 14.29 125.861 14.29L125.951 13.24V12.94C125.971 12.84 125.981 12.74 125.981 12.64C126.001 12.52 126.021 12.41 126.041 12.31C126.061 12.25 126.061 12.18 126.041 12.1C126.041 12.02 126.051 11.94 126.071 11.86C126.071 11.74 126.071 11.62 126.071 11.5C126.091 11.36 126.111 11.23 126.131 11.11C126.151 11.05 126.161 10.99 126.161 10.93C126.161 10.85 126.161 10.78 126.161 10.72V9.91H126.131V9.1C126.131 9 126.131 8.9 126.131 8.8C126.131 8.7 126.111 8.6 126.071 8.5C126.051 8.44 126.041 8.35 126.041 8.23L126.071 8.02C126.071 7.96 126.061 7.91 126.041 7.87C126.041 7.81 126.041 7.75 126.041 7.69C126.061 7.61 126.051 7.53 126.011 7.45C125.971 7.37 125.951 7.29 125.951 7.21C125.971 7.13 125.981 7.05 125.981 6.97C125.981 6.89 125.981 6.81 125.981 6.73C125.981 6.65 125.941 6.61 125.861 6.61C125.841 6.61 125.831 6.59 125.831 6.55C125.811 6.49 125.811 6.44 125.831 6.4C125.871 6.3 125.891 6.19 125.891 6.07C125.891 5.95 125.891 5.83 125.891 5.71V4.84C125.871 4.72 125.881 4.6 125.921 4.48C125.961 4.36 126.011 4.25 126.071 4.15L126.191 3.97C126.291 3.87 126.401 3.77 126.521 3.67C126.641 3.57 126.761 3.47 126.881 3.37C126.881 3.37 126.921 3.35 127.001 3.31C127.101 3.29 127.191 3.27 127.271 3.25C127.371 3.23 127.471 3.23 127.571 3.25C127.651 3.25 127.711 3.26 127.751 3.28C127.831 3.32 127.911 3.37 127.991 3.43C128.071 3.47 128.151 3.52 128.231 3.58C128.271 3.6 128.291 3.62 128.291 3.64C128.311 3.66 128.331 3.68 128.351 3.7C128.391 3.74 128.421 3.79 128.441 3.85C128.481 3.89 128.511 3.93 128.531 3.97C128.631 4.05 128.691 4.15 128.711 4.27C128.751 4.37 128.781 4.47 128.801 4.57V5.83C128.801 5.97 128.801 6.11 128.801 6.25C128.821 6.37 128.841 6.5 128.861 6.64C128.881 6.72 128.891 6.8 128.891 6.88C128.891 6.94 128.891 7.01 128.891 7.09C128.891 7.25 128.891 7.42 128.891 7.6C128.911 7.76 128.921 7.92 128.921 8.08V8.29C128.921 8.43 128.911 8.57 128.891 8.71C128.891 8.83 128.891 8.96 128.891 9.1V10.42C128.891 10.62 128.881 10.83 128.861 11.05C128.861 11.25 128.871 11.46 128.891 11.68C128.891 11.76 128.881 11.82 128.861 11.86C128.841 12.06 128.831 12.26 128.831 12.46C128.831 12.64 128.821 12.83 128.801 13.03C128.801 13.11 128.801 13.2 128.801 13.3C128.801 13.4 128.791 13.5 128.771 13.6C128.751 13.68 128.741 13.76 128.741 13.84C128.761 13.92 128.771 14 128.771 14.08C128.811 14.26 128.821 14.44 128.801 14.62C128.801 14.8 128.791 14.98 128.771 15.16C128.751 15.48 128.731 15.81 128.711 16.15C128.711 16.47 128.731 16.8 128.771 17.14C128.771 17.22 128.771 17.31 128.771 17.41C128.791 17.51 128.801 17.61 128.801 17.71C128.781 18.01 128.791 18.3 128.831 18.58C128.891 18.86 128.951 19.14 129.011 19.42C129.051 19.62 129.091 19.82 129.131 20.02C129.171 20.2 129.201 20.4 129.221 20.62C129.221 20.7 129.211 20.75 129.191 20.77C129.171 20.81 129.151 20.86 129.131 20.92C129.111 20.96 129.101 21 129.101 21.04C129.081 21.2 129.021 21.35 128.921 21.49C128.841 21.63 128.751 21.77 128.651 21.91C128.391 22.25 128.031 22.37 127.571 22.27ZM132.589 8.29C132.409 8.29 132.259 8.21 132.139 8.05C132.039 7.91 131.949 7.76 131.869 7.6C131.789 7.44 131.729 7.27 131.689 7.09C131.609 6.69 131.659 6.29 131.839 5.89C131.879 5.83 131.909 5.77 131.929 5.71C131.969 5.65 131.999 5.6 132.019 5.56L132.259 5.05C132.279 5.07 132.289 5.08 132.289 5.08C132.349 4.94 132.409 4.81 132.469 4.69C132.549 4.55 132.619 4.41 132.679 4.27C132.719 4.19 132.759 4.09 132.799 3.97C132.839 3.81 132.889 3.66 132.949 3.52C133.009 3.38 133.079 3.24 133.159 3.1C133.239 2.94 133.309 2.79 133.369 2.65C133.449 2.51 133.519 2.37 133.579 2.23C133.619 2.13 133.659 2.05 133.699 1.99C133.759 1.91 133.809 1.83 133.849 1.75C133.889 1.67 133.929 1.6 133.969 1.54C134.029 1.46 134.069 1.38 134.089 1.3C134.249 1.08 134.409 0.899999 134.569 0.76C134.749 0.6 134.959 0.479999 135.199 0.399999C135.639 0.279999 136.059 0.299999 136.459 0.459998C136.899 0.679999 137.179 0.999999 137.299 1.42C137.399 1.74 137.419 2.03 137.359 2.29C137.299 2.65 137.159 2.99 136.939 3.31C136.859 3.45 136.779 3.59 136.699 3.73C136.619 3.87 136.549 4.02 136.489 4.18L135.919 5.35C135.879 5.47 135.839 5.59 135.799 5.71C135.759 5.81 135.719 5.92 135.679 6.04C135.619 6.24 135.529 6.41 135.409 6.55C135.329 6.69 135.229 6.83 135.109 6.97C135.009 7.11 134.909 7.26 134.809 7.42C134.729 7.52 134.639 7.61 134.539 7.69C134.459 7.77 134.369 7.85 134.269 7.93C134.129 8.01 133.969 8.08 133.789 8.14C133.629 8.18 133.469 8.22 133.309 8.26C133.229 8.26 133.129 8.27 133.009 8.29C132.909 8.29 132.809 8.29 132.709 8.29H132.589ZM146.104 21.97C146.064 21.95 146.004 21.94 145.924 21.94C145.884 21.94 145.844 21.91 145.804 21.85C145.764 21.79 145.724 21.74 145.684 21.7C145.644 21.64 145.604 21.57 145.564 21.49C145.504 21.41 145.454 21.41 145.414 21.49H145.354C145.354 21.47 145.344 21.46 145.324 21.46C145.324 21.44 145.324 21.43 145.324 21.43C145.264 21.15 145.174 20.89 145.054 20.65C144.994 20.49 144.934 20.33 144.874 20.17C144.834 19.99 144.804 19.81 144.784 19.63L144.604 18.31L144.514 17.23V17.17C144.474 16.93 144.454 16.69 144.454 16.45C144.454 16.19 144.454 15.93 144.454 15.67C144.434 15.53 144.424 15.4 144.424 15.28C144.424 15.14 144.414 15 144.394 14.86C144.374 14.7 144.354 14.54 144.334 14.38C144.334 14.22 144.334 14.07 144.334 13.93L144.364 11.56V8.35C144.324 8.23 144.264 8.17 144.184 8.17C144.144 8.17 144.094 8.18 144.034 8.2C143.994 8.2 143.954 8.2 143.914 8.2L142.564 8.56C142.384 8.62 142.204 8.68 142.024 8.74C141.844 8.78 141.664 8.83 141.484 8.89C141.344 8.91 141.204 8.93 141.064 8.95C140.944 8.95 140.814 8.95 140.674 8.95C140.574 8.95 140.464 8.91 140.344 8.83C140.204 8.77 140.084 8.69 139.984 8.59C139.884 8.49 139.784 8.38 139.684 8.26L139.624 8.17C139.584 8.03 139.544 7.9 139.504 7.78C139.484 7.64 139.484 7.5 139.504 7.36C139.524 7.18 139.564 7.01 139.624 6.85C139.704 6.69 139.814 6.55 139.954 6.43C140.014 6.39 140.064 6.34 140.104 6.28C140.164 6.22 140.224 6.16 140.284 6.1C140.364 6.06 140.414 6.04 140.434 6.04C140.554 6.04 140.664 6.02 140.764 5.98C140.864 5.92 140.964 5.88 141.064 5.86C141.164 5.84 141.264 5.82 141.364 5.8C141.464 5.78 141.564 5.76 141.664 5.74C141.944 5.66 142.224 5.59 142.504 5.53C142.784 5.45 143.064 5.39 143.344 5.35L144.964 5.08C145.004 5.06 145.034 5.05 145.054 5.05C145.094 5.05 145.124 5.04 145.144 5.02C145.264 4.98 145.384 4.95 145.504 4.93C145.624 4.91 145.744 4.92 145.864 4.96C145.904 4.98 145.934 4.99 145.954 4.99C145.994 4.97 146.024 4.96 146.044 4.96C146.384 4.92 146.724 4.88 147.064 4.84C147.404 4.8 147.734 4.75 148.054 4.69C148.314 4.65 148.574 4.61 148.834 4.57C149.094 4.53 149.354 4.5 149.614 4.48C149.814 4.44 150.014 4.41 150.214 4.39C150.414 4.37 150.614 4.35 150.814 4.33C150.974 4.31 151.134 4.29 151.294 4.27C151.474 4.25 151.644 4.23 151.804 4.21C151.964 4.19 152.114 4.19 152.254 4.21C152.414 4.21 152.574 4.21 152.734 4.21C152.834 4.21 152.924 4.24 153.004 4.3C153.104 4.36 153.194 4.41 153.274 4.45C153.354 4.51 153.464 4.61 153.604 4.75C153.644 4.79 153.684 4.88 153.724 5.02C153.744 5.08 153.764 5.15 153.784 5.23C153.804 5.29 153.824 5.36 153.844 5.44C153.884 5.62 153.864 5.79 153.784 5.95L153.604 6.37C153.584 6.43 153.554 6.49 153.514 6.55C153.494 6.59 153.464 6.63 153.424 6.67C153.384 6.71 153.364 6.73 153.364 6.73C153.284 6.79 153.194 6.85 153.094 6.91C153.014 6.97 152.914 7.01 152.794 7.03L151.504 7.12C151.384 7.12 151.264 7.13 151.144 7.15C151.024 7.15 150.894 7.16 150.754 7.18H150.604C150.284 7.2 149.974 7.23 149.674 7.27C149.374 7.31 149.074 7.35 148.774 7.39L147.574 7.57C147.514 7.57 147.474 7.58 147.454 7.6C147.374 7.6 147.314 7.66 147.274 7.78V7.87C147.274 8.07 147.274 8.27 147.274 8.47C147.274 8.65 147.284 8.84 147.304 9.04C147.364 9.32 147.364 9.6 147.304 9.88C147.284 9.94 147.264 10 147.244 10.06C147.244 10.1 147.244 10.14 147.244 10.18C147.264 10.42 147.244 10.68 147.184 10.96C147.184 11.02 147.184 11.08 147.184 11.14C147.184 11.2 147.194 11.26 147.214 11.32C147.234 11.4 147.244 11.49 147.244 11.59C147.244 11.69 147.244 11.79 147.244 11.89V13.45C147.244 13.53 147.234 13.63 147.214 13.75C147.214 13.85 147.214 13.95 147.214 14.05C147.214 14.13 147.214 14.22 147.214 14.32C147.234 14.42 147.244 14.52 147.244 14.62C147.244 14.76 147.244 14.9 147.244 15.04C147.264 15.18 147.264 15.33 147.244 15.49V16.42C147.244 16.44 147.234 16.46 147.214 16.48C147.214 16.5 147.224 16.53 147.244 16.57C147.264 16.75 147.274 16.94 147.274 17.14C147.274 17.32 147.294 17.5 147.334 17.68C147.334 17.74 147.334 17.8 147.334 17.86C147.354 17.92 147.354 17.98 147.334 18.04C147.334 18.22 147.354 18.41 147.394 18.61C147.434 18.79 147.464 18.97 147.484 19.15C147.524 19.37 147.564 19.59 147.604 19.81C147.664 20.03 147.714 20.25 147.754 20.47L147.844 20.89C147.844 20.95 147.814 21 147.754 21.04C147.754 21.04 147.744 21.04 147.724 21.04C147.724 21.04 147.714 21.05 147.694 21.07C147.594 21.11 147.554 21.17 147.574 21.25V21.4C147.574 21.4 147.564 21.41 147.544 21.43C147.544 21.45 147.534 21.46 147.514 21.46C147.414 21.46 147.334 21.5 147.274 21.58C147.214 21.66 147.144 21.73 147.064 21.79C147.004 21.83 146.924 21.87 146.824 21.91C146.564 22.01 146.324 22.03 146.104 21.97ZM173.417 23.47L172.907 23.38C172.647 23.34 172.377 23.3 172.097 23.26C171.837 23.22 171.567 23.19 171.287 23.17C171.007 23.17 170.727 23.09 170.447 22.93C170.187 22.79 170.007 22.57 169.907 22.27C169.887 22.17 169.857 22.07 169.817 21.97C169.797 21.87 169.777 21.77 169.757 21.67C169.757 21.43 169.807 21.25 169.907 21.13C170.007 21.03 170.087 20.93 170.147 20.83C170.227 20.73 170.307 20.64 170.387 20.56C170.427 20.52 170.467 20.49 170.507 20.47C170.547 20.45 170.587 20.43 170.627 20.41C170.727 20.35 170.827 20.31 170.927 20.29C171.027 20.25 171.127 20.22 171.227 20.2C171.267 20.18 171.297 20.18 171.317 20.2C171.357 20.2 171.387 20.2 171.407 20.2C171.507 20.22 171.617 20.24 171.737 20.26C171.857 20.26 171.967 20.28 172.067 20.32L173.327 20.5C173.607 20.54 173.857 20.5 174.077 20.38C174.157 20.34 174.227 20.3 174.287 20.26C174.367 20.22 174.437 20.18 174.497 20.14C174.937 19.88 175.317 19.61 175.637 19.33C175.877 19.11 176.107 18.89 176.327 18.67C176.547 18.45 176.747 18.21 176.927 17.95C177.067 17.77 177.157 17.59 177.197 17.41C177.237 17.21 177.247 17.01 177.227 16.81L177.137 16.57C177.117 16.47 177.077 16.39 177.017 16.33C176.957 16.27 176.897 16.2 176.837 16.12C176.717 16.02 176.597 15.91 176.477 15.79C176.377 15.67 176.267 15.57 176.147 15.49C175.847 15.25 175.547 15.02 175.247 14.8C174.967 14.58 174.677 14.36 174.377 14.14C174.357 14.1 174.297 14.06 174.197 14.02C174.017 13.9 173.837 13.77 173.657 13.63C173.497 13.47 173.337 13.32 173.177 13.18C172.977 12.98 172.757 12.79 172.517 12.61C172.397 12.55 172.287 12.45 172.187 12.31C172.107 12.21 171.987 12.11 171.827 12.01C171.687 11.93 171.557 11.84 171.437 11.74C171.317 11.62 171.197 11.51 171.077 11.41L170.687 11.05C170.607 10.95 170.517 10.86 170.417 10.78C170.337 10.68 170.247 10.58 170.147 10.48C170.107 10.38 170.047 10.3 169.967 10.24C169.907 10.18 169.847 10.11 169.787 10.03C169.767 9.99 169.737 9.95 169.697 9.91C169.657 9.85 169.627 9.79 169.607 9.73C169.487 9.49 169.357 9.25 169.217 9.01C169.097 8.77 168.987 8.52 168.887 8.26C168.827 8.1 168.767 7.95 168.707 7.81C168.667 7.65 168.627 7.5 168.587 7.36C168.567 7.2 168.527 7.06 168.467 6.94C168.427 6.8 168.387 6.66 168.347 6.52C168.307 6.3 168.257 6.09 168.197 5.89C168.157 5.67 168.117 5.46 168.077 5.26L168.017 5.02C167.997 4.8 167.997 4.59 168.017 4.39C168.057 4.11 168.117 3.86 168.197 3.64C168.277 3.4 168.407 3.21 168.587 3.07C168.787 2.91 168.987 2.75 169.187 2.59C169.387 2.43 169.597 2.3 169.817 2.2C169.857 2.2 169.887 2.19 169.907 2.17C170.107 2.01 170.327 1.9 170.567 1.84C170.807 1.76 171.047 1.69 171.287 1.63C172.247 1.35 173.237 1.14 174.257 0.999999H174.557C174.757 0.999999 174.947 0.999999 175.127 0.999999C175.307 0.999999 175.497 0.989999 175.697 0.969999C175.937 0.969999 176.177 0.999999 176.417 1.06C176.657 1.1 176.887 1.17 177.107 1.27C177.267 1.35 177.427 1.44 177.587 1.54C177.747 1.62 177.897 1.71 178.037 1.81C178.197 1.93 178.297 2.06 178.337 2.2L178.427 2.41C178.527 2.59 178.577 2.78 178.577 2.98C178.597 3.16 178.587 3.35 178.547 3.55C178.547 3.61 178.537 3.68 178.517 3.76C178.517 3.82 178.517 3.88 178.517 3.94C178.457 4.38 178.247 4.72 177.887 4.96C177.667 5.16 177.377 5.24 177.017 5.2C176.937 5.16 176.897 5.18 176.897 5.26C176.897 5.34 176.847 5.38 176.747 5.38H176.567C176.447 5.38 176.327 5.32 176.207 5.2C176.107 5.1 176.057 5.02 176.057 4.96C176.057 4.88 176.097 4.82 176.177 4.78C176.137 4.68 176.097 4.59 176.057 4.51C176.017 4.43 175.977 4.37 175.937 4.33C175.877 4.23 175.787 4.16 175.667 4.12C175.567 4.1 175.467 4.08 175.367 4.06C175.267 4.04 175.167 4.02 175.067 4C174.987 4 174.897 4 174.797 4C174.697 3.98 174.597 3.96 174.497 3.94C174.437 3.92 174.347 3.93 174.227 3.97C174.167 3.99 174.107 4.01 174.047 4.03C173.987 4.03 173.917 4.02 173.837 4C173.777 4 173.707 4 173.627 4C173.567 4 173.497 4.02 173.417 4.06L172.847 4.15C172.527 4.21 172.217 4.33 171.917 4.51C171.857 4.53 171.797 4.55 171.737 4.57C171.677 4.59 171.617 4.59 171.557 4.57C171.437 4.55 171.337 4.58 171.257 4.66C171.237 4.7 171.187 4.73 171.107 4.75C171.047 4.75 170.997 4.77 170.957 4.81C170.877 4.89 170.837 4.97 170.837 5.05C170.857 5.09 170.867 5.15 170.867 5.23L171.497 7.06C171.617 7.38 171.767 7.68 171.947 7.96C172.147 8.22 172.357 8.48 172.577 8.74C172.917 9.14 173.267 9.48 173.627 9.76L174.587 10.57C174.787 10.75 174.997 10.92 175.217 11.08C175.437 11.24 175.647 11.4 175.847 11.56C176.147 11.78 176.447 12.01 176.747 12.25C177.047 12.47 177.347 12.7 177.647 12.94C177.887 13.14 178.117 13.34 178.337 13.54C178.577 13.72 178.797 13.92 178.997 14.14C179.137 14.3 179.277 14.46 179.417 14.62C179.557 14.78 179.677 14.96 179.777 15.16C179.917 15.38 180.037 15.64 180.137 15.94C180.257 16.32 180.307 16.68 180.287 17.02C180.267 17.06 180.257 17.12 180.257 17.2C180.257 17.44 180.227 17.67 180.167 17.89C180.127 18.09 180.057 18.3 179.957 18.52C179.857 18.72 179.747 18.93 179.627 19.15C179.527 19.35 179.407 19.55 179.267 19.75C179.067 20.01 178.857 20.26 178.637 20.5C178.437 20.72 178.207 20.94 177.947 21.16C177.807 21.28 177.667 21.41 177.527 21.55C177.387 21.67 177.237 21.78 177.077 21.88C176.977 21.96 176.877 22.03 176.777 22.09C176.677 22.17 176.577 22.25 176.477 22.33C176.397 22.37 176.317 22.42 176.237 22.48C176.157 22.54 176.077 22.6 175.997 22.66C175.917 22.74 175.817 22.8 175.697 22.84C175.597 22.9 175.497 22.95 175.397 22.99L174.527 23.35C174.347 23.41 174.167 23.45 173.987 23.47C173.807 23.49 173.617 23.49 173.417 23.47ZM189.582 22.6C189.382 22.58 189.182 22.55 188.982 22.51C188.802 22.49 188.622 22.44 188.442 22.36L187.692 22.09C187.432 21.99 187.192 21.88 186.972 21.76C186.752 21.62 186.532 21.48 186.312 21.34C186.212 21.24 186.112 21.15 186.012 21.07C185.912 20.97 185.812 20.88 185.712 20.8C185.552 20.64 185.392 20.48 185.232 20.32C185.072 20.14 184.922 19.95 184.782 19.75L184.062 18.64C183.882 18.36 183.722 18.07 183.582 17.77C183.442 17.45 183.322 17.13 183.222 16.81C183.002 16.21 182.892 15.62 182.892 15.04V14.56C182.892 14.06 182.922 13.57 182.982 13.09C183.022 12.69 183.112 12.33 183.252 12.01C183.332 11.81 183.402 11.61 183.462 11.41C183.522 11.21 183.592 11.02 183.672 10.84L183.762 10.63C183.802 10.37 183.892 10.14 184.032 9.94C184.172 9.72 184.292 9.51 184.392 9.31C184.472 9.15 184.562 9.01 184.662 8.89C184.762 8.75 184.852 8.61 184.932 8.47C184.972 8.41 185.022 8.36 185.082 8.32C185.142 8.26 185.192 8.2 185.232 8.14C185.272 8.1 185.302 8.05 185.322 7.99C185.362 7.91 185.392 7.84 185.412 7.78C185.452 7.72 185.522 7.64 185.622 7.54C185.742 7.48 185.852 7.34 185.952 7.12C185.992 7.04 186.032 6.98 186.072 6.94C186.192 6.84 186.292 6.72 186.372 6.58C186.472 6.44 186.582 6.31 186.702 6.19C186.782 6.11 186.822 6 186.822 5.86C186.822 5.76 186.822 5.67 186.822 5.59C186.842 5.49 186.842 5.4 186.822 5.32C186.802 5.22 186.832 5.13 186.912 5.05C186.952 5.01 186.982 4.96 187.002 4.9C187.022 4.84 187.042 4.78 187.062 4.72C187.122 4.52 187.282 4.35 187.542 4.21C187.582 4.17 187.632 4.15 187.692 4.15C187.772 4.13 187.842 4.11 187.902 4.09C188.042 4.03 188.202 4.02 188.382 4.06C188.462 4.08 188.532 4.09 188.592 4.09C188.652 4.07 188.712 4.05 188.772 4.03C188.852 3.99 188.922 3.96 188.982 3.94C189.062 3.92 189.132 3.9 189.192 3.88C189.472 3.78 189.762 3.79 190.062 3.91C190.382 4.03 190.612 4.24 190.752 4.54C190.792 4.64 190.832 4.74 190.872 4.84C190.912 4.94 190.942 5.04 190.962 5.14C191.002 5.36 190.992 5.55 190.932 5.71C190.892 5.79 190.872 5.84 190.872 5.86C190.852 5.94 190.872 6.01 190.932 6.07C190.972 6.13 191.022 6.18 191.082 6.22C191.302 6.42 191.512 6.62 191.712 6.82C191.912 7 192.102 7.2 192.282 7.42C192.442 7.58 192.572 7.75 192.672 7.93C192.792 8.09 192.902 8.27 193.002 8.47C193.042 8.57 193.092 8.68 193.152 8.8C193.212 8.9 193.272 9 193.332 9.1C193.432 9.28 193.512 9.47 193.572 9.67C193.652 9.87 193.732 10.07 193.812 10.27V10.3C193.852 10.44 193.882 10.59 193.902 10.75C193.942 10.89 194.002 11.04 194.082 11.2C194.142 11.34 194.192 11.49 194.232 11.65C194.272 11.79 194.312 11.94 194.352 12.1C194.392 12.28 194.432 12.46 194.472 12.64C194.532 12.82 194.572 13 194.592 13.18C194.612 13.26 194.632 13.34 194.652 13.42C194.672 13.48 194.692 13.55 194.712 13.63C194.752 13.81 194.792 13.99 194.832 14.17C194.872 14.35 194.902 14.53 194.922 14.71L195.012 14.92C195.052 15.04 195.092 15.2 195.132 15.4C195.192 15.66 195.222 15.92 195.222 16.18C195.242 16.44 195.242 16.71 195.222 16.99C195.222 17.13 195.212 17.24 195.192 17.32C195.072 17.74 194.922 18.17 194.742 18.61C194.662 18.75 194.582 18.89 194.502 19.03C194.422 19.15 194.342 19.28 194.262 19.42L193.992 19.84C193.892 20.02 193.782 20.18 193.662 20.32C193.462 20.64 193.222 20.92 192.942 21.16C192.662 21.4 192.362 21.63 192.042 21.85C191.342 22.39 190.522 22.64 189.582 22.6ZM189.462 19.63C189.882 19.63 190.242 19.51 190.542 19.27C190.642 19.17 190.742 19.08 190.842 19C190.962 18.9 191.062 18.8 191.142 18.7C191.522 18.28 191.822 17.84 192.042 17.38L192.132 17.08C192.172 16.72 192.172 16.36 192.132 16L191.952 15.01C191.892 14.75 191.842 14.5 191.802 14.26C191.762 14 191.702 13.75 191.622 13.51C191.562 13.37 191.542 13.26 191.562 13.18C191.582 13.08 191.582 12.98 191.562 12.88C191.542 12.78 191.512 12.68 191.472 12.58C191.412 12.32 191.342 12.06 191.262 11.8C191.182 11.54 191.102 11.28 191.022 11.02C191.002 10.96 190.982 10.9 190.962 10.84C190.942 10.78 190.922 10.72 190.902 10.66C190.762 10.38 190.612 10.11 190.452 9.85C190.292 9.59 190.112 9.35 189.912 9.13C189.812 9.01 189.702 8.9 189.582 8.8C189.462 8.68 189.342 8.57 189.222 8.47C189.202 8.43 189.172 8.41 189.132 8.41C189.112 8.39 189.082 8.37 189.042 8.35C188.982 8.27 188.902 8.28 188.802 8.38C188.702 8.48 188.592 8.59 188.472 8.71C188.372 8.83 188.272 8.95 188.172 9.07C188.072 9.21 187.962 9.35 187.842 9.49C187.742 9.63 187.642 9.77 187.542 9.91C187.402 10.09 187.272 10.27 187.152 10.45C187.032 10.63 186.912 10.81 186.792 10.99C186.372 11.67 186.042 12.42 185.802 13.24C185.762 13.36 185.742 13.45 185.742 13.51C185.722 13.65 185.702 13.79 185.682 13.93C185.682 14.07 185.682 14.22 185.682 14.38V14.62C185.702 14.68 185.712 14.74 185.712 14.8C185.712 14.86 185.722 14.92 185.742 14.98C185.742 15.22 185.802 15.48 185.922 15.76C186.082 16.16 186.262 16.55 186.462 16.93C186.662 17.31 186.892 17.67 187.152 18.01C187.212 18.09 187.272 18.17 187.332 18.25C187.412 18.33 187.482 18.41 187.542 18.49C187.722 18.69 187.912 18.87 188.112 19.03C188.332 19.19 188.552 19.33 188.772 19.45C189.012 19.57 189.242 19.63 189.462 19.63Z" fill="#353535"/>
</svg>
