<svg width="179" height="25" viewBox="0 0 179 25" fill="none" xmlns="http://www.w3.org/2000/svg">
<path d="M6.10461 23.47L5.59461 23.38C5.33461 23.34 5.06461 23.3 4.78461 23.26C4.52461 23.22 4.25461 23.19 3.97461 23.17C3.69461 23.17 3.41461 23.09 3.13461 22.93C2.87461 22.79 2.69461 22.57 2.59461 22.27C2.57461 22.17 2.54461 22.07 2.50461 21.97C2.48461 21.87 2.46461 21.77 2.44461 21.67C2.44461 21.43 2.49461 21.25 2.59461 21.13C2.69461 21.03 2.77461 20.93 2.83461 20.83C2.91461 20.73 2.99461 20.64 3.07461 20.56C3.11461 20.52 3.15461 20.49 3.19461 20.47C3.23461 20.45 3.27461 20.43 3.31461 20.41C3.41461 20.35 3.51461 20.31 3.61461 20.29C3.71461 20.25 3.81461 20.22 3.91461 20.2C3.95461 20.18 3.98461 20.18 4.00461 20.2C4.04461 20.2 4.07461 20.2 4.09461 20.2C4.19461 20.22 4.30461 20.24 4.42461 20.26C4.54461 20.26 4.65461 20.28 4.75461 20.32L6.01461 20.5C6.29461 20.54 6.54461 20.5 6.76461 20.38C6.84461 20.34 6.91461 20.3 6.97461 20.26C7.05461 20.22 7.12461 20.18 7.18461 20.14C7.62461 19.88 8.00461 19.61 8.32461 19.33C8.56461 19.11 8.79461 18.89 9.01461 18.67C9.23461 18.45 9.43461 18.21 9.61461 17.95C9.75461 17.77 9.84461 17.59 9.88461 17.41C9.92461 17.21 9.93461 17.01 9.91461 16.81L9.82461 16.57C9.80461 16.47 9.76461 16.39 9.70461 16.33C9.64461 16.27 9.58461 16.2 9.52461 16.12C9.40461 16.02 9.28461 15.91 9.16461 15.79C9.06461 15.67 8.95461 15.57 8.83461 15.49C8.53461 15.25 8.23461 15.02 7.93461 14.8C7.65461 14.58 7.36461 14.36 7.06461 14.14C7.04461 14.1 6.98461 14.06 6.88461 14.02C6.70461 13.9 6.52461 13.77 6.34461 13.63C6.18461 13.47 6.02461 13.32 5.86461 13.18C5.66461 12.98 5.44461 12.79 5.20461 12.61C5.08461 12.55 4.97461 12.45 4.87461 12.31C4.79461 12.21 4.67461 12.11 4.51461 12.01C4.37461 11.93 4.24461 11.84 4.12461 11.74C4.00461 11.62 3.88461 11.51 3.76461 11.41L3.37461 11.05C3.29461 10.95 3.20461 10.86 3.10461 10.78C3.02461 10.68 2.93461 10.58 2.83461 10.48C2.79461 10.38 2.73461 10.3 2.65461 10.24C2.59461 10.18 2.53461 10.11 2.47461 10.03C2.45461 9.99 2.42461 9.95 2.38461 9.91C2.34461 9.85 2.31461 9.79 2.29461 9.73C2.17461 9.49 2.04461 9.25 1.90461 9.01C1.78461 8.77 1.67461 8.52 1.57461 8.26C1.51461 8.1 1.45461 7.95 1.39461 7.81C1.35461 7.65 1.31461 7.5 1.27461 7.36C1.25461 7.2 1.21461 7.06 1.15461 6.94C1.11461 6.8 1.07461 6.66 1.03461 6.52C0.994609 6.3 0.944609 6.09 0.884609 5.89C0.844609 5.67 0.804609 5.46 0.764609 5.26L0.704609 5.02C0.684609 4.8 0.684609 4.59 0.704609 4.39C0.744609 4.11 0.804609 3.86 0.884609 3.64C0.964609 3.4 1.09461 3.21 1.27461 3.07C1.47461 2.91 1.67461 2.75 1.87461 2.59C2.07461 2.43 2.28461 2.3 2.50461 2.2C2.54461 2.2 2.57461 2.19 2.59461 2.17C2.79461 2.01 3.01461 1.9 3.25461 1.84C3.49461 1.76 3.73461 1.69 3.97461 1.63C4.93461 1.35 5.92461 1.14 6.94461 0.999999H7.24461C7.44461 0.999999 7.63461 0.999999 7.81461 0.999999C7.99461 0.999999 8.18461 0.989999 8.38461 0.969999C8.62461 0.969999 8.86461 0.999999 9.10461 1.06C9.34461 1.1 9.57461 1.17 9.79461 1.27C9.95461 1.35 10.1146 1.44 10.2746 1.54C10.4346 1.62 10.5846 1.71 10.7246 1.81C10.8846 1.93 10.9846 2.06 11.0246 2.2L11.1146 2.41C11.2146 2.59 11.2646 2.78 11.2646 2.98C11.2846 3.16 11.2746 3.35 11.2346 3.55C11.2346 3.61 11.2246 3.68 11.2046 3.76C11.2046 3.82 11.2046 3.88 11.2046 3.94C11.1446 4.38 10.9346 4.72 10.5746 4.96C10.3546 5.16 10.0646 5.24 9.70461 5.2C9.62461 5.16 9.58461 5.18 9.58461 5.26C9.58461 5.34 9.53461 5.38 9.43461 5.38H9.25461C9.13461 5.38 9.01461 5.32 8.89461 5.2C8.79461 5.1 8.74461 5.02 8.74461 4.96C8.74461 4.88 8.78461 4.82 8.86461 4.78C8.82461 4.68 8.78461 4.59 8.74461 4.51C8.70461 4.43 8.66461 4.37 8.62461 4.33C8.56461 4.23 8.47461 4.16 8.35461 4.12C8.25461 4.1 8.15461 4.08 8.05461 4.06C7.95461 4.04 7.85461 4.02 7.75461 4C7.67461 4 7.58461 4 7.48461 4C7.38461 3.98 7.28461 3.96 7.18461 3.94C7.12461 3.92 7.03461 3.93 6.91461 3.97C6.85461 3.99 6.79461 4.01 6.73461 4.03C6.67461 4.03 6.60461 4.02 6.52461 4C6.46461 4 6.39461 4 6.31461 4C6.25461 4 6.18461 4.02 6.10461 4.06L5.53461 4.15C5.21461 4.21 4.90461 4.33 4.60461 4.51C4.54461 4.53 4.48461 4.55 4.42461 4.57C4.36461 4.59 4.30461 4.59 4.24461 4.57C4.12461 4.55 4.02461 4.58 3.94461 4.66C3.92461 4.7 3.87461 4.73 3.79461 4.75C3.73461 4.75 3.68461 4.77 3.64461 4.81C3.56461 4.89 3.52461 4.97 3.52461 5.05C3.54461 5.09 3.55461 5.15 3.55461 5.23L4.18461 7.06C4.30461 7.38 4.45461 7.68 4.63461 7.96C4.83461 8.22 5.04461 8.48 5.26461 8.74C5.60461 9.14 5.95461 9.48 6.31461 9.76L7.27461 10.57C7.47461 10.75 7.68461 10.92 7.90461 11.08C8.12461 11.24 8.33461 11.4 8.53461 11.56C8.83461 11.78 9.13461 12.01 9.43461 12.25C9.73461 12.47 10.0346 12.7 10.3346 12.94C10.5746 13.14 10.8046 13.34 11.0246 13.54C11.2646 13.72 11.4846 13.92 11.6846 14.14C11.8246 14.3 11.9646 14.46 12.1046 14.62C12.2446 14.78 12.3646 14.96 12.4646 15.16C12.6046 15.38 12.7246 15.64 12.8246 15.94C12.9446 16.32 12.9946 16.68 12.9746 17.02C12.9546 17.06 12.9446 17.12 12.9446 17.2C12.9446 17.44 12.9146 17.67 12.8546 17.89C12.8146 18.09 12.7446 18.3 12.6446 18.52C12.5446 18.72 12.4346 18.93 12.3146 19.15C12.2146 19.35 12.0946 19.55 11.9546 19.75C11.7546 20.01 11.5446 20.26 11.3246 20.5C11.1246 20.72 10.8946 20.94 10.6346 21.16C10.4946 21.28 10.3546 21.41 10.2146 21.55C10.0746 21.67 9.92461 21.78 9.76461 21.88C9.66461 21.96 9.56461 22.03 9.46461 22.09C9.36461 22.17 9.26461 22.25 9.16461 22.33C9.08461 22.37 9.00461 22.42 8.92461 22.48C8.84461 22.54 8.76461 22.6 8.68461 22.66C8.60461 22.74 8.50461 22.8 8.38461 22.84C8.28461 22.9 8.18461 22.95 8.08461 22.99L7.21461 23.35C7.03461 23.41 6.85461 23.45 6.67461 23.47C6.49461 23.49 6.30461 23.49 6.10461 23.47ZM18.0999 22.21C17.9799 22.21 17.8999 22.2 17.8599 22.18C17.7599 22.14 17.6599 22.12 17.5599 22.12C17.4799 22.14 17.3899 22.15 17.2899 22.15C17.2699 22.15 17.2499 22.15 17.2299 22.15C17.2099 22.17 17.1899 22.18 17.1699 22.18C17.0299 22.2 16.8899 22.21 16.7499 22.21C16.6299 22.21 16.5099 22.19 16.3899 22.15C16.3699 22.13 16.3499 22.12 16.3299 22.12C16.1899 22.14 16.0699 22.1 15.9699 22C15.8699 21.9 15.7699 21.81 15.6699 21.73C15.5699 21.63 15.5199 21.52 15.5199 21.4L15.4299 21.16C15.3699 21.02 15.3499 20.89 15.3699 20.77C15.3899 20.73 15.3899 20.69 15.3699 20.65C15.3699 20.61 15.3699 20.57 15.3699 20.53C15.3499 20.49 15.3399 20.45 15.3399 20.41C15.3399 20.35 15.3299 20.3 15.3099 20.26C15.2699 20.08 15.2399 19.9 15.2199 19.72C15.2199 19.52 15.2299 19.33 15.2499 19.15C15.2699 19.03 15.3399 18.83 15.4599 18.55C15.5799 18.25 15.6499 18.07 15.6699 18.01C15.7299 17.91 15.7599 17.83 15.7599 17.77C15.7399 17.55 15.7299 17.33 15.7299 17.11C15.7499 16.87 15.7599 16.64 15.7599 16.42C15.7599 16.28 15.7899 16.17 15.8499 16.09C15.9299 15.95 15.9399 15.8 15.8799 15.64L15.7899 15.31C15.6699 15.09 15.6799 14.9 15.8199 14.74C15.8199 14.72 15.8199 14.71 15.8199 14.71C15.8399 14.69 15.8499 14.67 15.8499 14.65C15.8899 14.61 15.8999 14.56 15.8799 14.5C15.8599 14.42 15.8499 14.36 15.8499 14.32C15.8499 14.24 15.8599 14.16 15.8799 14.08C15.9199 13.98 15.9299 13.89 15.9099 13.81C15.9099 13.81 15.8899 13.79 15.8499 13.75C15.8299 13.71 15.8199 13.63 15.8199 13.51C15.8399 13.39 15.8499 13.32 15.8499 13.3V12.46C15.8699 12.36 15.8799 12.27 15.8799 12.19C15.8799 12.09 15.8899 11.99 15.9099 11.89C15.9299 11.77 15.9299 11.65 15.9099 11.53C15.9099 11.39 15.9099 11.25 15.9099 11.11C15.8899 11.01 15.8699 10.9 15.8499 10.78C15.8499 10.66 15.8499 10.54 15.8499 10.42C15.8299 10.38 15.8199 10.33 15.8199 10.27C15.8199 10.21 15.8199 10.16 15.8199 10.12C15.7999 10.02 15.7799 9.92 15.7599 9.82C15.7599 9.72 15.7599 9.62 15.7599 9.52C15.7599 9.48 15.7199 9.35 15.6399 9.13C15.5599 8.89 15.5299 8.69 15.5499 8.53C15.5699 8.49 15.5799 8.44 15.5799 8.38C15.5799 8.32 15.5599 8.27 15.5199 8.23C15.4799 8.21 15.4599 8.17 15.4599 8.11V8.02C15.5199 7.78 15.4899 7.54 15.3699 7.3C15.2899 7.18 15.2599 7.06 15.2799 6.94C15.2799 6.78 15.2099 6.66 15.0699 6.58C14.9699 6.48 14.8799 6.36 14.7999 6.22C14.7199 6.08 14.6699 5.94 14.6499 5.8C14.6299 5.7 14.6199 5.6 14.6199 5.5C14.6199 5.4 14.6199 5.31 14.6199 5.23C14.6199 5.15 14.6299 5.1 14.6499 5.08C14.7299 5 14.7699 4.91 14.7699 4.81C14.7699 4.69 14.7799 4.6 14.7999 4.54C14.8199 4.52 14.8399 4.51 14.8599 4.51C14.8799 4.51 14.8999 4.5 14.9199 4.48C14.9999 4.46 15.0399 4.39 15.0399 4.27C14.9999 4.19 14.9799 4.12 14.9799 4.06C14.9599 3.98 14.9899 3.91 15.0699 3.85C15.1099 3.77 15.1599 3.75 15.2199 3.79C15.3599 3.85 15.5199 3.83 15.6999 3.73C15.7799 3.69 15.8299 3.67 15.8499 3.67C15.9099 3.67 15.9399 3.67 15.9399 3.67C15.9599 3.65 16.0199 3.64 16.1199 3.64C16.2399 3.66 16.3499 3.62 16.4499 3.52C16.5899 3.38 16.7599 3.31 16.9599 3.31H18.8199C19.2799 3.33 19.7399 3.33 20.1999 3.31C20.6599 3.29 21.1099 3.28 21.5499 3.28C21.6499 3.28 21.7299 3.28 21.7899 3.28C21.8699 3.26 21.9499 3.24 22.0299 3.22C22.1499 3.16 22.2899 3.13 22.4499 3.13H23.1399C23.2999 3.13 23.4399 3.13 23.5599 3.13C23.6999 3.11 23.8399 3.09 23.9799 3.07C24.0599 3.05 24.1299 3.04 24.1899 3.04C24.2699 3.04 24.3499 3.04 24.4299 3.04C24.5099 3.04 24.5899 3.04 24.6699 3.04C24.7499 3.04 24.8299 3.03 24.9099 3.01C25.0699 2.99 25.2399 2.98 25.4199 2.98C25.5999 2.96 25.7699 2.95 25.9299 2.95C26.0099 2.95 26.0799 2.95 26.1399 2.95C26.2199 2.93 26.2999 2.91 26.3799 2.89C26.5399 2.85 26.6899 2.83 26.8299 2.83C26.9899 2.81 27.1399 2.79 27.2799 2.77C27.4399 2.75 27.5899 2.73 27.7299 2.71C27.8899 2.69 28.0399 2.67 28.1799 2.65C28.3599 2.65 28.4899 2.67 28.5699 2.71C28.6899 2.79 28.7999 2.86 28.8999 2.92C29.0199 2.98 29.1299 3.06 29.2299 3.16C29.3099 3.24 29.3599 3.31 29.3799 3.37C29.3999 3.45 29.4199 3.53 29.4399 3.61C29.4599 3.69 29.4799 3.78 29.4999 3.88V4.09C29.4799 4.19 29.4599 4.3 29.4399 4.42C29.4399 4.52 29.4299 4.63 29.4099 4.75C29.3699 4.83 29.3199 4.9 29.2599 4.96L28.7199 5.5C28.5199 5.56 28.3199 5.6 28.1199 5.62C27.9399 5.64 27.7499 5.64 27.5499 5.62H27.3399C27.2399 5.64 27.1399 5.65 27.0399 5.65C26.9399 5.65 26.8399 5.64 26.7399 5.62C26.6199 5.6 26.4999 5.6 26.3799 5.62C26.2599 5.62 26.1399 5.62 26.0199 5.62C25.9399 5.62 25.8599 5.63 25.7799 5.65C25.7199 5.65 25.6499 5.64 25.5699 5.62C25.4699 5.6 25.3699 5.6 25.2699 5.62C25.1899 5.62 25.0999 5.63 24.9999 5.65C24.9199 5.65 24.8299 5.66 24.7299 5.68C24.6499 5.68 24.5599 5.68 24.4599 5.68C24.1999 5.72 23.9199 5.74 23.6199 5.74C23.3399 5.74 23.0599 5.76 22.7799 5.8C22.5999 5.78 22.4299 5.79 22.2699 5.83C22.1099 5.85 21.9399 5.87 21.7599 5.89C21.5999 5.91 21.4299 5.92 21.2499 5.92C21.0699 5.92 20.8999 5.94 20.7399 5.98C20.5399 5.98 20.3399 6.01 20.1399 6.07C19.9599 6.11 19.7699 6.14 19.5699 6.16L19.3599 6.19C19.2199 6.19 19.0899 6.21 18.9699 6.25C18.8499 6.27 18.7199 6.3 18.5799 6.34C18.4999 6.36 18.4199 6.38 18.3399 6.4C18.2599 6.4 18.1699 6.41 18.0699 6.43C18.0099 6.43 17.9399 6.45 17.8599 6.49C17.7999 6.51 17.7699 6.57 17.7699 6.67L17.8599 6.94C17.8799 6.98 17.8699 7.08 17.8299 7.24C17.8099 7.4 17.7899 7.52 17.7699 7.6C17.7699 7.66 17.7799 7.72 17.7999 7.78C17.8199 7.84 17.8399 7.9 17.8599 7.96C17.9199 8.12 17.9499 8.3 17.9499 8.5C17.9499 8.68 17.9699 8.85 18.0099 9.01C18.0299 9.09 18.0399 9.18 18.0399 9.28C18.0399 9.36 18.0499 9.45 18.0699 9.55C18.0699 9.59 18.0699 9.64 18.0699 9.7C18.0899 9.74 18.0999 9.79 18.0999 9.85C18.0999 9.91 18.0899 9.95 18.0699 9.97C18.0099 10.05 17.9799 10.14 17.9799 10.24C17.9799 10.34 17.9799 10.44 17.9799 10.54C18.0799 10.74 18.1299 10.94 18.1299 11.14C18.1299 11.34 18.1299 11.54 18.1299 11.74C18.1299 11.8 18.1799 11.82 18.2799 11.8H18.3099C18.3499 11.72 18.3899 11.66 18.4299 11.62C18.4899 11.62 18.5599 11.6 18.6399 11.56C18.6999 11.52 18.7799 11.5 18.8799 11.5C19.0399 11.52 19.1899 11.52 19.3299 11.5C19.4699 11.46 19.6099 11.42 19.7499 11.38C20.6899 11.14 21.5699 10.83 22.3899 10.45C22.6099 10.35 22.8399 10.27 23.0799 10.21C23.3199 10.13 23.5599 10.08 23.7999 10.06H23.8899C24.0699 10.04 24.2499 10.02 24.4299 10C24.6099 9.98 24.7899 9.97 24.9699 9.97C25.2099 9.95 25.4399 9.92 25.6599 9.88C25.8999 9.84 26.1399 9.81 26.3799 9.79C26.5199 9.75 26.6499 9.72 26.7699 9.7C26.8899 9.66 27.0199 9.61 27.1599 9.55C27.4199 9.45 27.6599 9.4 27.8799 9.4C28.0399 9.42 28.1899 9.46 28.3299 9.52C28.4699 9.56 28.6099 9.62 28.7499 9.7C29.0499 9.9 29.1999 10.2 29.1999 10.6C29.1999 10.76 29.1799 10.92 29.1399 11.08C29.1199 11.24 29.1099 11.4 29.1099 11.56C29.1099 11.6 29.0899 11.64 29.0499 11.68L28.9599 11.83C28.9399 11.91 28.9199 11.99 28.8999 12.07C28.8799 12.15 28.8299 12.21 28.7499 12.25C28.6299 12.35 28.4999 12.46 28.3599 12.58C28.2399 12.68 28.0999 12.75 27.9399 12.79C27.8599 12.81 27.7799 12.83 27.6999 12.85C27.6399 12.87 27.5699 12.88 27.4899 12.88C27.1699 12.88 26.8399 12.9 26.4999 12.94C26.1799 12.98 25.8499 13.02 25.5099 13.06C25.2499 13.08 24.9899 13.11 24.7299 13.15C24.4899 13.19 24.2399 13.21 23.9799 13.21C23.7399 13.21 23.4699 13.26 23.1699 13.36C22.9699 13.4 22.7599 13.44 22.5399 13.48C22.3199 13.52 22.0999 13.55 21.8799 13.57C21.7199 13.59 21.5499 13.62 21.3699 13.66C21.2099 13.68 21.0499 13.7 20.8899 13.72L20.3799 13.81C20.3399 13.83 20.2799 13.84 20.1999 13.84C20.0599 13.88 19.9199 13.91 19.7799 13.93C19.6399 13.95 19.4999 13.98 19.3599 14.02C19.2199 14.04 19.0799 14.07 18.9399 14.11C18.8199 14.15 18.6899 14.19 18.5499 14.23C18.4499 14.25 18.3699 14.29 18.3099 14.35C18.2499 14.39 18.1999 14.45 18.1599 14.53C18.1399 14.59 18.1399 14.65 18.1599 14.71C18.1799 14.79 18.1699 14.87 18.1299 14.95C18.1499 15.15 18.1599 15.35 18.1599 15.55C18.1799 15.75 18.1799 15.95 18.1599 16.15C18.1999 16.31 18.2099 16.47 18.1899 16.63C18.1899 16.79 18.1799 16.95 18.1599 17.11C18.1199 17.35 18.1299 17.55 18.1899 17.71C18.2499 17.97 18.2299 18.24 18.1299 18.52C18.0899 18.64 18.0899 18.72 18.1299 18.76C18.1699 18.82 18.1699 18.89 18.1299 18.97V19.15C18.1099 19.31 18.1799 19.39 18.3399 19.39H18.3999C18.5399 19.39 18.6799 19.44 18.8199 19.54C18.9199 19.64 19.0399 19.67 19.1799 19.63L20.0199 19.54C20.1399 19.52 20.2599 19.51 20.3799 19.51C20.4999 19.49 20.6199 19.48 20.7399 19.48C20.7799 19.46 20.8399 19.47 20.9199 19.51C21.0199 19.57 21.1099 19.58 21.1899 19.54C21.2299 19.5 21.2799 19.47 21.3399 19.45C21.4199 19.43 21.4799 19.4 21.5199 19.36C21.6399 19.24 21.7899 19.2 21.9699 19.24C22.1299 19.28 22.2599 19.27 22.3599 19.21C22.5399 19.15 22.7099 19.13 22.8699 19.15C22.9699 19.17 23.0699 19.16 23.1699 19.12C23.2699 19.08 23.3699 19.06 23.4699 19.06C23.5099 19.06 23.5399 19.07 23.5599 19.09C23.5799 19.09 23.5999 19.08 23.6199 19.06C23.6599 19.06 23.6999 19.05 23.7399 19.03C23.7799 19.01 23.8099 19 23.8299 19C23.9699 18.94 24.0999 18.92 24.2199 18.94C24.3199 18.94 24.3699 18.94 24.3699 18.94C24.4499 18.92 24.5199 18.92 24.5799 18.94C24.6599 18.96 24.7299 18.99 24.7899 19.03C24.8899 19.05 24.9699 19.08 25.0299 19.12C25.1099 19.16 25.1899 19.19 25.2699 19.21C25.3099 19.21 25.3399 19.22 25.3599 19.24C25.4599 19.32 25.5799 19.39 25.7199 19.45C25.8799 19.51 25.9699 19.58 25.9899 19.66C26.0299 19.78 26.0499 19.9 26.0499 20.02C26.0499 20.12 26.0599 20.23 26.0799 20.35C26.0799 20.41 26.0699 20.47 26.0499 20.53C26.0499 20.59 26.0399 20.65 26.0199 20.71C25.9799 20.79 25.9299 20.88 25.8699 20.98C25.8299 21.08 25.7699 21.17 25.6899 21.25C25.6499 21.29 25.6099 21.33 25.5699 21.37C25.5499 21.41 25.5199 21.45 25.4799 21.49C25.3999 21.57 25.3099 21.64 25.2099 21.7C25.1099 21.76 24.9999 21.79 24.8799 21.79C24.7999 21.79 24.7399 21.8 24.6999 21.82C24.6199 21.86 24.5399 21.88 24.4599 21.88C24.3799 21.88 24.2899 21.88 24.1899 21.88C24.0499 21.9 23.9099 21.92 23.7699 21.94C23.6499 21.94 23.5199 21.93 23.3799 21.91C23.2999 21.89 23.2299 21.89 23.1699 21.91C22.9699 21.97 22.7699 21.98 22.5699 21.94C22.3699 21.94 22.1699 21.95 21.9699 21.97C21.7899 21.97 21.6099 21.97 21.4299 21.97H21.0399C20.9799 21.97 20.9299 21.98 20.8899 22C20.8099 22.04 20.7099 22.06 20.5899 22.06C20.4899 22.06 20.3899 22.05 20.2899 22.03H19.9899C19.9699 22.03 19.9399 22.03 19.8999 22.03C19.8599 22.05 19.8199 22.05 19.7799 22.03C19.7199 22.01 19.6599 22 19.5999 22C19.5599 22.02 19.5099 22.04 19.4499 22.06C19.4099 22.06 19.3699 22.06 19.3299 22.06C19.3099 22.08 19.2799 22.09 19.2399 22.09C19.0399 22.07 18.8499 22.07 18.6699 22.09C18.4899 22.13 18.2999 22.17 18.0999 22.21ZM43.3559 23.53C43.2759 23.55 43.2159 23.53 43.1759 23.47C43.0959 23.41 43.0159 23.35 42.9359 23.29C42.8759 23.23 42.7959 23.17 42.6959 23.11C42.5359 23.03 42.4059 22.89 42.3059 22.69C42.1259 22.41 42.0359 22.11 42.0359 21.79C42.0359 21.69 42.0259 21.59 42.0059 21.49C42.0059 21.39 41.9959 21.29 41.9759 21.19C41.9759 21.09 41.9659 21 41.9459 20.92C41.9459 20.82 41.9459 20.73 41.9459 20.65C41.9459 20.55 41.9459 20.45 41.9459 20.35C41.9459 20.23 41.9359 20.12 41.9159 20.02C41.9159 20 41.9059 19.99 41.8859 19.99C41.8859 19.97 41.8859 19.96 41.8859 19.96C41.8459 19.96 41.8159 19.97 41.7959 19.99L41.4359 20.44C41.3559 20.56 41.2559 20.67 41.1359 20.77C41.0359 20.85 40.9359 20.94 40.8359 21.04C40.5159 21.28 40.1959 21.48 39.8759 21.64C39.7359 21.7 39.6059 21.75 39.4859 21.79C38.8059 22.03 38.1359 22.14 37.4759 22.12C37.2559 22.1 37.0259 22.08 36.7859 22.06C36.5659 22.06 36.3359 22.03 36.0959 21.97C35.9159 21.91 35.7359 21.85 35.5559 21.79C35.3959 21.71 35.2359 21.61 35.0759 21.49C34.9359 21.37 34.7959 21.25 34.6559 21.13C34.5159 20.99 34.3859 20.84 34.2659 20.68C34.0659 20.36 33.9359 20.16 33.8759 20.08C33.8159 20 33.7259 19.8 33.6059 19.48L33.4559 19.21C33.3959 19.05 33.3259 18.9 33.2459 18.76C33.1859 18.6 33.1359 18.44 33.0959 18.28L32.9459 17.86C32.9059 17.72 32.8659 17.59 32.8259 17.47C32.7859 17.33 32.7459 17.19 32.7059 17.05C32.6259 16.79 32.5559 16.53 32.4959 16.27C32.4359 15.99 32.3759 15.72 32.3159 15.46L32.2259 14.92C32.2259 14.88 32.2159 14.84 32.1959 14.8C32.1959 14.74 32.1959 14.68 32.1959 14.62L32.0159 13.75C31.9959 13.65 31.9859 13.56 31.9859 13.48C31.9859 13.38 31.9859 13.29 31.9859 13.21C31.9659 13.05 31.9559 12.89 31.9559 12.73C31.9759 12.57 31.9859 12.41 31.9859 12.25C32.0059 12.03 32.0359 11.82 32.0759 11.62C32.1159 11.4 32.1559 11.19 32.1959 10.99C32.2759 10.71 32.3559 10.43 32.4359 10.15C32.5359 9.85 32.6459 9.57 32.7659 9.31C32.8659 9.09 32.9659 8.88 33.0659 8.68C33.1659 8.46 33.2859 8.25 33.4259 8.05C33.6059 7.75 33.7959 7.46 33.9959 7.18C34.2159 6.9 34.4359 6.63 34.6559 6.37C34.8159 6.19 34.9759 6.02 35.1359 5.86C35.2959 5.68 35.4559 5.5 35.6159 5.32C35.8959 5.04 36.1959 4.8 36.5159 4.6C36.6759 4.5 36.8359 4.44 36.9959 4.42C37.0559 4.4 37.1059 4.39 37.1459 4.39C37.2059 4.39 37.2559 4.38 37.2959 4.36C37.5159 4.32 37.7159 4.33 37.8959 4.39C37.9559 4.41 38.0159 4.43 38.0759 4.45C38.1559 4.47 38.2259 4.49 38.2859 4.51C38.5459 4.61 38.7759 4.67 38.9759 4.69C39.0959 4.69 39.2359 4.73 39.3959 4.81C39.4959 4.83 39.5959 4.86 39.6959 4.9C39.7959 4.92 39.8959 4.94 39.9959 4.96C40.1159 4.96 40.2159 4.99 40.2959 5.05C40.3159 5.05 40.3359 5.06 40.3559 5.08C40.3959 5.08 40.4259 5.08 40.4459 5.08C40.6059 5.1 40.7459 5.14 40.8659 5.2C40.9859 5.24 41.1059 5.3 41.2259 5.38C41.5059 5.56 41.7959 5.76 42.0959 5.98C42.2759 6.12 42.3659 6.31 42.3659 6.55V6.7C42.4259 6.94 42.3659 7.18 42.1859 7.42C42.0859 7.6 42.0059 7.72 41.9459 7.78C41.9059 7.82 41.7859 7.89 41.5859 7.99C41.5259 8.01 41.4559 8.04 41.3759 8.08C41.3159 8.1 41.2359 8.11 41.1359 8.11C41.0959 8.11 41.0459 8.12 40.9859 8.14C40.9459 8.14 40.9059 8.14 40.8659 8.14C40.8059 8.16 40.7459 8.16 40.6859 8.14C40.6259 8.12 40.5659 8.11 40.5059 8.11C40.4859 8.13 40.4559 8.12 40.4159 8.08L39.9659 7.72C39.6459 7.44 39.2759 7.28 38.8559 7.24C38.7759 7.22 38.6959 7.21 38.6159 7.21C38.5359 7.21 38.4459 7.2 38.3459 7.18C38.0859 7.18 37.8759 7.25 37.7159 7.39L37.5059 7.6C37.3259 7.8 37.1359 8 36.9359 8.2C36.7559 8.4 36.5759 8.6 36.3959 8.8C36.2559 8.94 36.1359 9.1 36.0359 9.28C35.9359 9.46 35.8359 9.64 35.7359 9.82C35.4159 10.44 35.1759 11.1 35.0159 11.8C34.9959 11.92 34.9759 12.04 34.9559 12.16C34.9359 12.26 34.9159 12.36 34.8959 12.46C34.8959 12.56 34.8959 12.66 34.8959 12.76C34.8959 12.86 34.9059 12.96 34.9259 13.06C34.9459 13.14 34.9559 13.22 34.9559 13.3C34.9559 13.36 34.9659 13.43 34.9859 13.51L35.0759 14.23C35.0959 14.35 35.1159 14.48 35.1359 14.62C35.1759 14.74 35.2059 14.86 35.2259 14.98C35.4259 15.76 35.6659 16.55 35.9459 17.35C36.0459 17.65 36.1659 17.91 36.3059 18.13L36.4859 18.4C36.5459 18.48 36.6059 18.56 36.6659 18.64C36.7259 18.7 36.7859 18.76 36.8459 18.82C36.9659 18.9 37.0659 18.95 37.1459 18.97C37.4459 19.03 37.7559 19.06 38.0759 19.06C38.4759 19.02 38.8159 18.89 39.0959 18.67C39.2359 18.57 39.3559 18.46 39.4559 18.34C39.5759 18.22 39.6859 18.09 39.7859 17.95C40.0259 17.67 40.2359 17.37 40.4159 17.05C40.4759 16.93 40.4659 16.81 40.3859 16.69C40.2659 16.49 40.1159 16.33 39.9359 16.21C39.7159 16.05 39.4859 15.92 39.2459 15.82C39.0259 15.7 38.7759 15.63 38.4959 15.61L38.3459 15.55C38.1859 15.49 38.0159 15.49 37.8359 15.55C37.6959 15.61 37.5459 15.64 37.3859 15.64C37.2459 15.62 37.0959 15.6 36.9359 15.58C36.5759 15.48 36.2659 15.32 36.0059 15.1C35.9259 15 35.8559 14.9 35.7959 14.8C35.7559 14.7 35.7059 14.61 35.6459 14.53C35.6459 14.49 35.6359 14.45 35.6159 14.41C35.6159 14.37 35.6259 14.34 35.6459 14.32C35.6459 14.22 35.6459 14.12 35.6459 14.02C35.6659 13.92 35.6859 13.82 35.7059 13.72C35.7059 13.7 35.7259 13.63 35.7659 13.51C35.8059 13.41 35.8559 13.32 35.9159 13.24C35.9959 13.14 36.0759 13.05 36.1559 12.97C36.4759 12.67 36.8259 12.48 37.2059 12.4C37.4259 12.34 37.6459 12.3 37.8659 12.28C38.0859 12.24 38.2959 12.21 38.4959 12.19H41.0159C41.1759 12.19 41.3459 12.19 41.5259 12.19C41.7059 12.19 41.8859 12.18 42.0659 12.16C42.2259 12.14 42.3759 12.13 42.5159 12.13C42.6759 12.13 42.8359 12.13 42.9959 12.13C43.1759 12.13 43.3359 12.16 43.4759 12.22C43.6959 12.28 43.8659 12.41 43.9859 12.61C44.0459 12.69 44.1059 12.78 44.1659 12.88C44.2259 12.98 44.2659 13.08 44.2859 13.18C44.3059 13.2 44.3159 13.23 44.3159 13.27C44.3159 13.29 44.3259 13.32 44.3459 13.36L44.5559 14.47C44.5959 14.63 44.6259 14.8 44.6459 14.98C44.6659 15.16 44.6859 15.34 44.7059 15.52C44.7059 15.62 44.7059 15.73 44.7059 15.85C44.7259 15.95 44.7359 16.05 44.7359 16.15C44.7359 16.23 44.7359 16.32 44.7359 16.42C44.7559 16.52 44.7659 16.62 44.7659 16.72V18.1C44.7659 18.24 44.7659 18.4 44.7659 18.58C44.7859 18.74 44.8059 18.9 44.8259 19.06C44.8459 19.14 44.8559 19.22 44.8559 19.3C44.8559 19.38 44.8559 19.47 44.8559 19.57C44.8359 19.77 44.8459 19.98 44.8859 20.2C44.9259 20.4 44.9559 20.61 44.9759 20.83C44.9959 20.93 45.0159 21.04 45.0359 21.16C45.0759 21.26 45.1059 21.37 45.1259 21.49C45.1459 21.57 45.1559 21.66 45.1559 21.76C45.1759 21.84 45.1859 21.93 45.1859 22.03C45.1859 22.11 45.1759 22.19 45.1559 22.27C45.1559 22.37 45.1259 22.46 45.0659 22.54C45.0259 22.58 44.9859 22.64 44.9459 22.72C44.8659 22.94 44.6959 23.12 44.4359 23.26C44.2359 23.34 44.0259 23.4 43.8059 23.44C43.6259 23.44 43.4759 23.47 43.3559 23.53ZM53.1833 22.3C53.1633 22.28 53.1333 22.27 53.0933 22.27C52.8933 22.15 52.6933 22.04 52.4933 21.94C52.3133 21.82 52.1433 21.69 51.9833 21.55C51.9033 21.51 51.8533 21.47 51.8333 21.43C51.6533 21.33 51.4933 21.21 51.3533 21.07C51.2133 20.91 51.0833 20.74 50.9633 20.56C50.9233 20.52 50.8833 20.47 50.8433 20.41C50.8033 20.35 50.7533 20.29 50.6933 20.23C50.4933 20.03 50.3333 19.79 50.2133 19.51C50.1933 19.45 50.1633 19.39 50.1233 19.33C50.0833 19.27 50.0433 19.21 50.0033 19.15C49.8833 18.99 49.7933 18.84 49.7333 18.7C49.6933 18.54 49.6333 18.39 49.5533 18.25C49.4733 18.09 49.3933 17.94 49.3133 17.8C49.2933 17.72 49.2633 17.64 49.2233 17.56C49.1833 17.48 49.1533 17.4 49.1333 17.32C49.1333 17.22 49.1033 17.11 49.0433 16.99C48.9633 16.77 48.8833 16.55 48.8033 16.33C48.7433 16.09 48.6833 15.85 48.6233 15.61C48.5833 15.53 48.5633 15.47 48.5633 15.43C48.4433 15.17 48.3533 14.9 48.2933 14.62C48.2333 14.34 48.1733 14.07 48.1133 13.81L47.9333 12.46C47.9133 12.42 47.9033 12.37 47.9033 12.31C47.9033 12.25 47.9033 12.2 47.9033 12.16C47.9033 12.04 47.9033 11.93 47.9033 11.83C47.9033 11.71 47.8833 11.59 47.8433 11.47C47.8033 11.21 47.8133 10.97 47.8733 10.75C47.8733 10.67 47.8733 10.6 47.8733 10.54C47.8933 10.46 47.9033 10.38 47.9033 10.3C47.9033 10.2 47.9033 10.1 47.9033 10C47.9233 9.88 47.9433 9.78 47.9633 9.7C47.9833 9.64 47.9933 9.56 47.9933 9.46C48.0333 9.28 48.0533 9.11 48.0533 8.95C48.0733 8.77 48.0933 8.6 48.1133 8.44C48.1733 8.16 48.2033 7.89 48.2033 7.63C48.2033 7.55 48.2033 7.48 48.2033 7.42C48.2233 7.34 48.2433 7.26 48.2633 7.18C48.2633 7 48.2533 6.87 48.2333 6.79C48.1733 6.71 48.1633 6.6 48.2033 6.46C48.2433 6.38 48.2633 6.32 48.2633 6.28C48.2833 6.24 48.2933 6.2 48.2933 6.16C48.2933 6.1 48.3233 6.06 48.3833 6.04H48.5933C48.6733 6.04 48.7233 6.01 48.7433 5.95C48.7633 5.87 48.8333 5.81 48.9533 5.77C49.0533 5.73 49.1433 5.7 49.2233 5.68C49.3033 5.64 49.3833 5.59 49.4633 5.53C49.5233 5.49 49.5933 5.47 49.6733 5.47C49.7533 5.47 49.8333 5.48 49.9133 5.5L50.4533 5.68C50.4733 5.7 50.4833 5.71 50.4833 5.71C50.5033 5.71 50.5233 5.72 50.5433 5.74C50.7033 5.9 50.8333 6.08 50.9333 6.28C51.0533 6.48 51.1233 6.7 51.1433 6.94C51.1433 7.02 51.1433 7.1 51.1433 7.18C51.1433 7.24 51.1233 7.31 51.0833 7.39C51.0633 7.51 51.0433 7.63 51.0233 7.75C51.0033 7.87 50.9833 8 50.9633 8.14C50.9233 8.34 50.8933 8.54 50.8733 8.74C50.8733 8.92 50.8733 9.11 50.8733 9.31C50.8533 9.39 50.8433 9.47 50.8433 9.55C50.8433 9.61 50.8333 9.68 50.8133 9.76C50.7933 10 50.7833 10.24 50.7833 10.48C50.7833 10.72 50.8033 10.95 50.8433 11.17C50.8433 11.19 50.8433 11.22 50.8433 11.26C50.8633 11.3 50.8633 11.34 50.8433 11.38C50.8433 11.58 50.8633 11.79 50.9033 12.01C50.9433 12.23 50.9733 12.45 50.9933 12.67C51.0133 12.87 51.0333 13.06 51.0533 13.24C51.0733 13.42 51.1033 13.6 51.1433 13.78C51.1833 13.86 51.2033 13.94 51.2033 14.02C51.2233 14.1 51.2433 14.18 51.2633 14.26C51.3433 14.64 51.4333 15.01 51.5333 15.37C51.6333 15.73 51.7633 16.09 51.9233 16.45C52.0233 16.67 52.1233 16.86 52.2233 17.02C52.3833 17.3 52.5233 17.58 52.6433 17.86C52.7233 18 52.8033 18.14 52.8833 18.28C52.9633 18.4 53.0433 18.53 53.1233 18.67C53.2033 18.77 53.2833 18.86 53.3633 18.94C53.4433 19.02 53.5233 19.11 53.6033 19.21C53.7033 19.31 53.8333 19.34 53.9933 19.3C54.0933 19.26 54.1633 19.22 54.2033 19.18C54.3033 19.12 54.3933 19.06 54.4733 19C54.5733 18.94 54.6633 18.87 54.7433 18.79C54.9633 18.57 55.1633 18.35 55.3433 18.13C55.5433 17.91 55.7133 17.67 55.8533 17.41C55.9733 17.19 56.0933 16.96 56.2133 16.72C56.3333 16.48 56.4433 16.24 56.5433 16C56.6633 15.72 56.7733 15.44 56.8733 15.16C56.9933 14.88 57.1033 14.59 57.2033 14.29C57.2833 14.09 57.3433 13.89 57.3833 13.69C57.4433 13.47 57.4833 13.26 57.5033 13.06C57.5433 12.84 57.5733 12.62 57.5933 12.4C57.6333 12.16 57.6433 11.93 57.6233 11.71C57.6233 11.65 57.6233 11.59 57.6233 11.53C57.6433 11.47 57.6533 11.41 57.6533 11.35C57.6933 11.21 57.7033 11.08 57.6833 10.96C57.6833 10.84 57.6733 10.72 57.6533 10.6C57.6333 10.26 57.6033 9.94 57.5633 9.64C57.5433 9.32 57.5233 9 57.5033 8.68C57.5033 8.52 57.4933 8.41 57.4733 8.35C57.4533 8.17 57.4333 7.99 57.4133 7.81C57.4133 7.63 57.3933 7.45 57.3533 7.27V7.03C57.3533 6.83 57.3433 6.64 57.3233 6.46C57.3233 6.26 57.3233 6.06 57.3233 5.86C57.3233 5.7 57.3133 5.56 57.2933 5.44C57.2933 5.3 57.2933 5.16 57.2933 5.02C57.2933 4.84 57.3233 4.69 57.3833 4.57C57.4433 4.47 57.4633 4.39 57.4433 4.33C57.3833 4.21 57.4133 4.12 57.5333 4.06C57.6333 3.96 57.7333 3.88 57.8333 3.82C57.9533 3.76 58.0833 3.72 58.2233 3.7C58.2633 3.68 58.2933 3.67 58.3133 3.67C58.3533 3.67 58.3833 3.66 58.4033 3.64C58.5233 3.54 58.6833 3.51 58.8833 3.55C58.9233 3.57 58.9833 3.58 59.0633 3.58C59.2433 3.62 59.3733 3.69 59.4533 3.79C59.5133 3.85 59.6033 3.92 59.7233 4C59.8833 4.08 59.9933 4.18 60.0533 4.3C60.1133 4.42 60.1533 4.55 60.1733 4.69C60.2133 4.89 60.2433 5.08 60.2633 5.26C60.3033 5.44 60.3133 5.63 60.2933 5.83V6.1C60.2933 6.3 60.2933 6.5 60.2933 6.7C60.3133 6.88 60.3333 7.07 60.3533 7.27C60.3733 7.33 60.3833 7.4 60.3833 7.48C60.3833 7.54 60.3833 7.6 60.3833 7.66C60.3833 7.78 60.3833 7.9 60.3833 8.02C60.4033 8.12 60.4233 8.23 60.4433 8.35C60.4633 8.39 60.4733 8.45 60.4733 8.53C60.4533 8.73 60.4533 8.93 60.4733 9.13C60.5133 9.31 60.5433 9.5 60.5633 9.7C60.5833 9.9 60.5933 10.11 60.5933 10.33C60.6133 10.55 60.6233 10.77 60.6233 10.99C60.6433 11.01 60.6433 11.04 60.6233 11.08C60.6233 11.12 60.6233 11.16 60.6233 11.2C60.5633 11.38 60.5533 11.59 60.5933 11.83C60.6333 12.09 60.6233 12.34 60.5633 12.58C60.5433 12.76 60.5233 12.94 60.5033 13.12C60.4833 13.3 60.4533 13.49 60.4133 13.69C60.3733 14.01 60.3033 14.33 60.2033 14.65C60.1033 14.97 60.0033 15.29 59.9033 15.61C59.9033 15.65 59.8733 15.72 59.8133 15.82C59.7333 15.96 59.6633 16.11 59.6033 16.27C59.5433 16.41 59.4933 16.56 59.4533 16.72L59.3633 16.93C59.2633 17.13 59.1733 17.33 59.0933 17.53C59.0333 17.71 58.9533 17.9 58.8533 18.1C58.7933 18.22 58.7333 18.34 58.6733 18.46C58.6133 18.58 58.5433 18.69 58.4633 18.79C58.4433 18.83 58.4133 18.87 58.3733 18.91C58.3333 19.05 58.2733 19.18 58.1933 19.3C58.1133 19.42 58.0333 19.54 57.9533 19.66C57.7333 20 57.4733 20.32 57.1733 20.62C56.8933 20.92 56.5833 21.2 56.2433 21.46L55.8833 21.67C55.6033 21.81 55.3033 21.93 54.9833 22.03C54.6833 22.13 54.3733 22.2 54.0533 22.24C53.9533 22.26 53.8433 22.26 53.7233 22.24C53.6633 22.24 53.6033 22.24 53.5433 22.24C53.4833 22.24 53.4233 22.26 53.3633 22.3H53.1833ZM66.563 22.6C66.183 22.64 65.873 22.52 65.633 22.24C65.513 22.12 65.403 21.99 65.303 21.85C65.203 21.71 65.123 21.56 65.063 21.4C64.963 21.12 64.873 20.84 64.793 20.56C64.713 20.26 64.643 19.97 64.583 19.69C64.523 19.47 64.493 19.26 64.493 19.06C64.473 18.84 64.443 18.63 64.403 18.43C64.383 18.21 64.373 17.99 64.373 17.77C64.373 17.65 64.373 17.53 64.373 17.41C64.373 17.27 64.363 17.14 64.343 17.02C64.323 16.94 64.313 16.87 64.313 16.81C64.313 16.75 64.313 16.68 64.313 16.6C64.313 16.32 64.313 16.04 64.313 15.76C64.313 15.46 64.303 15.17 64.283 14.89C64.283 14.73 64.273 14.59 64.253 14.47C64.233 14.33 64.193 14.19 64.133 14.05C64.053 13.83 64.043 13.59 64.103 13.33C64.103 13.27 64.113 13.23 64.133 13.21C64.173 13.07 64.193 12.93 64.193 12.79C64.213 12.65 64.213 12.51 64.193 12.37C64.173 12.27 64.163 12.17 64.163 12.07C64.163 11.97 64.163 11.88 64.163 11.8C64.143 11.58 64.133 11.36 64.133 11.14C64.153 10.9 64.173 10.67 64.193 10.45C64.213 10.39 64.223 10.33 64.223 10.27C64.223 10.21 64.223 10.15 64.223 10.09C64.203 9.87 64.203 9.66 64.223 9.46C64.263 9.26 64.293 9.06 64.313 8.86C64.353 8.62 64.393 8.39 64.433 8.17C64.473 7.93 64.523 7.69 64.583 7.45C64.623 7.35 64.643 7.24 64.643 7.12C64.643 7 64.643 6.88 64.643 6.76C64.643 6.66 64.633 6.56 64.613 6.46C64.613 6.36 64.613 6.27 64.613 6.19C64.613 6.13 64.613 6.07 64.613 6.01C64.613 5.95 64.623 5.89 64.643 5.83C64.663 5.77 64.673 5.71 64.673 5.65C64.673 5.59 64.683 5.55 64.703 5.53C64.763 5.45 64.813 5.38 64.853 5.32C64.893 5.24 64.953 5.17 65.033 5.11C65.133 5.05 65.223 4.99 65.303 4.93C65.403 4.87 65.493 4.82 65.573 4.78C65.673 4.74 65.753 4.69 65.813 4.63C65.893 4.53 65.973 4.44 66.053 4.36C66.153 4.26 66.233 4.15 66.293 4.03C66.393 3.93 66.493 3.82 66.593 3.7C66.713 3.56 66.843 3.45 66.983 3.37C67.023 3.35 67.083 3.3 67.163 3.22C67.403 3 67.683 2.86 68.003 2.8C68.063 2.78 68.113 2.77 68.153 2.77C68.213 2.75 68.273 2.74 68.333 2.74L68.543 2.65C68.703 2.59 68.843 2.62 68.963 2.74C69.003 2.8 69.053 2.86 69.113 2.92C69.193 2.96 69.263 3 69.323 3.04C69.483 3.18 69.633 3.33 69.773 3.49C69.933 3.65 70.073 3.83 70.193 4.03C70.393 4.35 70.563 4.67 70.703 4.99C70.863 5.31 71.013 5.64 71.153 5.98L71.693 7.27C71.713 7.39 71.763 7.5 71.843 7.6C72.003 7.9 72.123 8.21 72.203 8.53C72.283 8.83 72.363 9.14 72.443 9.46C72.463 9.5 72.473 9.54 72.473 9.58C72.493 9.62 72.503 9.66 72.503 9.7C72.543 9.86 72.573 10.03 72.593 10.21C72.633 10.37 72.643 10.53 72.623 10.69C72.643 10.87 72.633 11.05 72.593 11.23C72.573 11.39 72.543 11.55 72.503 11.71C72.443 11.91 72.373 12.1 72.293 12.28C72.213 12.44 72.123 12.61 72.023 12.79C71.983 12.91 71.913 13.02 71.813 13.12C71.713 13.22 71.613 13.31 71.513 13.39C71.353 13.47 71.193 13.59 71.033 13.75C70.993 13.79 70.943 13.82 70.883 13.84C70.843 13.86 70.803 13.89 70.763 13.93C70.623 13.99 70.473 14.06 70.313 14.14C70.153 14.2 69.993 14.26 69.833 14.32C69.813 14.32 69.803 14.34 69.803 14.38C69.803 14.4 69.813 14.42 69.833 14.44L70.643 15.01C70.743 15.07 70.833 15.13 70.913 15.19C70.993 15.23 71.073 15.28 71.153 15.34L71.333 15.43C71.573 15.57 71.813 15.72 72.053 15.88C72.293 16.04 72.523 16.2 72.743 16.36C73.163 16.62 73.583 16.89 74.003 17.17C74.423 17.43 74.823 17.72 75.203 18.04C75.543 18.3 75.843 18.6 76.103 18.94C76.163 19 76.223 19.07 76.283 19.15C76.343 19.21 76.413 19.26 76.493 19.3L76.583 19.39C76.903 19.67 77.083 20.05 77.123 20.53C77.123 20.59 77.113 20.65 77.093 20.71C77.093 20.77 77.093 20.83 77.093 20.89C77.093 21.01 77.053 21.11 76.973 21.19C76.893 21.23 76.853 21.28 76.853 21.34C76.793 21.48 76.703 21.58 76.583 21.64C76.483 21.68 76.383 21.74 76.283 21.82C76.243 21.84 76.173 21.85 76.073 21.85C75.953 21.83 75.823 21.81 75.683 21.79C75.563 21.77 75.443 21.76 75.323 21.76C75.163 21.76 74.993 21.69 74.813 21.55C74.693 21.45 74.583 21.36 74.483 21.28C74.383 21.18 74.283 21.06 74.183 20.92C73.923 20.56 73.583 20.23 73.163 19.93C72.963 19.77 72.773 19.62 72.593 19.48C72.413 19.34 72.213 19.21 71.993 19.09C71.853 19.01 71.713 18.93 71.573 18.85C71.453 18.75 71.313 18.66 71.153 18.58C70.653 18.24 70.143 17.91 69.623 17.59C69.103 17.25 68.583 16.91 68.063 16.57C67.983 16.51 67.893 16.45 67.793 16.39C67.693 16.33 67.593 16.27 67.493 16.21C67.453 16.17 67.393 16.13 67.313 16.09C67.233 16.09 67.193 16.12 67.193 16.18C67.193 16.2 67.183 16.22 67.163 16.24C67.163 16.24 67.163 16.25 67.163 16.27C67.163 16.33 67.163 16.39 67.163 16.45C67.163 16.51 67.173 16.57 67.193 16.63C67.213 16.79 67.223 16.95 67.223 17.11C67.223 17.25 67.223 17.4 67.223 17.56C67.223 17.68 67.223 17.8 67.223 17.92C67.243 18.02 67.263 18.13 67.283 18.25C67.283 18.31 67.283 18.38 67.283 18.46C67.303 18.52 67.313 18.58 67.313 18.64C67.293 18.82 67.303 19 67.343 19.18C67.383 19.36 67.413 19.54 67.433 19.72L67.613 20.5C67.633 20.58 67.653 20.67 67.673 20.77C67.693 20.85 67.713 20.94 67.733 21.04C67.753 21.12 67.753 21.2 67.733 21.28C67.733 21.34 67.723 21.41 67.703 21.49C67.703 21.51 67.683 21.54 67.643 21.58C67.543 21.6 67.473 21.67 67.433 21.79C67.373 21.93 67.283 22.05 67.163 22.15C67.063 22.27 66.953 22.38 66.833 22.48C66.813 22.5 66.773 22.52 66.713 22.54C66.653 22.56 66.603 22.58 66.563 22.6ZM67.733 12.1H67.793C68.013 12.06 68.233 12.02 68.453 11.98C68.693 11.92 68.923 11.85 69.143 11.77C69.363 11.71 69.553 11.6 69.713 11.44C69.853 11.3 69.923 11.14 69.923 10.96C69.943 10.82 69.943 10.69 69.923 10.57C69.923 10.43 69.903 10.29 69.863 10.15C69.783 9.79 69.693 9.44 69.593 9.1C69.493 8.74 69.373 8.4 69.233 8.08L68.963 7.36C68.903 7.16 68.833 6.97 68.753 6.79C68.673 6.59 68.583 6.4 68.483 6.22C68.463 6.18 68.443 6.14 68.423 6.1C68.403 6.04 68.383 5.99 68.363 5.95L68.243 5.83C68.183 5.75 68.113 5.75 68.033 5.83C68.013 5.83 67.983 5.85 67.943 5.89C67.803 6.07 67.673 6.26 67.553 6.46C67.453 6.66 67.393 6.88 67.373 7.12C67.353 7.2 67.333 7.28 67.313 7.36C67.313 7.44 67.313 7.53 67.313 7.63V8.92C67.293 9.2 67.283 9.49 67.283 9.79C67.303 10.09 67.293 10.38 67.253 10.66C67.233 10.72 67.223 10.78 67.223 10.84C67.243 10.9 67.253 10.96 67.253 11.02C67.273 11.14 67.283 11.26 67.283 11.38C67.283 11.48 67.283 11.59 67.283 11.71C67.283 11.91 67.303 12.03 67.343 12.07C67.403 12.11 67.533 12.12 67.733 12.1ZM92.0734 24.19C91.8934 24.19 91.7334 24.12 91.5934 23.98C91.5534 23.92 91.5134 23.86 91.4734 23.8C91.4334 23.74 91.3934 23.68 91.3534 23.62C91.1734 23.2 91.0834 22.76 91.0834 22.3L90.9934 21.58C90.9334 21.3 90.8834 21.02 90.8434 20.74C90.8034 20.46 90.7334 20.19 90.6334 19.93L90.4534 19.42C90.4534 19.38 90.4434 19.34 90.4234 19.3C90.4234 19.26 90.4134 19.22 90.3934 19.18L89.9434 17.59C89.9234 17.55 89.9034 17.5 89.8834 17.44C89.8834 17.38 89.8634 17.33 89.8234 17.29C89.7634 17.17 89.7134 17.05 89.6734 16.93C89.6534 16.79 89.6234 16.65 89.5834 16.51C89.5634 16.41 89.5434 16.32 89.5234 16.24C89.5034 16.14 89.4734 16.04 89.4334 15.94C89.3934 15.82 89.3534 15.75 89.3134 15.73C89.2734 15.69 89.1834 15.69 89.0434 15.73C88.9434 15.75 88.8334 15.77 88.7134 15.79C88.6134 15.79 88.5134 15.81 88.4134 15.85C88.3334 15.87 88.2334 15.89 88.1134 15.91C88.0134 15.91 87.9134 15.92 87.8134 15.94L87.3934 16.03C87.2934 16.05 87.1834 16.08 87.0634 16.12C86.9634 16.14 86.8634 16.15 86.7634 16.15L86.2234 16.24C86.0634 16.28 85.8934 16.32 85.7134 16.36C85.5334 16.4 85.3634 16.44 85.2034 16.48C84.7234 16.6 84.2434 16.69 83.7634 16.75C83.6034 16.79 83.5134 16.86 83.4934 16.96C83.4734 16.96 83.4634 16.97 83.4634 16.99C83.3434 17.31 83.2034 17.63 83.0434 17.95C82.9034 18.25 82.7534 18.56 82.5934 18.88C82.5534 18.96 82.5134 19.04 82.4734 19.12C82.4534 19.18 82.4234 19.25 82.3834 19.33C82.3634 19.37 82.3434 19.42 82.3234 19.48C82.3034 19.52 82.2834 19.56 82.2634 19.6C82.1434 19.74 82.0834 19.91 82.0834 20.11C82.0634 20.23 82.0234 20.35 81.9634 20.47C81.9034 20.57 81.8434 20.67 81.7834 20.77C81.7634 20.83 81.7234 20.86 81.6634 20.86C81.5834 20.88 81.5034 20.91 81.4234 20.95C81.3434 20.99 81.2534 21.03 81.1534 21.07C81.0934 21.09 81.0334 21.09 80.9734 21.07C80.9334 21.05 80.8834 21.03 80.8234 21.01C80.7834 20.97 80.7434 20.95 80.7034 20.95C80.4834 20.93 80.3234 20.8 80.2234 20.56C80.0634 20.24 79.9534 19.92 79.8934 19.6C79.8734 19.52 79.8734 19.45 79.8934 19.39C79.9334 19.33 79.9634 19.27 79.9834 19.21C80.1034 19.13 80.1734 19.04 80.1934 18.94V18.91C80.1934 18.65 80.2434 18.41 80.3434 18.19C80.4634 17.95 80.5634 17.72 80.6434 17.5C80.6834 17.38 80.7334 17.26 80.7934 17.14C80.8534 17.02 80.9134 16.9 80.9734 16.78C81.0534 16.64 81.1134 16.51 81.1534 16.39C81.2134 16.25 81.2634 16.11 81.3034 15.97C81.3634 15.81 81.3634 15.66 81.3034 15.52C81.2634 15.4 81.2434 15.29 81.2434 15.19C81.2434 15.07 81.2534 14.95 81.2734 14.83C81.2734 14.61 81.3534 14.42 81.5134 14.26C81.5934 14.16 81.6734 14.08 81.7534 14.02C81.8534 13.94 81.9434 13.86 82.0234 13.78C82.2034 13.6 82.3434 13.36 82.4434 13.06C82.5234 12.8 82.5834 12.54 82.6234 12.28C82.6834 12 82.7434 11.73 82.8034 11.47C82.8434 11.21 82.8834 10.96 82.9234 10.72C82.9834 10.46 83.0434 10.21 83.1034 9.97C83.1234 9.87 83.1434 9.78 83.1634 9.7C83.2034 9.6 83.2334 9.51 83.2534 9.43C83.3134 9.27 83.3734 9.12 83.4334 8.98C83.4934 8.82 83.5334 8.66 83.5534 8.5C83.5934 8.42 83.5934 8.35 83.5534 8.29C83.5334 8.19 83.5334 8.1 83.5534 8.02C83.5934 7.94 83.6234 7.86 83.6434 7.78C83.7034 7.64 83.7434 7.5 83.7634 7.36C83.8034 7.22 83.8534 7.08 83.9134 6.94C84.0134 6.68 84.0934 6.47 84.1534 6.31C84.2334 6.13 84.3034 5.93 84.3634 5.71C84.4034 5.59 84.4434 5.48 84.4834 5.38C84.5434 5.26 84.5834 5.14 84.6034 5.02C84.6634 4.84 84.7134 4.66 84.7534 4.48C84.7934 4.28 84.8134 4.09 84.8134 3.91C84.8534 3.75 84.8934 3.64 84.9334 3.58C85.0334 3.38 85.1534 3.21 85.2934 3.07C85.4534 2.93 85.6034 2.79 85.7434 2.65C85.8434 2.59 85.9434 2.55 86.0434 2.53C86.1434 2.49 86.2434 2.5 86.3434 2.56C86.4234 2.6 86.4734 2.62 86.4934 2.62C86.6734 2.6 86.8234 2.64 86.9434 2.74C87.0634 2.84 87.1634 2.96 87.2434 3.1C87.2834 3.14 87.3134 3.19 87.3334 3.25C87.3534 3.31 87.3734 3.36 87.3934 3.4C87.4934 3.56 87.5434 3.72 87.5434 3.88C87.5434 3.96 87.5534 4.05 87.5734 4.15C87.5934 4.23 87.6134 4.32 87.6334 4.42C87.6934 4.54 87.7834 4.6 87.9034 4.6C87.9234 4.58 87.9434 4.58 87.9634 4.6C87.9834 4.62 87.9934 4.64 87.9934 4.66C88.0934 4.78 88.1234 4.91 88.0834 5.05C88.0434 5.21 88.0334 5.37 88.0534 5.53C88.0934 5.67 88.1334 5.82 88.1734 5.98C88.2534 6.18 88.3334 6.38 88.4134 6.58C88.4934 6.78 88.5734 6.98 88.6534 7.18C88.7534 7.4 88.8534 7.62 88.9534 7.84C89.0534 8.06 89.1434 8.28 89.2234 8.5C89.3234 8.78 89.4234 9.06 89.5234 9.34C89.6434 9.62 89.7734 9.9 89.9134 10.18L90.0034 10.51C90.0234 10.59 90.0434 10.67 90.0634 10.75C90.1034 10.83 90.1334 10.91 90.1534 10.99C90.1934 11.05 90.2234 11.11 90.2434 11.17C90.2834 11.23 90.3234 11.28 90.3634 11.32C90.4634 11.46 90.5234 11.61 90.5434 11.77C90.6034 11.97 90.6934 12.15 90.8134 12.31C90.8534 12.37 90.9134 12.4 90.9934 12.4C91.2934 12.36 91.5934 12.33 91.8934 12.31C92.1934 12.27 92.4934 12.21 92.7934 12.13C93.0134 12.07 93.2234 12.04 93.4234 12.04C93.8034 12.04 94.1534 12.17 94.4734 12.43C94.8534 12.73 95.0534 13.11 95.0734 13.57C95.0734 13.67 95.0834 13.75 95.1034 13.81C95.1034 13.95 95.0634 14.06 94.9834 14.14C94.9634 14.2 94.9234 14.26 94.8634 14.32C94.8234 14.38 94.7834 14.44 94.7434 14.5C94.7034 14.58 94.6634 14.64 94.6234 14.68L94.4434 14.83C94.4234 14.87 94.3934 14.92 94.3534 14.98C94.3134 15.02 94.2634 15.05 94.2034 15.07C94.1234 15.09 94.0434 15.12 93.9634 15.16C93.8834 15.18 93.7934 15.19 93.6934 15.19C93.3334 15.23 93.0134 15.22 92.7334 15.16H92.2534C92.2134 15.16 92.1534 15.18 92.0734 15.22C91.9934 15.26 91.9534 15.31 91.9534 15.37V15.49C92.0134 15.67 92.0534 15.86 92.0734 16.06C92.1134 16.24 92.1734 16.41 92.2534 16.57C92.2534 16.65 92.2734 16.73 92.3134 16.81C92.4134 16.99 92.4934 17.18 92.5534 17.38C92.6134 17.56 92.6634 17.75 92.7034 17.95C92.7034 17.99 92.7234 18.07 92.7634 18.19C92.8234 18.33 92.8734 18.48 92.9134 18.64C92.9534 18.78 92.9834 18.93 93.0034 19.09C93.0034 19.21 93.0334 19.32 93.0934 19.42C93.1734 19.6 93.2334 19.78 93.2734 19.96C93.3134 20.14 93.3434 20.33 93.3634 20.53C93.3834 20.55 93.3934 20.59 93.3934 20.65C93.3934 20.69 93.4034 20.73 93.4234 20.77C93.5234 20.99 93.5934 21.23 93.6334 21.49C93.6734 21.73 93.7234 21.97 93.7834 22.21C93.8234 22.33 93.8434 22.45 93.8434 22.57C93.8634 22.71 93.8734 22.85 93.8734 22.99C93.8734 23.09 93.8434 23.2 93.7834 23.32C93.7234 23.38 93.6934 23.41 93.6934 23.41C93.5734 23.43 93.5034 23.5 93.4834 23.62L93.3934 23.8C93.3534 23.88 93.2934 23.93 93.2134 23.95C93.1334 23.95 93.0634 23.98 93.0034 24.04C92.9234 24.12 92.8134 24.16 92.6734 24.16C92.5934 24.16 92.4934 24.16 92.3734 24.16C92.2734 24.16 92.1734 24.17 92.0734 24.19ZM84.8434 13.3C84.9634 13.28 85.0834 13.26 85.2034 13.24C85.3434 13.22 85.4934 13.2 85.6534 13.18C85.7534 13.16 85.8834 13.14 86.0434 13.12C86.2034 13.1 86.3534 13.08 86.4934 13.06C86.6334 13.02 86.7734 13 86.9134 13C87.0534 12.98 87.1934 12.96 87.3334 12.94C87.4534 12.9 87.5734 12.88 87.6934 12.88C87.8134 12.86 87.9334 12.84 88.0534 12.82C88.2334 12.78 88.3034 12.68 88.2634 12.52C88.2434 12.36 88.2034 12.2 88.1434 12.04C88.1034 11.86 88.0134 11.71 87.8734 11.59C87.8334 11.55 87.8134 11.49 87.8134 11.41V11.32C87.7734 11.16 87.7234 11.01 87.6634 10.87C87.6234 10.71 87.5734 10.56 87.5134 10.42C87.4734 10.26 87.4234 10.12 87.3634 10C87.3234 9.86 87.2734 9.72 87.2134 9.58L86.8534 8.5C86.7934 8.36 86.7334 8.22 86.6734 8.08C86.6334 7.94 86.5934 7.8 86.5534 7.66L86.4634 7.54H86.3734L86.3134 7.63C86.2134 7.93 86.0934 8.23 85.9534 8.53C85.8334 8.83 85.7234 9.15 85.6234 9.49C85.6234 9.53 85.6134 9.58 85.5934 9.64C85.5734 9.7 85.5534 9.76 85.5334 9.82C85.4534 10.02 85.3734 10.24 85.2934 10.48C85.2334 10.72 85.1834 10.96 85.1434 11.2C85.1234 11.34 85.1034 11.48 85.0834 11.62C85.0634 11.74 85.0334 11.87 84.9934 12.01L84.7234 13.18C84.7034 13.2 84.7134 13.23 84.7534 13.27C84.7934 13.29 84.8234 13.3 84.8434 13.3ZM115.317 22.6C115.117 22.58 114.917 22.55 114.717 22.51C114.537 22.49 114.357 22.44 114.177 22.36L113.427 22.09C113.167 21.99 112.927 21.88 112.707 21.76C112.487 21.62 112.267 21.48 112.047 21.34C111.947 21.24 111.847 21.15 111.747 21.07C111.647 20.97 111.547 20.88 111.447 20.8C111.287 20.64 111.127 20.48 110.967 20.32C110.807 20.14 110.657 19.95 110.517 19.75L109.797 18.64C109.617 18.36 109.457 18.07 109.317 17.77C109.177 17.45 109.057 17.13 108.957 16.81C108.737 16.21 108.627 15.62 108.627 15.04V14.56C108.627 14.06 108.657 13.57 108.717 13.09C108.757 12.69 108.847 12.33 108.987 12.01C109.067 11.81 109.137 11.61 109.197 11.41C109.257 11.21 109.327 11.02 109.407 10.84L109.497 10.63C109.537 10.37 109.627 10.14 109.767 9.94C109.907 9.72 110.027 9.51 110.127 9.31C110.207 9.15 110.297 9.01 110.397 8.89C110.497 8.75 110.587 8.61 110.667 8.47C110.707 8.41 110.757 8.36 110.817 8.32C110.877 8.26 110.927 8.2 110.967 8.14C111.007 8.1 111.037 8.05 111.057 7.99C111.097 7.91 111.127 7.84 111.147 7.78C111.187 7.72 111.257 7.64 111.357 7.54C111.477 7.48 111.587 7.34 111.687 7.12C111.727 7.04 111.767 6.98 111.807 6.94C111.927 6.84 112.027 6.72 112.107 6.58C112.207 6.44 112.317 6.31 112.437 6.19C112.517 6.11 112.557 6 112.557 5.86C112.557 5.76 112.557 5.67 112.557 5.59C112.577 5.49 112.577 5.4 112.557 5.32C112.537 5.22 112.567 5.13 112.647 5.05C112.687 5.01 112.717 4.96 112.737 4.9C112.757 4.84 112.777 4.78 112.797 4.72C112.857 4.52 113.017 4.35 113.277 4.21C113.317 4.17 113.367 4.15 113.427 4.15C113.507 4.13 113.577 4.11 113.637 4.09C113.777 4.03 113.937 4.02 114.117 4.06C114.197 4.08 114.267 4.09 114.327 4.09C114.387 4.07 114.447 4.05 114.507 4.03C114.587 3.99 114.657 3.96 114.717 3.94C114.797 3.92 114.867 3.9 114.927 3.88C115.207 3.78 115.497 3.79 115.797 3.91C116.117 4.03 116.347 4.24 116.487 4.54C116.527 4.64 116.567 4.74 116.607 4.84C116.647 4.94 116.677 5.04 116.697 5.14C116.737 5.36 116.727 5.55 116.667 5.71C116.627 5.79 116.607 5.84 116.607 5.86C116.587 5.94 116.607 6.01 116.667 6.07C116.707 6.13 116.757 6.18 116.817 6.22C117.037 6.42 117.247 6.62 117.447 6.82C117.647 7 117.837 7.2 118.017 7.42C118.177 7.58 118.307 7.75 118.407 7.93C118.527 8.09 118.637 8.27 118.737 8.47C118.777 8.57 118.827 8.68 118.887 8.8C118.947 8.9 119.007 9 119.067 9.1C119.167 9.28 119.247 9.47 119.307 9.67C119.387 9.87 119.467 10.07 119.547 10.27V10.3C119.587 10.44 119.617 10.59 119.637 10.75C119.677 10.89 119.737 11.04 119.817 11.2C119.877 11.34 119.927 11.49 119.967 11.65C120.007 11.79 120.047 11.94 120.087 12.1C120.127 12.28 120.167 12.46 120.207 12.64C120.267 12.82 120.307 13 120.327 13.18C120.347 13.26 120.367 13.34 120.387 13.42C120.407 13.48 120.427 13.55 120.447 13.63C120.487 13.81 120.527 13.99 120.567 14.17C120.607 14.35 120.637 14.53 120.657 14.71L120.747 14.92C120.787 15.04 120.827 15.2 120.867 15.4C120.927 15.66 120.957 15.92 120.957 16.18C120.977 16.44 120.977 16.71 120.957 16.99C120.957 17.13 120.947 17.24 120.927 17.32C120.807 17.74 120.657 18.17 120.477 18.61C120.397 18.75 120.317 18.89 120.237 19.03C120.157 19.15 120.077 19.28 119.997 19.42L119.727 19.84C119.627 20.02 119.517 20.18 119.397 20.32C119.197 20.64 118.957 20.92 118.677 21.16C118.397 21.4 118.097 21.63 117.777 21.85C117.077 22.39 116.257 22.64 115.317 22.6ZM115.197 19.63C115.617 19.63 115.977 19.51 116.277 19.27C116.377 19.17 116.477 19.08 116.577 19C116.697 18.9 116.797 18.8 116.877 18.7C117.257 18.28 117.557 17.84 117.777 17.38L117.867 17.08C117.907 16.72 117.907 16.36 117.867 16L117.687 15.01C117.627 14.75 117.577 14.5 117.537 14.26C117.497 14 117.437 13.75 117.357 13.51C117.297 13.37 117.277 13.26 117.297 13.18C117.317 13.08 117.317 12.98 117.297 12.88C117.277 12.78 117.247 12.68 117.207 12.58C117.147 12.32 117.077 12.06 116.997 11.8C116.917 11.54 116.837 11.28 116.757 11.02C116.737 10.96 116.717 10.9 116.697 10.84C116.677 10.78 116.657 10.72 116.637 10.66C116.497 10.38 116.347 10.11 116.187 9.85C116.027 9.59 115.847 9.35 115.647 9.13C115.547 9.01 115.437 8.9 115.317 8.8C115.197 8.68 115.077 8.57 114.957 8.47C114.937 8.43 114.907 8.41 114.867 8.41C114.847 8.39 114.817 8.37 114.777 8.35C114.717 8.27 114.637 8.28 114.537 8.38C114.437 8.48 114.327 8.59 114.207 8.71C114.107 8.83 114.007 8.95 113.907 9.07C113.807 9.21 113.697 9.35 113.577 9.49C113.477 9.63 113.377 9.77 113.277 9.91C113.137 10.09 113.007 10.27 112.887 10.45C112.767 10.63 112.647 10.81 112.527 10.99C112.107 11.67 111.777 12.42 111.537 13.24C111.497 13.36 111.477 13.45 111.477 13.51C111.457 13.65 111.437 13.79 111.417 13.93C111.417 14.07 111.417 14.22 111.417 14.38V14.62C111.437 14.68 111.447 14.74 111.447 14.8C111.447 14.86 111.457 14.92 111.477 14.98C111.477 15.22 111.537 15.48 111.657 15.76C111.817 16.16 111.997 16.55 112.197 16.93C112.397 17.31 112.627 17.67 112.887 18.01C112.947 18.09 113.007 18.17 113.067 18.25C113.147 18.33 113.217 18.41 113.277 18.49C113.457 18.69 113.647 18.87 113.847 19.03C114.067 19.19 114.287 19.33 114.507 19.45C114.747 19.57 114.977 19.63 115.197 19.63ZM140.519 23.47L140.009 23.38C139.749 23.34 139.479 23.3 139.199 23.26C138.939 23.22 138.669 23.19 138.389 23.17C138.109 23.17 137.829 23.09 137.549 22.93C137.289 22.79 137.109 22.57 137.009 22.27C136.989 22.17 136.959 22.07 136.919 21.97C136.899 21.87 136.879 21.77 136.859 21.67C136.859 21.43 136.909 21.25 137.009 21.13C137.109 21.03 137.189 20.93 137.249 20.83C137.329 20.73 137.409 20.64 137.489 20.56C137.529 20.52 137.569 20.49 137.609 20.47C137.649 20.45 137.689 20.43 137.729 20.41C137.829 20.35 137.929 20.31 138.029 20.29C138.129 20.25 138.229 20.22 138.329 20.2C138.369 20.18 138.399 20.18 138.419 20.2C138.459 20.2 138.489 20.2 138.509 20.2C138.609 20.22 138.719 20.24 138.839 20.26C138.959 20.26 139.069 20.28 139.169 20.32L140.429 20.5C140.709 20.54 140.959 20.5 141.179 20.38C141.259 20.34 141.329 20.3 141.389 20.26C141.469 20.22 141.539 20.18 141.599 20.14C142.039 19.88 142.419 19.61 142.739 19.33C142.979 19.11 143.209 18.89 143.429 18.67C143.649 18.45 143.849 18.21 144.029 17.95C144.169 17.77 144.259 17.59 144.299 17.41C144.339 17.21 144.349 17.01 144.329 16.81L144.239 16.57C144.219 16.47 144.179 16.39 144.119 16.33C144.059 16.27 143.999 16.2 143.939 16.12C143.819 16.02 143.699 15.91 143.579 15.79C143.479 15.67 143.369 15.57 143.249 15.49C142.949 15.25 142.649 15.02 142.349 14.8C142.069 14.58 141.779 14.36 141.479 14.14C141.459 14.1 141.399 14.06 141.299 14.02C141.119 13.9 140.939 13.77 140.759 13.63C140.599 13.47 140.439 13.32 140.279 13.18C140.079 12.98 139.859 12.79 139.619 12.61C139.499 12.55 139.389 12.45 139.289 12.31C139.209 12.21 139.089 12.11 138.929 12.01C138.789 11.93 138.659 11.84 138.539 11.74C138.419 11.62 138.299 11.51 138.179 11.41L137.789 11.05C137.709 10.95 137.619 10.86 137.519 10.78C137.439 10.68 137.349 10.58 137.249 10.48C137.209 10.38 137.149 10.3 137.069 10.24C137.009 10.18 136.949 10.11 136.889 10.03C136.869 9.99 136.839 9.95 136.799 9.91C136.759 9.85 136.729 9.79 136.709 9.73C136.589 9.49 136.459 9.25 136.319 9.01C136.199 8.77 136.089 8.52 135.989 8.26C135.929 8.1 135.869 7.95 135.809 7.81C135.769 7.65 135.729 7.5 135.689 7.36C135.669 7.2 135.629 7.06 135.569 6.94C135.529 6.8 135.489 6.66 135.449 6.52C135.409 6.3 135.359 6.09 135.299 5.89C135.259 5.67 135.219 5.46 135.179 5.26L135.119 5.02C135.099 4.8 135.099 4.59 135.119 4.39C135.159 4.11 135.219 3.86 135.299 3.64C135.379 3.4 135.509 3.21 135.689 3.07C135.889 2.91 136.089 2.75 136.289 2.59C136.489 2.43 136.699 2.3 136.919 2.2C136.959 2.2 136.989 2.19 137.009 2.17C137.209 2.01 137.429 1.9 137.669 1.84C137.909 1.76 138.149 1.69 138.389 1.63C139.349 1.35 140.339 1.14 141.359 0.999999H141.659C141.859 0.999999 142.049 0.999999 142.229 0.999999C142.409 0.999999 142.599 0.989999 142.799 0.969999C143.039 0.969999 143.279 0.999999 143.519 1.06C143.759 1.1 143.989 1.17 144.209 1.27C144.369 1.35 144.529 1.44 144.689 1.54C144.849 1.62 144.999 1.71 145.139 1.81C145.299 1.93 145.399 2.06 145.439 2.2L145.529 2.41C145.629 2.59 145.679 2.78 145.679 2.98C145.699 3.16 145.689 3.35 145.649 3.55C145.649 3.61 145.639 3.68 145.619 3.76C145.619 3.82 145.619 3.88 145.619 3.94C145.559 4.38 145.349 4.72 144.989 4.96C144.769 5.16 144.479 5.24 144.119 5.2C144.039 5.16 143.999 5.18 143.999 5.26C143.999 5.34 143.949 5.38 143.849 5.38H143.669C143.549 5.38 143.429 5.32 143.309 5.2C143.209 5.1 143.159 5.02 143.159 4.96C143.159 4.88 143.199 4.82 143.279 4.78C143.239 4.68 143.199 4.59 143.159 4.51C143.119 4.43 143.079 4.37 143.039 4.33C142.979 4.23 142.889 4.16 142.769 4.12C142.669 4.1 142.569 4.08 142.469 4.06C142.369 4.04 142.269 4.02 142.169 4C142.089 4 141.999 4 141.899 4C141.799 3.98 141.699 3.96 141.599 3.94C141.539 3.92 141.449 3.93 141.329 3.97C141.269 3.99 141.209 4.01 141.149 4.03C141.089 4.03 141.019 4.02 140.939 4C140.879 4 140.809 4 140.729 4C140.669 4 140.599 4.02 140.519 4.06L139.949 4.15C139.629 4.21 139.319 4.33 139.019 4.51C138.959 4.53 138.899 4.55 138.839 4.57C138.779 4.59 138.719 4.59 138.659 4.57C138.539 4.55 138.439 4.58 138.359 4.66C138.339 4.7 138.289 4.73 138.209 4.75C138.149 4.75 138.099 4.77 138.059 4.81C137.979 4.89 137.939 4.97 137.939 5.05C137.959 5.09 137.969 5.15 137.969 5.23L138.599 7.06C138.719 7.38 138.869 7.68 139.049 7.96C139.249 8.22 139.459 8.48 139.679 8.74C140.019 9.14 140.369 9.48 140.729 9.76L141.689 10.57C141.889 10.75 142.099 10.92 142.319 11.08C142.539 11.24 142.749 11.4 142.949 11.56C143.249 11.78 143.549 12.01 143.849 12.25C144.149 12.47 144.449 12.7 144.749 12.94C144.989 13.14 145.219 13.34 145.439 13.54C145.679 13.72 145.899 13.92 146.099 14.14C146.239 14.3 146.379 14.46 146.519 14.62C146.659 14.78 146.779 14.96 146.879 15.16C147.019 15.38 147.139 15.64 147.239 15.94C147.359 16.32 147.409 16.68 147.389 17.02C147.369 17.06 147.359 17.12 147.359 17.2C147.359 17.44 147.329 17.67 147.269 17.89C147.229 18.09 147.159 18.3 147.059 18.52C146.959 18.72 146.849 18.93 146.729 19.15C146.629 19.35 146.509 19.55 146.369 19.75C146.169 20.01 145.959 20.26 145.739 20.5C145.539 20.72 145.309 20.94 145.049 21.16C144.909 21.28 144.769 21.41 144.629 21.55C144.489 21.67 144.339 21.78 144.179 21.88C144.079 21.96 143.979 22.03 143.879 22.09C143.779 22.17 143.679 22.25 143.579 22.33C143.499 22.37 143.419 22.42 143.339 22.48C143.259 22.54 143.179 22.6 143.099 22.66C143.019 22.74 142.919 22.8 142.799 22.84C142.699 22.9 142.599 22.95 142.499 22.99L141.629 23.35C141.449 23.41 141.269 23.45 141.089 23.47C140.909 23.49 140.719 23.49 140.519 23.47ZM156.684 22.6C156.484 22.58 156.284 22.55 156.084 22.51C155.904 22.49 155.724 22.44 155.544 22.36L154.794 22.09C154.534 21.99 154.294 21.88 154.074 21.76C153.854 21.62 153.634 21.48 153.414 21.34C153.314 21.24 153.214 21.15 153.114 21.07C153.014 20.97 152.914 20.88 152.814 20.8C152.654 20.64 152.494 20.48 152.334 20.32C152.174 20.14 152.024 19.95 151.884 19.75L151.164 18.64C150.984 18.36 150.824 18.07 150.684 17.77C150.544 17.45 150.424 17.13 150.324 16.81C150.104 16.21 149.994 15.62 149.994 15.04V14.56C149.994 14.06 150.024 13.57 150.084 13.09C150.124 12.69 150.214 12.33 150.354 12.01C150.434 11.81 150.504 11.61 150.564 11.41C150.624 11.21 150.694 11.02 150.774 10.84L150.864 10.63C150.904 10.37 150.994 10.14 151.134 9.94C151.274 9.72 151.394 9.51 151.494 9.31C151.574 9.15 151.664 9.01 151.764 8.89C151.864 8.75 151.954 8.61 152.034 8.47C152.074 8.41 152.124 8.36 152.184 8.32C152.244 8.26 152.294 8.2 152.334 8.14C152.374 8.1 152.404 8.05 152.424 7.99C152.464 7.91 152.494 7.84 152.514 7.78C152.554 7.72 152.624 7.64 152.724 7.54C152.844 7.48 152.954 7.34 153.054 7.12C153.094 7.04 153.134 6.98 153.174 6.94C153.294 6.84 153.394 6.72 153.474 6.58C153.574 6.44 153.684 6.31 153.804 6.19C153.884 6.11 153.924 6 153.924 5.86C153.924 5.76 153.924 5.67 153.924 5.59C153.944 5.49 153.944 5.4 153.924 5.32C153.904 5.22 153.934 5.13 154.014 5.05C154.054 5.01 154.084 4.96 154.104 4.9C154.124 4.84 154.144 4.78 154.164 4.72C154.224 4.52 154.384 4.35 154.644 4.21C154.684 4.17 154.734 4.15 154.794 4.15C154.874 4.13 154.944 4.11 155.004 4.09C155.144 4.03 155.304 4.02 155.484 4.06C155.564 4.08 155.634 4.09 155.694 4.09C155.754 4.07 155.814 4.05 155.874 4.03C155.954 3.99 156.024 3.96 156.084 3.94C156.164 3.92 156.234 3.9 156.294 3.88C156.574 3.78 156.864 3.79 157.164 3.91C157.484 4.03 157.714 4.24 157.854 4.54C157.894 4.64 157.934 4.74 157.974 4.84C158.014 4.94 158.044 5.04 158.064 5.14C158.104 5.36 158.094 5.55 158.034 5.71C157.994 5.79 157.974 5.84 157.974 5.86C157.954 5.94 157.974 6.01 158.034 6.07C158.074 6.13 158.124 6.18 158.184 6.22C158.404 6.42 158.614 6.62 158.814 6.82C159.014 7 159.204 7.2 159.384 7.42C159.544 7.58 159.674 7.75 159.774 7.93C159.894 8.09 160.004 8.27 160.104 8.47C160.144 8.57 160.194 8.68 160.254 8.8C160.314 8.9 160.374 9 160.434 9.1C160.534 9.28 160.614 9.47 160.674 9.67C160.754 9.87 160.834 10.07 160.914 10.27V10.3C160.954 10.44 160.984 10.59 161.004 10.75C161.044 10.89 161.104 11.04 161.184 11.2C161.244 11.34 161.294 11.49 161.334 11.65C161.374 11.79 161.414 11.94 161.454 12.1C161.494 12.28 161.534 12.46 161.574 12.64C161.634 12.82 161.674 13 161.694 13.18C161.714 13.26 161.734 13.34 161.754 13.42C161.774 13.48 161.794 13.55 161.814 13.63C161.854 13.81 161.894 13.99 161.934 14.17C161.974 14.35 162.004 14.53 162.024 14.71L162.114 14.92C162.154 15.04 162.194 15.2 162.234 15.4C162.294 15.66 162.324 15.92 162.324 16.18C162.344 16.44 162.344 16.71 162.324 16.99C162.324 17.13 162.314 17.24 162.294 17.32C162.174 17.74 162.024 18.17 161.844 18.61C161.764 18.75 161.684 18.89 161.604 19.03C161.524 19.15 161.444 19.28 161.364 19.42L161.094 19.84C160.994 20.02 160.884 20.18 160.764 20.32C160.564 20.64 160.324 20.92 160.044 21.16C159.764 21.4 159.464 21.63 159.144 21.85C158.444 22.39 157.624 22.64 156.684 22.6ZM156.564 19.63C156.984 19.63 157.344 19.51 157.644 19.27C157.744 19.17 157.844 19.08 157.944 19C158.064 18.9 158.164 18.8 158.244 18.7C158.624 18.28 158.924 17.84 159.144 17.38L159.234 17.08C159.274 16.72 159.274 16.36 159.234 16L159.054 15.01C158.994 14.75 158.944 14.5 158.904 14.26C158.864 14 158.804 13.75 158.724 13.51C158.664 13.37 158.644 13.26 158.664 13.18C158.684 13.08 158.684 12.98 158.664 12.88C158.644 12.78 158.614 12.68 158.574 12.58C158.514 12.32 158.444 12.06 158.364 11.8C158.284 11.54 158.204 11.28 158.124 11.02C158.104 10.96 158.084 10.9 158.064 10.84C158.044 10.78 158.024 10.72 158.004 10.66C157.864 10.38 157.714 10.11 157.554 9.85C157.394 9.59 157.214 9.35 157.014 9.13C156.914 9.01 156.804 8.9 156.684 8.8C156.564 8.68 156.444 8.57 156.324 8.47C156.304 8.43 156.274 8.41 156.234 8.41C156.214 8.39 156.184 8.37 156.144 8.35C156.084 8.27 156.004 8.28 155.904 8.38C155.804 8.48 155.694 8.59 155.574 8.71C155.474 8.83 155.374 8.95 155.274 9.07C155.174 9.21 155.064 9.35 154.944 9.49C154.844 9.63 154.744 9.77 154.644 9.91C154.504 10.09 154.374 10.27 154.254 10.45C154.134 10.63 154.014 10.81 153.894 10.99C153.474 11.67 153.144 12.42 152.904 13.24C152.864 13.36 152.844 13.45 152.844 13.51C152.824 13.65 152.804 13.79 152.784 13.93C152.784 14.07 152.784 14.22 152.784 14.38V14.62C152.804 14.68 152.814 14.74 152.814 14.8C152.814 14.86 152.824 14.92 152.844 14.98C152.844 15.22 152.904 15.48 153.024 15.76C153.184 16.16 153.364 16.55 153.564 16.93C153.764 17.31 153.994 17.67 154.254 18.01C154.314 18.09 154.374 18.17 154.434 18.25C154.514 18.33 154.584 18.41 154.644 18.49C154.824 18.69 155.014 18.87 155.214 19.03C155.434 19.19 155.654 19.33 155.874 19.45C156.114 19.57 156.344 19.63 156.564 19.63ZM177.427 23.77H177.277C177.217 23.77 177.147 23.76 177.067 23.74C177.007 23.74 176.937 23.74 176.857 23.74C176.717 23.76 176.597 23.73 176.497 23.65C176.417 23.59 176.327 23.51 176.227 23.41C176.187 23.37 176.137 23.32 176.077 23.26C176.037 23.22 175.987 23.19 175.927 23.17C175.887 23.15 175.847 23.1 175.807 23.02C175.787 22.98 175.757 22.93 175.717 22.87C175.697 22.81 175.667 22.75 175.627 22.69C175.587 22.59 175.577 22.48 175.597 22.36C175.617 22.3 175.627 22.24 175.627 22.18C175.647 22.14 175.657 22.09 175.657 22.03C175.657 21.83 175.657 21.64 175.657 21.46C175.657 21.26 175.637 21.06 175.597 20.86C175.577 20.8 175.567 20.74 175.567 20.68C175.567 20.6 175.557 20.52 175.537 20.44C175.537 20.3 175.527 20.19 175.507 20.11C175.507 20.01 175.497 19.92 175.477 19.84C175.477 19.76 175.477 19.68 175.477 19.6C175.457 19.46 175.447 19.33 175.447 19.21C175.447 19.09 175.427 18.96 175.387 18.82V18.73C175.387 18.47 175.367 18.22 175.327 17.98C175.307 17.72 175.297 17.46 175.297 17.2C175.297 17.08 175.287 16.99 175.267 16.93C175.247 16.75 175.227 16.57 175.207 16.39C175.207 16.19 175.207 15.99 175.207 15.79C175.207 15.61 175.207 15.43 175.207 15.25C175.207 15.05 175.187 14.86 175.147 14.68C175.127 14.64 175.117 14.59 175.117 14.53C175.117 14.47 175.117 14.42 175.117 14.38C175.117 13.56 175.117 12.74 175.117 11.92C175.117 11.1 175.127 10.29 175.147 9.49C175.147 9.39 175.147 9.29 175.147 9.19C175.167 9.09 175.177 8.99 175.177 8.89C175.177 8.83 175.177 8.77 175.177 8.71C175.197 8.65 175.207 8.6 175.207 8.56C175.207 8.34 175.207 8.12 175.207 7.9C175.227 7.66 175.247 7.43 175.267 7.21C175.307 7.15 175.307 7.07 175.267 6.97C175.247 6.95 175.217 6.94 175.177 6.94L175.087 7.03C175.047 7.09 174.997 7.15 174.937 7.21C174.877 7.27 174.827 7.33 174.787 7.39C174.707 7.51 174.617 7.64 174.517 7.78C174.437 7.9 174.347 8.03 174.247 8.17C174.107 8.41 173.957 8.66 173.797 8.92C173.637 9.16 173.517 9.42 173.437 9.7C173.417 9.74 173.397 9.79 173.377 9.85C173.357 9.89 173.337 9.93 173.317 9.97C173.237 10.17 173.147 10.37 173.047 10.57C172.967 10.75 172.887 10.95 172.807 11.17C172.687 11.43 172.517 11.67 172.297 11.89C172.257 11.93 172.217 11.95 172.177 11.95C172.077 12.01 171.967 12.07 171.847 12.13C171.727 12.17 171.597 12.18 171.457 12.16H171.277C171.097 12.2 170.947 12.16 170.827 12.04C170.687 12 170.567 11.93 170.467 11.83C170.387 11.73 170.297 11.62 170.197 11.5C170.117 11.4 170.047 11.28 169.987 11.14C169.947 11 169.927 10.86 169.927 10.72C169.907 10.68 169.897 10.63 169.897 10.57C169.897 10.51 169.897 10.46 169.897 10.42C169.877 10.38 169.857 10.34 169.837 10.3C169.817 10.24 169.807 10.2 169.807 10.18C169.807 10.14 169.787 10.08 169.747 10C169.707 9.92 169.627 9.76 169.507 9.52C169.387 9.28 169.327 9.17 169.327 9.19C169.267 9.09 169.207 8.98 169.147 8.86C169.087 8.74 169.017 8.63 168.937 8.53L168.757 8.2C168.717 8.2 168.687 8.19 168.667 8.17L168.637 8.2C168.637 8.26 168.637 8.32 168.637 8.38C168.637 8.44 168.647 8.5 168.667 8.56C168.707 8.78 168.727 9 168.727 9.22C168.727 9.44 168.707 9.66 168.667 9.88C168.667 10 168.677 10.1 168.697 10.18C168.717 10.22 168.727 10.29 168.727 10.39C168.727 10.51 168.727 10.63 168.727 10.75C168.747 10.87 168.747 10.99 168.727 11.11C168.707 11.21 168.697 11.32 168.697 11.44C168.717 11.54 168.737 11.64 168.757 11.74V12.04C168.717 12.16 168.717 12.29 168.757 12.43C168.777 12.53 168.777 12.64 168.757 12.76C168.757 12.86 168.767 12.96 168.787 13.06C168.787 13.16 168.767 13.29 168.727 13.45C168.607 13.93 168.637 14.39 168.817 14.83C168.837 14.91 168.857 14.99 168.877 15.07C168.897 15.13 168.897 15.2 168.877 15.28C168.877 15.34 168.877 15.4 168.877 15.46C168.877 15.52 168.887 15.58 168.907 15.64C168.947 15.72 168.967 15.8 168.967 15.88C168.987 16.1 168.997 16.27 168.997 16.39C169.017 16.51 169.037 16.6 169.057 16.66C169.097 16.88 169.137 17.11 169.177 17.35C169.217 17.57 169.257 17.79 169.297 18.01C169.337 18.27 169.377 18.53 169.417 18.79C169.477 19.03 169.507 19.28 169.507 19.54C169.507 19.62 169.517 19.68 169.537 19.72C169.577 19.88 169.597 20.05 169.597 20.23C169.597 20.39 169.607 20.55 169.627 20.71C169.627 20.93 169.577 21.1 169.477 21.22C169.437 21.3 169.417 21.35 169.417 21.37C169.237 21.75 168.917 21.97 168.457 22.03C168.397 22.05 168.337 22.06 168.277 22.06C168.217 22.06 168.157 22.06 168.097 22.06C167.877 22.1 167.717 22.06 167.617 21.94C167.577 21.9 167.537 21.88 167.497 21.88C167.397 21.9 167.297 21.84 167.197 21.7C167.137 21.6 167.047 21.51 166.927 21.43C166.867 21.37 166.817 21.27 166.777 21.13C166.757 21.09 166.737 21.05 166.717 21.01C166.717 20.97 166.717 20.93 166.717 20.89C166.697 20.61 166.667 20.34 166.627 20.08C166.587 19.8 166.557 19.53 166.537 19.27L166.507 18.97C166.487 18.89 166.477 18.82 166.477 18.76C166.477 18.7 166.467 18.63 166.447 18.55V18.37C166.387 18.09 166.357 17.81 166.357 17.53C166.357 17.23 166.367 16.94 166.387 16.66C166.407 16.48 166.417 16.3 166.417 16.12C166.417 15.92 166.427 15.73 166.447 15.55V14.86C166.447 14.76 166.447 14.66 166.447 14.56C166.447 14.44 166.437 14.33 166.417 14.23C166.397 14.11 166.387 13.99 166.387 13.87C166.387 13.75 166.387 13.63 166.387 13.51V12.13C166.367 11.97 166.357 11.81 166.357 11.65C166.357 11.47 166.357 11.3 166.357 11.14C166.357 11.08 166.357 11.02 166.357 10.96C166.357 10.88 166.347 10.81 166.327 10.75C166.327 10.65 166.317 10.56 166.297 10.48C166.297 10.38 166.287 10.29 166.267 10.21V10C166.227 9.82 166.207 9.65 166.207 9.49C166.207 9.31 166.207 9.13 166.207 8.95C166.207 8.79 166.207 8.63 166.207 8.47C166.207 8.29 166.187 8.13 166.147 7.99C166.127 7.93 166.117 7.87 166.117 7.81C166.117 7.75 166.117 7.69 166.117 7.63C166.117 7.49 166.117 7.36 166.117 7.24C166.117 7.1 166.097 6.96 166.057 6.82C166.037 6.78 166.027 6.71 166.027 6.61V5.11C166.027 5.01 166.027 4.92 166.027 4.84C166.027 4.74 166.007 4.65 165.967 4.57C165.907 4.37 165.917 4.14 165.997 3.88C166.037 3.78 166.077 3.71 166.117 3.67C166.157 3.61 166.197 3.55 166.237 3.49C166.277 3.43 166.307 3.37 166.327 3.31C166.367 3.25 166.397 3.22 166.417 3.22C166.497 3.2 166.557 3.17 166.597 3.13C166.657 3.09 166.707 3.05 166.747 3.01L166.927 2.92C166.967 2.9 167.027 2.89 167.107 2.89C167.207 2.91 167.307 2.93 167.407 2.95C167.527 2.95 167.637 2.96 167.737 2.98C167.857 2.98 167.947 3.03 168.007 3.13C168.107 3.27 168.207 3.41 168.307 3.55C168.407 3.69 168.487 3.84 168.547 4C168.607 4.14 168.687 4.26 168.787 4.36C168.907 4.52 169.027 4.68 169.147 4.84C169.267 5 169.397 5.16 169.537 5.32C169.597 5.38 169.647 5.45 169.687 5.53C169.747 5.61 169.797 5.69 169.837 5.77C169.937 5.91 170.027 6.05 170.107 6.19C170.207 6.31 170.307 6.44 170.407 6.58L170.857 7.3C170.897 7.38 170.937 7.46 170.977 7.54C171.017 7.6 171.057 7.66 171.097 7.72C171.137 7.82 171.197 7.83 171.277 7.75C171.357 7.65 171.437 7.55 171.517 7.45C171.617 7.33 171.707 7.22 171.787 7.12C171.967 6.9 172.147 6.67 172.327 6.43C172.507 6.19 172.697 5.96 172.897 5.74L173.077 5.47C173.217 5.27 173.347 5.08 173.467 4.9C173.607 4.7 173.737 4.5 173.857 4.3C173.997 4.08 174.117 3.86 174.217 3.64C174.337 3.42 174.437 3.2 174.517 2.98L174.877 2.17C174.997 1.93 175.167 1.73 175.387 1.57C175.687 1.33 176.017 1.24 176.377 1.3C176.517 1.32 176.647 1.36 176.767 1.42C176.887 1.46 177.007 1.5 177.127 1.54C177.247 1.58 177.327 1.67 177.367 1.81C177.407 1.87 177.437 1.93 177.457 1.99C177.477 2.05 177.487 2.11 177.487 2.17C177.507 2.31 177.537 2.44 177.577 2.56C177.617 2.66 177.647 2.78 177.667 2.92L177.697 3.22C177.737 3.4 177.777 3.58 177.817 3.76C177.877 3.94 177.927 4.12 177.967 4.3V4.36C177.987 4.56 178.007 4.76 178.027 4.96C178.067 5.14 178.077 5.33 178.057 5.53V6.22C178.057 6.32 178.057 6.42 178.057 6.52C178.057 6.62 178.047 6.72 178.027 6.82C178.007 6.96 177.997 7.1 177.997 7.24C177.997 7.36 177.997 7.49 177.997 7.63C177.977 7.71 177.967 7.79 177.967 7.87C177.967 7.95 177.957 8.03 177.937 8.11C177.917 8.19 177.907 8.27 177.907 8.35C177.907 8.41 177.907 8.49 177.907 8.59V9.43C177.907 9.57 177.897 9.7 177.877 9.82C177.877 9.94 177.867 10.07 177.847 10.21C177.827 10.29 177.817 10.37 177.817 10.45C177.817 10.51 177.817 10.58 177.817 10.66V12.49C177.817 12.63 177.817 12.77 177.817 12.91C177.837 13.05 177.857 13.19 177.877 13.33C177.897 13.43 177.907 13.54 177.907 13.66C177.907 13.76 177.907 13.86 177.907 13.96C177.927 14.1 177.937 14.24 177.937 14.38C177.937 14.5 177.947 14.64 177.967 14.8V15.13C177.987 15.29 177.997 15.46 177.997 15.64C177.997 15.8 177.997 15.96 177.997 16.12V16.51C178.037 16.65 178.057 16.8 178.057 16.96C178.057 17.12 178.067 17.28 178.087 17.44V17.65C178.127 17.77 178.147 17.89 178.147 18.01C178.147 18.13 178.157 18.25 178.177 18.37L178.267 19.45C178.287 19.53 178.297 19.61 178.297 19.69C178.317 19.75 178.327 19.82 178.327 19.9C178.347 19.98 178.357 20.06 178.357 20.14C178.357 20.2 178.367 20.27 178.387 20.35C178.387 20.37 178.387 20.4 178.387 20.44C178.407 20.48 178.417 20.52 178.417 20.56C178.417 20.7 178.427 20.85 178.447 21.01C178.487 21.17 178.517 21.33 178.537 21.49L178.657 22.33C178.657 22.45 178.647 22.53 178.627 22.57C178.607 22.69 178.557 22.8 178.477 22.9C178.417 23.02 178.367 23.13 178.327 23.23C178.327 23.25 178.317 23.26 178.297 23.26C178.157 23.38 178.017 23.48 177.877 23.56C177.737 23.66 177.587 23.73 177.427 23.77Z" fill="#353535"/>
</svg>
