<svg width="115" height="24" viewBox="0 0 115 24" fill="none" xmlns="http://www.w3.org/2000/svg">
<path d="M6.15148 23.47L5.64148 23.38C5.38148 23.34 5.11148 23.3 4.83148 23.26C4.57148 23.22 4.30148 23.19 4.02148 23.17C3.74148 23.17 3.46148 23.09 3.18148 22.93C2.92148 22.79 2.74148 22.57 2.64148 22.27C2.62148 22.17 2.59148 22.07 2.55148 21.97C2.53148 21.87 2.51148 21.77 2.49148 21.67C2.49148 21.43 2.54148 21.25 2.64148 21.13C2.74148 21.03 2.82148 20.93 2.88148 20.83C2.96148 20.73 3.04148 20.64 3.12148 20.56C3.16148 20.52 3.20148 20.49 3.24148 20.47C3.28148 20.45 3.32148 20.43 3.36148 20.41C3.46148 20.35 3.56148 20.31 3.66148 20.29C3.76148 20.25 3.86148 20.22 3.96148 20.2C4.00148 20.18 4.03148 20.18 4.05148 20.2C4.09148 20.2 4.12148 20.2 4.14148 20.2C4.24148 20.22 4.35148 20.24 4.47148 20.26C4.59148 20.26 4.70148 20.28 4.80148 20.32L6.06148 20.5C6.34148 20.54 6.59148 20.5 6.81148 20.38C6.89148 20.34 6.96148 20.3 7.02148 20.26C7.10148 20.22 7.17148 20.18 7.23148 20.14C7.67148 19.88 8.05148 19.61 8.37148 19.33C8.61148 19.11 8.84148 18.89 9.06148 18.67C9.28149 18.45 9.48149 18.21 9.66149 17.95C9.80149 17.77 9.89148 17.59 9.93148 17.41C9.97148 17.21 9.98148 17.01 9.96148 16.81L9.87149 16.57C9.85148 16.47 9.81148 16.39 9.75148 16.33C9.69149 16.27 9.63149 16.2 9.57148 16.12C9.45148 16.02 9.33149 15.91 9.21148 15.79C9.11148 15.67 9.00148 15.57 8.88148 15.49C8.58148 15.25 8.28148 15.02 7.98148 14.8C7.70148 14.58 7.41148 14.36 7.11149 14.14C7.09148 14.1 7.03148 14.06 6.93148 14.02C6.75148 13.9 6.57148 13.77 6.39148 13.63C6.23148 13.47 6.07148 13.32 5.91148 13.18C5.71148 12.98 5.49148 12.79 5.25148 12.61C5.13148 12.55 5.02148 12.45 4.92148 12.31C4.84148 12.21 4.72148 12.11 4.56148 12.01C4.42148 11.93 4.29148 11.84 4.17148 11.74C4.05148 11.62 3.93148 11.51 3.81148 11.41L3.42148 11.05C3.34148 10.95 3.25148 10.86 3.15148 10.78C3.07148 10.68 2.98148 10.58 2.88148 10.48C2.84148 10.38 2.78148 10.3 2.70148 10.24C2.64148 10.18 2.58148 10.11 2.52148 10.03C2.50148 9.99 2.47148 9.95 2.43148 9.91C2.39148 9.85 2.36148 9.79 2.34148 9.73C2.22148 9.49 2.09148 9.25 1.95148 9.01C1.83148 8.77 1.72148 8.52 1.62148 8.26C1.56148 8.1 1.50148 7.95 1.44148 7.81C1.40148 7.65 1.36148 7.5 1.32148 7.36C1.30148 7.2 1.26148 7.06 1.20148 6.94C1.16148 6.8 1.12148 6.66 1.08148 6.52C1.04148 6.3 0.991484 6.09 0.931484 5.89C0.891484 5.67 0.851484 5.46 0.811484 5.26L0.751484 5.02C0.731484 4.8 0.731484 4.59 0.751484 4.39C0.791484 4.11 0.851484 3.86 0.931484 3.64C1.01148 3.4 1.14148 3.21 1.32148 3.07C1.52148 2.91 1.72148 2.75 1.92148 2.59C2.12148 2.43 2.33148 2.3 2.55148 2.2C2.59148 2.2 2.62148 2.19 2.64148 2.17C2.84148 2.01 3.06148 1.9 3.30148 1.84C3.54148 1.76 3.78148 1.69 4.02148 1.63C4.98148 1.35 5.97148 1.14 6.99148 0.999999H7.29148C7.49148 0.999999 7.68149 0.999999 7.86149 0.999999C8.04148 0.999999 8.23148 0.989999 8.43148 0.969999C8.67148 0.969999 8.91148 0.999999 9.15148 1.06C9.39148 1.1 9.62148 1.17 9.84148 1.27C10.0015 1.35 10.1615 1.44 10.3215 1.54C10.4815 1.62 10.6315 1.71 10.7715 1.81C10.9315 1.93 11.0315 2.06 11.0715 2.2L11.1615 2.41C11.2615 2.59 11.3115 2.78 11.3115 2.98C11.3315 3.16 11.3215 3.35 11.2815 3.55C11.2815 3.61 11.2715 3.68 11.2515 3.76C11.2515 3.82 11.2515 3.88 11.2515 3.94C11.1915 4.38 10.9815 4.72 10.6215 4.96C10.4015 5.16 10.1115 5.24 9.75148 5.2C9.67148 5.16 9.63148 5.18 9.63148 5.26C9.63148 5.34 9.58148 5.38 9.48148 5.38H9.30148C9.18148 5.38 9.06148 5.32 8.94148 5.2C8.84148 5.1 8.79148 5.02 8.79148 4.96C8.79148 4.88 8.83148 4.82 8.91149 4.78C8.87148 4.68 8.83148 4.59 8.79148 4.51C8.75148 4.43 8.71148 4.37 8.67148 4.33C8.61148 4.23 8.52148 4.16 8.40148 4.12C8.30148 4.1 8.20148 4.08 8.10148 4.06C8.00148 4.04 7.90148 4.02 7.80149 4C7.72148 4 7.63148 4 7.53148 4C7.43149 3.98 7.33148 3.96 7.23148 3.94C7.17148 3.92 7.08148 3.93 6.96148 3.97C6.90148 3.99 6.84148 4.01 6.78148 4.03C6.72148 4.03 6.65148 4.02 6.57148 4C6.51148 4 6.44148 4 6.36148 4C6.30148 4 6.23148 4.02 6.15148 4.06L5.58148 4.15C5.26148 4.21 4.95148 4.33 4.65148 4.51C4.59148 4.53 4.53148 4.55 4.47148 4.57C4.41148 4.59 4.35148 4.59 4.29148 4.57C4.17148 4.55 4.07148 4.58 3.99148 4.66C3.97148 4.7 3.92148 4.73 3.84148 4.75C3.78148 4.75 3.73148 4.77 3.69148 4.81C3.61148 4.89 3.57148 4.97 3.57148 5.05C3.59148 5.09 3.60148 5.15 3.60148 5.23L4.23148 7.06C4.35148 7.38 4.50148 7.68 4.68148 7.96C4.88148 8.22 5.09148 8.48 5.31148 8.74C5.65148 9.14 6.00148 9.48 6.36148 9.76L7.32148 10.57C7.52148 10.75 7.73148 10.92 7.95148 11.08C8.17149 11.24 8.38149 11.4 8.58148 11.56C8.88148 11.78 9.18148 12.01 9.48148 12.25C9.78148 12.47 10.0815 12.7 10.3815 12.94C10.6215 13.14 10.8515 13.34 11.0715 13.54C11.3115 13.72 11.5315 13.92 11.7315 14.14C11.8715 14.3 12.0115 14.46 12.1515 14.62C12.2915 14.78 12.4115 14.96 12.5115 15.16C12.6515 15.38 12.7715 15.64 12.8715 15.94C12.9915 16.32 13.0415 16.68 13.0215 17.02C13.0015 17.06 12.9915 17.12 12.9915 17.2C12.9915 17.44 12.9615 17.67 12.9015 17.89C12.8615 18.09 12.7915 18.3 12.6915 18.52C12.5915 18.72 12.4815 18.93 12.3615 19.15C12.2615 19.35 12.1415 19.55 12.0015 19.75C11.8015 20.01 11.5915 20.26 11.3715 20.5C11.1715 20.72 10.9415 20.94 10.6815 21.16C10.5415 21.28 10.4015 21.41 10.2615 21.55C10.1215 21.67 9.97148 21.78 9.81149 21.88C9.71149 21.96 9.61149 22.03 9.51148 22.09C9.41148 22.17 9.31148 22.25 9.21148 22.33C9.13148 22.37 9.05148 22.42 8.97149 22.48C8.89149 22.54 8.81148 22.6 8.73148 22.66C8.65148 22.74 8.55148 22.8 8.43148 22.84C8.33149 22.9 8.23148 22.95 8.13148 22.99L7.26148 23.35C7.08148 23.41 6.90148 23.45 6.72148 23.47C6.54148 23.49 6.35148 23.49 6.15148 23.47ZM18.1468 22.21C18.0268 22.21 17.9468 22.2 17.9068 22.18C17.8068 22.14 17.7068 22.12 17.6068 22.12C17.5268 22.14 17.4368 22.15 17.3368 22.15C17.3168 22.15 17.2968 22.15 17.2768 22.15C17.2568 22.17 17.2368 22.18 17.2168 22.18C17.0768 22.2 16.9368 22.21 16.7968 22.21C16.6768 22.21 16.5568 22.19 16.4368 22.15C16.4168 22.13 16.3968 22.12 16.3768 22.12C16.2368 22.14 16.1168 22.1 16.0168 22C15.9168 21.9 15.8168 21.81 15.7168 21.73C15.6168 21.63 15.5668 21.52 15.5668 21.4L15.4768 21.16C15.4168 21.02 15.3968 20.89 15.4168 20.77C15.4368 20.73 15.4368 20.69 15.4168 20.65C15.4168 20.61 15.4168 20.57 15.4168 20.53C15.3968 20.49 15.3868 20.45 15.3868 20.41C15.3868 20.35 15.3768 20.3 15.3568 20.26C15.3168 20.08 15.2868 19.9 15.2668 19.72C15.2668 19.52 15.2768 19.33 15.2968 19.15C15.3168 19.03 15.3868 18.83 15.5068 18.55C15.6268 18.25 15.6968 18.07 15.7168 18.01C15.7768 17.91 15.8068 17.83 15.8068 17.77C15.7868 17.55 15.7768 17.33 15.7768 17.11C15.7968 16.87 15.8068 16.64 15.8068 16.42C15.8068 16.28 15.8368 16.17 15.8968 16.09C15.9768 15.95 15.9868 15.8 15.9268 15.64L15.8368 15.31C15.7168 15.09 15.7268 14.9 15.8668 14.74C15.8668 14.72 15.8668 14.71 15.8668 14.71C15.8868 14.69 15.8968 14.67 15.8968 14.65C15.9368 14.61 15.9468 14.56 15.9268 14.5C15.9068 14.42 15.8968 14.36 15.8968 14.32C15.8968 14.24 15.9068 14.16 15.9268 14.08C15.9668 13.98 15.9768 13.89 15.9568 13.81C15.9568 13.81 15.9368 13.79 15.8968 13.75C15.8768 13.71 15.8668 13.63 15.8668 13.51C15.8868 13.39 15.8968 13.32 15.8968 13.3V12.46C15.9168 12.36 15.9268 12.27 15.9268 12.19C15.9268 12.09 15.9368 11.99 15.9568 11.89C15.9768 11.77 15.9768 11.65 15.9568 11.53C15.9568 11.39 15.9568 11.25 15.9568 11.11C15.9368 11.01 15.9168 10.9 15.8968 10.78C15.8968 10.66 15.8968 10.54 15.8968 10.42C15.8768 10.38 15.8668 10.33 15.8668 10.27C15.8668 10.21 15.8668 10.16 15.8668 10.12C15.8468 10.02 15.8268 9.92 15.8068 9.82C15.8068 9.72 15.8068 9.62 15.8068 9.52C15.8068 9.48 15.7668 9.35 15.6868 9.13C15.6068 8.89 15.5768 8.69 15.5968 8.53C15.6168 8.49 15.6268 8.44 15.6268 8.38C15.6268 8.32 15.6068 8.27 15.5668 8.23C15.5268 8.21 15.5068 8.17 15.5068 8.11V8.02C15.5668 7.78 15.5368 7.54 15.4168 7.3C15.3368 7.18 15.3068 7.06 15.3268 6.94C15.3268 6.78 15.2568 6.66 15.1168 6.58C15.0168 6.48 14.9268 6.36 14.8468 6.22C14.7668 6.08 14.7168 5.94 14.6968 5.8C14.6768 5.7 14.6668 5.6 14.6668 5.5C14.6668 5.4 14.6668 5.31 14.6668 5.23C14.6668 5.15 14.6768 5.1 14.6968 5.08C14.7768 5 14.8168 4.91 14.8168 4.81C14.8168 4.69 14.8268 4.6 14.8468 4.54C14.8668 4.52 14.8868 4.51 14.9068 4.51C14.9268 4.51 14.9468 4.5 14.9668 4.48C15.0468 4.46 15.0868 4.39 15.0868 4.27C15.0468 4.19 15.0268 4.12 15.0268 4.06C15.0068 3.98 15.0368 3.91 15.1168 3.85C15.1568 3.77 15.2068 3.75 15.2668 3.79C15.4068 3.85 15.5668 3.83 15.7468 3.73C15.8268 3.69 15.8768 3.67 15.8968 3.67C15.9568 3.67 15.9868 3.67 15.9868 3.67C16.0068 3.65 16.0668 3.64 16.1668 3.64C16.2868 3.66 16.3968 3.62 16.4968 3.52C16.6368 3.38 16.8068 3.31 17.0068 3.31H18.8668C19.3268 3.33 19.7868 3.33 20.2468 3.31C20.7068 3.29 21.1568 3.28 21.5968 3.28C21.6968 3.28 21.7768 3.28 21.8368 3.28C21.9168 3.26 21.9968 3.24 22.0768 3.22C22.1968 3.16 22.3368 3.13 22.4968 3.13H23.1868C23.3468 3.13 23.4868 3.13 23.6068 3.13C23.7468 3.11 23.8868 3.09 24.0268 3.07C24.1068 3.05 24.1768 3.04 24.2368 3.04C24.3168 3.04 24.3968 3.04 24.4768 3.04C24.5568 3.04 24.6368 3.04 24.7168 3.04C24.7968 3.04 24.8768 3.03 24.9568 3.01C25.1168 2.99 25.2868 2.98 25.4668 2.98C25.6468 2.96 25.8168 2.95 25.9768 2.95C26.0568 2.95 26.1268 2.95 26.1868 2.95C26.2668 2.93 26.3468 2.91 26.4268 2.89C26.5868 2.85 26.7368 2.83 26.8768 2.83C27.0368 2.81 27.1868 2.79 27.3268 2.77C27.4868 2.75 27.6368 2.73 27.7768 2.71C27.9368 2.69 28.0868 2.67 28.2268 2.65C28.4068 2.65 28.5368 2.67 28.6168 2.71C28.7368 2.79 28.8468 2.86 28.9468 2.92C29.0668 2.98 29.1768 3.06 29.2768 3.16C29.3568 3.24 29.4068 3.31 29.4268 3.37C29.4468 3.45 29.4668 3.53 29.4868 3.61C29.5068 3.69 29.5268 3.78 29.5468 3.88V4.09C29.5268 4.19 29.5068 4.3 29.4868 4.42C29.4868 4.52 29.4768 4.63 29.4568 4.75C29.4168 4.83 29.3668 4.9 29.3068 4.96L28.7668 5.5C28.5668 5.56 28.3668 5.6 28.1668 5.62C27.9868 5.64 27.7968 5.64 27.5968 5.62H27.3868C27.2868 5.64 27.1868 5.65 27.0868 5.65C26.9868 5.65 26.8868 5.64 26.7868 5.62C26.6668 5.6 26.5468 5.6 26.4268 5.62C26.3068 5.62 26.1868 5.62 26.0668 5.62C25.9868 5.62 25.9068 5.63 25.8268 5.65C25.7668 5.65 25.6968 5.64 25.6168 5.62C25.5168 5.6 25.4168 5.6 25.3168 5.62C25.2368 5.62 25.1468 5.63 25.0468 5.65C24.9668 5.65 24.8768 5.66 24.7768 5.68C24.6968 5.68 24.6068 5.68 24.5068 5.68C24.2468 5.72 23.9668 5.74 23.6668 5.74C23.3868 5.74 23.1068 5.76 22.8268 5.8C22.6468 5.78 22.4768 5.79 22.3168 5.83C22.1568 5.85 21.9868 5.87 21.8068 5.89C21.6468 5.91 21.4768 5.92 21.2968 5.92C21.1168 5.92 20.9468 5.94 20.7868 5.98C20.5868 5.98 20.3868 6.01 20.1868 6.07C20.0068 6.11 19.8168 6.14 19.6168 6.16L19.4068 6.19C19.2668 6.19 19.1368 6.21 19.0168 6.25C18.8968 6.27 18.7668 6.3 18.6268 6.34C18.5468 6.36 18.4668 6.38 18.3868 6.4C18.3068 6.4 18.2168 6.41 18.1168 6.43C18.0568 6.43 17.9868 6.45 17.9068 6.49C17.8468 6.51 17.8168 6.57 17.8168 6.67L17.9068 6.94C17.9268 6.98 17.9168 7.08 17.8768 7.24C17.8568 7.4 17.8368 7.52 17.8168 7.6C17.8168 7.66 17.8268 7.72 17.8468 7.78C17.8668 7.84 17.8868 7.9 17.9068 7.96C17.9668 8.12 17.9968 8.3 17.9968 8.5C17.9968 8.68 18.0168 8.85 18.0568 9.01C18.0768 9.09 18.0868 9.18 18.0868 9.28C18.0868 9.36 18.0968 9.45 18.1168 9.55C18.1168 9.59 18.1168 9.64 18.1168 9.7C18.1368 9.74 18.1468 9.79 18.1468 9.85C18.1468 9.91 18.1368 9.95 18.1168 9.97C18.0568 10.05 18.0268 10.14 18.0268 10.24C18.0268 10.34 18.0268 10.44 18.0268 10.54C18.1268 10.74 18.1768 10.94 18.1768 11.14C18.1768 11.34 18.1768 11.54 18.1768 11.74C18.1768 11.8 18.2268 11.82 18.3268 11.8H18.3568C18.3968 11.72 18.4368 11.66 18.4768 11.62C18.5368 11.62 18.6068 11.6 18.6868 11.56C18.7468 11.52 18.8268 11.5 18.9268 11.5C19.0868 11.52 19.2368 11.52 19.3768 11.5C19.5168 11.46 19.6568 11.42 19.7968 11.38C20.7368 11.14 21.6168 10.83 22.4368 10.45C22.6568 10.35 22.8868 10.27 23.1268 10.21C23.3668 10.13 23.6068 10.08 23.8468 10.06H23.9368C24.1168 10.04 24.2968 10.02 24.4768 10C24.6568 9.98 24.8368 9.97 25.0168 9.97C25.2568 9.95 25.4868 9.92 25.7068 9.88C25.9468 9.84 26.1868 9.81 26.4268 9.79C26.5668 9.75 26.6968 9.72 26.8168 9.7C26.9368 9.66 27.0668 9.61 27.2068 9.55C27.4668 9.45 27.7068 9.4 27.9268 9.4C28.0868 9.42 28.2368 9.46 28.3768 9.52C28.5168 9.56 28.6568 9.62 28.7968 9.7C29.0968 9.9 29.2468 10.2 29.2468 10.6C29.2468 10.76 29.2268 10.92 29.1868 11.08C29.1668 11.24 29.1568 11.4 29.1568 11.56C29.1568 11.6 29.1368 11.64 29.0968 11.68L29.0068 11.83C28.9868 11.91 28.9668 11.99 28.9468 12.07C28.9268 12.15 28.8768 12.21 28.7968 12.25C28.6768 12.35 28.5468 12.46 28.4068 12.58C28.2868 12.68 28.1468 12.75 27.9868 12.79C27.9068 12.81 27.8268 12.83 27.7468 12.85C27.6868 12.87 27.6168 12.88 27.5368 12.88C27.2168 12.88 26.8868 12.9 26.5468 12.94C26.2268 12.98 25.8968 13.02 25.5568 13.06C25.2968 13.08 25.0368 13.11 24.7768 13.15C24.5368 13.19 24.2868 13.21 24.0268 13.21C23.7868 13.21 23.5168 13.26 23.2168 13.36C23.0168 13.4 22.8068 13.44 22.5868 13.48C22.3668 13.52 22.1468 13.55 21.9268 13.57C21.7668 13.59 21.5968 13.62 21.4168 13.66C21.2568 13.68 21.0968 13.7 20.9368 13.72L20.4268 13.81C20.3868 13.83 20.3268 13.84 20.2468 13.84C20.1068 13.88 19.9668 13.91 19.8268 13.93C19.6868 13.95 19.5468 13.98 19.4068 14.02C19.2668 14.04 19.1268 14.07 18.9868 14.11C18.8668 14.15 18.7368 14.19 18.5968 14.23C18.4968 14.25 18.4168 14.29 18.3568 14.35C18.2968 14.39 18.2468 14.45 18.2068 14.53C18.1868 14.59 18.1868 14.65 18.2068 14.71C18.2268 14.79 18.2168 14.87 18.1768 14.95C18.1968 15.15 18.2068 15.35 18.2068 15.55C18.2268 15.75 18.2268 15.95 18.2068 16.15C18.2468 16.31 18.2568 16.47 18.2368 16.63C18.2368 16.79 18.2268 16.95 18.2068 17.11C18.1668 17.35 18.1768 17.55 18.2368 17.71C18.2968 17.97 18.2768 18.24 18.1768 18.52C18.1368 18.64 18.1368 18.72 18.1768 18.76C18.2168 18.82 18.2168 18.89 18.1768 18.97V19.15C18.1568 19.31 18.2268 19.39 18.3868 19.39H18.4468C18.5868 19.39 18.7268 19.44 18.8668 19.54C18.9668 19.64 19.0868 19.67 19.2268 19.63L20.0668 19.54C20.1868 19.52 20.3068 19.51 20.4268 19.51C20.5468 19.49 20.6668 19.48 20.7868 19.48C20.8268 19.46 20.8868 19.47 20.9668 19.51C21.0668 19.57 21.1568 19.58 21.2368 19.54C21.2768 19.5 21.3268 19.47 21.3868 19.45C21.4668 19.43 21.5268 19.4 21.5668 19.36C21.6868 19.24 21.8368 19.2 22.0168 19.24C22.1768 19.28 22.3068 19.27 22.4068 19.21C22.5868 19.15 22.7568 19.13 22.9168 19.15C23.0168 19.17 23.1168 19.16 23.2168 19.12C23.3168 19.08 23.4168 19.06 23.5168 19.06C23.5568 19.06 23.5868 19.07 23.6068 19.09C23.6268 19.09 23.6468 19.08 23.6668 19.06C23.7068 19.06 23.7468 19.05 23.7868 19.03C23.8268 19.01 23.8568 19 23.8768 19C24.0168 18.94 24.1468 18.92 24.2668 18.94C24.3668 18.94 24.4168 18.94 24.4168 18.94C24.4968 18.92 24.5668 18.92 24.6268 18.94C24.7068 18.96 24.7768 18.99 24.8368 19.03C24.9368 19.05 25.0168 19.08 25.0768 19.12C25.1568 19.16 25.2368 19.19 25.3168 19.21C25.3568 19.21 25.3868 19.22 25.4068 19.24C25.5068 19.32 25.6268 19.39 25.7668 19.45C25.9268 19.51 26.0168 19.58 26.0368 19.66C26.0768 19.78 26.0968 19.9 26.0968 20.02C26.0968 20.12 26.1068 20.23 26.1268 20.35C26.1268 20.41 26.1168 20.47 26.0968 20.53C26.0968 20.59 26.0868 20.65 26.0668 20.71C26.0268 20.79 25.9768 20.88 25.9168 20.98C25.8768 21.08 25.8168 21.17 25.7368 21.25C25.6968 21.29 25.6568 21.33 25.6168 21.37C25.5968 21.41 25.5668 21.45 25.5268 21.49C25.4468 21.57 25.3568 21.64 25.2568 21.7C25.1568 21.76 25.0468 21.79 24.9268 21.79C24.8468 21.79 24.7868 21.8 24.7468 21.82C24.6668 21.86 24.5868 21.88 24.5068 21.88C24.4268 21.88 24.3368 21.88 24.2368 21.88C24.0968 21.9 23.9568 21.92 23.8168 21.94C23.6968 21.94 23.5668 21.93 23.4268 21.91C23.3468 21.89 23.2768 21.89 23.2168 21.91C23.0168 21.97 22.8168 21.98 22.6168 21.94C22.4168 21.94 22.2168 21.95 22.0168 21.97C21.8368 21.97 21.6568 21.97 21.4768 21.97H21.0868C21.0268 21.97 20.9768 21.98 20.9368 22C20.8568 22.04 20.7568 22.06 20.6368 22.06C20.5368 22.06 20.4368 22.05 20.3368 22.03H20.0368C20.0168 22.03 19.9868 22.03 19.9468 22.03C19.9068 22.05 19.8668 22.05 19.8268 22.03C19.7668 22.01 19.7068 22 19.6468 22C19.6068 22.02 19.5568 22.04 19.4968 22.06C19.4568 22.06 19.4168 22.06 19.3768 22.06C19.3568 22.08 19.3268 22.09 19.2868 22.09C19.0868 22.07 18.8968 22.07 18.7168 22.09C18.5368 22.13 18.3468 22.17 18.1468 22.21ZM44.5248 23.77H44.3748C44.3148 23.77 44.2448 23.76 44.1648 23.74C44.1048 23.74 44.0348 23.74 43.9548 23.74C43.8148 23.76 43.6948 23.73 43.5948 23.65C43.5148 23.59 43.4248 23.51 43.3248 23.41C43.2848 23.37 43.2348 23.32 43.1748 23.26C43.1348 23.22 43.0848 23.19 43.0248 23.17C42.9848 23.15 42.9448 23.1 42.9048 23.02C42.8848 22.98 42.8548 22.93 42.8148 22.87C42.7948 22.81 42.7648 22.75 42.7248 22.69C42.6848 22.59 42.6748 22.48 42.6948 22.36C42.7148 22.3 42.7248 22.24 42.7248 22.18C42.7448 22.14 42.7548 22.09 42.7548 22.03C42.7548 21.83 42.7548 21.64 42.7548 21.46C42.7548 21.26 42.7348 21.06 42.6948 20.86C42.6748 20.8 42.6648 20.74 42.6648 20.68C42.6648 20.6 42.6548 20.52 42.6348 20.44C42.6348 20.3 42.6248 20.19 42.6048 20.11C42.6048 20.01 42.5948 19.92 42.5748 19.84C42.5748 19.76 42.5748 19.68 42.5748 19.6C42.5548 19.46 42.5448 19.33 42.5448 19.21C42.5448 19.09 42.5248 18.96 42.4848 18.82V18.73C42.4848 18.47 42.4648 18.22 42.4248 17.98C42.4048 17.72 42.3948 17.46 42.3948 17.2C42.3948 17.08 42.3848 16.99 42.3648 16.93C42.3448 16.75 42.3248 16.57 42.3048 16.39C42.3048 16.19 42.3048 15.99 42.3048 15.79C42.3048 15.61 42.3048 15.43 42.3048 15.25C42.3048 15.05 42.2848 14.86 42.2448 14.68C42.2248 14.64 42.2148 14.59 42.2148 14.53C42.2148 14.47 42.2148 14.42 42.2148 14.38C42.2148 13.56 42.2148 12.74 42.2148 11.92C42.2148 11.1 42.2248 10.29 42.2448 9.49C42.2448 9.39 42.2448 9.29 42.2448 9.19C42.2648 9.09 42.2748 8.99 42.2748 8.89C42.2748 8.83 42.2748 8.77 42.2748 8.71C42.2948 8.65 42.3048 8.6 42.3048 8.56C42.3048 8.34 42.3048 8.12 42.3048 7.9C42.3248 7.66 42.3448 7.43 42.3648 7.21C42.4048 7.15 42.4048 7.07 42.3648 6.97C42.3448 6.95 42.3148 6.94 42.2748 6.94L42.1848 7.03C42.1448 7.09 42.0948 7.15 42.0348 7.21C41.9748 7.27 41.9248 7.33 41.8848 7.39C41.8048 7.51 41.7148 7.64 41.6148 7.78C41.5348 7.9 41.4448 8.03 41.3448 8.17C41.2048 8.41 41.0548 8.66 40.8948 8.92C40.7348 9.16 40.6148 9.42 40.5348 9.7C40.5148 9.74 40.4948 9.79 40.4748 9.85C40.4548 9.89 40.4348 9.93 40.4148 9.97C40.3348 10.17 40.2448 10.37 40.1448 10.57C40.0648 10.75 39.9848 10.95 39.9048 11.17C39.7848 11.43 39.6148 11.67 39.3948 11.89C39.3548 11.93 39.3148 11.95 39.2748 11.95C39.1748 12.01 39.0648 12.07 38.9448 12.13C38.8248 12.17 38.6948 12.18 38.5548 12.16H38.3748C38.1948 12.2 38.0448 12.16 37.9248 12.04C37.7848 12 37.6648 11.93 37.5648 11.83C37.4848 11.73 37.3948 11.62 37.2948 11.5C37.2148 11.4 37.1448 11.28 37.0848 11.14C37.0448 11 37.0248 10.86 37.0248 10.72C37.0048 10.68 36.9948 10.63 36.9948 10.57C36.9948 10.51 36.9948 10.46 36.9948 10.42C36.9748 10.38 36.9548 10.34 36.9348 10.3C36.9148 10.24 36.9048 10.2 36.9048 10.18C36.9048 10.14 36.8848 10.08 36.8448 10C36.8048 9.92 36.7248 9.76 36.6048 9.52C36.4848 9.28 36.4248 9.17 36.4248 9.19C36.3648 9.09 36.3048 8.98 36.2448 8.86C36.1848 8.74 36.1148 8.63 36.0348 8.53L35.8548 8.2C35.8148 8.2 35.7848 8.19 35.7648 8.17L35.7348 8.2C35.7348 8.26 35.7348 8.32 35.7348 8.38C35.7348 8.44 35.7448 8.5 35.7648 8.56C35.8048 8.78 35.8248 9 35.8248 9.22C35.8248 9.44 35.8048 9.66 35.7648 9.88C35.7648 10 35.7748 10.1 35.7948 10.18C35.8148 10.22 35.8248 10.29 35.8248 10.39C35.8248 10.51 35.8248 10.63 35.8248 10.75C35.8448 10.87 35.8448 10.99 35.8248 11.11C35.8048 11.21 35.7948 11.32 35.7948 11.44C35.8148 11.54 35.8348 11.64 35.8548 11.74V12.04C35.8148 12.16 35.8148 12.29 35.8548 12.43C35.8748 12.53 35.8748 12.64 35.8548 12.76C35.8548 12.86 35.8648 12.96 35.8848 13.06C35.8848 13.16 35.8648 13.29 35.8248 13.45C35.7048 13.93 35.7348 14.39 35.9148 14.83C35.9348 14.91 35.9548 14.99 35.9748 15.07C35.9948 15.13 35.9948 15.2 35.9748 15.28C35.9748 15.34 35.9748 15.4 35.9748 15.46C35.9748 15.52 35.9848 15.58 36.0048 15.64C36.0448 15.72 36.0648 15.8 36.0648 15.88C36.0848 16.1 36.0948 16.27 36.0948 16.39C36.1148 16.51 36.1348 16.6 36.1548 16.66C36.1948 16.88 36.2348 17.11 36.2748 17.35C36.3148 17.57 36.3548 17.79 36.3948 18.01C36.4348 18.27 36.4748 18.53 36.5148 18.79C36.5748 19.03 36.6048 19.28 36.6048 19.54C36.6048 19.62 36.6148 19.68 36.6348 19.72C36.6748 19.88 36.6948 20.05 36.6948 20.23C36.6948 20.39 36.7048 20.55 36.7248 20.71C36.7248 20.93 36.6748 21.1 36.5748 21.22C36.5348 21.3 36.5148 21.35 36.5148 21.37C36.3348 21.75 36.0148 21.97 35.5548 22.03C35.4948 22.05 35.4348 22.06 35.3748 22.06C35.3148 22.06 35.2548 22.06 35.1948 22.06C34.9748 22.1 34.8148 22.06 34.7148 21.94C34.6748 21.9 34.6348 21.88 34.5948 21.88C34.4948 21.9 34.3948 21.84 34.2948 21.7C34.2348 21.6 34.1448 21.51 34.0248 21.43C33.9648 21.37 33.9148 21.27 33.8748 21.13C33.8548 21.09 33.8348 21.05 33.8148 21.01C33.8148 20.97 33.8148 20.93 33.8148 20.89C33.7948 20.61 33.7648 20.34 33.7248 20.08C33.6848 19.8 33.6548 19.53 33.6348 19.27L33.6048 18.97C33.5848 18.89 33.5748 18.82 33.5748 18.76C33.5748 18.7 33.5648 18.63 33.5448 18.55V18.37C33.4848 18.09 33.4548 17.81 33.4548 17.53C33.4548 17.23 33.4648 16.94 33.4848 16.66C33.5048 16.48 33.5148 16.3 33.5148 16.12C33.5148 15.92 33.5248 15.73 33.5448 15.55V14.86C33.5448 14.76 33.5448 14.66 33.5448 14.56C33.5448 14.44 33.5348 14.33 33.5148 14.23C33.4948 14.11 33.4848 13.99 33.4848 13.87C33.4848 13.75 33.4848 13.63 33.4848 13.51V12.13C33.4648 11.97 33.4548 11.81 33.4548 11.65C33.4548 11.47 33.4548 11.3 33.4548 11.14C33.4548 11.08 33.4548 11.02 33.4548 10.96C33.4548 10.88 33.4448 10.81 33.4248 10.75C33.4248 10.65 33.4148 10.56 33.3948 10.48C33.3948 10.38 33.3848 10.29 33.3648 10.21V10C33.3248 9.82 33.3048 9.65 33.3048 9.49C33.3048 9.31 33.3048 9.13 33.3048 8.95C33.3048 8.79 33.3048 8.63 33.3048 8.47C33.3048 8.29 33.2848 8.13 33.2448 7.99C33.2248 7.93 33.2148 7.87 33.2148 7.81C33.2148 7.75 33.2148 7.69 33.2148 7.63C33.2148 7.49 33.2148 7.36 33.2148 7.24C33.2148 7.1 33.1948 6.96 33.1548 6.82C33.1348 6.78 33.1248 6.71 33.1248 6.61V5.11C33.1248 5.01 33.1248 4.92 33.1248 4.84C33.1248 4.74 33.1048 4.65 33.0648 4.57C33.0048 4.37 33.0148 4.14 33.0948 3.88C33.1348 3.78 33.1748 3.71 33.2148 3.67C33.2548 3.61 33.2948 3.55 33.3348 3.49C33.3748 3.43 33.4048 3.37 33.4248 3.31C33.4648 3.25 33.4948 3.22 33.5148 3.22C33.5948 3.2 33.6548 3.17 33.6948 3.13C33.7548 3.09 33.8048 3.05 33.8448 3.01L34.0248 2.92C34.0648 2.9 34.1248 2.89 34.2048 2.89C34.3048 2.91 34.4048 2.93 34.5048 2.95C34.6248 2.95 34.7348 2.96 34.8348 2.98C34.9548 2.98 35.0448 3.03 35.1048 3.13C35.2048 3.27 35.3048 3.41 35.4048 3.55C35.5048 3.69 35.5848 3.84 35.6448 4C35.7048 4.14 35.7848 4.26 35.8848 4.36C36.0048 4.52 36.1248 4.68 36.2448 4.84C36.3648 5 36.4948 5.16 36.6348 5.32C36.6948 5.38 36.7448 5.45 36.7848 5.53C36.8448 5.61 36.8948 5.69 36.9348 5.77C37.0348 5.91 37.1248 6.05 37.2048 6.19C37.3048 6.31 37.4048 6.44 37.5048 6.58L37.9548 7.3C37.9948 7.38 38.0348 7.46 38.0748 7.54C38.1148 7.6 38.1548 7.66 38.1948 7.72C38.2348 7.82 38.2948 7.83 38.3748 7.75C38.4548 7.65 38.5348 7.55 38.6148 7.45C38.7148 7.33 38.8048 7.22 38.8848 7.12C39.0648 6.9 39.2448 6.67 39.4248 6.43C39.6048 6.19 39.7948 5.96 39.9948 5.74L40.1748 5.47C40.3148 5.27 40.4448 5.08 40.5648 4.9C40.7048 4.7 40.8348 4.5 40.9548 4.3C41.0948 4.08 41.2148 3.86 41.3148 3.64C41.4348 3.42 41.5348 3.2 41.6148 2.98L41.9748 2.17C42.0948 1.93 42.2648 1.73 42.4848 1.57C42.7848 1.33 43.1148 1.24 43.4748 1.3C43.6148 1.32 43.7448 1.36 43.8648 1.42C43.9848 1.46 44.1048 1.5 44.2248 1.54C44.3448 1.58 44.4248 1.67 44.4648 1.81C44.5048 1.87 44.5348 1.93 44.5548 1.99C44.5748 2.05 44.5848 2.11 44.5848 2.17C44.6048 2.31 44.6348 2.44 44.6748 2.56C44.7148 2.66 44.7448 2.78 44.7648 2.92L44.7948 3.22C44.8348 3.4 44.8748 3.58 44.9148 3.76C44.9748 3.94 45.0248 4.12 45.0648 4.3V4.36C45.0848 4.56 45.1048 4.76 45.1248 4.96C45.1648 5.14 45.1748 5.33 45.1548 5.53V6.22C45.1548 6.32 45.1548 6.42 45.1548 6.52C45.1548 6.62 45.1448 6.72 45.1248 6.82C45.1048 6.96 45.0948 7.1 45.0948 7.24C45.0948 7.36 45.0948 7.49 45.0948 7.63C45.0748 7.71 45.0648 7.79 45.0648 7.87C45.0648 7.95 45.0548 8.03 45.0348 8.11C45.0148 8.19 45.0048 8.27 45.0048 8.35C45.0048 8.41 45.0048 8.49 45.0048 8.59V9.43C45.0048 9.57 44.9948 9.7 44.9748 9.82C44.9748 9.94 44.9648 10.07 44.9448 10.21C44.9248 10.29 44.9148 10.37 44.9148 10.45C44.9148 10.51 44.9148 10.58 44.9148 10.66V12.49C44.9148 12.63 44.9148 12.77 44.9148 12.91C44.9348 13.05 44.9548 13.19 44.9748 13.33C44.9948 13.43 45.0048 13.54 45.0048 13.66C45.0048 13.76 45.0048 13.86 45.0048 13.96C45.0248 14.1 45.0348 14.24 45.0348 14.38C45.0348 14.5 45.0448 14.64 45.0648 14.8V15.13C45.0848 15.29 45.0948 15.46 45.0948 15.64C45.0948 15.8 45.0948 15.96 45.0948 16.12V16.51C45.1348 16.65 45.1548 16.8 45.1548 16.96C45.1548 17.12 45.1648 17.28 45.1848 17.44V17.65C45.2248 17.77 45.2448 17.89 45.2448 18.01C45.2448 18.13 45.2548 18.25 45.2748 18.37L45.3648 19.45C45.3848 19.53 45.3948 19.61 45.3948 19.69C45.4148 19.75 45.4248 19.82 45.4248 19.9C45.4448 19.98 45.4548 20.06 45.4548 20.14C45.4548 20.2 45.4648 20.27 45.4848 20.35C45.4848 20.37 45.4848 20.4 45.4848 20.44C45.5048 20.48 45.5148 20.52 45.5148 20.56C45.5148 20.7 45.5248 20.85 45.5448 21.01C45.5848 21.17 45.6148 21.33 45.6348 21.49L45.7548 22.33C45.7548 22.45 45.7448 22.53 45.7248 22.57C45.7048 22.69 45.6548 22.8 45.5748 22.9C45.5148 23.02 45.4648 23.13 45.4248 23.23C45.4248 23.25 45.4148 23.26 45.3948 23.26C45.2548 23.38 45.1148 23.48 44.9748 23.56C44.8348 23.66 44.6848 23.73 44.5248 23.77ZM53.4202 22.21C53.3002 22.21 53.2202 22.2 53.1802 22.18C53.0802 22.14 52.9802 22.12 52.8802 22.12C52.8002 22.14 52.7102 22.15 52.6102 22.15C52.5902 22.15 52.5702 22.15 52.5502 22.15C52.5302 22.17 52.5102 22.18 52.4902 22.18C52.3502 22.2 52.2102 22.21 52.0702 22.21C51.9502 22.21 51.8302 22.19 51.7102 22.15C51.6902 22.13 51.6702 22.12 51.6502 22.12C51.5102 22.14 51.3902 22.1 51.2902 22C51.1902 21.9 51.0902 21.81 50.9902 21.73C50.8902 21.63 50.8402 21.52 50.8402 21.4L50.7502 21.16C50.6902 21.02 50.6702 20.89 50.6902 20.77C50.7102 20.73 50.7102 20.69 50.6902 20.65C50.6902 20.61 50.6902 20.57 50.6902 20.53C50.6702 20.49 50.6602 20.45 50.6602 20.41C50.6602 20.35 50.6502 20.3 50.6302 20.26C50.5902 20.08 50.5602 19.9 50.5402 19.72C50.5402 19.52 50.5502 19.33 50.5702 19.15C50.5902 19.03 50.6602 18.83 50.7802 18.55C50.9002 18.25 50.9702 18.07 50.9902 18.01C51.0502 17.91 51.0802 17.83 51.0802 17.77C51.0602 17.55 51.0502 17.33 51.0502 17.11C51.0702 16.87 51.0802 16.64 51.0802 16.42C51.0802 16.28 51.1102 16.17 51.1702 16.09C51.2502 15.95 51.2602 15.8 51.2002 15.64L51.1102 15.31C50.9902 15.09 51.0002 14.9 51.1402 14.74C51.1402 14.72 51.1402 14.71 51.1402 14.71C51.1602 14.69 51.1702 14.67 51.1702 14.65C51.2102 14.61 51.2202 14.56 51.2002 14.5C51.1802 14.42 51.1702 14.36 51.1702 14.32C51.1702 14.24 51.1802 14.16 51.2002 14.08C51.2402 13.98 51.2502 13.89 51.2302 13.81C51.2302 13.81 51.2102 13.79 51.1702 13.75C51.1502 13.71 51.1402 13.63 51.1402 13.51C51.1602 13.39 51.1702 13.32 51.1702 13.3V12.46C51.1902 12.36 51.2002 12.27 51.2002 12.19C51.2002 12.09 51.2102 11.99 51.2302 11.89C51.2502 11.77 51.2502 11.65 51.2302 11.53C51.2302 11.39 51.2302 11.25 51.2302 11.11C51.2102 11.01 51.1902 10.9 51.1702 10.78C51.1702 10.66 51.1702 10.54 51.1702 10.42C51.1502 10.38 51.1402 10.33 51.1402 10.27C51.1402 10.21 51.1402 10.16 51.1402 10.12C51.1202 10.02 51.1002 9.92 51.0802 9.82C51.0802 9.72 51.0802 9.62 51.0802 9.52C51.0802 9.48 51.0402 9.35 50.9602 9.13C50.8802 8.89 50.8502 8.69 50.8702 8.53C50.8902 8.49 50.9002 8.44 50.9002 8.38C50.9002 8.32 50.8802 8.27 50.8402 8.23C50.8002 8.21 50.7802 8.17 50.7802 8.11V8.02C50.8402 7.78 50.8102 7.54 50.6902 7.3C50.6102 7.18 50.5802 7.06 50.6002 6.94C50.6002 6.78 50.5302 6.66 50.3902 6.58C50.2902 6.48 50.2002 6.36 50.1202 6.22C50.0402 6.08 49.9902 5.94 49.9702 5.8C49.9502 5.7 49.9402 5.6 49.9402 5.5C49.9402 5.4 49.9402 5.31 49.9402 5.23C49.9402 5.15 49.9502 5.1 49.9702 5.08C50.0502 5 50.0902 4.91 50.0902 4.81C50.0902 4.69 50.1002 4.6 50.1202 4.54C50.1402 4.52 50.1602 4.51 50.1802 4.51C50.2002 4.51 50.2202 4.5 50.2402 4.48C50.3202 4.46 50.3602 4.39 50.3602 4.27C50.3202 4.19 50.3002 4.12 50.3002 4.06C50.2802 3.98 50.3102 3.91 50.3902 3.85C50.4302 3.77 50.4802 3.75 50.5402 3.79C50.6802 3.85 50.8402 3.83 51.0202 3.73C51.1002 3.69 51.1502 3.67 51.1702 3.67C51.2302 3.67 51.2602 3.67 51.2602 3.67C51.2802 3.65 51.3402 3.64 51.4402 3.64C51.5602 3.66 51.6702 3.62 51.7702 3.52C51.9102 3.38 52.0802 3.31 52.2802 3.31H54.1402C54.6002 3.33 55.0602 3.33 55.5202 3.31C55.9802 3.29 56.4302 3.28 56.8702 3.28C56.9702 3.28 57.0502 3.28 57.1102 3.28C57.1902 3.26 57.2702 3.24 57.3502 3.22C57.4702 3.16 57.6102 3.13 57.7702 3.13H58.4602C58.6202 3.13 58.7602 3.13 58.8802 3.13C59.0202 3.11 59.1602 3.09 59.3002 3.07C59.3802 3.05 59.4502 3.04 59.5102 3.04C59.5902 3.04 59.6702 3.04 59.7502 3.04C59.8302 3.04 59.9102 3.04 59.9902 3.04C60.0702 3.04 60.1502 3.03 60.2302 3.01C60.3902 2.99 60.5602 2.98 60.7402 2.98C60.9202 2.96 61.0902 2.95 61.2502 2.95C61.3302 2.95 61.4002 2.95 61.4602 2.95C61.5402 2.93 61.6202 2.91 61.7002 2.89C61.8602 2.85 62.0102 2.83 62.1502 2.83C62.3102 2.81 62.4602 2.79 62.6002 2.77C62.7602 2.75 62.9102 2.73 63.0502 2.71C63.2102 2.69 63.3602 2.67 63.5002 2.65C63.6802 2.65 63.8102 2.67 63.8902 2.71C64.0102 2.79 64.1202 2.86 64.2202 2.92C64.3402 2.98 64.4502 3.06 64.5502 3.16C64.6302 3.24 64.6802 3.31 64.7002 3.37C64.7202 3.45 64.7402 3.53 64.7602 3.61C64.7802 3.69 64.8002 3.78 64.8202 3.88V4.09C64.8002 4.19 64.7802 4.3 64.7602 4.42C64.7602 4.52 64.7502 4.63 64.7302 4.75C64.6902 4.83 64.6402 4.9 64.5802 4.96L64.0402 5.5C63.8402 5.56 63.6402 5.6 63.4402 5.62C63.2602 5.64 63.0702 5.64 62.8702 5.62H62.6602C62.5602 5.64 62.4602 5.65 62.3602 5.65C62.2602 5.65 62.1602 5.64 62.0602 5.62C61.9402 5.6 61.8202 5.6 61.7002 5.62C61.5802 5.62 61.4602 5.62 61.3402 5.62C61.2602 5.62 61.1802 5.63 61.1002 5.65C61.0402 5.65 60.9702 5.64 60.8902 5.62C60.7902 5.6 60.6902 5.6 60.5902 5.62C60.5102 5.62 60.4202 5.63 60.3202 5.65C60.2402 5.65 60.1502 5.66 60.0502 5.68C59.9702 5.68 59.8802 5.68 59.7802 5.68C59.5202 5.72 59.2402 5.74 58.9402 5.74C58.6602 5.74 58.3802 5.76 58.1002 5.8C57.9202 5.78 57.7502 5.79 57.5902 5.83C57.4302 5.85 57.2602 5.87 57.0802 5.89C56.9202 5.91 56.7502 5.92 56.5702 5.92C56.3902 5.92 56.2202 5.94 56.0602 5.98C55.8602 5.98 55.6602 6.01 55.4602 6.07C55.2802 6.11 55.0902 6.14 54.8902 6.16L54.6802 6.19C54.5402 6.19 54.4102 6.21 54.2902 6.25C54.1702 6.27 54.0402 6.3 53.9002 6.34C53.8202 6.36 53.7402 6.38 53.6602 6.4C53.5802 6.4 53.4902 6.41 53.3902 6.43C53.3302 6.43 53.2602 6.45 53.1802 6.49C53.1202 6.51 53.0902 6.57 53.0902 6.67L53.1802 6.94C53.2002 6.98 53.1902 7.08 53.1502 7.24C53.1302 7.4 53.1102 7.52 53.0902 7.6C53.0902 7.66 53.1002 7.72 53.1202 7.78C53.1402 7.84 53.1602 7.9 53.1802 7.96C53.2402 8.12 53.2702 8.3 53.2702 8.5C53.2702 8.68 53.2902 8.85 53.3302 9.01C53.3502 9.09 53.3602 9.18 53.3602 9.28C53.3602 9.36 53.3702 9.45 53.3902 9.55C53.3902 9.59 53.3902 9.64 53.3902 9.7C53.4102 9.74 53.4202 9.79 53.4202 9.85C53.4202 9.91 53.4102 9.95 53.3902 9.97C53.3302 10.05 53.3002 10.14 53.3002 10.24C53.3002 10.34 53.3002 10.44 53.3002 10.54C53.4002 10.74 53.4502 10.94 53.4502 11.14C53.4502 11.34 53.4502 11.54 53.4502 11.74C53.4502 11.8 53.5002 11.82 53.6002 11.8H53.6302C53.6702 11.72 53.7102 11.66 53.7502 11.62C53.8102 11.62 53.8802 11.6 53.9602 11.56C54.0202 11.52 54.1002 11.5 54.2002 11.5C54.3602 11.52 54.5102 11.52 54.6502 11.5C54.7902 11.46 54.9302 11.42 55.0702 11.38C56.0102 11.14 56.8902 10.83 57.7102 10.45C57.9302 10.35 58.1602 10.27 58.4002 10.21C58.6402 10.13 58.8802 10.08 59.1202 10.06H59.2102C59.3902 10.04 59.5702 10.02 59.7502 10C59.9302 9.98 60.1102 9.97 60.2902 9.97C60.5302 9.95 60.7602 9.92 60.9802 9.88C61.2202 9.84 61.4602 9.81 61.7002 9.79C61.8402 9.75 61.9702 9.72 62.0902 9.7C62.2102 9.66 62.3402 9.61 62.4802 9.55C62.7402 9.45 62.9802 9.4 63.2002 9.4C63.3602 9.42 63.5102 9.46 63.6502 9.52C63.7902 9.56 63.9302 9.62 64.0702 9.7C64.3702 9.9 64.5202 10.2 64.5202 10.6C64.5202 10.76 64.5002 10.92 64.4602 11.08C64.4402 11.24 64.4302 11.4 64.4302 11.56C64.4302 11.6 64.4102 11.64 64.3702 11.68L64.2802 11.83C64.2602 11.91 64.2402 11.99 64.2202 12.07C64.2002 12.15 64.1502 12.21 64.0702 12.25C63.9502 12.35 63.8202 12.46 63.6802 12.58C63.5602 12.68 63.4202 12.75 63.2602 12.79C63.1802 12.81 63.1002 12.83 63.0202 12.85C62.9602 12.87 62.8902 12.88 62.8102 12.88C62.4902 12.88 62.1602 12.9 61.8202 12.94C61.5002 12.98 61.1702 13.02 60.8302 13.06C60.5702 13.08 60.3102 13.11 60.0502 13.15C59.8102 13.19 59.5602 13.21 59.3002 13.21C59.0602 13.21 58.7902 13.26 58.4902 13.36C58.2902 13.4 58.0802 13.44 57.8602 13.48C57.6402 13.52 57.4202 13.55 57.2002 13.57C57.0402 13.59 56.8702 13.62 56.6902 13.66C56.5302 13.68 56.3702 13.7 56.2102 13.72L55.7002 13.81C55.6602 13.83 55.6002 13.84 55.5202 13.84C55.3802 13.88 55.2402 13.91 55.1002 13.93C54.9602 13.95 54.8202 13.98 54.6802 14.02C54.5402 14.04 54.4002 14.07 54.2602 14.11C54.1402 14.15 54.0102 14.19 53.8702 14.23C53.7702 14.25 53.6902 14.29 53.6302 14.35C53.5702 14.39 53.5202 14.45 53.4802 14.53C53.4602 14.59 53.4602 14.65 53.4802 14.71C53.5002 14.79 53.4902 14.87 53.4502 14.95C53.4702 15.15 53.4802 15.35 53.4802 15.55C53.5002 15.75 53.5002 15.95 53.4802 16.15C53.5202 16.31 53.5302 16.47 53.5102 16.63C53.5102 16.79 53.5002 16.95 53.4802 17.11C53.4402 17.35 53.4502 17.55 53.5102 17.71C53.5702 17.97 53.5502 18.24 53.4502 18.52C53.4102 18.64 53.4102 18.72 53.4502 18.76C53.4902 18.82 53.4902 18.89 53.4502 18.97V19.15C53.4302 19.31 53.5002 19.39 53.6602 19.39H53.7202C53.8602 19.39 54.0002 19.44 54.1402 19.54C54.2402 19.64 54.3602 19.67 54.5002 19.63L55.3402 19.54C55.4602 19.52 55.5802 19.51 55.7002 19.51C55.8202 19.49 55.9402 19.48 56.0602 19.48C56.1002 19.46 56.1602 19.47 56.2402 19.51C56.3402 19.57 56.4302 19.58 56.5102 19.54C56.5502 19.5 56.6002 19.47 56.6602 19.45C56.7402 19.43 56.8002 19.4 56.8402 19.36C56.9602 19.24 57.1102 19.2 57.2902 19.24C57.4502 19.28 57.5802 19.27 57.6802 19.21C57.8602 19.15 58.0302 19.13 58.1902 19.15C58.2902 19.17 58.3902 19.16 58.4902 19.12C58.5902 19.08 58.6902 19.06 58.7902 19.06C58.8302 19.06 58.8602 19.07 58.8802 19.09C58.9002 19.09 58.9202 19.08 58.9402 19.06C58.9802 19.06 59.0202 19.05 59.0602 19.03C59.1002 19.01 59.1302 19 59.1502 19C59.2902 18.94 59.4202 18.92 59.5402 18.94C59.6402 18.94 59.6902 18.94 59.6902 18.94C59.7702 18.92 59.8402 18.92 59.9002 18.94C59.9802 18.96 60.0502 18.99 60.1102 19.03C60.2102 19.05 60.2902 19.08 60.3502 19.12C60.4302 19.16 60.5102 19.19 60.5902 19.21C60.6302 19.21 60.6602 19.22 60.6802 19.24C60.7802 19.32 60.9002 19.39 61.0402 19.45C61.2002 19.51 61.2902 19.58 61.3102 19.66C61.3502 19.78 61.3702 19.9 61.3702 20.02C61.3702 20.12 61.3802 20.23 61.4002 20.35C61.4002 20.41 61.3902 20.47 61.3702 20.53C61.3702 20.59 61.3602 20.65 61.3402 20.71C61.3002 20.79 61.2502 20.88 61.1902 20.98C61.1502 21.08 61.0902 21.17 61.0102 21.25C60.9702 21.29 60.9302 21.33 60.8902 21.37C60.8702 21.41 60.8402 21.45 60.8002 21.49C60.7202 21.57 60.6302 21.64 60.5302 21.7C60.4302 21.76 60.3202 21.79 60.2002 21.79C60.1202 21.79 60.0602 21.8 60.0202 21.82C59.9402 21.86 59.8602 21.88 59.7802 21.88C59.7002 21.88 59.6102 21.88 59.5102 21.88C59.3702 21.9 59.2302 21.92 59.0902 21.94C58.9702 21.94 58.8402 21.93 58.7002 21.91C58.6202 21.89 58.5502 21.89 58.4902 21.91C58.2902 21.97 58.0902 21.98 57.8902 21.94C57.6902 21.94 57.4902 21.95 57.2902 21.97C57.1102 21.97 56.9302 21.97 56.7502 21.97H56.3602C56.3002 21.97 56.2502 21.98 56.2102 22C56.1302 22.04 56.0302 22.06 55.9102 22.06C55.8102 22.06 55.7102 22.05 55.6102 22.03H55.3102C55.2902 22.03 55.2602 22.03 55.2202 22.03C55.1802 22.05 55.1402 22.05 55.1002 22.03C55.0402 22.01 54.9802 22 54.9202 22C54.8802 22.02 54.8302 22.04 54.7702 22.06C54.7302 22.06 54.6902 22.06 54.6502 22.06C54.6302 22.08 54.6002 22.09 54.5602 22.09C54.3602 22.07 54.1702 22.07 53.9902 22.09C53.8102 22.13 53.6202 22.17 53.4202 22.21ZM78.2255 22.27C78.1655 22.25 78.0955 22.23 78.0155 22.21C77.9555 22.19 77.8955 22.17 77.8355 22.15C77.6755 22.09 77.5155 22.01 77.3555 21.91C77.2755 21.87 77.2155 21.81 77.1755 21.73C77.0355 21.51 76.9055 21.31 76.7855 21.13C76.6655 20.93 76.5355 20.73 76.3955 20.53L76.1255 20.05C75.9855 19.77 75.8455 19.5 75.7055 19.24C75.5655 18.96 75.4255 18.69 75.2855 18.43C75.2455 18.33 75.1955 18.25 75.1355 18.19C75.0955 18.11 75.0555 18.03 75.0155 17.95C74.8755 17.73 74.7455 17.51 74.6255 17.29C74.5055 17.05 74.3855 16.82 74.2655 16.6L73.5155 15.13C73.3155 14.73 73.1155 14.34 72.9155 13.96C72.7155 13.56 72.5155 13.16 72.3155 12.76C72.2755 12.72 72.2355 12.66 72.1955 12.58C72.1155 12.36 72.0155 12.15 71.8955 11.95C71.7955 11.75 71.6955 11.55 71.5955 11.35C71.5155 11.21 71.4455 11.07 71.3855 10.93C71.3255 10.77 71.2555 10.62 71.1755 10.48L70.8455 9.88C70.8055 9.88 70.7755 9.87 70.7555 9.85C70.7555 9.85 70.7455 9.86 70.7255 9.88C70.7255 9.88 70.7255 9.89 70.7255 9.91C70.7055 10.17 70.6855 10.44 70.6655 10.72C70.6455 11 70.6455 11.28 70.6655 11.56C70.7055 11.68 70.7055 11.81 70.6655 11.95C70.6255 12.31 70.6355 12.63 70.6955 12.91C70.7155 12.99 70.7155 13.07 70.6955 13.15C70.6955 13.23 70.6855 13.32 70.6655 13.42C70.6455 13.56 70.6355 13.69 70.6355 13.81C70.6355 13.93 70.6255 14.06 70.6055 14.2C70.6455 14.28 70.6655 14.37 70.6655 14.47C70.6655 14.55 70.6555 14.63 70.6355 14.71C70.5755 14.91 70.5755 15.12 70.6355 15.34C70.6755 15.4 70.6755 15.46 70.6355 15.52C70.5555 15.7 70.5355 15.92 70.5755 16.18C70.6355 16.52 70.6155 16.89 70.5155 17.29C70.4955 17.33 70.4855 17.4 70.4855 17.5C70.4655 17.58 70.4855 17.65 70.5455 17.71C70.6255 17.75 70.6455 17.8 70.6055 17.86C70.5855 18.12 70.5855 18.39 70.6055 18.67C70.6055 18.67 70.6055 18.68 70.6055 18.7C70.6055 18.7 70.5955 18.7 70.5755 18.7C70.5555 18.7 70.5455 18.69 70.5455 18.67C70.5255 18.65 70.5155 18.63 70.5155 18.61C70.4755 18.57 70.4555 18.58 70.4555 18.64C70.4555 18.74 70.4655 18.8 70.4855 18.82C70.5255 18.92 70.5455 19.02 70.5455 19.12C70.5455 19.22 70.5455 19.32 70.5455 19.42V20.35C70.5455 20.41 70.5355 20.47 70.5155 20.53C70.5155 20.59 70.4855 20.64 70.4255 20.68C70.3455 20.7 70.3055 20.77 70.3055 20.89C70.2855 21.11 70.2055 21.3 70.0655 21.46C69.9455 21.62 69.8055 21.76 69.6455 21.88C69.5655 21.94 69.4655 21.98 69.3455 22C69.2455 22 69.1455 21.99 69.0455 21.97L68.5055 21.79C68.4655 21.79 68.4255 21.76 68.3855 21.7C68.3255 21.64 68.2655 21.58 68.2055 21.52C68.1455 21.44 68.0755 21.37 67.9955 21.31C67.8955 21.25 67.8255 21.14 67.7855 20.98C67.7655 20.88 67.7355 20.77 67.6955 20.65C67.6555 20.53 67.6355 20.41 67.6355 20.29C67.6355 20.15 67.6355 20.02 67.6355 19.9C67.6555 19.78 67.6655 19.65 67.6655 19.51C67.6855 19.41 67.6955 19.32 67.6955 19.24C67.6955 19.14 67.7055 19.04 67.7255 18.94V7.96C67.7255 7.86 67.7255 7.76 67.7255 7.66C67.7455 7.56 67.7655 7.47 67.7855 7.39C67.7855 7.29 67.7855 7.19 67.7855 7.09C67.8055 6.99 67.8155 6.89 67.8155 6.79C67.8155 6.67 67.8155 6.55 67.8155 6.43C67.8355 6.31 67.8555 6.2 67.8755 6.1C67.8955 6.02 67.9055 5.95 67.9055 5.89C67.9055 5.83 67.9055 5.76 67.9055 5.68V4.75C67.9055 4.61 67.9155 4.49 67.9355 4.39C67.9755 4.27 68.0055 4.15 68.0255 4.03L68.1155 3.88C68.1755 3.82 68.2255 3.73 68.2655 3.61C68.3055 3.49 68.3655 3.43 68.4455 3.43C68.5055 3.39 68.5655 3.36 68.6255 3.34C68.6855 3.3 68.7255 3.24 68.7455 3.16L68.7755 3.13C68.7955 3.13 68.8155 3.13 68.8355 3.13C68.8555 3.11 68.8755 3.1 68.8955 3.1C68.9755 3.1 69.0355 3.08 69.0755 3.04C69.1355 3 69.2055 2.99 69.2855 3.01C69.3655 3.03 69.4455 3.04 69.5255 3.04C69.6055 3.04 69.6855 3.05 69.7655 3.07C70.2055 3.15 70.5155 3.41 70.6955 3.85L70.8755 4.45C70.8955 4.65 70.9855 4.84 71.1455 5.02C71.2655 5.16 71.3855 5.31 71.5055 5.47C71.6255 5.63 71.7555 5.79 71.8955 5.95C72.4155 6.61 72.8955 7.35 73.3355 8.17C73.3755 8.25 73.4155 8.33 73.4555 8.41C73.4955 8.49 73.5355 8.57 73.5755 8.65L75.1355 11.8C75.2555 12.02 75.3655 12.25 75.4655 12.49C75.5855 12.71 75.7155 12.93 75.8555 13.15C75.8955 13.23 75.9355 13.31 75.9755 13.39C76.0155 13.45 76.0455 13.52 76.0655 13.6C76.1655 13.84 76.2855 14.08 76.4255 14.32C76.4255 14.32 76.4255 14.33 76.4255 14.35C76.4455 14.35 76.4555 14.34 76.4555 14.32C76.4755 14.32 76.4855 14.32 76.4855 14.32C76.5055 14.3 76.5155 14.29 76.5155 14.29L76.6055 13.24V12.94C76.6255 12.84 76.6355 12.74 76.6355 12.64C76.6555 12.52 76.6755 12.41 76.6955 12.31C76.7155 12.25 76.7155 12.18 76.6955 12.1C76.6955 12.02 76.7055 11.94 76.7255 11.86C76.7255 11.74 76.7255 11.62 76.7255 11.5C76.7455 11.36 76.7655 11.23 76.7855 11.11C76.8055 11.05 76.8155 10.99 76.8155 10.93C76.8155 10.85 76.8155 10.78 76.8155 10.72V9.91H76.7855V9.1C76.7855 9 76.7855 8.9 76.7855 8.8C76.7855 8.7 76.7655 8.6 76.7255 8.5C76.7055 8.44 76.6955 8.35 76.6955 8.23L76.7255 8.02C76.7255 7.96 76.7155 7.91 76.6955 7.87C76.6955 7.81 76.6955 7.75 76.6955 7.69C76.7155 7.61 76.7055 7.53 76.6655 7.45C76.6255 7.37 76.6055 7.29 76.6055 7.21C76.6255 7.13 76.6355 7.05 76.6355 6.97C76.6355 6.89 76.6355 6.81 76.6355 6.73C76.6355 6.65 76.5955 6.61 76.5155 6.61C76.4955 6.61 76.4855 6.59 76.4855 6.55C76.4655 6.49 76.4655 6.44 76.4855 6.4C76.5255 6.3 76.5455 6.19 76.5455 6.07C76.5455 5.95 76.5455 5.83 76.5455 5.71V4.84C76.5255 4.72 76.5355 4.6 76.5755 4.48C76.6155 4.36 76.6655 4.25 76.7255 4.15L76.8455 3.97C76.9455 3.87 77.0555 3.77 77.1755 3.67C77.2955 3.57 77.4155 3.47 77.5355 3.37C77.5355 3.37 77.5755 3.35 77.6555 3.31C77.7555 3.29 77.8455 3.27 77.9255 3.25C78.0255 3.23 78.1255 3.23 78.2255 3.25C78.3055 3.25 78.3655 3.26 78.4055 3.28C78.4855 3.32 78.5655 3.37 78.6455 3.43C78.7255 3.47 78.8055 3.52 78.8855 3.58C78.9255 3.6 78.9455 3.62 78.9455 3.64C78.9655 3.66 78.9855 3.68 79.0055 3.7C79.0455 3.74 79.0755 3.79 79.0955 3.85C79.1355 3.89 79.1655 3.93 79.1855 3.97C79.2855 4.05 79.3455 4.15 79.3655 4.27C79.4055 4.37 79.4355 4.47 79.4555 4.57V5.83C79.4555 5.97 79.4555 6.11 79.4555 6.25C79.4755 6.37 79.4955 6.5 79.5155 6.64C79.5355 6.72 79.5455 6.8 79.5455 6.88C79.5455 6.94 79.5455 7.01 79.5455 7.09C79.5455 7.25 79.5455 7.42 79.5455 7.6C79.5655 7.76 79.5755 7.92 79.5755 8.08V8.29C79.5755 8.43 79.5655 8.57 79.5455 8.71C79.5455 8.83 79.5455 8.96 79.5455 9.1V10.42C79.5455 10.62 79.5355 10.83 79.5155 11.05C79.5155 11.25 79.5255 11.46 79.5455 11.68C79.5455 11.76 79.5355 11.82 79.5155 11.86C79.4955 12.06 79.4855 12.26 79.4855 12.46C79.4855 12.64 79.4755 12.83 79.4555 13.03C79.4555 13.11 79.4555 13.2 79.4555 13.3C79.4555 13.4 79.4455 13.5 79.4255 13.6C79.4055 13.68 79.3955 13.76 79.3955 13.84C79.4155 13.92 79.4255 14 79.4255 14.08C79.4655 14.26 79.4755 14.44 79.4555 14.62C79.4555 14.8 79.4455 14.98 79.4255 15.16C79.4055 15.48 79.3855 15.81 79.3655 16.15C79.3655 16.47 79.3855 16.8 79.4255 17.14C79.4255 17.22 79.4255 17.31 79.4255 17.41C79.4455 17.51 79.4555 17.61 79.4555 17.71C79.4355 18.01 79.4455 18.3 79.4855 18.58C79.5455 18.86 79.6055 19.14 79.6655 19.42C79.7055 19.62 79.7455 19.82 79.7855 20.02C79.8255 20.2 79.8555 20.4 79.8755 20.62C79.8755 20.7 79.8655 20.75 79.8455 20.77C79.8255 20.81 79.8055 20.86 79.7855 20.92C79.7655 20.96 79.7555 21 79.7555 21.04C79.7355 21.2 79.6755 21.35 79.5755 21.49C79.4955 21.63 79.4055 21.77 79.3055 21.91C79.0455 22.25 78.6855 22.37 78.2255 22.27ZM88.9941 21.97C88.9541 21.95 88.8941 21.94 88.8141 21.94C88.7741 21.94 88.7341 21.91 88.6941 21.85C88.6541 21.79 88.6141 21.74 88.5741 21.7C88.5341 21.64 88.4941 21.57 88.4541 21.49C88.3941 21.41 88.3441 21.41 88.3041 21.49H88.2441C88.2441 21.47 88.2341 21.46 88.2141 21.46C88.2141 21.44 88.2141 21.43 88.2141 21.43C88.1541 21.15 88.0641 20.89 87.9441 20.65C87.8841 20.49 87.8241 20.33 87.7641 20.17C87.7241 19.99 87.6941 19.81 87.6741 19.63L87.4941 18.31L87.4041 17.23V17.17C87.3641 16.93 87.3441 16.69 87.3441 16.45C87.3441 16.19 87.3441 15.93 87.3441 15.67C87.3241 15.53 87.3141 15.4 87.3141 15.28C87.3141 15.14 87.3041 15 87.2841 14.86C87.2641 14.7 87.2441 14.54 87.2241 14.38C87.2241 14.22 87.2241 14.07 87.2241 13.93L87.2541 11.56V8.35C87.2141 8.23 87.1541 8.17 87.0741 8.17C87.0341 8.17 86.9841 8.18 86.9241 8.2C86.8841 8.2 86.8441 8.2 86.8041 8.2L85.4541 8.56C85.2741 8.62 85.0941 8.68 84.9141 8.74C84.7341 8.78 84.5541 8.83 84.3741 8.89C84.2341 8.91 84.0941 8.93 83.9541 8.95C83.8341 8.95 83.7041 8.95 83.5641 8.95C83.4641 8.95 83.3541 8.91 83.2341 8.83C83.0941 8.77 82.9741 8.69 82.8741 8.59C82.7741 8.49 82.6741 8.38 82.5741 8.26L82.5141 8.17C82.4741 8.03 82.4341 7.9 82.3941 7.78C82.3741 7.64 82.3741 7.5 82.3941 7.36C82.4141 7.18 82.4541 7.01 82.5141 6.85C82.5941 6.69 82.7041 6.55 82.8441 6.43C82.9041 6.39 82.9541 6.34 82.9941 6.28C83.0541 6.22 83.1141 6.16 83.1741 6.1C83.2541 6.06 83.3041 6.04 83.3241 6.04C83.4441 6.04 83.5541 6.02 83.6541 5.98C83.7541 5.92 83.8541 5.88 83.9541 5.86C84.0541 5.84 84.1541 5.82 84.2541 5.8C84.3541 5.78 84.4541 5.76 84.5541 5.74C84.8341 5.66 85.1141 5.59 85.3941 5.53C85.6741 5.45 85.9541 5.39 86.2341 5.35L87.8541 5.08C87.8941 5.06 87.9241 5.05 87.9441 5.05C87.9841 5.05 88.0141 5.04 88.0341 5.02C88.1541 4.98 88.2741 4.95 88.3941 4.93C88.5141 4.91 88.6341 4.92 88.7541 4.96C88.7941 4.98 88.8241 4.99 88.8441 4.99C88.8841 4.97 88.9141 4.96 88.9341 4.96C89.2741 4.92 89.6141 4.88 89.9541 4.84C90.2941 4.8 90.6241 4.75 90.9441 4.69C91.2041 4.65 91.4641 4.61 91.7241 4.57C91.9841 4.53 92.2441 4.5 92.5041 4.48C92.7041 4.44 92.9041 4.41 93.1041 4.39C93.3041 4.37 93.5041 4.35 93.7041 4.33C93.8641 4.31 94.0241 4.29 94.1841 4.27C94.3641 4.25 94.5341 4.23 94.6941 4.21C94.8541 4.19 95.0041 4.19 95.1441 4.21C95.3041 4.21 95.4641 4.21 95.6241 4.21C95.7241 4.21 95.8141 4.24 95.8941 4.3C95.9941 4.36 96.0841 4.41 96.1641 4.45C96.2441 4.51 96.3541 4.61 96.4941 4.75C96.5341 4.79 96.5741 4.88 96.6141 5.02C96.6341 5.08 96.6541 5.15 96.6741 5.23C96.6941 5.29 96.7141 5.36 96.7341 5.44C96.7741 5.62 96.7541 5.79 96.6741 5.95L96.4941 6.37C96.4741 6.43 96.4441 6.49 96.4041 6.55C96.3841 6.59 96.3541 6.63 96.3141 6.67C96.2741 6.71 96.2541 6.73 96.2541 6.73C96.1741 6.79 96.0841 6.85 95.9841 6.91C95.9041 6.97 95.8041 7.01 95.6841 7.03L94.3941 7.12C94.2741 7.12 94.1541 7.13 94.0341 7.15C93.9141 7.15 93.7841 7.16 93.6441 7.18H93.4941C93.1741 7.2 92.8641 7.23 92.5641 7.27C92.2641 7.31 91.9641 7.35 91.6641 7.39L90.4641 7.57C90.4041 7.57 90.3641 7.58 90.3441 7.6C90.2641 7.6 90.2041 7.66 90.1641 7.78V7.87C90.1641 8.07 90.1641 8.27 90.1641 8.47C90.1641 8.65 90.1741 8.84 90.1941 9.04C90.2541 9.32 90.2541 9.6 90.1941 9.88C90.1741 9.94 90.1541 10 90.1341 10.06C90.1341 10.1 90.1341 10.14 90.1341 10.18C90.1541 10.42 90.1341 10.68 90.0741 10.96C90.0741 11.02 90.0741 11.08 90.0741 11.14C90.0741 11.2 90.0841 11.26 90.1041 11.32C90.1241 11.4 90.1341 11.49 90.1341 11.59C90.1341 11.69 90.1341 11.79 90.1341 11.89V13.45C90.1341 13.53 90.1241 13.63 90.1041 13.75C90.1041 13.85 90.1041 13.95 90.1041 14.05C90.1041 14.13 90.1041 14.22 90.1041 14.32C90.1241 14.42 90.1341 14.52 90.1341 14.62C90.1341 14.76 90.1341 14.9 90.1341 15.04C90.1541 15.18 90.1541 15.33 90.1341 15.49V16.42C90.1341 16.44 90.1241 16.46 90.1041 16.48C90.1041 16.5 90.1141 16.53 90.1341 16.57C90.1541 16.75 90.1641 16.94 90.1641 17.14C90.1641 17.32 90.1841 17.5 90.2241 17.68C90.2241 17.74 90.2241 17.8 90.2241 17.86C90.2441 17.92 90.2441 17.98 90.2241 18.04C90.2241 18.22 90.2441 18.41 90.2841 18.61C90.3241 18.79 90.3541 18.97 90.3741 19.15C90.4141 19.37 90.4541 19.59 90.4941 19.81C90.5541 20.03 90.6041 20.25 90.6441 20.47L90.7341 20.89C90.7341 20.95 90.7041 21 90.6441 21.04C90.6441 21.04 90.6341 21.04 90.6141 21.04C90.6141 21.04 90.6041 21.05 90.5841 21.07C90.4841 21.11 90.4441 21.17 90.4641 21.25V21.4C90.4641 21.4 90.4541 21.41 90.4341 21.43C90.4341 21.45 90.4241 21.46 90.4041 21.46C90.3041 21.46 90.2241 21.5 90.1641 21.58C90.1041 21.66 90.0341 21.73 89.9541 21.79C89.8941 21.83 89.8141 21.87 89.7141 21.91C89.4541 22.01 89.2141 22.03 88.9941 21.97ZM102.873 22.21C102.753 22.21 102.673 22.2 102.633 22.18C102.533 22.14 102.433 22.12 102.333 22.12C102.253 22.14 102.163 22.15 102.063 22.15C102.043 22.15 102.023 22.15 102.003 22.15C101.983 22.17 101.963 22.18 101.943 22.18C101.803 22.2 101.663 22.21 101.523 22.21C101.403 22.21 101.283 22.19 101.163 22.15C101.143 22.13 101.123 22.12 101.103 22.12C100.963 22.14 100.843 22.1 100.743 22C100.643 21.9 100.543 21.81 100.443 21.73C100.343 21.63 100.293 21.52 100.293 21.4L100.203 21.16C100.143 21.02 100.123 20.89 100.143 20.77C100.163 20.73 100.163 20.69 100.143 20.65C100.143 20.61 100.143 20.57 100.143 20.53C100.123 20.49 100.113 20.45 100.113 20.41C100.113 20.35 100.103 20.3 100.083 20.26C100.043 20.08 100.013 19.9 99.9934 19.72C99.9934 19.52 100.003 19.33 100.023 19.15C100.043 19.03 100.113 18.83 100.233 18.55C100.353 18.25 100.423 18.07 100.443 18.01C100.503 17.91 100.533 17.83 100.533 17.77C100.513 17.55 100.503 17.33 100.503 17.11C100.523 16.87 100.533 16.64 100.533 16.42C100.533 16.28 100.563 16.17 100.623 16.09C100.703 15.95 100.713 15.8 100.653 15.64L100.563 15.31C100.443 15.09 100.453 14.9 100.593 14.74C100.593 14.72 100.593 14.71 100.593 14.71C100.613 14.69 100.623 14.67 100.623 14.65C100.663 14.61 100.673 14.56 100.653 14.5C100.633 14.42 100.623 14.36 100.623 14.32C100.623 14.24 100.633 14.16 100.653 14.08C100.693 13.98 100.703 13.89 100.683 13.81C100.683 13.81 100.663 13.79 100.623 13.75C100.603 13.71 100.593 13.63 100.593 13.51C100.613 13.39 100.623 13.32 100.623 13.3V12.46C100.643 12.36 100.653 12.27 100.653 12.19C100.653 12.09 100.663 11.99 100.683 11.89C100.703 11.77 100.703 11.65 100.683 11.53C100.683 11.39 100.683 11.25 100.683 11.11C100.663 11.01 100.643 10.9 100.623 10.78C100.623 10.66 100.623 10.54 100.623 10.42C100.603 10.38 100.593 10.33 100.593 10.27C100.593 10.21 100.593 10.16 100.593 10.12C100.573 10.02 100.553 9.92 100.533 9.82C100.533 9.72 100.533 9.62 100.533 9.52C100.533 9.48 100.493 9.35 100.413 9.13C100.333 8.89 100.303 8.69 100.323 8.53C100.343 8.49 100.353 8.44 100.353 8.38C100.353 8.32 100.333 8.27 100.293 8.23C100.253 8.21 100.233 8.17 100.233 8.11V8.02C100.293 7.78 100.263 7.54 100.143 7.3C100.063 7.18 100.033 7.06 100.053 6.94C100.053 6.78 99.9834 6.66 99.8434 6.58C99.7434 6.48 99.6534 6.36 99.5734 6.22C99.4934 6.08 99.4434 5.94 99.4234 5.8C99.4034 5.7 99.3934 5.6 99.3934 5.5C99.3934 5.4 99.3934 5.31 99.3934 5.23C99.3934 5.15 99.4034 5.1 99.4234 5.08C99.5034 5 99.5434 4.91 99.5434 4.81C99.5434 4.69 99.5534 4.6 99.5734 4.54C99.5934 4.52 99.6134 4.51 99.6334 4.51C99.6534 4.51 99.6734 4.5 99.6934 4.48C99.7734 4.46 99.8134 4.39 99.8134 4.27C99.7734 4.19 99.7534 4.12 99.7534 4.06C99.7334 3.98 99.7634 3.91 99.8434 3.85C99.8834 3.77 99.9334 3.75 99.9934 3.79C100.133 3.85 100.293 3.83 100.473 3.73C100.553 3.69 100.603 3.67 100.623 3.67C100.683 3.67 100.713 3.67 100.713 3.67C100.733 3.65 100.793 3.64 100.893 3.64C101.013 3.66 101.123 3.62 101.223 3.52C101.363 3.38 101.533 3.31 101.733 3.31H103.593C104.053 3.33 104.513 3.33 104.973 3.31C105.433 3.29 105.883 3.28 106.323 3.28C106.423 3.28 106.503 3.28 106.563 3.28C106.643 3.26 106.723 3.24 106.803 3.22C106.923 3.16 107.063 3.13 107.223 3.13H107.913C108.073 3.13 108.213 3.13 108.333 3.13C108.473 3.11 108.613 3.09 108.753 3.07C108.833 3.05 108.903 3.04 108.963 3.04C109.043 3.04 109.123 3.04 109.203 3.04C109.283 3.04 109.363 3.04 109.443 3.04C109.523 3.04 109.603 3.03 109.683 3.01C109.843 2.99 110.013 2.98 110.193 2.98C110.373 2.96 110.543 2.95 110.703 2.95C110.783 2.95 110.853 2.95 110.913 2.95C110.993 2.93 111.073 2.91 111.153 2.89C111.313 2.85 111.463 2.83 111.603 2.83C111.763 2.81 111.913 2.79 112.053 2.77C112.213 2.75 112.363 2.73 112.503 2.71C112.663 2.69 112.813 2.67 112.953 2.65C113.133 2.65 113.263 2.67 113.343 2.71C113.463 2.79 113.573 2.86 113.673 2.92C113.793 2.98 113.903 3.06 114.003 3.16C114.083 3.24 114.133 3.31 114.153 3.37C114.173 3.45 114.193 3.53 114.213 3.61C114.233 3.69 114.253 3.78 114.273 3.88V4.09C114.253 4.19 114.233 4.3 114.213 4.42C114.213 4.52 114.203 4.63 114.183 4.75C114.143 4.83 114.093 4.9 114.033 4.96L113.493 5.5C113.293 5.56 113.093 5.6 112.893 5.62C112.713 5.64 112.523 5.64 112.323 5.62H112.113C112.013 5.64 111.913 5.65 111.813 5.65C111.713 5.65 111.613 5.64 111.513 5.62C111.393 5.6 111.273 5.6 111.153 5.62C111.033 5.62 110.913 5.62 110.793 5.62C110.713 5.62 110.633 5.63 110.553 5.65C110.493 5.65 110.423 5.64 110.343 5.62C110.243 5.6 110.143 5.6 110.043 5.62C109.963 5.62 109.873 5.63 109.773 5.65C109.693 5.65 109.603 5.66 109.503 5.68C109.423 5.68 109.333 5.68 109.233 5.68C108.973 5.72 108.693 5.74 108.393 5.74C108.113 5.74 107.833 5.76 107.553 5.8C107.373 5.78 107.203 5.79 107.043 5.83C106.883 5.85 106.713 5.87 106.533 5.89C106.373 5.91 106.203 5.92 106.023 5.92C105.843 5.92 105.673 5.94 105.513 5.98C105.313 5.98 105.113 6.01 104.913 6.07C104.733 6.11 104.543 6.14 104.343 6.16L104.133 6.19C103.993 6.19 103.863 6.21 103.743 6.25C103.623 6.27 103.493 6.3 103.353 6.34C103.273 6.36 103.193 6.38 103.113 6.4C103.033 6.4 102.943 6.41 102.843 6.43C102.783 6.43 102.713 6.45 102.633 6.49C102.573 6.51 102.543 6.57 102.543 6.67L102.633 6.94C102.653 6.98 102.643 7.08 102.603 7.24C102.583 7.4 102.563 7.52 102.543 7.6C102.543 7.66 102.553 7.72 102.573 7.78C102.593 7.84 102.613 7.9 102.633 7.96C102.693 8.12 102.723 8.3 102.723 8.5C102.723 8.68 102.743 8.85 102.783 9.01C102.803 9.09 102.813 9.18 102.813 9.28C102.813 9.36 102.823 9.45 102.843 9.55C102.843 9.59 102.843 9.64 102.843 9.7C102.863 9.74 102.873 9.79 102.873 9.85C102.873 9.91 102.863 9.95 102.843 9.97C102.783 10.05 102.753 10.14 102.753 10.24C102.753 10.34 102.753 10.44 102.753 10.54C102.853 10.74 102.903 10.94 102.903 11.14C102.903 11.34 102.903 11.54 102.903 11.74C102.903 11.8 102.953 11.82 103.053 11.8H103.083C103.123 11.72 103.163 11.66 103.203 11.62C103.263 11.62 103.333 11.6 103.413 11.56C103.473 11.52 103.553 11.5 103.653 11.5C103.813 11.52 103.963 11.52 104.103 11.5C104.243 11.46 104.383 11.42 104.523 11.38C105.463 11.14 106.343 10.83 107.163 10.45C107.383 10.35 107.613 10.27 107.853 10.21C108.093 10.13 108.333 10.08 108.573 10.06H108.663C108.843 10.04 109.023 10.02 109.203 10C109.383 9.98 109.563 9.97 109.743 9.97C109.983 9.95 110.213 9.92 110.433 9.88C110.673 9.84 110.913 9.81 111.153 9.79C111.293 9.75 111.423 9.72 111.543 9.7C111.663 9.66 111.793 9.61 111.933 9.55C112.193 9.45 112.433 9.4 112.653 9.4C112.813 9.42 112.963 9.46 113.103 9.52C113.243 9.56 113.383 9.62 113.523 9.7C113.823 9.9 113.973 10.2 113.973 10.6C113.973 10.76 113.953 10.92 113.913 11.08C113.893 11.24 113.883 11.4 113.883 11.56C113.883 11.6 113.863 11.64 113.823 11.68L113.733 11.83C113.713 11.91 113.693 11.99 113.673 12.07C113.653 12.15 113.603 12.21 113.523 12.25C113.403 12.35 113.273 12.46 113.133 12.58C113.013 12.68 112.873 12.75 112.713 12.79C112.633 12.81 112.553 12.83 112.473 12.85C112.413 12.87 112.343 12.88 112.263 12.88C111.943 12.88 111.613 12.9 111.273 12.94C110.953 12.98 110.623 13.02 110.283 13.06C110.023 13.08 109.763 13.11 109.503 13.15C109.263 13.19 109.013 13.21 108.753 13.21C108.513 13.21 108.243 13.26 107.943 13.36C107.743 13.4 107.533 13.44 107.313 13.48C107.093 13.52 106.873 13.55 106.653 13.57C106.493 13.59 106.323 13.62 106.143 13.66C105.983 13.68 105.823 13.7 105.663 13.72L105.153 13.81C105.113 13.83 105.053 13.84 104.973 13.84C104.833 13.88 104.693 13.91 104.553 13.93C104.413 13.95 104.273 13.98 104.133 14.02C103.993 14.04 103.853 14.07 103.713 14.11C103.593 14.15 103.463 14.19 103.323 14.23C103.223 14.25 103.143 14.29 103.083 14.35C103.023 14.39 102.973 14.45 102.933 14.53C102.913 14.59 102.913 14.65 102.933 14.71C102.953 14.79 102.943 14.87 102.903 14.95C102.923 15.15 102.933 15.35 102.933 15.55C102.953 15.75 102.953 15.95 102.933 16.15C102.973 16.31 102.983 16.47 102.963 16.63C102.963 16.79 102.953 16.95 102.933 17.11C102.893 17.35 102.903 17.55 102.963 17.71C103.023 17.97 103.003 18.24 102.903 18.52C102.863 18.64 102.863 18.72 102.903 18.76C102.943 18.82 102.943 18.89 102.903 18.97V19.15C102.883 19.31 102.953 19.39 103.113 19.39H103.173C103.313 19.39 103.453 19.44 103.593 19.54C103.693 19.64 103.813 19.67 103.953 19.63L104.793 19.54C104.913 19.52 105.033 19.51 105.153 19.51C105.273 19.49 105.393 19.48 105.513 19.48C105.553 19.46 105.613 19.47 105.693 19.51C105.793 19.57 105.883 19.58 105.963 19.54C106.003 19.5 106.053 19.47 106.113 19.45C106.193 19.43 106.253 19.4 106.293 19.36C106.413 19.24 106.563 19.2 106.743 19.24C106.903 19.28 107.033 19.27 107.133 19.21C107.313 19.15 107.483 19.13 107.643 19.15C107.743 19.17 107.843 19.16 107.943 19.12C108.043 19.08 108.143 19.06 108.243 19.06C108.283 19.06 108.313 19.07 108.333 19.09C108.353 19.09 108.373 19.08 108.393 19.06C108.433 19.06 108.473 19.05 108.513 19.03C108.553 19.01 108.583 19 108.603 19C108.743 18.94 108.873 18.92 108.993 18.94C109.093 18.94 109.143 18.94 109.143 18.94C109.223 18.92 109.293 18.92 109.353 18.94C109.433 18.96 109.503 18.99 109.563 19.03C109.663 19.05 109.743 19.08 109.803 19.12C109.883 19.16 109.963 19.19 110.043 19.21C110.083 19.21 110.113 19.22 110.133 19.24C110.233 19.32 110.353 19.39 110.493 19.45C110.653 19.51 110.743 19.58 110.763 19.66C110.803 19.78 110.823 19.9 110.823 20.02C110.823 20.12 110.833 20.23 110.853 20.35C110.853 20.41 110.843 20.47 110.823 20.53C110.823 20.59 110.813 20.65 110.793 20.71C110.753 20.79 110.703 20.88 110.643 20.98C110.603 21.08 110.543 21.17 110.463 21.25C110.423 21.29 110.383 21.33 110.343 21.37C110.323 21.41 110.293 21.45 110.253 21.49C110.173 21.57 110.083 21.64 109.983 21.7C109.883 21.76 109.773 21.79 109.653 21.79C109.573 21.79 109.513 21.8 109.473 21.82C109.393 21.86 109.313 21.88 109.233 21.88C109.153 21.88 109.063 21.88 108.963 21.88C108.823 21.9 108.683 21.92 108.543 21.94C108.423 21.94 108.293 21.93 108.153 21.91C108.073 21.89 108.003 21.89 107.943 21.91C107.743 21.97 107.543 21.98 107.343 21.94C107.143 21.94 106.943 21.95 106.743 21.97C106.563 21.97 106.383 21.97 106.203 21.97H105.813C105.753 21.97 105.703 21.98 105.663 22C105.583 22.04 105.483 22.06 105.363 22.06C105.263 22.06 105.163 22.05 105.063 22.03H104.763C104.743 22.03 104.713 22.03 104.673 22.03C104.633 22.05 104.593 22.05 104.553 22.03C104.493 22.01 104.433 22 104.373 22C104.333 22.02 104.283 22.04 104.223 22.06C104.183 22.06 104.143 22.06 104.103 22.06C104.083 22.08 104.053 22.09 104.013 22.09C103.813 22.07 103.623 22.07 103.443 22.09C103.263 22.13 103.073 22.17 102.873 22.21Z" fill="#353535"/>
</svg>
