<svg width="157" height="24" viewBox="0 0 157 24" fill="none" xmlns="http://www.w3.org/2000/svg">
<path d="M5.67688 23.47L5.16688 23.38C4.90688 23.34 4.63688 23.3 4.35688 23.26C4.09688 23.22 3.82688 23.19 3.54688 23.17C3.26688 23.17 2.98688 23.09 2.70688 22.93C2.44688 22.79 2.26688 22.57 2.16688 22.27C2.14688 22.17 2.11688 22.07 2.07688 21.97C2.05688 21.87 2.03688 21.77 2.01688 21.67C2.01688 21.43 2.06688 21.25 2.16688 21.13C2.26688 21.03 2.34688 20.93 2.40688 20.83C2.48688 20.73 2.56688 20.64 2.64688 20.56C2.68688 20.52 2.72688 20.49 2.76688 20.47C2.80688 20.45 2.84688 20.43 2.88688 20.41C2.98688 20.35 3.08688 20.31 3.18688 20.29C3.28688 20.25 3.38688 20.22 3.48688 20.2C3.52688 20.18 3.55688 20.18 3.57688 20.2C3.61688 20.2 3.64688 20.2 3.66688 20.2C3.76688 20.22 3.87688 20.24 3.99688 20.26C4.11688 20.26 4.22688 20.28 4.32688 20.32L5.58688 20.5C5.86688 20.54 6.11688 20.5 6.33688 20.38C6.41688 20.34 6.48688 20.3 6.54688 20.26C6.62688 20.22 6.69688 20.18 6.75687 20.14C7.19688 19.88 7.57688 19.61 7.89688 19.33C8.13688 19.11 8.36688 18.89 8.58688 18.67C8.80688 18.45 9.00688 18.21 9.18688 17.95C9.32688 17.77 9.41688 17.59 9.45688 17.41C9.49688 17.21 9.50688 17.01 9.48688 16.81L9.39688 16.57C9.37688 16.47 9.33688 16.39 9.27688 16.33C9.21688 16.27 9.15688 16.2 9.09688 16.12C8.97688 16.02 8.85688 15.91 8.73688 15.79C8.63688 15.67 8.52688 15.57 8.40688 15.49C8.10688 15.25 7.80688 15.02 7.50688 14.8C7.22688 14.58 6.93688 14.36 6.63688 14.14C6.61688 14.1 6.55688 14.06 6.45688 14.02C6.27688 13.9 6.09688 13.77 5.91688 13.63C5.75688 13.47 5.59688 13.32 5.43688 13.18C5.23688 12.98 5.01688 12.79 4.77688 12.61C4.65688 12.55 4.54688 12.45 4.44688 12.31C4.36688 12.21 4.24688 12.11 4.08688 12.01C3.94688 11.93 3.81688 11.84 3.69688 11.74C3.57688 11.62 3.45688 11.51 3.33688 11.41L2.94688 11.05C2.86688 10.95 2.77688 10.86 2.67688 10.78C2.59688 10.68 2.50688 10.58 2.40688 10.48C2.36688 10.38 2.30688 10.3 2.22688 10.24C2.16688 10.18 2.10688 10.11 2.04688 10.03C2.02688 9.99 1.99688 9.95 1.95688 9.91C1.91688 9.85 1.88688 9.79 1.86688 9.73C1.74688 9.49 1.61688 9.25 1.47688 9.01C1.35688 8.77 1.24688 8.52 1.14688 8.26C1.08688 8.1 1.02688 7.95 0.966875 7.81C0.926875 7.65 0.886875 7.5 0.846875 7.36C0.826875 7.2 0.786875 7.06 0.726875 6.94C0.686875 6.8 0.646875 6.66 0.606875 6.52C0.566875 6.3 0.516875 6.09 0.456875 5.89C0.416875 5.67 0.376875 5.46 0.336875 5.26L0.276875 5.02C0.256875 4.8 0.256875 4.59 0.276875 4.39C0.316875 4.11 0.376875 3.86 0.456875 3.64C0.536875 3.4 0.666875 3.21 0.846875 3.07C1.04688 2.91 1.24688 2.75 1.44688 2.59C1.64688 2.43 1.85688 2.3 2.07688 2.2C2.11688 2.2 2.14688 2.19 2.16688 2.17C2.36688 2.01 2.58688 1.9 2.82688 1.84C3.06688 1.76 3.30688 1.69 3.54688 1.63C4.50688 1.35 5.49688 1.14 6.51688 0.999999H6.81688C7.01688 0.999999 7.20688 0.999999 7.38688 0.999999C7.56688 0.999999 7.75688 0.989999 7.95688 0.969999C8.19688 0.969999 8.43688 0.999999 8.67688 1.06C8.91688 1.1 9.14688 1.17 9.36688 1.27C9.52688 1.35 9.68688 1.44 9.84688 1.54C10.0069 1.62 10.1569 1.71 10.2969 1.81C10.4569 1.93 10.5569 2.06 10.5969 2.2L10.6869 2.41C10.7869 2.59 10.8369 2.78 10.8369 2.98C10.8569 3.16 10.8469 3.35 10.8069 3.55C10.8069 3.61 10.7969 3.68 10.7769 3.76C10.7769 3.82 10.7769 3.88 10.7769 3.94C10.7169 4.38 10.5069 4.72 10.1469 4.96C9.92688 5.16 9.63688 5.24 9.27688 5.2C9.19688 5.16 9.15688 5.18 9.15688 5.26C9.15688 5.34 9.10688 5.38 9.00688 5.38H8.82688C8.70688 5.38 8.58688 5.32 8.46688 5.2C8.36688 5.1 8.31688 5.02 8.31688 4.96C8.31688 4.88 8.35688 4.82 8.43688 4.78C8.39688 4.68 8.35688 4.59 8.31688 4.51C8.27688 4.43 8.23688 4.37 8.19688 4.33C8.13688 4.23 8.04688 4.16 7.92688 4.12C7.82688 4.1 7.72688 4.08 7.62688 4.06C7.52688 4.04 7.42688 4.02 7.32688 4C7.24688 4 7.15688 4 7.05688 4C6.95688 3.98 6.85688 3.96 6.75687 3.94C6.69688 3.92 6.60688 3.93 6.48688 3.97C6.42688 3.99 6.36688 4.01 6.30688 4.03C6.24688 4.03 6.17688 4.02 6.09688 4C6.03688 4 5.96688 4 5.88688 4C5.82688 4 5.75688 4.02 5.67688 4.06L5.10688 4.15C4.78688 4.21 4.47688 4.33 4.17688 4.51C4.11688 4.53 4.05688 4.55 3.99688 4.57C3.93688 4.59 3.87688 4.59 3.81688 4.57C3.69688 4.55 3.59688 4.58 3.51688 4.66C3.49688 4.7 3.44688 4.73 3.36688 4.75C3.30688 4.75 3.25688 4.77 3.21688 4.81C3.13688 4.89 3.09688 4.97 3.09688 5.05C3.11688 5.09 3.12688 5.15 3.12688 5.23L3.75688 7.06C3.87688 7.38 4.02688 7.68 4.20688 7.96C4.40688 8.22 4.61688 8.48 4.83688 8.74C5.17688 9.14 5.52688 9.48 5.88688 9.76L6.84688 10.57C7.04688 10.75 7.25688 10.92 7.47688 11.08C7.69688 11.24 7.90688 11.4 8.10688 11.56C8.40688 11.78 8.70688 12.01 9.00688 12.25C9.30688 12.47 9.60688 12.7 9.90688 12.94C10.1469 13.14 10.3769 13.34 10.5969 13.54C10.8369 13.72 11.0569 13.92 11.2569 14.14C11.3969 14.3 11.5369 14.46 11.6769 14.62C11.8169 14.78 11.9369 14.96 12.0369 15.16C12.1769 15.38 12.2969 15.64 12.3969 15.94C12.5169 16.32 12.5669 16.68 12.5469 17.02C12.5269 17.06 12.5169 17.12 12.5169 17.2C12.5169 17.44 12.4869 17.67 12.4269 17.89C12.3869 18.09 12.3169 18.3 12.2169 18.52C12.1169 18.72 12.0069 18.93 11.8869 19.15C11.7869 19.35 11.6669 19.55 11.5269 19.75C11.3269 20.01 11.1169 20.26 10.8969 20.5C10.6969 20.72 10.4669 20.94 10.2069 21.16C10.0669 21.28 9.92688 21.41 9.78688 21.55C9.64688 21.67 9.49688 21.78 9.33688 21.88C9.23688 21.96 9.13688 22.03 9.03688 22.09C8.93688 22.17 8.83688 22.25 8.73688 22.33C8.65688 22.37 8.57688 22.42 8.49688 22.48C8.41688 22.54 8.33688 22.6 8.25688 22.66C8.17688 22.74 8.07688 22.8 7.95688 22.84C7.85688 22.9 7.75688 22.95 7.65688 22.99L6.78688 23.35C6.60688 23.41 6.42688 23.45 6.24688 23.47C6.06688 23.49 5.87688 23.49 5.67688 23.47ZM21.842 22.6C21.642 22.58 21.442 22.55 21.242 22.51C21.062 22.49 20.882 22.44 20.702 22.36L19.952 22.09C19.692 21.99 19.452 21.88 19.232 21.76C19.012 21.62 18.792 21.48 18.572 21.34C18.472 21.24 18.372 21.15 18.272 21.07C18.172 20.97 18.072 20.88 17.972 20.8C17.812 20.64 17.652 20.48 17.492 20.32C17.332 20.14 17.182 19.95 17.042 19.75L16.322 18.64C16.142 18.36 15.982 18.07 15.842 17.77C15.702 17.45 15.582 17.13 15.482 16.81C15.262 16.21 15.152 15.62 15.152 15.04V14.56C15.152 14.06 15.182 13.57 15.242 13.09C15.282 12.69 15.372 12.33 15.512 12.01C15.592 11.81 15.662 11.61 15.722 11.41C15.782 11.21 15.852 11.02 15.932 10.84L16.022 10.63C16.062 10.37 16.152 10.14 16.292 9.94C16.432 9.72 16.552 9.51 16.652 9.31C16.732 9.15 16.822 9.01 16.922 8.89C17.022 8.75 17.112 8.61 17.192 8.47C17.232 8.41 17.282 8.36 17.342 8.32C17.402 8.26 17.452 8.2 17.492 8.14C17.532 8.1 17.562 8.05 17.582 7.99C17.622 7.91 17.652 7.84 17.672 7.78C17.712 7.72 17.782 7.64 17.882 7.54C18.002 7.48 18.112 7.34 18.212 7.12C18.252 7.04 18.292 6.98 18.332 6.94C18.452 6.84 18.552 6.72 18.632 6.58C18.732 6.44 18.842 6.31 18.962 6.19C19.042 6.11 19.082 6 19.082 5.86C19.082 5.76 19.082 5.67 19.082 5.59C19.102 5.49 19.102 5.4 19.082 5.32C19.062 5.22 19.092 5.13 19.172 5.05C19.212 5.01 19.242 4.96 19.262 4.9C19.282 4.84 19.302 4.78 19.322 4.72C19.382 4.52 19.542 4.35 19.802 4.21C19.842 4.17 19.892 4.15 19.952 4.15C20.032 4.13 20.102 4.11 20.162 4.09C20.302 4.03 20.462 4.02 20.642 4.06C20.722 4.08 20.792 4.09 20.852 4.09C20.912 4.07 20.972 4.05 21.032 4.03C21.112 3.99 21.182 3.96 21.242 3.94C21.322 3.92 21.392 3.9 21.452 3.88C21.732 3.78 22.022 3.79 22.322 3.91C22.642 4.03 22.872 4.24 23.012 4.54C23.052 4.64 23.092 4.74 23.132 4.84C23.172 4.94 23.202 5.04 23.222 5.14C23.262 5.36 23.252 5.55 23.192 5.71C23.152 5.79 23.132 5.84 23.132 5.86C23.112 5.94 23.132 6.01 23.192 6.07C23.232 6.13 23.282 6.18 23.342 6.22C23.562 6.42 23.772 6.62 23.972 6.82C24.172 7 24.362 7.2 24.542 7.42C24.702 7.58 24.832 7.75 24.932 7.93C25.052 8.09 25.162 8.27 25.262 8.47C25.302 8.57 25.352 8.68 25.412 8.8C25.472 8.9 25.532 9 25.592 9.1C25.692 9.28 25.772 9.47 25.832 9.67C25.912 9.87 25.992 10.07 26.072 10.27V10.3C26.112 10.44 26.142 10.59 26.162 10.75C26.202 10.89 26.262 11.04 26.342 11.2C26.402 11.34 26.452 11.49 26.492 11.65C26.532 11.79 26.572 11.94 26.612 12.1C26.652 12.28 26.692 12.46 26.732 12.64C26.792 12.82 26.832 13 26.852 13.18C26.872 13.26 26.892 13.34 26.912 13.42C26.932 13.48 26.952 13.55 26.972 13.63C27.012 13.81 27.052 13.99 27.092 14.17C27.132 14.35 27.162 14.53 27.182 14.71L27.272 14.92C27.312 15.04 27.352 15.2 27.392 15.4C27.452 15.66 27.482 15.92 27.482 16.18C27.502 16.44 27.502 16.71 27.482 16.99C27.482 17.13 27.472 17.24 27.452 17.32C27.332 17.74 27.182 18.17 27.002 18.61C26.922 18.75 26.842 18.89 26.762 19.03C26.682 19.15 26.602 19.28 26.522 19.42L26.252 19.84C26.152 20.02 26.042 20.18 25.922 20.32C25.722 20.64 25.482 20.92 25.202 21.16C24.922 21.4 24.622 21.63 24.302 21.85C23.602 22.39 22.782 22.64 21.842 22.6ZM21.722 19.63C22.142 19.63 22.502 19.51 22.802 19.27C22.902 19.17 23.002 19.08 23.102 19C23.222 18.9 23.322 18.8 23.402 18.7C23.782 18.28 24.082 17.84 24.302 17.38L24.392 17.08C24.432 16.72 24.432 16.36 24.392 16L24.212 15.01C24.152 14.75 24.102 14.5 24.062 14.26C24.022 14 23.962 13.75 23.882 13.51C23.822 13.37 23.802 13.26 23.822 13.18C23.842 13.08 23.842 12.98 23.822 12.88C23.802 12.78 23.772 12.68 23.732 12.58C23.672 12.32 23.602 12.06 23.522 11.8C23.442 11.54 23.362 11.28 23.282 11.02C23.262 10.96 23.242 10.9 23.222 10.84C23.202 10.78 23.182 10.72 23.162 10.66C23.022 10.38 22.872 10.11 22.712 9.85C22.552 9.59 22.372 9.35 22.172 9.13C22.072 9.01 21.962 8.9 21.842 8.8C21.722 8.68 21.602 8.57 21.482 8.47C21.462 8.43 21.432 8.41 21.392 8.41C21.372 8.39 21.342 8.37 21.302 8.35C21.242 8.27 21.162 8.28 21.062 8.38C20.962 8.48 20.852 8.59 20.732 8.71C20.632 8.83 20.532 8.95 20.432 9.07C20.332 9.21 20.222 9.35 20.102 9.49C20.002 9.63 19.902 9.77 19.802 9.91C19.662 10.09 19.532 10.27 19.412 10.45C19.292 10.63 19.172 10.81 19.052 10.99C18.632 11.67 18.302 12.42 18.062 13.24C18.022 13.36 18.002 13.45 18.002 13.51C17.982 13.65 17.962 13.79 17.942 13.93C17.942 14.07 17.942 14.22 17.942 14.38V14.62C17.962 14.68 17.972 14.74 17.972 14.8C17.972 14.86 17.982 14.92 18.002 14.98C18.002 15.22 18.062 15.48 18.182 15.76C18.342 16.16 18.522 16.55 18.722 16.93C18.922 17.31 19.152 17.67 19.412 18.01C19.472 18.09 19.532 18.17 19.592 18.25C19.672 18.33 19.742 18.41 19.802 18.49C19.982 18.69 20.172 18.87 20.372 19.03C20.592 19.19 20.812 19.33 21.032 19.45C21.272 19.57 21.502 19.63 21.722 19.63ZM35.6169 22.3C35.5969 22.28 35.5669 22.27 35.5269 22.27C35.3269 22.15 35.1269 22.04 34.9269 21.94C34.7469 21.82 34.5769 21.69 34.4169 21.55C34.3369 21.51 34.2869 21.47 34.2669 21.43C34.0869 21.33 33.9269 21.21 33.7869 21.07C33.6469 20.91 33.5169 20.74 33.3969 20.56C33.3569 20.52 33.3169 20.47 33.2769 20.41C33.2369 20.35 33.1869 20.29 33.1269 20.23C32.9269 20.03 32.7669 19.79 32.6469 19.51C32.6269 19.45 32.5969 19.39 32.5569 19.33C32.5169 19.27 32.4769 19.21 32.4369 19.15C32.3169 18.99 32.2269 18.84 32.1669 18.7C32.1269 18.54 32.0669 18.39 31.9869 18.25C31.9069 18.09 31.8269 17.94 31.7469 17.8C31.7269 17.72 31.6969 17.64 31.6569 17.56C31.6169 17.48 31.5869 17.4 31.5669 17.32C31.5669 17.22 31.5369 17.11 31.4769 16.99C31.3969 16.77 31.3169 16.55 31.2369 16.33C31.1769 16.09 31.1169 15.85 31.0569 15.61C31.0169 15.53 30.9969 15.47 30.9969 15.43C30.8769 15.17 30.7869 14.9 30.7269 14.62C30.6669 14.34 30.6069 14.07 30.5469 13.81L30.3669 12.46C30.3469 12.42 30.3369 12.37 30.3369 12.31C30.3369 12.25 30.3369 12.2 30.3369 12.16C30.3369 12.04 30.3369 11.93 30.3369 11.83C30.3369 11.71 30.3169 11.59 30.2769 11.47C30.2369 11.21 30.2469 10.97 30.3069 10.75C30.3069 10.67 30.3069 10.6 30.3069 10.54C30.3269 10.46 30.3369 10.38 30.3369 10.3C30.3369 10.2 30.3369 10.1 30.3369 10C30.3569 9.88 30.3769 9.78 30.3969 9.7C30.4169 9.64 30.4269 9.56 30.4269 9.46C30.4669 9.28 30.4869 9.11 30.4869 8.95C30.5069 8.77 30.5269 8.6 30.5469 8.44C30.6069 8.16 30.6369 7.89 30.6369 7.63C30.6369 7.55 30.6369 7.48 30.6369 7.42C30.6569 7.34 30.6769 7.26 30.6969 7.18C30.6969 7 30.6869 6.87 30.6669 6.79C30.6069 6.71 30.5969 6.6 30.6369 6.46C30.6769 6.38 30.6969 6.32 30.6969 6.28C30.7169 6.24 30.7269 6.2 30.7269 6.16C30.7269 6.1 30.7569 6.06 30.8169 6.04H31.0269C31.1069 6.04 31.1569 6.01 31.1769 5.95C31.1969 5.87 31.2669 5.81 31.3869 5.77C31.4869 5.73 31.5769 5.7 31.6569 5.68C31.7369 5.64 31.8169 5.59 31.8969 5.53C31.9569 5.49 32.0269 5.47 32.1069 5.47C32.1869 5.47 32.2669 5.48 32.3469 5.5L32.8869 5.68C32.9069 5.7 32.9169 5.71 32.9169 5.71C32.9369 5.71 32.9569 5.72 32.9769 5.74C33.1369 5.9 33.2669 6.08 33.3669 6.28C33.4869 6.48 33.5569 6.7 33.5769 6.94C33.5769 7.02 33.5769 7.1 33.5769 7.18C33.5769 7.24 33.5569 7.31 33.5169 7.39C33.4969 7.51 33.4769 7.63 33.4569 7.75C33.4369 7.87 33.4169 8 33.3969 8.14C33.3569 8.34 33.3269 8.54 33.3069 8.74C33.3069 8.92 33.3069 9.11 33.3069 9.31C33.2869 9.39 33.2769 9.47 33.2769 9.55C33.2769 9.61 33.2669 9.68 33.2469 9.76C33.2269 10 33.2169 10.24 33.2169 10.48C33.2169 10.72 33.2369 10.95 33.2769 11.17C33.2769 11.19 33.2769 11.22 33.2769 11.26C33.2969 11.3 33.2969 11.34 33.2769 11.38C33.2769 11.58 33.2969 11.79 33.3369 12.01C33.3769 12.23 33.4069 12.45 33.4269 12.67C33.4469 12.87 33.4669 13.06 33.4869 13.24C33.5069 13.42 33.5369 13.6 33.5769 13.78C33.6169 13.86 33.6369 13.94 33.6369 14.02C33.6569 14.1 33.6769 14.18 33.6969 14.26C33.7769 14.64 33.8669 15.01 33.9669 15.37C34.0669 15.73 34.1969 16.09 34.3569 16.45C34.4569 16.67 34.5569 16.86 34.6569 17.02C34.8169 17.3 34.9569 17.58 35.0769 17.86C35.1569 18 35.2369 18.14 35.3169 18.28C35.3969 18.4 35.4769 18.53 35.5569 18.67C35.6369 18.77 35.7169 18.86 35.7969 18.94C35.8769 19.02 35.9569 19.11 36.0369 19.21C36.1369 19.31 36.2669 19.34 36.4269 19.3C36.5269 19.26 36.5969 19.22 36.6369 19.18C36.7369 19.12 36.8269 19.06 36.9069 19C37.0069 18.94 37.0969 18.87 37.1769 18.79C37.3969 18.57 37.5969 18.35 37.7769 18.13C37.9769 17.91 38.1469 17.67 38.2869 17.41C38.4069 17.19 38.5269 16.96 38.6469 16.72C38.7669 16.48 38.8769 16.24 38.9769 16C39.0969 15.72 39.2069 15.44 39.3069 15.16C39.4269 14.88 39.5369 14.59 39.6369 14.29C39.7169 14.09 39.7769 13.89 39.8169 13.69C39.8769 13.47 39.9169 13.26 39.9369 13.06C39.9769 12.84 40.0069 12.62 40.0269 12.4C40.0669 12.16 40.0769 11.93 40.0569 11.71C40.0569 11.65 40.0569 11.59 40.0569 11.53C40.0769 11.47 40.0869 11.41 40.0869 11.35C40.1269 11.21 40.1369 11.08 40.1169 10.96C40.1169 10.84 40.1069 10.72 40.0869 10.6C40.0669 10.26 40.0369 9.94 39.9969 9.64C39.9769 9.32 39.9569 9 39.9369 8.68C39.9369 8.52 39.9269 8.41 39.9069 8.35C39.8869 8.17 39.8669 7.99 39.8469 7.81C39.8469 7.63 39.8269 7.45 39.7869 7.27V7.03C39.7869 6.83 39.7769 6.64 39.7569 6.46C39.7569 6.26 39.7569 6.06 39.7569 5.86C39.7569 5.7 39.7469 5.56 39.7269 5.44C39.7269 5.3 39.7269 5.16 39.7269 5.02C39.7269 4.84 39.7569 4.69 39.8169 4.57C39.8769 4.47 39.8969 4.39 39.8769 4.33C39.8169 4.21 39.8469 4.12 39.9669 4.06C40.0669 3.96 40.1669 3.88 40.2669 3.82C40.3869 3.76 40.5169 3.72 40.6569 3.7C40.6969 3.68 40.7269 3.67 40.7469 3.67C40.7869 3.67 40.8169 3.66 40.8369 3.64C40.9569 3.54 41.1169 3.51 41.3169 3.55C41.3569 3.57 41.4169 3.58 41.4969 3.58C41.6769 3.62 41.8069 3.69 41.8869 3.79C41.9469 3.85 42.0369 3.92 42.1569 4C42.3169 4.08 42.4269 4.18 42.4869 4.3C42.5469 4.42 42.5869 4.55 42.6069 4.69C42.6469 4.89 42.6769 5.08 42.6969 5.26C42.7369 5.44 42.7469 5.63 42.7269 5.83V6.1C42.7269 6.3 42.7269 6.5 42.7269 6.7C42.7469 6.88 42.7669 7.07 42.7869 7.27C42.8069 7.33 42.8169 7.4 42.8169 7.48C42.8169 7.54 42.8169 7.6 42.8169 7.66C42.8169 7.78 42.8169 7.9 42.8169 8.02C42.8369 8.12 42.8569 8.23 42.8769 8.35C42.8969 8.39 42.9069 8.45 42.9069 8.53C42.8869 8.73 42.8869 8.93 42.9069 9.13C42.9469 9.31 42.9769 9.5 42.9969 9.7C43.0169 9.9 43.0269 10.11 43.0269 10.33C43.0469 10.55 43.0569 10.77 43.0569 10.99C43.0769 11.01 43.0769 11.04 43.0569 11.08C43.0569 11.12 43.0569 11.16 43.0569 11.2C42.9969 11.38 42.9869 11.59 43.0269 11.83C43.0669 12.09 43.0569 12.34 42.9969 12.58C42.9769 12.76 42.9569 12.94 42.9369 13.12C42.9169 13.3 42.8869 13.49 42.8469 13.69C42.8069 14.01 42.7369 14.33 42.6369 14.65C42.5369 14.97 42.4369 15.29 42.3369 15.61C42.3369 15.65 42.3069 15.72 42.2469 15.82C42.1669 15.96 42.0969 16.11 42.0369 16.27C41.9769 16.41 41.9269 16.56 41.8869 16.72L41.7969 16.93C41.6969 17.13 41.6069 17.33 41.5269 17.53C41.4669 17.71 41.3869 17.9 41.2869 18.1C41.2269 18.22 41.1669 18.34 41.1069 18.46C41.0469 18.58 40.9769 18.69 40.8969 18.79C40.8769 18.83 40.8469 18.87 40.8069 18.91C40.7669 19.05 40.7069 19.18 40.6269 19.3C40.5469 19.42 40.4669 19.54 40.3869 19.66C40.1669 20 39.9069 20.32 39.6069 20.62C39.3269 20.92 39.0169 21.2 38.6769 21.46L38.3169 21.67C38.0369 21.81 37.7369 21.93 37.4169 22.03C37.1169 22.13 36.8069 22.2 36.4869 22.24C36.3869 22.26 36.2769 22.26 36.1569 22.24C36.0969 22.24 36.0369 22.24 35.9769 22.24C35.9169 22.24 35.8569 22.26 35.7969 22.3H35.6169ZM57.1845 22.27C57.1245 22.25 57.0545 22.23 56.9745 22.21C56.9145 22.19 56.8545 22.17 56.7945 22.15C56.6345 22.09 56.4745 22.01 56.3145 21.91C56.2345 21.87 56.1745 21.81 56.1345 21.73C55.9945 21.51 55.8645 21.31 55.7445 21.13C55.6245 20.93 55.4945 20.73 55.3545 20.53L55.0845 20.05C54.9445 19.77 54.8045 19.5 54.6645 19.24C54.5245 18.96 54.3845 18.69 54.2445 18.43C54.2045 18.33 54.1545 18.25 54.0945 18.19C54.0545 18.11 54.0145 18.03 53.9745 17.95C53.8345 17.73 53.7045 17.51 53.5845 17.29C53.4645 17.05 53.3445 16.82 53.2245 16.6L52.4745 15.13C52.2745 14.73 52.0745 14.34 51.8745 13.96C51.6745 13.56 51.4745 13.16 51.2745 12.76C51.2345 12.72 51.1945 12.66 51.1545 12.58C51.0745 12.36 50.9745 12.15 50.8545 11.95C50.7545 11.75 50.6545 11.55 50.5545 11.35C50.4745 11.21 50.4045 11.07 50.3445 10.93C50.2845 10.77 50.2145 10.62 50.1345 10.48L49.8045 9.88C49.7645 9.88 49.7345 9.87 49.7145 9.85C49.7145 9.85 49.7045 9.86 49.6845 9.88C49.6845 9.88 49.6845 9.89 49.6845 9.91C49.6645 10.17 49.6445 10.44 49.6245 10.72C49.6045 11 49.6045 11.28 49.6245 11.56C49.6645 11.68 49.6645 11.81 49.6245 11.95C49.5845 12.31 49.5945 12.63 49.6545 12.91C49.6745 12.99 49.6745 13.07 49.6545 13.15C49.6545 13.23 49.6445 13.32 49.6245 13.42C49.6045 13.56 49.5945 13.69 49.5945 13.81C49.5945 13.93 49.5845 14.06 49.5645 14.2C49.6045 14.28 49.6245 14.37 49.6245 14.47C49.6245 14.55 49.6145 14.63 49.5945 14.71C49.5345 14.91 49.5345 15.12 49.5945 15.34C49.6345 15.4 49.6345 15.46 49.5945 15.52C49.5145 15.7 49.4945 15.92 49.5345 16.18C49.5945 16.52 49.5745 16.89 49.4745 17.29C49.4545 17.33 49.4445 17.4 49.4445 17.5C49.4245 17.58 49.4445 17.65 49.5045 17.71C49.5845 17.75 49.6045 17.8 49.5645 17.86C49.5445 18.12 49.5445 18.39 49.5645 18.67C49.5645 18.67 49.5645 18.68 49.5645 18.7C49.5645 18.7 49.5545 18.7 49.5345 18.7C49.5145 18.7 49.5045 18.69 49.5045 18.67C49.4845 18.65 49.4745 18.63 49.4745 18.61C49.4345 18.57 49.4145 18.58 49.4145 18.64C49.4145 18.74 49.4245 18.8 49.4445 18.82C49.4845 18.92 49.5045 19.02 49.5045 19.12C49.5045 19.22 49.5045 19.32 49.5045 19.42V20.35C49.5045 20.41 49.4945 20.47 49.4745 20.53C49.4745 20.59 49.4445 20.64 49.3845 20.68C49.3045 20.7 49.2645 20.77 49.2645 20.89C49.2445 21.11 49.1645 21.3 49.0245 21.46C48.9045 21.62 48.7645 21.76 48.6045 21.88C48.5245 21.94 48.4245 21.98 48.3045 22C48.2045 22 48.1045 21.99 48.0045 21.97L47.4645 21.79C47.4245 21.79 47.3845 21.76 47.3445 21.7C47.2845 21.64 47.2245 21.58 47.1645 21.52C47.1045 21.44 47.0345 21.37 46.9545 21.31C46.8545 21.25 46.7845 21.14 46.7445 20.98C46.7245 20.88 46.6945 20.77 46.6545 20.65C46.6145 20.53 46.5945 20.41 46.5945 20.29C46.5945 20.15 46.5945 20.02 46.5945 19.9C46.6145 19.78 46.6245 19.65 46.6245 19.51C46.6445 19.41 46.6545 19.32 46.6545 19.24C46.6545 19.14 46.6645 19.04 46.6845 18.94V7.96C46.6845 7.86 46.6845 7.76 46.6845 7.66C46.7045 7.56 46.7245 7.47 46.7445 7.39C46.7445 7.29 46.7445 7.19 46.7445 7.09C46.7645 6.99 46.7745 6.89 46.7745 6.79C46.7745 6.67 46.7745 6.55 46.7745 6.43C46.7945 6.31 46.8145 6.2 46.8345 6.1C46.8545 6.02 46.8645 5.95 46.8645 5.89C46.8645 5.83 46.8645 5.76 46.8645 5.68V4.75C46.8645 4.61 46.8745 4.49 46.8945 4.39C46.9345 4.27 46.9645 4.15 46.9845 4.03L47.0745 3.88C47.1345 3.82 47.1845 3.73 47.2245 3.61C47.2645 3.49 47.3245 3.43 47.4045 3.43C47.4645 3.39 47.5245 3.36 47.5845 3.34C47.6445 3.3 47.6845 3.24 47.7045 3.16L47.7345 3.13C47.7545 3.13 47.7745 3.13 47.7945 3.13C47.8145 3.11 47.8345 3.1 47.8545 3.1C47.9345 3.1 47.9945 3.08 48.0345 3.04C48.0945 3 48.1645 2.99 48.2445 3.01C48.3245 3.03 48.4045 3.04 48.4845 3.04C48.5645 3.04 48.6445 3.05 48.7245 3.07C49.1645 3.15 49.4745 3.41 49.6545 3.85L49.8345 4.45C49.8545 4.65 49.9445 4.84 50.1045 5.02C50.2245 5.16 50.3445 5.31 50.4645 5.47C50.5845 5.63 50.7145 5.79 50.8545 5.95C51.3745 6.61 51.8545 7.35 52.2945 8.17C52.3345 8.25 52.3745 8.33 52.4145 8.41C52.4545 8.49 52.4945 8.57 52.5345 8.65L54.0945 11.8C54.2145 12.02 54.3245 12.25 54.4245 12.49C54.5445 12.71 54.6745 12.93 54.8145 13.15C54.8545 13.23 54.8945 13.31 54.9345 13.39C54.9745 13.45 55.0045 13.52 55.0245 13.6C55.1245 13.84 55.2445 14.08 55.3845 14.32C55.3845 14.32 55.3845 14.33 55.3845 14.35C55.4045 14.35 55.4145 14.34 55.4145 14.32C55.4345 14.32 55.4445 14.32 55.4445 14.32C55.4645 14.3 55.4745 14.29 55.4745 14.29L55.5645 13.24V12.94C55.5845 12.84 55.5945 12.74 55.5945 12.64C55.6145 12.52 55.6345 12.41 55.6545 12.31C55.6745 12.25 55.6745 12.18 55.6545 12.1C55.6545 12.02 55.6645 11.94 55.6845 11.86C55.6845 11.74 55.6845 11.62 55.6845 11.5C55.7045 11.36 55.7245 11.23 55.7445 11.11C55.7645 11.05 55.7745 10.99 55.7745 10.93C55.7745 10.85 55.7745 10.78 55.7745 10.72V9.91H55.7445V9.1C55.7445 9 55.7445 8.9 55.7445 8.8C55.7445 8.7 55.7245 8.6 55.6845 8.5C55.6645 8.44 55.6545 8.35 55.6545 8.23L55.6845 8.02C55.6845 7.96 55.6745 7.91 55.6545 7.87C55.6545 7.81 55.6545 7.75 55.6545 7.69C55.6745 7.61 55.6645 7.53 55.6245 7.45C55.5845 7.37 55.5645 7.29 55.5645 7.21C55.5845 7.13 55.5945 7.05 55.5945 6.97C55.5945 6.89 55.5945 6.81 55.5945 6.73C55.5945 6.65 55.5545 6.61 55.4745 6.61C55.4545 6.61 55.4445 6.59 55.4445 6.55C55.4245 6.49 55.4245 6.44 55.4445 6.4C55.4845 6.3 55.5045 6.19 55.5045 6.07C55.5045 5.95 55.5045 5.83 55.5045 5.71V4.84C55.4845 4.72 55.4945 4.6 55.5345 4.48C55.5745 4.36 55.6245 4.25 55.6845 4.15L55.8045 3.97C55.9045 3.87 56.0145 3.77 56.1345 3.67C56.2545 3.57 56.3745 3.47 56.4945 3.37C56.4945 3.37 56.5345 3.35 56.6145 3.31C56.7145 3.29 56.8045 3.27 56.8845 3.25C56.9845 3.23 57.0845 3.23 57.1845 3.25C57.2645 3.25 57.3245 3.26 57.3645 3.28C57.4445 3.32 57.5245 3.37 57.6045 3.43C57.6845 3.47 57.7645 3.52 57.8445 3.58C57.8845 3.6 57.9045 3.62 57.9045 3.64C57.9245 3.66 57.9445 3.68 57.9645 3.7C58.0045 3.74 58.0345 3.79 58.0545 3.85C58.0945 3.89 58.1245 3.93 58.1445 3.97C58.2445 4.05 58.3045 4.15 58.3245 4.27C58.3645 4.37 58.3945 4.47 58.4145 4.57V5.83C58.4145 5.97 58.4145 6.11 58.4145 6.25C58.4345 6.37 58.4545 6.5 58.4745 6.64C58.4945 6.72 58.5045 6.8 58.5045 6.88C58.5045 6.94 58.5045 7.01 58.5045 7.09C58.5045 7.25 58.5045 7.42 58.5045 7.6C58.5245 7.76 58.5345 7.92 58.5345 8.08V8.29C58.5345 8.43 58.5245 8.57 58.5045 8.71C58.5045 8.83 58.5045 8.96 58.5045 9.1V10.42C58.5045 10.62 58.4945 10.83 58.4745 11.05C58.4745 11.25 58.4845 11.46 58.5045 11.68C58.5045 11.76 58.4945 11.82 58.4745 11.86C58.4545 12.06 58.4445 12.26 58.4445 12.46C58.4445 12.64 58.4345 12.83 58.4145 13.03C58.4145 13.11 58.4145 13.2 58.4145 13.3C58.4145 13.4 58.4045 13.5 58.3845 13.6C58.3645 13.68 58.3545 13.76 58.3545 13.84C58.3745 13.92 58.3845 14 58.3845 14.08C58.4245 14.26 58.4345 14.44 58.4145 14.62C58.4145 14.8 58.4045 14.98 58.3845 15.16C58.3645 15.48 58.3445 15.81 58.3245 16.15C58.3245 16.47 58.3445 16.8 58.3845 17.14C58.3845 17.22 58.3845 17.31 58.3845 17.41C58.4045 17.51 58.4145 17.61 58.4145 17.71C58.3945 18.01 58.4045 18.3 58.4445 18.58C58.5045 18.86 58.5645 19.14 58.6245 19.42C58.6645 19.62 58.7045 19.82 58.7445 20.02C58.7845 20.2 58.8145 20.4 58.8345 20.62C58.8345 20.7 58.8245 20.75 58.8045 20.77C58.7845 20.81 58.7645 20.86 58.7445 20.92C58.7245 20.96 58.7145 21 58.7145 21.04C58.6945 21.2 58.6345 21.35 58.5345 21.49C58.4545 21.63 58.3645 21.77 58.2645 21.91C58.0045 22.25 57.6445 22.37 57.1845 22.27ZM65.724 22.42C65.584 22.42 65.414 22.37 65.214 22.27C65.114 22.21 65.034 22.13 64.974 22.03C64.954 21.97 64.904 21.97 64.824 22.03C64.764 22.07 64.714 22.07 64.674 22.03C64.614 21.97 64.554 21.93 64.494 21.91C64.414 21.91 64.374 21.88 64.374 21.82C64.374 21.76 64.364 21.71 64.344 21.67C64.344 21.61 64.324 21.56 64.284 21.52C64.164 21.48 64.084 21.38 64.044 21.22C64.024 21.16 64.004 21.11 63.984 21.07C63.964 21.01 63.934 20.95 63.894 20.89C63.854 20.81 63.834 20.74 63.834 20.68C63.814 20.62 63.794 20.57 63.774 20.53C63.774 20.47 63.754 20.41 63.714 20.35C63.694 20.21 63.654 20.08 63.594 19.96C63.534 19.84 63.484 19.71 63.444 19.57C63.404 19.49 63.384 19.38 63.384 19.24C63.384 18.88 63.444 18.55 63.564 18.25C63.664 18.07 63.694 17.89 63.654 17.71C63.634 17.63 63.634 17.55 63.654 17.47C63.694 17.39 63.704 17.31 63.684 17.23C63.664 17.15 63.644 17.08 63.624 17.02C63.624 16.96 63.624 16.89 63.624 16.81C63.604 16.77 63.594 16.72 63.594 16.66C63.594 16.54 63.594 16.42 63.594 16.3C63.594 16.16 63.574 16.02 63.534 15.88C63.514 15.82 63.504 15.73 63.504 15.61V14.5C63.484 14.24 63.454 13.98 63.414 13.72C63.374 13.46 63.324 13.2 63.264 12.94C63.264 12.88 63.254 12.82 63.234 12.76C63.234 12.7 63.234 12.64 63.234 12.58C63.234 12.14 63.164 11.71 63.024 11.29V11.02C63.064 10.8 63.044 10.63 62.964 10.51C62.944 10.43 62.934 10.32 62.934 10.18V10.15C62.934 9.95 62.924 9.75 62.904 9.55C62.904 9.35 62.914 9.15 62.934 8.95C62.974 8.59 62.974 8.21 62.934 7.81C62.934 7.65 62.934 7.49 62.934 7.33C62.934 7.17 62.924 7.02 62.904 6.88V6.7C62.944 6.6 62.964 6.51 62.964 6.43C62.964 6.35 62.964 6.27 62.964 6.19C62.964 5.95 62.954 5.72 62.934 5.5C62.934 5.26 62.914 5.03 62.874 4.81C62.874 4.75 62.874 4.69 62.874 4.63C62.874 4.55 62.864 4.48 62.844 4.42C62.844 4.28 62.794 4.16 62.694 4.06L62.484 3.88C62.284 3.76 62.154 3.57 62.094 3.31C62.074 3.27 62.064 3.24 62.064 3.22C62.064 3.18 62.054 3.14 62.034 3.1C61.994 3 62.014 2.91 62.094 2.83C62.154 2.75 62.194 2.67 62.214 2.59C62.214 2.53 62.224 2.48 62.244 2.44C62.284 2.38 62.314 2.32 62.334 2.26C62.354 2.2 62.374 2.13 62.394 2.05C62.434 1.99 62.464 1.97 62.484 1.99C62.624 1.99 62.724 1.97 62.784 1.93C62.924 1.83 63.074 1.81 63.234 1.87C63.274 1.89 63.334 1.88 63.414 1.84C63.434 1.84 63.444 1.83 63.444 1.81C63.544 1.71 63.654 1.66 63.774 1.66C63.894 1.64 64.024 1.64 64.164 1.66C64.184 1.66 64.204 1.67 64.224 1.69C64.244 1.69 64.264 1.69 64.284 1.69C64.444 1.73 64.594 1.77 64.734 1.81C64.894 1.83 65.044 1.83 65.184 1.81C65.284 1.81 65.384 1.82 65.484 1.84C65.604 1.86 65.714 1.87 65.814 1.87C65.894 1.87 65.964 1.88 66.024 1.9C66.104 1.92 66.174 1.94 66.234 1.96C66.314 1.98 66.384 2.01 66.444 2.05C66.504 2.07 66.574 2.08 66.654 2.08C66.754 2.1 66.834 2.12 66.894 2.14C66.974 2.16 67.054 2.19 67.134 2.23C67.394 2.37 67.654 2.5 67.914 2.62C68.034 2.68 68.144 2.76 68.244 2.86C68.384 2.96 68.504 3.02 68.604 3.04C68.624 3.04 68.644 3.05 68.664 3.07C68.684 3.07 68.704 3.07 68.724 3.07C68.744 3.09 68.764 3.1 68.784 3.1C68.804 3.1 68.824 3.11 68.844 3.13C68.944 3.23 69.064 3.31 69.204 3.37C69.364 3.41 69.494 3.48 69.594 3.58C69.634 3.62 69.694 3.66 69.774 3.7C69.934 3.76 70.074 3.85 70.194 3.97C70.234 4.01 70.264 4.03 70.284 4.03C70.364 4.03 70.454 4.08 70.554 4.18L71.184 4.84C71.264 4.92 71.324 4.99 71.364 5.05C71.464 5.19 71.574 5.32 71.694 5.44C71.814 5.56 71.934 5.68 72.054 5.8C72.094 5.84 72.134 5.89 72.174 5.95C72.234 5.99 72.274 6.04 72.294 6.1C72.314 6.14 72.344 6.18 72.384 6.22C72.424 6.24 72.454 6.27 72.474 6.31C72.694 6.55 72.904 6.8 73.104 7.06C73.324 7.32 73.524 7.59 73.704 7.87C73.804 8.01 73.894 8.16 73.974 8.32C74.054 8.48 74.124 8.64 74.184 8.8C74.244 8.94 74.304 9.08 74.364 9.22C74.444 9.36 74.514 9.5 74.574 9.64C74.634 9.86 74.704 10.06 74.784 10.24C74.864 10.5 74.944 10.75 75.024 10.99C75.104 11.23 75.174 11.49 75.234 11.77L75.324 12.16C75.324 12.32 75.324 12.49 75.324 12.67C75.344 12.83 75.354 13 75.354 13.18C75.354 13.26 75.344 13.33 75.324 13.39C75.324 13.45 75.304 13.52 75.264 13.6C75.224 13.72 75.204 13.83 75.204 13.93C75.184 14.13 75.134 14.32 75.054 14.5C74.994 14.68 74.924 14.85 74.844 15.01C74.664 15.33 74.504 15.65 74.364 15.97C74.324 16.05 74.284 16.13 74.244 16.21C74.224 16.27 74.194 16.34 74.154 16.42L73.974 16.78C73.834 17.06 73.664 17.34 73.464 17.62C73.284 17.88 73.084 18.13 72.864 18.37C72.784 18.47 72.684 18.57 72.564 18.67C72.464 18.75 72.364 18.84 72.264 18.94C72.064 19.12 71.864 19.3 71.664 19.48C71.464 19.64 71.254 19.8 71.034 19.96C70.834 20.1 70.624 20.23 70.404 20.35C70.204 20.47 69.984 20.57 69.744 20.65C69.624 20.67 69.504 20.73 69.384 20.83C69.264 20.91 69.134 20.99 68.994 21.07C68.874 21.15 68.744 21.24 68.604 21.34C68.544 21.36 68.484 21.39 68.424 21.43C68.364 21.45 68.294 21.47 68.214 21.49C68.154 21.51 68.084 21.53 68.004 21.55C67.944 21.57 67.884 21.59 67.824 21.61C67.744 21.63 67.664 21.66 67.584 21.7C67.524 21.74 67.464 21.79 67.404 21.85C67.264 21.95 67.114 22.03 66.954 22.09C66.794 22.17 66.634 22.26 66.474 22.36C66.434 22.38 66.364 22.39 66.264 22.39C66.204 22.41 66.144 22.41 66.084 22.39C66.024 22.39 65.964 22.39 65.904 22.39V22.42H65.724ZM66.924 19.06C67.124 19.06 67.294 19.02 67.434 18.94C67.594 18.88 67.744 18.81 67.884 18.73C68.024 18.65 68.154 18.56 68.274 18.46L68.634 18.1C68.834 17.94 69.014 17.77 69.174 17.59C69.354 17.41 69.544 17.25 69.744 17.11C69.784 17.07 69.804 17.05 69.804 17.05C69.884 16.97 69.954 16.9 70.014 16.84C70.094 16.76 70.164 16.68 70.224 16.6C70.264 16.56 70.314 16.51 70.374 16.45C70.434 16.39 70.474 16.34 70.494 16.3C70.574 16.16 70.684 16.04 70.824 15.94C70.924 15.88 70.984 15.82 71.004 15.76C71.044 15.66 71.094 15.56 71.154 15.46C71.234 15.36 71.314 15.27 71.394 15.19C71.494 15.07 71.594 14.89 71.694 14.65L71.814 14.35C71.934 14.07 71.994 13.81 71.994 13.57C72.014 13.51 72.024 13.42 72.024 13.3C72.044 13 72.024 12.68 71.964 12.34C71.944 12.24 71.924 12.14 71.904 12.04C71.884 11.94 71.874 11.85 71.874 11.77C71.854 11.69 71.834 11.62 71.814 11.56C71.814 11.48 71.794 11.41 71.754 11.35C71.714 11.27 71.684 11.19 71.664 11.11C71.644 11.03 71.624 10.95 71.604 10.87C71.604 10.73 71.584 10.61 71.544 10.51C71.504 10.39 71.464 10.27 71.424 10.15C71.364 10.03 71.304 9.91 71.244 9.79C71.184 9.65 71.134 9.51 71.094 9.37L71.064 9.25C71.004 9.17 70.954 9.09 70.914 9.01C70.894 8.91 70.864 8.82 70.824 8.74C70.744 8.56 70.664 8.38 70.584 8.2C70.524 8.02 70.444 7.85 70.344 7.69C70.244 7.51 70.134 7.33 70.014 7.15C69.914 6.97 69.784 6.81 69.624 6.67C69.164 6.17 68.634 5.72 68.034 5.32C67.674 5.06 67.314 4.89 66.954 4.81C66.814 4.77 66.654 4.74 66.474 4.72C66.294 4.68 66.124 4.65 65.964 4.63C65.904 4.63 65.854 4.65 65.814 4.69C65.714 4.77 65.664 4.87 65.664 4.99C65.664 5.13 65.654 5.28 65.634 5.44C65.634 5.58 65.634 5.73 65.634 5.89C65.674 6.17 65.664 6.4 65.604 6.58C65.584 6.66 65.564 6.74 65.544 6.82C65.544 6.9 65.554 6.99 65.574 7.09C65.614 7.21 65.604 7.32 65.544 7.42C65.484 7.54 65.484 7.67 65.544 7.81C65.624 7.97 65.644 8.17 65.604 8.41C65.544 8.65 65.544 8.89 65.604 9.13C65.624 9.21 65.634 9.29 65.634 9.37C65.654 9.45 65.654 9.54 65.634 9.64C65.634 9.86 65.644 10.08 65.664 10.3C65.704 10.52 65.734 10.74 65.754 10.96C65.754 11 65.774 11.06 65.814 11.14V11.62C65.814 11.66 65.804 11.71 65.784 11.77C65.784 11.81 65.794 11.85 65.814 11.89C65.854 12.05 65.884 12.22 65.904 12.4C65.944 12.56 65.984 12.72 66.024 12.88C66.024 12.92 66.034 12.97 66.054 13.03C66.074 13.07 66.084 13.12 66.084 13.18C66.084 13.32 66.094 13.46 66.114 13.6C66.134 13.74 66.154 13.89 66.174 14.05C66.234 14.61 66.324 15.18 66.444 15.76C66.504 16 66.534 16.25 66.534 16.51C66.534 16.57 66.534 16.64 66.534 16.72C66.534 16.78 66.544 16.84 66.564 16.9C66.604 17.04 66.624 17.18 66.624 17.32C66.624 17.46 66.624 17.6 66.624 17.74C66.624 17.78 66.614 17.83 66.594 17.89C66.594 17.95 66.604 18 66.624 18.04C66.664 18.14 66.684 18.24 66.684 18.34C66.684 18.42 66.684 18.51 66.684 18.61C66.684 18.69 66.704 18.79 66.744 18.91C66.744 19.01 66.804 19.06 66.924 19.06ZM83.488 22.15C83.408 22.15 83.338 22.15 83.278 22.15C83.218 22.15 83.148 22.14 83.068 22.12C83.028 22.12 82.978 22.11 82.918 22.09C82.878 22.09 82.838 22.09 82.798 22.09C82.478 22.07 82.178 22.01 81.898 21.91C81.618 21.81 81.338 21.69 81.058 21.55C81.038 21.55 81.018 21.55 80.998 21.55C80.998 21.53 80.988 21.52 80.968 21.52C80.768 21.42 80.588 21.3 80.428 21.16C80.288 21.02 80.148 20.88 80.008 20.74C79.848 20.54 79.738 20.35 79.678 20.17C79.598 20.01 79.498 19.84 79.378 19.66C79.178 19.44 79.028 19.16 78.928 18.82C78.868 18.66 78.808 18.5 78.748 18.34C78.688 18.18 78.638 18.01 78.598 17.83C78.578 17.77 78.558 17.71 78.538 17.65C78.518 17.57 78.488 17.49 78.448 17.41C78.408 17.31 78.368 17.2 78.328 17.08C78.308 16.96 78.278 16.84 78.238 16.72C78.218 16.64 78.188 16.51 78.148 16.33C78.128 16.13 78.118 16.01 78.118 15.97V14.68C78.138 14.56 78.158 14.45 78.178 14.35C78.198 14.23 78.218 14.11 78.238 13.99L78.268 13.96C78.268 13.98 78.268 13.99 78.268 13.99C78.288 13.99 78.298 14 78.298 14.02C78.318 14.02 78.328 14.03 78.328 14.05C78.348 14.07 78.358 14.06 78.358 14.02C78.358 13.9 78.348 13.8 78.328 13.72C78.328 13.68 78.318 13.64 78.298 13.6C78.298 13.56 78.338 13.53 78.418 13.51C78.438 13.51 78.448 13.48 78.448 13.42L78.718 12.1C78.738 12 78.758 11.91 78.778 11.83C78.798 11.73 78.818 11.64 78.838 11.56L78.898 11.23C78.878 11.27 78.888 11.2 78.928 11.02C78.988 10.84 79.028 10.72 79.048 10.66C79.088 10.56 79.138 10.46 79.198 10.36C79.278 10.26 79.328 10.19 79.348 10.15C79.508 9.97 79.658 9.72 79.798 9.4L80.368 8.5C80.448 8.42 80.488 8.32 80.488 8.2C80.468 8.1 80.498 7.99 80.578 7.87C80.638 7.75 80.698 7.63 80.758 7.51C80.838 7.39 80.918 7.27 80.998 7.15C81.098 6.99 81.208 6.83 81.328 6.67C81.468 6.49 81.598 6.33 81.718 6.19C81.758 6.13 81.798 6.07 81.838 6.01C81.898 5.95 81.968 5.91 82.048 5.89C82.088 5.89 82.118 5.88 82.138 5.86C82.158 5.84 82.178 5.82 82.198 5.8C82.598 5.38 83.048 4.99 83.548 4.63C83.588 4.59 83.628 4.55 83.668 4.51C83.708 4.47 83.748 4.44 83.788 4.42C83.888 4.36 83.998 4.33 84.118 4.33C84.218 4.33 84.298 4.32 84.358 4.3C84.418 4.3 84.508 4.28 84.628 4.24C84.768 4.2 84.878 4.22 84.958 4.3C85.078 4.42 85.278 4.46 85.558 4.42C85.738 4.4 85.888 4.5 86.008 4.72C86.048 4.78 86.078 4.84 86.098 4.9C86.138 4.96 86.188 5.01 86.248 5.05C86.308 5.17 86.388 5.28 86.488 5.38C86.608 5.48 86.708 5.58 86.788 5.68L87.178 6.22C87.218 6.28 87.258 6.35 87.298 6.43C87.358 6.49 87.408 6.55 87.448 6.61C87.548 6.71 87.608 6.81 87.628 6.91C87.668 7.01 87.698 7.08 87.718 7.12C87.758 7.14 87.788 7.23 87.808 7.39C87.828 7.47 87.828 7.52 87.808 7.54C87.808 7.54 87.848 7.54 87.928 7.54C88.008 7.54 88.048 7.59 88.048 7.69C88.048 7.91 88.008 8.1 87.928 8.26C87.888 8.32 87.848 8.35 87.808 8.35C87.788 8.35 87.758 8.37 87.718 8.41C87.658 8.51 87.588 8.61 87.508 8.71C87.448 8.81 87.378 8.92 87.298 9.04C87.238 9.14 87.158 9.23 87.058 9.31C86.978 9.39 86.888 9.47 86.788 9.55C86.628 9.71 86.438 9.77 86.218 9.73C86.038 9.73 85.908 9.72 85.828 9.7C85.768 9.68 85.708 9.66 85.648 9.64C85.608 9.6 85.558 9.57 85.498 9.55C85.458 9.55 85.418 9.53 85.378 9.49C85.358 9.45 85.338 9.42 85.318 9.4C85.298 9.36 85.268 9.33 85.228 9.31C85.128 9.25 85.048 9.18 84.988 9.1C84.928 9 84.878 8.91 84.838 8.83C84.818 8.77 84.808 8.71 84.808 8.65C84.808 8.59 84.808 8.54 84.808 8.5C84.788 8.38 84.768 8.26 84.748 8.14C84.748 8.02 84.728 7.9 84.688 7.78C84.688 7.74 84.638 7.72 84.538 7.72C84.418 7.8 84.298 7.88 84.178 7.96C84.058 8.04 83.948 8.14 83.848 8.26L82.918 9.37C82.858 9.43 82.798 9.5 82.738 9.58C82.698 9.64 82.658 9.7 82.618 9.76C82.538 9.86 82.458 9.97 82.378 10.09C82.318 10.19 82.238 10.29 82.138 10.39C82.098 10.43 82.068 10.47 82.048 10.51C81.988 10.65 81.918 10.78 81.838 10.9C81.778 11.02 81.718 11.16 81.658 11.32C81.558 11.52 81.468 11.74 81.388 11.98C81.328 12.2 81.278 12.43 81.238 12.67C81.218 12.97 81.158 13.27 81.058 13.57C81.038 13.67 81.018 13.78 80.998 13.9C80.978 14.02 80.958 14.14 80.938 14.26C80.918 14.44 80.888 14.62 80.848 14.8C80.808 14.98 80.798 15.17 80.818 15.37C80.858 15.77 80.918 16.15 80.998 16.51C81.058 16.71 81.108 16.91 81.148 17.11C81.208 17.29 81.268 17.48 81.328 17.68C81.348 17.74 81.368 17.8 81.388 17.86C81.408 17.92 81.428 17.98 81.448 18.04C81.568 18.32 81.788 18.54 82.108 18.7C82.228 18.76 82.358 18.79 82.498 18.79C82.618 18.79 82.738 18.8 82.858 18.82C82.978 18.82 83.098 18.81 83.218 18.79C83.778 18.73 84.298 18.64 84.778 18.52C84.998 18.48 85.208 18.42 85.408 18.34C85.608 18.26 85.808 18.18 86.008 18.1C86.168 18.04 86.318 17.95 86.458 17.83C86.618 17.71 86.778 17.59 86.938 17.47C87.118 17.33 87.288 17.19 87.448 17.05C87.608 16.91 87.768 16.77 87.928 16.63C88.088 16.49 88.238 16.34 88.378 16.18C88.438 16.12 88.528 16.05 88.648 15.97C88.708 15.93 88.768 15.89 88.828 15.85C88.888 15.81 88.938 15.77 88.978 15.73C89.078 15.67 89.168 15.61 89.248 15.55C89.348 15.49 89.458 15.46 89.578 15.46C89.638 15.42 89.698 15.4 89.758 15.4C89.838 15.38 89.908 15.36 89.968 15.34C90.148 15.28 90.308 15.28 90.448 15.34C90.508 15.36 90.568 15.38 90.628 15.4C90.688 15.42 90.748 15.45 90.808 15.49C90.968 15.59 91.118 15.75 91.258 15.97C91.358 16.21 91.408 16.42 91.408 16.6V16.78C91.408 17.04 91.308 17.27 91.108 17.47C90.888 17.75 90.658 17.97 90.418 18.13C90.278 18.21 90.138 18.32 89.998 18.46C89.798 18.62 89.588 18.79 89.368 18.97C89.168 19.15 88.958 19.32 88.738 19.48L88.618 19.6C88.558 19.64 88.498 19.69 88.438 19.75C88.378 19.81 88.308 19.86 88.228 19.9C88.088 20.04 87.928 20.17 87.748 20.29C87.568 20.39 87.388 20.49 87.208 20.59C87.028 20.67 86.858 20.79 86.698 20.95C86.638 21.01 86.578 21.07 86.518 21.13C86.458 21.19 86.388 21.24 86.308 21.28C86.048 21.42 85.748 21.56 85.408 21.7C85.388 21.72 85.358 21.74 85.318 21.76C85.278 21.78 85.238 21.8 85.198 21.82C85.078 21.88 84.948 21.93 84.808 21.97C84.688 21.99 84.568 22.01 84.448 22.03C84.288 22.05 84.128 22.06 83.968 22.06C83.808 22.08 83.648 22.11 83.488 22.15ZM106.305 22.72C106.125 22.74 105.955 22.74 105.795 22.72C105.635 22.7 105.475 22.62 105.315 22.48C105.275 22.44 105.215 22.4 105.135 22.36C105.035 22.3 104.975 22.23 104.955 22.15C104.935 22.07 104.895 22.01 104.835 21.97C104.775 21.91 104.735 21.84 104.715 21.76C104.695 21.7 104.685 21.64 104.685 21.58C104.705 21.5 104.715 21.43 104.715 21.37C104.715 21.31 104.705 21.25 104.685 21.19C104.685 21.13 104.685 21.07 104.685 21.01C104.625 20.71 104.565 20.41 104.505 20.11C104.445 19.79 104.395 19.48 104.355 19.18C104.335 19.04 104.315 18.9 104.295 18.76C104.275 18.62 104.255 18.48 104.235 18.34C104.215 18.08 104.185 17.82 104.145 17.56C104.125 17.3 104.095 17.04 104.055 16.78C104.015 16.62 103.995 16.48 103.995 16.36C103.995 16.2 103.985 16.05 103.965 15.91C103.945 15.75 103.925 15.6 103.905 15.46C103.885 15.34 103.815 15.28 103.695 15.28L103.485 15.25C103.385 15.23 103.275 15.22 103.155 15.22C103.035 15.22 102.915 15.21 102.795 15.19H102.495C102.455 15.21 102.395 15.22 102.315 15.22C102.235 15.22 102.155 15.22 102.075 15.22C102.015 15.2 101.935 15.2 101.835 15.22C101.755 15.22 101.675 15.23 101.595 15.25C101.535 15.25 101.455 15.24 101.355 15.22C101.335 15.2 101.295 15.2 101.235 15.22C101.195 15.22 101.155 15.22 101.115 15.22C101.015 15.22 100.905 15.23 100.785 15.25C100.685 15.25 100.585 15.25 100.485 15.25C100.425 15.25 100.365 15.25 100.305 15.25C100.245 15.25 100.185 15.26 100.125 15.28C99.9846 15.3 99.8446 15.32 99.7046 15.34C99.5646 15.34 99.4246 15.34 99.2846 15.34C99.0846 15.32 98.8846 15.32 98.6846 15.34C98.4846 15.36 98.2846 15.38 98.0846 15.4H97.9946C97.8946 15.44 97.8446 15.5 97.8446 15.58C97.8446 15.6 97.8346 15.62 97.8146 15.64C97.8146 15.64 97.8146 15.65 97.8146 15.67C97.8146 15.77 97.8246 15.85 97.8446 15.91C97.8646 16.05 97.8846 16.2 97.9046 16.36C97.9246 16.5 97.9446 16.65 97.9646 16.81L98.0546 17.53C98.0746 17.73 98.1046 17.93 98.1446 18.13C98.1846 18.31 98.2146 18.49 98.2346 18.67C98.2546 18.69 98.2646 18.72 98.2646 18.76C98.2646 18.78 98.2746 18.81 98.2946 18.85C98.3346 18.95 98.3546 19.06 98.3546 19.18C98.3546 19.3 98.3546 19.42 98.3546 19.54C98.3946 19.56 98.3846 19.6 98.3246 19.66C98.3046 19.7 98.2846 19.74 98.2646 19.78C98.2446 19.82 98.2346 19.86 98.2346 19.9C98.1746 20.1 98.0446 20.29 97.8446 20.47C97.6446 20.63 97.4546 20.72 97.2746 20.74C97.2546 20.74 97.2346 20.75 97.2146 20.77C97.1946 20.77 97.1646 20.77 97.1246 20.77C96.8646 20.83 96.5846 20.81 96.2846 20.71L96.1946 20.65C96.1746 20.57 96.1346 20.51 96.0746 20.47C96.0146 20.43 95.9646 20.39 95.9246 20.35C95.8846 20.29 95.8346 20.24 95.7746 20.2C95.7346 20.14 95.7046 20.07 95.6846 19.99C95.6846 19.97 95.6746 19.96 95.6546 19.96C95.5746 19.86 95.5246 19.75 95.5046 19.63C95.4846 19.51 95.4646 19.39 95.4446 19.27L95.3546 18.79C95.3346 18.61 95.3046 18.43 95.2646 18.25C95.2446 18.05 95.2246 17.85 95.2046 17.65L95.0246 16.48C95.0046 16.34 94.9846 16.2 94.9646 16.06C94.9446 15.9 94.9246 15.75 94.9046 15.61L94.8146 14.65C94.7946 14.45 94.7746 14.25 94.7546 14.05C94.7346 13.85 94.7046 13.65 94.6646 13.45V13.18C94.6646 13.02 94.6546 12.86 94.6346 12.7C94.6346 12.54 94.6246 12.39 94.6046 12.25C94.5846 12.19 94.5746 12.13 94.5746 12.07C94.5746 12.01 94.5746 11.95 94.5746 11.89C94.5746 11.79 94.5646 11.7 94.5446 11.62C94.5446 11.52 94.5346 11.42 94.5146 11.32L94.4246 10.69C94.4046 10.47 94.3646 10.24 94.3046 10C94.2646 9.76 94.2046 9.53 94.1246 9.31C94.0846 9.19 94.0346 9.07 93.9746 8.95C93.9146 8.81 93.8646 8.67 93.8246 8.53C93.7846 8.37 93.7446 8.26 93.7046 8.2C93.6446 8 93.6446 7.81 93.7046 7.63L93.8846 7.18C93.9046 7.1 93.9646 7.03 94.0646 6.97C94.1046 6.91 94.1546 6.86 94.2146 6.82C94.2746 6.76 94.3346 6.71 94.3946 6.67C94.4346 6.65 94.4846 6.64 94.5446 6.64C94.6046 6.66 94.6846 6.65 94.7846 6.61L94.8746 6.55C95.0546 6.45 95.2346 6.45 95.4146 6.55C95.5146 6.59 95.6146 6.63 95.7146 6.67C95.8346 6.71 95.9346 6.78 96.0146 6.88C96.1346 6.9 96.2146 6.99 96.2546 7.15L96.5246 7.75C96.6846 8.09 96.8246 8.44 96.9446 8.8C97.0646 9.16 97.1446 9.54 97.1846 9.94C97.2046 10.08 97.2246 10.23 97.2446 10.39C97.2846 10.53 97.3146 10.68 97.3346 10.84V11.08C97.3346 11.18 97.3446 11.25 97.3646 11.29C97.3846 11.43 97.3946 11.58 97.3946 11.74C97.4146 11.9 97.4246 12.06 97.4246 12.22V12.28C97.4446 12.38 97.5046 12.45 97.6046 12.49C97.6646 12.51 97.7246 12.53 97.7846 12.55C97.8446 12.55 97.9046 12.55 97.9646 12.55C98.0646 12.53 98.1446 12.53 98.2046 12.55C98.2846 12.55 98.3646 12.55 98.4446 12.55C98.5846 12.55 98.7146 12.55 98.8346 12.55C98.9546 12.53 99.0846 12.52 99.2246 12.52H99.5846C99.6446 12.52 99.7046 12.53 99.7646 12.55C99.8446 12.55 99.9146 12.54 99.9746 12.52C100.015 12.52 100.045 12.52 100.065 12.52C100.105 12.5 100.135 12.49 100.155 12.49C100.355 12.51 100.555 12.52 100.755 12.52C100.955 12.5 101.155 12.49 101.355 12.49C101.555 12.51 101.755 12.52 101.955 12.52C102.155 12.5 102.355 12.49 102.555 12.49C102.715 12.49 102.865 12.5 103.005 12.52C103.165 12.52 103.315 12.52 103.455 12.52C103.595 12.52 103.665 12.46 103.665 12.34C103.665 12.24 103.665 12.13 103.665 12.01C103.665 11.89 103.655 11.78 103.635 11.68C103.615 11.46 103.595 11.26 103.575 11.08C103.575 10.88 103.565 10.68 103.545 10.48C103.525 10.2 103.515 9.93 103.515 9.67C103.535 9.39 103.525 9.12 103.485 8.86C103.465 8.64 103.445 8.42 103.425 8.2C103.425 7.98 103.405 7.77 103.365 7.57V7.15C103.365 7.07 103.375 7.01 103.395 6.97C103.395 6.93 103.395 6.9 103.395 6.88C103.415 6.84 103.425 6.81 103.425 6.79C103.425 6.69 103.405 6.63 103.365 6.61L103.275 6.55C103.155 6.47 103.135 6.38 103.215 6.28C103.275 6.2 103.285 6.11 103.245 6.01C103.245 5.95 103.255 5.91 103.275 5.89C103.315 5.83 103.355 5.77 103.395 5.71C103.435 5.65 103.465 5.58 103.485 5.5C103.545 5.28 103.635 5.18 103.755 5.2C103.895 5.2 103.985 5.22 104.025 5.26C104.045 5.28 104.065 5.29 104.085 5.29C104.105 5.27 104.115 5.25 104.115 5.23C104.115 5.11 104.175 5.04 104.295 5.02C104.415 5 104.505 4.98 104.565 4.96L104.745 4.84H104.835C104.935 4.88 105.015 4.93 105.075 4.99C105.155 5.03 105.235 5.07 105.315 5.11C105.355 5.13 105.405 5.17 105.465 5.23C105.605 5.41 105.705 5.64 105.765 5.92C105.805 6.12 105.845 6.31 105.885 6.49C105.925 6.67 105.955 6.86 105.975 7.06C105.975 7.1 105.975 7.14 105.975 7.18C105.995 7.22 106.005 7.26 106.005 7.3L106.035 7.51C106.035 7.75 106.045 7.99 106.065 8.23C106.105 8.45 106.135 8.68 106.155 8.92C106.175 8.94 106.185 8.98 106.185 9.04C106.165 9.18 106.155 9.32 106.155 9.46C106.175 9.58 106.195 9.72 106.215 9.88C106.235 10.02 106.245 10.18 106.245 10.36C106.265 10.52 106.275 10.68 106.275 10.84C106.275 10.94 106.275 11.05 106.275 11.17C106.295 11.29 106.315 11.4 106.335 11.5C106.355 11.6 106.365 11.7 106.365 11.8C106.365 11.9 106.365 12 106.365 12.1C106.365 12.2 106.365 12.3 106.365 12.4C106.385 12.48 106.405 12.57 106.425 12.67V12.79C106.445 13.03 106.465 13.27 106.485 13.51C106.525 13.73 106.555 13.96 106.575 14.2C106.595 14.22 106.605 14.26 106.605 14.32C106.605 14.54 106.625 14.77 106.665 15.01C106.705 15.23 106.735 15.45 106.755 15.67L106.845 16.72C106.845 16.74 106.845 16.78 106.845 16.84C106.865 16.88 106.875 16.92 106.875 16.96C106.895 17 106.905 17.08 106.905 17.2C106.905 17.38 106.915 17.56 106.935 17.74C106.975 17.92 107.005 18.1 107.025 18.28C107.065 18.48 107.095 18.68 107.115 18.88C107.135 19.08 107.165 19.29 107.205 19.51C107.245 19.75 107.295 19.99 107.355 20.23C107.415 20.47 107.465 20.71 107.505 20.95C107.525 21.03 107.535 21.12 107.535 21.22C107.555 21.3 107.565 21.39 107.565 21.49C107.565 21.59 107.535 21.69 107.475 21.79C107.455 21.81 107.435 21.85 107.415 21.91C107.415 21.95 107.395 21.99 107.355 22.03C107.335 22.05 107.325 22.07 107.325 22.09C107.325 22.11 107.315 22.12 107.295 22.12C107.215 22.14 107.145 22.19 107.085 22.27C107.025 22.35 106.955 22.41 106.875 22.45C106.795 22.53 106.685 22.59 106.545 22.63L106.305 22.72ZM114.147 22.21C114.027 22.21 113.947 22.2 113.907 22.18C113.807 22.14 113.707 22.12 113.607 22.12C113.527 22.14 113.437 22.15 113.337 22.15C113.317 22.15 113.297 22.15 113.277 22.15C113.257 22.17 113.237 22.18 113.217 22.18C113.077 22.2 112.937 22.21 112.797 22.21C112.677 22.21 112.557 22.19 112.437 22.15C112.417 22.13 112.397 22.12 112.377 22.12C112.237 22.14 112.117 22.1 112.017 22C111.917 21.9 111.817 21.81 111.717 21.73C111.617 21.63 111.567 21.52 111.567 21.4L111.477 21.16C111.417 21.02 111.397 20.89 111.417 20.77C111.437 20.73 111.437 20.69 111.417 20.65C111.417 20.61 111.417 20.57 111.417 20.53C111.397 20.49 111.387 20.45 111.387 20.41C111.387 20.35 111.377 20.3 111.357 20.26C111.317 20.08 111.287 19.9 111.267 19.72C111.267 19.52 111.277 19.33 111.297 19.15C111.317 19.03 111.387 18.83 111.507 18.55C111.627 18.25 111.697 18.07 111.717 18.01C111.777 17.91 111.807 17.83 111.807 17.77C111.787 17.55 111.777 17.33 111.777 17.11C111.797 16.87 111.807 16.64 111.807 16.42C111.807 16.28 111.837 16.17 111.897 16.09C111.977 15.95 111.987 15.8 111.927 15.64L111.837 15.31C111.717 15.09 111.727 14.9 111.867 14.74C111.867 14.72 111.867 14.71 111.867 14.71C111.887 14.69 111.897 14.67 111.897 14.65C111.937 14.61 111.947 14.56 111.927 14.5C111.907 14.42 111.897 14.36 111.897 14.32C111.897 14.24 111.907 14.16 111.927 14.08C111.967 13.98 111.977 13.89 111.957 13.81C111.957 13.81 111.937 13.79 111.897 13.75C111.877 13.71 111.867 13.63 111.867 13.51C111.887 13.39 111.897 13.32 111.897 13.3V12.46C111.917 12.36 111.927 12.27 111.927 12.19C111.927 12.09 111.937 11.99 111.957 11.89C111.977 11.77 111.977 11.65 111.957 11.53C111.957 11.39 111.957 11.25 111.957 11.11C111.937 11.01 111.917 10.9 111.897 10.78C111.897 10.66 111.897 10.54 111.897 10.42C111.877 10.38 111.867 10.33 111.867 10.27C111.867 10.21 111.867 10.16 111.867 10.12C111.847 10.02 111.827 9.92 111.807 9.82C111.807 9.72 111.807 9.62 111.807 9.52C111.807 9.48 111.767 9.35 111.687 9.13C111.607 8.89 111.577 8.69 111.597 8.53C111.617 8.49 111.627 8.44 111.627 8.38C111.627 8.32 111.607 8.27 111.567 8.23C111.527 8.21 111.507 8.17 111.507 8.11V8.02C111.567 7.78 111.537 7.54 111.417 7.3C111.337 7.18 111.307 7.06 111.327 6.94C111.327 6.78 111.257 6.66 111.117 6.58C111.017 6.48 110.927 6.36 110.847 6.22C110.767 6.08 110.717 5.94 110.697 5.8C110.677 5.7 110.667 5.6 110.667 5.5C110.667 5.4 110.667 5.31 110.667 5.23C110.667 5.15 110.677 5.1 110.697 5.08C110.777 5 110.817 4.91 110.817 4.81C110.817 4.69 110.827 4.6 110.847 4.54C110.867 4.52 110.887 4.51 110.907 4.51C110.927 4.51 110.947 4.5 110.967 4.48C111.047 4.46 111.087 4.39 111.087 4.27C111.047 4.19 111.027 4.12 111.027 4.06C111.007 3.98 111.037 3.91 111.117 3.85C111.157 3.77 111.207 3.75 111.267 3.79C111.407 3.85 111.567 3.83 111.747 3.73C111.827 3.69 111.877 3.67 111.897 3.67C111.957 3.67 111.987 3.67 111.987 3.67C112.007 3.65 112.067 3.64 112.167 3.64C112.287 3.66 112.397 3.62 112.497 3.52C112.637 3.38 112.807 3.31 113.007 3.31H114.867C115.327 3.33 115.787 3.33 116.247 3.31C116.707 3.29 117.157 3.28 117.597 3.28C117.697 3.28 117.777 3.28 117.837 3.28C117.917 3.26 117.997 3.24 118.077 3.22C118.197 3.16 118.337 3.13 118.497 3.13H119.187C119.347 3.13 119.487 3.13 119.607 3.13C119.747 3.11 119.887 3.09 120.027 3.07C120.107 3.05 120.177 3.04 120.237 3.04C120.317 3.04 120.397 3.04 120.477 3.04C120.557 3.04 120.637 3.04 120.717 3.04C120.797 3.04 120.877 3.03 120.957 3.01C121.117 2.99 121.287 2.98 121.467 2.98C121.647 2.96 121.817 2.95 121.977 2.95C122.057 2.95 122.127 2.95 122.187 2.95C122.267 2.93 122.347 2.91 122.427 2.89C122.587 2.85 122.737 2.83 122.877 2.83C123.037 2.81 123.187 2.79 123.327 2.77C123.487 2.75 123.637 2.73 123.777 2.71C123.937 2.69 124.087 2.67 124.227 2.65C124.407 2.65 124.537 2.67 124.617 2.71C124.737 2.79 124.847 2.86 124.947 2.92C125.067 2.98 125.177 3.06 125.277 3.16C125.357 3.24 125.407 3.31 125.427 3.37C125.447 3.45 125.467 3.53 125.487 3.61C125.507 3.69 125.527 3.78 125.547 3.88V4.09C125.527 4.19 125.507 4.3 125.487 4.42C125.487 4.52 125.477 4.63 125.457 4.75C125.417 4.83 125.367 4.9 125.307 4.96L124.767 5.5C124.567 5.56 124.367 5.6 124.167 5.62C123.987 5.64 123.797 5.64 123.597 5.62H123.387C123.287 5.64 123.187 5.65 123.087 5.65C122.987 5.65 122.887 5.64 122.787 5.62C122.667 5.6 122.547 5.6 122.427 5.62C122.307 5.62 122.187 5.62 122.067 5.62C121.987 5.62 121.907 5.63 121.827 5.65C121.767 5.65 121.697 5.64 121.617 5.62C121.517 5.6 121.417 5.6 121.317 5.62C121.237 5.62 121.147 5.63 121.047 5.65C120.967 5.65 120.877 5.66 120.777 5.68C120.697 5.68 120.607 5.68 120.507 5.68C120.247 5.72 119.967 5.74 119.667 5.74C119.387 5.74 119.107 5.76 118.827 5.8C118.647 5.78 118.477 5.79 118.317 5.83C118.157 5.85 117.987 5.87 117.807 5.89C117.647 5.91 117.477 5.92 117.297 5.92C117.117 5.92 116.947 5.94 116.787 5.98C116.587 5.98 116.387 6.01 116.187 6.07C116.007 6.11 115.817 6.14 115.617 6.16L115.407 6.19C115.267 6.19 115.137 6.21 115.017 6.25C114.897 6.27 114.767 6.3 114.627 6.34C114.547 6.36 114.467 6.38 114.387 6.4C114.307 6.4 114.217 6.41 114.117 6.43C114.057 6.43 113.987 6.45 113.907 6.49C113.847 6.51 113.817 6.57 113.817 6.67L113.907 6.94C113.927 6.98 113.917 7.08 113.877 7.24C113.857 7.4 113.837 7.52 113.817 7.6C113.817 7.66 113.827 7.72 113.847 7.78C113.867 7.84 113.887 7.9 113.907 7.96C113.967 8.12 113.997 8.3 113.997 8.5C113.997 8.68 114.017 8.85 114.057 9.01C114.077 9.09 114.087 9.18 114.087 9.28C114.087 9.36 114.097 9.45 114.117 9.55C114.117 9.59 114.117 9.64 114.117 9.7C114.137 9.74 114.147 9.79 114.147 9.85C114.147 9.91 114.137 9.95 114.117 9.97C114.057 10.05 114.027 10.14 114.027 10.24C114.027 10.34 114.027 10.44 114.027 10.54C114.127 10.74 114.177 10.94 114.177 11.14C114.177 11.34 114.177 11.54 114.177 11.74C114.177 11.8 114.227 11.82 114.327 11.8H114.357C114.397 11.72 114.437 11.66 114.477 11.62C114.537 11.62 114.607 11.6 114.687 11.56C114.747 11.52 114.827 11.5 114.927 11.5C115.087 11.52 115.237 11.52 115.377 11.5C115.517 11.46 115.657 11.42 115.797 11.38C116.737 11.14 117.617 10.83 118.437 10.45C118.657 10.35 118.887 10.27 119.127 10.21C119.367 10.13 119.607 10.08 119.847 10.06H119.937C120.117 10.04 120.297 10.02 120.477 10C120.657 9.98 120.837 9.97 121.017 9.97C121.257 9.95 121.487 9.92 121.707 9.88C121.947 9.84 122.187 9.81 122.427 9.79C122.567 9.75 122.697 9.72 122.817 9.7C122.937 9.66 123.067 9.61 123.207 9.55C123.467 9.45 123.707 9.4 123.927 9.4C124.087 9.42 124.237 9.46 124.377 9.52C124.517 9.56 124.657 9.62 124.797 9.7C125.097 9.9 125.247 10.2 125.247 10.6C125.247 10.76 125.227 10.92 125.187 11.08C125.167 11.24 125.157 11.4 125.157 11.56C125.157 11.6 125.137 11.64 125.097 11.68L125.007 11.83C124.987 11.91 124.967 11.99 124.947 12.07C124.927 12.15 124.877 12.21 124.797 12.25C124.677 12.35 124.547 12.46 124.407 12.58C124.287 12.68 124.147 12.75 123.987 12.79C123.907 12.81 123.827 12.83 123.747 12.85C123.687 12.87 123.617 12.88 123.537 12.88C123.217 12.88 122.887 12.9 122.547 12.94C122.227 12.98 121.897 13.02 121.557 13.06C121.297 13.08 121.037 13.11 120.777 13.15C120.537 13.19 120.287 13.21 120.027 13.21C119.787 13.21 119.517 13.26 119.217 13.36C119.017 13.4 118.807 13.44 118.587 13.48C118.367 13.52 118.147 13.55 117.927 13.57C117.767 13.59 117.597 13.62 117.417 13.66C117.257 13.68 117.097 13.7 116.937 13.72L116.427 13.81C116.387 13.83 116.327 13.84 116.247 13.84C116.107 13.88 115.967 13.91 115.827 13.93C115.687 13.95 115.547 13.98 115.407 14.02C115.267 14.04 115.127 14.07 114.987 14.11C114.867 14.15 114.737 14.19 114.597 14.23C114.497 14.25 114.417 14.29 114.357 14.35C114.297 14.39 114.247 14.45 114.207 14.53C114.187 14.59 114.187 14.65 114.207 14.71C114.227 14.79 114.217 14.87 114.177 14.95C114.197 15.15 114.207 15.35 114.207 15.55C114.227 15.75 114.227 15.95 114.207 16.15C114.247 16.31 114.257 16.47 114.237 16.63C114.237 16.79 114.227 16.95 114.207 17.11C114.167 17.35 114.177 17.55 114.237 17.71C114.297 17.97 114.277 18.24 114.177 18.52C114.137 18.64 114.137 18.72 114.177 18.76C114.217 18.82 114.217 18.89 114.177 18.97V19.15C114.157 19.31 114.227 19.39 114.387 19.39H114.447C114.587 19.39 114.727 19.44 114.867 19.54C114.967 19.64 115.087 19.67 115.227 19.63L116.067 19.54C116.187 19.52 116.307 19.51 116.427 19.51C116.547 19.49 116.667 19.48 116.787 19.48C116.827 19.46 116.887 19.47 116.967 19.51C117.067 19.57 117.157 19.58 117.237 19.54C117.277 19.5 117.327 19.47 117.387 19.45C117.467 19.43 117.527 19.4 117.567 19.36C117.687 19.24 117.837 19.2 118.017 19.24C118.177 19.28 118.307 19.27 118.407 19.21C118.587 19.15 118.757 19.13 118.917 19.15C119.017 19.17 119.117 19.16 119.217 19.12C119.317 19.08 119.417 19.06 119.517 19.06C119.557 19.06 119.587 19.07 119.607 19.09C119.627 19.09 119.647 19.08 119.667 19.06C119.707 19.06 119.747 19.05 119.787 19.03C119.827 19.01 119.857 19 119.877 19C120.017 18.94 120.147 18.92 120.267 18.94C120.367 18.94 120.417 18.94 120.417 18.94C120.497 18.92 120.567 18.92 120.627 18.94C120.707 18.96 120.777 18.99 120.837 19.03C120.937 19.05 121.017 19.08 121.077 19.12C121.157 19.16 121.237 19.19 121.317 19.21C121.357 19.21 121.387 19.22 121.407 19.24C121.507 19.32 121.627 19.39 121.767 19.45C121.927 19.51 122.017 19.58 122.037 19.66C122.077 19.78 122.097 19.9 122.097 20.02C122.097 20.12 122.107 20.23 122.127 20.35C122.127 20.41 122.117 20.47 122.097 20.53C122.097 20.59 122.087 20.65 122.067 20.71C122.027 20.79 121.977 20.88 121.917 20.98C121.877 21.08 121.817 21.17 121.737 21.25C121.697 21.29 121.657 21.33 121.617 21.37C121.597 21.41 121.567 21.45 121.527 21.49C121.447 21.57 121.357 21.64 121.257 21.7C121.157 21.76 121.047 21.79 120.927 21.79C120.847 21.79 120.787 21.8 120.747 21.82C120.667 21.86 120.587 21.88 120.507 21.88C120.427 21.88 120.337 21.88 120.237 21.88C120.097 21.9 119.957 21.92 119.817 21.94C119.697 21.94 119.567 21.93 119.427 21.91C119.347 21.89 119.277 21.89 119.217 21.91C119.017 21.97 118.817 21.98 118.617 21.94C118.417 21.94 118.217 21.95 118.017 21.97C117.837 21.97 117.657 21.97 117.477 21.97H117.087C117.027 21.97 116.977 21.98 116.937 22C116.857 22.04 116.757 22.06 116.637 22.06C116.537 22.06 116.437 22.05 116.337 22.03H116.037C116.017 22.03 115.987 22.03 115.947 22.03C115.907 22.05 115.867 22.05 115.827 22.03C115.767 22.01 115.707 22 115.647 22C115.607 22.02 115.557 22.04 115.497 22.06C115.457 22.06 115.417 22.06 115.377 22.06C115.357 22.08 115.327 22.09 115.287 22.09C115.087 22.07 114.897 22.07 114.717 22.09C114.537 22.13 114.347 22.17 114.147 22.21ZM133.293 22.15C133.213 22.15 133.143 22.15 133.083 22.15C133.023 22.15 132.953 22.14 132.873 22.12C132.833 22.12 132.783 22.11 132.723 22.09C132.683 22.09 132.643 22.09 132.603 22.09C132.283 22.07 131.983 22.01 131.703 21.91C131.423 21.81 131.143 21.69 130.863 21.55C130.843 21.55 130.823 21.55 130.803 21.55C130.803 21.53 130.793 21.52 130.773 21.52C130.573 21.42 130.393 21.3 130.233 21.16C130.093 21.02 129.953 20.88 129.813 20.74C129.653 20.54 129.543 20.35 129.483 20.17C129.403 20.01 129.303 19.84 129.183 19.66C128.983 19.44 128.833 19.16 128.733 18.82C128.673 18.66 128.613 18.5 128.553 18.34C128.493 18.18 128.443 18.01 128.403 17.83C128.383 17.77 128.363 17.71 128.343 17.65C128.323 17.57 128.293 17.49 128.253 17.41C128.213 17.31 128.173 17.2 128.133 17.08C128.113 16.96 128.083 16.84 128.043 16.72C128.023 16.64 127.993 16.51 127.953 16.33C127.933 16.13 127.923 16.01 127.923 15.97V14.68C127.943 14.56 127.963 14.45 127.983 14.35C128.003 14.23 128.023 14.11 128.043 13.99L128.073 13.96C128.073 13.98 128.073 13.99 128.073 13.99C128.093 13.99 128.103 14 128.103 14.02C128.123 14.02 128.133 14.03 128.133 14.05C128.153 14.07 128.163 14.06 128.163 14.02C128.163 13.9 128.153 13.8 128.133 13.72C128.133 13.68 128.123 13.64 128.103 13.6C128.103 13.56 128.143 13.53 128.223 13.51C128.243 13.51 128.253 13.48 128.253 13.42L128.523 12.1C128.543 12 128.563 11.91 128.583 11.83C128.603 11.73 128.623 11.64 128.643 11.56L128.703 11.23C128.683 11.27 128.693 11.2 128.733 11.02C128.793 10.84 128.833 10.72 128.853 10.66C128.893 10.56 128.943 10.46 129.003 10.36C129.083 10.26 129.133 10.19 129.153 10.15C129.313 9.97 129.463 9.72 129.603 9.4L130.173 8.5C130.253 8.42 130.293 8.32 130.293 8.2C130.273 8.1 130.303 7.99 130.383 7.87C130.443 7.75 130.503 7.63 130.563 7.51C130.643 7.39 130.723 7.27 130.803 7.15C130.903 6.99 131.013 6.83 131.133 6.67C131.273 6.49 131.403 6.33 131.523 6.19C131.563 6.13 131.603 6.07 131.643 6.01C131.703 5.95 131.773 5.91 131.853 5.89C131.893 5.89 131.923 5.88 131.943 5.86C131.963 5.84 131.983 5.82 132.003 5.8C132.403 5.38 132.853 4.99 133.353 4.63C133.393 4.59 133.433 4.55 133.473 4.51C133.513 4.47 133.553 4.44 133.593 4.42C133.693 4.36 133.803 4.33 133.923 4.33C134.023 4.33 134.103 4.32 134.163 4.3C134.223 4.3 134.313 4.28 134.433 4.24C134.573 4.2 134.683 4.22 134.763 4.3C134.883 4.42 135.083 4.46 135.363 4.42C135.543 4.4 135.693 4.5 135.813 4.72C135.853 4.78 135.883 4.84 135.903 4.9C135.943 4.96 135.993 5.01 136.053 5.05C136.113 5.17 136.193 5.28 136.293 5.38C136.413 5.48 136.513 5.58 136.593 5.68L136.983 6.22C137.023 6.28 137.063 6.35 137.103 6.43C137.163 6.49 137.213 6.55 137.253 6.61C137.353 6.71 137.413 6.81 137.433 6.91C137.473 7.01 137.503 7.08 137.523 7.12C137.563 7.14 137.593 7.23 137.613 7.39C137.633 7.47 137.633 7.52 137.613 7.54C137.613 7.54 137.653 7.54 137.733 7.54C137.813 7.54 137.853 7.59 137.853 7.69C137.853 7.91 137.813 8.1 137.733 8.26C137.693 8.32 137.653 8.35 137.613 8.35C137.593 8.35 137.563 8.37 137.523 8.41C137.463 8.51 137.393 8.61 137.313 8.71C137.253 8.81 137.183 8.92 137.103 9.04C137.043 9.14 136.963 9.23 136.863 9.31C136.783 9.39 136.693 9.47 136.593 9.55C136.433 9.71 136.243 9.77 136.023 9.73C135.843 9.73 135.713 9.72 135.633 9.7C135.573 9.68 135.513 9.66 135.453 9.64C135.413 9.6 135.363 9.57 135.303 9.55C135.263 9.55 135.223 9.53 135.183 9.49C135.163 9.45 135.143 9.42 135.123 9.4C135.103 9.36 135.073 9.33 135.033 9.31C134.933 9.25 134.853 9.18 134.793 9.1C134.733 9 134.683 8.91 134.643 8.83C134.623 8.77 134.613 8.71 134.613 8.65C134.613 8.59 134.613 8.54 134.613 8.5C134.593 8.38 134.573 8.26 134.553 8.14C134.553 8.02 134.533 7.9 134.493 7.78C134.493 7.74 134.443 7.72 134.343 7.72C134.223 7.8 134.103 7.88 133.983 7.96C133.863 8.04 133.753 8.14 133.653 8.26L132.723 9.37C132.663 9.43 132.603 9.5 132.543 9.58C132.503 9.64 132.463 9.7 132.423 9.76C132.343 9.86 132.263 9.97 132.183 10.09C132.123 10.19 132.043 10.29 131.943 10.39C131.903 10.43 131.873 10.47 131.853 10.51C131.793 10.65 131.723 10.78 131.643 10.9C131.583 11.02 131.523 11.16 131.463 11.32C131.363 11.52 131.273 11.74 131.193 11.98C131.133 12.2 131.083 12.43 131.043 12.67C131.023 12.97 130.963 13.27 130.863 13.57C130.843 13.67 130.823 13.78 130.803 13.9C130.783 14.02 130.763 14.14 130.743 14.26C130.723 14.44 130.693 14.62 130.653 14.8C130.613 14.98 130.603 15.17 130.623 15.37C130.663 15.77 130.723 16.15 130.803 16.51C130.863 16.71 130.913 16.91 130.953 17.11C131.013 17.29 131.073 17.48 131.133 17.68C131.153 17.74 131.173 17.8 131.193 17.86C131.213 17.92 131.233 17.98 131.253 18.04C131.373 18.32 131.593 18.54 131.913 18.7C132.033 18.76 132.163 18.79 132.303 18.79C132.423 18.79 132.543 18.8 132.663 18.82C132.783 18.82 132.903 18.81 133.023 18.79C133.583 18.73 134.103 18.64 134.583 18.52C134.803 18.48 135.013 18.42 135.213 18.34C135.413 18.26 135.613 18.18 135.813 18.1C135.973 18.04 136.123 17.95 136.263 17.83C136.423 17.71 136.583 17.59 136.743 17.47C136.923 17.33 137.093 17.19 137.253 17.05C137.413 16.91 137.573 16.77 137.733 16.63C137.893 16.49 138.043 16.34 138.183 16.18C138.243 16.12 138.333 16.05 138.453 15.97C138.513 15.93 138.573 15.89 138.633 15.85C138.693 15.81 138.743 15.77 138.783 15.73C138.883 15.67 138.973 15.61 139.053 15.55C139.153 15.49 139.263 15.46 139.383 15.46C139.443 15.42 139.503 15.4 139.563 15.4C139.643 15.38 139.713 15.36 139.773 15.34C139.953 15.28 140.113 15.28 140.253 15.34C140.313 15.36 140.373 15.38 140.433 15.4C140.493 15.42 140.553 15.45 140.613 15.49C140.773 15.59 140.923 15.75 141.063 15.97C141.163 16.21 141.213 16.42 141.213 16.6V16.78C141.213 17.04 141.113 17.27 140.913 17.47C140.693 17.75 140.463 17.97 140.223 18.13C140.083 18.21 139.943 18.32 139.803 18.46C139.603 18.62 139.393 18.79 139.173 18.97C138.973 19.15 138.763 19.32 138.543 19.48L138.423 19.6C138.363 19.64 138.303 19.69 138.243 19.75C138.183 19.81 138.113 19.86 138.033 19.9C137.893 20.04 137.733 20.17 137.553 20.29C137.373 20.39 137.193 20.49 137.013 20.59C136.833 20.67 136.663 20.79 136.503 20.95C136.443 21.01 136.383 21.07 136.323 21.13C136.263 21.19 136.193 21.24 136.113 21.28C135.853 21.42 135.553 21.56 135.213 21.7C135.193 21.72 135.163 21.74 135.123 21.76C135.083 21.78 135.043 21.8 135.003 21.82C134.883 21.88 134.753 21.93 134.613 21.97C134.493 21.99 134.373 22.01 134.253 22.03C134.093 22.05 133.933 22.06 133.773 22.06C133.613 22.08 133.453 22.11 133.293 22.15ZM145.24 22.51C145.12 22.51 145.01 22.47 144.91 22.39C144.85 22.33 144.78 22.28 144.7 22.24C144.62 22.2 144.55 22.15 144.49 22.09C144.43 22.05 144.37 22.01 144.31 21.97C144.27 21.91 144.23 21.86 144.19 21.82C144.11 21.7 144.04 21.58 143.98 21.46C143.94 21.32 143.93 21.18 143.95 21.04C143.99 20.82 144.01 20.61 144.01 20.41C144.03 20.19 144.05 19.98 144.07 19.78C144.09 19.68 144.1 19.58 144.1 19.48C144.12 19.36 144.13 19.25 144.13 19.15C144.13 18.91 144.13 18.67 144.13 18.43C144.15 18.19 144.18 17.95 144.22 17.71V17.65C144.24 17.03 144.26 16.42 144.28 15.82C144.32 15.2 144.34 14.58 144.34 13.96C144.32 13.5 144.31 13.04 144.31 12.58C144.31 12.12 144.31 11.67 144.31 11.23C144.31 11.01 144.31 10.8 144.31 10.6C144.33 10.4 144.32 10.2 144.28 10C144.26 9.66 144.24 9.33 144.22 9.01C144.22 8.69 144.22 8.37 144.22 8.05C144.22 7.99 144.21 7.93 144.19 7.87C144.19 7.81 144.19 7.75 144.19 7.69C144.17 7.61 144.16 7.53 144.16 7.45C144.16 7.35 144.15 7.26 144.13 7.18C144.13 7.08 144.12 6.98 144.1 6.88C144.1 6.78 144.09 6.69 144.07 6.61V6.4C144.05 6.18 144.03 5.98 144.01 5.8C143.99 5.6 143.96 5.4 143.92 5.2C143.9 5.04 143.88 4.87 143.86 4.69C143.86 4.51 143.86 4.33 143.86 4.15C143.86 4.03 143.9 3.94 143.98 3.88C144.02 3.84 144.04 3.79 144.04 3.73C144.08 3.65 144.1 3.58 144.1 3.52C144.16 3.36 144.24 3.26 144.34 3.22C144.4 3.18 144.45 3.15 144.49 3.13C144.55 3.09 144.61 3.08 144.67 3.1C144.77 3.1 144.83 3.07 144.85 3.01C144.89 2.99 144.92 2.97 144.94 2.95C144.96 2.91 144.98 2.89 145 2.89C145.1 2.89 145.19 2.88 145.27 2.86C145.37 2.84 145.47 2.85 145.57 2.89C145.69 2.93 145.79 2.95 145.87 2.95C145.97 2.97 146.04 3.01 146.08 3.07C146.12 3.11 146.16 3.13 146.2 3.13C146.3 3.15 146.37 3.22 146.41 3.34C146.45 3.38 146.47 3.43 146.47 3.49C146.49 3.53 146.51 3.56 146.53 3.58C146.63 3.68 146.66 3.8 146.62 3.94C146.58 4.16 146.58 4.38 146.62 4.6C146.64 4.66 146.64 4.72 146.62 4.78C146.62 4.84 146.63 4.9 146.65 4.96C146.65 5.1 146.65 5.24 146.65 5.38C146.67 5.5 146.69 5.64 146.71 5.8C146.73 5.88 146.74 5.96 146.74 6.04C146.74 6.1 146.74 6.18 146.74 6.28C146.74 6.42 146.74 6.58 146.74 6.76C146.74 6.92 146.75 7.08 146.77 7.24C146.79 7.28 146.8 7.35 146.8 7.45C146.8 7.59 146.8 7.73 146.8 7.87C146.82 8.01 146.84 8.15 146.86 8.29C146.92 8.59 146.95 8.88 146.95 9.16C146.93 9.3 146.93 9.45 146.95 9.61C146.97 9.77 146.98 9.93 146.98 10.09C146.98 10.13 147 10.15 147.04 10.15C147.08 10.15 147.11 10.14 147.13 10.12C147.17 10.1 147.23 10.05 147.31 9.97L148.75 8.53C149.05 8.19 149.38 7.89 149.74 7.63C149.92 7.49 150.09 7.35 150.25 7.21C150.41 7.05 150.56 6.89 150.7 6.73C150.9 6.51 151.09 6.29 151.27 6.07C151.47 5.85 151.67 5.63 151.87 5.41C151.97 5.31 152.06 5.2 152.14 5.08C152.24 4.96 152.33 4.84 152.41 4.72C152.53 4.58 152.64 4.45 152.74 4.33C152.86 4.19 152.99 4.06 153.13 3.94C153.19 3.9 153.24 3.86 153.28 3.82C153.34 3.76 153.41 3.72 153.49 3.7C153.51 3.7 153.52 3.7 153.52 3.7C153.54 3.68 153.55 3.67 153.55 3.67C153.75 3.49 153.95 3.46 154.15 3.58C154.21 3.62 154.3 3.64 154.42 3.64C154.58 3.64 154.72 3.7 154.84 3.82C154.88 3.84 154.91 3.86 154.93 3.88C154.97 3.88 155 3.89 155.02 3.91H155.32C155.44 3.91 155.5 3.93 155.5 3.97C155.52 3.99 155.52 4.05 155.5 4.15C155.46 4.21 155.48 4.27 155.56 4.33C155.66 4.35 155.69 4.41 155.65 4.51C155.63 4.55 155.65 4.6 155.71 4.66C155.77 4.7 155.77 4.75 155.71 4.81C155.61 4.97 155.55 5.13 155.53 5.29C155.49 5.39 155.44 5.49 155.38 5.59C155.34 5.67 155.27 5.76 155.17 5.86C154.93 6.06 154.71 6.29 154.51 6.55C154.31 6.79 154.1 7.04 153.88 7.3L153.7 7.48C153.5 7.66 153.31 7.85 153.13 8.05C152.97 8.25 152.81 8.45 152.65 8.65C152.43 8.91 152.19 9.17 151.93 9.43C151.69 9.67 151.45 9.91 151.21 10.15C151.09 10.27 151 10.35 150.94 10.39C150.84 10.47 150.74 10.56 150.64 10.66C150.54 10.76 150.44 10.87 150.34 10.99C150.32 11.03 150.28 11.07 150.22 11.11C150.18 11.15 150.14 11.19 150.1 11.23C149.96 11.37 149.82 11.52 149.68 11.68C149.54 11.82 149.39 11.96 149.23 12.1C149.23 12.12 149.22 12.14 149.2 12.16C149.2 12.16 149.2 12.17 149.2 12.19C149.2 12.21 149.19 12.23 149.17 12.25C149.17 12.27 149.18 12.29 149.2 12.31C149.22 12.37 149.27 12.44 149.35 12.52L150.22 13.33C150.4 13.47 150.57 13.63 150.73 13.81C150.89 13.97 151.05 14.13 151.21 14.29L151.51 14.65C151.55 14.69 151.59 14.74 151.63 14.8C151.67 14.84 151.71 14.88 151.75 14.92C151.97 15.1 152.19 15.28 152.41 15.46C152.63 15.64 152.84 15.82 153.04 16L153.49 16.36C153.73 16.56 153.99 16.75 154.27 16.93C154.55 17.11 154.82 17.28 155.08 17.44C155.22 17.52 155.35 17.6 155.47 17.68C155.61 17.74 155.75 17.8 155.89 17.86C156.15 17.98 156.36 18.19 156.52 18.49C156.54 18.51 156.56 18.55 156.58 18.61C156.6 18.65 156.62 18.69 156.64 18.73C156.74 18.95 156.78 19.16 156.76 19.36C156.76 19.52 156.74 19.63 156.7 19.69L156.61 19.93C156.59 20.01 156.55 20.1 156.49 20.2C156.45 20.28 156.38 20.35 156.28 20.41C156.24 20.43 156.2 20.48 156.16 20.56C156.08 20.64 156.01 20.68 155.95 20.68C155.85 20.7 155.74 20.72 155.62 20.74C155.52 20.76 155.42 20.78 155.32 20.8C155.24 20.82 155.16 20.83 155.08 20.83C155 20.83 154.92 20.82 154.84 20.8C154.82 20.78 154.79 20.77 154.75 20.77C154.67 20.75 154.59 20.73 154.51 20.71C154.45 20.69 154.39 20.67 154.33 20.65C154.27 20.61 154.21 20.57 154.15 20.53C154.11 20.47 154.07 20.42 154.03 20.38C153.99 20.34 153.94 20.3 153.88 20.26C153.82 20.22 153.76 20.19 153.7 20.17L153.25 19.9C153.23 19.86 153.19 19.83 153.13 19.81C153.09 19.77 153.05 19.74 153.01 19.72C152.93 19.68 152.88 19.65 152.86 19.63C152.78 19.53 152.68 19.45 152.56 19.39C152.46 19.33 152.36 19.26 152.26 19.18C152.1 19.04 151.93 18.91 151.75 18.79C151.59 18.65 151.43 18.51 151.27 18.37C150.93 18.07 150.59 17.77 150.25 17.47C149.93 17.17 149.61 16.86 149.29 16.54C149.05 16.3 148.81 16.06 148.57 15.82C148.33 15.58 148.07 15.34 147.79 15.1C147.71 15.04 147.63 14.98 147.55 14.92C147.49 14.86 147.41 14.8 147.31 14.74C147.29 14.7 147.26 14.69 147.22 14.71C147.2 14.73 147.19 14.76 147.19 14.8C147.17 14.82 147.16 14.87 147.16 14.95V18.19C147.16 18.39 147.16 18.6 147.16 18.82C147.16 19.02 147.14 19.23 147.1 19.45V19.9C147.08 20.04 147.07 20.18 147.07 20.32C147.09 20.46 147.09 20.61 147.07 20.77V21.22C147.05 21.28 147.03 21.34 147.01 21.4C146.99 21.46 146.96 21.52 146.92 21.58C146.86 21.64 146.81 21.71 146.77 21.79C146.73 21.85 146.69 21.91 146.65 21.97C146.61 22.01 146.57 22.03 146.53 22.03C146.45 22.05 146.37 22.09 146.29 22.15C146.23 22.21 146.15 22.26 146.05 22.3C145.91 22.42 145.74 22.48 145.54 22.48C145.5 22.46 145.45 22.46 145.39 22.48C145.35 22.5 145.3 22.51 145.24 22.51Z" fill="#353535"/>
</svg>
