<svg width="150" height="24" viewBox="0 0 150 24" fill="none" xmlns="http://www.w3.org/2000/svg">
<path d="M4.92686 20.225L4.50186 20.15C4.28519 20.1167 4.06019 20.0833 3.82686 20.05C3.61019 20.0167 3.38519 19.9917 3.15186 19.975C2.91852 19.975 2.68519 19.9083 2.45186 19.775C2.23519 19.6583 2.08519 19.475 2.00186 19.225C1.98519 19.1417 1.96019 19.0583 1.92686 18.975C1.91019 18.8917 1.89352 18.8083 1.87686 18.725C1.87686 18.525 1.91852 18.375 2.00186 18.275C2.08519 18.1917 2.15186 18.1083 2.20186 18.025C2.26852 17.9417 2.33519 17.8667 2.40186 17.8C2.43519 17.7667 2.46852 17.7417 2.50186 17.725C2.53519 17.7083 2.56852 17.6917 2.60186 17.675C2.68519 17.625 2.76852 17.5917 2.85186 17.575C2.93519 17.5417 3.01852 17.5167 3.10186 17.5C3.13519 17.4833 3.16019 17.4833 3.17686 17.5C3.21019 17.5 3.23519 17.5 3.25186 17.5C3.33519 17.5167 3.42686 17.5333 3.52686 17.55C3.62686 17.55 3.71852 17.5667 3.80186 17.6L4.85186 17.75C5.08519 17.7833 5.29352 17.75 5.47686 17.65C5.54352 17.6167 5.60186 17.5833 5.65186 17.55C5.71852 17.5167 5.77686 17.4833 5.82686 17.45C6.19352 17.2333 6.51019 17.0083 6.77686 16.775C6.97686 16.5917 7.16852 16.4083 7.35186 16.225C7.53519 16.0417 7.70186 15.8417 7.85186 15.625C7.96852 15.475 8.04352 15.325 8.07686 15.175C8.11019 15.0083 8.11852 14.8417 8.10186 14.675L8.02686 14.475C8.01019 14.3917 7.97686 14.325 7.92686 14.275C7.87686 14.225 7.82686 14.1667 7.77686 14.1C7.67686 14.0167 7.57686 13.925 7.47686 13.825C7.39352 13.725 7.30186 13.6417 7.20186 13.575C6.95186 13.375 6.70186 13.1833 6.45186 13C6.21852 12.8167 5.97686 12.6333 5.72686 12.45C5.71019 12.4167 5.66019 12.3833 5.57686 12.35C5.42686 12.25 5.27686 12.1417 5.12686 12.025C4.99352 11.8917 4.86019 11.7667 4.72686 11.65C4.56019 11.4833 4.37686 11.325 4.17686 11.175C4.07686 11.125 3.98519 11.0417 3.90186 10.925C3.83519 10.8417 3.73519 10.7583 3.60186 10.675C3.48519 10.6083 3.37686 10.5333 3.27686 10.45C3.17686 10.35 3.07686 10.2583 2.97686 10.175L2.65186 9.875C2.58519 9.79167 2.51019 9.71667 2.42686 9.65C2.36019 9.56667 2.28519 9.48333 2.20186 9.4C2.16852 9.31667 2.11852 9.25 2.05186 9.2C2.00186 9.15 1.95186 9.09167 1.90186 9.025C1.88519 8.99167 1.86019 8.95833 1.82686 8.925C1.79352 8.875 1.76852 8.825 1.75186 8.775C1.65186 8.575 1.54352 8.375 1.42686 8.175C1.32686 7.975 1.23519 7.76667 1.15186 7.55C1.10186 7.41667 1.05186 7.29167 1.00186 7.175C0.968522 7.04167 0.935189 6.91667 0.901856 6.8C0.885189 6.66667 0.851856 6.55 0.801856 6.45C0.768522 6.33333 0.735189 6.21667 0.701855 6.1C0.668522 5.91667 0.626855 5.74167 0.576856 5.575C0.543522 5.39167 0.510189 5.21667 0.476856 5.05L0.426855 4.85C0.410189 4.66667 0.410189 4.49167 0.426855 4.325C0.460189 4.09167 0.510189 3.88333 0.576856 3.7C0.643522 3.5 0.751856 3.34167 0.901856 3.225C1.06852 3.09167 1.23519 2.95833 1.40186 2.825C1.56852 2.69167 1.74352 2.58333 1.92686 2.5C1.96019 2.5 1.98519 2.49167 2.00186 2.475C2.16852 2.34167 2.35186 2.25 2.55186 2.2C2.75186 2.13333 2.95186 2.075 3.15186 2.025C3.95186 1.79167 4.77686 1.61667 5.62686 1.5H5.87686C6.04352 1.5 6.20186 1.5 6.35186 1.5C6.50186 1.5 6.66019 1.49167 6.82686 1.475C7.02686 1.475 7.22686 1.5 7.42686 1.55C7.62686 1.58333 7.81852 1.64167 8.00186 1.725C8.13519 1.79167 8.26852 1.86667 8.40186 1.95C8.53519 2.01667 8.66019 2.09167 8.77686 2.175C8.91019 2.275 8.99352 2.38333 9.02686 2.5L9.10186 2.675C9.18519 2.825 9.22686 2.98333 9.22686 3.15C9.24352 3.3 9.23519 3.45833 9.20186 3.625C9.20186 3.675 9.19352 3.73333 9.17686 3.8C9.17686 3.85 9.17686 3.9 9.17686 3.95C9.12686 4.31667 8.95186 4.6 8.65186 4.8C8.46852 4.96667 8.22686 5.03333 7.92686 5C7.86019 4.96667 7.82686 4.98333 7.82686 5.05C7.82686 5.11667 7.78519 5.15 7.70186 5.15H7.55186C7.45186 5.15 7.35186 5.1 7.25186 5C7.16852 4.91667 7.12686 4.85 7.12686 4.8C7.12686 4.73333 7.16019 4.68333 7.22686 4.65C7.19352 4.56667 7.16019 4.49167 7.12686 4.425C7.09352 4.35833 7.06019 4.30833 7.02686 4.275C6.97686 4.19167 6.90186 4.13333 6.80186 4.1C6.71852 4.08333 6.63519 4.06667 6.55186 4.05C6.46852 4.03333 6.38519 4.01667 6.30186 4C6.23519 4 6.16019 4 6.07686 4C5.99352 3.98333 5.91019 3.96667 5.82686 3.95C5.77686 3.93333 5.70186 3.94167 5.60186 3.975C5.55186 3.99167 5.50186 4.00833 5.45186 4.025C5.40186 4.025 5.34352 4.01667 5.27686 4C5.22686 4 5.16852 4 5.10186 4C5.05186 4 4.99352 4.01667 4.92686 4.05L4.45186 4.125C4.18519 4.175 3.92686 4.275 3.67686 4.425C3.62686 4.44167 3.57686 4.45833 3.52686 4.475C3.47686 4.49167 3.42686 4.49167 3.37686 4.475C3.27686 4.45833 3.19352 4.48333 3.12686 4.55C3.11019 4.58333 3.06852 4.60833 3.00186 4.625C2.95186 4.625 2.91019 4.64167 2.87686 4.675C2.81019 4.74167 2.77686 4.80833 2.77686 4.875C2.79352 4.90833 2.80186 4.95833 2.80186 5.025L3.32686 6.55C3.42686 6.81667 3.55186 7.06667 3.70186 7.3C3.86852 7.51667 4.04352 7.73333 4.22686 7.95C4.51019 8.28333 4.80186 8.56667 5.10186 8.8L5.90186 9.475C6.06852 9.625 6.24352 9.76667 6.42686 9.9C6.61019 10.0333 6.78519 10.1667 6.95186 10.3C7.20186 10.4833 7.45186 10.675 7.70186 10.875C7.95186 11.0583 8.20186 11.25 8.45186 11.45C8.65186 11.6167 8.84352 11.7833 9.02686 11.95C9.22686 12.1 9.41019 12.2667 9.57686 12.45C9.69352 12.5833 9.81019 12.7167 9.92686 12.85C10.0435 12.9833 10.1435 13.1333 10.2269 13.3C10.3435 13.4833 10.4435 13.7 10.5269 13.95C10.6269 14.2667 10.6685 14.5667 10.6519 14.85C10.6352 14.8833 10.6269 14.9333 10.6269 15C10.6269 15.2 10.6019 15.3917 10.5519 15.575C10.5185 15.7417 10.4602 15.9167 10.3769 16.1C10.2935 16.2667 10.2019 16.4417 10.1019 16.625C10.0185 16.7917 9.91852 16.9583 9.80186 17.125C9.63519 17.3417 9.46019 17.55 9.27686 17.75C9.11019 17.9333 8.91852 18.1167 8.70186 18.3C8.58519 18.4 8.46852 18.5083 8.35186 18.625C8.23519 18.725 8.11019 18.8167 7.97686 18.9C7.89352 18.9667 7.81019 19.025 7.72686 19.075C7.64352 19.1417 7.56019 19.2083 7.47686 19.275C7.41019 19.3083 7.34352 19.35 7.27686 19.4C7.21019 19.45 7.14352 19.5 7.07686 19.55C7.01019 19.6167 6.92686 19.6667 6.82686 19.7C6.74352 19.75 6.66019 19.7917 6.57686 19.825L5.85186 20.125C5.70186 20.175 5.55186 20.2083 5.40186 20.225C5.25186 20.2417 5.09352 20.2417 4.92686 20.225ZM17.0288 18.975C16.9955 18.9583 16.9455 18.95 16.8788 18.95C16.8455 18.95 16.8121 18.925 16.7788 18.875C16.7455 18.825 16.7121 18.7833 16.6788 18.75C16.6455 18.7 16.6121 18.6417 16.5788 18.575C16.5288 18.5083 16.4871 18.5083 16.4538 18.575H16.4038C16.4038 18.5583 16.3955 18.55 16.3788 18.55C16.3788 18.5333 16.3788 18.525 16.3788 18.525C16.3288 18.2917 16.2538 18.075 16.1538 17.875C16.1038 17.7417 16.0538 17.6083 16.0038 17.475C15.9705 17.325 15.9455 17.175 15.9288 17.025L15.7788 15.925L15.7038 15.025V14.975C15.6705 14.775 15.6538 14.575 15.6538 14.375C15.6538 14.1583 15.6538 13.9417 15.6538 13.725C15.6371 13.6083 15.6288 13.5 15.6288 13.4C15.6288 13.2833 15.6205 13.1667 15.6038 13.05C15.5871 12.9167 15.5705 12.7833 15.5538 12.65C15.5538 12.5167 15.5538 12.3917 15.5538 12.275L15.5788 10.3V7.625C15.5455 7.525 15.4955 7.475 15.4288 7.475C15.3955 7.475 15.3538 7.48333 15.3038 7.5C15.2705 7.5 15.2371 7.5 15.2038 7.5L14.0788 7.8C13.9288 7.85 13.7788 7.9 13.6288 7.95C13.4788 7.98333 13.3288 8.025 13.1788 8.075C13.0621 8.09167 12.9455 8.10833 12.8288 8.125C12.7288 8.125 12.6205 8.125 12.5038 8.125C12.4205 8.125 12.3288 8.09167 12.2288 8.025C12.1121 7.975 12.0121 7.90833 11.9288 7.825C11.8455 7.74167 11.7621 7.65 11.6788 7.55L11.6288 7.475C11.5955 7.35833 11.5621 7.25 11.5288 7.15C11.5121 7.03333 11.5121 6.91667 11.5288 6.8C11.5455 6.65 11.5788 6.50833 11.6288 6.375C11.6955 6.24167 11.7871 6.125 11.9038 6.025C11.9538 5.99167 11.9955 5.95 12.0288 5.9C12.0788 5.85 12.1288 5.8 12.1788 5.75C12.2455 5.71667 12.2871 5.7 12.3038 5.7C12.4038 5.7 12.4955 5.68333 12.5788 5.65C12.6621 5.6 12.7455 5.56667 12.8288 5.55C12.9121 5.53333 12.9955 5.51667 13.0788 5.5C13.1621 5.48333 13.2455 5.46667 13.3288 5.45C13.5621 5.38333 13.7955 5.325 14.0288 5.275C14.2621 5.20833 14.4955 5.15833 14.7288 5.125L16.0788 4.9C16.1121 4.88333 16.1371 4.875 16.1538 4.875C16.1871 4.875 16.2121 4.86667 16.2288 4.85C16.3288 4.81667 16.4288 4.79167 16.5288 4.775C16.6288 4.75833 16.7288 4.76667 16.8288 4.8C16.8621 4.81667 16.8871 4.825 16.9038 4.825C16.9371 4.80833 16.9621 4.8 16.9788 4.8C17.2621 4.76667 17.5455 4.73333 17.8288 4.7C18.1121 4.66667 18.3871 4.625 18.6538 4.575C18.8705 4.54167 19.0871 4.50833 19.3038 4.475C19.5205 4.44167 19.7371 4.41667 19.9538 4.4C20.1205 4.36667 20.2871 4.34167 20.4538 4.325C20.6205 4.30833 20.7871 4.29167 20.9538 4.275C21.0871 4.25833 21.2205 4.24167 21.3538 4.225C21.5038 4.20833 21.6455 4.19167 21.7788 4.175C21.9121 4.15833 22.0371 4.15833 22.1538 4.175C22.2871 4.175 22.4205 4.175 22.5538 4.175C22.6371 4.175 22.7121 4.2 22.7788 4.25C22.8621 4.3 22.9371 4.34167 23.0038 4.375C23.0705 4.425 23.1621 4.50833 23.2788 4.625C23.3121 4.65833 23.3455 4.73333 23.3788 4.85C23.3955 4.9 23.4121 4.95833 23.4288 5.025C23.4455 5.075 23.4621 5.13333 23.4788 5.2C23.5121 5.35 23.4955 5.49167 23.4288 5.625L23.2788 5.975C23.2621 6.025 23.2371 6.075 23.2038 6.125C23.1871 6.15833 23.1621 6.19167 23.1288 6.225C23.0955 6.25833 23.0788 6.275 23.0788 6.275C23.0121 6.325 22.9371 6.375 22.8538 6.425C22.7871 6.475 22.7038 6.50833 22.6038 6.525L21.5288 6.6C21.4288 6.6 21.3288 6.60833 21.2288 6.625C21.1288 6.625 21.0205 6.63333 20.9038 6.65H20.7788C20.5121 6.66667 20.2538 6.69167 20.0038 6.725C19.7538 6.75833 19.5038 6.79167 19.2538 6.825L18.2538 6.975C18.2038 6.975 18.1705 6.98333 18.1538 7C18.0871 7 18.0371 7.05 18.0038 7.15V7.225C18.0038 7.39167 18.0038 7.55833 18.0038 7.725C18.0038 7.875 18.0121 8.03333 18.0288 8.2C18.0788 8.43333 18.0788 8.66667 18.0288 8.9C18.0121 8.95 17.9955 9 17.9788 9.05C17.9788 9.08333 17.9788 9.11667 17.9788 9.15C17.9955 9.35 17.9788 9.56667 17.9288 9.8C17.9288 9.85 17.9288 9.9 17.9288 9.95C17.9288 10 17.9371 10.05 17.9538 10.1C17.9705 10.1667 17.9788 10.2417 17.9788 10.325C17.9788 10.4083 17.9788 10.4917 17.9788 10.575V11.875C17.9788 11.9417 17.9705 12.025 17.9538 12.125C17.9538 12.2083 17.9538 12.2917 17.9538 12.375C17.9538 12.4417 17.9538 12.5167 17.9538 12.6C17.9705 12.6833 17.9788 12.7667 17.9788 12.85C17.9788 12.9667 17.9788 13.0833 17.9788 13.2C17.9955 13.3167 17.9955 13.4417 17.9788 13.575V14.35C17.9788 14.3667 17.9705 14.3833 17.9538 14.4C17.9538 14.4167 17.9621 14.4417 17.9788 14.475C17.9955 14.625 18.0038 14.7833 18.0038 14.95C18.0038 15.1 18.0205 15.25 18.0538 15.4C18.0538 15.45 18.0538 15.5 18.0538 15.55C18.0705 15.6 18.0705 15.65 18.0538 15.7C18.0538 15.85 18.0705 16.0083 18.1038 16.175C18.1371 16.325 18.1621 16.475 18.1788 16.625C18.2121 16.8083 18.2455 16.9917 18.2788 17.175C18.3288 17.3583 18.3705 17.5417 18.4038 17.725L18.4788 18.075C18.4788 18.125 18.4538 18.1667 18.4038 18.2C18.4038 18.2 18.3955 18.2 18.3788 18.2C18.3788 18.2 18.3705 18.2083 18.3538 18.225C18.2705 18.2583 18.2371 18.3083 18.2538 18.375V18.5C18.2538 18.5 18.2455 18.5083 18.2288 18.525C18.2288 18.5417 18.2205 18.55 18.2038 18.55C18.1205 18.55 18.0538 18.5833 18.0038 18.65C17.9538 18.7167 17.8955 18.775 17.8288 18.825C17.7788 18.8583 17.7121 18.8917 17.6288 18.925C17.4121 19.0083 17.2121 19.025 17.0288 18.975ZM27.6948 19.25C27.5948 19.25 27.5282 19.2417 27.4948 19.225C27.4282 19.1917 27.3698 19.1667 27.3198 19.15C27.2698 19.1333 27.2198 19.1167 27.1698 19.1C27.1198 19.0667 27.0698 19.0333 27.0198 19C26.9865 18.95 26.9532 18.9 26.9198 18.85C26.8865 18.8167 26.8532 18.8 26.8198 18.8C26.7198 18.8 26.6698 18.75 26.6698 18.65C26.6532 18.55 26.6365 18.45 26.6198 18.35C26.6032 18.25 26.5865 18.15 26.5698 18.05C26.5532 17.9 26.5365 17.75 26.5198 17.6C26.5198 17.45 26.5032 17.3083 26.4698 17.175V16.95C26.4698 16.8833 26.4615 16.825 26.4448 16.775C26.4448 16.725 26.4448 16.6667 26.4448 16.6C26.4115 16.5167 26.4115 16.45 26.4448 16.4C26.4782 16.1 26.4782 15.8 26.4448 15.5C26.4282 15.4167 26.4198 15.3333 26.4198 15.25C26.4198 15.1667 26.4115 15.0833 26.3948 15C26.3948 14.8333 26.3948 14.6667 26.3948 14.5C26.3948 14.3167 26.3782 14.1417 26.3448 13.975V13.575C26.3448 13.4417 26.3365 13.3167 26.3198 13.2C26.3198 13.0833 26.3115 12.9667 26.2948 12.85C26.2782 12.7 26.2615 12.55 26.2448 12.4C26.2448 12.25 26.2365 12.1 26.2198 11.95C26.2032 11.9167 26.1948 11.8583 26.1948 11.775C26.1782 11.6917 26.1615 11.6083 26.1448 11.525C26.1448 11.425 26.1448 11.3333 26.1448 11.25L26.0698 10C26.0532 9.86667 26.0365 9.74167 26.0198 9.625C26.0198 9.49167 26.0198 9.36667 26.0198 9.25C26.0032 9.05 25.9865 8.85 25.9698 8.65C25.9532 8.45 25.9365 8.25833 25.9198 8.075C25.9198 8.04167 25.9115 8.00833 25.8948 7.975C25.8948 7.94167 25.8948 7.91667 25.8948 7.9C25.8948 7.7 25.8865 7.5 25.8698 7.3C25.8532 7.1 25.8365 6.89167 25.8198 6.675L25.7448 5.975C25.6948 5.70833 25.6865 5.41667 25.7198 5.1C25.7198 4.95 25.7782 4.825 25.8948 4.725C25.9282 4.69167 25.9532 4.675 25.9698 4.675C25.9865 4.65833 26.0032 4.64167 26.0198 4.625C26.1032 4.60833 26.1448 4.55 26.1448 4.45C26.1448 4.41667 26.1782 4.4 26.2448 4.4H26.3698C26.3865 4.4 26.3948 4.4 26.3948 4.4C26.4115 4.38333 26.4282 4.375 26.4448 4.375C26.4782 4.35833 26.5032 4.34167 26.5198 4.325C26.5532 4.29167 26.5782 4.275 26.5948 4.275C26.6282 4.275 26.6615 4.28333 26.6948 4.3C26.7282 4.3 26.7615 4.30833 26.7948 4.325C26.8282 4.325 26.8532 4.31667 26.8698 4.3C26.9532 4.28333 27.0365 4.29167 27.1198 4.325C27.2198 4.34167 27.3032 4.36667 27.3698 4.4C27.4698 4.41667 27.5448 4.48333 27.5948 4.6C27.6448 4.75 27.6865 4.9 27.7198 5.05C27.7698 5.18333 27.8032 5.325 27.8198 5.475V5.675C27.8532 5.79167 27.8698 5.91667 27.8698 6.05C27.8698 6.16667 27.8698 6.29167 27.8698 6.425C27.8698 6.54167 27.8698 6.65833 27.8698 6.775C27.8865 6.875 27.9032 6.975 27.9198 7.075C27.9198 7.125 27.9198 7.175 27.9198 7.225C27.9198 7.275 27.9282 7.325 27.9448 7.375C27.9448 7.475 27.9448 7.575 27.9448 7.675C27.9615 7.775 27.9782 7.88333 27.9948 8C28.0115 8.18333 28.0282 8.375 28.0448 8.575C28.0615 8.775 28.0698 8.975 28.0698 9.175C28.0698 9.25833 28.0698 9.35 28.0698 9.45C28.0698 9.53333 28.0782 9.61667 28.0948 9.7C28.1115 9.75 28.1198 9.8 28.1198 9.85C28.1198 9.9 28.1198 9.95 28.1198 10V10.5C28.1198 10.6 28.1282 10.6833 28.1448 10.75C28.1782 10.8667 28.1865 10.9833 28.1698 11.1C28.1698 11.2 28.1782 11.3083 28.1948 11.425L28.2698 12.575C28.2865 12.7417 28.2948 12.9167 28.2948 13.1C28.3115 13.2667 28.3198 13.4417 28.3198 13.625C28.3198 13.6917 28.3198 13.7667 28.3198 13.85C28.3198 13.9167 28.3282 13.9833 28.3448 14.05C28.3615 14.1 28.3698 14.15 28.3698 14.2C28.3698 14.25 28.3698 14.3 28.3698 14.35C28.3865 14.3667 28.3865 14.4 28.3698 14.45C28.3698 14.4833 28.3782 14.5167 28.3948 14.55C28.4282 14.6667 28.4448 14.7833 28.4448 14.9C28.4448 15.0167 28.4448 15.1417 28.4448 15.275C28.4448 15.3417 28.4448 15.4167 28.4448 15.5C28.4615 15.5667 28.4698 15.6417 28.4698 15.725C28.4865 15.8083 28.4948 15.9 28.4948 16C28.4948 16.1 28.4948 16.1917 28.4948 16.275C28.5115 16.3583 28.5198 16.45 28.5198 16.55C28.5198 16.6333 28.5282 16.7167 28.5448 16.8C28.5615 16.8333 28.5698 16.8667 28.5698 16.9C28.5698 17.0833 28.5865 17.2667 28.6198 17.45C28.6532 17.6333 28.6865 17.8167 28.7198 18C28.7365 18.05 28.7448 18.1083 28.7448 18.175C28.7448 18.225 28.7448 18.275 28.7448 18.325C28.7448 18.375 28.7282 18.4167 28.6948 18.45C28.6282 18.5 28.5782 18.6 28.5448 18.75C28.5448 18.8 28.5198 18.8417 28.4698 18.875C28.3532 18.925 28.2532 18.9917 28.1698 19.075C28.0365 19.1917 27.8782 19.25 27.6948 19.25ZM40.5501 19.225C40.5001 19.2083 40.4418 19.1917 40.3751 19.175C40.3251 19.1583 40.2751 19.1417 40.2251 19.125C40.0918 19.075 39.9584 19.0083 39.8251 18.925C39.7584 18.8917 39.7084 18.8417 39.6751 18.775C39.5584 18.5917 39.4501 18.425 39.3501 18.275C39.2501 18.1083 39.1418 17.9417 39.0251 17.775L38.8001 17.375C38.6834 17.1417 38.5668 16.9167 38.4501 16.7C38.3334 16.4667 38.2168 16.2417 38.1001 16.025C38.0668 15.9417 38.0251 15.875 37.9751 15.825C37.9418 15.7583 37.9084 15.6917 37.8751 15.625C37.7584 15.4417 37.6501 15.2583 37.5501 15.075C37.4501 14.875 37.3501 14.6833 37.2501 14.5L36.6251 13.275C36.4584 12.9417 36.2918 12.6167 36.1251 12.3C35.9584 11.9667 35.7918 11.6333 35.6251 11.3C35.5918 11.2667 35.5584 11.2167 35.5251 11.15C35.4584 10.9667 35.3751 10.7917 35.2751 10.625C35.1918 10.4583 35.1084 10.2917 35.0251 10.125C34.9584 10.0083 34.9001 9.89167 34.8501 9.775C34.8001 9.64167 34.7418 9.51667 34.6751 9.4L34.4001 8.9C34.3668 8.9 34.3418 8.89167 34.3251 8.875C34.3251 8.875 34.3168 8.88333 34.3001 8.9C34.3001 8.9 34.3001 8.90833 34.3001 8.925C34.2834 9.14167 34.2668 9.36667 34.2501 9.6C34.2334 9.83333 34.2334 10.0667 34.2501 10.3C34.2834 10.4 34.2834 10.5083 34.2501 10.625C34.2168 10.925 34.2251 11.1917 34.2751 11.425C34.2918 11.4917 34.2918 11.5583 34.2751 11.625C34.2751 11.6917 34.2668 11.7667 34.2501 11.85C34.2334 11.9667 34.2251 12.075 34.2251 12.175C34.2251 12.275 34.2168 12.3833 34.2001 12.5C34.2334 12.5667 34.2501 12.6417 34.2501 12.725C34.2501 12.7917 34.2418 12.8583 34.2251 12.925C34.1751 13.0917 34.1751 13.2667 34.2251 13.45C34.2584 13.5 34.2584 13.55 34.2251 13.6C34.1584 13.75 34.1418 13.9333 34.1751 14.15C34.2251 14.4333 34.2084 14.7417 34.1251 15.075C34.1084 15.1083 34.1001 15.1667 34.1001 15.25C34.0834 15.3167 34.1001 15.375 34.1501 15.425C34.2168 15.4583 34.2334 15.5 34.2001 15.55C34.1834 15.7667 34.1834 15.9917 34.2001 16.225C34.2001 16.225 34.2001 16.2333 34.2001 16.25C34.2001 16.25 34.1918 16.25 34.1751 16.25C34.1584 16.25 34.1501 16.2417 34.1501 16.225C34.1334 16.2083 34.1251 16.1917 34.1251 16.175C34.0918 16.1417 34.0751 16.15 34.0751 16.2C34.0751 16.2833 34.0834 16.3333 34.1001 16.35C34.1334 16.4333 34.1501 16.5167 34.1501 16.6C34.1501 16.6833 34.1501 16.7667 34.1501 16.85V17.625C34.1501 17.675 34.1418 17.725 34.1251 17.775C34.1251 17.825 34.1001 17.8667 34.0501 17.9C33.9834 17.9167 33.9501 17.975 33.9501 18.075C33.9334 18.2583 33.8668 18.4167 33.7501 18.55C33.6501 18.6833 33.5334 18.8 33.4001 18.9C33.3334 18.95 33.2501 18.9833 33.1501 19C33.0668 19 32.9834 18.9917 32.9001 18.975L32.4501 18.825C32.4168 18.825 32.3834 18.8 32.3501 18.75C32.3001 18.7 32.2501 18.65 32.2001 18.6C32.1501 18.5333 32.0918 18.475 32.0251 18.425C31.9418 18.375 31.8834 18.2833 31.8501 18.15C31.8334 18.0667 31.8084 17.975 31.7751 17.875C31.7418 17.775 31.7251 17.675 31.7251 17.575C31.7251 17.4583 31.7251 17.35 31.7251 17.25C31.7418 17.15 31.7501 17.0417 31.7501 16.925C31.7668 16.8417 31.7751 16.7667 31.7751 16.7C31.7751 16.6167 31.7834 16.5333 31.8001 16.45V7.3C31.8001 7.21667 31.8001 7.13333 31.8001 7.05C31.8168 6.96667 31.8334 6.89167 31.8501 6.825C31.8501 6.74167 31.8501 6.65833 31.8501 6.575C31.8668 6.49167 31.8751 6.40833 31.8751 6.325C31.8751 6.225 31.8751 6.125 31.8751 6.025C31.8918 5.925 31.9084 5.83333 31.9251 5.75C31.9418 5.68333 31.9501 5.625 31.9501 5.575C31.9501 5.525 31.9501 5.46667 31.9501 5.4V4.625C31.9501 4.50833 31.9584 4.40833 31.9751 4.325C32.0084 4.225 32.0334 4.125 32.0501 4.025L32.1251 3.9C32.1751 3.85 32.2168 3.775 32.2501 3.675C32.2834 3.575 32.3334 3.525 32.4001 3.525C32.4501 3.49167 32.5001 3.46667 32.5501 3.45C32.6001 3.41667 32.6334 3.36667 32.6501 3.3L32.6751 3.275C32.6918 3.275 32.7084 3.275 32.7251 3.275C32.7418 3.25833 32.7584 3.25 32.7751 3.25C32.8418 3.25 32.8918 3.23333 32.9251 3.2C32.9751 3.16667 33.0334 3.15833 33.1001 3.175C33.1668 3.19167 33.2334 3.2 33.3001 3.2C33.3668 3.2 33.4334 3.20833 33.5001 3.225C33.8668 3.29167 34.1251 3.50833 34.2751 3.875L34.4251 4.375C34.4418 4.54167 34.5168 4.7 34.6501 4.85C34.7501 4.96667 34.8501 5.09167 34.9501 5.225C35.0501 5.35833 35.1584 5.49167 35.2751 5.625C35.7084 6.175 36.1084 6.79167 36.4751 7.475C36.5084 7.54167 36.5418 7.60833 36.5751 7.675C36.6084 7.74167 36.6418 7.80833 36.6751 7.875L37.9751 10.5C38.0751 10.6833 38.1668 10.875 38.2501 11.075C38.3501 11.2583 38.4584 11.4417 38.5751 11.625C38.6084 11.6917 38.6418 11.7583 38.6751 11.825C38.7084 11.875 38.7334 11.9333 38.7501 12C38.8334 12.2 38.9334 12.4 39.0501 12.6C39.0501 12.6 39.0501 12.6083 39.0501 12.625C39.0668 12.625 39.0751 12.6167 39.0751 12.6C39.0918 12.6 39.1001 12.6 39.1001 12.6C39.1168 12.5833 39.1251 12.575 39.1251 12.575L39.2001 11.7V11.45C39.2168 11.3667 39.2251 11.2833 39.2251 11.2C39.2418 11.1 39.2584 11.0083 39.2751 10.925C39.2918 10.875 39.2918 10.8167 39.2751 10.75C39.2751 10.6833 39.2834 10.6167 39.3001 10.55C39.3001 10.45 39.3001 10.35 39.3001 10.25C39.3168 10.1333 39.3334 10.025 39.3501 9.925C39.3668 9.875 39.3751 9.825 39.3751 9.775C39.3751 9.70833 39.3751 9.65 39.3751 9.6V8.925H39.3501V8.25C39.3501 8.16667 39.3501 8.08333 39.3501 8C39.3501 7.91667 39.3334 7.83333 39.3001 7.75C39.2834 7.7 39.2751 7.625 39.2751 7.525L39.3001 7.35C39.3001 7.3 39.2918 7.25833 39.2751 7.225C39.2751 7.175 39.2751 7.125 39.2751 7.075C39.2918 7.00833 39.2834 6.94167 39.2501 6.875C39.2168 6.80833 39.2001 6.74167 39.2001 6.675C39.2168 6.60833 39.2251 6.54167 39.2251 6.475C39.2251 6.40833 39.2251 6.34167 39.2251 6.275C39.2251 6.20833 39.1918 6.175 39.1251 6.175C39.1084 6.175 39.1001 6.15833 39.1001 6.125C39.0834 6.075 39.0834 6.03333 39.1001 6C39.1334 5.91667 39.1501 5.825 39.1501 5.725C39.1501 5.625 39.1501 5.525 39.1501 5.425V4.7C39.1334 4.6 39.1418 4.5 39.1751 4.4C39.2084 4.3 39.2501 4.20833 39.3001 4.125L39.4001 3.975C39.4834 3.89167 39.5751 3.80833 39.6751 3.725C39.7751 3.64167 39.8751 3.55833 39.9751 3.475C39.9751 3.475 40.0084 3.45833 40.0751 3.425C40.1584 3.40833 40.2334 3.39167 40.3001 3.375C40.3834 3.35833 40.4668 3.35833 40.5501 3.375C40.6168 3.375 40.6668 3.38333 40.7001 3.4C40.7668 3.43333 40.8334 3.475 40.9001 3.525C40.9668 3.55833 41.0334 3.6 41.1001 3.65C41.1334 3.66667 41.1501 3.68333 41.1501 3.7C41.1668 3.71667 41.1834 3.73333 41.2001 3.75C41.2334 3.78333 41.2584 3.825 41.2751 3.875C41.3084 3.90833 41.3334 3.94167 41.3501 3.975C41.4334 4.04167 41.4834 4.125 41.5001 4.225C41.5334 4.30833 41.5584 4.39167 41.5751 4.475V5.525C41.5751 5.64167 41.5751 5.75833 41.5751 5.875C41.5918 5.975 41.6084 6.08333 41.6251 6.2C41.6418 6.26667 41.6501 6.33333 41.6501 6.4C41.6501 6.45 41.6501 6.50833 41.6501 6.575C41.6501 6.70833 41.6501 6.85 41.6501 7C41.6668 7.13333 41.6751 7.26667 41.6751 7.4V7.575C41.6751 7.69167 41.6668 7.80833 41.6501 7.925C41.6501 8.025 41.6501 8.13333 41.6501 8.25V9.35C41.6501 9.51667 41.6418 9.69167 41.6251 9.875C41.6251 10.0417 41.6334 10.2167 41.6501 10.4C41.6501 10.4667 41.6418 10.5167 41.6251 10.55C41.6084 10.7167 41.6001 10.8833 41.6001 11.05C41.6001 11.2 41.5918 11.3583 41.5751 11.525C41.5751 11.5917 41.5751 11.6667 41.5751 11.75C41.5751 11.8333 41.5668 11.9167 41.5501 12C41.5334 12.0667 41.5251 12.1333 41.5251 12.2C41.5418 12.2667 41.5501 12.3333 41.5501 12.4C41.5834 12.55 41.5918 12.7 41.5751 12.85C41.5751 13 41.5668 13.15 41.5501 13.3C41.5334 13.5667 41.5168 13.8417 41.5001 14.125C41.5001 14.3917 41.5168 14.6667 41.5501 14.95C41.5501 15.0167 41.5501 15.0917 41.5501 15.175C41.5668 15.2583 41.5751 15.3417 41.5751 15.425C41.5584 15.675 41.5668 15.9167 41.6001 16.15C41.6501 16.3833 41.7001 16.6167 41.7501 16.85C41.7834 17.0167 41.8168 17.1833 41.8501 17.35C41.8834 17.5 41.9084 17.6667 41.9251 17.85C41.9251 17.9167 41.9168 17.9583 41.9001 17.975C41.8834 18.0083 41.8668 18.05 41.8501 18.1C41.8334 18.1333 41.8251 18.1667 41.8251 18.2C41.8084 18.3333 41.7584 18.4583 41.6751 18.575C41.6084 18.6917 41.5334 18.8083 41.4501 18.925C41.2334 19.2083 40.9334 19.3083 40.5501 19.225ZM54.0116 20.275C53.945 20.2917 53.895 20.275 53.8616 20.225C53.795 20.175 53.7283 20.125 53.6616 20.075C53.6116 20.025 53.545 19.975 53.4616 19.925C53.3283 19.8583 53.22 19.7417 53.1366 19.575C52.9866 19.3417 52.9116 19.0917 52.9116 18.825C52.9116 18.7417 52.9033 18.6583 52.8866 18.575C52.8866 18.4917 52.8783 18.4083 52.8616 18.325C52.8616 18.2417 52.8533 18.1667 52.8366 18.1C52.8366 18.0167 52.8366 17.9417 52.8366 17.875C52.8366 17.7917 52.8366 17.7083 52.8366 17.625C52.8366 17.525 52.8283 17.4333 52.8116 17.35C52.8116 17.3333 52.8033 17.325 52.7866 17.325C52.7866 17.3083 52.7866 17.3 52.7866 17.3C52.7533 17.3 52.7283 17.3083 52.7116 17.325L52.4116 17.7C52.345 17.8 52.2616 17.8917 52.1616 17.975C52.0783 18.0417 51.995 18.1167 51.9116 18.2C51.645 18.4 51.3783 18.5667 51.1116 18.7C50.995 18.75 50.8866 18.7917 50.7866 18.825C50.22 19.025 49.6616 19.1167 49.1116 19.1C48.9283 19.0833 48.7366 19.0667 48.5366 19.05C48.3533 19.05 48.1616 19.025 47.9616 18.975C47.8116 18.925 47.6616 18.875 47.5116 18.825C47.3783 18.7583 47.245 18.675 47.1116 18.575C46.995 18.475 46.8783 18.375 46.7616 18.275C46.645 18.1583 46.5366 18.0333 46.4366 17.9C46.27 17.6333 46.1616 17.4667 46.1116 17.4C46.0616 17.3333 45.9866 17.1667 45.8866 16.9L45.7616 16.675C45.7116 16.5417 45.6533 16.4167 45.5866 16.3C45.5366 16.1667 45.495 16.0333 45.4616 15.9L45.3366 15.55C45.3033 15.4333 45.27 15.325 45.2366 15.225C45.2033 15.1083 45.17 14.9917 45.1366 14.875C45.07 14.6583 45.0116 14.4417 44.9616 14.225C44.9116 13.9917 44.8616 13.7667 44.8116 13.55L44.7366 13.1C44.7366 13.0667 44.7283 13.0333 44.7116 13C44.7116 12.95 44.7116 12.9 44.7116 12.85L44.5616 12.125C44.545 12.0417 44.5366 11.9667 44.5366 11.9C44.5366 11.8167 44.5366 11.7417 44.5366 11.675C44.52 11.5417 44.5116 11.4083 44.5116 11.275C44.5283 11.1417 44.5366 11.0083 44.5366 10.875C44.5533 10.6917 44.5783 10.5167 44.6116 10.35C44.645 10.1667 44.6783 9.99167 44.7116 9.825C44.7783 9.59167 44.845 9.35833 44.9116 9.125C44.995 8.875 45.0866 8.64167 45.1866 8.425C45.27 8.24167 45.3533 8.06667 45.4366 7.9C45.52 7.71667 45.62 7.54167 45.7366 7.375C45.8866 7.125 46.045 6.88333 46.2116 6.65C46.395 6.41667 46.5783 6.19167 46.7616 5.975C46.895 5.825 47.0283 5.68333 47.1616 5.55C47.295 5.4 47.4283 5.25 47.5616 5.1C47.795 4.86667 48.045 4.66667 48.3116 4.5C48.445 4.41667 48.5783 4.36667 48.7116 4.35C48.7616 4.33333 48.8033 4.325 48.8366 4.325C48.8866 4.325 48.9283 4.31667 48.9616 4.3C49.145 4.26667 49.3116 4.275 49.4616 4.325C49.5116 4.34167 49.5616 4.35833 49.6116 4.375C49.6783 4.39167 49.7366 4.40833 49.7866 4.425C50.0033 4.50833 50.195 4.55833 50.3616 4.575C50.4616 4.575 50.5783 4.60833 50.7116 4.675C50.795 4.69167 50.8783 4.71667 50.9616 4.75C51.045 4.76667 51.1283 4.78333 51.2116 4.8C51.3116 4.8 51.395 4.825 51.4616 4.875C51.4783 4.875 51.495 4.88333 51.5116 4.9C51.545 4.9 51.57 4.9 51.5866 4.9C51.72 4.91667 51.8366 4.95 51.9366 5C52.0366 5.03333 52.1366 5.08333 52.2366 5.15C52.47 5.3 52.7116 5.46667 52.9616 5.65C53.1116 5.76667 53.1866 5.925 53.1866 6.125V6.25C53.2366 6.45 53.1866 6.65 53.0366 6.85C52.9533 7 52.8866 7.1 52.8366 7.15C52.8033 7.18333 52.7033 7.24167 52.5366 7.325C52.4866 7.34167 52.4283 7.36667 52.3616 7.4C52.3116 7.41667 52.245 7.425 52.1616 7.425C52.1283 7.425 52.0866 7.43333 52.0366 7.45C52.0033 7.45 51.97 7.45 51.9366 7.45C51.8866 7.46667 51.8366 7.46667 51.7866 7.45C51.7366 7.43333 51.6866 7.425 51.6366 7.425C51.62 7.44167 51.595 7.43333 51.5616 7.4L51.1866 7.1C50.92 6.86667 50.6116 6.73333 50.2616 6.7C50.195 6.68333 50.1283 6.675 50.0616 6.675C49.995 6.675 49.92 6.66667 49.8366 6.65C49.62 6.65 49.445 6.70833 49.3116 6.825L49.1366 7C48.9866 7.16667 48.8283 7.33333 48.6616 7.5C48.5116 7.66667 48.3616 7.83333 48.2116 8C48.095 8.11667 47.995 8.25 47.9116 8.4C47.8283 8.55 47.745 8.7 47.6616 8.85C47.395 9.36667 47.195 9.91667 47.0616 10.5C47.045 10.6 47.0283 10.7 47.0116 10.8C46.995 10.8833 46.9783 10.9667 46.9616 11.05C46.9616 11.1333 46.9616 11.2167 46.9616 11.3C46.9616 11.3833 46.97 11.4667 46.9866 11.55C47.0033 11.6167 47.0116 11.6833 47.0116 11.75C47.0116 11.8 47.02 11.8583 47.0366 11.925L47.1116 12.525C47.1283 12.625 47.145 12.7333 47.1616 12.85C47.195 12.95 47.22 13.05 47.2366 13.15C47.4033 13.8 47.6033 14.4583 47.8366 15.125C47.92 15.375 48.02 15.5917 48.1366 15.775L48.2866 16C48.3366 16.0667 48.3866 16.1333 48.4366 16.2C48.4866 16.25 48.5366 16.3 48.5866 16.35C48.6866 16.4167 48.77 16.4583 48.8366 16.475C49.0866 16.525 49.345 16.55 49.6116 16.55C49.945 16.5167 50.2283 16.4083 50.4616 16.225C50.5783 16.1417 50.6783 16.05 50.7616 15.95C50.8616 15.85 50.9533 15.7417 51.0366 15.625C51.2366 15.3917 51.4116 15.1417 51.5616 14.875C51.6116 14.775 51.6033 14.675 51.5366 14.575C51.4366 14.4083 51.3116 14.275 51.1616 14.175C50.9783 14.0417 50.7866 13.9333 50.5866 13.85C50.4033 13.75 50.195 13.6917 49.9616 13.675L49.8366 13.625C49.7033 13.575 49.5616 13.575 49.4116 13.625C49.295 13.675 49.17 13.7 49.0366 13.7C48.92 13.6833 48.795 13.6667 48.6616 13.65C48.3616 13.5667 48.1033 13.4333 47.8866 13.25C47.82 13.1667 47.7616 13.0833 47.7116 13C47.6783 12.9167 47.6366 12.8417 47.5866 12.775C47.5866 12.7417 47.5783 12.7083 47.5616 12.675C47.5616 12.6417 47.57 12.6167 47.5866 12.6C47.5866 12.5167 47.5866 12.4333 47.5866 12.35C47.6033 12.2667 47.62 12.1833 47.6366 12.1C47.6366 12.0833 47.6533 12.025 47.6866 11.925C47.72 11.8417 47.7616 11.7667 47.8116 11.7C47.8783 11.6167 47.945 11.5417 48.0116 11.475C48.2783 11.225 48.57 11.0667 48.8866 11C49.07 10.95 49.2533 10.9167 49.4366 10.9C49.62 10.8667 49.795 10.8417 49.9616 10.825H52.0616C52.195 10.825 52.3366 10.825 52.4866 10.825C52.6366 10.825 52.7866 10.8167 52.9366 10.8C53.07 10.7833 53.195 10.775 53.3116 10.775C53.445 10.775 53.5783 10.775 53.7116 10.775C53.8616 10.775 53.995 10.8 54.1116 10.85C54.295 10.9 54.4366 11.0083 54.5366 11.175C54.5866 11.2417 54.6366 11.3167 54.6866 11.4C54.7366 11.4833 54.77 11.5667 54.7866 11.65C54.8033 11.6667 54.8116 11.6917 54.8116 11.725C54.8116 11.7417 54.82 11.7667 54.8366 11.8L55.0116 12.725C55.045 12.8583 55.07 13 55.0866 13.15C55.1033 13.3 55.12 13.45 55.1366 13.6C55.1366 13.6833 55.1366 13.775 55.1366 13.875C55.1533 13.9583 55.1616 14.0417 55.1616 14.125C55.1616 14.1917 55.1616 14.2667 55.1616 14.35C55.1783 14.4333 55.1866 14.5167 55.1866 14.6V15.75C55.1866 15.8667 55.1866 16 55.1866 16.15C55.2033 16.2833 55.22 16.4167 55.2366 16.55C55.2533 16.6167 55.2616 16.6833 55.2616 16.75C55.2616 16.8167 55.2616 16.8917 55.2616 16.975C55.245 17.1417 55.2533 17.3167 55.2866 17.5C55.32 17.6667 55.345 17.8417 55.3616 18.025C55.3783 18.1083 55.395 18.2 55.4116 18.3C55.445 18.3833 55.47 18.475 55.4866 18.575C55.5033 18.6417 55.5116 18.7167 55.5116 18.8C55.5283 18.8667 55.5366 18.9417 55.5366 19.025C55.5366 19.0917 55.5283 19.1583 55.5116 19.225C55.5116 19.3083 55.4866 19.3833 55.4366 19.45C55.4033 19.4833 55.37 19.5333 55.3366 19.6C55.27 19.7833 55.1283 19.9333 54.9116 20.05C54.745 20.1167 54.57 20.1667 54.3866 20.2C54.2366 20.2 54.1116 20.225 54.0116 20.275ZM59.2388 23.375C59.1221 23.4417 58.9971 23.4333 58.8638 23.35C58.8471 23.3333 58.8304 23.3083 58.8138 23.275C58.7971 23.2583 58.7721 23.2417 58.7388 23.225C58.6554 23.1417 58.6138 23.0583 58.6138 22.975C58.6138 22.8917 58.6054 22.8 58.5888 22.7C58.5888 22.6167 58.5971 22.5333 58.6138 22.45C58.6138 22.25 58.5804 22.075 58.5138 21.925L58.4388 21.775C58.3554 21.6583 58.2971 21.5333 58.2638 21.4C58.2471 21.2667 58.2388 21.125 58.2388 20.975V20.925C58.2388 20.725 58.2388 20.5833 58.2388 20.5C58.2388 20.4333 58.2554 20.3667 58.2888 20.3C58.3221 20.2333 58.3804 20.125 58.4638 19.975C58.4971 19.9083 58.5304 19.8333 58.5638 19.75C58.5971 19.6833 58.6304 19.6167 58.6638 19.55C58.6971 19.4667 58.7304 19.375 58.7638 19.275C58.8138 19.1917 58.8471 19.1083 58.8638 19.025C58.8971 18.9917 58.9138 18.95 58.9138 18.9C58.9138 18.85 58.9221 18.8083 58.9388 18.775C58.9721 18.5917 58.9971 18.4167 59.0138 18.25C59.0304 18.0667 59.0388 17.8917 59.0388 17.725C59.0221 17.5917 59.0138 17.4667 59.0138 17.35C59.0304 17.2167 59.0304 17.0917 59.0138 16.975C59.0138 16.8583 59.0054 16.75 58.9888 16.65C58.9888 16.5333 58.9804 16.4167 58.9638 16.3C58.9304 16.1667 58.9054 16.025 58.8888 15.875C58.8888 15.725 58.8804 15.5833 58.8638 15.45C58.8638 15.35 58.8804 15.2583 58.9138 15.175C58.9471 15.0917 58.9721 15.0083 58.9888 14.925C58.9888 14.9083 58.9888 14.9 58.9888 14.9C59.0054 14.8833 59.0138 14.8667 59.0138 14.85C59.0971 14.7667 59.1888 14.6833 59.2888 14.6C59.3888 14.5167 59.4971 14.4583 59.6138 14.425C59.6471 14.425 59.6721 14.425 59.6888 14.425C59.7221 14.4083 59.7471 14.4 59.7638 14.4C59.8471 14.4 59.9221 14.4 59.9888 14.4C60.0721 14.4 60.1471 14.4083 60.2138 14.425C60.3804 14.4583 60.5221 14.5167 60.6388 14.6C60.7554 14.6833 60.8471 14.8083 60.9138 14.975C60.9971 15.1583 61.0638 15.3417 61.1138 15.525C61.1638 15.7083 61.2138 15.8917 61.2638 16.075C61.3638 16.475 61.4054 16.85 61.3888 17.2C61.3888 17.3833 61.3888 17.5667 61.3888 17.75C61.3888 17.9333 61.3804 18.1167 61.3638 18.3C61.3638 18.4833 61.3554 18.675 61.3388 18.875C61.3221 19.0583 61.2971 19.2417 61.2638 19.425L61.2388 19.575C61.2221 19.625 61.2054 19.675 61.1888 19.725C61.1888 19.775 61.1721 19.825 61.1388 19.875C61.1054 19.9583 61.0721 20.0417 61.0388 20.125C61.0221 20.225 60.9971 20.3167 60.9638 20.4C60.9138 20.55 60.8638 20.7 60.8138 20.85C60.7804 21 60.7388 21.15 60.6888 21.3C60.5554 21.65 60.3554 21.9333 60.0888 22.15C60.0721 22.1833 60.0304 22.2167 59.9638 22.25C59.8638 22.3167 59.7804 22.425 59.7138 22.575C59.6638 22.7583 59.6054 22.925 59.5388 23.075C59.4888 23.225 59.3888 23.325 59.2388 23.375ZM77.9249 20.225L77.4999 20.15C77.2832 20.1167 77.0582 20.0833 76.8249 20.05C76.6082 20.0167 76.3832 19.9917 76.1499 19.975C75.9166 19.975 75.6832 19.9083 75.4499 19.775C75.2332 19.6583 75.0832 19.475 74.9999 19.225C74.9832 19.1417 74.9582 19.0583 74.9249 18.975C74.9082 18.8917 74.8916 18.8083 74.8749 18.725C74.8749 18.525 74.9166 18.375 74.9999 18.275C75.0832 18.1917 75.1499 18.1083 75.1999 18.025C75.2666 17.9417 75.3332 17.8667 75.3999 17.8C75.4332 17.7667 75.4666 17.7417 75.4999 17.725C75.5332 17.7083 75.5666 17.6917 75.5999 17.675C75.6832 17.625 75.7666 17.5917 75.8499 17.575C75.9332 17.5417 76.0166 17.5167 76.0999 17.5C76.1332 17.4833 76.1582 17.4833 76.1749 17.5C76.2082 17.5 76.2332 17.5 76.2499 17.5C76.3332 17.5167 76.4249 17.5333 76.5249 17.55C76.6249 17.55 76.7166 17.5667 76.7999 17.6L77.8499 17.75C78.0832 17.7833 78.2916 17.75 78.4749 17.65C78.5416 17.6167 78.5999 17.5833 78.6499 17.55C78.7166 17.5167 78.7749 17.4833 78.8249 17.45C79.1916 17.2333 79.5082 17.0083 79.7749 16.775C79.9749 16.5917 80.1666 16.4083 80.3499 16.225C80.5332 16.0417 80.6999 15.8417 80.8499 15.625C80.9666 15.475 81.0416 15.325 81.0749 15.175C81.1082 15.0083 81.1166 14.8417 81.0999 14.675L81.0249 14.475C81.0082 14.3917 80.9749 14.325 80.9249 14.275C80.8749 14.225 80.8249 14.1667 80.7749 14.1C80.6749 14.0167 80.5749 13.925 80.4749 13.825C80.3916 13.725 80.2999 13.6417 80.1999 13.575C79.9499 13.375 79.6999 13.1833 79.4499 13C79.2166 12.8167 78.9749 12.6333 78.7249 12.45C78.7082 12.4167 78.6582 12.3833 78.5749 12.35C78.4249 12.25 78.2749 12.1417 78.1249 12.025C77.9916 11.8917 77.8582 11.7667 77.7249 11.65C77.5582 11.4833 77.3749 11.325 77.1749 11.175C77.0749 11.125 76.9832 11.0417 76.8999 10.925C76.8332 10.8417 76.7332 10.7583 76.5999 10.675C76.4832 10.6083 76.3749 10.5333 76.2749 10.45C76.1749 10.35 76.0749 10.2583 75.9749 10.175L75.6499 9.875C75.5832 9.79167 75.5082 9.71667 75.4249 9.65C75.3582 9.56667 75.2832 9.48333 75.1999 9.4C75.1666 9.31667 75.1166 9.25 75.0499 9.2C74.9999 9.15 74.9499 9.09167 74.8999 9.025C74.8832 8.99167 74.8582 8.95833 74.8249 8.925C74.7916 8.875 74.7666 8.825 74.7499 8.775C74.6499 8.575 74.5416 8.375 74.4249 8.175C74.3249 7.975 74.2332 7.76667 74.1499 7.55C74.0999 7.41667 74.0499 7.29167 73.9999 7.175C73.9666 7.04167 73.9332 6.91667 73.8999 6.8C73.8832 6.66667 73.8499 6.55 73.7999 6.45C73.7666 6.33333 73.7332 6.21667 73.6999 6.1C73.6666 5.91667 73.6249 5.74167 73.5749 5.575C73.5416 5.39167 73.5082 5.21667 73.4749 5.05L73.4249 4.85C73.4082 4.66667 73.4082 4.49167 73.4249 4.325C73.4582 4.09167 73.5082 3.88333 73.5749 3.7C73.6416 3.5 73.7499 3.34167 73.8999 3.225C74.0666 3.09167 74.2332 2.95833 74.3999 2.825C74.5666 2.69167 74.7416 2.58333 74.9249 2.5C74.9582 2.5 74.9832 2.49167 74.9999 2.475C75.1666 2.34167 75.3499 2.25 75.5499 2.2C75.7499 2.13333 75.9499 2.075 76.1499 2.025C76.9499 1.79167 77.7749 1.61667 78.6249 1.5H78.8749C79.0416 1.5 79.1999 1.5 79.3499 1.5C79.4999 1.5 79.6582 1.49167 79.8249 1.475C80.0249 1.475 80.2249 1.5 80.4249 1.55C80.6249 1.58333 80.8166 1.64167 80.9999 1.725C81.1332 1.79167 81.2666 1.86667 81.3999 1.95C81.5332 2.01667 81.6582 2.09167 81.7749 2.175C81.9082 2.275 81.9916 2.38333 82.0249 2.5L82.0999 2.675C82.1832 2.825 82.2249 2.98333 82.2249 3.15C82.2416 3.3 82.2332 3.45833 82.1999 3.625C82.1999 3.675 82.1916 3.73333 82.1749 3.8C82.1749 3.85 82.1749 3.9 82.1749 3.95C82.1249 4.31667 81.9499 4.6 81.6499 4.8C81.4666 4.96667 81.2249 5.03333 80.9249 5C80.8582 4.96667 80.8249 4.98333 80.8249 5.05C80.8249 5.11667 80.7832 5.15 80.6999 5.15H80.5499C80.4499 5.15 80.3499 5.1 80.2499 5C80.1666 4.91667 80.1249 4.85 80.1249 4.8C80.1249 4.73333 80.1582 4.68333 80.2249 4.65C80.1916 4.56667 80.1582 4.49167 80.1249 4.425C80.0916 4.35833 80.0582 4.30833 80.0249 4.275C79.9749 4.19167 79.8999 4.13333 79.7999 4.1C79.7166 4.08333 79.6332 4.06667 79.5499 4.05C79.4666 4.03333 79.3832 4.01667 79.2999 4C79.2332 4 79.1582 4 79.0749 4C78.9916 3.98333 78.9082 3.96667 78.8249 3.95C78.7749 3.93333 78.6999 3.94167 78.5999 3.975C78.5499 3.99167 78.4999 4.00833 78.4499 4.025C78.3999 4.025 78.3416 4.01667 78.2749 4C78.2249 4 78.1666 4 78.0999 4C78.0499 4 77.9916 4.01667 77.9249 4.05L77.4499 4.125C77.1832 4.175 76.9249 4.275 76.6749 4.425C76.6249 4.44167 76.5749 4.45833 76.5249 4.475C76.4749 4.49167 76.4249 4.49167 76.3749 4.475C76.2749 4.45833 76.1916 4.48333 76.1249 4.55C76.1082 4.58333 76.0666 4.60833 75.9999 4.625C75.9499 4.625 75.9082 4.64167 75.8749 4.675C75.8082 4.74167 75.7749 4.80833 75.7749 4.875C75.7916 4.90833 75.7999 4.95833 75.7999 5.025L76.3249 6.55C76.4249 6.81667 76.5499 7.06667 76.6999 7.3C76.8666 7.51667 77.0416 7.73333 77.2249 7.95C77.5082 8.28333 77.7999 8.56667 78.0999 8.8L78.8999 9.475C79.0666 9.625 79.2416 9.76667 79.4249 9.9C79.6082 10.0333 79.7832 10.1667 79.9499 10.3C80.1999 10.4833 80.4499 10.675 80.6999 10.875C80.9499 11.0583 81.1999 11.25 81.4499 11.45C81.6499 11.6167 81.8416 11.7833 82.0249 11.95C82.2249 12.1 82.4082 12.2667 82.5749 12.45C82.6916 12.5833 82.8082 12.7167 82.9249 12.85C83.0416 12.9833 83.1416 13.1333 83.2249 13.3C83.3416 13.4833 83.4416 13.7 83.5249 13.95C83.6249 14.2667 83.6666 14.5667 83.6499 14.85C83.6332 14.8833 83.6249 14.9333 83.6249 15C83.6249 15.2 83.5999 15.3917 83.5499 15.575C83.5166 15.7417 83.4582 15.9167 83.3749 16.1C83.2916 16.2667 83.1999 16.4417 83.0999 16.625C83.0166 16.7917 82.9166 16.9583 82.7999 17.125C82.6332 17.3417 82.4582 17.55 82.2749 17.75C82.1082 17.9333 81.9166 18.1167 81.6999 18.3C81.5832 18.4 81.4666 18.5083 81.3499 18.625C81.2332 18.725 81.1082 18.8167 80.9749 18.9C80.8916 18.9667 80.8082 19.025 80.7249 19.075C80.6416 19.1417 80.5582 19.2083 80.4749 19.275C80.4082 19.3083 80.3416 19.35 80.2749 19.4C80.2082 19.45 80.1416 19.5 80.0749 19.55C80.0082 19.6167 79.9249 19.6667 79.8249 19.7C79.7416 19.75 79.6582 19.7917 79.5749 19.825L78.8499 20.125C78.6999 20.175 78.5499 20.2083 78.3999 20.225C78.2499 20.2417 78.0916 20.2417 77.9249 20.225ZM96.0587 19.6C95.9087 19.6167 95.767 19.6167 95.6337 19.6C95.5004 19.5833 95.367 19.5167 95.2337 19.4C95.2004 19.3667 95.1504 19.3333 95.0837 19.3C95.0004 19.25 94.9504 19.1917 94.9337 19.125C94.917 19.0583 94.8837 19.0083 94.8337 18.975C94.7837 18.925 94.7504 18.8667 94.7337 18.8C94.717 18.75 94.7087 18.7 94.7087 18.65C94.7254 18.5833 94.7337 18.525 94.7337 18.475C94.7337 18.425 94.7254 18.375 94.7087 18.325C94.7087 18.275 94.7087 18.225 94.7087 18.175C94.6587 17.925 94.6087 17.675 94.5587 17.425C94.5087 17.1583 94.467 16.9 94.4337 16.65C94.417 16.5333 94.4004 16.4167 94.3837 16.3C94.367 16.1833 94.3504 16.0667 94.3337 15.95C94.317 15.7333 94.292 15.5167 94.2587 15.3C94.242 15.0833 94.217 14.8667 94.1837 14.65C94.1504 14.5167 94.1337 14.4 94.1337 14.3C94.1337 14.1667 94.1254 14.0417 94.1087 13.925C94.092 13.7917 94.0754 13.6667 94.0587 13.55C94.042 13.45 93.9837 13.4 93.8837 13.4L93.7087 13.375C93.6254 13.3583 93.5337 13.35 93.4337 13.35C93.3337 13.35 93.2337 13.3417 93.1337 13.325H92.8837C92.8504 13.3417 92.8004 13.35 92.7337 13.35C92.667 13.35 92.6004 13.35 92.5337 13.35C92.4837 13.3333 92.417 13.3333 92.3337 13.35C92.267 13.35 92.2004 13.3583 92.1337 13.375C92.0837 13.375 92.017 13.3667 91.9337 13.35C91.917 13.3333 91.8837 13.3333 91.8337 13.35C91.8004 13.35 91.767 13.35 91.7337 13.35C91.6504 13.35 91.5587 13.3583 91.4587 13.375C91.3754 13.375 91.292 13.375 91.2087 13.375C91.1587 13.375 91.1087 13.375 91.0587 13.375C91.0087 13.375 90.9587 13.3833 90.9087 13.4C90.792 13.4167 90.6754 13.4333 90.5587 13.45C90.442 13.45 90.3254 13.45 90.2087 13.45C90.042 13.4333 89.8754 13.4333 89.7087 13.45C89.542 13.4667 89.3754 13.4833 89.2087 13.5H89.1337C89.0504 13.5333 89.0087 13.5833 89.0087 13.65C89.0087 13.6667 89.0004 13.6833 88.9837 13.7C88.9837 13.7 88.9837 13.7083 88.9837 13.725C88.9837 13.8083 88.992 13.875 89.0087 13.925C89.0254 14.0417 89.042 14.1667 89.0587 14.3C89.0754 14.4167 89.092 14.5417 89.1087 14.675L89.1837 15.275C89.2004 15.4417 89.2254 15.6083 89.2587 15.775C89.292 15.925 89.317 16.075 89.3337 16.225C89.3504 16.2417 89.3587 16.2667 89.3587 16.3C89.3587 16.3167 89.367 16.3417 89.3837 16.375C89.417 16.4583 89.4337 16.55 89.4337 16.65C89.4337 16.75 89.4337 16.85 89.4337 16.95C89.467 16.9667 89.4587 17 89.4087 17.05C89.392 17.0833 89.3754 17.1167 89.3587 17.15C89.342 17.1833 89.3337 17.2167 89.3337 17.25C89.2837 17.4167 89.1754 17.575 89.0087 17.725C88.842 17.8583 88.6837 17.9333 88.5337 17.95C88.517 17.95 88.5004 17.9583 88.4837 17.975C88.467 17.975 88.442 17.975 88.4087 17.975C88.192 18.025 87.9587 18.0083 87.7087 17.925L87.6337 17.875C87.617 17.8083 87.5837 17.7583 87.5337 17.725C87.4837 17.6917 87.442 17.6583 87.4087 17.625C87.3754 17.575 87.3337 17.5333 87.2837 17.5C87.2504 17.45 87.2254 17.3917 87.2087 17.325C87.2087 17.3083 87.2004 17.3 87.1837 17.3C87.117 17.2167 87.0754 17.125 87.0587 17.025C87.042 16.925 87.0254 16.825 87.0087 16.725L86.9337 16.325C86.917 16.175 86.892 16.025 86.8587 15.875C86.842 15.7083 86.8254 15.5417 86.8087 15.375L86.6587 14.4C86.642 14.2833 86.6254 14.1667 86.6087 14.05C86.592 13.9167 86.5754 13.7917 86.5587 13.675L86.4837 12.875C86.467 12.7083 86.4504 12.5417 86.4337 12.375C86.417 12.2083 86.392 12.0417 86.3587 11.875V11.65C86.3587 11.5167 86.3504 11.3833 86.3337 11.25C86.3337 11.1167 86.3254 10.9917 86.3087 10.875C86.292 10.825 86.2837 10.775 86.2837 10.725C86.2837 10.675 86.2837 10.625 86.2837 10.575C86.2837 10.4917 86.2754 10.4167 86.2587 10.35C86.2587 10.2667 86.2504 10.1833 86.2337 10.1L86.1587 9.575C86.142 9.39167 86.1087 9.2 86.0587 9C86.0254 8.8 85.9754 8.60833 85.9087 8.425C85.8754 8.325 85.8337 8.225 85.7837 8.125C85.7337 8.00833 85.692 7.89167 85.6587 7.775C85.6254 7.64167 85.592 7.55 85.5587 7.5C85.5087 7.33333 85.5087 7.175 85.5587 7.025L85.7087 6.65C85.7254 6.58333 85.7754 6.525 85.8587 6.475C85.892 6.425 85.9337 6.38333 85.9837 6.35C86.0337 6.3 86.0837 6.25833 86.1337 6.225C86.167 6.20833 86.2087 6.2 86.2587 6.2C86.3087 6.21667 86.3754 6.20833 86.4587 6.175L86.5337 6.125C86.6837 6.04167 86.8337 6.04167 86.9837 6.125C87.067 6.15833 87.1504 6.19167 87.2337 6.225C87.3337 6.25833 87.417 6.31667 87.4837 6.4C87.5837 6.41667 87.6504 6.49167 87.6837 6.625L87.9087 7.125C88.042 7.40833 88.1587 7.7 88.2587 8C88.3587 8.3 88.4254 8.61667 88.4587 8.95C88.4754 9.06667 88.492 9.19167 88.5087 9.325C88.542 9.44167 88.567 9.56667 88.5837 9.7V9.9C88.5837 9.98333 88.592 10.0417 88.6087 10.075C88.6254 10.1917 88.6337 10.3167 88.6337 10.45C88.6504 10.5833 88.6587 10.7167 88.6587 10.85V10.9C88.6754 10.9833 88.7254 11.0417 88.8087 11.075C88.8587 11.0917 88.9087 11.1083 88.9587 11.125C89.0087 11.125 89.0587 11.125 89.1087 11.125C89.192 11.1083 89.2587 11.1083 89.3087 11.125C89.3754 11.125 89.442 11.125 89.5087 11.125C89.6254 11.125 89.7337 11.125 89.8337 11.125C89.9337 11.1083 90.042 11.1 90.1587 11.1H90.4587C90.5087 11.1 90.5587 11.1083 90.6087 11.125C90.6754 11.125 90.7337 11.1167 90.7837 11.1C90.817 11.1 90.842 11.1 90.8587 11.1C90.892 11.0833 90.917 11.075 90.9337 11.075C91.1004 11.0917 91.267 11.1 91.4337 11.1C91.6004 11.0833 91.767 11.075 91.9337 11.075C92.1004 11.0917 92.267 11.1 92.4337 11.1C92.6004 11.0833 92.767 11.075 92.9337 11.075C93.067 11.075 93.192 11.0833 93.3087 11.1C93.442 11.1 93.567 11.1 93.6837 11.1C93.8004 11.1 93.8587 11.05 93.8587 10.95C93.8587 10.8667 93.8587 10.775 93.8587 10.675C93.8587 10.575 93.8504 10.4833 93.8337 10.4C93.817 10.2167 93.8004 10.05 93.7837 9.9C93.7837 9.73333 93.7754 9.56667 93.7587 9.4C93.742 9.16667 93.7337 8.94167 93.7337 8.725C93.7504 8.49167 93.742 8.26667 93.7087 8.05C93.692 7.86667 93.6754 7.68333 93.6587 7.5C93.6587 7.31667 93.642 7.14167 93.6087 6.975V6.625C93.6087 6.55833 93.617 6.50833 93.6337 6.475C93.6337 6.44167 93.6337 6.41667 93.6337 6.4C93.6504 6.36667 93.6587 6.34167 93.6587 6.325C93.6587 6.24167 93.642 6.19167 93.6087 6.175L93.5337 6.125C93.4337 6.05833 93.417 5.98333 93.4837 5.9C93.5337 5.83333 93.542 5.75833 93.5087 5.675C93.5087 5.625 93.517 5.59167 93.5337 5.575C93.567 5.525 93.6004 5.475 93.6337 5.425C93.667 5.375 93.692 5.31667 93.7087 5.25C93.7587 5.06667 93.8337 4.98333 93.9337 5C94.0504 5 94.1254 5.01667 94.1587 5.05C94.1754 5.06667 94.192 5.075 94.2087 5.075C94.2254 5.05833 94.2337 5.04167 94.2337 5.025C94.2337 4.925 94.2837 4.86667 94.3837 4.85C94.4837 4.83333 94.5587 4.81667 94.6087 4.8L94.7587 4.7H94.8337C94.917 4.73333 94.9837 4.775 95.0337 4.825C95.1004 4.85833 95.167 4.89167 95.2337 4.925C95.267 4.94167 95.3087 4.975 95.3587 5.025C95.4754 5.175 95.5587 5.36667 95.6087 5.6C95.642 5.76667 95.6754 5.925 95.7087 6.075C95.742 6.225 95.767 6.38333 95.7837 6.55C95.7837 6.58333 95.7837 6.61667 95.7837 6.65C95.8004 6.68333 95.8087 6.71667 95.8087 6.75L95.8337 6.925C95.8337 7.125 95.842 7.325 95.8587 7.525C95.892 7.70833 95.917 7.9 95.9337 8.1C95.9504 8.11667 95.9587 8.15 95.9587 8.2C95.942 8.31667 95.9337 8.43333 95.9337 8.55C95.9504 8.65 95.967 8.76667 95.9837 8.9C96.0004 9.01667 96.0087 9.15 96.0087 9.3C96.0254 9.43333 96.0337 9.56667 96.0337 9.7C96.0337 9.78333 96.0337 9.875 96.0337 9.975C96.0504 10.075 96.067 10.1667 96.0837 10.25C96.1004 10.3333 96.1087 10.4167 96.1087 10.5C96.1087 10.5833 96.1087 10.6667 96.1087 10.75C96.1087 10.8333 96.1087 10.9167 96.1087 11C96.1254 11.0667 96.142 11.1417 96.1587 11.225V11.325C96.1754 11.525 96.192 11.725 96.2087 11.925C96.242 12.1083 96.267 12.3 96.2837 12.5C96.3004 12.5167 96.3087 12.55 96.3087 12.6C96.3087 12.7833 96.3254 12.975 96.3587 13.175C96.392 13.3583 96.417 13.5417 96.4337 13.725L96.5087 14.6C96.5087 14.6167 96.5087 14.65 96.5087 14.7C96.5254 14.7333 96.5337 14.7667 96.5337 14.8C96.5504 14.8333 96.5587 14.9 96.5587 15C96.5587 15.15 96.567 15.3 96.5837 15.45C96.617 15.6 96.642 15.75 96.6587 15.9C96.692 16.0667 96.717 16.2333 96.7337 16.4C96.7504 16.5667 96.7754 16.7417 96.8087 16.925C96.842 17.125 96.8837 17.325 96.9337 17.525C96.9837 17.725 97.0254 17.925 97.0587 18.125C97.0754 18.1917 97.0837 18.2667 97.0837 18.35C97.1004 18.4167 97.1087 18.4917 97.1087 18.575C97.1087 18.6583 97.0837 18.7417 97.0337 18.825C97.017 18.8417 97.0004 18.875 96.9837 18.925C96.9837 18.9583 96.967 18.9917 96.9337 19.025C96.917 19.0417 96.9087 19.0583 96.9087 19.075C96.9087 19.0917 96.9004 19.1 96.8837 19.1C96.817 19.1167 96.7587 19.1583 96.7087 19.225C96.6587 19.2917 96.6004 19.3417 96.5337 19.375C96.467 19.4417 96.3754 19.4917 96.2587 19.525L96.0587 19.6ZM109.502 20.825C109.352 20.825 109.219 20.7667 109.102 20.65C109.069 20.6 109.035 20.55 109.002 20.5C108.969 20.45 108.935 20.4 108.902 20.35C108.752 20 108.677 19.6333 108.677 19.25L108.602 18.65C108.552 18.4167 108.51 18.1833 108.477 17.95C108.444 17.7167 108.385 17.4917 108.302 17.275L108.152 16.85C108.152 16.8167 108.144 16.7833 108.127 16.75C108.127 16.7167 108.119 16.6833 108.102 16.65L107.727 15.325C107.71 15.2917 107.694 15.25 107.677 15.2C107.677 15.15 107.66 15.1083 107.627 15.075C107.577 14.975 107.535 14.875 107.502 14.775C107.485 14.6583 107.46 14.5417 107.427 14.425C107.41 14.3417 107.394 14.2667 107.377 14.2C107.36 14.1167 107.335 14.0333 107.302 13.95C107.269 13.85 107.235 13.7917 107.202 13.775C107.169 13.7417 107.094 13.7417 106.977 13.775C106.894 13.7917 106.802 13.8083 106.702 13.825C106.619 13.825 106.535 13.8417 106.452 13.875C106.385 13.8917 106.302 13.9083 106.202 13.925C106.119 13.925 106.035 13.9333 105.952 13.95L105.602 14.025C105.519 14.0417 105.427 14.0667 105.327 14.1C105.244 14.1167 105.16 14.125 105.077 14.125L104.627 14.2C104.494 14.2333 104.352 14.2667 104.202 14.3C104.052 14.3333 103.91 14.3667 103.777 14.4C103.377 14.5 102.977 14.575 102.577 14.625C102.444 14.6583 102.369 14.7167 102.352 14.8C102.335 14.8 102.327 14.8083 102.327 14.825C102.227 15.0917 102.11 15.3583 101.977 15.625C101.86 15.875 101.735 16.1333 101.602 16.4C101.569 16.4667 101.535 16.5333 101.502 16.6C101.485 16.65 101.46 16.7083 101.427 16.775C101.41 16.8083 101.394 16.85 101.377 16.9C101.36 16.9333 101.344 16.9667 101.327 17C101.227 17.1167 101.177 17.2583 101.177 17.425C101.16 17.525 101.127 17.625 101.077 17.725C101.027 17.8083 100.977 17.8917 100.927 17.975C100.91 18.025 100.877 18.05 100.827 18.05C100.76 18.0667 100.694 18.0917 100.627 18.125C100.56 18.1583 100.485 18.1917 100.402 18.225C100.352 18.2417 100.302 18.2417 100.252 18.225C100.219 18.2083 100.177 18.1917 100.127 18.175C100.094 18.1417 100.06 18.125 100.027 18.125C99.8437 18.1083 99.7104 18 99.6271 17.8C99.4937 17.5333 99.4021 17.2667 99.3521 17C99.3354 16.9333 99.3354 16.875 99.3521 16.825C99.3854 16.775 99.4104 16.725 99.4271 16.675C99.5271 16.6083 99.5854 16.5333 99.6021 16.45V16.425C99.6021 16.2083 99.6437 16.0083 99.7271 15.825C99.8271 15.625 99.9104 15.4333 99.9771 15.25C100.01 15.15 100.052 15.05 100.102 14.95C100.152 14.85 100.202 14.75 100.252 14.65C100.319 14.5333 100.369 14.425 100.402 14.325C100.452 14.2083 100.494 14.0917 100.527 13.975C100.577 13.8417 100.577 13.7167 100.527 13.6C100.494 13.5 100.477 13.4083 100.477 13.325C100.477 13.225 100.485 13.125 100.502 13.025C100.502 12.8417 100.569 12.6833 100.702 12.55C100.769 12.4667 100.835 12.4 100.902 12.35C100.985 12.2833 101.06 12.2167 101.127 12.15C101.277 12 101.394 11.8 101.477 11.55C101.544 11.3333 101.594 11.1167 101.627 10.9C101.677 10.6667 101.727 10.4417 101.777 10.225C101.81 10.0083 101.844 9.8 101.877 9.6C101.927 9.38333 101.977 9.175 102.027 8.975C102.044 8.89167 102.06 8.81667 102.077 8.75C102.11 8.66667 102.135 8.59167 102.152 8.525C102.202 8.39167 102.252 8.26667 102.302 8.15C102.352 8.01667 102.385 7.88333 102.402 7.75C102.435 7.68333 102.435 7.625 102.402 7.575C102.385 7.49167 102.385 7.41667 102.402 7.35C102.435 7.28333 102.46 7.21667 102.477 7.15C102.527 7.03333 102.56 6.91667 102.577 6.8C102.61 6.68333 102.652 6.56667 102.702 6.45C102.785 6.23333 102.852 6.05833 102.902 5.925C102.969 5.775 103.027 5.60833 103.077 5.425C103.11 5.325 103.144 5.23333 103.177 5.15C103.227 5.05 103.26 4.95 103.277 4.85C103.327 4.7 103.369 4.55 103.402 4.4C103.435 4.23333 103.452 4.075 103.452 3.925C103.485 3.79167 103.519 3.7 103.552 3.65C103.635 3.48333 103.735 3.34167 103.852 3.225C103.985 3.10833 104.11 2.99167 104.227 2.875C104.31 2.825 104.394 2.79167 104.477 2.775C104.56 2.74167 104.644 2.75 104.727 2.8C104.794 2.83333 104.835 2.85 104.852 2.85C105.002 2.83333 105.127 2.86667 105.227 2.95C105.327 3.03333 105.41 3.13333 105.477 3.25C105.51 3.28333 105.535 3.325 105.552 3.375C105.569 3.425 105.585 3.46667 105.602 3.5C105.685 3.63333 105.727 3.76667 105.727 3.9C105.727 3.96667 105.735 4.04167 105.752 4.125C105.769 4.19167 105.785 4.26667 105.802 4.35C105.852 4.45 105.927 4.5 106.027 4.5C106.044 4.48333 106.06 4.48333 106.077 4.5C106.094 4.51667 106.102 4.53333 106.102 4.55C106.185 4.65 106.21 4.75833 106.177 4.875C106.144 5.00833 106.135 5.14167 106.152 5.275C106.185 5.39167 106.219 5.51667 106.252 5.65C106.319 5.81667 106.385 5.98333 106.452 6.15C106.519 6.31667 106.585 6.48333 106.652 6.65C106.735 6.83333 106.819 7.01667 106.902 7.2C106.985 7.38333 107.06 7.56667 107.127 7.75C107.21 7.98333 107.294 8.21667 107.377 8.45C107.477 8.68333 107.585 8.91667 107.702 9.15L107.777 9.425C107.794 9.49167 107.81 9.55833 107.827 9.625C107.86 9.69167 107.885 9.75833 107.902 9.825C107.935 9.875 107.96 9.925 107.977 9.975C108.01 10.025 108.044 10.0667 108.077 10.1C108.16 10.2167 108.21 10.3417 108.227 10.475C108.277 10.6417 108.352 10.7917 108.452 10.925C108.485 10.975 108.535 11 108.602 11C108.852 10.9667 109.102 10.9417 109.352 10.925C109.602 10.8917 109.852 10.8417 110.102 10.775C110.285 10.725 110.46 10.7 110.627 10.7C110.944 10.7 111.235 10.8083 111.502 11.025C111.819 11.275 111.985 11.5917 112.002 11.975C112.002 12.0583 112.01 12.125 112.027 12.175C112.027 12.2917 111.994 12.3833 111.927 12.45C111.91 12.5 111.877 12.55 111.827 12.6C111.794 12.65 111.76 12.7 111.727 12.75C111.694 12.8167 111.66 12.8667 111.627 12.9L111.477 13.025C111.46 13.0583 111.435 13.1 111.402 13.15C111.369 13.1833 111.327 13.2083 111.277 13.225C111.21 13.2417 111.144 13.2667 111.077 13.3C111.01 13.3167 110.935 13.325 110.852 13.325C110.552 13.3583 110.285 13.35 110.052 13.3H109.652C109.619 13.3 109.569 13.3167 109.502 13.35C109.435 13.3833 109.402 13.425 109.402 13.475V13.575C109.452 13.725 109.485 13.8833 109.502 14.05C109.535 14.2 109.585 14.3417 109.652 14.475C109.652 14.5417 109.669 14.6083 109.702 14.675C109.785 14.825 109.852 14.9833 109.902 15.15C109.952 15.3 109.994 15.4583 110.027 15.625C110.027 15.6583 110.044 15.725 110.077 15.825C110.127 15.9417 110.169 16.0667 110.202 16.2C110.235 16.3167 110.26 16.4417 110.277 16.575C110.277 16.675 110.302 16.7667 110.352 16.85C110.419 17 110.469 17.15 110.502 17.3C110.535 17.45 110.56 17.6083 110.577 17.775C110.594 17.7917 110.602 17.825 110.602 17.875C110.602 17.9083 110.61 17.9417 110.627 17.975C110.71 18.1583 110.769 18.3583 110.802 18.575C110.835 18.775 110.877 18.975 110.927 19.175C110.96 19.275 110.977 19.375 110.977 19.475C110.994 19.5917 111.002 19.7083 111.002 19.825C111.002 19.9083 110.977 20 110.927 20.1C110.877 20.15 110.852 20.175 110.852 20.175C110.752 20.1917 110.694 20.25 110.677 20.35L110.602 20.5C110.569 20.5667 110.519 20.6083 110.452 20.625C110.385 20.625 110.327 20.65 110.277 20.7C110.21 20.7667 110.119 20.8 110.002 20.8C109.935 20.8 109.852 20.8 109.752 20.8C109.669 20.8 109.585 20.8083 109.502 20.825ZM103.477 11.75C103.577 11.7333 103.677 11.7167 103.777 11.7C103.894 11.6833 104.019 11.6667 104.152 11.65C104.235 11.6333 104.344 11.6167 104.477 11.6C104.61 11.5833 104.735 11.5667 104.852 11.55C104.969 11.5167 105.085 11.5 105.202 11.5C105.319 11.4833 105.435 11.4667 105.552 11.45C105.652 11.4167 105.752 11.4 105.852 11.4C105.952 11.3833 106.052 11.3667 106.152 11.35C106.302 11.3167 106.36 11.2333 106.327 11.1C106.31 10.9667 106.277 10.8333 106.227 10.7C106.194 10.55 106.119 10.425 106.002 10.325C105.969 10.2917 105.952 10.2417 105.952 10.175V10.1C105.919 9.96667 105.877 9.84167 105.827 9.725C105.794 9.59167 105.752 9.46667 105.702 9.35C105.669 9.21667 105.627 9.1 105.577 9C105.544 8.88333 105.502 8.76667 105.452 8.65L105.152 7.75C105.102 7.63333 105.052 7.51667 105.002 7.4C104.969 7.28333 104.935 7.16667 104.902 7.05L104.827 6.95H104.752L104.702 7.025C104.619 7.275 104.519 7.525 104.402 7.775C104.302 8.025 104.21 8.29167 104.127 8.575C104.127 8.60833 104.119 8.65 104.102 8.7C104.085 8.75 104.069 8.8 104.052 8.85C103.985 9.01667 103.919 9.2 103.852 9.4C103.802 9.6 103.76 9.8 103.727 10C103.71 10.1167 103.694 10.2333 103.677 10.35C103.66 10.45 103.635 10.5583 103.602 10.675L103.377 11.65C103.36 11.6667 103.369 11.6917 103.402 11.725C103.435 11.7417 103.46 11.75 103.477 11.75ZM123.47 20.275C123.403 20.2917 123.353 20.275 123.32 20.225C123.253 20.175 123.186 20.125 123.12 20.075C123.07 20.025 123.003 19.975 122.92 19.925C122.786 19.8583 122.678 19.7417 122.595 19.575C122.445 19.3417 122.37 19.0917 122.37 18.825C122.37 18.7417 122.361 18.6583 122.345 18.575C122.345 18.4917 122.336 18.4083 122.32 18.325C122.32 18.2417 122.311 18.1667 122.295 18.1C122.295 18.0167 122.295 17.9417 122.295 17.875C122.295 17.7917 122.295 17.7083 122.295 17.625C122.295 17.525 122.286 17.4333 122.27 17.35C122.27 17.3333 122.261 17.325 122.245 17.325C122.245 17.3083 122.245 17.3 122.245 17.3C122.211 17.3 122.186 17.3083 122.17 17.325L121.87 17.7C121.803 17.8 121.72 17.8917 121.62 17.975C121.536 18.0417 121.453 18.1167 121.37 18.2C121.103 18.4 120.836 18.5667 120.57 18.7C120.453 18.75 120.345 18.7917 120.245 18.825C119.678 19.025 119.12 19.1167 118.57 19.1C118.386 19.0833 118.195 19.0667 117.995 19.05C117.811 19.05 117.62 19.025 117.42 18.975C117.27 18.925 117.12 18.875 116.97 18.825C116.836 18.7583 116.703 18.675 116.57 18.575C116.453 18.475 116.336 18.375 116.22 18.275C116.103 18.1583 115.995 18.0333 115.895 17.9C115.728 17.6333 115.62 17.4667 115.57 17.4C115.52 17.3333 115.445 17.1667 115.345 16.9L115.22 16.675C115.17 16.5417 115.111 16.4167 115.045 16.3C114.995 16.1667 114.953 16.0333 114.92 15.9L114.795 15.55C114.761 15.4333 114.728 15.325 114.695 15.225C114.661 15.1083 114.628 14.9917 114.595 14.875C114.528 14.6583 114.47 14.4417 114.42 14.225C114.37 13.9917 114.32 13.7667 114.27 13.55L114.195 13.1C114.195 13.0667 114.186 13.0333 114.17 13C114.17 12.95 114.17 12.9 114.17 12.85L114.02 12.125C114.003 12.0417 113.995 11.9667 113.995 11.9C113.995 11.8167 113.995 11.7417 113.995 11.675C113.978 11.5417 113.97 11.4083 113.97 11.275C113.986 11.1417 113.995 11.0083 113.995 10.875C114.011 10.6917 114.036 10.5167 114.07 10.35C114.103 10.1667 114.136 9.99167 114.17 9.825C114.236 9.59167 114.303 9.35833 114.37 9.125C114.453 8.875 114.545 8.64167 114.645 8.425C114.728 8.24167 114.811 8.06667 114.895 7.9C114.978 7.71667 115.078 7.54167 115.195 7.375C115.345 7.125 115.503 6.88333 115.67 6.65C115.853 6.41667 116.036 6.19167 116.22 5.975C116.353 5.825 116.486 5.68333 116.62 5.55C116.753 5.4 116.886 5.25 117.02 5.1C117.253 4.86667 117.503 4.66667 117.77 4.5C117.903 4.41667 118.036 4.36667 118.17 4.35C118.22 4.33333 118.261 4.325 118.295 4.325C118.345 4.325 118.386 4.31667 118.42 4.3C118.603 4.26667 118.77 4.275 118.92 4.325C118.97 4.34167 119.02 4.35833 119.07 4.375C119.136 4.39167 119.195 4.40833 119.245 4.425C119.461 4.50833 119.653 4.55833 119.82 4.575C119.92 4.575 120.036 4.60833 120.17 4.675C120.253 4.69167 120.336 4.71667 120.42 4.75C120.503 4.76667 120.586 4.78333 120.67 4.8C120.77 4.8 120.853 4.825 120.92 4.875C120.936 4.875 120.953 4.88333 120.97 4.9C121.003 4.9 121.028 4.9 121.045 4.9C121.178 4.91667 121.295 4.95 121.395 5C121.495 5.03333 121.595 5.08333 121.695 5.15C121.928 5.3 122.17 5.46667 122.42 5.65C122.57 5.76667 122.645 5.925 122.645 6.125V6.25C122.695 6.45 122.645 6.65 122.495 6.85C122.411 7 122.345 7.1 122.295 7.15C122.261 7.18333 122.161 7.24167 121.995 7.325C121.945 7.34167 121.886 7.36667 121.82 7.4C121.77 7.41667 121.703 7.425 121.62 7.425C121.586 7.425 121.545 7.43333 121.495 7.45C121.461 7.45 121.428 7.45 121.395 7.45C121.345 7.46667 121.295 7.46667 121.245 7.45C121.195 7.43333 121.145 7.425 121.095 7.425C121.078 7.44167 121.053 7.43333 121.02 7.4L120.645 7.1C120.378 6.86667 120.07 6.73333 119.72 6.7C119.653 6.68333 119.586 6.675 119.52 6.675C119.453 6.675 119.378 6.66667 119.295 6.65C119.078 6.65 118.903 6.70833 118.77 6.825L118.595 7C118.445 7.16667 118.286 7.33333 118.12 7.5C117.97 7.66667 117.82 7.83333 117.67 8C117.553 8.11667 117.453 8.25 117.37 8.4C117.286 8.55 117.203 8.7 117.12 8.85C116.853 9.36667 116.653 9.91667 116.52 10.5C116.503 10.6 116.486 10.7 116.47 10.8C116.453 10.8833 116.436 10.9667 116.42 11.05C116.42 11.1333 116.42 11.2167 116.42 11.3C116.42 11.3833 116.428 11.4667 116.445 11.55C116.461 11.6167 116.47 11.6833 116.47 11.75C116.47 11.8 116.478 11.8583 116.495 11.925L116.57 12.525C116.586 12.625 116.603 12.7333 116.62 12.85C116.653 12.95 116.678 13.05 116.695 13.15C116.861 13.8 117.061 14.4583 117.295 15.125C117.378 15.375 117.478 15.5917 117.595 15.775L117.745 16C117.795 16.0667 117.845 16.1333 117.895 16.2C117.945 16.25 117.995 16.3 118.045 16.35C118.145 16.4167 118.228 16.4583 118.295 16.475C118.545 16.525 118.803 16.55 119.07 16.55C119.403 16.5167 119.686 16.4083 119.92 16.225C120.036 16.1417 120.136 16.05 120.22 15.95C120.32 15.85 120.411 15.7417 120.495 15.625C120.695 15.3917 120.87 15.1417 121.02 14.875C121.07 14.775 121.061 14.675 120.995 14.575C120.895 14.4083 120.77 14.275 120.62 14.175C120.436 14.0417 120.245 13.9333 120.045 13.85C119.861 13.75 119.653 13.6917 119.42 13.675L119.295 13.625C119.161 13.575 119.02 13.575 118.87 13.625C118.753 13.675 118.628 13.7 118.495 13.7C118.378 13.6833 118.253 13.6667 118.12 13.65C117.82 13.5667 117.561 13.4333 117.345 13.25C117.278 13.1667 117.22 13.0833 117.17 13C117.136 12.9167 117.095 12.8417 117.045 12.775C117.045 12.7417 117.036 12.7083 117.02 12.675C117.02 12.6417 117.028 12.6167 117.045 12.6C117.045 12.5167 117.045 12.4333 117.045 12.35C117.061 12.2667 117.078 12.1833 117.095 12.1C117.095 12.0833 117.111 12.025 117.145 11.925C117.178 11.8417 117.22 11.7667 117.27 11.7C117.336 11.6167 117.403 11.5417 117.47 11.475C117.736 11.225 118.028 11.0667 118.345 11C118.528 10.95 118.711 10.9167 118.895 10.9C119.078 10.8667 119.253 10.8417 119.42 10.825H121.52C121.653 10.825 121.795 10.825 121.945 10.825C122.095 10.825 122.245 10.8167 122.395 10.8C122.528 10.7833 122.653 10.775 122.77 10.775C122.903 10.775 123.036 10.775 123.17 10.775C123.32 10.775 123.453 10.8 123.57 10.85C123.753 10.9 123.895 11.0083 123.995 11.175C124.045 11.2417 124.095 11.3167 124.145 11.4C124.195 11.4833 124.228 11.5667 124.245 11.65C124.261 11.6667 124.27 11.6917 124.27 11.725C124.27 11.7417 124.278 11.7667 124.295 11.8L124.47 12.725C124.503 12.8583 124.528 13 124.545 13.15C124.561 13.3 124.578 13.45 124.595 13.6C124.595 13.6833 124.595 13.775 124.595 13.875C124.611 13.9583 124.62 14.0417 124.62 14.125C124.62 14.1917 124.62 14.2667 124.62 14.35C124.636 14.4333 124.645 14.5167 124.645 14.6V15.75C124.645 15.8667 124.645 16 124.645 16.15C124.661 16.2833 124.678 16.4167 124.695 16.55C124.711 16.6167 124.72 16.6833 124.72 16.75C124.72 16.8167 124.72 16.8917 124.72 16.975C124.703 17.1417 124.711 17.3167 124.745 17.5C124.778 17.6667 124.803 17.8417 124.82 18.025C124.836 18.1083 124.853 18.2 124.87 18.3C124.903 18.3833 124.928 18.475 124.945 18.575C124.961 18.6417 124.97 18.7167 124.97 18.8C124.986 18.8667 124.995 18.9417 124.995 19.025C124.995 19.0917 124.986 19.1583 124.97 19.225C124.97 19.3083 124.945 19.3833 124.895 19.45C124.861 19.4833 124.828 19.5333 124.795 19.6C124.728 19.7833 124.586 19.9333 124.37 20.05C124.203 20.1167 124.028 20.1667 123.845 20.2C123.695 20.2 123.57 20.225 123.47 20.275ZM136.507 20.275C136.44 20.2917 136.39 20.275 136.357 20.225C136.29 20.175 136.223 20.125 136.157 20.075C136.107 20.025 136.04 19.975 135.957 19.925C135.823 19.8583 135.715 19.7417 135.632 19.575C135.482 19.3417 135.407 19.0917 135.407 18.825C135.407 18.7417 135.398 18.6583 135.382 18.575C135.382 18.4917 135.373 18.4083 135.357 18.325C135.357 18.2417 135.348 18.1667 135.332 18.1C135.332 18.0167 135.332 17.9417 135.332 17.875C135.332 17.7917 135.332 17.7083 135.332 17.625C135.332 17.525 135.323 17.4333 135.307 17.35C135.307 17.3333 135.298 17.325 135.282 17.325C135.282 17.3083 135.282 17.3 135.282 17.3C135.248 17.3 135.223 17.3083 135.207 17.325L134.907 17.7C134.84 17.8 134.757 17.8917 134.657 17.975C134.573 18.0417 134.49 18.1167 134.407 18.2C134.14 18.4 133.873 18.5667 133.607 18.7C133.49 18.75 133.382 18.7917 133.282 18.825C132.715 19.025 132.157 19.1167 131.607 19.1C131.423 19.0833 131.232 19.0667 131.032 19.05C130.848 19.05 130.657 19.025 130.457 18.975C130.307 18.925 130.157 18.875 130.007 18.825C129.873 18.7583 129.74 18.675 129.607 18.575C129.49 18.475 129.373 18.375 129.257 18.275C129.14 18.1583 129.032 18.0333 128.932 17.9C128.765 17.6333 128.657 17.4667 128.607 17.4C128.557 17.3333 128.482 17.1667 128.382 16.9L128.257 16.675C128.207 16.5417 128.148 16.4167 128.082 16.3C128.032 16.1667 127.99 16.0333 127.957 15.9L127.832 15.55C127.798 15.4333 127.765 15.325 127.732 15.225C127.698 15.1083 127.665 14.9917 127.632 14.875C127.565 14.6583 127.507 14.4417 127.457 14.225C127.407 13.9917 127.357 13.7667 127.307 13.55L127.232 13.1C127.232 13.0667 127.223 13.0333 127.207 13C127.207 12.95 127.207 12.9 127.207 12.85L127.057 12.125C127.04 12.0417 127.032 11.9667 127.032 11.9C127.032 11.8167 127.032 11.7417 127.032 11.675C127.015 11.5417 127.007 11.4083 127.007 11.275C127.023 11.1417 127.032 11.0083 127.032 10.875C127.048 10.6917 127.073 10.5167 127.107 10.35C127.14 10.1667 127.173 9.99167 127.207 9.825C127.273 9.59167 127.34 9.35833 127.407 9.125C127.49 8.875 127.582 8.64167 127.682 8.425C127.765 8.24167 127.848 8.06667 127.932 7.9C128.015 7.71667 128.115 7.54167 128.232 7.375C128.382 7.125 128.54 6.88333 128.707 6.65C128.89 6.41667 129.073 6.19167 129.257 5.975C129.39 5.825 129.523 5.68333 129.657 5.55C129.79 5.4 129.923 5.25 130.057 5.1C130.29 4.86667 130.54 4.66667 130.807 4.5C130.94 4.41667 131.073 4.36667 131.207 4.35C131.257 4.33333 131.298 4.325 131.332 4.325C131.382 4.325 131.423 4.31667 131.457 4.3C131.64 4.26667 131.807 4.275 131.957 4.325C132.007 4.34167 132.057 4.35833 132.107 4.375C132.173 4.39167 132.232 4.40833 132.282 4.425C132.498 4.50833 132.69 4.55833 132.857 4.575C132.957 4.575 133.073 4.60833 133.207 4.675C133.29 4.69167 133.373 4.71667 133.457 4.75C133.54 4.76667 133.623 4.78333 133.707 4.8C133.807 4.8 133.89 4.825 133.957 4.875C133.973 4.875 133.99 4.88333 134.007 4.9C134.04 4.9 134.065 4.9 134.082 4.9C134.215 4.91667 134.332 4.95 134.432 5C134.532 5.03333 134.632 5.08333 134.732 5.15C134.965 5.3 135.207 5.46667 135.457 5.65C135.607 5.76667 135.682 5.925 135.682 6.125V6.25C135.732 6.45 135.682 6.65 135.532 6.85C135.448 7 135.382 7.1 135.332 7.15C135.298 7.18333 135.198 7.24167 135.032 7.325C134.982 7.34167 134.923 7.36667 134.857 7.4C134.807 7.41667 134.74 7.425 134.657 7.425C134.623 7.425 134.582 7.43333 134.532 7.45C134.498 7.45 134.465 7.45 134.432 7.45C134.382 7.46667 134.332 7.46667 134.282 7.45C134.232 7.43333 134.182 7.425 134.132 7.425C134.115 7.44167 134.09 7.43333 134.057 7.4L133.682 7.1C133.415 6.86667 133.107 6.73333 132.757 6.7C132.69 6.68333 132.623 6.675 132.557 6.675C132.49 6.675 132.415 6.66667 132.332 6.65C132.115 6.65 131.94 6.70833 131.807 6.825L131.632 7C131.482 7.16667 131.323 7.33333 131.157 7.5C131.007 7.66667 130.857 7.83333 130.707 8C130.59 8.11667 130.49 8.25 130.407 8.4C130.323 8.55 130.24 8.7 130.157 8.85C129.89 9.36667 129.69 9.91667 129.557 10.5C129.54 10.6 129.523 10.7 129.507 10.8C129.49 10.8833 129.473 10.9667 129.457 11.05C129.457 11.1333 129.457 11.2167 129.457 11.3C129.457 11.3833 129.465 11.4667 129.482 11.55C129.498 11.6167 129.507 11.6833 129.507 11.75C129.507 11.8 129.515 11.8583 129.532 11.925L129.607 12.525C129.623 12.625 129.64 12.7333 129.657 12.85C129.69 12.95 129.715 13.05 129.732 13.15C129.898 13.8 130.098 14.4583 130.332 15.125C130.415 15.375 130.515 15.5917 130.632 15.775L130.782 16C130.832 16.0667 130.882 16.1333 130.932 16.2C130.982 16.25 131.032 16.3 131.082 16.35C131.182 16.4167 131.265 16.4583 131.332 16.475C131.582 16.525 131.84 16.55 132.107 16.55C132.44 16.5167 132.723 16.4083 132.957 16.225C133.073 16.1417 133.173 16.05 133.257 15.95C133.357 15.85 133.448 15.7417 133.532 15.625C133.732 15.3917 133.907 15.1417 134.057 14.875C134.107 14.775 134.098 14.675 134.032 14.575C133.932 14.4083 133.807 14.275 133.657 14.175C133.473 14.0417 133.282 13.9333 133.082 13.85C132.898 13.75 132.69 13.6917 132.457 13.675L132.332 13.625C132.198 13.575 132.057 13.575 131.907 13.625C131.79 13.675 131.665 13.7 131.532 13.7C131.415 13.6833 131.29 13.6667 131.157 13.65C130.857 13.5667 130.598 13.4333 130.382 13.25C130.315 13.1667 130.257 13.0833 130.207 13C130.173 12.9167 130.132 12.8417 130.082 12.775C130.082 12.7417 130.073 12.7083 130.057 12.675C130.057 12.6417 130.065 12.6167 130.082 12.6C130.082 12.5167 130.082 12.4333 130.082 12.35C130.098 12.2667 130.115 12.1833 130.132 12.1C130.132 12.0833 130.148 12.025 130.182 11.925C130.215 11.8417 130.257 11.7667 130.307 11.7C130.373 11.6167 130.44 11.5417 130.507 11.475C130.773 11.225 131.065 11.0667 131.382 11C131.565 10.95 131.748 10.9167 131.932 10.9C132.115 10.8667 132.29 10.8417 132.457 10.825H134.557C134.69 10.825 134.832 10.825 134.982 10.825C135.132 10.825 135.282 10.8167 135.432 10.8C135.565 10.7833 135.69 10.775 135.807 10.775C135.94 10.775 136.073 10.775 136.207 10.775C136.357 10.775 136.49 10.8 136.607 10.85C136.79 10.9 136.932 11.0083 137.032 11.175C137.082 11.2417 137.132 11.3167 137.182 11.4C137.232 11.4833 137.265 11.5667 137.282 11.65C137.298 11.6667 137.307 11.6917 137.307 11.725C137.307 11.7417 137.315 11.7667 137.332 11.8L137.507 12.725C137.54 12.8583 137.565 13 137.582 13.15C137.598 13.3 137.615 13.45 137.632 13.6C137.632 13.6833 137.632 13.775 137.632 13.875C137.648 13.9583 137.657 14.0417 137.657 14.125C137.657 14.1917 137.657 14.2667 137.657 14.35C137.673 14.4333 137.682 14.5167 137.682 14.6V15.75C137.682 15.8667 137.682 16 137.682 16.15C137.698 16.2833 137.715 16.4167 137.732 16.55C137.748 16.6167 137.757 16.6833 137.757 16.75C137.757 16.8167 137.757 16.8917 137.757 16.975C137.74 17.1417 137.748 17.3167 137.782 17.5C137.815 17.6667 137.84 17.8417 137.857 18.025C137.873 18.1083 137.89 18.2 137.907 18.3C137.94 18.3833 137.965 18.475 137.982 18.575C137.998 18.6417 138.007 18.7167 138.007 18.8C138.023 18.8667 138.032 18.9417 138.032 19.025C138.032 19.0917 138.023 19.1583 138.007 19.225C138.007 19.3083 137.982 19.3833 137.932 19.45C137.898 19.4833 137.865 19.5333 137.832 19.6C137.765 19.7833 137.623 19.9333 137.407 20.05C137.24 20.1167 137.065 20.1667 136.882 20.2C136.732 20.2 136.607 20.225 136.507 20.275ZM145.229 20.65C145.179 20.6667 145.129 20.6667 145.079 20.65C145.029 20.65 144.987 20.65 144.954 20.65C144.771 20.6 144.612 20.5 144.479 20.35C144.362 20.2167 144.254 20.0583 144.154 19.875C144.137 19.8083 144.112 19.7417 144.079 19.675C144.062 19.6083 144.054 19.5417 144.054 19.475V19.3C144.021 19.1167 143.996 18.9333 143.979 18.75C143.979 18.5667 143.979 18.3833 143.979 18.2C143.979 17.9667 143.979 17.7333 143.979 17.5C143.996 17.2667 144.004 17.0333 144.004 16.8C144.004 16.6833 144.012 16.5917 144.029 16.525C144.046 16.2083 144.046 15.875 144.029 15.525C144.012 15.4417 143.996 15.35 143.979 15.25C143.979 15.15 143.979 15.05 143.979 14.95C143.996 14.7667 143.996 14.5833 143.979 14.4C143.962 14.2167 143.937 14.0333 143.904 13.85L143.829 13.425C143.829 13.3917 143.821 13.3583 143.804 13.325C143.804 13.275 143.804 13.2417 143.804 13.225C143.671 12.725 143.487 12.275 143.254 11.875C143.171 11.725 143.079 11.575 142.979 11.425C142.896 11.2583 142.812 11.0917 142.729 10.925C142.646 10.7583 142.579 10.5917 142.529 10.425C142.496 10.2417 142.462 10.0667 142.429 9.9C142.429 9.86667 142.429 9.825 142.429 9.775C142.446 9.725 142.454 9.675 142.454 9.625C142.454 9.525 142.454 9.425 142.454 9.325C142.471 9.20833 142.479 9.09167 142.479 8.975C142.479 8.85833 142.446 8.76667 142.379 8.7L142.229 8.5C142.162 8.41667 142.104 8.33333 142.054 8.25C142.004 8.15 141.946 8.05833 141.879 7.975L141.604 7.6C141.537 7.5 141.462 7.4 141.379 7.3C141.296 7.2 141.212 7.09167 141.129 6.975C141.096 6.94167 141.062 6.90833 141.029 6.875C140.996 6.825 140.954 6.79167 140.904 6.775C140.837 6.75833 140.787 6.71667 140.754 6.65C140.704 6.6 140.646 6.525 140.579 6.425C140.479 6.25833 140.371 6.09167 140.254 5.925C140.154 5.74167 140.054 5.56667 139.954 5.4L139.879 5.3C139.729 4.98333 139.579 4.66667 139.429 4.35C139.296 4.01667 139.171 3.69167 139.054 3.375C138.987 3.225 138.937 3.05833 138.904 2.875C138.887 2.775 138.862 2.675 138.829 2.575C138.796 2.475 138.754 2.38333 138.704 2.3C138.654 2.21667 138.621 2.13333 138.604 2.05C138.604 1.96667 138.604 1.88333 138.604 1.8C138.604 1.75 138.612 1.7 138.629 1.65C138.662 1.6 138.687 1.55 138.704 1.5C138.754 1.41667 138.804 1.34167 138.854 1.275C138.921 1.19167 138.987 1.11667 139.054 1.05C139.137 0.966665 139.229 0.924999 139.329 0.924999C139.379 0.924999 139.412 0.916666 139.429 0.899999C139.562 0.833332 139.696 0.816666 139.829 0.85C139.979 0.883333 140.112 0.924999 140.229 0.975C140.279 0.991666 140.321 1.025 140.354 1.075C140.387 1.10833 140.421 1.14167 140.454 1.175L140.729 1.625C140.762 1.65833 140.779 1.7 140.779 1.75C140.796 1.8 140.812 1.85 140.829 1.9C140.846 1.93333 140.862 1.975 140.879 2.025C140.996 2.275 141.104 2.525 141.204 2.775C141.321 3.00833 141.429 3.25 141.529 3.5C141.612 3.71667 141.696 3.93333 141.779 4.15C141.879 4.35 141.987 4.55 142.104 4.75C142.187 4.95 142.287 5.14167 142.404 5.325C142.521 5.50833 142.637 5.69167 142.754 5.875C142.821 5.94167 142.879 6.01667 142.929 6.1C142.979 6.18333 143.037 6.26667 143.104 6.35L143.229 6.5C143.362 6.63333 143.446 6.7 143.479 6.7C143.512 6.7 143.587 6.625 143.704 6.475C143.771 6.39167 143.829 6.30833 143.879 6.225C143.946 6.125 144.012 6.04167 144.079 5.975C144.212 5.80833 144.337 5.65 144.454 5.5C144.587 5.35 144.712 5.2 144.829 5.05C145.012 4.83333 145.246 4.61667 145.529 4.4C145.646 4.3 145.754 4.19167 145.854 4.075C145.971 3.925 146.104 3.81667 146.254 3.75C146.371 3.68333 146.479 3.61667 146.579 3.55C146.679 3.46667 146.779 3.39167 146.879 3.325C146.979 3.225 147.087 3.14167 147.204 3.075C147.271 3.025 147.329 2.975 147.379 2.925C147.446 2.85833 147.504 2.79167 147.554 2.725C147.587 2.675 147.621 2.63333 147.654 2.6C147.704 2.55 147.754 2.50833 147.804 2.475L148.154 2.25C148.187 2.23333 148.212 2.225 148.229 2.225C148.246 2.20833 148.262 2.19167 148.279 2.175C148.312 2.175 148.337 2.175 148.354 2.175C148.371 2.15833 148.387 2.15 148.404 2.15C148.487 2.11667 148.562 2.09167 148.629 2.075C148.712 2.05833 148.796 2.05 148.879 2.05C148.979 2.1 149.079 2.15 149.179 2.2C149.279 2.25 149.362 2.31667 149.429 2.4C149.462 2.41667 149.487 2.425 149.504 2.425C149.537 2.425 149.562 2.43333 149.579 2.45C149.596 2.46667 149.604 2.48333 149.604 2.5C149.604 2.51667 149.596 2.55 149.579 2.6C149.562 2.63333 149.554 2.65833 149.554 2.675C149.554 2.69167 149.571 2.7 149.604 2.7C149.637 2.7 149.662 2.70833 149.679 2.725C149.696 2.74167 149.712 2.75 149.729 2.75C149.746 2.75 149.754 2.76667 149.754 2.8C149.737 2.93333 149.754 3.075 149.804 3.225C149.837 3.275 149.854 3.325 149.854 3.375C149.854 3.425 149.846 3.475 149.829 3.525L149.504 4.125C149.487 4.19167 149.446 4.24167 149.379 4.275C149.129 4.49167 148.879 4.65833 148.629 4.775C148.329 4.875 148.079 5.00833 147.879 5.175C147.796 5.24167 147.712 5.30833 147.629 5.375C147.546 5.425 147.462 5.49167 147.379 5.575C147.346 5.60833 147.296 5.64167 147.229 5.675L147.079 5.8C146.896 6 146.712 6.2 146.529 6.4C146.362 6.58333 146.187 6.775 146.004 6.975C145.971 7.04167 145.929 7.075 145.879 7.075C145.796 7.125 145.721 7.19167 145.654 7.275C145.571 7.40833 145.479 7.54167 145.379 7.675C145.279 7.79167 145.204 7.93333 145.154 8.1L145.004 8.35C144.987 8.36667 144.971 8.39167 144.954 8.425C144.937 8.44167 144.921 8.46667 144.904 8.5C144.837 8.61667 144.829 8.74167 144.879 8.875C144.912 8.90833 144.937 8.95 144.954 9C144.987 9.05 145.012 9.1 145.029 9.15C145.079 9.23333 145.071 9.31667 145.004 9.4C144.971 9.41667 144.954 9.45833 144.954 9.525C144.987 9.59167 145.004 9.64167 145.004 9.675C145.037 9.775 145.029 9.86667 144.979 9.95C144.946 10.0167 144.929 10.0583 144.929 10.075C144.912 10.175 144.921 10.2667 144.954 10.35C144.987 10.4167 145.021 10.5 145.054 10.6C145.104 10.6833 145.162 10.7667 145.229 10.85C145.312 11.0167 145.396 11.175 145.479 11.325C145.562 11.475 145.637 11.6333 145.704 11.8L146.004 12.775C146.037 12.925 146.062 13.0833 146.079 13.25C146.096 13.4 146.112 13.55 146.129 13.7C146.146 13.8 146.162 13.9 146.179 14C146.196 14.0833 146.196 14.175 146.179 14.275C146.212 14.6417 146.221 15.0083 146.204 15.375C146.204 15.725 146.204 16.0833 146.204 16.45C146.204 16.4833 146.196 16.5167 146.179 16.55C146.162 16.7333 146.154 16.925 146.154 17.125C146.154 17.325 146.146 17.5167 146.129 17.7C146.129 17.8167 146.129 17.9333 146.129 18.05C146.146 18.1667 146.154 18.2917 146.154 18.425C146.154 18.475 146.162 18.5083 146.179 18.525C146.212 18.6083 146.237 18.7 146.254 18.8C146.271 18.8833 146.287 18.9667 146.304 19.05C146.321 19.1167 146.329 19.175 146.329 19.225C146.329 19.2917 146.312 19.3583 146.279 19.425C146.229 19.5417 146.229 19.6667 146.279 19.8C146.279 19.8167 146.254 19.8417 146.204 19.875C146.171 19.875 146.137 19.8833 146.104 19.9C146.087 19.9 146.062 19.9167 146.029 19.95C146.029 19.9833 146.021 20.0083 146.004 20.025C145.987 20.1083 145.921 20.2083 145.804 20.325C145.737 20.4083 145.646 20.475 145.529 20.525C145.429 20.575 145.329 20.6167 145.229 20.65Z" fill="#353535"/>
</svg>
