<svg width="116" height="24" viewBox="0 0 116 24" fill="none" xmlns="http://www.w3.org/2000/svg">
<path d="M5.75793 23.47L5.24793 23.38C4.98793 23.34 4.71793 23.3 4.43793 23.26C4.17793 23.22 3.90793 23.19 3.62793 23.17C3.34793 23.17 3.06793 23.09 2.78793 22.93C2.52793 22.79 2.34793 22.57 2.24793 22.27C2.22793 22.17 2.19793 22.07 2.15793 21.97C2.13793 21.87 2.11793 21.77 2.09793 21.67C2.09793 21.43 2.14793 21.25 2.24793 21.13C2.34793 21.03 2.42793 20.93 2.48793 20.83C2.56793 20.73 2.64793 20.64 2.72793 20.56C2.76793 20.52 2.80793 20.49 2.84793 20.47C2.88793 20.45 2.92793 20.43 2.96793 20.41C3.06793 20.35 3.16793 20.31 3.26793 20.29C3.36793 20.25 3.46793 20.22 3.56793 20.2C3.60793 20.18 3.63793 20.18 3.65793 20.2C3.69793 20.2 3.72793 20.2 3.74793 20.2C3.84793 20.22 3.95793 20.24 4.07793 20.26C4.19793 20.26 4.30793 20.28 4.40793 20.32L5.66793 20.5C5.94793 20.54 6.19793 20.5 6.41793 20.38C6.49793 20.34 6.56793 20.3 6.62793 20.26C6.70793 20.22 6.77793 20.18 6.83793 20.14C7.27793 19.88 7.65793 19.61 7.97793 19.33C8.21793 19.11 8.44793 18.89 8.66793 18.67C8.88793 18.45 9.08793 18.21 9.26793 17.95C9.40793 17.77 9.49793 17.59 9.53793 17.41C9.57793 17.21 9.58793 17.01 9.56793 16.81L9.47793 16.57C9.45793 16.47 9.41793 16.39 9.35793 16.33C9.29793 16.27 9.23793 16.2 9.17793 16.12C9.05793 16.02 8.93793 15.91 8.81793 15.79C8.71793 15.67 8.60793 15.57 8.48793 15.49C8.18793 15.25 7.88793 15.02 7.58793 14.8C7.30793 14.58 7.01793 14.36 6.71793 14.14C6.69793 14.1 6.63793 14.06 6.53793 14.02C6.35793 13.9 6.17793 13.77 5.99793 13.63C5.83793 13.47 5.67793 13.32 5.51793 13.18C5.31793 12.98 5.09793 12.79 4.85793 12.61C4.73793 12.55 4.62793 12.45 4.52793 12.31C4.44793 12.21 4.32793 12.11 4.16793 12.01C4.02793 11.93 3.89793 11.84 3.77793 11.74C3.65793 11.62 3.53793 11.51 3.41793 11.41L3.02793 11.05C2.94793 10.95 2.85793 10.86 2.75793 10.78C2.67793 10.68 2.58793 10.58 2.48793 10.48C2.44793 10.38 2.38793 10.3 2.30793 10.24C2.24793 10.18 2.18793 10.11 2.12793 10.03C2.10793 9.99 2.07793 9.95 2.03793 9.91C1.99793 9.85 1.96793 9.79 1.94793 9.73C1.82793 9.49 1.69793 9.25 1.55793 9.01C1.43793 8.77 1.32793 8.52 1.22793 8.26C1.16793 8.1 1.10793 7.95 1.04793 7.81C1.00793 7.65 0.96793 7.5 0.92793 7.36C0.90793 7.2 0.86793 7.06 0.80793 6.94C0.76793 6.8 0.72793 6.66 0.68793 6.52C0.64793 6.3 0.59793 6.09 0.53793 5.89C0.49793 5.67 0.45793 5.46 0.41793 5.26L0.35793 5.02C0.33793 4.8 0.33793 4.59 0.35793 4.39C0.39793 4.11 0.45793 3.86 0.53793 3.64C0.61793 3.4 0.74793 3.21 0.92793 3.07C1.12793 2.91 1.32793 2.75 1.52793 2.59C1.72793 2.43 1.93793 2.3 2.15793 2.2C2.19793 2.2 2.22793 2.19 2.24793 2.17C2.44793 2.01 2.66793 1.9 2.90793 1.84C3.14793 1.76 3.38793 1.69 3.62793 1.63C4.58793 1.35 5.57793 1.14 6.59793 0.999999H6.89793C7.09793 0.999999 7.28793 0.999999 7.46793 0.999999C7.64793 0.999999 7.83793 0.989999 8.03793 0.969999C8.27793 0.969999 8.51793 0.999999 8.75793 1.06C8.99793 1.1 9.22793 1.17 9.44793 1.27C9.60793 1.35 9.76793 1.44 9.92793 1.54C10.0879 1.62 10.2379 1.71 10.3779 1.81C10.5379 1.93 10.6379 2.06 10.6779 2.2L10.7679 2.41C10.8679 2.59 10.9179 2.78 10.9179 2.98C10.9379 3.16 10.9279 3.35 10.8879 3.55C10.8879 3.61 10.8779 3.68 10.8579 3.76C10.8579 3.82 10.8579 3.88 10.8579 3.94C10.7979 4.38 10.5879 4.72 10.2279 4.96C10.0079 5.16 9.71793 5.24 9.35793 5.2C9.27793 5.16 9.23793 5.18 9.23793 5.26C9.23793 5.34 9.18793 5.38 9.08793 5.38H8.90793C8.78793 5.38 8.66793 5.32 8.54793 5.2C8.44793 5.1 8.39793 5.02 8.39793 4.96C8.39793 4.88 8.43793 4.82 8.51793 4.78C8.47793 4.68 8.43793 4.59 8.39793 4.51C8.35793 4.43 8.31793 4.37 8.27793 4.33C8.21793 4.23 8.12793 4.16 8.00793 4.12C7.90793 4.1 7.80793 4.08 7.70793 4.06C7.60793 4.04 7.50793 4.02 7.40793 4C7.32793 4 7.23793 4 7.13793 4C7.03793 3.98 6.93793 3.96 6.83793 3.94C6.77793 3.92 6.68793 3.93 6.56793 3.97C6.50793 3.99 6.44793 4.01 6.38793 4.03C6.32793 4.03 6.25793 4.02 6.17793 4C6.11793 4 6.04793 4 5.96793 4C5.90793 4 5.83793 4.02 5.75793 4.06L5.18793 4.15C4.86793 4.21 4.55793 4.33 4.25793 4.51C4.19793 4.53 4.13793 4.55 4.07793 4.57C4.01793 4.59 3.95793 4.59 3.89793 4.57C3.77793 4.55 3.67793 4.58 3.59793 4.66C3.57793 4.7 3.52793 4.73 3.44793 4.75C3.38793 4.75 3.33793 4.77 3.29793 4.81C3.21793 4.89 3.17793 4.97 3.17793 5.05C3.19793 5.09 3.20793 5.15 3.20793 5.23L3.83793 7.06C3.95793 7.38 4.10793 7.68 4.28793 7.96C4.48793 8.22 4.69793 8.48 4.91793 8.74C5.25793 9.14 5.60793 9.48 5.96793 9.76L6.92793 10.57C7.12793 10.75 7.33793 10.92 7.55793 11.08C7.77793 11.24 7.98793 11.4 8.18793 11.56C8.48793 11.78 8.78793 12.01 9.08793 12.25C9.38793 12.47 9.68793 12.7 9.98793 12.94C10.2279 13.14 10.4579 13.34 10.6779 13.54C10.9179 13.72 11.1379 13.92 11.3379 14.14C11.4779 14.3 11.6179 14.46 11.7579 14.62C11.8979 14.78 12.0179 14.96 12.1179 15.16C12.2579 15.38 12.3779 15.64 12.4779 15.94C12.5979 16.32 12.6479 16.68 12.6279 17.02C12.6079 17.06 12.5979 17.12 12.5979 17.2C12.5979 17.44 12.5679 17.67 12.5079 17.89C12.4679 18.09 12.3979 18.3 12.2979 18.52C12.1979 18.72 12.0879 18.93 11.9679 19.15C11.8679 19.35 11.7479 19.55 11.6079 19.75C11.4079 20.01 11.1979 20.26 10.9779 20.5C10.7779 20.72 10.5479 20.94 10.2879 21.16C10.1479 21.28 10.0079 21.41 9.86793 21.55C9.72793 21.67 9.57793 21.78 9.41793 21.88C9.31793 21.96 9.21793 22.03 9.11793 22.09C9.01793 22.17 8.91793 22.25 8.81793 22.33C8.73793 22.37 8.65793 22.42 8.57793 22.48C8.49793 22.54 8.41793 22.6 8.33793 22.66C8.25793 22.74 8.15793 22.8 8.03793 22.84C7.93793 22.9 7.83793 22.95 7.73793 22.99L6.86793 23.35C6.68793 23.41 6.50793 23.45 6.32793 23.47C6.14793 23.49 5.95793 23.49 5.75793 23.47ZM20.4343 22.3C20.4143 22.28 20.3843 22.27 20.3443 22.27C20.1443 22.15 19.9443 22.04 19.7443 21.94C19.5643 21.82 19.3943 21.69 19.2343 21.55C19.1543 21.51 19.1043 21.47 19.0843 21.43C18.9043 21.33 18.7443 21.21 18.6043 21.07C18.4643 20.91 18.3343 20.74 18.2143 20.56C18.1743 20.52 18.1343 20.47 18.0943 20.41C18.0543 20.35 18.0043 20.29 17.9443 20.23C17.7443 20.03 17.5843 19.79 17.4643 19.51C17.4443 19.45 17.4143 19.39 17.3743 19.33C17.3343 19.27 17.2943 19.21 17.2543 19.15C17.1343 18.99 17.0443 18.84 16.9843 18.7C16.9443 18.54 16.8843 18.39 16.8043 18.25C16.7243 18.09 16.6443 17.94 16.5643 17.8C16.5443 17.72 16.5143 17.64 16.4743 17.56C16.4343 17.48 16.4043 17.4 16.3843 17.32C16.3843 17.22 16.3543 17.11 16.2943 16.99C16.2143 16.77 16.1343 16.55 16.0543 16.33C15.9943 16.09 15.9343 15.85 15.8743 15.61C15.8343 15.53 15.8143 15.47 15.8143 15.43C15.6943 15.17 15.6043 14.9 15.5443 14.62C15.4843 14.34 15.4243 14.07 15.3643 13.81L15.1843 12.46C15.1643 12.42 15.1543 12.37 15.1543 12.31C15.1543 12.25 15.1543 12.2 15.1543 12.16C15.1543 12.04 15.1543 11.93 15.1543 11.83C15.1543 11.71 15.1343 11.59 15.0943 11.47C15.0543 11.21 15.0643 10.97 15.1243 10.75C15.1243 10.67 15.1243 10.6 15.1243 10.54C15.1443 10.46 15.1543 10.38 15.1543 10.3C15.1543 10.2 15.1543 10.1 15.1543 10C15.1743 9.88 15.1943 9.78 15.2143 9.7C15.2343 9.64 15.2443 9.56 15.2443 9.46C15.2843 9.28 15.3043 9.11 15.3043 8.95C15.3243 8.77 15.3443 8.6 15.3643 8.44C15.4243 8.16 15.4543 7.89 15.4543 7.63C15.4543 7.55 15.4543 7.48 15.4543 7.42C15.4743 7.34 15.4943 7.26 15.5143 7.18C15.5143 7 15.5043 6.87 15.4843 6.79C15.4243 6.71 15.4143 6.6 15.4543 6.46C15.4943 6.38 15.5143 6.32 15.5143 6.28C15.5343 6.24 15.5443 6.2 15.5443 6.16C15.5443 6.1 15.5743 6.06 15.6343 6.04H15.8443C15.9243 6.04 15.9743 6.01 15.9943 5.95C16.0143 5.87 16.0843 5.81 16.2043 5.77C16.3043 5.73 16.3943 5.7 16.4743 5.68C16.5543 5.64 16.6343 5.59 16.7143 5.53C16.7743 5.49 16.8443 5.47 16.9243 5.47C17.0043 5.47 17.0843 5.48 17.1643 5.5L17.7043 5.68C17.7243 5.7 17.7343 5.71 17.7343 5.71C17.7543 5.71 17.7743 5.72 17.7943 5.74C17.9543 5.9 18.0843 6.08 18.1843 6.28C18.3043 6.48 18.3743 6.7 18.3943 6.94C18.3943 7.02 18.3943 7.1 18.3943 7.18C18.3943 7.24 18.3743 7.31 18.3343 7.39C18.3143 7.51 18.2943 7.63 18.2743 7.75C18.2543 7.87 18.2343 8 18.2143 8.14C18.1743 8.34 18.1443 8.54 18.1243 8.74C18.1243 8.92 18.1243 9.11 18.1243 9.31C18.1043 9.39 18.0943 9.47 18.0943 9.55C18.0943 9.61 18.0843 9.68 18.0643 9.76C18.0443 10 18.0343 10.24 18.0343 10.48C18.0343 10.72 18.0543 10.95 18.0943 11.17C18.0943 11.19 18.0943 11.22 18.0943 11.26C18.1143 11.3 18.1143 11.34 18.0943 11.38C18.0943 11.58 18.1143 11.79 18.1543 12.01C18.1943 12.23 18.2243 12.45 18.2443 12.67C18.2643 12.87 18.2843 13.06 18.3043 13.24C18.3243 13.42 18.3543 13.6 18.3943 13.78C18.4343 13.86 18.4543 13.94 18.4543 14.02C18.4743 14.1 18.4943 14.18 18.5143 14.26C18.5943 14.64 18.6843 15.01 18.7843 15.37C18.8843 15.73 19.0143 16.09 19.1743 16.45C19.2743 16.67 19.3743 16.86 19.4743 17.02C19.6343 17.3 19.7743 17.58 19.8943 17.86C19.9743 18 20.0543 18.14 20.1343 18.28C20.2143 18.4 20.2943 18.53 20.3743 18.67C20.4543 18.77 20.5343 18.86 20.6143 18.94C20.6943 19.02 20.7743 19.11 20.8543 19.21C20.9543 19.31 21.0843 19.34 21.2443 19.3C21.3443 19.26 21.4143 19.22 21.4543 19.18C21.5543 19.12 21.6443 19.06 21.7243 19C21.8243 18.94 21.9143 18.87 21.9943 18.79C22.2143 18.57 22.4143 18.35 22.5943 18.13C22.7943 17.91 22.9643 17.67 23.1043 17.41C23.2243 17.19 23.3443 16.96 23.4643 16.72C23.5843 16.48 23.6943 16.24 23.7943 16C23.9143 15.72 24.0243 15.44 24.1243 15.16C24.2443 14.88 24.3543 14.59 24.4543 14.29C24.5343 14.09 24.5943 13.89 24.6343 13.69C24.6943 13.47 24.7343 13.26 24.7543 13.06C24.7943 12.84 24.8243 12.62 24.8443 12.4C24.8843 12.16 24.8943 11.93 24.8743 11.71C24.8743 11.65 24.8743 11.59 24.8743 11.53C24.8943 11.47 24.9043 11.41 24.9043 11.35C24.9443 11.21 24.9543 11.08 24.9343 10.96C24.9343 10.84 24.9243 10.72 24.9043 10.6C24.8843 10.26 24.8543 9.94 24.8143 9.64C24.7943 9.32 24.7743 9 24.7543 8.68C24.7543 8.52 24.7443 8.41 24.7243 8.35C24.7043 8.17 24.6843 7.99 24.6643 7.81C24.6643 7.63 24.6443 7.45 24.6043 7.27V7.03C24.6043 6.83 24.5943 6.64 24.5743 6.46C24.5743 6.26 24.5743 6.06 24.5743 5.86C24.5743 5.7 24.5643 5.56 24.5443 5.44C24.5443 5.3 24.5443 5.16 24.5443 5.02C24.5443 4.84 24.5743 4.69 24.6343 4.57C24.6943 4.47 24.7143 4.39 24.6943 4.33C24.6343 4.21 24.6643 4.12 24.7843 4.06C24.8843 3.96 24.9843 3.88 25.0843 3.82C25.2043 3.76 25.3343 3.72 25.4743 3.7C25.5143 3.68 25.5443 3.67 25.5643 3.67C25.6043 3.67 25.6343 3.66 25.6543 3.64C25.7743 3.54 25.9343 3.51 26.1343 3.55C26.1743 3.57 26.2343 3.58 26.3143 3.58C26.4943 3.62 26.6243 3.69 26.7043 3.79C26.7643 3.85 26.8543 3.92 26.9743 4C27.1343 4.08 27.2443 4.18 27.3043 4.3C27.3643 4.42 27.4043 4.55 27.4243 4.69C27.4643 4.89 27.4943 5.08 27.5143 5.26C27.5543 5.44 27.5643 5.63 27.5443 5.83V6.1C27.5443 6.3 27.5443 6.5 27.5443 6.7C27.5643 6.88 27.5843 7.07 27.6043 7.27C27.6243 7.33 27.6343 7.4 27.6343 7.48C27.6343 7.54 27.6343 7.6 27.6343 7.66C27.6343 7.78 27.6343 7.9 27.6343 8.02C27.6543 8.12 27.6743 8.23 27.6943 8.35C27.7143 8.39 27.7243 8.45 27.7243 8.53C27.7043 8.73 27.7043 8.93 27.7243 9.13C27.7643 9.31 27.7943 9.5 27.8143 9.7C27.8343 9.9 27.8443 10.11 27.8443 10.33C27.8643 10.55 27.8743 10.77 27.8743 10.99C27.8943 11.01 27.8943 11.04 27.8743 11.08C27.8743 11.12 27.8743 11.16 27.8743 11.2C27.8143 11.38 27.8043 11.59 27.8443 11.83C27.8843 12.09 27.8743 12.34 27.8143 12.58C27.7943 12.76 27.7743 12.94 27.7543 13.12C27.7343 13.3 27.7043 13.49 27.6643 13.69C27.6243 14.01 27.5543 14.33 27.4543 14.65C27.3543 14.97 27.2543 15.29 27.1543 15.61C27.1543 15.65 27.1243 15.72 27.0643 15.82C26.9843 15.96 26.9143 16.11 26.8543 16.27C26.7943 16.41 26.7443 16.56 26.7043 16.72L26.6143 16.93C26.5143 17.13 26.4243 17.33 26.3443 17.53C26.2843 17.71 26.2043 17.9 26.1043 18.1C26.0443 18.22 25.9843 18.34 25.9243 18.46C25.8643 18.58 25.7943 18.69 25.7143 18.79C25.6943 18.83 25.6643 18.87 25.6243 18.91C25.5843 19.05 25.5243 19.18 25.4443 19.3C25.3643 19.42 25.2843 19.54 25.2043 19.66C24.9843 20 24.7243 20.32 24.4243 20.62C24.1443 20.92 23.8343 21.2 23.4943 21.46L23.1343 21.67C22.8543 21.81 22.5543 21.93 22.2343 22.03C21.9343 22.13 21.6243 22.2 21.3043 22.24C21.2043 22.26 21.0943 22.26 20.9743 22.24C20.9143 22.24 20.8543 22.24 20.7943 22.24C20.7343 22.24 20.6743 22.26 20.6143 22.3H20.4343ZM42.0019 22.27C41.9419 22.25 41.8719 22.23 41.7919 22.21C41.7319 22.19 41.6719 22.17 41.6119 22.15C41.4519 22.09 41.2919 22.01 41.1319 21.91C41.0519 21.87 40.9919 21.81 40.9519 21.73C40.8119 21.51 40.6819 21.31 40.5619 21.13C40.4419 20.93 40.3119 20.73 40.1719 20.53L39.9019 20.05C39.7619 19.77 39.6219 19.5 39.4819 19.24C39.3419 18.96 39.2019 18.69 39.0619 18.43C39.0219 18.33 38.9719 18.25 38.9119 18.19C38.8719 18.11 38.8319 18.03 38.7919 17.95C38.6519 17.73 38.5219 17.51 38.4019 17.29C38.2819 17.05 38.1619 16.82 38.0419 16.6L37.2919 15.13C37.0919 14.73 36.8919 14.34 36.6919 13.96C36.4919 13.56 36.2919 13.16 36.0919 12.76C36.0519 12.72 36.0119 12.66 35.9719 12.58C35.8919 12.36 35.7919 12.15 35.6719 11.95C35.5719 11.75 35.4719 11.55 35.3719 11.35C35.2919 11.21 35.2219 11.07 35.1619 10.93C35.1019 10.77 35.0319 10.62 34.9519 10.48L34.6219 9.88C34.5819 9.88 34.5519 9.87 34.5319 9.85C34.5319 9.85 34.5219 9.86 34.5019 9.88C34.5019 9.88 34.5019 9.89 34.5019 9.91C34.4819 10.17 34.4619 10.44 34.4419 10.72C34.4219 11 34.4219 11.28 34.4419 11.56C34.4819 11.68 34.4819 11.81 34.4419 11.95C34.4019 12.31 34.4119 12.63 34.4719 12.91C34.4919 12.99 34.4919 13.07 34.4719 13.15C34.4719 13.23 34.4619 13.32 34.4419 13.42C34.4219 13.56 34.4119 13.69 34.4119 13.81C34.4119 13.93 34.4019 14.06 34.3819 14.2C34.4219 14.28 34.4419 14.37 34.4419 14.47C34.4419 14.55 34.4319 14.63 34.4119 14.71C34.3519 14.91 34.3519 15.12 34.4119 15.34C34.4519 15.4 34.4519 15.46 34.4119 15.52C34.3319 15.7 34.3119 15.92 34.3519 16.18C34.4119 16.52 34.3919 16.89 34.2919 17.29C34.2719 17.33 34.2619 17.4 34.2619 17.5C34.2419 17.58 34.2619 17.65 34.3219 17.71C34.4019 17.75 34.4219 17.8 34.3819 17.86C34.3619 18.12 34.3619 18.39 34.3819 18.67C34.3819 18.67 34.3819 18.68 34.3819 18.7C34.3819 18.7 34.3719 18.7 34.3519 18.7C34.3319 18.7 34.3219 18.69 34.3219 18.67C34.3019 18.65 34.2919 18.63 34.2919 18.61C34.2519 18.57 34.2319 18.58 34.2319 18.64C34.2319 18.74 34.2419 18.8 34.2619 18.82C34.3019 18.92 34.3219 19.02 34.3219 19.12C34.3219 19.22 34.3219 19.32 34.3219 19.42V20.35C34.3219 20.41 34.3119 20.47 34.2919 20.53C34.2919 20.59 34.2619 20.64 34.2019 20.68C34.1219 20.7 34.0819 20.77 34.0819 20.89C34.0619 21.11 33.9819 21.3 33.8419 21.46C33.7219 21.62 33.5819 21.76 33.4219 21.88C33.3419 21.94 33.2419 21.98 33.1219 22C33.0219 22 32.9219 21.99 32.8219 21.97L32.2819 21.79C32.2419 21.79 32.2019 21.76 32.1619 21.7C32.1019 21.64 32.0419 21.58 31.9819 21.52C31.9219 21.44 31.8519 21.37 31.7719 21.31C31.6719 21.25 31.6019 21.14 31.5619 20.98C31.5419 20.88 31.5119 20.77 31.4719 20.65C31.4319 20.53 31.4119 20.41 31.4119 20.29C31.4119 20.15 31.4119 20.02 31.4119 19.9C31.4319 19.78 31.4419 19.65 31.4419 19.51C31.4619 19.41 31.4719 19.32 31.4719 19.24C31.4719 19.14 31.4819 19.04 31.5019 18.94V7.96C31.5019 7.86 31.5019 7.76 31.5019 7.66C31.5219 7.56 31.5419 7.47 31.5619 7.39C31.5619 7.29 31.5619 7.19 31.5619 7.09C31.5819 6.99 31.5919 6.89 31.5919 6.79C31.5919 6.67 31.5919 6.55 31.5919 6.43C31.6119 6.31 31.6319 6.2 31.6519 6.1C31.6719 6.02 31.6819 5.95 31.6819 5.89C31.6819 5.83 31.6819 5.76 31.6819 5.68V4.75C31.6819 4.61 31.6919 4.49 31.7119 4.39C31.7519 4.27 31.7819 4.15 31.8019 4.03L31.8919 3.88C31.9519 3.82 32.0019 3.73 32.0419 3.61C32.0819 3.49 32.1419 3.43 32.2219 3.43C32.2819 3.39 32.3419 3.36 32.4019 3.34C32.4619 3.3 32.5019 3.24 32.5219 3.16L32.5519 3.13C32.5719 3.13 32.5919 3.13 32.6119 3.13C32.6319 3.11 32.6519 3.1 32.6719 3.1C32.7519 3.1 32.8119 3.08 32.8519 3.04C32.9119 3 32.9819 2.99 33.0619 3.01C33.1419 3.03 33.2219 3.04 33.3019 3.04C33.3819 3.04 33.4619 3.05 33.5419 3.07C33.9819 3.15 34.2919 3.41 34.4719 3.85L34.6519 4.45C34.6719 4.65 34.7619 4.84 34.9219 5.02C35.0419 5.16 35.1619 5.31 35.2819 5.47C35.4019 5.63 35.5319 5.79 35.6719 5.95C36.1919 6.61 36.6719 7.35 37.1119 8.17C37.1519 8.25 37.1919 8.33 37.2319 8.41C37.2719 8.49 37.3119 8.57 37.3519 8.65L38.9119 11.8C39.0319 12.02 39.1419 12.25 39.2419 12.49C39.3619 12.71 39.4919 12.93 39.6319 13.15C39.6719 13.23 39.7119 13.31 39.7519 13.39C39.7919 13.45 39.8219 13.52 39.8419 13.6C39.9419 13.84 40.0619 14.08 40.2019 14.32C40.2019 14.32 40.2019 14.33 40.2019 14.35C40.2219 14.35 40.2319 14.34 40.2319 14.32C40.2519 14.32 40.2619 14.32 40.2619 14.32C40.2819 14.3 40.2919 14.29 40.2919 14.29L40.3819 13.24V12.94C40.4019 12.84 40.4119 12.74 40.4119 12.64C40.4319 12.52 40.4519 12.41 40.4719 12.31C40.4919 12.25 40.4919 12.18 40.4719 12.1C40.4719 12.02 40.4819 11.94 40.5019 11.86C40.5019 11.74 40.5019 11.62 40.5019 11.5C40.5219 11.36 40.5419 11.23 40.5619 11.11C40.5819 11.05 40.5919 10.99 40.5919 10.93C40.5919 10.85 40.5919 10.78 40.5919 10.72V9.91H40.5619V9.1C40.5619 9 40.5619 8.9 40.5619 8.8C40.5619 8.7 40.5419 8.6 40.5019 8.5C40.4819 8.44 40.4719 8.35 40.4719 8.23L40.5019 8.02C40.5019 7.96 40.4919 7.91 40.4719 7.87C40.4719 7.81 40.4719 7.75 40.4719 7.69C40.4919 7.61 40.4819 7.53 40.4419 7.45C40.4019 7.37 40.3819 7.29 40.3819 7.21C40.4019 7.13 40.4119 7.05 40.4119 6.97C40.4119 6.89 40.4119 6.81 40.4119 6.73C40.4119 6.65 40.3719 6.61 40.2919 6.61C40.2719 6.61 40.2619 6.59 40.2619 6.55C40.2419 6.49 40.2419 6.44 40.2619 6.4C40.3019 6.3 40.3219 6.19 40.3219 6.07C40.3219 5.95 40.3219 5.83 40.3219 5.71V4.84C40.3019 4.72 40.3119 4.6 40.3519 4.48C40.3919 4.36 40.4419 4.25 40.5019 4.15L40.6219 3.97C40.7219 3.87 40.8319 3.77 40.9519 3.67C41.0719 3.57 41.1919 3.47 41.3119 3.37C41.3119 3.37 41.3519 3.35 41.4319 3.31C41.5319 3.29 41.6219 3.27 41.7019 3.25C41.8019 3.23 41.9019 3.23 42.0019 3.25C42.0819 3.25 42.1419 3.26 42.1819 3.28C42.2619 3.32 42.3419 3.37 42.4219 3.43C42.5019 3.47 42.5819 3.52 42.6619 3.58C42.7019 3.6 42.7219 3.62 42.7219 3.64C42.7419 3.66 42.7619 3.68 42.7819 3.7C42.8219 3.74 42.8519 3.79 42.8719 3.85C42.9119 3.89 42.9419 3.93 42.9619 3.97C43.0619 4.05 43.1219 4.15 43.1419 4.27C43.1819 4.37 43.2119 4.47 43.2319 4.57V5.83C43.2319 5.97 43.2319 6.11 43.2319 6.25C43.2519 6.37 43.2719 6.5 43.2919 6.64C43.3119 6.72 43.3219 6.8 43.3219 6.88C43.3219 6.94 43.3219 7.01 43.3219 7.09C43.3219 7.25 43.3219 7.42 43.3219 7.6C43.3419 7.76 43.3519 7.92 43.3519 8.08V8.29C43.3519 8.43 43.3419 8.57 43.3219 8.71C43.3219 8.83 43.3219 8.96 43.3219 9.1V10.42C43.3219 10.62 43.3119 10.83 43.2919 11.05C43.2919 11.25 43.3019 11.46 43.3219 11.68C43.3219 11.76 43.3119 11.82 43.2919 11.86C43.2719 12.06 43.2619 12.26 43.2619 12.46C43.2619 12.64 43.2519 12.83 43.2319 13.03C43.2319 13.11 43.2319 13.2 43.2319 13.3C43.2319 13.4 43.2219 13.5 43.2019 13.6C43.1819 13.68 43.1719 13.76 43.1719 13.84C43.1919 13.92 43.2019 14 43.2019 14.08C43.2419 14.26 43.2519 14.44 43.2319 14.62C43.2319 14.8 43.2219 14.98 43.2019 15.16C43.1819 15.48 43.1619 15.81 43.1419 16.15C43.1419 16.47 43.1619 16.8 43.2019 17.14C43.2019 17.22 43.2019 17.31 43.2019 17.41C43.2219 17.51 43.2319 17.61 43.2319 17.71C43.2119 18.01 43.2219 18.3 43.2619 18.58C43.3219 18.86 43.3819 19.14 43.4419 19.42C43.4819 19.62 43.5219 19.82 43.5619 20.02C43.6019 20.2 43.6319 20.4 43.6519 20.62C43.6519 20.7 43.6419 20.75 43.6219 20.77C43.6019 20.81 43.5819 20.86 43.5619 20.92C43.5419 20.96 43.5319 21 43.5319 21.04C43.5119 21.2 43.4519 21.35 43.3519 21.49C43.2719 21.63 43.1819 21.77 43.0819 21.91C42.8219 22.25 42.4619 22.37 42.0019 22.27ZM51.6954 23.47L51.1854 23.38C50.9254 23.34 50.6554 23.3 50.3754 23.26C50.1154 23.22 49.8454 23.19 49.5654 23.17C49.2854 23.17 49.0054 23.09 48.7254 22.93C48.4654 22.79 48.2854 22.57 48.1854 22.27C48.1654 22.17 48.1354 22.07 48.0954 21.97C48.0754 21.87 48.0554 21.77 48.0354 21.67C48.0354 21.43 48.0854 21.25 48.1854 21.13C48.2854 21.03 48.3654 20.93 48.4254 20.83C48.5054 20.73 48.5854 20.64 48.6654 20.56C48.7054 20.52 48.7454 20.49 48.7854 20.47C48.8254 20.45 48.8654 20.43 48.9054 20.41C49.0054 20.35 49.1054 20.31 49.2054 20.29C49.3054 20.25 49.4054 20.22 49.5054 20.2C49.5454 20.18 49.5754 20.18 49.5954 20.2C49.6354 20.2 49.6654 20.2 49.6854 20.2C49.7854 20.22 49.8954 20.24 50.0154 20.26C50.1354 20.26 50.2454 20.28 50.3454 20.32L51.6054 20.5C51.8854 20.54 52.1354 20.5 52.3554 20.38C52.4354 20.34 52.5054 20.3 52.5654 20.26C52.6454 20.22 52.7154 20.18 52.7754 20.14C53.2154 19.88 53.5954 19.61 53.9154 19.33C54.1554 19.11 54.3854 18.89 54.6054 18.67C54.8254 18.45 55.0254 18.21 55.2054 17.95C55.3454 17.77 55.4354 17.59 55.4754 17.41C55.5154 17.21 55.5254 17.01 55.5054 16.81L55.4154 16.57C55.3954 16.47 55.3554 16.39 55.2954 16.33C55.2354 16.27 55.1754 16.2 55.1154 16.12C54.9954 16.02 54.8754 15.91 54.7554 15.79C54.6554 15.67 54.5454 15.57 54.4254 15.49C54.1254 15.25 53.8254 15.02 53.5254 14.8C53.2454 14.58 52.9554 14.36 52.6554 14.14C52.6354 14.1 52.5754 14.06 52.4754 14.02C52.2954 13.9 52.1154 13.77 51.9354 13.63C51.7754 13.47 51.6154 13.32 51.4554 13.18C51.2554 12.98 51.0354 12.79 50.7954 12.61C50.6754 12.55 50.5654 12.45 50.4654 12.31C50.3854 12.21 50.2654 12.11 50.1054 12.01C49.9654 11.93 49.8354 11.84 49.7154 11.74C49.5954 11.62 49.4754 11.51 49.3554 11.41L48.9654 11.05C48.8854 10.95 48.7954 10.86 48.6954 10.78C48.6154 10.68 48.5254 10.58 48.4254 10.48C48.3854 10.38 48.3254 10.3 48.2454 10.24C48.1854 10.18 48.1254 10.11 48.0654 10.03C48.0454 9.99 48.0154 9.95 47.9754 9.91C47.9354 9.85 47.9054 9.79 47.8854 9.73C47.7654 9.49 47.6354 9.25 47.4954 9.01C47.3754 8.77 47.2654 8.52 47.1654 8.26C47.1054 8.1 47.0454 7.95 46.9854 7.81C46.9454 7.65 46.9054 7.5 46.8654 7.36C46.8454 7.2 46.8054 7.06 46.7454 6.94C46.7054 6.8 46.6654 6.66 46.6254 6.52C46.5854 6.3 46.5354 6.09 46.4754 5.89C46.4354 5.67 46.3954 5.46 46.3554 5.26L46.2954 5.02C46.2754 4.8 46.2754 4.59 46.2954 4.39C46.3354 4.11 46.3954 3.86 46.4754 3.64C46.5554 3.4 46.6854 3.21 46.8654 3.07C47.0654 2.91 47.2654 2.75 47.4654 2.59C47.6654 2.43 47.8754 2.3 48.0954 2.2C48.1354 2.2 48.1654 2.19 48.1854 2.17C48.3854 2.01 48.6054 1.9 48.8454 1.84C49.0854 1.76 49.3254 1.69 49.5654 1.63C50.5254 1.35 51.5154 1.14 52.5354 0.999999H52.8354C53.0354 0.999999 53.2254 0.999999 53.4054 0.999999C53.5854 0.999999 53.7754 0.989999 53.9754 0.969999C54.2154 0.969999 54.4554 0.999999 54.6954 1.06C54.9354 1.1 55.1654 1.17 55.3854 1.27C55.5454 1.35 55.7054 1.44 55.8654 1.54C56.0254 1.62 56.1754 1.71 56.3154 1.81C56.4754 1.93 56.5754 2.06 56.6154 2.2L56.7054 2.41C56.8054 2.59 56.8554 2.78 56.8554 2.98C56.8754 3.16 56.8654 3.35 56.8254 3.55C56.8254 3.61 56.8154 3.68 56.7954 3.76C56.7954 3.82 56.7954 3.88 56.7954 3.94C56.7354 4.38 56.5254 4.72 56.1654 4.96C55.9454 5.16 55.6554 5.24 55.2954 5.2C55.2154 5.16 55.1754 5.18 55.1754 5.26C55.1754 5.34 55.1254 5.38 55.0254 5.38H54.8454C54.7254 5.38 54.6054 5.32 54.4854 5.2C54.3854 5.1 54.3354 5.02 54.3354 4.96C54.3354 4.88 54.3754 4.82 54.4554 4.78C54.4154 4.68 54.3754 4.59 54.3354 4.51C54.2954 4.43 54.2554 4.37 54.2154 4.33C54.1554 4.23 54.0654 4.16 53.9454 4.12C53.8454 4.1 53.7454 4.08 53.6454 4.06C53.5454 4.04 53.4454 4.02 53.3454 4C53.2654 4 53.1754 4 53.0754 4C52.9754 3.98 52.8754 3.96 52.7754 3.94C52.7154 3.92 52.6254 3.93 52.5054 3.97C52.4454 3.99 52.3854 4.01 52.3254 4.03C52.2654 4.03 52.1954 4.02 52.1154 4C52.0554 4 51.9854 4 51.9054 4C51.8454 4 51.7754 4.02 51.6954 4.06L51.1254 4.15C50.8054 4.21 50.4954 4.33 50.1954 4.51C50.1354 4.53 50.0754 4.55 50.0154 4.57C49.9554 4.59 49.8954 4.59 49.8354 4.57C49.7154 4.55 49.6154 4.58 49.5354 4.66C49.5154 4.7 49.4654 4.73 49.3854 4.75C49.3254 4.75 49.2754 4.77 49.2354 4.81C49.1554 4.89 49.1154 4.97 49.1154 5.05C49.1354 5.09 49.1454 5.15 49.1454 5.23L49.7754 7.06C49.8954 7.38 50.0454 7.68 50.2254 7.96C50.4254 8.22 50.6354 8.48 50.8554 8.74C51.1954 9.14 51.5454 9.48 51.9054 9.76L52.8654 10.57C53.0654 10.75 53.2754 10.92 53.4954 11.08C53.7154 11.24 53.9254 11.4 54.1254 11.56C54.4254 11.78 54.7254 12.01 55.0254 12.25C55.3254 12.47 55.6254 12.7 55.9254 12.94C56.1654 13.14 56.3954 13.34 56.6154 13.54C56.8554 13.72 57.0754 13.92 57.2754 14.14C57.4154 14.3 57.5554 14.46 57.6954 14.62C57.8354 14.78 57.9554 14.96 58.0554 15.16C58.1954 15.38 58.3154 15.64 58.4154 15.94C58.5354 16.32 58.5854 16.68 58.5654 17.02C58.5454 17.06 58.5354 17.12 58.5354 17.2C58.5354 17.44 58.5054 17.67 58.4454 17.89C58.4054 18.09 58.3354 18.3 58.2354 18.52C58.1354 18.72 58.0254 18.93 57.9054 19.15C57.8054 19.35 57.6854 19.55 57.5454 19.75C57.3454 20.01 57.1354 20.26 56.9154 20.5C56.7154 20.72 56.4854 20.94 56.2254 21.16C56.0854 21.28 55.9454 21.41 55.8054 21.55C55.6654 21.67 55.5154 21.78 55.3554 21.88C55.2554 21.96 55.1554 22.03 55.0554 22.09C54.9554 22.17 54.8554 22.25 54.7554 22.33C54.6754 22.37 54.5954 22.42 54.5154 22.48C54.4354 22.54 54.3554 22.6 54.2754 22.66C54.1954 22.74 54.0954 22.8 53.9754 22.84C53.8754 22.9 53.7754 22.95 53.6754 22.99L52.8054 23.35C52.6254 23.41 52.4454 23.45 52.2654 23.47C52.0854 23.49 51.8954 23.49 51.6954 23.47ZM73.456 22.72C73.276 22.74 73.106 22.74 72.946 22.72C72.786 22.7 72.626 22.62 72.466 22.48C72.426 22.44 72.366 22.4 72.286 22.36C72.186 22.3 72.126 22.23 72.106 22.15C72.086 22.07 72.046 22.01 71.986 21.97C71.926 21.91 71.886 21.84 71.866 21.76C71.846 21.7 71.836 21.64 71.836 21.58C71.856 21.5 71.866 21.43 71.866 21.37C71.866 21.31 71.856 21.25 71.836 21.19C71.836 21.13 71.836 21.07 71.836 21.01C71.776 20.71 71.716 20.41 71.656 20.11C71.596 19.79 71.546 19.48 71.506 19.18C71.486 19.04 71.466 18.9 71.446 18.76C71.426 18.62 71.406 18.48 71.386 18.34C71.366 18.08 71.336 17.82 71.296 17.56C71.276 17.3 71.246 17.04 71.206 16.78C71.166 16.62 71.146 16.48 71.146 16.36C71.146 16.2 71.136 16.05 71.116 15.91C71.096 15.75 71.076 15.6 71.056 15.46C71.036 15.34 70.966 15.28 70.846 15.28L70.636 15.25C70.536 15.23 70.426 15.22 70.306 15.22C70.186 15.22 70.066 15.21 69.946 15.19H69.646C69.606 15.21 69.546 15.22 69.466 15.22C69.386 15.22 69.306 15.22 69.226 15.22C69.166 15.2 69.086 15.2 68.986 15.22C68.906 15.22 68.826 15.23 68.746 15.25C68.686 15.25 68.606 15.24 68.506 15.22C68.486 15.2 68.446 15.2 68.386 15.22C68.346 15.22 68.306 15.22 68.266 15.22C68.166 15.22 68.056 15.23 67.936 15.25C67.836 15.25 67.736 15.25 67.636 15.25C67.576 15.25 67.516 15.25 67.456 15.25C67.396 15.25 67.336 15.26 67.276 15.28C67.136 15.3 66.996 15.32 66.856 15.34C66.716 15.34 66.576 15.34 66.436 15.34C66.236 15.32 66.036 15.32 65.836 15.34C65.636 15.36 65.436 15.38 65.236 15.4H65.146C65.046 15.44 64.996 15.5 64.996 15.58C64.996 15.6 64.986 15.62 64.966 15.64C64.966 15.64 64.966 15.65 64.966 15.67C64.966 15.77 64.976 15.85 64.996 15.91C65.016 16.05 65.036 16.2 65.056 16.36C65.076 16.5 65.096 16.65 65.116 16.81L65.206 17.53C65.226 17.73 65.256 17.93 65.296 18.13C65.336 18.31 65.366 18.49 65.386 18.67C65.406 18.69 65.416 18.72 65.416 18.76C65.416 18.78 65.426 18.81 65.446 18.85C65.486 18.95 65.506 19.06 65.506 19.18C65.506 19.3 65.506 19.42 65.506 19.54C65.546 19.56 65.536 19.6 65.476 19.66C65.456 19.7 65.436 19.74 65.416 19.78C65.396 19.82 65.386 19.86 65.386 19.9C65.326 20.1 65.196 20.29 64.996 20.47C64.796 20.63 64.606 20.72 64.426 20.74C64.406 20.74 64.386 20.75 64.366 20.77C64.346 20.77 64.316 20.77 64.276 20.77C64.016 20.83 63.736 20.81 63.436 20.71L63.346 20.65C63.326 20.57 63.286 20.51 63.226 20.47C63.166 20.43 63.116 20.39 63.076 20.35C63.036 20.29 62.986 20.24 62.926 20.2C62.886 20.14 62.856 20.07 62.836 19.99C62.836 19.97 62.826 19.96 62.806 19.96C62.726 19.86 62.676 19.75 62.656 19.63C62.636 19.51 62.616 19.39 62.596 19.27L62.506 18.79C62.486 18.61 62.456 18.43 62.416 18.25C62.396 18.05 62.376 17.85 62.356 17.65L62.176 16.48C62.156 16.34 62.136 16.2 62.116 16.06C62.096 15.9 62.076 15.75 62.056 15.61L61.966 14.65C61.946 14.45 61.926 14.25 61.906 14.05C61.886 13.85 61.856 13.65 61.816 13.45V13.18C61.816 13.02 61.806 12.86 61.786 12.7C61.786 12.54 61.776 12.39 61.756 12.25C61.736 12.19 61.726 12.13 61.726 12.07C61.726 12.01 61.726 11.95 61.726 11.89C61.726 11.79 61.716 11.7 61.696 11.62C61.696 11.52 61.686 11.42 61.666 11.32L61.576 10.69C61.556 10.47 61.516 10.24 61.456 10C61.416 9.76 61.356 9.53 61.276 9.31C61.236 9.19 61.186 9.07 61.126 8.95C61.066 8.81 61.016 8.67 60.976 8.53C60.936 8.37 60.896 8.26 60.856 8.2C60.796 8 60.796 7.81 60.856 7.63L61.036 7.18C61.056 7.1 61.116 7.03 61.216 6.97C61.256 6.91 61.306 6.86 61.366 6.82C61.426 6.76 61.486 6.71 61.546 6.67C61.586 6.65 61.636 6.64 61.696 6.64C61.756 6.66 61.836 6.65 61.936 6.61L62.026 6.55C62.206 6.45 62.386 6.45 62.566 6.55C62.666 6.59 62.766 6.63 62.866 6.67C62.986 6.71 63.086 6.78 63.166 6.88C63.286 6.9 63.366 6.99 63.406 7.15L63.676 7.75C63.836 8.09 63.976 8.44 64.096 8.8C64.216 9.16 64.296 9.54 64.336 9.94C64.356 10.08 64.376 10.23 64.396 10.39C64.436 10.53 64.466 10.68 64.486 10.84V11.08C64.486 11.18 64.496 11.25 64.516 11.29C64.536 11.43 64.546 11.58 64.546 11.74C64.566 11.9 64.576 12.06 64.576 12.22V12.28C64.596 12.38 64.656 12.45 64.756 12.49C64.816 12.51 64.876 12.53 64.936 12.55C64.996 12.55 65.056 12.55 65.116 12.55C65.216 12.53 65.296 12.53 65.356 12.55C65.436 12.55 65.516 12.55 65.596 12.55C65.736 12.55 65.866 12.55 65.986 12.55C66.106 12.53 66.236 12.52 66.376 12.52H66.736C66.796 12.52 66.856 12.53 66.916 12.55C66.996 12.55 67.066 12.54 67.126 12.52C67.166 12.52 67.196 12.52 67.216 12.52C67.256 12.5 67.286 12.49 67.306 12.49C67.506 12.51 67.706 12.52 67.906 12.52C68.106 12.5 68.306 12.49 68.506 12.49C68.706 12.51 68.906 12.52 69.106 12.52C69.306 12.5 69.506 12.49 69.706 12.49C69.866 12.49 70.016 12.5 70.156 12.52C70.316 12.52 70.466 12.52 70.606 12.52C70.746 12.52 70.816 12.46 70.816 12.34C70.816 12.24 70.816 12.13 70.816 12.01C70.816 11.89 70.806 11.78 70.786 11.68C70.766 11.46 70.746 11.26 70.726 11.08C70.726 10.88 70.716 10.68 70.696 10.48C70.676 10.2 70.666 9.93 70.666 9.67C70.686 9.39 70.676 9.12 70.636 8.86C70.616 8.64 70.596 8.42 70.576 8.2C70.576 7.98 70.556 7.77 70.516 7.57V7.15C70.516 7.07 70.526 7.01 70.546 6.97C70.546 6.93 70.546 6.9 70.546 6.88C70.566 6.84 70.576 6.81 70.576 6.79C70.576 6.69 70.556 6.63 70.516 6.61L70.426 6.55C70.306 6.47 70.286 6.38 70.366 6.28C70.426 6.2 70.436 6.11 70.396 6.01C70.396 5.95 70.406 5.91 70.426 5.89C70.466 5.83 70.506 5.77 70.546 5.71C70.586 5.65 70.616 5.58 70.636 5.5C70.696 5.28 70.786 5.18 70.906 5.2C71.046 5.2 71.136 5.22 71.176 5.26C71.196 5.28 71.216 5.29 71.236 5.29C71.256 5.27 71.266 5.25 71.266 5.23C71.266 5.11 71.326 5.04 71.446 5.02C71.566 5 71.656 4.98 71.716 4.96L71.896 4.84H71.986C72.086 4.88 72.166 4.93 72.226 4.99C72.306 5.03 72.386 5.07 72.466 5.11C72.506 5.13 72.556 5.17 72.616 5.23C72.756 5.41 72.856 5.64 72.916 5.92C72.956 6.12 72.996 6.31 73.036 6.49C73.076 6.67 73.106 6.86 73.126 7.06C73.126 7.1 73.126 7.14 73.126 7.18C73.146 7.22 73.156 7.26 73.156 7.3L73.186 7.51C73.186 7.75 73.196 7.99 73.216 8.23C73.256 8.45 73.286 8.68 73.306 8.92C73.326 8.94 73.336 8.98 73.336 9.04C73.316 9.18 73.306 9.32 73.306 9.46C73.326 9.58 73.346 9.72 73.366 9.88C73.386 10.02 73.396 10.18 73.396 10.36C73.416 10.52 73.426 10.68 73.426 10.84C73.426 10.94 73.426 11.05 73.426 11.17C73.446 11.29 73.466 11.4 73.486 11.5C73.506 11.6 73.516 11.7 73.516 11.8C73.516 11.9 73.516 12 73.516 12.1C73.516 12.2 73.516 12.3 73.516 12.4C73.536 12.48 73.556 12.57 73.576 12.67V12.79C73.596 13.03 73.616 13.27 73.636 13.51C73.676 13.73 73.706 13.96 73.726 14.2C73.746 14.22 73.756 14.26 73.756 14.32C73.756 14.54 73.776 14.77 73.816 15.01C73.856 15.23 73.886 15.45 73.906 15.67L73.996 16.72C73.996 16.74 73.996 16.78 73.996 16.84C74.016 16.88 74.026 16.92 74.026 16.96C74.046 17 74.056 17.08 74.056 17.2C74.056 17.38 74.066 17.56 74.086 17.74C74.126 17.92 74.156 18.1 74.176 18.28C74.216 18.48 74.246 18.68 74.266 18.88C74.286 19.08 74.316 19.29 74.356 19.51C74.396 19.75 74.446 19.99 74.506 20.23C74.566 20.47 74.616 20.71 74.656 20.95C74.676 21.03 74.686 21.12 74.686 21.22C74.706 21.3 74.716 21.39 74.716 21.49C74.716 21.59 74.686 21.69 74.626 21.79C74.606 21.81 74.586 21.85 74.566 21.91C74.566 21.95 74.546 21.99 74.506 22.03C74.486 22.05 74.476 22.07 74.476 22.09C74.476 22.11 74.466 22.12 74.446 22.12C74.366 22.14 74.296 22.19 74.236 22.27C74.176 22.35 74.106 22.41 74.026 22.45C73.946 22.53 73.836 22.59 73.696 22.63L73.456 22.72ZM80.3354 22.3C80.2154 22.3 80.1354 22.29 80.0954 22.27C80.0154 22.23 79.9454 22.2 79.8854 22.18C79.8254 22.16 79.7654 22.14 79.7054 22.12C79.6454 22.08 79.5854 22.04 79.5254 22C79.4854 21.94 79.4454 21.88 79.4054 21.82C79.3654 21.78 79.3254 21.76 79.2854 21.76C79.1654 21.76 79.1054 21.7 79.1054 21.58C79.0854 21.46 79.0654 21.34 79.0454 21.22C79.0254 21.1 79.0054 20.98 78.9854 20.86C78.9654 20.68 78.9454 20.5 78.9254 20.32C78.9254 20.14 78.9054 19.97 78.8654 19.81V19.54C78.8654 19.46 78.8554 19.39 78.8354 19.33C78.8354 19.27 78.8354 19.2 78.8354 19.12C78.7954 19.02 78.7954 18.94 78.8354 18.88C78.8754 18.52 78.8754 18.16 78.8354 17.8C78.8154 17.7 78.8054 17.6 78.8054 17.5C78.8054 17.4 78.7954 17.3 78.7754 17.2C78.7754 17 78.7754 16.8 78.7754 16.6C78.7754 16.38 78.7554 16.17 78.7154 15.97V15.49C78.7154 15.33 78.7054 15.18 78.6854 15.04C78.6854 14.9 78.6754 14.76 78.6554 14.62C78.6354 14.44 78.6154 14.26 78.5954 14.08C78.5954 13.9 78.5854 13.72 78.5654 13.54C78.5454 13.5 78.5354 13.43 78.5354 13.33C78.5154 13.23 78.4954 13.13 78.4754 13.03C78.4754 12.91 78.4754 12.8 78.4754 12.7L78.3854 11.2C78.3654 11.04 78.3454 10.89 78.3254 10.75C78.3254 10.59 78.3254 10.44 78.3254 10.3C78.3054 10.06 78.2854 9.82 78.2654 9.58C78.2454 9.34 78.2254 9.11 78.2054 8.89C78.2054 8.85 78.1954 8.81 78.1754 8.77C78.1754 8.73 78.1754 8.7 78.1754 8.68C78.1754 8.44 78.1654 8.2 78.1454 7.96C78.1254 7.72 78.1054 7.47 78.0854 7.21L77.9954 6.37C77.9354 6.05 77.9254 5.7 77.9654 5.32C77.9654 5.14 78.0354 4.99 78.1754 4.87C78.2154 4.83 78.2454 4.81 78.2654 4.81C78.2854 4.79 78.3054 4.77 78.3254 4.75C78.4254 4.73 78.4754 4.66 78.4754 4.54C78.4754 4.5 78.5154 4.48 78.5954 4.48H78.7454C78.7654 4.48 78.7754 4.48 78.7754 4.48C78.7954 4.46 78.8154 4.45 78.8354 4.45C78.8754 4.43 78.9054 4.41 78.9254 4.39C78.9654 4.35 78.9954 4.33 79.0154 4.33C79.0554 4.33 79.0954 4.34 79.1354 4.36C79.1754 4.36 79.2154 4.37 79.2554 4.39C79.2954 4.39 79.3254 4.38 79.3454 4.36C79.4454 4.34 79.5454 4.35 79.6454 4.39C79.7654 4.41 79.8654 4.44 79.9454 4.48C80.0654 4.5 80.1554 4.58 80.2154 4.72C80.2754 4.9 80.3254 5.08 80.3654 5.26C80.4254 5.42 80.4654 5.59 80.4854 5.77V6.01C80.5254 6.15 80.5454 6.3 80.5454 6.46C80.5454 6.6 80.5454 6.75 80.5454 6.91C80.5454 7.05 80.5454 7.19 80.5454 7.33C80.5654 7.45 80.5854 7.57 80.6054 7.69C80.6054 7.75 80.6054 7.81 80.6054 7.87C80.6054 7.93 80.6154 7.99 80.6354 8.05C80.6354 8.17 80.6354 8.29 80.6354 8.41C80.6554 8.53 80.6754 8.66 80.6954 8.8C80.7154 9.02 80.7354 9.25 80.7554 9.49C80.7754 9.73 80.7854 9.97 80.7854 10.21C80.7854 10.31 80.7854 10.42 80.7854 10.54C80.7854 10.64 80.7954 10.74 80.8154 10.84C80.8354 10.9 80.8454 10.96 80.8454 11.02C80.8454 11.08 80.8454 11.14 80.8454 11.2V11.8C80.8454 11.92 80.8554 12.02 80.8754 12.1C80.9154 12.24 80.9254 12.38 80.9054 12.52C80.9054 12.64 80.9154 12.77 80.9354 12.91L81.0254 14.29C81.0454 14.49 81.0554 14.7 81.0554 14.92C81.0754 15.12 81.0854 15.33 81.0854 15.55C81.0854 15.63 81.0854 15.72 81.0854 15.82C81.0854 15.9 81.0954 15.98 81.1154 16.06C81.1354 16.12 81.1454 16.18 81.1454 16.24C81.1454 16.3 81.1454 16.36 81.1454 16.42C81.1654 16.44 81.1654 16.48 81.1454 16.54C81.1454 16.58 81.1554 16.62 81.1754 16.66C81.2154 16.8 81.2354 16.94 81.2354 17.08C81.2354 17.22 81.2354 17.37 81.2354 17.53C81.2354 17.61 81.2354 17.7 81.2354 17.8C81.2554 17.88 81.2654 17.97 81.2654 18.07C81.2854 18.17 81.2954 18.28 81.2954 18.4C81.2954 18.52 81.2954 18.63 81.2954 18.73C81.3154 18.83 81.3254 18.94 81.3254 19.06C81.3254 19.16 81.3354 19.26 81.3554 19.36C81.3754 19.4 81.3854 19.44 81.3854 19.48C81.3854 19.7 81.4054 19.92 81.4454 20.14C81.4854 20.36 81.5254 20.58 81.5654 20.8C81.5854 20.86 81.5954 20.93 81.5954 21.01C81.5954 21.07 81.5954 21.13 81.5954 21.19C81.5954 21.25 81.5754 21.3 81.5354 21.34C81.4554 21.4 81.3954 21.52 81.3554 21.7C81.3554 21.76 81.3254 21.81 81.2654 21.85C81.1254 21.91 81.0054 21.99 80.9054 22.09C80.7454 22.23 80.5554 22.3 80.3354 22.3ZM95.7617 22.27C95.7017 22.25 95.6317 22.23 95.5517 22.21C95.4917 22.19 95.4317 22.17 95.3717 22.15C95.2117 22.09 95.0517 22.01 94.8917 21.91C94.8117 21.87 94.7517 21.81 94.7117 21.73C94.5717 21.51 94.4417 21.31 94.3217 21.13C94.2017 20.93 94.0717 20.73 93.9317 20.53L93.6617 20.05C93.5217 19.77 93.3817 19.5 93.2417 19.24C93.1017 18.96 92.9617 18.69 92.8217 18.43C92.7817 18.33 92.7317 18.25 92.6717 18.19C92.6317 18.11 92.5917 18.03 92.5517 17.95C92.4117 17.73 92.2817 17.51 92.1617 17.29C92.0417 17.05 91.9217 16.82 91.8017 16.6L91.0517 15.13C90.8517 14.73 90.6517 14.34 90.4517 13.96C90.2517 13.56 90.0517 13.16 89.8517 12.76C89.8117 12.72 89.7717 12.66 89.7317 12.58C89.6517 12.36 89.5517 12.15 89.4317 11.95C89.3317 11.75 89.2317 11.55 89.1317 11.35C89.0517 11.21 88.9817 11.07 88.9217 10.93C88.8617 10.77 88.7917 10.62 88.7117 10.48L88.3817 9.88C88.3417 9.88 88.3117 9.87 88.2917 9.85C88.2917 9.85 88.2817 9.86 88.2617 9.88C88.2617 9.88 88.2617 9.89 88.2617 9.91C88.2417 10.17 88.2217 10.44 88.2017 10.72C88.1817 11 88.1817 11.28 88.2017 11.56C88.2417 11.68 88.2417 11.81 88.2017 11.95C88.1617 12.31 88.1717 12.63 88.2317 12.91C88.2517 12.99 88.2517 13.07 88.2317 13.15C88.2317 13.23 88.2217 13.32 88.2017 13.42C88.1817 13.56 88.1717 13.69 88.1717 13.81C88.1717 13.93 88.1617 14.06 88.1417 14.2C88.1817 14.28 88.2017 14.37 88.2017 14.47C88.2017 14.55 88.1917 14.63 88.1717 14.71C88.1117 14.91 88.1117 15.12 88.1717 15.34C88.2117 15.4 88.2117 15.46 88.1717 15.52C88.0917 15.7 88.0717 15.92 88.1117 16.18C88.1717 16.52 88.1517 16.89 88.0517 17.29C88.0317 17.33 88.0217 17.4 88.0217 17.5C88.0017 17.58 88.0217 17.65 88.0817 17.71C88.1617 17.75 88.1817 17.8 88.1417 17.86C88.1217 18.12 88.1217 18.39 88.1417 18.67C88.1417 18.67 88.1417 18.68 88.1417 18.7C88.1417 18.7 88.1317 18.7 88.1117 18.7C88.0917 18.7 88.0817 18.69 88.0817 18.67C88.0617 18.65 88.0517 18.63 88.0517 18.61C88.0117 18.57 87.9917 18.58 87.9917 18.64C87.9917 18.74 88.0017 18.8 88.0217 18.82C88.0617 18.92 88.0817 19.02 88.0817 19.12C88.0817 19.22 88.0817 19.32 88.0817 19.42V20.35C88.0817 20.41 88.0717 20.47 88.0517 20.53C88.0517 20.59 88.0217 20.64 87.9617 20.68C87.8817 20.7 87.8417 20.77 87.8417 20.89C87.8217 21.11 87.7417 21.3 87.6017 21.46C87.4817 21.62 87.3417 21.76 87.1817 21.88C87.1017 21.94 87.0017 21.98 86.8817 22C86.7817 22 86.6817 21.99 86.5817 21.97L86.0417 21.79C86.0017 21.79 85.9617 21.76 85.9217 21.7C85.8617 21.64 85.8017 21.58 85.7417 21.52C85.6817 21.44 85.6117 21.37 85.5317 21.31C85.4317 21.25 85.3617 21.14 85.3217 20.98C85.3017 20.88 85.2717 20.77 85.2317 20.65C85.1917 20.53 85.1717 20.41 85.1717 20.29C85.1717 20.15 85.1717 20.02 85.1717 19.9C85.1917 19.78 85.2017 19.65 85.2017 19.51C85.2217 19.41 85.2317 19.32 85.2317 19.24C85.2317 19.14 85.2417 19.04 85.2617 18.94V7.96C85.2617 7.86 85.2617 7.76 85.2617 7.66C85.2817 7.56 85.3017 7.47 85.3217 7.39C85.3217 7.29 85.3217 7.19 85.3217 7.09C85.3417 6.99 85.3517 6.89 85.3517 6.79C85.3517 6.67 85.3517 6.55 85.3517 6.43C85.3717 6.31 85.3917 6.2 85.4117 6.1C85.4317 6.02 85.4417 5.95 85.4417 5.89C85.4417 5.83 85.4417 5.76 85.4417 5.68V4.75C85.4417 4.61 85.4517 4.49 85.4717 4.39C85.5117 4.27 85.5417 4.15 85.5617 4.03L85.6517 3.88C85.7117 3.82 85.7617 3.73 85.8017 3.61C85.8417 3.49 85.9017 3.43 85.9817 3.43C86.0417 3.39 86.1017 3.36 86.1617 3.34C86.2217 3.3 86.2617 3.24 86.2817 3.16L86.3117 3.13C86.3317 3.13 86.3517 3.13 86.3717 3.13C86.3917 3.11 86.4117 3.1 86.4317 3.1C86.5117 3.1 86.5717 3.08 86.6117 3.04C86.6717 3 86.7417 2.99 86.8217 3.01C86.9017 3.03 86.9817 3.04 87.0617 3.04C87.1417 3.04 87.2217 3.05 87.3017 3.07C87.7417 3.15 88.0517 3.41 88.2317 3.85L88.4117 4.45C88.4317 4.65 88.5217 4.84 88.6817 5.02C88.8017 5.16 88.9217 5.31 89.0417 5.47C89.1617 5.63 89.2917 5.79 89.4317 5.95C89.9517 6.61 90.4317 7.35 90.8717 8.17C90.9117 8.25 90.9517 8.33 90.9917 8.41C91.0317 8.49 91.0717 8.57 91.1117 8.65L92.6717 11.8C92.7917 12.02 92.9017 12.25 93.0017 12.49C93.1217 12.71 93.2517 12.93 93.3917 13.15C93.4317 13.23 93.4717 13.31 93.5117 13.39C93.5517 13.45 93.5817 13.52 93.6017 13.6C93.7017 13.84 93.8217 14.08 93.9617 14.32C93.9617 14.32 93.9617 14.33 93.9617 14.35C93.9817 14.35 93.9917 14.34 93.9917 14.32C94.0117 14.32 94.0217 14.32 94.0217 14.32C94.0417 14.3 94.0517 14.29 94.0517 14.29L94.1417 13.24V12.94C94.1617 12.84 94.1717 12.74 94.1717 12.64C94.1917 12.52 94.2117 12.41 94.2317 12.31C94.2517 12.25 94.2517 12.18 94.2317 12.1C94.2317 12.02 94.2417 11.94 94.2617 11.86C94.2617 11.74 94.2617 11.62 94.2617 11.5C94.2817 11.36 94.3017 11.23 94.3217 11.11C94.3417 11.05 94.3517 10.99 94.3517 10.93C94.3517 10.85 94.3517 10.78 94.3517 10.72V9.91H94.3217V9.1C94.3217 9 94.3217 8.9 94.3217 8.8C94.3217 8.7 94.3017 8.6 94.2617 8.5C94.2417 8.44 94.2317 8.35 94.2317 8.23L94.2617 8.02C94.2617 7.96 94.2517 7.91 94.2317 7.87C94.2317 7.81 94.2317 7.75 94.2317 7.69C94.2517 7.61 94.2417 7.53 94.2017 7.45C94.1617 7.37 94.1417 7.29 94.1417 7.21C94.1617 7.13 94.1717 7.05 94.1717 6.97C94.1717 6.89 94.1717 6.81 94.1717 6.73C94.1717 6.65 94.1317 6.61 94.0517 6.61C94.0317 6.61 94.0217 6.59 94.0217 6.55C94.0017 6.49 94.0017 6.44 94.0217 6.4C94.0617 6.3 94.0817 6.19 94.0817 6.07C94.0817 5.95 94.0817 5.83 94.0817 5.71V4.84C94.0617 4.72 94.0717 4.6 94.1117 4.48C94.1517 4.36 94.2017 4.25 94.2617 4.15L94.3817 3.97C94.4817 3.87 94.5917 3.77 94.7117 3.67C94.8317 3.57 94.9517 3.47 95.0717 3.37C95.0717 3.37 95.1117 3.35 95.1917 3.31C95.2917 3.29 95.3817 3.27 95.4617 3.25C95.5617 3.23 95.6617 3.23 95.7617 3.25C95.8417 3.25 95.9017 3.26 95.9417 3.28C96.0217 3.32 96.1017 3.37 96.1817 3.43C96.2617 3.47 96.3417 3.52 96.4217 3.58C96.4617 3.6 96.4817 3.62 96.4817 3.64C96.5017 3.66 96.5217 3.68 96.5417 3.7C96.5817 3.74 96.6117 3.79 96.6317 3.85C96.6717 3.89 96.7017 3.93 96.7217 3.97C96.8217 4.05 96.8817 4.15 96.9017 4.27C96.9417 4.37 96.9717 4.47 96.9917 4.57V5.83C96.9917 5.97 96.9917 6.11 96.9917 6.25C97.0117 6.37 97.0317 6.5 97.0517 6.64C97.0717 6.72 97.0817 6.8 97.0817 6.88C97.0817 6.94 97.0817 7.01 97.0817 7.09C97.0817 7.25 97.0817 7.42 97.0817 7.6C97.1017 7.76 97.1117 7.92 97.1117 8.08V8.29C97.1117 8.43 97.1017 8.57 97.0817 8.71C97.0817 8.83 97.0817 8.96 97.0817 9.1V10.42C97.0817 10.62 97.0717 10.83 97.0517 11.05C97.0517 11.25 97.0617 11.46 97.0817 11.68C97.0817 11.76 97.0717 11.82 97.0517 11.86C97.0317 12.06 97.0217 12.26 97.0217 12.46C97.0217 12.64 97.0117 12.83 96.9917 13.03C96.9917 13.11 96.9917 13.2 96.9917 13.3C96.9917 13.4 96.9817 13.5 96.9617 13.6C96.9417 13.68 96.9317 13.76 96.9317 13.84C96.9517 13.92 96.9617 14 96.9617 14.08C97.0017 14.26 97.0117 14.44 96.9917 14.62C96.9917 14.8 96.9817 14.98 96.9617 15.16C96.9417 15.48 96.9217 15.81 96.9017 16.15C96.9017 16.47 96.9217 16.8 96.9617 17.14C96.9617 17.22 96.9617 17.31 96.9617 17.41C96.9817 17.51 96.9917 17.61 96.9917 17.71C96.9717 18.01 96.9817 18.3 97.0217 18.58C97.0817 18.86 97.1417 19.14 97.2017 19.42C97.2417 19.62 97.2817 19.82 97.3217 20.02C97.3617 20.2 97.3917 20.4 97.4117 20.62C97.4117 20.7 97.4017 20.75 97.3817 20.77C97.3617 20.81 97.3417 20.86 97.3217 20.92C97.3017 20.96 97.2917 21 97.2917 21.04C97.2717 21.2 97.2117 21.35 97.1117 21.49C97.0317 21.63 96.9417 21.77 96.8417 21.91C96.5817 22.25 96.2217 22.37 95.7617 22.27ZM104.267 22.21C104.147 22.21 104.067 22.2 104.027 22.18C103.927 22.14 103.827 22.12 103.727 22.12C103.647 22.14 103.557 22.15 103.457 22.15C103.437 22.15 103.417 22.15 103.397 22.15C103.377 22.17 103.357 22.18 103.337 22.18C103.197 22.2 103.057 22.21 102.917 22.21C102.797 22.21 102.677 22.19 102.557 22.15C102.537 22.13 102.517 22.12 102.497 22.12C102.357 22.14 102.237 22.1 102.137 22C102.037 21.9 101.937 21.81 101.837 21.73C101.737 21.63 101.687 21.52 101.687 21.4L101.597 21.16C101.537 21.02 101.517 20.89 101.537 20.77C101.557 20.73 101.557 20.69 101.537 20.65C101.537 20.61 101.537 20.57 101.537 20.53C101.517 20.49 101.507 20.45 101.507 20.41C101.507 20.35 101.497 20.3 101.477 20.26C101.437 20.08 101.407 19.9 101.387 19.72C101.387 19.52 101.397 19.33 101.417 19.15C101.437 19.03 101.507 18.83 101.627 18.55C101.747 18.25 101.817 18.07 101.837 18.01C101.897 17.91 101.927 17.83 101.927 17.77C101.907 17.55 101.897 17.33 101.897 17.11C101.917 16.87 101.927 16.64 101.927 16.42C101.927 16.28 101.957 16.17 102.017 16.09C102.097 15.95 102.107 15.8 102.047 15.64L101.957 15.31C101.837 15.09 101.847 14.9 101.987 14.74C101.987 14.72 101.987 14.71 101.987 14.71C102.007 14.69 102.017 14.67 102.017 14.65C102.057 14.61 102.067 14.56 102.047 14.5C102.027 14.42 102.017 14.36 102.017 14.32C102.017 14.24 102.027 14.16 102.047 14.08C102.087 13.98 102.097 13.89 102.077 13.81C102.077 13.81 102.057 13.79 102.017 13.75C101.997 13.71 101.987 13.63 101.987 13.51C102.007 13.39 102.017 13.32 102.017 13.3V12.46C102.037 12.36 102.047 12.27 102.047 12.19C102.047 12.09 102.057 11.99 102.077 11.89C102.097 11.77 102.097 11.65 102.077 11.53C102.077 11.39 102.077 11.25 102.077 11.11C102.057 11.01 102.037 10.9 102.017 10.78C102.017 10.66 102.017 10.54 102.017 10.42C101.997 10.38 101.987 10.33 101.987 10.27C101.987 10.21 101.987 10.16 101.987 10.12C101.967 10.02 101.947 9.92 101.927 9.82C101.927 9.72 101.927 9.62 101.927 9.52C101.927 9.48 101.887 9.35 101.807 9.13C101.727 8.89 101.697 8.69 101.717 8.53C101.737 8.49 101.747 8.44 101.747 8.38C101.747 8.32 101.727 8.27 101.687 8.23C101.647 8.21 101.627 8.17 101.627 8.11V8.02C101.687 7.78 101.657 7.54 101.537 7.3C101.457 7.18 101.427 7.06 101.447 6.94C101.447 6.78 101.377 6.66 101.237 6.58C101.137 6.48 101.047 6.36 100.967 6.22C100.887 6.08 100.837 5.94 100.817 5.8C100.797 5.7 100.787 5.6 100.787 5.5C100.787 5.4 100.787 5.31 100.787 5.23C100.787 5.15 100.797 5.1 100.817 5.08C100.897 5 100.937 4.91 100.937 4.81C100.937 4.69 100.947 4.6 100.967 4.54C100.987 4.52 101.007 4.51 101.027 4.51C101.047 4.51 101.067 4.5 101.087 4.48C101.167 4.46 101.207 4.39 101.207 4.27C101.167 4.19 101.147 4.12 101.147 4.06C101.127 3.98 101.157 3.91 101.237 3.85C101.277 3.77 101.327 3.75 101.387 3.79C101.527 3.85 101.687 3.83 101.867 3.73C101.947 3.69 101.997 3.67 102.017 3.67C102.077 3.67 102.107 3.67 102.107 3.67C102.127 3.65 102.187 3.64 102.287 3.64C102.407 3.66 102.517 3.62 102.617 3.52C102.757 3.38 102.927 3.31 103.127 3.31H104.987C105.447 3.33 105.907 3.33 106.367 3.31C106.827 3.29 107.277 3.28 107.717 3.28C107.817 3.28 107.897 3.28 107.957 3.28C108.037 3.26 108.117 3.24 108.197 3.22C108.317 3.16 108.457 3.13 108.617 3.13H109.307C109.467 3.13 109.607 3.13 109.727 3.13C109.867 3.11 110.007 3.09 110.147 3.07C110.227 3.05 110.297 3.04 110.357 3.04C110.437 3.04 110.517 3.04 110.597 3.04C110.677 3.04 110.757 3.04 110.837 3.04C110.917 3.04 110.997 3.03 111.077 3.01C111.237 2.99 111.407 2.98 111.587 2.98C111.767 2.96 111.937 2.95 112.097 2.95C112.177 2.95 112.247 2.95 112.307 2.95C112.387 2.93 112.467 2.91 112.547 2.89C112.707 2.85 112.857 2.83 112.997 2.83C113.157 2.81 113.307 2.79 113.447 2.77C113.607 2.75 113.757 2.73 113.897 2.71C114.057 2.69 114.207 2.67 114.347 2.65C114.527 2.65 114.657 2.67 114.737 2.71C114.857 2.79 114.967 2.86 115.067 2.92C115.187 2.98 115.297 3.06 115.397 3.16C115.477 3.24 115.527 3.31 115.547 3.37C115.567 3.45 115.587 3.53 115.607 3.61C115.627 3.69 115.647 3.78 115.667 3.88V4.09C115.647 4.19 115.627 4.3 115.607 4.42C115.607 4.52 115.597 4.63 115.577 4.75C115.537 4.83 115.487 4.9 115.427 4.96L114.887 5.5C114.687 5.56 114.487 5.6 114.287 5.62C114.107 5.64 113.917 5.64 113.717 5.62H113.507C113.407 5.64 113.307 5.65 113.207 5.65C113.107 5.65 113.007 5.64 112.907 5.62C112.787 5.6 112.667 5.6 112.547 5.62C112.427 5.62 112.307 5.62 112.187 5.62C112.107 5.62 112.027 5.63 111.947 5.65C111.887 5.65 111.817 5.64 111.737 5.62C111.637 5.6 111.537 5.6 111.437 5.62C111.357 5.62 111.267 5.63 111.167 5.65C111.087 5.65 110.997 5.66 110.897 5.68C110.817 5.68 110.727 5.68 110.627 5.68C110.367 5.72 110.087 5.74 109.787 5.74C109.507 5.74 109.227 5.76 108.947 5.8C108.767 5.78 108.597 5.79 108.437 5.83C108.277 5.85 108.107 5.87 107.927 5.89C107.767 5.91 107.597 5.92 107.417 5.92C107.237 5.92 107.067 5.94 106.907 5.98C106.707 5.98 106.507 6.01 106.307 6.07C106.127 6.11 105.937 6.14 105.737 6.16L105.527 6.19C105.387 6.19 105.257 6.21 105.137 6.25C105.017 6.27 104.887 6.3 104.747 6.34C104.667 6.36 104.587 6.38 104.507 6.4C104.427 6.4 104.337 6.41 104.237 6.43C104.177 6.43 104.107 6.45 104.027 6.49C103.967 6.51 103.937 6.57 103.937 6.67L104.027 6.94C104.047 6.98 104.037 7.08 103.997 7.24C103.977 7.4 103.957 7.52 103.937 7.6C103.937 7.66 103.947 7.72 103.967 7.78C103.987 7.84 104.007 7.9 104.027 7.96C104.087 8.12 104.117 8.3 104.117 8.5C104.117 8.68 104.137 8.85 104.177 9.01C104.197 9.09 104.207 9.18 104.207 9.28C104.207 9.36 104.217 9.45 104.237 9.55C104.237 9.59 104.237 9.64 104.237 9.7C104.257 9.74 104.267 9.79 104.267 9.85C104.267 9.91 104.257 9.95 104.237 9.97C104.177 10.05 104.147 10.14 104.147 10.24C104.147 10.34 104.147 10.44 104.147 10.54C104.247 10.74 104.297 10.94 104.297 11.14C104.297 11.34 104.297 11.54 104.297 11.74C104.297 11.8 104.347 11.82 104.447 11.8H104.477C104.517 11.72 104.557 11.66 104.597 11.62C104.657 11.62 104.727 11.6 104.807 11.56C104.867 11.52 104.947 11.5 105.047 11.5C105.207 11.52 105.357 11.52 105.497 11.5C105.637 11.46 105.777 11.42 105.917 11.38C106.857 11.14 107.737 10.83 108.557 10.45C108.777 10.35 109.007 10.27 109.247 10.21C109.487 10.13 109.727 10.08 109.967 10.06H110.057C110.237 10.04 110.417 10.02 110.597 10C110.777 9.98 110.957 9.97 111.137 9.97C111.377 9.95 111.607 9.92 111.827 9.88C112.067 9.84 112.307 9.81 112.547 9.79C112.687 9.75 112.817 9.72 112.937 9.7C113.057 9.66 113.187 9.61 113.327 9.55C113.587 9.45 113.827 9.4 114.047 9.4C114.207 9.42 114.357 9.46 114.497 9.52C114.637 9.56 114.777 9.62 114.917 9.7C115.217 9.9 115.367 10.2 115.367 10.6C115.367 10.76 115.347 10.92 115.307 11.08C115.287 11.24 115.277 11.4 115.277 11.56C115.277 11.6 115.257 11.64 115.217 11.68L115.127 11.83C115.107 11.91 115.087 11.99 115.067 12.07C115.047 12.15 114.997 12.21 114.917 12.25C114.797 12.35 114.667 12.46 114.527 12.58C114.407 12.68 114.267 12.75 114.107 12.79C114.027 12.81 113.947 12.83 113.867 12.85C113.807 12.87 113.737 12.88 113.657 12.88C113.337 12.88 113.007 12.9 112.667 12.94C112.347 12.98 112.017 13.02 111.677 13.06C111.417 13.08 111.157 13.11 110.897 13.15C110.657 13.19 110.407 13.21 110.147 13.21C109.907 13.21 109.637 13.26 109.337 13.36C109.137 13.4 108.927 13.44 108.707 13.48C108.487 13.52 108.267 13.55 108.047 13.57C107.887 13.59 107.717 13.62 107.537 13.66C107.377 13.68 107.217 13.7 107.057 13.72L106.547 13.81C106.507 13.83 106.447 13.84 106.367 13.84C106.227 13.88 106.087 13.91 105.947 13.93C105.807 13.95 105.667 13.98 105.527 14.02C105.387 14.04 105.247 14.07 105.107 14.11C104.987 14.15 104.857 14.19 104.717 14.23C104.617 14.25 104.537 14.29 104.477 14.35C104.417 14.39 104.367 14.45 104.327 14.53C104.307 14.59 104.307 14.65 104.327 14.71C104.347 14.79 104.337 14.87 104.297 14.95C104.317 15.15 104.327 15.35 104.327 15.55C104.347 15.75 104.347 15.95 104.327 16.15C104.367 16.31 104.377 16.47 104.357 16.63C104.357 16.79 104.347 16.95 104.327 17.11C104.287 17.35 104.297 17.55 104.357 17.71C104.417 17.97 104.397 18.24 104.297 18.52C104.257 18.64 104.257 18.72 104.297 18.76C104.337 18.82 104.337 18.89 104.297 18.97V19.15C104.277 19.31 104.347 19.39 104.507 19.39H104.567C104.707 19.39 104.847 19.44 104.987 19.54C105.087 19.64 105.207 19.67 105.347 19.63L106.187 19.54C106.307 19.52 106.427 19.51 106.547 19.51C106.667 19.49 106.787 19.48 106.907 19.48C106.947 19.46 107.007 19.47 107.087 19.51C107.187 19.57 107.277 19.58 107.357 19.54C107.397 19.5 107.447 19.47 107.507 19.45C107.587 19.43 107.647 19.4 107.687 19.36C107.807 19.24 107.957 19.2 108.137 19.24C108.297 19.28 108.427 19.27 108.527 19.21C108.707 19.15 108.877 19.13 109.037 19.15C109.137 19.17 109.237 19.16 109.337 19.12C109.437 19.08 109.537 19.06 109.637 19.06C109.677 19.06 109.707 19.07 109.727 19.09C109.747 19.09 109.767 19.08 109.787 19.06C109.827 19.06 109.867 19.05 109.907 19.03C109.947 19.01 109.977 19 109.997 19C110.137 18.94 110.267 18.92 110.387 18.94C110.487 18.94 110.537 18.94 110.537 18.94C110.617 18.92 110.687 18.92 110.747 18.94C110.827 18.96 110.897 18.99 110.957 19.03C111.057 19.05 111.137 19.08 111.197 19.12C111.277 19.16 111.357 19.19 111.437 19.21C111.477 19.21 111.507 19.22 111.527 19.24C111.627 19.32 111.747 19.39 111.887 19.45C112.047 19.51 112.137 19.58 112.157 19.66C112.197 19.78 112.217 19.9 112.217 20.02C112.217 20.12 112.227 20.23 112.247 20.35C112.247 20.41 112.237 20.47 112.217 20.53C112.217 20.59 112.207 20.65 112.187 20.71C112.147 20.79 112.097 20.88 112.037 20.98C111.997 21.08 111.937 21.17 111.857 21.25C111.817 21.29 111.777 21.33 111.737 21.37C111.717 21.41 111.687 21.45 111.647 21.49C111.567 21.57 111.477 21.64 111.377 21.7C111.277 21.76 111.167 21.79 111.047 21.79C110.967 21.79 110.907 21.8 110.867 21.82C110.787 21.86 110.707 21.88 110.627 21.88C110.547 21.88 110.457 21.88 110.357 21.88C110.217 21.9 110.077 21.92 109.937 21.94C109.817 21.94 109.687 21.93 109.547 21.91C109.467 21.89 109.397 21.89 109.337 21.91C109.137 21.97 108.937 21.98 108.737 21.94C108.537 21.94 108.337 21.95 108.137 21.97C107.957 21.97 107.777 21.97 107.597 21.97H107.207C107.147 21.97 107.097 21.98 107.057 22C106.977 22.04 106.877 22.06 106.757 22.06C106.657 22.06 106.557 22.05 106.457 22.03H106.157C106.137 22.03 106.107 22.03 106.067 22.03C106.027 22.05 105.987 22.05 105.947 22.03C105.887 22.01 105.827 22 105.767 22C105.727 22.02 105.677 22.04 105.617 22.06C105.577 22.06 105.537 22.06 105.497 22.06C105.477 22.08 105.447 22.09 105.407 22.09C105.207 22.07 105.017 22.07 104.837 22.09C104.657 22.13 104.467 22.17 104.267 22.21Z" fill="#353535"/>
</svg>
