<svg width="156" height="24" viewBox="0 0 156 24" fill="none" xmlns="http://www.w3.org/2000/svg">
<path d="M10.9176 20.97C10.6576 21.03 10.3876 21.01 10.1076 20.91C10.0276 20.89 9.95762 20.86 9.89762 20.82C9.85762 20.78 9.80762 20.74 9.74762 20.7C9.60762 20.6 9.49762 20.45 9.41762 20.25L9.29762 19.86C9.29762 19.82 9.28762 19.79 9.26762 19.77C9.26762 19.73 9.26762 19.7 9.26762 19.68C9.26762 19.4 9.24762 19.13 9.20762 18.87C9.16762 18.59 9.12762 18.32 9.08762 18.06C9.04762 17.86 9.00762 17.66 8.96762 17.46C8.94762 17.26 8.91762 17.06 8.87762 16.86C8.87762 16.82 8.86762 16.79 8.84762 16.77C8.84762 16.75 8.84762 16.73 8.84762 16.71C8.80762 16.47 8.76762 16.23 8.72762 15.99C8.68762 15.75 8.64762 15.52 8.60762 15.3C8.58762 15.18 8.56762 15.06 8.54762 14.94C8.54762 14.82 8.52762 14.7 8.48762 14.58L8.30762 13.26C8.28762 13.08 8.25762 12.9 8.21762 12.72C8.19762 12.52 8.16762 12.32 8.12762 12.12C8.10762 11.92 8.07762 11.73 8.03762 11.55C7.99762 11.35 7.95762 11.16 7.91762 10.98L7.46762 9C7.42762 8.78 7.38762 8.56 7.34762 8.34C7.30762 8.12 7.25762 7.91 7.19762 7.71C7.13762 7.53 7.08762 7.35 7.04762 7.17C7.00762 6.97 6.94762 6.78 6.86762 6.6L6.83762 6.48C6.77762 6.22 6.69762 5.97 6.59762 5.73C6.51762 5.49 6.42762 5.25 6.32762 5.01C6.32762 4.99 6.31762 4.98 6.29762 4.98C6.29762 4.96 6.29762 4.95 6.29762 4.95C6.25762 4.83 6.18762 4.79 6.08762 4.83C6.06762 4.85 6.03762 4.86 5.99762 4.86C5.91762 4.88 5.83762 4.91 5.75762 4.95C5.69762 4.99 5.62762 5.03 5.54762 5.07C5.34762 5.13 5.17762 5.22 5.03762 5.34L4.22762 5.91C4.10762 5.97 3.99762 6.05 3.89762 6.15C3.81762 6.25 3.73762 6.35 3.65762 6.45C3.59762 6.53 3.56762 6.62 3.56762 6.72L3.47762 7.26C3.45762 7.46 3.43762 7.67 3.41762 7.89C3.39762 8.11 3.37762 8.33 3.35762 8.55C3.33762 8.75 3.30762 8.94 3.26762 9.12C3.24762 9.28 3.23762 9.46 3.23762 9.66C3.23762 9.82 3.20762 9.99 3.14762 10.17C3.08762 10.39 2.93762 10.53 2.69762 10.59C2.51762 10.61 2.36762 10.55 2.24762 10.41C2.14762 10.31 2.07762 10.16 2.03762 9.96C2.01762 9.82 1.99762 9.69 1.97762 9.57C1.95762 9.45 1.94762 9.32 1.94762 9.18V8.28C1.94762 8.1 1.93762 7.93 1.91762 7.77C1.91762 7.61 1.92762 7.46 1.94762 7.32C1.94762 6.98 1.86762 6.65 1.70762 6.33L1.25762 5.4C1.17762 5.24 1.10762 5.03 1.04762 4.77C0.987617 4.49 0.957617 4.26 0.957617 4.08C0.997617 3.62 1.16762 3.24 1.46762 2.94C1.72762 2.68 2.02762 2.51 2.36762 2.43C2.48762 2.39 2.64762 2.35 2.84762 2.31L4.43762 2.04C4.59762 2.02 4.74762 2 4.88762 1.98C5.04762 1.94 5.19762 1.91 5.33762 1.89C5.63762 1.85 5.93762 1.81 6.23762 1.77C6.55762 1.73 6.87762 1.7 7.19762 1.68C7.37762 1.66 7.55762 1.64 7.73762 1.62C7.91762 1.6 8.09762 1.58 8.27762 1.56H8.39762C8.57762 1.54 8.74762 1.53 8.90762 1.53C9.08762 1.51 9.26762 1.49 9.44762 1.47C9.54762 1.45 9.64762 1.44 9.74762 1.44C9.84762 1.44 9.93762 1.43 10.0176 1.41C10.0376 1.39 10.0776 1.38 10.1376 1.38L11.2476 1.29C11.4676 1.27 11.6776 1.25 11.8776 1.23C12.0976 1.21 12.3176 1.19 12.5376 1.17C12.7176 1.15 12.8976 1.13 13.0776 1.11C13.2576 1.07 13.4376 1.01 13.6176 0.929999C13.7976 0.849999 13.9776 0.829999 14.1576 0.87C14.3576 0.89 14.5376 0.94 14.6976 1.02C14.7576 1.04 14.8076 1.08 14.8476 1.14C14.9076 1.18 14.9576 1.22 14.9976 1.26C15.0976 1.36 15.1776 1.48 15.2376 1.62C15.2976 1.74 15.3576 1.86 15.4176 1.98C15.4776 2.1 15.4776 2.22 15.4176 2.34C15.3776 2.42 15.3476 2.51 15.3276 2.61C15.3276 2.69 15.3176 2.78 15.2976 2.88C15.2976 2.98 15.2676 3.06 15.2076 3.12C15.1676 3.14 15.1276 3.17 15.0876 3.21C15.0476 3.25 15.0076 3.29 14.9676 3.33C14.9076 3.35 14.8476 3.41 14.7876 3.51C14.6676 3.67 14.4976 3.75 14.2776 3.75C14.1976 3.75 14.1176 3.76 14.0376 3.78C13.9776 3.8 13.9076 3.82 13.8276 3.84C13.6476 3.88 13.5276 3.94 13.4676 4.02C13.3676 4.12 13.2576 4.17 13.1376 4.17C12.9976 4.21 12.8876 4.17 12.8076 4.05C12.7876 3.99 12.7376 3.96 12.6576 3.96C12.5776 3.98 12.4876 3.99 12.3876 3.99C12.3076 3.99 12.2276 3.99 12.1476 3.99C12.0676 4.01 11.9776 4.02 11.8776 4.02C11.7976 4.02 11.7076 4.03 11.6076 4.05C11.5276 4.05 11.4576 4.06 11.3976 4.08C11.3376 4.08 11.2676 4.08 11.1876 4.08C10.9876 4.1 10.7776 4.12 10.5576 4.14C10.3576 4.16 10.1476 4.18 9.92762 4.2C9.80762 4.2 9.71762 4.21 9.65762 4.23C9.57762 4.27 9.53762 4.33 9.53762 4.41C9.51762 4.49 9.51762 4.59 9.53762 4.71L9.71762 5.64C9.75762 5.82 9.79762 6.01 9.83762 6.21C9.87762 6.39 9.91762 6.58 9.95762 6.78L10.0476 7.44C10.0476 7.52 10.0476 7.6 10.0476 7.68C10.0676 7.74 10.0876 7.81 10.1076 7.89C10.1476 8.13 10.1876 8.37 10.2276 8.61C10.2876 8.85 10.3276 9.09 10.3476 9.33L10.3776 9.45C10.4576 9.71 10.5176 9.97 10.5576 10.23C10.5976 10.49 10.6376 10.76 10.6776 11.04C10.7176 11.22 10.7576 11.41 10.7976 11.61C10.8376 11.79 10.8676 11.97 10.8876 12.15C10.9076 12.29 10.9276 12.43 10.9476 12.57C10.9676 12.69 10.9876 12.82 11.0076 12.96V13.11C11.0276 13.27 11.0476 13.43 11.0676 13.59C11.1076 13.73 11.1376 13.88 11.1576 14.04L11.2476 14.94C11.2676 15.08 11.2876 15.22 11.3076 15.36C11.3276 15.5 11.3476 15.65 11.3676 15.81C11.3676 15.85 11.3676 15.9 11.3676 15.96C11.3876 16 11.3976 16.04 11.3976 16.08C11.3976 16.18 11.4076 16.29 11.4276 16.41C11.4476 16.51 11.4676 16.62 11.4876 16.74C11.5276 16.96 11.5676 17.19 11.6076 17.43C11.6476 17.65 11.6876 17.88 11.7276 18.12C11.7476 18.26 11.7776 18.4 11.8176 18.54C11.8576 18.66 11.8876 18.79 11.9076 18.93C11.9276 19.03 11.9876 19.13 12.0876 19.23C12.1676 19.29 12.1876 19.36 12.1476 19.44C12.0876 19.52 12.0476 19.61 12.0276 19.71C12.0276 19.81 12.0176 19.91 11.9976 20.01C11.9976 20.09 11.9876 20.15 11.9676 20.19C11.9676 20.29 11.9276 20.36 11.8476 20.4C11.7676 20.44 11.6876 20.52 11.6076 20.64C11.5076 20.74 11.4276 20.81 11.3676 20.85C11.3076 20.91 11.2276 20.94 11.1276 20.94C11.0876 20.92 11.0176 20.93 10.9176 20.97ZM28.7599 23.19C28.5799 23.19 28.4199 23.12 28.2799 22.98C28.2399 22.92 28.1999 22.86 28.1599 22.8C28.1199 22.74 28.0799 22.68 28.0399 22.62C27.8599 22.2 27.7699 21.76 27.7699 21.3L27.6799 20.58C27.6199 20.3 27.5699 20.02 27.5299 19.74C27.4899 19.46 27.4199 19.19 27.3199 18.93L27.1399 18.42C27.1399 18.38 27.1299 18.34 27.1099 18.3C27.1099 18.26 27.0999 18.22 27.0799 18.18L26.6299 16.59C26.6099 16.55 26.5899 16.5 26.5699 16.44C26.5699 16.38 26.5499 16.33 26.5099 16.29C26.4499 16.17 26.3999 16.05 26.3599 15.93C26.3399 15.79 26.3099 15.65 26.2699 15.51C26.2499 15.41 26.2299 15.32 26.2099 15.24C26.1899 15.14 26.1599 15.04 26.1199 14.94C26.0799 14.82 26.0399 14.75 25.9999 14.73C25.9599 14.69 25.8699 14.69 25.7299 14.73C25.6299 14.75 25.5199 14.77 25.3999 14.79C25.2999 14.79 25.1999 14.81 25.0999 14.85C25.0199 14.87 24.9199 14.89 24.7999 14.91C24.6999 14.91 24.5999 14.92 24.4999 14.94L24.0799 15.03C23.9799 15.05 23.8699 15.08 23.7499 15.12C23.6499 15.14 23.5499 15.15 23.4499 15.15L22.9099 15.24C22.7499 15.28 22.5799 15.32 22.3999 15.36C22.2199 15.4 22.0499 15.44 21.8899 15.48C21.4099 15.6 20.9299 15.69 20.4499 15.75C20.2899 15.79 20.1999 15.86 20.1799 15.96C20.1599 15.96 20.1499 15.97 20.1499 15.99C20.0299 16.31 19.8899 16.63 19.7299 16.95C19.5899 17.25 19.4399 17.56 19.2799 17.88C19.2399 17.96 19.1999 18.04 19.1599 18.12C19.1399 18.18 19.1099 18.25 19.0699 18.33C19.0499 18.37 19.0299 18.42 19.0099 18.48C18.9899 18.52 18.9699 18.56 18.9499 18.6C18.8299 18.74 18.7699 18.91 18.7699 19.11C18.7499 19.23 18.7099 19.35 18.6499 19.47C18.5899 19.57 18.5299 19.67 18.4699 19.77C18.4499 19.83 18.4099 19.86 18.3499 19.86C18.2699 19.88 18.1899 19.91 18.1099 19.95C18.0299 19.99 17.9399 20.03 17.8399 20.07C17.7799 20.09 17.7199 20.09 17.6599 20.07C17.6199 20.05 17.5699 20.03 17.5099 20.01C17.4699 19.97 17.4299 19.95 17.3899 19.95C17.1699 19.93 17.0099 19.8 16.9099 19.56C16.7499 19.24 16.6399 18.92 16.5799 18.6C16.5599 18.52 16.5599 18.45 16.5799 18.39C16.6199 18.33 16.6499 18.27 16.6699 18.21C16.7899 18.13 16.8599 18.04 16.8799 17.94V17.91C16.8799 17.65 16.9299 17.41 17.0299 17.19C17.1499 16.95 17.2499 16.72 17.3299 16.5C17.3699 16.38 17.4199 16.26 17.4799 16.14C17.5399 16.02 17.5999 15.9 17.6599 15.78C17.7399 15.64 17.7999 15.51 17.8399 15.39C17.8999 15.25 17.9499 15.11 17.9899 14.97C18.0499 14.81 18.0499 14.66 17.9899 14.52C17.9499 14.4 17.9299 14.29 17.9299 14.19C17.9299 14.07 17.9399 13.95 17.9599 13.83C17.9599 13.61 18.0399 13.42 18.1999 13.26C18.2799 13.16 18.3599 13.08 18.4399 13.02C18.5399 12.94 18.6299 12.86 18.7099 12.78C18.8899 12.6 19.0299 12.36 19.1299 12.06C19.2099 11.8 19.2699 11.54 19.3099 11.28C19.3699 11 19.4299 10.73 19.4899 10.47C19.5299 10.21 19.5699 9.96 19.6099 9.72C19.6699 9.46 19.7299 9.21 19.7899 8.97C19.8099 8.87 19.8299 8.78 19.8499 8.7C19.8899 8.6 19.9199 8.51 19.9399 8.43C19.9999 8.27 20.0599 8.12 20.1199 7.98C20.1799 7.82 20.2199 7.66 20.2399 7.5C20.2799 7.42 20.2799 7.35 20.2399 7.29C20.2199 7.19 20.2199 7.1 20.2399 7.02C20.2799 6.94 20.3099 6.86 20.3299 6.78C20.3899 6.64 20.4299 6.5 20.4499 6.36C20.4899 6.22 20.5399 6.08 20.5999 5.94C20.6999 5.68 20.7799 5.47 20.8399 5.31C20.9199 5.13 20.9899 4.93 21.0499 4.71C21.0899 4.59 21.1299 4.48 21.1699 4.38C21.2299 4.26 21.2699 4.14 21.2899 4.02C21.3499 3.84 21.3999 3.66 21.4399 3.48C21.4799 3.28 21.4999 3.09 21.4999 2.91C21.5399 2.75 21.5799 2.64 21.6199 2.58C21.7199 2.38 21.8399 2.21 21.9799 2.07C22.1399 1.93 22.2899 1.79 22.4299 1.65C22.5299 1.59 22.6299 1.55 22.7299 1.53C22.8299 1.49 22.9299 1.5 23.0299 1.56C23.1099 1.6 23.1599 1.62 23.1799 1.62C23.3599 1.6 23.5099 1.64 23.6299 1.74C23.7499 1.84 23.8499 1.96 23.9299 2.1C23.9699 2.14 23.9999 2.19 24.0199 2.25C24.0399 2.31 24.0599 2.36 24.0799 2.4C24.1799 2.56 24.2299 2.72 24.2299 2.88C24.2299 2.96 24.2399 3.05 24.2599 3.15C24.2799 3.23 24.2999 3.32 24.3199 3.42C24.3799 3.54 24.4699 3.6 24.5899 3.6C24.6099 3.58 24.6299 3.58 24.6499 3.6C24.6699 3.62 24.6799 3.64 24.6799 3.66C24.7799 3.78 24.8099 3.91 24.7699 4.05C24.7299 4.21 24.7199 4.37 24.7399 4.53C24.7799 4.67 24.8199 4.82 24.8599 4.98C24.9399 5.18 25.0199 5.38 25.0999 5.58C25.1799 5.78 25.2599 5.98 25.3399 6.18C25.4399 6.4 25.5399 6.62 25.6399 6.84C25.7399 7.06 25.8299 7.28 25.9099 7.5C26.0099 7.78 26.1099 8.06 26.2099 8.34C26.3299 8.62 26.4599 8.9 26.5999 9.18L26.6899 9.51C26.7099 9.59 26.7299 9.67 26.7499 9.75C26.7899 9.83 26.8199 9.91 26.8399 9.99C26.8799 10.05 26.9099 10.11 26.9299 10.17C26.9699 10.23 27.0099 10.28 27.0499 10.32C27.1499 10.46 27.2099 10.61 27.2299 10.77C27.2899 10.97 27.3799 11.15 27.4999 11.31C27.5399 11.37 27.5999 11.4 27.6799 11.4C27.9799 11.36 28.2799 11.33 28.5799 11.31C28.8799 11.27 29.1799 11.21 29.4799 11.13C29.6999 11.07 29.9099 11.04 30.1099 11.04C30.4899 11.04 30.8399 11.17 31.1599 11.43C31.5399 11.73 31.7399 12.11 31.7599 12.57C31.7599 12.67 31.7699 12.75 31.7899 12.81C31.7899 12.95 31.7499 13.06 31.6699 13.14C31.6499 13.2 31.6099 13.26 31.5499 13.32C31.5099 13.38 31.4699 13.44 31.4299 13.5C31.3899 13.58 31.3499 13.64 31.3099 13.68L31.1299 13.83C31.1099 13.87 31.0799 13.92 31.0399 13.98C30.9999 14.02 30.9499 14.05 30.8899 14.07C30.8099 14.09 30.7299 14.12 30.6499 14.16C30.5699 14.18 30.4799 14.19 30.3799 14.19C30.0199 14.23 29.6999 14.22 29.4199 14.16H28.9399C28.8999 14.16 28.8399 14.18 28.7599 14.22C28.6799 14.26 28.6399 14.31 28.6399 14.37V14.49C28.6999 14.67 28.7399 14.86 28.7599 15.06C28.7999 15.24 28.8599 15.41 28.9399 15.57C28.9399 15.65 28.9599 15.73 28.9999 15.81C29.0999 15.99 29.1799 16.18 29.2399 16.38C29.2999 16.56 29.3499 16.75 29.3899 16.95C29.3899 16.99 29.4099 17.07 29.4499 17.19C29.5099 17.33 29.5599 17.48 29.5999 17.64C29.6399 17.78 29.6699 17.93 29.6899 18.09C29.6899 18.21 29.7199 18.32 29.7799 18.42C29.8599 18.6 29.9199 18.78 29.9599 18.96C29.9999 19.14 30.0299 19.33 30.0499 19.53C30.0699 19.55 30.0799 19.59 30.0799 19.65C30.0799 19.69 30.0899 19.73 30.1099 19.77C30.2099 19.99 30.2799 20.23 30.3199 20.49C30.3599 20.73 30.4099 20.97 30.4699 21.21C30.5099 21.33 30.5299 21.45 30.5299 21.57C30.5499 21.71 30.5599 21.85 30.5599 21.99C30.5599 22.09 30.5299 22.2 30.4699 22.32C30.4099 22.38 30.3799 22.41 30.3799 22.41C30.2599 22.43 30.1899 22.5 30.1699 22.62L30.0799 22.8C30.0399 22.88 29.9799 22.93 29.8999 22.95C29.8199 22.95 29.7499 22.98 29.6899 23.04C29.6099 23.12 29.4999 23.16 29.3599 23.16C29.2799 23.16 29.1799 23.16 29.0599 23.16C28.9599 23.16 28.8599 23.17 28.7599 23.19ZM21.5299 12.3C21.6499 12.28 21.7699 12.26 21.8899 12.24C22.0299 12.22 22.1799 12.2 22.3399 12.18C22.4399 12.16 22.5699 12.14 22.7299 12.12C22.8899 12.1 23.0399 12.08 23.1799 12.06C23.3199 12.02 23.4599 12 23.5999 12C23.7399 11.98 23.8799 11.96 24.0199 11.94C24.1399 11.9 24.2599 11.88 24.3799 11.88C24.4999 11.86 24.6199 11.84 24.7399 11.82C24.9199 11.78 24.9899 11.68 24.9499 11.52C24.9299 11.36 24.8899 11.2 24.8299 11.04C24.7899 10.86 24.6999 10.71 24.5599 10.59C24.5199 10.55 24.4999 10.49 24.4999 10.41V10.32C24.4599 10.16 24.4099 10.01 24.3499 9.87C24.3099 9.71 24.2599 9.56 24.1999 9.42C24.1599 9.26 24.1099 9.12 24.0499 9C24.0099 8.86 23.9599 8.72 23.8999 8.58L23.5399 7.5C23.4799 7.36 23.4199 7.22 23.3599 7.08C23.3199 6.94 23.2799 6.8 23.2399 6.66L23.1499 6.54H23.0599L22.9999 6.63C22.8999 6.93 22.7799 7.23 22.6399 7.53C22.5199 7.83 22.4099 8.15 22.3099 8.49C22.3099 8.53 22.2999 8.58 22.2799 8.64C22.2599 8.7 22.2399 8.76 22.2199 8.82C22.1399 9.02 22.0599 9.24 21.9799 9.48C21.9199 9.72 21.8699 9.96 21.8299 10.2C21.8099 10.34 21.7899 10.48 21.7699 10.62C21.7499 10.74 21.7199 10.87 21.6799 11.01L21.4099 12.18C21.3899 12.2 21.3999 12.23 21.4399 12.27C21.4799 12.29 21.5099 12.3 21.5299 12.3ZM35.5673 21.51C35.4473 21.51 35.3373 21.47 35.2373 21.39C35.1773 21.33 35.1073 21.28 35.0273 21.24C34.9473 21.2 34.8773 21.15 34.8173 21.09C34.7573 21.05 34.6973 21.01 34.6373 20.97C34.5973 20.91 34.5573 20.86 34.5173 20.82C34.4373 20.7 34.3673 20.58 34.3073 20.46C34.2673 20.32 34.2573 20.18 34.2773 20.04C34.3173 19.82 34.3373 19.61 34.3373 19.41C34.3573 19.19 34.3773 18.98 34.3973 18.78C34.4173 18.68 34.4273 18.58 34.4273 18.48C34.4473 18.36 34.4573 18.25 34.4573 18.15C34.4573 17.91 34.4573 17.67 34.4573 17.43C34.4773 17.19 34.5073 16.95 34.5473 16.71V16.65C34.5673 16.03 34.5873 15.42 34.6073 14.82C34.6473 14.2 34.6673 13.58 34.6673 12.96C34.6473 12.5 34.6373 12.04 34.6373 11.58C34.6373 11.12 34.6373 10.67 34.6373 10.23C34.6373 10.01 34.6373 9.8 34.6373 9.6C34.6573 9.4 34.6473 9.2 34.6073 9C34.5873 8.66 34.5673 8.33 34.5473 8.01C34.5473 7.69 34.5473 7.37 34.5473 7.05C34.5473 6.99 34.5373 6.93 34.5173 6.87C34.5173 6.81 34.5173 6.75 34.5173 6.69C34.4973 6.61 34.4873 6.53 34.4873 6.45C34.4873 6.35 34.4773 6.26 34.4573 6.18C34.4573 6.08 34.4473 5.98 34.4273 5.88C34.4273 5.78 34.4173 5.69 34.3973 5.61V5.4C34.3773 5.18 34.3573 4.98 34.3373 4.8C34.3173 4.6 34.2873 4.4 34.2473 4.2C34.2273 4.04 34.2073 3.87 34.1873 3.69C34.1873 3.51 34.1873 3.33 34.1873 3.15C34.1873 3.03 34.2273 2.94 34.3073 2.88C34.3473 2.84 34.3673 2.79 34.3673 2.73C34.4073 2.65 34.4273 2.58 34.4273 2.52C34.4873 2.36 34.5673 2.26 34.6673 2.22C34.7273 2.18 34.7773 2.15 34.8173 2.13C34.8773 2.09 34.9373 2.08 34.9973 2.1C35.0973 2.1 35.1573 2.07 35.1773 2.01C35.2173 1.99 35.2473 1.97 35.2673 1.95C35.2873 1.91 35.3073 1.89 35.3273 1.89C35.4273 1.89 35.5173 1.88 35.5973 1.86C35.6973 1.84 35.7973 1.85 35.8973 1.89C36.0173 1.93 36.1173 1.95 36.1973 1.95C36.2973 1.97 36.3673 2.01 36.4073 2.07C36.4473 2.11 36.4873 2.13 36.5273 2.13C36.6273 2.15 36.6973 2.22 36.7373 2.34C36.7773 2.38 36.7973 2.43 36.7973 2.49C36.8173 2.53 36.8373 2.56 36.8573 2.58C36.9573 2.68 36.9873 2.8 36.9473 2.94C36.9073 3.16 36.9073 3.38 36.9473 3.6C36.9673 3.66 36.9673 3.72 36.9473 3.78C36.9473 3.84 36.9573 3.9 36.9773 3.96C36.9773 4.1 36.9773 4.24 36.9773 4.38C36.9973 4.5 37.0173 4.64 37.0373 4.8C37.0573 4.88 37.0673 4.96 37.0673 5.04C37.0673 5.1 37.0673 5.18 37.0673 5.28C37.0673 5.42 37.0673 5.58 37.0673 5.76C37.0673 5.92 37.0773 6.08 37.0973 6.24C37.1173 6.28 37.1273 6.35 37.1273 6.45C37.1273 6.59 37.1273 6.73 37.1273 6.87C37.1473 7.01 37.1673 7.15 37.1873 7.29C37.2473 7.59 37.2773 7.88 37.2773 8.16C37.2573 8.3 37.2573 8.45 37.2773 8.61C37.2973 8.77 37.3073 8.93 37.3073 9.09C37.3073 9.13 37.3273 9.15 37.3673 9.15C37.4073 9.15 37.4373 9.14 37.4573 9.12C37.4973 9.1 37.5573 9.05 37.6373 8.97L39.0773 7.53C39.3773 7.19 39.7073 6.89 40.0673 6.63C40.2473 6.49 40.4173 6.35 40.5773 6.21C40.7373 6.05 40.8873 5.89 41.0273 5.73C41.2273 5.51 41.4173 5.29 41.5973 5.07C41.7973 4.85 41.9973 4.63 42.1973 4.41C42.2973 4.31 42.3873 4.2 42.4673 4.08C42.5673 3.96 42.6573 3.84 42.7373 3.72C42.8573 3.58 42.9673 3.45 43.0673 3.33C43.1873 3.19 43.3173 3.06 43.4573 2.94C43.5173 2.9 43.5673 2.86 43.6073 2.82C43.6673 2.76 43.7373 2.72 43.8173 2.7C43.8373 2.7 43.8473 2.7 43.8473 2.7C43.8673 2.68 43.8773 2.67 43.8773 2.67C44.0773 2.49 44.2773 2.46 44.4773 2.58C44.5373 2.62 44.6273 2.64 44.7473 2.64C44.9073 2.64 45.0473 2.7 45.1673 2.82C45.2073 2.84 45.2373 2.86 45.2573 2.88C45.2973 2.88 45.3273 2.89 45.3473 2.91H45.6473C45.7673 2.91 45.8273 2.93 45.8273 2.97C45.8473 2.99 45.8473 3.05 45.8273 3.15C45.7873 3.21 45.8073 3.27 45.8873 3.33C45.9873 3.35 46.0173 3.41 45.9773 3.51C45.9573 3.55 45.9773 3.6 46.0373 3.66C46.0973 3.7 46.0973 3.75 46.0373 3.81C45.9373 3.97 45.8773 4.13 45.8573 4.29C45.8173 4.39 45.7673 4.49 45.7073 4.59C45.6673 4.67 45.5973 4.76 45.4973 4.86C45.2573 5.06 45.0373 5.29 44.8373 5.55C44.6373 5.79 44.4273 6.04 44.2073 6.3L44.0273 6.48C43.8273 6.66 43.6373 6.85 43.4573 7.05C43.2973 7.25 43.1373 7.45 42.9773 7.65C42.7573 7.91 42.5173 8.17 42.2573 8.43C42.0173 8.67 41.7773 8.91 41.5373 9.15C41.4173 9.27 41.3273 9.35 41.2673 9.39C41.1673 9.47 41.0673 9.56 40.9673 9.66C40.8673 9.76 40.7673 9.87 40.6673 9.99C40.6473 10.03 40.6073 10.07 40.5473 10.11C40.5073 10.15 40.4673 10.19 40.4273 10.23C40.2873 10.37 40.1473 10.52 40.0073 10.68C39.8673 10.82 39.7173 10.96 39.5573 11.1C39.5573 11.12 39.5473 11.14 39.5273 11.16C39.5273 11.16 39.5273 11.17 39.5273 11.19C39.5273 11.21 39.5173 11.23 39.4973 11.25C39.4973 11.27 39.5073 11.29 39.5273 11.31C39.5473 11.37 39.5973 11.44 39.6773 11.52L40.5473 12.33C40.7273 12.47 40.8973 12.63 41.0573 12.81C41.2173 12.97 41.3773 13.13 41.5373 13.29L41.8373 13.65C41.8773 13.69 41.9173 13.74 41.9573 13.8C41.9973 13.84 42.0373 13.88 42.0773 13.92C42.2973 14.1 42.5173 14.28 42.7373 14.46C42.9573 14.64 43.1673 14.82 43.3673 15L43.8173 15.36C44.0573 15.56 44.3173 15.75 44.5973 15.93C44.8773 16.11 45.1473 16.28 45.4073 16.44C45.5473 16.52 45.6773 16.6 45.7973 16.68C45.9373 16.74 46.0773 16.8 46.2173 16.86C46.4773 16.98 46.6873 17.19 46.8473 17.49C46.8673 17.51 46.8873 17.55 46.9073 17.61C46.9273 17.65 46.9473 17.69 46.9673 17.73C47.0673 17.95 47.1073 18.16 47.0873 18.36C47.0873 18.52 47.0673 18.63 47.0273 18.69L46.9373 18.93C46.9173 19.01 46.8773 19.1 46.8173 19.2C46.7773 19.28 46.7073 19.35 46.6073 19.41C46.5673 19.43 46.5273 19.48 46.4873 19.56C46.4073 19.64 46.3373 19.68 46.2773 19.68C46.1773 19.7 46.0673 19.72 45.9473 19.74C45.8473 19.76 45.7473 19.78 45.6473 19.8C45.5673 19.82 45.4873 19.83 45.4073 19.83C45.3273 19.83 45.2473 19.82 45.1673 19.8C45.1473 19.78 45.1173 19.77 45.0773 19.77C44.9973 19.75 44.9173 19.73 44.8373 19.71C44.7773 19.69 44.7173 19.67 44.6573 19.65C44.5973 19.61 44.5373 19.57 44.4773 19.53C44.4373 19.47 44.3973 19.42 44.3573 19.38C44.3173 19.34 44.2673 19.3 44.2073 19.26C44.1473 19.22 44.0873 19.19 44.0273 19.17L43.5773 18.9C43.5573 18.86 43.5173 18.83 43.4573 18.81C43.4173 18.77 43.3773 18.74 43.3373 18.72C43.2573 18.68 43.2073 18.65 43.1873 18.63C43.1073 18.53 43.0073 18.45 42.8873 18.39C42.7873 18.33 42.6873 18.26 42.5873 18.18C42.4273 18.04 42.2573 17.91 42.0773 17.79C41.9173 17.65 41.7573 17.51 41.5973 17.37C41.2573 17.07 40.9173 16.77 40.5773 16.47C40.2573 16.17 39.9373 15.86 39.6173 15.54C39.3773 15.3 39.1373 15.06 38.8973 14.82C38.6573 14.58 38.3973 14.34 38.1173 14.1C38.0373 14.04 37.9573 13.98 37.8773 13.92C37.8173 13.86 37.7373 13.8 37.6373 13.74C37.6173 13.7 37.5873 13.69 37.5473 13.71C37.5273 13.73 37.5173 13.76 37.5173 13.8C37.4973 13.82 37.4873 13.87 37.4873 13.95V17.19C37.4873 17.39 37.4873 17.6 37.4873 17.82C37.4873 18.02 37.4673 18.23 37.4273 18.45V18.9C37.4073 19.04 37.3973 19.18 37.3973 19.32C37.4173 19.46 37.4173 19.61 37.3973 19.77V20.22C37.3773 20.28 37.3573 20.34 37.3373 20.4C37.3173 20.46 37.2873 20.52 37.2473 20.58C37.1873 20.64 37.1373 20.71 37.0973 20.79C37.0573 20.85 37.0173 20.91 36.9773 20.97C36.9373 21.01 36.8973 21.03 36.8573 21.03C36.7773 21.05 36.6973 21.09 36.6173 21.15C36.5573 21.21 36.4773 21.26 36.3773 21.3C36.2373 21.42 36.0673 21.48 35.8673 21.48C35.8273 21.46 35.7773 21.46 35.7173 21.48C35.6773 21.5 35.6273 21.51 35.5673 21.51ZM53.0775 21.21C52.9575 21.21 52.8775 21.2 52.8375 21.18C52.7375 21.14 52.6375 21.12 52.5375 21.12C52.4575 21.14 52.3675 21.15 52.2675 21.15C52.2475 21.15 52.2275 21.15 52.2075 21.15C52.1875 21.17 52.1675 21.18 52.1475 21.18C52.0075 21.2 51.8675 21.21 51.7275 21.21C51.6075 21.21 51.4875 21.19 51.3675 21.15C51.3475 21.13 51.3275 21.12 51.3075 21.12C51.1675 21.14 51.0475 21.1 50.9475 21C50.8475 20.9 50.7475 20.81 50.6475 20.73C50.5475 20.63 50.4975 20.52 50.4975 20.4L50.4075 20.16C50.3475 20.02 50.3275 19.89 50.3475 19.77C50.3675 19.73 50.3675 19.69 50.3475 19.65C50.3475 19.61 50.3475 19.57 50.3475 19.53C50.3275 19.49 50.3175 19.45 50.3175 19.41C50.3175 19.35 50.3075 19.3 50.2875 19.26C50.2475 19.08 50.2175 18.9 50.1975 18.72C50.1975 18.52 50.2075 18.33 50.2275 18.15C50.2475 18.03 50.3175 17.83 50.4375 17.55C50.5575 17.25 50.6275 17.07 50.6475 17.01C50.7075 16.91 50.7375 16.83 50.7375 16.77C50.7175 16.55 50.7075 16.33 50.7075 16.11C50.7275 15.87 50.7375 15.64 50.7375 15.42C50.7375 15.28 50.7675 15.17 50.8275 15.09C50.9075 14.95 50.9175 14.8 50.8575 14.64L50.7675 14.31C50.6475 14.09 50.6575 13.9 50.7975 13.74C50.7975 13.72 50.7975 13.71 50.7975 13.71C50.8175 13.69 50.8275 13.67 50.8275 13.65C50.8675 13.61 50.8775 13.56 50.8575 13.5C50.8375 13.42 50.8275 13.36 50.8275 13.32C50.8275 13.24 50.8375 13.16 50.8575 13.08C50.8975 12.98 50.9075 12.89 50.8875 12.81C50.8875 12.81 50.8675 12.79 50.8275 12.75C50.8075 12.71 50.7975 12.63 50.7975 12.51C50.8175 12.39 50.8275 12.32 50.8275 12.3V11.46C50.8475 11.36 50.8575 11.27 50.8575 11.19C50.8575 11.09 50.8675 10.99 50.8875 10.89C50.9075 10.77 50.9075 10.65 50.8875 10.53C50.8875 10.39 50.8875 10.25 50.8875 10.11C50.8675 10.01 50.8475 9.9 50.8275 9.78C50.8275 9.66 50.8275 9.54 50.8275 9.42C50.8075 9.38 50.7975 9.33 50.7975 9.27C50.7975 9.21 50.7975 9.16 50.7975 9.12C50.7775 9.02 50.7575 8.92 50.7375 8.82C50.7375 8.72 50.7375 8.62 50.7375 8.52C50.7375 8.48 50.6975 8.35 50.6175 8.13C50.5375 7.89 50.5075 7.69 50.5275 7.53C50.5475 7.49 50.5575 7.44 50.5575 7.38C50.5575 7.32 50.5375 7.27 50.4975 7.23C50.4575 7.21 50.4375 7.17 50.4375 7.11V7.02C50.4975 6.78 50.4675 6.54 50.3475 6.3C50.2675 6.18 50.2375 6.06 50.2575 5.94C50.2575 5.78 50.1875 5.66 50.0475 5.58C49.9475 5.48 49.8575 5.36 49.7775 5.22C49.6975 5.08 49.6475 4.94 49.6275 4.8C49.6075 4.7 49.5975 4.6 49.5975 4.5C49.5975 4.4 49.5975 4.31 49.5975 4.23C49.5975 4.15 49.6075 4.1 49.6275 4.08C49.7075 4 49.7475 3.91 49.7475 3.81C49.7475 3.69 49.7575 3.6 49.7775 3.54C49.7975 3.52 49.8175 3.51 49.8375 3.51C49.8575 3.51 49.8775 3.5 49.8975 3.48C49.9775 3.46 50.0175 3.39 50.0175 3.27C49.9775 3.19 49.9575 3.12 49.9575 3.06C49.9375 2.98 49.9675 2.91 50.0475 2.85C50.0875 2.77 50.1375 2.75 50.1975 2.79C50.3375 2.85 50.4975 2.83 50.6775 2.73C50.7575 2.69 50.8075 2.67 50.8275 2.67C50.8875 2.67 50.9175 2.67 50.9175 2.67C50.9375 2.65 50.9975 2.64 51.0975 2.64C51.2175 2.66 51.3275 2.62 51.4275 2.52C51.5675 2.38 51.7375 2.31 51.9375 2.31H53.7975C54.2575 2.33 54.7175 2.33 55.1775 2.31C55.6375 2.29 56.0875 2.28 56.5275 2.28C56.6275 2.28 56.7075 2.28 56.7675 2.28C56.8475 2.26 56.9275 2.24 57.0075 2.22C57.1275 2.16 57.2675 2.13 57.4275 2.13H58.1175C58.2775 2.13 58.4175 2.13 58.5375 2.13C58.6775 2.11 58.8175 2.09 58.9575 2.07C59.0375 2.05 59.1075 2.04 59.1675 2.04C59.2475 2.04 59.3275 2.04 59.4075 2.04C59.4875 2.04 59.5675 2.04 59.6475 2.04C59.7275 2.04 59.8075 2.03 59.8875 2.01C60.0475 1.99 60.2175 1.98 60.3975 1.98C60.5775 1.96 60.7475 1.95 60.9075 1.95C60.9875 1.95 61.0575 1.95 61.1175 1.95C61.1975 1.93 61.2775 1.91 61.3575 1.89C61.5175 1.85 61.6675 1.83 61.8075 1.83C61.9675 1.81 62.1175 1.79 62.2575 1.77C62.4175 1.75 62.5675 1.73 62.7075 1.71C62.8675 1.69 63.0175 1.67 63.1575 1.65C63.3375 1.65 63.4675 1.67 63.5475 1.71C63.6675 1.79 63.7775 1.86 63.8775 1.92C63.9975 1.98 64.1075 2.06 64.2075 2.16C64.2875 2.24 64.3375 2.31 64.3575 2.37C64.3775 2.45 64.3975 2.53 64.4175 2.61C64.4375 2.69 64.4575 2.78 64.4775 2.88V3.09C64.4575 3.19 64.4375 3.3 64.4175 3.42C64.4175 3.52 64.4075 3.63 64.3875 3.75C64.3475 3.83 64.2975 3.9 64.2375 3.96L63.6975 4.5C63.4975 4.56 63.2975 4.6 63.0975 4.62C62.9175 4.64 62.7275 4.64 62.5275 4.62H62.3175C62.2175 4.64 62.1175 4.65 62.0175 4.65C61.9175 4.65 61.8175 4.64 61.7175 4.62C61.5975 4.6 61.4775 4.6 61.3575 4.62C61.2375 4.62 61.1175 4.62 60.9975 4.62C60.9175 4.62 60.8375 4.63 60.7575 4.65C60.6975 4.65 60.6275 4.64 60.5475 4.62C60.4475 4.6 60.3475 4.6 60.2475 4.62C60.1675 4.62 60.0775 4.63 59.9775 4.65C59.8975 4.65 59.8075 4.66 59.7075 4.68C59.6275 4.68 59.5375 4.68 59.4375 4.68C59.1775 4.72 58.8975 4.74 58.5975 4.74C58.3175 4.74 58.0375 4.76 57.7575 4.8C57.5775 4.78 57.4075 4.79 57.2475 4.83C57.0875 4.85 56.9175 4.87 56.7375 4.89C56.5775 4.91 56.4075 4.92 56.2275 4.92C56.0475 4.92 55.8775 4.94 55.7175 4.98C55.5175 4.98 55.3175 5.01 55.1175 5.07C54.9375 5.11 54.7475 5.14 54.5475 5.16L54.3375 5.19C54.1975 5.19 54.0675 5.21 53.9475 5.25C53.8275 5.27 53.6975 5.3 53.5575 5.34C53.4775 5.36 53.3975 5.38 53.3175 5.4C53.2375 5.4 53.1475 5.41 53.0475 5.43C52.9875 5.43 52.9175 5.45 52.8375 5.49C52.7775 5.51 52.7475 5.57 52.7475 5.67L52.8375 5.94C52.8575 5.98 52.8475 6.08 52.8075 6.24C52.7875 6.4 52.7675 6.52 52.7475 6.6C52.7475 6.66 52.7575 6.72 52.7775 6.78C52.7975 6.84 52.8175 6.9 52.8375 6.96C52.8975 7.12 52.9275 7.3 52.9275 7.5C52.9275 7.68 52.9475 7.85 52.9875 8.01C53.0075 8.09 53.0175 8.18 53.0175 8.28C53.0175 8.36 53.0275 8.45 53.0475 8.55C53.0475 8.59 53.0475 8.64 53.0475 8.7C53.0675 8.74 53.0775 8.79 53.0775 8.85C53.0775 8.91 53.0675 8.95 53.0475 8.97C52.9875 9.05 52.9575 9.14 52.9575 9.24C52.9575 9.34 52.9575 9.44 52.9575 9.54C53.0575 9.74 53.1075 9.94 53.1075 10.14C53.1075 10.34 53.1075 10.54 53.1075 10.74C53.1075 10.8 53.1575 10.82 53.2575 10.8H53.2875C53.3275 10.72 53.3675 10.66 53.4075 10.62C53.4675 10.62 53.5375 10.6 53.6175 10.56C53.6775 10.52 53.7575 10.5 53.8575 10.5C54.0175 10.52 54.1675 10.52 54.3075 10.5C54.4475 10.46 54.5875 10.42 54.7275 10.38C55.6675 10.14 56.5475 9.83 57.3675 9.45C57.5875 9.35 57.8175 9.27 58.0575 9.21C58.2975 9.13 58.5375 9.08 58.7775 9.06H58.8675C59.0475 9.04 59.2275 9.02 59.4075 9C59.5875 8.98 59.7675 8.97 59.9475 8.97C60.1875 8.95 60.4175 8.92 60.6375 8.88C60.8775 8.84 61.1175 8.81 61.3575 8.79C61.4975 8.75 61.6275 8.72 61.7475 8.7C61.8675 8.66 61.9975 8.61 62.1375 8.55C62.3975 8.45 62.6375 8.4 62.8575 8.4C63.0175 8.42 63.1675 8.46 63.3075 8.52C63.4475 8.56 63.5875 8.62 63.7275 8.7C64.0275 8.9 64.1775 9.2 64.1775 9.6C64.1775 9.76 64.1575 9.92 64.1175 10.08C64.0975 10.24 64.0875 10.4 64.0875 10.56C64.0875 10.6 64.0675 10.64 64.0275 10.68L63.9375 10.83C63.9175 10.91 63.8975 10.99 63.8775 11.07C63.8575 11.15 63.8075 11.21 63.7275 11.25C63.6075 11.35 63.4775 11.46 63.3375 11.58C63.2175 11.68 63.0775 11.75 62.9175 11.79C62.8375 11.81 62.7575 11.83 62.6775 11.85C62.6175 11.87 62.5475 11.88 62.4675 11.88C62.1475 11.88 61.8175 11.9 61.4775 11.94C61.1575 11.98 60.8275 12.02 60.4875 12.06C60.2275 12.08 59.9675 12.11 59.7075 12.15C59.4675 12.19 59.2175 12.21 58.9575 12.21C58.7175 12.21 58.4475 12.26 58.1475 12.36C57.9475 12.4 57.7375 12.44 57.5175 12.48C57.2975 12.52 57.0775 12.55 56.8575 12.57C56.6975 12.59 56.5275 12.62 56.3475 12.66C56.1875 12.68 56.0275 12.7 55.8675 12.72L55.3575 12.81C55.3175 12.83 55.2575 12.84 55.1775 12.84C55.0375 12.88 54.8975 12.91 54.7575 12.93C54.6175 12.95 54.4775 12.98 54.3375 13.02C54.1975 13.04 54.0575 13.07 53.9175 13.11C53.7975 13.15 53.6675 13.19 53.5275 13.23C53.4275 13.25 53.3475 13.29 53.2875 13.35C53.2275 13.39 53.1775 13.45 53.1375 13.53C53.1175 13.59 53.1175 13.65 53.1375 13.71C53.1575 13.79 53.1475 13.87 53.1075 13.95C53.1275 14.15 53.1375 14.35 53.1375 14.55C53.1575 14.75 53.1575 14.95 53.1375 15.15C53.1775 15.31 53.1875 15.47 53.1675 15.63C53.1675 15.79 53.1575 15.95 53.1375 16.11C53.0975 16.35 53.1075 16.55 53.1675 16.71C53.2275 16.97 53.2075 17.24 53.1075 17.52C53.0675 17.64 53.0675 17.72 53.1075 17.76C53.1475 17.82 53.1475 17.89 53.1075 17.97V18.15C53.0875 18.31 53.1575 18.39 53.3175 18.39H53.3775C53.5175 18.39 53.6575 18.44 53.7975 18.54C53.8975 18.64 54.0175 18.67 54.1575 18.63L54.9975 18.54C55.1175 18.52 55.2375 18.51 55.3575 18.51C55.4775 18.49 55.5975 18.48 55.7175 18.48C55.7575 18.46 55.8175 18.47 55.8975 18.51C55.9975 18.57 56.0875 18.58 56.1675 18.54C56.2075 18.5 56.2575 18.47 56.3175 18.45C56.3975 18.43 56.4575 18.4 56.4975 18.36C56.6175 18.24 56.7675 18.2 56.9475 18.24C57.1075 18.28 57.2375 18.27 57.3375 18.21C57.5175 18.15 57.6875 18.13 57.8475 18.15C57.9475 18.17 58.0475 18.16 58.1475 18.12C58.2475 18.08 58.3475 18.06 58.4475 18.06C58.4875 18.06 58.5175 18.07 58.5375 18.09C58.5575 18.09 58.5775 18.08 58.5975 18.06C58.6375 18.06 58.6775 18.05 58.7175 18.03C58.7575 18.01 58.7875 18 58.8075 18C58.9475 17.94 59.0775 17.92 59.1975 17.94C59.2975 17.94 59.3475 17.94 59.3475 17.94C59.4275 17.92 59.4975 17.92 59.5575 17.94C59.6375 17.96 59.7075 17.99 59.7675 18.03C59.8675 18.05 59.9475 18.08 60.0075 18.12C60.0875 18.16 60.1675 18.19 60.2475 18.21C60.2875 18.21 60.3175 18.22 60.3375 18.24C60.4375 18.32 60.5575 18.39 60.6975 18.45C60.8575 18.51 60.9475 18.58 60.9675 18.66C61.0075 18.78 61.0275 18.9 61.0275 19.02C61.0275 19.12 61.0375 19.23 61.0575 19.35C61.0575 19.41 61.0475 19.47 61.0275 19.53C61.0275 19.59 61.0175 19.65 60.9975 19.71C60.9575 19.79 60.9075 19.88 60.8475 19.98C60.8075 20.08 60.7475 20.17 60.6675 20.25C60.6275 20.29 60.5875 20.33 60.5475 20.37C60.5275 20.41 60.4975 20.45 60.4575 20.49C60.3775 20.57 60.2875 20.64 60.1875 20.7C60.0875 20.76 59.9775 20.79 59.8575 20.79C59.7775 20.79 59.7175 20.8 59.6775 20.82C59.5975 20.86 59.5175 20.88 59.4375 20.88C59.3575 20.88 59.2675 20.88 59.1675 20.88C59.0275 20.9 58.8875 20.92 58.7475 20.94C58.6275 20.94 58.4975 20.93 58.3575 20.91C58.2775 20.89 58.2075 20.89 58.1475 20.91C57.9475 20.97 57.7475 20.98 57.5475 20.94C57.3475 20.94 57.1475 20.95 56.9475 20.97C56.7675 20.97 56.5875 20.97 56.4075 20.97H56.0175C55.9575 20.97 55.9075 20.98 55.8675 21C55.7875 21.04 55.6875 21.06 55.5675 21.06C55.4675 21.06 55.3675 21.05 55.2675 21.03H54.9675C54.9475 21.03 54.9175 21.03 54.8775 21.03C54.8375 21.05 54.7975 21.05 54.7575 21.03C54.6975 21.01 54.6375 21 54.5775 21C54.5375 21.02 54.4875 21.04 54.4275 21.06C54.3875 21.06 54.3475 21.06 54.3075 21.06C54.2875 21.08 54.2575 21.09 54.2175 21.09C54.0175 21.07 53.8275 21.07 53.6475 21.09C53.4675 21.13 53.2775 21.17 53.0775 21.21ZM85.2843 21.6C85.0843 21.58 84.8843 21.55 84.6843 21.51C84.5043 21.49 84.3243 21.44 84.1443 21.36L83.3943 21.09C83.1343 20.99 82.8943 20.88 82.6743 20.76C82.4543 20.62 82.2343 20.48 82.0143 20.34C81.9143 20.24 81.8143 20.15 81.7143 20.07C81.6143 19.97 81.5143 19.88 81.4143 19.8C81.2543 19.64 81.0943 19.48 80.9343 19.32C80.7743 19.14 80.6243 18.95 80.4843 18.75L79.7643 17.64C79.5843 17.36 79.4243 17.07 79.2843 16.77C79.1443 16.45 79.0243 16.13 78.9243 15.81C78.7043 15.21 78.5943 14.62 78.5943 14.04V13.56C78.5943 13.06 78.6243 12.57 78.6843 12.09C78.7243 11.69 78.8143 11.33 78.9543 11.01C79.0343 10.81 79.1043 10.61 79.1643 10.41C79.2243 10.21 79.2943 10.02 79.3743 9.84L79.4643 9.63C79.5043 9.37 79.5943 9.14 79.7343 8.94C79.8743 8.72 79.9943 8.51 80.0943 8.31C80.1743 8.15 80.2643 8.01 80.3643 7.89C80.4643 7.75 80.5543 7.61 80.6343 7.47C80.6743 7.41 80.7243 7.36 80.7843 7.32C80.8443 7.26 80.8943 7.2 80.9343 7.14C80.9743 7.1 81.0043 7.05 81.0243 6.99C81.0643 6.91 81.0943 6.84 81.1143 6.78C81.1543 6.72 81.2243 6.64 81.3243 6.54C81.4443 6.48 81.5543 6.34 81.6543 6.12C81.6943 6.04 81.7343 5.98 81.7743 5.94C81.8943 5.84 81.9943 5.72 82.0743 5.58C82.1743 5.44 82.2843 5.31 82.4043 5.19C82.4843 5.11 82.5243 5 82.5243 4.86C82.5243 4.76 82.5243 4.67 82.5243 4.59C82.5443 4.49 82.5443 4.4 82.5243 4.32C82.5043 4.22 82.5343 4.13 82.6143 4.05C82.6543 4.01 82.6843 3.96 82.7043 3.9C82.7243 3.84 82.7443 3.78 82.7643 3.72C82.8243 3.52 82.9843 3.35 83.2443 3.21C83.2843 3.17 83.3343 3.15 83.3943 3.15C83.4743 3.13 83.5443 3.11 83.6043 3.09C83.7443 3.03 83.9043 3.02 84.0843 3.06C84.1643 3.08 84.2343 3.09 84.2943 3.09C84.3543 3.07 84.4143 3.05 84.4743 3.03C84.5543 2.99 84.6243 2.96 84.6843 2.94C84.7643 2.92 84.8343 2.9 84.8943 2.88C85.1743 2.78 85.4643 2.79 85.7643 2.91C86.0843 3.03 86.3143 3.24 86.4543 3.54C86.4943 3.64 86.5343 3.74 86.5743 3.84C86.6143 3.94 86.6443 4.04 86.6643 4.14C86.7043 4.36 86.6943 4.55 86.6343 4.71C86.5943 4.79 86.5743 4.84 86.5743 4.86C86.5543 4.94 86.5743 5.01 86.6343 5.07C86.6743 5.13 86.7243 5.18 86.7843 5.22C87.0043 5.42 87.2143 5.62 87.4143 5.82C87.6143 6 87.8043 6.2 87.9843 6.42C88.1443 6.58 88.2743 6.75 88.3743 6.93C88.4943 7.09 88.6043 7.27 88.7043 7.47C88.7443 7.57 88.7943 7.68 88.8543 7.8C88.9143 7.9 88.9743 8 89.0343 8.1C89.1343 8.28 89.2143 8.47 89.2743 8.67C89.3543 8.87 89.4343 9.07 89.5143 9.27V9.3C89.5543 9.44 89.5843 9.59 89.6043 9.75C89.6443 9.89 89.7043 10.04 89.7843 10.2C89.8443 10.34 89.8943 10.49 89.9343 10.65C89.9743 10.79 90.0143 10.94 90.0543 11.1C90.0943 11.28 90.1343 11.46 90.1743 11.64C90.2343 11.82 90.2743 12 90.2943 12.18C90.3143 12.26 90.3343 12.34 90.3543 12.42C90.3743 12.48 90.3943 12.55 90.4143 12.63C90.4543 12.81 90.4943 12.99 90.5343 13.17C90.5743 13.35 90.6043 13.53 90.6243 13.71L90.7143 13.92C90.7543 14.04 90.7943 14.2 90.8343 14.4C90.8943 14.66 90.9243 14.92 90.9243 15.18C90.9443 15.44 90.9443 15.71 90.9243 15.99C90.9243 16.13 90.9143 16.24 90.8943 16.32C90.7743 16.74 90.6243 17.17 90.4443 17.61C90.3643 17.75 90.2843 17.89 90.2043 18.03C90.1243 18.15 90.0443 18.28 89.9643 18.42L89.6943 18.84C89.5943 19.02 89.4843 19.18 89.3643 19.32C89.1643 19.64 88.9243 19.92 88.6443 20.16C88.3643 20.4 88.0643 20.63 87.7443 20.85C87.0443 21.39 86.2243 21.64 85.2843 21.6ZM85.1643 18.63C85.5843 18.63 85.9443 18.51 86.2443 18.27C86.3443 18.17 86.4443 18.08 86.5443 18C86.6643 17.9 86.7643 17.8 86.8443 17.7C87.2243 17.28 87.5243 16.84 87.7443 16.38L87.8343 16.08C87.8743 15.72 87.8743 15.36 87.8343 15L87.6543 14.01C87.5943 13.75 87.5443 13.5 87.5043 13.26C87.4643 13 87.4043 12.75 87.3243 12.51C87.2643 12.37 87.2443 12.26 87.2643 12.18C87.2843 12.08 87.2843 11.98 87.2643 11.88C87.2443 11.78 87.2143 11.68 87.1743 11.58C87.1143 11.32 87.0443 11.06 86.9643 10.8C86.8843 10.54 86.8043 10.28 86.7243 10.02C86.7043 9.96 86.6843 9.9 86.6643 9.84C86.6443 9.78 86.6243 9.72 86.6043 9.66C86.4643 9.38 86.3143 9.11 86.1543 8.85C85.9943 8.59 85.8143 8.35 85.6143 8.13C85.5143 8.01 85.4043 7.9 85.2843 7.8C85.1643 7.68 85.0443 7.57 84.9243 7.47C84.9043 7.43 84.8743 7.41 84.8343 7.41C84.8143 7.39 84.7843 7.37 84.7443 7.35C84.6843 7.27 84.6043 7.28 84.5043 7.38C84.4043 7.48 84.2943 7.59 84.1743 7.71C84.0743 7.83 83.9743 7.95 83.8743 8.07C83.7743 8.21 83.6643 8.35 83.5443 8.49C83.4443 8.63 83.3443 8.77 83.2443 8.91C83.1043 9.09 82.9743 9.27 82.8543 9.45C82.7343 9.63 82.6143 9.81 82.4943 9.99C82.0743 10.67 81.7443 11.42 81.5043 12.24C81.4643 12.36 81.4443 12.45 81.4443 12.51C81.4243 12.65 81.4043 12.79 81.3843 12.93C81.3843 13.07 81.3843 13.22 81.3843 13.38V13.62C81.4043 13.68 81.4143 13.74 81.4143 13.8C81.4143 13.86 81.4243 13.92 81.4443 13.98C81.4443 14.22 81.5043 14.48 81.6243 14.76C81.7843 15.16 81.9643 15.55 82.1643 15.93C82.3643 16.31 82.5943 16.67 82.8543 17.01C82.9143 17.09 82.9743 17.17 83.0343 17.25C83.1143 17.33 83.1843 17.41 83.2443 17.49C83.4243 17.69 83.6143 17.87 83.8143 18.03C84.0343 18.19 84.2543 18.33 84.4743 18.45C84.7143 18.57 84.9443 18.63 85.1643 18.63ZM104.572 21.27C104.512 21.25 104.442 21.23 104.362 21.21C104.302 21.19 104.242 21.17 104.182 21.15C104.022 21.09 103.862 21.01 103.702 20.91C103.622 20.87 103.562 20.81 103.522 20.73C103.382 20.51 103.252 20.31 103.132 20.13C103.012 19.93 102.882 19.73 102.742 19.53L102.472 19.05C102.332 18.77 102.192 18.5 102.052 18.24C101.912 17.96 101.772 17.69 101.632 17.43C101.592 17.33 101.542 17.25 101.482 17.19C101.442 17.11 101.402 17.03 101.362 16.95C101.222 16.73 101.092 16.51 100.972 16.29C100.852 16.05 100.732 15.82 100.612 15.6L99.8622 14.13C99.6622 13.73 99.4622 13.34 99.2622 12.96C99.0622 12.56 98.8622 12.16 98.6622 11.76C98.6222 11.72 98.5822 11.66 98.5422 11.58C98.4622 11.36 98.3622 11.15 98.2422 10.95C98.1422 10.75 98.0422 10.55 97.9422 10.35C97.8622 10.21 97.7922 10.07 97.7322 9.93C97.6722 9.77 97.6022 9.62 97.5222 9.48L97.1922 8.88C97.1522 8.88 97.1222 8.87 97.1022 8.85C97.1022 8.85 97.0922 8.86 97.0722 8.88C97.0722 8.88 97.0722 8.89 97.0722 8.91C97.0522 9.17 97.0322 9.44 97.0122 9.72C96.9922 10 96.9922 10.28 97.0122 10.56C97.0522 10.68 97.0522 10.81 97.0122 10.95C96.9722 11.31 96.9822 11.63 97.0422 11.91C97.0622 11.99 97.0622 12.07 97.0422 12.15C97.0422 12.23 97.0322 12.32 97.0122 12.42C96.9922 12.56 96.9822 12.69 96.9822 12.81C96.9822 12.93 96.9722 13.06 96.9522 13.2C96.9922 13.28 97.0122 13.37 97.0122 13.47C97.0122 13.55 97.0022 13.63 96.9822 13.71C96.9222 13.91 96.9222 14.12 96.9822 14.34C97.0222 14.4 97.0222 14.46 96.9822 14.52C96.9022 14.7 96.8822 14.92 96.9222 15.18C96.9822 15.52 96.9622 15.89 96.8622 16.29C96.8422 16.33 96.8322 16.4 96.8322 16.5C96.8122 16.58 96.8322 16.65 96.8922 16.71C96.9722 16.75 96.9922 16.8 96.9522 16.86C96.9322 17.12 96.9322 17.39 96.9522 17.67C96.9522 17.67 96.9522 17.68 96.9522 17.7C96.9522 17.7 96.9422 17.7 96.9222 17.7C96.9022 17.7 96.8922 17.69 96.8922 17.67C96.8722 17.65 96.8622 17.63 96.8622 17.61C96.8222 17.57 96.8022 17.58 96.8022 17.64C96.8022 17.74 96.8122 17.8 96.8322 17.82C96.8722 17.92 96.8922 18.02 96.8922 18.12C96.8922 18.22 96.8922 18.32 96.8922 18.42V19.35C96.8922 19.41 96.8822 19.47 96.8622 19.53C96.8622 19.59 96.8322 19.64 96.7722 19.68C96.6922 19.7 96.6522 19.77 96.6522 19.89C96.6322 20.11 96.5522 20.3 96.4122 20.46C96.2922 20.62 96.1522 20.76 95.9922 20.88C95.9122 20.94 95.8122 20.98 95.6922 21C95.5922 21 95.4922 20.99 95.3922 20.97L94.8522 20.79C94.8122 20.79 94.7722 20.76 94.7322 20.7C94.6722 20.64 94.6122 20.58 94.5522 20.52C94.4922 20.44 94.4222 20.37 94.3422 20.31C94.2422 20.25 94.1722 20.14 94.1322 19.98C94.1122 19.88 94.0822 19.77 94.0422 19.65C94.0022 19.53 93.9822 19.41 93.9822 19.29C93.9822 19.15 93.9822 19.02 93.9822 18.9C94.0022 18.78 94.0122 18.65 94.0122 18.51C94.0322 18.41 94.0422 18.32 94.0422 18.24C94.0422 18.14 94.0522 18.04 94.0722 17.94V6.96C94.0722 6.86 94.0722 6.76 94.0722 6.66C94.0922 6.56 94.1122 6.47 94.1322 6.39C94.1322 6.29 94.1322 6.19 94.1322 6.09C94.1522 5.99 94.1622 5.89 94.1622 5.79C94.1622 5.67 94.1622 5.55 94.1622 5.43C94.1822 5.31 94.2022 5.2 94.2222 5.1C94.2422 5.02 94.2522 4.95 94.2522 4.89C94.2522 4.83 94.2522 4.76 94.2522 4.68V3.75C94.2522 3.61 94.2622 3.49 94.2822 3.39C94.3222 3.27 94.3522 3.15 94.3722 3.03L94.4622 2.88C94.5222 2.82 94.5722 2.73 94.6122 2.61C94.6522 2.49 94.7122 2.43 94.7922 2.43C94.8522 2.39 94.9122 2.36 94.9722 2.34C95.0322 2.3 95.0722 2.24 95.0922 2.16L95.1222 2.13C95.1422 2.13 95.1622 2.13 95.1822 2.13C95.2022 2.11 95.2222 2.1 95.2422 2.1C95.3222 2.1 95.3822 2.08 95.4222 2.04C95.4822 2 95.5522 1.99 95.6322 2.01C95.7122 2.03 95.7922 2.04 95.8722 2.04C95.9522 2.04 96.0322 2.05 96.1122 2.07C96.5522 2.15 96.8622 2.41 97.0422 2.85L97.2222 3.45C97.2422 3.65 97.3322 3.84 97.4922 4.02C97.6122 4.16 97.7322 4.31 97.8522 4.47C97.9722 4.63 98.1022 4.79 98.2422 4.95C98.7622 5.61 99.2422 6.35 99.6822 7.17C99.7222 7.25 99.7622 7.33 99.8022 7.41C99.8422 7.49 99.8822 7.57 99.9222 7.65L101.482 10.8C101.602 11.02 101.712 11.25 101.812 11.49C101.932 11.71 102.062 11.93 102.202 12.15C102.242 12.23 102.282 12.31 102.322 12.39C102.362 12.45 102.392 12.52 102.412 12.6C102.512 12.84 102.632 13.08 102.772 13.32C102.772 13.32 102.772 13.33 102.772 13.35C102.792 13.35 102.802 13.34 102.802 13.32C102.822 13.32 102.832 13.32 102.832 13.32C102.852 13.3 102.862 13.29 102.862 13.29L102.952 12.24V11.94C102.972 11.84 102.982 11.74 102.982 11.64C103.002 11.52 103.022 11.41 103.042 11.31C103.062 11.25 103.062 11.18 103.042 11.1C103.042 11.02 103.052 10.94 103.072 10.86C103.072 10.74 103.072 10.62 103.072 10.5C103.092 10.36 103.112 10.23 103.132 10.11C103.152 10.05 103.162 9.99 103.162 9.93C103.162 9.85 103.162 9.78 103.162 9.72V8.91H103.132V8.1C103.132 8 103.132 7.9 103.132 7.8C103.132 7.7 103.112 7.6 103.072 7.5C103.052 7.44 103.042 7.35 103.042 7.23L103.072 7.02C103.072 6.96 103.062 6.91 103.042 6.87C103.042 6.81 103.042 6.75 103.042 6.69C103.062 6.61 103.052 6.53 103.012 6.45C102.972 6.37 102.952 6.29 102.952 6.21C102.972 6.13 102.982 6.05 102.982 5.97C102.982 5.89 102.982 5.81 102.982 5.73C102.982 5.65 102.942 5.61 102.862 5.61C102.842 5.61 102.832 5.59 102.832 5.55C102.812 5.49 102.812 5.44 102.832 5.4C102.872 5.3 102.892 5.19 102.892 5.07C102.892 4.95 102.892 4.83 102.892 4.71V3.84C102.872 3.72 102.882 3.6 102.922 3.48C102.962 3.36 103.012 3.25 103.072 3.15L103.192 2.97C103.292 2.87 103.402 2.77 103.522 2.67C103.642 2.57 103.762 2.47 103.882 2.37C103.882 2.37 103.922 2.35 104.002 2.31C104.102 2.29 104.192 2.27 104.272 2.25C104.372 2.23 104.472 2.23 104.572 2.25C104.652 2.25 104.712 2.26 104.752 2.28C104.832 2.32 104.912 2.37 104.992 2.43C105.072 2.47 105.152 2.52 105.232 2.58C105.272 2.6 105.292 2.62 105.292 2.64C105.312 2.66 105.332 2.68 105.352 2.7C105.392 2.74 105.422 2.79 105.442 2.85C105.482 2.89 105.512 2.93 105.532 2.97C105.632 3.05 105.692 3.15 105.712 3.27C105.752 3.37 105.782 3.47 105.802 3.57V4.83C105.802 4.97 105.802 5.11 105.802 5.25C105.822 5.37 105.842 5.5 105.862 5.64C105.882 5.72 105.892 5.8 105.892 5.88C105.892 5.94 105.892 6.01 105.892 6.09C105.892 6.25 105.892 6.42 105.892 6.6C105.912 6.76 105.922 6.92 105.922 7.08V7.29C105.922 7.43 105.912 7.57 105.892 7.71C105.892 7.83 105.892 7.96 105.892 8.1V9.42C105.892 9.62 105.882 9.83 105.862 10.05C105.862 10.25 105.872 10.46 105.892 10.68C105.892 10.76 105.882 10.82 105.862 10.86C105.842 11.06 105.832 11.26 105.832 11.46C105.832 11.64 105.822 11.83 105.802 12.03C105.802 12.11 105.802 12.2 105.802 12.3C105.802 12.4 105.792 12.5 105.772 12.6C105.752 12.68 105.742 12.76 105.742 12.84C105.762 12.92 105.772 13 105.772 13.08C105.812 13.26 105.822 13.44 105.802 13.62C105.802 13.8 105.792 13.98 105.772 14.16C105.752 14.48 105.732 14.81 105.712 15.15C105.712 15.47 105.732 15.8 105.772 16.14C105.772 16.22 105.772 16.31 105.772 16.41C105.792 16.51 105.802 16.61 105.802 16.71C105.782 17.01 105.792 17.3 105.832 17.58C105.892 17.86 105.952 18.14 106.012 18.42C106.052 18.62 106.092 18.82 106.132 19.02C106.172 19.2 106.202 19.4 106.222 19.62C106.222 19.7 106.212 19.75 106.192 19.77C106.172 19.81 106.152 19.86 106.132 19.92C106.112 19.96 106.102 20 106.102 20.04C106.082 20.2 106.022 20.35 105.922 20.49C105.842 20.63 105.752 20.77 105.652 20.91C105.392 21.25 105.032 21.37 104.572 21.27ZM122.382 23.4C122.162 23.36 122.012 23.26 121.932 23.1C121.872 22.98 121.822 22.85 121.782 22.71C121.762 22.59 121.742 22.47 121.722 22.35C121.702 22.19 121.682 22.02 121.662 21.84C121.642 21.68 121.622 21.52 121.602 21.36C121.582 21.16 121.552 20.97 121.512 20.79C121.472 20.61 121.412 20.42 121.332 20.22C121.312 20.16 121.292 20.11 121.272 20.07C121.252 20.01 121.222 19.95 121.182 19.89L120.822 19.14C120.722 18.94 120.672 18.74 120.672 18.54C120.652 18.28 120.642 18.03 120.642 17.79C120.642 17.55 120.652 17.31 120.672 17.07C120.672 16.99 120.692 16.89 120.732 16.77C120.772 16.57 120.812 16.38 120.852 16.2C120.912 16 120.952 15.81 120.972 15.63C121.012 15.39 121.052 15.16 121.092 14.94C121.132 14.7 121.162 14.47 121.182 14.25C121.222 14.03 121.252 13.81 121.272 13.59C121.292 13.37 121.312 13.15 121.332 12.93C121.352 12.77 121.372 12.62 121.392 12.48C121.412 12.32 121.432 12.17 121.452 12.03C121.472 11.97 121.482 11.88 121.482 11.76C121.482 11.66 121.492 11.56 121.512 11.46C121.532 11.34 121.552 11.23 121.572 11.13C121.612 10.97 121.632 10.81 121.632 10.65C121.652 10.47 121.672 10.3 121.692 10.14C121.712 10.08 121.722 10 121.722 9.9C121.782 9.68 121.822 9.45 121.842 9.21C121.882 8.97 121.912 8.73 121.932 8.49L122.022 7.98C122.062 7.76 122.092 7.54 122.112 7.32C122.132 7.08 122.152 6.85 122.172 6.63C122.212 6.41 122.232 6.19 122.232 5.97C122.232 5.73 122.232 5.5 122.232 5.28C122.232 5.16 122.232 5.05 122.232 4.95C122.252 4.83 122.272 4.71 122.292 4.59C122.332 4.07 122.292 3.57 122.172 3.09C122.152 3.07 122.142 3.05 122.142 3.03C122.062 2.77 122.052 2.53 122.112 2.31C122.172 2.09 122.272 1.88 122.412 1.68C122.652 1.28 122.992 1.04 123.432 0.959999C123.512 0.939999 123.582 0.929999 123.642 0.929999C123.702 0.909999 123.772 0.909999 123.852 0.929999C123.932 0.969999 124.002 0.989998 124.062 0.989998C124.242 1.01 124.412 1.09 124.572 1.23L124.842 1.59C124.982 1.83 125.112 2.01 125.232 2.13C125.552 2.53 125.832 2.96 126.072 3.42C126.212 3.68 126.332 3.94 126.432 4.2C126.552 4.44 126.672 4.68 126.792 4.92C126.852 5.06 126.902 5.19 126.942 5.31C127.002 5.43 127.062 5.55 127.122 5.67C127.162 5.73 127.222 5.8 127.302 5.88C127.382 6 127.422 6.09 127.422 6.15C127.462 6.23 127.452 6.3 127.392 6.36C127.372 6.38 127.372 6.41 127.392 6.45C127.412 6.49 127.432 6.53 127.452 6.57C127.472 6.59 127.512 6.71 127.572 6.93C127.632 7.13 127.652 7.2 127.632 7.14C127.672 7.24 127.732 7.29 127.812 7.29C127.872 7.31 127.912 7.35 127.932 7.41C127.952 7.45 127.922 7.5 127.842 7.56C127.782 7.58 127.782 7.66 127.842 7.8C127.902 7.92 127.942 8 127.962 8.04C128.042 8.24 128.112 8.44 128.172 8.64C128.232 8.82 128.302 9.01 128.382 9.21C128.482 9.47 128.572 9.74 128.652 10.02C128.732 10.3 128.812 10.58 128.892 10.86C128.952 11.06 129.012 11.26 129.072 11.46C129.152 11.64 129.222 11.82 129.282 12C129.282 12.04 129.302 12.06 129.342 12.06L129.402 12C129.402 11.96 129.422 11.9 129.462 11.82C129.502 11.6 129.552 11.38 129.612 11.16C129.672 10.92 129.732 10.69 129.792 10.47C129.892 10.17 129.972 9.87 130.032 9.57C130.112 9.27 130.192 8.97 130.272 8.67C130.312 8.49 130.362 8.31 130.422 8.13C130.482 7.93 130.522 7.74 130.542 7.56C130.622 7.22 130.702 6.89 130.782 6.57C130.862 6.25 130.932 5.93 130.992 5.61C131.012 5.57 131.022 5.53 131.022 5.49C131.042 5.45 131.052 5.41 131.052 5.37C131.072 5.17 131.132 4.98 131.232 4.8C131.432 4.38 131.762 4.11 132.222 3.99C132.442 3.93 132.662 3.93 132.882 3.99C133.062 4.03 133.192 4.1 133.272 4.2C133.412 4.34 133.542 4.48 133.662 4.62C133.802 4.76 133.922 4.91 134.022 5.07C134.102 5.19 134.182 5.31 134.262 5.43C134.342 5.53 134.422 5.64 134.502 5.76C134.562 5.84 134.622 5.93 134.682 6.03C134.742 6.11 134.792 6.2 134.832 6.3C134.992 6.58 135.142 6.87 135.282 7.17C135.422 7.47 135.542 7.78 135.642 8.1C135.642 8.14 135.652 8.17 135.672 8.19C135.772 8.39 135.852 8.6 135.912 8.82C135.972 9.02 136.032 9.23 136.092 9.45C136.172 9.67 136.232 9.89 136.272 10.11C136.332 10.33 136.392 10.55 136.452 10.77C136.452 10.85 136.462 10.91 136.482 10.95C136.542 11.11 136.592 11.28 136.632 11.46C136.672 11.64 136.712 11.81 136.752 11.97C136.792 12.21 136.832 12.45 136.872 12.69C136.912 12.93 136.952 13.16 136.992 13.38C137.032 13.68 137.072 13.98 137.112 14.28C137.152 14.58 137.202 14.88 137.262 15.18C137.302 15.38 137.332 15.59 137.352 15.81C137.392 16.03 137.422 16.25 137.442 16.47C137.442 16.53 137.462 16.62 137.502 16.74L137.592 17.46C137.592 17.56 137.602 17.63 137.622 17.67C137.722 18.05 137.782 18.44 137.802 18.84C137.822 18.86 137.832 18.89 137.832 18.93C137.832 18.95 137.842 18.98 137.862 19.02L138.072 20.22C138.112 20.36 138.112 20.51 138.072 20.67L138.012 20.91C138.012 21.07 137.982 21.22 137.922 21.36C137.862 21.5 137.792 21.64 137.712 21.78C137.652 21.86 137.582 21.94 137.502 22.02C137.422 22.12 137.332 22.2 137.232 22.26C137.012 22.42 136.792 22.43 136.572 22.29C136.112 21.99 135.772 21.62 135.552 21.18C135.532 21.1 135.502 21.03 135.462 20.97C135.442 20.89 135.432 20.81 135.432 20.73L135.342 20.16C135.322 20.06 135.302 19.96 135.282 19.86C135.282 19.74 135.272 19.63 135.252 19.53L134.952 17.79C134.932 17.65 134.912 17.52 134.892 17.4C134.872 17.28 134.852 17.15 134.832 17.01L134.712 16.35C134.672 16.13 134.632 15.91 134.592 15.69C134.552 15.45 134.512 15.22 134.472 15L134.172 13.08C134.152 12.8 134.102 12.53 134.022 12.27C133.962 11.99 133.902 11.72 133.842 11.46C133.762 11.14 133.672 10.84 133.572 10.56C133.472 10.26 133.362 9.97 133.242 9.69L133.152 9.42C133.132 9.36 133.102 9.3 133.062 9.24C133.022 9.18 132.982 9.13 132.942 9.09C132.882 9.09 132.852 9.1 132.852 9.12L132.762 9.42C132.682 9.68 132.612 9.96 132.552 10.26C132.492 10.54 132.422 10.82 132.342 11.1C132.302 11.26 132.262 11.42 132.222 11.58C132.182 11.74 132.142 11.9 132.102 12.06C132.062 12.2 132.022 12.35 131.982 12.51C131.962 12.65 131.932 12.8 131.892 12.96C131.852 13.2 131.802 13.44 131.742 13.68C131.682 13.92 131.632 14.16 131.592 14.4C131.572 14.58 131.542 14.76 131.502 14.94C131.482 15.12 131.462 15.3 131.442 15.48V15.66C131.482 15.82 131.442 15.96 131.322 16.08C131.302 16.14 131.272 16.2 131.232 16.26C131.212 16.3 131.192 16.35 131.172 16.41C131.132 16.59 131.082 16.72 131.022 16.8L130.932 17.01C130.912 17.03 130.892 17.07 130.872 17.13C130.872 17.17 130.852 17.21 130.812 17.25C130.672 17.49 130.492 17.65 130.272 17.73C130.192 17.77 130.112 17.81 130.032 17.85C129.972 17.89 129.902 17.93 129.822 17.97C129.622 18.07 129.412 18.06 129.192 17.94C128.892 17.74 128.662 17.52 128.502 17.28L127.962 16.5C127.962 16.48 127.952 16.47 127.932 16.47C127.932 16.45 127.932 16.44 127.932 16.44C127.852 16.22 127.762 16.02 127.662 15.84C127.562 15.66 127.482 15.47 127.422 15.27L127.062 14.22C126.962 13.96 126.872 13.7 126.792 13.44C126.712 13.18 126.622 12.92 126.522 12.66L126.432 12.42C126.392 12.24 126.342 12.06 126.282 11.88C126.242 11.7 126.192 11.53 126.132 11.37C126.092 11.19 126.042 11.02 125.982 10.86C125.922 10.68 125.872 10.51 125.832 10.35C125.752 10.13 125.672 9.91 125.592 9.69C125.532 9.45 125.452 9.22 125.352 9C125.312 8.86 125.252 8.75 125.172 8.67C125.012 8.51 124.902 8.32 124.842 8.1C124.842 8.06 124.822 8.04 124.782 8.04L124.722 8.1V8.13C124.702 8.15 124.692 8.18 124.692 8.22C124.672 8.42 124.652 8.63 124.632 8.85C124.612 9.07 124.582 9.29 124.542 9.51L124.452 10.5C124.432 10.66 124.412 10.82 124.392 10.98C124.392 11.14 124.382 11.3 124.362 11.46C124.342 11.54 124.322 11.62 124.302 11.7C124.302 11.78 124.302 11.87 124.302 11.97C124.282 12.47 124.222 13 124.122 13.56C124.102 13.7 124.082 13.86 124.062 14.04C124.042 14.2 124.022 14.36 124.002 14.52L123.912 15.18C123.852 15.54 123.822 15.89 123.822 16.23C123.822 16.37 123.822 16.51 123.822 16.65C123.842 16.79 123.832 16.93 123.792 17.07C123.772 17.25 123.792 17.46 123.852 17.7C123.932 17.84 123.962 17.98 123.942 18.12C123.942 18.26 123.922 18.41 123.882 18.57C123.862 18.69 123.822 18.81 123.762 18.93C123.722 19.05 123.652 19.16 123.552 19.26C123.512 19.32 123.462 19.39 123.402 19.47C123.362 19.55 123.312 19.62 123.252 19.68C123.092 19.88 123.012 20.1 123.012 20.34V21C123.012 21.16 123.002 21.31 122.982 21.45C122.982 21.61 122.992 21.77 123.012 21.93C123.012 21.95 123.002 21.97 122.982 21.99C122.982 22.01 122.982 22.04 122.982 22.08C122.962 22.14 122.952 22.2 122.952 22.26C122.952 22.32 122.952 22.38 122.952 22.44C122.972 22.62 122.952 22.81 122.892 23.01C122.792 23.19 122.662 23.31 122.502 23.37C122.462 23.39 122.422 23.4 122.382 23.4ZM144.337 21.21C144.217 21.21 144.137 21.2 144.097 21.18C143.997 21.14 143.897 21.12 143.797 21.12C143.717 21.14 143.627 21.15 143.527 21.15C143.507 21.15 143.487 21.15 143.467 21.15C143.447 21.17 143.427 21.18 143.407 21.18C143.267 21.2 143.127 21.21 142.987 21.21C142.867 21.21 142.747 21.19 142.627 21.15C142.607 21.13 142.587 21.12 142.567 21.12C142.427 21.14 142.307 21.1 142.207 21C142.107 20.9 142.007 20.81 141.907 20.73C141.807 20.63 141.757 20.52 141.757 20.4L141.667 20.16C141.607 20.02 141.587 19.89 141.607 19.77C141.627 19.73 141.627 19.69 141.607 19.65C141.607 19.61 141.607 19.57 141.607 19.53C141.587 19.49 141.577 19.45 141.577 19.41C141.577 19.35 141.567 19.3 141.547 19.26C141.507 19.08 141.477 18.9 141.457 18.72C141.457 18.52 141.467 18.33 141.487 18.15C141.507 18.03 141.577 17.83 141.697 17.55C141.817 17.25 141.887 17.07 141.907 17.01C141.967 16.91 141.997 16.83 141.997 16.77C141.977 16.55 141.967 16.33 141.967 16.11C141.987 15.87 141.997 15.64 141.997 15.42C141.997 15.28 142.027 15.17 142.087 15.09C142.167 14.95 142.177 14.8 142.117 14.64L142.027 14.31C141.907 14.09 141.917 13.9 142.057 13.74C142.057 13.72 142.057 13.71 142.057 13.71C142.077 13.69 142.087 13.67 142.087 13.65C142.127 13.61 142.137 13.56 142.117 13.5C142.097 13.42 142.087 13.36 142.087 13.32C142.087 13.24 142.097 13.16 142.117 13.08C142.157 12.98 142.167 12.89 142.147 12.81C142.147 12.81 142.127 12.79 142.087 12.75C142.067 12.71 142.057 12.63 142.057 12.51C142.077 12.39 142.087 12.32 142.087 12.3V11.46C142.107 11.36 142.117 11.27 142.117 11.19C142.117 11.09 142.127 10.99 142.147 10.89C142.167 10.77 142.167 10.65 142.147 10.53C142.147 10.39 142.147 10.25 142.147 10.11C142.127 10.01 142.107 9.9 142.087 9.78C142.087 9.66 142.087 9.54 142.087 9.42C142.067 9.38 142.057 9.33 142.057 9.27C142.057 9.21 142.057 9.16 142.057 9.12C142.037 9.02 142.017 8.92 141.997 8.82C141.997 8.72 141.997 8.62 141.997 8.52C141.997 8.48 141.957 8.35 141.877 8.13C141.797 7.89 141.767 7.69 141.787 7.53C141.807 7.49 141.817 7.44 141.817 7.38C141.817 7.32 141.797 7.27 141.757 7.23C141.717 7.21 141.697 7.17 141.697 7.11V7.02C141.757 6.78 141.727 6.54 141.607 6.3C141.527 6.18 141.497 6.06 141.517 5.94C141.517 5.78 141.447 5.66 141.307 5.58C141.207 5.48 141.117 5.36 141.037 5.22C140.957 5.08 140.907 4.94 140.887 4.8C140.867 4.7 140.857 4.6 140.857 4.5C140.857 4.4 140.857 4.31 140.857 4.23C140.857 4.15 140.867 4.1 140.887 4.08C140.967 4 141.007 3.91 141.007 3.81C141.007 3.69 141.017 3.6 141.037 3.54C141.057 3.52 141.077 3.51 141.097 3.51C141.117 3.51 141.137 3.5 141.157 3.48C141.237 3.46 141.277 3.39 141.277 3.27C141.237 3.19 141.217 3.12 141.217 3.06C141.197 2.98 141.227 2.91 141.307 2.85C141.347 2.77 141.397 2.75 141.457 2.79C141.597 2.85 141.757 2.83 141.937 2.73C142.017 2.69 142.067 2.67 142.087 2.67C142.147 2.67 142.177 2.67 142.177 2.67C142.197 2.65 142.257 2.64 142.357 2.64C142.477 2.66 142.587 2.62 142.687 2.52C142.827 2.38 142.997 2.31 143.197 2.31H145.057C145.517 2.33 145.977 2.33 146.437 2.31C146.897 2.29 147.347 2.28 147.787 2.28C147.887 2.28 147.967 2.28 148.027 2.28C148.107 2.26 148.187 2.24 148.267 2.22C148.387 2.16 148.527 2.13 148.687 2.13H149.377C149.537 2.13 149.677 2.13 149.797 2.13C149.937 2.11 150.077 2.09 150.217 2.07C150.297 2.05 150.367 2.04 150.427 2.04C150.507 2.04 150.587 2.04 150.667 2.04C150.747 2.04 150.827 2.04 150.907 2.04C150.987 2.04 151.067 2.03 151.147 2.01C151.307 1.99 151.477 1.98 151.657 1.98C151.837 1.96 152.007 1.95 152.167 1.95C152.247 1.95 152.317 1.95 152.377 1.95C152.457 1.93 152.537 1.91 152.617 1.89C152.777 1.85 152.927 1.83 153.067 1.83C153.227 1.81 153.377 1.79 153.517 1.77C153.677 1.75 153.827 1.73 153.967 1.71C154.127 1.69 154.277 1.67 154.417 1.65C154.597 1.65 154.727 1.67 154.807 1.71C154.927 1.79 155.037 1.86 155.137 1.92C155.257 1.98 155.367 2.06 155.467 2.16C155.547 2.24 155.597 2.31 155.617 2.37C155.637 2.45 155.657 2.53 155.677 2.61C155.697 2.69 155.717 2.78 155.737 2.88V3.09C155.717 3.19 155.697 3.3 155.677 3.42C155.677 3.52 155.667 3.63 155.647 3.75C155.607 3.83 155.557 3.9 155.497 3.96L154.957 4.5C154.757 4.56 154.557 4.6 154.357 4.62C154.177 4.64 153.987 4.64 153.787 4.62H153.577C153.477 4.64 153.377 4.65 153.277 4.65C153.177 4.65 153.077 4.64 152.977 4.62C152.857 4.6 152.737 4.6 152.617 4.62C152.497 4.62 152.377 4.62 152.257 4.62C152.177 4.62 152.097 4.63 152.017 4.65C151.957 4.65 151.887 4.64 151.807 4.62C151.707 4.6 151.607 4.6 151.507 4.62C151.427 4.62 151.337 4.63 151.237 4.65C151.157 4.65 151.067 4.66 150.967 4.68C150.887 4.68 150.797 4.68 150.697 4.68C150.437 4.72 150.157 4.74 149.857 4.74C149.577 4.74 149.297 4.76 149.017 4.8C148.837 4.78 148.667 4.79 148.507 4.83C148.347 4.85 148.177 4.87 147.997 4.89C147.837 4.91 147.667 4.92 147.487 4.92C147.307 4.92 147.137 4.94 146.977 4.98C146.777 4.98 146.577 5.01 146.377 5.07C146.197 5.11 146.007 5.14 145.807 5.16L145.597 5.19C145.457 5.19 145.327 5.21 145.207 5.25C145.087 5.27 144.957 5.3 144.817 5.34C144.737 5.36 144.657 5.38 144.577 5.4C144.497 5.4 144.407 5.41 144.307 5.43C144.247 5.43 144.177 5.45 144.097 5.49C144.037 5.51 144.007 5.57 144.007 5.67L144.097 5.94C144.117 5.98 144.107 6.08 144.067 6.24C144.047 6.4 144.027 6.52 144.007 6.6C144.007 6.66 144.017 6.72 144.037 6.78C144.057 6.84 144.077 6.9 144.097 6.96C144.157 7.12 144.187 7.3 144.187 7.5C144.187 7.68 144.207 7.85 144.247 8.01C144.267 8.09 144.277 8.18 144.277 8.28C144.277 8.36 144.287 8.45 144.307 8.55C144.307 8.59 144.307 8.64 144.307 8.7C144.327 8.74 144.337 8.79 144.337 8.85C144.337 8.91 144.327 8.95 144.307 8.97C144.247 9.05 144.217 9.14 144.217 9.24C144.217 9.34 144.217 9.44 144.217 9.54C144.317 9.74 144.367 9.94 144.367 10.14C144.367 10.34 144.367 10.54 144.367 10.74C144.367 10.8 144.417 10.82 144.517 10.8H144.547C144.587 10.72 144.627 10.66 144.667 10.62C144.727 10.62 144.797 10.6 144.877 10.56C144.937 10.52 145.017 10.5 145.117 10.5C145.277 10.52 145.427 10.52 145.567 10.5C145.707 10.46 145.847 10.42 145.987 10.38C146.927 10.14 147.807 9.83 148.627 9.45C148.847 9.35 149.077 9.27 149.317 9.21C149.557 9.13 149.797 9.08 150.037 9.06H150.127C150.307 9.04 150.487 9.02 150.667 9C150.847 8.98 151.027 8.97 151.207 8.97C151.447 8.95 151.677 8.92 151.897 8.88C152.137 8.84 152.377 8.81 152.617 8.79C152.757 8.75 152.887 8.72 153.007 8.7C153.127 8.66 153.257 8.61 153.397 8.55C153.657 8.45 153.897 8.4 154.117 8.4C154.277 8.42 154.427 8.46 154.567 8.52C154.707 8.56 154.847 8.62 154.987 8.7C155.287 8.9 155.437 9.2 155.437 9.6C155.437 9.76 155.417 9.92 155.377 10.08C155.357 10.24 155.347 10.4 155.347 10.56C155.347 10.6 155.327 10.64 155.287 10.68L155.197 10.83C155.177 10.91 155.157 10.99 155.137 11.07C155.117 11.15 155.067 11.21 154.987 11.25C154.867 11.35 154.737 11.46 154.597 11.58C154.477 11.68 154.337 11.75 154.177 11.79C154.097 11.81 154.017 11.83 153.937 11.85C153.877 11.87 153.807 11.88 153.727 11.88C153.407 11.88 153.077 11.9 152.737 11.94C152.417 11.98 152.087 12.02 151.747 12.06C151.487 12.08 151.227 12.11 150.967 12.15C150.727 12.19 150.477 12.21 150.217 12.21C149.977 12.21 149.707 12.26 149.407 12.36C149.207 12.4 148.997 12.44 148.777 12.48C148.557 12.52 148.337 12.55 148.117 12.57C147.957 12.59 147.787 12.62 147.607 12.66C147.447 12.68 147.287 12.7 147.127 12.72L146.617 12.81C146.577 12.83 146.517 12.84 146.437 12.84C146.297 12.88 146.157 12.91 146.017 12.93C145.877 12.95 145.737 12.98 145.597 13.02C145.457 13.04 145.317 13.07 145.177 13.11C145.057 13.15 144.927 13.19 144.787 13.23C144.687 13.25 144.607 13.29 144.547 13.35C144.487 13.39 144.437 13.45 144.397 13.53C144.377 13.59 144.377 13.65 144.397 13.71C144.417 13.79 144.407 13.87 144.367 13.95C144.387 14.15 144.397 14.35 144.397 14.55C144.417 14.75 144.417 14.95 144.397 15.15C144.437 15.31 144.447 15.47 144.427 15.63C144.427 15.79 144.417 15.95 144.397 16.11C144.357 16.35 144.367 16.55 144.427 16.71C144.487 16.97 144.467 17.24 144.367 17.52C144.327 17.64 144.327 17.72 144.367 17.76C144.407 17.82 144.407 17.89 144.367 17.97V18.15C144.347 18.31 144.417 18.39 144.577 18.39H144.637C144.777 18.39 144.917 18.44 145.057 18.54C145.157 18.64 145.277 18.67 145.417 18.63L146.257 18.54C146.377 18.52 146.497 18.51 146.617 18.51C146.737 18.49 146.857 18.48 146.977 18.48C147.017 18.46 147.077 18.47 147.157 18.51C147.257 18.57 147.347 18.58 147.427 18.54C147.467 18.5 147.517 18.47 147.577 18.45C147.657 18.43 147.717 18.4 147.757 18.36C147.877 18.24 148.027 18.2 148.207 18.24C148.367 18.28 148.497 18.27 148.597 18.21C148.777 18.15 148.947 18.13 149.107 18.15C149.207 18.17 149.307 18.16 149.407 18.12C149.507 18.08 149.607 18.06 149.707 18.06C149.747 18.06 149.777 18.07 149.797 18.09C149.817 18.09 149.837 18.08 149.857 18.06C149.897 18.06 149.937 18.05 149.977 18.03C150.017 18.01 150.047 18 150.067 18C150.207 17.94 150.337 17.92 150.457 17.94C150.557 17.94 150.607 17.94 150.607 17.94C150.687 17.92 150.757 17.92 150.817 17.94C150.897 17.96 150.967 17.99 151.027 18.03C151.127 18.05 151.207 18.08 151.267 18.12C151.347 18.16 151.427 18.19 151.507 18.21C151.547 18.21 151.577 18.22 151.597 18.24C151.697 18.32 151.817 18.39 151.957 18.45C152.117 18.51 152.207 18.58 152.227 18.66C152.267 18.78 152.287 18.9 152.287 19.02C152.287 19.12 152.297 19.23 152.317 19.35C152.317 19.41 152.307 19.47 152.287 19.53C152.287 19.59 152.277 19.65 152.257 19.71C152.217 19.79 152.167 19.88 152.107 19.98C152.067 20.08 152.007 20.17 151.927 20.25C151.887 20.29 151.847 20.33 151.807 20.37C151.787 20.41 151.757 20.45 151.717 20.49C151.637 20.57 151.547 20.64 151.447 20.7C151.347 20.76 151.237 20.79 151.117 20.79C151.037 20.79 150.977 20.8 150.937 20.82C150.857 20.86 150.777 20.88 150.697 20.88C150.617 20.88 150.527 20.88 150.427 20.88C150.287 20.9 150.147 20.92 150.007 20.94C149.887 20.94 149.757 20.93 149.617 20.91C149.537 20.89 149.467 20.89 149.407 20.91C149.207 20.97 149.007 20.98 148.807 20.94C148.607 20.94 148.407 20.95 148.207 20.97C148.027 20.97 147.847 20.97 147.667 20.97H147.277C147.217 20.97 147.167 20.98 147.127 21C147.047 21.04 146.947 21.06 146.827 21.06C146.727 21.06 146.627 21.05 146.527 21.03H146.227C146.207 21.03 146.177 21.03 146.137 21.03C146.097 21.05 146.057 21.05 146.017 21.03C145.957 21.01 145.897 21 145.837 21C145.797 21.02 145.747 21.04 145.687 21.06C145.647 21.06 145.607 21.06 145.567 21.06C145.547 21.08 145.517 21.09 145.477 21.09C145.277 21.07 145.087 21.07 144.907 21.09C144.727 21.13 144.537 21.17 144.337 21.21Z" fill="#353535"/>
</svg>
