<svg width="121" height="20" viewBox="0 0 121 20" fill="none" xmlns="http://www.w3.org/2000/svg">
<path d="M9.14912 17.975C8.93245 18.025 8.70745 18.0083 8.47412 17.925C8.40745 17.9083 8.34912 17.8833 8.29912 17.85C8.26579 17.8167 8.22412 17.7833 8.17412 17.75C8.05745 17.6667 7.96579 17.5417 7.89912 17.375L7.79912 17.05C7.79912 17.0167 7.79079 16.9917 7.77412 16.975C7.77412 16.9417 7.77412 16.9167 7.77412 16.9C7.77412 16.6667 7.75745 16.4417 7.72412 16.225C7.69079 15.9917 7.65745 15.7667 7.62412 15.55C7.59079 15.3833 7.55746 15.2167 7.52412 15.05C7.50745 14.8833 7.48245 14.7167 7.44912 14.55C7.44912 14.5167 7.44079 14.4917 7.42412 14.475C7.42412 14.4583 7.42412 14.4417 7.42412 14.425C7.39079 14.225 7.35745 14.025 7.32412 13.825C7.29079 13.625 7.25745 13.4333 7.22412 13.25C7.20745 13.15 7.19079 13.05 7.17412 12.95C7.17412 12.85 7.15745 12.75 7.12412 12.65L6.97412 11.55C6.95745 11.4 6.93245 11.25 6.89912 11.1C6.88246 10.9333 6.85746 10.7667 6.82412 10.6C6.80745 10.4333 6.78245 10.275 6.74912 10.125C6.71579 9.95833 6.68245 9.8 6.64912 9.65L6.27412 8C6.24079 7.81667 6.20745 7.63333 6.17412 7.45C6.14079 7.26667 6.09912 7.09167 6.04912 6.925C5.99912 6.775 5.95745 6.625 5.92412 6.475C5.89079 6.30833 5.84079 6.15 5.77412 6L5.74912 5.9C5.69912 5.68333 5.63245 5.475 5.54912 5.275C5.48245 5.075 5.40745 4.875 5.32412 4.675C5.32412 4.65833 5.31579 4.65 5.29912 4.65C5.29912 4.63333 5.29912 4.625 5.29912 4.625C5.26579 4.525 5.20745 4.49167 5.12412 4.525C5.10745 4.54167 5.08245 4.55 5.04912 4.55C4.98245 4.56667 4.91579 4.59167 4.84912 4.625C4.79912 4.65833 4.74079 4.69167 4.67412 4.725C4.50745 4.775 4.36579 4.85 4.24912 4.95L3.57412 5.425C3.47412 5.475 3.38245 5.54167 3.29912 5.625C3.23245 5.70833 3.16579 5.79167 3.09912 5.875C3.04912 5.94167 3.02412 6.01667 3.02412 6.1L2.94912 6.55C2.93245 6.71667 2.91579 6.89167 2.89912 7.075C2.88245 7.25833 2.86579 7.44167 2.84912 7.625C2.83245 7.79167 2.80745 7.95 2.77412 8.1C2.75745 8.23333 2.74912 8.38333 2.74912 8.55C2.74912 8.68333 2.72412 8.825 2.67412 8.975C2.62412 9.15833 2.49912 9.275 2.29912 9.325C2.14912 9.34167 2.02412 9.29167 1.92412 9.175C1.84079 9.09167 1.78245 8.96667 1.74912 8.8C1.73245 8.68333 1.71579 8.575 1.69912 8.475C1.68245 8.375 1.67412 8.26667 1.67412 8.15V7.4C1.67412 7.25 1.66579 7.10833 1.64912 6.975C1.64912 6.84167 1.65745 6.71667 1.67412 6.6C1.67412 6.31667 1.60745 6.04167 1.47412 5.775L1.09912 5C1.03245 4.86667 0.974121 4.69167 0.924121 4.475C0.874121 4.24167 0.849121 4.05 0.849121 3.9C0.882454 3.51667 1.02412 3.2 1.27412 2.95C1.49079 2.73333 1.74079 2.59167 2.02412 2.525C2.12412 2.49167 2.25745 2.45833 2.42412 2.425L3.74912 2.2C3.88245 2.18333 4.00745 2.16667 4.12412 2.15C4.25745 2.11667 4.38245 2.09167 4.49912 2.075C4.74912 2.04167 4.99912 2.00833 5.24912 1.975C5.51579 1.94167 5.78245 1.91667 6.04912 1.9C6.19912 1.88333 6.34912 1.86667 6.49912 1.85C6.64912 1.83333 6.79912 1.81667 6.94912 1.8H7.04912C7.19912 1.78333 7.34079 1.775 7.47412 1.775C7.62412 1.75833 7.77412 1.74167 7.92412 1.725C8.00745 1.70833 8.09079 1.7 8.17412 1.7C8.25745 1.7 8.33245 1.69167 8.39912 1.675C8.41579 1.65833 8.44912 1.65 8.49912 1.65L9.42412 1.575C9.60745 1.55833 9.78245 1.54167 9.94912 1.525C10.1325 1.50833 10.3158 1.49167 10.4991 1.475C10.6491 1.45833 10.7991 1.44167 10.9491 1.425C11.0991 1.39167 11.2491 1.34167 11.3991 1.275C11.5491 1.20833 11.6991 1.19167 11.8491 1.225C12.0158 1.24167 12.1658 1.28333 12.2991 1.35C12.3491 1.36667 12.3908 1.4 12.4241 1.45C12.4741 1.48333 12.5158 1.51667 12.5491 1.55C12.6325 1.63333 12.6991 1.73333 12.7491 1.85C12.7991 1.95 12.8491 2.05 12.8991 2.15C12.9491 2.25 12.9491 2.35 12.8991 2.45C12.8658 2.51667 12.8408 2.59167 12.8241 2.675C12.8241 2.74167 12.8158 2.81667 12.7991 2.9C12.7991 2.98333 12.7741 3.05 12.7241 3.1C12.6908 3.11667 12.6575 3.14167 12.6241 3.175C12.5908 3.20833 12.5575 3.24167 12.5241 3.275C12.4741 3.29167 12.4241 3.34167 12.3741 3.425C12.2741 3.55833 12.1325 3.625 11.9491 3.625C11.8825 3.625 11.8158 3.63333 11.7491 3.65C11.6991 3.66667 11.6408 3.68333 11.5741 3.7C11.4241 3.73333 11.3241 3.78333 11.2741 3.85C11.1908 3.93333 11.0991 3.975 10.9991 3.975C10.8825 4.00833 10.7908 3.975 10.7241 3.875C10.7075 3.825 10.6658 3.8 10.5991 3.8C10.5325 3.81667 10.4575 3.825 10.3741 3.825C10.3075 3.825 10.2408 3.825 10.1741 3.825C10.1075 3.84167 10.0325 3.85 9.94912 3.85C9.88245 3.85 9.80745 3.85833 9.72412 3.875C9.65745 3.875 9.59912 3.88333 9.54912 3.9C9.49912 3.9 9.44079 3.9 9.37412 3.9C9.20746 3.91667 9.03246 3.93333 8.84912 3.95C8.68245 3.96667 8.50745 3.98333 8.32412 4C8.22412 4 8.14912 4.00833 8.09912 4.025C8.03245 4.05833 7.99912 4.10833 7.99912 4.175C7.98246 4.24167 7.98246 4.325 7.99912 4.425L8.14912 5.2C8.18245 5.35 8.21579 5.50833 8.24912 5.675C8.28245 5.825 8.31579 5.98333 8.34912 6.15L8.42412 6.7C8.42412 6.76667 8.42412 6.83333 8.42412 6.9C8.44079 6.95 8.45745 7.00833 8.47412 7.075C8.50745 7.275 8.54079 7.475 8.57412 7.675C8.62412 7.875 8.65745 8.075 8.67412 8.275L8.69912 8.375C8.76579 8.59167 8.81579 8.80833 8.84912 9.025C8.88246 9.24167 8.91579 9.46667 8.94912 9.7C8.98245 9.85 9.01579 10.0083 9.04912 10.175C9.08245 10.325 9.10745 10.475 9.12412 10.625C9.14079 10.7417 9.15745 10.8583 9.17412 10.975C9.19079 11.075 9.20745 11.1833 9.22412 11.3V11.425C9.24079 11.5583 9.25745 11.6917 9.27412 11.825C9.30745 11.9417 9.33245 12.0667 9.34912 12.2L9.42412 12.95C9.44079 13.0667 9.45745 13.1833 9.47412 13.3C9.49079 13.4167 9.50745 13.5417 9.52412 13.675C9.52412 13.7083 9.52412 13.75 9.52412 13.8C9.54079 13.8333 9.54912 13.8667 9.54912 13.9C9.54912 13.9833 9.55745 14.075 9.57412 14.175C9.59079 14.2583 9.60745 14.35 9.62412 14.45C9.65745 14.6333 9.69079 14.825 9.72412 15.025C9.75746 15.2083 9.79079 15.4 9.82412 15.6C9.84079 15.7167 9.86579 15.8333 9.89912 15.95C9.93245 16.05 9.95745 16.1583 9.97412 16.275C9.99079 16.3583 10.0408 16.4417 10.1241 16.525C10.1908 16.575 10.2075 16.6333 10.1741 16.7C10.1241 16.7667 10.0908 16.8417 10.0741 16.925C10.0741 17.0083 10.0658 17.0917 10.0491 17.175C10.0491 17.2417 10.0408 17.2917 10.0241 17.325C10.0241 17.4083 9.99079 17.4667 9.92412 17.5C9.85745 17.5333 9.79079 17.6 9.72412 17.7C9.64079 17.7833 9.57412 17.8417 9.52412 17.875C9.47412 17.925 9.40745 17.95 9.32412 17.95C9.29079 17.9333 9.23245 17.9417 9.14912 17.975ZM24.6368 18.6C24.4868 18.6167 24.3452 18.6167 24.2118 18.6C24.0785 18.5833 23.9452 18.5167 23.8118 18.4C23.7785 18.3667 23.7285 18.3333 23.6618 18.3C23.5785 18.25 23.5285 18.1917 23.5118 18.125C23.4952 18.0583 23.4618 18.0083 23.4118 17.975C23.3618 17.925 23.3285 17.8667 23.3118 17.8C23.2952 17.75 23.2868 17.7 23.2868 17.65C23.3035 17.5833 23.3118 17.525 23.3118 17.475C23.3118 17.425 23.3035 17.375 23.2868 17.325C23.2868 17.275 23.2868 17.225 23.2868 17.175C23.2368 16.925 23.1868 16.675 23.1368 16.425C23.0868 16.1583 23.0452 15.9 23.0118 15.65C22.9952 15.5333 22.9785 15.4167 22.9618 15.3C22.9452 15.1833 22.9285 15.0667 22.9118 14.95C22.8952 14.7333 22.8702 14.5167 22.8368 14.3C22.8202 14.0833 22.7951 13.8667 22.7618 13.65C22.7285 13.5167 22.7118 13.4 22.7118 13.3C22.7118 13.1667 22.7035 13.0417 22.6868 12.925C22.6702 12.7917 22.6535 12.6667 22.6368 12.55C22.6202 12.45 22.5618 12.4 22.4618 12.4L22.2868 12.375C22.2035 12.3583 22.1118 12.35 22.0118 12.35C21.9118 12.35 21.8118 12.3417 21.7118 12.325H21.4618C21.4285 12.3417 21.3785 12.35 21.3118 12.35C21.2451 12.35 21.1785 12.35 21.1118 12.35C21.0618 12.3333 20.9951 12.3333 20.9118 12.35C20.8452 12.35 20.7785 12.3583 20.7118 12.375C20.6618 12.375 20.5952 12.3667 20.5118 12.35C20.4952 12.3333 20.4618 12.3333 20.4118 12.35C20.3785 12.35 20.3452 12.35 20.3118 12.35C20.2285 12.35 20.1368 12.3583 20.0368 12.375C19.9535 12.375 19.8702 12.375 19.7868 12.375C19.7368 12.375 19.6868 12.375 19.6368 12.375C19.5868 12.375 19.5368 12.3833 19.4868 12.4C19.3702 12.4167 19.2535 12.4333 19.1368 12.45C19.0202 12.45 18.9035 12.45 18.7868 12.45C18.6201 12.4333 18.4535 12.4333 18.2868 12.45C18.1202 12.4667 17.9535 12.4833 17.7868 12.5H17.7118C17.6285 12.5333 17.5868 12.5833 17.5868 12.65C17.5868 12.6667 17.5785 12.6833 17.5618 12.7C17.5618 12.7 17.5618 12.7083 17.5618 12.725C17.5618 12.8083 17.5701 12.875 17.5868 12.925C17.6035 13.0417 17.6201 13.1667 17.6368 13.3C17.6535 13.4167 17.6702 13.5417 17.6868 13.675L17.7618 14.275C17.7785 14.4417 17.8035 14.6083 17.8368 14.775C17.8702 14.925 17.8951 15.075 17.9118 15.225C17.9285 15.2417 17.9368 15.2667 17.9368 15.3C17.9368 15.3167 17.9451 15.3417 17.9618 15.375C17.9951 15.4583 18.0118 15.55 18.0118 15.65C18.0118 15.75 18.0118 15.85 18.0118 15.95C18.0452 15.9667 18.0368 16 17.9868 16.05C17.9701 16.0833 17.9535 16.1167 17.9368 16.15C17.9201 16.1833 17.9118 16.2167 17.9118 16.25C17.8618 16.4167 17.7535 16.575 17.5868 16.725C17.4202 16.8583 17.2618 16.9333 17.1118 16.95C17.0951 16.95 17.0785 16.9583 17.0618 16.975C17.0451 16.975 17.0201 16.975 16.9868 16.975C16.7701 17.025 16.5368 17.0083 16.2868 16.925L16.2118 16.875C16.1951 16.8083 16.1618 16.7583 16.1118 16.725C16.0618 16.6917 16.0201 16.6583 15.9868 16.625C15.9535 16.575 15.9118 16.5333 15.8618 16.5C15.8285 16.45 15.8035 16.3917 15.7868 16.325C15.7868 16.3083 15.7785 16.3 15.7618 16.3C15.6951 16.2167 15.6535 16.125 15.6368 16.025C15.6201 15.925 15.6035 15.825 15.5868 15.725L15.5118 15.325C15.4951 15.175 15.4701 15.025 15.4368 14.875C15.4201 14.7083 15.4035 14.5417 15.3868 14.375L15.2368 13.4C15.2201 13.2833 15.2035 13.1667 15.1868 13.05C15.1701 12.9167 15.1535 12.7917 15.1368 12.675L15.0618 11.875C15.0451 11.7083 15.0285 11.5417 15.0118 11.375C14.9951 11.2083 14.9701 11.0417 14.9368 10.875V10.65C14.9368 10.5167 14.9285 10.3833 14.9118 10.25C14.9118 10.1167 14.9035 9.99167 14.8868 9.875C14.8701 9.825 14.8618 9.775 14.8618 9.725C14.8618 9.675 14.8618 9.625 14.8618 9.575C14.8618 9.49167 14.8535 9.41667 14.8368 9.35C14.8368 9.26667 14.8285 9.18333 14.8118 9.1L14.7368 8.575C14.7201 8.39167 14.6868 8.2 14.6368 8C14.6035 7.8 14.5535 7.60833 14.4868 7.425C14.4535 7.325 14.4118 7.225 14.3618 7.125C14.3118 7.00833 14.2701 6.89167 14.2368 6.775C14.2035 6.64167 14.1701 6.55 14.1368 6.5C14.0868 6.33333 14.0868 6.175 14.1368 6.025L14.2868 5.65C14.3035 5.58333 14.3535 5.525 14.4368 5.475C14.4701 5.425 14.5118 5.38333 14.5618 5.35C14.6118 5.3 14.6618 5.25833 14.7118 5.225C14.7451 5.20833 14.7868 5.2 14.8368 5.2C14.8868 5.21667 14.9535 5.20833 15.0368 5.175L15.1118 5.125C15.2618 5.04167 15.4118 5.04167 15.5618 5.125C15.6451 5.15833 15.7285 5.19167 15.8118 5.225C15.9118 5.25833 15.9951 5.31667 16.0618 5.4C16.1618 5.41667 16.2285 5.49167 16.2618 5.625L16.4868 6.125C16.6201 6.40833 16.7368 6.7 16.8368 7C16.9368 7.3 17.0035 7.61667 17.0368 7.95C17.0535 8.06667 17.0701 8.19167 17.0868 8.325C17.1202 8.44167 17.1451 8.56667 17.1618 8.7V8.9C17.1618 8.98333 17.1701 9.04167 17.1868 9.075C17.2035 9.19167 17.2118 9.31667 17.2118 9.45C17.2285 9.58333 17.2368 9.71667 17.2368 9.85V9.9C17.2535 9.98333 17.3035 10.0417 17.3868 10.075C17.4368 10.0917 17.4868 10.1083 17.5368 10.125C17.5868 10.125 17.6368 10.125 17.6868 10.125C17.7701 10.1083 17.8368 10.1083 17.8868 10.125C17.9535 10.125 18.0202 10.125 18.0868 10.125C18.2035 10.125 18.3118 10.125 18.4118 10.125C18.5118 10.1083 18.6201 10.1 18.7368 10.1H19.0368C19.0868 10.1 19.1368 10.1083 19.1868 10.125C19.2535 10.125 19.3118 10.1167 19.3618 10.1C19.3951 10.1 19.4201 10.1 19.4368 10.1C19.4702 10.0833 19.4952 10.075 19.5118 10.075C19.6785 10.0917 19.8451 10.1 20.0118 10.1C20.1785 10.0833 20.3451 10.075 20.5118 10.075C20.6785 10.0917 20.8452 10.1 21.0118 10.1C21.1785 10.0833 21.3452 10.075 21.5118 10.075C21.6452 10.075 21.7702 10.0833 21.8868 10.1C22.0202 10.1 22.1452 10.1 22.2618 10.1C22.3785 10.1 22.4368 10.05 22.4368 9.95C22.4368 9.86667 22.4368 9.775 22.4368 9.675C22.4368 9.575 22.4285 9.48333 22.4118 9.4C22.3952 9.21667 22.3785 9.05 22.3618 8.9C22.3618 8.73333 22.3535 8.56667 22.3368 8.4C22.3202 8.16667 22.3118 7.94167 22.3118 7.725C22.3285 7.49167 22.3202 7.26667 22.2868 7.05C22.2702 6.86667 22.2535 6.68333 22.2368 6.5C22.2368 6.31667 22.2201 6.14167 22.1868 5.975V5.625C22.1868 5.55833 22.1952 5.50833 22.2118 5.475C22.2118 5.44167 22.2118 5.41667 22.2118 5.4C22.2285 5.36667 22.2368 5.34167 22.2368 5.325C22.2368 5.24167 22.2201 5.19167 22.1868 5.175L22.1118 5.125C22.0118 5.05833 21.9951 4.98333 22.0618 4.9C22.1118 4.83333 22.1202 4.75833 22.0868 4.675C22.0868 4.625 22.0952 4.59167 22.1118 4.575C22.1452 4.525 22.1785 4.475 22.2118 4.425C22.2452 4.375 22.2702 4.31667 22.2868 4.25C22.3368 4.06667 22.4118 3.98333 22.5118 4C22.6285 4 22.7035 4.01667 22.7368 4.05C22.7535 4.06667 22.7702 4.075 22.7868 4.075C22.8035 4.05833 22.8118 4.04167 22.8118 4.025C22.8118 3.925 22.8618 3.86667 22.9618 3.85C23.0618 3.83333 23.1368 3.81667 23.1868 3.8L23.3368 3.7H23.4118C23.4952 3.73333 23.5618 3.775 23.6118 3.825C23.6785 3.85833 23.7452 3.89167 23.8118 3.925C23.8452 3.94167 23.8868 3.975 23.9368 4.025C24.0535 4.175 24.1368 4.36667 24.1868 4.6C24.2202 4.76667 24.2535 4.925 24.2868 5.075C24.3202 5.225 24.3452 5.38333 24.3618 5.55C24.3618 5.58333 24.3618 5.61667 24.3618 5.65C24.3785 5.68333 24.3868 5.71667 24.3868 5.75L24.4118 5.925C24.4118 6.125 24.4202 6.325 24.4368 6.525C24.4702 6.70833 24.4952 6.9 24.5118 7.1C24.5285 7.11667 24.5368 7.15 24.5368 7.2C24.5202 7.31667 24.5118 7.43333 24.5118 7.55C24.5285 7.65 24.5452 7.76667 24.5618 7.9C24.5785 8.01667 24.5868 8.15 24.5868 8.3C24.6035 8.43333 24.6118 8.56667 24.6118 8.7C24.6118 8.78333 24.6118 8.875 24.6118 8.975C24.6285 9.075 24.6452 9.16667 24.6618 9.25C24.6785 9.33333 24.6868 9.41667 24.6868 9.5C24.6868 9.58333 24.6868 9.66667 24.6868 9.75C24.6868 9.83333 24.6868 9.91667 24.6868 10C24.7035 10.0667 24.7202 10.1417 24.7368 10.225V10.325C24.7535 10.525 24.7702 10.725 24.7868 10.925C24.8201 11.1083 24.8452 11.3 24.8618 11.5C24.8785 11.5167 24.8868 11.55 24.8868 11.6C24.8868 11.7833 24.9035 11.975 24.9368 12.175C24.9702 12.3583 24.9952 12.5417 25.0118 12.725L25.0868 13.6C25.0868 13.6167 25.0868 13.65 25.0868 13.7C25.1035 13.7333 25.1118 13.7667 25.1118 13.8C25.1285 13.8333 25.1368 13.9 25.1368 14C25.1368 14.15 25.1452 14.3 25.1618 14.45C25.1952 14.6 25.2202 14.75 25.2368 14.9C25.2702 15.0667 25.2952 15.2333 25.3118 15.4C25.3285 15.5667 25.3535 15.7417 25.3868 15.925C25.4202 16.125 25.4618 16.325 25.5118 16.525C25.5618 16.725 25.6035 16.925 25.6368 17.125C25.6535 17.1917 25.6618 17.2667 25.6618 17.35C25.6785 17.4167 25.6868 17.4917 25.6868 17.575C25.6868 17.6583 25.6618 17.7417 25.6118 17.825C25.5951 17.8417 25.5785 17.875 25.5618 17.925C25.5618 17.9583 25.5452 17.9917 25.5118 18.025C25.4952 18.0417 25.4868 18.0583 25.4868 18.075C25.4868 18.0917 25.4785 18.1 25.4618 18.1C25.3952 18.1167 25.3368 18.1583 25.2868 18.225C25.2368 18.2917 25.1785 18.3417 25.1118 18.375C25.0452 18.4417 24.9535 18.4917 24.8368 18.525L24.6368 18.6ZM31.172 18.175C31.072 18.175 31.0053 18.1667 30.972 18.15C30.8886 18.1167 30.8053 18.1 30.722 18.1C30.6553 18.1167 30.5803 18.125 30.497 18.125C30.4803 18.125 30.4636 18.125 30.447 18.125C30.4303 18.1417 30.4136 18.15 30.397 18.15C30.2803 18.1667 30.1636 18.175 30.047 18.175C29.947 18.175 29.847 18.1583 29.747 18.125C29.7303 18.1083 29.7136 18.1 29.697 18.1C29.5803 18.1167 29.4803 18.0833 29.397 18C29.3136 17.9167 29.2303 17.8417 29.147 17.775C29.0636 17.6917 29.022 17.6 29.022 17.5L28.947 17.3C28.897 17.1833 28.8803 17.075 28.897 16.975C28.9136 16.9417 28.9136 16.9083 28.897 16.875C28.897 16.8417 28.897 16.8083 28.897 16.775C28.8803 16.7417 28.872 16.7083 28.872 16.675C28.872 16.625 28.8636 16.5833 28.847 16.55C28.8136 16.4 28.7886 16.25 28.772 16.1C28.772 15.9333 28.7803 15.775 28.797 15.625C28.8136 15.525 28.872 15.3583 28.972 15.125C29.072 14.875 29.1303 14.725 29.147 14.675C29.197 14.5917 29.222 14.525 29.222 14.475C29.2053 14.2917 29.197 14.1083 29.197 13.925C29.2136 13.725 29.222 13.5333 29.222 13.35C29.222 13.2333 29.247 13.1417 29.297 13.075C29.3636 12.9583 29.372 12.8333 29.322 12.7L29.247 12.425C29.147 12.2417 29.1553 12.0833 29.272 11.95C29.272 11.9333 29.272 11.925 29.272 11.925C29.2886 11.9083 29.297 11.8917 29.297 11.875C29.3303 11.8417 29.3386 11.8 29.322 11.75C29.3053 11.6833 29.297 11.6333 29.297 11.6C29.297 11.5333 29.3053 11.4667 29.322 11.4C29.3553 11.3167 29.3636 11.2417 29.347 11.175C29.347 11.175 29.3303 11.1583 29.297 11.125C29.2803 11.0917 29.272 11.025 29.272 10.925C29.2886 10.825 29.297 10.7667 29.297 10.75V10.05C29.3136 9.96667 29.322 9.89167 29.322 9.825C29.322 9.74167 29.3303 9.65833 29.347 9.575C29.3636 9.475 29.3636 9.375 29.347 9.275C29.347 9.15833 29.347 9.04167 29.347 8.925C29.3303 8.84167 29.3136 8.75 29.297 8.65C29.297 8.55 29.297 8.45 29.297 8.35C29.2803 8.31667 29.272 8.275 29.272 8.225C29.272 8.175 29.272 8.13333 29.272 8.1C29.2553 8.01667 29.2386 7.93333 29.222 7.85C29.222 7.76667 29.222 7.68333 29.222 7.6C29.222 7.56667 29.1886 7.45833 29.122 7.275C29.0553 7.075 29.0303 6.90833 29.047 6.775C29.0636 6.74167 29.072 6.7 29.072 6.65C29.072 6.6 29.0553 6.55833 29.022 6.525C28.9886 6.50833 28.972 6.475 28.972 6.425V6.35C29.022 6.15 28.997 5.95 28.897 5.75C28.8303 5.65 28.8053 5.55 28.822 5.45C28.822 5.31667 28.7636 5.21667 28.647 5.15C28.5636 5.06667 28.4886 4.96667 28.422 4.85C28.3553 4.73333 28.3136 4.61667 28.297 4.5C28.2803 4.41667 28.272 4.33333 28.272 4.25C28.272 4.16667 28.272 4.09167 28.272 4.025C28.272 3.95833 28.2803 3.91667 28.297 3.9C28.3636 3.83333 28.397 3.75833 28.397 3.675C28.397 3.575 28.4053 3.5 28.422 3.45C28.4386 3.43333 28.4553 3.425 28.472 3.425C28.4886 3.425 28.5053 3.41667 28.522 3.4C28.5886 3.38333 28.622 3.325 28.622 3.225C28.5886 3.15833 28.572 3.1 28.572 3.05C28.5553 2.98333 28.5803 2.925 28.647 2.875C28.6803 2.80833 28.722 2.79167 28.772 2.825C28.8886 2.875 29.022 2.85833 29.172 2.775C29.2386 2.74167 29.2803 2.725 29.297 2.725C29.347 2.725 29.372 2.725 29.372 2.725C29.3886 2.70833 29.4386 2.7 29.522 2.7C29.622 2.71667 29.7136 2.68333 29.797 2.6C29.9136 2.48333 30.0553 2.425 30.222 2.425H31.772C32.1553 2.44167 32.5386 2.44167 32.922 2.425C33.3053 2.40833 33.6803 2.4 34.047 2.4C34.1303 2.4 34.197 2.4 34.247 2.4C34.3136 2.38333 34.3803 2.36667 34.447 2.35C34.547 2.3 34.6636 2.275 34.797 2.275H35.372C35.5053 2.275 35.622 2.275 35.722 2.275C35.8386 2.25833 35.9553 2.24167 36.072 2.225C36.1386 2.20833 36.197 2.2 36.247 2.2C36.3136 2.2 36.3803 2.2 36.447 2.2C36.5136 2.2 36.5803 2.2 36.647 2.2C36.7136 2.2 36.7803 2.19167 36.847 2.175C36.9803 2.15833 37.122 2.15 37.272 2.15C37.422 2.13333 37.5636 2.125 37.697 2.125C37.7636 2.125 37.822 2.125 37.872 2.125C37.9386 2.10833 38.0053 2.09167 38.072 2.075C38.2053 2.04167 38.3303 2.025 38.447 2.025C38.5803 2.00833 38.7053 1.99167 38.822 1.975C38.9553 1.95833 39.0803 1.94167 39.197 1.925C39.3303 1.90833 39.4553 1.89167 39.572 1.875C39.722 1.875 39.8303 1.89167 39.897 1.925C39.997 1.99167 40.0886 2.05 40.172 2.1C40.272 2.15 40.3636 2.21667 40.447 2.3C40.5136 2.36667 40.5553 2.425 40.572 2.475C40.5886 2.54167 40.6053 2.60833 40.622 2.675C40.6386 2.74167 40.6553 2.81667 40.672 2.9V3.075C40.6553 3.15833 40.6386 3.25 40.622 3.35C40.622 3.43333 40.6136 3.525 40.597 3.625C40.5636 3.69167 40.522 3.75 40.472 3.8L40.022 4.25C39.8553 4.3 39.6886 4.33333 39.522 4.35C39.372 4.36667 39.2136 4.36667 39.047 4.35H38.872C38.7886 4.36667 38.7053 4.375 38.622 4.375C38.5386 4.375 38.4553 4.36667 38.372 4.35C38.272 4.33333 38.172 4.33333 38.072 4.35C37.972 4.35 37.872 4.35 37.772 4.35C37.7053 4.35 37.6386 4.35833 37.572 4.375C37.522 4.375 37.4636 4.36667 37.397 4.35C37.3136 4.33333 37.2303 4.33333 37.147 4.35C37.0803 4.35 37.0053 4.35833 36.922 4.375C36.8553 4.375 36.7803 4.38333 36.697 4.4C36.6303 4.4 36.5553 4.4 36.472 4.4C36.2553 4.43333 36.022 4.45 35.772 4.45C35.5386 4.45 35.3053 4.46667 35.072 4.5C34.922 4.48333 34.7803 4.49167 34.647 4.525C34.5136 4.54167 34.372 4.55833 34.222 4.575C34.0886 4.59167 33.947 4.6 33.797 4.6C33.647 4.6 33.5053 4.61667 33.372 4.65C33.2053 4.65 33.0386 4.675 32.872 4.725C32.722 4.75833 32.5636 4.78333 32.397 4.8L32.222 4.825C32.1053 4.825 31.997 4.84167 31.897 4.875C31.797 4.89167 31.6886 4.91667 31.572 4.95C31.5053 4.96667 31.4386 4.98333 31.372 5C31.3053 5 31.2303 5.00833 31.147 5.025C31.097 5.025 31.0386 5.04167 30.972 5.075C30.922 5.09167 30.897 5.14167 30.897 5.225L30.972 5.45C30.9886 5.48333 30.9803 5.56667 30.947 5.7C30.9303 5.83333 30.9136 5.93333 30.897 6C30.897 6.05 30.9053 6.1 30.922 6.15C30.9386 6.2 30.9553 6.25 30.972 6.3C31.022 6.43333 31.047 6.58333 31.047 6.75C31.047 6.9 31.0636 7.04167 31.097 7.175C31.1136 7.24167 31.122 7.31667 31.122 7.4C31.122 7.46667 31.1303 7.54167 31.147 7.625C31.147 7.65833 31.147 7.7 31.147 7.75C31.1636 7.78333 31.172 7.825 31.172 7.875C31.172 7.925 31.1636 7.95833 31.147 7.975C31.097 8.04167 31.072 8.11667 31.072 8.2C31.072 8.28333 31.072 8.36667 31.072 8.45C31.1553 8.61667 31.197 8.78333 31.197 8.95C31.197 9.11667 31.197 9.28333 31.197 9.45C31.197 9.5 31.2386 9.51667 31.322 9.5H31.347C31.3803 9.43333 31.4136 9.38333 31.447 9.35C31.497 9.35 31.5553 9.33333 31.622 9.3C31.672 9.26667 31.7386 9.25 31.822 9.25C31.9553 9.26667 32.0803 9.26667 32.197 9.25C32.3136 9.21667 32.4303 9.18333 32.547 9.15C33.3303 8.95 34.0636 8.69167 34.747 8.375C34.9303 8.29167 35.122 8.225 35.322 8.175C35.522 8.10833 35.722 8.06667 35.922 8.05H35.997C36.147 8.03333 36.297 8.01667 36.447 8C36.597 7.98333 36.747 7.975 36.897 7.975C37.097 7.95833 37.2886 7.93333 37.472 7.9C37.672 7.86667 37.872 7.84167 38.072 7.825C38.1886 7.79167 38.297 7.76667 38.397 7.75C38.497 7.71667 38.6053 7.675 38.722 7.625C38.9386 7.54167 39.1386 7.5 39.322 7.5C39.4553 7.51667 39.5803 7.55 39.697 7.6C39.8136 7.63333 39.9303 7.68333 40.047 7.75C40.297 7.91667 40.422 8.16667 40.422 8.5C40.422 8.63333 40.4053 8.76667 40.372 8.9C40.3553 9.03333 40.347 9.16667 40.347 9.3C40.347 9.33333 40.3303 9.36667 40.297 9.4L40.222 9.525C40.2053 9.59167 40.1886 9.65833 40.172 9.725C40.1553 9.79167 40.1136 9.84167 40.047 9.875C39.947 9.95833 39.8386 10.05 39.722 10.15C39.622 10.2333 39.5053 10.2917 39.372 10.325C39.3053 10.3417 39.2386 10.3583 39.172 10.375C39.122 10.3917 39.0636 10.4 38.997 10.4C38.7303 10.4 38.4553 10.4167 38.172 10.45C37.9053 10.4833 37.6303 10.5167 37.347 10.55C37.1303 10.5667 36.9136 10.5917 36.697 10.625C36.497 10.6583 36.2886 10.675 36.072 10.675C35.872 10.675 35.647 10.7167 35.397 10.8C35.2303 10.8333 35.0553 10.8667 34.872 10.9C34.6886 10.9333 34.5053 10.9583 34.322 10.975C34.1886 10.9917 34.047 11.0167 33.897 11.05C33.7636 11.0667 33.6303 11.0833 33.497 11.1L33.072 11.175C33.0386 11.1917 32.9886 11.2 32.922 11.2C32.8053 11.2333 32.6886 11.2583 32.572 11.275C32.4553 11.2917 32.3386 11.3167 32.222 11.35C32.1053 11.3667 31.9886 11.3917 31.872 11.425C31.772 11.4583 31.6636 11.4917 31.547 11.525C31.4636 11.5417 31.397 11.575 31.347 11.625C31.297 11.6583 31.2553 11.7083 31.222 11.775C31.2053 11.825 31.2053 11.875 31.222 11.925C31.2386 11.9917 31.2303 12.0583 31.197 12.125C31.2136 12.2917 31.222 12.4583 31.222 12.625C31.2386 12.7917 31.2386 12.9583 31.222 13.125C31.2553 13.2583 31.2636 13.3917 31.247 13.525C31.247 13.6583 31.2386 13.7917 31.222 13.925C31.1886 14.125 31.197 14.2917 31.247 14.425C31.297 14.6417 31.2803 14.8667 31.197 15.1C31.1636 15.2 31.1636 15.2667 31.197 15.3C31.2303 15.35 31.2303 15.4083 31.197 15.475V15.625C31.1803 15.7583 31.2386 15.825 31.372 15.825H31.422C31.5386 15.825 31.6553 15.8667 31.772 15.95C31.8553 16.0333 31.9553 16.0583 32.072 16.025L32.772 15.95C32.872 15.9333 32.972 15.925 33.072 15.925C33.172 15.9083 33.272 15.9 33.372 15.9C33.4053 15.8833 33.4553 15.8917 33.522 15.925C33.6053 15.975 33.6803 15.9833 33.747 15.95C33.7803 15.9167 33.822 15.8917 33.872 15.875C33.9386 15.8583 33.9886 15.8333 34.022 15.8C34.122 15.7 34.247 15.6667 34.397 15.7C34.5303 15.7333 34.6386 15.725 34.722 15.675C34.872 15.625 35.0136 15.6083 35.147 15.625C35.2303 15.6417 35.3136 15.6333 35.397 15.6C35.4803 15.5667 35.5636 15.55 35.647 15.55C35.6803 15.55 35.7053 15.5583 35.722 15.575C35.7386 15.575 35.7553 15.5667 35.772 15.55C35.8053 15.55 35.8386 15.5417 35.872 15.525C35.9053 15.5083 35.9303 15.5 35.947 15.5C36.0636 15.45 36.172 15.4333 36.272 15.45C36.3553 15.45 36.397 15.45 36.397 15.45C36.4636 15.4333 36.522 15.4333 36.572 15.45C36.6386 15.4667 36.697 15.4917 36.747 15.525C36.8303 15.5417 36.897 15.5667 36.947 15.6C37.0136 15.6333 37.0803 15.6583 37.147 15.675C37.1803 15.675 37.2053 15.6833 37.222 15.7C37.3053 15.7667 37.4053 15.825 37.522 15.875C37.6553 15.925 37.7303 15.9833 37.747 16.05C37.7803 16.15 37.797 16.25 37.797 16.35C37.797 16.4333 37.8053 16.525 37.822 16.625C37.822 16.675 37.8136 16.725 37.797 16.775C37.797 16.825 37.7886 16.875 37.772 16.925C37.7386 16.9917 37.697 17.0667 37.647 17.15C37.6136 17.2333 37.5636 17.3083 37.497 17.375C37.4636 17.4083 37.4303 17.4417 37.397 17.475C37.3803 17.5083 37.3553 17.5417 37.322 17.575C37.2553 17.6417 37.1803 17.7 37.097 17.75C37.0136 17.8 36.922 17.825 36.822 17.825C36.7553 17.825 36.7053 17.8333 36.672 17.85C36.6053 17.8833 36.5386 17.9 36.472 17.9C36.4053 17.9 36.3303 17.9 36.247 17.9C36.1303 17.9167 36.0136 17.9333 35.897 17.95C35.797 17.95 35.6886 17.9417 35.572 17.925C35.5053 17.9083 35.447 17.9083 35.397 17.925C35.2303 17.975 35.0636 17.9833 34.897 17.95C34.7303 17.95 34.5636 17.9583 34.397 17.975C34.247 17.975 34.097 17.975 33.947 17.975H33.622C33.572 17.975 33.5303 17.9833 33.497 18C33.4303 18.0333 33.347 18.05 33.247 18.05C33.1636 18.05 33.0803 18.0417 32.997 18.025H32.747C32.7303 18.025 32.7053 18.025 32.672 18.025C32.6386 18.0417 32.6053 18.0417 32.572 18.025C32.522 18.0083 32.472 18 32.422 18C32.3886 18.0167 32.347 18.0333 32.297 18.05C32.2636 18.05 32.2303 18.05 32.197 18.05C32.1803 18.0667 32.1553 18.075 32.122 18.075C31.9553 18.0583 31.797 18.0583 31.647 18.075C31.497 18.1083 31.3386 18.1417 31.172 18.175ZM53.736 19.475C53.586 19.425 53.4694 19.325 53.386 19.175L53.311 18.9C53.2944 18.8167 53.286 18.7333 53.286 18.65C53.286 18.5667 53.2777 18.4833 53.261 18.4C53.2444 18.3333 53.2277 18.2667 53.211 18.2C53.211 18.15 53.1944 18.1 53.161 18.05C53.1277 17.9833 53.0944 17.9167 53.061 17.85C53.0277 17.7833 52.9944 17.7167 52.961 17.65C52.7777 17.25 52.7194 16.8667 52.786 16.5V16.375C52.8027 16.175 52.8194 15.9833 52.836 15.8C52.8527 15.6 52.8694 15.4 52.886 15.2C52.886 15.1333 52.886 15.0667 52.886 15C52.9027 14.9333 52.911 14.8667 52.911 14.8C52.911 14.75 52.911 14.7 52.911 14.65C52.9277 14.6 52.936 14.5583 52.936 14.525C52.936 14.4417 52.936 14.35 52.936 14.25C52.9527 14.15 52.961 14.0583 52.961 13.975V13.825C52.9444 13.5583 52.936 13.3 52.936 13.05C52.936 12.7833 52.936 12.5167 52.936 12.25C52.936 12.1667 52.936 12.0833 52.936 12C52.936 11.9 52.9277 11.8083 52.911 11.725C52.8944 11.6917 52.886 11.6417 52.886 11.575C52.9027 11.4583 52.9027 11.35 52.886 11.25C52.886 11.15 52.886 11.05 52.886 10.95C52.886 10.8833 52.886 10.825 52.886 10.775C52.886 10.7083 52.8944 10.65 52.911 10.6C52.9277 10.4333 52.9277 10.275 52.911 10.125C52.8944 9.925 52.8777 9.725 52.861 9.525C52.8444 9.325 52.8194 9.13333 52.786 8.95C52.7527 8.66667 52.7194 8.38333 52.686 8.1C52.6694 7.81667 52.6694 7.53333 52.686 7.25V6.5C52.686 6.41667 52.686 6.33333 52.686 6.25C52.7027 6.16667 52.711 6.09167 52.711 6.025V5.825C52.6944 5.69167 52.686 5.55833 52.686 5.425C52.7027 5.275 52.7194 5.125 52.736 4.975V4.7C52.736 4.46667 52.736 4.23333 52.736 4C52.7527 3.76667 52.761 3.54167 52.761 3.325C52.761 3.19167 52.761 3.06667 52.761 2.95C52.761 2.81667 52.7444 2.69167 52.711 2.575C52.6944 2.375 52.711 2.15833 52.761 1.925C52.811 1.79167 52.8694 1.66667 52.936 1.55C53.0027 1.43333 53.0777 1.325 53.161 1.225C53.461 0.874999 53.8527 0.699999 54.336 0.699999C54.486 0.716666 54.6277 0.749999 54.761 0.799999C54.911 0.833332 55.0444 0.899999 55.161 1C55.1944 1.01667 55.2444 1.05833 55.311 1.125C55.3944 1.19167 55.486 1.25833 55.586 1.325C55.7027 1.375 55.8194 1.41667 55.936 1.45C56.0694 1.46667 56.2027 1.49167 56.336 1.525C56.486 1.55833 56.6277 1.59167 56.761 1.625C56.811 1.64167 56.8777 1.65 56.961 1.65C57.0444 1.65 57.111 1.625 57.161 1.575C57.1944 1.54167 57.2277 1.51667 57.261 1.5C57.311 1.46667 57.361 1.44167 57.411 1.425C57.611 1.30833 57.7944 1.3 57.961 1.4C58.011 1.41667 58.0527 1.44167 58.086 1.475C58.136 1.49167 58.1777 1.50833 58.211 1.525C58.3944 1.60833 58.536 1.70833 58.636 1.825C58.7194 1.925 58.8277 1.99167 58.961 2.025C59.0444 2.04167 59.111 2.06667 59.161 2.1C59.2277 2.13333 59.2944 2.18333 59.361 2.25C59.4277 2.3 59.4944 2.34167 59.561 2.375C59.6444 2.40833 59.7194 2.44167 59.786 2.475C59.9194 2.49167 60.0277 2.56667 60.111 2.7C60.1777 2.83333 60.286 2.925 60.436 2.975C60.5194 2.99167 60.6027 3.04167 60.686 3.125C60.7194 3.175 60.8027 3.23333 60.936 3.3C61.0194 3.31667 61.086 3.35833 61.136 3.425C61.2027 3.475 61.261 3.54167 61.311 3.625L61.361 3.7C61.4777 3.95 61.6694 4.18333 61.936 4.4C62.036 4.48333 62.1277 4.58333 62.211 4.7C62.2944 4.8 62.3527 4.91667 62.386 5.05C62.4194 5.11667 62.4527 5.18333 62.486 5.25C62.536 5.31667 62.5777 5.39167 62.611 5.475C62.6444 5.525 62.6694 5.575 62.686 5.625C62.7027 5.675 62.7194 5.73333 62.736 5.8C62.7527 5.86667 62.7694 5.925 62.786 5.975C62.8027 6.025 62.8194 6.08333 62.836 6.15C62.8527 6.18333 62.861 6.225 62.861 6.275C62.861 6.30833 62.8694 6.34167 62.886 6.375C62.936 6.55833 62.9694 6.75 62.986 6.95C63.0194 7.15 63.0444 7.35 63.061 7.55C63.0777 7.66667 63.0777 7.78333 63.061 7.9C63.061 8.01667 63.061 8.14167 63.061 8.275C63.061 8.35833 63.0527 8.45 63.036 8.55C63.036 8.63333 63.0277 8.71667 63.011 8.8C63.011 8.85 62.9944 8.90833 62.961 8.975C62.811 9.425 62.5694 9.825 62.236 10.175C62.1694 10.2417 62.1027 10.3167 62.036 10.4C61.9694 10.4667 61.9027 10.5333 61.836 10.6C61.736 10.7 61.636 10.7917 61.536 10.875C61.436 10.9583 61.336 11.0417 61.236 11.125L61.161 11.2C61.0277 11.2667 60.8944 11.3333 60.761 11.4C60.6277 11.4667 60.486 11.5167 60.336 11.55C60.286 11.55 60.2527 11.5583 60.236 11.575C60.1194 11.6417 59.986 11.675 59.836 11.675C59.7027 11.675 59.5694 11.6667 59.436 11.65C59.3694 11.6333 59.3027 11.625 59.236 11.625C59.186 11.6083 59.1277 11.6 59.061 11.6C58.8444 11.6 58.636 11.6083 58.436 11.625C58.236 11.6417 58.0277 11.6667 57.811 11.7L56.661 11.875C56.611 11.875 56.5527 11.8833 56.486 11.9C56.436 11.9 56.3777 11.9083 56.311 11.925C56.1944 11.9417 56.0777 11.9667 55.961 12C55.861 12.0167 55.7527 12.0167 55.636 12C55.586 12 55.561 12.0333 55.561 12.1V12.525C55.5277 12.7083 55.5277 12.8917 55.561 13.075C55.5944 13.225 55.5777 13.3417 55.511 13.425C55.461 13.5417 55.4527 13.6667 55.486 13.8C55.5194 13.95 55.5444 14.1083 55.561 14.275C55.5944 14.425 55.6277 14.575 55.661 14.725C55.6777 14.8083 55.686 14.8917 55.686 14.975C55.7027 15.0583 55.711 15.1417 55.711 15.225C55.7444 15.575 55.7944 15.925 55.861 16.275C55.8944 16.375 55.911 16.475 55.911 16.575C55.9277 16.6583 55.9444 16.75 55.961 16.85C55.961 16.9667 55.9527 17.0583 55.936 17.125C55.9194 17.175 55.9027 17.2333 55.886 17.3C55.886 17.35 55.8694 17.4 55.836 17.45L55.761 17.625C55.7277 17.6583 55.6944 17.7083 55.661 17.775C55.5944 17.9083 55.4777 18.0167 55.311 18.1C55.111 18.1833 54.9277 18.2167 54.761 18.2C54.6777 18.2 54.6194 18.2083 54.586 18.225C54.5027 18.225 54.4527 18.2583 54.436 18.325C54.4194 18.3583 54.4027 18.4 54.386 18.45C54.3694 18.5 54.3527 18.5417 54.336 18.575C54.336 18.6417 54.3277 18.7083 54.311 18.775C54.311 18.8583 54.3027 18.9417 54.286 19.025C54.2694 19.1583 54.2027 19.2833 54.086 19.4C53.986 19.5 53.8694 19.525 53.736 19.475ZM56.011 9.7C56.111 9.7 56.2027 9.7 56.286 9.7C56.386 9.68333 56.486 9.66667 56.586 9.65C56.7027 9.61667 56.8194 9.59167 56.936 9.575C57.0527 9.55833 57.1694 9.54167 57.286 9.525C57.5194 9.49167 57.7444 9.44167 57.961 9.375C58.0277 9.35833 58.0944 9.35 58.161 9.35C58.2277 9.33333 58.2944 9.325 58.361 9.325C58.4777 9.325 58.561 9.31667 58.611 9.3C58.7277 9.26667 58.836 9.25 58.936 9.25C59.0527 9.25 59.1777 9.25 59.311 9.25H59.686C59.886 9.23333 60.0444 9.15 60.161 9L60.361 8.775C60.4277 8.69167 60.486 8.60833 60.536 8.525C60.6027 8.425 60.6444 8.31667 60.661 8.2C60.6944 7.95 60.686 7.725 60.636 7.525C60.586 7.325 60.5277 7.13333 60.461 6.95C60.3944 6.75 60.311 6.56667 60.211 6.4C60.111 6.18333 59.961 6.01667 59.761 5.9C59.6944 5.88333 59.6444 5.83333 59.611 5.75C59.5777 5.65 59.5194 5.575 59.436 5.525C59.4194 5.50833 59.4027 5.49167 59.386 5.475C59.3694 5.45833 59.3444 5.44167 59.311 5.425C59.2444 5.35833 59.1527 5.325 59.036 5.325C58.9694 5.325 58.8944 5.31667 58.811 5.3C58.7444 5.26667 58.6777 5.24167 58.611 5.225C58.5444 5.19167 58.4777 5.15833 58.411 5.125C58.361 5.09167 58.311 5.05833 58.261 5.025C58.0944 4.925 57.911 4.875 57.711 4.875C57.561 4.875 57.3944 4.85 57.211 4.8C57.0277 4.68333 56.836 4.61667 56.636 4.6C56.6027 4.6 56.5527 4.58333 56.486 4.55L56.286 4.475C56.186 4.425 56.1027 4.4 56.036 4.4C55.8194 4.33333 55.661 4.40833 55.561 4.625C55.5444 4.675 55.5277 4.73333 55.511 4.8C55.4944 4.85 55.4777 4.90833 55.461 4.975C55.4444 5.10833 55.4277 5.24167 55.411 5.375C55.3944 5.50833 55.3777 5.64167 55.361 5.775C55.3444 5.875 55.3277 5.975 55.311 6.075C55.2944 6.175 55.286 6.275 55.286 6.375C55.2694 6.59167 55.261 6.80833 55.261 7.025C55.2777 7.24167 55.3027 7.46667 55.336 7.7V7.95C55.336 8.06667 55.336 8.18333 55.336 8.3C55.3527 8.41667 55.3694 8.53333 55.386 8.65C55.4027 8.7 55.411 8.76667 55.411 8.85L55.486 9.525C55.486 9.625 55.536 9.675 55.636 9.675C55.7027 9.69167 55.761 9.7 55.811 9.7C55.8777 9.7 55.9444 9.7 56.011 9.7ZM70.6331 18.5C70.4664 18.4833 70.2998 18.4583 70.1331 18.425C69.9831 18.4083 69.8331 18.3667 69.6831 18.3L69.0581 18.075C68.8414 17.9917 68.6414 17.9 68.4581 17.8C68.2748 17.6833 68.0914 17.5667 67.9081 17.45C67.8248 17.3667 67.7414 17.2917 67.6581 17.225C67.5748 17.1417 67.4914 17.0667 67.4081 17C67.2748 16.8667 67.1414 16.7333 67.0081 16.6C66.8748 16.45 66.7498 16.2917 66.6331 16.125L66.0331 15.2C65.8831 14.9667 65.7498 14.725 65.6331 14.475C65.5164 14.2083 65.4164 13.9417 65.3331 13.675C65.1498 13.175 65.0581 12.6833 65.0581 12.2V11.8C65.0581 11.3833 65.0831 10.975 65.1331 10.575C65.1664 10.2417 65.2414 9.94167 65.3581 9.675C65.4248 9.50833 65.4831 9.34167 65.5331 9.175C65.5831 9.00833 65.6414 8.85 65.7081 8.7L65.7831 8.525C65.8164 8.30833 65.8914 8.11667 66.0081 7.95C66.1248 7.76667 66.2248 7.59167 66.3081 7.425C66.3748 7.29167 66.4498 7.175 66.5331 7.075C66.6164 6.95833 66.6914 6.84167 66.7581 6.725C66.7914 6.675 66.8331 6.63333 66.8831 6.6C66.9331 6.55 66.9748 6.5 67.0081 6.45C67.0414 6.41667 67.0664 6.375 67.0831 6.325C67.1164 6.25833 67.1414 6.2 67.1581 6.15C67.1914 6.1 67.2498 6.03333 67.3331 5.95C67.4331 5.9 67.5248 5.78333 67.6081 5.6C67.6414 5.53333 67.6748 5.48333 67.7081 5.45C67.8081 5.36667 67.8914 5.26667 67.9581 5.15C68.0414 5.03333 68.1331 4.925 68.2331 4.825C68.2998 4.75833 68.3331 4.66667 68.3331 4.55C68.3331 4.46667 68.3331 4.39167 68.3331 4.325C68.3498 4.24167 68.3498 4.16667 68.3331 4.1C68.3164 4.01667 68.3414 3.94167 68.4081 3.875C68.4414 3.84167 68.4664 3.8 68.4831 3.75C68.4998 3.7 68.5164 3.65 68.5331 3.6C68.5831 3.43333 68.7164 3.29167 68.9331 3.175C68.9664 3.14167 69.0081 3.125 69.0581 3.125C69.1248 3.10833 69.1831 3.09167 69.2331 3.075C69.3498 3.025 69.4831 3.01667 69.6331 3.05C69.6998 3.06667 69.7581 3.075 69.8081 3.075C69.8581 3.05833 69.9081 3.04167 69.9581 3.025C70.0248 2.99167 70.0831 2.96667 70.1331 2.95C70.1998 2.93333 70.2581 2.91667 70.3081 2.9C70.5414 2.81667 70.7831 2.825 71.0331 2.925C71.2998 3.025 71.4914 3.2 71.6081 3.45C71.6414 3.53333 71.6748 3.61667 71.7081 3.7C71.7414 3.78333 71.7664 3.86667 71.7831 3.95C71.8164 4.13333 71.8081 4.29167 71.7581 4.425C71.7248 4.49167 71.7081 4.53333 71.7081 4.55C71.6914 4.61667 71.7081 4.675 71.7581 4.725C71.7914 4.775 71.8331 4.81667 71.8831 4.85C72.0664 5.01667 72.2414 5.18333 72.4081 5.35C72.5748 5.5 72.7331 5.66667 72.8831 5.85C73.0164 5.98333 73.1248 6.125 73.2081 6.275C73.3081 6.40833 73.3998 6.55833 73.4831 6.725C73.5164 6.80833 73.5581 6.9 73.6081 7C73.6581 7.08333 73.7081 7.16667 73.7581 7.25C73.8414 7.4 73.9081 7.55833 73.9581 7.725C74.0248 7.89167 74.0914 8.05833 74.1581 8.225V8.25C74.1914 8.36667 74.2164 8.49167 74.2331 8.625C74.2664 8.74167 74.3164 8.86667 74.3831 9C74.4331 9.11667 74.4748 9.24167 74.5081 9.375C74.5414 9.49167 74.5748 9.61667 74.6081 9.75C74.6414 9.9 74.6748 10.05 74.7081 10.2C74.7581 10.35 74.7914 10.5 74.8081 10.65C74.8248 10.7167 74.8414 10.7833 74.8581 10.85C74.8748 10.9 74.8914 10.9583 74.9081 11.025C74.9414 11.175 74.9748 11.325 75.0081 11.475C75.0414 11.625 75.0664 11.775 75.0831 11.925L75.1581 12.1C75.1914 12.2 75.2248 12.3333 75.2581 12.5C75.3081 12.7167 75.3331 12.9333 75.3331 13.15C75.3498 13.3667 75.3498 13.5917 75.3331 13.825C75.3331 13.9417 75.3248 14.0333 75.3081 14.1C75.2081 14.45 75.0831 14.8083 74.9331 15.175C74.8664 15.2917 74.7998 15.4083 74.7331 15.525C74.6664 15.625 74.5998 15.7333 74.5331 15.85L74.3081 16.2C74.2248 16.35 74.1331 16.4833 74.0331 16.6C73.8664 16.8667 73.6664 17.1 73.4331 17.3C73.1998 17.5 72.9498 17.6917 72.6831 17.875C72.0998 18.325 71.4164 18.5333 70.6331 18.5ZM70.5331 16.025C70.8831 16.025 71.1831 15.925 71.4331 15.725C71.5164 15.6417 71.5998 15.5667 71.6831 15.5C71.7831 15.4167 71.8664 15.3333 71.9331 15.25C72.2498 14.9 72.4998 14.5333 72.6831 14.15L72.7581 13.9C72.7914 13.6 72.7914 13.3 72.7581 13L72.6081 12.175C72.5581 11.9583 72.5164 11.75 72.4831 11.55C72.4498 11.3333 72.3998 11.125 72.3331 10.925C72.2831 10.8083 72.2664 10.7167 72.2831 10.65C72.2998 10.5667 72.2998 10.4833 72.2831 10.4C72.2664 10.3167 72.2414 10.2333 72.2081 10.15C72.1581 9.93333 72.0998 9.71667 72.0331 9.5C71.9664 9.28333 71.8998 9.06667 71.8331 8.85C71.8164 8.8 71.7998 8.75 71.7831 8.7C71.7664 8.65 71.7498 8.6 71.7331 8.55C71.6164 8.31667 71.4914 8.09167 71.3581 7.875C71.2248 7.65833 71.0748 7.45833 70.9081 7.275C70.8248 7.175 70.7331 7.08333 70.6331 7C70.5331 6.9 70.4331 6.80833 70.3331 6.725C70.3164 6.69167 70.2914 6.675 70.2581 6.675C70.2414 6.65833 70.2164 6.64167 70.1831 6.625C70.1331 6.55833 70.0664 6.56667 69.9831 6.65C69.8998 6.73333 69.8081 6.825 69.7081 6.925C69.6248 7.025 69.5414 7.125 69.4581 7.225C69.3748 7.34167 69.2831 7.45833 69.1831 7.575C69.0998 7.69167 69.0164 7.80833 68.9331 7.925C68.8164 8.075 68.7081 8.225 68.6081 8.375C68.5081 8.525 68.4081 8.675 68.3081 8.825C67.9581 9.39167 67.6831 10.0167 67.4831 10.7C67.4498 10.8 67.4331 10.875 67.4331 10.925C67.4164 11.0417 67.3998 11.1583 67.3831 11.275C67.3831 11.3917 67.3831 11.5167 67.3831 11.65V11.85C67.3998 11.9 67.4081 11.95 67.4081 12C67.4081 12.05 67.4164 12.1 67.4331 12.15C67.4331 12.35 67.4831 12.5667 67.5831 12.8C67.7164 13.1333 67.8664 13.4583 68.0331 13.775C68.1998 14.0917 68.3914 14.3917 68.6081 14.675C68.6581 14.7417 68.7081 14.8083 68.7581 14.875C68.8248 14.9417 68.8831 15.0083 68.9331 15.075C69.0831 15.2417 69.2414 15.3917 69.4081 15.525C69.5914 15.6583 69.7748 15.775 69.9581 15.875C70.1581 15.975 70.3498 16.025 70.5331 16.025ZM79.7569 18.075C79.6236 18.125 79.4736 18.1083 79.3069 18.025L78.8069 17.8C78.7236 17.7667 78.6569 17.6917 78.6069 17.575L78.5319 17.425C78.4986 17.3417 78.4569 17.2833 78.4069 17.25C78.3236 17.1833 78.2653 17.0667 78.2319 16.9C78.1986 16.7333 78.1736 16.5667 78.1569 16.4C78.1403 16.2333 78.1236 16.0667 78.1069 15.9C78.0903 15.7667 78.0819 15.6333 78.0819 15.5C78.0819 15.3667 78.0819 15.2417 78.0819 15.125L78.1069 14.95C78.1403 14.8667 78.1569 14.7833 78.1569 14.7C78.1569 14.6167 78.1569 14.5417 78.1569 14.475V9.925C78.1903 9.69167 78.2069 9.45833 78.2069 9.225C78.2069 8.975 78.2069 8.73333 78.2069 8.5C78.2236 8.26667 78.2319 8.04167 78.2319 7.825C78.2319 7.59167 78.2153 7.36667 78.1819 7.15C78.1653 7.06667 78.1569 6.975 78.1569 6.875C78.1569 6.775 78.1569 6.675 78.1569 6.575C78.1569 6.425 78.1569 6.275 78.1569 6.125C78.1569 5.975 78.1403 5.825 78.1069 5.675V5.6C78.1069 5.36667 78.0903 5.14167 78.0569 4.925C78.0403 4.69167 78.0236 4.46667 78.0069 4.25C77.9903 4.11667 77.9736 3.99167 77.9569 3.875C77.9403 3.75833 77.9153 3.64167 77.8819 3.525C77.8653 3.45833 77.8569 3.39167 77.8569 3.325C77.8569 3.25833 77.8569 3.19167 77.8569 3.125C77.8569 3.00833 77.8736 2.9 77.9069 2.8C77.9403 2.68333 77.9736 2.575 78.0069 2.475C78.0236 2.44167 78.0653 2.39167 78.1319 2.325C78.1653 2.29167 78.1986 2.26667 78.2319 2.25C78.2653 2.23333 78.2903 2.21667 78.3069 2.2C78.4069 2.06667 78.5403 2.00833 78.7069 2.025C78.7403 2.04167 78.7903 2.03333 78.8569 2C78.9403 1.93333 79.0153 1.925 79.0819 1.975C79.1319 2.00833 79.2153 2.00833 79.3319 1.975C79.3819 1.975 79.4236 1.99167 79.4569 2.025C79.5069 2.09167 79.5736 2.14167 79.6569 2.175C79.7403 2.20833 79.7986 2.25833 79.8319 2.325C79.8819 2.375 79.9319 2.425 79.9819 2.475C80.0153 2.525 80.0486 2.575 80.0819 2.625C80.1319 2.65833 80.1569 2.70833 80.1569 2.775C80.1736 2.84167 80.1736 2.90833 80.1569 2.975C80.1569 3.025 80.1569 3.08333 80.1569 3.15C80.1569 3.3 80.1653 3.45833 80.1819 3.625C80.2153 3.775 80.2403 3.925 80.2569 4.075C80.2903 4.24167 80.3153 4.41667 80.3319 4.6C80.3486 4.76667 80.3653 4.94167 80.3819 5.125V5.375C80.4153 5.49167 80.4319 5.60833 80.4319 5.725C80.4319 5.84167 80.4403 5.95833 80.4569 6.075V6.1C80.4736 6.3 80.4903 6.5 80.5069 6.7C80.5236 6.9 80.5403 7.1 80.5569 7.3C80.5736 7.38333 80.5819 7.475 80.5819 7.575C80.5819 7.65833 80.5819 7.74167 80.5819 7.825V14.475C80.5819 14.625 80.5903 14.775 80.6069 14.925C80.6403 15.075 80.6653 15.2167 80.6819 15.35C80.6819 15.4333 80.7319 15.475 80.8319 15.475C80.9819 15.5083 81.1236 15.5083 81.2569 15.475C81.4403 15.4417 81.6153 15.425 81.7819 15.425C81.9653 15.425 82.1486 15.425 82.3319 15.425C82.5153 15.425 82.6903 15.425 82.8569 15.425C83.0403 15.4083 83.2153 15.3917 83.3819 15.375H83.6569C83.7903 15.3917 83.9069 15.4083 84.0069 15.425C84.1236 15.425 84.2403 15.425 84.3569 15.425C84.5403 15.425 84.7236 15.4333 84.9069 15.45C85.1069 15.45 85.2986 15.4583 85.4819 15.475C85.6153 15.4917 85.7486 15.5 85.8819 15.5C86.0319 15.5 86.1819 15.5 86.3319 15.5H86.4569C86.7903 15.4833 87.0903 15.5667 87.3569 15.75C87.4736 15.8 87.5569 15.8833 87.6069 16C87.6403 16.0667 87.6653 16.1333 87.6819 16.2C87.7153 16.25 87.7403 16.3167 87.7569 16.4C87.7736 16.4667 87.7819 16.5333 87.7819 16.6C87.7986 16.65 87.8153 16.7083 87.8319 16.775C87.8819 16.925 87.8653 17.0917 87.7819 17.275C87.7653 17.325 87.7486 17.375 87.7319 17.425C87.7153 17.475 87.6903 17.525 87.6569 17.575C87.6236 17.625 87.5819 17.6667 87.5319 17.7C87.5319 17.7 87.4986 17.7167 87.4319 17.75C87.2986 17.8667 87.1486 17.9417 86.9819 17.975C86.8319 18.0083 86.6653 18.0417 86.4819 18.075L86.2319 18.05C85.9819 17.9667 85.7319 17.9167 85.4819 17.9C85.4153 17.8833 85.3403 17.875 85.2569 17.875C85.1736 17.8583 85.0903 17.85 85.0069 17.85C84.8903 17.85 84.7736 17.85 84.6569 17.85C84.5403 17.8333 84.4153 17.8167 84.2819 17.8L84.0319 17.775C83.8819 17.7917 83.7319 17.8 83.5819 17.8C83.4319 17.7833 83.2819 17.7833 83.1319 17.8C83.0653 17.8 82.9986 17.8 82.9319 17.8C82.8653 17.7833 82.7986 17.775 82.7319 17.775C82.5986 17.775 82.4653 17.775 82.3319 17.775C82.2153 17.775 82.0903 17.7917 81.9569 17.825C81.8903 17.8417 81.8069 17.8583 81.7069 17.875C81.6236 17.875 81.5403 17.875 81.4569 17.875C81.2069 17.8917 80.9569 17.9167 80.7069 17.95C80.4569 17.9667 80.2153 18 79.9819 18.05C79.9319 18.0667 79.8569 18.075 79.7569 18.075ZM91.8442 18.25C91.7442 18.25 91.6776 18.2417 91.6442 18.225C91.5776 18.1917 91.5192 18.1667 91.4692 18.15C91.4192 18.1333 91.3692 18.1167 91.3192 18.1C91.2692 18.0667 91.2192 18.0333 91.1692 18C91.1359 17.95 91.1026 17.9 91.0692 17.85C91.0359 17.8167 91.0026 17.8 90.9692 17.8C90.8692 17.8 90.8192 17.75 90.8192 17.65C90.8026 17.55 90.7859 17.45 90.7692 17.35C90.7526 17.25 90.7359 17.15 90.7192 17.05C90.7026 16.9 90.6859 16.75 90.6692 16.6C90.6692 16.45 90.6526 16.3083 90.6192 16.175V15.95C90.6192 15.8833 90.6109 15.825 90.5942 15.775C90.5942 15.725 90.5942 15.6667 90.5942 15.6C90.5609 15.5167 90.5609 15.45 90.5942 15.4C90.6276 15.1 90.6276 14.8 90.5942 14.5C90.5776 14.4167 90.5692 14.3333 90.5692 14.25C90.5692 14.1667 90.5609 14.0833 90.5442 14C90.5442 13.8333 90.5442 13.6667 90.5442 13.5C90.5442 13.3167 90.5276 13.1417 90.4942 12.975V12.575C90.4942 12.4417 90.4859 12.3167 90.4692 12.2C90.4692 12.0833 90.4609 11.9667 90.4442 11.85C90.4276 11.7 90.4109 11.55 90.3942 11.4C90.3942 11.25 90.3859 11.1 90.3692 10.95C90.3526 10.9167 90.3442 10.8583 90.3442 10.775C90.3276 10.6917 90.3109 10.6083 90.2942 10.525C90.2942 10.425 90.2942 10.3333 90.2942 10.25L90.2192 9C90.2026 8.86667 90.1859 8.74167 90.1692 8.625C90.1692 8.49167 90.1692 8.36667 90.1692 8.25C90.1526 8.05 90.1359 7.85 90.1192 7.65C90.1026 7.45 90.0859 7.25833 90.0692 7.075C90.0692 7.04167 90.0609 7.00833 90.0442 6.975C90.0442 6.94167 90.0442 6.91667 90.0442 6.9C90.0442 6.7 90.0359 6.5 90.0192 6.3C90.0026 6.1 89.9859 5.89167 89.9692 5.675L89.8942 4.975C89.8442 4.70833 89.8359 4.41667 89.8692 4.1C89.8692 3.95 89.9276 3.825 90.0442 3.725C90.0776 3.69167 90.1026 3.675 90.1192 3.675C90.1359 3.65833 90.1526 3.64167 90.1692 3.625C90.2526 3.60833 90.2942 3.55 90.2942 3.45C90.2942 3.41667 90.3276 3.4 90.3942 3.4H90.5192C90.5359 3.4 90.5442 3.4 90.5442 3.4C90.5609 3.38333 90.5776 3.375 90.5942 3.375C90.6276 3.35833 90.6526 3.34167 90.6692 3.325C90.7026 3.29167 90.7276 3.275 90.7442 3.275C90.7776 3.275 90.8109 3.28333 90.8442 3.3C90.8776 3.3 90.9109 3.30833 90.9442 3.325C90.9776 3.325 91.0026 3.31667 91.0192 3.3C91.1026 3.28333 91.1859 3.29167 91.2692 3.325C91.3692 3.34167 91.4526 3.36667 91.5192 3.4C91.6192 3.41667 91.6942 3.48333 91.7442 3.6C91.7942 3.75 91.8359 3.9 91.8692 4.05C91.9192 4.18333 91.9526 4.325 91.9692 4.475V4.675C92.0026 4.79167 92.0192 4.91667 92.0192 5.05C92.0192 5.16667 92.0192 5.29167 92.0192 5.425C92.0192 5.54167 92.0192 5.65833 92.0192 5.775C92.0359 5.875 92.0526 5.975 92.0692 6.075C92.0692 6.125 92.0692 6.175 92.0692 6.225C92.0692 6.275 92.0776 6.325 92.0942 6.375C92.0942 6.475 92.0942 6.575 92.0942 6.675C92.1109 6.775 92.1276 6.88333 92.1442 7C92.1609 7.18333 92.1776 7.375 92.1942 7.575C92.2109 7.775 92.2192 7.975 92.2192 8.175C92.2192 8.25833 92.2192 8.35 92.2192 8.45C92.2192 8.53333 92.2276 8.61667 92.2442 8.7C92.2609 8.75 92.2692 8.8 92.2692 8.85C92.2692 8.9 92.2692 8.95 92.2692 9V9.5C92.2692 9.6 92.2776 9.68333 92.2942 9.75C92.3276 9.86667 92.3359 9.98333 92.3192 10.1C92.3192 10.2 92.3276 10.3083 92.3442 10.425L92.4192 11.575C92.4359 11.7417 92.4442 11.9167 92.4442 12.1C92.4609 12.2667 92.4692 12.4417 92.4692 12.625C92.4692 12.6917 92.4692 12.7667 92.4692 12.85C92.4692 12.9167 92.4776 12.9833 92.4942 13.05C92.5109 13.1 92.5192 13.15 92.5192 13.2C92.5192 13.25 92.5192 13.3 92.5192 13.35C92.5359 13.3667 92.5359 13.4 92.5192 13.45C92.5192 13.4833 92.5276 13.5167 92.5442 13.55C92.5776 13.6667 92.5942 13.7833 92.5942 13.9C92.5942 14.0167 92.5942 14.1417 92.5942 14.275C92.5942 14.3417 92.5942 14.4167 92.5942 14.5C92.6109 14.5667 92.6192 14.6417 92.6192 14.725C92.6359 14.8083 92.6442 14.9 92.6442 15C92.6442 15.1 92.6442 15.1917 92.6442 15.275C92.6609 15.3583 92.6692 15.45 92.6692 15.55C92.6692 15.6333 92.6776 15.7167 92.6942 15.8C92.7109 15.8333 92.7192 15.8667 92.7192 15.9C92.7192 16.0833 92.7359 16.2667 92.7692 16.45C92.8026 16.6333 92.8359 16.8167 92.8692 17C92.8859 17.05 92.8942 17.1083 92.8942 17.175C92.8942 17.225 92.8942 17.275 92.8942 17.325C92.8942 17.375 92.8776 17.4167 92.8442 17.45C92.7776 17.5 92.7276 17.6 92.6942 17.75C92.6942 17.8 92.6692 17.8417 92.6192 17.875C92.5026 17.925 92.4026 17.9917 92.3192 18.075C92.1859 18.1917 92.0276 18.25 91.8442 18.25ZM99.9589 18.125C99.8922 18.125 99.8339 18.125 99.7839 18.125C99.7339 18.125 99.6756 18.1167 99.6089 18.1C99.5756 18.1 99.5339 18.0917 99.4839 18.075C99.4506 18.075 99.4172 18.075 99.3839 18.075C99.1172 18.0583 98.8672 18.0083 98.6339 17.925C98.4006 17.8417 98.1672 17.7417 97.9339 17.625C97.9172 17.625 97.9006 17.625 97.8839 17.625C97.8839 17.6083 97.8756 17.6 97.8589 17.6C97.6922 17.5167 97.5422 17.4167 97.4089 17.3C97.2922 17.1833 97.1756 17.0667 97.0589 16.95C96.9256 16.7833 96.8339 16.625 96.7839 16.475C96.7172 16.3417 96.6339 16.2 96.5339 16.05C96.3672 15.8667 96.2422 15.6333 96.1589 15.35C96.1089 15.2167 96.0589 15.0833 96.0089 14.95C95.9589 14.8167 95.9172 14.675 95.8839 14.525C95.8672 14.475 95.8506 14.425 95.8339 14.375C95.8172 14.3083 95.7922 14.2417 95.7589 14.175C95.7256 14.0917 95.6922 14 95.6589 13.9C95.6422 13.8 95.6172 13.7 95.5839 13.6C95.5672 13.5333 95.5422 13.425 95.5089 13.275C95.4922 13.1083 95.4839 13.0083 95.4839 12.975V11.9C95.5006 11.8 95.5172 11.7083 95.5339 11.625C95.5506 11.525 95.5672 11.425 95.5839 11.325L95.6089 11.3C95.6089 11.3167 95.6089 11.325 95.6089 11.325C95.6256 11.325 95.6339 11.3333 95.6339 11.35C95.6506 11.35 95.6589 11.3583 95.6589 11.375C95.6756 11.3917 95.6839 11.3833 95.6839 11.35C95.6839 11.25 95.6756 11.1667 95.6589 11.1C95.6589 11.0667 95.6506 11.0333 95.6339 11C95.6339 10.9667 95.6672 10.9417 95.7339 10.925C95.7506 10.925 95.7589 10.9 95.7589 10.85L95.9839 9.75C96.0006 9.66667 96.0172 9.59167 96.0339 9.525C96.0506 9.44167 96.0672 9.36667 96.0839 9.3L96.1339 9.025C96.1172 9.05833 96.1256 9 96.1589 8.85C96.2089 8.7 96.2422 8.6 96.2589 8.55C96.2922 8.46667 96.3339 8.38333 96.3839 8.3C96.4506 8.21667 96.4922 8.15833 96.5089 8.125C96.6422 7.975 96.7672 7.76667 96.8839 7.5L97.3589 6.75C97.4256 6.68333 97.4589 6.6 97.4589 6.5C97.4422 6.41667 97.4672 6.325 97.5339 6.225C97.5839 6.125 97.6339 6.025 97.6839 5.925C97.7506 5.825 97.8172 5.725 97.8839 5.625C97.9672 5.49167 98.0589 5.35833 98.1589 5.225C98.2756 5.075 98.3839 4.94167 98.4839 4.825C98.5172 4.775 98.5506 4.725 98.5839 4.675C98.6339 4.625 98.6922 4.59167 98.7589 4.575C98.7922 4.575 98.8172 4.56667 98.8339 4.55C98.8506 4.53333 98.8672 4.51667 98.8839 4.5C99.2172 4.15 99.5922 3.825 100.009 3.525C100.042 3.49167 100.076 3.45833 100.109 3.425C100.142 3.39167 100.176 3.36667 100.209 3.35C100.292 3.3 100.384 3.275 100.484 3.275C100.567 3.275 100.634 3.26667 100.684 3.25C100.734 3.25 100.809 3.23333 100.909 3.2C101.026 3.16667 101.117 3.18333 101.184 3.25C101.284 3.35 101.451 3.38333 101.684 3.35C101.834 3.33333 101.959 3.41667 102.059 3.6C102.092 3.65 102.117 3.7 102.134 3.75C102.167 3.8 102.209 3.84167 102.259 3.875C102.309 3.975 102.376 4.06667 102.459 4.15C102.559 4.23333 102.642 4.31667 102.709 4.4L103.034 4.85C103.067 4.9 103.101 4.95833 103.134 5.025C103.184 5.075 103.226 5.125 103.259 5.175C103.342 5.25833 103.392 5.34167 103.409 5.425C103.442 5.50833 103.467 5.56667 103.484 5.6C103.517 5.61667 103.542 5.69167 103.559 5.825C103.576 5.89167 103.576 5.93333 103.559 5.95C103.559 5.95 103.592 5.95 103.659 5.95C103.726 5.95 103.759 5.99167 103.759 6.075C103.759 6.25833 103.726 6.41667 103.659 6.55C103.626 6.6 103.592 6.625 103.559 6.625C103.542 6.625 103.517 6.64167 103.484 6.675C103.434 6.75833 103.376 6.84167 103.309 6.925C103.259 7.00833 103.201 7.1 103.134 7.2C103.084 7.28333 103.017 7.35833 102.934 7.425C102.867 7.49167 102.792 7.55833 102.709 7.625C102.576 7.75833 102.417 7.80833 102.234 7.775C102.084 7.775 101.976 7.76667 101.909 7.75C101.859 7.73333 101.809 7.71667 101.759 7.7C101.726 7.66667 101.684 7.64167 101.634 7.625C101.601 7.625 101.567 7.60833 101.534 7.575C101.517 7.54167 101.501 7.51667 101.484 7.5C101.467 7.46667 101.442 7.44167 101.409 7.425C101.326 7.375 101.259 7.31667 101.209 7.25C101.159 7.16667 101.117 7.09167 101.084 7.025C101.067 6.975 101.059 6.925 101.059 6.875C101.059 6.825 101.059 6.78333 101.059 6.75C101.042 6.65 101.026 6.55 101.009 6.45C101.009 6.35 100.992 6.25 100.959 6.15C100.959 6.11667 100.917 6.1 100.834 6.1C100.734 6.16667 100.634 6.23333 100.534 6.3C100.434 6.36667 100.342 6.45 100.259 6.55L99.4839 7.475C99.4339 7.525 99.3839 7.58333 99.3339 7.65C99.3006 7.7 99.2672 7.75 99.2339 7.8C99.1672 7.88333 99.1006 7.975 99.0339 8.075C98.9839 8.15833 98.9172 8.24167 98.8339 8.325C98.8006 8.35833 98.7756 8.39167 98.7589 8.425C98.7089 8.54167 98.6506 8.65 98.5839 8.75C98.5339 8.85 98.4839 8.96667 98.4339 9.1C98.3506 9.26667 98.2756 9.45 98.2089 9.65C98.1589 9.83333 98.1172 10.025 98.0839 10.225C98.0672 10.475 98.0172 10.725 97.9339 10.975C97.9172 11.0583 97.9006 11.15 97.8839 11.25C97.8672 11.35 97.8506 11.45 97.8339 11.55C97.8172 11.7 97.7922 11.85 97.7589 12C97.7256 12.15 97.7172 12.3083 97.7339 12.475C97.7672 12.8083 97.8172 13.125 97.8839 13.425C97.9339 13.5917 97.9756 13.7583 98.0089 13.925C98.0589 14.075 98.1089 14.2333 98.1589 14.4C98.1756 14.45 98.1922 14.5 98.2089 14.55C98.2256 14.6 98.2422 14.65 98.2589 14.7C98.3589 14.9333 98.5422 15.1167 98.8089 15.25C98.9089 15.3 99.0172 15.325 99.1339 15.325C99.2339 15.325 99.3339 15.3333 99.4339 15.35C99.5339 15.35 99.6339 15.3417 99.7339 15.325C100.201 15.275 100.634 15.2 101.034 15.1C101.217 15.0667 101.392 15.0167 101.559 14.95C101.726 14.8833 101.892 14.8167 102.059 14.75C102.192 14.7 102.317 14.625 102.434 14.525C102.567 14.425 102.701 14.325 102.834 14.225C102.984 14.1083 103.126 13.9917 103.259 13.875C103.392 13.7583 103.526 13.6417 103.659 13.525C103.792 13.4083 103.917 13.2833 104.034 13.15C104.084 13.1 104.159 13.0417 104.259 12.975C104.309 12.9417 104.359 12.9083 104.409 12.875C104.459 12.8417 104.501 12.8083 104.534 12.775C104.617 12.725 104.692 12.675 104.759 12.625C104.842 12.575 104.934 12.55 105.034 12.55C105.084 12.5167 105.134 12.5 105.184 12.5C105.251 12.4833 105.309 12.4667 105.359 12.45C105.509 12.4 105.642 12.4 105.759 12.45C105.809 12.4667 105.859 12.4833 105.909 12.5C105.959 12.5167 106.009 12.5417 106.059 12.575C106.192 12.6583 106.317 12.7917 106.434 12.975C106.517 13.175 106.559 13.35 106.559 13.5V13.65C106.559 13.8667 106.476 14.0583 106.309 14.225C106.126 14.4583 105.934 14.6417 105.734 14.775C105.617 14.8417 105.501 14.9333 105.384 15.05C105.217 15.1833 105.042 15.325 104.859 15.475C104.692 15.625 104.517 15.7667 104.334 15.9L104.234 16C104.184 16.0333 104.134 16.075 104.084 16.125C104.034 16.175 103.976 16.2167 103.909 16.25C103.792 16.3667 103.659 16.475 103.509 16.575C103.359 16.6583 103.209 16.7417 103.059 16.825C102.909 16.8917 102.767 16.9917 102.634 17.125C102.584 17.175 102.534 17.225 102.484 17.275C102.434 17.325 102.376 17.3667 102.309 17.4C102.092 17.5167 101.842 17.6333 101.559 17.75C101.542 17.7667 101.517 17.7833 101.484 17.8C101.451 17.8167 101.417 17.8333 101.384 17.85C101.284 17.9 101.176 17.9417 101.059 17.975C100.959 17.9917 100.859 18.0083 100.759 18.025C100.626 18.0417 100.492 18.05 100.359 18.05C100.226 18.0667 100.092 18.0917 99.9589 18.125ZM111.397 18.175C111.297 18.175 111.23 18.1667 111.197 18.15C111.113 18.1167 111.03 18.1 110.947 18.1C110.88 18.1167 110.805 18.125 110.722 18.125C110.705 18.125 110.688 18.125 110.672 18.125C110.655 18.1417 110.638 18.15 110.622 18.15C110.505 18.1667 110.388 18.175 110.272 18.175C110.172 18.175 110.072 18.1583 109.972 18.125C109.955 18.1083 109.938 18.1 109.922 18.1C109.805 18.1167 109.705 18.0833 109.622 18C109.538 17.9167 109.455 17.8417 109.372 17.775C109.288 17.6917 109.247 17.6 109.247 17.5L109.172 17.3C109.122 17.1833 109.105 17.075 109.122 16.975C109.138 16.9417 109.138 16.9083 109.122 16.875C109.122 16.8417 109.122 16.8083 109.122 16.775C109.105 16.7417 109.097 16.7083 109.097 16.675C109.097 16.625 109.088 16.5833 109.072 16.55C109.038 16.4 109.013 16.25 108.997 16.1C108.997 15.9333 109.005 15.775 109.022 15.625C109.038 15.525 109.097 15.3583 109.197 15.125C109.297 14.875 109.355 14.725 109.372 14.675C109.422 14.5917 109.447 14.525 109.447 14.475C109.43 14.2917 109.422 14.1083 109.422 13.925C109.438 13.725 109.447 13.5333 109.447 13.35C109.447 13.2333 109.472 13.1417 109.522 13.075C109.588 12.9583 109.597 12.8333 109.547 12.7L109.472 12.425C109.372 12.2417 109.38 12.0833 109.497 11.95C109.497 11.9333 109.497 11.925 109.497 11.925C109.513 11.9083 109.522 11.8917 109.522 11.875C109.555 11.8417 109.563 11.8 109.547 11.75C109.53 11.6833 109.522 11.6333 109.522 11.6C109.522 11.5333 109.53 11.4667 109.547 11.4C109.58 11.3167 109.588 11.2417 109.572 11.175C109.572 11.175 109.555 11.1583 109.522 11.125C109.505 11.0917 109.497 11.025 109.497 10.925C109.513 10.825 109.522 10.7667 109.522 10.75V10.05C109.538 9.96667 109.547 9.89167 109.547 9.825C109.547 9.74167 109.555 9.65833 109.572 9.575C109.588 9.475 109.588 9.375 109.572 9.275C109.572 9.15833 109.572 9.04167 109.572 8.925C109.555 8.84167 109.538 8.75 109.522 8.65C109.522 8.55 109.522 8.45 109.522 8.35C109.505 8.31667 109.497 8.275 109.497 8.225C109.497 8.175 109.497 8.13333 109.497 8.1C109.48 8.01667 109.463 7.93333 109.447 7.85C109.447 7.76667 109.447 7.68333 109.447 7.6C109.447 7.56667 109.413 7.45833 109.347 7.275C109.28 7.075 109.255 6.90833 109.272 6.775C109.288 6.74167 109.297 6.7 109.297 6.65C109.297 6.6 109.28 6.55833 109.247 6.525C109.213 6.50833 109.197 6.475 109.197 6.425V6.35C109.247 6.15 109.222 5.95 109.122 5.75C109.055 5.65 109.03 5.55 109.047 5.45C109.047 5.31667 108.988 5.21667 108.872 5.15C108.788 5.06667 108.713 4.96667 108.647 4.85C108.58 4.73333 108.538 4.61667 108.522 4.5C108.505 4.41667 108.497 4.33333 108.497 4.25C108.497 4.16667 108.497 4.09167 108.497 4.025C108.497 3.95833 108.505 3.91667 108.522 3.9C108.588 3.83333 108.622 3.75833 108.622 3.675C108.622 3.575 108.63 3.5 108.647 3.45C108.663 3.43333 108.68 3.425 108.697 3.425C108.713 3.425 108.73 3.41667 108.747 3.4C108.813 3.38333 108.847 3.325 108.847 3.225C108.813 3.15833 108.797 3.1 108.797 3.05C108.78 2.98333 108.805 2.925 108.872 2.875C108.905 2.80833 108.947 2.79167 108.997 2.825C109.113 2.875 109.247 2.85833 109.397 2.775C109.463 2.74167 109.505 2.725 109.522 2.725C109.572 2.725 109.597 2.725 109.597 2.725C109.613 2.70833 109.663 2.7 109.747 2.7C109.847 2.71667 109.938 2.68333 110.022 2.6C110.138 2.48333 110.28 2.425 110.447 2.425H111.997C112.38 2.44167 112.763 2.44167 113.147 2.425C113.53 2.40833 113.905 2.4 114.272 2.4C114.355 2.4 114.422 2.4 114.472 2.4C114.538 2.38333 114.605 2.36667 114.672 2.35C114.772 2.3 114.888 2.275 115.022 2.275H115.597C115.73 2.275 115.847 2.275 115.947 2.275C116.063 2.25833 116.18 2.24167 116.297 2.225C116.363 2.20833 116.422 2.2 116.472 2.2C116.538 2.2 116.605 2.2 116.672 2.2C116.738 2.2 116.805 2.2 116.872 2.2C116.938 2.2 117.005 2.19167 117.072 2.175C117.205 2.15833 117.347 2.15 117.497 2.15C117.647 2.13333 117.788 2.125 117.922 2.125C117.988 2.125 118.047 2.125 118.097 2.125C118.163 2.10833 118.23 2.09167 118.297 2.075C118.43 2.04167 118.555 2.025 118.672 2.025C118.805 2.00833 118.93 1.99167 119.047 1.975C119.18 1.95833 119.305 1.94167 119.422 1.925C119.555 1.90833 119.68 1.89167 119.797 1.875C119.947 1.875 120.055 1.89167 120.122 1.925C120.222 1.99167 120.313 2.05 120.397 2.1C120.497 2.15 120.588 2.21667 120.672 2.3C120.738 2.36667 120.78 2.425 120.797 2.475C120.813 2.54167 120.83 2.60833 120.847 2.675C120.863 2.74167 120.88 2.81667 120.897 2.9V3.075C120.88 3.15833 120.863 3.25 120.847 3.35C120.847 3.43333 120.838 3.525 120.822 3.625C120.788 3.69167 120.747 3.75 120.697 3.8L120.247 4.25C120.08 4.3 119.913 4.33333 119.747 4.35C119.597 4.36667 119.438 4.36667 119.272 4.35H119.097C119.013 4.36667 118.93 4.375 118.847 4.375C118.763 4.375 118.68 4.36667 118.597 4.35C118.497 4.33333 118.397 4.33333 118.297 4.35C118.197 4.35 118.097 4.35 117.997 4.35C117.93 4.35 117.863 4.35833 117.797 4.375C117.747 4.375 117.688 4.36667 117.622 4.35C117.538 4.33333 117.455 4.33333 117.372 4.35C117.305 4.35 117.23 4.35833 117.147 4.375C117.08 4.375 117.005 4.38333 116.922 4.4C116.855 4.4 116.78 4.4 116.697 4.4C116.48 4.43333 116.247 4.45 115.997 4.45C115.763 4.45 115.53 4.46667 115.297 4.5C115.147 4.48333 115.005 4.49167 114.872 4.525C114.738 4.54167 114.597 4.55833 114.447 4.575C114.313 4.59167 114.172 4.6 114.022 4.6C113.872 4.6 113.73 4.61667 113.597 4.65C113.43 4.65 113.263 4.675 113.097 4.725C112.947 4.75833 112.788 4.78333 112.622 4.8L112.447 4.825C112.33 4.825 112.222 4.84167 112.122 4.875C112.022 4.89167 111.913 4.91667 111.797 4.95C111.73 4.96667 111.663 4.98333 111.597 5C111.53 5 111.455 5.00833 111.372 5.025C111.322 5.025 111.263 5.04167 111.197 5.075C111.147 5.09167 111.122 5.14167 111.122 5.225L111.197 5.45C111.213 5.48333 111.205 5.56667 111.172 5.7C111.155 5.83333 111.138 5.93333 111.122 6C111.122 6.05 111.13 6.1 111.147 6.15C111.163 6.2 111.18 6.25 111.197 6.3C111.247 6.43333 111.272 6.58333 111.272 6.75C111.272 6.9 111.288 7.04167 111.322 7.175C111.338 7.24167 111.347 7.31667 111.347 7.4C111.347 7.46667 111.355 7.54167 111.372 7.625C111.372 7.65833 111.372 7.7 111.372 7.75C111.388 7.78333 111.397 7.825 111.397 7.875C111.397 7.925 111.388 7.95833 111.372 7.975C111.322 8.04167 111.297 8.11667 111.297 8.2C111.297 8.28333 111.297 8.36667 111.297 8.45C111.38 8.61667 111.422 8.78333 111.422 8.95C111.422 9.11667 111.422 9.28333 111.422 9.45C111.422 9.5 111.463 9.51667 111.547 9.5H111.572C111.605 9.43333 111.638 9.38333 111.672 9.35C111.722 9.35 111.78 9.33333 111.847 9.3C111.897 9.26667 111.963 9.25 112.047 9.25C112.18 9.26667 112.305 9.26667 112.422 9.25C112.538 9.21667 112.655 9.18333 112.772 9.15C113.555 8.95 114.288 8.69167 114.972 8.375C115.155 8.29167 115.347 8.225 115.547 8.175C115.747 8.10833 115.947 8.06667 116.147 8.05H116.222C116.372 8.03333 116.522 8.01667 116.672 8C116.822 7.98333 116.972 7.975 117.122 7.975C117.322 7.95833 117.513 7.93333 117.697 7.9C117.897 7.86667 118.097 7.84167 118.297 7.825C118.413 7.79167 118.522 7.76667 118.622 7.75C118.722 7.71667 118.83 7.675 118.947 7.625C119.163 7.54167 119.363 7.5 119.547 7.5C119.68 7.51667 119.805 7.55 119.922 7.6C120.038 7.63333 120.155 7.68333 120.272 7.75C120.522 7.91667 120.647 8.16667 120.647 8.5C120.647 8.63333 120.63 8.76667 120.597 8.9C120.58 9.03333 120.572 9.16667 120.572 9.3C120.572 9.33333 120.555 9.36667 120.522 9.4L120.447 9.525C120.43 9.59167 120.413 9.65833 120.397 9.725C120.38 9.79167 120.338 9.84167 120.272 9.875C120.172 9.95833 120.063 10.05 119.947 10.15C119.847 10.2333 119.73 10.2917 119.597 10.325C119.53 10.3417 119.463 10.3583 119.397 10.375C119.347 10.3917 119.288 10.4 119.222 10.4C118.955 10.4 118.68 10.4167 118.397 10.45C118.13 10.4833 117.855 10.5167 117.572 10.55C117.355 10.5667 117.138 10.5917 116.922 10.625C116.722 10.6583 116.513 10.675 116.297 10.675C116.097 10.675 115.872 10.7167 115.622 10.8C115.455 10.8333 115.28 10.8667 115.097 10.9C114.913 10.9333 114.73 10.9583 114.547 10.975C114.413 10.9917 114.272 11.0167 114.122 11.05C113.988 11.0667 113.855 11.0833 113.722 11.1L113.297 11.175C113.263 11.1917 113.213 11.2 113.147 11.2C113.03 11.2333 112.913 11.2583 112.797 11.275C112.68 11.2917 112.563 11.3167 112.447 11.35C112.33 11.3667 112.213 11.3917 112.097 11.425C111.997 11.4583 111.888 11.4917 111.772 11.525C111.688 11.5417 111.622 11.575 111.572 11.625C111.522 11.6583 111.48 11.7083 111.447 11.775C111.43 11.825 111.43 11.875 111.447 11.925C111.463 11.9917 111.455 12.0583 111.422 12.125C111.438 12.2917 111.447 12.4583 111.447 12.625C111.463 12.7917 111.463 12.9583 111.447 13.125C111.48 13.2583 111.488 13.3917 111.472 13.525C111.472 13.6583 111.463 13.7917 111.447 13.925C111.413 14.125 111.422 14.2917 111.472 14.425C111.522 14.6417 111.505 14.8667 111.422 15.1C111.388 15.2 111.388 15.2667 111.422 15.3C111.455 15.35 111.455 15.4083 111.422 15.475V15.625C111.405 15.7583 111.463 15.825 111.597 15.825H111.647C111.763 15.825 111.88 15.8667 111.997 15.95C112.08 16.0333 112.18 16.0583 112.297 16.025L112.997 15.95C113.097 15.9333 113.197 15.925 113.297 15.925C113.397 15.9083 113.497 15.9 113.597 15.9C113.63 15.8833 113.68 15.8917 113.747 15.925C113.83 15.975 113.905 15.9833 113.972 15.95C114.005 15.9167 114.047 15.8917 114.097 15.875C114.163 15.8583 114.213 15.8333 114.247 15.8C114.347 15.7 114.472 15.6667 114.622 15.7C114.755 15.7333 114.863 15.725 114.947 15.675C115.097 15.625 115.238 15.6083 115.372 15.625C115.455 15.6417 115.538 15.6333 115.622 15.6C115.705 15.5667 115.788 15.55 115.872 15.55C115.905 15.55 115.93 15.5583 115.947 15.575C115.963 15.575 115.98 15.5667 115.997 15.55C116.03 15.55 116.063 15.5417 116.097 15.525C116.13 15.5083 116.155 15.5 116.172 15.5C116.288 15.45 116.397 15.4333 116.497 15.45C116.58 15.45 116.622 15.45 116.622 15.45C116.688 15.4333 116.747 15.4333 116.797 15.45C116.863 15.4667 116.922 15.4917 116.972 15.525C117.055 15.5417 117.122 15.5667 117.172 15.6C117.238 15.6333 117.305 15.6583 117.372 15.675C117.405 15.675 117.43 15.6833 117.447 15.7C117.53 15.7667 117.63 15.825 117.747 15.875C117.88 15.925 117.955 15.9833 117.972 16.05C118.005 16.15 118.022 16.25 118.022 16.35C118.022 16.4333 118.03 16.525 118.047 16.625C118.047 16.675 118.038 16.725 118.022 16.775C118.022 16.825 118.013 16.875 117.997 16.925C117.963 16.9917 117.922 17.0667 117.872 17.15C117.838 17.2333 117.788 17.3083 117.722 17.375C117.688 17.4083 117.655 17.4417 117.622 17.475C117.605 17.5083 117.58 17.5417 117.547 17.575C117.48 17.6417 117.405 17.7 117.322 17.75C117.238 17.8 117.147 17.825 117.047 17.825C116.98 17.825 116.93 17.8333 116.897 17.85C116.83 17.8833 116.763 17.9 116.697 17.9C116.63 17.9 116.555 17.9 116.472 17.9C116.355 17.9167 116.238 17.9333 116.122 17.95C116.022 17.95 115.913 17.9417 115.797 17.925C115.73 17.9083 115.672 17.9083 115.622 17.925C115.455 17.975 115.288 17.9833 115.122 17.95C114.955 17.95 114.788 17.9583 114.622 17.975C114.472 17.975 114.322 17.975 114.172 17.975H113.847C113.797 17.975 113.755 17.9833 113.722 18C113.655 18.0333 113.572 18.05 113.472 18.05C113.388 18.05 113.305 18.0417 113.222 18.025H112.972C112.955 18.025 112.93 18.025 112.897 18.025C112.863 18.0417 112.83 18.0417 112.797 18.025C112.747 18.0083 112.697 18 112.647 18C112.613 18.0167 112.572 18.0333 112.522 18.05C112.488 18.05 112.455 18.05 112.422 18.05C112.405 18.0667 112.38 18.075 112.347 18.075C112.18 18.0583 112.022 18.0583 111.872 18.075C111.722 18.1083 111.563 18.1417 111.397 18.175Z" fill="#353535"/>
</svg>
