<svg width="134" height="23" viewBox="0 0 134 23" fill="none" xmlns="http://www.w3.org/2000/svg">
<path d="M8.38643 17.975C8.16976 18.025 7.94476 18.0083 7.71143 17.925C7.64476 17.9083 7.58643 17.8833 7.53643 17.85C7.50309 17.8167 7.46143 17.7833 7.41143 17.75C7.29476 17.6667 7.20309 17.5417 7.13643 17.375L7.03643 17.05C7.03643 17.0167 7.02809 16.9917 7.01143 16.975C7.01143 16.9417 7.01143 16.9167 7.01143 16.9C7.01143 16.6667 6.99476 16.4417 6.96143 16.225C6.92809 15.9917 6.89476 15.7667 6.86143 15.55C6.82809 15.3833 6.79476 15.2167 6.76143 15.05C6.74476 14.8833 6.71976 14.7167 6.68643 14.55C6.68643 14.5167 6.67809 14.4917 6.66143 14.475C6.66143 14.4583 6.66143 14.4417 6.66143 14.425C6.62809 14.225 6.59476 14.025 6.56143 13.825C6.52809 13.625 6.49476 13.4333 6.46143 13.25C6.44476 13.15 6.42809 13.05 6.41143 12.95C6.41143 12.85 6.39476 12.75 6.36143 12.65L6.21143 11.55C6.19476 11.4 6.16976 11.25 6.13643 11.1C6.11976 10.9333 6.09476 10.7667 6.06143 10.6C6.04476 10.4333 6.01976 10.275 5.98643 10.125C5.95309 9.95833 5.91976 9.8 5.88643 9.65L5.51143 8C5.47809 7.81667 5.44476 7.63333 5.41143 7.45C5.37809 7.26667 5.33643 7.09167 5.28643 6.925C5.23643 6.775 5.19476 6.625 5.16143 6.475C5.12809 6.30833 5.07809 6.15 5.01143 6L4.98643 5.9C4.93643 5.68333 4.86976 5.475 4.78643 5.275C4.71976 5.075 4.64476 4.875 4.56143 4.675C4.56143 4.65833 4.55309 4.65 4.53643 4.65C4.53643 4.63333 4.53643 4.625 4.53643 4.625C4.50309 4.525 4.44476 4.49167 4.36143 4.525C4.34476 4.54167 4.31976 4.55 4.28643 4.55C4.21976 4.56667 4.15309 4.59167 4.08643 4.625C4.03643 4.65833 3.97809 4.69167 3.91143 4.725C3.74476 4.775 3.60309 4.85 3.48643 4.95L2.81143 5.425C2.71143 5.475 2.61976 5.54167 2.53643 5.625C2.46976 5.70833 2.40309 5.79167 2.33643 5.875C2.28643 5.94167 2.26143 6.01667 2.26143 6.1L2.18643 6.55C2.16976 6.71667 2.15309 6.89167 2.13643 7.075C2.11976 7.25833 2.10309 7.44167 2.08643 7.625C2.06976 7.79167 2.04476 7.95 2.01143 8.1C1.99476 8.23333 1.98643 8.38333 1.98643 8.55C1.98643 8.68333 1.96143 8.825 1.91143 8.975C1.86143 9.15833 1.73643 9.275 1.53643 9.325C1.38643 9.34167 1.26143 9.29167 1.16143 9.175C1.07809 9.09167 1.01976 8.96667 0.986426 8.8C0.969759 8.68333 0.953093 8.575 0.936426 8.475C0.919759 8.375 0.911426 8.26667 0.911426 8.15V7.4C0.911426 7.25 0.903092 7.10833 0.886426 6.975C0.886426 6.84167 0.894759 6.71667 0.911426 6.6C0.911426 6.31667 0.844759 6.04167 0.711426 5.775L0.336426 5C0.269759 4.86667 0.211426 4.69167 0.161426 4.475C0.111426 4.24167 0.0864258 4.05 0.0864258 3.9C0.119759 3.51667 0.261426 3.2 0.511426 2.95C0.728093 2.73333 0.978093 2.59167 1.26143 2.525C1.36143 2.49167 1.49476 2.45833 1.66143 2.425L2.98643 2.2C3.11976 2.18333 3.24476 2.16667 3.36143 2.15C3.49476 2.11667 3.61976 2.09167 3.73643 2.075C3.98643 2.04167 4.23643 2.00833 4.48643 1.975C4.75309 1.94167 5.01976 1.91667 5.28643 1.9C5.43643 1.88333 5.58643 1.86667 5.73643 1.85C5.88643 1.83333 6.03643 1.81667 6.18643 1.8H6.28643C6.43643 1.78333 6.57809 1.775 6.71143 1.775C6.86143 1.75833 7.01143 1.74167 7.16143 1.725C7.24476 1.70833 7.32809 1.7 7.41143 1.7C7.49476 1.7 7.56976 1.69167 7.63643 1.675C7.65309 1.65833 7.68643 1.65 7.73643 1.65L8.66143 1.575C8.84476 1.55833 9.01976 1.54167 9.18643 1.525C9.36976 1.50833 9.55309 1.49167 9.73643 1.475C9.88643 1.45833 10.0364 1.44167 10.1864 1.425C10.3364 1.39167 10.4864 1.34167 10.6364 1.275C10.7864 1.20833 10.9364 1.19167 11.0864 1.225C11.2531 1.24167 11.4031 1.28333 11.5364 1.35C11.5864 1.36667 11.6281 1.4 11.6614 1.45C11.7114 1.48333 11.7531 1.51667 11.7864 1.55C11.8698 1.63333 11.9364 1.73333 11.9864 1.85C12.0364 1.95 12.0864 2.05 12.1364 2.15C12.1864 2.25 12.1864 2.35 12.1364 2.45C12.1031 2.51667 12.0781 2.59167 12.0614 2.675C12.0614 2.74167 12.0531 2.81667 12.0364 2.9C12.0364 2.98333 12.0114 3.05 11.9614 3.1C11.9281 3.11667 11.8948 3.14167 11.8614 3.175C11.8281 3.20833 11.7948 3.24167 11.7614 3.275C11.7114 3.29167 11.6614 3.34167 11.6114 3.425C11.5114 3.55833 11.3698 3.625 11.1864 3.625C11.1198 3.625 11.0531 3.63333 10.9864 3.65C10.9364 3.66667 10.8781 3.68333 10.8114 3.7C10.6614 3.73333 10.5614 3.78333 10.5114 3.85C10.4281 3.93333 10.3364 3.975 10.2364 3.975C10.1198 4.00833 10.0281 3.975 9.96143 3.875C9.94476 3.825 9.90309 3.8 9.83643 3.8C9.76976 3.81667 9.69476 3.825 9.61143 3.825C9.54476 3.825 9.47809 3.825 9.41143 3.825C9.34476 3.84167 9.26976 3.85 9.18643 3.85C9.11976 3.85 9.04476 3.85833 8.96143 3.875C8.89476 3.875 8.83643 3.88333 8.78643 3.9C8.73643 3.9 8.67809 3.9 8.61143 3.9C8.44476 3.91667 8.26976 3.93333 8.08643 3.95C7.91976 3.96667 7.74476 3.98333 7.56143 4C7.46143 4 7.38643 4.00833 7.33643 4.025C7.26976 4.05833 7.23643 4.10833 7.23643 4.175C7.21976 4.24167 7.21976 4.325 7.23643 4.425L7.38643 5.2C7.41976 5.35 7.45309 5.50833 7.48643 5.675C7.51976 5.825 7.55309 5.98333 7.58643 6.15L7.66143 6.7C7.66143 6.76667 7.66143 6.83333 7.66143 6.9C7.67809 6.95 7.69476 7.00833 7.71143 7.075C7.74476 7.275 7.77809 7.475 7.81143 7.675C7.86143 7.875 7.89476 8.075 7.91143 8.275L7.93643 8.375C8.00309 8.59167 8.05309 8.80833 8.08643 9.025C8.11976 9.24167 8.15309 9.46667 8.18643 9.7C8.21976 9.85 8.25309 10.0083 8.28643 10.175C8.31976 10.325 8.34476 10.475 8.36143 10.625C8.37809 10.7417 8.39476 10.8583 8.41143 10.975C8.42809 11.075 8.44476 11.1833 8.46143 11.3V11.425C8.47809 11.5583 8.49476 11.6917 8.51143 11.825C8.54476 11.9417 8.56976 12.0667 8.58643 12.2L8.66143 12.95C8.67809 13.0667 8.69476 13.1833 8.71143 13.3C8.72809 13.4167 8.74476 13.5417 8.76143 13.675C8.76143 13.7083 8.76143 13.75 8.76143 13.8C8.77809 13.8333 8.78643 13.8667 8.78643 13.9C8.78643 13.9833 8.79476 14.075 8.81143 14.175C8.82809 14.2583 8.84476 14.35 8.86143 14.45C8.89476 14.6333 8.92809 14.825 8.96143 15.025C8.99476 15.2083 9.02809 15.4 9.06143 15.6C9.07809 15.7167 9.10309 15.8333 9.13643 15.95C9.16976 16.05 9.19476 16.1583 9.21143 16.275C9.22809 16.3583 9.27809 16.4417 9.36143 16.525C9.42809 16.575 9.44476 16.6333 9.41143 16.7C9.36143 16.7667 9.32809 16.8417 9.31143 16.925C9.31143 17.0083 9.30309 17.0917 9.28643 17.175C9.28643 17.2417 9.27809 17.2917 9.26143 17.325C9.26143 17.4083 9.22809 17.4667 9.16143 17.5C9.09476 17.5333 9.02809 17.6 8.96143 17.7C8.87809 17.7833 8.81143 17.8417 8.76143 17.875C8.71143 17.925 8.64476 17.95 8.56143 17.95C8.52809 17.9333 8.46976 17.9417 8.38643 17.975ZM23.8741 18.6C23.7241 18.6167 23.5825 18.6167 23.4491 18.6C23.3158 18.5833 23.1825 18.5167 23.0491 18.4C23.0158 18.3667 22.9658 18.3333 22.8991 18.3C22.8158 18.25 22.7658 18.1917 22.7491 18.125C22.7325 18.0583 22.6991 18.0083 22.6491 17.975C22.5991 17.925 22.5658 17.8667 22.5491 17.8C22.5325 17.75 22.5241 17.7 22.5241 17.65C22.5408 17.5833 22.5491 17.525 22.5491 17.475C22.5491 17.425 22.5408 17.375 22.5241 17.325C22.5241 17.275 22.5241 17.225 22.5241 17.175C22.4741 16.925 22.4241 16.675 22.3741 16.425C22.3241 16.1583 22.2825 15.9 22.2491 15.65C22.2325 15.5333 22.2158 15.4167 22.1991 15.3C22.1825 15.1833 22.1658 15.0667 22.1491 14.95C22.1325 14.7333 22.1075 14.5167 22.0741 14.3C22.0575 14.0833 22.0325 13.8667 21.9991 13.65C21.9658 13.5167 21.9491 13.4 21.9491 13.3C21.9491 13.1667 21.9408 13.0417 21.9241 12.925C21.9075 12.7917 21.8908 12.6667 21.8741 12.55C21.8575 12.45 21.7991 12.4 21.6991 12.4L21.5241 12.375C21.4408 12.3583 21.3491 12.35 21.2491 12.35C21.1491 12.35 21.0491 12.3417 20.9491 12.325H20.6991C20.6658 12.3417 20.6158 12.35 20.5491 12.35C20.4825 12.35 20.4158 12.35 20.3491 12.35C20.2991 12.3333 20.2325 12.3333 20.1491 12.35C20.0825 12.35 20.0158 12.3583 19.9491 12.375C19.8991 12.375 19.8325 12.3667 19.7491 12.35C19.7325 12.3333 19.6991 12.3333 19.6491 12.35C19.6158 12.35 19.5825 12.35 19.5491 12.35C19.4658 12.35 19.3741 12.3583 19.2741 12.375C19.1908 12.375 19.1075 12.375 19.0241 12.375C18.9741 12.375 18.9241 12.375 18.8741 12.375C18.8241 12.375 18.7741 12.3833 18.7241 12.4C18.6075 12.4167 18.4908 12.4333 18.3741 12.45C18.2575 12.45 18.1408 12.45 18.0241 12.45C17.8575 12.4333 17.6908 12.4333 17.5241 12.45C17.3575 12.4667 17.1908 12.4833 17.0241 12.5H16.9491C16.8658 12.5333 16.8241 12.5833 16.8241 12.65C16.8241 12.6667 16.8158 12.6833 16.7991 12.7C16.7991 12.7 16.7991 12.7083 16.7991 12.725C16.7991 12.8083 16.8075 12.875 16.8241 12.925C16.8408 13.0417 16.8575 13.1667 16.8741 13.3C16.8908 13.4167 16.9075 13.5417 16.9241 13.675L16.9991 14.275C17.0158 14.4417 17.0408 14.6083 17.0741 14.775C17.1075 14.925 17.1325 15.075 17.1491 15.225C17.1658 15.2417 17.1741 15.2667 17.1741 15.3C17.1741 15.3167 17.1825 15.3417 17.1991 15.375C17.2325 15.4583 17.2491 15.55 17.2491 15.65C17.2491 15.75 17.2491 15.85 17.2491 15.95C17.2825 15.9667 17.2741 16 17.2241 16.05C17.2075 16.0833 17.1908 16.1167 17.1741 16.15C17.1575 16.1833 17.1491 16.2167 17.1491 16.25C17.0991 16.4167 16.9908 16.575 16.8241 16.725C16.6575 16.8583 16.4991 16.9333 16.3491 16.95C16.3325 16.95 16.3158 16.9583 16.2991 16.975C16.2825 16.975 16.2575 16.975 16.2241 16.975C16.0075 17.025 15.7741 17.0083 15.5241 16.925L15.4491 16.875C15.4325 16.8083 15.3991 16.7583 15.3491 16.725C15.2991 16.6917 15.2575 16.6583 15.2241 16.625C15.1908 16.575 15.1491 16.5333 15.0991 16.5C15.0658 16.45 15.0408 16.3917 15.0241 16.325C15.0241 16.3083 15.0158 16.3 14.9991 16.3C14.9325 16.2167 14.8908 16.125 14.8741 16.025C14.8575 15.925 14.8408 15.825 14.8241 15.725L14.7491 15.325C14.7325 15.175 14.7075 15.025 14.6741 14.875C14.6575 14.7083 14.6408 14.5417 14.6241 14.375L14.4741 13.4C14.4575 13.2833 14.4408 13.1667 14.4241 13.05C14.4075 12.9167 14.3908 12.7917 14.3741 12.675L14.2991 11.875C14.2825 11.7083 14.2658 11.5417 14.2491 11.375C14.2325 11.2083 14.2075 11.0417 14.1741 10.875V10.65C14.1741 10.5167 14.1658 10.3833 14.1491 10.25C14.1491 10.1167 14.1408 9.99167 14.1241 9.875C14.1075 9.825 14.0991 9.775 14.0991 9.725C14.0991 9.675 14.0991 9.625 14.0991 9.575C14.0991 9.49167 14.0908 9.41667 14.0741 9.35C14.0741 9.26667 14.0658 9.18333 14.0491 9.1L13.9741 8.575C13.9575 8.39167 13.9241 8.2 13.8741 8C13.8408 7.8 13.7908 7.60833 13.7241 7.425C13.6908 7.325 13.6491 7.225 13.5991 7.125C13.5491 7.00833 13.5075 6.89167 13.4741 6.775C13.4408 6.64167 13.4075 6.55 13.3741 6.5C13.3241 6.33333 13.3241 6.175 13.3741 6.025L13.5241 5.65C13.5408 5.58333 13.5908 5.525 13.6741 5.475C13.7075 5.425 13.7491 5.38333 13.7991 5.35C13.8491 5.3 13.8991 5.25833 13.9491 5.225C13.9825 5.20833 14.0241 5.2 14.0741 5.2C14.1241 5.21667 14.1908 5.20833 14.2741 5.175L14.3491 5.125C14.4991 5.04167 14.6491 5.04167 14.7991 5.125C14.8825 5.15833 14.9658 5.19167 15.0491 5.225C15.1491 5.25833 15.2325 5.31667 15.2991 5.4C15.3991 5.41667 15.4658 5.49167 15.4991 5.625L15.7241 6.125C15.8575 6.40833 15.9741 6.7 16.0741 7C16.1741 7.3 16.2408 7.61667 16.2741 7.95C16.2908 8.06667 16.3075 8.19167 16.3241 8.325C16.3575 8.44167 16.3825 8.56667 16.3991 8.7V8.9C16.3991 8.98333 16.4075 9.04167 16.4241 9.075C16.4408 9.19167 16.4491 9.31667 16.4491 9.45C16.4658 9.58333 16.4741 9.71667 16.4741 9.85V9.9C16.4908 9.98333 16.5408 10.0417 16.6241 10.075C16.6741 10.0917 16.7241 10.1083 16.7741 10.125C16.8241 10.125 16.8741 10.125 16.9241 10.125C17.0075 10.1083 17.0741 10.1083 17.1241 10.125C17.1908 10.125 17.2575 10.125 17.3241 10.125C17.4408 10.125 17.5491 10.125 17.6491 10.125C17.7491 10.1083 17.8575 10.1 17.9741 10.1H18.2741C18.3241 10.1 18.3741 10.1083 18.4241 10.125C18.4908 10.125 18.5491 10.1167 18.5991 10.1C18.6325 10.1 18.6575 10.1 18.6741 10.1C18.7075 10.0833 18.7325 10.075 18.7491 10.075C18.9158 10.0917 19.0825 10.1 19.2491 10.1C19.4158 10.0833 19.5825 10.075 19.7491 10.075C19.9158 10.0917 20.0825 10.1 20.2491 10.1C20.4158 10.0833 20.5825 10.075 20.7491 10.075C20.8825 10.075 21.0075 10.0833 21.1241 10.1C21.2575 10.1 21.3825 10.1 21.4991 10.1C21.6158 10.1 21.6741 10.05 21.6741 9.95C21.6741 9.86667 21.6741 9.775 21.6741 9.675C21.6741 9.575 21.6658 9.48333 21.6491 9.4C21.6325 9.21667 21.6158 9.05 21.5991 8.9C21.5991 8.73333 21.5908 8.56667 21.5741 8.4C21.5575 8.16667 21.5491 7.94167 21.5491 7.725C21.5658 7.49167 21.5575 7.26667 21.5241 7.05C21.5075 6.86667 21.4908 6.68333 21.4741 6.5C21.4741 6.31667 21.4575 6.14167 21.4241 5.975V5.625C21.4241 5.55833 21.4325 5.50833 21.4491 5.475C21.4491 5.44167 21.4491 5.41667 21.4491 5.4C21.4658 5.36667 21.4741 5.34167 21.4741 5.325C21.4741 5.24167 21.4575 5.19167 21.4241 5.175L21.3491 5.125C21.2491 5.05833 21.2325 4.98333 21.2991 4.9C21.3491 4.83333 21.3575 4.75833 21.3241 4.675C21.3241 4.625 21.3325 4.59167 21.3491 4.575C21.3825 4.525 21.4158 4.475 21.4491 4.425C21.4825 4.375 21.5075 4.31667 21.5241 4.25C21.5741 4.06667 21.6491 3.98333 21.7491 4C21.8658 4 21.9408 4.01667 21.9741 4.05C21.9908 4.06667 22.0075 4.075 22.0241 4.075C22.0408 4.05833 22.0491 4.04167 22.0491 4.025C22.0491 3.925 22.0991 3.86667 22.1991 3.85C22.2991 3.83333 22.3741 3.81667 22.4241 3.8L22.5741 3.7H22.6491C22.7325 3.73333 22.7991 3.775 22.8491 3.825C22.9158 3.85833 22.9825 3.89167 23.0491 3.925C23.0825 3.94167 23.1241 3.975 23.1741 4.025C23.2908 4.175 23.3741 4.36667 23.4241 4.6C23.4575 4.76667 23.4908 4.925 23.5241 5.075C23.5575 5.225 23.5825 5.38333 23.5991 5.55C23.5991 5.58333 23.5991 5.61667 23.5991 5.65C23.6158 5.68333 23.6241 5.71667 23.6241 5.75L23.6491 5.925C23.6491 6.125 23.6575 6.325 23.6741 6.525C23.7075 6.70833 23.7325 6.9 23.7491 7.1C23.7658 7.11667 23.7741 7.15 23.7741 7.2C23.7575 7.31667 23.7491 7.43333 23.7491 7.55C23.7658 7.65 23.7825 7.76667 23.7991 7.9C23.8158 8.01667 23.8241 8.15 23.8241 8.3C23.8408 8.43333 23.8491 8.56667 23.8491 8.7C23.8491 8.78333 23.8491 8.875 23.8491 8.975C23.8658 9.075 23.8825 9.16667 23.8991 9.25C23.9158 9.33333 23.9241 9.41667 23.9241 9.5C23.9241 9.58333 23.9241 9.66667 23.9241 9.75C23.9241 9.83333 23.9241 9.91667 23.9241 10C23.9408 10.0667 23.9575 10.1417 23.9741 10.225V10.325C23.9908 10.525 24.0075 10.725 24.0241 10.925C24.0575 11.1083 24.0825 11.3 24.0991 11.5C24.1158 11.5167 24.1241 11.55 24.1241 11.6C24.1241 11.7833 24.1408 11.975 24.1741 12.175C24.2075 12.3583 24.2325 12.5417 24.2491 12.725L24.3241 13.6C24.3241 13.6167 24.3241 13.65 24.3241 13.7C24.3408 13.7333 24.3491 13.7667 24.3491 13.8C24.3658 13.8333 24.3741 13.9 24.3741 14C24.3741 14.15 24.3825 14.3 24.3991 14.45C24.4325 14.6 24.4575 14.75 24.4741 14.9C24.5075 15.0667 24.5325 15.2333 24.5491 15.4C24.5658 15.5667 24.5908 15.7417 24.6241 15.925C24.6575 16.125 24.6991 16.325 24.7491 16.525C24.7991 16.725 24.8408 16.925 24.8741 17.125C24.8908 17.1917 24.8991 17.2667 24.8991 17.35C24.9158 17.4167 24.9241 17.4917 24.9241 17.575C24.9241 17.6583 24.8991 17.7417 24.8491 17.825C24.8325 17.8417 24.8158 17.875 24.7991 17.925C24.7991 17.9583 24.7825 17.9917 24.7491 18.025C24.7325 18.0417 24.7241 18.0583 24.7241 18.075C24.7241 18.0917 24.7158 18.1 24.6991 18.1C24.6325 18.1167 24.5741 18.1583 24.5241 18.225C24.4741 18.2917 24.4158 18.3417 24.3491 18.375C24.2825 18.4417 24.1908 18.4917 24.0741 18.525L23.8741 18.6ZM30.4093 18.175C30.3093 18.175 30.2426 18.1667 30.2093 18.15C30.1259 18.1167 30.0426 18.1 29.9593 18.1C29.8926 18.1167 29.8176 18.125 29.7343 18.125C29.7176 18.125 29.7009 18.125 29.6843 18.125C29.6676 18.1417 29.6509 18.15 29.6343 18.15C29.5176 18.1667 29.4009 18.175 29.2843 18.175C29.1843 18.175 29.0843 18.1583 28.9843 18.125C28.9676 18.1083 28.9509 18.1 28.9343 18.1C28.8176 18.1167 28.7176 18.0833 28.6343 18C28.5509 17.9167 28.4676 17.8417 28.3843 17.775C28.3009 17.6917 28.2593 17.6 28.2593 17.5L28.1843 17.3C28.1343 17.1833 28.1176 17.075 28.1343 16.975C28.1509 16.9417 28.1509 16.9083 28.1343 16.875C28.1343 16.8417 28.1343 16.8083 28.1343 16.775C28.1176 16.7417 28.1093 16.7083 28.1093 16.675C28.1093 16.625 28.1009 16.5833 28.0843 16.55C28.0509 16.4 28.0259 16.25 28.0093 16.1C28.0093 15.9333 28.0176 15.775 28.0343 15.625C28.0509 15.525 28.1093 15.3583 28.2093 15.125C28.3093 14.875 28.3676 14.725 28.3843 14.675C28.4343 14.5917 28.4593 14.525 28.4593 14.475C28.4426 14.2917 28.4343 14.1083 28.4343 13.925C28.4509 13.725 28.4593 13.5333 28.4593 13.35C28.4593 13.2333 28.4843 13.1417 28.5343 13.075C28.6009 12.9583 28.6093 12.8333 28.5593 12.7L28.4843 12.425C28.3843 12.2417 28.3926 12.0833 28.5093 11.95C28.5093 11.9333 28.5093 11.925 28.5093 11.925C28.5259 11.9083 28.5343 11.8917 28.5343 11.875C28.5676 11.8417 28.5759 11.8 28.5593 11.75C28.5426 11.6833 28.5343 11.6333 28.5343 11.6C28.5343 11.5333 28.5426 11.4667 28.5593 11.4C28.5926 11.3167 28.6009 11.2417 28.5843 11.175C28.5843 11.175 28.5676 11.1583 28.5343 11.125C28.5176 11.0917 28.5093 11.025 28.5093 10.925C28.5259 10.825 28.5343 10.7667 28.5343 10.75V10.05C28.5509 9.96667 28.5593 9.89167 28.5593 9.825C28.5593 9.74167 28.5676 9.65833 28.5843 9.575C28.6009 9.475 28.6009 9.375 28.5843 9.275C28.5843 9.15833 28.5843 9.04167 28.5843 8.925C28.5676 8.84167 28.5509 8.75 28.5343 8.65C28.5343 8.55 28.5343 8.45 28.5343 8.35C28.5176 8.31667 28.5093 8.275 28.5093 8.225C28.5093 8.175 28.5093 8.13333 28.5093 8.1C28.4926 8.01667 28.4759 7.93333 28.4593 7.85C28.4593 7.76667 28.4593 7.68333 28.4593 7.6C28.4593 7.56667 28.4259 7.45833 28.3593 7.275C28.2926 7.075 28.2676 6.90833 28.2843 6.775C28.3009 6.74167 28.3093 6.7 28.3093 6.65C28.3093 6.6 28.2926 6.55833 28.2593 6.525C28.2259 6.50833 28.2093 6.475 28.2093 6.425V6.35C28.2593 6.15 28.2343 5.95 28.1343 5.75C28.0676 5.65 28.0426 5.55 28.0593 5.45C28.0593 5.31667 28.0009 5.21667 27.8843 5.15C27.8009 5.06667 27.7259 4.96667 27.6593 4.85C27.5926 4.73333 27.5509 4.61667 27.5343 4.5C27.5176 4.41667 27.5093 4.33333 27.5093 4.25C27.5093 4.16667 27.5093 4.09167 27.5093 4.025C27.5093 3.95833 27.5176 3.91667 27.5343 3.9C27.6009 3.83333 27.6343 3.75833 27.6343 3.675C27.6343 3.575 27.6426 3.5 27.6593 3.45C27.6759 3.43333 27.6926 3.425 27.7093 3.425C27.7259 3.425 27.7426 3.41667 27.7593 3.4C27.8259 3.38333 27.8593 3.325 27.8593 3.225C27.8259 3.15833 27.8093 3.1 27.8093 3.05C27.7926 2.98333 27.8176 2.925 27.8843 2.875C27.9176 2.80833 27.9593 2.79167 28.0093 2.825C28.1259 2.875 28.2593 2.85833 28.4093 2.775C28.4759 2.74167 28.5176 2.725 28.5343 2.725C28.5843 2.725 28.6093 2.725 28.6093 2.725C28.6259 2.70833 28.6759 2.7 28.7593 2.7C28.8593 2.71667 28.9509 2.68333 29.0343 2.6C29.1509 2.48333 29.2926 2.425 29.4593 2.425H31.0093C31.3926 2.44167 31.7759 2.44167 32.1593 2.425C32.5426 2.40833 32.9176 2.4 33.2843 2.4C33.3676 2.4 33.4343 2.4 33.4843 2.4C33.5509 2.38333 33.6176 2.36667 33.6843 2.35C33.7843 2.3 33.9009 2.275 34.0343 2.275H34.6093C34.7426 2.275 34.8593 2.275 34.9593 2.275C35.0759 2.25833 35.1926 2.24167 35.3093 2.225C35.3759 2.20833 35.4343 2.2 35.4843 2.2C35.5509 2.2 35.6176 2.2 35.6843 2.2C35.7509 2.2 35.8176 2.2 35.8843 2.2C35.9509 2.2 36.0176 2.19167 36.0843 2.175C36.2176 2.15833 36.3593 2.15 36.5093 2.15C36.6593 2.13333 36.8009 2.125 36.9343 2.125C37.0009 2.125 37.0593 2.125 37.1093 2.125C37.1759 2.10833 37.2426 2.09167 37.3093 2.075C37.4426 2.04167 37.5676 2.025 37.6843 2.025C37.8176 2.00833 37.9426 1.99167 38.0593 1.975C38.1926 1.95833 38.3176 1.94167 38.4343 1.925C38.5676 1.90833 38.6926 1.89167 38.8093 1.875C38.9593 1.875 39.0676 1.89167 39.1343 1.925C39.2343 1.99167 39.3259 2.05 39.4093 2.1C39.5093 2.15 39.6009 2.21667 39.6843 2.3C39.7509 2.36667 39.7926 2.425 39.8093 2.475C39.8259 2.54167 39.8426 2.60833 39.8593 2.675C39.8759 2.74167 39.8926 2.81667 39.9093 2.9V3.075C39.8926 3.15833 39.8759 3.25 39.8593 3.35C39.8593 3.43333 39.8509 3.525 39.8343 3.625C39.8009 3.69167 39.7593 3.75 39.7093 3.8L39.2593 4.25C39.0926 4.3 38.9259 4.33333 38.7593 4.35C38.6093 4.36667 38.4509 4.36667 38.2843 4.35H38.1093C38.0259 4.36667 37.9426 4.375 37.8593 4.375C37.7759 4.375 37.6926 4.36667 37.6093 4.35C37.5093 4.33333 37.4093 4.33333 37.3093 4.35C37.2093 4.35 37.1093 4.35 37.0093 4.35C36.9426 4.35 36.8759 4.35833 36.8093 4.375C36.7593 4.375 36.7009 4.36667 36.6343 4.35C36.5509 4.33333 36.4676 4.33333 36.3843 4.35C36.3176 4.35 36.2426 4.35833 36.1593 4.375C36.0926 4.375 36.0176 4.38333 35.9343 4.4C35.8676 4.4 35.7926 4.4 35.7093 4.4C35.4926 4.43333 35.2593 4.45 35.0093 4.45C34.7759 4.45 34.5426 4.46667 34.3093 4.5C34.1593 4.48333 34.0176 4.49167 33.8843 4.525C33.7509 4.54167 33.6093 4.55833 33.4593 4.575C33.3259 4.59167 33.1843 4.6 33.0343 4.6C32.8843 4.6 32.7426 4.61667 32.6093 4.65C32.4426 4.65 32.2759 4.675 32.1093 4.725C31.9593 4.75833 31.8009 4.78333 31.6343 4.8L31.4593 4.825C31.3426 4.825 31.2343 4.84167 31.1343 4.875C31.0343 4.89167 30.9259 4.91667 30.8093 4.95C30.7426 4.96667 30.6759 4.98333 30.6093 5C30.5426 5 30.4676 5.00833 30.3843 5.025C30.3343 5.025 30.2759 5.04167 30.2093 5.075C30.1593 5.09167 30.1343 5.14167 30.1343 5.225L30.2093 5.45C30.2259 5.48333 30.2176 5.56667 30.1843 5.7C30.1676 5.83333 30.1509 5.93333 30.1343 6C30.1343 6.05 30.1426 6.1 30.1593 6.15C30.1759 6.2 30.1926 6.25 30.2093 6.3C30.2593 6.43333 30.2843 6.58333 30.2843 6.75C30.2843 6.9 30.3009 7.04167 30.3343 7.175C30.3509 7.24167 30.3593 7.31667 30.3593 7.4C30.3593 7.46667 30.3676 7.54167 30.3843 7.625C30.3843 7.65833 30.3843 7.7 30.3843 7.75C30.4009 7.78333 30.4093 7.825 30.4093 7.875C30.4093 7.925 30.4009 7.95833 30.3843 7.975C30.3343 8.04167 30.3093 8.11667 30.3093 8.2C30.3093 8.28333 30.3093 8.36667 30.3093 8.45C30.3926 8.61667 30.4343 8.78333 30.4343 8.95C30.4343 9.11667 30.4343 9.28333 30.4343 9.45C30.4343 9.5 30.4759 9.51667 30.5593 9.5H30.5843C30.6176 9.43333 30.6509 9.38333 30.6843 9.35C30.7343 9.35 30.7926 9.33333 30.8593 9.3C30.9093 9.26667 30.9759 9.25 31.0593 9.25C31.1926 9.26667 31.3176 9.26667 31.4343 9.25C31.5509 9.21667 31.6676 9.18333 31.7843 9.15C32.5676 8.95 33.3009 8.69167 33.9843 8.375C34.1676 8.29167 34.3593 8.225 34.5593 8.175C34.7593 8.10833 34.9593 8.06667 35.1593 8.05H35.2343C35.3843 8.03333 35.5343 8.01667 35.6843 8C35.8343 7.98333 35.9843 7.975 36.1343 7.975C36.3343 7.95833 36.5259 7.93333 36.7093 7.9C36.9093 7.86667 37.1093 7.84167 37.3093 7.825C37.4259 7.79167 37.5343 7.76667 37.6343 7.75C37.7343 7.71667 37.8426 7.675 37.9593 7.625C38.1759 7.54167 38.3759 7.5 38.5593 7.5C38.6926 7.51667 38.8176 7.55 38.9343 7.6C39.0509 7.63333 39.1676 7.68333 39.2843 7.75C39.5343 7.91667 39.6593 8.16667 39.6593 8.5C39.6593 8.63333 39.6426 8.76667 39.6093 8.9C39.5926 9.03333 39.5843 9.16667 39.5843 9.3C39.5843 9.33333 39.5676 9.36667 39.5343 9.4L39.4593 9.525C39.4426 9.59167 39.4259 9.65833 39.4093 9.725C39.3926 9.79167 39.3509 9.84167 39.2843 9.875C39.1843 9.95833 39.0759 10.05 38.9593 10.15C38.8593 10.2333 38.7426 10.2917 38.6093 10.325C38.5426 10.3417 38.4759 10.3583 38.4093 10.375C38.3593 10.3917 38.3009 10.4 38.2343 10.4C37.9676 10.4 37.6926 10.4167 37.4093 10.45C37.1426 10.4833 36.8676 10.5167 36.5843 10.55C36.3676 10.5667 36.1509 10.5917 35.9343 10.625C35.7343 10.6583 35.5259 10.675 35.3093 10.675C35.1093 10.675 34.8843 10.7167 34.6343 10.8C34.4676 10.8333 34.2926 10.8667 34.1093 10.9C33.9259 10.9333 33.7426 10.9583 33.5593 10.975C33.4259 10.9917 33.2843 11.0167 33.1343 11.05C33.0009 11.0667 32.8676 11.0833 32.7343 11.1L32.3093 11.175C32.2759 11.1917 32.2259 11.2 32.1593 11.2C32.0426 11.2333 31.9259 11.2583 31.8093 11.275C31.6926 11.2917 31.5759 11.3167 31.4593 11.35C31.3426 11.3667 31.2259 11.3917 31.1093 11.425C31.0093 11.4583 30.9009 11.4917 30.7843 11.525C30.7009 11.5417 30.6343 11.575 30.5843 11.625C30.5343 11.6583 30.4926 11.7083 30.4593 11.775C30.4426 11.825 30.4426 11.875 30.4593 11.925C30.4759 11.9917 30.4676 12.0583 30.4343 12.125C30.4509 12.2917 30.4593 12.4583 30.4593 12.625C30.4759 12.7917 30.4759 12.9583 30.4593 13.125C30.4926 13.2583 30.5009 13.3917 30.4843 13.525C30.4843 13.6583 30.4759 13.7917 30.4593 13.925C30.4259 14.125 30.4343 14.2917 30.4843 14.425C30.5343 14.6417 30.5176 14.8667 30.4343 15.1C30.4009 15.2 30.4009 15.2667 30.4343 15.3C30.4676 15.35 30.4676 15.4083 30.4343 15.475V15.625C30.4176 15.7583 30.4759 15.825 30.6093 15.825H30.6593C30.7759 15.825 30.8926 15.8667 31.0093 15.95C31.0926 16.0333 31.1926 16.0583 31.3093 16.025L32.0093 15.95C32.1093 15.9333 32.2093 15.925 32.3093 15.925C32.4093 15.9083 32.5093 15.9 32.6093 15.9C32.6426 15.8833 32.6926 15.8917 32.7593 15.925C32.8426 15.975 32.9176 15.9833 32.9843 15.95C33.0176 15.9167 33.0593 15.8917 33.1093 15.875C33.1759 15.8583 33.2259 15.8333 33.2593 15.8C33.3593 15.7 33.4843 15.6667 33.6343 15.7C33.7676 15.7333 33.8759 15.725 33.9593 15.675C34.1093 15.625 34.2509 15.6083 34.3843 15.625C34.4676 15.6417 34.5509 15.6333 34.6343 15.6C34.7176 15.5667 34.8009 15.55 34.8843 15.55C34.9176 15.55 34.9426 15.5583 34.9593 15.575C34.9759 15.575 34.9926 15.5667 35.0093 15.55C35.0426 15.55 35.0759 15.5417 35.1093 15.525C35.1426 15.5083 35.1676 15.5 35.1843 15.5C35.3009 15.45 35.4093 15.4333 35.5093 15.45C35.5926 15.45 35.6343 15.45 35.6343 15.45C35.7009 15.4333 35.7593 15.4333 35.8093 15.45C35.8759 15.4667 35.9343 15.4917 35.9843 15.525C36.0676 15.5417 36.1343 15.5667 36.1843 15.6C36.2509 15.6333 36.3176 15.6583 36.3843 15.675C36.4176 15.675 36.4426 15.6833 36.4593 15.7C36.5426 15.7667 36.6426 15.825 36.7593 15.875C36.8926 15.925 36.9676 15.9833 36.9843 16.05C37.0176 16.15 37.0343 16.25 37.0343 16.35C37.0343 16.4333 37.0426 16.525 37.0593 16.625C37.0593 16.675 37.0509 16.725 37.0343 16.775C37.0343 16.825 37.0259 16.875 37.0093 16.925C36.9759 16.9917 36.9343 17.0667 36.8843 17.15C36.8509 17.2333 36.8009 17.3083 36.7343 17.375C36.7009 17.4083 36.6676 17.4417 36.6343 17.475C36.6176 17.5083 36.5926 17.5417 36.5593 17.575C36.4926 17.6417 36.4176 17.7 36.3343 17.75C36.2509 17.8 36.1593 17.825 36.0593 17.825C35.9926 17.825 35.9426 17.8333 35.9093 17.85C35.8426 17.8833 35.7759 17.9 35.7093 17.9C35.6426 17.9 35.5676 17.9 35.4843 17.9C35.3676 17.9167 35.2509 17.9333 35.1343 17.95C35.0343 17.95 34.9259 17.9417 34.8093 17.925C34.7426 17.9083 34.6843 17.9083 34.6343 17.925C34.4676 17.975 34.3009 17.9833 34.1343 17.95C33.9676 17.95 33.8009 17.9583 33.6343 17.975C33.4843 17.975 33.3343 17.975 33.1843 17.975H32.8593C32.8093 17.975 32.7676 17.9833 32.7343 18C32.6676 18.0333 32.5843 18.05 32.4843 18.05C32.4009 18.05 32.3176 18.0417 32.2343 18.025H31.9843C31.9676 18.025 31.9426 18.025 31.9093 18.025C31.8759 18.0417 31.8426 18.0417 31.8093 18.025C31.7593 18.0083 31.7093 18 31.6593 18C31.6259 18.0167 31.5843 18.0333 31.5343 18.05C31.5009 18.05 31.4676 18.05 31.4343 18.05C31.4176 18.0667 31.3926 18.075 31.3593 18.075C31.1926 18.0583 31.0343 18.0583 30.8843 18.075C30.7343 18.1083 30.5759 18.1417 30.4093 18.175ZM52.9233 22.125C52.74 22.1917 52.6067 22.1417 52.5233 21.975C52.44 21.8583 52.3817 21.7167 52.3483 21.55C52.3483 21.4833 52.34 21.4167 52.3233 21.35C52.3233 21.3 52.3233 21.2417 52.3233 21.175C52.3067 21.1417 52.2983 21.1083 52.2983 21.075C52.315 20.9417 52.3233 20.8167 52.3233 20.7C52.3233 20.5833 52.3317 20.4667 52.3483 20.35C52.3483 20.1167 52.3483 19.875 52.3483 19.625C52.365 19.3917 52.365 19.15 52.3483 18.9C52.3483 18.7 52.29 18.4833 52.1733 18.25C52.0733 18.0333 51.9983 17.7917 51.9483 17.525C51.9317 17.4417 51.9233 17.3667 51.9233 17.3C51.9233 17.2333 51.9233 17.1667 51.9233 17.1C51.9567 16.9167 51.9817 16.7333 51.9983 16.55C52.015 16.35 52.0317 16.1583 52.0483 15.975C52.0817 15.7917 52.0983 15.6083 52.0983 15.425C52.115 15.2417 52.1317 15.0667 52.1483 14.9C52.165 14.7167 52.1817 14.5417 52.1983 14.375C52.2317 14.1917 52.24 14.0083 52.2233 13.825C52.2567 13.6417 52.2733 13.4667 52.2733 13.3C52.29 13.1167 52.3067 12.9417 52.3233 12.775C52.3567 12.6417 52.365 12.5167 52.3483 12.4C52.3483 12.2667 52.34 12.1417 52.3233 12.025C52.3067 11.9417 52.2983 11.875 52.2983 11.825C52.315 11.7583 52.3233 11.6917 52.3233 11.625C52.34 11.5417 52.3483 11.4583 52.3483 11.375C52.3483 11.275 52.3567 11.1917 52.3733 11.125V10.15C52.3567 9.93333 52.3483 9.725 52.3483 9.525C52.365 9.30833 52.3733 9.09167 52.3733 8.875C52.3567 8.70833 52.3483 8.54167 52.3483 8.375C52.365 8.19167 52.3817 8.01667 52.3983 7.85C52.415 7.8 52.4233 7.75 52.4233 7.7C52.4233 7.65 52.4233 7.60833 52.4233 7.575V6.725C52.4233 6.625 52.4317 6.55 52.4483 6.5V6.175C52.415 6.125 52.415 6.05833 52.4483 5.975C52.4817 5.825 52.4817 5.675 52.4483 5.525C52.4317 5.49167 52.4233 5.45833 52.4233 5.425C52.44 5.375 52.4483 5.325 52.4483 5.275C52.4483 5.19167 52.4483 5.11667 52.4483 5.05C52.465 4.96667 52.4733 4.88333 52.4733 4.8C52.4733 4.73333 52.4733 4.66667 52.4733 4.6C52.49 4.51667 52.5067 4.44167 52.5233 4.375V4.275C52.5233 4.14167 52.5317 4.00833 52.5483 3.875C52.565 3.725 52.5817 3.59167 52.5983 3.475L52.7483 2.5C52.7817 2.33333 52.815 2.175 52.8483 2.025C52.8983 1.875 52.9567 1.725 53.0233 1.575C53.1233 1.275 53.3067 0.999999 53.5733 0.749999C53.6567 0.683333 53.74 0.625 53.8233 0.574999C53.9233 0.524999 54.0317 0.499999 54.1483 0.499999C54.165 0.483332 54.19 0.474999 54.2233 0.474999C54.34 0.441666 54.4483 0.433333 54.5483 0.449999C54.6483 0.466666 54.7483 0.491666 54.8483 0.524998C55.0817 0.574999 55.2567 0.699999 55.3733 0.9C55.4567 1.01667 55.4983 1.125 55.4983 1.225C55.4983 1.30833 55.5067 1.375 55.5233 1.425C55.5733 1.64167 55.59 1.84167 55.5733 2.025C55.5733 2.09167 55.5733 2.15833 55.5733 2.225C55.59 2.29167 55.6067 2.36667 55.6233 2.45C55.6567 2.53333 55.6733 2.625 55.6733 2.725C55.6733 2.80833 55.6733 2.89167 55.6733 2.975C55.6733 3.09167 55.665 3.20833 55.6483 3.325C55.6317 3.425 55.615 3.53333 55.5983 3.65C55.5817 3.71667 55.565 3.79167 55.5483 3.875C55.5483 3.94167 55.5317 4.01667 55.4983 4.1C55.4817 4.21667 55.4567 4.33333 55.4233 4.45C55.4067 4.56667 55.39 4.68333 55.3733 4.8V4.9C55.34 5.06667 55.315 5.24167 55.2983 5.425C55.2817 5.59167 55.2567 5.75833 55.2233 5.925C55.2067 5.975 55.1983 6.025 55.1983 6.075C55.1983 6.125 55.1983 6.16667 55.1983 6.2C55.1983 6.25 55.1983 6.3 55.1983 6.35C55.1983 6.4 55.19 6.45 55.1733 6.5C55.1567 6.6 55.1483 6.7 55.1483 6.8C55.1483 6.9 55.14 7.00833 55.1233 7.125C55.1233 7.14167 55.1233 7.15 55.1233 7.15C55.14 7.15 55.1483 7.15833 55.1483 7.175C55.1483 7.19167 55.1567 7.20833 55.1733 7.225C55.2067 7.24167 55.2317 7.24167 55.2483 7.225C55.315 7.19167 55.3733 7.15 55.4233 7.1C55.6067 6.95 55.7983 6.8 55.9983 6.65C56.1983 6.5 56.3983 6.35 56.5983 6.2C56.7817 6.06667 56.965 5.93333 57.1483 5.8C57.3317 5.66667 57.515 5.53333 57.6983 5.4C57.715 5.4 57.7317 5.39167 57.7483 5.375C57.915 5.24167 58.0733 5.10833 58.2233 4.975C58.39 4.84167 58.5483 4.70833 58.6983 4.575C58.8817 4.40833 59.0567 4.24167 59.2233 4.075C59.4067 3.90833 59.5733 3.73333 59.7233 3.55C59.7567 3.51667 59.79 3.48333 59.8233 3.45C59.8567 3.41667 59.89 3.38333 59.9233 3.35L60.7483 2.45C60.8817 2.3 61.0567 2.14167 61.2733 1.975C61.3567 1.90833 61.4483 1.86667 61.5483 1.85C61.5817 1.85 61.6067 1.85 61.6233 1.85C61.64 1.83333 61.6567 1.83333 61.6733 1.85C61.7567 1.85 61.8317 1.85833 61.8983 1.875C61.965 1.875 62.0317 1.88333 62.0983 1.9C62.1483 1.91667 62.2233 1.925 62.3233 1.925C62.4067 1.89167 62.465 1.91667 62.4983 2C62.4983 2.01667 62.515 2.025 62.5483 2.025C62.565 2.025 62.6067 2.00833 62.6733 1.975C62.7233 1.975 62.7483 1.99167 62.7483 2.025C62.7983 2.125 62.8733 2.2 62.9733 2.25C62.9733 2.26667 62.9733 2.275 62.9733 2.275C62.99 2.275 62.9983 2.275 62.9983 2.275V2.35C62.9983 2.43333 63.0317 2.48333 63.0983 2.5C63.115 2.5 63.1233 2.50833 63.1233 2.525C63.14 2.525 63.1483 2.525 63.1483 2.525C63.1817 2.54167 63.215 2.58333 63.2483 2.65C63.2483 2.76667 63.2733 2.89167 63.3233 3.025C63.4233 3.30833 63.415 3.58333 63.2983 3.85C63.1817 4.15 63.015 4.44167 62.7983 4.725L62.1733 5.55C62.1067 5.63333 62.0317 5.71667 61.9483 5.8C61.865 5.88333 61.7817 5.95833 61.6983 6.025C61.615 6.10833 61.5567 6.175 61.5233 6.225C61.49 6.25833 61.4567 6.29167 61.4233 6.325C61.39 6.35833 61.3567 6.39167 61.3233 6.425C61.24 6.54167 61.14 6.63333 61.0233 6.7C60.94 6.76667 60.8483 6.83333 60.7483 6.9C60.6483 6.95 60.5567 7.01667 60.4733 7.1C60.39 7.16667 60.29 7.225 60.1733 7.275C60.0733 7.30833 59.9733 7.34167 59.8733 7.375C59.79 7.425 59.69 7.43333 59.5733 7.4H59.5483C59.3317 7.33333 59.1067 7.375 58.8733 7.525C58.8233 7.55833 58.765 7.59167 58.6983 7.625C58.6483 7.65833 58.59 7.69167 58.5233 7.725C58.4067 7.825 58.2733 7.91667 58.1233 8C58.0567 8.03333 57.9983 8.075 57.9483 8.125C57.8983 8.15833 57.8483 8.19167 57.7983 8.225C57.665 8.325 57.5233 8.425 57.3733 8.525C57.2233 8.60833 57.0817 8.7 56.9483 8.8L56.4483 9.1C56.3983 9.13333 56.34 9.175 56.2733 9.225C56.2233 9.25833 56.165 9.3 56.0983 9.35C56.065 9.38333 56.065 9.41667 56.0983 9.45L56.3983 9.675C56.615 9.79167 56.8233 9.925 57.0233 10.075C57.2233 10.2083 57.4233 10.35 57.6233 10.5C57.8067 10.6333 57.9817 10.775 58.1483 10.925C58.3317 11.0583 58.515 11.1917 58.6983 11.325C58.7317 11.3417 58.765 11.3667 58.7983 11.4C58.8483 11.4333 58.8817 11.4667 58.8983 11.5C59.0817 11.65 59.2483 11.8 59.3983 11.95C59.565 12.0833 59.7317 12.225 59.8983 12.375C60.1817 12.6417 60.4733 12.9 60.7733 13.15C61.0733 13.3833 61.3567 13.6417 61.6233 13.925L61.8483 14.15C61.9483 14.2667 62.0483 14.375 62.1483 14.475C62.265 14.5583 62.3817 14.65 62.4983 14.75C62.5983 14.8 62.6733 14.8667 62.7233 14.95L62.7983 15.025C62.915 15.1417 62.99 15.2667 63.0233 15.4C63.0567 15.5333 63.065 15.6833 63.0483 15.85L63.0233 16.025C63.04 16.1417 63.0067 16.2333 62.9233 16.3C62.8733 16.3167 62.8483 16.3833 62.8483 16.5C62.8483 16.5667 62.815 16.6 62.7483 16.6C62.6817 16.6167 62.6233 16.65 62.5733 16.7C62.4567 16.8 62.315 16.875 62.1483 16.925L61.9483 17C61.8817 17.0333 61.8317 17.0417 61.7983 17.025C61.7317 16.9917 61.6567 16.9583 61.5733 16.925C61.49 16.8917 61.4067 16.8667 61.3233 16.85C61.29 16.8333 61.24 16.7917 61.1733 16.725C61.09 16.6417 61.0067 16.5583 60.9233 16.475C60.84 16.375 60.7567 16.275 60.6733 16.175C60.5567 16.0417 60.4317 15.9083 60.2983 15.775C60.165 15.6417 60.0317 15.5167 59.8983 15.4L59.0983 14.725C58.915 14.5417 58.7233 14.375 58.5233 14.225C58.3233 14.075 58.115 13.9167 57.8983 13.75C57.865 13.7167 57.79 13.6833 57.6733 13.65C57.6233 13.65 57.5733 13.6417 57.5233 13.625C57.4733 13.5917 57.4233 13.5667 57.3733 13.55C57.2567 13.5 57.14 13.45 57.0233 13.4C56.9233 13.35 56.815 13.2917 56.6983 13.225C56.5983 13.1583 56.4983 13.0917 56.3983 13.025C56.2983 12.9583 56.1983 12.8917 56.0983 12.825C55.9817 12.725 55.8483 12.6333 55.6983 12.55C55.565 12.45 55.4317 12.3583 55.2983 12.275C55.2817 12.2583 55.2567 12.25 55.2233 12.25C55.2067 12.25 55.1817 12.2417 55.1483 12.225C55.0817 12.1917 55.0317 12.2167 54.9983 12.3C54.965 12.3333 54.9317 12.4 54.8983 12.5L54.8233 12.9C54.8067 13.05 54.7817 13.2083 54.7483 13.375C54.7317 13.525 54.715 13.675 54.6983 13.825C54.6817 13.9417 54.665 14.0583 54.6483 14.175C54.6317 14.275 54.615 14.375 54.5983 14.475C54.5817 14.575 54.565 14.675 54.5483 14.775C54.5317 14.875 54.5067 14.975 54.4733 15.075C54.4567 15.1417 54.4483 15.2167 54.4483 15.3C54.4483 15.3667 54.4483 15.4417 54.4483 15.525V16.35C54.4483 16.55 54.4317 16.75 54.3983 16.95C54.365 17.1333 54.3317 17.3167 54.2983 17.5C54.2483 17.8333 54.1233 18.1083 53.9233 18.325C53.8067 18.4917 53.7233 18.6833 53.6733 18.9C53.6067 19.2 53.5567 19.5167 53.5233 19.85C53.5067 19.9167 53.4983 19.9833 53.4983 20.05C53.4983 20.1333 53.49 20.2167 53.4733 20.3C53.4567 20.3667 53.4483 20.4417 53.4483 20.525C53.4483 20.625 53.44 20.7167 53.4233 20.8C53.4067 20.9333 53.39 21.0667 53.3733 21.2C53.3733 21.35 53.3567 21.4917 53.3233 21.625C53.3067 21.7417 53.2567 21.85 53.1733 21.95C53.1067 22.0333 53.0233 22.0917 52.9233 22.125ZM67.7173 18.25C67.6173 18.25 67.5506 18.2417 67.5173 18.225C67.4506 18.1917 67.3923 18.1667 67.3423 18.15C67.2923 18.1333 67.2423 18.1167 67.1923 18.1C67.1423 18.0667 67.0923 18.0333 67.0423 18C67.009 17.95 66.9756 17.9 66.9423 17.85C66.909 17.8167 66.8756 17.8 66.8423 17.8C66.7423 17.8 66.6923 17.75 66.6923 17.65C66.6756 17.55 66.659 17.45 66.6423 17.35C66.6256 17.25 66.609 17.15 66.5923 17.05C66.5756 16.9 66.559 16.75 66.5423 16.6C66.5423 16.45 66.5256 16.3083 66.4923 16.175V15.95C66.4923 15.8833 66.484 15.825 66.4673 15.775C66.4673 15.725 66.4673 15.6667 66.4673 15.6C66.434 15.5167 66.434 15.45 66.4673 15.4C66.5006 15.1 66.5006 14.8 66.4673 14.5C66.4506 14.4167 66.4423 14.3333 66.4423 14.25C66.4423 14.1667 66.434 14.0833 66.4173 14C66.4173 13.8333 66.4173 13.6667 66.4173 13.5C66.4173 13.3167 66.4006 13.1417 66.3673 12.975V12.575C66.3673 12.4417 66.359 12.3167 66.3423 12.2C66.3423 12.0833 66.334 11.9667 66.3173 11.85C66.3006 11.7 66.284 11.55 66.2673 11.4C66.2673 11.25 66.259 11.1 66.2423 10.95C66.2256 10.9167 66.2173 10.8583 66.2173 10.775C66.2006 10.6917 66.184 10.6083 66.1673 10.525C66.1673 10.425 66.1673 10.3333 66.1673 10.25L66.0923 9C66.0756 8.86667 66.059 8.74167 66.0423 8.625C66.0423 8.49167 66.0423 8.36667 66.0423 8.25C66.0256 8.05 66.009 7.85 65.9923 7.65C65.9756 7.45 65.959 7.25833 65.9423 7.075C65.9423 7.04167 65.934 7.00833 65.9173 6.975C65.9173 6.94167 65.9173 6.91667 65.9173 6.9C65.9173 6.7 65.909 6.5 65.8923 6.3C65.8756 6.1 65.859 5.89167 65.8423 5.675L65.7673 4.975C65.7173 4.70833 65.709 4.41667 65.7423 4.1C65.7423 3.95 65.8006 3.825 65.9173 3.725C65.9506 3.69167 65.9756 3.675 65.9923 3.675C66.009 3.65833 66.0256 3.64167 66.0423 3.625C66.1256 3.60833 66.1673 3.55 66.1673 3.45C66.1673 3.41667 66.2006 3.4 66.2673 3.4H66.3923C66.409 3.4 66.4173 3.4 66.4173 3.4C66.434 3.38333 66.4506 3.375 66.4673 3.375C66.5006 3.35833 66.5256 3.34167 66.5423 3.325C66.5756 3.29167 66.6006 3.275 66.6173 3.275C66.6506 3.275 66.684 3.28333 66.7173 3.3C66.7506 3.3 66.784 3.30833 66.8173 3.325C66.8506 3.325 66.8756 3.31667 66.8923 3.3C66.9756 3.28333 67.059 3.29167 67.1423 3.325C67.2423 3.34167 67.3256 3.36667 67.3923 3.4C67.4923 3.41667 67.5673 3.48333 67.6173 3.6C67.6673 3.75 67.709 3.9 67.7423 4.05C67.7923 4.18333 67.8256 4.325 67.8423 4.475V4.675C67.8756 4.79167 67.8923 4.91667 67.8923 5.05C67.8923 5.16667 67.8923 5.29167 67.8923 5.425C67.8923 5.54167 67.8923 5.65833 67.8923 5.775C67.909 5.875 67.9256 5.975 67.9423 6.075C67.9423 6.125 67.9423 6.175 67.9423 6.225C67.9423 6.275 67.9506 6.325 67.9673 6.375C67.9673 6.475 67.9673 6.575 67.9673 6.675C67.984 6.775 68.0006 6.88333 68.0173 7C68.034 7.18333 68.0506 7.375 68.0673 7.575C68.084 7.775 68.0923 7.975 68.0923 8.175C68.0923 8.25833 68.0923 8.35 68.0923 8.45C68.0923 8.53333 68.1006 8.61667 68.1173 8.7C68.134 8.75 68.1423 8.8 68.1423 8.85C68.1423 8.9 68.1423 8.95 68.1423 9V9.5C68.1423 9.6 68.1506 9.68333 68.1673 9.75C68.2006 9.86667 68.209 9.98333 68.1923 10.1C68.1923 10.2 68.2006 10.3083 68.2173 10.425L68.2923 11.575C68.309 11.7417 68.3173 11.9167 68.3173 12.1C68.334 12.2667 68.3423 12.4417 68.3423 12.625C68.3423 12.6917 68.3423 12.7667 68.3423 12.85C68.3423 12.9167 68.3506 12.9833 68.3673 13.05C68.384 13.1 68.3923 13.15 68.3923 13.2C68.3923 13.25 68.3923 13.3 68.3923 13.35C68.409 13.3667 68.409 13.4 68.3923 13.45C68.3923 13.4833 68.4006 13.5167 68.4173 13.55C68.4506 13.6667 68.4673 13.7833 68.4673 13.9C68.4673 14.0167 68.4673 14.1417 68.4673 14.275C68.4673 14.3417 68.4673 14.4167 68.4673 14.5C68.484 14.5667 68.4923 14.6417 68.4923 14.725C68.509 14.8083 68.5173 14.9 68.5173 15C68.5173 15.1 68.5173 15.1917 68.5173 15.275C68.534 15.3583 68.5423 15.45 68.5423 15.55C68.5423 15.6333 68.5506 15.7167 68.5673 15.8C68.584 15.8333 68.5923 15.8667 68.5923 15.9C68.5923 16.0833 68.609 16.2667 68.6423 16.45C68.6756 16.6333 68.709 16.8167 68.7423 17C68.759 17.05 68.7673 17.1083 68.7673 17.175C68.7673 17.225 68.7673 17.275 68.7673 17.325C68.7673 17.375 68.7506 17.4167 68.7173 17.45C68.6506 17.5 68.6006 17.6 68.5673 17.75C68.5673 17.8 68.5423 17.8417 68.4923 17.875C68.3756 17.925 68.2756 17.9917 68.1923 18.075C68.059 18.1917 67.9006 18.25 67.7173 18.25ZM73.5743 18.075C73.441 18.125 73.291 18.1083 73.1243 18.025L72.6243 17.8C72.541 17.7667 72.4743 17.6917 72.4243 17.575L72.3493 17.425C72.316 17.3417 72.2743 17.2833 72.2243 17.25C72.141 17.1833 72.0826 17.0667 72.0493 16.9C72.016 16.7333 71.991 16.5667 71.9743 16.4C71.9576 16.2333 71.941 16.0667 71.9243 15.9C71.9076 15.7667 71.8993 15.6333 71.8993 15.5C71.8993 15.3667 71.8993 15.2417 71.8993 15.125L71.9243 14.95C71.9576 14.8667 71.9743 14.7833 71.9743 14.7C71.9743 14.6167 71.9743 14.5417 71.9743 14.475V9.925C72.0076 9.69167 72.0243 9.45833 72.0243 9.225C72.0243 8.975 72.0243 8.73333 72.0243 8.5C72.041 8.26667 72.0493 8.04167 72.0493 7.825C72.0493 7.59167 72.0326 7.36667 71.9993 7.15C71.9826 7.06667 71.9743 6.975 71.9743 6.875C71.9743 6.775 71.9743 6.675 71.9743 6.575C71.9743 6.425 71.9743 6.275 71.9743 6.125C71.9743 5.975 71.9576 5.825 71.9243 5.675V5.6C71.9243 5.36667 71.9076 5.14167 71.8743 4.925C71.8576 4.69167 71.841 4.46667 71.8243 4.25C71.8076 4.11667 71.791 3.99167 71.7743 3.875C71.7576 3.75833 71.7326 3.64167 71.6993 3.525C71.6826 3.45833 71.6743 3.39167 71.6743 3.325C71.6743 3.25833 71.6743 3.19167 71.6743 3.125C71.6743 3.00833 71.691 2.9 71.7243 2.8C71.7576 2.68333 71.791 2.575 71.8243 2.475C71.841 2.44167 71.8826 2.39167 71.9493 2.325C71.9826 2.29167 72.016 2.26667 72.0493 2.25C72.0826 2.23333 72.1076 2.21667 72.1243 2.2C72.2243 2.06667 72.3576 2.00833 72.5243 2.025C72.5576 2.04167 72.6076 2.03333 72.6743 2C72.7576 1.93333 72.8326 1.925 72.8993 1.975C72.9493 2.00833 73.0326 2.00833 73.1493 1.975C73.1993 1.975 73.241 1.99167 73.2743 2.025C73.3243 2.09167 73.391 2.14167 73.4743 2.175C73.5576 2.20833 73.616 2.25833 73.6493 2.325C73.6993 2.375 73.7493 2.425 73.7993 2.475C73.8326 2.525 73.866 2.575 73.8993 2.625C73.9493 2.65833 73.9743 2.70833 73.9743 2.775C73.991 2.84167 73.991 2.90833 73.9743 2.975C73.9743 3.025 73.9743 3.08333 73.9743 3.15C73.9743 3.3 73.9826 3.45833 73.9993 3.625C74.0326 3.775 74.0576 3.925 74.0743 4.075C74.1076 4.24167 74.1327 4.41667 74.1493 4.6C74.166 4.76667 74.1826 4.94167 74.1993 5.125V5.375C74.2326 5.49167 74.2493 5.60833 74.2493 5.725C74.2493 5.84167 74.2576 5.95833 74.2743 6.075V6.1C74.291 6.3 74.3077 6.5 74.3243 6.7C74.341 6.9 74.3576 7.1 74.3743 7.3C74.391 7.38333 74.3993 7.475 74.3993 7.575C74.3993 7.65833 74.3993 7.74167 74.3993 7.825V14.475C74.3993 14.625 74.4076 14.775 74.4243 14.925C74.4576 15.075 74.4827 15.2167 74.4993 15.35C74.4993 15.4333 74.5493 15.475 74.6493 15.475C74.7993 15.5083 74.941 15.5083 75.0743 15.475C75.2576 15.4417 75.4326 15.425 75.5993 15.425C75.7826 15.425 75.966 15.425 76.1493 15.425C76.3326 15.425 76.5076 15.425 76.6743 15.425C76.8577 15.4083 77.0327 15.3917 77.1993 15.375H77.4743C77.6076 15.3917 77.7243 15.4083 77.8243 15.425C77.941 15.425 78.0577 15.425 78.1743 15.425C78.3577 15.425 78.541 15.4333 78.7243 15.45C78.9243 15.45 79.116 15.4583 79.2993 15.475C79.4327 15.4917 79.566 15.5 79.6993 15.5C79.8493 15.5 79.9993 15.5 80.1493 15.5H80.2743C80.6077 15.4833 80.9077 15.5667 81.1743 15.75C81.291 15.8 81.3743 15.8833 81.4243 16C81.4576 16.0667 81.4827 16.1333 81.4993 16.2C81.5327 16.25 81.5577 16.3167 81.5743 16.4C81.591 16.4667 81.5993 16.5333 81.5993 16.6C81.616 16.65 81.6327 16.7083 81.6493 16.775C81.6993 16.925 81.6827 17.0917 81.5993 17.275C81.5827 17.325 81.566 17.375 81.5493 17.425C81.5327 17.475 81.5077 17.525 81.4743 17.575C81.441 17.625 81.3993 17.6667 81.3493 17.7C81.3493 17.7 81.316 17.7167 81.2493 17.75C81.116 17.8667 80.966 17.9417 80.7993 17.975C80.6493 18.0083 80.4827 18.0417 80.2993 18.075L80.0493 18.05C79.7993 17.9667 79.5493 17.9167 79.2993 17.9C79.2327 17.8833 79.1577 17.875 79.0743 17.875C78.991 17.8583 78.9077 17.85 78.8243 17.85C78.7076 17.85 78.591 17.85 78.4743 17.85C78.3576 17.8333 78.2327 17.8167 78.0993 17.8L77.8493 17.775C77.6993 17.7917 77.5493 17.8 77.3993 17.8C77.2493 17.7833 77.0993 17.7833 76.9493 17.8C76.8827 17.8 76.816 17.8 76.7493 17.8C76.6826 17.7833 76.616 17.775 76.5493 17.775C76.416 17.775 76.2827 17.775 76.1493 17.775C76.0327 17.775 75.9077 17.7917 75.7743 17.825C75.7076 17.8417 75.6243 17.8583 75.5243 17.875C75.441 17.875 75.3577 17.875 75.2743 17.875C75.0243 17.8917 74.7743 17.9167 74.5243 17.95C74.2743 17.9667 74.0326 18 73.7993 18.05C73.7493 18.0667 73.6743 18.075 73.5743 18.075ZM85.8058 18.075C85.6724 18.125 85.5224 18.1083 85.3558 18.025L84.8558 17.8C84.7724 17.7667 84.7058 17.6917 84.6558 17.575L84.5808 17.425C84.5474 17.3417 84.5058 17.2833 84.4558 17.25C84.3724 17.1833 84.3141 17.0667 84.2808 16.9C84.2474 16.7333 84.2224 16.5667 84.2058 16.4C84.1891 16.2333 84.1724 16.0667 84.1558 15.9C84.1391 15.7667 84.1308 15.6333 84.1308 15.5C84.1308 15.3667 84.1308 15.2417 84.1308 15.125L84.1558 14.95C84.1891 14.8667 84.2058 14.7833 84.2058 14.7C84.2058 14.6167 84.2058 14.5417 84.2058 14.475V9.925C84.2391 9.69167 84.2558 9.45833 84.2558 9.225C84.2558 8.975 84.2558 8.73333 84.2558 8.5C84.2724 8.26667 84.2808 8.04167 84.2808 7.825C84.2808 7.59167 84.2641 7.36667 84.2308 7.15C84.2141 7.06667 84.2058 6.975 84.2058 6.875C84.2058 6.775 84.2058 6.675 84.2058 6.575C84.2058 6.425 84.2058 6.275 84.2058 6.125C84.2058 5.975 84.1891 5.825 84.1558 5.675V5.6C84.1558 5.36667 84.1391 5.14167 84.1058 4.925C84.0891 4.69167 84.0724 4.46667 84.0558 4.25C84.0391 4.11667 84.0224 3.99167 84.0058 3.875C83.9891 3.75833 83.9641 3.64167 83.9308 3.525C83.9141 3.45833 83.9058 3.39167 83.9058 3.325C83.9058 3.25833 83.9058 3.19167 83.9058 3.125C83.9058 3.00833 83.9224 2.9 83.9558 2.8C83.9891 2.68333 84.0224 2.575 84.0558 2.475C84.0724 2.44167 84.1141 2.39167 84.1808 2.325C84.2141 2.29167 84.2474 2.26667 84.2808 2.25C84.3141 2.23333 84.3391 2.21667 84.3558 2.2C84.4558 2.06667 84.5891 2.00833 84.7558 2.025C84.7891 2.04167 84.8391 2.03333 84.9058 2C84.9891 1.93333 85.0641 1.925 85.1308 1.975C85.1808 2.00833 85.2641 2.00833 85.3808 1.975C85.4308 1.975 85.4724 1.99167 85.5058 2.025C85.5558 2.09167 85.6224 2.14167 85.7058 2.175C85.7891 2.20833 85.8474 2.25833 85.8808 2.325C85.9308 2.375 85.9808 2.425 86.0308 2.475C86.0641 2.525 86.0974 2.575 86.1308 2.625C86.1808 2.65833 86.2058 2.70833 86.2058 2.775C86.2224 2.84167 86.2224 2.90833 86.2058 2.975C86.2058 3.025 86.2058 3.08333 86.2058 3.15C86.2058 3.3 86.2141 3.45833 86.2308 3.625C86.2641 3.775 86.2891 3.925 86.3058 4.075C86.3391 4.24167 86.3641 4.41667 86.3808 4.6C86.3974 4.76667 86.4141 4.94167 86.4308 5.125V5.375C86.4641 5.49167 86.4808 5.60833 86.4808 5.725C86.4808 5.84167 86.4891 5.95833 86.5058 6.075V6.1C86.5224 6.3 86.5391 6.5 86.5558 6.7C86.5724 6.9 86.5891 7.1 86.6058 7.3C86.6224 7.38333 86.6308 7.475 86.6308 7.575C86.6308 7.65833 86.6308 7.74167 86.6308 7.825V14.475C86.6308 14.625 86.6391 14.775 86.6558 14.925C86.6891 15.075 86.7141 15.2167 86.7308 15.35C86.7308 15.4333 86.7808 15.475 86.8808 15.475C87.0308 15.5083 87.1724 15.5083 87.3058 15.475C87.4891 15.4417 87.6641 15.425 87.8308 15.425C88.0141 15.425 88.1974 15.425 88.3808 15.425C88.5641 15.425 88.7391 15.425 88.9058 15.425C89.0891 15.4083 89.2641 15.3917 89.4308 15.375H89.7058C89.8391 15.3917 89.9558 15.4083 90.0558 15.425C90.1724 15.425 90.2891 15.425 90.4058 15.425C90.5891 15.425 90.7724 15.4333 90.9558 15.45C91.1558 15.45 91.3474 15.4583 91.5308 15.475C91.6641 15.4917 91.7974 15.5 91.9308 15.5C92.0808 15.5 92.2308 15.5 92.3808 15.5H92.5058C92.8391 15.4833 93.1391 15.5667 93.4058 15.75C93.5224 15.8 93.6058 15.8833 93.6558 16C93.6891 16.0667 93.7141 16.1333 93.7308 16.2C93.7641 16.25 93.7891 16.3167 93.8058 16.4C93.8224 16.4667 93.8308 16.5333 93.8308 16.6C93.8474 16.65 93.8641 16.7083 93.8808 16.775C93.9308 16.925 93.9141 17.0917 93.8308 17.275C93.8141 17.325 93.7974 17.375 93.7808 17.425C93.7641 17.475 93.7391 17.525 93.7058 17.575C93.6724 17.625 93.6308 17.6667 93.5808 17.7C93.5808 17.7 93.5474 17.7167 93.4808 17.75C93.3474 17.8667 93.1974 17.9417 93.0308 17.975C92.8808 18.0083 92.7141 18.0417 92.5308 18.075L92.2808 18.05C92.0308 17.9667 91.7808 17.9167 91.5308 17.9C91.4641 17.8833 91.3891 17.875 91.3058 17.875C91.2224 17.8583 91.1391 17.85 91.0558 17.85C90.9391 17.85 90.8224 17.85 90.7058 17.85C90.5891 17.8333 90.4641 17.8167 90.3308 17.8L90.0808 17.775C89.9308 17.7917 89.7808 17.8 89.6308 17.8C89.4808 17.7833 89.3308 17.7833 89.1808 17.8C89.1141 17.8 89.0474 17.8 88.9808 17.8C88.9141 17.7833 88.8474 17.775 88.7808 17.775C88.6474 17.775 88.5141 17.775 88.3808 17.775C88.2641 17.775 88.1391 17.7917 88.0058 17.825C87.9391 17.8417 87.8558 17.8583 87.7558 17.875C87.6724 17.875 87.5891 17.875 87.5058 17.875C87.2558 17.8917 87.0058 17.9167 86.7558 17.95C86.5058 17.9667 86.2641 18 86.0308 18.05C85.9808 18.0667 85.9058 18.075 85.8058 18.075ZM99.086 18.175C98.986 18.175 98.9194 18.1667 98.886 18.15C98.8027 18.1167 98.7194 18.1 98.636 18.1C98.5694 18.1167 98.4944 18.125 98.411 18.125C98.3944 18.125 98.3777 18.125 98.361 18.125C98.3444 18.1417 98.3277 18.15 98.311 18.15C98.1944 18.1667 98.0777 18.175 97.961 18.175C97.861 18.175 97.761 18.1583 97.661 18.125C97.6444 18.1083 97.6277 18.1 97.611 18.1C97.4944 18.1167 97.3944 18.0833 97.311 18C97.2277 17.9167 97.1444 17.8417 97.061 17.775C96.9777 17.6917 96.936 17.6 96.936 17.5L96.861 17.3C96.811 17.1833 96.7944 17.075 96.811 16.975C96.8277 16.9417 96.8277 16.9083 96.811 16.875C96.811 16.8417 96.811 16.8083 96.811 16.775C96.7944 16.7417 96.786 16.7083 96.786 16.675C96.786 16.625 96.7777 16.5833 96.761 16.55C96.7277 16.4 96.7027 16.25 96.686 16.1C96.686 15.9333 96.6944 15.775 96.711 15.625C96.7277 15.525 96.786 15.3583 96.886 15.125C96.986 14.875 97.0444 14.725 97.061 14.675C97.111 14.5917 97.136 14.525 97.136 14.475C97.1194 14.2917 97.111 14.1083 97.111 13.925C97.1277 13.725 97.136 13.5333 97.136 13.35C97.136 13.2333 97.161 13.1417 97.211 13.075C97.2777 12.9583 97.286 12.8333 97.236 12.7L97.161 12.425C97.061 12.2417 97.0694 12.0833 97.186 11.95C97.186 11.9333 97.186 11.925 97.186 11.925C97.2027 11.9083 97.211 11.8917 97.211 11.875C97.2444 11.8417 97.2527 11.8 97.236 11.75C97.2194 11.6833 97.211 11.6333 97.211 11.6C97.211 11.5333 97.2194 11.4667 97.236 11.4C97.2694 11.3167 97.2777 11.2417 97.261 11.175C97.261 11.175 97.2444 11.1583 97.211 11.125C97.1944 11.0917 97.186 11.025 97.186 10.925C97.2027 10.825 97.211 10.7667 97.211 10.75V10.05C97.2277 9.96667 97.236 9.89167 97.236 9.825C97.236 9.74167 97.2444 9.65833 97.261 9.575C97.2777 9.475 97.2777 9.375 97.261 9.275C97.261 9.15833 97.261 9.04167 97.261 8.925C97.2444 8.84167 97.2277 8.75 97.211 8.65C97.211 8.55 97.211 8.45 97.211 8.35C97.1944 8.31667 97.186 8.275 97.186 8.225C97.186 8.175 97.186 8.13333 97.186 8.1C97.1694 8.01667 97.1527 7.93333 97.136 7.85C97.136 7.76667 97.136 7.68333 97.136 7.6C97.136 7.56667 97.1027 7.45833 97.036 7.275C96.9694 7.075 96.9444 6.90833 96.961 6.775C96.9777 6.74167 96.986 6.7 96.986 6.65C96.986 6.6 96.9694 6.55833 96.936 6.525C96.9027 6.50833 96.886 6.475 96.886 6.425V6.35C96.936 6.15 96.911 5.95 96.811 5.75C96.7444 5.65 96.7194 5.55 96.736 5.45C96.736 5.31667 96.6777 5.21667 96.561 5.15C96.4777 5.06667 96.4027 4.96667 96.336 4.85C96.2694 4.73333 96.2277 4.61667 96.211 4.5C96.1944 4.41667 96.186 4.33333 96.186 4.25C96.186 4.16667 96.186 4.09167 96.186 4.025C96.186 3.95833 96.1944 3.91667 96.211 3.9C96.2777 3.83333 96.311 3.75833 96.311 3.675C96.311 3.575 96.3194 3.5 96.336 3.45C96.3527 3.43333 96.3694 3.425 96.386 3.425C96.4027 3.425 96.4194 3.41667 96.436 3.4C96.5027 3.38333 96.536 3.325 96.536 3.225C96.5027 3.15833 96.486 3.1 96.486 3.05C96.4694 2.98333 96.4944 2.925 96.561 2.875C96.5944 2.80833 96.636 2.79167 96.686 2.825C96.8027 2.875 96.936 2.85833 97.086 2.775C97.1527 2.74167 97.1944 2.725 97.211 2.725C97.261 2.725 97.286 2.725 97.286 2.725C97.3027 2.70833 97.3527 2.7 97.436 2.7C97.536 2.71667 97.6277 2.68333 97.711 2.6C97.8277 2.48333 97.9694 2.425 98.136 2.425H99.686C100.069 2.44167 100.453 2.44167 100.836 2.425C101.219 2.40833 101.594 2.4 101.961 2.4C102.044 2.4 102.111 2.4 102.161 2.4C102.228 2.38333 102.294 2.36667 102.361 2.35C102.461 2.3 102.578 2.275 102.711 2.275H103.286C103.419 2.275 103.536 2.275 103.636 2.275C103.753 2.25833 103.869 2.24167 103.986 2.225C104.053 2.20833 104.111 2.2 104.161 2.2C104.228 2.2 104.294 2.2 104.361 2.2C104.428 2.2 104.494 2.2 104.561 2.2C104.628 2.2 104.694 2.19167 104.761 2.175C104.894 2.15833 105.036 2.15 105.186 2.15C105.336 2.13333 105.478 2.125 105.611 2.125C105.678 2.125 105.736 2.125 105.786 2.125C105.853 2.10833 105.919 2.09167 105.986 2.075C106.119 2.04167 106.244 2.025 106.361 2.025C106.494 2.00833 106.619 1.99167 106.736 1.975C106.869 1.95833 106.994 1.94167 107.111 1.925C107.244 1.90833 107.369 1.89167 107.486 1.875C107.636 1.875 107.744 1.89167 107.811 1.925C107.911 1.99167 108.003 2.05 108.086 2.1C108.186 2.15 108.278 2.21667 108.361 2.3C108.428 2.36667 108.469 2.425 108.486 2.475C108.503 2.54167 108.519 2.60833 108.536 2.675C108.553 2.74167 108.569 2.81667 108.586 2.9V3.075C108.569 3.15833 108.553 3.25 108.536 3.35C108.536 3.43333 108.528 3.525 108.511 3.625C108.478 3.69167 108.436 3.75 108.386 3.8L107.936 4.25C107.769 4.3 107.603 4.33333 107.436 4.35C107.286 4.36667 107.128 4.36667 106.961 4.35H106.786C106.703 4.36667 106.619 4.375 106.536 4.375C106.453 4.375 106.369 4.36667 106.286 4.35C106.186 4.33333 106.086 4.33333 105.986 4.35C105.886 4.35 105.786 4.35 105.686 4.35C105.619 4.35 105.553 4.35833 105.486 4.375C105.436 4.375 105.378 4.36667 105.311 4.35C105.228 4.33333 105.144 4.33333 105.061 4.35C104.994 4.35 104.919 4.35833 104.836 4.375C104.769 4.375 104.694 4.38333 104.611 4.4C104.544 4.4 104.469 4.4 104.386 4.4C104.169 4.43333 103.936 4.45 103.686 4.45C103.453 4.45 103.219 4.46667 102.986 4.5C102.836 4.48333 102.694 4.49167 102.561 4.525C102.428 4.54167 102.286 4.55833 102.136 4.575C102.003 4.59167 101.861 4.6 101.711 4.6C101.561 4.6 101.419 4.61667 101.286 4.65C101.119 4.65 100.953 4.675 100.786 4.725C100.636 4.75833 100.478 4.78333 100.311 4.8L100.136 4.825C100.019 4.825 99.911 4.84167 99.811 4.875C99.711 4.89167 99.6027 4.91667 99.486 4.95C99.4194 4.96667 99.3527 4.98333 99.286 5C99.2194 5 99.1444 5.00833 99.061 5.025C99.011 5.025 98.9527 5.04167 98.886 5.075C98.836 5.09167 98.811 5.14167 98.811 5.225L98.886 5.45C98.9027 5.48333 98.8944 5.56667 98.861 5.7C98.8444 5.83333 98.8277 5.93333 98.811 6C98.811 6.05 98.8194 6.1 98.836 6.15C98.8527 6.2 98.8694 6.25 98.886 6.3C98.936 6.43333 98.961 6.58333 98.961 6.75C98.961 6.9 98.9777 7.04167 99.011 7.175C99.0277 7.24167 99.036 7.31667 99.036 7.4C99.036 7.46667 99.0444 7.54167 99.061 7.625C99.061 7.65833 99.061 7.7 99.061 7.75C99.0777 7.78333 99.086 7.825 99.086 7.875C99.086 7.925 99.0777 7.95833 99.061 7.975C99.011 8.04167 98.986 8.11667 98.986 8.2C98.986 8.28333 98.986 8.36667 98.986 8.45C99.0694 8.61667 99.111 8.78333 99.111 8.95C99.111 9.11667 99.111 9.28333 99.111 9.45C99.111 9.5 99.1527 9.51667 99.236 9.5H99.261C99.2944 9.43333 99.3277 9.38333 99.361 9.35C99.411 9.35 99.4694 9.33333 99.536 9.3C99.586 9.26667 99.6527 9.25 99.736 9.25C99.8694 9.26667 99.9944 9.26667 100.111 9.25C100.228 9.21667 100.344 9.18333 100.461 9.15C101.244 8.95 101.978 8.69167 102.661 8.375C102.844 8.29167 103.036 8.225 103.236 8.175C103.436 8.10833 103.636 8.06667 103.836 8.05H103.911C104.061 8.03333 104.211 8.01667 104.361 8C104.511 7.98333 104.661 7.975 104.811 7.975C105.011 7.95833 105.203 7.93333 105.386 7.9C105.586 7.86667 105.786 7.84167 105.986 7.825C106.103 7.79167 106.211 7.76667 106.311 7.75C106.411 7.71667 106.519 7.675 106.636 7.625C106.853 7.54167 107.053 7.5 107.236 7.5C107.369 7.51667 107.494 7.55 107.611 7.6C107.728 7.63333 107.844 7.68333 107.961 7.75C108.211 7.91667 108.336 8.16667 108.336 8.5C108.336 8.63333 108.319 8.76667 108.286 8.9C108.269 9.03333 108.261 9.16667 108.261 9.3C108.261 9.33333 108.244 9.36667 108.211 9.4L108.136 9.525C108.119 9.59167 108.103 9.65833 108.086 9.725C108.069 9.79167 108.028 9.84167 107.961 9.875C107.861 9.95833 107.753 10.05 107.636 10.15C107.536 10.2333 107.419 10.2917 107.286 10.325C107.219 10.3417 107.153 10.3583 107.086 10.375C107.036 10.3917 106.978 10.4 106.911 10.4C106.644 10.4 106.369 10.4167 106.086 10.45C105.819 10.4833 105.544 10.5167 105.261 10.55C105.044 10.5667 104.828 10.5917 104.611 10.625C104.411 10.6583 104.203 10.675 103.986 10.675C103.786 10.675 103.561 10.7167 103.311 10.8C103.144 10.8333 102.969 10.8667 102.786 10.9C102.603 10.9333 102.419 10.9583 102.236 10.975C102.103 10.9917 101.961 11.0167 101.811 11.05C101.678 11.0667 101.544 11.0833 101.411 11.1L100.986 11.175C100.953 11.1917 100.903 11.2 100.836 11.2C100.719 11.2333 100.603 11.2583 100.486 11.275C100.369 11.2917 100.253 11.3167 100.136 11.35C100.019 11.3667 99.9027 11.3917 99.786 11.425C99.686 11.4583 99.5777 11.4917 99.461 11.525C99.3777 11.5417 99.311 11.575 99.261 11.625C99.211 11.6583 99.1694 11.7083 99.136 11.775C99.1194 11.825 99.1194 11.875 99.136 11.925C99.1527 11.9917 99.1444 12.0583 99.111 12.125C99.1277 12.2917 99.136 12.4583 99.136 12.625C99.1527 12.7917 99.1527 12.9583 99.136 13.125C99.1694 13.2583 99.1777 13.3917 99.161 13.525C99.161 13.6583 99.1527 13.7917 99.136 13.925C99.1027 14.125 99.111 14.2917 99.161 14.425C99.211 14.6417 99.1944 14.8667 99.111 15.1C99.0777 15.2 99.0777 15.2667 99.111 15.3C99.1444 15.35 99.1444 15.4083 99.111 15.475V15.625C99.0944 15.7583 99.1527 15.825 99.286 15.825H99.336C99.4527 15.825 99.5694 15.8667 99.686 15.95C99.7694 16.0333 99.8694 16.0583 99.986 16.025L100.686 15.95C100.786 15.9333 100.886 15.925 100.986 15.925C101.086 15.9083 101.186 15.9 101.286 15.9C101.319 15.8833 101.369 15.8917 101.436 15.925C101.519 15.975 101.594 15.9833 101.661 15.95C101.694 15.9167 101.736 15.8917 101.786 15.875C101.853 15.8583 101.903 15.8333 101.936 15.8C102.036 15.7 102.161 15.6667 102.311 15.7C102.444 15.7333 102.553 15.725 102.636 15.675C102.786 15.625 102.928 15.6083 103.061 15.625C103.144 15.6417 103.228 15.6333 103.311 15.6C103.394 15.5667 103.478 15.55 103.561 15.55C103.594 15.55 103.619 15.5583 103.636 15.575C103.653 15.575 103.669 15.5667 103.686 15.55C103.719 15.55 103.753 15.5417 103.786 15.525C103.819 15.5083 103.844 15.5 103.861 15.5C103.978 15.45 104.086 15.4333 104.186 15.45C104.269 15.45 104.311 15.45 104.311 15.45C104.378 15.4333 104.436 15.4333 104.486 15.45C104.553 15.4667 104.611 15.4917 104.661 15.525C104.744 15.5417 104.811 15.5667 104.861 15.6C104.928 15.6333 104.994 15.6583 105.061 15.675C105.094 15.675 105.119 15.6833 105.136 15.7C105.219 15.7667 105.319 15.825 105.436 15.875C105.569 15.925 105.644 15.9833 105.661 16.05C105.694 16.15 105.711 16.25 105.711 16.35C105.711 16.4333 105.719 16.525 105.736 16.625C105.736 16.675 105.728 16.725 105.711 16.775C105.711 16.825 105.703 16.875 105.686 16.925C105.653 16.9917 105.611 17.0667 105.561 17.15C105.528 17.2333 105.478 17.3083 105.411 17.375C105.378 17.4083 105.344 17.4417 105.311 17.475C105.294 17.5083 105.269 17.5417 105.236 17.575C105.169 17.6417 105.094 17.7 105.011 17.75C104.928 17.8 104.836 17.825 104.736 17.825C104.669 17.825 104.619 17.8333 104.586 17.85C104.519 17.8833 104.453 17.9 104.386 17.9C104.319 17.9 104.244 17.9 104.161 17.9C104.044 17.9167 103.928 17.9333 103.811 17.95C103.711 17.95 103.603 17.9417 103.486 17.925C103.419 17.9083 103.361 17.9083 103.311 17.925C103.144 17.975 102.978 17.9833 102.811 17.95C102.644 17.95 102.478 17.9583 102.311 17.975C102.161 17.975 102.011 17.975 101.861 17.975H101.536C101.486 17.975 101.444 17.9833 101.411 18C101.344 18.0333 101.261 18.05 101.161 18.05C101.078 18.05 100.994 18.0417 100.911 18.025H100.661C100.644 18.025 100.619 18.025 100.586 18.025C100.553 18.0417 100.519 18.0417 100.486 18.025C100.436 18.0083 100.386 18 100.336 18C100.303 18.0167 100.261 18.0333 100.211 18.05C100.178 18.05 100.144 18.05 100.111 18.05C100.094 18.0667 100.069 18.075 100.036 18.075C99.8694 18.0583 99.711 18.0583 99.561 18.075C99.411 18.1083 99.2527 18.1417 99.086 18.175ZM112.934 18.5C112.617 18.5333 112.359 18.4333 112.159 18.2C112.059 18.1 111.967 17.9917 111.884 17.875C111.801 17.7583 111.734 17.6333 111.684 17.5C111.601 17.2667 111.526 17.0333 111.459 16.8C111.392 16.55 111.334 16.3083 111.284 16.075C111.234 15.8917 111.209 15.7167 111.209 15.55C111.192 15.3667 111.167 15.1917 111.134 15.025C111.117 14.8417 111.109 14.6583 111.109 14.475C111.109 14.375 111.109 14.275 111.109 14.175C111.109 14.0583 111.101 13.95 111.084 13.85C111.067 13.7833 111.059 13.725 111.059 13.675C111.059 13.625 111.059 13.5667 111.059 13.5C111.059 13.2667 111.059 13.0333 111.059 12.8C111.059 12.55 111.051 12.3083 111.034 12.075C111.034 11.9417 111.026 11.825 111.009 11.725C110.992 11.6083 110.959 11.4917 110.909 11.375C110.842 11.1917 110.834 10.9917 110.884 10.775C110.884 10.725 110.892 10.6917 110.909 10.675C110.942 10.5583 110.959 10.4417 110.959 10.325C110.976 10.2083 110.976 10.0917 110.959 9.975C110.942 9.89167 110.934 9.80833 110.934 9.725C110.934 9.64167 110.934 9.56667 110.934 9.5C110.917 9.31667 110.909 9.13333 110.909 8.95C110.926 8.75 110.942 8.55833 110.959 8.375C110.976 8.325 110.984 8.275 110.984 8.225C110.984 8.175 110.984 8.125 110.984 8.075C110.967 7.89167 110.967 7.71667 110.984 7.55C111.017 7.38333 111.042 7.21667 111.059 7.05C111.092 6.85 111.126 6.65833 111.159 6.475C111.192 6.275 111.234 6.075 111.284 5.875C111.317 5.79167 111.334 5.7 111.334 5.6C111.334 5.5 111.334 5.4 111.334 5.3C111.334 5.21667 111.326 5.13333 111.309 5.05C111.309 4.96667 111.309 4.89167 111.309 4.825C111.309 4.775 111.309 4.725 111.309 4.675C111.309 4.625 111.317 4.575 111.334 4.525C111.351 4.475 111.359 4.425 111.359 4.375C111.359 4.325 111.367 4.29167 111.384 4.275C111.434 4.20833 111.476 4.15 111.509 4.1C111.542 4.03333 111.592 3.975 111.659 3.925C111.742 3.875 111.817 3.825 111.884 3.775C111.967 3.725 112.042 3.68333 112.109 3.65C112.192 3.61667 112.259 3.575 112.309 3.525C112.376 3.44167 112.442 3.36667 112.509 3.3C112.592 3.21667 112.659 3.125 112.709 3.025C112.792 2.94167 112.876 2.85 112.959 2.75C113.059 2.63333 113.167 2.54167 113.284 2.475C113.317 2.45833 113.367 2.41667 113.434 2.35C113.634 2.16667 113.867 2.05 114.134 2C114.184 1.98333 114.226 1.975 114.259 1.975C114.309 1.95833 114.359 1.95 114.409 1.95L114.584 1.875C114.717 1.825 114.834 1.85 114.934 1.95C114.967 2 115.009 2.05 115.059 2.1C115.126 2.13333 115.184 2.16667 115.234 2.2C115.367 2.31667 115.492 2.44167 115.609 2.575C115.742 2.70833 115.859 2.85833 115.959 3.025C116.126 3.29167 116.267 3.55833 116.384 3.825C116.517 4.09167 116.642 4.36667 116.759 4.65L117.209 5.725C117.226 5.825 117.267 5.91667 117.334 6C117.467 6.25 117.567 6.50833 117.634 6.775C117.701 7.025 117.767 7.28333 117.834 7.55C117.851 7.58333 117.859 7.61667 117.859 7.65C117.876 7.68333 117.884 7.71667 117.884 7.75C117.917 7.88333 117.942 8.025 117.959 8.175C117.992 8.30833 118.001 8.44167 117.984 8.575C118.001 8.725 117.992 8.875 117.959 9.025C117.942 9.15833 117.917 9.29167 117.884 9.425C117.834 9.59167 117.776 9.75 117.709 9.9C117.642 10.0333 117.567 10.175 117.484 10.325C117.451 10.425 117.392 10.5167 117.309 10.6C117.226 10.6833 117.142 10.7583 117.059 10.825C116.926 10.8917 116.792 10.9917 116.659 11.125C116.626 11.1583 116.584 11.1833 116.534 11.2C116.501 11.2167 116.467 11.2417 116.434 11.275C116.317 11.325 116.192 11.3833 116.059 11.45C115.926 11.5 115.792 11.55 115.659 11.6C115.642 11.6 115.634 11.6167 115.634 11.65C115.634 11.6667 115.642 11.6833 115.659 11.7L116.334 12.175C116.417 12.225 116.492 12.275 116.559 12.325C116.626 12.3583 116.692 12.4 116.759 12.45L116.909 12.525C117.109 12.6417 117.309 12.7667 117.509 12.9C117.709 13.0333 117.901 13.1667 118.084 13.3C118.434 13.5167 118.784 13.7417 119.134 13.975C119.484 14.1917 119.817 14.4333 120.134 14.7C120.417 14.9167 120.667 15.1667 120.884 15.45C120.934 15.5 120.984 15.5583 121.034 15.625C121.084 15.675 121.142 15.7167 121.209 15.75L121.284 15.825C121.551 16.0583 121.701 16.375 121.734 16.775C121.734 16.825 121.726 16.875 121.709 16.925C121.709 16.975 121.709 17.025 121.709 17.075C121.709 17.175 121.676 17.2583 121.609 17.325C121.542 17.3583 121.509 17.4 121.509 17.45C121.459 17.5667 121.384 17.65 121.284 17.7C121.201 17.7333 121.117 17.7833 121.034 17.85C121.001 17.8667 120.942 17.875 120.859 17.875C120.759 17.8583 120.651 17.8417 120.534 17.825C120.434 17.8083 120.334 17.8 120.234 17.8C120.101 17.8 119.959 17.7417 119.809 17.625C119.709 17.5417 119.617 17.4667 119.534 17.4C119.451 17.3167 119.367 17.2167 119.284 17.1C119.067 16.8 118.784 16.525 118.434 16.275C118.267 16.1417 118.109 16.0167 117.959 15.9C117.809 15.7833 117.642 15.675 117.459 15.575C117.342 15.5083 117.226 15.4417 117.109 15.375C117.009 15.2917 116.892 15.2167 116.759 15.15C116.342 14.8667 115.917 14.5917 115.484 14.325C115.051 14.0417 114.617 13.7583 114.184 13.475C114.117 13.425 114.042 13.375 113.959 13.325C113.876 13.275 113.792 13.225 113.709 13.175C113.676 13.1417 113.626 13.1083 113.559 13.075C113.492 13.075 113.459 13.1 113.459 13.15C113.459 13.1667 113.451 13.1833 113.434 13.2C113.434 13.2 113.434 13.2083 113.434 13.225C113.434 13.275 113.434 13.325 113.434 13.375C113.434 13.425 113.442 13.475 113.459 13.525C113.476 13.6583 113.484 13.7917 113.484 13.925C113.484 14.0417 113.484 14.1667 113.484 14.3C113.484 14.4 113.484 14.5 113.484 14.6C113.501 14.6833 113.517 14.775 113.534 14.875C113.534 14.925 113.534 14.9833 113.534 15.05C113.551 15.1 113.559 15.15 113.559 15.2C113.542 15.35 113.551 15.5 113.584 15.65C113.617 15.8 113.642 15.95 113.659 16.1L113.809 16.75C113.826 16.8167 113.842 16.8917 113.859 16.975C113.876 17.0417 113.892 17.1167 113.909 17.2C113.926 17.2667 113.926 17.3333 113.909 17.4C113.909 17.45 113.901 17.5083 113.884 17.575C113.884 17.5917 113.867 17.6167 113.834 17.65C113.751 17.6667 113.692 17.725 113.659 17.825C113.609 17.9417 113.534 18.0417 113.434 18.125C113.351 18.225 113.259 18.3167 113.159 18.4C113.142 18.4167 113.109 18.4333 113.059 18.45C113.009 18.4667 112.967 18.4833 112.934 18.5ZM113.909 9.75H113.959C114.142 9.71667 114.326 9.68333 114.509 9.65C114.709 9.6 114.901 9.54167 115.084 9.475C115.267 9.425 115.426 9.33333 115.559 9.2C115.676 9.08333 115.734 8.95 115.734 8.8C115.751 8.68333 115.751 8.575 115.734 8.475C115.734 8.35833 115.717 8.24167 115.684 8.125C115.617 7.825 115.542 7.53333 115.459 7.25C115.376 6.95 115.276 6.66667 115.159 6.4L114.934 5.8C114.884 5.63333 114.826 5.475 114.759 5.325C114.692 5.15833 114.617 5 114.534 4.85C114.517 4.81667 114.501 4.78333 114.484 4.75C114.467 4.7 114.451 4.65833 114.434 4.625L114.334 4.525C114.284 4.45833 114.226 4.45833 114.159 4.525C114.142 4.525 114.117 4.54167 114.084 4.575C113.967 4.725 113.859 4.88333 113.759 5.05C113.676 5.21667 113.626 5.4 113.609 5.6C113.592 5.66667 113.576 5.73333 113.559 5.8C113.559 5.86667 113.559 5.94167 113.559 6.025V7.1C113.542 7.33333 113.534 7.575 113.534 7.825C113.551 8.075 113.542 8.31667 113.509 8.55C113.492 8.6 113.484 8.65 113.484 8.7C113.501 8.75 113.509 8.8 113.509 8.85C113.526 8.95 113.534 9.05 113.534 9.15C113.534 9.23333 113.534 9.325 113.534 9.425C113.534 9.59167 113.551 9.69167 113.584 9.725C113.634 9.75833 113.742 9.76667 113.909 9.75ZM127.933 19.225L127.508 19.15C127.291 19.1167 127.066 19.0833 126.833 19.05C126.616 19.0167 126.391 18.9917 126.158 18.975C125.924 18.975 125.691 18.9083 125.458 18.775C125.241 18.6583 125.091 18.475 125.008 18.225C124.991 18.1417 124.966 18.0583 124.933 17.975C124.916 17.8917 124.899 17.8083 124.883 17.725C124.883 17.525 124.924 17.375 125.008 17.275C125.091 17.1917 125.158 17.1083 125.208 17.025C125.274 16.9417 125.341 16.8667 125.408 16.8C125.441 16.7667 125.474 16.7417 125.508 16.725C125.541 16.7083 125.574 16.6917 125.608 16.675C125.691 16.625 125.774 16.5917 125.858 16.575C125.941 16.5417 126.024 16.5167 126.108 16.5C126.141 16.4833 126.166 16.4833 126.183 16.5C126.216 16.5 126.241 16.5 126.258 16.5C126.341 16.5167 126.433 16.5333 126.533 16.55C126.633 16.55 126.724 16.5667 126.808 16.6L127.858 16.75C128.091 16.7833 128.299 16.75 128.483 16.65C128.549 16.6167 128.608 16.5833 128.658 16.55C128.724 16.5167 128.783 16.4833 128.833 16.45C129.199 16.2333 129.516 16.0083 129.783 15.775C129.983 15.5917 130.174 15.4083 130.358 15.225C130.541 15.0417 130.708 14.8417 130.858 14.625C130.974 14.475 131.049 14.325 131.083 14.175C131.116 14.0083 131.124 13.8417 131.108 13.675L131.033 13.475C131.016 13.3917 130.983 13.325 130.933 13.275C130.883 13.225 130.833 13.1667 130.783 13.1C130.683 13.0167 130.583 12.925 130.483 12.825C130.399 12.725 130.308 12.6417 130.208 12.575C129.958 12.375 129.708 12.1833 129.458 12C129.224 11.8167 128.983 11.6333 128.733 11.45C128.716 11.4167 128.666 11.3833 128.583 11.35C128.433 11.25 128.283 11.1417 128.133 11.025C127.999 10.8917 127.866 10.7667 127.733 10.65C127.566 10.4833 127.383 10.325 127.183 10.175C127.083 10.125 126.991 10.0417 126.908 9.925C126.841 9.84167 126.741 9.75833 126.608 9.675C126.491 9.60833 126.383 9.53333 126.283 9.45C126.183 9.35 126.083 9.25833 125.983 9.175L125.658 8.875C125.591 8.79167 125.516 8.71667 125.433 8.65C125.366 8.56667 125.291 8.48333 125.208 8.4C125.174 8.31667 125.124 8.25 125.058 8.2C125.008 8.15 124.958 8.09167 124.908 8.025C124.891 7.99167 124.866 7.95833 124.833 7.925C124.799 7.875 124.774 7.825 124.758 7.775C124.658 7.575 124.549 7.375 124.433 7.175C124.333 6.975 124.241 6.76667 124.158 6.55C124.108 6.41667 124.058 6.29167 124.008 6.175C123.974 6.04167 123.941 5.91667 123.908 5.8C123.891 5.66667 123.858 5.55 123.808 5.45C123.774 5.33333 123.741 5.21667 123.708 5.1C123.674 4.91667 123.633 4.74167 123.583 4.575C123.549 4.39167 123.516 4.21667 123.483 4.05L123.433 3.85C123.416 3.66667 123.416 3.49167 123.433 3.325C123.466 3.09167 123.516 2.88333 123.583 2.7C123.649 2.5 123.758 2.34167 123.908 2.225C124.074 2.09167 124.241 1.95833 124.408 1.825C124.574 1.69167 124.749 1.58333 124.933 1.5C124.966 1.5 124.991 1.49167 125.008 1.475C125.174 1.34167 125.358 1.25 125.558 1.2C125.758 1.13333 125.958 1.075 126.158 1.025C126.958 0.791666 127.783 0.616666 128.633 0.499999H128.883C129.049 0.499999 129.208 0.499999 129.358 0.499999C129.508 0.499999 129.666 0.491666 129.833 0.474999C130.033 0.474999 130.233 0.499999 130.433 0.55C130.633 0.583333 130.824 0.641666 131.008 0.724999C131.141 0.791666 131.274 0.866666 131.408 0.949999C131.541 1.01667 131.666 1.09167 131.783 1.175C131.916 1.275 131.999 1.38333 132.033 1.5L132.108 1.675C132.191 1.825 132.233 1.98333 132.233 2.15C132.249 2.3 132.241 2.45833 132.208 2.625C132.208 2.675 132.199 2.73333 132.183 2.8C132.183 2.85 132.183 2.9 132.183 2.95C132.133 3.31667 131.958 3.6 131.658 3.8C131.474 3.96667 131.233 4.03333 130.933 4C130.866 3.96667 130.833 3.98333 130.833 4.05C130.833 4.11667 130.791 4.15 130.708 4.15H130.558C130.458 4.15 130.358 4.1 130.258 4C130.174 3.91667 130.133 3.85 130.133 3.8C130.133 3.73333 130.166 3.68333 130.233 3.65C130.199 3.56667 130.166 3.49167 130.133 3.425C130.099 3.35833 130.066 3.30833 130.033 3.275C129.983 3.19167 129.908 3.13333 129.808 3.1C129.724 3.08333 129.641 3.06667 129.558 3.05C129.474 3.03333 129.391 3.01667 129.308 3C129.241 3 129.166 3 129.083 3C128.999 2.98333 128.916 2.96667 128.833 2.95C128.783 2.93333 128.708 2.94167 128.608 2.975C128.558 2.99167 128.508 3.00833 128.458 3.025C128.408 3.025 128.349 3.01667 128.283 3C128.233 3 128.174 3 128.108 3C128.058 3 127.999 3.01667 127.933 3.05L127.458 3.125C127.191 3.175 126.933 3.275 126.683 3.425C126.633 3.44167 126.583 3.45833 126.533 3.475C126.483 3.49167 126.433 3.49167 126.383 3.475C126.283 3.45833 126.199 3.48333 126.133 3.55C126.116 3.58333 126.074 3.60833 126.008 3.625C125.958 3.625 125.916 3.64167 125.883 3.675C125.816 3.74167 125.783 3.80833 125.783 3.875C125.799 3.90833 125.808 3.95833 125.808 4.025L126.333 5.55C126.433 5.81667 126.558 6.06667 126.708 6.3C126.874 6.51667 127.049 6.73333 127.233 6.95C127.516 7.28333 127.808 7.56667 128.108 7.8L128.908 8.475C129.074 8.625 129.249 8.76667 129.433 8.9C129.616 9.03333 129.791 9.16667 129.958 9.3C130.208 9.48333 130.458 9.675 130.708 9.875C130.958 10.0583 131.208 10.25 131.458 10.45C131.658 10.6167 131.849 10.7833 132.033 10.95C132.233 11.1 132.416 11.2667 132.583 11.45C132.699 11.5833 132.816 11.7167 132.933 11.85C133.049 11.9833 133.149 12.1333 133.233 12.3C133.349 12.4833 133.449 12.7 133.533 12.95C133.633 13.2667 133.674 13.5667 133.658 13.85C133.641 13.8833 133.633 13.9333 133.633 14C133.633 14.2 133.608 14.3917 133.558 14.575C133.524 14.7417 133.466 14.9167 133.383 15.1C133.299 15.2667 133.208 15.4417 133.108 15.625C133.024 15.7917 132.924 15.9583 132.808 16.125C132.641 16.3417 132.466 16.55 132.283 16.75C132.116 16.9333 131.924 17.1167 131.708 17.3C131.591 17.4 131.474 17.5083 131.358 17.625C131.241 17.725 131.116 17.8167 130.983 17.9C130.899 17.9667 130.816 18.025 130.733 18.075C130.649 18.1417 130.566 18.2083 130.483 18.275C130.416 18.3083 130.349 18.35 130.283 18.4C130.216 18.45 130.149 18.5 130.083 18.55C130.016 18.6167 129.933 18.6667 129.833 18.7C129.749 18.75 129.666 18.7917 129.583 18.825L128.858 19.125C128.708 19.175 128.558 19.2083 128.408 19.225C128.258 19.2417 128.099 19.2417 127.933 19.225Z" fill="#353535"/>
</svg>
