<svg width="128" height="20" viewBox="0 0 128 20" fill="none" xmlns="http://www.w3.org/2000/svg">
<path d="M8.90205 17.975C8.68538 18.025 8.46038 18.0083 8.22705 17.925C8.16038 17.9083 8.10205 17.8833 8.05205 17.85C8.01872 17.8167 7.97705 17.7833 7.92705 17.75C7.81038 17.6667 7.71872 17.5417 7.65205 17.375L7.55205 17.05C7.55205 17.0167 7.54372 16.9917 7.52705 16.975C7.52705 16.9417 7.52705 16.9167 7.52705 16.9C7.52705 16.6667 7.51038 16.4417 7.47705 16.225C7.44372 15.9917 7.41038 15.7667 7.37705 15.55C7.34372 15.3833 7.31038 15.2167 7.27705 15.05C7.26038 14.8833 7.23538 14.7167 7.20205 14.55C7.20205 14.5167 7.19372 14.4917 7.17705 14.475C7.17705 14.4583 7.17705 14.4417 7.17705 14.425C7.14372 14.225 7.11038 14.025 7.07705 13.825C7.04372 13.625 7.01038 13.4333 6.97705 13.25C6.96038 13.15 6.94372 13.05 6.92705 12.95C6.92705 12.85 6.91038 12.75 6.87705 12.65L6.72705 11.55C6.71038 11.4 6.68538 11.25 6.65205 11.1C6.63538 10.9333 6.61038 10.7667 6.57705 10.6C6.56038 10.4333 6.53538 10.275 6.50205 10.125C6.46872 9.95833 6.43538 9.8 6.40205 9.65L6.02705 8C5.99372 7.81667 5.96038 7.63333 5.92705 7.45C5.89372 7.26667 5.85205 7.09167 5.80205 6.925C5.75205 6.775 5.71038 6.625 5.67705 6.475C5.64372 6.30833 5.59372 6.15 5.52705 6L5.50205 5.9C5.45205 5.68333 5.38538 5.475 5.30205 5.275C5.23538 5.075 5.16038 4.875 5.07705 4.675C5.07705 4.65833 5.06872 4.65 5.05205 4.65C5.05205 4.63333 5.05205 4.625 5.05205 4.625C5.01872 4.525 4.96038 4.49167 4.87705 4.525C4.86038 4.54167 4.83538 4.55 4.80205 4.55C4.73538 4.56667 4.66872 4.59167 4.60205 4.625C4.55205 4.65833 4.49372 4.69167 4.42705 4.725C4.26038 4.775 4.11872 4.85 4.00205 4.95L3.32705 5.425C3.22705 5.475 3.13538 5.54167 3.05205 5.625C2.98538 5.70833 2.91872 5.79167 2.85205 5.875C2.80205 5.94167 2.77705 6.01667 2.77705 6.1L2.70205 6.55C2.68538 6.71667 2.66872 6.89167 2.65205 7.075C2.63538 7.25833 2.61872 7.44167 2.60205 7.625C2.58538 7.79167 2.56038 7.95 2.52705 8.1C2.51038 8.23333 2.50205 8.38333 2.50205 8.55C2.50205 8.68333 2.47705 8.825 2.42705 8.975C2.37705 9.15833 2.25205 9.275 2.05205 9.325C1.90205 9.34167 1.77705 9.29167 1.67705 9.175C1.59372 9.09167 1.53538 8.96667 1.50205 8.8C1.48538 8.68333 1.46872 8.575 1.45205 8.475C1.43538 8.375 1.42705 8.26667 1.42705 8.15V7.4C1.42705 7.25 1.41872 7.10833 1.40205 6.975C1.40205 6.84167 1.41038 6.71667 1.42705 6.6C1.42705 6.31667 1.36038 6.04167 1.22705 5.775L0.852051 5C0.785384 4.86667 0.727051 4.69167 0.677051 4.475C0.627051 4.24167 0.602051 4.05 0.602051 3.9C0.635384 3.51667 0.777051 3.2 1.02705 2.95C1.24372 2.73333 1.49372 2.59167 1.77705 2.525C1.87705 2.49167 2.01038 2.45833 2.17705 2.425L3.50205 2.2C3.63538 2.18333 3.76038 2.16667 3.87705 2.15C4.01038 2.11667 4.13538 2.09167 4.25205 2.075C4.50205 2.04167 4.75205 2.00833 5.00205 1.975C5.26872 1.94167 5.53538 1.91667 5.80205 1.9C5.95205 1.88333 6.10205 1.86667 6.25205 1.85C6.40205 1.83333 6.55205 1.81667 6.70205 1.8H6.80205C6.95205 1.78333 7.09372 1.775 7.22705 1.775C7.37705 1.75833 7.52705 1.74167 7.67705 1.725C7.76038 1.70833 7.84372 1.7 7.92705 1.7C8.01038 1.7 8.08538 1.69167 8.15205 1.675C8.16872 1.65833 8.20205 1.65 8.25205 1.65L9.17705 1.575C9.36038 1.55833 9.53538 1.54167 9.70205 1.525C9.88538 1.50833 10.0687 1.49167 10.2521 1.475C10.4021 1.45833 10.5521 1.44167 10.7021 1.425C10.8521 1.39167 11.0021 1.34167 11.1521 1.275C11.3021 1.20833 11.4521 1.19167 11.6021 1.225C11.7687 1.24167 11.9187 1.28333 12.0521 1.35C12.1021 1.36667 12.1437 1.4 12.1771 1.45C12.2271 1.48333 12.2687 1.51667 12.3021 1.55C12.3854 1.63333 12.4521 1.73333 12.5021 1.85C12.5521 1.95 12.6021 2.05 12.6521 2.15C12.7021 2.25 12.7021 2.35 12.6521 2.45C12.6187 2.51667 12.5937 2.59167 12.5771 2.675C12.5771 2.74167 12.5687 2.81667 12.5521 2.9C12.5521 2.98333 12.5271 3.05 12.4771 3.1C12.4437 3.11667 12.4104 3.14167 12.3771 3.175C12.3437 3.20833 12.3104 3.24167 12.2771 3.275C12.2271 3.29167 12.1771 3.34167 12.1271 3.425C12.0271 3.55833 11.8854 3.625 11.7021 3.625C11.6354 3.625 11.5687 3.63333 11.5021 3.65C11.4521 3.66667 11.3937 3.68333 11.3271 3.7C11.1771 3.73333 11.0771 3.78333 11.0271 3.85C10.9437 3.93333 10.8521 3.975 10.7521 3.975C10.6354 4.00833 10.5437 3.975 10.4771 3.875C10.4604 3.825 10.4187 3.8 10.3521 3.8C10.2854 3.81667 10.2104 3.825 10.1271 3.825C10.0604 3.825 9.99372 3.825 9.92705 3.825C9.86038 3.84167 9.78538 3.85 9.70205 3.85C9.63538 3.85 9.56038 3.85833 9.47705 3.875C9.41038 3.875 9.35205 3.88333 9.30205 3.9C9.25205 3.9 9.19372 3.9 9.12705 3.9C8.96038 3.91667 8.78538 3.93333 8.60205 3.95C8.43538 3.96667 8.26038 3.98333 8.07705 4C7.97705 4 7.90205 4.00833 7.85205 4.025C7.78538 4.05833 7.75205 4.10833 7.75205 4.175C7.73538 4.24167 7.73538 4.325 7.75205 4.425L7.90205 5.2C7.93538 5.35 7.96872 5.50833 8.00205 5.675C8.03538 5.825 8.06872 5.98333 8.10205 6.15L8.17705 6.7C8.17705 6.76667 8.17705 6.83333 8.17705 6.9C8.19372 6.95 8.21038 7.00833 8.22705 7.075C8.26038 7.275 8.29372 7.475 8.32705 7.675C8.37705 7.875 8.41038 8.075 8.42705 8.275L8.45205 8.375C8.51872 8.59167 8.56872 8.80833 8.60205 9.025C8.63538 9.24167 8.66872 9.46667 8.70205 9.7C8.73538 9.85 8.76872 10.0083 8.80205 10.175C8.83538 10.325 8.86038 10.475 8.87705 10.625C8.89372 10.7417 8.91038 10.8583 8.92705 10.975C8.94372 11.075 8.96038 11.1833 8.97705 11.3V11.425C8.99372 11.5583 9.01038 11.6917 9.02705 11.825C9.06038 11.9417 9.08538 12.0667 9.10205 12.2L9.17705 12.95C9.19372 13.0667 9.21038 13.1833 9.22705 13.3C9.24372 13.4167 9.26038 13.5417 9.27705 13.675C9.27705 13.7083 9.27705 13.75 9.27705 13.8C9.29372 13.8333 9.30205 13.8667 9.30205 13.9C9.30205 13.9833 9.31038 14.075 9.32705 14.175C9.34372 14.2583 9.36038 14.35 9.37705 14.45C9.41038 14.6333 9.44372 14.825 9.47705 15.025C9.51038 15.2083 9.54372 15.4 9.57705 15.6C9.59372 15.7167 9.61872 15.8333 9.65205 15.95C9.68538 16.05 9.71038 16.1583 9.72705 16.275C9.74372 16.3583 9.79372 16.4417 9.87705 16.525C9.94372 16.575 9.96038 16.6333 9.92705 16.7C9.87705 16.7667 9.84372 16.8417 9.82705 16.925C9.82705 17.0083 9.81872 17.0917 9.80205 17.175C9.80205 17.2417 9.79372 17.2917 9.77705 17.325C9.77705 17.4083 9.74372 17.4667 9.67705 17.5C9.61038 17.5333 9.54372 17.6 9.47705 17.7C9.39372 17.7833 9.32705 17.8417 9.27705 17.875C9.22705 17.925 9.16038 17.95 9.07705 17.95C9.04372 17.9333 8.98538 17.9417 8.90205 17.975ZM24.3897 18.6C24.2397 18.6167 24.0981 18.6167 23.9647 18.6C23.8314 18.5833 23.6981 18.5167 23.5647 18.4C23.5314 18.3667 23.4814 18.3333 23.4147 18.3C23.3314 18.25 23.2814 18.1917 23.2647 18.125C23.2481 18.0583 23.2147 18.0083 23.1647 17.975C23.1147 17.925 23.0814 17.8667 23.0647 17.8C23.0481 17.75 23.0397 17.7 23.0397 17.65C23.0564 17.5833 23.0647 17.525 23.0647 17.475C23.0647 17.425 23.0564 17.375 23.0397 17.325C23.0397 17.275 23.0397 17.225 23.0397 17.175C22.9897 16.925 22.9397 16.675 22.8897 16.425C22.8397 16.1583 22.7981 15.9 22.7647 15.65C22.7481 15.5333 22.7314 15.4167 22.7147 15.3C22.6981 15.1833 22.6814 15.0667 22.6647 14.95C22.6481 14.7333 22.6231 14.5167 22.5897 14.3C22.5731 14.0833 22.5481 13.8667 22.5147 13.65C22.4814 13.5167 22.4647 13.4 22.4647 13.3C22.4647 13.1667 22.4564 13.0417 22.4397 12.925C22.4231 12.7917 22.4064 12.6667 22.3897 12.55C22.3731 12.45 22.3147 12.4 22.2147 12.4L22.0397 12.375C21.9564 12.3583 21.8647 12.35 21.7647 12.35C21.6647 12.35 21.5647 12.3417 21.4647 12.325H21.2147C21.1814 12.3417 21.1314 12.35 21.0647 12.35C20.9981 12.35 20.9314 12.35 20.8647 12.35C20.8147 12.3333 20.7481 12.3333 20.6647 12.35C20.5981 12.35 20.5314 12.3583 20.4647 12.375C20.4147 12.375 20.3481 12.3667 20.2647 12.35C20.2481 12.3333 20.2147 12.3333 20.1647 12.35C20.1314 12.35 20.0981 12.35 20.0647 12.35C19.9814 12.35 19.8897 12.3583 19.7897 12.375C19.7064 12.375 19.6231 12.375 19.5397 12.375C19.4897 12.375 19.4397 12.375 19.3897 12.375C19.3397 12.375 19.2897 12.3833 19.2397 12.4C19.1231 12.4167 19.0064 12.4333 18.8897 12.45C18.7731 12.45 18.6564 12.45 18.5397 12.45C18.3731 12.4333 18.2064 12.4333 18.0397 12.45C17.8731 12.4667 17.7064 12.4833 17.5397 12.5H17.4647C17.3814 12.5333 17.3397 12.5833 17.3397 12.65C17.3397 12.6667 17.3314 12.6833 17.3147 12.7C17.3147 12.7 17.3147 12.7083 17.3147 12.725C17.3147 12.8083 17.3231 12.875 17.3397 12.925C17.3564 13.0417 17.3731 13.1667 17.3897 13.3C17.4064 13.4167 17.4231 13.5417 17.4397 13.675L17.5147 14.275C17.5314 14.4417 17.5564 14.6083 17.5897 14.775C17.6231 14.925 17.6481 15.075 17.6647 15.225C17.6814 15.2417 17.6897 15.2667 17.6897 15.3C17.6897 15.3167 17.6981 15.3417 17.7147 15.375C17.7481 15.4583 17.7647 15.55 17.7647 15.65C17.7647 15.75 17.7647 15.85 17.7647 15.95C17.7981 15.9667 17.7897 16 17.7397 16.05C17.7231 16.0833 17.7064 16.1167 17.6897 16.15C17.6731 16.1833 17.6647 16.2167 17.6647 16.25C17.6147 16.4167 17.5064 16.575 17.3397 16.725C17.1731 16.8583 17.0147 16.9333 16.8647 16.95C16.8481 16.95 16.8314 16.9583 16.8147 16.975C16.7981 16.975 16.7731 16.975 16.7397 16.975C16.5231 17.025 16.2897 17.0083 16.0397 16.925L15.9647 16.875C15.9481 16.8083 15.9147 16.7583 15.8647 16.725C15.8147 16.6917 15.7731 16.6583 15.7397 16.625C15.7064 16.575 15.6647 16.5333 15.6147 16.5C15.5814 16.45 15.5564 16.3917 15.5397 16.325C15.5397 16.3083 15.5314 16.3 15.5147 16.3C15.4481 16.2167 15.4064 16.125 15.3897 16.025C15.3731 15.925 15.3564 15.825 15.3397 15.725L15.2647 15.325C15.2481 15.175 15.2231 15.025 15.1897 14.875C15.1731 14.7083 15.1564 14.5417 15.1397 14.375L14.9897 13.4C14.9731 13.2833 14.9564 13.1667 14.9397 13.05C14.9231 12.9167 14.9064 12.7917 14.8897 12.675L14.8147 11.875C14.7981 11.7083 14.7814 11.5417 14.7647 11.375C14.7481 11.2083 14.7231 11.0417 14.6897 10.875V10.65C14.6897 10.5167 14.6814 10.3833 14.6647 10.25C14.6647 10.1167 14.6564 9.99167 14.6397 9.875C14.6231 9.825 14.6147 9.775 14.6147 9.725C14.6147 9.675 14.6147 9.625 14.6147 9.575C14.6147 9.49167 14.6064 9.41667 14.5897 9.35C14.5897 9.26667 14.5814 9.18333 14.5647 9.1L14.4897 8.575C14.4731 8.39167 14.4397 8.2 14.3897 8C14.3564 7.8 14.3064 7.60833 14.2397 7.425C14.2064 7.325 14.1647 7.225 14.1147 7.125C14.0647 7.00833 14.0231 6.89167 13.9897 6.775C13.9564 6.64167 13.9231 6.55 13.8897 6.5C13.8397 6.33333 13.8397 6.175 13.8897 6.025L14.0397 5.65C14.0564 5.58333 14.1064 5.525 14.1897 5.475C14.2231 5.425 14.2647 5.38333 14.3147 5.35C14.3647 5.3 14.4147 5.25833 14.4647 5.225C14.4981 5.20833 14.5397 5.2 14.5897 5.2C14.6397 5.21667 14.7064 5.20833 14.7897 5.175L14.8647 5.125C15.0147 5.04167 15.1647 5.04167 15.3147 5.125C15.3981 5.15833 15.4814 5.19167 15.5647 5.225C15.6647 5.25833 15.7481 5.31667 15.8147 5.4C15.9147 5.41667 15.9814 5.49167 16.0147 5.625L16.2397 6.125C16.3731 6.40833 16.4897 6.7 16.5897 7C16.6897 7.3 16.7564 7.61667 16.7897 7.95C16.8064 8.06667 16.8231 8.19167 16.8397 8.325C16.8731 8.44167 16.8981 8.56667 16.9147 8.7V8.9C16.9147 8.98333 16.9231 9.04167 16.9397 9.075C16.9564 9.19167 16.9647 9.31667 16.9647 9.45C16.9814 9.58333 16.9897 9.71667 16.9897 9.85V9.9C17.0064 9.98333 17.0564 10.0417 17.1397 10.075C17.1897 10.0917 17.2397 10.1083 17.2897 10.125C17.3397 10.125 17.3897 10.125 17.4397 10.125C17.5231 10.1083 17.5897 10.1083 17.6397 10.125C17.7064 10.125 17.7731 10.125 17.8397 10.125C17.9564 10.125 18.0647 10.125 18.1647 10.125C18.2647 10.1083 18.3731 10.1 18.4897 10.1H18.7897C18.8397 10.1 18.8897 10.1083 18.9397 10.125C19.0064 10.125 19.0647 10.1167 19.1147 10.1C19.1481 10.1 19.1731 10.1 19.1897 10.1C19.2231 10.0833 19.2481 10.075 19.2647 10.075C19.4314 10.0917 19.5981 10.1 19.7647 10.1C19.9314 10.0833 20.0981 10.075 20.2647 10.075C20.4314 10.0917 20.5981 10.1 20.7647 10.1C20.9314 10.0833 21.0981 10.075 21.2647 10.075C21.3981 10.075 21.5231 10.0833 21.6397 10.1C21.7731 10.1 21.8981 10.1 22.0147 10.1C22.1314 10.1 22.1897 10.05 22.1897 9.95C22.1897 9.86667 22.1897 9.775 22.1897 9.675C22.1897 9.575 22.1814 9.48333 22.1647 9.4C22.1481 9.21667 22.1314 9.05 22.1147 8.9C22.1147 8.73333 22.1064 8.56667 22.0897 8.4C22.0731 8.16667 22.0647 7.94167 22.0647 7.725C22.0814 7.49167 22.0731 7.26667 22.0397 7.05C22.0231 6.86667 22.0064 6.68333 21.9897 6.5C21.9897 6.31667 21.9731 6.14167 21.9397 5.975V5.625C21.9397 5.55833 21.9481 5.50833 21.9647 5.475C21.9647 5.44167 21.9647 5.41667 21.9647 5.4C21.9814 5.36667 21.9897 5.34167 21.9897 5.325C21.9897 5.24167 21.9731 5.19167 21.9397 5.175L21.8647 5.125C21.7647 5.05833 21.7481 4.98333 21.8147 4.9C21.8647 4.83333 21.8731 4.75833 21.8397 4.675C21.8397 4.625 21.8481 4.59167 21.8647 4.575C21.8981 4.525 21.9314 4.475 21.9647 4.425C21.9981 4.375 22.0231 4.31667 22.0397 4.25C22.0897 4.06667 22.1647 3.98333 22.2647 4C22.3814 4 22.4564 4.01667 22.4897 4.05C22.5064 4.06667 22.5231 4.075 22.5397 4.075C22.5564 4.05833 22.5647 4.04167 22.5647 4.025C22.5647 3.925 22.6147 3.86667 22.7147 3.85C22.8147 3.83333 22.8897 3.81667 22.9397 3.8L23.0897 3.7H23.1647C23.2481 3.73333 23.3147 3.775 23.3647 3.825C23.4314 3.85833 23.4981 3.89167 23.5647 3.925C23.5981 3.94167 23.6397 3.975 23.6897 4.025C23.8064 4.175 23.8897 4.36667 23.9397 4.6C23.9731 4.76667 24.0064 4.925 24.0397 5.075C24.0731 5.225 24.0981 5.38333 24.1147 5.55C24.1147 5.58333 24.1147 5.61667 24.1147 5.65C24.1314 5.68333 24.1397 5.71667 24.1397 5.75L24.1647 5.925C24.1647 6.125 24.1731 6.325 24.1897 6.525C24.2231 6.70833 24.2481 6.9 24.2647 7.1C24.2814 7.11667 24.2897 7.15 24.2897 7.2C24.2731 7.31667 24.2647 7.43333 24.2647 7.55C24.2814 7.65 24.2981 7.76667 24.3147 7.9C24.3314 8.01667 24.3397 8.15 24.3397 8.3C24.3564 8.43333 24.3647 8.56667 24.3647 8.7C24.3647 8.78333 24.3647 8.875 24.3647 8.975C24.3814 9.075 24.3981 9.16667 24.4147 9.25C24.4314 9.33333 24.4397 9.41667 24.4397 9.5C24.4397 9.58333 24.4397 9.66667 24.4397 9.75C24.4397 9.83333 24.4397 9.91667 24.4397 10C24.4564 10.0667 24.4731 10.1417 24.4897 10.225V10.325C24.5064 10.525 24.5231 10.725 24.5397 10.925C24.5731 11.1083 24.5981 11.3 24.6147 11.5C24.6314 11.5167 24.6397 11.55 24.6397 11.6C24.6397 11.7833 24.6564 11.975 24.6897 12.175C24.7231 12.3583 24.7481 12.5417 24.7647 12.725L24.8397 13.6C24.8397 13.6167 24.8397 13.65 24.8397 13.7C24.8564 13.7333 24.8647 13.7667 24.8647 13.8C24.8814 13.8333 24.8897 13.9 24.8897 14C24.8897 14.15 24.8981 14.3 24.9147 14.45C24.9481 14.6 24.9731 14.75 24.9897 14.9C25.0231 15.0667 25.0481 15.2333 25.0647 15.4C25.0814 15.5667 25.1064 15.7417 25.1397 15.925C25.1731 16.125 25.2147 16.325 25.2647 16.525C25.3147 16.725 25.3564 16.925 25.3897 17.125C25.4064 17.1917 25.4147 17.2667 25.4147 17.35C25.4314 17.4167 25.4397 17.4917 25.4397 17.575C25.4397 17.6583 25.4147 17.7417 25.3647 17.825C25.3481 17.8417 25.3314 17.875 25.3147 17.925C25.3147 17.9583 25.2981 17.9917 25.2647 18.025C25.2481 18.0417 25.2397 18.0583 25.2397 18.075C25.2397 18.0917 25.2314 18.1 25.2147 18.1C25.1481 18.1167 25.0897 18.1583 25.0397 18.225C24.9897 18.2917 24.9314 18.3417 24.8647 18.375C24.7981 18.4417 24.7064 18.4917 24.5897 18.525L24.3897 18.6ZM30.9249 18.175C30.8249 18.175 30.7582 18.1667 30.7249 18.15C30.6416 18.1167 30.5582 18.1 30.4749 18.1C30.4082 18.1167 30.3332 18.125 30.2499 18.125C30.2332 18.125 30.2166 18.125 30.1999 18.125C30.1832 18.1417 30.1666 18.15 30.1499 18.15C30.0332 18.1667 29.9166 18.175 29.7999 18.175C29.6999 18.175 29.5999 18.1583 29.4999 18.125C29.4832 18.1083 29.4666 18.1 29.4499 18.1C29.3332 18.1167 29.2332 18.0833 29.1499 18C29.0666 17.9167 28.9832 17.8417 28.8999 17.775C28.8166 17.6917 28.7749 17.6 28.7749 17.5L28.6999 17.3C28.6499 17.1833 28.6332 17.075 28.6499 16.975C28.6666 16.9417 28.6666 16.9083 28.6499 16.875C28.6499 16.8417 28.6499 16.8083 28.6499 16.775C28.6332 16.7417 28.6249 16.7083 28.6249 16.675C28.6249 16.625 28.6166 16.5833 28.5999 16.55C28.5666 16.4 28.5416 16.25 28.5249 16.1C28.5249 15.9333 28.5332 15.775 28.5499 15.625C28.5666 15.525 28.6249 15.3583 28.7249 15.125C28.8249 14.875 28.8832 14.725 28.8999 14.675C28.9499 14.5917 28.9749 14.525 28.9749 14.475C28.9582 14.2917 28.9499 14.1083 28.9499 13.925C28.9666 13.725 28.9749 13.5333 28.9749 13.35C28.9749 13.2333 28.9999 13.1417 29.0499 13.075C29.1166 12.9583 29.1249 12.8333 29.0749 12.7L28.9999 12.425C28.8999 12.2417 28.9082 12.0833 29.0249 11.95C29.0249 11.9333 29.0249 11.925 29.0249 11.925C29.0416 11.9083 29.0499 11.8917 29.0499 11.875C29.0832 11.8417 29.0916 11.8 29.0749 11.75C29.0582 11.6833 29.0499 11.6333 29.0499 11.6C29.0499 11.5333 29.0582 11.4667 29.0749 11.4C29.1082 11.3167 29.1166 11.2417 29.0999 11.175C29.0999 11.175 29.0832 11.1583 29.0499 11.125C29.0332 11.0917 29.0249 11.025 29.0249 10.925C29.0416 10.825 29.0499 10.7667 29.0499 10.75V10.05C29.0666 9.96667 29.0749 9.89167 29.0749 9.825C29.0749 9.74167 29.0832 9.65833 29.0999 9.575C29.1166 9.475 29.1166 9.375 29.0999 9.275C29.0999 9.15833 29.0999 9.04167 29.0999 8.925C29.0832 8.84167 29.0666 8.75 29.0499 8.65C29.0499 8.55 29.0499 8.45 29.0499 8.35C29.0332 8.31667 29.0249 8.275 29.0249 8.225C29.0249 8.175 29.0249 8.13333 29.0249 8.1C29.0082 8.01667 28.9916 7.93333 28.9749 7.85C28.9749 7.76667 28.9749 7.68333 28.9749 7.6C28.9749 7.56667 28.9416 7.45833 28.8749 7.275C28.8082 7.075 28.7832 6.90833 28.7999 6.775C28.8166 6.74167 28.8249 6.7 28.8249 6.65C28.8249 6.6 28.8082 6.55833 28.7749 6.525C28.7416 6.50833 28.7249 6.475 28.7249 6.425V6.35C28.7749 6.15 28.7499 5.95 28.6499 5.75C28.5832 5.65 28.5582 5.55 28.5749 5.45C28.5749 5.31667 28.5166 5.21667 28.3999 5.15C28.3166 5.06667 28.2416 4.96667 28.1749 4.85C28.1082 4.73333 28.0666 4.61667 28.0499 4.5C28.0332 4.41667 28.0249 4.33333 28.0249 4.25C28.0249 4.16667 28.0249 4.09167 28.0249 4.025C28.0249 3.95833 28.0332 3.91667 28.0499 3.9C28.1166 3.83333 28.1499 3.75833 28.1499 3.675C28.1499 3.575 28.1582 3.5 28.1749 3.45C28.1916 3.43333 28.2082 3.425 28.2249 3.425C28.2416 3.425 28.2582 3.41667 28.2749 3.4C28.3416 3.38333 28.3749 3.325 28.3749 3.225C28.3416 3.15833 28.3249 3.1 28.3249 3.05C28.3082 2.98333 28.3332 2.925 28.3999 2.875C28.4332 2.80833 28.4749 2.79167 28.5249 2.825C28.6416 2.875 28.7749 2.85833 28.9249 2.775C28.9916 2.74167 29.0332 2.725 29.0499 2.725C29.0999 2.725 29.1249 2.725 29.1249 2.725C29.1416 2.70833 29.1916 2.7 29.2749 2.7C29.3749 2.71667 29.4666 2.68333 29.5499 2.6C29.6666 2.48333 29.8082 2.425 29.9749 2.425H31.5249C31.9082 2.44167 32.2916 2.44167 32.6749 2.425C33.0582 2.40833 33.4332 2.4 33.7999 2.4C33.8832 2.4 33.9499 2.4 33.9999 2.4C34.0666 2.38333 34.1332 2.36667 34.1999 2.35C34.2999 2.3 34.4166 2.275 34.5499 2.275H35.1249C35.2582 2.275 35.3749 2.275 35.4749 2.275C35.5916 2.25833 35.7082 2.24167 35.8249 2.225C35.8916 2.20833 35.9499 2.2 35.9999 2.2C36.0666 2.2 36.1332 2.2 36.1999 2.2C36.2666 2.2 36.3332 2.2 36.3999 2.2C36.4666 2.2 36.5332 2.19167 36.5999 2.175C36.7332 2.15833 36.8749 2.15 37.0249 2.15C37.1749 2.13333 37.3166 2.125 37.4499 2.125C37.5166 2.125 37.5749 2.125 37.6249 2.125C37.6916 2.10833 37.7582 2.09167 37.8249 2.075C37.9582 2.04167 38.0832 2.025 38.1999 2.025C38.3332 2.00833 38.4582 1.99167 38.5749 1.975C38.7082 1.95833 38.8332 1.94167 38.9499 1.925C39.0832 1.90833 39.2082 1.89167 39.3249 1.875C39.4749 1.875 39.5832 1.89167 39.6499 1.925C39.7499 1.99167 39.8416 2.05 39.9249 2.1C40.0249 2.15 40.1166 2.21667 40.1999 2.3C40.2666 2.36667 40.3082 2.425 40.3249 2.475C40.3416 2.54167 40.3582 2.60833 40.3749 2.675C40.3916 2.74167 40.4082 2.81667 40.4249 2.9V3.075C40.4082 3.15833 40.3916 3.25 40.3749 3.35C40.3749 3.43333 40.3666 3.525 40.3499 3.625C40.3166 3.69167 40.2749 3.75 40.2249 3.8L39.7749 4.25C39.6082 4.3 39.4416 4.33333 39.2749 4.35C39.1249 4.36667 38.9666 4.36667 38.7999 4.35H38.6249C38.5416 4.36667 38.4582 4.375 38.3749 4.375C38.2916 4.375 38.2082 4.36667 38.1249 4.35C38.0249 4.33333 37.9249 4.33333 37.8249 4.35C37.7249 4.35 37.6249 4.35 37.5249 4.35C37.4582 4.35 37.3916 4.35833 37.3249 4.375C37.2749 4.375 37.2166 4.36667 37.1499 4.35C37.0666 4.33333 36.9832 4.33333 36.8999 4.35C36.8332 4.35 36.7582 4.35833 36.6749 4.375C36.6082 4.375 36.5332 4.38333 36.4499 4.4C36.3832 4.4 36.3082 4.4 36.2249 4.4C36.0082 4.43333 35.7749 4.45 35.5249 4.45C35.2916 4.45 35.0582 4.46667 34.8249 4.5C34.6749 4.48333 34.5332 4.49167 34.3999 4.525C34.2666 4.54167 34.1249 4.55833 33.9749 4.575C33.8416 4.59167 33.6999 4.6 33.5499 4.6C33.3999 4.6 33.2582 4.61667 33.1249 4.65C32.9582 4.65 32.7916 4.675 32.6249 4.725C32.4749 4.75833 32.3166 4.78333 32.1499 4.8L31.9749 4.825C31.8582 4.825 31.7499 4.84167 31.6499 4.875C31.5499 4.89167 31.4416 4.91667 31.3249 4.95C31.2582 4.96667 31.1916 4.98333 31.1249 5C31.0582 5 30.9832 5.00833 30.8999 5.025C30.8499 5.025 30.7916 5.04167 30.7249 5.075C30.6749 5.09167 30.6499 5.14167 30.6499 5.225L30.7249 5.45C30.7416 5.48333 30.7332 5.56667 30.6999 5.7C30.6832 5.83333 30.6666 5.93333 30.6499 6C30.6499 6.05 30.6582 6.1 30.6749 6.15C30.6916 6.2 30.7082 6.25 30.7249 6.3C30.7749 6.43333 30.7999 6.58333 30.7999 6.75C30.7999 6.9 30.8166 7.04167 30.8499 7.175C30.8666 7.24167 30.8749 7.31667 30.8749 7.4C30.8749 7.46667 30.8832 7.54167 30.8999 7.625C30.8999 7.65833 30.8999 7.7 30.8999 7.75C30.9166 7.78333 30.9249 7.825 30.9249 7.875C30.9249 7.925 30.9166 7.95833 30.8999 7.975C30.8499 8.04167 30.8249 8.11667 30.8249 8.2C30.8249 8.28333 30.8249 8.36667 30.8249 8.45C30.9082 8.61667 30.9499 8.78333 30.9499 8.95C30.9499 9.11667 30.9499 9.28333 30.9499 9.45C30.9499 9.5 30.9916 9.51667 31.0749 9.5H31.0999C31.1332 9.43333 31.1666 9.38333 31.1999 9.35C31.2499 9.35 31.3082 9.33333 31.3749 9.3C31.4249 9.26667 31.4916 9.25 31.5749 9.25C31.7082 9.26667 31.8332 9.26667 31.9499 9.25C32.0666 9.21667 32.1832 9.18333 32.2999 9.15C33.0832 8.95 33.8166 8.69167 34.4999 8.375C34.6832 8.29167 34.8749 8.225 35.0749 8.175C35.2749 8.10833 35.4749 8.06667 35.6749 8.05H35.7499C35.8999 8.03333 36.0499 8.01667 36.1999 8C36.3499 7.98333 36.4999 7.975 36.6499 7.975C36.8499 7.95833 37.0416 7.93333 37.2249 7.9C37.4249 7.86667 37.6249 7.84167 37.8249 7.825C37.9416 7.79167 38.0499 7.76667 38.1499 7.75C38.2499 7.71667 38.3582 7.675 38.4749 7.625C38.6916 7.54167 38.8916 7.5 39.0749 7.5C39.2082 7.51667 39.3332 7.55 39.4499 7.6C39.5666 7.63333 39.6832 7.68333 39.7999 7.75C40.0499 7.91667 40.1749 8.16667 40.1749 8.5C40.1749 8.63333 40.1582 8.76667 40.1249 8.9C40.1082 9.03333 40.0999 9.16667 40.0999 9.3C40.0999 9.33333 40.0832 9.36667 40.0499 9.4L39.9749 9.525C39.9582 9.59167 39.9416 9.65833 39.9249 9.725C39.9082 9.79167 39.8666 9.84167 39.7999 9.875C39.6999 9.95833 39.5916 10.05 39.4749 10.15C39.3749 10.2333 39.2582 10.2917 39.1249 10.325C39.0582 10.3417 38.9916 10.3583 38.9249 10.375C38.8749 10.3917 38.8166 10.4 38.7499 10.4C38.4832 10.4 38.2082 10.4167 37.9249 10.45C37.6582 10.4833 37.3832 10.5167 37.0999 10.55C36.8832 10.5667 36.6666 10.5917 36.4499 10.625C36.2499 10.6583 36.0416 10.675 35.8249 10.675C35.6249 10.675 35.3999 10.7167 35.1499 10.8C34.9832 10.8333 34.8082 10.8667 34.6249 10.9C34.4416 10.9333 34.2582 10.9583 34.0749 10.975C33.9416 10.9917 33.7999 11.0167 33.6499 11.05C33.5166 11.0667 33.3832 11.0833 33.2499 11.1L32.8249 11.175C32.7916 11.1917 32.7416 11.2 32.6749 11.2C32.5582 11.2333 32.4416 11.2583 32.3249 11.275C32.2082 11.2917 32.0916 11.3167 31.9749 11.35C31.8582 11.3667 31.7416 11.3917 31.6249 11.425C31.5249 11.4583 31.4166 11.4917 31.2999 11.525C31.2166 11.5417 31.1499 11.575 31.0999 11.625C31.0499 11.6583 31.0082 11.7083 30.9749 11.775C30.9582 11.825 30.9582 11.875 30.9749 11.925C30.9916 11.9917 30.9832 12.0583 30.9499 12.125C30.9666 12.2917 30.9749 12.4583 30.9749 12.625C30.9916 12.7917 30.9916 12.9583 30.9749 13.125C31.0082 13.2583 31.0166 13.3917 30.9999 13.525C30.9999 13.6583 30.9916 13.7917 30.9749 13.925C30.9416 14.125 30.9499 14.2917 30.9999 14.425C31.0499 14.6417 31.0332 14.8667 30.9499 15.1C30.9166 15.2 30.9166 15.2667 30.9499 15.3C30.9832 15.35 30.9832 15.4083 30.9499 15.475V15.625C30.9332 15.7583 30.9916 15.825 31.1249 15.825H31.1749C31.2916 15.825 31.4082 15.8667 31.5249 15.95C31.6082 16.0333 31.7082 16.0583 31.8249 16.025L32.5249 15.95C32.6249 15.9333 32.7249 15.925 32.8249 15.925C32.9249 15.9083 33.0249 15.9 33.1249 15.9C33.1582 15.8833 33.2082 15.8917 33.2749 15.925C33.3582 15.975 33.4332 15.9833 33.4999 15.95C33.5332 15.9167 33.5749 15.8917 33.6249 15.875C33.6916 15.8583 33.7416 15.8333 33.7749 15.8C33.8749 15.7 33.9999 15.6667 34.1499 15.7C34.2832 15.7333 34.3916 15.725 34.4749 15.675C34.6249 15.625 34.7666 15.6083 34.8999 15.625C34.9832 15.6417 35.0666 15.6333 35.1499 15.6C35.2332 15.5667 35.3166 15.55 35.3999 15.55C35.4332 15.55 35.4582 15.5583 35.4749 15.575C35.4916 15.575 35.5082 15.5667 35.5249 15.55C35.5582 15.55 35.5916 15.5417 35.6249 15.525C35.6582 15.5083 35.6832 15.5 35.6999 15.5C35.8166 15.45 35.9249 15.4333 36.0249 15.45C36.1082 15.45 36.1499 15.45 36.1499 15.45C36.2166 15.4333 36.2749 15.4333 36.3249 15.45C36.3916 15.4667 36.4499 15.4917 36.4999 15.525C36.5832 15.5417 36.6499 15.5667 36.6999 15.6C36.7666 15.6333 36.8332 15.6583 36.8999 15.675C36.9332 15.675 36.9582 15.6833 36.9749 15.7C37.0582 15.7667 37.1582 15.825 37.2749 15.875C37.4082 15.925 37.4832 15.9833 37.4999 16.05C37.5332 16.15 37.5499 16.25 37.5499 16.35C37.5499 16.4333 37.5582 16.525 37.5749 16.625C37.5749 16.675 37.5666 16.725 37.5499 16.775C37.5499 16.825 37.5416 16.875 37.5249 16.925C37.4916 16.9917 37.4499 17.0667 37.3999 17.15C37.3666 17.2333 37.3166 17.3083 37.2499 17.375C37.2166 17.4083 37.1832 17.4417 37.1499 17.475C37.1332 17.5083 37.1082 17.5417 37.0749 17.575C37.0082 17.6417 36.9332 17.7 36.8499 17.75C36.7666 17.8 36.6749 17.825 36.5749 17.825C36.5082 17.825 36.4582 17.8333 36.4249 17.85C36.3582 17.8833 36.2916 17.9 36.2249 17.9C36.1582 17.9 36.0832 17.9 35.9999 17.9C35.8832 17.9167 35.7666 17.9333 35.6499 17.95C35.5499 17.95 35.4416 17.9417 35.3249 17.925C35.2582 17.9083 35.1999 17.9083 35.1499 17.925C34.9832 17.975 34.8166 17.9833 34.6499 17.95C34.4832 17.95 34.3166 17.9583 34.1499 17.975C33.9999 17.975 33.8499 17.975 33.6999 17.975H33.3749C33.3249 17.975 33.2832 17.9833 33.2499 18C33.1832 18.0333 33.0999 18.05 32.9999 18.05C32.9166 18.05 32.8332 18.0417 32.7499 18.025H32.4999C32.4832 18.025 32.4582 18.025 32.4249 18.025C32.3916 18.0417 32.3582 18.0417 32.3249 18.025C32.2749 18.0083 32.2249 18 32.1749 18C32.1416 18.0167 32.0999 18.0333 32.0499 18.05C32.0166 18.05 31.9832 18.05 31.9499 18.05C31.9332 18.0667 31.9082 18.075 31.8749 18.075C31.7082 18.0583 31.5499 18.0583 31.3999 18.075C31.2499 18.1083 31.0916 18.1417 30.9249 18.175ZM56.964 19.225L56.539 19.15C56.3223 19.1167 56.0973 19.0833 55.864 19.05C55.6473 19.0167 55.4223 18.9917 55.189 18.975C54.9556 18.975 54.7223 18.9083 54.489 18.775C54.2723 18.6583 54.1223 18.475 54.039 18.225C54.0223 18.1417 53.9973 18.0583 53.964 17.975C53.9473 17.8917 53.9306 17.8083 53.914 17.725C53.914 17.525 53.9556 17.375 54.039 17.275C54.1223 17.1917 54.189 17.1083 54.239 17.025C54.3056 16.9417 54.3723 16.8667 54.439 16.8C54.4723 16.7667 54.5056 16.7417 54.539 16.725C54.5723 16.7083 54.6056 16.6917 54.639 16.675C54.7223 16.625 54.8056 16.5917 54.889 16.575C54.9723 16.5417 55.0556 16.5167 55.139 16.5C55.1723 16.4833 55.1973 16.4833 55.214 16.5C55.2473 16.5 55.2723 16.5 55.289 16.5C55.3723 16.5167 55.464 16.5333 55.564 16.55C55.664 16.55 55.7556 16.5667 55.839 16.6L56.889 16.75C57.1223 16.7833 57.3306 16.75 57.514 16.65C57.5806 16.6167 57.639 16.5833 57.689 16.55C57.7556 16.5167 57.814 16.4833 57.864 16.45C58.2306 16.2333 58.5473 16.0083 58.814 15.775C59.014 15.5917 59.2056 15.4083 59.389 15.225C59.5723 15.0417 59.739 14.8417 59.889 14.625C60.0056 14.475 60.0806 14.325 60.114 14.175C60.1473 14.0083 60.1556 13.8417 60.139 13.675L60.064 13.475C60.0473 13.3917 60.014 13.325 59.964 13.275C59.914 13.225 59.864 13.1667 59.814 13.1C59.714 13.0167 59.614 12.925 59.514 12.825C59.4306 12.725 59.339 12.6417 59.239 12.575C58.989 12.375 58.739 12.1833 58.489 12C58.2556 11.8167 58.014 11.6333 57.764 11.45C57.7473 11.4167 57.6973 11.3833 57.614 11.35C57.464 11.25 57.314 11.1417 57.164 11.025C57.0306 10.8917 56.8973 10.7667 56.764 10.65C56.5973 10.4833 56.414 10.325 56.214 10.175C56.114 10.125 56.0223 10.0417 55.939 9.925C55.8723 9.84167 55.7723 9.75833 55.639 9.675C55.5223 9.60833 55.414 9.53333 55.314 9.45C55.214 9.35 55.114 9.25833 55.014 9.175L54.689 8.875C54.6223 8.79167 54.5473 8.71667 54.464 8.65C54.3973 8.56667 54.3223 8.48333 54.239 8.4C54.2056 8.31667 54.1556 8.25 54.089 8.2C54.039 8.15 53.989 8.09167 53.939 8.025C53.9223 7.99167 53.8973 7.95833 53.864 7.925C53.8306 7.875 53.8056 7.825 53.789 7.775C53.689 7.575 53.5806 7.375 53.464 7.175C53.364 6.975 53.2723 6.76667 53.189 6.55C53.139 6.41667 53.089 6.29167 53.039 6.175C53.0056 6.04167 52.9723 5.91667 52.939 5.8C52.9223 5.66667 52.889 5.55 52.839 5.45C52.8056 5.33333 52.7723 5.21667 52.739 5.1C52.7056 4.91667 52.664 4.74167 52.614 4.575C52.5806 4.39167 52.5473 4.21667 52.514 4.05L52.464 3.85C52.4473 3.66667 52.4473 3.49167 52.464 3.325C52.4973 3.09167 52.5473 2.88333 52.614 2.7C52.6806 2.5 52.789 2.34167 52.939 2.225C53.1056 2.09167 53.2723 1.95833 53.439 1.825C53.6056 1.69167 53.7806 1.58333 53.964 1.5C53.9973 1.5 54.0223 1.49167 54.039 1.475C54.2056 1.34167 54.389 1.25 54.589 1.2C54.789 1.13333 54.989 1.075 55.189 1.025C55.989 0.791666 56.814 0.616666 57.664 0.499999H57.914C58.0806 0.499999 58.239 0.499999 58.389 0.499999C58.539 0.499999 58.6973 0.491666 58.864 0.474999C59.064 0.474999 59.264 0.499999 59.464 0.55C59.664 0.583333 59.8556 0.641666 60.039 0.724999C60.1723 0.791666 60.3056 0.866666 60.439 0.949999C60.5723 1.01667 60.6973 1.09167 60.814 1.175C60.9473 1.275 61.0306 1.38333 61.064 1.5L61.139 1.675C61.2223 1.825 61.264 1.98333 61.264 2.15C61.2806 2.3 61.2723 2.45833 61.239 2.625C61.239 2.675 61.2306 2.73333 61.214 2.8C61.214 2.85 61.214 2.9 61.214 2.95C61.164 3.31667 60.989 3.6 60.689 3.8C60.5056 3.96667 60.264 4.03333 59.964 4C59.8973 3.96667 59.864 3.98333 59.864 4.05C59.864 4.11667 59.8223 4.15 59.739 4.15H59.589C59.489 4.15 59.389 4.1 59.289 4C59.2056 3.91667 59.164 3.85 59.164 3.8C59.164 3.73333 59.1973 3.68333 59.264 3.65C59.2306 3.56667 59.1973 3.49167 59.164 3.425C59.1306 3.35833 59.0973 3.30833 59.064 3.275C59.014 3.19167 58.939 3.13333 58.839 3.1C58.7556 3.08333 58.6723 3.06667 58.589 3.05C58.5056 3.03333 58.4223 3.01667 58.339 3C58.2723 3 58.1973 3 58.114 3C58.0306 2.98333 57.9473 2.96667 57.864 2.95C57.814 2.93333 57.739 2.94167 57.639 2.975C57.589 2.99167 57.539 3.00833 57.489 3.025C57.439 3.025 57.3806 3.01667 57.314 3C57.264 3 57.2056 3 57.139 3C57.089 3 57.0306 3.01667 56.964 3.05L56.489 3.125C56.2223 3.175 55.964 3.275 55.714 3.425C55.664 3.44167 55.614 3.45833 55.564 3.475C55.514 3.49167 55.464 3.49167 55.414 3.475C55.314 3.45833 55.2306 3.48333 55.164 3.55C55.1473 3.58333 55.1056 3.60833 55.039 3.625C54.989 3.625 54.9473 3.64167 54.914 3.675C54.8473 3.74167 54.814 3.80833 54.814 3.875C54.8306 3.90833 54.839 3.95833 54.839 4.025L55.364 5.55C55.464 5.81667 55.589 6.06667 55.739 6.3C55.9056 6.51667 56.0806 6.73333 56.264 6.95C56.5473 7.28333 56.839 7.56667 57.139 7.8L57.939 8.475C58.1056 8.625 58.2806 8.76667 58.464 8.9C58.6473 9.03333 58.8223 9.16667 58.989 9.3C59.239 9.48333 59.489 9.675 59.739 9.875C59.989 10.0583 60.239 10.25 60.489 10.45C60.689 10.6167 60.8806 10.7833 61.064 10.95C61.264 11.1 61.4473 11.2667 61.614 11.45C61.7306 11.5833 61.8473 11.7167 61.964 11.85C62.0806 11.9833 62.1806 12.1333 62.264 12.3C62.3806 12.4833 62.4806 12.7 62.564 12.95C62.664 13.2667 62.7056 13.5667 62.689 13.85C62.6723 13.8833 62.664 13.9333 62.664 14C62.664 14.2 62.639 14.3917 62.589 14.575C62.5556 14.7417 62.4973 14.9167 62.414 15.1C62.3306 15.2667 62.239 15.4417 62.139 15.625C62.0556 15.7917 61.9556 15.9583 61.839 16.125C61.6723 16.3417 61.4973 16.55 61.314 16.75C61.1473 16.9333 60.9556 17.1167 60.739 17.3C60.6223 17.4 60.5056 17.5083 60.389 17.625C60.2723 17.725 60.1473 17.8167 60.014 17.9C59.9306 17.9667 59.8473 18.025 59.764 18.075C59.6806 18.1417 59.5973 18.2083 59.514 18.275C59.4473 18.3083 59.3806 18.35 59.314 18.4C59.2473 18.45 59.1806 18.5 59.114 18.55C59.0473 18.6167 58.964 18.6667 58.864 18.7C58.7806 18.75 58.6973 18.7917 58.614 18.825L57.889 19.125C57.739 19.175 57.589 19.2083 57.439 19.225C57.289 19.2417 57.1306 19.2417 56.964 19.225ZM69.0659 17.975C69.0326 17.9583 68.9826 17.95 68.9159 17.95C68.8826 17.95 68.8493 17.925 68.8159 17.875C68.7826 17.825 68.7493 17.7833 68.7159 17.75C68.6826 17.7 68.6493 17.6417 68.6159 17.575C68.5659 17.5083 68.5243 17.5083 68.4909 17.575H68.4409C68.4409 17.5583 68.4326 17.55 68.4159 17.55C68.4159 17.5333 68.4159 17.525 68.4159 17.525C68.3659 17.2917 68.2909 17.075 68.1909 16.875C68.1409 16.7417 68.0909 16.6083 68.0409 16.475C68.0076 16.325 67.9826 16.175 67.9659 16.025L67.8159 14.925L67.7409 14.025V13.975C67.7076 13.775 67.6909 13.575 67.6909 13.375C67.6909 13.1583 67.6909 12.9417 67.6909 12.725C67.6743 12.6083 67.6659 12.5 67.6659 12.4C67.6659 12.2833 67.6576 12.1667 67.6409 12.05C67.6243 11.9167 67.6076 11.7833 67.5909 11.65C67.5909 11.5167 67.5909 11.3917 67.5909 11.275L67.6159 9.3V6.625C67.5826 6.525 67.5326 6.475 67.4659 6.475C67.4326 6.475 67.3909 6.48333 67.3409 6.5C67.3076 6.5 67.2743 6.5 67.2409 6.5L66.1159 6.8C65.9659 6.85 65.8159 6.9 65.6659 6.95C65.5159 6.98333 65.3659 7.025 65.2159 7.075C65.0993 7.09167 64.9826 7.10833 64.8659 7.125C64.7659 7.125 64.6576 7.125 64.5409 7.125C64.4576 7.125 64.3659 7.09167 64.2659 7.025C64.1493 6.975 64.0493 6.90833 63.9659 6.825C63.8826 6.74167 63.7993 6.65 63.7159 6.55L63.6659 6.475C63.6326 6.35833 63.5993 6.25 63.5659 6.15C63.5493 6.03333 63.5493 5.91667 63.5659 5.8C63.5826 5.65 63.6159 5.50833 63.6659 5.375C63.7326 5.24167 63.8243 5.125 63.9409 5.025C63.9909 4.99167 64.0326 4.95 64.0659 4.9C64.1159 4.85 64.1659 4.8 64.2159 4.75C64.2826 4.71667 64.3243 4.7 64.3409 4.7C64.4409 4.7 64.5326 4.68333 64.6159 4.65C64.6993 4.6 64.7826 4.56667 64.8659 4.55C64.9493 4.53333 65.0326 4.51667 65.1159 4.5C65.1993 4.48333 65.2826 4.46667 65.3659 4.45C65.5993 4.38333 65.8326 4.325 66.0659 4.275C66.2993 4.20833 66.5326 4.15833 66.7659 4.125L68.1159 3.9C68.1493 3.88333 68.1743 3.875 68.1909 3.875C68.2243 3.875 68.2493 3.86667 68.2659 3.85C68.3659 3.81667 68.4659 3.79167 68.5659 3.775C68.6659 3.75833 68.7659 3.76667 68.8659 3.8C68.8993 3.81667 68.9243 3.825 68.9409 3.825C68.9743 3.80833 68.9993 3.8 69.0159 3.8C69.2993 3.76667 69.5826 3.73333 69.8659 3.7C70.1493 3.66667 70.4243 3.625 70.6909 3.575C70.9076 3.54167 71.1243 3.50833 71.3409 3.475C71.5576 3.44167 71.7743 3.41667 71.9909 3.4C72.1576 3.36667 72.3243 3.34167 72.4909 3.325C72.6576 3.30833 72.8243 3.29167 72.9909 3.275C73.1243 3.25833 73.2576 3.24167 73.3909 3.225C73.5409 3.20833 73.6826 3.19167 73.8159 3.175C73.9493 3.15833 74.0743 3.15833 74.1909 3.175C74.3243 3.175 74.4576 3.175 74.5909 3.175C74.6743 3.175 74.7493 3.2 74.8159 3.25C74.8993 3.3 74.9743 3.34167 75.0409 3.375C75.1076 3.425 75.1993 3.50833 75.3159 3.625C75.3493 3.65833 75.3826 3.73333 75.4159 3.85C75.4326 3.9 75.4493 3.95833 75.4659 4.025C75.4826 4.075 75.4993 4.13333 75.5159 4.2C75.5493 4.35 75.5326 4.49167 75.4659 4.625L75.3159 4.975C75.2993 5.025 75.2743 5.075 75.2409 5.125C75.2243 5.15833 75.1993 5.19167 75.1659 5.225C75.1326 5.25833 75.1159 5.275 75.1159 5.275C75.0493 5.325 74.9743 5.375 74.8909 5.425C74.8243 5.475 74.7409 5.50833 74.6409 5.525L73.5659 5.6C73.4659 5.6 73.3659 5.60833 73.2659 5.625C73.1659 5.625 73.0576 5.63333 72.9409 5.65H72.8159C72.5493 5.66667 72.2909 5.69167 72.0409 5.725C71.7909 5.75833 71.5409 5.79167 71.2909 5.825L70.2909 5.975C70.2409 5.975 70.2076 5.98333 70.1909 6C70.1243 6 70.0743 6.05 70.0409 6.15V6.225C70.0409 6.39167 70.0409 6.55833 70.0409 6.725C70.0409 6.875 70.0493 7.03333 70.0659 7.2C70.1159 7.43333 70.1159 7.66667 70.0659 7.9C70.0493 7.95 70.0326 8 70.0159 8.05C70.0159 8.08333 70.0159 8.11667 70.0159 8.15C70.0326 8.35 70.0159 8.56667 69.9659 8.8C69.9659 8.85 69.9659 8.9 69.9659 8.95C69.9659 9 69.9743 9.05 69.9909 9.1C70.0076 9.16667 70.0159 9.24167 70.0159 9.325C70.0159 9.40833 70.0159 9.49167 70.0159 9.575V10.875C70.0159 10.9417 70.0076 11.025 69.9909 11.125C69.9909 11.2083 69.9909 11.2917 69.9909 11.375C69.9909 11.4417 69.9909 11.5167 69.9909 11.6C70.0076 11.6833 70.0159 11.7667 70.0159 11.85C70.0159 11.9667 70.0159 12.0833 70.0159 12.2C70.0326 12.3167 70.0326 12.4417 70.0159 12.575V13.35C70.0159 13.3667 70.0076 13.3833 69.9909 13.4C69.9909 13.4167 69.9993 13.4417 70.0159 13.475C70.0326 13.625 70.0409 13.7833 70.0409 13.95C70.0409 14.1 70.0576 14.25 70.0909 14.4C70.0909 14.45 70.0909 14.5 70.0909 14.55C70.1076 14.6 70.1076 14.65 70.0909 14.7C70.0909 14.85 70.1076 15.0083 70.1409 15.175C70.1743 15.325 70.1993 15.475 70.2159 15.625C70.2493 15.8083 70.2826 15.9917 70.3159 16.175C70.3659 16.3583 70.4076 16.5417 70.4409 16.725L70.5159 17.075C70.5159 17.125 70.4909 17.1667 70.4409 17.2C70.4409 17.2 70.4326 17.2 70.4159 17.2C70.4159 17.2 70.4076 17.2083 70.3909 17.225C70.3076 17.2583 70.2743 17.3083 70.2909 17.375V17.5C70.2909 17.5 70.2826 17.5083 70.2659 17.525C70.2659 17.5417 70.2576 17.55 70.2409 17.55C70.1576 17.55 70.0909 17.5833 70.0409 17.65C69.9909 17.7167 69.9326 17.775 69.8659 17.825C69.8159 17.8583 69.7493 17.8917 69.6659 17.925C69.4493 18.0083 69.2493 18.025 69.0659 17.975ZM79.6116 18.5C79.295 18.5333 79.0366 18.4333 78.8366 18.2C78.7366 18.1 78.645 17.9917 78.5616 17.875C78.4783 17.7583 78.4116 17.6333 78.3616 17.5C78.2783 17.2667 78.2033 17.0333 78.1366 16.8C78.07 16.55 78.0116 16.3083 77.9616 16.075C77.9116 15.8917 77.8866 15.7167 77.8866 15.55C77.87 15.3667 77.845 15.1917 77.8116 15.025C77.795 14.8417 77.7866 14.6583 77.7866 14.475C77.7866 14.375 77.7866 14.275 77.7866 14.175C77.7866 14.0583 77.7783 13.95 77.7616 13.85C77.745 13.7833 77.7366 13.725 77.7366 13.675C77.7366 13.625 77.7366 13.5667 77.7366 13.5C77.7366 13.2667 77.7366 13.0333 77.7366 12.8C77.7366 12.55 77.7283 12.3083 77.7116 12.075C77.7116 11.9417 77.7033 11.825 77.6866 11.725C77.67 11.6083 77.6366 11.4917 77.5866 11.375C77.52 11.1917 77.5116 10.9917 77.5616 10.775C77.5616 10.725 77.57 10.6917 77.5866 10.675C77.62 10.5583 77.6366 10.4417 77.6366 10.325C77.6533 10.2083 77.6533 10.0917 77.6366 9.975C77.62 9.89167 77.6116 9.80833 77.6116 9.725C77.6116 9.64167 77.6116 9.56667 77.6116 9.5C77.595 9.31667 77.5866 9.13333 77.5866 8.95C77.6033 8.75 77.62 8.55833 77.6366 8.375C77.6533 8.325 77.6616 8.275 77.6616 8.225C77.6616 8.175 77.6616 8.125 77.6616 8.075C77.645 7.89167 77.645 7.71667 77.6616 7.55C77.695 7.38333 77.72 7.21667 77.7366 7.05C77.77 6.85 77.8033 6.65833 77.8366 6.475C77.87 6.275 77.9116 6.075 77.9616 5.875C77.995 5.79167 78.0116 5.7 78.0116 5.6C78.0116 5.5 78.0116 5.4 78.0116 5.3C78.0116 5.21667 78.0033 5.13333 77.9866 5.05C77.9866 4.96667 77.9866 4.89167 77.9866 4.825C77.9866 4.775 77.9866 4.725 77.9866 4.675C77.9866 4.625 77.995 4.575 78.0116 4.525C78.0283 4.475 78.0366 4.425 78.0366 4.375C78.0366 4.325 78.045 4.29167 78.0616 4.275C78.1116 4.20833 78.1533 4.15 78.1866 4.1C78.22 4.03333 78.27 3.975 78.3366 3.925C78.42 3.875 78.495 3.825 78.5616 3.775C78.645 3.725 78.72 3.68333 78.7866 3.65C78.87 3.61667 78.9366 3.575 78.9866 3.525C79.0533 3.44167 79.12 3.36667 79.1866 3.3C79.27 3.21667 79.3366 3.125 79.3866 3.025C79.47 2.94167 79.5533 2.85 79.6366 2.75C79.7366 2.63333 79.845 2.54167 79.9616 2.475C79.995 2.45833 80.045 2.41667 80.1116 2.35C80.3116 2.16667 80.545 2.05 80.8116 2C80.8616 1.98333 80.9033 1.975 80.9366 1.975C80.9866 1.95833 81.0366 1.95 81.0866 1.95L81.2616 1.875C81.395 1.825 81.5116 1.85 81.6116 1.95C81.645 2 81.6866 2.05 81.7366 2.1C81.8033 2.13333 81.8616 2.16667 81.9116 2.2C82.045 2.31667 82.17 2.44167 82.2866 2.575C82.42 2.70833 82.5366 2.85833 82.6366 3.025C82.8033 3.29167 82.945 3.55833 83.0616 3.825C83.195 4.09167 83.32 4.36667 83.4366 4.65L83.8866 5.725C83.9033 5.825 83.945 5.91667 84.0116 6C84.145 6.25 84.245 6.50833 84.3116 6.775C84.3783 7.025 84.445 7.28333 84.5116 7.55C84.5283 7.58333 84.5366 7.61667 84.5366 7.65C84.5533 7.68333 84.5616 7.71667 84.5616 7.75C84.595 7.88333 84.62 8.025 84.6366 8.175C84.67 8.30833 84.6783 8.44167 84.6616 8.575C84.6783 8.725 84.67 8.875 84.6366 9.025C84.62 9.15833 84.595 9.29167 84.5616 9.425C84.5116 9.59167 84.4533 9.75 84.3866 9.9C84.32 10.0333 84.245 10.175 84.1616 10.325C84.1283 10.425 84.07 10.5167 83.9866 10.6C83.9033 10.6833 83.82 10.7583 83.7366 10.825C83.6033 10.8917 83.47 10.9917 83.3366 11.125C83.3033 11.1583 83.2616 11.1833 83.2116 11.2C83.1783 11.2167 83.145 11.2417 83.1116 11.275C82.995 11.325 82.87 11.3833 82.7366 11.45C82.6033 11.5 82.47 11.55 82.3366 11.6C82.32 11.6 82.3116 11.6167 82.3116 11.65C82.3116 11.6667 82.32 11.6833 82.3366 11.7L83.0116 12.175C83.095 12.225 83.17 12.275 83.2366 12.325C83.3033 12.3583 83.37 12.4 83.4366 12.45L83.5866 12.525C83.7866 12.6417 83.9866 12.7667 84.1866 12.9C84.3866 13.0333 84.5783 13.1667 84.7616 13.3C85.1116 13.5167 85.4616 13.7417 85.8116 13.975C86.1616 14.1917 86.495 14.4333 86.8116 14.7C87.095 14.9167 87.345 15.1667 87.5616 15.45C87.6116 15.5 87.6616 15.5583 87.7116 15.625C87.7616 15.675 87.82 15.7167 87.8866 15.75L87.9616 15.825C88.2283 16.0583 88.3783 16.375 88.4116 16.775C88.4116 16.825 88.4033 16.875 88.3866 16.925C88.3866 16.975 88.3866 17.025 88.3866 17.075C88.3866 17.175 88.3533 17.2583 88.2866 17.325C88.22 17.3583 88.1866 17.4 88.1866 17.45C88.1366 17.5667 88.0616 17.65 87.9616 17.7C87.8783 17.7333 87.795 17.7833 87.7116 17.85C87.6783 17.8667 87.62 17.875 87.5366 17.875C87.4366 17.8583 87.3283 17.8417 87.2116 17.825C87.1116 17.8083 87.0116 17.8 86.9116 17.8C86.7783 17.8 86.6366 17.7417 86.4866 17.625C86.3866 17.5417 86.295 17.4667 86.2116 17.4C86.1283 17.3167 86.045 17.2167 85.9616 17.1C85.745 16.8 85.4616 16.525 85.1116 16.275C84.945 16.1417 84.7866 16.0167 84.6366 15.9C84.4866 15.7833 84.32 15.675 84.1366 15.575C84.02 15.5083 83.9033 15.4417 83.7866 15.375C83.6866 15.2917 83.57 15.2167 83.4366 15.15C83.02 14.8667 82.595 14.5917 82.1616 14.325C81.7283 14.0417 81.295 13.7583 80.8616 13.475C80.795 13.425 80.72 13.375 80.6366 13.325C80.5533 13.275 80.47 13.225 80.3866 13.175C80.3533 13.1417 80.3033 13.1083 80.2366 13.075C80.17 13.075 80.1366 13.1 80.1366 13.15C80.1366 13.1667 80.1283 13.1833 80.1116 13.2C80.1116 13.2 80.1116 13.2083 80.1116 13.225C80.1116 13.275 80.1116 13.325 80.1116 13.375C80.1116 13.425 80.12 13.475 80.1366 13.525C80.1533 13.6583 80.1616 13.7917 80.1616 13.925C80.1616 14.0417 80.1616 14.1667 80.1616 14.3C80.1616 14.4 80.1616 14.5 80.1616 14.6C80.1783 14.6833 80.195 14.775 80.2116 14.875C80.2116 14.925 80.2116 14.9833 80.2116 15.05C80.2283 15.1 80.2366 15.15 80.2366 15.2C80.22 15.35 80.2283 15.5 80.2616 15.65C80.295 15.8 80.32 15.95 80.3366 16.1L80.4866 16.75C80.5033 16.8167 80.52 16.8917 80.5366 16.975C80.5533 17.0417 80.57 17.1167 80.5866 17.2C80.6033 17.2667 80.6033 17.3333 80.5866 17.4C80.5866 17.45 80.5783 17.5083 80.5616 17.575C80.5616 17.5917 80.545 17.6167 80.5116 17.65C80.4283 17.6667 80.37 17.725 80.3366 17.825C80.2866 17.9417 80.2116 18.0417 80.1116 18.125C80.0283 18.225 79.9366 18.3167 79.8366 18.4C79.82 18.4167 79.7866 18.4333 79.7366 18.45C79.6866 18.4667 79.645 18.4833 79.6116 18.5ZM80.5866 9.75H80.6366C80.82 9.71667 81.0033 9.68333 81.1866 9.65C81.3866 9.6 81.5783 9.54167 81.7616 9.475C81.945 9.425 82.1033 9.33333 82.2366 9.2C82.3533 9.08333 82.4116 8.95 82.4116 8.8C82.4283 8.68333 82.4283 8.575 82.4116 8.475C82.4116 8.35833 82.395 8.24167 82.3616 8.125C82.295 7.825 82.22 7.53333 82.1366 7.25C82.0533 6.95 81.9533 6.66667 81.8366 6.4L81.6116 5.8C81.5616 5.63333 81.5033 5.475 81.4366 5.325C81.37 5.15833 81.295 5 81.2116 4.85C81.195 4.81667 81.1783 4.78333 81.1616 4.75C81.145 4.7 81.1283 4.65833 81.1116 4.625L81.0116 4.525C80.9616 4.45833 80.9033 4.45833 80.8366 4.525C80.82 4.525 80.795 4.54167 80.7616 4.575C80.645 4.725 80.5366 4.88333 80.4366 5.05C80.3533 5.21667 80.3033 5.4 80.2866 5.6C80.27 5.66667 80.2533 5.73333 80.2366 5.8C80.2366 5.86667 80.2366 5.94167 80.2366 6.025V7.1C80.22 7.33333 80.2116 7.575 80.2116 7.825C80.2283 8.075 80.22 8.31667 80.1866 8.55C80.17 8.6 80.1616 8.65 80.1616 8.7C80.1783 8.75 80.1866 8.8 80.1866 8.85C80.2033 8.95 80.2116 9.05 80.2116 9.15C80.2116 9.23333 80.2116 9.325 80.2116 9.425C80.2116 9.59167 80.2283 9.69167 80.2616 9.725C80.3116 9.75833 80.42 9.76667 80.5866 9.75ZM94.414 18.25C94.3973 18.2333 94.3723 18.225 94.339 18.225C94.1723 18.125 94.0056 18.0333 93.839 17.95C93.689 17.85 93.5473 17.7417 93.414 17.625C93.3473 17.5917 93.3056 17.5583 93.289 17.525C93.139 17.4417 93.0056 17.3417 92.889 17.225C92.7723 17.0917 92.664 16.95 92.564 16.8C92.5306 16.7667 92.4973 16.725 92.464 16.675C92.4306 16.625 92.389 16.575 92.339 16.525C92.1723 16.3583 92.039 16.1583 91.939 15.925C91.9223 15.875 91.8973 15.825 91.864 15.775C91.8306 15.725 91.7973 15.675 91.764 15.625C91.664 15.4917 91.589 15.3667 91.539 15.25C91.5056 15.1167 91.4556 14.9917 91.389 14.875C91.3223 14.7417 91.2556 14.6167 91.189 14.5C91.1723 14.4333 91.1473 14.3667 91.114 14.3C91.0806 14.2333 91.0556 14.1667 91.039 14.1C91.039 14.0167 91.014 13.925 90.964 13.825C90.8973 13.6417 90.8306 13.4583 90.764 13.275C90.714 13.075 90.664 12.875 90.614 12.675C90.5806 12.6083 90.564 12.5583 90.564 12.525C90.464 12.3083 90.389 12.0833 90.339 11.85C90.289 11.6167 90.239 11.3917 90.189 11.175L90.039 10.05C90.0223 10.0167 90.014 9.975 90.014 9.925C90.014 9.875 90.014 9.83333 90.014 9.8C90.014 9.7 90.014 9.60833 90.014 9.525C90.014 9.425 89.9973 9.325 89.964 9.225C89.9306 9.00833 89.939 8.80833 89.989 8.625C89.989 8.55833 89.989 8.5 89.989 8.45C90.0056 8.38333 90.014 8.31667 90.014 8.25C90.014 8.16667 90.014 8.08333 90.014 8C90.0306 7.9 90.0473 7.81667 90.064 7.75C90.0806 7.7 90.089 7.63333 90.089 7.55C90.1223 7.4 90.139 7.25833 90.139 7.125C90.1556 6.975 90.1723 6.83333 90.189 6.7C90.239 6.46667 90.264 6.24167 90.264 6.025C90.264 5.95833 90.264 5.9 90.264 5.85C90.2806 5.78333 90.2973 5.71667 90.314 5.65C90.314 5.5 90.3056 5.39167 90.289 5.325C90.239 5.25833 90.2306 5.16667 90.264 5.05C90.2973 4.98333 90.314 4.93333 90.314 4.9C90.3306 4.86667 90.339 4.83333 90.339 4.8C90.339 4.75 90.364 4.71667 90.414 4.7H90.589C90.6556 4.7 90.6973 4.675 90.714 4.625C90.7306 4.55833 90.789 4.50833 90.889 4.475C90.9723 4.44167 91.0473 4.41667 91.114 4.4C91.1806 4.36667 91.2473 4.325 91.314 4.275C91.364 4.24167 91.4223 4.225 91.489 4.225C91.5556 4.225 91.6223 4.23333 91.689 4.25L92.139 4.4C92.1556 4.41667 92.164 4.425 92.164 4.425C92.1806 4.425 92.1973 4.43333 92.214 4.45C92.3473 4.58333 92.4556 4.73333 92.539 4.9C92.639 5.06667 92.6973 5.25 92.714 5.45C92.714 5.51667 92.714 5.58333 92.714 5.65C92.714 5.7 92.6973 5.75833 92.664 5.825C92.6473 5.925 92.6306 6.025 92.614 6.125C92.5973 6.225 92.5806 6.33333 92.564 6.45C92.5306 6.61667 92.5056 6.78333 92.489 6.95C92.489 7.1 92.489 7.25833 92.489 7.425C92.4723 7.49167 92.464 7.55833 92.464 7.625C92.464 7.675 92.4556 7.73333 92.439 7.8C92.4223 8 92.414 8.2 92.414 8.4C92.414 8.6 92.4306 8.79167 92.464 8.975C92.464 8.99167 92.464 9.01667 92.464 9.05C92.4806 9.08333 92.4806 9.11667 92.464 9.15C92.464 9.31667 92.4806 9.49167 92.514 9.675C92.5473 9.85833 92.5723 10.0417 92.589 10.225C92.6056 10.3917 92.6223 10.55 92.639 10.7C92.6556 10.85 92.6806 11 92.714 11.15C92.7473 11.2167 92.764 11.2833 92.764 11.35C92.7806 11.4167 92.7973 11.4833 92.814 11.55C92.8806 11.8667 92.9556 12.175 93.039 12.475C93.1223 12.775 93.2306 13.075 93.364 13.375C93.4473 13.5583 93.5306 13.7167 93.614 13.85C93.7473 14.0833 93.864 14.3167 93.964 14.55C94.0306 14.6667 94.0973 14.7833 94.164 14.9C94.2306 15 94.2973 15.1083 94.364 15.225C94.4306 15.3083 94.4973 15.3833 94.564 15.45C94.6306 15.5167 94.6973 15.5917 94.764 15.675C94.8473 15.7583 94.9556 15.7833 95.089 15.75C95.1723 15.7167 95.2306 15.6833 95.264 15.65C95.3473 15.6 95.4223 15.55 95.489 15.5C95.5723 15.45 95.6473 15.3917 95.714 15.325C95.8973 15.1417 96.064 14.9583 96.214 14.775C96.3806 14.5917 96.5223 14.3917 96.639 14.175C96.739 13.9917 96.839 13.8 96.939 13.6C97.039 13.4 97.1306 13.2 97.214 13C97.314 12.7667 97.4056 12.5333 97.489 12.3C97.589 12.0667 97.6806 11.825 97.764 11.575C97.8306 11.4083 97.8806 11.2417 97.914 11.075C97.964 10.8917 97.9973 10.7167 98.014 10.55C98.0473 10.3667 98.0723 10.1833 98.089 10C98.1223 9.8 98.1306 9.60833 98.114 9.425C98.114 9.375 98.114 9.325 98.114 9.275C98.1306 9.225 98.139 9.175 98.139 9.125C98.1723 9.00833 98.1806 8.9 98.164 8.8C98.164 8.7 98.1556 8.6 98.139 8.5C98.1223 8.21667 98.0973 7.95 98.064 7.7C98.0473 7.43333 98.0306 7.16667 98.014 6.9C98.014 6.76667 98.0056 6.675 97.989 6.625C97.9723 6.475 97.9556 6.325 97.939 6.175C97.939 6.025 97.9223 5.875 97.889 5.725V5.525C97.889 5.35833 97.8806 5.2 97.864 5.05C97.864 4.88333 97.864 4.71667 97.864 4.55C97.864 4.41667 97.8556 4.3 97.839 4.2C97.839 4.08333 97.839 3.96667 97.839 3.85C97.839 3.7 97.864 3.575 97.914 3.475C97.964 3.39167 97.9806 3.325 97.964 3.275C97.914 3.175 97.939 3.1 98.039 3.05C98.1223 2.96667 98.2056 2.9 98.289 2.85C98.389 2.8 98.4973 2.76667 98.614 2.75C98.6473 2.73333 98.6723 2.725 98.689 2.725C98.7223 2.725 98.7473 2.71667 98.764 2.7C98.864 2.61667 98.9973 2.59167 99.164 2.625C99.1973 2.64167 99.2473 2.65 99.314 2.65C99.464 2.68333 99.5723 2.74167 99.639 2.825C99.689 2.875 99.764 2.93333 99.864 3C99.9973 3.06667 100.089 3.15 100.139 3.25C100.189 3.35 100.222 3.45833 100.239 3.575C100.272 3.74167 100.297 3.9 100.314 4.05C100.347 4.2 100.356 4.35833 100.339 4.525V4.75C100.339 4.91667 100.339 5.08333 100.339 5.25C100.356 5.4 100.372 5.55833 100.389 5.725C100.406 5.775 100.414 5.83333 100.414 5.9C100.414 5.95 100.414 6 100.414 6.05C100.414 6.15 100.414 6.25 100.414 6.35C100.431 6.43333 100.447 6.525 100.464 6.625C100.481 6.65833 100.489 6.70833 100.489 6.775C100.472 6.94167 100.472 7.10833 100.489 7.275C100.522 7.425 100.547 7.58333 100.564 7.75C100.581 7.91667 100.589 8.09167 100.589 8.275C100.606 8.45833 100.614 8.64167 100.614 8.825C100.631 8.84167 100.631 8.86667 100.614 8.9C100.614 8.93333 100.614 8.96667 100.614 9C100.564 9.15 100.556 9.325 100.589 9.525C100.622 9.74167 100.614 9.95 100.564 10.15C100.547 10.3 100.531 10.45 100.514 10.6C100.497 10.75 100.472 10.9083 100.439 11.075C100.406 11.3417 100.347 11.6083 100.264 11.875C100.181 12.1417 100.097 12.4083 100.014 12.675C100.014 12.7083 99.989 12.7667 99.939 12.85C99.8723 12.9667 99.814 13.0917 99.764 13.225C99.714 13.3417 99.6723 13.4667 99.639 13.6L99.564 13.775C99.4806 13.9417 99.4056 14.1083 99.339 14.275C99.289 14.425 99.2223 14.5833 99.139 14.75C99.089 14.85 99.039 14.95 98.989 15.05C98.939 15.15 98.8806 15.2417 98.814 15.325C98.7973 15.3583 98.7723 15.3917 98.739 15.425C98.7056 15.5417 98.6556 15.65 98.589 15.75C98.5223 15.85 98.4556 15.95 98.389 16.05C98.2056 16.3333 97.989 16.6 97.739 16.85C97.5056 17.1 97.2473 17.3333 96.964 17.55L96.664 17.725C96.4306 17.8417 96.1806 17.9417 95.914 18.025C95.664 18.1083 95.4056 18.1667 95.139 18.2C95.0556 18.2167 94.964 18.2167 94.864 18.2C94.814 18.2 94.764 18.2 94.714 18.2C94.664 18.2 94.614 18.2167 94.564 18.25H94.414ZM108.226 17.975C108.193 17.9583 108.143 17.95 108.076 17.95C108.043 17.95 108.009 17.925 107.976 17.875C107.943 17.825 107.909 17.7833 107.876 17.75C107.843 17.7 107.809 17.6417 107.776 17.575C107.726 17.5083 107.684 17.5083 107.651 17.575H107.601C107.601 17.5583 107.593 17.55 107.576 17.55C107.576 17.5333 107.576 17.525 107.576 17.525C107.526 17.2917 107.451 17.075 107.351 16.875C107.301 16.7417 107.251 16.6083 107.201 16.475C107.168 16.325 107.143 16.175 107.126 16.025L106.976 14.925L106.901 14.025V13.975C106.868 13.775 106.851 13.575 106.851 13.375C106.851 13.1583 106.851 12.9417 106.851 12.725C106.834 12.6083 106.826 12.5 106.826 12.4C106.826 12.2833 106.818 12.1667 106.801 12.05C106.784 11.9167 106.768 11.7833 106.751 11.65C106.751 11.5167 106.751 11.3917 106.751 11.275L106.776 9.3V6.625C106.743 6.525 106.693 6.475 106.626 6.475C106.593 6.475 106.551 6.48333 106.501 6.5C106.468 6.5 106.434 6.5 106.401 6.5L105.276 6.8C105.126 6.85 104.976 6.9 104.826 6.95C104.676 6.98333 104.526 7.025 104.376 7.075C104.259 7.09167 104.143 7.10833 104.026 7.125C103.926 7.125 103.818 7.125 103.701 7.125C103.618 7.125 103.526 7.09167 103.426 7.025C103.309 6.975 103.209 6.90833 103.126 6.825C103.043 6.74167 102.959 6.65 102.876 6.55L102.826 6.475C102.793 6.35833 102.759 6.25 102.726 6.15C102.709 6.03333 102.709 5.91667 102.726 5.8C102.743 5.65 102.776 5.50833 102.826 5.375C102.893 5.24167 102.984 5.125 103.101 5.025C103.151 4.99167 103.193 4.95 103.226 4.9C103.276 4.85 103.326 4.8 103.376 4.75C103.443 4.71667 103.484 4.7 103.501 4.7C103.601 4.7 103.693 4.68333 103.776 4.65C103.859 4.6 103.943 4.56667 104.026 4.55C104.109 4.53333 104.193 4.51667 104.276 4.5C104.359 4.48333 104.443 4.46667 104.526 4.45C104.759 4.38333 104.993 4.325 105.226 4.275C105.459 4.20833 105.693 4.15833 105.926 4.125L107.276 3.9C107.309 3.88333 107.334 3.875 107.351 3.875C107.384 3.875 107.409 3.86667 107.426 3.85C107.526 3.81667 107.626 3.79167 107.726 3.775C107.826 3.75833 107.926 3.76667 108.026 3.8C108.059 3.81667 108.084 3.825 108.101 3.825C108.134 3.80833 108.159 3.8 108.176 3.8C108.459 3.76667 108.743 3.73333 109.026 3.7C109.309 3.66667 109.584 3.625 109.851 3.575C110.068 3.54167 110.284 3.50833 110.501 3.475C110.718 3.44167 110.934 3.41667 111.151 3.4C111.318 3.36667 111.484 3.34167 111.651 3.325C111.818 3.30833 111.984 3.29167 112.151 3.275C112.284 3.25833 112.418 3.24167 112.551 3.225C112.701 3.20833 112.843 3.19167 112.976 3.175C113.109 3.15833 113.234 3.15833 113.351 3.175C113.484 3.175 113.618 3.175 113.751 3.175C113.834 3.175 113.909 3.2 113.976 3.25C114.059 3.3 114.134 3.34167 114.201 3.375C114.268 3.425 114.359 3.50833 114.476 3.625C114.509 3.65833 114.543 3.73333 114.576 3.85C114.593 3.9 114.609 3.95833 114.626 4.025C114.643 4.075 114.659 4.13333 114.676 4.2C114.709 4.35 114.693 4.49167 114.626 4.625L114.476 4.975C114.459 5.025 114.434 5.075 114.401 5.125C114.384 5.15833 114.359 5.19167 114.326 5.225C114.293 5.25833 114.276 5.275 114.276 5.275C114.209 5.325 114.134 5.375 114.051 5.425C113.984 5.475 113.901 5.50833 113.801 5.525L112.726 5.6C112.626 5.6 112.526 5.60833 112.426 5.625C112.326 5.625 112.218 5.63333 112.101 5.65H111.976C111.709 5.66667 111.451 5.69167 111.201 5.725C110.951 5.75833 110.701 5.79167 110.451 5.825L109.451 5.975C109.401 5.975 109.368 5.98333 109.351 6C109.284 6 109.234 6.05 109.201 6.15V6.225C109.201 6.39167 109.201 6.55833 109.201 6.725C109.201 6.875 109.209 7.03333 109.226 7.2C109.276 7.43333 109.276 7.66667 109.226 7.9C109.209 7.95 109.193 8 109.176 8.05C109.176 8.08333 109.176 8.11667 109.176 8.15C109.193 8.35 109.176 8.56667 109.126 8.8C109.126 8.85 109.126 8.9 109.126 8.95C109.126 9 109.134 9.05 109.151 9.1C109.168 9.16667 109.176 9.24167 109.176 9.325C109.176 9.40833 109.176 9.49167 109.176 9.575V10.875C109.176 10.9417 109.168 11.025 109.151 11.125C109.151 11.2083 109.151 11.2917 109.151 11.375C109.151 11.4417 109.151 11.5167 109.151 11.6C109.168 11.6833 109.176 11.7667 109.176 11.85C109.176 11.9667 109.176 12.0833 109.176 12.2C109.193 12.3167 109.193 12.4417 109.176 12.575V13.35C109.176 13.3667 109.168 13.3833 109.151 13.4C109.151 13.4167 109.159 13.4417 109.176 13.475C109.193 13.625 109.201 13.7833 109.201 13.95C109.201 14.1 109.218 14.25 109.251 14.4C109.251 14.45 109.251 14.5 109.251 14.55C109.268 14.6 109.268 14.65 109.251 14.7C109.251 14.85 109.268 15.0083 109.301 15.175C109.334 15.325 109.359 15.475 109.376 15.625C109.409 15.8083 109.443 15.9917 109.476 16.175C109.526 16.3583 109.568 16.5417 109.601 16.725L109.676 17.075C109.676 17.125 109.651 17.1667 109.601 17.2C109.601 17.2 109.593 17.2 109.576 17.2C109.576 17.2 109.568 17.2083 109.551 17.225C109.468 17.2583 109.434 17.3083 109.451 17.375V17.5C109.451 17.5 109.443 17.5083 109.426 17.525C109.426 17.5417 109.418 17.55 109.401 17.55C109.318 17.55 109.251 17.5833 109.201 17.65C109.151 17.7167 109.093 17.775 109.026 17.825C108.976 17.8583 108.909 17.8917 108.826 17.925C108.609 18.0083 108.409 18.025 108.226 17.975ZM121.417 19.225L120.992 19.15C120.775 19.1167 120.55 19.0833 120.317 19.05C120.1 19.0167 119.875 18.9917 119.642 18.975C119.409 18.975 119.175 18.9083 118.942 18.775C118.725 18.6583 118.575 18.475 118.492 18.225C118.475 18.1417 118.45 18.0583 118.417 17.975C118.4 17.8917 118.384 17.8083 118.367 17.725C118.367 17.525 118.409 17.375 118.492 17.275C118.575 17.1917 118.642 17.1083 118.692 17.025C118.759 16.9417 118.825 16.8667 118.892 16.8C118.925 16.7667 118.959 16.7417 118.992 16.725C119.025 16.7083 119.059 16.6917 119.092 16.675C119.175 16.625 119.259 16.5917 119.342 16.575C119.425 16.5417 119.509 16.5167 119.592 16.5C119.625 16.4833 119.65 16.4833 119.667 16.5C119.7 16.5 119.725 16.5 119.742 16.5C119.825 16.5167 119.917 16.5333 120.017 16.55C120.117 16.55 120.209 16.5667 120.292 16.6L121.342 16.75C121.575 16.7833 121.784 16.75 121.967 16.65C122.034 16.6167 122.092 16.5833 122.142 16.55C122.209 16.5167 122.267 16.4833 122.317 16.45C122.684 16.2333 123 16.0083 123.267 15.775C123.467 15.5917 123.659 15.4083 123.842 15.225C124.025 15.0417 124.192 14.8417 124.342 14.625C124.459 14.475 124.534 14.325 124.567 14.175C124.6 14.0083 124.609 13.8417 124.592 13.675L124.517 13.475C124.5 13.3917 124.467 13.325 124.417 13.275C124.367 13.225 124.317 13.1667 124.267 13.1C124.167 13.0167 124.067 12.925 123.967 12.825C123.884 12.725 123.792 12.6417 123.692 12.575C123.442 12.375 123.192 12.1833 122.942 12C122.709 11.8167 122.467 11.6333 122.217 11.45C122.2 11.4167 122.15 11.3833 122.067 11.35C121.917 11.25 121.767 11.1417 121.617 11.025C121.484 10.8917 121.35 10.7667 121.217 10.65C121.05 10.4833 120.867 10.325 120.667 10.175C120.567 10.125 120.475 10.0417 120.392 9.925C120.325 9.84167 120.225 9.75833 120.092 9.675C119.975 9.60833 119.867 9.53333 119.767 9.45C119.667 9.35 119.567 9.25833 119.467 9.175L119.142 8.875C119.075 8.79167 119 8.71667 118.917 8.65C118.85 8.56667 118.775 8.48333 118.692 8.4C118.659 8.31667 118.609 8.25 118.542 8.2C118.492 8.15 118.442 8.09167 118.392 8.025C118.375 7.99167 118.35 7.95833 118.317 7.925C118.284 7.875 118.259 7.825 118.242 7.775C118.142 7.575 118.034 7.375 117.917 7.175C117.817 6.975 117.725 6.76667 117.642 6.55C117.592 6.41667 117.542 6.29167 117.492 6.175C117.459 6.04167 117.425 5.91667 117.392 5.8C117.375 5.66667 117.342 5.55 117.292 5.45C117.259 5.33333 117.225 5.21667 117.192 5.1C117.159 4.91667 117.117 4.74167 117.067 4.575C117.034 4.39167 117 4.21667 116.967 4.05L116.917 3.85C116.9 3.66667 116.9 3.49167 116.917 3.325C116.95 3.09167 117 2.88333 117.067 2.7C117.134 2.5 117.242 2.34167 117.392 2.225C117.559 2.09167 117.725 1.95833 117.892 1.825C118.059 1.69167 118.234 1.58333 118.417 1.5C118.45 1.5 118.475 1.49167 118.492 1.475C118.659 1.34167 118.842 1.25 119.042 1.2C119.242 1.13333 119.442 1.075 119.642 1.025C120.442 0.791666 121.267 0.616666 122.117 0.499999H122.367C122.534 0.499999 122.692 0.499999 122.842 0.499999C122.992 0.499999 123.15 0.491666 123.317 0.474999C123.517 0.474999 123.717 0.499999 123.917 0.55C124.117 0.583333 124.309 0.641666 124.492 0.724999C124.625 0.791666 124.759 0.866666 124.892 0.949999C125.025 1.01667 125.15 1.09167 125.267 1.175C125.4 1.275 125.484 1.38333 125.517 1.5L125.592 1.675C125.675 1.825 125.717 1.98333 125.717 2.15C125.734 2.3 125.725 2.45833 125.692 2.625C125.692 2.675 125.684 2.73333 125.667 2.8C125.667 2.85 125.667 2.9 125.667 2.95C125.617 3.31667 125.442 3.6 125.142 3.8C124.959 3.96667 124.717 4.03333 124.417 4C124.35 3.96667 124.317 3.98333 124.317 4.05C124.317 4.11667 124.275 4.15 124.192 4.15H124.042C123.942 4.15 123.842 4.1 123.742 4C123.659 3.91667 123.617 3.85 123.617 3.8C123.617 3.73333 123.65 3.68333 123.717 3.65C123.684 3.56667 123.65 3.49167 123.617 3.425C123.584 3.35833 123.55 3.30833 123.517 3.275C123.467 3.19167 123.392 3.13333 123.292 3.1C123.209 3.08333 123.125 3.06667 123.042 3.05C122.959 3.03333 122.875 3.01667 122.792 3C122.725 3 122.65 3 122.567 3C122.484 2.98333 122.4 2.96667 122.317 2.95C122.267 2.93333 122.192 2.94167 122.092 2.975C122.042 2.99167 121.992 3.00833 121.942 3.025C121.892 3.025 121.834 3.01667 121.767 3C121.717 3 121.659 3 121.592 3C121.542 3 121.484 3.01667 121.417 3.05L120.942 3.125C120.675 3.175 120.417 3.275 120.167 3.425C120.117 3.44167 120.067 3.45833 120.017 3.475C119.967 3.49167 119.917 3.49167 119.867 3.475C119.767 3.45833 119.684 3.48333 119.617 3.55C119.6 3.58333 119.559 3.60833 119.492 3.625C119.442 3.625 119.4 3.64167 119.367 3.675C119.3 3.74167 119.267 3.80833 119.267 3.875C119.284 3.90833 119.292 3.95833 119.292 4.025L119.817 5.55C119.917 5.81667 120.042 6.06667 120.192 6.3C120.359 6.51667 120.534 6.73333 120.717 6.95C121 7.28333 121.292 7.56667 121.592 7.8L122.392 8.475C122.559 8.625 122.734 8.76667 122.917 8.9C123.1 9.03333 123.275 9.16667 123.442 9.3C123.692 9.48333 123.942 9.675 124.192 9.875C124.442 10.0583 124.692 10.25 124.942 10.45C125.142 10.6167 125.334 10.7833 125.517 10.95C125.717 11.1 125.9 11.2667 126.067 11.45C126.184 11.5833 126.3 11.7167 126.417 11.85C126.534 11.9833 126.634 12.1333 126.717 12.3C126.834 12.4833 126.934 12.7 127.017 12.95C127.117 13.2667 127.159 13.5667 127.142 13.85C127.125 13.8833 127.117 13.9333 127.117 14C127.117 14.2 127.092 14.3917 127.042 14.575C127.009 14.7417 126.95 14.9167 126.867 15.1C126.784 15.2667 126.692 15.4417 126.592 15.625C126.509 15.7917 126.409 15.9583 126.292 16.125C126.125 16.3417 125.95 16.55 125.767 16.75C125.6 16.9333 125.409 17.1167 125.192 17.3C125.075 17.4 124.959 17.5083 124.842 17.625C124.725 17.725 124.6 17.8167 124.467 17.9C124.384 17.9667 124.3 18.025 124.217 18.075C124.134 18.1417 124.05 18.2083 123.967 18.275C123.9 18.3083 123.834 18.35 123.767 18.4C123.7 18.45 123.634 18.5 123.567 18.55C123.5 18.6167 123.417 18.6667 123.317 18.7C123.234 18.75 123.15 18.7917 123.067 18.825L122.342 19.125C122.192 19.175 122.042 19.2083 121.892 19.225C121.742 19.2417 121.584 19.2417 121.417 19.225Z" fill="#353535"/>
</svg>
