<svg width="94" height="22" viewBox="0 0 94 22" fill="none" xmlns="http://www.w3.org/2000/svg">
<path d="M8.40596 19.975C8.18929 20.025 7.96429 20.0083 7.73096 19.925C7.66429 19.9083 7.60596 19.8833 7.55596 19.85C7.52262 19.8167 7.48096 19.7833 7.43096 19.75C7.31429 19.6667 7.22262 19.5417 7.15596 19.375L7.05596 19.05C7.05596 19.0167 7.04762 18.9917 7.03096 18.975C7.03096 18.9417 7.03096 18.9167 7.03096 18.9C7.03096 18.6667 7.01429 18.4417 6.98096 18.225C6.94762 17.9917 6.91429 17.7667 6.88096 17.55C6.84762 17.3833 6.81429 17.2167 6.78096 17.05C6.76429 16.8833 6.73929 16.7167 6.70596 16.55C6.70596 16.5167 6.69762 16.4917 6.68096 16.475C6.68096 16.4583 6.68096 16.4417 6.68096 16.425C6.64762 16.225 6.61429 16.025 6.58096 15.825C6.54762 15.625 6.51429 15.4333 6.48096 15.25C6.46429 15.15 6.44762 15.05 6.43096 14.95C6.43096 14.85 6.41429 14.75 6.38096 14.65L6.23096 13.55C6.21429 13.4 6.18929 13.25 6.15596 13.1C6.13929 12.9333 6.11429 12.7667 6.08096 12.6C6.06429 12.4333 6.03929 12.275 6.00596 12.125C5.97262 11.9583 5.93929 11.8 5.90596 11.65L5.53096 10C5.49762 9.81667 5.46429 9.63333 5.43096 9.45C5.39762 9.26667 5.35596 9.09167 5.30596 8.925C5.25596 8.775 5.21429 8.625 5.18096 8.475C5.14762 8.30833 5.09762 8.15 5.03096 8L5.00596 7.9C4.95596 7.68333 4.88929 7.475 4.80596 7.275C4.73929 7.075 4.66429 6.875 4.58096 6.675C4.58096 6.65833 4.57262 6.65 4.55596 6.65C4.55596 6.63333 4.55596 6.625 4.55596 6.625C4.52262 6.525 4.46429 6.49167 4.38096 6.525C4.36429 6.54167 4.33929 6.55 4.30596 6.55C4.23929 6.56667 4.17262 6.59167 4.10596 6.625C4.05596 6.65833 3.99762 6.69167 3.93096 6.725C3.76429 6.775 3.62262 6.85 3.50596 6.95L2.83096 7.425C2.73096 7.475 2.63929 7.54167 2.55596 7.625C2.48929 7.70833 2.42262 7.79167 2.35596 7.875C2.30596 7.94167 2.28096 8.01667 2.28096 8.1L2.20596 8.55C2.18929 8.71667 2.17262 8.89167 2.15596 9.075C2.13929 9.25833 2.12262 9.44167 2.10596 9.625C2.08929 9.79167 2.06429 9.95 2.03096 10.1C2.01429 10.2333 2.00596 10.3833 2.00596 10.55C2.00596 10.6833 1.98096 10.825 1.93096 10.975C1.88096 11.1583 1.75596 11.275 1.55596 11.325C1.40596 11.3417 1.28096 11.2917 1.18096 11.175C1.09762 11.0917 1.03929 10.9667 1.00596 10.8C0.98929 10.6833 0.972624 10.575 0.955957 10.475C0.93929 10.375 0.930957 10.2667 0.930957 10.15V9.4C0.930957 9.25 0.922624 9.10833 0.905957 8.975C0.905957 8.84167 0.91429 8.71667 0.930957 8.6C0.930957 8.31667 0.86429 8.04167 0.730957 7.775L0.355957 7C0.28929 6.86667 0.230957 6.69167 0.180957 6.475C0.130957 6.24167 0.105957 6.05 0.105957 5.9C0.13929 5.51667 0.280957 5.2 0.530957 4.95C0.747624 4.73333 0.997624 4.59167 1.28096 4.525C1.38096 4.49167 1.51429 4.45833 1.68096 4.425L3.00596 4.2C3.13929 4.18333 3.26429 4.16667 3.38096 4.15C3.51429 4.11667 3.63929 4.09167 3.75596 4.075C4.00596 4.04167 4.25596 4.00833 4.50596 3.975C4.77262 3.94167 5.03929 3.91667 5.30596 3.9C5.45596 3.88333 5.60596 3.86667 5.75596 3.85C5.90596 3.83333 6.05596 3.81667 6.20596 3.8H6.30596C6.45596 3.78333 6.59762 3.775 6.73096 3.775C6.88096 3.75833 7.03096 3.74167 7.18096 3.725C7.26429 3.70833 7.34762 3.7 7.43096 3.7C7.51429 3.7 7.58929 3.69167 7.65596 3.675C7.67262 3.65833 7.70596 3.65 7.75596 3.65L8.68096 3.575C8.86429 3.55833 9.03929 3.54167 9.20596 3.525C9.38929 3.50833 9.57262 3.49167 9.75596 3.475C9.90596 3.45833 10.056 3.44167 10.206 3.425C10.356 3.39167 10.506 3.34167 10.656 3.275C10.806 3.20833 10.956 3.19167 11.106 3.225C11.2726 3.24167 11.4226 3.28333 11.556 3.35C11.606 3.36667 11.6476 3.4 11.681 3.45C11.731 3.48333 11.7726 3.51667 11.806 3.55C11.8893 3.63333 11.956 3.73333 12.006 3.85C12.056 3.95 12.106 4.05 12.156 4.15C12.206 4.25 12.206 4.35 12.156 4.45C12.1226 4.51667 12.0976 4.59167 12.081 4.675C12.081 4.74167 12.0726 4.81667 12.056 4.9C12.056 4.98333 12.031 5.05 11.981 5.1C11.9476 5.11667 11.9143 5.14167 11.881 5.175C11.8476 5.20833 11.8143 5.24167 11.781 5.275C11.731 5.29167 11.681 5.34167 11.631 5.425C11.531 5.55833 11.3893 5.625 11.206 5.625C11.1393 5.625 11.0726 5.63333 11.006 5.65C10.956 5.66667 10.8976 5.68333 10.831 5.7C10.681 5.73333 10.581 5.78333 10.531 5.85C10.4476 5.93333 10.356 5.975 10.256 5.975C10.1393 6.00833 10.0476 5.975 9.98096 5.875C9.96429 5.825 9.92262 5.8 9.85596 5.8C9.78929 5.81667 9.71429 5.825 9.63096 5.825C9.56429 5.825 9.49762 5.825 9.43096 5.825C9.36429 5.84167 9.28929 5.85 9.20596 5.85C9.13929 5.85 9.06429 5.85833 8.98096 5.875C8.91429 5.875 8.85596 5.88333 8.80596 5.9C8.75596 5.9 8.69762 5.9 8.63096 5.9C8.46429 5.91667 8.28929 5.93333 8.10596 5.95C7.93929 5.96667 7.76429 5.98333 7.58096 6C7.48096 6 7.40596 6.00833 7.35596 6.025C7.28929 6.05833 7.25596 6.10833 7.25596 6.175C7.23929 6.24167 7.23929 6.325 7.25596 6.425L7.40596 7.2C7.43929 7.35 7.47262 7.50833 7.50596 7.675C7.53929 7.825 7.57262 7.98333 7.60596 8.15L7.68096 8.7C7.68096 8.76667 7.68096 8.83333 7.68096 8.9C7.69762 8.95 7.71429 9.00833 7.73096 9.075C7.76429 9.275 7.79762 9.475 7.83096 9.675C7.88096 9.875 7.91429 10.075 7.93096 10.275L7.95596 10.375C8.02262 10.5917 8.07262 10.8083 8.10596 11.025C8.13929 11.2417 8.17262 11.4667 8.20596 11.7C8.23929 11.85 8.27262 12.0083 8.30596 12.175C8.33929 12.325 8.36429 12.475 8.38096 12.625C8.39762 12.7417 8.41429 12.8583 8.43096 12.975C8.44762 13.075 8.46429 13.1833 8.48096 13.3V13.425C8.49762 13.5583 8.51429 13.6917 8.53096 13.825C8.56429 13.9417 8.58929 14.0667 8.60596 14.2L8.68096 14.95C8.69762 15.0667 8.71429 15.1833 8.73096 15.3C8.74762 15.4167 8.76429 15.5417 8.78096 15.675C8.78096 15.7083 8.78096 15.75 8.78096 15.8C8.79762 15.8333 8.80596 15.8667 8.80596 15.9C8.80596 15.9833 8.81429 16.075 8.83096 16.175C8.84762 16.2583 8.86429 16.35 8.88096 16.45C8.91429 16.6333 8.94762 16.825 8.98096 17.025C9.01429 17.2083 9.04762 17.4 9.08096 17.6C9.09762 17.7167 9.12262 17.8333 9.15596 17.95C9.18929 18.05 9.21429 18.1583 9.23096 18.275C9.24762 18.3583 9.29762 18.4417 9.38096 18.525C9.44762 18.575 9.46429 18.6333 9.43096 18.7C9.38096 18.7667 9.34762 18.8417 9.33096 18.925C9.33096 19.0083 9.32262 19.0917 9.30596 19.175C9.30596 19.2417 9.29762 19.2917 9.28096 19.325C9.28096 19.4083 9.24762 19.4667 9.18096 19.5C9.11429 19.5333 9.04762 19.6 8.98096 19.7C8.89762 19.7833 8.83096 19.8417 8.78096 19.875C8.73096 19.925 8.66429 19.95 8.58096 19.95C8.54762 19.9333 8.48929 19.9417 8.40596 19.975ZM23.8937 20.6C23.7437 20.6167 23.602 20.6167 23.4687 20.6C23.3353 20.5833 23.202 20.5167 23.0687 20.4C23.0353 20.3667 22.9853 20.3333 22.9187 20.3C22.8353 20.25 22.7853 20.1917 22.7687 20.125C22.752 20.0583 22.7187 20.0083 22.6687 19.975C22.6187 19.925 22.5853 19.8667 22.5687 19.8C22.552 19.75 22.5437 19.7 22.5437 19.65C22.5603 19.5833 22.5687 19.525 22.5687 19.475C22.5687 19.425 22.5603 19.375 22.5437 19.325C22.5437 19.275 22.5437 19.225 22.5437 19.175C22.4937 18.925 22.4437 18.675 22.3937 18.425C22.3437 18.1583 22.302 17.9 22.2687 17.65C22.252 17.5333 22.2353 17.4167 22.2187 17.3C22.202 17.1833 22.1853 17.0667 22.1687 16.95C22.152 16.7333 22.127 16.5167 22.0937 16.3C22.077 16.0833 22.052 15.8667 22.0187 15.65C21.9853 15.5167 21.9687 15.4 21.9687 15.3C21.9687 15.1667 21.9603 15.0417 21.9437 14.925C21.927 14.7917 21.9103 14.6667 21.8937 14.55C21.877 14.45 21.8187 14.4 21.7187 14.4L21.5437 14.375C21.4603 14.3583 21.3687 14.35 21.2687 14.35C21.1687 14.35 21.0687 14.3417 20.9687 14.325H20.7187C20.6853 14.3417 20.6353 14.35 20.5687 14.35C20.502 14.35 20.4353 14.35 20.3687 14.35C20.3187 14.3333 20.252 14.3333 20.1687 14.35C20.102 14.35 20.0353 14.3583 19.9687 14.375C19.9187 14.375 19.852 14.3667 19.7687 14.35C19.752 14.3333 19.7187 14.3333 19.6687 14.35C19.6353 14.35 19.602 14.35 19.5687 14.35C19.4853 14.35 19.3937 14.3583 19.2937 14.375C19.2103 14.375 19.127 14.375 19.0437 14.375C18.9937 14.375 18.9437 14.375 18.8937 14.375C18.8437 14.375 18.7937 14.3833 18.7437 14.4C18.627 14.4167 18.5103 14.4333 18.3937 14.45C18.277 14.45 18.1603 14.45 18.0437 14.45C17.877 14.4333 17.7103 14.4333 17.5437 14.45C17.377 14.4667 17.2103 14.4833 17.0437 14.5H16.9687C16.8853 14.5333 16.8437 14.5833 16.8437 14.65C16.8437 14.6667 16.8353 14.6833 16.8187 14.7C16.8187 14.7 16.8187 14.7083 16.8187 14.725C16.8187 14.8083 16.827 14.875 16.8437 14.925C16.8603 15.0417 16.877 15.1667 16.8937 15.3C16.9103 15.4167 16.927 15.5417 16.9437 15.675L17.0187 16.275C17.0353 16.4417 17.0603 16.6083 17.0937 16.775C17.127 16.925 17.152 17.075 17.1687 17.225C17.1853 17.2417 17.1937 17.2667 17.1937 17.3C17.1937 17.3167 17.202 17.3417 17.2187 17.375C17.252 17.4583 17.2687 17.55 17.2687 17.65C17.2687 17.75 17.2687 17.85 17.2687 17.95C17.302 17.9667 17.2937 18 17.2437 18.05C17.227 18.0833 17.2103 18.1167 17.1937 18.15C17.177 18.1833 17.1687 18.2167 17.1687 18.25C17.1187 18.4167 17.0103 18.575 16.8437 18.725C16.677 18.8583 16.5187 18.9333 16.3687 18.95C16.352 18.95 16.3353 18.9583 16.3187 18.975C16.302 18.975 16.277 18.975 16.2437 18.975C16.027 19.025 15.7937 19.0083 15.5437 18.925L15.4687 18.875C15.452 18.8083 15.4187 18.7583 15.3687 18.725C15.3187 18.6917 15.277 18.6583 15.2437 18.625C15.2103 18.575 15.1687 18.5333 15.1187 18.5C15.0853 18.45 15.0603 18.3917 15.0437 18.325C15.0437 18.3083 15.0353 18.3 15.0187 18.3C14.952 18.2167 14.9103 18.125 14.8937 18.025C14.877 17.925 14.8603 17.825 14.8437 17.725L14.7687 17.325C14.752 17.175 14.727 17.025 14.6937 16.875C14.677 16.7083 14.6603 16.5417 14.6437 16.375L14.4937 15.4C14.477 15.2833 14.4603 15.1667 14.4437 15.05C14.427 14.9167 14.4103 14.7917 14.3937 14.675L14.3187 13.875C14.302 13.7083 14.2853 13.5417 14.2687 13.375C14.252 13.2083 14.227 13.0417 14.1937 12.875V12.65C14.1937 12.5167 14.1853 12.3833 14.1687 12.25C14.1687 12.1167 14.1603 11.9917 14.1437 11.875C14.127 11.825 14.1187 11.775 14.1187 11.725C14.1187 11.675 14.1187 11.625 14.1187 11.575C14.1187 11.4917 14.1103 11.4167 14.0937 11.35C14.0937 11.2667 14.0853 11.1833 14.0687 11.1L13.9937 10.575C13.977 10.3917 13.9437 10.2 13.8937 10C13.8603 9.8 13.8103 9.60833 13.7437 9.425C13.7103 9.325 13.6687 9.225 13.6187 9.125C13.5687 9.00833 13.527 8.89167 13.4937 8.775C13.4603 8.64167 13.427 8.55 13.3937 8.5C13.3437 8.33333 13.3437 8.175 13.3937 8.025L13.5437 7.65C13.5603 7.58333 13.6103 7.525 13.6937 7.475C13.727 7.425 13.7687 7.38333 13.8187 7.35C13.8687 7.3 13.9187 7.25833 13.9687 7.225C14.002 7.20833 14.0437 7.2 14.0937 7.2C14.1437 7.21667 14.2103 7.20833 14.2937 7.175L14.3687 7.125C14.5187 7.04167 14.6687 7.04167 14.8187 7.125C14.902 7.15833 14.9853 7.19167 15.0687 7.225C15.1687 7.25833 15.252 7.31667 15.3187 7.4C15.4187 7.41667 15.4853 7.49167 15.5187 7.625L15.7437 8.125C15.877 8.40833 15.9937 8.7 16.0937 9C16.1937 9.3 16.2603 9.61667 16.2937 9.95C16.3103 10.0667 16.327 10.1917 16.3437 10.325C16.377 10.4417 16.402 10.5667 16.4187 10.7V10.9C16.4187 10.9833 16.427 11.0417 16.4437 11.075C16.4603 11.1917 16.4687 11.3167 16.4687 11.45C16.4853 11.5833 16.4937 11.7167 16.4937 11.85V11.9C16.5103 11.9833 16.5603 12.0417 16.6437 12.075C16.6937 12.0917 16.7437 12.1083 16.7937 12.125C16.8437 12.125 16.8937 12.125 16.9437 12.125C17.027 12.1083 17.0937 12.1083 17.1437 12.125C17.2103 12.125 17.277 12.125 17.3437 12.125C17.4603 12.125 17.5687 12.125 17.6687 12.125C17.7687 12.1083 17.877 12.1 17.9937 12.1H18.2937C18.3437 12.1 18.3937 12.1083 18.4437 12.125C18.5103 12.125 18.5687 12.1167 18.6187 12.1C18.652 12.1 18.677 12.1 18.6937 12.1C18.727 12.0833 18.752 12.075 18.7687 12.075C18.9353 12.0917 19.102 12.1 19.2687 12.1C19.4353 12.0833 19.602 12.075 19.7687 12.075C19.9353 12.0917 20.102 12.1 20.2687 12.1C20.4353 12.0833 20.602 12.075 20.7687 12.075C20.902 12.075 21.027 12.0833 21.1437 12.1C21.277 12.1 21.402 12.1 21.5187 12.1C21.6353 12.1 21.6937 12.05 21.6937 11.95C21.6937 11.8667 21.6937 11.775 21.6937 11.675C21.6937 11.575 21.6853 11.4833 21.6687 11.4C21.652 11.2167 21.6353 11.05 21.6187 10.9C21.6187 10.7333 21.6103 10.5667 21.5937 10.4C21.577 10.1667 21.5687 9.94167 21.5687 9.725C21.5853 9.49167 21.577 9.26667 21.5437 9.05C21.527 8.86667 21.5103 8.68333 21.4937 8.5C21.4937 8.31667 21.477 8.14167 21.4437 7.975V7.625C21.4437 7.55833 21.452 7.50833 21.4687 7.475C21.4687 7.44167 21.4687 7.41667 21.4687 7.4C21.4853 7.36667 21.4937 7.34167 21.4937 7.325C21.4937 7.24167 21.477 7.19167 21.4437 7.175L21.3687 7.125C21.2687 7.05833 21.252 6.98333 21.3187 6.9C21.3687 6.83333 21.377 6.75833 21.3437 6.675C21.3437 6.625 21.352 6.59167 21.3687 6.575C21.402 6.525 21.4353 6.475 21.4687 6.425C21.502 6.375 21.527 6.31667 21.5437 6.25C21.5937 6.06667 21.6687 5.98333 21.7687 6C21.8853 6 21.9603 6.01667 21.9937 6.05C22.0103 6.06667 22.027 6.075 22.0437 6.075C22.0603 6.05833 22.0687 6.04167 22.0687 6.025C22.0687 5.925 22.1187 5.86667 22.2187 5.85C22.3187 5.83333 22.3937 5.81667 22.4437 5.8L22.5937 5.7H22.6687C22.752 5.73333 22.8187 5.775 22.8687 5.825C22.9353 5.85833 23.002 5.89167 23.0687 5.925C23.102 5.94167 23.1437 5.975 23.1937 6.025C23.3103 6.175 23.3937 6.36667 23.4437 6.6C23.477 6.76667 23.5103 6.925 23.5437 7.075C23.577 7.225 23.602 7.38333 23.6187 7.55C23.6187 7.58333 23.6187 7.61667 23.6187 7.65C23.6353 7.68333 23.6437 7.71667 23.6437 7.75L23.6687 7.925C23.6687 8.125 23.677 8.325 23.6937 8.525C23.727 8.70833 23.752 8.9 23.7687 9.1C23.7853 9.11667 23.7937 9.15 23.7937 9.2C23.777 9.31667 23.7687 9.43333 23.7687 9.55C23.7853 9.65 23.802 9.76667 23.8187 9.9C23.8353 10.0167 23.8437 10.15 23.8437 10.3C23.8603 10.4333 23.8687 10.5667 23.8687 10.7C23.8687 10.7833 23.8687 10.875 23.8687 10.975C23.8853 11.075 23.902 11.1667 23.9187 11.25C23.9353 11.3333 23.9437 11.4167 23.9437 11.5C23.9437 11.5833 23.9437 11.6667 23.9437 11.75C23.9437 11.8333 23.9437 11.9167 23.9437 12C23.9603 12.0667 23.977 12.1417 23.9937 12.225V12.325C24.0103 12.525 24.027 12.725 24.0437 12.925C24.077 13.1083 24.102 13.3 24.1187 13.5C24.1353 13.5167 24.1437 13.55 24.1437 13.6C24.1437 13.7833 24.1603 13.975 24.1937 14.175C24.227 14.3583 24.252 14.5417 24.2687 14.725L24.3437 15.6C24.3437 15.6167 24.3437 15.65 24.3437 15.7C24.3603 15.7333 24.3687 15.7667 24.3687 15.8C24.3853 15.8333 24.3937 15.9 24.3937 16C24.3937 16.15 24.402 16.3 24.4187 16.45C24.452 16.6 24.477 16.75 24.4937 16.9C24.527 17.0667 24.552 17.2333 24.5687 17.4C24.5853 17.5667 24.6103 17.7417 24.6437 17.925C24.677 18.125 24.7187 18.325 24.7687 18.525C24.8187 18.725 24.8603 18.925 24.8937 19.125C24.9103 19.1917 24.9187 19.2667 24.9187 19.35C24.9353 19.4167 24.9437 19.4917 24.9437 19.575C24.9437 19.6583 24.9187 19.7417 24.8687 19.825C24.852 19.8417 24.8353 19.875 24.8187 19.925C24.8187 19.9583 24.802 19.9917 24.7687 20.025C24.752 20.0417 24.7437 20.0583 24.7437 20.075C24.7437 20.0917 24.7353 20.1 24.7187 20.1C24.652 20.1167 24.5937 20.1583 24.5437 20.225C24.4937 20.2917 24.4353 20.3417 24.3687 20.375C24.302 20.4417 24.2103 20.4917 24.0937 20.525L23.8937 20.6ZM30.4288 20.175C30.3288 20.175 30.2621 20.1667 30.2288 20.15C30.1455 20.1167 30.0621 20.1 29.9788 20.1C29.9121 20.1167 29.8371 20.125 29.7538 20.125C29.7371 20.125 29.7205 20.125 29.7038 20.125C29.6871 20.1417 29.6705 20.15 29.6538 20.15C29.5371 20.1667 29.4205 20.175 29.3038 20.175C29.2038 20.175 29.1038 20.1583 29.0038 20.125C28.9871 20.1083 28.9705 20.1 28.9538 20.1C28.8371 20.1167 28.7371 20.0833 28.6538 20C28.5705 19.9167 28.4871 19.8417 28.4038 19.775C28.3205 19.6917 28.2788 19.6 28.2788 19.5L28.2038 19.3C28.1538 19.1833 28.1371 19.075 28.1538 18.975C28.1705 18.9417 28.1705 18.9083 28.1538 18.875C28.1538 18.8417 28.1538 18.8083 28.1538 18.775C28.1371 18.7417 28.1288 18.7083 28.1288 18.675C28.1288 18.625 28.1205 18.5833 28.1038 18.55C28.0705 18.4 28.0455 18.25 28.0288 18.1C28.0288 17.9333 28.0371 17.775 28.0538 17.625C28.0705 17.525 28.1288 17.3583 28.2288 17.125C28.3288 16.875 28.3871 16.725 28.4038 16.675C28.4538 16.5917 28.4788 16.525 28.4788 16.475C28.4621 16.2917 28.4538 16.1083 28.4538 15.925C28.4705 15.725 28.4788 15.5333 28.4788 15.35C28.4788 15.2333 28.5038 15.1417 28.5538 15.075C28.6205 14.9583 28.6288 14.8333 28.5788 14.7L28.5038 14.425C28.4038 14.2417 28.4121 14.0833 28.5288 13.95C28.5288 13.9333 28.5288 13.925 28.5288 13.925C28.5455 13.9083 28.5538 13.8917 28.5538 13.875C28.5871 13.8417 28.5955 13.8 28.5788 13.75C28.5621 13.6833 28.5538 13.6333 28.5538 13.6C28.5538 13.5333 28.5621 13.4667 28.5788 13.4C28.6121 13.3167 28.6205 13.2417 28.6038 13.175C28.6038 13.175 28.5871 13.1583 28.5538 13.125C28.5371 13.0917 28.5288 13.025 28.5288 12.925C28.5455 12.825 28.5538 12.7667 28.5538 12.75V12.05C28.5705 11.9667 28.5788 11.8917 28.5788 11.825C28.5788 11.7417 28.5871 11.6583 28.6038 11.575C28.6205 11.475 28.6205 11.375 28.6038 11.275C28.6038 11.1583 28.6038 11.0417 28.6038 10.925C28.5871 10.8417 28.5705 10.75 28.5538 10.65C28.5538 10.55 28.5538 10.45 28.5538 10.35C28.5371 10.3167 28.5288 10.275 28.5288 10.225C28.5288 10.175 28.5288 10.1333 28.5288 10.1C28.5121 10.0167 28.4955 9.93333 28.4788 9.85C28.4788 9.76667 28.4788 9.68333 28.4788 9.6C28.4788 9.56667 28.4455 9.45833 28.3788 9.275C28.3121 9.075 28.2871 8.90833 28.3038 8.775C28.3205 8.74167 28.3288 8.7 28.3288 8.65C28.3288 8.6 28.3121 8.55833 28.2788 8.525C28.2455 8.50833 28.2288 8.475 28.2288 8.425V8.35C28.2788 8.15 28.2538 7.95 28.1538 7.75C28.0871 7.65 28.0621 7.55 28.0788 7.45C28.0788 7.31667 28.0205 7.21667 27.9038 7.15C27.8205 7.06667 27.7455 6.96667 27.6788 6.85C27.6121 6.73333 27.5705 6.61667 27.5538 6.5C27.5371 6.41667 27.5288 6.33333 27.5288 6.25C27.5288 6.16667 27.5288 6.09167 27.5288 6.025C27.5288 5.95833 27.5371 5.91667 27.5538 5.9C27.6205 5.83333 27.6538 5.75833 27.6538 5.675C27.6538 5.575 27.6621 5.5 27.6788 5.45C27.6955 5.43333 27.7121 5.425 27.7288 5.425C27.7455 5.425 27.7621 5.41667 27.7788 5.4C27.8455 5.38333 27.8788 5.325 27.8788 5.225C27.8455 5.15833 27.8288 5.1 27.8288 5.05C27.8121 4.98333 27.8371 4.925 27.9038 4.875C27.9371 4.80833 27.9788 4.79167 28.0288 4.825C28.1455 4.875 28.2788 4.85833 28.4288 4.775C28.4955 4.74167 28.5371 4.725 28.5538 4.725C28.6038 4.725 28.6288 4.725 28.6288 4.725C28.6455 4.70833 28.6955 4.7 28.7788 4.7C28.8788 4.71667 28.9705 4.68333 29.0538 4.6C29.1705 4.48333 29.3121 4.425 29.4788 4.425H31.0288C31.4121 4.44167 31.7955 4.44167 32.1788 4.425C32.5621 4.40833 32.9371 4.4 33.3038 4.4C33.3871 4.4 33.4538 4.4 33.5038 4.4C33.5705 4.38333 33.6371 4.36667 33.7038 4.35C33.8038 4.3 33.9205 4.275 34.0538 4.275H34.6288C34.7621 4.275 34.8788 4.275 34.9788 4.275C35.0955 4.25833 35.2121 4.24167 35.3288 4.225C35.3955 4.20833 35.4538 4.2 35.5038 4.2C35.5705 4.2 35.6371 4.2 35.7038 4.2C35.7705 4.2 35.8371 4.2 35.9038 4.2C35.9705 4.2 36.0371 4.19167 36.1038 4.175C36.2371 4.15833 36.3788 4.15 36.5288 4.15C36.6788 4.13333 36.8205 4.125 36.9538 4.125C37.0205 4.125 37.0788 4.125 37.1288 4.125C37.1955 4.10833 37.2621 4.09167 37.3288 4.075C37.4621 4.04167 37.5871 4.025 37.7038 4.025C37.8371 4.00833 37.9621 3.99167 38.0788 3.975C38.2121 3.95833 38.3371 3.94167 38.4538 3.925C38.5871 3.90833 38.7121 3.89167 38.8288 3.875C38.9788 3.875 39.0871 3.89167 39.1538 3.925C39.2538 3.99167 39.3455 4.05 39.4288 4.1C39.5288 4.15 39.6205 4.21667 39.7038 4.3C39.7705 4.36667 39.8121 4.425 39.8288 4.475C39.8455 4.54167 39.8621 4.60833 39.8788 4.675C39.8955 4.74167 39.9121 4.81667 39.9288 4.9V5.075C39.9121 5.15833 39.8955 5.25 39.8788 5.35C39.8788 5.43333 39.8705 5.525 39.8538 5.625C39.8205 5.69167 39.7788 5.75 39.7288 5.8L39.2788 6.25C39.1121 6.3 38.9455 6.33333 38.7788 6.35C38.6288 6.36667 38.4705 6.36667 38.3038 6.35H38.1288C38.0455 6.36667 37.9621 6.375 37.8788 6.375C37.7955 6.375 37.7121 6.36667 37.6288 6.35C37.5288 6.33333 37.4288 6.33333 37.3288 6.35C37.2288 6.35 37.1288 6.35 37.0288 6.35C36.9621 6.35 36.8955 6.35833 36.8288 6.375C36.7788 6.375 36.7205 6.36667 36.6538 6.35C36.5705 6.33333 36.4871 6.33333 36.4038 6.35C36.3371 6.35 36.2621 6.35833 36.1788 6.375C36.1121 6.375 36.0371 6.38333 35.9538 6.4C35.8871 6.4 35.8121 6.4 35.7288 6.4C35.5121 6.43333 35.2788 6.45 35.0288 6.45C34.7955 6.45 34.5621 6.46667 34.3288 6.5C34.1788 6.48333 34.0371 6.49167 33.9038 6.525C33.7705 6.54167 33.6288 6.55833 33.4788 6.575C33.3455 6.59167 33.2038 6.6 33.0538 6.6C32.9038 6.6 32.7621 6.61667 32.6288 6.65C32.4621 6.65 32.2955 6.675 32.1288 6.725C31.9788 6.75833 31.8205 6.78333 31.6538 6.8L31.4788 6.825C31.3621 6.825 31.2538 6.84167 31.1538 6.875C31.0538 6.89167 30.9455 6.91667 30.8288 6.95C30.7621 6.96667 30.6955 6.98333 30.6288 7C30.5621 7 30.4871 7.00833 30.4038 7.025C30.3538 7.025 30.2955 7.04167 30.2288 7.075C30.1788 7.09167 30.1538 7.14167 30.1538 7.225L30.2288 7.45C30.2455 7.48333 30.2371 7.56667 30.2038 7.7C30.1871 7.83333 30.1705 7.93333 30.1538 8C30.1538 8.05 30.1621 8.1 30.1788 8.15C30.1955 8.2 30.2121 8.25 30.2288 8.3C30.2788 8.43333 30.3038 8.58333 30.3038 8.75C30.3038 8.9 30.3205 9.04167 30.3538 9.175C30.3705 9.24167 30.3788 9.31667 30.3788 9.4C30.3788 9.46667 30.3871 9.54167 30.4038 9.625C30.4038 9.65833 30.4038 9.7 30.4038 9.75C30.4205 9.78333 30.4288 9.825 30.4288 9.875C30.4288 9.925 30.4205 9.95833 30.4038 9.975C30.3538 10.0417 30.3288 10.1167 30.3288 10.2C30.3288 10.2833 30.3288 10.3667 30.3288 10.45C30.4121 10.6167 30.4538 10.7833 30.4538 10.95C30.4538 11.1167 30.4538 11.2833 30.4538 11.45C30.4538 11.5 30.4955 11.5167 30.5788 11.5H30.6038C30.6371 11.4333 30.6705 11.3833 30.7038 11.35C30.7538 11.35 30.8121 11.3333 30.8788 11.3C30.9288 11.2667 30.9955 11.25 31.0788 11.25C31.2121 11.2667 31.3371 11.2667 31.4538 11.25C31.5705 11.2167 31.6871 11.1833 31.8038 11.15C32.5871 10.95 33.3205 10.6917 34.0038 10.375C34.1871 10.2917 34.3788 10.225 34.5788 10.175C34.7788 10.1083 34.9788 10.0667 35.1788 10.05H35.2538C35.4038 10.0333 35.5538 10.0167 35.7038 10C35.8538 9.98333 36.0038 9.975 36.1538 9.975C36.3538 9.95833 36.5455 9.93333 36.7288 9.9C36.9288 9.86667 37.1288 9.84167 37.3288 9.825C37.4455 9.79167 37.5538 9.76667 37.6538 9.75C37.7538 9.71667 37.8621 9.675 37.9788 9.625C38.1955 9.54167 38.3955 9.5 38.5788 9.5C38.7121 9.51667 38.8371 9.55 38.9538 9.6C39.0705 9.63333 39.1871 9.68333 39.3038 9.75C39.5538 9.91667 39.6788 10.1667 39.6788 10.5C39.6788 10.6333 39.6621 10.7667 39.6288 10.9C39.6121 11.0333 39.6038 11.1667 39.6038 11.3C39.6038 11.3333 39.5871 11.3667 39.5538 11.4L39.4788 11.525C39.4621 11.5917 39.4455 11.6583 39.4288 11.725C39.4121 11.7917 39.3705 11.8417 39.3038 11.875C39.2038 11.9583 39.0955 12.05 38.9788 12.15C38.8788 12.2333 38.7621 12.2917 38.6288 12.325C38.5621 12.3417 38.4955 12.3583 38.4288 12.375C38.3788 12.3917 38.3205 12.4 38.2538 12.4C37.9871 12.4 37.7121 12.4167 37.4288 12.45C37.1621 12.4833 36.8871 12.5167 36.6038 12.55C36.3871 12.5667 36.1705 12.5917 35.9538 12.625C35.7538 12.6583 35.5455 12.675 35.3288 12.675C35.1288 12.675 34.9038 12.7167 34.6538 12.8C34.4871 12.8333 34.3121 12.8667 34.1288 12.9C33.9455 12.9333 33.7621 12.9583 33.5788 12.975C33.4455 12.9917 33.3038 13.0167 33.1538 13.05C33.0205 13.0667 32.8871 13.0833 32.7538 13.1L32.3288 13.175C32.2955 13.1917 32.2455 13.2 32.1788 13.2C32.0621 13.2333 31.9455 13.2583 31.8288 13.275C31.7121 13.2917 31.5955 13.3167 31.4788 13.35C31.3621 13.3667 31.2455 13.3917 31.1288 13.425C31.0288 13.4583 30.9205 13.4917 30.8038 13.525C30.7205 13.5417 30.6538 13.575 30.6038 13.625C30.5538 13.6583 30.5121 13.7083 30.4788 13.775C30.4621 13.825 30.4621 13.875 30.4788 13.925C30.4955 13.9917 30.4871 14.0583 30.4538 14.125C30.4705 14.2917 30.4788 14.4583 30.4788 14.625C30.4955 14.7917 30.4955 14.9583 30.4788 15.125C30.5121 15.2583 30.5205 15.3917 30.5038 15.525C30.5038 15.6583 30.4955 15.7917 30.4788 15.925C30.4455 16.125 30.4538 16.2917 30.5038 16.425C30.5538 16.6417 30.5371 16.8667 30.4538 17.1C30.4205 17.2 30.4205 17.2667 30.4538 17.3C30.4871 17.35 30.4871 17.4083 30.4538 17.475V17.625C30.4371 17.7583 30.4955 17.825 30.6288 17.825H30.6788C30.7955 17.825 30.9121 17.8667 31.0288 17.95C31.1121 18.0333 31.2121 18.0583 31.3288 18.025L32.0288 17.95C32.1288 17.9333 32.2288 17.925 32.3288 17.925C32.4288 17.9083 32.5288 17.9 32.6288 17.9C32.6621 17.8833 32.7121 17.8917 32.7788 17.925C32.8621 17.975 32.9371 17.9833 33.0038 17.95C33.0371 17.9167 33.0788 17.8917 33.1288 17.875C33.1955 17.8583 33.2455 17.8333 33.2788 17.8C33.3788 17.7 33.5038 17.6667 33.6538 17.7C33.7871 17.7333 33.8955 17.725 33.9788 17.675C34.1288 17.625 34.2705 17.6083 34.4038 17.625C34.4871 17.6417 34.5705 17.6333 34.6538 17.6C34.7371 17.5667 34.8205 17.55 34.9038 17.55C34.9371 17.55 34.9621 17.5583 34.9788 17.575C34.9955 17.575 35.0121 17.5667 35.0288 17.55C35.0621 17.55 35.0955 17.5417 35.1288 17.525C35.1621 17.5083 35.1871 17.5 35.2038 17.5C35.3205 17.45 35.4288 17.4333 35.5288 17.45C35.6121 17.45 35.6538 17.45 35.6538 17.45C35.7205 17.4333 35.7788 17.4333 35.8288 17.45C35.8955 17.4667 35.9538 17.4917 36.0038 17.525C36.0871 17.5417 36.1538 17.5667 36.2038 17.6C36.2705 17.6333 36.3371 17.6583 36.4038 17.675C36.4371 17.675 36.4621 17.6833 36.4788 17.7C36.5621 17.7667 36.6621 17.825 36.7788 17.875C36.9121 17.925 36.9871 17.9833 37.0038 18.05C37.0371 18.15 37.0538 18.25 37.0538 18.35C37.0538 18.4333 37.0621 18.525 37.0788 18.625C37.0788 18.675 37.0705 18.725 37.0538 18.775C37.0538 18.825 37.0455 18.875 37.0288 18.925C36.9955 18.9917 36.9538 19.0667 36.9038 19.15C36.8705 19.2333 36.8205 19.3083 36.7538 19.375C36.7205 19.4083 36.6871 19.4417 36.6538 19.475C36.6371 19.5083 36.6121 19.5417 36.5788 19.575C36.5121 19.6417 36.4371 19.7 36.3538 19.75C36.2705 19.8 36.1788 19.825 36.0788 19.825C36.0121 19.825 35.9621 19.8333 35.9288 19.85C35.8621 19.8833 35.7955 19.9 35.7288 19.9C35.6621 19.9 35.5871 19.9 35.5038 19.9C35.3871 19.9167 35.2705 19.9333 35.1538 19.95C35.0538 19.95 34.9455 19.9417 34.8288 19.925C34.7621 19.9083 34.7038 19.9083 34.6538 19.925C34.4871 19.975 34.3205 19.9833 34.1538 19.95C33.9871 19.95 33.8205 19.9583 33.6538 19.975C33.5038 19.975 33.3538 19.975 33.2038 19.975H32.8788C32.8288 19.975 32.7871 19.9833 32.7538 20C32.6871 20.0333 32.6038 20.05 32.5038 20.05C32.4205 20.05 32.3371 20.0417 32.2538 20.025H32.0038C31.9871 20.025 31.9621 20.025 31.9288 20.025C31.8955 20.0417 31.8621 20.0417 31.8288 20.025C31.7788 20.0083 31.7288 20 31.6788 20C31.6455 20.0167 31.6038 20.0333 31.5538 20.05C31.5205 20.05 31.4871 20.05 31.4538 20.05C31.4371 20.0667 31.4121 20.075 31.3788 20.075C31.2121 20.0583 31.0538 20.0583 30.9038 20.075C30.7538 20.1083 30.5955 20.1417 30.4288 20.175ZM54.1929 18.825C54.0762 18.875 53.9595 18.8917 53.8429 18.875C53.7429 18.8583 53.6345 18.825 53.5179 18.775C53.4512 18.7417 53.3929 18.7083 53.3429 18.675C53.2929 18.6417 53.2429 18.6083 53.1929 18.575C53.0762 18.4917 53.0095 18.3917 52.9929 18.275C52.9429 18.1417 52.8929 18.0167 52.8429 17.9C52.8095 17.7667 52.8012 17.6333 52.8179 17.5C52.8179 17.4 52.8095 17.3083 52.7929 17.225C52.7929 17.125 52.7845 17.025 52.7679 16.925C52.7512 16.7083 52.7262 16.5 52.6929 16.3C52.6762 16.1 52.6679 15.8917 52.6679 15.675C52.6679 15.575 52.6595 15.5 52.6429 15.45V15.325C52.6429 15.2083 52.6345 15.0917 52.6179 14.975C52.6012 14.8583 52.5845 14.7417 52.5679 14.625C52.5179 14.3917 52.4929 14.1583 52.4929 13.925L52.4179 13.4C52.3845 13.2667 52.3595 13.125 52.3429 12.975C52.3429 12.825 52.3262 12.6833 52.2929 12.55C52.2762 12.3333 52.2595 12.125 52.2429 11.925C52.2429 11.725 52.2345 11.5167 52.2179 11.3C52.2179 11.2 52.2012 11.0833 52.1679 10.95C52.1512 10.85 52.1345 10.7583 52.1179 10.675C52.1179 10.575 52.1179 10.475 52.1179 10.375C52.1012 10.2917 52.0929 10.2083 52.0929 10.125C52.0929 10.025 52.0929 9.93333 52.0929 9.85C52.0929 9.71667 52.0929 9.59167 52.0929 9.475C52.0929 9.34167 52.0762 9.21667 52.0429 9.1C52.0262 9.03333 52.0095 8.975 51.9929 8.925C51.9929 8.875 52.0012 8.825 52.0179 8.775V8.6C52.0012 8.51667 51.9845 8.43333 51.9679 8.35C51.9679 8.25 51.9679 8.15833 51.9679 8.075C51.9512 7.89167 51.9512 7.725 51.9679 7.575C51.9845 7.40833 51.9929 7.24167 51.9929 7.075C51.9929 7.00833 52.0095 6.925 52.0429 6.825C52.0762 6.70833 52.1179 6.6 52.1679 6.5C52.2179 6.4 52.2679 6.3 52.3179 6.2C52.3512 6.08333 52.4095 5.98333 52.4929 5.9C52.5762 5.8 52.6595 5.71667 52.7429 5.65C52.8429 5.58333 52.9262 5.55 52.9929 5.55C53.0762 5.56667 53.1679 5.58333 53.2679 5.6C53.3679 5.6 53.4595 5.63333 53.5429 5.7C53.7429 5.81667 53.8679 5.99167 53.9179 6.225L53.9929 6.475C54.0762 6.54167 54.1262 6.625 54.1429 6.725C54.1762 6.825 54.2095 6.91667 54.2429 7C54.3262 7.15 54.3512 7.31667 54.3179 7.5C54.3012 7.7 54.3179 7.925 54.3679 8.175C54.3679 8.225 54.3845 8.3 54.4179 8.4C54.4345 8.45 54.4429 8.54167 54.4429 8.675C54.4429 8.775 54.4429 8.875 54.4429 8.975C54.4595 9.05833 54.4762 9.15 54.4929 9.25C54.5095 9.28333 54.5179 9.325 54.5179 9.375C54.5179 9.425 54.5179 9.46667 54.5179 9.5C54.5345 9.56667 54.5429 9.63333 54.5429 9.7C54.5429 9.75 54.5512 9.8 54.5679 9.85C54.5845 10 54.6012 10.15 54.6179 10.3C54.6345 10.4333 54.6429 10.575 54.6429 10.725C54.6429 10.7583 54.6429 10.8 54.6429 10.85C54.6595 10.8833 54.6679 10.9167 54.6679 10.95L54.6929 11.05C54.6762 11.15 54.6679 11.25 54.6679 11.35C54.6845 11.45 54.6929 11.55 54.6929 11.65C54.7095 11.8167 54.7262 11.9833 54.7429 12.15C54.7595 12.3167 54.7679 12.4917 54.7679 12.675C54.7845 12.725 54.8012 12.7833 54.8179 12.85C54.8345 12.9 54.8512 12.9417 54.8679 12.975C54.9012 13.0583 54.9012 13.125 54.8679 13.175C54.8345 13.225 54.8345 13.2833 54.8679 13.35C54.8679 13.4167 54.8845 13.5 54.9179 13.6C54.9345 13.6667 54.9429 13.7417 54.9429 13.825C54.9429 13.9083 54.9429 13.975 54.9429 14.025C54.9595 14.175 54.9679 14.325 54.9679 14.475C54.9845 14.625 55.0012 14.775 55.0179 14.925C55.0512 15.075 55.0679 15.225 55.0679 15.375C55.0679 15.525 55.0762 15.675 55.0929 15.825C55.1095 15.8417 55.1095 15.8667 55.0929 15.9C55.0929 15.9333 55.1012 15.9667 55.1179 16C55.1512 16.0833 55.1595 16.175 55.1429 16.275C55.1429 16.375 55.1512 16.475 55.1679 16.575C55.1845 16.6917 55.2012 16.8 55.2179 16.9C55.2345 17 55.2512 17.1083 55.2679 17.225C55.3012 17.425 55.2845 17.5917 55.2179 17.725C55.2012 17.775 55.1845 17.825 55.1679 17.875C55.1512 17.9083 55.1429 17.9417 55.1429 17.975C55.1262 18.0583 55.0929 18.1333 55.0429 18.2C55.0095 18.25 54.9595 18.3083 54.8929 18.375C54.7429 18.525 54.5679 18.65 54.3679 18.75L54.1929 18.825ZM66.4907 20C66.3741 20.0167 66.2574 20.0167 66.1407 20C66.0407 19.9833 65.9324 19.9667 65.8157 19.95C65.7657 19.95 65.7157 19.925 65.6657 19.875C65.6157 19.825 65.5574 19.7667 65.4907 19.7C65.4407 19.6333 65.3991 19.5667 65.3657 19.5L65.2907 19.325C65.2741 19.275 65.2574 19.225 65.2407 19.175C65.2407 19.1083 65.2324 19.05 65.2157 19C65.1991 18.9 65.1991 18.8 65.2157 18.7C65.2491 18.6167 65.2574 18.5333 65.2407 18.45C65.2407 18.3667 65.2407 18.2917 65.2407 18.225V14.55C65.2407 14.4833 65.2324 14.4333 65.2157 14.4C65.1991 14.1667 65.1907 13.95 65.1907 13.75C65.1907 13.5333 65.1824 13.3167 65.1657 13.1C65.1657 13.0167 65.1574 12.9333 65.1407 12.85C65.1407 12.75 65.1407 12.6583 65.1407 12.575V12.525C65.1407 12.3417 65.1157 12.1583 65.0657 11.975C65.0324 11.775 64.9991 11.5833 64.9657 11.4C64.9657 11.35 64.9574 11.3 64.9407 11.25C64.9407 11.1833 64.9407 11.1167 64.9407 11.05C64.9407 10.95 64.9324 10.8583 64.9157 10.775C64.8991 10.675 64.8824 10.575 64.8657 10.475C64.8324 10.3917 64.7741 10.375 64.6907 10.425C64.6574 10.4417 64.6157 10.4667 64.5657 10.5C64.5324 10.5167 64.4907 10.5417 64.4407 10.575C64.3741 10.6417 64.3241 10.6833 64.2907 10.7C64.1407 10.8 63.9907 10.9 63.8407 11C63.6907 11.1 63.5241 11.175 63.3407 11.225C63.2407 11.2583 63.1407 11.3 63.0407 11.35C62.9407 11.4 62.8407 11.4417 62.7407 11.475C62.6241 11.525 62.4991 11.55 62.3657 11.55C62.2324 11.55 62.0907 11.5583 61.9407 11.575C61.7907 11.575 61.6407 11.5667 61.4907 11.55C61.4074 11.55 61.3157 11.575 61.2157 11.625C61.1991 11.6417 61.1657 11.6583 61.1157 11.675C61.0824 11.6917 61.0491 11.7083 61.0157 11.725C60.8157 11.8417 60.6241 11.85 60.4407 11.75C60.3741 11.7333 60.2907 11.6917 60.1907 11.625C60.1074 11.5583 60.0157 11.5 59.9157 11.45C59.8324 11.4 59.7491 11.35 59.6657 11.3C59.5991 11.2667 59.5574 11.2333 59.5407 11.2C59.4741 11.1333 59.3991 11.075 59.3157 11.025C59.2491 10.9583 59.1907 10.8917 59.1407 10.825C59.1241 10.825 59.1074 10.825 59.0907 10.825C59.0907 10.8083 59.0907 10.8 59.0907 10.8C58.9741 10.7167 58.8657 10.625 58.7657 10.525C58.6824 10.425 58.5907 10.325 58.4907 10.225C58.4574 10.175 58.4157 10.125 58.3657 10.075C58.3157 10.025 58.2741 9.96667 58.2407 9.9L58.1157 9.75C58.0491 9.66667 57.9824 9.575 57.9157 9.475C57.8491 9.375 57.7824 9.275 57.7157 9.175C57.6657 9.05833 57.6241 8.95 57.5907 8.85L57.4407 8.425C57.3741 8.24167 57.3157 8.05833 57.2657 7.875C57.2324 7.675 57.2241 7.475 57.2407 7.275C57.2407 6.75833 57.4074 6.28333 57.7407 5.85C57.8741 5.66667 58.0157 5.5 58.1657 5.35C58.3324 5.2 58.4991 5.05 58.6657 4.9C59.1657 4.48333 59.6574 4.09167 60.1407 3.725C60.2741 3.625 60.4074 3.53333 60.5407 3.45C60.6907 3.36667 60.8491 3.30833 61.0157 3.275L61.2407 3.2C61.3407 3.15 61.4407 3.10833 61.5407 3.075C61.6407 3.025 61.7324 2.975 61.8157 2.925C62.0491 2.80833 62.2824 2.71667 62.5157 2.65C62.7657 2.58333 63.0157 2.525 63.2657 2.475C63.3324 2.45833 63.3907 2.45 63.4407 2.45C63.4907 2.45 63.5491 2.45 63.6157 2.45L64.8907 2.375C64.9907 2.375 65.0657 2.36667 65.1157 2.35C65.1824 2.35 65.2324 2.30833 65.2657 2.225C65.2991 2.175 65.3324 2.1 65.3657 2C65.4491 1.76667 65.5741 1.56667 65.7407 1.4C65.7741 1.38333 65.7991 1.36667 65.8157 1.35C65.8324 1.33333 65.8491 1.31667 65.8657 1.3C65.9824 1.25 66.0907 1.2 66.1907 1.15C66.2907 1.1 66.3991 1.06667 66.5157 1.05C66.6824 0.999999 66.8407 1.01667 66.9907 1.1C67.2241 1.18333 67.4491 1.33333 67.6657 1.55C67.7491 1.63333 67.8157 1.73333 67.8657 1.85C67.9157 1.96667 67.9491 2.08333 67.9657 2.2C68.0491 2.43333 68.0657 2.71667 68.0157 3.05C68.0157 3.06667 68.0074 3.08333 67.9907 3.1C67.9907 3.11667 67.9907 3.14167 67.9907 3.175C67.9907 3.34167 67.9741 3.5 67.9407 3.65C67.9074 3.8 67.8741 3.95833 67.8407 4.125C67.8074 4.225 67.7907 4.29167 67.7907 4.325C67.7741 4.475 67.7574 4.625 67.7407 4.775C67.7241 4.90833 67.7157 5.04167 67.7157 5.175V5.3C67.6824 5.43333 67.6657 5.575 67.6657 5.725C67.6657 5.85833 67.6574 5.99167 67.6407 6.125C67.6074 6.64167 67.5574 7.13333 67.4907 7.6C67.4907 7.65 67.4824 7.7 67.4657 7.75C67.4657 7.8 67.4657 7.85 67.4657 7.9C67.4657 7.98333 67.4574 8.075 67.4407 8.175C67.4407 8.25833 67.4324 8.35 67.4157 8.45C67.3991 8.5 67.3907 8.58333 67.3907 8.7V10.9C67.3907 10.9833 67.3991 11.0417 67.4157 11.075C67.4491 11.2417 67.4574 11.4 67.4407 11.55C67.4407 11.7 67.4491 11.8583 67.4657 12.025V12.8C67.4657 12.9167 67.4657 13.0333 67.4657 13.15C67.4824 13.2667 67.4991 13.3917 67.5157 13.525V13.825C67.5157 14.175 67.5157 14.525 67.5157 14.875C67.5157 15.225 67.5241 15.5833 67.5407 15.95V17.575C67.5407 17.6583 67.5407 17.7417 67.5407 17.825C67.5407 17.9083 67.5491 17.9917 67.5657 18.075C67.5824 18.1917 67.5907 18.325 67.5907 18.475C67.5907 18.6083 67.5907 18.7417 67.5907 18.875C67.5907 18.9417 67.5824 19.0083 67.5657 19.075C67.5491 19.1417 67.5324 19.2083 67.5157 19.275C67.4824 19.3417 67.4574 19.3833 67.4407 19.4C67.3907 19.4667 67.3407 19.5333 67.2907 19.6C67.2407 19.65 67.1741 19.6917 67.0907 19.725C67.0574 19.725 67.0407 19.75 67.0407 19.8C67.0074 19.8833 66.9324 19.925 66.8157 19.925L66.4907 20ZM61.9907 9.025C62.3241 9.05833 62.6074 8.99167 62.8407 8.825L62.9907 8.75C63.0907 8.66667 63.1907 8.58333 63.2907 8.5C63.3907 8.4 63.4991 8.31667 63.6157 8.25C63.6824 8.21667 63.7324 8.175 63.7657 8.125C63.8157 8.075 63.8574 8.025 63.8907 7.975L64.0407 7.65C64.1407 7.43333 64.2324 7.225 64.3157 7.025C64.4157 6.80833 64.5157 6.6 64.6157 6.4C64.6491 6.36667 64.6741 6.325 64.6907 6.275C64.7074 6.225 64.7241 6.175 64.7407 6.125C64.7741 6.075 64.7907 6.025 64.7907 5.975C64.7907 5.90833 64.7907 5.84167 64.7907 5.775C64.8074 5.675 64.7741 5.56667 64.6907 5.45L64.6157 5.325C64.5491 5.24167 64.4824 5.175 64.4157 5.125C64.3657 5.05833 64.3074 4.99167 64.2407 4.925C64.1241 4.775 64.0407 4.63333 63.9907 4.5C63.9907 4.46667 63.9824 4.43333 63.9657 4.4C63.9491 4.35 63.9324 4.31667 63.9157 4.3C63.8991 4.25 63.8657 4.225 63.8157 4.225C63.7991 4.225 63.7824 4.225 63.7657 4.225C63.7491 4.20833 63.7241 4.20833 63.6907 4.225C63.5407 4.24167 63.3907 4.26667 63.2407 4.3C63.0907 4.31667 62.9491 4.35833 62.8157 4.425L62.3157 4.65C62.0157 4.76667 61.7741 4.925 61.5907 5.125C61.5574 5.15833 61.5157 5.19167 61.4657 5.225C61.4324 5.25833 61.3907 5.29167 61.3407 5.325L60.8157 5.775C60.6991 5.89167 60.5741 6 60.4407 6.1C60.3241 6.2 60.2074 6.30833 60.0907 6.425C59.9241 6.60833 59.7907 6.83333 59.6907 7.1C59.6407 7.25 59.6491 7.38333 59.7157 7.5C59.7491 7.58333 59.7824 7.66667 59.8157 7.75C59.8657 7.83333 59.9241 7.91667 59.9907 8C60.1907 8.21667 60.4157 8.41667 60.6657 8.6C60.8991 8.76667 61.1407 8.88333 61.3907 8.95C61.4907 8.98333 61.5907 9.00833 61.6907 9.025C61.7907 9.025 61.8907 9.025 61.9907 9.025ZM75.0052 19.975C74.9052 19.9917 74.8218 19.9917 74.7552 19.975C74.7052 19.9417 74.6552 19.9167 74.6052 19.9C74.5718 19.8667 74.5385 19.8417 74.5052 19.825C74.4385 19.775 74.3718 19.725 74.3052 19.675C74.2552 19.625 74.1968 19.5667 74.1302 19.5C74.0468 19.45 73.9968 19.3833 73.9802 19.3C73.9135 19.1667 73.8552 18.9833 73.8052 18.75C73.7385 18.4833 73.7802 18.225 73.9302 17.975C73.9302 17.9417 73.9385 17.925 73.9552 17.925C74.0385 17.7917 74.1052 17.6583 74.1552 17.525C74.2052 17.3917 74.2468 17.2583 74.2802 17.125C74.3468 16.8917 74.4052 16.6667 74.4552 16.45C74.5218 16.2167 74.5802 15.9917 74.6302 15.775C74.6802 15.5917 74.7135 15.4167 74.7302 15.25C74.7635 15.0667 74.7885 14.8917 74.8052 14.725C74.8385 14.575 74.8552 14.4333 74.8552 14.3C74.8718 14.15 74.8885 13.9917 74.9052 13.825C74.9052 13.725 74.9135 13.6417 74.9302 13.575C74.9302 13.5083 74.9302 13.4417 74.9302 13.375C74.9468 13.3083 74.9552 13.2417 74.9552 13.175C74.9552 13.0583 74.9052 13.0167 74.8052 13.05L74.5552 13.125C74.4552 13.1417 74.3552 13.1667 74.2552 13.2C74.1718 13.2167 74.0802 13.2417 73.9802 13.275C73.8635 13.3083 73.7385 13.3583 73.6052 13.425C73.4718 13.475 73.3552 13.55 73.2552 13.65C73.1885 13.6833 73.1385 13.7167 73.1052 13.75C72.8718 13.9 72.6552 13.8833 72.4552 13.7C72.2052 13.45 72.0052 13.2167 71.8552 13C71.8218 12.9333 71.7885 12.875 71.7552 12.825C71.7218 12.7583 71.6885 12.6917 71.6552 12.625C71.5052 12.2917 71.5385 11.9667 71.7552 11.65C71.8552 11.5167 71.9385 11.4 72.0052 11.3C72.0052 11.2667 72.0218 11.25 72.0552 11.25C72.0885 11.2333 72.1135 11.225 72.1302 11.225C72.1635 11.2083 72.1885 11.1917 72.2052 11.175C72.2885 11.0917 72.3718 11.05 72.4552 11.05C72.6052 11.0167 72.7552 10.9833 72.9052 10.95C73.0718 10.9167 73.2302 10.8917 73.3802 10.875L73.5552 10.85C73.7218 10.85 73.8802 10.8333 74.0302 10.8C74.1968 10.7667 74.3635 10.7417 74.5302 10.725C74.5968 10.725 74.6635 10.725 74.7302 10.725C74.8135 10.725 74.8885 10.7167 74.9552 10.7C75.0552 10.7 75.1385 10.6917 75.2052 10.675C75.2885 10.6417 75.3385 10.5917 75.3552 10.525C75.3718 10.5083 75.3802 10.4667 75.3802 10.4C75.4135 10.1667 75.4552 9.95 75.5052 9.75C75.5718 9.53333 75.6385 9.31667 75.7052 9.1C75.7385 9.01667 75.7635 8.93333 75.7802 8.85C75.7968 8.75 75.8135 8.66667 75.8302 8.6C75.8468 8.46667 75.8885 8.325 75.9552 8.175C76.0885 7.875 76.1885 7.575 76.2552 7.275C76.2718 7.19167 76.2968 7.10833 76.3302 7.025C76.3635 6.94167 76.3885 6.85833 76.4052 6.775L76.6552 5.925C76.6718 5.89167 76.6802 5.86667 76.6802 5.85C76.6802 5.81667 76.6885 5.79167 76.7052 5.775C76.7052 5.70833 76.6802 5.675 76.6302 5.675C76.4635 5.725 76.3052 5.76667 76.1552 5.8C76.0052 5.83333 75.8552 5.88333 75.7052 5.95L75.4802 6.025C75.3135 6.075 75.1468 6.14167 74.9802 6.225C74.8135 6.29167 74.6468 6.36667 74.4802 6.45C74.4135 6.48333 74.3385 6.525 74.2552 6.575C74.1885 6.60833 74.1218 6.64167 74.0552 6.675C74.0052 6.69167 73.9552 6.71667 73.9052 6.75C73.8552 6.78333 73.8135 6.81667 73.7802 6.85C73.6635 6.91667 73.5552 7 73.4552 7.1C73.3552 7.18333 73.2552 7.26667 73.1552 7.35C73.0552 7.41667 72.9802 7.50833 72.9302 7.625C72.8635 7.74167 72.7718 7.85833 72.6552 7.975C72.5052 8.125 72.3635 8.21667 72.2302 8.25C72.0635 8.3 71.8968 8.34167 71.7302 8.375C71.5802 8.40833 71.4218 8.425 71.2552 8.425C71.2052 8.40833 71.1552 8.4 71.1052 8.4C71.0552 8.4 71.0052 8.39167 70.9552 8.375C70.8552 8.34167 70.7635 8.275 70.6802 8.175C70.6135 8.10833 70.5635 8.05 70.5302 8C70.4302 7.86667 70.3552 7.73333 70.3052 7.6C70.2885 7.56667 70.2802 7.54167 70.2802 7.525C70.2802 7.50833 70.2718 7.49167 70.2552 7.475C70.2052 7.34167 70.1802 7.225 70.1802 7.125C70.1968 7.00833 70.2218 6.89167 70.2552 6.775C70.3552 6.475 70.5302 6.20833 70.7802 5.975L70.9302 5.875C70.9968 5.84167 71.0552 5.80833 71.1052 5.775C71.1718 5.725 71.2385 5.69167 71.3052 5.675C71.3885 5.64167 71.4635 5.61667 71.5302 5.6C71.5968 5.58333 71.6718 5.575 71.7552 5.575C72.1385 5.575 72.4968 5.51667 72.8302 5.4C72.9135 5.36667 72.9968 5.34167 73.0802 5.325C73.1635 5.30833 73.2468 5.3 73.3302 5.3C73.3968 5.3 73.4635 5.29167 73.5302 5.275C73.5968 5.24167 73.6635 5.21667 73.7302 5.2C73.9802 5.1 74.2302 5 74.4802 4.9C74.7302 4.78333 74.9885 4.675 75.2552 4.575C75.2885 4.575 75.3385 4.55833 75.4052 4.525C75.4385 4.50833 75.4718 4.46667 75.5052 4.4C75.5052 4.35 75.5468 4.30833 75.6302 4.275C75.7968 4.19167 75.9552 4.11667 76.1052 4.05C76.2718 3.98333 76.4385 3.91667 76.6052 3.85C76.6385 3.83333 76.6718 3.81667 76.7052 3.8C76.7552 3.78333 76.7968 3.76667 76.8302 3.75C76.8802 3.71667 76.9302 3.69167 76.9802 3.675C77.0302 3.64167 77.0635 3.6 77.0802 3.55C77.1302 3.48333 77.1802 3.425 77.2302 3.375C77.2802 3.30833 77.3385 3.25 77.4052 3.2C77.7218 2.91667 78.0968 2.8 78.5302 2.85C78.7302 2.88333 78.8885 2.95833 79.0052 3.075C79.1552 3.19167 79.2635 3.31667 79.3302 3.45C79.3802 3.56667 79.4302 3.68333 79.4802 3.8C79.5468 3.9 79.6052 4.00833 79.6552 4.125C79.7552 4.30833 79.7885 4.51667 79.7552 4.75C79.7385 4.88333 79.7135 5.01667 79.6802 5.15C79.6468 5.26667 79.6052 5.39167 79.5552 5.525C79.5218 5.60833 79.4802 5.69167 79.4302 5.775C79.3968 5.84167 79.3468 5.91667 79.2802 6C79.2302 6.03333 79.1885 6.11667 79.1552 6.25C79.1385 6.33333 79.1135 6.41667 79.0802 6.5C79.0635 6.58333 79.0135 6.65833 78.9302 6.725C78.8968 6.74167 78.8635 6.78333 78.8302 6.85C78.7635 6.91667 78.7552 6.99167 78.8052 7.075C78.8218 7.125 78.8052 7.175 78.7552 7.225C78.7385 7.24167 78.7218 7.25833 78.7052 7.275C78.6885 7.275 78.6635 7.29167 78.6302 7.325C78.5968 7.35833 78.5885 7.39167 78.6052 7.425C78.6552 7.49167 78.6718 7.55833 78.6552 7.625C78.6552 7.675 78.6468 7.73333 78.6302 7.8C78.6135 7.86667 78.5718 7.91667 78.5052 7.95C78.5052 8.03333 78.4968 8.1 78.4802 8.15C78.4635 8.21667 78.4385 8.28333 78.4052 8.35C78.3718 8.4 78.2968 8.45 78.1802 8.5L78.1052 8.55C78.0052 8.61667 77.9718 8.70833 78.0052 8.825C78.0385 8.89167 78.0718 8.95 78.1052 9C78.1552 9.03333 78.1718 9.09167 78.1552 9.175C78.1385 9.24167 78.1218 9.31667 78.1052 9.4C78.0885 9.46667 78.0718 9.54167 78.0552 9.625L77.9802 9.725C77.9468 9.74167 77.9218 9.775 77.9052 9.825C77.8885 9.85833 77.8635 9.9 77.8302 9.95C77.8302 10 77.7968 10.0417 77.7302 10.075C77.6802 10.0917 77.6552 10.125 77.6552 10.175C77.6218 10.2083 77.6218 10.2417 77.6552 10.275C77.6885 10.2917 77.7218 10.3167 77.7552 10.35C77.8052 10.3667 77.8552 10.3917 77.9052 10.425C77.9052 10.4417 77.9218 10.45 77.9552 10.45C78.0218 10.45 78.0635 10.4417 78.0802 10.425C78.1968 10.3917 78.2968 10.3917 78.3802 10.425C78.4802 10.4583 78.5802 10.4917 78.6802 10.525C78.7968 10.5583 78.8802 10.625 78.9302 10.725C78.9302 10.7417 78.9635 10.7833 79.0302 10.85C79.1302 10.9333 79.2135 11.0667 79.2802 11.25C79.2968 11.3 79.3135 11.35 79.3302 11.4C79.3468 11.4333 79.3468 11.475 79.3302 11.525C79.3135 11.6083 79.3218 11.6917 79.3552 11.775C79.3885 11.8417 79.4302 11.9167 79.4802 12C79.4968 12.0167 79.5135 12.0333 79.5302 12.05C79.5468 12.05 79.5635 12.0667 79.5802 12.1C79.6135 12.1333 79.6135 12.1667 79.5802 12.2L79.5052 12.35C79.4885 12.3667 79.4635 12.3917 79.4302 12.425C79.4135 12.4417 79.3968 12.4667 79.3802 12.5C79.2802 12.6 79.1718 12.625 79.0552 12.575C78.9885 12.5417 78.9302 12.55 78.8802 12.6C78.7968 12.65 78.7302 12.725 78.6802 12.825C78.6302 12.9083 78.5218 12.9667 78.3552 13C78.2885 13 78.2218 13 78.1552 13C78.1052 12.9833 78.0468 12.9667 77.9802 12.95C77.8135 12.9 77.6385 12.875 77.4552 12.875C77.4052 12.875 77.3718 12.8833 77.3552 12.9C77.3052 12.9 77.2635 12.9333 77.2302 13C77.2135 13.0667 77.1968 13.1333 77.1802 13.2C77.1802 13.2667 77.1802 13.3333 77.1802 13.4C77.1635 13.4667 77.1552 13.5417 77.1552 13.625C77.1718 13.6917 77.1802 13.7667 77.1802 13.85C77.1635 13.9167 77.1802 13.9917 77.2302 14.075C77.2302 14.075 77.2302 14.1 77.2302 14.15C77.1635 14.2167 77.1468 14.3 77.1802 14.4C77.1968 14.45 77.2052 14.5 77.2052 14.55C77.2218 14.6 77.2302 14.6583 77.2302 14.725C77.2468 14.7583 77.2302 14.7917 77.1802 14.825C77.1302 14.8417 77.1052 14.8833 77.1052 14.95V15.05C77.1218 15.1333 77.1135 15.225 77.0802 15.325C77.0302 15.4083 77.0385 15.5 77.1052 15.6C77.1385 15.65 77.1218 15.6917 77.0552 15.725C77.0052 15.775 76.9802 15.8 76.9802 15.8L76.8302 16.35C76.8302 16.4 76.8218 16.4417 76.8052 16.475C76.7552 16.5917 76.7135 16.725 76.6802 16.875C76.6635 17.0083 76.6385 17.1417 76.6052 17.275C76.5885 17.325 76.5718 17.375 76.5552 17.425C76.5385 17.475 76.5218 17.525 76.5052 17.575C76.5052 17.625 76.4968 17.6583 76.4802 17.675C76.4135 17.775 76.3718 17.8833 76.3552 18C76.3385 18.1167 76.3135 18.2333 76.2802 18.35C76.2635 18.4333 76.2468 18.525 76.2302 18.625C76.2135 18.7083 76.1968 18.7917 76.1802 18.875C76.1802 18.975 76.1468 19.0583 76.0802 19.125L75.9802 19.275C75.9302 19.3417 75.8718 19.4083 75.8052 19.475C75.7385 19.525 75.6718 19.575 75.6052 19.625C75.5718 19.6417 75.5385 19.6583 75.5052 19.675C75.4885 19.6917 75.4635 19.7167 75.4302 19.75C75.3635 19.8167 75.2968 19.8667 75.2302 19.9C75.1635 19.9167 75.0885 19.9417 75.0052 19.975ZM84.7942 21.1C84.7609 21.1167 84.7276 21.1083 84.6942 21.075C84.6609 21.075 84.6276 21.0667 84.5942 21.05C84.5776 21.0333 84.5526 21.025 84.5192 21.025C84.4026 20.9917 84.3026 20.9417 84.2192 20.875C84.1359 20.8083 84.0526 20.7417 83.9692 20.675C83.9692 20.6583 83.9526 20.6333 83.9192 20.6C83.8192 20.5167 83.7526 20.425 83.7192 20.325C83.6859 20.225 83.6609 20.1167 83.6442 20V19.625C83.6442 19.425 83.7192 19.25 83.8692 19.1C84.1359 18.85 84.4192 18.7167 84.7192 18.7C84.8026 18.6833 84.8776 18.675 84.9442 18.675C85.0109 18.6583 85.0776 18.6583 85.1442 18.675C85.2442 18.675 85.3442 18.6667 85.4442 18.65C85.5442 18.6167 85.6442 18.5917 85.7442 18.575C85.9776 18.4917 86.2109 18.4167 86.4442 18.35C86.6942 18.2667 86.9359 18.175 87.1692 18.075C87.5692 17.8917 87.9609 17.7083 88.3442 17.525C88.7442 17.3417 89.1359 17.15 89.5192 16.95C89.6859 16.8667 89.8359 16.7833 89.9692 16.7C90.1192 16.6167 90.2692 16.5333 90.4192 16.45C90.8026 16.2 91.1026 15.8917 91.3192 15.525C91.4859 15.2583 91.5359 14.975 91.4692 14.675C91.4526 14.5917 91.4359 14.5083 91.4192 14.425C91.4026 14.3417 91.3776 14.2667 91.3442 14.2C91.2776 14.0667 91.2109 13.9333 91.1442 13.8C91.0776 13.65 90.9942 13.5083 90.8942 13.375C90.8276 13.2917 90.7692 13.2083 90.7192 13.125C90.6692 13.0417 90.6109 12.9667 90.5442 12.9C90.4776 12.8167 90.4109 12.75 90.3442 12.7C90.2942 12.65 90.2359 12.6 90.1692 12.55C90.1192 12.5167 90.0609 12.4833 89.9942 12.45C89.9442 12.4167 89.8942 12.3917 89.8442 12.375C89.7109 12.325 89.5692 12.2917 89.4192 12.275C89.2692 12.2417 89.1192 12.2167 88.9692 12.2C88.8026 12.1833 88.6359 12.175 88.4692 12.175C88.3192 12.1583 88.1609 12.1667 87.9942 12.2H87.8192C87.6359 12.2 87.4526 12.2167 87.2692 12.25C87.1026 12.2667 86.9276 12.2917 86.7442 12.325C86.5942 12.3583 86.4359 12.3917 86.2692 12.425C86.1192 12.4583 85.9692 12.4917 85.8192 12.525C85.7359 12.5417 85.6526 12.5667 85.5692 12.6C85.4859 12.6333 85.4026 12.675 85.3192 12.725H85.3442C85.3109 12.725 85.2776 12.7333 85.2442 12.75C85.2109 12.75 85.1776 12.7583 85.1442 12.775C85.0276 12.7917 84.9276 12.8667 84.8442 13C84.8442 13.05 84.8192 13.075 84.7692 13.075C84.7026 13.1083 84.6359 13.15 84.5692 13.2C84.5026 13.25 84.4276 13.2917 84.3442 13.325C84.3442 13.3417 84.3276 13.35 84.2942 13.35C84.2609 13.3833 84.2442 13.3833 84.2442 13.35C84.2276 13.35 84.2192 13.3333 84.2192 13.3C84.2526 13.2333 84.2692 13.1917 84.2692 13.175C84.2692 13.175 84.2692 13.1667 84.2692 13.15H84.2442C84.1942 13.1667 84.1442 13.1833 84.0942 13.2C84.0442 13.2167 83.9942 13.2417 83.9442 13.275C83.6942 13.4083 83.5359 13.6 83.4692 13.85L83.3942 14.15C83.3442 14.2833 83.2442 14.375 83.0942 14.425C82.9442 14.475 82.8026 14.4583 82.6692 14.375C82.5692 14.3083 82.5109 14.225 82.4942 14.125C82.4776 14.0583 82.4609 13.9917 82.4442 13.925C82.4276 13.8417 82.4192 13.7667 82.4192 13.7C82.4192 13.5167 82.3776 13.3417 82.2942 13.175C82.2109 12.975 82.1526 12.7667 82.1192 12.55C82.0859 12.3333 82.0942 12.1167 82.1442 11.9C82.1609 11.8333 82.1609 11.7667 82.1442 11.7C82.1442 11.6333 82.1442 11.5667 82.1442 11.5C82.1276 11.4167 82.1192 11.3417 82.1192 11.275C82.1192 11.1917 82.1192 11.1167 82.1192 11.05C82.1359 10.9833 82.1442 10.9167 82.1442 10.85C82.1442 10.7833 82.1442 10.7167 82.1442 10.65C82.1609 9.8 82.1609 8.94167 82.1442 8.075V8.05C82.1276 7.75 82.1276 7.45833 82.1442 7.175C82.1609 7.04167 82.1692 6.9 82.1692 6.75C82.1859 6.6 82.2026 6.45833 82.2192 6.325C82.2359 6.175 82.2526 6.03333 82.2692 5.9C82.2859 5.75 82.3026 5.6 82.3192 5.45C82.3359 5.33333 82.3442 5.225 82.3442 5.125C82.3442 5.00833 82.3442 4.89167 82.3442 4.775V4.55C82.3609 4.46667 82.3776 4.4 82.3942 4.35C82.4109 4.28333 82.4442 4.225 82.4942 4.175C82.6776 3.94167 82.9026 3.775 83.1692 3.675C83.4526 3.59167 83.7026 3.58333 83.9192 3.65C84.1026 3.71667 84.3026 3.75 84.5192 3.75C84.6359 3.73333 84.7442 3.73333 84.8442 3.75C84.9442 3.75 85.0526 3.75 85.1692 3.75C85.2359 3.75 85.2942 3.75 85.3442 3.75C85.4109 3.73333 85.4776 3.725 85.5442 3.725H85.9942L86.7192 3.65C86.7859 3.63333 86.8442 3.625 86.8942 3.625C86.9609 3.625 87.0276 3.625 87.0942 3.625C87.2776 3.60833 87.4526 3.6 87.6192 3.6C87.8026 3.6 87.9776 3.59167 88.1442 3.575C88.2276 3.55833 88.3026 3.55 88.3692 3.55C88.4359 3.55 88.5026 3.55 88.5692 3.55C88.7359 3.53333 88.9026 3.525 89.0692 3.525C89.2359 3.525 89.4026 3.525 89.5692 3.525C89.8026 3.54167 90.0276 3.55 90.2442 3.55C90.4609 3.55 90.6776 3.575 90.8942 3.625C90.9609 3.64167 91.0192 3.65833 91.0692 3.675C91.1359 3.69167 91.1942 3.71667 91.2442 3.75L91.4192 3.825C91.4526 3.84167 91.4859 3.86667 91.5192 3.9C91.5526 3.91667 91.5776 3.94167 91.5942 3.975C91.6442 4.04167 91.6942 4.11667 91.7442 4.2C91.8109 4.28333 91.8609 4.36667 91.8942 4.45C91.9276 4.46667 91.9276 4.49167 91.8942 4.525C91.8942 4.60833 91.8942 4.65 91.8942 4.65C91.9109 4.66667 91.9192 4.68333 91.9192 4.7C91.9192 4.75 91.9109 4.8 91.8942 4.85C91.8942 4.88333 91.8942 4.91667 91.8942 4.95C91.8942 4.95 91.8776 4.98333 91.8442 5.05L91.8692 5.225C91.8859 5.275 91.8776 5.31667 91.8442 5.35C91.7942 5.4 91.7359 5.475 91.6692 5.575C91.6026 5.69167 91.4942 5.8 91.3442 5.9C91.2442 5.96667 91.1776 6.025 91.1442 6.075C91.0776 6.19167 90.9776 6.25 90.8442 6.25C90.7109 6.28333 90.5776 6.28333 90.4442 6.25C90.3442 6.23333 90.2442 6.225 90.1442 6.225C90.0609 6.20833 89.9776 6.2 89.8942 6.2C89.7442 6.18333 89.5859 6.16667 89.4192 6.15C89.2692 6.13333 89.1192 6.1 88.9692 6.05C88.8359 5.98333 88.6692 5.95 88.4692 5.95C88.3026 5.95 88.1276 5.95 87.9442 5.95C87.7776 5.95 87.6026 5.94167 87.4192 5.925H87.1942C87.0942 5.925 87.0192 5.95833 86.9692 6.025C86.9526 6.04167 86.9192 6.05833 86.8692 6.075C86.8359 6.075 86.8026 6.08333 86.7692 6.1C86.6859 6.13333 86.6359 6.125 86.6192 6.075C86.6026 6.04167 86.5942 6.01667 86.5942 6C86.6109 5.98333 86.6192 5.96667 86.6192 5.95C86.6026 5.93333 86.5776 5.925 86.5442 5.925C86.5109 5.925 86.4776 5.91667 86.4442 5.9H85.8192C85.7192 5.9 85.6192 5.90833 85.5192 5.925C85.4192 5.925 85.3192 5.91667 85.2192 5.9C85.1192 5.9 85.0026 5.91667 84.8692 5.95C84.8192 5.95 84.8026 5.98333 84.8192 6.05C84.8192 6.11667 84.7942 6.15833 84.7442 6.175C84.6776 6.20833 84.6442 6.25833 84.6442 6.325C84.6109 6.55833 84.5776 6.8 84.5442 7.05C84.5109 7.28333 84.4942 7.51667 84.4942 7.75C84.4942 7.93333 84.4859 8.125 84.4692 8.325C84.4692 8.50833 84.4609 8.69167 84.4442 8.875V10.375C84.4442 10.425 84.4526 10.4667 84.4692 10.5C84.5026 10.5333 84.5276 10.55 84.5442 10.55C84.5776 10.55 84.6026 10.55 84.6192 10.55C84.6526 10.5333 84.6776 10.525 84.6942 10.525C84.8942 10.4917 85.0859 10.45 85.2692 10.4C85.4692 10.35 85.6609 10.3083 85.8442 10.275C85.9609 10.2417 86.0776 10.2167 86.1942 10.2C86.3109 10.1833 86.4276 10.1667 86.5442 10.15C86.6776 10.1167 86.8109 10.1 86.9442 10.1C87.0942 10.0833 87.2359 10.0667 87.3692 10.05C87.4692 10.05 87.5692 10.05 87.6692 10.05C87.7692 10.05 87.8692 10.0417 87.9692 10.025C88.3692 9.975 88.7692 9.975 89.1692 10.025C89.3359 10.0417 89.4942 10.0667 89.6442 10.1C89.7942 10.1167 89.9526 10.1417 90.1192 10.175C90.4192 10.2417 90.7192 10.3833 91.0192 10.6L91.6942 11.1C91.8276 11.1667 91.9359 11.25 92.0192 11.35C92.1859 11.5167 92.3442 11.6917 92.4942 11.875C92.6442 12.0583 92.7776 12.2417 92.8942 12.425C92.9609 12.525 93.0026 12.6 93.0192 12.65C93.1526 12.8333 93.2609 13.025 93.3442 13.225C93.4442 13.425 93.5109 13.6333 93.5442 13.85C93.6109 14.0667 93.6442 14.3333 93.6442 14.65C93.6609 14.8167 93.6526 14.9833 93.6192 15.15C93.5859 15.3167 93.5526 15.4917 93.5192 15.675L93.3692 16.15C93.2526 16.5 93.0526 16.8167 92.7692 17.1C92.7026 17.1833 92.6276 17.2667 92.5442 17.35C92.4776 17.4333 92.4026 17.5167 92.3192 17.6C92.2859 17.65 92.2192 17.7083 92.1192 17.775C92.0192 17.825 91.9359 17.8917 91.8692 17.975C91.7859 18.0583 91.6942 18.1417 91.5942 18.225C91.4942 18.3083 91.3776 18.3667 91.2442 18.4L91.1192 18.475C91.0859 18.5083 91.0526 18.5333 91.0192 18.55C90.9026 18.6 90.7942 18.6583 90.6942 18.725C90.6109 18.775 90.5192 18.8333 90.4192 18.9L90.1692 19.05C90.0192 19.1167 89.8692 19.1833 89.7192 19.25C89.5859 19.3167 89.4442 19.3917 89.2942 19.475L88.1192 20C88.0859 20.0167 88.0442 20.0333 87.9942 20.05C87.9609 20.0667 87.9276 20.0917 87.8942 20.125C87.8276 20.1417 87.7526 20.1667 87.6692 20.2C87.6026 20.2333 87.5276 20.2667 87.4442 20.3C87.3942 20.3167 87.3442 20.3333 87.2942 20.35C87.2442 20.3667 87.1942 20.3917 87.1442 20.425C86.9276 20.5083 86.7109 20.5917 86.4942 20.675C86.2776 20.7583 86.0526 20.8333 85.8192 20.9H85.7442C85.6942 20.9167 85.6442 20.9417 85.5942 20.975C85.5609 21.0083 85.5109 21.025 85.4442 21.025C85.3609 21.025 85.2692 21.0417 85.1692 21.075C85.1026 21.0917 85.0359 21.0917 84.9692 21.075C84.9192 21.075 84.8609 21.0833 84.7942 21.1Z" fill="#353535"/>
</svg>
