<svg width="244" height="22" viewBox="0 0 244 22" fill="none" xmlns="http://www.w3.org/2000/svg">
<path d="M6.79004 19.97C6.75004 19.95 6.69004 19.94 6.61004 19.94C6.57004 19.94 6.53004 19.91 6.49004 19.85C6.45004 19.79 6.41004 19.74 6.37004 19.7C6.33004 19.64 6.29004 19.57 6.25004 19.49C6.19004 19.41 6.14004 19.41 6.10004 19.49H6.04004C6.04004 19.47 6.03004 19.46 6.01004 19.46C6.01004 19.44 6.01004 19.43 6.01004 19.43C5.95004 19.15 5.86004 18.89 5.74004 18.65C5.68004 18.49 5.62004 18.33 5.56004 18.17C5.52004 17.99 5.49004 17.81 5.47004 17.63L5.29004 16.31L5.20004 15.23V15.17C5.16004 14.93 5.14004 14.69 5.14004 14.45C5.14004 14.19 5.14004 13.93 5.14004 13.67C5.12004 13.53 5.11004 13.4 5.11004 13.28C5.11004 13.14 5.10004 13 5.08004 12.86C5.06004 12.7 5.04004 12.54 5.02004 12.38C5.02004 12.22 5.02004 12.07 5.02004 11.93L5.05004 9.56V6.35C5.01004 6.23 4.95004 6.17 4.87004 6.17C4.83004 6.17 4.78004 6.18 4.72004 6.2C4.68004 6.2 4.64004 6.2 4.60004 6.2L3.25004 6.56C3.07004 6.62 2.89004 6.68 2.71004 6.74C2.53004 6.78 2.35004 6.83 2.17004 6.89C2.03004 6.91 1.89004 6.93 1.75004 6.95C1.63004 6.95 1.50004 6.95 1.36004 6.95C1.26004 6.95 1.15004 6.91 1.03004 6.83C0.890039 6.77 0.770039 6.69 0.670039 6.59C0.570039 6.49 0.470039 6.38 0.370039 6.26L0.310039 6.17C0.270039 6.03 0.230039 5.9 0.190039 5.78C0.170039 5.64 0.170039 5.5 0.190039 5.36C0.210039 5.18 0.250039 5.01 0.310039 4.85C0.390039 4.69 0.500039 4.55 0.640039 4.43C0.700039 4.39 0.750039 4.34 0.790039 4.28C0.850039 4.22 0.910039 4.16 0.970039 4.1C1.05004 4.06 1.10004 4.04 1.12004 4.04C1.24004 4.04 1.35004 4.02 1.45004 3.98C1.55004 3.92 1.65004 3.88 1.75004 3.86C1.85004 3.84 1.95004 3.82 2.05004 3.8C2.15004 3.78 2.25004 3.76 2.35004 3.74C2.63004 3.66 2.91004 3.59 3.19004 3.53C3.47004 3.45 3.75004 3.39 4.03004 3.35L5.65004 3.08C5.69004 3.06 5.72004 3.05 5.74004 3.05C5.78004 3.05 5.81004 3.04 5.83004 3.02C5.95004 2.98 6.07004 2.95 6.19004 2.93C6.31004 2.91 6.43004 2.92 6.55004 2.96C6.59004 2.98 6.62004 2.99 6.64004 2.99C6.68004 2.97 6.71004 2.96 6.73004 2.96C7.07004 2.92 7.41004 2.88 7.75004 2.84C8.09004 2.8 8.42004 2.75 8.74004 2.69C9.00004 2.65 9.26004 2.61 9.52004 2.57C9.78004 2.53 10.04 2.5 10.3 2.48C10.5 2.44 10.7 2.41 10.9 2.39C11.1 2.37 11.3 2.35 11.5 2.33C11.66 2.31 11.82 2.29 11.98 2.27C12.16 2.25 12.33 2.23 12.49 2.21C12.65 2.19 12.8 2.19 12.94 2.21C13.1 2.21 13.26 2.21 13.42 2.21C13.52 2.21 13.61 2.24 13.69 2.3C13.79 2.36 13.88 2.41 13.96 2.45C14.04 2.51 14.15 2.61 14.29 2.75C14.33 2.79 14.37 2.88 14.41 3.02C14.43 3.08 14.45 3.15 14.47 3.23C14.49 3.29 14.51 3.36 14.53 3.44C14.57 3.62 14.55 3.79 14.47 3.95L14.29 4.37C14.27 4.43 14.24 4.49 14.2 4.55C14.18 4.59 14.15 4.63 14.11 4.67C14.07 4.71 14.05 4.73 14.05 4.73C13.97 4.79 13.88 4.85 13.78 4.91C13.7 4.97 13.6 5.01 13.48 5.03L12.19 5.12C12.07 5.12 11.95 5.13 11.83 5.15C11.71 5.15 11.58 5.16 11.44 5.18H11.29C10.97 5.2 10.66 5.23 10.36 5.27C10.06 5.31 9.76004 5.35 9.46004 5.39L8.26004 5.57C8.20004 5.57 8.16004 5.58 8.14004 5.6C8.06004 5.6 8.00004 5.66 7.96004 5.78V5.87C7.96004 6.07 7.96004 6.27 7.96004 6.47C7.96004 6.65 7.97004 6.84 7.99004 7.04C8.05004 7.32 8.05004 7.6 7.99004 7.88C7.97004 7.94 7.95004 8 7.93004 8.06C7.93004 8.1 7.93004 8.14 7.93004 8.18C7.95004 8.42 7.93004 8.68 7.87004 8.96C7.87004 9.02 7.87004 9.08 7.87004 9.14C7.87004 9.2 7.88004 9.26 7.90004 9.32C7.92004 9.4 7.93004 9.49 7.93004 9.59C7.93004 9.69 7.93004 9.79 7.93004 9.89V11.45C7.93004 11.53 7.92004 11.63 7.90004 11.75C7.90004 11.85 7.90004 11.95 7.90004 12.05C7.90004 12.13 7.90004 12.22 7.90004 12.32C7.92004 12.42 7.93004 12.52 7.93004 12.62C7.93004 12.76 7.93004 12.9 7.93004 13.04C7.95004 13.18 7.95004 13.33 7.93004 13.49V14.42C7.93004 14.44 7.92004 14.46 7.90004 14.48C7.90004 14.5 7.91004 14.53 7.93004 14.57C7.95004 14.75 7.96004 14.94 7.96004 15.14C7.96004 15.32 7.98004 15.5 8.02004 15.68C8.02004 15.74 8.02004 15.8 8.02004 15.86C8.04004 15.92 8.04004 15.98 8.02004 16.04C8.02004 16.22 8.04004 16.41 8.08004 16.61C8.12004 16.79 8.15004 16.97 8.17004 17.15C8.21004 17.37 8.25004 17.59 8.29004 17.81C8.35004 18.03 8.40004 18.25 8.44004 18.47L8.53004 18.89C8.53004 18.95 8.50004 19 8.44004 19.04C8.44004 19.04 8.43004 19.04 8.41004 19.04C8.41004 19.04 8.40004 19.05 8.38004 19.07C8.28004 19.11 8.24004 19.17 8.26004 19.25V19.4C8.26004 19.4 8.25004 19.41 8.23004 19.43C8.23004 19.45 8.22004 19.46 8.20004 19.46C8.10004 19.46 8.02004 19.5 7.96004 19.58C7.90004 19.66 7.83004 19.73 7.75004 19.79C7.69004 19.83 7.61004 19.87 7.51004 19.91C7.25004 20.01 7.01004 20.03 6.79004 19.97ZM19.5893 20.3C19.4693 20.3 19.3893 20.29 19.3493 20.27C19.2693 20.23 19.1993 20.2 19.1393 20.18C19.0793 20.16 19.0193 20.14 18.9593 20.12C18.8993 20.08 18.8393 20.04 18.7793 20C18.7393 19.94 18.6993 19.88 18.6593 19.82C18.6193 19.78 18.5793 19.76 18.5393 19.76C18.4193 19.76 18.3593 19.7 18.3593 19.58C18.3393 19.46 18.3193 19.34 18.2993 19.22C18.2793 19.1 18.2593 18.98 18.2393 18.86C18.2193 18.68 18.1993 18.5 18.1793 18.32C18.1793 18.14 18.1593 17.97 18.1193 17.81V17.54C18.1193 17.46 18.1093 17.39 18.0893 17.33C18.0893 17.27 18.0893 17.2 18.0893 17.12C18.0493 17.02 18.0493 16.94 18.0893 16.88C18.1293 16.52 18.1293 16.16 18.0893 15.8C18.0693 15.7 18.0593 15.6 18.0593 15.5C18.0593 15.4 18.0493 15.3 18.0293 15.2C18.0293 15 18.0293 14.8 18.0293 14.6C18.0293 14.38 18.0093 14.17 17.9693 13.97V13.49C17.9693 13.33 17.9593 13.18 17.9393 13.04C17.9393 12.9 17.9293 12.76 17.9093 12.62C17.8893 12.44 17.8693 12.26 17.8493 12.08C17.8493 11.9 17.8393 11.72 17.8193 11.54C17.7993 11.5 17.7893 11.43 17.7893 11.33C17.7693 11.23 17.7493 11.13 17.7293 11.03C17.7293 10.91 17.7293 10.8 17.7293 10.7L17.6393 9.2C17.6193 9.04 17.5993 8.89 17.5793 8.75C17.5793 8.59 17.5793 8.44 17.5793 8.3C17.5593 8.06 17.5393 7.82 17.5193 7.58C17.4993 7.34 17.4793 7.11 17.4593 6.89C17.4593 6.85 17.4493 6.81 17.4293 6.77C17.4293 6.73 17.4293 6.7 17.4293 6.68C17.4293 6.44 17.4193 6.2 17.3993 5.96C17.3793 5.72 17.3593 5.47 17.3393 5.21L17.2493 4.37C17.1893 4.05 17.1793 3.7 17.2193 3.32C17.2193 3.14 17.2893 2.99 17.4293 2.87C17.4693 2.83 17.4993 2.81 17.5193 2.81C17.5393 2.79 17.5593 2.77 17.5793 2.75C17.6793 2.73 17.7293 2.66 17.7293 2.54C17.7293 2.5 17.7693 2.48 17.8493 2.48H17.9993C18.0193 2.48 18.0293 2.48 18.0293 2.48C18.0493 2.46 18.0693 2.45 18.0893 2.45C18.1293 2.43 18.1593 2.41 18.1793 2.39C18.2193 2.35 18.2493 2.33 18.2693 2.33C18.3093 2.33 18.3493 2.34 18.3893 2.36C18.4293 2.36 18.4693 2.37 18.5093 2.39C18.5493 2.39 18.5793 2.38 18.5993 2.36C18.6993 2.34 18.7993 2.35 18.8993 2.39C19.0193 2.41 19.1193 2.44 19.1993 2.48C19.3193 2.5 19.4093 2.58 19.4693 2.72C19.5293 2.9 19.5793 3.08 19.6193 3.26C19.6793 3.42 19.7193 3.59 19.7393 3.77V4.01C19.7793 4.15 19.7993 4.3 19.7993 4.46C19.7993 4.6 19.7993 4.75 19.7993 4.91C19.7993 5.05 19.7993 5.19 19.7993 5.33C19.8193 5.45 19.8393 5.57 19.8593 5.69C19.8593 5.75 19.8593 5.81 19.8593 5.87C19.8593 5.93 19.8693 5.99 19.8893 6.05C19.8893 6.17 19.8893 6.29 19.8893 6.41C19.9093 6.53 19.9293 6.66 19.9493 6.8C19.9693 7.02 19.9893 7.25 20.0093 7.49C20.0293 7.73 20.0393 7.97 20.0393 8.21C20.0393 8.31 20.0393 8.42 20.0393 8.54C20.0393 8.64 20.0493 8.74 20.0693 8.84C20.0893 8.9 20.0993 8.96 20.0993 9.02C20.0993 9.08 20.0993 9.14 20.0993 9.2V9.8C20.0993 9.92 20.1093 10.02 20.1293 10.1C20.1693 10.24 20.1793 10.38 20.1593 10.52C20.1593 10.64 20.1693 10.77 20.1893 10.91L20.2793 12.29C20.2993 12.49 20.3093 12.7 20.3093 12.92C20.3293 13.12 20.3393 13.33 20.3393 13.55C20.3393 13.63 20.3393 13.72 20.3393 13.82C20.3393 13.9 20.3493 13.98 20.3693 14.06C20.3893 14.12 20.3993 14.18 20.3993 14.24C20.3993 14.3 20.3993 14.36 20.3993 14.42C20.4193 14.44 20.4193 14.48 20.3993 14.54C20.3993 14.58 20.4093 14.62 20.4293 14.66C20.4693 14.8 20.4893 14.94 20.4893 15.08C20.4893 15.22 20.4893 15.37 20.4893 15.53C20.4893 15.61 20.4893 15.7 20.4893 15.8C20.5093 15.88 20.5193 15.97 20.5193 16.07C20.5393 16.17 20.5493 16.28 20.5493 16.4C20.5493 16.52 20.5493 16.63 20.5493 16.73C20.5693 16.83 20.5793 16.94 20.5793 17.06C20.5793 17.16 20.5893 17.26 20.6093 17.36C20.6293 17.4 20.6393 17.44 20.6393 17.48C20.6393 17.7 20.6593 17.92 20.6993 18.14C20.7393 18.36 20.7793 18.58 20.8193 18.8C20.8393 18.86 20.8493 18.93 20.8493 19.01C20.8493 19.07 20.8493 19.13 20.8493 19.19C20.8493 19.25 20.8293 19.3 20.7893 19.34C20.7093 19.4 20.6493 19.52 20.6093 19.7C20.6093 19.76 20.5793 19.81 20.5193 19.85C20.3793 19.91 20.2593 19.99 20.1593 20.09C19.9993 20.23 19.8093 20.3 19.5893 20.3ZM35.0156 20.27C34.9556 20.25 34.8856 20.23 34.8056 20.21C34.7456 20.19 34.6856 20.17 34.6256 20.15C34.4656 20.09 34.3056 20.01 34.1456 19.91C34.0656 19.87 34.0056 19.81 33.9656 19.73C33.8256 19.51 33.6956 19.31 33.5756 19.13C33.4556 18.93 33.3256 18.73 33.1856 18.53L32.9156 18.05C32.7756 17.77 32.6356 17.5 32.4956 17.24C32.3556 16.96 32.2156 16.69 32.0756 16.43C32.0356 16.33 31.9856 16.25 31.9256 16.19C31.8856 16.11 31.8456 16.03 31.8056 15.95C31.6656 15.73 31.5356 15.51 31.4156 15.29C31.2956 15.05 31.1756 14.82 31.0556 14.6L30.3056 13.13C30.1056 12.73 29.9056 12.34 29.7056 11.96C29.5056 11.56 29.3056 11.16 29.1056 10.76C29.0656 10.72 29.0256 10.66 28.9856 10.58C28.9056 10.36 28.8056 10.15 28.6856 9.95C28.5856 9.75 28.4856 9.55 28.3856 9.35C28.3056 9.21 28.2356 9.07 28.1756 8.93C28.1156 8.77 28.0456 8.62 27.9656 8.48L27.6356 7.88C27.5956 7.88 27.5656 7.87 27.5456 7.85C27.5456 7.85 27.5356 7.86 27.5156 7.88C27.5156 7.88 27.5156 7.89 27.5156 7.91C27.4956 8.17 27.4756 8.44 27.4556 8.72C27.4356 9 27.4356 9.28 27.4556 9.56C27.4956 9.68 27.4956 9.81 27.4556 9.95C27.4156 10.31 27.4256 10.63 27.4856 10.91C27.5056 10.99 27.5056 11.07 27.4856 11.15C27.4856 11.23 27.4756 11.32 27.4556 11.42C27.4356 11.56 27.4256 11.69 27.4256 11.81C27.4256 11.93 27.4156 12.06 27.3956 12.2C27.4356 12.28 27.4556 12.37 27.4556 12.47C27.4556 12.55 27.4456 12.63 27.4256 12.71C27.3656 12.91 27.3656 13.12 27.4256 13.34C27.4656 13.4 27.4656 13.46 27.4256 13.52C27.3456 13.7 27.3256 13.92 27.3656 14.18C27.4256 14.52 27.4056 14.89 27.3056 15.29C27.2856 15.33 27.2756 15.4 27.2756 15.5C27.2556 15.58 27.2756 15.65 27.3356 15.71C27.4156 15.75 27.4356 15.8 27.3956 15.86C27.3756 16.12 27.3756 16.39 27.3956 16.67C27.3956 16.67 27.3956 16.68 27.3956 16.7C27.3956 16.7 27.3856 16.7 27.3656 16.7C27.3456 16.7 27.3356 16.69 27.3356 16.67C27.3156 16.65 27.3056 16.63 27.3056 16.61C27.2656 16.57 27.2456 16.58 27.2456 16.64C27.2456 16.74 27.2556 16.8 27.2756 16.82C27.3156 16.92 27.3356 17.02 27.3356 17.12C27.3356 17.22 27.3356 17.32 27.3356 17.42V18.35C27.3356 18.41 27.3256 18.47 27.3056 18.53C27.3056 18.59 27.2756 18.64 27.2156 18.68C27.1356 18.7 27.0956 18.77 27.0956 18.89C27.0756 19.11 26.9956 19.3 26.8556 19.46C26.7356 19.62 26.5956 19.76 26.4356 19.88C26.3556 19.94 26.2556 19.98 26.1356 20C26.0356 20 25.9356 19.99 25.8356 19.97L25.2956 19.79C25.2556 19.79 25.2156 19.76 25.1756 19.7C25.1156 19.64 25.0556 19.58 24.9956 19.52C24.9356 19.44 24.8656 19.37 24.7856 19.31C24.6856 19.25 24.6156 19.14 24.5756 18.98C24.5556 18.88 24.5256 18.77 24.4856 18.65C24.4456 18.53 24.4256 18.41 24.4256 18.29C24.4256 18.15 24.4256 18.02 24.4256 17.9C24.4456 17.78 24.4556 17.65 24.4556 17.51C24.4756 17.41 24.4856 17.32 24.4856 17.24C24.4856 17.14 24.4956 17.04 24.5156 16.94V5.96C24.5156 5.86 24.5156 5.76 24.5156 5.66C24.5356 5.56 24.5556 5.47 24.5756 5.39C24.5756 5.29 24.5756 5.19 24.5756 5.09C24.5956 4.99 24.6056 4.89 24.6056 4.79C24.6056 4.67 24.6056 4.55 24.6056 4.43C24.6256 4.31 24.6456 4.2 24.6656 4.1C24.6856 4.02 24.6956 3.95 24.6956 3.89C24.6956 3.83 24.6956 3.76 24.6956 3.68V2.75C24.6956 2.61 24.7056 2.49 24.7256 2.39C24.7656 2.27 24.7956 2.15 24.8156 2.03L24.9056 1.88C24.9656 1.82 25.0156 1.73 25.0556 1.61C25.0956 1.49 25.1556 1.43 25.2356 1.43C25.2956 1.39 25.3556 1.36 25.4156 1.34C25.4756 1.3 25.5156 1.24 25.5356 1.16L25.5656 1.13C25.5856 1.13 25.6056 1.13 25.6256 1.13C25.6456 1.11 25.6656 1.1 25.6856 1.1C25.7656 1.1 25.8256 1.08 25.8656 1.04C25.9256 1 25.9956 0.99 26.0756 1.01C26.1556 1.03 26.2356 1.04 26.3156 1.04C26.3956 1.04 26.4756 1.05 26.5556 1.07C26.9956 1.15 27.3056 1.41 27.4856 1.85L27.6656 2.45C27.6856 2.65 27.7756 2.84 27.9356 3.02C28.0556 3.16 28.1756 3.31 28.2956 3.47C28.4156 3.63 28.5456 3.79 28.6856 3.95C29.2056 4.61 29.6856 5.35 30.1256 6.17C30.1656 6.25 30.2056 6.33 30.2456 6.41C30.2856 6.49 30.3256 6.57 30.3656 6.65L31.9256 9.8C32.0456 10.02 32.1556 10.25 32.2556 10.49C32.3756 10.71 32.5056 10.93 32.6456 11.15C32.6856 11.23 32.7256 11.31 32.7656 11.39C32.8056 11.45 32.8356 11.52 32.8556 11.6C32.9556 11.84 33.0756 12.08 33.2156 12.32C33.2156 12.32 33.2156 12.33 33.2156 12.35C33.2356 12.35 33.2456 12.34 33.2456 12.32C33.2656 12.32 33.2756 12.32 33.2756 12.32C33.2956 12.3 33.3056 12.29 33.3056 12.29L33.3956 11.24V10.94C33.4156 10.84 33.4256 10.74 33.4256 10.64C33.4456 10.52 33.4656 10.41 33.4856 10.31C33.5056 10.25 33.5056 10.18 33.4856 10.1C33.4856 10.02 33.4956 9.94 33.5156 9.86C33.5156 9.74 33.5156 9.62 33.5156 9.5C33.5356 9.36 33.5556 9.23 33.5756 9.11C33.5956 9.05 33.6056 8.99 33.6056 8.93C33.6056 8.85 33.6056 8.78 33.6056 8.72V7.91H33.5756V7.1C33.5756 7 33.5756 6.9 33.5756 6.8C33.5756 6.7 33.5556 6.6 33.5156 6.5C33.4956 6.44 33.4856 6.35 33.4856 6.23L33.5156 6.02C33.5156 5.96 33.5056 5.91 33.4856 5.87C33.4856 5.81 33.4856 5.75 33.4856 5.69C33.5056 5.61 33.4956 5.53 33.4556 5.45C33.4156 5.37 33.3956 5.29 33.3956 5.21C33.4156 5.13 33.4256 5.05 33.4256 4.97C33.4256 4.89 33.4256 4.81 33.4256 4.73C33.4256 4.65 33.3856 4.61 33.3056 4.61C33.2856 4.61 33.2756 4.59 33.2756 4.55C33.2556 4.49 33.2556 4.44 33.2756 4.4C33.3156 4.3 33.3356 4.19 33.3356 4.07C33.3356 3.95 33.3356 3.83 33.3356 3.71V2.84C33.3156 2.72 33.3256 2.6 33.3656 2.48C33.4056 2.36 33.4556 2.25 33.5156 2.15L33.6356 1.97C33.7356 1.87 33.8456 1.77 33.9656 1.67C34.0856 1.57 34.2056 1.47 34.3256 1.37C34.3256 1.37 34.3656 1.35 34.4456 1.31C34.5456 1.29 34.6356 1.27 34.7156 1.25C34.8156 1.23 34.9156 1.23 35.0156 1.25C35.0956 1.25 35.1556 1.26 35.1956 1.28C35.2756 1.32 35.3556 1.37 35.4356 1.43C35.5156 1.47 35.5956 1.52 35.6756 1.58C35.7156 1.6 35.7356 1.62 35.7356 1.64C35.7556 1.66 35.7756 1.68 35.7956 1.7C35.8356 1.74 35.8656 1.79 35.8856 1.85C35.9256 1.89 35.9556 1.93 35.9756 1.97C36.0756 2.05 36.1356 2.15 36.1556 2.27C36.1956 2.37 36.2256 2.47 36.2456 2.57V3.83C36.2456 3.97 36.2456 4.11 36.2456 4.25C36.2656 4.37 36.2856 4.5 36.3056 4.64C36.3256 4.72 36.3356 4.8 36.3356 4.88C36.3356 4.94 36.3356 5.01 36.3356 5.09C36.3356 5.25 36.3356 5.42 36.3356 5.6C36.3556 5.76 36.3656 5.92 36.3656 6.08V6.29C36.3656 6.43 36.3556 6.57 36.3356 6.71C36.3356 6.83 36.3356 6.96 36.3356 7.1V8.42C36.3356 8.62 36.3256 8.83 36.3056 9.05C36.3056 9.25 36.3156 9.46 36.3356 9.68C36.3356 9.76 36.3256 9.82 36.3056 9.86C36.2856 10.06 36.2756 10.26 36.2756 10.46C36.2756 10.64 36.2656 10.83 36.2456 11.03C36.2456 11.11 36.2456 11.2 36.2456 11.3C36.2456 11.4 36.2356 11.5 36.2156 11.6C36.1956 11.68 36.1856 11.76 36.1856 11.84C36.2056 11.92 36.2156 12 36.2156 12.08C36.2556 12.26 36.2656 12.44 36.2456 12.62C36.2456 12.8 36.2356 12.98 36.2156 13.16C36.1956 13.48 36.1756 13.81 36.1556 14.15C36.1556 14.47 36.1756 14.8 36.2156 15.14C36.2156 15.22 36.2156 15.31 36.2156 15.41C36.2356 15.51 36.2456 15.61 36.2456 15.71C36.2256 16.01 36.2356 16.3 36.2756 16.58C36.3356 16.86 36.3956 17.14 36.4556 17.42C36.4956 17.62 36.5356 17.82 36.5756 18.02C36.6156 18.2 36.6456 18.4 36.6656 18.62C36.6656 18.7 36.6556 18.75 36.6356 18.77C36.6156 18.81 36.5956 18.86 36.5756 18.92C36.5556 18.96 36.5456 19 36.5456 19.04C36.5256 19.2 36.4656 19.35 36.3656 19.49C36.2856 19.63 36.1956 19.77 36.0956 19.91C35.8356 20.25 35.4756 20.37 35.0156 20.27ZM57.3857 19.97C57.3457 19.95 57.2857 19.94 57.2057 19.94C57.1657 19.94 57.1257 19.91 57.0857 19.85C57.0457 19.79 57.0057 19.74 56.9657 19.7C56.9257 19.64 56.8857 19.57 56.8457 19.49C56.7857 19.41 56.7357 19.41 56.6957 19.49H56.6357C56.6357 19.47 56.6257 19.46 56.6057 19.46C56.6057 19.44 56.6057 19.43 56.6057 19.43C56.5457 19.15 56.4557 18.89 56.3357 18.65C56.2757 18.49 56.2157 18.33 56.1557 18.17C56.1157 17.99 56.0857 17.81 56.0657 17.63L55.8857 16.31L55.7957 15.23V15.17C55.7557 14.93 55.7357 14.69 55.7357 14.45C55.7357 14.19 55.7357 13.93 55.7357 13.67C55.7157 13.53 55.7057 13.4 55.7057 13.28C55.7057 13.14 55.6957 13 55.6757 12.86C55.6557 12.7 55.6357 12.54 55.6157 12.38C55.6157 12.22 55.6157 12.07 55.6157 11.93L55.6457 9.56V6.35C55.6057 6.23 55.5457 6.17 55.4657 6.17C55.4257 6.17 55.3757 6.18 55.3157 6.2C55.2757 6.2 55.2357 6.2 55.1957 6.2L53.8457 6.56C53.6657 6.62 53.4857 6.68 53.3057 6.74C53.1257 6.78 52.9457 6.83 52.7657 6.89C52.6257 6.91 52.4857 6.93 52.3457 6.95C52.2257 6.95 52.0957 6.95 51.9557 6.95C51.8557 6.95 51.7457 6.91 51.6257 6.83C51.4857 6.77 51.3657 6.69 51.2657 6.59C51.1657 6.49 51.0657 6.38 50.9657 6.26L50.9057 6.17C50.8657 6.03 50.8257 5.9 50.7857 5.78C50.7657 5.64 50.7657 5.5 50.7857 5.36C50.8057 5.18 50.8457 5.01 50.9057 4.85C50.9857 4.69 51.0957 4.55 51.2357 4.43C51.2957 4.39 51.3457 4.34 51.3857 4.28C51.4457 4.22 51.5057 4.16 51.5657 4.1C51.6457 4.06 51.6957 4.04 51.7157 4.04C51.8357 4.04 51.9457 4.02 52.0457 3.98C52.1457 3.92 52.2457 3.88 52.3457 3.86C52.4457 3.84 52.5457 3.82 52.6457 3.8C52.7457 3.78 52.8457 3.76 52.9457 3.74C53.2257 3.66 53.5057 3.59 53.7857 3.53C54.0657 3.45 54.3457 3.39 54.6257 3.35L56.2457 3.08C56.2857 3.06 56.3157 3.05 56.3357 3.05C56.3757 3.05 56.4057 3.04 56.4257 3.02C56.5457 2.98 56.6657 2.95 56.7857 2.93C56.9057 2.91 57.0257 2.92 57.1457 2.96C57.1857 2.98 57.2157 2.99 57.2357 2.99C57.2757 2.97 57.3057 2.96 57.3257 2.96C57.6657 2.92 58.0057 2.88 58.3457 2.84C58.6857 2.8 59.0157 2.75 59.3357 2.69C59.5957 2.65 59.8557 2.61 60.1157 2.57C60.3757 2.53 60.6357 2.5 60.8957 2.48C61.0957 2.44 61.2957 2.41 61.4957 2.39C61.6957 2.37 61.8957 2.35 62.0957 2.33C62.2557 2.31 62.4157 2.29 62.5757 2.27C62.7557 2.25 62.9257 2.23 63.0857 2.21C63.2457 2.19 63.3957 2.19 63.5357 2.21C63.6957 2.21 63.8557 2.21 64.0157 2.21C64.1157 2.21 64.2057 2.24 64.2857 2.3C64.3857 2.36 64.4757 2.41 64.5557 2.45C64.6357 2.51 64.7457 2.61 64.8857 2.75C64.9257 2.79 64.9657 2.88 65.0057 3.02C65.0257 3.08 65.0457 3.15 65.0657 3.23C65.0857 3.29 65.1057 3.36 65.1257 3.44C65.1657 3.62 65.1457 3.79 65.0657 3.95L64.8857 4.37C64.8657 4.43 64.8357 4.49 64.7957 4.55C64.7757 4.59 64.7457 4.63 64.7057 4.67C64.6657 4.71 64.6457 4.73 64.6457 4.73C64.5657 4.79 64.4757 4.85 64.3757 4.91C64.2957 4.97 64.1957 5.01 64.0757 5.03L62.7857 5.12C62.6657 5.12 62.5457 5.13 62.4257 5.15C62.3057 5.15 62.1757 5.16 62.0357 5.18H61.8857C61.5657 5.2 61.2557 5.23 60.9557 5.27C60.6557 5.31 60.3557 5.35 60.0557 5.39L58.8557 5.57C58.7957 5.57 58.7557 5.58 58.7357 5.6C58.6557 5.6 58.5957 5.66 58.5557 5.78V5.87C58.5557 6.07 58.5557 6.27 58.5557 6.47C58.5557 6.65 58.5657 6.84 58.5857 7.04C58.6457 7.32 58.6457 7.6 58.5857 7.88C58.5657 7.94 58.5457 8 58.5257 8.06C58.5257 8.1 58.5257 8.14 58.5257 8.18C58.5457 8.42 58.5257 8.68 58.4657 8.96C58.4657 9.02 58.4657 9.08 58.4657 9.14C58.4657 9.2 58.4757 9.26 58.4957 9.32C58.5157 9.4 58.5257 9.49 58.5257 9.59C58.5257 9.69 58.5257 9.79 58.5257 9.89V11.45C58.5257 11.53 58.5157 11.63 58.4957 11.75C58.4957 11.85 58.4957 11.95 58.4957 12.05C58.4957 12.13 58.4957 12.22 58.4957 12.32C58.5157 12.42 58.5257 12.52 58.5257 12.62C58.5257 12.76 58.5257 12.9 58.5257 13.04C58.5457 13.18 58.5457 13.33 58.5257 13.49V14.42C58.5257 14.44 58.5157 14.46 58.4957 14.48C58.4957 14.5 58.5057 14.53 58.5257 14.57C58.5457 14.75 58.5557 14.94 58.5557 15.14C58.5557 15.32 58.5757 15.5 58.6157 15.68C58.6157 15.74 58.6157 15.8 58.6157 15.86C58.6357 15.92 58.6357 15.98 58.6157 16.04C58.6157 16.22 58.6357 16.41 58.6757 16.61C58.7157 16.79 58.7457 16.97 58.7657 17.15C58.8057 17.37 58.8457 17.59 58.8857 17.81C58.9457 18.03 58.9957 18.25 59.0357 18.47L59.1257 18.89C59.1257 18.95 59.0957 19 59.0357 19.04C59.0357 19.04 59.0257 19.04 59.0057 19.04C59.0057 19.04 58.9957 19.05 58.9757 19.07C58.8757 19.11 58.8357 19.17 58.8557 19.25V19.4C58.8557 19.4 58.8457 19.41 58.8257 19.43C58.8257 19.45 58.8157 19.46 58.7957 19.46C58.6957 19.46 58.6157 19.5 58.5557 19.58C58.4957 19.66 58.4257 19.73 58.3457 19.79C58.2857 19.83 58.2057 19.87 58.1057 19.91C57.8457 20.01 57.6057 20.03 57.3857 19.97ZM70.185 20.3C70.065 20.3 69.985 20.29 69.945 20.27C69.865 20.23 69.795 20.2 69.735 20.18C69.675 20.16 69.615 20.14 69.555 20.12C69.495 20.08 69.435 20.04 69.375 20C69.335 19.94 69.295 19.88 69.255 19.82C69.215 19.78 69.175 19.76 69.135 19.76C69.015 19.76 68.955 19.7 68.955 19.58C68.935 19.46 68.915 19.34 68.895 19.22C68.875 19.1 68.855 18.98 68.835 18.86C68.815 18.68 68.795 18.5 68.775 18.32C68.775 18.14 68.755 17.97 68.715 17.81V17.54C68.715 17.46 68.705 17.39 68.685 17.33C68.685 17.27 68.685 17.2 68.685 17.12C68.645 17.02 68.645 16.94 68.685 16.88C68.725 16.52 68.725 16.16 68.685 15.8C68.665 15.7 68.655 15.6 68.655 15.5C68.655 15.4 68.645 15.3 68.625 15.2C68.625 15 68.625 14.8 68.625 14.6C68.625 14.38 68.605 14.17 68.565 13.97V13.49C68.565 13.33 68.555 13.18 68.535 13.04C68.535 12.9 68.525 12.76 68.505 12.62C68.485 12.44 68.465 12.26 68.445 12.08C68.445 11.9 68.435 11.72 68.415 11.54C68.395 11.5 68.385 11.43 68.385 11.33C68.365 11.23 68.345 11.13 68.325 11.03C68.325 10.91 68.325 10.8 68.325 10.7L68.235 9.2C68.215 9.04 68.195 8.89 68.175 8.75C68.175 8.59 68.175 8.44 68.175 8.3C68.155 8.06 68.135 7.82 68.115 7.58C68.095 7.34 68.075 7.11 68.055 6.89C68.055 6.85 68.045 6.81 68.025 6.77C68.025 6.73 68.025 6.7 68.025 6.68C68.025 6.44 68.015 6.2 67.995 5.96C67.975 5.72 67.955 5.47 67.935 5.21L67.845 4.37C67.785 4.05 67.775 3.7 67.815 3.32C67.815 3.14 67.885 2.99 68.025 2.87C68.065 2.83 68.095 2.81 68.115 2.81C68.135 2.79 68.155 2.77 68.175 2.75C68.275 2.73 68.325 2.66 68.325 2.54C68.325 2.5 68.365 2.48 68.445 2.48H68.595C68.615 2.48 68.625 2.48 68.625 2.48C68.645 2.46 68.665 2.45 68.685 2.45C68.725 2.43 68.755 2.41 68.775 2.39C68.815 2.35 68.845 2.33 68.865 2.33C68.905 2.33 68.945 2.34 68.985 2.36C69.025 2.36 69.065 2.37 69.105 2.39C69.145 2.39 69.175 2.38 69.195 2.36C69.295 2.34 69.395 2.35 69.495 2.39C69.615 2.41 69.715 2.44 69.795 2.48C69.915 2.5 70.005 2.58 70.065 2.72C70.125 2.9 70.175 3.08 70.215 3.26C70.275 3.42 70.315 3.59 70.335 3.77V4.01C70.375 4.15 70.395 4.3 70.395 4.46C70.395 4.6 70.395 4.75 70.395 4.91C70.395 5.05 70.395 5.19 70.395 5.33C70.415 5.45 70.435 5.57 70.455 5.69C70.455 5.75 70.455 5.81 70.455 5.87C70.455 5.93 70.465 5.99 70.485 6.05C70.485 6.17 70.485 6.29 70.485 6.41C70.505 6.53 70.525 6.66 70.545 6.8C70.565 7.02 70.585 7.25 70.605 7.49C70.625 7.73 70.635 7.97 70.635 8.21C70.635 8.31 70.635 8.42 70.635 8.54C70.635 8.64 70.645 8.74 70.665 8.84C70.685 8.9 70.695 8.96 70.695 9.02C70.695 9.08 70.695 9.14 70.695 9.2V9.8C70.695 9.92 70.705 10.02 70.725 10.1C70.765 10.24 70.775 10.38 70.755 10.52C70.755 10.64 70.765 10.77 70.785 10.91L70.875 12.29C70.895 12.49 70.905 12.7 70.905 12.92C70.925 13.12 70.935 13.33 70.935 13.55C70.935 13.63 70.935 13.72 70.935 13.82C70.935 13.9 70.945 13.98 70.965 14.06C70.985 14.12 70.995 14.18 70.995 14.24C70.995 14.3 70.995 14.36 70.995 14.42C71.015 14.44 71.015 14.48 70.995 14.54C70.995 14.58 71.005 14.62 71.025 14.66C71.065 14.8 71.085 14.94 71.085 15.08C71.085 15.22 71.085 15.37 71.085 15.53C71.085 15.61 71.085 15.7 71.085 15.8C71.105 15.88 71.115 15.97 71.115 16.07C71.135 16.17 71.145 16.28 71.145 16.4C71.145 16.52 71.145 16.63 71.145 16.73C71.165 16.83 71.175 16.94 71.175 17.06C71.175 17.16 71.185 17.26 71.205 17.36C71.225 17.4 71.235 17.44 71.235 17.48C71.235 17.7 71.255 17.92 71.295 18.14C71.335 18.36 71.375 18.58 71.415 18.8C71.435 18.86 71.445 18.93 71.445 19.01C71.445 19.07 71.445 19.13 71.445 19.19C71.445 19.25 71.425 19.3 71.385 19.34C71.305 19.4 71.245 19.52 71.205 19.7C71.205 19.76 71.175 19.81 71.115 19.85C70.975 19.91 70.855 19.99 70.755 20.09C70.595 20.23 70.405 20.3 70.185 20.3ZM85.6113 20.27C85.5513 20.25 85.4813 20.23 85.4013 20.21C85.3413 20.19 85.2813 20.17 85.2213 20.15C85.0613 20.09 84.9013 20.01 84.7413 19.91C84.6613 19.87 84.6013 19.81 84.5613 19.73C84.4213 19.51 84.2913 19.31 84.1713 19.13C84.0513 18.93 83.9213 18.73 83.7813 18.53L83.5113 18.05C83.3713 17.77 83.2313 17.5 83.0913 17.24C82.9513 16.96 82.8113 16.69 82.6713 16.43C82.6313 16.33 82.5813 16.25 82.5213 16.19C82.4813 16.11 82.4413 16.03 82.4013 15.95C82.2613 15.73 82.1313 15.51 82.0113 15.29C81.8913 15.05 81.7713 14.82 81.6513 14.6L80.9013 13.13C80.7013 12.73 80.5013 12.34 80.3013 11.96C80.1013 11.56 79.9013 11.16 79.7013 10.76C79.6613 10.72 79.6213 10.66 79.5813 10.58C79.5013 10.36 79.4013 10.15 79.2813 9.95C79.1813 9.75 79.0813 9.55 78.9813 9.35C78.9013 9.21 78.8313 9.07 78.7713 8.93C78.7113 8.77 78.6413 8.62 78.5613 8.48L78.2313 7.88C78.1913 7.88 78.1613 7.87 78.1413 7.85C78.1413 7.85 78.1313 7.86 78.1113 7.88C78.1113 7.88 78.1113 7.89 78.1113 7.91C78.0913 8.17 78.0713 8.44 78.0513 8.72C78.0313 9 78.0313 9.28 78.0513 9.56C78.0913 9.68 78.0913 9.81 78.0513 9.95C78.0113 10.31 78.0213 10.63 78.0813 10.91C78.1013 10.99 78.1013 11.07 78.0813 11.15C78.0813 11.23 78.0713 11.32 78.0513 11.42C78.0313 11.56 78.0213 11.69 78.0213 11.81C78.0213 11.93 78.0113 12.06 77.9913 12.2C78.0313 12.28 78.0513 12.37 78.0513 12.47C78.0513 12.55 78.0413 12.63 78.0213 12.71C77.9613 12.91 77.9613 13.12 78.0213 13.34C78.0613 13.4 78.0613 13.46 78.0213 13.52C77.9413 13.7 77.9213 13.92 77.9613 14.18C78.0213 14.52 78.0013 14.89 77.9013 15.29C77.8813 15.33 77.8713 15.4 77.8713 15.5C77.8513 15.58 77.8713 15.65 77.9313 15.71C78.0113 15.75 78.0313 15.8 77.9913 15.86C77.9713 16.12 77.9713 16.39 77.9913 16.67C77.9913 16.67 77.9913 16.68 77.9913 16.7C77.9913 16.7 77.9813 16.7 77.9613 16.7C77.9413 16.7 77.9313 16.69 77.9313 16.67C77.9113 16.65 77.9013 16.63 77.9013 16.61C77.8613 16.57 77.8413 16.58 77.8413 16.64C77.8413 16.74 77.8513 16.8 77.8713 16.82C77.9113 16.92 77.9313 17.02 77.9313 17.12C77.9313 17.22 77.9313 17.32 77.9313 17.42V18.35C77.9313 18.41 77.9213 18.47 77.9013 18.53C77.9013 18.59 77.8713 18.64 77.8113 18.68C77.7313 18.7 77.6913 18.77 77.6913 18.89C77.6713 19.11 77.5913 19.3 77.4513 19.46C77.3313 19.62 77.1913 19.76 77.0313 19.88C76.9513 19.94 76.8513 19.98 76.7313 20C76.6313 20 76.5313 19.99 76.4313 19.97L75.8913 19.79C75.8513 19.79 75.8113 19.76 75.7713 19.7C75.7113 19.64 75.6513 19.58 75.5913 19.52C75.5313 19.44 75.4613 19.37 75.3813 19.31C75.2813 19.25 75.2113 19.14 75.1713 18.98C75.1513 18.88 75.1213 18.77 75.0813 18.65C75.0413 18.53 75.0213 18.41 75.0213 18.29C75.0213 18.15 75.0213 18.02 75.0213 17.9C75.0413 17.78 75.0513 17.65 75.0513 17.51C75.0713 17.41 75.0813 17.32 75.0813 17.24C75.0813 17.14 75.0913 17.04 75.1113 16.94V5.96C75.1113 5.86 75.1113 5.76 75.1113 5.66C75.1313 5.56 75.1513 5.47 75.1713 5.39C75.1713 5.29 75.1713 5.19 75.1713 5.09C75.1913 4.99 75.2013 4.89 75.2013 4.79C75.2013 4.67 75.2013 4.55 75.2013 4.43C75.2213 4.31 75.2413 4.2 75.2613 4.1C75.2813 4.02 75.2913 3.95 75.2913 3.89C75.2913 3.83 75.2913 3.76 75.2913 3.68V2.75C75.2913 2.61 75.3013 2.49 75.3213 2.39C75.3613 2.27 75.3913 2.15 75.4113 2.03L75.5013 1.88C75.5613 1.82 75.6113 1.73 75.6513 1.61C75.6913 1.49 75.7513 1.43 75.8313 1.43C75.8913 1.39 75.9513 1.36 76.0113 1.34C76.0713 1.3 76.1113 1.24 76.1313 1.16L76.1613 1.13C76.1813 1.13 76.2013 1.13 76.2213 1.13C76.2413 1.11 76.2613 1.1 76.2813 1.1C76.3613 1.1 76.4213 1.08 76.4613 1.04C76.5213 1 76.5913 0.99 76.6713 1.01C76.7513 1.03 76.8313 1.04 76.9113 1.04C76.9913 1.04 77.0713 1.05 77.1513 1.07C77.5913 1.15 77.9013 1.41 78.0813 1.85L78.2613 2.45C78.2813 2.65 78.3713 2.84 78.5313 3.02C78.6513 3.16 78.7713 3.31 78.8913 3.47C79.0113 3.63 79.1413 3.79 79.2813 3.95C79.8013 4.61 80.2813 5.35 80.7213 6.17C80.7613 6.25 80.8013 6.33 80.8413 6.41C80.8813 6.49 80.9213 6.57 80.9613 6.65L82.5213 9.8C82.6413 10.02 82.7513 10.25 82.8513 10.49C82.9713 10.71 83.1013 10.93 83.2413 11.15C83.2813 11.23 83.3213 11.31 83.3613 11.39C83.4013 11.45 83.4313 11.52 83.4513 11.6C83.5513 11.84 83.6713 12.08 83.8113 12.32C83.8113 12.32 83.8113 12.33 83.8113 12.35C83.8313 12.35 83.8413 12.34 83.8413 12.32C83.8613 12.32 83.8713 12.32 83.8713 12.32C83.8913 12.3 83.9013 12.29 83.9013 12.29L83.9913 11.24V10.94C84.0113 10.84 84.0213 10.74 84.0213 10.64C84.0413 10.52 84.0613 10.41 84.0813 10.31C84.1013 10.25 84.1013 10.18 84.0813 10.1C84.0813 10.02 84.0913 9.94 84.1113 9.86C84.1113 9.74 84.1113 9.62 84.1113 9.5C84.1313 9.36 84.1513 9.23 84.1713 9.11C84.1913 9.05 84.2013 8.99 84.2013 8.93C84.2013 8.85 84.2013 8.78 84.2013 8.72V7.91H84.1713V7.1C84.1713 7 84.1713 6.9 84.1713 6.8C84.1713 6.7 84.1513 6.6 84.1113 6.5C84.0913 6.44 84.0813 6.35 84.0813 6.23L84.1113 6.02C84.1113 5.96 84.1013 5.91 84.0813 5.87C84.0813 5.81 84.0813 5.75 84.0813 5.69C84.1013 5.61 84.0913 5.53 84.0513 5.45C84.0113 5.37 83.9913 5.29 83.9913 5.21C84.0113 5.13 84.0213 5.05 84.0213 4.97C84.0213 4.89 84.0213 4.81 84.0213 4.73C84.0213 4.65 83.9813 4.61 83.9013 4.61C83.8813 4.61 83.8713 4.59 83.8713 4.55C83.8513 4.49 83.8513 4.44 83.8713 4.4C83.9113 4.3 83.9313 4.19 83.9313 4.07C83.9313 3.95 83.9313 3.83 83.9313 3.71V2.84C83.9113 2.72 83.9213 2.6 83.9613 2.48C84.0013 2.36 84.0513 2.25 84.1113 2.15L84.2313 1.97C84.3313 1.87 84.4413 1.77 84.5613 1.67C84.6813 1.57 84.8013 1.47 84.9213 1.37C84.9213 1.37 84.9613 1.35 85.0413 1.31C85.1413 1.29 85.2313 1.27 85.3113 1.25C85.4113 1.23 85.5113 1.23 85.6113 1.25C85.6913 1.25 85.7513 1.26 85.7913 1.28C85.8713 1.32 85.9513 1.37 86.0313 1.43C86.1113 1.47 86.1913 1.52 86.2713 1.58C86.3113 1.6 86.3313 1.62 86.3313 1.64C86.3513 1.66 86.3713 1.68 86.3913 1.7C86.4313 1.74 86.4613 1.79 86.4813 1.85C86.5213 1.89 86.5513 1.93 86.5713 1.97C86.6713 2.05 86.7313 2.15 86.7513 2.27C86.7913 2.37 86.8213 2.47 86.8413 2.57V3.83C86.8413 3.97 86.8413 4.11 86.8413 4.25C86.8613 4.37 86.8813 4.5 86.9013 4.64C86.9213 4.72 86.9313 4.8 86.9313 4.88C86.9313 4.94 86.9313 5.01 86.9313 5.09C86.9313 5.25 86.9313 5.42 86.9313 5.6C86.9513 5.76 86.9613 5.92 86.9613 6.08V6.29C86.9613 6.43 86.9513 6.57 86.9313 6.71C86.9313 6.83 86.9313 6.96 86.9313 7.1V8.42C86.9313 8.62 86.9213 8.83 86.9013 9.05C86.9013 9.25 86.9113 9.46 86.9313 9.68C86.9313 9.76 86.9213 9.82 86.9013 9.86C86.8813 10.06 86.8713 10.26 86.8713 10.46C86.8713 10.64 86.8613 10.83 86.8413 11.03C86.8413 11.11 86.8413 11.2 86.8413 11.3C86.8413 11.4 86.8313 11.5 86.8113 11.6C86.7913 11.68 86.7813 11.76 86.7813 11.84C86.8013 11.92 86.8113 12 86.8113 12.08C86.8513 12.26 86.8613 12.44 86.8413 12.62C86.8413 12.8 86.8313 12.98 86.8113 13.16C86.7913 13.48 86.7713 13.81 86.7513 14.15C86.7513 14.47 86.7713 14.8 86.8113 15.14C86.8113 15.22 86.8113 15.31 86.8113 15.41C86.8313 15.51 86.8413 15.61 86.8413 15.71C86.8213 16.01 86.8313 16.3 86.8713 16.58C86.9313 16.86 86.9913 17.14 87.0513 17.42C87.0913 17.62 87.1313 17.82 87.1713 18.02C87.2113 18.2 87.2413 18.4 87.2613 18.62C87.2613 18.7 87.2513 18.75 87.2313 18.77C87.2113 18.81 87.1913 18.86 87.1713 18.92C87.1513 18.96 87.1413 19 87.1413 19.04C87.1213 19.2 87.0613 19.35 86.9613 19.49C86.8813 19.63 86.7913 19.77 86.6913 19.91C86.4313 20.25 86.0713 20.37 85.6113 20.27ZM105.191 21.17C104.751 21.25 104.361 21.11 104.021 20.75C103.961 20.69 103.901 20.62 103.841 20.54C103.801 20.46 103.751 20.38 103.691 20.3L103.601 20.06C103.441 19.64 103.301 19.22 103.181 18.8C103.081 18.36 103.001 17.92 102.941 17.48C102.881 17.18 102.851 16.9 102.851 16.64C102.831 16.38 102.801 16.12 102.761 15.86C102.741 15.6 102.731 15.34 102.731 15.08C102.731 14.96 102.731 14.84 102.731 14.72C102.731 14.58 102.711 14.44 102.671 14.3V14.24C102.651 14.02 102.631 13.8 102.611 13.58C102.611 13.34 102.591 13.11 102.551 12.89L102.461 11.51C102.441 11.31 102.421 11.12 102.401 10.94C102.381 10.76 102.351 10.57 102.311 10.37C102.311 10.29 102.301 10.22 102.281 10.16C102.281 10.08 102.281 10 102.281 9.92C102.281 9.76 102.281 9.6 102.281 9.44C102.281 9.28 102.271 9.13 102.251 8.99C102.231 8.91 102.221 8.8 102.221 8.66V7.7C102.241 7.42 102.231 7.14 102.191 6.86C102.151 6.58 102.111 6.31 102.071 6.05L101.801 4.43C101.781 4.39 101.771 4.34 101.771 4.28C101.771 4.22 101.771 4.17 101.771 4.13C101.771 4.09 101.771 4.04 101.771 3.98C101.771 3.92 101.761 3.87 101.741 3.83C101.681 3.61 101.671 3.41 101.711 3.23C101.751 3.03 101.801 2.83 101.861 2.63C101.881 2.61 101.911 2.56 101.951 2.48C102.051 2.38 102.141 2.29 102.221 2.21C102.301 2.11 102.401 2.03 102.521 1.97C102.641 1.93 102.731 1.84 102.791 1.7L102.881 1.49C103.081 1.13 103.391 0.879999 103.811 0.739999C103.831 0.72 103.851 0.71 103.871 0.71C103.911 0.71 103.941 0.699999 103.961 0.679998C104.221 0.559999 104.491 0.549999 104.771 0.649999C104.871 0.669999 104.971 0.699999 105.071 0.739999C105.171 0.759999 105.261 0.789999 105.341 0.829998C105.481 0.889999 105.611 0.959999 105.731 1.04C105.851 1.1 105.981 1.16 106.121 1.22C106.481 1.4 106.841 1.58 107.201 1.76C107.561 1.92 107.921 2.08 108.281 2.24L109.061 2.6C109.181 2.66 109.301 2.72 109.421 2.78C109.541 2.82 109.661 2.87 109.781 2.93L110.021 3.02C110.141 3.1 110.261 3.18 110.381 3.26C110.501 3.32 110.631 3.39 110.771 3.47C110.971 3.57 111.161 3.7 111.341 3.86C111.521 4.02 111.681 4.18 111.821 4.34C111.941 4.46 112.011 4.57 112.031 4.67C112.091 4.83 112.151 5 112.211 5.18C112.271 5.34 112.311 5.5 112.331 5.66C112.371 5.74 112.371 5.83 112.331 5.93C112.271 6.07 112.211 6.22 112.151 6.38C112.111 6.52 112.071 6.67 112.031 6.83C111.891 7.21 111.671 7.55 111.371 7.85C111.111 8.11 110.861 8.32 110.621 8.48C110.521 8.54 110.421 8.61 110.321 8.69C110.221 8.75 110.121 8.81 110.021 8.87C109.801 9.01 109.571 9.14 109.331 9.26C109.091 9.38 108.841 9.48 108.581 9.56C108.521 9.56 108.471 9.58 108.431 9.62C108.231 9.7 108.041 9.78 107.861 9.86C107.681 9.94 107.501 10.03 107.321 10.13C107.141 10.23 107.021 10.37 106.961 10.55C106.961 10.57 106.951 10.59 106.931 10.61C106.931 10.61 106.931 10.63 106.931 10.67C106.911 10.83 106.841 10.97 106.721 11.09C106.621 11.21 106.521 11.34 106.421 11.48C106.421 11.5 106.411 11.51 106.391 11.51C106.371 11.51 106.351 11.52 106.331 11.54L105.971 11.72C105.871 11.76 105.821 11.85 105.821 11.99C105.821 12.07 105.821 12.16 105.821 12.26C105.821 12.34 105.831 12.42 105.851 12.5L105.971 13.16C105.971 13.24 105.971 13.32 105.971 13.4C105.991 13.46 105.991 13.54 105.971 13.64C105.971 13.8 105.971 13.97 105.971 14.15C105.991 14.33 106.011 14.5 106.031 14.66C106.051 14.74 106.061 14.82 106.061 14.9C106.061 14.96 106.061 15.03 106.061 15.11C106.061 15.21 106.061 15.32 106.061 15.44C106.081 15.54 106.101 15.64 106.121 15.74C106.121 15.76 106.121 15.79 106.121 15.83C106.141 15.85 106.151 15.88 106.151 15.92C106.131 16.16 106.131 16.41 106.151 16.67C106.191 16.91 106.221 17.15 106.241 17.39V17.51C106.221 17.67 106.211 17.84 106.211 18.02C106.231 18.18 106.241 18.35 106.241 18.53C106.241 18.79 106.281 19.01 106.361 19.19C106.421 19.31 106.441 19.43 106.421 19.55C106.401 19.67 106.371 19.79 106.331 19.91C106.311 19.97 106.281 20.03 106.241 20.09C106.221 20.17 106.191 20.24 106.151 20.3C105.991 20.62 105.781 20.87 105.521 21.05C105.401 21.13 105.291 21.17 105.191 21.17ZM105.551 8.06L105.731 7.97C106.071 7.75 106.411 7.55 106.751 7.37C107.111 7.19 107.471 7.01 107.831 6.83L108.401 6.53C108.521 6.45 108.631 6.38 108.731 6.32C108.851 6.26 108.961 6.19 109.061 6.11C109.081 6.09 109.111 6.04 109.151 5.96C109.171 5.96 109.181 5.95 109.181 5.93C109.181 5.91 109.171 5.9 109.151 5.9C109.091 5.84 109.061 5.81 109.061 5.81C108.961 5.75 108.851 5.69 108.731 5.63C108.611 5.55 108.491 5.48 108.371 5.42C108.271 5.38 108.161 5.33 108.041 5.27C107.921 5.21 107.801 5.15 107.681 5.09C107.201 4.87 106.731 4.65 106.271 4.43C106.131 4.37 105.991 4.32 105.851 4.28C105.731 4.22 105.601 4.16 105.461 4.1C105.461 4.1 105.421 4.08 105.341 4.04C105.261 4.04 105.221 4.07 105.221 4.13C105.201 4.21 105.181 4.29 105.161 4.37C105.141 4.43 105.121 4.5 105.101 4.58V5.57C105.101 5.75 105.101 5.93 105.101 6.11C105.121 6.29 105.151 6.46 105.191 6.62C105.191 6.76 105.201 6.91 105.221 7.07C105.241 7.21 105.261 7.36 105.281 7.52L105.371 8C105.411 8.08 105.471 8.1 105.551 8.06ZM120.698 20.6C120.498 20.58 120.298 20.55 120.098 20.51C119.918 20.49 119.738 20.44 119.558 20.36L118.808 20.09C118.548 19.99 118.308 19.88 118.088 19.76C117.868 19.62 117.648 19.48 117.428 19.34C117.328 19.24 117.228 19.15 117.128 19.07C117.028 18.97 116.928 18.88 116.828 18.8C116.668 18.64 116.508 18.48 116.348 18.32C116.188 18.14 116.038 17.95 115.898 17.75L115.178 16.64C114.998 16.36 114.838 16.07 114.698 15.77C114.558 15.45 114.438 15.13 114.338 14.81C114.118 14.21 114.008 13.62 114.008 13.04V12.56C114.008 12.06 114.038 11.57 114.098 11.09C114.138 10.69 114.228 10.33 114.368 10.01C114.448 9.81 114.518 9.61 114.578 9.41C114.638 9.21 114.708 9.02 114.788 8.84L114.878 8.63C114.918 8.37 115.008 8.14 115.148 7.94C115.288 7.72 115.408 7.51 115.508 7.31C115.588 7.15 115.678 7.01 115.778 6.89C115.878 6.75 115.968 6.61 116.048 6.47C116.088 6.41 116.138 6.36 116.198 6.32C116.258 6.26 116.308 6.2 116.348 6.14C116.388 6.1 116.418 6.05 116.438 5.99C116.478 5.91 116.508 5.84 116.528 5.78C116.568 5.72 116.638 5.64 116.738 5.54C116.858 5.48 116.968 5.34 117.068 5.12C117.108 5.04 117.148 4.98 117.188 4.94C117.308 4.84 117.408 4.72 117.488 4.58C117.588 4.44 117.698 4.31 117.818 4.19C117.898 4.11 117.938 4 117.938 3.86C117.938 3.76 117.938 3.67 117.938 3.59C117.958 3.49 117.958 3.4 117.938 3.32C117.918 3.22 117.948 3.13 118.028 3.05C118.068 3.01 118.098 2.96 118.118 2.9C118.138 2.84 118.158 2.78 118.178 2.72C118.238 2.52 118.398 2.35 118.658 2.21C118.698 2.17 118.748 2.15 118.808 2.15C118.888 2.13 118.958 2.11 119.018 2.09C119.158 2.03 119.318 2.02 119.498 2.06C119.578 2.08 119.648 2.09 119.708 2.09C119.768 2.07 119.828 2.05 119.888 2.03C119.968 1.99 120.038 1.96 120.098 1.94C120.178 1.92 120.248 1.9 120.308 1.88C120.588 1.78 120.878 1.79 121.178 1.91C121.498 2.03 121.728 2.24 121.868 2.54C121.908 2.64 121.948 2.74 121.988 2.84C122.028 2.94 122.058 3.04 122.078 3.14C122.118 3.36 122.108 3.55 122.048 3.71C122.008 3.79 121.988 3.84 121.988 3.86C121.968 3.94 121.988 4.01 122.048 4.07C122.088 4.13 122.138 4.18 122.198 4.22C122.418 4.42 122.628 4.62 122.828 4.82C123.028 5 123.218 5.2 123.398 5.42C123.558 5.58 123.688 5.75 123.788 5.93C123.908 6.09 124.018 6.27 124.118 6.47C124.158 6.57 124.208 6.68 124.268 6.8C124.328 6.9 124.388 7 124.448 7.1C124.548 7.28 124.628 7.47 124.688 7.67C124.768 7.87 124.848 8.07 124.928 8.27V8.3C124.968 8.44 124.998 8.59 125.018 8.75C125.058 8.89 125.118 9.04 125.198 9.2C125.258 9.34 125.308 9.49 125.348 9.65C125.388 9.79 125.428 9.94 125.468 10.1C125.508 10.28 125.548 10.46 125.588 10.64C125.648 10.82 125.688 11 125.708 11.18C125.728 11.26 125.748 11.34 125.768 11.42C125.788 11.48 125.808 11.55 125.828 11.63C125.868 11.81 125.908 11.99 125.948 12.17C125.988 12.35 126.018 12.53 126.038 12.71L126.128 12.92C126.168 13.04 126.208 13.2 126.248 13.4C126.308 13.66 126.338 13.92 126.338 14.18C126.358 14.44 126.358 14.71 126.338 14.99C126.338 15.13 126.328 15.24 126.308 15.32C126.188 15.74 126.038 16.17 125.858 16.61C125.778 16.75 125.698 16.89 125.618 17.03C125.538 17.15 125.458 17.28 125.378 17.42L125.108 17.84C125.008 18.02 124.898 18.18 124.778 18.32C124.578 18.64 124.338 18.92 124.058 19.16C123.778 19.4 123.478 19.63 123.158 19.85C122.458 20.39 121.638 20.64 120.698 20.6ZM120.578 17.63C120.998 17.63 121.358 17.51 121.658 17.27C121.758 17.17 121.858 17.08 121.958 17C122.078 16.9 122.178 16.8 122.258 16.7C122.638 16.28 122.938 15.84 123.158 15.38L123.248 15.08C123.288 14.72 123.288 14.36 123.248 14L123.068 13.01C123.008 12.75 122.958 12.5 122.918 12.26C122.878 12 122.818 11.75 122.738 11.51C122.678 11.37 122.658 11.26 122.678 11.18C122.698 11.08 122.698 10.98 122.678 10.88C122.658 10.78 122.628 10.68 122.588 10.58C122.528 10.32 122.458 10.06 122.378 9.8C122.298 9.54 122.218 9.28 122.138 9.02C122.118 8.96 122.098 8.9 122.078 8.84C122.058 8.78 122.038 8.72 122.018 8.66C121.878 8.38 121.728 8.11 121.568 7.85C121.408 7.59 121.228 7.35 121.028 7.13C120.928 7.01 120.818 6.9 120.698 6.8C120.578 6.68 120.458 6.57 120.338 6.47C120.318 6.43 120.288 6.41 120.248 6.41C120.228 6.39 120.198 6.37 120.158 6.35C120.098 6.27 120.018 6.28 119.918 6.38C119.818 6.48 119.708 6.59 119.588 6.71C119.488 6.83 119.388 6.95 119.288 7.07C119.188 7.21 119.078 7.35 118.958 7.49C118.858 7.63 118.758 7.77 118.658 7.91C118.518 8.09 118.388 8.27 118.268 8.45C118.148 8.63 118.028 8.81 117.908 8.99C117.488 9.67 117.158 10.42 116.918 11.24C116.878 11.36 116.858 11.45 116.858 11.51C116.838 11.65 116.818 11.79 116.798 11.93C116.798 12.07 116.798 12.22 116.798 12.38V12.62C116.818 12.68 116.828 12.74 116.828 12.8C116.828 12.86 116.838 12.92 116.858 12.98C116.858 13.22 116.918 13.48 117.038 13.76C117.198 14.16 117.378 14.55 117.578 14.93C117.778 15.31 118.008 15.67 118.268 16.01C118.328 16.09 118.388 16.17 118.448 16.25C118.528 16.33 118.598 16.41 118.658 16.49C118.838 16.69 119.028 16.87 119.228 17.03C119.448 17.19 119.668 17.33 119.888 17.45C120.128 17.57 120.358 17.63 120.578 17.63ZM131.769 20.6C131.389 20.64 131.079 20.52 130.839 20.24C130.719 20.12 130.609 19.99 130.509 19.85C130.409 19.71 130.329 19.56 130.269 19.4C130.169 19.12 130.079 18.84 129.999 18.56C129.919 18.26 129.849 17.97 129.789 17.69C129.729 17.47 129.699 17.26 129.699 17.06C129.679 16.84 129.649 16.63 129.609 16.43C129.589 16.21 129.579 15.99 129.579 15.77C129.579 15.65 129.579 15.53 129.579 15.41C129.579 15.27 129.569 15.14 129.549 15.02C129.529 14.94 129.519 14.87 129.519 14.81C129.519 14.75 129.519 14.68 129.519 14.6C129.519 14.32 129.519 14.04 129.519 13.76C129.519 13.46 129.509 13.17 129.489 12.89C129.489 12.73 129.479 12.59 129.459 12.47C129.439 12.33 129.399 12.19 129.339 12.05C129.259 11.83 129.249 11.59 129.309 11.33C129.309 11.27 129.319 11.23 129.339 11.21C129.379 11.07 129.399 10.93 129.399 10.79C129.419 10.65 129.419 10.51 129.399 10.37C129.379 10.27 129.369 10.17 129.369 10.07C129.369 9.97 129.369 9.88 129.369 9.8C129.349 9.58 129.339 9.36 129.339 9.14C129.359 8.9 129.379 8.67 129.399 8.45C129.419 8.39 129.429 8.33 129.429 8.27C129.429 8.21 129.429 8.15 129.429 8.09C129.409 7.87 129.409 7.66 129.429 7.46C129.469 7.26 129.499 7.06 129.519 6.86C129.559 6.62 129.599 6.39 129.639 6.17C129.679 5.93 129.729 5.69 129.789 5.45C129.829 5.35 129.849 5.24 129.849 5.12C129.849 5 129.849 4.88 129.849 4.76C129.849 4.66 129.839 4.56 129.819 4.46C129.819 4.36 129.819 4.27 129.819 4.19C129.819 4.13 129.819 4.07 129.819 4.01C129.819 3.95 129.829 3.89 129.849 3.83C129.869 3.77 129.879 3.71 129.879 3.65C129.879 3.59 129.889 3.55 129.909 3.53C129.969 3.45 130.019 3.38 130.059 3.32C130.099 3.24 130.159 3.17 130.239 3.11C130.339 3.05 130.429 2.99 130.509 2.93C130.609 2.87 130.699 2.82 130.779 2.78C130.879 2.74 130.959 2.69 131.019 2.63C131.099 2.53 131.179 2.44 131.259 2.36C131.359 2.26 131.439 2.15 131.499 2.03C131.599 1.93 131.699 1.82 131.799 1.7C131.919 1.56 132.049 1.45 132.189 1.37C132.229 1.35 132.289 1.3 132.369 1.22C132.609 0.999999 132.889 0.859999 133.209 0.799999C133.269 0.779999 133.319 0.769999 133.359 0.769999C133.419 0.749999 133.479 0.739999 133.539 0.739999L133.749 0.649999C133.909 0.59 134.049 0.62 134.169 0.739999C134.209 0.799999 134.259 0.859998 134.319 0.919999C134.399 0.96 134.469 1 134.529 1.04C134.689 1.18 134.839 1.33 134.979 1.49C135.139 1.65 135.279 1.83 135.399 2.03C135.599 2.35 135.769 2.67 135.909 2.99C136.069 3.31 136.219 3.64 136.359 3.98L136.899 5.27C136.919 5.39 136.969 5.5 137.049 5.6C137.209 5.9 137.329 6.21 137.409 6.53C137.489 6.83 137.569 7.14 137.649 7.46C137.669 7.5 137.679 7.54 137.679 7.58C137.699 7.62 137.709 7.66 137.709 7.7C137.749 7.86 137.779 8.03 137.799 8.21C137.839 8.37 137.849 8.53 137.829 8.69C137.849 8.87 137.839 9.05 137.799 9.23C137.779 9.39 137.749 9.55 137.709 9.71C137.649 9.91 137.579 10.1 137.499 10.28C137.419 10.44 137.329 10.61 137.229 10.79C137.189 10.91 137.119 11.02 137.019 11.12C136.919 11.22 136.819 11.31 136.719 11.39C136.559 11.47 136.399 11.59 136.239 11.75C136.199 11.79 136.149 11.82 136.089 11.84C136.049 11.86 136.009 11.89 135.969 11.93C135.829 11.99 135.679 12.06 135.519 12.14C135.359 12.2 135.199 12.26 135.039 12.32C135.019 12.32 135.009 12.34 135.009 12.38C135.009 12.4 135.019 12.42 135.039 12.44L135.849 13.01C135.949 13.07 136.039 13.13 136.119 13.19C136.199 13.23 136.279 13.28 136.359 13.34L136.539 13.43C136.779 13.57 137.019 13.72 137.259 13.88C137.499 14.04 137.729 14.2 137.949 14.36C138.369 14.62 138.789 14.89 139.209 15.17C139.629 15.43 140.029 15.72 140.409 16.04C140.749 16.3 141.049 16.6 141.309 16.94C141.369 17 141.429 17.07 141.489 17.15C141.549 17.21 141.619 17.26 141.699 17.3L141.789 17.39C142.109 17.67 142.289 18.05 142.329 18.53C142.329 18.59 142.319 18.65 142.299 18.71C142.299 18.77 142.299 18.83 142.299 18.89C142.299 19.01 142.259 19.11 142.179 19.19C142.099 19.23 142.059 19.28 142.059 19.34C141.999 19.48 141.909 19.58 141.789 19.64C141.689 19.68 141.589 19.74 141.489 19.82C141.449 19.84 141.379 19.85 141.279 19.85C141.159 19.83 141.029 19.81 140.889 19.79C140.769 19.77 140.649 19.76 140.529 19.76C140.369 19.76 140.199 19.69 140.019 19.55C139.899 19.45 139.789 19.36 139.689 19.28C139.589 19.18 139.489 19.06 139.389 18.92C139.129 18.56 138.789 18.23 138.369 17.93C138.169 17.77 137.979 17.62 137.799 17.48C137.619 17.34 137.419 17.21 137.199 17.09C137.059 17.01 136.919 16.93 136.779 16.85C136.659 16.75 136.519 16.66 136.359 16.58C135.859 16.24 135.349 15.91 134.829 15.59C134.309 15.25 133.789 14.91 133.269 14.57C133.189 14.51 133.099 14.45 132.999 14.39C132.899 14.33 132.799 14.27 132.699 14.21C132.659 14.17 132.599 14.13 132.519 14.09C132.439 14.09 132.399 14.12 132.399 14.18C132.399 14.2 132.389 14.22 132.369 14.24C132.369 14.24 132.369 14.25 132.369 14.27C132.369 14.33 132.369 14.39 132.369 14.45C132.369 14.51 132.379 14.57 132.399 14.63C132.419 14.79 132.429 14.95 132.429 15.11C132.429 15.25 132.429 15.4 132.429 15.56C132.429 15.68 132.429 15.8 132.429 15.92C132.449 16.02 132.469 16.13 132.489 16.25C132.489 16.31 132.489 16.38 132.489 16.46C132.509 16.52 132.519 16.58 132.519 16.64C132.499 16.82 132.509 17 132.549 17.18C132.589 17.36 132.619 17.54 132.639 17.72L132.819 18.5C132.839 18.58 132.859 18.67 132.879 18.77C132.899 18.85 132.919 18.94 132.939 19.04C132.959 19.12 132.959 19.2 132.939 19.28C132.939 19.34 132.929 19.41 132.909 19.49C132.909 19.51 132.889 19.54 132.849 19.58C132.749 19.6 132.679 19.67 132.639 19.79C132.579 19.93 132.489 20.05 132.369 20.15C132.269 20.27 132.159 20.38 132.039 20.48C132.019 20.5 131.979 20.52 131.919 20.54C131.859 20.56 131.809 20.58 131.769 20.6ZM132.939 10.1H132.999C133.219 10.06 133.439 10.02 133.659 9.98C133.899 9.92 134.129 9.85 134.349 9.77C134.569 9.71 134.759 9.6 134.919 9.44C135.059 9.3 135.129 9.14 135.129 8.96C135.149 8.82 135.149 8.69 135.129 8.57C135.129 8.43 135.109 8.29 135.069 8.15C134.989 7.79 134.899 7.44 134.799 7.1C134.699 6.74 134.579 6.4 134.439 6.08L134.169 5.36C134.109 5.16 134.039 4.97 133.959 4.79C133.879 4.59 133.789 4.4 133.689 4.22C133.669 4.18 133.649 4.14 133.629 4.1C133.609 4.04 133.589 3.99 133.569 3.95L133.449 3.83C133.389 3.75 133.319 3.75 133.239 3.83C133.219 3.83 133.189 3.85 133.149 3.89C133.009 4.07 132.879 4.26 132.759 4.46C132.659 4.66 132.599 4.88 132.579 5.12C132.559 5.2 132.539 5.28 132.519 5.36C132.519 5.44 132.519 5.53 132.519 5.63V6.92C132.499 7.2 132.489 7.49 132.489 7.79C132.509 8.09 132.499 8.38 132.459 8.66C132.439 8.72 132.429 8.78 132.429 8.84C132.449 8.9 132.459 8.96 132.459 9.02C132.479 9.14 132.489 9.26 132.489 9.38C132.489 9.48 132.489 9.59 132.489 9.71C132.489 9.91 132.509 10.03 132.549 10.07C132.609 10.11 132.739 10.12 132.939 10.1ZM163.03 19.97C162.99 19.95 162.93 19.94 162.85 19.94C162.81 19.94 162.77 19.91 162.73 19.85C162.69 19.79 162.65 19.74 162.61 19.7C162.57 19.64 162.53 19.57 162.49 19.49C162.43 19.41 162.38 19.41 162.34 19.49H162.28C162.28 19.47 162.27 19.46 162.25 19.46C162.25 19.44 162.25 19.43 162.25 19.43C162.19 19.15 162.1 18.89 161.98 18.65C161.92 18.49 161.86 18.33 161.8 18.17C161.76 17.99 161.73 17.81 161.71 17.63L161.53 16.31L161.44 15.23V15.17C161.4 14.93 161.38 14.69 161.38 14.45C161.38 14.19 161.38 13.93 161.38 13.67C161.36 13.53 161.35 13.4 161.35 13.28C161.35 13.14 161.34 13 161.32 12.86C161.3 12.7 161.28 12.54 161.26 12.38C161.26 12.22 161.26 12.07 161.26 11.93L161.29 9.56V6.35C161.25 6.23 161.19 6.17 161.11 6.17C161.07 6.17 161.02 6.18 160.96 6.2C160.92 6.2 160.88 6.2 160.84 6.2L159.49 6.56C159.31 6.62 159.13 6.68 158.95 6.74C158.77 6.78 158.59 6.83 158.41 6.89C158.27 6.91 158.13 6.93 157.99 6.95C157.87 6.95 157.74 6.95 157.6 6.95C157.5 6.95 157.39 6.91 157.27 6.83C157.13 6.77 157.01 6.69 156.91 6.59C156.81 6.49 156.71 6.38 156.61 6.26L156.55 6.17C156.51 6.03 156.47 5.9 156.43 5.78C156.41 5.64 156.41 5.5 156.43 5.36C156.45 5.18 156.49 5.01 156.55 4.85C156.63 4.69 156.74 4.55 156.88 4.43C156.94 4.39 156.99 4.34 157.03 4.28C157.09 4.22 157.15 4.16 157.21 4.1C157.29 4.06 157.34 4.04 157.36 4.04C157.48 4.04 157.59 4.02 157.69 3.98C157.79 3.92 157.89 3.88 157.99 3.86C158.09 3.84 158.19 3.82 158.29 3.8C158.39 3.78 158.49 3.76 158.59 3.74C158.87 3.66 159.15 3.59 159.43 3.53C159.71 3.45 159.99 3.39 160.27 3.35L161.89 3.08C161.93 3.06 161.96 3.05 161.98 3.05C162.02 3.05 162.05 3.04 162.07 3.02C162.19 2.98 162.31 2.95 162.43 2.93C162.55 2.91 162.67 2.92 162.79 2.96C162.83 2.98 162.86 2.99 162.88 2.99C162.92 2.97 162.95 2.96 162.97 2.96C163.31 2.92 163.65 2.88 163.99 2.84C164.33 2.8 164.66 2.75 164.98 2.69C165.24 2.65 165.5 2.61 165.76 2.57C166.02 2.53 166.28 2.5 166.54 2.48C166.74 2.44 166.94 2.41 167.14 2.39C167.34 2.37 167.54 2.35 167.74 2.33C167.9 2.31 168.06 2.29 168.22 2.27C168.4 2.25 168.57 2.23 168.73 2.21C168.89 2.19 169.04 2.19 169.18 2.21C169.34 2.21 169.5 2.21 169.66 2.21C169.76 2.21 169.85 2.24 169.93 2.3C170.03 2.36 170.12 2.41 170.2 2.45C170.28 2.51 170.39 2.61 170.53 2.75C170.57 2.79 170.61 2.88 170.65 3.02C170.67 3.08 170.69 3.15 170.71 3.23C170.73 3.29 170.75 3.36 170.77 3.44C170.81 3.62 170.79 3.79 170.71 3.95L170.53 4.37C170.51 4.43 170.48 4.49 170.44 4.55C170.42 4.59 170.39 4.63 170.35 4.67C170.31 4.71 170.29 4.73 170.29 4.73C170.21 4.79 170.12 4.85 170.02 4.91C169.94 4.97 169.84 5.01 169.72 5.03L168.43 5.12C168.31 5.12 168.19 5.13 168.07 5.15C167.95 5.15 167.82 5.16 167.68 5.18H167.53C167.21 5.2 166.9 5.23 166.6 5.27C166.3 5.31 166 5.35 165.7 5.39L164.5 5.57C164.44 5.57 164.4 5.58 164.38 5.6C164.3 5.6 164.24 5.66 164.2 5.78V5.87C164.2 6.07 164.2 6.27 164.2 6.47C164.2 6.65 164.21 6.84 164.23 7.04C164.29 7.32 164.29 7.6 164.23 7.88C164.21 7.94 164.19 8 164.17 8.06C164.17 8.1 164.17 8.14 164.17 8.18C164.19 8.42 164.17 8.68 164.11 8.96C164.11 9.02 164.11 9.08 164.11 9.14C164.11 9.2 164.12 9.26 164.14 9.32C164.16 9.4 164.17 9.49 164.17 9.59C164.17 9.69 164.17 9.79 164.17 9.89V11.45C164.17 11.53 164.16 11.63 164.14 11.75C164.14 11.85 164.14 11.95 164.14 12.05C164.14 12.13 164.14 12.22 164.14 12.32C164.16 12.42 164.17 12.52 164.17 12.62C164.17 12.76 164.17 12.9 164.17 13.04C164.19 13.18 164.19 13.33 164.17 13.49V14.42C164.17 14.44 164.16 14.46 164.14 14.48C164.14 14.5 164.15 14.53 164.17 14.57C164.19 14.75 164.2 14.94 164.2 15.14C164.2 15.32 164.22 15.5 164.26 15.68C164.26 15.74 164.26 15.8 164.26 15.86C164.28 15.92 164.28 15.98 164.26 16.04C164.26 16.22 164.28 16.41 164.32 16.61C164.36 16.79 164.39 16.97 164.41 17.15C164.45 17.37 164.49 17.59 164.53 17.81C164.59 18.03 164.64 18.25 164.68 18.47L164.77 18.89C164.77 18.95 164.74 19 164.68 19.04C164.68 19.04 164.67 19.04 164.65 19.04C164.65 19.04 164.64 19.05 164.62 19.07C164.52 19.11 164.48 19.17 164.5 19.25V19.4C164.5 19.4 164.49 19.41 164.47 19.43C164.47 19.45 164.46 19.46 164.44 19.46C164.34 19.46 164.26 19.5 164.2 19.58C164.14 19.66 164.07 19.73 163.99 19.79C163.93 19.83 163.85 19.87 163.75 19.91C163.49 20.01 163.25 20.03 163.03 19.97ZM175.829 20.3C175.709 20.3 175.629 20.29 175.589 20.27C175.509 20.23 175.439 20.2 175.379 20.18C175.319 20.16 175.259 20.14 175.199 20.12C175.139 20.08 175.079 20.04 175.019 20C174.979 19.94 174.939 19.88 174.899 19.82C174.859 19.78 174.819 19.76 174.779 19.76C174.659 19.76 174.599 19.7 174.599 19.58C174.579 19.46 174.559 19.34 174.539 19.22C174.519 19.1 174.499 18.98 174.479 18.86C174.459 18.68 174.439 18.5 174.419 18.32C174.419 18.14 174.399 17.97 174.359 17.81V17.54C174.359 17.46 174.349 17.39 174.329 17.33C174.329 17.27 174.329 17.2 174.329 17.12C174.289 17.02 174.289 16.94 174.329 16.88C174.369 16.52 174.369 16.16 174.329 15.8C174.309 15.7 174.299 15.6 174.299 15.5C174.299 15.4 174.289 15.3 174.269 15.2C174.269 15 174.269 14.8 174.269 14.6C174.269 14.38 174.249 14.17 174.209 13.97V13.49C174.209 13.33 174.199 13.18 174.179 13.04C174.179 12.9 174.169 12.76 174.149 12.62C174.129 12.44 174.109 12.26 174.089 12.08C174.089 11.9 174.079 11.72 174.059 11.54C174.039 11.5 174.029 11.43 174.029 11.33C174.009 11.23 173.989 11.13 173.969 11.03C173.969 10.91 173.969 10.8 173.969 10.7L173.879 9.2C173.859 9.04 173.839 8.89 173.819 8.75C173.819 8.59 173.819 8.44 173.819 8.3C173.799 8.06 173.779 7.82 173.759 7.58C173.739 7.34 173.719 7.11 173.699 6.89C173.699 6.85 173.689 6.81 173.669 6.77C173.669 6.73 173.669 6.7 173.669 6.68C173.669 6.44 173.659 6.2 173.639 5.96C173.619 5.72 173.599 5.47 173.579 5.21L173.489 4.37C173.429 4.05 173.419 3.7 173.459 3.32C173.459 3.14 173.529 2.99 173.669 2.87C173.709 2.83 173.739 2.81 173.759 2.81C173.779 2.79 173.799 2.77 173.819 2.75C173.919 2.73 173.969 2.66 173.969 2.54C173.969 2.5 174.009 2.48 174.089 2.48H174.239C174.259 2.48 174.269 2.48 174.269 2.48C174.289 2.46 174.309 2.45 174.329 2.45C174.369 2.43 174.399 2.41 174.419 2.39C174.459 2.35 174.489 2.33 174.509 2.33C174.549 2.33 174.589 2.34 174.629 2.36C174.669 2.36 174.709 2.37 174.749 2.39C174.789 2.39 174.819 2.38 174.839 2.36C174.939 2.34 175.039 2.35 175.139 2.39C175.259 2.41 175.359 2.44 175.439 2.48C175.559 2.5 175.649 2.58 175.709 2.72C175.769 2.9 175.819 3.08 175.859 3.26C175.919 3.42 175.959 3.59 175.979 3.77V4.01C176.019 4.15 176.039 4.3 176.039 4.46C176.039 4.6 176.039 4.75 176.039 4.91C176.039 5.05 176.039 5.19 176.039 5.33C176.059 5.45 176.079 5.57 176.099 5.69C176.099 5.75 176.099 5.81 176.099 5.87C176.099 5.93 176.109 5.99 176.129 6.05C176.129 6.17 176.129 6.29 176.129 6.41C176.149 6.53 176.169 6.66 176.189 6.8C176.209 7.02 176.229 7.25 176.249 7.49C176.269 7.73 176.279 7.97 176.279 8.21C176.279 8.31 176.279 8.42 176.279 8.54C176.279 8.64 176.289 8.74 176.309 8.84C176.329 8.9 176.339 8.96 176.339 9.02C176.339 9.08 176.339 9.14 176.339 9.2V9.8C176.339 9.92 176.349 10.02 176.369 10.1C176.409 10.24 176.419 10.38 176.399 10.52C176.399 10.64 176.409 10.77 176.429 10.91L176.519 12.29C176.539 12.49 176.549 12.7 176.549 12.92C176.569 13.12 176.579 13.33 176.579 13.55C176.579 13.63 176.579 13.72 176.579 13.82C176.579 13.9 176.589 13.98 176.609 14.06C176.629 14.12 176.639 14.18 176.639 14.24C176.639 14.3 176.639 14.36 176.639 14.42C176.659 14.44 176.659 14.48 176.639 14.54C176.639 14.58 176.649 14.62 176.669 14.66C176.709 14.8 176.729 14.94 176.729 15.08C176.729 15.22 176.729 15.37 176.729 15.53C176.729 15.61 176.729 15.7 176.729 15.8C176.749 15.88 176.759 15.97 176.759 16.07C176.779 16.17 176.789 16.28 176.789 16.4C176.789 16.52 176.789 16.63 176.789 16.73C176.809 16.83 176.819 16.94 176.819 17.06C176.819 17.16 176.829 17.26 176.849 17.36C176.869 17.4 176.879 17.44 176.879 17.48C176.879 17.7 176.899 17.92 176.939 18.14C176.979 18.36 177.019 18.58 177.059 18.8C177.079 18.86 177.089 18.93 177.089 19.01C177.089 19.07 177.089 19.13 177.089 19.19C177.089 19.25 177.069 19.3 177.029 19.34C176.949 19.4 176.889 19.52 176.849 19.7C176.849 19.76 176.819 19.81 176.759 19.85C176.619 19.91 176.499 19.99 176.399 20.09C176.239 20.23 176.049 20.3 175.829 20.3ZM191.256 20.27C191.196 20.25 191.126 20.23 191.046 20.21C190.986 20.19 190.926 20.17 190.866 20.15C190.706 20.09 190.546 20.01 190.386 19.91C190.306 19.87 190.246 19.81 190.206 19.73C190.066 19.51 189.936 19.31 189.816 19.13C189.696 18.93 189.566 18.73 189.426 18.53L189.156 18.05C189.016 17.77 188.876 17.5 188.736 17.24C188.596 16.96 188.456 16.69 188.316 16.43C188.276 16.33 188.226 16.25 188.166 16.19C188.126 16.11 188.086 16.03 188.046 15.95C187.906 15.73 187.776 15.51 187.656 15.29C187.536 15.05 187.416 14.82 187.296 14.6L186.546 13.13C186.346 12.73 186.146 12.34 185.946 11.96C185.746 11.56 185.546 11.16 185.346 10.76C185.306 10.72 185.266 10.66 185.226 10.58C185.146 10.36 185.046 10.15 184.926 9.95C184.826 9.75 184.726 9.55 184.626 9.35C184.546 9.21 184.476 9.07 184.416 8.93C184.356 8.77 184.286 8.62 184.206 8.48L183.876 7.88C183.836 7.88 183.806 7.87 183.786 7.85C183.786 7.85 183.776 7.86 183.756 7.88C183.756 7.88 183.756 7.89 183.756 7.91C183.736 8.17 183.716 8.44 183.696 8.72C183.676 9 183.676 9.28 183.696 9.56C183.736 9.68 183.736 9.81 183.696 9.95C183.656 10.31 183.666 10.63 183.726 10.91C183.746 10.99 183.746 11.07 183.726 11.15C183.726 11.23 183.716 11.32 183.696 11.42C183.676 11.56 183.666 11.69 183.666 11.81C183.666 11.93 183.656 12.06 183.636 12.2C183.676 12.28 183.696 12.37 183.696 12.47C183.696 12.55 183.686 12.63 183.666 12.71C183.606 12.91 183.606 13.12 183.666 13.34C183.706 13.4 183.706 13.46 183.666 13.52C183.586 13.7 183.566 13.92 183.606 14.18C183.666 14.52 183.646 14.89 183.546 15.29C183.526 15.33 183.516 15.4 183.516 15.5C183.496 15.58 183.516 15.65 183.576 15.71C183.656 15.75 183.676 15.8 183.636 15.86C183.616 16.12 183.616 16.39 183.636 16.67C183.636 16.67 183.636 16.68 183.636 16.7C183.636 16.7 183.626 16.7 183.606 16.7C183.586 16.7 183.576 16.69 183.576 16.67C183.556 16.65 183.546 16.63 183.546 16.61C183.506 16.57 183.486 16.58 183.486 16.64C183.486 16.74 183.496 16.8 183.516 16.82C183.556 16.92 183.576 17.02 183.576 17.12C183.576 17.22 183.576 17.32 183.576 17.42V18.35C183.576 18.41 183.566 18.47 183.546 18.53C183.546 18.59 183.516 18.64 183.456 18.68C183.376 18.7 183.336 18.77 183.336 18.89C183.316 19.11 183.236 19.3 183.096 19.46C182.976 19.62 182.836 19.76 182.676 19.88C182.596 19.94 182.496 19.98 182.376 20C182.276 20 182.176 19.99 182.076 19.97L181.536 19.79C181.496 19.79 181.456 19.76 181.416 19.7C181.356 19.64 181.296 19.58 181.236 19.52C181.176 19.44 181.106 19.37 181.026 19.31C180.926 19.25 180.856 19.14 180.816 18.98C180.796 18.88 180.766 18.77 180.726 18.65C180.686 18.53 180.666 18.41 180.666 18.29C180.666 18.15 180.666 18.02 180.666 17.9C180.686 17.78 180.696 17.65 180.696 17.51C180.716 17.41 180.726 17.32 180.726 17.24C180.726 17.14 180.736 17.04 180.756 16.94V5.96C180.756 5.86 180.756 5.76 180.756 5.66C180.776 5.56 180.796 5.47 180.816 5.39C180.816 5.29 180.816 5.19 180.816 5.09C180.836 4.99 180.846 4.89 180.846 4.79C180.846 4.67 180.846 4.55 180.846 4.43C180.866 4.31 180.886 4.2 180.906 4.1C180.926 4.02 180.936 3.95 180.936 3.89C180.936 3.83 180.936 3.76 180.936 3.68V2.75C180.936 2.61 180.946 2.49 180.966 2.39C181.006 2.27 181.036 2.15 181.056 2.03L181.146 1.88C181.206 1.82 181.256 1.73 181.296 1.61C181.336 1.49 181.396 1.43 181.476 1.43C181.536 1.39 181.596 1.36 181.656 1.34C181.716 1.3 181.756 1.24 181.776 1.16L181.806 1.13C181.826 1.13 181.846 1.13 181.866 1.13C181.886 1.11 181.906 1.1 181.926 1.1C182.006 1.1 182.066 1.08 182.106 1.04C182.166 1 182.236 0.99 182.316 1.01C182.396 1.03 182.476 1.04 182.556 1.04C182.636 1.04 182.716 1.05 182.796 1.07C183.236 1.15 183.546 1.41 183.726 1.85L183.906 2.45C183.926 2.65 184.016 2.84 184.176 3.02C184.296 3.16 184.416 3.31 184.536 3.47C184.656 3.63 184.786 3.79 184.926 3.95C185.446 4.61 185.926 5.35 186.366 6.17C186.406 6.25 186.446 6.33 186.486 6.41C186.526 6.49 186.566 6.57 186.606 6.65L188.166 9.8C188.286 10.02 188.396 10.25 188.496 10.49C188.616 10.71 188.746 10.93 188.886 11.15C188.926 11.23 188.966 11.31 189.006 11.39C189.046 11.45 189.076 11.52 189.096 11.6C189.196 11.84 189.316 12.08 189.456 12.32C189.456 12.32 189.456 12.33 189.456 12.35C189.476 12.35 189.486 12.34 189.486 12.32C189.506 12.32 189.516 12.32 189.516 12.32C189.536 12.3 189.546 12.29 189.546 12.29L189.636 11.24V10.94C189.656 10.84 189.666 10.74 189.666 10.64C189.686 10.52 189.706 10.41 189.726 10.31C189.746 10.25 189.746 10.18 189.726 10.1C189.726 10.02 189.736 9.94 189.756 9.86C189.756 9.74 189.756 9.62 189.756 9.5C189.776 9.36 189.796 9.23 189.816 9.11C189.836 9.05 189.846 8.99 189.846 8.93C189.846 8.85 189.846 8.78 189.846 8.72V7.91H189.816V7.1C189.816 7 189.816 6.9 189.816 6.8C189.816 6.7 189.796 6.6 189.756 6.5C189.736 6.44 189.726 6.35 189.726 6.23L189.756 6.02C189.756 5.96 189.746 5.91 189.726 5.87C189.726 5.81 189.726 5.75 189.726 5.69C189.746 5.61 189.736 5.53 189.696 5.45C189.656 5.37 189.636 5.29 189.636 5.21C189.656 5.13 189.666 5.05 189.666 4.97C189.666 4.89 189.666 4.81 189.666 4.73C189.666 4.65 189.626 4.61 189.546 4.61C189.526 4.61 189.516 4.59 189.516 4.55C189.496 4.49 189.496 4.44 189.516 4.4C189.556 4.3 189.576 4.19 189.576 4.07C189.576 3.95 189.576 3.83 189.576 3.71V2.84C189.556 2.72 189.566 2.6 189.606 2.48C189.646 2.36 189.696 2.25 189.756 2.15L189.876 1.97C189.976 1.87 190.086 1.77 190.206 1.67C190.326 1.57 190.446 1.47 190.566 1.37C190.566 1.37 190.606 1.35 190.686 1.31C190.786 1.29 190.876 1.27 190.956 1.25C191.056 1.23 191.156 1.23 191.256 1.25C191.336 1.25 191.396 1.26 191.436 1.28C191.516 1.32 191.596 1.37 191.676 1.43C191.756 1.47 191.836 1.52 191.916 1.58C191.956 1.6 191.976 1.62 191.976 1.64C191.996 1.66 192.016 1.68 192.036 1.7C192.076 1.74 192.106 1.79 192.126 1.85C192.166 1.89 192.196 1.93 192.216 1.97C192.316 2.05 192.376 2.15 192.396 2.27C192.436 2.37 192.466 2.47 192.486 2.57V3.83C192.486 3.97 192.486 4.11 192.486 4.25C192.506 4.37 192.526 4.5 192.546 4.64C192.566 4.72 192.576 4.8 192.576 4.88C192.576 4.94 192.576 5.01 192.576 5.09C192.576 5.25 192.576 5.42 192.576 5.6C192.596 5.76 192.606 5.92 192.606 6.08V6.29C192.606 6.43 192.596 6.57 192.576 6.71C192.576 6.83 192.576 6.96 192.576 7.1V8.42C192.576 8.62 192.566 8.83 192.546 9.05C192.546 9.25 192.556 9.46 192.576 9.68C192.576 9.76 192.566 9.82 192.546 9.86C192.526 10.06 192.516 10.26 192.516 10.46C192.516 10.64 192.506 10.83 192.486 11.03C192.486 11.11 192.486 11.2 192.486 11.3C192.486 11.4 192.476 11.5 192.456 11.6C192.436 11.68 192.426 11.76 192.426 11.84C192.446 11.92 192.456 12 192.456 12.08C192.496 12.26 192.506 12.44 192.486 12.62C192.486 12.8 192.476 12.98 192.456 13.16C192.436 13.48 192.416 13.81 192.396 14.15C192.396 14.47 192.416 14.8 192.456 15.14C192.456 15.22 192.456 15.31 192.456 15.41C192.476 15.51 192.486 15.61 192.486 15.71C192.466 16.01 192.476 16.3 192.516 16.58C192.576 16.86 192.636 17.14 192.696 17.42C192.736 17.62 192.776 17.82 192.816 18.02C192.856 18.2 192.886 18.4 192.906 18.62C192.906 18.7 192.896 18.75 192.876 18.77C192.856 18.81 192.836 18.86 192.816 18.92C192.796 18.96 192.786 19 192.786 19.04C192.766 19.2 192.706 19.35 192.606 19.49C192.526 19.63 192.436 19.77 192.336 19.91C192.076 20.25 191.716 20.37 191.256 20.27ZM213.626 19.97C213.586 19.95 213.526 19.94 213.446 19.94C213.406 19.94 213.366 19.91 213.326 19.85C213.286 19.79 213.246 19.74 213.206 19.7C213.166 19.64 213.126 19.57 213.086 19.49C213.026 19.41 212.976 19.41 212.936 19.49H212.876C212.876 19.47 212.866 19.46 212.846 19.46C212.846 19.44 212.846 19.43 212.846 19.43C212.786 19.15 212.696 18.89 212.576 18.65C212.516 18.49 212.456 18.33 212.396 18.17C212.356 17.99 212.326 17.81 212.306 17.63L212.126 16.31L212.036 15.23V15.17C211.996 14.93 211.976 14.69 211.976 14.45C211.976 14.19 211.976 13.93 211.976 13.67C211.956 13.53 211.946 13.4 211.946 13.28C211.946 13.14 211.936 13 211.916 12.86C211.896 12.7 211.876 12.54 211.856 12.38C211.856 12.22 211.856 12.07 211.856 11.93L211.886 9.56V6.35C211.846 6.23 211.786 6.17 211.706 6.17C211.666 6.17 211.616 6.18 211.556 6.2C211.516 6.2 211.476 6.2 211.436 6.2L210.086 6.56C209.906 6.62 209.726 6.68 209.546 6.74C209.366 6.78 209.186 6.83 209.006 6.89C208.866 6.91 208.726 6.93 208.586 6.95C208.466 6.95 208.336 6.95 208.196 6.95C208.096 6.95 207.986 6.91 207.866 6.83C207.726 6.77 207.606 6.69 207.506 6.59C207.406 6.49 207.306 6.38 207.206 6.26L207.146 6.17C207.106 6.03 207.066 5.9 207.026 5.78C207.006 5.64 207.006 5.5 207.026 5.36C207.046 5.18 207.086 5.01 207.146 4.85C207.226 4.69 207.336 4.55 207.476 4.43C207.536 4.39 207.586 4.34 207.626 4.28C207.686 4.22 207.746 4.16 207.806 4.1C207.886 4.06 207.936 4.04 207.956 4.04C208.076 4.04 208.186 4.02 208.286 3.98C208.386 3.92 208.486 3.88 208.586 3.86C208.686 3.84 208.786 3.82 208.886 3.8C208.986 3.78 209.086 3.76 209.186 3.74C209.466 3.66 209.746 3.59 210.026 3.53C210.306 3.45 210.586 3.39 210.866 3.35L212.486 3.08C212.526 3.06 212.556 3.05 212.576 3.05C212.616 3.05 212.646 3.04 212.666 3.02C212.786 2.98 212.906 2.95 213.026 2.93C213.146 2.91 213.266 2.92 213.386 2.96C213.426 2.98 213.456 2.99 213.476 2.99C213.516 2.97 213.546 2.96 213.566 2.96C213.906 2.92 214.246 2.88 214.586 2.84C214.926 2.8 215.256 2.75 215.576 2.69C215.836 2.65 216.096 2.61 216.356 2.57C216.616 2.53 216.876 2.5 217.136 2.48C217.336 2.44 217.536 2.41 217.736 2.39C217.936 2.37 218.136 2.35 218.336 2.33C218.496 2.31 218.656 2.29 218.816 2.27C218.996 2.25 219.166 2.23 219.326 2.21C219.486 2.19 219.636 2.19 219.776 2.21C219.936 2.21 220.096 2.21 220.256 2.21C220.356 2.21 220.446 2.24 220.526 2.3C220.626 2.36 220.716 2.41 220.796 2.45C220.876 2.51 220.986 2.61 221.126 2.75C221.166 2.79 221.206 2.88 221.246 3.02C221.266 3.08 221.286 3.15 221.306 3.23C221.326 3.29 221.346 3.36 221.366 3.44C221.406 3.62 221.386 3.79 221.306 3.95L221.126 4.37C221.106 4.43 221.076 4.49 221.036 4.55C221.016 4.59 220.986 4.63 220.946 4.67C220.906 4.71 220.886 4.73 220.886 4.73C220.806 4.79 220.716 4.85 220.616 4.91C220.536 4.97 220.436 5.01 220.316 5.03L219.026 5.12C218.906 5.12 218.786 5.13 218.666 5.15C218.546 5.15 218.416 5.16 218.276 5.18H218.126C217.806 5.2 217.496 5.23 217.196 5.27C216.896 5.31 216.596 5.35 216.296 5.39L215.096 5.57C215.036 5.57 214.996 5.58 214.976 5.6C214.896 5.6 214.836 5.66 214.796 5.78V5.87C214.796 6.07 214.796 6.27 214.796 6.47C214.796 6.65 214.806 6.84 214.826 7.04C214.886 7.32 214.886 7.6 214.826 7.88C214.806 7.94 214.786 8 214.766 8.06C214.766 8.1 214.766 8.14 214.766 8.18C214.786 8.42 214.766 8.68 214.706 8.96C214.706 9.02 214.706 9.08 214.706 9.14C214.706 9.2 214.716 9.26 214.736 9.32C214.756 9.4 214.766 9.49 214.766 9.59C214.766 9.69 214.766 9.79 214.766 9.89V11.45C214.766 11.53 214.756 11.63 214.736 11.75C214.736 11.85 214.736 11.95 214.736 12.05C214.736 12.13 214.736 12.22 214.736 12.32C214.756 12.42 214.766 12.52 214.766 12.62C214.766 12.76 214.766 12.9 214.766 13.04C214.786 13.18 214.786 13.33 214.766 13.49V14.42C214.766 14.44 214.756 14.46 214.736 14.48C214.736 14.5 214.746 14.53 214.766 14.57C214.786 14.75 214.796 14.94 214.796 15.14C214.796 15.32 214.816 15.5 214.856 15.68C214.856 15.74 214.856 15.8 214.856 15.86C214.876 15.92 214.876 15.98 214.856 16.04C214.856 16.22 214.876 16.41 214.916 16.61C214.956 16.79 214.986 16.97 215.006 17.15C215.046 17.37 215.086 17.59 215.126 17.81C215.186 18.03 215.236 18.25 215.276 18.47L215.366 18.89C215.366 18.95 215.336 19 215.276 19.04C215.276 19.04 215.266 19.04 215.246 19.04C215.246 19.04 215.236 19.05 215.216 19.07C215.116 19.11 215.076 19.17 215.096 19.25V19.4C215.096 19.4 215.086 19.41 215.066 19.43C215.066 19.45 215.056 19.46 215.036 19.46C214.936 19.46 214.856 19.5 214.796 19.58C214.736 19.66 214.666 19.73 214.586 19.79C214.526 19.83 214.446 19.87 214.346 19.91C214.086 20.01 213.846 20.03 213.626 19.97ZM226.425 20.3C226.305 20.3 226.225 20.29 226.185 20.27C226.105 20.23 226.035 20.2 225.975 20.18C225.915 20.16 225.855 20.14 225.795 20.12C225.735 20.08 225.675 20.04 225.615 20C225.575 19.94 225.535 19.88 225.495 19.82C225.455 19.78 225.415 19.76 225.375 19.76C225.255 19.76 225.195 19.7 225.195 19.58C225.175 19.46 225.155 19.34 225.135 19.22C225.115 19.1 225.095 18.98 225.075 18.86C225.055 18.68 225.035 18.5 225.015 18.32C225.015 18.14 224.995 17.97 224.955 17.81V17.54C224.955 17.46 224.945 17.39 224.925 17.33C224.925 17.27 224.925 17.2 224.925 17.12C224.885 17.02 224.885 16.94 224.925 16.88C224.965 16.52 224.965 16.16 224.925 15.8C224.905 15.7 224.895 15.6 224.895 15.5C224.895 15.4 224.885 15.3 224.865 15.2C224.865 15 224.865 14.8 224.865 14.6C224.865 14.38 224.845 14.17 224.805 13.97V13.49C224.805 13.33 224.795 13.18 224.775 13.04C224.775 12.9 224.765 12.76 224.745 12.62C224.725 12.44 224.705 12.26 224.685 12.08C224.685 11.9 224.675 11.72 224.655 11.54C224.635 11.5 224.625 11.43 224.625 11.33C224.605 11.23 224.585 11.13 224.565 11.03C224.565 10.91 224.565 10.8 224.565 10.7L224.475 9.2C224.455 9.04 224.435 8.89 224.415 8.75C224.415 8.59 224.415 8.44 224.415 8.3C224.395 8.06 224.375 7.82 224.355 7.58C224.335 7.34 224.315 7.11 224.295 6.89C224.295 6.85 224.285 6.81 224.265 6.77C224.265 6.73 224.265 6.7 224.265 6.68C224.265 6.44 224.255 6.2 224.235 5.96C224.215 5.72 224.195 5.47 224.175 5.21L224.085 4.37C224.025 4.05 224.015 3.7 224.055 3.32C224.055 3.14 224.125 2.99 224.265 2.87C224.305 2.83 224.335 2.81 224.355 2.81C224.375 2.79 224.395 2.77 224.415 2.75C224.515 2.73 224.565 2.66 224.565 2.54C224.565 2.5 224.605 2.48 224.685 2.48H224.835C224.855 2.48 224.865 2.48 224.865 2.48C224.885 2.46 224.905 2.45 224.925 2.45C224.965 2.43 224.995 2.41 225.015 2.39C225.055 2.35 225.085 2.33 225.105 2.33C225.145 2.33 225.185 2.34 225.225 2.36C225.265 2.36 225.305 2.37 225.345 2.39C225.385 2.39 225.415 2.38 225.435 2.36C225.535 2.34 225.635 2.35 225.735 2.39C225.855 2.41 225.955 2.44 226.035 2.48C226.155 2.5 226.245 2.58 226.305 2.72C226.365 2.9 226.415 3.08 226.455 3.26C226.515 3.42 226.555 3.59 226.575 3.77V4.01C226.615 4.15 226.635 4.3 226.635 4.46C226.635 4.6 226.635 4.75 226.635 4.91C226.635 5.05 226.635 5.19 226.635 5.33C226.655 5.45 226.675 5.57 226.695 5.69C226.695 5.75 226.695 5.81 226.695 5.87C226.695 5.93 226.705 5.99 226.725 6.05C226.725 6.17 226.725 6.29 226.725 6.41C226.745 6.53 226.765 6.66 226.785 6.8C226.805 7.02 226.825 7.25 226.845 7.49C226.865 7.73 226.875 7.97 226.875 8.21C226.875 8.31 226.875 8.42 226.875 8.54C226.875 8.64 226.885 8.74 226.905 8.84C226.925 8.9 226.935 8.96 226.935 9.02C226.935 9.08 226.935 9.14 226.935 9.2V9.8C226.935 9.92 226.945 10.02 226.965 10.1C227.005 10.24 227.015 10.38 226.995 10.52C226.995 10.64 227.005 10.77 227.025 10.91L227.115 12.29C227.135 12.49 227.145 12.7 227.145 12.92C227.165 13.12 227.175 13.33 227.175 13.55C227.175 13.63 227.175 13.72 227.175 13.82C227.175 13.9 227.185 13.98 227.205 14.06C227.225 14.12 227.235 14.18 227.235 14.24C227.235 14.3 227.235 14.36 227.235 14.42C227.255 14.44 227.255 14.48 227.235 14.54C227.235 14.58 227.245 14.62 227.265 14.66C227.305 14.8 227.325 14.94 227.325 15.08C227.325 15.22 227.325 15.37 227.325 15.53C227.325 15.61 227.325 15.7 227.325 15.8C227.345 15.88 227.355 15.97 227.355 16.07C227.375 16.17 227.385 16.28 227.385 16.4C227.385 16.52 227.385 16.63 227.385 16.73C227.405 16.83 227.415 16.94 227.415 17.06C227.415 17.16 227.425 17.26 227.445 17.36C227.465 17.4 227.475 17.44 227.475 17.48C227.475 17.7 227.495 17.92 227.535 18.14C227.575 18.36 227.615 18.58 227.655 18.8C227.675 18.86 227.685 18.93 227.685 19.01C227.685 19.07 227.685 19.13 227.685 19.19C227.685 19.25 227.665 19.3 227.625 19.34C227.545 19.4 227.485 19.52 227.445 19.7C227.445 19.76 227.415 19.81 227.355 19.85C227.215 19.91 227.095 19.99 226.995 20.09C226.835 20.23 226.645 20.3 226.425 20.3ZM241.852 20.27C241.792 20.25 241.722 20.23 241.642 20.21C241.582 20.19 241.522 20.17 241.462 20.15C241.302 20.09 241.142 20.01 240.982 19.91C240.902 19.87 240.842 19.81 240.802 19.73C240.662 19.51 240.532 19.31 240.412 19.13C240.292 18.93 240.162 18.73 240.022 18.53L239.752 18.05C239.612 17.77 239.472 17.5 239.332 17.24C239.192 16.96 239.052 16.69 238.912 16.43C238.872 16.33 238.822 16.25 238.762 16.19C238.722 16.11 238.682 16.03 238.642 15.95C238.502 15.73 238.372 15.51 238.252 15.29C238.132 15.05 238.012 14.82 237.892 14.6L237.142 13.13C236.942 12.73 236.742 12.34 236.542 11.96C236.342 11.56 236.142 11.16 235.942 10.76C235.902 10.72 235.862 10.66 235.822 10.58C235.742 10.36 235.642 10.15 235.522 9.95C235.422 9.75 235.322 9.55 235.222 9.35C235.142 9.21 235.072 9.07 235.012 8.93C234.952 8.77 234.882 8.62 234.802 8.48L234.472 7.88C234.432 7.88 234.402 7.87 234.382 7.85C234.382 7.85 234.372 7.86 234.352 7.88C234.352 7.88 234.352 7.89 234.352 7.91C234.332 8.17 234.312 8.44 234.292 8.72C234.272 9 234.272 9.28 234.292 9.56C234.332 9.68 234.332 9.81 234.292 9.95C234.252 10.31 234.262 10.63 234.322 10.91C234.342 10.99 234.342 11.07 234.322 11.15C234.322 11.23 234.312 11.32 234.292 11.42C234.272 11.56 234.262 11.69 234.262 11.81C234.262 11.93 234.252 12.06 234.232 12.2C234.272 12.28 234.292 12.37 234.292 12.47C234.292 12.55 234.282 12.63 234.262 12.71C234.202 12.91 234.202 13.12 234.262 13.34C234.302 13.4 234.302 13.46 234.262 13.52C234.182 13.7 234.162 13.92 234.202 14.18C234.262 14.52 234.242 14.89 234.142 15.29C234.122 15.33 234.112 15.4 234.112 15.5C234.092 15.58 234.112 15.65 234.172 15.71C234.252 15.75 234.272 15.8 234.232 15.86C234.212 16.12 234.212 16.39 234.232 16.67C234.232 16.67 234.232 16.68 234.232 16.7C234.232 16.7 234.222 16.7 234.202 16.7C234.182 16.7 234.172 16.69 234.172 16.67C234.152 16.65 234.142 16.63 234.142 16.61C234.102 16.57 234.082 16.58 234.082 16.64C234.082 16.74 234.092 16.8 234.112 16.82C234.152 16.92 234.172 17.02 234.172 17.12C234.172 17.22 234.172 17.32 234.172 17.42V18.35C234.172 18.41 234.162 18.47 234.142 18.53C234.142 18.59 234.112 18.64 234.052 18.68C233.972 18.7 233.932 18.77 233.932 18.89C233.912 19.11 233.832 19.3 233.692 19.46C233.572 19.62 233.432 19.76 233.272 19.88C233.192 19.94 233.092 19.98 232.972 20C232.872 20 232.772 19.99 232.672 19.97L232.132 19.79C232.092 19.79 232.052 19.76 232.012 19.7C231.952 19.64 231.892 19.58 231.832 19.52C231.772 19.44 231.702 19.37 231.622 19.31C231.522 19.25 231.452 19.14 231.412 18.98C231.392 18.88 231.362 18.77 231.322 18.65C231.282 18.53 231.262 18.41 231.262 18.29C231.262 18.15 231.262 18.02 231.262 17.9C231.282 17.78 231.292 17.65 231.292 17.51C231.312 17.41 231.322 17.32 231.322 17.24C231.322 17.14 231.332 17.04 231.352 16.94V5.96C231.352 5.86 231.352 5.76 231.352 5.66C231.372 5.56 231.392 5.47 231.412 5.39C231.412 5.29 231.412 5.19 231.412 5.09C231.432 4.99 231.442 4.89 231.442 4.79C231.442 4.67 231.442 4.55 231.442 4.43C231.462 4.31 231.482 4.2 231.502 4.1C231.522 4.02 231.532 3.95 231.532 3.89C231.532 3.83 231.532 3.76 231.532 3.68V2.75C231.532 2.61 231.542 2.49 231.562 2.39C231.602 2.27 231.632 2.15 231.652 2.03L231.742 1.88C231.802 1.82 231.852 1.73 231.892 1.61C231.932 1.49 231.992 1.43 232.072 1.43C232.132 1.39 232.192 1.36 232.252 1.34C232.312 1.3 232.352 1.24 232.372 1.16L232.402 1.13C232.422 1.13 232.442 1.13 232.462 1.13C232.482 1.11 232.502 1.1 232.522 1.1C232.602 1.1 232.662 1.08 232.702 1.04C232.762 1 232.832 0.99 232.912 1.01C232.992 1.03 233.072 1.04 233.152 1.04C233.232 1.04 233.312 1.05 233.392 1.07C233.832 1.15 234.142 1.41 234.322 1.85L234.502 2.45C234.522 2.65 234.612 2.84 234.772 3.02C234.892 3.16 235.012 3.31 235.132 3.47C235.252 3.63 235.382 3.79 235.522 3.95C236.042 4.61 236.522 5.35 236.962 6.17C237.002 6.25 237.042 6.33 237.082 6.41C237.122 6.49 237.162 6.57 237.202 6.65L238.762 9.8C238.882 10.02 238.992 10.25 239.092 10.49C239.212 10.71 239.342 10.93 239.482 11.15C239.522 11.23 239.562 11.31 239.602 11.39C239.642 11.45 239.672 11.52 239.692 11.6C239.792 11.84 239.912 12.08 240.052 12.32C240.052 12.32 240.052 12.33 240.052 12.35C240.072 12.35 240.082 12.34 240.082 12.32C240.102 12.32 240.112 12.32 240.112 12.32C240.132 12.3 240.142 12.29 240.142 12.29L240.232 11.24V10.94C240.252 10.84 240.262 10.74 240.262 10.64C240.282 10.52 240.302 10.41 240.322 10.31C240.342 10.25 240.342 10.18 240.322 10.1C240.322 10.02 240.332 9.94 240.352 9.86C240.352 9.74 240.352 9.62 240.352 9.5C240.372 9.36 240.392 9.23 240.412 9.11C240.432 9.05 240.442 8.99 240.442 8.93C240.442 8.85 240.442 8.78 240.442 8.72V7.91H240.412V7.1C240.412 7 240.412 6.9 240.412 6.8C240.412 6.7 240.392 6.6 240.352 6.5C240.332 6.44 240.322 6.35 240.322 6.23L240.352 6.02C240.352 5.96 240.342 5.91 240.322 5.87C240.322 5.81 240.322 5.75 240.322 5.69C240.342 5.61 240.332 5.53 240.292 5.45C240.252 5.37 240.232 5.29 240.232 5.21C240.252 5.13 240.262 5.05 240.262 4.97C240.262 4.89 240.262 4.81 240.262 4.73C240.262 4.65 240.222 4.61 240.142 4.61C240.122 4.61 240.112 4.59 240.112 4.55C240.092 4.49 240.092 4.44 240.112 4.4C240.152 4.3 240.172 4.19 240.172 4.07C240.172 3.95 240.172 3.83 240.172 3.71V2.84C240.152 2.72 240.162 2.6 240.202 2.48C240.242 2.36 240.292 2.25 240.352 2.15L240.472 1.97C240.572 1.87 240.682 1.77 240.802 1.67C240.922 1.57 241.042 1.47 241.162 1.37C241.162 1.37 241.202 1.35 241.282 1.31C241.382 1.29 241.472 1.27 241.552 1.25C241.652 1.23 241.752 1.23 241.852 1.25C241.932 1.25 241.992 1.26 242.032 1.28C242.112 1.32 242.192 1.37 242.272 1.43C242.352 1.47 242.432 1.52 242.512 1.58C242.552 1.6 242.572 1.62 242.572 1.64C242.592 1.66 242.612 1.68 242.632 1.7C242.672 1.74 242.702 1.79 242.722 1.85C242.762 1.89 242.792 1.93 242.812 1.97C242.912 2.05 242.972 2.15 242.992 2.27C243.032 2.37 243.062 2.47 243.082 2.57V3.83C243.082 3.97 243.082 4.11 243.082 4.25C243.102 4.37 243.122 4.5 243.142 4.64C243.162 4.72 243.172 4.8 243.172 4.88C243.172 4.94 243.172 5.01 243.172 5.09C243.172 5.25 243.172 5.42 243.172 5.6C243.192 5.76 243.202 5.92 243.202 6.08V6.29C243.202 6.43 243.192 6.57 243.172 6.71C243.172 6.83 243.172 6.96 243.172 7.1V8.42C243.172 8.62 243.162 8.83 243.142 9.05C243.142 9.25 243.152 9.46 243.172 9.68C243.172 9.76 243.162 9.82 243.142 9.86C243.122 10.06 243.112 10.26 243.112 10.46C243.112 10.64 243.102 10.83 243.082 11.03C243.082 11.11 243.082 11.2 243.082 11.3C243.082 11.4 243.072 11.5 243.052 11.6C243.032 11.68 243.022 11.76 243.022 11.84C243.042 11.92 243.052 12 243.052 12.08C243.092 12.26 243.102 12.44 243.082 12.62C243.082 12.8 243.072 12.98 243.052 13.16C243.032 13.48 243.012 13.81 242.992 14.15C242.992 14.47 243.012 14.8 243.052 15.14C243.052 15.22 243.052 15.31 243.052 15.41C243.072 15.51 243.082 15.61 243.082 15.71C243.062 16.01 243.072 16.3 243.112 16.58C243.172 16.86 243.232 17.14 243.292 17.42C243.332 17.62 243.372 17.82 243.412 18.02C243.452 18.2 243.482 18.4 243.502 18.62C243.502 18.7 243.492 18.75 243.472 18.77C243.452 18.81 243.432 18.86 243.412 18.92C243.392 18.96 243.382 19 243.382 19.04C243.362 19.2 243.302 19.35 243.202 19.49C243.122 19.63 243.032 19.77 242.932 19.91C242.672 20.25 242.312 20.37 241.852 20.27Z" fill="#353535"/>
</svg>
