<svg width="60" height="20" viewBox="0 0 60 20" fill="none" xmlns="http://www.w3.org/2000/svg">
<path d="M8.4958 18.975C8.27913 19.025 8.05413 19.0083 7.8208 18.925C7.75413 18.9083 7.6958 18.8833 7.6458 18.85C7.61247 18.8167 7.5708 18.7833 7.5208 18.75C7.40413 18.6667 7.31247 18.5417 7.2458 18.375L7.1458 18.05C7.1458 18.0167 7.13747 17.9917 7.1208 17.975C7.1208 17.9417 7.1208 17.9167 7.1208 17.9C7.1208 17.6667 7.10413 17.4417 7.0708 17.225C7.03747 16.9917 7.00413 16.7667 6.9708 16.55C6.93747 16.3833 6.90413 16.2167 6.8708 16.05C6.85413 15.8833 6.82913 15.7167 6.7958 15.55C6.7958 15.5167 6.78747 15.4917 6.7708 15.475C6.7708 15.4583 6.7708 15.4417 6.7708 15.425C6.73747 15.225 6.70413 15.025 6.6708 14.825C6.63747 14.625 6.60413 14.4333 6.5708 14.25C6.55413 14.15 6.53747 14.05 6.5208 13.95C6.5208 13.85 6.50413 13.75 6.4708 13.65L6.3208 12.55C6.30413 12.4 6.27913 12.25 6.2458 12.1C6.22913 11.9333 6.20413 11.7667 6.1708 11.6C6.15413 11.4333 6.12913 11.275 6.0958 11.125C6.06247 10.9583 6.02913 10.8 5.9958 10.65L5.6208 9C5.58747 8.81667 5.55413 8.63333 5.5208 8.45C5.48747 8.26667 5.4458 8.09167 5.3958 7.925C5.3458 7.775 5.30413 7.625 5.2708 7.475C5.23747 7.30833 5.18747 7.15 5.1208 7L5.0958 6.9C5.0458 6.68333 4.97913 6.475 4.8958 6.275C4.82913 6.075 4.75413 5.875 4.6708 5.675C4.6708 5.65833 4.66247 5.65 4.6458 5.65C4.6458 5.63333 4.6458 5.625 4.6458 5.625C4.61247 5.525 4.55413 5.49167 4.4708 5.525C4.45413 5.54167 4.42913 5.55 4.3958 5.55C4.32913 5.56667 4.26247 5.59167 4.1958 5.625C4.1458 5.65833 4.08747 5.69167 4.0208 5.725C3.85413 5.775 3.71247 5.85 3.5958 5.95L2.9208 6.425C2.8208 6.475 2.72913 6.54167 2.6458 6.625C2.57913 6.70833 2.51247 6.79167 2.4458 6.875C2.3958 6.94167 2.3708 7.01667 2.3708 7.1L2.2958 7.55C2.27913 7.71667 2.26247 7.89167 2.2458 8.075C2.22913 8.25833 2.21247 8.44167 2.1958 8.625C2.17913 8.79167 2.15413 8.95 2.1208 9.1C2.10413 9.23333 2.0958 9.38333 2.0958 9.55C2.0958 9.68333 2.0708 9.825 2.0208 9.975C1.9708 10.1583 1.8458 10.275 1.6458 10.325C1.4958 10.3417 1.3708 10.2917 1.2708 10.175C1.18747 10.0917 1.12913 9.96667 1.0958 9.8C1.07913 9.68333 1.06247 9.575 1.0458 9.475C1.02913 9.375 1.0208 9.26667 1.0208 9.15V8.4C1.0208 8.25 1.01247 8.10833 0.995801 7.975C0.995801 7.84167 1.00413 7.71667 1.0208 7.6C1.0208 7.31667 0.954134 7.04167 0.820801 6.775L0.445801 6C0.379134 5.86667 0.320801 5.69167 0.270801 5.475C0.220801 5.24167 0.195801 5.05 0.195801 4.9C0.229134 4.51667 0.370801 4.2 0.620801 3.95C0.837468 3.73333 1.08747 3.59167 1.3708 3.525C1.4708 3.49167 1.60413 3.45833 1.7708 3.425L3.0958 3.2C3.22913 3.18333 3.35413 3.16667 3.4708 3.15C3.60413 3.11667 3.72913 3.09167 3.8458 3.075C4.0958 3.04167 4.3458 3.00833 4.5958 2.975C4.86247 2.94167 5.12913 2.91667 5.3958 2.9C5.5458 2.88333 5.6958 2.86667 5.8458 2.85C5.9958 2.83333 6.1458 2.81667 6.2958 2.8H6.3958C6.5458 2.78333 6.68747 2.775 6.8208 2.775C6.9708 2.75833 7.1208 2.74167 7.2708 2.725C7.35413 2.70833 7.43747 2.7 7.5208 2.7C7.60413 2.7 7.67913 2.69167 7.7458 2.675C7.76247 2.65833 7.7958 2.65 7.8458 2.65L8.7708 2.575C8.95413 2.55833 9.12913 2.54167 9.2958 2.525C9.47913 2.50833 9.66247 2.49167 9.8458 2.475C9.9958 2.45833 10.1458 2.44167 10.2958 2.425C10.4458 2.39167 10.5958 2.34167 10.7458 2.275C10.8958 2.20833 11.0458 2.19167 11.1958 2.225C11.3625 2.24167 11.5125 2.28333 11.6458 2.35C11.6958 2.36667 11.7375 2.4 11.7708 2.45C11.8208 2.48333 11.8625 2.51667 11.8958 2.55C11.9791 2.63333 12.0458 2.73333 12.0958 2.85C12.1458 2.95 12.1958 3.05 12.2458 3.15C12.2958 3.25 12.2958 3.35 12.2458 3.45C12.2125 3.51667 12.1875 3.59167 12.1708 3.675C12.1708 3.74167 12.1625 3.81667 12.1458 3.9C12.1458 3.98333 12.1208 4.05 12.0708 4.1C12.0375 4.11667 12.0041 4.14167 11.9708 4.175C11.9375 4.20833 11.9041 4.24167 11.8708 4.275C11.8208 4.29167 11.7708 4.34167 11.7208 4.425C11.6208 4.55833 11.4791 4.625 11.2958 4.625C11.2291 4.625 11.1625 4.63333 11.0958 4.65C11.0458 4.66667 10.9875 4.68333 10.9208 4.7C10.7708 4.73333 10.6708 4.78333 10.6208 4.85C10.5375 4.93333 10.4458 4.975 10.3458 4.975C10.2291 5.00833 10.1375 4.975 10.0708 4.875C10.0541 4.825 10.0125 4.8 9.9458 4.8C9.87913 4.81667 9.80413 4.825 9.7208 4.825C9.65413 4.825 9.58747 4.825 9.5208 4.825C9.45413 4.84167 9.37913 4.85 9.2958 4.85C9.22913 4.85 9.15413 4.85833 9.0708 4.875C9.00413 4.875 8.9458 4.88333 8.8958 4.9C8.8458 4.9 8.78747 4.9 8.7208 4.9C8.55413 4.91667 8.37913 4.93333 8.1958 4.95C8.02913 4.96667 7.85413 4.98333 7.6708 5C7.5708 5 7.4958 5.00833 7.4458 5.025C7.37913 5.05833 7.3458 5.10833 7.3458 5.175C7.32913 5.24167 7.32913 5.325 7.3458 5.425L7.4958 6.2C7.52913 6.35 7.56247 6.50833 7.5958 6.675C7.62913 6.825 7.66247 6.98333 7.6958 7.15L7.7708 7.7C7.7708 7.76667 7.7708 7.83333 7.7708 7.9C7.78747 7.95 7.80413 8.00833 7.8208 8.075C7.85413 8.275 7.88747 8.475 7.9208 8.675C7.9708 8.875 8.00413 9.075 8.0208 9.275L8.0458 9.375C8.11247 9.59167 8.16247 9.80833 8.1958 10.025C8.22913 10.2417 8.26247 10.4667 8.2958 10.7C8.32913 10.85 8.36247 11.0083 8.3958 11.175C8.42913 11.325 8.45413 11.475 8.4708 11.625C8.48747 11.7417 8.50413 11.8583 8.5208 11.975C8.53747 12.075 8.55413 12.1833 8.5708 12.3V12.425C8.58747 12.5583 8.60413 12.6917 8.6208 12.825C8.65413 12.9417 8.67913 13.0667 8.6958 13.2L8.7708 13.95C8.78747 14.0667 8.80413 14.1833 8.8208 14.3C8.83747 14.4167 8.85413 14.5417 8.8708 14.675C8.8708 14.7083 8.8708 14.75 8.8708 14.8C8.88747 14.8333 8.8958 14.8667 8.8958 14.9C8.8958 14.9833 8.90413 15.075 8.9208 15.175C8.93747 15.2583 8.95413 15.35 8.9708 15.45C9.00413 15.6333 9.03747 15.825 9.0708 16.025C9.10413 16.2083 9.13747 16.4 9.1708 16.6C9.18747 16.7167 9.21247 16.8333 9.2458 16.95C9.27913 17.05 9.30413 17.1583 9.3208 17.275C9.33747 17.3583 9.38747 17.4417 9.4708 17.525C9.53747 17.575 9.55413 17.6333 9.5208 17.7C9.4708 17.7667 9.43747 17.8417 9.4208 17.925C9.4208 18.0083 9.41247 18.0917 9.3958 18.175C9.3958 18.2417 9.38747 18.2917 9.3708 18.325C9.3708 18.4083 9.33747 18.4667 9.2708 18.5C9.20413 18.5333 9.13747 18.6 9.0708 18.7C8.98747 18.7833 8.9208 18.8417 8.8708 18.875C8.8208 18.925 8.75413 18.95 8.6708 18.95C8.63747 18.9333 8.57913 18.9417 8.4958 18.975ZM21.8038 19.725C21.5705 19.775 21.3538 19.7417 21.1538 19.625C21.0371 19.5583 20.9205 19.5 20.8038 19.45C20.6871 19.4167 20.5621 19.3917 20.4288 19.375C20.2621 19.3417 20.0955 19.3 19.9288 19.25C19.7788 19.2167 19.6205 19.1667 19.4538 19.1C19.3871 19.0667 19.3205 19.0333 19.2538 19C19.2038 18.9667 19.1455 18.925 19.0788 18.875C19.0288 18.8083 18.9621 18.7667 18.8788 18.75C18.7621 18.7 18.6371 18.6167 18.5038 18.5C18.4705 18.4667 18.4455 18.4333 18.4288 18.4C18.3621 18.3333 18.2871 18.275 18.2038 18.225C18.1371 18.175 18.0621 18.125 17.9788 18.075C17.7621 17.9417 17.5205 17.7833 17.2538 17.6C17.2038 17.5667 17.1621 17.525 17.1288 17.475C17.0621 17.3917 16.9788 17.3167 16.8788 17.25C16.7955 17.1833 16.7121 17.1167 16.6288 17.05L15.9538 16.6C15.9371 16.5833 15.9121 16.575 15.8788 16.575C15.8455 16.5583 15.8121 16.5417 15.7788 16.525C15.5621 16.425 15.3871 16.2833 15.2538 16.1C15.1205 15.9333 14.9955 15.7583 14.8788 15.575C14.7621 15.3917 14.6538 15.2167 14.5538 15.05C14.5205 15.0167 14.4871 14.9667 14.4538 14.9C14.3871 14.8167 14.3288 14.725 14.2788 14.625C14.2288 14.525 14.1871 14.4333 14.1538 14.35C14.1205 14.2667 14.0871 14.175 14.0538 14.075L13.9788 13.7C13.9288 13.5667 13.8955 13.4333 13.8788 13.3C13.8621 13.15 13.8371 13.0083 13.8038 12.875C13.7871 12.775 13.7621 12.675 13.7288 12.575C13.6955 12.4583 13.6538 12.35 13.6038 12.25C13.5705 12.2 13.5455 12.15 13.5288 12.1C13.5121 12.0333 13.4871 11.9667 13.4538 11.9C13.4371 11.8667 13.4288 11.8083 13.4288 11.725C13.4121 11.5917 13.4038 11.4583 13.4038 11.325C13.4205 11.1917 13.4538 11.0667 13.5038 10.95L13.5788 10.675C13.6121 10.5917 13.6371 10.5083 13.6538 10.425C13.6705 10.3417 13.6871 10.2667 13.7038 10.2C13.7038 10.0833 13.6871 10 13.6538 9.95C13.6371 9.91667 13.6205 9.88333 13.6038 9.85C13.5871 9.8 13.5705 9.75833 13.5538 9.725C13.4705 9.55833 13.4621 9.40833 13.5288 9.275L13.6038 9.075C13.6538 8.99167 13.6788 8.90833 13.6788 8.825C13.6788 8.55833 13.7621 8.28333 13.9288 8C14.0455 7.8 14.1621 7.64167 14.2788 7.525C14.3788 7.425 14.4538 7.325 14.5038 7.225C14.5705 7.09167 14.6621 6.96667 14.7788 6.85C14.9288 6.7 15.0205 6.56667 15.0538 6.45C15.0871 6.36667 15.1288 6.3 15.1788 6.25L15.5788 5.85C15.6955 5.7 15.6955 5.55833 15.5788 5.425C15.5288 5.35833 15.4871 5.29167 15.4538 5.225C15.4371 5.14167 15.4121 5.06667 15.3788 5C15.3288 4.71667 15.3871 4.46667 15.5538 4.25C15.6205 4.16667 15.6871 4.09167 15.7538 4.025C15.8371 3.95833 15.9288 3.90833 16.0288 3.875C16.0788 3.85833 16.1205 3.84167 16.1538 3.825C16.2038 3.80833 16.2538 3.79167 16.3038 3.775C16.3871 3.75833 16.4705 3.73333 16.5538 3.7C16.6538 3.66667 16.7455 3.63333 16.8288 3.6C16.8955 3.56667 16.9538 3.54167 17.0038 3.525C17.0538 3.50833 17.1121 3.5 17.1788 3.5C17.2455 3.48333 17.3038 3.475 17.3538 3.475C17.4038 3.45833 17.4538 3.45 17.5038 3.45C17.6371 3.43333 17.7705 3.36667 17.9038 3.25C18.1371 3.06667 18.3705 2.88333 18.6038 2.7C18.8538 2.5 19.0871 2.3 19.3038 2.1C19.4371 1.98333 19.5788 1.875 19.7288 1.775C19.8955 1.675 20.0621 1.58333 20.2288 1.5C20.3455 1.45 20.4705 1.40833 20.6038 1.375C20.6871 1.34167 20.7788 1.31667 20.8788 1.3C20.9788 1.28333 21.0705 1.26667 21.1538 1.25L21.6788 1.175C21.9121 1.15833 22.1288 1.13333 22.3288 1.1C22.5455 1.06667 22.7621 1.03333 22.9788 0.999999C23.0121 0.999999 23.0455 0.999999 23.0788 0.999999C23.1121 0.983333 23.1371 0.975 23.1538 0.975H23.4788C23.5955 0.975 23.7038 0.983333 23.8038 0.999999C23.9038 0.999999 24.0038 1.01667 24.1038 1.05C24.2371 1.1 24.3538 1.16667 24.4538 1.25C24.5538 1.31667 24.6371 1.41667 24.7038 1.55C24.8205 1.71667 24.8871 1.875 24.9038 2.025C24.9205 2.125 24.9288 2.225 24.9288 2.325C24.9455 2.425 24.9538 2.525 24.9538 2.625V2.85C24.9538 2.9 24.9788 2.94167 25.0288 2.975L25.1788 3.05C25.4121 3.13333 25.6371 3.24167 25.8538 3.375C26.0705 3.50833 26.2788 3.65 26.4788 3.8C26.6121 3.88333 26.7121 3.96667 26.7788 4.05C26.8955 4.16667 27.0038 4.28333 27.1038 4.4C27.2038 4.5 27.3038 4.60833 27.4038 4.725C27.4705 4.80833 27.5371 4.89167 27.6038 4.975C27.6705 5.04167 27.7371 5.11667 27.8038 5.2C27.8538 5.25 27.8871 5.29167 27.9038 5.325C27.9371 5.425 27.9955 5.525 28.0788 5.625C28.1788 5.79167 28.2621 5.95833 28.3288 6.125C28.3788 6.25833 28.4288 6.4 28.4788 6.55C28.5288 6.68333 28.5705 6.825 28.6038 6.975C28.6038 7.025 28.6205 7.1 28.6538 7.2C28.6705 7.25 28.6788 7.3 28.6788 7.35C28.6955 7.38333 28.7038 7.41667 28.7038 7.45C28.7205 7.55 28.7371 7.65 28.7538 7.75C28.7871 7.85 28.8121 7.95 28.8288 8.05C28.8455 8.13333 28.8621 8.225 28.8788 8.325C28.8955 8.40833 28.9121 8.5 28.9288 8.6C28.9455 8.75 28.9705 8.90833 29.0038 9.075C29.0371 9.225 29.0621 9.375 29.0788 9.525V9.65C29.0788 9.83333 29.0871 10.025 29.1038 10.225C29.1371 10.4083 29.1538 10.5917 29.1538 10.775C29.1538 10.8417 29.1538 10.9167 29.1538 11C29.1538 11.0833 29.1455 11.1667 29.1288 11.25C29.1121 11.2833 29.1038 11.325 29.1038 11.375C29.1038 11.575 29.0871 11.775 29.0538 11.975C29.0205 12.1583 28.9871 12.3417 28.9538 12.525C28.8371 13.175 28.6621 13.8333 28.4288 14.5C28.4121 14.5667 28.3955 14.6417 28.3788 14.725C28.3621 14.7917 28.3371 14.8667 28.3038 14.95L27.9288 16.05C27.9121 16.1167 27.8788 16.1917 27.8288 16.275C27.7955 16.3417 27.7621 16.4167 27.7288 16.5L27.2788 17.3C27.1788 17.4833 27.0538 17.6583 26.9038 17.825C26.7705 17.975 26.6038 18.1083 26.4038 18.225C26.2038 18.3417 26.0205 18.5 25.8538 18.7C25.7371 18.8667 25.5538 18.9667 25.3038 19C25.1871 19.0167 25.0705 19.025 24.9538 19.025C24.8538 19.0417 24.7538 19.0667 24.6538 19.1L24.4038 19.175C24.3871 19.175 24.3705 19.175 24.3538 19.175C24.3538 19.1917 24.3371 19.2 24.3038 19.2C24.1205 19.2333 23.9288 19.275 23.7288 19.325C23.5455 19.375 23.3621 19.4167 23.1788 19.45C23.1455 19.4667 23.0955 19.475 23.0288 19.475C22.9288 19.475 22.8288 19.4833 22.7288 19.5C22.6288 19.5167 22.5288 19.5417 22.4288 19.575L21.8038 19.725ZM21.1288 17.125C21.2288 17.1417 21.3205 17.1333 21.4038 17.1C21.4705 17.0667 21.5371 17.0583 21.6038 17.075H21.8038C21.8871 17.075 21.9621 17.075 22.0288 17.075C22.0955 17.075 22.1621 17.0583 22.2288 17.025C22.2788 16.9917 22.3705 16.9667 22.5038 16.95C22.6538 16.9167 22.7288 16.9 22.7288 16.9C22.8621 16.8667 22.9955 16.8333 23.1288 16.8C23.2621 16.75 23.3955 16.6917 23.5288 16.625L24.5788 16.175C24.7121 16.125 24.8371 16.0667 24.9538 16C25.0705 15.9167 25.1871 15.8417 25.3038 15.775C25.3871 15.6917 25.4621 15.6333 25.5288 15.6C25.6288 15.5167 25.7038 15.4167 25.7538 15.3C25.7871 15.2167 25.8205 15.1333 25.8538 15.05C25.8871 14.9667 25.9121 14.8833 25.9288 14.8C25.9955 14.6167 26.0538 14.4333 26.1038 14.25C26.1538 14.05 26.2121 13.8583 26.2788 13.675C26.3621 13.425 26.4371 13.1833 26.5038 12.95C26.5871 12.7 26.6538 12.4417 26.7038 12.175C26.7205 12.0917 26.7371 12 26.7538 11.9C26.7705 11.8 26.7871 11.7 26.8038 11.6C26.8205 11.4833 26.8288 11.3667 26.8288 11.25C26.8288 11.1333 26.8371 11.0167 26.8538 10.9V10.725C26.8538 10.6083 26.8455 10.4917 26.8288 10.375C26.8288 10.2583 26.8288 10.1417 26.8288 10.025C26.8121 9.725 26.7788 9.425 26.7288 9.125C26.6788 8.825 26.6205 8.525 26.5538 8.225C26.5205 8.09167 26.4871 7.96667 26.4538 7.85C26.4371 7.71667 26.4121 7.59167 26.3788 7.475C26.3288 7.24167 26.2538 7.025 26.1538 6.825C26.0538 6.60833 25.9371 6.4 25.8038 6.2C25.7871 6.15 25.7621 6.125 25.7288 6.125C25.6121 5.99167 25.4871 5.85833 25.3538 5.725C25.2205 5.59167 25.0621 5.49167 24.8788 5.425C24.8121 5.40833 24.7455 5.375 24.6788 5.325C24.6121 5.29167 24.5455 5.25833 24.4788 5.225C24.4121 5.19167 24.3371 5.16667 24.2538 5.15C23.9705 5.08333 23.6621 5.03333 23.3288 5C23.3121 4.98333 23.2871 4.98333 23.2538 5C23.2205 5.01667 23.2038 5.04167 23.2038 5.075C23.2038 5.10833 23.1955 5.15 23.1788 5.2C23.1788 5.23333 23.1788 5.26667 23.1788 5.3C23.1621 5.5 23.1455 5.70833 23.1288 5.925C23.1121 6.125 23.1121 6.33333 23.1288 6.55C23.1288 6.63333 23.1288 6.725 23.1288 6.825C23.1288 6.90833 23.1205 6.99167 23.1038 7.075V7.425C23.0871 7.49167 23.0788 7.56667 23.0788 7.65C23.0788 7.71667 23.0705 7.78333 23.0538 7.85V8C23.0371 8.11667 23.0288 8.23333 23.0288 8.35C23.0288 8.45 23.0121 8.56667 22.9788 8.7C22.9621 8.73333 22.9538 8.78333 22.9538 8.85C22.9871 9.01667 22.9871 9.19167 22.9538 9.375V9.825C22.9371 9.94167 22.9121 10.0667 22.8788 10.2C22.8455 10.3167 22.7621 10.4167 22.6288 10.5C22.5955 10.5167 22.5371 10.5167 22.4538 10.5C22.3705 10.4833 22.3121 10.4667 22.2788 10.45C22.1621 10.4 22.0871 10.3333 22.0538 10.25C22.0371 10.2 22.0121 10.15 21.9788 10.1C21.9621 10.05 21.9538 10 21.9538 9.95C21.9371 9.81667 21.9121 9.68333 21.8788 9.55C21.8621 9.4 21.8538 9.25 21.8538 9.1C21.8538 8.93333 21.8538 8.76667 21.8538 8.6C21.8538 8.43333 21.8455 8.26667 21.8288 8.1V7.7C21.8455 7.63333 21.8538 7.56667 21.8538 7.5C21.8538 7.41667 21.8538 7.34167 21.8538 7.275C21.8538 7.14167 21.8455 7.00833 21.8288 6.875C21.8288 6.74167 21.8288 6.60833 21.8288 6.475C21.8288 6.375 21.8205 6.28333 21.8038 6.2C21.8038 6.1 21.7955 6 21.7788 5.9C21.7621 5.83333 21.7455 5.775 21.7288 5.725C21.7121 5.675 21.6871 5.625 21.6538 5.575C21.6038 5.425 21.5038 5.30833 21.3538 5.225C21.2538 5.14167 21.1455 5.14167 21.0288 5.225C20.9621 5.275 20.8955 5.325 20.8288 5.375C20.7788 5.40833 20.7205 5.45833 20.6538 5.525L20.5538 5.625C20.4538 5.675 20.3621 5.74167 20.2788 5.825C20.2121 5.89167 20.1371 5.96667 20.0538 6.05C20.0038 6.1 19.9538 6.15 19.9038 6.2C19.8538 6.23333 19.7955 6.26667 19.7288 6.3C19.6288 6.36667 19.5621 6.41667 19.5288 6.45C19.4455 6.51667 19.3621 6.58333 19.2788 6.65C19.1955 6.7 19.1121 6.76667 19.0288 6.85C18.9955 6.88333 18.9621 6.90833 18.9288 6.925C18.8955 6.94167 18.8621 6.96667 18.8288 7C18.7955 7.03333 18.7621 7.06667 18.7288 7.1C18.6121 7.21667 18.4871 7.34167 18.3538 7.475C18.2371 7.60833 18.1121 7.73333 17.9788 7.85C17.8955 7.93333 17.8121 8.025 17.7288 8.125C17.6455 8.20833 17.5705 8.3 17.5038 8.4C17.4871 8.45 17.4455 8.50833 17.3788 8.575L17.2038 8.8C17.0871 8.98333 16.9871 9.175 16.9038 9.375C16.8205 9.575 16.7455 9.78333 16.6788 10C16.6288 10.15 16.6038 10.3 16.6038 10.45C16.5871 10.6 16.5788 10.7583 16.5788 10.925C16.5788 11.075 16.5955 11.2333 16.6288 11.4C16.6288 11.4333 16.6288 11.475 16.6288 11.525C16.6455 11.5583 16.6455 11.5917 16.6288 11.625C16.6288 11.7583 16.6371 11.8917 16.6538 12.025C16.6705 12.1417 16.6788 12.2667 16.6788 12.4C16.6955 12.4333 16.7038 12.475 16.7038 12.525C16.7205 12.5583 16.7371 12.5917 16.7538 12.625C16.7871 12.675 16.8205 12.725 16.8538 12.775C16.8871 12.825 16.9038 12.8833 16.9038 12.95C16.9038 12.9667 16.9205 12.9917 16.9538 13.025C16.9871 13.0917 17.0038 13.1417 17.0038 13.175C17.0705 13.2917 17.1121 13.4 17.1288 13.5C17.1621 13.6167 17.2121 13.7083 17.2788 13.775L17.4038 13.925C17.4038 13.975 17.4205 14.025 17.4538 14.075C17.4871 14.1083 17.5121 14.1417 17.5288 14.175C17.5955 14.2417 17.6288 14.3083 17.6288 14.375C17.6621 14.4917 17.7121 14.5833 17.7788 14.65C17.8121 14.6833 17.8455 14.7167 17.8788 14.75C17.9121 14.7833 17.9371 14.8167 17.9538 14.85C18.0371 14.9333 18.0788 15.0167 18.0788 15.1C18.0788 15.15 18.0871 15.1833 18.1038 15.2C18.1538 15.2167 18.1871 15.25 18.2038 15.3C18.2205 15.35 18.2371 15.3917 18.2538 15.425C18.2538 15.4417 18.2538 15.45 18.2538 15.45C18.2705 15.45 18.2788 15.4583 18.2788 15.475C18.2788 15.5083 18.3538 15.575 18.5038 15.675C18.6538 15.775 18.7371 15.8167 18.7538 15.8L18.8038 15.75C18.8205 15.75 18.8288 15.7583 18.8288 15.775H18.8538C18.9705 15.8583 19.0121 15.9583 18.9788 16.075C18.9455 16.075 18.9538 16.1 19.0038 16.15L19.0788 16.2L19.1038 16.225C19.1705 16.3083 19.2705 16.3917 19.4038 16.475C19.4371 16.4917 19.4788 16.5 19.5288 16.5L19.6288 16.475C19.7788 16.4417 19.8955 16.5083 19.9788 16.675C19.9788 16.7083 20.0038 16.75 20.0538 16.8C20.1705 16.8667 20.2871 16.9167 20.4038 16.95C20.5371 16.9833 20.6621 17.0167 20.7788 17.05C20.8455 17.0667 20.9038 17.0833 20.9538 17.1C21.0038 17.1 21.0621 17.1083 21.1288 17.125ZM39.1354 18.975C38.9188 19.025 38.6938 19.0083 38.4604 18.925C38.3938 18.9083 38.3354 18.8833 38.2854 18.85C38.2521 18.8167 38.2104 18.7833 38.1604 18.75C38.0438 18.6667 37.9521 18.5417 37.8854 18.375L37.7854 18.05C37.7854 18.0167 37.7771 17.9917 37.7604 17.975C37.7604 17.9417 37.7604 17.9167 37.7604 17.9C37.7604 17.6667 37.7438 17.4417 37.7104 17.225C37.6771 16.9917 37.6438 16.7667 37.6104 16.55C37.5771 16.3833 37.5438 16.2167 37.5104 16.05C37.4938 15.8833 37.4688 15.7167 37.4354 15.55C37.4354 15.5167 37.4271 15.4917 37.4104 15.475C37.4104 15.4583 37.4104 15.4417 37.4104 15.425C37.3771 15.225 37.3438 15.025 37.3104 14.825C37.2771 14.625 37.2438 14.4333 37.2104 14.25C37.1938 14.15 37.1771 14.05 37.1604 13.95C37.1604 13.85 37.1438 13.75 37.1104 13.65L36.9604 12.55C36.9438 12.4 36.9188 12.25 36.8854 12.1C36.8688 11.9333 36.8438 11.7667 36.8104 11.6C36.7938 11.4333 36.7688 11.275 36.7354 11.125C36.7021 10.9583 36.6688 10.8 36.6354 10.65L36.2604 9C36.2271 8.81667 36.1938 8.63333 36.1604 8.45C36.1271 8.26667 36.0854 8.09167 36.0354 7.925C35.9854 7.775 35.9438 7.625 35.9104 7.475C35.8771 7.30833 35.8271 7.15 35.7604 7L35.7354 6.9C35.6854 6.68333 35.6188 6.475 35.5354 6.275C35.4688 6.075 35.3938 5.875 35.3104 5.675C35.3104 5.65833 35.3021 5.65 35.2854 5.65C35.2854 5.63333 35.2854 5.625 35.2854 5.625C35.2521 5.525 35.1938 5.49167 35.1104 5.525C35.0938 5.54167 35.0688 5.55 35.0354 5.55C34.9688 5.56667 34.9021 5.59167 34.8354 5.625C34.7854 5.65833 34.7271 5.69167 34.6604 5.725C34.4938 5.775 34.3521 5.85 34.2354 5.95L33.5604 6.425C33.4604 6.475 33.3688 6.54167 33.2854 6.625C33.2188 6.70833 33.1521 6.79167 33.0854 6.875C33.0354 6.94167 33.0104 7.01667 33.0104 7.1L32.9354 7.55C32.9188 7.71667 32.9021 7.89167 32.8854 8.075C32.8688 8.25833 32.8521 8.44167 32.8354 8.625C32.8188 8.79167 32.7938 8.95 32.7604 9.1C32.7438 9.23333 32.7354 9.38333 32.7354 9.55C32.7354 9.68333 32.7104 9.825 32.6604 9.975C32.6104 10.1583 32.4854 10.275 32.2854 10.325C32.1354 10.3417 32.0104 10.2917 31.9104 10.175C31.8271 10.0917 31.7688 9.96667 31.7354 9.8C31.7188 9.68333 31.7021 9.575 31.6854 9.475C31.6688 9.375 31.6604 9.26667 31.6604 9.15V8.4C31.6604 8.25 31.6521 8.10833 31.6354 7.975C31.6354 7.84167 31.6438 7.71667 31.6604 7.6C31.6604 7.31667 31.5938 7.04167 31.4604 6.775L31.0854 6C31.0188 5.86667 30.9604 5.69167 30.9104 5.475C30.8604 5.24167 30.8354 5.05 30.8354 4.9C30.8688 4.51667 31.0104 4.2 31.2604 3.95C31.4771 3.73333 31.7271 3.59167 32.0104 3.525C32.1104 3.49167 32.2438 3.45833 32.4104 3.425L33.7354 3.2C33.8688 3.18333 33.9938 3.16667 34.1104 3.15C34.2438 3.11667 34.3688 3.09167 34.4854 3.075C34.7354 3.04167 34.9854 3.00833 35.2354 2.975C35.5021 2.94167 35.7688 2.91667 36.0354 2.9C36.1854 2.88333 36.3354 2.86667 36.4854 2.85C36.6354 2.83333 36.7854 2.81667 36.9354 2.8H37.0354C37.1854 2.78333 37.3271 2.775 37.4604 2.775C37.6104 2.75833 37.7604 2.74167 37.9104 2.725C37.9938 2.70833 38.0771 2.7 38.1604 2.7C38.2438 2.7 38.3188 2.69167 38.3854 2.675C38.4021 2.65833 38.4354 2.65 38.4854 2.65L39.4104 2.575C39.5938 2.55833 39.7688 2.54167 39.9354 2.525C40.1188 2.50833 40.3021 2.49167 40.4854 2.475C40.6354 2.45833 40.7854 2.44167 40.9354 2.425C41.0854 2.39167 41.2354 2.34167 41.3854 2.275C41.5354 2.20833 41.6854 2.19167 41.8354 2.225C42.0021 2.24167 42.1521 2.28333 42.2855 2.35C42.3354 2.36667 42.3771 2.4 42.4104 2.45C42.4604 2.48333 42.5021 2.51667 42.5354 2.55C42.6188 2.63333 42.6854 2.73333 42.7355 2.85C42.7854 2.95 42.8354 3.05 42.8854 3.15C42.9355 3.25 42.9355 3.35 42.8854 3.45C42.8521 3.51667 42.8271 3.59167 42.8104 3.675C42.8104 3.74167 42.8021 3.81667 42.7854 3.9C42.7854 3.98333 42.7604 4.05 42.7104 4.1C42.6771 4.11667 42.6438 4.14167 42.6105 4.175C42.5771 4.20833 42.5438 4.24167 42.5104 4.275C42.4604 4.29167 42.4104 4.34167 42.3604 4.425C42.2604 4.55833 42.1188 4.625 41.9355 4.625C41.8688 4.625 41.8021 4.63333 41.7354 4.65C41.6854 4.66667 41.6271 4.68333 41.5604 4.7C41.4104 4.73333 41.3104 4.78333 41.2604 4.85C41.1771 4.93333 41.0854 4.975 40.9854 4.975C40.8688 5.00833 40.7771 4.975 40.7104 4.875C40.6938 4.825 40.6521 4.8 40.5854 4.8C40.5188 4.81667 40.4438 4.825 40.3604 4.825C40.2938 4.825 40.2271 4.825 40.1604 4.825C40.0938 4.84167 40.0188 4.85 39.9354 4.85C39.8688 4.85 39.7938 4.85833 39.7104 4.875C39.6438 4.875 39.5854 4.88333 39.5354 4.9C39.4854 4.9 39.4271 4.9 39.3604 4.9C39.1938 4.91667 39.0188 4.93333 38.8354 4.95C38.6688 4.96667 38.4938 4.98333 38.3104 5C38.2104 5 38.1354 5.00833 38.0854 5.025C38.0188 5.05833 37.9854 5.10833 37.9854 5.175C37.9688 5.24167 37.9688 5.325 37.9854 5.425L38.1354 6.2C38.1688 6.35 38.2021 6.50833 38.2354 6.675C38.2688 6.825 38.3021 6.98333 38.3354 7.15L38.4104 7.7C38.4104 7.76667 38.4104 7.83333 38.4104 7.9C38.4271 7.95 38.4438 8.00833 38.4604 8.075C38.4938 8.275 38.5271 8.475 38.5604 8.675C38.6104 8.875 38.6438 9.075 38.6604 9.275L38.6854 9.375C38.7521 9.59167 38.8021 9.80833 38.8354 10.025C38.8688 10.2417 38.9021 10.4667 38.9354 10.7C38.9688 10.85 39.0021 11.0083 39.0354 11.175C39.0688 11.325 39.0938 11.475 39.1104 11.625C39.1271 11.7417 39.1438 11.8583 39.1604 11.975C39.1771 12.075 39.1938 12.1833 39.2104 12.3V12.425C39.2271 12.5583 39.2438 12.6917 39.2604 12.825C39.2938 12.9417 39.3188 13.0667 39.3354 13.2L39.4104 13.95C39.4271 14.0667 39.4438 14.1833 39.4604 14.3C39.4771 14.4167 39.4938 14.5417 39.5104 14.675C39.5104 14.7083 39.5104 14.75 39.5104 14.8C39.5271 14.8333 39.5354 14.8667 39.5354 14.9C39.5354 14.9833 39.5438 15.075 39.5604 15.175C39.5771 15.2583 39.5938 15.35 39.6104 15.45C39.6438 15.6333 39.6771 15.825 39.7104 16.025C39.7438 16.2083 39.7771 16.4 39.8104 16.6C39.8271 16.7167 39.8521 16.8333 39.8854 16.95C39.9188 17.05 39.9438 17.1583 39.9604 17.275C39.9771 17.3583 40.0271 17.4417 40.1104 17.525C40.1771 17.575 40.1938 17.6333 40.1604 17.7C40.1104 17.7667 40.0771 17.8417 40.0604 17.925C40.0604 18.0083 40.0521 18.0917 40.0355 18.175C40.0355 18.2417 40.0271 18.2917 40.0104 18.325C40.0104 18.4083 39.9771 18.4667 39.9104 18.5C39.8438 18.5333 39.7771 18.6 39.7104 18.7C39.6271 18.7833 39.5604 18.8417 39.5104 18.875C39.4604 18.925 39.3938 18.95 39.3104 18.95C39.2771 18.9333 39.2188 18.9417 39.1354 18.975ZM52.4435 19.725C52.2101 19.775 51.9935 19.7417 51.7935 19.625C51.6768 19.5583 51.5601 19.5 51.4435 19.45C51.3268 19.4167 51.2018 19.3917 51.0685 19.375C50.9018 19.3417 50.7351 19.3 50.5685 19.25C50.4185 19.2167 50.2601 19.1667 50.0935 19.1C50.0268 19.0667 49.9601 19.0333 49.8935 19C49.8435 18.9667 49.7851 18.925 49.7185 18.875C49.6685 18.8083 49.6018 18.7667 49.5185 18.75C49.4018 18.7 49.2768 18.6167 49.1435 18.5C49.1101 18.4667 49.0851 18.4333 49.0685 18.4C49.0018 18.3333 48.9268 18.275 48.8435 18.225C48.7768 18.175 48.7018 18.125 48.6185 18.075C48.4018 17.9417 48.1601 17.7833 47.8935 17.6C47.8435 17.5667 47.8018 17.525 47.7685 17.475C47.7018 17.3917 47.6185 17.3167 47.5185 17.25C47.4351 17.1833 47.3518 17.1167 47.2685 17.05L46.5935 16.6C46.5768 16.5833 46.5518 16.575 46.5185 16.575C46.4851 16.5583 46.4518 16.5417 46.4185 16.525C46.2018 16.425 46.0268 16.2833 45.8935 16.1C45.7601 15.9333 45.6351 15.7583 45.5185 15.575C45.4018 15.3917 45.2935 15.2167 45.1935 15.05C45.1601 15.0167 45.1268 14.9667 45.0935 14.9C45.0268 14.8167 44.9685 14.725 44.9185 14.625C44.8685 14.525 44.8268 14.4333 44.7935 14.35C44.7601 14.2667 44.7268 14.175 44.6935 14.075L44.6185 13.7C44.5685 13.5667 44.5351 13.4333 44.5185 13.3C44.5018 13.15 44.4768 13.0083 44.4435 12.875C44.4268 12.775 44.4018 12.675 44.3685 12.575C44.3351 12.4583 44.2935 12.35 44.2435 12.25C44.2101 12.2 44.1851 12.15 44.1685 12.1C44.1518 12.0333 44.1268 11.9667 44.0935 11.9C44.0768 11.8667 44.0685 11.8083 44.0685 11.725C44.0518 11.5917 44.0435 11.4583 44.0435 11.325C44.0601 11.1917 44.0935 11.0667 44.1435 10.95L44.2185 10.675C44.2518 10.5917 44.2768 10.5083 44.2935 10.425C44.3101 10.3417 44.3268 10.2667 44.3435 10.2C44.3435 10.0833 44.3268 10 44.2935 9.95C44.2768 9.91667 44.2601 9.88333 44.2435 9.85C44.2268 9.8 44.2101 9.75833 44.1935 9.725C44.1101 9.55833 44.1018 9.40833 44.1685 9.275L44.2435 9.075C44.2935 8.99167 44.3185 8.90833 44.3185 8.825C44.3185 8.55833 44.4018 8.28333 44.5685 8C44.6851 7.8 44.8018 7.64167 44.9185 7.525C45.0185 7.425 45.0935 7.325 45.1435 7.225C45.2101 7.09167 45.3018 6.96667 45.4185 6.85C45.5685 6.7 45.6601 6.56667 45.6935 6.45C45.7268 6.36667 45.7685 6.3 45.8185 6.25L46.2185 5.85C46.3351 5.7 46.3351 5.55833 46.2185 5.425C46.1685 5.35833 46.1268 5.29167 46.0935 5.225C46.0768 5.14167 46.0518 5.06667 46.0185 5C45.9685 4.71667 46.0268 4.46667 46.1935 4.25C46.2601 4.16667 46.3268 4.09167 46.3935 4.025C46.4768 3.95833 46.5685 3.90833 46.6685 3.875C46.7185 3.85833 46.7601 3.84167 46.7935 3.825C46.8435 3.80833 46.8935 3.79167 46.9435 3.775C47.0268 3.75833 47.1101 3.73333 47.1935 3.7C47.2935 3.66667 47.3851 3.63333 47.4685 3.6C47.5351 3.56667 47.5935 3.54167 47.6435 3.525C47.6935 3.50833 47.7518 3.5 47.8185 3.5C47.8851 3.48333 47.9435 3.475 47.9935 3.475C48.0435 3.45833 48.0935 3.45 48.1435 3.45C48.2768 3.43333 48.4101 3.36667 48.5435 3.25C48.7768 3.06667 49.0101 2.88333 49.2435 2.7C49.4935 2.5 49.7268 2.3 49.9435 2.1C50.0768 1.98333 50.2185 1.875 50.3685 1.775C50.5351 1.675 50.7018 1.58333 50.8685 1.5C50.9851 1.45 51.1101 1.40833 51.2435 1.375C51.3268 1.34167 51.4185 1.31667 51.5185 1.3C51.6185 1.28333 51.7101 1.26667 51.7935 1.25L52.3185 1.175C52.5518 1.15833 52.7685 1.13333 52.9685 1.1C53.1851 1.06667 53.4018 1.03333 53.6185 0.999999C53.6518 0.999999 53.6851 0.999999 53.7185 0.999999C53.7518 0.983333 53.7768 0.975 53.7935 0.975H54.1185C54.2351 0.975 54.3435 0.983333 54.4435 0.999999C54.5435 0.999999 54.6435 1.01667 54.7435 1.05C54.8768 1.1 54.9935 1.16667 55.0935 1.25C55.1935 1.31667 55.2768 1.41667 55.3435 1.55C55.4601 1.71667 55.5268 1.875 55.5435 2.025C55.5601 2.125 55.5685 2.225 55.5685 2.325C55.5851 2.425 55.5935 2.525 55.5935 2.625V2.85C55.5935 2.9 55.6185 2.94167 55.6685 2.975L55.8185 3.05C56.0518 3.13333 56.2768 3.24167 56.4935 3.375C56.7101 3.50833 56.9185 3.65 57.1185 3.8C57.2518 3.88333 57.3518 3.96667 57.4185 4.05C57.5351 4.16667 57.6435 4.28333 57.7435 4.4C57.8435 4.5 57.9435 4.60833 58.0435 4.725C58.1101 4.80833 58.1768 4.89167 58.2435 4.975C58.3101 5.04167 58.3768 5.11667 58.4435 5.2C58.4935 5.25 58.5268 5.29167 58.5435 5.325C58.5768 5.425 58.6351 5.525 58.7185 5.625C58.8185 5.79167 58.9018 5.95833 58.9685 6.125C59.0185 6.25833 59.0685 6.4 59.1185 6.55C59.1685 6.68333 59.2101 6.825 59.2435 6.975C59.2435 7.025 59.2601 7.1 59.2935 7.2C59.3101 7.25 59.3185 7.3 59.3185 7.35C59.3351 7.38333 59.3435 7.41667 59.3435 7.45C59.3601 7.55 59.3768 7.65 59.3935 7.75C59.4268 7.85 59.4518 7.95 59.4685 8.05C59.4851 8.13333 59.5018 8.225 59.5185 8.325C59.5351 8.40833 59.5518 8.5 59.5685 8.6C59.5851 8.75 59.6101 8.90833 59.6435 9.075C59.6768 9.225 59.7018 9.375 59.7185 9.525V9.65C59.7185 9.83333 59.7268 10.025 59.7435 10.225C59.7768 10.4083 59.7935 10.5917 59.7935 10.775C59.7935 10.8417 59.7935 10.9167 59.7935 11C59.7935 11.0833 59.7851 11.1667 59.7685 11.25C59.7518 11.2833 59.7435 11.325 59.7435 11.375C59.7435 11.575 59.7268 11.775 59.6935 11.975C59.6601 12.1583 59.6268 12.3417 59.5935 12.525C59.4768 13.175 59.3018 13.8333 59.0685 14.5C59.0518 14.5667 59.0351 14.6417 59.0185 14.725C59.0018 14.7917 58.9768 14.8667 58.9435 14.95L58.5685 16.05C58.5518 16.1167 58.5185 16.1917 58.4685 16.275C58.4351 16.3417 58.4018 16.4167 58.3685 16.5L57.9185 17.3C57.8185 17.4833 57.6935 17.6583 57.5435 17.825C57.4101 17.975 57.2435 18.1083 57.0435 18.225C56.8435 18.3417 56.6601 18.5 56.4935 18.7C56.3768 18.8667 56.1935 18.9667 55.9435 19C55.8268 19.0167 55.7101 19.025 55.5935 19.025C55.4935 19.0417 55.3935 19.0667 55.2935 19.1L55.0435 19.175C55.0268 19.175 55.0101 19.175 54.9935 19.175C54.9935 19.1917 54.9768 19.2 54.9435 19.2C54.7601 19.2333 54.5685 19.275 54.3685 19.325C54.1851 19.375 54.0018 19.4167 53.8185 19.45C53.7851 19.4667 53.7351 19.475 53.6685 19.475C53.5685 19.475 53.4685 19.4833 53.3685 19.5C53.2685 19.5167 53.1685 19.5417 53.0685 19.575L52.4435 19.725ZM51.7685 17.125C51.8685 17.1417 51.9601 17.1333 52.0435 17.1C52.1101 17.0667 52.1768 17.0583 52.2435 17.075H52.4435C52.5268 17.075 52.6018 17.075 52.6685 17.075C52.7351 17.075 52.8018 17.0583 52.8685 17.025C52.9185 16.9917 53.0101 16.9667 53.1435 16.95C53.2935 16.9167 53.3685 16.9 53.3685 16.9C53.5018 16.8667 53.6351 16.8333 53.7685 16.8C53.9018 16.75 54.0351 16.6917 54.1685 16.625L55.2185 16.175C55.3518 16.125 55.4768 16.0667 55.5935 16C55.7101 15.9167 55.8268 15.8417 55.9435 15.775C56.0268 15.6917 56.1018 15.6333 56.1685 15.6C56.2685 15.5167 56.3435 15.4167 56.3935 15.3C56.4268 15.2167 56.4601 15.1333 56.4935 15.05C56.5268 14.9667 56.5518 14.8833 56.5685 14.8C56.6351 14.6167 56.6935 14.4333 56.7435 14.25C56.7935 14.05 56.8518 13.8583 56.9185 13.675C57.0018 13.425 57.0768 13.1833 57.1435 12.95C57.2268 12.7 57.2935 12.4417 57.3435 12.175C57.3601 12.0917 57.3768 12 57.3935 11.9C57.4101 11.8 57.4268 11.7 57.4435 11.6C57.4601 11.4833 57.4685 11.3667 57.4685 11.25C57.4685 11.1333 57.4768 11.0167 57.4935 10.9V10.725C57.4935 10.6083 57.4851 10.4917 57.4685 10.375C57.4685 10.2583 57.4685 10.1417 57.4685 10.025C57.4518 9.725 57.4185 9.425 57.3685 9.125C57.3185 8.825 57.2601 8.525 57.1935 8.225C57.1601 8.09167 57.1268 7.96667 57.0935 7.85C57.0768 7.71667 57.0518 7.59167 57.0185 7.475C56.9685 7.24167 56.8935 7.025 56.7935 6.825C56.6935 6.60833 56.5768 6.4 56.4435 6.2C56.4268 6.15 56.4018 6.125 56.3685 6.125C56.2518 5.99167 56.1268 5.85833 55.9935 5.725C55.8601 5.59167 55.7018 5.49167 55.5185 5.425C55.4518 5.40833 55.3851 5.375 55.3185 5.325C55.2518 5.29167 55.1851 5.25833 55.1185 5.225C55.0518 5.19167 54.9768 5.16667 54.8935 5.15C54.6101 5.08333 54.3018 5.03333 53.9685 5C53.9518 4.98333 53.9268 4.98333 53.8935 5C53.8601 5.01667 53.8435 5.04167 53.8435 5.075C53.8435 5.10833 53.8351 5.15 53.8185 5.2C53.8185 5.23333 53.8185 5.26667 53.8185 5.3C53.8018 5.5 53.7851 5.70833 53.7685 5.925C53.7518 6.125 53.7518 6.33333 53.7685 6.55C53.7685 6.63333 53.7685 6.725 53.7685 6.825C53.7685 6.90833 53.7601 6.99167 53.7435 7.075V7.425C53.7268 7.49167 53.7185 7.56667 53.7185 7.65C53.7185 7.71667 53.7101 7.78333 53.6935 7.85V8C53.6768 8.11667 53.6685 8.23333 53.6685 8.35C53.6685 8.45 53.6518 8.56667 53.6185 8.7C53.6018 8.73333 53.5935 8.78333 53.5935 8.85C53.6268 9.01667 53.6268 9.19167 53.5935 9.375V9.825C53.5768 9.94167 53.5518 10.0667 53.5185 10.2C53.4851 10.3167 53.4018 10.4167 53.2685 10.5C53.2351 10.5167 53.1768 10.5167 53.0935 10.5C53.0101 10.4833 52.9518 10.4667 52.9185 10.45C52.8018 10.4 52.7268 10.3333 52.6935 10.25C52.6768 10.2 52.6518 10.15 52.6185 10.1C52.6018 10.05 52.5935 10 52.5935 9.95C52.5768 9.81667 52.5518 9.68333 52.5185 9.55C52.5018 9.4 52.4935 9.25 52.4935 9.1C52.4935 8.93333 52.4935 8.76667 52.4935 8.6C52.4935 8.43333 52.4851 8.26667 52.4685 8.1V7.7C52.4851 7.63333 52.4935 7.56667 52.4935 7.5C52.4935 7.41667 52.4935 7.34167 52.4935 7.275C52.4935 7.14167 52.4851 7.00833 52.4685 6.875C52.4685 6.74167 52.4685 6.60833 52.4685 6.475C52.4685 6.375 52.4601 6.28333 52.4435 6.2C52.4435 6.1 52.4351 6 52.4185 5.9C52.4018 5.83333 52.3851 5.775 52.3685 5.725C52.3518 5.675 52.3268 5.625 52.2935 5.575C52.2435 5.425 52.1435 5.30833 51.9935 5.225C51.8935 5.14167 51.7851 5.14167 51.6685 5.225C51.6018 5.275 51.5351 5.325 51.4685 5.375C51.4185 5.40833 51.3601 5.45833 51.2935 5.525L51.1935 5.625C51.0935 5.675 51.0018 5.74167 50.9185 5.825C50.8518 5.89167 50.7768 5.96667 50.6935 6.05C50.6435 6.1 50.5935 6.15 50.5435 6.2C50.4935 6.23333 50.4351 6.26667 50.3685 6.3C50.2685 6.36667 50.2018 6.41667 50.1685 6.45C50.0851 6.51667 50.0018 6.58333 49.9185 6.65C49.8351 6.7 49.7518 6.76667 49.6685 6.85C49.6351 6.88333 49.6018 6.90833 49.5685 6.925C49.5351 6.94167 49.5018 6.96667 49.4685 7C49.4351 7.03333 49.4018 7.06667 49.3685 7.1C49.2518 7.21667 49.1268 7.34167 48.9935 7.475C48.8768 7.60833 48.7518 7.73333 48.6185 7.85C48.5351 7.93333 48.4518 8.025 48.3685 8.125C48.2851 8.20833 48.2101 8.3 48.1435 8.4C48.1268 8.45 48.0851 8.50833 48.0185 8.575L47.8435 8.8C47.7268 8.98333 47.6268 9.175 47.5435 9.375C47.4601 9.575 47.3851 9.78333 47.3185 10C47.2685 10.15 47.2435 10.3 47.2435 10.45C47.2268 10.6 47.2185 10.7583 47.2185 10.925C47.2185 11.075 47.2351 11.2333 47.2685 11.4C47.2685 11.4333 47.2685 11.475 47.2685 11.525C47.2851 11.5583 47.2851 11.5917 47.2685 11.625C47.2685 11.7583 47.2768 11.8917 47.2935 12.025C47.3101 12.1417 47.3185 12.2667 47.3185 12.4C47.3351 12.4333 47.3435 12.475 47.3435 12.525C47.3601 12.5583 47.3768 12.5917 47.3935 12.625C47.4268 12.675 47.4601 12.725 47.4935 12.775C47.5268 12.825 47.5435 12.8833 47.5435 12.95C47.5435 12.9667 47.5601 12.9917 47.5935 13.025C47.6268 13.0917 47.6435 13.1417 47.6435 13.175C47.7101 13.2917 47.7518 13.4 47.7685 13.5C47.8018 13.6167 47.8518 13.7083 47.9185 13.775L48.0435 13.925C48.0435 13.975 48.0601 14.025 48.0935 14.075C48.1268 14.1083 48.1518 14.1417 48.1685 14.175C48.2351 14.2417 48.2685 14.3083 48.2685 14.375C48.3018 14.4917 48.3518 14.5833 48.4185 14.65C48.4518 14.6833 48.4851 14.7167 48.5185 14.75C48.5518 14.7833 48.5768 14.8167 48.5935 14.85C48.6768 14.9333 48.7185 15.0167 48.7185 15.1C48.7185 15.15 48.7268 15.1833 48.7435 15.2C48.7935 15.2167 48.8268 15.25 48.8435 15.3C48.8601 15.35 48.8768 15.3917 48.8935 15.425C48.8935 15.4417 48.8935 15.45 48.8935 15.45C48.9101 15.45 48.9185 15.4583 48.9185 15.475C48.9185 15.5083 48.9935 15.575 49.1435 15.675C49.2935 15.775 49.3768 15.8167 49.3935 15.8L49.4435 15.75C49.4601 15.75 49.4685 15.7583 49.4685 15.775H49.4935C49.6101 15.8583 49.6518 15.9583 49.6185 16.075C49.5851 16.075 49.5935 16.1 49.6435 16.15L49.7185 16.2L49.7435 16.225C49.8101 16.3083 49.9101 16.3917 50.0435 16.475C50.0768 16.4917 50.1185 16.5 50.1685 16.5L50.2685 16.475C50.4185 16.4417 50.5351 16.5083 50.6185 16.675C50.6185 16.7083 50.6435 16.75 50.6935 16.8C50.8101 16.8667 50.9268 16.9167 51.0435 16.95C51.1768 16.9833 51.3018 17.0167 51.4185 17.05C51.4851 17.0667 51.5435 17.0833 51.5935 17.1C51.6435 17.1 51.7018 17.1083 51.7685 17.125Z" fill="#353535"/>
</svg>
