<svg width="84" height="24" viewBox="0 0 84 24" fill="none" xmlns="http://www.w3.org/2000/svg">
<path d="M6.77051 21.97C6.73051 21.95 6.67051 21.94 6.59051 21.94C6.55051 21.94 6.51051 21.91 6.47051 21.85C6.43051 21.79 6.39051 21.74 6.35051 21.7C6.31051 21.64 6.27051 21.57 6.23051 21.49C6.17051 21.41 6.12051 21.41 6.08051 21.49H6.02051C6.02051 21.47 6.01051 21.46 5.99051 21.46C5.99051 21.44 5.99051 21.43 5.99051 21.43C5.93051 21.15 5.84051 20.89 5.72051 20.65C5.66051 20.49 5.60051 20.33 5.54051 20.17C5.50051 19.99 5.47051 19.81 5.45051 19.63L5.27051 18.31L5.18051 17.23V17.17C5.14051 16.93 5.12051 16.69 5.12051 16.45C5.12051 16.19 5.12051 15.93 5.12051 15.67C5.10051 15.53 5.09051 15.4 5.09051 15.28C5.09051 15.14 5.08051 15 5.06051 14.86C5.04051 14.7 5.02051 14.54 5.00051 14.38C5.00051 14.22 5.00051 14.07 5.00051 13.93L5.03051 11.56V8.35C4.99051 8.23 4.93051 8.17 4.85051 8.17C4.81051 8.17 4.76051 8.18 4.70051 8.2C4.66051 8.2 4.62051 8.2 4.58051 8.2L3.23051 8.56C3.05051 8.62 2.87051 8.68 2.69051 8.74C2.51051 8.78 2.33051 8.83 2.15051 8.89C2.01051 8.91 1.87051 8.93 1.73051 8.95C1.61051 8.95 1.48051 8.95 1.34051 8.95C1.24051 8.95 1.13051 8.91 1.01051 8.83C0.870508 8.77 0.750508 8.69 0.650508 8.59C0.550508 8.49 0.450508 8.38 0.350508 8.26L0.290508 8.17C0.250508 8.03 0.210508 7.9 0.170508 7.78C0.150508 7.64 0.150508 7.5 0.170508 7.36C0.190508 7.18 0.230508 7.01 0.290508 6.85C0.370508 6.69 0.480508 6.55 0.620508 6.43C0.680508 6.39 0.730508 6.34 0.770508 6.28C0.830508 6.22 0.890508 6.16 0.950508 6.1C1.03051 6.06 1.08051 6.04 1.10051 6.04C1.22051 6.04 1.33051 6.02 1.43051 5.98C1.53051 5.92 1.63051 5.88 1.73051 5.86C1.83051 5.84 1.93051 5.82 2.03051 5.8C2.13051 5.78 2.23051 5.76 2.33051 5.74C2.61051 5.66 2.89051 5.59 3.17051 5.53C3.45051 5.45 3.73051 5.39 4.01051 5.35L5.63051 5.08C5.67051 5.06 5.70051 5.05 5.72051 5.05C5.76051 5.05 5.79051 5.04 5.81051 5.02C5.93051 4.98 6.05051 4.95 6.17051 4.93C6.29051 4.91 6.41051 4.92 6.53051 4.96C6.57051 4.98 6.60051 4.99 6.62051 4.99C6.66051 4.97 6.69051 4.96 6.71051 4.96C7.05051 4.92 7.39051 4.88 7.73051 4.84C8.07051 4.8 8.40051 4.75 8.72051 4.69C8.98051 4.65 9.24051 4.61 9.50051 4.57C9.76051 4.53 10.0205 4.5 10.2805 4.48C10.4805 4.44 10.6805 4.41 10.8805 4.39C11.0805 4.37 11.2805 4.35 11.4805 4.33C11.6405 4.31 11.8005 4.29 11.9605 4.27C12.1405 4.25 12.3105 4.23 12.4705 4.21C12.6305 4.19 12.7805 4.19 12.9205 4.21C13.0805 4.21 13.2405 4.21 13.4005 4.21C13.5005 4.21 13.5905 4.24 13.6705 4.3C13.7705 4.36 13.8605 4.41 13.9405 4.45C14.0205 4.51 14.1305 4.61 14.2705 4.75C14.3105 4.79 14.3505 4.88 14.3905 5.02C14.4105 5.08 14.4305 5.15 14.4505 5.23C14.4705 5.29 14.4905 5.36 14.5105 5.44C14.5505 5.62 14.5305 5.79 14.4505 5.95L14.2705 6.37C14.2505 6.43 14.2205 6.49 14.1805 6.55C14.1605 6.59 14.1305 6.63 14.0905 6.67C14.0505 6.71 14.0305 6.73 14.0305 6.73C13.9505 6.79 13.8605 6.85 13.7605 6.91C13.6805 6.97 13.5805 7.01 13.4605 7.03L12.1705 7.12C12.0505 7.12 11.9305 7.13 11.8105 7.15C11.6905 7.15 11.5605 7.16 11.4205 7.18H11.2705C10.9505 7.2 10.6405 7.23 10.3405 7.27C10.0405 7.31 9.74051 7.35 9.44051 7.39L8.24051 7.57C8.18051 7.57 8.14051 7.58 8.12051 7.6C8.04051 7.6 7.98051 7.66 7.94051 7.78V7.87C7.94051 8.07 7.94051 8.27 7.94051 8.47C7.94051 8.65 7.95051 8.84 7.97051 9.04C8.03051 9.32 8.03051 9.6 7.97051 9.88C7.95051 9.94 7.93051 10 7.91051 10.06C7.91051 10.1 7.91051 10.14 7.91051 10.18C7.93051 10.42 7.91051 10.68 7.85051 10.96C7.85051 11.02 7.85051 11.08 7.85051 11.14C7.85051 11.2 7.86051 11.26 7.88051 11.32C7.90051 11.4 7.91051 11.49 7.91051 11.59C7.91051 11.69 7.91051 11.79 7.91051 11.89V13.45C7.91051 13.53 7.90051 13.63 7.88051 13.75C7.88051 13.85 7.88051 13.95 7.88051 14.05C7.88051 14.13 7.88051 14.22 7.88051 14.32C7.90051 14.42 7.91051 14.52 7.91051 14.62C7.91051 14.76 7.91051 14.9 7.91051 15.04C7.93051 15.18 7.93051 15.33 7.91051 15.49V16.42C7.91051 16.44 7.90051 16.46 7.88051 16.48C7.88051 16.5 7.89051 16.53 7.91051 16.57C7.93051 16.75 7.94051 16.94 7.94051 17.14C7.94051 17.32 7.96051 17.5 8.00051 17.68C8.00051 17.74 8.00051 17.8 8.00051 17.86C8.02051 17.92 8.02051 17.98 8.00051 18.04C8.00051 18.22 8.02051 18.41 8.06051 18.61C8.10051 18.79 8.13051 18.97 8.15051 19.15C8.19051 19.37 8.23051 19.59 8.27051 19.81C8.33051 20.03 8.38051 20.25 8.42051 20.47L8.51051 20.89C8.51051 20.95 8.48051 21 8.42051 21.04C8.42051 21.04 8.41051 21.04 8.39051 21.04C8.39051 21.04 8.38051 21.05 8.36051 21.07C8.26051 21.11 8.22051 21.17 8.24051 21.25V21.4C8.24051 21.4 8.23051 21.41 8.21051 21.43C8.21051 21.45 8.20051 21.46 8.18051 21.46C8.08051 21.46 8.00051 21.5 7.94051 21.58C7.88051 21.66 7.81051 21.73 7.73051 21.79C7.67051 21.83 7.59051 21.87 7.49051 21.91C7.23051 22.01 6.99051 22.03 6.77051 21.97ZM19.4254 22.6C19.0454 22.64 18.7354 22.52 18.4954 22.24C18.3754 22.12 18.2654 21.99 18.1654 21.85C18.0654 21.71 17.9854 21.56 17.9254 21.4C17.8254 21.12 17.7354 20.84 17.6554 20.56C17.5754 20.26 17.5054 19.97 17.4454 19.69C17.3854 19.47 17.3554 19.26 17.3554 19.06C17.3354 18.84 17.3054 18.63 17.2654 18.43C17.2454 18.21 17.2354 17.99 17.2354 17.77C17.2354 17.65 17.2354 17.53 17.2354 17.41C17.2354 17.27 17.2254 17.14 17.2054 17.02C17.1854 16.94 17.1754 16.87 17.1754 16.81C17.1754 16.75 17.1754 16.68 17.1754 16.6C17.1754 16.32 17.1754 16.04 17.1754 15.76C17.1754 15.46 17.1654 15.17 17.1454 14.89C17.1454 14.73 17.1354 14.59 17.1154 14.47C17.0954 14.33 17.0554 14.19 16.9954 14.05C16.9154 13.83 16.9054 13.59 16.9654 13.33C16.9654 13.27 16.9754 13.23 16.9954 13.21C17.0354 13.07 17.0554 12.93 17.0554 12.79C17.0754 12.65 17.0754 12.51 17.0554 12.37C17.0354 12.27 17.0254 12.17 17.0254 12.07C17.0254 11.97 17.0254 11.88 17.0254 11.8C17.0054 11.58 16.9954 11.36 16.9954 11.14C17.0154 10.9 17.0354 10.67 17.0554 10.45C17.0754 10.39 17.0854 10.33 17.0854 10.27C17.0854 10.21 17.0854 10.15 17.0854 10.09C17.0654 9.87 17.0654 9.66 17.0854 9.46C17.1254 9.26 17.1554 9.06 17.1754 8.86C17.2154 8.62 17.2554 8.39 17.2954 8.17C17.3354 7.93 17.3854 7.69 17.4454 7.45C17.4854 7.35 17.5054 7.24 17.5054 7.12C17.5054 7 17.5054 6.88 17.5054 6.76C17.5054 6.66 17.4954 6.56 17.4754 6.46C17.4754 6.36 17.4754 6.27 17.4754 6.19C17.4754 6.13 17.4754 6.07 17.4754 6.01C17.4754 5.95 17.4854 5.89 17.5054 5.83C17.5254 5.77 17.5354 5.71 17.5354 5.65C17.5354 5.59 17.5454 5.55 17.5654 5.53C17.6254 5.45 17.6754 5.38 17.7154 5.32C17.7554 5.24 17.8154 5.17 17.8954 5.11C17.9954 5.05 18.0854 4.99 18.1654 4.93C18.2654 4.87 18.3554 4.82 18.4354 4.78C18.5354 4.74 18.6154 4.69 18.6754 4.63C18.7554 4.53 18.8354 4.44 18.9154 4.36C19.0154 4.26 19.0954 4.15 19.1554 4.03C19.2554 3.93 19.3554 3.82 19.4554 3.7C19.5754 3.56 19.7054 3.45 19.8454 3.37C19.8854 3.35 19.9454 3.3 20.0254 3.22C20.2654 3 20.5454 2.86 20.8654 2.8C20.9254 2.78 20.9754 2.77 21.0154 2.77C21.0754 2.75 21.1354 2.74 21.1954 2.74L21.4054 2.65C21.5654 2.59 21.7054 2.62 21.8254 2.74C21.8654 2.8 21.9154 2.86 21.9754 2.92C22.0554 2.96 22.1254 3 22.1854 3.04C22.3454 3.18 22.4954 3.33 22.6354 3.49C22.7954 3.65 22.9354 3.83 23.0554 4.03C23.2554 4.35 23.4254 4.67 23.5654 4.99C23.7254 5.31 23.8754 5.64 24.0154 5.98L24.5554 7.27C24.5754 7.39 24.6254 7.5 24.7054 7.6C24.8654 7.9 24.9854 8.21 25.0654 8.53C25.1454 8.83 25.2254 9.14 25.3054 9.46C25.3254 9.5 25.3354 9.54 25.3354 9.58C25.3554 9.62 25.3654 9.66 25.3654 9.7C25.4054 9.86 25.4354 10.03 25.4554 10.21C25.4954 10.37 25.5054 10.53 25.4854 10.69C25.5054 10.87 25.4954 11.05 25.4554 11.23C25.4354 11.39 25.4054 11.55 25.3654 11.71C25.3054 11.91 25.2354 12.1 25.1554 12.28C25.0754 12.44 24.9854 12.61 24.8854 12.79C24.8454 12.91 24.7754 13.02 24.6754 13.12C24.5754 13.22 24.4754 13.31 24.3754 13.39C24.2154 13.47 24.0554 13.59 23.8954 13.75C23.8554 13.79 23.8054 13.82 23.7454 13.84C23.7054 13.86 23.6654 13.89 23.6254 13.93C23.4854 13.99 23.3354 14.06 23.1754 14.14C23.0154 14.2 22.8554 14.26 22.6954 14.32C22.6754 14.32 22.6654 14.34 22.6654 14.38C22.6654 14.4 22.6754 14.42 22.6954 14.44L23.5054 15.01C23.6054 15.07 23.6954 15.13 23.7754 15.19C23.8554 15.23 23.9354 15.28 24.0154 15.34L24.1954 15.43C24.4354 15.57 24.6754 15.72 24.9154 15.88C25.1554 16.04 25.3854 16.2 25.6054 16.36C26.0254 16.62 26.4454 16.89 26.8654 17.17C27.2854 17.43 27.6854 17.72 28.0654 18.04C28.4054 18.3 28.7054 18.6 28.9654 18.94C29.0254 19 29.0854 19.07 29.1454 19.15C29.2054 19.21 29.2754 19.26 29.3554 19.3L29.4454 19.39C29.7654 19.67 29.9454 20.05 29.9854 20.53C29.9854 20.59 29.9754 20.65 29.9554 20.71C29.9554 20.77 29.9554 20.83 29.9554 20.89C29.9554 21.01 29.9154 21.11 29.8354 21.19C29.7554 21.23 29.7154 21.28 29.7154 21.34C29.6554 21.48 29.5654 21.58 29.4454 21.64C29.3454 21.68 29.2454 21.74 29.1454 21.82C29.1054 21.84 29.0354 21.85 28.9354 21.85C28.8154 21.83 28.6854 21.81 28.5454 21.79C28.4254 21.77 28.3054 21.76 28.1854 21.76C28.0254 21.76 27.8554 21.69 27.6754 21.55C27.5554 21.45 27.4454 21.36 27.3454 21.28C27.2454 21.18 27.1454 21.06 27.0454 20.92C26.7854 20.56 26.4454 20.23 26.0254 19.93C25.8254 19.77 25.6354 19.62 25.4554 19.48C25.2754 19.34 25.0754 19.21 24.8554 19.09C24.7154 19.01 24.5754 18.93 24.4354 18.85C24.3154 18.75 24.1754 18.66 24.0154 18.58C23.5154 18.24 23.0054 17.91 22.4854 17.59C21.9654 17.25 21.4454 16.91 20.9254 16.57C20.8454 16.51 20.7554 16.45 20.6554 16.39C20.5554 16.33 20.4554 16.27 20.3554 16.21C20.3154 16.17 20.2554 16.13 20.1754 16.09C20.0954 16.09 20.0554 16.12 20.0554 16.18C20.0554 16.2 20.0454 16.22 20.0254 16.24C20.0254 16.24 20.0254 16.25 20.0254 16.27C20.0254 16.33 20.0254 16.39 20.0254 16.45C20.0254 16.51 20.0354 16.57 20.0554 16.63C20.0754 16.79 20.0854 16.95 20.0854 17.11C20.0854 17.25 20.0854 17.4 20.0854 17.56C20.0854 17.68 20.0854 17.8 20.0854 17.92C20.1054 18.02 20.1254 18.13 20.1454 18.25C20.1454 18.31 20.1454 18.38 20.1454 18.46C20.1654 18.52 20.1754 18.58 20.1754 18.64C20.1554 18.82 20.1654 19 20.2054 19.18C20.2454 19.36 20.2754 19.54 20.2954 19.72L20.4754 20.5C20.4954 20.58 20.5154 20.67 20.5354 20.77C20.5554 20.85 20.5754 20.94 20.5954 21.04C20.6154 21.12 20.6154 21.2 20.5954 21.28C20.5954 21.34 20.5854 21.41 20.5654 21.49C20.5654 21.51 20.5454 21.54 20.5054 21.58C20.4054 21.6 20.3354 21.67 20.2954 21.79C20.2354 21.93 20.1454 22.05 20.0254 22.15C19.9254 22.27 19.8154 22.38 19.6954 22.48C19.6754 22.5 19.6354 22.52 19.5754 22.54C19.5154 22.56 19.4654 22.58 19.4254 22.6ZM20.5954 12.1H20.6554C20.8754 12.06 21.0954 12.02 21.3154 11.98C21.5554 11.92 21.7854 11.85 22.0054 11.77C22.2254 11.71 22.4154 11.6 22.5754 11.44C22.7154 11.3 22.7854 11.14 22.7854 10.96C22.8054 10.82 22.8054 10.69 22.7854 10.57C22.7854 10.43 22.7654 10.29 22.7254 10.15C22.6454 9.79 22.5554 9.44 22.4554 9.1C22.3554 8.74 22.2354 8.4 22.0954 8.08L21.8254 7.36C21.7654 7.16 21.6954 6.97 21.6154 6.79C21.5354 6.59 21.4454 6.4 21.3454 6.22C21.3254 6.18 21.3054 6.14 21.2854 6.1C21.2654 6.04 21.2454 5.99 21.2254 5.95L21.1054 5.83C21.0454 5.75 20.9754 5.75 20.8954 5.83C20.8754 5.83 20.8454 5.85 20.8054 5.89C20.6654 6.07 20.5354 6.26 20.4154 6.46C20.3154 6.66 20.2554 6.88 20.2354 7.12C20.2154 7.2 20.1954 7.28 20.1754 7.36C20.1754 7.44 20.1754 7.53 20.1754 7.63V8.92C20.1554 9.2 20.1454 9.49 20.1454 9.79C20.1654 10.09 20.1554 10.38 20.1154 10.66C20.0954 10.72 20.0854 10.78 20.0854 10.84C20.1054 10.9 20.1154 10.96 20.1154 11.02C20.1354 11.14 20.1454 11.26 20.1454 11.38C20.1454 11.48 20.1454 11.59 20.1454 11.71C20.1454 11.91 20.1654 12.03 20.2054 12.07C20.2654 12.11 20.3954 12.12 20.5954 12.1ZM34.7455 22.3C34.6255 22.3 34.5455 22.29 34.5055 22.27C34.4255 22.23 34.3555 22.2 34.2955 22.18C34.2355 22.16 34.1755 22.14 34.1155 22.12C34.0555 22.08 33.9955 22.04 33.9355 22C33.8955 21.94 33.8555 21.88 33.8155 21.82C33.7755 21.78 33.7355 21.76 33.6955 21.76C33.5755 21.76 33.5155 21.7 33.5155 21.58C33.4955 21.46 33.4755 21.34 33.4555 21.22C33.4355 21.1 33.4155 20.98 33.3955 20.86C33.3755 20.68 33.3555 20.5 33.3355 20.32C33.3355 20.14 33.3155 19.97 33.2755 19.81V19.54C33.2755 19.46 33.2655 19.39 33.2455 19.33C33.2455 19.27 33.2455 19.2 33.2455 19.12C33.2055 19.02 33.2055 18.94 33.2455 18.88C33.2855 18.52 33.2855 18.16 33.2455 17.8C33.2255 17.7 33.2155 17.6 33.2155 17.5C33.2155 17.4 33.2055 17.3 33.1855 17.2C33.1855 17 33.1855 16.8 33.1855 16.6C33.1855 16.38 33.1655 16.17 33.1255 15.97V15.49C33.1255 15.33 33.1155 15.18 33.0955 15.04C33.0955 14.9 33.0855 14.76 33.0655 14.62C33.0455 14.44 33.0255 14.26 33.0055 14.08C33.0055 13.9 32.9955 13.72 32.9755 13.54C32.9555 13.5 32.9455 13.43 32.9455 13.33C32.9255 13.23 32.9055 13.13 32.8855 13.03C32.8855 12.91 32.8855 12.8 32.8855 12.7L32.7955 11.2C32.7755 11.04 32.7555 10.89 32.7355 10.75C32.7355 10.59 32.7355 10.44 32.7355 10.3C32.7155 10.06 32.6955 9.82 32.6755 9.58C32.6555 9.34 32.6355 9.11 32.6155 8.89C32.6155 8.85 32.6055 8.81 32.5855 8.77C32.5855 8.73 32.5855 8.7 32.5855 8.68C32.5855 8.44 32.5755 8.2 32.5555 7.96C32.5355 7.72 32.5155 7.47 32.4955 7.21L32.4055 6.37C32.3455 6.05 32.3355 5.7 32.3755 5.32C32.3755 5.14 32.4455 4.99 32.5855 4.87C32.6255 4.83 32.6555 4.81 32.6755 4.81C32.6955 4.79 32.7155 4.77 32.7355 4.75C32.8355 4.73 32.8855 4.66 32.8855 4.54C32.8855 4.5 32.9255 4.48 33.0055 4.48H33.1555C33.1755 4.48 33.1855 4.48 33.1855 4.48C33.2055 4.46 33.2255 4.45 33.2455 4.45C33.2855 4.43 33.3155 4.41 33.3355 4.39C33.3755 4.35 33.4055 4.33 33.4255 4.33C33.4655 4.33 33.5055 4.34 33.5455 4.36C33.5855 4.36 33.6255 4.37 33.6655 4.39C33.7055 4.39 33.7355 4.38 33.7555 4.36C33.8555 4.34 33.9555 4.35 34.0555 4.39C34.1755 4.41 34.2755 4.44 34.3555 4.48C34.4755 4.5 34.5655 4.58 34.6255 4.72C34.6855 4.9 34.7355 5.08 34.7755 5.26C34.8355 5.42 34.8755 5.59 34.8955 5.77V6.01C34.9355 6.15 34.9555 6.3 34.9555 6.46C34.9555 6.6 34.9555 6.75 34.9555 6.91C34.9555 7.05 34.9555 7.19 34.9555 7.33C34.9755 7.45 34.9955 7.57 35.0155 7.69C35.0155 7.75 35.0155 7.81 35.0155 7.87C35.0155 7.93 35.0255 7.99 35.0455 8.05C35.0455 8.17 35.0455 8.29 35.0455 8.41C35.0655 8.53 35.0855 8.66 35.1055 8.8C35.1255 9.02 35.1455 9.25 35.1655 9.49C35.1855 9.73 35.1955 9.97 35.1955 10.21C35.1955 10.31 35.1955 10.42 35.1955 10.54C35.1955 10.64 35.2055 10.74 35.2255 10.84C35.2455 10.9 35.2555 10.96 35.2555 11.02C35.2555 11.08 35.2555 11.14 35.2555 11.2V11.8C35.2555 11.92 35.2655 12.02 35.2855 12.1C35.3255 12.24 35.3355 12.38 35.3155 12.52C35.3155 12.64 35.3255 12.77 35.3455 12.91L35.4355 14.29C35.4555 14.49 35.4655 14.7 35.4655 14.92C35.4855 15.12 35.4955 15.33 35.4955 15.55C35.4955 15.63 35.4955 15.72 35.4955 15.82C35.4955 15.9 35.5055 15.98 35.5255 16.06C35.5455 16.12 35.5555 16.18 35.5555 16.24C35.5555 16.3 35.5555 16.36 35.5555 16.42C35.5755 16.44 35.5755 16.48 35.5555 16.54C35.5555 16.58 35.5655 16.62 35.5855 16.66C35.6255 16.8 35.6455 16.94 35.6455 17.08C35.6455 17.22 35.6455 17.37 35.6455 17.53C35.6455 17.61 35.6455 17.7 35.6455 17.8C35.6655 17.88 35.6755 17.97 35.6755 18.07C35.6955 18.17 35.7055 18.28 35.7055 18.4C35.7055 18.52 35.7055 18.63 35.7055 18.73C35.7255 18.83 35.7355 18.94 35.7355 19.06C35.7355 19.16 35.7455 19.26 35.7655 19.36C35.7855 19.4 35.7955 19.44 35.7955 19.48C35.7955 19.7 35.8155 19.92 35.8555 20.14C35.8955 20.36 35.9355 20.58 35.9755 20.8C35.9955 20.86 36.0055 20.93 36.0055 21.01C36.0055 21.07 36.0055 21.13 36.0055 21.19C36.0055 21.25 35.9855 21.3 35.9455 21.34C35.8655 21.4 35.8055 21.52 35.7655 21.7C35.7655 21.76 35.7355 21.81 35.6755 21.85C35.5355 21.91 35.4155 21.99 35.3155 22.09C35.1555 22.23 34.9655 22.3 34.7455 22.3ZM43.7228 23.47L43.2128 23.38C42.9528 23.34 42.6828 23.3 42.4028 23.26C42.1428 23.22 41.8728 23.19 41.5928 23.17C41.3128 23.17 41.0328 23.09 40.7528 22.93C40.4928 22.79 40.3128 22.57 40.2128 22.27C40.1928 22.17 40.1628 22.07 40.1228 21.97C40.1028 21.87 40.0828 21.77 40.0628 21.67C40.0628 21.43 40.1128 21.25 40.2128 21.13C40.3128 21.03 40.3928 20.93 40.4528 20.83C40.5328 20.73 40.6128 20.64 40.6928 20.56C40.7328 20.52 40.7728 20.49 40.8128 20.47C40.8528 20.45 40.8928 20.43 40.9328 20.41C41.0328 20.35 41.1328 20.31 41.2328 20.29C41.3328 20.25 41.4328 20.22 41.5328 20.2C41.5728 20.18 41.6028 20.18 41.6228 20.2C41.6628 20.2 41.6928 20.2 41.7128 20.2C41.8128 20.22 41.9228 20.24 42.0428 20.26C42.1628 20.26 42.2728 20.28 42.3728 20.32L43.6328 20.5C43.9128 20.54 44.1628 20.5 44.3828 20.38C44.4628 20.34 44.5328 20.3 44.5928 20.26C44.6728 20.22 44.7428 20.18 44.8028 20.14C45.2428 19.88 45.6228 19.61 45.9428 19.33C46.1828 19.11 46.4128 18.89 46.6328 18.67C46.8528 18.45 47.0528 18.21 47.2328 17.95C47.3728 17.77 47.4628 17.59 47.5028 17.41C47.5428 17.21 47.5528 17.01 47.5328 16.81L47.4428 16.57C47.4228 16.47 47.3828 16.39 47.3228 16.33C47.2628 16.27 47.2028 16.2 47.1428 16.12C47.0228 16.02 46.9028 15.91 46.7828 15.79C46.6828 15.67 46.5728 15.57 46.4528 15.49C46.1528 15.25 45.8528 15.02 45.5528 14.8C45.2728 14.58 44.9828 14.36 44.6828 14.14C44.6628 14.1 44.6028 14.06 44.5028 14.02C44.3228 13.9 44.1428 13.77 43.9628 13.63C43.8028 13.47 43.6428 13.32 43.4828 13.18C43.2828 12.98 43.0628 12.79 42.8228 12.61C42.7028 12.55 42.5928 12.45 42.4928 12.31C42.4128 12.21 42.2928 12.11 42.1328 12.01C41.9928 11.93 41.8628 11.84 41.7428 11.74C41.6228 11.62 41.5028 11.51 41.3828 11.41L40.9928 11.05C40.9128 10.95 40.8228 10.86 40.7228 10.78C40.6428 10.68 40.5528 10.58 40.4528 10.48C40.4128 10.38 40.3528 10.3 40.2728 10.24C40.2128 10.18 40.1528 10.11 40.0928 10.03C40.0728 9.99 40.0428 9.95 40.0028 9.91C39.9628 9.85 39.9328 9.79 39.9128 9.73C39.7928 9.49 39.6628 9.25 39.5228 9.01C39.4028 8.77 39.2928 8.52 39.1928 8.26C39.1328 8.1 39.0728 7.95 39.0128 7.81C38.9728 7.65 38.9328 7.5 38.8928 7.36C38.8728 7.2 38.8328 7.06 38.7728 6.94C38.7328 6.8 38.6928 6.66 38.6528 6.52C38.6128 6.3 38.5628 6.09 38.5028 5.89C38.4628 5.67 38.4228 5.46 38.3828 5.26L38.3228 5.02C38.3028 4.8 38.3028 4.59 38.3228 4.39C38.3628 4.11 38.4228 3.86 38.5028 3.64C38.5828 3.4 38.7128 3.21 38.8928 3.07C39.0928 2.91 39.2928 2.75 39.4928 2.59C39.6928 2.43 39.9028 2.3 40.1228 2.2C40.1628 2.2 40.1928 2.19 40.2128 2.17C40.4128 2.01 40.6328 1.9 40.8728 1.84C41.1128 1.76 41.3528 1.69 41.5928 1.63C42.5528 1.35 43.5428 1.14 44.5628 0.999999H44.8628C45.0628 0.999999 45.2528 0.999999 45.4328 0.999999C45.6128 0.999999 45.8028 0.989999 46.0028 0.969999C46.2428 0.969999 46.4828 0.999999 46.7228 1.06C46.9628 1.1 47.1928 1.17 47.4128 1.27C47.5728 1.35 47.7328 1.44 47.8928 1.54C48.0528 1.62 48.2028 1.71 48.3428 1.81C48.5028 1.93 48.6028 2.06 48.6428 2.2L48.7328 2.41C48.8328 2.59 48.8828 2.78 48.8828 2.98C48.9028 3.16 48.8928 3.35 48.8528 3.55C48.8528 3.61 48.8428 3.68 48.8228 3.76C48.8228 3.82 48.8228 3.88 48.8228 3.94C48.7628 4.38 48.5528 4.72 48.1928 4.96C47.9728 5.16 47.6828 5.24 47.3228 5.2C47.2428 5.16 47.2028 5.18 47.2028 5.26C47.2028 5.34 47.1528 5.38 47.0528 5.38H46.8728C46.7528 5.38 46.6328 5.32 46.5128 5.2C46.4128 5.1 46.3628 5.02 46.3628 4.96C46.3628 4.88 46.4028 4.82 46.4828 4.78C46.4428 4.68 46.4028 4.59 46.3628 4.51C46.3228 4.43 46.2828 4.37 46.2428 4.33C46.1828 4.23 46.0928 4.16 45.9728 4.12C45.8728 4.1 45.7728 4.08 45.6728 4.06C45.5728 4.04 45.4728 4.02 45.3728 4C45.2928 4 45.2028 4 45.1028 4C45.0028 3.98 44.9028 3.96 44.8028 3.94C44.7428 3.92 44.6528 3.93 44.5328 3.97C44.4728 3.99 44.4128 4.01 44.3528 4.03C44.2928 4.03 44.2228 4.02 44.1428 4C44.0828 4 44.0128 4 43.9328 4C43.8728 4 43.8028 4.02 43.7228 4.06L43.1528 4.15C42.8328 4.21 42.5228 4.33 42.2228 4.51C42.1628 4.53 42.1028 4.55 42.0428 4.57C41.9828 4.59 41.9228 4.59 41.8628 4.57C41.7428 4.55 41.6428 4.58 41.5628 4.66C41.5428 4.7 41.4928 4.73 41.4128 4.75C41.3528 4.75 41.3028 4.77 41.2628 4.81C41.1828 4.89 41.1428 4.97 41.1428 5.05C41.1628 5.09 41.1728 5.15 41.1728 5.23L41.8028 7.06C41.9228 7.38 42.0728 7.68 42.2528 7.96C42.4528 8.22 42.6628 8.48 42.8828 8.74C43.2228 9.14 43.5728 9.48 43.9328 9.76L44.8928 10.57C45.0928 10.75 45.3028 10.92 45.5228 11.08C45.7428 11.24 45.9528 11.4 46.1528 11.56C46.4528 11.78 46.7528 12.01 47.0528 12.25C47.3528 12.47 47.6528 12.7 47.9528 12.94C48.1928 13.14 48.4228 13.34 48.6428 13.54C48.8828 13.72 49.1028 13.92 49.3028 14.14C49.4428 14.3 49.5828 14.46 49.7228 14.62C49.8628 14.78 49.9828 14.96 50.0828 15.16C50.2228 15.38 50.3428 15.64 50.4428 15.94C50.5628 16.32 50.6128 16.68 50.5928 17.02C50.5728 17.06 50.5628 17.12 50.5628 17.2C50.5628 17.44 50.5328 17.67 50.4728 17.89C50.4328 18.09 50.3628 18.3 50.2628 18.52C50.1628 18.72 50.0528 18.93 49.9328 19.15C49.8328 19.35 49.7128 19.55 49.5728 19.75C49.3728 20.01 49.1628 20.26 48.9428 20.5C48.7428 20.72 48.5128 20.94 48.2528 21.16C48.1128 21.28 47.9728 21.41 47.8328 21.55C47.6928 21.67 47.5428 21.78 47.3828 21.88C47.2828 21.96 47.1828 22.03 47.0828 22.09C46.9828 22.17 46.8828 22.25 46.7828 22.33C46.7028 22.37 46.6228 22.42 46.5428 22.48C46.4628 22.54 46.3828 22.6 46.3028 22.66C46.2228 22.74 46.1228 22.8 46.0028 22.84C45.9028 22.9 45.8028 22.95 45.7028 22.99L44.8328 23.35C44.6528 23.41 44.4728 23.45 44.2928 23.47C44.1128 23.49 43.9228 23.49 43.7228 23.47ZM58.2451 21.97C58.2051 21.95 58.1451 21.94 58.0651 21.94C58.0251 21.94 57.9851 21.91 57.9451 21.85C57.9051 21.79 57.8651 21.74 57.8251 21.7C57.7851 21.64 57.7451 21.57 57.7051 21.49C57.6451 21.41 57.5951 21.41 57.5551 21.49H57.4951C57.4951 21.47 57.4851 21.46 57.4651 21.46C57.4651 21.44 57.4651 21.43 57.4651 21.43C57.4051 21.15 57.3151 20.89 57.1951 20.65C57.1351 20.49 57.0751 20.33 57.0151 20.17C56.9751 19.99 56.9451 19.81 56.9251 19.63L56.7451 18.31L56.6551 17.23V17.17C56.6151 16.93 56.5951 16.69 56.5951 16.45C56.5951 16.19 56.5951 15.93 56.5951 15.67C56.5751 15.53 56.5651 15.4 56.5651 15.28C56.5651 15.14 56.5551 15 56.5351 14.86C56.5151 14.7 56.4951 14.54 56.4751 14.38C56.4751 14.22 56.4751 14.07 56.4751 13.93L56.5051 11.56V8.35C56.4651 8.23 56.4051 8.17 56.3251 8.17C56.2851 8.17 56.2351 8.18 56.1751 8.2C56.1351 8.2 56.0951 8.2 56.0551 8.2L54.7051 8.56C54.5251 8.62 54.3451 8.68 54.1651 8.74C53.9851 8.78 53.8051 8.83 53.6251 8.89C53.4851 8.91 53.3451 8.93 53.2051 8.95C53.0851 8.95 52.9551 8.95 52.8151 8.95C52.7151 8.95 52.6051 8.91 52.4851 8.83C52.3451 8.77 52.2251 8.69 52.1251 8.59C52.0251 8.49 51.9251 8.38 51.8251 8.26L51.7651 8.17C51.7251 8.03 51.6851 7.9 51.6451 7.78C51.6251 7.64 51.6251 7.5 51.6451 7.36C51.6651 7.18 51.7051 7.01 51.7651 6.85C51.8451 6.69 51.9551 6.55 52.0951 6.43C52.1551 6.39 52.2051 6.34 52.2451 6.28C52.3051 6.22 52.3651 6.16 52.4251 6.1C52.5051 6.06 52.5551 6.04 52.5751 6.04C52.6951 6.04 52.8051 6.02 52.9051 5.98C53.0051 5.92 53.1051 5.88 53.2051 5.86C53.3051 5.84 53.4051 5.82 53.5051 5.8C53.6051 5.78 53.7051 5.76 53.8051 5.74C54.0851 5.66 54.3651 5.59 54.6451 5.53C54.9251 5.45 55.2051 5.39 55.4851 5.35L57.1051 5.08C57.1451 5.06 57.1751 5.05 57.1951 5.05C57.2351 5.05 57.2651 5.04 57.2851 5.02C57.4051 4.98 57.5251 4.95 57.6451 4.93C57.7651 4.91 57.8851 4.92 58.0051 4.96C58.0451 4.98 58.0751 4.99 58.0951 4.99C58.1351 4.97 58.1651 4.96 58.1851 4.96C58.5251 4.92 58.8651 4.88 59.2051 4.84C59.5451 4.8 59.8751 4.75 60.1951 4.69C60.4551 4.65 60.7151 4.61 60.9751 4.57C61.2351 4.53 61.4951 4.5 61.7551 4.48C61.9551 4.44 62.1551 4.41 62.3551 4.39C62.5551 4.37 62.7551 4.35 62.9551 4.33C63.1151 4.31 63.2751 4.29 63.4351 4.27C63.6151 4.25 63.7851 4.23 63.9451 4.21C64.1051 4.19 64.2551 4.19 64.3951 4.21C64.5551 4.21 64.7151 4.21 64.8751 4.21C64.9751 4.21 65.0651 4.24 65.1451 4.3C65.2451 4.36 65.3351 4.41 65.4151 4.45C65.4951 4.51 65.6051 4.61 65.7451 4.75C65.7851 4.79 65.8251 4.88 65.8651 5.02C65.8851 5.08 65.9051 5.15 65.9251 5.23C65.9451 5.29 65.9651 5.36 65.9851 5.44C66.0251 5.62 66.0051 5.79 65.9251 5.95L65.7451 6.37C65.7251 6.43 65.6951 6.49 65.6551 6.55C65.6351 6.59 65.6051 6.63 65.5651 6.67C65.5251 6.71 65.5051 6.73 65.5051 6.73C65.4251 6.79 65.3351 6.85 65.2351 6.91C65.1551 6.97 65.0551 7.01 64.9351 7.03L63.6451 7.12C63.5251 7.12 63.4051 7.13 63.2851 7.15C63.1651 7.15 63.0351 7.16 62.8951 7.18H62.7451C62.4251 7.2 62.1151 7.23 61.8151 7.27C61.5151 7.31 61.2151 7.35 60.9151 7.39L59.7151 7.57C59.6551 7.57 59.6151 7.58 59.5951 7.6C59.5151 7.6 59.4551 7.66 59.4151 7.78V7.87C59.4151 8.07 59.4151 8.27 59.4151 8.47C59.4151 8.65 59.4251 8.84 59.4451 9.04C59.5051 9.32 59.5051 9.6 59.4451 9.88C59.4251 9.94 59.4051 10 59.3851 10.06C59.3851 10.1 59.3851 10.14 59.3851 10.18C59.4051 10.42 59.3851 10.68 59.3251 10.96C59.3251 11.02 59.3251 11.08 59.3251 11.14C59.3251 11.2 59.3351 11.26 59.3551 11.32C59.3751 11.4 59.3851 11.49 59.3851 11.59C59.3851 11.69 59.3851 11.79 59.3851 11.89V13.45C59.3851 13.53 59.3751 13.63 59.3551 13.75C59.3551 13.85 59.3551 13.95 59.3551 14.05C59.3551 14.13 59.3551 14.22 59.3551 14.32C59.3751 14.42 59.3851 14.52 59.3851 14.62C59.3851 14.76 59.3851 14.9 59.3851 15.04C59.4051 15.18 59.4051 15.33 59.3851 15.49V16.42C59.3851 16.44 59.3751 16.46 59.3551 16.48C59.3551 16.5 59.3651 16.53 59.3851 16.57C59.4051 16.75 59.4151 16.94 59.4151 17.14C59.4151 17.32 59.4351 17.5 59.4751 17.68C59.4751 17.74 59.4751 17.8 59.4751 17.86C59.4951 17.92 59.4951 17.98 59.4751 18.04C59.4751 18.22 59.4951 18.41 59.5351 18.61C59.5751 18.79 59.6051 18.97 59.6251 19.15C59.6651 19.37 59.7051 19.59 59.7451 19.81C59.8051 20.03 59.8551 20.25 59.8951 20.47L59.9851 20.89C59.9851 20.95 59.9551 21 59.8951 21.04C59.8951 21.04 59.8851 21.04 59.8651 21.04C59.8651 21.04 59.8551 21.05 59.8351 21.07C59.7351 21.11 59.6951 21.17 59.7151 21.25V21.4C59.7151 21.4 59.7051 21.41 59.6851 21.43C59.6851 21.45 59.6751 21.46 59.6551 21.46C59.5551 21.46 59.4751 21.5 59.4151 21.58C59.3551 21.66 59.2851 21.73 59.2051 21.79C59.1451 21.83 59.0651 21.87 58.9651 21.91C58.7051 22.01 58.4651 22.03 58.2451 21.97ZM72.1243 22.21C72.0043 22.21 71.9243 22.2 71.8843 22.18C71.7843 22.14 71.6843 22.12 71.5843 22.12C71.5043 22.14 71.4143 22.15 71.3143 22.15C71.2943 22.15 71.2743 22.15 71.2543 22.15C71.2343 22.17 71.2143 22.18 71.1943 22.18C71.0543 22.2 70.9143 22.21 70.7743 22.21C70.6543 22.21 70.5343 22.19 70.4143 22.15C70.3943 22.13 70.3743 22.12 70.3543 22.12C70.2143 22.14 70.0943 22.1 69.9943 22C69.8943 21.9 69.7943 21.81 69.6943 21.73C69.5943 21.63 69.5443 21.52 69.5443 21.4L69.4543 21.16C69.3943 21.02 69.3743 20.89 69.3943 20.77C69.4143 20.73 69.4143 20.69 69.3943 20.65C69.3943 20.61 69.3943 20.57 69.3943 20.53C69.3743 20.49 69.3643 20.45 69.3643 20.41C69.3643 20.35 69.3543 20.3 69.3343 20.26C69.2943 20.08 69.2643 19.9 69.2443 19.72C69.2443 19.52 69.2543 19.33 69.2743 19.15C69.2943 19.03 69.3643 18.83 69.4843 18.55C69.6043 18.25 69.6743 18.07 69.6943 18.01C69.7543 17.91 69.7843 17.83 69.7843 17.77C69.7643 17.55 69.7543 17.33 69.7543 17.11C69.7743 16.87 69.7843 16.64 69.7843 16.42C69.7843 16.28 69.8143 16.17 69.8743 16.09C69.9543 15.95 69.9643 15.8 69.9043 15.64L69.8143 15.31C69.6943 15.09 69.7043 14.9 69.8443 14.74C69.8443 14.72 69.8443 14.71 69.8443 14.71C69.8643 14.69 69.8743 14.67 69.8743 14.65C69.9143 14.61 69.9243 14.56 69.9043 14.5C69.8843 14.42 69.8743 14.36 69.8743 14.32C69.8743 14.24 69.8843 14.16 69.9043 14.08C69.9443 13.98 69.9543 13.89 69.9343 13.81C69.9343 13.81 69.9143 13.79 69.8743 13.75C69.8543 13.71 69.8443 13.63 69.8443 13.51C69.8643 13.39 69.8743 13.32 69.8743 13.3V12.46C69.8943 12.36 69.9043 12.27 69.9043 12.19C69.9043 12.09 69.9143 11.99 69.9343 11.89C69.9543 11.77 69.9543 11.65 69.9343 11.53C69.9343 11.39 69.9343 11.25 69.9343 11.11C69.9143 11.01 69.8943 10.9 69.8743 10.78C69.8743 10.66 69.8743 10.54 69.8743 10.42C69.8543 10.38 69.8443 10.33 69.8443 10.27C69.8443 10.21 69.8443 10.16 69.8443 10.12C69.8243 10.02 69.8043 9.92 69.7843 9.82C69.7843 9.72 69.7843 9.62 69.7843 9.52C69.7843 9.48 69.7443 9.35 69.6643 9.13C69.5843 8.89 69.5543 8.69 69.5743 8.53C69.5943 8.49 69.6043 8.44 69.6043 8.38C69.6043 8.32 69.5843 8.27 69.5443 8.23C69.5043 8.21 69.4843 8.17 69.4843 8.11V8.02C69.5443 7.78 69.5143 7.54 69.3943 7.3C69.3143 7.18 69.2843 7.06 69.3043 6.94C69.3043 6.78 69.2343 6.66 69.0943 6.58C68.9943 6.48 68.9043 6.36 68.8243 6.22C68.7443 6.08 68.6943 5.94 68.6743 5.8C68.6543 5.7 68.6443 5.6 68.6443 5.5C68.6443 5.4 68.6443 5.31 68.6443 5.23C68.6443 5.15 68.6543 5.1 68.6743 5.08C68.7543 5 68.7943 4.91 68.7943 4.81C68.7943 4.69 68.8043 4.6 68.8243 4.54C68.8443 4.52 68.8643 4.51 68.8843 4.51C68.9043 4.51 68.9243 4.5 68.9443 4.48C69.0243 4.46 69.0643 4.39 69.0643 4.27C69.0243 4.19 69.0043 4.12 69.0043 4.06C68.9843 3.98 69.0143 3.91 69.0943 3.85C69.1343 3.77 69.1843 3.75 69.2443 3.79C69.3843 3.85 69.5443 3.83 69.7243 3.73C69.8043 3.69 69.8543 3.67 69.8743 3.67C69.9343 3.67 69.9643 3.67 69.9643 3.67C69.9843 3.65 70.0443 3.64 70.1443 3.64C70.2643 3.66 70.3743 3.62 70.4743 3.52C70.6143 3.38 70.7843 3.31 70.9843 3.31H72.8443C73.3043 3.33 73.7643 3.33 74.2243 3.31C74.6843 3.29 75.1343 3.28 75.5743 3.28C75.6743 3.28 75.7543 3.28 75.8143 3.28C75.8943 3.26 75.9743 3.24 76.0543 3.22C76.1743 3.16 76.3143 3.13 76.4743 3.13H77.1643C77.3243 3.13 77.4643 3.13 77.5843 3.13C77.7243 3.11 77.8643 3.09 78.0043 3.07C78.0843 3.05 78.1543 3.04 78.2143 3.04C78.2943 3.04 78.3743 3.04 78.4543 3.04C78.5343 3.04 78.6143 3.04 78.6943 3.04C78.7743 3.04 78.8543 3.03 78.9343 3.01C79.0943 2.99 79.2643 2.98 79.4443 2.98C79.6243 2.96 79.7943 2.95 79.9543 2.95C80.0343 2.95 80.1043 2.95 80.1643 2.95C80.2443 2.93 80.3243 2.91 80.4043 2.89C80.5643 2.85 80.7143 2.83 80.8543 2.83C81.0143 2.81 81.1643 2.79 81.3043 2.77C81.4643 2.75 81.6143 2.73 81.7543 2.71C81.9143 2.69 82.0643 2.67 82.2043 2.65C82.3843 2.65 82.5143 2.67 82.5943 2.71C82.7143 2.79 82.8243 2.86 82.9243 2.92C83.0443 2.98 83.1543 3.06 83.2543 3.16C83.3343 3.24 83.3843 3.31 83.4043 3.37C83.4243 3.45 83.4443 3.53 83.4643 3.61C83.4843 3.69 83.5043 3.78 83.5243 3.88V4.09C83.5043 4.19 83.4843 4.3 83.4643 4.42C83.4643 4.52 83.4543 4.63 83.4343 4.75C83.3943 4.83 83.3443 4.9 83.2843 4.96L82.7443 5.5C82.5443 5.56 82.3443 5.6 82.1443 5.62C81.9643 5.64 81.7743 5.64 81.5743 5.62H81.3643C81.2643 5.64 81.1643 5.65 81.0643 5.65C80.9643 5.65 80.8643 5.64 80.7643 5.62C80.6443 5.6 80.5243 5.6 80.4043 5.62C80.2843 5.62 80.1643 5.62 80.0443 5.62C79.9643 5.62 79.8843 5.63 79.8043 5.65C79.7443 5.65 79.6743 5.64 79.5943 5.62C79.4943 5.6 79.3943 5.6 79.2943 5.62C79.2143 5.62 79.1243 5.63 79.0243 5.65C78.9443 5.65 78.8543 5.66 78.7543 5.68C78.6743 5.68 78.5843 5.68 78.4843 5.68C78.2243 5.72 77.9443 5.74 77.6443 5.74C77.3643 5.74 77.0843 5.76 76.8043 5.8C76.6243 5.78 76.4543 5.79 76.2943 5.83C76.1343 5.85 75.9643 5.87 75.7843 5.89C75.6243 5.91 75.4543 5.92 75.2743 5.92C75.0943 5.92 74.9243 5.94 74.7643 5.98C74.5643 5.98 74.3643 6.01 74.1643 6.07C73.9843 6.11 73.7943 6.14 73.5943 6.16L73.3843 6.19C73.2443 6.19 73.1143 6.21 72.9943 6.25C72.8743 6.27 72.7443 6.3 72.6043 6.34C72.5243 6.36 72.4443 6.38 72.3643 6.4C72.2843 6.4 72.1943 6.41 72.0943 6.43C72.0343 6.43 71.9643 6.45 71.8843 6.49C71.8243 6.51 71.7943 6.57 71.7943 6.67L71.8843 6.94C71.9043 6.98 71.8943 7.08 71.8543 7.24C71.8343 7.4 71.8143 7.52 71.7943 7.6C71.7943 7.66 71.8043 7.72 71.8243 7.78C71.8443 7.84 71.8643 7.9 71.8843 7.96C71.9443 8.12 71.9743 8.3 71.9743 8.5C71.9743 8.68 71.9943 8.85 72.0343 9.01C72.0543 9.09 72.0643 9.18 72.0643 9.28C72.0643 9.36 72.0743 9.45 72.0943 9.55C72.0943 9.59 72.0943 9.64 72.0943 9.7C72.1143 9.74 72.1243 9.79 72.1243 9.85C72.1243 9.91 72.1143 9.95 72.0943 9.97C72.0343 10.05 72.0043 10.14 72.0043 10.24C72.0043 10.34 72.0043 10.44 72.0043 10.54C72.1043 10.74 72.1543 10.94 72.1543 11.14C72.1543 11.34 72.1543 11.54 72.1543 11.74C72.1543 11.8 72.2043 11.82 72.3043 11.8H72.3343C72.3743 11.72 72.4143 11.66 72.4543 11.62C72.5143 11.62 72.5843 11.6 72.6643 11.56C72.7243 11.52 72.8043 11.5 72.9043 11.5C73.0643 11.52 73.2143 11.52 73.3543 11.5C73.4943 11.46 73.6343 11.42 73.7743 11.38C74.7143 11.14 75.5943 10.83 76.4143 10.45C76.6343 10.35 76.8643 10.27 77.1043 10.21C77.3443 10.13 77.5843 10.08 77.8243 10.06H77.9143C78.0943 10.04 78.2743 10.02 78.4543 10C78.6343 9.98 78.8143 9.97 78.9943 9.97C79.2343 9.95 79.4643 9.92 79.6843 9.88C79.9243 9.84 80.1643 9.81 80.4043 9.79C80.5443 9.75 80.6743 9.72 80.7943 9.7C80.9143 9.66 81.0443 9.61 81.1843 9.55C81.4443 9.45 81.6843 9.4 81.9043 9.4C82.0643 9.42 82.2143 9.46 82.3543 9.52C82.4943 9.56 82.6343 9.62 82.7743 9.7C83.0743 9.9 83.2243 10.2 83.2243 10.6C83.2243 10.76 83.2043 10.92 83.1643 11.08C83.1443 11.24 83.1343 11.4 83.1343 11.56C83.1343 11.6 83.1143 11.64 83.0743 11.68L82.9843 11.83C82.9643 11.91 82.9443 11.99 82.9243 12.07C82.9043 12.15 82.8543 12.21 82.7743 12.25C82.6543 12.35 82.5243 12.46 82.3843 12.58C82.2643 12.68 82.1243 12.75 81.9643 12.79C81.8843 12.81 81.8043 12.83 81.7243 12.85C81.6643 12.87 81.5943 12.88 81.5143 12.88C81.1943 12.88 80.8643 12.9 80.5243 12.94C80.2043 12.98 79.8743 13.02 79.5343 13.06C79.2743 13.08 79.0143 13.11 78.7543 13.15C78.5143 13.19 78.2643 13.21 78.0043 13.21C77.7643 13.21 77.4943 13.26 77.1943 13.36C76.9943 13.4 76.7843 13.44 76.5643 13.48C76.3443 13.52 76.1243 13.55 75.9043 13.57C75.7443 13.59 75.5743 13.62 75.3943 13.66C75.2343 13.68 75.0743 13.7 74.9143 13.72L74.4043 13.81C74.3643 13.83 74.3043 13.84 74.2243 13.84C74.0843 13.88 73.9443 13.91 73.8043 13.93C73.6643 13.95 73.5243 13.98 73.3843 14.02C73.2443 14.04 73.1043 14.07 72.9643 14.11C72.8443 14.15 72.7143 14.19 72.5743 14.23C72.4743 14.25 72.3943 14.29 72.3343 14.35C72.2743 14.39 72.2243 14.45 72.1843 14.53C72.1643 14.59 72.1643 14.65 72.1843 14.71C72.2043 14.79 72.1943 14.87 72.1543 14.95C72.1743 15.15 72.1843 15.35 72.1843 15.55C72.2043 15.75 72.2043 15.95 72.1843 16.15C72.2243 16.31 72.2343 16.47 72.2143 16.63C72.2143 16.79 72.2043 16.95 72.1843 17.11C72.1443 17.35 72.1543 17.55 72.2143 17.71C72.2743 17.97 72.2543 18.24 72.1543 18.52C72.1143 18.64 72.1143 18.72 72.1543 18.76C72.1943 18.82 72.1943 18.89 72.1543 18.97V19.15C72.1343 19.31 72.2043 19.39 72.3643 19.39H72.4243C72.5643 19.39 72.7043 19.44 72.8443 19.54C72.9443 19.64 73.0643 19.67 73.2043 19.63L74.0443 19.54C74.1643 19.52 74.2843 19.51 74.4043 19.51C74.5243 19.49 74.6443 19.48 74.7643 19.48C74.8043 19.46 74.8643 19.47 74.9443 19.51C75.0443 19.57 75.1343 19.58 75.2143 19.54C75.2543 19.5 75.3043 19.47 75.3643 19.45C75.4443 19.43 75.5043 19.4 75.5443 19.36C75.6643 19.24 75.8143 19.2 75.9943 19.24C76.1543 19.28 76.2843 19.27 76.3843 19.21C76.5643 19.15 76.7343 19.13 76.8943 19.15C76.9943 19.17 77.0943 19.16 77.1943 19.12C77.2943 19.08 77.3943 19.06 77.4943 19.06C77.5343 19.06 77.5643 19.07 77.5843 19.09C77.6043 19.09 77.6243 19.08 77.6443 19.06C77.6843 19.06 77.7243 19.05 77.7643 19.03C77.8043 19.01 77.8343 19 77.8543 19C77.9943 18.94 78.1243 18.92 78.2443 18.94C78.3443 18.94 78.3943 18.94 78.3943 18.94C78.4743 18.92 78.5443 18.92 78.6043 18.94C78.6843 18.96 78.7543 18.99 78.8143 19.03C78.9143 19.05 78.9943 19.08 79.0543 19.12C79.1343 19.16 79.2143 19.19 79.2943 19.21C79.3343 19.21 79.3643 19.22 79.3843 19.24C79.4843 19.32 79.6043 19.39 79.7443 19.45C79.9043 19.51 79.9943 19.58 80.0143 19.66C80.0543 19.78 80.0743 19.9 80.0743 20.02C80.0743 20.12 80.0843 20.23 80.1043 20.35C80.1043 20.41 80.0943 20.47 80.0743 20.53C80.0743 20.59 80.0643 20.65 80.0443 20.71C80.0043 20.79 79.9543 20.88 79.8943 20.98C79.8543 21.08 79.7943 21.17 79.7143 21.25C79.6743 21.29 79.6343 21.33 79.5943 21.37C79.5743 21.41 79.5443 21.45 79.5043 21.49C79.4243 21.57 79.3343 21.64 79.2343 21.7C79.1343 21.76 79.0243 21.79 78.9043 21.79C78.8243 21.79 78.7643 21.8 78.7243 21.82C78.6443 21.86 78.5643 21.88 78.4843 21.88C78.4043 21.88 78.3143 21.88 78.2143 21.88C78.0743 21.9 77.9343 21.92 77.7943 21.94C77.6743 21.94 77.5443 21.93 77.4043 21.91C77.3243 21.89 77.2543 21.89 77.1943 21.91C76.9943 21.97 76.7943 21.98 76.5943 21.94C76.3943 21.94 76.1943 21.95 75.9943 21.97C75.8143 21.97 75.6343 21.97 75.4543 21.97H75.0643C75.0043 21.97 74.9543 21.98 74.9143 22C74.8343 22.04 74.7343 22.06 74.6143 22.06C74.5143 22.06 74.4143 22.05 74.3143 22.03H74.0143C73.9943 22.03 73.9643 22.03 73.9243 22.03C73.8843 22.05 73.8443 22.05 73.8043 22.03C73.7443 22.01 73.6843 22 73.6243 22C73.5843 22.02 73.5343 22.04 73.4743 22.06C73.4343 22.06 73.3943 22.06 73.3543 22.06C73.3343 22.08 73.3043 22.09 73.2643 22.09C73.0643 22.07 72.8743 22.07 72.6943 22.09C72.5143 22.13 72.3243 22.17 72.1243 22.21Z" fill="#353535"/>
</svg>
