<svg width="32" height="38" viewBox="0 0 32 38" fill="none" xmlns="http://www.w3.org/2000/svg">
<path d="M6.23699 37.18C6.11699 37.18 6.01699 37.13 5.93699 37.03C5.85699 36.95 5.79699 36.87 5.75699 36.79C5.69699 36.63 5.66699 36.48 5.66699 36.34C5.64699 36.18 5.62699 36.01 5.60699 35.83C5.60699 35.67 5.59699 35.5 5.57699 35.32C5.57699 35 5.54699 34.69 5.48699 34.39C5.48699 34.27 5.47699 34.15 5.45699 34.03C5.43699 33.91 5.42699 33.79 5.42699 33.67C5.44699 33.63 5.44699 33.58 5.42699 33.52C5.42699 33.48 5.42699 33.43 5.42699 33.37C5.40699 33.27 5.39699 33.17 5.39699 33.07C5.39699 32.99 5.39699 32.91 5.39699 32.83C5.37699 32.75 5.36699 32.65 5.36699 32.53C5.30699 32.33 5.29699 32.13 5.33699 31.93C5.37699 31.63 5.36699 31.38 5.30699 31.18C5.28699 31.04 5.27699 30.91 5.27699 30.79C5.27699 30.67 5.27699 30.55 5.27699 30.43C5.25699 30.31 5.24699 30.19 5.24699 30.07C5.24699 29.95 5.24699 29.83 5.24699 29.71V29.47C5.24699 29.43 5.23699 29.38 5.21699 29.32C5.21699 29.28 5.21699 29.23 5.21699 29.17C5.21699 28.99 5.21699 28.81 5.21699 28.63C5.21699 28.45 5.19699 28.27 5.15699 28.09C5.13699 27.95 5.12699 27.81 5.12699 27.67C5.14699 27.55 5.15699 27.43 5.15699 27.31V26.47C5.15699 26.37 5.15699 26.26 5.15699 26.14C5.15699 26.04 5.16699 25.94 5.18699 25.84C5.20699 25.74 5.20699 25.64 5.18699 25.54C5.18699 25.46 5.18699 25.38 5.18699 25.3C5.18699 25.2 5.17699 25.11 5.15699 25.03C5.15699 24.95 5.16699 24.87 5.18699 24.79C5.14699 24.35 5.08699 23.94 5.00699 23.56L4.91699 23.41C4.83699 23.31 4.75699 23.2 4.67699 23.08C4.61699 22.96 4.53699 22.85 4.43699 22.75C4.13699 22.41 3.86699 22.05 3.62699 21.67C3.56699 21.61 3.51699 21.55 3.47699 21.49C3.43699 21.41 3.39699 21.33 3.35699 21.25C3.31699 21.17 3.27699 21.1 3.23699 21.04C3.19699 20.96 3.15699 20.88 3.11699 20.8C3.03699 20.64 2.95699 20.49 2.87699 20.35C2.79699 20.21 2.72699 20.07 2.66699 19.93C2.58699 19.75 2.51699 19.57 2.45699 19.39C2.41699 19.21 2.34699 19.04 2.24699 18.88C2.22699 18.86 2.21699 18.85 2.21699 18.85C2.21699 18.83 2.21699 18.82 2.21699 18.82C2.09699 18.4 1.94699 18.02 1.76699 17.68C1.74699 17.58 1.71699 17.49 1.67699 17.41C1.65699 17.31 1.63699 17.21 1.61699 17.11C1.59699 17.01 1.56699 16.91 1.52699 16.81C1.50699 16.69 1.47699 16.58 1.43699 16.48C1.37699 16.28 1.32699 16.08 1.28699 15.88C1.24699 15.68 1.20699 15.48 1.16699 15.28C1.14699 15.24 1.13699 15.17 1.13699 15.07C1.13699 14.87 1.12699 14.68 1.10699 14.5C1.08699 14.32 1.05699 14.13 1.01699 13.93C0.956992 13.63 0.926992 13.32 0.926992 13C0.926992 12.9 0.926992 12.8 0.926992 12.7C0.926992 12.6 0.916992 12.51 0.896992 12.43C0.876992 12.37 0.866992 12.31 0.866992 12.25C0.866992 12.17 0.866992 12.09 0.866992 12.01V11.05C0.866992 10.97 0.866992 10.9 0.866992 10.84C0.866992 10.76 0.876992 10.68 0.896992 10.6C0.896992 10.56 0.896992 10.53 0.896992 10.51C0.916992 10.49 0.926992 10.47 0.926992 10.45C0.906992 10.23 0.916992 10.01 0.956992 9.79C0.996992 9.57 1.02699 9.35 1.04699 9.13C1.04699 9.01 1.05699 8.92 1.07699 8.86C1.11699 8.66 1.13699 8.46 1.13699 8.26C1.15699 8.06 1.16699 7.86 1.16699 7.66V7.57C1.20699 7.39 1.21699 7.21 1.19699 7.03C1.17699 6.85 1.16699 6.68 1.16699 6.52C1.14699 6.36 1.12699 6.2 1.10699 6.04C1.08699 5.88 1.08699 5.72 1.10699 5.56C1.08699 5.4 1.07699 5.23 1.07699 5.05C1.07699 4.87 1.08699 4.69 1.10699 4.51C1.10699 4.37 1.10699 4.23 1.10699 4.09C1.12699 3.93 1.14699 3.78 1.16699 3.64C1.16699 3.48 1.16699 3.33 1.16699 3.19C1.18699 3.03 1.20699 2.87 1.22699 2.71C1.24699 2.43 1.30699 2.15 1.40699 1.87C1.46699 1.65 1.60699 1.44 1.82699 1.24C1.96699 1.1 2.11699 0.989999 2.27699 0.91C2.45699 0.83 2.64699 0.769999 2.84699 0.729998H3.08699C3.28699 0.729998 3.45699 0.789999 3.59699 0.91C3.67699 0.969999 3.74699 1.03 3.80699 1.09C3.88699 1.15 3.96699 1.2 4.04699 1.24C4.10699 1.3 4.14699 1.35 4.16699 1.39C4.20699 1.45 4.24699 1.51 4.28699 1.57C4.32699 1.61 4.35699 1.65 4.37699 1.69C4.61699 1.91 4.68699 2.16 4.58699 2.44C4.52699 2.64 4.49699 2.83 4.49699 3.01C4.47699 3.09 4.46699 3.17 4.46699 3.25C4.46699 3.33 4.46699 3.41 4.46699 3.49C4.46699 3.65 4.45699 3.81 4.43699 3.97C4.41699 4.11 4.38699 4.26 4.34699 4.42C4.32699 4.48 4.31699 4.57 4.31699 4.69C4.31699 4.83 4.30699 4.97 4.28699 5.11C4.28699 5.25 4.27699 5.4 4.25699 5.56C4.21699 5.74 4.22699 5.91 4.28699 6.07C4.32699 6.15 4.30699 6.22 4.22699 6.28C4.22699 6.28 4.21699 6.29 4.19699 6.31C4.19699 6.33 4.19699 6.35 4.19699 6.37C4.17699 6.51 4.16699 6.65 4.16699 6.79C4.16699 6.91 4.16699 7.04 4.16699 7.18C4.16699 7.36 4.15699 7.54 4.13699 7.72C4.13699 7.88 4.12699 8.04 4.10699 8.2C4.10699 8.28 4.10699 8.35 4.10699 8.41C4.10699 8.47 4.09699 8.54 4.07699 8.62C4.07699 8.88 4.06699 9.14 4.04699 9.4C4.02699 9.64 3.99699 9.89 3.95699 10.15C3.89699 10.47 3.88699 10.84 3.92699 11.26V12.13C3.92699 12.37 3.95699 12.61 4.01699 12.85C4.05699 13.03 4.08699 13.21 4.10699 13.39C4.14699 13.55 4.18699 13.71 4.22699 13.87C4.28699 14.17 4.39699 14.5 4.55699 14.86L4.76699 15.25C4.86699 15.51 4.98699 15.76 5.12699 16C5.28699 16.24 5.44699 16.47 5.60699 16.69C5.72699 16.87 5.85699 17.03 5.99699 17.17L6.53699 17.71C6.67699 17.77 6.79699 17.78 6.89699 17.74L7.04699 17.68C7.14699 17.64 7.24699 17.6 7.34699 17.56C7.44699 17.5 7.53699 17.45 7.61699 17.41L7.79699 17.32C7.99699 17.18 8.13699 17.03 8.21699 16.87C8.27699 16.73 8.34699 16.59 8.42699 16.45C8.50699 16.27 8.58699 16.09 8.66699 15.91C8.76699 15.71 8.87699 15.53 8.99699 15.37C9.07699 15.25 9.14699 15.14 9.20699 15.04C9.28699 14.92 9.35699 14.8 9.41699 14.68C9.47699 14.58 9.53699 14.47 9.59699 14.35C9.65699 14.23 9.70699 14.1 9.74699 13.96C9.80699 13.78 9.86699 13.6 9.92699 13.42C9.98699 13.22 10.037 13.02 10.077 12.82C10.137 12.54 10.167 12.27 10.167 12.01V11.35C10.147 11.07 10.127 10.78 10.107 10.48C10.107 10.16 10.097 9.81 10.077 9.43C10.077 9.31 10.067 9.16 10.047 8.98C10.027 8.78 10.017 8.58 10.017 8.38C10.017 8.2 10.007 8.02 9.98699 7.84C9.98699 7.66 9.97699 7.48 9.95699 7.3C9.93699 6.96 9.90699 6.63 9.86699 6.31C9.84699 5.99 9.81699 5.67 9.77699 5.35C9.77699 5.31 9.76699 5.28 9.74699 5.26C9.74699 5.22 9.74699 5.19 9.74699 5.17C9.74699 4.97 9.73699 4.78 9.71699 4.6C9.69699 4.42 9.68699 4.23 9.68699 4.03L9.56699 3.37C9.54699 3.23 9.51699 3.1 9.47699 2.98C9.45699 2.86 9.42699 2.73 9.38699 2.59C9.36699 2.27 9.43699 1.94 9.59699 1.6C9.75699 1.26 9.99699 1.02 10.317 0.879998C10.457 0.819999 10.597 0.769999 10.737 0.729998C10.877 0.669999 11.017 0.64 11.157 0.64C11.477 0.64 11.757 0.699999 11.997 0.819999C12.257 0.939999 12.467 1.14 12.627 1.42C12.667 1.48 12.707 1.59 12.747 1.75C12.787 1.85 12.807 1.96 12.807 2.08C12.807 2.18 12.807 2.28 12.807 2.38C12.827 2.58 12.837 2.8 12.837 3.04C12.857 3.26 12.877 3.48 12.897 3.7V4C12.897 4.12 12.897 4.24 12.897 4.36C12.917 4.48 12.937 4.61 12.957 4.75C12.977 4.83 12.987 4.92 12.987 5.02C12.987 5.12 12.987 5.22 12.987 5.32C12.987 5.38 12.987 5.44 12.987 5.5C12.987 5.56 12.997 5.62 13.017 5.68C13.037 5.76 13.047 5.84 13.047 5.92C13.047 6 13.047 6.08 13.047 6.16C13.047 6.3 13.047 6.45 13.047 6.61C13.067 6.75 13.087 6.9 13.107 7.06C13.127 7.18 13.137 7.3 13.137 7.42C13.137 7.54 13.147 7.66 13.167 7.78C13.167 7.9 13.167 8.02 13.167 8.14C13.187 8.26 13.197 8.38 13.197 8.5C13.197 8.62 13.197 8.75 13.197 8.89C13.217 9.01 13.237 9.13 13.257 9.25C13.277 9.41 13.287 9.58 13.287 9.76C13.287 9.92 13.287 10.08 13.287 10.24C13.307 10.5 13.307 10.77 13.287 11.05C13.287 11.31 13.277 11.58 13.257 11.86C13.257 12 13.247 12.14 13.227 12.28C13.207 12.4 13.197 12.53 13.197 12.67C13.197 12.69 13.187 12.71 13.167 12.73C13.167 12.75 13.167 12.78 13.167 12.82C13.127 12.96 13.087 13.12 13.047 13.3C13.007 13.46 12.967 13.62 12.927 13.78C12.907 13.82 12.887 13.87 12.867 13.93C12.867 13.99 12.847 14.04 12.807 14.08C12.747 14.22 12.697 14.35 12.657 14.47C12.617 14.59 12.577 14.72 12.537 14.86C12.497 14.94 12.477 15 12.477 15.04C12.457 15.14 12.427 15.24 12.387 15.34C12.347 15.42 12.307 15.51 12.267 15.61C12.187 15.75 12.117 15.89 12.057 16.03C11.997 16.15 11.927 16.27 11.847 16.39C11.787 16.47 11.727 16.56 11.667 16.66C11.607 16.74 11.547 16.82 11.487 16.9L11.277 17.2C11.197 17.34 11.117 17.49 11.037 17.65C10.957 17.79 10.867 17.94 10.767 18.1C10.687 18.22 10.587 18.36 10.467 18.52C10.327 18.68 10.207 18.88 10.107 19.12C10.087 19.14 10.077 19.16 10.077 19.18C10.077 19.2 10.067 19.22 10.047 19.24C9.90699 19.42 9.77699 19.61 9.65699 19.81C9.55699 20.01 9.44699 20.21 9.32699 20.41C9.18699 20.65 9.03699 20.88 8.87699 21.1C8.73699 21.32 8.56699 21.52 8.36699 21.7C8.22699 21.84 8.09699 22 7.97699 22.18C7.91699 22.28 7.83699 22.36 7.73699 22.42C7.63699 22.52 7.53699 22.63 7.43699 22.75C7.33699 22.89 7.23699 23.02 7.13699 23.14C7.03699 23.34 6.97699 23.52 6.95699 23.68C6.93699 23.76 6.91699 23.85 6.89699 23.95C6.89699 24.07 6.89699 24.18 6.89699 24.28C6.87699 24.48 6.86699 24.68 6.86699 24.88C6.86699 25.1 6.86699 25.32 6.86699 25.54V26.5C6.86699 26.62 6.85699 26.74 6.83699 26.86C6.83699 26.98 6.83699 27.11 6.83699 27.25C6.81699 27.39 6.80699 27.54 6.80699 27.7C6.80699 27.86 6.80699 28.02 6.80699 28.18C6.82699 28.3 6.82699 28.41 6.80699 28.51C6.80699 28.63 6.81699 28.75 6.83699 28.87C6.83699 29.01 6.82699 29.14 6.80699 29.26C6.80699 29.4 6.81699 29.54 6.83699 29.68C6.85699 29.86 6.85699 30.02 6.83699 30.16C6.81699 30.18 6.80699 30.2 6.80699 30.22C6.82699 30.26 6.83699 30.29 6.83699 30.31C6.85699 30.53 6.85699 30.76 6.83699 31C6.81699 31.02 6.80699 31.03 6.80699 31.03C6.82699 31.05 6.83699 31.06 6.83699 31.06C6.83699 31.28 6.83699 31.5 6.83699 31.72C6.85699 31.96 6.86699 32.2 6.86699 32.44C6.86699 32.76 6.85699 33.08 6.83699 33.4C6.83699 33.72 6.83699 34.05 6.83699 34.39C6.85699 34.65 6.84699 34.91 6.80699 35.17C6.78699 35.43 6.77699 35.69 6.77699 35.95V36.28C6.79699 36.4 6.78699 36.51 6.74699 36.61C6.70699 36.73 6.66699 36.84 6.62699 36.94C6.58699 37.06 6.45699 37.14 6.23699 37.18ZM20.1514 21.1C20.1314 21.1 20.1114 21.1 20.0914 21.1C20.0714 21.08 20.0414 21.07 20.0014 21.07L19.6714 20.92L19.6114 20.98C19.5514 21.06 19.5014 21.09 19.4614 21.07C19.4014 21.03 19.3314 21.01 19.2514 21.01C19.1714 20.99 19.0914 20.98 19.0114 20.98C18.8114 21 18.6114 20.99 18.4114 20.95C18.2314 20.91 18.0414 20.85 17.8414 20.77L17.6614 20.68C17.4414 20.56 17.2614 20.37 17.1214 20.11C17.0814 20.03 17.0414 19.96 17.0014 19.9C16.9814 19.82 16.9514 19.74 16.9114 19.66C16.8914 19.6 16.8914 19.54 16.9114 19.48C16.9714 19.08 17.1414 18.72 17.4214 18.4C17.5414 18.28 17.6614 18.16 17.7814 18.04C17.9014 17.9 18.0314 17.78 18.1714 17.68C18.3114 17.58 18.4514 17.48 18.5914 17.38C18.7514 17.26 18.9014 17.15 19.0414 17.05C19.3214 16.85 19.6014 16.66 19.8814 16.48C20.1614 16.28 20.4314 16.08 20.6914 15.88C21.1714 15.52 21.5214 15.06 21.7414 14.5C21.8814 14.16 22.0114 13.83 22.1314 13.51C22.2514 13.19 22.3714 12.87 22.4914 12.55C22.5914 12.27 22.6814 12 22.7614 11.74C22.8614 11.46 22.9614 11.19 23.0614 10.93C23.1414 10.71 23.2014 10.49 23.2414 10.27C23.3014 10.03 23.3414 9.8 23.3614 9.58C23.4014 9.24 23.3614 8.92 23.2414 8.62C23.2014 8.5 23.1214 8.42 23.0014 8.38C22.9214 8.34 22.8414 8.31 22.7614 8.29C22.6814 8.27 22.6014 8.25 22.5214 8.23C22.4014 8.23 22.3114 8.24 22.2514 8.26C22.2314 8.28 22.2014 8.29 22.1614 8.29C22.1414 8.29 22.1214 8.3 22.1014 8.32C21.6614 8.52 21.2514 8.78 20.8714 9.1C20.8114 9.16 20.7514 9.22 20.6914 9.28C20.6314 9.32 20.5714 9.36 20.5114 9.4C20.3714 9.52 20.2414 9.65 20.1214 9.79C20.0414 9.87 19.9514 9.96 19.8514 10.06C19.7714 10.16 19.6914 10.26 19.6114 10.36C19.4314 10.56 19.3014 10.79 19.2214 11.05C19.1414 11.35 18.9614 11.59 18.6814 11.77C18.5014 11.91 18.3614 12.06 18.2614 12.22C18.1614 12.4 17.9914 12.54 17.7514 12.64C17.5914 12.72 17.4414 12.71 17.3014 12.61L17.0614 12.34C16.9814 12.24 16.9014 12.13 16.8214 12.01C16.7414 11.89 16.6514 11.79 16.5514 11.71C16.5314 11.67 16.5014 11.63 16.4614 11.59C16.4414 11.55 16.4214 11.5 16.4014 11.44C16.3614 11.34 16.3214 11.25 16.2814 11.17C16.2414 11.07 16.2014 10.97 16.1614 10.87C16.1414 10.83 16.1314 10.77 16.1314 10.69C16.1114 10.61 16.1014 10.54 16.1014 10.48C16.1014 10.4 16.1014 10.32 16.1014 10.24C16.1214 10.18 16.1314 10.12 16.1314 10.06C16.1514 10 16.1714 9.94 16.1914 9.88C16.2914 9.52 16.4814 9.24 16.7614 9.04C17.2414 8.62 17.7514 8.2 18.2914 7.78C18.3514 7.74 18.4114 7.69 18.4714 7.63C18.5514 7.57 18.6314 7.52 18.7114 7.48C18.9314 7.32 19.1314 7.17 19.3114 7.03C19.5114 6.87 19.7114 6.72 19.9114 6.58C20.0914 6.44 20.2614 6.31 20.4214 6.19C20.6014 6.05 20.7914 5.94 20.9914 5.86C21.2114 5.74 21.4314 5.64 21.6514 5.56C21.8714 5.46 22.1114 5.4 22.3714 5.38C22.4114 5.36 22.4614 5.35 22.5214 5.35C22.5814 5.35 22.6314 5.35 22.6714 5.35C22.8914 5.37 23.1114 5.4 23.3314 5.44C23.5514 5.48 23.7614 5.55 23.9614 5.65C24.2814 5.77 24.5714 5.92 24.8314 6.1C24.9114 6.14 24.9614 6.18 24.9814 6.22C25.1614 6.4 25.3314 6.59 25.4914 6.79C25.6714 6.99 25.8014 7.22 25.8814 7.48C25.9214 7.62 25.9714 7.76 26.0314 7.9C26.0914 8.04 26.1314 8.19 26.1514 8.35C26.1714 8.43 26.1814 8.51 26.1814 8.59C26.2014 8.65 26.2114 8.73 26.2114 8.83C26.2314 9.43 26.1414 10.01 25.9414 10.57C25.9214 10.69 25.8914 10.81 25.8514 10.93C25.8114 11.05 25.7714 11.18 25.7314 11.32C25.6914 11.46 25.6414 11.61 25.5814 11.77C25.5414 11.91 25.4914 12.06 25.4314 12.22C25.3514 12.44 25.2714 12.66 25.1914 12.88C25.1114 13.08 25.0314 13.29 24.9514 13.51C24.8714 13.71 24.8014 13.91 24.7414 14.11C24.6814 14.31 24.6214 14.51 24.5614 14.71C24.4814 14.93 24.3914 15.16 24.2914 15.4C24.1914 15.62 24.0914 15.84 23.9914 16.06C23.7314 16.48 23.4114 16.9 23.0314 17.32C22.9514 17.38 22.8714 17.45 22.7914 17.53C22.7314 17.59 22.6614 17.66 22.5814 17.74V17.83C22.6214 17.83 22.6414 17.84 22.6414 17.86H22.7014C22.8014 17.84 22.9114 17.83 23.0314 17.83C23.1514 17.81 23.2714 17.79 23.3914 17.77L24.6814 17.59H24.7714C24.9914 17.55 25.2114 17.53 25.4314 17.53C25.6514 17.51 25.8614 17.49 26.0614 17.47H26.2114C26.4514 17.43 26.6814 17.41 26.9014 17.41C27.1414 17.41 27.3814 17.41 27.6214 17.41C27.7414 17.41 27.8614 17.42 27.9814 17.44C28.1214 17.44 28.2514 17.45 28.3714 17.47C28.4714 17.47 28.5714 17.47 28.6714 17.47C28.7914 17.45 28.9014 17.43 29.0014 17.41C29.1214 17.37 29.2114 17.35 29.2714 17.35C29.7714 17.27 30.2214 17.41 30.6214 17.77C30.8414 17.99 30.9914 18.24 31.0714 18.52L31.1014 18.73C31.1814 19.07 31.1114 19.4 30.8914 19.72C30.8114 19.84 30.7414 19.92 30.6814 19.96C30.6614 20 30.6114 20.04 30.5314 20.08C30.4514 20.12 30.3614 20.16 30.2614 20.2C30.1814 20.24 30.0914 20.27 29.9914 20.29C29.9714 20.31 29.9414 20.32 29.9014 20.32C29.8814 20.32 29.8514 20.33 29.8114 20.35C29.6314 20.41 29.4514 20.43 29.2714 20.41C29.1114 20.39 28.9514 20.35 28.7914 20.29C28.5314 20.17 28.2314 20.11 27.8914 20.11C27.8114 20.11 27.7314 20.11 27.6514 20.11C27.5714 20.11 27.4814 20.1 27.3814 20.08L27.1714 20.05H26.2414C26.1414 20.05 26.0614 20.06 26.0014 20.08C25.8814 20.1 25.7514 20.11 25.6114 20.11C25.4914 20.11 25.3714 20.1 25.2514 20.08C25.1914 20.06 25.1314 20.06 25.0714 20.08C25.0314 20.08 24.9814 20.09 24.9214 20.11C24.8814 20.11 24.8314 20.12 24.7714 20.14C24.7314 20.14 24.6814 20.15 24.6214 20.17C24.4214 20.25 24.3014 20.29 24.2614 20.29C24.2214 20.27 24.0914 20.27 23.8714 20.29H23.5414C23.4414 20.31 23.3414 20.33 23.2414 20.35C23.1614 20.35 23.0714 20.37 22.9714 20.41C22.8914 20.43 22.8214 20.44 22.7614 20.44C22.7014 20.44 22.6314 20.43 22.5514 20.41C22.3714 20.39 22.1714 20.43 21.9514 20.53C21.8914 20.55 21.8314 20.58 21.7714 20.62C21.7314 20.66 21.6814 20.7 21.6214 20.74C21.6014 20.76 21.5914 20.76 21.5914 20.74C21.5914 20.7 21.5714 20.67 21.5314 20.65C21.4714 20.61 21.4114 20.61 21.3514 20.65C21.3114 20.67 21.2714 20.71 21.2314 20.77C21.2114 20.81 21.1714 20.83 21.1114 20.83H20.7814C20.7014 20.83 20.6114 20.88 20.5114 20.98C20.4114 21.06 20.2914 21.1 20.1514 21.1Z" fill="#353535"/>
</svg>
