<svg width="220" height="37" viewBox="0 0 220 37" fill="none" xmlns="http://www.w3.org/2000/svg">
<path d="M19.4245 36.35C19.4012 36.3033 19.3779 36.2683 19.3545 36.245C19.3312 36.2217 19.3079 36.1867 19.2845 36.14C19.2145 35.9767 19.1679 35.8717 19.1445 35.825C19.1212 35.7783 19.1095 35.6733 19.1095 35.51V34.11C19.0862 33.9933 19.0745 33.865 19.0745 33.725C19.0745 33.6083 19.0745 33.5033 19.0745 33.41C19.0745 33.2933 19.0745 33.1883 19.0745 33.095C19.0745 33.025 19.0629 32.9433 19.0395 32.85V32.71C19.0162 32.5933 19.0045 32.4767 19.0045 32.36C19.0045 32.2667 19.0045 32.1733 19.0045 32.08C18.9812 32.0567 18.9695 32.0333 18.9695 32.01C18.9929 31.9867 19.0045 31.9633 19.0045 31.94C19.0045 31.8233 19.0045 31.7183 19.0045 31.625C19.0045 31.5317 18.9929 31.4383 18.9695 31.345V30.96C18.9695 30.9133 18.9695 30.8667 18.9695 30.82C18.9929 30.7733 18.9929 30.7267 18.9695 30.68C18.9695 30.6333 18.9579 30.5867 18.9345 30.54C18.9345 30.5167 18.9345 30.4817 18.9345 30.435C18.9345 30.1317 18.8179 29.875 18.5845 29.665L18.3745 29.35C18.2812 29.2567 18.2112 29.175 18.1645 29.105C18.1179 29.0583 18.0712 29 18.0245 28.93C17.9779 28.86 17.9312 28.8017 17.8845 28.755L17.7795 28.58C17.6162 28.23 17.4762 27.845 17.3595 27.425C17.3129 27.2383 17.2662 27.04 17.2195 26.83C17.1729 26.62 17.1262 26.41 17.0795 26.2L16.9395 25.745C16.8929 25.5117 16.8462 25.2783 16.7995 25.045C16.7529 24.8117 16.7062 24.5783 16.6595 24.345C16.6129 24.135 16.5662 23.925 16.5195 23.715C16.4962 23.505 16.4612 23.295 16.4145 23.085L16.3095 22.525C16.3095 22.4083 16.2862 22.28 16.2395 22.14C16.2162 22.07 16.2045 22 16.2045 21.93C16.2045 21.86 16.2045 21.79 16.2045 21.72C16.1812 21.65 16.1695 21.58 16.1695 21.51C16.1695 21.4167 16.1579 21.335 16.1345 21.265L16.0295 20.53C16.0062 20.3433 15.9712 20.1567 15.9245 19.97C15.9012 19.7833 15.8662 19.6083 15.8195 19.445C15.7962 19.2817 15.7729 19.1183 15.7495 18.955C15.7262 18.7917 15.6912 18.6283 15.6445 18.465C15.5979 18.2783 15.5512 18.15 15.5045 18.08C15.5045 18.0333 15.4929 17.9983 15.4695 17.975C15.4695 17.9517 15.4695 17.9283 15.4695 17.905L15.2595 17.205C15.2595 17.1817 15.2479 17.17 15.2245 17.17C15.1779 17.1233 15.1545 17.135 15.1545 17.205C15.1312 17.275 15.1079 17.345 15.0845 17.415C15.0612 17.4617 15.0379 17.52 15.0145 17.59C14.9445 17.7533 14.8862 17.905 14.8395 18.045C14.7462 18.2783 14.6529 18.5233 14.5595 18.78C14.4895 19.0133 14.4195 19.2583 14.3495 19.515L14.1395 20.075C14.1395 20.1217 14.1279 20.1567 14.1045 20.18C14.0579 20.2733 14.0229 20.3783 13.9995 20.495C13.9762 20.6117 13.9412 20.7283 13.8945 20.845C13.8712 20.9617 13.8479 21.0667 13.8245 21.16C13.8012 21.2533 13.7662 21.3583 13.7195 21.475L13.5445 22.07C13.5445 22.0933 13.5329 22.1167 13.5095 22.14C13.5095 22.1633 13.5095 22.1983 13.5095 22.245C13.4395 22.4783 13.3695 22.7233 13.2995 22.98C13.2295 23.2367 13.1479 23.4817 13.0545 23.715C13.0079 23.8083 12.9612 23.9133 12.9145 24.03C12.8679 24.1233 12.8212 24.2167 12.7745 24.31L12.5645 24.835C12.5412 24.8583 12.5295 24.8933 12.5295 24.94C12.5295 24.9633 12.5062 24.9983 12.4595 25.045C12.4362 25.115 12.4012 25.185 12.3545 25.255C12.3312 25.325 12.3079 25.395 12.2845 25.465C12.2612 25.535 12.2379 25.605 12.2145 25.675C12.1912 25.745 12.1562 25.815 12.1095 25.885C12.0862 25.885 12.0745 25.9083 12.0745 25.955C12.0279 26.0717 11.9695 26.2 11.8995 26.34C11.8295 26.4567 11.7595 26.5733 11.6895 26.69C11.6662 26.7367 11.6429 26.795 11.6195 26.865C11.5962 26.935 11.5612 26.9933 11.5145 27.04C11.4912 27.11 11.4562 27.18 11.4095 27.25C11.3629 27.32 11.3279 27.39 11.3045 27.46L11.1645 27.67C11.0945 27.74 11.0245 27.8217 10.9545 27.915C10.9079 27.985 10.8379 28.0433 10.7445 28.09L10.6395 28.195C10.5462 28.3117 10.4529 28.4167 10.3595 28.51C10.2662 28.6033 10.1612 28.7083 10.0445 28.825C10.0212 28.8717 9.96286 28.9183 9.86953 28.965L9.65953 29.105C9.51953 29.2217 9.29786 29.2567 8.99453 29.21C8.94787 29.21 8.91286 29.1983 8.88953 29.175C8.7962 29.1283 8.6912 29.0933 8.57453 29.07C8.45787 29.0467 8.3412 29.035 8.22453 29.035C8.0612 28.9883 7.89786 28.9183 7.73453 28.825C7.59453 28.7083 7.4662 28.5683 7.34953 28.405L7.27953 28.335C7.2562 28.265 7.20953 28.2183 7.13953 28.195C7.09287 28.195 7.05787 28.1833 7.03453 28.16C6.98786 28.1367 6.95286 28.1133 6.92953 28.09C6.9062 28.0433 6.8712 28.0083 6.82453 27.985L6.75453 27.88C6.7312 27.8333 6.70786 27.7983 6.68453 27.775C6.6612 27.7517 6.6262 27.7283 6.57953 27.705C6.4862 27.635 6.40453 27.565 6.33453 27.495C6.26453 27.4017 6.19453 27.3083 6.12453 27.215C5.9612 27.005 5.8212 26.7833 5.70453 26.55C5.58786 26.3167 5.4712 26.0833 5.35453 25.85L4.82953 24.625C4.75953 24.4383 4.68953 24.2517 4.61953 24.065C4.57286 23.855 4.51453 23.6567 4.44453 23.47L4.12953 22.385C4.08286 22.1983 4.0362 22.0233 3.98953 21.86C3.94286 21.6967 3.8962 21.5333 3.84953 21.37C3.80286 21.1833 3.74453 20.9967 3.67453 20.81C3.62786 20.6233 3.59286 20.4367 3.56953 20.25C3.56953 20.2033 3.55786 20.1683 3.53453 20.145L3.32453 19.375C3.32453 19.3283 3.31286 19.2933 3.28953 19.27C3.28953 19.2233 3.28953 19.1883 3.28953 19.165C3.2662 19.0483 3.24286 18.9317 3.21953 18.815C3.21953 18.675 3.1962 18.5467 3.14953 18.43C3.14953 18.36 3.1262 18.255 3.07953 18.115C3.07953 18.045 3.0562 17.94 3.00953 17.8C2.96286 17.5667 2.9162 17.3683 2.86953 17.205C2.8462 17.1583 2.83453 17.1233 2.83453 17.1C2.83453 17.0533 2.82286 17.0183 2.79953 16.995C2.7762 16.8783 2.75286 16.7617 2.72953 16.645C2.72953 16.5283 2.7062 16.4117 2.65953 16.295C2.6362 16.1783 2.61286 16.0733 2.58953 15.98C2.5662 15.8633 2.54286 15.7583 2.51953 15.665C2.4962 15.5483 2.47286 15.42 2.44953 15.28C2.4262 15.14 2.3912 15.0117 2.34453 14.895C2.29786 14.755 2.2512 14.6267 2.20453 14.51C2.1812 14.37 2.1462 14.23 2.09953 14.09C2.0762 14.02 2.05286 13.9617 2.02953 13.915C2.02953 13.845 2.02953 13.775 2.02953 13.705L1.88953 13.145C1.8662 13.0517 1.8312 12.9583 1.78453 12.865C1.7612 12.7717 1.74953 12.6783 1.74953 12.585L1.64453 12.13C1.59786 12.0367 1.57453 11.955 1.57453 11.885C1.57453 11.6983 1.53953 11.5 1.46953 11.29C1.4462 11.1267 1.42286 10.975 1.39953 10.835C1.3762 10.695 1.35286 10.5433 1.32953 10.38C1.32953 10.3333 1.31786 10.2867 1.29453 10.24C1.29453 10.17 1.29453 10.1117 1.29453 10.065C1.22453 9.855 1.18953 9.645 1.18953 9.435C1.18953 9.365 1.18953 9.295 1.18953 9.225C1.18953 9.155 1.17786 9.085 1.15453 9.015C1.1312 8.89833 1.11953 8.78167 1.11953 8.665C1.11953 8.525 1.10786 8.39667 1.08453 8.28C1.0612 8.23333 1.04953 8.175 1.04953 8.105C1.04953 8.05833 1.03786 8.01167 1.01453 7.965C1.01453 7.895 1.01453 7.83667 1.01453 7.79C0.991198 7.62667 0.967865 7.475 0.944531 7.335C0.944531 7.195 0.944531 7.055 0.944531 6.915C0.944531 6.845 0.944531 6.775 0.944531 6.705C0.944531 6.61167 0.956198 6.53 0.979531 6.46C1.00286 6.39 1.01453 6.32 1.01453 6.25C1.01453 6.15667 1.0262 6.075 1.04953 6.005V5.83C1.11953 5.62 1.21286 5.48 1.32953 5.41C1.39953 5.36333 1.46953 5.31666 1.53953 5.27C1.60953 5.2 1.66786 5.13 1.71453 5.06C1.71453 5.06 1.74953 5.025 1.81953 4.955C1.8662 4.93167 1.91286 4.90833 1.95953 4.885C2.0062 4.86167 2.05286 4.85 2.09953 4.85C2.1462 4.82666 2.16953 4.80333 2.16953 4.78C2.16953 4.73333 2.1812 4.69833 2.20453 4.675C2.27453 4.605 2.3562 4.57 2.44953 4.57H2.51953C2.58953 4.59333 2.65953 4.59333 2.72953 4.57C2.82286 4.52333 2.92786 4.5 3.04453 4.5C3.0912 4.5 3.18453 4.52333 3.32453 4.57C3.46453 4.61667 3.5462 4.64 3.56953 4.64C3.73286 4.66333 3.84953 4.75667 3.91953 4.92C3.94286 4.96667 3.97786 5.01333 4.02453 5.06C4.09453 5.08333 4.15286 5.13 4.19953 5.2C4.26953 5.27 4.32786 5.34 4.37453 5.41C4.4212 5.50333 4.4562 5.59667 4.47953 5.69C4.5262 5.76 4.5612 5.81833 4.58453 5.865C4.60786 5.91167 4.61953 5.95833 4.61953 6.005C4.61953 6.02833 4.6312 6.06333 4.65453 6.11C4.67786 6.39 4.7012 6.67 4.72453 6.95C4.7712 7.23 4.82953 7.51 4.89953 7.79L4.93453 8.035C4.9812 8.15167 5.0162 8.28 5.03953 8.42C5.06286 8.53667 5.07453 8.65333 5.07453 8.77C5.0512 8.93333 5.07453 9.10833 5.14453 9.295C5.14453 9.34167 5.14453 9.4 5.14453 9.47C5.16786 9.54 5.17953 9.61 5.17953 9.68V10.1C5.17953 10.24 5.1912 10.345 5.21453 10.415V10.52C5.23786 10.7067 5.2612 10.905 5.28453 11.115C5.3312 11.3017 5.3662 11.4883 5.38953 11.675C5.38953 11.7217 5.38953 11.78 5.38953 11.85C5.41286 11.8967 5.42453 11.9433 5.42453 11.99C5.42453 12.0833 5.42453 12.165 5.42453 12.235C5.44786 12.305 5.4712 12.3867 5.49453 12.48L5.59953 12.935C5.62286 13.005 5.63453 13.0983 5.63453 13.215C5.63453 13.285 5.63453 13.355 5.63453 13.425C5.65786 13.4717 5.6812 13.53 5.70453 13.6C5.8212 13.88 5.87953 14.1367 5.87953 14.37C5.90286 14.4633 5.9262 14.5683 5.94953 14.685C5.97286 14.8017 6.00786 14.9183 6.05453 15.035C6.1012 15.1517 6.1362 15.28 6.15953 15.42C6.18286 15.56 6.2062 15.6883 6.22953 15.805C6.22953 15.875 6.2412 15.9217 6.26453 15.945C6.3112 16.1083 6.3462 16.2717 6.36953 16.435C6.4162 16.575 6.46286 16.7267 6.50953 16.89L6.71953 17.765C6.7662 17.9517 6.81287 18.115 6.85953 18.255C6.9062 18.4183 6.9412 18.5817 6.96453 18.745C7.0112 18.9083 7.05787 19.0717 7.10453 19.235C7.10453 19.2583 7.10453 19.2933 7.10453 19.34C7.12787 19.3633 7.13953 19.3983 7.13953 19.445C7.16286 19.585 7.1862 19.725 7.20953 19.865C7.23286 19.9817 7.2562 20.0983 7.27953 20.215C7.30286 20.285 7.31453 20.355 7.31453 20.425C7.33787 20.4717 7.34953 20.53 7.34953 20.6C7.37287 20.67 7.38453 20.74 7.38453 20.81C7.40786 20.88 7.41953 20.95 7.41953 21.02C7.4662 21.16 7.5012 21.3 7.52453 21.44C7.5712 21.58 7.61787 21.7317 7.66453 21.895C7.7112 21.9883 7.73453 22.0933 7.73453 22.21C7.75786 22.3033 7.7812 22.4083 7.80453 22.525C7.82787 22.6183 7.8512 22.7233 7.87453 22.84C7.9212 22.9333 7.9562 23.0383 7.97953 23.155C8.00286 23.2483 8.0262 23.3417 8.04953 23.435C8.0962 23.5283 8.1312 23.6217 8.15453 23.715C8.2012 23.8783 8.25953 24.03 8.32953 24.17C8.39953 24.31 8.45787 24.4617 8.50453 24.625C8.50453 24.625 8.52786 24.6483 8.57453 24.695H8.64453C8.66786 24.695 8.67953 24.695 8.67953 24.695C8.67953 24.6717 8.67953 24.66 8.67953 24.66C8.81953 24.4733 8.9362 24.31 9.02953 24.17C9.1462 23.9833 9.2512 23.785 9.34453 23.575C9.43787 23.365 9.5312 23.155 9.62453 22.945C9.71787 22.735 9.79953 22.525 9.86953 22.315C9.96286 22.105 10.0445 21.895 10.1145 21.685C10.2312 21.265 10.3712 20.8917 10.5345 20.565C10.5812 20.5183 10.6045 20.46 10.6045 20.39C10.6279 20.32 10.6512 20.2617 10.6745 20.215L10.7795 19.9C10.8262 19.8067 10.8495 19.7367 10.8495 19.69C10.9195 19.5033 10.9895 19.3167 11.0595 19.13C11.1295 18.92 11.2112 18.7217 11.3045 18.535C11.3512 18.4183 11.3979 18.3017 11.4445 18.185C11.4912 18.0683 11.5262 17.9517 11.5495 17.835C11.5729 17.8117 11.5845 17.7767 11.5845 17.73C11.6079 17.6367 11.6312 17.555 11.6545 17.485C11.7012 17.415 11.7362 17.3333 11.7595 17.24L12.0745 16.47C12.0745 16.4467 12.0745 16.4233 12.0745 16.4C12.0979 16.3767 12.1095 16.3533 12.1095 16.33C12.1562 16.2833 12.1795 16.2483 12.1795 16.225C12.2029 16.1317 12.2262 16.05 12.2495 15.98C12.2962 15.91 12.3312 15.8283 12.3545 15.735C12.4012 15.6883 12.4245 15.63 12.4245 15.56L12.5295 15.315C12.5762 15.175 12.5995 15.0817 12.5995 15.035C12.6462 14.9183 12.6929 14.8017 12.7395 14.685C12.7862 14.5683 12.8329 14.4633 12.8795 14.37C12.9495 14.2533 13.0079 14.1367 13.0545 14.02C13.1012 13.9267 13.1362 13.845 13.1595 13.775C13.2062 13.705 13.2412 13.6233 13.2645 13.53V13.46C13.3345 13.4133 13.3812 13.355 13.4045 13.285C13.4279 13.1917 13.4512 13.11 13.4745 13.04L13.5445 12.935C13.5912 12.865 13.6379 12.7833 13.6845 12.69C13.7312 12.5967 13.7895 12.5033 13.8595 12.41C13.9062 12.27 13.9645 12.1417 14.0345 12.025C14.1279 11.885 14.2095 11.745 14.2795 11.605L14.3845 11.36C14.4079 11.3133 14.4312 11.2783 14.4545 11.255C14.5012 11.2083 14.5362 11.1733 14.5595 11.15L14.6645 11.01C14.8279 10.7067 15.0845 10.52 15.4345 10.45C15.4579 10.4267 15.5045 10.415 15.5745 10.415C15.7612 10.345 15.9712 10.3683 16.2045 10.485C16.3212 10.5317 16.4379 10.59 16.5545 10.66C16.6945 10.73 16.8229 10.8 16.9395 10.87C17.0562 10.94 17.1495 11.045 17.2195 11.185C17.2895 11.325 17.3595 11.465 17.4295 11.605C17.4995 11.7217 17.5462 11.8617 17.5695 12.025C17.6162 12.2117 17.6395 12.375 17.6395 12.515V12.725C17.6862 12.865 17.7095 12.9933 17.7095 13.11C17.7329 13.1567 17.7445 13.2033 17.7445 13.25C17.7445 13.2733 17.7562 13.3083 17.7795 13.355C17.8029 13.4483 17.8379 13.5533 17.8845 13.67C17.9312 13.7633 17.9662 13.8683 17.9895 13.985L18.1995 14.685C18.2462 14.7783 18.2929 14.8833 18.3395 15C18.3862 15.1167 18.4212 15.2333 18.4445 15.35L18.5495 15.77C18.6429 16.0733 18.7362 16.365 18.8295 16.645C18.9229 16.925 19.0045 17.2167 19.0745 17.52L19.2845 18.675C19.3079 18.8617 19.3312 19.06 19.3545 19.27C19.3779 19.4567 19.4129 19.6433 19.4595 19.83C19.4595 19.8533 19.4595 19.8767 19.4595 19.9C19.4829 19.9233 19.4945 19.9583 19.4945 20.005C19.4945 20.0983 19.4945 20.215 19.4945 20.355C19.5179 20.4717 19.5412 20.5883 19.5645 20.705V20.845C19.6345 21.055 19.6695 21.2883 19.6695 21.545C19.6929 21.5917 19.7045 21.65 19.7045 21.72C19.7045 21.7667 19.7162 21.8133 19.7395 21.86C19.7629 21.93 19.7745 22 19.7745 22.07C19.7979 22.1167 19.8212 22.1633 19.8445 22.21C19.8679 22.28 19.8679 22.35 19.8445 22.42C19.8212 22.4667 19.8212 22.5133 19.8445 22.56C19.8679 22.6067 19.8795 22.665 19.8795 22.735C19.8795 22.7817 19.8912 22.8283 19.9145 22.875C19.9145 22.875 19.9145 22.8867 19.9145 22.91C19.9145 22.91 19.9262 22.8983 19.9495 22.875H19.9845C20.0079 22.805 20.0312 22.7467 20.0545 22.7C20.0779 22.63 20.1012 22.5717 20.1245 22.525C20.1712 22.385 20.2179 22.245 20.2645 22.105C20.3112 21.965 20.3579 21.825 20.4045 21.685C20.5212 21.3583 20.6262 21.0317 20.7195 20.705C20.8129 20.355 20.9062 20.005 20.9995 19.655L21.1045 19.34C21.1512 19.2233 21.1862 19.1183 21.2095 19.025C21.2562 18.9083 21.2912 18.7917 21.3145 18.675L21.4895 18.185C21.5362 18.045 21.5829 17.905 21.6295 17.765C21.6762 17.625 21.7112 17.4967 21.7345 17.38C21.7579 17.2867 21.7812 17.205 21.8045 17.135C21.8279 17.065 21.8512 16.9833 21.8745 16.89C21.9212 16.75 21.9679 16.6567 22.0145 16.61C22.0145 16.5633 22.0145 16.5283 22.0145 16.505C22.0379 16.4817 22.0495 16.4583 22.0495 16.435C22.1429 16.295 22.2129 16.155 22.2595 16.015C22.3062 15.8517 22.3412 15.7 22.3645 15.56C22.4112 15.4667 22.4462 15.3733 22.4695 15.28C22.4929 15.1867 22.5162 15.105 22.5395 15.035L22.6445 14.72C22.6445 14.58 22.6795 14.44 22.7495 14.3C22.7962 14.2067 22.8312 14.1017 22.8545 13.985C22.9012 13.8683 22.9362 13.7633 22.9595 13.67C22.9595 13.6 22.9712 13.5533 22.9945 13.53C23.0645 13.32 23.1345 13.11 23.2045 12.9C23.2745 12.6667 23.3562 12.445 23.4495 12.235C23.4495 12.1883 23.4495 12.1533 23.4495 12.13C23.4729 12.1067 23.4845 12.0833 23.4845 12.06C23.5779 11.8267 23.6595 11.5817 23.7295 11.325L23.8345 11.01C23.8812 10.8467 23.9279 10.695 23.9745 10.555C24.0212 10.415 24.0679 10.2633 24.1145 10.1C24.1379 10.0533 24.1495 10.0067 24.1495 9.96C24.1495 9.91333 24.1612 9.87833 24.1845 9.855C24.2779 9.59833 24.3595 9.33 24.4295 9.05C24.4995 8.77 24.5695 8.50167 24.6395 8.245C24.7095 8.01166 24.7795 7.79 24.8495 7.58C24.9195 7.34667 24.9779 7.11333 25.0245 6.88C25.0245 6.83333 25.0245 6.78667 25.0245 6.74C25.0479 6.67 25.0712 6.6 25.0945 6.53C25.1179 6.41333 25.1412 6.29667 25.1645 6.18C25.1879 6.06333 25.2112 5.94667 25.2345 5.83C25.2812 5.71333 25.3045 5.60833 25.3045 5.515C25.3045 5.42167 25.3162 5.32833 25.3395 5.235C25.3629 5.18833 25.3629 5.15333 25.3395 5.13C25.3395 5.10667 25.3512 5.08333 25.3745 5.06C25.4212 4.94333 25.4445 4.82667 25.4445 4.71C25.4679 4.57 25.4912 4.44167 25.5145 4.325C25.5379 4.13833 25.5612 3.96333 25.5845 3.8C25.6312 3.61333 25.6662 3.43833 25.6895 3.275V2.26C25.6895 1.93333 25.7945 1.63 26.0045 1.35C26.0512 1.28 26.1095 1.19833 26.1795 1.105C26.2495 1.01166 26.3079 0.918331 26.3545 0.824998C26.3779 0.778332 26.4362 0.708332 26.5295 0.614998C26.5995 0.544999 26.7045 0.463333 26.8445 0.369999C27.0079 0.253333 27.2062 0.171666 27.4395 0.124998C27.5562 0.101665 27.7195 0.113332 27.9295 0.159998C28.1629 0.183332 28.3379 0.241666 28.4545 0.334998C28.5245 0.381665 28.6179 0.463332 28.7345 0.579999C28.9912 0.883332 29.1545 1.21 29.2245 1.56C29.2245 1.67667 29.2129 1.77 29.1895 1.84L29.0845 2.085C29.0845 2.155 29.0962 2.20167 29.1195 2.225C29.1662 2.31833 29.1895 2.37667 29.1895 2.4C29.1895 2.47 29.2245 2.505 29.2945 2.505C29.3645 2.575 29.3995 2.65667 29.3995 2.75C29.3995 2.77333 29.3879 2.79667 29.3645 2.82C29.3645 2.84333 29.3645 2.87833 29.3645 2.925C29.3412 2.94833 29.3295 2.97167 29.3295 2.995C29.3295 3.01833 29.3179 3.04166 29.2945 3.065C29.2712 3.135 29.2595 3.24 29.2595 3.38C29.3062 3.45 29.3062 3.52 29.2595 3.59C29.2129 3.73 29.1662 3.84667 29.1195 3.94L29.0145 4.15C28.9679 4.26667 28.9212 4.395 28.8745 4.535C28.8512 4.62833 28.8395 4.71 28.8395 4.78C28.8395 4.85 28.8279 4.92 28.8045 4.99C28.7812 5.01333 28.7695 5.06 28.7695 5.13C28.8162 5.24667 28.8045 5.35167 28.7345 5.445C28.7345 5.56167 28.7229 5.67833 28.6995 5.795C28.6762 5.91166 28.6529 6.02833 28.6295 6.145C28.6295 6.30833 28.6179 6.47167 28.5945 6.635C28.5712 6.775 28.5479 6.92667 28.5245 7.09C28.5245 7.11333 28.5129 7.13667 28.4895 7.16C28.4895 7.16 28.4895 7.17167 28.4895 7.195C28.4429 7.35833 28.4079 7.52167 28.3845 7.685C28.3612 7.84833 28.3379 8.01166 28.3145 8.175C28.3145 8.22167 28.3029 8.25667 28.2795 8.28C28.2562 8.35 28.2445 8.42 28.2445 8.49C28.2445 8.56 28.2445 8.63 28.2445 8.7C28.2445 8.74667 28.2329 8.79333 28.2095 8.84C28.1862 8.91 28.1629 8.98 28.1395 9.05C28.1162 9.12 28.1045 9.20167 28.1045 9.295C28.1045 9.34167 28.0929 9.37667 28.0695 9.4C28.0462 9.44667 28.0229 9.505 27.9995 9.575C27.9762 9.62167 27.9645 9.66833 27.9645 9.715C27.9645 9.73833 27.9412 9.79667 27.8945 9.89C27.8012 9.91333 27.7545 9.98333 27.7545 10.1C27.7312 10.17 27.6962 10.2517 27.6495 10.345C27.6262 10.415 27.6262 10.4967 27.6495 10.59C27.6495 10.6833 27.6379 10.7417 27.6145 10.765C27.5212 10.9283 27.4745 11.115 27.4745 11.325C27.4745 11.395 27.4629 11.465 27.4395 11.535C27.4395 11.5817 27.4395 11.6283 27.4395 11.675C27.4162 11.6983 27.4045 11.7333 27.4045 11.78C27.4045 11.8033 27.3812 11.8383 27.3345 11.885C27.2879 11.955 27.2529 12.0367 27.2295 12.13C27.2062 12.2233 27.1712 12.3167 27.1245 12.41C27.1012 12.4333 27.0895 12.4683 27.0895 12.515C27.1362 12.6783 27.1012 12.8183 26.9845 12.935L26.8795 13.145C26.8095 13.215 26.7512 13.3083 26.7045 13.425C26.6345 13.5183 26.5995 13.6233 26.5995 13.74C26.5995 13.7867 26.5879 13.8217 26.5645 13.845C26.5645 14.0083 26.5179 14.1483 26.4245 14.265C26.3779 14.3117 26.3779 14.37 26.4245 14.44C26.4245 14.44 26.4245 14.4633 26.4245 14.51C26.3312 14.5567 26.2845 14.6033 26.2845 14.65C26.2612 14.72 26.2379 14.79 26.2145 14.86C26.2145 14.9067 26.2145 14.965 26.2145 15.035V15.14C26.2612 15.21 26.2612 15.2917 26.2145 15.385C26.1912 15.4083 26.1795 15.4433 26.1795 15.49C26.1795 15.56 26.1562 15.6417 26.1095 15.735C26.0862 15.7583 26.0745 15.8167 26.0745 15.91C26.0512 15.98 26.0395 16.05 26.0395 16.12C26.0395 16.19 26.0395 16.26 26.0395 16.33C25.9929 16.47 25.9462 16.5633 25.8995 16.61C25.8062 16.6567 25.7595 16.715 25.7595 16.785C25.7129 16.8317 25.6895 16.8783 25.6895 16.925C25.6195 17.0183 25.5845 17.135 25.5845 17.275C25.5845 17.3683 25.5612 17.4383 25.5145 17.485C25.4912 17.555 25.4562 17.625 25.4095 17.695C25.3862 17.765 25.3745 17.835 25.3745 17.905C25.3512 17.975 25.3395 18.0567 25.3395 18.15C25.2929 18.29 25.2462 18.4067 25.1995 18.5C25.0829 18.6633 25.0012 18.8617 24.9545 19.095C24.9312 19.1883 24.9079 19.2933 24.8845 19.41C24.8612 19.5267 24.8262 19.6433 24.7795 19.76C24.7562 19.8533 24.7212 19.9583 24.6745 20.075C24.6512 20.1917 24.6279 20.3083 24.6045 20.425C24.5812 20.5183 24.5579 20.6117 24.5345 20.705C24.5345 20.775 24.5112 20.8567 24.4645 20.95C24.4645 20.9733 24.4529 20.9967 24.4295 21.02C24.4295 21.02 24.4295 21.0433 24.4295 21.09C24.4295 21.1833 24.4062 21.2767 24.3595 21.37C24.3362 21.4633 24.3129 21.5567 24.2895 21.65C24.2662 21.7667 24.2312 21.895 24.1845 22.035C24.1612 22.175 24.1495 22.3033 24.1495 22.42C24.1495 22.49 24.1379 22.56 24.1145 22.63C24.1145 22.6767 24.1029 22.735 24.0795 22.805C24.0095 22.945 23.9745 23.085 23.9745 23.225L23.9045 23.505C23.8812 23.575 23.8579 23.6567 23.8345 23.75C23.8112 23.82 23.7879 23.89 23.7645 23.96C23.7179 24.1933 23.6712 24.3917 23.6245 24.555C23.6012 24.6483 23.5779 24.7417 23.5545 24.835C23.5312 24.9283 23.5079 25.0333 23.4845 25.15C23.4612 25.29 23.4262 25.43 23.3795 25.57C23.3329 25.71 23.2862 25.85 23.2395 25.99C23.2162 26.0133 23.2045 26.0483 23.2045 26.095C23.2045 26.1417 23.1929 26.1883 23.1695 26.235L23.0645 26.62C22.9479 26.8067 22.8779 26.9933 22.8545 27.18C22.8079 27.2733 22.7845 27.355 22.7845 27.425C22.7612 27.4483 22.7495 27.4717 22.7495 27.495C22.7495 27.5183 22.7379 27.5417 22.7145 27.565C22.6679 27.8217 22.5979 28.055 22.5045 28.265C22.4345 28.4283 22.3645 28.5917 22.2945 28.755C22.2245 28.9183 22.1429 29.0817 22.0495 29.245C22.0029 29.3383 21.9679 29.3967 21.9445 29.42C21.8279 29.5833 21.7112 29.77 21.5945 29.98L21.4895 30.225C21.4429 30.2483 21.3962 30.3067 21.3495 30.4C21.2329 30.54 21.1395 30.6917 21.0695 30.855C21.0229 31.0183 20.9762 31.1933 20.9295 31.38C20.9295 31.4267 20.9179 31.4617 20.8945 31.485C20.8945 31.5317 20.8945 31.5783 20.8945 31.625C20.8945 31.7183 20.8945 31.8 20.8945 31.87C20.8945 31.9633 20.8829 32.0567 20.8595 32.15C20.8595 32.1733 20.8479 32.2083 20.8245 32.255C20.8245 32.325 20.8245 32.3833 20.8245 32.43C20.8245 32.5933 20.8245 32.745 20.8245 32.885C20.8245 33.0483 20.8129 33.2117 20.7895 33.375V33.48C20.7895 33.5733 20.7779 33.6667 20.7545 33.76C20.7545 33.8767 20.7429 33.9933 20.7195 34.11C20.7195 34.18 20.7079 34.25 20.6845 34.32C20.6845 34.39 20.6845 34.46 20.6845 34.53C20.6612 34.6 20.6495 34.67 20.6495 34.74C20.6495 34.81 20.6379 34.88 20.6145 34.95V35.09C20.6145 35.37 20.5562 35.6617 20.4395 35.965L20.3345 36.21C20.2645 36.3733 20.1245 36.4667 19.9145 36.49C19.7045 36.5367 19.5412 36.49 19.4245 36.35ZM45.2409 31.555C45.0309 31.555 44.8442 31.4733 44.6809 31.31C44.6342 31.24 44.5875 31.17 44.5409 31.1C44.4942 31.03 44.4475 30.96 44.4009 30.89C44.1909 30.4 44.0859 29.8867 44.0859 29.35L43.9809 28.51C43.9109 28.1833 43.8525 27.8567 43.8059 27.53C43.7592 27.2033 43.6775 26.8883 43.5609 26.585L43.3509 25.99C43.3509 25.9433 43.3392 25.8967 43.3159 25.85C43.3159 25.8033 43.3042 25.7567 43.2809 25.71L42.7559 23.855C42.7325 23.8083 42.7092 23.75 42.6859 23.68C42.6859 23.61 42.6625 23.5517 42.6159 23.505C42.5459 23.365 42.4875 23.225 42.4409 23.085C42.4175 22.9217 42.3825 22.7583 42.3359 22.595C42.3125 22.4783 42.2892 22.3733 42.2659 22.28C42.2425 22.1633 42.2075 22.0467 42.1609 21.93C42.1142 21.79 42.0675 21.7083 42.0209 21.685C41.9742 21.6383 41.8692 21.6383 41.7059 21.685C41.5892 21.7083 41.4609 21.7317 41.3209 21.755C41.2042 21.755 41.0875 21.7783 40.9709 21.825C40.8775 21.8483 40.7609 21.8717 40.6209 21.895C40.5042 21.895 40.3875 21.9067 40.2709 21.93L39.7809 22.035C39.6642 22.0583 39.5359 22.0933 39.3959 22.14C39.2792 22.1633 39.1625 22.175 39.0459 22.175L38.4159 22.28C38.2292 22.3267 38.0309 22.3733 37.8209 22.42C37.6109 22.4667 37.4125 22.5133 37.2259 22.56C36.6659 22.7 36.1059 22.805 35.5459 22.875C35.3592 22.9217 35.2542 23.0033 35.2309 23.12C35.2075 23.12 35.1959 23.1317 35.1959 23.155C35.0559 23.5283 34.8925 23.9017 34.7059 24.275C34.5425 24.625 34.3675 24.9867 34.1809 25.36C34.1342 25.4533 34.0875 25.5467 34.0409 25.64C34.0175 25.71 33.9825 25.7917 33.9359 25.885C33.9125 25.9317 33.8892 25.99 33.8659 26.06C33.8425 26.1067 33.8192 26.1533 33.7959 26.2C33.6559 26.3633 33.5859 26.5617 33.5859 26.795C33.5625 26.935 33.5159 27.075 33.4459 27.215C33.3759 27.3317 33.3059 27.4483 33.2359 27.565C33.2125 27.635 33.1659 27.67 33.0959 27.67C33.0025 27.6933 32.9092 27.7283 32.8159 27.775C32.7225 27.8217 32.6175 27.8683 32.5009 27.915C32.4309 27.9383 32.3609 27.9383 32.2909 27.915C32.2442 27.8917 32.1859 27.8683 32.1159 27.845C32.0692 27.7983 32.0225 27.775 31.9759 27.775C31.7192 27.7517 31.5325 27.6 31.4159 27.32C31.2292 26.9467 31.1009 26.5733 31.0309 26.2C31.0075 26.1067 31.0075 26.025 31.0309 25.955C31.0775 25.885 31.1125 25.815 31.1359 25.745C31.2759 25.6517 31.3575 25.5467 31.3809 25.43V25.395C31.3809 25.0917 31.4392 24.8117 31.5559 24.555C31.6959 24.275 31.8125 24.0067 31.9059 23.75C31.9525 23.61 32.0109 23.47 32.0809 23.33C32.1509 23.19 32.2209 23.05 32.2909 22.91C32.3842 22.7467 32.4542 22.595 32.5009 22.455C32.5709 22.2917 32.6292 22.1283 32.6759 21.965C32.7459 21.7783 32.7459 21.6033 32.6759 21.44C32.6292 21.3 32.6059 21.1717 32.6059 21.055C32.6059 20.915 32.6175 20.775 32.6409 20.635C32.6409 20.3783 32.7342 20.1567 32.9209 19.97C33.0142 19.8533 33.1075 19.76 33.2009 19.69C33.3175 19.5967 33.4225 19.5033 33.5159 19.41C33.7259 19.2 33.8892 18.92 34.0059 18.57C34.0992 18.2667 34.1692 17.9633 34.2159 17.66C34.2859 17.3333 34.3559 17.0183 34.4259 16.715C34.4725 16.4117 34.5192 16.12 34.5659 15.84C34.6359 15.5367 34.7059 15.245 34.7759 14.965C34.7992 14.8483 34.8225 14.7433 34.8459 14.65C34.8925 14.5333 34.9275 14.4283 34.9509 14.335C35.0209 14.1483 35.0909 13.9733 35.1609 13.81C35.2309 13.6233 35.2775 13.4367 35.3009 13.25C35.3475 13.1567 35.3475 13.075 35.3009 13.005C35.2775 12.8883 35.2775 12.7833 35.3009 12.69C35.3475 12.5967 35.3825 12.5033 35.4059 12.41C35.4759 12.2467 35.5225 12.0833 35.5459 11.92C35.5925 11.7567 35.6509 11.5933 35.7209 11.43C35.8375 11.1267 35.9309 10.8817 36.0009 10.695C36.0942 10.485 36.1759 10.2517 36.2459 9.995C36.2925 9.855 36.3392 9.72667 36.3859 9.61C36.4559 9.47 36.5025 9.33 36.5259 9.19C36.5959 8.98 36.6542 8.77 36.7009 8.56C36.7475 8.32667 36.7709 8.105 36.7709 7.895C36.8175 7.70833 36.8642 7.58 36.9109 7.51C37.0275 7.27667 37.1675 7.07833 37.3309 6.915C37.5175 6.75167 37.6925 6.58833 37.8559 6.425C37.9725 6.355 38.0892 6.30833 38.2059 6.285C38.3225 6.23833 38.4392 6.25 38.5559 6.32C38.6492 6.36667 38.7075 6.39 38.7309 6.39C38.9409 6.36667 39.1159 6.41333 39.2559 6.53C39.3959 6.64667 39.5125 6.78667 39.6059 6.95C39.6525 6.99667 39.6875 7.055 39.7109 7.125C39.7342 7.195 39.7575 7.25333 39.7809 7.3C39.8975 7.48667 39.9559 7.67333 39.9559 7.86C39.9559 7.95333 39.9675 8.05833 39.9909 8.175C40.0142 8.26833 40.0375 8.37333 40.0609 8.49C40.1309 8.63 40.2359 8.7 40.3759 8.7C40.3992 8.67667 40.4225 8.67667 40.4459 8.7C40.4692 8.72333 40.4809 8.74667 40.4809 8.77C40.5975 8.91 40.6325 9.06167 40.5859 9.225C40.5392 9.41167 40.5275 9.59833 40.5509 9.785C40.5975 9.94833 40.6442 10.1233 40.6909 10.31C40.7842 10.5433 40.8775 10.7767 40.9709 11.01C41.0642 11.2433 41.1575 11.4767 41.2509 11.71C41.3675 11.9667 41.4842 12.2233 41.6009 12.48C41.7175 12.7367 41.8225 12.9933 41.9159 13.25C42.0325 13.5767 42.1492 13.9033 42.2659 14.23C42.4059 14.5567 42.5575 14.8833 42.7209 15.21L42.8259 15.595C42.8492 15.6883 42.8725 15.7817 42.8959 15.875C42.9425 15.9683 42.9775 16.0617 43.0009 16.155C43.0475 16.225 43.0825 16.295 43.1059 16.365C43.1525 16.435 43.1992 16.4933 43.2459 16.54C43.3625 16.7033 43.4325 16.8783 43.4559 17.065C43.5259 17.2983 43.6309 17.5083 43.7709 17.695C43.8175 17.765 43.8875 17.8 43.9809 17.8C44.3309 17.7533 44.6809 17.7183 45.0309 17.695C45.3809 17.6483 45.7309 17.5783 46.0809 17.485C46.3375 17.415 46.5825 17.38 46.8159 17.38C47.2592 17.38 47.6675 17.5317 48.0409 17.835C48.4842 18.185 48.7175 18.6283 48.7409 19.165C48.7409 19.2817 48.7525 19.375 48.7759 19.445C48.7759 19.6083 48.7292 19.7367 48.6359 19.83C48.6125 19.9 48.5659 19.97 48.4959 20.04C48.4492 20.11 48.4025 20.18 48.3559 20.25C48.3092 20.3433 48.2625 20.4133 48.2159 20.46L48.0059 20.635C47.9825 20.6817 47.9475 20.74 47.9009 20.81C47.8542 20.8567 47.7959 20.8917 47.7259 20.915C47.6325 20.9383 47.5392 20.9733 47.4459 21.02C47.3525 21.0433 47.2475 21.055 47.1309 21.055C46.7109 21.1017 46.3375 21.09 46.0109 21.02H45.4509C45.4042 21.02 45.3342 21.0433 45.2409 21.09C45.1475 21.1367 45.1009 21.195 45.1009 21.265V21.405C45.1709 21.615 45.2175 21.8367 45.2409 22.07C45.2875 22.28 45.3575 22.4783 45.4509 22.665C45.4509 22.7583 45.4742 22.8517 45.5209 22.945C45.6375 23.155 45.7309 23.3767 45.8009 23.61C45.8709 23.82 45.9292 24.0417 45.9759 24.275C45.9759 24.3217 45.9992 24.415 46.0459 24.555C46.1159 24.7183 46.1742 24.8933 46.2209 25.08C46.2675 25.2433 46.3025 25.4183 46.3259 25.605C46.3259 25.745 46.3609 25.8733 46.4309 25.99C46.5242 26.2 46.5942 26.41 46.6409 26.62C46.6875 26.83 46.7225 27.0517 46.7459 27.285C46.7692 27.3083 46.7809 27.355 46.7809 27.425C46.7809 27.4717 46.7925 27.5183 46.8159 27.565C46.9325 27.8217 47.0142 28.1017 47.0609 28.405C47.1075 28.685 47.1659 28.965 47.2359 29.245C47.2825 29.385 47.3059 29.525 47.3059 29.665C47.3292 29.8283 47.3409 29.9917 47.3409 30.155C47.3409 30.2717 47.3059 30.4 47.2359 30.54C47.1659 30.61 47.1309 30.645 47.1309 30.645C46.9909 30.6683 46.9092 30.75 46.8859 30.89L46.7809 31.1C46.7342 31.1933 46.6642 31.2517 46.5709 31.275C46.4775 31.275 46.3959 31.31 46.3259 31.38C46.2325 31.4733 46.1042 31.52 45.9409 31.52C45.8475 31.52 45.7309 31.52 45.5909 31.52C45.4742 31.52 45.3575 31.5317 45.2409 31.555ZM36.8059 18.85C36.9459 18.8267 37.0859 18.8033 37.2259 18.78C37.3892 18.7567 37.5642 18.7333 37.7509 18.71C37.8675 18.6867 38.0192 18.6633 38.2059 18.64C38.3925 18.6167 38.5675 18.5933 38.7309 18.57C38.8942 18.5233 39.0575 18.5 39.2209 18.5C39.3842 18.4767 39.5475 18.4533 39.7109 18.43C39.8509 18.3833 39.9909 18.36 40.1309 18.36C40.2709 18.3367 40.4109 18.3133 40.5509 18.29C40.7609 18.2433 40.8425 18.1267 40.7959 17.94C40.7725 17.7533 40.7259 17.5667 40.6559 17.38C40.6092 17.17 40.5042 16.995 40.3409 16.855C40.2942 16.8083 40.2709 16.7383 40.2709 16.645V16.54C40.2242 16.3533 40.1659 16.1783 40.0959 16.015C40.0492 15.8283 39.9909 15.6533 39.9209 15.49C39.8742 15.3033 39.8159 15.14 39.7459 15C39.6992 14.8367 39.6409 14.6733 39.5709 14.51L39.1509 13.25C39.0809 13.0867 39.0109 12.9233 38.9409 12.76C38.8942 12.5967 38.8475 12.4333 38.8009 12.27L38.6959 12.13H38.5909L38.5209 12.235C38.4042 12.585 38.2642 12.935 38.1009 13.285C37.9609 13.635 37.8325 14.0083 37.7159 14.405C37.7159 14.4517 37.7042 14.51 37.6809 14.58C37.6575 14.65 37.6342 14.72 37.6109 14.79C37.5175 15.0233 37.4242 15.28 37.3309 15.56C37.2609 15.84 37.2025 16.12 37.1559 16.4C37.1325 16.5633 37.1092 16.7267 37.0859 16.89C37.0625 17.03 37.0275 17.1817 36.9809 17.345L36.6659 18.71C36.6425 18.7333 36.6542 18.7683 36.7009 18.815C36.7475 18.8383 36.7825 18.85 36.8059 18.85ZM54.2329 29.105C54.0462 29.175 53.8362 29.1517 53.6029 29.035L52.9029 28.72C52.7862 28.6733 52.6929 28.5683 52.6229 28.405L52.5179 28.195C52.4712 28.0783 52.4129 27.9967 52.3429 27.95C52.2262 27.8567 52.1445 27.6933 52.0979 27.46C52.0512 27.2267 52.0162 26.9933 51.9929 26.76C51.9695 26.5267 51.9462 26.2933 51.9229 26.06C51.8995 25.8733 51.8879 25.6867 51.8879 25.5C51.8879 25.3133 51.8879 25.1383 51.8879 24.975L51.9229 24.73C51.9695 24.6133 51.9929 24.4967 51.9929 24.38C51.9929 24.2633 51.9929 24.1583 51.9929 24.065V17.695C52.0395 17.3683 52.0629 17.0417 52.0629 16.715C52.0629 16.365 52.0629 16.0267 52.0629 15.7C52.0862 15.3733 52.0979 15.0583 52.0979 14.755C52.0979 14.4283 52.0745 14.1133 52.0279 13.81C52.0045 13.6933 51.9929 13.565 51.9929 13.425C51.9929 13.285 51.9929 13.145 51.9929 13.005C51.9929 12.795 51.9929 12.585 51.9929 12.375C51.9929 12.165 51.9695 11.955 51.9229 11.745V11.64C51.9229 11.3133 51.8995 10.9983 51.8529 10.695C51.8295 10.3683 51.8062 10.0533 51.7829 9.75C51.7595 9.56333 51.7362 9.38833 51.7129 9.225C51.6895 9.06167 51.6545 8.89833 51.6079 8.735C51.5845 8.64167 51.5729 8.54833 51.5729 8.455C51.5729 8.36167 51.5729 8.26833 51.5729 8.175C51.5729 8.01166 51.5962 7.86 51.6429 7.72C51.6895 7.55667 51.7362 7.405 51.7829 7.265C51.8062 7.21833 51.8645 7.14833 51.9579 7.055C52.0045 7.00833 52.0512 6.97333 52.0979 6.95C52.1445 6.92667 52.1795 6.90333 52.2029 6.88C52.3429 6.69333 52.5295 6.61166 52.7629 6.635C52.8095 6.65833 52.8795 6.64667 52.9729 6.6C53.0895 6.50666 53.1945 6.495 53.2879 6.565C53.3579 6.61166 53.4745 6.61166 53.6379 6.565C53.7079 6.565 53.7662 6.58833 53.8129 6.635C53.8829 6.72833 53.9762 6.79833 54.0929 6.845C54.2095 6.89167 54.2912 6.96167 54.3379 7.055C54.4079 7.125 54.4779 7.195 54.5479 7.265C54.5945 7.335 54.6412 7.405 54.6879 7.475C54.7579 7.52167 54.7929 7.59167 54.7929 7.685C54.8162 7.77833 54.8162 7.87167 54.7929 7.965C54.7929 8.035 54.7929 8.11667 54.7929 8.21C54.7929 8.42 54.8045 8.64167 54.8279 8.875C54.8745 9.085 54.9095 9.295 54.9329 9.505C54.9795 9.73833 55.0145 9.98333 55.0379 10.24C55.0612 10.4733 55.0845 10.7183 55.1079 10.975V11.325C55.1545 11.4883 55.1779 11.6517 55.1779 11.815C55.1779 11.9783 55.1895 12.1417 55.2129 12.305V12.34C55.2362 12.62 55.2595 12.9 55.2829 13.18C55.3062 13.46 55.3295 13.74 55.3529 14.02C55.3762 14.1367 55.3879 14.265 55.3879 14.405C55.3879 14.5217 55.3879 14.6383 55.3879 14.755V24.065C55.3879 24.275 55.3995 24.485 55.4229 24.695C55.4695 24.905 55.5045 25.1033 55.5279 25.29C55.5279 25.4067 55.5979 25.465 55.7379 25.465C55.9479 25.5117 56.1462 25.5117 56.3329 25.465C56.5895 25.4183 56.8345 25.395 57.0679 25.395C57.3245 25.395 57.5812 25.395 57.8379 25.395C58.0945 25.395 58.3395 25.395 58.5729 25.395C58.8295 25.3717 59.0745 25.3483 59.3079 25.325H59.6929C59.8795 25.3483 60.0429 25.3717 60.1829 25.395C60.3462 25.395 60.5095 25.395 60.6729 25.395C60.9295 25.395 61.1862 25.4067 61.4429 25.43C61.7229 25.43 61.9912 25.4417 62.2479 25.465C62.4345 25.4883 62.6212 25.5 62.8079 25.5C63.0179 25.5 63.2279 25.5 63.4379 25.5H63.6129C64.0795 25.4767 64.4995 25.5933 64.8729 25.85C65.0362 25.92 65.1529 26.0367 65.2229 26.2C65.2695 26.2933 65.3045 26.3867 65.3279 26.48C65.3745 26.55 65.4095 26.6433 65.4329 26.76C65.4562 26.8533 65.4679 26.9467 65.4679 27.04C65.4912 27.11 65.5145 27.1917 65.5379 27.285C65.6079 27.495 65.5845 27.7283 65.4679 27.985C65.4445 28.055 65.4212 28.125 65.3979 28.195C65.3745 28.265 65.3395 28.335 65.2929 28.405C65.2462 28.475 65.1879 28.5333 65.1179 28.58C65.1179 28.58 65.0712 28.6033 64.9779 28.65C64.7912 28.8133 64.5812 28.9183 64.3479 28.965C64.1379 29.0117 63.9045 29.0583 63.6479 29.105L63.2979 29.07C62.9479 28.9533 62.5979 28.8833 62.2479 28.86C62.1545 28.8367 62.0495 28.825 61.9329 28.825C61.8162 28.8017 61.6995 28.79 61.5829 28.79C61.4195 28.79 61.2562 28.79 61.0929 28.79C60.9295 28.7667 60.7545 28.7433 60.5679 28.72L60.2179 28.685C60.0079 28.7083 59.7979 28.72 59.5879 28.72C59.3779 28.6967 59.1679 28.6967 58.9579 28.72C58.8645 28.72 58.7712 28.72 58.6779 28.72C58.5845 28.6967 58.4912 28.685 58.3979 28.685C58.2112 28.685 58.0245 28.685 57.8379 28.685C57.6745 28.685 57.4995 28.7083 57.3129 28.755C57.2195 28.7783 57.1029 28.8017 56.9629 28.825C56.8462 28.825 56.7295 28.825 56.6129 28.825C56.2629 28.8483 55.9129 28.8833 55.5629 28.93C55.2129 28.9533 54.8745 29 54.5479 29.07C54.4779 29.0933 54.3729 29.105 54.2329 29.105ZM70.4436 29.595C70.3036 29.595 70.1753 29.5483 70.0586 29.455C69.9886 29.385 69.9069 29.3267 69.8136 29.28C69.7203 29.2333 69.6386 29.175 69.5686 29.105C69.4986 29.0583 69.4286 29.0117 69.3586 28.965C69.3119 28.895 69.2653 28.8367 69.2186 28.79C69.1253 28.65 69.0436 28.51 68.9736 28.37C68.9269 28.2067 68.9153 28.0433 68.9386 27.88C68.9853 27.6233 69.0086 27.3783 69.0086 27.145C69.0319 26.8883 69.0553 26.6433 69.0786 26.41C69.1019 26.2933 69.1136 26.1767 69.1136 26.06C69.1369 25.92 69.1486 25.7917 69.1486 25.675C69.1486 25.395 69.1486 25.115 69.1486 24.835C69.1719 24.555 69.2069 24.275 69.2536 23.995V23.925C69.2769 23.2017 69.3003 22.49 69.3236 21.79C69.3703 21.0667 69.3936 20.3433 69.3936 19.62C69.3703 19.0833 69.3586 18.5467 69.3586 18.01C69.3586 17.4733 69.3586 16.9483 69.3586 16.435C69.3586 16.1783 69.3586 15.9333 69.3586 15.7C69.3819 15.4667 69.3703 15.2333 69.3236 15C69.3003 14.6033 69.2769 14.2183 69.2536 13.845C69.2536 13.4717 69.2536 13.0983 69.2536 12.725C69.2536 12.655 69.2419 12.585 69.2186 12.515C69.2186 12.445 69.2186 12.375 69.2186 12.305C69.1953 12.2117 69.1836 12.1183 69.1836 12.025C69.1836 11.9083 69.1719 11.8033 69.1486 11.71C69.1486 11.5933 69.1369 11.4767 69.1136 11.36C69.1136 11.2433 69.1019 11.1383 69.0786 11.045V10.8C69.0553 10.5433 69.0319 10.31 69.0086 10.1C68.9853 9.86667 68.9503 9.63333 68.9036 9.4C68.8803 9.21333 68.8569 9.015 68.8336 8.805C68.8336 8.595 68.8336 8.385 68.8336 8.175C68.8336 8.035 68.8803 7.93 68.9736 7.86C69.0203 7.81333 69.0436 7.755 69.0436 7.685C69.0903 7.59167 69.1136 7.51 69.1136 7.44C69.1836 7.25333 69.2769 7.13667 69.3936 7.09C69.4636 7.04333 69.5219 7.00833 69.5686 6.985C69.6386 6.93833 69.7086 6.92667 69.7786 6.95C69.8953 6.95 69.9653 6.915 69.9886 6.845C70.0353 6.82167 70.0703 6.79833 70.0936 6.775C70.1169 6.72833 70.1403 6.705 70.1636 6.705C70.2803 6.705 70.3853 6.69333 70.4786 6.67C70.5953 6.64667 70.7119 6.65833 70.8286 6.705C70.9686 6.75167 71.0853 6.775 71.1786 6.775C71.2953 6.79833 71.3769 6.845 71.4236 6.915C71.4703 6.96167 71.5169 6.985 71.5636 6.985C71.6803 7.00833 71.7619 7.09 71.8086 7.23C71.8553 7.27667 71.8786 7.335 71.8786 7.405C71.9019 7.45167 71.9253 7.48667 71.9486 7.51C72.0653 7.62667 72.1003 7.76667 72.0536 7.93C72.0069 8.18667 72.0069 8.44333 72.0536 8.7C72.0769 8.77 72.0769 8.84 72.0536 8.91C72.0536 8.98 72.0653 9.05 72.0886 9.12C72.0886 9.28333 72.0886 9.44667 72.0886 9.61C72.1119 9.75 72.1353 9.91333 72.1586 10.1C72.1819 10.1933 72.1936 10.2867 72.1936 10.38C72.1936 10.45 72.1936 10.5433 72.1936 10.66C72.1936 10.8233 72.1936 11.01 72.1936 11.22C72.1936 11.4067 72.2053 11.5933 72.2286 11.78C72.2519 11.8267 72.2636 11.9083 72.2636 12.025C72.2636 12.1883 72.2636 12.3517 72.2636 12.515C72.2869 12.6783 72.3103 12.8417 72.3336 13.005C72.4036 13.355 72.4386 13.6933 72.4386 14.02C72.4153 14.1833 72.4153 14.3583 72.4386 14.545C72.4619 14.7317 72.4736 14.9183 72.4736 15.105C72.4736 15.1517 72.4969 15.175 72.5436 15.175C72.5903 15.175 72.6253 15.1633 72.6486 15.14C72.6953 15.1167 72.7653 15.0583 72.8586 14.965L74.5386 13.285C74.8886 12.8883 75.2736 12.5383 75.6936 12.235C75.9036 12.0717 76.1019 11.9083 76.2886 11.745C76.4753 11.5583 76.6503 11.3717 76.8136 11.185C77.0469 10.9283 77.2686 10.6717 77.4786 10.415C77.7119 10.1583 77.9453 9.90166 78.1786 9.645C78.2953 9.52833 78.4003 9.4 78.4936 9.26C78.6103 9.12 78.7153 8.98 78.8086 8.84C78.9486 8.67667 79.0769 8.525 79.1936 8.385C79.3336 8.22167 79.4853 8.07 79.6486 7.93C79.7186 7.88333 79.7769 7.83667 79.8236 7.79C79.8936 7.72 79.9753 7.67333 80.0686 7.65C80.0919 7.65 80.1036 7.65 80.1036 7.65C80.1269 7.62667 80.1386 7.615 80.1386 7.615C80.3719 7.405 80.6053 7.37 80.8386 7.51C80.9086 7.55667 81.0136 7.58 81.1536 7.58C81.3403 7.58 81.5036 7.65 81.6436 7.79C81.6903 7.81333 81.7253 7.83667 81.7486 7.86C81.7953 7.86 81.8303 7.87167 81.8536 7.895H82.2036C82.3436 7.895 82.4136 7.91833 82.4136 7.965C82.4369 7.98833 82.4369 8.05833 82.4136 8.175C82.3669 8.245 82.3903 8.315 82.4836 8.385C82.6003 8.40833 82.6353 8.47833 82.5886 8.595C82.5653 8.64167 82.5886 8.7 82.6586 8.77C82.7286 8.81667 82.7286 8.875 82.6586 8.945C82.5419 9.13167 82.4719 9.31833 82.4486 9.505C82.4019 9.62167 82.3436 9.73833 82.2736 9.855C82.2269 9.94833 82.1453 10.0533 82.0286 10.17C81.7486 10.4033 81.4919 10.6717 81.2586 10.975C81.0253 11.255 80.7803 11.5467 80.5236 11.85L80.3136 12.06C80.0803 12.27 79.8586 12.4917 79.6486 12.725C79.4619 12.9583 79.2753 13.1917 79.0886 13.425C78.8319 13.7283 78.5519 14.0317 78.2486 14.335C77.9686 14.615 77.6886 14.895 77.4086 15.175C77.2686 15.315 77.1636 15.4083 77.0936 15.455C76.9769 15.5483 76.8603 15.6533 76.7436 15.77C76.6269 15.8867 76.5103 16.015 76.3936 16.155C76.3703 16.2017 76.3236 16.2483 76.2536 16.295C76.2069 16.3417 76.1603 16.3883 76.1136 16.435C75.9503 16.5983 75.7869 16.7733 75.6236 16.96C75.4603 17.1233 75.2853 17.2867 75.0986 17.45C75.0986 17.4733 75.0869 17.4967 75.0636 17.52C75.0636 17.52 75.0636 17.5317 75.0636 17.555C75.0636 17.5783 75.0519 17.6017 75.0286 17.625C75.0286 17.6483 75.0403 17.6717 75.0636 17.695C75.0869 17.765 75.1453 17.8467 75.2386 17.94L76.2536 18.885C76.4636 19.0483 76.6619 19.235 76.8486 19.445C77.0353 19.6317 77.2219 19.8183 77.4086 20.005L77.7586 20.425C77.8053 20.4717 77.8519 20.53 77.8986 20.6C77.9453 20.6467 77.9919 20.6933 78.0386 20.74C78.2953 20.95 78.5519 21.16 78.8086 21.37C79.0653 21.58 79.3103 21.79 79.5436 22L80.0686 22.42C80.3486 22.6533 80.6519 22.875 80.9786 23.085C81.3053 23.295 81.6203 23.4933 81.9236 23.68C82.0869 23.7733 82.2386 23.8667 82.3786 23.96C82.5419 24.03 82.7053 24.1 82.8686 24.17C83.1719 24.31 83.4169 24.555 83.6036 24.905C83.6269 24.9283 83.6503 24.975 83.6736 25.045C83.6969 25.0917 83.7203 25.1383 83.7436 25.185C83.8603 25.4417 83.9069 25.6867 83.8836 25.92C83.8836 26.1067 83.8603 26.235 83.8136 26.305L83.7086 26.585C83.6853 26.6783 83.6386 26.7833 83.5686 26.9C83.5219 26.9933 83.4403 27.075 83.3236 27.145C83.2769 27.1683 83.2303 27.2267 83.1836 27.32C83.0903 27.4133 83.0086 27.46 82.9386 27.46C82.8219 27.4833 82.6936 27.5067 82.5536 27.53C82.4369 27.5533 82.3203 27.5767 82.2036 27.6C82.1103 27.6233 82.0169 27.635 81.9236 27.635C81.8303 27.635 81.7369 27.6233 81.6436 27.6C81.6203 27.5767 81.5853 27.565 81.5386 27.565C81.4453 27.5417 81.3519 27.5183 81.2586 27.495C81.1886 27.4717 81.1186 27.4483 81.0486 27.425C80.9786 27.3783 80.9086 27.3317 80.8386 27.285C80.7919 27.215 80.7453 27.1567 80.6986 27.11C80.6519 27.0633 80.5936 27.0167 80.5236 26.97C80.4536 26.9233 80.3836 26.8883 80.3136 26.865L79.7886 26.55C79.7653 26.5033 79.7186 26.4683 79.6486 26.445C79.6019 26.3983 79.5553 26.3633 79.5086 26.34C79.4153 26.2933 79.3569 26.2583 79.3336 26.235C79.2403 26.1183 79.1236 26.025 78.9836 25.955C78.8669 25.885 78.7503 25.8033 78.6336 25.71C78.4469 25.5467 78.2486 25.395 78.0386 25.255C77.8519 25.0917 77.6653 24.9283 77.4786 24.765C77.0819 24.415 76.6853 24.065 76.2886 23.715C75.9153 23.365 75.5419 23.0033 75.1686 22.63C74.8886 22.35 74.6086 22.07 74.3286 21.79C74.0486 21.51 73.7453 21.23 73.4186 20.95C73.3253 20.88 73.2319 20.81 73.1386 20.74C73.0686 20.67 72.9753 20.6 72.8586 20.53C72.8353 20.4833 72.8003 20.4717 72.7536 20.495C72.7303 20.5183 72.7186 20.5533 72.7186 20.6C72.6953 20.6233 72.6836 20.6817 72.6836 20.775V24.555C72.6836 24.7883 72.6836 25.0333 72.6836 25.29C72.6836 25.5233 72.6603 25.7683 72.6136 26.025V26.55C72.5903 26.7133 72.5786 26.8767 72.5786 27.04C72.6019 27.2033 72.6019 27.3783 72.5786 27.565V28.09C72.5553 28.16 72.5319 28.23 72.5086 28.3C72.4853 28.37 72.4503 28.44 72.4036 28.51C72.3336 28.58 72.2753 28.6617 72.2286 28.755C72.1819 28.825 72.1353 28.895 72.0886 28.965C72.0419 29.0117 71.9953 29.035 71.9486 29.035C71.8553 29.0583 71.7619 29.105 71.6686 29.175C71.5986 29.245 71.5053 29.3033 71.3886 29.35C71.2253 29.49 71.0269 29.56 70.7936 29.56C70.7469 29.5367 70.6886 29.5367 70.6186 29.56C70.5719 29.5833 70.5136 29.595 70.4436 29.595ZM108.144 29.7C107.911 29.6767 107.677 29.6417 107.444 29.595C107.234 29.5717 107.024 29.5133 106.814 29.42L105.939 29.105C105.636 28.9883 105.356 28.86 105.099 28.72C104.842 28.5567 104.586 28.3933 104.329 28.23C104.212 28.1133 104.096 28.0083 103.979 27.915C103.862 27.7983 103.746 27.6933 103.629 27.6C103.442 27.4133 103.256 27.2267 103.069 27.04C102.882 26.83 102.707 26.6083 102.544 26.375L101.704 25.08C101.494 24.7533 101.307 24.415 101.144 24.065C100.981 23.6917 100.841 23.3183 100.724 22.945C100.467 22.245 100.339 21.5567 100.339 20.88V20.32C100.339 19.7367 100.374 19.165 100.444 18.605C100.491 18.1383 100.596 17.7183 100.759 17.345C100.852 17.1117 100.934 16.8783 101.004 16.645C101.074 16.4117 101.156 16.19 101.249 15.98L101.354 15.735C101.401 15.4317 101.506 15.1633 101.669 14.93C101.832 14.6733 101.972 14.4283 102.089 14.195C102.182 14.0083 102.287 13.845 102.404 13.705C102.521 13.5417 102.626 13.3783 102.719 13.215C102.766 13.145 102.824 13.0867 102.894 13.04C102.964 12.97 103.022 12.9 103.069 12.83C103.116 12.7833 103.151 12.725 103.174 12.655C103.221 12.5617 103.256 12.48 103.279 12.41C103.326 12.34 103.407 12.2467 103.524 12.13C103.664 12.06 103.792 11.8967 103.909 11.64C103.956 11.5467 104.002 11.4767 104.049 11.43C104.189 11.3133 104.306 11.1733 104.399 11.01C104.516 10.8467 104.644 10.695 104.784 10.555C104.877 10.4617 104.924 10.3333 104.924 10.17C104.924 10.0533 104.924 9.94833 104.924 9.855C104.947 9.73833 104.947 9.63333 104.924 9.54C104.901 9.42333 104.936 9.31833 105.029 9.225C105.076 9.17833 105.111 9.12 105.134 9.05C105.157 8.98 105.181 8.91 105.204 8.84C105.274 8.60667 105.461 8.40833 105.764 8.245C105.811 8.19833 105.869 8.175 105.939 8.175C106.032 8.15167 106.114 8.12833 106.184 8.105C106.347 8.035 106.534 8.02333 106.744 8.07C106.837 8.09333 106.919 8.105 106.989 8.105C107.059 8.08167 107.129 8.05833 107.199 8.035C107.292 7.98833 107.374 7.95333 107.444 7.93C107.537 7.90666 107.619 7.88333 107.689 7.86C108.016 7.74333 108.354 7.755 108.704 7.895C109.077 8.035 109.346 8.28 109.509 8.63C109.556 8.74667 109.602 8.86333 109.649 8.98C109.696 9.09667 109.731 9.21333 109.754 9.33C109.801 9.58667 109.789 9.80833 109.719 9.995C109.672 10.0883 109.649 10.1467 109.649 10.17C109.626 10.2633 109.649 10.345 109.719 10.415C109.766 10.485 109.824 10.5433 109.894 10.59C110.151 10.8233 110.396 11.0567 110.629 11.29C110.862 11.5 111.084 11.7333 111.294 11.99C111.481 12.1767 111.632 12.375 111.749 12.585C111.889 12.7717 112.017 12.9817 112.134 13.215C112.181 13.3317 112.239 13.46 112.309 13.6C112.379 13.7167 112.449 13.8333 112.519 13.95C112.636 14.16 112.729 14.3817 112.799 14.615C112.892 14.8483 112.986 15.0817 113.079 15.315V15.35C113.126 15.5133 113.161 15.6883 113.184 15.875C113.231 16.0383 113.301 16.2133 113.394 16.4C113.464 16.5633 113.522 16.7383 113.569 16.925C113.616 17.0883 113.662 17.2633 113.709 17.45C113.756 17.66 113.802 17.87 113.849 18.08C113.919 18.29 113.966 18.5 113.989 18.71C114.012 18.8033 114.036 18.8967 114.059 18.99C114.082 19.06 114.106 19.1417 114.129 19.235C114.176 19.445 114.222 19.655 114.269 19.865C114.316 20.075 114.351 20.285 114.374 20.495L114.479 20.74C114.526 20.88 114.572 21.0667 114.619 21.3C114.689 21.6033 114.724 21.9067 114.724 22.21C114.747 22.5133 114.747 22.8283 114.724 23.155C114.724 23.3183 114.712 23.4467 114.689 23.54C114.549 24.03 114.374 24.5317 114.164 25.045C114.071 25.2083 113.977 25.3717 113.884 25.535C113.791 25.675 113.697 25.8267 113.604 25.99L113.289 26.48C113.172 26.69 113.044 26.8767 112.904 27.04C112.671 27.4133 112.391 27.74 112.064 28.02C111.737 28.3 111.387 28.5683 111.014 28.825C110.197 29.455 109.241 29.7467 108.144 29.7ZM108.004 26.235C108.494 26.235 108.914 26.095 109.264 25.815C109.381 25.6983 109.497 25.5933 109.614 25.5C109.754 25.3833 109.871 25.2667 109.964 25.15C110.407 24.66 110.757 24.1467 111.014 23.61L111.119 23.26C111.166 22.84 111.166 22.42 111.119 22L110.909 20.845C110.839 20.5417 110.781 20.25 110.734 19.97C110.687 19.6667 110.617 19.375 110.524 19.095C110.454 18.9317 110.431 18.8033 110.454 18.71C110.477 18.5933 110.477 18.4767 110.454 18.36C110.431 18.2433 110.396 18.1267 110.349 18.01C110.279 17.7067 110.197 17.4033 110.104 17.1C110.011 16.7967 109.917 16.4933 109.824 16.19C109.801 16.12 109.777 16.05 109.754 15.98C109.731 15.91 109.707 15.84 109.684 15.77C109.521 15.4433 109.346 15.1283 109.159 14.825C108.972 14.5217 108.762 14.2417 108.529 13.985C108.412 13.845 108.284 13.7167 108.144 13.6C108.004 13.46 107.864 13.3317 107.724 13.215C107.701 13.1683 107.666 13.145 107.619 13.145C107.596 13.1217 107.561 13.0983 107.514 13.075C107.444 12.9817 107.351 12.9933 107.234 13.11C107.117 13.2267 106.989 13.355 106.849 13.495C106.732 13.635 106.616 13.775 106.499 13.915C106.382 14.0783 106.254 14.2417 106.114 14.405C105.997 14.5683 105.881 14.7317 105.764 14.895C105.601 15.105 105.449 15.315 105.309 15.525C105.169 15.735 105.029 15.945 104.889 16.155C104.399 16.9483 104.014 17.8233 103.734 18.78C103.687 18.92 103.664 19.025 103.664 19.095C103.641 19.2583 103.617 19.4217 103.594 19.585C103.594 19.7483 103.594 19.9233 103.594 20.11V20.39C103.617 20.46 103.629 20.53 103.629 20.6C103.629 20.67 103.641 20.74 103.664 20.81C103.664 21.09 103.734 21.3933 103.874 21.72C104.061 22.1867 104.271 22.6417 104.504 23.085C104.737 23.5283 105.006 23.9483 105.309 24.345C105.379 24.4383 105.449 24.5317 105.519 24.625C105.612 24.7183 105.694 24.8117 105.764 24.905C105.974 25.1383 106.196 25.3483 106.429 25.535C106.686 25.7217 106.942 25.885 107.199 26.025C107.479 26.165 107.747 26.235 108.004 26.235ZM120.396 30.33C120.372 30.3533 120.314 30.3417 120.221 30.295C120.127 30.2483 120.034 30.2133 119.941 30.19C119.871 30.19 119.789 30.1783 119.696 30.155C119.626 30.155 119.567 30.12 119.521 30.05C119.497 29.98 119.427 29.91 119.311 29.84C119.171 29.77 119.077 29.6417 119.031 29.455L118.926 29.105C118.856 28.965 118.856 28.825 118.926 28.685C118.949 28.615 118.949 28.545 118.926 28.475C118.926 28.405 118.937 28.335 118.961 28.265C118.984 28.2183 119.007 28.1717 119.031 28.125C119.054 28.055 119.077 27.9967 119.101 27.95C119.101 27.88 119.101 27.81 119.101 27.74C119.124 27.67 119.136 27.6 119.136 27.53C119.136 27.2733 119.136 27.005 119.136 26.725C119.136 26.445 119.147 26.1767 119.171 25.92C119.171 25.7333 119.159 25.5467 119.136 25.36C119.136 25.15 119.147 24.9517 119.171 24.765C119.171 24.625 119.182 24.4967 119.206 24.38C119.229 24.24 119.229 24.1117 119.206 23.995C119.206 23.8783 119.194 23.7617 119.171 23.645C119.171 23.5283 119.171 23.4117 119.171 23.295C119.171 23.1317 119.159 22.98 119.136 22.84C119.136 22.7 119.101 22.5483 119.031 22.385C118.984 22.1983 118.961 22.035 118.961 21.895C118.961 21.6383 118.961 21.3933 118.961 21.16C118.961 20.9267 118.972 20.6933 118.996 20.46C118.996 20.4133 118.996 20.3667 118.996 20.32C119.019 20.2733 119.019 20.2383 118.996 20.215C118.972 20.0283 118.949 19.8533 118.926 19.69C118.926 19.5033 118.926 19.3283 118.926 19.165V19.06C118.902 18.8967 118.832 18.745 118.716 18.605L118.471 18.29C118.377 18.15 118.331 18.0217 118.331 17.905C118.331 17.835 118.319 17.765 118.296 17.695C118.296 17.625 118.296 17.555 118.296 17.485C118.272 17.2983 118.307 17.1233 118.401 16.96C118.494 16.82 118.587 16.645 118.681 16.435C118.727 16.3183 118.727 16.2133 118.681 16.12C118.657 16.0267 118.646 15.9333 118.646 15.84V15.525C118.646 15.385 118.634 15.28 118.611 15.21C118.587 14.9533 118.564 14.6967 118.541 14.44C118.541 14.16 118.517 13.9033 118.471 13.67C118.447 13.4833 118.436 13.2967 118.436 13.11C118.436 12.9233 118.436 12.7483 118.436 12.585C118.412 12.4683 118.401 12.3517 118.401 12.235C118.401 12.1183 118.377 12.0017 118.331 11.885L118.296 11.64C118.319 11.3833 118.284 11.115 118.191 10.835C118.167 10.7417 118.144 10.6483 118.121 10.555C118.121 10.4383 118.132 10.3333 118.156 10.24C118.226 10.0533 118.249 9.855 118.226 9.645C118.226 9.435 118.214 9.225 118.191 9.015C118.167 8.82833 118.156 8.65333 118.156 8.49C118.156 8.30333 118.144 8.12833 118.121 7.965C118.097 7.685 118.109 7.41667 118.156 7.16C118.226 6.88 118.307 6.6 118.401 6.32C118.447 6.22667 118.494 6.16833 118.541 6.145C118.634 6.09833 118.716 6.05167 118.786 6.005C118.856 5.935 118.926 5.87667 118.996 5.83C119.089 5.78333 119.136 5.76 119.136 5.76C119.252 5.71333 119.357 5.67833 119.451 5.655C119.567 5.63167 119.672 5.60833 119.766 5.585C119.976 5.515 120.162 5.515 120.326 5.585C120.512 5.655 120.687 5.74833 120.851 5.865C121.037 5.95833 121.189 6.09833 121.306 6.285C121.329 6.33167 121.352 6.39 121.376 6.46C121.399 6.50667 121.422 6.565 121.446 6.635C121.446 6.72833 121.446 6.83333 121.446 6.95C121.469 7.04333 121.492 7.14833 121.516 7.265C121.562 7.405 121.632 7.475 121.726 7.475H121.831C122.204 7.49833 122.566 7.52167 122.916 7.545C123.289 7.545 123.662 7.545 124.036 7.545H124.176C124.362 7.49833 124.514 7.475 124.631 7.475C124.724 7.49833 124.852 7.51 125.016 7.51C125.062 7.48667 125.121 7.475 125.191 7.475C125.261 7.475 125.319 7.475 125.366 7.475C125.506 7.45167 125.622 7.45167 125.716 7.475C125.879 7.52167 126.019 7.51 126.136 7.44C126.206 7.39333 126.299 7.39333 126.416 7.44C126.462 7.46333 126.521 7.475 126.591 7.475C126.661 7.475 126.719 7.475 126.766 7.475C126.952 7.42833 127.139 7.39333 127.326 7.37C127.536 7.34667 127.734 7.32333 127.921 7.3C128.107 7.25333 128.282 7.21833 128.446 7.195C128.632 7.17167 128.807 7.14833 128.971 7.125C129.017 7.10167 129.087 7.09 129.181 7.09C129.531 7.11333 129.892 7.055 130.266 6.915C130.336 6.89167 130.406 6.88 130.476 6.88C130.546 6.85667 130.627 6.85667 130.721 6.88C130.814 6.90333 130.931 6.90333 131.071 6.88C131.257 6.85667 131.444 6.83333 131.631 6.81C131.817 6.76333 131.992 6.72833 132.156 6.705C132.272 6.65833 132.377 6.62333 132.471 6.6C132.564 6.55333 132.657 6.54167 132.751 6.565L133.066 6.46C133.229 6.39 133.392 6.41333 133.556 6.53L134.116 6.845C134.162 6.86833 134.197 6.89167 134.221 6.915C134.267 6.93833 134.302 6.97333 134.326 7.02C134.396 7.13667 134.454 7.25333 134.501 7.37C134.571 7.48667 134.617 7.615 134.641 7.755C134.641 7.84833 134.652 7.93 134.676 8C134.722 8.07 134.722 8.15167 134.676 8.245C134.652 8.315 134.629 8.385 134.606 8.455C134.582 8.525 134.559 8.595 134.536 8.665L134.431 8.91C134.407 9.02667 134.337 9.12 134.221 9.19L134.081 9.33C134.034 9.37667 133.976 9.435 133.906 9.505C133.859 9.55167 133.824 9.61 133.801 9.68C133.777 9.75 133.731 9.79667 133.661 9.82C133.567 9.84333 133.474 9.87833 133.381 9.925C133.311 9.97167 133.241 10.03 133.171 10.1C133.077 10.1233 132.984 10.1583 132.891 10.205C132.797 10.2283 132.692 10.2283 132.576 10.205C132.436 10.1817 132.261 10.2283 132.051 10.345C131.934 10.415 131.806 10.4733 131.666 10.52C131.526 10.5433 131.386 10.5783 131.246 10.625C130.966 10.695 130.709 10.695 130.476 10.625C130.382 10.5783 130.289 10.555 130.196 10.555C130.102 10.555 130.009 10.5433 129.916 10.52C129.822 10.4967 129.729 10.4733 129.636 10.45C129.566 10.4267 129.472 10.415 129.356 10.415C129.262 10.415 129.181 10.415 129.111 10.415C129.041 10.3917 128.959 10.3683 128.866 10.345C128.772 10.3217 128.621 10.31 128.411 10.31C128.341 10.31 128.271 10.3217 128.201 10.345C128.131 10.345 128.049 10.3333 127.956 10.31C127.862 10.2867 127.757 10.2867 127.641 10.31C127.547 10.31 127.442 10.3217 127.326 10.345C127.256 10.3683 127.186 10.3917 127.116 10.415C127.069 10.415 127.022 10.415 126.976 10.415C126.836 10.4617 126.731 10.4733 126.661 10.45C126.544 10.4267 126.427 10.4267 126.311 10.45C126.194 10.45 126.077 10.4617 125.961 10.485C125.914 10.485 125.856 10.485 125.786 10.485C125.716 10.485 125.657 10.4733 125.611 10.45C125.331 10.38 125.062 10.4383 124.806 10.625H124.736C124.642 10.7183 124.549 10.73 124.456 10.66C124.222 10.5433 124.047 10.59 123.931 10.8C123.861 10.94 123.756 10.9867 123.616 10.94C123.476 10.94 123.382 10.9167 123.336 10.87C123.219 10.8233 123.126 10.8583 123.056 10.975C123.009 11.0217 122.962 11.045 122.916 11.045C122.846 11.045 122.799 11.0333 122.776 11.01C122.682 10.9867 122.601 10.9867 122.531 11.01C122.251 11.1267 121.994 11.22 121.761 11.29C121.691 11.29 121.656 11.3367 121.656 11.43C121.632 11.78 121.632 12.1417 121.656 12.515C121.679 12.6083 121.691 12.7133 121.691 12.83C121.691 12.9233 121.702 13.0283 121.726 13.145C121.726 13.2383 121.726 13.3317 121.726 13.425C121.749 13.5183 121.772 13.6117 121.796 13.705V13.845C121.819 14.0783 121.842 14.3 121.866 14.51C121.889 14.72 121.912 14.9417 121.936 15.175C121.936 15.2917 121.971 15.4433 122.041 15.63C122.087 15.7467 122.169 15.805 122.286 15.805C122.356 15.8283 122.426 15.84 122.496 15.84C122.566 15.84 122.636 15.84 122.706 15.84H125.541C125.727 15.7933 125.914 15.77 126.101 15.77C126.311 15.77 126.509 15.77 126.696 15.77C126.789 15.7933 126.871 15.805 126.941 15.805C127.034 15.7817 127.116 15.7817 127.186 15.805H127.501C127.641 15.7817 127.781 15.77 127.921 15.77C128.061 15.7467 128.212 15.7233 128.376 15.7C128.562 15.6533 128.726 15.63 128.866 15.63C128.912 15.6067 128.982 15.595 129.076 15.595C129.262 15.6183 129.472 15.595 129.706 15.525C129.799 15.455 129.916 15.4433 130.056 15.49C130.149 15.5133 130.242 15.525 130.336 15.525C130.429 15.5017 130.522 15.49 130.616 15.49C130.709 15.4667 130.791 15.455 130.861 15.455C130.954 15.455 131.036 15.455 131.106 15.455C131.432 15.4783 131.771 15.455 132.121 15.385C132.261 15.3617 132.401 15.35 132.541 15.35C132.681 15.35 132.809 15.35 132.926 15.35C132.972 15.35 133.019 15.3617 133.066 15.385C133.136 15.385 133.194 15.3733 133.241 15.35C133.427 15.3033 133.614 15.28 133.801 15.28C134.011 15.2567 134.209 15.21 134.396 15.14C134.442 15.1167 134.501 15.0933 134.571 15.07C134.641 15.0467 134.699 15.0233 134.746 15C134.886 14.93 135.026 14.8833 135.166 14.86C135.329 14.8133 135.481 14.7783 135.621 14.755C135.691 14.7317 135.796 14.72 135.936 14.72H136.041C136.134 14.7433 136.227 14.7783 136.321 14.825C136.414 14.8717 136.496 14.93 136.566 15C136.729 15.1633 136.892 15.245 137.056 15.245C137.126 15.245 137.184 15.2917 137.231 15.385V15.49C137.231 15.56 137.207 15.595 137.161 15.595C137.161 15.595 137.149 15.6067 137.126 15.63C137.102 15.63 137.091 15.6417 137.091 15.665C137.137 15.7117 137.184 15.735 137.231 15.735V15.77C137.254 15.8167 137.242 15.8983 137.196 16.015C137.126 16.085 137.126 16.1667 137.196 16.26C137.289 16.4 137.301 16.5283 137.231 16.645C137.161 16.785 137.091 16.925 137.021 17.065C136.951 17.205 136.881 17.3333 136.811 17.45C136.671 17.66 136.507 17.8117 136.321 17.905C136.227 17.9283 136.111 17.9633 135.971 18.01C135.854 18.0333 135.737 18.0567 135.621 18.08C135.317 18.1267 135.002 18.1733 134.676 18.22C134.372 18.2667 134.057 18.3133 133.731 18.36C133.614 18.3833 133.497 18.4067 133.381 18.43C133.264 18.43 133.147 18.4417 133.031 18.465C132.797 18.4883 132.564 18.5117 132.331 18.535C132.097 18.5583 131.864 18.5933 131.631 18.64H131.351C131.234 18.6633 131.106 18.6867 130.966 18.71C130.849 18.71 130.732 18.71 130.616 18.71C130.429 18.71 130.242 18.7217 130.056 18.745C129.869 18.745 129.682 18.7567 129.496 18.78C129.379 18.8033 129.262 18.815 129.146 18.815C129.029 18.815 128.912 18.815 128.796 18.815C128.562 18.815 128.317 18.815 128.061 18.815C127.827 18.7917 127.582 18.7683 127.326 18.745C127.046 18.7217 126.766 18.71 126.486 18.71C126.229 18.71 125.961 18.71 125.681 18.71H124.386C124.269 18.71 124.187 18.7217 124.141 18.745C123.907 18.7683 123.662 18.7917 123.406 18.815C123.172 18.815 122.927 18.815 122.671 18.815H122.566C122.402 18.8617 122.321 18.9433 122.321 19.06C122.321 19.1533 122.321 19.2467 122.321 19.34C122.321 19.41 122.332 19.48 122.356 19.55C122.402 19.9 122.437 20.25 122.461 20.6C122.507 20.9267 122.531 21.2533 122.531 21.58C122.531 21.7433 122.531 21.895 122.531 22.035C122.531 22.175 122.542 22.3267 122.566 22.49C122.566 22.8633 122.577 23.2367 122.601 23.61C122.647 23.9833 122.659 24.3683 122.636 24.765C122.636 24.9283 122.636 25.0917 122.636 25.255C122.659 25.4183 122.682 25.5933 122.706 25.78C122.729 25.9433 122.729 26.1067 122.706 26.27C122.706 26.41 122.717 26.5733 122.741 26.76C122.741 26.8533 122.741 26.9583 122.741 27.075C122.764 27.1683 122.787 27.2733 122.811 27.39C122.834 27.46 122.834 27.53 122.811 27.6C122.811 27.67 122.822 27.74 122.846 27.81C122.846 27.9033 122.846 27.9967 122.846 28.09C122.846 28.16 122.857 28.2417 122.881 28.335C122.904 28.545 122.846 28.72 122.706 28.86C122.682 28.93 122.647 28.9883 122.601 29.035C122.577 29.105 122.554 29.1633 122.531 29.21C122.484 29.3267 122.414 29.42 122.321 29.49C122.227 29.5833 122.122 29.665 122.006 29.735C121.982 29.7583 121.947 29.77 121.901 29.77C121.854 29.7933 121.807 29.8167 121.761 29.84C121.621 29.8867 121.516 29.9333 121.446 29.98C121.399 30.0733 121.329 30.1317 121.236 30.155C121.166 30.1783 121.084 30.2133 120.991 30.26C120.897 30.2833 120.792 30.295 120.676 30.295C120.582 30.3183 120.489 30.33 120.396 30.33ZM167.378 33.13C167.144 33.1067 166.969 32.9667 166.853 32.71C166.829 32.6867 166.818 32.6283 166.818 32.535C166.794 32.3483 166.759 32.1617 166.713 31.975C166.689 31.7883 166.689 31.6017 166.713 31.415V31.24C166.689 31.03 166.678 30.82 166.678 30.61C166.678 30.4 166.666 30.2017 166.643 30.015C166.596 29.6183 166.456 29.315 166.223 29.105L165.908 28.79C165.791 28.65 165.639 28.6033 165.453 28.65C165.313 28.6733 165.173 28.685 165.033 28.685C164.916 28.685 164.788 28.6733 164.648 28.65C164.554 28.65 164.449 28.6617 164.333 28.685C164.239 28.685 164.134 28.685 164.018 28.685C163.924 28.685 163.819 28.685 163.703 28.685C163.609 28.6617 163.516 28.6617 163.423 28.685C163.329 28.7083 163.236 28.72 163.143 28.72C163.073 28.72 163.003 28.72 162.933 28.72H161.743C161.486 28.72 161.218 28.755 160.938 28.825L160.098 29.035C159.818 29.1283 159.538 29.1983 159.258 29.245C159.164 29.2683 159.071 29.2917 158.978 29.315C158.884 29.3383 158.791 29.3733 158.698 29.42C158.348 29.5833 158.009 29.6767 157.683 29.7C157.473 29.7467 157.321 29.84 157.228 29.98L157.053 30.19C157.006 30.2133 156.959 30.2367 156.913 30.26C156.866 30.3067 156.819 30.3533 156.773 30.4C156.609 30.4933 156.434 30.4933 156.248 30.4C156.038 30.2833 155.909 30.155 155.863 30.015C155.863 29.9917 155.851 29.9683 155.828 29.945C155.828 29.945 155.828 29.9333 155.828 29.91C155.664 29.5133 155.396 29.1633 155.023 28.86C154.929 28.79 154.848 28.7083 154.778 28.615C154.754 28.545 154.719 28.4867 154.673 28.44C154.626 28.37 154.579 28.3117 154.533 28.265L154.323 27.95C154.229 27.7867 154.194 27.6 154.218 27.39C154.241 27.2733 154.253 27.1567 154.253 27.04C154.276 26.9 154.299 26.7717 154.323 26.655V26.445C154.323 26.1883 154.323 25.9317 154.323 25.675C154.323 25.395 154.334 25.1383 154.358 24.905V24.555C154.404 24.4617 154.416 24.38 154.393 24.31C154.393 24.2167 154.393 24.1233 154.393 24.03C154.416 23.7267 154.416 23.435 154.393 23.155C154.393 22.8517 154.404 22.5483 154.428 22.245L154.533 20.67C154.556 20.4133 154.568 20.1683 154.568 19.935C154.591 19.7017 154.603 19.4683 154.603 19.235V19.13C154.649 18.85 154.673 18.57 154.673 18.29C154.673 18.01 154.673 17.7183 154.673 17.415V15C154.649 14.7433 154.626 14.4867 154.603 14.23C154.603 13.9733 154.603 13.7167 154.603 13.46C154.603 13.18 154.591 12.9 154.568 12.62C154.544 12.3167 154.509 12.0133 154.463 11.71C154.439 11.5233 154.404 11.325 154.358 11.115C154.334 10.905 154.323 10.695 154.323 10.485C154.323 10.4383 154.311 10.3917 154.288 10.345C154.288 10.2983 154.288 10.2517 154.288 10.205C154.148 9.575 154.078 8.93333 154.078 8.28V6.81C154.078 6.64667 154.078 6.495 154.078 6.355C154.101 6.19167 154.124 6.02833 154.148 5.865C154.194 5.585 154.288 5.375 154.428 5.235L154.603 5.025C154.743 4.83833 154.906 4.71 155.093 4.64C155.279 4.54667 155.478 4.48833 155.688 4.465H155.933C156.283 4.465 156.563 4.59333 156.773 4.85C156.819 4.87333 156.854 4.89667 156.878 4.92C156.901 4.94333 156.924 4.96667 156.948 4.99C157.064 5.08333 157.134 5.18833 157.158 5.305C157.274 5.53833 157.333 5.69 157.333 5.76C157.356 5.83 157.368 5.99333 157.368 6.25V6.495C157.368 6.65833 157.368 6.82167 157.368 6.985C157.368 7.125 157.379 7.27667 157.403 7.44C157.426 7.48667 157.438 7.55667 157.438 7.65C157.438 7.81333 157.438 7.97667 157.438 8.14C157.461 8.30333 157.484 8.46667 157.508 8.63C157.531 8.86333 157.554 9.09667 157.578 9.33C157.601 9.54 157.613 9.77333 157.613 10.03C157.613 10.0767 157.613 10.135 157.613 10.205C157.636 10.2517 157.648 10.2983 157.648 10.345C157.648 10.3683 157.648 10.4033 157.648 10.45C157.671 10.4733 157.683 10.5083 157.683 10.555L157.788 12.34C157.811 12.4567 157.823 12.585 157.823 12.725C157.823 12.8417 157.823 12.97 157.823 13.11C157.846 13.1333 157.858 13.1917 157.858 13.285C157.834 13.4017 157.823 13.53 157.823 13.67C157.823 13.7867 157.834 13.9033 157.858 14.02V16.33C157.834 16.47 157.834 16.61 157.858 16.75V16.96C157.834 17.1467 157.823 17.345 157.823 17.555C157.823 17.7417 157.811 17.94 157.788 18.15C157.788 18.3133 157.788 18.4883 157.788 18.675C157.788 18.8383 157.776 19.0133 157.753 19.2C157.729 19.2933 157.718 19.3983 157.718 19.515C157.718 19.6317 157.718 19.7483 157.718 19.865C157.718 19.9583 157.706 20.075 157.683 20.215C157.683 20.3317 157.671 20.4483 157.648 20.565V20.67C157.624 20.9033 157.601 21.1367 157.578 21.37C157.578 21.6033 157.566 21.8483 157.543 22.105C157.519 22.2217 157.508 22.35 157.508 22.49C157.508 22.63 157.496 22.77 157.473 22.91C157.449 23.0033 157.438 23.12 157.438 23.26C157.438 23.3767 157.438 23.4933 157.438 23.61C157.438 23.7267 157.426 23.8433 157.403 23.96C157.379 24.2167 157.368 24.4733 157.368 24.73C157.368 24.9633 157.368 25.2083 157.368 25.465V25.5C157.414 25.6167 157.473 25.675 157.543 25.675L158.243 25.78C158.803 25.85 159.351 25.885 159.888 25.885C160.028 25.885 160.144 25.8733 160.238 25.85C160.354 25.8267 160.483 25.815 160.623 25.815C160.763 25.815 160.891 25.8033 161.008 25.78H161.988C162.151 25.78 162.314 25.7683 162.478 25.745C162.641 25.6983 162.804 25.6633 162.968 25.64H163.143C163.399 25.64 163.656 25.6283 163.913 25.605C164.169 25.5583 164.426 25.535 164.683 25.535H165.838C166.164 25.535 166.444 25.465 166.678 25.325C166.864 25.255 167.039 25.2083 167.203 25.185C167.389 25.1617 167.576 25.1383 167.763 25.115C168.043 25.115 168.288 25.185 168.498 25.325C168.964 25.605 169.268 25.99 169.408 26.48C169.454 26.6433 169.478 26.8183 169.478 27.005C169.501 27.1917 169.501 27.3783 169.478 27.565C169.454 27.775 169.408 27.9733 169.338 28.16C169.268 28.3233 169.174 28.4983 169.058 28.685L168.743 29.14C168.603 29.3967 168.498 29.6533 168.428 29.91C168.404 30.12 168.369 30.3183 168.323 30.505C168.276 30.715 168.253 30.925 168.253 31.135C168.253 31.2283 168.241 31.3217 168.218 31.415C168.218 31.5083 168.218 31.6017 168.218 31.695C168.194 31.7883 168.183 31.87 168.183 31.94C168.183 32.01 168.183 32.0917 168.183 32.185C168.183 32.3717 168.124 32.5817 168.008 32.815C167.868 33.0483 167.658 33.1533 167.378 33.13ZM175.13 29.35C174.99 29.35 174.896 29.3383 174.85 29.315C174.756 29.2683 174.675 29.2333 174.605 29.21C174.535 29.1867 174.465 29.1633 174.395 29.14C174.325 29.0933 174.255 29.0467 174.185 29C174.138 28.93 174.091 28.86 174.045 28.79C173.998 28.7433 173.951 28.72 173.905 28.72C173.765 28.72 173.695 28.65 173.695 28.51C173.671 28.37 173.648 28.23 173.625 28.09C173.601 27.95 173.578 27.81 173.555 27.67C173.531 27.46 173.508 27.25 173.485 27.04C173.485 26.83 173.461 26.6317 173.415 26.445V26.13C173.415 26.0367 173.403 25.955 173.38 25.885C173.38 25.815 173.38 25.7333 173.38 25.64C173.333 25.5233 173.333 25.43 173.38 25.36C173.426 24.94 173.426 24.52 173.38 24.1C173.356 23.9833 173.345 23.8667 173.345 23.75C173.345 23.6333 173.333 23.5167 173.31 23.4C173.31 23.1667 173.31 22.9333 173.31 22.7C173.31 22.4433 173.286 22.1983 173.24 21.965V21.405C173.24 21.2183 173.228 21.0433 173.205 20.88C173.205 20.7167 173.193 20.5533 173.17 20.39C173.146 20.18 173.123 19.97 173.1 19.76C173.1 19.55 173.088 19.34 173.065 19.13C173.041 19.0833 173.03 19.0017 173.03 18.885C173.006 18.7683 172.983 18.6517 172.96 18.535C172.96 18.395 172.96 18.2667 172.96 18.15L172.855 16.4C172.831 16.2133 172.808 16.0383 172.785 15.875C172.785 15.6883 172.785 15.5133 172.785 15.35C172.761 15.07 172.738 14.79 172.715 14.51C172.691 14.23 172.668 13.9617 172.645 13.705C172.645 13.6583 172.633 13.6117 172.61 13.565C172.61 13.5183 172.61 13.4833 172.61 13.46C172.61 13.18 172.598 12.9 172.575 12.62C172.551 12.34 172.528 12.0483 172.505 11.745L172.4 10.765C172.33 10.3917 172.318 9.98333 172.365 9.54C172.365 9.33 172.446 9.155 172.61 9.015C172.656 8.96833 172.691 8.945 172.715 8.945C172.738 8.92167 172.761 8.89833 172.785 8.875C172.901 8.85167 172.96 8.77 172.96 8.63C172.96 8.58333 173.006 8.56 173.1 8.56H173.275C173.298 8.56 173.31 8.56 173.31 8.56C173.333 8.53667 173.356 8.525 173.38 8.525C173.426 8.50167 173.461 8.47833 173.485 8.455C173.531 8.40833 173.566 8.385 173.59 8.385C173.636 8.385 173.683 8.39667 173.73 8.42C173.776 8.42 173.823 8.43167 173.87 8.455C173.916 8.455 173.951 8.44333 173.975 8.42C174.091 8.39667 174.208 8.40833 174.325 8.455C174.465 8.47833 174.581 8.51333 174.675 8.56C174.815 8.58333 174.92 8.67667 174.99 8.84C175.06 9.05 175.118 9.26 175.165 9.47C175.235 9.65667 175.281 9.855 175.305 10.065V10.345C175.351 10.5083 175.375 10.6833 175.375 10.87C175.375 11.0333 175.375 11.2083 175.375 11.395C175.375 11.5583 175.375 11.7217 175.375 11.885C175.398 12.025 175.421 12.165 175.445 12.305C175.445 12.375 175.445 12.445 175.445 12.515C175.445 12.585 175.456 12.655 175.48 12.725C175.48 12.865 175.48 13.005 175.48 13.145C175.503 13.285 175.526 13.4367 175.55 13.6C175.573 13.8567 175.596 14.125 175.62 14.405C175.643 14.685 175.655 14.965 175.655 15.245C175.655 15.3617 175.655 15.49 175.655 15.63C175.655 15.7467 175.666 15.8633 175.69 15.98C175.713 16.05 175.725 16.12 175.725 16.19C175.725 16.26 175.725 16.33 175.725 16.4V17.1C175.725 17.24 175.736 17.3567 175.76 17.45C175.806 17.6133 175.818 17.7767 175.795 17.94C175.795 18.08 175.806 18.2317 175.83 18.395L175.935 20.005C175.958 20.2383 175.97 20.4833 175.97 20.74C175.993 20.9733 176.005 21.2183 176.005 21.475C176.005 21.5683 176.005 21.6733 176.005 21.79C176.005 21.8833 176.016 21.9767 176.04 22.07C176.063 22.14 176.075 22.21 176.075 22.28C176.075 22.35 176.075 22.42 176.075 22.49C176.098 22.5133 176.098 22.56 176.075 22.63C176.075 22.6767 176.086 22.7233 176.11 22.77C176.156 22.9333 176.18 23.0967 176.18 23.26C176.18 23.4233 176.18 23.5983 176.18 23.785C176.18 23.8783 176.18 23.9833 176.18 24.1C176.203 24.1933 176.215 24.2983 176.215 24.415C176.238 24.5317 176.25 24.66 176.25 24.8C176.25 24.94 176.25 25.0683 176.25 25.185C176.273 25.3017 176.285 25.43 176.285 25.57C176.285 25.6867 176.296 25.8033 176.32 25.92C176.343 25.9667 176.355 26.0133 176.355 26.06C176.355 26.3167 176.378 26.5733 176.425 26.83C176.471 27.0867 176.518 27.3433 176.565 27.6C176.588 27.67 176.6 27.7517 176.6 27.845C176.6 27.915 176.6 27.985 176.6 28.055C176.6 28.125 176.576 28.1833 176.53 28.23C176.436 28.3 176.366 28.44 176.32 28.65C176.32 28.72 176.285 28.7783 176.215 28.825C176.051 28.895 175.911 28.9883 175.795 29.105C175.608 29.2683 175.386 29.35 175.13 29.35ZM182.808 30.33C182.784 30.3533 182.726 30.3417 182.633 30.295C182.539 30.2483 182.446 30.2133 182.353 30.19C182.283 30.19 182.201 30.1783 182.108 30.155C182.038 30.155 181.979 30.12 181.933 30.05C181.909 29.98 181.839 29.91 181.723 29.84C181.583 29.77 181.489 29.6417 181.443 29.455L181.338 29.105C181.268 28.965 181.268 28.825 181.338 28.685C181.361 28.615 181.361 28.545 181.338 28.475C181.338 28.405 181.349 28.335 181.373 28.265C181.396 28.2183 181.419 28.1717 181.443 28.125C181.466 28.055 181.489 27.9967 181.513 27.95C181.513 27.88 181.513 27.81 181.513 27.74C181.536 27.67 181.548 27.6 181.548 27.53C181.548 27.2733 181.548 27.005 181.548 26.725C181.548 26.445 181.559 26.1767 181.583 25.92C181.583 25.7333 181.571 25.5467 181.548 25.36C181.548 25.15 181.559 24.9517 181.583 24.765C181.583 24.625 181.594 24.4967 181.618 24.38C181.641 24.24 181.641 24.1117 181.618 23.995C181.618 23.8783 181.606 23.7617 181.583 23.645C181.583 23.5283 181.583 23.4117 181.583 23.295C181.583 23.1317 181.571 22.98 181.548 22.84C181.548 22.7 181.513 22.5483 181.443 22.385C181.396 22.1983 181.373 22.035 181.373 21.895C181.373 21.6383 181.373 21.3933 181.373 21.16C181.373 20.9267 181.384 20.6933 181.408 20.46C181.408 20.4133 181.408 20.3667 181.408 20.32C181.431 20.2733 181.431 20.2383 181.408 20.215C181.384 20.0283 181.361 19.8533 181.338 19.69C181.338 19.5033 181.338 19.3283 181.338 19.165V19.06C181.314 18.8967 181.244 18.745 181.128 18.605L180.883 18.29C180.789 18.15 180.743 18.0217 180.743 17.905C180.743 17.835 180.731 17.765 180.708 17.695C180.708 17.625 180.708 17.555 180.708 17.485C180.684 17.2983 180.719 17.1233 180.813 16.96C180.906 16.82 180.999 16.645 181.093 16.435C181.139 16.3183 181.139 16.2133 181.093 16.12C181.069 16.0267 181.058 15.9333 181.058 15.84V15.525C181.058 15.385 181.046 15.28 181.023 15.21C180.999 14.9533 180.976 14.6967 180.953 14.44C180.953 14.16 180.929 13.9033 180.883 13.67C180.859 13.4833 180.848 13.2967 180.848 13.11C180.848 12.9233 180.848 12.7483 180.848 12.585C180.824 12.4683 180.813 12.3517 180.813 12.235C180.813 12.1183 180.789 12.0017 180.743 11.885L180.708 11.64C180.731 11.3833 180.696 11.115 180.603 10.835C180.579 10.7417 180.556 10.6483 180.533 10.555C180.533 10.4383 180.544 10.3333 180.568 10.24C180.638 10.0533 180.661 9.855 180.638 9.645C180.638 9.435 180.626 9.225 180.603 9.015C180.579 8.82833 180.568 8.65333 180.568 8.49C180.568 8.30333 180.556 8.12833 180.533 7.965C180.509 7.685 180.521 7.41667 180.568 7.16C180.638 6.88 180.719 6.6 180.813 6.32C180.859 6.22667 180.906 6.16833 180.953 6.145C181.046 6.09833 181.128 6.05167 181.198 6.005C181.268 5.935 181.338 5.87667 181.408 5.83C181.501 5.78333 181.548 5.76 181.548 5.76C181.664 5.71333 181.769 5.67833 181.863 5.655C181.979 5.63167 182.084 5.60833 182.178 5.585C182.388 5.515 182.574 5.515 182.738 5.585C182.924 5.655 183.099 5.74833 183.263 5.865C183.449 5.95833 183.601 6.09833 183.718 6.285C183.741 6.33167 183.764 6.39 183.788 6.46C183.811 6.50667 183.834 6.565 183.858 6.635C183.858 6.72833 183.858 6.83333 183.858 6.95C183.881 7.04333 183.904 7.14833 183.928 7.265C183.974 7.405 184.044 7.475 184.138 7.475H184.243C184.616 7.49833 184.978 7.52167 185.328 7.545C185.701 7.545 186.074 7.545 186.448 7.545H186.588C186.774 7.49833 186.926 7.475 187.043 7.475C187.136 7.49833 187.264 7.51 187.428 7.51C187.474 7.48667 187.533 7.475 187.603 7.475C187.673 7.475 187.731 7.475 187.778 7.475C187.918 7.45167 188.034 7.45167 188.128 7.475C188.291 7.52167 188.431 7.51 188.548 7.44C188.618 7.39333 188.711 7.39333 188.828 7.44C188.874 7.46333 188.933 7.475 189.003 7.475C189.073 7.475 189.131 7.475 189.178 7.475C189.364 7.42833 189.551 7.39333 189.738 7.37C189.948 7.34667 190.146 7.32333 190.333 7.3C190.519 7.25333 190.694 7.21833 190.858 7.195C191.044 7.17167 191.219 7.14833 191.383 7.125C191.429 7.10167 191.499 7.09 191.593 7.09C191.943 7.11333 192.304 7.055 192.678 6.915C192.748 6.89167 192.818 6.88 192.888 6.88C192.958 6.85667 193.039 6.85667 193.133 6.88C193.226 6.90333 193.343 6.90333 193.483 6.88C193.669 6.85667 193.856 6.83333 194.043 6.81C194.229 6.76333 194.404 6.72833 194.568 6.705C194.684 6.65833 194.789 6.62333 194.883 6.6C194.976 6.55333 195.069 6.54167 195.163 6.565L195.478 6.46C195.641 6.39 195.804 6.41333 195.968 6.53L196.528 6.845C196.574 6.86833 196.609 6.89167 196.633 6.915C196.679 6.93833 196.714 6.97333 196.738 7.02C196.808 7.13667 196.866 7.25333 196.913 7.37C196.983 7.48667 197.029 7.615 197.053 7.755C197.053 7.84833 197.064 7.93 197.088 8C197.134 8.07 197.134 8.15167 197.088 8.245C197.064 8.315 197.041 8.385 197.018 8.455C196.994 8.525 196.971 8.595 196.948 8.665L196.843 8.91C196.819 9.02667 196.749 9.12 196.633 9.19L196.493 9.33C196.446 9.37667 196.388 9.435 196.318 9.505C196.271 9.55167 196.236 9.61 196.213 9.68C196.189 9.75 196.143 9.79667 196.073 9.82C195.979 9.84333 195.886 9.87833 195.793 9.925C195.723 9.97167 195.653 10.03 195.583 10.1C195.489 10.1233 195.396 10.1583 195.303 10.205C195.209 10.2283 195.104 10.2283 194.988 10.205C194.848 10.1817 194.673 10.2283 194.463 10.345C194.346 10.415 194.218 10.4733 194.078 10.52C193.938 10.5433 193.798 10.5783 193.658 10.625C193.378 10.695 193.121 10.695 192.888 10.625C192.794 10.5783 192.701 10.555 192.608 10.555C192.514 10.555 192.421 10.5433 192.328 10.52C192.234 10.4967 192.141 10.4733 192.048 10.45C191.978 10.4267 191.884 10.415 191.768 10.415C191.674 10.415 191.593 10.415 191.523 10.415C191.453 10.3917 191.371 10.3683 191.278 10.345C191.184 10.3217 191.033 10.31 190.823 10.31C190.753 10.31 190.683 10.3217 190.613 10.345C190.543 10.345 190.461 10.3333 190.368 10.31C190.274 10.2867 190.169 10.2867 190.053 10.31C189.959 10.31 189.854 10.3217 189.738 10.345C189.668 10.3683 189.598 10.3917 189.528 10.415C189.481 10.415 189.434 10.415 189.388 10.415C189.248 10.4617 189.143 10.4733 189.073 10.45C188.956 10.4267 188.839 10.4267 188.723 10.45C188.606 10.45 188.489 10.4617 188.373 10.485C188.326 10.485 188.268 10.485 188.198 10.485C188.128 10.485 188.069 10.4733 188.023 10.45C187.743 10.38 187.474 10.4383 187.218 10.625H187.148C187.054 10.7183 186.961 10.73 186.868 10.66C186.634 10.5433 186.459 10.59 186.343 10.8C186.273 10.94 186.168 10.9867 186.028 10.94C185.888 10.94 185.794 10.9167 185.748 10.87C185.631 10.8233 185.538 10.8583 185.468 10.975C185.421 11.0217 185.374 11.045 185.328 11.045C185.258 11.045 185.211 11.0333 185.188 11.01C185.094 10.9867 185.013 10.9867 184.943 11.01C184.663 11.1267 184.406 11.22 184.173 11.29C184.103 11.29 184.068 11.3367 184.068 11.43C184.044 11.78 184.044 12.1417 184.068 12.515C184.091 12.6083 184.103 12.7133 184.103 12.83C184.103 12.9233 184.114 13.0283 184.138 13.145C184.138 13.2383 184.138 13.3317 184.138 13.425C184.161 13.5183 184.184 13.6117 184.208 13.705V13.845C184.231 14.0783 184.254 14.3 184.278 14.51C184.301 14.72 184.324 14.9417 184.348 15.175C184.348 15.2917 184.383 15.4433 184.453 15.63C184.499 15.7467 184.581 15.805 184.698 15.805C184.768 15.8283 184.838 15.84 184.908 15.84C184.978 15.84 185.048 15.84 185.118 15.84H187.953C188.139 15.7933 188.326 15.77 188.513 15.77C188.723 15.77 188.921 15.77 189.108 15.77C189.201 15.7933 189.283 15.805 189.353 15.805C189.446 15.7817 189.528 15.7817 189.598 15.805H189.913C190.053 15.7817 190.193 15.77 190.333 15.77C190.473 15.7467 190.624 15.7233 190.788 15.7C190.974 15.6533 191.138 15.63 191.278 15.63C191.324 15.6067 191.394 15.595 191.488 15.595C191.674 15.6183 191.884 15.595 192.118 15.525C192.211 15.455 192.328 15.4433 192.468 15.49C192.561 15.5133 192.654 15.525 192.748 15.525C192.841 15.5017 192.934 15.49 193.028 15.49C193.121 15.4667 193.203 15.455 193.273 15.455C193.366 15.455 193.448 15.455 193.518 15.455C193.844 15.4783 194.183 15.455 194.533 15.385C194.673 15.3617 194.813 15.35 194.953 15.35C195.093 15.35 195.221 15.35 195.338 15.35C195.384 15.35 195.431 15.3617 195.478 15.385C195.548 15.385 195.606 15.3733 195.653 15.35C195.839 15.3033 196.026 15.28 196.213 15.28C196.423 15.2567 196.621 15.21 196.808 15.14C196.854 15.1167 196.913 15.0933 196.983 15.07C197.053 15.0467 197.111 15.0233 197.158 15C197.298 14.93 197.438 14.8833 197.578 14.86C197.741 14.8133 197.893 14.7783 198.033 14.755C198.103 14.7317 198.208 14.72 198.348 14.72H198.453C198.546 14.7433 198.639 14.7783 198.733 14.825C198.826 14.8717 198.908 14.93 198.978 15C199.141 15.1633 199.304 15.245 199.468 15.245C199.538 15.245 199.596 15.2917 199.643 15.385V15.49C199.643 15.56 199.619 15.595 199.573 15.595C199.573 15.595 199.561 15.6067 199.538 15.63C199.514 15.63 199.503 15.6417 199.503 15.665C199.549 15.7117 199.596 15.735 199.643 15.735V15.77C199.666 15.8167 199.654 15.8983 199.608 16.015C199.538 16.085 199.538 16.1667 199.608 16.26C199.701 16.4 199.713 16.5283 199.643 16.645C199.573 16.785 199.503 16.925 199.433 17.065C199.363 17.205 199.293 17.3333 199.223 17.45C199.083 17.66 198.919 17.8117 198.733 17.905C198.639 17.9283 198.523 17.9633 198.383 18.01C198.266 18.0333 198.149 18.0567 198.033 18.08C197.729 18.1267 197.414 18.1733 197.088 18.22C196.784 18.2667 196.469 18.3133 196.143 18.36C196.026 18.3833 195.909 18.4067 195.793 18.43C195.676 18.43 195.559 18.4417 195.443 18.465C195.209 18.4883 194.976 18.5117 194.743 18.535C194.509 18.5583 194.276 18.5933 194.043 18.64H193.763C193.646 18.6633 193.518 18.6867 193.378 18.71C193.261 18.71 193.144 18.71 193.028 18.71C192.841 18.71 192.654 18.7217 192.468 18.745C192.281 18.745 192.094 18.7567 191.908 18.78C191.791 18.8033 191.674 18.815 191.558 18.815C191.441 18.815 191.324 18.815 191.208 18.815C190.974 18.815 190.729 18.815 190.473 18.815C190.239 18.7917 189.994 18.7683 189.738 18.745C189.458 18.7217 189.178 18.71 188.898 18.71C188.641 18.71 188.373 18.71 188.093 18.71H186.798C186.681 18.71 186.599 18.7217 186.553 18.745C186.319 18.7683 186.074 18.7917 185.818 18.815C185.584 18.815 185.339 18.815 185.083 18.815H184.978C184.814 18.8617 184.733 18.9433 184.733 19.06C184.733 19.1533 184.733 19.2467 184.733 19.34C184.733 19.41 184.744 19.48 184.768 19.55C184.814 19.9 184.849 20.25 184.873 20.6C184.919 20.9267 184.943 21.2533 184.943 21.58C184.943 21.7433 184.943 21.895 184.943 22.035C184.943 22.175 184.954 22.3267 184.978 22.49C184.978 22.8633 184.989 23.2367 185.013 23.61C185.059 23.9833 185.071 24.3683 185.048 24.765C185.048 24.9283 185.048 25.0917 185.048 25.255C185.071 25.4183 185.094 25.5933 185.118 25.78C185.141 25.9433 185.141 26.1067 185.118 26.27C185.118 26.41 185.129 26.5733 185.153 26.76C185.153 26.8533 185.153 26.9583 185.153 27.075C185.176 27.1683 185.199 27.2733 185.223 27.39C185.246 27.46 185.246 27.53 185.223 27.6C185.223 27.67 185.234 27.74 185.258 27.81C185.258 27.9033 185.258 27.9967 185.258 28.09C185.258 28.16 185.269 28.2417 185.293 28.335C185.316 28.545 185.258 28.72 185.118 28.86C185.094 28.93 185.059 28.9883 185.013 29.035C184.989 29.105 184.966 29.1633 184.943 29.21C184.896 29.3267 184.826 29.42 184.733 29.49C184.639 29.5833 184.534 29.665 184.418 29.735C184.394 29.7583 184.359 29.77 184.313 29.77C184.266 29.7933 184.219 29.8167 184.173 29.84C184.033 29.8867 183.928 29.9333 183.858 29.98C183.811 30.0733 183.741 30.1317 183.648 30.155C183.578 30.1783 183.496 30.2133 183.403 30.26C183.309 30.2833 183.204 30.295 183.088 30.295C182.994 30.3183 182.901 30.33 182.808 30.33ZM206.399 29.245C206.259 29.245 206.166 29.2333 206.119 29.21C206.003 29.1633 205.886 29.14 205.769 29.14C205.676 29.1633 205.571 29.175 205.454 29.175C205.431 29.175 205.408 29.175 205.384 29.175C205.361 29.1983 205.338 29.21 205.314 29.21C205.151 29.2333 204.988 29.245 204.824 29.245C204.684 29.245 204.544 29.2217 204.404 29.175C204.381 29.1517 204.358 29.14 204.334 29.14C204.171 29.1633 204.031 29.1167 203.914 29C203.798 28.8833 203.681 28.7783 203.564 28.685C203.448 28.5683 203.389 28.44 203.389 28.3L203.284 28.02C203.214 27.8567 203.191 27.705 203.214 27.565C203.238 27.5183 203.238 27.4717 203.214 27.425C203.214 27.3783 203.214 27.3317 203.214 27.285C203.191 27.2383 203.179 27.1917 203.179 27.145C203.179 27.075 203.168 27.0167 203.144 26.97C203.098 26.76 203.063 26.55 203.039 26.34C203.039 26.1067 203.051 25.885 203.074 25.675C203.098 25.535 203.179 25.3017 203.319 24.975C203.459 24.625 203.541 24.415 203.564 24.345C203.634 24.2283 203.669 24.135 203.669 24.065C203.646 23.8083 203.634 23.5517 203.634 23.295C203.658 23.015 203.669 22.7467 203.669 22.49C203.669 22.3267 203.704 22.1983 203.774 22.105C203.868 21.9417 203.879 21.7667 203.809 21.58L203.704 21.195C203.564 20.9383 203.576 20.7167 203.739 20.53C203.739 20.5067 203.739 20.495 203.739 20.495C203.763 20.4717 203.774 20.4483 203.774 20.425C203.821 20.3783 203.833 20.32 203.809 20.25C203.786 20.1567 203.774 20.0867 203.774 20.04C203.774 19.9467 203.786 19.8533 203.809 19.76C203.856 19.6433 203.868 19.5383 203.844 19.445C203.844 19.445 203.821 19.4217 203.774 19.375C203.751 19.3283 203.739 19.235 203.739 19.095C203.763 18.955 203.774 18.8733 203.774 18.85V17.87C203.798 17.7533 203.809 17.6483 203.809 17.555C203.809 17.4383 203.821 17.3217 203.844 17.205C203.868 17.065 203.868 16.925 203.844 16.785C203.844 16.6217 203.844 16.4583 203.844 16.295C203.821 16.1783 203.798 16.05 203.774 15.91C203.774 15.77 203.774 15.63 203.774 15.49C203.751 15.4433 203.739 15.385 203.739 15.315C203.739 15.245 203.739 15.1867 203.739 15.14C203.716 15.0233 203.693 14.9067 203.669 14.79C203.669 14.6733 203.669 14.5567 203.669 14.44C203.669 14.3933 203.623 14.2417 203.529 13.985C203.436 13.705 203.401 13.4717 203.424 13.285C203.448 13.2383 203.459 13.18 203.459 13.11C203.459 13.04 203.436 12.9817 203.389 12.935C203.343 12.9117 203.319 12.865 203.319 12.795V12.69C203.389 12.41 203.354 12.13 203.214 11.85C203.121 11.71 203.086 11.57 203.109 11.43C203.109 11.2433 203.028 11.1033 202.864 11.01C202.748 10.8933 202.643 10.7533 202.549 10.59C202.456 10.4267 202.398 10.2633 202.374 10.1C202.351 9.98333 202.339 9.86667 202.339 9.75C202.339 9.63333 202.339 9.52833 202.339 9.435C202.339 9.34167 202.351 9.28333 202.374 9.26C202.468 9.16667 202.514 9.06167 202.514 8.945C202.514 8.805 202.526 8.7 202.549 8.63C202.573 8.60667 202.596 8.595 202.619 8.595C202.643 8.595 202.666 8.58333 202.689 8.56C202.783 8.53667 202.829 8.455 202.829 8.315C202.783 8.22167 202.759 8.14 202.759 8.07C202.736 7.97666 202.771 7.895 202.864 7.825C202.911 7.73167 202.969 7.70833 203.039 7.755C203.203 7.825 203.389 7.80167 203.599 7.685C203.693 7.63833 203.751 7.615 203.774 7.615C203.844 7.615 203.879 7.615 203.879 7.615C203.903 7.59167 203.973 7.58 204.089 7.58C204.229 7.60333 204.358 7.55667 204.474 7.44C204.638 7.27667 204.836 7.195 205.069 7.195H207.239C207.776 7.21833 208.313 7.21833 208.849 7.195C209.386 7.17167 209.911 7.16 210.424 7.16C210.541 7.16 210.634 7.16 210.704 7.16C210.798 7.13667 210.891 7.11333 210.984 7.09C211.124 7.02 211.288 6.985 211.474 6.985H212.279C212.466 6.985 212.629 6.985 212.769 6.985C212.933 6.96167 213.096 6.93833 213.259 6.915C213.353 6.89167 213.434 6.88 213.504 6.88C213.598 6.88 213.691 6.88 213.784 6.88C213.878 6.88 213.971 6.88 214.064 6.88C214.158 6.88 214.251 6.86833 214.344 6.845C214.531 6.82167 214.729 6.81 214.939 6.81C215.149 6.78667 215.348 6.775 215.534 6.775C215.628 6.775 215.709 6.775 215.779 6.775C215.873 6.75167 215.966 6.72833 216.059 6.705C216.246 6.65833 216.421 6.635 216.584 6.635C216.771 6.61166 216.946 6.58833 217.109 6.565C217.296 6.54167 217.471 6.51833 217.634 6.495C217.821 6.47167 217.996 6.44833 218.159 6.425C218.369 6.425 218.521 6.44833 218.614 6.495C218.754 6.58833 218.883 6.67 218.999 6.74C219.139 6.81 219.268 6.90333 219.384 7.02C219.478 7.11333 219.536 7.195 219.559 7.265C219.583 7.35833 219.606 7.45167 219.629 7.545C219.653 7.63833 219.676 7.74333 219.699 7.86V8.105C219.676 8.22167 219.653 8.35 219.629 8.49C219.629 8.60667 219.618 8.735 219.594 8.875C219.548 8.96833 219.489 9.05 219.419 9.12L218.789 9.75C218.556 9.82 218.323 9.86667 218.089 9.89C217.879 9.91333 217.658 9.91333 217.424 9.89H217.179C217.063 9.91333 216.946 9.925 216.829 9.925C216.713 9.925 216.596 9.91333 216.479 9.89C216.339 9.86667 216.199 9.86667 216.059 9.89C215.919 9.89 215.779 9.89 215.639 9.89C215.546 9.89 215.453 9.90167 215.359 9.925C215.289 9.925 215.208 9.91333 215.114 9.89C214.998 9.86667 214.881 9.86667 214.764 9.89C214.671 9.89 214.566 9.90167 214.449 9.925C214.356 9.925 214.251 9.93667 214.134 9.96C214.041 9.96 213.936 9.96 213.819 9.96C213.516 10.0067 213.189 10.03 212.839 10.03C212.513 10.03 212.186 10.0533 211.859 10.1C211.649 10.0767 211.451 10.0883 211.264 10.135C211.078 10.1583 210.879 10.1817 210.669 10.205C210.483 10.2283 210.284 10.24 210.074 10.24C209.864 10.24 209.666 10.2633 209.479 10.31C209.246 10.31 209.013 10.345 208.779 10.415C208.569 10.4617 208.348 10.4967 208.114 10.52L207.869 10.555C207.706 10.555 207.554 10.5783 207.414 10.625C207.274 10.6483 207.123 10.6833 206.959 10.73C206.866 10.7533 206.773 10.7767 206.679 10.8C206.586 10.8 206.481 10.8117 206.364 10.835C206.294 10.835 206.213 10.8583 206.119 10.905C206.049 10.9283 206.014 10.9983 206.014 11.115L206.119 11.43C206.143 11.4767 206.131 11.5933 206.084 11.78C206.061 11.9667 206.038 12.1067 206.014 12.2C206.014 12.27 206.026 12.34 206.049 12.41C206.073 12.48 206.096 12.55 206.119 12.62C206.189 12.8067 206.224 13.0167 206.224 13.25C206.224 13.46 206.248 13.6583 206.294 13.845C206.318 13.9383 206.329 14.0433 206.329 14.16C206.329 14.2533 206.341 14.3583 206.364 14.475C206.364 14.5217 206.364 14.58 206.364 14.65C206.388 14.6967 206.399 14.755 206.399 14.825C206.399 14.895 206.388 14.9417 206.364 14.965C206.294 15.0583 206.259 15.1633 206.259 15.28C206.259 15.3967 206.259 15.5133 206.259 15.63C206.376 15.8633 206.434 16.0967 206.434 16.33C206.434 16.5633 206.434 16.7967 206.434 17.03C206.434 17.1 206.493 17.1233 206.609 17.1H206.644C206.691 17.0067 206.738 16.9367 206.784 16.89C206.854 16.89 206.936 16.8667 207.029 16.82C207.099 16.7733 207.193 16.75 207.309 16.75C207.496 16.7733 207.671 16.7733 207.834 16.75C207.998 16.7033 208.161 16.6567 208.324 16.61C209.421 16.33 210.448 15.9683 211.404 15.525C211.661 15.4083 211.929 15.315 212.209 15.245C212.489 15.1517 212.769 15.0933 213.049 15.07H213.154C213.364 15.0467 213.574 15.0233 213.784 15C213.994 14.9767 214.204 14.965 214.414 14.965C214.694 14.9417 214.963 14.9067 215.219 14.86C215.499 14.8133 215.779 14.7783 216.059 14.755C216.223 14.7083 216.374 14.6733 216.514 14.65C216.654 14.6033 216.806 14.545 216.969 14.475C217.273 14.3583 217.553 14.3 217.809 14.3C217.996 14.3233 218.171 14.37 218.334 14.44C218.498 14.4867 218.661 14.5567 218.824 14.65C219.174 14.8833 219.349 15.2333 219.349 15.7C219.349 15.8867 219.326 16.0733 219.279 16.26C219.256 16.4467 219.244 16.6333 219.244 16.82C219.244 16.8667 219.221 16.9133 219.174 16.96L219.069 17.135C219.046 17.2283 219.023 17.3217 218.999 17.415C218.976 17.5083 218.918 17.5783 218.824 17.625C218.684 17.7417 218.533 17.87 218.369 18.01C218.229 18.1267 218.066 18.2083 217.879 18.255C217.786 18.2783 217.693 18.3017 217.599 18.325C217.529 18.3483 217.448 18.36 217.354 18.36C216.981 18.36 216.596 18.3833 216.199 18.43C215.826 18.4767 215.441 18.5233 215.044 18.57C214.741 18.5933 214.438 18.6283 214.134 18.675C213.854 18.7217 213.563 18.745 213.259 18.745C212.979 18.745 212.664 18.8033 212.314 18.92C212.081 18.9667 211.836 19.0133 211.579 19.06C211.323 19.1067 211.066 19.1417 210.809 19.165C210.623 19.1883 210.424 19.2233 210.214 19.27C210.028 19.2933 209.841 19.3167 209.654 19.34L209.059 19.445C209.013 19.4683 208.943 19.48 208.849 19.48C208.686 19.5267 208.523 19.5617 208.359 19.585C208.196 19.6083 208.033 19.6433 207.869 19.69C207.706 19.7133 207.543 19.7483 207.379 19.795C207.239 19.8417 207.088 19.8883 206.924 19.935C206.808 19.9583 206.714 20.005 206.644 20.075C206.574 20.1217 206.516 20.1917 206.469 20.285C206.446 20.355 206.446 20.425 206.469 20.495C206.493 20.5883 206.481 20.6817 206.434 20.775C206.458 21.0083 206.469 21.2417 206.469 21.475C206.493 21.7083 206.493 21.9417 206.469 22.175C206.516 22.3617 206.528 22.5483 206.504 22.735C206.504 22.9217 206.493 23.1083 206.469 23.295C206.423 23.575 206.434 23.8083 206.504 23.995C206.574 24.2983 206.551 24.6133 206.434 24.94C206.388 25.08 206.388 25.1733 206.434 25.22C206.481 25.29 206.481 25.3717 206.434 25.465V25.675C206.411 25.8617 206.493 25.955 206.679 25.955H206.749C206.913 25.955 207.076 26.0133 207.239 26.13C207.356 26.2467 207.496 26.2817 207.659 26.235L208.639 26.13C208.779 26.1067 208.919 26.095 209.059 26.095C209.199 26.0717 209.339 26.06 209.479 26.06C209.526 26.0367 209.596 26.0483 209.689 26.095C209.806 26.165 209.911 26.1767 210.004 26.13C210.051 26.0833 210.109 26.0483 210.179 26.025C210.273 26.0017 210.343 25.9667 210.389 25.92C210.529 25.78 210.704 25.7333 210.914 25.78C211.101 25.8267 211.253 25.815 211.369 25.745C211.579 25.675 211.778 25.6517 211.964 25.675C212.081 25.6983 212.198 25.6867 212.314 25.64C212.431 25.5933 212.548 25.57 212.664 25.57C212.711 25.57 212.746 25.5817 212.769 25.605C212.793 25.605 212.816 25.5933 212.839 25.57C212.886 25.57 212.933 25.5583 212.979 25.535C213.026 25.5117 213.061 25.5 213.084 25.5C213.248 25.43 213.399 25.4067 213.539 25.43C213.656 25.43 213.714 25.43 213.714 25.43C213.808 25.4067 213.889 25.4067 213.959 25.43C214.053 25.4533 214.134 25.4883 214.204 25.535C214.321 25.5583 214.414 25.5933 214.484 25.64C214.578 25.6867 214.671 25.7217 214.764 25.745C214.811 25.745 214.846 25.7567 214.869 25.78C214.986 25.8733 215.126 25.955 215.289 26.025C215.476 26.095 215.581 26.1767 215.604 26.27C215.651 26.41 215.674 26.55 215.674 26.69C215.674 26.8067 215.686 26.935 215.709 27.075C215.709 27.145 215.698 27.215 215.674 27.285C215.674 27.355 215.663 27.425 215.639 27.495C215.593 27.5883 215.534 27.6933 215.464 27.81C215.418 27.9267 215.348 28.0317 215.254 28.125C215.208 28.1717 215.161 28.2183 215.114 28.265C215.091 28.3117 215.056 28.3583 215.009 28.405C214.916 28.4983 214.811 28.58 214.694 28.65C214.578 28.72 214.449 28.755 214.309 28.755C214.216 28.755 214.146 28.7667 214.099 28.79C214.006 28.8367 213.913 28.86 213.819 28.86C213.726 28.86 213.621 28.86 213.504 28.86C213.341 28.8833 213.178 28.9067 213.014 28.93C212.874 28.93 212.723 28.9183 212.559 28.895C212.466 28.8717 212.384 28.8717 212.314 28.895C212.081 28.965 211.848 28.9767 211.614 28.93C211.381 28.93 211.148 28.9417 210.914 28.965C210.704 28.965 210.494 28.965 210.284 28.965H209.829C209.759 28.965 209.701 28.9767 209.654 29C209.561 29.0467 209.444 29.07 209.304 29.07C209.188 29.07 209.071 29.0583 208.954 29.035H208.604C208.581 29.035 208.546 29.035 208.499 29.035C208.453 29.0583 208.406 29.0583 208.359 29.035C208.289 29.0117 208.219 29 208.149 29C208.103 29.0233 208.044 29.0467 207.974 29.07C207.928 29.07 207.881 29.07 207.834 29.07C207.811 29.0933 207.776 29.105 207.729 29.105C207.496 29.0817 207.274 29.0817 207.064 29.105C206.854 29.1517 206.633 29.1983 206.399 29.245Z" fill="#353535"/>
</svg>
