<svg width="186" height="26" viewBox="0 0 186 26" fill="none" xmlns="http://www.w3.org/2000/svg">
<path d="M17.8839 22.3C17.7639 22.28 17.6439 22.27 17.5239 22.27C17.4039 22.27 17.2939 22.24 17.1939 22.18C17.0339 22.12 16.9039 22.05 16.8039 21.97C16.6039 21.79 16.4239 21.58 16.2639 21.34C16.2439 21.3 16.2239 21.25 16.2039 21.19C16.1839 21.13 16.1539 21.08 16.1139 21.04C16.0339 20.86 15.9539 20.68 15.8739 20.5C15.7939 20.32 15.7039 20.14 15.6039 19.96C15.5039 19.78 15.4039 19.6 15.3039 19.42C15.2039 19.24 15.1039 19.06 15.0039 18.88C14.9039 18.7 14.8039 18.52 14.7039 18.34C14.6039 18.16 14.5139 17.97 14.4339 17.77L14.2539 17.47C14.1739 17.33 14.0939 17.19 14.0139 17.05C13.9339 16.91 13.8739 16.77 13.8339 16.63C13.8139 16.57 13.7639 16.48 13.6839 16.36L13.4139 15.91C13.3539 15.77 13.2839 15.63 13.2039 15.49C13.1439 15.35 13.0639 15.22 12.9639 15.1L12.7839 14.83C12.4639 14.31 12.1639 13.77 11.8839 13.21C11.8239 13.09 11.7539 12.97 11.6739 12.85C11.6139 12.73 11.5439 12.61 11.4639 12.49C11.4439 12.41 11.4039 12.34 11.3439 12.28C11.3039 12.22 11.2639 12.16 11.2239 12.1C11.1839 12.04 11.1339 12.04 11.0739 12.1C11.0539 12.16 11.0339 12.22 11.0139 12.28C10.9939 12.32 10.9739 12.37 10.9539 12.43C10.8739 12.65 10.8039 12.87 10.7439 13.09C10.6839 13.31 10.6239 13.53 10.5639 13.75C10.5239 13.95 10.4739 14.14 10.4139 14.32C10.3539 14.5 10.3039 14.68 10.2639 14.86C10.2439 15 10.2239 15.14 10.2039 15.28C10.1839 15.4 10.1539 15.52 10.1139 15.64C10.1139 15.7 10.1039 15.76 10.0839 15.82C10.0839 15.86 10.0739 15.91 10.0539 15.97C9.97395 16.27 9.91395 16.58 9.87395 16.9C9.85395 17.2 9.82395 17.51 9.78395 17.83V18.01C9.80395 18.09 9.80395 18.16 9.78395 18.22C9.78395 18.28 9.77395 18.34 9.75395 18.4C9.69395 18.56 9.68395 18.74 9.72395 18.94C9.74395 19.02 9.75395 19.1 9.75395 19.18C9.77395 19.26 9.77395 19.34 9.75395 19.42C9.73395 19.62 9.71395 19.82 9.69395 20.02C9.69395 20.2 9.69395 20.38 9.69395 20.56C9.69395 20.74 9.66395 20.92 9.60395 21.1C9.56395 21.18 9.51395 21.23 9.45395 21.25C9.37395 21.33 9.32395 21.4 9.30395 21.46C9.28395 21.54 9.23395 21.6 9.15395 21.64C9.09395 21.68 9.04395 21.72 9.00395 21.76C8.98395 21.78 8.95395 21.79 8.91395 21.79C8.85395 21.79 8.81395 21.8 8.79395 21.82C8.73395 21.84 8.67395 21.86 8.61395 21.88C8.57395 21.9 8.53395 21.92 8.49395 21.94C8.43395 21.94 8.36395 21.94 8.28395 21.94C8.22395 21.92 8.16395 21.91 8.10395 21.91C7.88395 21.89 7.72395 21.86 7.62395 21.82C7.52395 21.78 7.38395 21.65 7.20395 21.43C7.18395 21.37 7.15395 21.32 7.11395 21.28C7.07395 21.22 7.03395 21.16 6.99395 21.1C6.85395 20.92 6.76395 20.72 6.72395 20.5C6.70395 20.22 6.64395 19.94 6.54395 19.66C6.46395 19.38 6.36395 19.11 6.24395 18.85C6.22395 18.77 6.19395 18.69 6.15395 18.61C6.13395 18.53 6.10395 18.46 6.06395 18.4C5.92395 18.08 5.78395 17.77 5.64395 17.47C5.52395 17.15 5.39395 16.83 5.25395 16.51C5.23395 16.49 5.22395 16.47 5.22395 16.45C5.22395 16.43 5.21395 16.41 5.19395 16.39C5.07395 16.21 4.96395 16.03 4.86395 15.85C4.78395 15.65 4.69395 15.45 4.59395 15.25C4.49395 15.03 4.36395 14.8 4.20395 14.56C4.16395 14.46 4.11395 14.37 4.05395 14.29C4.01395 14.21 3.97395 14.13 3.93395 14.05C3.91395 14.01 3.89395 13.96 3.87395 13.9C3.87395 13.84 3.85395 13.79 3.81395 13.75C3.65395 13.53 3.51395 13.29 3.39395 13.03C3.29395 12.77 3.17395 12.52 3.03395 12.28L2.70395 11.74C2.64395 11.64 2.57395 11.54 2.49395 11.44C2.43395 11.34 2.37395 11.25 2.31395 11.17C2.25395 11.07 2.19395 10.99 2.13395 10.93C2.07395 10.85 2.02395 10.77 1.98395 10.69C1.90395 10.57 1.82395 10.46 1.74395 10.36C1.66395 10.24 1.59395 10.13 1.53395 10.03C1.45395 9.91 1.37395 9.8 1.29395 9.7C1.21395 9.58 1.13395 9.47 1.05395 9.37C0.913945 9.15 0.803945 8.94 0.723945 8.74C0.703945 8.64 0.703945 8.55 0.723945 8.47C0.763945 8.31 0.793945 8.16 0.813945 8.02C0.853945 7.86 0.893945 7.71 0.933945 7.57L1.02395 7.45C1.10395 7.37 1.17395 7.3 1.23395 7.24C1.31395 7.18 1.39395 7.12 1.47395 7.06C1.55395 7.02 1.60395 7 1.62395 7C1.84395 6.92 2.05395 6.88 2.25395 6.88C2.45395 6.88 2.65395 6.93 2.85395 7.03C2.95395 7.07 3.05395 7.12 3.15395 7.18C3.37395 7.3 3.51395 7.46 3.57395 7.66C3.61395 7.76 3.65395 7.86 3.69395 7.96C3.75395 8.06 3.79395 8.16 3.81395 8.26C3.97395 8.68 4.19395 9.08 4.47395 9.46C4.63395 9.68 4.80395 9.93 4.98395 10.21C5.02395 10.23 5.05395 10.26 5.07395 10.3C5.09395 10.34 5.11395 10.37 5.13395 10.39C5.25395 10.53 5.36395 10.69 5.46395 10.87C5.56395 11.05 5.65395 11.22 5.73395 11.38C5.81395 11.52 5.87395 11.66 5.91395 11.8C5.97395 11.92 6.03395 12.05 6.09395 12.19C6.25395 12.55 6.40395 12.91 6.54395 13.27C6.68395 13.63 6.82395 13.98 6.96395 14.32C7.00395 14.44 7.05395 14.55 7.11395 14.65C7.17395 14.75 7.22395 14.86 7.26395 14.98C7.26395 14.98 7.26395 14.99 7.26395 15.01C7.28395 15.01 7.29395 15 7.29395 14.98C7.33395 14.98 7.35395 14.97 7.35395 14.95C7.45395 14.79 7.51395 14.64 7.53395 14.5L7.80395 13.54C7.84395 13.42 7.88395 13.3 7.92395 13.18C7.96395 13.06 8.00395 12.93 8.04395 12.79C8.16395 12.51 8.25395 12.23 8.31395 11.95C8.33395 11.79 8.39395 11.62 8.49395 11.44C8.55395 11.34 8.58395 11.23 8.58395 11.11L8.67395 10.81C8.79395 10.45 8.91395 10.09 9.03395 9.73C9.15395 9.37 9.29395 9.03 9.45395 8.71C9.51395 8.59 9.57395 8.48 9.63395 8.38C9.69395 8.26 9.75395 8.15 9.81395 8.05C9.85395 7.97 9.90395 7.9 9.96395 7.84C10.0239 7.78 10.0939 7.74 10.1739 7.72C10.2539 7.62 10.3439 7.56 10.4439 7.54C10.5439 7.52 10.6339 7.48 10.7139 7.42C10.7339 7.4 10.7839 7.39 10.8639 7.39C10.9239 7.39 10.9939 7.41 11.0739 7.45C11.1739 7.49 11.2639 7.48 11.3439 7.42C11.4439 7.34 11.5339 7.36 11.6139 7.48C11.6539 7.56 11.7039 7.63 11.7639 7.69C11.8439 7.73 11.9139 7.77 11.9739 7.81C12.0139 7.85 12.0539 7.89 12.0939 7.93C12.1539 7.97 12.1939 8.02 12.2139 8.08L13.2039 9.79C13.3039 9.95 13.4039 10.12 13.5039 10.3C13.6039 10.46 13.6939 10.63 13.7739 10.81C13.8539 10.91 13.9139 11.02 13.9539 11.14C14.0139 11.26 14.0739 11.39 14.1339 11.53C14.2539 11.85 14.4239 12.17 14.6439 12.49C14.6839 12.55 14.7239 12.61 14.7639 12.67C14.8039 12.73 14.8339 12.79 14.8539 12.85C14.9539 13.09 15.0639 13.33 15.1839 13.57C15.3239 13.81 15.4539 14.06 15.5739 14.32C15.5939 14.36 15.6139 14.41 15.6339 14.47C15.6739 14.53 15.7039 14.58 15.7239 14.62C15.8239 14.88 15.9439 15.14 16.0839 15.4C16.2239 15.64 16.3639 15.88 16.5039 16.12C16.5239 16.16 16.5739 16.22 16.6539 16.3C16.6539 16.3 16.6639 16.3 16.6839 16.3C16.7039 16.3 16.7139 16.29 16.7139 16.27C16.7339 16.25 16.7639 16.2 16.8039 16.12C16.8639 15.94 16.9239 15.77 16.9839 15.61C17.0439 15.43 17.0839 15.25 17.1039 15.07C17.1439 14.91 17.1839 14.78 17.2239 14.68C17.3239 14.36 17.4139 14.05 17.4939 13.75C17.5739 13.43 17.6539 13.11 17.7339 12.79C17.7739 12.67 17.8139 12.55 17.8539 12.43C17.8939 12.29 17.9339 12.16 17.9739 12.04C18.0939 11.62 18.2139 11.21 18.3339 10.81C18.4539 10.39 18.5639 9.97 18.6639 9.55L19.0239 8.05C19.0639 7.93 19.0639 7.81 19.0239 7.69C18.9839 7.59 18.9939 7.51 19.0539 7.45C19.1339 7.35 19.1939 7.24 19.2339 7.12C19.2739 7 19.3139 6.89 19.3539 6.79C19.4139 6.59 19.4939 6.37 19.5939 6.13C19.6139 6.07 19.6439 6.01 19.6839 5.95C19.7239 5.89 19.7539 5.83 19.7739 5.77C19.8539 5.65 19.9439 5.58 20.0439 5.56C20.1039 5.52 20.1639 5.49 20.2239 5.47C20.2839 5.43 20.3439 5.4 20.4039 5.38C20.4239 5.36 20.4439 5.35 20.4639 5.35C20.5039 5.35 20.5339 5.34 20.5539 5.32C20.6539 5.28 20.7539 5.26 20.8539 5.26C20.9739 5.24 21.0739 5.2 21.1539 5.14C21.2739 5.06 21.4139 5.07 21.5739 5.17C21.7339 5.29 21.8639 5.4 21.9639 5.5C22.0839 5.62 22.1639 5.8 22.2039 6.04C22.2239 6.1 22.2339 6.16 22.2339 6.22C22.2339 6.28 22.2339 6.34 22.2339 6.4C22.1939 6.84 22.1039 7.27 21.9639 7.69C21.9239 7.81 21.8839 7.94 21.8439 8.08C21.8039 8.2 21.7639 8.32 21.7239 8.44C21.7239 8.46 21.7139 8.49 21.6939 8.53C21.6939 8.55 21.6939 8.58 21.6939 8.62C21.6739 8.94 21.6239 9.26 21.5439 9.58C21.4639 9.9 21.3739 10.21 21.2739 10.51C21.1939 10.77 21.1239 11.03 21.0639 11.29C21.0039 11.55 20.9339 11.81 20.8539 12.07C20.8339 12.11 20.8139 12.17 20.7939 12.25C20.7939 12.31 20.7739 12.36 20.7339 12.4C20.6739 12.52 20.6339 12.65 20.6139 12.79C20.5939 12.91 20.5639 13.04 20.5239 13.18C20.5039 13.26 20.4839 13.34 20.4639 13.42C20.4639 13.48 20.4439 13.55 20.4039 13.63C20.3439 13.85 20.2839 14.08 20.2239 14.32C20.1639 14.54 20.1139 14.76 20.0739 14.98L19.8039 16C19.7839 16.08 19.7639 16.16 19.7439 16.24C19.7439 16.3 19.7339 16.37 19.7139 16.45C19.7139 16.51 19.7039 16.57 19.6839 16.63C19.6839 16.69 19.6739 16.76 19.6539 16.84C19.6339 16.96 19.6039 17.09 19.5639 17.23C19.5439 17.35 19.5239 17.48 19.5039 17.62C19.4839 17.76 19.4639 17.9 19.4439 18.04C19.4239 18.16 19.4039 18.3 19.3839 18.46C19.3839 18.54 19.3739 18.62 19.3539 18.7C19.3539 18.78 19.3539 18.87 19.3539 18.97L19.2639 19.6C19.2639 19.8 19.2539 19.99 19.2339 20.17C19.2139 20.35 19.1839 20.54 19.1439 20.74C19.1239 20.78 19.1139 20.83 19.1139 20.89C19.1139 20.95 19.1139 21 19.1139 21.04C19.1139 21.22 19.0739 21.36 18.9939 21.46C18.9739 21.52 18.9439 21.58 18.9039 21.64C18.8639 21.7 18.8239 21.76 18.7839 21.82L18.6339 21.97C18.5739 21.99 18.5139 22.02 18.4539 22.06C18.3939 22.12 18.3339 22.17 18.2739 22.21C18.1539 22.27 18.0239 22.3 17.8839 22.3ZM36.465 24.19C36.285 24.19 36.125 24.12 35.985 23.98C35.945 23.92 35.905 23.86 35.865 23.8C35.825 23.74 35.785 23.68 35.745 23.62C35.565 23.2 35.475 22.76 35.475 22.3L35.385 21.58C35.325 21.3 35.275 21.02 35.235 20.74C35.195 20.46 35.125 20.19 35.025 19.93L34.845 19.42C34.845 19.38 34.835 19.34 34.815 19.3C34.815 19.26 34.805 19.22 34.785 19.18L34.335 17.59C34.315 17.55 34.295 17.5 34.275 17.44C34.275 17.38 34.255 17.33 34.215 17.29C34.155 17.17 34.105 17.05 34.065 16.93C34.045 16.79 34.015 16.65 33.975 16.51C33.955 16.41 33.935 16.32 33.915 16.24C33.895 16.14 33.865 16.04 33.825 15.94C33.785 15.82 33.745 15.75 33.705 15.73C33.665 15.69 33.575 15.69 33.435 15.73C33.335 15.75 33.225 15.77 33.105 15.79C33.005 15.79 32.905 15.81 32.805 15.85C32.725 15.87 32.625 15.89 32.505 15.91C32.405 15.91 32.305 15.92 32.205 15.94L31.785 16.03C31.685 16.05 31.575 16.08 31.455 16.12C31.355 16.14 31.255 16.15 31.155 16.15L30.615 16.24C30.455 16.28 30.285 16.32 30.105 16.36C29.925 16.4 29.755 16.44 29.595 16.48C29.115 16.6 28.635 16.69 28.155 16.75C27.995 16.79 27.905 16.86 27.885 16.96C27.865 16.96 27.855 16.97 27.855 16.99C27.735 17.31 27.595 17.63 27.435 17.95C27.295 18.25 27.145 18.56 26.985 18.88C26.945 18.96 26.905 19.04 26.865 19.12C26.845 19.18 26.815 19.25 26.775 19.33C26.755 19.37 26.735 19.42 26.715 19.48C26.695 19.52 26.675 19.56 26.655 19.6C26.535 19.74 26.475 19.91 26.475 20.11C26.455 20.23 26.415 20.35 26.355 20.47C26.295 20.57 26.235 20.67 26.175 20.77C26.155 20.83 26.115 20.86 26.055 20.86C25.975 20.88 25.895 20.91 25.815 20.95C25.735 20.99 25.645 21.03 25.545 21.07C25.485 21.09 25.425 21.09 25.365 21.07C25.325 21.05 25.275 21.03 25.215 21.01C25.175 20.97 25.135 20.95 25.095 20.95C24.875 20.93 24.715 20.8 24.615 20.56C24.455 20.24 24.345 19.92 24.285 19.6C24.265 19.52 24.265 19.45 24.285 19.39C24.325 19.33 24.355 19.27 24.375 19.21C24.495 19.13 24.565 19.04 24.585 18.94V18.91C24.585 18.65 24.635 18.41 24.735 18.19C24.855 17.95 24.955 17.72 25.035 17.5C25.075 17.38 25.125 17.26 25.185 17.14C25.245 17.02 25.305 16.9 25.365 16.78C25.445 16.64 25.505 16.51 25.545 16.39C25.605 16.25 25.655 16.11 25.695 15.97C25.755 15.81 25.755 15.66 25.695 15.52C25.655 15.4 25.635 15.29 25.635 15.19C25.635 15.07 25.645 14.95 25.665 14.83C25.665 14.61 25.745 14.42 25.905 14.26C25.985 14.16 26.065 14.08 26.145 14.02C26.245 13.94 26.335 13.86 26.415 13.78C26.595 13.6 26.735 13.36 26.835 13.06C26.915 12.8 26.975 12.54 27.015 12.28C27.075 12 27.135 11.73 27.195 11.47C27.235 11.21 27.275 10.96 27.315 10.72C27.375 10.46 27.435 10.21 27.495 9.97C27.515 9.87 27.535 9.78 27.555 9.7C27.595 9.6 27.625 9.51 27.645 9.43C27.705 9.27 27.765 9.12 27.825 8.98C27.885 8.82 27.925 8.66 27.945 8.5C27.985 8.42 27.985 8.35 27.945 8.29C27.925 8.19 27.925 8.1 27.945 8.02C27.985 7.94 28.015 7.86 28.035 7.78C28.095 7.64 28.135 7.5 28.155 7.36C28.195 7.22 28.245 7.08 28.305 6.94C28.405 6.68 28.485 6.47 28.545 6.31C28.625 6.13 28.695 5.93 28.755 5.71C28.795 5.59 28.835 5.48 28.875 5.38C28.935 5.26 28.975 5.14 28.995 5.02C29.055 4.84 29.105 4.66 29.145 4.48C29.185 4.28 29.205 4.09 29.205 3.91C29.245 3.75 29.285 3.64 29.325 3.58C29.425 3.38 29.545 3.21 29.685 3.07C29.845 2.93 29.995 2.79 30.135 2.65C30.235 2.59 30.335 2.55 30.435 2.53C30.535 2.49 30.635 2.5 30.735 2.56C30.815 2.6 30.865 2.62 30.885 2.62C31.065 2.6 31.215 2.64 31.335 2.74C31.455 2.84 31.555 2.96 31.635 3.1C31.675 3.14 31.705 3.19 31.725 3.25C31.745 3.31 31.765 3.36 31.785 3.4C31.885 3.56 31.935 3.72 31.935 3.88C31.935 3.96 31.945 4.05 31.965 4.15C31.985 4.23 32.005 4.32 32.025 4.42C32.085 4.54 32.175 4.6 32.295 4.6C32.315 4.58 32.335 4.58 32.355 4.6C32.375 4.62 32.385 4.64 32.385 4.66C32.485 4.78 32.515 4.91 32.475 5.05C32.435 5.21 32.425 5.37 32.445 5.53C32.485 5.67 32.525 5.82 32.565 5.98C32.645 6.18 32.725 6.38 32.805 6.58C32.885 6.78 32.965 6.98 33.045 7.18C33.145 7.4 33.245 7.62 33.345 7.84C33.445 8.06 33.535 8.28 33.615 8.5C33.715 8.78 33.815 9.06 33.915 9.34C34.035 9.62 34.165 9.9 34.305 10.18L34.395 10.51C34.415 10.59 34.435 10.67 34.455 10.75C34.495 10.83 34.525 10.91 34.545 10.99C34.585 11.05 34.615 11.11 34.635 11.17C34.675 11.23 34.715 11.28 34.755 11.32C34.855 11.46 34.915 11.61 34.935 11.77C34.995 11.97 35.085 12.15 35.205 12.31C35.245 12.37 35.305 12.4 35.385 12.4C35.685 12.36 35.985 12.33 36.285 12.31C36.585 12.27 36.885 12.21 37.185 12.13C37.405 12.07 37.615 12.04 37.815 12.04C38.195 12.04 38.545 12.17 38.865 12.43C39.245 12.73 39.445 13.11 39.465 13.57C39.465 13.67 39.475 13.75 39.495 13.81C39.495 13.95 39.455 14.06 39.375 14.14C39.355 14.2 39.315 14.26 39.255 14.32C39.215 14.38 39.175 14.44 39.135 14.5C39.095 14.58 39.055 14.64 39.015 14.68L38.835 14.83C38.815 14.87 38.785 14.92 38.745 14.98C38.705 15.02 38.655 15.05 38.595 15.07C38.515 15.09 38.435 15.12 38.355 15.16C38.275 15.18 38.185 15.19 38.085 15.19C37.725 15.23 37.405 15.22 37.125 15.16H36.645C36.605 15.16 36.545 15.18 36.465 15.22C36.385 15.26 36.345 15.31 36.345 15.37V15.49C36.405 15.67 36.445 15.86 36.465 16.06C36.505 16.24 36.565 16.41 36.645 16.57C36.645 16.65 36.665 16.73 36.705 16.81C36.805 16.99 36.885 17.18 36.945 17.38C37.005 17.56 37.055 17.75 37.095 17.95C37.095 17.99 37.115 18.07 37.155 18.19C37.215 18.33 37.265 18.48 37.305 18.64C37.345 18.78 37.375 18.93 37.395 19.09C37.395 19.21 37.425 19.32 37.485 19.42C37.565 19.6 37.625 19.78 37.665 19.96C37.705 20.14 37.735 20.33 37.755 20.53C37.775 20.55 37.785 20.59 37.785 20.65C37.785 20.69 37.795 20.73 37.815 20.77C37.915 20.99 37.985 21.23 38.025 21.49C38.065 21.73 38.115 21.97 38.175 22.21C38.215 22.33 38.235 22.45 38.235 22.57C38.255 22.71 38.265 22.85 38.265 22.99C38.265 23.09 38.235 23.2 38.175 23.32C38.115 23.38 38.085 23.41 38.085 23.41C37.965 23.43 37.895 23.5 37.875 23.62L37.785 23.8C37.745 23.88 37.685 23.93 37.605 23.95C37.525 23.95 37.455 23.98 37.395 24.04C37.315 24.12 37.205 24.16 37.065 24.16C36.985 24.16 36.885 24.16 36.765 24.16C36.665 24.16 36.565 24.17 36.465 24.19ZM29.235 13.3C29.355 13.28 29.475 13.26 29.595 13.24C29.735 13.22 29.885 13.2 30.045 13.18C30.145 13.16 30.275 13.14 30.435 13.12C30.595 13.1 30.745 13.08 30.885 13.06C31.025 13.02 31.165 13 31.305 13C31.445 12.98 31.585 12.96 31.725 12.94C31.845 12.9 31.965 12.88 32.085 12.88C32.205 12.86 32.325 12.84 32.445 12.82C32.625 12.78 32.695 12.68 32.655 12.52C32.635 12.36 32.595 12.2 32.535 12.04C32.495 11.86 32.405 11.71 32.265 11.59C32.225 11.55 32.205 11.49 32.205 11.41V11.32C32.165 11.16 32.115 11.01 32.055 10.87C32.015 10.71 31.965 10.56 31.905 10.42C31.865 10.26 31.815 10.12 31.755 10C31.715 9.86 31.665 9.72 31.605 9.58L31.245 8.5C31.185 8.36 31.125 8.22 31.065 8.08C31.025 7.94 30.985 7.8 30.945 7.66L30.855 7.54H30.765L30.705 7.63C30.605 7.93 30.485 8.23 30.345 8.53C30.225 8.83 30.115 9.15 30.015 9.49C30.015 9.53 30.005 9.58 29.985 9.64C29.965 9.7 29.945 9.76 29.925 9.82C29.845 10.02 29.765 10.24 29.685 10.48C29.625 10.72 29.575 10.96 29.535 11.2C29.515 11.34 29.495 11.48 29.475 11.62C29.455 11.74 29.425 11.87 29.385 12.01L29.115 13.18C29.095 13.2 29.105 13.23 29.145 13.27C29.185 13.29 29.215 13.3 29.235 13.3ZM44.1724 22.09C44.0124 22.15 43.8324 22.13 43.6324 22.03L43.0324 21.76C42.9324 21.72 42.8524 21.63 42.7924 21.49L42.7024 21.31C42.6624 21.21 42.6124 21.14 42.5524 21.1C42.4524 21.02 42.3824 20.88 42.3424 20.68C42.3024 20.48 42.2724 20.28 42.2524 20.08C42.2324 19.88 42.2124 19.68 42.1924 19.48C42.1724 19.32 42.1624 19.16 42.1624 19C42.1624 18.84 42.1624 18.69 42.1624 18.55L42.1924 18.34C42.2324 18.24 42.2524 18.14 42.2524 18.04C42.2524 17.94 42.2524 17.85 42.2524 17.77V12.31C42.2924 12.03 42.3124 11.75 42.3124 11.47C42.3124 11.17 42.3124 10.88 42.3124 10.6C42.3324 10.32 42.3424 10.05 42.3424 9.79C42.3424 9.51 42.3224 9.24 42.2824 8.98C42.2624 8.88 42.2524 8.77 42.2524 8.65C42.2524 8.53 42.2524 8.41 42.2524 8.29C42.2524 8.11 42.2524 7.93 42.2524 7.75C42.2524 7.57 42.2324 7.39 42.1924 7.21V7.12C42.1924 6.84 42.1724 6.57 42.1324 6.31C42.1124 6.03 42.0924 5.76 42.0724 5.5C42.0524 5.34 42.0324 5.19 42.0124 5.05C41.9924 4.91 41.9624 4.77 41.9224 4.63C41.9024 4.55 41.8924 4.47 41.8924 4.39C41.8924 4.31 41.8924 4.23 41.8924 4.15C41.8924 4.01 41.9124 3.88 41.9524 3.76C41.9924 3.62 42.0324 3.49 42.0724 3.37C42.0924 3.33 42.1424 3.27 42.2224 3.19C42.2624 3.15 42.3024 3.12 42.3424 3.1C42.3824 3.08 42.4124 3.06 42.4324 3.04C42.5524 2.88 42.7124 2.81 42.9124 2.83C42.9524 2.85 43.0124 2.84 43.0924 2.8C43.1924 2.72 43.2824 2.71 43.3624 2.77C43.4224 2.81 43.5224 2.81 43.6624 2.77C43.7224 2.77 43.7724 2.79 43.8124 2.83C43.8724 2.91 43.9524 2.97 44.0524 3.01C44.1524 3.05 44.2224 3.11 44.2624 3.19C44.3224 3.25 44.3824 3.31 44.4424 3.37C44.4824 3.43 44.5224 3.49 44.5624 3.55C44.6224 3.59 44.6524 3.65 44.6524 3.73C44.6724 3.81 44.6724 3.89 44.6524 3.97C44.6524 4.03 44.6524 4.1 44.6524 4.18C44.6524 4.36 44.6624 4.55 44.6824 4.75C44.7224 4.93 44.7524 5.11 44.7724 5.29C44.8124 5.49 44.8424 5.7 44.8624 5.92C44.8824 6.12 44.9024 6.33 44.9224 6.55V6.85C44.9624 6.99 44.9824 7.13 44.9824 7.27C44.9824 7.41 44.9924 7.55 45.0124 7.69V7.72C45.0324 7.96 45.0524 8.2 45.0724 8.44C45.0924 8.68 45.1124 8.92 45.1324 9.16C45.1524 9.26 45.1624 9.37 45.1624 9.49C45.1624 9.59 45.1624 9.69 45.1624 9.79V17.77C45.1624 17.95 45.1724 18.13 45.1924 18.31C45.2324 18.49 45.2624 18.66 45.2824 18.82C45.2824 18.92 45.3424 18.97 45.4624 18.97C45.6424 19.01 45.8124 19.01 45.9724 18.97C46.1924 18.93 46.4024 18.91 46.6024 18.91C46.8224 18.91 47.0424 18.91 47.2624 18.91C47.4824 18.91 47.6924 18.91 47.8924 18.91C48.1124 18.89 48.3224 18.87 48.5224 18.85H48.8524C49.0124 18.87 49.1524 18.89 49.2724 18.91C49.4124 18.91 49.5524 18.91 49.6924 18.91C49.9124 18.91 50.1324 18.92 50.3524 18.94C50.5924 18.94 50.8224 18.95 51.0424 18.97C51.2024 18.99 51.3624 19 51.5224 19C51.7024 19 51.8824 19 52.0624 19H52.2124C52.6124 18.98 52.9724 19.08 53.2924 19.3C53.4324 19.36 53.5324 19.46 53.5924 19.6C53.6324 19.68 53.6624 19.76 53.6824 19.84C53.7224 19.9 53.7524 19.98 53.7724 20.08C53.7924 20.16 53.8024 20.24 53.8024 20.32C53.8224 20.38 53.8424 20.45 53.8624 20.53C53.9224 20.71 53.9024 20.91 53.8024 21.13C53.7824 21.19 53.7624 21.25 53.7424 21.31C53.7224 21.37 53.6924 21.43 53.6524 21.49C53.6124 21.55 53.5624 21.6 53.5024 21.64C53.5024 21.64 53.4624 21.66 53.3824 21.7C53.2224 21.84 53.0424 21.93 52.8424 21.97C52.6624 22.01 52.4624 22.05 52.2424 22.09L51.9424 22.06C51.6424 21.96 51.3424 21.9 51.0424 21.88C50.9624 21.86 50.8724 21.85 50.7724 21.85C50.6724 21.83 50.5724 21.82 50.4724 21.82C50.3324 21.82 50.1924 21.82 50.0524 21.82C49.9124 21.8 49.7624 21.78 49.6024 21.76L49.3024 21.73C49.1224 21.75 48.9424 21.76 48.7624 21.76C48.5824 21.74 48.4024 21.74 48.2224 21.76C48.1424 21.76 48.0624 21.76 47.9824 21.76C47.9024 21.74 47.8224 21.73 47.7424 21.73C47.5824 21.73 47.4224 21.73 47.2624 21.73C47.1224 21.73 46.9724 21.75 46.8124 21.79C46.7324 21.81 46.6324 21.83 46.5124 21.85C46.4124 21.85 46.3124 21.85 46.2124 21.85C45.9124 21.87 45.6124 21.9 45.3124 21.94C45.0124 21.96 44.7224 22 44.4424 22.06C44.3824 22.08 44.2924 22.09 44.1724 22.09ZM58.0673 22.51C57.9473 22.51 57.8373 22.47 57.7373 22.39C57.6773 22.33 57.6073 22.28 57.5273 22.24C57.4473 22.2 57.3773 22.15 57.3173 22.09C57.2573 22.05 57.1973 22.01 57.1373 21.97C57.0973 21.91 57.0573 21.86 57.0173 21.82C56.9373 21.7 56.8673 21.58 56.8073 21.46C56.7673 21.32 56.7573 21.18 56.7773 21.04C56.8173 20.82 56.8373 20.61 56.8373 20.41C56.8573 20.19 56.8773 19.98 56.8973 19.78C56.9173 19.68 56.9273 19.58 56.9273 19.48C56.9473 19.36 56.9573 19.25 56.9573 19.15C56.9573 18.91 56.9573 18.67 56.9573 18.43C56.9773 18.19 57.0073 17.95 57.0473 17.71V17.65C57.0673 17.03 57.0873 16.42 57.1073 15.82C57.1473 15.2 57.1673 14.58 57.1673 13.96C57.1473 13.5 57.1373 13.04 57.1373 12.58C57.1373 12.12 57.1373 11.67 57.1373 11.23C57.1373 11.01 57.1373 10.8 57.1373 10.6C57.1573 10.4 57.1473 10.2 57.1073 10C57.0873 9.66 57.0673 9.33 57.0473 9.01C57.0473 8.69 57.0473 8.37 57.0473 8.05C57.0473 7.99 57.0373 7.93 57.0173 7.87C57.0173 7.81 57.0173 7.75 57.0173 7.69C56.9973 7.61 56.9873 7.53 56.9873 7.45C56.9873 7.35 56.9773 7.26 56.9573 7.18C56.9573 7.08 56.9473 6.98 56.9273 6.88C56.9273 6.78 56.9173 6.69 56.8973 6.61V6.4C56.8773 6.18 56.8573 5.98 56.8373 5.8C56.8173 5.6 56.7873 5.4 56.7473 5.2C56.7273 5.04 56.7073 4.87 56.6873 4.69C56.6873 4.51 56.6873 4.33 56.6873 4.15C56.6873 4.03 56.7273 3.94 56.8073 3.88C56.8473 3.84 56.8673 3.79 56.8673 3.73C56.9073 3.65 56.9273 3.58 56.9273 3.52C56.9873 3.36 57.0673 3.26 57.1673 3.22C57.2273 3.18 57.2773 3.15 57.3173 3.13C57.3773 3.09 57.4373 3.08 57.4973 3.1C57.5973 3.1 57.6573 3.07 57.6773 3.01C57.7173 2.99 57.7473 2.97 57.7673 2.95C57.7873 2.91 57.8073 2.89 57.8273 2.89C57.9273 2.89 58.0173 2.88 58.0973 2.86C58.1973 2.84 58.2973 2.85 58.3973 2.89C58.5173 2.93 58.6173 2.95 58.6973 2.95C58.7973 2.97 58.8673 3.01 58.9073 3.07C58.9473 3.11 58.9873 3.13 59.0273 3.13C59.1273 3.15 59.1973 3.22 59.2373 3.34C59.2773 3.38 59.2973 3.43 59.2973 3.49C59.3173 3.53 59.3373 3.56 59.3573 3.58C59.4573 3.68 59.4873 3.8 59.4473 3.94C59.4073 4.16 59.4073 4.38 59.4473 4.6C59.4673 4.66 59.4673 4.72 59.4473 4.78C59.4473 4.84 59.4573 4.9 59.4773 4.96C59.4773 5.1 59.4773 5.24 59.4773 5.38C59.4973 5.5 59.5173 5.64 59.5373 5.8C59.5573 5.88 59.5673 5.96 59.5673 6.04C59.5673 6.1 59.5673 6.18 59.5673 6.28C59.5673 6.42 59.5673 6.58 59.5673 6.76C59.5673 6.92 59.5773 7.08 59.5973 7.24C59.6173 7.28 59.6273 7.35 59.6273 7.45C59.6273 7.59 59.6273 7.73 59.6273 7.87C59.6473 8.01 59.6673 8.15 59.6873 8.29C59.7473 8.59 59.7773 8.88 59.7773 9.16C59.7573 9.3 59.7573 9.45 59.7773 9.61C59.7973 9.77 59.8073 9.93 59.8073 10.09C59.8073 10.13 59.8273 10.15 59.8673 10.15C59.9073 10.15 59.9373 10.14 59.9573 10.12C59.9973 10.1 60.0573 10.05 60.1373 9.97L61.5773 8.53C61.8773 8.19 62.2073 7.89 62.5673 7.63C62.7473 7.49 62.9173 7.35 63.0773 7.21C63.2373 7.05 63.3873 6.89 63.5273 6.73C63.7273 6.51 63.9173 6.29 64.0973 6.07C64.2973 5.85 64.4973 5.63 64.6973 5.41C64.7973 5.31 64.8873 5.2 64.9673 5.08C65.0673 4.96 65.1573 4.84 65.2373 4.72C65.3573 4.58 65.4673 4.45 65.5673 4.33C65.6873 4.19 65.8173 4.06 65.9573 3.94C66.0173 3.9 66.0673 3.86 66.1073 3.82C66.1673 3.76 66.2373 3.72 66.3173 3.7C66.3373 3.7 66.3473 3.7 66.3473 3.7C66.3673 3.68 66.3773 3.67 66.3773 3.67C66.5773 3.49 66.7773 3.46 66.9773 3.58C67.0373 3.62 67.1273 3.64 67.2473 3.64C67.4073 3.64 67.5473 3.7 67.6673 3.82C67.7073 3.84 67.7373 3.86 67.7573 3.88C67.7973 3.88 67.8273 3.89 67.8473 3.91H68.1473C68.2673 3.91 68.3273 3.93 68.3273 3.97C68.3473 3.99 68.3473 4.05 68.3273 4.15C68.2873 4.21 68.3073 4.27 68.3873 4.33C68.4873 4.35 68.5173 4.41 68.4773 4.51C68.4573 4.55 68.4773 4.6 68.5373 4.66C68.5973 4.7 68.5973 4.75 68.5373 4.81C68.4373 4.97 68.3773 5.13 68.3573 5.29C68.3173 5.39 68.2673 5.49 68.2073 5.59C68.1673 5.67 68.0973 5.76 67.9973 5.86C67.7573 6.06 67.5373 6.29 67.3373 6.55C67.1373 6.79 66.9273 7.04 66.7073 7.3L66.5273 7.48C66.3273 7.66 66.1373 7.85 65.9573 8.05C65.7973 8.25 65.6373 8.45 65.4773 8.65C65.2573 8.91 65.0173 9.17 64.7573 9.43C64.5173 9.67 64.2773 9.91 64.0373 10.15C63.9173 10.27 63.8273 10.35 63.7673 10.39C63.6673 10.47 63.5673 10.56 63.4673 10.66C63.3673 10.76 63.2673 10.87 63.1673 10.99C63.1473 11.03 63.1073 11.07 63.0473 11.11C63.0073 11.15 62.9673 11.19 62.9273 11.23C62.7873 11.37 62.6473 11.52 62.5073 11.68C62.3673 11.82 62.2173 11.96 62.0573 12.1C62.0573 12.12 62.0473 12.14 62.0273 12.16C62.0273 12.16 62.0273 12.17 62.0273 12.19C62.0273 12.21 62.0173 12.23 61.9973 12.25C61.9973 12.27 62.0073 12.29 62.0273 12.31C62.0473 12.37 62.0973 12.44 62.1773 12.52L63.0473 13.33C63.2273 13.47 63.3973 13.63 63.5573 13.81C63.7173 13.97 63.8773 14.13 64.0373 14.29L64.3373 14.65C64.3773 14.69 64.4173 14.74 64.4573 14.8C64.4973 14.84 64.5373 14.88 64.5773 14.92C64.7973 15.1 65.0173 15.28 65.2373 15.46C65.4573 15.64 65.6673 15.82 65.8673 16L66.3173 16.36C66.5573 16.56 66.8173 16.75 67.0973 16.93C67.3773 17.11 67.6473 17.28 67.9073 17.44C68.0473 17.52 68.1773 17.6 68.2973 17.68C68.4373 17.74 68.5773 17.8 68.7173 17.86C68.9773 17.98 69.1873 18.19 69.3473 18.49C69.3673 18.51 69.3873 18.55 69.4073 18.61C69.4273 18.65 69.4473 18.69 69.4673 18.73C69.5673 18.95 69.6073 19.16 69.5873 19.36C69.5873 19.52 69.5673 19.63 69.5273 19.69L69.4373 19.93C69.4173 20.01 69.3773 20.1 69.3173 20.2C69.2773 20.28 69.2073 20.35 69.1073 20.41C69.0673 20.43 69.0273 20.48 68.9873 20.56C68.9073 20.64 68.8373 20.68 68.7773 20.68C68.6773 20.7 68.5673 20.72 68.4473 20.74C68.3473 20.76 68.2473 20.78 68.1473 20.8C68.0673 20.82 67.9873 20.83 67.9073 20.83C67.8273 20.83 67.7473 20.82 67.6673 20.8C67.6473 20.78 67.6173 20.77 67.5773 20.77C67.4973 20.75 67.4173 20.73 67.3373 20.71C67.2773 20.69 67.2173 20.67 67.1573 20.65C67.0973 20.61 67.0373 20.57 66.9773 20.53C66.9373 20.47 66.8973 20.42 66.8573 20.38C66.8173 20.34 66.7673 20.3 66.7073 20.26C66.6473 20.22 66.5873 20.19 66.5273 20.17L66.0773 19.9C66.0573 19.86 66.0173 19.83 65.9573 19.81C65.9173 19.77 65.8773 19.74 65.8373 19.72C65.7573 19.68 65.7073 19.65 65.6873 19.63C65.6073 19.53 65.5073 19.45 65.3873 19.39C65.2873 19.33 65.1873 19.26 65.0873 19.18C64.9273 19.04 64.7573 18.91 64.5773 18.79C64.4173 18.65 64.2573 18.51 64.0973 18.37C63.7573 18.07 63.4173 17.77 63.0773 17.47C62.7573 17.17 62.4373 16.86 62.1173 16.54C61.8773 16.3 61.6373 16.06 61.3973 15.82C61.1573 15.58 60.8973 15.34 60.6173 15.1C60.5373 15.04 60.4573 14.98 60.3773 14.92C60.3173 14.86 60.2373 14.8 60.1373 14.74C60.1173 14.7 60.0873 14.69 60.0473 14.71C60.0273 14.73 60.0173 14.76 60.0173 14.8C59.9973 14.82 59.9873 14.87 59.9873 14.95V18.19C59.9873 18.39 59.9873 18.6 59.9873 18.82C59.9873 19.02 59.9673 19.23 59.9273 19.45V19.9C59.9073 20.04 59.8973 20.18 59.8973 20.32C59.9173 20.46 59.9173 20.61 59.8973 20.77V21.22C59.8773 21.28 59.8573 21.34 59.8373 21.4C59.8173 21.46 59.7873 21.52 59.7473 21.58C59.6873 21.64 59.6373 21.71 59.5973 21.79C59.5573 21.85 59.5173 21.91 59.4773 21.97C59.4373 22.01 59.3973 22.03 59.3573 22.03C59.2773 22.05 59.1973 22.09 59.1173 22.15C59.0573 22.21 58.9773 22.26 58.8773 22.3C58.7373 22.42 58.5673 22.48 58.3673 22.48C58.3273 22.46 58.2773 22.46 58.2173 22.48C58.1773 22.5 58.1273 22.51 58.0673 22.51ZM90.382 22.6C90.182 22.58 89.982 22.55 89.782 22.51C89.602 22.49 89.422 22.44 89.242 22.36L88.492 22.09C88.232 21.99 87.992 21.88 87.772 21.76C87.552 21.62 87.332 21.48 87.112 21.34C87.012 21.24 86.912 21.15 86.812 21.07C86.712 20.97 86.612 20.88 86.512 20.8C86.352 20.64 86.192 20.48 86.032 20.32C85.872 20.14 85.722 19.95 85.582 19.75L84.862 18.64C84.682 18.36 84.522 18.07 84.382 17.77C84.242 17.45 84.122 17.13 84.022 16.81C83.802 16.21 83.692 15.62 83.692 15.04V14.56C83.692 14.06 83.722 13.57 83.782 13.09C83.822 12.69 83.912 12.33 84.052 12.01C84.132 11.81 84.202 11.61 84.262 11.41C84.322 11.21 84.392 11.02 84.472 10.84L84.562 10.63C84.602 10.37 84.692 10.14 84.832 9.94C84.972 9.72 85.092 9.51 85.192 9.31C85.272 9.15 85.362 9.01 85.462 8.89C85.562 8.75 85.652 8.61 85.732 8.47C85.772 8.41 85.822 8.36 85.882 8.32C85.942 8.26 85.992 8.2 86.032 8.14C86.072 8.1 86.102 8.05 86.122 7.99C86.162 7.91 86.192 7.84 86.212 7.78C86.252 7.72 86.322 7.64 86.422 7.54C86.542 7.48 86.652 7.34 86.752 7.12C86.792 7.04 86.832 6.98 86.872 6.94C86.992 6.84 87.092 6.72 87.172 6.58C87.272 6.44 87.382 6.31 87.502 6.19C87.582 6.11 87.622 6 87.622 5.86C87.622 5.76 87.622 5.67 87.622 5.59C87.642 5.49 87.642 5.4 87.622 5.32C87.602 5.22 87.632 5.13 87.712 5.05C87.752 5.01 87.782 4.96 87.802 4.9C87.822 4.84 87.842 4.78 87.862 4.72C87.922 4.52 88.082 4.35 88.342 4.21C88.382 4.17 88.432 4.15 88.492 4.15C88.572 4.13 88.642 4.11 88.702 4.09C88.842 4.03 89.002 4.02 89.182 4.06C89.262 4.08 89.332 4.09 89.392 4.09C89.452 4.07 89.512 4.05 89.572 4.03C89.652 3.99 89.722 3.96 89.782 3.94C89.862 3.92 89.932 3.9 89.992 3.88C90.272 3.78 90.562 3.79 90.862 3.91C91.182 4.03 91.412 4.24 91.552 4.54C91.592 4.64 91.632 4.74 91.672 4.84C91.712 4.94 91.742 5.04 91.762 5.14C91.802 5.36 91.792 5.55 91.732 5.71C91.692 5.79 91.672 5.84 91.672 5.86C91.652 5.94 91.672 6.01 91.732 6.07C91.772 6.13 91.822 6.18 91.882 6.22C92.102 6.42 92.312 6.62 92.512 6.82C92.712 7 92.902 7.2 93.082 7.42C93.242 7.58 93.372 7.75 93.472 7.93C93.592 8.09 93.702 8.27 93.802 8.47C93.842 8.57 93.892 8.68 93.952 8.8C94.012 8.9 94.072 9 94.132 9.1C94.232 9.28 94.312 9.47 94.372 9.67C94.452 9.87 94.532 10.07 94.612 10.27V10.3C94.652 10.44 94.682 10.59 94.702 10.75C94.742 10.89 94.802 11.04 94.882 11.2C94.942 11.34 94.992 11.49 95.032 11.65C95.072 11.79 95.112 11.94 95.152 12.1C95.192 12.28 95.232 12.46 95.272 12.64C95.332 12.82 95.372 13 95.392 13.18C95.412 13.26 95.432 13.34 95.452 13.42C95.472 13.48 95.492 13.55 95.512 13.63C95.552 13.81 95.592 13.99 95.632 14.17C95.672 14.35 95.702 14.53 95.722 14.71L95.812 14.92C95.852 15.04 95.892 15.2 95.932 15.4C95.992 15.66 96.022 15.92 96.022 16.18C96.042 16.44 96.042 16.71 96.022 16.99C96.022 17.13 96.012 17.24 95.992 17.32C95.872 17.74 95.722 18.17 95.542 18.61C95.462 18.75 95.382 18.89 95.302 19.03C95.222 19.15 95.142 19.28 95.062 19.42L94.792 19.84C94.692 20.02 94.582 20.18 94.462 20.32C94.262 20.64 94.022 20.92 93.742 21.16C93.462 21.4 93.162 21.63 92.842 21.85C92.142 22.39 91.322 22.64 90.382 22.6ZM90.262 19.63C90.682 19.63 91.042 19.51 91.342 19.27C91.442 19.17 91.542 19.08 91.642 19C91.762 18.9 91.862 18.8 91.942 18.7C92.322 18.28 92.622 17.84 92.842 17.38L92.932 17.08C92.972 16.72 92.972 16.36 92.932 16L92.752 15.01C92.692 14.75 92.642 14.5 92.602 14.26C92.562 14 92.502 13.75 92.422 13.51C92.362 13.37 92.342 13.26 92.362 13.18C92.382 13.08 92.382 12.98 92.362 12.88C92.342 12.78 92.312 12.68 92.272 12.58C92.212 12.32 92.142 12.06 92.062 11.8C91.982 11.54 91.902 11.28 91.822 11.02C91.802 10.96 91.782 10.9 91.762 10.84C91.742 10.78 91.722 10.72 91.702 10.66C91.562 10.38 91.412 10.11 91.252 9.85C91.092 9.59 90.912 9.35 90.712 9.13C90.612 9.01 90.502 8.9 90.382 8.8C90.262 8.68 90.142 8.57 90.022 8.47C90.002 8.43 89.972 8.41 89.932 8.41C89.912 8.39 89.882 8.37 89.842 8.35C89.782 8.27 89.702 8.28 89.602 8.38C89.502 8.48 89.392 8.59 89.272 8.71C89.172 8.83 89.072 8.95 88.972 9.07C88.872 9.21 88.762 9.35 88.642 9.49C88.542 9.63 88.442 9.77 88.342 9.91C88.202 10.09 88.072 10.27 87.952 10.45C87.832 10.63 87.712 10.81 87.592 10.99C87.172 11.67 86.842 12.42 86.602 13.24C86.562 13.36 86.542 13.45 86.542 13.51C86.522 13.65 86.502 13.79 86.482 13.93C86.482 14.07 86.482 14.22 86.482 14.38V14.62C86.502 14.68 86.512 14.74 86.512 14.8C86.512 14.86 86.522 14.92 86.542 14.98C86.542 15.22 86.602 15.48 86.722 15.76C86.882 16.16 87.062 16.55 87.262 16.93C87.462 17.31 87.692 17.67 87.952 18.01C88.012 18.09 88.072 18.17 88.132 18.25C88.212 18.33 88.282 18.41 88.342 18.49C88.522 18.69 88.712 18.87 88.912 19.03C89.132 19.19 89.352 19.33 89.572 19.45C89.812 19.57 90.042 19.63 90.262 19.63ZM100.883 23.14C100.863 23.16 100.813 23.15 100.733 23.11C100.653 23.07 100.573 23.04 100.493 23.02C100.433 23.02 100.363 23.01 100.283 22.99C100.223 22.99 100.173 22.96 100.133 22.9C100.113 22.84 100.053 22.78 99.9534 22.72C99.8334 22.66 99.7534 22.55 99.7134 22.39L99.6234 22.09C99.5634 21.97 99.5634 21.85 99.6234 21.73C99.6434 21.67 99.6434 21.61 99.6234 21.55C99.6234 21.49 99.6334 21.43 99.6534 21.37C99.6734 21.33 99.6934 21.29 99.7134 21.25C99.7334 21.19 99.7534 21.14 99.7734 21.1C99.7734 21.04 99.7734 20.98 99.7734 20.92C99.7934 20.86 99.8034 20.8 99.8034 20.74C99.8034 20.52 99.8034 20.29 99.8034 20.05C99.8034 19.81 99.8134 19.58 99.8334 19.36C99.8334 19.2 99.8234 19.04 99.8034 18.88C99.8034 18.7 99.8134 18.53 99.8334 18.37C99.8334 18.25 99.8434 18.14 99.8634 18.04C99.8834 17.92 99.8834 17.81 99.8634 17.71C99.8634 17.61 99.8534 17.51 99.8334 17.41C99.8334 17.31 99.8334 17.21 99.8334 17.11C99.8334 16.97 99.8234 16.84 99.8034 16.72C99.8034 16.6 99.7734 16.47 99.7134 16.33C99.6734 16.17 99.6534 16.03 99.6534 15.91C99.6534 15.69 99.6534 15.48 99.6534 15.28C99.6534 15.08 99.6634 14.88 99.6834 14.68C99.6834 14.64 99.6834 14.6 99.6834 14.56C99.7034 14.52 99.7034 14.49 99.6834 14.47C99.6634 14.31 99.6434 14.16 99.6234 14.02C99.6234 13.86 99.6234 13.71 99.6234 13.57V13.48C99.6034 13.34 99.5434 13.21 99.4434 13.09L99.2334 12.82C99.1534 12.7 99.1134 12.59 99.1134 12.49C99.1134 12.43 99.1034 12.37 99.0834 12.31C99.0834 12.25 99.0834 12.19 99.0834 12.13C99.0634 11.97 99.0934 11.82 99.1734 11.68C99.2534 11.56 99.3334 11.41 99.4134 11.23C99.4534 11.13 99.4534 11.04 99.4134 10.96C99.3934 10.88 99.3834 10.8 99.3834 10.72V10.45C99.3834 10.33 99.3734 10.24 99.3534 10.18C99.3334 9.96 99.3134 9.74 99.2934 9.52C99.2934 9.28 99.2734 9.06 99.2334 8.86C99.2134 8.7 99.2034 8.54 99.2034 8.38C99.2034 8.22 99.2034 8.07 99.2034 7.93C99.1834 7.83 99.1734 7.73 99.1734 7.63C99.1734 7.53 99.1534 7.43 99.1134 7.33L99.0834 7.12C99.1034 6.9 99.0734 6.67 98.9934 6.43C98.9734 6.35 98.9534 6.27 98.9334 6.19C98.9334 6.09 98.9434 6 98.9634 5.92C99.0234 5.76 99.0434 5.59 99.0234 5.41C99.0234 5.23 99.0134 5.05 98.9934 4.87C98.9734 4.71 98.9634 4.56 98.9634 4.42C98.9634 4.26 98.9534 4.11 98.9334 3.97C98.9134 3.73 98.9234 3.5 98.9634 3.28C99.0234 3.04 99.0934 2.8 99.1734 2.56C99.2134 2.48 99.2534 2.43 99.2934 2.41C99.3734 2.37 99.4434 2.33 99.5034 2.29C99.5634 2.23 99.6234 2.18 99.6834 2.14C99.7634 2.1 99.8034 2.08 99.8034 2.08C99.9034 2.04 99.9934 2.01 100.073 1.99C100.173 1.97 100.263 1.95 100.343 1.93C100.523 1.87 100.683 1.87 100.823 1.93C100.983 1.99 101.133 2.07 101.273 2.17C101.433 2.25 101.563 2.37 101.663 2.53C101.683 2.57 101.703 2.62 101.723 2.68C101.743 2.72 101.763 2.77 101.783 2.83C101.783 2.91 101.783 3 101.783 3.1C101.803 3.18 101.823 3.27 101.843 3.37C101.883 3.49 101.943 3.55 102.023 3.55H102.113C102.433 3.57 102.743 3.59 103.043 3.61C103.363 3.61 103.683 3.61 104.003 3.61H104.123C104.283 3.57 104.413 3.55 104.513 3.55C104.593 3.57 104.703 3.58 104.843 3.58C104.883 3.56 104.933 3.55 104.993 3.55C105.053 3.55 105.103 3.55 105.143 3.55C105.263 3.53 105.363 3.53 105.443 3.55C105.583 3.59 105.703 3.58 105.803 3.52C105.863 3.48 105.943 3.48 106.043 3.52C106.083 3.54 106.133 3.55 106.193 3.55C106.253 3.55 106.303 3.55 106.343 3.55C106.503 3.51 106.663 3.48 106.823 3.46C107.003 3.44 107.173 3.42 107.333 3.4C107.493 3.36 107.643 3.33 107.783 3.31C107.943 3.29 108.093 3.27 108.233 3.25C108.273 3.23 108.333 3.22 108.413 3.22C108.713 3.24 109.023 3.19 109.343 3.07C109.403 3.05 109.463 3.04 109.523 3.04C109.583 3.02 109.653 3.02 109.733 3.04C109.813 3.06 109.913 3.06 110.033 3.04C110.193 3.02 110.353 3 110.513 2.98C110.673 2.94 110.823 2.91 110.963 2.89C111.063 2.85 111.153 2.82 111.233 2.8C111.313 2.76 111.393 2.75 111.473 2.77L111.743 2.68C111.883 2.62 112.023 2.64 112.163 2.74L112.643 3.01C112.683 3.03 112.713 3.05 112.733 3.07C112.773 3.09 112.803 3.12 112.823 3.16C112.883 3.26 112.933 3.36 112.973 3.46C113.033 3.56 113.073 3.67 113.093 3.79C113.093 3.87 113.103 3.94 113.123 4C113.163 4.06 113.163 4.13 113.123 4.21C113.103 4.27 113.083 4.33 113.063 4.39C113.043 4.45 113.023 4.51 113.003 4.57L112.913 4.78C112.893 4.88 112.833 4.96 112.733 5.02L112.613 5.14C112.573 5.18 112.523 5.23 112.463 5.29C112.423 5.33 112.393 5.38 112.373 5.44C112.353 5.5 112.313 5.54 112.253 5.56C112.173 5.58 112.093 5.61 112.013 5.65C111.953 5.69 111.893 5.74 111.833 5.8C111.753 5.82 111.673 5.85 111.593 5.89C111.513 5.91 111.423 5.91 111.323 5.89C111.203 5.87 111.053 5.91 110.873 6.01C110.773 6.07 110.663 6.12 110.543 6.16C110.423 6.18 110.303 6.21 110.183 6.25C109.943 6.31 109.723 6.31 109.523 6.25C109.443 6.21 109.363 6.19 109.283 6.19C109.203 6.19 109.123 6.18 109.043 6.16C108.963 6.14 108.883 6.12 108.803 6.1C108.743 6.08 108.663 6.07 108.563 6.07C108.483 6.07 108.413 6.07 108.353 6.07C108.293 6.05 108.223 6.03 108.143 6.01C108.063 5.99 107.933 5.98 107.753 5.98C107.693 5.98 107.633 5.99 107.573 6.01C107.513 6.01 107.443 6 107.363 5.98C107.283 5.96 107.193 5.96 107.093 5.98C107.013 5.98 106.923 5.99 106.823 6.01C106.763 6.03 106.703 6.05 106.643 6.07C106.603 6.07 106.563 6.07 106.523 6.07C106.403 6.11 106.313 6.12 106.253 6.1C106.153 6.08 106.053 6.08 105.953 6.1C105.853 6.1 105.753 6.11 105.653 6.13C105.613 6.13 105.563 6.13 105.503 6.13C105.443 6.13 105.393 6.12 105.353 6.1C105.113 6.04 104.883 6.09 104.663 6.25H104.603C104.523 6.33 104.443 6.34 104.363 6.28C104.163 6.18 104.013 6.22 103.913 6.4C103.853 6.52 103.763 6.56 103.643 6.52C103.523 6.52 103.443 6.5 103.403 6.46C103.303 6.42 103.223 6.45 103.163 6.55C103.123 6.59 103.083 6.61 103.043 6.61C102.983 6.61 102.943 6.6 102.923 6.58C102.843 6.56 102.773 6.56 102.713 6.58C102.473 6.68 102.253 6.76 102.053 6.82C101.993 6.82 101.963 6.86 101.963 6.94C101.943 7.24 101.943 7.55 101.963 7.87C101.983 7.95 101.993 8.04 101.993 8.14C101.993 8.22 102.003 8.31 102.023 8.41C102.023 8.49 102.023 8.57 102.023 8.65C102.043 8.73 102.063 8.81 102.083 8.89V9.01C102.103 9.21 102.123 9.4 102.143 9.58C102.163 9.76 102.183 9.95 102.203 10.15C102.203 10.25 102.233 10.38 102.293 10.54C102.333 10.64 102.403 10.69 102.503 10.69C102.563 10.71 102.623 10.72 102.683 10.72C102.743 10.72 102.803 10.72 102.863 10.72H105.293C105.453 10.68 105.613 10.66 105.773 10.66C105.953 10.66 106.123 10.66 106.283 10.66C106.363 10.68 106.433 10.69 106.493 10.69C106.573 10.67 106.643 10.67 106.703 10.69H106.973C107.093 10.67 107.213 10.66 107.333 10.66C107.453 10.64 107.583 10.62 107.723 10.6C107.883 10.56 108.023 10.54 108.143 10.54C108.183 10.52 108.243 10.51 108.323 10.51C108.483 10.53 108.663 10.51 108.863 10.45C108.943 10.39 109.043 10.38 109.163 10.42C109.243 10.44 109.323 10.45 109.403 10.45C109.483 10.43 109.563 10.42 109.643 10.42C109.723 10.4 109.793 10.39 109.853 10.39C109.933 10.39 110.003 10.39 110.063 10.39C110.343 10.41 110.633 10.39 110.933 10.33C111.053 10.31 111.173 10.3 111.293 10.3C111.413 10.3 111.523 10.3 111.623 10.3C111.663 10.3 111.703 10.31 111.743 10.33C111.803 10.33 111.853 10.32 111.893 10.3C112.053 10.26 112.213 10.24 112.373 10.24C112.553 10.22 112.723 10.18 112.883 10.12C112.923 10.1 112.973 10.08 113.033 10.06C113.093 10.04 113.143 10.02 113.183 10C113.303 9.94 113.423 9.9 113.543 9.88C113.683 9.84 113.813 9.81 113.933 9.79C113.993 9.77 114.083 9.76 114.203 9.76H114.293C114.373 9.78 114.453 9.81 114.533 9.85C114.613 9.89 114.683 9.94 114.743 10C114.883 10.14 115.023 10.21 115.163 10.21C115.223 10.21 115.273 10.25 115.313 10.33V10.42C115.313 10.48 115.293 10.51 115.253 10.51C115.253 10.51 115.243 10.52 115.223 10.54C115.203 10.54 115.193 10.55 115.193 10.57C115.233 10.61 115.273 10.63 115.313 10.63V10.66C115.333 10.7 115.323 10.77 115.283 10.87C115.223 10.93 115.223 11 115.283 11.08C115.363 11.2 115.373 11.31 115.313 11.41C115.253 11.53 115.193 11.65 115.133 11.77C115.073 11.89 115.013 12 114.953 12.1C114.833 12.28 114.693 12.41 114.533 12.49C114.453 12.51 114.353 12.54 114.233 12.58C114.133 12.6 114.033 12.62 113.933 12.64C113.673 12.68 113.403 12.72 113.123 12.76C112.863 12.8 112.593 12.84 112.313 12.88C112.213 12.9 112.113 12.92 112.013 12.94C111.913 12.94 111.813 12.95 111.713 12.97C111.513 12.99 111.313 13.01 111.113 13.03C110.913 13.05 110.713 13.08 110.513 13.12H110.273C110.173 13.14 110.063 13.16 109.943 13.18C109.843 13.18 109.743 13.18 109.643 13.18C109.483 13.18 109.323 13.19 109.163 13.21C109.003 13.21 108.843 13.22 108.683 13.24C108.583 13.26 108.483 13.27 108.383 13.27C108.283 13.27 108.183 13.27 108.083 13.27C107.883 13.27 107.673 13.27 107.453 13.27C107.253 13.25 107.043 13.23 106.823 13.21C106.583 13.19 106.343 13.18 106.103 13.18C105.883 13.18 105.653 13.18 105.413 13.18H104.303C104.203 13.18 104.133 13.19 104.093 13.21C103.893 13.23 103.683 13.25 103.463 13.27C103.263 13.27 103.053 13.27 102.833 13.27H102.743C102.603 13.31 102.533 13.38 102.533 13.48C102.533 13.56 102.533 13.64 102.533 13.72C102.533 13.78 102.543 13.84 102.563 13.9C102.603 14.2 102.633 14.5 102.653 14.8C102.693 15.08 102.713 15.36 102.713 15.64C102.713 15.78 102.713 15.91 102.713 16.03C102.713 16.15 102.723 16.28 102.743 16.42C102.743 16.74 102.753 17.06 102.773 17.38C102.813 17.7 102.823 18.03 102.803 18.37C102.803 18.51 102.803 18.65 102.803 18.79C102.823 18.93 102.843 19.08 102.863 19.24C102.883 19.38 102.883 19.52 102.863 19.66C102.863 19.78 102.873 19.92 102.893 20.08C102.893 20.16 102.893 20.25 102.893 20.35C102.913 20.43 102.933 20.52 102.953 20.62C102.973 20.68 102.973 20.74 102.953 20.8C102.953 20.86 102.963 20.92 102.983 20.98C102.983 21.06 102.983 21.14 102.983 21.22C102.983 21.28 102.993 21.35 103.013 21.43C103.033 21.61 102.983 21.76 102.863 21.88C102.843 21.94 102.813 21.99 102.773 22.03C102.753 22.09 102.733 22.14 102.713 22.18C102.673 22.28 102.613 22.36 102.533 22.42C102.453 22.5 102.363 22.57 102.263 22.63C102.243 22.65 102.213 22.66 102.173 22.66C102.133 22.68 102.093 22.7 102.053 22.72C101.933 22.76 101.843 22.8 101.783 22.84C101.743 22.92 101.683 22.97 101.603 22.99C101.543 23.01 101.473 23.04 101.393 23.08C101.313 23.1 101.223 23.11 101.123 23.11C101.043 23.13 100.963 23.14 100.883 23.14ZM141.154 25.54C140.954 25.52 140.804 25.4 140.704 25.18C140.684 25.16 140.674 25.11 140.674 25.03C140.654 24.87 140.624 24.71 140.584 24.55C140.564 24.39 140.564 24.23 140.584 24.07V23.92C140.564 23.74 140.554 23.56 140.554 23.38C140.554 23.2 140.544 23.03 140.524 22.87C140.484 22.53 140.364 22.27 140.164 22.09L139.894 21.82C139.794 21.7 139.664 21.66 139.504 21.7C139.384 21.72 139.264 21.73 139.144 21.73C139.044 21.73 138.934 21.72 138.814 21.7C138.734 21.7 138.644 21.71 138.544 21.73C138.464 21.73 138.374 21.73 138.274 21.73C138.194 21.73 138.104 21.73 138.004 21.73C137.924 21.71 137.844 21.71 137.764 21.73C137.684 21.75 137.604 21.76 137.524 21.76C137.464 21.76 137.404 21.76 137.344 21.76H136.324C136.104 21.76 135.874 21.79 135.634 21.85L134.914 22.03C134.674 22.11 134.434 22.17 134.194 22.21C134.114 22.23 134.034 22.25 133.954 22.27C133.874 22.29 133.794 22.32 133.714 22.36C133.414 22.5 133.124 22.58 132.844 22.6C132.664 22.64 132.534 22.72 132.454 22.84L132.304 23.02C132.264 23.04 132.224 23.06 132.184 23.08C132.144 23.12 132.104 23.16 132.064 23.2C131.924 23.28 131.774 23.28 131.614 23.2C131.434 23.1 131.324 22.99 131.284 22.87C131.284 22.85 131.274 22.83 131.254 22.81C131.254 22.81 131.254 22.8 131.254 22.78C131.114 22.44 130.884 22.14 130.564 21.88C130.484 21.82 130.414 21.75 130.354 21.67C130.334 21.61 130.304 21.56 130.264 21.52C130.224 21.46 130.184 21.41 130.144 21.37L129.964 21.1C129.884 20.96 129.854 20.8 129.874 20.62C129.894 20.52 129.904 20.42 129.904 20.32C129.924 20.2 129.944 20.09 129.964 19.99V19.81C129.964 19.59 129.964 19.37 129.964 19.15C129.964 18.91 129.974 18.69 129.994 18.49V18.19C130.034 18.11 130.044 18.04 130.024 17.98C130.024 17.9 130.024 17.82 130.024 17.74C130.044 17.48 130.044 17.23 130.024 16.99C130.024 16.73 130.034 16.47 130.054 16.21L130.144 14.86C130.164 14.64 130.174 14.43 130.174 14.23C130.194 14.03 130.204 13.83 130.204 13.63V13.54C130.244 13.3 130.264 13.06 130.264 12.82C130.264 12.58 130.264 12.33 130.264 12.07V10C130.244 9.78 130.224 9.56 130.204 9.34C130.204 9.12 130.204 8.9 130.204 8.68C130.204 8.44 130.194 8.2 130.174 7.96C130.154 7.7 130.124 7.44 130.084 7.18C130.064 7.02 130.034 6.85 129.994 6.67C129.974 6.49 129.964 6.31 129.964 6.13C129.964 6.09 129.954 6.05 129.934 6.01C129.934 5.97 129.934 5.93 129.934 5.89C129.814 5.35 129.754 4.8 129.754 4.24V2.98C129.754 2.84 129.754 2.71 129.754 2.59C129.774 2.45 129.794 2.31 129.814 2.17C129.854 1.93 129.934 1.75 130.054 1.63L130.204 1.45C130.324 1.29 130.464 1.18 130.624 1.12C130.784 1.04 130.954 0.989999 131.134 0.969999H131.344C131.644 0.969999 131.884 1.08 132.064 1.3C132.104 1.32 132.134 1.34 132.154 1.36C132.174 1.38 132.194 1.4 132.214 1.42C132.314 1.5 132.374 1.59 132.394 1.69C132.494 1.89 132.544 2.02 132.544 2.08C132.564 2.14 132.574 2.28 132.574 2.5V2.71C132.574 2.85 132.574 2.99 132.574 3.13C132.574 3.25 132.584 3.38 132.604 3.52C132.624 3.56 132.634 3.62 132.634 3.7C132.634 3.84 132.634 3.98 132.634 4.12C132.654 4.26 132.674 4.4 132.694 4.54C132.714 4.74 132.734 4.94 132.754 5.14C132.774 5.32 132.784 5.52 132.784 5.74C132.784 5.78 132.784 5.83 132.784 5.89C132.804 5.93 132.814 5.97 132.814 6.01C132.814 6.03 132.814 6.06 132.814 6.1C132.834 6.12 132.844 6.15 132.844 6.19L132.934 7.72C132.954 7.82 132.964 7.93 132.964 8.05C132.964 8.15 132.964 8.26 132.964 8.38C132.984 8.4 132.994 8.45 132.994 8.53C132.974 8.63 132.964 8.74 132.964 8.86C132.964 8.96 132.974 9.06 132.994 9.16V11.14C132.974 11.26 132.974 11.38 132.994 11.5V11.68C132.974 11.84 132.964 12.01 132.964 12.19C132.964 12.35 132.954 12.52 132.934 12.7C132.934 12.84 132.934 12.99 132.934 13.15C132.934 13.29 132.924 13.44 132.904 13.6C132.884 13.68 132.874 13.77 132.874 13.87C132.874 13.97 132.874 14.07 132.874 14.17C132.874 14.25 132.864 14.35 132.844 14.47C132.844 14.57 132.834 14.67 132.814 14.77V14.86C132.794 15.06 132.774 15.26 132.754 15.46C132.754 15.66 132.744 15.87 132.724 16.09C132.704 16.19 132.694 16.3 132.694 16.42C132.694 16.54 132.684 16.66 132.664 16.78C132.644 16.86 132.634 16.96 132.634 17.08C132.634 17.18 132.634 17.28 132.634 17.38C132.634 17.48 132.624 17.58 132.604 17.68C132.584 17.9 132.574 18.12 132.574 18.34C132.574 18.54 132.574 18.75 132.574 18.97V19C132.614 19.1 132.664 19.15 132.724 19.15L133.324 19.24C133.804 19.3 134.274 19.33 134.734 19.33C134.854 19.33 134.954 19.32 135.034 19.3C135.134 19.28 135.244 19.27 135.364 19.27C135.484 19.27 135.594 19.26 135.694 19.24H136.534C136.674 19.24 136.814 19.23 136.954 19.21C137.094 19.17 137.234 19.14 137.374 19.12H137.524C137.744 19.12 137.964 19.11 138.184 19.09C138.404 19.05 138.624 19.03 138.844 19.03H139.834C140.114 19.03 140.354 18.97 140.554 18.85C140.714 18.79 140.864 18.75 141.004 18.73C141.164 18.71 141.324 18.69 141.484 18.67C141.724 18.67 141.934 18.73 142.114 18.85C142.514 19.09 142.774 19.42 142.894 19.84C142.934 19.98 142.954 20.13 142.954 20.29C142.974 20.45 142.974 20.61 142.954 20.77C142.934 20.95 142.894 21.12 142.834 21.28C142.774 21.42 142.694 21.57 142.594 21.73L142.324 22.12C142.204 22.34 142.114 22.56 142.054 22.78C142.034 22.96 142.004 23.13 141.964 23.29C141.924 23.47 141.904 23.65 141.904 23.83C141.904 23.91 141.894 23.99 141.874 24.07C141.874 24.15 141.874 24.23 141.874 24.31C141.854 24.39 141.844 24.46 141.844 24.52C141.844 24.58 141.844 24.65 141.844 24.73C141.844 24.89 141.794 25.07 141.694 25.27C141.574 25.47 141.394 25.56 141.154 25.54ZM147.798 22.3C147.678 22.3 147.598 22.29 147.558 22.27C147.478 22.23 147.408 22.2 147.348 22.18C147.288 22.16 147.228 22.14 147.168 22.12C147.108 22.08 147.048 22.04 146.988 22C146.948 21.94 146.908 21.88 146.868 21.82C146.828 21.78 146.788 21.76 146.748 21.76C146.628 21.76 146.568 21.7 146.568 21.58C146.548 21.46 146.528 21.34 146.508 21.22C146.488 21.1 146.468 20.98 146.448 20.86C146.428 20.68 146.408 20.5 146.388 20.32C146.388 20.14 146.368 19.97 146.328 19.81V19.54C146.328 19.46 146.318 19.39 146.298 19.33C146.298 19.27 146.298 19.2 146.298 19.12C146.258 19.02 146.258 18.94 146.298 18.88C146.338 18.52 146.338 18.16 146.298 17.8C146.278 17.7 146.268 17.6 146.268 17.5C146.268 17.4 146.258 17.3 146.238 17.2C146.238 17 146.238 16.8 146.238 16.6C146.238 16.38 146.218 16.17 146.178 15.97V15.49C146.178 15.33 146.168 15.18 146.148 15.04C146.148 14.9 146.138 14.76 146.118 14.62C146.098 14.44 146.078 14.26 146.058 14.08C146.058 13.9 146.048 13.72 146.028 13.54C146.008 13.5 145.998 13.43 145.998 13.33C145.978 13.23 145.958 13.13 145.938 13.03C145.938 12.91 145.938 12.8 145.938 12.7L145.848 11.2C145.828 11.04 145.808 10.89 145.788 10.75C145.788 10.59 145.788 10.44 145.788 10.3C145.768 10.06 145.748 9.82 145.728 9.58C145.708 9.34 145.688 9.11 145.668 8.89C145.668 8.85 145.658 8.81 145.638 8.77C145.638 8.73 145.638 8.7 145.638 8.68C145.638 8.44 145.628 8.2 145.608 7.96C145.588 7.72 145.568 7.47 145.548 7.21L145.458 6.37C145.398 6.05 145.388 5.7 145.428 5.32C145.428 5.14 145.498 4.99 145.638 4.87C145.678 4.83 145.708 4.81 145.728 4.81C145.748 4.79 145.768 4.77 145.788 4.75C145.888 4.73 145.938 4.66 145.938 4.54C145.938 4.5 145.978 4.48 146.058 4.48H146.208C146.228 4.48 146.238 4.48 146.238 4.48C146.258 4.46 146.278 4.45 146.298 4.45C146.338 4.43 146.368 4.41 146.388 4.39C146.428 4.35 146.458 4.33 146.478 4.33C146.518 4.33 146.558 4.34 146.598 4.36C146.638 4.36 146.678 4.37 146.718 4.39C146.758 4.39 146.788 4.38 146.808 4.36C146.908 4.34 147.008 4.35 147.108 4.39C147.228 4.41 147.328 4.44 147.408 4.48C147.528 4.5 147.618 4.58 147.678 4.72C147.738 4.9 147.788 5.08 147.828 5.26C147.888 5.42 147.928 5.59 147.948 5.77V6.01C147.988 6.15 148.008 6.3 148.008 6.46C148.008 6.6 148.008 6.75 148.008 6.91C148.008 7.05 148.008 7.19 148.008 7.33C148.028 7.45 148.048 7.57 148.068 7.69C148.068 7.75 148.068 7.81 148.068 7.87C148.068 7.93 148.078 7.99 148.098 8.05C148.098 8.17 148.098 8.29 148.098 8.41C148.118 8.53 148.138 8.66 148.158 8.8C148.178 9.02 148.198 9.25 148.218 9.49C148.238 9.73 148.248 9.97 148.248 10.21C148.248 10.31 148.248 10.42 148.248 10.54C148.248 10.64 148.258 10.74 148.278 10.84C148.298 10.9 148.308 10.96 148.308 11.02C148.308 11.08 148.308 11.14 148.308 11.2V11.8C148.308 11.92 148.318 12.02 148.338 12.1C148.378 12.24 148.388 12.38 148.368 12.52C148.368 12.64 148.378 12.77 148.398 12.91L148.488 14.29C148.508 14.49 148.518 14.7 148.518 14.92C148.538 15.12 148.548 15.33 148.548 15.55C148.548 15.63 148.548 15.72 148.548 15.82C148.548 15.9 148.558 15.98 148.578 16.06C148.598 16.12 148.608 16.18 148.608 16.24C148.608 16.3 148.608 16.36 148.608 16.42C148.628 16.44 148.628 16.48 148.608 16.54C148.608 16.58 148.618 16.62 148.638 16.66C148.678 16.8 148.698 16.94 148.698 17.08C148.698 17.22 148.698 17.37 148.698 17.53C148.698 17.61 148.698 17.7 148.698 17.8C148.718 17.88 148.728 17.97 148.728 18.07C148.748 18.17 148.758 18.28 148.758 18.4C148.758 18.52 148.758 18.63 148.758 18.73C148.778 18.83 148.788 18.94 148.788 19.06C148.788 19.16 148.798 19.26 148.818 19.36C148.838 19.4 148.848 19.44 148.848 19.48C148.848 19.7 148.868 19.92 148.908 20.14C148.948 20.36 148.988 20.58 149.028 20.8C149.048 20.86 149.058 20.93 149.058 21.01C149.058 21.07 149.058 21.13 149.058 21.19C149.058 21.25 149.038 21.3 148.998 21.34C148.918 21.4 148.858 21.52 148.818 21.7C148.818 21.76 148.788 21.81 148.728 21.85C148.588 21.91 148.468 21.99 148.368 22.09C148.208 22.23 148.018 22.3 147.798 22.3ZM154.379 23.14C154.359 23.16 154.309 23.15 154.229 23.11C154.149 23.07 154.069 23.04 153.989 23.02C153.929 23.02 153.859 23.01 153.779 22.99C153.719 22.99 153.669 22.96 153.629 22.9C153.609 22.84 153.549 22.78 153.449 22.72C153.329 22.66 153.249 22.55 153.209 22.39L153.119 22.09C153.059 21.97 153.059 21.85 153.119 21.73C153.139 21.67 153.139 21.61 153.119 21.55C153.119 21.49 153.129 21.43 153.149 21.37C153.169 21.33 153.189 21.29 153.209 21.25C153.229 21.19 153.249 21.14 153.269 21.1C153.269 21.04 153.269 20.98 153.269 20.92C153.289 20.86 153.299 20.8 153.299 20.74C153.299 20.52 153.299 20.29 153.299 20.05C153.299 19.81 153.309 19.58 153.329 19.36C153.329 19.2 153.319 19.04 153.299 18.88C153.299 18.7 153.309 18.53 153.329 18.37C153.329 18.25 153.339 18.14 153.359 18.04C153.379 17.92 153.379 17.81 153.359 17.71C153.359 17.61 153.349 17.51 153.329 17.41C153.329 17.31 153.329 17.21 153.329 17.11C153.329 16.97 153.319 16.84 153.299 16.72C153.299 16.6 153.269 16.47 153.209 16.33C153.169 16.17 153.149 16.03 153.149 15.91C153.149 15.69 153.149 15.48 153.149 15.28C153.149 15.08 153.159 14.88 153.179 14.68C153.179 14.64 153.179 14.6 153.179 14.56C153.199 14.52 153.199 14.49 153.179 14.47C153.159 14.31 153.139 14.16 153.119 14.02C153.119 13.86 153.119 13.71 153.119 13.57V13.48C153.099 13.34 153.039 13.21 152.939 13.09L152.729 12.82C152.649 12.7 152.609 12.59 152.609 12.49C152.609 12.43 152.599 12.37 152.579 12.31C152.579 12.25 152.579 12.19 152.579 12.13C152.559 11.97 152.589 11.82 152.669 11.68C152.749 11.56 152.829 11.41 152.909 11.23C152.949 11.13 152.949 11.04 152.909 10.96C152.889 10.88 152.879 10.8 152.879 10.72V10.45C152.879 10.33 152.869 10.24 152.849 10.18C152.829 9.96 152.809 9.74 152.789 9.52C152.789 9.28 152.769 9.06 152.729 8.86C152.709 8.7 152.699 8.54 152.699 8.38C152.699 8.22 152.699 8.07 152.699 7.93C152.679 7.83 152.669 7.73 152.669 7.63C152.669 7.53 152.649 7.43 152.609 7.33L152.579 7.12C152.599 6.9 152.569 6.67 152.489 6.43C152.469 6.35 152.449 6.27 152.429 6.19C152.429 6.09 152.439 6 152.459 5.92C152.519 5.76 152.539 5.59 152.519 5.41C152.519 5.23 152.509 5.05 152.489 4.87C152.469 4.71 152.459 4.56 152.459 4.42C152.459 4.26 152.449 4.11 152.429 3.97C152.409 3.73 152.419 3.5 152.459 3.28C152.519 3.04 152.589 2.8 152.669 2.56C152.709 2.48 152.749 2.43 152.789 2.41C152.869 2.37 152.939 2.33 152.999 2.29C153.059 2.23 153.119 2.18 153.179 2.14C153.259 2.1 153.299 2.08 153.299 2.08C153.399 2.04 153.489 2.01 153.569 1.99C153.669 1.97 153.759 1.95 153.839 1.93C154.019 1.87 154.179 1.87 154.319 1.93C154.479 1.99 154.629 2.07 154.769 2.17C154.929 2.25 155.059 2.37 155.159 2.53C155.179 2.57 155.199 2.62 155.219 2.68C155.239 2.72 155.259 2.77 155.279 2.83C155.279 2.91 155.279 3 155.279 3.1C155.299 3.18 155.319 3.27 155.339 3.37C155.379 3.49 155.439 3.55 155.519 3.55H155.609C155.929 3.57 156.239 3.59 156.539 3.61C156.859 3.61 157.179 3.61 157.499 3.61H157.619C157.779 3.57 157.909 3.55 158.009 3.55C158.089 3.57 158.199 3.58 158.339 3.58C158.379 3.56 158.429 3.55 158.489 3.55C158.549 3.55 158.599 3.55 158.639 3.55C158.759 3.53 158.859 3.53 158.939 3.55C159.079 3.59 159.199 3.58 159.299 3.52C159.359 3.48 159.439 3.48 159.539 3.52C159.579 3.54 159.629 3.55 159.689 3.55C159.749 3.55 159.799 3.55 159.839 3.55C159.999 3.51 160.159 3.48 160.319 3.46C160.499 3.44 160.669 3.42 160.829 3.4C160.989 3.36 161.139 3.33 161.279 3.31C161.439 3.29 161.589 3.27 161.729 3.25C161.769 3.23 161.829 3.22 161.909 3.22C162.209 3.24 162.519 3.19 162.839 3.07C162.899 3.05 162.959 3.04 163.019 3.04C163.079 3.02 163.149 3.02 163.229 3.04C163.309 3.06 163.409 3.06 163.529 3.04C163.689 3.02 163.849 3 164.009 2.98C164.169 2.94 164.319 2.91 164.459 2.89C164.559 2.85 164.649 2.82 164.729 2.8C164.809 2.76 164.889 2.75 164.969 2.77L165.239 2.68C165.379 2.62 165.519 2.64 165.659 2.74L166.139 3.01C166.179 3.03 166.209 3.05 166.229 3.07C166.269 3.09 166.299 3.12 166.319 3.16C166.379 3.26 166.429 3.36 166.469 3.46C166.529 3.56 166.569 3.67 166.589 3.79C166.589 3.87 166.599 3.94 166.619 4C166.659 4.06 166.659 4.13 166.619 4.21C166.599 4.27 166.579 4.33 166.559 4.39C166.539 4.45 166.519 4.51 166.499 4.57L166.409 4.78C166.389 4.88 166.329 4.96 166.229 5.02L166.109 5.14C166.069 5.18 166.019 5.23 165.959 5.29C165.919 5.33 165.889 5.38 165.869 5.44C165.849 5.5 165.809 5.54 165.749 5.56C165.669 5.58 165.589 5.61 165.509 5.65C165.449 5.69 165.389 5.74 165.329 5.8C165.249 5.82 165.169 5.85 165.089 5.89C165.009 5.91 164.919 5.91 164.819 5.89C164.699 5.87 164.549 5.91 164.369 6.01C164.269 6.07 164.159 6.12 164.039 6.16C163.919 6.18 163.799 6.21 163.679 6.25C163.439 6.31 163.219 6.31 163.019 6.25C162.939 6.21 162.859 6.19 162.779 6.19C162.699 6.19 162.619 6.18 162.539 6.16C162.459 6.14 162.379 6.12 162.299 6.1C162.239 6.08 162.159 6.07 162.059 6.07C161.979 6.07 161.909 6.07 161.849 6.07C161.789 6.05 161.719 6.03 161.639 6.01C161.559 5.99 161.429 5.98 161.249 5.98C161.189 5.98 161.129 5.99 161.069 6.01C161.009 6.01 160.939 6 160.859 5.98C160.779 5.96 160.689 5.96 160.589 5.98C160.509 5.98 160.419 5.99 160.319 6.01C160.259 6.03 160.199 6.05 160.139 6.07C160.099 6.07 160.059 6.07 160.019 6.07C159.899 6.11 159.809 6.12 159.749 6.1C159.649 6.08 159.549 6.08 159.449 6.1C159.349 6.1 159.249 6.11 159.149 6.13C159.109 6.13 159.059 6.13 158.999 6.13C158.939 6.13 158.889 6.12 158.849 6.1C158.609 6.04 158.379 6.09 158.159 6.25H158.099C158.019 6.33 157.939 6.34 157.859 6.28C157.659 6.18 157.509 6.22 157.409 6.4C157.349 6.52 157.259 6.56 157.139 6.52C157.019 6.52 156.939 6.5 156.899 6.46C156.799 6.42 156.719 6.45 156.659 6.55C156.619 6.59 156.579 6.61 156.539 6.61C156.479 6.61 156.439 6.6 156.419 6.58C156.339 6.56 156.269 6.56 156.209 6.58C155.969 6.68 155.749 6.76 155.549 6.82C155.489 6.82 155.459 6.86 155.459 6.94C155.439 7.24 155.439 7.55 155.459 7.87C155.479 7.95 155.489 8.04 155.489 8.14C155.489 8.22 155.499 8.31 155.519 8.41C155.519 8.49 155.519 8.57 155.519 8.65C155.539 8.73 155.559 8.81 155.579 8.89V9.01C155.599 9.21 155.619 9.4 155.639 9.58C155.659 9.76 155.679 9.95 155.699 10.15C155.699 10.25 155.729 10.38 155.789 10.54C155.829 10.64 155.899 10.69 155.999 10.69C156.059 10.71 156.119 10.72 156.179 10.72C156.239 10.72 156.299 10.72 156.359 10.72H158.789C158.949 10.68 159.109 10.66 159.269 10.66C159.449 10.66 159.619 10.66 159.779 10.66C159.859 10.68 159.929 10.69 159.989 10.69C160.069 10.67 160.139 10.67 160.199 10.69H160.469C160.589 10.67 160.709 10.66 160.829 10.66C160.949 10.64 161.079 10.62 161.219 10.6C161.379 10.56 161.519 10.54 161.639 10.54C161.679 10.52 161.739 10.51 161.819 10.51C161.979 10.53 162.159 10.51 162.359 10.45C162.439 10.39 162.539 10.38 162.659 10.42C162.739 10.44 162.819 10.45 162.899 10.45C162.979 10.43 163.059 10.42 163.139 10.42C163.219 10.4 163.289 10.39 163.349 10.39C163.429 10.39 163.499 10.39 163.559 10.39C163.839 10.41 164.129 10.39 164.429 10.33C164.549 10.31 164.669 10.3 164.789 10.3C164.909 10.3 165.019 10.3 165.119 10.3C165.159 10.3 165.199 10.31 165.239 10.33C165.299 10.33 165.349 10.32 165.389 10.3C165.549 10.26 165.709 10.24 165.869 10.24C166.049 10.22 166.219 10.18 166.379 10.12C166.419 10.1 166.469 10.08 166.529 10.06C166.589 10.04 166.639 10.02 166.679 10C166.799 9.94 166.919 9.9 167.039 9.88C167.179 9.84 167.309 9.81 167.429 9.79C167.489 9.77 167.579 9.76 167.699 9.76H167.789C167.869 9.78 167.949 9.81 168.029 9.85C168.109 9.89 168.179 9.94 168.239 10C168.379 10.14 168.519 10.21 168.659 10.21C168.719 10.21 168.769 10.25 168.809 10.33V10.42C168.809 10.48 168.789 10.51 168.749 10.51C168.749 10.51 168.739 10.52 168.719 10.54C168.699 10.54 168.689 10.55 168.689 10.57C168.729 10.61 168.769 10.63 168.809 10.63V10.66C168.829 10.7 168.819 10.77 168.779 10.87C168.719 10.93 168.719 11 168.779 11.08C168.859 11.2 168.869 11.31 168.809 11.41C168.749 11.53 168.689 11.65 168.629 11.77C168.569 11.89 168.509 12 168.449 12.1C168.329 12.28 168.189 12.41 168.029 12.49C167.949 12.51 167.849 12.54 167.729 12.58C167.629 12.6 167.529 12.62 167.429 12.64C167.169 12.68 166.899 12.72 166.619 12.76C166.359 12.8 166.089 12.84 165.809 12.88C165.709 12.9 165.609 12.92 165.509 12.94C165.409 12.94 165.309 12.95 165.209 12.97C165.009 12.99 164.809 13.01 164.609 13.03C164.409 13.05 164.209 13.08 164.009 13.12H163.769C163.669 13.14 163.559 13.16 163.439 13.18C163.339 13.18 163.239 13.18 163.139 13.18C162.979 13.18 162.819 13.19 162.659 13.21C162.499 13.21 162.339 13.22 162.179 13.24C162.079 13.26 161.979 13.27 161.879 13.27C161.779 13.27 161.679 13.27 161.579 13.27C161.379 13.27 161.169 13.27 160.949 13.27C160.749 13.25 160.539 13.23 160.319 13.21C160.079 13.19 159.839 13.18 159.599 13.18C159.379 13.18 159.149 13.18 158.909 13.18H157.799C157.699 13.18 157.629 13.19 157.589 13.21C157.389 13.23 157.179 13.25 156.959 13.27C156.759 13.27 156.549 13.27 156.329 13.27H156.239C156.099 13.31 156.029 13.38 156.029 13.48C156.029 13.56 156.029 13.64 156.029 13.72C156.029 13.78 156.039 13.84 156.059 13.9C156.099 14.2 156.129 14.5 156.149 14.8C156.189 15.08 156.209 15.36 156.209 15.64C156.209 15.78 156.209 15.91 156.209 16.03C156.209 16.15 156.219 16.28 156.239 16.42C156.239 16.74 156.249 17.06 156.269 17.38C156.309 17.7 156.319 18.03 156.299 18.37C156.299 18.51 156.299 18.65 156.299 18.79C156.319 18.93 156.339 19.08 156.359 19.24C156.379 19.38 156.379 19.52 156.359 19.66C156.359 19.78 156.369 19.92 156.389 20.08C156.389 20.16 156.389 20.25 156.389 20.35C156.409 20.43 156.429 20.52 156.449 20.62C156.469 20.68 156.469 20.74 156.449 20.8C156.449 20.86 156.459 20.92 156.479 20.98C156.479 21.06 156.479 21.14 156.479 21.22C156.479 21.28 156.489 21.35 156.509 21.43C156.529 21.61 156.479 21.76 156.359 21.88C156.339 21.94 156.309 21.99 156.269 22.03C156.249 22.09 156.229 22.14 156.209 22.18C156.169 22.28 156.109 22.36 156.029 22.42C155.949 22.5 155.859 22.57 155.759 22.63C155.739 22.65 155.709 22.66 155.669 22.66C155.629 22.68 155.589 22.7 155.549 22.72C155.429 22.76 155.339 22.8 155.279 22.84C155.239 22.92 155.179 22.97 155.099 22.99C155.039 23.01 154.969 23.04 154.889 23.08C154.809 23.1 154.719 23.11 154.619 23.11C154.539 23.13 154.459 23.14 154.379 23.14ZM174.601 22.21C174.481 22.21 174.401 22.2 174.361 22.18C174.261 22.14 174.161 22.12 174.061 22.12C173.981 22.14 173.891 22.15 173.791 22.15C173.771 22.15 173.751 22.15 173.731 22.15C173.711 22.17 173.691 22.18 173.671 22.18C173.531 22.2 173.391 22.21 173.251 22.21C173.131 22.21 173.011 22.19 172.891 22.15C172.871 22.13 172.851 22.12 172.831 22.12C172.691 22.14 172.571 22.1 172.471 22C172.371 21.9 172.271 21.81 172.171 21.73C172.071 21.63 172.021 21.52 172.021 21.4L171.931 21.16C171.871 21.02 171.851 20.89 171.871 20.77C171.891 20.73 171.891 20.69 171.871 20.65C171.871 20.61 171.871 20.57 171.871 20.53C171.851 20.49 171.841 20.45 171.841 20.41C171.841 20.35 171.831 20.3 171.811 20.26C171.771 20.08 171.741 19.9 171.721 19.72C171.721 19.52 171.731 19.33 171.751 19.15C171.771 19.03 171.841 18.83 171.961 18.55C172.081 18.25 172.151 18.07 172.171 18.01C172.231 17.91 172.261 17.83 172.261 17.77C172.241 17.55 172.231 17.33 172.231 17.11C172.251 16.87 172.261 16.64 172.261 16.42C172.261 16.28 172.291 16.17 172.351 16.09C172.431 15.95 172.441 15.8 172.381 15.64L172.291 15.31C172.171 15.09 172.181 14.9 172.321 14.74C172.321 14.72 172.321 14.71 172.321 14.71C172.341 14.69 172.351 14.67 172.351 14.65C172.391 14.61 172.401 14.56 172.381 14.5C172.361 14.42 172.351 14.36 172.351 14.32C172.351 14.24 172.361 14.16 172.381 14.08C172.421 13.98 172.431 13.89 172.411 13.81C172.411 13.81 172.391 13.79 172.351 13.75C172.331 13.71 172.321 13.63 172.321 13.51C172.341 13.39 172.351 13.32 172.351 13.3V12.46C172.371 12.36 172.381 12.27 172.381 12.19C172.381 12.09 172.391 11.99 172.411 11.89C172.431 11.77 172.431 11.65 172.411 11.53C172.411 11.39 172.411 11.25 172.411 11.11C172.391 11.01 172.371 10.9 172.351 10.78C172.351 10.66 172.351 10.54 172.351 10.42C172.331 10.38 172.321 10.33 172.321 10.27C172.321 10.21 172.321 10.16 172.321 10.12C172.301 10.02 172.281 9.92 172.261 9.82C172.261 9.72 172.261 9.62 172.261 9.52C172.261 9.48 172.221 9.35 172.141 9.13C172.061 8.89 172.031 8.69 172.051 8.53C172.071 8.49 172.081 8.44 172.081 8.38C172.081 8.32 172.061 8.27 172.021 8.23C171.981 8.21 171.961 8.17 171.961 8.11V8.02C172.021 7.78 171.991 7.54 171.871 7.3C171.791 7.18 171.761 7.06 171.781 6.94C171.781 6.78 171.711 6.66 171.571 6.58C171.471 6.48 171.381 6.36 171.301 6.22C171.221 6.08 171.171 5.94 171.151 5.8C171.131 5.7 171.121 5.6 171.121 5.5C171.121 5.4 171.121 5.31 171.121 5.23C171.121 5.15 171.131 5.1 171.151 5.08C171.231 5 171.271 4.91 171.271 4.81C171.271 4.69 171.281 4.6 171.301 4.54C171.321 4.52 171.341 4.51 171.361 4.51C171.381 4.51 171.401 4.5 171.421 4.48C171.501 4.46 171.541 4.39 171.541 4.27C171.501 4.19 171.481 4.12 171.481 4.06C171.461 3.98 171.491 3.91 171.571 3.85C171.611 3.77 171.661 3.75 171.721 3.79C171.861 3.85 172.021 3.83 172.201 3.73C172.281 3.69 172.331 3.67 172.351 3.67C172.411 3.67 172.441 3.67 172.441 3.67C172.461 3.65 172.521 3.64 172.621 3.64C172.741 3.66 172.851 3.62 172.951 3.52C173.091 3.38 173.261 3.31 173.461 3.31H175.321C175.781 3.33 176.241 3.33 176.701 3.31C177.161 3.29 177.611 3.28 178.051 3.28C178.151 3.28 178.231 3.28 178.291 3.28C178.371 3.26 178.451 3.24 178.531 3.22C178.651 3.16 178.791 3.13 178.951 3.13H179.641C179.801 3.13 179.941 3.13 180.061 3.13C180.201 3.11 180.341 3.09 180.481 3.07C180.561 3.05 180.631 3.04 180.691 3.04C180.771 3.04 180.851 3.04 180.931 3.04C181.011 3.04 181.091 3.04 181.171 3.04C181.251 3.04 181.331 3.03 181.411 3.01C181.571 2.99 181.741 2.98 181.921 2.98C182.101 2.96 182.271 2.95 182.431 2.95C182.511 2.95 182.581 2.95 182.641 2.95C182.721 2.93 182.801 2.91 182.881 2.89C183.041 2.85 183.191 2.83 183.331 2.83C183.491 2.81 183.641 2.79 183.781 2.77C183.941 2.75 184.091 2.73 184.231 2.71C184.391 2.69 184.541 2.67 184.681 2.65C184.861 2.65 184.991 2.67 185.071 2.71C185.191 2.79 185.301 2.86 185.401 2.92C185.521 2.98 185.631 3.06 185.731 3.16C185.811 3.24 185.861 3.31 185.881 3.37C185.901 3.45 185.921 3.53 185.941 3.61C185.961 3.69 185.981 3.78 186.001 3.88V4.09C185.981 4.19 185.961 4.3 185.941 4.42C185.941 4.52 185.931 4.63 185.911 4.75C185.871 4.83 185.821 4.9 185.761 4.96L185.221 5.5C185.021 5.56 184.821 5.6 184.621 5.62C184.441 5.64 184.251 5.64 184.051 5.62H183.841C183.741 5.64 183.641 5.65 183.541 5.65C183.441 5.65 183.341 5.64 183.241 5.62C183.121 5.6 183.001 5.6 182.881 5.62C182.761 5.62 182.641 5.62 182.521 5.62C182.441 5.62 182.361 5.63 182.281 5.65C182.221 5.65 182.151 5.64 182.071 5.62C181.971 5.6 181.871 5.6 181.771 5.62C181.691 5.62 181.601 5.63 181.501 5.65C181.421 5.65 181.331 5.66 181.231 5.68C181.151 5.68 181.061 5.68 180.961 5.68C180.701 5.72 180.421 5.74 180.121 5.74C179.841 5.74 179.561 5.76 179.281 5.8C179.101 5.78 178.931 5.79 178.771 5.83C178.611 5.85 178.441 5.87 178.261 5.89C178.101 5.91 177.931 5.92 177.751 5.92C177.571 5.92 177.401 5.94 177.241 5.98C177.041 5.98 176.841 6.01 176.641 6.07C176.461 6.11 176.271 6.14 176.071 6.16L175.861 6.19C175.721 6.19 175.591 6.21 175.471 6.25C175.351 6.27 175.221 6.3 175.081 6.34C175.001 6.36 174.921 6.38 174.841 6.4C174.761 6.4 174.671 6.41 174.571 6.43C174.511 6.43 174.441 6.45 174.361 6.49C174.301 6.51 174.271 6.57 174.271 6.67L174.361 6.94C174.381 6.98 174.371 7.08 174.331 7.24C174.311 7.4 174.291 7.52 174.271 7.6C174.271 7.66 174.281 7.72 174.301 7.78C174.321 7.84 174.341 7.9 174.361 7.96C174.421 8.12 174.451 8.3 174.451 8.5C174.451 8.68 174.471 8.85 174.511 9.01C174.531 9.09 174.541 9.18 174.541 9.28C174.541 9.36 174.551 9.45 174.571 9.55C174.571 9.59 174.571 9.64 174.571 9.7C174.591 9.74 174.601 9.79 174.601 9.85C174.601 9.91 174.591 9.95 174.571 9.97C174.511 10.05 174.481 10.14 174.481 10.24C174.481 10.34 174.481 10.44 174.481 10.54C174.581 10.74 174.631 10.94 174.631 11.14C174.631 11.34 174.631 11.54 174.631 11.74C174.631 11.8 174.681 11.82 174.781 11.8H174.811C174.851 11.72 174.891 11.66 174.931 11.62C174.991 11.62 175.061 11.6 175.141 11.56C175.201 11.52 175.281 11.5 175.381 11.5C175.541 11.52 175.691 11.52 175.831 11.5C175.971 11.46 176.111 11.42 176.251 11.38C177.191 11.14 178.071 10.83 178.891 10.45C179.111 10.35 179.341 10.27 179.581 10.21C179.821 10.13 180.061 10.08 180.301 10.06H180.391C180.571 10.04 180.751 10.02 180.931 10C181.111 9.98 181.291 9.97 181.471 9.97C181.711 9.95 181.941 9.92 182.161 9.88C182.401 9.84 182.641 9.81 182.881 9.79C183.021 9.75 183.151 9.72 183.271 9.7C183.391 9.66 183.521 9.61 183.661 9.55C183.921 9.45 184.161 9.4 184.381 9.4C184.541 9.42 184.691 9.46 184.831 9.52C184.971 9.56 185.111 9.62 185.251 9.7C185.551 9.9 185.701 10.2 185.701 10.6C185.701 10.76 185.681 10.92 185.641 11.08C185.621 11.24 185.611 11.4 185.611 11.56C185.611 11.6 185.591 11.64 185.551 11.68L185.461 11.83C185.441 11.91 185.421 11.99 185.401 12.07C185.381 12.15 185.331 12.21 185.251 12.25C185.131 12.35 185.001 12.46 184.861 12.58C184.741 12.68 184.601 12.75 184.441 12.79C184.361 12.81 184.281 12.83 184.201 12.85C184.141 12.87 184.071 12.88 183.991 12.88C183.671 12.88 183.341 12.9 183.001 12.94C182.681 12.98 182.351 13.02 182.011 13.06C181.751 13.08 181.491 13.11 181.231 13.15C180.991 13.19 180.741 13.21 180.481 13.21C180.241 13.21 179.971 13.26 179.671 13.36C179.471 13.4 179.261 13.44 179.041 13.48C178.821 13.52 178.601 13.55 178.381 13.57C178.221 13.59 178.051 13.62 177.871 13.66C177.711 13.68 177.551 13.7 177.391 13.72L176.881 13.81C176.841 13.83 176.781 13.84 176.701 13.84C176.561 13.88 176.421 13.91 176.281 13.93C176.141 13.95 176.001 13.98 175.861 14.02C175.721 14.04 175.581 14.07 175.441 14.11C175.321 14.15 175.191 14.19 175.051 14.23C174.951 14.25 174.871 14.29 174.811 14.35C174.751 14.39 174.701 14.45 174.661 14.53C174.641 14.59 174.641 14.65 174.661 14.71C174.681 14.79 174.671 14.87 174.631 14.95C174.651 15.15 174.661 15.35 174.661 15.55C174.681 15.75 174.681 15.95 174.661 16.15C174.701 16.31 174.711 16.47 174.691 16.63C174.691 16.79 174.681 16.95 174.661 17.11C174.621 17.35 174.631 17.55 174.691 17.71C174.751 17.97 174.731 18.24 174.631 18.52C174.591 18.64 174.591 18.72 174.631 18.76C174.671 18.82 174.671 18.89 174.631 18.97V19.15C174.611 19.31 174.681 19.39 174.841 19.39H174.901C175.041 19.39 175.181 19.44 175.321 19.54C175.421 19.64 175.541 19.67 175.681 19.63L176.521 19.54C176.641 19.52 176.761 19.51 176.881 19.51C177.001 19.49 177.121 19.48 177.241 19.48C177.281 19.46 177.341 19.47 177.421 19.51C177.521 19.57 177.611 19.58 177.691 19.54C177.731 19.5 177.781 19.47 177.841 19.45C177.921 19.43 177.981 19.4 178.021 19.36C178.141 19.24 178.291 19.2 178.471 19.24C178.631 19.28 178.761 19.27 178.861 19.21C179.041 19.15 179.211 19.13 179.371 19.15C179.471 19.17 179.571 19.16 179.671 19.12C179.771 19.08 179.871 19.06 179.971 19.06C180.011 19.06 180.041 19.07 180.061 19.09C180.081 19.09 180.101 19.08 180.121 19.06C180.161 19.06 180.201 19.05 180.241 19.03C180.281 19.01 180.311 19 180.331 19C180.471 18.94 180.601 18.92 180.721 18.94C180.821 18.94 180.871 18.94 180.871 18.94C180.951 18.92 181.021 18.92 181.081 18.94C181.161 18.96 181.231 18.99 181.291 19.03C181.391 19.05 181.471 19.08 181.531 19.12C181.611 19.16 181.691 19.19 181.771 19.21C181.811 19.21 181.841 19.22 181.861 19.24C181.961 19.32 182.081 19.39 182.221 19.45C182.381 19.51 182.471 19.58 182.491 19.66C182.531 19.78 182.551 19.9 182.551 20.02C182.551 20.12 182.561 20.23 182.581 20.35C182.581 20.41 182.571 20.47 182.551 20.53C182.551 20.59 182.541 20.65 182.521 20.71C182.481 20.79 182.431 20.88 182.371 20.98C182.331 21.08 182.271 21.17 182.191 21.25C182.151 21.29 182.111 21.33 182.071 21.37C182.051 21.41 182.021 21.45 181.981 21.49C181.901 21.57 181.811 21.64 181.711 21.7C181.611 21.76 181.501 21.79 181.381 21.79C181.301 21.79 181.241 21.8 181.201 21.82C181.121 21.86 181.041 21.88 180.961 21.88C180.881 21.88 180.791 21.88 180.691 21.88C180.551 21.9 180.411 21.92 180.271 21.94C180.151 21.94 180.021 21.93 179.881 21.91C179.801 21.89 179.731 21.89 179.671 21.91C179.471 21.97 179.271 21.98 179.071 21.94C178.871 21.94 178.671 21.95 178.471 21.97C178.291 21.97 178.111 21.97 177.931 21.97H177.541C177.481 21.97 177.431 21.98 177.391 22C177.311 22.04 177.211 22.06 177.091 22.06C176.991 22.06 176.891 22.05 176.791 22.03H176.491C176.471 22.03 176.441 22.03 176.401 22.03C176.361 22.05 176.321 22.05 176.281 22.03C176.221 22.01 176.161 22 176.101 22C176.061 22.02 176.011 22.04 175.951 22.06C175.911 22.06 175.871 22.06 175.831 22.06C175.811 22.08 175.781 22.09 175.741 22.09C175.541 22.07 175.351 22.07 175.171 22.09C174.991 22.13 174.801 22.17 174.601 22.21Z" fill="#353535"/>
</svg>
