<svg width="202" height="32" viewBox="0 0 202 32" fill="none" xmlns="http://www.w3.org/2000/svg">
<path d="M12.9249 31.19C12.7449 31.19 12.5849 31.12 12.4449 30.98C12.4049 30.92 12.3649 30.86 12.3249 30.8C12.2849 30.74 12.2449 30.68 12.2049 30.62C12.0249 30.2 11.9349 29.76 11.9349 29.3L11.8449 28.58C11.7849 28.3 11.7349 28.02 11.6949 27.74C11.6549 27.46 11.5849 27.19 11.4849 26.93L11.3049 26.42C11.3049 26.38 11.2949 26.34 11.2749 26.3C11.2749 26.26 11.2649 26.22 11.2449 26.18L10.7949 24.59C10.7749 24.55 10.7549 24.5 10.7349 24.44C10.7349 24.38 10.7149 24.33 10.6749 24.29C10.6149 24.17 10.5649 24.05 10.5249 23.93C10.5049 23.79 10.4749 23.65 10.4349 23.51C10.4149 23.41 10.3949 23.32 10.3749 23.24C10.3549 23.14 10.3249 23.04 10.2849 22.94C10.2449 22.82 10.2049 22.75 10.1649 22.73C10.1249 22.69 10.0349 22.69 9.89492 22.73C9.79492 22.75 9.68492 22.77 9.56492 22.79C9.46492 22.79 9.36492 22.81 9.26492 22.85C9.18492 22.87 9.08492 22.89 8.96492 22.91C8.86492 22.91 8.76492 22.92 8.66492 22.94L8.24492 23.03C8.14492 23.05 8.03492 23.08 7.91492 23.12C7.81492 23.14 7.71492 23.15 7.61492 23.15L7.07492 23.24C6.91492 23.28 6.74492 23.32 6.56492 23.36C6.38492 23.4 6.21492 23.44 6.05492 23.48C5.57492 23.6 5.09492 23.69 4.61492 23.75C4.45492 23.79 4.36492 23.86 4.34492 23.96C4.32492 23.96 4.31492 23.97 4.31492 23.99C4.19492 24.31 4.05492 24.63 3.89492 24.95C3.75492 25.25 3.60492 25.56 3.44492 25.88C3.40492 25.96 3.36492 26.04 3.32492 26.12C3.30492 26.18 3.27492 26.25 3.23492 26.33C3.21492 26.37 3.19492 26.42 3.17492 26.48C3.15492 26.52 3.13492 26.56 3.11492 26.6C2.99492 26.74 2.93492 26.91 2.93492 27.11C2.91492 27.23 2.87492 27.35 2.81492 27.47C2.75492 27.57 2.69492 27.67 2.63492 27.77C2.61492 27.83 2.57492 27.86 2.51492 27.86C2.43492 27.88 2.35492 27.91 2.27492 27.95C2.19492 27.99 2.10492 28.03 2.00492 28.07C1.94492 28.09 1.88492 28.09 1.82492 28.07C1.78492 28.05 1.73492 28.03 1.67492 28.01C1.63492 27.97 1.59492 27.95 1.55492 27.95C1.33492 27.93 1.17492 27.8 1.07492 27.56C0.914922 27.24 0.804922 26.92 0.744922 26.6C0.724922 26.52 0.724922 26.45 0.744922 26.39C0.784922 26.33 0.814922 26.27 0.834922 26.21C0.954922 26.13 1.02492 26.04 1.04492 25.94V25.91C1.04492 25.65 1.09492 25.41 1.19492 25.19C1.31492 24.95 1.41492 24.72 1.49492 24.5C1.53492 24.38 1.58492 24.26 1.64492 24.14C1.70492 24.02 1.76492 23.9 1.82492 23.78C1.90492 23.64 1.96492 23.51 2.00492 23.39C2.06492 23.25 2.11492 23.11 2.15492 22.97C2.21492 22.81 2.21492 22.66 2.15492 22.52C2.11492 22.4 2.09492 22.29 2.09492 22.19C2.09492 22.07 2.10492 21.95 2.12492 21.83C2.12492 21.61 2.20492 21.42 2.36492 21.26C2.44492 21.16 2.52492 21.08 2.60492 21.02C2.70492 20.94 2.79492 20.86 2.87492 20.78C3.05492 20.6 3.19492 20.36 3.29492 20.06C3.37492 19.8 3.43492 19.54 3.47492 19.28C3.53492 19 3.59492 18.73 3.65492 18.47C3.69492 18.21 3.73492 17.96 3.77492 17.72C3.83492 17.46 3.89492 17.21 3.95492 16.97C3.97492 16.87 3.99492 16.78 4.01492 16.7C4.05492 16.6 4.08492 16.51 4.10492 16.43C4.16492 16.27 4.22492 16.12 4.28492 15.98C4.34492 15.82 4.38492 15.66 4.40492 15.5C4.44492 15.42 4.44492 15.35 4.40492 15.29C4.38492 15.19 4.38492 15.1 4.40492 15.02C4.44492 14.94 4.47492 14.86 4.49492 14.78C4.55492 14.64 4.59492 14.5 4.61492 14.36C4.65492 14.22 4.70492 14.08 4.76492 13.94C4.86492 13.68 4.94492 13.47 5.00492 13.31C5.08492 13.13 5.15492 12.93 5.21492 12.71C5.25492 12.59 5.29492 12.48 5.33492 12.38C5.39492 12.26 5.43492 12.14 5.45492 12.02C5.51492 11.84 5.56492 11.66 5.60492 11.48C5.64492 11.28 5.66492 11.09 5.66492 10.91C5.70492 10.75 5.74492 10.64 5.78492 10.58C5.88492 10.38 6.00492 10.21 6.14492 10.07C6.30492 9.93 6.45492 9.79 6.59492 9.65C6.69492 9.59 6.79492 9.55 6.89492 9.53C6.99492 9.49 7.09492 9.5 7.19492 9.56C7.27492 9.6 7.32492 9.62 7.34492 9.62C7.52492 9.6 7.67492 9.64 7.79492 9.74C7.91492 9.84 8.01492 9.96 8.09492 10.1C8.13492 10.14 8.16492 10.19 8.18492 10.25C8.20492 10.31 8.22492 10.36 8.24492 10.4C8.34492 10.56 8.39492 10.72 8.39492 10.88C8.39492 10.96 8.40492 11.05 8.42492 11.15C8.44492 11.23 8.46492 11.32 8.48492 11.42C8.54492 11.54 8.63492 11.6 8.75492 11.6C8.77492 11.58 8.79492 11.58 8.81492 11.6C8.83492 11.62 8.84492 11.64 8.84492 11.66C8.94492 11.78 8.97492 11.91 8.93492 12.05C8.89492 12.21 8.88492 12.37 8.90492 12.53C8.94492 12.67 8.98492 12.82 9.02492 12.98C9.10492 13.18 9.18492 13.38 9.26492 13.58C9.34492 13.78 9.42492 13.98 9.50492 14.18C9.60492 14.4 9.70492 14.62 9.80492 14.84C9.90492 15.06 9.99492 15.28 10.0749 15.5C10.1749 15.78 10.2749 16.06 10.3749 16.34C10.4949 16.62 10.6249 16.9 10.7649 17.18L10.8549 17.51C10.8749 17.59 10.8949 17.67 10.9149 17.75C10.9549 17.83 10.9849 17.91 11.0049 17.99C11.0449 18.05 11.0749 18.11 11.0949 18.17C11.1349 18.23 11.1749 18.28 11.2149 18.32C11.3149 18.46 11.3749 18.61 11.3949 18.77C11.4549 18.97 11.5449 19.15 11.6649 19.31C11.7049 19.37 11.7649 19.4 11.8449 19.4C12.1449 19.36 12.4449 19.33 12.7449 19.31C13.0449 19.27 13.3449 19.21 13.6449 19.13C13.8649 19.07 14.0749 19.04 14.2749 19.04C14.6549 19.04 15.0049 19.17 15.3249 19.43C15.7049 19.73 15.9049 20.11 15.9249 20.57C15.9249 20.67 15.9349 20.75 15.9549 20.81C15.9549 20.95 15.9149 21.06 15.8349 21.14C15.8149 21.2 15.7749 21.26 15.7149 21.32C15.6749 21.38 15.6349 21.44 15.5949 21.5C15.5549 21.58 15.5149 21.64 15.4749 21.68L15.2949 21.83C15.2749 21.87 15.2449 21.92 15.2049 21.98C15.1649 22.02 15.1149 22.05 15.0549 22.07C14.9749 22.09 14.8949 22.12 14.8149 22.16C14.7349 22.18 14.6449 22.19 14.5449 22.19C14.1849 22.23 13.8649 22.22 13.5849 22.16H13.1049C13.0649 22.16 13.0049 22.18 12.9249 22.22C12.8449 22.26 12.8049 22.31 12.8049 22.37V22.49C12.8649 22.67 12.9049 22.86 12.9249 23.06C12.9649 23.24 13.0249 23.41 13.1049 23.57C13.1049 23.65 13.1249 23.73 13.1649 23.81C13.2649 23.99 13.3449 24.18 13.4049 24.38C13.4649 24.56 13.5149 24.75 13.5549 24.95C13.5549 24.99 13.5749 25.07 13.6149 25.19C13.6749 25.33 13.7249 25.48 13.7649 25.64C13.8049 25.78 13.8349 25.93 13.8549 26.09C13.8549 26.21 13.8849 26.32 13.9449 26.42C14.0249 26.6 14.0849 26.78 14.1249 26.96C14.1649 27.14 14.1949 27.33 14.2149 27.53C14.2349 27.55 14.2449 27.59 14.2449 27.65C14.2449 27.69 14.2549 27.73 14.2749 27.77C14.3749 27.99 14.4449 28.23 14.4849 28.49C14.5249 28.73 14.5749 28.97 14.6349 29.21C14.6749 29.33 14.6949 29.45 14.6949 29.57C14.7149 29.71 14.7249 29.85 14.7249 29.99C14.7249 30.09 14.6949 30.2 14.6349 30.32C14.5749 30.38 14.5449 30.41 14.5449 30.41C14.4249 30.43 14.3549 30.5 14.3349 30.62L14.2449 30.8C14.2049 30.88 14.1449 30.93 14.0649 30.95C13.9849 30.95 13.9149 30.98 13.8549 31.04C13.7749 31.12 13.6649 31.16 13.5249 31.16C13.4449 31.16 13.3449 31.16 13.2249 31.16C13.1249 31.16 13.0249 31.17 12.9249 31.19ZM5.69492 20.3C5.81492 20.28 5.93492 20.26 6.05492 20.24C6.19492 20.22 6.34492 20.2 6.50492 20.18C6.60492 20.16 6.73492 20.14 6.89492 20.12C7.05492 20.1 7.20492 20.08 7.34492 20.06C7.48492 20.02 7.62492 20 7.76492 20C7.90492 19.98 8.04492 19.96 8.18492 19.94C8.30492 19.9 8.42492 19.88 8.54492 19.88C8.66492 19.86 8.78492 19.84 8.90492 19.82C9.08492 19.78 9.15492 19.68 9.11492 19.52C9.09492 19.36 9.05492 19.2 8.99492 19.04C8.95492 18.86 8.86492 18.71 8.72492 18.59C8.68492 18.55 8.66492 18.49 8.66492 18.41V18.32C8.62492 18.16 8.57492 18.01 8.51492 17.87C8.47492 17.71 8.42492 17.56 8.36492 17.42C8.32492 17.26 8.27492 17.12 8.21492 17C8.17492 16.86 8.12492 16.72 8.06492 16.58L7.70492 15.5C7.64492 15.36 7.58492 15.22 7.52492 15.08C7.48492 14.94 7.44492 14.8 7.40492 14.66L7.31492 14.54H7.22492L7.16492 14.63C7.06492 14.93 6.94492 15.23 6.80492 15.53C6.68492 15.83 6.57492 16.15 6.47492 16.49C6.47492 16.53 6.46492 16.58 6.44492 16.64C6.42492 16.7 6.40492 16.76 6.38492 16.82C6.30492 17.02 6.22492 17.24 6.14492 17.48C6.08492 17.72 6.03492 17.96 5.99492 18.2C5.97492 18.34 5.95492 18.48 5.93492 18.62C5.91492 18.74 5.88492 18.87 5.84492 19.01L5.57492 20.18C5.55492 20.2 5.56492 20.23 5.60492 20.27C5.64492 20.29 5.67492 20.3 5.69492 20.3ZM4.91492 9.5C4.77492 9.48 4.67492 9.39 4.61492 9.23C4.51492 9.07 4.46492 8.9 4.46492 8.72C4.44492 8.6 4.42492 8.48 4.40492 8.36C4.38492 8.24 4.35492 8.12 4.31492 8C4.31492 7.92 4.27492 7.82 4.19492 7.7L4.04492 7.52C3.76492 7.22 3.62492 6.82 3.62492 6.32C3.64492 6.04 3.70492 5.78 3.80492 5.54C3.90492 5.28 4.05492 5.05 4.25492 4.85C4.35492 4.75 4.45492 4.67 4.55492 4.61C4.65492 4.55 4.75492 4.49 4.85492 4.43C4.95492 4.39 5.03492 4.35 5.09492 4.31C5.17492 4.27 5.25492 4.24 5.33492 4.22C5.37492 4.18 5.41492 4.15 5.45492 4.13C5.49492 4.11 5.52492 4.09 5.54492 4.07C5.64492 4.01 5.73492 3.95 5.81492 3.89C5.89492 3.81 5.97492 3.73 6.05492 3.65C6.33492 3.45 6.60492 3.25 6.86492 3.05C7.14492 2.83 7.41492 2.62 7.67492 2.42C7.95492 2.2 8.19492 1.96 8.39492 1.7C8.45492 1.62 8.51492 1.55 8.57492 1.49C8.65492 1.41 8.73492 1.33 8.81492 1.25C8.91492 1.15 9.04492 1.07 9.20492 1.01L9.83492 0.829998C9.95492 0.789998 10.0449 0.779999 10.1049 0.799998C10.1249 0.819998 10.1649 0.829998 10.2249 0.829998C10.5449 0.829998 10.8549 0.959998 11.1549 1.22C11.3149 1.34 11.4149 1.42 11.4549 1.46C11.4949 1.5 11.5349 1.62 11.5749 1.82C11.6149 1.98 11.6349 2.11 11.6349 2.21C11.6549 2.27 11.6449 2.34 11.6049 2.42C11.6049 2.46 11.5949 2.5 11.5749 2.54C11.5549 2.58 11.5349 2.62 11.5149 2.66L11.2449 3.32C11.2249 3.38 11.1949 3.44 11.1549 3.5C11.1349 3.54 11.1049 3.58 11.0649 3.62C10.9849 3.76 10.8849 3.89 10.7649 4.01C10.6649 4.13 10.5549 4.25 10.4349 4.37C10.3549 4.45 10.2549 4.54 10.1349 4.64C10.0349 4.74 9.93492 4.84 9.83492 4.94C9.55492 5.2 9.26492 5.43 8.96492 5.63C8.78492 5.75 8.59492 5.88 8.39492 6.02C8.21492 6.14 8.03492 6.27 7.85492 6.41C7.81492 6.43 7.77492 6.46 7.73492 6.5C7.69492 6.52 7.65492 6.54 7.61492 6.56C7.51492 6.64 7.41492 6.71 7.31492 6.77C7.23492 6.83 7.14492 6.9 7.04492 6.98C6.90492 7.12 6.75492 7.25 6.59492 7.37C6.43492 7.49 6.27492 7.62 6.11492 7.76C5.87492 7.94 5.72492 8.18 5.66492 8.48L5.57492 9.02C5.55492 9.2 5.48492 9.33 5.36492 9.41C5.22492 9.49 5.07492 9.52 4.91492 9.5ZM29.8618 30.53C29.7818 30.55 29.7218 30.53 29.6818 30.47C29.6018 30.41 29.5218 30.35 29.4418 30.29C29.3818 30.23 29.3018 30.17 29.2018 30.11C29.0418 30.03 28.9118 29.89 28.8118 29.69C28.6318 29.41 28.5418 29.11 28.5418 28.79C28.5418 28.69 28.5318 28.59 28.5118 28.49C28.5118 28.39 28.5018 28.29 28.4818 28.19C28.4818 28.09 28.4718 28 28.4518 27.92C28.4518 27.82 28.4518 27.73 28.4518 27.65C28.4518 27.55 28.4518 27.45 28.4518 27.35C28.4518 27.23 28.4418 27.12 28.4218 27.02C28.4218 27 28.4118 26.99 28.3918 26.99C28.3918 26.97 28.3918 26.96 28.3918 26.96C28.3518 26.96 28.3218 26.97 28.3018 26.99L27.9418 27.44C27.8618 27.56 27.7618 27.67 27.6418 27.77C27.5418 27.85 27.4418 27.94 27.3418 28.04C27.0218 28.28 26.7018 28.48 26.3818 28.64C26.2418 28.7 26.1118 28.75 25.9918 28.79C25.3118 29.03 24.6418 29.14 23.9818 29.12C23.7618 29.1 23.5318 29.08 23.2918 29.06C23.0718 29.06 22.8418 29.03 22.6018 28.97C22.4218 28.91 22.2418 28.85 22.0618 28.79C21.9018 28.71 21.7418 28.61 21.5818 28.49C21.4418 28.37 21.3018 28.25 21.1618 28.13C21.0218 27.99 20.8918 27.84 20.7718 27.68C20.5718 27.36 20.4418 27.16 20.3818 27.08C20.3218 27 20.2318 26.8 20.1118 26.48L19.9618 26.21C19.9018 26.05 19.8318 25.9 19.7518 25.76C19.6918 25.6 19.6418 25.44 19.6018 25.28L19.4518 24.86C19.4118 24.72 19.3718 24.59 19.3318 24.47C19.2918 24.33 19.2518 24.19 19.2118 24.05C19.1318 23.79 19.0618 23.53 19.0018 23.27C18.9418 22.99 18.8818 22.72 18.8218 22.46L18.7318 21.92C18.7318 21.88 18.7218 21.84 18.7018 21.8C18.7018 21.74 18.7018 21.68 18.7018 21.62L18.5218 20.75C18.5018 20.65 18.4918 20.56 18.4918 20.48C18.4918 20.38 18.4918 20.29 18.4918 20.21C18.4718 20.05 18.4618 19.89 18.4618 19.73C18.4818 19.57 18.4918 19.41 18.4918 19.25C18.5118 19.03 18.5418 18.82 18.5818 18.62C18.6218 18.4 18.6618 18.19 18.7018 17.99C18.7818 17.71 18.8618 17.43 18.9418 17.15C19.0418 16.85 19.1518 16.57 19.2718 16.31C19.3718 16.09 19.4718 15.88 19.5718 15.68C19.6718 15.46 19.7918 15.25 19.9318 15.05C20.1118 14.75 20.3018 14.46 20.5018 14.18C20.7218 13.9 20.9418 13.63 21.1618 13.37C21.3218 13.19 21.4818 13.02 21.6418 12.86C21.8018 12.68 21.9618 12.5 22.1218 12.32C22.4018 12.04 22.7018 11.8 23.0218 11.6C23.1818 11.5 23.3418 11.44 23.5018 11.42C23.5618 11.4 23.6118 11.39 23.6518 11.39C23.7118 11.39 23.7618 11.38 23.8018 11.36C24.0218 11.32 24.2218 11.33 24.4018 11.39C24.4618 11.41 24.5218 11.43 24.5818 11.45C24.6618 11.47 24.7318 11.49 24.7918 11.51C25.0518 11.61 25.2818 11.67 25.4818 11.69C25.6018 11.69 25.7418 11.73 25.9018 11.81C26.0018 11.83 26.1018 11.86 26.2018 11.9C26.3018 11.92 26.4018 11.94 26.5018 11.96C26.6218 11.96 26.7218 11.99 26.8018 12.05C26.8218 12.05 26.8418 12.06 26.8618 12.08C26.9018 12.08 26.9318 12.08 26.9518 12.08C27.1118 12.1 27.2518 12.14 27.3718 12.2C27.4918 12.24 27.6118 12.3 27.7318 12.38C28.0118 12.56 28.3018 12.76 28.6018 12.98C28.7818 13.12 28.8718 13.31 28.8718 13.55V13.7C28.9318 13.94 28.8718 14.18 28.6918 14.42C28.5918 14.6 28.5118 14.72 28.4518 14.78C28.4118 14.82 28.2918 14.89 28.0918 14.99C28.0318 15.01 27.9618 15.04 27.8818 15.08C27.8218 15.1 27.7418 15.11 27.6418 15.11C27.6018 15.11 27.5518 15.12 27.4918 15.14C27.4518 15.14 27.4118 15.14 27.3718 15.14C27.3118 15.16 27.2518 15.16 27.1918 15.14C27.1318 15.12 27.0718 15.11 27.0118 15.11C26.9918 15.13 26.9618 15.12 26.9218 15.08L26.4718 14.72C26.1518 14.44 25.7818 14.28 25.3618 14.24C25.2818 14.22 25.2018 14.21 25.1218 14.21C25.0418 14.21 24.9518 14.2 24.8518 14.18C24.5918 14.18 24.3818 14.25 24.2218 14.39L24.0118 14.6C23.8318 14.8 23.6418 15 23.4418 15.2C23.2618 15.4 23.0818 15.6 22.9018 15.8C22.7618 15.94 22.6418 16.1 22.5418 16.28C22.4418 16.46 22.3418 16.64 22.2418 16.82C21.9218 17.44 21.6818 18.1 21.5218 18.8C21.5018 18.92 21.4818 19.04 21.4618 19.16C21.4418 19.26 21.4218 19.36 21.4018 19.46C21.4018 19.56 21.4018 19.66 21.4018 19.76C21.4018 19.86 21.4118 19.96 21.4318 20.06C21.4518 20.14 21.4618 20.22 21.4618 20.3C21.4618 20.36 21.4718 20.43 21.4918 20.51L21.5818 21.23C21.6018 21.35 21.6218 21.48 21.6418 21.62C21.6818 21.74 21.7118 21.86 21.7318 21.98C21.9318 22.76 22.1718 23.55 22.4518 24.35C22.5518 24.65 22.6718 24.91 22.8118 25.13L22.9918 25.4C23.0518 25.48 23.1118 25.56 23.1718 25.64C23.2318 25.7 23.2918 25.76 23.3518 25.82C23.4718 25.9 23.5718 25.95 23.6518 25.97C23.9518 26.03 24.2618 26.06 24.5818 26.06C24.9818 26.02 25.3218 25.89 25.6018 25.67C25.7418 25.57 25.8618 25.46 25.9618 25.34C26.0818 25.22 26.1918 25.09 26.2918 24.95C26.5318 24.67 26.7418 24.37 26.9218 24.05C26.9818 23.93 26.9718 23.81 26.8918 23.69C26.7718 23.49 26.6218 23.33 26.4418 23.21C26.2218 23.05 25.9918 22.92 25.7518 22.82C25.5318 22.7 25.2818 22.63 25.0018 22.61L24.8518 22.55C24.6918 22.49 24.5218 22.49 24.3418 22.55C24.2018 22.61 24.0518 22.64 23.8918 22.64C23.7518 22.62 23.6018 22.6 23.4418 22.58C23.0818 22.48 22.7718 22.32 22.5118 22.1C22.4318 22 22.3618 21.9 22.3018 21.8C22.2618 21.7 22.2118 21.61 22.1518 21.53C22.1518 21.49 22.1418 21.45 22.1218 21.41C22.1218 21.37 22.1318 21.34 22.1518 21.32C22.1518 21.22 22.1518 21.12 22.1518 21.02C22.1718 20.92 22.1918 20.82 22.2118 20.72C22.2118 20.7 22.2318 20.63 22.2718 20.51C22.3118 20.41 22.3618 20.32 22.4218 20.24C22.5018 20.14 22.5818 20.05 22.6618 19.97C22.9818 19.67 23.3318 19.48 23.7118 19.4C23.9318 19.34 24.1518 19.3 24.3718 19.28C24.5918 19.24 24.8018 19.21 25.0018 19.19H27.5218C27.6818 19.19 27.8518 19.19 28.0318 19.19C28.2118 19.19 28.3918 19.18 28.5718 19.16C28.7318 19.14 28.8818 19.13 29.0218 19.13C29.1818 19.13 29.3418 19.13 29.5018 19.13C29.6818 19.13 29.8418 19.16 29.9818 19.22C30.2018 19.28 30.3718 19.41 30.4918 19.61C30.5518 19.69 30.6118 19.78 30.6718 19.88C30.7318 19.98 30.7718 20.08 30.7918 20.18C30.8118 20.2 30.8218 20.23 30.8218 20.27C30.8218 20.29 30.8318 20.32 30.8518 20.36L31.0618 21.47C31.1018 21.63 31.1318 21.8 31.1518 21.98C31.1718 22.16 31.1918 22.34 31.2118 22.52C31.2118 22.62 31.2118 22.73 31.2118 22.85C31.2318 22.95 31.2418 23.05 31.2418 23.15C31.2418 23.23 31.2418 23.32 31.2418 23.42C31.2618 23.52 31.2718 23.62 31.2718 23.72V25.1C31.2718 25.24 31.2718 25.4 31.2718 25.58C31.2918 25.74 31.3118 25.9 31.3318 26.06C31.3518 26.14 31.3618 26.22 31.3618 26.3C31.3618 26.38 31.3618 26.47 31.3618 26.57C31.3418 26.77 31.3518 26.98 31.3918 27.2C31.4318 27.4 31.4618 27.61 31.4818 27.83C31.5018 27.93 31.5218 28.04 31.5418 28.16C31.5818 28.26 31.6118 28.37 31.6318 28.49C31.6518 28.57 31.6618 28.66 31.6618 28.76C31.6818 28.84 31.6918 28.93 31.6918 29.03C31.6918 29.11 31.6818 29.19 31.6618 29.27C31.6618 29.37 31.6318 29.46 31.5718 29.54C31.5318 29.58 31.4918 29.64 31.4518 29.72C31.3718 29.94 31.2018 30.12 30.9418 30.26C30.7418 30.34 30.5318 30.4 30.3118 30.44C30.1318 30.44 29.9818 30.47 29.8618 30.53ZM39.6891 29.3C39.6691 29.28 39.6391 29.27 39.5991 29.27C39.3991 29.15 39.1991 29.04 38.9991 28.94C38.8191 28.82 38.6491 28.69 38.4891 28.55C38.4091 28.51 38.3591 28.47 38.3391 28.43C38.1591 28.33 37.9991 28.21 37.8591 28.07C37.7191 27.91 37.5891 27.74 37.4691 27.56C37.4291 27.52 37.3891 27.47 37.3491 27.41C37.3091 27.35 37.2591 27.29 37.1991 27.23C36.9991 27.03 36.8391 26.79 36.7191 26.51C36.6991 26.45 36.6691 26.39 36.6291 26.33C36.5891 26.27 36.5491 26.21 36.5091 26.15C36.3891 25.99 36.2991 25.84 36.2391 25.7C36.1991 25.54 36.1391 25.39 36.0591 25.25C35.9791 25.09 35.8991 24.94 35.8191 24.8C35.7991 24.72 35.7691 24.64 35.7291 24.56C35.6891 24.48 35.6591 24.4 35.6391 24.32C35.6391 24.22 35.6091 24.11 35.5491 23.99C35.4691 23.77 35.3891 23.55 35.3091 23.33C35.2491 23.09 35.1891 22.85 35.1291 22.61C35.0891 22.53 35.0691 22.47 35.0691 22.43C34.9491 22.17 34.8591 21.9 34.7991 21.62C34.7391 21.34 34.6791 21.07 34.6191 20.81L34.4391 19.46C34.4191 19.42 34.4091 19.37 34.4091 19.31C34.4091 19.25 34.4091 19.2 34.4091 19.16C34.4091 19.04 34.4091 18.93 34.4091 18.83C34.4091 18.71 34.3891 18.59 34.3491 18.47C34.3091 18.21 34.3191 17.97 34.3791 17.75C34.3791 17.67 34.3791 17.6 34.3791 17.54C34.3991 17.46 34.4091 17.38 34.4091 17.3C34.4091 17.2 34.4091 17.1 34.4091 17C34.4291 16.88 34.4491 16.78 34.4691 16.7C34.4891 16.64 34.4991 16.56 34.4991 16.46C34.5391 16.28 34.5591 16.11 34.5591 15.95C34.5791 15.77 34.5991 15.6 34.6191 15.44C34.6791 15.16 34.7091 14.89 34.7091 14.63C34.7091 14.55 34.7091 14.48 34.7091 14.42C34.7291 14.34 34.7491 14.26 34.7691 14.18C34.7691 14 34.7591 13.87 34.7391 13.79C34.6791 13.71 34.6691 13.6 34.7091 13.46C34.7491 13.38 34.7691 13.32 34.7691 13.28C34.7891 13.24 34.7991 13.2 34.7991 13.16C34.7991 13.1 34.8291 13.06 34.8891 13.04H35.0991C35.1791 13.04 35.2291 13.01 35.2491 12.95C35.2691 12.87 35.3391 12.81 35.4591 12.77C35.5591 12.73 35.6491 12.7 35.7291 12.68C35.8091 12.64 35.8891 12.59 35.9691 12.53C36.0291 12.49 36.0991 12.47 36.1791 12.47C36.2591 12.47 36.3391 12.48 36.4191 12.5L36.9591 12.68C36.9791 12.7 36.9891 12.71 36.9891 12.71C37.0091 12.71 37.0291 12.72 37.0491 12.74C37.2091 12.9 37.3391 13.08 37.4391 13.28C37.5591 13.48 37.6291 13.7 37.6491 13.94C37.6491 14.02 37.6491 14.1 37.6491 14.18C37.6491 14.24 37.6291 14.31 37.5891 14.39C37.5691 14.51 37.5491 14.63 37.5291 14.75C37.5091 14.87 37.4891 15 37.4691 15.14C37.4291 15.34 37.3991 15.54 37.3791 15.74C37.3791 15.92 37.3791 16.11 37.3791 16.31C37.3591 16.39 37.3491 16.47 37.3491 16.55C37.3491 16.61 37.3391 16.68 37.3191 16.76C37.2991 17 37.2891 17.24 37.2891 17.48C37.2891 17.72 37.3091 17.95 37.3491 18.17C37.3491 18.19 37.3491 18.22 37.3491 18.26C37.3691 18.3 37.3691 18.34 37.3491 18.38C37.3491 18.58 37.3691 18.79 37.4091 19.01C37.4491 19.23 37.4791 19.45 37.4991 19.67C37.5191 19.87 37.5391 20.06 37.5591 20.24C37.5791 20.42 37.6091 20.6 37.6491 20.78C37.6891 20.86 37.7091 20.94 37.7091 21.02C37.7291 21.1 37.7491 21.18 37.7691 21.26C37.8491 21.64 37.9391 22.01 38.0391 22.37C38.1391 22.73 38.2691 23.09 38.4291 23.45C38.5291 23.67 38.6291 23.86 38.7291 24.02C38.8891 24.3 39.0291 24.58 39.1491 24.86C39.2291 25 39.3091 25.14 39.3891 25.28C39.4691 25.4 39.5491 25.53 39.6291 25.67C39.7091 25.77 39.7891 25.86 39.8691 25.94C39.9491 26.02 40.0291 26.11 40.1091 26.21C40.2091 26.31 40.3391 26.34 40.4991 26.3C40.5991 26.26 40.6691 26.22 40.7091 26.18C40.8091 26.12 40.8991 26.06 40.9791 26C41.0791 25.94 41.1691 25.87 41.2491 25.79C41.4691 25.57 41.6691 25.35 41.8491 25.13C42.0491 24.91 42.2191 24.67 42.3591 24.41C42.4791 24.19 42.5991 23.96 42.7191 23.72C42.8391 23.48 42.9491 23.24 43.0491 23C43.1691 22.72 43.2791 22.44 43.3791 22.16C43.4991 21.88 43.6091 21.59 43.7091 21.29C43.7891 21.09 43.8491 20.89 43.8891 20.69C43.9491 20.47 43.9891 20.26 44.0091 20.06C44.0491 19.84 44.0791 19.62 44.0991 19.4C44.1391 19.16 44.1491 18.93 44.1291 18.71C44.1291 18.65 44.1291 18.59 44.1291 18.53C44.1491 18.47 44.1591 18.41 44.1591 18.35C44.1991 18.21 44.2091 18.08 44.1891 17.96C44.1891 17.84 44.1791 17.72 44.1591 17.6C44.1391 17.26 44.1091 16.94 44.0691 16.64C44.0491 16.32 44.0291 16 44.0091 15.68C44.0091 15.52 43.9991 15.41 43.9791 15.35C43.9591 15.17 43.9391 14.99 43.9191 14.81C43.9191 14.63 43.8991 14.45 43.8591 14.27V14.03C43.8591 13.83 43.8491 13.64 43.8291 13.46C43.8291 13.26 43.8291 13.06 43.8291 12.86C43.8291 12.7 43.8191 12.56 43.7991 12.44C43.7991 12.3 43.7991 12.16 43.7991 12.02C43.7991 11.84 43.8291 11.69 43.8891 11.57C43.9491 11.47 43.9691 11.39 43.9491 11.33C43.8891 11.21 43.9191 11.12 44.0391 11.06C44.1391 10.96 44.2391 10.88 44.3391 10.82C44.4591 10.76 44.5891 10.72 44.7291 10.7C44.7691 10.68 44.7991 10.67 44.8191 10.67C44.8591 10.67 44.8891 10.66 44.9091 10.64C45.0291 10.54 45.1891 10.51 45.3891 10.55C45.4291 10.57 45.4891 10.58 45.5691 10.58C45.7491 10.62 45.8791 10.69 45.9591 10.79C46.0191 10.85 46.1091 10.92 46.2291 11C46.3891 11.08 46.4991 11.18 46.5591 11.3C46.6191 11.42 46.6591 11.55 46.6791 11.69C46.7191 11.89 46.7491 12.08 46.7691 12.26C46.8091 12.44 46.8191 12.63 46.7991 12.83V13.1C46.7991 13.3 46.7991 13.5 46.7991 13.7C46.8191 13.88 46.8391 14.07 46.8591 14.27C46.8791 14.33 46.8891 14.4 46.8891 14.48C46.8891 14.54 46.8891 14.6 46.8891 14.66C46.8891 14.78 46.8891 14.9 46.8891 15.02C46.9091 15.12 46.9291 15.23 46.9491 15.35C46.9691 15.39 46.9791 15.45 46.9791 15.53C46.9591 15.73 46.9591 15.93 46.9791 16.13C47.0191 16.31 47.0491 16.5 47.0691 16.7C47.0891 16.9 47.0991 17.11 47.0991 17.33C47.1191 17.55 47.1291 17.77 47.1291 17.99C47.1491 18.01 47.1491 18.04 47.1291 18.08C47.1291 18.12 47.1291 18.16 47.1291 18.2C47.0691 18.38 47.0591 18.59 47.0991 18.83C47.1391 19.09 47.1291 19.34 47.0691 19.58C47.0491 19.76 47.0291 19.94 47.0091 20.12C46.9891 20.3 46.9591 20.49 46.9191 20.69C46.8791 21.01 46.8091 21.33 46.7091 21.65C46.6091 21.97 46.5091 22.29 46.4091 22.61C46.4091 22.65 46.3791 22.72 46.3191 22.82C46.2391 22.96 46.1691 23.11 46.1091 23.27C46.0491 23.41 45.9991 23.56 45.9591 23.72L45.8691 23.93C45.7691 24.13 45.6791 24.33 45.5991 24.53C45.5391 24.71 45.4591 24.9 45.3591 25.1C45.2991 25.22 45.2391 25.34 45.1791 25.46C45.1191 25.58 45.0491 25.69 44.9691 25.79C44.9491 25.83 44.9191 25.87 44.8791 25.91C44.8391 26.05 44.7791 26.18 44.6991 26.3C44.6191 26.42 44.5391 26.54 44.4591 26.66C44.2391 27 43.9791 27.32 43.6791 27.62C43.3991 27.92 43.0891 28.2 42.7491 28.46L42.3891 28.67C42.1091 28.81 41.8091 28.93 41.4891 29.03C41.1891 29.13 40.8791 29.2 40.5591 29.24C40.4591 29.26 40.3491 29.26 40.2291 29.24C40.1691 29.24 40.1091 29.24 40.0491 29.24C39.9891 29.24 39.9291 29.26 39.8691 29.3H39.6891ZM61.7921 31.19C61.6121 31.19 61.4521 31.12 61.3121 30.98C61.2721 30.92 61.2321 30.86 61.1921 30.8C61.1521 30.74 61.1121 30.68 61.0721 30.62C60.8921 30.2 60.8021 29.76 60.8021 29.3L60.7121 28.58C60.6521 28.3 60.6021 28.02 60.5621 27.74C60.5221 27.46 60.4521 27.19 60.3521 26.93L60.1721 26.42C60.1721 26.38 60.1621 26.34 60.1421 26.3C60.1421 26.26 60.1321 26.22 60.1121 26.18L59.6621 24.59C59.6421 24.55 59.6221 24.5 59.6021 24.44C59.6021 24.38 59.5821 24.33 59.5421 24.29C59.4821 24.17 59.4321 24.05 59.3921 23.93C59.3721 23.79 59.3421 23.65 59.3021 23.51C59.2821 23.41 59.2621 23.32 59.2421 23.24C59.2221 23.14 59.1921 23.04 59.1521 22.94C59.1121 22.82 59.0721 22.75 59.0321 22.73C58.9921 22.69 58.9021 22.69 58.7621 22.73C58.6621 22.75 58.5521 22.77 58.4321 22.79C58.3321 22.79 58.2321 22.81 58.1321 22.85C58.0521 22.87 57.9521 22.89 57.8321 22.91C57.7321 22.91 57.6321 22.92 57.5321 22.94L57.1121 23.03C57.0121 23.05 56.9021 23.08 56.7821 23.12C56.6821 23.14 56.5821 23.15 56.4821 23.15L55.9421 23.24C55.7821 23.28 55.6121 23.32 55.4321 23.36C55.2521 23.4 55.0821 23.44 54.9221 23.48C54.4421 23.6 53.9621 23.69 53.4821 23.75C53.3221 23.79 53.2321 23.86 53.2121 23.96C53.1921 23.96 53.1821 23.97 53.1821 23.99C53.0621 24.31 52.9221 24.63 52.7621 24.95C52.6221 25.25 52.4721 25.56 52.3121 25.88C52.2721 25.96 52.2321 26.04 52.1921 26.12C52.1721 26.18 52.1421 26.25 52.1021 26.33C52.0821 26.37 52.0621 26.42 52.0421 26.48C52.0221 26.52 52.0021 26.56 51.9821 26.6C51.8621 26.74 51.8021 26.91 51.8021 27.11C51.7821 27.23 51.7421 27.35 51.6821 27.47C51.6221 27.57 51.5621 27.67 51.5021 27.77C51.4821 27.83 51.4421 27.86 51.3821 27.86C51.3021 27.88 51.2221 27.91 51.1421 27.95C51.0621 27.99 50.9721 28.03 50.8721 28.07C50.8121 28.09 50.7521 28.09 50.6921 28.07C50.6521 28.05 50.6021 28.03 50.5421 28.01C50.5021 27.97 50.4621 27.95 50.4221 27.95C50.2021 27.93 50.0421 27.8 49.9421 27.56C49.7821 27.24 49.6721 26.92 49.6121 26.6C49.5921 26.52 49.5921 26.45 49.6121 26.39C49.6521 26.33 49.6821 26.27 49.7021 26.21C49.8221 26.13 49.8921 26.04 49.9121 25.94V25.91C49.9121 25.65 49.9621 25.41 50.0621 25.19C50.1821 24.95 50.2821 24.72 50.3621 24.5C50.4021 24.38 50.4521 24.26 50.5121 24.14C50.5721 24.02 50.6321 23.9 50.6921 23.78C50.7721 23.64 50.8321 23.51 50.8721 23.39C50.9321 23.25 50.9821 23.11 51.0221 22.97C51.0821 22.81 51.0821 22.66 51.0221 22.52C50.9821 22.4 50.9621 22.29 50.9621 22.19C50.9621 22.07 50.9721 21.95 50.9921 21.83C50.9921 21.61 51.0721 21.42 51.2321 21.26C51.3121 21.16 51.3921 21.08 51.4721 21.02C51.5721 20.94 51.6621 20.86 51.7421 20.78C51.9221 20.6 52.0621 20.36 52.1621 20.06C52.2421 19.8 52.3021 19.54 52.3421 19.28C52.4021 19 52.4621 18.73 52.5221 18.47C52.5621 18.21 52.6021 17.96 52.6421 17.72C52.7021 17.46 52.7621 17.21 52.8221 16.97C52.8421 16.87 52.8621 16.78 52.8821 16.7C52.9221 16.6 52.9521 16.51 52.9721 16.43C53.0321 16.27 53.0921 16.12 53.1521 15.98C53.2121 15.82 53.2521 15.66 53.2721 15.5C53.3121 15.42 53.3121 15.35 53.2721 15.29C53.2521 15.19 53.2521 15.1 53.2721 15.02C53.3121 14.94 53.3421 14.86 53.3621 14.78C53.4221 14.64 53.4621 14.5 53.4821 14.36C53.5221 14.22 53.5721 14.08 53.6321 13.94C53.7321 13.68 53.8121 13.47 53.8721 13.31C53.9521 13.13 54.0221 12.93 54.0821 12.71C54.1221 12.59 54.1621 12.48 54.2021 12.38C54.2621 12.26 54.3021 12.14 54.3221 12.02C54.3821 11.84 54.4321 11.66 54.4721 11.48C54.5121 11.28 54.5321 11.09 54.5321 10.91C54.5721 10.75 54.6121 10.64 54.6521 10.58C54.7521 10.38 54.8721 10.21 55.0121 10.07C55.1721 9.93 55.3221 9.79 55.4621 9.65C55.5621 9.59 55.6621 9.55 55.7621 9.53C55.8621 9.49 55.9621 9.5 56.0621 9.56C56.1421 9.6 56.1921 9.62 56.2121 9.62C56.3921 9.6 56.5421 9.64 56.6621 9.74C56.7821 9.84 56.8821 9.96 56.9621 10.1C57.0021 10.14 57.0321 10.19 57.0521 10.25C57.0721 10.31 57.0921 10.36 57.1121 10.4C57.2121 10.56 57.2621 10.72 57.2621 10.88C57.2621 10.96 57.2721 11.05 57.2921 11.15C57.3121 11.23 57.3321 11.32 57.3521 11.42C57.4121 11.54 57.5021 11.6 57.6221 11.6C57.6421 11.58 57.6621 11.58 57.6821 11.6C57.7021 11.62 57.7121 11.64 57.7121 11.66C57.8121 11.78 57.8421 11.91 57.8021 12.05C57.7621 12.21 57.7521 12.37 57.7721 12.53C57.8121 12.67 57.8521 12.82 57.8921 12.98C57.9721 13.18 58.0521 13.38 58.1321 13.58C58.2121 13.78 58.2921 13.98 58.3721 14.18C58.4721 14.4 58.5721 14.62 58.6721 14.84C58.7721 15.06 58.8621 15.28 58.9421 15.5C59.0421 15.78 59.1421 16.06 59.2421 16.34C59.3621 16.62 59.4921 16.9 59.6321 17.18L59.7221 17.51C59.7421 17.59 59.7621 17.67 59.7821 17.75C59.8221 17.83 59.8521 17.91 59.8721 17.99C59.9121 18.05 59.9421 18.11 59.9621 18.17C60.0021 18.23 60.0421 18.28 60.0821 18.32C60.1821 18.46 60.2421 18.61 60.2621 18.77C60.3221 18.97 60.4121 19.15 60.5321 19.31C60.5721 19.37 60.6321 19.4 60.7121 19.4C61.0121 19.36 61.3121 19.33 61.6121 19.31C61.9121 19.27 62.2121 19.21 62.5121 19.13C62.7321 19.07 62.9421 19.04 63.1421 19.04C63.5221 19.04 63.8721 19.17 64.1921 19.43C64.5721 19.73 64.7721 20.11 64.7921 20.57C64.7921 20.67 64.8021 20.75 64.8221 20.81C64.8221 20.95 64.7821 21.06 64.7021 21.14C64.6821 21.2 64.6421 21.26 64.5821 21.32C64.5421 21.38 64.5021 21.44 64.4621 21.5C64.4221 21.58 64.3821 21.64 64.3421 21.68L64.1621 21.83C64.1421 21.87 64.1121 21.92 64.0721 21.98C64.0321 22.02 63.9821 22.05 63.9221 22.07C63.8421 22.09 63.7621 22.12 63.6821 22.16C63.6021 22.18 63.5121 22.19 63.4121 22.19C63.0521 22.23 62.7321 22.22 62.4521 22.16H61.9721C61.9321 22.16 61.8721 22.18 61.7921 22.22C61.7121 22.26 61.6721 22.31 61.6721 22.37V22.49C61.7321 22.67 61.7721 22.86 61.7921 23.06C61.8321 23.24 61.8921 23.41 61.9721 23.57C61.9721 23.65 61.9921 23.73 62.0321 23.81C62.1321 23.99 62.2121 24.18 62.2721 24.38C62.3321 24.56 62.3821 24.75 62.4221 24.95C62.4221 24.99 62.4421 25.07 62.4821 25.19C62.5421 25.33 62.5921 25.48 62.6321 25.64C62.6721 25.78 62.7021 25.93 62.7221 26.09C62.7221 26.21 62.7521 26.32 62.8121 26.42C62.8921 26.6 62.9521 26.78 62.9921 26.96C63.0321 27.14 63.0621 27.33 63.0821 27.53C63.1021 27.55 63.1121 27.59 63.1121 27.65C63.1121 27.69 63.1221 27.73 63.1421 27.77C63.2421 27.99 63.3121 28.23 63.3521 28.49C63.3921 28.73 63.4421 28.97 63.5021 29.21C63.5421 29.33 63.5621 29.45 63.5621 29.57C63.5821 29.71 63.5921 29.85 63.5921 29.99C63.5921 30.09 63.5621 30.2 63.5021 30.32C63.4421 30.38 63.4121 30.41 63.4121 30.41C63.2921 30.43 63.2221 30.5 63.2021 30.62L63.1121 30.8C63.0721 30.88 63.0121 30.93 62.9321 30.95C62.8521 30.95 62.7821 30.98 62.7221 31.04C62.6421 31.12 62.5321 31.16 62.3921 31.16C62.3121 31.16 62.2121 31.16 62.0921 31.16C61.9921 31.16 61.8921 31.17 61.7921 31.19ZM54.5621 20.3C54.6821 20.28 54.8021 20.26 54.9221 20.24C55.0621 20.22 55.2121 20.2 55.3721 20.18C55.4721 20.16 55.6021 20.14 55.7621 20.12C55.9221 20.1 56.0721 20.08 56.2121 20.06C56.3521 20.02 56.4921 20 56.6321 20C56.7721 19.98 56.9121 19.96 57.0521 19.94C57.1721 19.9 57.2921 19.88 57.4121 19.88C57.5321 19.86 57.6521 19.84 57.7721 19.82C57.9521 19.78 58.0221 19.68 57.9821 19.52C57.9621 19.36 57.9221 19.2 57.8621 19.04C57.8221 18.86 57.7321 18.71 57.5921 18.59C57.5521 18.55 57.5321 18.49 57.5321 18.41V18.32C57.4921 18.16 57.4421 18.01 57.3821 17.87C57.3421 17.71 57.2921 17.56 57.2321 17.42C57.1921 17.26 57.1421 17.12 57.0821 17C57.0421 16.86 56.9921 16.72 56.9321 16.58L56.5721 15.5C56.5121 15.36 56.4521 15.22 56.3921 15.08C56.3521 14.94 56.3121 14.8 56.2721 14.66L56.1821 14.54H56.0921L56.0321 14.63C55.9321 14.93 55.8121 15.23 55.6721 15.53C55.5521 15.83 55.4421 16.15 55.3421 16.49C55.3421 16.53 55.3321 16.58 55.3121 16.64C55.2921 16.7 55.2721 16.76 55.2521 16.82C55.1721 17.02 55.0921 17.24 55.0121 17.48C54.9521 17.72 54.9021 17.96 54.8621 18.2C54.8421 18.34 54.8221 18.48 54.8021 18.62C54.7821 18.74 54.7521 18.87 54.7121 19.01L54.4421 20.18C54.4221 20.2 54.4321 20.23 54.4721 20.27C54.5121 20.29 54.5421 20.3 54.5621 20.3ZM82.3353 29.42C82.1953 29.42 82.0253 29.37 81.8253 29.27C81.7253 29.21 81.6453 29.13 81.5853 29.03C81.5653 28.97 81.5153 28.97 81.4353 29.03C81.3753 29.07 81.3253 29.07 81.2853 29.03C81.2253 28.97 81.1653 28.93 81.1053 28.91C81.0253 28.91 80.9853 28.88 80.9853 28.82C80.9853 28.76 80.9753 28.71 80.9553 28.67C80.9553 28.61 80.9353 28.56 80.8953 28.52C80.7753 28.48 80.6953 28.38 80.6553 28.22C80.6353 28.16 80.6153 28.11 80.5953 28.07C80.5753 28.01 80.5453 27.95 80.5053 27.89C80.4653 27.81 80.4453 27.74 80.4453 27.68C80.4253 27.62 80.4053 27.57 80.3853 27.53C80.3853 27.47 80.3653 27.41 80.3253 27.35C80.3053 27.21 80.2653 27.08 80.2053 26.96C80.1453 26.84 80.0953 26.71 80.0553 26.57C80.0153 26.49 79.9953 26.38 79.9953 26.24C79.9953 25.88 80.0553 25.55 80.1753 25.25C80.2753 25.07 80.3053 24.89 80.2653 24.71C80.2453 24.63 80.2453 24.55 80.2653 24.47C80.3053 24.39 80.3153 24.31 80.2953 24.23C80.2753 24.15 80.2553 24.08 80.2353 24.02C80.2353 23.96 80.2353 23.89 80.2353 23.81C80.2153 23.77 80.2053 23.72 80.2053 23.66C80.2053 23.54 80.2053 23.42 80.2053 23.3C80.2053 23.16 80.1853 23.02 80.1453 22.88C80.1253 22.82 80.1153 22.73 80.1153 22.61V21.5C80.0953 21.24 80.0653 20.98 80.0253 20.72C79.9853 20.46 79.9353 20.2 79.8753 19.94C79.8753 19.88 79.8653 19.82 79.8453 19.76C79.8453 19.7 79.8453 19.64 79.8453 19.58C79.8453 19.14 79.7753 18.71 79.6353 18.29V18.02C79.6753 17.8 79.6553 17.63 79.5753 17.51C79.5553 17.43 79.5453 17.32 79.5453 17.18V17.15C79.5453 16.95 79.5353 16.75 79.5153 16.55C79.5153 16.35 79.5253 16.15 79.5453 15.95C79.5853 15.59 79.5853 15.21 79.5453 14.81C79.5453 14.65 79.5453 14.49 79.5453 14.33C79.5453 14.17 79.5353 14.02 79.5153 13.88V13.7C79.5553 13.6 79.5753 13.51 79.5753 13.43C79.5753 13.35 79.5753 13.27 79.5753 13.19C79.5753 12.95 79.5653 12.72 79.5453 12.5C79.5453 12.26 79.5253 12.03 79.4853 11.81C79.4853 11.75 79.4853 11.69 79.4853 11.63C79.4853 11.55 79.4753 11.48 79.4553 11.42C79.4553 11.28 79.4053 11.16 79.3053 11.06L79.0953 10.88C78.8953 10.76 78.7653 10.57 78.7053 10.31C78.6853 10.27 78.6753 10.24 78.6753 10.22C78.6753 10.18 78.6653 10.14 78.6453 10.1C78.6053 10 78.6253 9.91 78.7053 9.83C78.7653 9.75 78.8053 9.67 78.8253 9.59C78.8253 9.53 78.8353 9.48 78.8553 9.44C78.8953 9.38 78.9253 9.32 78.9453 9.26C78.9653 9.2 78.9853 9.13 79.0053 9.05C79.0453 8.99 79.0753 8.97 79.0953 8.99C79.2353 8.99 79.3353 8.97 79.3953 8.93C79.5353 8.83 79.6853 8.81 79.8453 8.87C79.8853 8.89 79.9453 8.88 80.0253 8.84C80.0453 8.84 80.0553 8.83 80.0553 8.81C80.1553 8.71 80.2653 8.66 80.3853 8.66C80.5053 8.64 80.6353 8.64 80.7753 8.66C80.7953 8.66 80.8153 8.67 80.8353 8.69C80.8553 8.69 80.8753 8.69 80.8953 8.69C81.0553 8.73 81.2053 8.77 81.3453 8.81C81.5053 8.83 81.6553 8.83 81.7953 8.81C81.8953 8.81 81.9953 8.82 82.0953 8.84C82.2153 8.86 82.3253 8.87 82.4253 8.87C82.5053 8.87 82.5753 8.88 82.6353 8.9C82.7153 8.92 82.7853 8.94 82.8453 8.96C82.9253 8.98 82.9953 9.01 83.0553 9.05C83.1153 9.07 83.1853 9.08 83.2653 9.08C83.3653 9.1 83.4453 9.12 83.5053 9.14C83.5853 9.16 83.6653 9.19 83.7453 9.23C84.0053 9.37 84.2653 9.5 84.5253 9.62C84.6453 9.68 84.7553 9.76 84.8553 9.86C84.9953 9.96 85.1153 10.02 85.2153 10.04C85.2353 10.04 85.2553 10.05 85.2753 10.07C85.2953 10.07 85.3153 10.07 85.3353 10.07C85.3553 10.09 85.3753 10.1 85.3953 10.1C85.4153 10.1 85.4353 10.11 85.4553 10.13C85.5553 10.23 85.6753 10.31 85.8153 10.37C85.9753 10.41 86.1053 10.48 86.2053 10.58C86.2453 10.62 86.3053 10.66 86.3853 10.7C86.5453 10.76 86.6853 10.85 86.8053 10.97C86.8453 11.01 86.8753 11.03 86.8953 11.03C86.9753 11.03 87.0653 11.08 87.1653 11.18L87.7953 11.84C87.8753 11.92 87.9353 11.99 87.9753 12.05C88.0753 12.19 88.1853 12.32 88.3053 12.44C88.4253 12.56 88.5453 12.68 88.6653 12.8C88.7053 12.84 88.7453 12.89 88.7853 12.95C88.8453 12.99 88.8853 13.04 88.9053 13.1C88.9253 13.14 88.9553 13.18 88.9953 13.22C89.0353 13.24 89.0653 13.27 89.0853 13.31C89.3053 13.55 89.5153 13.8 89.7153 14.06C89.9353 14.32 90.1353 14.59 90.3153 14.87C90.4153 15.01 90.5053 15.16 90.5853 15.32C90.6653 15.48 90.7353 15.64 90.7953 15.8C90.8553 15.94 90.9153 16.08 90.9753 16.22C91.0553 16.36 91.1253 16.5 91.1853 16.64C91.2453 16.86 91.3153 17.06 91.3953 17.24C91.4753 17.5 91.5553 17.75 91.6353 17.99C91.7153 18.23 91.7853 18.49 91.8453 18.77L91.9353 19.16C91.9353 19.32 91.9353 19.49 91.9353 19.67C91.9553 19.83 91.9653 20 91.9653 20.18C91.9653 20.26 91.9553 20.33 91.9353 20.39C91.9353 20.45 91.9153 20.52 91.8753 20.6C91.8353 20.72 91.8153 20.83 91.8153 20.93C91.7953 21.13 91.7453 21.32 91.6653 21.5C91.6053 21.68 91.5353 21.85 91.4553 22.01C91.2753 22.33 91.1153 22.65 90.9753 22.97C90.9353 23.05 90.8953 23.13 90.8553 23.21C90.8353 23.27 90.8053 23.34 90.7653 23.42L90.5853 23.78C90.4453 24.06 90.2753 24.34 90.0753 24.62C89.8953 24.88 89.6953 25.13 89.4753 25.37C89.3953 25.47 89.2953 25.57 89.1753 25.67C89.0753 25.75 88.9753 25.84 88.8753 25.94C88.6753 26.12 88.4753 26.3 88.2753 26.48C88.0753 26.64 87.8653 26.8 87.6453 26.96C87.4453 27.1 87.2353 27.23 87.0153 27.35C86.8153 27.47 86.5953 27.57 86.3553 27.65C86.2353 27.67 86.1153 27.73 85.9953 27.83C85.8753 27.91 85.7453 27.99 85.6053 28.07C85.4853 28.15 85.3553 28.24 85.2153 28.34C85.1553 28.36 85.0953 28.39 85.0353 28.43C84.9753 28.45 84.9053 28.47 84.8253 28.49C84.7653 28.51 84.6953 28.53 84.6153 28.55C84.5553 28.57 84.4953 28.59 84.4353 28.61C84.3553 28.63 84.2753 28.66 84.1953 28.7C84.1353 28.74 84.0753 28.79 84.0153 28.85C83.8753 28.95 83.7253 29.03 83.5653 29.09C83.4053 29.17 83.2453 29.26 83.0853 29.36C83.0453 29.38 82.9753 29.39 82.8753 29.39C82.8153 29.41 82.7553 29.41 82.6953 29.39C82.6353 29.39 82.5753 29.39 82.5153 29.39V29.42H82.3353ZM83.5353 26.06C83.7353 26.06 83.9053 26.02 84.0453 25.94C84.2053 25.88 84.3553 25.81 84.4953 25.73C84.6353 25.65 84.7653 25.56 84.8853 25.46L85.2453 25.1C85.4453 24.94 85.6253 24.77 85.7853 24.59C85.9653 24.41 86.1553 24.25 86.3553 24.11C86.3953 24.07 86.4153 24.05 86.4153 24.05C86.4953 23.97 86.5653 23.9 86.6253 23.84C86.7053 23.76 86.7753 23.68 86.8353 23.6C86.8753 23.56 86.9253 23.51 86.9853 23.45C87.0453 23.39 87.0853 23.34 87.1053 23.3C87.1853 23.16 87.2953 23.04 87.4353 22.94C87.5353 22.88 87.5953 22.82 87.6153 22.76C87.6553 22.66 87.7053 22.56 87.7653 22.46C87.8453 22.36 87.9253 22.27 88.0053 22.19C88.1053 22.07 88.2053 21.89 88.3053 21.65L88.4253 21.35C88.5453 21.07 88.6053 20.81 88.6053 20.57C88.6253 20.51 88.6353 20.42 88.6353 20.3C88.6553 20 88.6353 19.68 88.5753 19.34C88.5553 19.24 88.5353 19.14 88.5153 19.04C88.4953 18.94 88.4853 18.85 88.4853 18.77C88.4653 18.69 88.4453 18.62 88.4253 18.56C88.4253 18.48 88.4053 18.41 88.3653 18.35C88.3253 18.27 88.2953 18.19 88.2753 18.11C88.2553 18.03 88.2353 17.95 88.2153 17.87C88.2153 17.73 88.1953 17.61 88.1553 17.51C88.1153 17.39 88.0753 17.27 88.0353 17.15C87.9753 17.03 87.9153 16.91 87.8553 16.79C87.7953 16.65 87.7453 16.51 87.7053 16.37L87.6753 16.25C87.6153 16.17 87.5653 16.09 87.5253 16.01C87.5053 15.91 87.4753 15.82 87.4353 15.74C87.3553 15.56 87.2753 15.38 87.1953 15.2C87.1353 15.02 87.0553 14.85 86.9553 14.69C86.8553 14.51 86.7453 14.33 86.6253 14.15C86.5253 13.97 86.3953 13.81 86.2353 13.67C85.7753 13.17 85.2453 12.72 84.6453 12.32C84.2853 12.06 83.9253 11.89 83.5653 11.81C83.4253 11.77 83.2653 11.74 83.0853 11.72C82.9053 11.68 82.7353 11.65 82.5753 11.63C82.5153 11.63 82.4653 11.65 82.4253 11.69C82.3253 11.77 82.2753 11.87 82.2753 11.99C82.2753 12.13 82.2653 12.28 82.2453 12.44C82.2453 12.58 82.2453 12.73 82.2453 12.89C82.2853 13.17 82.2753 13.4 82.2153 13.58C82.1953 13.66 82.1753 13.74 82.1553 13.82C82.1553 13.9 82.1653 13.99 82.1853 14.09C82.2253 14.21 82.2153 14.32 82.1553 14.42C82.0953 14.54 82.0953 14.67 82.1553 14.81C82.2353 14.97 82.2553 15.17 82.2153 15.41C82.1553 15.65 82.1553 15.89 82.2153 16.13C82.2353 16.21 82.2453 16.29 82.2453 16.37C82.2653 16.45 82.2653 16.54 82.2453 16.64C82.2453 16.86 82.2553 17.08 82.2753 17.3C82.3153 17.52 82.3453 17.74 82.3653 17.96C82.3653 18 82.3853 18.06 82.4253 18.14V18.62C82.4253 18.66 82.4153 18.71 82.3953 18.77C82.3953 18.81 82.4053 18.85 82.4253 18.89C82.4653 19.05 82.4953 19.22 82.5153 19.4C82.5553 19.56 82.5953 19.72 82.6353 19.88C82.6353 19.92 82.6453 19.97 82.6653 20.03C82.6853 20.07 82.6953 20.12 82.6953 20.18C82.6953 20.32 82.7053 20.46 82.7253 20.6C82.7453 20.74 82.7653 20.89 82.7853 21.05C82.8453 21.61 82.9353 22.18 83.0553 22.76C83.1153 23 83.1453 23.25 83.1453 23.51C83.1453 23.57 83.1453 23.64 83.1453 23.72C83.1453 23.78 83.1553 23.84 83.1753 23.9C83.2153 24.04 83.2353 24.18 83.2353 24.32C83.2353 24.46 83.2353 24.6 83.2353 24.74C83.2353 24.78 83.2253 24.83 83.2053 24.89C83.2053 24.95 83.2153 25 83.2353 25.04C83.2753 25.14 83.2953 25.24 83.2953 25.34C83.2953 25.42 83.2953 25.51 83.2953 25.61C83.2953 25.69 83.3153 25.79 83.3553 25.91C83.3553 26.01 83.4153 26.06 83.5353 26.06ZM98.18 29.21C98.06 29.21 97.98 29.2 97.94 29.18C97.84 29.14 97.74 29.12 97.64 29.12C97.56 29.14 97.47 29.15 97.37 29.15C97.35 29.15 97.33 29.15 97.31 29.15C97.29 29.17 97.27 29.18 97.25 29.18C97.11 29.2 96.97 29.21 96.83 29.21C96.71 29.21 96.59 29.19 96.47 29.15C96.45 29.13 96.43 29.12 96.41 29.12C96.27 29.14 96.15 29.1 96.05 29C95.95 28.9 95.85 28.81 95.75 28.73C95.65 28.63 95.6 28.52 95.6 28.4L95.51 28.16C95.45 28.02 95.43 27.89 95.45 27.77C95.47 27.73 95.47 27.69 95.45 27.65C95.45 27.61 95.45 27.57 95.45 27.53C95.43 27.49 95.42 27.45 95.42 27.41C95.42 27.35 95.41 27.3 95.39 27.26C95.35 27.08 95.32 26.9 95.3 26.72C95.3 26.52 95.31 26.33 95.33 26.15C95.35 26.03 95.42 25.83 95.54 25.55C95.66 25.25 95.73 25.07 95.75 25.01C95.81 24.91 95.84 24.83 95.84 24.77C95.82 24.55 95.81 24.33 95.81 24.11C95.83 23.87 95.84 23.64 95.84 23.42C95.84 23.28 95.87 23.17 95.93 23.09C96.01 22.95 96.02 22.8 95.96 22.64L95.87 22.31C95.75 22.09 95.76 21.9 95.9 21.74C95.9 21.72 95.9 21.71 95.9 21.71C95.92 21.69 95.93 21.67 95.93 21.65C95.97 21.61 95.98 21.56 95.96 21.5C95.94 21.42 95.93 21.36 95.93 21.32C95.93 21.24 95.94 21.16 95.96 21.08C96 20.98 96.01 20.89 95.99 20.81C95.99 20.81 95.97 20.79 95.93 20.75C95.91 20.71 95.9 20.63 95.9 20.51C95.92 20.39 95.93 20.32 95.93 20.3V19.46C95.95 19.36 95.96 19.27 95.96 19.19C95.96 19.09 95.97 18.99 95.99 18.89C96.01 18.77 96.01 18.65 95.99 18.53C95.99 18.39 95.99 18.25 95.99 18.11C95.97 18.01 95.95 17.9 95.93 17.78C95.93 17.66 95.93 17.54 95.93 17.42C95.91 17.38 95.9 17.33 95.9 17.27C95.9 17.21 95.9 17.16 95.9 17.12C95.88 17.02 95.86 16.92 95.84 16.82C95.84 16.72 95.84 16.62 95.84 16.52C95.84 16.48 95.8 16.35 95.72 16.13C95.64 15.89 95.61 15.69 95.63 15.53C95.65 15.49 95.66 15.44 95.66 15.38C95.66 15.32 95.64 15.27 95.6 15.23C95.56 15.21 95.54 15.17 95.54 15.11V15.02C95.6 14.78 95.57 14.54 95.45 14.3C95.37 14.18 95.34 14.06 95.36 13.94C95.36 13.78 95.29 13.66 95.15 13.58C95.05 13.48 94.96 13.36 94.88 13.22C94.8 13.08 94.75 12.94 94.73 12.8C94.71 12.7 94.7 12.6 94.7 12.5C94.7 12.4 94.7 12.31 94.7 12.23C94.7 12.15 94.71 12.1 94.73 12.08C94.81 12 94.85 11.91 94.85 11.81C94.85 11.69 94.86 11.6 94.88 11.54C94.9 11.52 94.92 11.51 94.94 11.51C94.96 11.51 94.98 11.5 95 11.48C95.08 11.46 95.12 11.39 95.12 11.27C95.08 11.19 95.06 11.12 95.06 11.06C95.04 10.98 95.07 10.91 95.15 10.85C95.19 10.77 95.24 10.75 95.3 10.79C95.44 10.85 95.6 10.83 95.78 10.73C95.86 10.69 95.91 10.67 95.93 10.67C95.99 10.67 96.02 10.67 96.02 10.67C96.04 10.65 96.1 10.64 96.2 10.64C96.32 10.66 96.43 10.62 96.53 10.52C96.67 10.38 96.84 10.31 97.04 10.31H98.9C99.36 10.33 99.82 10.33 100.28 10.31C100.74 10.29 101.19 10.28 101.63 10.28C101.73 10.28 101.81 10.28 101.87 10.28C101.95 10.26 102.03 10.24 102.11 10.22C102.23 10.16 102.37 10.13 102.53 10.13H103.22C103.38 10.13 103.52 10.13 103.64 10.13C103.78 10.11 103.92 10.09 104.06 10.07C104.14 10.05 104.21 10.04 104.27 10.04C104.35 10.04 104.43 10.04 104.51 10.04C104.59 10.04 104.67 10.04 104.75 10.04C104.83 10.04 104.91 10.03 104.99 10.01C105.15 9.99 105.32 9.98 105.5 9.98C105.68 9.96 105.85 9.95 106.01 9.95C106.09 9.95 106.16 9.95 106.22 9.95C106.3 9.93 106.38 9.91 106.46 9.89C106.62 9.85 106.77 9.83 106.91 9.83C107.07 9.81 107.22 9.79 107.36 9.77C107.52 9.75 107.67 9.73 107.81 9.71C107.97 9.69 108.12 9.67 108.26 9.65C108.44 9.65 108.57 9.67 108.65 9.71C108.77 9.79 108.88 9.86 108.98 9.92C109.1 9.98 109.21 10.06 109.31 10.16C109.39 10.24 109.44 10.31 109.46 10.37C109.48 10.45 109.5 10.53 109.52 10.61C109.54 10.69 109.56 10.78 109.58 10.88V11.09C109.56 11.19 109.54 11.3 109.52 11.42C109.52 11.52 109.51 11.63 109.49 11.75C109.45 11.83 109.4 11.9 109.34 11.96L108.8 12.5C108.6 12.56 108.4 12.6 108.2 12.62C108.02 12.64 107.83 12.64 107.63 12.62H107.42C107.32 12.64 107.22 12.65 107.12 12.65C107.02 12.65 106.92 12.64 106.82 12.62C106.7 12.6 106.58 12.6 106.46 12.62C106.34 12.62 106.22 12.62 106.1 12.62C106.02 12.62 105.94 12.63 105.86 12.65C105.8 12.65 105.73 12.64 105.65 12.62C105.55 12.6 105.45 12.6 105.35 12.62C105.27 12.62 105.18 12.63 105.08 12.65C105 12.65 104.91 12.66 104.81 12.68C104.73 12.68 104.64 12.68 104.54 12.68C104.28 12.72 104 12.74 103.7 12.74C103.42 12.74 103.14 12.76 102.86 12.8C102.68 12.78 102.51 12.79 102.35 12.83C102.19 12.85 102.02 12.87 101.84 12.89C101.68 12.91 101.51 12.92 101.33 12.92C101.15 12.92 100.98 12.94 100.82 12.98C100.62 12.98 100.42 13.01 100.22 13.07C100.04 13.11 99.85 13.14 99.65 13.16L99.44 13.19C99.3 13.19 99.17 13.21 99.05 13.25C98.93 13.27 98.8 13.3 98.66 13.34C98.58 13.36 98.5 13.38 98.42 13.4C98.34 13.4 98.25 13.41 98.15 13.43C98.09 13.43 98.02 13.45 97.94 13.49C97.88 13.51 97.85 13.57 97.85 13.67L97.94 13.94C97.96 13.98 97.95 14.08 97.91 14.24C97.89 14.4 97.87 14.52 97.85 14.6C97.85 14.66 97.86 14.72 97.88 14.78C97.9 14.84 97.92 14.9 97.94 14.96C98 15.12 98.03 15.3 98.03 15.5C98.03 15.68 98.05 15.85 98.09 16.01C98.11 16.09 98.12 16.18 98.12 16.28C98.12 16.36 98.13 16.45 98.15 16.55C98.15 16.59 98.15 16.64 98.15 16.7C98.17 16.74 98.18 16.79 98.18 16.85C98.18 16.91 98.17 16.95 98.15 16.97C98.09 17.05 98.06 17.14 98.06 17.24C98.06 17.34 98.06 17.44 98.06 17.54C98.16 17.74 98.21 17.94 98.21 18.14C98.21 18.34 98.21 18.54 98.21 18.74C98.21 18.8 98.26 18.82 98.36 18.8H98.39C98.43 18.72 98.47 18.66 98.51 18.62C98.57 18.62 98.64 18.6 98.72 18.56C98.78 18.52 98.86 18.5 98.96 18.5C99.12 18.52 99.27 18.52 99.41 18.5C99.55 18.46 99.69 18.42 99.83 18.38C100.77 18.14 101.65 17.83 102.47 17.45C102.69 17.35 102.92 17.27 103.16 17.21C103.4 17.13 103.64 17.08 103.88 17.06H103.97C104.15 17.04 104.33 17.02 104.51 17C104.69 16.98 104.87 16.97 105.05 16.97C105.29 16.95 105.52 16.92 105.74 16.88C105.98 16.84 106.22 16.81 106.46 16.79C106.6 16.75 106.73 16.72 106.85 16.7C106.97 16.66 107.1 16.61 107.24 16.55C107.5 16.45 107.74 16.4 107.96 16.4C108.12 16.42 108.27 16.46 108.41 16.52C108.55 16.56 108.69 16.62 108.83 16.7C109.13 16.9 109.28 17.2 109.28 17.6C109.28 17.76 109.26 17.92 109.22 18.08C109.2 18.24 109.19 18.4 109.19 18.56C109.19 18.6 109.17 18.64 109.13 18.68L109.04 18.83C109.02 18.91 109 18.99 108.98 19.07C108.96 19.15 108.91 19.21 108.83 19.25C108.71 19.35 108.58 19.46 108.44 19.58C108.32 19.68 108.18 19.75 108.02 19.79C107.94 19.81 107.86 19.83 107.78 19.85C107.72 19.87 107.65 19.88 107.57 19.88C107.25 19.88 106.92 19.9 106.58 19.94C106.26 19.98 105.93 20.02 105.59 20.06C105.33 20.08 105.07 20.11 104.81 20.15C104.57 20.19 104.32 20.21 104.06 20.21C103.82 20.21 103.55 20.26 103.25 20.36C103.05 20.4 102.84 20.44 102.62 20.48C102.4 20.52 102.18 20.55 101.96 20.57C101.8 20.59 101.63 20.62 101.45 20.66C101.29 20.68 101.13 20.7 100.97 20.72L100.46 20.81C100.42 20.83 100.36 20.84 100.28 20.84C100.14 20.88 100 20.91 99.86 20.93C99.72 20.95 99.58 20.98 99.44 21.02C99.3 21.04 99.16 21.07 99.02 21.11C98.9 21.15 98.77 21.19 98.63 21.23C98.53 21.25 98.45 21.29 98.39 21.35C98.33 21.39 98.28 21.45 98.24 21.53C98.22 21.59 98.22 21.65 98.24 21.71C98.26 21.79 98.25 21.87 98.21 21.95C98.23 22.15 98.24 22.35 98.24 22.55C98.26 22.75 98.26 22.95 98.24 23.15C98.28 23.31 98.29 23.47 98.27 23.63C98.27 23.79 98.26 23.95 98.24 24.11C98.2 24.35 98.21 24.55 98.27 24.71C98.33 24.97 98.31 25.24 98.21 25.52C98.17 25.64 98.17 25.72 98.21 25.76C98.25 25.82 98.25 25.89 98.21 25.97V26.15C98.19 26.31 98.26 26.39 98.42 26.39H98.48C98.62 26.39 98.76 26.44 98.9 26.54C99 26.64 99.12 26.67 99.26 26.63L100.1 26.54C100.22 26.52 100.34 26.51 100.46 26.51C100.58 26.49 100.7 26.48 100.82 26.48C100.86 26.46 100.92 26.47 101 26.51C101.1 26.57 101.19 26.58 101.27 26.54C101.31 26.5 101.36 26.47 101.42 26.45C101.5 26.43 101.56 26.4 101.6 26.36C101.72 26.24 101.87 26.2 102.05 26.24C102.21 26.28 102.34 26.27 102.44 26.21C102.62 26.15 102.79 26.13 102.95 26.15C103.05 26.17 103.15 26.16 103.25 26.12C103.35 26.08 103.45 26.06 103.55 26.06C103.59 26.06 103.62 26.07 103.64 26.09C103.66 26.09 103.68 26.08 103.7 26.06C103.74 26.06 103.78 26.05 103.82 26.03C103.86 26.01 103.89 26 103.91 26C104.05 25.94 104.18 25.92 104.3 25.94C104.4 25.94 104.45 25.94 104.45 25.94C104.53 25.92 104.6 25.92 104.66 25.94C104.74 25.96 104.81 25.99 104.87 26.03C104.97 26.05 105.05 26.08 105.11 26.12C105.19 26.16 105.27 26.19 105.35 26.21C105.39 26.21 105.42 26.22 105.44 26.24C105.54 26.32 105.66 26.39 105.8 26.45C105.96 26.51 106.05 26.58 106.07 26.66C106.11 26.78 106.13 26.9 106.13 27.02C106.13 27.12 106.14 27.23 106.16 27.35C106.16 27.41 106.15 27.47 106.13 27.53C106.13 27.59 106.12 27.65 106.1 27.71C106.06 27.79 106.01 27.88 105.95 27.98C105.91 28.08 105.85 28.17 105.77 28.25C105.73 28.29 105.69 28.33 105.65 28.37C105.63 28.41 105.6 28.45 105.56 28.49C105.48 28.57 105.39 28.64 105.29 28.7C105.19 28.76 105.08 28.79 104.96 28.79C104.88 28.79 104.82 28.8 104.78 28.82C104.7 28.86 104.62 28.88 104.54 28.88C104.46 28.88 104.37 28.88 104.27 28.88C104.13 28.9 103.99 28.92 103.85 28.94C103.73 28.94 103.6 28.93 103.46 28.91C103.38 28.89 103.31 28.89 103.25 28.91C103.05 28.97 102.85 28.98 102.65 28.94C102.45 28.94 102.25 28.95 102.05 28.97C101.87 28.97 101.69 28.97 101.51 28.97H101.12C101.06 28.97 101.01 28.98 100.97 29C100.89 29.04 100.79 29.06 100.67 29.06C100.57 29.06 100.47 29.05 100.37 29.03H100.07C100.05 29.03 100.02 29.03 99.98 29.03C99.94 29.05 99.9 29.05 99.86 29.03C99.8 29.01 99.74 29 99.68 29C99.64 29.02 99.59 29.04 99.53 29.06C99.49 29.06 99.45 29.06 99.41 29.06C99.39 29.08 99.36 29.09 99.32 29.09C99.12 29.07 98.93 29.07 98.75 29.09C98.57 29.13 98.38 29.17 98.18 29.21ZM125.647 29.3C125.487 29.28 125.327 29.24 125.167 29.18C125.007 29.14 124.867 29.07 124.747 28.97C124.727 28.93 124.697 28.9 124.657 28.88C124.617 28.84 124.587 28.81 124.567 28.79C124.487 28.67 124.417 28.54 124.357 28.4C124.297 28.26 124.257 28.12 124.237 27.98C124.217 27.68 124.247 27.38 124.327 27.08C124.427 26.76 124.497 26.44 124.537 26.12C124.577 25.78 124.597 25.44 124.597 25.1C124.617 24.7 124.627 24.3 124.627 23.9C124.627 23.5 124.627 23.11 124.627 22.73C124.627 22.63 124.617 22.53 124.597 22.43C124.597 22.31 124.587 22.2 124.567 22.1C124.547 22 124.537 21.89 124.537 21.77C124.537 21.65 124.537 21.54 124.537 21.44C124.537 21.34 124.527 21.24 124.507 21.14C124.507 21.02 124.497 20.91 124.477 20.81C124.457 20.73 124.447 20.65 124.447 20.57C124.467 20.49 124.467 20.41 124.447 20.33C124.447 20.19 124.447 20.05 124.447 19.91C124.447 19.77 124.437 19.63 124.417 19.49C124.397 19.47 124.387 19.43 124.387 19.37V17.75C124.367 17.65 124.357 17.56 124.357 17.48C124.357 17.38 124.357 17.28 124.357 17.18C124.377 17.12 124.387 17.03 124.387 16.91V16.55C124.387 16.43 124.377 16.32 124.357 16.22C124.357 16.1 124.367 15.98 124.387 15.86V15.71C124.367 15.55 124.357 15.4 124.357 15.26C124.377 15.1 124.397 14.95 124.417 14.81C124.437 14.73 124.447 14.6 124.447 14.42C124.407 14.3 124.387 14.21 124.387 14.15C124.367 14.05 124.347 13.96 124.327 13.88C124.327 13.78 124.337 13.69 124.357 13.61C124.377 13.43 124.337 13.24 124.237 13.04C124.177 12.96 124.127 12.88 124.087 12.8C124.067 12.7 124.037 12.61 123.997 12.53V12.44C124.037 12.4 124.077 12.4 124.117 12.44C124.177 12.46 124.207 12.45 124.207 12.41C124.227 12.37 124.237 12.33 124.237 12.29C124.237 12.23 124.247 12.19 124.267 12.17C124.287 12.11 124.277 12.03 124.237 11.93C124.217 11.87 124.247 11.83 124.327 11.81C124.367 11.73 124.437 11.68 124.537 11.66C124.637 11.62 124.697 11.59 124.717 11.57C124.777 11.49 124.847 11.45 124.927 11.45C125.007 11.45 125.087 11.45 125.167 11.45C125.227 11.45 125.317 11.43 125.437 11.39C125.517 11.37 125.597 11.37 125.677 11.39C125.717 11.41 125.757 11.44 125.797 11.48C125.837 11.5 125.877 11.52 125.917 11.54C126.117 11.62 126.287 11.78 126.427 12.02C126.467 12.12 126.507 12.22 126.547 12.32C126.587 12.42 126.597 12.53 126.577 12.65C126.577 12.71 126.617 12.74 126.697 12.74H126.937C127.037 12.7 127.137 12.68 127.237 12.68C127.357 12.68 127.457 12.68 127.537 12.68H128.317C128.537 12.66 128.757 12.67 128.977 12.71C129.217 12.73 129.447 12.76 129.667 12.8C130.327 12.88 130.957 13.03 131.557 13.25C132.217 13.45 132.837 13.78 133.417 14.24C133.637 14.4 133.877 14.63 134.137 14.93C134.217 15.01 134.287 15.1 134.347 15.2C134.427 15.28 134.497 15.37 134.557 15.47C134.777 15.81 134.887 16.16 134.887 16.52C134.927 16.76 134.927 16.99 134.887 17.21C134.887 17.39 134.847 17.55 134.767 17.69C134.767 17.69 134.757 17.7 134.737 17.72C134.737 17.72 134.737 17.73 134.737 17.75C134.697 17.81 134.667 17.88 134.647 17.96C134.647 18.04 134.617 18.1 134.557 18.14L134.287 18.47C134.187 18.59 134.077 18.72 133.957 18.86C133.857 18.98 133.737 19.09 133.597 19.19L133.297 19.4C133.237 19.42 133.177 19.45 133.117 19.49C133.057 19.53 133.007 19.58 132.967 19.64C132.907 19.7 132.837 19.75 132.757 19.79C132.677 19.85 132.587 19.91 132.487 19.97C132.407 20.01 132.317 20.05 132.217 20.09C132.117 20.13 132.117 20.18 132.217 20.24L132.427 20.33C132.527 20.39 132.637 20.45 132.757 20.51C132.877 20.55 132.987 20.6 133.087 20.66C133.247 20.74 133.407 20.84 133.567 20.96C133.747 21.06 133.907 21.16 134.047 21.26L134.407 21.59C134.507 21.69 134.597 21.8 134.677 21.92C134.777 22.02 134.867 22.13 134.947 22.25C135.107 22.45 135.237 22.67 135.337 22.91C135.457 23.15 135.537 23.4 135.577 23.66C135.617 23.8 135.637 23.95 135.637 24.11C135.637 24.25 135.617 24.4 135.577 24.56C135.537 24.72 135.547 24.87 135.607 25.01C135.627 25.07 135.617 25.17 135.577 25.31L135.487 25.7C135.447 25.82 135.397 25.93 135.337 26.03C135.297 26.13 135.227 26.23 135.127 26.33L134.767 26.81C134.647 26.95 134.517 27.09 134.377 27.23C134.257 27.37 134.117 27.49 133.957 27.59L133.687 27.77C133.647 27.77 133.587 27.79 133.507 27.83C132.627 28.29 131.717 28.53 130.777 28.55C130.677 28.55 130.597 28.56 130.537 28.58C130.357 28.6 130.167 28.62 129.967 28.64C129.787 28.64 129.597 28.64 129.397 28.64C129.237 28.64 129.067 28.66 128.887 28.7C128.727 28.72 128.567 28.73 128.407 28.73C128.327 28.75 128.247 28.77 128.167 28.79C128.087 28.79 128.007 28.79 127.927 28.79C127.827 28.81 127.717 28.83 127.597 28.85C127.497 28.87 127.397 28.9 127.297 28.94C127.237 28.96 127.177 28.98 127.117 29C127.077 29.02 127.027 29.05 126.967 29.09C126.767 29.23 126.537 29.3 126.277 29.3H125.647ZM126.967 19.31C127.047 19.31 127.117 19.3 127.177 19.28C127.257 19.26 127.327 19.24 127.387 19.22C127.647 19.12 127.897 19.03 128.137 18.95C128.377 18.85 128.627 18.76 128.887 18.68C129.187 18.58 129.487 18.47 129.787 18.35C130.087 18.21 130.387 18.08 130.687 17.96C130.927 17.86 131.157 17.73 131.377 17.57C131.617 17.41 131.837 17.25 132.037 17.09C132.077 17.07 132.107 17.05 132.127 17.03C132.147 16.99 132.167 16.96 132.187 16.94C132.227 16.88 132.227 16.82 132.187 16.76L132.097 16.61C132.017 16.55 131.947 16.49 131.887 16.43C131.827 16.37 131.747 16.31 131.647 16.25C131.567 16.21 131.487 16.16 131.407 16.1C131.327 16.04 131.237 15.99 131.137 15.95L130.867 15.77C130.567 15.65 130.267 15.55 129.967 15.47C129.667 15.39 129.357 15.35 129.037 15.35H128.017C127.857 15.35 127.697 15.36 127.537 15.38C127.377 15.4 127.217 15.43 127.057 15.47C126.997 15.47 126.907 15.49 126.787 15.53C126.667 15.55 126.607 15.62 126.607 15.74V16.43C126.647 16.63 126.647 16.84 126.607 17.06V17.33C126.647 17.45 126.667 17.58 126.667 17.72C126.667 17.84 126.667 17.97 126.667 18.11C126.687 18.47 126.747 18.85 126.847 19.25C126.847 19.29 126.887 19.31 126.967 19.31ZM127.207 26.24H127.327C127.467 26.22 127.607 26.21 127.747 26.21C127.887 26.19 128.027 26.17 128.167 26.15C128.407 26.11 128.647 26.07 128.887 26.03C129.147 25.99 129.397 25.96 129.637 25.94C130.097 25.9 130.547 25.84 130.987 25.76C131.167 25.72 131.337 25.68 131.497 25.64C131.677 25.6 131.847 25.56 132.007 25.52C132.107 25.48 132.197 25.44 132.277 25.4C132.377 25.34 132.467 25.29 132.547 25.25C132.827 25.05 132.987 24.75 133.027 24.35C133.047 23.97 132.907 23.66 132.607 23.42C132.567 23.38 132.487 23.32 132.367 23.24C132.047 23.02 131.707 22.84 131.347 22.7C130.987 22.56 130.617 22.45 130.237 22.37C130.057 22.33 129.877 22.3 129.697 22.28C129.537 22.24 129.367 22.23 129.187 22.25C129.107 22.25 129.017 22.26 128.917 22.28C128.837 22.28 128.757 22.28 128.677 22.28C128.597 22.28 128.517 22.29 128.437 22.31C128.357 22.31 128.267 22.31 128.167 22.31C128.067 22.31 127.957 22.31 127.837 22.31C127.737 22.31 127.637 22.32 127.537 22.34H127.267C127.167 22.38 127.117 22.44 127.117 22.52C127.137 22.68 127.147 22.85 127.147 23.03C127.147 23.21 127.147 23.38 127.147 23.54C127.147 23.58 127.147 23.62 127.147 23.66C127.167 23.7 127.177 23.74 127.177 23.78V24.41C127.157 24.53 127.147 24.65 127.147 24.77C127.147 24.89 127.147 25 127.147 25.1C127.147 25.24 127.147 25.38 127.147 25.52C127.167 25.64 127.157 25.77 127.117 25.91C127.097 25.95 127.087 26.02 127.087 26.12C127.087 26.16 127.127 26.2 127.207 26.24ZM141.979 29.21C141.859 29.21 141.779 29.2 141.739 29.18C141.639 29.14 141.539 29.12 141.439 29.12C141.359 29.14 141.269 29.15 141.169 29.15C141.149 29.15 141.129 29.15 141.109 29.15C141.089 29.17 141.069 29.18 141.049 29.18C140.909 29.2 140.769 29.21 140.629 29.21C140.509 29.21 140.389 29.19 140.269 29.15C140.249 29.13 140.229 29.12 140.209 29.12C140.069 29.14 139.949 29.1 139.849 29C139.749 28.9 139.649 28.81 139.549 28.73C139.449 28.63 139.399 28.52 139.399 28.4L139.309 28.16C139.249 28.02 139.229 27.89 139.249 27.77C139.269 27.73 139.269 27.69 139.249 27.65C139.249 27.61 139.249 27.57 139.249 27.53C139.229 27.49 139.219 27.45 139.219 27.41C139.219 27.35 139.209 27.3 139.189 27.26C139.149 27.08 139.119 26.9 139.099 26.72C139.099 26.52 139.109 26.33 139.129 26.15C139.149 26.03 139.219 25.83 139.339 25.55C139.459 25.25 139.529 25.07 139.549 25.01C139.609 24.91 139.639 24.83 139.639 24.77C139.619 24.55 139.609 24.33 139.609 24.11C139.629 23.87 139.639 23.64 139.639 23.42C139.639 23.28 139.669 23.17 139.729 23.09C139.809 22.95 139.819 22.8 139.759 22.64L139.669 22.31C139.549 22.09 139.559 21.9 139.699 21.74C139.699 21.72 139.699 21.71 139.699 21.71C139.719 21.69 139.729 21.67 139.729 21.65C139.769 21.61 139.779 21.56 139.759 21.5C139.739 21.42 139.729 21.36 139.729 21.32C139.729 21.24 139.739 21.16 139.759 21.08C139.799 20.98 139.809 20.89 139.789 20.81C139.789 20.81 139.769 20.79 139.729 20.75C139.709 20.71 139.699 20.63 139.699 20.51C139.719 20.39 139.729 20.32 139.729 20.3V19.46C139.749 19.36 139.759 19.27 139.759 19.19C139.759 19.09 139.769 18.99 139.789 18.89C139.809 18.77 139.809 18.65 139.789 18.53C139.789 18.39 139.789 18.25 139.789 18.11C139.769 18.01 139.749 17.9 139.729 17.78C139.729 17.66 139.729 17.54 139.729 17.42C139.709 17.38 139.699 17.33 139.699 17.27C139.699 17.21 139.699 17.16 139.699 17.12C139.679 17.02 139.659 16.92 139.639 16.82C139.639 16.72 139.639 16.62 139.639 16.52C139.639 16.48 139.599 16.35 139.519 16.13C139.439 15.89 139.409 15.69 139.429 15.53C139.449 15.49 139.459 15.44 139.459 15.38C139.459 15.32 139.439 15.27 139.399 15.23C139.359 15.21 139.339 15.17 139.339 15.11V15.02C139.399 14.78 139.369 14.54 139.249 14.3C139.169 14.18 139.139 14.06 139.159 13.94C139.159 13.78 139.089 13.66 138.949 13.58C138.849 13.48 138.759 13.36 138.679 13.22C138.599 13.08 138.549 12.94 138.529 12.8C138.509 12.7 138.499 12.6 138.499 12.5C138.499 12.4 138.499 12.31 138.499 12.23C138.499 12.15 138.509 12.1 138.529 12.08C138.609 12 138.649 11.91 138.649 11.81C138.649 11.69 138.659 11.6 138.679 11.54C138.699 11.52 138.719 11.51 138.739 11.51C138.759 11.51 138.779 11.5 138.799 11.48C138.879 11.46 138.919 11.39 138.919 11.27C138.879 11.19 138.859 11.12 138.859 11.06C138.839 10.98 138.869 10.91 138.949 10.85C138.989 10.77 139.039 10.75 139.099 10.79C139.239 10.85 139.399 10.83 139.579 10.73C139.659 10.69 139.709 10.67 139.729 10.67C139.789 10.67 139.819 10.67 139.819 10.67C139.839 10.65 139.899 10.64 139.999 10.64C140.119 10.66 140.229 10.62 140.329 10.52C140.469 10.38 140.639 10.31 140.839 10.31H142.699C143.159 10.33 143.619 10.33 144.079 10.31C144.539 10.29 144.989 10.28 145.429 10.28C145.529 10.28 145.609 10.28 145.669 10.28C145.749 10.26 145.829 10.24 145.909 10.22C146.029 10.16 146.169 10.13 146.329 10.13H147.019C147.179 10.13 147.319 10.13 147.439 10.13C147.579 10.11 147.719 10.09 147.859 10.07C147.939 10.05 148.009 10.04 148.069 10.04C148.149 10.04 148.229 10.04 148.309 10.04C148.389 10.04 148.469 10.04 148.549 10.04C148.629 10.04 148.709 10.03 148.789 10.01C148.949 9.99 149.119 9.98 149.299 9.98C149.479 9.96 149.649 9.95 149.809 9.95C149.889 9.95 149.959 9.95 150.019 9.95C150.099 9.93 150.179 9.91 150.259 9.89C150.419 9.85 150.569 9.83 150.709 9.83C150.869 9.81 151.019 9.79 151.159 9.77C151.319 9.75 151.469 9.73 151.609 9.71C151.769 9.69 151.919 9.67 152.059 9.65C152.239 9.65 152.369 9.67 152.449 9.71C152.569 9.79 152.679 9.86 152.779 9.92C152.899 9.98 153.009 10.06 153.109 10.16C153.189 10.24 153.239 10.31 153.259 10.37C153.279 10.45 153.299 10.53 153.319 10.61C153.339 10.69 153.359 10.78 153.379 10.88V11.09C153.359 11.19 153.339 11.3 153.319 11.42C153.319 11.52 153.309 11.63 153.289 11.75C153.249 11.83 153.199 11.9 153.139 11.96L152.599 12.5C152.399 12.56 152.199 12.6 151.999 12.62C151.819 12.64 151.629 12.64 151.429 12.62H151.219C151.119 12.64 151.019 12.65 150.919 12.65C150.819 12.65 150.719 12.64 150.619 12.62C150.499 12.6 150.379 12.6 150.259 12.62C150.139 12.62 150.019 12.62 149.899 12.62C149.819 12.62 149.739 12.63 149.659 12.65C149.599 12.65 149.529 12.64 149.449 12.62C149.349 12.6 149.249 12.6 149.149 12.62C149.069 12.62 148.979 12.63 148.879 12.65C148.799 12.65 148.709 12.66 148.609 12.68C148.529 12.68 148.439 12.68 148.339 12.68C148.079 12.72 147.799 12.74 147.499 12.74C147.219 12.74 146.939 12.76 146.659 12.8C146.479 12.78 146.309 12.79 146.149 12.83C145.989 12.85 145.819 12.87 145.639 12.89C145.479 12.91 145.309 12.92 145.129 12.92C144.949 12.92 144.779 12.94 144.619 12.98C144.419 12.98 144.219 13.01 144.019 13.07C143.839 13.11 143.649 13.14 143.449 13.16L143.239 13.19C143.099 13.19 142.969 13.21 142.849 13.25C142.729 13.27 142.599 13.3 142.459 13.34C142.379 13.36 142.299 13.38 142.219 13.4C142.139 13.4 142.049 13.41 141.949 13.43C141.889 13.43 141.819 13.45 141.739 13.49C141.679 13.51 141.649 13.57 141.649 13.67L141.739 13.94C141.759 13.98 141.749 14.08 141.709 14.24C141.689 14.4 141.669 14.52 141.649 14.6C141.649 14.66 141.659 14.72 141.679 14.78C141.699 14.84 141.719 14.9 141.739 14.96C141.799 15.12 141.829 15.3 141.829 15.5C141.829 15.68 141.849 15.85 141.889 16.01C141.909 16.09 141.919 16.18 141.919 16.28C141.919 16.36 141.929 16.45 141.949 16.55C141.949 16.59 141.949 16.64 141.949 16.7C141.969 16.74 141.979 16.79 141.979 16.85C141.979 16.91 141.969 16.95 141.949 16.97C141.889 17.05 141.859 17.14 141.859 17.24C141.859 17.34 141.859 17.44 141.859 17.54C141.959 17.74 142.009 17.94 142.009 18.14C142.009 18.34 142.009 18.54 142.009 18.74C142.009 18.8 142.059 18.82 142.159 18.8H142.189C142.229 18.72 142.269 18.66 142.309 18.62C142.369 18.62 142.439 18.6 142.519 18.56C142.579 18.52 142.659 18.5 142.759 18.5C142.919 18.52 143.069 18.52 143.209 18.5C143.349 18.46 143.489 18.42 143.629 18.38C144.569 18.14 145.449 17.83 146.269 17.45C146.489 17.35 146.719 17.27 146.959 17.21C147.199 17.13 147.439 17.08 147.679 17.06H147.769C147.949 17.04 148.129 17.02 148.309 17C148.489 16.98 148.669 16.97 148.849 16.97C149.089 16.95 149.319 16.92 149.539 16.88C149.779 16.84 150.019 16.81 150.259 16.79C150.399 16.75 150.529 16.72 150.649 16.7C150.769 16.66 150.899 16.61 151.039 16.55C151.299 16.45 151.539 16.4 151.759 16.4C151.919 16.42 152.069 16.46 152.209 16.52C152.349 16.56 152.489 16.62 152.629 16.7C152.929 16.9 153.079 17.2 153.079 17.6C153.079 17.76 153.059 17.92 153.019 18.08C152.999 18.24 152.989 18.4 152.989 18.56C152.989 18.6 152.969 18.64 152.929 18.68L152.839 18.83C152.819 18.91 152.799 18.99 152.779 19.07C152.759 19.15 152.709 19.21 152.629 19.25C152.509 19.35 152.379 19.46 152.239 19.58C152.119 19.68 151.979 19.75 151.819 19.79C151.739 19.81 151.659 19.83 151.579 19.85C151.519 19.87 151.449 19.88 151.369 19.88C151.049 19.88 150.719 19.9 150.379 19.94C150.059 19.98 149.729 20.02 149.389 20.06C149.129 20.08 148.869 20.11 148.609 20.15C148.369 20.19 148.119 20.21 147.859 20.21C147.619 20.21 147.349 20.26 147.049 20.36C146.849 20.4 146.639 20.44 146.419 20.48C146.199 20.52 145.979 20.55 145.759 20.57C145.599 20.59 145.429 20.62 145.249 20.66C145.089 20.68 144.929 20.7 144.769 20.72L144.259 20.81C144.219 20.83 144.159 20.84 144.079 20.84C143.939 20.88 143.799 20.91 143.659 20.93C143.519 20.95 143.379 20.98 143.239 21.02C143.099 21.04 142.959 21.07 142.819 21.11C142.699 21.15 142.569 21.19 142.429 21.23C142.329 21.25 142.249 21.29 142.189 21.35C142.129 21.39 142.079 21.45 142.039 21.53C142.019 21.59 142.019 21.65 142.039 21.71C142.059 21.79 142.049 21.87 142.009 21.95C142.029 22.15 142.039 22.35 142.039 22.55C142.059 22.75 142.059 22.95 142.039 23.15C142.079 23.31 142.089 23.47 142.069 23.63C142.069 23.79 142.059 23.95 142.039 24.11C141.999 24.35 142.009 24.55 142.069 24.71C142.129 24.97 142.109 25.24 142.009 25.52C141.969 25.64 141.969 25.72 142.009 25.76C142.049 25.82 142.049 25.89 142.009 25.97V26.15C141.989 26.31 142.059 26.39 142.219 26.39H142.279C142.419 26.39 142.559 26.44 142.699 26.54C142.799 26.64 142.919 26.67 143.059 26.63L143.899 26.54C144.019 26.52 144.139 26.51 144.259 26.51C144.379 26.49 144.499 26.48 144.619 26.48C144.659 26.46 144.719 26.47 144.799 26.51C144.899 26.57 144.989 26.58 145.069 26.54C145.109 26.5 145.159 26.47 145.219 26.45C145.299 26.43 145.359 26.4 145.399 26.36C145.519 26.24 145.669 26.2 145.849 26.24C146.009 26.28 146.139 26.27 146.239 26.21C146.419 26.15 146.589 26.13 146.749 26.15C146.849 26.17 146.949 26.16 147.049 26.12C147.149 26.08 147.249 26.06 147.349 26.06C147.389 26.06 147.419 26.07 147.439 26.09C147.459 26.09 147.479 26.08 147.499 26.06C147.539 26.06 147.579 26.05 147.619 26.03C147.659 26.01 147.689 26 147.709 26C147.849 25.94 147.979 25.92 148.099 25.94C148.199 25.94 148.249 25.94 148.249 25.94C148.329 25.92 148.399 25.92 148.459 25.94C148.539 25.96 148.609 25.99 148.669 26.03C148.769 26.05 148.849 26.08 148.909 26.12C148.989 26.16 149.069 26.19 149.149 26.21C149.189 26.21 149.219 26.22 149.239 26.24C149.339 26.32 149.459 26.39 149.599 26.45C149.759 26.51 149.849 26.58 149.869 26.66C149.909 26.78 149.929 26.9 149.929 27.02C149.929 27.12 149.939 27.23 149.959 27.35C149.959 27.41 149.949 27.47 149.929 27.53C149.929 27.59 149.919 27.65 149.899 27.71C149.859 27.79 149.809 27.88 149.749 27.98C149.709 28.08 149.649 28.17 149.569 28.25C149.529 28.29 149.489 28.33 149.449 28.37C149.429 28.41 149.399 28.45 149.359 28.49C149.279 28.57 149.189 28.64 149.089 28.7C148.989 28.76 148.879 28.79 148.759 28.79C148.679 28.79 148.619 28.8 148.579 28.82C148.499 28.86 148.419 28.88 148.339 28.88C148.259 28.88 148.169 28.88 148.069 28.88C147.929 28.9 147.789 28.92 147.649 28.94C147.529 28.94 147.399 28.93 147.259 28.91C147.179 28.89 147.109 28.89 147.049 28.91C146.849 28.97 146.649 28.98 146.449 28.94C146.249 28.94 146.049 28.95 145.849 28.97C145.669 28.97 145.489 28.97 145.309 28.97H144.919C144.859 28.97 144.809 28.98 144.769 29C144.689 29.04 144.589 29.06 144.469 29.06C144.369 29.06 144.269 29.05 144.169 29.03H143.869C143.849 29.03 143.819 29.03 143.779 29.03C143.739 29.05 143.699 29.05 143.659 29.03C143.599 29.01 143.539 29 143.479 29C143.439 29.02 143.389 29.04 143.329 29.06C143.289 29.06 143.249 29.06 143.209 29.06C143.189 29.08 143.159 29.09 143.119 29.09C142.919 29.07 142.729 29.07 142.549 29.09C142.369 29.13 142.179 29.17 141.979 29.21ZM157.756 29.3C157.596 29.28 157.436 29.24 157.276 29.18C157.116 29.14 156.976 29.07 156.856 28.97C156.836 28.93 156.806 28.9 156.766 28.88C156.726 28.84 156.696 28.81 156.676 28.79C156.596 28.67 156.526 28.54 156.466 28.4C156.406 28.26 156.366 28.12 156.346 27.98C156.326 27.68 156.356 27.38 156.436 27.08C156.536 26.76 156.606 26.44 156.646 26.12C156.686 25.78 156.706 25.44 156.706 25.1C156.726 24.7 156.736 24.3 156.736 23.9C156.736 23.5 156.736 23.11 156.736 22.73C156.736 22.63 156.726 22.53 156.706 22.43C156.706 22.31 156.696 22.2 156.676 22.1C156.656 22 156.646 21.89 156.646 21.77C156.646 21.65 156.646 21.54 156.646 21.44C156.646 21.34 156.636 21.24 156.616 21.14C156.616 21.02 156.606 20.91 156.586 20.81C156.566 20.73 156.556 20.65 156.556 20.57C156.576 20.49 156.576 20.41 156.556 20.33C156.556 20.19 156.556 20.05 156.556 19.91C156.556 19.77 156.546 19.63 156.526 19.49C156.506 19.47 156.496 19.43 156.496 19.37V17.75C156.476 17.65 156.466 17.56 156.466 17.48C156.466 17.38 156.466 17.28 156.466 17.18C156.486 17.12 156.496 17.03 156.496 16.91V16.55C156.496 16.43 156.486 16.32 156.466 16.22C156.466 16.1 156.476 15.98 156.496 15.86V15.71C156.476 15.55 156.466 15.4 156.466 15.26C156.486 15.1 156.506 14.95 156.526 14.81C156.546 14.73 156.556 14.6 156.556 14.42C156.516 14.3 156.496 14.21 156.496 14.15C156.476 14.05 156.456 13.96 156.436 13.88C156.436 13.78 156.446 13.69 156.466 13.61C156.486 13.43 156.446 13.24 156.346 13.04C156.286 12.96 156.236 12.88 156.196 12.8C156.176 12.7 156.146 12.61 156.106 12.53V12.44C156.146 12.4 156.186 12.4 156.226 12.44C156.286 12.46 156.316 12.45 156.316 12.41C156.336 12.37 156.346 12.33 156.346 12.29C156.346 12.23 156.356 12.19 156.376 12.17C156.396 12.11 156.386 12.03 156.346 11.93C156.326 11.87 156.356 11.83 156.436 11.81C156.476 11.73 156.546 11.68 156.646 11.66C156.746 11.62 156.806 11.59 156.826 11.57C156.886 11.49 156.956 11.45 157.036 11.45C157.116 11.45 157.196 11.45 157.276 11.45C157.336 11.45 157.426 11.43 157.546 11.39C157.626 11.37 157.706 11.37 157.786 11.39C157.826 11.41 157.866 11.44 157.906 11.48C157.946 11.5 157.986 11.52 158.026 11.54C158.226 11.62 158.396 11.78 158.536 12.02C158.576 12.12 158.616 12.22 158.656 12.32C158.696 12.42 158.706 12.53 158.686 12.65C158.686 12.71 158.726 12.74 158.806 12.74H159.046C159.146 12.7 159.246 12.68 159.346 12.68C159.466 12.68 159.566 12.68 159.646 12.68H160.426C160.646 12.66 160.866 12.67 161.086 12.71C161.326 12.73 161.556 12.76 161.776 12.8C162.436 12.88 163.066 13.03 163.666 13.25C164.326 13.45 164.946 13.78 165.526 14.24C165.746 14.4 165.986 14.63 166.246 14.93C166.326 15.01 166.396 15.1 166.456 15.2C166.536 15.28 166.606 15.37 166.666 15.47C166.886 15.81 166.996 16.16 166.996 16.52C167.036 16.76 167.036 16.99 166.996 17.21C166.996 17.39 166.956 17.55 166.876 17.69C166.876 17.69 166.866 17.7 166.846 17.72C166.846 17.72 166.846 17.73 166.846 17.75C166.806 17.81 166.776 17.88 166.756 17.96C166.756 18.04 166.726 18.1 166.666 18.14L166.396 18.47C166.296 18.59 166.186 18.72 166.066 18.86C165.966 18.98 165.846 19.09 165.706 19.19L165.406 19.4C165.346 19.42 165.286 19.45 165.226 19.49C165.166 19.53 165.116 19.58 165.076 19.64C165.016 19.7 164.946 19.75 164.866 19.79C164.786 19.85 164.696 19.91 164.596 19.97C164.516 20.01 164.426 20.05 164.326 20.09C164.226 20.13 164.226 20.18 164.326 20.24L164.536 20.33C164.636 20.39 164.746 20.45 164.866 20.51C164.986 20.55 165.096 20.6 165.196 20.66C165.356 20.74 165.516 20.84 165.676 20.96C165.856 21.06 166.016 21.16 166.156 21.26L166.516 21.59C166.616 21.69 166.706 21.8 166.786 21.92C166.886 22.02 166.976 22.13 167.056 22.25C167.216 22.45 167.346 22.67 167.446 22.91C167.566 23.15 167.646 23.4 167.686 23.66C167.726 23.8 167.746 23.95 167.746 24.11C167.746 24.25 167.726 24.4 167.686 24.56C167.646 24.72 167.656 24.87 167.716 25.01C167.736 25.07 167.726 25.17 167.686 25.31L167.596 25.7C167.556 25.82 167.506 25.93 167.446 26.03C167.406 26.13 167.336 26.23 167.236 26.33L166.876 26.81C166.756 26.95 166.626 27.09 166.486 27.23C166.366 27.37 166.226 27.49 166.066 27.59L165.796 27.77C165.756 27.77 165.696 27.79 165.616 27.83C164.736 28.29 163.826 28.53 162.886 28.55C162.786 28.55 162.706 28.56 162.646 28.58C162.466 28.6 162.276 28.62 162.076 28.64C161.896 28.64 161.706 28.64 161.506 28.64C161.346 28.64 161.176 28.66 160.996 28.7C160.836 28.72 160.676 28.73 160.516 28.73C160.436 28.75 160.356 28.77 160.276 28.79C160.196 28.79 160.116 28.79 160.036 28.79C159.936 28.81 159.826 28.83 159.706 28.85C159.606 28.87 159.506 28.9 159.406 28.94C159.346 28.96 159.286 28.98 159.226 29C159.186 29.02 159.136 29.05 159.076 29.09C158.876 29.23 158.646 29.3 158.386 29.3H157.756ZM159.076 19.31C159.156 19.31 159.226 19.3 159.286 19.28C159.366 19.26 159.436 19.24 159.496 19.22C159.756 19.12 160.006 19.03 160.246 18.95C160.486 18.85 160.736 18.76 160.996 18.68C161.296 18.58 161.596 18.47 161.896 18.35C162.196 18.21 162.496 18.08 162.796 17.96C163.036 17.86 163.266 17.73 163.486 17.57C163.726 17.41 163.946 17.25 164.146 17.09C164.186 17.07 164.216 17.05 164.236 17.03C164.256 16.99 164.276 16.96 164.296 16.94C164.336 16.88 164.336 16.82 164.296 16.76L164.206 16.61C164.126 16.55 164.056 16.49 163.996 16.43C163.936 16.37 163.856 16.31 163.756 16.25C163.676 16.21 163.596 16.16 163.516 16.1C163.436 16.04 163.346 15.99 163.246 15.95L162.976 15.77C162.676 15.65 162.376 15.55 162.076 15.47C161.776 15.39 161.466 15.35 161.146 15.35H160.126C159.966 15.35 159.806 15.36 159.646 15.38C159.486 15.4 159.326 15.43 159.166 15.47C159.106 15.47 159.016 15.49 158.896 15.53C158.776 15.55 158.716 15.62 158.716 15.74V16.43C158.756 16.63 158.756 16.84 158.716 17.06V17.33C158.756 17.45 158.776 17.58 158.776 17.72C158.776 17.84 158.776 17.97 158.776 18.11C158.796 18.47 158.856 18.85 158.956 19.25C158.956 19.29 158.996 19.31 159.076 19.31ZM159.316 26.24H159.436C159.576 26.22 159.716 26.21 159.856 26.21C159.996 26.19 160.136 26.17 160.276 26.15C160.516 26.11 160.756 26.07 160.996 26.03C161.256 25.99 161.506 25.96 161.746 25.94C162.206 25.9 162.656 25.84 163.096 25.76C163.276 25.72 163.446 25.68 163.606 25.64C163.786 25.6 163.956 25.56 164.116 25.52C164.216 25.48 164.306 25.44 164.386 25.4C164.486 25.34 164.576 25.29 164.656 25.25C164.936 25.05 165.096 24.75 165.136 24.35C165.156 23.97 165.016 23.66 164.716 23.42C164.676 23.38 164.596 23.32 164.476 23.24C164.156 23.02 163.816 22.84 163.456 22.7C163.096 22.56 162.726 22.45 162.346 22.37C162.166 22.33 161.986 22.3 161.806 22.28C161.646 22.24 161.476 22.23 161.296 22.25C161.216 22.25 161.126 22.26 161.026 22.28C160.946 22.28 160.866 22.28 160.786 22.28C160.706 22.28 160.626 22.29 160.546 22.31C160.466 22.31 160.376 22.31 160.276 22.31C160.176 22.31 160.066 22.31 159.946 22.31C159.846 22.31 159.746 22.32 159.646 22.34H159.376C159.276 22.38 159.226 22.44 159.226 22.52C159.246 22.68 159.256 22.85 159.256 23.03C159.256 23.21 159.256 23.38 159.256 23.54C159.256 23.58 159.256 23.62 159.256 23.66C159.276 23.7 159.286 23.74 159.286 23.78V24.41C159.266 24.53 159.256 24.65 159.256 24.77C159.256 24.89 159.256 25 159.256 25.1C159.256 25.24 159.256 25.38 159.256 25.52C159.276 25.64 159.266 25.77 159.226 25.91C159.206 25.95 159.196 26.02 159.196 26.12C159.196 26.16 159.236 26.2 159.316 26.24ZM174.088 29.21C173.968 29.21 173.888 29.2 173.848 29.18C173.748 29.14 173.648 29.12 173.548 29.12C173.468 29.14 173.378 29.15 173.278 29.15C173.258 29.15 173.238 29.15 173.218 29.15C173.198 29.17 173.178 29.18 173.158 29.18C173.018 29.2 172.878 29.21 172.738 29.21C172.618 29.21 172.498 29.19 172.378 29.15C172.358 29.13 172.338 29.12 172.318 29.12C172.178 29.14 172.058 29.1 171.958 29C171.858 28.9 171.758 28.81 171.658 28.73C171.558 28.63 171.508 28.52 171.508 28.4L171.418 28.16C171.358 28.02 171.338 27.89 171.358 27.77C171.378 27.73 171.378 27.69 171.358 27.65C171.358 27.61 171.358 27.57 171.358 27.53C171.338 27.49 171.328 27.45 171.328 27.41C171.328 27.35 171.318 27.3 171.298 27.26C171.258 27.08 171.228 26.9 171.208 26.72C171.208 26.52 171.218 26.33 171.238 26.15C171.258 26.03 171.328 25.83 171.448 25.55C171.568 25.25 171.638 25.07 171.658 25.01C171.718 24.91 171.748 24.83 171.748 24.77C171.728 24.55 171.718 24.33 171.718 24.11C171.738 23.87 171.748 23.64 171.748 23.42C171.748 23.28 171.778 23.17 171.838 23.09C171.918 22.95 171.928 22.8 171.868 22.64L171.778 22.31C171.658 22.09 171.668 21.9 171.808 21.74C171.808 21.72 171.808 21.71 171.808 21.71C171.828 21.69 171.838 21.67 171.838 21.65C171.878 21.61 171.888 21.56 171.868 21.5C171.848 21.42 171.838 21.36 171.838 21.32C171.838 21.24 171.848 21.16 171.868 21.08C171.908 20.98 171.918 20.89 171.898 20.81C171.898 20.81 171.878 20.79 171.838 20.75C171.818 20.71 171.808 20.63 171.808 20.51C171.828 20.39 171.838 20.32 171.838 20.3V19.46C171.858 19.36 171.868 19.27 171.868 19.19C171.868 19.09 171.878 18.99 171.898 18.89C171.918 18.77 171.918 18.65 171.898 18.53C171.898 18.39 171.898 18.25 171.898 18.11C171.878 18.01 171.858 17.9 171.838 17.78C171.838 17.66 171.838 17.54 171.838 17.42C171.818 17.38 171.808 17.33 171.808 17.27C171.808 17.21 171.808 17.16 171.808 17.12C171.788 17.02 171.768 16.92 171.748 16.82C171.748 16.72 171.748 16.62 171.748 16.52C171.748 16.48 171.708 16.35 171.628 16.13C171.548 15.89 171.518 15.69 171.538 15.53C171.558 15.49 171.568 15.44 171.568 15.38C171.568 15.32 171.548 15.27 171.508 15.23C171.468 15.21 171.448 15.17 171.448 15.11V15.02C171.508 14.78 171.478 14.54 171.358 14.3C171.278 14.18 171.248 14.06 171.268 13.94C171.268 13.78 171.198 13.66 171.058 13.58C170.958 13.48 170.868 13.36 170.788 13.22C170.708 13.08 170.658 12.94 170.638 12.8C170.618 12.7 170.608 12.6 170.608 12.5C170.608 12.4 170.608 12.31 170.608 12.23C170.608 12.15 170.618 12.1 170.638 12.08C170.718 12 170.758 11.91 170.758 11.81C170.758 11.69 170.768 11.6 170.788 11.54C170.808 11.52 170.828 11.51 170.848 11.51C170.868 11.51 170.888 11.5 170.908 11.48C170.988 11.46 171.028 11.39 171.028 11.27C170.988 11.19 170.968 11.12 170.968 11.06C170.948 10.98 170.978 10.91 171.058 10.85C171.098 10.77 171.148 10.75 171.208 10.79C171.348 10.85 171.508 10.83 171.688 10.73C171.768 10.69 171.818 10.67 171.838 10.67C171.898 10.67 171.928 10.67 171.928 10.67C171.948 10.65 172.008 10.64 172.108 10.64C172.228 10.66 172.338 10.62 172.438 10.52C172.578 10.38 172.748 10.31 172.948 10.31H174.808C175.268 10.33 175.728 10.33 176.188 10.31C176.648 10.29 177.098 10.28 177.538 10.28C177.638 10.28 177.718 10.28 177.778 10.28C177.858 10.26 177.938 10.24 178.018 10.22C178.138 10.16 178.278 10.13 178.438 10.13H179.128C179.288 10.13 179.428 10.13 179.548 10.13C179.688 10.11 179.828 10.09 179.968 10.07C180.048 10.05 180.118 10.04 180.178 10.04C180.258 10.04 180.338 10.04 180.418 10.04C180.498 10.04 180.578 10.04 180.658 10.04C180.738 10.04 180.818 10.03 180.898 10.01C181.058 9.99 181.228 9.98 181.408 9.98C181.588 9.96 181.758 9.95 181.918 9.95C181.998 9.95 182.068 9.95 182.128 9.95C182.208 9.93 182.288 9.91 182.368 9.89C182.528 9.85 182.678 9.83 182.818 9.83C182.978 9.81 183.128 9.79 183.268 9.77C183.428 9.75 183.578 9.73 183.718 9.71C183.878 9.69 184.028 9.67 184.168 9.65C184.348 9.65 184.478 9.67 184.558 9.71C184.678 9.79 184.788 9.86 184.888 9.92C185.008 9.98 185.118 10.06 185.218 10.16C185.298 10.24 185.348 10.31 185.368 10.37C185.388 10.45 185.408 10.53 185.428 10.61C185.448 10.69 185.468 10.78 185.488 10.88V11.09C185.468 11.19 185.448 11.3 185.428 11.42C185.428 11.52 185.418 11.63 185.398 11.75C185.358 11.83 185.308 11.9 185.248 11.96L184.708 12.5C184.508 12.56 184.308 12.6 184.108 12.62C183.928 12.64 183.738 12.64 183.538 12.62H183.328C183.228 12.64 183.128 12.65 183.028 12.65C182.928 12.65 182.828 12.64 182.728 12.62C182.608 12.6 182.488 12.6 182.368 12.62C182.248 12.62 182.128 12.62 182.008 12.62C181.928 12.62 181.848 12.63 181.768 12.65C181.708 12.65 181.638 12.64 181.558 12.62C181.458 12.6 181.358 12.6 181.258 12.62C181.178 12.62 181.088 12.63 180.988 12.65C180.908 12.65 180.818 12.66 180.718 12.68C180.638 12.68 180.548 12.68 180.448 12.68C180.188 12.72 179.908 12.74 179.608 12.74C179.328 12.74 179.048 12.76 178.768 12.8C178.588 12.78 178.418 12.79 178.258 12.83C178.098 12.85 177.928 12.87 177.748 12.89C177.588 12.91 177.418 12.92 177.238 12.92C177.058 12.92 176.888 12.94 176.728 12.98C176.528 12.98 176.328 13.01 176.128 13.07C175.948 13.11 175.758 13.14 175.558 13.16L175.348 13.19C175.208 13.19 175.078 13.21 174.958 13.25C174.838 13.27 174.708 13.3 174.568 13.34C174.488 13.36 174.408 13.38 174.328 13.4C174.248 13.4 174.158 13.41 174.058 13.43C173.998 13.43 173.928 13.45 173.848 13.49C173.788 13.51 173.758 13.57 173.758 13.67L173.848 13.94C173.868 13.98 173.858 14.08 173.818 14.24C173.798 14.4 173.778 14.52 173.758 14.6C173.758 14.66 173.768 14.72 173.788 14.78C173.808 14.84 173.828 14.9 173.848 14.96C173.908 15.12 173.938 15.3 173.938 15.5C173.938 15.68 173.958 15.85 173.998 16.01C174.018 16.09 174.028 16.18 174.028 16.28C174.028 16.36 174.038 16.45 174.058 16.55C174.058 16.59 174.058 16.64 174.058 16.7C174.078 16.74 174.088 16.79 174.088 16.85C174.088 16.91 174.078 16.95 174.058 16.97C173.998 17.05 173.968 17.14 173.968 17.24C173.968 17.34 173.968 17.44 173.968 17.54C174.068 17.74 174.118 17.94 174.118 18.14C174.118 18.34 174.118 18.54 174.118 18.74C174.118 18.8 174.168 18.82 174.268 18.8H174.298C174.338 18.72 174.378 18.66 174.418 18.62C174.478 18.62 174.548 18.6 174.628 18.56C174.688 18.52 174.768 18.5 174.868 18.5C175.028 18.52 175.178 18.52 175.318 18.5C175.458 18.46 175.598 18.42 175.738 18.38C176.678 18.14 177.558 17.83 178.378 17.45C178.598 17.35 178.828 17.27 179.068 17.21C179.308 17.13 179.548 17.08 179.788 17.06H179.878C180.058 17.04 180.238 17.02 180.418 17C180.598 16.98 180.778 16.97 180.958 16.97C181.198 16.95 181.428 16.92 181.648 16.88C181.888 16.84 182.128 16.81 182.368 16.79C182.508 16.75 182.638 16.72 182.758 16.7C182.878 16.66 183.008 16.61 183.148 16.55C183.408 16.45 183.648 16.4 183.868 16.4C184.028 16.42 184.178 16.46 184.318 16.52C184.458 16.56 184.598 16.62 184.738 16.7C185.038 16.9 185.188 17.2 185.188 17.6C185.188 17.76 185.168 17.92 185.128 18.08C185.108 18.24 185.098 18.4 185.098 18.56C185.098 18.6 185.078 18.64 185.038 18.68L184.948 18.83C184.928 18.91 184.908 18.99 184.888 19.07C184.868 19.15 184.818 19.21 184.738 19.25C184.618 19.35 184.488 19.46 184.348 19.58C184.228 19.68 184.088 19.75 183.928 19.79C183.848 19.81 183.768 19.83 183.688 19.85C183.628 19.87 183.558 19.88 183.478 19.88C183.158 19.88 182.828 19.9 182.488 19.94C182.168 19.98 181.838 20.02 181.498 20.06C181.238 20.08 180.978 20.11 180.718 20.15C180.478 20.19 180.228 20.21 179.968 20.21C179.728 20.21 179.458 20.26 179.158 20.36C178.958 20.4 178.748 20.44 178.528 20.48C178.308 20.52 178.088 20.55 177.868 20.57C177.708 20.59 177.538 20.62 177.358 20.66C177.198 20.68 177.038 20.7 176.878 20.72L176.368 20.81C176.328 20.83 176.268 20.84 176.188 20.84C176.048 20.88 175.908 20.91 175.768 20.93C175.628 20.95 175.488 20.98 175.348 21.02C175.208 21.04 175.068 21.07 174.928 21.11C174.808 21.15 174.678 21.19 174.538 21.23C174.438 21.25 174.358 21.29 174.298 21.35C174.238 21.39 174.188 21.45 174.148 21.53C174.128 21.59 174.128 21.65 174.148 21.71C174.168 21.79 174.158 21.87 174.118 21.95C174.138 22.15 174.148 22.35 174.148 22.55C174.168 22.75 174.168 22.95 174.148 23.15C174.188 23.31 174.198 23.47 174.178 23.63C174.178 23.79 174.168 23.95 174.148 24.11C174.108 24.35 174.118 24.55 174.178 24.71C174.238 24.97 174.218 25.24 174.118 25.52C174.078 25.64 174.078 25.72 174.118 25.76C174.158 25.82 174.158 25.89 174.118 25.97V26.15C174.098 26.31 174.168 26.39 174.328 26.39H174.388C174.528 26.39 174.668 26.44 174.808 26.54C174.908 26.64 175.028 26.67 175.168 26.63L176.008 26.54C176.128 26.52 176.248 26.51 176.368 26.51C176.488 26.49 176.608 26.48 176.728 26.48C176.768 26.46 176.828 26.47 176.908 26.51C177.008 26.57 177.098 26.58 177.178 26.54C177.218 26.5 177.268 26.47 177.328 26.45C177.408 26.43 177.468 26.4 177.508 26.36C177.628 26.24 177.778 26.2 177.958 26.24C178.118 26.28 178.248 26.27 178.348 26.21C178.528 26.15 178.698 26.13 178.858 26.15C178.958 26.17 179.058 26.16 179.158 26.12C179.258 26.08 179.358 26.06 179.458 26.06C179.498 26.06 179.528 26.07 179.548 26.09C179.568 26.09 179.588 26.08 179.608 26.06C179.648 26.06 179.688 26.05 179.728 26.03C179.768 26.01 179.798 26 179.818 26C179.958 25.94 180.088 25.92 180.208 25.94C180.308 25.94 180.358 25.94 180.358 25.94C180.438 25.92 180.508 25.92 180.568 25.94C180.648 25.96 180.718 25.99 180.778 26.03C180.878 26.05 180.958 26.08 181.018 26.12C181.098 26.16 181.178 26.19 181.258 26.21C181.298 26.21 181.328 26.22 181.348 26.24C181.448 26.32 181.568 26.39 181.708 26.45C181.868 26.51 181.958 26.58 181.978 26.66C182.018 26.78 182.038 26.9 182.038 27.02C182.038 27.12 182.048 27.23 182.068 27.35C182.068 27.41 182.058 27.47 182.038 27.53C182.038 27.59 182.028 27.65 182.008 27.71C181.968 27.79 181.918 27.88 181.858 27.98C181.818 28.08 181.758 28.17 181.678 28.25C181.638 28.29 181.598 28.33 181.558 28.37C181.538 28.41 181.508 28.45 181.468 28.49C181.388 28.57 181.298 28.64 181.198 28.7C181.098 28.76 180.988 28.79 180.868 28.79C180.788 28.79 180.728 28.8 180.688 28.82C180.608 28.86 180.528 28.88 180.448 28.88C180.368 28.88 180.278 28.88 180.178 28.88C180.038 28.9 179.898 28.92 179.758 28.94C179.638 28.94 179.508 28.93 179.368 28.91C179.288 28.89 179.218 28.89 179.158 28.91C178.958 28.97 178.758 28.98 178.558 28.94C178.358 28.94 178.158 28.95 177.958 28.97C177.778 28.97 177.598 28.97 177.418 28.97H177.028C176.968 28.97 176.918 28.98 176.878 29C176.798 29.04 176.698 29.06 176.578 29.06C176.478 29.06 176.378 29.05 176.278 29.03H175.978C175.958 29.03 175.928 29.03 175.888 29.03C175.848 29.05 175.808 29.05 175.768 29.03C175.708 29.01 175.648 29 175.588 29C175.548 29.02 175.498 29.04 175.438 29.06C175.398 29.06 175.358 29.06 175.318 29.06C175.298 29.08 175.268 29.09 175.228 29.09C175.028 29.07 174.838 29.07 174.658 29.09C174.478 29.13 174.288 29.17 174.088 29.21ZM190.706 29.6C190.326 29.64 190.016 29.52 189.776 29.24C189.656 29.12 189.546 28.99 189.446 28.85C189.346 28.71 189.266 28.56 189.206 28.4C189.106 28.12 189.016 27.84 188.936 27.56C188.856 27.26 188.786 26.97 188.726 26.69C188.666 26.47 188.636 26.26 188.636 26.06C188.616 25.84 188.586 25.63 188.546 25.43C188.526 25.21 188.516 24.99 188.516 24.77C188.516 24.65 188.516 24.53 188.516 24.41C188.516 24.27 188.506 24.14 188.486 24.02C188.466 23.94 188.456 23.87 188.456 23.81C188.456 23.75 188.456 23.68 188.456 23.6C188.456 23.32 188.456 23.04 188.456 22.76C188.456 22.46 188.446 22.17 188.426 21.89C188.426 21.73 188.416 21.59 188.396 21.47C188.376 21.33 188.336 21.19 188.276 21.05C188.196 20.83 188.186 20.59 188.246 20.33C188.246 20.27 188.256 20.23 188.276 20.21C188.316 20.07 188.336 19.93 188.336 19.79C188.356 19.65 188.356 19.51 188.336 19.37C188.316 19.27 188.306 19.17 188.306 19.07C188.306 18.97 188.306 18.88 188.306 18.8C188.286 18.58 188.276 18.36 188.276 18.14C188.296 17.9 188.316 17.67 188.336 17.45C188.356 17.39 188.366 17.33 188.366 17.27C188.366 17.21 188.366 17.15 188.366 17.09C188.346 16.87 188.346 16.66 188.366 16.46C188.406 16.26 188.436 16.06 188.456 15.86C188.496 15.62 188.536 15.39 188.576 15.17C188.616 14.93 188.666 14.69 188.726 14.45C188.766 14.35 188.786 14.24 188.786 14.12C188.786 14 188.786 13.88 188.786 13.76C188.786 13.66 188.776 13.56 188.756 13.46C188.756 13.36 188.756 13.27 188.756 13.19C188.756 13.13 188.756 13.07 188.756 13.01C188.756 12.95 188.766 12.89 188.786 12.83C188.806 12.77 188.816 12.71 188.816 12.65C188.816 12.59 188.826 12.55 188.846 12.53C188.906 12.45 188.956 12.38 188.996 12.32C189.036 12.24 189.096 12.17 189.176 12.11C189.276 12.05 189.366 11.99 189.446 11.93C189.546 11.87 189.636 11.82 189.716 11.78C189.816 11.74 189.896 11.69 189.956 11.63C190.036 11.53 190.116 11.44 190.196 11.36C190.296 11.26 190.376 11.15 190.436 11.03C190.536 10.93 190.636 10.82 190.736 10.7C190.856 10.56 190.986 10.45 191.126 10.37C191.166 10.35 191.226 10.3 191.306 10.22C191.546 10 191.826 9.86 192.146 9.8C192.206 9.78 192.256 9.77 192.296 9.77C192.356 9.75 192.416 9.74 192.476 9.74L192.686 9.65C192.846 9.59 192.986 9.62 193.106 9.74C193.146 9.8 193.196 9.86 193.256 9.92C193.336 9.96 193.406 10 193.466 10.04C193.626 10.18 193.776 10.33 193.916 10.49C194.076 10.65 194.216 10.83 194.336 11.03C194.536 11.35 194.706 11.67 194.846 11.99C195.006 12.31 195.156 12.64 195.296 12.98L195.836 14.27C195.856 14.39 195.906 14.5 195.986 14.6C196.146 14.9 196.266 15.21 196.346 15.53C196.426 15.83 196.506 16.14 196.586 16.46C196.606 16.5 196.616 16.54 196.616 16.58C196.636 16.62 196.646 16.66 196.646 16.7C196.686 16.86 196.716 17.03 196.736 17.21C196.776 17.37 196.786 17.53 196.766 17.69C196.786 17.87 196.776 18.05 196.736 18.23C196.716 18.39 196.686 18.55 196.646 18.71C196.586 18.91 196.516 19.1 196.436 19.28C196.356 19.44 196.266 19.61 196.166 19.79C196.126 19.91 196.056 20.02 195.956 20.12C195.856 20.22 195.756 20.31 195.656 20.39C195.496 20.47 195.336 20.59 195.176 20.75C195.136 20.79 195.086 20.82 195.026 20.84C194.986 20.86 194.946 20.89 194.906 20.93C194.766 20.99 194.616 21.06 194.456 21.14C194.296 21.2 194.136 21.26 193.976 21.32C193.956 21.32 193.946 21.34 193.946 21.38C193.946 21.4 193.956 21.42 193.976 21.44L194.786 22.01C194.886 22.07 194.976 22.13 195.056 22.19C195.136 22.23 195.216 22.28 195.296 22.34L195.476 22.43C195.716 22.57 195.956 22.72 196.196 22.88C196.436 23.04 196.666 23.2 196.886 23.36C197.306 23.62 197.726 23.89 198.146 24.17C198.566 24.43 198.966 24.72 199.346 25.04C199.686 25.3 199.986 25.6 200.246 25.94C200.306 26 200.366 26.07 200.426 26.15C200.486 26.21 200.556 26.26 200.636 26.3L200.726 26.39C201.046 26.67 201.226 27.05 201.266 27.53C201.266 27.59 201.256 27.65 201.236 27.71C201.236 27.77 201.236 27.83 201.236 27.89C201.236 28.01 201.196 28.11 201.116 28.19C201.036 28.23 200.996 28.28 200.996 28.34C200.936 28.48 200.846 28.58 200.726 28.64C200.626 28.68 200.526 28.74 200.426 28.82C200.386 28.84 200.316 28.85 200.216 28.85C200.096 28.83 199.966 28.81 199.826 28.79C199.706 28.77 199.586 28.76 199.466 28.76C199.306 28.76 199.136 28.69 198.956 28.55C198.836 28.45 198.726 28.36 198.626 28.28C198.526 28.18 198.426 28.06 198.326 27.92C198.066 27.56 197.726 27.23 197.306 26.93C197.106 26.77 196.916 26.62 196.736 26.48C196.556 26.34 196.356 26.21 196.136 26.09C195.996 26.01 195.856 25.93 195.716 25.85C195.596 25.75 195.456 25.66 195.296 25.58C194.796 25.24 194.286 24.91 193.766 24.59C193.246 24.25 192.726 23.91 192.206 23.57C192.126 23.51 192.036 23.45 191.936 23.39C191.836 23.33 191.736 23.27 191.636 23.21C191.596 23.17 191.536 23.13 191.456 23.09C191.376 23.09 191.336 23.12 191.336 23.18C191.336 23.2 191.326 23.22 191.306 23.24C191.306 23.24 191.306 23.25 191.306 23.27C191.306 23.33 191.306 23.39 191.306 23.45C191.306 23.51 191.316 23.57 191.336 23.63C191.356 23.79 191.366 23.95 191.366 24.11C191.366 24.25 191.366 24.4 191.366 24.56C191.366 24.68 191.366 24.8 191.366 24.92C191.386 25.02 191.406 25.13 191.426 25.25C191.426 25.31 191.426 25.38 191.426 25.46C191.446 25.52 191.456 25.58 191.456 25.64C191.436 25.82 191.446 26 191.486 26.18C191.526 26.36 191.556 26.54 191.576 26.72L191.756 27.5C191.776 27.58 191.796 27.67 191.816 27.77C191.836 27.85 191.856 27.94 191.876 28.04C191.896 28.12 191.896 28.2 191.876 28.28C191.876 28.34 191.866 28.41 191.846 28.49C191.846 28.51 191.826 28.54 191.786 28.58C191.686 28.6 191.616 28.67 191.576 28.79C191.516 28.93 191.426 29.05 191.306 29.15C191.206 29.27 191.096 29.38 190.976 29.48C190.956 29.5 190.916 29.52 190.856 29.54C190.796 29.56 190.746 29.58 190.706 29.6ZM191.876 19.1H191.936C192.156 19.06 192.376 19.02 192.596 18.98C192.836 18.92 193.066 18.85 193.286 18.77C193.506 18.71 193.696 18.6 193.856 18.44C193.996 18.3 194.066 18.14 194.066 17.96C194.086 17.82 194.086 17.69 194.066 17.57C194.066 17.43 194.046 17.29 194.006 17.15C193.926 16.79 193.836 16.44 193.736 16.1C193.636 15.74 193.516 15.4 193.376 15.08L193.106 14.36C193.046 14.16 192.976 13.97 192.896 13.79C192.816 13.59 192.726 13.4 192.626 13.22C192.606 13.18 192.586 13.14 192.566 13.1C192.546 13.04 192.526 12.99 192.506 12.95L192.386 12.83C192.326 12.75 192.256 12.75 192.176 12.83C192.156 12.83 192.126 12.85 192.086 12.89C191.946 13.07 191.816 13.26 191.696 13.46C191.596 13.66 191.536 13.88 191.516 14.12C191.496 14.2 191.476 14.28 191.456 14.36C191.456 14.44 191.456 14.53 191.456 14.63V15.92C191.436 16.2 191.426 16.49 191.426 16.79C191.446 17.09 191.436 17.38 191.396 17.66C191.376 17.72 191.366 17.78 191.366 17.84C191.386 17.9 191.396 17.96 191.396 18.02C191.416 18.14 191.426 18.26 191.426 18.38C191.426 18.48 191.426 18.59 191.426 18.71C191.426 18.91 191.446 19.03 191.486 19.07C191.546 19.11 191.676 19.12 191.876 19.1Z" fill="#353535"/>
</svg>
