<svg width="670" height="335" viewBox="0 0 670 335" fill="none" xmlns="http://www.w3.org/2000/svg">
<rect width="670" height="335" fill="white"/>
<path d="M179.45 161.15H181.45L193.6 182.65L205.7 161.15H207.55V195.95H179.45V161.15ZM181.3 194.15H205.7V164.9L194.45 184.7H192.7L181.3 164.6V194.15ZM230.512 160.45C233.112 160.45 235.512 161.1 237.712 162.4C239.912 163.667 241.645 165.4 242.912 167.6C244.212 169.8 244.862 172.2 244.862 174.8V182.4C244.862 185 244.212 187.4 242.912 189.6C241.645 191.8 239.912 193.55 237.712 194.85C235.512 196.117 233.112 196.75 230.512 196.75C227.912 196.75 225.512 196.117 223.312 194.85C221.112 193.55 219.362 191.8 218.062 189.6C216.795 187.4 216.162 185 216.162 182.4V174.8C216.162 172.2 216.795 169.8 218.062 167.6C219.362 165.4 221.112 163.667 223.312 162.4C225.512 161.1 227.912 160.45 230.512 160.45ZM218.012 182.4C218.012 184.667 218.562 186.767 219.662 188.7C220.795 190.6 222.312 192.117 224.212 193.25C226.145 194.35 228.245 194.9 230.512 194.9C232.778 194.9 234.862 194.35 236.762 193.25C238.695 192.117 240.212 190.6 241.312 188.7C242.445 186.767 243.012 184.667 243.012 182.4V174.8C243.012 172.533 242.445 170.45 241.312 168.55C240.212 166.617 238.695 165.1 236.762 164C234.862 162.867 232.778 162.3 230.512 162.3C228.245 162.3 226.145 162.867 224.212 164C222.312 165.1 220.795 166.617 219.662 168.55C218.562 170.45 218.012 172.533 218.012 174.8V182.4ZM275.073 162.35C277.073 163.283 278.64 164.667 279.773 166.5C280.94 168.333 281.523 170.367 281.523 172.6C281.523 175.2 280.723 177.533 279.123 179.6C277.557 181.633 275.54 182.983 273.073 183.65L281.923 196H279.723L271.173 184L269.573 184.05H257.023V196H255.173V161.2H268.423C269.89 161.2 271.14 161.3 272.173 161.5C273.24 161.667 274.207 161.95 275.073 162.35ZM270.073 182.2C271.807 182.2 273.407 181.767 274.873 180.9C276.34 180.033 277.507 178.867 278.373 177.4C279.24 175.933 279.673 174.333 279.673 172.6C279.673 170.667 279.157 168.917 278.123 167.35C277.123 165.783 275.723 164.617 273.923 163.85C272.623 163.317 270.79 163.05 268.423 163.05H257.023V182.2H270.073ZM292.535 161.2H317.035V163.05H294.385V177.15H314.085V179H294.385V194.15H317.035V196H292.535V161.2ZM181 246V211.2H193.95C196.483 211.2 198.817 211.833 200.95 213.1C203.117 214.367 204.833 216.083 206.1 218.25C207.367 220.383 208 222.717 208 225.25V231.95C208 234.483 207.367 236.833 206.1 239C204.833 241.133 203.117 242.833 200.95 244.1C198.817 245.367 196.483 246 193.95 246H181ZM218.512 211.2H243.012V213.05H220.362V227.15H240.062V229H220.362V244.15H243.012V246H218.512V211.2ZM281.573 211.2V213.05H268.423V246H266.623V213.05H253.473V211.2H281.573ZM303.585 211.2H305.535L319.835 246H317.835L313.135 234.5H295.985L291.235 246H289.285L303.585 211.2ZM296.735 232.7H312.385L304.535 213.6L296.735 232.7ZM352.847 211.2V213.05H342.447V244.15H352.847V246H330.297V244.15H340.647V213.05H330.297V211.2H352.847ZM367.809 246V211.2H369.659V244.15H393.909V246H367.809ZM416.32 229.35C413.487 228.783 411.17 228.167 409.37 227.5C407.604 226.8 406.204 225.867 405.17 224.7C404.17 223.5 403.67 221.967 403.67 220.1C403.67 218.167 404.17 216.467 405.17 215C406.204 213.533 407.637 212.4 409.47 211.6C411.337 210.8 413.487 210.4 415.92 210.4C418.254 210.4 420.387 210.9 422.32 211.9C424.287 212.867 425.837 214.233 426.97 216C428.104 217.767 428.67 219.783 428.67 222.05H426.82C426.82 220.083 426.337 218.35 425.37 216.85C424.404 215.35 423.087 214.2 421.42 213.4C419.754 212.567 417.904 212.15 415.87 212.15C414.07 212.15 412.387 212.433 410.82 213C409.254 213.567 407.97 214.433 406.97 215.6C406.004 216.767 405.52 218.233 405.52 220C405.52 221.6 405.987 222.883 406.92 223.85C407.854 224.783 409.07 225.5 410.57 226C412.07 226.5 414.17 227.033 416.87 227.6C419.604 228.167 421.72 228.717 423.22 229.25C424.754 229.75 426.037 230.6 427.07 231.8C428.137 233 428.67 234.683 428.67 236.85C428.67 239.017 428.087 240.85 426.92 242.35C425.787 243.817 424.27 244.917 422.37 245.65C420.47 246.383 418.404 246.75 416.17 246.75C413.404 246.75 410.97 246.233 408.87 245.2C406.77 244.167 405.154 242.717 404.02 240.85C402.92 238.95 402.37 236.783 402.37 234.35H404.22C404.22 236.483 404.687 238.35 405.62 239.95C406.587 241.55 407.97 242.8 409.77 243.7C411.57 244.567 413.704 245 416.17 245C419.237 245 421.77 244.267 423.77 242.8C425.804 241.333 426.82 239.333 426.82 236.8C426.82 235.067 426.387 233.733 425.52 232.8C424.654 231.867 423.554 231.2 422.22 230.8C420.92 230.367 418.954 229.883 416.32 229.35Z" fill="black"/>
<path d="M540.366 224.954L516.298 208.574L516.077 240.89L540.366 224.954Z" fill="black"/>
</svg>
